ply
format ascii 1.0
element vertex 707
property float32 x
property float32 y
property float32 z
property float32 I
end_header
-9.0847 -0.0000 -1.9203 0.9635
-9.0629 -0.6482 -1.9206 0.9635
-8.9965 -1.2935 -1.9212 0.9635
-8.9467 -1.6141 -1.9217 0.9635
-8.8139 -2.2496 -1.9228 0.9635
-8.7311 -2.5637 -1.9235 0.9635
-8.5331 -3.1827 -1.9251 0.9635
-8.2927 -3.7871 -1.9270 0.9634
-8.0107 -4.3742 -1.9293 0.9634
-7.5126 -5.2161 -1.9332 0.9633
-6.9284 -6.0035 -1.9378 0.9632
-6.7154 -6.2523 -1.9395 0.9632
-6.4938 -6.4938 -1.9412 0.9632
-6.2637 -6.7277 -1.9430 0.9631
-6.0253 -6.9536 -1.9449 0.9631
-5.7789 -7.1712 -1.9468 0.9630
-5.5249 -7.3804 -1.9488 0.9630
-4.7194 -7.9541 -1.9550 0.9629
-4.1492 -8.2891 -1.9594 0.9628
-3.8551 -8.4416 -1.9617 0.9628
-3.5556 -8.5839 -1.9640 0.9627
-3.2508 -8.7157 -1.9663 0.9627
-2.6271 -8.9472 -1.9711 0.9626
-1.9871 -9.1345 -1.9760 0.9625
-1.6619 -9.2112 -1.9785 0.9625
-0.3358 -9.4018 -1.9886 0.9623
0.3367 -9.4260 -1.9937 0.9622
0.6737 -9.4200 -1.9963 0.9621
1.0108 -9.4021 -1.9989 0.9621
1.3475 -9.3720 -2.0014 0.9620
1.6833 -9.3297 -2.0040 0.9620
2.0178 -9.2754 -2.0065 0.9619
2.6810 -9.1306 -2.0115 0.9618
3.9723 -8.6981 -2.0213 0.9617
4.2852 -8.5607 -2.0236 0.9616
4.5933 -8.4119 -2.0259 0.9616
5.1932 -8.0808 -2.0304 0.9615
5.4842 -7.8987 -2.0326 0.9614
5.7687 -7.7060 -2.0347 0.9614
6.0462 -7.5029 -2.0368 0.9614
6.3164 -7.2895 -2.0388 0.9613
6.8332 -6.8332 -2.0427 0.9613
7.0790 -6.5908 -2.0445 0.9612
8.3566 -4.9582 -2.0539 0.9611
8.8543 -4.0436 -2.0575 0.9610
8.9974 -3.7269 -2.0586 0.9610
9.3558 -2.7471 -2.0611 0.9609
9.4510 -2.4122 -2.0618 0.9609
9.6038 -1.7327 -2.0628 0.9609
9.7379 -0.6965 -2.0637 0.9609
9.7569 -0.3485 -2.0637 0.9609
-8.1995 0.0000 -1.9271 0.9669
-8.1946 -0.2927 -1.9272 0.9669
-8.1546 -0.8767 -1.9276 0.9669
-8.0743 -1.4567 -1.9283 0.9668
-8.0191 -1.7444 -1.9288 0.9668
-7.7942 -2.5942 -1.9306 0.9668
-7.4821 -3.4169 -1.9331 0.9668
-7.2268 -3.9461 -1.9352 0.9667
-7.0855 -4.2040 -1.9363 0.9667
-6.7761 -4.7047 -1.9388 0.9667
-6.6083 -4.9469 -1.9401 0.9666
-5.6468 -6.0651 -1.9476 0.9665
-4.9793 -6.6516 -1.9528 0.9664
-4.5007 -7.0031 -1.9565 0.9664
-4.2520 -7.1663 -1.9584 0.9663
-3.4722 -7.6031 -1.9644 0.9662
-3.2020 -7.7304 -1.9665 0.9662
-2.9272 -7.8481 -1.9686 0.9662
-2.0783 -8.1429 -1.9751 0.9661
-1.7884 -8.2211 -1.9773 0.9660
-1.2001 -8.3467 -1.9818 0.9659
-0.6030 -8.4304 -1.9864 0.9659
-0.3020 -8.4563 -1.9887 0.9658
0.0000 -8.4715 -1.9910 0.9658
0.3027 -8.4759 -1.9933 0.9658
0.6057 -8.4695 -1.9956 0.9657
0.9087 -8.4522 -1.9979 0.9657
2.7028 -8.1207 -2.0115 0.9654
3.2824 -7.9244 -2.0159 0.9654
3.5669 -7.8105 -2.0180 0.9653
4.6611 -7.2528 -2.0262 0.9652
5.1765 -6.9149 -2.0301 0.9651
5.4249 -6.7319 -2.0320 0.9651
6.1293 -6.1293 -2.0372 0.9650
6.5612 -5.6853 -2.0404 0.9650
7.3236 -4.7066 -2.0460 0.9649
7.6496 -4.1770 -2.0484 0.9648
7.7980 -3.9034 -2.0495 0.9648
8.0641 -3.3403 -2.0514 0.9648
8.1815 -3.0516 -2.0522 0.9648
8.3843 -2.4618 -2.0537 0.9647
8.4692 -2.1617 -2.0543 0.9647
8.5431 -1.8584 -2.0548 0.9647
8.6057 -1.5526 -2.0552 0.9647
8.6970 -0.9350 -2.0558 0.9647
8.7255 -0.6241 -2.0559 0.9647
8.7425 -0.3122 -2.0560 0.9647
-7.4462 -0.5326 -1.9329 0.9696
-7.4233 -0.7981 -1.9331 0.9696
-7.3913 -1.0627 -1.9334 0.9696
-7.3500 -1.3261 -1.9338 0.9696
-7.2996 -1.5879 -1.9342 0.9696
-7.0080 -2.6138 -1.9366 0.9696
-6.9130 -2.8635 -1.9374 0.9696
-6.5764 -3.5910 -1.9401 0.9695
-6.3103 -4.0554 -1.9422 0.9695
-6.1652 -4.2806 -1.9433 0.9695
-5.8516 -4.7155 -1.9458 0.9694
-5.5078 -5.1280 -1.9485 0.9694
-5.3252 -5.3252 -1.9499 0.9694
-4.9393 -5.7003 -1.9529 0.9693
-4.7365 -5.8777 -1.9545 0.9693
-4.5275 -6.0480 -1.9561 0.9693
-3.6335 -6.6543 -1.9630 0.9692
-3.3968 -6.7860 -1.9648 0.9691
-3.1554 -6.9095 -1.9667 0.9691
-2.9096 -7.0244 -1.9686 0.9691
-1.8878 -7.3963 -1.9764 0.9690
-1.6243 -7.4666 -1.9785 0.9689
-1.0897 -7.5791 -1.9825 0.9689
-0.2742 -7.6762 -1.9888 0.9688
0.0000 -7.6891 -1.9909 0.9687
0.2747 -7.6923 -1.9929 0.9687
0.8245 -7.6692 -1.9971 0.9686
1.0989 -7.6428 -1.9992 0.9686
1.6447 -7.5605 -2.0033 0.9685
2.4509 -7.3638 -2.0094 0.9684
2.9758 -7.1843 -2.0134 0.9684
3.4874 -6.9670 -2.0173 0.9683
3.9829 -6.7128 -2.0210 0.9683
4.2237 -6.5722 -2.0228 0.9682
4.4595 -6.4229 -2.0245 0.9682
5.1333 -5.9241 -2.0296 0.9681
5.5513 -5.5513 -2.0327 0.9681
5.9416 -5.1484 -2.0356 0.9680
6.1257 -4.9364 -2.0370 0.9680
6.6304 -4.2611 -2.0407 0.9680
6.9247 -3.7812 -2.0428 0.9679
7.2989 -3.0233 -2.0455 0.9679
7.7878 -1.4050 -2.0489 0.9678
7.8341 -1.1264 -2.0492 0.9678
7.8702 -0.8461 -2.0495 0.9678
-6.8436 0.0000 -1.9374 0.9720
-6.8395 -0.2443 -1.9375 0.9719
-6.8269 -0.4882 -1.9376 0.9719
-6.6375 -1.6941 -1.9393 0.9719
-6.5745 -1.9304 -1.9398 0.9719
-6.5034 -2.1645 -1.9404 0.9719
-6.3368 -2.6248 -1.9417 0.9719
-6.2416 -2.8504 -1.9425 0.9719
-6.1385 -3.0727 -1.9433 0.9719
-6.0276 -3.2913 -1.9442 0.9719
-5.7832 -3.7167 -1.9461 0.9718
-5.5094 -4.1243 -1.9483 0.9718
-5.3619 -4.3209 -1.9494 0.9718
-5.2075 -4.5123 -1.9507 0.9718
-5.0464 -4.6983 -1.9519 0.9717
-4.8787 -4.8787 -1.9532 0.9717
-4.7048 -5.0532 -1.9546 0.9717
-4.1468 -5.5395 -1.9589 0.9716
-3.9495 -5.6884 -1.9604 0.9716
-3.5394 -5.9653 -1.9636 0.9716
-3.3270 -6.0929 -1.9653 0.9716
-3.1100 -6.2130 -1.9669 0.9715
-2.4345 -6.5271 -1.9721 0.9715
-2.2020 -6.6158 -1.9739 0.9714
-1.9662 -6.6963 -1.9757 0.9714
-1.4863 -6.8322 -1.9794 0.9714
-1.2426 -6.8874 -1.9813 0.9713
-0.9969 -6.9339 -1.9831 0.9713
-0.7495 -6.9717 -1.9850 0.9713
-0.5007 -7.0007 -1.9869 0.9712
0.5026 -7.0276 -1.9946 0.9711
1.2546 -6.9535 -2.0003 0.9711
1.7507 -6.8591 -2.0040 0.9710
1.9962 -6.7985 -2.0059 0.9710
2.4807 -6.6509 -2.0095 0.9709
2.7189 -6.5640 -2.0113 0.9709
2.9541 -6.4685 -2.0131 0.9709
3.1858 -6.3644 -2.0148 0.9708
3.6379 -6.1313 -2.0182 0.9708
3.8575 -6.0024 -2.0199 0.9708
4.8804 -5.2419 -2.0275 0.9707
5.0678 -5.0678 -2.0289 0.9706
5.4235 -4.6995 -2.0316 0.9706
5.5912 -4.5057 -2.0328 0.9706
6.0508 -3.8886 -2.0362 0.9705
6.1889 -3.6720 -2.0372 0.9705
6.3189 -3.4504 -2.0381 0.9705
6.5545 -2.9933 -2.0399 0.9705
6.9226 -2.0327 -2.0425 0.9705
6.9924 -1.7847 -2.0430 0.9704
7.0531 -1.5343 -2.0434 0.9704
7.1046 -1.2818 -2.0437 0.9704
7.1468 -1.0275 -2.0440 0.9704
7.2170 -0.2577 -2.0444 0.9704
-6.3082 -0.2253 -1.9415 0.9739
-6.2771 -0.6748 -1.9418 0.9739
-6.1214 -1.5624 -1.9432 0.9739
-6.0632 -1.7803 -1.9436 0.9739
-5.9975 -1.9961 -1.9442 0.9739
-5.8435 -2.4204 -1.9454 0.9739
-5.5578 -3.0348 -1.9477 0.9738
-5.3321 -3.4267 -1.9495 0.9738
-4.9430 -3.9833 -1.9526 0.9738
-4.6516 -4.3308 -1.9548 0.9738
-4.1700 -4.8125 -1.9586 0.9737
-3.8213 -5.1047 -1.9613 0.9737
-3.6393 -5.2416 -1.9627 0.9736
-3.4525 -5.3721 -1.9642 0.9736
-3.2610 -5.4961 -1.9656 0.9736
-3.0651 -5.6133 -1.9672 0.9736
-2.2422 -6.0117 -1.9735 0.9735
-2.0279 -6.0929 -1.9751 0.9735
-1.5908 -6.2326 -1.9785 0.9734
-1.1441 -6.3412 -1.9819 0.9734
-0.9178 -6.3835 -1.9836 0.9734
-0.6900 -6.4179 -1.9854 0.9733
-0.2308 -6.4621 -1.9889 0.9733
0.0000 -6.4719 -1.9906 0.9733
0.2312 -6.4735 -1.9924 0.9733
0.4625 -6.4669 -1.9941 0.9732
0.6936 -6.4519 -1.9959 0.9732
1.1542 -6.3972 -1.9994 0.9732
1.3830 -6.3574 -2.0011 0.9731
1.6104 -6.3094 -2.0029 0.9731
2.0599 -6.1889 -2.0063 0.9731
2.2814 -6.1166 -2.0079 0.9730
2.9292 -5.8518 -2.0128 0.9730
3.7435 -5.3917 -2.0189 0.9729
3.9364 -5.2584 -2.0204 0.9729
4.3074 -4.9710 -2.0231 0.9728
4.6570 -4.6571 -2.0257 0.9728
4.8232 -4.4906 -2.0270 0.9728
5.1372 -4.1398 -2.0293 0.9728
5.4251 -3.7667 -2.0314 0.9727
5.5587 -3.5724 -2.0324 0.9727
5.6853 -3.3732 -2.0333 0.9727
6.1169 -2.5337 -2.0364 0.9727
6.2054 -2.3145 -2.0371 0.9727
6.2858 -2.0921 -2.0376 0.9727
6.5635 -0.9437 -2.0395 0.9726
6.6151 -0.4731 -2.0399 0.9726
-5.8511 -0.0000 -1.9449 0.9756
-5.8475 -0.2088 -1.9450 0.9756
-5.8367 -0.4174 -1.9451 0.9756
-5.7607 -1.0393 -1.9458 0.9756
-5.7209 -1.2445 -1.9461 0.9756
-5.6200 -1.6502 -1.9470 0.9756
-5.4909 -2.0480 -1.9480 0.9756
-5.4160 -2.2434 -1.9487 0.9756
-5.1508 -2.8125 -1.9508 0.9756
-5.0492 -2.9958 -1.9516 0.9756
-4.9412 -3.1755 -1.9524 0.9755
-4.8270 -3.3514 -1.9533 0.9755
-4.5801 -3.6909 -1.9553 0.9755
-4.4478 -3.8541 -1.9563 0.9755
-4.3098 -4.0126 -1.9574 0.9755
-3.8631 -4.4582 -1.9609 0.9754
-3.5397 -4.7284 -1.9634 0.9754
-3.3709 -4.8550 -1.9647 0.9754
-3.1976 -4.9756 -1.9660 0.9754
-3.0201 -5.0901 -1.9674 0.9754
-2.8385 -5.1984 -1.9688 0.9753
-2.6531 -5.3002 -1.9702 0.9753
-2.2716 -5.4842 -1.9732 0.9753
-2.0760 -5.5660 -1.9747 0.9753
-1.8775 -5.6409 -1.9762 0.9753
-1.6762 -5.7087 -1.9777 0.9752
-1.2667 -5.8230 -1.9809 0.9752
-0.8495 -5.9081 -1.9841 0.9752
-0.6386 -5.9394 -1.9857 0.9751
-0.2136 -5.9796 -1.9889 0.9751
0.2139 -5.9894 -1.9922 0.9751
0.8550 -5.9467 -1.9970 0.9750
1.0676 -5.9171 -1.9987 0.9750
1.6980 -5.7829 -2.0034 0.9749
1.9048 -5.7231 -2.0050 0.9749
2.3118 -5.5812 -2.0081 0.9749
2.5114 -5.4992 -2.0096 0.9748
2.7081 -5.4100 -2.0110 0.9748
2.9015 -5.3137 -2.0125 0.9748
3.0915 -5.2105 -2.0139 0.9748
4.6045 -3.9898 -2.0252 0.9746
4.7464 -3.8249 -2.0263 0.9746
5.0120 -3.4799 -2.0282 0.9746
5.1353 -3.3003 -2.0291 0.9746
5.2520 -3.1162 -2.0300 0.9746
5.4651 -2.7356 -2.0315 0.9746
5.5612 -2.5397 -2.0322 0.9746
5.6501 -2.3403 -2.0329 0.9746
5.7316 -2.1378 -2.0334 0.9745
5.8724 -1.7243 -2.0344 0.9745
6.1095 -0.4370 -2.0360 0.9745
6.1213 -0.2186 -2.0361 0.9745
-5.4473 0.0000 -1.9480 0.9771
-5.4440 -0.1944 -1.9481 0.9771
-5.4170 -0.5824 -1.9483 0.9771
-5.3934 -0.7754 -1.9486 0.9771
-5.2822 -1.3482 -1.9495 0.9771
-5.2318 -1.5362 -1.9499 0.9771
-5.1115 -1.9065 -1.9509 0.9771
-5.0416 -2.0883 -1.9515 0.9771
-4.9654 -2.2676 -1.9521 0.9771
-4.5990 -2.9556 -1.9550 0.9770
-4.4925 -3.1192 -1.9558 0.9770
-4.2625 -3.4349 -1.9576 0.9770
-4.1392 -3.5867 -1.9586 0.9770
-3.7381 -4.0150 -1.9617 0.9770
-3.5944 -4.1482 -1.9629 0.9770
-3.2933 -4.3993 -1.9652 0.9769
-2.8095 -4.7351 -1.9689 0.9769
-2.2918 -5.0185 -1.9729 0.9768
-1.5588 -5.3087 -1.9786 0.9768
-1.3693 -5.3648 -1.9800 0.9768
-0.7897 -5.4928 -1.9844 0.9767
-0.5936 -5.5216 -1.9859 0.9767
-0.3965 -5.5434 -1.9874 0.9767
-0.1985 -5.5583 -1.9890 0.9766
0.0000 -5.5661 -1.9905 0.9766
0.3977 -5.5603 -1.9935 0.9766
0.9920 -5.4983 -1.9980 0.9765
1.1885 -5.4635 -1.9995 0.9765
1.9597 -5.2540 -2.0053 0.9765
2.5153 -5.0249 -2.0095 0.9764
2.6949 -4.9353 -2.0109 0.9764
2.8712 -4.8391 -2.0122 0.9764
3.0440 -4.7366 -2.0135 0.9764
3.3784 -4.5130 -2.0160 0.9763
3.8481 -4.1331 -2.0195 0.9763
3.9953 -3.9953 -2.0206 0.9763
4.1375 -3.8522 -2.0216 0.9763
4.2746 -3.7039 -2.0226 0.9763
4.4062 -3.5507 -2.0236 0.9762
4.5322 -3.3927 -2.0245 0.9762
4.7667 -3.0634 -2.0263 0.9762
4.9769 -2.7176 -2.0278 0.9762
5.0724 -2.5391 -2.0285 0.9762
5.3194 -1.9840 -2.0303 0.9762
5.5046 -1.4050 -2.0316 0.9762
5.5521 -1.2078 -2.0319 0.9762
5.6254 -0.8088 -2.0324 0.9761
5.6512 -0.6076 -2.0325 0.9761
5.6695 -0.4055 -2.0326 0.9761
5.6805 -0.2029 -2.0327 0.9761
-5.0873 -0.1817 -1.9508 0.9784
-5.0620 -0.5442 -1.9510 0.9784
-4.8354 -1.6094 -1.9530 0.9784
-4.2966 -2.7613 -1.9573 0.9784
-4.1970 -2.9141 -1.9580 0.9784
-3.9819 -3.2088 -1.9597 0.9783
-3.8666 -3.3504 -1.9606 0.9783
-3.7464 -3.4880 -1.9616 0.9783
-3.2186 -3.9940 -1.9657 0.9783
-3.0757 -4.1086 -1.9668 0.9783
-2.9288 -4.2182 -1.9679 0.9782
-2.6235 -4.4217 -1.9703 0.9782
-2.1399 -4.6857 -1.9740 0.9782
-1.6300 -4.8973 -1.9779 0.9781
-1.4551 -4.9557 -1.9793 0.9781
-1.2782 -5.0079 -1.9806 0.9781
-0.5540 -5.1532 -1.9862 0.9780
0.5564 -5.1751 -1.9946 0.9780
0.7413 -5.1556 -1.9960 0.9779
1.2908 -5.0573 -2.0002 0.9779
1.8277 -4.9003 -2.0042 0.9778
2.1755 -4.7636 -2.0069 0.9778
2.9959 -4.3149 -2.0130 0.9777
3.1498 -4.2076 -2.0142 0.9777
3.5873 -3.8530 -2.0174 0.9777
3.7244 -3.7244 -2.0185 0.9777
3.8569 -3.5908 -2.0194 0.9777
3.9844 -3.4525 -2.0204 0.9777
4.2243 -3.1623 -2.0222 0.9776
4.4426 -2.8551 -2.0238 0.9776
4.5434 -2.6957 -2.0245 0.9776
4.7272 -2.3663 -2.0258 0.9776
4.8101 -2.1967 -2.0264 0.9776
4.8868 -2.0242 -2.0270 0.9776
4.9571 -1.8489 -2.0275 0.9776
5.0211 -1.6712 -2.0279 0.9776
5.0785 -1.4912 -2.0284 0.9776
5.2659 -0.5662 -2.0296 0.9776
-4.7693 -0.1703 -1.9532 0.9796
-4.7604 -0.3405 -1.9533 0.9796
-4.7456 -0.5102 -1.9534 0.9796
-4.7248 -0.6793 -1.9536 0.9796
-4.5828 -1.3456 -1.9548 0.9796
-4.5328 -1.5087 -1.9552 0.9796
-4.4771 -1.6699 -1.9557 0.9796
-4.3489 -1.9861 -1.9567 0.9795
-4.2765 -2.1407 -1.9573 0.9795
-4.1987 -2.2927 -1.9579 0.9795
-4.0272 -2.5882 -1.9593 0.9795
-3.9338 -2.7313 -1.9600 0.9795
-3.8353 -2.8711 -1.9608 0.9795
-3.7319 -3.0074 -1.9616 0.9795
-3.6238 -3.1400 -1.9625 0.9795
-3.5110 -3.2688 -1.9633 0.9795
-3.2719 -3.5143 -1.9652 0.9795
-3.1460 -3.6307 -1.9662 0.9795
-2.7442 -3.9524 -1.9693 0.9794
-2.6028 -4.0501 -1.9704 0.9794
-2.4580 -4.1428 -1.9715 0.9794
-2.1587 -4.3126 -1.9738 0.9794
-1.6884 -4.5269 -1.9774 0.9793
-1.5268 -4.5872 -1.9787 0.9793
-1.3629 -4.6417 -1.9799 0.9793
-1.1971 -4.6904 -1.9812 0.9793
-0.8606 -4.7700 -1.9838 0.9793
-0.6903 -4.8008 -1.9851 0.9793
-0.5188 -4.8256 -1.9864 0.9792
-0.3465 -4.8443 -1.9877 0.9792
-0.1735 -4.8568 -1.9890 0.9792
1.0378 -4.7707 -1.9982 0.9791
1.2082 -4.7337 -1.9995 0.9791
2.0358 -4.4579 -2.0057 0.9790
2.1950 -4.3850 -2.0069 0.9790
2.5051 -4.2221 -2.0093 0.9790
2.6557 -4.1323 -2.0104 0.9790
2.8030 -4.0371 -2.0115 0.9790
3.0871 -3.8309 -2.0136 0.9790
3.2236 -3.7202 -2.0146 0.9789
3.3559 -3.6045 -2.0156 0.9789
3.6079 -3.3590 -2.0175 0.9789
4.0558 -2.8160 -2.0208 0.9789
4.4985 -2.0544 -2.0240 0.9789
4.5702 -1.8930 -2.0246 0.9788
4.6956 -1.5629 -2.0255 0.9788
4.7968 -1.2243 -2.0262 0.9788
4.9243 -0.5294 -2.0270 0.9788
-1.4360 -0.1544 -0.6294 0.9937
-1.4180 -0.2039 -0.6244 0.9938
-1.3955 -0.2518 -0.6180 0.9938
-1.3688 -0.2978 -0.6105 0.9939
-1.3400 -0.3420 -0.6027 0.9940
-1.3722 -0.4029 -0.6233 0.9938
-1.4401 -0.4793 -0.6615 0.9934
-1.5118 -0.5639 -0.7032 0.9930
-3.8686 -2.2953 -1.9604 0.9806
-3.7855 -2.4328 -1.9611 0.9806
-3.6975 -2.5672 -1.9618 0.9806
-3.4059 -2.9512 -1.9641 0.9805
-3.2998 -3.0722 -1.9649 0.9805
-3.1894 -3.1894 -1.9658 0.9805
-2.9565 -3.4120 -1.9676 0.9805
-2.4457 -3.8056 -1.9715 0.9805
-1.5862 -4.2528 -1.9782 0.9804
-1.4342 -4.3092 -1.9793 0.9804
-1.1245 -4.4058 -1.9817 0.9804
-0.8083 -4.4803 -1.9841 0.9803
-0.6483 -4.5091 -1.9853 0.9803
-0.4873 -4.5321 -1.9866 0.9803
-0.1629 -4.5610 -1.9890 0.9803
-0.0000 -4.5668 -1.9903 0.9803
0.6515 -4.5315 -1.9952 0.9802
0.8134 -4.5082 -1.9965 0.9802
1.4502 -4.3570 -2.0013 0.9802
1.6057 -4.3050 -2.0024 0.9802
1.7593 -4.2474 -2.0036 0.9801
1.9109 -4.1843 -2.0047 0.9801
2.3511 -3.9626 -2.0081 0.9801
2.4924 -3.8782 -2.0091 0.9801
2.7655 -3.6942 -2.0112 0.9801
2.8970 -3.5950 -2.0121 0.9801
3.2692 -3.2692 -2.0149 0.9800
3.3852 -3.1517 -2.0158 0.9800
3.4970 -3.0302 -2.0166 0.9800
4.0697 -2.2222 -2.0208 0.9800
4.2201 -1.9273 -2.0219 0.9800
4.2872 -1.7758 -2.0224 0.9800
4.4048 -1.4661 -2.0232 0.9799
4.4551 -1.3081 -2.0236 0.9799
4.4996 -1.1485 -2.0239 0.9799
4.6191 -0.4966 -2.0247 0.9799
4.6430 -0.1658 -2.0248 0.9799
-1.2447 -0.0000 -0.5761 0.9945
-1.2424 -0.0444 -0.5755 0.9945
-1.2362 -0.0884 -0.5737 0.9946
-1.2261 -0.1318 -0.5708 0.9946
-1.1974 -0.2160 -0.5632 0.9947
-1.1790 -0.2565 -0.5585 0.9947
-1.1575 -0.2954 -0.5529 0.9947
-1.1536 -0.3840 -0.5628 0.9947
-1.2017 -0.4482 -0.5937 0.9944
-3.8526 -1.7594 -1.9605 0.9815
-3.7883 -1.8963 -1.9610 0.9815
-3.7192 -2.0309 -1.9615 0.9815
-3.6455 -2.1629 -1.9621 0.9815
-3.3968 -2.5428 -1.9641 0.9815
-3.3051 -2.6634 -1.9648 0.9815
-3.2091 -2.7807 -1.9655 0.9815
-3.0050 -3.0050 -1.9671 0.9814
-2.8971 -3.1117 -1.9680 0.9814
-2.5513 -3.4082 -1.9707 0.9814
-2.4292 -3.4987 -1.9716 0.9814
-2.1756 -3.6668 -1.9736 0.9814
-1.9104 -3.8166 -1.9756 0.9814
-1.7739 -3.8844 -1.9767 0.9814
-1.6351 -3.9474 -1.9777 0.9813
-1.3508 -4.0584 -1.9799 0.9813
-1.2057 -4.1064 -1.9810 0.9813
-1.0590 -4.1491 -1.9821 0.9813
-0.6105 -4.2459 -1.9856 0.9813
-0.1534 -4.2944 -1.9891 0.9812
0.0000 -4.2996 -1.9902 0.9812
0.3071 -4.2937 -1.9926 0.9812
0.4604 -4.2825 -1.9937 0.9812
0.7657 -4.2437 -1.9960 0.9812
1.0677 -4.1830 -1.9983 0.9812
1.6558 -3.9974 -2.0028 0.9811
1.7983 -3.9378 -2.0038 0.9811
2.2124 -3.7288 -2.0070 0.9811
2.8460 -3.2845 -2.0117 0.9810
2.9627 -3.1822 -2.0126 0.9810
3.0757 -3.0757 -2.0134 0.9810
3.2899 -2.8507 -2.0150 0.9810
3.3908 -2.7325 -2.0157 0.9810
3.5795 -2.4853 -2.0171 0.9810
3.6671 -2.3567 -2.0178 0.9810
3.8282 -2.0903 -2.0189 0.9810
4.0326 -1.6704 -2.0204 0.9809
4.1431 -1.3790 -2.0212 0.9809
4.1904 -1.2304 -2.0215 0.9809
4.2686 -0.9286 -2.0221 0.9809
4.3585 -0.3117 -2.0227 0.9809
4.3670 -0.1560 -2.0227 0.9809
-1.0817 0.0000 -0.5306 0.9952
-1.0769 -0.0770 -0.5296 0.9952
-1.0705 -0.1151 -0.5281 0.9952
-1.0518 -0.1898 -0.5242 0.9952
-1.0422 -0.2267 -0.5232 0.9953
-1.0025 -0.3337 -0.5183 0.9953
-1.0119 -0.3774 -0.5298 0.9952
-1.0290 -0.4262 -0.5463 0.9951
-1.0588 -0.5300 -0.5808 0.9947
-3.5125 -1.9180 -1.9631 0.9823
-3.3686 -2.1649 -1.9642 0.9823
-3.2077 -2.4012 -1.9655 0.9823
-3.1210 -2.5151 -1.9662 0.9823
-3.0303 -2.6258 -1.9669 0.9823
-2.7355 -2.9381 -1.9692 0.9823
-2.6300 -3.0352 -1.9700 0.9823
-2.5211 -3.1284 -1.9708 0.9823
-2.2935 -3.3033 -1.9726 0.9822
-2.1751 -3.3846 -1.9735 0.9822
-1.4102 -3.7808 -1.9794 0.9822
-0.8596 -3.9515 -1.9836 0.9821
-0.7184 -3.9818 -1.9847 0.9821
-0.5761 -4.0071 -1.9858 0.9821
-0.4330 -4.0273 -1.9869 0.9821
-0.1447 -4.0524 -1.9891 0.9821
0.0000 -4.0573 -1.9902 0.9821
0.1449 -4.0569 -1.9913 0.9821
0.4344 -4.0407 -1.9935 0.9821
0.7224 -4.0038 -1.9957 0.9820
0.8653 -3.9776 -1.9968 0.9820
1.0073 -3.9463 -1.9978 0.9820
1.4256 -3.8221 -2.0010 0.9820
1.6963 -3.7144 -2.0030 0.9820
1.8287 -3.6533 -2.0040 0.9820
2.0867 -3.5170 -2.0060 0.9819
2.3345 -3.3623 -2.0078 0.9819
2.5706 -3.1900 -2.0096 0.9819
2.6840 -3.0975 -2.0104 0.9819
2.9004 -2.9004 -2.0120 0.9819
3.3752 -2.3434 -2.0156 0.9819
3.4577 -2.2221 -2.0162 0.9819
3.6784 -1.8413 -2.0178 0.9818
3.8021 -1.5749 -2.0187 0.9818
3.9507 -1.1600 -2.0197 0.9818
3.9901 -1.0184 -2.0200 0.9818
4.0773 -0.5862 -2.0206 0.9818
-0.9895 0.0000 -0.5133 0.9956
-0.9715 -0.1753 -0.5121 0.9956
-0.9628 -0.2094 -0.5112 0.9956
-0.9208 -0.3434 -0.5098 0.9956
-0.9271 -0.3840 -0.5206 0.9955
-0.9416 -0.4713 -0.5462 0.9953
-0.9486 -0.5179 -0.5607 0.9951
-3.2575 -1.9328 -1.9650 0.9831
-3.1132 -2.1615 -1.9662 0.9831
-3.0350 -2.2720 -1.9668 0.9831
-2.9529 -2.3796 -1.9674 0.9831
-2.8671 -2.4843 -1.9681 0.9831
-2.7776 -2.5860 -1.9688 0.9830
-2.3850 -2.9596 -1.9718 0.9830
-1.9429 -3.2745 -1.9753 0.9830
-1.8256 -3.3433 -1.9762 0.9830
-1.7059 -3.4079 -1.9771 0.9830
-0.6794 -3.7654 -1.9850 0.9829
-0.4094 -3.8082 -1.9870 0.9829
-0.2734 -3.8224 -1.9881 0.9829
0.0000 -3.8362 -1.9901 0.9829
0.1370 -3.8357 -1.9912 0.9829
0.2740 -3.8304 -1.9922 0.9828
0.5471 -3.8051 -1.9943 0.9828
1.0853 -3.6960 -1.9984 0.9828
1.2171 -3.6568 -1.9994 0.9828
1.4763 -3.5641 -2.0013 0.9828
1.7284 -3.4530 -2.0032 0.9828
1.8514 -3.3906 -2.0042 0.9827
1.9722 -3.3239 -2.0051 0.9827
2.2062 -3.1775 -2.0068 0.9827
2.3192 -3.0980 -2.0077 0.9827
2.4293 -3.0145 -2.0085 0.9827
2.5363 -2.9271 -2.0093 0.9827
2.6402 -2.8358 -2.0100 0.9827
3.0212 -2.4346 -2.0129 0.9827
3.1071 -2.3259 -2.0135 0.9827
3.3408 -1.9822 -2.0152 0.9826
3.5360 -1.6148 -2.0166 0.9826
3.5921 -1.4879 -2.0170 0.9826
3.6904 -1.2283 -2.0177 0.9826
3.7696 -0.9621 -2.0183 0.9826
3.8020 -0.8271 -2.0185 0.9826
3.8294 -0.6909 -2.0187 0.9826
-0.9179 -0.0328 -0.5031 0.9958
-0.9161 -0.0655 -0.5030 0.9958
-0.9011 -0.1626 -0.5015 0.9958
-0.8932 -0.1943 -0.5006 0.9958
-0.8837 -0.2255 -0.4995 0.9958
-0.8603 -0.2863 -0.4966 0.9959
-0.8465 -0.3157 -0.4948 0.9959
-0.8506 -0.3884 -0.5122 0.9957
-0.8507 -0.4645 -0.5309 0.9956
-2.9506 -2.0486 -1.9674 0.9838
-2.8764 -2.1533 -1.9680 0.9837
-2.7986 -2.2553 -1.9686 0.9837
-2.6323 -2.4508 -1.9699 0.9837
-2.2601 -2.8046 -1.9728 0.9837
-2.1594 -2.8846 -1.9735 0.9837
-2.0559 -2.9610 -1.9743 0.9837
-1.7298 -3.1679 -1.9769 0.9837
-1.6163 -3.2290 -1.9777 0.9837
-1.5007 -3.2861 -1.9786 0.9837
-1.2636 -3.3879 -1.9805 0.9836
-0.8955 -3.5086 -1.9833 0.9836
-0.7701 -3.5400 -1.9842 0.9836
-0.5161 -3.5895 -1.9862 0.9836
-0.3878 -3.6074 -1.9872 0.9836
-0.2589 -3.6207 -1.9881 0.9836
-0.1296 -3.6294 -1.9891 0.9836
0.0000 -3.6336 -1.9901 0.9836
0.1298 -3.6330 -1.9911 0.9836
0.3890 -3.6181 -1.9931 0.9835
0.6467 -3.5846 -1.9950 0.9835
0.7747 -3.5610 -1.9960 0.9835
1.1525 -3.4627 -1.9988 0.9835
1.5182 -3.3243 -2.0016 0.9835
1.6366 -3.2694 -2.0025 0.9835
1.8673 -3.1471 -2.0042 0.9834
1.9792 -3.0797 -2.0051 0.9834
2.0887 -3.0083 -2.0059 0.9834
2.1956 -2.9330 -2.0067 0.9834
2.4994 -2.6846 -2.0090 0.9834
2.9411 -2.2017 -2.0122 0.9834
3.1622 -1.8762 -2.0138 0.9834
3.2279 -1.7626 -2.0143 0.9834
3.2895 -1.6466 -2.0148 0.9834
3.4486 -1.2863 -2.0159 0.9834
3.4929 -1.1625 -2.0162 0.9834
3.6244 -0.6539 -2.0171 0.9833
3.6457 -0.5242 -2.0173 0.9833
3.6812 -0.1315 -2.0175 0.9833
-0.8548 -0.0305 -0.4938 0.9961
-0.8230 -0.2101 -0.4904 0.9961
-0.7887 -0.2942 -0.4860 0.9961
-0.7809 -0.3566 -0.4957 0.9960
-2.7302 -2.0438 -1.9690 0.9844
-2.6563 -2.1406 -1.9696 0.9844
-2.4984 -2.3261 -1.9709 0.9844
-2.1449 -2.6617 -1.9736 0.9843
-1.5338 -3.0641 -1.9783 0.9843
-1.4241 -3.1183 -1.9792 0.9843
-1.1990 -3.2147 -1.9809 0.9843
-0.2457 -3.4349 -1.9882 0.9842
-0.1230 -3.4431 -1.9891 0.9842
0.1231 -3.4463 -1.9910 0.9842
0.2461 -3.4414 -1.9919 0.9842
0.3690 -3.4320 -1.9929 0.9842
0.6134 -3.4001 -1.9947 0.9842
0.7348 -3.3776 -1.9957 0.9842
0.8552 -3.3507 -1.9966 0.9842
0.9747 -3.3196 -1.9975 0.9841
1.4397 -3.1526 -2.0010 0.9841
1.5520 -3.1005 -2.0018 0.9841
1.6624 -3.0444 -2.0026 0.9841
1.7707 -2.9843 -2.0035 0.9841
1.9806 -2.8526 -2.0050 0.9841
2.1807 -2.7061 -2.0065 0.9841
2.2767 -2.6275 -2.0072 0.9841
2.3699 -2.5454 -2.0079 0.9841
2.5471 -2.3714 -2.0093 0.9841
2.8620 -1.9871 -2.0116 0.9840
2.9318 -1.8842 -2.0121 0.9840
3.0602 -1.6710 -2.0130 0.9840
3.1729 -1.4490 -2.0138 0.9840
3.2231 -1.3351 -2.0142 0.9840
3.2693 -1.2194 -2.0145 0.9840
3.3112 -1.1021 -2.0148 0.9840
3.3489 -0.9833 -2.0151 0.9840
3.4358 -0.6199 -2.0157 0.9840
3.4560 -0.4969 -2.0158 0.9840
3.4717 -0.3733 -2.0159 0.9840
3.4829 -0.2491 -2.0160 0.9840
