ply
format ascii 1.0
element vertex 771
property float32 x
property float32 y
property float32 z
property float32 I
end_header
-2.4476 8.3358 0.9329 0.9657
-2.4475 8.3354 0.7354 0.9657
-2.4468 8.3331 -0.2445 0.9658
-2.4464 8.3317 -0.8337 0.9657
-3.0714 9.2282 -1.3781 0.9615
-3.3737 9.0452 -1.3679 0.9617
-2.4198 8.2413 -1.4150 0.9658
-3.0716 9.2289 -1.6023 0.9613
5.2465 8.1637 -1.8240 0.9613
4.9498 8.3424 -1.8233 0.9613
3.3838 9.0724 -1.8200 0.9614
3.0569 9.1844 -1.8194 0.9614
2.7263 9.2849 -1.8189 0.9614
2.3925 9.3735 -1.8183 0.9614
2.0558 9.4503 -1.8178 0.9614
1.7167 9.5153 -1.8174 0.9614
1.3757 9.5682 -1.8169 0.9614
-1.3738 9.5554 -1.8145 0.9615
-1.7139 9.4994 -1.8143 0.9615
-2.0517 9.4315 -1.8142 0.9615
-2.3869 9.3518 -1.8141 0.9615
-2.9859 8.9711 -1.7772 0.9622
-3.3430 8.9629 -1.7980 0.9618
-3.6934 8.9166 -1.8141 0.9615
-4.0094 8.7794 -1.8141 0.9615
-5.2198 8.1222 -1.8147 0.9615
-5.5071 7.9317 -1.8150 0.9615
-5.7875 7.7312 -1.8152 0.9615
9.3994 1.0106 -1.9983 0.9621
9.2950 1.6770 -1.9965 0.9621
9.2250 2.0068 -1.9956 0.9621
9.1433 2.3337 -1.9947 0.9622
8.9453 2.9773 -1.9928 0.9622
8.8293 3.2932 -1.9919 0.9622
8.7021 3.6045 -1.9910 0.9622
8.5640 3.9111 -1.9901 0.9622
8.4151 4.2123 -1.9892 0.9623
8.2557 4.5079 -1.9883 0.9623
7.9059 5.0808 -1.9865 0.9623
7.3079 5.8891 -1.9839 0.9624
7.0900 6.1435 -1.9830 0.9624
6.1334 7.0784 -1.9798 0.9624
5.8746 7.2899 -1.9790 0.9624
5.3210 7.6637 -1.9721 0.9626
3.6054 7.8947 -1.8346 0.9651
3.3000 7.9668 -1.8228 0.9654
2.7216 8.1771 -1.8217 0.9654
1.2250 8.5200 -1.8195 0.9654
0.6138 8.5824 -1.8188 0.9654
0.0000 8.6015 -1.8182 0.9654
-0.3069 8.5948 -1.8179 0.9654
-0.9191 8.5490 -1.8175 0.9655
-1.2235 8.5099 -1.8173 0.9655
-1.8273 8.3997 -1.8171 0.9655
-2.4092 8.2052 -1.8076 0.9656
-3.2894 7.9413 -1.8169 0.9655
-3.9054 7.8021 -1.8443 0.9650
-4.2466 7.7771 -1.8730 0.9644
-4.5989 7.7510 -1.9051 0.9638
-4.9595 7.7171 -1.9391 0.9632
-5.2927 7.6229 -1.9616 0.9628
-5.5697 7.4403 -1.9646 0.9627
-5.8411 7.2483 -1.9677 0.9627
-6.5889 6.5889 -1.9697 0.9626
-6.8212 6.3508 -1.9701 0.9626
-7.2602 5.8507 -1.9709 0.9626
-7.4662 5.5892 -1.9714 0.9626
-7.6630 5.3205 -1.9720 0.9626
-7.8501 5.0450 -1.9725 0.9626
-8.1949 4.4747 -1.9736 0.9625
-8.6346 3.5766 -1.9756 0.9625
-8.7598 3.2672 -1.9762 0.9625
-8.9770 2.6359 -1.9777 0.9625
-9.0688 2.3147 -1.9784 0.9625
-9.2752 1.3336 -1.9808 0.9624
-9.3544 0.6691 -1.9824 0.9624
-9.3763 0.3349 -1.9832 0.9624
8.5102 0.0000 -2.0001 0.9656
8.4818 0.6067 -1.9985 0.9657
8.4514 0.9086 -1.9977 0.9657
8.4101 1.2092 -1.9969 0.9657
8.2226 2.0987 -1.9944 0.9657
8.1391 2.3899 -1.9936 0.9657
8.0453 2.6777 -1.9928 0.9658
7.8273 3.2422 -1.9912 0.9658
7.7034 3.5180 -1.9903 0.9658
7.5698 3.7892 -1.9895 0.9658
6.7631 5.0628 -1.9855 0.9659
6.5756 5.2989 -1.9848 0.9659
6.3798 5.5281 -1.9840 0.9659
6.1761 5.7501 -1.9832 0.9659
5.9647 5.9647 -1.9825 0.9659
5.7459 6.1715 -1.9818 0.9659
5.2872 6.5610 -1.9804 0.9660
5.0479 6.7432 -1.9797 0.9660
4.8024 6.9168 -1.9790 0.9660
4.5510 7.0815 -1.9784 0.9660
4.0317 7.3834 -1.9771 0.9660
3.4864 7.6342 -1.9724 0.9661
3.2080 7.7449 -1.9702 0.9661
2.6295 7.9005 -1.9570 0.9664
2.3225 7.9095 -1.9374 0.9667
0.8531 7.9347 -1.8756 0.9677
0.2834 7.9358 -1.8663 0.9679
0.0000 7.9357 -1.8651 0.9679
-0.2832 7.9305 -1.8650 0.9679
-0.5667 7.9244 -1.8672 0.9679
-0.8512 7.9180 -1.8716 0.9678
-1.1374 7.9110 -1.8784 0.9677
-1.7169 7.8927 -1.8983 0.9674
-2.0110 7.8790 -1.9111 0.9671
-2.9178 7.8231 -1.9623 0.9663
-4.7818 6.8871 -1.9705 0.9661
-5.0251 6.7128 -1.9707 0.9661
-5.9329 5.9329 -1.9719 0.9661
-6.1420 5.7184 -1.9723 0.9661
-6.5369 5.2678 -1.9731 0.9661
-6.7223 5.0323 -1.9735 0.9661
-6.8992 4.7902 -1.9740 0.9661
-7.2270 4.2880 -1.9750 0.9661
-7.3775 4.0284 -1.9755 0.9661
-8.3471 1.2001 -1.9819 0.9659
-8.4370 0.3013 -1.9842 0.9659
7.7221 0.0000 -1.9994 0.9686
7.6696 0.8246 -1.9972 0.9686
7.3027 2.4306 -1.9928 0.9687
6.9932 3.1937 -1.9905 0.9687
6.4579 4.1503 -1.9876 0.9688
6.3034 4.3766 -1.9869 0.9688
6.1410 4.5971 -1.9862 0.9688
5.9709 4.8117 -1.9855 0.9688
5.6085 5.2217 -1.9841 0.9688
5.0132 5.7855 -1.9821 0.9689
4.8020 5.9589 -1.9815 0.9689
4.5848 6.1245 -1.9808 0.9689
4.3619 6.2824 -1.9802 0.9689
4.1337 6.4321 -1.9797 0.9689
3.4195 6.8314 -1.9780 0.9689
3.1727 6.9473 -1.9775 0.9689
2.6677 7.1524 -1.9765 0.9690
2.4101 7.2413 -1.9760 0.9690
2.1497 7.3211 -1.9756 0.9690
1.8866 7.3916 -1.9752 0.9690
1.3536 7.5024 -1.9739 0.9690
1.0844 7.5420 -1.9728 0.9690
0.5432 7.5943 -1.9713 0.9690
0.0000 7.6106 -1.9705 0.9690
-0.2716 7.6049 -1.9703 0.9690
-0.5428 7.5901 -1.9702 0.9690
-0.8135 7.5665 -1.9704 0.9690
-1.3517 7.4921 -1.9712 0.9690
-1.6188 7.4415 -1.9718 0.9690
-1.8834 7.3791 -1.9718 0.9690
-2.4049 7.2257 -1.9718 0.9690
-2.6613 7.1353 -1.9718 0.9690
-3.1637 6.9275 -1.9718 0.9690
-3.6502 6.6848 -1.9720 0.9690
-3.8867 6.5507 -1.9722 0.9690
-4.1184 6.4083 -1.9723 0.9690
-4.3449 6.2578 -1.9725 0.9690
-4.7813 5.9333 -1.9730 0.9690
-5.1938 5.5786 -1.9735 0.9690
-6.2679 4.3519 -1.9757 0.9690
-6.4207 4.1263 -1.9761 0.9690
-6.5654 3.8955 -1.9766 0.9689
-6.7019 3.6595 -1.9771 0.9689
-7.0603 2.9245 -1.9786 0.9689
-7.2551 2.4147 -1.9798 0.9689
-7.5342 1.3593 -1.9822 0.9689
-7.5804 1.0899 -1.9829 0.9689
-7.6170 0.8189 -1.9836 0.9688
-7.6440 0.5467 -1.9842 0.9688
-7.6613 0.2736 -1.9849 0.9688
7.0606 0.0000 -1.9988 0.9711
7.0538 0.2519 -1.9981 0.9711
7.0132 0.7540 -1.9968 0.9711
6.9794 1.0035 -1.9962 0.9711
6.8854 1.4979 -1.9948 0.9711
6.6790 2.2230 -1.9927 0.9712
6.4989 2.6919 -1.9914 0.9712
6.2860 3.1466 -1.9900 0.9712
6.0415 3.5846 -1.9887 0.9712
5.6181 4.2057 -1.9867 0.9712
5.4626 4.4021 -1.9861 0.9713
5.3003 4.5928 -1.9854 0.9713
5.1314 4.7775 -1.9848 0.9713
3.9915 5.7489 -1.9813 0.9713
3.7828 5.8861 -1.9807 0.9713
2.6742 6.4562 -1.9783 0.9714
2.4416 6.5461 -1.9778 0.9714
2.2059 6.6276 -1.9774 0.9714
1.9675 6.7008 -1.9770 0.9714
1.7268 6.7654 -1.9766 0.9714
1.2393 6.8690 -1.9759 0.9714
0.7459 6.9377 -1.9753 0.9714
0.4977 6.9589 -1.9750 0.9714
0.2490 6.9713 -1.9748 0.9714
0.0000 6.9750 -1.9746 0.9714
-0.2489 6.9698 -1.9743 0.9714
-2.6678 6.4407 -1.9735 0.9714
-2.8961 6.3416 -1.9736 0.9714
-3.7699 5.8661 -1.9740 0.9714
-3.9772 5.7283 -1.9742 0.9714
-4.1796 5.5833 -1.9744 0.9714
-4.9341 4.9341 -1.9754 0.9714
-5.1078 4.7556 -1.9757 0.9714
-6.0088 3.5652 -1.9779 0.9714
-6.1336 3.3492 -1.9784 0.9714
-6.3599 2.9045 -1.9793 0.9714
-6.6391 2.2097 -1.9809 0.9713
-6.7836 1.7314 -1.9820 0.9713
-6.8939 1.2438 -1.9831 0.9713
-6.9360 0.9973 -1.9837 0.9713
-6.9693 0.7492 -1.9843 0.9713
-7.0094 0.2504 -1.9856 0.9713
6.4969 0.0000 -1.9983 0.9732
6.4908 0.2318 -1.9977 0.9732
6.4764 0.4632 -1.9971 0.9732
6.4229 0.9235 -1.9959 0.9732
6.3838 1.1518 -1.9952 0.9732
6.2183 1.8259 -1.9934 0.9732
6.1472 2.0460 -1.9927 0.9733
6.0684 2.2634 -1.9921 0.9733
5.9818 2.4777 -1.9915 0.9733
5.8877 2.6888 -1.9908 0.9733
5.7862 2.8964 -1.9902 0.9733
5.6773 3.1001 -1.9896 0.9733
5.5613 3.2997 -1.9890 0.9733
5.4384 3.4950 -1.9884 0.9733
5.0291 4.0527 -1.9866 0.9733
4.8798 4.2283 -1.9860 0.9733
4.7244 4.3985 -1.9854 0.9733
4.2235 4.8742 -1.9837 0.9734
4.0458 5.0205 -1.9832 0.9734
3.8630 5.1604 -1.9827 0.9734
3.4833 5.4201 -1.9817 0.9734
2.8819 5.7573 -1.9803 0.9734
2.6740 5.8551 -1.9798 0.9734
2.4627 5.9456 -1.9794 0.9734
2.2485 6.0285 -1.9790 0.9734
1.5903 6.2308 -1.9779 0.9734
1.1414 6.3263 -1.9772 0.9735
-0.4582 6.4067 -1.9756 0.9735
-0.6865 6.3858 -1.9755 0.9735
-1.1402 6.3198 -1.9752 0.9735
-1.8091 6.1611 -1.9750 0.9735
-2.0278 6.0926 -1.9750 0.9735
-2.2440 6.0163 -1.9750 0.9735
-2.8744 5.7424 -1.9752 0.9735
-3.0777 5.6364 -1.9752 0.9735
-3.2771 5.5233 -1.9754 0.9735
-3.4724 5.4032 -1.9755 0.9735
-3.6633 5.2762 -1.9756 0.9735
-3.8496 5.1425 -1.9758 0.9735
-4.0311 5.0024 -1.9760 0.9735
-4.3787 4.7031 -1.9765 0.9735
-4.5444 4.5444 -1.9767 0.9735
-4.7044 4.3800 -1.9770 0.9735
-4.8585 4.2099 -1.9773 0.9735
-5.0064 4.0344 -1.9776 0.9735
-5.2833 3.6683 -1.9783 0.9734
-5.4119 3.4781 -1.9787 0.9734
-5.5337 3.2833 -1.9791 0.9734
-5.6485 3.0843 -1.9795 0.9734
-5.7562 2.8814 -1.9799 0.9734
-5.8567 2.6747 -1.9804 0.9734
-5.9498 2.4645 -1.9808 0.9734
-6.0354 2.2511 -1.9813 0.9734
-6.2462 1.5943 -1.9828 0.9734
-6.3008 1.3707 -1.9833 0.9734
-6.3474 1.1452 -1.9839 0.9734
-6.3860 0.9182 -1.9844 0.9734
-6.4166 0.6898 -1.9850 0.9734
-6.4389 0.4605 -1.9855 0.9733
-6.4531 0.2305 -1.9861 0.9733
5.9708 0.6420 -1.9962 0.9750
5.9064 1.0657 -1.9950 0.9750
5.6880 1.8932 -1.9927 0.9750
5.6152 2.0944 -1.9921 0.9751
5.5353 2.2928 -1.9915 0.9751
5.4483 2.4882 -1.9910 0.9751
5.3545 2.6803 -1.9904 0.9751
5.2539 2.8688 -1.9898 0.9751
4.7867 3.5833 -1.9876 0.9751
4.6545 3.7508 -1.9870 0.9751
4.5164 3.9135 -1.9865 0.9751
4.3727 4.0711 -1.9859 0.9751
4.0689 4.3704 -1.9849 0.9751
3.7449 4.6472 -1.9839 0.9752
3.5758 4.7767 -1.9834 0.9752
2.8570 5.2322 -1.9816 0.9752
2.2799 5.5042 -1.9804 0.9752
1.6776 5.7133 -1.9793 0.9752
1.4724 5.7686 -1.9790 0.9752
1.2653 5.8165 -1.9787 0.9752
1.0568 5.8571 -1.9784 0.9752
0.6360 5.9160 -1.9778 0.9752
0.0000 5.9482 -1.9772 0.9752
-0.4242 5.9320 -1.9769 0.9752
-1.0557 5.8516 -1.9765 0.9752
-1.6750 5.7047 -1.9763 0.9752
-1.8776 5.6412 -1.9763 0.9753
-2.0777 5.5706 -1.9763 0.9753
-2.2753 5.4930 -1.9763 0.9752
-2.4699 5.4084 -1.9764 0.9752
-2.6615 5.3169 -1.9764 0.9752
-3.0343 5.1140 -1.9766 0.9752
-3.2151 5.0028 -1.9767 0.9752
-3.7323 4.6316 -1.9772 0.9752
-4.3555 4.0552 -1.9782 0.9752
-5.0103 3.2199 -1.9797 0.9752
-5.1230 3.0396 -1.9801 0.9752
-5.2292 2.8554 -1.9805 0.9752
-5.5079 2.2814 -1.9817 0.9752
-5.5870 2.0839 -1.9821 0.9752
-5.7241 1.6808 -1.9830 0.9752
-5.8322 1.2687 -1.9840 0.9752
-5.8752 1.0600 -1.9845 0.9751
-5.9390 0.6385 -1.9855 0.9751
-5.9595 0.4262 -1.9861 0.9751
-5.9726 0.2133 -1.9866 0.9751
5.5685 0.3983 -1.9964 0.9766
5.5230 0.7941 -1.9954 0.9766
5.4897 0.9905 -1.9949 0.9766
5.4494 1.1855 -1.9943 0.9766
5.3480 1.5703 -1.9932 0.9766
5.2871 1.7597 -1.9927 0.9766
5.2195 1.9468 -1.9922 0.9766
4.8841 2.6669 -1.9900 0.9766
4.5674 3.1712 -1.9884 0.9767
4.1990 3.6385 -1.9869 0.9767
4.0655 3.7851 -1.9864 0.9767
3.9268 3.9268 -1.9859 0.9767
3.7832 4.0635 -1.9854 0.9767
3.6349 4.1949 -1.9850 0.9767
3.1635 4.5563 -1.9836 0.9767
2.9982 4.6653 -1.9832 0.9767
2.6567 4.8653 -1.9824 0.9767
1.9358 5.1900 -1.9809 0.9767
1.5601 5.3131 -1.9802 0.9768
1.3692 5.3646 -1.9799 0.9768
0.9828 5.4471 -1.9794 0.9768
0.7876 5.4780 -1.9791 0.9768
0.5915 5.5020 -1.9789 0.9768
0.3947 5.5190 -1.9787 0.9768
0.0000 5.5320 -1.9783 0.9768
-0.7871 5.4741 -1.9777 0.9768
-0.9819 5.4423 -1.9776 0.9768
-1.1755 5.4036 -1.9775 0.9768
-1.9324 5.1810 -1.9774 0.9768
-2.2972 5.0301 -1.9775 0.9768
-2.6503 4.8537 -1.9776 0.9768
-2.8220 4.7563 -1.9777 0.9768
-3.1546 4.5434 -1.9780 0.9768
-3.3150 4.4283 -1.9781 0.9768
-3.4712 4.3075 -1.9783 0.9768
-3.7704 4.0497 -1.9787 0.9768
-4.5487 3.1583 -1.9803 0.9768
-4.6593 2.9944 -1.9806 0.9767
-4.8627 2.6553 -1.9813 0.9767
-4.9553 2.4805 -1.9817 0.9767
-5.0417 2.3025 -1.9821 0.9767
-5.1216 2.1215 -1.9824 0.9767
-5.1952 1.9377 -1.9829 0.9767
-5.4228 1.1797 -1.9846 0.9767
-5.4627 0.9856 -1.9851 0.9767
-5.5218 0.5937 -1.9860 0.9767
-5.5528 0.1983 -1.9870 0.9767
5.2069 0.1860 -1.9967 0.9779
5.1957 0.3716 -1.9962 0.9779
5.1779 0.5567 -1.9957 0.9779
5.1534 0.7409 -1.9952 0.9779
5.1224 0.9242 -1.9947 0.9779
4.8708 1.8167 -1.9922 0.9780
4.7264 2.1585 -1.9912 0.9780
4.6451 2.3252 -1.9907 0.9780
4.4652 2.6493 -1.9897 0.9780
4.3667 2.8063 -1.9892 0.9780
4.2627 2.9597 -1.9887 0.9780
3.9191 3.3959 -1.9873 0.9780
3.7945 3.5328 -1.9868 0.9780
3.5312 3.7928 -1.9859 0.9780
3.2502 4.0333 -1.9850 0.9781
3.1035 4.1458 -1.9846 0.9781
2.7987 4.3549 -1.9838 0.9781
2.6410 4.4512 -1.9834 0.9781
2.4800 4.5417 -1.9830 0.9781
2.1489 4.7053 -1.9823 0.9781
1.6328 4.9057 -1.9813 0.9781
1.2783 5.0082 -1.9808 0.9781
0.7353 5.1142 -1.9800 0.9781
0.5522 5.1366 -1.9798 0.9781
0.3685 5.1525 -1.9796 0.9781
-0.1843 5.1610 -1.9791 0.9781
-0.3684 5.1508 -1.9789 0.9781
-0.5520 5.1340 -1.9788 0.9781
-0.7348 5.1108 -1.9787 0.9781
-0.9167 5.0811 -1.9786 0.9781
-1.0975 5.0450 -1.9785 0.9781
-1.2768 5.0024 -1.9785 0.9781
-1.6304 4.8985 -1.9784 0.9781
-1.8042 4.8372 -1.9784 0.9781
-1.9757 4.7698 -1.9785 0.9781
-2.3110 4.6169 -1.9785 0.9781
-2.6347 4.4406 -1.9787 0.9781
-2.7917 4.3440 -1.9788 0.9781
-3.0949 4.1343 -1.9791 0.9781
-3.2407 4.0215 -1.9792 0.9781
-3.3825 3.9037 -1.9794 0.9781
-3.5200 3.7808 -1.9796 0.9781
-3.9053 3.3840 -1.9803 0.9781
-4.1379 3.0976 -1.9808 0.9781
-4.6258 2.3155 -1.9824 0.9781
-4.7064 2.1494 -1.9827 0.9781
-4.7810 1.9804 -1.9831 0.9781
-4.9120 1.6349 -1.9839 0.9781
-5.0617 1.1011 -1.9851 0.9781
-5.0989 0.9200 -1.9856 0.9780
-5.1716 0.3699 -1.9869 0.9780
4.8790 0.0000 -1.9968 0.9791
4.8644 0.3479 -1.9959 0.9791
4.8477 0.5212 -1.9955 0.9791
4.7960 0.8653 -1.9946 0.9792
4.6727 1.3720 -1.9931 0.9792
4.6196 1.5376 -1.9927 0.9792
4.4960 1.8623 -1.9917 0.9792
4.4256 2.0211 -1.9912 0.9792
4.1813 2.4809 -1.9898 0.9792
4.0892 2.6279 -1.9894 0.9792
3.9918 2.7716 -1.9889 0.9792
3.8895 2.9116 -1.9885 0.9792
3.3071 3.5521 -1.9863 0.9792
3.1775 3.6671 -1.9859 0.9792
3.0440 3.7774 -1.9855 0.9793
2.9067 3.8829 -1.9851 0.9793
2.7657 3.9834 -1.9847 0.9793
2.4736 4.1690 -1.9840 0.9793
2.3228 4.2539 -1.9836 0.9793
2.1691 4.3333 -1.9833 0.9793
2.0127 4.4072 -1.9830 0.9793
1.6926 4.5381 -1.9823 0.9793
1.3642 4.6460 -1.9818 0.9793
1.1973 4.6911 -1.9815 0.9793
0.5173 4.8115 -1.9806 0.9793
0.1727 4.8353 -1.9802 0.9793
-0.1727 4.8345 -1.9799 0.9793
-0.3451 4.8250 -1.9798 0.9793
-0.5170 4.8093 -1.9797 0.9793
-0.6883 4.7875 -1.9796 0.9793
-0.8587 4.7597 -1.9795 0.9793
-1.1960 4.6860 -1.9794 0.9793
-1.3625 4.6403 -1.9793 0.9793
-1.5273 4.5887 -1.9793 0.9793
-1.6901 4.5313 -1.9793 0.9793
-1.8507 4.4681 -1.9793 0.9793
-2.0091 4.3993 -1.9794 0.9793
-2.7589 3.9735 -1.9798 0.9793
-3.0357 3.7671 -1.9801 0.9793
-3.1685 3.6567 -1.9802 0.9793
-3.4219 3.4220 -1.9806 0.9793
-3.8759 2.9015 -1.9816 0.9793
-4.0742 2.6183 -1.9821 0.9793
-4.4081 2.0131 -1.9834 0.9793
-4.8267 0.5189 -1.9868 0.9792
-4.8432 0.3464 -1.9873 0.9792
4.5812 -0.0000 -1.9966 0.9802
4.5774 0.1635 -1.9962 0.9802
4.5521 0.4894 -1.9953 0.9802
4.5307 0.6514 -1.9949 0.9802
4.5036 0.8125 -1.9944 0.9802
4.4707 0.9725 -1.9940 0.9802
4.4322 1.1312 -1.9935 0.9802
4.3880 1.2884 -1.9931 0.9802
4.3383 1.4439 -1.9927 0.9802
4.2223 1.7489 -1.9918 0.9803
4.1563 1.8981 -1.9913 0.9803
3.6531 2.7346 -1.9887 0.9803
3.4472 2.9870 -1.9879 0.9803
3.3377 3.1075 -1.9875 0.9803
3.1063 3.3364 -1.9867 0.9803
2.8592 3.5481 -1.9859 0.9803
2.7303 3.6472 -1.9856 0.9803
2.4623 3.8313 -1.9848 0.9803
2.3235 3.9161 -1.9845 0.9803
2.0376 4.0705 -1.9838 0.9803
1.4367 4.3165 -1.9827 0.9803
1.2815 4.3645 -1.9824 0.9803
1.1248 4.4069 -1.9822 0.9804
0.6471 4.5004 -1.9815 0.9804
0.4860 4.5201 -1.9813 0.9804
0.3243 4.5342 -1.9811 0.9804
0.1623 4.5425 -1.9810 0.9804
0.0000 4.5450 -1.9808 0.9804
-0.3242 4.5329 -1.9805 0.9804
-0.4857 4.5182 -1.9804 0.9804
-0.6467 4.4977 -1.9803 0.9804
-0.8068 4.4716 -1.9803 0.9804
-1.2800 4.3595 -1.9801 0.9804
-1.7387 4.1977 -1.9801 0.9804
-1.8875 4.1330 -1.9802 0.9804
-2.0338 4.0631 -1.9802 0.9804
-2.3187 3.9079 -1.9804 0.9804
-2.4568 3.8229 -1.9805 0.9804
-2.7236 3.6383 -1.9807 0.9804
-2.9766 3.4353 -1.9810 0.9804
-3.0976 3.3271 -1.9812 0.9804
-3.5410 2.8536 -1.9820 0.9804
-3.8273 2.4597 -1.9827 0.9803
-3.9131 2.3218 -1.9830 0.9803
-3.9941 2.1810 -1.9833 0.9803
-4.2064 1.7423 -1.9842 0.9803
-1.5118 0.5639 -0.7032 0.9930
-1.3688 0.2978 -0.6105 0.9939
-1.4180 0.2039 -0.6244 0.9938
-1.4359 0.1544 -0.6294 0.9937
-1.4490 0.1037 -0.6331 0.9937
-1.4571 0.0521 -0.6354 0.9937
4.3128 0.0000 -1.9963 0.9812
4.3092 0.1539 -1.9959 0.9812
4.2400 0.7650 -1.9943 0.9812
4.1729 1.0650 -1.9935 0.9812
4.1313 1.2131 -1.9931 0.9812
4.0846 1.3595 -1.9926 0.9812
4.0326 1.5041 -1.9922 0.9812
3.9755 1.6467 -1.9918 0.9812
3.8463 1.9253 -1.9910 0.9812
3.7743 2.0610 -1.9906 0.9812
3.6162 2.3240 -1.9897 0.9812
3.4398 2.5750 -1.9889 0.9812
2.8106 3.2436 -1.9867 0.9813
2.5711 3.4346 -1.9860 0.9813
2.0548 3.7631 -1.9847 0.9813
1.7806 3.8990 -1.9841 0.9813
1.2070 4.1105 -1.9830 0.9813
0.9104 4.1851 -1.9825 0.9813
0.3054 4.2705 -1.9818 0.9813
0.0000 4.2807 -1.9815 0.9813
-0.1528 4.2777 -1.9814 0.9813
-0.4575 4.2555 -1.9811 0.9813
-0.6091 4.2363 -1.9811 0.9813
-0.7599 4.2117 -1.9810 0.9813
-1.0583 4.1465 -1.9809 0.9813
-1.7777 3.8927 -1.9809 0.9813
-2.1839 3.6807 -1.9811 0.9813
-2.3140 3.6006 -1.9812 0.9813
-2.5652 3.4267 -1.9814 0.9813
-3.1341 2.9180 -1.9822 0.9813
-3.2366 2.8046 -1.9824 0.9813
-3.3350 2.6875 -1.9826 0.9813
-3.4292 2.5671 -1.9828 0.9813
-3.8996 1.7809 -1.9844 0.9813
-1.1536 0.3840 -0.5628 0.9947
-1.1574 0.2954 -0.5529 0.9947
-1.1790 0.2565 -0.5585 0.9947
-1.1974 0.2161 -0.5632 0.9947
-1.2362 0.0884 -0.5737 0.9946
4.0694 0.0000 -1.9961 0.9820
4.0660 0.1452 -1.9957 0.9820
4.0437 0.4348 -1.9950 0.9820
4.0249 0.5787 -1.9946 0.9820
3.9718 0.8640 -1.9938 0.9821
3.9376 1.0050 -1.9934 0.9821
3.8985 1.1447 -1.9930 0.9821
3.8544 1.2829 -1.9926 0.9821
3.7516 1.5540 -1.9918 0.9821
3.6297 1.8169 -1.9911 0.9821
3.4895 2.0704 -1.9903 0.9821
3.3316 2.3132 -1.9895 0.9821
3.1569 2.5440 -1.9888 0.9821
2.9663 2.7617 -1.9880 0.9821
2.8653 2.8653 -1.9877 0.9821
2.7607 2.9652 -1.9873 0.9821
2.5413 3.1536 -1.9867 0.9821
2.4267 3.2417 -1.9863 0.9821
2.1886 3.4055 -1.9857 0.9821
2.0653 3.4809 -1.9854 0.9821
1.8112 3.6183 -1.9848 0.9821
1.6807 3.6802 -1.9845 0.9821
1.5480 3.7373 -1.9843 0.9821
1.4135 3.7897 -1.9840 0.9821
1.1393 3.8799 -1.9835 0.9821
0.5753 4.0009 -1.9827 0.9822
0.4320 4.0186 -1.9825 0.9822
0.2883 4.0311 -1.9824 0.9822
0.1442 4.0385 -1.9822 0.9822
-0.1442 4.0380 -1.9820 0.9822
-0.4319 4.0170 -1.9818 0.9822
-0.5749 3.9988 -1.9817 0.9822
-0.9990 3.9142 -1.9815 0.9822
-1.2757 3.8328 -1.9815 0.9822
-1.4117 3.7849 -1.9815 0.9822
-1.5459 3.7321 -1.9815 0.9822
-1.6781 3.6746 -1.9815 0.9822
-1.9361 3.5457 -1.9816 0.9822
-2.1843 3.3988 -1.9818 0.9822
-2.3043 3.3188 -1.9819 0.9822
-2.4214 3.2347 -1.9820 0.9822
-2.5355 3.1464 -1.9821 0.9822
-2.8580 2.8580 -1.9826 0.9822
-2.9584 2.7544 -1.9828 0.9822
-3.3217 2.3063 -1.9836 0.9821
-3.4786 2.0639 -1.9841 0.9821
-3.5505 1.9387 -1.9843 0.9821
-1.0588 0.5300 -0.5808 0.9947
-1.0290 0.4262 -0.5463 0.9951
-1.0025 0.3336 -0.5183 0.9953
-1.0175 0.2987 -0.5202 0.9953
-1.0422 0.2267 -0.5232 0.9953
-1.0518 0.1898 -0.5242 0.9952
3.8474 0.0000 -1.9959 0.9828
3.8362 0.2744 -1.9952 0.9828
3.8054 0.5471 -1.9945 0.9828
3.7231 0.9503 -1.9934 0.9828
3.6444 1.2130 -1.9926 0.9828
3.5473 1.4693 -1.9919 0.9828
3.3680 1.8391 -1.9908 0.9829
3.2996 1.9578 -1.9904 0.9829
3.2271 2.0739 -1.9900 0.9829
3.1504 2.1874 -1.9897 0.9829
2.8970 2.5103 -1.9886 0.9829
2.7096 2.7096 -1.9879 0.9829
2.4033 2.9823 -1.9870 0.9829
2.2949 3.0657 -1.9867 0.9829
2.1837 3.1452 -1.9864 0.9829
2.0698 3.2206 -1.9861 0.9829
1.9532 3.2919 -1.9858 0.9829
1.8342 3.3591 -1.9855 0.9829
1.7129 3.4220 -1.9852 0.9829
1.5895 3.4805 -1.9850 0.9829
1.4640 3.5345 -1.9847 0.9829
1.3368 3.5841 -1.9845 0.9829
1.2079 3.6291 -1.9842 0.9829
1.0775 3.6695 -1.9840 0.9829
0.9457 3.7052 -1.9838 0.9829
0.6788 3.7625 -1.9834 0.9829
0.2727 3.8126 -1.9829 0.9829
0.1364 3.8196 -1.9828 0.9829
0.0000 3.8218 -1.9827 0.9829
-0.1364 3.8191 -1.9825 0.9829
-0.4085 3.7993 -1.9824 0.9829
-0.5438 3.7822 -1.9823 0.9829
-0.9449 3.7021 -1.9821 0.9829
-1.2066 3.6252 -1.9821 0.9829
-1.3352 3.5798 -1.9821 0.9829
-1.4621 3.5299 -1.9821 0.9829
-1.5872 3.4755 -1.9821 0.9829
-1.7103 3.4167 -1.9822 0.9829
-2.3981 2.9758 -1.9827 0.9829
-2.6046 2.7976 -1.9830 0.9829
-2.7030 2.7030 -1.9831 0.9829
-3.0613 2.2917 -1.9839 0.9829
-3.1415 2.1812 -1.9841 0.9829
-3.2177 2.0679 -1.9843 0.9829
-0.9486 0.5180 -0.5607 0.9951
-0.9271 0.3840 -0.5206 0.9955
-0.9208 0.3434 -0.5098 0.9956
-0.9268 0.3085 -0.5067 0.9956
-0.9524 0.2431 -0.5099 0.9956
-0.9628 0.2095 -0.5112 0.9956
-0.9785 0.1407 -0.5129 0.9956
-0.9873 0.0706 -0.5135 0.9955
3.6438 0.0000 -1.9957 0.9835
3.5829 0.6464 -1.9940 0.9835
3.5569 0.7738 -1.9937 0.9835
3.5264 0.9001 -1.9933 0.9835
3.4914 1.0252 -1.9930 0.9835
3.4520 1.1489 -1.9926 0.9835
3.4081 1.2712 -1.9923 0.9835
3.3600 1.3918 -1.9919 0.9836
3.2510 1.6273 -1.9912 0.9836
3.1903 1.7420 -1.9909 0.9836
3.1255 1.8545 -1.9905 0.9836
3.0568 1.9645 -1.9902 0.9836
2.9843 2.0720 -1.9898 0.9836
2.8279 2.2789 -1.9892 0.9836
2.7443 2.3779 -1.9888 0.9836
2.6572 2.4740 -1.9885 0.9836
2.4732 2.6564 -1.9879 0.9836
2.3764 2.7425 -1.9876 0.9836
2.2767 2.8252 -1.9873 0.9836
2.1741 2.9042 -1.9870 0.9836
1.9608 3.0510 -1.9864 0.9836
1.8504 3.1187 -1.9861 0.9836
1.6228 3.2419 -1.9856 0.9836
1.3870 3.3486 -1.9851 0.9836
1.0208 3.4765 -1.9845 0.9836
0.6431 3.5647 -1.9839 0.9836
0.5154 3.5850 -1.9837 0.9836
0.2584 3.6121 -1.9834 0.9836
0.1293 3.6188 -1.9833 0.9836
0.0000 3.6209 -1.9832 0.9836
-0.1292 3.6184 -1.9831 0.9836
-0.6427 3.5626 -1.9828 0.9836
-0.8952 3.5075 -1.9827 0.9836
-1.0198 3.4733 -1.9826 0.9836
-1.1432 3.4347 -1.9826 0.9836
-1.3853 3.3444 -1.9826 0.9836
-1.6204 3.2372 -1.9827 0.9836
-1.7350 3.1773 -1.9828 0.9836
-1.8473 3.1135 -1.9828 0.9836
-2.2720 2.8194 -1.9832 0.9836
-2.3714 2.7367 -1.9833 0.9836
-2.4677 2.6505 -1.9835 0.9836
-2.6509 2.4681 -1.9838 0.9836
-2.7375 2.3721 -1.9839 0.9836
-2.8207 2.2731 -1.9841 0.9836
-0.8524 0.5058 -0.5428 0.9955
-0.8507 0.4645 -0.5309 0.9956
-0.8506 0.3884 -0.5122 0.9957
-0.8465 0.3157 -0.4948 0.9959
-0.8603 0.2864 -0.4966 0.9959
-0.9179 0.0328 -0.5031 0.9958
3.4537 0.1234 -1.9953 0.9842
3.4350 0.3693 -1.9946 0.9842
3.4190 0.4916 -1.9943 0.9842
3.3987 0.6132 -1.9939 0.9842
3.3741 0.7340 -1.9936 0.9842
3.3452 0.8538 -1.9933 0.9842
3.3121 0.9725 -1.9929 0.9842
3.2332 1.2059 -1.9923 0.9842
3.1875 1.3203 -1.9919 0.9842
3.1378 1.4330 -1.9916 0.9842
3.0842 1.5438 -1.9913 0.9842
3.0266 1.6526 -1.9909 0.9842
2.8312 1.9658 -1.9900 0.9842
2.7588 2.0652 -1.9896 0.9842
2.6829 2.1620 -1.9893 0.9842
2.6036 2.2561 -1.9890 0.9842
2.3465 2.5203 -1.9881 0.9842
2.2547 2.6020 -1.9878 0.9842
2.0627 2.7555 -1.9872 0.9842
1.8604 2.8948 -1.9867 0.9842
1.7556 2.9590 -1.9864 0.9842
1.5397 3.0759 -1.9860 0.9842
1.4288 3.1286 -1.9857 0.9842
1.3160 3.1772 -1.9855 0.9842
0.7307 3.3587 -1.9845 0.9842
0.4891 3.4017 -1.9842 0.9843
0.1227 3.4338 -1.9838 0.9843
0.0000 3.4358 -1.9837 0.9843
-0.1226 3.4334 -1.9835 0.9843
-0.2451 3.4267 -1.9835 0.9843
-0.3672 3.4156 -1.9834 0.9843
-0.6099 3.3805 -1.9832 0.9843
-0.8495 3.3283 -1.9832 0.9843
-0.9677 3.2958 -1.9831 0.9843
-1.0847 3.2591 -1.9831 0.9843
-1.2004 3.2183 -1.9831 0.9843
-1.3145 3.1734 -1.9832 0.9843
-1.4269 3.1246 -1.9832 0.9843
-1.5376 3.0717 -1.9832 0.9843
-1.8573 2.8900 -1.9834 0.9843
-1.9593 2.8220 -1.9835 0.9843
-2.0589 2.7504 -1.9836 0.9843
-2.1559 2.6753 -1.9837 0.9843
-2.2501 2.5968 -1.9838 0.9843
-2.3415 2.5150 -1.9839 0.9843
-2.4300 2.4300 -1.9841 0.9843
-2.6764 2.1568 -1.9845 0.9842
-2.7520 2.0601 -1.9847 0.9842
-0.7634 0.5300 -0.5366 0.9957
-0.7787 0.4252 -0.5122 0.9959
-0.7806 0.3908 -0.5040 0.9960
-0.7796 0.3229 -0.4872 0.9961
-0.8014 0.2667 -0.4876 0.9961
-0.8128 0.2387 -0.4891 0.9961
-0.8230 0.2101 -0.4904 0.9961
-0.8393 0.1514 -0.4924 0.9961
-0.8453 0.1215 -0.4930 0.9961
-0.8530 0.0610 -0.4938 0.9961
-0.8548 0.0305 -0.4938 0.9961
