ply
format ascii 1.0
element vertex 742
property float32 x
property float32 y
property float32 z
property float32 I
end_header
5.8712 7.8430 -1.8415 0.9609
5.2888 8.2295 -1.8387 0.9610
4.3690 8.7282 -1.8346 0.9611
3.4035 9.1250 -1.8306 0.9611
3.0734 9.2340 -1.8292 0.9612
2.7399 9.3311 -1.8279 0.9612
2.4034 9.4163 -1.8266 0.9612
2.0643 9.4894 -1.8254 0.9612
1.0360 9.6361 -1.8216 0.9613
0.6909 9.6606 -1.8205 0.9613
0.0000 9.6730 -1.8181 0.9614
-0.3450 9.6609 -1.8170 0.9614
-0.6892 9.6367 -1.8160 0.9614
-2.0491 9.4196 -1.8119 0.9615
-2.3828 9.3358 -1.8110 0.9615
-3.0398 9.1333 -1.8093 0.9616
-3.3624 9.0149 -1.8085 0.9616
-4.6039 8.4314 -1.8056 0.9617
-4.9002 8.2589 -1.8050 0.9617
-5.4737 7.8836 -1.8040 0.9617
9.5698 -0.0000 -2.0229 0.9616
9.5600 0.3414 -2.0221 0.9616
9.5035 1.0217 -2.0204 0.9617
9.4568 1.3597 -2.0195 0.9617
9.3980 1.6956 -2.0186 0.9617
9.3271 2.0290 -2.0177 0.9617
9.2442 2.3594 -2.0167 0.9617
8.9250 3.3289 -2.0135 0.9618
8.7957 3.6433 -2.0124 0.9618
8.5037 4.2566 -2.0101 0.9619
8.3414 4.5548 -2.0089 0.9619
8.1687 4.8467 -2.0077 0.9619
7.9856 5.1320 -2.0065 0.9619
7.7925 5.4104 -2.0053 0.9620
7.5897 5.6816 -2.0040 0.9620
7.3774 5.9451 -2.0028 0.9620
7.1559 6.2006 -2.0015 0.9620
6.6866 6.6866 -1.9989 0.9621
6.4395 6.9165 -1.9976 0.9621
5.3586 7.7179 -1.9861 0.9623
5.0297 7.8263 -1.9665 0.9627
4.6609 7.8556 -1.9308 0.9633
2.7345 8.2158 -1.8303 0.9652
2.1387 8.3793 -1.8280 0.9653
0.3076 8.6115 -1.8215 0.9654
-0.6137 8.5810 -1.8185 0.9654
-0.9191 8.5492 -1.8175 0.9655
-1.5252 8.4535 -1.8158 0.9655
-1.8251 8.3897 -1.8149 0.9655
-2.7079 8.1360 -1.8125 0.9656
-3.2820 7.9234 -1.8128 0.9655
-4.6447 7.8282 -1.9241 0.9635
-5.2696 7.5895 -1.9531 0.9629
-5.5435 7.4053 -1.9553 0.9629
-5.8078 7.2070 -1.9565 0.9629
-6.7701 6.3032 -1.9553 0.9629
-6.9901 6.0569 -1.9551 0.9629
-7.2013 5.8032 -1.9550 0.9629
-7.4034 5.5421 -1.9549 0.9629
-7.5963 5.2742 -1.9548 0.9629
-7.9533 4.7189 -1.9548 0.9629
-8.4138 3.8425 -1.9552 0.9629
-8.5465 3.5401 -1.9554 0.9629
-8.9693 2.2893 -1.9567 0.9629
-9.2133 0.9905 -1.9587 0.9628
-9.2456 0.6612 -1.9593 0.9628
-9.2664 0.3309 -1.9600 0.9628
8.5933 0.0000 -2.0196 0.9653
8.5849 0.3066 -2.0189 0.9653
8.5654 0.6126 -2.0182 0.9653
8.5349 0.9176 -2.0175 0.9653
8.4933 1.2211 -2.0167 0.9654
8.4409 1.5229 -2.0158 0.9654
8.2189 2.4133 -2.0132 0.9654
8.1237 2.7038 -2.0122 0.9654
8.0182 2.9906 -2.0113 0.9654
7.7766 3.5515 -2.0093 0.9655
7.4956 4.0929 -2.0072 0.9655
7.0036 4.8627 -2.0039 0.9656
6.8218 5.1067 -2.0027 0.9656
6.6314 5.3439 -2.0016 0.9656
6.4327 5.5740 -2.0004 0.9656
6.2260 5.7967 -1.9993 0.9656
6.0117 6.0117 -1.9981 0.9657
5.3251 6.6080 -1.9946 0.9657
4.5800 7.1266 -1.9910 0.9658
4.3201 7.2811 -1.9898 0.9658
3.7814 7.5543 -1.9854 0.9659
3.5041 7.6729 -1.9825 0.9659
3.2234 7.7820 -1.9797 0.9660
2.9397 7.8816 -1.9770 0.9660
2.6403 7.9327 -1.9649 0.9662
2.3325 7.9436 -1.9457 0.9666
2.0301 7.9538 -1.9293 0.9668
1.4384 7.9726 -1.9040 0.9673
0.2851 7.9833 -1.8774 0.9677
0.0000 7.9849 -1.8766 0.9677
-0.2851 7.9824 -1.8772 0.9677
-1.1456 7.9679 -1.8919 0.9675
-1.4365 7.9621 -1.9015 0.9673
-2.0270 7.9416 -1.9263 0.9669
-2.3281 7.9288 -1.9421 0.9666
-3.1910 7.7037 -1.9597 0.9663
-3.7368 7.4651 -1.9620 0.9663
-4.0013 7.3278 -1.9622 0.9663
-4.2591 7.1784 -1.9617 0.9663
-4.5115 7.0200 -1.9612 0.9663
-4.9986 6.6773 -1.9603 0.9663
-5.2327 6.4934 -1.9600 0.9663
-5.4602 6.3014 -1.9596 0.9663
-5.6808 6.1016 -1.9593 0.9663
-6.2984 5.4576 -1.9587 0.9663
-6.6709 4.9938 -1.9585 0.9663
-7.3139 3.9937 -1.9585 0.9663
-7.5812 3.4622 -1.9588 0.9663
-7.7007 3.1897 -1.9590 0.9663
-7.8106 2.9132 -1.9592 0.9663
-7.9107 2.6329 -1.9595 0.9663
-8.0009 2.3493 -1.9598 0.9663
-8.0811 2.0626 -1.9601 0.9663
-8.1512 1.7732 -1.9605 0.9663
-8.3001 0.8923 -1.9619 0.9663
7.7652 0.5554 -2.0157 0.9683
7.7378 0.8319 -2.0150 0.9684
7.6532 1.3808 -2.0135 0.9684
7.5293 1.9217 -2.0120 0.9684
7.4528 2.1883 -2.0111 0.9684
7.2715 2.7121 -2.0094 0.9684
7.1668 2.9686 -2.0085 0.9685
6.7988 3.7125 -2.0057 0.9685
6.0165 4.8484 -2.0006 0.9686
5.4551 5.4551 -1.9975 0.9686
5.2541 5.6433 -1.9964 0.9686
5.0466 5.8241 -1.9953 0.9687
4.6133 6.1626 -1.9932 0.9687
4.3880 6.3199 -1.9921 0.9687
4.1574 6.4690 -1.9910 0.9687
3.9217 6.6096 -1.9899 0.9687
3.1875 6.9796 -1.9867 0.9688
2.9348 7.0852 -1.9856 0.9688
2.6786 7.1816 -1.9846 0.9688
2.4193 7.2688 -1.9835 0.9688
2.1572 7.3467 -1.9825 0.9689
1.8926 7.4152 -1.9815 0.9689
1.3573 7.5230 -1.9793 0.9689
0.8159 7.5891 -1.9763 0.9690
0.5442 7.6086 -1.9750 0.9690
0.0000 7.6204 -1.9731 0.9690
-0.2719 7.6126 -1.9723 0.9690
-0.5433 7.5956 -1.9717 0.9690
-0.8138 7.5696 -1.9712 0.9690
-1.0833 7.5347 -1.9709 0.9690
-2.4000 7.2110 -1.9678 0.9691
-2.6550 7.1184 -1.9671 0.9691
-2.9065 7.0169 -1.9665 0.9691
-3.1542 6.9067 -1.9659 0.9691
-4.3251 6.2293 -1.9635 0.9692
-4.5438 6.0698 -1.9631 0.9692
-4.7567 5.9027 -1.9628 0.9692
-6.0645 4.5398 -1.9614 0.9692
-6.2225 4.3204 -1.9614 0.9692
-6.7747 3.3912 -1.9616 0.9692
-7.1912 2.3934 -1.9624 0.9692
-7.3459 1.8749 -1.9630 0.9692
-7.4095 1.6118 -1.9633 0.9692
-7.4639 1.3466 -1.9637 0.9691
-7.5088 1.0796 -1.9642 0.9691
-7.5443 0.8111 -1.9646 0.9691
-7.5704 0.5414 -1.9651 0.9691
7.0698 0.7601 -2.0130 0.9709
6.9410 1.5099 -2.0109 0.9709
6.8802 1.7560 -2.0102 0.9709
6.8106 1.9998 -2.0094 0.9709
6.7323 2.2407 -2.0086 0.9709
6.2144 3.3933 -2.0044 0.9710
5.9511 3.8246 -2.0026 0.9710
5.6579 4.2354 -2.0008 0.9710
5.5005 4.4326 -1.9998 0.9711
5.1653 4.8091 -1.9979 0.9711
4.9879 4.9879 -1.9969 0.9711
4.8044 5.1603 -1.9960 0.9711
4.6149 5.3258 -1.9950 0.9711
4.0131 5.7800 -1.9920 0.9712
3.5870 6.0456 -1.9900 0.9712
3.3673 6.1667 -1.9890 0.9712
3.1435 6.2798 -1.9881 0.9712
2.9159 6.3849 -1.9871 0.9712
2.4506 6.5702 -1.9851 0.9713
1.9737 6.7218 -1.9832 0.9713
1.7317 6.7848 -1.9823 0.9713
1.4878 6.8391 -1.9814 0.9713
1.2422 6.8847 -1.9805 0.9713
0.9952 6.9215 -1.9796 0.9713
0.7472 6.9496 -1.9787 0.9714
0.0000 6.9806 -1.9762 0.9714
-0.4976 6.9573 -1.9746 0.9714
-1.2370 6.8565 -1.9724 0.9715
-1.4805 6.8056 -1.9717 0.9715
-1.9609 6.6782 -1.9704 0.9715
-2.1973 6.6019 -1.9697 0.9715
-2.4308 6.5173 -1.9692 0.9715
-2.6611 6.4246 -1.9686 0.9715
-3.3301 6.0986 -1.9671 0.9715
-4.1608 5.5582 -1.9655 0.9715
-4.5453 5.2456 -1.9649 0.9716
-4.9068 4.9068 -1.9645 0.9716
-5.0784 4.7281 -1.9643 0.9716
-5.2435 4.5435 -1.9641 0.9716
-5.4020 4.3532 -1.9640 0.9716
-5.5537 4.1574 -1.9640 0.9716
-5.6985 3.9565 -1.9639 0.9716
-5.8360 3.7506 -1.9639 0.9716
-5.9662 3.5399 -1.9639 0.9716
-6.2041 3.1055 -1.9641 0.9716
-6.4108 2.6554 -1.9644 0.9716
-6.5021 2.4251 -1.9646 0.9716
-6.6602 1.9556 -1.9651 0.9716
-6.7268 1.7169 -1.9654 0.9716
-6.7849 1.4759 -1.9657 0.9715
-6.9317 0.4957 -1.9673 0.9715
-6.9467 0.2481 -1.9678 0.9715
6.5384 0.2335 -2.0123 0.9730
6.5014 0.6990 -2.0112 0.9730
6.4704 0.9303 -2.0106 0.9730
6.4310 1.1602 -2.0100 0.9730
6.3835 1.3886 -2.0093 0.9730
6.3277 1.6150 -2.0087 0.9730
5.9295 2.7079 -2.0050 0.9731
5.5994 3.3222 -2.0026 0.9731
5.4749 3.5185 -2.0017 0.9731
5.2055 3.8968 -2.0000 0.9732
4.9100 4.2545 -1.9983 0.9732
4.5898 4.5898 -1.9965 0.9732
4.4211 4.7486 -1.9956 0.9732
4.2469 4.9011 -1.9947 0.9732
3.6936 5.3197 -1.9920 0.9733
3.3016 5.5645 -1.9901 0.9733
2.8936 5.7807 -1.9883 0.9733
2.6842 5.8776 -1.9874 0.9733
2.4716 5.9670 -1.9865 0.9733
1.3699 6.2972 -1.9822 0.9734
1.1437 6.3394 -1.9813 0.9734
0.2296 6.4272 -1.9781 0.9734
-0.2294 6.4223 -1.9766 0.9735
-0.6864 6.3850 -1.9752 0.9735
-2.0241 6.0816 -1.9714 0.9735
-2.2393 6.0038 -1.9709 0.9735
-2.6605 5.8257 -1.9699 0.9736
-3.0679 5.6186 -1.9690 0.9736
-3.4596 5.3832 -1.9682 0.9736
-3.8335 5.1210 -1.9675 0.9736
-4.0133 4.9801 -1.9673 0.9736
-4.1879 4.8331 -1.9670 0.9736
-4.3572 4.6800 -1.9668 0.9736
-4.9774 4.0110 -1.9662 0.9736
-5.2506 3.6455 -1.9661 0.9736
-5.3773 3.4558 -1.9661 0.9736
-5.6104 3.0635 -1.9661 0.9736
-5.8152 2.6557 -1.9663 0.9736
-5.9909 2.2345 -1.9667 0.9736
-6.0675 2.0194 -1.9669 0.9736
-6.1977 1.5819 -1.9674 0.9736
-6.3642 0.6842 -1.9688 0.9736
6.0506 -0.0000 -2.0112 0.9748
6.0113 0.6463 -2.0097 0.9748
5.9828 0.8602 -2.0092 0.9748
5.9465 1.0729 -2.0086 0.9749
5.8513 1.4934 -2.0073 0.9749
5.5717 2.3079 -2.0047 0.9749
5.4838 2.5044 -2.0040 0.9749
5.3890 2.6975 -2.0032 0.9749
4.8151 3.6046 -1.9994 0.9750
4.6815 3.7726 -1.9986 0.9750
4.3969 4.0936 -1.9969 0.9750
3.9292 4.5345 -1.9944 0.9750
3.7632 4.6699 -1.9936 0.9750
3.2384 5.0390 -1.9911 0.9751
3.0551 5.1492 -1.9902 0.9751
2.8682 5.2527 -1.9894 0.9751
2.6778 5.3495 -1.9885 0.9751
2.4841 5.4394 -1.9877 0.9751
2.0880 5.5981 -1.9861 0.9751
1.4758 5.7822 -1.9836 0.9752
1.2680 5.8288 -1.9828 0.9752
1.0587 5.8681 -1.9821 0.9752
0.4249 5.9409 -1.9798 0.9752
-0.2124 5.9459 -1.9777 0.9752
-0.4243 5.9325 -1.9770 0.9752
-0.6356 5.9116 -1.9764 0.9752
-0.8459 5.8833 -1.9758 0.9753
-1.0550 5.8476 -1.9751 0.9753
-1.4686 5.7540 -1.9740 0.9753
-2.4638 5.3950 -1.9715 0.9753
-2.6542 5.3024 -1.9710 0.9753
-3.3793 4.8671 -1.9696 0.9753
-3.7169 4.6123 -1.9690 0.9753
-4.0355 4.3344 -1.9686 0.9753
-4.1872 4.1872 -1.9684 0.9753
-4.3337 4.0348 -1.9682 0.9753
-4.4747 3.8773 -1.9681 0.9754
-4.6100 3.7149 -1.9680 0.9754
-4.9804 3.2007 -1.9679 0.9754
-5.0915 3.0209 -1.9679 0.9754
-5.2944 2.6502 -1.9681 0.9754
-5.3859 2.4597 -1.9682 0.9754
-5.4707 2.2660 -1.9683 0.9753
-5.5485 2.0695 -1.9685 0.9753
-5.7399 1.4650 -1.9692 0.9753
-5.7894 1.2594 -1.9694 0.9753
-5.9265 0.2117 -1.9713 0.9753
5.6202 -0.0000 -2.0098 0.9764
5.6153 0.2005 -2.0094 0.9764
5.6033 0.4007 -2.0089 0.9764
5.5241 0.9967 -2.0073 0.9764
5.4835 1.1928 -2.0068 0.9764
5.3812 1.5800 -2.0056 0.9765
5.3198 1.7706 -2.0050 0.9765
5.1766 2.1442 -2.0037 0.9765
5.0951 2.3268 -2.0031 0.9765
4.9128 2.6826 -2.0017 0.9765
4.3505 3.5058 -1.9980 0.9765
4.2210 3.6575 -1.9973 0.9766
3.9463 3.9463 -1.9958 0.9766
3.8014 4.0830 -1.9950 0.9766
3.4977 4.3404 -1.9934 0.9766
3.0102 4.6839 -1.9911 0.9766
2.6663 4.8829 -1.9895 0.9766
2.4893 4.9730 -1.9887 0.9767
1.9412 5.2045 -1.9864 0.9767
1.5638 5.3257 -1.9849 0.9767
1.3722 5.3761 -1.9842 0.9767
1.1790 5.4196 -1.9834 0.9767
0.5923 5.5087 -1.9813 0.9767
0.3951 5.5244 -1.9806 0.9767
0.1976 5.5332 -1.9800 0.9768
0.0000 5.5348 -1.9793 0.9768
-0.1975 5.5295 -1.9787 0.9768
-0.7867 5.4717 -1.9768 0.9768
-0.9812 5.4385 -1.9763 0.9768
-1.3660 5.3517 -1.9752 0.9768
-1.5557 5.2982 -1.9747 0.9768
-2.1116 5.0980 -1.9733 0.9768
-2.4689 4.9323 -1.9725 0.9768
-2.6429 4.8401 -1.9721 0.9768
-2.8135 4.7418 -1.9717 0.9768
-2.9804 4.6376 -1.9714 0.9769
-3.1436 4.5276 -1.9711 0.9769
-3.3027 4.4119 -1.9708 0.9769
-3.7541 4.0322 -1.9702 0.9769
-3.8953 3.8953 -1.9700 0.9769
-4.0316 3.7535 -1.9698 0.9769
-4.4091 3.3006 -1.9696 0.9769
-4.5240 3.1411 -1.9695 0.9769
-4.6332 2.9776 -1.9695 0.9769
-4.7366 2.8104 -1.9696 0.9769
-4.9253 2.4654 -1.9697 0.9769
-5.1617 1.9252 -1.9701 0.9769
-5.2276 1.7399 -1.9703 0.9769
-5.2869 1.5524 -1.9705 0.9769
-5.3856 1.1716 -1.9710 0.9769
-5.4826 0.5894 -1.9719 0.9768
-5.5011 0.3934 -1.9723 0.9768
-5.5127 0.1969 -1.9727 0.9768
5.2369 0.1870 -2.0081 0.9778
5.2257 0.3737 -2.0077 0.9778
5.2079 0.5599 -2.0072 0.9778
5.1833 0.7452 -2.0068 0.9778
5.1143 1.1126 -2.0057 0.9778
5.0700 1.2940 -2.0052 0.9778
4.9620 1.6515 -2.0041 0.9778
4.8984 1.8270 -2.0035 0.9779
4.8286 2.0001 -2.0029 0.9779
4.6707 2.3380 -2.0016 0.9779
4.4891 2.6635 -2.0003 0.9779
4.0588 3.2708 -1.9976 0.9779
3.4075 3.9324 -1.9940 0.9780
3.2637 4.0500 -1.9933 0.9780
2.1552 4.7192 -1.9882 0.9780
1.9847 4.7915 -1.9875 0.9780
1.8118 4.8575 -1.9867 0.9780
1.6367 4.9173 -1.9860 0.9780
1.2808 5.0180 -1.9846 0.9781
0.9189 5.0931 -1.9833 0.9781
0.1845 5.1653 -1.9807 0.9781
-0.1844 5.1622 -1.9795 0.9781
-0.3684 5.1508 -1.9789 0.9781
-0.5518 5.1329 -1.9783 0.9781
-0.7345 5.1085 -1.9778 0.9781
-1.0965 5.0404 -1.9768 0.9781
-1.2753 4.9968 -1.9763 0.9782
-2.3054 4.6056 -1.9737 0.9782
-2.4678 4.5195 -1.9734 0.9782
-3.5057 3.7654 -1.9716 0.9782
-3.6376 3.6376 -1.9714 0.9782
-3.8873 3.3684 -1.9712 0.9782
-4.0049 3.2274 -1.9711 0.9782
-4.1174 3.0823 -1.9710 0.9782
-4.5995 2.3023 -1.9711 0.9782
-4.7526 1.9686 -1.9713 0.9782
-4.8202 1.7978 -1.9715 0.9782
-4.8817 1.6248 -1.9716 0.9782
-4.9370 1.4496 -1.9718 0.9782
-5.0656 0.9140 -1.9726 0.9782
-5.0958 0.7326 -1.9729 0.9782
-5.1195 0.5504 -1.9732 0.9782
-5.1367 0.3674 -1.9735 0.9782
-5.1475 0.1838 -1.9739 0.9782
4.8738 0.5240 -2.0062 0.9790
4.8218 0.8699 -2.0053 0.9790
4.7865 1.0412 -2.0048 0.9791
4.7451 1.2111 -2.0043 0.9791
4.6976 1.3793 -2.0038 0.9791
4.6442 1.5457 -2.0033 0.9791
4.2021 2.4932 -1.9997 0.9791
4.1091 2.6408 -1.9991 0.9791
3.9078 2.9253 -1.9978 0.9791
2.7756 3.9975 -1.9918 0.9792
2.6302 4.0926 -1.9911 0.9792
2.4816 4.1825 -1.9904 0.9792
2.3299 4.2669 -1.9897 0.9792
2.0182 4.4192 -1.9884 0.9792
1.8586 4.4869 -1.9877 0.9792
1.3669 4.6552 -1.9857 0.9792
1.1995 4.6995 -1.9851 0.9793
1.0307 4.7378 -1.9844 0.9793
0.8606 4.7701 -1.9838 0.9793
0.6896 4.7963 -1.9832 0.9793
0.5178 4.8163 -1.9826 0.9793
0.3455 4.8303 -1.9820 0.9793
0.1728 4.8381 -1.9814 0.9793
0.0000 4.8398 -1.9808 0.9793
-0.1727 4.8353 -1.9802 0.9793
-0.3451 4.8248 -1.9797 0.9793
-0.5169 4.8081 -1.9792 0.9793
-0.8582 4.7565 -1.9782 0.9793
-1.1947 4.6809 -1.9772 0.9793
-1.3607 4.6343 -1.9768 0.9793
-1.5249 4.5817 -1.9763 0.9793
-1.6872 4.5235 -1.9759 0.9793
-2.6075 4.0573 -1.9739 0.9794
-2.7502 3.9611 -1.9736 0.9794
-3.0251 3.7539 -1.9732 0.9794
-3.1569 3.6432 -1.9730 0.9794
-3.2846 3.5279 -1.9728 0.9794
-3.4081 3.4081 -1.9727 0.9794
-3.6422 3.1560 -1.9724 0.9794
-3.8578 2.8879 -1.9723 0.9794
-3.9583 2.7483 -1.9723 0.9794
-4.0539 2.6053 -1.9723 0.9794
-4.1444 2.4590 -1.9723 0.9794
-4.2296 2.3095 -1.9723 0.9794
-4.3839 2.0021 -1.9725 0.9794
-4.5161 1.6844 -1.9727 0.9794
-4.8124 0.3442 -1.9746 0.9794
4.6039 0.0000 -2.0065 0.9801
4.6001 0.1643 -2.0061 0.9801
4.5262 0.8166 -2.0044 0.9801
4.4544 1.1369 -2.0035 0.9801
4.4099 1.2948 -2.0030 0.9801
4.2429 1.7575 -2.0015 0.9802
4.1763 1.9072 -2.0009 0.9802
4.0274 2.1991 -1.9998 0.9802
3.7659 2.6147 -1.9980 0.9802
3.6690 2.7466 -1.9974 0.9802
3.5676 2.8749 -1.9968 0.9802
3.4616 2.9995 -1.9962 0.9802
3.3513 3.1202 -1.9956 0.9802
3.2368 3.2368 -1.9950 0.9802
3.1182 3.3492 -1.9943 0.9802
2.9957 3.4572 -1.9937 0.9802
2.8695 3.5608 -1.9930 0.9802
2.7397 3.6598 -1.9924 0.9802
2.4700 3.8434 -1.9911 0.9803
1.7456 4.2141 -1.9879 0.9803
1.5935 4.2724 -1.9873 0.9803
1.4396 4.3252 -1.9867 0.9803
1.2839 4.3725 -1.9861 0.9803
0.9681 4.4502 -1.9848 0.9803
0.8084 4.4806 -1.9842 0.9803
0.6478 4.5053 -1.9837 0.9803
0.1623 4.5448 -1.9820 0.9804
0.0000 4.5465 -1.9814 0.9804
-0.1622 4.5424 -1.9809 0.9804
-0.3242 4.5325 -1.9804 0.9804
-1.1225 4.3977 -1.9781 0.9804
-1.5851 4.2500 -1.9768 0.9804
-1.7355 4.1899 -1.9765 0.9804
-1.8836 4.1246 -1.9761 0.9804
-2.0293 4.0540 -1.9758 0.9804
-2.7150 3.6268 -1.9745 0.9804
-2.9663 3.4232 -1.9741 0.9804
-3.5259 2.8413 -1.9735 0.9804
-3.8092 2.4480 -1.9734 0.9804
-3.8942 2.3106 -1.9734 0.9804
-4.0493 2.0270 -1.9735 0.9804
-4.1193 1.8812 -1.9736 0.9804
-1.4401 0.4793 -0.6615 0.9934
-1.3722 0.4029 -0.6233 0.9938
-1.3955 0.2518 -0.6180 0.9938
-1.4359 0.1544 -0.6294 0.9937
4.3293 0.1546 -2.0052 0.9811
4.3202 0.3090 -2.0049 0.9811
4.2855 0.6161 -2.0041 0.9811
4.2599 0.7685 -2.0037 0.9811
4.2288 0.9199 -2.0032 0.9811
4.1506 1.2187 -2.0023 0.9811
4.1034 1.3657 -2.0019 0.9811
4.0511 1.5110 -2.0014 0.9811
3.9936 1.6542 -2.0009 0.9811
3.9310 1.7952 -2.0004 0.9811
3.8634 1.9339 -1.9998 0.9811
3.5450 2.4613 -1.9976 0.9812
3.3584 2.7064 -1.9965 0.9812
3.1549 2.9373 -1.9953 0.9812
3.0472 3.0472 -1.9947 0.9812
2.9356 3.1530 -1.9941 0.9812
2.8203 3.2548 -1.9935 0.9812
2.4540 3.5345 -1.9917 0.9812
2.3256 3.6187 -1.9911 0.9812
2.0603 3.7731 -1.9899 0.9812
1.5005 4.0230 -1.9875 0.9813
1.3556 4.0728 -1.9869 0.9813
1.2090 4.1174 -1.9864 0.9813
0.7613 4.2195 -1.9847 0.9813
0.6100 4.2428 -1.9841 0.9813
0.4581 4.2607 -1.9836 0.9813
0.3056 4.2732 -1.9830 0.9813
0.1529 4.2802 -1.9825 0.9813
0.0000 4.2818 -1.9820 0.9813
-0.1528 4.2781 -1.9815 0.9813
-0.9089 4.1782 -1.9792 0.9813
-1.0572 4.1422 -1.9788 0.9813
-1.4931 4.0031 -1.9777 0.9813
-1.7743 3.8851 -1.9770 0.9814
-2.0463 3.7475 -1.9764 0.9814
-2.1784 3.6715 -1.9761 0.9814
-2.3078 3.5910 -1.9759 0.9814
-2.4342 3.5059 -1.9757 0.9814
-2.6776 3.3227 -1.9752 0.9814
-2.7942 3.2247 -1.9751 0.9814
-2.9073 3.1226 -1.9749 0.9814
-3.2239 2.7935 -1.9746 0.9814
-3.3214 2.6766 -1.9745 0.9814
-3.4148 2.5563 -1.9745 0.9814
-3.5038 2.4327 -1.9744 0.9814
-3.6684 2.1766 -1.9745 0.9814
-3.7438 2.0443 -1.9745 0.9814
-3.8804 1.7721 -1.9746 0.9814
-1.1536 0.3840 -0.5628 0.9947
-1.1574 0.2954 -0.5529 0.9947
-1.1790 0.2565 -0.5585 0.9947
-1.2124 0.1743 -0.5670 0.9946
-1.2362 0.0884 -0.5737 0.9946
-1.2424 0.0444 -0.5754 0.9945
4.0870 -0.0000 -2.0048 0.9820
4.0426 0.5812 -2.0034 0.9820
3.8217 1.4254 -2.0008 0.9820
3.7675 1.5605 -2.0003 0.9820
3.7085 1.6936 -1.9998 0.9820
3.5765 1.9529 -1.9988 0.9820
3.5036 2.0788 -1.9983 0.9820
3.4263 2.2019 -1.9978 0.9820
3.2587 2.4394 -1.9967 0.9820
3.0747 2.6642 -1.9957 0.9820
2.6613 3.0712 -1.9934 0.9821
2.5492 3.1633 -1.9928 0.9821
2.4340 3.2514 -1.9923 0.9821
2.3157 3.3353 -1.9917 0.9821
2.1946 3.4148 -1.9911 0.9821
2.0707 3.4900 -1.9906 0.9821
1.9443 3.5606 -1.9900 0.9821
1.6843 3.6881 -1.9889 0.9821
1.4161 3.7968 -1.9877 0.9821
1.1410 3.8860 -1.9866 0.9821
1.0013 3.9232 -1.9861 0.9821
0.8604 3.9553 -1.9856 0.9821
0.4324 4.0215 -1.9840 0.9821
0.2885 4.0333 -1.9835 0.9821
-0.2882 4.0295 -1.9816 0.9822
-0.4317 4.0157 -1.9812 0.9822
-0.7168 3.9730 -1.9803 0.9822
-1.1367 3.8713 -1.9791 0.9822
-1.2739 3.8276 -1.9788 0.9822
-1.8045 3.6050 -1.9775 0.9822
-2.0566 3.4662 -1.9770 0.9822
-2.1787 3.3901 -1.9767 0.9822
-2.4145 3.2254 -1.9763 0.9822
-2.5279 3.1369 -1.9761 0.9822
-2.6380 3.0444 -1.9760 0.9822
-2.9477 2.7444 -1.9756 0.9822
-3.0437 2.6374 -1.9755 0.9822
-3.3079 2.2967 -1.9754 0.9822
-3.4634 2.0549 -1.9754 0.9822
-3.5346 1.9300 -1.9754 0.9822
-1.0444 0.4769 -0.5632 0.9949
-1.0290 0.4262 -0.5463 0.9951
-1.0119 0.3774 -0.5298 0.9952
-1.0175 0.2987 -0.5202 0.9953
-1.0307 0.2631 -0.5218 0.9953
-1.0611 0.1526 -0.5258 0.9952
-1.0705 0.1151 -0.5281 0.9952
3.8599 0.1379 -2.0037 0.9827
3.8519 0.2755 -2.0034 0.9827
3.8390 0.4127 -2.0030 0.9828
3.7708 0.8203 -2.0019 0.9828
3.7011 1.0867 -2.0011 0.9828
3.6592 1.2179 -2.0007 0.9828
3.6126 1.3474 -2.0003 0.9828
3.5615 1.4752 -1.9998 0.9828
3.4455 1.7247 -1.9989 0.9828
3.2391 2.0816 -1.9975 0.9828
3.0808 2.3062 -1.9964 0.9828
2.9957 2.4141 -1.9959 0.9828
2.7184 2.7183 -1.9944 0.9828
2.6189 2.8129 -1.9938 0.9828
2.4103 2.9909 -1.9928 0.9828
2.3014 3.0742 -1.9922 0.9828
1.9579 3.2999 -1.9906 0.9829
1.7166 3.4293 -1.9895 0.9829
1.5927 3.4875 -1.9890 0.9829
1.4668 3.5412 -1.9885 0.9829
1.3391 3.5903 -1.9879 0.9829
0.8137 3.7405 -1.9859 0.9829
0.6795 3.7662 -1.9854 0.9829
0.4089 3.8032 -1.9844 0.9829
0.2728 3.8145 -1.9839 0.9829
0.1365 3.8209 -1.9835 0.9829
0.0000 3.8224 -1.9830 0.9829
-0.4083 3.7980 -1.9817 0.9829
-0.5435 3.7803 -1.9813 0.9829
-0.6780 3.7577 -1.9809 0.9829
-1.2050 3.6204 -1.9795 0.9830
-1.3332 3.5745 -1.9791 0.9830
-1.5843 3.4692 -1.9785 0.9830
-1.8273 3.3464 -1.9780 0.9830
-2.1738 3.1308 -1.9773 0.9830
-2.3911 2.9672 -1.9770 0.9830
-2.4953 2.8798 -1.9768 0.9830
-2.8791 2.4948 -1.9764 0.9830
-3.1291 2.1726 -1.9762 0.9830
-3.2047 2.0595 -1.9762 0.9830
-3.2762 1.9438 -1.9763 0.9830
-0.9416 0.4713 -0.5463 0.9953
-0.9271 0.3840 -0.5206 0.9955
-0.9524 0.2431 -0.5099 0.9956
-0.9785 0.1407 -0.5128 0.9956
-0.9838 0.1057 -0.5133 0.9956
-0.9873 0.0706 -0.5135 0.9955
3.6548 0.1305 -2.0030 0.9835
3.6473 0.2608 -2.0027 0.9835
3.6351 0.3908 -2.0024 0.9835
3.6182 0.5202 -2.0021 0.9835
3.4210 1.2760 -1.9998 0.9835
3.3726 1.3970 -1.9994 0.9835
3.2629 1.6333 -1.9985 0.9835
3.2018 1.7483 -1.9981 0.9835
3.0675 1.9714 -1.9971 0.9835
2.9945 2.0791 -1.9967 0.9835
2.9177 2.1841 -1.9962 0.9835
2.7531 2.3855 -1.9952 0.9835
2.6655 2.4817 -1.9947 0.9835
2.5746 2.5746 -1.9942 0.9835
2.2829 2.8329 -1.9927 0.9835
2.1798 2.9118 -1.9922 0.9835
1.9655 3.0583 -1.9911 0.9836
1.8546 3.1257 -1.9906 0.9836
1.7414 3.1891 -1.9901 0.9836
1.6260 3.2484 -1.9896 0.9836
1.5087 3.3035 -1.9891 0.9836
1.3895 3.3544 -1.9886 0.9836
1.2685 3.4010 -1.9881 0.9836
1.1460 3.4433 -1.9876 0.9836
0.5158 3.5877 -1.9852 0.9836
0.3874 3.6030 -1.9848 0.9836
0.1293 3.6198 -1.9839 0.9836
0.0000 3.6214 -1.9834 0.9836
-0.2582 3.6106 -1.9826 0.9836
-0.3869 3.5984 -1.9822 0.9836
-0.5150 3.5816 -1.9818 0.9836
-0.6423 3.5602 -1.9815 0.9836
-0.8944 3.5041 -1.9807 0.9836
-1.1417 3.4302 -1.9801 0.9836
-1.6173 3.2310 -1.9789 0.9837
-1.7314 3.1708 -1.9787 0.9837
-1.8432 3.1066 -1.9785 0.9837
-2.1641 2.8909 -1.9779 0.9837
-2.2657 2.8116 -1.9777 0.9837
-2.4602 2.6424 -1.9774 0.9837
-2.8107 2.2650 -1.9771 0.9837
-2.8897 2.1632 -1.9771 0.9837
-3.0366 1.9515 -1.9770 0.9837
-0.8524 0.5057 -0.5428 0.9955
-0.8507 0.4645 -0.5309 0.9956
-0.8516 0.4263 -0.5216 0.9957
-0.8727 0.2562 -0.4982 0.9959
-0.8837 0.2255 -0.4995 0.9958
-0.9011 0.1626 -0.5015 0.9958
-0.9127 0.0981 -0.5028 0.9958
3.4688 0.0000 -2.0027 0.9841
3.4661 0.1238 -2.0024 0.9841
3.4111 0.6154 -2.0012 0.9841
3.3864 0.7367 -2.0009 0.9841
3.3573 0.8569 -2.0005 0.9841
3.3240 0.9760 -2.0001 0.9841
3.2447 1.2102 -1.9994 0.9841
3.1988 1.3250 -1.9990 0.9841
3.1488 1.4380 -1.9986 0.9841
3.0369 1.6583 -1.9977 0.9841
2.9751 1.7652 -1.9973 0.9841
2.8403 1.9721 -1.9964 0.9842
2.7675 2.0717 -1.9959 0.9842
2.5284 2.3541 -1.9945 0.9842
2.4422 2.4422 -1.9940 0.9842
2.3529 2.5272 -1.9936 0.9842
2.2607 2.6089 -1.9931 0.9842
2.1656 2.6873 -1.9926 0.9842
1.6520 3.0254 -1.9902 0.9842
1.5426 3.0817 -1.9897 0.9842
0.9698 3.3027 -1.9873 0.9842
0.7313 3.3619 -1.9864 0.9842
0.6107 3.3851 -1.9860 0.9842
0.0000 3.4361 -1.9838 0.9843
-0.2450 3.4260 -1.9831 0.9843
-0.3671 3.4144 -1.9827 0.9843
-0.4886 3.3985 -1.9823 0.9843
-0.7296 3.3538 -1.9816 0.9843
-0.9667 3.2921 -1.9810 0.9843
-1.4245 3.1192 -1.9798 0.9843
-1.6430 3.0090 -1.9793 0.9843
-1.7492 2.9480 -1.9791 0.9843
-1.9546 2.8152 -1.9787 0.9843
-2.2438 2.5895 -1.9783 0.9843
-2.5074 2.3345 -1.9779 0.9843
-2.5890 2.2434 -1.9779 0.9843
-2.7423 2.0529 -1.9778 0.9843
-0.7750 0.4599 -0.5203 0.9958
-0.7787 0.4252 -0.5122 0.9959
-0.8014 0.2667 -0.4876 0.9961
-0.8128 0.2387 -0.4891 0.9961
-0.8230 0.2101 -0.4904 0.9961
-0.8393 0.1514 -0.4924 0.9961
-0.8499 0.0914 -0.4935 0.9961
