ply
format ascii 1.0
element vertex 681
property float32 x
property float32 y
property float32 z
property float32 I
end_header
-9.5685 -0.0000 -2.0226 0.9616
-9.5133 -1.0228 -2.0225 0.9616
-9.3476 -2.0335 -2.0221 0.9616
-9.2681 -2.3656 -2.0219 0.9616
-9.0733 -3.0199 -2.0214 0.9617
-8.9584 -3.3413 -2.0211 0.9617
-8.6940 -3.9705 -2.0203 0.9617
-8.5450 -4.2774 -2.0199 0.9617
-8.2144 -4.8738 -2.0190 0.9617
-7.8416 -5.4446 -2.0179 0.9617
-7.6401 -5.7194 -2.0174 0.9617
-7.2083 -6.2460 -2.0161 0.9618
-6.9785 -6.4972 -2.0155 0.9618
-6.7398 -6.7398 -2.0148 0.9618
-6.4927 -6.9737 -2.0141 0.9618
-4.5536 -8.3394 -2.0085 0.9619
-3.9436 -8.6354 -2.0067 0.9619
-2.9938 -8.9951 -2.0039 0.9620
-2.6696 -9.0919 -2.0030 0.9620
-2.3423 -9.1770 -2.0020 0.9620
-2.0123 -9.2503 -2.0010 0.9620
-1.6800 -9.3117 -2.0001 0.9621
-0.6740 -9.4240 -1.9971 0.9621
-0.3370 -9.4373 -1.9961 0.9621
0.0000 -9.4386 -1.9951 0.9621
0.3367 -9.4279 -1.9941 0.9622
1.3406 -9.3241 -1.9912 0.9622
2.0004 -9.1956 -1.9892 0.9623
3.5928 -8.6737 -1.9845 0.9623
3.8983 -8.5360 -1.9836 0.9624
5.0645 -7.8805 -1.9801 0.9624
5.6091 -7.4929 -1.9785 0.9625
5.8707 -7.2850 -1.9777 0.9625
6.3706 -6.8425 -1.9762 0.9625
6.6083 -6.6083 -1.9755 0.9625
6.8376 -6.3660 -1.9748 0.9625
7.2695 -5.8581 -1.9735 0.9625
7.4716 -5.5932 -1.9728 0.9626
8.0199 -4.7584 -1.9712 0.9626
8.1825 -4.4680 -1.9707 0.9626
8.4765 -3.8711 -1.9698 0.9626
8.8367 -2.9411 -1.9686 0.9626
9.0212 -2.3025 -1.9680 0.9627
9.1604 -1.6527 -1.9676 0.9627
9.2999 -0.3322 -1.9671 0.9627
-8.5938 -0.0000 -2.0197 0.9653
-8.5442 -0.9186 -2.0197 0.9653
-8.1495 -2.7124 -2.0186 0.9653
-7.8092 -3.5664 -2.0177 0.9653
-7.6756 -3.8421 -2.0173 0.9653
-6.8636 -5.1381 -2.0150 0.9654
-6.2698 -5.8374 -2.0133 0.9654
-5.8337 -6.2659 -2.0121 0.9654
-5.6045 -6.4680 -2.0114 0.9654
-5.1253 -6.8467 -2.0100 0.9655
-4.8759 -7.0227 -2.0093 0.9655
-4.6205 -7.1896 -2.0086 0.9655
-2.9795 -7.9884 -2.0038 0.9656
-2.6914 -8.0863 -2.0030 0.9656
-2.4000 -8.1737 -2.0021 0.9656
-2.1058 -8.2506 -2.0012 0.9656
-1.8092 -8.3169 -2.0004 0.9656
-1.5106 -8.3726 -1.9995 0.9656
-0.9086 -8.4515 -1.9977 0.9657
-0.6061 -8.4748 -1.9969 0.9657
0.0000 -8.4888 -1.9951 0.9657
0.9062 -8.4289 -1.9924 0.9658
1.7996 -8.2728 -1.9898 0.9658
2.9535 -7.9188 -1.9863 0.9659
3.5080 -7.6815 -1.9847 0.9659
3.7784 -7.5483 -1.9839 0.9659
4.5583 -7.0928 -1.9815 0.9659
4.8067 -6.9230 -1.9808 0.9660
5.0489 -6.7446 -1.9801 0.9660
5.5133 -6.3627 -1.9787 0.9660
6.1558 -5.7313 -1.9767 0.9660
6.7273 -5.0360 -1.9750 0.9661
7.0657 -4.5409 -1.9740 0.9661
7.6332 -3.4860 -1.9722 0.9661
8.0464 -2.3626 -1.9709 0.9661
8.1245 -2.0737 -1.9707 0.9661
8.1924 -1.7822 -1.9704 0.9661
8.3339 -0.8960 -1.9700 0.9661
8.3602 -0.5979 -1.9699 0.9661
-7.7866 -0.2781 -2.0174 0.9683
-7.7466 -0.8329 -2.0173 0.9683
-7.7116 -1.1088 -2.0172 0.9683
-7.6667 -1.3833 -2.0171 0.9683
-7.6119 -1.6559 -2.0170 0.9683
-7.4730 -2.1943 -2.0166 0.9683
-7.3891 -2.4593 -2.0164 0.9683
-7.2957 -2.7212 -2.0161 0.9683
-7.0809 -3.2338 -2.0155 0.9683
-6.8298 -3.7294 -2.0148 0.9684
-6.2243 -4.6594 -2.0131 0.9684
-6.0525 -4.8775 -2.0126 0.9684
-5.8731 -5.0891 -2.0121 0.9684
-4.8692 -6.0423 -2.0092 0.9684
-4.6489 -6.2103 -2.0086 0.9685
-4.4229 -6.3702 -2.0079 0.9685
-3.4665 -6.9252 -2.0052 0.9685
-3.2159 -7.0420 -2.0044 0.9685
-2.1777 -7.4168 -2.0014 0.9686
-1.9109 -7.4868 -2.0006 0.9686
-1.6418 -7.5473 -1.9998 0.9686
-0.5501 -7.6918 -1.9966 0.9686
0.2749 -7.6972 -1.9942 0.9687
0.5493 -7.6793 -1.9934 0.9687
0.8226 -7.6517 -1.9926 0.9687
1.0948 -7.6144 -1.9918 0.9687
1.3653 -7.5674 -1.9910 0.9687
1.9002 -7.4448 -1.9894 0.9688
2.6820 -7.1906 -1.9871 0.9688
2.9358 -7.0877 -1.9863 0.9688
3.1857 -6.9758 -1.9856 0.9688
4.1401 -6.4421 -1.9827 0.9689
5.0082 -5.7797 -1.9801 0.9689
5.5923 -5.2066 -1.9784 0.9689
5.9463 -4.7918 -1.9773 0.9689
6.1120 -4.5754 -1.9768 0.9689
6.2698 -4.3532 -1.9763 0.9690
6.4197 -4.1257 -1.9758 0.9690
6.5615 -3.8931 -1.9754 0.9690
6.8197 -3.4137 -1.9746 0.9690
6.9359 -3.1675 -1.9742 0.9690
7.3828 -1.8844 -1.9728 0.9690
7.5734 -0.8142 -1.9722 0.9690
7.6116 -0.2719 -1.9720 0.9690
-7.1010 -0.5079 -2.0154 0.9708
-7.0782 -0.7610 -2.0153 0.9708
-7.0052 -1.2639 -2.0151 0.9708
-6.8284 -2.0050 -2.0147 0.9708
-6.7518 -2.2472 -2.0145 0.9709
-6.4704 -2.9550 -2.0137 0.9709
-6.2411 -3.4079 -2.0131 0.9709
-6.1144 -3.6279 -2.0127 0.9709
-5.9799 -3.8431 -2.0123 0.9709
-5.6882 -4.2581 -2.0115 0.9709
-5.5313 -4.4575 -2.0110 0.9709
-5.1968 -4.8384 -2.0101 0.9709
-4.8359 -5.1941 -2.0091 0.9709
-4.6461 -5.3620 -2.0085 0.9709
-4.0429 -5.8229 -2.0068 0.9710
-3.8313 -5.9616 -2.0062 0.9710
-3.3941 -6.2158 -2.0049 0.9710
-3.1690 -6.3309 -2.0042 0.9710
-2.7075 -6.5365 -2.0029 0.9710
-2.4716 -6.6267 -2.0022 0.9710
-2.2327 -6.7084 -2.0015 0.9710
-1.7472 -6.8457 -2.0001 0.9711
-1.2535 -6.9479 -1.9986 0.9711
-0.7541 -7.0144 -1.9972 0.9711
-0.5031 -7.0343 -1.9964 0.9711
-0.2516 -7.0451 -1.9957 0.9711
0.0000 -7.0470 -1.9950 0.9711
0.7525 -6.9988 -1.9927 0.9712
1.2489 -6.9222 -1.9913 0.9712
1.7383 -6.8105 -1.9898 0.9712
1.9796 -6.7417 -1.9891 0.9712
2.2181 -6.6644 -1.9884 0.9712
2.4537 -6.5787 -1.9877 0.9712
2.6860 -6.4846 -1.9870 0.9712
2.9148 -6.3824 -1.9863 0.9713
3.5768 -6.0283 -1.9843 0.9713
4.3929 -5.4512 -1.9819 0.9713
4.7678 -5.1210 -1.9808 0.9713
4.9462 -4.9462 -1.9802 0.9713
5.1183 -4.7653 -1.9797 0.9713
5.2838 -4.5784 -1.9792 0.9714
5.4425 -4.3858 -1.9787 0.9714
5.8762 -3.7764 -1.9774 0.9714
6.1282 -3.3463 -1.9766 0.9714
6.2427 -3.1248 -1.9763 0.9714
6.4476 -2.6707 -1.9756 0.9714
6.5378 -2.4385 -1.9754 0.9714
6.6198 -2.2033 -1.9751 0.9714
6.6935 -1.9654 -1.9749 0.9714
6.8153 -1.4826 -1.9745 0.9714
6.8633 -1.2383 -1.9743 0.9714
6.9026 -0.9925 -1.9742 0.9714
6.9333 -0.7454 -1.9741 0.9714
-6.5428 -0.2337 -2.0137 0.9730
-6.5092 -0.6998 -2.0136 0.9730
-6.4799 -0.9317 -2.0136 0.9730
-6.4422 -1.1623 -2.0135 0.9730
-6.3962 -1.3914 -2.0134 0.9730
-6.3421 -1.6187 -2.0132 0.9730
-6.2797 -1.8439 -2.0131 0.9730
-6.2093 -2.0667 -2.0129 0.9730
-5.8491 -2.9279 -2.0119 0.9730
-5.7400 -3.1343 -2.0116 0.9730
-5.6236 -3.3366 -2.0112 0.9730
-5.3693 -3.7280 -2.0105 0.9730
-4.7801 -4.4504 -2.0088 0.9730
-4.4483 -4.7779 -2.0079 0.9731
-4.0941 -5.0804 -2.0069 0.9731
-3.7192 -5.3567 -2.0058 0.9731
-3.5246 -5.4845 -2.0052 0.9731
-3.1226 -5.7186 -2.0041 0.9731
-2.7050 -5.9232 -2.0028 0.9731
-2.4911 -6.0141 -2.0022 0.9731
-2.0544 -6.1726 -2.0009 0.9731
-1.6078 -6.2993 -1.9996 0.9732
-1.1535 -6.3937 -1.9983 0.9732
-0.9243 -6.4286 -1.9976 0.9732
-0.2316 -6.4840 -1.9956 0.9732
0.9218 -6.4111 -1.9922 0.9733
1.8224 -6.2064 -1.9895 0.9733
2.0421 -6.1354 -1.9889 0.9733
2.6836 -5.8763 -1.9870 0.9733
3.0941 -5.6664 -1.9857 0.9733
3.6788 -5.2985 -1.9840 0.9734
4.0452 -5.0197 -1.9829 0.9734
4.8661 -4.2165 -1.9804 0.9734
5.0124 -4.0392 -1.9800 0.9734
5.1522 -3.8569 -1.9795 0.9734
5.6444 -3.0821 -1.9780 0.9734
5.9387 -2.4599 -1.9771 0.9735
6.0220 -2.2461 -1.9769 0.9735
6.1654 -1.8104 -1.9764 0.9735
6.3583 -0.9142 -1.9758 0.9735
6.3865 -0.6866 -1.9757 0.9735
6.4067 -0.4582 -1.9756 0.9735
6.4188 -0.2293 -1.9755 0.9735
-6.0498 -0.2161 -2.0123 0.9748
-6.0187 -0.6471 -2.0122 0.9748
-5.9568 -1.0748 -2.0120 0.9748
-5.6692 -2.1145 -2.0113 0.9748
-5.4087 -2.7074 -2.0106 0.9748
-5.0860 -3.2686 -2.0096 0.9748
-4.9653 -3.4475 -2.0093 0.9748
-4.8382 -3.6218 -2.0089 0.9748
-4.7050 -3.7915 -2.0086 0.9749
-4.1140 -4.4188 -2.0069 0.9749
-3.9527 -4.5617 -2.0064 0.9749
-3.7865 -4.6988 -2.0059 0.9749
-3.6155 -4.8298 -2.0054 0.9749
-3.4399 -4.9545 -2.0049 0.9749
-3.0761 -5.1845 -2.0039 0.9749
-2.5022 -5.4791 -2.0022 0.9749
-2.3044 -5.5633 -2.0016 0.9749
-1.9005 -5.7102 -2.0005 0.9750
-1.4874 -5.8277 -1.9992 0.9750
-1.2781 -5.8753 -1.9986 0.9750
-0.6421 -5.9726 -1.9968 0.9750
-0.4284 -5.9899 -1.9961 0.9750
0.0000 -6.0014 -1.9949 0.9750
0.2142 -5.9956 -1.9942 0.9750
0.4279 -5.9823 -1.9936 0.9750
0.6409 -5.9613 -1.9930 0.9750
0.8530 -5.9328 -1.9924 0.9751
1.0639 -5.8967 -1.9917 0.9751
1.4809 -5.8022 -1.9905 0.9751
1.6866 -5.7439 -1.9899 0.9751
1.8899 -5.6783 -1.9893 0.9751
2.2888 -5.5257 -1.9881 0.9751
2.4839 -5.4389 -1.9875 0.9751
3.0484 -5.1379 -1.9858 0.9751
3.2290 -5.0244 -1.9853 0.9751
3.4054 -4.9047 -1.9848 0.9751
3.5773 -4.7787 -1.9843 0.9752
3.7447 -4.6468 -1.9838 0.9752
3.9072 -4.5091 -1.9833 0.9752
4.2169 -4.2169 -1.9823 0.9752
4.6405 -3.7396 -1.9810 0.9752
4.7701 -3.5708 -1.9807 0.9752
4.8935 -3.3977 -1.9803 0.9752
5.3237 -2.6649 -1.9790 0.9752
5.5758 -2.0797 -1.9782 0.9752
5.8539 -1.0562 -1.9773 0.9752
5.8875 -0.8465 -1.9772 0.9752
5.9324 -0.4243 -1.9770 0.9752
5.9436 -0.2123 -1.9769 0.9752
-5.6234 -0.0000 -2.0110 0.9764
-5.6199 -0.2007 -2.0110 0.9764
-5.5659 -0.8003 -2.0109 0.9764
-5.5336 -0.9984 -2.0108 0.9764
-5.4476 -1.3905 -2.0106 0.9764
-5.1119 -2.3345 -2.0097 0.9764
-4.9311 -2.6926 -2.0091 0.9764
-4.8311 -2.8665 -2.0089 0.9764
-4.7250 -3.0366 -2.0086 0.9764
-4.6129 -3.2029 -2.0083 0.9764
-4.2419 -3.6756 -2.0072 0.9764
-3.9673 -3.9673 -2.0064 0.9764
-3.5182 -4.3659 -2.0051 0.9765
-3.3594 -4.4877 -2.0047 0.9765
-3.1963 -4.6036 -2.0042 0.9765
-2.8584 -4.8175 -2.0032 0.9765
-2.6839 -4.9153 -2.0027 0.9765
-2.5061 -5.0066 -2.0022 0.9765
-2.3252 -5.0915 -2.0017 0.9765
-1.9550 -5.2417 -2.0006 0.9765
-1.3824 -5.4161 -1.9989 0.9765
-1.1878 -5.4604 -1.9983 0.9765
-0.9919 -5.4977 -1.9978 0.9765
-0.7948 -5.5280 -1.9972 0.9766
-0.5968 -5.5512 -1.9966 0.9766
-0.1992 -5.5764 -1.9954 0.9766
0.0000 -5.5783 -1.9948 0.9766
0.1991 -5.5731 -1.9943 0.9766
1.1837 -5.4413 -1.9914 0.9766
1.3768 -5.3940 -1.9908 0.9766
1.5679 -5.3400 -1.9902 0.9766
1.7571 -5.2791 -1.9897 0.9766
1.9438 -5.2116 -1.9891 0.9766
2.1280 -5.1375 -1.9885 0.9767
2.4877 -4.9699 -1.9875 0.9767
2.6628 -4.8766 -1.9870 0.9767
3.1665 -4.5605 -1.9854 0.9767
3.4821 -4.3210 -1.9845 0.9767
3.7798 -4.0597 -1.9836 0.9767
3.9214 -3.9214 -1.9832 0.9767
4.1894 -3.6302 -1.9824 0.9767
4.3155 -3.4777 -1.9820 0.9767
4.4361 -3.3208 -1.9816 0.9767
4.7632 -2.8262 -1.9806 0.9767
5.1859 -1.9342 -1.9793 0.9768
5.2511 -1.7478 -1.9791 0.9768
5.3614 -1.3684 -1.9787 0.9768
5.4759 -0.7873 -1.9784 0.9768
-5.2414 -0.1872 -2.0099 0.9778
-5.1911 -0.7464 -2.0098 0.9778
-5.1242 -1.1147 -2.0096 0.9778
-5.0808 -1.2968 -2.0095 0.9778
-5.0309 -1.4772 -2.0094 0.9778
-4.9120 -1.8321 -2.0090 0.9778
-4.8430 -2.0061 -2.0088 0.9778
-4.7678 -2.1774 -2.0086 0.9778
-4.6865 -2.3459 -2.0084 0.9778
-4.0773 -3.2857 -2.0067 0.9778
-3.7007 -3.7007 -2.0056 0.9778
-3.1338 -4.1863 -2.0040 0.9778
-2.8259 -4.3972 -2.0031 0.9779
-2.5038 -4.5855 -2.0021 0.9779
-2.3380 -4.6708 -2.0017 0.9779
-1.6479 -4.9510 -1.9997 0.9779
-1.4697 -5.0054 -1.9991 0.9779
-1.2898 -5.0533 -1.9986 0.9779
-1.1083 -5.0948 -1.9981 0.9779
-0.9255 -5.1297 -1.9975 0.9779
-0.7416 -5.1581 -1.9970 0.9779
-0.3715 -5.1950 -1.9959 0.9779
0.3712 -5.1894 -1.9937 0.9780
0.5560 -5.1714 -1.9932 0.9780
0.9230 -5.1157 -1.9921 0.9780
1.1047 -5.0782 -1.9916 0.9780
1.2849 -5.0342 -1.9910 0.9780
1.6399 -4.9271 -1.9900 0.9780
1.8142 -4.8641 -1.9895 0.9780
1.9862 -4.7950 -1.9889 0.9780
2.1555 -4.7199 -1.9884 0.9780
2.3220 -4.6388 -1.9879 0.9780
3.1051 -4.1479 -1.9856 0.9780
3.2505 -4.0336 -1.9852 0.9781
3.3916 -3.9141 -1.9847 0.9781
3.5284 -3.7898 -1.9843 0.9781
3.7883 -3.5270 -1.9835 0.9781
4.2487 -2.9499 -1.9821 0.9781
4.7016 -2.1472 -1.9807 0.9781
4.8418 -1.8059 -1.9803 0.9781
4.9573 -1.4556 -1.9799 0.9781
5.0057 -1.2776 -1.9798 0.9781
5.0478 -1.0981 -1.9796 0.9781
5.0835 -0.9172 -1.9795 0.9781
5.1355 -0.5521 -1.9793 0.9781
5.1517 -0.3685 -1.9793 0.9781
-4.9084 -0.0000 -2.0089 0.9790
-4.8582 -0.6985 -2.0088 0.9790
-4.7956 -1.0433 -2.0086 0.9790
-4.7551 -1.2137 -2.0085 0.9790
-4.5971 -1.7146 -2.0081 0.9790
-4.2174 -2.5023 -2.0070 0.9790
-4.1249 -2.6509 -2.0068 0.9790
-4.0271 -2.7961 -2.0065 0.9790
-3.8162 -3.0753 -2.0059 0.9790
-3.2067 -3.7008 -2.0041 0.9791
-3.0720 -3.8121 -2.0038 0.9791
-2.9334 -3.9186 -2.0034 0.9791
-2.7911 -4.0200 -2.0029 0.9791
-2.3439 -4.2925 -2.0017 0.9791
-2.1887 -4.3724 -2.0012 0.9791
-1.8703 -4.5154 -2.0003 0.9791
-1.5427 -4.6351 -1.9993 0.9791
-1.3759 -4.6860 -1.9988 0.9791
-0.5214 -4.8498 -1.9963 0.9791
-0.3479 -4.8641 -1.9958 0.9791
0.1739 -4.8696 -1.9943 0.9792
0.3475 -4.8591 -1.9938 0.9792
0.6929 -4.8194 -1.9927 0.9792
0.8643 -4.7904 -1.9922 0.9792
1.2032 -4.7142 -1.9912 0.9792
1.3704 -4.6670 -1.9907 0.9792
1.5357 -4.6140 -1.9903 0.9792
1.6990 -4.5552 -1.9898 0.9792
2.0187 -4.4203 -1.9888 0.9792
2.1746 -4.3444 -1.9884 0.9792
2.4779 -4.1763 -1.9874 0.9792
2.6248 -4.0842 -1.9870 0.9792
2.7683 -3.9871 -1.9866 0.9792
2.9082 -3.8849 -1.9862 0.9792
3.0444 -3.7779 -1.9857 0.9792
3.7737 -3.0410 -1.9835 0.9793
4.1655 -2.4715 -1.9823 0.9793
4.2505 -2.3210 -1.9821 0.9793
4.3301 -2.1675 -1.9818 0.9793
4.4042 -2.0113 -1.9816 0.9793
4.4727 -1.8527 -1.9814 0.9793
4.5926 -1.5286 -1.9810 0.9793
4.6439 -1.3636 -1.9809 0.9793
4.7621 -0.8592 -1.9805 0.9793
4.7895 -0.6886 -1.9804 0.9793
4.8108 -0.5172 -1.9803 0.9793
4.8261 -0.3452 -1.9802 0.9793
-1.4571 -0.0521 -0.6354 0.9937
-1.4359 -0.1544 -0.6294 0.9937
-1.3955 -0.2518 -0.6180 0.9938
-1.3722 -0.4029 -0.6233 0.9938
-1.5118 -0.5639 -0.7032 0.9930
-4.2548 -1.7624 -2.0071 0.9801
-4.1888 -1.9130 -2.0069 0.9801
-4.1174 -2.0611 -2.0067 0.9801
-3.7804 -2.6248 -2.0058 0.9801
-3.4767 -3.0126 -2.0049 0.9801
-3.2519 -3.2519 -2.0042 0.9801
-3.0105 -3.4744 -2.0036 0.9801
-2.8841 -3.5790 -2.0032 0.9801
-2.6204 -3.7742 -2.0024 0.9802
-2.3436 -3.9499 -2.0016 0.9802
-1.9067 -4.1751 -2.0004 0.9802
-1.6033 -4.2986 -1.9995 0.9802
-1.2920 -4.4000 -1.9986 0.9802
-1.1338 -4.4423 -1.9981 0.9802
-0.9743 -4.4789 -1.9976 0.9802
-0.4896 -4.5542 -1.9962 0.9802
-0.3267 -4.5676 -1.9957 0.9802
-0.1634 -4.5753 -1.9953 0.9802
-0.0000 -4.5771 -1.9948 0.9802
0.3264 -4.5632 -1.9938 0.9802
0.4889 -4.5476 -1.9933 0.9802
0.6508 -4.5262 -1.9929 0.9802
0.8117 -4.4990 -1.9924 0.9803
0.9715 -4.4661 -1.9919 0.9803
1.1301 -4.4275 -1.9914 0.9803
1.2871 -4.3833 -1.9910 0.9803
1.5958 -4.2784 -1.9901 0.9803
1.7471 -4.2178 -1.9896 0.9803
1.8960 -4.1518 -1.9892 0.9803
2.0426 -4.0805 -1.9887 0.9803
2.1865 -4.0042 -1.9883 0.9803
2.8598 -3.5487 -1.9863 0.9803
3.7387 -2.5958 -1.9836 0.9803
3.8284 -2.4604 -1.9833 0.9803
3.9133 -2.3219 -1.9831 0.9803
4.2610 -1.5893 -1.9820 0.9804
4.3147 -1.4361 -1.9818 0.9804
-1.2447 -0.0000 -0.5761 0.9945
-1.2362 -0.0884 -0.5737 0.9946
-1.2261 -0.1318 -0.5708 0.9946
-1.2124 -0.1743 -0.5670 0.9946
-1.1974 -0.2160 -0.5632 0.9947
-1.2345 -0.5114 -0.6185 0.9941
-3.8752 -1.9398 -2.0060 0.9811
-3.7262 -2.2109 -2.0056 0.9811
-3.5582 -2.4705 -2.0051 0.9811
-3.4673 -2.5956 -2.0048 0.9811
-3.1686 -2.9501 -2.0040 0.9811
-2.8337 -3.2703 -2.0030 0.9811
-2.7147 -3.3688 -2.0027 0.9811
-2.5923 -3.4629 -2.0023 0.9811
-2.2060 -3.7182 -2.0012 0.9811
-1.9344 -3.8645 -2.0004 0.9811
-1.7949 -3.9303 -2.0000 0.9811
-0.7660 -4.2457 -1.9970 0.9812
-0.6138 -4.2694 -1.9966 0.9812
0.3073 -4.2965 -1.9938 0.9812
0.4603 -4.2818 -1.9934 0.9812
0.7643 -4.2362 -1.9925 0.9812
0.9148 -4.2052 -1.9921 0.9812
1.3582 -4.0806 -1.9907 0.9812
1.7855 -3.9096 -1.9895 0.9812
1.9234 -3.8426 -1.9891 0.9812
2.0590 -3.7707 -1.9886 0.9812
2.5726 -3.4366 -1.9871 0.9813
2.6932 -3.3420 -1.9867 0.9813
2.9237 -3.1403 -1.9861 0.9813
3.0334 -3.0334 -1.9857 0.9813
3.1393 -2.9228 -1.9854 0.9813
3.2411 -2.8084 -1.9851 0.9813
3.5212 -2.4448 -1.9842 0.9813
3.6857 -2.1868 -1.9837 0.9813
3.8314 -1.9179 -1.9833 0.9813
3.9577 -1.6394 -1.9829 0.9813
4.0639 -1.3526 -1.9826 0.9813
4.1844 -0.9103 -1.9822 0.9813
4.2140 -0.7603 -1.9821 0.9813
4.2572 -0.4577 -1.9819 0.9813
4.2707 -0.3055 -1.9819 0.9813
-1.0803 -0.0386 -0.5302 0.9952
-1.0422 -0.2267 -0.5232 0.9953
-1.0307 -0.2631 -0.5218 0.9953
-1.0175 -0.2987 -0.5202 0.9953
-1.0025 -0.3337 -0.5183 0.9953
-1.0119 -0.3775 -0.5298 0.9952
-1.0290 -0.4262 -0.5463 0.9951
-1.0588 -0.5300 -0.5808 0.9947
-3.5877 -1.9591 -2.0051 0.9820
-3.5152 -2.0857 -2.0049 0.9820
-3.4381 -2.2096 -2.0047 0.9820
-3.3567 -2.3306 -2.0045 0.9820
-3.2709 -2.4486 -2.0042 0.9820
-3.0871 -2.6750 -2.0037 0.9820
-2.8876 -2.8876 -2.0031 0.9820
-2.6734 -3.0853 -2.0025 0.9820
-2.4457 -3.2671 -2.0019 0.9820
-2.3271 -3.3517 -2.0015 0.9820
-2.2056 -3.4321 -2.0012 0.9820
-2.0814 -3.5080 -2.0008 0.9820
-1.9545 -3.5794 -2.0005 0.9820
-1.8251 -3.6462 -2.0001 0.9820
-1.6935 -3.7083 -1.9997 0.9820
-1.5598 -3.7656 -1.9993 0.9820
-0.8655 -3.9787 -1.9973 0.9820
-0.5792 -4.0286 -1.9964 0.9820
-0.4350 -4.0458 -1.9960 0.9820
-0.1452 -4.0648 -1.9952 0.9820
0.4344 -4.0406 -1.9935 0.9821
0.5782 -4.0217 -1.9930 0.9821
0.7213 -3.9977 -1.9926 0.9821
0.8633 -3.9685 -1.9922 0.9821
1.5526 -3.7483 -1.9901 0.9821
1.6851 -3.6898 -1.9897 0.9821
1.8154 -3.6266 -1.9894 0.9821
1.9433 -3.5588 -1.9890 0.9821
2.0687 -3.4865 -1.9886 0.9821
2.3113 -3.3289 -1.9879 0.9821
2.5420 -3.1544 -1.9872 0.9821
2.6525 -3.0612 -1.9868 0.9821
2.7596 -2.9641 -1.9865 0.9821
3.0592 -2.6509 -1.9856 0.9821
3.3237 -2.3077 -1.9848 0.9821
3.4036 -2.1874 -1.9846 0.9821
3.4791 -2.0642 -1.9843 0.9821
3.5501 -1.9385 -1.9841 0.9821
3.6167 -1.8104 -1.9839 0.9821
3.6787 -1.6800 -1.9837 0.9821
3.7359 -1.5475 -1.9835 0.9821
3.7884 -1.4130 -1.9834 0.9821
3.9170 -0.9998 -1.9830 0.9822
3.9779 -0.7177 -1.9828 0.9822
-0.9838 -0.1058 -0.5133 0.9956
-0.9715 -0.1753 -0.5121 0.9956
-0.9524 -0.2431 -0.5099 0.9956
-0.9404 -0.2761 -0.5085 0.9956
-0.9208 -0.3435 -0.5098 0.9956
-0.9416 -0.4713 -0.5463 0.9953
-3.3227 -1.9715 -2.0044 0.9827
-3.0920 -2.3146 -2.0037 0.9827
-3.0070 -2.4232 -2.0035 0.9827
-2.8257 -2.6309 -2.0029 0.9828
-2.7297 -2.7297 -2.0027 0.9828
-2.6301 -2.8250 -2.0024 0.9828
-2.5272 -2.9166 -2.0021 0.9828
-2.4212 -3.0045 -2.0018 0.9828
-2.3120 -3.0885 -2.0015 0.9828
-2.2000 -3.1686 -2.0011 0.9828
-2.0851 -3.2445 -2.0008 0.9828
-1.8477 -3.3839 -2.0001 0.9828
-1.7254 -3.4470 -1.9998 0.9828
-1.3463 -3.6097 -1.9987 0.9828
-1.0850 -3.6952 -1.9979 0.9828
-0.5476 -3.8090 -1.9963 0.9828
-0.4112 -3.8253 -1.9959 0.9828
-0.2744 -3.8368 -1.9955 0.9828
0.0000 -3.8450 -1.9947 0.9828
0.1372 -3.8418 -1.9943 0.9828
0.4108 -3.8207 -1.9935 0.9828
0.5468 -3.8028 -1.9931 0.9828
0.8163 -3.7526 -1.9923 0.9828
1.0815 -3.6834 -1.9915 0.9828
1.5935 -3.4893 -1.9900 0.9829
1.8377 -3.3655 -1.9893 0.9829
1.9563 -3.2972 -1.9889 0.9829
2.2964 -3.0676 -1.9879 0.9829
2.7079 -2.7079 -1.9867 0.9829
2.9806 -2.4019 -1.9858 0.9829
3.2905 -1.9523 -1.9849 0.9829
3.4207 -1.7123 -1.9845 0.9829
3.5335 -1.4636 -1.9841 0.9829
3.6284 -1.2076 -1.9838 0.9829
3.6689 -1.0773 -1.9837 0.9829
3.7360 -0.8127 -1.9835 0.9829
3.7625 -0.6788 -1.9834 0.9829
3.8204 -0.1364 -1.9832 0.9829
-0.9182 -0.0000 -0.5029 0.9958
-0.9077 -0.1305 -0.5022 0.9958
-0.9011 -0.1626 -0.5015 0.9958
-0.8837 -0.2256 -0.4995 0.9958
-0.8727 -0.2563 -0.4982 0.9959
-0.8603 -0.2864 -0.4966 0.9959
-0.8507 -0.4645 -0.5309 0.9956
-0.8524 -0.5058 -0.5429 0.9955
-3.0775 -1.9778 -2.0036 0.9835
-2.9279 -2.1919 -2.0032 0.9835
-2.8475 -2.2947 -2.0030 0.9835
-2.7635 -2.3946 -2.0027 0.9835
-2.6759 -2.4914 -2.0025 0.9835
-2.1895 -2.9249 -2.0011 0.9835
-1.5163 -3.3202 -1.9991 0.9835
-1.2751 -3.4187 -1.9984 0.9835
-1.1521 -3.4614 -1.9981 0.9835
-1.0276 -3.4997 -1.9977 0.9835
-0.9019 -3.5335 -1.9973 0.9835
-0.7750 -3.5628 -1.9970 0.9835
-0.2599 -3.6341 -1.9955 0.9835
0.0000 -3.6420 -1.9947 0.9835
1.3908 -3.3578 -1.9906 0.9836
1.6263 -3.2488 -1.9899 0.9836
1.8533 -3.1235 -1.9892 0.9836
1.9632 -3.0549 -1.9889 0.9836
2.2775 -2.8262 -1.9879 0.9836
2.3765 -2.7427 -1.9876 0.9836
2.4725 -2.6557 -1.9873 0.9836
2.6550 -2.4719 -1.9868 0.9836
2.9783 -2.0678 -1.9858 0.9836
3.0498 -1.9600 -1.9856 0.9836
3.2964 -1.5054 -1.9848 0.9836
3.4377 -1.1442 -1.9844 0.9836
3.5397 -0.7700 -1.9841 0.9836
3.5854 -0.5155 -1.9839 0.9836
3.6014 -0.3872 -1.9839 0.9836
3.6128 -0.2584 -1.9838 0.9836
-0.8550 -0.0000 -0.4936 0.9961
-0.8530 -0.0610 -0.4938 0.9961
-0.8499 -0.0914 -0.4935 0.9961
-0.8453 -0.1215 -0.4930 0.9961
-0.8318 -0.1810 -0.4915 0.9961
-0.8128 -0.2387 -0.4891 0.9961
-0.7809 -0.3567 -0.4957 0.9960
-0.7806 -0.3908 -0.5040 0.9960
-0.7750 -0.4599 -0.5203 0.9958
-0.7696 -0.4946 -0.5282 0.9958
-0.7634 -0.5301 -0.5366 0.9957
-2.6210 -2.2711 -2.0023 0.9841
-2.5380 -2.3630 -2.0021 0.9841
-2.3623 -2.5374 -2.0016 0.9841
-2.2700 -2.6197 -2.0013 0.9841
-2.1747 -2.6987 -2.0010 0.9841
-2.0767 -2.7742 -2.0008 0.9841
-1.9761 -2.8462 -2.0005 0.9841
-1.7675 -2.9790 -1.9999 0.9841
-1.6598 -3.0397 -1.9995 0.9841
-1.5500 -3.0965 -1.9992 0.9841
-1.4382 -3.1493 -1.9989 0.9841
-1.2095 -3.2428 -1.9982 0.9841
-1.0928 -3.2834 -1.9979 0.9841
-0.9748 -3.3197 -1.9975 0.9841
-0.8555 -3.3518 -1.9972 0.9841
-0.6140 -3.4031 -1.9965 0.9842
-0.3695 -3.4370 -1.9958 0.9842
-0.2465 -3.4474 -1.9954 0.9842
0.2464 -3.4449 -1.9940 0.9842
0.7336 -3.3723 -1.9925 0.9842
0.8533 -3.3434 -1.9922 0.9842
0.9720 -3.3102 -1.9918 0.9842
1.0893 -3.2728 -1.9915 0.9842
1.2052 -3.2313 -1.9911 0.9842
1.3196 -3.1857 -1.9908 0.9842
1.4322 -3.1360 -1.9904 0.9842
1.5429 -3.0824 -1.9901 0.9842
1.6517 -3.0249 -1.9898 0.9842
1.9646 -2.8296 -1.9889 0.9842
2.4341 -2.4341 -1.9874 0.9842
2.5191 -2.3454 -1.9872 0.9842
2.8259 -1.9621 -1.9863 0.9842
3.0186 -1.6483 -1.9857 0.9842
3.1767 -1.3158 -1.9852 0.9842
3.3308 -0.8501 -1.9847 0.9842
3.3827 -0.6103 -1.9845 0.9842
3.4022 -0.4892 -1.9844 0.9842
3.4348 -0.1227 -1.9843 0.9843
