ply
format ascii 1.0
element vertex 740
property float32 x
property float32 y
property float32 z
property float32 I
end_header
-9.2243 -0.3294 -1.9511 0.9630
-9.2072 -0.6585 -1.9512 0.9630
-9.0239 -1.9630 -1.9521 0.9629
-8.7677 -2.9182 -1.9533 0.9629
-8.6601 -3.2301 -1.9538 0.9629
-8.5417 -3.5381 -1.9543 0.9629
-8.4125 -3.8419 -1.9549 0.9629
-8.2726 -4.1410 -1.9555 0.9629
-7.7911 -5.0071 -1.9577 0.9628
-7.6106 -5.2841 -1.9585 0.9628
-7.2206 -5.8187 -1.9602 0.9628
-7.0116 -6.0756 -1.9611 0.9628
-6.5669 -6.5669 -1.9631 0.9627
-6.0882 -7.0261 -1.9652 0.9627
-3.8810 -8.4983 -1.9748 0.9625
-3.5776 -8.6372 -1.9761 0.9625
-2.6393 -8.9886 -1.9802 0.9624
-1.6669 -9.2389 -1.9844 0.9623
-1.3370 -9.2992 -1.9859 0.9623
-1.0050 -9.3477 -1.9873 0.9623
-0.6712 -9.3844 -1.9887 0.9623
-0.0000 -9.4221 -1.9916 0.9622
0.3365 -9.4230 -1.9931 0.9622
0.6732 -9.4118 -1.9945 0.9622
1.0094 -9.3886 -1.9960 0.9621
1.3448 -9.3533 -1.9974 0.9621
1.6790 -9.3061 -1.9989 0.9621
2.0115 -9.2468 -2.0003 0.9621
3.6340 -8.7732 -2.0073 0.9619
4.2562 -8.5028 -2.0099 0.9619
4.5599 -8.3509 -2.0112 0.9618
5.1505 -8.0143 -2.0137 0.9618
5.4365 -7.8301 -2.0150 0.9618
6.2532 -7.2165 -2.0184 0.9617
6.5103 -6.9925 -2.0195 0.9617
6.9997 -6.5169 -2.0216 0.9617
7.6669 -5.7394 -2.0244 0.9616
7.8701 -5.4643 -2.0253 0.9616
8.4187 -4.5970 -2.0275 0.9615
8.5802 -4.2950 -2.0282 0.9615
8.8700 -3.6741 -2.0294 0.9615
9.1140 -3.0334 -2.0304 0.9615
9.3108 -2.3764 -2.0312 0.9615
9.3911 -2.0429 -2.0315 0.9615
9.4593 -1.7066 -2.0318 0.9615
9.5152 -1.3681 -2.0320 0.9615
9.5587 -1.0277 -2.0322 0.9615
9.5898 -0.6859 -2.0323 0.9615
9.6084 -0.3432 -2.0323 0.9615
-8.3131 -0.2969 -1.9550 0.9664
-8.2976 -0.5934 -1.9551 0.9664
-8.2717 -0.8893 -1.9552 0.9664
-8.1320 -1.7690 -1.9559 0.9664
-7.8035 -2.9106 -1.9574 0.9664
-7.5800 -3.4616 -1.9584 0.9663
-7.3181 -3.9960 -1.9596 0.9663
-7.1731 -4.2560 -1.9603 0.9663
-7.0191 -4.5109 -1.9609 0.9663
-6.8562 -4.7603 -1.9617 0.9663
-6.5043 -5.2415 -1.9632 0.9663
-6.3157 -5.4726 -1.9641 0.9662
-5.9145 -5.9146 -1.9658 0.9662
-5.4828 -6.3275 -1.9677 0.9662
-4.7825 -6.8881 -1.9708 0.9661
-4.5361 -7.0582 -1.9719 0.9661
-4.2837 -7.2197 -1.9730 0.9661
-4.0255 -7.3722 -1.9741 0.9661
-2.9424 -7.8888 -1.9788 0.9660
-2.0862 -8.1735 -1.9825 0.9659
-1.2028 -8.3658 -1.9864 0.9659
-0.9040 -8.4089 -1.9877 0.9658
-0.3023 -8.4630 -1.9903 0.9658
1.2091 -8.4096 -1.9968 0.9657
1.5095 -8.3665 -1.9981 0.9657
2.6916 -8.0870 -2.0031 0.9656
3.2657 -7.8841 -2.0056 0.9655
3.8244 -7.6401 -2.0080 0.9655
4.0970 -7.5031 -2.0092 0.9655
4.3647 -7.3562 -2.0103 0.9655
5.1343 -6.8587 -2.0136 0.9654
5.3786 -6.6745 -2.0146 0.9654
6.0701 -6.0701 -2.0175 0.9653
6.2858 -5.8522 -2.0185 0.9653
7.0661 -4.9061 -2.0217 0.9653
7.5577 -4.1268 -2.0238 0.9652
7.7025 -3.8556 -2.0244 0.9652
7.8374 -3.5792 -2.0250 0.9652
7.9621 -3.2980 -2.0255 0.9652
8.0767 -3.0125 -2.0259 0.9652
8.3571 -2.1330 -2.0271 0.9652
8.4291 -1.8336 -2.0274 0.9652
8.5402 -1.2279 -2.0278 0.9652
8.6237 -0.3080 -2.0281 0.9652
-7.5584 -0.2700 -1.9583 0.9692
-7.5207 -0.8086 -1.9585 0.9692
-7.4453 -1.3433 -1.9588 0.9692
-7.3935 -1.6084 -1.9591 0.9692
-7.1828 -2.3907 -1.9601 0.9692
-6.8908 -3.1469 -1.9614 0.9692
-6.3802 -4.1003 -1.9637 0.9691
-6.0756 -4.5481 -1.9650 0.9691
-5.5611 -5.1775 -1.9673 0.9691
-5.1819 -5.5658 -1.9690 0.9691
-4.7760 -5.9266 -1.9707 0.9690
-4.5635 -6.0962 -1.9717 0.9690
-4.3452 -6.2582 -1.9726 0.9690
-3.6569 -6.6970 -1.9756 0.9690
-2.9247 -7.0609 -1.9788 0.9689
-2.6723 -7.1648 -1.9799 0.9689
-2.4163 -7.2597 -1.9810 0.9689
-1.8944 -7.4220 -1.9833 0.9688
-1.6292 -7.4893 -1.9845 0.9688
-1.0920 -7.5953 -1.9868 0.9688
-0.8207 -7.6339 -1.9880 0.9688
-0.2744 -7.6822 -1.9903 0.9687
-0.0000 -7.6916 -1.9915 0.9687
0.2747 -7.6913 -1.9927 0.9687
0.8237 -7.6612 -1.9950 0.9687
1.9100 -7.4835 -1.9997 0.9686
2.1772 -7.4148 -2.0009 0.9686
2.4418 -7.3365 -2.0020 0.9686
3.2174 -7.0451 -2.0053 0.9685
3.4687 -6.9295 -2.0064 0.9685
4.1960 -6.5291 -2.0095 0.9684
4.4285 -6.3783 -2.0105 0.9684
4.6556 -6.2192 -2.0115 0.9684
5.3009 -5.6936 -2.0142 0.9684
5.5031 -5.5031 -2.0150 0.9684
5.8864 -5.1006 -2.0167 0.9683
6.2399 -4.6711 -2.0182 0.9683
6.4048 -4.4470 -2.0188 0.9683
6.7100 -3.9812 -2.0201 0.9683
6.8498 -3.7403 -2.0207 0.9683
7.1028 -3.2438 -2.0218 0.9683
7.2158 -2.9889 -2.0222 0.9682
7.3194 -2.7300 -2.0226 0.9682
7.5731 -1.9329 -2.0237 0.9682
7.6382 -1.6616 -2.0239 0.9682
7.7388 -1.1127 -2.0243 0.9682
7.7741 -0.8358 -2.0244 0.9682
7.8144 -0.2791 -2.0246 0.9682
-6.9227 -0.2473 -1.9610 0.9716
-6.9097 -0.4942 -1.9611 0.9716
-6.8578 -0.9860 -1.9613 0.9716
-6.7714 -1.4730 -1.9618 0.9716
-6.7154 -1.7140 -1.9620 0.9716
-6.6509 -1.9529 -1.9623 0.9716
-6.5781 -2.1894 -1.9627 0.9716
-6.4077 -2.6542 -1.9634 0.9716
-6.3103 -2.8818 -1.9639 0.9716
-6.0917 -3.3263 -1.9648 0.9716
-5.9707 -3.5426 -1.9654 0.9716
-5.8422 -3.7545 -1.9660 0.9715
-5.7062 -3.9619 -1.9666 0.9715
-5.2553 -4.5538 -1.9686 0.9715
-5.0913 -4.7402 -1.9693 0.9715
-4.9207 -4.9208 -1.9700 0.9715
-4.7438 -5.0952 -1.9708 0.9715
-4.5608 -5.2635 -1.9716 0.9715
-4.3719 -5.4252 -1.9724 0.9715
-3.9772 -5.7283 -1.9742 0.9714
-3.5617 -6.0029 -1.9760 0.9714
-3.3468 -6.1291 -1.9769 0.9714
-2.9038 -6.3585 -1.9789 0.9714
-2.2108 -6.6425 -1.9819 0.9713
-0.7507 -6.9829 -1.9882 0.9712
-0.5013 -7.0091 -1.9893 0.9712
0.0000 -7.0346 -1.9914 0.9712
0.2512 -7.0339 -1.9925 0.9712
0.7532 -7.0057 -1.9947 0.9711
1.0033 -6.9781 -1.9958 0.9711
1.2524 -6.9416 -1.9968 0.9711
1.5002 -6.8961 -1.9979 0.9711
2.4715 -6.6262 -2.0021 0.9710
2.7078 -6.5371 -2.0031 0.9710
3.8346 -5.9668 -2.0079 0.9709
4.0470 -5.8287 -2.0088 0.9709
4.4563 -5.5300 -2.0105 0.9709
4.6528 -5.3696 -2.0114 0.9709
4.8434 -5.2022 -2.0122 0.9709
5.0279 -5.0280 -2.0130 0.9709
5.2061 -4.8471 -2.0137 0.9709
5.3778 -4.6599 -2.0144 0.9709
5.5426 -4.4665 -2.0151 0.9708
5.7003 -4.2673 -2.0158 0.9708
5.9939 -3.8521 -2.0170 0.9708
6.2568 -3.4165 -2.0181 0.9708
6.3763 -3.1918 -2.0186 0.9708
6.4877 -2.9628 -2.0191 0.9708
6.5907 -2.7300 -2.0195 0.9708
6.9167 -1.7654 -2.0208 0.9708
7.0265 -1.2677 -2.0213 0.9708
7.0678 -1.0162 -2.0214 0.9708
7.1000 -0.7633 -2.0215 0.9708
-6.3831 -0.0000 -1.9633 0.9736
-6.3792 -0.2278 -1.9633 0.9736
-6.3672 -0.4554 -1.9634 0.9736
-6.3193 -0.9086 -1.9637 0.9736
-6.1285 -1.7995 -1.9646 0.9736
-6.0613 -2.0174 -1.9649 0.9736
-5.9041 -2.4455 -1.9656 0.9736
-4.9863 -4.0182 -1.9697 0.9736
-4.2010 -4.8482 -1.9731 0.9735
-4.0268 -4.9970 -1.9739 0.9735
-3.8474 -5.1396 -1.9747 0.9735
-3.6630 -5.2758 -1.9755 0.9735
-3.4738 -5.4054 -1.9763 0.9735
-3.2801 -5.5283 -1.9772 0.9735
-3.0820 -5.6444 -1.9780 0.9734
-2.8799 -5.7533 -1.9789 0.9734
-2.2515 -6.0365 -1.9816 0.9734
-2.0356 -6.1159 -1.9826 0.9734
-1.8169 -6.1877 -1.9835 0.9734
-1.5956 -6.2516 -1.9845 0.9734
-1.3721 -6.3076 -1.9855 0.9733
-0.9196 -6.3958 -1.9874 0.9733
-0.6911 -6.4277 -1.9884 0.9733
0.4623 -6.4644 -1.9934 0.9732
0.6931 -6.4470 -1.9944 0.9732
1.1524 -6.3874 -1.9964 0.9732
1.3803 -6.3453 -1.9973 0.9732
1.6067 -6.2951 -1.9983 0.9732
2.2737 -6.0960 -2.0012 0.9731
2.4910 -6.0138 -2.0021 0.9731
2.7053 -5.9237 -2.0030 0.9731
3.3274 -5.6080 -2.0057 0.9731
3.5269 -5.4880 -2.0065 0.9731
3.7221 -5.3609 -2.0074 0.9731
3.9127 -5.2267 -2.0082 0.9730
4.2789 -4.9381 -2.0097 0.9730
4.9450 -4.2849 -2.0125 0.9730
5.0964 -4.1070 -2.0132 0.9730
5.2413 -3.9236 -2.0138 0.9730
5.5110 -3.5417 -2.0149 0.9730
5.6353 -3.3436 -2.0154 0.9730
5.7525 -3.1411 -2.0159 0.9729
6.0591 -2.5098 -2.0172 0.9729
6.1459 -2.2923 -2.0175 0.9729
6.2248 -2.0718 -2.0179 0.9729
6.3584 -1.6229 -2.0184 0.9729
6.4593 -1.1654 -2.0188 0.9729
6.4972 -0.9342 -2.0189 0.9729
6.5479 -0.4683 -2.0191 0.9729
-5.9125 0.0000 -1.9653 0.9754
-5.8977 -0.4218 -1.9654 0.9754
-5.8533 -0.8416 -1.9657 0.9754
-5.8200 -1.0500 -1.9658 0.9754
-5.6763 -1.6667 -1.9665 0.9754
-5.3850 -2.4593 -1.9678 0.9754
-5.2949 -2.6504 -1.9682 0.9754
-5.1980 -2.8383 -1.9687 0.9753
-5.0946 -3.0228 -1.9691 0.9753
-4.9847 -3.2035 -1.9696 0.9753
-4.8685 -3.3802 -1.9701 0.9753
-4.7460 -3.5528 -1.9707 0.9753
-4.6175 -3.7211 -1.9712 0.9753
-4.4831 -3.8846 -1.9718 0.9753
-4.1973 -4.1972 -1.9731 0.9753
-4.0461 -4.3458 -1.9738 0.9753
-3.8898 -4.4891 -1.9744 0.9753
-3.7284 -4.6267 -1.9752 0.9753
-3.3914 -4.8845 -1.9766 0.9752
-3.0367 -5.1180 -1.9782 0.9752
-2.4752 -5.4200 -1.9806 0.9752
-1.2699 -5.8377 -1.9859 0.9751
-0.8510 -5.9188 -1.9877 0.9751
-0.6395 -5.9481 -1.9886 0.9751
-0.4270 -5.9699 -1.9895 0.9751
-0.2137 -5.9842 -1.9904 0.9751
0.8541 -5.9407 -1.9950 0.9750
1.0661 -5.9092 -1.9959 0.9750
1.6940 -5.7691 -1.9986 0.9750
1.8996 -5.7075 -1.9995 0.9750
2.1030 -5.6385 -2.0004 0.9750
2.6971 -5.3882 -2.0029 0.9749
3.2616 -5.0752 -2.0053 0.9749
3.7896 -4.7027 -2.0076 0.9749
4.2750 -4.2750 -2.0096 0.9748
4.4263 -4.1210 -2.0103 0.9748
4.8457 -3.6274 -2.0121 0.9748
4.9734 -3.4531 -2.0126 0.9748
5.2096 -3.0910 -2.0136 0.9748
5.4192 -2.7127 -2.0144 0.9748
5.5136 -2.5180 -2.0148 0.9748
5.6812 -2.1190 -2.0155 0.9748
5.8195 -1.7088 -2.0161 0.9748
5.8774 -1.5001 -2.0163 0.9748
5.9705 -1.0772 -2.0167 0.9748
6.0056 -0.8635 -2.0168 0.9747
6.0329 -0.6486 -2.0169 0.9747
6.0524 -0.4329 -2.0170 0.9747
-5.4870 -0.3924 -1.9672 0.9769
-5.4698 -0.5881 -1.9673 0.9769
-5.4456 -0.7830 -1.9674 0.9769
-5.4146 -0.9769 -1.9676 0.9769
-5.3768 -1.1696 -1.9677 0.9769
-5.3322 -1.3610 -1.9680 0.9769
-5.0096 -2.2878 -1.9694 0.9769
-4.8355 -2.6404 -1.9702 0.9769
-4.1700 -3.6133 -1.9732 0.9768
-3.7633 -4.0421 -1.9750 0.9768
-3.3129 -4.4256 -1.9769 0.9768
-2.9909 -4.6539 -1.9783 0.9768
-2.8239 -4.7595 -1.9791 0.9768
-2.6533 -4.8591 -1.9798 0.9768
-2.4791 -4.9526 -1.9806 0.9767
-2.1211 -5.1208 -1.9821 0.9767
-1.7518 -5.2634 -1.9837 0.9767
-1.5635 -5.3247 -1.9846 0.9767
-1.3730 -5.3794 -1.9854 0.9767
-1.1806 -5.4272 -1.9862 0.9767
-0.9866 -5.4683 -1.9871 0.9767
-0.7911 -5.5023 -1.9879 0.9767
-0.5945 -5.5294 -1.9887 0.9767
-0.3969 -5.5495 -1.9896 0.9766
-0.1987 -5.5625 -1.9905 0.9766
0.0000 -5.5685 -1.9913 0.9766
0.3976 -5.5590 -1.9930 0.9766
0.5960 -5.5437 -1.9939 0.9766
1.1867 -5.4552 -1.9964 0.9766
1.3812 -5.4116 -1.9973 0.9766
1.9542 -5.2394 -1.9997 0.9765
2.5060 -5.0064 -2.0021 0.9765
3.0302 -4.7151 -2.0043 0.9765
3.1977 -4.6055 -2.0050 0.9765
3.5205 -4.3687 -2.0064 0.9764
3.6754 -4.2416 -2.0071 0.9764
3.9711 -3.9711 -2.0083 0.9764
4.1115 -3.8280 -2.0089 0.9764
4.2467 -3.6798 -2.0095 0.9764
4.6193 -3.2073 -2.0110 0.9764
4.9390 -2.6969 -2.0124 0.9764
5.0331 -2.5194 -2.0128 0.9764
5.2762 -1.9679 -2.0138 0.9764
5.3438 -1.7786 -2.0140 0.9764
5.4045 -1.5869 -2.0143 0.9764
5.5051 -1.1976 -2.0147 0.9764
5.5447 -1.0004 -2.0148 0.9763
5.5772 -0.8019 -2.0150 0.9763
5.6026 -0.6024 -2.0151 0.9763
5.6207 -0.4020 -2.0151 0.9763
-5.1372 -0.0000 -1.9687 0.9782
-5.1340 -0.1834 -1.9687 0.9782
-5.1244 -0.3665 -1.9688 0.9782
-5.0567 -0.9123 -1.9691 0.9782
-5.0213 -1.0923 -1.9693 0.9782
-4.9797 -1.2710 -1.9695 0.9782
-4.9317 -1.4481 -1.9697 0.9782
-4.8171 -1.7967 -1.9702 0.9782
-4.6781 -2.1364 -1.9708 0.9782
-4.5997 -2.3025 -1.9712 0.9782
-4.5155 -2.4656 -1.9716 0.9782
-4.4255 -2.6258 -1.9720 0.9782
-4.3299 -2.7827 -1.9724 0.9782
-4.2288 -2.9361 -1.9729 0.9782
-3.6450 -3.6450 -1.9754 0.9782
-3.5136 -3.7739 -1.9760 0.9782
-3.3777 -3.8981 -1.9766 0.9781
-3.2374 -4.0174 -1.9772 0.9781
-2.9445 -4.2409 -1.9785 0.9781
-2.7922 -4.3447 -1.9792 0.9781
-2.4769 -4.5360 -1.9805 0.9781
-1.9799 -4.7800 -1.9827 0.9781
-1.8088 -4.8495 -1.9835 0.9781
-1.6351 -4.9128 -1.9842 0.9781
-1.1019 -5.0653 -1.9865 0.9780
-0.5548 -5.1602 -1.9889 0.9780
-0.3704 -5.1788 -1.9897 0.9780
0.3710 -5.1872 -1.9929 0.9780
0.5561 -5.1727 -1.9937 0.9780
0.7407 -5.1516 -1.9945 0.9780
0.9245 -5.1239 -1.9953 0.9779
1.1072 -5.0896 -1.9961 0.9779
1.2886 -5.0488 -1.9968 0.9779
1.6468 -4.9478 -1.9984 0.9779
2.1687 -4.7488 -2.0006 0.9779
2.5037 -4.5852 -2.0020 0.9779
2.8264 -4.3980 -2.0034 0.9779
2.9825 -4.2957 -2.0041 0.9778
3.4279 -3.9560 -2.0060 0.9778
3.8344 -3.5700 -2.0077 0.9778
3.9604 -3.4317 -2.0082 0.9778
4.0814 -3.2891 -2.0087 0.9778
4.3077 -2.9909 -2.0097 0.9778
4.5120 -2.6771 -2.0105 0.9778
4.6932 -2.3493 -2.0113 0.9778
4.8505 -2.0092 -2.0119 0.9778
4.9828 -1.6584 -2.0125 0.9778
5.0394 -1.4797 -2.0127 0.9778
5.0895 -1.2990 -2.0129 0.9778
5.1700 -0.9328 -2.0132 0.9777
5.2003 -0.7477 -2.0133 0.9777
5.2509 -0.1875 -2.0135 0.9777
-4.8106 -0.1718 -1.9701 0.9794
-4.8015 -0.3434 -1.9702 0.9794
-4.7864 -0.5146 -1.9702 0.9794
-4.7381 -0.8548 -1.9705 0.9794
-4.7049 -1.0235 -1.9706 0.9794
-4.6658 -1.1909 -1.9708 0.9794
-4.5134 -1.6834 -1.9715 0.9794
-4.4510 -1.8437 -1.9718 0.9794
-4.3096 -2.1572 -1.9724 0.9794
-3.9618 -2.7508 -1.9740 0.9794
-3.8620 -2.8911 -1.9744 0.9794
-3.7572 -3.0278 -1.9749 0.9794
-3.6477 -3.1607 -1.9754 0.9794
-3.5334 -3.2897 -1.9759 0.9794
-3.4146 -3.4147 -1.9764 0.9793
-3.2915 -3.5354 -1.9769 0.9793
-2.7581 -3.9725 -1.9793 0.9793
-2.3199 -4.2486 -1.9812 0.9793
-2.1675 -4.3302 -1.9819 0.9793
-2.0123 -4.4063 -1.9825 0.9793
-1.6940 -4.5418 -1.9839 0.9793
-1.5313 -4.6010 -1.9846 0.9793
-1.3667 -4.6544 -1.9853 0.9793
-1.2001 -4.7019 -1.9861 0.9792
-1.0319 -4.7435 -1.9868 0.9792
-0.8622 -4.7791 -1.9875 0.9792
-0.5195 -4.8320 -1.9890 0.9792
-0.1736 -4.8604 -1.9905 0.9792
0.3473 -4.8566 -1.9928 0.9792
0.6934 -4.8230 -1.9942 0.9792
0.8655 -4.7970 -1.9950 0.9792
1.0365 -4.7648 -1.9957 0.9791
1.2064 -4.7265 -1.9964 0.9791
1.3748 -4.6821 -1.9972 0.9791
1.5416 -4.6317 -1.9979 0.9791
1.7065 -4.5754 -1.9986 0.9791
2.0300 -4.4451 -2.0000 0.9791
2.3435 -4.2918 -2.0013 0.9791
2.7915 -4.0205 -2.0032 0.9791
2.9341 -3.9195 -2.0038 0.9791
3.0730 -3.8134 -2.0044 0.9791
3.3391 -3.5865 -2.0056 0.9790
3.5884 -3.3409 -2.0066 0.9790
3.7062 -3.2115 -2.0071 0.9790
3.8194 -3.0779 -2.0076 0.9790
3.9277 -2.9403 -2.0080 0.9790
4.0310 -2.7988 -2.0085 0.9790
4.1292 -2.6537 -2.0089 0.9790
4.3096 -2.3532 -2.0096 0.9790
4.4679 -2.0405 -2.0103 0.9790
4.7152 -1.3845 -2.0113 0.9790
4.7621 -1.2155 -2.0115 0.9790
4.8374 -0.8728 -2.0118 0.9790
4.8878 -0.5255 -2.0120 0.9790
4.9035 -0.3507 -2.0120 0.9790
-1.4571 -0.0521 -0.6354 0.9937
-1.4491 -0.1037 -0.6331 0.9937
-1.3688 -0.2978 -0.6105 0.9939
-1.3722 -0.4029 -0.6233 0.9938
-4.1824 -1.7324 -1.9729 0.9804
-3.9751 -2.1706 -1.9739 0.9804
-3.7225 -2.5846 -1.9750 0.9804
-3.6286 -2.7163 -1.9754 0.9804
-3.4271 -2.9696 -1.9763 0.9804
-3.3197 -3.0908 -1.9768 0.9804
-2.8491 -3.5355 -1.9789 0.9804
-2.5911 -3.7319 -1.9800 0.9804
-2.4569 -3.8231 -1.9806 0.9804
-2.1793 -3.9911 -1.9818 0.9804
-1.8902 -4.1390 -1.9830 0.9803
-1.5912 -4.2661 -1.9843 0.9803
-1.2836 -4.3717 -1.9857 0.9803
-1.1272 -4.4162 -1.9864 0.9803
-0.6493 -4.5161 -1.9884 0.9803
-0.4879 -4.5380 -1.9891 0.9803
-0.3257 -4.5541 -1.9898 0.9803
-0.1630 -4.5645 -1.9905 0.9803
0.6511 -4.5288 -1.9940 0.9802
0.8127 -4.5043 -1.9947 0.9802
0.9732 -4.4740 -1.9954 0.9802
1.6022 -4.2957 -1.9981 0.9802
1.7551 -4.2371 -1.9988 0.9802
1.9058 -4.1732 -1.9994 0.9802
2.3432 -3.9492 -2.0013 0.9802
3.0114 -3.4754 -2.0041 0.9801
3.1343 -3.3666 -2.0046 0.9801
3.2533 -3.2533 -2.0052 0.9801
3.4788 -3.0144 -2.0061 0.9801
3.6866 -2.7597 -2.0070 0.9801
3.9627 -2.3512 -2.0081 0.9801
4.3204 -1.6115 -2.0096 0.9801
4.4253 -1.2994 -2.0100 0.9801
4.6019 -0.3292 -2.0107 0.9801
-1.2424 -0.0444 -0.5755 0.9945
-1.2362 -0.0884 -0.5737 0.9946
-1.1974 -0.2160 -0.5632 0.9947
-1.1790 -0.2565 -0.5585 0.9947
-1.1575 -0.2954 -0.5529 0.9947
-1.1330 -0.3327 -0.5466 0.9948
-1.2017 -0.4482 -0.5937 0.9944
-1.2345 -0.5114 -0.6185 0.9941
-3.8797 -1.7718 -1.9743 0.9814
-3.8145 -1.9095 -1.9746 0.9814
-3.7446 -2.0447 -1.9749 0.9814
-3.5904 -2.3074 -1.9756 0.9814
-3.5064 -2.4346 -1.9759 0.9814
-3.4180 -2.5587 -1.9763 0.9814
-3.2281 -2.7972 -1.9772 0.9813
-2.7998 -3.2312 -1.9790 0.9813
-2.5635 -3.4245 -1.9801 0.9813
-2.4403 -3.5148 -1.9806 0.9813
-2.3140 -3.6006 -1.9812 0.9813
-2.0524 -3.7587 -1.9823 0.9813
-1.9175 -3.8307 -1.9829 0.9813
-1.7801 -3.8979 -1.9835 0.9813
-1.3545 -4.0696 -1.9853 0.9813
-1.0614 -4.1585 -1.9866 0.9813
-0.9126 -4.1951 -1.9873 0.9813
-0.3067 -4.2879 -1.9899 0.9812
0.0000 -4.3017 -1.9912 0.9812
0.1536 -4.3004 -1.9919 0.9812
0.4603 -4.2813 -1.9932 0.9812
0.9162 -4.2118 -1.9952 0.9812
1.0663 -4.1777 -1.9958 0.9812
1.2151 -4.1383 -1.9964 0.9812
1.3625 -4.0936 -1.9971 0.9812
1.5082 -4.0437 -1.9977 0.9812
1.6521 -3.9885 -1.9983 0.9812
2.0708 -3.7924 -2.0001 0.9811
2.2055 -3.7171 -2.0007 0.9811
2.4664 -3.5523 -2.0018 0.9811
2.7150 -3.3691 -2.0028 0.9811
2.9499 -3.1684 -2.0038 0.9811
3.0618 -3.0618 -2.0043 0.9811
3.2739 -2.8369 -2.0052 0.9811
3.3738 -2.7188 -2.0056 0.9811
3.4693 -2.5971 -2.0060 0.9811
3.8786 -1.9415 -2.0077 0.9811
3.9460 -1.8021 -2.0080 0.9811
4.0083 -1.6603 -2.0083 0.9811
4.0655 -1.5164 -2.0085 0.9811
4.2055 -1.0734 -2.0091 0.9811
4.2719 -0.7708 -2.0093 0.9810
4.3164 -0.4641 -2.0095 0.9810
4.3303 -0.3097 -2.0095 0.9810
4.3386 -0.1550 -2.0096 0.9810
-1.0769 -0.0770 -0.5296 0.9952
-1.0705 -0.1151 -0.5281 0.9952
-1.0518 -0.1898 -0.5242 0.9952
-1.0422 -0.2267 -0.5232 0.9953
-1.0307 -0.2631 -0.5218 0.9953
-1.0175 -0.2988 -0.5202 0.9953
-1.0025 -0.3337 -0.5183 0.9953
-1.0290 -0.4262 -0.5463 0.9951
-1.0444 -0.4769 -0.5632 0.9949
-1.0588 -0.5300 -0.5808 0.9947
-3.5352 -1.9304 -1.9758 0.9822
-3.4646 -2.0556 -1.9761 0.9822
-3.3102 -2.2983 -1.9768 0.9822
-3.2267 -2.4155 -1.9771 0.9822
-2.8525 -2.8525 -1.9788 0.9822
-2.7495 -2.9531 -1.9792 0.9822
-2.6430 -3.0501 -1.9797 0.9822
-2.5330 -3.1433 -1.9802 0.9822
-2.1842 -3.3987 -1.9817 0.9822
-1.8099 -3.6156 -1.9833 0.9821
-1.2784 -3.8409 -1.9857 0.9821
-1.1408 -3.8852 -1.9863 0.9821
-1.0017 -3.9247 -1.9869 0.9821
-0.7196 -3.9886 -1.9881 0.9821
-0.5770 -4.0130 -1.9887 0.9821
-0.4335 -4.0323 -1.9893 0.9821
-0.2894 -4.0464 -1.9899 0.9821
0.2898 -4.0515 -1.9924 0.9821
0.4343 -4.0398 -1.9931 0.9821
0.5784 -4.0230 -1.9937 0.9821
0.8645 -3.9740 -1.9949 0.9820
1.0061 -3.9418 -1.9955 0.9820
1.6925 -3.7060 -1.9985 0.9820
2.0806 -3.5067 -2.0001 0.9820
2.4455 -3.2668 -2.0017 0.9820
2.5611 -3.1782 -2.0022 0.9820
3.1823 -2.5645 -2.0048 0.9820
3.2725 -2.4498 -2.0052 0.9820
3.3584 -2.3318 -2.0055 0.9819
3.4401 -2.2108 -2.0059 0.9819
3.5174 -2.0870 -2.0062 0.9819
3.7806 -1.5660 -2.0073 0.9819
3.8345 -1.4302 -2.0075 0.9819
3.9275 -1.1532 -2.0079 0.9819
3.9665 -1.0124 -2.0080 0.9819
4.0004 -0.8703 -2.0082 0.9819
4.0291 -0.7270 -2.0083 0.9819
4.0527 -0.5827 -2.0084 0.9819
4.0710 -0.4377 -2.0084 0.9819
4.0841 -0.2921 -2.0085 0.9819
-0.9895 -0.0000 -0.5133 0.9956
-0.9785 -0.1407 -0.5129 0.9956
-0.9715 -0.1753 -0.5121 0.9956
-0.9268 -0.3085 -0.5067 0.9956
-0.9207 -0.3434 -0.5098 0.9956
-0.9326 -0.4259 -0.5319 0.9954
-0.9416 -0.4713 -0.5462 0.9953
-0.9486 -0.5180 -0.5607 0.9951
-3.2772 -1.9445 -1.9769 0.9830
-3.1311 -2.1740 -1.9775 0.9830
-2.9692 -2.3927 -1.9782 0.9830
-2.6980 -2.6980 -1.9794 0.9830
-2.4998 -2.8849 -1.9803 0.9829
-2.2887 -3.0573 -1.9812 0.9829
-2.1786 -3.1378 -1.9817 0.9829
-1.8321 -3.3553 -1.9832 0.9829
-1.4641 -3.5347 -1.9848 0.9829
-1.3374 -3.5857 -1.9854 0.9829
-0.6805 -3.7716 -1.9882 0.9829
-0.5456 -3.7946 -1.9888 0.9829
-0.1370 -3.8346 -1.9906 0.9829
-0.0000 -3.8382 -1.9912 0.9829
0.1370 -3.8369 -1.9918 0.9828
0.2740 -3.8307 -1.9924 0.9828
0.8173 -3.7571 -1.9947 0.9828
0.9512 -3.7266 -1.9953 0.9828
1.0839 -3.6913 -1.9958 0.9828
1.2153 -3.6513 -1.9964 0.9828
1.3452 -3.6066 -1.9970 0.9828
1.4735 -3.5573 -1.9975 0.9828
1.7244 -3.4450 -1.9986 0.9828
1.8468 -3.3821 -1.9991 0.9828
1.9668 -3.3149 -1.9996 0.9828
2.0844 -3.2434 -2.0001 0.9828
2.1994 -3.1677 -2.0006 0.9828
2.3116 -3.0879 -2.0011 0.9828
2.4209 -3.0041 -2.0015 0.9828
2.6302 -2.8250 -2.0024 0.9828
2.7299 -2.7300 -2.0029 0.9828
2.8262 -2.6313 -2.0033 0.9827
3.0078 -2.4239 -2.0040 0.9827
3.0930 -2.3154 -2.0044 0.9827
3.1742 -2.2039 -2.0047 0.9827
3.3244 -1.9725 -2.0053 0.9827
3.3932 -1.8528 -2.0056 0.9827
3.4576 -1.7308 -2.0059 0.9827
3.8301 -0.5507 -2.0074 0.9827
3.8474 -0.4137 -2.0075 0.9827
3.8673 -0.1381 -2.0075 0.9827
-0.9161 -0.0655 -0.5030 0.9958
-0.9127 -0.0981 -0.5028 0.9958
-0.9011 -0.1626 -0.5015 0.9958
-0.8932 -0.1943 -0.5006 0.9958
-0.8837 -0.2255 -0.4995 0.9958
-0.8603 -0.2863 -0.4966 0.9959
-0.8516 -0.4263 -0.5216 0.9957
-0.8507 -0.4645 -0.5309 0.9956
-3.0380 -1.9524 -1.9779 0.9837
-2.9669 -2.0599 -1.9782 0.9837
-2.8919 -2.1649 -1.9786 0.9837
-2.8133 -2.2671 -1.9789 0.9837
-2.7311 -2.3665 -1.9793 0.9837
-2.5563 -2.5563 -1.9800 0.9836
-2.4640 -2.6465 -1.9804 0.9836
-2.3684 -2.7333 -1.9809 0.9836
-2.1683 -2.8966 -1.9817 0.9836
-1.9571 -3.0453 -1.9827 0.9836
-1.6216 -3.2395 -1.9841 0.9836
-1.5053 -3.2961 -1.9846 0.9836
-1.0220 -3.4805 -1.9867 0.9836
-0.3883 -3.6116 -1.9895 0.9836
-0.1297 -3.6321 -1.9906 0.9836
0.1298 -3.6342 -1.9917 0.9836
0.2595 -3.6282 -1.9923 0.9835
0.3889 -3.6177 -1.9928 0.9835
0.5180 -3.6025 -1.9934 0.9835
0.7741 -3.5583 -1.9945 0.9835
1.5152 -3.3178 -1.9977 0.9835
1.6330 -3.2624 -1.9982 0.9835
1.8625 -3.1391 -1.9991 0.9835
2.0827 -2.9996 -2.0001 0.9835
2.1889 -2.9241 -2.0005 0.9835
2.2924 -2.8447 -2.0010 0.9835
2.6761 -2.4915 -2.0026 0.9835
2.7638 -2.3949 -2.0030 0.9835
3.0055 -2.0868 -2.0040 0.9835
3.2127 -1.7543 -2.0048 0.9834
3.2737 -1.6387 -2.0051 0.9834
3.3305 -1.5210 -2.0053 0.9834
3.3830 -1.4013 -2.0056 0.9834
3.4750 -1.1566 -2.0059 0.9834
3.5492 -0.9059 -2.0062 0.9834
3.5795 -0.7787 -2.0063 0.9834
3.6262 -0.5214 -2.0065 0.9834
-0.8548 -0.0305 -0.4938 0.9961
-0.8499 -0.0914 -0.4935 0.9961
-0.8453 -0.1216 -0.4930 0.9961
-0.8318 -0.1810 -0.4915 0.9961
-0.8128 -0.2387 -0.4891 0.9961
-0.7809 -0.3566 -0.4957 0.9960
-0.7806 -0.3908 -0.5040 0.9960
-0.7751 -0.4599 -0.5203 0.9958
-0.7634 -0.5300 -0.5366 0.9957
-2.6697 -2.1514 -1.9795 0.9843
-2.5916 -2.2457 -1.9799 0.9843
-2.4257 -2.4257 -1.9806 0.9843
-2.2474 -2.5936 -1.9814 0.9843
-2.1538 -2.6727 -1.9818 0.9843
-1.9585 -2.8208 -1.9826 0.9843
-1.8570 -2.8896 -1.9831 0.9843
-1.5386 -3.0736 -1.9845 0.9842
-1.4282 -3.1274 -1.9849 0.9842
-1.3160 -3.1771 -1.9854 0.9842
-1.0865 -3.2646 -1.9864 0.9842
-0.9696 -3.3021 -1.9869 0.9842
-0.8513 -3.3354 -1.9875 0.9842
-0.7319 -3.3646 -1.9880 0.9842
-0.6115 -3.3895 -1.9885 0.9842
-0.4903 -3.4100 -1.9890 0.9842
-0.2459 -3.4381 -1.9901 0.9842
0.1231 -3.4475 -1.9917 0.9842
0.2462 -3.4418 -1.9922 0.9842
0.6131 -3.3985 -1.9938 0.9842
0.8545 -3.3478 -1.9948 0.9842
0.9737 -3.3160 -1.9953 0.9842
1.2084 -3.2397 -1.9963 0.9842
1.3235 -3.1954 -1.9968 0.9842
1.6587 -3.0377 -1.9983 0.9841
1.8721 -2.9130 -1.9992 0.9841
1.9753 -2.8449 -1.9996 0.9841
2.0760 -2.7732 -2.0000 0.9841
2.1741 -2.6979 -2.0005 0.9841
2.2695 -2.6191 -2.0009 0.9841
2.3620 -2.5370 -2.0012 0.9841
2.5379 -2.3629 -2.0020 0.9841
2.6211 -2.2712 -2.0023 0.9841
2.7009 -2.1765 -2.0027 0.9841
2.7773 -2.0791 -2.0030 0.9841
2.8502 -1.9789 -2.0033 0.9841
2.9194 -1.8762 -2.0036 0.9841
2.9849 -1.7711 -2.0039 0.9841
3.0466 -1.6636 -2.0041 0.9841
3.1044 -1.5540 -2.0044 0.9841
3.2081 -1.3288 -2.0048 0.9841
3.2538 -1.2136 -2.0050 0.9841
3.2953 -1.0968 -2.0051 0.9841
3.4187 -0.6168 -2.0056 0.9841
3.4386 -0.4944 -2.0057 0.9841
3.4542 -0.3714 -2.0058 0.9841
3.4653 -0.2479 -2.0058 0.9841
3.4720 -0.1240 -2.0058 0.9841
