ply
format ascii 1.0
element vertex 862
property float32 x
property float32 y
property float32 z
property float32 I
end_header
-2.0876 -3.8231 -0.0245 0.9827
-1.5469 -3.7344 -0.0228 0.9840
-0.6475 -3.5889 -0.0205 0.9855
-0.5152 -3.5832 -0.0204 0.9856
-0.3855 -3.5859 -0.0203 0.9857
-0.2567 -3.5885 -0.0203 0.9857
-0.1280 -3.5840 -0.0202 0.9858
0.1330 -3.7236 -0.0210 0.9852
-2.5644 -3.6934 -0.1266 0.9822
-2.3473 -3.6524 -0.1223 0.9828
-2.1452 -3.6156 -0.1184 0.9833
-1.7868 -3.5695 -0.1124 0.9842
-1.6204 -3.5482 -0.1098 0.9845
-1.4612 -3.5277 -0.1075 0.9848
-1.1612 -3.4890 -0.1035 0.9854
-0.6184 -3.4274 -0.0981 0.9862
-0.4908 -3.4138 -0.0971 0.9863
-0.3656 -3.4003 -0.0963 0.9864
0.0000 -3.4599 -0.0974 0.9863
0.1285 -3.5962 -0.1013 0.9857
-2.7634 -3.6915 -0.2339 0.9817
-2.1243 -3.5802 -0.2111 0.9835
-0.8745 -3.4263 -0.1793 0.9859
-0.4866 -3.3846 -0.1734 0.9864
-0.3625 -3.3715 -0.1720 0.9865
-0.1215 -3.4007 -0.1726 0.9865
0.2895 -4.0480 -0.2058 0.9839
-2.9645 -3.6787 -0.3464 0.9812
-2.7305 -3.6475 -0.3341 0.9819
-2.5078 -3.6119 -0.3224 0.9825
-2.2972 -3.5746 -0.3116 0.9831
-2.1037 -3.5456 -0.3023 0.9836
-1.9239 -3.5233 -0.2943 0.9840
-1.5909 -3.4836 -0.2808 0.9848
-1.1406 -3.4271 -0.2648 0.9856
-0.8669 -3.3963 -0.2570 0.9860
-0.6078 -3.3688 -0.2510 0.9864
0.0000 -3.3947 -0.2489 0.9865
0.1240 -3.4728 -0.2548 0.9862
0.2703 -3.7796 -0.2778 0.9849
-3.1812 -3.6713 -0.4664 0.9807
-2.2729 -3.5367 -0.4036 0.9832
-1.9058 -3.4902 -0.3818 0.9841
-1.7373 -3.4706 -0.3726 0.9845
-1.4224 -3.4340 -0.3568 0.9852
-1.2743 -3.4165 -0.3501 0.9855
-1.1308 -3.3973 -0.3438 0.9857
-0.9928 -3.3810 -0.3383 0.9859
-0.8593 -3.3668 -0.3336 0.9861
-0.7294 -3.3530 -0.3294 0.9863
-0.6026 -3.3401 -0.3258 0.9865
-0.2371 -3.3149 -0.3191 0.9867
-0.1191 -3.3351 -0.3204 0.9867
0.2623 -3.6675 -0.3530 0.9853
-3.9111 -3.9111 -0.6570 0.9780
-3.1149 -3.3457 -0.5430 0.9818
-3.1357 -3.6188 -0.5688 0.9809
-2.6667 -3.5623 -0.5286 0.9822
-2.2490 -3.4994 -0.4941 0.9834
-1.8880 -3.4576 -0.4680 0.9843
-1.7212 -3.4386 -0.4568 0.9846
-1.2631 -3.3864 -0.4293 0.9855
-0.7232 -3.3244 -0.4041 0.9864
-0.4744 -3.2996 -0.3960 0.9867
-0.3538 -3.2912 -0.3932 0.9868
-0.2352 -3.2891 -0.3917 0.9868
-0.1180 -3.3030 -0.3926 0.9868
-0.0000 -3.3362 -0.3963 0.9867
-4.3195 -3.7428 -0.8098 0.9772
-3.6488 -3.6487 -0.7311 0.9794
-2.6356 -3.5208 -0.6232 0.9824
-2.4267 -3.4952 -0.6029 0.9830
-2.2265 -3.4645 -0.5835 0.9835
-1.5482 -3.3901 -0.5281 0.9851
-1.3974 -3.3737 -0.5174 0.9854
-0.8445 -3.3089 -0.4839 0.9863
-0.7170 -3.2961 -0.4779 0.9865
-0.4704 -3.2720 -0.4684 0.9867
-0.3511 -3.2656 -0.4654 0.9868
-0.2334 -3.2635 -0.4636 0.9869
0.1195 -3.3468 -0.4745 0.9866
0.4338 -4.0349 -0.5750 0.9837
-3.5880 -3.5880 -0.8359 0.9796
-3.3106 -3.5559 -0.8004 0.9805
-3.0580 -3.5291 -0.7693 0.9812
-2.8236 -3.5038 -0.7413 0.9819
-2.2047 -3.4306 -0.6718 0.9836
-1.8531 -3.3937 -0.6370 0.9844
-1.5344 -3.3598 -0.6085 0.9851
-1.3852 -3.3441 -0.5963 0.9854
-1.1018 -3.3103 -0.5748 0.9860
-0.8373 -3.2804 -0.5577 0.9864
-0.7109 -3.2681 -0.5510 0.9865
-0.3483 -3.2402 -0.5369 0.9869
-0.2316 -3.2382 -0.5348 0.9869
-0.1158 -3.2413 -0.5343 0.9869
0.0000 -3.2792 -0.5402 0.9868
0.2494 -3.4866 -0.5759 0.9859
-3.5574 -3.5574 -0.9456 0.9797
-3.0208 -3.4862 -0.8670 0.9814
-2.7899 -3.4621 -0.8357 0.9821
-2.1832 -3.3971 -0.7590 0.9837
-1.8360 -3.3623 -0.7201 0.9845
-1.2302 -3.2983 -0.6617 0.9858
-1.0923 -3.2819 -0.6501 0.9860
-0.9589 -3.2657 -0.6397 0.9862
-0.8301 -3.2522 -0.6309 0.9864
-0.5825 -3.2286 -0.6166 0.9867
-0.4626 -3.2175 -0.6110 0.9869
-0.2298 -3.2131 -0.6055 0.9870
0.0000 -3.2572 -0.6122 0.9868
0.2471 -3.4544 -0.6510 0.9860
-9.5356 0.0000 -2.0156 0.9618
-9.5290 -0.3403 -2.0155 0.9618
-9.3128 -2.0259 -2.0146 0.9618
-9.2333 -2.3567 -2.0143 0.9618
-9.1420 -2.6843 -2.0140 0.9618
-9.0389 -3.0084 -2.0137 0.9618
-8.9242 -3.3286 -2.0133 0.9618
-8.7981 -3.6443 -2.0130 0.9618
-8.5122 -4.2609 -2.0122 0.9618
-8.3529 -4.5610 -2.0117 0.9618
-8.1828 -4.8551 -2.0112 0.9618
-7.6112 -5.6976 -2.0097 0.9619
-4.6138 -3.7181 -1.2525 0.9761
-4.1794 -3.6214 -1.1689 0.9776
-3.2803 -3.5233 -1.0176 0.9805
-2.3573 -3.3952 -0.8737 0.9832
-2.1634 -3.3664 -0.8459 0.9838
-1.9861 -3.3474 -0.8227 0.9842
-1.6596 -3.3155 -0.7837 0.9850
-1.5071 -3.3001 -0.7669 0.9853
-1.2195 -3.2696 -0.7376 0.9858
-1.0830 -3.2538 -0.7249 0.9861
-0.5776 -3.2015 -0.6877 0.9868
-0.1146 -3.2093 -0.6788 0.9870
0.0000 -3.2396 -0.6848 0.9868
0.1170 -3.2753 -0.6928 0.9867
1.3386 -9.3103 -1.9883 0.9623
1.6695 -9.2532 -1.9875 0.9623
2.3236 -9.1038 -1.9861 0.9623
2.9650 -8.9085 -1.9846 0.9623
3.5905 -8.6683 -1.9833 0.9624
4.1970 -8.3845 -1.9820 0.9624
4.4922 -8.2267 -1.9813 0.9624
5.3410 -7.6924 -1.9795 0.9624
5.8728 -7.2877 -1.9784 0.9625
6.1276 -7.0716 -1.9779 0.9625
6.3745 -6.8466 -1.9774 0.9625
6.6132 -6.6131 -1.9769 0.9625
6.8434 -6.3714 -1.9764 0.9625
7.2773 -5.8644 -1.9756 0.9625
7.4805 -5.5998 -1.9752 0.9625
7.6742 -5.3283 -1.9748 0.9625
7.8581 -5.0501 -1.9745 0.9625
8.0320 -4.7656 -1.9742 0.9625
8.8552 -2.9473 -1.9728 0.9626
8.9541 -2.6292 -1.9726 0.9626
9.1179 -1.9835 -1.9724 0.9626
9.1826 -1.6567 -1.9724 0.9626
9.2358 -1.3279 -1.9723 0.9626
-8.5669 0.0000 -2.0134 0.9654
-8.5441 -0.6111 -2.0132 0.9654
-8.4775 -1.2189 -2.0129 0.9654
-8.4277 -1.5205 -2.0127 0.9654
-8.2959 -2.1174 -2.0122 0.9654
-8.0185 -2.9908 -2.0114 0.9654
-7.9054 -3.2745 -2.0110 0.9655
-7.7821 -3.5539 -2.0107 0.9655
-7.6488 -3.8287 -2.0103 0.9655
-7.5058 -4.0985 -2.0099 0.9655
-7.3532 -4.3629 -2.0095 0.9655
-7.0201 -4.8741 -2.0086 0.9655
-3.8380 -3.5733 -1.2325 0.9787
-3.2761 -3.5188 -1.1299 0.9804
-2.5680 -3.4305 -1.0071 0.9825
-2.3609 -3.4004 -0.9729 0.9831
-2.1640 -3.3672 -0.9407 0.9837
-1.8110 -3.3165 -0.8881 0.9846
-1.6488 -3.2938 -0.8657 0.9850
-1.4944 -3.2722 -0.8454 0.9853
-1.3488 -3.2563 -0.8284 0.9856
-1.2089 -3.2411 -0.8130 0.9859
-0.8168 -3.2003 -0.7763 0.9865
-0.5728 -3.1746 -0.7581 0.9868
-0.4552 -3.1664 -0.7518 0.9869
-0.1141 -3.1951 -0.7514 0.9869
0.1163 -3.2573 -0.7660 0.9867
0.2431 -3.3991 -0.8009 0.9861
1.2043 -8.3761 -1.9888 0.9658
1.5020 -8.3249 -1.9881 0.9658
2.0907 -8.1912 -1.9868 0.9659
2.3809 -8.1087 -1.9862 0.9659
2.9515 -7.9132 -1.9849 0.9659
3.7770 -7.5456 -1.9831 0.9659
4.0428 -7.4038 -1.9826 0.9659
4.3033 -7.2528 -1.9820 0.9659
4.5582 -7.0926 -1.9815 0.9660
4.8071 -6.9236 -1.9810 0.9660
5.0499 -6.7459 -1.9805 0.9660
5.7379 -6.1630 -1.9790 0.9660
6.9088 -4.7968 -1.9767 0.9660
7.0745 -4.5465 -1.9764 0.9660
7.2312 -4.2904 -1.9761 0.9660
7.3787 -4.0291 -1.9759 0.9660
7.5169 -3.7627 -1.9756 0.9660
7.7645 -3.2162 -1.9752 0.9661
7.9729 -2.6536 -1.9749 0.9661
8.0620 -2.3672 -1.9747 0.9661
8.1409 -2.0779 -1.9746 0.9661
8.2095 -1.7859 -1.9746 0.9661
8.3798 -0.5993 -1.9745 0.9661
-7.7639 -0.2773 -2.0115 0.9684
-7.7487 -0.5542 -2.0114 0.9684
-7.6883 -1.1054 -2.0111 0.9684
-7.6433 -1.3790 -2.0109 0.9684
-7.5885 -1.6508 -2.0107 0.9684
-7.4496 -2.1874 -2.0103 0.9684
-7.2726 -2.7125 -2.0097 0.9684
-7.1701 -2.9700 -2.0094 0.9684
-6.9376 -3.4727 -2.0088 0.9685
-6.8081 -3.7175 -2.0084 0.9685
-6.6698 -3.9573 -2.0080 0.9685
-6.5230 -4.1920 -2.0076 0.9685
-6.3679 -4.4213 -2.0072 0.9685
-6.2047 -4.6447 -2.0068 0.9685
-4.1797 -3.6217 -1.4320 0.9774
-3.8382 -3.5735 -1.3578 0.9786
-3.6740 -3.6740 -1.3453 0.9788
-3.2731 -3.5155 -1.2437 0.9803
-2.7908 -3.4632 -1.1516 0.9818
-2.3646 -3.4056 -1.0735 0.9830
-2.1668 -3.3716 -1.0377 0.9836
-1.9816 -3.3399 -1.0055 0.9841
-1.3453 -3.2478 -0.9102 0.9856
-1.0723 -3.2218 -0.8792 0.9861
-0.6897 -3.1707 -0.8401 0.9867
-0.5689 -3.1534 -0.8296 0.9868
-0.4522 -3.1448 -0.8226 0.9870
-0.3386 -3.1498 -0.8202 0.9870
-0.2256 -3.1545 -0.8188 0.9870
-0.1136 -3.1808 -0.8241 0.9869
0.0000 -3.2095 -0.8310 0.9868
0.2409 -3.3677 -0.8742 0.9861
1.0934 -7.6048 -1.9893 0.9688
1.3637 -7.5587 -1.9887 0.9688
1.8983 -7.4376 -1.9875 0.9688
2.1620 -7.3630 -1.9869 0.9688
3.1842 -6.9725 -1.9847 0.9688
3.6716 -6.7240 -1.9836 0.9688
3.9083 -6.5870 -1.9831 0.9688
4.1399 -6.4417 -1.9826 0.9689
4.5867 -6.1271 -1.9817 0.9689
4.8014 -5.9581 -1.9812 0.9689
5.0099 -5.7817 -1.9808 0.9689
5.5959 -5.2099 -1.9796 0.9689
5.7772 -5.0060 -1.9793 0.9689
5.9512 -4.7958 -1.9789 0.9689
6.7033 -3.6603 -1.9775 0.9689
7.1532 -2.6680 -1.9767 0.9689
7.4586 -1.6225 -1.9763 0.9690
7.5115 -1.3552 -1.9763 0.9690
7.5889 -0.8159 -1.9762 0.9690
7.6133 -0.5445 -1.9763 0.9690
-7.0816 -0.5065 -2.0099 0.9709
-7.0586 -0.7589 -2.0098 0.9709
-6.9354 -1.5087 -2.0093 0.9709
-6.8764 -1.7551 -2.0091 0.9709
-6.5534 -2.7145 -2.0081 0.9709
-6.3411 -3.1742 -2.0075 0.9710
-6.0965 -3.6172 -2.0068 0.9710
-5.9624 -3.8318 -2.0064 0.9710
-5.8207 -4.0414 -2.0061 0.9710
-4.1799 -3.6219 -1.5657 0.9773
-3.6384 -3.6384 -1.4566 0.9788
-3.2756 -3.5182 -1.3608 0.9802
-3.0230 -3.4887 -1.3068 0.9810
-2.7895 -3.4615 -1.2585 0.9817
-2.5723 -3.4362 -1.2151 0.9823
-2.3679 -3.4105 -1.1754 0.9829
-1.9840 -3.3438 -1.1007 0.9840
-1.6482 -3.2927 -1.0424 0.9848
-1.4939 -3.2711 -1.0180 0.9852
-1.3443 -3.2453 -0.9944 0.9855
-1.2039 -3.2277 -0.9752 0.9858
-0.9379 -3.1940 -0.9424 0.9863
-0.8101 -3.1739 -0.9273 0.9865
-0.6872 -3.1588 -0.9152 0.9867
-0.5668 -3.1417 -0.9038 0.9868
-0.3367 -3.1315 -0.8916 0.9870
-0.2245 -3.1384 -0.8907 0.9870
-0.1131 -3.1666 -0.8970 0.9869
0.1151 -3.2238 -0.9132 0.9867
0.2386 -3.3356 -0.9467 0.9862
0.3834 -3.5665 -1.0155 0.9852
1.0002 -6.9568 -1.9897 0.9712
1.4931 -6.8639 -1.9886 0.9712
1.9779 -6.7362 -1.9875 0.9712
3.3595 -6.1525 -1.9845 0.9713
3.5762 -6.0273 -1.9840 0.9713
3.7881 -5.8945 -1.9836 0.9713
3.9952 -5.7542 -1.9831 0.9713
4.5846 -5.2909 -1.9819 0.9713
4.7696 -5.1229 -1.9815 0.9713
4.9485 -4.9485 -1.9812 0.9713
5.4464 -4.3890 -1.9802 0.9713
5.7440 -3.9881 -1.9796 0.9713
6.1352 -3.3500 -1.9789 0.9714
6.2502 -3.1286 -1.9787 0.9714
6.3573 -2.9033 -1.9785 0.9714
6.5472 -2.4420 -1.9782 0.9714
6.6298 -2.2066 -1.9781 0.9714
6.7039 -1.9684 -1.9779 0.9714
6.7696 -1.7278 -1.9779 0.9714
6.8752 -1.2404 -1.9778 0.9714
6.9461 -0.7468 -1.9777 0.9714
-6.5265 -0.2331 -2.0087 0.9730
-6.5137 -0.4659 -2.0086 0.9730
-6.4631 -0.9292 -2.0084 0.9730
-6.4253 -1.1592 -2.0082 0.9730
-6.2629 -1.8389 -2.0077 0.9731
-6.1926 -2.0611 -2.0074 0.9731
-6.1143 -2.2805 -2.0072 0.9731
-6.0283 -2.4970 -2.0069 0.9731
-5.7244 -3.1257 -2.0061 0.9731
-5.4850 -3.5250 -2.0054 0.9731
-5.3548 -3.7179 -2.0051 0.9731
-4.1801 -3.6221 -1.7012 0.9771
-3.8386 -3.5738 -1.6132 0.9783
-3.6259 -3.6259 -1.5772 0.9788
-3.2781 -3.5209 -1.4797 0.9801
-3.0252 -3.4913 -1.4209 0.9809
-2.7915 -3.4640 -1.3683 0.9816
-1.8116 -3.3178 -1.1627 0.9843
-1.6479 -3.2922 -1.1324 0.9847
-1.3432 -3.2428 -1.0796 0.9854
-0.9337 -3.1797 -1.0193 0.9862
-0.6845 -3.1464 -0.9904 0.9866
-0.5657 -3.1356 -0.9800 0.9868
-0.3360 -3.1253 -0.9668 0.9869
-0.1125 -3.1510 -0.9698 0.9869
0.0000 -3.1791 -0.9778 0.9868
0.2356 -3.2937 -1.0157 0.9863
0.9208 -6.4040 -1.9900 0.9733
1.3746 -6.3188 -1.9890 0.9733
1.5988 -6.2641 -1.9885 0.9733
2.2576 -6.0529 -1.9870 0.9733
2.4716 -5.9671 -1.9866 0.9733
2.6824 -5.8737 -1.9861 0.9733
3.2928 -5.5496 -1.9848 0.9734
3.4880 -5.4275 -1.9844 0.9734
3.6788 -5.2984 -1.9840 0.9734
4.3921 -4.7174 -1.9825 0.9734
4.7159 -4.3906 -1.9818 0.9734
5.0156 -4.0418 -1.9813 0.9734
5.2897 -3.6727 -1.9807 0.9734
5.4168 -3.4812 -1.9805 0.9734
5.5370 -3.2852 -1.9803 0.9734
5.6501 -3.0852 -1.9801 0.9734
5.8548 -2.6738 -1.9797 0.9734
6.1741 -1.8129 -1.9792 0.9734
6.2347 -1.5913 -1.9791 0.9734
6.3320 -1.1424 -1.9790 0.9734
6.3686 -0.9157 -1.9790 0.9734
6.4178 -0.4590 -1.9790 0.9734
6.4302 -0.2296 -1.9790 0.9734
-6.0397 0.0000 -2.0076 0.9749
-5.9422 -1.0721 -2.0071 0.9749
-5.7271 -1.9062 -2.0064 0.9749
-5.6548 -2.1091 -2.0062 0.9749
-5.5753 -2.3094 -2.0060 0.9749
-5.3949 -2.7005 -2.0054 0.9749
-5.2944 -2.8910 -2.0052 0.9749
-4.9527 -3.4387 -2.0042 0.9749
-4.6932 -3.7820 -2.0035 0.9749
-4.1803 -3.6223 -1.8387 0.9770
-3.8387 -3.5740 -1.7434 0.9781
-3.6501 -3.6501 -1.7159 0.9785
-3.2781 -3.5209 -1.5991 0.9799
-2.3633 -3.4038 -1.3774 0.9827
-2.1719 -3.3795 -1.3354 0.9832
-1.9870 -3.3490 -1.2944 0.9837
-1.6483 -3.2929 -1.2241 0.9846
-1.4917 -3.2663 -1.1936 0.9850
-1.2094 -3.2424 -1.1503 0.9855
-1.2337 -3.7067 -1.2986 0.9837
-0.7170 -3.2960 -1.1212 0.9859
-0.5644 -3.1283 -1.0566 0.9867
-0.4490 -3.1230 -1.0488 0.9868
-0.0000 -3.1619 -1.0510 0.9868
0.2327 -3.2538 -1.0844 0.9863
0.8521 -5.9265 -1.9903 0.9751
1.0628 -5.8910 -1.9898 0.9751
1.4797 -5.7974 -1.9889 0.9751
1.6853 -5.7396 -1.9884 0.9751
1.8887 -5.6745 -1.9880 0.9751
2.2877 -5.5229 -1.9871 0.9751
2.4828 -5.4366 -1.9867 0.9751
2.6747 -5.3434 -1.9863 0.9751
2.8631 -5.2434 -1.9859 0.9751
3.0479 -5.1369 -1.9855 0.9751
3.7451 -4.6474 -1.9840 0.9752
3.9079 -4.5100 -1.9837 0.9752
4.0658 -4.3669 -1.9833 0.9752
4.2184 -4.2184 -1.9830 0.9752
4.3656 -4.0645 -1.9827 0.9752
4.5073 -3.9055 -1.9825 0.9752
4.6432 -3.7417 -1.9822 0.9752
4.7731 -3.5731 -1.9819 0.9752
4.8971 -3.4001 -1.9817 0.9752
5.0147 -3.2228 -1.9815 0.9752
5.4204 -2.4754 -1.9808 0.9752
5.6529 -1.8814 -1.9804 0.9752
5.7722 -1.4733 -1.9802 0.9752
5.9227 -0.6368 -1.9801 0.9752
5.9417 -0.4250 -1.9801 0.9752
-5.6113 0.0000 -2.0067 0.9764
-5.6076 -0.2003 -2.0066 0.9764
-5.5966 -0.4003 -2.0065 0.9764
-5.5209 -0.9961 -2.0062 0.9765
-5.3815 -1.5801 -2.0057 0.9765
-5.3212 -1.7710 -2.0055 0.9765
-5.2540 -1.9596 -2.0053 0.9765
-5.0997 -2.3289 -2.0049 0.9765
-5.0127 -2.5092 -2.0046 0.9765
-4.9193 -2.6861 -2.0044 0.9765
-4.3609 -3.5143 -2.0029 0.9765
-3.8389 -3.5742 -1.8757 0.9780
-3.8369 -3.8369 -1.9405 0.9772
-2.7817 -3.4519 -1.5854 0.9813
-2.5632 -3.4240 -1.5295 0.9820
-1.9870 -3.3489 -1.3925 0.9836
-1.4917 -3.2663 -1.2841 0.9849
-1.3415 -3.2386 -1.2536 0.9852
-1.2954 -3.4730 -1.3255 0.9844
-0.9287 -3.1629 -1.1788 0.9861
-0.6804 -3.1278 -1.1447 0.9865
-0.5835 -3.2342 -1.1753 0.9861
-0.4479 -3.1152 -1.1255 0.9867
-0.3343 -3.1099 -1.1185 0.9868
-0.2233 -3.1221 -1.1193 0.9868
-0.1121 -3.1399 -1.1236 0.9867
-0.0000 -3.1579 -1.1293 0.9867
0.1134 -3.1760 -1.1365 0.9866
0.2299 -3.2143 -1.1524 0.9864
0.3724 -3.4637 -1.2458 0.9853
0.7922 -5.5096 -1.9905 0.9766
0.9881 -5.4766 -1.9901 0.9766
1.3757 -5.3898 -1.9892 0.9766
2.1269 -5.1349 -1.9876 0.9767
2.3084 -5.0547 -1.9872 0.9767
2.6621 -4.8753 -1.9864 0.9767
3.1663 -4.5603 -1.9853 0.9767
3.3265 -4.4437 -1.9850 0.9767
3.4824 -4.3214 -1.9847 0.9767
3.6338 -4.1937 -1.9844 0.9767
3.7806 -4.0607 -1.9841 0.9767
4.5539 -3.1618 -1.9825 0.9767
4.6634 -2.9970 -1.9823 0.9767
4.8644 -2.6562 -1.9820 0.9767
5.2570 -1.7497 -1.9813 0.9767
5.3680 -1.3701 -1.9812 0.9767
5.4133 -1.1776 -1.9811 0.9767
5.4518 -0.9836 -1.9811 0.9767
5.4834 -0.7884 -1.9811 0.9767
5.5257 -0.3952 -1.9811 0.9767
5.5364 -0.1977 -1.9811 0.9767
-5.2341 0.0000 -2.0058 0.9778
-5.2306 -0.1868 -2.0057 0.9778
-5.2035 -0.5594 -2.0056 0.9778
-5.0198 -1.4740 -2.0049 0.9778
-4.9636 -1.6520 -2.0047 0.9778
-4.9010 -1.8280 -2.0045 0.9778
-4.8321 -2.0015 -2.0043 0.9778
-4.7571 -2.1725 -2.0041 0.9778
-4.6760 -2.3406 -2.0039 0.9778
-4.5889 -2.5057 -2.0036 0.9779
-4.2930 -2.9807 -2.0028 0.9779
-4.1833 -3.1316 -2.0025 0.9779
-4.0683 -3.2784 -2.0022 0.9779
-3.6927 -3.6927 -2.0013 0.9779
-3.5579 -3.8215 -2.0009 0.9779
-3.4187 -3.9454 -2.0006 0.9779
-2.3553 -3.3923 -1.5826 0.9825
-2.1650 -3.3688 -1.5346 0.9830
-1.9856 -3.3465 -1.4912 0.9835
-1.8129 -3.3201 -1.4497 0.9839
-1.6483 -3.2929 -1.4112 0.9843
-1.3415 -3.2386 -1.3433 0.9851
-1.3256 -3.5542 -1.4537 0.9839
-0.6804 -3.1279 -1.2267 0.9864
-0.5613 -3.1111 -1.2115 0.9865
-0.4697 -3.2666 -1.2647 0.9860
-0.2231 -3.1192 -1.1984 0.9867
-0.1121 -3.1381 -1.2033 0.9866
0.0000 -3.1610 -1.2114 0.9866
0.1137 -3.1847 -1.2212 0.9864
0.2295 -3.2082 -1.2326 0.9863
0.7393 -5.1420 -1.9907 0.9780
0.9222 -5.1112 -1.9903 0.9780
1.8132 -4.8615 -1.9884 0.9780
2.1546 -4.7179 -1.9876 0.9780
2.3212 -4.6372 -1.9873 0.9780
2.4848 -4.5506 -1.9869 0.9780
2.8022 -4.3602 -1.9862 0.9780
2.9555 -4.2568 -1.9859 0.9780
3.2507 -4.0338 -1.9853 0.9781
3.3921 -3.9146 -1.9850 0.9781
3.5291 -3.7905 -1.9847 0.9781
3.6617 -3.6617 -1.9845 0.9781
3.7896 -3.5282 -1.9842 0.9781
4.0306 -3.2481 -1.9837 0.9781
4.3534 -2.7977 -1.9831 0.9781
4.4501 -2.6403 -1.9829 0.9781
4.5411 -2.4796 -1.9828 0.9781
4.6264 -2.3158 -1.9826 0.9781
4.7057 -2.1490 -1.9825 0.9781
5.0113 -1.2791 -1.9820 0.9781
5.1191 -0.7360 -1.9819 0.9781
5.1586 -0.3689 -1.9819 0.9781
5.1685 -0.1846 -1.9819 0.9781
-4.8990 0.0000 -2.0050 0.9790
-4.8957 -0.1748 -2.0050 0.9790
-4.8704 -0.5236 -2.0048 0.9791
-4.8484 -0.6971 -2.0047 0.9791
-4.7857 -1.0411 -2.0045 0.9791
-4.5230 -1.8735 -2.0037 0.9791
-4.4528 -2.0335 -2.0035 0.9791
-4.3769 -2.1909 -2.0032 0.9791
-4.2954 -2.3455 -2.0030 0.9791
-4.2084 -2.4970 -2.0028 0.9791
-4.1161 -2.6453 -2.0025 0.9791
-3.6957 -3.2024 -2.0014 0.9791
-3.5785 -3.3317 -2.0011 0.9791
-3.3307 -3.5774 -2.0005 0.9791
-3.2003 -3.6934 -2.0001 0.9791
-3.0660 -3.8046 -1.9998 0.9791
-2.9277 -3.9110 -1.9995 0.9791
-2.7858 -4.0122 -1.9991 0.9791
-2.6403 -4.1084 -1.9988 0.9791
-1.6487 -3.2937 -1.5075 0.9842
-1.4953 -3.2743 -1.4732 0.9846
-1.1937 -3.2005 -1.3980 0.9853
-1.0589 -3.1814 -1.3723 0.9856
-0.9288 -3.1630 -1.3492 0.9859
-0.8028 -3.1453 -1.3286 0.9861
-0.6804 -3.1280 -1.3102 0.9863
-0.5613 -3.1112 -1.2939 0.9864
-0.2246 -3.1409 -1.2888 0.9865
-0.1130 -3.1634 -1.2955 0.9864
0.0000 -3.1867 -1.3042 0.9863
1.0336 -4.7516 -1.9902 0.9792
1.5348 -4.6113 -1.9891 0.9792
1.6981 -4.5527 -1.9887 0.9792
1.8592 -4.4884 -1.9884 0.9792
2.0178 -4.4184 -1.9880 0.9792
2.1739 -4.3429 -1.9877 0.9792
2.4774 -4.1754 -1.9870 0.9792
2.9082 -3.8848 -1.9861 0.9792
3.3054 -3.5503 -1.9853 0.9793
3.4296 -3.4296 -1.9850 0.9793
3.5494 -3.3046 -1.9848 0.9793
3.6646 -3.1754 -1.9846 0.9793
3.8810 -2.9053 -1.9842 0.9793
4.1682 -2.4731 -1.9836 0.9793
4.2535 -2.3226 -1.9835 0.9793
4.3334 -2.1691 -1.9833 0.9793
4.5970 -1.5300 -1.9829 0.9793
4.6485 -1.3649 -1.9828 0.9793
4.6941 -1.1981 -1.9828 0.9793
4.7950 -0.6894 -1.9827 0.9793
4.8166 -0.5178 -1.9827 0.9793
-1.4600 0.0000 -0.6363 0.9936
-1.4490 -0.1036 -0.6331 0.9937
-1.3688 -0.2978 -0.6105 0.9939
-1.3722 -0.4029 -0.6233 0.9938
-1.4401 -0.4793 -0.6615 0.9934
-4.2462 -1.7588 -2.0031 0.9801
-4.1804 -1.9091 -2.0029 0.9801
-4.1091 -2.0569 -2.0027 0.9801
-4.0327 -2.2020 -2.0025 0.9802
-3.8644 -2.4835 -2.0020 0.9802
-3.7728 -2.6195 -2.0017 0.9802
-3.5754 -2.8813 -2.0012 0.9802
-3.3598 -3.1281 -2.0007 0.9802
-2.8787 -3.5722 -1.9994 0.9802
-2.6157 -3.7673 -1.9988 0.9802
-2.3395 -3.9429 -1.9981 0.9802
-2.1968 -4.0232 -1.9978 0.9802
-1.6492 -3.2947 -1.6057 0.9841
-1.1938 -3.2006 -1.4887 0.9852
-1.0589 -3.1815 -1.4614 0.9855
-0.8028 -3.1454 -1.4148 0.9859
-0.6805 -3.1281 -1.3952 0.9861
-0.5613 -3.1112 -1.3778 0.9863
-0.2265 -3.1668 -1.3837 0.9862
0.1147 -3.2116 -1.4006 0.9861
0.2312 -3.2325 -1.4124 0.9860
0.6502 -4.5222 -1.9911 0.9803
0.8110 -4.4953 -1.9908 0.9803
0.9708 -4.4627 -1.9904 0.9803
1.1293 -4.4244 -1.9900 0.9803
1.2862 -4.3805 -1.9897 0.9803
1.5949 -4.2761 -1.9890 0.9803
2.4651 -3.8358 -1.9871 0.9803
2.8598 -3.5488 -1.9863 0.9803
2.9843 -3.4440 -1.9861 0.9803
3.2216 -3.2216 -1.9856 0.9803
3.4424 -2.9829 -1.9851 0.9803
3.5463 -2.8578 -1.9849 0.9803
3.7405 -2.5971 -1.9846 0.9803
3.8305 -2.4617 -1.9844 0.9803
4.0708 -2.0377 -1.9840 0.9803
4.2053 -1.7419 -1.9837 0.9803
4.3668 -1.2822 -1.9835 0.9803
4.5248 -0.4865 -1.9833 0.9803
4.5480 -0.1624 -1.9834 0.9803
-1.2446 0.0000 -0.5761 0.9945
-1.2362 -0.0884 -0.5737 0.9946
-1.2260 -0.1318 -0.5708 0.9946
-1.2124 -0.1743 -0.5670 0.9946
-1.1574 -0.2954 -0.5529 0.9947
-1.1536 -0.3840 -0.5628 0.9947
-1.2017 -0.4482 -0.5937 0.9944
-1.2345 -0.5113 -0.6185 0.9941
-3.8678 -1.9361 -2.0021 0.9811
-3.7191 -2.2066 -2.0017 0.9811
-3.5514 -2.4658 -2.0013 0.9811
-3.4607 -2.5907 -2.0010 0.9811
-3.3656 -2.7122 -2.0008 0.9811
-3.0552 -3.0552 -2.0000 0.9811
-2.9438 -3.1618 -1.9997 0.9811
-2.5878 -3.4569 -1.9988 0.9811
-2.2024 -3.7119 -1.9979 0.9812
-2.0681 -3.7875 -1.9975 0.9812
-1.9313 -3.8583 -1.9972 0.9812
-1.7921 -3.9241 -1.9969 0.9812
-1.6506 -3.9849 -1.9965 0.9812
-1.1938 -3.2007 -1.5813 0.9851
-1.0589 -3.1816 -1.5522 0.9853
-0.9288 -3.1633 -1.5260 0.9856
-0.6805 -3.1282 -1.4819 0.9860
-0.5613 -3.1114 -1.4635 0.9862
-0.4450 -3.0949 -1.4473 0.9863
-0.1147 -3.2119 -1.4877 0.9859
0.1150 -3.2211 -1.4920 0.9859
0.4599 -4.2779 -1.9916 0.9812
0.9141 -4.2021 -1.9906 0.9812
1.0633 -4.1661 -1.9903 0.9812
1.3574 -4.0783 -1.9896 0.9812
1.5019 -4.0266 -1.9893 0.9812
1.6444 -3.9699 -1.9890 0.9812
2.1913 -3.6932 -1.9878 0.9812
2.5725 -3.4365 -1.9870 0.9813
2.6932 -3.3420 -1.9868 0.9813
2.8104 -3.2434 -1.9865 0.9813
2.9240 -3.1406 -1.9863 0.9813
3.1400 -2.9234 -1.9858 0.9813
3.2420 -2.8092 -1.9856 0.9813
3.3398 -2.6914 -1.9855 0.9813
3.6075 -2.3184 -1.9849 0.9813
3.6876 -2.1880 -1.9848 0.9813
3.9605 -1.6405 -1.9843 0.9813
4.1127 -1.2076 -1.9841 0.9813
4.1531 -1.0600 -1.9840 0.9813
4.2615 -0.4581 -1.9839 0.9813
4.2751 -0.3058 -1.9840 0.9813
-1.0817 0.0000 -0.5306 0.9952
-1.0803 -0.0386 -0.5302 0.9952
-1.0769 -0.0770 -0.5296 0.9952
-1.0705 -0.1151 -0.5281 0.9952
-1.0611 -0.1526 -0.5258 0.9952
-1.0422 -0.2267 -0.5232 0.9953
-1.0307 -0.2631 -0.5218 0.9953
-1.0025 -0.3336 -0.5183 0.9953
-1.0290 -0.4262 -0.5463 0.9951
-1.0444 -0.4770 -0.5632 0.9949
-3.5088 -2.0818 -2.0013 0.9820
-3.2650 -2.4442 -2.0006 0.9820
-3.1754 -2.5589 -2.0004 0.9820
-2.9840 -2.7782 -1.9999 0.9820
-2.7775 -2.9832 -1.9994 0.9820
-2.6688 -3.0800 -1.9991 0.9820
-2.4416 -3.2616 -1.9985 0.9820
-2.2021 -3.4265 -1.9979 0.9820
-2.0780 -3.5024 -1.9976 0.9820
-1.8223 -3.6405 -1.9970 0.9820
-1.6910 -3.7027 -1.9967 0.9820
-0.8029 -3.1456 -1.5924 0.9856
-0.5614 -3.1114 -1.5509 0.9860
-0.4345 -4.0412 -1.9937 0.9821
0.1450 -4.0592 -1.9924 0.9821
0.2897 -4.0507 -1.9921 0.9821
0.5778 -4.0185 -1.9914 0.9821
0.7207 -3.9946 -1.9911 0.9821
1.0035 -3.9318 -1.9905 0.9821
1.4174 -3.8002 -1.9896 0.9821
1.5519 -3.7467 -1.9893 0.9821
1.6844 -3.6884 -1.9890 0.9821
1.8147 -3.6254 -1.9887 0.9821
1.9427 -3.5578 -1.9884 0.9821
2.1910 -3.4093 -1.9879 0.9821
2.4280 -3.2434 -1.9874 0.9821
2.5419 -3.1543 -1.9872 0.9821
2.6526 -3.0612 -1.9869 0.9821
2.7599 -2.9643 -1.9867 0.9821
3.1524 -2.5404 -1.9859 0.9821
3.3250 -2.3086 -1.9856 0.9821
3.6188 -1.8114 -1.9851 0.9821
3.7911 -1.4140 -1.9848 0.9821
3.8390 -1.2777 -1.9847 0.9821
3.9533 -0.8600 -1.9845 0.9821
3.9814 -0.7183 -1.9845 0.9821
4.0045 -0.5758 -1.9845 0.9821
4.0225 -0.4325 -1.9845 0.9821
4.0354 -0.2886 -1.9845 0.9821
-0.9895 0.0000 -0.5133 0.9956
-0.9838 -0.1058 -0.5133 0.9956
-0.9785 -0.1407 -0.5129 0.9956
-0.9715 -0.1753 -0.5121 0.9956
-0.9628 -0.2095 -0.5112 0.9956
-0.9524 -0.2431 -0.5099 0.9956
-0.9404 -0.2761 -0.5085 0.9956
-0.9268 -0.3085 -0.5067 0.9956
-0.9208 -0.3434 -0.5098 0.9956
-0.9416 -0.4713 -0.5463 0.9953
-3.2443 -2.0850 -2.0007 0.9828
-3.0019 -2.4191 -2.0000 0.9828
-2.9133 -2.5244 -1.9998 0.9828
-2.8210 -2.6264 -1.9996 0.9828
-2.6258 -2.8203 -1.9991 0.9828
-2.5231 -2.9118 -1.9988 0.9828
-2.4173 -2.9996 -1.9985 0.9828
-2.3083 -3.0836 -1.9983 0.9828
-2.1965 -3.1636 -1.9980 0.9828
-2.0819 -3.2395 -1.9977 0.9828
-1.9647 -3.3112 -1.9974 0.9828
-1.7229 -3.4420 -1.9968 0.9828
-1.4725 -3.5550 -1.9962 0.9828
-1.3445 -3.6048 -1.9959 0.9828
-0.6805 -3.1284 -1.6609 0.9857
-0.5614 -3.1115 -1.6403 0.9859
-0.2741 -3.8327 -1.9934 0.9828
0.0000 -3.8413 -1.9928 0.9828
0.1371 -3.8382 -1.9925 0.9828
0.2740 -3.8303 -1.9922 0.9828
0.4104 -3.8175 -1.9919 0.9828
0.5463 -3.7998 -1.9915 0.9828
0.9490 -3.7180 -1.9906 0.9829
1.3404 -3.5937 -1.9898 0.9829
1.4676 -3.5430 -1.9895 0.9829
1.5929 -3.4879 -1.9892 0.9829
1.7162 -3.4284 -1.9890 0.9829
1.8372 -3.3645 -1.9887 0.9829
1.9559 -3.2964 -1.9885 0.9829
2.1855 -3.1477 -1.9880 0.9829
2.2962 -3.0673 -1.9877 0.9829
2.5086 -2.8951 -1.9873 0.9829
2.8029 -2.6095 -1.9867 0.9829
3.0649 -2.2944 -1.9862 0.9829
3.2203 -2.0696 -1.9859 0.9829
3.3593 -1.8343 -1.9856 0.9829
3.5356 -1.4645 -1.9853 0.9829
3.6715 -1.0781 -1.9851 0.9829
3.7076 -0.9463 -1.9851 0.9829
3.8044 -0.4090 -1.9850 0.9829
3.8239 -0.1366 -1.9850 0.9829
-0.9179 -0.0328 -0.5031 0.9958
-0.9161 -0.0655 -0.5030 0.9958
-0.9077 -0.1305 -0.5022 0.9958
-0.9011 -0.1626 -0.5015 0.9958
-0.8931 -0.1943 -0.5006 0.9958
-0.8837 -0.2255 -0.4995 0.9958
-0.8603 -0.2863 -0.4966 0.9959
-0.8465 -0.3157 -0.4948 0.9959
-0.8479 -0.3512 -0.5027 0.9958
-0.8506 -0.3884 -0.5122 0.9957
-0.8516 -0.4262 -0.5216 0.9957
-0.8507 -0.4645 -0.5309 0.9956
-0.8524 -0.5057 -0.5428 0.9955
-3.0724 -1.9745 -2.0003 0.9835
-2.9997 -2.0827 -2.0001 0.9835
-2.9231 -2.1882 -1.9999 0.9835
-2.8429 -2.2909 -1.9997 0.9835
-2.7590 -2.3907 -1.9995 0.9835
-2.6716 -2.4873 -1.9993 0.9835
-2.3896 -2.7577 -1.9985 0.9835
-2.2893 -2.8409 -1.9983 0.9835
-2.1862 -2.9204 -1.9980 0.9835
-2.0803 -2.9962 -1.9978 0.9835
-1.9717 -3.0681 -1.9975 0.9835
-1.8607 -3.1361 -1.9972 0.9835
-1.3947 -3.3671 -1.9961 0.9835
-1.2734 -3.4142 -1.9958 0.9835
-1.0591 -3.1820 -1.8368 0.9848
-0.9289 -3.1636 -1.8059 0.9851
-0.8029 -3.1458 -1.7782 0.9853
-0.5614 -3.1116 -1.7318 0.9857
0.1299 -3.6357 -1.9925 0.9835
0.2595 -3.6282 -1.9922 0.9835
0.7728 -3.5523 -1.9911 0.9836
0.8989 -3.5219 -1.9908 0.9836
1.0239 -3.4871 -1.9905 0.9836
1.1476 -3.4479 -1.9903 0.9836
1.5090 -3.3042 -1.9895 0.9836
1.6257 -3.2478 -1.9892 0.9836
2.0704 -2.9819 -1.9883 0.9836
2.1753 -2.9058 -1.9881 0.9836
2.4727 -2.6558 -1.9874 0.9836
2.6553 -2.4722 -1.9871 0.9836
3.0509 -1.9607 -1.9863 0.9836
3.1187 -1.8504 -1.9862 0.9836
3.1826 -1.7378 -1.9861 0.9836
3.2982 -1.5062 -1.9859 0.9836
3.3969 -1.2670 -1.9857 0.9836
3.5675 -0.6436 -1.9855 0.9836
3.5882 -0.5159 -1.9855 0.9836
3.6043 -0.3875 -1.9855 0.9836
-0.8530 -0.0610 -0.4938 0.9961
-0.8453 -0.1215 -0.4930 0.9961
-0.8393 -0.1514 -0.4924 0.9961
-0.8014 -0.2667 -0.4876 0.9961
-0.7796 -0.3229 -0.4872 0.9961
-0.7696 -0.4946 -0.5282 0.9958
-2.7726 -2.0755 -1.9996 0.9841
-2.5341 -2.3593 -1.9990 0.9841
-2.4480 -2.4480 -1.9988 0.9841
-2.1715 -2.6947 -1.9981 0.9841
-2.0737 -2.7701 -1.9978 0.9841
-1.8703 -2.9103 -1.9973 0.9841
-1.7650 -2.9748 -1.9971 0.9842
-1.6575 -3.0355 -1.9968 0.9842
-1.5479 -3.0923 -1.9965 0.9842
-1.4363 -3.1452 -1.9963 0.9842
-1.2080 -3.2387 -1.9957 0.9842
-1.0915 -3.2793 -1.9954 0.9842
-0.9289 -3.1637 -1.9037 0.9849
-0.8029 -3.1459 -1.8745 0.9851
-0.6806 -3.1286 -1.8485 0.9853
-0.3691 -3.4335 -1.9937 0.9842
-0.1232 -3.4501 -1.9932 0.9842
0.1232 -3.4491 -1.9926 0.9842
0.2462 -3.4420 -1.9923 0.9842
0.6125 -3.3946 -1.9915 0.9842
0.7331 -3.3701 -1.9912 0.9842
0.8528 -3.3413 -1.9910 0.9842
0.9714 -3.3083 -1.9907 0.9842
1.2046 -3.2298 -1.9902 0.9842
1.5424 -3.0813 -1.9895 0.9842
1.7579 -2.9628 -1.9890 0.9842
1.8623 -2.8978 -1.9888 0.9842
1.9644 -2.8292 -1.9886 0.9842
2.3461 -2.5199 -1.9878 0.9842
2.4343 -2.4343 -1.9876 0.9842
2.6013 -2.2541 -1.9873 0.9842
2.7551 -2.0624 -1.9870 0.9842
2.8948 -1.8604 -1.9867 0.9842
2.9592 -1.7558 -1.9866 0.9842
3.2639 -1.0863 -1.9861 0.9842
3.3005 -0.9691 -1.9860 0.9842
3.4309 -0.2454 -1.9859 0.9842
3.4375 -0.1228 -1.9859 0.9842
