ply
format ascii 1.0
element vertex 715
property float32 x
property float32 y
property float32 z
property float32 I
end_header
-9.2046 0.0000 -1.9457 0.9631
-9.1990 -0.3285 -1.9457 0.9631
-9.1136 -1.3104 -1.9463 0.9631
-9.0624 -1.6350 -1.9465 0.9631
-8.7451 -2.9106 -1.9482 0.9630
-8.6381 -3.2218 -1.9488 0.9630
-8.5203 -3.5292 -1.9494 0.9630
-8.3918 -3.8324 -1.9501 0.9630
-8.2086 -4.1089 -1.9404 0.9632
-6.5545 -6.5545 -1.9594 0.9628
-6.3201 -6.7883 -1.9605 0.9628
-5.8271 -7.2309 -1.9630 0.9627
-5.3034 -7.6383 -1.9656 0.9627
-4.7516 -8.0083 -1.9683 0.9626
-4.4659 -8.1787 -1.9698 0.9626
-3.8768 -8.4890 -1.9727 0.9626
-3.5741 -8.6285 -1.9742 0.9625
-3.2663 -8.7573 -1.9757 0.9625
-2.9539 -8.8752 -1.9772 0.9625
-2.6374 -8.9821 -1.9788 0.9625
-2.3169 -9.0777 -1.9804 0.9624
-1.6661 -9.2347 -1.9836 0.9624
-1.0047 -9.3453 -1.9868 0.9623
-0.6711 -9.3829 -1.9884 0.9623
-0.3360 -9.4087 -1.9901 0.9622
-0.0000 -9.4224 -1.9917 0.9622
1.0097 -9.3916 -1.9966 0.9621
1.3454 -9.3572 -1.9983 0.9621
1.6798 -9.3108 -1.9999 0.9621
2.0127 -9.2524 -2.0015 0.9620
3.3195 -8.8999 -2.0079 0.9619
3.9519 -8.6536 -2.0109 0.9619
4.2615 -8.5133 -2.0124 0.9618
4.8650 -8.1995 -2.0153 0.9618
5.4450 -7.8423 -2.0181 0.9617
5.7253 -7.6481 -2.0195 0.9617
5.9985 -7.4437 -2.0208 0.9617
6.2643 -7.2294 -2.0220 0.9616
6.5223 -7.0055 -2.0233 0.9616
6.7722 -6.7722 -2.0245 0.9616
7.8876 -5.4765 -2.0298 0.9615
8.0817 -5.1938 -2.0307 0.9615
8.2654 -4.9041 -2.0315 0.9615
8.4385 -4.6078 -2.0323 0.9615
8.7521 -3.9969 -2.0338 0.9614
8.8919 -3.6832 -2.0344 0.9614
9.0203 -3.3644 -2.0350 0.9614
9.2419 -2.7137 -2.0360 0.9614
9.3348 -2.3826 -2.0365 0.9614
9.4155 -2.0482 -2.0368 0.9614
9.5402 -1.3717 -2.0373 0.9614
9.6150 -0.6877 -2.0376 0.9614
9.6337 -0.3441 -2.0377 0.9614
-8.2513 -0.8871 -1.9504 0.9665
-8.1124 -1.7648 -1.9512 0.9665
-7.9690 -2.3399 -1.9520 0.9664
-7.8822 -2.6235 -1.9524 0.9664
-7.6792 -3.1808 -1.9535 0.9664
-7.4374 -3.7229 -1.9547 0.9664
-7.3024 -3.9874 -1.9554 0.9664
-7.1581 -4.2471 -1.9561 0.9664
-6.8425 -4.7508 -1.9577 0.9664
-6.4920 -5.2316 -1.9595 0.9663
-6.3041 -5.4626 -1.9605 0.9663
-5.9044 -5.9044 -1.9625 0.9663
-5.4741 -6.3175 -1.9646 0.9662
-4.4730 -6.9601 -1.9445 0.9666
-4.2784 -7.2108 -1.9706 0.9661
-3.4900 -7.6419 -1.9745 0.9661
-3.2172 -7.7669 -1.9758 0.9660
-2.9399 -7.8822 -1.9772 0.9660
-2.3735 -8.0833 -1.9800 0.9660
-1.4991 -8.3087 -1.9843 0.9659
-1.2024 -8.3630 -1.9857 0.9659
-0.6037 -8.4399 -1.9886 0.9658
-0.3022 -8.4623 -1.9901 0.9658
-0.0000 -8.4740 -1.9916 0.9658
0.3027 -8.4749 -1.9931 0.9658
1.2095 -8.4126 -1.9975 0.9657
1.8092 -8.3170 -2.0004 0.9656
2.6937 -8.0933 -2.0047 0.9656
3.2687 -7.8915 -2.0075 0.9655
3.5507 -7.7750 -2.0088 0.9655
3.8285 -7.6485 -2.0102 0.9655
4.1018 -7.5119 -2.0115 0.9654
4.3701 -7.3654 -2.0128 0.9654
5.1418 -6.8687 -2.0165 0.9654
5.6252 -6.4918 -2.0188 0.9653
6.0805 -6.0805 -2.0210 0.9653
6.2969 -5.8626 -2.0220 0.9653
7.0801 -4.9158 -2.0257 0.9652
7.4186 -4.4017 -2.0273 0.9652
7.5737 -4.1355 -2.0281 0.9652
7.7190 -3.8639 -2.0287 0.9652
7.8544 -3.5870 -2.0294 0.9651
7.9797 -3.3053 -2.0299 0.9651
8.0947 -3.0192 -2.0305 0.9651
8.3763 -2.1379 -2.0317 0.9651
8.4486 -1.8379 -2.0321 0.9651
8.5602 -1.2308 -2.0325 0.9651
8.6273 -0.6170 -2.0328 0.9651
8.6440 -0.3087 -2.0328 0.9651
-7.5459 0.0000 -1.9538 0.9693
-7.5412 -0.2693 -1.9538 0.9693
-7.5272 -0.5384 -1.9539 0.9693
-7.5038 -0.8068 -1.9541 0.9693
-7.4287 -1.3403 -1.9545 0.9693
-7.3772 -1.6048 -1.9548 0.9693
-7.3165 -1.8674 -1.9551 0.9693
-7.2465 -2.1278 -1.9555 0.9693
-6.8767 -3.1405 -1.9574 0.9692
-6.7623 -3.3849 -1.9580 0.9692
-6.6393 -3.6253 -1.9586 0.9692
-6.3682 -4.0926 -1.9600 0.9692
-6.2204 -4.3189 -1.9607 0.9692
-6.0648 -4.5400 -1.9615 0.9692
-5.5520 -5.1691 -1.9641 0.9691
-5.1741 -5.5573 -1.9660 0.9691
-4.3397 -6.2503 -1.9701 0.9690
-2.9223 -7.0550 -1.9772 0.9689
-2.6703 -7.1593 -1.9784 0.9689
-1.6284 -7.4858 -1.9835 0.9688
-1.3611 -7.5441 -1.9848 0.9688
-1.0917 -7.5929 -1.9862 0.9688
-0.5480 -7.6617 -1.9888 0.9688
-0.0000 -7.6916 -1.9915 0.9687
0.5495 -7.6824 -1.9942 0.9687
1.3702 -7.5948 -1.9982 0.9686
1.6415 -7.5460 -1.9995 0.9686
3.2203 -7.0515 -2.0072 0.9685
3.7196 -6.8120 -2.0096 0.9684
4.2010 -6.5368 -2.0119 0.9684
4.4340 -6.3863 -2.0130 0.9684
4.8836 -6.0602 -2.0152 0.9684
5.0994 -5.8850 -2.0162 0.9683
5.3088 -5.7021 -2.0172 0.9683
5.5116 -5.5116 -2.0182 0.9683
5.7075 -5.3138 -2.0191 0.9683
6.0773 -4.8974 -2.0208 0.9683
6.2507 -4.6792 -2.0217 0.9683
6.5736 -4.2246 -2.0232 0.9682
6.7225 -3.9886 -2.0239 0.9682
6.9943 -3.5011 -2.0252 0.9682
7.1168 -3.2501 -2.0257 0.9682
7.3341 -2.7355 -2.0267 0.9682
7.5136 -2.2062 -2.0275 0.9682
7.5888 -1.9369 -2.0279 0.9682
7.7551 -1.1150 -2.0286 0.9681
-6.9081 -0.2467 -1.9569 0.9717
-6.8953 -0.4932 -1.9570 0.9717
-6.8737 -0.7390 -1.9571 0.9717
-6.8436 -0.9840 -1.9573 0.9717
-6.8049 -1.2278 -1.9575 0.9717
-6.7576 -1.4700 -1.9578 0.9717
-6.6377 -1.9490 -1.9584 0.9717
-6.4844 -2.4185 -1.9592 0.9716
-6.2984 -2.8764 -1.9602 0.9716
-5.9601 -3.5363 -1.9619 0.9716
-5.6965 -3.9552 -1.9632 0.9716
-5.5538 -4.1575 -1.9640 0.9716
-5.4039 -4.3548 -1.9647 0.9716
-5.0837 -4.7330 -1.9663 0.9715
-4.3663 -5.4182 -1.9699 0.9715
-3.9726 -5.7216 -1.9719 0.9715
-3.5580 -5.9967 -1.9739 0.9714
-3.1245 -6.2420 -1.9761 0.9714
-2.9014 -6.3530 -1.9772 0.9714
-2.2094 -6.6382 -1.9806 0.9713
-1.9722 -6.7168 -1.9818 0.9713
-1.7323 -6.7870 -1.9829 0.9713
-1.4898 -6.8486 -1.9841 0.9713
-1.2452 -6.9016 -1.9853 0.9713
-0.9987 -6.9458 -1.9865 0.9712
-0.7506 -6.9813 -1.9878 0.9712
-0.5012 -7.0080 -1.9890 0.9712
-0.2509 -7.0257 -1.9902 0.9712
0.2512 -7.0344 -1.9927 0.9712
0.7533 -7.0071 -1.9951 0.9711
1.0036 -6.9800 -1.9963 0.9711
1.5008 -6.8990 -1.9987 0.9711
1.9915 -6.7824 -2.0011 0.9710
2.2336 -6.7110 -2.0023 0.9710
2.4731 -6.6308 -2.0035 0.9710
2.7098 -6.5421 -2.0046 0.9710
2.9432 -6.4448 -2.0057 0.9710
3.3992 -6.2252 -2.0079 0.9709
3.8387 -5.9731 -2.0100 0.9709
4.0515 -5.8353 -2.0111 0.9709
4.2593 -5.6898 -2.0121 0.9709
4.6588 -5.3766 -2.0140 0.9709
4.8499 -5.2092 -2.0149 0.9708
5.2137 -4.8541 -2.0166 0.9708
5.5511 -4.4733 -2.0182 0.9708
5.8603 -4.0689 -2.0197 0.9708
6.0038 -3.8584 -2.0204 0.9708
6.1396 -3.6428 -2.0210 0.9708
6.3875 -3.1974 -2.0222 0.9707
6.6026 -2.7349 -2.0232 0.9707
6.8611 -2.0146 -2.0243 0.9707
6.9893 -1.5204 -2.0249 0.9707
7.0813 -1.0181 -2.0253 0.9707
7.1136 -0.7648 -2.0254 0.9707
7.1367 -0.5104 -2.0255 0.9707
-6.3668 -0.2274 -1.9595 0.9737
-6.3072 -0.9069 -1.9599 0.9737
-6.1764 -1.5764 -1.9606 0.9737
-6.0502 -2.0137 -1.9613 0.9737
-5.8041 -2.6506 -1.9626 0.9737
-5.6032 -3.0596 -1.9636 0.9736
-5.4920 -3.2585 -1.9642 0.9736
-5.3738 -3.4535 -1.9648 0.9736
-5.1171 -3.8306 -1.9661 0.9736
-4.9789 -4.0122 -1.9668 0.9736
-4.8343 -4.1890 -1.9675 0.9736
-4.6835 -4.3605 -1.9682 0.9736
-4.5267 -4.5267 -1.9690 0.9736
-4.1958 -4.8422 -1.9707 0.9735
-4.0220 -4.9910 -1.9715 0.9735
-3.8431 -5.1337 -1.9724 0.9735
-2.8774 -5.7484 -1.9772 0.9735
-2.6718 -5.8504 -1.9782 0.9734
-2.2500 -6.0325 -1.9803 0.9734
-2.0344 -6.1122 -1.9814 0.9734
-1.3716 -6.3050 -1.9846 0.9734
-0.9193 -6.3939 -1.9869 0.9733
-0.6909 -6.4263 -1.9880 0.9733
-0.2310 -6.4665 -1.9902 0.9733
0.4624 -6.4651 -1.9936 0.9732
0.9235 -6.4229 -1.9959 0.9732
1.3808 -6.3477 -1.9981 0.9732
2.4927 -6.0179 -2.0035 0.9731
2.7073 -5.9281 -2.0045 0.9731
2.9186 -5.8307 -2.0055 0.9731
3.1264 -5.7257 -2.0065 0.9731
3.5304 -5.4934 -2.0085 0.9730
4.1030 -5.0915 -2.0112 0.9730
4.2839 -4.9439 -2.0121 0.9730
4.6295 -4.6295 -2.0137 0.9730
4.9517 -4.2907 -2.0153 0.9730
5.1035 -4.1127 -2.0160 0.9729
5.3875 -3.7406 -2.0173 0.9729
5.5193 -3.5470 -2.0180 0.9729
6.2353 -2.0753 -2.0213 0.9729
6.3064 -1.8517 -2.0216 0.9729
6.3694 -1.6257 -2.0219 0.9729
6.5086 -0.9358 -2.0225 0.9729
6.5594 -0.4691 -2.0227 0.9729
-5.9018 -0.0000 -1.9618 0.9754
-5.8981 -0.2107 -1.9618 0.9754
-5.8871 -0.4211 -1.9619 0.9754
-5.8687 -0.6310 -1.9620 0.9754
-5.8428 -0.8401 -1.9622 0.9754
-5.8097 -1.0482 -1.9624 0.9754
-5.7215 -1.4603 -1.9628 0.9754
-5.6666 -1.6639 -1.9631 0.9754
-5.6045 -1.8654 -1.9634 0.9754
-5.1899 -2.8339 -1.9656 0.9754
-5.0868 -3.0181 -1.9661 0.9754
-4.8614 -3.3753 -1.9673 0.9754
-4.7393 -3.5478 -1.9679 0.9754
-4.4771 -3.8794 -1.9692 0.9753
-4.3373 -4.0382 -1.9699 0.9753
-3.8853 -4.4839 -1.9722 0.9753
-3.7243 -4.6215 -1.9730 0.9753
-3.0339 -5.1134 -1.9764 0.9752
-2.8508 -5.2208 -1.9773 0.9752
-2.2796 -5.5035 -1.9801 0.9752
-2.0828 -5.5841 -1.9811 0.9752
-1.8831 -5.6577 -1.9821 0.9752
-1.4761 -5.7834 -1.9841 0.9752
-1.0609 -5.8800 -1.9861 0.9751
-0.4269 -5.9690 -1.9892 0.9751
-0.0000 -5.9906 -1.9913 0.9751
0.2139 -5.9899 -1.9923 0.9751
0.8543 -5.9420 -1.9955 0.9750
1.4869 -5.8256 -1.9985 0.9750
1.6947 -5.7717 -1.9996 0.9750
2.1042 -5.6417 -2.0015 0.9749
2.5038 -5.4825 -2.0035 0.9749
2.6991 -5.3922 -2.0044 0.9749
3.0797 -5.1907 -2.0062 0.9749
3.6217 -4.8380 -2.0088 0.9748
4.1230 -4.4284 -2.0112 0.9748
4.4316 -4.1260 -2.0127 0.9748
4.5777 -3.9666 -2.0134 0.9748
5.2170 -3.0954 -2.0164 0.9748
5.4272 -2.7166 -2.0174 0.9747
5.7630 -1.9181 -2.0190 0.9747
5.8286 -1.7114 -2.0193 0.9747
6.0622 -0.4336 -2.0202 0.9747
-5.4881 -0.1960 -1.9638 0.9769
-5.4778 -0.3918 -1.9639 0.9769
-5.4606 -0.5871 -1.9640 0.9769
-5.4366 -0.7817 -1.9641 0.9769
-5.4057 -0.9753 -1.9643 0.9769
-5.3680 -1.1677 -1.9645 0.9769
-5.2146 -1.7356 -1.9653 0.9769
-5.0020 -2.2843 -1.9664 0.9769
-4.8284 -2.6365 -1.9673 0.9769
-4.6304 -2.9758 -1.9683 0.9769
-4.4089 -3.3004 -1.9695 0.9769
-4.2896 -3.4567 -1.9701 0.9769
-3.7590 -4.0374 -1.9727 0.9768
-3.6138 -4.1706 -1.9734 0.9768
-2.6511 -4.8552 -1.9782 0.9768
-2.3000 -5.0363 -1.9800 0.9768
-1.7509 -5.2605 -1.9827 0.9767
-1.3724 -5.3771 -1.9845 0.9767
-1.1802 -5.4252 -1.9855 0.9767
-0.9863 -5.4665 -1.9864 0.9767
-0.5944 -5.5283 -1.9883 0.9767
-0.1987 -5.5620 -1.9903 0.9766
-0.0000 -5.5683 -1.9913 0.9766
0.1988 -5.5674 -1.9922 0.9766
0.3976 -5.5595 -1.9932 0.9766
0.5961 -5.5444 -1.9942 0.9766
1.1871 -5.4568 -1.9970 0.9766
1.3817 -5.4135 -1.9980 0.9765
1.5748 -5.3633 -1.9989 0.9765
1.9552 -5.2421 -2.0008 0.9765
2.1420 -5.1713 -2.0017 0.9765
2.5077 -5.0097 -2.0034 0.9765
2.6861 -4.9191 -2.0043 0.9765
3.0327 -4.7189 -2.0060 0.9765
3.3642 -4.4941 -2.0076 0.9764
3.8296 -4.1133 -2.0098 0.9764
4.3817 -3.5310 -2.0124 0.9764
4.6251 -3.2113 -2.0136 0.9764
4.7380 -3.0450 -2.0141 0.9764
4.8449 -2.8746 -2.0146 0.9764
4.9456 -2.7005 -2.0151 0.9763
5.0399 -2.5228 -2.0155 0.9763
5.1278 -2.3418 -2.0159 0.9763
5.4663 -1.3952 -2.0174 0.9763
5.5132 -1.1993 -2.0177 0.9763
5.5855 -0.8031 -2.0180 0.9763
5.6109 -0.6032 -2.0181 0.9763
-5.1259 -0.1831 -1.9656 0.9783
-5.0136 -1.0907 -1.9662 0.9783
-4.9721 -1.2690 -1.9665 0.9783
-4.9242 -1.4459 -1.9667 0.9783
-4.8702 -1.6210 -1.9670 0.9783
-4.8100 -1.7940 -1.9673 0.9782
-4.7437 -1.9649 -1.9677 0.9782
-4.5933 -2.2992 -1.9684 0.9782
-4.3242 -2.7790 -1.9698 0.9782
-4.2233 -2.9323 -1.9703 0.9782
-4.1171 -3.0820 -1.9709 0.9782
-4.0056 -3.2279 -1.9714 0.9782
-3.7674 -3.5076 -1.9726 0.9782
-3.6410 -3.6410 -1.9732 0.9782
-3.5099 -3.7699 -1.9739 0.9782
-3.0901 -4.1279 -1.9760 0.9782
-2.9419 -4.2371 -1.9767 0.9781
-2.7898 -4.3410 -1.9775 0.9781
-2.6341 -4.4396 -1.9783 0.9781
-2.4750 -4.5326 -1.9790 0.9781
-2.3126 -4.6199 -1.9798 0.9781
-2.1471 -4.7014 -1.9807 0.9781
-1.8077 -4.8467 -1.9823 0.9781
-1.1015 -5.0635 -1.9858 0.9780
-0.9205 -5.1019 -1.9867 0.9780
-0.7381 -5.1338 -1.9876 0.9780
-0.3704 -5.1781 -1.9894 0.9780
0.0000 -5.1960 -1.9912 0.9780
0.1855 -5.1951 -1.9921 0.9780
0.3710 -5.1875 -1.9930 0.9780
0.5562 -5.1733 -1.9939 0.9780
1.2891 -5.0505 -1.9975 0.9779
1.4691 -5.0034 -1.9984 0.9779
1.6475 -4.9500 -1.9992 0.9779
1.9981 -4.8239 -2.0009 0.9779
2.1699 -4.7515 -2.0017 0.9779
2.5054 -4.5883 -2.0034 0.9779
2.6686 -4.4977 -2.0042 0.9778
3.8384 -3.5736 -2.0098 0.9778
3.9646 -3.4354 -2.0104 0.9778
4.2020 -3.1456 -2.0115 0.9778
4.3127 -2.9944 -2.0120 0.9778
4.4179 -2.8392 -2.0125 0.9778
4.5175 -2.6804 -2.0130 0.9778
4.6113 -2.5179 -2.0134 0.9777
4.6992 -2.3522 -2.0138 0.9777
4.9262 -1.8374 -2.0149 0.9777
5.0461 -1.4817 -2.0154 0.9777
5.1400 -1.1181 -2.0158 0.9777
5.1771 -0.9340 -2.0160 0.9777
5.2074 -0.7487 -2.0161 0.9777
5.2480 -0.3754 -2.0163 0.9777
-4.8034 -0.1715 -1.9672 0.9794
-4.7944 -0.3429 -1.9672 0.9794
-4.7793 -0.5138 -1.9673 0.9794
-4.6981 -1.0220 -1.9678 0.9794
-4.6142 -1.3549 -1.9682 0.9794
-4.5636 -1.5189 -1.9685 0.9794
-4.2251 -2.3071 -1.9702 0.9794
-4.1410 -2.4570 -1.9707 0.9794
-4.0516 -2.6038 -1.9711 0.9794
-3.8574 -2.8876 -1.9721 0.9794
-3.7529 -3.0243 -1.9726 0.9794
-3.6436 -3.1572 -1.9732 0.9794
-3.1611 -3.6480 -1.9756 0.9794
-2.7558 -3.9691 -1.9776 0.9793
-2.6133 -4.0664 -1.9783 0.9793
-2.3183 -4.2456 -1.9798 0.9793
-2.0110 -4.4035 -1.9813 0.9793
-1.8533 -4.4743 -1.9821 0.9793
-1.6931 -4.5394 -1.9829 0.9793
-1.3661 -4.6523 -1.9845 0.9793
-1.0315 -4.7419 -1.9861 0.9792
-0.5194 -4.8311 -1.9886 0.9792
-0.3468 -4.8486 -1.9895 0.9792
-0.0000 -4.8651 -1.9912 0.9792
0.1737 -4.8641 -1.9920 0.9792
0.3474 -4.8569 -1.9929 0.9792
0.5207 -4.8434 -1.9937 0.9792
0.8656 -4.7979 -1.9954 0.9791
1.0368 -4.7660 -1.9962 0.9791
1.3753 -4.6837 -1.9979 0.9791
1.5422 -4.6335 -1.9987 0.9791
1.8703 -4.5153 -2.0003 0.9791
2.6472 -4.1192 -2.0040 0.9791
2.9364 -3.9225 -2.0054 0.9790
3.0755 -3.8165 -2.0061 0.9790
3.2108 -3.7055 -2.0067 0.9790
3.3421 -3.5897 -2.0073 0.9790
3.4691 -3.4691 -2.0079 0.9790
3.7099 -3.2146 -2.0091 0.9790
4.1337 -2.6566 -2.0111 0.9790
4.3145 -2.3559 -2.0119 0.9790
4.3967 -2.2008 -2.0123 0.9790
4.5441 -1.8822 -2.0130 0.9790
4.6090 -1.7191 -2.0133 0.9790
4.6681 -1.5537 -2.0136 0.9790
4.7211 -1.3863 -2.0138 0.9790
4.7681 -1.2170 -2.0140 0.9790
4.8089 -1.0461 -2.0142 0.9790
4.8719 -0.7005 -2.0145 0.9790
4.9098 -0.3512 -2.0146 0.9790
4.9193 -0.1757 -2.0146 0.9789
-1.4571 -0.0521 -0.6354 0.9937
-1.3955 -0.2518 -0.6180 0.9938
-1.3688 -0.2978 -0.6105 0.9939
-1.3400 -0.3420 -0.6027 0.9940
-1.3722 -0.4029 -0.6233 0.9938
-1.5118 -0.5639 -0.7032 0.9930
-4.1770 -1.7302 -1.9704 0.9805
-4.1133 -1.8785 -1.9707 0.9805
-3.9703 -2.1679 -1.9715 0.9805
-3.6246 -2.7133 -1.9732 0.9804
-3.3164 -3.0876 -1.9748 0.9804
-3.2049 -3.2049 -1.9753 0.9804
-3.0894 -3.3183 -1.9759 0.9804
-2.9699 -3.4274 -1.9765 0.9804
-2.8466 -3.5324 -1.9771 0.9804
-2.7195 -3.6329 -1.9777 0.9804
-2.4551 -3.8202 -1.9791 0.9804
-2.3179 -3.9067 -1.9797 0.9804
-1.8891 -4.1365 -1.9819 0.9804
-1.7409 -4.2029 -1.9826 0.9803
-1.5904 -4.2639 -1.9833 0.9803
-1.4377 -4.3196 -1.9841 0.9803
-0.9688 -4.4537 -1.9864 0.9803
-0.6492 -4.5150 -1.9880 0.9803
-0.1630 -4.5640 -1.9903 0.9803
0.0000 -4.5687 -1.9911 0.9803
0.1631 -4.5677 -1.9919 0.9803
0.3262 -4.5607 -1.9927 0.9802
0.4890 -4.5480 -1.9935 0.9802
1.2912 -4.3975 -1.9974 0.9802
1.7559 -4.2390 -1.9997 0.9802
1.9067 -4.1752 -2.0004 0.9802
2.0553 -4.1060 -2.0011 0.9802
2.2013 -4.0314 -2.0018 0.9802
2.3446 -3.9516 -2.0025 0.9802
2.8869 -3.5824 -2.0051 0.9801
3.0138 -3.4781 -2.0057 0.9801
3.5884 -2.8917 -2.0085 0.9801
3.6902 -2.7624 -2.0089 0.9801
3.7873 -2.6296 -2.0094 0.9801
3.9669 -2.3537 -2.0102 0.9801
4.0491 -2.2110 -2.0106 0.9801
4.1262 -2.0654 -2.0110 0.9801
4.2644 -1.7664 -2.0116 0.9801
4.5128 -0.9817 -2.0127 0.9801
4.5719 -0.6573 -2.0130 0.9800
4.5926 -0.4937 -2.0131 0.9800
4.6163 -0.1649 -2.0132 0.9800
-1.2261 -0.1318 -0.5708 0.9946
-1.1536 -0.3840 -0.5628 0.9947
-1.2017 -0.4482 -0.5937 0.9944
-1.2345 -0.5113 -0.6185 0.9941
-3.8100 -1.9072 -1.9722 0.9814
-3.7402 -2.0423 -1.9726 0.9814
-3.5864 -2.3048 -1.9734 0.9814
-3.4143 -2.5559 -1.9742 0.9814
-2.9100 -3.1255 -1.9768 0.9814
-2.6812 -3.3271 -1.9779 0.9813
-2.4385 -3.5121 -1.9791 0.9813
-2.3123 -3.5980 -1.9797 0.9813
-2.1831 -3.6794 -1.9804 0.9813
-1.6395 -3.9580 -1.9831 0.9813
-1.4977 -4.0154 -1.9838 0.9813
-1.3539 -4.0678 -1.9845 0.9813
-1.2083 -4.1150 -1.9852 0.9813
-0.7623 -4.2252 -1.9874 0.9813
-0.4593 -4.2720 -1.9889 0.9812
-0.3067 -4.2873 -1.9896 0.9812
-0.1535 -4.2971 -1.9904 0.9812
0.3071 -4.2938 -1.9926 0.9812
0.4603 -4.2817 -1.9933 0.9812
0.6131 -4.2641 -1.9941 0.9812
0.7652 -4.2411 -1.9948 0.9812
0.9164 -4.2126 -1.9956 0.9812
1.3629 -4.0950 -1.9977 0.9812
1.7947 -3.9299 -1.9998 0.9811
2.3388 -3.6393 -2.0024 0.9811
2.4680 -3.5546 -2.0031 0.9811
2.5941 -3.4653 -2.0037 0.9811
2.9521 -3.1708 -2.0054 0.9811
3.0643 -3.0642 -2.0059 0.9811
3.1725 -2.9537 -2.0064 0.9811
3.8101 -2.0805 -2.0094 0.9810
3.9501 -1.8039 -2.0101 0.9810
4.0125 -1.6621 -2.0104 0.9810
4.0698 -1.5180 -2.0106 0.9810
4.1687 -1.2240 -2.0111 0.9810
4.2101 -1.0746 -2.0113 0.9810
4.3017 -0.6185 -2.0117 0.9810
4.3212 -0.4646 -2.0117 0.9810
4.3351 -0.3101 -2.0118 0.9810
4.3435 -0.1551 -2.0118 0.9810
-1.0817 -0.0000 -0.5306 0.9952
-1.0769 -0.0770 -0.5296 0.9952
-1.0705 -0.1151 -0.5281 0.9952
-1.0518 -0.1897 -0.5242 0.9952
-1.0119 -0.3774 -0.5298 0.9952
-1.0290 -0.4262 -0.5463 0.9951
-1.0589 -0.5300 -0.5808 0.9947
-3.3068 -2.2960 -1.9747 0.9822
-3.0445 -2.6380 -1.9760 0.9822
-2.9491 -2.7457 -1.9765 0.9822
-2.8499 -2.8499 -1.9770 0.9822
-2.6408 -3.0476 -1.9781 0.9822
-2.1827 -3.3963 -1.9803 0.9822
-1.9360 -3.5455 -1.9816 0.9822
-1.6792 -3.6770 -1.9828 0.9822
-1.0014 -3.9233 -1.9862 0.9821
-0.5769 -4.0121 -1.9883 0.9821
-0.0000 -4.0591 -1.9911 0.9821
0.4344 -4.0401 -1.9932 0.9821
0.5785 -4.0235 -1.9939 0.9821
0.7220 -4.0016 -1.9946 0.9820
0.8646 -3.9747 -1.9953 0.9820
1.1468 -3.9056 -1.9967 0.9820
1.2859 -3.8635 -1.9973 0.9820
1.8250 -3.6459 -1.9999 0.9820
1.9546 -3.5795 -2.0006 0.9820
2.2063 -3.4331 -2.0018 0.9820
2.4470 -3.2688 -2.0029 0.9820
2.5628 -3.1803 -2.0035 0.9820
2.8903 -2.8903 -2.0050 0.9820
3.2752 -2.4518 -2.0069 0.9819
3.3613 -2.3338 -2.0073 0.9819
3.4432 -2.2128 -2.0077 0.9819
3.5935 -1.9622 -2.0084 0.9819
3.9315 -1.1544 -2.0099 0.9819
4.0045 -0.8711 -2.0102 0.9819
4.0884 -0.2924 -2.0106 0.9819
4.0963 -0.1463 -2.0106 0.9819
-0.9873 -0.0706 -0.5135 0.9955
-0.9785 -0.1407 -0.5129 0.9956
-0.9715 -0.1753 -0.5121 0.9956
-0.9524 -0.2431 -0.5099 0.9956
-0.9268 -0.3085 -0.5067 0.9956
-0.9326 -0.4259 -0.5319 0.9954
-0.9416 -0.4713 -0.5463 0.9953
-3.2738 -1.9424 -1.9748 0.9830
-3.1281 -2.1719 -1.9756 0.9830
-2.8798 -2.4954 -1.9768 0.9830
-2.7896 -2.5972 -1.9773 0.9830
-2.6957 -2.6957 -1.9778 0.9830
-2.5984 -2.7909 -1.9782 0.9830
-2.3939 -2.9707 -1.9793 0.9830
-2.1771 -3.1356 -1.9803 0.9829
-2.0644 -3.2122 -1.9809 0.9829
-1.9490 -3.2848 -1.9815 0.9829
-1.8310 -3.3533 -1.9820 0.9829
-1.5881 -3.4774 -1.9833 0.9829
-1.3368 -3.5841 -1.9845 0.9829
-0.9469 -3.7101 -1.9864 0.9829
-0.6803 -3.7707 -1.9877 0.9829
-0.5455 -3.7938 -1.9884 0.9829
-0.2736 -3.8256 -1.9897 0.9829
-0.1369 -3.8342 -1.9904 0.9829
0.1370 -3.8368 -1.9917 0.9828
0.4107 -3.8198 -1.9930 0.9828
0.5469 -3.8040 -1.9937 0.9828
0.6826 -3.7833 -1.9944 0.9828
0.8174 -3.7577 -1.9950 0.9828
0.9513 -3.7274 -1.9957 0.9828
1.2156 -3.6524 -1.9970 0.9828
1.3456 -3.6078 -1.9976 0.9828
1.4740 -3.5586 -1.9982 0.9828
1.7252 -3.4464 -1.9994 0.9828
1.8476 -3.3837 -2.0000 0.9828
1.9678 -3.3165 -2.0006 0.9828
2.0855 -3.2451 -2.0012 0.9828
2.2006 -3.1695 -2.0017 0.9828
2.3129 -3.0897 -2.0023 0.9828
2.4224 -3.0060 -2.0028 0.9828
2.5288 -2.9184 -2.0033 0.9827
2.6320 -2.8269 -2.0038 0.9827
2.7318 -2.7318 -2.0043 0.9827
3.0955 -2.3172 -2.0060 0.9827
3.1768 -2.2057 -2.0064 0.9827
3.4607 -1.7323 -2.0077 0.9827
3.5208 -1.6079 -2.0080 0.9827
3.5764 -1.4814 -2.0082 0.9827
3.6274 -1.3530 -2.0085 0.9827
3.6738 -1.2228 -2.0087 0.9827
3.7154 -1.0910 -2.0089 0.9827
3.8338 -0.5512 -2.0094 0.9827
3.8512 -0.4140 -2.0094 0.9827
3.8636 -0.2763 -2.0095 0.9827
-0.9182 0.0000 -0.5029 0.9958
-0.9127 -0.0981 -0.5028 0.9958
-0.8837 -0.2255 -0.4995 0.9958
-0.8727 -0.2562 -0.4982 0.9959
-0.8603 -0.2863 -0.4966 0.9959
-0.8465 -0.3157 -0.4948 0.9959
-0.8479 -0.3512 -0.5027 0.9958
-0.8506 -0.3884 -0.5122 0.9957
-0.8516 -0.4263 -0.5216 0.9957
-0.8507 -0.4645 -0.5309 0.9956
-0.8524 -0.5058 -0.5429 0.9955
-2.9641 -2.0580 -1.9764 0.9837
-2.5542 -2.5542 -1.9784 0.9837
-2.3666 -2.7312 -1.9794 0.9837
-2.1668 -2.8946 -1.9804 0.9836
-1.9559 -3.0434 -1.9814 0.9836
-1.5045 -3.2944 -1.9836 0.9836
-1.3864 -3.3470 -1.9842 0.9836
-1.2664 -3.3954 -1.9848 0.9836
-0.8970 -3.5145 -1.9866 0.9836
-0.6444 -3.5718 -1.9879 0.9836
-0.5167 -3.5936 -1.9885 0.9836
-0.1297 -3.6317 -1.9904 0.9836
0.6465 -3.5831 -1.9942 0.9835
1.0267 -3.4967 -1.9960 0.9835
1.1512 -3.4589 -1.9966 0.9835
1.3959 -3.3699 -1.9978 0.9835
1.5157 -3.3189 -1.9984 0.9835
1.6337 -3.2636 -1.9990 0.9835
1.8634 -3.1405 -2.0001 0.9835
1.9748 -3.0728 -2.0006 0.9835
2.0838 -3.0012 -2.0011 0.9835
2.1901 -2.9256 -2.0016 0.9835
2.3944 -2.7633 -2.0026 0.9835
2.4921 -2.6767 -2.0031 0.9835
2.5866 -2.5866 -2.0035 0.9835
2.6779 -2.4932 -2.0040 0.9835
2.9308 -2.1940 -2.0052 0.9834
3.0809 -1.9800 -2.0059 0.9834
3.2154 -1.7557 -2.0065 0.9834
3.3333 -1.5223 -2.0070 0.9834
3.5175 -1.0328 -2.0079 0.9834
3.5524 -0.9067 -2.0080 0.9834
3.6085 -0.6511 -2.0083 0.9834
3.6460 -0.3920 -2.0084 0.9834
-0.8531 -0.0610 -0.4938 0.9961
-0.8230 -0.2100 -0.4904 0.9961
-0.8014 -0.2667 -0.4876 0.9961
-0.7809 -0.3566 -0.4957 0.9960
-0.7806 -0.3908 -0.5040 0.9960
-0.7787 -0.4252 -0.5122 0.9959
-0.7750 -0.4599 -0.5203 0.9958
-0.7696 -0.4946 -0.5282 0.9958
-0.7634 -0.5300 -0.5366 0.9957
-2.6674 -2.1495 -1.9778 0.9843
-2.5895 -2.2438 -1.9782 0.9843
-2.5083 -2.3353 -1.9786 0.9843
-2.0561 -2.7467 -1.9809 0.9843
-1.9573 -2.8190 -1.9814 0.9843
-1.8559 -2.8878 -1.9819 0.9843
-1.3154 -3.1757 -1.9845 0.9842
-1.2016 -3.2215 -1.9851 0.9842
-1.0861 -3.2633 -1.9857 0.9842
-0.9692 -3.3009 -1.9863 0.9842
-0.7317 -3.3636 -1.9874 0.9842
-0.4902 -3.4093 -1.9886 0.9842
-0.3683 -3.4256 -1.9892 0.9842
0.0000 -3.4485 -1.9910 0.9842
0.3690 -3.4319 -1.9928 0.9842
0.6132 -3.3988 -1.9940 0.9842
0.7343 -3.3758 -1.9946 0.9842
0.8546 -3.3484 -1.9952 0.9842
0.9739 -3.3167 -1.9957 0.9842
1.0919 -3.2808 -1.9963 0.9842
1.2087 -3.2406 -1.9969 0.9842
2.2708 -2.6206 -2.0020 0.9841
2.4530 -2.4530 -2.0029 0.9841
2.6228 -2.2727 -2.0037 0.9841
2.7793 -2.0805 -2.0044 0.9841
2.9216 -1.8776 -2.0051 0.9841
2.9872 -1.7724 -2.0054 0.9841
3.1608 -1.4435 -2.0062 0.9841
3.2107 -1.3299 -2.0064 0.9841
3.2980 -1.0977 -2.0068 0.9841
3.3685 -0.8597 -2.0071 0.9841
3.3972 -0.7390 -2.0073 0.9841
3.4216 -0.6173 -2.0074 0.9841
3.4416 -0.4948 -2.0075 0.9841
3.4572 -0.3717 -2.0075 0.9841
3.4750 -0.1241 -2.0076 0.9841
