ply
format ascii 1.0
element vertex 739
property float32 x
property float32 y
property float32 z
property float32 I
end_header
-2.0033 9.2092 -1.3354 0.9626
-2.7118 9.2357 -1.3638 0.9619
-2.3574 9.2364 -1.5704 0.9621
-3.0739 9.2357 -1.6035 0.9613
5.2109 8.1083 -1.8116 0.9615
4.0109 8.7827 -1.8148 0.9615
3.6967 8.9246 -1.8157 0.9614
3.3775 9.0554 -1.8166 0.9614
3.0537 9.1750 -1.8176 0.9614
1.7208 9.5377 -1.8217 0.9613
1.3801 9.5989 -1.8228 0.9613
1.0373 9.6479 -1.8239 0.9613
-0.6022 8.4203 -1.5867 0.9662
-1.0414 9.6861 -1.8311 0.9611
-1.7321 9.6005 -1.8337 0.9611
-1.9857 9.1282 -1.7559 0.9627
-2.6801 9.1276 -1.7880 0.9620
-3.0378 9.1272 -1.8081 0.9616
-3.4041 9.1268 -1.8309 0.9611
-3.7494 9.0518 -1.8416 0.9609
-4.7057 8.6179 -1.8456 0.9608
9.2820 -0.0000 -1.9620 0.9628
9.2738 0.3312 -1.9615 0.9628
9.2540 0.6619 -1.9611 0.9628
8.8940 2.6115 -1.9594 0.9628
8.5626 3.5468 -1.9591 0.9628
7.9718 4.7299 -1.9594 0.9628
7.7986 5.0118 -1.9595 0.9628
7.2210 5.8191 -1.9603 0.9628
7.0100 6.0742 -1.9607 0.9628
6.7901 6.3217 -1.9610 0.9628
6.5615 6.5615 -1.9615 0.9628
6.3247 6.7932 -1.9620 0.9628
6.0798 7.0164 -1.9625 0.9628
5.8271 7.2310 -1.9630 0.9627
5.5613 7.4290 -1.9616 0.9628
3.9432 7.8776 -1.8621 0.9646
3.6077 7.8998 -1.8358 0.9651
2.1317 8.3520 -1.8220 0.9654
1.8332 8.4271 -1.8230 0.9654
1.5320 8.4916 -1.8239 0.9653
0.9234 8.5885 -1.8259 0.9653
0.3087 8.6423 -1.8280 0.9653
0.0000 8.6529 -1.8290 0.9652
-0.5999 8.3875 -1.7775 0.9662
-0.9266 8.6188 -1.8323 0.9652
-1.2344 8.5855 -1.8335 0.9652
-1.5410 8.5413 -1.8346 0.9651
-2.1491 8.4203 -1.8369 0.9651
-2.4499 8.3435 -1.8381 0.9651
-2.7478 8.2560 -1.8393 0.9651
-5.0327 7.8310 -1.9677 0.9627
-5.3820 7.7516 -1.9948 0.9622
-5.6668 7.5699 -1.9988 0.9621
-6.2124 7.1695 -2.0053 0.9620
-6.4683 6.9475 -2.0065 0.9619
-6.7163 6.7162 -2.0077 0.9619
-7.6216 5.7054 -2.0125 0.9618
-8.2013 4.8661 -2.0158 0.9618
-8.5364 4.2730 -2.0179 0.9617
-8.9571 3.3408 -2.0208 0.9617
-9.1807 2.6957 -2.0225 0.9616
-9.2748 2.3673 -2.0234 0.9616
-9.3571 2.0355 -2.0242 0.9616
-9.4273 1.7009 -2.0249 0.9616
-9.5312 1.0247 -2.0263 0.9616
-9.5647 0.6841 -2.0270 0.9616
8.3619 0.0000 -1.9652 0.9662
8.3547 0.2984 -1.9648 0.9662
8.1624 1.7756 -1.9632 0.9663
8.0930 2.0656 -1.9630 0.9663
7.8244 2.9183 -1.9626 0.9663
7.4675 3.7380 -1.9626 0.9663
7.1826 4.2616 -1.9628 0.9663
7.0264 4.5156 -1.9630 0.9663
6.5058 5.2427 -1.9637 0.9663
6.1173 5.6954 -1.9644 0.9662
5.9113 5.9113 -1.9648 0.9662
5.6978 6.1198 -1.9652 0.9662
5.2493 6.5139 -1.9661 0.9662
5.0148 6.6989 -1.9667 0.9662
4.7739 6.8757 -1.9673 0.9662
3.4778 7.6153 -1.9676 0.9662
3.2022 7.7309 -1.9666 0.9662
2.3288 7.9312 -1.9427 0.9666
2.0276 7.9441 -1.9269 0.9669
1.1460 7.9707 -1.8926 0.9675
0.8575 7.9761 -1.8854 0.9676
0.2852 7.9856 -1.8780 0.9677
0.0000 7.9881 -1.8774 0.9677
-0.2852 7.9866 -1.8782 0.9677
-1.1473 7.9795 -1.8947 0.9674
-1.4391 7.9763 -1.9049 0.9672
-2.0311 7.9578 -1.9302 0.9668
-2.3336 7.9476 -1.9467 0.9665
-2.9520 7.9146 -1.9853 0.9659
-4.0719 7.4571 -1.9968 0.9657
-4.5999 7.1577 -1.9996 0.9656
-5.5844 6.4447 -2.0042 0.9656
-5.8141 6.2448 -2.0053 0.9655
-6.0366 6.0366 -2.0064 0.9655
-6.2516 5.8204 -2.0075 0.9655
-6.6579 5.3653 -2.0096 0.9655
-6.8487 5.1269 -2.0106 0.9655
-7.0309 4.8816 -2.0117 0.9654
-7.2042 4.6298 -2.0126 0.9654
-7.9298 3.2846 -2.0172 0.9653
-8.4660 1.5274 -2.0218 0.9653
-8.5178 1.2247 -2.0225 0.9653
-8.5885 0.6143 -2.0237 0.9652
-8.6072 0.3074 -2.0242 0.9652
7.6005 -0.0000 -1.9679 0.9691
7.5941 0.2712 -1.9675 0.9691
7.5179 1.0809 -1.9665 0.9691
7.4199 1.6141 -1.9661 0.9691
7.2032 2.3975 -1.9656 0.9691
6.3873 4.1049 -1.9659 0.9691
5.7408 4.9744 -1.9668 0.9691
5.5605 5.1770 -1.9671 0.9691
5.1790 5.5626 -1.9679 0.9691
4.7711 5.9205 -1.9687 0.9691
3.8842 6.5464 -1.9709 0.9690
3.6492 6.6829 -1.9715 0.9690
3.4094 6.8112 -1.9721 0.9690
3.1652 6.9309 -1.9728 0.9690
2.4089 7.2375 -1.9750 0.9690
1.3564 7.5181 -1.9780 0.9689
-0.0000 7.6495 -1.9806 0.9689
-0.2732 7.6483 -1.9816 0.9689
-1.6327 7.5054 -1.9887 0.9688
-2.1662 7.3774 -1.9908 0.9687
-2.4294 7.2992 -1.9918 0.9687
-3.2008 7.0088 -1.9950 0.9687
-4.8524 6.0214 -2.0023 0.9686
-5.0668 5.8474 -2.0033 0.9685
-5.4765 5.4765 -2.0053 0.9685
-5.6712 5.2801 -2.0063 0.9685
-5.8589 5.0768 -2.0072 0.9685
-6.2120 4.6502 -2.0091 0.9684
-6.3769 4.4276 -2.0101 0.9684
-6.5338 4.1990 -2.0110 0.9684
-6.6825 3.9649 -2.0118 0.9684
-6.8226 3.7254 -2.0127 0.9684
-7.1904 2.9784 -2.0151 0.9684
-7.2949 2.7209 -2.0159 0.9683
-7.3901 2.4596 -2.0166 0.9683
-7.4758 2.1951 -2.0173 0.9683
-7.5519 1.9275 -2.0180 0.9683
-7.6183 1.6573 -2.0187 0.9683
-7.6750 1.3847 -2.0193 0.9683
-7.7218 1.1102 -2.0199 0.9683
-7.7586 0.8341 -2.0204 0.9683
-7.8022 0.2787 -2.0214 0.9683
6.9594 0.0000 -1.9702 0.9715
6.9160 0.7436 -1.9692 0.9715
6.6707 1.9587 -1.9682 0.9715
6.5134 2.4294 -1.9680 0.9715
6.2164 3.1117 -1.9680 0.9715
5.9791 3.5475 -1.9681 0.9715
5.8490 3.7589 -1.9683 0.9715
5.7116 3.9656 -1.9684 0.9715
5.2568 4.5550 -1.9691 0.9715
5.0916 4.7405 -1.9694 0.9715
4.3685 5.4209 -1.9709 0.9715
4.1731 5.5747 -1.9714 0.9715
3.3408 6.1183 -1.9734 0.9714
3.1212 6.2355 -1.9740 0.9714
1.9679 6.7019 -1.9773 0.9714
1.7280 6.7704 -1.9781 0.9714
1.4858 6.8303 -1.9788 0.9714
0.0000 7.0075 -1.9838 0.9713
-0.5004 6.9959 -1.9855 0.9713
-0.7501 6.9767 -1.9864 0.9713
-1.4937 6.8661 -1.9892 0.9712
-2.2222 6.6767 -1.9921 0.9712
-2.4603 6.5963 -1.9930 0.9712
-2.9274 6.4101 -1.9949 0.9711
-3.8172 5.9396 -1.9988 0.9711
-4.0287 5.8024 -1.9997 0.9711
-4.2352 5.6576 -2.0007 0.9710
-4.8224 5.1796 -2.0035 0.9710
-5.3557 4.6407 -2.0062 0.9710
-5.5203 4.4485 -2.0070 0.9710
-5.6780 4.2505 -2.0079 0.9709
-6.1073 3.6236 -2.0103 0.9709
-6.3551 3.1811 -2.0119 0.9709
-6.4670 2.9534 -2.0126 0.9709
-6.6659 2.4862 -2.0140 0.9709
-6.7526 2.2475 -2.0147 0.9708
-6.8307 2.0057 -2.0154 0.9708
-6.9001 1.7611 -2.0160 0.9708
-7.0121 1.2651 -2.0171 0.9708
-7.0547 1.0143 -2.0177 0.9708
-7.0882 0.7621 -2.0182 0.9708
-7.1277 0.2546 -2.0191 0.9708
6.4116 -0.0000 -1.9721 0.9735
6.3932 0.4572 -1.9714 0.9735
6.3719 0.6850 -1.9712 0.9735
6.2070 1.5842 -1.9704 0.9735
6.1462 1.8047 -1.9702 0.9735
5.9175 2.4511 -1.9700 0.9736
5.7276 2.8670 -1.9701 0.9736
5.6218 3.0697 -1.9701 0.9736
5.5089 3.2686 -1.9702 0.9735
5.3890 3.4633 -1.9703 0.9735
5.1291 3.8396 -1.9707 0.9735
4.9893 4.0206 -1.9709 0.9735
4.8432 4.1967 -1.9711 0.9735
4.6910 4.3675 -1.9714 0.9735
4.1994 4.8463 -1.9724 0.9735
3.8445 5.1356 -1.9732 0.9735
3.4699 5.3993 -1.9741 0.9735
3.2758 5.5211 -1.9746 0.9735
3.0775 5.6360 -1.9751 0.9735
2.8751 5.7438 -1.9756 0.9735
2.2467 6.0236 -1.9774 0.9735
1.5915 6.2355 -1.9794 0.9734
1.3684 6.2905 -1.9801 0.9734
1.1434 6.3376 -1.9808 0.9734
0.9168 6.3768 -1.9815 0.9734
0.6889 6.4079 -1.9823 0.9734
0.4600 6.4308 -1.9830 0.9734
0.2302 6.4457 -1.9838 0.9734
0.0000 6.4524 -1.9846 0.9734
-0.9198 6.3974 -1.9879 0.9733
-2.0455 6.1458 -1.9923 0.9733
-2.2646 6.0715 -1.9931 0.9732
-2.6943 5.8997 -1.9949 0.9732
-3.1111 5.6975 -1.9967 0.9732
-3.3139 5.5853 -1.9976 0.9732
-4.0822 5.0657 -2.0010 0.9731
-4.2622 4.9189 -2.0019 0.9731
-4.4369 4.7656 -2.0027 0.9731
-4.6061 4.6061 -2.0036 0.9731
-4.9270 4.2693 -2.0052 0.9731
-5.2232 3.9100 -2.0068 0.9731
-5.4930 3.5301 -2.0083 0.9730
-5.6175 3.3330 -2.0091 0.9730
-5.7350 3.1315 -2.0098 0.9730
-5.8452 2.9259 -2.0105 0.9730
-5.9479 2.7163 -2.0112 0.9730
-6.0430 2.5031 -2.0118 0.9730
-6.1305 2.2865 -2.0125 0.9730
-6.2100 2.0669 -2.0131 0.9730
-6.3453 1.6195 -2.0143 0.9730
-6.4481 1.1634 -2.0153 0.9730
5.9377 0.0000 -1.9737 0.9753
5.6923 1.6714 -1.9720 0.9753
5.6288 1.8734 -1.9719 0.9753
5.5581 2.0731 -1.9719 0.9753
5.3960 2.4643 -1.9718 0.9753
5.3047 2.6553 -1.9719 0.9753
4.1979 4.1979 -1.9734 0.9753
4.0460 4.3457 -1.9737 0.9753
3.5602 4.7558 -1.9748 0.9753
3.3889 4.8809 -1.9752 0.9753
3.2132 4.9998 -1.9756 0.9753
2.8497 5.2188 -1.9765 0.9752
2.4714 5.4116 -1.9776 0.9752
2.0802 5.5773 -1.9787 0.9752
1.6781 5.7149 -1.9799 0.9752
1.4735 5.7730 -1.9805 0.9752
1.2669 5.8238 -1.9812 0.9752
0.6378 5.9320 -1.9832 0.9752
0.4258 5.9531 -1.9839 0.9752
0.0000 5.9727 -1.9854 0.9751
-0.4264 5.9620 -1.9869 0.9751
-0.6392 5.9453 -1.9876 0.9751
-0.8513 5.9210 -1.9884 0.9751
-1.4811 5.8031 -1.9908 0.9751
-1.6880 5.7488 -1.9916 0.9751
-1.8929 5.6872 -1.9924 0.9751
-2.0955 5.6183 -1.9932 0.9750
-2.2957 5.5422 -1.9941 0.9750
-2.4930 5.4590 -1.9949 0.9750
-2.8785 5.2716 -1.9965 0.9750
-3.0661 5.1676 -1.9973 0.9750
-3.4297 4.9397 -1.9990 0.9750
-3.6053 4.8160 -1.9998 0.9750
-3.7764 4.6862 -2.0006 0.9750
-4.2607 4.2607 -2.0029 0.9749
-4.4117 4.1074 -2.0037 0.9749
-4.5572 3.9488 -2.0044 0.9749
-4.6970 3.7850 -2.0052 0.9749
-4.8308 3.6163 -2.0059 0.9749
-4.9586 3.4428 -2.0066 0.9749
-5.0801 3.2648 -2.0073 0.9749
-5.3036 2.8960 -2.0086 0.9749
-5.4054 2.7057 -2.0093 0.9748
-5.5880 2.3146 -2.0105 0.9748
-5.8084 1.7055 -2.0122 0.9748
-5.8671 1.4975 -2.0128 0.9748
-5.9618 1.0756 -2.0137 0.9748
-5.9978 0.8623 -2.0142 0.9748
-6.0260 0.6479 -2.0146 0.9748
-6.0465 0.4325 -2.0150 0.9748
5.4644 0.7856 -1.9742 0.9768
5.4323 0.9801 -1.9740 0.9768
5.1706 1.9285 -1.9735 0.9768
5.0197 2.2924 -1.9734 0.9768
4.9348 2.4702 -1.9735 0.9768
4.8436 2.6448 -1.9735 0.9768
4.2985 3.4639 -1.9742 0.9768
4.1725 3.6155 -1.9744 0.9768
3.6175 4.1748 -1.9754 0.9768
3.4668 4.3020 -1.9758 0.9768
3.1522 4.5400 -1.9765 0.9768
2.9888 4.6506 -1.9769 0.9768
2.8215 4.7553 -1.9773 0.9768
2.6506 4.8541 -1.9778 0.9768
2.1181 5.1134 -1.9793 0.9768
1.3703 5.3688 -1.9815 0.9767
1.1782 5.4160 -1.9821 0.9767
0.7893 5.4896 -1.9833 0.9767
0.5931 5.5161 -1.9840 0.9767
0.3959 5.5356 -1.9846 0.9767
0.1982 5.5481 -1.9853 0.9767
-0.3965 5.5433 -1.9874 0.9767
-0.9878 5.4752 -1.9896 0.9766
-1.5692 5.3442 -1.9918 0.9766
-1.7596 5.2868 -1.9926 0.9766
-1.9479 5.2226 -1.9933 0.9766
-2.4979 4.9902 -1.9956 0.9766
-2.6754 4.8997 -1.9964 0.9766
-2.8497 4.8029 -1.9971 0.9766
-3.0205 4.6999 -1.9979 0.9765
-3.1875 4.5908 -1.9986 0.9765
-3.3506 4.4758 -1.9994 0.9765
-3.5095 4.3550 -2.0001 0.9765
-3.6640 4.2285 -2.0009 0.9765
-3.8140 4.0965 -2.0016 0.9765
-4.0995 3.8167 -2.0030 0.9765
-4.3643 3.5170 -2.0044 0.9765
-4.6072 3.1988 -2.0057 0.9765
-4.8267 2.8638 -2.0070 0.9764
-4.9274 2.6906 -2.0076 0.9764
-5.2662 1.9642 -2.0099 0.9764
-5.3343 1.7754 -2.0105 0.9764
-5.4975 1.1959 -2.0119 0.9764
5.1431 0.3679 -1.9759 0.9782
5.1261 0.5511 -1.9757 0.9782
5.1026 0.7337 -1.9755 0.9782
5.0727 0.9152 -1.9754 0.9782
5.0365 1.0956 -1.9752 0.9782
4.9938 1.2746 -1.9751 0.9782
4.8897 1.6275 -1.9749 0.9782
4.7610 1.9720 -1.9748 0.9782
4.6082 2.3067 -1.9748 0.9782
4.4322 2.6298 -1.9750 0.9782
4.2338 2.9396 -1.9752 0.9782
4.0139 3.2346 -1.9755 0.9782
3.8963 3.3762 -1.9757 0.9782
3.5144 3.7747 -1.9764 0.9781
3.3779 3.8983 -1.9767 0.9781
2.9433 4.2392 -1.9777 0.9781
2.6344 4.4401 -1.9785 0.9781
2.4748 4.5322 -1.9789 0.9781
2.3120 4.6187 -1.9793 0.9781
1.6327 4.9055 -1.9813 0.9781
0.5536 5.1493 -1.9847 0.9781
0.3696 5.1674 -1.9853 0.9781
0.0000 5.1839 -1.9866 0.9780
-1.1042 5.0757 -1.9906 0.9780
-1.2851 5.0348 -1.9913 0.9780
-1.6421 4.9338 -1.9927 0.9780
-1.8178 4.8738 -1.9934 0.9780
-2.1624 4.7351 -1.9948 0.9779
-2.3309 4.6565 -1.9955 0.9779
-2.8183 4.3853 -1.9977 0.9779
-2.9741 4.2834 -1.9984 0.9779
-3.1261 4.1760 -1.9991 0.9779
-3.2743 4.0632 -1.9998 0.9779
-3.4184 3.9451 -2.0004 0.9779
-3.5583 3.8218 -2.0011 0.9779
-3.6937 3.6936 -2.0018 0.9779
-3.8244 3.5606 -2.0024 0.9779
-3.9503 3.4230 -2.0031 0.9779
-4.0713 3.2809 -2.0037 0.9779
-4.1871 3.1344 -2.0044 0.9778
-4.4028 2.8295 -2.0056 0.9778
-4.7660 2.1766 -2.0079 0.9778
-4.8419 2.0056 -2.0084 0.9778
-4.9117 1.8320 -2.0089 0.9778
-4.9752 1.6559 -2.0094 0.9778
-5.0323 1.4776 -2.0099 0.9778
-5.0830 1.2973 -2.0103 0.9778
-5.1957 0.7470 -2.0116 0.9778
-5.2200 0.5612 -2.0119 0.9778
4.8283 0.1724 -1.9774 0.9793
4.7807 0.6874 -1.9767 0.9793
4.7187 1.0265 -1.9764 0.9793
4.5813 1.5248 -1.9761 0.9793
4.4607 1.8477 -1.9761 0.9793
4.3176 2.1612 -1.9761 0.9793
4.2378 2.3140 -1.9761 0.9793
4.1526 2.4638 -1.9762 0.9793
3.9667 2.7541 -1.9764 0.9793
3.8661 2.8941 -1.9765 0.9793
3.6504 3.1631 -1.9769 0.9793
3.5356 3.2917 -1.9771 0.9793
3.4162 3.4162 -1.9773 0.9793
3.0327 3.7634 -1.9781 0.9793
2.8969 3.8698 -1.9784 0.9793
2.6144 4.0680 -1.9791 0.9793
2.4680 4.1595 -1.9795 0.9793
2.3184 4.2458 -1.9799 0.9793
2.1658 4.3268 -1.9803 0.9793
2.0105 4.4022 -1.9807 0.9793
1.8525 4.4722 -1.9812 0.9793
1.6920 4.5365 -1.9816 0.9793
1.3648 4.6480 -1.9826 0.9793
1.1983 4.6949 -1.9831 0.9793
1.0302 4.7360 -1.9836 0.9793
0.6901 4.8001 -1.9847 0.9793
0.5185 4.8230 -1.9853 0.9793
0.3462 4.8398 -1.9859 0.9792
-0.3466 4.8457 -1.9883 0.9792
-0.6918 4.8117 -1.9896 0.9792
-0.8634 4.7855 -1.9902 0.9792
-1.0340 4.7532 -1.9908 0.9792
-1.2034 4.7148 -1.9915 0.9792
-1.3713 4.6704 -1.9922 0.9792
-1.5377 4.6199 -1.9928 0.9792
-1.8646 4.5015 -1.9941 0.9792
-2.1824 4.3599 -1.9955 0.9791
-2.4895 4.1959 -1.9968 0.9791
-2.6386 4.1057 -1.9975 0.9791
-3.0654 3.8039 -1.9994 0.9791
-3.2002 3.6932 -2.0001 0.9791
-3.3310 3.5778 -2.0007 0.9791
-3.4577 3.4577 -2.0013 0.9791
-3.6978 3.2042 -2.0026 0.9791
-3.8110 3.0711 -2.0032 0.9791
-3.9193 2.9340 -2.0037 0.9791
-4.1210 2.6484 -2.0049 0.9791
-4.2141 2.5003 -2.0054 0.9790
-4.3018 2.3489 -2.0060 0.9790
-4.3840 2.1945 -2.0065 0.9790
-4.4607 2.0371 -2.0070 0.9790
-4.5969 1.7146 -2.0080 0.9790
-4.6562 1.5497 -2.0084 0.9790
-4.7570 1.2141 -2.0093 0.9790
-4.8623 0.6991 -2.0105 0.9790
-4.9115 0.1754 -2.0115 0.9790
4.5400 -0.0000 -1.9786 0.9804
4.5366 0.1620 -1.9784 0.9804
4.4920 0.6458 -1.9778 0.9804
4.4338 0.9645 -1.9775 0.9804
4.3963 1.1221 -1.9774 0.9804
4.3533 1.2782 -1.9773 0.9804
4.3047 1.4327 -1.9773 0.9804
4.2507 1.5854 -1.9772 0.9804
4.1914 1.7361 -1.9772 0.9804
4.0569 2.0307 -1.9772 0.9804
3.9019 2.3151 -1.9773 0.9804
3.8169 2.4530 -1.9774 0.9804
3.6327 2.7194 -1.9776 0.9804
3.5336 2.8475 -1.9778 0.9804
3.4300 2.9721 -1.9780 0.9804
2.9734 3.4315 -1.9788 0.9804
2.8494 3.5359 -1.9791 0.9804
2.4563 3.8221 -1.9801 0.9804
2.0348 4.0650 -1.9812 0.9804
1.8888 4.1359 -1.9816 0.9804
1.4368 4.3169 -1.9829 0.9803
0.8086 4.4819 -1.9848 0.9803
0.6483 4.5091 -1.9853 0.9803
0.4871 4.5305 -1.9859 0.9803
-0.6498 4.5193 -1.9899 0.9803
-0.9711 4.4642 -1.9911 0.9803
-1.4441 4.3388 -1.9929 0.9802
-1.7510 4.2274 -1.9942 0.9802
-1.9014 4.1635 -1.9948 0.9802
-2.3378 3.9401 -1.9967 0.9802
-2.8782 3.5717 -1.9991 0.9802
-3.0048 3.4677 -1.9997 0.9802
-3.2465 3.2465 -2.0009 0.9802
-3.4718 3.0083 -2.0021 0.9802
-4.0384 2.2051 -2.0053 0.9801
-4.1155 2.0601 -2.0058 0.9801
-4.1874 1.9123 -2.0062 0.9801
-4.2540 1.7621 -2.0067 0.9801
-1.5118 0.5639 -0.7032 0.9930
-1.4401 0.4793 -0.6615 0.9934
-1.3688 0.2978 -0.6105 0.9939
-1.3955 0.2518 -0.6180 0.9938
-1.4359 0.1544 -0.6294 0.9937
-1.4490 0.1036 -0.6331 0.9937
4.2765 0.0000 -1.9795 0.9813
4.2647 0.3050 -1.9791 0.9813
4.2507 0.4570 -1.9789 0.9813
4.2314 0.6084 -1.9788 0.9813
4.2067 0.7589 -1.9786 0.9813
4.1766 0.9086 -1.9785 0.9813
4.1413 1.0570 -1.9784 0.9813
4.1008 1.2041 -1.9783 0.9813
4.0550 1.3496 -1.9783 0.9813
4.0042 1.4935 -1.9782 0.9813
3.9483 1.6354 -1.9782 0.9813
3.8874 1.7753 -1.9782 0.9813
3.8216 1.9129 -1.9782 0.9813
3.5110 2.4377 -1.9785 0.9813
3.4219 2.5616 -1.9786 0.9813
3.1293 2.9134 -1.9791 0.9813
3.0236 3.0236 -1.9793 0.9813
2.6840 3.3307 -1.9800 0.9813
2.5638 3.4248 -1.9803 0.9813
2.4403 3.5147 -1.9806 0.9813
2.3136 3.6001 -1.9809 0.9813
2.1841 3.6810 -1.9812 0.9813
2.0516 3.7573 -1.9816 0.9813
1.7790 3.8955 -1.9823 0.9813
1.4972 4.0141 -1.9831 0.9813
1.2076 4.1125 -1.9840 0.9813
0.9115 4.1901 -1.9849 0.9813
0.4587 4.2667 -1.9864 0.9813
0.1532 4.2908 -1.9874 0.9813
0.0000 4.2946 -1.9879 0.9812
-0.3065 4.2861 -1.9890 0.9812
-0.4595 4.2736 -1.9896 0.9812
-0.7636 4.2323 -1.9907 0.9812
-0.9144 4.2036 -1.9913 0.9812
-1.2127 4.1300 -1.9924 0.9812
-1.5051 4.0354 -1.9936 0.9812
-1.7902 3.9200 -1.9948 0.9812
-2.3326 3.6296 -1.9971 0.9812
-2.4614 3.5450 -1.9977 0.9812
-2.5871 3.4559 -1.9983 0.9812
-2.7096 3.3623 -1.9989 0.9811
-2.9442 3.1623 -2.0000 0.9811
-3.0560 3.0560 -2.0005 0.9811
-3.1640 2.9458 -2.0011 0.9811
-3.3679 2.7140 -2.0022 0.9811
-3.4635 2.5928 -2.0027 0.9811
-3.5548 2.4681 -2.0032 0.9811
-3.6415 2.3403 -2.0037 0.9811
-3.8010 2.0755 -2.0046 0.9811
-3.9412 1.7999 -2.0056 0.9811
-1.2345 0.5113 -0.6185 0.9941
-1.2017 0.4482 -0.5937 0.9944
-1.1536 0.3840 -0.5628 0.9947
-1.1330 0.3327 -0.5466 0.9948
-1.1575 0.2954 -0.5529 0.9947
-1.1790 0.2565 -0.5585 0.9947
-1.1974 0.2160 -0.5632 0.9947
-1.2261 0.1318 -0.5708 0.9946
-1.2362 0.0884 -0.5737 0.9946
-1.2424 0.0444 -0.5755 0.9945
4.0373 0.0000 -1.9804 0.9822
4.0130 0.4314 -1.9798 0.9822
3.9947 0.5743 -1.9797 0.9822
3.8715 1.1368 -1.9792 0.9822
3.8283 1.2742 -1.9792 0.9822
3.7803 1.4100 -1.9791 0.9822
3.6701 1.6761 -1.9791 0.9822
3.6079 1.8060 -1.9791 0.9822
3.4701 2.0589 -1.9792 0.9822
3.3945 2.1815 -1.9793 0.9822
3.3146 2.3014 -1.9794 0.9822
3.1424 2.5323 -1.9796 0.9822
3.0503 2.6431 -1.9798 0.9822
2.9542 2.7505 -1.9800 0.9822
2.8544 2.8545 -1.9801 0.9822
2.7510 2.9548 -1.9804 0.9822
2.6441 3.0515 -1.9806 0.9822
2.5338 3.1443 -1.9808 0.9822
2.4203 3.2332 -1.9811 0.9822
2.3037 3.3179 -1.9814 0.9822
2.0618 3.4749 -1.9820 0.9822
1.9367 3.5468 -1.9823 0.9822
1.6794 3.6773 -1.9830 0.9822
1.4133 3.7892 -1.9838 0.9821
1.2774 3.8380 -1.9842 0.9821
0.8604 3.9551 -1.9854 0.9821
0.5763 4.0082 -1.9864 0.9821
0.0000 4.0534 -1.9883 0.9821
-0.1447 4.0519 -1.9888 0.9821
-0.2893 4.0452 -1.9893 0.9821
-0.4336 4.0333 -1.9899 0.9821
-0.8630 3.9671 -1.9915 0.9821
-1.2832 3.8553 -1.9931 0.9821
-1.5558 3.7560 -1.9942 0.9821
-1.6893 3.6991 -1.9948 0.9820
-1.8208 3.6375 -1.9953 0.9820
-1.9500 3.5711 -1.9959 0.9820
-2.0768 3.5003 -1.9964 0.9820
-2.4411 3.2609 -1.9981 0.9820
-2.8833 2.8833 -2.0002 0.9820
-3.0833 2.6717 -2.0012 0.9820
-3.2676 2.4461 -2.0022 0.9820
-3.3537 2.3285 -2.0027 0.9820
-3.4354 2.2078 -2.0032 0.9820
-3.5129 2.0843 -2.0036 0.9820
-3.5858 1.9580 -2.0041 0.9820
-1.0444 0.4769 -0.5632 0.9949
-1.0025 0.3337 -0.5183 0.9953
-1.0175 0.2988 -0.5202 0.9953
-1.0611 0.1526 -0.5258 0.9952
-1.0705 0.1151 -0.5281 0.9952
-1.0769 0.0770 -0.5296 0.9952
3.8084 0.2724 -1.9808 0.9829
3.7960 0.4081 -1.9806 0.9829
3.6621 1.0753 -1.9800 0.9829
3.6213 1.2053 -1.9800 0.9829
3.5759 1.3338 -1.9800 0.9829
3.5260 1.4605 -1.9799 0.9829
3.4129 1.7084 -1.9800 0.9829
3.0559 2.2876 -1.9803 0.9829
2.9725 2.3954 -1.9804 0.9829
2.7944 2.6017 -1.9807 0.9829
2.7000 2.7000 -1.9809 0.9829
2.5011 2.8864 -1.9813 0.9829
2.0659 3.2146 -1.9824 0.9829
1.7112 3.4186 -1.9833 0.9829
1.4635 3.5332 -1.9840 0.9829
1.3367 3.5838 -1.9843 0.9829
1.2082 3.6300 -1.9847 0.9829
0.8137 3.7406 -1.9859 0.9829
0.6798 3.7681 -1.9864 0.9829
0.5450 3.7908 -1.9868 0.9829
0.4095 3.8087 -1.9872 0.9829
0.2733 3.8217 -1.9877 0.9829
0.1368 3.8299 -1.9882 0.9829
0.0000 3.8333 -1.9886 0.9829
-0.1369 3.8318 -1.9891 0.9829
-0.2736 3.8254 -1.9896 0.9829
-0.8160 3.7513 -1.9916 0.9828
-1.3430 3.6008 -1.9937 0.9828
-1.8437 3.3765 -1.9958 0.9828
-1.9636 3.3094 -1.9963 0.9828
-2.0810 3.2381 -1.9968 0.9828
-2.1958 3.1626 -1.9974 0.9828
-2.3079 3.0830 -1.9979 0.9828
-2.5232 2.9120 -1.9989 0.9828
-2.6262 2.8207 -1.9994 0.9828
-2.8221 2.6275 -2.0004 0.9828
-2.9148 2.5257 -2.0009 0.9828
-3.1703 2.2012 -2.0022 0.9828
-3.2476 2.0871 -2.0027 0.9828
-3.3207 1.9703 -2.0031 0.9828
-0.9271 0.3840 -0.5206 0.9955
-0.9208 0.3434 -0.5098 0.9956
-0.9715 0.1753 -0.5121 0.9956
-0.9785 0.1407 -0.5129 0.9956
-0.9838 0.1058 -0.5133 0.9956
-0.9873 0.0706 -0.5135 0.9955
-0.9893 0.0353 -0.5135 0.9955
3.6086 0.2581 -1.9815 0.9836
3.5805 0.5148 -1.9812 0.9836
3.5342 0.7688 -1.9810 0.9836
3.5044 0.8944 -1.9809 0.9836
3.4701 1.0189 -1.9808 0.9836
3.4314 1.1421 -1.9808 0.9836
3.3884 1.2638 -1.9807 0.9836
3.3411 1.3839 -1.9807 0.9836
3.2896 1.5023 -1.9807 0.9836
3.1103 1.8454 -1.9808 0.9836
2.8956 2.1676 -1.9811 0.9836
2.7339 2.3689 -1.9813 0.9836
2.6478 2.4652 -1.9815 0.9836
2.2709 2.8180 -1.9822 0.9836
2.0646 2.9736 -1.9827 0.9836
1.9574 3.0458 -1.9830 0.9836
1.7356 3.1786 -1.9836 0.9836
1.5049 3.2954 -1.9842 0.9836
1.2664 3.3955 -1.9849 0.9836
1.1447 3.4392 -1.9852 0.9836
1.0214 3.4785 -1.9856 0.9836
0.7709 3.5439 -1.9864 0.9836
0.6441 3.5698 -1.9868 0.9836
0.5163 3.5913 -1.9872 0.9836
0.3879 3.6082 -1.9876 0.9836
-0.3885 3.6131 -1.9903 0.9836
-0.7730 3.5535 -1.9918 0.9836
-0.8996 3.5245 -1.9923 0.9835
-1.1493 3.4531 -1.9932 0.9835
-1.3934 3.3639 -1.9942 0.9835
-1.8598 3.1345 -1.9962 0.9835
-1.9710 3.0669 -1.9967 0.9835
-2.0797 2.9953 -1.9972 0.9835
-2.1858 2.9199 -1.9977 0.9835
-2.3897 2.7579 -1.9987 0.9835
-2.4872 2.6714 -1.9991 0.9835
-2.5816 2.5816 -1.9996 0.9835
-2.6727 2.4883 -2.0001 0.9835
-3.0023 2.0845 -2.0018 0.9835
-0.8507 0.4645 -0.5309 0.9956
-0.8516 0.4263 -0.5216 0.9957
-0.8506 0.3885 -0.5122 0.9957
-0.8465 0.3157 -0.4948 0.9959
-0.8603 0.2863 -0.4966 0.9959
-0.8727 0.2563 -0.4982 0.9959
-0.8837 0.2255 -0.4995 0.9958
-0.9011 0.1626 -0.5015 0.9958
-0.9127 0.0981 -0.5028 0.9958
-0.9161 0.0655 -0.5030 0.9958
3.4338 -0.0000 -1.9825 0.9843
3.4313 0.1225 -1.9823 0.9843
3.4245 0.2449 -1.9822 0.9843
3.3978 0.4885 -1.9819 0.9843
3.3780 0.6095 -1.9818 0.9843
3.2564 1.0838 -1.9815 0.9843
3.1218 1.4257 -1.9814 0.9843
3.0122 1.6448 -1.9815 0.9843
2.9516 1.7513 -1.9815 0.9843
2.8194 1.9575 -1.9816 0.9843
2.7478 2.0570 -1.9817 0.9843
2.6728 2.1539 -1.9819 0.9843
2.5944 2.2481 -1.9820 0.9843
2.4278 2.4278 -1.9823 0.9843
2.3398 2.5131 -1.9825 0.9843
2.1550 2.6742 -1.9829 0.9843
2.0584 2.7497 -1.9831 0.9843
1.9592 2.8218 -1.9833 0.9843
1.8575 2.8903 -1.9836 0.9843
1.7534 2.9551 -1.9838 0.9843
1.3157 3.1765 -1.9850 0.9842
0.8509 3.3337 -1.9864 0.9842
0.7315 3.3626 -1.9868 0.9842
0.6111 3.3872 -1.9872 0.9842
0.1229 3.4425 -1.9888 0.9842
0.0000 3.4455 -1.9892 0.9842
-0.3685 3.4280 -1.9906 0.9842
-0.4908 3.4134 -1.9910 0.9842
-1.3218 3.1912 -1.9943 0.9842
-1.4352 3.1427 -1.9947 0.9842
-1.6566 3.0338 -1.9957 0.9842
-1.7642 2.9734 -1.9961 0.9842
-1.8697 2.9092 -1.9966 0.9842
-1.9728 2.8413 -1.9971 0.9842
-2.5351 2.3603 -1.9998 0.9841
-2.6183 2.2687 -2.0002 0.9841
-2.7746 2.0771 -2.0011 0.9841
-0.7796 0.3229 -0.4872 0.9961
-0.7887 0.2942 -0.4860 0.9961
-0.8014 0.2667 -0.4876 0.9961
-0.8128 0.2387 -0.4891 0.9961
-0.8230 0.2101 -0.4904 0.9961
-0.8499 0.0914 -0.4935 0.9961
