ply
format ascii 1.0
element vertex 749
property float32 x
property float32 y
property float32 z
property float32 I
end_header
0.3058 8.5625 -1.2140 0.9660
-1.6692 9.2514 -1.3320 0.9627
-2.7133 9.2404 -1.3646 0.9618
-3.0743 9.2367 -1.3793 0.9614
0.3048 8.5337 -1.4067 0.9660
-1.6694 9.2523 -1.5488 0.9626
-3.0746 9.2376 -1.6039 0.9613
6.1537 7.6362 -1.8434 0.9609
5.5047 7.9283 -1.8142 0.9615
5.2152 8.1150 -1.8131 0.9615
4.9195 8.2913 -1.8121 0.9615
3.9987 8.7559 -1.8093 0.9616
3.3606 9.0103 -1.8075 0.9616
3.0356 9.1205 -1.8068 0.9616
2.7070 9.2192 -1.8060 0.9616
2.0409 9.3817 -1.8046 0.9617
1.7041 9.4453 -1.8040 0.9617
1.3655 9.4971 -1.8034 0.9617
1.0253 9.5370 -1.8029 0.9617
0.6841 9.5650 -1.8024 0.9617
-1.0068 9.3640 -1.7702 0.9624
-1.3162 9.1540 -1.7383 0.9631
-2.6837 9.1396 -1.7904 0.9620
-3.3474 8.9748 -1.8004 0.9618
-3.6659 8.8503 -1.8006 0.9618
-3.9799 8.7148 -1.8008 0.9618
-4.2890 8.5684 -1.8010 0.9618
-4.5929 8.4113 -1.8013 0.9617
-5.1834 8.0655 -1.8021 0.9617
-5.4693 7.8773 -1.8025 0.9617
-5.8538 7.8197 -1.8360 0.9610
9.4731 0.0000 -2.0024 0.9620
9.3994 1.0106 -1.9983 0.9621
9.2905 1.6762 -1.9955 0.9621
9.2183 2.0053 -1.9941 0.9622
8.9323 2.9730 -1.9899 0.9622
8.3950 4.2023 -1.9844 0.9623
7.0624 6.1196 -1.9753 0.9625
6.8352 6.3638 -1.9741 0.9625
6.5997 6.5997 -1.9729 0.9626
6.3562 6.8271 -1.9717 0.9626
6.1049 7.0454 -1.9706 0.9626
5.8439 7.2518 -1.9687 0.9626
5.5708 7.4417 -1.9650 0.9627
5.2921 7.6221 -1.9614 0.9628
4.9858 7.7581 -1.9494 0.9630
4.2816 7.8412 -1.8885 0.9641
3.9429 7.8770 -1.8620 0.9646
3.2899 7.9426 -1.8172 0.9655
1.8186 8.3601 -1.8085 0.9656
1.5186 8.4171 -1.8079 0.9656
1.2169 8.4635 -1.8074 0.9656
0.6097 8.5245 -1.8065 0.9657
-0.0000 8.5428 -1.8058 0.9657
-0.9128 8.4902 -1.8050 0.9657
-1.2151 8.4514 -1.8048 0.9657
-1.8147 8.3422 -1.8046 0.9657
-2.1113 8.2719 -1.8046 0.9657
-2.6961 8.1005 -1.8046 0.9657
-3.9887 7.9684 -1.8836 0.9642
-4.3343 7.9377 -1.9117 0.9637
-4.9878 7.7612 -1.9501 0.9630
-5.2693 7.5893 -1.9530 0.9629
-5.5454 7.4078 -1.9560 0.9629
-5.8093 7.2089 -1.9570 0.9629
-6.0647 6.9990 -1.9576 0.9628
-6.3126 6.7802 -1.9582 0.9628
-6.5527 6.5527 -1.9588 0.9628
-7.8148 5.0223 -1.9636 0.9627
-8.1610 4.4563 -1.9655 0.9627
-8.3191 4.1642 -1.9665 0.9627
-8.4669 3.8667 -1.9675 0.9627
-8.6041 3.5640 -1.9686 0.9626
-9.0446 2.3085 -1.9731 0.9626
-9.1976 1.6594 -1.9756 0.9625
-9.2568 1.3309 -1.9768 0.9625
-9.3044 1.0003 -1.9781 0.9625
8.5157 0.0000 -2.0014 0.9656
8.5051 0.3038 -2.0002 0.9656
8.4512 0.9086 -1.9977 0.9657
8.3544 1.5073 -1.9952 0.9657
8.2153 2.0968 -1.9927 0.9658
7.9291 2.9574 -1.9889 0.9658
7.8136 3.2365 -1.9877 0.9658
7.6883 3.5111 -1.9864 0.9659
7.5534 3.7810 -1.9852 0.9659
7.4091 4.0457 -1.9840 0.9659
7.0931 4.5584 -1.9816 0.9659
6.7418 5.0469 -1.9793 0.9660
6.3573 5.5087 -1.9770 0.9660
5.9416 5.9416 -1.9748 0.9661
5.7227 6.1466 -1.9738 0.9661
5.0251 6.7128 -1.9707 0.9661
4.0112 7.3461 -1.9671 0.9662
3.4698 7.5978 -1.9631 0.9663
2.3431 7.9800 -1.9547 0.9664
1.4485 8.0285 -1.9173 0.9670
1.1564 8.0427 -1.9097 0.9672
0.5764 8.0595 -1.8990 0.9673
0.2881 8.0658 -1.8968 0.9674
-0.0000 8.0716 -1.8970 0.9674
-0.5774 8.0732 -1.9022 0.9673
-0.8678 8.0712 -1.9079 0.9672
-1.7522 8.0548 -1.9373 0.9667
-2.0522 8.0402 -1.9502 0.9665
-2.3391 7.9664 -1.9513 0.9665
-2.6238 7.8831 -1.9526 0.9664
-3.9938 7.3142 -1.9586 0.9663
-4.2530 7.1680 -1.9589 0.9663
-4.5070 7.0129 -1.9592 0.9663
-4.7553 6.8490 -1.9596 0.9663
-4.9978 6.6763 -1.9600 0.9663
-5.9035 5.9035 -1.9621 0.9663
-6.5073 5.2439 -1.9641 0.9662
-6.6928 5.0101 -1.9649 0.9662
-6.8700 4.7699 -1.9656 0.9662
-7.8613 2.9321 -1.9719 0.9661
-7.9651 2.6510 -1.9729 0.9661
-8.2792 1.4937 -1.9772 0.9660
-8.3320 1.1980 -1.9784 0.9660
-8.4061 0.6012 -1.9807 0.9660
7.7265 0.0000 -2.0005 0.9686
7.6693 0.8246 -1.9972 0.9686
7.5244 1.6368 -1.9938 0.9687
7.2938 2.4276 -1.9904 0.9687
7.1984 2.6849 -1.9892 0.9688
6.8585 3.4332 -1.9859 0.9688
6.7279 3.6737 -1.9848 0.9688
6.5889 3.9094 -1.9837 0.9688
6.2864 4.3647 -1.9815 0.9689
5.9527 4.7970 -1.9794 0.9689
5.7747 5.0038 -1.9784 0.9689
5.1990 5.5841 -1.9755 0.9690
4.9940 5.7634 -1.9745 0.9690
4.5659 6.0994 -1.9727 0.9690
3.8828 6.5441 -1.9702 0.9690
3.6453 6.6758 -1.9694 0.9691
3.1574 6.9137 -1.9679 0.9691
2.3978 7.2043 -1.9659 0.9691
2.1385 7.2831 -1.9653 0.9691
1.8766 7.3527 -1.9648 0.9691
1.0791 7.5055 -1.9633 0.9692
0.5407 7.5603 -1.9625 0.9692
0.2705 7.5734 -1.9622 0.9692
-0.2704 7.5712 -1.9616 0.9692
-0.5404 7.5558 -1.9613 0.9692
-0.8097 7.5310 -1.9612 0.9692
-1.6098 7.4000 -1.9608 0.9692
-2.1336 7.2662 -1.9608 0.9692
-2.6467 7.0959 -1.9609 0.9692
-2.8984 6.9974 -1.9610 0.9692
-3.3909 6.7740 -1.9614 0.9692
-4.0973 6.3755 -1.9622 0.9692
-4.7581 5.9045 -1.9634 0.9692
-5.1698 5.5527 -1.9643 0.9691
-5.3661 5.3661 -1.9649 0.9691
-5.5558 5.1727 -1.9654 0.9691
-6.2437 4.3351 -1.9681 0.9691
-6.3968 4.1110 -1.9688 0.9691
-6.5420 3.8815 -1.9695 0.9691
-6.6791 3.6470 -1.9703 0.9690
-6.8078 3.4077 -1.9712 0.9690
-6.9281 3.1639 -1.9720 0.9690
-7.0397 2.9159 -1.9729 0.9690
-7.1425 2.6640 -1.9738 0.9690
-7.2364 2.4085 -1.9747 0.9690
-7.3213 2.1497 -1.9756 0.9690
-7.5679 1.0881 -1.9796 0.9689
-7.6059 0.8177 -1.9807 0.9689
-7.6344 0.5460 -1.9817 0.9689
7.0390 0.5034 -1.9978 0.9711
6.9340 1.2510 -1.9947 0.9711
6.8814 1.4970 -1.9936 0.9711
6.8200 1.7407 -1.9926 0.9712
6.7500 1.9820 -1.9915 0.9712
6.6715 2.2205 -1.9905 0.9712
6.4893 2.6880 -1.9884 0.9712
6.3859 2.9163 -1.9874 0.9712
6.2746 3.1408 -1.9864 0.9713
6.0284 3.5768 -1.9844 0.9713
5.7522 3.9938 -1.9824 0.9713
5.6032 4.1945 -1.9815 0.9713
5.4473 4.3897 -1.9805 0.9713
5.2847 4.5792 -1.9796 0.9713
4.9400 4.9400 -1.9777 0.9714
4.5710 5.2752 -1.9760 0.9714
4.1795 5.5832 -1.9744 0.9714
3.9759 5.7264 -1.9736 0.9714
3.7675 5.8624 -1.9728 0.9714
3.5545 5.9909 -1.9720 0.9715
3.3373 6.1117 -1.9713 0.9715
2.6621 6.4270 -1.9693 0.9715
2.1955 6.5965 -1.9681 0.9715
1.9581 6.6688 -1.9676 0.9715
1.7184 6.7327 -1.9671 0.9715
1.2331 6.8349 -1.9661 0.9715
0.9882 6.8731 -1.9657 0.9715
0.7421 6.9026 -1.9653 0.9716
0.2477 6.9356 -1.9647 0.9716
-0.4949 6.9198 -1.9639 0.9716
-0.9872 6.8657 -1.9636 0.9716
-1.4743 6.7772 -1.9634 0.9716
-1.7152 6.7202 -1.9634 0.9716
-2.1903 6.5808 -1.9635 0.9716
-2.4239 6.4987 -1.9635 0.9716
-2.6545 6.4084 -1.9636 0.9716
-3.1054 6.2038 -1.9640 0.9716
-3.5409 5.9679 -1.9644 0.9716
-3.9588 5.7018 -1.9651 0.9716
-4.1606 5.5579 -1.9654 0.9716
-4.9136 4.9136 -1.9672 0.9715
-5.0872 4.7363 -1.9677 0.9715
-5.5693 4.1691 -1.9695 0.9715
-5.7164 3.9690 -1.9701 0.9715
-5.8564 3.7637 -1.9708 0.9715
-6.1144 3.3387 -1.9722 0.9715
-6.2321 3.1195 -1.9729 0.9714
-6.3419 2.8963 -1.9737 0.9714
-6.5377 2.4384 -1.9753 0.9714
-6.6234 2.2045 -1.9762 0.9714
-6.8303 1.4858 -1.9788 0.9714
-6.8822 1.2417 -1.9797 0.9713
-6.9254 0.9957 -1.9807 0.9713
-7.0024 0.2501 -1.9836 0.9713
6.4998 0.0000 -1.9992 0.9732
6.4534 0.6938 -1.9964 0.9732
6.4215 0.9233 -1.9954 0.9732
6.3814 1.1513 -1.9945 0.9732
6.3332 1.3777 -1.9935 0.9732
6.2770 1.6021 -1.9926 0.9733
5.9736 2.4744 -1.9887 0.9733
5.4267 3.4875 -1.9841 0.9734
5.2963 3.6773 -1.9832 0.9734
5.1594 3.8623 -1.9823 0.9734
5.0160 4.0422 -1.9814 0.9734
4.8664 4.2168 -1.9806 0.9734
4.7108 4.3859 -1.9797 0.9734
4.3823 4.7069 -1.9781 0.9734
4.2098 4.8584 -1.9773 0.9735
3.6621 5.2745 -1.9750 0.9735
3.0741 5.6299 -1.9730 0.9735
2.8703 5.7342 -1.9723 0.9735
2.6630 5.8311 -1.9717 0.9735
2.4524 5.9207 -1.9711 0.9735
1.8040 6.1440 -1.9695 0.9736
1.5832 6.2030 -1.9691 0.9736
1.3605 6.2541 -1.9686 0.9736
0.9105 6.3326 -1.9678 0.9736
0.6838 6.3600 -1.9675 0.9736
0.4562 6.3793 -1.9671 0.9736
0.2282 6.3905 -1.9668 0.9736
0.0000 6.3938 -1.9666 0.9736
-0.2282 6.3889 -1.9664 0.9736
-0.9096 6.3264 -1.9659 0.9736
-1.3585 6.2448 -1.9657 0.9736
-1.5805 6.1923 -1.9657 0.9736
-1.8005 6.1320 -1.9657 0.9736
-2.0183 6.0639 -1.9657 0.9736
-2.4459 5.9050 -1.9659 0.9736
-2.6553 5.8143 -1.9660 0.9736
-3.4573 5.3796 -1.9669 0.9736
-3.6476 5.2536 -1.9672 0.9736
-3.8335 5.1209 -1.9675 0.9736
-4.0146 4.9817 -1.9679 0.9736
-4.1906 4.8362 -1.9683 0.9736
-4.3615 4.6846 -1.9687 0.9736
-4.5270 4.5270 -1.9691 0.9736
-4.9888 4.0202 -1.9707 0.9735
-5.2660 3.6562 -1.9718 0.9735
-5.3948 3.4670 -1.9725 0.9735
-6.1001 2.0303 -1.9774 0.9735
-6.2899 1.3683 -1.9799 0.9734
-6.3374 1.1434 -1.9807 0.9734
-6.3770 0.9169 -1.9816 0.9734
-6.4085 0.6890 -1.9825 0.9734
5.9705 0.6419 -1.9961 0.9750
5.9412 0.8542 -1.9952 0.9750
5.8081 1.4824 -1.9925 0.9750
5.6824 1.8913 -1.9908 0.9751
5.6088 2.0920 -1.9899 0.9751
5.5281 2.2898 -1.9890 0.9751
5.4405 2.4846 -1.9881 0.9751
5.1370 3.0480 -1.9855 0.9751
5.0229 3.2280 -1.9847 0.9751
4.7758 3.5751 -1.9830 0.9752
4.6432 3.7418 -1.9822 0.9752
3.5642 4.7612 -1.9770 0.9752
3.3908 4.8837 -1.9763 0.9753
2.6579 5.3098 -1.9738 0.9753
2.4660 5.3998 -1.9732 0.9753
2.0734 5.5589 -1.9722 0.9753
1.6707 5.6899 -1.9712 0.9753
1.4662 5.7446 -1.9708 0.9753
1.2600 5.7921 -1.9704 0.9753
1.0522 5.8322 -1.9700 0.9753
-0.0000 5.9219 -1.9685 0.9753
-0.2114 5.9175 -1.9683 0.9753
-0.4224 5.9056 -1.9681 0.9754
-0.6329 5.8863 -1.9679 0.9754
-1.0511 5.8256 -1.9677 0.9754
-1.2583 5.7842 -1.9677 0.9754
-1.6677 5.6796 -1.9676 0.9754
-2.0687 5.5464 -1.9677 0.9754
-2.2655 5.4693 -1.9678 0.9754
-2.4594 5.3853 -1.9680 0.9754
-3.0218 5.0930 -1.9685 0.9753
-3.3784 4.8658 -1.9690 0.9753
-3.5504 4.7428 -1.9693 0.9753
-3.7181 4.6139 -1.9697 0.9753
-3.8811 4.4790 -1.9700 0.9753
-4.0393 4.3385 -1.9704 0.9753
-4.4830 3.8845 -1.9718 0.9753
-4.6199 3.7230 -1.9723 0.9753
-4.7511 3.5566 -1.9728 0.9753
-5.1085 3.0310 -1.9745 0.9753
-5.2151 2.8476 -1.9751 0.9753
-5.3151 2.6606 -1.9758 0.9753
-5.4085 2.4700 -1.9764 0.9752
-5.4951 2.2762 -1.9771 0.9752
-5.6476 1.8797 -1.9785 0.9752
-5.7132 1.6775 -1.9793 0.9752
-5.8228 1.2667 -1.9808 0.9752
-5.8666 1.0584 -1.9816 0.9752
-5.9535 0.4258 -1.9840 0.9752
5.5819 0.1994 -1.9974 0.9766
5.5690 0.3983 -1.9966 0.9766
5.5490 0.5966 -1.9958 0.9766
5.5219 0.7939 -1.9950 0.9766
5.4878 0.9901 -1.9942 0.9766
5.4467 1.1849 -1.9933 0.9766
5.3438 1.5691 -1.9917 0.9766
5.1391 2.1287 -1.9892 0.9766
4.9701 2.4879 -1.9876 0.9767
4.6701 3.0013 -1.9852 0.9767
4.3175 3.4793 -1.9829 0.9767
3.9166 3.9166 -1.9807 0.9767
3.6246 4.1831 -1.9794 0.9768
3.4719 4.3083 -1.9787 0.9768
2.9886 4.6503 -1.9768 0.9768
2.8198 4.7526 -1.9762 0.9768
2.6476 4.8488 -1.9756 0.9768
2.4722 4.9389 -1.9751 0.9768
2.2937 5.0226 -1.9746 0.9768
2.1125 5.1000 -1.9740 0.9768
1.9286 5.1708 -1.9736 0.9768
1.7424 5.2352 -1.9731 0.9768
0.5891 5.4797 -1.9709 0.9769
0.1967 5.5063 -1.9703 0.9769
-0.3930 5.4941 -1.9698 0.9769
-0.7838 5.4514 -1.9695 0.9769
-1.7391 5.2253 -1.9694 0.9769
-2.6401 4.8349 -1.9700 0.9769
-2.9789 4.6353 -1.9704 0.9769
-3.1429 4.5266 -1.9706 0.9769
-3.3029 4.4121 -1.9709 0.9769
-3.6104 4.1667 -1.9716 0.9769
-3.7575 4.0359 -1.9719 0.9768
-3.9000 3.9000 -1.9723 0.9768
-4.1701 3.6133 -1.9732 0.9768
-4.4193 3.3083 -1.9741 0.9768
-4.6465 2.9861 -1.9752 0.9768
-5.1846 1.9338 -1.9788 0.9768
-5.2521 1.7481 -1.9795 0.9768
-5.3130 1.5601 -1.9802 0.9768
-5.4890 0.7892 -1.9831 0.9767
-5.5157 0.5930 -1.9838 0.9767
-5.5355 0.3959 -1.9846 0.9767
-5.5483 0.1982 -1.9854 0.9767
5.2080 0.1860 -1.9971 0.9779
5.1960 0.3716 -1.9963 0.9779
5.1775 0.5567 -1.9956 0.9779
4.9868 1.4642 -1.9917 0.9780
4.9294 1.6407 -1.9909 0.9780
4.8659 1.8149 -1.9902 0.9780
4.7962 1.9866 -1.9894 0.9780
4.7204 2.1558 -1.9887 0.9780
4.6387 2.3220 -1.9879 0.9780
4.4579 2.6450 -1.9864 0.9780
4.3590 2.8014 -1.9857 0.9780
4.2547 2.9541 -1.9850 0.9781
4.0302 3.2478 -1.9835 0.9781
3.7856 3.5246 -1.9822 0.9781
3.0947 4.1341 -1.9790 0.9781
2.3083 4.6114 -1.9762 0.9782
0.7325 5.0950 -1.9726 0.9782
0.5501 5.1172 -1.9723 0.9782
0.3671 5.1328 -1.9720 0.9782
0.1836 5.1421 -1.9718 0.9782
-0.0000 5.1448 -1.9716 0.9782
-0.1836 5.1411 -1.9714 0.9782
-0.5498 5.1141 -1.9711 0.9782
-0.7320 5.0909 -1.9710 0.9782
-0.9132 5.0614 -1.9709 0.9782
-1.2719 4.9831 -1.9708 0.9782
-1.4489 4.9346 -1.9709 0.9782
-1.9683 4.7518 -1.9710 0.9782
-2.1368 4.6788 -1.9711 0.9782
-2.3025 4.5999 -1.9713 0.9782
-2.7818 4.3286 -1.9718 0.9782
-3.0844 4.1202 -1.9723 0.9782
-3.3715 3.8909 -1.9729 0.9782
-3.5088 3.7687 -1.9733 0.9782
-3.6417 3.6418 -1.9737 0.9782
-3.7702 3.5101 -1.9740 0.9782
-4.2351 2.9405 -1.9758 0.9782
-4.6154 2.3103 -1.9779 0.9781
-4.9032 1.6319 -1.9803 0.9781
-4.9599 1.4564 -1.9810 0.9781
-5.0546 1.0996 -1.9823 0.9781
-5.1485 0.5535 -1.9844 0.9781
-5.1669 0.3695 -1.9851 0.9781
4.8805 0.0000 -1.9975 0.9791
4.8473 0.5211 -1.9953 0.9791
4.7944 0.8650 -1.9939 0.9792
4.7587 1.0352 -1.9932 0.9792
4.7170 1.2040 -1.9925 0.9792
4.6158 1.5363 -1.9910 0.9792
4.4912 1.8603 -1.9896 0.9792
4.4204 2.0187 -1.9889 0.9792
3.8822 2.9061 -1.9847 0.9793
3.7747 3.0418 -1.9841 0.9793
3.6625 3.1736 -1.9834 0.9793
3.2992 3.5436 -1.9816 0.9793
3.0362 3.7677 -1.9804 0.9793
2.8989 3.8725 -1.9798 0.9793
2.6138 4.0672 -1.9787 0.9793
2.3158 4.2411 -1.9777 0.9793
1.8479 4.4613 -1.9763 0.9793
1.1932 4.6751 -1.9748 0.9794
0.6863 4.7736 -1.9738 0.9794
0.3439 4.8092 -1.9733 0.9794
-0.5152 4.7917 -1.9724 0.9794
-0.8556 4.7424 -1.9723 0.9794
-1.1917 4.6691 -1.9722 0.9794
-1.3576 4.6236 -1.9722 0.9794
-1.5218 4.5722 -1.9722 0.9794
-1.8442 4.4523 -1.9724 0.9794
-2.4598 4.1457 -1.9729 0.9794
-2.6064 4.0557 -1.9731 0.9794
-3.1588 3.6454 -1.9742 0.9794
-3.6480 3.1610 -1.9756 0.9794
-3.7593 3.0294 -1.9760 0.9793
-3.8659 2.8939 -1.9764 0.9793
-4.2424 2.3165 -1.9783 0.9793
-4.3992 2.0091 -1.9794 0.9793
-4.6458 1.3641 -1.9817 0.9793
-4.6930 1.1978 -1.9823 0.9793
-4.8390 0.3461 -1.9855 0.9793
-4.8499 0.1732 -1.9862 0.9792
4.5678 0.3267 -1.9958 0.9802
4.5298 0.6513 -1.9945 0.9802
4.4688 0.9721 -1.9931 0.9802
4.3851 1.2876 -1.9918 0.9803
4.3348 1.4428 -1.9911 0.9803
4.2791 1.5960 -1.9904 0.9803
4.1516 1.8960 -1.9891 0.9803
4.0031 2.1858 -1.9878 0.9803
3.9212 2.3266 -1.9871 0.9803
3.8344 2.4642 -1.9865 0.9803
3.6466 2.7298 -1.9852 0.9803
3.5457 2.8573 -1.9846 0.9803
3.4404 2.9811 -1.9840 0.9803
3.3308 3.1011 -1.9834 0.9803
3.0993 3.3288 -1.9822 0.9803
2.7234 3.6380 -1.9806 0.9804
2.0317 4.0588 -1.9781 0.9804
1.8851 4.1278 -1.9777 0.9804
1.5852 4.2500 -1.9769 0.9804
1.4322 4.3031 -1.9765 0.9804
0.6449 4.4854 -1.9749 0.9804
0.3232 4.5189 -1.9744 0.9804
0.1617 4.5271 -1.9742 0.9804
-0.0000 4.5295 -1.9740 0.9804
-0.4841 4.5026 -1.9736 0.9804
-1.2757 4.3447 -1.9734 0.9804
-1.5825 4.2427 -1.9735 0.9804
-1.7330 4.1837 -1.9735 0.9804
-2.0272 4.0499 -1.9738 0.9804
-2.1706 3.9752 -1.9739 0.9804
-2.3113 3.8955 -1.9741 0.9804
-2.8435 3.5285 -1.9750 0.9804
-3.0889 3.3177 -1.9755 0.9804
-3.2058 3.2058 -1.9759 0.9804
-3.3188 3.0899 -1.9762 0.9804
-3.4276 2.9700 -1.9766 0.9804
-3.5321 2.8463 -1.9770 0.9804
-3.6322 2.7190 -1.9774 0.9804
-3.7277 2.5882 -1.9778 0.9804
-3.8185 2.4540 -1.9782 0.9804
-3.9858 2.1764 -1.9791 0.9804
-4.0619 2.0332 -1.9796 0.9804
-4.1329 1.8874 -1.9801 0.9804
-1.4401 0.4793 -0.6615 0.9934
-1.3400 0.3420 -0.6027 0.9940
-1.3955 0.2518 -0.6180 0.9938
-1.4180 0.2039 -0.6244 0.9938
-1.4360 0.1544 -0.6294 0.9937
-1.4490 0.1036 -0.6331 0.9937
4.3139 0.0000 -1.9968 0.9812
4.3098 0.1539 -1.9962 0.9812
4.3002 0.3075 -1.9956 0.9812
4.2646 0.6132 -1.9943 0.9812
4.2387 0.7647 -1.9937 0.9812
4.2073 0.9153 -1.9931 0.9812
4.1707 1.0645 -1.9924 0.9812
4.0815 1.3584 -1.9912 0.9812
3.9716 1.6451 -1.9899 0.9812
3.9092 1.7853 -1.9893 0.9812
3.8417 1.9231 -1.9886 0.9812
3.7695 2.0583 -1.9880 0.9812
3.6925 2.1909 -1.9874 0.9813
3.6108 2.3205 -1.9868 0.9813
3.3391 2.6908 -1.9850 0.9813
3.2400 2.8075 -1.9844 0.9813
3.1368 2.9205 -1.9839 0.9813
3.0297 3.0298 -1.9833 0.9813
2.5650 3.4265 -1.9812 0.9813
2.4405 3.5150 -1.9807 0.9813
2.3129 3.5990 -1.9803 0.9813
1.2033 4.0982 -1.9771 0.9813
1.0561 4.1379 -1.9768 0.9814
0.9076 4.1723 -1.9765 0.9814
0.6075 4.2253 -1.9759 0.9814
0.1523 4.2646 -1.9753 0.9814
-0.0000 4.2669 -1.9751 0.9814
-0.1523 4.2639 -1.9749 0.9814
-0.6071 4.2225 -1.9746 0.9814
-0.9067 4.1682 -1.9745 0.9814
-1.0549 4.1331 -1.9745 0.9814
-1.2018 4.0928 -1.9745 0.9814
-1.3471 4.0474 -1.9745 0.9814
-1.7722 3.8806 -1.9747 0.9814
-1.9097 3.8151 -1.9748 0.9814
-2.0448 3.7448 -1.9750 0.9814
-2.1773 3.6697 -1.9751 0.9814
-2.3071 3.5899 -1.9753 0.9814
-2.7959 3.2266 -1.9762 0.9814
-2.9097 3.1252 -1.9765 0.9814
-3.1262 2.9106 -1.9771 0.9813
-3.3270 2.6811 -1.9778 0.9813
-3.5967 2.3115 -1.9790 0.9813
-3.7541 2.0499 -1.9799 0.9813
-3.8258 1.9150 -1.9804 0.9813
-1.2345 0.5114 -0.6185 0.9941
-1.1536 0.3840 -0.5628 0.9947
-1.1790 0.2565 -0.5585 0.9947
-1.2125 0.1743 -0.5670 0.9946
-1.2261 0.1318 -0.5708 0.9946
-1.2424 0.0444 -0.5755 0.9945
4.0703 0.0000 -1.9966 0.9820
4.0665 0.1452 -1.9960 0.9820
3.9702 0.8637 -1.9930 0.9821
3.9356 1.0045 -1.9924 0.9821
3.8961 1.1440 -1.9918 0.9821
3.8516 1.2819 -1.9912 0.9821
3.8023 1.4182 -1.9906 0.9821
3.6892 1.6848 -1.9894 0.9821
3.6256 1.8149 -1.9888 0.9821
3.2411 2.4263 -1.9860 0.9821
2.8597 2.8597 -1.9838 0.9821
2.6471 3.0549 -1.9828 0.9822
2.5357 3.1467 -1.9823 0.9822
2.4212 3.2344 -1.9818 0.9822
2.1833 3.3973 -1.9809 0.9822
2.0602 3.4723 -1.9805 0.9822
1.9346 3.5429 -1.9801 0.9822
1.8065 3.6090 -1.9797 0.9822
1.6762 3.6704 -1.9793 0.9822
1.5439 3.7272 -1.9789 0.9822
1.4096 3.7793 -1.9786 0.9822
1.1360 3.8689 -1.9779 0.9822
0.7156 3.9665 -1.9771 0.9822
0.5735 3.9890 -1.9768 0.9822
0.2874 4.0189 -1.9764 0.9822
0.1438 4.0262 -1.9762 0.9822
-0.2874 4.0176 -1.9758 0.9822
-0.4305 4.0046 -1.9757 0.9822
-0.7151 3.9634 -1.9755 0.9822
-0.8561 3.9353 -1.9755 0.9822
-0.9960 3.9022 -1.9755 0.9822
-1.2718 3.8212 -1.9755 0.9822
-1.6732 3.6638 -1.9757 0.9822
-1.8030 3.6019 -1.9758 0.9822
-1.9305 3.5355 -1.9759 0.9822
-2.4149 3.2259 -1.9766 0.9822
-2.6395 3.0462 -1.9771 0.9822
-2.7469 2.9504 -1.9774 0.9822
-2.8509 2.8509 -1.9777 0.9822
-3.0480 2.6411 -1.9783 0.9822
-3.1408 2.5310 -1.9786 0.9822
-3.2298 2.4178 -1.9790 0.9822
-3.3146 2.3014 -1.9794 0.9822
-1.0588 0.5300 -0.5808 0.9947
-1.0119 0.3774 -0.5298 0.9952
-1.0025 0.3337 -0.5183 0.9953
-1.0422 0.2267 -0.5232 0.9953
-1.0518 0.1898 -0.5242 0.9952
-1.0705 0.1151 -0.5281 0.9952
-1.0803 0.0386 -0.5302 0.9952
3.8446 0.1373 -1.9958 0.9828
3.8362 0.2744 -1.9952 0.9828
3.8229 0.4110 -1.9947 0.9828
3.8047 0.5471 -1.9941 0.9828
3.7817 0.6823 -1.9935 0.9828
3.7539 0.8166 -1.9930 0.9828
3.7212 0.9498 -1.9924 0.9828
3.5953 1.3410 -1.9907 0.9829
3.5442 1.4680 -1.9901 0.9829
3.4285 1.7162 -1.9890 0.9829
3.3641 1.8370 -1.9885 0.9829
3.1459 2.1842 -1.9868 0.9829
2.9805 2.4018 -1.9858 0.9829
2.8921 2.5060 -1.9853 0.9829
2.8001 2.6070 -1.9848 0.9829
2.7046 2.7046 -1.9843 0.9829
2.3983 2.9761 -1.9829 0.9829
2.1789 3.1382 -1.9820 0.9829
2.0650 3.2133 -1.9815 0.9829
1.9486 3.2843 -1.9811 0.9829
1.3333 3.5748 -1.9793 0.9830
1.2047 3.6195 -1.9790 0.9830
0.8105 3.7259 -1.9781 0.9830
0.1360 3.8086 -1.9771 0.9830
-0.0000 3.8107 -1.9769 0.9830
-0.4073 3.7882 -1.9766 0.9830
-0.5422 3.7711 -1.9765 0.9830
-0.6764 3.7492 -1.9764 0.9830
-0.8098 3.7226 -1.9764 0.9830
-0.9422 3.6913 -1.9764 0.9830
-1.0733 3.6554 -1.9764 0.9830
-1.4580 3.5199 -1.9765 0.9830
-1.5828 3.4658 -1.9766 0.9830
-1.8262 3.3444 -1.9768 0.9830
-1.9445 3.2773 -1.9769 0.9830
-2.3921 2.9683 -1.9777 0.9830
-2.4968 2.8814 -1.9779 0.9830
-2.5984 2.7908 -1.9782 0.9830
-2.7916 2.5991 -1.9787 0.9830
-2.8831 2.4982 -1.9790 0.9830
-2.9709 2.3941 -1.9794 0.9830
-3.1352 2.1768 -1.9801 0.9829
-3.2837 1.9483 -1.9808 0.9829
-0.9486 0.5180 -0.5607 0.9951
-0.9416 0.4713 -0.5462 0.9953
-0.9326 0.4259 -0.5319 0.9954
-0.9271 0.3840 -0.5206 0.9955
-0.9268 0.3085 -0.5067 0.9956
-0.9524 0.2431 -0.5099 0.9956
-0.9628 0.2095 -0.5112 0.9956
-0.9785 0.1407 -0.5129 0.9956
-0.9838 0.1058 -0.5133 0.9956
-0.9873 0.0706 -0.5135 0.9955
-0.9893 0.0353 -0.5135 0.9955
3.6333 0.2599 -1.9951 0.9835
3.6208 0.3893 -1.9945 0.9835
3.6036 0.5181 -1.9940 0.9835
3.5555 0.7735 -1.9929 0.9835
3.4497 1.1482 -1.9913 0.9836
3.4056 1.2702 -1.9908 0.9836
3.1868 1.7401 -1.9887 0.9836
3.1218 1.8523 -1.9881 0.9836
3.0529 1.9620 -1.9876 0.9836
2.6528 2.4698 -1.9852 0.9836
2.3719 2.7373 -1.9838 0.9836
2.0644 2.9733 -1.9825 0.9836
1.9565 3.0444 -1.9821 0.9836
1.8463 3.1117 -1.9817 0.9836
1.7337 3.1750 -1.9813 0.9836
1.6190 3.2343 -1.9810 0.9836
1.3836 3.3404 -1.9803 0.9836
1.2633 3.3871 -1.9800 0.9836
1.1415 3.4296 -1.9797 0.9837
0.8936 3.5013 -1.9791 0.9837
0.5141 3.5754 -1.9784 0.9837
0.2576 3.6023 -1.9780 0.9837
0.1289 3.6089 -1.9779 0.9837
-0.0000 3.6109 -1.9777 0.9837
-0.3859 3.5896 -1.9774 0.9837
-0.6410 3.5527 -1.9773 0.9837
-1.0171 3.4638 -1.9772 0.9837
-1.1401 3.4253 -1.9772 0.9837
-1.2616 3.3825 -1.9773 0.9837
-1.3816 3.3354 -1.9773 0.9837
-1.8426 3.1055 -1.9777 0.9837
-1.9524 3.0380 -1.9779 0.9837
-2.0598 2.9666 -1.9781 0.9837
-2.2666 2.8127 -1.9785 0.9837
-2.4621 2.6444 -1.9789 0.9837
-2.5552 2.5552 -1.9792 0.9837
-2.6451 2.4627 -1.9794 0.9837
-2.7318 2.3671 -1.9797 0.9837
-2.8149 2.2684 -1.9800 0.9836
-2.8946 2.1668 -1.9804 0.9836
-2.9706 2.0625 -1.9807 0.9836
-3.0428 1.9555 -1.9810 0.9836
-0.8506 0.3884 -0.5122 0.9957
-0.8465 0.3157 -0.4948 0.9959
-0.8603 0.2863 -0.4966 0.9959
-0.8727 0.2562 -0.4982 0.9959
-0.9077 0.1305 -0.5022 0.9958
-0.9127 0.0981 -0.5028 0.9958
-0.9179 0.0328 -0.5031 0.9958
3.4540 0.1234 -1.9954 0.9842
3.4346 0.3693 -1.9944 0.9842
3.4184 0.4915 -1.9939 0.9842
3.3729 0.7337 -1.9929 0.9842
3.2726 1.0892 -1.9914 0.9842
3.0812 1.5423 -1.9893 0.9842
2.7550 2.0624 -1.9869 0.9842
2.5996 2.2526 -1.9860 0.9842
2.5170 2.3434 -1.9855 0.9842
2.4312 2.4312 -1.9851 0.9842
2.3424 2.5159 -1.9846 0.9842
2.2506 2.5973 -1.9842 0.9843
1.5363 3.0691 -1.9816 0.9843
1.4255 3.1215 -1.9812 0.9843
1.1988 3.2142 -1.9806 0.9843
1.0832 3.2545 -1.9803 0.9843
0.9662 3.2906 -1.9800 0.9843
0.8480 3.3226 -1.9798 0.9843
0.4878 3.3930 -1.9791 0.9843
0.3664 3.4080 -1.9789 0.9843
0.2445 3.4186 -1.9788 0.9843
-0.0000 3.4268 -1.9785 0.9843
-0.1223 3.4244 -1.9783 0.9843
-0.3663 3.4066 -1.9781 0.9843
-0.4876 3.3912 -1.9781 0.9843
-0.7283 3.3477 -1.9780 0.9843
-0.8473 3.3195 -1.9780 0.9843
-1.0819 3.2506 -1.9780 0.9843
-1.1973 3.2100 -1.9780 0.9843
-1.5337 3.0640 -1.9782 0.9843
-1.7486 2.9471 -1.9785 0.9843
-1.8528 2.8831 -1.9786 0.9843
-2.1510 2.6692 -1.9792 0.9843
-2.3364 2.5095 -1.9796 0.9843
-2.5101 2.3370 -1.9801 0.9843
-2.6712 2.1526 -1.9807 0.9843
-2.7468 2.0562 -1.9810 0.9843
-0.7751 0.4599 -0.5203 0.9958
-0.7787 0.4252 -0.5122 0.9959
-0.7809 0.3567 -0.4957 0.9960
-0.8128 0.2387 -0.4891 0.9961
-0.8230 0.2101 -0.4904 0.9961
-0.8393 0.1514 -0.4924 0.9961
-0.8453 0.1215 -0.4930 0.9961
-0.8499 0.0914 -0.4935 0.9961
-0.8531 0.0610 -0.4938 0.9961
-0.8548 0.0305 -0.4938 0.9961
