ply
format ascii 1.0
element vertex 719
property float32 x
property float32 y
property float32 z
property float32 I
end_header
-9.1300 -0.6530 -1.9348 0.9633
-9.1091 -0.9794 -1.9366 0.9632
-9.0335 -1.6298 -1.9403 0.9632
-8.9786 -1.9532 -1.9423 0.9631
-8.9125 -2.2748 -1.9443 0.9631
-8.8351 -2.5942 -1.9464 0.9631
-8.7465 -2.9111 -1.9486 0.9630
-8.5361 -3.5358 -1.9530 0.9629
-7.9848 -4.7376 -1.9625 0.9628
-7.8205 -5.0259 -1.9650 0.9627
-7.2667 -5.8559 -1.9727 0.9626
-7.0625 -6.1197 -1.9753 0.9625
-6.8487 -6.3764 -1.9780 0.9625
-6.6257 -6.6257 -1.9807 0.9624
-6.3936 -6.8672 -1.9833 0.9624
-6.1528 -7.1007 -1.9860 0.9623
-5.9035 -7.3258 -1.9888 0.9623
-5.3806 -7.7495 -1.9942 0.9622
-5.1075 -7.9475 -1.9969 0.9621
-4.5399 -8.3142 -2.0024 0.9620
-3.9459 -8.6402 -2.0078 0.9619
-3.3283 -8.9234 -2.0132 0.9618
-2.6902 -9.1620 -2.0184 0.9617
-2.3645 -9.2640 -2.0210 0.9617
-1.3658 -9.4990 -2.0286 0.9615
-1.0271 -9.5531 -2.0310 0.9615
-0.6863 -9.5950 -2.0334 0.9614
-0.3437 -9.6244 -2.0357 0.9614
-0.0000 -9.6413 -2.0380 0.9613
0.3445 -9.6456 -2.0402 0.9613
1.0339 -9.6164 -2.0444 0.9612
1.7206 -9.5367 -2.0484 0.9612
2.0618 -9.4779 -2.0503 0.9611
3.4008 -9.1179 -2.0570 0.9610
3.7267 -8.9971 -2.0585 0.9610
4.0482 -8.8644 -2.0599 0.9609
4.6759 -8.5633 -2.0624 0.9609
5.5727 -8.0262 -2.0654 0.9608
5.8579 -7.8253 -2.0662 0.9608
6.1356 -7.6138 -2.0669 0.9608
6.6667 -7.1606 -2.0681 0.9608
8.5864 -4.6885 -2.0679 0.9608
8.7460 -4.3779 -2.0674 0.9608
8.8939 -4.0617 -2.0668 0.9608
9.3653 -2.7499 -2.0632 0.9609
9.4523 -2.4126 -2.0621 0.9609
9.5885 -1.7300 -2.0595 0.9609
9.6375 -1.3857 -2.0581 0.9610
9.6738 -1.0400 -2.0566 0.9610
9.6973 -0.6936 -2.0550 0.9610
-8.2344 -0.5889 -1.9402 0.9666
-8.2149 -0.8832 -1.9418 0.9666
-8.1851 -1.1768 -1.9435 0.9666
-8.0344 -2.0507 -1.9488 0.9665
-7.8831 -2.6237 -1.9526 0.9664
-7.7923 -2.9064 -1.9546 0.9664
-7.6917 -3.1860 -1.9567 0.9664
-7.4608 -3.7346 -1.9609 0.9663
-7.3309 -4.0030 -1.9630 0.9663
-7.1914 -4.2669 -1.9653 0.9662
-7.0426 -4.5260 -1.9675 0.9662
-6.8845 -4.7800 -1.9698 0.9661
-6.5413 -5.2713 -1.9744 0.9661
-6.3566 -5.5080 -1.9768 0.9660
-5.9619 -5.9619 -1.9816 0.9659
-5.7523 -6.1784 -1.9840 0.9659
-5.0776 -6.7829 -1.9913 0.9658
-4.0806 -7.4730 -2.0011 0.9656
-3.8159 -7.6232 -2.0036 0.9656
-3.5457 -7.7640 -2.0060 0.9655
-2.9899 -8.0163 -2.0108 0.9655
-1.8271 -8.3989 -2.0201 0.9653
-1.5278 -8.4682 -2.0224 0.9653
0.3090 -8.6532 -2.0350 0.9650
0.6183 -8.6449 -2.0369 0.9650
0.9273 -8.6252 -2.0388 0.9650
1.2357 -8.5942 -2.0406 0.9650
1.5429 -8.5520 -2.0424 0.9649
2.1526 -8.4337 -2.0457 0.9649
2.4540 -8.3578 -2.0472 0.9648
3.3402 -8.0640 -2.0514 0.9648
3.6281 -7.9444 -2.0526 0.9647
4.1901 -7.6737 -2.0548 0.9647
4.4635 -7.5229 -2.0558 0.9647
4.7312 -7.3620 -2.0567 0.9647
4.9930 -7.1912 -2.0575 0.9647
5.4969 -6.8213 -2.0589 0.9646
5.7384 -6.6225 -2.0595 0.9646
6.1987 -6.1987 -2.0603 0.9646
6.6265 -5.7419 -2.0607 0.9646
7.2022 -5.0006 -2.0607 0.9646
7.3754 -4.7399 -2.0605 0.9646
7.6922 -4.2003 -2.0598 0.9646
7.8354 -3.9221 -2.0593 0.9646
8.0904 -3.3511 -2.0581 0.9647
8.3920 -2.4641 -2.0556 0.9647
8.5376 -1.8573 -2.0535 0.9647
8.6930 -0.6217 -2.0483 0.9648
-7.5003 -0.0000 -1.9419 0.9695
-7.4734 -0.8035 -1.9461 0.9694
-7.4087 -1.3367 -1.9492 0.9694
-7.3068 -1.8650 -1.9525 0.9693
-7.0848 -2.6425 -1.9578 0.9692
-6.9926 -2.8964 -1.9597 0.9692
-6.7814 -3.3945 -1.9635 0.9692
-6.5352 -3.8775 -1.9675 0.9691
-6.2549 -4.3429 -1.9716 0.9690
-5.7735 -5.0027 -1.9780 0.9689
-5.4137 -5.4137 -1.9823 0.9689
-4.6087 -6.1564 -1.9912 0.9687
-3.4615 -6.9153 -2.0023 0.9686
-3.2160 -7.0421 -2.0045 0.9685
-2.7113 -7.2694 -2.0088 0.9685
-2.4528 -7.3694 -2.0110 0.9684
-1.9248 -7.5414 -2.0152 0.9684
-1.6561 -7.6131 -2.0173 0.9683
-0.8353 -7.7696 -2.0233 0.9682
-0.5580 -7.8019 -2.0252 0.9682
-0.2795 -7.8242 -2.0271 0.9682
0.2799 -7.8382 -2.0307 0.9681
1.1190 -7.7828 -2.0358 0.9680
1.9488 -7.6356 -2.0404 0.9680
2.2217 -7.5663 -2.0418 0.9679
2.4919 -7.4871 -2.0431 0.9679
2.7592 -7.3979 -2.0443 0.9679
3.5400 -7.0721 -2.0477 0.9679
3.7920 -6.9445 -2.0487 0.9678
4.9737 -6.1719 -2.0523 0.9678
5.1920 -5.9919 -2.0528 0.9678
5.4037 -5.8039 -2.0532 0.9678
5.6083 -5.6083 -2.0536 0.9678
5.9952 -5.1949 -2.0540 0.9678
6.5161 -4.5242 -2.0539 0.9678
6.6728 -4.2884 -2.0537 0.9678
7.2097 -3.2926 -2.0522 0.9678
7.3205 -3.0323 -2.0516 0.9678
7.4217 -2.7682 -2.0509 0.9678
7.6657 -1.9566 -2.0484 0.9678
7.7269 -1.6809 -2.0474 0.9679
7.8187 -1.1242 -2.0452 0.9679
7.8793 -0.2814 -2.0414 0.9679
-6.8739 0.0000 -1.9459 0.9718
-6.8738 -0.2455 -1.9472 0.9718
-6.8480 -0.7362 -1.9498 0.9718
-6.8222 -0.9809 -1.9512 0.9718
-6.7878 -1.2246 -1.9526 0.9717
-6.6336 -1.9478 -1.9572 0.9717
-6.5653 -2.1852 -1.9588 0.9716
-6.4886 -2.4201 -1.9605 0.9716
-6.2093 -3.1081 -1.9657 0.9715
-5.8579 -3.7646 -1.9712 0.9715
-5.7253 -3.9751 -1.9731 0.9714
-4.9530 -4.9530 -1.9830 0.9713
-4.5964 -5.3045 -1.9870 0.9712
-4.2148 -5.6304 -1.9910 0.9712
-4.0153 -5.7831 -1.9931 0.9712
-3.8102 -5.9288 -1.9951 0.9711
-3.5998 -6.0672 -1.9971 0.9711
-2.2413 -6.7339 -2.0091 0.9709
-2.0014 -6.8162 -2.0111 0.9709
-1.2649 -7.0108 -2.0168 0.9708
-1.0148 -7.0579 -2.0186 0.9708
-0.7629 -7.0959 -2.0204 0.9708
-0.5096 -7.1248 -2.0221 0.9707
-0.2552 -7.1445 -2.0239 0.9707
0.2556 -7.1562 -2.0272 0.9707
0.5112 -7.1482 -2.0288 0.9706
1.5277 -7.0229 -2.0346 0.9706
1.7786 -6.9684 -2.0359 0.9705
2.0274 -6.9048 -2.0372 0.9705
2.2739 -6.8321 -2.0384 0.9705
2.5177 -6.7503 -2.0396 0.9705
2.7585 -6.6597 -2.0406 0.9705
2.9960 -6.5602 -2.0417 0.9705
3.6848 -6.2104 -2.0443 0.9704
3.9055 -6.0771 -2.0450 0.9704
4.5367 -5.6298 -2.0468 0.9704
4.7358 -5.4654 -2.0473 0.9704
5.4682 -4.7382 -2.0483 0.9704
5.6340 -4.5402 -2.0484 0.9704
5.7924 -4.3362 -2.0484 0.9704
6.0863 -3.9114 -2.0481 0.9704
6.2213 -3.6913 -2.0479 0.9704
6.4665 -3.2369 -2.0472 0.9704
6.6777 -2.7660 -2.0462 0.9704
6.7701 -2.5251 -2.0455 0.9704
6.8536 -2.2811 -2.0449 0.9704
7.0496 -1.5336 -2.0424 0.9705
7.0965 -1.2804 -2.0414 0.9705
7.1340 -1.0257 -2.0404 0.9705
7.1811 -0.5136 -2.0381 0.9705
7.1905 -0.2568 -2.0369 0.9705
-6.3374 -0.2264 -1.9505 0.9738
-6.3291 -0.4527 -1.9517 0.9738
-6.3129 -0.6787 -1.9529 0.9738
-6.2888 -0.9042 -1.9542 0.9738
-6.2568 -1.1289 -1.9555 0.9737
-6.1691 -1.5746 -1.9583 0.9737
-5.9791 -2.2301 -1.9628 0.9736
-5.8142 -2.6552 -1.9660 0.9736
-5.2730 -3.6611 -1.9745 0.9735
-5.0074 -4.0352 -1.9780 0.9734
-4.8646 -4.2152 -1.9798 0.9734
-4.5599 -4.5599 -1.9835 0.9734
-4.3984 -4.7242 -1.9853 0.9733
-4.2309 -4.8828 -1.9872 0.9733
-4.0578 -5.0354 -1.9891 0.9733
-3.6952 -5.3221 -1.9928 0.9732
-3.3123 -5.5825 -1.9966 0.9732
-2.7041 -5.9211 -2.0021 0.9731
-2.4933 -6.0193 -2.0040 0.9731
-2.0613 -6.1931 -2.0076 0.9731
-1.8405 -6.2683 -2.0094 0.9730
-1.6170 -6.3355 -2.0111 0.9730
-1.3911 -6.3947 -2.0129 0.9730
-0.9329 -6.4885 -2.0163 0.9729
-0.4684 -6.5491 -2.0195 0.9729
-0.2345 -6.5668 -2.0211 0.9729
-0.0000 -6.5760 -2.0226 0.9729
0.2349 -6.5767 -2.0241 0.9728
0.4698 -6.5689 -2.0256 0.9728
0.7045 -6.5525 -2.0270 0.9728
1.6340 -6.4018 -2.0322 0.9727
2.3127 -6.2006 -2.0355 0.9727
2.7517 -6.0255 -2.0374 0.9727
3.9780 -5.3140 -2.0417 0.9726
4.6972 -4.6972 -2.0432 0.9726
4.8623 -4.5270 -2.0434 0.9726
5.1734 -4.1690 -2.0436 0.9726
5.4574 -3.7891 -2.0435 0.9726
5.5887 -3.5917 -2.0433 0.9726
5.8292 -3.1830 -2.0428 0.9726
6.1322 -2.5401 -2.0416 0.9726
6.4230 -1.6394 -2.0389 0.9726
6.4748 -1.4085 -2.0381 0.9727
6.5181 -1.1760 -2.0372 0.9727
6.5966 -0.4718 -2.0342 0.9727
6.6056 -0.2359 -2.0330 0.9727
-5.8733 0.0000 -1.9523 0.9755
-5.8648 -0.4195 -1.9545 0.9755
-5.8495 -0.6289 -1.9556 0.9755
-5.8269 -0.8378 -1.9568 0.9755
-5.7969 -1.0459 -1.9580 0.9755
-5.7151 -1.4587 -1.9606 0.9754
-5.6633 -1.6629 -1.9620 0.9754
-5.6043 -1.8653 -1.9634 0.9754
-5.5381 -2.0656 -1.9648 0.9754
-5.4649 -2.2637 -1.9662 0.9754
-5.3847 -2.4591 -1.9677 0.9754
-5.2037 -2.8414 -1.9708 0.9753
-5.1030 -3.0278 -1.9724 0.9753
-4.8820 -3.3896 -1.9756 0.9753
-4.5030 -3.9018 -1.9806 0.9752
-4.3646 -4.0635 -1.9823 0.9752
-4.0706 -4.3721 -1.9857 0.9751
-3.7548 -4.6594 -1.9891 0.9751
-3.4188 -4.9240 -1.9926 0.9750
-3.2437 -5.0472 -1.9943 0.9750
-2.8803 -5.2749 -1.9978 0.9750
-2.5009 -5.4763 -2.0012 0.9749
-2.1075 -5.6503 -2.0046 0.9749
-1.4951 -5.8576 -2.0095 0.9748
-0.8624 -5.9980 -2.0143 0.9748
-0.6482 -6.0295 -2.0158 0.9748
0.4341 -6.0701 -2.0229 0.9747
0.6509 -6.0546 -2.0242 0.9747
0.8672 -6.0313 -2.0254 0.9746
1.0825 -6.0001 -2.0267 0.9746
1.5095 -5.9143 -2.0290 0.9746
1.7206 -5.8597 -2.0300 0.9746
2.7398 -5.4734 -2.0346 0.9745
2.9345 -5.3741 -2.0353 0.9745
3.1255 -5.2677 -2.0360 0.9745
3.3125 -5.1544 -2.0366 0.9745
3.8473 -4.7743 -2.0382 0.9745
4.3376 -4.3377 -2.0391 0.9745
4.4901 -4.1805 -2.0393 0.9745
4.6367 -4.0178 -2.0394 0.9745
4.7773 -3.8498 -2.0395 0.9745
4.9117 -3.6769 -2.0395 0.9745
5.0396 -3.4991 -2.0394 0.9745
5.1609 -3.3167 -2.0392 0.9745
5.2755 -3.1301 -2.0390 0.9745
5.3831 -2.9394 -2.0388 0.9745
5.6632 -2.3458 -2.0376 0.9745
5.8765 -1.7255 -2.0358 0.9745
5.9323 -1.5141 -2.0351 0.9745
6.0205 -1.0862 -2.0336 0.9745
6.0773 -0.6534 -2.0318 0.9746
6.0938 -0.4358 -2.0308 0.9746
6.1023 -0.2179 -2.0297 0.9746
-5.4667 -0.0000 -1.9549 0.9770
-5.4583 -0.3904 -1.9569 0.9770
-5.4439 -0.5853 -1.9580 0.9770
-5.3595 -1.1659 -1.9614 0.9770
-5.2142 -1.7355 -1.9652 0.9769
-5.1524 -1.9218 -1.9665 0.9769
-4.9278 -2.4667 -1.9707 0.9769
-4.8402 -2.6429 -1.9721 0.9768
-4.6463 -2.9860 -1.9751 0.9768
-4.4282 -3.3149 -1.9781 0.9768
-3.9237 -3.9237 -1.9844 0.9767
-3.7842 -4.0646 -1.9860 0.9767
-3.3361 -4.4566 -1.9908 0.9766
-3.1775 -4.5765 -1.9924 0.9766
-3.0146 -4.6908 -1.9940 0.9766
-2.8475 -4.7993 -1.9956 0.9766
-2.6766 -4.9018 -1.9972 0.9766
-2.5019 -4.9982 -1.9988 0.9765
-2.3238 -5.0883 -2.0004 0.9765
-1.9579 -5.2494 -2.0035 0.9765
-1.5809 -5.3839 -2.0066 0.9764
-1.1945 -5.4912 -2.0096 0.9764
-0.9985 -5.5343 -2.0111 0.9764
-0.8009 -5.5704 -2.0125 0.9764
-0.4021 -5.6212 -2.0153 0.9763
-0.2013 -5.6357 -2.0167 0.9763
-0.0000 -5.6430 -2.0180 0.9763
0.2015 -5.6430 -2.0193 0.9763
0.8050 -5.5992 -2.0229 0.9763
1.0049 -5.5700 -2.0240 0.9762
1.2037 -5.5335 -2.0251 0.9762
1.4012 -5.4898 -2.0261 0.9762
1.5970 -5.4390 -2.0271 0.9762
2.5427 -5.0796 -2.0314 0.9762
2.7233 -4.9873 -2.0321 0.9761
3.0739 -4.7832 -2.0333 0.9761
3.2435 -4.6716 -2.0338 0.9761
3.4090 -4.5539 -2.0343 0.9761
3.5701 -4.4302 -2.0347 0.9761
3.7266 -4.3007 -2.0350 0.9761
4.1664 -3.8791 -2.0357 0.9761
4.4328 -3.5722 -2.0359 0.9761
4.6762 -3.2468 -2.0358 0.9761
4.7888 -3.0776 -2.0357 0.9761
4.8952 -2.9044 -2.0355 0.9761
4.9951 -2.7275 -2.0352 0.9761
5.3283 -1.9874 -2.0337 0.9761
5.3944 -1.7954 -2.0331 0.9761
5.4535 -1.6013 -2.0325 0.9761
5.5054 -1.4052 -2.0319 0.9762
5.6643 -0.2023 -2.0269 0.9762
-5.1064 -0.1824 -1.9581 0.9783
-5.0992 -0.3647 -1.9591 0.9783
-5.0855 -0.5467 -1.9601 0.9783
-5.0654 -0.7283 -1.9611 0.9783
-5.0061 -1.0890 -1.9633 0.9783
-4.9669 -1.2677 -1.9644 0.9783
-4.8118 -1.7947 -1.9681 0.9782
-4.6015 -2.3033 -1.9719 0.9782
-4.3379 -2.7878 -1.9760 0.9782
-4.0237 -3.2425 -1.9803 0.9781
-3.9083 -3.3865 -1.9818 0.9781
-3.5318 -3.7934 -1.9862 0.9780
-2.9649 -4.2703 -1.9922 0.9780
-2.3340 -4.6627 -1.9982 0.9779
-1.8262 -4.8962 -2.0026 0.9779
-1.6515 -4.9619 -2.0040 0.9778
-1.2951 -5.0742 -2.0069 0.9778
-0.9311 -5.1608 -2.0096 0.9778
-0.7468 -5.1942 -2.0110 0.9778
-0.5613 -5.2209 -2.0123 0.9778
-0.1877 -5.2543 -2.0148 0.9777
-0.0000 -5.2609 -2.0161 0.9777
0.7504 -5.2192 -2.0206 0.9777
0.9367 -5.1917 -2.0217 0.9777
1.1220 -5.1576 -2.0227 0.9776
1.4884 -5.0692 -2.0246 0.9776
2.0243 -4.8870 -2.0271 0.9776
2.5377 -4.6474 -2.0292 0.9776
2.8643 -4.4570 -2.0303 0.9776
3.3265 -4.1279 -2.0316 0.9775
3.6135 -3.8813 -2.0322 0.9775
3.7502 -3.7502 -2.0324 0.9775
3.8819 -3.6142 -2.0326 0.9775
4.0087 -3.4735 -2.0327 0.9775
4.3570 -3.0251 -2.0327 0.9775
4.4619 -2.8675 -2.0325 0.9775
4.6542 -2.5414 -2.0321 0.9775
4.8221 -2.2022 -2.0315 0.9775
4.8967 -2.0283 -2.0311 0.9776
5.0266 -1.6730 -2.0302 0.9776
5.0817 -1.4921 -2.0296 0.9776
5.1720 -1.1251 -2.0284 0.9776
5.2353 -0.7527 -2.0269 0.9776
5.2568 -0.5652 -2.0261 0.9776
5.2714 -0.3770 -2.0252 0.9776
5.2791 -0.1885 -2.0244 0.9776
-4.6913 -1.0205 -1.9650 0.9795
-4.2339 -2.3119 -1.9743 0.9794
-4.1514 -2.4631 -1.9756 0.9794
-3.9703 -2.7567 -1.9782 0.9793
-3.8720 -2.8986 -1.9796 0.9793
-3.3073 -3.5523 -1.9864 0.9792
-3.0498 -3.7845 -1.9892 0.9792
-2.7759 -3.9981 -1.9921 0.9792
-2.1848 -4.3647 -1.9977 0.9791
-2.0290 -4.4430 -1.9990 0.9791
-1.8704 -4.5156 -2.0004 0.9791
-1.7092 -4.5827 -2.0018 0.9791
-1.5456 -4.6439 -2.0031 0.9791
-1.3798 -4.6992 -2.0045 0.9791
-1.2120 -4.7486 -2.0058 0.9790
-0.8713 -4.8291 -2.0084 0.9790
-0.6988 -4.8602 -2.0096 0.9790
-0.5252 -4.8850 -2.0108 0.9790
-0.1756 -4.9159 -2.0132 0.9790
-0.0000 -4.9218 -2.0144 0.9790
0.3515 -4.9146 -2.0166 0.9789
1.5611 -4.6903 -2.0232 0.9789
1.7282 -4.6334 -2.0239 0.9789
1.8931 -4.5704 -2.0247 0.9788
2.2158 -4.4267 -2.0260 0.9788
2.3731 -4.3460 -2.0266 0.9788
2.5274 -4.2597 -2.0272 0.9788
2.6785 -4.1678 -2.0277 0.9788
2.8262 -4.0705 -2.0281 0.9788
2.9703 -3.9678 -2.0285 0.9788
3.3789 -3.6292 -2.0294 0.9788
3.5066 -3.5066 -2.0296 0.9788
3.7483 -3.2479 -2.0299 0.9788
3.8619 -3.1121 -2.0299 0.9788
3.9705 -2.9723 -2.0299 0.9788
4.1721 -2.6813 -2.0298 0.9788
4.2648 -2.5304 -2.0296 0.9788
4.4334 -2.2192 -2.0291 0.9788
4.5091 -2.0592 -2.0288 0.9788
4.5789 -1.8966 -2.0284 0.9788
4.7005 -1.5645 -2.0275 0.9788
4.7521 -1.3954 -2.0270 0.9788
4.8367 -1.0522 -2.0259 0.9788
4.8696 -0.8786 -2.0252 0.9788
4.8962 -0.7040 -2.0245 0.9788
4.9302 -0.3526 -2.0230 0.9789
4.9376 -0.1763 -2.0221 0.9789
-1.4601 0.0000 -0.6363 0.9936
-1.4491 -0.1036 -0.6331 0.9937
-1.4360 -0.1544 -0.6294 0.9937
-1.4180 -0.2039 -0.6244 0.9938
-1.3400 -0.3420 -0.6027 0.9940
-1.3722 -0.4029 -0.6233 0.9938
-1.4401 -0.4793 -0.6615 0.9934
-1.5118 -0.5639 -0.7032 0.9930
-4.0505 -2.0276 -1.9741 0.9804
-3.9002 -2.3141 -1.9765 0.9804
-3.8175 -2.4534 -1.9777 0.9804
-3.7299 -2.5897 -1.9789 0.9804
-3.6374 -2.7229 -1.9802 0.9804
-3.4383 -2.9793 -1.9827 0.9803
-3.2212 -3.2212 -1.9853 0.9803
-2.9871 -3.4473 -1.9880 0.9803
-2.4727 -3.8475 -1.9932 0.9802
-2.3353 -3.9359 -1.9946 0.9802
-1.9049 -4.1712 -1.9985 0.9802
-1.7560 -4.2393 -1.9998 0.9802
-1.4509 -4.3593 -2.0023 0.9802
-1.2952 -4.4110 -2.0036 0.9801
-0.9784 -4.4977 -2.0060 0.9801
-0.8177 -4.5324 -2.0072 0.9801
-0.6558 -4.5614 -2.0084 0.9801
-0.3291 -4.6018 -2.0107 0.9801
-0.1648 -4.6132 -2.0118 0.9801
-0.0000 -4.6186 -2.0129 0.9800
0.1649 -4.6180 -2.0139 0.9800
0.3298 -4.6116 -2.0149 0.9800
0.9846 -4.5261 -2.0187 0.9800
1.1460 -4.4899 -2.0195 0.9800
1.3060 -4.4479 -2.0203 0.9800
1.6212 -4.3467 -2.0218 0.9800
1.9284 -4.2227 -2.0232 0.9799
2.0786 -4.1525 -2.0238 0.9799
2.2261 -4.0768 -2.0243 0.9799
2.3708 -3.9957 -2.0249 0.9799
2.5125 -3.9095 -2.0253 0.9799
2.6509 -3.8181 -2.0257 0.9799
2.7861 -3.7218 -2.0261 0.9799
3.1693 -3.4040 -2.0270 0.9799
3.4046 -3.1698 -2.0273 0.9799
3.6223 -2.9190 -2.0274 0.9799
3.7241 -2.7879 -2.0274 0.9799
4.1584 -2.0816 -2.0267 0.9799
4.4091 -1.4675 -2.0252 0.9799
4.4576 -1.3089 -2.0247 0.9799
4.5681 -0.8242 -2.0230 0.9799
4.5931 -0.6604 -2.0223 0.9800
4.6252 -0.3308 -2.0209 0.9800
4.6323 -0.1654 -2.0201 0.9800
-1.2447 -0.0000 -0.5761 0.9945
-1.2124 -0.1743 -0.5670 0.9946
-1.1974 -0.2161 -0.5632 0.9947
-1.1575 -0.2954 -0.5529 0.9947
-1.1536 -0.3840 -0.5628 0.9947
-1.2345 -0.5114 -0.6185 0.9941
-3.7469 -2.0460 -1.9761 0.9814
-3.5956 -2.3107 -1.9784 0.9813
-3.5129 -2.4390 -1.9796 0.9813
-3.4256 -2.5644 -1.9807 0.9813
-3.1376 -2.9212 -1.9844 0.9813
-3.0332 -3.0332 -1.9856 0.9813
-2.9248 -3.1415 -1.9868 0.9813
-2.8126 -3.2459 -1.9881 0.9812
-2.5771 -3.4426 -1.9905 0.9812
-2.3278 -3.6222 -1.9930 0.9812
-1.7931 -3.9263 -1.9980 0.9812
-1.6528 -3.9902 -1.9992 0.9811
-1.3656 -4.1028 -2.0016 0.9811
-1.2190 -4.1514 -2.0027 0.9811
-1.0706 -4.1947 -2.0039 0.9811
-0.9208 -4.2327 -2.0051 0.9811
-0.7695 -4.2652 -2.0062 0.9811
-0.6171 -4.2923 -2.0073 0.9811
-0.4638 -4.3140 -2.0084 0.9811
-0.3097 -4.3301 -2.0094 0.9810
-0.1550 -4.3406 -2.0105 0.9810
-0.0000 -4.3456 -2.0115 0.9810
0.1552 -4.3449 -2.0125 0.9810
0.3103 -4.3387 -2.0134 0.9810
0.6196 -4.3094 -2.0153 0.9810
0.9262 -4.2578 -2.0170 0.9810
1.0780 -4.2237 -2.0178 0.9810
1.5250 -4.0886 -2.0199 0.9809
1.6705 -4.0329 -2.0206 0.9809
1.8139 -3.9719 -2.0212 0.9809
1.9551 -3.9057 -2.0218 0.9809
2.2298 -3.7582 -2.0228 0.9809
2.4933 -3.5910 -2.0236 0.9809
2.8642 -3.3055 -2.0245 0.9809
3.2020 -2.9811 -2.0251 0.9809
3.3065 -2.8651 -2.0252 0.9809
3.4067 -2.7453 -2.0252 0.9809
3.5938 -2.4952 -2.0251 0.9809
3.7621 -2.2322 -2.0249 0.9809
3.9778 -1.8166 -2.0242 0.9809
4.0959 -1.5277 -2.0235 0.9809
4.2329 -1.0804 -2.0221 0.9809
4.2968 -0.7752 -2.0210 0.9809
4.3508 -0.3112 -2.0190 0.9810
4.3575 -0.1557 -2.0183 0.9810
-1.0803 -0.0386 -0.5302 0.9952
-1.0769 -0.0770 -0.5296 0.9952
-1.0518 -0.1898 -0.5242 0.9952
-1.0307 -0.2631 -0.5218 0.9953
-1.0025 -0.3337 -0.5183 0.9953
-3.5372 -1.9314 -1.9769 0.9822
-3.4679 -2.0576 -1.9779 0.9822
-3.3941 -2.1812 -1.9790 0.9822
-3.2334 -2.4205 -1.9812 0.9822
-2.8626 -2.8626 -1.9858 0.9821
-2.6542 -3.0632 -1.9882 0.9821
-2.4318 -3.2485 -1.9905 0.9821
-2.1965 -3.4178 -1.9928 0.9821
-2.0743 -3.4960 -1.9940 0.9821
-1.8217 -3.6394 -1.9963 0.9820
-1.2882 -3.8704 -2.0009 0.9820
-1.1499 -3.9161 -2.0020 0.9820
-1.0099 -3.9568 -2.0031 0.9820
-0.7258 -4.0230 -2.0052 0.9820
-0.5821 -4.0485 -2.0063 0.9819
-0.4374 -4.0687 -2.0073 0.9819
-0.1462 -4.0936 -2.0093 0.9819
-0.0000 -4.0982 -2.0103 0.9819
0.5843 -4.0636 -2.0138 0.9819
1.1584 -3.9451 -2.0169 0.9818
1.2989 -3.9026 -2.0176 0.9818
1.4378 -3.8550 -2.0182 0.9818
1.5750 -3.8024 -2.0188 0.9818
1.7102 -3.7448 -2.0194 0.9818
1.8432 -3.6823 -2.0199 0.9818
1.9740 -3.6151 -2.0204 0.9818
2.3505 -3.3855 -2.0217 0.9818
2.5869 -3.2101 -2.0223 0.9818
2.7001 -3.1161 -2.0226 0.9818
3.0185 -2.8104 -2.0231 0.9818
3.5466 -2.1044 -2.0229 0.9818
3.7500 -1.7126 -2.0222 0.9818
3.8082 -1.5774 -2.0219 0.9818
3.9096 -1.3012 -2.0212 0.9818
3.9907 -1.0186 -2.0203 0.9818
4.0235 -0.8753 -2.0198 0.9818
4.0511 -0.7309 -2.0192 0.9818
4.1022 -0.2934 -2.0174 0.9818
4.1087 -0.1467 -2.0167 0.9818
-0.9895 0.0000 -0.5133 0.9956
-0.9893 -0.0353 -0.5135 0.9955
-0.9873 -0.0706 -0.5135 0.9955
-0.9628 -0.2095 -0.5112 0.9956
-0.9268 -0.3085 -0.5067 0.9956
-0.9208 -0.3434 -0.5098 0.9956
-0.9271 -0.3840 -0.5206 0.9955
-0.9416 -0.4713 -0.5463 0.9953
-3.1361 -2.1774 -1.9807 0.9829
-3.0580 -2.2892 -1.9817 0.9829
-2.9760 -2.3982 -1.9828 0.9829
-2.8004 -2.6072 -1.9849 0.9829
-2.7070 -2.7070 -1.9860 0.9829
-2.5098 -2.8965 -1.9882 0.9829
-2.2993 -3.0715 -1.9905 0.9829
-1.5992 -3.5017 -1.9971 0.9828
-1.3467 -3.6108 -1.9992 0.9828
-1.2177 -3.6585 -2.0003 0.9828
-1.0869 -3.7015 -2.0013 0.9828
-0.8209 -3.7735 -2.0034 0.9827
-0.5501 -3.8262 -2.0054 0.9827
-0.4134 -3.8453 -2.0064 0.9827
-0.2760 -3.8594 -2.0073 0.9827
-0.1382 -3.8686 -2.0082 0.9827
-0.0000 -3.8728 -2.0091 0.9827
0.1383 -3.8720 -2.0100 0.9827
0.2765 -3.8663 -2.0109 0.9827
0.6890 -3.8191 -2.0132 0.9827
0.8252 -3.7934 -2.0140 0.9827
0.9604 -3.7629 -2.0147 0.9827
1.2272 -3.6872 -2.0160 0.9826
1.3585 -3.6422 -2.0166 0.9826
1.8649 -3.4153 -2.0187 0.9826
1.9860 -3.3473 -2.0192 0.9826
2.2206 -3.1983 -2.0199 0.9826
2.3337 -3.1175 -2.0202 0.9826
2.4438 -3.0326 -2.0205 0.9826
3.2004 -2.2221 -2.0213 0.9826
3.4831 -1.7435 -2.0207 0.9826
3.6479 -1.3606 -2.0198 0.9826
3.6935 -1.2293 -2.0195 0.9826
3.7343 -1.0965 -2.0190 0.9826
3.8012 -0.8269 -2.0181 0.9826
3.8273 -0.6905 -2.0176 0.9826
3.8485 -0.5533 -2.0171 0.9826
3.8647 -0.4155 -2.0165 0.9826
3.8758 -0.2772 -2.0159 0.9826
-0.9182 -0.0000 -0.5029 0.9958
-0.9179 -0.0328 -0.5031 0.9958
-0.9127 -0.0981 -0.5028 0.9958
-0.8932 -0.1943 -0.5006 0.9958
-0.8465 -0.3157 -0.4948 0.9959
-0.8506 -0.3885 -0.5122 0.9957
-0.8507 -0.4645 -0.5309 0.9956
-3.0414 -1.9546 -1.9801 0.9836
-2.9712 -2.0630 -1.9811 0.9836
-2.8972 -2.1688 -1.9821 0.9836
-2.8193 -2.2720 -1.9831 0.9836
-2.7379 -2.3724 -1.9842 0.9836
-2.0737 -2.9867 -1.9915 0.9836
-1.9668 -3.0604 -1.9925 0.9835
-1.7453 -3.1963 -1.9946 0.9835
-1.6310 -3.2583 -1.9957 0.9835
-1.5144 -3.3161 -1.9967 0.9835
-1.3958 -3.3698 -1.9977 0.9835
-1.2753 -3.4192 -1.9987 0.9835
-0.9038 -3.5412 -2.0017 0.9835
-0.7773 -3.5729 -2.0027 0.9835
-0.3914 -3.6406 -2.0055 0.9834
-0.1308 -3.6625 -2.0072 0.9834
-0.0000 -3.6664 -2.0081 0.9834
0.1309 -3.6656 -2.0089 0.9834
0.2618 -3.6600 -2.0097 0.9834
0.3924 -3.6498 -2.0105 0.9834
0.5226 -3.6348 -2.0113 0.9834
0.6522 -3.6151 -2.0120 0.9834
0.9091 -3.5618 -2.0134 0.9834
1.4084 -3.4002 -2.0157 0.9834
1.5292 -3.3486 -2.0163 0.9834
1.6482 -3.2927 -2.0167 0.9833
1.7651 -3.2325 -2.0172 0.9833
1.8797 -3.1681 -2.0176 0.9833
2.1016 -3.0269 -2.0183 0.9833
2.2086 -2.9504 -2.0186 0.9833
2.3129 -2.8701 -2.0189 0.9833
2.4141 -2.7860 -2.0191 0.9833
2.5122 -2.6983 -2.0193 0.9833
2.8712 -2.3138 -2.0196 0.9833
3.0289 -2.1030 -2.0196 0.9833
3.1019 -1.9935 -2.0195 0.9833
3.1709 -1.8814 -2.0194 0.9833
3.3528 -1.5312 -2.0188 0.9833
3.4049 -1.4103 -2.0185 0.9833
3.4957 -1.1635 -2.0179 0.9833
3.5684 -0.9108 -2.0171 0.9833
3.6225 -0.6536 -2.0161 0.9834
3.6426 -0.5237 -2.0156 0.9834
3.6686 -0.2624 -2.0145 0.9834
3.6745 -0.1312 -2.0138 0.9834
-0.8550 0.0000 -0.4936 0.9961
-0.8548 -0.0305 -0.4938 0.9961
-0.8531 -0.0610 -0.4938 0.9961
-0.8453 -0.1216 -0.4930 0.9961
-0.8318 -0.1810 -0.4915 0.9961
-0.8230 -0.2101 -0.4904 0.9961
-0.7887 -0.2942 -0.4860 0.9961
-0.7796 -0.3229 -0.4872 0.9961
-0.7809 -0.3566 -0.4957 0.9960
-0.7806 -0.3908 -0.5040 0.9960
-0.7634 -0.5300 -0.5366 0.9957
-2.7489 -2.0578 -1.9825 0.9843
-2.5169 -2.3433 -1.9854 0.9842
-2.2553 -2.6028 -1.9884 0.9842
-1.4364 -3.1453 -1.9963 0.9842
-1.3239 -3.1961 -1.9973 0.9841
-0.4939 -3.4353 -2.0038 0.9841
-0.2478 -3.4648 -2.0055 0.9841
-0.0000 -3.4765 -2.0071 0.9841
0.3720 -3.4605 -2.0094 0.9841
0.7406 -3.4044 -2.0115 0.9840
0.8619 -3.3769 -2.0121 0.9840
0.9822 -3.3450 -2.0127 0.9840
1.4497 -3.1745 -2.0149 0.9840
1.7819 -3.0032 -2.0161 0.9840
1.8883 -2.9382 -2.0165 0.9840
1.9922 -2.8694 -2.0168 0.9840
2.1924 -2.7207 -2.0173 0.9840
2.2884 -2.6410 -2.0176 0.9840
2.3814 -2.5578 -2.0177 0.9840
2.8711 -1.9935 -2.0180 0.9840
3.0057 -1.7834 -2.0178 0.9840
3.1248 -1.5642 -2.0175 0.9840
3.2276 -1.3369 -2.0170 0.9840
3.3138 -1.1029 -2.0164 0.9840
3.3827 -0.8634 -2.0156 0.9840
3.4679 -0.3728 -2.0137 0.9840
3.4837 -0.1244 -2.0126 0.9840
