ply
format ascii 1.0
element vertex 731
property float32 x
property float32 y
property float32 z
property float32 I
end_header
5.8683 7.8391 -1.8406 0.9609
5.5555 8.0014 -1.8309 0.9611
4.9688 8.3744 -1.8303 0.9611
4.6659 8.5450 -1.8300 0.9611
4.0432 8.8533 -1.8294 0.9612
3.7241 8.9907 -1.8291 0.9612
2.7406 9.3337 -1.8284 0.9612
1.0394 9.6675 -1.8276 0.9612
0.6936 9.6978 -1.8275 0.9612
0.3470 9.7158 -1.8274 0.9612
0.0000 9.7215 -1.8273 0.9612
-0.3470 9.7149 -1.8272 0.9612
-1.0391 9.6649 -1.8271 0.9612
-1.3834 9.6216 -1.8271 0.9612
-1.7259 9.5661 -1.8271 0.9612
-2.0663 9.4984 -1.8271 0.9612
-3.0700 9.2239 -1.8272 0.9612
-4.3525 8.6951 -1.8277 0.9612
-5.2584 8.1822 -1.8282 0.9612
-5.5477 7.9902 -1.8284 0.9612
9.4381 -0.0000 -1.9950 0.9621
9.4096 0.6730 -1.9941 0.9622
9.3774 1.0082 -1.9936 0.9622
9.3332 1.3419 -1.9931 0.9622
9.2094 2.0034 -1.9922 0.9622
9.1299 2.3303 -1.9917 0.9622
9.0388 2.6540 -1.9913 0.9622
8.9362 2.9742 -1.9908 0.9622
8.6972 3.6025 -1.9899 0.9622
8.5612 3.9097 -1.9894 0.9623
8.4143 4.2119 -1.9890 0.9623
7.3172 5.8966 -1.9864 0.9623
6.8752 6.4010 -1.9856 0.9623
6.1480 7.0952 -1.9845 0.9623
5.8898 7.3088 -1.9841 0.9624
5.6185 7.5055 -1.9818 0.9624
5.3390 7.6896 -1.9788 0.9625
4.6977 7.9175 -1.9460 0.9631
4.3401 7.9482 -1.9143 0.9637
3.3223 8.0208 -1.8351 0.9651
2.4388 8.3057 -1.8298 0.9652
2.1406 8.3866 -1.8296 0.9652
1.5365 8.5165 -1.8293 0.9652
0.6172 8.6302 -1.8289 0.9652
-0.0000 8.6514 -1.8287 0.9652
-0.3088 8.6456 -1.8287 0.9652
-0.6171 8.6288 -1.8286 0.9652
-0.9247 8.6012 -1.8286 0.9653
-2.7321 8.2086 -1.8287 0.9652
-3.0234 8.1061 -1.8288 0.9652
-3.3110 7.9935 -1.8289 0.9652
-3.6163 7.9185 -1.8401 0.9650
-3.9512 7.8936 -1.8659 0.9646
-4.2956 7.8668 -1.8946 0.9640
-5.3288 7.6749 -1.9750 0.9625
-5.6077 7.4910 -1.9780 0.9625
-5.8805 7.2973 -1.9810 0.9624
-6.8641 6.3907 -1.9824 0.9624
-7.3047 5.8865 -1.9830 0.9624
-7.7086 5.3521 -1.9837 0.9624
-8.0735 4.7903 -1.9844 0.9623
-8.2408 4.4998 -1.9847 0.9623
-8.5441 3.9020 -1.9855 0.9623
-8.8042 3.2838 -1.9863 0.9623
-9.2572 1.6702 -1.9884 0.9623
8.4877 0.0000 -1.9948 0.9657
8.4805 0.3029 -1.9944 0.9657
8.2119 2.0959 -1.9919 0.9658
8.1301 2.3872 -1.9914 0.9658
8.0380 2.6753 -1.9910 0.9658
7.8235 3.2406 -1.9902 0.9658
7.7012 3.5170 -1.9898 0.9658
7.5693 3.7889 -1.9894 0.9658
7.4277 4.0558 -1.9890 0.9658
7.2768 4.3175 -1.9886 0.9658
7.1166 4.5736 -1.9882 0.9658
6.9475 4.8237 -1.9878 0.9658
5.2996 6.5764 -1.9850 0.9659
4.8155 6.9356 -1.9844 0.9659
3.7766 7.5448 -1.9829 0.9659
3.2223 7.7793 -1.9790 0.9660
1.7508 8.0485 -1.9358 0.9667
0.2878 8.0585 -1.8951 0.9674
0.0000 8.0525 -1.8925 0.9675
-1.4455 8.0116 -1.9133 0.9671
-1.7398 7.9975 -1.9236 0.9669
-2.0375 7.9829 -1.9363 0.9667
-2.3395 7.9676 -1.9516 0.9665
-2.6465 7.9516 -1.9696 0.9662
-3.7709 7.5333 -1.9799 0.9660
-4.0410 7.4006 -1.9817 0.9659
-4.3029 7.2521 -1.9819 0.9659
-4.5594 7.0945 -1.9820 0.9659
-5.2931 6.5683 -1.9826 0.9659
-5.5247 6.3759 -1.9828 0.9659
-5.7494 6.1753 -1.9830 0.9659
-6.1769 5.7508 -1.9835 0.9659
-6.5731 5.2970 -1.9840 0.9659
-7.5559 3.7822 -1.9859 0.9659
-7.8092 3.2347 -1.9866 0.9659
-8.0230 2.6703 -1.9873 0.9659
-8.1147 2.3827 -1.9877 0.9658
-8.1962 2.0920 -1.9880 0.9658
-8.2672 1.7984 -1.9884 0.9658
-8.4171 0.9049 -1.9896 0.9658
-8.4637 0.3023 -1.9904 0.9658
7.6973 0.2749 -1.9942 0.9687
7.6811 0.5494 -1.9939 0.9687
7.6551 0.8230 -1.9935 0.9687
7.5740 1.3665 -1.9927 0.9687
7.4544 1.9026 -1.9919 0.9687
7.3803 2.1671 -1.9916 0.9687
7.2968 2.4286 -1.9912 0.9687
7.2042 2.6870 -1.9908 0.9687
7.1023 2.9419 -1.9904 0.9687
6.8718 3.4398 -1.9897 0.9687
6.1464 4.6012 -1.9879 0.9688
5.8006 5.0262 -1.9873 0.9688
5.2276 5.6148 -1.9863 0.9688
5.0231 5.7970 -1.9860 0.9688
4.3728 6.2980 -1.9852 0.9688
3.9114 6.5922 -1.9847 0.9688
2.6773 7.1780 -1.9836 0.9688
2.4191 7.2683 -1.9834 0.9688
2.1580 7.3494 -1.9832 0.9688
1.6279 7.4834 -1.9829 0.9689
1.0898 7.5796 -1.9827 0.9689
0.8184 7.6121 -1.9823 0.9689
0.5460 7.6346 -1.9818 0.9689
0.2731 7.6480 -1.9815 0.9689
-0.2731 7.6468 -1.9811 0.9689
-0.8181 7.6092 -1.9815 0.9689
-1.0894 7.5768 -1.9819 0.9689
-1.3593 7.5339 -1.9822 0.9689
-2.1569 7.3457 -1.9822 0.9689
-2.4178 7.2642 -1.9823 0.9689
-2.9300 7.0737 -1.9824 0.9689
-3.4275 6.8474 -1.9826 0.9689
-3.6700 6.7211 -1.9827 0.9689
-4.1407 6.4430 -1.9830 0.9689
-4.3683 6.2916 -1.9832 0.9688
-4.5905 6.1322 -1.9833 0.9688
-4.8069 5.9650 -1.9835 0.9688
-5.0172 5.7902 -1.9837 0.9688
-5.2212 5.6080 -1.9839 0.9688
-5.4187 5.4186 -1.9841 0.9688
-5.7927 5.0194 -1.9846 0.9688
-6.1376 4.5946 -1.9851 0.9688
-6.5963 3.9138 -1.9859 0.9688
-6.8608 3.4343 -1.9865 0.9688
-7.1921 2.6825 -1.9875 0.9688
-7.2844 2.4245 -1.9878 0.9688
-7.3676 2.1633 -1.9881 0.9688
-7.5058 1.6328 -1.9888 0.9688
-7.6415 0.8215 -1.9899 0.9687
-7.6674 0.5484 -1.9903 0.9687
-7.6835 0.2744 -1.9907 0.9687
7.0012 0.7527 -1.9934 0.9712
6.9687 1.0020 -1.9931 0.9712
6.1685 3.3683 -1.9896 0.9712
5.4681 4.4064 -1.9880 0.9712
4.9635 4.9635 -1.9872 0.9712
4.5955 5.3035 -1.9866 0.9712
4.4027 5.4634 -1.9863 0.9713
4.2043 5.6163 -1.9861 0.9713
4.0007 5.7621 -1.9858 0.9713
3.7920 5.9005 -1.9856 0.9713
2.6827 6.4766 -1.9845 0.9713
2.4496 6.5676 -1.9844 0.9713
2.2134 6.6503 -1.9842 0.9713
1.4895 6.8473 -1.9838 0.9713
0.9972 6.9353 -1.9835 0.9713
0.2500 7.0012 -1.9833 0.9713
-0.0000 7.0055 -1.9832 0.9713
-0.4998 6.9873 -1.9831 0.9713
-0.7488 6.9649 -1.9831 0.9713
-0.9969 6.9337 -1.9831 0.9713
-1.2438 6.8936 -1.9831 0.9713
-1.4890 6.8449 -1.9831 0.9713
-3.5756 6.0264 -1.9837 0.9713
-3.9970 5.7567 -1.9840 0.9713
-4.5906 5.2978 -1.9845 0.9713
-4.7772 5.1310 -1.9847 0.9713
-4.9578 4.9577 -1.9849 0.9713
-5.1321 4.7781 -1.9851 0.9713
-5.2999 4.5924 -1.9853 0.9713
-5.9024 3.7932 -1.9862 0.9713
-6.2766 3.1418 -1.9870 0.9712
-6.6638 2.2179 -1.9882 0.9712
-6.7398 1.9790 -1.9885 0.9712
-6.8072 1.7374 -1.9889 0.9712
-6.8660 1.4936 -1.9892 0.9712
-6.9161 1.2478 -1.9895 0.9712
-6.9898 0.7515 -1.9902 0.9712
-7.0280 0.2510 -1.9908 0.9712
6.4654 0.4624 -1.9937 0.9732
6.3758 1.1503 -1.9927 0.9733
6.2755 1.6017 -1.9921 0.9733
6.2133 1.8244 -1.9918 0.9733
6.0654 2.2623 -1.9911 0.9733
5.8867 2.6884 -1.9905 0.9733
5.7861 2.8963 -1.9902 0.9733
5.5630 3.3007 -1.9896 0.9733
5.4409 3.4966 -1.9893 0.9733
5.3118 3.6881 -1.9890 0.9733
5.0337 4.0564 -1.9884 0.9733
4.8851 4.2329 -1.9881 0.9733
4.5694 4.5694 -1.9876 0.9733
4.4028 4.7290 -1.9873 0.9733
4.2307 4.8825 -1.9871 0.9733
4.0532 5.0298 -1.9869 0.9733
3.4912 5.4323 -1.9862 0.9733
3.0941 5.6664 -1.9858 0.9733
2.6814 5.8716 -1.9854 0.9733
2.4700 5.9630 -1.9852 0.9734
2.2554 6.0468 -1.9850 0.9734
2.0379 6.1230 -1.9849 0.9734
1.8180 6.1914 -1.9847 0.9734
1.3715 6.3045 -1.9845 0.9734
0.9181 6.3856 -1.9843 0.9734
0.2302 6.4463 -1.9840 0.9734
-0.2302 6.4460 -1.9839 0.9734
-1.1452 6.3473 -1.9838 0.9734
-1.5951 6.2496 -1.9839 0.9734
-2.0370 6.1201 -1.9839 0.9734
-2.6798 5.8679 -1.9841 0.9734
-3.2922 5.5486 -1.9844 0.9734
-3.6801 5.3003 -1.9847 0.9734
-4.5645 4.5645 -1.9855 0.9733
-4.8795 4.2281 -1.9859 0.9733
-5.1698 3.8700 -1.9863 0.9733
-5.7783 2.8924 -1.9875 0.9733
-6.1345 2.0417 -1.9886 0.9733
-6.2043 1.8217 -1.9889 0.9733
-6.2663 1.5994 -1.9892 0.9733
-6.3663 1.1486 -1.9898 0.9733
-6.4043 0.9208 -1.9901 0.9733
-6.4340 0.6917 -1.9904 0.9733
5.9994 0.0000 -1.9942 0.9750
5.9946 0.2141 -1.9939 0.9750
5.9623 0.6410 -1.9933 0.9750
5.8996 1.0644 -1.9927 0.9750
5.8570 1.2741 -1.9924 0.9751
5.8069 1.4821 -1.9921 0.9751
5.7495 1.6882 -1.9918 0.9751
5.6847 1.8921 -1.9915 0.9751
5.6127 2.0934 -1.9913 0.9751
5.4475 2.4878 -1.9907 0.9751
5.3545 2.6803 -1.9904 0.9751
5.1482 3.0546 -1.9898 0.9751
4.9158 3.4131 -1.9893 0.9751
4.7902 3.5859 -1.9890 0.9751
4.5210 3.9175 -1.9885 0.9751
4.3777 4.0758 -1.9882 0.9751
4.2290 4.2289 -1.9880 0.9751
3.2312 5.0279 -1.9867 0.9751
3.0494 5.1395 -1.9865 0.9751
2.8638 5.2446 -1.9863 0.9751
2.4819 5.4345 -1.9859 0.9751
2.2861 5.5192 -1.9858 0.9751
1.8863 5.6674 -1.9855 0.9751
0.8498 5.9105 -1.9849 0.9751
0.6383 5.9368 -1.9848 0.9751
0.4260 5.9556 -1.9847 0.9751
0.2131 5.9668 -1.9847 0.9751
-0.2131 5.9665 -1.9846 0.9751
-0.4259 5.9550 -1.9845 0.9751
-0.6382 5.9360 -1.9845 0.9751
-1.0600 5.8753 -1.9845 0.9751
-1.2690 5.8337 -1.9845 0.9751
-1.6820 5.7285 -1.9846 0.9751
-1.8855 5.6649 -1.9846 0.9751
-2.4804 5.4314 -1.9848 0.9751
-2.6728 5.3396 -1.9849 0.9751
-3.2288 5.0241 -1.9852 0.9751
-3.5794 4.7815 -1.9854 0.9751
-3.9120 4.5146 -1.9857 0.9751
-4.3733 4.0716 -1.9862 0.9751
-4.5162 3.9133 -1.9864 0.9751
-4.6535 3.7500 -1.9866 0.9751
-5.0292 3.2321 -1.9872 0.9751
-5.1420 3.0509 -1.9874 0.9751
-5.2482 2.8657 -1.9877 0.9751
-5.3478 2.6769 -1.9879 0.9751
-5.4406 2.4846 -1.9881 0.9751
-5.5265 2.2891 -1.9884 0.9751
-5.8490 1.2724 -1.9897 0.9751
-5.8915 1.0629 -1.9900 0.9751
-5.9265 0.8521 -1.9903 0.9751
-5.9540 0.6401 -1.9906 0.9751
-5.9739 0.4273 -1.9908 0.9751
5.5763 0.0000 -1.9941 0.9766
5.5605 0.3977 -1.9936 0.9766
5.5420 0.5958 -1.9933 0.9766
5.5165 0.7931 -1.9930 0.9766
5.4839 0.9894 -1.9927 0.9766
5.4443 1.1843 -1.9925 0.9766
5.2843 1.7588 -1.9916 0.9766
5.2175 1.9460 -1.9914 0.9766
5.1440 2.1307 -1.9911 0.9766
4.9775 2.4916 -1.9906 0.9766
4.8848 2.6673 -1.9903 0.9766
4.6808 3.0082 -1.9898 0.9766
4.0699 3.7892 -1.9886 0.9767
3.6403 4.2011 -1.9879 0.9767
3.4877 4.3279 -1.9877 0.9767
3.0042 4.6746 -1.9871 0.9767
2.6626 4.8761 -1.9867 0.9767
2.4866 4.9676 -1.9866 0.9767
1.9409 5.2038 -1.9861 0.9767
1.7538 5.2694 -1.9860 0.9767
1.3733 5.3804 -1.9857 0.9767
0.7901 5.4955 -1.9855 0.9767
0.5935 5.5200 -1.9854 0.9767
0.0000 5.5513 -1.9852 0.9767
-0.1981 5.5477 -1.9852 0.9767
-0.3960 5.5370 -1.9851 0.9767
-0.5934 5.5193 -1.9851 0.9767
-0.7900 5.4945 -1.9851 0.9767
-0.9856 5.4628 -1.9851 0.9767
-1.7531 5.2672 -1.9852 0.9767
-1.9400 5.2014 -1.9852 0.9767
-2.1245 5.1290 -1.9853 0.9767
-2.3063 5.0501 -1.9853 0.9767
-2.6609 4.8730 -1.9855 0.9767
-2.8333 4.7752 -1.9856 0.9767
-3.0021 4.6713 -1.9857 0.9767
-3.1670 4.5614 -1.9858 0.9767
-3.6372 4.1975 -1.9862 0.9767
-3.9280 3.9280 -1.9865 0.9767
-4.0660 3.7856 -1.9867 0.9767
-4.3265 3.4865 -1.9870 0.9767
-4.5651 3.1696 -1.9874 0.9767
-4.6757 3.0049 -1.9876 0.9767
-4.9718 2.4887 -1.9882 0.9767
-5.0580 2.3099 -1.9885 0.9767
-5.1378 2.1282 -1.9887 0.9767
-5.2111 1.9437 -1.9889 0.9766
-5.3378 1.5673 -1.9894 0.9766
-5.4374 1.1828 -1.9899 0.9766
-5.4769 0.9881 -1.9902 0.9766
-5.5533 0.3972 -1.9910 0.9766
-5.5647 0.1987 -1.9913 0.9766
5.1994 0.1857 -1.9938 0.9780
5.1888 0.3711 -1.9935 0.9780
5.1478 0.7402 -1.9930 0.9780
5.0805 1.1052 -1.9925 0.9780
5.0372 1.2857 -1.9922 0.9780
4.9314 1.6413 -1.9917 0.9780
4.5587 2.4893 -1.9905 0.9780
4.4664 2.6500 -1.9902 0.9780
4.3685 2.8074 -1.9900 0.9780
4.2650 2.9612 -1.9897 0.9780
4.0419 3.2572 -1.9893 0.9780
3.9227 3.3990 -1.9891 0.9780
3.3976 3.9210 -1.9882 0.9780
3.2551 4.0394 -1.9880 0.9780
3.1086 4.1526 -1.9878 0.9780
2.8039 4.3630 -1.9875 0.9780
2.3209 4.6366 -1.9870 0.9780
2.1538 4.7161 -1.9868 0.9780
1.4603 4.9733 -1.9863 0.9780
1.2818 5.0220 -1.9862 0.9780
1.1017 5.0643 -1.9861 0.9780
0.7375 5.1295 -1.9859 0.9780
0.5540 5.1524 -1.9859 0.9780
0.1849 5.1785 -1.9857 0.9780
-0.1849 5.1782 -1.9857 0.9780
-0.5539 5.1517 -1.9856 0.9780
-1.4598 4.9716 -1.9857 0.9780
-1.6364 4.9164 -1.9857 0.9780
-2.1527 4.7137 -1.9858 0.9780
-2.3196 4.6341 -1.9859 0.9780
-2.4837 4.5485 -1.9860 0.9780
-3.1063 4.1496 -1.9864 0.9780
-3.2527 4.0363 -1.9865 0.9780
-3.3949 3.9179 -1.9866 0.9780
-3.6662 3.6662 -1.9869 0.9780
-4.1521 3.1082 -1.9876 0.9780
-4.4618 2.6473 -1.9881 0.9780
-4.5539 2.4866 -1.9883 0.9780
-4.8635 1.8140 -1.9892 0.9780
-5.0313 1.2842 -1.9899 0.9780
-5.1113 0.9222 -1.9904 0.9780
-5.1416 0.7392 -1.9906 0.9780
-5.1653 0.5553 -1.9909 0.9780
-5.1825 0.3707 -1.9911 0.9780
-5.1931 0.1855 -1.9914 0.9780
4.8719 -0.0000 -1.9940 0.9792
4.8683 0.1739 -1.9937 0.9792
4.7571 1.0349 -1.9925 0.9792
4.6700 1.3712 -1.9920 0.9792
4.6176 1.5369 -1.9918 0.9792
4.1824 2.4815 -1.9904 0.9792
3.9938 2.7730 -1.9899 0.9792
3.6734 3.1830 -1.9893 0.9792
3.4362 3.4362 -1.9889 0.9792
3.3111 3.5563 -1.9887 0.9792
3.1817 3.6719 -1.9885 0.9792
3.0484 3.7828 -1.9883 0.9792
2.9111 3.8888 -1.9882 0.9792
2.7702 3.9899 -1.9880 0.9792
2.3273 4.2621 -1.9875 0.9792
2.0170 4.4167 -1.9872 0.9792
1.6966 4.5487 -1.9870 0.9792
1.5331 4.6062 -1.9868 0.9792
1.2004 4.7033 -1.9866 0.9792
1.0318 4.7429 -1.9865 0.9792
0.8618 4.7765 -1.9865 0.9792
0.6907 4.8040 -1.9864 0.9792
0.3462 4.8407 -1.9863 0.9792
0.1732 4.8499 -1.9862 0.9792
-0.3462 4.8403 -1.9861 0.9792
-0.6906 4.8033 -1.9861 0.9792
-0.8616 4.7755 -1.9861 0.9792
-1.0315 4.7418 -1.9861 0.9792
-1.3672 4.6562 -1.9861 0.9792
-1.5325 4.6045 -1.9861 0.9792
-1.6959 4.5470 -1.9862 0.9792
-1.8572 4.4836 -1.9862 0.9792
-2.0161 4.4146 -1.9863 0.9792
-2.1724 4.3400 -1.9864 0.9792
-2.3261 4.2598 -1.9864 0.9792
-2.4767 4.1743 -1.9865 0.9792
-2.7685 3.9873 -1.9867 0.9792
-3.0462 3.7801 -1.9869 0.9792
-3.1794 3.6692 -1.9870 0.9792
-3.3085 3.5536 -1.9872 0.9792
-3.4335 3.4335 -1.9873 0.9792
-3.6702 3.1803 -1.9876 0.9792
-3.7817 3.0475 -1.9878 0.9792
-3.8884 2.9108 -1.9879 0.9792
-4.0868 2.6264 -1.9883 0.9792
-4.2646 2.3286 -1.9886 0.9792
-4.3454 2.1752 -1.9888 0.9792
-4.4904 1.8600 -1.9892 0.9792
-4.7114 1.2025 -1.9901 0.9792
-4.7518 1.0337 -1.9903 0.9792
-4.8146 0.6922 -1.9908 0.9792
-4.8368 0.5200 -1.9910 0.9792
-4.8627 0.1737 -1.9915 0.9792
4.5750 -0.0000 -1.9939 0.9802
4.5264 0.6508 -1.9930 0.9802
4.4998 0.8118 -1.9928 0.9802
4.4294 1.1305 -1.9923 0.9803
4.0851 2.0449 -1.9910 0.9803
3.8419 2.4690 -1.9903 0.9803
3.7509 2.6043 -1.9901 0.9803
3.6552 2.7363 -1.9899 0.9803
3.4500 2.9895 -1.9895 0.9803
3.3408 3.1104 -1.9893 0.9803
2.4663 3.8377 -1.9881 0.9803
1.7451 4.2132 -1.9874 0.9803
1.4400 4.3264 -1.9872 0.9803
1.1275 4.4177 -1.9870 0.9803
0.4873 4.5325 -1.9867 0.9803
0.1627 4.5554 -1.9866 0.9803
0.0000 4.5582 -1.9866 0.9803
-0.1627 4.5553 -1.9865 0.9803
-0.3252 4.5465 -1.9865 0.9803
-0.4872 4.5319 -1.9865 0.9803
-0.6487 4.5116 -1.9865 0.9803
-0.8093 4.4856 -1.9865 0.9803
-0.9689 4.4539 -1.9865 0.9803
-1.1273 4.4165 -1.9865 0.9803
-1.4395 4.3249 -1.9865 0.9803
-1.5930 4.2709 -1.9866 0.9803
-2.0405 4.0765 -1.9867 0.9803
-2.1848 4.0012 -1.9868 0.9803
-2.4649 3.8354 -1.9870 0.9803
-2.8612 3.5505 -1.9873 0.9803
-2.9863 3.4463 -1.9874 0.9803
-3.2249 3.2249 -1.9876 0.9803
-3.6521 2.7339 -1.9882 0.9803
-3.8385 2.4668 -1.9885 0.9803
-4.0813 2.0429 -1.9891 0.9803
-4.2174 1.7469 -1.9894 0.9803
-1.4401 0.4793 -0.6615 0.9934
-1.3722 0.4029 -0.6233 0.9938
-1.3400 0.3420 -0.6027 0.9940
-1.3688 0.2978 -0.6105 0.9939
-1.4180 0.2039 -0.6244 0.9938
-1.4359 0.1544 -0.6294 0.9937
4.3042 0.1537 -1.9936 0.9812
4.2955 0.3072 -1.9934 0.9812
4.2062 0.9150 -1.9925 0.9812
4.1294 1.2125 -1.9921 0.9812
3.9748 1.6464 -1.9915 0.9812
3.9131 1.7871 -1.9913 0.9812
3.8464 1.9254 -1.9911 0.9812
3.7749 2.0612 -1.9909 0.9812
3.6986 2.1944 -1.9907 0.9812
3.5319 2.4522 -1.9903 0.9812
3.2486 2.8149 -1.9897 0.9812
3.1458 2.9288 -1.9895 0.9812
3.0390 3.0389 -1.9894 0.9812
2.6960 3.3455 -1.9889 0.9812
2.5747 3.4394 -1.9887 0.9812
2.4501 3.5288 -1.9885 0.9812
1.9224 3.8405 -1.9880 0.9812
1.5006 4.0233 -1.9876 0.9813
1.0618 4.1600 -1.9874 0.9813
0.7622 4.2248 -1.9872 0.9813
0.6109 4.2492 -1.9871 0.9813
0.3062 4.2817 -1.9870 0.9813
0.1532 4.2898 -1.9870 0.9813
-0.0000 4.2925 -1.9869 0.9813
-0.6109 4.2486 -1.9868 0.9813
-0.7621 4.2241 -1.9868 0.9813
-0.9124 4.1942 -1.9868 0.9813
-1.0615 4.1590 -1.9869 0.9813
-1.2093 4.1185 -1.9869 0.9813
-1.5001 4.0219 -1.9869 0.9813
-1.6427 3.9658 -1.9870 0.9813
-2.5731 3.4373 -1.9875 0.9813
-2.6943 3.3434 -1.9876 0.9813
-2.8121 3.2453 -1.9877 0.9813
-2.9263 3.1431 -1.9878 0.9812
-3.1435 2.9267 -1.9881 0.9812
-3.5290 2.4502 -1.9886 0.9812
-3.6145 2.3229 -1.9888 0.9812
-3.7716 2.0594 -1.9891 0.9812
-3.8430 1.9237 -1.9893 0.9812
-1.2017 0.4482 -0.5937 0.9944
-1.1536 0.3840 -0.5628 0.9947
-1.1574 0.2954 -0.5529 0.9947
-1.1790 0.2565 -0.5585 0.9947
-1.1974 0.2160 -0.5632 0.9947
-1.2362 0.0884 -0.5737 0.9946
-1.2424 0.0444 -0.5755 0.9945
4.0616 0.1451 -1.9936 0.9821
4.0534 0.2899 -1.9934 0.9821
4.0401 0.4344 -1.9932 0.9821
4.0216 0.5782 -1.9930 0.9821
3.9980 0.7213 -1.9928 0.9821
3.9355 1.0045 -1.9924 0.9821
3.8531 1.2824 -1.9920 0.9821
3.8045 1.4190 -1.9918 0.9821
3.7510 1.5537 -1.9916 0.9821
3.6928 1.6865 -1.9914 0.9821
3.6299 1.8170 -1.9912 0.9821
3.5624 1.9452 -1.9910 0.9821
3.4904 2.0709 -1.9908 0.9821
3.3331 2.3142 -1.9904 0.9821
3.0658 2.6566 -1.9899 0.9821
2.9688 2.7640 -1.9897 0.9821
2.6557 3.0648 -1.9892 0.9821
2.4299 3.2460 -1.9889 0.9821
1.6837 3.6868 -1.9881 0.9821
1.5510 3.7444 -1.9880 0.9821
1.1417 3.8881 -1.9877 0.9821
0.4331 4.0284 -1.9874 0.9821
0.2890 4.0411 -1.9873 0.9821
0.1446 4.0488 -1.9873 0.9821
0.0000 4.0513 -1.9873 0.9821
-0.1446 4.0487 -1.9872 0.9821
-0.2890 4.0408 -1.9872 0.9821
-0.4330 4.0279 -1.9872 0.9821
-0.5765 4.0099 -1.9872 0.9821
-0.8611 3.9586 -1.9872 0.9821
-1.0019 3.9253 -1.9872 0.9821
-1.1414 3.8871 -1.9872 0.9821
-1.2794 3.8439 -1.9872 0.9821
-1.4158 3.7959 -1.9873 0.9821
-1.5504 3.7430 -1.9873 0.9821
-1.8136 3.6231 -1.9874 0.9821
-2.6540 3.0629 -1.9880 0.9821
-2.8661 2.8661 -1.9882 0.9821
-3.1566 2.5438 -1.9886 0.9821
-3.2456 2.4296 -1.9887 0.9821
-3.3305 2.3124 -1.9889 0.9821
-3.4875 2.0692 -1.9892 0.9821
-3.5594 1.9436 -1.9893 0.9821
-1.0444 0.4769 -0.5632 0.9949
-1.0119 0.3774 -0.5298 0.9952
-1.0025 0.3337 -0.5183 0.9953
-1.0175 0.2987 -0.5202 0.9953
-1.0307 0.2631 -0.5218 0.9953
-1.0422 0.2267 -0.5232 0.9953
-1.0518 0.1898 -0.5242 0.9952
-1.0611 0.1526 -0.5258 0.9952
-1.0769 0.0770 -0.5296 0.9952
-1.0803 0.0386 -0.5302 0.9952
3.8403 0.1372 -1.9935 0.9828
3.8326 0.2741 -1.9933 0.9828
3.8200 0.4107 -1.9931 0.9828
3.8025 0.5467 -1.9930 0.9828
3.7802 0.6820 -1.9928 0.9828
3.6846 1.0819 -1.9922 0.9828
3.5468 1.4691 -1.9916 0.9828
3.4323 1.7181 -1.9913 0.9829
3.3685 1.8394 -1.9911 0.9829
3.2282 2.0746 -1.9907 0.9829
3.1518 2.1883 -1.9905 0.9829
3.0714 2.2992 -1.9904 0.9829
2.9871 2.4072 -1.9902 0.9829
2.8073 2.6137 -1.9899 0.9829
2.4061 2.9857 -1.9893 0.9829
2.1866 3.1493 -1.9890 0.9829
1.9561 3.2969 -1.9887 0.9829
1.8371 3.3644 -1.9886 0.9829
1.5922 3.4865 -1.9884 0.9829
1.3393 3.5908 -1.9882 0.9829
0.8145 3.7442 -1.9879 0.9829
0.6803 3.7708 -1.9878 0.9829
0.4096 3.8095 -1.9877 0.9829
0.1368 3.8288 -1.9876 0.9829
0.0000 3.8312 -1.9876 0.9829
-0.5452 3.7921 -1.9875 0.9829
-1.0794 3.6760 -1.9875 0.9829
-1.3389 3.5897 -1.9876 0.9829
-1.7151 3.4262 -1.9877 0.9829
-1.9552 3.2954 -1.9878 0.9829
-2.1855 3.1477 -1.9880 0.9829
-2.2966 3.0678 -1.9881 0.9829
-2.4047 2.9841 -1.9882 0.9829
-2.6117 2.8052 -1.9884 0.9829
-2.7103 2.7103 -1.9885 0.9829
-2.8055 2.6120 -1.9886 0.9829
-2.8971 2.5103 -1.9887 0.9829
-3.0692 2.2976 -1.9890 0.9829
-3.1494 2.1867 -1.9891 0.9829
-0.9486 0.5180 -0.5607 0.9951
-0.9416 0.4713 -0.5463 0.9953
-0.9208 0.3434 -0.5098 0.9956
-0.9268 0.3085 -0.5067 0.9956
-0.9628 0.2095 -0.5112 0.9956
-0.9785 0.1407 -0.5129 0.9956
-0.9838 0.1058 -0.5133 0.9956
-0.9893 0.0354 -0.5135 0.9955
3.6400 0.0000 -1.9937 0.9835
3.6017 0.5179 -1.9929 0.9835
3.5806 0.6460 -1.9928 0.9835
3.5549 0.7733 -1.9926 0.9835
3.5247 0.8996 -1.9924 0.9835
3.4901 1.0248 -1.9922 0.9835
3.4510 1.1486 -1.9920 0.9835
3.3075 1.5105 -1.9915 0.9836
3.2512 1.6275 -1.9913 0.9836
3.1908 1.7423 -1.9912 0.9836
3.1263 1.8549 -1.9910 0.9836
3.0579 1.9652 -1.9908 0.9836
2.7462 2.3796 -1.9902 0.9836
2.6593 2.4759 -1.9900 0.9836
2.5690 2.5690 -1.9899 0.9836
2.4755 2.6589 -1.9897 0.9836
2.2792 2.8283 -1.9895 0.9836
1.9634 3.0551 -1.9891 0.9836
1.8530 3.1231 -1.9890 0.9836
1.7403 3.1871 -1.9888 0.9836
1.6253 3.2470 -1.9887 0.9836
1.3894 3.3543 -1.9885 0.9836
1.0227 3.4831 -1.9883 0.9836
0.8977 3.5173 -1.9882 0.9836
0.7716 3.5470 -1.9881 0.9836
0.3880 3.6088 -1.9880 0.9836
0.2589 3.6203 -1.9879 0.9836
0.1295 3.6271 -1.9879 0.9836
-0.0000 3.6294 -1.9878 0.9836
-0.2589 3.6201 -1.9878 0.9836
-0.3880 3.6085 -1.9878 0.9836
-0.5165 3.5923 -1.9878 0.9836
-0.6444 3.5716 -1.9878 0.9836
-1.2683 3.4006 -1.9879 0.9836
-1.3889 3.3532 -1.9879 0.9836
-1.5078 3.3016 -1.9879 0.9836
-1.7396 3.1858 -1.9880 0.9836
-1.8522 3.1218 -1.9881 0.9836
-2.1756 2.9062 -1.9883 0.9836
-2.2780 2.8268 -1.9884 0.9836
-2.3775 2.7438 -1.9885 0.9836
-2.5675 2.5675 -1.9887 0.9836
-2.7444 2.3780 -1.9889 0.9836
-2.8277 2.2787 -1.9890 0.9836
-2.9834 2.0714 -1.9893 0.9836
-0.8506 0.3885 -0.5122 0.9957
-0.8479 0.3512 -0.5027 0.9958
-0.8465 0.3157 -0.4948 0.9959
-0.8603 0.2863 -0.4966 0.9959
-0.8727 0.2563 -0.4982 0.9959
-0.8932 0.1943 -0.5006 0.9958
3.4506 0.1232 -1.9935 0.9842
3.4437 0.2463 -1.9933 0.9842
3.4324 0.3690 -1.9931 0.9842
3.4167 0.4912 -1.9929 0.9842
3.3724 0.7336 -1.9926 0.9842
3.3438 0.8535 -1.9924 0.9842
3.2738 1.0896 -1.9921 0.9842
3.0271 1.6529 -1.9913 0.9842
2.9659 1.7597 -1.9911 0.9842
2.8324 1.9665 -1.9908 0.9842
2.7602 2.0662 -1.9906 0.9842
2.6844 2.1633 -1.9905 0.9842
2.6053 2.2575 -1.9903 0.9842
2.5229 2.3489 -1.9902 0.9842
2.4373 2.4373 -1.9900 0.9842
2.3486 2.5225 -1.9899 0.9842
2.2569 2.6046 -1.9898 0.9842
2.1624 2.6833 -1.9896 0.9842
2.0651 2.7586 -1.9895 0.9842
1.9652 2.8304 -1.9894 0.9842
1.7580 2.9630 -1.9892 0.9842
1.2037 3.2273 -1.9887 0.9842
1.0877 3.2681 -1.9886 0.9842
0.9704 3.3047 -1.9885 0.9842
0.7321 3.3652 -1.9884 0.9842
0.4901 3.4087 -1.9883 0.9842
0.1229 3.4413 -1.9881 0.9842
0.0000 3.4435 -1.9881 0.9842
-0.1229 3.4412 -1.9881 0.9842
-0.4900 3.4083 -1.9880 0.9842
-0.6114 3.3887 -1.9880 0.9842
-0.8516 3.3364 -1.9880 0.9842
-0.9701 3.3039 -1.9881 0.9842
-1.4305 3.1324 -1.9882 0.9842
-1.5415 3.0795 -1.9882 0.9842
-1.6504 3.0226 -1.9883 0.9842
-1.7573 2.9618 -1.9883 0.9842
-1.9643 2.8291 -1.9885 0.9842
-2.0641 2.7573 -1.9886 0.9842
-2.1613 2.6820 -1.9886 0.9842
-2.3473 2.5212 -1.9888 0.9842
-2.4359 2.4359 -1.9889 0.9842
-2.5214 2.3475 -1.9890 0.9842
-2.6828 2.1619 -1.9892 0.9842
-0.7696 0.4946 -0.5282 0.9958
-0.7887 0.2942 -0.4860 0.9961
-0.8014 0.2667 -0.4876 0.9961
-0.8393 0.1514 -0.4924 0.9961
-0.8499 0.0914 -0.4935 0.9961
-0.8531 0.0610 -0.4938 0.9961
