ply
format ascii 1.0
element vertex 763
property float32 x
property float32 y
property float32 z
property float32 I
end_header
4.0939 -7.4975 -0.6263 0.9663
4.6877 -6.7515 -0.6027 0.9676
3.6820 -7.3557 -0.7897 0.9675
3.9650 -6.6826 -0.7460 0.9693
4.1766 -6.4989 -0.7417 0.9694
4.5398 -6.5387 -0.7642 0.9685
4.9349 -6.5922 -0.7906 0.9675
5.8469 -6.7476 -0.8572 0.9648
6.5654 -7.0518 -0.9250 0.9620
3.6350 -6.6571 -0.9010 0.9699
3.8320 -6.4584 -0.8920 0.9702
4.0990 -6.3783 -0.9006 0.9699
4.8439 -6.4707 -0.9601 0.9680
5.2864 -6.5600 -1.0008 0.9666
5.7668 -6.6553 -1.0460 0.9651
6.2713 -6.7358 -1.0932 0.9636
2.4397 -7.3302 -1.0946 0.9693
2.5938 -6.9542 -1.0516 0.9705
2.7972 -6.7529 -1.0357 0.9709
3.0150 -6.6020 -1.0284 0.9711
3.4557 -6.3287 -1.0217 0.9713
4.3877 -6.3194 -1.0901 0.9694
4.7794 -6.3846 -1.1300 0.9683
5.7238 -6.6056 -1.2384 0.9653
6.8805 -6.8805 -1.3787 0.9615
1.9753 -6.7272 -1.1550 0.9720
2.1249 -6.3844 -1.1085 0.9731
2.6045 -6.2878 -1.1212 0.9728
3.0610 -6.1152 -1.1266 0.9727
3.3629 -6.1587 -1.1560 0.9720
3.6893 -6.2180 -1.1911 0.9711
4.3745 -6.3005 -1.2636 0.9694
5.2056 -6.4598 -1.3667 0.9669
5.6878 -6.5641 -1.4308 0.9654
6.1335 -6.5878 -1.4828 0.9642
1.8170 -7.1189 -1.3810 0.9705
2.1249 -6.3843 -1.2647 0.9730
3.3352 -6.1079 -1.3080 0.9721
3.6528 -6.1565 -1.3455 0.9713
6.1334 -6.5877 -1.6918 0.9640
-9.2412 -0.6609 -1.9584 0.9628
-9.2191 -0.9912 -1.9600 0.9628
-9.1401 -1.6491 -1.9632 0.9627
-9.0148 -2.3009 -1.9666 0.9627
-8.7411 -3.2603 -1.9720 0.9626
-8.5022 -3.8829 -1.9757 0.9625
-8.3663 -4.1879 -1.9776 0.9625
-8.2194 -4.4882 -1.9796 0.9624
-7.8938 -5.0730 -1.9835 0.9624
-7.3281 -5.9054 -1.9894 0.9623
-6.9019 -6.4260 -1.9934 0.9622
-6.6749 -6.6749 -1.9954 0.9621
-6.4388 -6.9158 -1.9974 0.9621
-5.9408 -7.3721 -2.0013 0.9620
-5.1338 -7.9883 -2.0072 0.9619
-4.2626 -8.5156 -2.0129 0.9618
-3.9596 -8.6703 -2.0148 0.9618
-3.0182 -9.0682 -2.0202 0.9617
-2.6949 -9.1781 -2.0220 0.9616
-2.0367 -9.3625 -2.0253 0.9616
-0.3433 -9.6115 -2.0330 0.9614
0.3437 -9.6242 -2.0357 0.9614
1.0307 -9.5868 -2.0381 0.9613
1.3730 -9.5494 -2.0393 0.9613
1.7139 -9.4993 -2.0404 0.9613
2.0529 -9.4368 -2.0414 0.9613
1.9165 -6.5270 -1.4379 0.9726
2.3253 -6.2343 -1.4065 0.9732
5.2137 -6.4698 -1.7564 0.9666
5.7387 -6.6229 -1.8524 0.9648
6.1333 -6.5876 -1.9026 0.9639
6.8517 -6.8517 -2.0482 0.9612
7.5418 -6.0776 -2.0474 0.9612
7.9526 -5.5216 -2.0465 0.9612
8.1423 -5.2328 -2.0459 0.9612
8.3213 -4.9373 -2.0453 0.9612
8.4893 -4.6355 -2.0446 0.9612
8.6460 -4.3279 -2.0438 0.9612
8.9250 -3.6968 -2.0420 0.9613
9.0469 -3.3743 -2.0410 0.9613
9.1568 -3.0477 -2.0400 0.9613
9.3405 -2.3840 -2.0377 0.9614
9.4139 -2.0479 -2.0365 0.9614
9.5237 -1.3693 -2.0338 0.9614
9.5837 -0.6855 -2.0310 0.9615
9.5949 -0.3427 -2.0295 0.9615
-8.3349 -0.0000 -1.9589 0.9663
-8.3047 -0.8929 -1.9630 0.9663
-8.0453 -2.3623 -1.9707 0.9661
-7.9624 -2.6501 -1.9723 0.9661
-7.5297 -3.7691 -1.9790 0.9660
-7.3968 -4.0390 -1.9807 0.9660
-6.7707 -5.0685 -1.9878 0.9658
-6.5914 -5.3117 -1.9895 0.9658
-6.2069 -5.7788 -1.9931 0.9658
-6.0021 -6.0021 -1.9949 0.9657
-5.7892 -6.2180 -1.9967 0.9657
-5.5686 -6.4265 -1.9985 0.9657
-5.3404 -6.6270 -2.0003 0.9656
-5.1050 -6.8195 -2.0021 0.9656
-4.6135 -7.1789 -2.0056 0.9655
-3.8295 -7.6504 -2.0107 0.9655
-3.2794 -7.9172 -2.0140 0.9654
-2.7106 -8.1439 -2.0172 0.9653
-2.4200 -8.2418 -2.0188 0.9653
-2.1259 -8.3293 -2.0203 0.9653
-1.8286 -8.4060 -2.0218 0.9653
-1.2260 -8.5272 -2.0247 0.9652
-0.3081 -8.6263 -2.0287 0.9652
1.9115 -6.5100 -1.5946 0.9725
2.3131 -6.2015 -1.5556 0.9732
2.7444 -6.0094 -1.5527 0.9732
3.0148 -6.0227 -1.5829 0.9727
3.3196 -6.0794 -1.6279 0.9719
4.0203 -6.2558 -1.7477 0.9699
5.9218 -6.3604 -2.0424 0.9649
6.7639 -5.4507 -2.0416 0.9649
6.9528 -5.2048 -2.0412 0.9649
7.3029 -4.6933 -2.0402 0.9650
7.6146 -4.1579 -2.0390 0.9650
8.0065 -3.3164 -2.0367 0.9650
8.1163 -3.0272 -2.0359 0.9650
8.3036 -2.4382 -2.0339 0.9651
8.4475 -1.8377 -2.0318 0.9651
8.5471 -1.2289 -2.0294 0.9651
8.5802 -0.9225 -2.0282 0.9652
-7.5770 0.0000 -1.9618 0.9692
-7.5769 -0.2706 -1.9630 0.9692
-7.5672 -0.5412 -1.9643 0.9691
-7.3762 -1.8827 -1.9711 0.9690
-7.3097 -2.1463 -1.9725 0.9690
-7.1487 -2.6663 -1.9755 0.9690
-6.9510 -3.1744 -1.9785 0.9689
-6.7174 -3.6680 -1.9817 0.9689
-6.5874 -3.9085 -1.9832 0.9688
-6.4489 -4.1445 -1.9848 0.9688
-6.3020 -4.3756 -1.9864 0.9688
-6.1468 -4.6015 -1.9881 0.9688
-5.8124 -5.0365 -1.9913 0.9687
-5.6335 -5.2450 -1.9929 0.9687
-5.4471 -5.4471 -1.9946 0.9687
-4.8455 -6.0128 -1.9994 0.9686
-4.6315 -6.1870 -2.0010 0.9686
-2.7174 -7.2858 -2.0133 0.9684
-2.4574 -7.3834 -2.0148 0.9684
-1.6575 -7.6194 -2.0189 0.9683
-1.1111 -7.7282 -2.0215 0.9683
-0.8351 -7.7676 -2.0228 0.9682
-0.2792 -7.8165 -2.0251 0.9682
0.0000 -7.8258 -2.0262 0.9682
0.5589 -7.8140 -2.0283 0.9681
0.8378 -7.7928 -2.0293 0.9681
1.1159 -7.7615 -2.0302 0.9681
1.3928 -7.7201 -2.0311 0.9681
1.6682 -7.6685 -2.0320 0.9681
1.9416 -7.6070 -2.0327 0.9681
2.2126 -7.5355 -2.0335 0.9681
2.3116 -6.1975 -1.7126 0.9730
2.7282 -5.9740 -1.7004 0.9732
3.3196 -6.0794 -1.7934 0.9718
4.2538 -6.6191 -2.0372 0.9680
4.7159 -6.2998 -2.0375 0.9680
5.3625 -5.7597 -2.0376 0.9680
5.5644 -5.5644 -2.0375 0.9680
5.7590 -5.3618 -2.0373 0.9680
5.9460 -5.1523 -2.0371 0.9680
6.1253 -4.9361 -2.0368 0.9680
6.6139 -4.2505 -2.0356 0.9680
7.2522 -3.0040 -2.0324 0.9681
7.3519 -2.7421 -2.0316 0.9681
7.4420 -2.4769 -2.0308 0.9681
7.5224 -2.2088 -2.0299 0.9681
7.5928 -1.9380 -2.0289 0.9681
7.6534 -1.6649 -2.0279 0.9682
7.7445 -1.1135 -2.0258 0.9682
7.7750 -0.8359 -2.0247 0.9682
7.7953 -0.5576 -2.0235 0.9682
-6.9110 -0.7430 -1.9677 0.9715
-6.8048 -1.4803 -1.9715 0.9715
-6.6908 -1.9646 -1.9741 0.9714
-6.6209 -2.2037 -1.9754 0.9714
-6.4558 -2.6741 -1.9782 0.9714
-6.2575 -3.1323 -1.9810 0.9713
-6.1462 -3.3561 -1.9824 0.9713
-6.0269 -3.5759 -1.9839 0.9713
-5.8998 -3.7916 -1.9854 0.9713
-5.6226 -4.2090 -1.9883 0.9712
-5.3159 -4.6063 -1.9913 0.9712
-4.9812 -4.9812 -1.9943 0.9711
-4.4301 -5.4974 -1.9987 0.9711
-4.0325 -5.8079 -2.0016 0.9710
-3.6131 -6.0896 -2.0045 0.9710
-3.3958 -6.2190 -2.0059 0.9710
-3.1739 -6.3407 -2.0073 0.9710
-2.9476 -6.4544 -2.0087 0.9709
-2.7172 -6.5599 -2.0101 0.9709
-2.2453 -6.7460 -2.0127 0.9709
-2.0044 -6.8262 -2.0140 0.9709
-1.0149 -7.0589 -2.0189 0.9708
-0.5093 -7.1212 -2.0211 0.9708
0.0000 -7.1467 -2.0232 0.9707
0.5103 -7.1353 -2.0251 0.9707
2.2649 -6.8051 -2.0304 0.9706
2.5071 -6.7217 -2.0309 0.9706
2.7758 -6.0781 -1.8916 0.9726
3.4410 -6.3018 -2.0326 0.9706
4.0964 -5.8999 -2.0333 0.9706
4.7041 -5.4288 -2.0336 0.9706
5.0791 -5.0791 -2.0334 0.9706
5.7476 -4.3026 -2.0325 0.9706
5.8964 -4.0940 -2.0321 0.9706
6.0376 -3.8801 -2.0317 0.9706
6.4127 -3.2100 -2.0301 0.9706
6.5212 -2.9781 -2.0295 0.9706
6.6211 -2.7426 -2.0288 0.9706
6.7124 -2.5036 -2.0281 0.9707
6.8685 -2.0168 -2.0265 0.9707
6.9332 -1.7696 -2.0256 0.9707
6.9887 -1.5203 -2.0247 0.9707
7.0353 -1.2693 -2.0238 0.9707
7.1008 -0.7634 -2.0218 0.9707
7.1197 -0.5092 -2.0207 0.9708
-6.3836 -0.4566 -1.9685 0.9736
-6.3089 -1.1383 -1.9718 0.9735
-6.2191 -1.5874 -1.9742 0.9735
-6.1623 -1.8094 -1.9754 0.9735
-5.9449 -2.4625 -1.9792 0.9734
-5.7617 -2.8841 -1.9818 0.9734
-5.5487 -3.2922 -1.9845 0.9734
-5.1756 -3.8744 -1.9885 0.9733
-5.0374 -4.0594 -1.9899 0.9733
-4.7415 -4.4145 -1.9926 0.9733
-4.5841 -4.5841 -1.9940 0.9732
-3.8956 -5.2040 -1.9994 0.9732
-2.9194 -5.8321 -2.0060 0.9731
-2.7110 -5.9364 -2.0073 0.9731
-2.2835 -6.1222 -2.0098 0.9730
-2.0647 -6.2035 -2.0110 0.9730
-1.8431 -6.2770 -2.0122 0.9730
-1.3922 -6.3997 -2.0145 0.9730
-1.1635 -6.4489 -2.0156 0.9729
0.0000 -6.5693 -2.0206 0.9729
0.7031 -6.5400 -2.0232 0.9728
0.9365 -6.5133 -2.0239 0.9728
1.3997 -6.4344 -2.0254 0.9728
1.8563 -6.3220 -2.0266 0.9728
2.0814 -6.2535 -2.0272 0.9728
2.3038 -6.1768 -2.0277 0.9728
2.5234 -6.0920 -2.0281 0.9728
2.7398 -5.9993 -2.0286 0.9728
3.1618 -5.7905 -2.0292 0.9728
3.5677 -5.5515 -2.0297 0.9728
4.1414 -5.1392 -2.0301 0.9728
4.3223 -4.9882 -2.0301 0.9728
4.4975 -4.8306 -2.0301 0.9728
4.6668 -4.6668 -2.0300 0.9728
4.9871 -4.3213 -2.0297 0.9728
5.2813 -3.9535 -2.0291 0.9728
5.6704 -3.3644 -2.0280 0.9728
5.7855 -3.1591 -2.0275 0.9728
5.8930 -2.9498 -2.0270 0.9728
5.9928 -2.7368 -2.0264 0.9728
6.1689 -2.3009 -2.0251 0.9728
6.2449 -2.0785 -2.0244 0.9728
6.3128 -1.8536 -2.0236 0.9728
6.3724 -1.6265 -2.0228 0.9729
6.5013 -0.9347 -2.0202 0.9729
6.5275 -0.7018 -2.0193 0.9729
6.5544 -0.2341 -2.0173 0.9729
-5.9118 -0.4228 -1.9701 0.9753
-5.8419 -1.0540 -1.9732 0.9753
-5.8038 -1.2625 -1.9743 0.9753
-5.7054 -1.6753 -1.9766 0.9752
-5.5779 -2.0804 -1.9789 0.9752
-5.5034 -2.2796 -1.9801 0.9752
-4.9112 -3.4099 -1.9874 0.9751
-4.2412 -4.2412 -1.9938 0.9750
-4.0897 -4.3927 -1.9950 0.9750
-3.9328 -4.5387 -1.9963 0.9750
-3.7707 -4.6792 -1.9976 0.9750
-3.6035 -4.8138 -1.9988 0.9750
-3.4315 -4.9424 -2.0000 0.9750
-2.8889 -5.2905 -2.0037 0.9749
-2.6998 -5.3935 -2.0049 0.9749
-2.3108 -5.5788 -2.0072 0.9749
-2.1114 -5.6610 -2.0084 0.9749
-1.9091 -5.7359 -2.0095 0.9748
-1.4966 -5.8638 -2.0116 0.9748
-1.0756 -5.9617 -2.0137 0.9748
-0.4328 -6.0512 -2.0166 0.9748
-0.2166 -6.0655 -2.0175 0.9747
0.0000 -6.0719 -2.0183 0.9747
0.6498 -6.0442 -2.0207 0.9747
0.8655 -6.0193 -2.0214 0.9747
1.0801 -5.9866 -2.0221 0.9747
1.7154 -5.8421 -2.0239 0.9747
1.9233 -5.7786 -2.0244 0.9747
2.1288 -5.7076 -2.0249 0.9746
2.5316 -5.5434 -2.0257 0.9746
2.7283 -5.4504 -2.0260 0.9746
2.9215 -5.3503 -2.0263 0.9746
3.2965 -5.1294 -2.0268 0.9746
3.4777 -5.0089 -2.0269 0.9746
3.8265 -4.7484 -2.0271 0.9746
3.9936 -4.6088 -2.0271 0.9746
4.3119 -4.3120 -2.0270 0.9746
4.4628 -4.1550 -2.0269 0.9746
4.6079 -3.9928 -2.0267 0.9746
4.7470 -3.8254 -2.0265 0.9746
5.0063 -3.4760 -2.0259 0.9746
5.1263 -3.2945 -2.0256 0.9746
5.5379 -2.5291 -2.0237 0.9747
5.7008 -2.1263 -2.0225 0.9747
5.7712 -1.9209 -2.0219 0.9747
5.8341 -1.7131 -2.0212 0.9747
5.8894 -1.5032 -2.0204 0.9747
5.9370 -1.2915 -2.0197 0.9747
6.0092 -0.8640 -2.0180 0.9747
6.0335 -0.6487 -2.0171 0.9747
6.0501 -0.4327 -2.0162 0.9748
-5.4992 -0.3933 -1.9716 0.9769
-5.4843 -0.5896 -1.9725 0.9768
-5.4624 -0.7854 -1.9735 0.9768
-5.4336 -0.9803 -1.9745 0.9768
-5.3979 -1.1743 -1.9755 0.9768
-5.2499 -1.7473 -1.9786 0.9768
-4.9588 -2.4822 -1.9831 0.9767
-4.8699 -2.6592 -1.9842 0.9767
-4.6732 -3.0033 -1.9865 0.9767
-4.5657 -3.1700 -1.9877 0.9767
-4.2081 -3.6464 -1.9912 0.9766
-3.9419 -3.9419 -1.9936 0.9766
-3.8010 -4.0825 -1.9947 0.9766
-3.5041 -4.3484 -1.9971 0.9766
-3.3486 -4.4733 -1.9982 0.9765
-3.0245 -4.7062 -2.0005 0.9765
-2.5083 -5.0109 -2.0039 0.9765
-2.1467 -5.1827 -2.0061 0.9765
-1.9614 -5.2588 -2.0071 0.9764
-1.7734 -5.3282 -2.0082 0.9764
-1.1954 -5.4954 -2.0111 0.9764
-0.9990 -5.5372 -2.0121 0.9764
-0.6020 -5.5993 -2.0139 0.9764
0.0000 -5.6386 -2.0164 0.9763
0.4025 -5.6284 -2.0179 0.9763
1.3977 -5.4760 -2.0210 0.9763
1.7856 -5.3650 -2.0220 0.9763
1.9764 -5.2990 -2.0225 0.9763
2.3503 -5.1464 -2.0232 0.9763
2.5329 -5.0600 -2.0235 0.9762
2.7122 -4.9671 -2.0238 0.9762
2.8881 -4.8676 -2.0240 0.9762
3.3926 -4.5320 -2.0245 0.9762
3.5523 -4.4081 -2.0245 0.9762
3.7074 -4.2786 -2.0245 0.9762
4.0030 -4.0030 -2.0244 0.9762
4.1431 -3.8573 -2.0243 0.9762
4.4069 -3.5513 -2.0240 0.9762
4.5303 -3.3913 -2.0237 0.9762
4.6478 -3.2270 -2.0234 0.9763
5.2208 -2.1625 -2.0208 0.9763
5.3587 -1.7835 -2.0196 0.9763
5.5503 -1.0014 -2.0169 0.9763
5.5803 -0.8024 -2.0161 0.9763
5.6031 -0.6024 -2.0153 0.9763
5.6187 -0.4019 -2.0144 0.9764
-5.1438 -0.0000 -1.9712 0.9782
-5.0733 -0.9153 -1.9756 0.9782
-5.0398 -1.0964 -1.9765 0.9781
-4.7771 -1.9788 -1.9815 0.9781
-4.7059 -2.1491 -1.9826 0.9781
-4.4564 -2.6441 -1.9857 0.9780
-4.3615 -2.8030 -1.9868 0.9780
-4.1550 -3.1104 -1.9890 0.9780
-3.5465 -3.8092 -1.9945 0.9780
-3.4101 -3.9355 -1.9956 0.9779
-2.6644 -4.4905 -2.0010 0.9779
-2.5037 -4.5852 -2.0020 0.9779
-2.3396 -4.6740 -2.0030 0.9779
-2.1724 -4.7570 -2.0041 0.9778
-1.8293 -4.9047 -2.0060 0.9778
-1.2964 -5.0793 -2.0089 0.9778
-1.1148 -5.1246 -2.0098 0.9778
-0.9316 -5.1634 -2.0107 0.9778
-0.5613 -5.2211 -2.0123 0.9778
-0.3748 -5.2399 -2.0131 0.9777
-0.1876 -5.2520 -2.0139 0.9777
0.0000 -5.2573 -2.0147 0.9777
0.3753 -5.2475 -2.0161 0.9777
0.7492 -5.2107 -2.0173 0.9777
1.4847 -5.0563 -2.0195 0.9777
2.0179 -4.8716 -2.0207 0.9777
2.1908 -4.7973 -2.0210 0.9777
2.3610 -4.7167 -2.0213 0.9777
2.8526 -4.4387 -2.0220 0.9777
3.1623 -4.2244 -2.0222 0.9776
3.3112 -4.1089 -2.0222 0.9776
3.5958 -3.8622 -2.0222 0.9776
3.7313 -3.7313 -2.0222 0.9776
3.9874 -3.4551 -2.0219 0.9777
4.1078 -3.3103 -2.0217 0.9777
4.3324 -3.0081 -2.0212 0.9777
4.5345 -2.6905 -2.0206 0.9777
4.7130 -2.3592 -2.0198 0.9777
4.7932 -2.1890 -2.0193 0.9777
4.8670 -2.0160 -2.0188 0.9777
4.9346 -1.8405 -2.0183 0.9777
5.0985 -1.3013 -2.0165 0.9777
5.1748 -0.9337 -2.0151 0.9777
-4.8193 0.0000 -1.9724 0.9794
-4.8182 -0.1721 -1.9732 0.9794
-4.7976 -0.5158 -1.9748 0.9794
-4.7781 -0.6870 -1.9757 0.9794
-4.7527 -0.8575 -1.9766 0.9793
-4.7211 -1.0270 -1.9774 0.9793
-4.6401 -1.3625 -1.9793 0.9793
-4.5907 -1.5279 -1.9802 0.9793
-4.5354 -1.6916 -1.9811 0.9793
-4.4743 -1.8533 -1.9821 0.9793
-4.4075 -2.0128 -1.9831 0.9793
-4.3350 -2.1700 -1.9841 0.9793
-4.2569 -2.3245 -1.9851 0.9793
-3.9902 -2.7704 -1.9881 0.9792
-3.8907 -2.9126 -1.9891 0.9792
-3.6768 -3.1860 -1.9912 0.9792
-3.0606 -3.7980 -1.9963 0.9791
-2.7847 -4.0107 -1.9983 0.9791
-2.3435 -4.2917 -2.0013 0.9791
-2.1898 -4.3748 -2.0023 0.9791
-1.7121 -4.5902 -2.0051 0.9790
-1.5478 -4.6505 -2.0060 0.9790
-1.0432 -4.7955 -2.0086 0.9790
-0.6990 -4.8616 -2.0102 0.9790
-0.5252 -4.8854 -2.0110 0.9790
-0.3507 -4.9028 -2.0117 0.9790
0.0000 -4.9188 -2.0131 0.9790
0.3511 -4.9095 -2.0145 0.9790
0.7009 -4.8748 -2.0156 0.9789
0.8747 -4.8480 -2.0162 0.9789
1.0474 -4.8149 -2.0167 0.9789
1.3889 -4.7301 -2.0176 0.9789
1.7235 -4.6208 -2.0184 0.9789
1.8876 -4.5571 -2.0188 0.9789
2.0494 -4.4875 -2.0191 0.9789
2.2085 -4.4121 -2.0194 0.9789
2.3649 -4.3310 -2.0196 0.9789
2.5182 -4.2442 -2.0198 0.9789
2.6683 -4.1520 -2.0200 0.9789
2.8150 -4.0543 -2.0201 0.9789
2.9580 -3.9515 -2.0202 0.9789
3.0973 -3.8435 -2.0202 0.9789
3.2325 -3.7305 -2.0202 0.9789
3.6124 -3.3633 -2.0200 0.9789
3.7299 -3.2319 -2.0199 0.9789
3.8425 -3.0965 -2.0197 0.9789
3.9502 -2.9571 -2.0195 0.9789
4.0527 -2.8138 -2.0193 0.9789
4.4089 -2.2069 -2.0179 0.9789
4.4839 -2.0478 -2.0175 0.9789
4.5531 -1.8860 -2.0170 0.9789
4.8090 -1.0461 -2.0142 0.9790
4.8417 -0.8735 -2.0136 0.9790
4.8681 -0.6999 -2.0129 0.9790
4.9021 -0.3506 -2.0114 0.9790
4.9097 -0.1754 -2.0107 0.9790
-1.4601 -0.0000 -0.6363 0.9936
-1.4571 -0.0521 -0.6354 0.9937
-1.4490 -0.1037 -0.6331 0.9937
-1.4359 -0.1544 -0.6294 0.9937
-1.3400 -0.3420 -0.6027 0.9940
-4.1401 -1.8907 -1.9836 0.9803
-3.5558 -2.8654 -1.9902 0.9803
-3.4529 -2.9920 -1.9912 0.9803
-3.3455 -3.1148 -1.9921 0.9803
-3.1178 -3.3488 -1.9941 0.9802
-2.7459 -3.6682 -1.9969 0.9802
-2.6145 -3.7656 -1.9979 0.9802
-2.0558 -4.1069 -2.0016 0.9802
-1.9087 -4.1795 -2.0025 0.9802
-1.6071 -4.3088 -2.0042 0.9801
-1.2967 -4.4162 -2.0059 0.9801
-1.1387 -4.4614 -2.0067 0.9801
-0.9791 -4.5010 -2.0075 0.9801
-0.8182 -4.5348 -2.0083 0.9801
-0.6560 -4.5629 -2.0090 0.9801
-0.3291 -4.6013 -2.0104 0.9801
0.3295 -4.6072 -2.0130 0.9800
0.4939 -4.5938 -2.0136 0.9800
0.6577 -4.5745 -2.0141 0.9800
0.8208 -4.5492 -2.0146 0.9800
1.1437 -4.4812 -2.0156 0.9800
1.3032 -4.4384 -2.0160 0.9800
1.4611 -4.3899 -2.0164 0.9800
2.0722 -4.1398 -2.0176 0.9800
2.2189 -4.0637 -2.0178 0.9800
2.3628 -3.9823 -2.0180 0.9800
2.5036 -3.8957 -2.0182 0.9800
2.6412 -3.8041 -2.0183 0.9800
2.9060 -3.6062 -2.0184 0.9800
3.1559 -3.3896 -2.0184 0.9800
3.2748 -3.2747 -2.0183 0.9800
3.3894 -3.1556 -2.0183 0.9800
3.8026 -2.6402 -2.0175 0.9800
3.8939 -2.5025 -2.0172 0.9800
3.9801 -2.3615 -2.0169 0.9800
4.1370 -2.0708 -2.0162 0.9800
4.3857 -1.4597 -2.0144 0.9800
4.4762 -1.1425 -2.0134 0.9800
4.5129 -0.9817 -2.0128 0.9800
4.5876 -0.4932 -2.0109 0.9801
4.6079 -0.1646 -2.0095 0.9801
-1.2424 -0.0444 -0.5755 0.9945
-1.2362 -0.0884 -0.5737 0.9946
-1.2261 -0.1318 -0.5708 0.9946
-1.2124 -0.1743 -0.5670 0.9946
-1.1974 -0.2160 -0.5632 0.9947
-1.1790 -0.2565 -0.5585 0.9947
-1.1329 -0.3327 -0.5466 0.9948
-1.2017 -0.4482 -0.5937 0.9944
-3.8345 -1.9194 -1.9849 0.9813
-3.7652 -2.0560 -1.9858 0.9813
-3.6911 -2.1900 -1.9866 0.9813
-3.6122 -2.3214 -1.9875 0.9813
-3.5286 -2.4500 -1.9884 0.9812
-3.4405 -2.5755 -1.9893 0.9812
-3.2510 -2.8170 -1.9912 0.9812
-3.1498 -2.9326 -1.9921 0.9812
-2.9352 -3.1527 -1.9939 0.9812
-2.8221 -3.2569 -1.9948 0.9812
-2.7053 -3.3571 -1.9957 0.9812
-2.3340 -3.6318 -1.9984 0.9812
-2.2039 -3.7145 -1.9992 0.9811
-2.0708 -3.7924 -2.0001 0.9811
-1.9349 -3.8655 -2.0010 0.9811
-1.6556 -3.9971 -2.0026 0.9811
-1.5125 -4.0553 -2.0034 0.9811
-1.3674 -4.1083 -2.0042 0.9811
-1.0716 -4.1986 -2.0058 0.9811
-0.9214 -4.2358 -2.0065 0.9811
-0.7699 -4.2675 -2.0072 0.9811
-0.6173 -4.2938 -2.0080 0.9811
-0.4639 -4.3145 -2.0086 0.9811
-0.3097 -4.3298 -2.0093 0.9810
-0.1550 -4.3394 -2.0099 0.9810
0.1551 -4.3421 -2.0111 0.9810
0.3100 -4.3350 -2.0117 0.9810
0.4647 -4.3223 -2.0122 0.9810
0.6188 -4.3040 -2.0128 0.9810
0.7722 -4.2802 -2.0132 0.9810
1.0761 -4.2161 -2.0141 0.9810
1.2261 -4.1758 -2.0145 0.9810
1.3746 -4.1301 -2.0149 0.9810
1.5214 -4.0791 -2.0152 0.9810
1.8091 -3.9613 -2.0158 0.9810
1.9495 -3.8947 -2.0160 0.9810
2.2228 -3.7464 -2.0164 0.9810
2.3553 -3.6650 -2.0166 0.9810
2.4848 -3.5787 -2.0167 0.9810
2.8533 -3.2928 -2.0168 0.9810
3.1886 -2.9687 -2.0166 0.9810
3.2924 -2.8529 -2.0165 0.9810
3.3918 -2.7333 -2.0164 0.9810
3.6634 -2.3543 -2.0157 0.9810
3.7445 -2.2217 -2.0154 0.9810
3.8922 -1.9483 -2.0147 0.9810
4.0197 -1.6650 -2.0140 0.9810
4.2462 -0.9237 -2.0115 0.9810
4.3168 -0.4641 -2.0097 0.9810
4.3292 -0.3096 -2.0090 0.9811
4.3360 -0.1549 -2.0084 0.9811
-1.0803 -0.0386 -0.5302 0.9952
-1.0518 -0.1898 -0.5242 0.9952
-1.0422 -0.2267 -0.5232 0.9953
-1.0119 -0.3774 -0.5298 0.9952
-1.0290 -0.4262 -0.5463 0.9951
-1.0444 -0.4770 -0.5632 0.9949
-1.0589 -0.5300 -0.5808 0.9947
-3.5536 -1.9404 -1.9860 0.9821
-3.4835 -2.0669 -1.9869 0.9821
-3.3300 -2.3121 -1.9886 0.9821
-3.2468 -2.4305 -1.9894 0.9821
-3.1593 -2.5460 -1.9903 0.9821
-3.0678 -2.6583 -1.9912 0.9821
-2.8728 -2.8728 -1.9929 0.9821
-2.6628 -3.0731 -1.9946 0.9820
-2.5525 -3.1675 -1.9954 0.9820
-2.3220 -3.3443 -1.9971 0.9820
-1.8254 -3.6467 -2.0004 0.9820
-1.1511 -3.9204 -2.0042 0.9820
-1.0108 -3.9604 -2.0049 0.9820
-0.8691 -3.9953 -2.0056 0.9819
-0.5823 -4.0499 -2.0070 0.9819
-0.4375 -4.0694 -2.0076 0.9819
-0.2921 -4.0837 -2.0083 0.9819
0.0000 -4.0965 -2.0094 0.9819
0.2924 -4.0883 -2.0105 0.9819
0.4383 -4.0763 -2.0110 0.9819
0.7283 -4.0365 -2.0120 0.9819
1.0148 -3.9759 -2.0128 0.9819
1.2963 -3.8948 -2.0135 0.9819
1.4347 -3.8467 -2.0138 0.9819
1.5713 -3.7935 -2.0141 0.9819
1.7059 -3.7355 -2.0144 0.9819
2.4621 -3.2890 -2.0153 0.9819
2.6905 -3.1050 -2.0153 0.9819
3.0068 -2.7994 -2.0152 0.9819
3.1046 -2.6902 -2.0151 0.9819
3.1984 -2.5775 -2.0149 0.9819
3.3735 -2.3423 -2.0145 0.9819
3.4545 -2.2201 -2.0143 0.9819
3.6704 -1.8373 -2.0134 0.9819
3.8915 -1.2952 -2.0118 0.9819
3.9343 -1.1552 -2.0113 0.9819
3.9720 -1.0138 -2.0108 0.9819
4.0321 -0.7275 -2.0098 0.9819
4.0714 -0.4377 -2.0086 0.9819
4.0832 -0.2921 -2.0080 0.9819
-0.9873 -0.0706 -0.5135 0.9955
-0.9838 -0.1058 -0.5133 0.9956
-0.9785 -0.1407 -0.5129 0.9956
-0.9715 -0.1753 -0.5121 0.9956
-0.9628 -0.2095 -0.5112 0.9956
-0.9524 -0.2431 -0.5099 0.9956
-0.9404 -0.2761 -0.5085 0.9956
-0.9271 -0.3840 -0.5206 0.9955
-0.9416 -0.4713 -0.5463 0.9953
-3.2942 -1.9545 -1.9871 0.9829
-3.2236 -2.0717 -1.9879 0.9829
-3.1489 -2.1863 -1.9887 0.9829
-3.0701 -2.2982 -1.9895 0.9829
-2.9007 -2.5134 -1.9911 0.9829
-2.8102 -2.6165 -1.9920 0.9828
-2.7162 -2.7162 -1.9928 0.9828
-2.6186 -2.8125 -1.9936 0.9828
-2.4132 -2.9946 -1.9952 0.9828
-2.3057 -3.0801 -1.9960 0.9828
-2.1952 -3.1617 -1.9968 0.9828
-1.8468 -3.3821 -1.9991 0.9828
-1.6020 -3.5079 -2.0006 0.9828
-1.4763 -3.5642 -2.0014 0.9828
-1.0880 -3.7055 -2.0035 0.9827
-0.9554 -3.7433 -2.0042 0.9827
-0.5503 -3.8276 -2.0061 0.9827
-0.4135 -3.8460 -2.0067 0.9827
-0.1381 -3.8679 -2.0079 0.9827
0.1382 -3.8700 -2.0090 0.9827
0.4141 -3.8522 -2.0099 0.9827
0.8241 -3.7883 -2.0112 0.9827
1.0926 -3.7212 -2.0120 0.9827
1.6120 -3.5298 -2.0131 0.9827
1.7371 -3.4704 -2.0133 0.9827
1.9806 -3.3382 -2.0136 0.9827
2.0986 -3.2656 -2.0138 0.9827
2.2140 -3.1887 -2.0139 0.9827
2.4359 -3.0228 -2.0140 0.9827
2.8411 -2.6452 -2.0138 0.9827
3.0222 -2.4355 -2.0136 0.9827
3.1070 -2.3258 -2.0134 0.9827
3.2643 -2.0978 -2.0130 0.9827
3.3367 -1.9797 -2.0127 0.9827
3.5821 -1.4838 -2.0115 0.9827
3.6321 -1.3547 -2.0111 0.9827
3.7537 -0.9581 -2.0098 0.9827
3.8106 -0.6875 -2.0088 0.9827
3.8316 -0.5509 -2.0082 0.9827
-0.9182 -0.0000 -0.5029 0.9958
-0.8932 -0.1943 -0.5006 0.9958
-0.8837 -0.2256 -0.4995 0.9958
-0.8524 -0.5058 -0.5429 0.9955
-3.0536 -1.9625 -1.9881 0.9836
-2.9828 -2.0710 -1.9888 0.9836
-2.7475 -2.3807 -1.9911 0.9836
-2.6618 -2.4782 -1.9919 0.9836
-2.5726 -2.5726 -1.9927 0.9835
-2.1836 -2.9170 -1.9957 0.9835
-2.0789 -2.9942 -1.9965 0.9835
-1.9715 -3.0677 -1.9972 0.9835
-1.7489 -3.2028 -1.9987 0.9835
-1.5170 -3.3218 -2.0001 0.9835
-1.3980 -3.3750 -2.0008 0.9835
-1.1544 -3.4685 -2.0022 0.9835
-1.0302 -3.5087 -2.0028 0.9835
-0.9046 -3.5443 -2.0035 0.9835
-0.7778 -3.5755 -2.0041 0.9835
-0.6499 -3.6021 -2.0047 0.9834
-0.5211 -3.6240 -2.0053 0.9834
-0.3915 -3.6414 -2.0059 0.9834
-0.2613 -3.6541 -2.0064 0.9834
0.1309 -3.6639 -2.0080 0.9834
0.3921 -3.6469 -2.0089 0.9834
0.5221 -3.6314 -2.0094 0.9834
0.6515 -3.6111 -2.0098 0.9834
0.7801 -3.5863 -2.0101 0.9834
0.9078 -3.5568 -2.0105 0.9834
1.2834 -3.4409 -2.0114 0.9834
1.6444 -3.2852 -2.0121 0.9834
1.7608 -3.2247 -2.0123 0.9834
1.8749 -3.1600 -2.0124 0.9834
1.9866 -3.0912 -2.0126 0.9834
2.0958 -3.0185 -2.0127 0.9834
2.3059 -2.8614 -2.0128 0.9834
2.5985 -2.5985 -2.0127 0.9834
2.6895 -2.5040 -2.0126 0.9834
2.8609 -2.3055 -2.0124 0.9834
2.9411 -2.2017 -2.0122 0.9834
3.0176 -2.0951 -2.0120 0.9834
3.2834 -1.6436 -2.0110 0.9834
3.3394 -1.5251 -2.0107 0.9834
3.3911 -1.4047 -2.0104 0.9834
3.6076 -0.6509 -2.0078 0.9834
3.6536 -0.2613 -2.0062 0.9834
3.6596 -0.1307 -2.0057 0.9834
-0.8548 -0.0305 -0.4938 0.9961
-0.8531 -0.0610 -0.4938 0.9961
-0.8499 -0.0914 -0.4935 0.9961
-0.8453 -0.1216 -0.4930 0.9961
-0.8393 -0.1514 -0.4924 0.9961
-0.8014 -0.2667 -0.4876 0.9961
-0.7887 -0.2942 -0.4860 0.9961
-0.7809 -0.3567 -0.4957 0.9960
-0.7787 -0.4252 -0.5122 0.9959
-0.7750 -0.4599 -0.5203 0.9958
-0.7634 -0.5300 -0.5366 0.9957
-2.7588 -2.0652 -1.9897 0.9842
-2.6843 -2.1632 -1.9904 0.9842
-2.2617 -2.6102 -1.9940 0.9842
-2.0713 -2.7669 -1.9955 0.9842
-1.7655 -2.9756 -1.9976 0.9841
-1.6587 -3.0378 -1.9983 0.9841
-1.5498 -3.0961 -1.9990 0.9841
-1.3258 -3.2009 -2.0003 0.9841
-0.8579 -3.3613 -2.0028 0.9841
-0.4941 -3.4367 -2.0046 0.9841
-0.3712 -3.4531 -2.0051 0.9841
-0.1240 -3.4725 -2.0062 0.9841
0.2481 -3.4684 -2.0076 0.9841
0.4951 -3.4433 -2.0084 0.9841
0.6178 -3.4241 -2.0088 0.9841
0.7397 -3.4004 -2.0092 0.9841
1.0995 -3.3034 -2.0101 0.9840
1.2169 -3.2625 -2.0104 0.9840
1.3327 -3.2174 -2.0106 0.9840
1.4468 -3.1681 -2.0108 0.9840
1.5591 -3.1148 -2.0110 0.9840
1.6695 -3.0574 -2.0112 0.9840
1.7776 -2.9961 -2.0113 0.9840
1.8835 -2.9309 -2.0114 0.9840
1.9871 -2.8619 -2.0115 0.9840
2.1863 -2.7130 -2.0116 0.9840
2.2817 -2.6332 -2.0116 0.9840
2.3742 -2.5501 -2.0116 0.9840
2.5499 -2.3741 -2.0115 0.9840
2.7125 -2.1859 -2.0113 0.9840
2.8611 -1.9865 -2.0109 0.9840
2.9299 -1.8829 -2.0107 0.9840
2.9948 -1.7769 -2.0105 0.9840
3.1663 -1.4460 -2.0097 0.9841
3.2154 -1.3319 -2.0094 0.9841
3.2603 -1.2160 -2.0090 0.9841
3.3696 -0.8600 -2.0078 0.9841
3.4399 -0.4946 -2.0065 0.9841
3.4647 -0.2478 -2.0054 0.9841
3.4704 -0.1240 -2.0049 0.9841
