ply
format ascii 1.0
element vertex 713
property float32 x
property float32 y
property float32 z
property float32 I
end_header
-9.3870 -0.3353 -1.9855 0.9623
-9.3703 -0.6702 -1.9857 0.9623
-9.3417 -1.0043 -1.9860 0.9623
-9.3012 -1.3373 -1.9863 0.9623
-9.0216 -2.6490 -1.9875 0.9623
-8.8125 -3.2869 -1.9881 0.9623
-8.0957 -4.8034 -1.9898 0.9622
-7.7351 -5.3706 -1.9905 0.9622
-7.3349 -5.9109 -1.9912 0.9622
-7.1205 -6.1700 -1.9916 0.9622
-6.8970 -6.4214 -1.9919 0.9622
-6.4237 -6.8995 -1.9927 0.9622
-5.3803 -7.7490 -1.9941 0.9622
-4.8154 -8.1160 -1.9948 0.9622
-4.2257 -8.4418 -1.9955 0.9621
-3.9223 -8.5887 -1.9958 0.9621
-2.9833 -8.9633 -1.9968 0.9621
-2.6619 -9.0655 -1.9972 0.9621
-2.3370 -9.1562 -1.9975 0.9621
-2.0090 -9.2352 -1.9978 0.9621
-0.6746 -9.4326 -1.9990 0.9621
-0.3376 -9.4519 -1.9992 0.9621
0.3377 -9.4544 -1.9997 0.9621
0.6750 -9.4375 -2.0000 0.9621
1.0115 -9.4085 -2.0002 0.9621
1.3468 -9.3674 -2.0004 0.9620
1.6805 -9.3144 -2.0007 0.9620
2.3412 -9.1726 -2.0011 0.9620
3.3091 -8.8720 -2.0016 0.9620
3.6239 -8.7489 -2.0017 0.9620
3.9342 -8.6146 -2.0019 0.9620
4.2394 -8.4692 -2.0020 0.9620
5.4025 -7.7811 -2.0023 0.9620
5.9442 -7.3763 -2.0025 0.9620
6.2038 -7.1595 -2.0025 0.9620
6.6988 -6.6988 -2.0025 0.9620
6.9337 -6.4554 -2.0025 0.9620
7.1596 -6.2038 -2.0025 0.9620
8.1462 -4.8333 -2.0022 0.9620
8.3132 -4.5393 -2.0021 0.9620
8.7492 -3.6240 -2.0018 0.9620
9.0844 -2.6674 -2.0013 0.9620
9.1730 -2.3412 -2.0011 0.9620
9.3679 -1.3469 -2.0005 0.9620
-8.4456 -0.3016 -1.9862 0.9659
-8.3681 -1.2032 -1.9869 0.9659
-8.3209 -1.5012 -1.9872 0.9659
-8.2631 -1.7975 -1.9874 0.9658
-8.0270 -2.6716 -1.9883 0.9658
-7.8182 -3.2384 -1.9889 0.9658
-7.5696 -3.7890 -1.9895 0.9658
-7.4306 -4.0574 -1.9898 0.9658
-7.1245 -4.5786 -1.9904 0.9658
-6.9576 -4.8308 -1.9907 0.9658
-6.7819 -5.0768 -1.9910 0.9658
-6.5974 -5.3165 -1.9913 0.9658
-6.2033 -5.7755 -1.9920 0.9658
-5.9942 -5.9942 -1.9923 0.9658
-5.7774 -6.2054 -1.9926 0.9658
-5.3217 -6.6038 -1.9933 0.9658
-4.8386 -6.9689 -1.9939 0.9657
-3.8000 -7.5914 -1.9952 0.9657
-3.5271 -7.7233 -1.9955 0.9657
-3.2497 -7.8455 -1.9958 0.9657
-2.9681 -7.9577 -1.9961 0.9657
-1.8064 -8.3039 -1.9972 0.9657
-1.5091 -8.3642 -1.9975 0.9657
-1.2097 -8.4138 -1.9978 0.9657
-0.6066 -8.4809 -1.9983 0.9657
-0.3035 -8.4982 -1.9985 0.9657
0.0000 -8.5046 -1.9988 0.9657
0.6068 -8.4848 -1.9992 0.9657
0.9094 -8.4586 -1.9994 0.9656
1.2109 -8.4216 -1.9996 0.9656
2.3979 -8.1665 -2.0003 0.9656
2.6881 -8.0763 -2.0005 0.9656
2.9748 -7.9758 -2.0006 0.9656
3.2578 -7.8651 -2.0008 0.9656
3.8111 -7.6135 -2.0010 0.9656
4.3449 -7.3229 -2.0012 0.9656
4.8566 -6.9948 -2.0013 0.9656
5.1033 -6.8172 -2.0014 0.9656
5.3435 -6.6309 -2.0014 0.9656
5.5768 -6.4360 -2.0015 0.9656
6.2329 -5.8031 -2.0015 0.9656
6.9949 -4.8567 -2.0014 0.9656
7.6137 -3.8111 -2.0011 0.9656
7.9761 -2.9749 -2.0007 0.9656
8.2465 -2.1048 -2.0003 0.9656
8.3157 -1.8090 -2.0001 0.9656
8.3742 -1.5109 -1.9999 0.9656
8.4852 -0.6069 -1.9993 0.9656
8.5006 -0.3036 -1.9991 0.9657
-7.6725 0.0000 -1.9865 0.9688
-7.6684 -0.2739 -1.9867 0.9688
-7.6310 -0.8204 -1.9872 0.9688
-7.5977 -1.0924 -1.9874 0.9688
-7.5022 -1.6320 -1.9879 0.9688
-7.3685 -2.1636 -1.9884 0.9688
-7.2876 -2.4255 -1.9886 0.9688
-7.1973 -2.6845 -1.9889 0.9688
-6.9894 -3.1919 -1.9895 0.9688
-5.9888 -4.8261 -1.9914 0.9687
-5.8136 -5.0375 -1.9917 0.9687
-5.6310 -5.2426 -1.9920 0.9687
-4.6140 -6.1636 -1.9935 0.9687
-3.9304 -6.6244 -1.9944 0.9687
-3.6920 -6.7614 -1.9946 0.9687
-2.9493 -7.1203 -1.9955 0.9687
-2.6937 -7.2221 -1.9958 0.9687
-2.4345 -7.3146 -1.9960 0.9686
-2.1722 -7.3978 -1.9963 0.9686
-1.9070 -7.4716 -1.9965 0.9686
-1.6393 -7.5358 -1.9968 0.9686
-1.3695 -7.5905 -1.9970 0.9686
0.0000 -7.7174 -1.9982 0.9686
0.5507 -7.6993 -1.9986 0.9686
1.0987 -7.6419 -1.9990 0.9686
1.3709 -7.5984 -1.9991 0.9686
1.6414 -7.5453 -1.9993 0.9686
1.9098 -7.4825 -1.9995 0.9686
2.1758 -7.4101 -1.9996 0.9686
2.4391 -7.3283 -1.9997 0.9686
2.6993 -7.2370 -1.9999 0.9686
3.2090 -7.0268 -2.0001 0.9686
3.7025 -6.7806 -2.0003 0.9686
4.1771 -6.4997 -2.0005 0.9686
4.6304 -6.1855 -2.0006 0.9686
4.8483 -6.0164 -2.0006 0.9686
5.4638 -5.4638 -2.0007 0.9686
5.8396 -5.0601 -2.0006 0.9686
6.0164 -4.8483 -2.0006 0.9686
6.4998 -4.1772 -2.0005 0.9686
6.6445 -3.9424 -2.0004 0.9686
6.9083 -3.4580 -2.0003 0.9686
7.1366 -2.9561 -2.0001 0.9686
7.3285 -2.4391 -1.9998 0.9686
7.4104 -2.1759 -1.9997 0.9686
7.4828 -1.9099 -1.9995 0.9686
7.5987 -1.3709 -1.9992 0.9686
7.6997 -0.5507 -1.9987 0.9686
-7.0190 0.0000 -1.9870 0.9712
-7.0152 -0.2506 -1.9872 0.9712
-7.0025 -0.5008 -1.9874 0.9712
-6.9809 -0.7505 -1.9876 0.9712
-6.9504 -0.9993 -1.9878 0.9712
-6.8629 -1.4929 -1.9883 0.9712
-6.8060 -1.7371 -1.9885 0.9712
-6.7405 -1.9792 -1.9887 0.9712
-6.6663 -2.2188 -1.9890 0.9712
-6.3933 -2.9197 -1.9897 0.9712
-6.0469 -3.5878 -1.9905 0.9712
-5.9157 -3.8018 -1.9907 0.9712
-5.7770 -4.0111 -1.9910 0.9712
-5.6309 -4.2153 -1.9913 0.9712
-5.4776 -4.4142 -1.9915 0.9712
-5.3173 -4.6075 -1.9918 0.9712
-4.9764 -4.9764 -1.9923 0.9712
-4.7963 -5.1516 -1.9926 0.9712
-4.6100 -5.3202 -1.9929 0.9712
-4.4177 -5.4821 -1.9931 0.9712
-4.0165 -5.7848 -1.9937 0.9711
-3.5945 -6.0582 -1.9942 0.9711
-3.3764 -6.1834 -1.9945 0.9711
-2.9274 -6.4102 -1.9950 0.9711
-2.6971 -6.5114 -1.9952 0.9711
-1.7438 -6.8323 -1.9962 0.9711
-1.4990 -6.8910 -1.9964 0.9711
-1.2523 -6.9409 -1.9966 0.9711
-1.0038 -6.9819 -1.9969 0.9711
0.2519 -7.0528 -1.9979 0.9711
1.0046 -6.9873 -1.9984 0.9711
1.5008 -6.8989 -1.9987 0.9711
1.7462 -6.8414 -1.9989 0.9711
1.9894 -6.7752 -1.9990 0.9711
2.2301 -6.7003 -1.9991 0.9711
2.7027 -6.5249 -1.9993 0.9711
3.1616 -6.3161 -1.9995 0.9711
3.3852 -6.1995 -1.9996 0.9711
4.0289 -5.8026 -1.9998 0.9711
4.2335 -5.6553 -1.9999 0.9711
4.4327 -5.5007 -1.9999 0.9711
4.8140 -5.1705 -1.9999 0.9711
5.3391 -4.6263 -1.9999 0.9711
5.6553 -4.2335 -1.9999 0.9711
5.8027 -4.0289 -1.9998 0.9711
5.9427 -3.8191 -1.9998 0.9711
6.4248 -2.9341 -1.9995 0.9711
6.5251 -2.7028 -1.9994 0.9711
6.7005 -2.2301 -1.9992 0.9711
6.8417 -1.7462 -1.9989 0.9711
6.8992 -1.5008 -1.9988 0.9711
7.0184 -0.7546 -1.9983 0.9711
-6.4616 0.0000 -1.9875 0.9733
-6.4581 -0.2306 -1.9876 0.9733
-6.4463 -0.4611 -1.9878 0.9733
-6.3982 -0.9199 -1.9882 0.9733
-6.2048 -1.8219 -1.9890 0.9733
-5.7860 -2.8963 -1.9901 0.9733
-5.4452 -3.4994 -1.9909 0.9733
-5.3175 -3.6920 -1.9911 0.9733
-5.1829 -3.8799 -1.9913 0.9733
-4.8941 -4.2408 -1.9918 0.9733
-4.7402 -4.4133 -1.9921 0.9733
-4.5803 -4.5803 -1.9923 0.9733
-4.2429 -4.8966 -1.9928 0.9732
-3.1074 -5.6907 -1.9943 0.9732
-2.6941 -5.8993 -1.9948 0.9732
-2.2669 -6.0779 -1.9952 0.9732
-1.8280 -6.2255 -1.9957 0.9732
-1.6048 -6.2875 -1.9959 0.9732
-1.3795 -6.3414 -1.9961 0.9732
-0.6939 -6.4545 -1.9967 0.9732
-0.2317 -6.4888 -1.9971 0.9732
0.0000 -6.4935 -1.9973 0.9732
0.2318 -6.4899 -1.9974 0.9732
1.1534 -6.3929 -1.9981 0.9732
1.8305 -6.2342 -1.9985 0.9732
2.0520 -6.1653 -1.9986 0.9732
2.2709 -6.0884 -1.9987 0.9732
2.4869 -6.0038 -1.9988 0.9732
2.9091 -5.8116 -1.9990 0.9732
3.5140 -5.4679 -1.9992 0.9732
3.7070 -5.3391 -1.9992 0.9732
3.8953 -5.2035 -1.9993 0.9732
4.0786 -5.0613 -1.9993 0.9732
4.2567 -4.9125 -1.9993 0.9732
4.5964 -4.5964 -1.9993 0.9732
5.4680 -3.5140 -1.9992 0.9732
5.9116 -2.6997 -1.9989 0.9732
6.0886 -2.2709 -1.9987 0.9732
6.2344 -1.8306 -1.9985 0.9732
6.3483 -1.3810 -1.9983 0.9732
6.3931 -1.1534 -1.9981 0.9732
6.4581 -0.6943 -1.9978 0.9732
-5.9801 0.0000 -1.9878 0.9751
-5.9768 -0.2135 -1.9880 0.9751
-5.9213 -0.8514 -1.9885 0.9751
-5.6788 -1.8901 -1.9895 0.9751
-5.6083 -2.0918 -1.9897 0.9751
-5.5306 -2.2909 -1.9899 0.9751
-5.2558 -2.8699 -1.9905 0.9751
-5.1506 -3.0560 -1.9908 0.9751
-5.0388 -3.2382 -1.9910 0.9751
-4.7960 -3.5902 -1.9914 0.9751
-4.6653 -3.7596 -1.9917 0.9751
-4.5287 -3.9242 -1.9919 0.9751
-4.3862 -4.0837 -1.9921 0.9751
-4.2382 -4.2382 -1.9923 0.9751
-4.0847 -4.3872 -1.9926 0.9750
-3.9259 -4.5308 -1.9928 0.9750
-3.7621 -4.6685 -1.9930 0.9750
-3.5935 -4.8004 -1.9932 0.9750
-3.2426 -5.0457 -1.9937 0.9750
-2.8751 -5.2653 -1.9941 0.9750
-1.4847 -5.8171 -1.9956 0.9750
-1.2763 -5.8670 -1.9958 0.9750
-0.8546 -5.9442 -1.9962 0.9750
-0.6420 -5.9714 -1.9964 0.9750
-0.4285 -5.9911 -1.9966 0.9750
0.0000 -6.0074 -1.9969 0.9750
0.2144 -6.0041 -1.9971 0.9750
0.8552 -5.9481 -1.9975 0.9750
1.0670 -5.9142 -1.9976 0.9750
1.2775 -5.8727 -1.9978 0.9750
1.4864 -5.8237 -1.9979 0.9750
1.6934 -5.7673 -1.9980 0.9750
1.8983 -5.7035 -1.9981 0.9750
2.3006 -5.5541 -1.9983 0.9750
2.6912 -5.3762 -1.9985 0.9750
2.8814 -5.2769 -1.9985 0.9750
3.4293 -4.9391 -1.9987 0.9750
3.9378 -4.5444 -1.9988 0.9750
4.0975 -4.4010 -1.9988 0.9750
4.2520 -4.2520 -1.9988 0.9750
4.8137 -3.6035 -1.9988 0.9750
5.2770 -2.8814 -1.9986 0.9750
5.3763 -2.6912 -1.9985 0.9750
5.4687 -2.4975 -1.9984 0.9750
5.6325 -2.1008 -1.9983 0.9750
5.7036 -1.8983 -1.9982 0.9750
5.8239 -1.4864 -1.9979 0.9750
5.9143 -1.0671 -1.9977 0.9750
5.9483 -0.8552 -1.9976 0.9750
5.9746 -0.6423 -1.9974 0.9750
6.0043 -0.2144 -1.9971 0.9750
-5.5565 -0.1984 -1.9883 0.9767
-5.5463 -0.3967 -1.9885 0.9767
-5.5290 -0.5944 -1.9886 0.9767
-5.4735 -0.9875 -1.9890 0.9766
-5.3900 -1.3757 -1.9893 0.9766
-5.3380 -1.5674 -1.9895 0.9766
-4.8857 -2.6678 -1.9907 0.9766
-4.7879 -2.8408 -1.9909 0.9766
-4.6839 -3.0102 -1.9911 0.9766
-4.2096 -3.6476 -1.9919 0.9766
-4.0772 -3.7960 -1.9921 0.9766
-3.4969 -4.3394 -1.9930 0.9766
-3.1791 -4.5788 -1.9934 0.9766
-3.0140 -4.6899 -1.9936 0.9766
-2.8450 -4.7949 -1.9938 0.9766
-2.3168 -5.0731 -1.9944 0.9766
-2.1345 -5.1531 -1.9946 0.9766
-1.7618 -5.2933 -1.9950 0.9766
-1.5719 -5.3533 -1.9952 0.9766
-1.3799 -5.4065 -1.9954 0.9766
-0.9909 -5.4922 -1.9958 0.9766
-0.7943 -5.5245 -1.9959 0.9766
-0.1993 -5.5792 -1.9964 0.9766
0.1993 -5.5800 -1.9967 0.9766
0.3984 -5.5698 -1.9969 0.9766
0.5969 -5.5524 -1.9970 0.9766
0.7948 -5.5279 -1.9971 0.9766
1.5738 -5.3598 -1.9976 0.9765
1.7642 -5.3005 -1.9977 0.9765
1.9523 -5.2343 -1.9978 0.9765
2.1380 -5.1616 -1.9979 0.9765
2.8512 -4.8054 -1.9982 0.9765
3.0210 -4.7007 -1.9982 0.9765
3.1869 -4.5900 -1.9983 0.9765
3.3487 -4.4734 -1.9983 0.9765
3.5063 -4.3511 -1.9983 0.9765
3.8079 -4.0900 -1.9984 0.9765
3.9514 -3.9514 -1.9984 0.9765
4.0900 -3.8079 -1.9984 0.9765
4.2232 -3.6594 -1.9984 0.9765
4.3511 -3.5063 -1.9983 0.9765
4.8055 -2.8512 -1.9982 0.9765
5.0823 -2.3210 -1.9980 0.9765
5.1617 -2.1380 -1.9979 0.9765
5.2345 -1.9523 -1.9978 0.9765
5.3599 -1.5738 -1.9977 0.9765
5.4579 -1.1873 -1.9974 0.9766
5.4965 -0.9917 -1.9973 0.9766
5.5281 -0.7948 -1.9972 0.9766
5.5525 -0.5970 -1.9971 0.9766
5.5802 -0.1993 -1.9968 0.9766
-5.1858 -0.1852 -1.9886 0.9780
-5.1602 -0.5548 -1.9889 0.9780
-5.1083 -0.9216 -1.9892 0.9780
-5.0725 -1.1035 -1.9893 0.9780
-5.0303 -1.2839 -1.9895 0.9780
-4.9268 -1.6398 -1.9899 0.9780
-4.8656 -1.8147 -1.9900 0.9780
-4.7981 -1.9874 -1.9902 0.9780
-4.6450 -2.3251 -1.9906 0.9780
-4.0469 -3.2612 -1.9917 0.9780
-3.9283 -3.4039 -1.9919 0.9780
-3.8047 -3.5423 -1.9921 0.9780
-3.2632 -4.0493 -1.9929 0.9780
-3.1169 -4.1637 -1.9931 0.9780
-2.9666 -4.2727 -1.9933 0.9780
-2.3292 -4.6532 -1.9941 0.9780
-1.9917 -4.8084 -1.9945 0.9780
-1.6439 -4.9391 -1.9948 0.9779
-1.4667 -4.9951 -1.9950 0.9779
-1.1068 -5.0879 -1.9954 0.9779
-0.9246 -5.1245 -1.9955 0.9779
-0.7411 -5.1547 -1.9957 0.9779
-0.5567 -5.1783 -1.9958 0.9779
-0.1859 -5.2056 -1.9962 0.9779
0.0000 -5.2093 -1.9963 0.9779
0.1859 -5.2063 -1.9964 0.9779
0.5570 -5.1805 -1.9967 0.9779
0.7416 -5.1576 -1.9968 0.9779
1.1077 -5.0922 -1.9971 0.9779
1.4683 -5.0007 -1.9973 0.9779
1.8215 -4.8836 -1.9974 0.9779
2.1654 -4.7416 -1.9976 0.9779
2.3334 -4.6615 -1.9977 0.9779
2.6601 -4.4834 -1.9978 0.9779
2.8185 -4.3857 -1.9978 0.9779
2.9733 -4.2824 -1.9979 0.9779
3.1243 -4.1736 -1.9979 0.9779
3.2713 -4.0595 -1.9979 0.9779
3.5527 -3.8158 -1.9980 0.9779
3.6866 -3.6866 -1.9980 0.9779
3.9402 -3.4142 -1.9980 0.9779
4.3857 -2.8185 -1.9978 0.9779
4.5754 -2.4984 -1.9978 0.9779
4.6615 -2.3334 -1.9977 0.9779
4.8158 -1.9948 -1.9976 0.9779
4.8837 -1.8215 -1.9975 0.9779
5.0498 -1.2889 -1.9972 0.9779
5.1283 -0.9252 -1.9970 0.9779
5.1969 -0.3717 -1.9966 0.9779
-4.8473 -0.3467 -1.9890 0.9792
-4.8109 -0.6917 -1.9892 0.9792
-4.5561 -1.6993 -1.9902 0.9792
-4.4930 -1.8610 -1.9904 0.9792
-4.4240 -2.0204 -1.9905 0.9792
-4.0929 -2.6304 -1.9912 0.9792
-3.8956 -2.9162 -1.9916 0.9792
-3.3174 -3.5632 -1.9925 0.9792
-2.9184 -3.8985 -1.9931 0.9792
-2.4856 -4.1892 -1.9936 0.9792
-2.3347 -4.2757 -1.9938 0.9792
-2.1690 -4.3332 -1.9833 0.9793
-2.0241 -4.4321 -1.9942 0.9792
-1.8648 -4.5019 -1.9943 0.9792
-1.7030 -4.5660 -1.9945 0.9792
-1.5391 -4.6243 -1.9947 0.9792
-1.3732 -4.6767 -1.9949 0.9792
-1.2055 -4.7231 -1.9950 0.9792
-1.0362 -4.7635 -1.9952 0.9792
-0.8656 -4.7978 -1.9953 0.9791
-0.6939 -4.8260 -1.9955 0.9791
-0.5212 -4.8481 -1.9956 0.9791
-0.3479 -4.8639 -1.9958 0.9791
0.5214 -4.8500 -1.9964 0.9791
0.8662 -4.8010 -1.9967 0.9791
1.0371 -4.7673 -1.9968 0.9791
1.5409 -4.6297 -1.9970 0.9791
1.7053 -4.5720 -1.9971 0.9791
1.8674 -4.5084 -1.9972 0.9791
2.1845 -4.3639 -1.9973 0.9791
2.9249 -3.9072 -1.9976 0.9791
3.3259 -3.5723 -1.9976 0.9791
3.4513 -3.4513 -1.9976 0.9791
3.5723 -3.3259 -1.9976 0.9791
3.6887 -3.1962 -1.9976 0.9791
3.8004 -3.0625 -1.9976 0.9791
3.9072 -2.9249 -1.9976 0.9791
4.0091 -2.7836 -1.9975 0.9791
4.2834 -2.3389 -1.9974 0.9791
4.3640 -2.1845 -1.9974 0.9791
4.5085 -1.8675 -1.9972 0.9791
4.5721 -1.7053 -1.9972 0.9791
4.7276 -1.2066 -1.9969 0.9791
4.8011 -0.8662 -1.9967 0.9791
4.8287 -0.6942 -1.9966 0.9791
4.8501 -0.5214 -1.9965 0.9791
4.8654 -0.3480 -1.9964 0.9791
4.8744 -0.1741 -1.9962 0.9791
-1.4571 -0.0520 -0.6354 0.9937
-1.4180 -0.2039 -0.6244 0.9938
-1.3400 -0.3420 -0.6027 0.9940
-1.4401 -0.4793 -0.6615 0.9934
-4.2196 -1.7478 -1.9905 0.9803
-3.7535 -2.6061 -1.9915 0.9803
-3.6584 -2.7387 -1.9917 0.9803
-3.4543 -2.9932 -1.9920 0.9803
-3.2325 -3.2326 -1.9923 0.9803
-2.7406 -3.6610 -1.9930 0.9802
-2.6084 -3.7568 -1.9932 0.9802
-2.4728 -3.8478 -1.9934 0.9802
-2.3206 -3.9112 -1.9820 0.9804
-2.0407 -4.0769 -1.9869 0.9803
-1.7511 -4.2275 -1.9942 0.9802
-1.1320 -4.4351 -1.9949 0.9802
-0.8128 -4.5052 -1.9951 0.9802
-0.6516 -4.5317 -1.9953 0.9802
-0.4894 -4.5524 -1.9954 0.9802
-0.3267 -4.5672 -1.9956 0.9802
-0.1634 -4.5763 -1.9957 0.9802
0.1635 -4.5769 -1.9959 0.9802
0.4896 -4.5541 -1.9962 0.9802
0.6519 -4.5339 -1.9963 0.9802
0.8133 -4.5080 -1.9964 0.9802
0.9738 -4.4763 -1.9965 0.9802
1.1330 -4.4389 -1.9966 0.9802
1.2907 -4.3959 -1.9967 0.9802
1.4469 -4.3472 -1.9968 0.9802
2.0511 -4.0976 -1.9970 0.9802
2.1961 -4.0218 -1.9971 0.9802
2.3383 -3.9410 -1.9971 0.9802
2.4775 -3.8551 -1.9972 0.9802
2.7463 -3.6687 -1.9972 0.9802
3.0011 -3.4635 -1.9973 0.9802
3.1228 -3.3542 -1.9973 0.9802
3.2406 -3.2406 -1.9973 0.9802
3.4635 -3.0011 -1.9973 0.9802
3.5684 -2.8756 -1.9973 0.9802
3.6687 -2.7463 -1.9972 0.9802
3.7643 -2.6136 -1.9972 0.9802
4.1681 -1.9035 -1.9970 0.9802
4.3473 -1.4469 -1.9968 0.9802
4.4390 -1.1330 -1.9966 0.9802
4.4764 -0.9738 -1.9965 0.9802
4.5542 -0.4896 -1.9962 0.9802
4.5685 -0.3267 -1.9961 0.9802
-1.2362 -0.0884 -0.5737 0.9946
-1.1575 -0.2954 -0.5529 0.9947
-1.1330 -0.3327 -0.5466 0.9948
-1.2345 -0.5114 -0.6185 0.9941
-3.9121 -1.7866 -1.9907 0.9812
-3.7753 -2.0614 -1.9911 0.9812
-3.6192 -2.3259 -1.9914 0.9812
-3.5341 -2.4538 -1.9915 0.9812
-3.4446 -2.5786 -1.9917 0.9812
-3.3506 -2.7001 -1.9919 0.9812
-3.2524 -2.8182 -1.9920 0.9812
-3.1500 -2.9327 -1.9922 0.9812
-2.9332 -3.1505 -1.9925 0.9812
-2.8191 -3.2534 -1.9927 0.9812
-2.5803 -3.4468 -1.9930 0.9812
-2.4558 -3.5370 -1.9932 0.9812
-2.1976 -3.7038 -1.9935 0.9812
-2.0641 -3.7802 -1.9937 0.9812
-1.6486 -3.9801 -1.9941 0.9812
-1.5056 -4.0367 -1.9943 0.9812
-1.0657 -4.1754 -1.9947 0.9812
-0.9161 -4.2111 -1.9948 0.9812
-0.6134 -4.2663 -1.9951 0.9812
0.1539 -4.3088 -1.9957 0.9812
0.3076 -4.3008 -1.9959 0.9812
0.6137 -4.2683 -1.9961 0.9812
0.7657 -4.2439 -1.9962 0.9812
1.3621 -4.0924 -1.9965 0.9812
1.5074 -4.0414 -1.9966 0.9812
1.6507 -3.9851 -1.9966 0.9812
1.7919 -3.9238 -1.9967 0.9812
1.9309 -3.8574 -1.9968 0.9812
2.3323 -3.6292 -1.9969 0.9812
2.8252 -3.2605 -1.9970 0.9812
2.9398 -3.1576 -1.9970 0.9812
3.0506 -3.0506 -1.9970 0.9812
3.1576 -2.9398 -1.9970 0.9812
3.2605 -2.8252 -1.9970 0.9812
3.7101 -2.2013 -1.9969 0.9812
3.7862 -2.0674 -1.9968 0.9812
3.9238 -1.7920 -1.9967 0.9812
4.0414 -1.5074 -1.9966 0.9812
4.3009 -0.3076 -1.9959 0.9812
4.3089 -0.1539 -1.9958 0.9812
-1.0769 -0.0770 -0.5296 0.9952
-1.0611 -0.1526 -0.5258 0.9952
-1.0518 -0.1898 -0.5242 0.9952
-1.0422 -0.2267 -0.5232 0.9953
-1.0175 -0.2988 -0.5202 0.9953
-1.0119 -0.3774 -0.5298 0.9952
-1.0290 -0.4262 -0.5463 0.9951
-1.0444 -0.4769 -0.5632 0.9949
-1.0588 -0.5300 -0.5808 0.9947
-3.5627 -1.9454 -1.9911 0.9821
-3.4912 -2.0714 -1.9913 0.9821
-3.4153 -2.1949 -1.9914 0.9821
-3.3351 -2.3156 -1.9916 0.9821
-3.0691 -2.6594 -1.9920 0.9821
-2.9725 -2.7675 -1.9922 0.9821
-2.8721 -2.8721 -1.9924 0.9821
-2.7679 -2.9730 -1.9925 0.9821
-2.5492 -3.1633 -1.9928 0.9821
-2.4348 -3.2526 -1.9930 0.9821
-2.1969 -3.4185 -1.9933 0.9821
-2.0737 -3.4950 -1.9934 0.9821
-1.8193 -3.6346 -1.9937 0.9821
-1.6886 -3.6975 -1.9939 0.9821
-1.5556 -3.7557 -1.9940 0.9821
-1.4207 -3.8091 -1.9942 0.9821
-1.2839 -3.8576 -1.9943 0.9820
-1.1455 -3.9012 -1.9944 0.9820
-1.0056 -3.9399 -1.9946 0.9820
-0.8644 -3.9736 -1.9947 0.9820
-0.7221 -4.0021 -1.9948 0.9820
-0.1452 -4.0652 -1.9953 0.9820
0.0000 -4.0680 -1.9954 0.9820
0.1452 -4.0656 -1.9956 0.9820
0.2902 -4.0581 -1.9957 0.9820
0.4349 -4.0453 -1.9958 0.9820
0.7225 -4.0044 -1.9959 0.9820
1.0064 -3.9429 -1.9961 0.9820
1.1465 -3.9047 -1.9962 0.9820
1.2852 -3.8614 -1.9963 0.9820
1.5575 -3.7601 -1.9964 0.9820
1.6908 -3.7023 -1.9965 0.9820
2.0770 -3.5006 -1.9966 0.9820
2.2006 -3.4243 -1.9966 0.9820
2.3215 -3.3436 -1.9967 0.9820
2.4394 -3.2586 -1.9967 0.9820
2.6657 -3.0764 -1.9967 0.9820
2.7738 -2.9793 -1.9967 0.9820
2.9793 -2.7738 -1.9967 0.9820
3.0764 -2.6657 -1.9967 0.9820
3.1695 -2.5542 -1.9967 0.9820
3.3436 -2.3215 -1.9967 0.9820
3.6397 -1.8219 -1.9965 0.9820
3.8133 -1.4223 -1.9964 0.9820
3.8615 -1.2852 -1.9963 0.9820
3.9763 -0.8650 -1.9961 0.9820
4.0044 -0.7225 -1.9960 0.9820
4.0581 -0.2903 -1.9957 0.9820
4.0657 -0.1452 -1.9956 0.9820
-0.9628 -0.2094 -0.5112 0.9956
-0.9268 -0.3085 -0.5067 0.9956
-0.9208 -0.3434 -0.5098 0.9956
-0.9271 -0.3840 -0.5206 0.9955
-0.9416 -0.4713 -0.5463 0.9953
-0.9486 -0.5180 -0.5607 0.9951
-3.2294 -2.0754 -1.9915 0.9829
-3.1535 -2.1895 -1.9916 0.9828
-3.0735 -2.3008 -1.9918 0.9828
-2.9897 -2.4092 -1.9919 0.9828
-2.8106 -2.6168 -1.9922 0.9828
-2.7156 -2.7156 -1.9924 0.9828
-2.6172 -2.8110 -1.9925 0.9828
-2.3022 -3.0753 -1.9929 0.9828
-2.1911 -3.1558 -1.9931 0.9828
-1.7202 -3.4365 -1.9937 0.9828
-1.4708 -3.5509 -1.9939 0.9828
-0.9508 -3.7251 -1.9945 0.9828
0.2744 -3.8367 -1.9955 0.9828
0.4112 -3.8246 -1.9956 0.9828
0.8178 -3.7593 -1.9958 0.9828
0.9515 -3.7278 -1.9959 0.9828
1.3446 -3.6051 -1.9961 0.9828
1.4725 -3.5549 -1.9962 0.9828
1.5985 -3.5002 -1.9962 0.9828
1.7225 -3.4410 -1.9963 0.9828
1.9636 -3.3095 -1.9964 0.9828
2.3062 -3.0808 -1.9965 0.9828
2.4148 -2.9965 -1.9965 0.9828
2.5202 -2.9085 -1.9965 0.9828
2.6224 -2.8167 -1.9965 0.9828
2.9085 -2.5202 -1.9965 0.9828
2.9966 -2.4148 -1.9965 0.9828
3.0808 -2.3063 -1.9965 0.9828
3.1611 -2.1948 -1.9964 0.9828
3.2374 -2.0805 -1.9964 0.9828
3.3775 -1.8442 -1.9963 0.9828
3.5003 -1.5985 -1.9963 0.9828
3.6508 -1.2151 -1.9961 0.9828
3.7279 -0.9515 -1.9959 0.9828
3.8078 -0.5475 -1.9957 0.9828
3.8368 -0.2744 -1.9955 0.9828
-0.9161 -0.0655 -0.5030 0.9958
-0.9127 -0.0981 -0.5028 0.9958
-0.8932 -0.1943 -0.5006 0.9958
-0.8727 -0.2562 -0.4982 0.9959
-0.8479 -0.3512 -0.5027 0.9958
-0.8506 -0.3884 -0.5122 0.9957
-0.8516 -0.4263 -0.5216 0.9957
-2.9870 -2.0739 -1.9917 0.9836
-2.9113 -2.1793 -1.9918 0.9836
-2.7488 -2.3818 -1.9921 0.9835
-2.6622 -2.4786 -1.9922 0.9835
-2.5722 -2.5722 -1.9924 0.9835
-2.4789 -2.6626 -1.9925 0.9835
-2.2830 -2.8330 -1.9928 0.9835
-1.9675 -3.0615 -1.9932 0.9835
-1.8571 -3.1300 -1.9933 0.9835
-1.7443 -3.1945 -1.9935 0.9835
-1.5122 -3.3112 -1.9937 0.9835
-1.3931 -3.3633 -1.9938 0.9835
-0.6466 -3.5838 -1.9946 0.9835
-0.1300 -3.6402 -1.9950 0.9835
0.0000 -3.6427 -1.9951 0.9835
0.1300 -3.6406 -1.9952 0.9835
0.3894 -3.6223 -1.9954 0.9835
0.5185 -3.6063 -1.9955 0.9835
0.6469 -3.5856 -1.9956 0.9835
0.9011 -3.5306 -1.9957 0.9835
1.1508 -3.4576 -1.9959 0.9835
1.2735 -3.4144 -1.9959 0.9835
1.6313 -3.2590 -1.9961 0.9835
1.9704 -3.0661 -1.9962 0.9835
2.2870 -2.8380 -1.9963 0.9835
2.3868 -2.7546 -1.9963 0.9835
2.5773 -2.5773 -1.9963 0.9835
2.9178 -2.1842 -1.9963 0.9835
2.9939 -2.0787 -1.9962 0.9835
3.0661 -1.9705 -1.9962 0.9835
3.1344 -1.8598 -1.9962 0.9835
3.1988 -1.7467 -1.9961 0.9835
3.2590 -1.6313 -1.9961 0.9835
3.3151 -1.5139 -1.9961 0.9835
3.4576 -1.1508 -1.9959 0.9835
3.5605 -0.7745 -1.9957 0.9835
3.5857 -0.6469 -1.9956 0.9835
3.6064 -0.5185 -1.9955 0.9835
3.6224 -0.3895 -1.9954 0.9835
-0.8531 -0.0610 -0.4938 0.9961
-0.8499 -0.0914 -0.4935 0.9961
-0.8453 -0.1215 -0.4930 0.9961
-0.8318 -0.1810 -0.4915 0.9961
-0.7887 -0.2942 -0.4860 0.9961
-0.7787 -0.4252 -0.5122 0.9959
-0.7696 -0.4946 -0.5282 0.9958
-0.7634 -0.5300 -0.5366 0.9957
-2.7618 -2.0675 -1.9918 0.9842
-2.6076 -2.2595 -1.9921 0.9842
-2.5255 -2.3513 -1.9922 0.9842
-2.2601 -2.6083 -1.9926 0.9842
-2.1657 -2.6875 -1.9928 0.9842
-1.8664 -2.9042 -1.9931 0.9842
-1.7617 -2.9692 -1.9933 0.9842
-1.6547 -3.0303 -1.9934 0.9842
-1.5456 -3.0877 -1.9935 0.9842
-1.2069 -3.2358 -1.9939 0.9842
-1.0907 -3.2770 -1.9940 0.9842
-0.9731 -3.3140 -1.9941 0.9842
-0.8542 -3.3468 -1.9942 0.9842
-0.6134 -3.3996 -1.9945 0.9842
0.0000 -3.4554 -1.9950 0.9842
0.1233 -3.4534 -1.9951 0.9842
0.4918 -3.4208 -1.9953 0.9842
0.8548 -3.3490 -1.9956 0.9842
1.2080 -3.2388 -1.9957 0.9842
1.3229 -3.1937 -1.9958 0.9842
1.5474 -3.0913 -1.9959 0.9842
1.8691 -2.9083 -1.9960 0.9842
2.1693 -2.6920 -1.9961 0.9842
2.2641 -2.6129 -1.9961 0.9842
2.4447 -2.4447 -1.9961 0.9842
2.5304 -2.3559 -1.9961 0.9842
3.1445 -1.4361 -1.9959 0.9842
3.1937 -1.3229 -1.9958 0.9842
3.2388 -1.2080 -1.9958 0.9842
3.3165 -0.9738 -1.9956 0.9842
3.3491 -0.8548 -1.9956 0.9842
3.4013 -0.6137 -1.9954 0.9842
3.4209 -0.4919 -1.9954 0.9842
3.4361 -0.3694 -1.9953 0.9842
