ply
format ascii 1.0
element vertex 771
property float32 x
property float32 y
property float32 z
property float32 I
end_header
6.1065 7.5777 -1.8292 0.9612
5.2538 8.1750 -1.8265 0.9612
4.9563 8.3534 -1.8257 0.9612
4.6528 8.5210 -1.8248 0.9613
4.3437 8.6777 -1.8240 0.9613
4.0295 8.8233 -1.8232 0.9613
3.3869 9.0806 -1.8216 0.9613
3.0594 9.1920 -1.8209 0.9613
2.7283 9.2917 -1.8202 0.9614
2.3940 9.3796 -1.8195 0.9614
1.3762 9.5717 -1.8176 0.9614
1.0334 9.6117 -1.8170 0.9614
0.3448 9.6552 -1.8160 0.9614
-0.6887 9.6295 -1.8146 0.9615
-1.0317 9.5967 -1.8142 0.9615
-1.7131 9.4950 -1.8135 0.9615
-2.3854 9.3457 -1.8129 0.9615
-3.0453 9.1496 -1.8125 0.9615
-3.3696 9.0343 -1.8124 0.9615
-3.6897 8.9077 -1.8122 0.9615
-4.3154 8.6210 -1.8121 0.9615
-4.6203 8.4614 -1.8121 0.9615
-4.9194 8.2912 -1.8121 0.9615
-5.8232 7.7789 -1.8264 0.9612
9.4867 0.0000 -2.0053 0.9620
9.4765 0.3385 -2.0044 0.9620
9.4542 0.6762 -2.0035 0.9620
9.3734 1.3477 -2.0017 0.9620
9.3151 1.6806 -2.0008 0.9620
9.2448 2.0111 -1.9999 0.9621
9.0692 2.6630 -1.9980 0.9621
8.8476 3.3000 -1.9961 0.9621
8.4319 4.2207 -1.9932 0.9622
7.9208 5.0904 -1.9902 0.9622
7.7303 5.3673 -1.9893 0.9623
7.5302 5.6370 -1.9883 0.9623
7.3207 5.8994 -1.9874 0.9623
6.8746 6.4005 -1.9855 0.9623
6.6387 6.6387 -1.9845 0.9623
6.3946 6.8682 -1.9836 0.9624
6.1402 7.0861 -1.9820 0.9624
5.5987 7.4790 -1.9748 0.9625
5.2825 7.6083 -1.9579 0.9628
4.9234 7.6610 -1.9250 0.9635
4.2274 7.7419 -1.8645 0.9646
3.5866 7.8537 -1.8250 0.9653
3.0150 8.0834 -1.8237 0.9653
2.1314 8.3507 -1.8217 0.9654
1.5292 8.4760 -1.8206 0.9654
0.9202 8.5586 -1.8195 0.9654
0.6139 8.5837 -1.8190 0.9654
-0.0000 8.6013 -1.8181 0.9654
-0.3069 8.5939 -1.8177 0.9655
-0.9189 8.5467 -1.8170 0.9655
-1.2231 8.5069 -1.8167 0.9655
-2.1245 8.3238 -1.8159 0.9655
-2.4200 8.2417 -1.8157 0.9655
-3.0013 8.0467 -1.8154 0.9655
-3.6249 7.9373 -1.8445 0.9650
-3.9607 7.9124 -1.8704 0.9645
-4.3062 7.8863 -1.8993 0.9639
-4.6618 7.8570 -1.9312 0.9633
-5.2907 7.6200 -1.9609 0.9628
-5.5672 7.4369 -1.9637 0.9627
-5.8350 7.2408 -1.9657 0.9627
-6.8092 6.3396 -1.9666 0.9627
-7.6477 5.3099 -1.9680 0.9627
-7.8341 5.0347 -1.9685 0.9626
-8.3337 4.1716 -1.9699 0.9626
-8.4797 3.8725 -1.9705 0.9626
-8.7396 3.2597 -1.9717 0.9626
-8.8532 2.9467 -1.9723 0.9626
-9.0470 2.3091 -1.9737 0.9625
-9.2523 1.3303 -1.9759 0.9625
-9.2975 0.9996 -1.9766 0.9625
-9.3527 0.3340 -1.9782 0.9625
8.5179 0.3042 -2.0032 0.9656
8.4982 0.6078 -2.0024 0.9656
8.4677 0.9104 -2.0016 0.9656
8.3115 1.8081 -1.9991 0.9657
8.2382 2.1027 -1.9982 0.9657
8.1544 2.3944 -1.9974 0.9657
8.0603 2.6827 -1.9965 0.9657
7.9560 2.9674 -1.9957 0.9657
7.8416 3.2481 -1.9948 0.9657
7.7173 3.5244 -1.9939 0.9657
7.5832 3.7959 -1.9930 0.9658
6.7740 5.0709 -1.9887 0.9658
5.9731 5.9731 -1.9853 0.9659
5.2939 6.5693 -1.9829 0.9659
5.0540 6.7513 -1.9821 0.9659
4.5559 7.0891 -1.9805 0.9660
4.2983 7.2445 -1.9798 0.9660
3.4868 7.6350 -1.9727 0.9661
3.2086 7.7463 -1.9706 0.9661
2.6189 7.8685 -1.9490 0.9665
2.3162 7.8883 -1.9322 0.9668
1.7242 7.9258 -1.9063 0.9672
1.4332 7.9437 -1.8971 0.9674
1.1445 7.9603 -1.8901 0.9675
0.8567 7.9688 -1.8836 0.9676
0.5705 7.9769 -1.8795 0.9677
-0.5721 7.9991 -1.8848 0.9676
-0.8597 7.9968 -1.8903 0.9675
-1.7375 7.9874 -1.9211 0.9670
-3.1982 7.7210 -1.9641 0.9662
-3.7472 7.4860 -1.9675 0.9662
-4.2727 7.2013 -1.9679 0.9662
-4.5271 7.0443 -1.9680 0.9662
-5.0185 6.7040 -1.9682 0.9662
-5.4849 6.3299 -1.9685 0.9662
-5.9237 5.9237 -1.9689 0.9662
-6.1321 5.7092 -1.9691 0.9662
-6.3329 5.4875 -1.9694 0.9662
-6.5258 5.2588 -1.9697 0.9661
-6.7105 5.0234 -1.9701 0.9661
-7.0544 4.5336 -1.9708 0.9661
-7.2133 4.2798 -1.9712 0.9661
-7.7566 3.2129 -1.9732 0.9661
-8.0626 2.3674 -1.9749 0.9661
-8.1445 2.0787 -1.9755 0.9661
-8.2161 1.7873 -1.9761 0.9660
-8.3283 1.1974 -1.9775 0.9660
-8.3985 0.6007 -1.9789 0.9660
7.7355 0.0000 -2.0029 0.9685
7.7278 0.2760 -2.0021 0.9686
7.7103 0.5515 -2.0014 0.9686
7.6456 1.0993 -2.0000 0.9686
7.5987 1.3710 -1.9992 0.9686
7.5420 1.6407 -1.9984 0.9686
7.4001 2.1729 -1.9969 0.9686
7.3149 2.4346 -1.9961 0.9686
7.2205 2.6931 -1.9953 0.9687
7.1170 2.9480 -1.9945 0.9687
6.7530 3.6874 -1.9922 0.9687
6.4676 4.1565 -1.9906 0.9687
6.3127 4.3830 -1.9898 0.9687
5.6159 5.2286 -1.9867 0.9688
5.4236 5.4236 -1.9859 0.9688
5.2246 5.6116 -1.9852 0.9688
5.0191 5.7923 -1.9844 0.9688
4.8074 5.9656 -1.9837 0.9688
4.5897 6.1311 -1.9830 0.9689
4.1377 6.4384 -1.9816 0.9689
3.9039 6.5797 -1.9809 0.9689
3.6653 6.7126 -1.9802 0.9689
3.4223 6.8369 -1.9796 0.9689
2.9240 7.0591 -1.9783 0.9689
1.8874 7.3948 -1.9760 0.9690
1.6218 7.4555 -1.9755 0.9690
1.3541 7.5054 -1.9747 0.9690
1.0849 7.5454 -1.9737 0.9690
0.2718 7.6103 -1.9717 0.9690
0.0000 7.6138 -1.9714 0.9690
-1.8824 7.3753 -1.9708 0.9690
-2.6594 7.1302 -1.9704 0.9690
-3.4060 6.8043 -1.9702 0.9690
-3.6467 6.6783 -1.9701 0.9690
-4.3399 6.2507 -1.9703 0.9690
-5.3828 5.3828 -1.9710 0.9690
-5.5721 5.1879 -1.9712 0.9690
-6.0974 4.5644 -1.9721 0.9690
-6.2575 4.3446 -1.9724 0.9690
-6.5539 3.8886 -1.9731 0.9690
-6.6899 3.6530 -1.9735 0.9690
-6.9366 3.1678 -1.9744 0.9690
-7.3243 2.1506 -1.9765 0.9690
-7.3985 1.8884 -1.9770 0.9689
-7.5189 1.3566 -1.9782 0.9689
-7.5649 1.0877 -1.9788 0.9689
-7.6013 0.8172 -1.9794 0.9689
-7.6281 0.5456 -1.9801 0.9689
-7.6453 0.2730 -1.9808 0.9689
7.0716 0.0000 -2.0019 0.9710
7.0649 0.2523 -2.0013 0.9710
7.0490 0.5042 -2.0006 0.9710
6.9904 1.0051 -1.9993 0.9711
6.8961 1.5002 -1.9979 0.9711
6.8358 1.7447 -1.9972 0.9711
6.6030 2.4628 -1.9951 0.9711
6.5085 2.6959 -1.9943 0.9711
6.4059 2.9255 -1.9936 0.9711
6.2951 3.1511 -1.9929 0.9712
6.1763 3.3725 -1.9922 0.9712
5.9157 3.8018 -1.9907 0.9712
5.7741 4.0091 -1.9900 0.9712
5.6254 4.2111 -1.9893 0.9712
5.3068 4.5984 -1.9879 0.9712
5.1375 4.7832 -1.9872 0.9712
4.7798 5.1339 -1.9858 0.9713
4.5920 5.2994 -1.9851 0.9713
4.3984 5.4581 -1.9844 0.9713
3.7860 5.8912 -1.9825 0.9713
3.5722 6.0207 -1.9818 0.9713
3.3540 6.1425 -1.9812 0.9713
2.6759 6.4601 -1.9795 0.9713
2.4429 6.5497 -1.9789 0.9714
2.2070 6.6309 -1.9784 0.9714
1.9684 6.7037 -1.9779 0.9714
1.7274 6.7680 -1.9774 0.9714
0.7460 6.9386 -1.9756 0.9714
0.4977 6.9594 -1.9752 0.9714
0.2490 6.9714 -1.9748 0.9714
0.0000 6.9746 -1.9745 0.9714
-0.4974 6.9546 -1.9738 0.9714
-0.7452 6.9314 -1.9735 0.9714
-0.9920 6.8994 -1.9733 0.9714
-1.4813 6.8095 -1.9728 0.9714
-1.7233 6.7517 -1.9726 0.9714
-2.4346 6.5274 -1.9722 0.9715
-2.8938 6.3366 -1.9720 0.9715
-3.1181 6.2291 -1.9720 0.9715
-3.3384 6.1138 -1.9720 0.9715
-3.7661 5.8602 -1.9720 0.9715
-4.1749 5.5770 -1.9722 0.9715
-4.9276 4.9276 -1.9728 0.9714
-5.8672 3.7706 -1.9744 0.9714
-5.9991 3.5595 -1.9747 0.9714
-6.1235 3.3437 -1.9751 0.9714
-6.3490 2.8995 -1.9759 0.9714
-6.7034 1.9683 -1.9778 0.9714
-6.8809 1.2415 -1.9794 0.9714
-6.9559 0.7478 -1.9805 0.9713
-6.9958 0.2499 -1.9817 0.9713
6.5001 0.2321 -2.0006 0.9731
6.4857 0.4639 -1.9999 0.9732
6.4630 0.6949 -1.9993 0.9732
6.4321 0.9248 -1.9987 0.9732
6.3456 1.3804 -1.9974 0.9732
6.2903 1.6055 -1.9968 0.9732
6.2270 1.8284 -1.9961 0.9732
6.0766 2.2665 -1.9948 0.9732
5.7938 2.9002 -1.9928 0.9732
5.6846 3.1040 -1.9922 0.9733
5.4451 3.4993 -1.9908 0.9733
5.3149 3.6902 -1.9902 0.9733
5.0348 4.0573 -1.9888 0.9733
4.7294 4.4033 -1.9875 0.9733
4.5678 4.5678 -1.9869 0.9733
4.2276 4.8789 -1.9856 0.9733
4.0495 5.0251 -1.9850 0.9734
3.6785 5.2980 -1.9838 0.9734
3.2892 5.5437 -1.9827 0.9734
2.8837 5.7609 -1.9815 0.9734
2.6755 5.8586 -1.9810 0.9734
2.2496 6.0314 -1.9800 0.9734
2.0324 6.1064 -1.9795 0.9734
1.3671 6.2843 -1.9781 0.9734
1.1416 6.3277 -1.9777 0.9735
0.9149 6.3631 -1.9773 0.9735
0.6870 6.3904 -1.9769 0.9735
-0.6864 6.3843 -1.9750 0.9735
-1.1398 6.3176 -1.9745 0.9735
-1.8081 6.1579 -1.9740 0.9735
-2.0266 6.0891 -1.9739 0.9735
-2.6656 5.8368 -1.9736 0.9735
-2.8722 5.7378 -1.9736 0.9735
-3.2742 5.5183 -1.9736 0.9735
-4.3735 4.6975 -1.9741 0.9735
-4.5388 4.5388 -1.9743 0.9735
-4.8521 4.2043 -1.9747 0.9735
-4.9996 4.0289 -1.9749 0.9735
-5.4040 3.4729 -1.9758 0.9735
-6.1032 2.0313 -1.9785 0.9734
-6.1732 1.8126 -1.9789 0.9734
-6.2355 1.5915 -1.9794 0.9734
-6.4051 0.6886 -1.9814 0.9734
-6.4274 0.4597 -1.9820 0.9734
-6.4416 0.2301 -1.9825 0.9734
6.0127 0.2147 -1.9999 0.9750
5.9995 0.4291 -1.9994 0.9750
5.9787 0.6428 -1.9988 0.9750
5.9502 0.8555 -1.9982 0.9750
5.9141 1.0670 -1.9976 0.9750
5.8195 1.4853 -1.9964 0.9750
5.5421 2.2956 -1.9940 0.9750
5.4549 2.4912 -1.9934 0.9750
5.3609 2.6835 -1.9928 0.9750
5.1526 3.0572 -1.9915 0.9751
5.0386 3.2381 -1.9909 0.9751
4.5210 3.9174 -1.9885 0.9751
4.3769 4.0751 -1.9879 0.9751
4.2274 4.2274 -1.9873 0.9751
4.0727 4.3743 -1.9867 0.9751
3.7480 4.6510 -1.9856 0.9751
3.2267 5.0208 -1.9839 0.9752
3.0446 5.1314 -1.9834 0.9752
2.8588 5.2354 -1.9828 0.9752
2.6694 5.3328 -1.9823 0.9752
1.8815 5.6529 -1.9804 0.9752
1.4728 5.7703 -1.9796 0.9752
1.2656 5.8179 -1.9791 0.9752
0.8470 5.8911 -1.9784 0.9752
0.6361 5.9165 -1.9780 0.9752
0.4244 5.9345 -1.9777 0.9752
0.2123 5.9448 -1.9774 0.9752
-0.2123 5.9431 -1.9768 0.9752
-0.4242 5.9309 -1.9765 0.9752
-0.6355 5.9113 -1.9763 0.9753
-1.2634 5.8077 -1.9757 0.9753
-1.4697 5.7584 -1.9755 0.9753
-1.6742 5.7019 -1.9753 0.9753
-2.0765 5.5673 -1.9751 0.9753
-2.4682 5.4046 -1.9750 0.9753
-3.5608 4.7567 -1.9751 0.9753
-3.7285 4.6268 -1.9752 0.9753
-3.8915 4.4911 -1.9753 0.9753
-4.4926 3.8929 -1.9760 0.9753
-4.7600 3.5633 -1.9765 0.9752
-4.8848 3.3915 -1.9767 0.9752
-5.1158 3.0353 -1.9773 0.9752
-5.2217 2.8512 -1.9776 0.9752
-5.3210 2.6635 -1.9780 0.9752
-5.4137 2.4723 -1.9783 0.9752
-5.5784 2.0806 -1.9791 0.9752
-5.7150 1.6781 -1.9799 0.9752
-5.8228 1.2667 -1.9808 0.9752
-5.9011 0.8485 -1.9817 0.9752
-5.9496 0.4255 -1.9827 0.9752
5.5924 0.0000 -1.9999 0.9765
5.5874 0.1996 -1.9994 0.9765
5.5560 0.5973 -1.9983 0.9765
5.4963 0.9916 -1.9972 0.9766
5.4085 1.3804 -1.9961 0.9766
5.3543 1.5722 -1.9956 0.9766
5.2255 1.9490 -1.9944 0.9766
5.1512 2.1337 -1.9939 0.9766
4.9830 2.4943 -1.9927 0.9766
4.8894 2.6698 -1.9921 0.9766
4.7896 2.8418 -1.9916 0.9766
4.6837 3.0100 -1.9910 0.9766
4.5720 3.1744 -1.9904 0.9766
4.4545 3.3346 -1.9899 0.9766
4.3314 3.4905 -1.9893 0.9766
4.2029 3.6418 -1.9887 0.9767
3.7864 4.0669 -1.9871 0.9767
3.6378 4.1983 -1.9865 0.9767
3.3273 4.4447 -1.9855 0.9767
2.8309 4.7713 -1.9840 0.9767
2.1211 5.1208 -1.9821 0.9767
1.1770 5.4104 -1.9801 0.9768
0.7877 5.4786 -1.9793 0.9768
0.3947 5.5191 -1.9787 0.9768
0.0000 5.5315 -1.9781 0.9768
-0.1974 5.5273 -1.9778 0.9768
-0.5911 5.4978 -1.9774 0.9768
-0.9816 5.4405 -1.9770 0.9768
-1.1750 5.4015 -1.9768 0.9768
-1.3670 5.3558 -1.9767 0.9768
-1.5572 5.3032 -1.9765 0.9768
-2.1148 5.1056 -1.9762 0.9768
-2.8198 4.7525 -1.9762 0.9768
-2.9876 4.6489 -1.9762 0.9768
-3.4678 4.3033 -1.9764 0.9768
-3.7664 4.0454 -1.9766 0.9768
-3.9087 3.9087 -1.9768 0.9768
-4.0461 3.7671 -1.9769 0.9768
-4.3054 3.4695 -1.9773 0.9768
-4.4270 3.3140 -1.9776 0.9768
-4.9485 2.4771 -1.9789 0.9768
-5.0346 2.2992 -1.9793 0.9768
-5.3680 1.3701 -1.9812 0.9767
-5.4544 0.9841 -1.9820 0.9767
-5.4873 0.7889 -1.9825 0.9767
-5.5132 0.5927 -1.9829 0.9767
-5.5441 0.1980 -1.9839 0.9767
5.2127 0.1862 -1.9989 0.9779
5.1591 0.7418 -1.9974 0.9779
5.0904 1.1074 -1.9964 0.9779
5.0464 1.2880 -1.9959 0.9779
4.9390 1.6439 -1.9948 0.9779
4.8066 1.9910 -1.9937 0.9780
4.7312 2.1607 -1.9932 0.9780
4.6498 2.3276 -1.9927 0.9780
4.5626 2.4914 -1.9921 0.9780
4.3709 2.8090 -1.9911 0.9780
4.1571 3.1120 -1.9900 0.9780
4.0423 3.2575 -1.9895 0.9780
3.9225 3.3988 -1.9890 0.9780
3.6681 3.6681 -1.9879 0.9780
3.1056 4.1486 -1.9859 0.9780
2.9548 4.2558 -1.9854 0.9781
2.8004 4.3575 -1.9850 0.9781
2.4812 4.5441 -1.9841 0.9781
2.3170 4.6287 -1.9836 0.9781
2.1498 4.7074 -1.9832 0.9781
1.9800 4.7801 -1.9828 0.9781
1.8077 4.8468 -1.9824 0.9781
1.6333 4.9072 -1.9820 0.9781
1.0987 5.0509 -1.9809 0.9781
0.9176 5.0860 -1.9805 0.9781
0.7354 5.1147 -1.9802 0.9781
0.3685 5.1525 -1.9796 0.9781
0.1843 5.1617 -1.9793 0.9781
0.0000 5.1643 -1.9790 0.9781
-0.1843 5.1603 -1.9788 0.9781
-0.5518 5.1329 -1.9783 0.9781
-1.0971 5.0431 -1.9778 0.9781
-1.9745 4.7669 -1.9773 0.9781
-2.3095 4.6138 -1.9772 0.9781
-2.4727 4.5284 -1.9772 0.9781
-2.9427 4.2383 -1.9773 0.9781
-3.3793 3.8999 -1.9775 0.9781
-3.9011 3.3803 -1.9781 0.9781
-4.0196 3.2392 -1.9783 0.9781
-4.1331 3.0940 -1.9785 0.9781
-4.3443 2.7919 -1.9790 0.9781
-4.4418 2.6354 -1.9792 0.9781
-4.6198 2.3125 -1.9798 0.9781
-4.7002 2.1465 -1.9801 0.9781
-4.7746 1.9777 -1.9804 0.9781
-4.8429 1.8063 -1.9808 0.9781
-4.9052 1.6326 -1.9811 0.9781
-4.9612 1.4568 -1.9815 0.9781
-5.0110 1.2790 -1.9819 0.9781
-5.0545 1.0995 -1.9823 0.9781
-5.0916 0.9186 -1.9827 0.9781
4.8840 0.0000 -1.9989 0.9791
4.8693 0.3483 -1.9980 0.9791
4.8008 0.8662 -1.9966 0.9791
4.7245 1.2059 -1.9956 0.9791
4.6773 1.3734 -1.9951 0.9792
4.6242 1.5391 -1.9946 0.9792
4.4298 2.0230 -1.9931 0.9792
4.3537 2.1793 -1.9926 0.9792
4.1851 2.4831 -1.9916 0.9792
3.9952 2.7739 -1.9906 0.9792
3.7853 3.0504 -1.9896 0.9792
3.6731 3.1828 -1.9892 0.9792
3.4350 3.4350 -1.9882 0.9792
3.1797 3.6696 -1.9872 0.9792
3.0460 3.7798 -1.9868 0.9792
2.7673 3.9857 -1.9859 0.9792
2.3239 4.2558 -1.9846 0.9793
2.1700 4.3352 -1.9842 0.9793
1.1976 4.6920 -1.9819 0.9793
0.8595 4.7640 -1.9812 0.9793
0.6888 4.7909 -1.9809 0.9793
0.5173 4.8117 -1.9806 0.9793
0.3452 4.8264 -1.9804 0.9793
0.1727 4.8350 -1.9801 0.9793
-0.0000 4.8375 -1.9799 0.9793
-0.3450 4.8241 -1.9794 0.9793
-0.5169 4.8082 -1.9792 0.9793
-0.6882 4.7863 -1.9790 0.9793
-0.8585 4.7582 -1.9789 0.9793
-1.0277 4.7242 -1.9787 0.9793
-1.3619 4.6383 -1.9785 0.9793
-1.5265 4.5865 -1.9784 0.9793
-1.6892 4.5289 -1.9783 0.9793
-1.8497 4.4656 -1.9782 0.9793
-2.1635 4.3221 -1.9782 0.9793
-2.6131 4.0661 -1.9782 0.9793
-2.7566 3.9703 -1.9782 0.9793
-2.8967 3.8695 -1.9783 0.9793
-3.1656 3.6533 -1.9785 0.9793
-3.4186 3.4186 -1.9787 0.9793
-3.6543 3.1665 -1.9790 0.9793
-3.8717 2.8983 -1.9794 0.9793
-4.0695 2.6153 -1.9798 0.9793
-4.3274 2.1662 -1.9806 0.9793
-4.4026 2.0106 -1.9809 0.9793
-4.4722 1.8525 -1.9812 0.9793
-4.5362 1.6919 -1.9815 0.9793
-4.5945 1.5292 -1.9818 0.9793
-4.6470 1.3645 -1.9822 0.9793
-4.6935 1.1980 -1.9825 0.9793
-4.7342 1.0299 -1.9829 0.9793
-4.8200 0.5182 -1.9841 0.9793
-4.8467 0.1731 -1.9849 0.9793
4.5720 0.3270 -1.9976 0.9802
4.5564 0.4899 -1.9972 0.9802
4.5350 0.6520 -1.9968 0.9802
4.5078 0.8133 -1.9963 0.9802
4.4749 0.9735 -1.9959 0.9802
4.3921 1.2896 -1.9949 0.9802
4.0885 2.0466 -1.9926 0.9802
3.7521 2.6051 -1.9907 0.9803
3.4497 2.9892 -1.9893 0.9803
3.3400 3.1097 -1.9889 0.9803
3.2262 3.2262 -1.9884 0.9803
3.1083 3.3385 -1.9880 0.9803
2.9865 3.4466 -1.9875 0.9803
2.8609 3.5502 -1.9871 0.9803
2.7318 3.6493 -1.9867 0.9803
2.5993 3.7436 -1.9862 0.9803
2.3246 3.9179 -1.9854 0.9803
2.0384 4.0722 -1.9846 0.9803
1.8914 4.1415 -1.9843 0.9803
1.7420 4.2056 -1.9839 0.9803
1.4370 4.3176 -1.9832 0.9803
1.2818 4.3654 -1.9828 0.9803
1.1250 4.4077 -1.9825 0.9803
0.9668 4.4443 -1.9822 0.9803
0.8074 4.4753 -1.9819 0.9804
0.0000 4.5446 -1.9806 0.9804
-0.1622 4.5412 -1.9804 0.9804
-0.4856 4.5171 -1.9800 0.9804
-0.8065 4.4703 -1.9797 0.9804
-1.1232 4.4008 -1.9794 0.9804
-1.2795 4.3576 -1.9793 0.9804
-1.5870 4.2549 -1.9791 0.9804
-1.7378 4.1954 -1.9791 0.9804
-1.8864 4.1306 -1.9790 0.9804
-2.1762 3.9854 -1.9790 0.9804
-2.3171 3.9052 -1.9790 0.9804
-2.4550 3.8201 -1.9790 0.9804
-2.7214 3.6354 -1.9791 0.9804
-2.8495 3.5361 -1.9792 0.9804
-3.2117 3.2117 -1.9795 0.9804
-3.6373 2.7228 -1.9801 0.9804
-3.7325 2.5916 -1.9803 0.9804
-3.8231 2.4569 -1.9806 0.9804
-3.9088 2.3192 -1.9808 0.9804
-4.0653 2.0349 -1.9813 0.9804
-4.1359 1.8888 -1.9816 0.9804
-4.2013 1.7402 -1.9818 0.9804
-1.3722 0.4029 -0.6233 0.9938
-1.3400 0.3420 -0.6027 0.9940
-1.4180 0.2039 -0.6244 0.9938
-1.4359 0.1544 -0.6294 0.9937
-1.4490 0.1036 -0.6331 0.9937
-1.4571 0.0521 -0.6354 0.9937
4.2893 0.4612 -1.9969 0.9812
4.2692 0.6138 -1.9965 0.9812
4.1765 1.0660 -1.9952 0.9812
4.1349 1.2141 -1.9948 0.9812
4.0360 1.5053 -1.9939 0.9812
3.9788 1.6481 -1.9935 0.9812
3.7773 2.0626 -1.9921 0.9812
3.7004 2.1956 -1.9917 0.9812
3.6189 2.3258 -1.9912 0.9812
3.5328 2.4529 -1.9908 0.9812
3.4423 2.5768 -1.9904 0.9812
3.3474 2.6975 -1.9899 0.9812
3.2482 2.8146 -1.9895 0.9812
3.1450 2.9281 -1.9891 0.9812
3.0379 3.0379 -1.9886 0.9812
2.9269 3.1437 -1.9882 0.9812
2.8122 3.2455 -1.9878 0.9812
2.6940 3.3431 -1.9874 0.9813
2.1891 3.6895 -1.9858 0.9813
1.6405 3.9606 -1.9844 0.9813
1.4979 4.0160 -1.9840 0.9813
1.3534 4.0662 -1.9837 0.9813
1.0595 4.1511 -1.9831 0.9813
0.9105 4.1856 -1.9828 0.9813
0.4577 4.2572 -1.9820 0.9813
0.3054 4.2703 -1.9817 0.9813
0.1528 4.2780 -1.9815 0.9813
-0.0000 4.2803 -1.9813 0.9813
-0.6089 4.2351 -1.9805 0.9813
-0.7596 4.2104 -1.9804 0.9813
-1.2051 4.1043 -1.9800 0.9813
-1.7768 3.8905 -1.9798 0.9813
-2.3123 3.5981 -1.9798 0.9813
-2.4393 3.5133 -1.9798 0.9813
-2.5633 3.4241 -1.9799 0.9813
-2.8012 3.2328 -1.9800 0.9813
-3.0250 3.0250 -1.9802 0.9813
-3.1313 2.9153 -1.9804 0.9813
-3.5155 2.4408 -1.9810 0.9813
-3.7575 2.0517 -1.9817 0.9813
-3.8288 1.9166 -1.9819 0.9813
-3.8952 1.7789 -1.9822 0.9813
-1.2345 0.5114 -0.6185 0.9941
-1.2017 0.4482 -0.5937 0.9944
-1.1536 0.3840 -0.5628 0.9947
-1.1575 0.2954 -0.5529 0.9947
-1.1790 0.2565 -0.5585 0.9947
-1.2261 0.1318 -0.5708 0.9946
-1.2362 0.0884 -0.5737 0.9946
-1.2424 0.0444 -0.5755 0.9945
4.0694 0.1454 -1.9974 0.9820
4.0471 0.4351 -1.9966 0.9820
4.0282 0.5792 -1.9962 0.9820
3.4151 2.1948 -1.9913 0.9821
3.3339 2.3148 -1.9909 0.9821
3.2485 2.4318 -1.9905 0.9821
3.1590 2.5456 -1.9901 0.9821
2.9681 2.7634 -1.9892 0.9821
2.8670 2.8670 -1.9888 0.9821
2.7623 2.9669 -1.9884 0.9821
2.4279 3.2433 -1.9873 0.9821
2.3101 3.3272 -1.9869 0.9821
2.1895 3.4069 -1.9865 0.9821
1.9402 3.5531 -1.9858 0.9821
1.6812 3.6812 -1.9851 0.9821
1.4138 3.7906 -1.9845 0.9821
1.1394 3.8806 -1.9839 0.9821
1.0001 3.9182 -1.9836 0.9821
0.8594 3.9508 -1.9833 0.9821
0.7178 3.9785 -1.9830 0.9821
0.4320 4.0185 -1.9825 0.9822
0.2883 4.0309 -1.9823 0.9822
0.0000 4.0403 -1.9819 0.9822
-0.1442 4.0374 -1.9817 0.9822
-0.4318 4.0161 -1.9813 0.9822
-0.7171 3.9745 -1.9810 0.9822
-1.1376 3.8744 -1.9807 0.9822
-1.2751 3.8312 -1.9806 0.9822
-1.4110 3.7831 -1.9806 0.9822
-1.8072 3.6104 -1.9805 0.9822
-1.9349 3.5435 -1.9804 0.9822
-2.4197 3.2323 -1.9806 0.9822
-2.5336 3.1440 -1.9806 0.9822
-2.6443 3.0517 -1.9807 0.9822
-2.7516 2.9555 -1.9808 0.9822
-2.8555 2.8555 -1.9809 0.9822
-2.9558 2.7520 -1.9810 0.9822
-3.0524 2.6449 -1.9812 0.9822
-3.2338 2.4208 -1.9815 0.9822
-3.3184 2.3040 -1.9816 0.9822
-3.3989 2.1843 -1.9818 0.9822
-1.0588 0.5300 -0.5808 0.9947
-1.0307 0.2631 -0.5218 0.9953
-1.0518 0.1898 -0.5242 0.9952
-1.0611 0.1526 -0.5258 0.9952
-1.0705 0.1151 -0.5281 0.9952
-1.0769 0.0770 -0.5296 0.9952
3.8503 0.0000 -1.9975 0.9828
3.7857 0.6830 -1.9956 0.9828
3.6471 1.2139 -1.9941 0.9828
3.5498 1.4704 -1.9933 0.9828
3.4944 1.5958 -1.9929 0.9828
3.3018 1.9591 -1.9917 0.9828
3.2292 2.0753 -1.9913 0.9829
3.1524 2.1888 -1.9909 0.9829
3.0717 2.2994 -1.9906 0.9829
2.8987 2.5117 -1.9898 0.9829
2.8066 2.6131 -1.9894 0.9829
2.7111 2.7111 -1.9890 0.9829
2.5098 2.8965 -1.9883 0.9829
2.4044 2.9837 -1.9879 0.9829
2.2959 3.0670 -1.9875 0.9829
2.1846 3.1464 -1.9872 0.9829
2.0706 3.2218 -1.9868 0.9829
1.9539 3.2931 -1.9865 0.9829
1.8348 3.3602 -1.9862 0.9829
1.4644 3.5354 -1.9852 0.9829
0.8128 3.7365 -1.9838 0.9829
0.6789 3.7627 -1.9835 0.9829
0.2727 3.8124 -1.9828 0.9829
-0.1364 3.8186 -1.9822 0.9829
-0.2726 3.8109 -1.9821 0.9829
-0.8119 3.7323 -1.9815 0.9829
-0.9446 3.7008 -1.9814 0.9829
-1.3346 3.5782 -1.9812 0.9829
-1.5864 3.4737 -1.9811 0.9829
-1.8301 3.3516 -1.9811 0.9829
-2.0646 3.2126 -1.9811 0.9829
-2.2886 3.0572 -1.9812 0.9829
-2.7008 2.7008 -1.9815 0.9829
-2.7957 2.6029 -1.9816 0.9829
-3.1386 2.1792 -1.9822 0.9829
-3.2147 2.0659 -1.9824 0.9829
-0.9416 0.4713 -0.5463 0.9953
-0.9208 0.3434 -0.5098 0.9956
-0.9268 0.3085 -0.5067 0.9956
-0.9404 0.2761 -0.5085 0.9956
-0.9524 0.2431 -0.5099 0.9956
-0.9628 0.2094 -0.5112 0.9956
-0.9715 0.1753 -0.5121 0.9956
-0.9785 0.1407 -0.5129 0.9956
-0.9873 0.0706 -0.5135 0.9955
3.6359 0.2601 -1.9965 0.9835
3.6237 0.3896 -1.9962 0.9835
3.6069 0.5186 -1.9958 0.9835
3.5594 0.7743 -1.9951 0.9835
3.5289 0.9007 -1.9947 0.9835
3.4938 1.0259 -1.9944 0.9835
3.3623 1.3927 -1.9933 0.9835
3.1275 1.8556 -1.9918 0.9836
2.9096 2.1781 -1.9906 0.9836
2.5681 2.5681 -1.9892 0.9836
2.4744 2.6577 -1.9888 0.9836
2.1750 2.9054 -1.9878 0.9836
2.0695 2.9807 -1.9874 0.9836
1.9615 3.0521 -1.9871 0.9836
1.8510 3.1197 -1.9868 0.9836
1.6232 3.2428 -1.9862 0.9836
1.5062 3.2981 -1.9859 0.9836
1.3873 3.3493 -1.9856 0.9836
0.6432 3.5648 -1.9840 0.9836
0.5154 3.5851 -1.9837 0.9836
0.3871 3.6008 -1.9835 0.9836
0.2583 3.6119 -1.9833 0.9836
0.1292 3.6185 -1.9831 0.9836
0.0000 3.6205 -1.9829 0.9836
-0.2582 3.6106 -1.9826 0.9836
-0.5151 3.5825 -1.9823 0.9836
-0.6426 3.5616 -1.9822 0.9836
-0.8949 3.5063 -1.9820 0.9836
-1.0195 3.4720 -1.9819 0.9836
-1.2645 3.3902 -1.9818 0.9836
-1.3846 3.3428 -1.9817 0.9836
-1.5030 3.2912 -1.9817 0.9836
-1.7340 3.1755 -1.9817 0.9836
-2.1684 2.8966 -1.9818 0.9836
-2.2704 2.8174 -1.9818 0.9836
-2.4658 2.6485 -1.9820 0.9836
-2.5589 2.5589 -1.9821 0.9836
-2.6488 2.4661 -1.9822 0.9836
-2.7353 2.3701 -1.9823 0.9836
-2.8183 2.2711 -1.9824 0.9836
-2.9736 2.0646 -1.9827 0.9836
-0.8507 0.4645 -0.5309 0.9956
-0.8465 0.3157 -0.4948 0.9959
-0.8837 0.2255 -0.4995 0.9958
-0.9179 0.0328 -0.5031 0.9958
3.4587 0.0000 -1.9969 0.9842
3.4560 0.1234 -1.9966 0.9842
3.4488 0.2467 -1.9963 0.9842
3.4213 0.4919 -1.9956 0.9842
3.4010 0.6136 -1.9953 0.9842
3.3764 0.7345 -1.9949 0.9842
3.3142 0.9731 -1.9942 0.9842
3.2768 1.0906 -1.9939 0.9842
3.0860 1.5448 -1.9925 0.9842
2.9017 1.8648 -1.9914 0.9842
2.8328 1.9668 -1.9911 0.9842
2.7603 2.0663 -1.9907 0.9842
2.6843 2.1631 -1.9904 0.9842
2.6049 2.2572 -1.9900 0.9842
2.5223 2.3483 -1.9897 0.9842
2.4364 2.4364 -1.9893 0.9842
2.3475 2.5214 -1.9890 0.9842
2.2556 2.6031 -1.9887 0.9842
2.0635 2.7565 -1.9880 0.9842
1.9635 2.8279 -1.9877 0.9842
1.8610 2.8958 -1.9874 0.9842
1.7562 2.9599 -1.9871 0.9842
1.4291 3.1293 -1.9862 0.9842
1.3163 3.1778 -1.9859 0.9842
1.2019 3.2224 -1.9856 0.9842
0.9687 3.2990 -1.9851 0.9842
0.8502 3.3311 -1.9849 0.9842
0.4891 3.4017 -1.9842 0.9843
0.1226 3.4335 -1.9836 0.9843
0.0000 3.4354 -1.9834 0.9843
-0.1226 3.4329 -1.9832 0.9843
-0.2450 3.4261 -1.9831 0.9843
-0.3671 3.4149 -1.9829 0.9843
-0.4888 3.3994 -1.9828 0.9843
-0.8492 3.3271 -1.9825 0.9843
-1.0843 3.2578 -1.9823 0.9843
-1.1999 3.2170 -1.9823 0.9843
-1.3139 3.1720 -1.9822 0.9843
-1.5368 3.0701 -1.9822 0.9843
-1.6454 3.0133 -1.9822 0.9843
-1.8562 2.8883 -1.9822 0.9843
-1.9581 2.8202 -1.9822 0.9843
-2.0576 2.7486 -1.9823 0.9843
-2.2485 2.5950 -1.9824 0.9843
-2.3398 2.5132 -1.9825 0.9843
-2.5955 2.2490 -1.9828 0.9843
-2.6743 2.1551 -1.9829 0.9843
-2.7497 2.0584 -1.9831 0.9843
-0.7634 0.5300 -0.5366 0.9957
-0.7696 0.4946 -0.5282 0.9958
-0.7751 0.4599 -0.5203 0.9958
-0.7787 0.4252 -0.5122 0.9959
-0.7809 0.3566 -0.4957 0.9960
-0.7796 0.3229 -0.4872 0.9961
-0.7887 0.2942 -0.4860 0.9961
-0.8128 0.2387 -0.4891 0.9961
-0.8318 0.1810 -0.4915 0.9961
-0.8453 0.1215 -0.4930 0.9961
-0.8499 0.0914 -0.4935 0.9961
-0.8531 0.0610 -0.4938 0.9961
-0.8548 0.0305 -0.4938 0.9961
