ply
format ascii 1.0
element vertex 720
property float32 x
property float32 y
property float32 z
property float32 I
end_header
-9.1637 -0.3273 -1.9383 0.9632
-9.1031 -1.3088 -1.9440 0.9631
-9.0601 -1.6346 -1.9460 0.9631
-9.0057 -1.9591 -1.9482 0.9630
-8.9400 -2.2818 -1.9503 0.9630
-8.7745 -2.9204 -1.9548 0.9629
-8.6749 -3.2356 -1.9571 0.9629
-8.4425 -3.8555 -1.9619 0.9628
-8.3099 -4.1596 -1.9643 0.9627
-7.8477 -5.0434 -1.9719 0.9626
-7.2924 -5.8766 -1.9797 0.9624
-7.0875 -6.1413 -1.9823 0.9624
-6.8730 -6.3990 -1.9850 0.9623
-6.4163 -6.8916 -1.9904 0.9622
-5.9244 -7.3517 -1.9958 0.9621
-5.3994 -7.7766 -2.0012 0.9620
-4.8438 -8.1638 -2.0066 0.9619
-3.9590 -8.6690 -2.0145 0.9618
-3.6518 -8.8162 -2.0171 0.9617
-2.3718 -9.2924 -2.0272 0.9615
-1.7068 -9.4603 -2.0320 0.9615
-0.6881 -9.6208 -2.0388 0.9613
1.0362 -9.6379 -2.0490 0.9611
2.0658 -9.4961 -2.0542 0.9610
2.4052 -9.4236 -2.0558 0.9610
2.7420 -9.3386 -2.0573 0.9610
3.0757 -9.2411 -2.0587 0.9610
4.6805 -8.5718 -2.0644 0.9609
5.2842 -8.2224 -2.0660 0.9608
5.5761 -8.0311 -2.0667 0.9608
6.1378 -7.6166 -2.0677 0.9608
6.4068 -7.3939 -2.0680 0.9608
7.8317 -5.8628 -2.0679 0.9608
8.0345 -5.5785 -2.0676 0.9608
8.5776 -4.6837 -2.0658 0.9608
8.7360 -4.3729 -2.0650 0.9608
8.8827 -4.0565 -2.0642 0.9609
9.1403 -3.4092 -2.0621 0.9609
9.2509 -3.0790 -2.0609 0.9609
9.4351 -2.4082 -2.0583 0.9610
9.5083 -2.0684 -2.0569 0.9610
9.5690 -1.7264 -2.0554 0.9610
9.6170 -1.3827 -2.0537 0.9611
9.6748 -0.6919 -2.0503 0.9611
-8.1668 -1.4734 -1.9504 0.9665
-8.0568 -2.0564 -1.9542 0.9664
-7.9864 -2.3450 -1.9562 0.9664
-7.9059 -2.6313 -1.9583 0.9663
-7.7146 -3.1955 -1.9625 0.9663
-7.6040 -3.4726 -1.9647 0.9662
-7.2138 -4.2801 -1.9714 0.9661
-7.0647 -4.5402 -1.9737 0.9661
-6.9063 -4.7951 -1.9760 0.9660
-6.7387 -5.0445 -1.9783 0.9660
-6.5622 -5.2882 -1.9807 0.9660
-5.9810 -5.9810 -1.9879 0.9658
-5.7707 -6.1982 -1.9903 0.9658
-5.3268 -6.6102 -1.9952 0.9657
-5.0937 -6.8044 -1.9976 0.9657
-4.8535 -6.9903 -2.0001 0.9656
-4.6064 -7.1677 -2.0025 0.9656
-4.3529 -7.3364 -2.0049 0.9656
-4.0932 -7.4960 -2.0073 0.9655
-3.5563 -7.7873 -2.0120 0.9654
-3.2799 -7.9184 -2.0143 0.9654
-2.9986 -8.0396 -2.0167 0.9654
-2.4229 -8.2516 -2.0212 0.9653
-1.8320 -8.4216 -2.0256 0.9652
-1.5319 -8.4906 -2.0277 0.9652
-1.2291 -8.5486 -2.0298 0.9651
-0.0000 -8.6699 -2.0376 0.9650
0.6196 -8.6630 -2.0412 0.9649
0.9292 -8.6426 -2.0429 0.9649
1.2380 -8.6108 -2.0445 0.9649
1.5458 -8.5676 -2.0461 0.9649
1.8519 -8.5132 -2.0476 0.9648
2.4578 -8.3706 -2.0503 0.9648
3.3443 -8.0739 -2.0539 0.9647
3.9155 -7.8221 -2.0558 0.9647
4.1939 -7.6806 -2.0567 0.9647
4.4670 -7.5288 -2.0574 0.9647
4.9958 -7.1953 -2.0587 0.9646
5.4988 -6.8235 -2.0596 0.9646
5.7397 -6.6239 -2.0599 0.9646
5.9730 -6.4155 -2.0601 0.9646
6.4160 -5.9735 -2.0603 0.9646
6.6249 -5.7405 -2.0602 0.9646
7.3703 -4.7366 -2.0591 0.9646
7.5327 -4.4694 -2.0585 0.9646
7.8274 -3.9181 -2.0572 0.9647
8.0805 -3.3470 -2.0556 0.9647
8.2906 -2.7594 -2.0536 0.9647
8.6217 -1.2396 -2.0471 0.9648
8.6751 -0.6205 -2.0441 0.9649
8.6847 -0.3102 -2.0424 0.9649
-7.5086 -0.5370 -1.9491 0.9694
-7.4634 -1.0731 -1.9523 0.9693
-7.3807 -1.6056 -1.9557 0.9693
-7.3254 -1.8697 -1.9575 0.9692
-7.1037 -2.6496 -1.9631 0.9692
-7.0116 -2.9043 -1.9650 0.9691
-6.2730 -4.3554 -1.9773 0.9689
-6.1201 -4.5815 -1.9794 0.9689
-5.9592 -4.8022 -1.9816 0.9689
-5.7903 -5.0173 -1.9837 0.9688
-5.4296 -5.4296 -1.9881 0.9688
-4.6220 -6.1742 -1.9969 0.9686
-4.1789 -6.5025 -2.0013 0.9686
-3.9485 -6.6547 -2.0035 0.9685
-3.7124 -6.7988 -2.0057 0.9685
-3.4711 -6.9344 -2.0078 0.9685
-2.4592 -7.3886 -2.0162 0.9683
-1.3881 -7.6935 -2.0242 0.9682
-0.8372 -7.7873 -2.0279 0.9682
-0.2800 -7.8409 -2.0314 0.9681
-0.0000 -7.8524 -2.0331 0.9681
0.2805 -7.8538 -2.0348 0.9680
0.8413 -7.8257 -2.0379 0.9680
1.3995 -7.7567 -2.0408 0.9680
1.6765 -7.7069 -2.0421 0.9679
1.9518 -7.6469 -2.0434 0.9679
2.7626 -7.4069 -2.0468 0.9679
3.2870 -7.1976 -2.0487 0.9678
3.5433 -7.0786 -2.0496 0.9678
3.7951 -6.9503 -2.0503 0.9678
4.2840 -6.6660 -2.0516 0.9678
4.9752 -6.1739 -2.0530 0.9678
5.6083 -5.6083 -2.0536 0.9678
5.8050 -5.4046 -2.0536 0.9678
6.1751 -4.9763 -2.0534 0.9678
6.3481 -4.7522 -2.0532 0.9678
6.6687 -4.2858 -2.0525 0.9678
6.8159 -4.0441 -2.0520 0.9678
7.0830 -3.5455 -2.0508 0.9678
7.2025 -3.2893 -2.0501 0.9678
7.3125 -3.0289 -2.0493 0.9678
7.4128 -2.7648 -2.0485 0.9678
7.5033 -2.4974 -2.0475 0.9679
7.5839 -2.2268 -2.0465 0.9679
7.6545 -1.9537 -2.0454 0.9679
7.7653 -1.4010 -2.0430 0.9679
7.8054 -1.1222 -2.0417 0.9679
7.8352 -0.8424 -2.0404 0.9680
7.8548 -0.5618 -2.0389 0.9680
-6.8873 0.0000 -1.9498 0.9718
-6.8877 -0.2460 -1.9511 0.9718
-6.8626 -0.7378 -1.9540 0.9717
-6.7092 -1.7124 -1.9602 0.9716
-6.6494 -1.9525 -1.9619 0.9716
-6.5812 -2.1904 -1.9636 0.9716
-6.4197 -2.6591 -1.9671 0.9715
-6.2251 -3.1161 -1.9707 0.9715
-5.9984 -3.5590 -1.9745 0.9714
-5.7404 -3.9856 -1.9784 0.9714
-5.6000 -4.1921 -1.9803 0.9713
-5.1352 -4.7810 -1.9863 0.9713
-4.6087 -5.3187 -1.9923 0.9712
-4.2260 -5.6453 -1.9963 0.9711
-4.0259 -5.7984 -1.9983 0.9711
-3.8202 -5.9443 -2.0003 0.9711
-3.6092 -6.0829 -2.0023 0.9710
-3.1723 -6.3374 -2.0063 0.9710
-2.9469 -6.4528 -2.0082 0.9709
-2.7173 -6.5602 -2.0102 0.9709
-2.4838 -6.6593 -2.0121 0.9709
-2.0061 -6.8322 -2.0158 0.9708
-1.5163 -6.9704 -2.0194 0.9708
-1.0170 -7.0730 -2.0229 0.9707
-0.7645 -7.1107 -2.0246 0.9707
-0.2557 -7.1586 -2.0278 0.9707
-0.0000 -7.1686 -2.0294 0.9706
1.0230 -7.1155 -2.0351 0.9706
1.2772 -7.0789 -2.0363 0.9705
1.5299 -7.0330 -2.0376 0.9705
1.7810 -6.9779 -2.0387 0.9705
2.7614 -6.6665 -2.0427 0.9704
3.4621 -6.3403 -2.0450 0.9704
3.9078 -6.0807 -2.0462 0.9704
4.3335 -5.7889 -2.0471 0.9704
4.5381 -5.6314 -2.0474 0.9704
4.7368 -5.4666 -2.0477 0.9704
5.2948 -4.9296 -2.0480 0.9704
5.6325 -4.5390 -2.0478 0.9704
5.7903 -4.3346 -2.0476 0.9704
6.3435 -3.4638 -2.0461 0.9704
6.6711 -2.7632 -2.0441 0.9704
6.7628 -2.5224 -2.0433 0.9704
6.9195 -2.0317 -2.0416 0.9705
6.9842 -1.7826 -2.0406 0.9705
7.0860 -1.2785 -2.0384 0.9705
7.1230 -1.0241 -2.0372 0.9705
7.1690 -0.5127 -2.0347 0.9706
-6.3493 -0.2267 -1.9541 0.9738
-6.3254 -0.6800 -1.9568 0.9737
-6.3016 -0.9060 -1.9582 0.9737
-6.2698 -1.1312 -1.9596 0.9737
-6.1270 -1.7990 -1.9641 0.9736
-6.0637 -2.0182 -1.9657 0.9736
-5.9927 -2.2352 -1.9673 0.9736
-5.9140 -2.4497 -1.9689 0.9736
-5.7340 -2.8702 -1.9723 0.9735
-5.4086 -3.4759 -1.9775 0.9735
-5.2859 -3.6700 -1.9793 0.9734
-5.1562 -3.8599 -1.9811 0.9734
-5.0197 -4.0452 -1.9829 0.9734
-4.5713 -4.5712 -1.9884 0.9733
-4.2414 -4.8948 -1.9921 0.9733
-4.0678 -5.0478 -1.9940 0.9732
-3.8886 -5.1946 -1.9958 0.9732
-3.7042 -5.3350 -1.9977 0.9732
-3.5146 -5.4688 -1.9995 0.9732
-3.1212 -5.7161 -2.0032 0.9731
-2.9178 -5.8291 -2.0050 0.9731
-2.7103 -5.9348 -2.0068 0.9731
-2.2841 -6.1238 -2.0103 0.9730
-2.0658 -6.2068 -2.0120 0.9730
-1.8445 -6.2818 -2.0137 0.9730
-1.6205 -6.3490 -2.0154 0.9730
-0.9348 -6.5014 -2.0203 0.9729
-0.4693 -6.5614 -2.0233 0.9728
0.2353 -6.5878 -2.0276 0.9728
0.4706 -6.5795 -2.0289 0.9728
1.4055 -6.4609 -2.0337 0.9727
1.6360 -6.4099 -2.0348 0.9727
1.8647 -6.3506 -2.0358 0.9727
2.0912 -6.2829 -2.0367 0.9727
2.3151 -6.2070 -2.0376 0.9727
2.7542 -6.0308 -2.0392 0.9726
2.9687 -5.9307 -2.0399 0.9726
3.1794 -5.8227 -2.0406 0.9726
3.3862 -5.7071 -2.0411 0.9726
3.5886 -5.5840 -2.0416 0.9726
3.7865 -5.4535 -2.0421 0.9726
4.3497 -5.0198 -2.0430 0.9726
4.5264 -4.8617 -2.0431 0.9726
5.0204 -4.3502 -2.0432 0.9726
5.3171 -3.9804 -2.0429 0.9726
5.7094 -3.3876 -2.0419 0.9726
5.8254 -3.1809 -2.0415 0.9726
6.2112 -2.3167 -2.0390 0.9726
6.3555 -1.8662 -2.0374 0.9727
6.4665 -1.4067 -2.0355 0.9727
6.5093 -1.1744 -2.0345 0.9727
6.5865 -0.4711 -2.0310 0.9727
6.5950 -0.2356 -2.0298 0.9728
-5.8832 0.0000 -1.9556 0.9755
-5.8830 -0.2101 -1.9568 0.9755
-5.8753 -0.4202 -1.9580 0.9755
-5.8603 -0.6300 -1.9592 0.9755
-5.7710 -1.2554 -1.9632 0.9754
-5.6749 -1.6663 -1.9660 0.9754
-5.6159 -1.8692 -1.9675 0.9754
-5.5499 -2.0700 -1.9689 0.9753
-5.4767 -2.2685 -1.9705 0.9753
-5.3964 -2.4645 -1.9720 0.9753
-5.3092 -2.6576 -1.9736 0.9753
-5.2152 -2.8477 -1.9752 0.9753
-5.1144 -3.0345 -1.9768 0.9752
-4.7727 -3.5728 -1.9817 0.9752
-4.6461 -3.7440 -1.9834 0.9752
-4.5133 -3.9108 -1.9851 0.9751
-4.3746 -4.0729 -1.9868 0.9751
-4.0799 -4.3821 -1.9902 0.9751
-3.7634 -4.6700 -1.9937 0.9750
-3.5974 -4.8055 -1.9954 0.9750
-3.4265 -4.9351 -1.9971 0.9750
-3.2509 -5.0586 -1.9988 0.9750
-3.0709 -5.1758 -2.0005 0.9750
-2.8867 -5.2865 -2.0022 0.9749
-2.3107 -5.5786 -2.0071 0.9749
-1.2886 -5.9234 -2.0150 0.9748
-1.0771 -5.9700 -2.0165 0.9748
-0.6494 -6.0403 -2.0194 0.9747
-0.2171 -6.0794 -2.0221 0.9747
1.0840 -6.0080 -2.0293 0.9746
1.2984 -5.9685 -2.0304 0.9746
1.7225 -5.8662 -2.0323 0.9746
1.9316 -5.8035 -2.0332 0.9745
2.1384 -5.7332 -2.0340 0.9745
2.3425 -5.6553 -2.0347 0.9745
2.5437 -5.5700 -2.0354 0.9745
2.7418 -5.4774 -2.0361 0.9745
2.9364 -5.3776 -2.0367 0.9745
3.4968 -5.0364 -2.0381 0.9745
3.8484 -4.7755 -2.0387 0.9745
4.1800 -4.4896 -2.0391 0.9745
4.6361 -4.0172 -2.0391 0.9745
4.9102 -3.6758 -2.0389 0.9745
5.0377 -3.4978 -2.0386 0.9745
5.2727 -3.1285 -2.0380 0.9745
5.3799 -2.9377 -2.0375 0.9745
5.4800 -2.7431 -2.0371 0.9745
5.5729 -2.5451 -2.0365 0.9745
5.8074 -1.9329 -2.0345 0.9745
5.9257 -1.5125 -2.0329 0.9746
6.0450 -0.8691 -2.0301 0.9746
6.0690 -0.6525 -2.0290 0.9746
6.0852 -0.4352 -2.0279 0.9746
6.0934 -0.2176 -2.0268 0.9746
-5.4753 0.0000 -1.9580 0.9770
-5.4748 -0.1955 -1.9591 0.9770
-5.4675 -0.3910 -1.9602 0.9770
-5.4321 -0.7810 -1.9625 0.9770
-5.3694 -1.1680 -1.9650 0.9769
-5.3278 -1.3598 -1.9663 0.9769
-5.2243 -1.7388 -1.9690 0.9769
-5.0942 -2.1101 -1.9718 0.9768
-4.9380 -2.4718 -1.9747 0.9768
-4.7562 -2.8220 -1.9777 0.9768
-4.1960 -3.6358 -1.9855 0.9767
-4.0668 -3.7863 -1.9870 0.9767
-2.3284 -5.0985 -2.0044 0.9765
-1.9617 -5.2596 -2.0074 0.9764
-1.5838 -5.3940 -2.0104 0.9764
-1.0003 -5.5441 -2.0146 0.9764
-0.8023 -5.5800 -2.0160 0.9763
-0.0000 -5.6516 -2.0210 0.9763
0.2018 -5.6512 -2.0222 0.9763
0.4036 -5.6436 -2.0234 0.9763
0.6051 -5.6287 -2.0244 0.9762
0.8061 -5.6064 -2.0255 0.9762
1.2051 -5.5400 -2.0275 0.9762
1.7927 -5.3863 -2.0301 0.9762
2.1740 -5.2484 -2.0315 0.9762
2.3607 -5.1692 -2.0322 0.9761
2.7250 -4.9904 -2.0333 0.9761
2.9020 -4.8911 -2.0338 0.9761
3.0754 -4.7854 -2.0342 0.9761
3.7273 -4.3015 -2.0354 0.9761
3.8787 -4.1660 -2.0355 0.9761
4.0251 -4.0251 -2.0356 0.9761
4.1662 -3.8789 -2.0356 0.9761
4.5563 -3.4108 -2.0353 0.9761
4.8928 -2.9030 -2.0345 0.9761
5.4483 -1.5998 -2.0306 0.9762
5.4998 -1.4037 -2.0298 0.9762
5.5812 -1.0070 -2.0281 0.9762
5.6487 -0.4040 -2.0252 0.9762
-5.1149 0.0000 -1.9601 0.9783
-5.1072 -0.3653 -1.9622 0.9783
-5.0937 -0.5476 -1.9632 0.9783
-4.9303 -1.4477 -1.9691 0.9782
-4.8207 -1.7980 -1.9717 0.9782
-4.7567 -1.9703 -1.9730 0.9782
-4.6865 -2.1403 -1.9744 0.9782
-4.3464 -2.7933 -1.9799 0.9781
-4.2471 -2.9488 -1.9814 0.9781
-4.1421 -3.1008 -1.9828 0.9781
-4.0318 -3.2490 -1.9843 0.9781
-3.7954 -3.5336 -1.9872 0.9780
-3.6696 -3.6695 -1.9887 0.9780
-3.5389 -3.8010 -1.9902 0.9780
-3.4035 -3.9278 -1.9917 0.9780
-3.2636 -4.0498 -1.9932 0.9780
-2.9708 -4.2787 -1.9961 0.9779
-2.6619 -4.4863 -1.9991 0.9779
-2.5019 -4.5818 -2.0006 0.9779
-2.3384 -4.6716 -2.0020 0.9779
-2.1718 -4.7555 -2.0034 0.9779
-1.6545 -4.9708 -2.0076 0.9778
-1.4770 -5.0301 -2.0090 0.9778
-1.2974 -5.0830 -2.0103 0.9778
-1.1158 -5.1294 -2.0117 0.9778
-0.7480 -5.2025 -2.0142 0.9777
-0.5622 -5.2291 -2.0154 0.9777
-0.0000 -5.2684 -2.0189 0.9777
0.5640 -5.2464 -2.0221 0.9777
0.7513 -5.2255 -2.0231 0.9776
0.9378 -5.1977 -2.0240 0.9776
1.3073 -5.1220 -2.0258 0.9776
1.4899 -5.0741 -2.0266 0.9776
1.8494 -4.9584 -2.0280 0.9776
2.0259 -4.8909 -2.0287 0.9776
2.1998 -4.8169 -2.0293 0.9776
2.3710 -4.7366 -2.0299 0.9776
2.5392 -4.6501 -2.0304 0.9776
2.7041 -4.5576 -2.0308 0.9776
2.8656 -4.4590 -2.0312 0.9776
3.0235 -4.3546 -2.0316 0.9775
3.1774 -4.2446 -2.0319 0.9775
3.3273 -4.1289 -2.0321 0.9775
3.4729 -4.0079 -2.0323 0.9775
3.6139 -3.8817 -2.0324 0.9775
3.7503 -3.7503 -2.0325 0.9775
3.8818 -3.6141 -2.0325 0.9775
4.0083 -3.4732 -2.0325 0.9775
4.2453 -3.1780 -2.0322 0.9775
4.4602 -2.8664 -2.0318 0.9775
4.5590 -2.7050 -2.0315 0.9775
4.6518 -2.5401 -2.0311 0.9776
4.7385 -2.3720 -2.0307 0.9776
4.8191 -2.2008 -2.0302 0.9776
4.9611 -1.8504 -2.0291 0.9776
5.2295 -0.7519 -2.0247 0.9776
-4.7863 -0.3423 -1.9639 0.9795
-4.7735 -0.5132 -1.9649 0.9795
-4.6990 -1.0222 -1.9682 0.9794
-4.3188 -2.1618 -1.9766 0.9793
-4.2416 -2.3161 -1.9779 0.9793
-3.7758 -3.0427 -1.9847 0.9793
-3.6673 -3.1778 -1.9860 0.9792
-3.5540 -3.3089 -1.9874 0.9792
-3.1866 -3.6776 -1.9916 0.9792
-2.4917 -4.1995 -1.9985 0.9791
-2.1887 -4.3725 -2.0012 0.9791
-1.7122 -4.5905 -2.0052 0.9790
-1.5482 -4.6517 -2.0065 0.9790
-1.2140 -4.7563 -2.0090 0.9790
-1.0441 -4.7995 -2.0103 0.9790
-0.6999 -4.8675 -2.0126 0.9790
-0.5260 -4.8922 -2.0138 0.9790
-0.3512 -4.9106 -2.0149 0.9789
-0.1758 -4.9227 -2.0160 0.9789
-0.0000 -4.9284 -2.0171 0.9789
0.1760 -4.9278 -2.0181 0.9789
0.3519 -4.9207 -2.0191 0.9789
1.2227 -4.7904 -2.0234 0.9789
1.3934 -4.7455 -2.0242 0.9789
1.5624 -4.6944 -2.0249 0.9788
1.7295 -4.6371 -2.0256 0.9788
1.8945 -4.5738 -2.0262 0.9788
2.3744 -4.3484 -2.0277 0.9788
2.6796 -4.1696 -2.0285 0.9788
2.8272 -4.0720 -2.0289 0.9788
2.9712 -3.9690 -2.0291 0.9788
3.2474 -3.7477 -2.0295 0.9788
3.5068 -3.5068 -2.0297 0.9788
3.6297 -3.3794 -2.0298 0.9788
3.7480 -3.2476 -2.0297 0.9788
3.8613 -3.1117 -2.0296 0.9788
4.4311 -2.2180 -2.0280 0.9788
4.6394 -1.7304 -2.0266 0.9788
4.6969 -1.5633 -2.0260 0.9788
4.7482 -1.3942 -2.0254 0.9788
4.8323 -1.0512 -2.0240 0.9789
4.9111 -0.5280 -2.0216 0.9789
4.9318 -0.1761 -2.0198 0.9789
-1.4571 -0.0520 -0.6354 0.9937
-1.4490 -0.1037 -0.6331 0.9937
-1.4359 -0.1544 -0.6294 0.9937
-1.4180 -0.2039 -0.6244 0.9938
-1.3955 -0.2518 -0.6180 0.9938
-1.4401 -0.4793 -0.6615 0.9934
-1.5118 -0.5639 -0.7032 0.9930
-4.1248 -1.8837 -1.9762 0.9804
-3.6438 -2.7277 -1.9837 0.9803
-3.5464 -2.8579 -1.9850 0.9803
-3.4444 -2.9846 -1.9863 0.9803
-3.2269 -3.2269 -1.9889 0.9803
-2.9924 -3.4534 -1.9915 0.9803
-2.3393 -3.9427 -1.9980 0.9802
-2.0547 -4.1048 -2.0005 0.9802
-1.9081 -4.1781 -2.0018 0.9802
-1.4532 -4.3662 -2.0055 0.9801
-1.2972 -4.4179 -2.0067 0.9801
-0.9799 -4.5044 -2.0090 0.9801
-0.8189 -4.5391 -2.0101 0.9801
-0.4936 -4.5909 -2.0123 0.9801
0.1651 -4.6237 -2.0164 0.9800
0.6593 -4.5856 -2.0190 0.9800
0.8229 -4.5610 -2.0199 0.9800
0.9855 -4.5305 -2.0206 0.9800
1.1470 -4.4941 -2.0214 0.9800
1.4657 -4.4038 -2.0227 0.9800
1.6225 -4.3500 -2.0234 0.9799
1.7772 -4.2905 -2.0239 0.9799
2.0798 -4.1549 -2.0250 0.9799
2.2272 -4.0789 -2.0254 0.9799
2.6519 -3.8194 -2.0265 0.9799
2.7869 -3.7228 -2.0267 0.9799
3.1696 -3.4044 -2.0272 0.9799
3.9120 -2.5141 -2.0266 0.9799
4.2271 -1.9305 -2.0253 0.9799
4.3520 -1.6232 -2.0243 0.9799
4.4060 -1.4665 -2.0238 0.9799
4.4967 -1.1477 -2.0225 0.9800
4.5332 -0.9861 -2.0219 0.9800
4.6075 -0.4954 -2.0196 0.9800
4.6204 -0.3304 -2.0188 0.9800
4.6272 -0.1653 -2.0179 0.9800
-1.2424 -0.0444 -0.5755 0.9945
-1.2362 -0.0884 -0.5737 0.9946
-1.2124 -0.1743 -0.5670 0.9946
-1.1974 -0.2160 -0.5632 0.9947
-1.1790 -0.2565 -0.5585 0.9947
-1.1330 -0.3327 -0.5466 0.9948
-1.2017 -0.4482 -0.5937 0.9944
-1.2345 -0.5114 -0.6185 0.9941
-3.8852 -1.7743 -1.9770 0.9814
-3.8215 -1.9129 -1.9782 0.9813
-3.6015 -2.3145 -1.9817 0.9813
-3.0383 -3.0383 -1.9889 0.9812
-2.9297 -3.1468 -1.9902 0.9812
-2.8173 -3.2513 -1.9914 0.9812
-2.7011 -3.3519 -1.9926 0.9812
-2.4581 -3.5404 -1.9951 0.9812
-2.2020 -3.7113 -1.9975 0.9812
-2.0694 -3.7898 -1.9987 0.9811
-1.6554 -3.9964 -2.0023 0.9811
-1.5125 -4.0553 -2.0034 0.9811
-1.2208 -4.1575 -2.0057 0.9811
-0.7706 -4.2711 -2.0090 0.9811
-0.6180 -4.2981 -2.0100 0.9810
-0.3101 -4.3356 -2.0120 0.9810
-0.1552 -4.3459 -2.0130 0.9810
0.3106 -4.3435 -2.0157 0.9810
0.9271 -4.2617 -2.0188 0.9810
1.0790 -4.2274 -2.0195 0.9810
1.2296 -4.1875 -2.0202 0.9809
1.3787 -4.1423 -2.0208 0.9809
1.5261 -4.0916 -2.0214 0.9809
2.2308 -3.7599 -2.0237 0.9809
2.4941 -3.5922 -2.0243 0.9809
2.6211 -3.5014 -2.0245 0.9809
2.7446 -3.4059 -2.0247 0.9809
2.8647 -3.3060 -2.0249 0.9809
2.9810 -3.2018 -2.0250 0.9809
3.0935 -3.0935 -2.0250 0.9809
3.2019 -2.9811 -2.0251 0.9809
3.3063 -2.8649 -2.0250 0.9809
3.4063 -2.7450 -2.0250 0.9809
3.5019 -2.6215 -2.0248 0.9809
3.6793 -2.3645 -2.0245 0.9809
3.8375 -2.0955 -2.0239 0.9809
3.9092 -1.9568 -2.0236 0.9809
4.1442 -1.3793 -2.0218 0.9809
4.2297 -1.0796 -2.0206 0.9809
4.2931 -0.7746 -2.0193 0.9810
4.3343 -0.4660 -2.0179 0.9810
4.3531 -0.1555 -2.0163 0.9810
-1.0803 -0.0386 -0.5302 0.9952
-1.0705 -0.1151 -0.5281 0.9952
-1.0611 -0.1526 -0.5258 0.9952
-1.0518 -0.1898 -0.5242 0.9952
-1.0175 -0.2987 -0.5202 0.9953
-1.0025 -0.3337 -0.5183 0.9953
-1.0444 -0.4770 -0.5632 0.9949
-1.0588 -0.5300 -0.5808 0.9947
-3.5426 -1.9344 -1.9799 0.9822
-3.3994 -2.1846 -1.9821 0.9822
-3.3211 -2.3059 -1.9833 0.9821
-3.2386 -2.4244 -1.9844 0.9821
-2.9660 -2.7614 -1.9878 0.9821
-2.7647 -2.9694 -1.9902 0.9821
-2.6585 -3.0680 -1.9913 0.9821
-2.5487 -3.1628 -1.9925 0.9821
-2.3193 -3.3404 -1.9948 0.9820
-1.9523 -3.5754 -1.9982 0.9820
-1.8245 -3.6448 -1.9994 0.9820
-1.5615 -3.7699 -2.0016 0.9820
-1.4268 -3.8253 -2.0027 0.9820
-1.1515 -3.9215 -2.0048 0.9820
-1.0113 -3.9622 -2.0059 0.9819
-0.8697 -3.9978 -2.0069 0.9819
-0.7268 -4.0283 -2.0079 0.9819
-0.5828 -4.0537 -2.0089 0.9819
-0.4380 -4.0738 -2.0098 0.9819
-0.0000 -4.1028 -2.0125 0.9819
0.1465 -4.1019 -2.0134 0.9819
0.2929 -4.0958 -2.0142 0.9819
0.4391 -4.0843 -2.0150 0.9819
0.5848 -4.0676 -2.0158 0.9819
1.4388 -3.8576 -2.0196 0.9818
1.5760 -3.8047 -2.0201 0.9818
1.7112 -3.7470 -2.0206 0.9818
1.9749 -3.6168 -2.0214 0.9818
2.3513 -3.3865 -2.0223 0.9818
2.4710 -3.3008 -2.0226 0.9818
2.5874 -3.2108 -2.0227 0.9818
2.7006 -3.1167 -2.0229 0.9818
2.8103 -3.0184 -2.0230 0.9818
3.0185 -2.8104 -2.0231 0.9818
3.1169 -2.7008 -2.0230 0.9818
3.2112 -2.5877 -2.0230 0.9818
3.3871 -2.3518 -2.0227 0.9818
3.4686 -2.2291 -2.0225 0.9818
3.6855 -1.8448 -2.0216 0.9818
3.7483 -1.7118 -2.0213 0.9818
3.8062 -1.5766 -2.0209 0.9818
3.9501 -1.1599 -2.0194 0.9818
4.0479 -0.7303 -2.0176 0.9818
4.0700 -0.5852 -2.0170 0.9818
4.0869 -0.4394 -2.0163 0.9819
4.0985 -0.2931 -2.0155 0.9819
-0.9893 -0.0353 -0.5135 0.9955
-0.9873 -0.0706 -0.5135 0.9955
-0.9838 -0.1058 -0.5133 0.9956
-0.9785 -0.1407 -0.5129 0.9956
-0.9628 -0.2094 -0.5112 0.9956
-0.9404 -0.2761 -0.5085 0.9956
-0.9268 -0.3085 -0.5067 0.9956
-0.9271 -0.3840 -0.5206 0.9955
-0.9326 -0.4259 -0.5319 0.9954
-3.2149 -2.0661 -1.9826 0.9829
-3.1408 -2.1807 -1.9836 0.9829
-3.0626 -2.2927 -1.9847 0.9829
-2.8944 -2.5080 -1.9869 0.9829
-2.4098 -2.9903 -1.9923 0.9828
-2.3028 -3.0761 -1.9934 0.9828
-1.8456 -3.3799 -1.9978 0.9828
-1.7247 -3.4454 -1.9988 0.9828
-1.3486 -3.6157 -2.0020 0.9828
-0.4139 -3.8498 -2.0087 0.9827
-0.2763 -3.8638 -2.0096 0.9827
-0.1383 -3.8729 -2.0105 0.9827
-0.0000 -3.8770 -2.0113 0.9827
0.1384 -3.8760 -2.0121 0.9827
0.6896 -3.8224 -2.0150 0.9826
0.8259 -3.7966 -2.0157 0.9826
1.0953 -3.7303 -2.0169 0.9826
1.3593 -3.6445 -2.0179 0.9826
1.4889 -3.5946 -2.0184 0.9826
1.6166 -3.5399 -2.0189 0.9826
1.7423 -3.4807 -2.0193 0.9826
1.9868 -3.3487 -2.0200 0.9826
2.5512 -2.9443 -2.0211 0.9826
2.8515 -2.6549 -2.0212 0.9826
3.0335 -2.4446 -2.0211 0.9826
3.2767 -2.1058 -2.0207 0.9826
3.3494 -1.9873 -2.0205 0.9826
3.4817 -1.7428 -2.0199 0.9826
3.5411 -1.6172 -2.0195 0.9826
3.5959 -1.4895 -2.0192 0.9826
3.6460 -1.3599 -2.0187 0.9826
3.6914 -1.2286 -2.0183 0.9826
3.7320 -1.0958 -2.0178 0.9826
3.7986 -0.8263 -2.0167 0.9826
3.8245 -0.6900 -2.0161 0.9826
3.8615 -0.4152 -2.0148 0.9827
-0.9179 -0.0328 -0.5031 0.9958
-0.9161 -0.0655 -0.5030 0.9958
-0.9127 -0.0981 -0.5028 0.9958
-0.8837 -0.2255 -0.4995 0.9958
-0.8727 -0.2563 -0.4982 0.9959
-0.8603 -0.2863 -0.4966 0.9959
-0.8479 -0.3512 -0.5027 0.9958
-0.8516 -0.4263 -0.5216 0.9957
-0.8507 -0.4645 -0.5309 0.9956
-2.9754 -2.0659 -1.9840 0.9836
-2.5680 -2.5680 -1.9891 0.9836
-2.4760 -2.6594 -1.9901 0.9836
-2.1810 -2.9134 -1.9933 0.9835
-1.9696 -3.0647 -1.9953 0.9835
-1.5165 -3.3206 -1.9994 0.9835
-1.0305 -3.5094 -2.0032 0.9835
-0.6503 -3.6044 -2.0060 0.9834
-0.1310 -3.6664 -2.0094 0.9834
-0.0000 -3.6701 -2.0102 0.9834
0.3928 -3.6531 -2.0124 0.9834
0.5231 -3.6380 -2.0130 0.9834
0.6528 -3.6182 -2.0137 0.9834
0.9098 -3.5645 -2.0149 0.9834
1.2866 -3.4495 -2.0165 0.9833
1.4092 -3.4022 -2.0169 0.9833
1.6490 -3.2943 -2.0177 0.9833
1.9926 -3.1006 -2.0187 0.9833
2.3133 -2.8707 -2.0193 0.9833
2.5125 -2.6986 -2.0195 0.9833
2.7866 -2.4146 -2.0195 0.9833
2.8710 -2.3136 -2.0195 0.9833
2.9516 -2.2095 -2.0194 0.9833
3.0283 -2.1026 -2.0192 0.9833
3.1012 -1.9930 -2.0190 0.9833
3.3515 -1.5306 -2.0180 0.9833
3.4508 -1.2871 -2.0172 0.9833
3.5323 -1.0372 -2.0163 0.9834
3.5661 -0.9102 -2.0158 0.9834
3.5954 -0.7821 -2.0153 0.9834
3.6657 -0.2622 -2.0128 0.9834
3.6714 -0.1311 -2.0121 0.9834
-0.8548 -0.0305 -0.4938 0.9961
-0.8499 -0.0914 -0.4935 0.9961
-0.8453 -0.1215 -0.4930 0.9961
-0.8393 -0.1514 -0.4924 0.9961
-0.8318 -0.1810 -0.4915 0.9961
-0.8230 -0.2101 -0.4904 0.9961
-0.8128 -0.2387 -0.4891 0.9961
-0.7887 -0.2942 -0.4860 0.9961
-0.7797 -0.3229 -0.4872 0.9961
-0.7750 -0.4599 -0.5203 0.9958
-0.7696 -0.4946 -0.5282 0.9958
-2.6012 -2.2540 -1.9872 0.9842
-2.4362 -2.4362 -1.9891 0.9842
-2.3489 -2.5228 -1.9901 0.9842
-2.1650 -2.6866 -1.9921 0.9842
-1.9698 -2.8371 -1.9941 0.9842
-1.8682 -2.9070 -1.9950 0.9842
-1.7641 -2.9732 -1.9960 0.9842
-1.6577 -3.0358 -1.9970 0.9842
-1.4382 -3.1493 -1.9989 0.9841
-1.0949 -3.2896 -2.0017 0.9841
-0.8582 -3.3623 -2.0034 0.9841
-0.7379 -3.3922 -2.0043 0.9841
-0.6167 -3.4179 -2.0052 0.9841
-0.4945 -3.4391 -2.0060 0.9841
-0.3716 -3.4560 -2.0068 0.9841
-0.2481 -3.4684 -2.0076 0.9841
0.1242 -3.4789 -2.0098 0.9840
0.3724 -3.4635 -2.0112 0.9840
0.4959 -3.4491 -2.0118 0.9840
0.6189 -3.4303 -2.0124 0.9840
0.7411 -3.4070 -2.0130 0.9840
0.8625 -3.3793 -2.0136 0.9840
0.9828 -3.3472 -2.0141 0.9840
1.2197 -3.2701 -2.0151 0.9840
1.3359 -3.2252 -2.0155 0.9840
1.6739 -3.0656 -2.0166 0.9840
1.7826 -3.0044 -2.0169 0.9840
1.8889 -2.9392 -2.0172 0.9840
2.3817 -2.5581 -2.0179 0.9840
2.7215 -2.1931 -2.0179 0.9840
2.8707 -1.9932 -2.0177 0.9840
3.1237 -1.5636 -2.0168 0.9840
3.1771 -1.4509 -2.0165 0.9840
3.2263 -1.3364 -2.0162 0.9840
3.2713 -1.2201 -2.0158 0.9840
3.3121 -1.1024 -2.0154 0.9840
3.3486 -0.9832 -2.0149 0.9840
3.3808 -0.8629 -2.0145 0.9840
3.4809 -0.1243 -2.0110 0.9840
