ply
format ascii 1.0
element vertex 711
property float32 x
property float32 y
property float32 z
property float32 I
end_header
-9.2519 0.0000 -1.9557 0.9629
-9.2414 -0.6609 -1.9584 0.9628
-9.1844 -1.3205 -1.9614 0.9628
-9.0812 -1.9755 -1.9645 0.9627
-9.0122 -2.3002 -1.9661 0.9627
-8.9318 -2.6226 -1.9677 0.9627
-8.8400 -2.9422 -1.9694 0.9626
-8.7369 -3.2587 -1.9711 0.9626
-8.0556 -4.7796 -1.9800 0.9624
-7.3207 -5.8994 -1.9874 0.9623
-6.6671 -6.6671 -1.9930 0.9622
-6.4309 -6.9073 -1.9949 0.9622
-5.9330 -7.3624 -1.9987 0.9621
-5.4028 -7.7815 -2.0024 0.9620
-5.1263 -7.9767 -2.0043 0.9620
-4.2559 -8.5022 -2.0098 0.9619
-3.9532 -8.6564 -2.0116 0.9618
-3.3314 -8.9319 -2.0151 0.9618
-2.6902 -9.1621 -2.0185 0.9617
-2.3634 -9.2599 -2.0201 0.9617
-1.3632 -9.4816 -2.0248 0.9616
-1.0247 -9.5312 -2.0263 0.9616
-0.6843 -9.5685 -2.0278 0.9615
-0.3426 -9.5935 -2.0292 0.9615
0.0000 -9.6060 -2.0305 0.9615
1.0287 -9.5687 -2.0343 0.9614
1.3704 -9.5312 -2.0354 0.9614
2.0490 -9.4189 -2.0375 0.9614
2.3850 -9.3442 -2.0385 0.9613
2.7182 -9.2573 -2.0394 0.9613
3.0481 -9.1581 -2.0403 0.9613
4.3262 -8.6427 -2.0430 0.9613
4.6331 -8.4849 -2.0435 0.9612
4.9341 -8.3160 -2.0440 0.9612
5.2287 -8.1360 -2.0443 0.9612
5.7974 -7.7444 -2.0449 0.9612
6.0706 -7.5331 -2.0450 0.9612
6.5929 -7.0813 -2.0452 0.9612
6.8413 -6.8413 -2.0451 0.9612
8.1322 -5.2262 -2.0433 0.9612
8.3113 -4.9313 -2.0428 0.9613
8.4795 -4.6302 -2.0422 0.9613
8.6366 -4.3231 -2.0415 0.9613
9.0385 -3.3712 -2.0391 0.9613
9.1490 -3.0451 -2.0382 0.9613
9.2473 -2.7153 -2.0372 0.9614
9.4075 -2.0465 -2.0351 0.9614
9.5184 -1.3685 -2.0327 0.9614
9.5795 -0.6851 -2.0301 0.9615
-8.3359 0.0000 -1.9591 0.9663
-8.3359 -0.2977 -1.9604 0.9663
-8.2728 -1.1894 -1.9643 0.9662
-8.2309 -1.4850 -1.9657 0.9662
-8.1785 -1.7791 -1.9671 0.9662
-8.1157 -2.0714 -1.9685 0.9662
-7.8658 -2.9338 -1.9730 0.9661
-7.7622 -3.2152 -1.9746 0.9661
-7.5252 -3.7668 -1.9778 0.9660
-7.3920 -4.0363 -1.9794 0.9660
-7.0970 -4.5609 -1.9827 0.9659
-6.9355 -4.8154 -1.9844 0.9659
-6.3972 -5.5432 -1.9894 0.9658
-5.3340 -6.6191 -1.9979 0.9657
-5.0987 -6.8110 -1.9996 0.9656
-4.6075 -7.1694 -2.0029 0.9656
-4.3523 -7.3353 -2.0046 0.9656
-4.0910 -7.4921 -2.0062 0.9655
-3.8241 -7.6396 -2.0079 0.9655
-3.5518 -7.7774 -2.0095 0.9655
-3.2745 -7.9054 -2.0110 0.9655
-2.9926 -8.0235 -2.0126 0.9654
-2.7064 -8.1314 -2.0141 0.9654
-2.1225 -8.3161 -2.0171 0.9653
-1.5260 -8.4582 -2.0200 0.9653
-1.2240 -8.5131 -2.0214 0.9653
-0.9200 -8.5570 -2.0227 0.9653
-0.6144 -8.5899 -2.0240 0.9652
0.3079 -8.6218 -2.0276 0.9652
0.6158 -8.6101 -2.0287 0.9652
2.1399 -8.3840 -2.0336 0.9651
2.4388 -8.3056 -2.0344 0.9651
3.3160 -8.0056 -2.0365 0.9650
4.1560 -7.6111 -2.0381 0.9650
4.4258 -7.4594 -2.0385 0.9650
5.4450 -6.7568 -2.0395 0.9650
5.9134 -6.3515 -2.0396 0.9650
6.1362 -6.1362 -2.0395 0.9650
6.3510 -5.9130 -2.0394 0.9650
6.7553 -5.4438 -2.0390 0.9650
7.4556 -4.4236 -2.0375 0.9650
7.6068 -4.1536 -2.0369 0.9650
7.7479 -3.8783 -2.0363 0.9650
7.8788 -3.5981 -2.0357 0.9650
7.9994 -3.3134 -2.0349 0.9650
8.2976 -2.4364 -2.0325 0.9651
8.3754 -2.1377 -2.0315 0.9651
8.4423 -1.8365 -2.0305 0.9651
8.5428 -1.2283 -2.0284 0.9652
8.5764 -0.9221 -2.0273 0.9652
8.5988 -0.6150 -2.0261 0.9652
8.6100 -0.3075 -2.0248 0.9652
-7.5778 -0.0000 -1.9620 0.9692
-7.5186 -1.0810 -1.9667 0.9691
-7.4800 -1.3495 -1.9680 0.9691
-7.4319 -1.6167 -1.9693 0.9691
-7.2312 -2.4068 -1.9733 0.9690
-7.1458 -2.6652 -1.9747 0.9690
-6.7133 -3.6658 -1.9805 0.9689
-6.4444 -4.1416 -1.9834 0.9688
-6.1419 -4.5978 -1.9865 0.9688
-5.9785 -4.8178 -1.9880 0.9688
-5.4419 -5.4419 -1.9926 0.9687
-5.0476 -5.8252 -1.9957 0.9687
-4.1799 -6.5041 -2.0018 0.9686
-3.9481 -6.6541 -2.0033 0.9685
-3.7108 -6.7959 -2.0048 0.9685
-3.4684 -6.9291 -2.0063 0.9685
-3.2212 -7.0536 -2.0077 0.9685
-2.9695 -7.1692 -2.0092 0.9684
-2.4540 -7.3730 -2.0120 0.9684
-1.6551 -7.6082 -2.0160 0.9683
-1.1095 -7.7166 -2.0185 0.9683
0.0000 -7.8137 -2.0231 0.9682
0.5580 -7.8018 -2.0252 0.9682
1.1142 -7.7494 -2.0271 0.9682
1.3907 -7.7080 -2.0280 0.9682
1.6656 -7.6566 -2.0288 0.9681
2.2092 -7.5239 -2.0303 0.9681
2.4772 -7.4428 -2.0310 0.9681
2.7421 -7.3519 -2.0316 0.9681
3.0037 -7.2514 -2.0322 0.9681
3.2614 -7.1414 -2.0327 0.9681
3.5150 -7.0221 -2.0332 0.9681
3.7642 -6.8936 -2.0336 0.9681
4.2478 -6.6096 -2.0343 0.9681
4.4815 -6.4546 -2.0345 0.9681
4.7095 -6.2912 -2.0347 0.9681
5.9390 -5.1462 -2.0347 0.9681
6.8900 -3.7622 -2.0326 0.9681
7.1369 -3.2593 -2.0314 0.9681
7.2463 -3.0015 -2.0308 0.9681
7.3463 -2.7400 -2.0301 0.9681
7.4367 -2.4752 -2.0293 0.9681
7.5173 -2.2073 -2.0285 0.9681
7.5881 -1.9368 -2.0277 0.9682
7.6491 -1.6639 -2.0268 0.9682
7.7000 -1.3892 -2.0259 0.9682
7.7718 -0.8355 -2.0238 0.9682
7.8031 -0.2787 -2.0217 0.9683
-6.9392 0.0000 -1.9645 0.9716
-6.9289 -0.4956 -1.9665 0.9715
-6.7505 -1.7230 -1.9723 0.9715
-6.5401 -2.4393 -1.9760 0.9714
-6.3578 -2.9035 -1.9787 0.9714
-6.2543 -3.1307 -1.9800 0.9713
-6.0233 -3.5738 -1.9827 0.9713
-5.8960 -3.7891 -1.9841 0.9713
-5.7610 -3.9999 -1.9855 0.9713
-5.3116 -4.6025 -1.9897 0.9712
-4.6156 -5.3267 -1.9953 0.9711
-4.4256 -5.4919 -1.9967 0.9711
-3.8212 -5.9459 -2.0009 0.9710
-2.4798 -6.6487 -2.0089 0.9709
-2.0017 -6.8172 -2.0114 0.9709
-1.7582 -6.8885 -2.0126 0.9709
-1.5121 -6.9510 -2.0138 0.9709
-0.7617 -7.0848 -2.0172 0.9708
-0.5086 -7.1112 -2.0183 0.9708
0.0000 -7.1366 -2.0203 0.9708
0.5096 -7.1251 -2.0222 0.9707
1.0175 -7.0766 -2.0239 0.9707
2.7423 -6.6204 -2.0286 0.9706
2.9775 -6.5198 -2.0291 0.9706
3.4364 -6.2933 -2.0299 0.9706
3.6595 -6.1677 -2.0302 0.9706
3.8778 -6.0340 -2.0305 0.9706
4.0912 -5.8924 -2.0307 0.9706
4.2992 -5.7431 -2.0309 0.9706
4.5017 -5.5863 -2.0310 0.9706
5.2509 -4.8887 -2.0310 0.9706
5.4216 -4.6979 -2.0309 0.9706
5.5853 -4.5009 -2.0307 0.9706
5.7417 -4.2982 -2.0304 0.9706
6.1651 -3.6579 -2.0294 0.9706
6.9292 -1.7686 -2.0245 0.9707
6.9851 -1.5195 -2.0237 0.9707
7.0695 -1.0164 -2.0219 0.9707
7.0980 -0.7631 -2.0210 0.9708
7.1173 -0.5090 -2.0200 0.9708
-6.3835 -0.4566 -1.9685 0.9736
-6.3413 -0.9117 -1.9705 0.9735
-6.3081 -1.1381 -1.9716 0.9735
-6.2669 -1.3633 -1.9726 0.9735
-6.2177 -1.5870 -1.9738 0.9735
-6.0957 -2.0288 -1.9760 0.9735
-5.9426 -2.4615 -1.9784 0.9734
-5.6559 -3.0884 -1.9821 0.9734
-5.4281 -3.4884 -1.9846 0.9734
-5.3035 -3.6823 -1.9859 0.9733
-4.7378 -4.4110 -1.9910 0.9733
-4.5803 -4.5803 -1.9923 0.9733
-4.4168 -4.7439 -1.9936 0.9732
-4.2474 -4.9017 -1.9949 0.9732
-2.9161 -5.8257 -2.0038 0.9731
-2.4961 -6.0262 -2.0062 0.9731
-2.2808 -6.1150 -2.0074 0.9731
-1.3904 -6.3918 -2.0120 0.9730
-0.7003 -6.5139 -2.0151 0.9730
0.0000 -6.5607 -2.0179 0.9729
0.2343 -6.5594 -2.0188 0.9729
0.7022 -6.5314 -2.0205 0.9729
0.9352 -6.5046 -2.0213 0.9729
1.3979 -6.4259 -2.0227 0.9729
1.6269 -6.3740 -2.0234 0.9728
2.5202 -6.0842 -2.0256 0.9728
2.7363 -5.9917 -2.0260 0.9728
3.3628 -5.6678 -2.0270 0.9728
3.9506 -5.2774 -2.0277 0.9728
4.1367 -5.1333 -2.0278 0.9728
4.3174 -4.9826 -2.0278 0.9728
4.8251 -4.4923 -2.0277 0.9728
5.1325 -4.1360 -2.0274 0.9728
5.2763 -3.9498 -2.0272 0.9728
5.4132 -3.7584 -2.0269 0.9728
5.6656 -3.3616 -2.0263 0.9728
5.7808 -3.1566 -2.0259 0.9728
5.9885 -2.7348 -2.0249 0.9728
6.3091 -1.8525 -2.0225 0.9729
6.4638 -1.1662 -2.0202 0.9729
6.4987 -0.9344 -2.0194 0.9729
6.5431 -0.4680 -2.0177 0.9729
6.5526 -0.2340 -2.0167 0.9729
-5.9117 -0.4228 -1.9701 0.9753
-5.8956 -0.6338 -1.9710 0.9753
-5.8721 -0.8443 -1.9720 0.9753
-5.6436 -1.8784 -1.9771 0.9752
-5.5760 -2.0797 -1.9782 0.9752
-5.5013 -2.2787 -1.9793 0.9752
-5.4195 -2.4750 -1.9805 0.9752
-5.3308 -2.6684 -1.9816 0.9752
-5.2352 -2.8586 -1.9827 0.9752
-5.1328 -3.0455 -1.9839 0.9752
-5.0238 -3.2286 -1.9851 0.9751
-4.7864 -3.5831 -1.9874 0.9751
-4.5240 -3.9201 -1.9898 0.9751
-4.0864 -4.3892 -1.9934 0.9750
-3.9295 -4.5350 -1.9946 0.9750
-3.6003 -4.8095 -1.9970 0.9750
-2.8860 -5.2853 -2.0017 0.9749
-2.3083 -5.5729 -2.0051 0.9749
-2.1091 -5.6548 -2.0062 0.9749
-1.9070 -5.7296 -2.0073 0.9749
-1.4949 -5.8571 -2.0093 0.9748
-1.0743 -5.9547 -2.0114 0.9748
-0.6474 -6.0219 -2.0133 0.9748
-0.4323 -6.0439 -2.0142 0.9748
-0.2164 -6.0581 -2.0150 0.9748
0.2166 -6.0631 -2.0167 0.9748
0.4330 -6.0539 -2.0175 0.9747
0.8644 -6.0120 -2.0190 0.9747
1.0788 -5.9793 -2.0196 0.9747
1.7133 -5.8350 -2.0215 0.9747
1.9210 -5.7716 -2.0220 0.9747
3.2928 -5.1237 -2.0245 0.9747
3.8225 -4.7434 -2.0250 0.9746
4.1513 -4.4587 -2.0250 0.9746
4.3077 -4.3077 -2.0250 0.9746
5.0021 -3.4730 -2.0242 0.9747
5.1221 -3.2918 -2.0239 0.9747
5.2355 -3.1063 -2.0236 0.9747
5.4416 -2.7239 -2.0228 0.9747
5.8310 -1.7121 -2.0201 0.9747
5.9343 -1.2909 -2.0187 0.9747
6.0315 -0.6484 -2.0165 0.9748
6.0573 -0.2163 -2.0148 0.9748
-5.5073 -0.1967 -1.9707 0.9769
-5.4840 -0.5896 -1.9724 0.9768
-5.4619 -0.7853 -1.9733 0.9768
-5.4329 -0.9802 -1.9742 0.9768
-5.3543 -1.3666 -1.9761 0.9768
-5.2484 -1.7468 -1.9781 0.9768
-5.1854 -1.9341 -1.9791 0.9768
-5.0394 -2.3014 -1.9812 0.9767
-4.8676 -2.6579 -1.9833 0.9767
-4.7723 -2.8315 -1.9844 0.9767
-4.3303 -3.4896 -1.9888 0.9767
-4.2054 -3.6440 -1.9899 0.9766
-3.7981 -4.0795 -1.9932 0.9766
-3.5013 -4.3449 -1.9955 0.9766
-3.1859 -4.5887 -1.9977 0.9765
-2.8536 -4.8095 -1.9999 0.9765
-2.5059 -5.0061 -2.0020 0.9765
-1.9594 -5.2534 -2.0051 0.9765
-0.9979 -5.5311 -2.0099 0.9764
-0.8002 -5.5657 -2.0108 0.9764
-0.6013 -5.5931 -2.0117 0.9764
-0.4015 -5.6133 -2.0125 0.9764
-0.2009 -5.6264 -2.0133 0.9764
0.0000 -5.6322 -2.0141 0.9764
0.2011 -5.6307 -2.0149 0.9763
1.0017 -5.5523 -2.0176 0.9763
1.5908 -5.4179 -2.0193 0.9763
1.7836 -5.3590 -2.0198 0.9763
2.7093 -4.9617 -2.0216 0.9763
2.8850 -4.8625 -2.0219 0.9763
3.0571 -4.7569 -2.0221 0.9763
3.7038 -4.2744 -2.0226 0.9763
3.8540 -4.1395 -2.0226 0.9763
4.1393 -3.8538 -2.0225 0.9763
4.2740 -3.7034 -2.0224 0.9763
4.4032 -3.5483 -2.0222 0.9763
4.6441 -3.2244 -2.0218 0.9763
4.8609 -2.8841 -2.0212 0.9763
4.9599 -2.7083 -2.0209 0.9763
5.0524 -2.5291 -2.0205 0.9763
5.1384 -2.3466 -2.0201 0.9763
5.2177 -2.1612 -2.0196 0.9763
5.3558 -1.7826 -2.0186 0.9763
5.4145 -1.5898 -2.0180 0.9763
5.5783 -0.8020 -2.0154 0.9763
5.6013 -0.6022 -2.0146 0.9764
5.6171 -0.4017 -2.0139 0.9764
-5.1427 -0.1837 -1.9720 0.9782
-5.1349 -0.3673 -1.9728 0.9782
-5.1207 -0.5505 -1.9736 0.9782
-5.0727 -0.9152 -1.9753 0.9782
-4.9525 -1.4542 -1.9780 0.9781
-4.8407 -1.8055 -1.9799 0.9781
-4.7042 -2.1483 -1.9818 0.9781
-4.6268 -2.3160 -1.9828 0.9781
-4.5435 -2.4809 -1.9838 0.9781
-4.4543 -2.6429 -1.9848 0.9781
-4.2588 -2.9569 -1.9869 0.9780
-4.0412 -3.2566 -1.9889 0.9780
-3.9244 -3.4005 -1.9900 0.9780
-3.8025 -3.5403 -1.9910 0.9780
-3.6757 -3.6757 -1.9920 0.9780
-3.4076 -3.9326 -1.9941 0.9780
-3.2668 -4.0539 -1.9952 0.9779
-2.9724 -4.2810 -1.9972 0.9779
-2.5015 -4.5812 -2.0003 0.9779
-2.3375 -4.6698 -2.0012 0.9779
-2.0004 -4.8294 -2.0032 0.9779
-1.8276 -4.9000 -2.0041 0.9778
-1.2951 -5.0742 -2.0069 0.9778
-1.1137 -5.1195 -2.0078 0.9778
-0.9306 -5.1581 -2.0086 0.9778
-0.7462 -5.1902 -2.0094 0.9778
-0.5607 -5.2157 -2.0103 0.9778
-0.1874 -5.2464 -2.0118 0.9778
0.1875 -5.2502 -2.0132 0.9777
0.3749 -5.2419 -2.0139 0.9777
0.5619 -5.2269 -2.0146 0.9777
0.7484 -5.2051 -2.0152 0.9777
1.3016 -5.0994 -2.0169 0.9777
2.1886 -4.7923 -2.0190 0.9777
2.3586 -4.7119 -2.0193 0.9777
2.6894 -4.5328 -2.0198 0.9777
2.8498 -4.4344 -2.0200 0.9777
3.0065 -4.3302 -2.0202 0.9777
3.7280 -3.7280 -2.0204 0.9777
3.9842 -3.4523 -2.0202 0.9777
4.1046 -3.3077 -2.0201 0.9777
4.6237 -2.5248 -2.0188 0.9777
4.7101 -2.3577 -2.0185 0.9777
4.7903 -2.1876 -2.0181 0.9777
4.9932 -1.6619 -2.0167 0.9777
5.0480 -1.4822 -2.0162 0.9777
5.0963 -1.3007 -2.0156 0.9777
5.1379 -1.1177 -2.0150 0.9777
5.2012 -0.7478 -2.0137 0.9777
-4.8195 0.0000 -1.9725 0.9794
-4.7777 -0.6869 -1.9755 0.9794
-4.5895 -1.5275 -1.9797 0.9793
-4.4729 -1.8527 -1.9815 0.9793
-4.3333 -2.1691 -1.9833 0.9793
-4.2552 -2.3235 -1.9843 0.9793
-3.8887 -2.9110 -1.9881 0.9792
-3.5604 -3.3149 -1.9910 0.9792
-3.4415 -3.4415 -1.9920 0.9792
-3.3181 -3.5639 -1.9929 0.9792
-3.0584 -3.7953 -1.9949 0.9792
-2.7825 -4.0076 -1.9968 0.9791
-2.6390 -4.1063 -1.9978 0.9791
-2.3415 -4.2882 -1.9996 0.9791
-2.1880 -4.3711 -2.0006 0.9791
-2.0315 -4.4484 -2.0015 0.9791
-1.5464 -4.6462 -2.0042 0.9791
-1.3802 -4.7005 -2.0050 0.9790
-1.2120 -4.7487 -2.0058 0.9790
-1.0422 -4.7909 -2.0067 0.9790
-0.8709 -4.8270 -2.0075 0.9790
-0.6983 -4.8569 -2.0082 0.9790
-0.5247 -4.8806 -2.0090 0.9790
-0.1753 -4.9091 -2.0105 0.9790
0.0000 -4.9139 -2.0111 0.9790
0.3508 -4.9045 -2.0124 0.9790
0.8738 -4.8431 -2.0142 0.9790
1.0464 -4.8101 -2.0147 0.9789
1.2177 -4.7708 -2.0152 0.9789
1.7218 -4.6163 -2.0165 0.9789
2.0474 -4.4832 -2.0171 0.9789
2.2065 -4.4079 -2.0174 0.9789
2.5159 -4.2403 -2.0179 0.9789
2.6659 -4.1482 -2.0181 0.9789
2.8125 -4.0507 -2.0183 0.9789
2.9554 -3.9479 -2.0184 0.9789
3.0946 -3.8401 -2.0185 0.9789
3.6095 -3.3606 -2.0184 0.9789
3.7270 -3.2295 -2.0184 0.9789
3.8397 -3.0942 -2.0182 0.9789
3.9473 -2.9549 -2.0181 0.9789
4.0499 -2.8119 -2.0179 0.9789
4.2391 -2.5151 -2.0173 0.9789
4.4063 -2.2056 -2.0167 0.9789
4.6141 -1.7209 -2.0155 0.9789
4.7228 -1.3867 -2.0145 0.9790
4.7680 -1.2170 -2.0140 0.9790
4.8665 -0.6997 -2.0122 0.9790
4.8869 -0.5254 -2.0116 0.9790
-1.4601 0.0000 -0.6363 0.9936
-1.3688 -0.2978 -0.6105 0.9939
-1.5118 -0.5639 -0.7032 0.9930
-4.1387 -1.8901 -1.9829 0.9803
-3.1158 -3.3467 -1.9928 0.9802
-2.9958 -3.4573 -1.9937 0.9802
-2.7440 -3.6656 -1.9955 0.9802
-2.6126 -3.7629 -1.9964 0.9802
-2.3396 -3.9432 -1.9982 0.9802
-2.0541 -4.1036 -2.0000 0.9802
-1.9072 -4.1761 -2.0008 0.9802
-1.7576 -4.2433 -2.0017 0.9802
-1.4516 -4.3615 -2.0033 0.9801
-1.2956 -4.4123 -2.0041 0.9801
-0.9782 -4.4970 -2.0057 0.9801
-0.4925 -4.5808 -2.0079 0.9801
-0.3288 -4.5970 -2.0086 0.9801
0.1647 -4.6103 -2.0105 0.9801
0.4934 -4.5894 -2.0117 0.9801
0.6571 -4.5701 -2.0122 0.9801
0.9819 -4.5138 -2.0132 0.9800
1.1427 -4.4769 -2.0137 0.9800
1.3020 -4.4343 -2.0141 0.9800
1.4598 -4.3858 -2.0145 0.9800
1.6157 -4.3317 -2.0149 0.9800
1.7695 -4.2720 -2.0152 0.9800
2.0704 -4.1361 -2.0158 0.9800
2.2170 -4.0600 -2.0160 0.9800
2.3607 -3.9787 -2.0163 0.9800
2.5014 -3.8923 -2.0164 0.9800
2.6390 -3.8008 -2.0166 0.9800
2.7731 -3.7044 -2.0167 0.9800
2.9037 -3.6032 -2.0168 0.9800
3.0305 -3.4973 -2.0168 0.9800
3.3869 -3.1533 -2.0167 0.9800
3.4971 -3.0302 -2.0167 0.9800
3.7038 -2.7727 -2.0164 0.9800
3.8001 -2.6384 -2.0162 0.9800
3.8914 -2.5008 -2.0160 0.9800
4.0588 -2.2163 -2.0154 0.9800
4.2703 -1.7688 -2.0144 0.9800
4.3298 -1.6149 -2.0140 0.9800
4.4320 -1.3013 -2.0131 0.9800
4.4745 -1.1420 -2.0126 0.9801
4.5421 -0.8195 -2.0115 0.9801
4.5672 -0.6567 -2.0109 0.9801
4.5996 -0.3290 -2.0097 0.9801
4.6069 -0.1645 -2.0090 0.9801
-1.2447 0.0000 -0.5761 0.9945
-1.2261 -0.1318 -0.5708 0.9946
-1.2124 -0.1743 -0.5670 0.9946
-1.1790 -0.2565 -0.5585 0.9947
-1.1574 -0.2954 -0.5529 0.9947
-1.1536 -0.3840 -0.5628 0.9947
-1.2017 -0.4482 -0.5937 0.9944
-1.2345 -0.5114 -0.6185 0.9941
-3.7638 -2.0552 -1.9850 0.9813
-3.5270 -2.4489 -1.9875 0.9813
-3.2492 -2.8155 -1.9901 0.9812
-3.1480 -2.9309 -1.9910 0.9812
-3.0427 -3.0427 -1.9918 0.9812
-2.9335 -3.1508 -1.9927 0.9812
-2.8204 -3.2549 -1.9936 0.9812
-2.7035 -3.3549 -1.9944 0.9812
-2.5832 -3.4507 -1.9953 0.9812
-2.4594 -3.5423 -1.9961 0.9812
-2.2023 -3.7118 -1.9978 0.9812
-1.9335 -3.8626 -1.9994 0.9811
-1.7951 -3.9308 -2.0003 0.9811
-1.5113 -4.0520 -2.0018 0.9811
-1.3662 -4.1050 -2.0026 0.9811
-1.2193 -4.1527 -2.0034 0.9811
-0.9206 -4.2322 -2.0048 0.9811
0.1550 -4.3382 -2.0093 0.9810
0.4643 -4.3184 -2.0104 0.9810
0.6183 -4.3002 -2.0110 0.9810
0.7716 -4.2764 -2.0114 0.9810
1.0751 -4.2123 -2.0123 0.9810
1.2251 -4.1721 -2.0127 0.9810
1.6649 -4.0193 -2.0138 0.9810
1.8075 -3.9579 -2.0141 0.9810
2.0858 -3.8198 -2.0145 0.9810
2.3534 -3.6619 -2.0149 0.9810
2.4828 -3.5758 -2.0151 0.9810
2.6089 -3.4851 -2.0152 0.9810
3.2901 -2.8509 -2.0151 0.9810
3.5752 -2.4823 -2.0147 0.9810
3.6612 -2.3529 -2.0145 0.9810
3.7424 -2.2204 -2.0142 0.9810
3.8187 -2.0852 -2.0140 0.9810
3.9565 -1.8069 -2.0133 0.9810
4.0178 -1.6642 -2.0130 0.9810
4.1246 -1.3728 -2.0122 0.9810
4.1701 -1.2244 -2.0118 0.9810
4.2101 -1.0746 -2.0113 0.9810
4.2448 -0.9234 -2.0108 0.9810
4.2739 -0.7711 -2.0103 0.9810
4.2976 -0.6179 -2.0097 0.9810
4.3157 -0.4640 -2.0092 0.9810
4.3282 -0.3096 -2.0086 0.9811
4.3352 -0.1548 -2.0080 0.9811
-1.0769 -0.0770 -0.5296 0.9952
-1.0705 -0.1151 -0.5281 0.9952
-1.0611 -0.1526 -0.5258 0.9952
-1.0307 -0.2631 -0.5218 0.9953
-1.0025 -0.3337 -0.5183 0.9953
-1.0290 -0.4262 -0.5463 0.9951
-1.0588 -0.5300 -0.5808 0.9947
-3.4822 -2.0661 -1.9861 0.9821
-3.3286 -2.3111 -1.9877 0.9821
-3.2453 -2.4294 -1.9885 0.9821
-2.9707 -2.7658 -1.9910 0.9821
-2.4373 -3.2559 -1.9950 0.9820
-2.2006 -3.4242 -1.9966 0.9820
-1.8241 -3.6441 -1.9990 0.9820
-1.6935 -3.7083 -1.9997 0.9820
-1.4257 -3.8225 -2.0012 0.9820
-1.2888 -3.8724 -2.0019 0.9820
-1.1502 -3.9173 -2.0026 0.9820
-0.4371 -4.0660 -2.0060 0.9819
0.0000 -4.0931 -2.0077 0.9819
0.5831 -4.0556 -2.0098 0.9819
0.8713 -4.0054 -2.0107 0.9819
1.4335 -3.8434 -2.0122 0.9819
1.5700 -3.7904 -2.0125 0.9819
1.7046 -3.7325 -2.0127 0.9819
1.9669 -3.6022 -2.0132 0.9819
2.2193 -3.4532 -2.0135 0.9819
2.3413 -3.3721 -2.0137 0.9819
2.4602 -3.2865 -2.0138 0.9819
2.5761 -3.1967 -2.0138 0.9819
2.6886 -3.1028 -2.0139 0.9819
2.7976 -3.0049 -2.0139 0.9819
3.0048 -2.7975 -2.0138 0.9819
3.1026 -2.6884 -2.0137 0.9819
3.1964 -2.5758 -2.0136 0.9819
3.2861 -2.4599 -2.0135 0.9819
3.3715 -2.3409 -2.0133 0.9819
3.4525 -2.2188 -2.0131 0.9819
3.6012 -1.9664 -2.0127 0.9819
3.6686 -1.8363 -2.0124 0.9819
3.7312 -1.7040 -2.0121 0.9819
3.7890 -1.5695 -2.0117 0.9819
3.8419 -1.4330 -2.0114 0.9819
3.8899 -1.2947 -2.0110 0.9819
3.9328 -1.1548 -2.0106 0.9819
3.9706 -1.0134 -2.0101 0.9819
4.0704 -0.4376 -2.0081 0.9819
4.0889 -0.1460 -2.0070 0.9819
-0.9893 -0.0353 -0.5135 0.9955
-0.9873 -0.0706 -0.5135 0.9955
-0.9838 -0.1058 -0.5133 0.9956
-0.9715 -0.1753 -0.5121 0.9956
-0.9524 -0.2431 -0.5099 0.9956
-0.9404 -0.2761 -0.5085 0.9956
-0.9268 -0.3085 -0.5067 0.9956
-0.9416 -0.4713 -0.5463 0.9953
-3.2223 -2.0709 -1.9871 0.9829
-3.0687 -2.2972 -1.9887 0.9829
-2.8993 -2.5122 -1.9902 0.9829
-2.7148 -2.7148 -1.9917 0.9828
-2.6171 -2.8110 -1.9925 0.9828
-2.4118 -2.9929 -1.9940 0.9828
-2.1938 -3.1597 -1.9955 0.9828
-2.0804 -3.2372 -1.9963 0.9828
-1.9643 -3.3106 -1.9970 0.9828
-1.8456 -3.3799 -1.9978 0.9828
-1.7244 -3.4449 -1.9985 0.9828
-1.6009 -3.5055 -1.9992 0.9828
-1.4753 -3.5616 -1.9999 0.9828
-1.3477 -3.6133 -2.0006 0.9828
-1.2183 -3.6603 -2.0013 0.9828
-0.9547 -3.7404 -2.0027 0.9828
-0.8208 -3.7733 -2.0033 0.9827
-0.5499 -3.8246 -2.0045 0.9827
-0.4132 -3.8430 -2.0051 0.9827
-0.2758 -3.8564 -2.0057 0.9827
0.0000 -3.8683 -2.0068 0.9827
0.2761 -3.8604 -2.0078 0.9827
0.5511 -3.8327 -2.0088 0.9827
0.8234 -3.7852 -2.0096 0.9827
1.2240 -3.6775 -2.0107 0.9827
1.3547 -3.6320 -2.0110 0.9827
1.4836 -3.5818 -2.0113 0.9827
1.7358 -3.4677 -2.0118 0.9827
1.9792 -3.3357 -2.0121 0.9827
2.6436 -2.8394 -2.0126 0.9827
2.8393 -2.6435 -2.0126 0.9827
3.0204 -2.4340 -2.0124 0.9827
3.1859 -2.2120 -2.0121 0.9827
3.2625 -2.0967 -2.0119 0.9827
3.4667 -1.7353 -2.0112 0.9827
3.5259 -1.6102 -2.0109 0.9827
3.6306 -1.3542 -2.0102 0.9827
3.7834 -0.8230 -2.0086 0.9827
3.8094 -0.6873 -2.0082 0.9827
3.8306 -0.5508 -2.0077 0.9827
3.8469 -0.4136 -2.0072 0.9827
3.8582 -0.2759 -2.0066 0.9827
-0.9182 0.0000 -0.5029 0.9958
-0.9179 -0.0328 -0.5031 0.9958
-0.9127 -0.0981 -0.5028 0.9958
-0.9077 -0.1305 -0.5022 0.9958
-0.9011 -0.1626 -0.5015 0.9958
-0.8603 -0.2863 -0.4966 0.9959
-0.8465 -0.3157 -0.4948 0.9959
-0.8506 -0.3884 -0.5122 0.9957
-0.8516 -0.4263 -0.5216 0.9957
-0.8507 -0.4645 -0.5309 0.9956
-0.8524 -0.5057 -0.5429 0.9955
-2.6605 -2.4770 -1.9910 0.9836
-2.4788 -2.6625 -1.9924 0.9835
-2.3831 -2.7502 -1.9931 0.9835
-2.1824 -2.9154 -1.9946 0.9835
-1.9703 -3.0658 -1.9960 0.9835
-1.8602 -3.1353 -1.9967 0.9835
-1.7478 -3.2008 -1.9974 0.9835
-1.6330 -3.2623 -1.9981 0.9835
-1.0295 -3.5062 -2.0014 0.9835
-0.6494 -3.5994 -2.0032 0.9835
-0.5207 -3.6213 -2.0038 0.9835
-0.2611 -3.6513 -2.0049 0.9834
0.2614 -3.6549 -2.0069 0.9834
0.7796 -3.5835 -2.0086 0.9834
1.0336 -3.5200 -2.0093 0.9834
1.1587 -3.4814 -2.0096 0.9834
1.2824 -3.4383 -2.0099 0.9834
1.4045 -3.3908 -2.0102 0.9834
1.5249 -3.3389 -2.0104 0.9834
1.6432 -3.2827 -2.0106 0.9834
1.7595 -3.2223 -2.0108 0.9834
1.8736 -3.1577 -2.0110 0.9834
1.9852 -3.0891 -2.0111 0.9834
2.0943 -3.0164 -2.0113 0.9834
2.5025 -2.6879 -2.0115 0.9834
2.5969 -2.5968 -2.0114 0.9834
2.7753 -2.4048 -2.0113 0.9834
2.8593 -2.3041 -2.0112 0.9834
2.9395 -2.2005 -2.0111 0.9834
3.0885 -1.9849 -2.0108 0.9834
3.4371 -1.2820 -2.0092 0.9834
3.5525 -0.9067 -2.0081 0.9834
3.6421 -0.3916 -2.0063 0.9834
-0.8550 0.0000 -0.4936 0.9961
-0.8530 -0.0610 -0.4938 0.9961
-0.8393 -0.1514 -0.4924 0.9961
-0.8230 -0.2100 -0.4904 0.9961
-0.8014 -0.2667 -0.4876 0.9961
-0.7796 -0.3229 -0.4872 0.9961
-0.7809 -0.3566 -0.4957 0.9960
-0.7696 -0.4946 -0.5282 0.9958
-0.7634 -0.5300 -0.5366 0.9957
-2.6832 -2.1623 -1.9896 0.9842
-2.6052 -2.2575 -1.9903 0.9842
-2.5239 -2.3498 -1.9909 0.9842
-2.4392 -2.4393 -1.9916 0.9842
-2.3514 -2.5256 -1.9923 0.9842
-2.2606 -2.6089 -1.9930 0.9842
-2.1668 -2.6888 -1.9937 0.9842
-2.0701 -2.7654 -1.9944 0.9842
-1.9708 -2.8385 -1.9951 0.9842
-1.7645 -2.9738 -1.9964 0.9842
-1.4379 -3.1485 -1.9984 0.9841
-1.2103 -3.2451 -1.9996 0.9841
-1.0941 -3.2872 -2.0003 0.9841
-0.7371 -3.3884 -2.0020 0.9841
-0.2476 -3.4625 -2.0042 0.9841
-0.1239 -3.4700 -2.0047 0.9841
0.0000 -3.4731 -2.0052 0.9841
0.2479 -3.4658 -2.0061 0.9841
0.3715 -3.4555 -2.0065 0.9841
0.4947 -3.4407 -2.0069 0.9841
0.7392 -3.3979 -2.0077 0.9841
0.9800 -3.3377 -2.0084 0.9841
1.2160 -3.2602 -2.0089 0.9841
1.4458 -3.1659 -2.0094 0.9841
1.7764 -2.9940 -2.0100 0.9840
1.8823 -2.9289 -2.0101 0.9840
1.9857 -2.8600 -2.0102 0.9840
2.0866 -2.7874 -2.0103 0.9840
2.6314 -2.2801 -2.0103 0.9840
2.9934 -1.7761 -2.0096 0.9841
3.0546 -1.6679 -2.0093 0.9841
3.1650 -1.4454 -2.0088 0.9841
3.2141 -1.3313 -2.0086 0.9841
3.2591 -1.2156 -2.0083 0.9841
3.3686 -0.8598 -2.0072 0.9841
3.3965 -0.7389 -2.0068 0.9841
3.4200 -0.6170 -2.0064 0.9841
3.4391 -0.4945 -2.0060 0.9841
3.4537 -0.3713 -2.0055 0.9841
