ply
format ascii 1.0
element vertex 707
property float32 x
property float32 y
property float32 z
property float32 I
end_header
-9.3539 -0.6690 -1.9823 0.9624
-9.3362 -1.0038 -1.9849 0.9623
-9.3067 -1.3381 -1.9875 0.9623
-9.1464 -2.3345 -1.9954 0.9621
-9.0693 -2.6630 -1.9980 0.9621
-8.9803 -2.9889 -2.0006 0.9620
-8.7672 -3.6315 -2.0059 0.9619
-8.6432 -3.9472 -2.0085 0.9619
-8.5078 -4.2587 -2.0111 0.9618
-8.3611 -4.5655 -2.0137 0.9618
-8.2033 -4.8672 -2.0163 0.9618
-7.8548 -5.4537 -2.0213 0.9617
-7.6645 -5.7376 -2.0238 0.9616
-7.4638 -6.0147 -2.0262 0.9616
-6.8018 -6.8018 -2.0333 0.9614
-5.7894 -7.7337 -2.0421 0.9613
-5.2332 -8.1431 -2.0461 0.9612
-4.9439 -8.3325 -2.0480 0.9612
-4.0353 -8.8360 -2.0533 0.9611
-3.7203 -8.9815 -2.0549 0.9610
-2.4108 -9.4454 -2.0606 0.9609
-1.7328 -9.6041 -2.0629 0.9609
-1.3896 -9.6645 -2.0639 0.9609
-0.6971 -9.7473 -2.0656 0.9608
-0.3489 -9.7694 -2.0664 0.9608
0.0000 -9.7786 -2.0670 0.9608
0.6979 -9.7582 -2.0680 0.9608
3.7427 -9.0355 -2.0673 0.9608
4.3751 -8.7402 -2.0660 0.9608
4.9835 -8.3992 -2.0644 0.9609
5.2776 -8.2121 -2.0634 0.9609
5.5645 -8.0144 -2.0624 0.9609
6.3779 -7.3604 -2.0587 0.9610
6.6320 -7.1233 -2.0573 0.9610
6.8770 -6.8770 -2.0558 0.9610
7.1126 -6.6221 -2.0542 0.9610
7.3386 -6.3589 -2.0526 0.9611
7.5545 -6.0878 -2.0508 0.9611
7.7601 -5.8091 -2.0490 0.9611
7.9552 -5.5234 -2.0472 0.9612
8.3129 -4.9323 -2.0432 0.9613
8.4751 -4.6277 -2.0411 0.9613
8.7650 -4.0028 -2.0368 0.9614
8.8925 -3.6834 -2.0346 0.9614
9.1118 -3.0327 -2.0299 0.9615
9.2034 -2.7024 -2.0276 0.9615
9.3502 -2.0340 -2.0227 0.9616
9.4785 -1.0190 -2.0151 0.9618
9.4967 -0.6792 -2.0125 0.9618
-8.4190 -0.0000 -1.9787 0.9660
-8.4234 -0.3008 -1.9809 0.9660
-8.4171 -0.6020 -1.9833 0.9659
-8.4001 -0.9031 -1.9856 0.9659
-8.1545 -2.3944 -1.9974 0.9657
-7.9818 -2.9771 -2.0021 0.9656
-7.6446 -3.8266 -2.0092 0.9655
-7.2165 -4.6377 -2.0161 0.9654
-7.0542 -4.8978 -2.0183 0.9653
-6.8825 -5.1521 -2.0206 0.9653
-6.7014 -5.4004 -2.0227 0.9653
-6.1049 -6.1049 -2.0291 0.9651
-5.4332 -6.7422 -2.0350 0.9650
-5.1939 -6.9383 -2.0369 0.9650
-4.9474 -7.1256 -2.0388 0.9650
-4.4340 -7.4731 -2.0422 0.9649
-4.1678 -7.6328 -2.0439 0.9649
-3.8957 -7.7827 -2.0455 0.9649
-3.6182 -7.9227 -2.0470 0.9648
-3.3354 -8.0524 -2.0484 0.9648
-2.4602 -8.3788 -2.0523 0.9648
-1.8582 -8.5421 -2.0546 0.9647
-0.9357 -8.7033 -2.0573 0.9647
-0.3126 -8.7538 -2.0586 0.9646
0.6253 -8.7430 -2.0601 0.9646
0.9371 -8.7164 -2.0604 0.9646
1.2478 -8.6783 -2.0606 0.9646
1.8638 -8.5677 -2.0607 0.9646
2.4700 -8.4120 -2.0605 0.9646
2.7683 -8.3175 -2.0602 0.9646
3.0630 -8.2121 -2.0599 0.9646
3.3534 -8.0958 -2.0595 0.9646
3.6393 -7.9690 -2.0590 0.9646
3.9203 -7.8317 -2.0584 0.9647
4.1959 -7.6843 -2.0577 0.9647
4.9871 -7.1827 -2.0551 0.9647
5.2376 -6.9967 -2.0541 0.9647
5.7171 -6.5978 -2.0518 0.9648
6.1654 -6.1654 -2.0492 0.9648
6.3771 -5.9373 -2.0478 0.9648
6.5802 -5.7018 -2.0463 0.9649
6.7744 -5.4592 -2.0448 0.9649
6.9595 -5.2098 -2.0432 0.9649
7.3012 -4.6922 -2.0397 0.9650
7.4574 -4.4247 -2.0379 0.9650
7.6036 -4.1519 -2.0361 0.9650
7.8655 -3.5920 -2.0322 0.9651
7.9808 -3.3058 -2.0302 0.9651
8.0855 -3.0157 -2.0282 0.9652
8.2628 -2.4262 -2.0239 0.9652
8.3352 -2.1274 -2.0218 0.9653
8.3966 -1.8266 -2.0196 0.9653
8.4866 -1.2202 -2.0151 0.9654
8.5151 -0.9154 -2.0128 0.9654
8.5325 -0.6102 -2.0105 0.9655
8.5390 -0.3050 -2.0081 0.9655
-7.6272 -0.8200 -1.9862 0.9688
-7.6012 -1.0929 -1.9883 0.9688
-7.4001 -2.1729 -1.9969 0.9686
-7.3257 -2.4382 -1.9991 0.9686
-7.0457 -3.2176 -2.0055 0.9685
-6.9336 -3.4708 -2.0076 0.9685
-6.8125 -3.7199 -2.0097 0.9684
-6.6823 -3.9648 -2.0118 0.9684
-6.3954 -4.4404 -2.0159 0.9683
-6.2391 -4.6705 -2.0179 0.9683
-6.0744 -4.8950 -2.0199 0.9683
-5.5320 -5.5320 -2.0256 0.9682
-5.1324 -5.9232 -2.0293 0.9681
-4.9220 -6.1078 -2.0310 0.9681
-4.7048 -6.2849 -2.0327 0.9681
-4.4811 -6.4541 -2.0344 0.9681
-3.7741 -6.9118 -2.0390 0.9680
-3.5275 -7.0470 -2.0404 0.9680
-3.0197 -7.2903 -2.0431 0.9679
-2.7593 -7.3979 -2.0443 0.9679
-2.4949 -7.4960 -2.0455 0.9679
-2.2270 -7.5844 -2.0466 0.9679
-1.9558 -7.6629 -2.0477 0.9679
-1.4055 -7.7899 -2.0495 0.9678
-1.1270 -7.8383 -2.0503 0.9678
-0.8468 -7.8763 -2.0511 0.9678
-0.5653 -7.9041 -2.0517 0.9678
0.0000 -7.9285 -2.0528 0.9678
0.2831 -7.9251 -2.0533 0.9678
0.8480 -7.8871 -2.0539 0.9678
1.1290 -7.8525 -2.0541 0.9678
1.4086 -7.8076 -2.0542 0.9678
2.2350 -7.6116 -2.0540 0.9678
3.2933 -7.2112 -2.0526 0.9678
4.2805 -6.6606 -2.0500 0.9678
4.5136 -6.5009 -2.0491 0.9678
4.9613 -6.1565 -2.0472 0.9679
5.5816 -5.5816 -2.0438 0.9679
5.7737 -5.3755 -2.0425 0.9679
5.9580 -5.1626 -2.0412 0.9680
6.4619 -4.4865 -2.0368 0.9680
7.0118 -3.5099 -2.0302 0.9681
7.2315 -2.9954 -2.0266 0.9682
7.4892 -2.1990 -2.0210 0.9683
7.5556 -1.9284 -2.0190 0.9683
7.6120 -1.6559 -2.0170 0.9683
7.6952 -1.1064 -2.0129 0.9684
7.7218 -0.8302 -2.0108 0.9684
7.7385 -0.5535 -2.0088 0.9685
7.7452 -0.2766 -2.0066 0.9685
-6.9931 -0.5002 -1.9848 0.9713
-6.9532 -0.9997 -1.9887 0.9712
-6.8267 -1.7424 -1.9945 0.9711
-6.7668 -1.9869 -1.9965 0.9711
-6.6208 -2.4694 -2.0004 0.9711
-6.4403 -2.9412 -2.0043 0.9710
-6.3373 -3.1722 -2.0063 0.9710
-6.2260 -3.3997 -2.0082 0.9709
-6.1065 -3.6232 -2.0101 0.9709
-5.3906 -4.6710 -2.0193 0.9708
-5.2250 -4.8647 -2.0210 0.9708
-5.0523 -5.0523 -2.0227 0.9707
-4.6867 -5.4087 -2.0260 0.9707
-4.2956 -5.7382 -2.0292 0.9706
-3.8809 -6.0388 -2.0321 0.9706
-3.4449 -6.3089 -2.0349 0.9706
-3.2196 -6.4319 -2.0362 0.9705
-2.5180 -6.7510 -2.0398 0.9705
-2.2766 -6.8402 -2.0409 0.9705
-2.0320 -6.9205 -2.0419 0.9705
0.2582 -7.2294 -2.0479 0.9704
1.2849 -7.1219 -2.0487 0.9704
1.5383 -7.0716 -2.0487 0.9704
1.7897 -7.0120 -2.0487 0.9704
2.2850 -6.8653 -2.0483 0.9704
2.7681 -6.6828 -2.0477 0.9704
4.1181 -5.9312 -2.0441 0.9704
4.5269 -5.6175 -2.0424 0.9705
5.2693 -4.9059 -2.0381 0.9705
6.4026 -3.2049 -2.0269 0.9707
6.5077 -2.9720 -2.0253 0.9707
6.9546 -1.5129 -2.0148 0.9708
7.0726 -0.5058 -2.0073 0.9710
-6.4449 -0.2302 -1.9836 0.9734
-6.4383 -0.4605 -1.9853 0.9733
-6.4006 -0.9203 -1.9889 0.9733
-6.3694 -1.1492 -1.9907 0.9733
-6.3301 -1.3770 -1.9925 0.9733
-6.2826 -1.6035 -1.9943 0.9732
-6.2270 -1.8284 -1.9962 0.9732
-5.9247 -2.7057 -2.0034 0.9731
-5.6163 -3.3323 -2.0086 0.9730
-5.4986 -3.5337 -2.0104 0.9730
-5.1021 -4.1116 -2.0154 0.9730
-4.3078 -4.9714 -2.0233 0.9728
-4.1306 -5.1257 -2.0248 0.9728
-3.7596 -5.4148 -2.0276 0.9728
-3.1653 -5.7967 -2.0314 0.9727
-2.7468 -6.0147 -2.0338 0.9727
-2.3131 -6.2018 -2.0359 0.9727
-2.0913 -6.2834 -2.0369 0.9727
-1.8666 -6.3569 -2.0378 0.9727
-1.6392 -6.4222 -2.0387 0.9726
-1.1777 -6.5278 -2.0402 0.9726
-0.4736 -6.6223 -2.0421 0.9726
-0.2370 -6.6365 -2.0426 0.9726
0.7103 -6.6069 -2.0438 0.9726
1.1800 -6.5401 -2.0441 0.9726
1.4127 -6.4939 -2.0441 0.9726
1.6435 -6.4392 -2.0441 0.9726
2.0984 -6.3046 -2.0438 0.9726
2.3218 -6.2250 -2.0435 0.9726
2.9722 -5.9377 -2.0423 0.9726
3.1815 -5.8264 -2.0418 0.9726
3.5868 -5.5812 -2.0406 0.9726
3.7824 -5.4477 -2.0399 0.9726
4.1582 -5.1600 -2.0383 0.9726
4.3378 -5.0061 -2.0374 0.9727
4.6794 -4.6794 -2.0354 0.9727
4.8409 -4.5070 -2.0344 0.9727
5.1443 -4.1455 -2.0321 0.9727
5.4203 -3.7634 -2.0296 0.9728
5.5476 -3.5652 -2.0283 0.9728
5.6675 -3.3627 -2.0269 0.9728
5.7799 -3.1561 -2.0255 0.9728
5.9817 -2.7317 -2.0226 0.9729
6.3467 -1.6199 -2.0147 0.9730
6.4671 -0.9298 -2.0096 0.9730
6.4906 -0.6978 -2.0079 0.9731
6.5056 -0.4653 -2.0061 0.9731
-5.9643 0.0000 -1.9826 0.9752
-5.9590 -0.4262 -1.9859 0.9751
-5.9449 -0.6392 -1.9875 0.9751
-5.8940 -1.0634 -1.9908 0.9751
-5.8572 -1.2742 -1.9925 0.9750
-5.7018 -1.8977 -1.9975 0.9750
-5.6351 -2.1018 -1.9992 0.9750
-5.5611 -2.3035 -2.0009 0.9749
-5.2960 -2.8919 -2.0058 0.9749
-4.8459 -3.6276 -2.0121 0.9748
-4.5817 -3.9700 -2.0152 0.9748
-4.4403 -4.1341 -2.0167 0.9748
-4.2930 -4.2930 -2.0181 0.9747
-4.1400 -4.4466 -2.0195 0.9747
-2.7330 -5.4598 -2.0296 0.9746
-2.3389 -5.6466 -2.0316 0.9746
-2.1369 -5.7292 -2.0326 0.9746
-1.7242 -5.8721 -2.0343 0.9745
-1.5141 -5.9322 -2.0351 0.9745
-1.3019 -5.9847 -2.0359 0.9745
-1.0878 -6.0293 -2.0365 0.9745
-0.8722 -6.0662 -2.0372 0.9745
-0.6553 -6.0952 -2.0377 0.9745
-0.2189 -6.1293 -2.0387 0.9745
0.2190 -6.1314 -2.0394 0.9745
0.8734 -6.0747 -2.0400 0.9745
1.0897 -6.0399 -2.0401 0.9745
1.3046 -5.9972 -2.0401 0.9745
2.1443 -5.7489 -2.0396 0.9745
2.3477 -5.6679 -2.0393 0.9745
2.5481 -5.5795 -2.0389 0.9745
2.7451 -5.4839 -2.0385 0.9745
2.9384 -5.3812 -2.0380 0.9745
3.1277 -5.2715 -2.0375 0.9745
3.3129 -5.1550 -2.0369 0.9745
3.4937 -5.0318 -2.0362 0.9745
3.6698 -4.9022 -2.0355 0.9745
3.8410 -4.7663 -2.0348 0.9745
4.1677 -4.4765 -2.0331 0.9745
4.3229 -4.3229 -2.0321 0.9746
4.7530 -3.8302 -2.0291 0.9746
4.8839 -3.6561 -2.0279 0.9746
5.0084 -3.4774 -2.0268 0.9746
5.1263 -3.2944 -2.0256 0.9746
5.3415 -2.9167 -2.0230 0.9747
5.5286 -2.5248 -2.0203 0.9747
5.7545 -1.9153 -2.0160 0.9748
5.9504 -1.0736 -2.0099 0.9748
5.9802 -0.8598 -2.0083 0.9749
6.0166 -0.4303 -2.0051 0.9749
-5.5466 -0.1981 -1.9848 0.9767
-5.5268 -0.5942 -1.9878 0.9767
-5.4789 -0.9885 -1.9909 0.9766
-5.4028 -1.3790 -1.9940 0.9766
-5.2989 -1.7637 -1.9971 0.9766
-5.0918 -2.3254 -2.0018 0.9765
-4.8250 -2.8628 -2.0063 0.9764
-4.7233 -3.0354 -2.0078 0.9764
-4.5012 -3.3696 -2.0107 0.9764
-4.2553 -3.6873 -2.0135 0.9764
-3.5446 -4.3986 -2.0201 0.9763
-3.2256 -4.6457 -2.0225 0.9763
-2.7149 -4.9721 -2.0258 0.9762
-2.3556 -5.1582 -2.0278 0.9762
-1.9834 -5.3178 -2.0297 0.9762
-1.7931 -5.3875 -2.0305 0.9762
-1.2083 -5.5543 -2.0327 0.9761
-1.0096 -5.5957 -2.0334 0.9761
-0.4059 -5.6759 -2.0349 0.9761
0.0000 -5.6926 -2.0357 0.9761
0.2032 -5.6898 -2.0360 0.9761
0.4062 -5.6796 -2.0363 0.9761
0.6087 -5.6620 -2.0365 0.9761
0.8105 -5.6371 -2.0366 0.9761
1.2106 -5.5651 -2.0367 0.9761
1.4085 -5.5183 -2.0366 0.9761
1.6044 -5.4642 -2.0365 0.9761
2.1787 -5.2597 -2.0359 0.9761
2.5474 -5.0891 -2.0352 0.9761
2.7269 -4.9939 -2.0347 0.9761
2.9026 -4.8921 -2.0342 0.9761
3.2424 -4.6700 -2.0331 0.9761
3.4059 -4.5498 -2.0324 0.9761
3.5649 -4.4238 -2.0317 0.9762
3.7191 -4.2921 -2.0309 0.9762
3.8684 -4.1549 -2.0301 0.9762
4.0125 -4.0125 -2.0293 0.9762
4.1513 -3.8650 -2.0284 0.9762
4.2846 -3.7127 -2.0274 0.9762
4.4122 -3.5556 -2.0264 0.9762
4.5340 -3.3941 -2.0254 0.9762
4.6498 -3.2284 -2.0243 0.9762
4.8627 -2.8852 -2.0220 0.9763
4.9597 -2.7082 -2.0208 0.9763
5.0501 -2.5279 -2.0196 0.9763
5.2109 -2.1584 -2.0170 0.9763
5.3445 -1.7788 -2.0143 0.9764
5.4502 -1.3911 -2.0115 0.9764
5.5276 -0.9973 -2.0086 0.9764
5.5556 -0.7987 -2.0071 0.9764
5.5900 -0.3998 -2.0041 0.9765
-5.1768 0.0000 -1.9838 0.9781
-5.1582 -0.5546 -1.9881 0.9780
-5.1129 -0.9225 -1.9910 0.9780
-5.0414 -1.2867 -1.9939 0.9780
-4.9959 -1.4669 -1.9954 0.9779
-4.9440 -1.6455 -1.9968 0.9779
-4.8856 -1.8223 -1.9983 0.9779
-4.8210 -1.9969 -1.9997 0.9779
-4.7500 -2.1693 -2.0011 0.9779
-4.5897 -2.5062 -2.0040 0.9778
-4.4053 -2.8311 -2.0068 0.9778
-4.0856 -3.2924 -2.0108 0.9778
-3.9681 -3.4384 -2.0121 0.9778
-3.5845 -3.8500 -2.0159 0.9777
-3.4468 -3.9779 -2.0171 0.9777
-2.8520 -4.4378 -2.0215 0.9777
-2.6931 -4.5390 -2.0226 0.9776
-2.5306 -4.6345 -2.0236 0.9776
-1.3096 -5.1310 -2.0293 0.9776
-0.1893 -5.3001 -2.0324 0.9775
0.3785 -5.2922 -2.0333 0.9775
0.7552 -5.2525 -2.0336 0.9775
1.3124 -5.1418 -2.0336 0.9775
1.4950 -5.0914 -2.0335 0.9775
1.8541 -4.9710 -2.0332 0.9775
2.0301 -4.9010 -2.0329 0.9775
2.2034 -4.8247 -2.0326 0.9775
2.3738 -4.7421 -2.0322 0.9775
2.7048 -4.5588 -2.0314 0.9775
3.3222 -4.1226 -2.0290 0.9776
3.4661 -4.0000 -2.0283 0.9776
3.6053 -3.8723 -2.0275 0.9776
3.9936 -3.4604 -2.0250 0.9776
4.1126 -3.3142 -2.0241 0.9776
4.5332 -2.6897 -2.0200 0.9777
4.7082 -2.3568 -2.0177 0.9777
4.7866 -2.1859 -2.0165 0.9777
5.0364 -1.4788 -2.0115 0.9778
5.1223 -1.1143 -2.0089 0.9778
5.1553 -0.9301 -2.0075 0.9778
5.2013 -0.5592 -2.0047 0.9778
5.2143 -0.3729 -2.0033 0.9779
-4.8304 -0.5193 -1.9884 0.9792
-4.8121 -0.6919 -1.9897 0.9792
-4.7876 -0.8638 -1.9911 0.9792
-4.7569 -1.0348 -1.9924 0.9792
-4.7202 -1.2047 -1.9938 0.9792
-4.6774 -1.3734 -1.9952 0.9792
-4.5129 -1.8693 -1.9992 0.9791
-4.2958 -2.3457 -2.0032 0.9791
-4.2121 -2.4992 -2.0045 0.9791
-3.8232 -3.0809 -2.0096 0.9790
-3.5980 -3.3499 -2.0120 0.9790
-3.4782 -3.4782 -2.0132 0.9790
-3.2248 -3.7217 -2.0155 0.9789
-2.9543 -3.9464 -2.0176 0.9789
-2.8130 -4.0514 -2.0186 0.9789
-2.6679 -4.1513 -2.0196 0.9789
-2.3671 -4.3351 -2.0215 0.9789
-2.2119 -4.4188 -2.0224 0.9789
-2.0536 -4.4968 -2.0233 0.9789
-1.8926 -4.5691 -2.0241 0.9789
-1.5629 -4.6959 -2.0256 0.9788
-1.3948 -4.7503 -2.0263 0.9788
-1.2248 -4.7986 -2.0269 0.9788
-0.8798 -4.8765 -2.0281 0.9788
-0.7054 -4.9060 -2.0286 0.9788
0.0000 -4.9602 -2.0301 0.9788
0.1771 -4.9577 -2.0304 0.9788
0.3540 -4.9488 -2.0306 0.9788
0.5304 -4.9334 -2.0307 0.9788
0.7062 -4.9116 -2.0309 0.9788
0.8811 -4.8834 -2.0309 0.9788
1.0548 -4.8489 -2.0309 0.9788
1.2272 -4.8080 -2.0309 0.9788
1.8983 -4.5830 -2.0303 0.9788
2.2008 -4.3965 -2.0122 0.9790
2.3599 -4.3218 -2.0153 0.9789
2.5295 -4.2632 -2.0288 0.9788
2.6794 -4.1692 -2.0283 0.9788
2.8258 -4.0698 -2.0278 0.9788
3.1071 -3.8556 -2.0266 0.9788
3.2416 -3.7410 -2.0260 0.9788
3.3719 -3.6217 -2.0253 0.9788
3.4978 -3.4977 -2.0245 0.9788
3.8469 -3.1000 -2.0220 0.9789
3.9533 -2.9594 -2.0211 0.9789
4.0545 -2.8151 -2.0202 0.9789
4.1504 -2.6673 -2.0192 0.9789
4.2408 -2.5162 -2.0182 0.9789
4.4049 -2.2049 -2.0161 0.9789
4.4783 -2.0452 -2.0150 0.9789
4.5459 -1.8830 -2.0138 0.9790
4.6076 -1.7185 -2.0127 0.9790
4.8682 -0.5234 -2.0039 0.9791
4.8867 -0.1745 -2.0013 0.9791
-1.4601 0.0000 -0.6363 0.9936
-1.4571 -0.0520 -0.6354 0.9937
-1.4490 -0.1036 -0.6331 0.9937
-1.4359 -0.1544 -0.6294 0.9937
-1.3688 -0.2978 -0.6105 0.9939
-1.3400 -0.3420 -0.6027 0.9940
-1.5118 -0.5639 -0.7032 0.9930
-3.8702 -2.4872 -2.0050 0.9801
-3.4850 -3.0197 -2.0097 0.9801
-3.1474 -3.3805 -2.0130 0.9800
-3.0263 -3.4925 -2.0140 0.9800
-2.5033 -3.8952 -2.0179 0.9800
-2.0752 -4.1458 -2.0205 0.9800
-1.6220 -4.3488 -2.0228 0.9800
-1.4663 -4.4054 -2.0235 0.9799
-1.3085 -4.4564 -2.0242 0.9799
-1.1489 -4.5016 -2.0248 0.9799
-0.6617 -4.6021 -2.0263 0.9799
-0.4971 -4.6238 -2.0267 0.9799
0.0000 -4.6528 -2.0277 0.9799
0.1661 -4.6504 -2.0280 0.9799
0.3320 -4.6419 -2.0282 0.9799
0.4975 -4.6275 -2.0284 0.9799
0.6624 -4.6070 -2.0285 0.9799
0.8264 -4.5805 -2.0285 0.9799
1.1511 -4.5099 -2.0285 0.9799
1.6263 -4.3602 -2.0281 0.9799
2.0684 -4.1322 -2.0139 0.9800
2.2162 -4.0587 -2.0154 0.9800
2.3728 -3.9991 -2.0265 0.9799
2.7846 -3.7198 -2.0251 0.9799
2.9148 -3.6170 -2.0245 0.9799
3.0411 -3.5096 -2.0239 0.9799
3.1634 -3.3977 -2.0232 0.9799
3.2815 -3.2815 -2.0225 0.9800
3.5046 -3.0367 -2.0210 0.9800
3.6093 -2.9086 -2.0202 0.9800
3.7092 -2.7767 -2.0193 0.9800
3.8043 -2.6414 -2.0184 0.9800
4.0591 -2.2165 -2.0156 0.9800
4.1336 -2.0691 -2.0146 0.9800
4.3766 -1.4567 -2.0103 0.9801
4.4233 -1.2988 -2.0092 0.9801
4.4995 -0.9788 -2.0068 0.9801
4.5524 -0.6545 -2.0044 0.9801
4.5701 -0.4912 -2.0032 0.9801
4.5819 -0.3277 -2.0020 0.9802
-1.2362 -0.0884 -0.5737 0.9946
-1.2124 -0.1743 -0.5670 0.9946
-1.1974 -0.2160 -0.5632 0.9947
-1.1790 -0.2565 -0.5585 0.9947
-1.1575 -0.2954 -0.5529 0.9947
-1.1536 -0.3840 -0.5628 0.9947
-1.2017 -0.4482 -0.5937 0.9944
-3.9294 -1.7945 -1.9996 0.9811
-3.6425 -2.3409 -2.0042 0.9811
-3.1776 -2.9585 -2.0097 0.9810
-2.8475 -3.2862 -2.0127 0.9810
-2.7297 -3.3873 -2.0137 0.9810
-2.6082 -3.4842 -2.0146 0.9810
-2.4833 -3.5767 -2.0155 0.9810
-1.9523 -3.9001 -2.0189 0.9810
-1.2308 -4.1918 -2.0223 0.9809
-1.0807 -4.2343 -2.0228 0.9809
-0.9292 -4.2712 -2.0233 0.9809
-0.7763 -4.3027 -2.0238 0.9809
-0.6224 -4.3286 -2.0243 0.9809
-0.4676 -4.3490 -2.0247 0.9809
0.9305 -4.2776 -2.0264 0.9809
1.2333 -4.2001 -2.0263 0.9809
1.3823 -4.1532 -2.0261 0.9809
1.5296 -4.1009 -2.0260 0.9809
1.8178 -3.9804 -2.0255 0.9809
2.2318 -3.7614 -2.0245 0.9809
2.3641 -3.6786 -2.0241 0.9809
2.4933 -3.5910 -2.0236 0.9809
2.6192 -3.4989 -2.0231 0.9809
2.8606 -3.3013 -2.0220 0.9809
2.9757 -3.1961 -2.0214 0.9809
3.0868 -3.0868 -2.0207 0.9809
3.4896 -2.6122 -2.0177 0.9810
3.7440 -2.2214 -2.0151 0.9810
3.8192 -2.0854 -2.0142 0.9810
4.0691 -1.5177 -2.0103 0.9810
4.1185 -1.3708 -2.0092 0.9810
4.3127 -0.3084 -2.0014 0.9811
4.3185 -0.1542 -2.0002 0.9811
-1.0817 0.0000 -0.5306 0.9952
-1.0803 -0.0386 -0.5302 0.9952
-1.0175 -0.2988 -0.5202 0.9953
-1.0290 -0.4262 -0.5463 0.9951
-1.0444 -0.4769 -0.5632 0.9949
-3.5810 -1.9554 -2.0014 0.9820
-3.5108 -2.0831 -2.0025 0.9820
-3.3568 -2.3307 -2.0046 0.9820
-3.1853 -2.5669 -2.0067 0.9819
-3.0932 -2.6803 -2.0077 0.9819
-2.9971 -2.7904 -2.0087 0.9819
-2.8970 -2.8970 -2.0097 0.9819
-2.7931 -3.0000 -2.0106 0.9819
-2.6855 -3.0992 -2.0116 0.9819
-2.3419 -3.3729 -2.0142 0.9819
-2.2209 -3.4558 -2.0150 0.9819
-1.8409 -3.6776 -2.0173 0.9818
-1.5749 -3.8022 -2.0187 0.9818
-1.3004 -3.9072 -2.0200 0.9818
-1.1605 -3.9523 -2.0205 0.9818
-1.0190 -3.9922 -2.0211 0.9818
-0.7319 -4.0567 -2.0220 0.9818
-0.4408 -4.1001 -2.0228 0.9818
-0.1472 -4.1225 -2.0235 0.9818
0.0000 -4.1256 -2.0237 0.9818
0.1473 -4.1234 -2.0239 0.9818
0.7328 -4.0614 -2.0244 0.9818
0.8773 -4.0327 -2.0244 0.9818
1.1627 -3.9596 -2.0243 0.9818
1.3032 -3.9154 -2.0242 0.9818
1.4420 -3.8661 -2.0240 0.9818
1.7138 -3.7526 -2.0236 0.9818
1.9765 -3.6197 -2.0230 0.9818
2.1041 -3.5462 -2.0226 0.9818
2.3507 -3.3857 -2.0218 0.9818
2.5850 -3.2078 -2.0208 0.9818
2.8057 -3.0135 -2.0197 0.9818
3.0116 -2.8039 -2.0184 0.9818
3.2017 -2.5801 -2.0170 0.9818
3.3751 -2.3433 -2.0155 0.9819
3.5307 -2.0949 -2.0138 0.9819
3.6017 -1.9667 -2.0130 0.9819
3.6680 -1.8361 -2.0121 0.9819
3.8378 -1.4314 -2.0092 0.9819
3.9263 -1.1528 -2.0072 0.9819
4.0208 -0.7254 -2.0041 0.9820
4.0579 -0.4363 -2.0020 0.9820
-0.9895 0.0000 -0.5133 0.9956
-0.9893 -0.0353 -0.5135 0.9955
-0.9873 -0.0706 -0.5135 0.9955
-0.9785 -0.1407 -0.5129 0.9956
-0.9628 -0.2094 -0.5112 0.9956
-0.9524 -0.2431 -0.5099 0.9956
-0.9268 -0.3085 -0.5067 0.9956
-0.9208 -0.3434 -0.5098 0.9956
-0.9326 -0.4259 -0.5319 0.9954
-3.3187 -1.9691 -2.0019 0.9828
-3.2479 -2.0873 -2.0029 0.9828
-3.1729 -2.2030 -2.0039 0.9827
-2.9235 -2.5333 -2.0068 0.9827
-2.6396 -2.8351 -2.0096 0.9827
-2.5379 -2.9288 -2.0105 0.9827
-2.4327 -3.0188 -2.0113 0.9827
-2.3244 -3.1050 -2.0122 0.9827
-2.0986 -3.2655 -2.0138 0.9827
-1.9815 -3.3396 -2.0145 0.9827
-1.6148 -3.5359 -2.0166 0.9826
-1.4880 -3.5925 -2.0172 0.9826
-1.3593 -3.6444 -2.0179 0.9826
-1.2287 -3.6916 -2.0184 0.9826
-1.0964 -3.7341 -2.0190 0.9826
-0.8276 -3.8046 -2.0199 0.9826
-0.6915 -3.8326 -2.0204 0.9826
-0.5543 -3.8556 -2.0208 0.9826
-0.2780 -3.8866 -2.0214 0.9826
-0.1391 -3.8946 -2.0217 0.9826
0.0000 -3.8975 -2.0220 0.9826
0.2781 -3.8883 -2.0223 0.9826
0.4167 -3.8762 -2.0225 0.9826
0.5548 -3.8590 -2.0226 0.9826
0.6922 -3.8368 -2.0226 0.9826
0.9642 -3.7776 -2.0226 0.9826
1.2311 -3.6989 -2.0224 0.9826
1.3623 -3.6524 -2.0223 0.9826
1.4916 -3.6011 -2.0221 0.9826
1.9878 -3.3503 -2.0210 0.9826
2.2209 -3.1987 -2.0202 0.9826
2.3331 -3.1167 -2.0197 0.9826
2.5483 -2.9408 -2.0187 0.9826
2.9373 -2.5452 -2.0163 0.9826
3.1892 -2.2143 -2.0142 0.9827
3.3365 -1.9796 -2.0126 0.9827
3.4036 -1.8585 -2.0118 0.9827
3.5781 -1.4821 -2.0092 0.9827
3.7755 -0.8213 -2.0045 0.9827
3.8005 -0.6857 -2.0035 0.9827
3.8515 -0.1375 -1.9993 0.9828
-0.9182 0.0000 -0.5029 0.9958
-0.9179 -0.0328 -0.5031 0.9958
-0.9011 -0.1626 -0.5015 0.9958
-0.8603 -0.2863 -0.4966 0.9959
-0.8506 -0.3884 -0.5122 0.9957
-0.8507 -0.4645 -0.5309 0.9956
-0.8524 -0.5057 -0.5428 0.9955
-3.0755 -1.9765 -2.0023 0.9835
-2.9294 -2.1929 -2.0042 0.9834
-2.8506 -2.2972 -2.0052 0.9834
-2.7681 -2.3985 -2.0061 0.9834
-2.3031 -2.8580 -2.0103 0.9834
-1.9867 -3.0913 -2.0126 0.9834
-1.7623 -3.2274 -2.0140 0.9834
-1.4085 -3.4005 -2.0159 0.9834
-1.0378 -3.5344 -2.0175 0.9833
-0.3942 -3.6662 -2.0196 0.9833
-0.2631 -3.6785 -2.0199 0.9833
-0.1316 -3.6860 -2.0201 0.9833
0.1317 -3.6868 -2.0206 0.9833
0.2632 -3.6800 -2.0207 0.9833
0.5251 -3.6523 -2.0209 0.9833
0.9125 -3.5753 -2.0210 0.9833
1.2893 -3.4567 -2.0207 0.9833
1.4117 -3.4082 -2.0205 0.9833
1.5323 -3.3553 -2.0203 0.9833
1.6509 -3.2980 -2.0200 0.9833
1.7673 -3.2366 -2.0197 0.9833
1.9930 -3.1012 -2.0191 0.9833
2.1020 -3.0275 -2.0187 0.9833
2.3117 -2.8686 -2.0178 0.9833
2.4120 -2.7836 -2.0173 0.9833
2.5091 -2.6950 -2.0168 0.9833
2.6030 -2.6030 -2.0162 0.9834
2.7804 -2.4093 -2.0150 0.9834
2.8637 -2.3077 -2.0144 0.9834
3.0190 -2.0961 -2.0130 0.9834
3.0908 -1.9863 -2.0123 0.9834
3.2222 -1.7594 -2.0108 0.9834
3.5136 -1.0317 -2.0057 0.9834
3.5749 -0.7777 -2.0038 0.9835
3.6179 -0.5202 -2.0019 0.9835
3.6422 -0.2605 -2.0000 0.9835
-0.8550 0.0000 -0.4936 0.9961
-0.8530 -0.0610 -0.4938 0.9961
-0.8499 -0.0914 -0.4935 0.9961
-0.8230 -0.2100 -0.4904 0.9961
-0.7887 -0.2942 -0.4860 0.9961
-0.7796 -0.3229 -0.4872 0.9961
-0.7809 -0.3566 -0.4957 0.9960
-0.7750 -0.4599 -0.5203 0.9958
-0.7634 -0.5300 -0.5366 0.9957
-2.7781 -2.0797 -2.0036 0.9841
-2.7033 -2.1785 -2.0045 0.9841
-2.6250 -2.2746 -2.0053 0.9841
-2.3697 -2.5453 -2.0078 0.9841
-2.2783 -2.6293 -2.0086 0.9841
-1.9864 -2.8609 -2.0109 0.9840
-1.8836 -2.9310 -2.0116 0.9840
-1.7784 -2.9974 -2.0122 0.9840
-1.6709 -3.0600 -2.0129 0.9840
-1.4492 -3.1733 -2.0141 0.9840
-1.3354 -3.2239 -2.0147 0.9840
-1.2198 -3.2704 -2.0152 0.9840
-0.9839 -3.3507 -2.0162 0.9840
-0.8638 -3.3845 -2.0167 0.9840
-0.4974 -3.4594 -2.0178 0.9840
-0.3736 -3.4755 -2.0181 0.9840
-0.2494 -3.4871 -2.0184 0.9840
0.2495 -3.4885 -2.0192 0.9840
0.4978 -3.4622 -2.0194 0.9840
0.6211 -3.4422 -2.0195 0.9840
0.8650 -3.3892 -2.0195 0.9840
1.1045 -3.3185 -2.0193 0.9840
1.6754 -3.0682 -2.0183 0.9840
1.7835 -3.0060 -2.0180 0.9840
1.8894 -2.9399 -2.0177 0.9840
2.0935 -2.7966 -2.0169 0.9840
2.1915 -2.7195 -2.0165 0.9840
2.3788 -2.5550 -2.0155 0.9840
2.4678 -2.4678 -2.0150 0.9840
2.7906 -2.0890 -2.0126 0.9840
3.1641 -1.4450 -2.0083 0.9841
3.2964 -1.0971 -2.0058 0.9841
3.3320 -0.9784 -2.0050 0.9841
3.3634 -0.8584 -2.0041 0.9841
3.3904 -0.7375 -2.0032 0.9841
3.4130 -0.6158 -2.0023 0.9841
3.4312 -0.4933 -2.0014 0.9841
3.4545 -0.2471 -1.9995 0.9841
3.4595 -0.1236 -1.9986 0.9841
