ply
format ascii 1.0
element vertex 766
property float32 x
property float32 y
property float32 z
property float32 I
end_header
-0.3234 9.0555 -1.2839 0.9641
-1.3378 9.3047 -1.3319 0.9627
-2.7395 9.3300 -1.3778 0.9615
-3.1076 9.3367 -1.3943 0.9610
-0.3220 9.0147 -1.4860 0.9641
-1.3379 9.3055 -1.5487 0.9626
-1.6800 9.3117 -1.5588 0.9624
-2.3799 9.3244 -1.5853 0.9617
-3.1079 9.3376 -1.6212 0.9609
6.1047 7.5755 -1.8287 0.9612
5.4658 7.8722 -1.8014 0.9617
4.8894 8.2406 -1.8010 0.9618
4.5919 8.4095 -1.8009 0.9618
3.6668 8.8524 -1.8010 0.9618
3.3487 8.9783 -1.8011 0.9617
2.7003 9.1962 -1.8015 0.9617
2.3707 9.2882 -1.8018 0.9617
2.0380 9.3685 -1.8021 0.9617
1.0256 9.5394 -1.8034 0.9617
0.3427 9.5939 -1.8044 0.9617
-1.6652 9.2298 -1.7628 0.9625
-2.0092 9.2360 -1.7766 0.9623
-2.3590 9.2424 -1.7929 0.9619
-2.7153 9.2474 -1.8115 0.9615
-3.3718 9.0402 -1.8135 0.9615
-3.6945 8.9193 -1.8146 0.9615
-4.0129 8.7871 -1.8157 0.9614
-4.3267 8.6437 -1.8169 0.9614
-5.8416 7.8035 -1.8322 0.9611
9.3494 -0.0000 -1.9763 0.9625
9.3139 0.6661 -1.9738 0.9625
9.2785 0.9975 -1.9726 0.9626
9.1730 1.6550 -1.9703 0.9626
9.1029 1.9802 -1.9692 0.9626
8.8251 2.9373 -1.9661 0.9627
8.5847 3.5559 -1.9641 0.9627
8.4485 3.8583 -1.9633 0.9627
8.3017 4.1555 -1.9624 0.9628
8.1447 4.4473 -1.9616 0.9628
7.9776 4.7334 -1.9608 0.9628
7.6141 5.2866 -1.9594 0.9628
6.9989 6.0646 -1.9576 0.9628
6.7762 6.3089 -1.9571 0.9629
6.5452 6.5451 -1.9566 0.9629
6.3060 6.7731 -1.9562 0.9629
5.8018 7.1996 -1.9545 0.9629
5.2584 7.5735 -1.9489 0.9630
4.2501 7.7834 -1.8746 0.9644
3.9149 7.8210 -1.8488 0.9649
2.9850 8.0031 -1.8055 0.9657
2.1131 8.2790 -1.8061 0.9657
1.8165 8.3504 -1.8064 0.9657
1.2167 8.4621 -1.8071 0.9657
0.9141 8.5021 -1.8075 0.9656
0.6102 8.5315 -1.8080 0.9656
0.3054 8.5502 -1.8085 0.9656
0.0000 8.5582 -1.8090 0.9656
-0.6109 8.5421 -1.8102 0.9656
-0.9158 8.5180 -1.8109 0.9656
-1.8233 8.3816 -1.8131 0.9655
-2.4188 8.2378 -1.8148 0.9655
-2.7126 8.1502 -1.8157 0.9655
-3.3084 7.9872 -1.8274 0.9653
-4.3215 7.9142 -1.9061 0.9638
-4.6781 7.8845 -1.9379 0.9632
-5.0293 7.8257 -1.9663 0.9627
-5.3152 7.6553 -1.9700 0.9626
-5.8691 7.2831 -1.9772 0.9625
-6.1293 7.0736 -1.9784 0.9625
-6.6271 6.6271 -1.9811 0.9624
-6.8641 6.3907 -1.9824 0.9624
-7.0927 6.1459 -1.9838 0.9624
-7.3126 5.8929 -1.9852 0.9623
-7.9174 5.0882 -1.9894 0.9623
-8.2720 4.5169 -1.9922 0.9622
-8.4341 4.2218 -1.9937 0.9622
-8.8561 3.3031 -1.9980 0.9621
-8.9748 2.9871 -1.9994 0.9621
-9.1780 2.3425 -2.0022 0.9620
-9.3348 1.6842 -2.0050 0.9620
-9.4441 1.0153 -2.0078 0.9619
8.4163 -0.0000 -1.9780 0.9660
8.4062 0.3002 -1.9769 0.9660
8.3854 0.5997 -1.9758 0.9660
8.3541 0.8982 -1.9747 0.9661
8.3123 1.1951 -1.9737 0.9661
8.2600 1.4903 -1.9726 0.9661
8.1974 1.7833 -1.9716 0.9661
8.1245 2.0737 -1.9707 0.9661
8.0415 2.3612 -1.9697 0.9661
7.9484 2.6455 -1.9688 0.9662
7.8455 2.9262 -1.9679 0.9662
7.6103 3.4755 -1.9663 0.9662
7.3374 4.0065 -1.9648 0.9662
7.1871 4.2643 -1.9641 0.9662
6.8601 4.7630 -1.9628 0.9663
6.4991 5.2373 -1.9617 0.9663
6.1059 5.6848 -1.9607 0.9663
5.4601 6.3012 -1.9596 0.9663
4.9952 6.6728 -1.9590 0.9663
4.5056 7.0109 -1.9587 0.9663
4.2523 7.1668 -1.9585 0.9663
3.9936 7.3137 -1.9585 0.9663
3.7275 7.4466 -1.9571 0.9664
3.4565 7.5687 -1.9555 0.9664
3.1818 7.6815 -1.9541 0.9664
2.9037 7.7851 -1.9528 0.9664
2.3283 7.9293 -1.9423 0.9666
1.7325 7.9644 -1.9156 0.9671
1.4399 7.9809 -1.9060 0.9672
0.8607 8.0060 -1.8924 0.9675
-0.2869 8.0325 -1.8890 0.9675
-0.8636 8.0327 -1.8988 0.9673
-1.4483 8.0275 -1.9171 0.9670
-2.0446 8.0108 -1.9431 0.9666
-2.3495 8.0016 -1.9600 0.9663
-3.2025 7.7315 -1.9668 0.9662
-3.4810 7.6223 -1.9694 0.9662
-3.7560 7.5036 -1.9721 0.9661
-4.5443 7.0711 -1.9755 0.9661
-4.7965 6.9082 -1.9766 0.9660
-5.5170 6.3669 -1.9800 0.9660
-5.9643 5.9643 -1.9824 0.9659
-6.1772 5.7511 -1.9836 0.9659
-6.3824 5.5304 -1.9848 0.9659
-6.7692 5.0674 -1.9873 0.9659
-7.1225 4.5774 -1.9898 0.9658
-7.4405 4.0628 -1.9924 0.9658
-7.7214 3.5262 -1.9950 0.9657
-8.0696 2.6858 -1.9988 0.9657
-8.1656 2.3976 -2.0001 0.9656
-8.4881 0.9126 -2.0064 0.9655
-8.5204 0.6094 -2.0076 0.9655
-8.5419 0.3051 -2.0088 0.9655
7.6364 0.2727 -1.9785 0.9689
7.6179 0.5448 -1.9775 0.9689
7.5051 1.3541 -1.9746 0.9690
7.1300 2.6593 -1.9703 0.9690
7.0278 2.9110 -1.9695 0.9691
6.7972 3.4025 -1.9681 0.9691
6.6692 3.6417 -1.9674 0.9691
6.5328 3.8761 -1.9668 0.9691
6.3884 4.1056 -1.9662 0.9691
6.2360 4.3297 -1.9656 0.9691
5.9081 4.7610 -1.9646 0.9691
5.7331 4.9677 -1.9641 0.9691
5.1662 5.5488 -1.9630 0.9692
4.9640 5.7288 -1.9627 0.9692
4.5416 6.0668 -1.9622 0.9692
3.8662 6.5161 -1.9617 0.9692
3.3913 6.7750 -1.9616 0.9692
3.1474 6.8917 -1.9617 0.9692
2.8994 6.9999 -1.9617 0.9692
2.3930 7.1897 -1.9619 0.9692
2.1350 7.2712 -1.9621 0.9692
1.8743 7.3436 -1.9623 0.9692
1.6112 7.4068 -1.9626 0.9692
-0.5417 7.5737 -1.9660 0.9691
-1.3495 7.4797 -1.9679 0.9691
-1.6161 7.4294 -1.9686 0.9691
-1.8810 7.3697 -1.9693 0.9691
-2.1437 7.3006 -1.9701 0.9691
-2.4038 7.2224 -1.9709 0.9690
-2.9154 7.0384 -1.9725 0.9690
-3.1662 6.9329 -1.9734 0.9690
-3.6561 6.6956 -1.9752 0.9690
-4.5809 6.1193 -1.9792 0.9689
-4.7989 5.9551 -1.9802 0.9689
-5.0110 5.7831 -1.9813 0.9689
-5.4167 5.4167 -1.9834 0.9688
-5.6098 5.2229 -1.9845 0.9688
-5.7959 5.0221 -1.9856 0.9688
-6.1464 4.6011 -1.9879 0.9688
-6.3103 4.3813 -1.9891 0.9688
-6.6145 3.9246 -1.9914 0.9687
-6.8857 3.4467 -1.9937 0.9687
-7.2274 2.6957 -1.9972 0.9686
-7.3232 2.4374 -1.9984 0.9686
-7.4872 1.9110 -2.0007 0.9686
-7.5549 1.6435 -2.0019 0.9686
-7.6616 1.1016 -2.0041 0.9685
-7.7003 0.8279 -2.0052 0.9685
-7.7292 0.5528 -2.0063 0.9685
-7.7482 0.2767 -2.0074 0.9685
6.9889 0.2496 -1.9798 0.9713
6.9723 0.4987 -1.9788 0.9714
6.9469 0.7469 -1.9780 0.9714
6.9127 0.9939 -1.9771 0.9714
6.8184 1.4833 -1.9754 0.9714
6.7583 1.7250 -1.9746 0.9714
6.3330 2.8922 -1.9709 0.9715
6.1066 3.3344 -1.9697 0.9715
5.9819 3.5492 -1.9691 0.9715
5.8498 3.7594 -1.9685 0.9715
5.5638 4.1650 -1.9675 0.9715
5.4104 4.3599 -1.9671 0.9715
4.7313 5.0817 -1.9656 0.9715
4.5462 5.2466 -1.9653 0.9716
4.3555 5.4049 -1.9651 0.9716
3.9581 5.7007 -1.9647 0.9716
3.7518 5.8379 -1.9645 0.9716
3.5409 5.9678 -1.9644 0.9716
3.3255 6.0902 -1.9644 0.9716
3.1060 6.2049 -1.9644 0.9716
2.6555 6.4109 -1.9644 0.9716
1.9554 6.6593 -1.9648 0.9716
1.4756 6.7833 -1.9652 0.9716
0.9882 6.8733 -1.9658 0.9715
0.2480 6.9436 -1.9669 0.9715
0.0000 6.9496 -1.9674 0.9715
-0.2481 6.9468 -1.9679 0.9715
-1.2356 6.8486 -1.9701 0.9715
-1.7222 6.7474 -1.9714 0.9715
-1.9626 6.6840 -1.9721 0.9715
-2.4362 6.5319 -1.9736 0.9714
-2.6689 6.4433 -1.9743 0.9714
-3.1243 6.2416 -1.9760 0.9714
-3.5647 6.0080 -1.9777 0.9714
-3.7786 5.8796 -1.9786 0.9714
-4.3917 5.4497 -1.9814 0.9713
-4.5856 5.2921 -1.9823 0.9713
-4.9564 4.9564 -1.9843 0.9713
-5.3028 4.5949 -1.9863 0.9713
-6.0503 3.5898 -1.9916 0.9712
-6.2977 3.1524 -1.9937 0.9711
-6.4097 2.9272 -1.9948 0.9711
-6.5135 2.6980 -1.9959 0.9711
-6.6092 2.4651 -1.9969 0.9711
-6.6966 2.2288 -1.9980 0.9711
-6.8458 1.7473 -2.0001 0.9711
-6.9074 1.5026 -2.0012 0.9710
-6.9602 1.2558 -2.0022 0.9710
-7.0393 0.7568 -2.0043 0.9710
-7.0654 0.5053 -2.0053 0.9710
-7.0824 0.2529 -2.0063 0.9710
6.3667 0.9154 -1.9784 0.9734
6.3275 1.1416 -1.9776 0.9735
6.2251 1.5889 -1.9761 0.9735
5.8342 2.6644 -1.9727 0.9735
5.7336 2.8700 -1.9721 0.9735
5.6259 3.0720 -1.9716 0.9735
5.5112 3.2699 -1.9710 0.9735
5.2612 3.6529 -1.9700 0.9736
5.1263 3.8375 -1.9696 0.9736
4.9850 4.0171 -1.9692 0.9736
4.6839 4.3609 -1.9684 0.9736
4.3595 4.6825 -1.9678 0.9736
3.8327 5.1199 -1.9671 0.9736
3.6472 5.2530 -1.9670 0.9736
3.4572 5.3795 -1.9668 0.9736
2.8621 5.7177 -1.9667 0.9736
2.4470 5.9075 -1.9667 0.9736
1.5818 6.1973 -1.9673 0.9736
0.9106 6.3333 -1.9680 0.9736
0.6841 6.3627 -1.9683 0.9736
0.4566 6.3842 -1.9687 0.9736
0.2285 6.3977 -1.9690 0.9736
-0.9122 6.3442 -1.9714 0.9735
-1.5865 6.2159 -1.9732 0.9735
-1.8079 6.1573 -1.9738 0.9735
-2.0272 6.0909 -1.9745 0.9735
-2.2441 6.0167 -1.9752 0.9735
-2.8777 5.7488 -1.9774 0.9735
-3.0822 5.6447 -1.9782 0.9734
-3.4799 5.4149 -1.9798 0.9734
-3.6725 5.2895 -1.9806 0.9734
-3.8607 5.1572 -1.9815 0.9734
-4.0441 5.0184 -1.9824 0.9734
-4.5636 4.5636 -1.9851 0.9734
-4.7258 4.3999 -1.9860 0.9733
-5.0324 4.0554 -1.9879 0.9733
-5.1764 3.8750 -1.9889 0.9733
-5.3140 3.6896 -1.9898 0.9733
-5.4450 3.4993 -1.9908 0.9733
-5.6863 3.1050 -1.9928 0.9733
-5.7964 2.9015 -1.9937 0.9732
-5.8992 2.6941 -1.9947 0.9732
-5.9945 2.4830 -1.9957 0.9732
-6.0824 2.2686 -1.9967 0.9732
-6.2348 1.8307 -1.9986 0.9732
-6.2992 1.6078 -1.9996 0.9732
-6.3557 1.3826 -2.0006 0.9731
-6.4040 1.1554 -2.0015 0.9731
-6.4442 0.9265 -2.0025 0.9731
-6.4763 0.6963 -2.0034 0.9731
-6.5000 0.4649 -2.0044 0.9731
-6.5154 0.2327 -2.0053 0.9731
5.9583 0.2128 -1.9819 0.9752
5.9446 0.4251 -1.9811 0.9752
5.9233 0.6368 -1.9803 0.9752
5.7640 1.4712 -1.9774 0.9752
5.4889 2.2736 -1.9749 0.9753
5.4027 2.4673 -1.9743 0.9753
5.3097 2.6578 -1.9737 0.9753
5.2101 2.8449 -1.9732 0.9753
4.9914 3.2078 -1.9722 0.9753
4.6169 3.7206 -1.9710 0.9753
4.4804 3.8823 -1.9706 0.9753
3.0222 5.0937 -1.9688 0.9753
2.2665 5.4719 -1.9687 0.9753
1.8706 5.6201 -1.9689 0.9753
1.4651 5.7401 -1.9692 0.9753
1.2594 5.7894 -1.9694 0.9753
0.0000 5.9303 -1.9713 0.9753
-0.2117 5.9277 -1.9717 0.9753
-0.4232 5.9177 -1.9721 0.9753
-0.6343 5.9002 -1.9726 0.9753
-1.0542 5.8429 -1.9736 0.9753
-1.2624 5.8032 -1.9741 0.9753
-1.6742 5.7017 -1.9753 0.9753
-2.2763 5.4954 -1.9772 0.9752
-2.4718 5.4125 -1.9779 0.9752
-2.6644 5.3228 -1.9786 0.9752
-2.8537 5.2262 -1.9793 0.9752
-3.2217 5.0131 -1.9808 0.9752
-3.7436 4.6456 -1.9832 0.9752
-4.5186 3.9154 -1.9875 0.9751
-4.6576 3.7533 -1.9883 0.9751
-5.0389 3.2383 -1.9910 0.9751
-5.1536 3.0578 -1.9919 0.9751
-5.2619 2.8732 -1.9928 0.9750
-5.3635 2.6848 -1.9937 0.9750
-5.4584 2.4928 -1.9947 0.9750
-5.6275 2.0989 -1.9965 0.9750
-5.7681 1.6937 -1.9983 0.9750
-5.8795 1.2790 -2.0001 0.9750
-5.9240 1.0688 -2.0010 0.9749
5.5282 0.3954 -1.9820 0.9767
5.4485 0.9830 -1.9799 0.9768
5.4081 1.1765 -1.9792 0.9768
5.3609 1.3683 -1.9786 0.9768
5.3070 1.5583 -1.9779 0.9768
5.1792 1.9317 -1.9768 0.9768
5.0254 2.2950 -1.9757 0.9768
4.6432 2.9840 -1.9738 0.9768
4.5328 3.1471 -1.9733 0.9768
4.4167 3.3063 -1.9730 0.9768
4.1681 3.6116 -1.9723 0.9768
4.0359 3.7575 -1.9719 0.9768
3.7565 4.0348 -1.9714 0.9769
3.6097 4.1658 -1.9712 0.9769
3.4584 4.2916 -1.9710 0.9769
2.4664 4.9272 -1.9704 0.9769
2.1087 5.0908 -1.9705 0.9769
1.7403 5.2287 -1.9707 0.9769
1.3630 5.3403 -1.9709 0.9769
1.1717 5.3860 -1.9711 0.9769
0.7846 5.4571 -1.9716 0.9769
0.5894 5.4824 -1.9719 0.9768
-0.1969 5.5143 -1.9732 0.9768
-0.3937 5.5049 -1.9736 0.9768
-0.5901 5.4886 -1.9741 0.9768
-0.7858 5.4653 -1.9745 0.9768
-0.9806 5.4351 -1.9750 0.9768
-1.3665 5.3541 -1.9760 0.9768
-1.5572 5.3033 -1.9766 0.9768
-1.9327 5.1818 -1.9778 0.9768
-2.6540 4.8604 -1.9803 0.9767
-3.1617 4.5537 -1.9825 0.9767
-3.4811 4.3198 -1.9840 0.9767
-3.7834 4.0636 -1.9855 0.9767
-3.9276 3.9276 -1.9863 0.9767
-4.4538 3.3341 -1.9896 0.9766
-4.5719 3.1743 -1.9904 0.9766
-4.8912 2.6708 -1.9929 0.9766
-4.9855 2.4956 -1.9938 0.9766
-5.2304 1.9508 -1.9963 0.9766
-5.3608 1.5741 -1.9980 0.9765
-5.4639 1.1886 -1.9996 0.9765
-5.5051 0.9933 -2.0005 0.9765
-5.5394 0.7964 -2.0013 0.9765
-5.5865 0.3996 -2.0029 0.9765
5.1724 0.1847 -1.9834 0.9781
5.1608 0.3691 -1.9828 0.9781
5.0867 0.9177 -1.9808 0.9781
5.0492 1.0984 -1.9802 0.9781
4.8359 1.8037 -1.9779 0.9781
4.7671 1.9746 -1.9774 0.9781
4.6118 2.3085 -1.9764 0.9781
4.5254 2.4711 -1.9759 0.9782
4.3358 2.7864 -1.9751 0.9782
4.1244 3.0875 -1.9743 0.9782
4.0109 3.2322 -1.9740 0.9782
3.7689 3.5090 -1.9734 0.9782
3.6408 3.6408 -1.9731 0.9782
3.5081 3.7680 -1.9729 0.9782
3.3710 3.8904 -1.9727 0.9782
3.0844 4.1202 -1.9724 0.9782
2.9352 4.2274 -1.9722 0.9782
2.7823 4.3293 -1.9721 0.9782
2.6259 4.4257 -1.9721 0.9782
2.1377 4.6809 -1.9720 0.9782
1.7984 4.8217 -1.9721 0.9782
1.6252 4.8830 -1.9722 0.9782
1.4500 4.9383 -1.9723 0.9782
1.2729 4.9872 -1.9725 0.9782
0.9141 5.0663 -1.9728 0.9782
0.0000 5.1517 -1.9742 0.9782
-0.1839 5.1494 -1.9746 0.9782
-0.7337 5.1033 -1.9758 0.9782
-0.9156 5.0750 -1.9762 0.9782
-1.0965 5.0403 -1.9767 0.9781
-1.4540 4.9518 -1.9777 0.9781
-1.6302 4.8981 -1.9783 0.9781
-2.1464 4.6999 -1.9800 0.9781
-2.3134 4.6217 -1.9806 0.9781
-3.1025 4.1444 -1.9839 0.9781
-3.6660 3.6660 -1.9868 0.9780
-3.7960 3.5342 -1.9876 0.9780
-3.9212 3.3977 -1.9883 0.9780
-4.0415 3.2569 -1.9891 0.9780
-4.2669 2.9625 -1.9906 0.9780
-4.4708 2.6527 -1.9922 0.9780
-4.5645 2.4924 -1.9930 0.9780
-5.0018 1.4687 -1.9977 0.9779
-5.0978 1.1090 -1.9993 0.9779
-5.1679 0.7430 -2.0008 0.9779
-5.1931 0.5583 -2.0015 0.9779
-5.2116 0.3727 -2.0023 0.9779
-5.2235 0.1866 -2.0030 0.9779
4.8494 -0.0000 -1.9848 0.9793
4.8448 0.1730 -1.9841 0.9793
4.8339 0.3457 -1.9835 0.9793
4.7649 0.8597 -1.9816 0.9793
4.5889 1.5273 -1.9794 0.9793
4.5303 1.6897 -1.9789 0.9793
4.4660 1.8499 -1.9784 0.9793
4.3961 2.0076 -1.9779 0.9793
4.0622 2.6106 -1.9763 0.9793
3.8642 2.8927 -1.9756 0.9794
3.6469 3.1600 -1.9750 0.9794
3.5313 3.2878 -1.9747 0.9794
3.4113 3.4113 -1.9744 0.9794
3.1585 3.6451 -1.9740 0.9794
3.0262 3.7553 -1.9739 0.9794
2.1582 4.3116 -1.9734 0.9794
1.8452 4.4547 -1.9734 0.9794
1.6851 4.5179 -1.9735 0.9794
1.5228 4.5753 -1.9736 0.9794
1.3586 4.6270 -1.9737 0.9794
0.5157 4.7970 -1.9746 0.9794
0.1723 4.8229 -1.9752 0.9794
-0.0000 4.8267 -1.9755 0.9794
-0.5162 4.8017 -1.9765 0.9793
-0.8578 4.7546 -1.9774 0.9793
-1.3621 4.6389 -1.9788 0.9793
-1.5272 4.5885 -1.9793 0.9793
-1.6905 4.5323 -1.9798 0.9793
-2.1671 4.3293 -1.9815 0.9793
-2.3209 4.2504 -1.9820 0.9793
-2.7646 3.9817 -1.9839 0.9793
-3.5550 3.3098 -1.9880 0.9792
-3.6722 3.1820 -1.9887 0.9792
-3.8926 2.9140 -1.9901 0.9792
-3.9956 2.7742 -1.9908 0.9792
-4.0936 2.6308 -1.9916 0.9792
-4.1864 2.4839 -1.9923 0.9792
-4.2740 2.3338 -1.9930 0.9792
-4.4329 2.0244 -1.9945 0.9792
-4.6290 1.5407 -1.9967 0.9791
-4.6828 1.3750 -1.9975 0.9791
-4.7724 1.0382 -1.9989 0.9791
-4.8378 0.6956 -2.0003 0.9791
-4.8612 0.5226 -2.0011 0.9791
-4.8785 0.3489 -2.0017 0.9791
-4.8895 0.1746 -2.0024 0.9791
4.5511 0.1625 -1.9847 0.9803
4.5252 0.4865 -1.9835 0.9803
4.4435 0.9666 -1.9818 0.9804
4.4050 1.1243 -1.9813 0.9804
4.3609 1.2805 -1.9808 0.9804
4.3113 1.4349 -1.9803 0.9804
4.2563 1.5875 -1.9798 0.9804
4.1960 1.7380 -1.9794 0.9804
3.9836 2.1752 -1.9781 0.9804
3.9027 2.3156 -1.9777 0.9804
3.4268 2.9693 -1.9761 0.9804
3.3182 3.0893 -1.9758 0.9804
2.9680 3.4253 -1.9752 0.9804
2.8436 3.5287 -1.9751 0.9804
2.4497 3.8118 -1.9747 0.9804
1.8822 4.1214 -1.9746 0.9804
1.4310 4.2993 -1.9748 0.9804
1.2767 4.3479 -1.9749 0.9804
1.1207 4.3910 -1.9750 0.9804
0.9634 4.4286 -1.9752 0.9804
0.6451 4.4869 -1.9756 0.9804
0.4846 4.5075 -1.9758 0.9804
0.3235 4.5225 -1.9760 0.9804
0.1619 4.5318 -1.9763 0.9804
0.0000 4.5353 -1.9766 0.9804
-0.1619 4.5332 -1.9769 0.9804
-0.3237 4.5253 -1.9772 0.9804
-0.4850 4.5117 -1.9776 0.9804
-0.8060 4.4673 -1.9784 0.9804
-0.9651 4.4366 -1.9788 0.9804
-1.1231 4.4003 -1.9792 0.9804
-1.2797 4.3584 -1.9797 0.9804
-1.4348 4.3110 -1.9801 0.9804
-1.8889 4.1361 -1.9817 0.9804
-2.0359 4.0671 -1.9822 0.9803
-2.1804 3.9930 -1.9828 0.9803
-2.3222 3.9138 -1.9833 0.9803
-2.7297 3.6464 -1.9851 0.9803
-2.8590 3.5478 -1.9857 0.9803
-2.9847 3.4446 -1.9864 0.9803
-3.1068 3.3369 -1.9870 0.9803
-3.3391 3.1088 -1.9883 0.9803
-3.4491 2.9887 -1.9890 0.9803
-3.5548 2.8646 -1.9897 0.9803
-3.8446 2.4708 -1.9917 0.9803
-3.9317 2.3328 -1.9924 0.9802
-4.0138 2.1917 -1.9931 0.9802
-4.1628 1.9011 -1.9945 0.9802
-1.5118 0.5639 -0.7032 0.9930
-1.4401 0.4793 -0.6615 0.9934
-1.3400 0.3420 -0.6027 0.9940
-1.3955 0.2518 -0.6180 0.9938
-1.4180 0.2039 -0.6244 0.9938
-1.4490 0.1036 -0.6331 0.9937
-1.4571 0.0520 -0.6354 0.9937
4.2901 0.0000 -1.9858 0.9813
4.1851 0.9104 -1.9825 0.9813
4.1489 1.0590 -1.9820 0.9813
4.0091 1.4953 -1.9806 0.9813
3.9523 1.6371 -1.9802 0.9813
3.8239 1.9141 -1.9794 0.9813
3.7524 2.0490 -1.9790 0.9813
3.5954 2.3106 -1.9783 0.9813
3.5101 2.4371 -1.9780 0.9813
3.4203 2.5604 -1.9777 0.9813
3.0196 3.0196 -1.9767 0.9814
2.9096 3.1251 -1.9765 0.9814
2.6788 3.3242 -1.9762 0.9814
2.3077 3.5909 -1.9758 0.9814
2.1780 3.6709 -1.9758 0.9814
2.0456 3.7462 -1.9757 0.9814
1.4917 3.9993 -1.9758 0.9814
1.3480 4.0502 -1.9759 0.9814
1.0558 4.1365 -1.9761 0.9814
0.9075 4.1719 -1.9763 0.9814
0.7581 4.2020 -1.9764 0.9814
0.0000 4.2723 -1.9776 0.9813
-0.1525 4.2702 -1.9779 0.9813
-0.3049 4.2627 -1.9782 0.9813
-0.6084 4.2316 -1.9789 0.9813
-0.7592 4.2080 -1.9793 0.9813
-0.9091 4.1790 -1.9797 0.9813
-1.0579 4.1448 -1.9801 0.9813
-1.3515 4.0605 -1.9809 0.9813
-1.4959 4.0107 -1.9814 0.9813
-1.6385 3.9557 -1.9819 0.9813
-1.7791 3.8956 -1.9824 0.9813
-2.0535 3.7608 -1.9834 0.9813
-2.1870 3.6860 -1.9839 0.9813
-2.6924 3.3411 -1.9862 0.9813
-2.8108 3.2439 -1.9868 0.9813
-3.1444 2.9275 -1.9886 0.9812
-3.3473 2.6974 -1.9899 0.9812
-3.4426 2.5771 -1.9905 0.9812
-3.5335 2.4533 -1.9912 0.9812
-3.7792 2.0636 -1.9931 0.9812
-3.8517 1.9280 -1.9938 0.9812
-3.9194 1.7899 -1.9944 0.9812
-1.2017 0.4482 -0.5937 0.9944
-1.1536 0.3840 -0.5628 0.9947
-1.1790 0.2565 -0.5585 0.9947
-1.1974 0.2160 -0.5632 0.9947
-1.2124 0.1743 -0.5670 0.9946
-1.2261 0.1318 -0.5708 0.9946
-1.2424 0.0444 -0.5755 0.9945
4.0456 0.1445 -1.9857 0.9821
4.0368 0.2887 -1.9852 0.9821
4.0038 0.5757 -1.9841 0.9821
3.9797 0.7180 -1.9837 0.9821
3.8774 1.1385 -1.9822 0.9822
3.7846 1.4116 -1.9814 0.9822
3.7311 1.5454 -1.9810 0.9822
3.6728 1.6773 -1.9806 0.9822
3.6099 1.8070 -1.9802 0.9822
3.4706 2.0592 -1.9795 0.9822
3.3138 2.3008 -1.9789 0.9822
3.2291 2.4172 -1.9786 0.9822
3.1403 2.5306 -1.9783 0.9822
3.0476 2.6408 -1.9781 0.9822
2.9511 2.7475 -1.9778 0.9822
2.6397 3.0464 -1.9773 0.9822
2.4154 3.2265 -1.9770 0.9822
2.1788 3.3903 -1.9768 0.9822
2.0564 3.4658 -1.9768 0.9822
1.9313 3.5370 -1.9768 0.9822
1.6741 3.6657 -1.9767 0.9822
1.5422 3.7232 -1.9768 0.9822
1.2727 3.8239 -1.9769 0.9822
0.9968 3.9054 -1.9771 0.9822
0.8568 3.9388 -1.9772 0.9822
0.4310 4.0089 -1.9778 0.9822
-0.1440 4.0314 -1.9788 0.9822
-0.2878 4.0243 -1.9791 0.9822
-0.8582 3.9452 -1.9805 0.9822
-1.2758 3.8332 -1.9817 0.9822
-1.4121 3.7860 -1.9821 0.9822
-1.5467 3.7341 -1.9826 0.9822
-1.8100 3.6159 -1.9835 0.9821
-2.1878 3.4043 -1.9850 0.9821
-2.3086 3.3250 -1.9856 0.9821
-2.4264 3.2413 -1.9861 0.9821
-2.5413 3.1535 -1.9866 0.9821
-2.6530 3.0617 -1.9872 0.9821
-2.8663 2.8663 -1.9884 0.9821
-2.9676 2.7630 -1.9889 0.9821
-3.0653 2.6561 -1.9895 0.9821
-3.1591 2.5457 -1.9901 0.9821
-3.2489 2.4321 -1.9907 0.9821
-3.3347 2.3153 -1.9913 0.9821
-3.4935 2.0728 -1.9926 0.9821
-1.0444 0.4769 -0.5632 0.9949
-1.0290 0.4262 -0.5463 0.9951
-1.0025 0.3337 -0.5183 0.9953
-1.0175 0.2987 -0.5202 0.9953
-1.0518 0.1898 -0.5242 0.9952
-1.0611 0.1526 -0.5258 0.9952
-1.0705 0.1151 -0.5281 0.9952
3.8047 0.4090 -1.9852 0.9829
3.7867 0.5444 -1.9847 0.9829
3.6258 1.2068 -1.9825 0.9829
3.5291 1.4618 -1.9817 0.9829
3.4146 1.7092 -1.9809 0.9829
3.3508 1.8297 -1.9806 0.9829
3.1346 2.1764 -1.9797 0.9830
3.0545 2.2866 -1.9794 0.9830
2.9705 2.3938 -1.9792 0.9830
2.8829 2.4980 -1.9789 0.9830
2.7916 2.5990 -1.9787 0.9830
2.5986 2.7910 -1.9783 0.9830
2.4971 2.8818 -1.9782 0.9830
2.1744 3.1317 -1.9778 0.9830
1.8270 3.3459 -1.9777 0.9830
1.3323 3.5719 -1.9777 0.9830
1.0741 3.6582 -1.9779 0.9830
0.9429 3.6944 -1.9780 0.9830
0.6771 3.7528 -1.9783 0.9830
0.5427 3.7749 -1.9785 0.9830
0.1362 3.8125 -1.9791 0.9830
0.0000 3.8154 -1.9793 0.9830
-0.1362 3.8134 -1.9796 0.9830
-0.2723 3.8067 -1.9799 0.9829
-0.4080 3.7951 -1.9802 0.9829
-0.8118 3.7317 -1.9812 0.9829
-1.2067 3.6256 -1.9823 0.9829
-1.4629 3.5318 -1.9832 0.9829
-1.8333 3.3575 -1.9845 0.9829
-1.9524 3.2907 -1.9850 0.9829
-2.0692 3.2197 -1.9855 0.9829
-2.2948 3.0654 -1.9865 0.9829
-2.4034 2.9824 -1.9870 0.9829
-2.5089 2.8954 -1.9876 0.9829
-2.8987 2.5117 -1.9898 0.9829
-2.9873 2.4073 -1.9903 0.9829
-3.1532 2.1893 -1.9915 0.9829
-0.9486 0.5180 -0.5607 0.9951
-0.9416 0.4713 -0.5463 0.9953
-0.9271 0.3840 -0.5206 0.9955
-0.9208 0.3434 -0.5098 0.9956
-0.9268 0.3085 -0.5067 0.9956
-0.9524 0.2431 -0.5099 0.9956
-0.9628 0.2094 -0.5112 0.9956
-0.9838 0.1058 -0.5133 0.9956
-0.9873 0.0706 -0.5135 0.9955
-0.9893 0.0353 -0.5135 0.9955
3.6280 0.0000 -1.9871 0.9836
3.6170 0.2587 -1.9861 0.9836
3.6046 0.3875 -1.9856 0.9836
3.5876 0.5158 -1.9852 0.9836
3.5401 0.7701 -1.9843 0.9836
3.5096 0.8958 -1.9839 0.9836
3.4354 1.1434 -1.9831 0.9836
3.3438 1.3850 -1.9823 0.9836
3.2916 1.5032 -1.9820 0.9836
3.2353 1.6195 -1.9816 0.9836
3.1106 1.8456 -1.9810 0.9836
3.0423 1.9551 -1.9807 0.9836
2.9702 2.0622 -1.9804 0.9836
2.8943 2.1666 -1.9802 0.9836
2.8148 2.2683 -1.9799 0.9836
2.7317 2.3670 -1.9797 0.9837
2.6452 2.4628 -1.9795 0.9837
2.3662 2.7307 -1.9790 0.9837
2.1651 2.8922 -1.9788 0.9837
1.9531 3.0391 -1.9786 0.9837
1.3824 3.3375 -1.9785 0.9837
1.2624 3.3848 -1.9786 0.9837
1.1409 3.4278 -1.9787 0.9837
1.0178 3.4665 -1.9787 0.9837
0.6416 3.5560 -1.9791 0.9837
0.5143 3.5770 -1.9793 0.9837
0.2578 3.6052 -1.9796 0.9837
-0.2580 3.6070 -1.9806 0.9836
-0.3866 3.5960 -1.9809 0.9836
-0.5148 3.5804 -1.9812 0.9836
-0.6424 3.5604 -1.9815 0.9836
-1.0198 3.4732 -1.9826 0.9836
-1.2655 3.3929 -1.9833 0.9836
-1.3860 3.3462 -1.9837 0.9836
-1.5049 3.2953 -1.9842 0.9836
-1.6219 3.2402 -1.9846 0.9836
-1.8498 3.1176 -1.9855 0.9836
-1.9603 3.0503 -1.9859 0.9836
-2.2768 2.8254 -1.9874 0.9836
-2.3768 2.7430 -1.9879 0.9836
-2.5678 2.5678 -1.9889 0.9836
-2.7459 2.3793 -1.9900 0.9836
-2.9102 2.1785 -1.9911 0.9836
-2.9869 2.0739 -1.9916 0.9836
-0.8524 0.5057 -0.5428 0.9955
-0.8507 0.4645 -0.5309 0.9956
-0.8506 0.3885 -0.5122 0.9957
-0.8479 0.3512 -0.5027 0.9958
-0.8465 0.3157 -0.4948 0.9959
-0.8603 0.2863 -0.4966 0.9959
-0.8727 0.2562 -0.4982 0.9959
-0.8932 0.1943 -0.5006 0.9958
-0.9011 0.1626 -0.5015 0.9958
-0.9077 0.1305 -0.5022 0.9958
-0.9127 0.0981 -0.5028 0.9958
3.4423 -0.0000 -1.9874 0.9842
3.4202 0.3677 -1.9860 0.9842
3.3838 0.6105 -1.9852 0.9842
3.2599 1.0850 -1.9836 0.9843
2.9518 1.7514 -1.9816 0.9843
2.8870 1.8554 -1.9814 0.9843
2.8186 1.9570 -1.9811 0.9843
2.7466 2.0561 -1.9809 0.9843
2.6712 2.1526 -1.9806 0.9843
2.4251 2.4251 -1.9801 0.9843
2.2456 2.5915 -1.9798 0.9843
1.9554 2.8162 -1.9795 0.9843
1.7494 2.9484 -1.9793 0.9843
1.4241 3.1184 -1.9793 0.9843
1.1981 3.2122 -1.9794 0.9843
0.9659 3.2897 -1.9795 0.9843
0.8480 3.3223 -1.9796 0.9843
0.7289 3.3506 -1.9797 0.9843
0.6089 3.3747 -1.9799 0.9843
0.3666 3.4101 -1.9802 0.9843
0.2447 3.4214 -1.9804 0.9843
-0.1225 3.4291 -1.9810 0.9843
-0.6096 3.3786 -1.9821 0.9843
-0.7299 3.3553 -1.9825 0.9843
-0.9677 3.2957 -1.9831 0.9843
-1.2008 3.2195 -1.9839 0.9843
-1.4280 3.1269 -1.9846 0.9842
-1.8601 2.8943 -1.9863 0.9842
-2.2551 2.6026 -1.9882 0.9842
-2.4362 2.4362 -1.9892 0.9842
-2.5223 2.3483 -1.9897 0.9842
-2.6051 2.2574 -1.9902 0.9842
-2.6847 2.1635 -1.9907 0.9842
-2.7610 2.0668 -1.9912 0.9842
-0.7751 0.4599 -0.5203 0.9958
-0.7787 0.4252 -0.5122 0.9959
-0.7809 0.3566 -0.4957 0.9960
-0.7887 0.2942 -0.4860 0.9961
-0.8014 0.2667 -0.4876 0.9961
-0.8393 0.1514 -0.4924 0.9961
-0.8499 0.0914 -0.4935 0.9961
