ply
format ascii 1.0
element vertex 714
property float32 x
property float32 y
property float32 z
property float32 I
end_header
-9.2492 -0.0000 -1.9551 0.9629
-9.2444 -0.3302 -1.9553 0.9629
-9.2279 -0.6600 -1.9556 0.9629
-9.1999 -0.9891 -1.9559 0.9629
-9.1604 -1.3171 -1.9562 0.9629
-9.1094 -1.6435 -1.9566 0.9629
-9.0469 -1.9680 -1.9571 0.9629
-8.9731 -2.2903 -1.9575 0.9628
-8.8880 -2.6098 -1.9581 0.9628
-8.5661 -3.5482 -1.9599 0.9628
-7.9860 -4.7383 -1.9628 0.9627
-7.4436 -5.5722 -1.9654 0.9627
-7.0339 -6.0949 -1.9673 0.9627
-6.8153 -6.3453 -1.9683 0.9626
-6.5879 -6.5879 -1.9694 0.9626
-5.8556 -7.2664 -1.9726 0.9626
-5.5957 -7.4750 -1.9737 0.9625
-5.3285 -7.6745 -1.9749 0.9625
-4.7731 -8.0447 -1.9773 0.9625
-3.8931 -8.5248 -1.9810 0.9624
-3.5887 -8.6638 -1.9822 0.9624
-1.9999 -9.1933 -1.9887 0.9623
-0.6730 -9.4092 -1.9940 0.9622
0.6747 -9.4339 -1.9992 0.9621
1.0117 -9.4099 -2.0005 0.9620
1.3478 -9.3738 -2.0018 0.9620
1.6825 -9.3256 -2.0031 0.9620
2.0156 -9.2654 -2.0043 0.9620
2.3465 -9.1933 -2.0056 0.9620
2.6747 -9.1092 -2.0068 0.9619
2.9999 -9.0134 -2.0080 0.9619
3.3217 -8.9058 -2.0092 0.9619
4.2619 -8.5141 -2.0126 0.9618
4.5655 -8.3611 -2.0137 0.9618
5.4414 -7.8371 -2.0168 0.9617
6.2566 -7.2205 -2.0196 0.9617
6.5131 -6.9956 -2.0204 0.9617
6.7614 -6.7614 -2.0212 0.9617
7.4537 -6.0066 -2.0235 0.9616
7.8682 -5.4630 -2.0248 0.9616
8.0604 -5.1801 -2.0253 0.9616
8.5742 -4.2919 -2.0268 0.9616
8.8617 -3.6707 -2.0275 0.9615
8.9884 -3.3525 -2.0278 0.9615
9.4445 -1.7040 -2.0286 0.9615
9.5419 -1.0259 -2.0286 0.9615
9.5897 -0.3425 -2.0284 0.9615
-8.2891 -0.8912 -1.9594 0.9663
-8.2534 -1.1867 -1.9597 0.9663
-8.0841 -2.0633 -1.9609 0.9663
-7.9202 -2.6361 -1.9618 0.9663
-7.8233 -2.9179 -1.9624 0.9663
-7.7164 -3.1963 -1.9630 0.9663
-7.4736 -3.7410 -1.9642 0.9662
-7.1928 -4.2677 -1.9656 0.9662
-7.0386 -4.5234 -1.9664 0.9662
-6.7034 -5.0181 -1.9680 0.9662
-5.9317 -5.9317 -1.9715 0.9661
-5.4987 -6.3459 -1.9734 0.9661
-5.2714 -6.5414 -1.9744 0.9661
-4.2959 -7.2404 -1.9786 0.9660
-3.7727 -7.5368 -1.9809 0.9660
-3.5032 -7.6711 -1.9820 0.9659
-3.2291 -7.7957 -1.9831 0.9659
-2.6678 -8.0155 -1.9854 0.9659
-2.3814 -8.1104 -1.9866 0.9659
-1.7989 -8.2694 -1.9889 0.9658
-1.5035 -8.3333 -1.9901 0.9658
-0.9062 -8.4293 -1.9925 0.9658
-0.6052 -8.4614 -1.9937 0.9657
-0.3029 -8.4826 -1.9949 0.9657
0.0000 -8.4930 -1.9961 0.9657
0.3033 -8.4926 -1.9972 0.9657
0.6066 -8.4813 -1.9984 0.9657
1.8116 -8.3277 -2.0030 0.9656
2.4037 -8.1863 -2.0052 0.9655
2.6958 -8.0996 -2.0063 0.9655
2.9848 -8.0025 -2.0073 0.9655
3.2702 -7.8950 -2.0084 0.9655
3.8289 -7.6492 -2.0104 0.9655
4.3691 -7.3637 -2.0123 0.9654
5.6191 -6.4848 -2.0166 0.9654
5.8492 -6.2825 -2.0174 0.9653
6.0720 -6.0720 -2.0182 0.9653
6.6929 -5.3934 -2.0202 0.9653
6.8831 -5.1526 -2.0207 0.9653
7.2370 -4.6509 -2.0218 0.9653
7.5538 -4.1247 -2.0227 0.9653
7.8317 -3.5766 -2.0235 0.9652
7.9556 -3.2953 -2.0238 0.9652
8.1724 -2.7200 -2.0243 0.9652
8.2650 -2.4268 -2.0245 0.9652
8.4181 -1.8312 -2.0247 0.9652
8.4783 -1.5297 -2.0248 0.9652
8.5928 -0.6146 -2.0247 0.9652
8.6087 -0.3075 -2.0245 0.9652
-7.5583 -0.5406 -1.9620 0.9692
-7.4091 -1.6117 -1.9632 0.9692
-7.2783 -2.1371 -1.9640 0.9691
-7.1107 -2.6522 -1.9650 0.9691
-7.0134 -2.9050 -1.9655 0.9691
-6.9072 -3.1544 -1.9661 0.9691
-6.6687 -3.6414 -1.9673 0.9691
-6.5367 -3.8784 -1.9679 0.9691
-6.3963 -4.1107 -1.9686 0.9691
-6.2478 -4.3379 -1.9693 0.9691
-6.0912 -4.5598 -1.9701 0.9690
-5.5756 -5.1911 -1.9725 0.9690
-5.3891 -5.3891 -1.9733 0.9690
-4.9953 -5.7649 -1.9751 0.9690
-4.7886 -5.9423 -1.9760 0.9690
-3.4261 -6.8445 -1.9818 0.9689
-2.9321 -7.0788 -1.9838 0.9688
-2.6790 -7.1827 -1.9849 0.9688
-2.1621 -7.3634 -1.9870 0.9688
-1.3648 -7.5645 -1.9902 0.9687
-1.0945 -7.6125 -1.9913 0.9687
-0.8225 -7.6509 -1.9924 0.9687
-0.2749 -7.6984 -1.9945 0.9687
0.0000 -7.7074 -1.9956 0.9687
1.3721 -7.6049 -2.0008 0.9686
1.9131 -7.4953 -2.0029 0.9685
2.1804 -7.4259 -2.0039 0.9685
3.2212 -7.0534 -2.0077 0.9685
3.9619 -6.6775 -2.0103 0.9684
4.6586 -6.2232 -2.0128 0.9684
4.8796 -6.0552 -2.0135 0.9684
5.0945 -5.8793 -2.0142 0.9684
6.0670 -4.8891 -2.0174 0.9683
6.4036 -4.4461 -2.0185 0.9683
6.5597 -4.2157 -2.0189 0.9683
6.7075 -3.9797 -2.0194 0.9683
6.8466 -3.7385 -2.0198 0.9683
6.9769 -3.4924 -2.0201 0.9683
7.0982 -3.2416 -2.0204 0.9683
7.3133 -2.7277 -2.0210 0.9683
7.4067 -2.4652 -2.0212 0.9683
7.6293 -1.6596 -2.0215 0.9683
7.8021 -0.2786 -2.0214 0.9683
-6.9340 -0.2476 -1.9642 0.9716
-6.9215 -0.4950 -1.9644 0.9716
-6.9002 -0.7419 -1.9647 0.9716
-6.8703 -0.9878 -1.9649 0.9716
-6.7844 -1.4759 -1.9655 0.9715
-6.6644 -1.9568 -1.9663 0.9715
-6.5917 -2.1939 -1.9667 0.9715
-6.4215 -2.6599 -1.9677 0.9715
-6.2187 -3.1129 -1.9687 0.9715
-6.1054 -3.3338 -1.9693 0.9715
-5.9844 -3.5507 -1.9699 0.9715
-5.7195 -3.9711 -1.9712 0.9715
-5.2679 -4.5647 -1.9733 0.9714
-5.1035 -4.7516 -1.9740 0.9714
-4.7553 -5.1076 -1.9756 0.9714
-3.7810 -5.8834 -1.9798 0.9713
-3.3547 -6.1437 -1.9816 0.9713
-3.1348 -6.2625 -1.9826 0.9713
-2.9106 -6.3734 -1.9835 0.9713
-2.2158 -6.6576 -1.9864 0.9713
-1.9778 -6.7357 -1.9873 0.9712
-1.7370 -6.8054 -1.9883 0.9712
-1.4937 -6.8664 -1.9893 0.9712
-1.2483 -6.9188 -1.9903 0.9712
-1.0010 -6.9623 -1.9913 0.9712
-0.7523 -6.9971 -1.9922 0.9712
-0.2514 -7.0399 -1.9942 0.9711
0.2517 -7.0468 -1.9962 0.9711
1.0050 -6.9896 -1.9991 0.9711
1.5024 -6.9066 -2.0009 0.9710
1.7488 -6.8517 -2.0019 0.9710
1.9931 -6.7880 -2.0028 0.9710
2.7109 -6.5447 -2.0054 0.9710
3.1735 -6.3399 -2.0071 0.9710
3.3992 -6.2251 -2.0079 0.9709
3.8375 -5.9713 -2.0094 0.9709
4.0497 -5.8327 -2.0102 0.9709
4.2568 -5.6864 -2.0109 0.9709
4.6548 -5.3719 -2.0122 0.9709
4.8451 -5.2040 -2.0129 0.9709
5.2071 -4.8479 -2.0141 0.9709
5.5426 -4.4665 -2.0151 0.9708
5.6999 -4.2669 -2.0156 0.9708
5.8499 -4.0616 -2.0161 0.9708
5.9924 -3.8511 -2.0165 0.9708
6.3731 -3.1901 -2.0176 0.9708
6.5863 -2.7281 -2.0181 0.9708
6.7655 -2.2518 -2.0186 0.9708
6.9098 -1.7636 -2.0188 0.9708
7.0908 -0.7623 -2.0189 0.9708
-6.3925 0.0000 -1.9662 0.9736
-6.3889 -0.2282 -1.9663 0.9736
-6.3772 -0.4561 -1.9665 0.9736
-6.2943 -1.1356 -1.9672 0.9736
-6.1992 -1.5823 -1.9679 0.9736
-6.1399 -1.8029 -1.9682 0.9736
-6.0729 -2.0213 -1.9686 0.9736
-5.9982 -2.2372 -1.9691 0.9736
-5.8260 -2.6606 -1.9700 0.9736
-5.7288 -2.8676 -1.9705 0.9735
-5.2684 -3.6579 -1.9727 0.9735
-4.9972 -4.0270 -1.9740 0.9735
-4.8520 -4.2043 -1.9747 0.9735
-4.7004 -4.3763 -1.9754 0.9735
-4.5429 -4.5429 -1.9761 0.9735
-4.0358 -5.0082 -1.9783 0.9734
-3.4816 -5.4174 -1.9807 0.9734
-2.8862 -5.7659 -1.9832 0.9734
-2.4696 -5.9623 -1.9850 0.9734
-2.2563 -6.0493 -1.9858 0.9733
-1.5989 -6.2643 -1.9885 0.9733
-1.3749 -6.3202 -1.9894 0.9733
-0.2314 -6.4786 -1.9940 0.9732
0.2316 -6.4845 -1.9958 0.9732
0.4631 -6.4750 -1.9966 0.9732
0.6942 -6.4572 -1.9975 0.9732
0.9247 -6.4311 -1.9984 0.9732
1.3823 -6.3542 -2.0001 0.9732
2.0562 -6.1778 -2.0026 0.9731
2.4936 -6.0202 -2.0042 0.9731
2.7080 -5.9297 -2.0050 0.9731
3.1264 -5.7256 -2.0065 0.9731
3.3300 -5.6124 -2.0072 0.9731
3.5294 -5.4919 -2.0079 0.9730
3.9148 -5.2296 -2.0093 0.9730
4.2806 -4.9400 -2.0105 0.9730
4.6247 -4.6247 -2.0117 0.9730
4.7881 -4.4579 -2.0122 0.9730
5.2410 -3.9233 -2.0136 0.9730
5.5097 -3.5409 -2.0145 0.9730
5.7502 -3.1399 -2.0151 0.9730
5.9613 -2.7224 -2.0157 0.9729
6.2200 -2.0702 -2.0163 0.9729
6.3526 -1.6214 -2.0166 0.9729
6.4525 -1.1642 -2.0167 0.9729
6.4899 -0.9331 -2.0167 0.9729
-5.9205 0.0000 -1.9680 0.9754
-5.9064 -0.4224 -1.9683 0.9753
-5.8881 -0.6330 -1.9685 0.9753
-5.8624 -0.8429 -1.9687 0.9753
-5.7412 -1.4654 -1.9696 0.9753
-5.6862 -1.6696 -1.9699 0.9753
-5.6240 -1.8719 -1.9703 0.9753
-5.5547 -2.0718 -1.9707 0.9753
-5.2081 -2.8439 -1.9725 0.9753
-5.1046 -3.0287 -1.9730 0.9753
-4.9946 -3.2099 -1.9735 0.9753
-4.8782 -3.3870 -1.9741 0.9753
-4.6269 -3.7286 -1.9753 0.9753
-4.4923 -3.8926 -1.9759 0.9753
-4.3519 -4.0518 -1.9765 0.9752
-4.2059 -4.2059 -1.9772 0.9752
-4.0545 -4.3549 -1.9779 0.9752
-3.8979 -4.4984 -1.9785 0.9752
-3.7362 -4.6363 -1.9793 0.9752
-3.5696 -4.7685 -1.9800 0.9752
-3.3984 -4.8946 -1.9807 0.9752
-3.2228 -5.0147 -1.9815 0.9752
-2.6714 -5.3368 -1.9838 0.9752
-2.4802 -5.4309 -1.9846 0.9751
-1.8878 -5.6719 -1.9870 0.9751
-1.6848 -5.7380 -1.9879 0.9751
-0.6406 -5.9585 -1.9921 0.9751
-0.2141 -5.9941 -1.9937 0.9750
0.0000 -6.0004 -1.9946 0.9750
0.2143 -5.9991 -1.9954 0.9750
0.4284 -5.9901 -1.9962 0.9750
1.2786 -5.8776 -1.9994 0.9750
1.4882 -5.8305 -2.0002 0.9750
1.6960 -5.7759 -2.0010 0.9749
1.9018 -5.7139 -2.0018 0.9749
2.1053 -5.6445 -2.0025 0.9749
2.3062 -5.5678 -2.0032 0.9749
2.6995 -5.3929 -2.0047 0.9749
2.8912 -5.2949 -2.0054 0.9749
3.0794 -5.1901 -2.0060 0.9749
3.7913 -4.7048 -2.0085 0.9749
4.1196 -4.4248 -2.0096 0.9748
4.2760 -4.2760 -2.0101 0.9748
4.7119 -3.7971 -2.0115 0.9748
4.8454 -3.6272 -2.0119 0.9748
4.9727 -3.4526 -2.0123 0.9748
5.0937 -3.2735 -2.0127 0.9748
5.2082 -3.0902 -2.0130 0.9748
5.3159 -2.9027 -2.0133 0.9748
5.4169 -2.7115 -2.0136 0.9748
5.5978 -2.3187 -2.0141 0.9748
5.6776 -2.1176 -2.0143 0.9748
5.8150 -1.7075 -2.0145 0.9748
5.8725 -1.4989 -2.0146 0.9748
5.9225 -1.2884 -2.0147 0.9748
5.9994 -0.8626 -2.0148 0.9748
-5.5078 0.0000 -1.9696 0.9769
-5.5046 -0.1966 -1.9697 0.9769
-5.4775 -0.5889 -1.9701 0.9769
-5.4536 -0.7841 -1.9703 0.9769
-5.4228 -0.9784 -1.9705 0.9769
-5.2315 -1.7412 -1.9717 0.9768
-5.0959 -2.1108 -1.9725 0.9768
-5.0183 -2.2918 -1.9729 0.9768
-4.9344 -2.4700 -1.9733 0.9768
-4.7479 -2.8171 -1.9742 0.9768
-4.5372 -3.1502 -1.9753 0.9768
-4.4230 -3.3110 -1.9758 0.9768
-4.3033 -3.4678 -1.9764 0.9768
-4.1780 -3.6202 -1.9769 0.9768
-4.0473 -3.7682 -1.9775 0.9768
-3.9114 -3.9114 -1.9781 0.9768
-3.7705 -4.0499 -1.9788 0.9768
-2.8293 -4.7686 -1.9829 0.9767
-2.4838 -4.9619 -1.9843 0.9767
-2.3059 -5.0493 -1.9851 0.9767
-2.1250 -5.1303 -1.9858 0.9767
-1.9413 -5.2049 -1.9866 0.9767
-1.7550 -5.2729 -1.9873 0.9767
-1.5663 -5.3342 -1.9881 0.9767
-1.3754 -5.3888 -1.9889 0.9767
-1.1827 -5.4366 -1.9896 0.9766
-0.9882 -5.4775 -1.9904 0.9766
-0.7924 -5.5114 -1.9912 0.9766
-0.3975 -5.5583 -1.9928 0.9766
1.1881 -5.4618 -1.9988 0.9765
1.3828 -5.4179 -1.9996 0.9765
1.5759 -5.3670 -2.0003 0.9765
1.7671 -5.3092 -2.0010 0.9765
1.9561 -5.2446 -2.0017 0.9765
2.5080 -5.0104 -2.0037 0.9765
2.6861 -4.9193 -2.0043 0.9765
3.3628 -4.4922 -2.0067 0.9764
3.8268 -4.1102 -2.0083 0.9764
4.2471 -3.6801 -2.0096 0.9764
4.3766 -3.5269 -2.0101 0.9764
4.5006 -3.3691 -2.0104 0.9764
4.6188 -3.2069 -2.0108 0.9764
4.7311 -3.0405 -2.0111 0.9764
4.9374 -2.6960 -2.0117 0.9764
5.3403 -1.7774 -2.0127 0.9764
5.4007 -1.5858 -2.0129 0.9764
5.5005 -1.1966 -2.0130 0.9764
5.5398 -0.9995 -2.0130 0.9764
5.5969 -0.6017 -2.0130 0.9764
5.6147 -0.4016 -2.0130 0.9764
-5.1433 -0.0000 -1.9710 0.9782
-5.1150 -0.5499 -1.9715 0.9782
-5.0926 -0.7322 -1.9717 0.9782
-5.0286 -1.0939 -1.9721 0.9782
-4.9871 -1.2729 -1.9724 0.9782
-4.9392 -1.4503 -1.9727 0.9782
-4.8850 -1.6259 -1.9730 0.9782
-4.7583 -1.9709 -1.9737 0.9782
-4.6858 -2.1399 -1.9741 0.9782
-4.3374 -2.7875 -1.9758 0.9782
-4.2362 -2.9412 -1.9763 0.9782
-4.1295 -3.0913 -1.9768 0.9781
-3.9006 -3.3799 -1.9779 0.9781
-3.5200 -3.7807 -1.9796 0.9781
-3.3838 -3.9052 -1.9802 0.9781
-3.2433 -4.0247 -1.9808 0.9781
-3.0986 -4.1392 -1.9814 0.9781
-2.7972 -4.3525 -1.9827 0.9781
-2.6410 -4.4511 -1.9834 0.9781
-2.3183 -4.6314 -1.9848 0.9781
-2.1523 -4.7128 -1.9854 0.9781
-1.4617 -4.9782 -1.9883 0.9780
-1.1037 -5.0735 -1.9897 0.9780
-0.9222 -5.1115 -1.9905 0.9780
-0.3709 -5.1865 -1.9926 0.9780
-0.1857 -5.1983 -1.9934 0.9780
0.3715 -5.1940 -1.9955 0.9779
0.5568 -5.1793 -1.9962 0.9779
0.7416 -5.1579 -1.9969 0.9779
1.4701 -5.0067 -1.9997 0.9779
2.1705 -4.7526 -2.0022 0.9779
2.3394 -4.6736 -2.0028 0.9779
2.6684 -4.4974 -2.0040 0.9778
3.1364 -4.1898 -2.0056 0.9778
3.4290 -3.9573 -2.0066 0.9778
3.8350 -3.5705 -2.0080 0.9778
4.0815 -3.2891 -2.0088 0.9778
4.3072 -2.9906 -2.0095 0.9778
4.4119 -2.8354 -2.0098 0.9778
4.6916 -2.3484 -2.0106 0.9778
4.8481 -2.0082 -2.0110 0.9778
4.9171 -1.8340 -2.0111 0.9778
4.9798 -1.6574 -2.0113 0.9778
5.0858 -1.2981 -2.0115 0.9778
5.1291 -1.1158 -2.0115 0.9778
5.1957 -0.7470 -2.0116 0.9778
5.2454 -0.1873 -2.0114 0.9778
-4.8190 -0.0000 -1.9723 0.9794
-4.7924 -0.5152 -1.9727 0.9794
-4.7714 -0.6860 -1.9729 0.9794
-4.7113 -1.0249 -1.9733 0.9794
-4.6723 -1.1925 -1.9736 0.9794
-4.4578 -1.8465 -1.9748 0.9794
-4.3899 -2.0048 -1.9751 0.9794
-4.3163 -2.1606 -1.9755 0.9794
-4.2373 -2.3138 -1.9759 0.9793
-4.1529 -2.4640 -1.9763 0.9793
-3.9683 -2.7553 -1.9772 0.9793
-3.2971 -3.5413 -1.9803 0.9793
-3.1695 -3.6578 -1.9809 0.9793
-2.9022 -3.8769 -1.9820 0.9793
-2.6198 -4.0765 -1.9833 0.9793
-2.3238 -4.2557 -1.9845 0.9793
-2.0156 -4.4135 -1.9858 0.9792
-1.8574 -4.4841 -1.9865 0.9792
-1.3688 -4.6617 -1.9885 0.9792
-0.5202 -4.8389 -1.9919 0.9792
-0.1738 -4.8670 -1.9932 0.9792
-0.0000 -4.8718 -1.9939 0.9792
0.1739 -4.8703 -1.9946 0.9792
0.6943 -4.8286 -1.9966 0.9791
0.8664 -4.8023 -1.9972 0.9791
1.5430 -4.6360 -1.9997 0.9791
1.7080 -4.5794 -2.0003 0.9791
1.8709 -4.5168 -2.0009 0.9791
2.1896 -4.3743 -2.0021 0.9791
2.3450 -4.2946 -2.0026 0.9791
2.6468 -4.1186 -2.0037 0.9791
2.9354 -3.9212 -2.0047 0.9791
3.2091 -3.7035 -2.0056 0.9790
3.3400 -3.5874 -2.0061 0.9790
3.4666 -3.4666 -2.0065 0.9790
3.7065 -3.2117 -2.0073 0.9790
3.9276 -2.9401 -2.0080 0.9790
4.1286 -2.6533 -2.0086 0.9790
4.2212 -2.5046 -2.0088 0.9790
4.3901 -2.1975 -2.0093 0.9790
4.4662 -2.0396 -2.0095 0.9790
4.5366 -1.8791 -2.0097 0.9790
4.6597 -1.5509 -2.0100 0.9790
4.8337 -0.8721 -2.0102 0.9790
4.8617 -0.6990 -2.0102 0.9790
-1.4571 -0.0520 -0.6354 0.9937
-1.4360 -0.1544 -0.6294 0.9937
-1.4180 -0.2039 -0.6244 0.9938
-1.3956 -0.2518 -0.6180 0.9938
-1.3688 -0.2978 -0.6105 0.9939
-1.3722 -0.4029 -0.6233 0.9938
-1.4401 -0.4793 -0.6615 0.9934
-1.5118 -0.5639 -0.7032 0.9930
-4.1245 -1.8836 -1.9761 0.9804
-4.0554 -2.0300 -1.9765 0.9804
-3.7282 -2.5886 -1.9781 0.9804
-3.6343 -2.7206 -1.9785 0.9804
-3.5357 -2.8492 -1.9790 0.9804
-3.4325 -2.9743 -1.9794 0.9804
-2.8536 -3.5411 -1.9820 0.9804
-2.5952 -3.7378 -1.9831 0.9803
-2.4608 -3.8292 -1.9837 0.9803
-2.1827 -3.9973 -1.9849 0.9803
-2.0393 -4.0739 -1.9855 0.9803
-1.8931 -4.1454 -1.9861 0.9803
-1.7445 -4.2116 -1.9867 0.9803
-1.4405 -4.3281 -1.9880 0.9803
-1.1288 -4.4226 -1.9892 0.9803
-0.8109 -4.4948 -1.9905 0.9803
-0.1632 -4.5703 -1.9931 0.9802
0.0000 -4.5746 -1.9937 0.9802
0.1633 -4.5732 -1.9943 0.9802
0.6519 -4.5338 -1.9962 0.9802
0.8135 -4.5090 -1.9968 0.9802
0.9742 -4.4784 -1.9974 0.9802
1.1338 -4.4422 -1.9980 0.9802
2.4847 -3.8662 -2.0029 0.9801
2.6217 -3.7760 -2.0034 0.9801
2.7554 -3.6808 -2.0039 0.9801
3.4791 -3.0146 -2.0063 0.9801
3.7832 -2.6267 -2.0072 0.9801
3.8750 -2.4903 -2.0075 0.9801
3.9620 -2.3507 -2.0077 0.9801
4.1919 -1.9144 -2.0084 0.9801
4.2579 -1.7637 -2.0085 0.9801
4.3184 -1.6107 -2.0087 0.9801
4.4228 -1.2987 -2.0089 0.9801
4.4665 -1.1400 -2.0090 0.9801
4.5044 -0.9799 -2.0090 0.9801
4.5980 -0.3289 -2.0090 0.9801
4.6066 -0.1645 -2.0089 0.9801
-1.2362 -0.0884 -0.5737 0.9946
-1.2261 -0.1318 -0.5708 0.9946
-1.1790 -0.2565 -0.5585 0.9947
-1.2345 -0.5114 -0.6185 0.9941
-3.8199 -1.9121 -1.9773 0.9813
-3.5115 -2.4381 -1.9788 0.9813
-3.4230 -2.5624 -1.9792 0.9813
-3.2329 -2.8013 -1.9801 0.9813
-3.0263 -3.0263 -1.9810 0.9813
-2.8041 -3.2361 -1.9820 0.9813
-2.6875 -3.3350 -1.9825 0.9813
-2.4440 -3.5200 -1.9836 0.9813
-1.7827 -3.9035 -1.9864 0.9813
-1.5005 -4.0231 -1.9876 0.9813
-1.2104 -4.1224 -1.9887 0.9812
-1.0628 -4.1642 -1.9893 0.9812
-0.7635 -4.2320 -1.9905 0.9812
-0.6122 -4.2578 -1.9911 0.9812
-0.1537 -4.3028 -1.9930 0.9812
0.3074 -4.2984 -1.9947 0.9812
0.4608 -4.2859 -1.9953 0.9812
0.6136 -4.2680 -1.9959 0.9812
1.3636 -4.0970 -1.9987 0.9811
1.5094 -4.0468 -1.9992 0.9811
1.7952 -3.9308 -2.0003 0.9811
1.9348 -3.8652 -2.0008 0.9811
2.0720 -3.7946 -2.0013 0.9811
2.2067 -3.7192 -2.0018 0.9811
2.3386 -3.6389 -2.0022 0.9811
2.4675 -3.5539 -2.0027 0.9811
2.5933 -3.4643 -2.0031 0.9811
2.8350 -3.2718 -2.0039 0.9811
3.0624 -3.0624 -2.0047 0.9811
3.2741 -2.8371 -2.0054 0.9811
3.5602 -2.4719 -2.0063 0.9811
3.7284 -2.2122 -2.0068 0.9811
3.8776 -1.9410 -2.0072 0.9811
4.0638 -1.5157 -2.0076 0.9811
4.1155 -1.3698 -2.0077 0.9811
4.2388 -0.9221 -2.0080 0.9811
4.2691 -0.7702 -2.0080 0.9811
4.2938 -0.6174 -2.0080 0.9811
-1.0817 0.0000 -0.5306 0.9952
-1.0803 -0.0386 -0.5302 0.9952
-1.0705 -0.1151 -0.5281 0.9952
-1.0611 -0.1526 -0.5258 0.9952
-1.0518 -0.1898 -0.5242 0.9952
-1.0422 -0.2267 -0.5232 0.9953
-1.0307 -0.2631 -0.5218 0.9953
-1.0025 -0.3337 -0.5183 0.9953
-1.0119 -0.3774 -0.5298 0.9952
-1.0444 -0.4770 -0.5632 0.9949
-3.2312 -2.4189 -1.9799 0.9822
-3.1435 -2.5332 -1.9803 0.9822
-3.0517 -2.6443 -1.9807 0.9822
-2.8566 -2.8566 -1.9816 0.9822
-2.6467 -3.0545 -1.9825 0.9822
-2.4233 -3.2371 -1.9835 0.9821
-2.0650 -3.4803 -1.9850 0.9821
-1.9399 -3.5527 -1.9856 0.9821
-1.8124 -3.6207 -1.9861 0.9821
-1.5503 -3.7428 -1.9872 0.9821
-1.1423 -3.8904 -1.9889 0.9821
-1.0030 -3.9298 -1.9894 0.9821
-0.8623 -3.9642 -1.9900 0.9821
-0.7205 -3.9936 -1.9906 0.9821
-0.5777 -4.0179 -1.9911 0.9821
-0.4340 -4.0371 -1.9917 0.9821
-0.1450 -4.0601 -1.9928 0.9821
0.0000 -4.0638 -1.9934 0.9821
0.1451 -4.0624 -1.9940 0.9821
0.2901 -4.0558 -1.9945 0.9820
0.7226 -4.0048 -1.9962 0.9820
1.0069 -3.9452 -1.9972 0.9820
1.9547 -3.5798 -2.0007 0.9820
2.0817 -3.5085 -2.0011 0.9820
2.2061 -3.4327 -2.0016 0.9820
2.3277 -3.3525 -2.0020 0.9820
2.5620 -3.1792 -2.0028 0.9820
2.6743 -3.0863 -2.0032 0.9820
2.7833 -2.9894 -2.0036 0.9820
3.3582 -2.3316 -2.0054 0.9820
3.4397 -2.2106 -2.0056 0.9819
3.5168 -2.0866 -2.0059 0.9819
3.6574 -1.8308 -2.0062 0.9819
3.7207 -1.6992 -2.0064 0.9819
3.8330 -1.4296 -2.0067 0.9819
3.9256 -1.1527 -2.0069 0.9819
3.9643 -1.0118 -2.0069 0.9819
3.9980 -0.8697 -2.0070 0.9819
4.0266 -0.7265 -2.0070 0.9819
4.0500 -0.5823 -2.0070 0.9819
-0.9893 -0.0353 -0.5135 0.9955
-0.9838 -0.1058 -0.5133 0.9956
-0.9524 -0.2431 -0.5099 0.9956
-0.9271 -0.3840 -0.5206 0.9955
-0.9326 -0.4259 -0.5319 0.9954
-0.9416 -0.4713 -0.5463 0.9953
-3.2104 -2.0632 -1.9798 0.9830
-3.1353 -2.1769 -1.9801 0.9829
-3.0561 -2.2878 -1.9805 0.9829
-2.9731 -2.3959 -1.9809 0.9829
-2.8863 -2.5010 -1.9813 0.9829
-2.6041 -2.7970 -1.9825 0.9829
-2.5032 -2.8888 -1.9830 0.9829
-2.0685 -3.2187 -1.9849 0.9829
-1.7139 -3.4239 -1.9864 0.9829
-1.5910 -3.4838 -1.9869 0.9829
-1.4660 -3.5393 -1.9874 0.9829
-1.3391 -3.5903 -1.9879 0.9829
-1.2104 -3.6368 -1.9885 0.9829
-0.9484 -3.7159 -1.9895 0.9829
-0.8154 -3.7484 -1.9901 0.9829
-0.6813 -3.7761 -1.9906 0.9829
-0.2740 -3.8304 -1.9922 0.9828
-0.1371 -3.8387 -1.9927 0.9828
0.1372 -3.8408 -1.9938 0.9828
0.4110 -3.8233 -1.9949 0.9828
0.5474 -3.8071 -1.9954 0.9828
0.8180 -3.7603 -1.9964 0.9828
0.9519 -3.7296 -1.9969 0.9828
1.7254 -3.4470 -1.9997 0.9828
1.8477 -3.3839 -2.0002 0.9828
1.9678 -3.3165 -2.0006 0.9828
2.2002 -3.1690 -2.0014 0.9828
2.5278 -2.9172 -2.0025 0.9828
2.6308 -2.8256 -2.0029 0.9828
3.0080 -2.4240 -2.0041 0.9827
3.0930 -2.3154 -2.0044 0.9827
3.2510 -2.0893 -2.0048 0.9827
3.3925 -1.8524 -2.0052 0.9827
3.5166 -1.6060 -2.0056 0.9827
3.5719 -1.4795 -2.0057 0.9827
3.6227 -1.3512 -2.0058 0.9827
3.7468 -0.9563 -2.0061 0.9827
3.8056 -0.6866 -2.0061 0.9827
3.8277 -0.5503 -2.0061 0.9827
3.8449 -0.4134 -2.0061 0.9827
3.8571 -0.2759 -2.0061 0.9827
-0.9161 -0.0655 -0.5030 0.9958
-0.9127 -0.0981 -0.5028 0.9958
-0.9077 -0.1305 -0.5022 0.9958
-0.9011 -0.1626 -0.5015 0.9958
-0.8727 -0.2562 -0.4982 0.9959
-0.8603 -0.2863 -0.4966 0.9959
-0.8479 -0.3512 -0.5027 0.9958
-0.8516 -0.4263 -0.5216 0.9957
-0.8507 -0.4645 -0.5309 0.9956
-0.8524 -0.5058 -0.5429 0.9955
-2.5596 -2.5596 -1.9826 0.9836
-2.4671 -2.6499 -1.9830 0.9836
-2.3715 -2.7368 -1.9834 0.9836
-2.2728 -2.8203 -1.9838 0.9836
-2.1711 -2.9003 -1.9843 0.9836
-2.0667 -2.9766 -1.9847 0.9836
-1.8500 -3.1179 -1.9857 0.9836
-1.7379 -3.1827 -1.9861 0.9836
-1.5072 -3.3002 -1.9871 0.9836
-0.7724 -3.5505 -1.9901 0.9836
-0.6453 -3.5767 -1.9906 0.9836
-0.5174 -3.5984 -1.9911 0.9836
-0.2595 -3.6280 -1.9921 0.9835
-0.1299 -3.6359 -1.9926 0.9835
0.1299 -3.6377 -1.9937 0.9835
0.9015 -3.5321 -1.9966 0.9835
1.0273 -3.4985 -1.9970 0.9835
1.1517 -3.4604 -1.9975 0.9835
1.3963 -3.3710 -1.9984 0.9835
1.5160 -3.3197 -1.9988 0.9835
1.6339 -3.2642 -1.9993 0.9835
1.7497 -3.2044 -1.9997 0.9835
1.9747 -3.0726 -2.0005 0.9835
2.1897 -2.9251 -2.0012 0.9835
2.5854 -2.5854 -2.0025 0.9835
2.8481 -2.2952 -2.0034 0.9835
3.0053 -2.0866 -2.0039 0.9835
3.1472 -1.8673 -2.0043 0.9834
3.2121 -1.7540 -2.0045 0.9834
3.3296 -1.5206 -2.0048 0.9834
3.4300 -1.2793 -2.0050 0.9834
3.4736 -1.1561 -2.0051 0.9834
3.5128 -1.0315 -2.0052 0.9834
3.6032 -0.6501 -2.0053 0.9834
3.6403 -0.3914 -2.0053 0.9834
3.6588 -0.1307 -2.0052 0.9834
-0.8550 0.0000 -0.4936 0.9961
-0.8548 -0.0305 -0.4938 0.9961
-0.8531 -0.0610 -0.4938 0.9961
-0.8499 -0.0914 -0.4935 0.9961
-0.8393 -0.1514 -0.4924 0.9961
-0.8230 -0.2101 -0.4904 0.9961
-0.7809 -0.3566 -0.4957 0.9960
-0.7806 -0.3908 -0.5040 0.9960
-0.7696 -0.4946 -0.5282 0.9958
-2.5948 -2.2484 -1.9823 0.9843
-2.5133 -2.3400 -1.9826 0.9843
-2.4287 -2.4287 -1.9830 0.9843
-2.1565 -2.6760 -1.9842 0.9843
-2.0600 -2.7519 -1.9846 0.9842
-1.7552 -2.9582 -1.9859 0.9842
-1.6489 -3.0197 -1.9864 0.9842
-1.5404 -3.0773 -1.9868 0.9842
-1.4299 -3.1311 -1.9873 0.9842
-1.2035 -3.2266 -1.9882 0.9842
-0.8523 -3.3392 -1.9897 0.9842
-0.7327 -3.3683 -1.9901 0.9842
-0.6122 -3.3931 -1.9906 0.9842
-0.4908 -3.4136 -1.9911 0.9842
-0.2461 -3.4416 -1.9921 0.9842
0.0000 -3.4520 -1.9930 0.9842
0.2464 -3.4449 -1.9940 0.9842
0.3693 -3.4347 -1.9945 0.9842
0.4917 -3.4202 -1.9949 0.9842
0.7348 -3.3779 -1.9958 0.9842
0.8551 -3.3503 -1.9963 0.9842
0.9744 -3.3183 -1.9967 0.9842
1.2091 -3.2418 -1.9976 0.9841
1.3243 -3.1972 -1.9980 0.9841
1.6595 -3.0392 -1.9992 0.9841
1.7673 -2.9786 -1.9996 0.9841
1.8728 -2.9141 -2.0000 0.9841
1.9760 -2.8460 -2.0003 0.9841
2.0767 -2.7741 -2.0007 0.9841
2.1747 -2.6987 -2.0010 0.9841
2.2700 -2.6198 -2.0013 0.9841
2.7010 -2.1766 -2.0027 0.9841
2.7773 -2.0790 -2.0030 0.9841
2.9192 -1.8760 -2.0034 0.9841
2.9845 -1.7708 -2.0036 0.9841
3.0461 -1.6633 -2.0038 0.9841
3.2941 -1.0964 -2.0044 0.9841
3.3312 -0.9781 -2.0045 0.9841
3.3641 -0.8587 -2.0045 0.9841
3.4169 -0.6165 -2.0046 0.9841
3.4367 -0.4941 -2.0046 0.9841
