ply
format ascii 1.0
element vertex 752
property float32 x
property float32 y
property float32 z
property float32 I
end_header
-9.2140 -1.6624 -1.9791 0.9624
-9.1499 -1.9904 -1.9793 0.9624
-8.9870 -2.6388 -1.9799 0.9624
-8.7784 -3.2742 -1.9805 0.9624
-8.6573 -3.5860 -1.9808 0.9624
-8.3823 -4.1959 -1.9814 0.9624
-8.2287 -4.4933 -1.9818 0.9624
-8.0646 -4.7850 -1.9822 0.9624
-7.0942 -6.1472 -1.9842 0.9623
-6.8718 -6.3979 -1.9847 0.9623
-6.4008 -6.8750 -1.9856 0.9623
-6.1528 -7.1007 -1.9860 0.9623
-5.8968 -7.3175 -1.9865 0.9623
-5.3624 -7.7233 -1.9875 0.9623
-5.0846 -7.9118 -1.9880 0.9623
-4.5095 -8.2585 -1.9890 0.9623
-3.9108 -8.5636 -1.9900 0.9622
-3.6036 -8.7000 -1.9905 0.9622
-3.2917 -8.8253 -1.9910 0.9622
-2.9754 -8.9395 -1.9916 0.9622
-1.3426 -9.3379 -1.9941 0.9622
-1.0087 -9.3823 -1.9947 0.9622
-0.6733 -9.4148 -1.9952 0.9621
-0.3370 -9.4352 -1.9957 0.9621
0.0000 -9.4436 -1.9962 0.9621
0.3371 -9.4399 -1.9967 0.9621
0.6740 -9.4242 -1.9972 0.9621
1.0102 -9.3964 -1.9977 0.9621
1.3453 -9.3566 -1.9981 0.9621
1.6788 -9.3049 -1.9986 0.9621
2.3394 -9.1656 -1.9995 0.9621
2.6656 -9.0783 -2.0000 0.9621
2.9886 -8.9793 -2.0004 0.9620
3.3079 -8.8688 -2.0008 0.9620
3.9338 -8.6137 -2.0017 0.9620
4.2395 -8.4695 -2.0020 0.9620
5.1234 -7.9721 -2.0031 0.9620
5.4056 -7.7855 -2.0035 0.9620
5.6809 -7.5888 -2.0038 0.9620
5.9491 -7.3823 -2.0041 0.9620
6.4624 -6.9411 -2.0047 0.9620
6.9428 -6.4640 -2.0052 0.9620
7.1699 -6.2128 -2.0054 0.9620
7.3879 -5.9535 -2.0056 0.9620
7.7952 -5.4123 -2.0060 0.9619
8.1626 -4.8431 -2.0063 0.9619
8.3308 -4.5489 -2.0064 0.9619
8.6349 -3.9434 -2.0066 0.9619
8.7704 -3.6328 -2.0066 0.9619
9.1088 -2.6746 -2.0067 0.9619
9.2763 -2.0179 -2.0067 0.9619
9.3421 -1.6855 -2.0066 0.9619
9.3960 -1.3510 -2.0066 0.9619
9.4676 -0.6771 -2.0064 0.9619
9.4851 -0.3388 -2.0062 0.9619
-8.4227 -0.0000 -1.9795 0.9660
-8.4025 -0.6010 -1.9798 0.9660
-8.2925 -1.4961 -1.9804 0.9660
-8.1664 -2.0844 -1.9808 0.9660
-8.0879 -2.3748 -1.9811 0.9660
-7.8999 -2.9465 -1.9816 0.9659
-7.5431 -3.7758 -1.9825 0.9659
-7.4047 -4.0433 -1.9828 0.9659
-7.2569 -4.3058 -1.9832 0.9659
-6.5751 -5.2986 -1.9846 0.9659
-6.1828 -5.7564 -1.9854 0.9659
-5.3051 -6.5832 -1.9871 0.9659
-4.8240 -6.9480 -1.9879 0.9658
-4.3180 -7.2777 -1.9888 0.9658
-4.0565 -7.4289 -1.9893 0.9658
-3.7896 -7.5707 -1.9897 0.9658
-3.5178 -7.7029 -1.9902 0.9658
-3.2414 -7.8254 -1.9907 0.9658
-2.9607 -7.9379 -1.9911 0.9658
-2.6761 -8.0404 -1.9916 0.9658
-1.5060 -8.3473 -1.9935 0.9657
-0.3030 -8.4845 -1.9953 0.9657
0.3032 -8.4883 -1.9962 0.9657
2.1032 -8.2404 -1.9988 0.9657
2.3965 -8.1617 -1.9992 0.9657
2.6868 -8.0726 -1.9996 0.9656
2.9738 -7.9731 -1.9999 0.9656
3.2571 -7.8633 -2.0003 0.9656
3.5363 -7.7434 -2.0007 0.9656
4.3460 -7.3248 -2.0017 0.9656
5.8086 -6.2388 -2.0034 0.9656
6.2402 -5.8099 -2.0038 0.9656
6.4443 -5.5840 -2.0040 0.9656
6.8274 -5.1110 -2.0044 0.9656
7.1757 -4.6116 -2.0047 0.9656
7.4873 -4.0884 -2.0049 0.9656
7.8823 -3.2650 -2.0052 0.9656
8.0954 -2.6944 -2.0052 0.9655
8.3369 -1.8136 -2.0052 0.9656
8.3961 -1.5148 -2.0051 0.9656
8.5090 -0.6086 -2.0049 0.9656
-7.6455 -0.2731 -1.9808 0.9689
-7.6076 -0.8179 -1.9811 0.9689
-7.5742 -1.0890 -1.9813 0.9689
-7.4787 -1.6269 -1.9817 0.9689
-7.4166 -1.8930 -1.9819 0.9689
-7.3452 -2.1567 -1.9821 0.9689
-7.2644 -2.4178 -1.9823 0.9689
-7.1743 -2.6759 -1.9826 0.9689
-6.8500 -3.4289 -1.9834 0.9688
-6.4070 -4.1176 -1.9719 0.9690
-6.1372 -4.5943 -1.9849 0.9688
-5.6139 -5.2268 -1.9860 0.9688
-5.2287 -5.6160 -1.9867 0.9688
-5.0259 -5.8002 -1.9871 0.9688
-4.8166 -5.9771 -1.9875 0.9688
-4.3797 -6.3079 -1.9883 0.9688
-4.1526 -6.4616 -1.9887 0.9688
-3.4402 -6.8727 -1.9900 0.9687
-3.1934 -6.9926 -1.9904 0.9687
-2.9424 -7.1036 -1.9908 0.9687
-2.6876 -7.2057 -1.9912 0.9687
-2.1676 -7.3822 -1.9921 0.9687
-1.9031 -7.4564 -1.9925 0.9687
-0.8233 -7.6579 -1.9942 0.9687
-0.5496 -7.6840 -1.9946 0.9687
0.0000 -7.7068 -1.9954 0.9687
0.2751 -7.7034 -1.9958 0.9687
0.8243 -7.6673 -1.9966 0.9686
1.0977 -7.6344 -1.9970 0.9686
1.3697 -7.5919 -1.9974 0.9686
3.4579 -6.9081 -2.0002 0.9686
3.9431 -6.6458 -2.0008 0.9686
4.1784 -6.5018 -2.0011 0.9686
4.4084 -6.3494 -2.0014 0.9686
4.6329 -6.1888 -2.0016 0.9686
5.2697 -5.6601 -2.0023 0.9686
5.6612 -5.2708 -2.0027 0.9685
6.0239 -4.8544 -2.0031 0.9685
6.1938 -4.6366 -2.0033 0.9685
6.3558 -4.4129 -2.0034 0.9685
6.7923 -3.7088 -2.0037 0.9685
6.9206 -3.4642 -2.0038 0.9685
7.0401 -3.2151 -2.0039 0.9685
7.2518 -2.7048 -2.0040 0.9685
7.3438 -2.4443 -2.0040 0.9685
7.4264 -2.1806 -2.0040 0.9685
7.4994 -1.9141 -2.0040 0.9685
7.5629 -1.6452 -2.0040 0.9685
7.6167 -1.3742 -2.0039 0.9685
-6.9959 -0.2499 -1.9818 0.9713
-6.9612 -0.7484 -1.9820 0.9713
-6.8912 -1.2433 -1.9824 0.9713
-6.8431 -1.4886 -1.9825 0.9713
-6.7208 -1.9734 -1.9829 0.9713
-6.5643 -2.4484 -1.9834 0.9713
-6.4735 -2.6814 -1.9836 0.9713
-6.3745 -2.9112 -1.9839 0.9713
-6.0292 -3.5773 -1.9847 0.9713
-5.8986 -3.7908 -1.9849 0.9713
-5.7604 -3.9995 -1.9852 0.9713
-5.1358 -4.7817 -1.9865 0.9712
-4.7833 -5.1376 -1.9872 0.9712
-4.0063 -5.7702 -1.9886 0.9712
-3.5858 -6.0436 -1.9894 0.9712
-2.2218 -6.6754 -1.9917 0.9712
-1.9825 -6.7517 -1.9921 0.9712
-1.4964 -6.8787 -1.9928 0.9712
-1.0022 -6.9706 -1.9936 0.9711
-0.7529 -7.0033 -1.9940 0.9711
-0.5026 -7.0270 -1.9944 0.9711
0.2516 -7.0444 -1.9955 0.9711
0.5030 -7.0323 -1.9959 0.9711
1.0037 -6.9810 -1.9966 0.9711
1.2525 -6.9419 -1.9969 0.9711
1.4997 -6.8940 -1.9973 0.9711
1.7451 -6.8372 -1.9976 0.9711
1.9884 -6.7717 -1.9980 0.9711
2.2292 -6.6975 -1.9983 0.9711
2.7021 -6.5235 -1.9989 0.9711
3.1615 -6.3160 -1.9995 0.9711
3.6051 -6.0760 -2.0000 0.9711
4.2355 -5.6579 -2.0008 0.9710
4.6294 -5.3426 -2.0012 0.9710
4.8176 -5.1745 -2.0015 0.9710
4.9997 -4.9997 -2.0016 0.9710
5.1754 -4.8185 -2.0018 0.9710
5.3446 -4.6311 -2.0020 0.9710
5.8102 -4.0341 -2.0024 0.9710
6.0839 -3.6097 -2.0026 0.9710
6.2091 -3.3904 -2.0027 0.9710
6.6291 -2.4725 -2.0029 0.9710
6.7132 -2.2344 -2.0030 0.9710
6.7887 -1.9934 -2.0030 0.9710
6.8555 -1.7498 -2.0030 0.9710
7.0341 -0.7562 -2.0028 0.9710
7.0564 -0.5047 -2.0027 0.9710
7.0696 -0.2525 -2.0026 0.9710
-6.4454 -0.0000 -1.9825 0.9734
-6.4297 -0.4599 -1.9827 0.9734
-6.4096 -0.6891 -1.9828 0.9734
-6.3814 -0.9175 -1.9830 0.9734
-6.3451 -1.1448 -1.9831 0.9734
-6.2483 -1.5948 -1.9835 0.9734
-5.9602 -2.4688 -1.9843 0.9734
-5.8690 -2.6803 -1.9845 0.9734
-5.7703 -2.8884 -1.9847 0.9734
-5.6642 -3.0929 -1.9850 0.9734
-5.5509 -3.2935 -1.9852 0.9734
-5.3032 -3.6821 -1.9858 0.9733
-5.1692 -3.8696 -1.9861 0.9733
-5.0285 -4.0522 -1.9864 0.9733
-4.8814 -4.2298 -1.9867 0.9733
-4.7280 -4.4020 -1.9870 0.9733
-4.5686 -4.5686 -1.9873 0.9733
-4.4033 -4.7295 -1.9876 0.9733
-4.2324 -4.8845 -1.9879 0.9733
-4.0560 -5.0333 -1.9882 0.9733
-3.3007 -5.5630 -1.9896 0.9733
-3.1006 -5.6783 -1.9899 0.9733
-2.8964 -5.7864 -1.9903 0.9733
-2.6885 -5.8871 -1.9906 0.9733
-2.4771 -5.9804 -1.9910 0.9733
-2.2625 -6.0661 -1.9913 0.9733
-2.0449 -6.1441 -1.9917 0.9733
-1.8247 -6.2143 -1.9921 0.9733
-1.6020 -6.2765 -1.9924 0.9733
-1.3772 -6.3308 -1.9928 0.9733
-1.1506 -6.3771 -1.9931 0.9732
-0.9224 -6.4153 -1.9935 0.9732
-0.6929 -6.4453 -1.9938 0.9732
-0.4625 -6.4670 -1.9942 0.9732
0.6937 -6.4519 -1.9959 0.9732
0.9237 -6.4241 -1.9962 0.9732
1.1525 -6.3881 -1.9965 0.9732
1.3800 -6.3439 -1.9969 0.9732
1.6058 -6.2915 -1.9972 0.9732
1.8296 -6.2312 -1.9975 0.9732
2.4863 -6.0025 -1.9984 0.9732
4.4324 -4.7607 -2.0007 0.9731
4.5999 -4.5999 -2.0009 0.9731
4.7616 -4.4332 -2.0010 0.9731
5.3454 -3.7114 -2.0016 0.9731
5.8203 -2.9134 -2.0019 0.9731
6.0987 -2.2747 -2.0021 0.9731
6.1761 -2.0556 -2.0021 0.9731
6.2456 -1.8339 -2.0021 0.9731
6.3604 -1.3836 -2.0021 0.9731
6.4919 -0.4643 -2.0019 0.9731
-5.9516 -0.4257 -1.9834 0.9752
-5.9068 -0.8492 -1.9836 0.9752
-5.8731 -1.0597 -1.9838 0.9752
-5.8320 -1.2687 -1.9839 0.9752
-5.7835 -1.4762 -1.9841 0.9752
-5.6645 -1.8853 -1.9845 0.9751
-5.5941 -2.0865 -1.9846 0.9751
-5.5166 -2.2851 -1.9849 0.9751
-5.3407 -2.6734 -1.9853 0.9751
-5.1376 -3.0483 -1.9857 0.9751
-4.7842 -3.5814 -1.9865 0.9751
-4.6539 -3.7504 -1.9868 0.9751
-4.3757 -4.0740 -1.9873 0.9751
-4.0751 -4.3770 -1.9879 0.9751
-3.7536 -4.6580 -1.9885 0.9751
-3.5855 -4.7897 -1.9888 0.9751
-3.2357 -5.0349 -1.9894 0.9751
-3.0545 -5.1480 -1.9898 0.9751
-2.8692 -5.2546 -1.9901 0.9751
-2.4879 -5.4477 -1.9907 0.9751
-2.2922 -5.5339 -1.9911 0.9751
-2.0936 -5.6132 -1.9914 0.9751
-1.4823 -5.8077 -1.9924 0.9751
-1.2743 -5.8579 -1.9927 0.9750
-0.6411 -5.9635 -1.9937 0.9750
-0.2141 -5.9959 -1.9944 0.9750
0.0000 -6.0007 -1.9947 0.9750
1.0663 -5.9100 -1.9962 0.9750
1.2767 -5.8690 -1.9965 0.9750
1.4856 -5.8205 -1.9968 0.9750
1.6926 -5.7646 -1.9971 0.9750
1.8976 -5.7013 -1.9974 0.9750
2.1001 -5.6307 -1.9976 0.9750
3.0684 -5.1715 -1.9989 0.9750
3.7747 -4.6842 -1.9997 0.9750
3.9399 -4.5469 -1.9999 0.9750
4.2549 -4.2549 -2.0002 0.9750
4.5483 -3.9411 -2.0005 0.9750
4.6864 -3.7765 -2.0006 0.9749
5.0641 -3.2545 -2.0010 0.9749
5.1772 -3.0718 -2.0011 0.9749
5.4764 -2.5010 -2.0012 0.9749
5.6411 -2.1040 -2.0013 0.9749
5.7769 -1.6962 -2.0013 0.9749
5.8831 -1.2798 -2.0013 0.9749
5.9249 -1.0690 -2.0013 0.9749
5.9858 -0.6435 -2.0012 0.9749
6.0048 -0.4295 -2.0011 0.9749
-5.5442 -0.1980 -1.9839 0.9767
-5.4608 -0.9853 -1.9844 0.9767
-5.4226 -1.1796 -1.9845 0.9767
-5.3254 -1.5637 -1.9848 0.9767
-5.2667 -1.7529 -1.9850 0.9767
-5.2012 -1.9400 -1.9852 0.9767
-5.0506 -2.3065 -1.9856 0.9767
-4.8742 -2.6615 -1.9860 0.9767
-4.4479 -3.3296 -1.9869 0.9767
-4.3267 -3.4867 -1.9871 0.9767
-4.2001 -3.6394 -1.9874 0.9767
-4.0680 -3.7875 -1.9877 0.9767
-3.7885 -4.0692 -1.9882 0.9767
-3.6413 -4.2024 -1.9885 0.9767
-3.4895 -4.3303 -1.9888 0.9767
-3.3332 -4.4527 -1.9890 0.9766
-2.8394 -4.7856 -1.9899 0.9766
-2.6672 -4.8846 -1.9902 0.9766
-2.4915 -4.9775 -1.9905 0.9766
-2.1308 -5.1441 -1.9911 0.9766
-1.9461 -5.2177 -1.9914 0.9766
-1.7589 -5.2846 -1.9917 0.9766
-1.5694 -5.3449 -1.9921 0.9766
-1.1845 -5.4449 -1.9927 0.9766
-0.9895 -5.4846 -1.9930 0.9766
-0.7932 -5.5172 -1.9933 0.9766
-0.5959 -5.5429 -1.9936 0.9766
-0.3978 -5.5614 -1.9939 0.9766
-0.1990 -5.5729 -1.9942 0.9766
0.1991 -5.5746 -1.9948 0.9766
0.3980 -5.5647 -1.9951 0.9766
0.5965 -5.5478 -1.9954 0.9766
1.3807 -5.4094 -1.9965 0.9766
1.5731 -5.3574 -1.9967 0.9766
1.7635 -5.2985 -1.9970 0.9766
1.9517 -5.2328 -1.9972 0.9766
2.1375 -5.1605 -1.9975 0.9766
2.5008 -4.9960 -1.9979 0.9765
2.8515 -4.8059 -1.9984 0.9765
3.0215 -4.7016 -1.9986 0.9765
3.1877 -4.5912 -1.9988 0.9765
3.3499 -4.4749 -1.9990 0.9765
3.5078 -4.3529 -1.9991 0.9765
3.9539 -3.9539 -1.9996 0.9765
4.0928 -3.8106 -1.9998 0.9765
4.2265 -3.6623 -1.9999 0.9765
4.4775 -3.3519 -2.0001 0.9765
5.0025 -2.5041 -2.0005 0.9765
5.0888 -2.3240 -2.0006 0.9765
5.1686 -2.1409 -2.0006 0.9765
5.4208 -1.3836 -2.0007 0.9765
5.4667 -1.1892 -2.0007 0.9765
5.5056 -0.9933 -2.0006 0.9765
5.5622 -0.5980 -2.0005 0.9765
5.5798 -0.3991 -2.0005 0.9765
-5.1781 -0.0000 -1.9843 0.9781
-5.1264 -0.7371 -1.9847 0.9781
-5.0972 -0.9196 -1.9849 0.9781
-5.0615 -1.1011 -1.9850 0.9781
-4.9707 -1.4596 -1.9853 0.9781
-4.9159 -1.6362 -1.9855 0.9781
-4.8548 -1.8107 -1.9856 0.9780
-4.7141 -2.1528 -1.9860 0.9780
-4.6347 -2.3200 -1.9862 0.9780
-4.3615 -2.8030 -1.9868 0.9780
-4.1513 -3.1077 -1.9872 0.9780
-4.0382 -3.2542 -1.9875 0.9780
-3.9200 -3.3967 -1.9877 0.9780
-3.6686 -3.6686 -1.9882 0.9780
-3.5358 -3.7977 -1.9885 0.9780
-3.1108 -4.1555 -1.9892 0.9780
-2.3251 -4.6451 -1.9906 0.9780
-1.8161 -4.8691 -1.9915 0.9780
-1.6414 -4.9315 -1.9918 0.9780
-1.2857 -5.0375 -1.9923 0.9780
-1.1053 -5.0809 -1.9926 0.9780
-0.9234 -5.1178 -1.9929 0.9780
-0.7402 -5.1483 -1.9932 0.9780
-0.3711 -5.1894 -1.9938 0.9780
-0.1857 -5.2001 -1.9940 0.9780
0.0000 -5.2041 -1.9943 0.9780
0.9246 -5.1249 -1.9957 0.9779
1.1071 -5.0893 -1.9959 0.9779
1.4677 -4.9986 -1.9964 0.9779
1.6454 -4.9436 -1.9966 0.9779
1.8210 -4.8823 -1.9969 0.9779
2.1651 -4.7410 -1.9973 0.9779
2.4984 -4.5754 -1.9977 0.9779
2.6603 -4.4838 -1.9979 0.9779
2.9740 -4.2834 -1.9983 0.9779
3.1253 -4.1749 -1.9985 0.9779
3.2726 -4.0610 -1.9987 0.9779
3.4157 -3.9419 -1.9988 0.9779
3.5545 -3.8178 -1.9990 0.9779
3.9430 -3.4166 -1.9994 0.9779
4.0627 -3.2739 -1.9995 0.9779
4.6669 -2.3361 -2.0000 0.9779
4.8218 -1.9973 -2.0001 0.9779
4.8901 -1.8239 -2.0001 0.9779
4.9521 -1.6482 -2.0001 0.9779
5.0571 -1.2907 -2.0001 0.9779
5.0999 -1.1094 -2.0001 0.9779
5.1890 -0.5579 -2.0000 0.9779
5.2152 -0.1863 -1.9998 0.9779
-4.8467 -0.1731 -1.9849 0.9793
-4.8377 -0.3460 -1.9850 0.9793
-4.7738 -0.8613 -1.9853 0.9793
-4.6553 -1.3669 -1.9857 0.9792
-4.6039 -1.5323 -1.9859 0.9792
-4.4148 -2.0162 -1.9864 0.9792
-4.3404 -2.1727 -1.9865 0.9792
-3.9886 -2.7694 -1.9873 0.9792
-3.6709 -3.1809 -1.9880 0.9792
-3.5555 -3.3103 -1.9882 0.9792
-3.4354 -3.4355 -1.9884 0.9792
-3.3110 -3.5563 -1.9887 0.9792
-2.6286 -4.0903 -1.9899 0.9792
-2.3308 -4.2685 -1.9905 0.9792
-2.1772 -4.3495 -1.9907 0.9792
-2.0208 -4.4250 -1.9910 0.9792
-1.7005 -4.5592 -1.9915 0.9792
-1.5369 -4.6176 -1.9918 0.9792
-1.3713 -4.6701 -1.9920 0.9792
-0.8645 -4.7919 -1.9929 0.9792
-0.6930 -4.8203 -1.9931 0.9792
-0.5206 -4.8426 -1.9934 0.9792
-0.3475 -4.8588 -1.9937 0.9792
-0.1739 -4.8687 -1.9939 0.9792
0.0000 -4.8725 -1.9942 0.9792
0.1739 -4.8700 -1.9944 0.9792
0.3477 -4.8613 -1.9947 0.9792
0.6938 -4.8253 -1.9952 0.9792
0.8657 -4.7980 -1.9954 0.9791
1.2060 -4.7252 -1.9959 0.9791
1.3741 -4.6797 -1.9961 0.9791
1.5404 -4.6282 -1.9963 0.9791
1.7048 -4.5707 -1.9966 0.9791
1.8671 -4.5074 -1.9968 0.9791
2.1843 -4.3637 -1.9972 0.9791
2.3389 -4.2833 -1.9974 0.9791
2.4905 -4.1975 -1.9976 0.9791
2.7841 -4.0099 -1.9979 0.9791
2.9257 -3.9083 -1.9981 0.9791
3.1975 -3.6901 -1.9984 0.9791
3.3274 -3.5739 -1.9985 0.9791
3.4531 -3.4531 -1.9987 0.9791
3.5744 -3.3279 -1.9988 0.9791
3.8031 -3.0647 -1.9990 0.9791
3.9103 -2.9272 -1.9991 0.9791
4.0124 -2.7859 -1.9992 0.9791
4.1095 -2.6410 -1.9993 0.9791
4.2013 -2.4927 -1.9994 0.9791
4.4440 -2.0295 -1.9995 0.9791
4.5137 -1.8696 -1.9995 0.9791
4.5776 -1.7074 -1.9996 0.9791
4.6878 -1.3764 -1.9996 0.9791
4.7339 -1.2083 -1.9996 0.9791
4.8079 -0.8675 -1.9995 0.9791
4.8820 -0.1744 -1.9993 0.9791
-1.4359 -0.1544 -0.6294 0.9937
-1.3955 -0.2518 -0.6180 0.9938
-1.3688 -0.2978 -0.6105 0.9939
-1.3400 -0.3420 -0.6027 0.9940
-1.3722 -0.4029 -0.6233 0.9938
-1.4401 -0.4793 -0.6615 0.9934
-1.5118 -0.5639 -0.7032 0.9930
-4.2112 -1.7444 -1.9865 0.9803
-4.0017 -2.1851 -1.9871 0.9803
-3.8363 -2.4655 -1.9874 0.9803
-3.7462 -2.6011 -1.9876 0.9803
-3.6514 -2.7334 -1.9878 0.9803
-3.4478 -2.9875 -1.9882 0.9803
-3.1097 -3.3401 -1.9889 0.9803
-2.9888 -3.4493 -1.9891 0.9803
-2.6039 -3.7504 -1.9898 0.9803
-2.4687 -3.8414 -1.9901 0.9803
-2.3303 -3.9276 -1.9903 0.9803
-2.1889 -4.0087 -1.9905 0.9803
-2.0447 -4.0848 -1.9908 0.9803
-1.8978 -4.1557 -1.9910 0.9803
-1.2877 -4.3857 -1.9920 0.9803
-1.1305 -4.4294 -1.9923 0.9803
-0.9718 -4.4675 -1.9926 0.9802
-0.6508 -4.5266 -1.9931 0.9802
-0.3263 -4.5626 -1.9936 0.9802
-0.1633 -4.5719 -1.9938 0.9802
0.0000 -4.5754 -1.9940 0.9802
0.1633 -4.5731 -1.9943 0.9802
0.3265 -4.5649 -1.9945 0.9802
0.6515 -4.5310 -1.9950 0.9802
0.8129 -4.5054 -1.9952 0.9802
0.9733 -4.4740 -1.9954 0.9802
1.1325 -4.4369 -1.9957 0.9802
1.2902 -4.3941 -1.9959 0.9802
1.6007 -4.2918 -1.9963 0.9802
1.7531 -4.2323 -1.9965 0.9802
1.9032 -4.1675 -1.9967 0.9802
2.1961 -4.0218 -1.9971 0.9802
2.4778 -3.8556 -1.9974 0.9802
2.6141 -3.7650 -1.9976 0.9802
2.7470 -3.6696 -1.9977 0.9802
3.0022 -3.4648 -1.9980 0.9802
3.2422 -3.2422 -1.9983 0.9802
3.4656 -3.0029 -1.9985 0.9802
3.6713 -2.7483 -1.9987 0.9802
3.7672 -2.6156 -1.9988 0.9802
3.8583 -2.4796 -1.9988 0.9802
3.9445 -2.3404 -1.9989 0.9802
4.0257 -2.1982 -1.9990 0.9802
4.1017 -2.0531 -1.9990 0.9802
4.3523 -1.4486 -1.9991 0.9802
4.4446 -1.1344 -1.9991 0.9802
4.4822 -0.9750 -1.9991 0.9802
4.5402 -0.6528 -1.9990 0.9802
4.5750 -0.3272 -1.9990 0.9802
4.5836 -0.1637 -1.9989 0.9802
-1.2362 -0.0884 -0.5737 0.9946
-1.2124 -0.1743 -0.5670 0.9946
-1.1790 -0.2565 -0.5585 0.9947
-1.2017 -0.4482 -0.5937 0.9944
-1.2345 -0.5114 -0.6185 0.9941
-3.9048 -1.7833 -1.9870 0.9813
-3.8389 -1.9217 -1.9872 0.9813
-3.7682 -2.0576 -1.9873 0.9813
-3.6927 -2.1910 -1.9875 0.9813
-3.5276 -2.4493 -1.9879 0.9812
-3.3445 -2.6952 -1.9883 0.9812
-3.1444 -2.9275 -1.9887 0.9812
-2.9281 -3.1450 -1.9891 0.9812
-2.8143 -3.2479 -1.9893 0.9812
-2.4518 -3.5313 -1.9899 0.9812
-2.3245 -3.6170 -1.9902 0.9812
-1.9252 -3.8461 -1.9909 0.9812
-1.6463 -3.9745 -1.9913 0.9812
-1.0644 -4.1704 -1.9923 0.9812
-0.7644 -4.2367 -1.9928 0.9812
-0.1537 -4.3044 -1.9937 0.9812
0.1538 -4.3054 -1.9942 0.9812
0.3074 -4.2976 -1.9944 0.9812
0.7653 -4.2415 -1.9950 0.9812
1.0661 -4.1770 -1.9954 0.9812
1.2146 -4.1367 -1.9956 0.9812
1.5070 -4.0403 -1.9960 0.9812
1.7917 -3.9232 -1.9964 0.9812
2.0674 -3.7861 -1.9968 0.9812
2.2014 -3.7102 -1.9969 0.9812
2.4608 -3.5442 -1.9972 0.9812
2.5859 -3.4544 -1.9974 0.9812
2.7078 -3.3601 -1.9975 0.9812
3.0520 -3.0520 -1.9979 0.9812
3.1592 -2.9413 -1.9980 0.9812
3.2623 -2.8268 -1.9981 0.9812
3.3613 -2.7087 -1.9982 0.9812
3.4560 -2.5871 -1.9983 0.9812
3.6320 -2.3342 -1.9984 0.9812
4.0457 -1.5090 -1.9987 0.9811
4.1838 -1.0679 -1.9987 0.9811
4.2492 -0.7667 -1.9987 0.9811
4.3147 -0.1541 -1.9985 0.9811
-1.0817 0.0000 -0.5306 0.9952
-1.0803 -0.0386 -0.5302 0.9952
-1.0769 -0.0770 -0.5296 0.9952
-1.0705 -0.1151 -0.5281 0.9952
-1.0518 -0.1898 -0.5242 0.9952
-1.0422 -0.2267 -0.5232 0.9953
-1.0307 -0.2631 -0.5218 0.9953
-1.0175 -0.2988 -0.5202 0.9953
-1.0290 -0.4262 -0.5463 0.9951
-1.0444 -0.4770 -0.5632 0.9949
-1.0588 -0.5300 -0.5808 0.9947
-3.4093 -2.1911 -1.9879 0.9821
-3.3292 -2.3115 -1.9881 0.9821
-3.2449 -2.4291 -1.9883 0.9821
-3.0639 -2.6549 -1.9887 0.9821
-2.9675 -2.7628 -1.9888 0.9821
-2.6559 -3.0651 -1.9894 0.9821
-2.4310 -3.2475 -1.9899 0.9821
-2.0706 -3.4899 -1.9905 0.9821
-1.9450 -3.5619 -1.9907 0.9821
-1.8168 -3.6295 -1.9909 0.9821
-1.5536 -3.7507 -1.9914 0.9821
-1.4189 -3.8042 -1.9916 0.9821
-0.7213 -3.9979 -1.9927 0.9821
-0.4344 -4.0401 -1.9932 0.9821
-0.2899 -4.0534 -1.9934 0.9821
-0.1451 -4.0617 -1.9936 0.9821
0.0000 -4.0647 -1.9938 0.9821
0.1451 -4.0625 -1.9940 0.9821
0.2900 -4.0552 -1.9942 0.9820
0.4346 -4.0427 -1.9945 0.9820
0.5787 -4.0250 -1.9947 0.9820
1.0060 -3.9412 -1.9953 0.9820
1.1461 -3.9032 -1.9954 0.9820
1.5572 -3.7594 -1.9960 0.9820
1.6905 -3.7017 -1.9962 0.9820
1.8217 -3.6393 -1.9963 0.9820
1.9506 -3.5723 -1.9965 0.9820
2.0770 -3.5006 -1.9966 0.9820
2.3218 -3.3440 -1.9969 0.9820
2.4399 -3.2593 -1.9971 0.9820
2.5548 -3.1703 -1.9972 0.9820
2.7748 -2.9804 -1.9975 0.9820
2.9807 -2.7751 -1.9977 0.9820
3.3458 -2.3231 -1.9980 0.9820
3.4267 -2.2022 -1.9981 0.9820
3.5033 -2.0786 -1.9981 0.9820
3.7637 -1.5590 -1.9983 0.9820
3.8170 -1.4237 -1.9983 0.9820
3.8654 -1.2865 -1.9983 0.9820
3.9088 -1.1478 -1.9983 0.9820
3.9473 -1.0075 -1.9983 0.9820
4.0323 -0.5798 -1.9983 0.9820
4.0503 -0.4355 -1.9982 0.9820
4.0632 -0.2906 -1.9982 0.9820
-0.9895 0.0000 -0.5133 0.9956
-0.9873 -0.0706 -0.5135 0.9955
-0.9715 -0.1753 -0.5121 0.9956
-0.9524 -0.2431 -0.5099 0.9956
-0.9404 -0.2761 -0.5085 0.9956
-0.9271 -0.3840 -0.5206 0.9955
-0.9416 -0.4713 -0.5462 0.9953
-3.2956 -1.9554 -1.9880 0.9829
-3.2240 -2.0720 -1.9882 0.9829
-3.1482 -2.1859 -1.9883 0.9829
-3.0685 -2.2971 -1.9885 0.9829
-2.8973 -2.5105 -1.9888 0.9829
-2.8061 -2.6126 -1.9890 0.9829
-2.6131 -2.8066 -1.9894 0.9829
-1.8391 -3.3680 -1.9908 0.9829
-1.7179 -3.4319 -1.9910 0.9829
-0.9497 -3.7210 -1.9923 0.9828
-0.6820 -3.7801 -1.9927 0.9828
-0.5467 -3.8024 -1.9929 0.9828
-0.4107 -3.8199 -1.9931 0.9828
-0.1371 -3.8403 -1.9935 0.9828
0.0000 -3.8431 -1.9937 0.9828
0.2742 -3.8341 -1.9941 0.9828
0.5472 -3.8055 -1.9945 0.9828
0.6827 -3.7839 -1.9947 0.9828
0.8174 -3.7575 -1.9949 0.9828
1.0836 -3.6903 -1.9953 0.9828
1.3443 -3.6042 -1.9956 0.9828
1.5983 -3.4997 -1.9959 0.9828
1.7223 -3.4407 -1.9961 0.9828
1.8441 -3.3773 -1.9962 0.9828
2.1951 -3.1615 -1.9967 0.9828
2.5209 -2.9093 -1.9970 0.9828
2.6233 -2.8176 -1.9972 0.9828
2.7223 -2.7223 -1.9973 0.9828
2.9099 -2.5214 -1.9975 0.9828
2.9981 -2.4161 -1.9975 0.9828
3.3800 -1.8456 -1.9979 0.9828
3.4438 -1.7238 -1.9979 0.9828
3.5581 -1.4738 -1.9980 0.9828
3.6085 -1.3459 -1.9980 0.9828
3.6542 -1.2162 -1.9980 0.9828
3.6953 -1.0850 -1.9980 0.9828
3.7901 -0.6838 -1.9979 0.9828
3.8485 -0.1375 -1.9978 0.9828
-0.9179 -0.0328 -0.5031 0.9958
-0.9161 -0.0655 -0.5030 0.9958
-0.9011 -0.1626 -0.5015 0.9958
-0.8479 -0.3512 -0.5027 0.9958
-0.8524 -0.5058 -0.5428 0.9955
-3.0540 -1.9627 -1.9884 0.9836
-2.9823 -2.0707 -1.9885 0.9836
-2.9067 -2.1759 -1.9887 0.9836
-2.8274 -2.2785 -1.9888 0.9836
-2.7445 -2.3782 -1.9890 0.9836
-2.6581 -2.4748 -1.9892 0.9836
-2.5683 -2.5683 -1.9893 0.9836
-2.4752 -2.6586 -1.9895 0.9836
-2.3790 -2.7455 -1.9897 0.9836
-2.1775 -2.9088 -1.9901 0.9836
-2.0725 -2.9849 -1.9903 0.9836
-1.8546 -3.1258 -1.9907 0.9836
-1.3914 -3.3592 -1.9914 0.9836
-1.1485 -3.4506 -1.9918 0.9836
-0.8996 -3.5245 -1.9922 0.9835
-0.6460 -3.5804 -1.9926 0.9835
-0.5178 -3.6015 -1.9928 0.9835
-0.1299 -3.6373 -1.9934 0.9835
0.1299 -3.6380 -1.9938 0.9835
0.2597 -3.6314 -1.9940 0.9835
0.9008 -3.5292 -1.9949 0.9835
1.0263 -3.4951 -1.9951 0.9835
1.5137 -3.3145 -1.9957 0.9835
1.6312 -3.2587 -1.9959 0.9835
2.0789 -2.9942 -1.9964 0.9835
2.1846 -2.9182 -1.9966 0.9835
2.2875 -2.8386 -1.9967 0.9835
2.3875 -2.7553 -1.9968 0.9835
2.5782 -2.5782 -1.9970 0.9835
2.6687 -2.4847 -1.9971 0.9835
2.9193 -2.1854 -1.9973 0.9835
3.0680 -1.9717 -1.9974 0.9835
3.1365 -1.8610 -1.9975 0.9835
3.2010 -1.7479 -1.9975 0.9835
3.2614 -1.6325 -1.9976 0.9835
3.3177 -1.5151 -1.9976 0.9835
3.4174 -1.2746 -1.9977 0.9835
3.6101 -0.5191 -1.9976 0.9835
3.6263 -0.3899 -1.9976 0.9835
3.6378 -0.2602 -1.9975 0.9835
-0.8550 -0.0000 -0.4936 0.9961
-0.8548 -0.0305 -0.4938 0.9961
-0.8499 -0.0914 -0.4935 0.9961
-0.8453 -0.1215 -0.4930 0.9961
-0.8393 -0.1514 -0.4924 0.9961
-0.8318 -0.1810 -0.4915 0.9961
-0.8230 -0.2101 -0.4904 0.9961
-0.8014 -0.2667 -0.4876 0.9961
-0.7887 -0.2942 -0.4860 0.9961
-0.7796 -0.3229 -0.4872 0.9961
-0.7809 -0.3566 -0.4957 0.9960
-0.7750 -0.4599 -0.5203 0.9958
-2.7577 -2.0644 -1.9888 0.9842
-2.6038 -2.2562 -1.9892 0.9842
-2.5218 -2.3479 -1.9893 0.9842
-2.3483 -2.5222 -1.9897 0.9842
-2.2570 -2.6047 -1.9898 0.9842
-1.9661 -2.8318 -1.9904 0.9842
-1.8640 -2.9004 -1.9905 0.9842
-1.6526 -3.0266 -1.9909 0.9842
-1.5437 -3.0839 -1.9911 0.9842
-1.4328 -3.1373 -1.9913 0.9842
-0.8534 -3.3435 -1.9922 0.9842
-0.7336 -3.3721 -1.9924 0.9842
-0.6128 -3.3965 -1.9926 0.9842
-0.4912 -3.4165 -1.9928 0.9842
-0.3690 -3.4322 -1.9930 0.9842
-0.1232 -3.4504 -1.9934 0.9842
0.1233 -3.4510 -1.9937 0.9842
0.2464 -3.4448 -1.9939 0.9842
0.3692 -3.4341 -1.9941 0.9842
0.4916 -3.4190 -1.9943 0.9842
0.6134 -3.3996 -1.9944 0.9842
0.7344 -3.3758 -1.9946 0.9842
0.8545 -3.3477 -1.9948 0.9842
0.9735 -3.3154 -1.9949 0.9842
1.0913 -3.2788 -1.9951 0.9842
1.4358 -3.1440 -1.9955 0.9842
1.7641 -2.9732 -1.9960 0.9842
1.9719 -2.8401 -1.9962 0.9842
2.0721 -2.7681 -1.9963 0.9842
2.4455 -2.4455 -1.9967 0.9842
2.5313 -2.3567 -1.9968 0.9842
2.6139 -2.2650 -1.9969 0.9842
2.8414 -1.9728 -1.9971 0.9842
2.9101 -1.8702 -1.9972 0.9841
3.1468 -1.4371 -1.9973 0.9841
3.1962 -1.3239 -1.9973 0.9841
3.2414 -1.2090 -1.9974 0.9841
3.3194 -0.9747 -1.9974 0.9841
3.3521 -0.8556 -1.9974 0.9841
3.3805 -0.7354 -1.9974 0.9841
3.4243 -0.4923 -1.9973 0.9841
3.4396 -0.3698 -1.9973 0.9841
3.4505 -0.2468 -1.9973 0.9841
3.4571 -0.1235 -1.9972 0.9841
