ply
format ascii 1.0
element vertex 742
property float32 x
property float32 y
property float32 z
property float32 I
end_header
-9.4120 0.0000 -1.9895 0.9623
-9.4067 -0.3360 -1.9897 0.9622
-9.3894 -0.6716 -1.9898 0.9622
-9.3191 -1.3399 -1.9901 0.9622
-9.2013 -2.0017 -1.9905 0.9622
-8.8259 -3.2919 -1.9912 0.9622
-8.7036 -3.6051 -1.9913 0.9622
-8.5701 -3.9139 -1.9915 0.9622
-8.1049 -4.8089 -1.9921 0.9622
-7.9288 -5.0956 -1.9923 0.9622
-7.7426 -5.3758 -1.9924 0.9622
-7.5465 -5.6493 -1.9926 0.9622
-7.1256 -6.1744 -1.9930 0.9622
-6.9014 -6.4254 -1.9932 0.9622
-6.6682 -6.6682 -1.9934 0.9622
-6.4266 -6.9026 -1.9936 0.9622
-6.1767 -7.1283 -1.9937 0.9622
-5.6534 -7.5521 -1.9941 0.9622
-5.3808 -7.7498 -1.9943 0.9622
-5.1012 -7.9376 -1.9945 0.9622
-4.2245 -8.4396 -1.9950 0.9621
-3.9209 -8.5857 -1.9951 0.9621
-3.6123 -8.7209 -1.9953 0.9621
-2.6600 -9.0592 -1.9958 0.9621
-2.3351 -9.1490 -1.9959 0.9621
-1.6768 -9.2936 -1.9962 0.9621
-1.3441 -9.3481 -1.9963 0.9621
0.3372 -9.4411 -1.9969 0.9621
0.6740 -9.4235 -1.9970 0.9621
1.3447 -9.3523 -1.9972 0.9621
1.6777 -9.2987 -1.9973 0.9621
2.0086 -9.2333 -1.9974 0.9621
2.3370 -9.1561 -1.9975 0.9621
2.9844 -8.9666 -1.9976 0.9621
3.6166 -8.7313 -1.9977 0.9621
4.2305 -8.4514 -1.9978 0.9621
4.5295 -8.2951 -1.9978 0.9621
6.6830 -6.6830 -1.9978 0.9621
6.9172 -6.4401 -1.9978 0.9621
7.1425 -6.1890 -1.9977 0.9621
7.3587 -5.9300 -1.9977 0.9621
7.5654 -5.6634 -1.9976 0.9621
7.9497 -5.1090 -1.9975 0.9621
8.1267 -4.8218 -1.9974 0.9621
8.2933 -4.5285 -1.9974 0.9621
8.7287 -3.6156 -1.9971 0.9621
8.9635 -2.9833 -1.9969 0.9621
9.1525 -2.3360 -1.9967 0.9621
9.2294 -2.0077 -1.9965 0.9621
9.2946 -1.6769 -1.9964 0.9621
9.3480 -1.3440 -1.9963 0.9621
-8.4665 -0.0000 -1.9898 0.9658
-8.4617 -0.3022 -1.9900 0.9658
-8.4461 -0.6041 -1.9901 0.9658
-8.3349 -1.5038 -1.9905 0.9658
-8.2766 -1.8005 -1.9907 0.9658
-8.0386 -2.6755 -1.9911 0.9658
-7.9386 -2.9610 -1.9913 0.9658
-7.8285 -3.2427 -1.9915 0.9658
-6.9638 -4.8351 -1.9925 0.9658
-5.9972 -5.9972 -1.9933 0.9658
-5.7798 -6.2079 -1.9935 0.9657
-5.3231 -6.6055 -1.9938 0.9657
-4.8391 -6.9696 -1.9941 0.9657
-4.5876 -7.1384 -1.9943 0.9657
-4.3302 -7.2982 -1.9944 0.9657
-4.0673 -7.4487 -1.9946 0.9657
-3.7991 -7.5897 -1.9947 0.9657
-3.5261 -7.7210 -1.9949 0.9657
-3.2485 -7.8425 -1.9950 0.9657
-2.6811 -8.0554 -1.9953 0.9657
-2.3920 -8.1465 -1.9954 0.9657
-2.0999 -8.2272 -1.9956 0.9657
-1.5078 -8.3571 -1.9958 0.9657
-0.9079 -8.4444 -1.9961 0.9657
-0.3032 -8.4886 -1.9963 0.9657
0.0000 -8.4945 -1.9964 0.9657
1.8061 -8.3024 -1.9969 0.9657
2.6835 -8.0625 -1.9971 0.9657
3.2520 -7.8509 -1.9972 0.9657
3.5302 -7.7300 -1.9972 0.9657
3.8039 -7.5992 -1.9972 0.9657
4.0728 -7.4587 -1.9973 0.9657
5.3325 -6.6172 -1.9973 0.9657
5.5652 -6.4226 -1.9973 0.9657
5.7909 -6.2198 -1.9973 0.9657
6.0091 -6.0091 -1.9973 0.9657
6.2197 -5.7907 -1.9972 0.9657
6.4223 -5.5649 -1.9972 0.9657
6.8026 -5.0924 -1.9971 0.9657
6.9799 -4.8462 -1.9971 0.9657
7.3074 -4.3357 -1.9970 0.9657
7.7281 -3.5293 -1.9967 0.9657
7.8488 -3.2511 -1.9966 0.9657
8.0600 -2.6826 -1.9965 0.9657
8.2300 -2.1006 -1.9963 0.9657
8.3580 -1.5080 -1.9960 0.9657
8.4060 -1.2086 -1.9959 0.9657
8.4433 -0.9077 -1.9958 0.9657
8.4854 -0.3031 -1.9955 0.9657
-7.6817 -0.2744 -1.9902 0.9687
-7.6675 -0.5484 -1.9903 0.9687
-7.6435 -0.8218 -1.9905 0.9687
-7.6098 -1.0941 -1.9906 0.9687
-7.2972 -2.4287 -1.9913 0.9687
-7.1064 -2.9436 -1.9916 0.9687
-6.9973 -3.1956 -1.9917 0.9687
-6.8793 -3.4436 -1.9919 0.9687
-6.7525 -3.6872 -1.9920 0.9687
-6.4733 -4.1601 -1.9923 0.9687
-5.9929 -4.8294 -1.9928 0.9687
-5.6339 -5.2454 -1.9931 0.9687
-5.4435 -5.4436 -1.9932 0.9687
-5.0421 -5.8189 -1.9935 0.9687
-4.3922 -6.3259 -1.9940 0.9687
-4.1639 -6.4791 -1.9941 0.9687
-3.9302 -6.6241 -1.9943 0.9687
-3.6916 -6.7606 -1.9944 0.9687
-3.4482 -6.8885 -1.9945 0.9687
-2.6926 -7.2191 -1.9949 0.9687
-2.4333 -7.3111 -1.9951 0.9687
-2.1710 -7.3937 -1.9952 0.9687
-1.9058 -7.4670 -1.9953 0.9687
-1.3684 -7.5848 -1.9955 0.9687
-1.0969 -7.6292 -1.9956 0.9687
0.2752 -7.7046 -1.9961 0.9686
0.5500 -7.6902 -1.9962 0.9686
0.8242 -7.6660 -1.9963 0.9686
1.0973 -7.6319 -1.9964 0.9686
1.9070 -7.4717 -1.9966 0.9686
2.1726 -7.3990 -1.9966 0.9686
3.6961 -6.7689 -1.9968 0.9686
4.1696 -6.4881 -1.9969 0.9686
4.6219 -6.1741 -1.9969 0.9686
5.0505 -5.8286 -1.9969 0.9686
5.6445 -5.2552 -1.9968 0.9686
6.0048 -4.8390 -1.9967 0.9686
6.1736 -4.6215 -1.9967 0.9686
6.3344 -4.3981 -1.9967 0.9686
6.4872 -4.1691 -1.9966 0.9686
6.6317 -3.9348 -1.9965 0.9686
6.7677 -3.6954 -1.9965 0.9686
6.8950 -3.4514 -1.9964 0.9686
7.0136 -3.2030 -1.9963 0.9686
7.2236 -2.6943 -1.9962 0.9686
7.3149 -2.4346 -1.9961 0.9686
7.3968 -2.1719 -1.9960 0.9686
7.4692 -1.9064 -1.9959 0.9687
7.5855 -1.3686 -1.9957 0.9687
7.6291 -1.0969 -1.9956 0.9687
7.6870 -0.5498 -1.9954 0.9687
7.7013 -0.2750 -1.9953 0.9687
-7.0134 -0.5016 -1.9905 0.9712
-6.9209 -1.2487 -1.9909 0.9712
-6.8150 -1.7394 -1.9911 0.9712
-6.6745 -2.2215 -1.9914 0.9712
-6.5913 -2.4584 -1.9915 0.9712
-6.1761 -3.3724 -1.9921 0.9712
-6.0522 -3.5909 -1.9922 0.9712
-5.9206 -3.8049 -1.9924 0.9712
-5.6348 -4.2182 -1.9926 0.9712
-5.4811 -4.4169 -1.9928 0.9712
-4.2205 -5.6379 -1.9937 0.9711
-3.8081 -5.9255 -1.9940 0.9711
-3.5944 -6.0580 -1.9941 0.9711
-3.1534 -6.2998 -1.9944 0.9711
-2.9268 -6.4087 -1.9945 0.9711
-2.6963 -6.5095 -1.9946 0.9711
-2.4624 -6.6020 -1.9947 0.9711
-1.2514 -6.9362 -1.9953 0.9711
-1.0031 -6.9768 -1.9954 0.9711
-0.7535 -7.0085 -1.9955 0.9711
-0.5029 -7.0312 -1.9956 0.9711
-0.2516 -7.0450 -1.9957 0.9711
0.0000 -7.0498 -1.9957 0.9711
0.2516 -7.0456 -1.9958 0.9711
1.2519 -6.9391 -1.9961 0.9711
1.4989 -6.8901 -1.9962 0.9711
1.7439 -6.8325 -1.9962 0.9711
2.6987 -6.5153 -1.9964 0.9711
3.1567 -6.3064 -1.9965 0.9711
3.3799 -6.1897 -1.9965 0.9711
3.5987 -6.0652 -1.9965 0.9711
4.0222 -5.7931 -1.9965 0.9711
4.4252 -5.4914 -1.9965 0.9711
4.6184 -5.3299 -1.9965 0.9711
4.8056 -5.1616 -1.9965 0.9711
5.1615 -4.8055 -1.9965 0.9711
5.3297 -4.6182 -1.9964 0.9711
6.0643 -3.5981 -1.9962 0.9711
6.3052 -3.1562 -1.9961 0.9711
6.4136 -2.9290 -1.9960 0.9711
6.5139 -2.6981 -1.9960 0.9711
6.6058 -2.4638 -1.9959 0.9711
6.7642 -1.9861 -1.9957 0.9711
6.9767 -1.0031 -1.9954 0.9711
7.0297 -0.5028 -1.9952 0.9711
7.0428 -0.2515 -1.9950 0.9711
-6.4070 -0.9212 -1.9909 0.9733
-6.3704 -1.1494 -1.9910 0.9733
-6.2729 -1.6011 -1.9913 0.9733
-6.1434 -2.0447 -1.9915 0.9733
-6.0669 -2.2628 -1.9916 0.9733
-5.8907 -2.6902 -1.9919 0.9733
-5.7913 -2.8989 -1.9920 0.9733
-5.6845 -3.1040 -1.9921 0.9733
-5.0447 -4.0653 -1.9928 0.9733
-4.8967 -4.2430 -1.9929 0.9732
-4.4159 -4.7431 -1.9933 0.9732
-4.2441 -4.8979 -1.9934 0.9732
-4.0668 -5.0466 -1.9935 0.9732
-3.6969 -5.3245 -1.9938 0.9732
-3.5047 -5.4534 -1.9939 0.9732
-3.3080 -5.5754 -1.9940 0.9732
-2.9022 -5.7979 -1.9942 0.9732
-2.6936 -5.8981 -1.9943 0.9732
-2.4815 -5.9908 -1.9945 0.9732
-2.2662 -6.0759 -1.9946 0.9732
-2.0480 -6.1532 -1.9947 0.9732
-1.8272 -6.2227 -1.9948 0.9732
-1.3787 -6.3378 -1.9950 0.9732
-0.6934 -6.4498 -1.9953 0.9732
-0.2316 -6.4834 -1.9954 0.9732
0.0000 -6.4878 -1.9955 0.9732
0.2316 -6.4839 -1.9956 0.9732
0.4629 -6.4717 -1.9956 0.9732
1.1521 -6.3858 -1.9958 0.9732
1.3794 -6.3407 -1.9959 0.9732
1.6048 -6.2876 -1.9959 0.9732
2.6960 -5.9033 -1.9961 0.9732
3.3117 -5.5815 -1.9962 0.9732
3.5088 -5.4598 -1.9962 0.9732
4.0723 -5.0534 -1.9962 0.9732
4.2501 -4.9048 -1.9962 0.9732
4.5891 -4.5891 -1.9962 0.9732
4.7499 -4.4223 -1.9961 0.9732
4.9047 -4.2499 -1.9961 0.9732
5.0531 -4.0721 -1.9961 0.9732
5.1952 -3.8891 -1.9961 0.9732
5.3306 -3.7011 -1.9960 0.9732
5.6952 -3.1098 -1.9959 0.9732
5.9945 -2.4830 -1.9957 0.9732
6.0791 -2.2674 -1.9956 0.9732
6.2249 -1.8278 -1.9955 0.9732
6.2859 -1.6044 -1.9954 0.9732
6.3389 -1.3790 -1.9953 0.9732
6.4491 -0.6934 -1.9950 0.9732
6.4695 -0.4627 -1.9949 0.9732
6.4815 -0.2315 -1.9949 0.9732
-5.9886 -0.0000 -1.9906 0.9751
-5.9739 -0.4273 -1.9908 0.9751
-5.8949 -1.0636 -1.9911 0.9751
-5.7484 -1.6879 -1.9915 0.9751
-5.6848 -1.8921 -1.9916 0.9751
-5.6140 -2.0939 -1.9917 0.9751
-5.4509 -2.4894 -1.9919 0.9751
-5.3589 -2.6825 -1.9920 0.9751
-5.1545 -3.0583 -1.9923 0.9751
-4.9238 -3.4186 -1.9925 0.9750
-4.6679 -3.7616 -1.9927 0.9750
-4.5309 -3.9261 -1.9929 0.9750
-4.3882 -4.0855 -1.9930 0.9750
-4.2398 -4.2398 -1.9931 0.9750
-4.0860 -4.3887 -1.9932 0.9750
-3.9270 -4.5320 -1.9933 0.9750
-3.5941 -4.8012 -1.9936 0.9750
-3.2428 -5.0459 -1.9938 0.9750
-3.0608 -5.1587 -1.9939 0.9750
-2.2960 -5.5429 -1.9943 0.9750
-2.0968 -5.6217 -1.9944 0.9750
-1.6905 -5.7575 -1.9946 0.9750
-1.4840 -5.8144 -1.9947 0.9750
-1.2756 -5.8640 -1.9948 0.9750
-1.0656 -5.9060 -1.9949 0.9750
-0.8541 -5.9405 -1.9950 0.9750
-0.4282 -5.9868 -1.9951 0.9750
-0.2142 -5.9985 -1.9952 0.9750
0.0000 -6.0025 -1.9953 0.9750
0.4282 -5.9877 -1.9954 0.9750
1.0659 -5.9081 -1.9956 0.9750
1.6915 -5.7607 -1.9957 0.9750
1.8961 -5.6968 -1.9958 0.9750
2.0982 -5.6256 -1.9958 0.9750
2.6877 -5.3693 -1.9959 0.9750
3.0639 -5.1639 -1.9959 0.9750
3.4245 -4.9322 -1.9959 0.9750
3.7677 -4.6754 -1.9959 0.9750
3.9321 -4.5379 -1.9959 0.9750
4.2458 -4.2458 -1.9959 0.9750
4.3946 -4.0915 -1.9959 0.9750
4.6751 -3.7675 -1.9958 0.9750
4.8065 -3.5981 -1.9958 0.9750
4.9318 -3.4242 -1.9958 0.9750
5.0508 -3.2459 -1.9957 0.9750
5.2692 -2.8772 -1.9956 0.9750
5.5461 -2.2973 -1.9955 0.9750
5.6244 -2.0978 -1.9954 0.9750
5.8158 -1.4844 -1.9952 0.9750
5.9669 -0.6415 -1.9949 0.9750
5.9857 -0.4281 -1.9948 0.9750
5.9969 -0.2142 -1.9947 0.9750
-5.5669 -0.0000 -1.9908 0.9766
-5.5636 -0.1987 -1.9909 0.9766
-5.5113 -0.7924 -1.9911 0.9766
-5.4798 -0.9887 -1.9912 0.9766
-5.4413 -1.1837 -1.9913 0.9766
-5.2844 -1.7588 -1.9916 0.9766
-5.2185 -1.9464 -1.9918 0.9766
-5.1460 -2.1315 -1.9919 0.9766
-5.0669 -2.3140 -1.9920 0.9766
-4.8894 -2.6699 -1.9922 0.9766
-4.7913 -2.8428 -1.9923 0.9766
-4.5768 -3.1777 -1.9925 0.9766
-4.4607 -3.3392 -1.9926 0.9766
-4.2116 -3.6494 -1.9928 0.9766
-4.0789 -3.7976 -1.9930 0.9766
-3.7980 -4.0793 -1.9932 0.9766
-3.6501 -4.2125 -1.9933 0.9766
-3.3407 -4.4627 -1.9935 0.9766
-3.1795 -4.5793 -1.9936 0.9766
-3.0141 -4.6901 -1.9937 0.9766
-2.6721 -4.8937 -1.9939 0.9766
-1.7612 -5.2916 -1.9944 0.9766
-1.3794 -5.4043 -1.9946 0.9766
-1.1856 -5.4503 -1.9946 0.9766
-0.7939 -5.5214 -1.9948 0.9766
-0.1991 -5.5753 -1.9950 0.9766
0.1991 -5.5756 -1.9952 0.9766
0.5964 -5.5475 -1.9953 0.9766
1.3800 -5.4067 -1.9955 0.9766
1.7623 -5.2947 -1.9955 0.9766
2.4980 -4.9903 -1.9957 0.9766
2.6745 -4.8980 -1.9957 0.9766
3.0172 -4.6948 -1.9957 0.9766
3.3444 -4.4676 -1.9957 0.9766
3.6546 -4.2176 -1.9957 0.9766
3.9461 -3.9461 -1.9957 0.9766
4.6943 -3.0169 -1.9955 0.9766
4.7989 -2.8473 -1.9955 0.9766
4.9896 -2.4976 -1.9954 0.9766
5.3530 -1.5718 -1.9951 0.9766
5.4055 -1.3797 -1.9950 0.9766
5.4897 -0.9904 -1.9949 0.9766
5.5214 -0.7938 -1.9948 0.9766
-5.1661 -0.5554 -1.9912 0.9780
-5.1138 -0.9226 -1.9913 0.9780
-5.0778 -1.1046 -1.9914 0.9780
-4.9866 -1.4642 -1.9916 0.9780
-4.8022 -1.9892 -1.9919 0.9780
-4.5627 -2.4915 -1.9922 0.9780
-4.1626 -3.1161 -1.9926 0.9780
-3.9301 -3.4054 -1.9928 0.9780
-3.8062 -3.5437 -1.9929 0.9780
-3.5441 -3.8066 -1.9931 0.9780
-3.1173 -4.1643 -1.9934 0.9780
-2.9669 -4.2731 -1.9935 0.9780
-2.8126 -4.3765 -1.9936 0.9780
-2.6547 -4.4743 -1.9937 0.9780
-2.1615 -4.7331 -1.9940 0.9780
-1.8185 -4.8757 -1.9942 0.9780
-1.6434 -4.9377 -1.9943 0.9780
-1.4662 -4.9934 -1.9943 0.9780
-1.2871 -5.0428 -1.9944 0.9780
-0.7407 -5.1520 -1.9947 0.9780
0.7409 -5.1533 -1.9951 0.9779
0.9244 -5.1237 -1.9952 0.9779
1.1067 -5.0875 -1.9952 0.9779
1.4669 -4.9958 -1.9953 0.9779
1.6443 -4.9404 -1.9954 0.9779
1.9926 -4.8106 -1.9954 0.9779
2.1631 -4.7365 -1.9954 0.9779
2.6571 -4.4782 -1.9955 0.9779
2.8152 -4.3806 -1.9955 0.9779
2.9698 -4.2773 -1.9955 0.9779
3.1206 -4.1686 -1.9955 0.9779
3.2674 -4.0545 -1.9955 0.9779
3.4100 -3.9353 -1.9955 0.9779
3.5483 -3.8111 -1.9955 0.9779
3.8110 -3.5482 -1.9954 0.9779
3.9352 -3.4099 -1.9954 0.9779
4.0544 -3.2672 -1.9954 0.9779
4.1683 -3.1204 -1.9954 0.9779
4.2770 -2.9696 -1.9953 0.9779
4.3802 -2.8150 -1.9953 0.9779
4.4778 -2.6568 -1.9953 0.9779
4.5696 -2.4952 -1.9952 0.9779
4.7358 -2.1628 -1.9951 0.9779
4.9948 -1.4666 -1.9949 0.9779
5.0438 -1.2874 -1.9948 0.9779
5.1225 -0.9242 -1.9947 0.9779
5.1520 -0.7408 -1.9946 0.9780
-4.8160 -0.6924 -1.9913 0.9792
-4.7884 -0.8639 -1.9914 0.9792
-4.7547 -1.0343 -1.9915 0.9792
-4.6692 -1.3710 -1.9917 0.9792
-4.5600 -1.7008 -1.9919 0.9792
-4.4966 -1.8625 -1.9920 0.9792
-4.4274 -2.0219 -1.9920 0.9792
-4.3526 -2.1788 -1.9921 0.9792
-4.1865 -2.4840 -1.9923 0.9792
-3.7911 -3.0551 -1.9927 0.9792
-3.6798 -3.1886 -1.9928 0.9792
-3.4433 -3.4433 -1.9930 0.9792
-3.3184 -3.5642 -1.9931 0.9792
-3.1892 -3.6805 -1.9932 0.9792
-3.0560 -3.7922 -1.9933 0.9792
-2.6334 -4.0977 -1.9936 0.9792
-2.4856 -4.1893 -1.9937 0.9792
-2.3346 -4.2755 -1.9937 0.9792
-2.1806 -4.3563 -1.9938 0.9792
-1.8644 -4.5012 -1.9940 0.9792
-1.7027 -4.5650 -1.9941 0.9792
-1.0358 -4.7616 -1.9944 0.9792
-0.8652 -4.7957 -1.9945 0.9792
-0.6935 -4.8237 -1.9945 0.9792
-0.3477 -4.8612 -1.9947 0.9792
0.1740 -4.8710 -1.9948 0.9792
0.3477 -4.8618 -1.9949 0.9792
0.5210 -4.8464 -1.9949 0.9792
0.8655 -4.7971 -1.9950 0.9792
1.2056 -4.7233 -1.9951 0.9792
1.3734 -4.6774 -1.9951 0.9792
1.5395 -4.6254 -1.9952 0.9792
1.8656 -4.5040 -1.9952 0.9792
2.3364 -4.2788 -1.9953 0.9791
2.7804 -4.0046 -1.9953 0.9791
2.9216 -3.9028 -1.9953 0.9791
3.5681 -3.3220 -1.9953 0.9791
3.6843 -3.1925 -1.9952 0.9792
4.0043 -2.7802 -1.9952 0.9792
4.1009 -2.6355 -1.9951 0.9792
4.2784 -2.3362 -1.9951 0.9792
4.3589 -2.1819 -1.9950 0.9792
4.4339 -2.0249 -1.9950 0.9792
4.5033 -1.8653 -1.9949 0.9792
4.6246 -1.5392 -1.9948 0.9792
4.7622 -1.0360 -1.9946 0.9792
4.8237 -0.6935 -1.9945 0.9792
4.8452 -0.5209 -1.9944 0.9792
4.8696 -0.1739 -1.9943 0.9792
-1.4571 -0.0520 -0.6354 0.9937
-1.4490 -0.1036 -0.6331 0.9937
-1.4180 -0.2039 -0.6244 0.9938
-1.3688 -0.2978 -0.6105 0.9939
-1.4401 -0.4793 -0.6615 0.9934
-1.5118 -0.5639 -0.7032 0.9930
-4.1579 -1.8988 -1.9921 0.9803
-4.0122 -2.1908 -1.9923 0.9803
-3.9316 -2.3327 -1.9924 0.9803
-3.8460 -2.4717 -1.9924 0.9802
-3.7555 -2.6075 -1.9925 0.9802
-3.6602 -2.7400 -1.9926 0.9802
-3.5602 -2.8690 -1.9927 0.9802
-3.3468 -3.1160 -1.9929 0.9802
-3.2336 -3.2336 -1.9930 0.9802
-3.1163 -3.3471 -1.9931 0.9802
-2.8698 -3.5612 -1.9932 0.9802
-2.7410 -3.6615 -1.9933 0.9802
-2.4730 -3.8481 -1.9935 0.9802
-1.7508 -4.2268 -1.9939 0.9802
-1.4449 -4.3413 -1.9941 0.9802
-1.2891 -4.3903 -1.9941 0.9802
-1.1316 -4.4337 -1.9942 0.9802
-0.9727 -4.4714 -1.9943 0.9802
-0.8125 -4.5034 -1.9943 0.9802
-0.1633 -4.5738 -1.9946 0.9802
0.0000 -4.5768 -1.9946 0.9802
0.1634 -4.5740 -1.9947 0.9802
0.4893 -4.5509 -1.9948 0.9802
0.6514 -4.5307 -1.9948 0.9802
0.8127 -4.5046 -1.9949 0.9802
0.9730 -4.4728 -1.9949 0.9802
1.1321 -4.4353 -1.9950 0.9802
1.2897 -4.3922 -1.9950 0.9802
1.4456 -4.3434 -1.9950 0.9802
1.9017 -4.1641 -1.9951 0.9802
2.0491 -4.0936 -1.9951 0.9802
2.3360 -3.9371 -1.9951 0.9802
2.4750 -3.8512 -1.9951 0.9802
2.6109 -3.7604 -1.9951 0.9802
2.8725 -3.5646 -1.9951 0.9802
3.2370 -3.2371 -1.9951 0.9802
3.4597 -2.9978 -1.9951 0.9802
3.6646 -2.7433 -1.9950 0.9802
3.8509 -2.4748 -1.9950 0.9802
3.9367 -2.3358 -1.9949 0.9802
4.2884 -1.5995 -1.9947 0.9802
4.3914 -1.2894 -1.9946 0.9802
4.4719 -0.9728 -1.9945 0.9802
4.5037 -0.8125 -1.9945 0.9802
4.5296 -0.6513 -1.9944 0.9802
4.5498 -0.4892 -1.9943 0.9802
-1.2447 0.0000 -0.5761 0.9945
-1.2424 -0.0444 -0.5755 0.9945
-1.2362 -0.0884 -0.5737 0.9946
-1.2124 -0.1743 -0.5670 0.9946
-1.1974 -0.2160 -0.5632 0.9947
-1.1790 -0.2565 -0.5585 0.9947
-1.1575 -0.2954 -0.5529 0.9947
-1.1330 -0.3327 -0.5466 0.9948
-1.2017 -0.4482 -0.5937 0.9944
-3.9148 -1.7878 -1.9921 0.9812
-3.8486 -1.9265 -1.9922 0.9812
-3.6211 -2.3271 -1.9925 0.9812
-3.4462 -2.5798 -1.9926 0.9812
-3.1511 -2.9337 -1.9929 0.9812
-2.9340 -3.1513 -1.9930 0.9812
-2.8198 -3.2542 -1.9931 0.9812
-2.7019 -3.3529 -1.9932 0.9812
-2.5806 -3.4473 -1.9933 0.9812
-2.4561 -3.5374 -1.9934 0.9812
-2.3283 -3.6229 -1.9935 0.9812
-2.1976 -3.7039 -1.9935 0.9812
-2.0641 -3.7801 -1.9936 0.9812
-1.9279 -3.8515 -1.9937 0.9812
-1.6484 -3.9795 -1.9938 0.9812
-1.2137 -4.1334 -1.9940 0.9812
0.1538 -4.3063 -1.9946 0.9812
0.3074 -4.2981 -1.9946 0.9812
0.4606 -4.2845 -1.9947 0.9812
0.6133 -4.2654 -1.9947 0.9812
1.0658 -4.1757 -1.9948 0.9812
1.2142 -4.1350 -1.9949 0.9812
1.5061 -4.0380 -1.9949 0.9812
1.6493 -3.9817 -1.9949 0.9812
1.7904 -3.9203 -1.9949 0.9812
2.0655 -3.7827 -1.9950 0.9812
2.1992 -3.7066 -1.9950 0.9812
2.4580 -3.5403 -1.9950 0.9812
2.7043 -3.3559 -1.9950 0.9812
2.8224 -3.2572 -1.9950 0.9812
3.3558 -2.7042 -1.9949 0.9812
3.4501 -2.5827 -1.9949 0.9812
3.7062 -2.1990 -1.9948 0.9812
3.7823 -2.0653 -1.9948 0.9812
3.8535 -1.9289 -1.9947 0.9812
3.9199 -1.7901 -1.9947 0.9812
3.9812 -1.6491 -1.9947 0.9812
4.0885 -1.3608 -1.9946 0.9812
4.1343 -1.2140 -1.9945 0.9812
4.1749 -1.0656 -1.9945 0.9812
4.2401 -0.7650 -1.9943 0.9812
4.2645 -0.6131 -1.9943 0.9812
4.2971 -0.3073 -1.9942 0.9812
4.3052 -0.1538 -1.9941 0.9812
-1.0817 0.0000 -0.5306 0.9952
-1.0803 -0.0386 -0.5302 0.9952
-1.0769 -0.0770 -0.5296 0.9952
-1.0705 -0.1151 -0.5281 0.9952
-1.0518 -0.1898 -0.5242 0.9952
-1.0307 -0.2631 -0.5218 0.9953
-1.0175 -0.2988 -0.5202 0.9953
-1.0025 -0.3337 -0.5183 0.9953
-1.0444 -0.4769 -0.5632 0.9949
-3.4171 -2.1960 -1.9925 0.9821
-3.3367 -2.3167 -1.9925 0.9821
-3.2520 -2.4344 -1.9926 0.9821
-3.1631 -2.5490 -1.9927 0.9821
-3.0703 -2.6604 -1.9928 0.9821
-2.7686 -2.9737 -1.9930 0.9821
-2.6608 -3.0708 -1.9931 0.9821
-2.4352 -3.2530 -1.9933 0.9821
-2.1971 -3.4187 -1.9934 0.9821
-2.0737 -3.4951 -1.9935 0.9821
-1.8192 -3.6344 -1.9936 0.9821
-1.6884 -3.6971 -1.9937 0.9821
-1.5554 -3.7552 -1.9938 0.9821
-1.4205 -3.8084 -1.9938 0.9821
-0.8641 -3.9723 -1.9941 0.9821
-0.7218 -4.0008 -1.9942 0.9821
-0.5786 -4.0241 -1.9942 0.9821
-0.2900 -4.0553 -1.9943 0.9820
-0.1451 -4.0632 -1.9944 0.9820
0.0000 -4.0659 -1.9944 0.9820
0.5787 -4.0249 -1.9946 0.9820
0.7220 -4.0017 -1.9946 0.9820
1.0057 -3.9402 -1.9947 0.9820
1.1457 -3.9018 -1.9947 0.9820
1.2842 -3.8585 -1.9948 0.9820
1.5562 -3.7571 -1.9948 0.9820
1.6894 -3.6992 -1.9948 0.9820
2.0752 -3.4975 -1.9949 0.9820
2.1987 -3.4212 -1.9949 0.9820
2.3194 -3.3406 -1.9949 0.9820
2.5518 -3.1666 -1.9949 0.9820
2.6632 -3.0735 -1.9949 0.9820
2.7712 -2.9765 -1.9948 0.9820
3.0734 -2.6631 -1.9948 0.9820
3.1665 -2.5517 -1.9948 0.9820
3.2555 -2.4370 -1.9948 0.9820
3.3404 -2.3193 -1.9947 0.9820
3.4972 -2.0750 -1.9947 0.9820
3.6988 -1.6892 -1.9946 0.9820
3.7566 -1.5560 -1.9945 0.9820
3.8097 -1.4210 -1.9945 0.9820
3.8579 -1.2840 -1.9945 0.9820
3.9012 -1.1455 -1.9944 0.9820
4.0010 -0.7219 -1.9943 0.9820
4.0241 -0.5786 -1.9942 0.9821
4.0420 -0.4346 -1.9941 0.9821
4.0625 -0.1451 -1.9940 0.9821
-0.9893 -0.0353 -0.5135 0.9955
-0.9838 -0.1058 -0.5133 0.9956
-0.9715 -0.1753 -0.5121 0.9956
-0.9524 -0.2431 -0.5099 0.9956
-0.9268 -0.3085 -0.5067 0.9956
-0.9208 -0.3434 -0.5098 0.9956
-0.9271 -0.3840 -0.5206 0.9955
-0.9416 -0.4713 -0.5463 0.9953
-0.9486 -0.5180 -0.5607 0.9951
-3.3029 -1.9597 -1.9924 0.9828
-3.2310 -2.0764 -1.9925 0.9828
-3.1549 -2.1905 -1.9925 0.9828
-2.9908 -2.4102 -1.9927 0.9828
-2.8115 -2.6176 -1.9928 0.9828
-2.7164 -2.7164 -1.9929 0.9828
-2.5159 -2.9035 -1.9931 0.9828
-2.3025 -3.0758 -1.9932 0.9828
-2.0774 -3.2324 -1.9934 0.9828
-1.9607 -3.3046 -1.9934 0.9828
-1.7201 -3.4364 -1.9936 0.9828
-1.3431 -3.6009 -1.9938 0.9828
-1.0828 -3.6877 -1.9939 0.9828
-0.8170 -3.7558 -1.9940 0.9828
-0.4109 -3.8220 -1.9942 0.9828
-0.2742 -3.8343 -1.9942 0.9828
0.0000 -3.8443 -1.9943 0.9828
0.1372 -3.8419 -1.9944 0.9828
0.2743 -3.8346 -1.9944 0.9828
0.4110 -3.8225 -1.9944 0.9828
0.5471 -3.8054 -1.9945 0.9828
0.6826 -3.7836 -1.9945 0.9828
0.9508 -3.7253 -1.9946 0.9828
1.8427 -3.3747 -1.9947 0.9828
2.1929 -3.1584 -1.9947 0.9828
2.3043 -3.0781 -1.9947 0.9828
2.4127 -2.9939 -1.9947 0.9828
2.7188 -2.7188 -1.9947 0.9828
2.9058 -2.5179 -1.9947 0.9828
2.9938 -2.4126 -1.9947 0.9828
3.0780 -2.3042 -1.9947 0.9828
3.3065 -1.9619 -1.9946 0.9828
3.3744 -1.8426 -1.9945 0.9828
3.4379 -1.7209 -1.9945 0.9828
3.4971 -1.5971 -1.9945 0.9828
3.7247 -0.9507 -1.9943 0.9828
3.8047 -0.5470 -1.9941 0.9828
3.8338 -0.2742 -1.9940 0.9828
-0.9182 0.0000 -0.5029 0.9958
-0.9179 -0.0328 -0.5031 0.9958
-0.9011 -0.1626 -0.5015 0.9958
-0.8727 -0.2563 -0.4982 0.9959
-0.8465 -0.3157 -0.4948 0.9959
-0.8479 -0.3512 -0.5027 0.9958
-0.8506 -0.3884 -0.5122 0.9957
-0.8507 -0.4645 -0.5309 0.9956
-2.9883 -2.0748 -1.9925 0.9835
-2.7497 -2.3826 -1.9928 0.9835
-2.2834 -2.8335 -1.9931 0.9835
-2.1809 -2.9133 -1.9932 0.9835
-2.0756 -2.9894 -1.9933 0.9835
-1.9676 -3.0617 -1.9933 0.9835
-1.8572 -3.1301 -1.9934 0.9835
-1.6292 -3.2548 -1.9935 0.9835
-1.5121 -3.3110 -1.9936 0.9835
-1.3930 -3.3629 -1.9936 0.9835
-1.2721 -3.4106 -1.9937 0.9835
-1.0256 -3.4929 -1.9938 0.9835
-0.9003 -3.5274 -1.9939 0.9835
-0.6464 -3.5828 -1.9940 0.9835
-0.5181 -3.6037 -1.9940 0.9835
0.1300 -3.6388 -1.9943 0.9835
0.2598 -3.6320 -1.9943 0.9835
0.9006 -3.5284 -1.9945 0.9835
1.1500 -3.4553 -1.9945 0.9835
1.2726 -3.4121 -1.9945 0.9835
1.3936 -3.3645 -1.9946 0.9835
1.5128 -3.3126 -1.9946 0.9835
1.7453 -3.1963 -1.9946 0.9835
1.9689 -3.0637 -1.9946 0.9835
2.0770 -2.9915 -1.9946 0.9835
2.1824 -2.9154 -1.9946 0.9835
2.2851 -2.8357 -1.9946 0.9835
2.5751 -2.5751 -1.9946 0.9835
2.6654 -2.4815 -1.9946 0.9835
2.7522 -2.3848 -1.9946 0.9835
2.8356 -2.2850 -1.9946 0.9835
3.1318 -1.8582 -1.9945 0.9835
3.1960 -1.7452 -1.9944 0.9835
3.2562 -1.6300 -1.9944 0.9835
3.3123 -1.5127 -1.9944 0.9835
3.4548 -1.1499 -1.9943 0.9835
3.4936 -1.0258 -1.9942 0.9835
3.6037 -0.5181 -1.9940 0.9835
3.6198 -0.3892 -1.9940 0.9835
3.6312 -0.2597 -1.9939 0.9835
3.6381 -0.1300 -1.9939 0.9835
-0.8550 0.0000 -0.4936 0.9961
-0.8548 -0.0305 -0.4938 0.9961
-0.8393 -0.1514 -0.4924 0.9961
-0.8230 -0.2101 -0.4904 0.9961
-0.7787 -0.4252 -0.5122 0.9959
-0.7750 -0.4599 -0.5203 0.9958
-0.7696 -0.4946 -0.5282 0.9958
-0.7634 -0.5300 -0.5366 0.9957
-2.7629 -2.0683 -1.9926 0.9842
-2.5263 -2.3520 -1.9928 0.9842
-2.4408 -2.4408 -1.9929 0.9842
-2.3522 -2.5264 -1.9930 0.9842
-2.2606 -2.6089 -1.9930 0.9842
-2.1661 -2.6880 -1.9931 0.9842
-2.0688 -2.7637 -1.9932 0.9842
-1.5455 -3.0876 -1.9935 0.9842
-1.3214 -3.1902 -1.9936 0.9842
-1.0905 -3.2765 -1.9937 0.9842
-0.4915 -3.4185 -1.9940 0.9842
-0.2464 -3.4450 -1.9941 0.9842
-0.1233 -3.4517 -1.9941 0.9842
0.1233 -3.4518 -1.9942 0.9842
0.2464 -3.4453 -1.9942 0.9842
0.3692 -3.4344 -1.9943 0.9842
0.4916 -3.4191 -1.9943 0.9842
0.6133 -3.3994 -1.9943 0.9842
0.7343 -3.3754 -1.9944 0.9842
0.8543 -3.3471 -1.9944 0.9842
1.5463 -3.0892 -1.9945 0.9842
1.6556 -3.0320 -1.9945 0.9842
1.8677 -2.9062 -1.9945 0.9842
2.3540 -2.5284 -1.9945 0.9842
2.4428 -2.4428 -1.9945 0.9842
2.6898 -2.1676 -1.9945 0.9842
2.7654 -2.0702 -1.9944 0.9842
2.8375 -1.9701 -1.9944 0.9842
2.9060 -1.8676 -1.9944 0.9842
2.9708 -1.7626 -1.9944 0.9842
3.0318 -1.6555 -1.9943 0.9842
3.2363 -1.2071 -1.9942 0.9842
3.3466 -0.8542 -1.9941 0.9842
3.3749 -0.7342 -1.9940 0.9842
3.3988 -0.6132 -1.9940 0.9842
3.4338 -0.3692 -1.9939 0.9842
3.4512 -0.1233 -1.9938 0.9842
