ply
format ascii 1.0
element vertex 759
property float32 x
property float32 y
property float32 z
property float32 I
end_header
3.0352 9.1193 -1.1417 0.9620
3.0169 9.0644 -1.3536 0.9621
3.0103 9.0446 -1.5704 0.9621
5.8680 7.8387 -1.8405 0.9609
5.5845 8.0433 -1.8405 0.9609
5.2939 8.2375 -1.8405 0.9609
4.3831 8.7564 -1.8405 0.9609
4.0679 8.9074 -1.8406 0.9609
3.7474 9.0469 -1.8406 0.9609
3.0051 9.0288 -1.7886 0.9620
2.7372 9.3221 -1.8262 0.9612
2.4218 9.4885 -1.8406 0.9609
0.6986 9.7681 -1.8407 0.9609
0.3495 9.7869 -1.8407 0.9609
-0.6986 9.7685 -1.8408 0.9609
-1.0469 9.7374 -1.8408 0.9609
-1.7389 9.6380 -1.8408 0.9609
-2.0818 9.5699 -1.8408 0.9609
-3.0929 9.2927 -1.8409 0.9609
-3.4226 9.1765 -1.8409 0.9609
-3.7480 9.0485 -1.8409 0.9609
-4.0686 8.9091 -1.8409 0.9609
-4.3840 8.7582 -1.8409 0.9609
-4.9977 8.4232 -1.8409 0.9609
-5.2952 8.2395 -1.8410 0.9609
-5.5860 8.0453 -1.8410 0.9609
9.4197 0.3364 -1.9924 0.9622
9.4017 0.6724 -1.9924 0.9622
9.3717 1.0076 -1.9924 0.9622
9.2760 1.6736 -1.9924 0.9622
9.0441 2.6556 -1.9925 0.9622
8.9436 2.9767 -1.9925 0.9622
8.8317 3.2941 -1.9925 0.9622
8.7086 3.6072 -1.9925 0.9622
8.4291 4.2193 -1.9925 0.9622
8.1067 4.8100 -1.9925 0.9622
7.7430 5.3761 -1.9926 0.9622
7.5463 5.6491 -1.9926 0.9622
7.3399 5.9149 -1.9926 0.9622
7.1241 6.1731 -1.9926 0.9622
6.8993 6.4235 -1.9926 0.9622
6.1733 7.1243 -1.9926 0.9622
5.6333 7.5252 -1.9870 0.9623
3.0430 8.1585 -1.8406 0.9650
2.7499 8.2620 -1.8406 0.9650
2.4532 8.3549 -1.8406 0.9650
2.1535 8.4372 -1.8406 0.9650
1.8510 8.5088 -1.8407 0.9650
1.5461 8.5695 -1.8407 0.9650
0.6212 8.6858 -1.8407 0.9650
-0.6212 8.6861 -1.8408 0.9650
-1.5462 8.5701 -1.8408 0.9650
-1.8511 8.5095 -1.8408 0.9650
-2.1537 8.4381 -1.8408 0.9650
-2.7502 8.2630 -1.8408 0.9650
-3.0434 8.1597 -1.8409 0.9650
-4.3595 7.9839 -1.9228 0.9635
-4.7212 7.9572 -1.9558 0.9629
-5.0795 7.9038 -1.9860 0.9623
-5.6462 7.5425 -1.9916 0.9622
-5.9166 7.3420 -1.9932 0.9622
-6.4253 6.9013 -1.9932 0.9622
-7.1263 6.1750 -1.9932 0.9622
-7.3422 5.9167 -1.9932 0.9622
-8.7118 3.6086 -1.9932 0.9622
-8.8350 3.2953 -1.9932 0.9622
-9.0476 2.6566 -1.9932 0.9622
-9.1367 2.3320 -1.9932 0.9622
-9.2141 2.0044 -1.9932 0.9622
-9.3336 1.3420 -1.9932 0.9622
-9.3755 1.0080 -1.9932 0.9622
-9.4235 0.3366 -1.9932 0.9622
8.4722 0.3026 -1.9924 0.9658
8.4561 0.6048 -1.9924 0.9658
8.4291 0.9062 -1.9925 0.9658
8.2840 1.8021 -1.9925 0.9658
7.9434 2.9627 -1.9925 0.9658
7.8326 3.2444 -1.9925 0.9658
7.2913 4.3262 -1.9926 0.9658
7.1323 4.5836 -1.9926 0.9658
6.9642 4.8353 -1.9926 0.9658
5.7774 6.2054 -1.9926 0.9658
5.3201 6.6018 -1.9927 0.9658
4.8356 6.9646 -1.9927 0.9658
3.7871 7.5657 -1.9884 0.9658
3.5115 7.6892 -1.9867 0.9659
3.2301 7.7981 -1.9837 0.9659
2.9176 7.8225 -1.9622 0.9663
2.6114 7.8459 -1.9434 0.9666
2.3104 7.8686 -1.9274 0.9669
2.0139 7.8904 -1.9139 0.9671
1.1428 7.9483 -1.8872 0.9675
0.2854 7.9900 -1.8790 0.9677
-0.0000 8.0030 -1.8809 0.9677
-0.5740 8.0262 -1.8912 0.9675
-0.8631 8.0280 -1.8976 0.9674
-1.1544 8.0293 -1.9065 0.9672
-1.4488 8.0303 -1.9178 0.9670
-2.3580 8.0305 -1.9670 0.9662
-2.9546 7.9216 -1.9870 0.9659
-3.5183 7.7040 -1.9905 0.9658
-3.7948 7.5810 -1.9924 0.9658
-4.5849 7.1342 -1.9931 0.9658
-4.8366 6.9661 -1.9931 0.9658
-5.0822 6.7890 -1.9931 0.9658
-5.7788 6.2069 -1.9931 0.9658
-5.9967 5.9967 -1.9931 0.9658
-6.4093 5.5537 -1.9932 0.9658
-6.6034 5.3214 -1.9932 0.9658
-6.9663 4.8368 -1.9932 0.9658
-7.2936 4.3275 -1.9932 0.9658
-7.5837 3.7961 -1.9932 0.9658
-7.8352 3.2455 -1.9932 0.9658
-7.9461 2.9637 -1.9932 0.9658
-8.0468 2.6782 -1.9932 0.9658
-8.1373 2.3893 -1.9932 0.9658
-8.2173 2.0974 -1.9932 0.9658
-8.2870 1.8027 -1.9932 0.9658
-8.3944 1.2069 -1.9932 0.9658
-8.4591 0.6050 -1.9932 0.9658
7.6758 0.5490 -1.9925 0.9687
7.6171 1.0952 -1.9925 0.9687
7.5732 1.3664 -1.9925 0.9687
7.5196 1.6358 -1.9925 0.9687
7.4565 1.9032 -1.9925 0.9687
7.2104 2.6893 -1.9925 0.9687
6.7544 3.6882 -1.9926 0.9687
5.9924 4.8289 -1.9926 0.9687
5.8162 5.0398 -1.9926 0.9687
5.6327 5.2442 -1.9926 0.9687
5.2443 5.6328 -1.9927 0.9687
4.8291 5.9926 -1.9927 0.9687
4.6122 6.1612 -1.9927 0.9687
4.1610 6.4746 -1.9927 0.9687
3.9272 6.6190 -1.9927 0.9687
3.4451 6.8824 -1.9928 0.9687
3.1973 7.0010 -1.9928 0.9687
2.6897 7.2113 -1.9928 0.9687
2.4306 7.3028 -1.9928 0.9687
1.9031 7.4562 -1.9925 0.9687
1.6352 7.5167 -1.9917 0.9687
1.0942 7.6103 -1.9907 0.9687
0.8217 7.6432 -1.9904 0.9687
-0.2744 7.6833 -1.9906 0.9687
-0.5486 7.6703 -1.9911 0.9687
-0.8222 7.6475 -1.9915 0.9687
-1.3666 7.5745 -1.9929 0.9687
-2.1686 7.3856 -1.9930 0.9687
-3.1977 7.0020 -1.9930 0.9687
-3.4456 6.8834 -1.9931 0.9687
-4.3902 6.3231 -1.9931 0.9687
-4.8301 5.9938 -1.9931 0.9687
-5.0410 5.8176 -1.9931 0.9687
-5.4432 5.4432 -1.9931 0.9687
-5.6340 5.2455 -1.9931 0.9687
-6.1625 4.6132 -1.9931 0.9687
-6.4759 4.1618 -1.9931 0.9687
-6.6204 3.9280 -1.9931 0.9687
-6.7563 3.6893 -1.9931 0.9687
-7.1120 2.9459 -1.9931 0.9687
-7.3041 2.4310 -1.9931 0.9687
-7.5221 1.6363 -1.9931 0.9687
-7.6196 1.0955 -1.9931 0.9687
-7.6538 0.8229 -1.9931 0.9687
-7.6930 0.2747 -1.9931 0.9687
7.0204 0.5021 -1.9925 0.9712
6.9980 0.7524 -1.9925 0.9712
6.9667 1.0017 -1.9925 0.9712
6.9266 1.2497 -1.9925 0.9712
6.8776 1.4961 -1.9925 0.9712
6.8198 1.7407 -1.9925 0.9712
6.5947 2.4597 -1.9926 0.9712
6.4025 2.9239 -1.9926 0.9712
6.2941 3.1506 -1.9926 0.9712
6.1777 3.3733 -1.9926 0.9712
5.9213 3.8054 -1.9926 0.9712
5.7818 4.0143 -1.9926 0.9712
5.4807 4.4166 -1.9926 0.9712
5.1517 4.7964 -1.9927 0.9712
4.9773 4.9772 -1.9927 0.9712
4.7965 5.1518 -1.9927 0.9712
4.4168 5.4809 -1.9927 0.9712
4.0146 5.7821 -1.9927 0.9712
3.5919 6.0538 -1.9927 0.9712
2.9242 6.4032 -1.9928 0.9712
2.6938 6.5035 -1.9928 0.9712
2.4600 6.5955 -1.9928 0.9712
2.2230 6.6792 -1.9928 0.9712
1.9832 6.7543 -1.9928 0.9712
1.7409 6.8208 -1.9928 0.9712
1.4964 6.8787 -1.9928 0.9712
0.7525 6.9993 -1.9929 0.9712
0.5022 7.0217 -1.9929 0.9712
0.2513 7.0352 -1.9929 0.9712
0.0000 7.0398 -1.9929 0.9712
-0.2513 7.0353 -1.9929 0.9712
-0.5022 7.0219 -1.9929 0.9712
-1.0019 6.9683 -1.9929 0.9712
-1.2500 6.9281 -1.9930 0.9712
-1.4965 6.8791 -1.9930 0.9712
-1.7410 6.8213 -1.9930 0.9712
-1.9834 6.7549 -1.9930 0.9712
-2.2233 6.6798 -1.9930 0.9712
-3.1513 6.2955 -1.9930 0.9712
-3.3740 6.1791 -1.9930 0.9712
-3.5924 6.0547 -1.9930 0.9712
-3.8062 5.9226 -1.9931 0.9712
-4.0152 5.7831 -1.9931 0.9712
-4.2191 5.6361 -1.9931 0.9712
-4.4176 5.4819 -1.9931 0.9712
-4.6105 5.3208 -1.9931 0.9712
-4.7974 5.1528 -1.9931 0.9712
-4.9783 4.9783 -1.9931 0.9712
-5.3208 4.6105 -1.9931 0.9712
-5.4820 4.4177 -1.9931 0.9712
-5.7832 4.0153 -1.9931 0.9712
-6.2958 3.1514 -1.9931 0.9712
-6.4043 2.9247 -1.9931 0.9712
-6.5046 2.6943 -1.9931 0.9712
-6.7553 1.9835 -1.9931 0.9712
-6.8218 1.7412 -1.9931 0.9712
-6.9286 1.2501 -1.9931 0.9712
-6.9688 1.0020 -1.9931 0.9712
-7.0001 0.7526 -1.9931 0.9712
-7.0225 0.5023 -1.9931 0.9712
-7.0360 0.2513 -1.9931 0.9712
6.4781 0.0000 -1.9925 0.9733
6.4616 0.4621 -1.9925 0.9733
6.4122 0.9219 -1.9925 0.9733
6.2770 1.6021 -1.9926 0.9733
6.2158 1.8251 -1.9926 0.9733
6.0698 2.2639 -1.9926 0.9733
5.9852 2.4791 -1.9926 0.9733
5.7931 2.8998 -1.9926 0.9733
5.6859 3.1048 -1.9926 0.9733
5.3215 3.6948 -1.9926 0.9733
5.0444 4.0651 -1.9926 0.9733
4.7416 4.4146 -1.9927 0.9733
4.5810 4.5811 -1.9927 0.9733
4.0652 5.0446 -1.9927 0.9733
3.6950 5.3218 -1.9927 0.9733
3.5027 5.4503 -1.9927 0.9733
3.3059 5.5719 -1.9927 0.9733
3.1050 5.6863 -1.9928 0.9733
2.6914 5.8934 -1.9928 0.9733
2.2642 6.0705 -1.9928 0.9733
1.8254 6.2166 -1.9928 0.9732
1.6023 6.2778 -1.9928 0.9732
1.3772 6.3310 -1.9928 0.9732
0.6926 6.4421 -1.9929 0.9732
-0.2313 6.4752 -1.9929 0.9732
-0.9221 6.4135 -1.9929 0.9732
-1.1504 6.3765 -1.9929 0.9732
-1.3773 6.3314 -1.9930 0.9732
-2.0462 6.1480 -1.9930 0.9732
-2.2644 6.0711 -1.9930 0.9732
-2.9004 5.7943 -1.9930 0.9732
-3.1054 5.6871 -1.9930 0.9732
-3.3064 5.5727 -1.9930 0.9732
-3.5032 5.4511 -1.9930 0.9732
-4.2434 4.8971 -1.9931 0.9732
-4.4155 4.7426 -1.9931 0.9732
-4.8972 4.2434 -1.9931 0.9732
-5.3227 3.6956 -1.9931 0.9732
-5.7945 2.9005 -1.9931 0.9732
-5.9867 2.4798 -1.9931 0.9732
-6.1483 2.0463 -1.9931 0.9732
-6.2175 1.8256 -1.9931 0.9732
-6.4428 0.6927 -1.9931 0.9732
-6.4758 0.2313 -1.9931 0.9732
5.9943 0.0000 -1.9925 0.9750
5.9333 0.8531 -1.9926 0.9750
5.8991 1.0643 -1.9926 0.9750
5.8082 1.4825 -1.9926 0.9750
5.6165 2.0949 -1.9926 0.9750
5.5382 2.2940 -1.9926 0.9750
5.3604 2.6833 -1.9926 0.9750
5.0430 3.2409 -1.9926 0.9750
4.9241 3.4189 -1.9926 0.9750
4.5305 3.9257 -1.9927 0.9750
4.3875 4.0849 -1.9927 0.9750
4.2389 4.2389 -1.9927 0.9750
3.4190 4.9243 -1.9927 0.9750
3.2411 5.0432 -1.9927 0.9750
2.8731 5.2617 -1.9928 0.9750
2.4904 5.4533 -1.9928 0.9750
2.0951 5.6171 -1.9928 0.9750
1.8933 5.6883 -1.9928 0.9750
1.4826 5.8089 -1.9928 0.9750
1.2744 5.8582 -1.9928 0.9750
0.8532 5.9342 -1.9929 0.9750
0.6409 5.9609 -1.9929 0.9750
0.4277 5.9800 -1.9929 0.9750
-0.2140 5.9916 -1.9929 0.9750
-0.6409 5.9611 -1.9929 0.9750
-0.8532 5.9344 -1.9929 0.9750
-1.2744 5.8585 -1.9929 0.9750
-1.4827 5.8093 -1.9930 0.9750
-1.8934 5.6888 -1.9930 0.9750
-2.0952 5.6176 -1.9930 0.9750
-2.2944 5.5392 -1.9930 0.9750
-2.6838 5.3615 -1.9930 0.9750
-2.8734 5.2623 -1.9930 0.9750
-3.4195 4.9250 -1.9930 0.9750
-3.5931 4.7999 -1.9930 0.9750
-3.7622 4.6686 -1.9930 0.9750
-4.3883 4.0857 -1.9930 0.9750
-4.5314 3.9264 -1.9931 0.9750
-4.6686 3.7622 -1.9931 0.9750
-4.9251 3.4196 -1.9931 0.9750
-5.0441 3.2416 -1.9931 0.9750
-5.1565 3.0595 -1.9931 0.9750
-5.6891 1.8935 -1.9931 0.9750
-5.7530 1.6892 -1.9931 0.9750
-5.8096 1.4828 -1.9931 0.9750
-5.8589 1.2745 -1.9931 0.9750
-5.9006 1.0646 -1.9931 0.9750
-5.9349 0.8533 -1.9931 0.9750
-5.9615 0.6409 -1.9931 0.9750
-5.9806 0.4278 -1.9931 0.9750
-5.9920 0.2140 -1.9931 0.9750
5.5719 0.0000 -1.9926 0.9766
5.5684 0.1989 -1.9926 0.9766
5.5577 0.3975 -1.9926 0.9766
5.5152 0.7930 -1.9926 0.9766
5.4834 0.9893 -1.9926 0.9766
5.4447 1.1844 -1.9926 0.9766
5.2869 1.7596 -1.9926 0.9766
5.1479 2.1324 -1.9926 0.9766
5.0685 2.3147 -1.9926 0.9766
4.7921 2.8433 -1.9926 0.9766
4.6876 3.0125 -1.9926 0.9766
4.5771 3.1779 -1.9927 0.9766
4.4608 3.3393 -1.9927 0.9766
4.3388 3.4964 -1.9927 0.9766
4.2112 3.6491 -1.9927 0.9766
4.0783 3.7971 -1.9927 0.9766
3.9402 3.9402 -1.9927 0.9766
3.7971 4.0783 -1.9927 0.9766
3.4965 4.3389 -1.9927 0.9766
2.6706 4.8908 -1.9928 0.9766
1.5700 5.3469 -1.9928 0.9766
1.1846 5.4453 -1.9928 0.9766
0.7931 5.5160 -1.9928 0.9766
0.5957 5.5408 -1.9929 0.9766
-0.0000 5.5728 -1.9929 0.9766
-0.3976 5.5587 -1.9929 0.9766
-0.7931 5.5162 -1.9929 0.9766
-1.1846 5.4456 -1.9929 0.9766
-1.5701 5.3473 -1.9929 0.9766
-1.7600 5.2878 -1.9930 0.9766
-1.9476 5.2217 -1.9930 0.9766
-2.4946 4.9836 -1.9930 0.9766
-2.6709 4.8914 -1.9930 0.9766
-2.8438 4.7930 -1.9930 0.9766
-3.4970 4.3395 -1.9930 0.9766
-3.6497 4.2119 -1.9930 0.9766
-3.7977 4.0790 -1.9930 0.9766
-3.9409 3.9409 -1.9930 0.9766
-4.2120 3.6497 -1.9930 0.9766
-4.4616 3.3399 -1.9930 0.9766
-4.5780 3.1786 -1.9930 0.9766
-4.6885 3.0131 -1.9930 0.9766
-4.7931 2.8439 -1.9930 0.9766
-4.9838 2.4947 -1.9930 0.9766
-5.2219 1.9477 -1.9931 0.9766
-5.2881 1.7600 -1.9931 0.9766
-5.4002 1.3783 -1.9930 0.9766
-5.4459 1.1847 -1.9930 0.9766
-5.5413 0.5958 -1.9930 0.9766
-5.5697 0.1989 -1.9930 0.9766
5.1963 0.1856 -1.9926 0.9780
4.9890 1.4649 -1.9926 0.9780
4.8039 1.9898 -1.9926 0.9780
4.7298 2.1601 -1.9926 0.9780
4.6497 2.3275 -1.9926 0.9780
4.5637 2.4920 -1.9926 0.9780
4.4719 2.6533 -1.9926 0.9780
4.2712 2.9656 -1.9927 0.9780
4.0488 3.2628 -1.9927 0.9780
3.9298 3.4052 -1.9927 0.9780
3.8058 3.5433 -1.9927 0.9780
3.5433 3.8058 -1.9927 0.9780
3.4052 3.9299 -1.9927 0.9780
2.9657 4.2714 -1.9927 0.9780
2.8113 4.3745 -1.9927 0.9780
2.1602 4.7302 -1.9928 0.9780
1.9900 4.8043 -1.9928 0.9780
1.8173 4.8723 -1.9928 0.9780
1.6422 4.9341 -1.9928 0.9780
1.2860 5.0387 -1.9928 0.9780
1.1054 5.0814 -1.9928 0.9780
0.9233 5.1176 -1.9928 0.9780
0.5559 5.1705 -1.9929 0.9780
0.1856 5.1970 -1.9929 0.9780
0.0000 5.2004 -1.9929 0.9780
-0.7401 5.1475 -1.9929 0.9780
-1.1054 5.0817 -1.9929 0.9780
-1.2861 5.0390 -1.9929 0.9780
-1.4652 4.9899 -1.9929 0.9780
-1.6423 4.9344 -1.9929 0.9780
-1.8174 4.8727 -1.9930 0.9780
-2.9661 4.2720 -1.9930 0.9780
-3.4057 3.9304 -1.9930 0.9780
-3.6775 3.6775 -1.9930 0.9780
-3.8064 3.5439 -1.9930 0.9780
-3.9305 3.4058 -1.9930 0.9780
-4.1634 3.1167 -1.9930 0.9780
-4.4727 2.6538 -1.9930 0.9780
-4.6507 2.3280 -1.9930 0.9780
-4.8729 1.8175 -1.9930 0.9780
-4.9901 1.4652 -1.9930 0.9780
-5.0392 1.2862 -1.9930 0.9780
-5.0819 1.1055 -1.9930 0.9780
-5.1181 0.9234 -1.9930 0.9780
-5.1478 0.7401 -1.9930 0.9780
-5.1710 0.5559 -1.9930 0.9780
-5.1875 0.3710 -1.9930 0.9780
4.8686 0.0000 -1.9926 0.9792
4.8655 0.1738 -1.9926 0.9792
4.8562 0.3473 -1.9926 0.9792
4.7913 0.8645 -1.9926 0.9792
4.7174 1.2040 -1.9926 0.9792
4.6714 1.3717 -1.9926 0.9792
4.6195 1.5375 -1.9926 0.9792
4.4981 1.8632 -1.9926 0.9792
4.4287 2.0225 -1.9926 0.9792
4.2732 2.3333 -1.9927 0.9792
4.1872 2.4844 -1.9927 0.9792
3.8977 2.9178 -1.9927 0.9792
3.7911 3.0550 -1.9927 0.9792
2.4845 4.1874 -1.9928 0.9792
2.1795 4.3540 -1.9928 0.9792
1.8633 4.4984 -1.9928 0.9792
1.7016 4.5621 -1.9928 0.9792
1.3718 4.6719 -1.9928 0.9792
1.0350 4.7579 -1.9928 0.9792
0.8645 4.7918 -1.9928 0.9792
0.3474 4.8568 -1.9929 0.9792
-0.3474 4.8569 -1.9929 0.9792
-0.6930 4.8198 -1.9929 0.9792
-0.8646 4.7920 -1.9929 0.9792
-1.3719 4.6722 -1.9929 0.9792
-1.5378 4.6202 -1.9929 0.9792
-1.8635 4.4988 -1.9929 0.9792
-2.0229 4.4294 -1.9930 0.9792
-2.3337 4.2739 -1.9930 0.9792
-2.6327 4.0965 -1.9930 0.9792
-3.1889 3.6802 -1.9930 0.9792
-3.3182 3.5640 -1.9930 0.9792
-3.4433 3.4433 -1.9930 0.9792
-3.5640 3.3182 -1.9930 0.9792
-3.6802 3.1889 -1.9930 0.9792
-3.7917 3.0555 -1.9930 0.9792
-3.8983 2.9182 -1.9930 0.9792
-4.0000 2.7773 -1.9930 0.9792
-4.5626 1.7018 -1.9930 0.9792
-4.6204 1.5378 -1.9930 0.9792
-4.6724 1.3719 -1.9930 0.9792
-4.7184 1.2043 -1.9930 0.9792
-4.7583 1.0351 -1.9930 0.9792
-4.7923 0.8646 -1.9930 0.9792
-4.8201 0.6930 -1.9930 0.9792
-4.8417 0.5205 -1.9930 0.9792
-4.8572 0.3474 -1.9930 0.9792
4.5721 0.0000 -1.9926 0.9802
4.5692 0.1632 -1.9926 0.9802
4.5605 0.3262 -1.9926 0.9802
4.5459 0.4887 -1.9926 0.9802
4.5256 0.6507 -1.9926 0.9802
4.2839 1.5978 -1.9926 0.9802
4.2242 1.7497 -1.9926 0.9802
4.1590 1.8994 -1.9926 0.9802
4.0130 2.1912 -1.9927 0.9802
3.9322 2.3331 -1.9927 0.9802
3.7558 2.6077 -1.9927 0.9802
3.6603 2.7401 -1.9927 0.9802
3.5602 2.8690 -1.9927 0.9802
3.4555 2.9942 -1.9927 0.9802
2.9943 3.4556 -1.9927 0.9802
2.6078 3.7559 -1.9927 0.9802
2.1914 4.0132 -1.9928 0.9802
2.0467 4.0888 -1.9928 0.9802
1.7498 4.2245 -1.9928 0.9802
1.5979 4.2842 -1.9928 0.9802
1.1308 4.4306 -1.9928 0.9802
0.9720 4.4681 -1.9928 0.9802
0.8119 4.5000 -1.9928 0.9802
0.6508 4.5261 -1.9928 0.9802
0.4888 4.5465 -1.9928 0.9802
0.3262 4.5610 -1.9929 0.9802
-0.1632 4.5698 -1.9929 0.9802
-0.4888 4.5466 -1.9929 0.9802
-0.8119 4.5001 -1.9929 0.9802
-1.2883 4.3876 -1.9929 0.9802
-1.4441 4.3388 -1.9929 0.9802
-1.5980 4.2845 -1.9929 0.9802
-1.8996 4.1596 -1.9929 0.9802
-2.1916 4.0136 -1.9930 0.9802
-2.6081 3.7563 -1.9930 0.9802
-2.7405 3.6608 -1.9930 0.9802
-3.1161 3.3469 -1.9930 0.9802
-3.7564 2.6081 -1.9930 0.9802
-4.1598 1.8997 -1.9930 0.9802
-1.5118 0.5639 -0.7032 0.9930
-1.4401 0.4793 -0.6615 0.9934
-1.3400 0.3420 -0.6027 0.9940
-1.3688 0.2978 -0.6105 0.9939
-1.3955 0.2518 -0.6180 0.9938
-1.4180 0.2039 -0.6244 0.9938
4.3048 0.0000 -1.9926 0.9812
4.3020 0.1537 -1.9926 0.9812
4.2938 0.3071 -1.9926 0.9812
4.2801 0.4602 -1.9926 0.9812
4.2364 0.7643 -1.9926 0.9812
4.2064 0.9151 -1.9926 0.9812
4.1711 1.0646 -1.9926 0.9812
4.1305 1.2128 -1.9926 0.9812
4.0845 1.3595 -1.9926 0.9812
4.0334 1.5044 -1.9926 0.9812
3.9772 1.6474 -1.9927 0.9812
3.9158 1.7883 -1.9927 0.9812
3.6215 2.3274 -1.9927 0.9812
3.1508 2.9335 -1.9927 0.9812
2.9335 3.1508 -1.9927 0.9812
2.7013 3.3521 -1.9927 0.9812
2.5799 3.4464 -1.9927 0.9812
2.4553 3.5363 -1.9927 0.9812
2.3275 3.6217 -1.9928 0.9812
2.0632 3.7785 -1.9928 0.9812
1.2129 4.1308 -1.9928 0.9812
0.9151 4.2068 -1.9928 0.9812
0.6127 4.2614 -1.9928 0.9812
-0.0000 4.3053 -1.9929 0.9812
-0.3071 4.2944 -1.9929 0.9812
-0.4602 4.2807 -1.9929 0.9812
-0.9152 4.2070 -1.9929 0.9812
-1.0648 4.1717 -1.9929 0.9812
-1.3596 4.0851 -1.9929 0.9812
-1.5046 4.0340 -1.9929 0.9812
-1.6476 3.9777 -1.9929 0.9812
-2.3277 3.6220 -1.9930 0.9812
-2.4555 3.5366 -1.9930 0.9812
-2.7016 3.3525 -1.9930 0.9812
-2.8195 3.2539 -1.9930 0.9812
-2.9339 3.1512 -1.9930 0.9812
-3.0445 3.0445 -1.9930 0.9812
-3.1512 2.9339 -1.9930 0.9812
-3.2539 2.8196 -1.9930 0.9812
-3.3525 2.7016 -1.9930 0.9812
-3.4468 2.5802 -1.9930 0.9812
-3.5367 2.4556 -1.9930 0.9812
-3.6221 2.3278 -1.9930 0.9812
-3.7029 2.1970 -1.9930 0.9812
-3.8502 1.9273 -1.9930 0.9812
-1.1330 0.3327 -0.5466 0.9948
-1.1575 0.2954 -0.5529 0.9947
-1.2424 0.0444 -0.5755 0.9945
4.0519 0.2898 -1.9926 0.9821
4.0390 0.4342 -1.9926 0.9821
3.9361 1.0046 -1.9926 0.9821
3.8977 1.1445 -1.9926 0.9821
3.8544 1.2829 -1.9927 0.9821
3.8062 1.4196 -1.9927 0.9821
3.6952 1.6876 -1.9927 0.9821
3.5654 1.9469 -1.9927 0.9821
3.4175 2.1963 -1.9927 0.9821
3.3369 2.3169 -1.9927 0.9821
3.2521 2.4345 -1.9927 0.9821
2.9733 2.7682 -1.9927 0.9821
2.8726 2.8726 -1.9927 0.9821
2.6604 3.0702 -1.9927 0.9821
2.5491 3.1632 -1.9927 0.9821
2.3169 3.3370 -1.9928 0.9821
2.1964 3.4176 -1.9928 0.9821
2.0730 3.4938 -1.9928 0.9821
1.6877 3.6954 -1.9928 0.9821
1.5547 3.7533 -1.9928 0.9821
1.2830 3.8547 -1.9928 0.9821
1.1446 3.8981 -1.9928 0.9821
1.0047 3.9364 -1.9928 0.9821
0.8636 3.9698 -1.9928 0.9821
0.7213 3.9981 -1.9928 0.9821
0.4343 4.0394 -1.9928 0.9821
0.1450 4.0601 -1.9929 0.9821
-0.0000 4.0627 -1.9929 0.9821
-0.2898 4.0524 -1.9929 0.9821
-0.4343 4.0395 -1.9929 0.9821
-0.7214 3.9982 -1.9929 0.9821
-0.8636 3.9699 -1.9929 0.9821
-1.0048 3.9366 -1.9929 0.9821
-1.2830 3.8549 -1.9929 0.9821
-1.5548 3.7536 -1.9929 0.9821
-1.6878 3.6957 -1.9929 0.9821
-1.8186 3.6331 -1.9929 0.9821
-2.0732 3.4941 -1.9929 0.9821
-2.1966 3.4179 -1.9929 0.9821
-2.3172 3.3373 -1.9929 0.9821
-2.5494 3.1636 -1.9930 0.9821
-2.7686 2.9736 -1.9930 0.9821
-3.1636 2.5494 -1.9930 0.9821
-3.4180 2.1966 -1.9930 0.9821
-3.5660 1.9472 -1.9930 0.9821
-1.0290 0.4262 -0.5463 0.9951
-1.0119 0.3774 -0.5298 0.9952
-1.0422 0.2267 -0.5232 0.9953
-1.0518 0.1898 -0.5242 0.9952
-1.0769 0.0770 -0.5296 0.9952
-1.0803 0.0386 -0.5302 0.9952
3.8410 0.0000 -1.9926 0.9828
3.8386 0.1371 -1.9926 0.9828
3.8312 0.2740 -1.9926 0.9828
3.8190 0.4106 -1.9926 0.9828
3.7800 0.6820 -1.9926 0.9828
3.7533 0.8165 -1.9927 0.9828
3.7217 0.9499 -1.9927 0.9828
3.6855 1.0822 -1.9927 0.9828
3.6445 1.2130 -1.9927 0.9828
3.5989 1.3423 -1.9927 0.9828
3.4940 1.5956 -1.9927 0.9828
3.4348 1.7193 -1.9927 0.9828
3.3712 1.8409 -1.9927 0.9828
3.3034 1.9600 -1.9927 0.9828
3.2314 2.0767 -1.9927 0.9828
3.1552 2.1907 -1.9927 0.9828
3.0750 2.3019 -1.9927 0.9828
2.9909 2.4102 -1.9927 0.9828
2.8113 2.6175 -1.9927 0.9828
2.6175 2.8114 -1.9927 0.9828
2.4102 2.9909 -1.9927 0.9828
2.3020 3.0751 -1.9927 0.9828
2.1907 3.1553 -1.9928 0.9828
1.9601 3.3035 -1.9928 0.9828
1.7194 3.4350 -1.9928 0.9828
1.4700 3.5489 -1.9928 0.9828
1.3424 3.5991 -1.9928 0.9828
1.2131 3.6447 -1.9928 0.9828
1.0822 3.6857 -1.9928 0.9828
0.9500 3.7220 -1.9928 0.9828
0.6820 3.7803 -1.9928 0.9828
0.5467 3.8023 -1.9928 0.9828
0.2740 3.8316 -1.9928 0.9828
0.1371 3.8390 -1.9929 0.9828
0.0000 3.8414 -1.9929 0.9828
-0.1371 3.8390 -1.9929 0.9828
-0.2741 3.8317 -1.9929 0.9828
-0.4106 3.8195 -1.9929 0.9828
-0.8166 3.7537 -1.9929 0.9828
-1.2131 3.6449 -1.9929 0.9828
-1.5958 3.4944 -1.9929 0.9828
-2.1909 3.1555 -1.9929 0.9828
-2.5157 2.9033 -1.9929 0.9828
-2.6177 2.8117 -1.9930 0.9828
-3.0754 2.3022 -1.9930 0.9828
-3.2318 2.0770 -1.9930 0.9828
-0.9326 0.4259 -0.5319 0.9954
-0.9208 0.3434 -0.5098 0.9956
-0.9524 0.2431 -0.5099 0.9956
-0.9628 0.2094 -0.5112 0.9956
-0.9873 0.0706 -0.5135 0.9955
3.6382 0.0000 -1.9926 0.9835
3.6359 0.1299 -1.9926 0.9835
3.6012 0.5178 -1.9927 0.9835
3.5804 0.6460 -1.9927 0.9835
3.5551 0.7734 -1.9927 0.9835
3.3613 1.3923 -1.9927 0.9835
3.3095 1.5114 -1.9927 0.9835
3.2534 1.6286 -1.9927 0.9835
3.1932 1.7437 -1.9927 0.9835
3.1290 1.8565 -1.9927 0.9835
2.9886 2.0750 -1.9927 0.9835
2.9126 2.1804 -1.9927 0.9835
2.7497 2.3826 -1.9927 0.9835
2.5727 2.5727 -1.9927 0.9835
2.2830 2.8330 -1.9927 0.9835
1.9671 3.0608 -1.9928 0.9835
1.6286 3.2536 -1.9928 0.9835
1.3924 3.3615 -1.9928 0.9835
1.1490 3.4523 -1.9928 0.9835
1.0251 3.4911 -1.9928 0.9835
0.8998 3.5255 -1.9928 0.9835
0.7734 3.5553 -1.9928 0.9835
0.5178 3.6015 -1.9928 0.9835
0.3889 3.6177 -1.9928 0.9835
0.2596 3.6293 -1.9928 0.9835
0.1299 3.6362 -1.9928 0.9835
0.0000 3.6386 -1.9929 0.9835
-0.2596 3.6293 -1.9929 0.9835
-0.6460 3.5808 -1.9929 0.9835
-1.0251 3.4912 -1.9929 0.9835
-1.1491 3.4524 -1.9929 0.9835
-1.2716 3.4092 -1.9929 0.9835
-1.5116 3.3099 -1.9929 0.9835
-1.6287 3.2538 -1.9929 0.9835
-1.8567 3.1293 -1.9929 0.9835
-1.9672 3.0611 -1.9929 0.9835
-2.0752 2.9889 -1.9929 0.9835
-2.1806 2.9129 -1.9929 0.9835
-2.3829 2.7500 -1.9929 0.9835
-2.7500 2.3829 -1.9930 0.9835
-2.8333 2.2832 -1.9930 0.9835
-2.9890 2.0753 -1.9930 0.9835
-0.8507 0.4645 -0.5309 0.9956
-0.8506 0.3885 -0.5122 0.9957
-0.8479 0.3512 -0.5027 0.9958
-0.8465 0.3157 -0.4948 0.9959
-0.8837 0.2255 -0.4995 0.9958
-0.9077 0.1305 -0.5022 0.9958
-0.9127 0.0981 -0.5028 0.9958
3.4492 0.1232 -1.9927 0.9842
3.4426 0.2462 -1.9927 0.9842
3.4316 0.3689 -1.9927 0.9842
3.3966 0.6128 -1.9927 0.9842
3.3725 0.7337 -1.9927 0.9842
3.3442 0.8536 -1.9927 0.9842
3.2748 1.0900 -1.9927 0.9842
3.2338 1.2062 -1.9927 0.9842
2.9683 1.7612 -1.9927 0.9842
2.9036 1.8660 -1.9927 0.9842
2.7631 2.0684 -1.9927 0.9842
2.5261 2.3519 -1.9927 0.9842
2.4406 2.4406 -1.9927 0.9842
2.3519 2.5262 -1.9927 0.9842
2.2603 2.6085 -1.9927 0.9842
2.0684 2.7631 -1.9928 0.9842
1.9685 2.8352 -1.9928 0.9842
1.8661 2.9037 -1.9928 0.9842
1.6542 3.0294 -1.9928 0.9842
1.5450 3.0865 -1.9928 0.9842
1.4338 3.1397 -1.9928 0.9842
1.2062 3.2340 -1.9928 0.9842
0.9724 3.3118 -1.9928 0.9842
0.7337 3.3728 -1.9928 0.9842
0.4912 3.4166 -1.9928 0.9842
0.1232 3.4495 -1.9928 0.9842
-0.2462 3.4429 -1.9929 0.9842
-0.3690 3.4320 -1.9929 0.9842
-0.6129 3.3969 -1.9929 0.9842
-0.7337 3.3729 -1.9929 0.9842
-0.8536 3.3446 -1.9929 0.9842
-1.0901 3.2751 -1.9929 0.9842
-1.2063 3.2342 -1.9929 0.9842
-1.7614 2.9686 -1.9929 0.9842
-1.8662 2.9039 -1.9929 0.9842
-2.0686 2.7633 -1.9929 0.9842
-2.3522 2.5264 -1.9929 0.9842
-2.6088 2.2605 -1.9929 0.9842
-2.6878 2.1659 -1.9929 0.9842
-2.7634 2.0686 -1.9929 0.9842
-0.7634 0.5300 -0.5366 0.9957
-0.7750 0.4599 -0.5203 0.9958
-0.7787 0.4252 -0.5122 0.9959
-0.7806 0.3908 -0.5040 0.9960
-0.7887 0.2942 -0.4860 0.9961
-0.8230 0.2101 -0.4904 0.9961
-0.8318 0.1809 -0.4915 0.9961
-0.8393 0.1514 -0.4924 0.9961
-0.8453 0.1215 -0.4930 0.9961
-0.8531 0.0610 -0.4938 0.9961
