ply
format ascii 1.0
element vertex 766
property float32 x
property float32 y
property float32 z
property float32 I
end_header
-3.6347 8.7750 -1.3458 0.9624
-3.6254 8.7524 -1.5607 0.9623
5.5204 7.9509 -1.8194 0.9614
4.9457 8.3355 -1.8218 0.9613
4.3445 8.6791 -1.8243 0.9613
4.0348 8.8349 -1.8256 0.9612
3.7196 8.9798 -1.8269 0.9612
3.3992 9.1136 -1.8283 0.9612
3.0740 9.2360 -1.8296 0.9612
2.7445 9.3470 -1.8310 0.9611
2.4110 9.4462 -1.8324 0.9611
2.0739 9.5336 -1.8339 0.9611
1.7337 9.6091 -1.8353 0.9610
0.6982 9.7625 -1.8397 0.9609
0.3496 9.7890 -1.8411 0.9609
-1.0504 9.7704 -1.8470 0.9608
-3.6186 8.7361 -1.7773 0.9622
9.2477 0.3303 -1.9560 0.9629
9.2014 0.9893 -1.9562 0.9629
9.1610 1.3172 -1.9564 0.9629
9.1091 1.6435 -1.9566 0.9629
9.0459 1.9678 -1.9568 0.9629
8.9712 2.2898 -1.9571 0.9629
8.6804 3.2376 -1.9583 0.9628
8.5615 3.5463 -1.9588 0.9628
8.1406 4.4451 -1.9606 0.9628
7.8083 5.0181 -1.9620 0.9628
7.6272 5.2956 -1.9627 0.9627
7.4363 5.5668 -1.9635 0.9627
7.2360 5.8311 -1.9644 0.9627
6.1004 7.0402 -1.9691 0.9626
5.8480 7.2569 -1.9701 0.9626
5.5790 7.4527 -1.9679 0.9627
5.3041 7.6393 -1.9659 0.9627
4.5761 7.7126 -1.8957 0.9640
3.5915 7.8643 -1.8275 0.9653
3.3106 7.9926 -1.8287 0.9652
3.0252 8.1110 -1.8299 0.9652
2.4422 8.3173 -1.8323 0.9652
2.1452 8.4049 -1.8336 0.9652
1.8451 8.4820 -1.8349 0.9651
1.5423 8.5484 -1.8361 0.9651
1.2371 8.6040 -1.8374 0.9651
0.6210 8.6826 -1.8400 0.9650
-0.3114 8.7178 -1.8439 0.9650
-0.9338 8.6858 -1.8466 0.9649
-1.2441 8.6530 -1.8479 0.9649
-1.8609 8.5543 -1.8505 0.9648
-2.4698 8.4114 -1.8531 0.9648
-2.7704 8.3236 -1.8543 0.9648
-3.0678 8.2250 -1.8556 0.9647
-3.3616 8.1157 -1.8568 0.9647
-3.6516 7.9958 -1.8581 0.9647
-4.2235 7.7348 -1.8628 0.9646
-4.9596 7.7173 -1.9391 0.9632
-5.3528 7.7096 -1.9839 0.9624
-5.7062 7.6226 -2.0127 0.9618
-5.9879 7.4305 -2.0172 0.9617
-7.0097 6.5263 -2.0245 0.9616
-7.4646 6.0153 -2.0264 0.9616
-7.8816 5.4723 -2.0282 0.9615
-8.0751 5.1896 -2.0290 0.9615
-8.2584 4.8999 -2.0298 0.9615
-8.4311 4.6037 -2.0305 0.9615
-8.7438 3.9932 -2.0319 0.9615
-9.3253 2.3802 -2.0344 0.9614
-9.4059 2.0462 -2.0347 0.9614
8.3390 0.0000 -1.9599 0.9663
8.3338 0.2977 -1.9599 0.9663
8.3181 0.5949 -1.9599 0.9663
8.2920 0.8915 -1.9600 0.9663
8.2555 1.1870 -1.9602 0.9663
8.2087 1.4810 -1.9604 0.9663
8.0842 2.0634 -1.9609 0.9663
8.0067 2.3510 -1.9612 0.9663
7.8217 2.9173 -1.9620 0.9663
7.7143 3.1954 -1.9624 0.9663
7.4705 3.7395 -1.9634 0.9663
7.1890 4.2655 -1.9646 0.9662
7.0345 4.5208 -1.9653 0.9662
5.7140 6.1373 -1.9708 0.9661
4.0287 7.3781 -1.9757 0.9660
3.4884 7.6384 -1.9736 0.9661
3.1905 7.7026 -1.9594 0.9663
2.5670 7.7125 -1.9104 0.9672
2.2658 7.7167 -1.8902 0.9675
1.6802 7.7235 -1.8577 0.9680
1.3940 7.7262 -1.8452 0.9683
1.1130 7.7407 -1.8380 0.9684
0.8365 7.7805 -1.8391 0.9684
0.2797 7.8303 -1.8415 0.9683
-0.2800 7.8404 -1.8438 0.9683
-0.5600 7.8304 -1.8450 0.9683
-0.8397 7.8104 -1.8462 0.9682
-1.6811 7.7278 -1.8587 0.9680
-1.9718 7.7254 -1.8739 0.9678
-3.8180 7.6274 -2.0047 0.9656
-4.6340 7.2106 -2.0144 0.9654
-4.8910 7.0444 -2.0155 0.9654
-5.3867 6.6845 -2.0176 0.9653
-5.6247 6.4912 -2.0186 0.9653
-5.8556 6.2894 -2.0196 0.9653
-6.5032 5.6351 -2.0224 0.9653
-6.7030 5.4016 -2.0232 0.9652
-6.8943 5.1610 -2.0240 0.9652
-7.2504 4.6596 -2.0256 0.9652
-7.4146 4.3993 -2.0263 0.9652
-7.7144 3.8616 -2.0275 0.9652
-7.8496 3.5848 -2.0281 0.9652
-8.0894 3.0172 -2.0291 0.9651
-8.1938 2.7271 -2.0296 0.9651
-8.2875 2.4334 -2.0300 0.9651
-8.3706 2.1365 -2.0304 0.9651
-8.4428 1.8366 -2.0307 0.9651
-8.5041 1.5343 -2.0309 0.9651
-8.5544 1.2299 -2.0312 0.9651
-8.5936 0.9239 -2.0313 0.9651
-8.6216 0.6166 -2.0315 0.9651
-8.6384 0.3085 -2.0315 0.9651
7.5770 0.2706 -1.9631 0.9692
7.5627 0.5409 -1.9631 0.9692
7.4631 1.3465 -1.9635 0.9692
7.4111 1.6122 -1.9637 0.9691
7.3498 1.8759 -1.9640 0.9691
7.1995 2.3962 -1.9646 0.9691
7.0130 2.9049 -1.9654 0.9691
6.9064 3.1540 -1.9658 0.9691
6.7911 3.3993 -1.9663 0.9691
6.3941 4.1093 -1.9680 0.9691
6.2454 4.3362 -1.9686 0.9691
6.0887 4.5579 -1.9692 0.9691
5.9242 4.7740 -1.9699 0.9691
5.7521 4.9842 -1.9707 0.9690
5.5727 5.1883 -1.9714 0.9690
5.1925 5.5772 -1.9730 0.9690
4.9923 5.7614 -1.9738 0.9690
4.7856 5.9385 -1.9747 0.9690
4.5726 6.1083 -1.9756 0.9690
3.8991 6.5715 -1.9784 0.9689
3.6639 6.7098 -1.9794 0.9689
3.4238 6.8398 -1.9804 0.9689
3.1791 6.9613 -1.9815 0.9689
2.6772 7.1780 -1.9836 0.9688
2.4202 7.2716 -1.9843 0.9688
1.8950 7.4244 -1.9839 0.9688
1.6288 7.4875 -1.9840 0.9688
1.3607 7.5417 -1.9842 0.9688
0.5471 7.6501 -1.9858 0.9688
0.0000 7.6768 -1.9877 0.9688
-0.2742 7.6764 -1.9888 0.9688
-0.5483 7.6669 -1.9902 0.9687
-1.6395 7.5366 -1.9970 0.9686
-1.9094 7.4810 -1.9991 0.9686
-2.4439 7.3426 -2.0037 0.9685
-2.7078 7.2599 -2.0062 0.9685
-3.4741 6.9404 -2.0096 0.9684
-3.9645 6.6818 -2.0116 0.9684
-4.4354 6.3882 -2.0136 0.9684
-4.6629 6.2288 -2.0146 0.9684
-5.1000 5.8858 -2.0164 0.9683
-5.3092 5.7025 -2.0173 0.9683
-5.7073 5.3137 -2.0190 0.9683
-6.2497 4.6785 -2.0213 0.9683
-6.4149 4.4540 -2.0220 0.9682
-6.5720 4.2236 -2.0227 0.9682
-6.7207 3.9876 -2.0233 0.9682
-6.8607 3.7462 -2.0239 0.9682
-6.9920 3.4999 -2.0245 0.9682
-7.5106 2.2053 -2.0267 0.9682
-7.5857 1.9361 -2.0270 0.9682
-7.6510 1.6644 -2.0273 0.9682
-7.7520 1.1146 -2.0278 0.9682
-7.7874 0.8372 -2.0279 0.9682
-7.8280 0.2796 -2.0281 0.9682
6.9439 0.0000 -1.9658 0.9715
6.9264 0.4954 -1.9658 0.9715
6.9046 0.7423 -1.9659 0.9715
6.8350 1.2332 -1.9662 0.9715
6.7873 1.4765 -1.9664 0.9715
6.5933 2.1945 -1.9672 0.9715
6.4222 2.6602 -1.9679 0.9715
6.1052 3.3337 -1.9692 0.9715
5.8549 3.7627 -1.9703 0.9715
5.7185 3.9704 -1.9708 0.9715
5.5749 4.1733 -1.9714 0.9715
5.4241 4.3710 -1.9721 0.9715
5.2664 4.5634 -1.9727 0.9714
5.1019 4.7501 -1.9734 0.9714
4.7536 5.1057 -1.9749 0.9714
4.3807 5.4361 -1.9764 0.9714
4.1856 5.5913 -1.9772 0.9714
3.9851 5.7396 -1.9781 0.9714
3.7793 5.8808 -1.9790 0.9714
3.5686 6.0146 -1.9798 0.9713
3.3532 6.1410 -1.9807 0.9713
3.1334 6.2596 -1.9817 0.9713
2.9093 6.3705 -1.9826 0.9713
2.4498 6.5683 -1.9846 0.9713
2.2149 6.6548 -1.9855 0.9713
1.7363 6.8028 -1.9876 0.9712
1.4932 6.8640 -1.9886 0.9712
1.2479 6.9165 -1.9896 0.9712
1.0007 6.9602 -1.9907 0.9712
0.5022 7.0213 -1.9928 0.9712
-0.5032 7.0363 -1.9970 0.9711
-1.0050 6.9899 -1.9991 0.9711
-1.2545 6.9532 -2.0002 0.9711
-1.7492 6.8531 -2.0023 0.9710
-2.2359 6.7178 -2.0043 0.9710
-2.4755 6.6371 -2.0053 0.9710
-2.9456 6.4499 -2.0073 0.9710
-3.1755 6.3438 -2.0083 0.9709
-3.4015 6.2294 -2.0093 0.9709
-3.6234 6.1068 -2.0102 0.9709
-4.0535 5.8381 -2.0120 0.9709
-4.2611 5.6922 -2.0129 0.9709
-4.6602 5.3782 -2.0146 0.9708
-4.8512 5.2105 -2.0154 0.9708
-5.2145 4.8549 -2.0170 0.9708
-5.5515 4.4737 -2.0184 0.9708
-5.7096 4.2741 -2.0191 0.9708
-5.8603 4.0689 -2.0197 0.9708
-6.0037 3.8583 -2.0203 0.9708
-6.2671 3.4221 -2.0214 0.9708
-6.3869 3.1970 -2.0219 0.9707
-6.4984 2.9677 -2.0224 0.9707
-6.6964 2.4976 -2.0233 0.9707
-6.7825 2.2574 -2.0236 0.9707
-6.9284 1.7684 -2.0243 0.9707
-7.0386 1.2699 -2.0248 0.9707
-7.0801 1.0180 -2.0249 0.9707
-7.1124 0.7647 -2.0251 0.9707
-7.1355 0.5104 -2.0252 0.9707
-7.1494 0.2554 -2.0252 0.9707
6.3986 0.0000 -1.9681 0.9736
6.3824 0.4565 -1.9681 0.9736
6.3623 0.6840 -1.9682 0.9736
6.3342 0.9107 -1.9683 0.9736
6.2982 1.1363 -1.9685 0.9736
6.2541 1.3605 -1.9686 0.9736
6.0752 2.0220 -1.9694 0.9736
5.9174 2.4511 -1.9700 0.9736
5.8273 2.6612 -1.9704 0.9735
5.7297 2.8681 -1.9708 0.9735
5.6250 3.0715 -1.9712 0.9735
5.5131 3.2710 -1.9717 0.9735
4.8515 4.2038 -1.9745 0.9735
4.3787 4.7031 -1.9765 0.9735
4.2096 4.8581 -1.9772 0.9735
3.6703 5.2863 -1.9794 0.9734
3.4807 5.4161 -1.9802 0.9734
3.2865 5.5392 -1.9810 0.9734
3.0880 5.6553 -1.9819 0.9734
2.6790 5.8663 -1.9836 0.9734
2.4691 5.9608 -1.9845 0.9734
2.2558 6.0479 -1.9854 0.9733
1.8202 6.1992 -1.9872 0.9733
1.3747 6.3192 -1.9891 0.9733
0.6923 6.4392 -1.9920 0.9733
0.2314 6.4785 -1.9939 0.9732
-0.2316 6.4849 -1.9959 0.9732
-0.9248 6.4324 -1.9988 0.9732
-2.0571 6.1807 -2.0036 0.9731
-2.2775 6.1062 -2.0045 0.9731
-2.4951 6.0238 -2.0054 0.9731
-2.9211 5.8357 -2.0072 0.9731
-3.1289 5.7302 -2.0081 0.9730
-3.3329 5.6173 -2.0090 0.9730
-3.7282 5.3697 -2.0107 0.9730
-4.1051 5.0941 -2.0123 0.9730
-4.2859 4.9462 -2.0130 0.9730
-4.6312 4.6312 -2.0145 0.9730
-4.9532 4.2919 -2.0159 0.9729
-5.1048 4.1137 -2.0165 0.9729
-5.2500 3.9301 -2.0171 0.9729
-5.5202 3.5476 -2.0183 0.9729
-6.0694 2.5140 -2.0206 0.9729
-6.1564 2.2962 -2.0210 0.9729
-6.2355 2.0754 -2.0213 0.9729
-6.3065 1.8518 -2.0216 0.9729
-6.5087 0.9358 -2.0225 0.9729
-6.5384 0.7030 -2.0227 0.9729
-6.5724 0.2347 -2.0228 0.9729
5.9266 0.0000 -1.9700 0.9753
5.9229 0.2115 -1.9701 0.9753
5.9117 0.4228 -1.9701 0.9753
5.8670 0.8435 -1.9703 0.9753
5.8336 1.0525 -1.9704 0.9753
5.7928 1.2601 -1.9706 0.9753
5.7447 1.4662 -1.9708 0.9753
5.6268 1.8728 -1.9713 0.9753
5.5572 2.0727 -1.9716 0.9753
5.2095 2.8446 -1.9730 0.9753
5.1058 3.0294 -1.9734 0.9753
4.8790 3.3875 -1.9744 0.9753
4.6273 3.7290 -1.9754 0.9753
4.4926 3.8929 -1.9760 0.9753
4.3521 4.0519 -1.9766 0.9752
4.2060 4.2060 -1.9772 0.9752
4.0545 4.3548 -1.9778 0.9752
3.8978 4.4983 -1.9785 0.9752
3.7360 4.6361 -1.9792 0.9752
3.3982 4.8943 -1.9806 0.9752
3.2225 5.0144 -1.9813 0.9752
3.0427 5.1281 -1.9821 0.9752
2.6712 5.3363 -1.9837 0.9752
2.0880 5.5982 -1.9861 0.9751
1.8877 5.6716 -1.9869 0.9751
1.6848 5.7378 -1.9878 0.9751
1.2723 5.8485 -1.9895 0.9751
0.4277 5.9807 -1.9931 0.9750
0.0000 6.0014 -1.9949 0.9750
-0.2143 6.0003 -1.9958 0.9750
-1.0680 5.9194 -1.9994 0.9750
-2.1066 5.6481 -2.0038 0.9749
-3.0824 5.1950 -2.0079 0.9749
-3.4478 4.9657 -2.0095 0.9748
-3.6242 4.8413 -2.0102 0.9748
-3.7960 4.7106 -2.0110 0.9748
-4.1253 4.4309 -2.0124 0.9748
-4.7198 3.8034 -2.0149 0.9748
-4.9818 3.4590 -2.0160 0.9748
-5.5232 2.5223 -2.0183 0.9747
-5.6107 2.3240 -2.0187 0.9747
-5.9812 1.0791 -2.0203 0.9747
-6.0164 0.8650 -2.0204 0.9747
-6.0438 0.6498 -2.0206 0.9747
5.5104 0.1968 -1.9718 0.9768
5.4999 0.3934 -1.9718 0.9768
5.4583 0.7848 -1.9720 0.9768
5.4272 0.9792 -1.9721 0.9768
5.3892 1.1724 -1.9723 0.9768
5.2347 1.7423 -1.9729 0.9768
5.1699 1.9283 -1.9732 0.9768
5.0207 2.2929 -1.9738 0.9768
4.9366 2.4711 -1.9742 0.9768
4.8461 2.6462 -1.9745 0.9768
4.7496 2.8181 -1.9749 0.9768
4.6470 2.9864 -1.9754 0.9768
4.4242 3.3119 -1.9763 0.9768
4.0480 3.7688 -1.9779 0.9768
3.9120 3.9121 -1.9784 0.9768
3.7710 4.0504 -1.9790 0.9768
3.6252 4.1837 -1.9797 0.9768
3.4747 4.3118 -1.9803 0.9768
3.3197 4.4345 -1.9809 0.9767
3.1603 4.5517 -1.9816 0.9767
2.8295 4.7689 -1.9830 0.9767
2.6585 4.8687 -1.9837 0.9767
2.4839 4.9623 -1.9845 0.9767
2.1252 5.1307 -1.9860 0.9767
1.7551 5.2734 -1.9875 0.9767
1.1828 5.4374 -1.9899 0.9766
0.9884 5.4784 -1.9908 0.9766
0.3976 5.5596 -1.9932 0.9766
0.1990 5.5726 -1.9941 0.9766
-0.1992 5.5773 -1.9958 0.9766
-0.3983 5.5690 -1.9966 0.9766
-0.7952 5.5310 -1.9983 0.9765
-0.9926 5.5014 -1.9991 0.9765
-1.3837 5.4211 -2.0008 0.9765
-1.5769 5.3704 -2.0016 0.9765
-1.7683 5.3129 -2.0024 0.9765
-1.9576 5.2485 -2.0032 0.9765
-2.3288 5.0994 -2.0048 0.9765
-2.5103 5.0150 -2.0055 0.9765
-2.6887 4.9241 -2.0063 0.9764
-2.8638 4.8267 -2.0070 0.9764
-3.0354 4.7232 -2.0078 0.9764
-3.5265 4.3762 -2.0098 0.9764
-3.6817 4.2489 -2.0105 0.9764
-3.9779 3.9779 -2.0118 0.9764
-4.1186 3.8345 -2.0124 0.9764
-4.5086 3.3751 -2.0140 0.9764
-4.7402 3.0463 -2.0150 0.9763
-4.8470 2.8758 -2.0155 0.9763
-5.1297 2.3427 -2.0167 0.9763
-5.2110 2.1584 -2.0170 0.9763
-5.2855 1.9714 -2.0173 0.9763
-5.3533 1.7817 -2.0176 0.9763
-5.4142 1.5898 -2.0179 0.9763
-5.4681 1.3956 -2.0181 0.9763
-5.5150 1.1997 -2.0183 0.9763
-5.5548 1.0022 -2.0185 0.9763
-5.5874 0.8033 -2.0186 0.9763
-5.6128 0.6035 -2.0187 0.9763
-5.6310 0.4027 -2.0188 0.9763
-5.6419 0.2015 -2.0189 0.9763
5.0975 0.7329 -1.9735 0.9782
5.0684 0.9144 -1.9736 0.9782
4.8279 1.8007 -1.9746 0.9782
4.6885 2.1412 -1.9752 0.9782
4.6099 2.3075 -1.9755 0.9782
4.4351 2.6315 -1.9763 0.9782
4.3393 2.7887 -1.9767 0.9781
4.2379 2.9424 -1.9771 0.9781
4.1311 3.0925 -1.9775 0.9781
4.0190 3.2387 -1.9780 0.9781
3.9018 3.3810 -1.9785 0.9781
3.7797 3.5190 -1.9790 0.9781
3.5209 3.7817 -1.9801 0.9781
3.3847 3.9061 -1.9807 0.9781
3.2441 4.0256 -1.9813 0.9781
3.0993 4.1401 -1.9819 0.9781
2.4818 4.5450 -1.9845 0.9781
2.3188 4.6323 -1.9852 0.9781
1.4621 4.9794 -1.9888 0.9780
1.1040 5.0749 -1.9903 0.9780
0.9225 5.1130 -1.9910 0.9780
0.5558 5.1698 -1.9926 0.9780
0.1857 5.2004 -1.9941 0.9780
-0.1859 5.2045 -1.9957 0.9779
-0.3717 5.1966 -1.9965 0.9779
-0.5571 5.1820 -1.9973 0.9779
-0.7420 5.1608 -1.9981 0.9779
-1.1092 5.0987 -1.9996 0.9779
-1.2909 5.0578 -2.0004 0.9779
-1.4712 5.0104 -2.0011 0.9779
-1.8263 4.8964 -2.0026 0.9779
-2.0006 4.8299 -2.0034 0.9779
-2.1725 4.7571 -2.0041 0.9778
-2.5081 4.5933 -2.0055 0.9778
-2.6714 4.5024 -2.0062 0.9778
-2.8313 4.4056 -2.0069 0.9778
-2.9878 4.3032 -2.0076 0.9778
-3.4339 3.9629 -2.0095 0.9778
-3.7100 3.7100 -2.0106 0.9778
-4.4204 2.8408 -2.0137 0.9777
-4.7016 2.3534 -2.0149 0.9777
-4.7834 2.1845 -2.0152 0.9777
-4.8591 2.0127 -2.0155 0.9777
-4.9286 1.8383 -2.0158 0.9777
-5.0987 1.3014 -2.0166 0.9777
-5.1424 1.1187 -2.0167 0.9777
-5.1795 0.9345 -2.0169 0.9777
-5.2335 0.5627 -2.0171 0.9777
-5.2607 0.1879 -2.0173 0.9777
4.8127 0.3442 -1.9747 0.9794
4.7975 0.5158 -1.9748 0.9794
4.7762 0.6867 -1.9749 0.9794
4.7489 0.8568 -1.9750 0.9794
4.6764 1.1936 -1.9753 0.9794
4.6313 1.3599 -1.9755 0.9794
4.5803 1.5245 -1.9757 0.9794
4.5235 1.6872 -1.9759 0.9793
4.4610 1.8478 -1.9762 0.9793
4.2399 2.3151 -1.9771 0.9793
4.0654 2.6127 -1.9778 0.9793
3.7652 3.0342 -1.9791 0.9793
3.5408 3.2966 -1.9800 0.9793
3.4218 3.4218 -1.9805 0.9793
3.2983 3.5426 -1.9811 0.9793
3.0389 3.7710 -1.9821 0.9793
2.9032 3.8782 -1.9827 0.9793
2.7637 3.9805 -1.9833 0.9793
2.6207 4.0778 -1.9839 0.9793
1.6973 4.5506 -1.9878 0.9792
1.5343 4.6099 -1.9885 0.9792
1.2024 4.7109 -1.9899 0.9792
1.0339 4.7525 -1.9906 0.9792
0.8639 4.7881 -1.9913 0.9792
0.6927 4.8176 -1.9920 0.9792
0.5205 4.8411 -1.9927 0.9792
0.3475 4.8583 -1.9935 0.9792
0.1739 4.8694 -1.9942 0.9792
-0.1740 4.8730 -1.9957 0.9791
-0.3480 4.8655 -1.9964 0.9791
-0.8670 4.8057 -1.9986 0.9791
-1.0384 4.7734 -1.9993 0.9791
-1.3773 4.6905 -2.0008 0.9791
-2.0336 4.4529 -2.0035 0.9791
-2.3476 4.2994 -2.0049 0.9791
-2.6501 4.1236 -2.0061 0.9790
-3.2138 3.7089 -2.0085 0.9790
-3.7128 3.2172 -2.0107 0.9790
-3.9347 2.9455 -2.0116 0.9790
-4.1366 2.6584 -2.0125 0.9790
-4.2296 2.5096 -2.0129 0.9790
-4.4760 2.0441 -2.0139 0.9790
-4.6708 1.5546 -2.0147 0.9789
-4.7708 1.2177 -2.0152 0.9789
-4.8463 0.8744 -2.0155 0.9789
-4.9127 0.3514 -2.0158 0.9789
4.5310 0.1618 -1.9759 0.9804
4.5224 0.3234 -1.9760 0.9804
4.5081 0.4847 -1.9760 0.9804
4.4881 0.6453 -1.9761 0.9804
4.4625 0.8051 -1.9762 0.9804
4.3943 1.1216 -1.9765 0.9804
4.3039 1.4325 -1.9769 0.9804
4.2505 1.5853 -1.9771 0.9804
4.1276 1.8850 -1.9776 0.9804
4.0583 2.0314 -1.9779 0.9804
3.9043 2.3165 -1.9785 0.9804
3.6364 2.7221 -1.9796 0.9804
2.9788 3.4377 -1.9824 0.9803
2.8549 3.5427 -1.9829 0.9803
2.5963 3.7394 -1.9840 0.9803
2.4619 3.8308 -1.9846 0.9803
2.0401 4.0757 -1.9863 0.9803
1.7453 4.2135 -1.9876 0.9803
1.4412 4.3300 -1.9889 0.9803
1.2861 4.3801 -1.9895 0.9803
1.1293 4.4247 -1.9902 0.9803
0.8114 4.4970 -1.9915 0.9803
0.4888 4.5466 -1.9929 0.9802
0.1633 4.5730 -1.9943 0.9802
-0.1634 4.5762 -1.9956 0.9802
-0.4898 4.5560 -1.9970 0.9802
-0.6523 4.5371 -1.9977 0.9802
-0.8142 4.5125 -1.9984 0.9802
-1.1348 4.4460 -1.9997 0.9802
-1.2932 4.4041 -2.0004 0.9802
-1.4500 4.3566 -2.0011 0.9802
-1.6051 4.3035 -2.0017 0.9802
-1.7583 4.2448 -2.0024 0.9802
-1.9093 4.1807 -2.0030 0.9801
-2.0579 4.1111 -2.0036 0.9801
-2.2040 4.0363 -2.0043 0.9801
-2.3474 3.9563 -2.0049 0.9801
-2.4878 3.8711 -2.0055 0.9801
-2.8898 3.5861 -2.0072 0.9801
-3.0168 3.4816 -2.0077 0.9801
-3.3742 3.1415 -2.0092 0.9801
-3.5914 2.8941 -2.0102 0.9801
-3.6932 2.7647 -2.0106 0.9801
-3.7903 2.6317 -2.0110 0.9801
-3.8826 2.4952 -2.0114 0.9801
-4.2674 1.7676 -2.0130 0.9800
-1.3688 0.2978 -0.6105 0.9939
-1.3955 0.2518 -0.6180 0.9938
-1.4180 0.2039 -0.6244 0.9938
-1.4359 0.1544 -0.6294 0.9937
-1.4571 0.0520 -0.6354 0.9937
4.2711 0.0000 -1.9770 0.9814
4.2603 0.3047 -1.9771 0.9813
4.2468 0.4566 -1.9771 0.9813
4.1396 1.0566 -1.9776 0.9813
4.0995 1.2037 -1.9777 0.9813
4.0544 1.3494 -1.9779 0.9813
4.0040 1.4934 -1.9781 0.9813
3.9486 1.6356 -1.9784 0.9813
3.7527 2.0491 -1.9792 0.9813
3.6778 2.1821 -1.9795 0.9813
3.5981 2.3124 -1.9798 0.9813
3.5139 2.4398 -1.9802 0.9813
3.4253 2.5641 -1.9805 0.9813
3.3322 2.6853 -1.9809 0.9813
3.2349 2.8031 -1.9813 0.9813
3.1335 2.9174 -1.9818 0.9813
3.0280 3.0280 -1.9822 0.9813
2.8056 3.2379 -1.9831 0.9813
2.5688 3.4315 -1.9841 0.9813
2.3187 3.6079 -1.9852 0.9813
2.1890 3.6894 -1.9857 0.9813
1.9213 3.8383 -1.9869 0.9813
1.6436 3.9679 -1.9880 0.9812
1.3571 4.0775 -1.9892 0.9812
1.2111 4.1247 -1.9898 0.9812
1.0634 4.1666 -1.9905 0.9812
0.4602 4.2810 -1.9930 0.9812
-0.1539 4.3085 -1.9956 0.9812
-0.6142 4.2715 -1.9975 0.9812
-1.0683 4.1854 -1.9995 0.9811
-1.2174 4.1459 -2.0001 0.9811
-1.3650 4.1011 -2.0007 0.9811
-1.6551 3.9957 -2.0020 0.9811
-1.7972 3.9353 -2.0026 0.9811
-1.9371 3.8698 -2.0031 0.9811
-2.3416 3.6437 -2.0049 0.9811
-2.5970 3.4692 -2.0059 0.9811
-2.7199 3.3752 -2.0065 0.9811
-3.2798 2.8420 -2.0088 0.9811
-3.4757 2.6018 -2.0097 0.9810
-3.5670 2.4766 -2.0101 0.9810
-3.6538 2.3482 -2.0104 0.9810
-3.8133 2.0822 -2.0111 0.9810
-3.9533 1.8054 -2.0117 0.9810
-1.2345 0.5114 -0.6185 0.9941
-1.2017 0.4482 -0.5937 0.9944
-1.1536 0.3840 -0.5628 0.9947
-1.1575 0.2954 -0.5529 0.9947
-1.2362 0.0884 -0.5737 0.9946
4.0325 0.0000 -1.9780 0.9822
4.0096 0.4311 -1.9781 0.9822
3.9918 0.5739 -1.9782 0.9822
3.9689 0.7161 -1.9783 0.9822
3.9411 0.8573 -1.9784 0.9822
3.8705 1.1365 -1.9787 0.9822
3.8278 1.2740 -1.9789 0.9822
3.5429 1.9346 -1.9801 0.9822
3.4721 2.0601 -1.9804 0.9822
3.3969 2.1830 -1.9807 0.9822
3.0538 2.6462 -1.9821 0.9822
2.9580 2.7540 -1.9825 0.9822
2.5382 3.1498 -1.9843 0.9821
2.1886 3.4056 -1.9857 0.9821
1.9411 3.5549 -1.9868 0.9821
1.6835 3.6863 -1.9879 0.9821
1.5513 3.7451 -1.9884 0.9821
1.2809 3.8484 -1.9896 0.9821
0.1451 4.0632 -1.9943 0.9820
-0.1452 4.0657 -1.9956 0.9820
-0.2903 4.0591 -1.9962 0.9820
-0.4351 4.0474 -1.9968 0.9820
-0.5795 4.0306 -1.9974 0.9820
-0.7232 4.0085 -1.9980 0.9820
-1.0079 3.9491 -1.9992 0.9820
-1.1486 3.9118 -1.9998 0.9820
-1.4256 3.8221 -2.0010 0.9820
-1.5615 3.7699 -2.0016 0.9820
-1.6956 3.7128 -2.0021 0.9820
-2.0844 3.5131 -2.0038 0.9820
-2.2091 3.4374 -2.0043 0.9820
-2.4499 3.2727 -2.0053 0.9820
-2.5658 3.1840 -2.0058 0.9819
-2.6785 3.0911 -2.0063 0.9819
-2.7877 2.9942 -2.0068 0.9819
-2.9955 2.7890 -2.0076 0.9819
-3.1882 2.5692 -2.0085 0.9819
-3.3646 2.3361 -2.0092 0.9819
-3.4464 2.2149 -2.0096 0.9819
-3.5239 2.0908 -2.0099 0.9819
-3.5968 1.9640 -2.0102 0.9819
-1.0290 0.4262 -0.5463 0.9951
-1.0119 0.3774 -0.5298 0.9952
-1.0025 0.3337 -0.5183 0.9953
-1.0422 0.2267 -0.5232 0.9953
-1.0518 0.1898 -0.5242 0.9952
-1.0803 0.0386 -0.5302 0.9952
3.8122 0.1362 -1.9790 0.9830
3.8050 0.2721 -1.9790 0.9830
3.7545 0.6774 -1.9792 0.9830
3.5759 1.3338 -1.9799 0.9829
3.5264 1.4607 -1.9801 0.9829
3.4140 1.7089 -1.9806 0.9829
3.3513 1.8299 -1.9809 0.9829
3.1379 2.1787 -1.9818 0.9829
3.0586 2.2896 -1.9821 0.9829
2.8885 2.5029 -1.9828 0.9829
2.7979 2.6049 -1.9832 0.9829
2.5049 2.8909 -1.9844 0.9829
2.4007 2.9791 -1.9849 0.9829
2.2934 3.0636 -1.9853 0.9829
2.1831 3.1442 -1.9858 0.9829
2.0699 3.2209 -1.9862 0.9829
1.9541 3.2935 -1.9867 0.9829
1.7151 3.4263 -1.9877 0.9829
1.5921 3.4862 -1.9883 0.9829
1.4670 3.5418 -1.9888 0.9829
1.3401 3.5928 -1.9893 0.9829
1.2113 3.6394 -1.9899 0.9829
0.8160 3.7511 -1.9915 0.9828
0.5466 3.8020 -1.9927 0.9828
0.1372 3.8419 -1.9944 0.9828
0.0000 3.8455 -1.9950 0.9828
-0.4114 3.8268 -1.9967 0.9828
-1.0859 3.6982 -1.9996 0.9828
-1.6029 3.5099 -2.0017 0.9828
-1.7276 3.4513 -2.0023 0.9828
-2.2034 3.1735 -2.0043 0.9827
-2.4253 3.0097 -2.0052 0.9827
-2.5318 2.9218 -2.0057 0.9827
-2.6350 2.8302 -2.0061 0.9827
-2.7350 2.7350 -2.0065 0.9827
-2.8314 2.6361 -2.0070 0.9827
-2.9243 2.5339 -2.0073 0.9827
-3.0134 2.4284 -2.0077 0.9827
-3.1801 2.2080 -2.0084 0.9827
-3.2574 2.0934 -2.0088 0.9827
-3.3306 1.9761 -2.0091 0.9827
-0.9486 0.5180 -0.5607 0.9951
-0.9326 0.4259 -0.5319 0.9954
-0.9271 0.3840 -0.5206 0.9955
-0.9268 0.3085 -0.5067 0.9956
-0.9404 0.2761 -0.5085 0.9956
-0.9838 0.1058 -0.5133 0.9956
-0.9873 0.0706 -0.5135 0.9955
3.5942 0.3864 -1.9799 0.9836
3.5577 0.6419 -1.9800 0.9836
3.4311 1.1420 -1.9806 0.9836
3.3884 1.2638 -1.9807 0.9836
3.1120 1.8464 -1.9819 0.9836
2.9732 2.0643 -1.9825 0.9836
2.8981 2.1695 -1.9828 0.9836
2.8193 2.2719 -1.9831 0.9836
2.7369 2.3715 -1.9835 0.9836
2.5617 2.5617 -1.9842 0.9836
2.4691 2.6520 -1.9846 0.9836
2.2745 2.8225 -1.9854 0.9836
1.8514 3.1203 -1.9872 0.9836
1.1475 3.4476 -1.9901 0.9836
1.0240 3.4873 -1.9907 0.9836
0.8991 3.5226 -1.9912 0.9836
0.7730 3.5534 -1.9917 0.9836
0.6458 3.5797 -1.9922 0.9835
0.5178 3.6014 -1.9928 0.9835
0.2597 3.6312 -1.9939 0.9835
0.1300 3.6391 -1.9944 0.9835
-0.2600 3.6351 -1.9961 0.9835
-0.3897 3.6246 -1.9966 0.9835
-0.5189 3.6093 -1.9972 0.9835
-0.6476 3.5895 -1.9977 0.9835
-0.9025 3.5360 -1.9988 0.9835
-1.1531 3.4645 -1.9998 0.9835
-1.5180 3.3239 -2.0014 0.9835
-1.6361 3.2684 -2.0019 0.9835
-2.0866 3.0052 -2.0038 0.9835
-2.4952 2.6800 -2.0055 0.9834
-2.7689 2.3993 -2.0067 0.9834
-3.0111 2.0906 -2.0077 0.9834
-0.8516 0.4263 -0.5216 0.9957
-0.8506 0.3885 -0.5122 0.9957
-0.8479 0.3512 -0.5027 0.9958
-0.8465 0.3157 -0.4948 0.9959
-0.8727 0.2562 -0.4982 0.9959
-0.8837 0.2255 -0.4995 0.9958
-0.9127 0.0981 -0.5028 0.9958
-0.9161 0.0655 -0.5030 0.9958
-0.9179 0.0328 -0.5031 0.9958
3.4283 0.1224 -1.9806 0.9843
3.4218 0.2447 -1.9806 0.9843
3.3763 0.6092 -1.9808 0.9843
3.3526 0.7293 -1.9809 0.9843
3.3246 0.8486 -1.9810 0.9843
3.2924 0.9668 -1.9811 0.9843
3.1710 1.3135 -1.9816 0.9843
3.1225 1.4260 -1.9818 0.9843
2.8215 1.9590 -1.9831 0.9843
2.7501 2.0587 -1.9834 0.9843
2.6753 2.1559 -1.9837 0.9843
2.5971 2.2504 -1.9840 0.9843
2.4308 2.4308 -1.9847 0.9842
2.3429 2.5165 -1.9851 0.9842
2.2521 2.5990 -1.9855 0.9842
2.1583 2.6783 -1.9859 0.9842
2.0617 2.7542 -1.9863 0.9842
1.5417 3.0799 -1.9885 0.9842
1.0887 3.2710 -1.9904 0.9842
0.9715 3.3086 -1.9909 0.9842
0.8530 3.3420 -1.9914 0.9842
0.6127 3.3961 -1.9924 0.9842
0.4912 3.4167 -1.9929 0.9842
0.3691 3.4329 -1.9934 0.9842
0.1233 3.4523 -1.9945 0.9842
-0.2466 3.4484 -1.9960 0.9842
-0.3697 3.4383 -1.9965 0.9842
-0.4923 3.4238 -1.9971 0.9842
-0.8561 3.3541 -1.9986 0.9841
-0.9755 3.3223 -1.9991 0.9841
-1.0937 3.2862 -1.9996 0.9841
-1.2106 3.2458 -2.0001 0.9841
-1.3260 3.2013 -2.0006 0.9841
-1.5518 3.1001 -2.0015 0.9841
-1.7698 2.9829 -2.0025 0.9841
-1.9790 2.8502 -2.0033 0.9841
-2.4561 2.4561 -2.0054 0.9841
-2.6260 2.2754 -2.0061 0.9841
-2.7825 2.0830 -2.0068 0.9841
-0.7787 0.4252 -0.5122 0.9959
-0.7806 0.3908 -0.5040 0.9960
-0.8014 0.2667 -0.4876 0.9961
-0.8230 0.2101 -0.4904 0.9961
-0.8318 0.1810 -0.4915 0.9961
-0.8453 0.1215 -0.4930 0.9961
-0.8531 0.0610 -0.4938 0.9961
