ply
format ascii 1.0
element vertex 768
property float32 x
property float32 y
property float32 z
property float32 I
end_header
2.1040 -9.6717 -0.5020 0.9611
1.0464 -9.7331 -0.7178 0.9615
1.6614 -9.2087 -0.6861 0.9632
2.0035 -9.2100 -0.6911 0.9629
2.3494 -9.2050 -0.6966 0.9626
3.0767 -9.2439 -0.7143 0.9617
0.9840 -9.1525 -0.8838 0.9637
1.6441 -9.1128 -0.8890 0.9635
1.9824 -9.1130 -0.8954 0.9632
2.3265 -9.1151 -0.9031 0.9629
2.6765 -9.1154 -0.9121 0.9625
3.7738 -9.1108 -0.9468 0.9611
0.0000 -9.0372 -1.0735 0.9643
0.3219 -9.0120 -1.0712 0.9643
0.6438 -9.0019 -1.0720 0.9643
0.9667 -8.9915 -1.0742 0.9642
1.6204 -8.9814 -1.0841 0.9639
1.9581 -9.0011 -1.0942 0.9636
2.6404 -8.9924 -1.1133 0.9630
2.9933 -8.9934 -1.1259 0.9625
0.6410 -8.9627 -1.2732 0.9643
0.9634 -8.9614 -1.2770 0.9642
2.2936 -8.9864 -1.3141 0.9632
2.6369 -8.9805 -1.3262 0.9629
3.3478 -8.9758 -1.3574 0.9620
-0.3230 -9.0448 -1.4910 0.9640
0.0000 -8.9761 -1.4787 0.9643
1.2914 -8.9821 -1.4949 0.9639
1.6211 -8.9852 -1.5041 0.9637
2.2929 -8.9837 -1.5274 0.9631
2.6361 -8.9777 -1.5414 0.9628
3.3458 -8.9704 -1.5772 0.9619
3.7281 -9.0003 -1.6049 0.9613
-0.3232 -9.0487 -1.7019 0.9638
0.3202 -8.9652 -1.6862 0.9641
0.6419 -8.9747 -1.6912 0.9640
0.9654 -8.9793 -1.6975 0.9639
1.2915 -8.9824 -1.7057 0.9637
1.6214 -8.9867 -1.7164 0.9635
1.9564 -8.9935 -1.7300 0.9632
2.6464 -9.0126 -1.7655 0.9625
3.3535 -8.9910 -1.8037 0.9617
-9.1898 -0.0000 -1.9425 0.9631
-9.1841 -0.3280 -1.9426 0.9631
-9.1670 -0.6557 -1.9427 0.9631
-9.1385 -0.9825 -1.9428 0.9631
-9.0986 -1.3082 -1.9430 0.9631
-8.9849 -1.9546 -1.9436 0.9631
-8.8264 -2.5917 -1.9445 0.9631
-8.6237 -3.2165 -1.9455 0.9631
-8.3778 -3.8260 -1.9468 0.9630
-8.2390 -4.1242 -1.9476 0.9630
-8.0898 -4.4174 -1.9483 0.9630
-7.7609 -4.9877 -1.9501 0.9630
-7.5816 -5.2640 -1.9510 0.9630
-7.1942 -5.7975 -1.9530 0.9629
-6.5446 -6.5446 -1.9564 0.9629
-5.8188 -7.2207 -1.9602 0.9628
-4.7455 -7.9981 -1.9658 0.9627
-4.4604 -8.1685 -1.9673 0.9627
-4.1692 -8.3290 -1.9688 0.9626
-3.8723 -8.4791 -1.9704 0.9626
-2.6348 -8.9732 -1.9768 0.9625
-2.3148 -9.0692 -1.9785 0.9625
-1.0040 -9.3384 -1.9853 0.9623
1.0093 -9.3877 -1.9958 0.9621
1.3449 -9.3538 -1.9975 0.9621
1.6793 -9.3080 -1.9993 0.9621
2.0122 -9.2501 -2.0010 0.9620
2.6716 -9.0986 -2.0044 0.9620
2.9971 -9.0050 -2.0061 0.9619
3.6380 -8.7828 -2.0095 0.9619
4.5669 -8.3636 -2.0143 0.9618
4.8663 -8.2016 -2.0159 0.9618
6.0014 -7.4473 -2.0217 0.9617
6.2677 -7.2333 -2.0231 0.9616
6.5262 -7.0096 -2.0245 0.9616
7.2516 -6.2835 -2.0282 0.9615
7.8947 -5.4814 -2.0316 0.9615
8.0893 -5.1987 -2.0326 0.9614
8.2735 -4.9089 -2.0335 0.9614
8.4472 -4.6125 -2.0344 0.9614
8.6100 -4.3099 -2.0353 0.9614
8.7617 -4.0013 -2.0361 0.9614
9.0310 -3.3684 -2.0374 0.9614
9.1482 -3.0448 -2.0380 0.9613
9.2535 -2.7171 -2.0386 0.9613
9.3468 -2.3856 -2.0391 0.9613
9.4279 -2.0509 -2.0395 0.9613
9.5972 -1.0318 -2.0403 0.9613
-8.2853 -0.0000 -1.9472 0.9665
-8.2802 -0.2957 -1.9473 0.9665
-8.2647 -0.5911 -1.9474 0.9665
-8.2390 -0.8858 -1.9475 0.9665
-8.1001 -1.7621 -1.9482 0.9665
-7.8703 -2.6195 -1.9495 0.9665
-7.7738 -2.8995 -1.9500 0.9665
-7.6675 -3.1760 -1.9505 0.9665
-7.2915 -3.9815 -1.9525 0.9664
-7.1475 -4.2408 -1.9532 0.9664
-6.9944 -4.4951 -1.9540 0.9664
-6.8325 -4.7439 -1.9549 0.9664
-6.2953 -5.4549 -1.9577 0.9664
-5.4669 -6.3092 -1.9620 0.9663
-5.2414 -6.5042 -1.9632 0.9663
-5.0090 -6.6913 -1.9644 0.9662
-4.7700 -6.8702 -1.9657 0.9662
-4.5247 -7.0406 -1.9670 0.9662
-4.0163 -7.3554 -1.9696 0.9662
-3.4863 -7.6339 -1.9724 0.9661
-2.6561 -7.9802 -1.9767 0.9660
-0.9032 -8.4011 -1.9858 0.9659
-0.6033 -8.4346 -1.9874 0.9659
-0.3021 -8.4574 -1.9890 0.9658
0.6052 -8.4613 -1.9937 0.9657
1.2091 -8.4098 -1.9968 0.9657
1.5097 -8.3678 -1.9984 0.9657
1.8088 -8.3151 -1.9999 0.9656
2.1061 -8.2516 -2.0015 0.9656
2.4011 -8.1774 -2.0030 0.9656
2.9829 -7.9974 -2.0060 0.9655
3.2688 -7.8917 -2.0075 0.9655
3.5510 -7.7756 -2.0090 0.9655
3.8290 -7.6494 -2.0104 0.9655
4.1025 -7.5132 -2.0119 0.9654
4.6344 -7.2113 -2.0146 0.9654
4.8921 -7.0459 -2.0160 0.9654
5.1438 -6.8713 -2.0173 0.9653
6.0840 -6.0840 -2.0222 0.9653
6.3008 -5.8662 -2.0233 0.9652
6.5096 -5.6406 -2.0244 0.9652
7.2600 -4.6657 -2.0282 0.9652
7.5806 -4.1393 -2.0299 0.9651
7.8622 -3.5905 -2.0314 0.9651
8.2081 -2.7319 -2.0331 0.9651
8.3024 -2.4378 -2.0336 0.9651
8.4585 -1.8400 -2.0344 0.9651
8.5201 -1.5372 -2.0347 0.9651
8.6550 -0.3091 -2.0354 0.9650
-7.5358 -0.0000 -1.9511 0.9693
-7.5170 -0.5376 -1.9513 0.9693
-7.4935 -0.8056 -1.9514 0.9693
-7.4606 -1.0727 -1.9516 0.9693
-7.3063 -1.8648 -1.9524 0.9693
-7.2364 -2.1248 -1.9527 0.9693
-7.1575 -2.3823 -1.9532 0.9693
-7.0696 -2.6368 -1.9536 0.9693
-6.8672 -3.1362 -1.9547 0.9693
-6.6302 -3.6204 -1.9559 0.9693
-6.4990 -3.8561 -1.9566 0.9693
-6.2122 -4.3132 -1.9581 0.9692
-6.0568 -4.5340 -1.9589 0.9692
-5.8936 -4.7494 -1.9598 0.9692
-5.7230 -4.9590 -1.9607 0.9692
-5.3598 -5.3598 -1.9626 0.9692
-4.9689 -5.7345 -1.9646 0.9691
-4.7637 -5.9114 -1.9657 0.9691
-4.5522 -6.0811 -1.9668 0.9691
-4.3348 -6.2433 -1.9679 0.9691
-4.1116 -6.3978 -1.9691 0.9691
-3.8830 -6.5444 -1.9703 0.9690
-3.6492 -6.6830 -1.9715 0.9690
-3.4105 -6.8133 -1.9727 0.9690
-3.1672 -6.9351 -1.9740 0.9690
-2.9195 -7.0484 -1.9753 0.9690
-2.4125 -7.2484 -1.9779 0.9689
-1.8918 -7.4122 -1.9807 0.9689
-1.3601 -7.5388 -1.9834 0.9688
-1.0910 -7.5879 -1.9848 0.9688
-0.2742 -7.6774 -1.9891 0.9688
0.2746 -7.6884 -1.9919 0.9687
0.5492 -7.6792 -1.9934 0.9687
1.3699 -7.5928 -1.9976 0.9686
1.9107 -7.4862 -2.0005 0.9686
2.4433 -7.3410 -2.0032 0.9685
2.9648 -7.1576 -2.0059 0.9685
3.7202 -6.8130 -2.0099 0.9684
3.9635 -6.6801 -2.0111 0.9684
4.2020 -6.5384 -2.0124 0.9684
4.6633 -6.2294 -2.0148 0.9684
4.8854 -6.0624 -2.0159 0.9683
5.1015 -5.8875 -2.0170 0.9683
5.3113 -5.7047 -2.0181 0.9683
5.5144 -5.5144 -2.0192 0.9683
6.0811 -4.9004 -2.0221 0.9682
6.2549 -4.6824 -2.0230 0.9682
6.8684 -3.7504 -2.0262 0.9682
7.1231 -3.2530 -2.0275 0.9682
7.4359 -2.4749 -2.0291 0.9681
7.5966 -1.9389 -2.0299 0.9681
7.6622 -1.6668 -2.0303 0.9681
7.7179 -1.3925 -2.0306 0.9681
7.7992 -0.8385 -2.0310 0.9681
-6.8866 -0.4925 -1.9545 0.9717
-6.7962 -1.2262 -1.9550 0.9717
-6.7490 -1.4682 -1.9553 0.9717
-6.6933 -1.7084 -1.9556 0.9717
-6.6292 -1.9465 -1.9559 0.9717
-6.5568 -2.1823 -1.9563 0.9717
-6.4761 -2.4155 -1.9567 0.9717
-6.2904 -2.8728 -1.9577 0.9717
-6.1856 -3.0963 -1.9582 0.9717
-4.1677 -5.5674 -1.9688 0.9715
-3.7639 -5.8568 -1.9709 0.9715
-3.3403 -6.1173 -1.9731 0.9714
-3.1216 -6.2362 -1.9742 0.9714
-2.8987 -6.3474 -1.9754 0.9714
-2.6719 -6.4506 -1.9766 0.9714
-2.2076 -6.6329 -1.9790 0.9714
-1.9707 -6.7117 -1.9802 0.9713
-1.7310 -6.7820 -1.9815 0.9713
-1.2444 -6.8971 -1.9840 0.9713
-0.7501 -6.9773 -1.9866 0.9712
-0.2508 -7.0222 -1.9892 0.9712
0.2511 -7.0314 -1.9918 0.9712
0.7531 -7.0048 -1.9944 0.9711
1.0033 -6.9779 -1.9957 0.9711
1.2525 -6.9422 -1.9970 0.9711
1.7468 -6.8440 -1.9996 0.9711
3.1734 -6.3397 -2.0070 0.9710
3.6218 -6.1042 -2.0093 0.9709
3.8395 -5.9744 -2.0105 0.9709
4.0525 -5.8368 -2.0116 0.9709
4.4633 -5.5387 -2.0137 0.9709
4.6605 -5.3786 -2.0147 0.9708
4.8519 -5.2113 -2.0157 0.9708
5.0373 -5.0373 -2.0167 0.9708
5.3886 -4.6693 -2.0185 0.9708
5.5542 -4.4759 -2.0194 0.9708
5.7128 -4.2765 -2.0202 0.9708
6.0078 -3.8610 -2.0217 0.9707
6.1440 -3.6454 -2.0224 0.9707
6.3924 -3.1998 -2.0237 0.9707
6.5044 -2.9705 -2.0243 0.9707
6.7031 -2.5002 -2.0253 0.9707
6.8673 -2.0164 -2.0262 0.9707
6.9959 -1.5219 -2.0268 0.9707
7.0883 -1.0192 -2.0273 0.9707
7.1208 -0.7656 -2.0275 0.9707
7.1439 -0.5109 -2.0276 0.9707
-6.3634 -0.0000 -1.9573 0.9737
-6.3594 -0.2271 -1.9573 0.9737
-6.3475 -0.4540 -1.9573 0.9737
-6.2998 -0.9058 -1.9576 0.9737
-6.2204 -1.3532 -1.9580 0.9737
-6.0430 -2.0113 -1.9590 0.9737
-5.8866 -2.4383 -1.9598 0.9737
-5.7005 -2.8535 -1.9608 0.9737
-5.5966 -3.0560 -1.9613 0.9737
-5.3676 -3.4496 -1.9625 0.9737
-4.8290 -4.1843 -1.9653 0.9736
-4.5218 -4.5219 -1.9669 0.9736
-4.3594 -4.6824 -1.9678 0.9736
-4.1914 -4.8372 -1.9686 0.9736
-4.0179 -4.9860 -1.9696 0.9736
-3.6555 -5.2650 -1.9714 0.9735
-3.2739 -5.5179 -1.9734 0.9735
-2.4606 -5.9404 -1.9777 0.9735
-1.8146 -6.1799 -1.9810 0.9734
-1.5938 -6.2443 -1.9822 0.9734
-1.1456 -6.3496 -1.9845 0.9734
-0.6905 -6.4228 -1.9869 0.9733
-0.4611 -6.4472 -1.9881 0.9733
-0.2308 -6.4635 -1.9893 0.9733
0.4622 -6.4628 -1.9929 0.9732
0.6930 -6.4461 -1.9941 0.9732
1.1525 -6.3879 -1.9965 0.9732
1.8320 -6.2391 -2.0000 0.9732
2.0547 -6.1733 -2.0012 0.9731
2.2750 -6.0995 -2.0023 0.9731
2.7074 -5.9283 -2.0046 0.9731
2.9188 -5.8311 -2.0057 0.9731
3.1268 -5.7263 -2.0068 0.9731
3.5310 -5.4944 -2.0089 0.9730
3.9179 -5.2337 -2.0109 0.9730
4.1042 -5.0930 -2.0118 0.9730
4.4612 -4.7916 -2.0137 0.9730
4.6314 -4.6314 -2.0146 0.9730
5.1061 -4.1148 -2.0170 0.9729
5.3906 -3.7428 -2.0185 0.9729
5.6476 -3.3509 -2.0198 0.9729
5.7654 -3.1481 -2.0204 0.9729
5.9785 -2.7303 -2.0215 0.9729
6.0736 -2.5158 -2.0220 0.9729
6.3747 -1.6271 -2.0236 0.9728
6.4762 -1.1684 -2.0241 0.9728
6.5144 -0.9366 -2.0243 0.9728
6.5655 -0.4696 -2.0246 0.9728
6.5782 -0.2349 -2.0246 0.9728
-5.8955 0.0000 -1.9597 0.9755
-5.8918 -0.2104 -1.9597 0.9755
-5.8364 -0.8392 -1.9600 0.9755
-5.8033 -1.0470 -1.9602 0.9754
-5.7152 -1.4587 -1.9607 0.9754
-4.9719 -3.1953 -1.9646 0.9754
-4.7343 -3.5440 -1.9658 0.9754
-4.4725 -3.8754 -1.9672 0.9754
-3.8815 -4.4795 -1.9703 0.9753
-3.5551 -4.7491 -1.9720 0.9753
-3.2102 -4.9952 -1.9738 0.9753
-1.8817 -5.6537 -1.9807 0.9752
-1.4752 -5.7797 -1.9828 0.9752
-0.6390 -5.9439 -1.9872 0.9751
-0.2136 -5.9810 -1.9894 0.9751
0.4277 -5.9796 -1.9927 0.9750
0.6412 -5.9638 -1.9938 0.9750
1.0662 -5.9094 -1.9960 0.9750
1.2771 -5.8708 -1.9971 0.9750
1.9004 -5.7099 -2.0004 0.9750
2.1041 -5.6414 -2.0014 0.9749
2.6993 -5.3925 -2.0045 0.9749
3.0801 -5.1913 -2.0065 0.9749
3.9620 -4.5724 -2.0111 0.9748
4.5796 -3.9683 -2.0143 0.9748
4.7201 -3.8037 -2.0150 0.9748
4.8545 -3.6340 -2.0157 0.9748
4.9827 -3.4596 -2.0164 0.9748
5.1046 -3.2806 -2.0170 0.9747
5.6133 -2.3251 -2.0196 0.9747
5.6939 -2.1237 -2.0200 0.9747
5.7671 -1.9195 -2.0204 0.9747
5.8330 -1.7127 -2.0208 0.9747
5.8913 -1.5037 -2.0211 0.9747
6.0202 -0.8656 -2.0217 0.9747
6.0673 -0.4339 -2.0220 0.9747
6.0791 -0.2171 -2.0220 0.9747
-5.4860 -0.0000 -1.9618 0.9770
-5.4825 -0.1958 -1.9618 0.9770
-5.4722 -0.3914 -1.9619 0.9770
-5.4550 -0.5865 -1.9620 0.9770
-5.4309 -0.7809 -1.9621 0.9770
-5.4001 -0.9743 -1.9623 0.9770
-5.3624 -1.1665 -1.9625 0.9770
-5.3180 -1.3574 -1.9627 0.9770
-5.2669 -1.5465 -1.9630 0.9770
-5.0740 -2.1017 -1.9640 0.9769
-4.9132 -2.4594 -1.9648 0.9769
-4.7276 -2.8050 -1.9658 0.9769
-4.2853 -3.4533 -1.9681 0.9769
-4.1607 -3.6053 -1.9688 0.9769
-3.8957 -3.8957 -1.9702 0.9769
-3.4609 -4.2947 -1.9724 0.9768
-3.3068 -4.4173 -1.9732 0.9768
-2.9857 -4.6459 -1.9749 0.9768
-2.8193 -4.7516 -1.9758 0.9768
-2.6490 -4.8514 -1.9767 0.9768
-2.4753 -4.9451 -1.9776 0.9768
-2.1182 -5.1139 -1.9794 0.9768
-1.7497 -5.2571 -1.9814 0.9767
-0.7905 -5.4981 -1.9864 0.9767
-0.5941 -5.5256 -1.9874 0.9767
-0.3967 -5.5462 -1.9884 0.9767
-0.1986 -5.5597 -1.9894 0.9766
0.3975 -5.5577 -1.9925 0.9766
0.7938 -5.5209 -1.9946 0.9766
1.3815 -5.4127 -1.9977 0.9765
1.5746 -5.3626 -1.9987 0.9765
1.7659 -5.3056 -1.9997 0.9765
1.9551 -5.2418 -2.0006 0.9765
2.1420 -5.1712 -2.0016 0.9765
2.5078 -5.0100 -2.0035 0.9765
2.8614 -4.8227 -2.0054 0.9765
3.0331 -4.7196 -2.0062 0.9764
3.2010 -4.6103 -2.0071 0.9764
3.3650 -4.4951 -2.0080 0.9764
3.5247 -4.3739 -2.0088 0.9764
3.6800 -4.2470 -2.0096 0.9764
3.8308 -4.1146 -2.0104 0.9764
3.9767 -3.9767 -2.0111 0.9764
4.2533 -3.6855 -2.0126 0.9764
4.3836 -3.5325 -2.0133 0.9764
4.7404 -3.0465 -2.0151 0.9763
5.2871 -1.9720 -2.0179 0.9763
5.3550 -1.7823 -2.0183 0.9763
5.4161 -1.5903 -2.0186 0.9763
5.5171 -1.2002 -2.0191 0.9763
5.5570 -1.0026 -2.0193 0.9763
5.6152 -0.6037 -2.0196 0.9763
5.6334 -0.4029 -2.0197 0.9763
5.6444 -0.2016 -2.0198 0.9763
-5.1242 -0.0000 -1.9637 0.9783
-5.0953 -0.5478 -1.9639 0.9783
-4.9672 -1.2678 -1.9645 0.9783
-4.8654 -1.6194 -1.9651 0.9783
-4.8053 -1.7923 -1.9654 0.9783
-4.5888 -2.2970 -1.9665 0.9783
-4.4153 -2.6197 -1.9674 0.9782
-4.2194 -2.9296 -1.9685 0.9782
-4.1133 -3.0792 -1.9690 0.9782
-3.7640 -3.5045 -1.9708 0.9782
-3.6378 -3.6378 -1.9715 0.9782
-3.3714 -3.8908 -1.9729 0.9782
-3.0875 -4.1245 -1.9744 0.9782
-2.7876 -4.3377 -1.9759 0.9782
-2.6321 -4.4362 -1.9768 0.9781
-2.4731 -4.5292 -1.9776 0.9781
-2.3109 -4.6166 -1.9784 0.9781
-2.1456 -4.6982 -1.9793 0.9781
-1.9774 -4.7739 -1.9802 0.9781
-1.6333 -4.9072 -1.9820 0.9781
-1.2802 -5.0159 -1.9838 0.9781
-1.1009 -5.0608 -1.9847 0.9781
-0.9200 -5.0993 -1.9857 0.9780
-0.5544 -5.1568 -1.9876 0.9780
-0.1853 -5.1883 -1.9895 0.9780
0.0000 -5.1941 -1.9905 0.9780
0.7406 -5.1512 -1.9943 0.9780
0.9245 -5.1239 -1.9953 0.9779
1.2889 -5.0497 -1.9972 0.9779
1.8238 -4.8898 -2.0000 0.9779
2.1699 -4.7515 -2.0018 0.9779
2.5056 -4.5886 -2.0035 0.9779
2.9854 -4.2998 -2.0060 0.9778
3.1382 -4.1922 -2.0068 0.9778
3.2871 -4.0791 -2.0076 0.9778
3.5724 -3.8370 -2.0090 0.9778
3.8396 -3.5748 -2.0104 0.9778
3.9661 -3.4366 -2.0111 0.9778
4.0875 -3.2939 -2.0117 0.9778
4.3146 -2.9957 -2.0129 0.9778
4.5197 -2.6816 -2.0139 0.9777
4.7837 -2.1846 -2.0153 0.9777
4.8596 -2.0129 -2.0157 0.9777
4.9292 -1.8385 -2.0161 0.9777
4.9925 -1.6617 -2.0164 0.9777
5.0493 -1.4826 -2.0167 0.9777
5.0997 -1.3016 -2.0169 0.9777
5.2111 -0.7492 -2.0175 0.9777
5.2348 -0.5628 -2.0176 0.9777
5.2620 -0.1879 -2.0178 0.9777
-4.7991 -0.1714 -1.9654 0.9795
-4.7749 -0.5134 -1.9655 0.9795
-4.7538 -0.6835 -1.9656 0.9795
-4.6937 -1.0211 -1.9660 0.9795
-4.6548 -1.1881 -1.9662 0.9795
-4.6100 -1.3536 -1.9664 0.9794
-4.5593 -1.5175 -1.9667 0.9794
-4.4409 -1.8395 -1.9673 0.9794
-4.2213 -2.3050 -1.9684 0.9794
-3.9535 -2.7450 -1.9698 0.9794
-3.8540 -2.8851 -1.9704 0.9794
-3.4082 -3.4083 -1.9727 0.9794
-3.2855 -3.5289 -1.9733 0.9794
-3.1585 -3.6451 -1.9740 0.9794
-3.0274 -3.7568 -1.9747 0.9794
-2.8924 -3.8639 -1.9754 0.9794
-2.4656 -4.1556 -1.9776 0.9793
-2.3166 -4.2426 -1.9784 0.9793
-2.1646 -4.3243 -1.9792 0.9793
-1.6921 -4.5366 -1.9816 0.9793
-1.5297 -4.5961 -1.9825 0.9793
-1.1990 -4.6975 -1.9842 0.9793
-1.0310 -4.7394 -1.9851 0.9793
-0.3466 -4.8466 -1.9887 0.9792
-0.1735 -4.8581 -1.9896 0.9792
0.0000 -4.8634 -1.9905 0.9792
0.1737 -4.8625 -1.9914 0.9792
0.3473 -4.8554 -1.9923 0.9792
1.2065 -4.7272 -1.9967 0.9791
1.3751 -4.6832 -1.9976 0.9791
1.5420 -4.6331 -1.9985 0.9791
2.0310 -4.4474 -2.0010 0.9791
2.1894 -4.3738 -2.0018 0.9791
2.3451 -4.2946 -2.0027 0.9791
2.4978 -4.2099 -2.0035 0.9791
2.9369 -3.9232 -2.0057 0.9790
3.4701 -3.4701 -2.0085 0.9790
3.5929 -3.3451 -2.0091 0.9790
3.7111 -3.2157 -2.0097 0.9790
3.8246 -3.0821 -2.0103 0.9790
3.9333 -2.9445 -2.0109 0.9790
4.1355 -2.6577 -2.0119 0.9790
4.3989 -2.2019 -2.0133 0.9790
4.4755 -2.0439 -2.0137 0.9790
4.5465 -1.8832 -2.0141 0.9790
4.6116 -1.7200 -2.0144 0.9790
4.8119 -1.0468 -2.0154 0.9789
4.8466 -0.8744 -2.0156 0.9789
4.9226 -0.1758 -2.0160 0.9789
-1.4571 -0.0520 -0.6354 0.9937
-1.4490 -0.1036 -0.6331 0.9937
-1.4180 -0.2039 -0.6244 0.9938
-1.3955 -0.2518 -0.6180 0.9938
-1.3400 -0.3420 -0.6027 0.9940
-1.3722 -0.4029 -0.6233 0.9938
-4.1097 -1.8769 -1.9690 0.9805
-3.7151 -2.5794 -1.9711 0.9805
-3.3137 -3.0852 -1.9732 0.9804
-3.0870 -3.3157 -1.9744 0.9804
-2.9676 -3.4248 -1.9750 0.9804
-2.7175 -3.6302 -1.9763 0.9804
-2.5871 -3.7262 -1.9770 0.9804
-2.4533 -3.8175 -1.9777 0.9804
-2.3164 -3.9040 -1.9784 0.9804
-2.1763 -3.9857 -1.9791 0.9804
-2.0335 -4.0624 -1.9799 0.9804
-1.7398 -4.2003 -1.9814 0.9804
-0.6489 -4.5130 -1.9871 0.9803
-0.3255 -4.5517 -1.9888 0.9803
-0.1629 -4.5623 -1.9896 0.9803
0.0000 -4.5672 -1.9905 0.9803
0.8126 -4.5042 -1.9947 0.9802
1.4478 -4.3499 -1.9980 0.9802
1.6028 -4.2971 -1.9988 0.9802
2.0553 -4.1060 -2.0011 0.9802
2.2014 -4.0316 -2.0019 0.9802
2.4852 -3.8671 -2.0034 0.9801
2.7567 -3.6826 -2.0048 0.9801
2.8874 -3.5830 -2.0055 0.9801
3.0144 -3.4788 -2.0061 0.9801
3.1377 -3.3701 -2.0068 0.9801
3.2570 -3.2569 -2.0074 0.9801
3.4830 -3.0181 -2.0086 0.9801
3.5895 -2.8926 -2.0091 0.9801
3.8811 -2.4942 -2.0106 0.9801
3.9685 -2.3546 -2.0111 0.9801
4.0509 -2.2120 -2.0115 0.9801
4.2000 -1.9181 -2.0123 0.9801
4.2665 -1.7672 -2.0126 0.9801
4.4328 -1.3016 -2.0135 0.9800
4.5154 -0.9823 -2.0139 0.9800
4.6192 -0.1650 -2.0144 0.9800
-1.2362 -0.0884 -0.5737 0.9946
-1.2261 -0.1318 -0.5708 0.9946
-1.2124 -0.1743 -0.5670 0.9946
-1.1790 -0.2565 -0.5585 0.9947
-1.1536 -0.3840 -0.5628 0.9947
-3.8718 -1.7682 -1.9703 0.9814
-3.6627 -2.1732 -1.9713 0.9814
-3.5835 -2.3030 -1.9718 0.9814
-3.3191 -2.6747 -1.9731 0.9814
-3.1215 -2.9062 -1.9742 0.9814
-2.9079 -3.1233 -1.9753 0.9814
-2.7954 -3.2260 -1.9759 0.9814
-2.6793 -3.3248 -1.9765 0.9814
-2.5597 -3.4193 -1.9771 0.9813
-2.4368 -3.5097 -1.9778 0.9813
-2.1817 -3.6770 -1.9791 0.9813
-1.9151 -3.8260 -1.9805 0.9813
-1.6385 -3.9558 -1.9819 0.9813
-1.4968 -4.0132 -1.9827 0.9813
-1.0605 -4.1550 -1.9849 0.9813
-0.7620 -4.2233 -1.9865 0.9813
-0.4591 -4.2703 -1.9881 0.9812
-0.3065 -4.2857 -1.9889 0.9812
-0.0000 -4.3001 -1.9905 0.9812
0.4602 -4.2806 -1.9928 0.9812
0.7650 -4.2402 -1.9944 0.9812
0.9162 -4.2119 -1.9952 0.9812
1.2153 -4.1390 -1.9968 0.9812
1.5087 -4.0449 -1.9983 0.9812
1.6527 -3.9899 -1.9990 0.9811
2.0720 -3.7946 -2.0012 0.9811
2.2069 -3.7195 -2.0019 0.9811
2.3390 -3.6396 -2.0026 0.9811
2.4683 -3.5550 -2.0033 0.9811
2.7173 -3.3720 -2.0046 0.9811
2.8368 -3.2739 -2.0052 0.9811
2.9528 -3.1715 -2.0058 0.9811
3.0650 -3.0650 -2.0064 0.9811
3.7342 -2.2156 -2.0099 0.9810
3.8117 -2.0813 -2.0103 0.9810
4.0718 -1.5187 -2.0116 0.9810
4.1239 -1.3726 -2.0119 0.9810
4.1708 -1.2247 -2.0121 0.9810
4.2123 -1.0751 -2.0123 0.9810
4.2484 -0.9242 -2.0125 0.9810
4.2790 -0.7720 -2.0127 0.9810
4.3237 -0.4648 -2.0129 0.9810
4.3460 -0.1552 -2.0130 0.9810
-1.0817 -0.0000 -0.5306 0.9952
-1.0769 -0.0770 -0.5296 0.9952
-1.0705 -0.1151 -0.5281 0.9952
-1.0611 -0.1526 -0.5258 0.9952
-1.0518 -0.1898 -0.5242 0.9952
-1.0307 -0.2631 -0.5218 0.9953
-1.0025 -0.3337 -0.5183 0.9953
-1.0119 -0.3774 -0.5298 0.9952
-1.0588 -0.5300 -0.5808 0.9947
-3.5285 -1.9267 -1.9720 0.9822
-3.4581 -2.0518 -1.9724 0.9822
-3.3043 -2.2942 -1.9732 0.9822
-3.1336 -2.5253 -1.9741 0.9822
-2.9470 -2.7437 -1.9751 0.9822
-2.8479 -2.8479 -1.9756 0.9822
-2.7452 -2.9485 -1.9761 0.9822
-2.6389 -3.0455 -1.9767 0.9822
-2.4164 -3.2279 -1.9779 0.9822
-2.0594 -3.4710 -1.9797 0.9822
-1.9349 -3.5434 -1.9804 0.9822
-1.5466 -3.7338 -1.9824 0.9822
-1.4128 -3.7879 -1.9831 0.9821
-1.2772 -3.8373 -1.9838 0.9821
-1.1398 -3.8818 -1.9845 0.9821
-0.8606 -3.9562 -1.9860 0.9821
-0.7191 -3.9858 -1.9867 0.9821
-0.5766 -4.0104 -1.9874 0.9821
-0.2893 -4.0444 -1.9889 0.9821
0.1449 -4.0568 -1.9912 0.9821
0.4343 -4.0391 -1.9927 0.9821
0.5784 -4.0226 -1.9935 0.9821
0.7218 -4.0009 -1.9942 0.9821
0.8645 -3.9740 -1.9949 0.9820
1.0062 -3.9421 -1.9957 0.9820
1.4233 -3.8161 -1.9979 0.9820
1.8250 -3.6459 -1.9999 0.9820
1.9546 -3.5796 -2.0006 0.9820
2.2065 -3.4333 -2.0019 0.9820
2.8910 -2.8910 -2.0055 0.9819
2.9931 -2.7867 -2.0060 0.9819
3.0914 -2.6788 -2.0065 0.9819
3.3624 -2.3346 -2.0079 0.9819
3.4443 -2.2135 -2.0083 0.9819
3.5218 -2.0896 -2.0087 0.9819
3.7859 -1.5682 -2.0101 0.9819
3.8400 -1.4323 -2.0104 0.9819
3.8892 -1.2944 -2.0106 0.9819
3.9725 -1.0139 -2.0111 0.9819
4.0353 -0.7281 -2.0114 0.9819
4.0590 -0.5836 -2.0115 0.9819
4.0774 -0.4384 -2.0116 0.9819
-0.9895 0.0000 -0.5133 0.9956
-0.9893 -0.0353 -0.5135 0.9955
-0.9873 -0.0706 -0.5135 0.9955
-0.9785 -0.1407 -0.5129 0.9956
-0.9524 -0.2431 -0.5099 0.9956
-0.9404 -0.2761 -0.5085 0.9956
-0.9268 -0.3085 -0.5067 0.9956
-0.9208 -0.3434 -0.5098 0.9956
-0.9271 -0.3840 -0.5206 0.9955
-0.9326 -0.4259 -0.5319 0.9954
-0.9416 -0.4713 -0.5462 0.9953
-3.2714 -1.9410 -1.9734 0.9830
-3.0470 -2.2810 -1.9746 0.9830
-2.6939 -2.6939 -1.9764 0.9830
-2.5967 -2.7890 -1.9769 0.9830
-2.4961 -2.8807 -1.9774 0.9830
-2.1757 -3.1337 -1.9791 0.9830
-1.9478 -3.2829 -1.9803 0.9829
-1.8300 -3.3513 -1.9809 0.9829
-1.7097 -3.4156 -1.9815 0.9829
-1.5872 -3.4756 -1.9822 0.9829
-1.0779 -3.6710 -1.9848 0.9829
-0.9465 -3.7084 -1.9855 0.9829
-0.6800 -3.7691 -1.9869 0.9829
-0.2735 -3.8243 -1.9890 0.9829
-0.1369 -3.8330 -1.9897 0.9829
0.0000 -3.8368 -1.9904 0.9829
0.1370 -3.8357 -1.9912 0.9829
0.5468 -3.8032 -1.9933 0.9828
0.6824 -3.7826 -1.9940 0.9828
0.9512 -3.7268 -1.9954 0.9828
1.0840 -3.6918 -1.9961 0.9828
1.2155 -3.6520 -1.9968 0.9828
1.3455 -3.6075 -1.9974 0.9828
1.4739 -3.5584 -1.9981 0.9828
1.8476 -3.3837 -2.0001 0.9828
2.2008 -3.1697 -2.0019 0.9828
2.4227 -3.0064 -2.0030 0.9828
3.0110 -2.4264 -2.0061 0.9827
3.0963 -2.3179 -2.0065 0.9827
3.2551 -2.0920 -2.0074 0.9827
3.4619 -1.7329 -2.0084 0.9827
3.5221 -1.6085 -2.0087 0.9827
3.5778 -1.4820 -2.0090 0.9827
3.6289 -1.3535 -2.0093 0.9827
3.6753 -1.2233 -2.0095 0.9827
3.8531 -0.4142 -2.0104 0.9827
-0.9127 -0.0981 -0.5028 0.9958
-0.9011 -0.1626 -0.5015 0.9958
-0.8932 -0.1943 -0.5006 0.9958
-0.8727 -0.2562 -0.4982 0.9959
-0.8603 -0.2863 -0.4966 0.9959
-0.8479 -0.3512 -0.5027 0.9958
-0.8516 -0.4263 -0.5216 0.9957
-0.8524 -0.5058 -0.5428 0.9955
-3.0329 -1.9492 -1.9746 0.9837
-2.9620 -2.0566 -1.9750 0.9837
-2.8873 -2.1614 -1.9754 0.9837
-2.8089 -2.2635 -1.9758 0.9837
-2.4604 -2.6427 -1.9776 0.9837
-2.3651 -2.7295 -1.9781 0.9837
-2.2668 -2.8129 -1.9786 0.9837
-2.1655 -2.8928 -1.9792 0.9837
-2.0615 -2.9691 -1.9797 0.9837
-1.9547 -3.0416 -1.9803 0.9836
-1.8454 -3.1103 -1.9808 0.9836
-1.7338 -3.1752 -1.9814 0.9836
-1.3857 -3.3454 -1.9832 0.9836
-1.2658 -3.3937 -1.9838 0.9836
-1.1442 -3.4379 -1.9845 0.9836
-1.0211 -3.4776 -1.9851 0.9836
-0.8966 -3.5130 -1.9858 0.9836
-0.3881 -3.6097 -1.9884 0.9836
0.0000 -3.6342 -1.9904 0.9836
0.1298 -3.6331 -1.9911 0.9836
0.9009 -3.5296 -1.9951 0.9835
1.1511 -3.4586 -1.9964 0.9835
1.2742 -3.4164 -1.9971 0.9835
1.3958 -3.3698 -1.9977 0.9835
1.5157 -3.3188 -1.9983 0.9835
1.6337 -3.2636 -1.9989 0.9835
1.7496 -3.2042 -1.9995 0.9835
1.8634 -3.1406 -2.0001 0.9835
1.9749 -3.0730 -2.0007 0.9835
2.1903 -2.9260 -2.0018 0.9835
2.3948 -2.7637 -2.0029 0.9835
2.5871 -2.5871 -2.0039 0.9835
3.0086 -2.0889 -2.0061 0.9834
3.0818 -1.9806 -2.0065 0.9834
3.1511 -1.8697 -2.0068 0.9834
3.3345 -1.5228 -2.0078 0.9834
3.3872 -1.4030 -2.0080 0.9834
3.5539 -0.9071 -2.0089 0.9834
3.6101 -0.6513 -2.0092 0.9834
3.6477 -0.3922 -2.0094 0.9834
-0.8550 0.0000 -0.4936 0.9961
-0.8548 -0.0305 -0.4938 0.9961
-0.8531 -0.0610 -0.4938 0.9961
-0.8499 -0.0914 -0.4935 0.9961
-0.8393 -0.1514 -0.4924 0.9961
-0.8318 -0.1809 -0.4915 0.9961
-0.8230 -0.2101 -0.4904 0.9961
-0.8014 -0.2667 -0.4876 0.9961
-0.7796 -0.3229 -0.4872 0.9961
-0.7806 -0.3908 -0.5040 0.9960
-0.7750 -0.4599 -0.5203 0.9958
-0.7696 -0.4946 -0.5282 0.9958
-0.7634 -0.5300 -0.5366 0.9957
-2.7401 -2.0512 -1.9761 0.9843
-2.5878 -2.2424 -1.9769 0.9843
-2.1510 -2.6693 -1.9792 0.9843
-1.9561 -2.8174 -1.9802 0.9843
-1.8548 -2.8862 -1.9808 0.9843
-1.7511 -2.9514 -1.9813 0.9843
-1.5370 -3.0705 -1.9824 0.9843
-1.4268 -3.1243 -1.9830 0.9843
-1.2010 -3.2200 -1.9842 0.9843
-0.9688 -3.2995 -1.9854 0.9842
-0.8507 -3.3330 -1.9860 0.9842
-0.6111 -3.3873 -1.9873 0.9842
-0.3682 -3.4245 -1.9885 0.9842
-0.2458 -3.4365 -1.9892 0.9842
-0.1230 -3.4442 -1.9898 0.9842
0.0000 -3.4475 -1.9904 0.9842
0.2461 -3.4410 -1.9917 0.9842
0.3689 -3.4311 -1.9924 0.9842
0.6131 -3.3982 -1.9936 0.9842
0.8545 -3.3479 -1.9949 0.9842
1.2086 -3.2404 -1.9967 0.9842
1.3239 -3.1961 -1.9973 0.9841
1.6594 -3.0389 -1.9991 0.9841
1.8730 -2.9145 -2.0002 0.9841
1.9764 -2.8465 -2.0007 0.9841
2.2710 -2.6209 -2.0022 0.9841
2.3637 -2.5388 -2.0027 0.9841
2.4534 -2.4534 -2.0032 0.9841
2.5400 -2.3648 -2.0036 0.9841
2.6233 -2.2731 -2.0041 0.9841
2.7033 -2.1785 -2.0045 0.9841
2.7799 -2.0810 -2.0049 0.9841
2.9224 -1.8781 -2.0056 0.9841
3.0499 -1.6654 -2.0063 0.9841
3.1079 -1.5557 -2.0066 0.9841
3.1619 -1.4440 -2.0069 0.9841
3.2993 -1.0981 -2.0076 0.9841
3.4230 -0.6176 -2.0082 0.9841
3.4699 -0.2482 -2.0084 0.9841
