ply
format ascii 1.0
element vertex 771
property float32 x
property float32 y
property float32 z
property float32 I
end_header
5.6040 8.0713 -1.8469 0.9608
5.3113 8.2645 -1.8465 0.9608
4.3945 8.7792 -1.8453 0.9608
4.0775 8.9285 -1.8449 0.9608
3.0976 9.3068 -1.8437 0.9609
2.4246 9.4996 -1.8428 0.9609
2.0835 9.5778 -1.8424 0.9609
1.3943 9.6974 -1.8415 0.9609
0.6986 9.7674 -1.8406 0.9609
0.3494 9.7837 -1.8401 0.9609
0.0000 9.7876 -1.8397 0.9609
-0.3493 9.7790 -1.8392 0.9610
-0.6979 9.7579 -1.8388 0.9610
-1.0455 9.7245 -1.8384 0.9610
-1.3916 9.6787 -1.8379 0.9610
-4.6756 8.5627 -1.8338 0.9611
-4.9772 8.3887 -1.8334 0.9611
-5.2724 8.2040 -1.8330 0.9611
-5.5608 8.0090 -1.8327 0.9611
9.4276 1.0136 -2.0043 0.9620
9.3851 1.3494 -2.0042 0.9620
9.3305 1.6834 -2.0041 0.9620
9.2641 2.0153 -2.0040 0.9620
9.0956 2.6707 -2.0038 0.9620
8.9938 2.9934 -2.0036 0.9620
8.7559 3.6268 -2.0033 0.9620
8.6201 3.9366 -2.0031 0.9620
8.3156 4.5406 -2.0027 0.9620
7.9686 5.1211 -2.0022 0.9620
7.7797 5.4016 -2.0020 0.9620
7.3726 5.9412 -2.0015 0.9620
7.1548 6.1996 -2.0012 0.9620
6.6922 6.6922 -2.0006 0.9620
6.4481 6.9257 -2.0002 0.9621
5.9303 7.3591 -1.9978 0.9621
5.3498 7.7052 -1.9828 0.9624
4.9569 7.7131 -1.9381 0.9632
4.2191 7.7266 -1.8609 0.9646
3.9065 7.8041 -1.8448 0.9649
3.3384 8.0596 -1.8440 0.9650
3.0480 8.1720 -1.8436 0.9650
2.7538 8.2739 -1.8433 0.9650
2.4562 8.3652 -1.8429 0.9650
2.1557 8.4457 -1.8425 0.9650
1.2397 8.6223 -1.8413 0.9650
0.6212 8.6850 -1.8405 0.9650
0.0000 8.7034 -1.8397 0.9650
-0.3106 8.6960 -1.8393 0.9651
-1.5437 8.5560 -1.8378 0.9651
-1.8477 8.4937 -1.8374 0.9651
-2.1492 8.4206 -1.8370 0.9651
-2.4479 8.3368 -1.8366 0.9651
-3.0352 8.1376 -1.8359 0.9651
-3.3230 8.0225 -1.8355 0.9651
-3.6066 7.8972 -1.8352 0.9651
-3.8854 7.7620 -1.8348 0.9651
-4.5753 7.7113 -1.8953 0.9640
-4.9507 7.7035 -1.9356 0.9633
-5.3361 7.6854 -1.9777 0.9625
-5.6148 7.5006 -1.9805 0.9624
-5.8877 7.3062 -1.9834 0.9624
-6.1470 7.0940 -1.9842 0.9624
-6.6354 6.6354 -1.9836 0.9624
-6.8670 6.3934 -1.9833 0.9624
-7.3036 5.8856 -1.9827 0.9624
-7.8881 5.0694 -1.9820 0.9624
-8.2279 4.4928 -1.9816 0.9624
-8.6588 3.5866 -1.9811 0.9624
-8.8914 2.9593 -1.9808 0.9624
-9.0789 2.3172 -1.9806 0.9624
-9.2203 1.6635 -1.9805 0.9624
-9.2736 1.3333 -1.9804 0.9624
-9.3151 1.0015 -1.9804 0.9624
8.5233 -0.0000 -2.0032 0.9656
8.5014 0.6080 -2.0031 0.9656
8.4740 0.9111 -2.0031 0.9656
8.4359 1.2129 -2.0030 0.9656
8.2568 2.1074 -2.0027 0.9656
8.0844 2.6908 -2.0025 0.9656
7.7487 3.5387 -2.0020 0.9656
7.3239 4.3454 -2.0015 0.9656
7.1633 4.6036 -2.0012 0.9656
6.9937 4.8558 -2.0010 0.9656
6.0165 6.0165 -1.9997 0.9656
5.7971 6.2265 -1.9994 0.9656
5.0959 6.8074 -1.9985 0.9657
4.8489 6.9838 -1.9982 0.9657
4.5958 7.1512 -1.9979 0.9657
4.3350 7.3062 -1.9966 0.9657
4.0659 7.4461 -1.9939 0.9657
3.7926 7.5767 -1.9913 0.9658
3.1924 7.7071 -1.9606 0.9663
2.8763 7.7117 -1.9344 0.9667
2.2665 7.7191 -1.8908 0.9675
1.3945 7.7292 -1.8459 0.9682
1.1149 7.7544 -1.8412 0.9683
0.8373 7.7877 -1.8408 0.9683
0.5587 7.8111 -1.8405 0.9683
0.2794 7.8246 -1.8401 0.9683
-0.0000 7.8280 -1.8398 0.9683
-0.5582 7.8051 -1.8391 0.9684
-1.1132 7.7424 -1.8384 0.9684
-1.6797 7.7213 -1.8571 0.9681
-4.3122 7.2678 -1.9861 0.9659
-4.5689 7.1094 -1.9862 0.9659
-4.8190 6.9407 -1.9859 0.9659
-5.3003 6.5772 -1.9853 0.9659
-5.7544 6.1806 -1.9847 0.9659
-6.3796 5.5279 -1.9839 0.9659
-6.5720 5.2961 -1.9837 0.9659
-6.7561 5.0576 -1.9835 0.9659
-6.9316 4.8127 -1.9833 0.9659
-7.2558 4.3051 -1.9829 0.9659
-7.4042 4.0430 -1.9827 0.9659
-7.5431 3.7758 -1.9825 0.9659
-7.7921 3.2276 -1.9822 0.9659
-8.0016 2.6632 -1.9820 0.9659
-8.1704 2.0854 -1.9818 0.9659
-8.2393 1.7923 -1.9817 0.9659
-8.2977 1.4971 -1.9816 0.9659
-8.3457 1.1999 -1.9816 0.9659
-8.4098 0.6015 -1.9815 0.9659
7.7278 0.2760 -2.0021 0.9686
7.6882 0.8266 -2.0021 0.9686
7.4912 1.9120 -2.0018 0.9686
7.3348 2.4413 -2.0016 0.9686
7.2426 2.7013 -2.0014 0.9686
6.4996 4.1770 -2.0004 0.9686
6.3457 4.4059 -2.0002 0.9686
6.1837 4.6291 -2.0000 0.9686
6.0139 4.8463 -1.9998 0.9686
5.6515 5.2617 -1.9993 0.9686
5.2603 5.6500 -1.9988 0.9686
5.0547 5.8334 -1.9985 0.9686
4.4002 6.3376 -1.9976 0.9686
3.4514 6.8950 -1.9964 0.9686
3.2026 7.0127 -1.9961 0.9686
2.6933 7.2209 -1.9954 0.9687
2.1681 7.3838 -1.9925 0.9687
1.3636 7.5581 -1.9885 0.9688
-0.2736 7.6603 -1.9847 0.9688
-0.8194 7.6212 -1.9846 0.9688
-1.3614 7.5455 -1.9852 0.9688
-2.1624 7.3643 -1.9873 0.9688
-2.6840 7.1961 -1.9886 0.9688
-3.4362 6.8646 -1.9876 0.9688
-3.6785 6.7366 -1.9873 0.9688
-5.0221 5.7958 -1.9856 0.9688
-5.2251 5.6122 -1.9854 0.9688
-5.7931 5.0197 -1.9847 0.9688
-6.2945 4.3704 -1.9841 0.9688
-6.4459 4.1425 -1.9839 0.9688
-6.5891 3.9095 -1.9837 0.9688
-6.7239 3.6715 -1.9836 0.9688
-6.8501 3.4289 -1.9834 0.9688
-7.2666 2.4185 -1.9829 0.9689
-7.3479 2.1576 -1.9828 0.9689
-7.4200 1.8938 -1.9828 0.9689
-7.4826 1.6277 -1.9827 0.9689
-7.5357 1.3596 -1.9826 0.9689
-7.6132 0.8185 -1.9825 0.9689
-7.6521 0.2733 -1.9825 0.9689
7.0695 0.0000 -2.0013 0.9710
6.9970 1.0060 -2.0012 0.9710
6.9565 1.2551 -2.0011 0.9710
6.8486 1.7480 -2.0010 0.9710
6.7816 1.9912 -2.0009 0.9710
6.5287 2.7043 -2.0005 0.9710
6.3183 3.1627 -2.0002 0.9711
6.2008 3.3859 -2.0001 0.9711
6.0755 3.6048 -1.9999 0.9711
5.9425 3.8190 -1.9997 0.9711
5.8018 4.0283 -1.9995 0.9711
5.6538 4.2324 -1.9993 0.9711
4.6218 5.3338 -1.9980 0.9711
4.4279 5.4947 -1.9977 0.9711
4.2284 5.6485 -1.9975 0.9711
3.8136 5.9341 -1.9969 0.9711
3.5989 6.0656 -1.9966 0.9711
3.3796 6.1893 -1.9963 0.9711
3.1561 6.3051 -1.9961 0.9711
2.4629 6.6034 -1.9952 0.9711
2.2253 6.6860 -1.9949 0.9711
1.7421 6.8256 -1.9942 0.9711
1.4972 6.8824 -1.9939 0.9711
1.2504 6.9303 -1.9936 0.9711
1.0021 6.9694 -1.9933 0.9712
0.7525 6.9996 -1.9930 0.9712
0.0000 7.0366 -1.9920 0.9712
-0.5018 7.0164 -1.9914 0.9712
-0.7518 6.9929 -1.9910 0.9712
-1.0008 6.9605 -1.9907 0.9712
-1.4943 6.8692 -1.9901 0.9712
-1.9799 6.7430 -1.9895 0.9712
-2.2190 6.6670 -1.9892 0.9712
-2.4552 6.5826 -1.9889 0.9712
-2.6882 6.4898 -1.9886 0.9712
-3.1434 6.2797 -1.9880 0.9712
-3.3651 6.1626 -1.9877 0.9712
-3.7951 5.9053 -1.9872 0.9712
-4.0029 5.7653 -1.9869 0.9712
-4.5946 5.3024 -1.9862 0.9713
-4.7803 5.1344 -1.9860 0.9713
-4.9600 4.9600 -1.9858 0.9713
-5.1333 4.7793 -1.9855 0.9713
-5.3001 4.5925 -1.9853 0.9713
-5.8976 3.7901 -1.9846 0.9713
-6.2675 3.1373 -1.9842 0.9713
-6.4746 2.6818 -1.9839 0.9713
-6.5658 2.4489 -1.9838 0.9713
-6.6487 2.2129 -1.9837 0.9713
-6.7232 1.9741 -1.9836 0.9713
-6.8464 1.4893 -1.9835 0.9713
-6.8950 1.2440 -1.9834 0.9713
-6.9349 0.9971 -1.9834 0.9713
6.5043 0.0000 -2.0006 0.9731
6.4876 0.4640 -2.0006 0.9731
6.4668 0.6953 -2.0005 0.9731
6.4377 0.9256 -2.0005 0.9731
6.4004 1.1548 -2.0004 0.9731
6.2396 1.8321 -2.0002 0.9732
6.1699 2.0535 -2.0001 0.9732
6.0924 2.2723 -2.0000 0.9732
5.9140 2.7008 -1.9997 0.9732
5.8134 2.9100 -1.9996 0.9732
5.7054 3.1154 -1.9994 0.9732
5.3384 3.7065 -1.9990 0.9732
5.2022 3.8943 -1.9988 0.9732
5.0595 4.0771 -1.9986 0.9732
4.5932 4.5932 -1.9980 0.9732
4.4259 4.7537 -1.9977 0.9732
4.2529 4.9081 -1.9975 0.9732
4.0745 5.0562 -1.9973 0.9732
3.7025 5.3327 -1.9968 0.9732
3.5094 5.4607 -1.9965 0.9732
3.3118 5.5818 -1.9963 0.9732
2.9044 5.8023 -1.9958 0.9732
2.4824 5.9931 -1.9952 0.9732
2.2666 6.0770 -1.9949 0.9732
2.0480 6.1532 -1.9947 0.9732
0.4622 6.4619 -1.9926 0.9733
0.2312 6.4733 -1.9923 0.9733
-1.1491 6.3689 -1.9906 0.9733
-1.6000 6.2689 -1.9900 0.9733
-1.8225 6.2069 -1.9897 0.9733
-2.6858 5.8811 -1.9886 0.9733
-2.8936 5.7808 -1.9884 0.9733
-3.2978 5.5582 -1.9879 0.9733
-3.6851 5.3075 -1.9874 0.9733
-3.8717 5.1720 -1.9871 0.9733
-4.0534 5.0299 -1.9869 0.9733
-4.4009 4.7269 -1.9865 0.9733
-5.0269 4.0509 -1.9857 0.9733
-5.1678 3.8686 -1.9855 0.9733
-5.3022 3.6813 -1.9854 0.9733
-5.4297 3.4895 -1.9852 0.9734
-5.5504 3.2932 -1.9851 0.9734
-5.9611 2.4692 -1.9846 0.9734
-6.1901 1.8176 -1.9843 0.9734
-6.2508 1.5954 -1.9843 0.9734
-6.3484 1.1454 -1.9841 0.9734
6.0167 0.0000 -2.0000 0.9750
6.0128 0.2148 -2.0000 0.9750
6.0012 0.4292 -1.9999 0.9750
5.8785 1.2788 -1.9997 0.9750
5.7074 1.8996 -1.9995 0.9750
5.4708 2.4984 -1.9992 0.9750
5.2779 2.8820 -1.9989 0.9750
4.8125 3.6026 -1.9983 0.9750
4.3986 4.0953 -1.9977 0.9750
4.2492 4.2492 -1.9975 0.9750
4.0945 4.3978 -1.9973 0.9750
3.7695 4.6776 -1.9969 0.9750
3.5997 4.8087 -1.9967 0.9750
2.6871 5.3682 -1.9955 0.9750
2.2967 5.5448 -1.9950 0.9750
2.0971 5.6226 -1.9947 0.9750
1.6902 5.7563 -1.9942 0.9750
1.2749 5.8607 -1.9937 0.9750
1.0648 5.9016 -1.9934 0.9750
0.6409 5.9609 -1.9929 0.9750
0.2139 5.9898 -1.9923 0.9751
0.0000 5.9928 -1.9920 0.9751
-0.4274 5.9759 -1.9915 0.9751
-1.0633 5.8936 -1.9907 0.9751
-1.2728 5.8511 -1.9904 0.9751
-2.0915 5.6075 -1.9894 0.9751
-2.4856 5.4426 -1.9889 0.9751
-3.0520 5.1439 -1.9882 0.9751
-3.2333 5.0311 -1.9880 0.9751
-3.5832 4.7866 -1.9875 0.9751
-3.7514 4.6552 -1.9873 0.9751
-4.0731 4.3748 -1.9869 0.9751
-4.2262 4.2262 -1.9867 0.9751
-4.3740 4.0723 -1.9865 0.9751
-4.6526 3.7493 -1.9862 0.9751
-5.0255 3.2297 -1.9857 0.9751
-5.1373 3.0481 -1.9856 0.9751
-5.3410 2.6735 -1.9854 0.9751
-5.4327 2.4810 -1.9853 0.9751
-5.5175 2.2854 -1.9852 0.9751
-5.5953 2.0869 -1.9851 0.9751
-5.7295 1.6823 -1.9849 0.9751
-5.7857 1.4767 -1.9849 0.9751
-5.8760 1.0601 -1.9848 0.9751
-5.9554 0.4259 -1.9847 0.9751
5.5768 0.3989 -1.9994 0.9765
5.5589 0.5976 -1.9994 0.9765
5.5339 0.7957 -1.9993 0.9765
5.5019 0.9926 -1.9993 0.9765
5.4167 1.3825 -1.9991 0.9765
5.3637 1.5749 -1.9991 0.9765
5.3038 1.7653 -1.9990 0.9765
5.0840 2.3218 -1.9987 0.9765
4.5894 3.1865 -1.9980 0.9765
4.4724 3.3480 -1.9979 0.9765
4.2215 3.6579 -1.9975 0.9766
4.0879 3.8059 -1.9974 0.9766
3.9491 3.9491 -1.9972 0.9766
3.8052 4.0871 -1.9970 0.9766
3.3455 4.4691 -1.9964 0.9766
3.0175 4.6954 -1.9959 0.9766
2.8477 4.7996 -1.9957 0.9766
2.4975 4.9894 -1.9953 0.9766
2.3175 5.0747 -1.9950 0.9766
1.9491 5.2259 -1.9946 0.9766
1.7611 5.2915 -1.9943 0.9766
1.3789 5.4023 -1.9938 0.9766
1.1850 5.4474 -1.9936 0.9766
0.9897 5.4855 -1.9933 0.9766
0.7932 5.5166 -1.9931 0.9766
0.5957 5.5407 -1.9928 0.9766
0.3975 5.5578 -1.9926 0.9766
0.0000 5.5705 -1.9921 0.9766
-0.7924 5.5110 -1.9911 0.9766
-0.9884 5.4786 -1.9908 0.9766
-1.5678 5.3395 -1.9901 0.9766
-1.9443 5.2128 -1.9896 0.9766
-2.1289 5.1395 -1.9894 0.9766
-2.3107 5.0597 -1.9891 0.9766
-2.6652 4.8809 -1.9887 0.9767
-3.0059 4.6773 -1.9883 0.9767
-3.1706 4.5666 -1.9881 0.9767
-3.6395 4.2002 -1.9875 0.9767
-3.7868 4.0673 -1.9873 0.9767
-4.1988 3.6383 -1.9868 0.9767
-4.9658 2.4857 -1.9859 0.9767
-5.1300 2.1249 -1.9857 0.9767
-5.2023 1.9404 -1.9856 0.9767
-5.3271 1.5642 -1.9854 0.9767
-5.4248 1.1801 -1.9853 0.9767
-5.4634 0.9857 -1.9853 0.9767
-5.5372 0.3960 -1.9852 0.9767
5.1862 0.5576 -1.9989 0.9779
5.1629 0.7423 -1.9989 0.9779
5.1330 0.9261 -1.9988 0.9779
5.0965 1.1087 -1.9988 0.9779
5.0041 1.4693 -1.9986 0.9779
4.9483 1.6469 -1.9985 0.9779
4.8861 1.8224 -1.9985 0.9779
4.8177 1.9956 -1.9984 0.9779
4.7432 2.1661 -1.9983 0.9779
4.5761 2.4987 -1.9980 0.9779
4.4837 2.6603 -1.9979 0.9779
4.2819 2.9730 -1.9976 0.9779
4.1728 3.1237 -1.9975 0.9779
3.9387 3.4129 -1.9972 0.9779
3.8140 3.5510 -1.9970 0.9779
3.6845 3.6845 -1.9968 0.9779
3.4117 3.9373 -1.9965 0.9779
2.6571 4.4783 -1.9955 0.9779
2.4953 4.5698 -1.9953 0.9779
2.3303 4.6554 -1.9951 0.9779
1.9918 4.8087 -1.9946 0.9780
1.4659 4.9924 -1.9940 0.9780
1.2866 5.0410 -1.9937 0.9780
1.1058 5.0831 -1.9935 0.9780
0.7401 5.1478 -1.9930 0.9780
0.3709 5.1863 -1.9926 0.9780
0.1856 5.1956 -1.9923 0.9780
-0.1855 5.1944 -1.9918 0.9780
-0.7394 5.1429 -1.9911 0.9780
-0.9224 5.1127 -1.9909 0.9780
-1.1042 5.0759 -1.9907 0.9780
-1.2845 5.0327 -1.9904 0.9780
-1.4632 4.9831 -1.9902 0.9780
-1.6399 4.9271 -1.9900 0.9780
-1.9868 4.7965 -1.9896 0.9780
-2.3234 4.6416 -1.9891 0.9780
-2.4873 4.5552 -1.9889 0.9780
-2.8054 4.3653 -1.9885 0.9780
-3.2550 4.0393 -1.9880 0.9780
-3.6672 3.6672 -1.9875 0.9780
-3.9189 3.3957 -1.9872 0.9780
-4.1506 3.1071 -1.9869 0.9780
-4.2585 2.9568 -1.9867 0.9780
-4.5494 2.4841 -1.9864 0.9780
-4.6349 2.3201 -1.9863 0.9780
-4.8557 1.8111 -1.9860 0.9780
-5.1290 0.7374 -1.9857 0.9780
-5.1520 0.5539 -1.9857 0.9780
-5.1684 0.3696 -1.9857 0.9780
4.8706 0.3484 -1.9985 0.9791
4.7711 1.0379 -1.9983 0.9791
4.7308 1.2075 -1.9983 0.9791
4.6323 1.5418 -1.9981 0.9791
4.5741 1.7061 -1.9981 0.9791
4.5101 1.8682 -1.9980 0.9791
4.3649 2.1849 -1.9978 0.9791
4.1057 2.6385 -1.9974 0.9791
3.6873 3.1951 -1.9969 0.9791
3.5707 3.3244 -1.9967 0.9791
3.1940 3.6861 -1.9962 0.9791
2.9224 3.9039 -1.9959 0.9791
2.7810 4.0053 -1.9957 0.9791
2.3362 4.2784 -1.9951 0.9792
2.1818 4.3586 -1.9949 0.9792
2.0246 4.4333 -1.9947 0.9792
1.7028 4.5655 -1.9943 0.9792
1.5386 4.6229 -1.9941 0.9792
1.3725 4.6743 -1.9939 0.9792
1.2047 4.7198 -1.9936 0.9792
1.0353 4.7593 -1.9934 0.9792
0.8647 4.7927 -1.9932 0.9792
0.1737 4.8648 -1.9923 0.9792
-0.1737 4.8637 -1.9919 0.9792
-0.3472 4.8539 -1.9916 0.9792
-0.5201 4.8379 -1.9914 0.9792
-0.8637 4.7874 -1.9910 0.9792
-1.2028 4.7126 -1.9906 0.9792
-1.5356 4.6138 -1.9901 0.9792
-1.6991 4.5555 -1.9899 0.9792
-1.8605 4.4915 -1.9897 0.9792
-2.4798 4.1794 -1.9890 0.9792
-2.6271 4.0879 -1.9888 0.9792
-2.7711 3.9911 -1.9886 0.9792
-2.9115 3.8893 -1.9884 0.9792
-3.0482 3.7826 -1.9882 0.9792
-3.3098 3.5550 -1.9879 0.9792
-3.4343 3.4343 -1.9878 0.9792
-3.5544 3.3093 -1.9876 0.9792
-3.6700 3.1800 -1.9875 0.9792
-3.9881 2.7690 -1.9871 0.9792
-4.0842 2.6247 -1.9870 0.9792
-4.3407 2.1728 -1.9867 0.9792
-4.4842 1.8574 -1.9865 0.9792
-4.5475 1.6961 -1.9864 0.9792
-4.7023 1.2002 -1.9862 0.9792
-4.7421 1.0316 -1.9862 0.9792
-4.8034 0.6906 -1.9861 0.9792
-4.8496 0.1732 -1.9861 0.9792
4.5848 0.0000 -1.9981 0.9802
4.5819 0.1637 -1.9981 0.9802
4.5584 0.4901 -1.9981 0.9802
4.5380 0.6525 -1.9981 0.9802
4.5117 0.8140 -1.9980 0.9802
4.4797 0.9745 -1.9980 0.9802
4.3985 1.2915 -1.9979 0.9802
4.2347 1.7541 -1.9976 0.9802
4.1692 1.9040 -1.9975 0.9802
4.0224 2.1964 -1.9973 0.9802
3.9412 2.3384 -1.9972 0.9802
3.5674 2.8748 -1.9967 0.9802
3.3528 3.1215 -1.9964 0.9802
3.2390 3.2390 -1.9963 0.9802
2.8735 3.5658 -1.9958 0.9802
2.7441 3.6657 -1.9956 0.9802
2.6113 3.7610 -1.9955 0.9802
2.4752 3.8515 -1.9953 0.9802
1.9012 4.1630 -1.9945 0.9802
1.7512 4.2278 -1.9944 0.9802
1.5990 4.2872 -1.9942 0.9802
1.4449 4.3411 -1.9940 0.9802
1.2889 4.3894 -1.9938 0.9802
1.1313 4.4322 -1.9936 0.9802
0.9722 4.4693 -1.9933 0.9802
0.6508 4.5263 -1.9929 0.9802
0.3262 4.5603 -1.9925 0.9802
0.0000 4.5710 -1.9921 0.9803
-0.1631 4.5676 -1.9919 0.9803
-0.4885 4.5434 -1.9915 0.9803
-0.6502 4.5226 -1.9913 0.9803
-0.8112 4.4960 -1.9911 0.9803
-0.9710 4.4637 -1.9909 0.9803
-1.1296 4.4258 -1.9907 0.9803
-1.5958 4.2784 -1.9901 0.9803
-1.7473 4.2183 -1.9899 0.9803
-1.8966 4.1529 -1.9897 0.9803
-2.0434 4.0822 -1.9895 0.9803
-2.4674 3.8393 -1.9890 0.9803
-2.7345 3.6529 -1.9887 0.9803
-2.9877 3.4480 -1.9883 0.9803
-3.4470 2.9868 -1.9878 0.9803
-3.6508 2.7330 -1.9875 0.9803
-3.8361 2.4653 -1.9873 0.9803
-4.0018 2.1851 -1.9871 0.9803
-4.1471 1.8939 -1.9869 0.9803
-1.5118 0.5639 -0.7032 0.9930
-1.3722 0.4029 -0.6233 0.9938
-1.3400 0.3420 -0.6027 0.9940
-1.3688 0.2978 -0.6105 0.9939
-1.3955 0.2518 -0.6180 0.9938
-1.4180 0.2039 -0.6244 0.9938
-1.4359 0.1544 -0.6294 0.9937
-1.4571 0.0520 -0.6354 0.9937
4.3049 0.3079 -1.9978 0.9812
4.2472 0.7663 -1.9977 0.9812
4.2170 0.9174 -1.9976 0.9812
4.1815 1.0673 -1.9976 0.9812
4.1406 1.2158 -1.9975 0.9812
3.9865 1.6512 -1.9973 0.9812
3.7866 2.0676 -1.9970 0.9812
3.7102 2.2014 -1.9969 0.9812
3.6291 2.3322 -1.9968 0.9812
3.5433 2.4602 -1.9967 0.9812
3.4530 2.5849 -1.9966 0.9812
3.2594 2.8243 -1.9963 0.9812
3.1563 2.9386 -1.9962 0.9812
3.0492 3.0492 -1.9961 0.9812
2.7052 3.3569 -1.9956 0.9812
2.4584 3.5408 -1.9953 0.9812
2.3303 3.6260 -1.9951 0.9812
2.0653 3.7823 -1.9948 0.9812
1.9288 3.8533 -1.9946 0.9812
1.7899 3.9193 -1.9944 0.9812
1.6487 3.9803 -1.9942 0.9812
0.7645 4.2374 -1.9931 0.9812
0.3071 4.2936 -1.9925 0.9812
0.1536 4.3014 -1.9923 0.9812
-0.3070 4.2919 -1.9917 0.9812
-0.4599 4.2778 -1.9915 0.9812
-0.6122 4.2582 -1.9913 0.9812
-0.7638 4.2333 -1.9911 0.9812
-1.0636 4.1672 -1.9908 0.9812
-1.2116 4.1262 -1.9906 0.9812
-1.3579 4.0799 -1.9904 0.9812
-1.5025 4.0285 -1.9902 0.9812
-1.9241 3.8438 -1.9897 0.9812
-2.0598 3.7723 -1.9895 0.9812
-2.1930 3.6961 -1.9893 0.9812
-2.4507 3.5297 -1.9890 0.9812
-2.9272 3.1440 -1.9884 0.9812
-3.0373 3.0373 -1.9883 0.9812
-3.1436 2.9268 -1.9882 0.9812
-3.4378 2.5735 -1.9878 0.9812
-3.5273 2.4490 -1.9877 0.9813
-3.6123 2.3215 -1.9876 0.9813
-3.7683 2.0577 -1.9874 0.9813
-3.8392 1.9218 -1.9873 0.9813
-1.2345 0.5114 -0.6185 0.9941
-1.2017 0.4482 -0.5937 0.9944
-1.1575 0.2954 -0.5529 0.9947
-1.1974 0.2160 -0.5632 0.9947
-1.2124 0.1743 -0.5670 0.9946
-1.2261 0.1318 -0.5708 0.9946
-1.2362 0.0884 -0.5737 0.9946
4.0722 0.0000 -1.9975 0.9820
4.0617 0.2905 -1.9975 0.9820
4.0487 0.4353 -1.9974 0.9820
4.0072 0.7230 -1.9974 0.9820
3.9453 1.0070 -1.9973 0.9820
3.9067 1.1471 -1.9972 0.9820
3.8147 1.4228 -1.9971 0.9820
3.7613 1.5580 -1.9970 0.9820
3.7032 1.6912 -1.9970 0.9820
3.5728 1.9509 -1.9968 0.9820
3.4241 2.2006 -1.9966 0.9820
2.4376 3.2563 -1.9953 0.9820
2.0751 3.4974 -1.9948 0.9820
1.9488 3.5689 -1.9946 0.9820
1.8200 3.6359 -1.9945 0.9820
1.5557 3.7558 -1.9941 0.9821
1.4206 3.8086 -1.9939 0.9821
1.2836 3.8566 -1.9938 0.9821
1.1450 3.8996 -1.9936 0.9821
1.0050 3.9376 -1.9934 0.9821
0.8638 3.9706 -1.9932 0.9821
0.7214 3.9986 -1.9930 0.9821
0.5782 4.0214 -1.9929 0.9821
0.2898 4.0516 -1.9925 0.9821
0.1450 4.0590 -1.9923 0.9821
-0.1449 4.0583 -1.9919 0.9821
-0.2897 4.0501 -1.9918 0.9821
-0.4340 4.0368 -1.9916 0.9821
-0.5778 4.0184 -1.9914 0.9821
-0.7208 3.9949 -1.9912 0.9821
-0.8628 3.9662 -1.9910 0.9821
-1.0037 3.9325 -1.9909 0.9821
-1.5526 3.7484 -1.9902 0.9821
-1.6853 3.6903 -1.9900 0.9821
-1.8158 3.6275 -1.9898 0.9821
-2.0696 3.4881 -1.9895 0.9821
-2.1926 3.4118 -1.9894 0.9821
-2.3128 3.3311 -1.9892 0.9821
-2.4301 3.2462 -1.9891 0.9821
-2.5442 3.1571 -1.9889 0.9821
-2.6551 3.0641 -1.9888 0.9821
-2.7626 2.9672 -1.9886 0.9821
-2.8665 2.8665 -1.9885 0.9821
-2.9668 2.7622 -1.9884 0.9821
-3.0633 2.6544 -1.9883 0.9821
-3.1559 2.5432 -1.9882 0.9821
-3.3290 2.3114 -1.9880 0.9821
-1.0444 0.4770 -0.5632 0.9949
-1.0290 0.4262 -0.5463 0.9951
-1.0119 0.3774 -0.5298 0.9952
-1.0175 0.2988 -0.5202 0.9953
-1.0611 0.1526 -0.5258 0.9952
-1.0705 0.1151 -0.5281 0.9952
-1.0769 0.0770 -0.5296 0.9952
3.8498 0.0000 -1.9972 0.9828
3.8474 0.1374 -1.9972 0.9828
3.8400 0.2746 -1.9972 0.9828
3.8277 0.4115 -1.9972 0.9828
3.7885 0.6835 -1.9971 0.9828
3.7616 0.8183 -1.9971 0.9828
3.7299 0.9520 -1.9970 0.9828
3.6934 1.0845 -1.9970 0.9828
3.6523 1.2156 -1.9969 0.9828
3.6064 1.3451 -1.9968 0.9828
3.5560 1.4729 -1.9968 0.9828
3.4416 1.7227 -1.9966 0.9828
3.3778 1.8444 -1.9965 0.9828
3.3096 1.9637 -1.9964 0.9828
3.1608 2.1946 -1.9962 0.9828
3.0803 2.3059 -1.9961 0.9828
2.9958 2.4142 -1.9960 0.9828
2.9076 2.5194 -1.9959 0.9828
2.7201 2.7201 -1.9957 0.9828
2.5188 2.9068 -1.9954 0.9828
2.4133 2.9947 -1.9952 0.9828
1.9619 3.3067 -1.9947 0.9828
1.8425 3.3743 -1.9945 0.9828
1.7208 3.4377 -1.9943 0.9828
1.4709 3.5511 -1.9940 0.9828
1.3431 3.6010 -1.9939 0.9828
1.2136 3.6464 -1.9937 0.9828
1.0826 3.6871 -1.9935 0.9828
0.8167 3.7542 -1.9932 0.9828
0.0000 3.8400 -1.9921 0.9828
-0.1370 3.8373 -1.9920 0.9828
-0.2739 3.8296 -1.9918 0.9828
-0.5463 3.7996 -1.9914 0.9829
-0.8158 3.7503 -1.9911 0.9829
-0.9491 3.7185 -1.9909 0.9829
-1.0811 3.6819 -1.9908 0.9829
-1.2117 3.6407 -1.9906 0.9829
-1.4681 3.5444 -1.9903 0.9829
-1.8382 3.3664 -1.9898 0.9829
-1.9570 3.2984 -1.9897 0.9829
-2.1870 3.1499 -1.9894 0.9829
-2.5107 2.8975 -1.9890 0.9829
-2.7107 2.7107 -1.9887 0.9829
-2.8968 2.5101 -1.9885 0.9829
-0.9486 0.5180 -0.5607 0.9951
-0.9416 0.4713 -0.5462 0.9953
-0.9271 0.3840 -0.5206 0.9955
-0.9208 0.3434 -0.5098 0.9956
-0.9268 0.3085 -0.5067 0.9956
-0.9524 0.2431 -0.5099 0.9956
-0.9838 0.1058 -0.5133 0.9956
3.6437 0.1301 -1.9969 0.9835
3.6367 0.2601 -1.9969 0.9835
3.5879 0.6473 -1.9968 0.9835
3.5325 0.9016 -1.9968 0.9835
3.4590 1.1513 -1.9967 0.9835
3.3157 1.5143 -1.9965 0.9835
3.2595 1.6316 -1.9964 0.9835
3.1345 1.8598 -1.9962 0.9835
3.0660 1.9704 -1.9961 0.9835
2.9936 2.0785 -1.9960 0.9835
2.7538 2.3862 -1.9957 0.9835
2.6667 2.4828 -1.9956 0.9835
2.5762 2.5762 -1.9955 0.9835
2.4825 2.6664 -1.9954 0.9835
2.3856 2.7531 -1.9952 0.9835
2.2857 2.8363 -1.9951 0.9835
2.1828 2.9159 -1.9950 0.9835
1.9690 3.0638 -1.9947 0.9835
1.8582 3.1319 -1.9945 0.9835
1.7451 3.1959 -1.9944 0.9835
1.3932 3.3634 -1.9939 0.9835
1.2721 3.4107 -1.9938 0.9835
1.0254 3.4922 -1.9935 0.9835
0.9000 3.5263 -1.9933 0.9835
0.7735 3.5559 -1.9931 0.9835
0.6461 3.5810 -1.9930 0.9835
0.3889 3.6173 -1.9926 0.9835
-0.2594 3.6274 -1.9918 0.9836
-0.3887 3.6155 -1.9916 0.9836
-0.6455 3.5780 -1.9913 0.9836
-1.1478 3.4486 -1.9907 0.9836
-1.2701 3.4052 -1.9905 0.9836
-1.5095 3.3054 -1.9902 0.9836
-1.6264 3.2492 -1.9901 0.9836
-1.9640 3.0561 -1.9897 0.9836
-2.0717 2.9838 -1.9895 0.9836
-2.2790 2.8280 -1.9893 0.9836
-2.4746 2.6579 -1.9890 0.9836
-2.6576 2.4743 -1.9888 0.9836
-2.7441 2.3778 -1.9887 0.9836
-2.8271 2.2782 -1.9886 0.9836
-2.9065 2.1758 -1.9885 0.9836
-2.9821 2.0705 -1.9884 0.9836
-0.8507 0.4645 -0.5309 0.9956
-0.8516 0.4263 -0.5216 0.9957
-0.8479 0.3512 -0.5027 0.9958
-0.8465 0.3157 -0.4948 0.9959
-0.8837 0.2255 -0.4995 0.9958
-0.8932 0.1943 -0.5006 0.9958
-0.9077 0.1305 -0.5022 0.9958
-0.9179 0.0328 -0.5031 0.9958
3.4562 0.1234 -1.9967 0.9842
3.4496 0.2467 -1.9967 0.9842
3.4231 0.4922 -1.9966 0.9842
3.3791 0.7351 -1.9966 0.9842
3.3507 0.8552 -1.9965 0.9842
3.2810 1.0920 -1.9964 0.9842
3.1452 1.4363 -1.9962 0.9842
3.0918 1.5476 -1.9962 0.9842
3.0344 1.6569 -1.9961 0.9842
2.9083 1.8690 -1.9959 0.9842
2.8396 1.9715 -1.9958 0.9842
2.7673 2.0715 -1.9957 0.9842
2.6914 2.1689 -1.9956 0.9842
2.6121 2.2634 -1.9955 0.9842
2.5296 2.3551 -1.9954 0.9842
2.3548 2.5293 -1.9952 0.9842
2.2629 2.6115 -1.9951 0.9842
2.1681 2.6905 -1.9949 0.9842
1.9704 2.8379 -1.9947 0.9842
1.8677 2.9063 -1.9946 0.9842
1.7627 2.9709 -1.9944 0.9842
1.4347 3.1416 -1.9940 0.9842
1.3216 3.1906 -1.9938 0.9842
0.8538 3.3452 -1.9932 0.9842
0.7338 3.3732 -1.9931 0.9842
0.6129 3.3970 -1.9929 0.9842
0.3689 3.4316 -1.9926 0.9842
0.1232 3.4486 -1.9923 0.9842
0.0000 3.4505 -1.9922 0.9842
-0.1231 3.4480 -1.9920 0.9842
-0.2461 3.4412 -1.9918 0.9842
-0.3688 3.4299 -1.9917 0.9842
-0.4909 3.4143 -1.9915 0.9842
-0.6124 3.3944 -1.9914 0.9842
-0.7331 3.3701 -1.9912 0.9842
-0.8529 3.3415 -1.9911 0.9842
-1.0889 3.2717 -1.9908 0.9842
-1.2049 3.2305 -1.9906 0.9842
-1.3193 3.1852 -1.9905 0.9842
-1.4321 3.1358 -1.9903 0.9842
-1.5430 3.0825 -1.9902 0.9842
-1.6519 3.0253 -1.9901 0.9842
-1.7587 2.9642 -1.9899 0.9842
-1.8633 2.8993 -1.9898 0.9842
-1.9654 2.8308 -1.9897 0.9842
-2.2564 2.6040 -1.9893 0.9842
-2.4361 2.4361 -1.9891 0.9842
-2.5214 2.3475 -1.9890 0.9842
-2.6034 2.2559 -1.9889 0.9842
-2.7575 2.0642 -1.9887 0.9842
-0.7634 0.5300 -0.5366 0.9957
-0.7696 0.4946 -0.5282 0.9958
-0.7787 0.4252 -0.5122 0.9959
-0.7806 0.3908 -0.5040 0.9960
-0.8128 0.2387 -0.4891 0.9961
-0.8230 0.2101 -0.4904 0.9961
-0.8318 0.1810 -0.4915 0.9961
-0.8453 0.1215 -0.4930 0.9961
-0.8548 0.0305 -0.4938 0.9961
