ply
format ascii 1.0
element vertex 764
property float32 x
property float32 y
property float32 z
property float32 I
end_header
-9.4049 -3.1302 -0.5027 0.9611
-9.5685 -2.8096 -0.7312 0.9608
-9.1479 -3.4120 -0.7159 0.9616
-9.3040 -2.7319 -0.9309 0.9618
-8.9647 -3.3437 -0.9186 0.9623
-8.9595 -3.7111 -0.9310 0.9618
-9.0210 -4.1197 -1.1780 0.9608
-9.1970 -2.7005 -1.3581 0.9620
-8.8890 -3.6820 -1.3633 0.9619
-9.1715 -2.6930 -1.5747 0.9620
-9.1333 -3.0398 -1.5858 0.9617
-9.2939 -1.3363 -1.9847 0.9623
-9.1755 -1.9960 -1.9849 0.9623
-9.0104 -2.6457 -1.9850 0.9623
-8.9107 -2.9658 -1.9851 0.9623
-8.7996 -3.2821 -1.9852 0.9623
-8.5441 -3.9019 -1.9855 0.9623
-8.2451 -4.5021 -1.9857 0.9623
-8.0797 -4.7939 -1.9859 0.9623
-7.5229 -5.6316 -1.9864 0.9623
-7.3178 -5.8970 -1.9866 0.9623
-6.6475 -6.6475 -1.9872 0.9623
-6.1576 -7.1063 -1.9876 0.9623
-4.5096 -8.2587 -1.9890 0.9623
-3.9099 -8.5616 -1.9895 0.9623
-3.2901 -8.8211 -1.9901 0.9622
-2.9736 -8.9341 -1.9903 0.9622
-2.0023 -9.2046 -1.9912 0.9622
-1.6728 -9.2715 -1.9914 0.9622
-1.3410 -9.3266 -1.9917 0.9622
-1.0074 -9.3698 -1.9920 0.9622
-0.3365 -9.4205 -1.9926 0.9622
-0.0000 -9.4279 -1.9929 0.9622
1.0082 -9.3778 -1.9937 0.9622
1.6751 -9.2846 -1.9943 0.9622
2.9810 -8.9566 -1.9954 0.9621
3.2993 -8.8456 -1.9956 0.9621
3.6133 -8.7234 -1.9959 0.9621
4.2275 -8.4455 -1.9964 0.9621
4.5268 -8.2903 -1.9966 0.9621
5.1079 -7.9481 -1.9971 0.9621
5.3890 -7.7616 -1.9973 0.9621
5.6632 -7.5652 -1.9976 0.9621
5.9303 -7.3590 -1.9978 0.9621
6.4415 -6.9187 -1.9982 0.9621
7.1462 -6.1922 -1.9988 0.9621
7.5710 -5.6676 -1.9991 0.9621
8.1352 -4.8269 -1.9995 0.9621
8.3029 -4.5337 -1.9997 0.9621
8.6062 -3.9303 -1.9999 0.9621
8.9782 -2.9882 -2.0002 0.9621
9.0795 -2.6660 -2.0002 0.9621
9.1692 -2.3403 -2.0003 0.9621
9.2471 -2.0116 -2.0004 0.9620
9.3132 -1.6803 -2.0004 0.9620
9.3674 -1.3468 -2.0004 0.9620
9.4096 -1.0116 -2.0005 0.9620
9.4398 -0.6751 -2.0005 0.9620
9.4579 -0.3378 -2.0005 0.9620
-8.4477 0.0000 -1.9854 0.9659
-8.4424 -0.3015 -1.9854 0.9659
-8.4263 -0.6027 -1.9854 0.9659
-8.3996 -0.9031 -1.9855 0.9659
-8.1865 -2.0895 -1.9857 0.9659
-8.0173 -2.6684 -1.9859 0.9659
-7.9173 -2.9530 -1.9860 0.9659
-7.8073 -3.2339 -1.9861 0.9659
-7.5575 -3.7830 -1.9863 0.9659
-7.4182 -4.0506 -1.9864 0.9659
-7.2694 -4.3131 -1.9866 0.9659
-7.1113 -4.5702 -1.9867 0.9659
-6.9442 -4.8214 -1.9868 0.9659
-6.1894 -5.7625 -1.9875 0.9658
-5.7636 -6.1906 -1.9879 0.9658
-5.0704 -6.7733 -1.9885 0.9658
-4.8259 -6.9507 -1.9887 0.9658
-4.5753 -7.1193 -1.9889 0.9658
-3.5171 -7.7015 -1.9898 0.9658
-3.2404 -7.8230 -1.9901 0.9658
-2.3865 -8.1276 -1.9908 0.9658
-2.0951 -8.2086 -1.9911 0.9658
-1.8010 -8.2792 -1.9913 0.9658
-1.5046 -8.3392 -1.9916 0.9658
-1.2061 -8.3887 -1.9918 0.9658
-0.9061 -8.4275 -1.9921 0.9658
-0.6048 -8.4555 -1.9923 0.9658
-0.0000 -8.4793 -1.9928 0.9658
0.3027 -8.4750 -1.9931 0.9658
0.6051 -8.4598 -1.9933 0.9658
0.9067 -8.4339 -1.9936 0.9657
1.2073 -8.3972 -1.9938 0.9657
1.5065 -8.3498 -1.9941 0.9657
2.0988 -8.2231 -1.9946 0.9657
2.3913 -8.1440 -1.9948 0.9657
3.2493 -7.8445 -1.9955 0.9657
3.8015 -7.5944 -1.9960 0.9657
4.0706 -7.4547 -1.9962 0.9657
4.3345 -7.3055 -1.9964 0.9657
4.5930 -7.1469 -1.9966 0.9657
4.8457 -6.9791 -1.9968 0.9657
5.0922 -6.8024 -1.9970 0.9657
6.0107 -6.0107 -1.9978 0.9657
6.4252 -5.5675 -1.9981 0.9657
6.6204 -5.3350 -1.9983 0.9657
6.8071 -5.0957 -1.9984 0.9657
6.9851 -4.8498 -1.9986 0.9657
7.1542 -4.5978 -1.9987 0.9657
7.7375 -3.5336 -1.9992 0.9657
7.8591 -3.2553 -1.9992 0.9657
7.9706 -2.9729 -1.9993 0.9656
8.0719 -2.6866 -1.9994 0.9656
8.3135 -1.8085 -1.9996 0.9656
8.3730 -1.5107 -1.9996 0.9656
8.4217 -1.2109 -1.9996 0.9656
-7.6706 0.0000 -1.9861 0.9688
-7.6658 -0.2738 -1.9861 0.9688
-7.6512 -0.5472 -1.9861 0.9688
-7.5929 -1.0917 -1.9862 0.9688
-7.5493 -1.3620 -1.9862 0.9688
-7.3612 -2.1614 -1.9864 0.9688
-7.1888 -2.6813 -1.9866 0.9688
-7.0889 -2.9363 -1.9867 0.9688
-6.9799 -3.1876 -1.9868 0.9688
-6.6003 -3.9161 -1.9871 0.9688
-6.4567 -4.1495 -1.9872 0.9688
-6.3050 -4.3776 -1.9874 0.9688
-5.9775 -4.8170 -1.9877 0.9688
-5.8022 -5.0276 -1.9878 0.9688
-5.6195 -5.2319 -1.9880 0.9688
-5.4296 -5.4296 -1.9881 0.9688
-5.2328 -5.6205 -1.9883 0.9688
-5.0293 -5.8042 -1.9885 0.9688
-4.6033 -6.1493 -1.9889 0.9688
-4.3813 -6.3103 -1.9891 0.9688
-4.1537 -6.4633 -1.9893 0.9688
-3.9208 -6.6081 -1.9895 0.9688
-3.6828 -6.7446 -1.9897 0.9687
-3.4401 -6.8724 -1.9899 0.9687
-2.6866 -7.2031 -1.9905 0.9687
-2.4281 -7.2952 -1.9907 0.9687
-1.9019 -7.4515 -1.9912 0.9687
-1.6349 -7.5155 -1.9914 0.9687
-1.0948 -7.6148 -1.9919 0.9687
-0.5489 -7.6752 -1.9923 0.9687
-0.2747 -7.6908 -1.9926 0.9687
0.2747 -7.6926 -1.9930 0.9687
0.5492 -7.6788 -1.9933 0.9687
0.8230 -7.6552 -1.9935 0.9687
1.3673 -7.5787 -1.9939 0.9687
1.9049 -7.4635 -1.9944 0.9687
2.1704 -7.3916 -1.9946 0.9687
2.6927 -7.2195 -1.9950 0.9687
3.2016 -7.0105 -1.9955 0.9687
3.4501 -6.8925 -1.9957 0.9687
3.9338 -6.6301 -1.9961 0.9686
4.1683 -6.4861 -1.9963 0.9686
5.2561 -5.6454 -1.9971 0.9686
5.6463 -5.2569 -1.9975 0.9686
6.3387 -4.4011 -1.9980 0.9686
6.4921 -4.1723 -1.9981 0.9686
6.6373 -3.9381 -1.9982 0.9686
6.9020 -3.4549 -1.9984 0.9686
7.0213 -3.2065 -1.9985 0.9686
7.2327 -2.6977 -1.9987 0.9686
7.4072 -2.1749 -1.9988 0.9686
7.5977 -1.3708 -1.9990 0.9686
-7.0175 0.0000 -1.9866 0.9712
-7.0131 -0.2505 -1.9866 0.9712
-6.9997 -0.5007 -1.9866 0.9712
-6.9065 -1.2461 -1.9867 0.9712
-6.8004 -1.7357 -1.9869 0.9712
-6.3854 -2.9161 -1.9872 0.9712
-6.2776 -3.1423 -1.9873 0.9712
-6.1617 -3.3646 -1.9875 0.9712
-6.0381 -3.5826 -1.9876 0.9712
-5.7678 -4.0046 -1.9878 0.9712
-5.6216 -4.2083 -1.9879 0.9712
-5.3078 -4.5992 -1.9882 0.9712
-5.1406 -4.7861 -1.9884 0.9712
-4.9669 -4.9669 -1.9885 0.9712
-4.6006 -5.3094 -1.9888 0.9712
-4.4086 -5.4707 -1.9890 0.9712
-4.2109 -5.6251 -1.9892 0.9712
-3.5864 -6.0446 -1.9897 0.9712
-3.3687 -6.1694 -1.9899 0.9712
-2.9206 -6.3952 -1.9903 0.9712
-2.4574 -6.5886 -1.9907 0.9712
-1.9815 -6.7485 -1.9911 0.9712
-0.7522 -6.9967 -1.9921 0.9712
1.2505 -6.9311 -1.9938 0.9711
1.4972 -6.8827 -1.9940 0.9711
1.7421 -6.8256 -1.9942 0.9711
2.4625 -6.6023 -1.9948 0.9711
2.6969 -6.5108 -1.9950 0.9711
2.9278 -6.4110 -1.9952 0.9711
3.3783 -6.1869 -1.9956 0.9711
3.5973 -6.0630 -1.9958 0.9711
4.2259 -5.6451 -1.9963 0.9711
4.6186 -5.3301 -1.9966 0.9711
4.8063 -5.1623 -1.9967 0.9711
5.4935 -4.4270 -1.9973 0.9711
5.7960 -4.0243 -1.9975 0.9711
5.9363 -3.8150 -1.9976 0.9711
6.0690 -3.6009 -1.9978 0.9711
6.1940 -3.3822 -1.9978 0.9711
6.4200 -2.9319 -1.9980 0.9711
6.6133 -2.4666 -1.9982 0.9711
6.6973 -2.2287 -1.9982 0.9711
6.7728 -1.9887 -1.9983 0.9711
6.8396 -1.7457 -1.9983 0.9711
6.8977 -1.5005 -1.9984 0.9711
6.9470 -1.2534 -1.9984 0.9711
6.9874 -1.0046 -1.9984 0.9711
-6.4563 -0.2306 -1.9871 0.9733
-6.4236 -0.6906 -1.9871 0.9733
-6.3581 -1.1471 -1.9872 0.9733
-6.3133 -1.3734 -1.9873 0.9733
-6.2604 -1.5979 -1.9873 0.9733
-6.1996 -1.8204 -1.9874 0.9733
-6.1309 -2.0405 -1.9874 0.9733
-5.9701 -2.4729 -1.9876 0.9733
-5.8783 -2.6845 -1.9877 0.9733
-5.7790 -2.8928 -1.9878 0.9733
-5.5585 -3.2980 -1.9880 0.9733
-5.3097 -3.6866 -1.9882 0.9733
-5.0338 -4.0565 -1.9884 0.9733
-4.8861 -4.2338 -1.9886 0.9733
-4.7322 -4.4058 -1.9887 0.9733
-4.2350 -4.8875 -1.9891 0.9733
-4.0582 -5.0359 -1.9893 0.9733
-3.8762 -5.1780 -1.9894 0.9733
-3.6892 -5.3135 -1.9896 0.9733
-3.4975 -5.4422 -1.9898 0.9733
-2.8965 -5.7864 -1.9903 0.9733
-2.2619 -6.0645 -1.9908 0.9733
-2.0442 -6.1420 -1.9910 0.9733
-1.6012 -6.2733 -1.9914 0.9733
-1.3764 -6.3271 -1.9916 0.9733
-1.1498 -6.3728 -1.9918 0.9733
-0.9217 -6.4104 -1.9920 0.9733
-0.6924 -6.4398 -1.9922 0.9733
-0.4621 -6.4611 -1.9924 0.9733
0.0000 -6.4788 -1.9928 0.9733
0.2313 -6.4753 -1.9929 0.9732
0.6928 -6.4436 -1.9933 0.9732
0.9224 -6.4154 -1.9935 0.9732
1.1509 -6.3790 -1.9937 0.9732
1.3780 -6.3344 -1.9939 0.9732
1.8267 -6.2212 -1.9943 0.9732
2.0478 -6.1526 -1.9945 0.9732
2.2663 -6.0761 -1.9946 0.9732
2.4819 -5.9919 -1.9948 0.9732
3.3105 -5.5796 -1.9955 0.9732
3.5078 -5.4583 -1.9957 0.9732
3.7007 -5.3301 -1.9958 0.9732
4.0721 -5.0532 -1.9961 0.9732
4.5899 -4.5899 -1.9965 0.9732
4.7512 -4.4235 -1.9967 0.9732
4.9063 -4.2513 -1.9968 0.9732
5.0552 -4.0738 -1.9969 0.9732
5.6997 -3.1123 -1.9974 0.9732
6.0004 -2.4854 -1.9977 0.9732
6.0855 -2.2698 -1.9977 0.9732
6.1628 -2.0512 -1.9978 0.9732
6.2322 -1.8300 -1.9978 0.9732
6.2937 -1.6064 -1.9979 0.9732
6.3471 -1.3807 -1.9979 0.9732
6.4296 -0.9244 -1.9980 0.9732
6.4917 -0.2319 -1.9980 0.9732
-5.9791 0.0000 -1.9875 0.9751
-5.9753 -0.2134 -1.9875 0.9751
-5.9450 -0.6392 -1.9875 0.9751
-5.9185 -0.8509 -1.9876 0.9751
-5.8844 -1.0617 -1.9876 0.9751
-5.7376 -1.6847 -1.9877 0.9751
-5.6740 -1.8885 -1.9878 0.9751
-5.4403 -2.4845 -1.9880 0.9751
-5.2496 -2.8665 -1.9882 0.9751
-5.1442 -3.0522 -1.9883 0.9751
-4.7892 -3.5852 -1.9886 0.9751
-4.5218 -3.9182 -1.9889 0.9751
-4.3794 -4.0773 -1.9890 0.9751
-4.2313 -4.2313 -1.9891 0.9751
-3.9192 -4.5230 -1.9894 0.9751
-3.7555 -4.6604 -1.9895 0.9751
-3.4140 -4.9171 -1.9898 0.9751
-3.2366 -5.0362 -1.9900 0.9751
-3.0550 -5.1490 -1.9901 0.9751
-2.8695 -5.2551 -1.9903 0.9751
-2.6803 -5.3547 -1.9905 0.9751
-2.2919 -5.5332 -1.9908 0.9751
-1.6877 -5.7479 -1.9913 0.9751
-1.0639 -5.8970 -1.9918 0.9751
-0.8529 -5.9317 -1.9920 0.9751
-0.6407 -5.9589 -1.9922 0.9751
0.0000 -5.9949 -1.9927 0.9750
0.2140 -5.9916 -1.9929 0.9750
0.8535 -5.9360 -1.9934 0.9750
1.8947 -5.6926 -1.9943 0.9750
2.0968 -5.6218 -1.9945 0.9750
2.2963 -5.5439 -1.9946 0.9750
2.4930 -5.4588 -1.9948 0.9750
2.6864 -5.3668 -1.9950 0.9750
2.8765 -5.2679 -1.9951 0.9750
3.0629 -5.1623 -1.9953 0.9750
3.4239 -4.9314 -1.9956 0.9750
3.7675 -4.6752 -1.9959 0.9750
4.0920 -4.3951 -1.9961 0.9750
4.3956 -4.0925 -1.9964 0.9750
4.5391 -3.9332 -1.9965 0.9750
4.8087 -3.5997 -1.9967 0.9750
4.9343 -3.4260 -1.9968 0.9750
5.0537 -3.2478 -1.9969 0.9750
5.1667 -3.0655 -1.9970 0.9750
5.2730 -2.8793 -1.9971 0.9750
5.3726 -2.6894 -1.9971 0.9750
5.4654 -2.4959 -1.9972 0.9750
5.8225 -1.4861 -1.9975 0.9750
5.8719 -1.2774 -1.9975 0.9750
5.9482 -0.8552 -1.9975 0.9750
5.9750 -0.6424 -1.9976 0.9750
5.9941 -0.4287 -1.9976 0.9750
-5.5270 -0.5942 -1.9879 0.9767
-5.4707 -0.9870 -1.9879 0.9767
-5.3342 -1.5663 -1.9881 0.9767
-4.9722 -2.4889 -1.9884 0.9767
-4.6783 -3.0066 -1.9887 0.9767
-4.5682 -3.1718 -1.9888 0.9767
-3.9336 -3.9336 -1.9893 0.9766
-3.6434 -4.2047 -1.9896 0.9766
-2.4916 -4.9776 -1.9906 0.9766
-2.3126 -5.0638 -1.9908 0.9766
-1.7584 -5.2833 -1.9912 0.9766
-1.5689 -5.3431 -1.9914 0.9766
-0.0000 -5.5724 -1.9927 0.9766
0.3976 -5.5591 -1.9931 0.9766
1.3789 -5.4024 -1.9939 0.9766
1.7610 -5.2911 -1.9942 0.9766
1.9489 -5.2253 -1.9943 0.9766
2.3171 -5.0737 -1.9946 0.9766
2.6735 -4.8962 -1.9949 0.9766
2.8468 -4.7980 -1.9951 0.9766
3.1823 -4.5833 -1.9954 0.9766
3.5016 -4.3452 -1.9956 0.9766
3.6547 -4.2177 -1.9957 0.9766
3.9467 -3.9467 -1.9960 0.9766
4.0853 -3.8035 -1.9961 0.9766
4.3467 -3.5028 -1.9963 0.9766
4.5859 -3.1841 -1.9965 0.9766
4.9006 -2.6759 -1.9967 0.9766
4.9932 -2.4994 -1.9968 0.9766
5.2987 -1.7636 -1.9970 0.9766
5.3583 -1.5734 -1.9971 0.9766
5.4112 -1.3811 -1.9971 0.9766
5.4571 -1.1871 -1.9971 0.9766
5.4961 -0.9916 -1.9972 0.9766
5.5529 -0.5970 -1.9972 0.9766
5.5814 -0.1993 -1.9972 0.9766
-5.1584 -0.5546 -1.9882 0.9780
-5.1059 -0.9212 -1.9882 0.9780
-5.0698 -1.1029 -1.9883 0.9780
-5.0273 -1.2832 -1.9883 0.9780
-4.9785 -1.4618 -1.9884 0.9780
-4.9232 -1.6386 -1.9884 0.9780
-4.8618 -1.8133 -1.9885 0.9780
-4.7941 -1.9858 -1.9886 0.9780
-4.7203 -2.1557 -1.9886 0.9780
-4.6405 -2.3229 -1.9887 0.9780
-4.5549 -2.4871 -1.9888 0.9780
-4.3662 -2.8060 -1.9889 0.9780
-4.2635 -2.9602 -1.9890 0.9780
-4.1553 -3.1106 -1.9891 0.9780
-4.0418 -3.2571 -1.9892 0.9780
-3.6711 -3.6711 -1.9896 0.9780
-3.4003 -3.9241 -1.9898 0.9780
-3.2582 -4.0432 -1.9899 0.9780
-3.1120 -4.1572 -1.9900 0.9780
-2.9619 -4.2659 -1.9902 0.9780
-2.8079 -4.3692 -1.9903 0.9780
-2.6504 -4.4669 -1.9904 0.9780
-2.3253 -4.6453 -1.9907 0.9780
-1.8158 -4.8683 -1.9912 0.9780
-1.2853 -5.0356 -1.9916 0.9780
-1.1048 -5.0787 -1.9918 0.9780
-0.9229 -5.1153 -1.9919 0.9780
-0.7398 -5.1454 -1.9921 0.9780
-0.5557 -5.1689 -1.9922 0.9780
-0.3709 -5.1859 -1.9924 0.9780
-0.1856 -5.1962 -1.9925 0.9780
-0.0000 -5.1999 -1.9927 0.9780
0.1856 -5.1970 -1.9929 0.9780
1.1058 -5.0834 -1.9936 0.9780
1.4659 -4.9923 -1.9939 0.9780
1.6433 -4.9372 -1.9941 0.9780
1.8186 -4.8758 -1.9942 0.9780
1.9916 -4.8081 -1.9944 0.9780
2.1621 -4.7343 -1.9945 0.9780
2.3298 -4.6544 -1.9946 0.9780
2.4946 -4.5686 -1.9948 0.9779
2.6563 -4.4770 -1.9949 0.9779
2.8146 -4.3796 -1.9950 0.9779
3.1202 -4.1682 -1.9953 0.9779
3.6825 -3.6825 -1.9957 0.9779
3.8118 -3.5489 -1.9958 0.9779
3.9362 -3.4108 -1.9959 0.9779
4.3824 -2.8164 -1.9963 0.9779
4.5724 -2.4967 -1.9964 0.9779
4.6588 -2.3320 -1.9965 0.9779
4.7392 -2.1643 -1.9966 0.9779
4.8136 -1.9938 -1.9966 0.9779
4.8818 -1.8208 -1.9967 0.9779
4.9995 -1.4680 -1.9968 0.9779
5.1280 -0.9252 -1.9969 0.9779
5.2075 -0.1860 -1.9969 0.9779
-4.8584 0.0000 -1.9884 0.9792
-4.8553 -0.1734 -1.9884 0.9792
-4.8307 -0.5194 -1.9885 0.9792
-4.8091 -0.6914 -1.9885 0.9792
-4.7079 -1.2016 -1.9886 0.9792
-4.6621 -1.3689 -1.9886 0.9792
-4.6104 -1.5345 -1.9887 0.9792
-4.4894 -1.8596 -1.9888 0.9792
-4.3456 -2.1753 -1.9889 0.9792
-4.2654 -2.3291 -1.9890 0.9792
-3.9925 -2.7720 -1.9893 0.9792
-3.6738 -3.1834 -1.9895 0.9792
-3.3130 -3.5584 -1.9899 0.9792
-3.1841 -3.6746 -1.9900 0.9792
-3.0510 -3.7861 -1.9901 0.9792
-2.4818 -4.1828 -1.9906 0.9792
-2.0208 -4.4250 -1.9910 0.9792
-1.8617 -4.4947 -1.9911 0.9792
-1.7003 -4.5585 -1.9913 0.9792
-1.5366 -4.6167 -1.9914 0.9792
-1.0345 -4.7555 -1.9918 0.9792
-0.6927 -4.8179 -1.9921 0.9792
-0.5203 -4.8399 -1.9923 0.9792
-0.1738 -4.8654 -1.9925 0.9792
-0.0000 -4.8688 -1.9927 0.9792
0.3474 -4.8571 -1.9930 0.9792
0.8648 -4.7932 -1.9934 0.9792
1.3725 -4.6743 -1.9938 0.9792
1.5386 -4.6227 -1.9940 0.9792
1.7027 -4.5651 -1.9941 0.9792
1.8647 -4.5017 -1.9942 0.9792
2.3357 -4.2774 -1.9946 0.9792
2.4870 -4.1916 -1.9948 0.9792
2.6352 -4.1004 -1.9949 0.9792
3.0589 -3.7959 -1.9952 0.9792
3.1926 -3.6845 -1.9953 0.9791
3.3223 -3.5684 -1.9954 0.9791
3.4477 -3.4477 -1.9955 0.9791
3.5687 -3.3226 -1.9956 0.9791
3.6852 -3.1933 -1.9957 0.9791
3.7970 -3.0598 -1.9958 0.9791
3.9040 -2.9225 -1.9959 0.9791
4.2808 -2.3375 -1.9962 0.9791
4.5704 -1.7047 -1.9964 0.9791
4.6805 -1.3743 -1.9965 0.9791
4.7267 -1.2064 -1.9965 0.9791
4.8505 -0.5215 -1.9966 0.9791
4.8660 -0.3480 -1.9966 0.9791
4.8753 -0.1741 -1.9966 0.9791
-1.4601 0.0000 -0.6363 0.9936
-1.4359 -0.1544 -0.6294 0.9937
-1.3955 -0.2518 -0.6180 0.9938
-1.3400 -0.3420 -0.6027 0.9940
-1.4401 -0.4793 -0.6615 0.9934
-1.5118 -0.5639 -0.7032 0.9930
-4.2165 -1.7465 -1.9890 0.9803
-4.1516 -1.8960 -1.9891 0.9803
-4.0814 -2.0430 -1.9892 0.9803
-4.0060 -2.1875 -1.9892 0.9803
-3.9255 -2.3291 -1.9893 0.9803
-3.7497 -2.6035 -1.9895 0.9803
-3.4504 -2.9898 -1.9897 0.9803
-3.3416 -3.1112 -1.9898 0.9803
-3.2286 -3.2286 -1.9899 0.9803
-2.7369 -3.6560 -1.9903 0.9803
-2.4694 -3.8424 -1.9906 0.9803
-2.3308 -3.9283 -1.9907 0.9803
-2.0449 -4.0851 -1.9909 0.9803
-1.7484 -4.2211 -1.9912 0.9803
-1.5968 -4.2811 -1.9913 0.9803
-1.4430 -4.3356 -1.9915 0.9803
-1.1302 -4.4281 -1.9917 0.9803
-0.9715 -4.4659 -1.9919 0.9803
-0.8115 -4.4981 -1.9920 0.9803
-0.6505 -4.5245 -1.9921 0.9803
-0.3261 -4.5600 -1.9924 0.9802
0.0000 -4.5723 -1.9927 0.9802
0.1632 -4.5697 -1.9928 0.9802
0.3262 -4.5613 -1.9930 0.9802
0.4889 -4.5470 -1.9931 0.9802
1.2889 -4.3894 -1.9938 0.9802
1.4448 -4.3409 -1.9939 0.9802
1.5989 -4.2869 -1.9940 0.9802
1.9009 -4.1624 -1.9943 0.9802
2.0484 -4.0922 -1.9944 0.9802
2.1933 -4.0167 -1.9945 0.9802
2.4745 -3.8504 -1.9947 0.9802
2.7432 -3.6645 -1.9950 0.9802
2.8724 -3.5644 -1.9951 0.9802
3.4605 -2.9985 -1.9955 0.9802
3.5654 -2.8732 -1.9956 0.9802
3.6658 -2.7442 -1.9957 0.9802
3.8526 -2.4759 -1.9958 0.9802
3.9386 -2.3369 -1.9959 0.9802
4.1662 -1.9026 -1.9961 0.9802
4.2316 -1.7528 -1.9961 0.9802
4.2915 -1.6007 -1.9962 0.9802
4.3460 -1.4465 -1.9962 0.9802
4.3949 -1.2905 -1.9963 0.9802
4.4383 -1.1328 -1.9963 0.9802
4.5079 -0.8133 -1.9963 0.9802
4.5341 -0.6519 -1.9963 0.9802
4.5691 -0.3268 -1.9964 0.9802
4.5778 -0.1635 -1.9964 0.9802
-1.2447 0.0000 -0.5761 0.9945
-1.2362 -0.0884 -0.5737 0.9946
-1.2124 -0.1743 -0.5670 0.9946
-1.1575 -0.2954 -0.5529 0.9947
-1.1330 -0.3327 -0.5466 0.9948
-1.1536 -0.3840 -0.5628 0.9947
-1.2017 -0.4482 -0.5937 0.9944
-3.8431 -1.9237 -1.9893 0.9812
-3.7721 -2.0597 -1.9894 0.9812
-3.5307 -2.4514 -1.9896 0.9812
-3.4411 -2.5760 -1.9897 0.9812
-2.8157 -3.2495 -1.9903 0.9812
-2.6981 -3.3481 -1.9904 0.9812
-2.5770 -3.4424 -1.9905 0.9812
-2.4526 -3.5324 -1.9906 0.9812
-2.0613 -3.7750 -1.9909 0.9812
-1.7870 -3.9129 -1.9912 0.9812
-1.3587 -4.0822 -1.9915 0.9812
-1.0641 -4.1693 -1.9918 0.9812
-0.9147 -4.2049 -1.9919 0.9812
-0.7641 -4.2351 -1.9920 0.9812
-0.1536 -4.3019 -1.9925 0.9812
0.0000 -4.3049 -1.9927 0.9812
0.1537 -4.3024 -1.9928 0.9812
0.3071 -4.2945 -1.9929 0.9812
0.4603 -4.2811 -1.9931 0.9812
0.9154 -4.2081 -1.9934 0.9812
1.0651 -4.1730 -1.9936 0.9812
1.3603 -4.0869 -1.9938 0.9812
1.7897 -3.9188 -1.9942 0.9812
2.1987 -3.7057 -1.9945 0.9812
2.3297 -3.6250 -1.9946 0.9812
2.4577 -3.5397 -1.9947 0.9812
2.8224 -3.2572 -1.9950 0.9812
3.1548 -2.9373 -1.9953 0.9812
3.2578 -2.8229 -1.9954 0.9812
3.4512 -2.5835 -1.9955 0.9812
3.6269 -2.3309 -1.9956 0.9812
3.7079 -2.2000 -1.9957 0.9812
3.8556 -1.9300 -1.9958 0.9812
3.9222 -1.7912 -1.9959 0.9812
3.9837 -1.6501 -1.9959 0.9812
4.0914 -1.3617 -1.9960 0.9812
4.1375 -1.2149 -1.9960 0.9812
4.2137 -0.9166 -1.9961 0.9812
4.2438 -0.7657 -1.9961 0.9812
4.3014 -0.3076 -1.9961 0.9812
4.3096 -0.1539 -1.9961 0.9812
-1.0817 0.0000 -0.5306 0.9952
-1.0803 -0.0386 -0.5302 0.9952
-1.0705 -0.1151 -0.5281 0.9952
-1.0422 -0.2267 -0.5232 0.9953
-1.0307 -0.2631 -0.5218 0.9953
-1.0444 -0.4770 -0.5632 0.9949
-1.0588 -0.5300 -0.5808 0.9947
-3.5599 -1.9439 -1.9896 0.9821
-3.4884 -2.0697 -1.9897 0.9821
-3.2475 -2.4310 -1.9899 0.9821
-3.1588 -2.5455 -1.9899 0.9821
-2.9694 -2.7646 -1.9901 0.9821
-2.5462 -3.1596 -1.9905 0.9821
-2.3145 -3.3336 -1.9907 0.9821
-2.0710 -3.4906 -1.9909 0.9821
-1.9452 -3.5625 -1.9910 0.9821
-1.6863 -3.6926 -1.9912 0.9821
-1.2822 -3.8523 -1.9916 0.9821
-1.1439 -3.8959 -1.9917 0.9821
-1.0042 -3.9344 -1.9918 0.9821
-0.8632 -3.9680 -1.9919 0.9821
-0.5780 -4.0200 -1.9922 0.9821
-0.1450 -4.0595 -1.9925 0.9821
0.1450 -4.0600 -1.9928 0.9821
0.4343 -4.0398 -1.9930 0.9821
0.5783 -4.0220 -1.9931 0.9821
0.7215 -3.9990 -1.9933 0.9821
0.8638 -3.9709 -1.9934 0.9821
1.2836 -3.8565 -1.9937 0.9821
1.4205 -3.8084 -1.9938 0.9821
1.5556 -3.7555 -1.9940 0.9821
1.6887 -3.6978 -1.9941 0.9821
1.8197 -3.6354 -1.9942 0.9821
1.9484 -3.5683 -1.9943 0.9820
2.0747 -3.4967 -1.9944 0.9820
2.3191 -3.3401 -1.9946 0.9820
2.4369 -3.2554 -1.9947 0.9820
2.5517 -3.1665 -1.9948 0.9820
2.9768 -2.7716 -1.9951 0.9820
3.1672 -2.5523 -1.9953 0.9820
3.3415 -2.3200 -1.9954 0.9820
3.4987 -2.0759 -1.9955 0.9820
3.6381 -1.8211 -1.9956 0.9820
3.8121 -1.4219 -1.9958 0.9820
3.9425 -1.0063 -1.9959 0.9820
4.0457 -0.4350 -1.9959 0.9820
4.0586 -0.2903 -1.9959 0.9820
-0.9893 -0.0353 -0.5135 0.9955
-0.9838 -0.1058 -0.5133 0.9956
-0.9628 -0.2095 -0.5112 0.9956
-0.9404 -0.2761 -0.5085 0.9956
-0.9268 -0.3085 -0.5067 0.9956
-0.9326 -0.4259 -0.5319 0.9954
-0.9486 -0.5180 -0.5607 0.9951
-3.2268 -2.0737 -1.9899 0.9829
-3.0708 -2.2988 -1.9900 0.9829
-2.8078 -2.6142 -1.9902 0.9829
-2.5126 -2.8997 -1.9905 0.9829
-2.2996 -3.0719 -1.9907 0.9829
-2.1886 -3.1521 -1.9908 0.9829
-1.9583 -3.3006 -1.9910 0.9829
-1.5945 -3.4916 -1.9913 0.9829
-1.4690 -3.5464 -1.9914 0.9829
-1.2124 -3.6426 -1.9916 0.9828
-0.9495 -3.7202 -1.9919 0.9828
-0.8162 -3.7520 -1.9920 0.9828
-0.5465 -3.8011 -1.9922 0.9828
-0.1371 -3.8384 -1.9925 0.9828
-0.0000 -3.8411 -1.9927 0.9828
0.2740 -3.8317 -1.9929 0.9828
0.5468 -3.8028 -1.9931 0.9828
0.8168 -3.7546 -1.9933 0.9828
1.0826 -3.6871 -1.9936 0.9828
1.2136 -3.6463 -1.9937 0.9828
1.4708 -3.5508 -1.9939 0.9828
1.5967 -3.4963 -1.9940 0.9828
1.8422 -3.3738 -1.9942 0.9828
2.1926 -3.1580 -1.9945 0.9828
2.3041 -3.0779 -1.9946 0.9828
2.7191 -2.7191 -1.9949 0.9828
2.8145 -2.6204 -1.9950 0.9828
2.9064 -2.5184 -1.9950 0.9828
2.9945 -2.4131 -1.9951 0.9828
3.0788 -2.3048 -1.9952 0.9828
3.2356 -2.0794 -1.9953 0.9828
3.3078 -1.9626 -1.9954 0.9828
3.4396 -1.7218 -1.9955 0.9828
3.4989 -1.5979 -1.9955 0.9828
3.5538 -1.4721 -1.9956 0.9828
3.6042 -1.3443 -1.9956 0.9828
3.6910 -1.0838 -1.9957 0.9828
3.7590 -0.8177 -1.9957 0.9828
3.8078 -0.5475 -1.9957 0.9828
3.8250 -0.4112 -1.9957 0.9828
-0.9179 -0.0328 -0.5031 0.9958
-0.9077 -0.1305 -0.5022 0.9958
-0.9011 -0.1626 -0.5015 0.9958
-0.8465 -0.3157 -0.4948 0.9959
-0.8506 -0.3884 -0.5122 0.9957
-0.8507 -0.4645 -0.5309 0.9956
-3.0566 -1.9644 -1.9900 0.9836
-2.9846 -2.0723 -1.9901 0.9836
-2.7463 -2.3797 -1.9903 0.9836
-2.6597 -2.4763 -1.9904 0.9836
-2.5697 -2.5697 -1.9904 0.9836
-2.0731 -2.9858 -1.9909 0.9836
-1.6274 -3.2511 -1.9913 0.9836
-1.5104 -3.3073 -1.9914 0.9836
-1.2707 -3.4069 -1.9916 0.9836
-1.1484 -3.4503 -1.9917 0.9836
-1.0246 -3.4893 -1.9918 0.9836
-0.7731 -3.5539 -1.9920 0.9835
-0.5177 -3.6004 -1.9922 0.9835
-0.3888 -3.6167 -1.9923 0.9835
-0.2595 -3.6285 -1.9924 0.9835
-0.0000 -3.6382 -1.9926 0.9835
0.2596 -3.6293 -1.9929 0.9835
0.5179 -3.6019 -1.9931 0.9835
0.6461 -3.5813 -1.9932 0.9835
0.7736 -3.5562 -1.9933 0.9835
1.0254 -3.4923 -1.9935 0.9835
1.2721 -3.4106 -1.9937 0.9835
1.3931 -3.3632 -1.9938 0.9835
1.5123 -3.3115 -1.9939 0.9835
1.6296 -3.2556 -1.9940 0.9835
1.9686 -3.0631 -1.9943 0.9835
2.1823 -2.9152 -1.9945 0.9835
2.4817 -2.6655 -1.9947 0.9835
2.5753 -2.5753 -1.9948 0.9835
2.6657 -2.4819 -1.9948 0.9835
2.7527 -2.3852 -1.9949 0.9835
2.8362 -2.2855 -1.9950 0.9835
2.9160 -2.1829 -1.9950 0.9835
3.1329 -1.8589 -1.9952 0.9835
3.1974 -1.7459 -1.9953 0.9835
3.2577 -1.6307 -1.9953 0.9835
3.3139 -1.5134 -1.9954 0.9835
3.5302 -0.9010 -1.9955 0.9835
3.5602 -0.7745 -1.9955 0.9835
3.5856 -0.6469 -1.9956 0.9835
3.6064 -0.5185 -1.9956 0.9835
3.6227 -0.3895 -1.9956 0.9835
3.6343 -0.2599 -1.9956 0.9835
-0.8531 -0.0610 -0.4938 0.9961
-0.8499 -0.0914 -0.4935 0.9961
-0.8393 -0.1514 -0.4924 0.9961
-0.8318 -0.1810 -0.4915 0.9961
-0.8230 -0.2101 -0.4904 0.9961
-0.8014 -0.2667 -0.4876 0.9961
-0.7887 -0.2942 -0.4860 0.9961
-0.7796 -0.3229 -0.4872 0.9961
-0.7750 -0.4599 -0.5203 0.9958
-0.7696 -0.4946 -0.5282 0.9958
-2.6054 -2.2576 -1.9904 0.9842
-2.5233 -2.3493 -1.9905 0.9842
-2.3494 -2.5235 -1.9906 0.9842
-2.2580 -2.6058 -1.9907 0.9842
-2.1636 -2.6849 -1.9908 0.9842
-1.9667 -2.8326 -1.9910 0.9842
-1.7598 -2.9660 -1.9911 0.9842
-1.6529 -3.0270 -1.9912 0.9842
-1.5439 -3.0842 -1.9913 0.9842
-1.4329 -3.1375 -1.9914 0.9842
-1.3200 -3.1868 -1.9915 0.9842
-1.2055 -3.2321 -1.9916 0.9842
-0.9720 -3.3102 -1.9918 0.9842
-0.8532 -3.3429 -1.9919 0.9842
-0.7334 -3.3714 -1.9920 0.9842
-0.6126 -3.3956 -1.9921 0.9842
0.2462 -3.4429 -1.9928 0.9842
0.3690 -3.4321 -1.9929 0.9842
0.4913 -3.4169 -1.9931 0.9842
0.7339 -3.3735 -1.9933 0.9842
0.8538 -3.3454 -1.9934 0.9842
0.9728 -3.3129 -1.9935 0.9842
1.0904 -3.2762 -1.9935 0.9842
1.2067 -3.2354 -1.9936 0.9842
1.3215 -3.1904 -1.9937 0.9842
1.5459 -3.0883 -1.9939 0.9842
1.6552 -3.0313 -1.9940 0.9842
1.7624 -2.9704 -1.9941 0.9842
1.8674 -2.9057 -1.9942 0.9842
1.9700 -2.8373 -1.9943 0.9842
2.0701 -2.7653 -1.9944 0.9842
2.4429 -2.4429 -1.9947 0.9842
2.6112 -2.2626 -1.9948 0.9842
2.6904 -2.1680 -1.9949 0.9842
2.7661 -2.0707 -1.9949 0.9842
2.8383 -1.9707 -1.9950 0.9842
2.9718 -1.7633 -1.9951 0.9842
3.0330 -1.6561 -1.9951 0.9842
3.0902 -1.5469 -1.9952 0.9842
3.1928 -1.3225 -1.9952 0.9842
3.2791 -1.0914 -1.9953 0.9842
3.3771 -0.7346 -1.9954 0.9842
3.4210 -0.4919 -1.9954 0.9842
3.4474 -0.2466 -1.9954 0.9842
3.4540 -0.1234 -1.9954 0.9842
