ply
format ascii 1.0
element vertex 738
property float32 x
property float32 y
property float32 z
property float32 I
end_header
-9.2164 0.0000 -1.9482 0.9630
-9.2106 -0.3290 -1.9482 0.9630
-9.1647 -0.9853 -1.9484 0.9630
-9.0731 -1.6369 -1.9488 0.9630
-8.9361 -2.2808 -1.9495 0.9630
-8.8508 -2.5988 -1.9499 0.9630
-8.6470 -3.2252 -1.9508 0.9630
-8.5288 -3.5327 -1.9513 0.9630
-8.3998 -3.8361 -1.9519 0.9630
-8.2603 -4.1348 -1.9526 0.9629
-7.7798 -4.9998 -1.9548 0.9629
-7.5996 -5.2765 -1.9556 0.9629
-7.4098 -5.5469 -1.9565 0.9629
-7.2105 -5.8105 -1.9574 0.9628
-6.7844 -6.3165 -1.9594 0.9628
-6.5581 -6.5581 -1.9605 0.9628
-6.3233 -6.7917 -1.9615 0.9628
-6.0804 -7.0171 -1.9627 0.9628
-5.8295 -7.2339 -1.9638 0.9627
-5.5709 -7.4419 -1.9650 0.9627
-4.7526 -8.0101 -1.9688 0.9626
-4.1747 -8.3400 -1.9714 0.9626
-3.8771 -8.4896 -1.9728 0.9626
-2.9537 -8.8745 -1.9771 0.9625
-1.9926 -9.1599 -1.9815 0.9624
-1.6657 -9.2322 -1.9830 0.9624
-0.6708 -9.3790 -1.9876 0.9623
-0.3359 -9.4042 -1.9891 0.9623
0.3364 -9.4189 -1.9922 0.9622
0.6729 -9.4082 -1.9938 0.9622
1.3444 -9.3507 -1.9969 0.9621
1.6786 -9.3039 -1.9984 0.9621
2.9947 -8.9975 -2.0045 0.9620
3.6342 -8.7738 -2.0074 0.9619
3.9479 -8.6448 -2.0089 0.9619
4.2570 -8.5043 -2.0103 0.9619
5.4386 -7.8331 -2.0157 0.9618
5.7184 -7.6388 -2.0170 0.9617
5.9911 -7.4345 -2.0183 0.9617
6.2564 -7.2203 -2.0195 0.9617
7.0043 -6.5212 -2.0229 0.9616
7.4594 -6.0111 -2.0250 0.9616
7.6729 -5.7438 -2.0260 0.9616
8.2538 -4.8972 -2.0287 0.9615
8.5886 -4.2992 -2.0302 0.9615
8.8793 -3.6779 -2.0315 0.9615
9.0075 -3.3596 -2.0321 0.9615
9.2288 -2.7098 -2.0331 0.9614
9.4708 -1.7087 -2.0343 0.9614
9.5707 -1.0289 -2.0347 0.9614
9.6020 -0.6867 -2.0348 0.9614
-8.3070 0.0000 -1.9523 0.9664
-8.3018 -0.2965 -1.9524 0.9664
-8.2241 -1.1825 -1.9527 0.9664
-8.1776 -1.4754 -1.9530 0.9664
-8.1208 -1.7666 -1.9532 0.9664
-8.0539 -2.0556 -1.9535 0.9664
-7.9768 -2.3422 -1.9539 0.9664
-7.8898 -2.6260 -1.9543 0.9664
-7.7928 -2.9065 -1.9547 0.9664
-7.6860 -3.1837 -1.9552 0.9664
-7.5696 -3.4569 -1.9558 0.9664
-7.0098 -4.5049 -1.9584 0.9663
-6.8472 -4.7541 -1.9591 0.9663
-6.6758 -4.9975 -1.9599 0.9663
-6.3078 -5.4657 -1.9616 0.9663
-6.1115 -5.6900 -1.9625 0.9663
-5.9074 -5.9073 -1.9634 0.9663
-5.4764 -6.3201 -1.9654 0.9662
-4.7773 -6.8806 -1.9687 0.9662
-4.5313 -7.0508 -1.9698 0.9661
-4.0215 -7.3648 -1.9721 0.9661
-3.4902 -7.6425 -1.9746 0.9661
-3.2172 -7.7671 -1.9759 0.9660
-2.3732 -8.0824 -1.9797 0.9660
-1.7930 -8.2422 -1.9824 0.9659
1.2088 -8.4074 -1.9962 0.9657
1.5092 -8.3646 -1.9976 0.9657
2.1049 -8.2470 -2.0004 0.9656
2.9804 -7.9908 -2.0044 0.9656
3.5475 -7.7679 -2.0070 0.9655
4.0978 -7.5045 -2.0095 0.9655
4.3657 -7.3580 -2.0108 0.9655
4.6283 -7.2018 -2.0120 0.9654
4.8853 -7.0361 -2.0132 0.9654
5.3809 -6.6773 -2.0155 0.9654
5.6188 -6.4845 -2.0165 0.9654
6.2894 -5.8556 -2.0196 0.9653
6.4975 -5.6301 -2.0206 0.9653
7.0713 -4.9097 -2.0232 0.9652
7.2449 -4.6560 -2.0240 0.9652
7.4092 -4.3961 -2.0248 0.9652
7.8444 -3.5824 -2.0268 0.9652
7.9695 -3.3011 -2.0273 0.9652
8.0844 -3.0153 -2.0279 0.9652
8.1888 -2.7255 -2.0284 0.9652
8.2826 -2.4320 -2.0288 0.9652
8.3657 -2.1352 -2.0292 0.9651
8.4380 -1.8356 -2.0295 0.9651
8.5496 -1.2292 -2.0300 0.9651
8.5887 -0.9234 -2.0302 0.9651
8.6168 -0.6163 -2.0303 0.9651
-7.5538 0.0000 -1.9558 0.9693
-7.5113 -0.8075 -1.9560 0.9693
-7.4783 -1.0752 -1.9562 0.9693
-7.2530 -2.1297 -1.9572 0.9692
-7.1737 -2.3876 -1.9576 0.9692
-6.8821 -3.1429 -1.9589 0.9692
-6.3724 -4.0953 -1.9613 0.9692
-6.2244 -4.3217 -1.9620 0.9692
-6.0684 -4.5427 -1.9627 0.9692
-5.9047 -4.7583 -1.9634 0.9692
-5.3689 -5.3689 -1.9659 0.9691
-4.3408 -6.2519 -1.9707 0.9690
-3.6535 -6.6909 -1.9738 0.9690
-3.4143 -6.8208 -1.9749 0.9690
-3.1704 -6.9423 -1.9761 0.9690
-2.1553 -7.3402 -1.9807 0.9689
-1.3608 -7.5424 -1.9844 0.9688
-1.0914 -7.5909 -1.9856 0.9688
-0.5478 -7.6591 -1.9881 0.9688
-0.2742 -7.6786 -1.9894 0.9688
0.2746 -7.6884 -1.9919 0.9687
0.8234 -7.6589 -1.9945 0.9687
1.0970 -7.6295 -1.9957 0.9687
1.6405 -7.5412 -1.9982 0.9686
2.1770 -7.4141 -2.0007 0.9686
3.2177 -7.0457 -2.0055 0.9685
3.9591 -6.6727 -2.0089 0.9684
4.1970 -6.5307 -2.0100 0.9684
4.4298 -6.3801 -2.0111 0.9684
4.6571 -6.2212 -2.0121 0.9684
4.8787 -6.0541 -2.0131 0.9684
5.0942 -5.8790 -2.0141 0.9684
5.5058 -5.5057 -2.0160 0.9683
5.8897 -5.1034 -2.0178 0.9683
6.0706 -4.8919 -2.0186 0.9683
6.2438 -4.6740 -2.0194 0.9683
6.5661 -4.2198 -2.0209 0.9683
6.7148 -3.9841 -2.0216 0.9683
6.8549 -3.7430 -2.0222 0.9682
7.2218 -2.9913 -2.0239 0.9682
7.3256 -2.7323 -2.0244 0.9682
7.5049 -2.2036 -2.0252 0.9682
7.6455 -1.6631 -2.0258 0.9682
7.7464 -1.1137 -2.0263 0.9682
-6.9191 0.0000 -1.9587 0.9716
-6.9147 -0.2470 -1.9588 0.9716
-6.8801 -0.7397 -1.9589 0.9716
-6.8109 -1.2288 -1.9592 0.9716
-6.7634 -1.4713 -1.9595 0.9716
-6.7075 -1.7120 -1.9597 0.9716
-6.6431 -1.9506 -1.9600 0.9716
-6.5705 -2.1868 -1.9604 0.9716
-6.4894 -2.4204 -1.9607 0.9716
-6.4002 -2.6511 -1.9611 0.9716
-6.1976 -3.1025 -1.9621 0.9716
-6.0847 -3.3225 -1.9626 0.9716
-5.8356 -3.7503 -1.9638 0.9716
-5.5568 -4.1598 -1.9650 0.9716
-4.9157 -4.9157 -1.9680 0.9715
-4.7390 -5.0901 -1.9688 0.9715
-4.5563 -5.2582 -1.9697 0.9715
-4.3676 -5.4199 -1.9705 0.9715
-4.1733 -5.5749 -1.9714 0.9715
-3.7685 -5.8639 -1.9733 0.9714
-3.5586 -5.9977 -1.9743 0.9714
-3.1248 -6.2426 -1.9763 0.9714
-2.6743 -6.4563 -1.9783 0.9714
-2.4435 -6.5512 -1.9794 0.9714
-2.2093 -6.6379 -1.9805 0.9713
-1.4896 -6.8475 -1.9838 0.9713
-1.2449 -6.9002 -1.9849 0.9713
0.0000 -7.0318 -1.9907 0.9712
0.2511 -7.0314 -1.9918 0.9712
0.7530 -7.0037 -1.9941 0.9711
1.0031 -6.9764 -1.9953 0.9711
1.2521 -6.9402 -1.9964 0.9711
1.4999 -6.8950 -1.9976 0.9711
1.7460 -6.8409 -1.9987 0.9711
2.7078 -6.5373 -2.0031 0.9710
3.1707 -6.3342 -2.0053 0.9710
3.8354 -5.9680 -2.0083 0.9709
4.0480 -5.8302 -2.0093 0.9709
4.2555 -5.6847 -2.0103 0.9709
4.4578 -5.5317 -2.0112 0.9709
5.8543 -4.0647 -2.0176 0.9708
6.1332 -3.6390 -2.0189 0.9708
6.2610 -3.4188 -2.0195 0.9708
6.8539 -2.0125 -2.0222 0.9707
6.9224 -1.7668 -2.0225 0.9707
7.0740 -1.0171 -2.0232 0.9707
7.1064 -0.7640 -2.0234 0.9707
-6.3764 0.0000 -1.9612 0.9737
-6.3404 -0.6817 -1.9614 0.9737
-6.3124 -0.9076 -1.9615 0.9737
-6.2328 -1.3559 -1.9619 0.9737
-6.1812 -1.5776 -1.9621 0.9737
-6.1218 -1.7975 -1.9624 0.9737
-6.0547 -2.0152 -1.9627 0.9736
-5.8080 -2.6524 -1.9639 0.9736
-5.7109 -2.8587 -1.9643 0.9736
-5.6066 -3.0614 -1.9648 0.9736
-5.4952 -3.2604 -1.9653 0.9736
-5.2516 -3.6463 -1.9664 0.9736
-5.1197 -3.8326 -1.9671 0.9736
-4.8365 -4.1908 -1.9684 0.9736
-4.3656 -4.6890 -1.9705 0.9735
-4.0232 -4.9925 -1.9721 0.9735
-3.2774 -5.5238 -1.9756 0.9735
-3.0796 -5.6399 -1.9765 0.9735
-2.8777 -5.7489 -1.9774 0.9735
-2.6720 -5.8508 -1.9783 0.9734
-2.0342 -6.1119 -1.9813 0.9734
-1.8157 -6.1838 -1.9823 0.9734
-1.3714 -6.3040 -1.9843 0.9734
-1.1461 -6.3523 -1.9854 0.9733
-0.9191 -6.3925 -1.9864 0.9733
-0.0000 -6.4720 -1.9907 0.9733
0.2311 -6.4714 -1.9917 0.9733
1.1522 -6.3862 -1.9960 0.9732
1.8311 -6.2362 -1.9991 0.9732
2.2736 -6.0959 -2.0011 0.9731
2.7054 -5.9240 -2.0031 0.9731
2.9165 -5.8265 -2.0041 0.9731
3.1241 -5.7214 -2.0050 0.9731
3.7229 -5.3620 -2.0078 0.9731
3.9137 -5.2280 -2.0087 0.9730
4.7893 -4.4590 -2.0127 0.9730
4.9472 -4.2867 -2.0134 0.9730
5.0988 -4.1089 -2.0141 0.9730
5.3824 -3.7371 -2.0154 0.9730
5.5140 -3.5436 -2.0160 0.9729
5.7560 -3.1430 -2.0172 0.9729
5.8659 -2.9363 -2.0177 0.9729
5.9684 -2.7257 -2.0181 0.9729
6.0632 -2.5114 -2.0186 0.9729
6.2293 -2.0733 -2.0193 0.9729
6.3632 -1.6241 -2.0199 0.9729
6.4179 -1.3961 -2.0202 0.9729
6.4644 -1.1663 -2.0204 0.9729
6.5024 -0.9349 -2.0206 0.9729
6.5533 -0.4687 -2.0208 0.9729
6.5660 -0.2345 -2.0209 0.9729
-5.8918 -0.4214 -1.9635 0.9754
-5.8474 -0.8407 -1.9637 0.9754
-5.8141 -1.0490 -1.9638 0.9754
-5.7735 -1.2559 -1.9640 0.9754
-5.7256 -1.4614 -1.9642 0.9754
-5.6706 -1.6650 -1.9645 0.9754
-5.6083 -1.8666 -1.9648 0.9754
-5.2896 -2.6478 -1.9663 0.9754
-4.8638 -3.3770 -1.9682 0.9753
-4.7415 -3.5494 -1.9688 0.9753
-4.6132 -3.7175 -1.9694 0.9753
-4.4790 -3.8810 -1.9700 0.9753
-4.3390 -4.0397 -1.9707 0.9753
-4.1935 -4.1935 -1.9713 0.9753
-3.7253 -4.6228 -1.9735 0.9753
-3.5593 -4.7546 -1.9743 0.9753
-3.3887 -4.8806 -1.9750 0.9753
-2.8511 -5.2214 -1.9775 0.9752
-2.6641 -5.3222 -1.9784 0.9752
-2.2797 -5.5036 -1.9802 0.9752
-1.8830 -5.6574 -1.9820 0.9752
-1.0607 -5.8790 -1.9858 0.9751
-0.2136 -5.9819 -1.9897 0.9751
0.2139 -5.9878 -1.9916 0.9751
0.4277 -5.9793 -1.9926 0.9750
0.8540 -5.9394 -1.9946 0.9750
1.4861 -5.8226 -1.9975 0.9750
1.6938 -5.7686 -1.9985 0.9750
2.3040 -5.5623 -2.0013 0.9749
2.8892 -5.2912 -2.0040 0.9749
3.2621 -5.0760 -2.0057 0.9749
3.4427 -4.9583 -2.0065 0.9749
3.7906 -4.7039 -2.0081 0.9749
3.9576 -4.5673 -2.0089 0.9748
4.1196 -4.4248 -2.0096 0.9748
4.2765 -4.2765 -2.0103 0.9748
4.4279 -4.1225 -2.0110 0.9748
4.7138 -3.7986 -2.0124 0.9748
4.8479 -3.6291 -2.0130 0.9748
5.5169 -2.5195 -2.0160 0.9748
5.6045 -2.3214 -2.0164 0.9748
5.8234 -1.7099 -2.0174 0.9747
5.8815 -1.5011 -2.0177 0.9747
5.9749 -1.0780 -2.0181 0.9747
6.0570 -0.4332 -2.0185 0.9747
6.0687 -0.2167 -2.0186 0.9747
-5.4922 -0.1961 -1.9653 0.9769
-5.4819 -0.3921 -1.9654 0.9769
-5.4646 -0.5875 -1.9654 0.9769
-5.4405 -0.7822 -1.9656 0.9769
-5.3271 -1.3597 -1.9661 0.9769
-5.2758 -1.5491 -1.9663 0.9769
-5.1533 -1.9221 -1.9669 0.9769
-4.8310 -2.6379 -1.9684 0.9769
-4.5246 -3.1415 -1.9698 0.9769
-4.2913 -3.4581 -1.9709 0.9769
-4.1664 -3.6102 -1.9714 0.9769
-4.0361 -3.7577 -1.9720 0.9768
-3.9006 -3.9006 -1.9727 0.9768
-3.6148 -4.1717 -1.9740 0.9768
-3.4648 -4.2996 -1.9747 0.9768
-3.3104 -4.4221 -1.9754 0.9768
-2.4774 -4.9492 -1.9792 0.9768
-2.3001 -5.0366 -1.9801 0.9768
-2.1198 -5.1176 -1.9809 0.9767
-1.9366 -5.1922 -1.9817 0.9767
-1.7508 -5.2603 -1.9826 0.9767
-1.5626 -5.3218 -1.9835 0.9767
-1.3723 -5.3765 -1.9843 0.9767
-0.9861 -5.4656 -1.9861 0.9767
-0.7908 -5.4998 -1.9870 0.9767
-0.5942 -5.5271 -1.9879 0.9767
-0.3967 -5.5473 -1.9888 0.9767
-0.1986 -5.5605 -1.9897 0.9766
0.0000 -5.5666 -1.9907 0.9766
0.1988 -5.5656 -1.9916 0.9766
0.5959 -5.5423 -1.9934 0.9766
0.7937 -5.5200 -1.9943 0.9766
1.1865 -5.4543 -1.9961 0.9766
1.3811 -5.4109 -1.9970 0.9766
1.9541 -5.2392 -1.9997 0.9765
2.3249 -5.0908 -2.0014 0.9765
2.8593 -4.8190 -2.0038 0.9765
3.1982 -4.6063 -2.0054 0.9765
3.3619 -4.4909 -2.0061 0.9765
3.6763 -4.2427 -2.0076 0.9764
3.8267 -4.1102 -2.0083 0.9764
4.1129 -3.8292 -2.0096 0.9764
4.3783 -3.5282 -2.0108 0.9764
4.6214 -3.2087 -2.0119 0.9764
4.7342 -3.0425 -2.0124 0.9764
5.0357 -2.5207 -2.0138 0.9764
5.1235 -2.3398 -2.0142 0.9764
5.2047 -2.1559 -2.0146 0.9764
5.3470 -1.7796 -2.0153 0.9763
5.4079 -1.5879 -2.0155 0.9763
5.4618 -1.3940 -2.0158 0.9763
5.5484 -1.0010 -2.0162 0.9763
5.6064 -0.6027 -2.0164 0.9763
5.6246 -0.4023 -2.0165 0.9763
-5.1198 -0.3662 -1.9670 0.9783
-5.1037 -0.5487 -1.9671 0.9783
-4.9272 -1.4468 -1.9679 0.9782
-4.8128 -1.7951 -1.9685 0.9782
-4.7464 -1.9660 -1.9688 0.9782
-4.5957 -2.3004 -1.9695 0.9782
-4.4216 -2.6235 -1.9703 0.9782
-4.3262 -2.7803 -1.9707 0.9782
-4.2252 -2.9336 -1.9712 0.9782
-4.0072 -3.2292 -1.9722 0.9782
-3.8904 -3.3711 -1.9727 0.9782
-3.7687 -3.5087 -1.9733 0.9782
-3.2350 -4.0144 -1.9757 0.9782
-3.0907 -4.1287 -1.9764 0.9781
-2.9424 -4.2378 -1.9771 0.9781
-2.7903 -4.3417 -1.9778 0.9781
-2.3127 -4.6202 -1.9800 0.9781
-1.9788 -4.7772 -1.9815 0.9781
-1.6342 -4.9101 -1.9831 0.9781
-1.4585 -4.9673 -1.9839 0.9781
-1.1014 -5.0629 -1.9856 0.9780
-0.9203 -5.1011 -1.9864 0.9780
-0.7380 -5.1329 -1.9873 0.9780
-0.5546 -5.1582 -1.9881 0.9780
-0.3703 -5.1769 -1.9889 0.9780
-0.1853 -5.1890 -1.9898 0.9780
0.0000 -5.1946 -1.9907 0.9780
0.1855 -5.1935 -1.9915 0.9780
0.3709 -5.1858 -1.9924 0.9780
0.9243 -5.1230 -1.9949 0.9779
1.4685 -5.0011 -1.9974 0.9779
1.8230 -4.8876 -1.9990 0.9779
2.1687 -4.7488 -2.0006 0.9779
2.6670 -4.4949 -2.0029 0.9779
2.8268 -4.3985 -2.0037 0.9779
2.9830 -4.2963 -2.0044 0.9778
3.7046 -3.7046 -2.0077 0.9778
3.8356 -3.5711 -2.0083 0.9778
4.0829 -3.2902 -2.0094 0.9778
4.1988 -3.1432 -2.0100 0.9778
4.3094 -2.9921 -2.0105 0.9778
4.4145 -2.8370 -2.0110 0.9778
4.7773 -2.1817 -2.0126 0.9778
4.8530 -2.0102 -2.0130 0.9777
4.9855 -1.6593 -2.0136 0.9777
5.0924 -1.2998 -2.0141 0.9777
5.1361 -1.1173 -2.0143 0.9777
5.1731 -0.9333 -2.0144 0.9777
5.2035 -0.7481 -2.0146 0.9777
5.2272 -0.5620 -2.0147 0.9777
-4.8096 0.0000 -1.9685 0.9794
-4.8066 -0.1717 -1.9685 0.9794
-4.7975 -0.3431 -1.9685 0.9794
-4.7340 -0.8541 -1.9688 0.9794
-4.6618 -1.1899 -1.9691 0.9794
-4.6169 -1.3556 -1.9694 0.9794
-4.4473 -1.8421 -1.9701 0.9794
-4.3794 -2.0000 -1.9705 0.9794
-4.3060 -2.1554 -1.9708 0.9794
-3.9586 -2.7485 -1.9724 0.9794
-3.6448 -3.1582 -1.9738 0.9794
-3.5307 -3.2872 -1.9744 0.9794
-3.2891 -3.5327 -1.9755 0.9794
-3.1618 -3.6489 -1.9761 0.9793
-2.8952 -3.8676 -1.9773 0.9793
-2.7563 -3.9698 -1.9779 0.9793
-2.4677 -4.1591 -1.9793 0.9793
-2.3185 -4.2460 -1.9800 0.9793
-1.3660 -4.6521 -1.9844 0.9793
-0.6911 -4.8066 -1.9875 0.9792
-0.3467 -4.8475 -1.9891 0.9792
0.0000 -4.8638 -1.9906 0.9792
0.1737 -4.8627 -1.9914 0.9792
0.3473 -4.8553 -1.9922 0.9792
0.8653 -4.7961 -1.9946 0.9792
1.0364 -4.7641 -1.9954 0.9791
1.2062 -4.7259 -1.9962 0.9791
1.3747 -4.6817 -1.9970 0.9791
1.8694 -4.5130 -1.9993 0.9791
2.1882 -4.3714 -2.0007 0.9791
2.9346 -3.9201 -2.0042 0.9791
3.2088 -3.7031 -2.0054 0.9790
3.4668 -3.4668 -2.0066 0.9790
3.5894 -3.3418 -2.0072 0.9790
3.8206 -3.0789 -2.0082 0.9790
4.0325 -2.7998 -2.0092 0.9790
4.2238 -2.5061 -2.0101 0.9790
4.4700 -2.0414 -2.0112 0.9790
4.5408 -1.8808 -2.0115 0.9790
4.7177 -1.3852 -2.0124 0.9790
4.7647 -1.2161 -2.0126 0.9790
4.8055 -1.0453 -2.0128 0.9790
-1.4601 0.0000 -0.6363 0.9936
-1.4490 -0.1036 -0.6331 0.9937
-1.4359 -0.1544 -0.6294 0.9937
-1.3400 -0.3420 -0.6027 0.9940
-1.4401 -0.4793 -0.6615 0.9934
-1.5118 -0.5639 -0.7032 0.9930
-4.1791 -1.7310 -1.9714 0.9805
-4.1152 -1.8794 -1.9717 0.9805
-4.0462 -2.0254 -1.9720 0.9805
-3.9720 -2.1689 -1.9723 0.9804
-3.8928 -2.3097 -1.9727 0.9804
-3.8086 -2.4476 -1.9731 0.9804
-3.6259 -2.7143 -1.9739 0.9804
-3.5275 -2.8426 -1.9744 0.9804
-3.4246 -2.9674 -1.9749 0.9804
-2.9706 -3.4282 -1.9770 0.9804
-2.8471 -3.5331 -1.9775 0.9804
-2.7200 -3.6335 -1.9781 0.9804
-2.5894 -3.7294 -1.9787 0.9804
-2.3182 -3.9071 -1.9800 0.9804
-2.1780 -3.9887 -1.9806 0.9804
-1.5903 -4.2639 -1.9833 0.9803
-1.4377 -4.3195 -1.9840 0.9803
-1.2830 -4.3696 -1.9847 0.9803
-0.9687 -4.4532 -1.9862 0.9803
-0.8095 -4.4866 -1.9869 0.9803
-0.3256 -4.5525 -1.9891 0.9803
-0.1630 -4.5630 -1.9899 0.9803
0.1631 -4.5664 -1.9914 0.9803
0.3261 -4.5594 -1.9921 0.9803
0.6510 -4.5279 -1.9936 0.9802
0.8125 -4.5035 -1.9944 0.9802
0.9731 -4.4733 -1.9951 0.9802
1.1326 -4.4373 -1.9959 0.9802
1.6021 -4.2955 -1.9980 0.9802
1.7550 -4.2370 -1.9987 0.9802
1.9058 -4.1732 -1.9994 0.9802
2.0543 -4.1039 -2.0001 0.9802
2.3434 -3.9495 -2.0014 0.9802
2.7547 -3.6799 -2.0033 0.9801
2.8852 -3.5803 -2.0039 0.9801
3.1350 -3.3672 -2.0051 0.9801
3.3691 -3.1367 -2.0062 0.9801
3.4798 -3.0152 -2.0067 0.9801
3.5860 -2.8898 -2.0072 0.9801
3.8770 -2.4916 -2.0085 0.9801
4.0464 -2.2095 -2.0093 0.9801
4.1951 -1.9158 -2.0100 0.9801
4.2615 -1.7652 -2.0103 0.9801
4.3224 -1.6121 -2.0105 0.9801
4.3777 -1.4570 -2.0108 0.9801
4.4274 -1.3000 -2.0110 0.9801
4.5097 -0.9810 -2.0114 0.9801
4.5689 -0.6569 -2.0117 0.9801
4.5896 -0.4934 -2.0118 0.9801
4.6045 -0.3293 -2.0118 0.9801
-1.2447 0.0000 -0.5761 0.9945
-1.2424 -0.0444 -0.5755 0.9945
-1.2362 -0.0884 -0.5737 0.9946
-1.2124 -0.1743 -0.5670 0.9946
-1.1790 -0.2565 -0.5585 0.9947
-1.1330 -0.3327 -0.5466 0.9948
-3.8768 -1.7704 -1.9728 0.9814
-3.8117 -1.9080 -1.9731 0.9814
-3.6671 -2.1758 -1.9737 0.9814
-3.5039 -2.4328 -1.9745 0.9814
-3.4155 -2.5568 -1.9749 0.9814
-3.1247 -2.9092 -1.9762 0.9814
-2.9107 -3.1263 -1.9772 0.9813
-2.7980 -3.2291 -1.9777 0.9813
-2.1833 -3.6798 -1.9806 0.9813
-1.7791 -3.8958 -1.9824 0.9813
-1.6395 -3.9581 -1.9831 0.9813
-1.3538 -4.0677 -1.9844 0.9813
-1.2082 -4.1148 -1.9851 0.9813
-1.0609 -4.1567 -1.9858 0.9813
0.0000 -4.3005 -1.9906 0.9812
0.3070 -4.2926 -1.9921 0.9812
0.4602 -4.2804 -1.9928 0.9812
0.6129 -4.2628 -1.9935 0.9812
1.2150 -4.1379 -1.9962 0.9812
1.3624 -4.0933 -1.9969 0.9812
1.5081 -4.0434 -1.9976 0.9812
1.6520 -3.9883 -1.9983 0.9812
1.7939 -3.9281 -1.9989 0.9811
1.9336 -3.8628 -1.9995 0.9811
2.2056 -3.7174 -2.0008 0.9811
2.3376 -3.6374 -2.0014 0.9811
2.4667 -3.5527 -2.0020 0.9811
2.5927 -3.4634 -2.0026 0.9811
2.7154 -3.3696 -2.0031 0.9811
2.8347 -3.2714 -2.0037 0.9811
2.9504 -3.1690 -2.0042 0.9811
3.1706 -2.9519 -2.0052 0.9811
3.8801 -1.9422 -2.0085 0.9811
4.0672 -1.5170 -2.0094 0.9810
4.1660 -1.2233 -2.0098 0.9810
4.2434 -0.9231 -2.0102 0.9810
4.2740 -0.7711 -2.0103 0.9810
4.2990 -0.6181 -2.0104 0.9810
-1.0803 -0.0386 -0.5302 0.9952
-1.0769 -0.0770 -0.5296 0.9952
-1.0611 -0.1526 -0.5258 0.9952
-1.0422 -0.2267 -0.5232 0.9953
-1.0025 -0.3337 -0.5183 0.9953
-1.0444 -0.4769 -0.5632 0.9949
-1.0588 -0.5300 -0.5808 0.9947
-3.5326 -1.9290 -1.9744 0.9822
-3.4621 -2.0542 -1.9747 0.9822
-3.3872 -2.1768 -1.9750 0.9822
-3.3079 -2.2968 -1.9754 0.9822
-3.2245 -2.4138 -1.9758 0.9822
-3.0454 -2.6388 -1.9766 0.9822
-2.9499 -2.7464 -1.9770 0.9822
-2.5315 -3.1413 -1.9790 0.9822
-2.4184 -3.2306 -1.9795 0.9822
-2.3021 -3.3157 -1.9800 0.9822
-1.8089 -3.6137 -1.9823 0.9822
-1.5474 -3.7358 -1.9835 0.9821
-0.8609 -3.9576 -1.9867 0.9821
-0.7193 -3.9871 -1.9873 0.9821
-0.5768 -4.0115 -1.9880 0.9821
-0.4334 -4.0309 -1.9886 0.9821
0.0000 -4.0582 -1.9906 0.9821
0.1449 -4.0570 -1.9913 0.9821
0.2897 -4.0506 -1.9920 0.9821
0.4342 -4.0390 -1.9926 0.9821
0.5783 -4.0223 -1.9933 0.9821
0.7218 -4.0004 -1.9940 0.9821
1.2854 -3.8620 -1.9966 0.9820
1.4229 -3.8148 -1.9972 0.9820
1.5586 -3.7628 -1.9978 0.9820
1.6924 -3.7059 -1.9984 0.9820
2.0807 -3.5069 -2.0002 0.9820
2.2052 -3.4314 -2.0008 0.9820
2.3269 -3.3514 -2.0014 0.9820
2.4457 -3.2671 -2.0019 0.9820
2.5615 -3.1786 -2.0024 0.9820
2.6740 -3.0859 -2.0030 0.9820
2.9907 -2.7845 -2.0044 0.9820
3.1831 -2.5651 -2.0053 0.9820
3.2733 -2.4504 -2.0057 0.9819
3.6596 -1.8319 -2.0075 0.9819
3.7232 -1.7003 -2.0078 0.9819
3.7821 -1.5666 -2.0080 0.9819
3.9292 -1.1537 -2.0087 0.9819
3.9682 -1.0128 -2.0089 0.9819
4.0021 -0.8706 -2.0091 0.9819
4.0309 -0.7273 -2.0092 0.9819
4.0861 -0.2922 -2.0094 0.9819
-0.9895 0.0000 -0.5133 0.9956
-0.9893 -0.0353 -0.5135 0.9955
-0.9838 -0.1058 -0.5133 0.9956
-0.9785 -0.1407 -0.5129 0.9956
-0.9628 -0.2094 -0.5112 0.9956
-0.9268 -0.3085 -0.5067 0.9956
-0.9271 -0.3840 -0.5206 0.9955
-0.9326 -0.4259 -0.5319 0.9954
-3.2041 -2.0591 -1.9759 0.9830
-3.0501 -2.2833 -1.9766 0.9830
-2.9672 -2.3911 -1.9770 0.9830
-2.7903 -2.5978 -1.9778 0.9830
-1.9492 -3.2851 -1.9817 0.9829
-1.7108 -3.4177 -1.9828 0.9829
-1.5882 -3.4776 -1.9833 0.9829
-1.4634 -3.5330 -1.9839 0.9829
-1.3368 -3.5841 -1.9845 0.9829
-1.2084 -3.6306 -1.9851 0.9829
-0.9469 -3.7098 -1.9863 0.9829
-0.8141 -3.7424 -1.9869 0.9829
-0.6802 -3.7702 -1.9875 0.9829
-0.4098 -3.8116 -1.9888 0.9829
-0.1369 -3.8335 -1.9900 0.9829
0.1370 -3.8359 -1.9913 0.9829
0.4106 -3.8188 -1.9925 0.9828
0.5468 -3.8029 -1.9932 0.9828
0.8172 -3.7566 -1.9944 0.9828
1.2152 -3.6510 -1.9962 0.9828
1.3451 -3.6064 -1.9968 0.9828
1.5999 -3.5033 -1.9980 0.9828
1.7244 -3.4450 -1.9986 0.9828
1.8468 -3.3822 -1.9991 0.9828
2.0845 -3.2436 -2.0002 0.9828
2.3118 -3.0882 -2.0013 0.9828
2.5275 -2.9169 -2.0023 0.9828
2.6306 -2.8255 -2.0028 0.9828
2.9195 -2.5298 -2.0041 0.9827
3.0086 -2.4244 -2.0045 0.9827
3.0938 -2.3160 -2.0049 0.9827
3.1751 -2.2045 -2.0053 0.9827
3.2523 -2.0901 -2.0056 0.9827
3.3254 -1.9730 -2.0059 0.9827
3.3942 -1.8534 -2.0063 0.9827
3.5188 -1.6070 -2.0068 0.9827
3.5744 -1.4805 -2.0071 0.9827
3.6717 -1.2221 -2.0075 0.9827
3.7502 -0.9572 -2.0079 0.9827
3.8615 -0.2762 -2.0084 0.9827
-0.9161 -0.0655 -0.5030 0.9958
-0.9127 -0.0981 -0.5028 0.9958
-0.9077 -0.1305 -0.5022 0.9958
-0.9011 -0.1626 -0.5015 0.9958
-0.8932 -0.1943 -0.5006 0.9958
-0.8837 -0.2255 -0.4995 0.9958
-0.8603 -0.2863 -0.4966 0.9959
-0.8465 -0.3157 -0.4948 0.9959
-0.8506 -0.3884 -0.5122 0.9957
-0.8516 -0.4263 -0.5216 0.9957
-0.8507 -0.4645 -0.5309 0.9956
-3.0361 -1.9511 -1.9766 0.9837
-2.4625 -2.6449 -1.9793 0.9837
-2.3671 -2.7317 -1.9797 0.9837
-2.2686 -2.8151 -1.9802 0.9836
-1.8467 -3.1124 -1.9821 0.9836
-1.6208 -3.2379 -1.9832 0.9836
-1.5046 -3.2946 -1.9837 0.9836
-1.3864 -3.3471 -1.9842 0.9836
-1.1447 -3.4394 -1.9854 0.9836
-1.0215 -3.4790 -1.9859 0.9836
-0.8970 -3.5143 -1.9865 0.9836
-0.7712 -3.5451 -1.9871 0.9836
-0.6444 -3.5714 -1.9877 0.9836
-0.3882 -3.6104 -1.9889 0.9836
0.1298 -3.6333 -1.9912 0.9836
0.3889 -3.6169 -1.9924 0.9835
0.7740 -3.5578 -1.9942 0.9835
1.0264 -3.4956 -1.9954 0.9835
1.3954 -3.3687 -1.9971 0.9835
1.5151 -3.3177 -1.9976 0.9835
1.6330 -3.2623 -1.9982 0.9835
1.7489 -3.2028 -1.9987 0.9835
1.8626 -3.1392 -1.9992 0.9835
1.9739 -3.0715 -1.9997 0.9835
2.0828 -2.9998 -2.0002 0.9835
2.1891 -2.9243 -2.0007 0.9835
2.3933 -2.7620 -2.0017 0.9835
2.4909 -2.6754 -2.0021 0.9835
2.6765 -2.4920 -2.0030 0.9835
2.8486 -2.2956 -2.0038 0.9835
3.0793 -1.9789 -2.0048 0.9834
3.1485 -1.8681 -2.0051 0.9834
3.2747 -1.6392 -2.0057 0.9834
3.4324 -1.2802 -2.0064 0.9834
3.4762 -1.1570 -2.0066 0.9834
3.6066 -0.6507 -2.0072 0.9834
3.6441 -0.3918 -2.0074 0.9834
3.6629 -0.1308 -2.0075 0.9834
-0.8531 -0.0610 -0.4938 0.9961
-0.8499 -0.0914 -0.4935 0.9961
-0.8453 -0.1215 -0.4930 0.9961
-0.8230 -0.2100 -0.4904 0.9961
-0.8128 -0.2387 -0.4891 0.9961
-0.7796 -0.3229 -0.4872 0.9961
-0.7809 -0.3566 -0.4957 0.9960
-0.7806 -0.3908 -0.5040 0.9960
-0.7787 -0.4252 -0.5122 0.9959
-0.7750 -0.4598 -0.5203 0.9958
-0.7696 -0.4946 -0.5282 0.9958
-2.7426 -2.0531 -1.9780 0.9843
-2.6681 -2.1501 -1.9783 0.9843
-2.4243 -2.4243 -1.9795 0.9843
-2.1527 -2.6713 -1.9807 0.9843
-2.0564 -2.7470 -1.9812 0.9843
-1.8561 -2.8881 -1.9821 0.9843
-1.7522 -2.9532 -1.9826 0.9843
-1.6461 -3.0146 -1.9831 0.9843
-1.5378 -3.0722 -1.9835 0.9843
-1.4276 -3.1259 -1.9841 0.9843
-1.2016 -3.2215 -1.9851 0.9842
-0.9692 -3.3008 -1.9862 0.9842
-0.7317 -3.3634 -1.9873 0.9842
-0.4901 -3.4089 -1.9884 0.9842
-0.3682 -3.4252 -1.9889 0.9842
-0.1230 -3.4447 -1.9901 0.9842
0.0000 -3.4479 -1.9906 0.9842
0.1231 -3.4467 -1.9912 0.9842
0.2461 -3.4411 -1.9918 0.9842
0.3689 -3.4311 -1.9923 0.9842
0.6131 -3.3979 -1.9935 0.9842
0.8544 -3.3474 -1.9946 0.9842
1.3235 -3.1952 -1.9967 0.9842
1.5489 -3.0942 -1.9978 0.9841
1.6587 -3.0377 -1.9983 0.9841
1.7665 -2.9773 -1.9988 0.9841
1.8721 -2.9131 -1.9993 0.9841
1.9754 -2.8451 -1.9997 0.9841
2.0762 -2.7734 -2.0002 0.9841
2.2697 -2.6194 -2.0011 0.9841
2.3623 -2.5373 -2.0015 0.9841
2.4518 -2.4518 -2.0019 0.9841
2.5383 -2.3632 -2.0023 0.9841
2.7014 -2.1770 -2.0031 0.9841
2.8508 -1.9794 -2.0038 0.9841
2.9201 -1.8766 -2.0041 0.9841
3.1053 -1.5544 -2.0049 0.9841
3.1592 -1.4427 -2.0052 0.9841
3.2091 -1.3292 -2.0054 0.9841
3.3668 -0.8593 -2.0061 0.9841
3.3955 -0.7386 -2.0063 0.9841
3.4399 -0.4946 -2.0065 0.9841
3.4555 -0.3715 -2.0065 0.9841
3.4666 -0.2479 -2.0066 0.9841
