ply
format ascii 1.0
element vertex 747
property float32 x
property float32 y
property float32 z
property float32 I
end_header
4.6985 8.6046 -1.8427 0.9609
4.0720 8.9164 -1.8424 0.9609
3.7508 9.0553 -1.8423 0.9609
3.4249 9.1826 -1.8421 0.9609
2.7606 9.4018 -1.8418 0.9609
2.0825 9.5730 -1.8414 0.9609
1.7393 9.6404 -1.8413 0.9609
1.3940 9.6954 -1.8411 0.9609
1.0470 9.7381 -1.8409 0.9609
0.0000 9.7914 -1.8404 0.9609
-0.6984 9.7647 -1.8401 0.9609
-1.7377 9.6314 -1.8395 0.9609
-2.4199 9.4811 -1.8392 0.9610
-3.4186 9.1657 -1.8387 0.9610
-4.0631 8.8969 -1.8384 0.9610
-4.6867 8.5830 -1.8381 0.9610
-5.5760 8.0309 -1.8377 0.9610
-5.8586 7.8262 -1.8375 0.9610
9.4250 0.6741 -1.9973 0.9621
9.3948 1.0100 -1.9973 0.9621
9.3527 1.3447 -1.9973 0.9621
9.1549 2.3367 -1.9972 0.9621
9.0654 2.6619 -1.9971 0.9621
8.9644 2.9836 -1.9971 0.9621
8.8520 3.3016 -1.9970 0.9621
8.7282 3.6153 -1.9970 0.9621
8.5933 3.9244 -1.9969 0.9621
8.2908 4.5271 -1.9968 0.9621
7.9460 5.1066 -1.9966 0.9621
7.7583 5.3867 -1.9965 0.9621
7.3535 5.9258 -1.9963 0.9621
7.1369 6.1842 -1.9962 0.9621
6.6768 6.6768 -1.9959 0.9621
6.4338 6.9104 -1.9958 0.9621
6.1827 7.1352 -1.9957 0.9621
5.6435 7.5388 -1.9906 0.9622
4.9567 7.7127 -1.9380 0.9632
4.5804 7.7199 -1.8974 0.9640
4.2189 7.7263 -1.8608 0.9646
3.9014 7.7939 -1.8424 0.9650
3.6204 7.9276 -1.8422 0.9650
3.0452 8.1644 -1.8419 0.9650
2.1545 8.4411 -1.8415 0.9650
1.8517 8.5119 -1.8413 0.9650
1.5465 8.5719 -1.8412 0.9650
1.2395 8.6209 -1.8410 0.9650
0.6212 8.6859 -1.8407 0.9650
0.3108 8.7019 -1.8406 0.9650
0.0000 8.7067 -1.8404 0.9650
-0.3107 8.7004 -1.8403 0.9650
-0.6210 8.6830 -1.8401 0.9650
-0.9305 8.6546 -1.8400 0.9650
-1.2387 8.6152 -1.8398 0.9650
-1.5453 8.5648 -1.8397 0.9650
-2.1520 8.4314 -1.8394 0.9650
-2.7475 8.2550 -1.8391 0.9651
-3.0402 8.1511 -1.8389 0.9651
-3.3289 8.0368 -1.8388 0.9651
-4.9512 7.7042 -1.9358 0.9633
-5.3431 7.6956 -1.9803 0.9624
-6.1638 7.1134 -1.9896 0.9622
-6.6547 6.6547 -1.9893 0.9623
-6.8876 6.4126 -1.9892 0.9623
-7.5325 5.6387 -1.9889 0.9623
-7.9148 5.0865 -1.9887 0.9623
-8.0910 4.8006 -1.9886 0.9623
-8.4122 4.2108 -1.9885 0.9623
-8.5568 3.9078 -1.9884 0.9623
-8.9247 2.9704 -1.9883 0.9623
-9.1135 2.3261 -1.9882 0.9623
-9.1905 1.9993 -1.9881 0.9623
-9.3095 1.3385 -1.9881 0.9623
-9.3512 1.0054 -1.9881 0.9623
-9.3811 0.6709 -1.9880 0.9623
-9.3990 0.3357 -1.9880 0.9623
8.4911 0.3033 -1.9969 0.9657
8.4478 0.9082 -1.9969 0.9657
8.3612 1.5085 -1.9968 0.9657
8.1516 2.3935 -1.9967 0.9657
8.0608 2.6829 -1.9967 0.9657
7.7272 3.5289 -1.9965 0.9657
7.5960 3.8023 -1.9964 0.9657
7.4552 4.0708 -1.9963 0.9657
7.3049 4.3342 -1.9963 0.9657
7.1452 4.5920 -1.9962 0.9657
6.9765 4.8439 -1.9961 0.9657
6.7989 5.0896 -1.9960 0.9657
6.4178 5.5611 -1.9958 0.9657
6.2149 5.7863 -1.9957 0.9657
5.7857 6.2143 -1.9955 0.9657
5.5599 6.4165 -1.9954 0.9657
5.3270 6.6104 -1.9953 0.9657
5.0874 6.7959 -1.9951 0.9657
4.5890 7.1406 -1.9949 0.9657
4.3294 7.2967 -1.9940 0.9657
4.0610 7.4372 -1.9915 0.9658
3.7885 7.5684 -1.9892 0.9658
2.8762 7.7115 -1.9343 0.9667
2.5680 7.7155 -1.9111 0.9671
1.9709 7.7221 -1.8730 0.9678
1.3945 7.7290 -1.8458 0.9682
1.1148 7.7535 -1.8410 0.9683
0.8373 7.7877 -1.8408 0.9683
0.2795 7.8264 -1.8406 0.9683
0.0000 7.8308 -1.8404 0.9683
-0.5586 7.8097 -1.8401 0.9683
-0.8369 7.7842 -1.8400 0.9683
-2.2654 7.7151 -1.8898 0.9675
-2.5665 7.7111 -1.9100 0.9672
-2.8744 7.7066 -1.9331 0.9668
-3.1900 7.7015 -1.9592 0.9663
-3.5061 7.6773 -1.9836 0.9659
-4.0531 7.4227 -1.9876 0.9658
-4.5786 7.1244 -1.9904 0.9658
-5.5446 6.3988 -1.9899 0.9658
-5.9863 5.9863 -1.9897 0.9658
-6.1958 5.7685 -1.9896 0.9658
-6.3974 5.5434 -1.9895 0.9658
-6.7760 5.0725 -1.9893 0.9658
-7.2785 4.3185 -1.9891 0.9658
-7.4277 4.0558 -1.9890 0.9658
-7.5675 3.7880 -1.9889 0.9658
-7.6976 3.5154 -1.9889 0.9658
-8.1188 2.3839 -1.9887 0.9658
-8.2679 1.7986 -1.9886 0.9658
-8.4394 0.6036 -1.9885 0.9658
-8.4555 0.3020 -1.9885 0.9658
7.7109 0.0000 -1.9965 0.9686
7.6666 0.8243 -1.9965 0.9686
7.5343 1.6390 -1.9964 0.9686
7.3980 2.1722 -1.9963 0.9686
7.3156 2.4348 -1.9963 0.9686
7.1229 2.9504 -1.9962 0.9686
6.6296 3.9335 -1.9959 0.9687
6.4848 4.1675 -1.9959 0.9687
6.3317 4.3961 -1.9958 0.9687
6.0014 4.8362 -1.9956 0.9687
5.2511 5.6400 -1.9952 0.9687
5.0461 5.8236 -1.9951 0.9687
4.8348 5.9996 -1.9950 0.9687
4.6173 6.1680 -1.9949 0.9687
4.1651 6.4810 -1.9947 0.9687
3.9309 6.6251 -1.9946 0.9687
2.9473 7.1154 -1.9941 0.9687
2.4308 7.3033 -1.9930 0.9687
1.6330 7.5068 -1.9891 0.9688
1.3634 7.5566 -1.9881 0.9688
0.8202 7.6288 -1.9866 0.9688
0.2737 7.6645 -1.9857 0.9688
0.0000 7.6686 -1.9855 0.9688
-0.2737 7.6635 -1.9855 0.9688
-0.5471 7.6492 -1.9856 0.9688
-1.0917 7.5933 -1.9863 0.9688
-1.8992 7.4412 -1.9884 0.9688
-2.1648 7.3725 -1.9895 0.9688
-2.4280 7.2948 -1.9906 0.9687
-3.6849 6.7484 -1.9908 0.9687
-4.1565 6.4676 -1.9906 0.9687
-4.6068 6.1540 -1.9904 0.9687
-5.9836 4.8219 -1.9897 0.9687
-6.1516 4.6050 -1.9896 0.9687
-6.3118 4.3824 -1.9895 0.9687
-6.4640 4.1541 -1.9895 0.9688
-6.9885 3.1915 -1.9892 0.9688
-7.1980 2.6847 -1.9891 0.9688
-7.2891 2.4261 -1.9891 0.9688
-7.3709 2.1643 -1.9890 0.9688
-7.6376 0.8211 -1.9889 0.9688
-7.6767 0.2742 -1.9889 0.9688
7.0468 0.2517 -1.9962 0.9711
7.0333 0.5030 -1.9962 0.9711
7.0108 0.7537 -1.9961 0.9711
6.9794 1.0035 -1.9961 0.9711
6.7651 1.9864 -1.9960 0.9711
6.6059 2.4639 -1.9959 0.9711
6.4130 2.9287 -1.9958 0.9711
6.3042 3.1557 -1.9958 0.9711
6.1874 3.3786 -1.9957 0.9711
5.9302 3.8111 -1.9956 0.9711
5.7902 4.0202 -1.9955 0.9711
5.6428 4.2241 -1.9954 0.9711
5.3266 4.6156 -1.9953 0.9711
5.1583 4.8025 -1.9952 0.9711
4.9834 4.9834 -1.9951 0.9711
4.6147 5.3257 -1.9949 0.9711
4.4215 5.4867 -1.9948 0.9711
4.2226 5.6408 -1.9947 0.9711
4.0184 5.7876 -1.9946 0.9711
3.8091 5.9270 -1.9945 0.9711
3.5949 6.0589 -1.9944 0.9711
3.1532 6.2992 -1.9942 0.9711
2.9262 6.4074 -1.9941 0.9711
2.4613 6.5990 -1.9939 0.9711
2.2241 6.6823 -1.9937 0.9711
1.9840 6.7570 -1.9936 0.9711
1.7415 6.8231 -1.9935 0.9712
1.2501 6.9291 -1.9932 0.9712
1.0020 6.9689 -1.9931 0.9712
0.2513 7.0347 -1.9928 0.9712
-0.5021 7.0200 -1.9924 0.9712
-1.0015 6.9654 -1.9921 0.9712
-1.4956 6.8754 -1.9919 0.9712
-1.9821 6.7503 -1.9917 0.9712
-2.4583 6.5910 -1.9914 0.9712
-2.6918 6.4987 -1.9913 0.9712
-3.5885 6.0481 -1.9909 0.9712
-3.8019 5.9158 -1.9908 0.9712
-4.0104 5.7761 -1.9907 0.9712
-4.6042 5.3135 -1.9904 0.9712
-4.9711 4.9711 -1.9902 0.9712
-5.3126 4.6034 -1.9900 0.9712
-5.4733 4.4107 -1.9899 0.9712
-6.1684 3.3682 -1.9896 0.9712
-6.3927 2.9194 -1.9895 0.9712
-6.4926 2.6893 -1.9895 0.9712
-6.6677 2.2192 -1.9894 0.9712
-6.7425 1.9798 -1.9893 0.9712
-6.8088 1.7378 -1.9893 0.9712
-6.8664 1.4937 -1.9893 0.9712
-6.9152 1.2477 -1.9893 0.9712
-6.9865 0.7511 -1.9892 0.9712
-7.0088 0.5013 -1.9892 0.9712
-7.0222 0.2508 -1.9892 0.9712
6.4725 0.4629 -1.9959 0.9732
6.4518 0.6936 -1.9959 0.9732
6.3858 1.1521 -1.9958 0.9732
6.3405 1.3793 -1.9958 0.9732
6.1564 2.0491 -1.9957 0.9732
5.9943 2.4829 -1.9956 0.9732
5.6941 3.1092 -1.9955 0.9732
5.5794 3.3104 -1.9954 0.9732
5.4575 3.5073 -1.9954 0.9732
5.1930 3.8874 -1.9952 0.9732
5.0508 4.0702 -1.9952 0.9732
4.9021 4.2477 -1.9951 0.9732
4.5862 4.5862 -1.9949 0.9732
4.2470 4.9013 -1.9947 0.9732
4.0692 5.0495 -1.9947 0.9732
3.8862 5.1913 -1.9946 0.9732
3.3085 5.5762 -1.9943 0.9732
3.1072 5.6904 -1.9942 0.9732
2.9020 5.7974 -1.9941 0.9732
2.6931 5.8970 -1.9940 0.9732
2.0469 6.1500 -1.9936 0.9732
1.6028 6.2797 -1.9934 0.9732
1.1506 6.3774 -1.9932 0.9732
0.9222 6.4140 -1.9931 0.9732
0.6926 6.4425 -1.9930 0.9732
0.4622 6.4627 -1.9929 0.9732
0.2312 6.4747 -1.9927 0.9733
0.0000 6.4785 -1.9926 0.9733
-1.3766 6.3283 -1.9920 0.9733
-1.6015 6.2747 -1.9918 0.9733
-2.6895 5.8891 -1.9913 0.9733
-3.3031 5.5670 -1.9910 0.9733
-3.6914 5.3167 -1.9908 0.9733
-5.3146 3.6900 -1.9900 0.9733
-5.4427 3.4979 -1.9900 0.9733
-5.6781 3.1005 -1.9899 0.9733
-5.8845 2.6874 -1.9898 0.9733
-5.9765 2.4756 -1.9897 0.9733
-6.1377 2.0428 -1.9896 0.9733
-6.2676 1.5997 -1.9896 0.9733
-6.3206 1.3750 -1.9896 0.9733
-6.3656 1.1485 -1.9895 0.9733
-6.4025 0.9205 -1.9895 0.9733
-6.4312 0.6914 -1.9895 0.9733
6.0037 0.0000 -1.9957 0.9750
5.9998 0.2143 -1.9957 0.9750
5.9884 0.4283 -1.9956 0.9750
5.9692 0.6418 -1.9956 0.9750
5.9425 0.8544 -1.9956 0.9750
5.9081 1.0659 -1.9956 0.9750
5.8662 1.2761 -1.9956 0.9750
5.8169 1.4847 -1.9956 0.9750
5.7601 1.6913 -1.9955 0.9750
5.5460 2.2972 -1.9954 0.9750
5.3677 2.6869 -1.9953 0.9750
5.2683 2.8767 -1.9953 0.9750
5.1621 3.0628 -1.9952 0.9750
5.0494 3.2450 -1.9952 0.9750
4.9302 3.4231 -1.9951 0.9750
4.3922 4.0893 -1.9948 0.9750
4.2433 4.2433 -1.9948 0.9750
4.0890 4.3919 -1.9947 0.9750
3.5957 4.8032 -1.9944 0.9750
3.4218 4.9283 -1.9943 0.9750
3.0612 5.1594 -1.9942 0.9750
2.8750 5.2651 -1.9941 0.9750
2.6851 5.3641 -1.9940 0.9750
2.4918 5.4563 -1.9939 0.9750
2.2953 5.5415 -1.9938 0.9750
1.4831 5.8105 -1.9934 0.9750
1.2747 5.8595 -1.9933 0.9750
1.0646 5.9009 -1.9932 0.9750
0.2140 5.9911 -1.9927 0.9750
-0.6407 5.9593 -1.9923 0.9751
-0.8529 5.9323 -1.9922 0.9751
-1.0641 5.8978 -1.9921 0.9751
-1.6882 5.7494 -1.9918 0.9751
-1.8922 5.6852 -1.9917 0.9751
-2.4887 5.4495 -1.9914 0.9751
-2.6815 5.3570 -1.9913 0.9751
-2.8709 5.2576 -1.9912 0.9751
-3.0566 5.1516 -1.9911 0.9751
-3.2383 5.0389 -1.9910 0.9751
-3.4160 4.9199 -1.9910 0.9751
-3.5892 4.7947 -1.9909 0.9751
-3.7579 4.6633 -1.9908 0.9751
-4.2344 4.2344 -1.9906 0.9751
-4.5254 3.9213 -1.9904 0.9751
-4.6623 3.7571 -1.9904 0.9751
-4.7933 3.5882 -1.9903 0.9751
-4.9181 3.4147 -1.9902 0.9751
-5.0367 3.2369 -1.9902 0.9751
-5.1489 3.0550 -1.9901 0.9751
-5.2545 2.8692 -1.9901 0.9751
-5.3535 2.6798 -1.9900 0.9751
-5.4456 2.4869 -1.9900 0.9751
-5.6089 2.0920 -1.9899 0.9751
-5.8001 1.4804 -1.9898 0.9751
5.5480 0.5965 -1.9954 0.9766
5.4523 1.1861 -1.9954 0.9766
5.4064 1.3799 -1.9953 0.9766
5.2277 1.9498 -1.9953 0.9766
5.0751 2.3177 -1.9952 0.9766
4.9890 2.4973 -1.9951 0.9766
4.8966 2.6737 -1.9951 0.9766
4.6931 3.0161 -1.9950 0.9766
4.5823 3.1816 -1.9949 0.9766
4.2156 3.6528 -1.9947 0.9766
3.9440 3.9440 -1.9946 0.9766
3.8006 4.0821 -1.9945 0.9766
3.6523 4.2150 -1.9945 0.9766
3.1804 4.5807 -1.9942 0.9766
2.4957 4.9859 -1.9939 0.9766
1.7604 5.2893 -1.9935 0.9766
1.5705 5.3485 -1.9934 0.9766
1.1848 5.4464 -1.9932 0.9766
0.7932 5.5165 -1.9930 0.9766
0.3976 5.5585 -1.9928 0.9766
0.0000 5.5721 -1.9926 0.9766
-0.1989 5.5683 -1.9925 0.9766
-0.5955 5.5394 -1.9923 0.9766
-0.9891 5.4823 -1.9922 0.9766
-1.5692 5.3444 -1.9919 0.9766
-1.7589 5.2847 -1.9918 0.9766
-1.9463 5.2183 -1.9917 0.9766
-2.4927 4.9797 -1.9914 0.9766
-2.8413 4.7888 -1.9912 0.9766
-3.1754 4.5735 -1.9911 0.9766
-4.0741 3.7932 -1.9906 0.9766
-4.5719 3.1744 -1.9904 0.9766
-4.6822 3.0091 -1.9903 0.9766
-4.8847 2.6672 -1.9903 0.9766
-5.1415 2.1297 -1.9901 0.9766
-5.2142 1.9448 -1.9901 0.9766
-5.3919 1.3762 -1.9900 0.9766
-5.4763 0.9880 -1.9900 0.9766
-5.5080 0.7919 -1.9900 0.9766
-5.5504 0.3970 -1.9899 0.9766
5.2066 0.0000 -1.9953 0.9779
5.2033 0.1858 -1.9953 0.9779
5.1933 0.3714 -1.9953 0.9779
5.1767 0.5566 -1.9952 0.9779
5.1535 0.7410 -1.9952 0.9779
5.0874 1.1067 -1.9952 0.9779
5.0446 1.2876 -1.9952 0.9779
4.8779 1.8194 -1.9951 0.9779
4.8098 1.9923 -1.9950 0.9779
4.6552 2.3302 -1.9950 0.9779
4.5690 2.4948 -1.9949 0.9779
4.0529 3.2660 -1.9947 0.9780
3.9336 3.4085 -1.9946 0.9780
3.8093 3.5466 -1.9945 0.9780
3.6802 3.6802 -1.9945 0.9780
3.5464 3.8090 -1.9944 0.9780
3.2654 4.0521 -1.9943 0.9780
2.8132 4.3774 -1.9940 0.9780
2.6550 4.4748 -1.9940 0.9780
2.3289 4.6524 -1.9938 0.9780
1.9909 4.8063 -1.9936 0.9780
1.8180 4.8741 -1.9935 0.9780
1.4655 4.9910 -1.9934 0.9780
0.7401 5.1478 -1.9930 0.9780
0.1856 5.1967 -1.9927 0.9780
-2.1589 4.7274 -1.9916 0.9780
-2.4904 4.5609 -1.9914 0.9780
-2.8093 4.3713 -1.9913 0.9780
-2.9634 4.2681 -1.9912 0.9780
-3.1137 4.1594 -1.9911 0.9780
-3.4023 3.9264 -1.9910 0.9780
-3.5401 3.8024 -1.9909 0.9780
-3.6735 3.6735 -1.9908 0.9780
-3.9259 3.4018 -1.9907 0.9780
-4.1584 3.1129 -1.9906 0.9780
-4.3696 2.8082 -1.9905 0.9780
-4.4670 2.6504 -1.9905 0.9780
-4.6445 2.3249 -1.9904 0.9780
-4.8661 1.8150 -1.9903 0.9780
-5.0746 1.1039 -1.9902 0.9780
-5.1107 0.9221 -1.9902 0.9780
-5.1404 0.7391 -1.9901 0.9780
-5.1635 0.5551 -1.9901 0.9780
-5.1800 0.3705 -1.9901 0.9780
-5.1899 0.1854 -1.9901 0.9780
4.8747 0.0000 -1.9951 0.9792
4.8716 0.1740 -1.9951 0.9792
4.8623 0.3477 -1.9951 0.9792
4.7632 1.0362 -1.9950 0.9792
4.6770 1.3733 -1.9950 0.9792
4.6249 1.5393 -1.9950 0.9792
4.5670 1.7034 -1.9949 0.9792
4.5032 1.8653 -1.9949 0.9792
4.4337 2.0248 -1.9949 0.9792
4.2778 2.3358 -1.9948 0.9792
4.0033 2.7795 -1.9946 0.9792
3.7946 3.0579 -1.9945 0.9792
3.5666 3.3206 -1.9944 0.9792
3.4457 3.4457 -1.9944 0.9792
3.0573 3.7939 -1.9942 0.9792
2.9198 3.9004 -1.9941 0.9792
2.7787 4.0020 -1.9940 0.9792
2.6340 4.0985 -1.9940 0.9792
2.3347 4.2757 -1.9938 0.9792
2.1805 4.3561 -1.9937 0.9792
2.0236 4.4310 -1.9937 0.9792
1.5381 4.6213 -1.9934 0.9792
1.3722 4.6731 -1.9933 0.9792
1.2044 4.7189 -1.9932 0.9792
1.0352 4.7587 -1.9932 0.9792
0.8646 4.7924 -1.9931 0.9792
0.0000 4.8687 -1.9926 0.9792
-0.5204 4.8402 -1.9924 0.9792
-0.8643 4.7903 -1.9922 0.9792
-1.0347 4.7562 -1.9921 0.9792
-1.2037 4.7161 -1.9921 0.9792
-1.3712 4.6699 -1.9920 0.9792
-1.7007 4.5598 -1.9918 0.9792
-1.8623 4.4960 -1.9917 0.9792
-2.0215 4.4265 -1.9917 0.9792
-2.1781 4.3514 -1.9916 0.9792
-2.3320 4.2707 -1.9915 0.9792
-2.6305 4.0932 -1.9914 0.9792
-2.7748 3.9965 -1.9913 0.9792
-2.9156 3.8948 -1.9912 0.9792
-3.0527 3.7881 -1.9911 0.9792
-3.4398 3.4398 -1.9910 0.9792
-3.5603 3.3147 -1.9909 0.9792
-3.6762 3.1854 -1.9908 0.9792
-3.8939 2.9149 -1.9907 0.9792
-4.0917 2.6296 -1.9906 0.9792
-4.2687 2.3309 -1.9906 0.9792
-4.3491 2.1770 -1.9905 0.9792
-4.4239 2.0204 -1.9905 0.9792
-4.6143 1.5358 -1.9904 0.9792
-4.6662 1.3701 -1.9904 0.9792
-4.7120 1.2027 -1.9903 0.9792
-4.7519 1.0337 -1.9903 0.9792
-4.7858 0.8635 -1.9903 0.9792
-4.8135 0.6921 -1.9903 0.9792
-4.8506 0.3469 -1.9903 0.9792
4.5775 -0.0000 -1.9950 0.9802
4.5512 0.4893 -1.9949 0.9802
4.5308 0.6514 -1.9949 0.9802
4.5047 0.8127 -1.9949 0.9802
4.4728 0.9730 -1.9949 0.9802
4.3919 1.2896 -1.9948 0.9802
4.2886 1.5995 -1.9948 0.9802
3.9361 2.3354 -1.9946 0.9802
3.8501 2.4743 -1.9946 0.9802
3.7593 2.6101 -1.9945 0.9802
3.6636 2.7425 -1.9945 0.9802
3.5633 2.8715 -1.9944 0.9802
3.4584 2.9968 -1.9944 0.9802
3.3492 3.1182 -1.9943 0.9802
3.2357 3.2357 -1.9943 0.9802
3.1180 3.3490 -1.9942 0.9802
2.9964 3.4580 -1.9941 0.9802
2.4735 3.8488 -1.9939 0.9802
2.3344 3.9345 -1.9938 0.9802
2.0476 4.0907 -1.9937 0.9802
1.7505 4.2260 -1.9935 0.9802
1.5985 4.2856 -1.9934 0.9802
1.1311 4.4314 -1.9932 0.9802
0.8120 4.5005 -1.9931 0.9802
0.6508 4.5264 -1.9930 0.9802
0.1632 4.5695 -1.9927 0.9802
0.0000 4.5722 -1.9927 0.9802
-0.3261 4.5602 -1.9925 0.9802
-0.8116 4.4987 -1.9922 0.9803
-0.9717 4.4667 -1.9922 0.9803
-1.1304 4.4290 -1.9921 0.9803
-1.2877 4.3856 -1.9920 0.9803
-1.4434 4.3367 -1.9919 0.9803
-1.5972 4.2822 -1.9919 0.9803
-1.7490 4.2224 -1.9918 0.9803
-1.8985 4.1571 -1.9917 0.9803
-2.4704 3.8440 -1.9914 0.9803
-2.7382 3.6578 -1.9913 0.9803
-3.3436 3.1130 -1.9910 0.9803
-3.4525 2.9916 -1.9910 0.9803
-3.5570 2.8664 -1.9909 0.9803
-3.7522 2.6052 -1.9908 0.9803
-3.9284 2.3308 -1.9907 0.9803
-4.0845 2.0446 -1.9907 0.9803
-4.1548 1.8974 -1.9906 0.9803
-4.2198 1.7479 -1.9906 0.9803
-1.3722 0.4029 -0.6233 0.9938
-1.3688 0.2978 -0.6105 0.9939
-1.4180 0.2039 -0.6244 0.9938
-1.4359 0.1544 -0.6294 0.9937
-1.4490 0.1036 -0.6331 0.9937
-1.4571 0.0520 -0.6354 0.9937
4.2410 0.7652 -1.9948 0.9812
4.2109 0.9160 -1.9948 0.9812
4.1755 1.0657 -1.9947 0.9812
3.9197 1.7900 -1.9946 0.9812
3.8532 1.9288 -1.9946 0.9812
3.3548 2.7034 -1.9943 0.9812
3.0463 3.0463 -1.9942 0.9812
2.9356 3.1530 -1.9941 0.9812
2.8211 3.2557 -1.9941 0.9812
2.5815 3.4484 -1.9939 0.9812
2.4567 3.5383 -1.9939 0.9812
2.3287 3.6236 -1.9938 0.9812
2.1978 3.7043 -1.9937 0.9812
2.0642 3.7802 -1.9937 0.9812
1.7891 3.9176 -1.9935 0.9812
1.6481 3.9788 -1.9935 0.9812
1.3599 4.0859 -1.9933 0.9812
1.2132 4.1317 -1.9933 0.9812
1.0649 4.1722 -1.9932 0.9812
0.3071 4.2942 -1.9928 0.9812
0.1537 4.3023 -1.9927 0.9812
-0.1536 4.3020 -1.9926 0.9812
-0.4601 4.2797 -1.9924 0.9812
-1.0643 4.1700 -1.9921 0.9812
-1.2125 4.1292 -1.9921 0.9812
-1.5038 4.0319 -1.9919 0.9812
-1.6467 3.9756 -1.9918 0.9812
-1.7875 3.9141 -1.9918 0.9812
-2.5782 3.4440 -1.9914 0.9812
-2.6994 3.3497 -1.9913 0.9812
-2.8171 3.2511 -1.9913 0.9812
-3.2508 2.8168 -1.9911 0.9812
-3.4433 2.5776 -1.9910 0.9812
-3.5330 2.4530 -1.9909 0.9812
-3.6989 2.1946 -1.9908 0.9812
-3.7748 2.0612 -1.9908 0.9812
-3.9121 1.7866 -1.9907 0.9812
-1.1330 0.3327 -0.5466 0.9948
-1.1974 0.2160 -0.5632 0.9947
-1.2124 0.1743 -0.5670 0.9946
-1.2424 0.0444 -0.5755 0.9945
4.0665 0.0000 -1.9947 0.9820
4.0639 0.1451 -1.9947 0.9820
4.0561 0.2901 -1.9947 0.9820
4.0250 0.5787 -1.9947 0.9820
3.9400 1.0056 -1.9946 0.9820
3.9016 1.1456 -1.9946 0.9820
3.8582 1.2841 -1.9946 0.9820
3.6359 1.8200 -1.9945 0.9820
3.4204 2.1981 -1.9944 0.9820
3.1656 2.5510 -1.9942 0.9820
2.9754 2.7702 -1.9941 0.9821
2.6620 3.0721 -1.9940 0.9821
2.4359 3.2540 -1.9939 0.9821
2.1975 3.4193 -1.9937 0.9821
1.9478 3.5671 -1.9936 0.9821
1.8192 3.6343 -1.9936 0.9821
1.6882 3.6967 -1.9935 0.9821
1.2833 3.8556 -1.9933 0.9821
1.0049 3.9371 -1.9932 0.9821
0.7214 3.9985 -1.9930 0.9821
0.5782 4.0215 -1.9929 0.9821
0.0000 4.0623 -1.9927 0.9821
-0.2898 4.0517 -1.9925 0.9821
-0.5780 4.0204 -1.9924 0.9821
-1.1442 3.8966 -1.9921 0.9821
-1.4191 3.8048 -1.9920 0.9821
-1.6868 3.6937 -1.9918 0.9821
-1.8175 3.6310 -1.9918 0.9821
-2.0718 3.4918 -1.9916 0.9821
-2.1951 3.4156 -1.9916 0.9821
-2.6585 3.0681 -1.9913 0.9821
-2.7662 2.9711 -1.9913 0.9821
-2.8704 2.8704 -1.9912 0.9821
-2.9710 2.7661 -1.9912 0.9821
-3.1606 2.5470 -1.9911 0.9821
-3.4906 2.0711 -1.9909 0.9821
-1.0588 0.5300 -0.5808 0.9947
-1.0444 0.4770 -0.5632 0.9949
-1.0119 0.3774 -0.5298 0.9952
-1.0025 0.3337 -0.5183 0.9953
-1.0175 0.2987 -0.5202 0.9953
-1.0307 0.2631 -0.5218 0.9953
-1.0705 0.1151 -0.5281 0.9952
-1.0769 0.0770 -0.5296 0.9952
3.8423 0.1372 -1.9946 0.9828
3.8227 0.4110 -1.9946 0.9828
3.8056 0.5471 -1.9946 0.9828
3.7836 0.6826 -1.9946 0.9828
3.7568 0.8173 -1.9945 0.9828
3.5518 1.4712 -1.9944 0.9828
3.4377 1.7208 -1.9944 0.9828
3.3741 1.8424 -1.9943 0.9828
3.3061 1.9616 -1.9943 0.9828
3.1576 2.1924 -1.9942 0.9828
3.0773 2.3036 -1.9942 0.9828
2.9050 2.5172 -1.9941 0.9828
2.8132 2.6192 -1.9941 0.9828
2.7179 2.7179 -1.9940 0.9828
2.5169 2.9047 -1.9939 0.9828
1.7201 3.4362 -1.9935 0.9828
1.4704 3.5500 -1.9934 0.9828
1.3428 3.6001 -1.9933 0.9828
1.0824 3.6865 -1.9932 0.9828
-0.4105 3.8187 -1.9925 0.9828
-0.5466 3.8014 -1.9924 0.9828
-0.6819 3.7794 -1.9923 0.9828
-1.0819 3.6845 -1.9921 0.9828
-1.3419 3.5977 -1.9920 0.9828
-1.4694 3.5474 -1.9919 0.9828
-1.5950 3.4926 -1.9919 0.9828
-1.9590 3.3018 -1.9917 0.9828
-2.0756 3.2296 -1.9916 0.9828
-2.1895 3.1534 -1.9916 0.9828
-2.3005 3.0732 -1.9915 0.9828
-2.4087 2.9890 -1.9915 0.9829
-2.5138 2.9011 -1.9914 0.9829
-2.6157 2.8094 -1.9914 0.9829
-2.7142 2.7142 -1.9913 0.9829
-2.9886 2.4084 -1.9912 0.9829
-3.0726 2.3001 -1.9911 0.9829
-3.2287 2.0750 -1.9911 0.9829
-3.3007 1.9584 -1.9910 0.9829
-0.9326 0.4259 -0.5319 0.9954
-0.9271 0.3840 -0.5206 0.9955
-0.9208 0.3434 -0.5098 0.9956
-0.9404 0.2761 -0.5085 0.9956
-0.9524 0.2431 -0.5099 0.9956
-0.9873 0.0706 -0.5135 0.9955
-0.9893 0.0353 -0.5135 0.9955
3.6323 0.2598 -1.9945 0.9835
3.6207 0.3893 -1.9945 0.9835
3.5582 0.7741 -1.9944 0.9835
3.5283 0.9005 -1.9944 0.9835
3.4939 1.0259 -1.9944 0.9835
3.4550 1.1499 -1.9944 0.9835
3.4117 1.2725 -1.9944 0.9835
3.1314 1.8579 -1.9942 0.9835
3.0630 1.9685 -1.9942 0.9835
2.6646 2.4808 -1.9940 0.9835
2.5743 2.5743 -1.9939 0.9835
2.3839 2.7512 -1.9938 0.9835
2.2842 2.8345 -1.9938 0.9835
2.1815 2.9141 -1.9937 0.9835
1.9679 3.0622 -1.9936 0.9835
1.8573 3.1303 -1.9936 0.9835
1.6292 3.2547 -1.9935 0.9835
1.3928 3.3624 -1.9933 0.9835
1.1493 3.4530 -1.9932 0.9835
0.9000 3.5260 -1.9931 0.9835
0.6461 3.5810 -1.9930 0.9835
0.5178 3.6016 -1.9929 0.9835
0.3889 3.6177 -1.9929 0.9835
0.1299 3.6360 -1.9927 0.9835
-0.1299 3.6358 -1.9926 0.9835
-0.2595 3.6287 -1.9925 0.9835
-0.3889 3.6170 -1.9925 0.9835
-0.5177 3.6007 -1.9924 0.9835
-0.6459 3.5798 -1.9923 0.9835
-0.7732 3.5544 -1.9923 0.9835
-1.1486 3.4510 -1.9921 0.9835
-1.5108 3.3082 -1.9919 0.9836
-1.8556 3.1275 -1.9917 0.9836
-2.0739 2.9870 -1.9916 0.9836
-2.1791 2.9110 -1.9916 0.9836
-2.2816 2.8313 -1.9915 0.9836
-2.3811 2.7480 -1.9915 0.9836
-2.4776 2.6612 -1.9914 0.9836
-2.5710 2.5710 -1.9914 0.9836
-2.7477 2.3809 -1.9913 0.9836
-2.8309 2.2813 -1.9913 0.9836
-3.0583 1.9655 -1.9912 0.9836
-0.8524 0.5058 -0.5428 0.9955
-0.8507 0.4645 -0.5309 0.9956
-0.8516 0.4263 -0.5216 0.9957
-0.8603 0.2863 -0.4966 0.9959
-0.8727 0.2562 -0.4982 0.9959
-0.8837 0.2255 -0.4995 0.9958
-0.9011 0.1626 -0.5015 0.9958
-0.9077 0.1305 -0.5022 0.9958
-0.9161 0.0655 -0.5030 0.9958
-0.9179 0.0328 -0.5031 0.9958
3.4522 0.1233 -1.9944 0.9842
3.4456 0.2464 -1.9944 0.9842
3.4346 0.3692 -1.9944 0.9842
3.4192 0.4916 -1.9944 0.9842
3.3995 0.6133 -1.9944 0.9842
3.3754 0.7343 -1.9944 0.9842
3.3470 0.8543 -1.9943 0.9842
3.3143 0.9732 -1.9943 0.9842
3.2775 1.0908 -1.9943 0.9842
3.1912 1.3218 -1.9943 0.9842
3.0887 1.5461 -1.9942 0.9842
2.8371 1.9698 -1.9941 0.9842
2.7649 2.0698 -1.9940 0.9842
2.5277 2.3533 -1.9939 0.9842
2.4420 2.4420 -1.9939 0.9842
2.3532 2.5275 -1.9938 0.9842
2.2615 2.6099 -1.9938 0.9842
2.1668 2.6888 -1.9937 0.9842
2.0694 2.7644 -1.9937 0.9842
1.9694 2.8364 -1.9936 0.9842
1.5455 3.0875 -1.9934 0.9842
1.4343 3.1406 -1.9934 0.9842
1.3212 3.1897 -1.9933 0.9842
1.2065 3.2347 -1.9933 0.9842
1.0902 3.2757 -1.9932 0.9842
0.7338 3.3731 -1.9930 0.9842
0.4912 3.4167 -1.9929 0.9842
0.3690 3.4319 -1.9928 0.9842
0.1232 3.4493 -1.9927 0.9842
-0.2462 3.4424 -1.9925 0.9842
-0.3689 3.4313 -1.9925 0.9842
-0.6127 3.3960 -1.9924 0.9842
-0.8534 3.3435 -1.9922 0.9842
-0.9721 3.3108 -1.9922 0.9842
-1.6534 3.0280 -1.9918 0.9842
-1.9674 2.8337 -1.9917 0.9842
-2.0673 2.7616 -1.9916 0.9842
-2.1645 2.6860 -1.9916 0.9842
-2.5245 2.3504 -1.9914 0.9842
-2.6067 2.2587 -1.9914 0.9842
-2.6856 2.1642 -1.9913 0.9842
-0.7634 0.5300 -0.5366 0.9957
-0.7696 0.4946 -0.5282 0.9958
-0.7750 0.4599 -0.5203 0.9958
-0.7806 0.3908 -0.5040 0.9960
-0.7809 0.3566 -0.4957 0.9960
-0.7796 0.3229 -0.4872 0.9961
-0.7887 0.2942 -0.4860 0.9961
-0.8128 0.2387 -0.4891 0.9961
-0.8453 0.1215 -0.4930 0.9961
-0.8531 0.0610 -0.4938 0.9961
