ply
format ascii 1.0
element vertex 748
property float32 x
property float32 y
property float32 z
property float32 I
end_header
5.0277 8.4738 -1.6232 0.9608
5.8875 7.8647 -1.8466 0.9608
4.7047 8.6160 -1.8452 0.9608
4.3933 8.7767 -1.8448 0.9608
4.0764 8.9260 -1.8444 0.9608
3.7544 9.0640 -1.8440 0.9609
3.0969 9.3048 -1.8433 0.9609
2.4242 9.4979 -1.8425 0.9609
1.7397 9.6424 -1.8417 0.9609
1.3941 9.6962 -1.8412 0.9609
0.6985 9.7666 -1.8404 0.9609
-0.3493 9.7788 -1.8392 0.9610
-1.7358 9.6210 -1.8376 0.9610
-2.0777 9.5509 -1.8372 0.9610
-2.4167 9.4686 -1.8368 0.9610
-3.0847 9.2682 -1.8360 0.9610
-3.7365 9.0208 -1.8352 0.9610
-4.3688 8.7277 -1.8345 0.9611
-4.6766 8.5646 -1.8342 0.9611
-5.2737 8.2060 -1.8335 0.9611
-5.5622 8.0111 -1.8331 0.9611
-5.8436 7.8061 -1.8328 0.9611
9.4770 0.0000 -2.0032 0.9620
9.4708 0.3383 -2.0032 0.9620
9.3253 1.6825 -2.0030 0.9620
9.2589 2.0142 -2.0029 0.9620
8.6157 3.9346 -2.0021 0.9620
8.4690 4.2393 -2.0019 0.9620
8.1433 4.8317 -2.0015 0.9620
7.7762 5.3991 -2.0011 0.9620
7.5776 5.6725 -2.0008 0.9620
7.3694 5.9386 -2.0006 0.9620
6.6896 6.6896 -1.9998 0.9621
5.9280 7.3562 -1.9970 0.9621
5.6515 7.5495 -1.9934 0.9622
5.3459 7.6996 -1.9814 0.9624
4.9536 7.7079 -1.9368 0.9632
4.5778 7.7155 -1.8964 0.9640
3.9054 7.8020 -1.8443 0.9650
3.6238 7.9350 -1.8439 0.9650
3.3376 8.0578 -1.8436 0.9650
3.0473 8.1702 -1.8432 0.9650
2.7533 8.2722 -1.8429 0.9650
2.4558 8.3636 -1.8425 0.9650
1.8522 8.5142 -1.8418 0.9650
1.5468 8.5732 -1.8415 0.9650
0.9309 8.6583 -1.8407 0.9650
0.3107 8.6992 -1.8400 0.9650
-0.3106 8.6957 -1.8393 0.9651
-0.9298 8.6481 -1.8386 0.9651
-1.2376 8.6077 -1.8382 0.9651
-1.8478 8.4941 -1.8375 0.9651
-2.1494 8.4212 -1.8371 0.9651
-2.4481 8.3375 -1.8368 0.9651
-3.0355 8.1386 -1.8361 0.9651
-3.3235 8.0236 -1.8358 0.9651
-3.8860 7.7633 -1.8351 0.9651
-4.5789 7.7173 -1.8968 0.9640
-5.3375 7.6875 -1.9782 0.9625
-5.6164 7.5027 -1.9811 0.9624
-5.8895 7.3084 -1.9840 0.9624
-7.5105 5.6223 -1.9831 0.9624
-7.7056 5.3501 -1.9829 0.9624
-8.2309 4.4944 -1.9823 0.9624
-8.8948 2.9605 -1.9816 0.9624
-9.1590 1.9924 -1.9813 0.9624
-9.2772 1.3339 -1.9812 0.9624
-9.3485 0.6686 -1.9811 0.9624
8.5188 0.0000 -2.0021 0.9656
8.4696 0.9106 -2.0020 0.9656
8.3229 1.8106 -2.0018 0.9656
8.2526 2.1063 -2.0017 0.9656
8.1718 2.3994 -2.0016 0.9656
8.0804 2.6894 -2.0015 0.9656
7.1602 4.6016 -2.0004 0.9656
6.9907 4.8538 -2.0002 0.9656
6.8123 5.0996 -2.0000 0.9656
6.6252 5.3389 -1.9997 0.9656
6.4296 5.5713 -1.9995 0.9656
6.0143 6.0143 -1.9990 0.9657
5.3348 6.6200 -1.9982 0.9657
5.0943 6.8052 -1.9979 0.9657
4.8475 6.9817 -1.9976 0.9657
4.5945 7.1492 -1.9973 0.9657
4.3337 7.3041 -1.9960 0.9657
4.0647 7.4440 -1.9933 0.9657
3.7916 7.5747 -1.9908 0.9658
3.5146 7.6960 -1.9884 0.9658
3.1911 7.7040 -1.9598 0.9663
2.5672 7.7133 -1.9106 0.9671
1.3943 7.7282 -1.8456 0.9682
1.1148 7.7535 -1.8410 0.9683
0.8372 7.7869 -1.8407 0.9683
0.0000 7.8276 -1.8397 0.9683
-0.5582 7.8049 -1.8390 0.9684
-1.1132 7.7425 -1.8384 0.9684
-1.3940 7.7265 -1.8452 0.9683
-1.6802 7.7239 -1.8578 0.9680
-2.2662 7.7180 -1.8905 0.9675
-3.7758 7.5432 -1.9825 0.9659
-4.0466 7.4108 -1.9844 0.9659
-4.3131 7.2693 -1.9865 0.9659
-4.8199 6.9421 -1.9862 0.9659
-6.7580 5.0590 -1.9840 0.9659
-6.9336 4.8141 -1.9838 0.9659
-7.4065 4.0443 -1.9833 0.9659
-7.7947 3.2287 -1.9829 0.9659
-7.9045 2.9482 -1.9827 0.9659
-8.0042 2.6641 -1.9826 0.9659
-8.0938 2.3766 -1.9825 0.9659
-8.2421 1.7930 -1.9824 0.9659
-8.3006 1.4976 -1.9823 0.9659
-8.3859 0.9016 -1.9822 0.9659
7.7290 0.0000 -2.0012 0.9686
7.7241 0.2759 -2.0012 0.9686
7.7092 0.5514 -2.0011 0.9686
7.6845 0.8262 -2.0011 0.9686
7.6499 1.0999 -2.0011 0.9686
7.4877 1.9111 -2.0008 0.9686
7.2393 2.7001 -2.0005 0.9686
6.9078 3.4578 -2.0001 0.9686
6.3432 4.4042 -1.9994 0.9686
6.0116 4.8445 -1.9990 0.9686
5.8343 5.0554 -1.9988 0.9686
5.6495 5.2599 -1.9986 0.9686
5.4575 5.4575 -1.9984 0.9686
5.0530 5.8315 -1.9979 0.9686
4.8411 6.0074 -1.9976 0.9686
4.3990 6.3358 -1.9971 0.9686
4.1695 6.4878 -1.9968 0.9686
2.9492 7.1199 -1.9954 0.9687
2.1677 7.3826 -1.9922 0.9687
1.3635 7.5572 -1.9883 0.9688
1.0923 7.5972 -1.9873 0.9688
0.8201 7.6281 -1.9864 0.9688
0.5471 7.6499 -1.9857 0.9688
-0.2736 7.6601 -1.9846 0.9688
-0.5468 7.6453 -1.9845 0.9688
-0.8194 7.6212 -1.9846 0.9688
-1.0910 7.5881 -1.9849 0.9688
-1.3614 7.5458 -1.9853 0.9688
-1.6303 7.4945 -1.9858 0.9688
-2.1626 7.3650 -1.9874 0.9688
-2.6842 7.1967 -1.9887 0.9688
-2.9389 7.0952 -1.9884 0.9688
-3.6790 6.7375 -1.9876 0.9688
-4.1491 6.4561 -1.9870 0.9688
-4.3763 6.3031 -1.9868 0.9688
-4.5979 6.1421 -1.9865 0.9688
-4.8136 5.9733 -1.9863 0.9688
-5.0231 5.7970 -1.9860 0.9688
-5.4226 5.4227 -1.9856 0.9688
-5.7944 5.0209 -1.9852 0.9688
-5.9694 4.8104 -1.9850 0.9688
-6.4476 4.1436 -1.9844 0.9688
-6.5909 3.9105 -1.9843 0.9688
-6.8520 3.4299 -1.9840 0.9688
-7.0784 2.9320 -1.9837 0.9688
-7.1781 2.6773 -1.9836 0.9688
-7.2687 2.4193 -1.9835 0.9688
-7.3501 2.1582 -1.9834 0.9688
-7.4222 1.8944 -1.9833 0.9688
-7.4848 1.6282 -1.9833 0.9688
-7.5380 1.3600 -1.9832 0.9688
-7.5816 1.0901 -1.9832 0.9688
-7.6155 0.8188 -1.9832 0.9688
-7.6544 0.2734 -1.9831 0.9688
7.0663 0.0000 -2.0004 0.9711
7.0255 0.7553 -2.0003 0.9711
6.9040 1.5019 -2.0002 0.9711
6.7787 1.9904 -2.0000 0.9711
6.1984 3.3846 -1.9993 0.9711
6.0732 3.6034 -1.9991 0.9711
5.7997 4.0268 -1.9988 0.9711
5.6518 4.2308 -1.9986 0.9711
5.4966 4.4295 -1.9984 0.9711
5.1656 4.8094 -1.9980 0.9711
4.9901 4.9901 -1.9978 0.9711
4.8083 5.1645 -1.9976 0.9711
4.6204 5.3322 -1.9974 0.9711
4.4266 5.4931 -1.9971 0.9711
3.8127 5.9326 -1.9964 0.9711
3.5980 6.0642 -1.9961 0.9711
2.9280 6.4114 -1.9954 0.9711
2.6969 6.5110 -1.9951 0.9711
2.2250 6.6849 -1.9945 0.9711
1.9847 6.7591 -1.9942 0.9711
1.2502 6.9295 -1.9934 0.9712
1.0020 6.9687 -1.9931 0.9712
0.7525 6.9990 -1.9928 0.9712
0.2512 7.0327 -1.9922 0.9712
0.0000 7.0362 -1.9919 0.9712
-0.2511 7.0307 -1.9916 0.9712
-0.7518 6.9928 -1.9910 0.9712
-1.0008 6.9605 -1.9907 0.9712
-1.2484 6.9193 -1.9904 0.9712
-1.4943 6.8694 -1.9901 0.9712
-1.7383 6.8107 -1.9899 0.9712
-2.2191 6.6674 -1.9893 0.9712
-3.5828 6.0385 -1.9877 0.9712
-4.2063 5.6189 -1.9870 0.9712
-4.4036 5.4646 -1.9868 0.9712
-4.9610 4.9610 -1.9861 0.9713
-5.8989 3.7910 -1.9851 0.9713
-6.1535 3.3601 -1.9848 0.9713
-6.3767 2.9121 -1.9845 0.9713
-6.5675 2.4496 -1.9843 0.9713
-6.6505 2.2135 -1.9842 0.9713
-6.7250 1.9746 -1.9842 0.9713
-6.8483 1.4897 -1.9840 0.9713
-6.8969 1.2444 -1.9840 0.9713
-6.9679 0.7491 -1.9839 0.9713
-6.9901 0.4999 -1.9839 0.9713
6.4849 0.4638 -1.9997 0.9732
6.4641 0.6950 -1.9997 0.9732
6.4351 0.9252 -1.9996 0.9732
6.3978 1.1543 -1.9996 0.9732
6.3523 1.3819 -1.9995 0.9732
6.2371 1.8314 -1.9994 0.9732
6.1675 2.0527 -1.9993 0.9732
6.0900 2.2714 -1.9992 0.9732
6.0047 2.4872 -1.9991 0.9732
5.9118 2.6998 -1.9990 0.9732
5.8113 2.9089 -1.9988 0.9732
5.7034 3.1143 -1.9987 0.9732
5.5882 3.3156 -1.9986 0.9732
5.4659 3.5127 -1.9984 0.9732
5.2005 3.8930 -1.9981 0.9732
4.7533 4.4254 -1.9976 0.9732
4.4246 4.7523 -1.9972 0.9732
4.2517 4.9067 -1.9970 0.9732
3.8900 5.1964 -1.9965 0.9732
3.7016 5.3313 -1.9963 0.9732
3.3111 5.5805 -1.9958 0.9732
3.1094 5.6944 -1.9956 0.9732
2.6946 5.9003 -1.9951 0.9732
2.2662 6.0759 -1.9946 0.9732
2.0476 6.1522 -1.9943 0.9732
1.8265 6.2205 -1.9941 0.9732
1.6031 6.2809 -1.9938 0.9732
1.3777 6.3333 -1.9935 0.9732
0.6925 6.4416 -1.9927 0.9733
0.4621 6.4614 -1.9925 0.9733
-0.2311 6.4711 -1.9916 0.9733
-0.4619 6.4579 -1.9914 0.9733
-1.8226 6.2071 -1.9898 0.9733
-2.0427 6.1373 -1.9895 0.9733
-2.4747 5.9745 -1.9890 0.9733
-2.8939 5.7813 -1.9885 0.9733
-3.0980 5.6736 -1.9883 0.9733
-3.2982 5.5588 -1.9881 0.9733
-3.6855 5.3082 -1.9876 0.9733
-3.8722 5.1727 -1.9874 0.9733
-4.0539 5.0307 -1.9872 0.9733
-4.8804 4.2289 -1.9863 0.9733
-5.0278 4.0517 -1.9861 0.9733
-5.1688 3.8693 -1.9859 0.9733
-5.5516 3.2939 -1.9855 0.9733
-5.8709 2.6811 -1.9851 0.9734
-6.3051 1.3716 -1.9847 0.9734
-6.4357 0.4603 -1.9845 0.9734
6.0143 -0.0000 -1.9992 0.9750
5.9988 0.4291 -1.9991 0.9750
5.9796 0.6429 -1.9991 0.9750
5.9528 0.8559 -1.9991 0.9750
5.8762 1.2783 -1.9990 0.9750
5.7697 1.6941 -1.9988 0.9750
5.4688 2.4975 -1.9985 0.9750
5.3759 2.6910 -1.9983 0.9750
5.1695 3.0672 -1.9981 0.9750
5.0564 3.2496 -1.9979 0.9750
4.9369 3.4277 -1.9978 0.9750
4.6790 3.7706 -1.9975 0.9750
4.3973 4.0941 -1.9971 0.9750
4.2480 4.2480 -1.9970 0.9750
4.0933 4.3965 -1.9968 0.9750
3.7685 4.6764 -1.9964 0.9750
3.5988 4.8075 -1.9962 0.9750
3.2460 5.0509 -1.9958 0.9750
3.0633 5.1630 -1.9956 0.9750
2.4930 5.4590 -1.9949 0.9750
1.2748 5.8599 -1.9934 0.9750
0.8532 5.9345 -1.9929 0.9750
0.6408 5.9604 -1.9927 0.9750
0.4276 5.9787 -1.9924 0.9751
0.2139 5.9894 -1.9922 0.9751
0.0000 5.9925 -1.9919 0.9751
-0.4274 5.9757 -1.9914 0.9751
-1.4807 5.8013 -1.9902 0.9751
-1.6866 5.7440 -1.9900 0.9751
-1.8903 5.6795 -1.9897 0.9751
-2.2901 5.5289 -1.9893 0.9751
-2.4857 5.4430 -1.9890 0.9751
-2.6781 5.3502 -1.9888 0.9751
-2.8671 5.2506 -1.9886 0.9751
-3.0523 5.1444 -1.9884 0.9751
-3.9153 4.5185 -1.9874 0.9751
-4.2269 4.2269 -1.9870 0.9751
-4.3747 4.0730 -1.9869 0.9751
-4.6534 3.7499 -1.9865 0.9751
-5.0265 3.2303 -1.9861 0.9751
-5.1382 3.0487 -1.9860 0.9751
-5.3420 2.6740 -1.9858 0.9751
-5.5965 2.0874 -1.9855 0.9751
-5.6672 1.8862 -1.9854 0.9751
-5.7307 1.6827 -1.9853 0.9751
-5.8358 1.2695 -1.9852 0.9751
-5.8773 1.0604 -1.9852 0.9751
-5.9378 0.6384 -1.9851 0.9751
-5.9567 0.4260 -1.9851 0.9751
-5.9681 0.2132 -1.9851 0.9751
5.5890 0.0000 -1.9987 0.9765
5.5854 0.1995 -1.9987 0.9765
5.5568 0.5974 -1.9986 0.9765
5.4608 1.1879 -1.9985 0.9765
5.3618 1.5744 -1.9984 0.9765
5.3020 1.7647 -1.9983 0.9765
5.2354 1.9527 -1.9982 0.9765
5.1621 2.1382 -1.9981 0.9765
5.0823 2.3210 -1.9980 0.9765
4.9959 2.5008 -1.9979 0.9765
4.5880 3.1855 -1.9974 0.9766
4.3484 3.5042 -1.9971 0.9766
4.0867 3.8049 -1.9968 0.9766
3.9480 3.9480 -1.9966 0.9766
3.8042 4.0860 -1.9965 0.9766
3.6556 4.2188 -1.9963 0.9766
3.5024 4.3462 -1.9961 0.9766
3.3447 4.4680 -1.9959 0.9766
2.8471 4.7985 -1.9953 0.9766
1.5708 5.3495 -1.9938 0.9766
1.3787 5.4016 -1.9936 0.9766
0.9896 5.4849 -1.9931 0.9766
0.7931 5.5161 -1.9929 0.9766
0.5956 5.5402 -1.9926 0.9766
0.3975 5.5573 -1.9924 0.9766
0.1988 5.5673 -1.9922 0.9766
0.0000 5.5702 -1.9919 0.9766
-1.5679 5.3397 -1.9901 0.9766
-2.3108 5.0600 -1.9892 0.9766
-2.6653 4.8812 -1.9888 0.9767
-2.8376 4.7825 -1.9886 0.9767
-3.1709 4.5670 -1.9883 0.9767
-3.3316 4.4505 -1.9881 0.9767
-3.4880 4.3283 -1.9879 0.9767
-3.9297 3.9297 -1.9874 0.9767
-4.1994 3.6388 -1.9871 0.9767
-4.3263 3.4863 -1.9869 0.9767
-4.7772 2.8344 -1.9864 0.9767
-4.8750 2.6620 -1.9863 0.9767
-4.9667 2.4861 -1.9862 0.9767
-5.0520 2.3072 -1.9861 0.9767
-5.1309 2.1253 -1.9860 0.9767
-5.2033 1.9407 -1.9859 0.9767
-5.2691 1.7537 -1.9859 0.9767
-5.3281 1.5645 -1.9858 0.9767
-5.3804 1.3733 -1.9858 0.9767
-5.5207 0.5935 -1.9856 0.9767
-5.5383 0.3961 -1.9856 0.9767
-5.5489 0.1982 -1.9856 0.9767
5.2144 0.0000 -1.9982 0.9779
5.2110 0.1861 -1.9982 0.9779
5.2010 0.3720 -1.9982 0.9779
5.1611 0.7421 -1.9982 0.9779
5.1312 0.9258 -1.9981 0.9779
5.0947 1.1083 -1.9981 0.9779
5.0024 1.4688 -1.9979 0.9779
4.8162 1.9949 -1.9977 0.9779
4.7417 2.1654 -1.9976 0.9779
4.4823 2.6595 -1.9973 0.9779
4.2806 2.9721 -1.9970 0.9779
3.6836 3.6836 -1.9963 0.9779
3.2679 4.0552 -1.9958 0.9779
3.1208 4.1689 -1.9956 0.9779
2.9697 4.2772 -1.9955 0.9779
2.6565 4.4774 -1.9951 0.9779
2.4948 4.5689 -1.9949 0.9779
2.1621 4.7343 -1.9945 0.9780
1.8185 4.8755 -1.9941 0.9780
1.2865 5.0403 -1.9935 0.9780
1.1056 5.0825 -1.9933 0.9780
0.9234 5.1182 -1.9930 0.9780
0.7401 5.1473 -1.9928 0.9780
0.5558 5.1699 -1.9926 0.9780
0.3709 5.1858 -1.9924 0.9780
0.1855 5.1952 -1.9922 0.9780
-0.1855 5.1941 -1.9917 0.9780
-0.5555 5.1665 -1.9913 0.9780
-0.7394 5.1428 -1.9911 0.9780
-0.9224 5.1126 -1.9909 0.9780
-1.9869 4.7967 -1.9896 0.9780
-2.1566 4.7223 -1.9894 0.9780
-2.4875 4.5555 -1.9891 0.9780
-2.6483 4.4634 -1.9889 0.9780
-2.8056 4.3656 -1.9887 0.9780
-2.9594 4.2623 -1.9885 0.9780
-3.2554 4.0397 -1.9882 0.9780
-3.6677 3.6677 -1.9877 0.9780
-3.9194 3.3962 -1.9874 0.9780
-4.1511 3.1075 -1.9871 0.9780
-4.2591 2.9572 -1.9870 0.9780
-4.3617 2.8031 -1.9869 0.9780
-4.4588 2.6455 -1.9868 0.9780
-4.5501 2.4846 -1.9867 0.9780
-4.7153 2.1534 -1.9865 0.9780
-4.8566 1.8114 -1.9864 0.9780
-5.0643 1.1017 -1.9861 0.9780
-5.1299 0.7376 -1.9861 0.9780
-5.1529 0.5540 -1.9861 0.9780
-5.1693 0.3697 -1.9860 0.9780
4.8814 0.0000 -1.9978 0.9791
4.8783 0.1742 -1.9978 0.9791
4.8689 0.3482 -1.9978 0.9791
4.8315 0.6947 -1.9978 0.9791
4.6308 1.5413 -1.9975 0.9791
4.5727 1.7055 -1.9974 0.9791
4.5087 1.8676 -1.9973 0.9791
4.3636 2.1843 -1.9972 0.9791
4.1962 2.4897 -1.9970 0.9791
4.1045 2.6378 -1.9969 0.9791
3.7983 3.0608 -1.9965 0.9791
3.6864 3.1943 -1.9963 0.9791
3.4486 3.4486 -1.9961 0.9791
2.7804 4.0045 -1.9953 0.9792
2.6354 4.1008 -1.9951 0.9792
2.3358 4.2776 -1.9947 0.9792
1.7026 4.5648 -1.9940 0.9792
1.5384 4.6222 -1.9938 0.9792
1.2045 4.7192 -1.9934 0.9792
0.8646 4.7922 -1.9930 0.9792
0.5204 4.8407 -1.9926 0.9792
0.0000 4.8671 -1.9920 0.9792
-0.5201 4.8377 -1.9914 0.9792
-0.8637 4.7873 -1.9910 0.9792
-1.0339 4.7529 -1.9908 0.9792
-1.2028 4.7125 -1.9906 0.9792
-1.3701 4.6662 -1.9904 0.9792
-1.6992 4.5557 -1.9900 0.9792
-1.8605 4.4917 -1.9898 0.9792
-2.0195 4.4220 -1.9896 0.9792
-2.1758 4.3467 -1.9894 0.9792
-2.3293 4.2659 -1.9892 0.9792
-2.4799 4.1796 -1.9891 0.9792
-2.6273 4.0881 -1.9889 0.9792
-3.0485 3.7829 -1.9884 0.9792
-3.1813 3.6715 -1.9883 0.9792
-3.5548 3.3096 -1.9878 0.9792
-3.6704 3.1804 -1.9877 0.9792
-3.7814 3.0472 -1.9876 0.9792
-3.8875 2.9101 -1.9875 0.9792
-4.0847 2.6251 -1.9872 0.9792
-4.2612 2.3268 -1.9870 0.9792
-4.3413 2.1731 -1.9870 0.9792
-4.4159 2.0167 -1.9869 0.9792
-4.4849 1.8577 -1.9868 0.9792
-4.6573 1.3675 -1.9866 0.9792
-4.7031 1.2004 -1.9866 0.9792
-4.7765 0.8618 -1.9865 0.9792
-4.8257 0.5188 -1.9864 0.9792
-4.8504 0.1733 -1.9864 0.9792
4.5833 0.0000 -1.9975 0.9802
4.5716 0.3270 -1.9975 0.9802
4.5365 0.6522 -1.9974 0.9802
4.4783 0.9742 -1.9973 0.9802
4.4405 1.1334 -1.9973 0.9802
4.1680 1.9035 -1.9969 0.9802
4.0972 2.0509 -1.9969 0.9802
4.0212 2.1958 -1.9968 0.9802
3.7629 2.6126 -1.9965 0.9802
3.5665 2.8740 -1.9962 0.9802
3.4614 2.9993 -1.9961 0.9802
2.7436 3.6650 -1.9952 0.9802
2.6108 3.7603 -1.9951 0.9802
2.0484 4.0922 -1.9944 0.9802
1.7509 4.2271 -1.9940 0.9802
1.4446 4.3405 -1.9937 0.9802
1.1311 4.4317 -1.9933 0.9802
0.9721 4.4688 -1.9931 0.9802
0.8119 4.5002 -1.9929 0.9802
0.4887 4.5458 -1.9925 0.9802
0.1632 4.5682 -1.9922 0.9803
0.0000 4.5707 -1.9920 0.9803
-0.1631 4.5673 -1.9918 0.9803
-0.3260 4.5582 -1.9916 0.9803
-0.4884 4.5432 -1.9914 0.9803
-0.6502 4.5224 -1.9912 0.9803
-0.8111 4.4959 -1.9910 0.9803
-0.9710 4.4637 -1.9908 0.9803
-1.1296 4.4258 -1.9907 0.9803
-1.2867 4.3822 -1.9905 0.9803
-1.5958 4.2785 -1.9901 0.9803
-1.7473 4.2184 -1.9899 0.9803
-1.8966 4.1530 -1.9898 0.9803
-2.0435 4.0823 -1.9896 0.9803
-2.1877 4.0064 -1.9894 0.9803
-2.7347 3.6532 -1.9888 0.9803
-2.9879 3.4483 -1.9885 0.9803
-3.3387 3.1085 -1.9881 0.9803
-3.4473 2.9871 -1.9880 0.9803
-3.5516 2.8620 -1.9879 0.9803
-3.7463 2.6011 -1.9876 0.9803
-4.0775 2.0411 -1.9873 0.9803
-4.1476 1.8942 -1.9872 0.9803
-1.3400 0.3420 -0.6027 0.9940
-1.3688 0.2978 -0.6105 0.9939
-1.4490 0.1036 -0.6331 0.9937
4.3036 0.3078 -1.9972 0.9812
4.2459 0.7660 -1.9971 0.9812
4.1802 1.0669 -1.9970 0.9812
4.0932 1.3624 -1.9969 0.9812
4.0419 1.5075 -1.9968 0.9812
3.9237 1.7919 -1.9967 0.9812
3.7856 2.0671 -1.9965 0.9812
3.5424 2.4595 -1.9962 0.9812
2.8229 3.2578 -1.9953 0.9812
2.5829 3.4503 -1.9950 0.9812
2.4579 3.5400 -1.9949 0.9812
2.0649 3.7816 -1.9944 0.9812
1.9285 3.8526 -1.9943 0.9812
1.5052 4.0357 -1.9938 0.9812
1.3601 4.0865 -1.9936 0.9812
1.0649 4.1724 -1.9932 0.9812
0.9153 4.2073 -1.9931 0.9812
0.7644 4.2369 -1.9929 0.9812
0.1536 4.3010 -1.9922 0.9812
0.0000 4.3034 -1.9920 0.9812
-0.1536 4.3003 -1.9918 0.9812
-0.6122 4.2581 -1.9913 0.9812
-0.7637 4.2331 -1.9911 0.9812
-1.2115 4.1262 -1.9906 0.9812
-1.3579 4.0799 -1.9904 0.9812
-1.6453 3.9720 -1.9901 0.9812
-1.7858 3.9104 -1.9899 0.9812
-1.9241 3.8439 -1.9897 0.9812
-2.0599 3.7725 -1.9896 0.9812
-2.4508 3.5298 -1.9891 0.9812
-2.5751 3.4399 -1.9890 0.9812
-2.6960 3.3455 -1.9888 0.9812
-2.9274 3.1443 -1.9886 0.9812
-3.2462 2.8128 -1.9882 0.9812
-3.3443 2.6950 -1.9881 0.9812
-3.6127 2.3217 -1.9878 0.9812
-3.7688 2.0579 -1.9876 0.9813
-3.9057 1.7837 -1.9875 0.9813
-1.2345 0.5114 -0.6185 0.9941
-1.1536 0.3840 -0.5628 0.9947
-1.1330 0.3327 -0.5466 0.9948
-1.1974 0.2160 -0.5632 0.9947
-1.2124 0.1743 -0.5670 0.9946
-1.2261 0.1318 -0.5708 0.9946
-1.2362 0.0884 -0.5737 0.9946
4.0683 0.1453 -1.9969 0.9820
4.0605 0.2904 -1.9969 0.9820
4.0475 0.4352 -1.9969 0.9820
4.0294 0.5793 -1.9968 0.9820
3.9776 0.8653 -1.9968 0.9820
3.9056 1.1468 -1.9967 0.9820
3.8621 1.2854 -1.9966 0.9820
3.7022 1.6907 -1.9964 0.9820
3.3424 2.3207 -1.9960 0.9820
3.2573 2.4384 -1.9959 0.9820
3.1680 2.5529 -1.9958 0.9820
2.7718 2.9771 -1.9953 0.9820
2.4372 3.2557 -1.9949 0.9820
2.3192 3.3403 -1.9947 0.9820
2.1984 3.4208 -1.9946 0.9820
2.0747 3.4968 -1.9944 0.9820
1.9485 3.5683 -1.9943 0.9820
1.8197 3.6353 -1.9941 0.9821
1.2834 3.8561 -1.9935 0.9821
0.8637 3.9702 -1.9930 0.9821
0.7213 3.9981 -1.9928 0.9821
0.5781 4.0210 -1.9927 0.9821
0.1450 4.0587 -1.9922 0.9821
0.0000 4.0609 -1.9920 0.9821
-0.1449 4.0580 -1.9918 0.9821
-0.2897 4.0499 -1.9916 0.9821
-1.0037 3.9325 -1.9908 0.9821
-1.4180 3.8017 -1.9903 0.9821
-1.6853 3.6903 -1.9900 0.9821
-1.9440 3.5602 -1.9897 0.9821
-2.0697 3.4882 -1.9896 0.9821
-2.3129 3.3312 -1.9893 0.9821
-2.4302 3.2464 -1.9892 0.9821
-2.9671 2.7624 -1.9885 0.9821
-3.0636 2.6546 -1.9884 0.9821
-3.1562 2.5434 -1.9883 0.9821
-3.2448 2.4290 -1.9882 0.9821
-3.3293 2.3116 -1.9881 0.9821
-3.4854 2.0680 -1.9880 0.9821
-3.5569 1.9422 -1.9879 0.9821
-1.0588 0.5300 -0.5808 0.9947
-1.0119 0.3774 -0.5298 0.9952
-1.0307 0.2631 -0.5218 0.9953
-1.0705 0.1151 -0.5281 0.9952
-1.0803 0.0386 -0.5302 0.9952
3.8487 0.0000 -1.9966 0.9828
3.8462 0.1374 -1.9966 0.9828
3.8389 0.2746 -1.9966 0.9828
3.8266 0.4114 -1.9966 0.9828
3.8094 0.5477 -1.9966 0.9828
3.6513 1.2153 -1.9964 0.9828
3.6055 1.3448 -1.9963 0.9828
3.5551 1.4725 -1.9962 0.9828
3.5001 1.5984 -1.9962 0.9828
3.4407 1.7223 -1.9961 0.9828
3.3769 1.8439 -1.9960 0.9828
3.2365 2.0800 -1.9958 0.9828
3.0796 2.3053 -1.9957 0.9828
2.9952 2.4136 -1.9956 0.9828
2.9069 2.5189 -1.9954 0.9828
2.7195 2.7195 -1.9952 0.9828
2.6206 2.8147 -1.9951 0.9828
2.5183 2.9063 -1.9950 0.9828
2.4128 2.9941 -1.9949 0.9828
2.3042 3.0781 -1.9947 0.9828
2.1928 3.1582 -1.9946 0.9828
2.0785 3.2342 -1.9945 0.9828
1.9616 3.3061 -1.9943 0.9828
1.8422 3.3738 -1.9942 0.9828
1.7205 3.4371 -1.9940 0.9828
1.5966 3.4961 -1.9939 0.9828
1.4707 3.5506 -1.9937 0.9828
1.3429 3.6005 -1.9936 0.9828
0.9501 3.7226 -1.9931 0.9828
0.8166 3.7538 -1.9930 0.9828
0.5466 3.8019 -1.9926 0.9828
0.2740 3.8306 -1.9923 0.9828
0.0000 3.8398 -1.9920 0.9828
-0.8158 3.7502 -1.9910 0.9829
-1.2117 3.6407 -1.9906 0.9829
-1.3408 3.5949 -1.9904 0.9829
-1.4682 3.5444 -1.9903 0.9829
-1.5936 3.4895 -1.9901 0.9829
-1.7170 3.4302 -1.9900 0.9829
-1.9571 3.2985 -1.9897 0.9829
-2.0734 3.2263 -1.9896 0.9829
-2.2980 3.0698 -1.9893 0.9829
-2.5108 2.8977 -1.9891 0.9829
-2.6125 2.8061 -1.9890 0.9829
-2.7108 2.7108 -1.9889 0.9829
-2.8970 2.5103 -1.9886 0.9829
-3.1483 2.1859 -1.9884 0.9829
-3.2959 1.9556 -1.9882 0.9829
-0.9486 0.5180 -0.5607 0.9951
-0.9326 0.4259 -0.5319 0.9954
-0.9271 0.3840 -0.5206 0.9955
-0.9208 0.3434 -0.5098 0.9956
-0.9268 0.3085 -0.5067 0.9956
-0.9715 0.1753 -0.5121 0.9956
-0.9838 0.1058 -0.5133 0.9956
-0.9873 0.0706 -0.5135 0.9955
3.6450 0.0000 -1.9964 0.9835
3.6427 0.1301 -1.9964 0.9835
3.6357 0.2600 -1.9964 0.9835
3.6241 0.3896 -1.9964 0.9835
3.6078 0.5187 -1.9963 0.9835
3.5615 0.7748 -1.9963 0.9835
3.5315 0.9014 -1.9962 0.9835
3.4147 1.2736 -1.9961 0.9835
3.3669 1.3946 -1.9960 0.9835
3.1982 1.7464 -1.9958 0.9835
2.9166 2.1834 -1.9955 0.9835
2.7532 2.3856 -1.9953 0.9835
2.5757 2.5757 -1.9951 0.9835
2.3851 2.7526 -1.9948 0.9835
2.1824 2.9154 -1.9946 0.9835
1.8579 3.1313 -1.9942 0.9835
1.7448 3.1954 -1.9941 0.9835
1.6296 3.2554 -1.9939 0.9835
1.2720 3.4103 -1.9935 0.9835
0.8999 3.5259 -1.9931 0.9835
0.5178 3.6011 -1.9926 0.9835
0.2595 3.6283 -1.9923 0.9835
0.1298 3.6350 -1.9922 0.9835
-0.2594 3.6272 -1.9917 0.9836
-0.3887 3.6154 -1.9915 0.9836
-0.5174 3.5989 -1.9914 0.9836
-0.6455 3.5779 -1.9912 0.9836
-0.8990 3.5222 -1.9910 0.9836
-1.0240 3.4876 -1.9908 0.9836
-1.1478 3.4486 -1.9907 0.9836
-1.8538 3.1245 -1.9898 0.9836
-2.1768 2.9079 -1.9895 0.9836
-2.4747 2.6581 -1.9891 0.9836
-2.5679 2.5679 -1.9890 0.9836
-2.6578 2.4745 -1.9889 0.9836
-2.7443 2.3779 -1.9888 0.9836
-2.8273 2.2784 -1.9887 0.9836
-2.9067 2.1759 -1.9886 0.9836
-2.9823 2.0707 -1.9886 0.9836
-0.8507 0.4645 -0.5309 0.9956
-0.8465 0.3157 -0.4948 0.9959
-0.8603 0.2863 -0.4966 0.9959
-0.8837 0.2256 -0.4995 0.9958
-0.8932 0.1943 -0.5006 0.9958
-0.9011 0.1626 -0.5015 0.9958
-0.9077 0.1305 -0.5022 0.9958
-0.9161 0.0655 -0.5030 0.9958
-0.9179 0.0328 -0.5031 0.9958
3.4486 0.2467 -1.9962 0.9842
3.4024 0.6139 -1.9961 0.9842
3.2801 1.0917 -1.9959 0.9842
3.2390 1.2081 -1.9959 0.9842
3.1937 1.3229 -1.9958 0.9842
3.1444 1.4360 -1.9958 0.9842
3.0910 1.5472 -1.9957 0.9842
2.9076 1.8686 -1.9955 0.9842
2.6908 2.1684 -1.9952 0.9842
2.5290 2.3546 -1.9950 0.9842
2.4433 2.4433 -1.9949 0.9842
2.2625 2.6110 -1.9947 0.9842
2.1677 2.6900 -1.9946 0.9842
1.8674 2.9058 -1.9942 0.9842
1.7624 2.9704 -1.9941 0.9842
1.6552 3.0312 -1.9940 0.9842
1.4345 3.1411 -1.9937 0.9842
1.3214 3.1901 -1.9936 0.9842
1.2066 3.2350 -1.9934 0.9842
0.9726 3.3124 -1.9932 0.9842
0.8537 3.3448 -1.9930 0.9842
0.4912 3.4161 -1.9926 0.9842
0.3689 3.4312 -1.9924 0.9842
0.2462 3.4420 -1.9923 0.9842
-0.1231 3.4478 -1.9919 0.9842
-0.2461 3.4410 -1.9917 0.9842
-0.6124 3.3942 -1.9913 0.9842
-0.7331 3.3700 -1.9912 0.9842
-0.8528 3.3414 -1.9910 0.9842
-0.9715 3.3086 -1.9909 0.9842
-1.0889 3.2716 -1.9907 0.9842
-1.2049 3.2304 -1.9906 0.9842
-1.4321 3.1358 -1.9903 0.9842
-1.5430 3.0825 -1.9902 0.9842
-1.6519 3.0253 -1.9901 0.9842
-1.9655 2.8308 -1.9897 0.9842
-2.0652 2.7587 -1.9896 0.9842
-2.1622 2.6831 -1.9895 0.9842
-2.5215 2.3476 -1.9891 0.9842
-2.6036 2.2560 -1.9890 0.9842
-2.6823 2.1616 -1.9889 0.9842
-2.7576 2.0644 -1.9888 0.9842
-0.7696 0.4946 -0.5282 0.9958
-0.7809 0.3566 -0.4957 0.9960
-0.7796 0.3229 -0.4872 0.9961
-0.8014 0.2667 -0.4876 0.9961
-0.8128 0.2387 -0.4891 0.9961
-0.8393 0.1514 -0.4924 0.9961
