ply
format ascii 1.0
element vertex 799
property float32 x
property float32 y
property float32 z
property float32 I
end_header
5.1553 5.9495 -0.7558 0.9689
4.8224 5.9842 -0.7378 0.9696
4.5832 6.1225 -0.7342 0.9697
6.7789 5.8740 -1.0655 0.9645
6.4645 6.0187 -1.0492 0.9650
5.7543 5.7543 -0.9667 0.9678
5.0982 5.8837 -0.9248 0.9691
4.3367 6.2460 -0.9032 0.9698
4.2798 6.6595 -0.9403 0.9686
4.2097 7.0950 -0.9800 0.9673
7.7466 5.7990 -1.3711 0.9617
6.6254 5.7410 -1.2421 0.9652
6.1700 5.7445 -1.1945 0.9665
5.7589 5.7589 -1.1540 0.9676
5.3791 5.7775 -1.1185 0.9686
4.3743 5.8434 -1.0342 0.9709
4.1320 5.9512 -1.0265 0.9712
3.9120 6.5934 -1.0863 0.9695
3.3456 7.3259 -1.1411 0.9680
-5.0482 8.5082 -1.4017 0.9608
7.1579 5.7682 -1.5144 0.9634
4.6445 5.7635 -1.2194 0.9704
4.3077 5.7544 -1.1842 0.9713
3.7190 5.7869 -1.1332 0.9725
3.4504 5.8153 -1.1139 0.9730
3.2981 6.5887 -1.2138 0.9706
3.2806 7.1836 -1.3010 0.9685
-0.7094 6.5981 -1.0932 0.9735
-0.9450 6.5724 -1.0939 0.9734
5.3917 5.7911 -1.4872 0.9683
4.6676 5.7921 -1.3982 0.9702
4.3368 5.7933 -1.3602 0.9710
3.6967 5.7522 -1.2852 0.9726
3.4167 5.7585 -1.2585 0.9731
3.2711 6.5349 -1.3736 0.9707
3.3296 7.2908 -1.5065 0.9679
3.7035 8.9411 -1.8190 0.9614
2.7362 9.3187 -1.8255 0.9612
2.4048 9.4219 -1.8277 0.9612
1.7308 9.5930 -1.8322 0.9611
1.3890 9.6607 -1.8345 0.9611
1.0446 9.7163 -1.8368 0.9610
-0.4974 6.9548 -1.3106 0.9720
-0.7387 6.8709 -1.2989 0.9723
-0.9384 6.5267 -1.2394 0.9735
-1.1567 6.4114 -1.2246 0.9738
-1.3688 6.2924 -1.2104 0.9741
9.1306 0.6530 -1.9350 0.9633
9.1024 0.9786 -1.9352 0.9633
8.6985 2.8951 -1.9378 0.9632
8.4763 3.5110 -1.9393 0.9632
8.3492 3.8129 -1.9402 0.9632
7.9058 4.6908 -1.9431 0.9631
7.7378 4.9728 -1.9443 0.9631
7.5600 5.2490 -1.9455 0.9631
7.3726 5.5191 -1.9467 0.9630
6.9697 6.0393 -1.9494 0.9630
6.7547 6.2889 -1.9508 0.9630
5.4235 5.8253 -1.6824 0.9680
5.0516 5.8298 -1.6306 0.9690
4.3502 5.8112 -1.5344 0.9708
3.6994 5.7564 -1.4464 0.9724
3.2088 5.8765 -1.4153 0.9730
3.2981 7.9623 -1.8217 0.9654
3.0149 8.0833 -1.8236 0.9653
2.7274 8.1945 -1.8256 0.9653
2.4358 8.2954 -1.8275 0.9653
1.5401 8.5362 -1.8335 0.9652
1.2358 8.5952 -1.8355 0.9651
0.9293 8.6435 -1.8376 0.9651
0.6209 8.6809 -1.8396 0.9650
0.0000 7.0771 -1.4960 0.9715
-0.2499 6.9964 -1.4798 0.9718
-0.7210 6.7064 -1.4258 0.9728
-0.9477 6.5917 -1.4077 0.9731
-1.1549 6.4015 -1.3750 0.9738
-1.3572 6.2387 -1.3496 0.9742
-3.3789 8.1575 -1.8664 0.9645
-3.9605 7.9121 -1.8703 0.9645
-4.2447 7.7736 -1.8722 0.9644
-4.5790 7.7174 -1.8968 0.9640
-4.9556 7.7111 -1.9375 0.9632
-5.7472 7.6774 -2.0272 0.9615
-7.5382 6.0746 -2.0464 0.9612
-7.7557 5.8058 -2.0479 0.9612
-8.1609 5.2447 -2.0506 0.9611
-8.9866 3.7224 -2.0561 0.9610
-9.2368 3.0743 -2.0578 0.9610
-9.3439 2.7436 -2.0585 0.9610
-9.5213 2.0712 -2.0597 0.9609
-9.5913 1.7305 -2.0601 0.9609
-9.7256 0.6956 -2.0610 0.9609
-9.7448 0.3480 -2.0612 0.9609
8.2579 0.0000 -1.9408 0.9666
8.2528 0.2947 -1.9408 0.9666
8.1762 1.1756 -1.9413 0.9666
8.1303 1.4669 -1.9417 0.9666
8.0083 2.0440 -1.9425 0.9666
7.7508 2.8909 -1.9442 0.9666
7.4061 3.7072 -1.9465 0.9665
7.2724 3.9710 -1.9474 0.9665
7.1295 4.2301 -1.9483 0.9665
6.6475 4.9762 -1.9516 0.9665
6.2833 5.4446 -1.9540 0.9664
6.0891 5.6691 -1.9553 0.9664
5.8869 5.8869 -1.9566 0.9664
5.4599 6.3010 -1.9595 0.9663
3.7619 5.8536 -1.6353 0.9718
3.3494 6.1340 -1.6425 0.9717
3.7461 7.4838 -1.9669 0.9662
3.1866 7.6931 -1.9570 0.9664
2.5629 7.7003 -1.9073 0.9672
2.2618 7.7031 -1.8868 0.9676
1.6766 7.7073 -1.8537 0.9681
1.1120 7.7340 -1.8364 0.9684
0.5585 7.8094 -1.8401 0.9683
0.0000 7.0892 -1.6661 0.9713
-0.2478 6.9377 -1.6316 0.9719
-0.4869 6.8077 -1.6040 0.9723
-1.1527 6.3890 -1.5258 0.9737
-1.3673 6.2855 -1.5118 0.9739
-1.5732 6.1639 -1.4951 0.9742
-1.8118 6.1706 -1.5114 0.9739
-3.1874 7.6950 -1.9575 0.9664
-4.1160 7.5379 -2.0185 0.9653
-4.3915 7.4015 -2.0227 0.9653
-5.4258 6.7331 -2.0323 0.9651
-5.6672 6.5403 -2.0339 0.9651
-6.1286 6.1286 -2.0370 0.9650
-6.5595 5.6838 -2.0399 0.9650
-6.7627 5.4497 -2.0412 0.9649
-6.9573 5.2082 -2.0425 0.9649
-7.1431 4.9596 -2.0438 0.9649
-7.4871 4.4423 -2.0461 0.9649
-7.6449 4.1744 -2.0471 0.9648
-7.7927 3.9008 -2.0481 0.9648
-7.9306 3.6218 -2.0490 0.9648
-8.3775 2.4599 -2.0520 0.9648
-8.5360 1.8569 -2.0531 0.9647
-8.5986 1.5514 -2.0535 0.9647
-8.6500 1.2437 -2.0538 0.9647
-8.6900 0.9343 -2.0541 0.9647
-8.7186 0.6236 -2.0543 0.9647
-8.7358 0.3120 -2.0544 0.9647
7.5103 0.2682 -1.9458 0.9694
7.4963 0.5362 -1.9459 0.9694
7.4730 0.8034 -1.9460 0.9694
7.4404 1.0698 -1.9463 0.9694
7.3475 1.5983 -1.9469 0.9694
7.2872 1.8600 -1.9473 0.9694
7.0524 2.6304 -1.9489 0.9694
6.7380 3.3728 -1.9510 0.9693
6.4858 3.8482 -1.9526 0.9693
6.3474 4.0792 -1.9536 0.9693
5.8843 4.7418 -1.9567 0.9693
5.7146 4.9517 -1.9578 0.9692
5.5375 5.1556 -1.9590 0.9692
5.1622 5.5446 -1.9615 0.9692
4.0106 5.7764 -1.8208 0.9714
3.6494 6.6833 -1.9716 0.9690
2.9212 7.0525 -1.9765 0.9690
2.6699 7.1584 -1.9782 0.9689
2.4145 7.2544 -1.9796 0.9689
2.1544 7.3371 -1.9799 0.9689
0.8191 7.6186 -1.9840 0.9688
0.5470 7.6480 -1.9853 0.9688
0.2739 7.6683 -1.9867 0.9688
0.0000 7.6776 -1.9879 0.9688
-0.2516 7.0443 -1.8251 0.9713
-0.4882 6.8262 -1.7719 0.9721
-0.8233 7.6581 -1.9943 0.9687
-0.9351 6.5036 -1.7012 0.9732
-1.1460 6.3517 -1.6711 0.9737
-1.5695 6.1492 -1.6432 0.9741
-1.8117 6.1701 -1.6650 0.9738
-2.4518 7.3664 -2.0102 0.9684
-3.2372 7.0884 -2.0176 0.9683
-3.4910 6.9742 -2.0193 0.9683
-3.9862 6.7184 -2.0227 0.9682
-4.6925 6.2684 -2.0274 0.9682
-5.1352 5.9263 -2.0303 0.9681
-5.5525 5.5525 -2.0331 0.9681
-5.9421 5.1488 -2.0357 0.9680
-6.3017 4.7174 -2.0381 0.9680
-6.4696 4.4919 -2.0393 0.9680
-6.6293 4.2604 -2.0403 0.9680
-6.7805 4.0230 -2.0413 0.9679
-6.9230 3.7802 -2.0423 0.9679
-7.2963 3.0222 -2.0448 0.9679
-7.4021 2.7608 -2.0455 0.9679
-7.5847 2.2271 -2.0467 0.9679
-7.6613 1.9554 -2.0472 0.9679
-7.7279 1.6811 -2.0477 0.9679
-7.8669 0.8458 -2.0486 0.9678
6.8881 -0.0000 -1.9500 0.9718
6.8838 0.2458 -1.9500 0.9718
6.8709 0.4914 -1.9501 0.9718
6.8195 0.9805 -1.9504 0.9718
6.6789 1.7047 -1.9514 0.9718
6.5433 2.1778 -1.9523 0.9717
6.2787 2.8674 -1.9540 0.9717
5.6814 3.9447 -1.9580 0.9717
5.3908 4.3442 -1.9600 0.9716
5.2351 4.5363 -1.9610 0.9716
5.0727 4.7228 -1.9621 0.9716
4.5469 5.2474 -1.9656 0.9715
4.3595 5.4098 -1.9669 0.9715
4.1664 5.5656 -1.9681 0.9715
3.9677 5.7146 -1.9695 0.9715
3.7638 5.8567 -1.9708 0.9715
3.5549 5.9915 -1.9722 0.9715
3.3412 6.1190 -1.9737 0.9714
2.4438 6.5521 -1.9797 0.9713
2.2101 6.6404 -1.9812 0.9713
1.7336 6.7920 -1.9844 0.9713
1.4913 6.8552 -1.9860 0.9713
1.0001 6.9556 -1.9893 0.9712
0.7518 6.9927 -1.9910 0.9712
0.5021 7.0209 -1.9926 0.9712
-1.0068 7.0025 -2.0027 0.9710
-1.2571 6.9679 -2.0044 0.9710
-1.5063 6.9243 -2.0061 0.9710
-1.5978 6.2601 -1.8290 0.9735
-2.4845 6.6611 -2.0126 0.9709
-2.7228 6.5734 -2.0142 0.9709
-3.1897 6.3723 -2.0173 0.9708
-3.6417 6.1377 -2.0204 0.9708
-4.0761 5.8707 -2.0233 0.9707
-4.2860 5.7254 -2.0247 0.9707
-4.6898 5.4123 -2.0274 0.9707
-4.8831 5.2448 -2.0287 0.9706
-5.0703 5.0703 -2.0299 0.9706
-5.4254 4.7012 -2.0323 0.9706
-5.7532 4.3068 -2.0345 0.9706
-6.1894 3.6724 -2.0374 0.9705
-6.5544 2.9933 -2.0398 0.9705
-6.6593 2.7584 -2.0405 0.9705
-6.7557 2.5197 -2.0412 0.9705
-6.9220 2.0325 -2.0423 0.9705
-6.9917 1.7845 -2.0428 0.9704
-7.0524 1.5342 -2.0432 0.9704
-7.1460 1.0275 -2.0438 0.9704
-7.2166 0.2578 -2.0443 0.9704
6.3514 0.0000 -1.9535 0.9738
6.3474 0.2267 -1.9536 0.9738
6.2881 0.9041 -1.9540 0.9738
6.2526 1.1281 -1.9542 0.9738
6.0994 1.7909 -1.9552 0.9737
5.8774 2.4345 -1.9567 0.9737
5.6924 2.8494 -1.9579 0.9737
5.5890 3.0518 -1.9586 0.9737
5.4786 3.2506 -1.9594 0.9737
5.1062 3.8225 -1.9619 0.9737
4.8251 4.1810 -1.9637 0.9736
4.6752 4.3528 -1.9647 0.9736
4.5193 4.5193 -1.9658 0.9736
4.1900 4.8355 -1.9680 0.9736
4.0171 4.9850 -1.9691 0.9736
2.6717 5.8502 -1.9781 0.9734
1.8172 6.1886 -1.9839 0.9734
1.3731 6.3120 -1.9868 0.9733
1.1478 6.3617 -1.9883 0.9733
0.6921 6.4373 -1.9914 0.9733
0.2314 6.4803 -1.9945 0.9732
-0.2318 6.4903 -1.9976 0.9732
-0.4637 6.4829 -1.9991 0.9732
-0.6953 6.4673 -2.0007 0.9731
-0.9264 6.4433 -2.0022 0.9731
-1.1567 6.4111 -2.0037 0.9731
-2.0635 6.1999 -2.0098 0.9730
-2.2852 6.1268 -2.0113 0.9730
-2.7204 5.9568 -2.0142 0.9730
-3.1428 5.7556 -2.0170 0.9729
-3.3485 5.6436 -2.0184 0.9729
-3.5502 5.5242 -2.0197 0.9729
-3.9403 5.2636 -2.0224 0.9729
-4.1282 5.1228 -2.0236 0.9728
-4.4885 4.8210 -2.0260 0.9728
-4.6604 4.6604 -2.0272 0.9728
-4.8264 4.4935 -2.0283 0.9728
-4.9863 4.3207 -2.0293 0.9728
-5.1399 4.1420 -2.0304 0.9728
-5.2871 3.9578 -2.0314 0.9727
-5.4275 3.7684 -2.0323 0.9727
-5.8064 3.1705 -2.0348 0.9727
-6.0221 2.7502 -2.0363 0.9727
-6.1183 2.5343 -2.0369 0.9727
-6.2067 2.3150 -2.0375 0.9727
-6.2870 2.0925 -2.0380 0.9727
-6.4231 1.6394 -2.0390 0.9726
-6.4788 1.4094 -2.0393 0.9726
-6.5259 1.1774 -2.0396 0.9726
-6.5646 0.9439 -2.0399 0.9726
-6.5948 0.7090 -2.0401 0.9726
-6.6293 0.2368 -2.0403 0.9726
5.8827 0.2101 -1.9567 0.9755
5.8276 0.8379 -1.9570 0.9755
5.7544 1.2518 -1.9575 0.9755
5.6524 1.6597 -1.9582 0.9755
5.5908 1.8608 -1.9586 0.9755
5.5221 2.0596 -1.9591 0.9755
5.3640 2.4496 -1.9601 0.9754
5.2747 2.6403 -1.9607 0.9754
4.8522 3.3690 -1.9636 0.9754
4.7309 3.5415 -1.9644 0.9754
4.6034 3.7097 -1.9652 0.9754
4.0364 4.3354 -1.9690 0.9753
3.5556 4.7498 -1.9722 0.9753
3.3858 4.8765 -1.9734 0.9753
2.8503 5.2199 -1.9769 0.9752
2.6638 5.3217 -1.9782 0.9752
2.2804 5.5053 -1.9808 0.9752
2.0838 5.5869 -1.9821 0.9752
1.2710 5.8425 -1.9875 0.9751
1.0624 5.8883 -1.9889 0.9751
0.8521 5.9267 -1.9903 0.9751
0.6405 5.9575 -1.9917 0.9751
0.4278 5.9808 -1.9931 0.9750
0.2142 5.9966 -1.9946 0.9750
-0.2145 6.0052 -1.9974 0.9750
-0.4290 5.9980 -1.9989 0.9750
-0.6433 5.9832 -2.0003 0.9750
-1.2819 5.8927 -2.0046 0.9749
-1.7014 5.7943 -2.0074 0.9749
-1.9084 5.7339 -2.0088 0.9748
-2.3157 5.5907 -2.0115 0.9748
-2.5155 5.5081 -2.0128 0.9748
-2.9058 5.3215 -2.0154 0.9748
-3.2821 5.1071 -2.0180 0.9747
-3.4644 4.9897 -2.0192 0.9747
-3.8159 4.7353 -2.0215 0.9747
-3.9848 4.5987 -2.0227 0.9747
-4.6081 3.9930 -2.0268 0.9746
-5.1385 3.3023 -2.0304 0.9746
-5.3650 2.9295 -2.0319 0.9746
-5.5639 2.5410 -2.0332 0.9745
-5.6527 2.3414 -2.0338 0.9745
-5.7342 2.1387 -2.0344 0.9745
-5.8083 1.9332 -2.0348 0.9745
-5.9852 1.3020 -2.0360 0.9745
-6.0287 1.0877 -2.0363 0.9745
-6.0644 0.8719 -2.0366 0.9745
-6.0922 0.6550 -2.0367 0.9745
-6.1240 0.2187 -2.0370 0.9745
5.4791 0.0000 -1.9594 0.9770
5.4757 0.1956 -1.9594 0.9770
5.4654 0.3909 -1.9595 0.9770
5.4483 0.5858 -1.9596 0.9770
5.4244 0.7799 -1.9597 0.9770
5.3120 1.3558 -1.9605 0.9770
5.2036 1.7319 -1.9612 0.9770
5.1396 1.9170 -1.9616 0.9770
5.0691 2.0997 -1.9621 0.9770
4.5155 3.1352 -1.9658 0.9769
4.4024 3.2956 -1.9666 0.9769
4.2837 3.4520 -1.9674 0.9769
4.1595 3.6042 -1.9682 0.9769
3.8953 3.8953 -1.9700 0.9769
3.7555 4.0337 -1.9709 0.9769
3.4616 4.2956 -1.9729 0.9768
3.3078 4.4188 -1.9739 0.9768
2.9874 4.6485 -1.9760 0.9768
2.6512 4.8553 -1.9783 0.9768
2.4777 4.9498 -1.9794 0.9768
2.3008 5.0380 -1.9806 0.9767
1.7523 5.2649 -1.9843 0.9767
1.5643 5.3274 -1.9855 0.9767
1.3740 5.3833 -1.9868 0.9767
1.1818 5.4324 -1.9881 0.9767
0.7922 5.5101 -1.9907 0.9766
0.1991 5.5743 -1.9947 0.9766
0.0000 5.5816 -1.9960 0.9766
-0.5978 5.5607 -2.0000 0.9765
-0.9943 5.5112 -2.0027 0.9765
-1.5808 5.3838 -2.0066 0.9764
-2.1514 5.1939 -2.0104 0.9764
-2.3368 5.1169 -2.0116 0.9764
-2.5195 5.0333 -2.0129 0.9764
-3.0484 4.7435 -2.0164 0.9763
-3.2176 4.6342 -2.0175 0.9763
-3.3828 4.5189 -2.0186 0.9763
-3.5438 4.3976 -2.0197 0.9763
-3.7005 4.2706 -2.0208 0.9763
-4.1418 3.8562 -2.0237 0.9762
-4.5362 3.3957 -2.0263 0.9762
-4.6563 3.2330 -2.0271 0.9762
-4.7705 3.0659 -2.0279 0.9762
-4.9806 2.7196 -2.0293 0.9762
-5.0761 2.5409 -2.0300 0.9762
-5.1650 2.3588 -2.0305 0.9762
-5.3229 1.9853 -2.0316 0.9762
-5.4533 1.6012 -2.0325 0.9761
-5.5959 1.0096 -2.0334 0.9761
-5.6289 0.8093 -2.0336 0.9761
-5.6732 0.4058 -2.0339 0.9761
5.1192 -0.0000 -1.9618 0.9783
5.1160 0.1827 -1.9618 0.9783
5.0680 0.7287 -1.9621 0.9783
5.0393 0.9092 -1.9623 0.9783
5.0042 1.0886 -1.9626 0.9783
4.9629 1.2667 -1.9628 0.9783
4.9153 1.4433 -1.9631 0.9783
4.8615 1.6181 -1.9635 0.9783
4.8017 1.7909 -1.9639 0.9783
4.6638 2.1299 -1.9648 0.9783
4.5025 2.4585 -1.9659 0.9783
4.2180 2.9286 -1.9678 0.9782
4.1122 3.0784 -1.9685 0.9782
4.0012 3.2244 -1.9693 0.9782
3.8851 3.3665 -1.9700 0.9782
3.7640 3.5044 -1.9708 0.9782
3.6381 3.6381 -1.9717 0.9782
3.5075 3.7673 -1.9726 0.9782
3.3723 3.8919 -1.9735 0.9782
3.2328 4.0117 -1.9744 0.9782
3.0891 4.1265 -1.9754 0.9782
2.9413 4.2362 -1.9763 0.9782
2.7896 4.3408 -1.9774 0.9781
2.6343 4.4399 -1.9784 0.9781
2.3134 4.6215 -1.9805 0.9781
2.1481 4.7038 -1.9816 0.9781
1.9800 4.7802 -1.9828 0.9781
0.7394 5.1428 -1.9911 0.9780
0.3711 5.1888 -1.9935 0.9780
0.1858 5.2020 -1.9948 0.9779
0.0000 5.2085 -1.9960 0.9779
-0.3720 5.2018 -1.9985 0.9779
-0.5578 5.1884 -1.9997 0.9779
-0.7431 5.1684 -2.0010 0.9779
-1.1113 5.1085 -2.0034 0.9779
-1.4747 5.0222 -2.0059 0.9778
-2.3498 4.6943 -2.0117 0.9778
-3.4503 3.9819 -2.0191 0.9777
-3.8614 3.5951 -2.0218 0.9777
-4.1114 3.3132 -2.0235 0.9776
-4.2287 3.1656 -2.0243 0.9776
-4.3406 3.0137 -2.0250 0.9776
-4.4470 2.8579 -2.0257 0.9776
-4.5477 2.6983 -2.0264 0.9776
-4.9613 1.8504 -2.0292 0.9776
-5.0827 1.4924 -2.0300 0.9776
-5.1335 1.3103 -2.0303 0.9776
-5.2153 0.9410 -2.0309 0.9776
-5.2873 0.3782 -2.0314 0.9775
4.7956 0.1713 -1.9639 0.9795
4.7865 0.3423 -1.9640 0.9795
4.7715 0.5130 -1.9641 0.9795
4.7505 0.6830 -1.9642 0.9795
4.7235 0.8522 -1.9644 0.9795
4.6518 1.1873 -1.9649 0.9795
4.5567 1.5166 -1.9655 0.9795
4.4387 1.8386 -1.9663 0.9794
4.3713 1.9963 -1.9668 0.9794
4.2983 2.1516 -1.9673 0.9794
3.8538 2.8849 -1.9702 0.9794
3.7497 3.0217 -1.9709 0.9794
3.6408 3.1548 -1.9717 0.9794
3.1599 3.6467 -1.9749 0.9794
2.8943 3.8663 -1.9767 0.9793
2.7558 3.9690 -1.9776 0.9793
2.6136 4.0668 -1.9785 0.9793
2.3191 4.2471 -1.9805 0.9793
2.1672 4.3294 -1.9815 0.9793
2.0123 4.4063 -1.9826 0.9793
1.6946 4.5435 -1.9847 0.9793
1.5322 4.6036 -1.9858 0.9792
1.2012 4.7064 -1.9880 0.9792
0.8634 4.7856 -1.9902 0.9792
0.6925 4.8161 -1.9914 0.9792
0.3475 4.8588 -1.9937 0.9792
0.0000 4.8770 -1.9960 0.9791
-0.3483 4.8702 -1.9983 0.9791
-0.5222 4.8575 -1.9995 0.9791
-0.8684 4.8134 -2.0018 0.9791
-1.2110 4.7446 -2.0041 0.9791
-1.7141 4.5957 -2.0075 0.9790
-1.8781 4.5341 -2.0086 0.9790
-2.1991 4.3932 -2.0107 0.9790
-2.3557 4.3142 -2.0118 0.9790
-2.5095 4.2295 -2.0128 0.9790
-2.6602 4.1393 -2.0138 0.9790
-2.9515 3.9428 -2.0157 0.9789
-3.0918 3.8367 -2.0167 0.9789
-3.2283 3.7256 -2.0176 0.9789
-3.3606 3.6096 -2.0185 0.9789
-3.4888 3.4888 -2.0193 0.9789
-3.7318 3.2336 -2.0210 0.9789
-3.8463 3.0996 -2.0217 0.9789
-4.0605 2.8193 -2.0232 0.9789
-4.3427 2.3713 -2.0250 0.9788
-4.4257 2.2154 -2.0256 0.9788
-4.6405 1.7308 -2.0270 0.9788
-4.7002 1.5644 -2.0274 0.9788
-4.7539 1.3959 -2.0278 0.9788
-4.8015 1.2255 -2.0281 0.9788
-4.8428 1.0535 -2.0284 0.9788
-4.9066 0.7055 -2.0288 0.9788
-4.9291 0.5299 -2.0290 0.9788
4.5107 0.0000 -1.9659 0.9805
4.4994 0.3218 -1.9659 0.9805
4.4853 0.4822 -1.9660 0.9805
4.4655 0.6420 -1.9662 0.9805
4.4092 0.9592 -1.9665 0.9805
4.3727 1.1161 -1.9668 0.9805
4.3307 1.2716 -1.9671 0.9805
4.2304 1.5778 -1.9677 0.9805
4.1722 1.7282 -1.9681 0.9805
4.1087 1.8764 -1.9685 0.9805
3.8875 2.3066 -1.9700 0.9805
3.8038 2.4446 -1.9706 0.9805
3.7152 2.5795 -1.9712 0.9805
3.6219 2.7113 -1.9718 0.9805
3.5240 2.8398 -1.9724 0.9804
3.4216 2.9648 -1.9731 0.9804
3.3148 3.0862 -1.9738 0.9804
2.8464 3.5321 -1.9770 0.9804
2.7196 3.6330 -1.9778 0.9804
2.1789 3.9904 -1.9814 0.9804
2.0361 4.0675 -1.9824 0.9803
1.5920 4.2683 -1.9854 0.9803
1.4394 4.3246 -1.9864 0.9803
1.2848 4.3755 -1.9874 0.9803
1.1284 4.4209 -1.9885 0.9803
0.9704 4.4607 -1.9895 0.9803
0.8110 4.4949 -1.9906 0.9803
0.4888 4.5462 -1.9927 0.9802
0.3264 4.5633 -1.9938 0.9802
0.1634 4.5745 -1.9949 0.9802
-0.1636 4.5795 -1.9971 0.9802
-0.3271 4.5733 -1.9982 0.9802
-0.4904 4.5612 -1.9993 0.9802
-0.6532 4.5432 -2.0004 0.9802
-1.2959 4.4135 -2.0047 0.9801
-1.4534 4.3667 -2.0057 0.9801
-1.6091 4.3143 -2.0068 0.9801
-2.0642 4.1238 -2.0098 0.9801
-2.2112 4.0495 -2.0108 0.9801
-2.3554 3.9699 -2.0118 0.9801
-2.4968 3.8851 -2.0127 0.9801
-2.7701 3.7004 -2.0145 0.9800
-3.1538 3.3874 -2.0171 0.9800
-3.2740 3.2740 -2.0179 0.9800
-3.6092 2.9085 -2.0201 0.9800
-3.9033 2.5085 -2.0221 0.9800
-4.1525 2.0786 -2.0238 0.9799
-4.2921 1.7779 -2.0247 0.9799
-1.5118 0.5639 -0.7032 0.9930
-1.3400 0.3420 -0.6027 0.9940
-1.3688 0.2978 -0.6105 0.9939
-1.4180 0.2039 -0.6244 0.9938
-1.4359 0.1544 -0.6294 0.9937
-1.4490 0.1036 -0.6331 0.9937
-1.4571 0.0521 -0.6354 0.9937
4.2507 0.0000 -1.9676 0.9814
4.2081 0.6050 -1.9679 0.9814
4.1841 0.7549 -1.9680 0.9814
4.1205 1.0517 -1.9685 0.9814
4.0809 1.1983 -1.9687 0.9814
3.6630 2.1733 -1.9715 0.9814
3.5005 2.4305 -1.9726 0.9814
3.2237 2.7933 -1.9745 0.9814
3.1230 2.9076 -1.9751 0.9814
3.0183 3.0183 -1.9758 0.9814
2.9097 3.1253 -1.9766 0.9814
2.7974 3.2283 -1.9773 0.9813
2.6814 3.3274 -1.9781 0.9813
2.5620 3.4224 -1.9789 0.9813
2.4392 3.5131 -1.9797 0.9813
2.0524 3.7586 -1.9823 0.9813
1.6411 3.9620 -1.9850 0.9813
1.4994 4.0199 -1.9860 0.9813
1.2099 4.1207 -1.9879 0.9812
1.0626 4.1633 -1.9889 0.9812
0.7637 4.2327 -1.9909 0.9812
0.6124 4.2595 -1.9919 0.9812
0.3073 4.2967 -1.9940 0.9812
0.1538 4.3071 -1.9950 0.9812
-0.4617 4.2940 -1.9991 0.9811
-0.6149 4.2770 -2.0001 0.9811
-0.9194 4.2265 -2.0022 0.9811
-1.0702 4.1931 -2.0032 0.9811
-1.2198 4.1543 -2.0042 0.9811
-1.5146 4.0607 -2.0061 0.9811
-1.8021 3.9461 -2.0081 0.9811
-1.9427 3.8811 -2.0090 0.9811
-2.4797 3.5715 -2.0126 0.9810
-2.6067 3.4822 -2.0134 0.9810
-2.7305 3.3883 -2.0143 0.9810
-2.9676 3.1874 -2.0159 0.9810
-3.0806 3.0806 -2.0166 0.9810
-3.1897 2.9697 -2.0173 0.9810
-3.5846 2.4888 -2.0200 0.9809
-3.6722 2.3600 -2.0206 0.9809
-3.8332 2.0931 -2.0216 0.9809
-3.9065 1.9554 -2.0221 0.9809
-1.2345 0.5114 -0.6185 0.9941
-1.2017 0.4482 -0.5937 0.9944
-1.1330 0.3327 -0.5466 0.9948
-1.2124 0.1743 -0.5670 0.9946
3.9515 0.7129 -1.9696 0.9823
3.8539 1.1316 -1.9702 0.9823
3.8116 1.2686 -1.9705 0.9823
3.7645 1.4041 -1.9708 0.9823
3.7127 1.5378 -1.9712 0.9823
3.5949 1.7995 -1.9720 0.9822
3.3844 2.1750 -1.9734 0.9822
3.2224 2.4122 -1.9745 0.9822
2.8499 2.8499 -1.9770 0.9822
2.7473 2.9508 -1.9776 0.9822
2.6411 3.0480 -1.9784 0.9822
2.4188 3.2311 -1.9798 0.9822
2.3028 3.3167 -1.9806 0.9822
2.1839 3.3982 -1.9814 0.9822
2.0620 3.4754 -1.9822 0.9822
1.9375 3.5482 -1.9831 0.9821
1.2795 3.8444 -1.9875 0.9821
1.1420 3.8894 -1.9884 0.9821
0.8625 3.9647 -1.9902 0.9821
0.7207 3.9948 -1.9912 0.9821
0.4343 4.0399 -1.9931 0.9821
0.1452 4.0646 -1.9950 0.9820
-0.1453 4.0685 -1.9970 0.9820
-0.5802 4.0355 -1.9999 0.9820
-1.0097 3.9561 -2.0028 0.9820
-1.1508 3.9194 -2.0037 0.9820
-1.8326 3.6611 -2.0083 0.9819
-2.2163 3.4486 -2.0108 0.9819
-2.3389 3.3687 -2.0116 0.9819
-2.6887 3.1030 -2.0140 0.9819
-2.9053 2.9053 -2.0154 0.9819
-3.2935 2.4654 -2.0180 0.9818
-3.4629 2.2255 -2.0192 0.9818
-3.5410 2.1010 -2.0197 0.9818
-3.6146 1.9737 -2.0202 0.9818
-1.0444 0.4770 -0.5632 0.9949
-1.0119 0.3774 -0.5298 0.9952
-1.0025 0.3337 -0.5183 0.9953
-1.0175 0.2988 -0.5202 0.9953
-1.0307 0.2631 -0.5218 0.9953
-1.0422 0.2267 -0.5232 0.9953
-1.0518 0.1898 -0.5242 0.9952
-1.0611 0.1526 -0.5258 0.9952
-1.0769 0.0770 -0.5296 0.9952
3.7962 0.1356 -1.9706 0.9830
3.7890 0.2710 -1.9707 0.9830
3.7771 0.4061 -1.9708 0.9830
3.7390 0.6746 -1.9710 0.9830
3.7128 0.8077 -1.9712 0.9830
3.6820 0.9398 -1.9714 0.9830
3.6466 1.0707 -1.9716 0.9830
3.6065 1.2004 -1.9719 0.9830
3.4593 1.5798 -1.9729 0.9830
3.4013 1.7026 -1.9733 0.9830
3.3391 1.8233 -1.9737 0.9830
3.2726 1.9417 -1.9741 0.9830
3.2020 2.0578 -1.9746 0.9830
3.1273 2.1713 -1.9751 0.9830
2.7897 2.5973 -1.9774 0.9830
2.4985 2.8834 -1.9793 0.9830
2.2881 3.0565 -1.9807 0.9829
2.1783 3.1374 -1.9814 0.9829
1.8326 3.3561 -1.9838 0.9829
1.7123 3.4208 -1.9846 0.9829
1.5898 3.4812 -1.9854 0.9829
1.4652 3.5372 -1.9862 0.9829
1.3385 3.5888 -1.9871 0.9829
1.2101 3.6358 -1.9879 0.9829
1.0800 3.6783 -1.9888 0.9829
0.9485 3.7162 -1.9897 0.9829
0.8156 3.7493 -1.9906 0.9829
0.6816 3.7777 -1.9915 0.9829
0.4107 3.8202 -1.9933 0.9828
0.1373 3.8433 -1.9951 0.9828
0.0000 3.8475 -1.9960 0.9828
-0.1374 3.8468 -1.9969 0.9828
-0.5486 3.8153 -1.9997 0.9828
-0.8201 3.7699 -2.0015 0.9828
-1.0879 3.7051 -2.0033 0.9827
-1.2200 3.6655 -2.0042 0.9827
-1.3506 3.6212 -2.0050 0.9827
-1.4797 3.5723 -2.0059 0.9827
-1.7322 3.4605 -2.0076 0.9827
-1.9763 3.3308 -2.0092 0.9827
-2.2106 3.1838 -2.0108 0.9827
-2.4339 3.0203 -2.0123 0.9827
-2.5410 2.9325 -2.0130 0.9827
-2.7456 2.7456 -2.0144 0.9827
-2.8428 2.6467 -2.0150 0.9826
-3.0262 2.4387 -2.0162 0.9826
-3.2722 2.1029 -2.0179 0.9826
-0.9486 0.5180 -0.5607 0.9951
-0.9326 0.4259 -0.5319 0.9954
-0.9268 0.3085 -0.5067 0.9956
-0.9628 0.2095 -0.5112 0.9956
-0.9785 0.1407 -0.5129 0.9956
-0.9838 0.1058 -0.5133 0.9956
3.6004 0.0000 -1.9719 0.9837
3.5913 0.2569 -1.9720 0.9837
3.5642 0.5125 -1.9722 0.9837
3.5439 0.6394 -1.9723 0.9837
3.5191 0.7655 -1.9725 0.9837
3.4898 0.8907 -1.9727 0.9837
3.4562 1.0148 -1.9729 0.9837
3.4182 1.1377 -1.9732 0.9837
3.3294 1.3791 -1.9738 0.9837
3.1646 1.7280 -1.9749 0.9837
2.9638 2.0578 -1.9762 0.9837
2.8892 2.1628 -1.9767 0.9837
2.8109 2.2652 -1.9772 0.9837
2.7290 2.3647 -1.9778 0.9837
2.3676 2.7324 -1.9802 0.9836
1.7364 3.1800 -1.9844 0.9836
1.6224 3.2411 -1.9852 0.9836
1.3881 3.3513 -1.9867 0.9836
1.2682 3.4000 -1.9875 0.9836
1.1465 3.4446 -1.9883 0.9836
1.0232 3.4847 -1.9892 0.9836
0.8986 3.5205 -1.9900 0.9836
0.7727 3.5518 -1.9908 0.9836
0.3891 3.6187 -1.9934 0.9835
-0.2602 3.6382 -1.9977 0.9835
-0.3901 3.6282 -1.9986 0.9835
-0.5195 3.6135 -1.9995 0.9835
-0.6485 3.5942 -2.0003 0.9835
-0.7767 3.5703 -2.0012 0.9835
-0.9040 3.5418 -2.0021 0.9835
-1.0303 3.5088 -2.0029 0.9835
-1.1553 3.4712 -2.0037 0.9835
-1.4012 3.3827 -2.0054 0.9834
-1.5216 3.3319 -2.0062 0.9834
-1.7568 3.2174 -2.0078 0.9834
-1.9834 3.0862 -2.0093 0.9834
-2.3044 2.8595 -2.0114 0.9834
-2.4058 2.7764 -2.0121 0.9834
-2.5041 2.6896 -2.0128 0.9834
-2.5994 2.5994 -2.0134 0.9834
-2.6913 2.5057 -2.0140 0.9834
-2.7798 2.4088 -2.0146 0.9834
-2.8649 2.3087 -2.0152 0.9834
-3.0238 2.0995 -2.0162 0.9834
-0.8507 0.4645 -0.5309 0.9956
-0.8516 0.4263 -0.5216 0.9957
-0.8506 0.3884 -0.5122 0.9957
-0.8479 0.3512 -0.5027 0.9958
-0.8465 0.3157 -0.4948 0.9959
-0.8837 0.2256 -0.4995 0.9958
-0.8932 0.1943 -0.5006 0.9958
-0.9011 0.1626 -0.5015 0.9958
-0.9077 0.1305 -0.5022 0.9958
-0.9161 0.0655 -0.5030 0.9958
-0.9179 0.0328 -0.5031 0.9958
3.4176 0.0000 -1.9732 0.9843
3.4090 0.2438 -1.9732 0.9843
3.3983 0.3654 -1.9733 0.9843
3.3639 0.6069 -1.9735 0.9843
3.3404 0.7267 -1.9737 0.9843
3.3126 0.8455 -1.9739 0.9843
3.2044 1.1952 -1.9746 0.9843
3.1602 1.3090 -1.9749 0.9843
3.1120 1.4212 -1.9752 0.9843
3.0598 1.5316 -1.9756 0.9843
2.8803 1.8511 -1.9768 0.9843
2.8131 1.9531 -1.9772 0.9843
2.7422 2.0528 -1.9777 0.9843
2.5090 2.3360 -1.9792 0.9843
2.2469 2.5931 -1.9810 0.9843
2.1536 2.6725 -1.9816 0.9843
1.8575 2.8903 -1.9836 0.9843
1.7537 2.9558 -1.9843 0.9843
1.6477 3.0175 -1.9850 0.9842
1.4293 3.1297 -1.9865 0.9842
1.2033 3.2262 -1.9880 0.9842
1.0878 3.2683 -1.9887 0.9842
0.3691 3.4331 -1.9935 0.9842
0.2464 3.4455 -1.9944 0.9842
0.0000 3.4572 -1.9960 0.9842
-0.3700 3.4416 -1.9985 0.9841
-0.6151 3.4093 -2.0001 0.9841
-0.8574 3.3594 -2.0017 0.9841
-1.0958 3.2923 -2.0033 0.9841
-1.2131 3.2524 -2.0041 0.9841
-1.3289 3.2083 -2.0049 0.9841
-1.5556 3.1076 -2.0064 0.9841
-1.8809 2.9267 -2.0086 0.9841
-1.9848 2.8587 -2.0093 0.9841
-2.0863 2.7870 -2.0100 0.9840
-2.3745 2.5504 -2.0119 0.9840
-2.4648 2.4648 -2.0125 0.9840
-2.5519 2.3759 -2.0131 0.9840
-2.6358 2.2840 -2.0136 0.9840
-2.7935 2.0912 -2.0147 0.9840
-0.7634 0.5300 -0.5366 0.9957
-0.7806 0.3908 -0.5040 0.9960
-0.7796 0.3229 -0.4872 0.9961
-0.8318 0.1810 -0.4915 0.9961
-0.8393 0.1514 -0.4924 0.9961
-0.8453 0.1215 -0.4930 0.9961
-0.8499 0.0914 -0.4935 0.9961
-0.8531 0.0610 -0.4938 0.9961
