ply
format ascii 1.0
element vertex 805
property float32 x
property float32 y
property float32 z
property float32 I
end_header
6.6707 5.7802 -0.0497 0.9653
5.8292 5.8293 -0.0464 0.9676
5.5392 5.9496 -0.0458 0.9680
5.4369 6.2745 -0.0467 0.9673
7.5737 5.6696 -0.2664 0.9628
7.0561 5.6862 -0.2552 0.9644
5.7608 5.7608 -0.2294 0.9679
5.4462 6.7584 -0.2444 0.9659
8.0640 5.5990 -0.4979 0.9614
6.5123 5.6429 -0.4370 0.9661
6.0877 5.6678 -0.4218 0.9672
5.7116 5.7116 -0.4096 0.9682
5.4755 5.8811 -0.4075 0.9683
7.9275 5.5042 -0.7076 0.9620
6.8765 5.5414 -0.6475 0.9652
5.4151 5.8162 -0.5827 0.9686
5.2805 6.0940 -0.5912 0.9682
5.2391 6.5013 -0.6122 0.9671
7.3162 5.4768 -0.8774 0.9639
6.8175 5.4939 -0.8406 0.9654
5.3479 5.7440 -0.7535 0.9690
5.2489 6.0575 -0.7695 0.9683
5.2239 6.4825 -0.7993 0.9671
5.2398 6.9996 -0.8394 0.9655
7.8963 5.4825 -1.1419 0.9620
5.3341 5.7293 -0.9299 0.9690
5.2362 6.0429 -0.9498 0.9683
5.2126 6.4684 -0.9868 0.9671
5.2243 6.9788 -1.0355 0.9655
0.2174 6.0868 -0.7235 0.9758
0.0000 6.0802 -0.7222 0.9758
-5.7512 6.6373 -1.0432 0.9652
7.3333 5.4896 -1.2979 0.9637
6.7965 5.4769 -1.2367 0.9654
5.5607 5.5607 -1.1142 0.9687
5.3375 5.7329 -1.1098 0.9689
5.2207 6.0251 -1.1296 0.9683
5.1407 6.8672 -1.2154 0.9659
0.2114 5.9197 -0.8393 0.9764
-0.2114 5.9204 -0.8394 0.9764
-0.6669 6.2032 -0.8840 0.9751
-5.4841 6.8054 -1.2384 0.9653
-6.0803 6.5307 -1.2643 0.9646
-6.3539 6.3539 -1.2732 0.9643
8.0112 5.5623 -1.6067 0.9612
6.8838 5.5474 -1.4564 0.9648
5.9591 5.5481 -1.3413 0.9675
5.3083 5.7015 -1.2833 0.9689
5.1803 5.9784 -1.3032 0.9684
5.1250 6.3597 -1.3455 0.9674
1.4193 6.5246 -1.1000 0.9733
1.2052 6.6801 -1.1182 0.9729
0.8414 5.8520 -0.9740 0.9763
0.2094 5.8628 -0.9664 0.9765
-0.2097 5.8711 -0.9678 0.9765
-0.4201 5.8735 -0.9701 0.9764
-0.6322 5.8801 -0.9743 0.9763
-0.8698 6.0496 -1.0069 0.9755
-1.4698 6.7568 -1.1391 0.9724
-1.7362 6.8023 -1.1565 0.9719
-5.5130 6.8412 -1.4474 0.9650
-6.6401 6.1822 -1.4946 0.9639
-6.9660 6.0361 -1.5185 0.9633
5.9190 5.5108 -1.5201 0.9676
5.3061 8.2565 -1.8447 0.9608
5.0074 8.4395 -1.8445 0.9608
1.9154 5.7549 -1.1400 0.9756
1.4726 5.7696 -1.1192 0.9761
1.2574 5.7802 -1.1119 0.9762
1.0464 5.8000 -1.1078 0.9763
0.8343 5.8026 -1.1019 0.9764
0.4152 5.8050 -1.0939 0.9766
0.2074 5.8059 -1.0920 0.9766
-0.0000 5.8124 -1.0925 0.9766
-0.8322 5.7883 -1.0992 0.9765
-1.0459 5.7973 -1.1073 0.9763
-1.2618 5.8002 -1.1157 0.9761
-1.4812 5.8035 -1.1258 0.9759
-3.4171 9.1617 -1.8379 0.9610
-4.0609 8.8921 -1.8374 0.9610
-4.3751 8.7402 -1.8371 0.9610
-5.5715 8.0245 -1.8362 0.9610
-5.5247 6.8557 -1.6549 0.9648
-6.0464 6.4943 -1.6678 0.9645
-6.3130 6.3130 -1.6781 0.9643
-6.7241 6.2604 -1.7268 0.9633
-6.9689 6.0386 -1.7332 0.9632
9.4615 -0.0000 -2.0000 0.9621
9.4555 0.3377 -2.0000 0.9621
9.3650 1.3465 -1.9999 0.9621
9.3108 1.6799 -1.9999 0.9621
9.2447 2.0111 -1.9999 0.9621
9.0772 2.6653 -1.9997 0.9621
8.8633 3.3058 -1.9996 0.9621
8.4579 4.2337 -1.9993 0.9621
8.3009 4.5326 -1.9992 0.9621
8.1333 4.8257 -1.9991 0.9621
7.9554 5.1126 -1.9989 0.9621
5.9383 5.5287 -1.7150 0.9674
6.6836 6.6836 -1.9980 0.9621
6.4402 6.9173 -1.9978 0.9621
5.9235 7.3507 -1.9955 0.9621
4.9509 7.7037 -1.9357 0.9633
3.9041 7.7993 -1.8436 0.9650
2.3691 5.7196 -1.3086 0.9750
2.1288 5.7075 -1.2876 0.9754
1.9007 5.7108 -1.2723 0.9757
1.6802 5.7221 -1.2606 0.9759
1.4605 5.7223 -1.2484 0.9761
1.0335 5.7284 -1.2304 0.9765
0.4107 5.7423 -1.2169 0.9767
0.2052 5.7459 -1.2153 0.9768
0.0000 5.7486 -1.2151 0.9768
-0.2056 5.7555 -1.2174 0.9767
-0.6178 5.7466 -1.2217 0.9766
-1.4672 5.7482 -1.2540 0.9760
-1.6894 5.7534 -1.2675 0.9758
-2.7466 8.2521 -1.8384 0.9651
-3.6116 7.9083 -1.8377 0.9651
-4.2089 7.7081 -1.8564 0.9647
-4.5693 7.7011 -1.8928 0.9641
-5.3374 7.6873 -1.9782 0.9625
-6.6486 6.6486 -1.9875 0.9623
-7.7200 5.3601 -1.9866 0.9623
-8.2470 4.5032 -1.9862 0.9623
-8.6795 3.5952 -1.9858 0.9623
-8.8018 3.2829 -1.9857 0.9623
-9.0127 2.6464 -1.9855 0.9623
-9.2430 1.6676 -1.9853 0.9623
-9.3380 1.0039 -1.9852 0.9623
8.4198 1.2106 -1.9992 0.9657
8.3117 1.8081 -1.9991 0.9657
8.2416 2.1036 -1.9991 0.9657
8.1611 2.3963 -1.9990 0.9657
7.6044 3.8065 -1.9986 0.9657
7.1528 4.5968 -1.9983 0.9657
6.6191 5.3340 -1.9979 0.9657
6.3366 5.4907 -1.9706 0.9661
6.0096 6.0096 -1.9974 0.9657
5.0914 6.8013 -1.9967 0.9657
4.8449 6.9780 -1.9965 0.9657
4.5923 7.1458 -1.9963 0.9657
4.3319 7.3010 -1.9952 0.9657
2.6222 5.7418 -1.4835 0.9744
2.3673 5.7153 -1.4539 0.9749
1.6794 5.7194 -1.4009 0.9758
1.4604 5.7216 -1.3878 0.9760
1.2456 5.7258 -1.3772 0.9762
1.0344 5.7331 -1.3692 0.9763
0.8254 5.7410 -1.3631 0.9764
0.6181 5.7488 -1.3589 0.9765
-0.2064 5.7792 -1.3591 0.9765
-1.2473 5.7336 -1.3790 0.9762
-1.4668 5.7470 -1.3940 0.9759
-2.8702 7.6954 -1.9303 0.9668
-3.5043 7.6734 -1.9826 0.9659
-3.7795 7.5505 -1.9844 0.9659
-4.3177 7.2770 -1.9886 0.9658
-4.5758 7.1200 -1.9891 0.9658
-4.8265 6.9515 -1.9889 0.9658
-5.3091 6.5882 -1.9886 0.9658
-5.5403 6.3939 -1.9884 0.9658
-6.1904 5.7635 -1.9878 0.9658
-6.3917 5.5384 -1.9877 0.9658
-6.7694 5.0675 -1.9874 0.9659
-7.5591 3.7838 -1.9867 0.9659
-7.6889 3.5114 -1.9866 0.9659
-7.8090 3.2346 -1.9865 0.9659
-7.9191 2.9537 -1.9864 0.9659
-8.1089 2.3810 -1.9862 0.9659
-8.3162 1.5004 -1.9861 0.9659
-8.4285 0.6028 -1.9859 0.9659
-8.4445 0.3016 -1.9859 0.9659
7.7191 0.0000 -1.9986 0.9686
7.7142 0.2755 -1.9986 0.9686
7.6994 0.5507 -1.9986 0.9686
7.6748 0.8251 -1.9986 0.9686
7.4788 1.9088 -1.9985 0.9686
7.4057 2.1745 -1.9984 0.9686
7.2313 2.6971 -1.9983 0.9686
7.1301 2.9534 -1.9982 0.9686
7.0199 3.2059 -1.9981 0.9686
6.9007 3.4542 -1.9981 0.9686
6.1761 4.6233 -1.9975 0.9686
6.0067 4.8405 -1.9974 0.9686
5.6453 5.2560 -1.9971 0.9686
5.2552 5.6445 -1.9968 0.9686
4.8384 6.0041 -1.9965 0.9686
4.6206 6.1724 -1.9963 0.9686
4.1678 6.4852 -1.9960 0.9686
3.6938 6.7648 -1.9956 0.9687
3.4497 6.8917 -1.9954 0.9687
2.6612 5.8273 -1.6587 0.9739
1.9149 5.7534 -1.5700 0.9753
1.7086 5.8189 -1.5702 0.9753
1.4669 5.7474 -1.5358 0.9758
1.2502 5.7470 -1.5228 0.9760
0.4126 5.7693 -1.4976 0.9764
0.2063 5.7762 -1.4965 0.9764
-0.0000 5.7835 -1.4975 0.9764
-0.2068 5.7912 -1.5004 0.9763
-0.4120 5.7605 -1.4953 0.9764
-0.6200 5.7671 -1.5018 0.9763
-0.8340 5.8005 -1.5173 0.9761
-1.0406 5.7678 -1.5175 0.9761
-1.2482 5.7379 -1.5204 0.9760
-1.4719 5.7670 -1.5410 0.9757
-1.7007 5.7920 -1.5630 0.9754
-2.4271 7.2921 -1.9899 0.9687
-2.6868 7.2035 -1.9906 0.9687
-2.9419 7.1023 -1.9904 0.9687
-3.6831 6.7451 -1.9898 0.9687
-4.3818 6.3110 -1.9893 0.9688
-4.8200 5.9813 -1.9889 0.9688
-5.2335 5.6212 -1.9886 0.9688
-5.4304 5.4304 -1.9884 0.9688
-5.8031 5.0284 -1.9881 0.9688
-5.9784 4.8177 -1.9880 0.9688
-6.4579 4.1503 -1.9876 0.9688
-7.0903 2.9369 -1.9871 0.9688
-7.2811 2.4234 -1.9869 0.9688
-7.5510 1.3624 -1.9867 0.9688
-7.5946 1.0919 -1.9866 0.9688
-7.6286 0.8202 -1.9866 0.9688
-7.6530 0.5474 -1.9865 0.9688
-7.6675 0.2738 -1.9865 0.9688
7.0580 0.0000 -1.9981 0.9711
7.0536 0.2519 -1.9981 0.9711
6.9861 1.0045 -1.9981 0.9711
6.9457 1.2531 -1.9980 0.9711
6.7716 1.9883 -1.9979 0.9711
6.6121 2.4662 -1.9978 0.9711
6.5196 2.7005 -1.9977 0.9711
6.4189 2.9314 -1.9977 0.9711
5.9353 3.8144 -1.9973 0.9711
5.7951 4.0236 -1.9972 0.9711
5.4926 4.4262 -1.9970 0.9711
5.1622 4.8062 -1.9967 0.9711
4.8056 5.1615 -1.9965 0.9711
4.6179 5.3294 -1.9963 0.9711
4.2253 5.6444 -1.9960 0.9711
3.8113 5.9305 -1.9957 0.9711
3.5969 6.0623 -1.9955 0.9711
3.3780 6.1863 -1.9954 0.9711
3.1547 6.3023 -1.9952 0.9711
2.6966 6.5102 -1.9948 0.9711
2.1449 5.7507 -1.7375 0.9748
1.9237 5.7799 -1.7245 0.9750
1.7001 5.7899 -1.7083 0.9752
1.4805 5.8005 -1.6947 0.9754
1.2620 5.8014 -1.6808 0.9756
0.6246 5.8099 -1.6542 0.9760
0.4157 5.8121 -1.6496 0.9761
0.2077 5.8145 -1.6471 0.9761
0.0000 5.8179 -1.6470 0.9761
-0.2079 5.8208 -1.6489 0.9761
-0.4148 5.7996 -1.6460 0.9761
-0.6192 5.7597 -1.6399 0.9762
-0.8372 5.8228 -1.6653 0.9758
-1.4926 5.8478 -1.7085 0.9752
-1.9816 6.7487 -1.9912 0.9712
-2.4575 6.5889 -1.9908 0.9712
-3.1469 6.2867 -1.9902 0.9712
-3.3690 6.1698 -1.9901 0.9712
-3.5867 6.0451 -1.9899 0.9712
-3.7999 5.9128 -1.9897 0.9712
-4.0082 5.7729 -1.9896 0.9712
-4.2113 5.6257 -1.9894 0.9712
-4.4091 5.4713 -1.9892 0.9712
-4.7874 5.1421 -1.9889 0.9712
-4.9676 4.9675 -1.9888 0.9712
-5.1413 4.7867 -1.9886 0.9712
-5.4690 4.4072 -1.9884 0.9712
-5.9077 3.7966 -1.9880 0.9712
-6.0391 3.5832 -1.9879 0.9712
-6.1628 3.3651 -1.9878 0.9712
-6.7356 1.9778 -1.9873 0.9712
-6.8017 1.7360 -1.9872 0.9712
-6.9479 0.9990 -1.9871 0.9712
-6.9790 0.7503 -1.9871 0.9712
-7.0146 0.2505 -1.9870 0.9712
6.4575 0.6943 -1.9976 0.9732
6.3461 1.3805 -1.9976 0.9732
6.1617 2.0508 -1.9974 0.9732
5.9994 2.4850 -1.9973 0.9732
5.0545 4.0732 -1.9966 0.9732
4.0716 5.0526 -1.9959 0.9732
3.3102 5.5790 -1.9953 0.9732
3.1087 5.6931 -1.9951 0.9732
2.6942 5.8995 -1.9948 0.9732
2.1323 5.7169 -1.8767 0.9748
1.6032 6.2814 -1.9940 0.9732
1.0437 5.7849 -1.8080 0.9757
0.8316 5.7842 -1.7974 0.9758
0.4137 5.7842 -1.7837 0.9760
0.2068 5.7902 -1.7821 0.9760
0.0000 5.7916 -1.7814 0.9761
-0.2069 5.7939 -1.7832 0.9760
-0.4161 5.8173 -1.7939 0.9759
-0.6195 5.7622 -1.7826 0.9760
-1.0412 5.7708 -1.8036 0.9758
-2.0443 6.1422 -1.9911 0.9733
-2.6885 5.8870 -1.9906 0.9733
-2.8967 5.7868 -1.9904 0.9733
-3.1011 5.6793 -1.9903 0.9733
-3.3016 5.5645 -1.9901 0.9733
-3.4978 5.4427 -1.9899 0.9733
-3.8766 5.1785 -1.9896 0.9733
-4.2355 4.8880 -1.9894 0.9733
-4.5728 4.5728 -1.9891 0.9733
-4.7328 4.4064 -1.9889 0.9733
-4.8867 4.2344 -1.9888 0.9733
-5.0344 4.0570 -1.9887 0.9733
-5.1757 3.8745 -1.9886 0.9733
-5.5594 3.2985 -1.9883 0.9733
-5.8793 2.6850 -1.9880 0.9733
-6.1320 2.0409 -1.9878 0.9733
-6.2007 1.8207 -1.9877 0.9733
-6.2616 1.5982 -1.9877 0.9733
-6.3145 1.3736 -1.9876 0.9733
-6.3594 1.1474 -1.9876 0.9733
-6.4248 0.6907 -1.9875 0.9733
-6.4453 0.4610 -1.9875 0.9733
-6.4576 0.2306 -1.9875 0.9733
6.0085 -0.0000 -1.9973 0.9750
5.9932 0.4286 -1.9973 0.9750
5.9129 1.0668 -1.9972 0.9750
5.8216 1.4859 -1.9972 0.9750
5.7647 1.6927 -1.9971 0.9750
5.7005 1.8973 -1.9971 0.9750
5.6290 2.0995 -1.9970 0.9750
5.5503 2.2990 -1.9970 0.9750
5.2722 2.8789 -1.9968 0.9750
5.1659 3.0651 -1.9967 0.9750
5.0530 3.2474 -1.9966 0.9750
4.9337 3.4255 -1.9965 0.9750
4.6763 3.7684 -1.9963 0.9750
4.5385 3.9327 -1.9962 0.9750
4.2460 4.2460 -1.9960 0.9750
4.0915 4.3945 -1.9959 0.9750
3.9318 4.5375 -1.9958 0.9750
3.4235 4.9308 -1.9954 0.9750
3.2451 5.0495 -1.9952 0.9750
2.6862 5.3663 -1.9948 0.9750
1.8946 5.6922 -1.9942 0.9750
1.6901 5.7558 -1.9940 0.9750
0.8534 5.9358 -1.9934 0.9750
0.6410 5.9620 -1.9932 0.9750
0.4277 5.9805 -1.9930 0.9750
-0.4276 5.9785 -1.9924 0.9751
-0.6407 5.9590 -1.9922 0.9751
-1.0639 5.8971 -1.9919 0.9751
-1.4817 5.8052 -1.9915 0.9751
-1.6878 5.7481 -1.9914 0.9751
-1.8917 5.6838 -1.9912 0.9751
-2.0932 5.6122 -1.9911 0.9751
-2.2920 5.5334 -1.9909 0.9751
-2.4879 5.4477 -1.9907 0.9751
-2.8698 5.2555 -1.9904 0.9751
-3.0553 5.1493 -1.9903 0.9751
-3.2369 5.0367 -1.9901 0.9751
-3.5874 4.7922 -1.9899 0.9751
-3.7559 4.6608 -1.9897 0.9751
-3.9196 4.5235 -1.9896 0.9751
-4.0783 4.3804 -1.9895 0.9751
-4.5224 3.9187 -1.9891 0.9751
-4.7899 3.5856 -1.9889 0.9751
-5.2504 2.8669 -1.9885 0.9751
-5.3492 2.6776 -1.9884 0.9751
-5.6041 2.0902 -1.9882 0.9751
-5.7386 1.6850 -1.9881 0.9751
-5.8439 1.2713 -1.9880 0.9751
-5.9650 0.4266 -1.9879 0.9751
-5.9764 0.2135 -1.9879 0.9751
5.5806 0.1993 -1.9969 0.9766
5.5272 0.7947 -1.9969 0.9766
5.4953 0.9914 -1.9969 0.9766
5.2979 1.7633 -1.9967 0.9766
5.2315 1.9512 -1.9967 0.9766
5.1584 2.1367 -1.9967 0.9766
4.8999 2.6756 -1.9965 0.9766
4.8011 2.8487 -1.9964 0.9766
4.5853 3.1837 -1.9962 0.9766
4.4686 3.3451 -1.9961 0.9766
4.3461 3.5023 -1.9961 0.9766
4.0848 3.8031 -1.9959 0.9766
3.9462 3.9463 -1.9957 0.9766
3.8027 4.0844 -1.9956 0.9766
3.3437 4.4667 -1.9953 0.9766
3.1820 4.5829 -1.9952 0.9766
3.0162 4.6932 -1.9950 0.9766
2.8465 4.7976 -1.9949 0.9766
2.3169 5.0733 -1.9945 0.9766
1.9488 5.2250 -1.9942 0.9766
1.7609 5.2908 -1.9941 0.9766
0.9898 5.4859 -1.9935 0.9766
0.5958 5.5417 -1.9932 0.9766
0.3976 5.5590 -1.9930 0.9766
0.1989 5.5692 -1.9929 0.9766
0.0000 5.5723 -1.9927 0.9766
-0.5955 5.5391 -1.9922 0.9766
-0.7928 5.5139 -1.9921 0.9766
-0.9890 5.4816 -1.9919 0.9766
-1.1839 5.4424 -1.9918 0.9766
-1.5689 5.3433 -1.9915 0.9766
-2.1306 5.1438 -1.9910 0.9766
-2.3127 5.0641 -1.9909 0.9766
-2.4918 4.9780 -1.9907 0.9766
-2.6677 4.8855 -1.9906 0.9766
-2.8402 4.7868 -1.9904 0.9766
-3.6438 4.2051 -1.9898 0.9766
-3.7913 4.0722 -1.9897 0.9766
-3.9340 3.9340 -1.9896 0.9766
-4.2042 3.6429 -1.9893 0.9766
-4.3313 3.4904 -1.9892 0.9766
-4.4529 3.3334 -1.9891 0.9766
-4.6789 3.0070 -1.9890 0.9766
-4.7830 2.8379 -1.9889 0.9767
-4.8811 2.6653 -1.9888 0.9767
-4.9729 2.4893 -1.9887 0.9767
-5.1375 2.1280 -1.9886 0.9767
-5.3874 1.3751 -1.9883 0.9767
-5.4330 1.1819 -1.9883 0.9767
-5.4716 0.9872 -1.9883 0.9767
-5.5033 0.7912 -1.9882 0.9767
-5.5279 0.5943 -1.9882 0.9767
-5.5561 0.1984 -1.9882 0.9767
5.2102 -0.0000 -1.9966 0.9779
5.1803 0.5569 -1.9966 0.9779
5.1571 0.7415 -1.9966 0.9779
5.1273 0.9251 -1.9966 0.9779
5.0909 1.1075 -1.9966 0.9779
5.0481 1.2884 -1.9965 0.9779
4.7386 2.1640 -1.9963 0.9779
4.6582 2.3317 -1.9963 0.9779
4.5719 2.4964 -1.9962 0.9779
4.1694 3.1212 -1.9959 0.9779
4.0552 3.2679 -1.9958 0.9779
3.9358 3.4104 -1.9957 0.9779
3.8114 3.5485 -1.9956 0.9779
2.3297 4.6541 -1.9945 0.9780
2.1619 4.7340 -1.9944 0.9780
1.9915 4.8078 -1.9942 0.9780
1.8185 4.8755 -1.9941 0.9780
1.2866 5.0409 -1.9937 0.9780
1.1058 5.0833 -1.9936 0.9780
0.7402 5.1484 -1.9933 0.9780
0.5560 5.1712 -1.9931 0.9780
0.3710 5.1874 -1.9930 0.9780
-1.2853 5.0358 -1.9917 0.9780
-1.4641 4.9863 -1.9915 0.9780
-2.1583 4.7259 -1.9910 0.9780
-2.9621 4.2662 -1.9903 0.9780
-3.2585 4.0436 -1.9901 0.9780
-3.4006 3.9245 -1.9900 0.9780
-3.9236 3.3998 -1.9896 0.9780
-4.3667 2.8063 -1.9892 0.9780
-4.4639 2.6486 -1.9891 0.9780
-4.5555 2.4875 -1.9890 0.9780
-4.8625 1.8136 -1.9888 0.9780
-4.9240 1.6389 -1.9887 0.9780
-4.9792 1.4620 -1.9887 0.9780
-5.0706 1.1030 -1.9886 0.9780
-5.1067 0.9213 -1.9886 0.9780
-5.1757 0.3702 -1.9885 0.9780
-5.1856 0.1852 -1.9885 0.9780
4.8778 0.0000 -1.9964 0.9791
4.8747 0.1741 -1.9964 0.9791
4.8499 0.5214 -1.9964 0.9791
4.7261 1.2062 -1.9963 0.9791
4.6800 1.3742 -1.9963 0.9791
4.5698 1.7045 -1.9962 0.9791
4.5060 1.8664 -1.9961 0.9791
4.3611 2.1830 -1.9960 0.9791
4.2803 2.3372 -1.9960 0.9791
4.1940 2.4884 -1.9959 0.9791
4.0055 2.7811 -1.9958 0.9791
3.5684 3.3223 -1.9954 0.9791
3.4474 3.4474 -1.9953 0.9791
3.1923 3.6842 -1.9951 0.9792
2.4868 4.1913 -1.9946 0.9792
1.3724 4.6741 -1.9937 0.9792
1.0354 4.7595 -1.9935 0.9792
0.8648 4.7931 -1.9934 0.9792
0.6931 4.8205 -1.9932 0.9792
0.5206 4.8419 -1.9931 0.9792
0.1738 4.8660 -1.9928 0.9792
0.0000 4.8688 -1.9927 0.9792
-0.1738 4.8654 -1.9925 0.9792
-0.3473 4.8557 -1.9924 0.9792
-0.5203 4.8399 -1.9923 0.9792
-0.8642 4.7898 -1.9920 0.9792
-1.0345 4.7556 -1.9919 0.9792
-1.3710 4.6690 -1.9916 0.9792
-1.5366 4.6168 -1.9915 0.9792
-1.8618 4.4949 -1.9912 0.9792
-2.0209 4.4253 -1.9911 0.9792
-2.3312 4.2693 -1.9908 0.9792
-2.9144 3.8931 -1.9904 0.9792
-3.0513 3.7864 -1.9903 0.9792
-3.4380 3.4380 -1.9899 0.9792
-3.6742 3.1837 -1.9897 0.9792
-3.7853 3.0504 -1.9897 0.9792
-3.9929 2.7723 -1.9895 0.9792
-4.0892 2.6279 -1.9894 0.9792
-4.1802 2.4802 -1.9893 0.9792
-4.2659 2.3294 -1.9893 0.9792
-4.6110 1.5347 -1.9890 0.9792
-4.7484 1.0329 -1.9888 0.9792
-4.7821 0.8628 -1.9888 0.9792
-4.8314 0.5194 -1.9888 0.9792
4.5802 0.0000 -1.9961 0.9802
4.5773 0.1635 -1.9961 0.9802
4.5074 0.8132 -1.9961 0.9802
4.4754 0.9736 -1.9961 0.9802
4.4378 1.1327 -1.9961 0.9802
4.0951 2.0499 -1.9958 0.9802
4.0192 2.1947 -1.9958 0.9802
3.8522 2.4756 -1.9956 0.9802
3.6655 2.7439 -1.9955 0.9802
3.5651 2.8729 -1.9954 0.9802
3.4601 2.9982 -1.9953 0.9802
3.1194 3.3505 -1.9951 0.9802
2.8722 3.5641 -1.9949 0.9802
2.7430 3.6642 -1.9948 0.9802
2.4743 3.8501 -1.9946 0.9802
2.3352 3.9358 -1.9945 0.9802
2.1931 4.0164 -1.9944 0.9802
2.0483 4.0919 -1.9943 0.9802
1.9008 4.1622 -1.9941 0.9802
1.7509 4.2271 -1.9940 0.9802
1.5988 4.2867 -1.9939 0.9802
1.4447 4.3407 -1.9938 0.9802
1.2888 4.3893 -1.9937 0.9802
1.1313 4.4322 -1.9936 0.9802
0.9723 4.4695 -1.9934 0.9802
0.6509 4.5269 -1.9932 0.9802
0.4888 4.5469 -1.9931 0.9802
0.1632 4.5696 -1.9928 0.9802
0.0000 4.5723 -1.9927 0.9802
-0.3261 4.5600 -1.9924 0.9802
-0.4887 4.5452 -1.9923 0.9803
-0.8116 4.4982 -1.9920 0.9803
-1.1302 4.4283 -1.9918 0.9803
-1.7485 4.2213 -1.9913 0.9803
-2.0450 4.0853 -1.9910 0.9803
-2.4695 3.8426 -1.9907 0.9803
-2.7371 3.6563 -1.9905 0.9803
-3.1117 3.3423 -1.9902 0.9803
-3.2289 3.2289 -1.9901 0.9803
-3.4507 2.9901 -1.9899 0.9803
-3.6549 2.7360 -1.9897 0.9803
-3.7501 2.6037 -1.9897 0.9803
-3.9260 2.3294 -1.9895 0.9803
-4.0819 2.0433 -1.9894 0.9803
-1.4401 0.4793 -0.6615 0.9934
-1.3722 0.4029 -0.6233 0.9938
-1.3400 0.3420 -0.6027 0.9940
-1.4180 0.2039 -0.6244 0.9938
-1.4490 0.1036 -0.6331 0.9937
4.3119 -0.0000 -1.9959 0.9812
4.3092 0.1539 -1.9959 0.9812
4.3009 0.3076 -1.9959 0.9812
4.2872 0.4609 -1.9959 0.9812
4.2433 0.7656 -1.9959 0.9812
4.0910 1.3616 -1.9958 0.9812
4.0397 1.5067 -1.9958 0.9812
3.8552 1.9298 -1.9956 0.9812
3.7838 2.0661 -1.9956 0.9812
3.7075 2.1998 -1.9955 0.9812
3.5410 2.4585 -1.9954 0.9812
3.4508 2.5833 -1.9953 0.9812
3.3563 2.7047 -1.9953 0.9812
3.1546 2.9370 -1.9951 0.9812
2.8222 3.2570 -1.9948 0.9812
2.7040 3.3555 -1.9948 0.9812
2.3295 3.6248 -1.9945 0.9812
2.1985 3.7054 -1.9944 0.9812
1.5053 4.0358 -1.9938 0.9812
1.3602 4.0867 -1.9937 0.9812
1.0651 4.1729 -1.9935 0.9812
0.7646 4.2377 -1.9933 0.9812
0.4603 4.2810 -1.9930 0.9812
0.0000 4.3049 -1.9927 0.9812
-0.1536 4.3019 -1.9925 0.9812
-0.4601 4.2794 -1.9923 0.9812
-0.6125 4.2600 -1.9922 0.9812
-0.7641 4.2352 -1.9921 0.9812
-0.9147 4.2050 -1.9919 0.9812
-1.2122 4.1285 -1.9917 0.9812
-1.3587 4.0824 -1.9916 0.9812
-2.0614 3.7752 -1.9910 0.9812
-2.1947 3.6990 -1.9909 0.9812
-2.3252 3.6181 -1.9908 0.9812
-2.5772 3.4427 -1.9906 0.9812
-2.8159 3.2497 -1.9904 0.9812
-3.0403 3.0403 -1.9902 0.9812
-3.2492 2.8154 -1.9901 0.9812
-3.4415 2.5762 -1.9899 0.9812
-3.5311 2.4517 -1.9898 0.9812
-3.6162 2.3240 -1.9898 0.9812
-3.8436 1.9239 -1.9896 0.9812
-3.9097 1.7855 -1.9895 0.9812
-1.2017 0.4482 -0.5937 0.9944
-1.1536 0.3840 -0.5628 0.9947
-1.1330 0.3327 -0.5466 0.9948
-1.1575 0.2954 -0.5529 0.9947
-1.1974 0.2160 -0.5632 0.9947
-1.2124 0.1743 -0.5670 0.9946
-1.2362 0.0884 -0.5737 0.9946
-1.2424 0.0444 -0.5755 0.9945
4.0660 0.1452 -1.9957 0.9820
4.0453 0.4349 -1.9957 0.9820
4.0039 0.7224 -1.9957 0.9820
3.9755 0.8648 -1.9957 0.9820
3.9036 1.1462 -1.9956 0.9820
3.8601 1.2848 -1.9956 0.9820
3.7005 1.6899 -1.9955 0.9820
3.6377 1.8209 -1.9954 0.9820
3.4984 2.0757 -1.9953 0.9820
3.4219 2.1992 -1.9953 0.9820
3.2561 2.4375 -1.9952 0.9820
3.0737 2.6634 -1.9950 0.9820
2.9766 2.7713 -1.9950 0.9820
2.8757 2.8757 -1.9949 0.9820
2.7711 2.9764 -1.9948 0.9820
2.5515 3.1662 -1.9946 0.9820
2.3189 3.3399 -1.9945 0.9820
2.1981 3.4204 -1.9944 0.9820
2.0745 3.4965 -1.9943 0.9820
1.9483 3.5681 -1.9942 0.9821
1.8196 3.6352 -1.9941 0.9821
1.6887 3.6976 -1.9940 0.9821
1.5555 3.7554 -1.9939 0.9821
1.4204 3.8083 -1.9938 0.9821
1.2835 3.8563 -1.9937 0.9821
1.1450 3.8995 -1.9935 0.9821
1.0050 3.9376 -1.9934 0.9821
0.8638 3.9708 -1.9933 0.9821
0.4343 4.0397 -1.9930 0.9821
0.1450 4.0600 -1.9928 0.9821
0.0000 4.0623 -1.9927 0.9821
-0.2898 4.0515 -1.9924 0.9821
-0.5780 4.0200 -1.9922 0.9821
-0.8632 3.9681 -1.9920 0.9821
-1.2822 3.8525 -1.9916 0.9821
-1.4188 3.8040 -1.9915 0.9821
-1.5536 3.7508 -1.9914 0.9821
-1.6864 3.6927 -1.9913 0.9821
-2.3147 3.3338 -1.9908 0.9821
-2.6574 3.0668 -1.9905 0.9821
-2.9696 2.7648 -1.9903 0.9821
-3.1591 2.5458 -1.9901 0.9821
-3.2478 2.4313 -1.9901 0.9821
-3.5603 1.9441 -1.9898 0.9821
-1.0444 0.4769 -0.5632 0.9949
-1.0025 0.3337 -0.5183 0.9953
-1.0175 0.2988 -0.5202 0.9953
-1.0307 0.2631 -0.5218 0.9953
-1.0422 0.2267 -0.5232 0.9953
-1.0518 0.1898 -0.5242 0.9952
-1.0611 0.1526 -0.5258 0.9952
-1.0705 0.1151 -0.5281 0.9952
-1.0769 0.0770 -0.5296 0.9952
-1.0803 0.0386 -0.5302 0.9952
3.8442 0.1373 -1.9956 0.9828
3.7587 0.8176 -1.9955 0.9828
3.7270 0.9513 -1.9955 0.9828
3.6907 1.0837 -1.9955 0.9828
3.6038 1.3442 -1.9954 0.9828
3.5535 1.4719 -1.9954 0.9828
3.4393 1.7216 -1.9953 0.9828
3.3756 1.8432 -1.9952 0.9828
3.3076 1.9625 -1.9952 0.9828
3.2353 2.0792 -1.9951 0.9828
3.1590 2.1933 -1.9951 0.9828
2.9943 2.4129 -1.9950 0.9828
2.9061 2.5182 -1.9949 0.9828
2.8143 2.6202 -1.9948 0.9828
2.7189 2.7189 -1.9948 0.9828
2.5178 2.9057 -1.9946 0.9828
2.4124 2.9936 -1.9945 0.9828
2.3039 3.0777 -1.9944 0.9828
2.0783 3.2339 -1.9943 0.9828
1.9615 3.3059 -1.9942 0.9828
1.7205 3.4371 -1.9940 0.9828
1.5966 3.4961 -1.9939 0.9828
1.3430 3.6008 -1.9937 0.9828
1.2136 3.6462 -1.9936 0.9828
0.4107 3.8196 -1.9930 0.9828
0.1371 3.8388 -1.9928 0.9828
-0.5465 3.8011 -1.9922 0.9828
-0.6818 3.7790 -1.9921 0.9828
-0.9496 3.7203 -1.9919 0.9828
-1.2124 3.6427 -1.9917 0.9828
-1.3416 3.5970 -1.9916 0.9828
-1.7181 3.4324 -1.9913 0.9829
-1.9584 3.3008 -1.9911 0.9829
-2.6146 2.8083 -1.9906 0.9829
-2.7131 2.7131 -1.9905 0.9829
-3.1511 2.1879 -1.9901 0.9829
-3.2271 2.0739 -1.9901 0.9829
-3.2990 1.9574 -1.9900 0.9829
-0.9416 0.4713 -0.5463 0.9953
-0.9268 0.3085 -0.5067 0.9956
-0.9404 0.2761 -0.5085 0.9956
-0.9524 0.2431 -0.5099 0.9956
-0.9893 0.0353 -0.5135 0.9955
3.6409 0.1300 -1.9954 0.9835
3.5853 0.6469 -1.9954 0.9835
3.4955 1.0264 -1.9953 0.9835
3.4566 1.1504 -1.9953 0.9835
3.4133 1.2731 -1.9953 0.9835
3.1327 1.8587 -1.9951 0.9835
3.0643 1.9693 -1.9950 0.9835
2.9919 2.0773 -1.9949 0.9835
2.8359 2.2853 -1.9948 0.9835
2.2849 2.8354 -1.9944 0.9835
2.1821 2.9150 -1.9943 0.9835
1.9685 3.0630 -1.9942 0.9835
1.8578 3.1312 -1.9941 0.9835
1.7448 3.1953 -1.9940 0.9835
1.5122 3.3114 -1.9938 0.9835
1.3930 3.3631 -1.9937 0.9835
1.2720 3.4105 -1.9936 0.9835
1.0254 3.4922 -1.9934 0.9835
0.9001 3.5264 -1.9933 0.9835
0.7736 3.5561 -1.9932 0.9835
0.6461 3.5813 -1.9931 0.9835
0.3890 3.6179 -1.9929 0.9835
0.1299 3.6360 -1.9927 0.9835
0.0000 3.6382 -1.9926 0.9835
-0.3888 3.6168 -1.9923 0.9835
-0.5177 3.6004 -1.9922 0.9835
-0.7731 3.5539 -1.9920 0.9835
-0.8994 3.5239 -1.9919 0.9836
-1.0246 3.4894 -1.9918 0.9836
-1.3915 3.3594 -1.9915 0.9836
-1.6275 3.2513 -1.9914 0.9836
-1.7424 3.1909 -1.9913 0.9836
-2.0732 2.9860 -1.9910 0.9836
-2.2808 2.8303 -1.9908 0.9836
-2.3802 2.7469 -1.9907 0.9836
-2.4767 2.6601 -1.9907 0.9836
-2.5699 2.5699 -1.9906 0.9836
-3.0569 1.9645 -1.9902 0.9836
-0.8524 0.5058 -0.5429 0.9955
-0.8516 0.4263 -0.5216 0.9957
-0.8506 0.3884 -0.5122 0.9957
-0.8479 0.3512 -0.5027 0.9958
-0.8465 0.3157 -0.4948 0.9959
-0.8603 0.2863 -0.4966 0.9959
-0.8727 0.2562 -0.4982 0.9959
-0.8837 0.2256 -0.4995 0.9958
-0.9011 0.1626 -0.5015 0.9958
-0.9077 0.1305 -0.5022 0.9958
-0.9161 0.0655 -0.5030 0.9958
-0.9179 0.0328 -0.5031 0.9958
3.4559 0.0000 -1.9953 0.9842
3.4471 0.2465 -1.9953 0.9842
3.4361 0.3694 -1.9952 0.9842
3.4009 0.6136 -1.9952 0.9842
3.3484 0.8546 -1.9952 0.9842
3.2789 1.0913 -1.9951 0.9842
3.1433 1.4355 -1.9950 0.9842
2.8381 1.9705 -1.9948 0.9842
2.7659 2.0705 -1.9948 0.9842
2.6902 2.1679 -1.9947 0.9842
2.6110 2.2624 -1.9947 0.9842
2.5285 2.3541 -1.9946 0.9842
2.4428 2.4428 -1.9945 0.9842
2.3540 2.5283 -1.9945 0.9842
2.0700 2.7652 -1.9942 0.9842
1.9699 2.8372 -1.9942 0.9842
1.8673 2.9056 -1.9941 0.9842
1.7623 2.9702 -1.9940 0.9842
1.5458 3.0882 -1.9938 0.9842
1.4345 3.1412 -1.9938 0.9842
1.3215 3.1903 -1.9937 0.9842
1.0904 3.2761 -1.9935 0.9842
0.7338 3.3734 -1.9932 0.9842
0.6129 3.3973 -1.9931 0.9842
0.2462 3.4429 -1.9928 0.9842
0.1232 3.4493 -1.9927 0.9842
-0.2462 3.4422 -1.9924 0.9842
-0.3689 3.4311 -1.9923 0.9842
-0.8533 3.3430 -1.9920 0.9842
-0.9720 3.3103 -1.9919 0.9842
-1.0895 3.2733 -1.9918 0.9842
-1.2055 3.2322 -1.9917 0.9842
-1.4329 3.1377 -1.9915 0.9842
-1.6530 3.0272 -1.9913 0.9842
-1.7599 2.9661 -1.9912 0.9842
-2.4381 2.4381 -1.9907 0.9842
-2.6056 2.2578 -1.9906 0.9842
-2.6845 2.1633 -1.9905 0.9842
-2.7599 2.0660 -1.9904 0.9842
-0.7787 0.4252 -0.5122 0.9959
-0.7796 0.3229 -0.4872 0.9961
-0.7887 0.2942 -0.4860 0.9961
-0.8014 0.2667 -0.4876 0.9961
-0.8318 0.1810 -0.4915 0.9961
-0.8393 0.1514 -0.4924 0.9961
-0.8499 0.0914 -0.4935 0.9961
-0.8548 0.0305 -0.4938 0.9961
