ply
format ascii 1.0
element vertex 746
property float32 x
property float32 y
property float32 z
property float32 I
end_header
-9.0410 -0.3229 -1.9123 0.9637
-9.0243 -0.6454 -1.9124 0.9637
-8.9081 -1.6072 -1.9134 0.9637
-8.8474 -1.9246 -1.9139 0.9637
-8.4964 -3.1690 -1.9168 0.9636
-8.1223 -4.0657 -1.9200 0.9635
-7.9771 -4.3558 -1.9212 0.9635
-7.8218 -4.6409 -1.9225 0.9635
-7.2976 -5.4629 -1.9269 0.9634
-6.9012 -5.9799 -1.9302 0.9634
-6.6895 -6.2282 -1.9320 0.9633
-6.4692 -6.4692 -1.9339 0.9633
-6.0034 -6.9282 -1.9378 0.9632
-5.7584 -7.1457 -1.9399 0.9632
-5.5057 -7.3548 -1.9420 0.9631
-4.9784 -7.7465 -1.9464 0.9631
-4.7043 -7.9286 -1.9487 0.9630
-4.1368 -8.2643 -1.9535 0.9629
-3.5457 -8.5601 -1.9585 0.9628
-2.9337 -8.8144 -1.9637 0.9627
-2.6208 -8.9255 -1.9663 0.9627
-2.3037 -9.0256 -1.9690 0.9626
-1.6585 -9.1923 -1.9744 0.9625
-1.3312 -9.2586 -1.9772 0.9625
-0.6692 -9.3563 -1.9828 0.9624
-0.3353 -9.3876 -1.9856 0.9623
0.3362 -9.4144 -1.9913 0.9622
0.6730 -9.4098 -1.9941 0.9622
1.0099 -9.3932 -1.9970 0.9621
1.3464 -9.3645 -1.9998 0.9621
1.6822 -9.3237 -2.0027 0.9620
2.3496 -9.2057 -2.0083 0.9619
2.6804 -9.1287 -2.0111 0.9618
3.0087 -9.0397 -2.0139 0.9618
3.6558 -8.8259 -2.0193 0.9617
3.9738 -8.7014 -2.0220 0.9616
4.2874 -8.5652 -2.0247 0.9616
4.5963 -8.4176 -2.0273 0.9615
6.5897 -7.0778 -2.0442 0.9612
6.8453 -6.8453 -2.0463 0.9612
7.5601 -6.0923 -2.0524 0.9611
7.7798 -5.8238 -2.0542 0.9610
8.1893 -5.2629 -2.0577 0.9610
9.0246 -3.7381 -2.0648 0.9609
9.3865 -2.7561 -2.0679 0.9608
-8.1681 0.0000 -1.9197 0.9670
-8.1630 -0.2915 -1.9197 0.9670
-8.1479 -0.5828 -1.9198 0.9670
-8.1228 -0.8733 -1.9200 0.9670
-8.0877 -1.1628 -1.9203 0.9670
-7.8480 -2.3044 -1.9223 0.9669
-7.4530 -3.4037 -1.9256 0.9669
-7.3307 -3.6695 -1.9267 0.9669
-7.1991 -3.9310 -1.9278 0.9669
-7.0586 -4.1880 -1.9290 0.9668
-6.9091 -4.4402 -1.9302 0.9668
-6.5840 -4.9287 -1.9329 0.9668
-5.6277 -6.0445 -1.9410 0.9666
-5.4134 -6.2473 -1.9428 0.9666
-4.7285 -6.8104 -1.9486 0.9665
-4.2396 -7.1454 -1.9527 0.9664
-3.7273 -7.4461 -1.9570 0.9664
-2.9201 -7.8290 -1.9638 0.9662
-2.6419 -7.9377 -1.9662 0.9662
-2.3598 -8.0367 -1.9685 0.9662
-1.4927 -8.2735 -1.9759 0.9660
-1.1980 -8.3320 -1.9784 0.9660
-0.9009 -8.3801 -1.9809 0.9660
-0.3016 -8.4445 -1.9859 0.9659
0.0000 -8.4607 -1.9885 0.9658
0.3024 -8.4662 -1.9910 0.9658
0.6051 -8.4609 -1.9936 0.9657
1.2103 -8.4177 -1.9987 0.9657
1.8123 -8.3310 -2.0038 0.9656
2.7026 -8.1199 -2.0113 0.9654
3.2829 -7.9257 -2.0162 0.9654
3.5680 -7.8128 -2.0186 0.9653
3.8491 -7.6896 -2.0210 0.9653
4.3980 -7.4124 -2.0256 0.9652
4.6649 -7.2587 -2.0279 0.9652
4.9264 -7.0953 -2.0301 0.9651
5.1820 -6.9223 -2.0323 0.9651
6.1388 -6.1388 -2.0404 0.9650
6.3598 -5.9212 -2.0422 0.9649
6.5729 -5.6954 -2.0440 0.9649
6.7778 -5.4618 -2.0458 0.9649
6.9740 -5.2207 -2.0474 0.9648
7.5087 -4.4551 -2.0520 0.9648
7.6680 -4.1871 -2.0533 0.9647
7.8174 -3.9131 -2.0546 0.9647
7.9567 -3.6337 -2.0558 0.9647
8.3117 -2.7664 -2.0588 0.9646
8.4943 -2.1680 -2.0604 0.9646
8.5689 -1.8641 -2.0610 0.9646
8.6322 -1.5574 -2.0615 0.9646
8.6842 -1.2486 -2.0620 0.9646
8.7711 -0.3133 -2.0627 0.9646
-7.4381 0.0000 -1.9258 0.9697
-7.4334 -0.2655 -1.9259 0.9697
-7.3967 -0.7952 -1.9262 0.9697
-7.3646 -1.0589 -1.9264 0.9697
-7.2139 -1.8412 -1.9277 0.9697
-7.1457 -2.0982 -1.9283 0.9697
-6.8882 -2.8532 -1.9304 0.9697
-6.5533 -3.5784 -1.9332 0.9696
-5.9919 -4.4855 -1.9380 0.9695
-5.8320 -4.6998 -1.9393 0.9695
-5.4900 -5.1114 -1.9422 0.9695
-5.3083 -5.3083 -1.9437 0.9695
-5.1196 -5.4989 -1.9453 0.9694
-4.9242 -5.6829 -1.9469 0.9694
-4.7224 -5.8601 -1.9486 0.9694
-4.0802 -6.3489 -1.9541 0.9693
-3.6240 -6.6369 -1.9579 0.9692
-3.1478 -6.8926 -1.9619 0.9692
-2.6536 -7.1147 -1.9661 0.9691
-1.6213 -7.4528 -1.9748 0.9690
-1.3558 -7.5145 -1.9770 0.9689
-1.0879 -7.5667 -1.9793 0.9689
-0.5466 -7.6426 -1.9839 0.9688
-0.0000 -7.6800 -1.9885 0.9688
0.2744 -7.6840 -1.9908 0.9687
2.7148 -7.2788 -2.0114 0.9684
3.2342 -7.0820 -2.0158 0.9683
3.9852 -6.7168 -2.0222 0.9682
4.4632 -6.4282 -2.0262 0.9682
4.6943 -6.2708 -2.0282 0.9682
4.9197 -6.1050 -2.0301 0.9681
5.1392 -5.9309 -2.0319 0.9681
5.9510 -5.1566 -2.0388 0.9680
6.3132 -4.7260 -2.0419 0.9679
6.6434 -4.2694 -2.0447 0.9679
6.9395 -3.7893 -2.0472 0.9679
7.3162 -3.0305 -2.0504 0.9678
7.5201 -2.5029 -2.0521 0.9678
7.6074 -2.2338 -2.0529 0.9678
7.8092 -1.4089 -2.0546 0.9677
7.8560 -1.1295 -2.0550 0.9677
-6.8213 0.0000 -1.9311 0.9720
-6.8044 -0.4866 -1.9312 0.9720
-6.7538 -0.9710 -1.9316 0.9720
-6.6697 -1.4509 -1.9323 0.9720
-6.4027 -2.3881 -1.9345 0.9720
-6.1183 -3.0626 -1.9369 0.9720
-5.8900 -3.4947 -1.9388 0.9719
-5.7647 -3.7047 -1.9399 0.9719
-5.0313 -4.6843 -1.9461 0.9718
-4.8644 -4.8644 -1.9475 0.9718
-4.6912 -5.0387 -1.9489 0.9718
-4.5118 -5.2069 -1.9504 0.9718
-4.3266 -5.3689 -1.9520 0.9717
-4.1356 -5.5245 -1.9536 0.9717
-3.1027 -6.1985 -1.9623 0.9716
-2.8823 -6.3113 -1.9642 0.9716
-2.6577 -6.4163 -1.9661 0.9715
-2.4294 -6.5134 -1.9680 0.9715
-1.7244 -6.7562 -1.9739 0.9714
-0.9954 -6.9233 -1.9801 0.9713
-0.2504 -7.0122 -1.9864 0.9713
0.0000 -7.0242 -1.9885 0.9712
0.7533 -7.0063 -1.9949 0.9711
1.5026 -6.9075 -2.0012 0.9710
1.7501 -6.8566 -2.0033 0.9710
1.9957 -6.7968 -2.0054 0.9710
2.7191 -6.5645 -2.0115 0.9709
3.1867 -6.3663 -2.0154 0.9708
3.6397 -6.1343 -2.0193 0.9708
4.2861 -5.7256 -2.0247 0.9707
4.8858 -5.2477 -2.0298 0.9706
5.0740 -5.0740 -2.0314 0.9706
5.4311 -4.7061 -2.0344 0.9706
5.5996 -4.5124 -2.0358 0.9705
5.7609 -4.3126 -2.0372 0.9705
5.9150 -4.1068 -2.0385 0.9705
6.0615 -3.8955 -2.0398 0.9705
6.3310 -3.4570 -2.0421 0.9705
6.4537 -3.2305 -2.0431 0.9704
6.5680 -2.9995 -2.0441 0.9704
6.6738 -2.7644 -2.0450 0.9704
7.0702 -1.5380 -2.0483 0.9704
7.1222 -1.2850 -2.0488 0.9704
7.1648 -1.0301 -2.0491 0.9704
7.1980 -0.7739 -2.0494 0.9704
7.2217 -0.5165 -2.0496 0.9703
7.2360 -0.2584 -2.0498 0.9703
-6.2888 -0.2246 -1.9355 0.9740
-6.2303 -0.8958 -1.9360 0.9740
-6.1953 -1.1178 -1.9363 0.9740
-6.1526 -1.3384 -1.9367 0.9740
-6.1022 -1.5575 -1.9371 0.9740
-6.0443 -1.7748 -1.9376 0.9740
-5.9788 -1.9899 -1.9381 0.9740
-5.7378 -2.6204 -1.9401 0.9739
-5.6429 -2.8246 -1.9409 0.9739
-5.5409 -3.0256 -1.9418 0.9739
-5.3161 -3.4165 -1.9437 0.9739
-5.0644 -3.7911 -1.9458 0.9739
-4.9287 -3.9718 -1.9469 0.9739
-4.7868 -4.1478 -1.9481 0.9738
-3.8117 -5.0918 -1.9564 0.9737
-3.6304 -5.2287 -1.9579 0.9737
-3.4442 -5.3593 -1.9595 0.9737
-3.0582 -5.6006 -1.9627 0.9736
-2.8588 -5.7111 -1.9644 0.9736
-2.6554 -5.8146 -1.9661 0.9736
-2.4484 -5.9109 -1.9678 0.9736
-2.0241 -6.0815 -1.9714 0.9735
-1.8074 -6.1556 -1.9733 0.9735
-1.5881 -6.2220 -1.9751 0.9735
-1.3663 -6.2807 -1.9770 0.9735
-1.1423 -6.3315 -1.9789 0.9734
-0.9165 -6.3743 -1.9808 0.9734
-0.6891 -6.4092 -1.9827 0.9734
0.2310 -6.4673 -1.9905 0.9733
1.3823 -6.3544 -2.0002 0.9732
1.6098 -6.3071 -2.0021 0.9731
2.5004 -6.0364 -2.0096 0.9730
2.7167 -5.9487 -2.0115 0.9730
3.3458 -5.6391 -2.0168 0.9729
3.5480 -5.5208 -2.0185 0.9729
3.9392 -5.2622 -2.0218 0.9729
4.1278 -5.1223 -2.0234 0.9728
4.3113 -4.9755 -2.0250 0.9728
4.4895 -4.8221 -2.0265 0.9728
4.6621 -4.6621 -2.0279 0.9728
4.8289 -4.4958 -2.0293 0.9728
4.9896 -4.3235 -2.0307 0.9727
5.1441 -4.1454 -2.0320 0.9727
5.2920 -3.9616 -2.0333 0.9727
5.4332 -3.7724 -2.0345 0.9727
5.5675 -3.5780 -2.0356 0.9727
5.8146 -3.1750 -2.0377 0.9727
6.0317 -2.7546 -2.0395 0.9726
6.1287 -2.5386 -2.0404 0.9726
6.2986 -2.0964 -2.0418 0.9726
6.3714 -1.8708 -2.0424 0.9726
6.4358 -1.6427 -2.0430 0.9726
6.4919 -1.4122 -2.0435 0.9726
6.5785 -0.9458 -2.0442 0.9726
6.6089 -0.7105 -2.0445 0.9726
6.6306 -0.4742 -2.0447 0.9726
6.6437 -0.2373 -2.0448 0.9726
-5.8344 0.0000 -1.9394 0.9757
-5.8199 -0.4162 -1.9395 0.9757
-5.8018 -0.6237 -1.9397 0.9757
-5.7764 -0.8305 -1.9399 0.9757
-5.7042 -1.2409 -1.9405 0.9757
-5.5427 -1.8448 -1.9418 0.9757
-5.4750 -2.0421 -1.9424 0.9757
-5.4003 -2.2369 -1.9430 0.9757
-5.3189 -2.4291 -1.9437 0.9757
-5.1361 -2.8046 -1.9452 0.9756
-4.8136 -3.3421 -1.9479 0.9756
-4.6937 -3.5136 -1.9489 0.9756
-4.5678 -3.6809 -1.9500 0.9756
-4.2985 -4.0021 -1.9523 0.9755
-4.1555 -4.1555 -1.9535 0.9755
-4.0071 -4.3039 -1.9547 0.9755
-3.8535 -4.4471 -1.9560 0.9755
-3.6948 -4.5850 -1.9574 0.9755
-3.5313 -4.7173 -1.9587 0.9755
-3.1904 -4.9644 -1.9616 0.9754
-3.0135 -5.0790 -1.9631 0.9754
-2.6477 -5.2894 -1.9662 0.9754
-2.4592 -5.3848 -1.9678 0.9754
-1.8742 -5.6309 -1.9727 0.9753
-1.2648 -5.8141 -1.9778 0.9752
-0.6377 -5.9318 -1.9831 0.9752
-0.4260 -5.9562 -1.9849 0.9751
0.0000 -5.9822 -1.9885 0.9751
0.2137 -5.9838 -1.9903 0.9751
0.4275 -5.9778 -1.9921 0.9751
1.0670 -5.9138 -1.9975 0.9750
1.2785 -5.8773 -1.9993 0.9750
2.1093 -5.6553 -2.0063 0.9749
2.3118 -5.5811 -2.0081 0.9749
2.7086 -5.4110 -2.0114 0.9748
2.9023 -5.3152 -2.0131 0.9748
3.4620 -4.9862 -2.0178 0.9747
4.1483 -4.4556 -2.0236 0.9747
4.3075 -4.3075 -2.0249 0.9746
4.4614 -4.1537 -2.0262 0.9746
4.7521 -3.8295 -2.0287 0.9746
4.8886 -3.6595 -2.0299 0.9746
5.1426 -3.3050 -2.0320 0.9746
5.2599 -3.1208 -2.0330 0.9745
5.3704 -2.9325 -2.0340 0.9745
5.4740 -2.7401 -2.0348 0.9745
5.5706 -2.5440 -2.0357 0.9745
5.6599 -2.3444 -2.0364 0.9745
5.8166 -1.9359 -2.0377 0.9745
6.0385 -1.0895 -2.0396 0.9745
6.0745 -0.8734 -2.0399 0.9745
6.1025 -0.6561 -2.0402 0.9745
6.1225 -0.4379 -2.0404 0.9745
6.1346 -0.2191 -2.0405 0.9745
-5.4327 0.0000 -1.9428 0.9772
-5.4293 -0.1939 -1.9428 0.9772
-5.4192 -0.3876 -1.9429 0.9772
-5.4023 -0.5808 -1.9430 0.9772
-5.3786 -0.7733 -1.9432 0.9772
-5.3483 -0.9649 -1.9435 0.9772
-5.3113 -1.1554 -1.9438 0.9772
-5.2174 -1.5320 -1.9446 0.9772
-5.1607 -1.7176 -1.9450 0.9772
-4.7815 -2.6109 -1.9482 0.9771
-4.6872 -2.7811 -1.9490 0.9771
-4.5869 -2.9479 -1.9499 0.9771
-4.4809 -3.1111 -1.9507 0.9771
-4.3691 -3.2706 -1.9517 0.9771
-4.2517 -3.4262 -1.9527 0.9771
-4.1289 -3.5777 -1.9537 0.9771
-4.0008 -3.7248 -1.9548 0.9770
-3.8675 -3.8675 -1.9559 0.9770
-3.4382 -4.2666 -1.9595 0.9770
-3.2859 -4.3895 -1.9608 0.9770
-3.1293 -4.5070 -1.9621 0.9770
-2.9685 -4.6190 -1.9635 0.9769
-2.8037 -4.7253 -1.9649 0.9769
-2.6351 -4.8259 -1.9663 0.9769
-2.4630 -4.9205 -1.9677 0.9769
-2.2876 -5.0090 -1.9692 0.9769
-2.1089 -5.0914 -1.9707 0.9769
-1.9274 -5.1674 -1.9723 0.9768
-1.7431 -5.2371 -1.9738 0.9768
-1.5563 -5.3002 -1.9754 0.9768
-1.1761 -5.4065 -1.9786 0.9768
-0.9832 -5.4495 -1.9802 0.9768
-0.7887 -5.4856 -1.9819 0.9767
-0.5929 -5.5149 -1.9835 0.9767
-0.3960 -5.5372 -1.9852 0.9767
-0.1983 -5.5524 -1.9869 0.9767
0.0000 -5.5607 -1.9885 0.9767
0.3974 -5.5559 -1.9919 0.9766
0.5959 -5.5428 -1.9936 0.9766
0.7940 -5.5226 -1.9952 0.9766
1.1880 -5.4610 -1.9986 0.9765
1.3833 -5.4196 -2.0002 0.9765
1.9594 -5.2534 -2.0051 0.9765
2.1474 -5.1842 -2.0067 0.9764
2.5157 -5.0256 -2.0098 0.9764
2.6955 -4.9364 -2.0113 0.9764
3.0452 -4.7385 -2.0143 0.9764
3.2147 -4.6301 -2.0157 0.9763
3.6987 -4.2685 -2.0198 0.9763
3.8512 -4.1365 -2.0211 0.9763
3.9988 -3.9988 -2.0223 0.9763
4.2789 -3.7077 -2.0247 0.9762
4.4110 -3.5546 -2.0258 0.9762
4.5374 -3.3967 -2.0269 0.9762
4.7729 -3.0674 -2.0289 0.9762
4.8815 -2.8963 -2.0298 0.9762
5.3973 -1.7964 -2.0342 0.9761
5.5144 -1.4075 -2.0352 0.9761
5.5622 -1.2100 -2.0356 0.9761
5.6028 -1.0109 -2.0360 0.9761
5.6361 -0.8103 -2.0362 0.9761
5.6621 -0.6087 -2.0365 0.9761
5.6806 -0.4063 -2.0366 0.9761
5.6918 -0.2033 -2.0367 0.9761
-5.0775 0.0000 -1.9458 0.9785
-5.0743 -0.1812 -1.9458 0.9785
-5.0648 -0.3622 -1.9459 0.9785
-5.0490 -0.5428 -1.9460 0.9785
-4.9985 -0.9018 -1.9464 0.9785
-4.9638 -1.0798 -1.9467 0.9785
-4.9230 -1.2565 -1.9471 0.9785
-4.8760 -1.4317 -1.9475 0.9785
-4.7637 -1.7768 -1.9484 0.9785
-4.5507 -2.2779 -1.9502 0.9784
-4.4681 -2.4397 -1.9509 0.9784
-4.1867 -2.9069 -1.9532 0.9784
-4.0821 -3.0559 -1.9541 0.9784
-3.9723 -3.2011 -1.9550 0.9784
-3.7376 -3.4799 -1.9570 0.9784
-3.4837 -3.7417 -1.9592 0.9783
-2.9227 -4.2095 -1.9639 0.9783
-2.6184 -4.4131 -1.9664 0.9783
-2.4609 -4.5068 -1.9678 0.9782
-2.1361 -4.6773 -1.9705 0.9782
-1.6274 -4.8895 -1.9748 0.9782
-1.4529 -4.9482 -1.9763 0.9782
-1.2763 -5.0006 -1.9778 0.9781
-0.1851 -5.1817 -1.9870 0.9780
0.0000 -5.1891 -1.9885 0.9780
0.3708 -5.1840 -1.9917 0.9780
0.9250 -5.1267 -1.9964 0.9779
1.1082 -5.0943 -1.9979 0.9779
1.4711 -5.0100 -2.0010 0.9779
1.6502 -4.9580 -2.0025 0.9779
2.0027 -4.8349 -2.0055 0.9778
2.1755 -4.7638 -2.0069 0.9778
2.3459 -4.6864 -2.0084 0.9778
2.5134 -4.6030 -2.0098 0.9778
3.3017 -4.0971 -2.0165 0.9777
3.4479 -3.9791 -2.0177 0.9777
3.5899 -3.8558 -2.0189 0.9777
3.7274 -3.7274 -2.0201 0.9777
4.1111 -3.3129 -2.0233 0.9776
4.2288 -3.1656 -2.0243 0.9776
4.4479 -2.8585 -2.0262 0.9776
4.6443 -2.5360 -2.0278 0.9776
4.7336 -2.3695 -2.0286 0.9776
5.0289 -1.6738 -2.0311 0.9776
5.0866 -1.4936 -2.0316 0.9775
5.1378 -1.3114 -2.0320 0.9775
5.2201 -0.9418 -2.0327 0.9775
5.2752 -0.5672 -2.0332 0.9775
5.2925 -0.3785 -2.0334 0.9775
5.3029 -0.1894 -2.0334 0.9775
-4.7608 0.0000 -1.9485 0.9796
-4.7340 -0.5089 -1.9487 0.9796
-4.7132 -0.6777 -1.9488 0.9796
-4.6157 -1.1781 -1.9497 0.9796
-4.5716 -1.3423 -1.9500 0.9796
-4.4662 -1.6658 -1.9509 0.9796
-4.4050 -1.8246 -1.9514 0.9796
-4.2662 -2.1355 -1.9526 0.9796
-4.1887 -2.2872 -1.9532 0.9796
-4.0178 -2.5821 -1.9547 0.9796
-3.9246 -2.7249 -1.9555 0.9796
-3.8265 -2.8645 -1.9563 0.9796
-3.6157 -3.1330 -1.9581 0.9795
-3.3863 -3.3863 -1.9600 0.9795
-3.2650 -3.5068 -1.9610 0.9795
-2.8762 -3.8421 -1.9643 0.9795
-2.3057 -4.2227 -1.9691 0.9794
-2.0012 -4.3821 -1.9717 0.9794
-1.8448 -4.4537 -1.9730 0.9794
-1.6858 -4.5198 -1.9743 0.9794
-1.5245 -4.5802 -1.9757 0.9794
-1.3609 -4.6350 -1.9771 0.9793
-1.1955 -4.6839 -1.9785 0.9793
-0.8595 -4.7641 -1.9813 0.9793
-0.5182 -4.8203 -1.9842 0.9793
-0.3461 -4.8392 -1.9856 0.9792
-0.1733 -4.8520 -1.9871 0.9792
0.1735 -4.8592 -1.9900 0.9792
0.3471 -4.8535 -1.9915 0.9792
0.5205 -4.8416 -1.9929 0.9792
0.6935 -4.8234 -1.9944 0.9792
1.3769 -4.6892 -2.0002 0.9791
1.5444 -4.6403 -2.0016 0.9791
1.7103 -4.5854 -2.0030 0.9791
2.0358 -4.4579 -2.0058 0.9790
2.1951 -4.3853 -2.0071 0.9790
2.3518 -4.3070 -2.0084 0.9790
2.6565 -4.1336 -2.0110 0.9790
2.8041 -4.0386 -2.0123 0.9790
2.9482 -3.9383 -2.0135 0.9790
3.0887 -3.8329 -2.0147 0.9789
3.3581 -3.6068 -2.0169 0.9789
3.4866 -3.4866 -2.0180 0.9789
3.6107 -3.3617 -2.0191 0.9789
3.7302 -3.2322 -2.0201 0.9789
3.9550 -2.9607 -2.0220 0.9789
4.0600 -2.8189 -2.0229 0.9789
4.3432 -2.3716 -2.0253 0.9788
4.4266 -2.2158 -2.0260 0.9788
4.9323 -0.5303 -2.0303 0.9788
-1.4601 0.0000 -0.6363 0.9936
-1.4571 -0.0520 -0.6354 0.9937
-1.4490 -0.1036 -0.6331 0.9937
-1.4359 -0.1544 -0.6294 0.9937
-1.4180 -0.2039 -0.6244 0.9938
-1.3955 -0.2518 -0.6180 0.9938
-1.3400 -0.3420 -0.6027 0.9940
-1.4401 -0.4793 -0.6615 0.9934
-1.5118 -0.5639 -0.7032 0.9930
-4.1415 -1.7155 -1.9536 0.9806
-4.0108 -2.0077 -1.9547 0.9806
-3.7770 -2.4273 -1.9567 0.9806
-3.3986 -2.9449 -1.9599 0.9806
-3.1828 -3.1828 -1.9617 0.9806
-3.0687 -3.2960 -1.9627 0.9805
-2.8287 -3.5102 -1.9647 0.9805
-2.7030 -3.6108 -1.9658 0.9805
-2.5739 -3.7071 -1.9668 0.9805
-2.4413 -3.7987 -1.9680 0.9805
-2.0248 -4.0451 -1.9715 0.9805
-1.8803 -4.1174 -1.9727 0.9804
-1.7333 -4.1845 -1.9739 0.9804
-1.5838 -4.2464 -1.9752 0.9804
-1.2785 -4.3542 -1.9778 0.9804
-0.6476 -4.5040 -1.9831 0.9803
-0.4867 -4.5273 -1.9844 0.9803
-0.3251 -4.5449 -1.9858 0.9803
0.0000 -4.5628 -1.9886 0.9803
0.1630 -4.5631 -1.9899 0.9803
0.4888 -4.5461 -1.9927 0.9802
0.6512 -4.5289 -1.9941 0.9802
0.8129 -4.5058 -1.9954 0.9802
1.1339 -4.4424 -1.9981 0.9802
1.2926 -4.4020 -1.9995 0.9802
1.6054 -4.3043 -2.0021 0.9802
1.9109 -4.1842 -2.0047 0.9801
2.0603 -4.1159 -2.0060 0.9801
2.4930 -3.8792 -2.0096 0.9801
2.7666 -3.6957 -2.0119 0.9801
3.3876 -3.1540 -2.0172 0.9800
3.4997 -3.0325 -2.0181 0.9800
3.8087 -2.6444 -2.0208 0.9800
3.9022 -2.5078 -2.0216 0.9800
3.9907 -2.3678 -2.0223 0.9800
4.0741 -2.2246 -2.0230 0.9799
4.1523 -2.0785 -2.0237 0.9799
4.3544 -1.6241 -2.0254 0.9799
4.4611 -1.3099 -2.0263 0.9799
4.5448 -0.9887 -2.0270 0.9799
4.5778 -0.8259 -2.0273 0.9799
4.6049 -0.6621 -2.0275 0.9799
4.6260 -0.4974 -2.0277 0.9799
-1.2447 0.0000 -0.5761 0.9945
-1.2261 -0.1318 -0.5708 0.9946
-1.1974 -0.2160 -0.5632 0.9947
-1.1790 -0.2565 -0.5585 0.9947
-1.1330 -0.3327 -0.5466 0.9948
-1.2017 -0.4482 -0.5937 0.9944
-1.2345 -0.5114 -0.6185 0.9941
-3.8441 -1.7555 -1.9562 0.9815
-3.7800 -1.8921 -1.9567 0.9815
-3.5595 -2.2875 -1.9585 0.9815
-3.2983 -2.6579 -1.9607 0.9815
-3.1029 -2.8889 -1.9624 0.9815
-2.7801 -3.2084 -1.9651 0.9815
-2.6651 -3.3072 -1.9661 0.9815
-2.4249 -3.4925 -1.9681 0.9814
-2.2999 -3.5788 -1.9692 0.9814
-2.0410 -3.7379 -1.9713 0.9814
-1.7712 -3.8784 -1.9736 0.9814
-1.3489 -4.0528 -1.9772 0.9813
-1.2041 -4.1009 -1.9784 0.9813
-0.9097 -4.1816 -1.9809 0.9813
-0.6098 -4.2413 -1.9834 0.9813
-0.3061 -4.2795 -1.9860 0.9813
-0.1532 -4.2905 -1.9873 0.9813
0.4601 -4.2797 -1.9924 0.9812
0.7653 -4.2415 -1.9950 0.9812
1.2166 -4.1433 -1.9988 0.9811
1.3645 -4.0998 -2.0001 0.9811
1.6556 -3.9969 -2.0026 0.9811
1.7983 -3.9377 -2.0038 0.9811
1.9388 -3.8733 -2.0049 0.9811
2.0770 -3.8038 -2.0061 0.9811
2.2127 -3.7294 -2.0073 0.9811
2.3458 -3.6501 -2.0084 0.9811
2.6030 -3.4772 -2.0106 0.9810
2.9643 -3.1839 -2.0136 0.9810
3.0775 -3.0775 -2.0146 0.9810
3.1868 -2.9670 -2.0155 0.9810
3.9054 -1.9549 -2.0216 0.9809
3.9739 -1.8148 -2.0222 0.9809
4.1481 -1.3806 -2.0237 0.9809
4.2377 -1.0816 -2.0244 0.9809
4.3052 -0.7767 -2.0250 0.9809
4.3505 -0.4677 -2.0254 0.9809
-1.0803 -0.0386 -0.5302 0.9952
-1.0705 -0.1151 -0.5281 0.9952
-1.0518 -0.1898 -0.5242 0.9952
-1.0307 -0.2631 -0.5218 0.9953
-1.0175 -0.2988 -0.5202 0.9953
-1.0025 -0.3337 -0.5183 0.9953
-1.0119 -0.3774 -0.5298 0.9952
-1.0290 -0.4262 -0.5463 0.9951
-1.0444 -0.4769 -0.5632 0.9949
-3.4357 -2.0385 -1.9596 0.9824
-3.3618 -2.1605 -1.9602 0.9824
-3.2013 -2.3965 -1.9616 0.9823
-3.0245 -2.6207 -1.9631 0.9823
-2.8322 -2.8322 -1.9647 0.9823
-2.7305 -2.9327 -1.9655 0.9823
-2.6252 -3.0297 -1.9664 0.9823
-2.5166 -3.1229 -1.9673 0.9823
-2.2896 -3.2977 -1.9693 0.9823
-2.1716 -3.3790 -1.9702 0.9823
-1.9270 -3.5290 -1.9723 0.9822
-1.8008 -3.5975 -1.9734 0.9822
-1.5412 -3.7209 -1.9756 0.9822
-1.2733 -3.8257 -1.9778 0.9822
-0.9983 -3.9114 -1.9801 0.9822
-0.8586 -3.9469 -1.9813 0.9822
-0.7176 -3.9774 -1.9825 0.9822
0.0000 -4.0540 -1.9886 0.9821
0.2896 -4.0486 -1.9910 0.9821
0.5784 -4.0226 -1.9935 0.9821
1.1477 -3.9087 -1.9983 0.9820
1.2872 -3.8675 -1.9994 0.9820
1.4253 -3.8214 -2.0006 0.9820
1.6962 -3.7142 -2.0029 0.9820
2.2124 -3.4425 -2.0073 0.9819
2.7953 -3.0023 -2.0122 0.9819
3.1995 -2.5783 -2.0156 0.9819
3.2908 -2.4634 -2.0164 0.9819
3.3779 -2.3453 -2.0171 0.9818
3.4606 -2.2240 -2.0178 0.9818
3.5390 -2.0998 -2.0185 0.9818
3.6819 -1.8430 -2.0197 0.9818
3.8060 -1.5765 -2.0208 0.9818
3.9105 -1.3016 -2.0217 0.9818
4.0585 -0.7322 -2.0229 0.9818
4.1011 -0.4409 -2.0233 0.9818
4.1145 -0.2943 -2.0234 0.9818
-0.9895 0.0000 -0.5133 0.9956
-0.9838 -0.1058 -0.5133 0.9956
-0.9785 -0.1407 -0.5129 0.9956
-0.9628 -0.2094 -0.5112 0.9956
-0.9524 -0.2431 -0.5099 0.9956
-0.9404 -0.2761 -0.5085 0.9956
-0.9268 -0.3085 -0.5067 0.9956
-0.9208 -0.3434 -0.5098 0.9956
-0.9271 -0.3840 -0.5206 0.9955
-0.9326 -0.4259 -0.5319 0.9954
-0.9416 -0.4713 -0.5463 0.9953
-3.2511 -1.9290 -1.9612 0.9831
-3.1072 -2.1573 -1.9624 0.9831
-2.9474 -2.3751 -1.9637 0.9831
-2.8618 -2.4797 -1.9644 0.9831
-2.7725 -2.5813 -1.9652 0.9831
-2.6797 -2.6797 -1.9660 0.9831
-2.5834 -2.7747 -1.9668 0.9831
-2.0543 -3.1966 -1.9712 0.9830
-1.9399 -3.2694 -1.9722 0.9830
-1.8228 -3.3383 -1.9732 0.9830
-1.5817 -3.4634 -1.9752 0.9830
-1.4578 -3.5195 -1.9763 0.9830
-1.3320 -3.5712 -1.9773 0.9830
-1.0750 -3.6611 -1.9795 0.9830
-0.9442 -3.6992 -1.9806 0.9829
-0.6786 -3.7614 -1.9828 0.9829
-0.1367 -3.8285 -1.9874 0.9829
0.2738 -3.8279 -1.9909 0.9829
0.4105 -3.8179 -1.9920 0.9828
0.5468 -3.8030 -1.9932 0.9828
0.6826 -3.7832 -1.9943 0.9828
1.6032 -3.5105 -2.0021 0.9828
1.8515 -3.3908 -2.0042 0.9827
2.0908 -3.2533 -2.0062 0.9827
2.3198 -3.0989 -2.0082 0.9827
2.5373 -2.9282 -2.0100 0.9827
2.7421 -2.7421 -2.0118 0.9827
2.9331 -2.5415 -2.0134 0.9827
3.0230 -2.4361 -2.0141 0.9827
3.1092 -2.3275 -2.0149 0.9827
3.2695 -2.1012 -2.0162 0.9826
3.4131 -1.8637 -2.0174 0.9826
3.4784 -1.7412 -2.0180 0.9826
3.5956 -1.4893 -2.0190 0.9826
3.6472 -1.3604 -2.0194 0.9826
3.6942 -1.2295 -2.0198 0.9826
3.8063 -0.8280 -2.0208 0.9826
3.8338 -0.6917 -2.0210 0.9826
3.8565 -0.5545 -2.0212 0.9826
3.8741 -0.4165 -2.0214 0.9826
3.8943 -0.1391 -2.0215 0.9826
-0.9011 -0.1626 -0.5015 0.9958
-0.8932 -0.1943 -0.5006 0.9958
-0.8837 -0.2255 -0.4995 0.9958
-0.8603 -0.2863 -0.4966 0.9959
-0.8465 -0.3157 -0.4948 0.9959
-0.8516 -0.4263 -0.5216 0.9957
-3.0153 -1.9378 -1.9632 0.9838
-2.7936 -2.2512 -1.9650 0.9838
-2.6277 -2.4465 -1.9664 0.9838
-2.4484 -2.6297 -1.9679 0.9837
-2.3539 -2.7165 -1.9687 0.9837
-1.8382 -3.0981 -1.9731 0.9837
-1.6141 -3.2245 -1.9750 0.9837
-1.4987 -3.2816 -1.9759 0.9837
-1.3813 -3.3347 -1.9769 0.9837
-1.2620 -3.3836 -1.9779 0.9837
-1.1410 -3.4283 -1.9789 0.9837
-1.0185 -3.4686 -1.9800 0.9836
-0.7693 -3.5362 -1.9821 0.9836
-0.5156 -3.5859 -1.9842 0.9836
-0.3875 -3.6040 -1.9853 0.9836
-0.1295 -3.6264 -1.9875 0.9836
0.0000 -3.6308 -1.9886 0.9836
0.2593 -3.6255 -1.9908 0.9836
0.3888 -3.6159 -1.9919 0.9836
0.5178 -3.6017 -1.9930 0.9835
0.6464 -3.5829 -1.9940 0.9835
1.0274 -3.4989 -1.9973 0.9835
1.2757 -3.4203 -1.9994 0.9835
1.7530 -3.2104 -2.0034 0.9835
1.8674 -3.1473 -2.0044 0.9834
2.5004 -2.6856 -2.0097 0.9834
2.7763 -2.4057 -2.0121 0.9834
2.8615 -2.3059 -2.0128 0.9834
3.0207 -2.0973 -2.0141 0.9834
3.0946 -1.9888 -2.0148 0.9834
3.1645 -1.8776 -2.0153 0.9834
3.2304 -1.7640 -2.0159 0.9834
3.3497 -1.5298 -2.0169 0.9833
3.4030 -1.4096 -2.0174 0.9833
3.6283 -0.6546 -2.0193 0.9833
3.6854 -0.1316 -2.0198 0.9833
-0.8531 -0.0610 -0.4938 0.9961
-0.8393 -0.1514 -0.4924 0.9961
-0.8230 -0.2101 -0.4904 0.9961
-0.7887 -0.2942 -0.4860 0.9961
-0.7796 -0.3229 -0.4872 0.9961
-0.7809 -0.3566 -0.4957 0.9960
-0.7806 -0.3908 -0.5040 0.9960
-0.7787 -0.4252 -0.5122 0.9959
-0.7696 -0.4946 -0.5282 0.9958
-2.7255 -2.0402 -1.9656 0.9844
-2.5746 -2.2309 -1.9669 0.9844
-2.4942 -2.3222 -1.9675 0.9844
-2.3239 -2.4960 -1.9690 0.9844
-2.2342 -2.5784 -1.9697 0.9844
-1.9481 -2.8058 -1.9721 0.9843
-1.8475 -2.8748 -1.9730 0.9843
-1.7445 -2.9402 -1.9739 0.9843
-1.6392 -3.0020 -1.9748 0.9843
-1.4222 -3.1142 -1.9766 0.9843
-1.3107 -3.1644 -1.9775 0.9843
-1.1975 -3.2107 -1.9785 0.9843
-1.0827 -3.2530 -1.9794 0.9843
-0.7299 -3.3552 -1.9824 0.9843
-0.3676 -3.4192 -1.9855 0.9842
0.0000 -3.4443 -1.9886 0.9842
0.1230 -3.4439 -1.9896 0.9842
0.2460 -3.4391 -1.9907 0.9842
0.3688 -3.4300 -1.9917 0.9842
0.7344 -3.3761 -1.9948 0.9842
1.0928 -3.2832 -1.9978 0.9841
1.3255 -3.2001 -1.9998 0.9841
1.4396 -3.1522 -2.0007 0.9841
1.6624 -3.0444 -2.0026 0.9841
1.7708 -2.9845 -2.0035 0.9841
1.8770 -2.9207 -2.0044 0.9841
2.1812 -2.7068 -2.0070 0.9841
2.3707 -2.5463 -2.0086 0.9841
2.4610 -2.4610 -2.0094 0.9841
2.5482 -2.3725 -2.0101 0.9840
2.6322 -2.2808 -2.0108 0.9840
2.7128 -2.1861 -2.0115 0.9840
2.7900 -2.0886 -2.0122 0.9840
2.8637 -1.9883 -2.0128 0.9840
3.0000 -1.7800 -2.0140 0.9840
3.1209 -1.5622 -2.0150 0.9840
3.2258 -1.3362 -2.0159 0.9840
3.2721 -1.2204 -2.0163 0.9840
3.3142 -1.1031 -2.0166 0.9840
3.3520 -0.9842 -2.0169 0.9840
3.4595 -0.4974 -2.0179 0.9840
