ply
format ascii 1.0
element vertex 834
property float32 x
property float32 y
property float32 z
property float32 I
end_header
2.1603 5.7921 -0.0348 0.9756
1.4810 5.8026 -0.0337 0.9763
1.0488 5.8132 -0.0333 0.9766
0.8368 5.8198 -0.0331 0.9768
0.6264 5.8268 -0.0330 0.9768
0.4173 5.8348 -0.0329 0.9769
0.2090 5.8516 -0.0330 0.9769
0.0000 5.9095 -0.0333 0.9766
2.6156 5.7274 -0.1773 0.9751
2.3732 5.7294 -0.1746 0.9755
2.1383 5.7331 -0.1723 0.9758
1.9087 5.7348 -0.1702 0.9761
1.6854 5.7398 -0.1684 0.9763
1.4662 5.7446 -0.1669 0.9766
1.2509 5.7503 -0.1657 0.9767
0.8282 5.7599 -0.1639 0.9770
0.6199 5.7662 -0.1633 0.9771
0.4130 5.7749 -0.1630 0.9771
0.2065 5.7804 -0.1629 0.9771
0.0000 5.8156 -0.1638 0.9770
-0.2190 6.1315 -0.1728 0.9757
2.8435 5.6807 -0.3222 0.9749
2.5963 5.6851 -0.3170 0.9753
2.3550 5.6854 -0.3121 0.9757
1.6716 5.6930 -0.3009 0.9765
1.4543 5.6980 -0.2982 0.9767
1.2409 5.7044 -0.2961 0.9769
1.0295 5.7062 -0.2941 0.9770
0.8215 5.7137 -0.2927 0.9771
0.6150 5.7204 -0.2918 0.9772
0.0000 5.7709 -0.2927 0.9772
2.9167 5.3415 -0.4462 0.9759
2.1048 5.6431 -0.4416 0.9761
1.6601 5.6537 -0.4320 0.9766
1.2316 5.6616 -0.4248 0.9770
0.8159 5.6747 -0.4204 0.9773
0.6108 5.6810 -0.4189 0.9773
0.4071 5.6917 -0.4184 0.9774
0.2038 5.7059 -0.4186 0.9774
-0.2080 5.8235 -0.4273 0.9769
2.9301 5.3661 -0.5870 0.9757
2.5615 5.6090 -0.5920 0.9755
2.0925 5.6101 -0.5748 0.9762
1.8689 5.6153 -0.5682 0.9765
1.4351 5.6228 -0.5571 0.9770
1.2237 5.6254 -0.5527 0.9771
1.0160 5.6315 -0.5494 0.9773
0.8109 5.6400 -0.5470 0.9774
0.4043 5.6524 -0.5440 0.9775
0.2023 5.6643 -0.5441 0.9775
0.0000 5.6821 -0.5455 0.9774
-0.2053 5.7470 -0.5521 0.9772
-5.0494 6.7452 -0.8089 0.9667
-5.2409 6.0483 -0.7683 0.9684
-5.5582 5.9700 -0.7831 0.9678
-5.9541 5.9540 -0.8084 0.9667
4.5126 5.5998 -0.8543 0.9714
4.1379 5.5276 -0.8202 0.9726
3.0130 5.5178 -0.7468 0.9750
2.7649 5.5235 -0.7337 0.9754
2.2991 5.5505 -0.7136 0.9761
2.0665 5.5406 -0.7024 0.9765
1.6292 5.5484 -0.6869 0.9770
1.2091 5.5579 -0.6756 0.9773
1.0046 5.5679 -0.6721 0.9775
0.5998 5.5788 -0.6665 0.9777
-0.2025 5.6712 -0.6741 0.9774
-0.4216 5.8951 -0.7020 0.9765
-4.8166 6.9372 -1.0032 0.9666
-4.8575 6.4889 -0.9628 0.9679
-5.4676 5.8726 -0.9531 0.9682
-6.2923 5.8584 -1.0212 0.9660
4.4387 5.5081 -1.0023 0.9718
4.0972 5.4732 -0.9687 0.9728
3.5267 5.4877 -0.9243 0.9740
3.2613 5.4966 -0.9056 0.9745
2.5140 5.5049 -0.8575 0.9758
2.0554 5.5106 -0.8333 0.9765
1.6200 5.5171 -0.8147 0.9770
1.4090 5.5204 -0.8073 0.9772
1.2024 5.5273 -0.8015 0.9774
0.3968 5.5478 -0.7881 0.9778
0.0000 5.5911 -0.7922 0.9777
-0.2007 5.6196 -0.7967 0.9775
-3.5100 7.0120 -1.1110 0.9688
-3.6386 6.6636 -1.0757 0.9698
-3.8901 6.5563 -1.0802 0.9697
-4.9732 5.7393 -1.0760 0.9698
-5.7746 5.7746 -1.1571 0.9675
-6.1768 5.7508 -1.1958 0.9665
-7.1030 5.7239 -1.2925 0.9638
4.4109 5.4736 -1.1581 0.9719
3.0037 5.5009 -1.0325 0.9749
2.5156 5.5085 -0.9976 0.9757
2.0554 5.5108 -0.9689 0.9764
1.6180 5.5103 -0.9461 0.9770
1.4064 5.5100 -0.9368 0.9772
1.1992 5.5126 -0.9294 0.9774
0.9944 5.5113 -0.9226 0.9776
0.7923 5.5108 -0.9172 0.9777
0.0000 5.5731 -0.9181 0.9777
-0.4194 5.8639 -0.9685 0.9764
-3.1326 6.2581 -1.1529 0.9720
-3.5578 5.9964 -1.1486 0.9721
-3.7299 5.8038 -1.1365 0.9724
-4.9631 5.7277 -1.2485 0.9697
-5.3351 5.7303 -1.2898 0.9688
-5.7576 5.7576 -1.3414 0.9675
-6.1701 5.7445 -1.3888 0.9664
-7.1051 5.7257 -1.5033 0.9637
4.4180 5.4824 -1.3234 0.9717
4.1159 5.4981 -1.2909 0.9724
3.5711 5.5568 -1.2415 0.9735
3.2586 5.4921 -1.2003 0.9743
2.7598 5.5135 -1.1589 0.9752
2.0593 5.5213 -1.1076 0.9763
1.8373 5.5203 -1.0936 0.9766
1.6193 5.5150 -1.0804 0.9769
1.1990 5.5117 -1.0602 0.9773
0.8596 5.9789 -1.1354 0.9757
0.3943 5.5127 -1.0388 0.9778
0.1972 5.5217 -1.0385 0.9778
-0.2003 5.6088 -1.0549 0.9774
-0.4175 5.8371 -1.0999 0.9765
-2.9079 7.0204 -1.4283 0.9695
-3.0041 6.5780 -1.3592 0.9710
-3.0387 6.0705 -1.2760 0.9727
-3.1357 5.7425 -1.2298 0.9737
-3.3955 5.7229 -1.2508 0.9733
-3.6725 5.7145 -1.2768 0.9727
-3.9691 5.7166 -1.3081 0.9721
-4.2806 5.7182 -1.3426 0.9713
-4.6140 5.7256 -1.3821 0.9705
-6.1751 5.7492 -1.5858 0.9662
-7.2283 5.8250 -1.7449 0.9629
9.1728 0.0000 -1.9390 0.9632
9.1496 0.6544 -1.9390 0.9632
8.9674 1.9508 -1.9399 0.9632
8.8939 2.2700 -1.9403 0.9632
8.7138 2.9002 -1.9413 0.9631
8.6074 3.2104 -1.9419 0.9631
8.0757 4.4097 -1.9449 0.9631
7.9169 4.6974 -1.9459 0.9631
7.7482 4.9795 -1.9469 0.9630
7.5696 5.2557 -1.9479 0.9630
6.9771 6.0457 -1.9515 0.9630
6.7613 6.2950 -1.9527 0.9629
6.3039 6.7708 -1.9555 0.9629
6.0627 6.9967 -1.9569 0.9629
4.4422 5.5124 -1.4965 0.9715
4.1770 5.5799 -1.4733 0.9719
3.8496 5.5445 -1.4268 0.9728
3.5283 5.4901 -1.3795 0.9737
3.2589 5.4926 -1.3500 0.9742
3.0098 5.5121 -1.3275 0.9747
2.5239 5.5266 -1.2843 0.9755
1.6214 5.5221 -1.2165 0.9767
1.4077 5.5154 -1.2032 0.9770
-0.1994 5.5823 -1.1807 0.9774
-0.4088 5.7157 -1.2113 0.9768
-0.9344 8.6914 -1.8478 0.9649
-2.1708 8.5052 -1.8555 0.9647
-2.7777 8.3457 -1.8593 0.9647
-2.8828 6.3124 -1.4669 0.9720
-3.0425 6.0782 -1.4368 0.9726
-3.3913 5.7157 -1.4048 0.9732
-3.9852 5.7398 -1.4771 0.9718
-4.2919 5.7333 -1.5139 0.9711
-4.6307 5.7463 -1.5600 0.9703
-5.0103 5.7823 -1.6173 0.9692
-5.4020 5.8022 -1.6757 0.9681
-5.8021 5.8021 -1.7345 0.9670
-6.2745 5.8418 -1.8122 0.9656
-7.9428 5.5148 -2.0440 0.9612
-9.0933 3.3916 -2.0515 0.9611
-9.4136 2.4027 -2.0536 0.9611
-9.4960 2.0657 -2.0542 0.9610
-9.6235 1.3836 -2.0551 0.9610
-9.6683 1.0394 -2.0555 0.9610
8.2528 0.5903 -1.9445 0.9666
8.2269 0.8845 -1.9447 0.9666
8.0216 2.0474 -1.9457 0.9666
7.9452 2.3329 -1.9461 0.9665
7.8588 2.6157 -1.9466 0.9665
7.6567 3.1715 -1.9478 0.9665
7.4162 3.7123 -1.9492 0.9665
6.8246 4.7384 -1.9526 0.9664
6.2892 5.4497 -1.9558 0.9664
6.0943 5.6740 -1.9570 0.9664
4.1243 5.5094 -1.6174 0.9721
3.5226 5.4813 -1.5313 0.9736
3.2679 5.5077 -1.5051 0.9740
2.9984 5.4912 -1.4704 0.9746
2.7500 5.4938 -1.4439 0.9751
2.5116 5.4995 -1.4209 0.9755
2.2818 5.5087 -1.4013 0.9758
2.0610 5.5257 -1.3861 0.9761
1.8406 5.5301 -1.3698 0.9763
1.6234 5.5288 -1.3542 0.9766
1.4097 5.5231 -1.3397 0.9769
1.1978 5.5061 -1.3243 0.9771
0.7948 5.5279 -1.3125 0.9773
0.0000 5.5381 -1.3016 0.9775
-1.3982 7.7499 -1.8508 0.9682
-2.2687 7.7264 -1.8925 0.9675
-2.8780 7.7162 -1.9355 0.9667
-3.1937 7.7103 -1.9614 0.9663
-3.9750 5.7251 -1.6381 0.9718
-4.6735 5.7994 -1.7505 0.9699
-6.1152 6.1152 -2.0325 0.9651
-6.3339 5.8971 -2.0339 0.9651
-6.7473 5.4373 -2.0366 0.9650
-7.1265 4.9480 -2.0390 0.9650
-7.6267 4.1645 -2.0423 0.9649
-7.9115 3.6131 -2.0441 0.9649
-8.3573 2.4539 -2.0471 0.9648
-8.5782 1.5477 -2.0486 0.9648
-8.6295 1.2407 -2.0490 0.9648
-8.6984 0.6221 -2.0495 0.9648
-8.7157 0.3113 -2.0497 0.9648
7.1498 2.3797 -1.9511 0.9693
6.7464 3.3770 -1.9534 0.9693
6.2071 4.3097 -1.9565 0.9693
5.8896 4.7461 -1.9584 0.9692
5.7194 4.9559 -1.9594 0.9692
5.5418 5.1596 -1.9605 0.9692
4.7625 5.9099 -1.9652 0.9691
3.8199 5.5017 -1.7342 0.9727
3.0024 5.4984 -1.6221 0.9744
2.5567 5.5983 -1.5935 0.9749
2.3232 5.6086 -1.5718 0.9752
1.1993 5.5132 -1.4609 0.9770
0.5978 5.5607 -1.4481 0.9772
0.2002 5.6067 -1.4526 0.9771
0.0000 5.5537 -1.4379 0.9773
-0.1997 5.5917 -1.4487 0.9771
-0.4103 5.7365 -1.4891 0.9765
-1.0966 7.6267 -1.9950 0.9687
-1.9125 7.4930 -2.0023 0.9686
-2.7141 7.2768 -2.0109 0.9684
-2.9751 7.1825 -2.0129 0.9684
-3.2321 7.0774 -2.0145 0.9684
-3.4854 6.9630 -2.0161 0.9683
-3.3985 5.7279 -1.7245 0.9729
-4.6838 6.2569 -2.0236 0.9682
-4.9076 6.0900 -2.0251 0.9682
-5.1253 5.9150 -2.0264 0.9682
-5.7393 5.3435 -2.0303 0.9681
-6.7659 4.0144 -2.0369 0.9680
-6.9080 3.7721 -2.0379 0.9680
-7.1654 3.2723 -2.0396 0.9680
-7.2803 3.0156 -2.0403 0.9680
-7.7111 1.6775 -2.0432 0.9679
-7.8139 1.1235 -2.0440 0.9679
-7.8917 0.2819 -2.0446 0.9679
6.8989 0.0000 -1.9530 0.9717
6.8945 0.2462 -1.9530 0.9717
6.8814 0.4922 -1.9531 0.9717
6.8296 0.9820 -1.9533 0.9717
6.7909 1.2252 -1.9535 0.9717
6.7437 1.4670 -1.9537 0.9717
6.6880 1.7070 -1.9540 0.9717
6.5518 2.1807 -1.9548 0.9717
6.4713 2.4137 -1.9552 0.9717
6.2860 2.8707 -1.9563 0.9717
6.0691 3.3140 -1.9576 0.9717
5.6866 3.9483 -1.9598 0.9716
5.5445 4.1505 -1.9607 0.9716
5.3952 4.3478 -1.9616 0.9716
5.2391 4.5397 -1.9625 0.9716
4.9069 4.9069 -1.9645 0.9716
4.5493 5.2502 -1.9666 0.9715
4.1680 5.5678 -1.9689 0.9715
3.8000 5.4730 -1.8862 0.9727
3.5557 5.9928 -1.9727 0.9714
2.9006 6.3514 -1.9766 0.9714
2.2097 6.6392 -1.9809 0.9713
1.7330 6.7899 -1.9838 0.9713
0.7995 5.5607 -1.5904 0.9769
0.5966 5.5495 -1.5801 0.9771
0.1981 5.5467 -1.5712 0.9772
-0.2517 7.0464 -1.9960 0.9711
-1.2558 6.9605 -2.0023 0.9710
-1.5046 6.9166 -2.0038 0.9710
-1.7519 6.8637 -2.0054 0.9710
-1.9973 6.8020 -2.0069 0.9710
-2.4812 6.6522 -2.0099 0.9709
-2.9537 6.4678 -2.0129 0.9709
-3.6359 6.1280 -2.0172 0.9708
-3.6752 5.7188 -1.9244 0.9721
-4.2787 5.7157 -2.0212 0.9708
-4.6815 5.4027 -2.0238 0.9707
-5.0610 5.0610 -2.0262 0.9707
-5.2414 4.8799 -2.0273 0.9707
-5.4152 4.6923 -2.0285 0.9707
-5.7421 4.2985 -2.0306 0.9706
-5.8947 4.0927 -2.0315 0.9706
-6.0398 3.8815 -2.0325 0.9706
-6.3067 3.4437 -2.0342 0.9706
-6.6459 2.7529 -2.0364 0.9705
-6.9081 2.0284 -2.0382 0.9705
-6.9777 1.7810 -2.0387 0.9705
-7.0897 1.2791 -2.0395 0.9705
-7.1319 1.0254 -2.0398 0.9705
-7.1649 0.7703 -2.0400 0.9705
-7.1885 0.5141 -2.0402 0.9705
-7.2027 0.2573 -2.0403 0.9705
6.3244 0.6800 -1.9565 0.9737
6.2966 0.9053 -1.9566 0.9737
6.2172 1.3525 -1.9570 0.9737
6.1659 1.5738 -1.9573 0.9737
6.1068 1.7931 -1.9576 0.9737
6.0401 2.0103 -1.9580 0.9737
5.9657 2.2251 -1.9584 0.9737
5.7947 2.6464 -1.9594 0.9737
5.6982 2.8523 -1.9600 0.9737
5.4837 3.2536 -1.9612 0.9737
5.2414 3.6392 -1.9626 0.9736
4.9725 4.0071 -1.9642 0.9736
4.6782 4.3555 -1.9660 0.9736
4.3598 4.6827 -1.9679 0.9736
4.0188 4.9870 -1.9700 0.9736
3.2756 5.5208 -1.9745 0.9735
3.0784 5.6376 -1.9757 0.9735
2.8770 5.7475 -1.9769 0.9735
2.6717 5.8502 -1.9782 0.9734
2.4628 5.9457 -1.9794 0.9734
2.2505 6.0337 -1.9807 0.9734
1.8167 6.1872 -1.9834 0.9734
1.5958 6.2524 -1.9847 0.9734
1.3726 6.3097 -1.9861 0.9733
0.9936 5.5070 -1.7212 0.9769
0.6917 6.4338 -1.9903 0.9733
0.2313 6.4760 -1.9932 0.9732
0.0000 6.4848 -1.9946 0.9732
-0.2316 6.4854 -1.9960 0.9732
-0.6947 6.4616 -1.9989 0.9732
-1.1555 6.4047 -2.0018 0.9731
-2.0611 6.1925 -2.0074 0.9731
-2.2823 6.1192 -2.0088 0.9730
-3.1383 5.7474 -2.0142 0.9730
-3.3436 5.6354 -2.0155 0.9730
-3.5449 5.5159 -2.0167 0.9729
-4.1216 5.1146 -2.0204 0.9729
-4.3040 4.9671 -2.0215 0.9729
-4.8181 4.4858 -2.0248 0.9728
-4.9776 4.3131 -2.0258 0.9728
-5.1309 4.1347 -2.0268 0.9728
-5.2776 3.9508 -2.0277 0.9728
-5.4177 3.7616 -2.0286 0.9728
-5.5509 3.5673 -2.0295 0.9728
-5.9071 2.9569 -2.0318 0.9727
-6.1070 2.5296 -2.0331 0.9727
-6.1952 2.3107 -2.0337 0.9727
-6.3474 1.8638 -2.0347 0.9727
-6.4113 1.6364 -2.0352 0.9727
-6.4668 1.4068 -2.0356 0.9727
-6.5140 1.1753 -2.0359 0.9727
-6.5829 0.7077 -2.0364 0.9727
-6.6045 0.4724 -2.0366 0.9727
5.8942 0.0000 -1.9593 0.9755
5.8607 0.6301 -1.9594 0.9755
5.8017 1.0467 -1.9596 0.9755
5.7136 1.4583 -1.9601 0.9755
5.5968 1.8628 -1.9608 0.9754
5.5279 2.0618 -1.9612 0.9754
5.3692 2.4521 -1.9621 0.9754
5.2797 2.6428 -1.9626 0.9754
5.1835 2.8304 -1.9631 0.9754
5.0807 3.0145 -1.9638 0.9754
4.9715 3.1950 -1.9644 0.9754
4.8560 3.3716 -1.9651 0.9754
3.8828 4.4810 -1.9709 0.9753
3.5568 4.7513 -1.9729 0.9753
2.8506 5.2205 -1.9772 0.9752
2.6640 5.3220 -1.9783 0.9752
2.0836 5.5862 -1.9818 0.9752
0.5947 5.5317 -1.8493 0.9768
0.2140 5.9929 -1.9934 0.9750
0.0000 6.0007 -1.9947 0.9750
-0.2143 6.0009 -1.9960 0.9750
-0.6427 5.9783 -1.9987 0.9750
-0.8563 5.9555 -2.0000 0.9750
-1.0690 5.9250 -2.0013 0.9749
-1.4909 5.8413 -2.0039 0.9749
-1.6996 5.7882 -2.0052 0.9749
-1.9063 5.7275 -2.0065 0.9749
-2.3130 5.5840 -2.0091 0.9748
-2.5124 5.5013 -2.0103 0.9748
-2.7088 5.4114 -2.0116 0.9748
-3.0916 5.2106 -2.0140 0.9748
-3.2775 5.0999 -2.0151 0.9748
-3.9787 4.5917 -2.0196 0.9747
-4.3005 4.3005 -2.0216 0.9747
-4.4534 4.1462 -2.0226 0.9747
-5.1298 3.2967 -2.0269 0.9746
-5.2462 3.1127 -2.0277 0.9746
-5.3558 2.9245 -2.0284 0.9746
-5.4586 2.7324 -2.0291 0.9746
-5.5543 2.5366 -2.0297 0.9746
-5.8648 1.7221 -2.0318 0.9746
-5.9237 1.5119 -2.0322 0.9746
-5.9749 1.2998 -2.0325 0.9746
-6.0184 1.0858 -2.0329 0.9746
-6.0541 0.8704 -2.0331 0.9745
-6.0819 0.6539 -2.0333 0.9745
-6.1019 0.4364 -2.0335 0.9745
-6.1139 0.2184 -2.0336 0.9745
5.4824 0.1958 -1.9618 0.9770
5.4306 0.7808 -1.9620 0.9770
5.3620 1.1665 -1.9623 0.9770
5.2666 1.5464 -1.9629 0.9770
5.2089 1.7337 -1.9632 0.9769
5.1446 1.9188 -1.9636 0.9769
5.0739 2.1017 -1.9640 0.9769
4.9134 2.4595 -1.9649 0.9769
4.7280 2.8052 -1.9660 0.9769
4.4053 3.2978 -1.9679 0.9769
4.2863 3.4542 -1.9686 0.9769
4.1619 3.6063 -1.9693 0.9769
3.8972 3.8972 -1.9709 0.9769
3.7572 4.0355 -1.9718 0.9768
3.6123 4.1689 -1.9726 0.9768
2.1207 5.1197 -1.9817 0.9767
1.3736 5.3818 -1.9863 0.9767
1.1814 5.4307 -1.9875 0.9767
0.7919 5.5077 -1.9899 0.9766
0.3974 5.5570 -1.9923 0.9766
0.1990 5.5711 -1.9935 0.9766
0.0000 5.5781 -1.9948 0.9766
-0.1992 5.5780 -1.9960 0.9766
-0.3984 5.5707 -1.9972 0.9766
-0.7958 5.5349 -1.9997 0.9765
-1.1901 5.4708 -2.0021 0.9765
-1.3854 5.4281 -2.0034 0.9765
-1.5793 5.3785 -2.0046 0.9765
-2.1490 5.1880 -2.0081 0.9764
-2.3341 5.1110 -2.0093 0.9764
-2.5165 5.0273 -2.0104 0.9764
-2.6958 4.9370 -2.0116 0.9764
-2.8719 4.8403 -2.0127 0.9764
-3.2133 4.6281 -2.0148 0.9763
-3.6952 4.2645 -2.0179 0.9763
-4.1356 3.8504 -2.0207 0.9763
-4.4035 3.5486 -2.0224 0.9763
-4.6491 3.2279 -2.0240 0.9762
-4.7630 3.0610 -2.0247 0.9762
-5.1567 2.3550 -2.0273 0.9762
-5.3143 1.9821 -2.0283 0.9762
-5.3829 1.7916 -2.0288 0.9762
-5.4445 1.5987 -2.0292 0.9762
-5.4991 1.4036 -2.0296 0.9762
-5.5466 1.2066 -2.0299 0.9762
-5.6200 0.8080 -2.0304 0.9762
-5.6458 0.6070 -2.0306 0.9762
-5.6643 0.4051 -2.0308 0.9762
5.1251 0.0000 -1.9640 0.9783
5.1121 0.3656 -1.9640 0.9783
5.0959 0.5479 -1.9641 0.9783
5.0445 0.9101 -1.9644 0.9783
5.0093 1.0897 -1.9645 0.9783
4.9200 1.4446 -1.9650 0.9783
4.5897 2.2975 -1.9669 0.9783
4.4164 2.6204 -1.9679 0.9782
4.1147 3.0803 -1.9697 0.9782
4.0035 3.2262 -1.9704 0.9782
3.8872 3.3683 -1.9711 0.9782
3.5089 3.7688 -1.9734 0.9782
3.3735 3.8933 -1.9742 0.9782
3.2338 4.0129 -1.9750 0.9782
3.0899 4.1276 -1.9759 0.9782
2.6346 4.4404 -1.9786 0.9781
2.3134 4.6217 -1.9806 0.9781
2.1481 4.7037 -1.9816 0.9781
1.9799 4.7798 -1.9826 0.9781
1.8090 4.8500 -1.9837 0.9781
1.4599 4.9721 -1.9858 0.9780
1.2822 5.0237 -1.9869 0.9780
0.7391 5.1407 -1.9903 0.9780
0.1857 5.1991 -1.9937 0.9780
-0.1859 5.2051 -1.9960 0.9779
-0.5574 5.1846 -1.9983 0.9779
-0.7425 5.1644 -1.9994 0.9779
-1.4733 5.0175 -2.0040 0.9778
-1.6523 4.9645 -2.0051 0.9778
-2.1771 4.7672 -2.0084 0.9778
-2.6784 4.5143 -2.0115 0.9778
-3.1503 4.2083 -2.0145 0.9777
-3.3001 4.0951 -2.0155 0.9777
-3.7239 3.7239 -2.0182 0.9777
-4.1056 3.3085 -2.0206 0.9777
-4.3343 3.0093 -2.0221 0.9777
-4.7243 2.3648 -2.0246 0.9776
-4.8070 2.1953 -2.0251 0.9776
-5.2384 0.7532 -2.0281 0.9776
-5.2624 0.5658 -2.0283 0.9776
4.8006 0.1714 -1.9660 0.9795
4.7763 0.5135 -1.9661 0.9795
4.7552 0.6837 -1.9662 0.9795
4.6950 1.0213 -1.9665 0.9794
4.6561 1.1884 -1.9667 0.9794
4.5607 1.5179 -1.9672 0.9794
4.3015 2.1532 -1.9687 0.9794
4.2229 2.3059 -1.9692 0.9794
4.1389 2.4557 -1.9697 0.9794
3.8560 2.8865 -1.9714 0.9794
3.7517 3.0233 -1.9720 0.9794
3.4105 3.4105 -1.9740 0.9794
3.2879 3.5314 -1.9748 0.9794
3.1609 3.6479 -1.9755 0.9794
3.0299 3.7599 -1.9763 0.9793
2.6140 4.0675 -1.9788 0.9793
2.3193 4.2474 -1.9806 0.9793
1.8546 4.4774 -1.9835 0.9793
1.5320 4.6029 -1.9854 0.9793
1.3674 4.6570 -1.9865 0.9792
1.0328 4.7476 -1.9885 0.9792
0.6922 4.8142 -1.9906 0.9792
0.5202 4.8384 -1.9917 0.9792
-0.1741 4.8737 -1.9960 0.9791
-0.3481 4.8670 -1.9970 0.9791
-0.5219 4.8541 -1.9981 0.9791
-1.0394 4.7782 -2.0013 0.9791
-2.1967 4.3886 -2.0086 0.9790
-2.3531 4.3094 -2.0096 0.9790
-2.5067 4.2247 -2.0105 0.9790
-2.6571 4.1345 -2.0115 0.9790
-2.8043 4.0389 -2.0124 0.9790
-3.0880 3.8320 -2.0142 0.9790
-3.3564 3.6050 -2.0159 0.9789
-3.4843 3.4843 -2.0167 0.9789
-3.7268 3.2293 -2.0183 0.9789
-4.4195 2.2122 -2.0227 0.9789
-4.4968 2.0536 -2.0232 0.9789
-4.5683 1.8922 -2.0237 0.9789
-4.6339 1.7283 -2.0242 0.9789
-4.7947 1.2238 -2.0252 0.9788
-4.9222 0.5292 -2.0262 0.9788
-4.9480 0.1767 -2.0264 0.9788
4.5152 -0.0000 -1.9678 0.9805
4.5123 0.1612 -1.9678 0.9805
4.4895 0.4827 -1.9679 0.9805
4.4441 0.8018 -1.9681 0.9805
4.4130 0.9600 -1.9683 0.9805
4.3764 1.1170 -1.9685 0.9805
4.3343 1.2727 -1.9687 0.9805
4.2337 1.5791 -1.9693 0.9805
4.1117 1.8777 -1.9700 0.9805
3.9689 2.1672 -1.9708 0.9805
3.8900 2.3080 -1.9713 0.9805
3.8061 2.4460 -1.9718 0.9805
3.3162 3.0875 -1.9747 0.9804
2.9703 3.4279 -1.9767 0.9804
2.7202 3.6338 -1.9783 0.9804
2.5898 3.7301 -1.9791 0.9804
2.4561 3.8217 -1.9799 0.9804
2.1790 3.9906 -1.9815 0.9804
2.0361 4.0676 -1.9824 0.9803
1.8905 4.1395 -1.9833 0.9803
1.7423 4.2063 -1.9842 0.9803
1.5918 4.2678 -1.9851 0.9803
1.4391 4.3239 -1.9861 0.9803
1.1281 4.4198 -1.9880 0.9803
0.4886 4.5444 -1.9919 0.9803
-0.1635 4.5769 -1.9960 0.9802
-0.3269 4.5704 -1.9970 0.9802
-0.8148 4.5162 -2.0000 0.9802
-1.1360 4.4510 -2.0020 0.9802
-1.2948 4.4098 -2.0030 0.9801
-1.6077 4.3104 -2.0049 0.9801
-1.7614 4.2523 -2.0059 0.9801
-1.9129 4.1887 -2.0069 0.9801
-2.3529 3.9657 -2.0096 0.9801
-2.6322 3.7910 -2.0114 0.9801
-2.7670 3.6962 -2.0122 0.9801
-2.8983 3.5966 -2.0131 0.9800
-3.1500 3.3833 -2.0147 0.9800
-3.4975 3.0306 -2.0169 0.9800
-3.6046 2.9048 -2.0176 0.9800
-3.8981 2.5052 -2.0195 0.9800
-3.9862 2.3651 -2.0200 0.9800
-4.2194 1.9269 -2.0216 0.9800
-1.5118 0.5639 -0.7032 0.9930
-1.3688 0.2978 -0.6105 0.9939
-1.4180 0.2039 -0.6244 0.9938
-1.4359 0.1544 -0.6294 0.9937
4.2547 0.0000 -1.9694 0.9814
4.2519 0.1518 -1.9694 0.9814
4.2117 0.6055 -1.9696 0.9814
4.1876 0.7555 -1.9697 0.9814
4.1238 1.0525 -1.9700 0.9814
4.0392 1.3444 -1.9705 0.9814
3.9342 1.6296 -1.9711 0.9814
3.8742 1.7693 -1.9715 0.9814
3.6651 2.1746 -1.9727 0.9814
3.5860 2.3046 -1.9731 0.9814
3.5023 2.4317 -1.9736 0.9814
3.4142 2.5558 -1.9742 0.9814
3.3218 2.6768 -1.9747 0.9814
3.2250 2.7945 -1.9753 0.9814
2.9106 3.1262 -1.9772 0.9813
2.7981 3.2292 -1.9779 0.9813
2.6820 3.3282 -1.9786 0.9813
2.5625 3.4231 -1.9793 0.9813
2.3135 3.5999 -1.9808 0.9813
2.1844 3.6816 -1.9816 0.9813
1.9178 3.8312 -1.9832 0.9813
1.7806 3.8989 -1.9840 0.9813
1.6410 3.9617 -1.9849 0.9813
1.2097 4.1199 -1.9875 0.9813
0.7634 4.2314 -1.9903 0.9812
0.6122 4.2579 -1.9912 0.9812
0.4601 4.2791 -1.9921 0.9812
0.0000 4.3099 -1.9950 0.9812
-0.1539 4.3092 -1.9959 0.9812
-0.4614 4.2913 -1.9978 0.9812
-0.6145 4.2742 -1.9988 0.9811
-0.7671 4.2516 -1.9997 0.9811
-1.2189 4.1510 -2.0026 0.9811
-1.8005 3.9425 -2.0062 0.9811
-2.0789 3.8073 -2.0080 0.9811
-2.4771 3.5677 -2.0105 0.9810
-2.6039 3.4784 -2.0113 0.9810
-2.8476 3.2863 -2.0128 0.9810
-3.0770 3.0770 -2.0143 0.9810
-3.1860 2.9662 -2.0150 0.9810
-3.3917 2.7332 -2.0163 0.9810
-3.5802 2.4858 -2.0175 0.9810
-3.6676 2.3571 -2.0181 0.9810
-3.8284 2.0905 -2.0191 0.9810
-3.9015 1.9530 -2.0196 0.9810
-1.2345 0.5114 -0.6185 0.9941
-1.1536 0.3840 -0.5628 0.9947
-1.1574 0.2954 -0.5529 0.9947
-1.1790 0.2565 -0.5585 0.9947
-1.1974 0.2160 -0.5632 0.9947
-1.2261 0.1318 -0.5708 0.9946
-1.2362 0.0884 -0.5737 0.9946
4.0179 0.0000 -1.9709 0.9823
4.0153 0.1434 -1.9709 0.9823
3.9546 0.7135 -1.9711 0.9823
3.9269 0.8542 -1.9713 0.9823
3.8567 1.1324 -1.9717 0.9823
3.8143 1.2695 -1.9719 0.9822
3.7671 1.4050 -1.9722 0.9822
3.7151 1.5388 -1.9725 0.9822
3.5971 1.8006 -1.9732 0.9822
3.5312 1.9282 -1.9735 0.9822
3.4609 2.0534 -1.9740 0.9822
3.3861 2.1761 -1.9744 0.9822
3.3071 2.2962 -1.9749 0.9822
3.2238 2.4133 -1.9754 0.9822
3.1365 2.5275 -1.9759 0.9822
3.0451 2.6386 -1.9764 0.9822
2.9498 2.7464 -1.9770 0.9822
2.7481 2.9516 -1.9782 0.9822
2.6418 3.0488 -1.9789 0.9822
2.4192 3.2317 -1.9802 0.9822
2.3032 3.3172 -1.9809 0.9822
2.1841 3.3985 -1.9816 0.9822
2.0622 3.4756 -1.9824 0.9822
1.6808 3.6804 -1.9847 0.9821
1.5490 3.7396 -1.9855 0.9821
0.7205 3.9936 -1.9906 0.9821
0.2899 4.0531 -1.9932 0.9821
-0.0000 4.0671 -1.9950 0.9820
-0.1452 4.0664 -1.9959 0.9820
-0.4353 4.0493 -1.9977 0.9820
-1.0090 3.9532 -2.0013 0.9820
-1.5640 3.7759 -2.0048 0.9820
-1.8309 3.6578 -2.0064 0.9819
-1.9611 3.5915 -2.0073 0.9819
-2.0889 3.5207 -2.0081 0.9819
-2.4561 3.2810 -2.0104 0.9819
-2.9021 2.9021 -2.0132 0.9819
-3.0048 2.7976 -2.0139 0.9819
-3.1037 2.6894 -2.0145 0.9819
-3.1987 2.5777 -2.0151 0.9819
-3.3764 2.3443 -2.0163 0.9819
-3.5368 2.0985 -2.0173 0.9818
-1.0175 0.2987 -0.5202 0.9953
-1.0422 0.2267 -0.5232 0.9953
-1.0705 0.1151 -0.5281 0.9952
3.7920 0.2712 -1.9722 0.9830
3.7632 0.5411 -1.9724 0.9830
3.7417 0.6751 -1.9725 0.9830
3.7155 0.8083 -1.9726 0.9830
3.6846 0.9404 -1.9728 0.9830
3.6491 1.0715 -1.9730 0.9830
3.5642 1.3294 -1.9735 0.9830
3.2036 2.0588 -1.9756 0.9830
3.1287 2.1723 -1.9760 0.9830
3.0499 2.2831 -1.9765 0.9830
2.8807 2.4962 -1.9775 0.9830
2.6968 2.6968 -1.9786 0.9830
2.3953 2.9724 -1.9804 0.9829
2.2884 3.0570 -1.9810 0.9829
2.1786 3.1378 -1.9817 0.9829
1.8326 3.3562 -1.9838 0.9829
1.4650 3.5369 -1.9861 0.9829
1.2099 3.6353 -1.9876 0.9829
0.9483 3.7153 -1.9892 0.9829
0.8154 3.7483 -1.9900 0.9829
0.6814 3.7766 -1.9909 0.9829
0.4106 3.8188 -1.9925 0.9828
0.2741 3.8326 -1.9934 0.9828
-0.1373 3.8449 -1.9959 0.9828
-0.2746 3.8392 -1.9968 0.9828
-0.4116 3.8286 -1.9976 0.9828
-0.5482 3.8130 -1.9985 0.9828
-0.6843 3.7927 -1.9993 0.9828
-0.8196 3.7674 -2.0002 0.9828
-0.9539 3.7373 -2.0010 0.9828
-1.4785 3.5694 -2.0043 0.9827
-1.6056 3.5157 -2.0051 0.9827
-1.8537 3.3949 -2.0066 0.9827
-1.9745 3.3278 -2.0074 0.9827
-2.0928 3.2564 -2.0081 0.9827
-2.2085 3.1808 -2.0089 0.9827
-2.5385 2.9295 -2.0110 0.9827
-2.8398 2.6439 -2.0129 0.9827
-3.0229 2.4360 -2.0141 0.9827
-3.1088 2.3272 -2.0146 0.9827
-3.1907 2.2154 -2.0151 0.9826
-3.3422 1.9830 -2.0161 0.9826
-0.9486 0.5180 -0.5607 0.9951
-0.9271 0.3840 -0.5206 0.9955
-0.9628 0.2094 -0.5112 0.9956
-0.9838 0.1058 -0.5133 0.9956
-0.9873 0.0706 -0.5135 0.9955
-0.9893 0.0353 -0.5135 0.9955
3.6031 -0.0000 -1.9735 0.9837
3.6008 0.1286 -1.9734 0.9837
3.5940 0.2570 -1.9735 0.9837
3.5463 0.6398 -1.9737 0.9837
3.4584 1.0155 -1.9742 0.9837
3.4204 1.1384 -1.9744 0.9837
3.3780 1.2599 -1.9746 0.9837
3.3313 1.3799 -1.9749 0.9837
3.2254 1.6145 -1.9755 0.9837
2.9651 2.0587 -1.9770 0.9837
2.8903 2.1637 -1.9775 0.9837
2.8119 2.2660 -1.9779 0.9837
2.7299 2.3655 -1.9784 0.9837
2.5556 2.5556 -1.9795 0.9837
2.2697 2.8166 -1.9812 0.9836
1.7364 3.1800 -1.9844 0.9836
1.2680 3.3996 -1.9873 0.9836
1.1463 3.4440 -1.9880 0.9836
1.0230 3.4841 -1.9888 0.9836
0.7725 3.5509 -1.9903 0.9836
0.6455 3.5776 -1.9911 0.9836
0.5176 3.5998 -1.9919 0.9836
0.3889 3.6174 -1.9927 0.9835
0.1300 3.6389 -1.9943 0.9835
0.0000 3.6427 -1.9951 0.9835
-0.1301 3.6418 -1.9959 0.9835
-0.2601 3.6363 -1.9967 0.9835
-0.3899 3.6262 -1.9975 0.9835
-0.5192 3.6114 -1.9983 0.9835
-0.6481 3.5920 -1.9991 0.9835
-0.7762 3.5680 -1.9999 0.9835
-0.9034 3.5394 -2.0007 0.9835
-1.0296 3.5063 -2.0015 0.9835
-1.2781 3.4266 -2.0031 0.9835
-1.4001 3.3801 -2.0038 0.9835
-1.5204 3.3292 -2.0046 0.9834
-1.6389 3.2741 -2.0053 0.9834
-1.7553 3.2146 -2.0061 0.9834
-1.9816 3.0834 -2.0075 0.9834
-2.0911 3.0118 -2.0082 0.9834
-2.1980 2.9362 -2.0089 0.9834
-2.3022 2.8568 -2.0095 0.9834
-2.4034 2.7737 -2.0102 0.9834
-2.5968 2.5968 -2.0114 0.9834
-2.6886 2.5032 -2.0120 0.9834
-2.7770 2.4063 -2.0125 0.9834
-2.9431 2.2032 -2.0136 0.9834
-3.0207 2.0973 -2.0141 0.9834
-0.8507 0.4645 -0.5309 0.9956
-0.8516 0.4263 -0.5216 0.9957
-0.8727 0.2562 -0.4982 0.9959
-0.8837 0.2255 -0.4995 0.9958
-0.8932 0.1943 -0.5006 0.9958
-0.9011 0.1626 -0.5015 0.9958
-0.9127 0.0981 -0.5028 0.9958
-0.9179 0.0328 -0.5031 0.9958
3.4179 0.1221 -1.9746 0.9843
3.2827 0.9639 -1.9753 0.9843
3.2465 1.0805 -1.9755 0.9843
3.2062 1.1959 -1.9757 0.9843
3.1619 1.3097 -1.9759 0.9843
3.1136 1.4219 -1.9762 0.9843
3.0613 1.5324 -1.9765 0.9843
2.9452 1.7475 -1.9772 0.9843
2.8815 1.8518 -1.9776 0.9843
2.6688 2.1506 -1.9788 0.9843
2.5909 2.2450 -1.9793 0.9843
2.4254 2.4254 -1.9803 0.9843
2.0578 2.7489 -1.9825 0.9843
1.5395 3.0755 -1.9857 0.9842
1.4292 3.1296 -1.9863 0.9842
1.2032 3.2258 -1.9877 0.9842
1.0876 3.2678 -1.9884 0.9842
0.8524 3.3395 -1.9899 0.9842
0.7329 3.3691 -1.9906 0.9842
0.4910 3.4153 -1.9921 0.9842
0.3690 3.4320 -1.9929 0.9842
0.1233 3.4522 -1.9944 0.9842
0.0000 3.4557 -1.9951 0.9842
-0.2467 3.4495 -1.9967 0.9842
-0.4926 3.4258 -1.9982 0.9841
-0.7362 3.3845 -1.9997 0.9841
-0.8569 3.3573 -2.0005 0.9841
-0.9765 3.3258 -2.0012 0.9841
-1.3279 3.2059 -2.0034 0.9841
-1.5543 3.1052 -2.0048 0.9841
-1.6648 3.0488 -2.0055 0.9841
-1.7731 2.9884 -2.0062 0.9841
-1.8793 2.9242 -2.0069 0.9841
-1.9831 2.8562 -2.0075 0.9841
-2.3723 2.5480 -2.0100 0.9840
-2.4624 2.4624 -2.0106 0.9840
-2.6333 2.2817 -2.0117 0.9840
-2.7907 2.0891 -2.0127 0.9840
-0.7634 0.5300 -0.5366 0.9957
-0.7696 0.4946 -0.5282 0.9958
-0.7750 0.4599 -0.5203 0.9958
-0.7787 0.4252 -0.5122 0.9959
-0.7806 0.3908 -0.5040 0.9960
-0.7809 0.3566 -0.4957 0.9960
-0.7887 0.2942 -0.4860 0.9961
-0.8453 0.1215 -0.4930 0.9961
-0.8548 0.0305 -0.4938 0.9961
