ply
format ascii 1.0
element vertex 724
property float32 x
property float32 y
property float32 z
property float32 I
end_header
-9.2168 -0.0000 -1.9483 0.9630
-9.2111 -0.3290 -1.9483 0.9630
-9.1939 -0.6576 -1.9484 0.9630
-8.9365 -2.2809 -1.9496 0.9630
-8.4002 -3.8362 -1.9520 0.9629
-7.5999 -5.2767 -1.9557 0.9629
-7.4100 -5.5471 -1.9566 0.9629
-7.0021 -6.0674 -1.9585 0.9628
-6.7845 -6.3166 -1.9595 0.9628
-6.5582 -6.5582 -1.9605 0.9628
-6.3235 -6.7919 -1.9616 0.9628
-5.3051 -7.6408 -1.9662 0.9627
-5.0322 -7.8303 -1.9675 0.9627
-4.7526 -8.0101 -1.9688 0.9626
-4.4667 -8.1801 -1.9701 0.9626
-4.1747 -8.3400 -1.9714 0.9626
-3.8770 -8.4895 -1.9728 0.9626
-3.5741 -8.6286 -1.9742 0.9625
-3.2662 -8.7569 -1.9756 0.9625
-2.9537 -8.8743 -1.9770 0.9625
-1.9925 -9.1596 -1.9814 0.9624
-1.6656 -9.2318 -1.9829 0.9624
-1.3361 -9.2925 -1.9844 0.9623
-1.0043 -9.3414 -1.9860 0.9623
1.0090 -9.3847 -1.9952 0.9621
1.3443 -9.3499 -1.9967 0.9621
1.6785 -9.3031 -1.9982 0.9621
2.0110 -9.2443 -1.9998 0.9621
2.3414 -9.1736 -2.0013 0.9620
2.6694 -9.0910 -2.0028 0.9620
2.9944 -8.9966 -2.0043 0.9620
3.6338 -8.7728 -2.0072 0.9619
3.9475 -8.6437 -2.0086 0.9619
4.5604 -8.3517 -2.0114 0.9618
5.4379 -7.8320 -2.0154 0.9618
5.7176 -7.6378 -2.0167 0.9617
5.9902 -7.4334 -2.0180 0.9617
6.2555 -7.2192 -2.0192 0.9617
6.5130 -6.9954 -2.0204 0.9617
7.0032 -6.5202 -2.0226 0.9616
7.2352 -6.2694 -2.0237 0.9616
7.4581 -6.0101 -2.0247 0.9616
7.8753 -5.4679 -2.0266 0.9616
8.0689 -5.1856 -2.0275 0.9615
8.2523 -4.8963 -2.0283 0.9615
8.5870 -4.2983 -2.0298 0.9615
8.8776 -3.6772 -2.0312 0.9615
9.0057 -3.3590 -2.0317 0.9615
9.1223 -3.0362 -2.0323 0.9615
9.2270 -2.7093 -2.0327 0.9614
9.3197 -2.3787 -2.0332 0.9614
9.5687 -1.0287 -2.0343 0.9614
-8.2866 -0.5927 -1.9525 0.9664
-8.2607 -0.8881 -1.9526 0.9664
-8.0542 -2.0557 -1.9536 0.9664
-7.9771 -2.3423 -1.9540 0.9664
-7.7931 -2.9067 -1.9548 0.9664
-7.6863 -3.1838 -1.9553 0.9664
-7.1638 -4.2505 -1.9577 0.9664
-7.0100 -4.5051 -1.9584 0.9663
-6.4961 -5.2349 -1.9608 0.9663
-6.3079 -5.4658 -1.9616 0.9663
-6.1116 -5.6901 -1.9625 0.9663
-5.2502 -6.5151 -1.9665 0.9662
-4.2792 -7.2122 -1.9709 0.9661
-3.7583 -7.5082 -1.9733 0.9661
-3.4901 -7.6423 -1.9746 0.9661
-2.9398 -7.8819 -1.9771 0.9660
-2.3731 -8.0821 -1.9797 0.9660
-1.2020 -8.3602 -1.9850 0.9659
0.3025 -8.4701 -1.9919 0.9658
0.6051 -8.4598 -1.9933 0.9658
1.2087 -8.4067 -1.9961 0.9657
2.3993 -8.1714 -2.0015 0.9656
2.9801 -7.9900 -2.0042 0.9656
3.5471 -7.7670 -2.0068 0.9655
4.3652 -7.3571 -2.0105 0.9655
4.8846 -7.0352 -2.0129 0.9654
5.1356 -6.8603 -2.0140 0.9654
5.3801 -6.6763 -2.0152 0.9654
5.8489 -6.2822 -2.0173 0.9653
6.0725 -6.0725 -2.0183 0.9653
6.2884 -5.8547 -2.0193 0.9653
6.4965 -5.6292 -2.0203 0.9653
7.0701 -4.9089 -2.0229 0.9653
7.4080 -4.3953 -2.0244 0.9652
7.5627 -4.1296 -2.0251 0.9652
7.8430 -3.5818 -2.0264 0.9652
8.2811 -2.4315 -2.0284 0.9652
8.4364 -1.8352 -2.0291 0.9651
8.4977 -1.5331 -2.0294 0.9651
8.5479 -1.2290 -2.0296 0.9651
8.5871 -0.9232 -2.0298 0.9651
8.6151 -0.6162 -2.0299 0.9651
8.6319 -0.3083 -2.0300 0.9651
-7.5540 0.0000 -1.9559 0.9693
-7.5493 -0.2696 -1.9559 0.9693
-7.5351 -0.5389 -1.9560 0.9693
-7.3234 -1.8692 -1.9569 0.9693
-7.2532 -2.1297 -1.9573 0.9692
-7.0856 -2.6428 -1.9580 0.9692
-6.8823 -3.1430 -1.9590 0.9692
-6.7675 -3.3876 -1.9595 0.9692
-6.6442 -3.6280 -1.9601 0.9692
-6.5125 -3.8641 -1.9607 0.9692
-6.3726 -4.0954 -1.9613 0.9692
-6.2245 -4.3217 -1.9620 0.9692
-5.9047 -4.7583 -1.9635 0.9692
-5.7334 -4.9680 -1.9643 0.9691
-5.5548 -5.1717 -1.9651 0.9691
-5.1762 -5.5597 -1.9668 0.9691
-4.9768 -5.7436 -1.9677 0.9691
-4.3408 -6.2519 -1.9706 0.9690
-3.8878 -6.5525 -1.9727 0.9690
-3.4142 -6.8207 -1.9749 0.9690
-3.1704 -6.9421 -1.9760 0.9690
-2.9223 -7.0549 -1.9772 0.9689
-2.4144 -7.2540 -1.9795 0.9689
-2.1552 -7.3399 -1.9807 0.9689
-1.0914 -7.5906 -1.9855 0.9688
-0.8203 -7.6295 -1.9868 0.9688
-0.5478 -7.6587 -1.9880 0.9688
-0.2742 -7.6782 -1.9893 0.9688
0.0000 -7.6879 -1.9905 0.9687
0.2746 -7.6879 -1.9918 0.9687
0.5491 -7.6780 -1.9931 0.9687
0.8234 -7.6584 -1.9943 0.9687
2.1768 -7.4134 -2.0005 0.9686
2.4415 -7.3355 -2.0017 0.9686
2.7034 -7.2480 -2.0029 0.9685
2.9621 -7.1511 -2.0041 0.9685
3.2173 -7.0449 -2.0053 0.9685
4.1965 -6.5299 -2.0097 0.9684
4.6565 -6.2204 -2.0118 0.9684
5.0935 -5.8782 -2.0138 0.9684
5.3025 -5.6953 -2.0148 0.9684
5.8888 -5.1026 -2.0175 0.9683
6.0696 -4.8912 -2.0183 0.9683
6.7137 -3.9834 -2.0212 0.9683
7.1074 -3.2458 -2.0230 0.9682
7.2205 -2.9908 -2.0236 0.9682
7.5036 -2.2033 -2.0248 0.9682
7.5788 -1.9344 -2.0252 0.9682
7.6441 -1.6629 -2.0255 0.9682
7.6995 -1.3892 -2.0257 0.9682
7.7450 -1.1136 -2.0259 0.9682
7.7804 -0.8365 -2.0261 0.9682
-6.9149 -0.2470 -1.9588 0.9716
-6.9019 -0.4936 -1.9589 0.9716
-6.8802 -0.7397 -1.9590 0.9716
-6.8110 -1.2288 -1.9593 0.9716
-6.6433 -1.9506 -1.9601 0.9716
-6.4895 -2.4205 -1.9608 0.9716
-5.6999 -3.9575 -1.9644 0.9716
-5.4067 -4.3570 -1.9657 0.9715
-5.2497 -4.5489 -1.9665 0.9715
-4.9156 -4.9156 -1.9680 0.9715
-4.7390 -5.0901 -1.9688 0.9715
-4.5563 -5.2582 -1.9697 0.9715
-3.5585 -5.9975 -1.9742 0.9714
-2.9014 -6.3533 -1.9772 0.9714
-2.4434 -6.5510 -1.9793 0.9714
-1.9720 -6.7159 -1.9815 0.9713
-1.7320 -6.7858 -1.9826 0.9713
-1.4895 -6.8471 -1.9837 0.9713
0.2511 -7.0310 -1.9917 0.9712
0.5022 -7.0216 -1.9928 0.9712
1.0030 -6.9759 -1.9951 0.9711
1.2520 -6.9396 -1.9963 0.9711
1.4998 -6.8944 -1.9974 0.9711
1.9900 -6.7774 -1.9996 0.9711
2.4712 -6.6255 -2.0018 0.9710
2.7075 -6.5366 -2.0029 0.9710
2.9407 -6.4392 -2.0040 0.9710
3.1703 -6.3335 -2.0050 0.9710
3.8350 -5.9673 -2.0081 0.9709
4.0475 -5.8295 -2.0091 0.9709
4.4572 -5.5310 -2.0109 0.9709
4.6538 -5.3708 -2.0118 0.9709
5.0294 -5.0294 -2.0135 0.9709
5.2078 -4.8487 -2.0144 0.9709
5.5447 -4.4682 -2.0159 0.9708
5.8534 -4.0641 -2.0173 0.9708
5.9967 -3.8538 -2.0180 0.9708
6.1323 -3.6385 -2.0186 0.9708
6.3798 -3.1935 -2.0197 0.9708
6.4913 -2.9645 -2.0202 0.9708
6.6893 -2.4950 -2.0211 0.9708
6.9212 -1.7665 -2.0222 0.9707
6.9808 -1.5186 -2.0224 0.9707
7.0314 -1.2686 -2.0227 0.9707
7.1282 -0.5098 -2.0231 0.9707
-6.3405 -0.6817 -1.9614 0.9737
-6.3125 -0.9076 -1.9616 0.9737
-6.2766 -1.1324 -1.9617 0.9737
-6.2329 -1.3559 -1.9619 0.9737
-6.1813 -1.5777 -1.9622 0.9737
-6.0548 -2.0152 -1.9628 0.9736
-5.9800 -2.2304 -1.9631 0.9736
-5.6066 -3.0615 -1.9648 0.9736
-5.2516 -3.6463 -1.9664 0.9736
-5.1197 -3.8326 -1.9671 0.9736
-4.3655 -4.6889 -1.9705 0.9735
-3.8440 -5.1349 -1.9729 0.9735
-3.6598 -5.2711 -1.9738 0.9735
-3.2774 -5.5237 -1.9755 0.9735
-3.0795 -5.6397 -1.9764 0.9735
-2.8776 -5.7487 -1.9773 0.9735
-2.6719 -5.8506 -1.9783 0.9734
-2.2499 -6.0322 -1.9802 0.9734
-1.8156 -6.1835 -1.9822 0.9734
-1.1460 -6.3520 -1.9853 0.9733
-0.9191 -6.3922 -1.9863 0.9733
-0.4612 -6.4483 -1.9884 0.9733
-0.2309 -6.4641 -1.9895 0.9733
0.4622 -6.4620 -1.9926 0.9733
0.6929 -6.4448 -1.9937 0.9732
0.9230 -6.4193 -1.9948 0.9732
1.3800 -6.3438 -1.9968 0.9732
2.0534 -6.1694 -1.9999 0.9732
2.4908 -6.0133 -2.0019 0.9731
2.7051 -5.9234 -2.0029 0.9731
3.1238 -5.7208 -2.0048 0.9731
3.3275 -5.6083 -2.0058 0.9731
3.5272 -5.4884 -2.0067 0.9731
3.7225 -5.3614 -2.0076 0.9731
4.2797 -4.9390 -2.0101 0.9730
4.4550 -4.7850 -2.0109 0.9730
4.6248 -4.6248 -2.0117 0.9730
4.9465 -4.2862 -2.0132 0.9730
5.0981 -4.1083 -2.0138 0.9730
5.2432 -3.9250 -2.0145 0.9730
5.5132 -3.5431 -2.0157 0.9729
5.6378 -3.3451 -2.0163 0.9729
5.7551 -3.1425 -2.0168 0.9729
5.8650 -2.9358 -2.0173 0.9729
6.0623 -2.5111 -2.0182 0.9729
6.2283 -2.0730 -2.0190 0.9729
6.2993 -1.8496 -2.0193 0.9729
6.3622 -1.6238 -2.0196 0.9729
6.5522 -0.4686 -2.0205 0.9729
6.5650 -0.2345 -2.0205 0.9729
-5.9067 -0.0000 -1.9634 0.9754
-5.9030 -0.2108 -1.9634 0.9754
-5.8918 -0.4214 -1.9635 0.9754
-5.8474 -0.8407 -1.9637 0.9754
-5.7257 -1.4614 -1.9643 0.9754
-5.6084 -1.8666 -1.9648 0.9754
-5.4628 -2.2627 -1.9655 0.9754
-5.2896 -2.6478 -1.9663 0.9754
-5.1929 -2.8355 -1.9667 0.9754
-4.8638 -3.3770 -1.9682 0.9754
-4.6132 -3.7175 -1.9694 0.9753
-4.4789 -3.8810 -1.9700 0.9753
-4.3390 -4.0397 -1.9706 0.9753
-4.1934 -4.1934 -1.9713 0.9753
-4.0425 -4.3420 -1.9720 0.9753
-3.8864 -4.4851 -1.9727 0.9753
-2.8510 -5.2213 -1.9775 0.9752
-2.6640 -5.3220 -1.9783 0.9752
-1.8829 -5.6572 -1.9819 0.9752
-1.6806 -5.7234 -1.9828 0.9752
-1.4759 -5.7825 -1.9838 0.9752
-1.2692 -5.8343 -1.9847 0.9751
-1.0606 -5.8787 -1.9857 0.9751
-0.8506 -5.9157 -1.9866 0.9751
-0.6392 -5.9452 -1.9876 0.9751
-0.2136 -5.9815 -1.9895 0.9751
0.0000 -5.9882 -1.9905 0.9751
0.2138 -5.9874 -1.9915 0.9751
0.4276 -5.9788 -1.9925 0.9751
0.8539 -5.9389 -1.9944 0.9750
1.0658 -5.9075 -1.9954 0.9750
1.6937 -5.7680 -1.9983 0.9750
2.3037 -5.5617 -2.0011 0.9749
2.5019 -5.4784 -2.0020 0.9749
2.6971 -5.3880 -2.0029 0.9749
3.0772 -5.1864 -2.0046 0.9749
3.6185 -4.8337 -2.0071 0.9749
3.9571 -4.5668 -2.0086 0.9749
4.2759 -4.2759 -2.0101 0.9748
4.4274 -4.1220 -2.0108 0.9748
4.5732 -3.9627 -2.0114 0.9748
4.7132 -3.7981 -2.0121 0.9748
5.0966 -3.2754 -2.0138 0.9748
5.4215 -2.7138 -2.0153 0.9748
5.5161 -2.5191 -2.0157 0.9748
5.6839 -2.1200 -2.0165 0.9748
5.7569 -1.9161 -2.0168 0.9747
5.8225 -1.7096 -2.0171 0.9747
5.8806 -1.5009 -2.0174 0.9747
5.9311 -1.2902 -2.0176 0.9747
5.9739 -1.0778 -2.0178 0.9747
6.0091 -0.8640 -2.0180 0.9747
6.0364 -0.6490 -2.0181 0.9747
6.0678 -0.2167 -2.0182 0.9747
-5.4957 -0.0000 -1.9653 0.9769
-5.4922 -0.1962 -1.9653 0.9769
-5.4646 -0.5875 -1.9654 0.9769
-5.4405 -0.7822 -1.9656 0.9769
-5.3717 -1.1685 -1.9659 0.9769
-5.2758 -1.5491 -1.9663 0.9769
-5.2179 -1.7367 -1.9666 0.9769
-5.1533 -1.9221 -1.9669 0.9769
-4.9210 -2.4633 -1.9680 0.9769
-4.6326 -2.9772 -1.9693 0.9769
-4.1663 -3.6101 -1.9714 0.9769
-3.9006 -3.9006 -1.9726 0.9768
-3.4648 -4.2995 -1.9746 0.9768
-3.1515 -4.5390 -1.9761 0.9768
-2.8218 -4.7559 -1.9776 0.9768
-2.6513 -4.8555 -1.9784 0.9768
-2.3000 -5.0364 -1.9800 0.9768
-1.9365 -5.1920 -1.9816 0.9767
-1.3722 -5.3763 -1.9842 0.9767
-1.1800 -5.4242 -1.9851 0.9767
-0.5942 -5.5267 -1.9878 0.9767
0.1988 -5.5652 -1.9914 0.9766
0.3974 -5.5571 -1.9923 0.9766
0.5958 -5.5419 -1.9932 0.9766
0.9905 -5.4903 -1.9951 0.9766
1.1864 -5.4538 -1.9959 0.9766
1.3809 -5.4104 -1.9968 0.9766
1.5739 -5.3601 -1.9977 0.9765
1.7649 -5.3028 -1.9986 0.9765
2.1406 -5.1678 -2.0003 0.9765
2.5059 -5.0061 -2.0020 0.9765
2.6841 -4.9155 -2.0028 0.9765
2.8589 -4.8185 -2.0036 0.9765
3.0303 -4.7152 -2.0044 0.9765
3.3615 -4.4904 -2.0059 0.9765
3.5209 -4.3692 -2.0066 0.9764
3.6759 -4.2422 -2.0073 0.9764
4.1124 -3.8288 -2.0093 0.9764
4.3777 -3.5278 -2.0105 0.9764
4.6208 -3.2082 -2.0117 0.9764
4.8403 -2.8719 -2.0127 0.9764
4.9408 -2.6979 -2.0131 0.9764
5.0350 -2.5204 -2.0135 0.9764
5.1228 -2.3395 -2.0139 0.9764
5.2040 -2.1556 -2.0143 0.9764
5.3462 -1.7794 -2.0150 0.9763
5.4071 -1.5877 -2.0152 0.9763
5.4609 -1.3938 -2.0155 0.9763
5.5801 -0.8023 -2.0160 0.9763
5.6346 -0.2012 -2.0163 0.9763
-5.1327 0.0000 -1.9670 0.9783
-5.1295 -0.1832 -1.9670 0.9783
-5.0521 -0.9115 -1.9673 0.9782
-5.0168 -1.0913 -1.9675 0.9782
-4.8731 -1.6219 -1.9682 0.9782
-4.6739 -2.1345 -1.9691 0.9782
-4.4216 -2.6234 -1.9702 0.9782
-4.2251 -2.9335 -1.9711 0.9782
-3.7686 -3.5087 -1.9732 0.9782
-3.5108 -3.7709 -1.9744 0.9782
-3.3750 -3.8950 -1.9750 0.9782
-3.0906 -4.1286 -1.9764 0.9782
-2.7902 -4.3416 -1.9777 0.9781
-2.1471 -4.7015 -1.9807 0.9781
-1.4585 -4.9671 -1.9838 0.9781
-1.2808 -5.0180 -1.9846 0.9781
-0.7380 -5.1326 -1.9871 0.9780
-0.5545 -5.1579 -1.9880 0.9780
-0.3702 -5.1766 -1.9888 0.9780
0.0000 -5.1942 -1.9905 0.9780
0.3709 -5.1854 -1.9922 0.9780
0.5559 -5.1711 -1.9931 0.9780
1.1069 -5.0884 -1.9956 0.9779
1.2884 -5.0478 -1.9964 0.9779
1.6465 -4.9471 -1.9981 0.9779
2.1685 -4.7484 -2.0004 0.9779
2.3375 -4.6698 -2.0012 0.9779
2.6667 -4.4945 -2.0027 0.9779
3.1352 -4.1881 -2.0049 0.9778
3.2838 -4.0750 -2.0055 0.9778
3.4283 -3.9565 -2.0062 0.9778
3.5685 -3.8328 -2.0068 0.9778
3.7041 -3.7041 -2.0075 0.9778
3.9613 -3.4325 -2.0086 0.9778
4.0824 -3.2898 -2.0092 0.9778
4.1983 -3.1428 -2.0097 0.9778
4.3089 -2.9917 -2.0102 0.9778
4.4140 -2.8367 -2.0107 0.9778
4.6071 -2.5157 -2.0116 0.9778
4.7767 -2.1814 -2.0124 0.9778
4.8523 -2.0099 -2.0127 0.9778
4.9217 -1.8357 -2.0130 0.9777
4.9848 -1.6591 -2.0133 0.9777
5.1354 -1.1171 -2.0140 0.9777
5.1724 -0.9332 -2.0142 0.9777
5.2433 -0.3750 -2.0145 0.9777
-4.8096 0.0000 -1.9684 0.9794
-4.8065 -0.1717 -1.9685 0.9794
-4.7975 -0.3431 -1.9685 0.9794
-4.7823 -0.5142 -1.9686 0.9794
-4.6618 -1.1898 -1.9691 0.9794
-4.5661 -1.5197 -1.9696 0.9794
-4.3794 -2.0000 -1.9704 0.9794
-4.2270 -2.3081 -1.9711 0.9794
-4.0532 -2.6049 -1.9719 0.9794
-3.9586 -2.7485 -1.9724 0.9794
-3.8588 -2.8887 -1.9728 0.9794
-3.7542 -3.0253 -1.9733 0.9794
-3.6447 -3.1582 -1.9738 0.9794
-3.5306 -3.2871 -1.9743 0.9794
-3.2890 -3.5326 -1.9754 0.9794
-3.0304 -3.7605 -1.9766 0.9793
-2.8952 -3.8675 -1.9772 0.9793
-2.7562 -3.9696 -1.9779 0.9793
-2.6136 -4.0668 -1.9785 0.9793
-2.4676 -4.1589 -1.9792 0.9793
-2.3184 -4.2458 -1.9799 0.9793
-2.1661 -4.3274 -1.9806 0.9793
-1.8532 -4.4741 -1.9820 0.9793
-1.3659 -4.6518 -1.9843 0.9793
-0.6910 -4.8063 -1.9873 0.9792
-0.3467 -4.8472 -1.9889 0.9792
-0.1735 -4.8585 -1.9897 0.9792
0.5205 -4.8414 -1.9929 0.9792
0.6933 -4.8217 -1.9937 0.9792
1.0363 -4.7637 -1.9953 0.9791
1.3745 -4.6813 -1.9968 0.9791
2.1879 -4.3709 -2.0005 0.9791
2.4959 -4.2067 -2.0019 0.9791
2.6454 -4.1163 -2.0026 0.9791
2.7916 -4.0206 -2.0033 0.9791
3.0733 -3.8137 -2.0046 0.9791
3.3395 -3.5869 -2.0058 0.9790
3.4664 -3.4664 -2.0064 0.9790
3.5889 -3.3414 -2.0069 0.9790
3.7069 -3.2121 -2.0075 0.9790
3.9286 -2.9409 -2.0085 0.9790
4.0320 -2.7995 -2.0090 0.9790
4.1303 -2.6544 -2.0094 0.9790
4.6051 -1.7176 -2.0116 0.9790
4.6641 -1.5523 -2.0118 0.9790
4.7640 -1.2159 -2.0123 0.9790
4.9057 -0.3509 -2.0129 0.9790
-1.4571 -0.0520 -0.6354 0.9937
-1.4359 -0.1544 -0.6294 0.9937
-1.4180 -0.2039 -0.6244 0.9938
-1.3400 -0.3420 -0.6027 0.9940
-1.4401 -0.4793 -0.6615 0.9934
-1.5118 -0.5639 -0.7032 0.9930
-4.0461 -2.0254 -1.9720 0.9805
-3.9719 -2.1689 -1.9723 0.9804
-3.8085 -2.4476 -1.9730 0.9804
-3.4245 -2.9674 -1.9748 0.9804
-3.3172 -3.0885 -1.9753 0.9804
-3.2057 -3.2057 -1.9758 0.9804
-2.7199 -3.6334 -1.9780 0.9804
-2.1779 -3.9885 -1.9805 0.9804
-1.5903 -4.2637 -1.9832 0.9803
-1.2830 -4.3694 -1.9846 0.9803
-1.1266 -4.4140 -1.9853 0.9803
-0.8094 -4.4864 -1.9868 0.9803
-0.3256 -4.5522 -1.9890 0.9803
0.0000 -4.5673 -1.9905 0.9803
0.1631 -4.5661 -1.9913 0.9803
0.3261 -4.5591 -1.9920 0.9803
0.6510 -4.5276 -1.9935 0.9802
0.8125 -4.5031 -1.9942 0.9802
0.9730 -4.4729 -1.9950 0.9802
1.2906 -4.3953 -1.9964 0.9802
1.6020 -4.2951 -1.9978 0.9802
1.7549 -4.2367 -1.9985 0.9802
1.9056 -4.1728 -1.9992 0.9802
2.0541 -4.1035 -1.9999 0.9802
2.1999 -4.0289 -2.0006 0.9802
2.6205 -3.7743 -2.0025 0.9802
3.0117 -3.4756 -2.0043 0.9801
3.1347 -3.3669 -2.0048 0.9801
3.2537 -3.2537 -2.0054 0.9801
3.3687 -3.1363 -2.0059 0.9801
3.8765 -2.4913 -2.0082 0.9801
3.9637 -2.3518 -2.0086 0.9801
4.3771 -1.4569 -2.0105 0.9801
4.4709 -1.1411 -2.0109 0.9801
4.5890 -0.4934 -2.0115 0.9801
4.6038 -0.3293 -2.0115 0.9801
-1.2447 -0.0000 -0.5761 0.9945
-1.2424 -0.0444 -0.5755 0.9945
-1.2124 -0.1743 -0.5670 0.9946
-1.1974 -0.2160 -0.5632 0.9947
-1.1790 -0.2565 -0.5585 0.9947
-1.1575 -0.2954 -0.5529 0.9947
-3.6670 -2.1757 -1.9737 0.9814
-3.5038 -2.4327 -1.9744 0.9814
-3.4154 -2.5567 -1.9748 0.9814
-3.2257 -2.7951 -1.9757 0.9814
-2.7979 -3.2290 -1.9777 0.9813
-2.6816 -3.3277 -1.9782 0.9813
-2.4387 -3.5124 -1.9793 0.9813
-2.1832 -3.6797 -1.9805 0.9813
-2.0511 -3.7564 -1.9811 0.9813
-1.7791 -3.8956 -1.9824 0.9813
-1.6394 -3.9579 -1.9830 0.9813
-1.4976 -4.0152 -1.9836 0.9813
-1.3538 -4.0674 -1.9843 0.9813
-0.6111 -4.2504 -1.9877 0.9813
0.1535 -4.2990 -1.9912 0.9812
0.3070 -4.2923 -1.9919 0.9812
0.7649 -4.2393 -1.9940 0.9812
1.0661 -4.1769 -1.9954 0.9812
1.3623 -4.0930 -1.9967 0.9812
1.9334 -3.8625 -1.9994 0.9811
2.2054 -3.7170 -2.0006 0.9811
2.5924 -3.4630 -2.0024 0.9811
3.0621 -3.0621 -2.0045 0.9811
3.2743 -2.8372 -2.0055 0.9811
3.3743 -2.7192 -2.0059 0.9811
3.4699 -2.5976 -2.0064 0.9811
3.5612 -2.4726 -2.0068 0.9811
3.7299 -2.2131 -2.0076 0.9811
3.8796 -1.9420 -2.0082 0.9811
3.9471 -1.8026 -2.0086 0.9811
4.0095 -1.6608 -2.0088 0.9811
4.1655 -1.2231 -2.0095 0.9810
4.2429 -0.9230 -2.0099 0.9810
4.2734 -0.7710 -2.0100 0.9810
4.2985 -0.6180 -2.0102 0.9810
4.3319 -0.3098 -2.0103 0.9810
-1.0803 -0.0386 -0.5302 0.9952
-1.0769 -0.0770 -0.5296 0.9952
-1.0705 -0.1151 -0.5281 0.9952
-1.0611 -0.1526 -0.5258 0.9952
-1.0175 -0.2988 -0.5202 0.9953
-1.0119 -0.3774 -0.5298 0.9952
-1.0444 -0.4769 -0.5632 0.9949
-3.3079 -2.2967 -1.9753 0.9822
-3.2244 -2.4138 -1.9757 0.9822
-3.0453 -2.6387 -1.9765 0.9822
-2.9498 -2.7464 -1.9770 0.9822
-2.5314 -3.1412 -1.9789 0.9822
-2.3021 -3.3156 -1.9800 0.9822
-2.1829 -3.3966 -1.9805 0.9822
-2.0608 -3.4733 -1.9811 0.9822
-1.8088 -3.6136 -1.9822 0.9822
-1.6792 -3.6769 -1.9828 0.9822
-1.2777 -3.8389 -1.9846 0.9821
-1.0012 -3.9228 -1.9859 0.9821
-0.8609 -3.9573 -1.9866 0.9821
-0.5767 -4.0113 -1.9879 0.9821
-0.0000 -4.0579 -1.9905 0.9821
0.1449 -4.0567 -1.9912 0.9821
0.2897 -4.0503 -1.9918 0.9821
0.4342 -4.0387 -1.9925 0.9821
0.5783 -4.0220 -1.9931 0.9821
0.7217 -4.0001 -1.9938 0.9821
1.0059 -3.9410 -1.9951 0.9820
1.2853 -3.8616 -1.9964 0.9820
1.4227 -3.8145 -1.9970 0.9820
1.6923 -3.7056 -1.9982 0.9820
2.2050 -3.4310 -2.0006 0.9820
2.3267 -3.3511 -2.0011 0.9820
2.4455 -3.2668 -2.0017 0.9820
2.5612 -3.1783 -2.0022 0.9820
2.6737 -3.0856 -2.0027 0.9820
2.8884 -2.8884 -2.0037 0.9820
2.9904 -2.7841 -2.0042 0.9820
3.1828 -2.5648 -2.0051 0.9820
3.2730 -2.4501 -2.0055 0.9819
3.3590 -2.3322 -2.0059 0.9819
3.4407 -2.2112 -2.0062 0.9819
3.5181 -2.0874 -2.0066 0.9819
3.5909 -1.9608 -2.0069 0.9819
3.6592 -1.8317 -2.0072 0.9819
3.7816 -1.5664 -2.0078 0.9819
3.8356 -1.4306 -2.0080 0.9819
3.9287 -1.1536 -2.0085 0.9819
3.9677 -1.0127 -2.0086 0.9819
4.0016 -0.8705 -2.0088 0.9819
4.0304 -0.7272 -2.0089 0.9819
4.0540 -0.5829 -2.0090 0.9819
4.0724 -0.4378 -2.0091 0.9819
4.0934 -0.1462 -2.0092 0.9819
-0.9895 0.0000 -0.5133 0.9956
-0.9893 -0.0353 -0.5135 0.9955
-0.9873 -0.0706 -0.5135 0.9955
-0.9268 -0.3085 -0.5067 0.9956
-0.9208 -0.3434 -0.5098 0.9956
-0.9271 -0.3840 -0.5206 0.9955
-0.9326 -0.4259 -0.5319 0.9954
-0.9416 -0.4713 -0.5463 0.9953
-0.9486 -0.5180 -0.5607 0.9951
-3.2040 -2.0591 -1.9758 0.9830
-3.0500 -2.2832 -1.9765 0.9830
-2.9671 -2.3911 -1.9769 0.9830
-2.8805 -2.4959 -1.9773 0.9830
-2.7902 -2.5977 -1.9777 0.9830
-2.6962 -2.6962 -1.9781 0.9830
-2.5989 -2.7914 -1.9786 0.9830
-2.4982 -2.8830 -1.9790 0.9830
-2.3943 -2.9711 -1.9795 0.9830
-2.2873 -3.0554 -1.9800 0.9829
-2.1773 -3.1359 -1.9805 0.9829
-2.0645 -3.2125 -1.9810 0.9829
-1.9491 -3.2850 -1.9816 0.9829
-1.7107 -3.4175 -1.9827 0.9829
-1.5881 -3.4774 -1.9832 0.9829
-0.9468 -3.7096 -1.9862 0.9829
-0.5454 -3.7931 -1.9880 0.9829
-0.2735 -3.8247 -1.9892 0.9829
-0.1369 -3.8332 -1.9899 0.9829
-0.0000 -3.8369 -1.9905 0.9829
0.1370 -3.8356 -1.9911 0.9829
0.5467 -3.8026 -1.9930 0.9828
1.0837 -3.6906 -1.9955 0.9828
1.4733 -3.5568 -1.9972 0.9828
1.5998 -3.5030 -1.9978 0.9828
1.7243 -3.4446 -1.9984 0.9828
1.8466 -3.3819 -1.9990 0.9828
1.9667 -3.3147 -1.9995 0.9828
2.1993 -3.1676 -2.0006 0.9828
2.5272 -2.9166 -2.0021 0.9828
2.6303 -2.8252 -2.0025 0.9828
2.9192 -2.5295 -2.0039 0.9827
3.0934 -2.3157 -2.0046 0.9827
3.1747 -2.2042 -2.0050 0.9827
3.3938 -1.8532 -2.0060 0.9827
3.4583 -1.7311 -2.0063 0.9827
3.5184 -1.6068 -2.0066 0.9827
3.5739 -1.4804 -2.0068 0.9827
3.6249 -1.3520 -2.0071 0.9827
3.6712 -1.2219 -2.0073 0.9827
3.7129 -1.0902 -2.0075 0.9827
3.8312 -0.5508 -2.0080 0.9827
3.8486 -0.4138 -2.0081 0.9827
3.8685 -0.1382 -2.0082 0.9827
-0.9182 0.0000 -0.5029 0.9958
-0.9127 -0.0981 -0.5028 0.9958
-0.9077 -0.1305 -0.5022 0.9958
-0.9011 -0.1626 -0.5015 0.9958
-0.8932 -0.1943 -0.5006 0.9958
-0.8837 -0.2255 -0.4995 0.9958
-0.8727 -0.2562 -0.4982 0.9959
-0.8603 -0.2863 -0.4966 0.9959
-0.8465 -0.3157 -0.4948 0.9959
-0.8479 -0.3512 -0.5027 0.9958
-0.8506 -0.3884 -0.5122 0.9957
-0.8516 -0.4263 -0.5216 0.9957
-0.8507 -0.4645 -0.5309 0.9956
-2.8900 -2.1634 -1.9772 0.9837
-2.8115 -2.2656 -1.9776 0.9837
-2.7293 -2.3650 -1.9780 0.9837
-2.6437 -2.4614 -1.9784 0.9837
-2.4624 -2.6448 -1.9792 0.9837
-2.2685 -2.8150 -1.9801 0.9836
-2.1671 -2.8949 -1.9806 0.9836
-1.8466 -3.1122 -1.9820 0.9836
-1.6207 -3.2377 -1.9831 0.9836
-1.5045 -3.2944 -1.9836 0.9836
-1.3863 -3.3469 -1.9841 0.9836
-0.7711 -3.5449 -1.9870 0.9836
-0.5166 -3.5930 -1.9881 0.9836
-0.3881 -3.6102 -1.9887 0.9836
-0.2591 -3.6228 -1.9893 0.9836
-0.1297 -3.6309 -1.9899 0.9836
0.2594 -3.6272 -1.9917 0.9836
1.1507 -3.4574 -1.9958 0.9835
1.5150 -3.3174 -1.9974 0.9835
1.7487 -3.2025 -1.9985 0.9835
1.8624 -3.1389 -1.9990 0.9835
1.9737 -3.0712 -1.9995 0.9835
2.0826 -2.9996 -2.0000 0.9835
2.2924 -2.8447 -2.0010 0.9835
2.4906 -2.6751 -2.0019 0.9835
2.8483 -2.2953 -2.0035 0.9835
2.9290 -2.1926 -2.0039 0.9835
3.0059 -2.0870 -2.0042 0.9834
3.0790 -1.9787 -2.0046 0.9834
3.1481 -1.8679 -2.0049 0.9834
3.2133 -1.7546 -2.0052 0.9834
3.2743 -1.6390 -2.0055 0.9834
3.3311 -1.5213 -2.0057 0.9834
3.4320 -1.2801 -2.0062 0.9834
3.4758 -1.1568 -2.0064 0.9834
3.5152 -1.0321 -2.0066 0.9834
3.5501 -0.9061 -2.0067 0.9834
3.5804 -0.7789 -2.0069 0.9834
3.6272 -0.5215 -2.0071 0.9834
3.6554 -0.2614 -2.0072 0.9834
3.6625 -0.1308 -2.0072 0.9834
-0.8550 0.0000 -0.4936 0.9961
-0.8548 -0.0305 -0.4938 0.9961
-0.8453 -0.1215 -0.4930 0.9961
-0.8230 -0.2101 -0.4904 0.9961
-0.8014 -0.2667 -0.4876 0.9961
-0.7809 -0.3566 -0.4957 0.9960
-0.7806 -0.3908 -0.5040 0.9960
-0.7787 -0.4252 -0.5122 0.9959
-0.7750 -0.4599 -0.5203 0.9958
-0.7696 -0.4946 -0.5282 0.9958
-0.7634 -0.5300 -0.5366 0.9957
-2.6680 -2.1500 -1.9783 0.9843
-2.5087 -2.3357 -1.9790 0.9843
-2.3366 -2.5097 -1.9798 0.9843
-2.0563 -2.7469 -1.9811 0.9843
-1.9574 -2.8192 -1.9815 0.9843
-1.8560 -2.8879 -1.9820 0.9843
-1.7521 -2.9531 -1.9825 0.9843
-1.4275 -3.1258 -1.9840 0.9843
-1.0860 -3.2630 -1.9855 0.9842
-0.8510 -3.3340 -1.9866 0.9842
-0.2458 -3.4369 -1.9894 0.9842
0.1231 -3.4464 -1.9911 0.9842
0.6130 -3.3976 -1.9933 0.9842
0.9735 -3.3154 -1.9950 0.9842
1.4369 -3.1465 -1.9971 0.9842
1.5487 -3.0939 -1.9976 0.9841
1.6586 -3.0375 -1.9981 0.9841
2.1741 -2.6979 -2.0004 0.9841
2.7011 -2.1767 -2.0029 0.9841
2.8505 -1.9792 -2.0035 0.9841
2.9854 -1.7713 -2.0041 0.9841
3.0471 -1.6638 -2.0044 0.9841
3.1588 -1.4426 -2.0049 0.9841
3.2087 -1.3291 -2.0052 0.9841
3.3333 -0.9787 -2.0057 0.9841
3.3951 -0.7386 -2.0060 0.9841
3.4395 -0.4945 -2.0062 0.9841
3.4662 -0.2479 -2.0063 0.9841
3.4729 -0.1240 -2.0064 0.9841
