ply
format ascii 1.0
element vertex 822
property float32 x
property float32 y
property float32 z
property float32 I
end_header
-2.4078 6.4555 -0.0388 0.9728
-2.4941 6.0212 -0.0367 0.9743
-2.9066 5.8067 -0.0366 0.9744
-3.1682 5.8021 -0.0372 0.9739
-4.0328 5.8084 -0.0398 0.9721
-4.3530 5.8150 -0.0409 0.9714
-5.1003 5.8861 -0.0438 0.9693
-2.2119 5.9303 -0.1782 0.9750
-2.3749 5.7336 -0.1747 0.9755
-3.1294 5.7310 -0.1839 0.9742
-3.9839 5.7379 -0.1967 0.9724
-4.6348 5.7515 -0.2080 0.9709
-5.0060 5.7772 -0.2152 0.9699
-1.8899 6.4365 -0.3402 0.9735
-1.9926 5.9867 -0.3200 0.9750
-2.5977 5.6882 -0.3171 0.9753
-3.9472 5.6850 -0.3510 0.9727
-4.5898 5.6956 -0.3710 0.9711
-4.9564 5.7200 -0.3838 0.9701
-1.6777 6.5731 -0.4974 0.9732
-3.9164 5.6407 -0.5035 0.9728
-4.9036 5.6590 -0.5490 0.9704
-0.7282 6.7735 -0.6540 0.9730
-0.9283 6.4564 -0.6262 0.9741
-1.1288 6.2566 -0.6104 0.9748
-1.3251 6.0913 -0.5985 0.9753
-1.5169 5.9432 -0.5889 0.9757
-1.7026 5.7986 -0.5802 0.9760
-2.0244 5.4277 -0.5562 0.9770
-2.3259 5.6153 -0.5835 0.9759
-3.3140 5.5855 -0.6235 0.9742
-3.5803 5.5711 -0.6358 0.9737
-3.8643 5.5657 -0.6505 0.9731
-4.4867 5.5677 -0.6865 0.9717
-4.8292 5.5732 -0.7080 0.9708
-5.2154 5.6018 -0.7348 0.9697
-0.6336 5.8936 -0.7041 0.9764
-0.8313 5.7820 -0.6939 0.9767
-1.0258 5.6858 -0.6863 0.9770
-1.2231 5.6223 -0.6835 0.9771
-1.4284 5.5962 -0.6861 0.9770
-2.0688 5.5465 -0.7032 0.9764
-2.2939 5.5381 -0.7120 0.9761
-2.7815 5.5568 -0.7381 0.9753
-3.2787 5.5259 -0.7632 0.9745
-3.5493 5.5228 -0.7798 0.9739
-4.1393 5.5294 -0.8205 0.9726
-4.4474 5.5188 -0.8419 0.9719
-0.6052 5.6292 -0.8022 0.9774
-1.2031 5.5307 -0.8020 0.9774
-1.8321 5.5046 -0.8220 0.9768
-2.2802 5.5050 -0.8443 0.9762
-2.5141 5.5051 -0.8575 0.9758
-2.7560 5.5057 -0.8724 0.9754
-3.0064 5.5057 -0.8888 0.9750
-3.2672 5.5066 -0.9072 0.9745
-4.4363 5.5052 -1.0018 0.9718
-5.1778 5.5614 -1.0766 0.9698
-0.2278 6.3783 -1.0514 0.9745
-0.5968 5.5511 -0.9198 0.9776
-0.7939 5.5219 -0.9190 0.9776
-0.9893 5.4832 -0.9179 0.9777
-1.1921 5.4799 -0.9239 0.9775
-1.8296 5.4971 -0.9544 0.9768
-3.5408 5.5096 -1.0789 0.9738
-3.8243 5.5080 -1.1047 0.9732
-4.2116 5.6260 -1.1577 0.9719
-4.4314 5.4990 -1.1634 0.9718
5.8622 7.8310 -1.8387 0.9610
5.2890 8.2298 -1.8388 0.9610
4.9920 8.4136 -1.8388 0.9610
4.6887 8.5867 -1.8389 0.9610
4.3794 8.7489 -1.8390 0.9610
4.0645 8.9000 -1.8390 0.9610
3.4195 9.1680 -1.8392 0.9610
3.0902 9.2846 -1.8393 0.9610
2.7570 9.3894 -1.8393 0.9610
2.4202 9.4822 -1.8394 0.9610
2.0803 9.5629 -1.8395 0.9610
1.3929 9.6879 -1.8397 0.9609
0.6983 9.7635 -1.8398 0.9609
-0.4062 5.6792 -1.0702 0.9771
-0.5930 5.5159 -1.0427 0.9777
-1.0776 5.9726 -1.1407 0.9756
-1.6102 5.4837 -1.0742 0.9770
-2.2823 5.5101 -1.1210 0.9760
-2.5195 5.5169 -1.1400 0.9756
-2.7638 5.5213 -1.1606 0.9752
-3.0160 5.5233 -1.1829 0.9747
-3.5455 5.5169 -1.2326 0.9737
-3.8218 5.5045 -1.2596 0.9731
-4.6509 5.7715 -1.3932 0.9703
-4.7652 5.4993 -1.3677 0.9708
-5.1716 5.5547 -1.4265 0.9696
9.4173 0.0000 -1.9906 0.9622
9.3930 0.6718 -1.9906 0.9622
9.3630 1.0066 -1.9906 0.9622
9.2672 1.6720 -1.9905 0.9622
9.2015 2.0017 -1.9905 0.9622
9.0352 2.6530 -1.9905 0.9622
8.9348 2.9738 -1.9905 0.9622
8.8229 3.2908 -1.9905 0.9622
8.4207 4.2151 -1.9905 0.9622
8.2650 4.5130 -1.9905 0.9622
7.7354 5.3708 -1.9906 0.9622
7.3328 5.9091 -1.9907 0.9622
6.8928 6.4174 -1.9907 0.9622
6.4177 6.8931 -1.9908 0.9622
4.9550 7.7101 -1.9373 0.9632
3.6146 7.9148 -1.8392 0.9651
3.3299 8.0391 -1.8393 0.9651
3.0409 8.1531 -1.8394 0.9650
2.4517 8.3499 -1.8395 0.9650
2.1522 8.4324 -1.8396 0.9650
0.9304 8.6542 -1.8399 0.9650
-0.3973 5.5553 -1.1773 0.9775
-0.5898 5.4856 -1.1662 0.9777
-0.9895 5.4847 -1.1781 0.9775
-1.4033 5.4979 -1.1994 0.9771
-2.0531 5.5047 -1.2419 0.9763
-2.2851 5.5167 -1.2622 0.9759
-2.5233 5.5252 -1.2839 0.9755
-2.7676 5.5290 -1.3070 0.9750
-3.0205 5.5317 -1.3322 0.9746
-3.5474 5.5199 -1.3870 0.9735
-3.8222 5.5050 -1.4166 0.9730
-6.4284 6.9046 -1.9941 0.9622
-7.1306 6.1787 -1.9944 0.9622
-7.3468 5.9204 -1.9945 0.9622
-7.7511 5.3817 -1.9946 0.9622
-7.9385 5.1018 -1.9947 0.9622
-8.1158 4.8153 -1.9948 0.9622
-8.8433 3.2984 -1.9951 0.9621
-9.0566 2.6592 -1.9952 0.9621
-9.2237 2.0065 -1.9953 0.9621
-9.2896 1.6760 -1.9953 0.9621
-9.3437 1.3434 -1.9954 0.9621
-9.4343 0.3369 -1.9955 0.9621
8.4710 -0.0000 -1.9909 0.9658
8.4655 0.3023 -1.9908 0.9658
8.4221 0.9055 -1.9908 0.9658
8.3844 1.2055 -1.9908 0.9658
8.2074 2.0948 -1.9908 0.9658
8.1273 2.3864 -1.9908 0.9658
7.9364 2.9601 -1.9908 0.9658
7.7050 3.5188 -1.9908 0.9658
7.5746 3.7916 -1.9908 0.9658
7.4345 4.0595 -1.9908 0.9658
6.5959 5.3153 -1.9909 0.9658
6.4021 5.5474 -1.9909 0.9658
5.9902 5.9902 -1.9910 0.9658
5.7727 6.2004 -1.9910 0.9658
5.3159 6.5967 -1.9911 0.9658
4.8320 6.9594 -1.9912 0.9658
3.5073 7.6799 -1.9843 0.9659
3.1928 7.7080 -1.9608 0.9663
1.9719 7.7256 -1.8739 0.9678
0.5585 7.8093 -1.8400 0.9683
0.2795 7.8245 -1.8401 0.9683
0.0000 7.8298 -1.8402 0.9683
-0.5897 5.4853 -1.2966 0.9776
-0.9924 5.5006 -1.3136 0.9773
-1.4033 5.4982 -1.3336 0.9770
-2.0558 5.5119 -1.3826 0.9761
-2.5121 5.5008 -1.4212 0.9755
-2.7522 5.4982 -1.4451 0.9751
-3.0020 5.4977 -1.4722 0.9746
-3.2830 5.5332 -1.5121 0.9739
-3.6088 5.6154 -1.5688 0.9729
-3.8281 5.5136 -1.5775 0.9728
-4.1339 5.5223 -1.6212 0.9721
-5.9996 5.9996 -1.9941 0.9657
-6.2102 5.7819 -1.9942 0.9657
-6.7934 5.0854 -1.9944 0.9657
-7.2988 4.3305 -1.9946 0.9657
-7.4489 4.0674 -1.9947 0.9657
-7.5896 3.7991 -1.9947 0.9657
-7.8417 3.2481 -1.9948 0.9657
-8.0539 2.6806 -1.9949 0.9657
-8.3541 1.5072 -1.9951 0.9657
-8.4842 0.3030 -1.9953 0.9657
7.6900 -0.0000 -1.9911 0.9687
7.6702 0.5486 -1.9910 0.9687
7.5675 1.3653 -1.9910 0.9687
7.5139 1.6345 -1.9910 0.9687
7.4507 1.9017 -1.9910 0.9687
7.3781 2.1664 -1.9910 0.9687
7.2960 2.4283 -1.9910 0.9687
7.1042 2.9427 -1.9910 0.9687
6.9947 3.1944 -1.9910 0.9687
6.3166 4.3857 -1.9910 0.9687
5.6285 5.2403 -1.9912 0.9687
5.0363 5.8122 -1.9913 0.9687
4.6090 6.1570 -1.9913 0.9687
3.9248 6.6148 -1.9915 0.9687
3.4430 6.8783 -1.9916 0.9687
3.1954 6.9970 -1.9916 0.9687
2.9437 7.1068 -1.9917 0.9687
2.6883 7.2076 -1.9917 0.9687
2.4285 7.2966 -1.9911 0.9687
2.1652 7.3740 -1.9899 0.9687
1.8996 7.4425 -1.9888 0.9688
1.3626 7.5525 -1.9870 0.9688
0.5471 7.6494 -1.9856 0.9688
-0.2058 5.7628 -1.4931 0.9765
-0.3980 5.5645 -1.4444 0.9772
-0.7873 5.4759 -1.4324 0.9774
-0.9932 5.5050 -1.4483 0.9772
-1.8291 5.4955 -1.4996 0.9764
-2.0590 5.5205 -1.5255 0.9759
-4.1628 6.4774 -1.9936 0.9687
-4.3915 6.3249 -1.9937 0.9687
-4.1181 5.5011 -1.7792 0.9720
-5.2477 5.6364 -1.9939 0.9687
-5.4457 5.4457 -1.9940 0.9687
-5.8207 5.0436 -1.9941 0.9687
-5.9972 4.8328 -1.9942 0.9687
-6.1660 4.6158 -1.9943 0.9687
-6.6247 3.9306 -1.9945 0.9687
-6.8886 3.4482 -1.9946 0.9687
-7.2183 2.6923 -1.9947 0.9687
-7.3100 2.4330 -1.9948 0.9687
-7.3923 2.1706 -1.9948 0.9687
-7.5286 1.6378 -1.9949 0.9687
-7.6266 1.0965 -1.9950 0.9687
-7.6610 0.8236 -1.9950 0.9687
-7.6856 0.5497 -1.9950 0.9687
7.0339 -0.0000 -1.9912 0.9712
7.0293 0.2510 -1.9912 0.9712
6.9934 0.7519 -1.9912 0.9712
6.9620 1.0010 -1.9912 0.9712
6.8151 1.7394 -1.9911 0.9712
6.6736 2.2212 -1.9911 0.9712
6.5901 2.4580 -1.9911 0.9712
6.2896 3.1484 -1.9912 0.9712
6.0491 3.5891 -1.9912 0.9712
5.9172 3.8027 -1.9912 0.9712
5.7777 4.0115 -1.9912 0.9712
5.6309 4.2152 -1.9912 0.9712
5.4769 4.4136 -1.9913 0.9712
4.9740 4.9740 -1.9913 0.9712
4.7933 5.1484 -1.9914 0.9712
4.2158 5.6316 -1.9915 0.9712
4.0122 5.7786 -1.9915 0.9712
3.5899 6.0504 -1.9916 0.9712
3.3717 6.1748 -1.9917 0.9712
3.1492 6.2913 -1.9917 0.9712
1.9824 6.7514 -1.9920 0.9712
1.7402 6.8181 -1.9920 0.9712
1.4958 6.8760 -1.9921 0.9712
1.2495 6.9253 -1.9921 0.9712
1.0015 6.9657 -1.9922 0.9712
0.7523 6.9972 -1.9923 0.9712
0.2512 7.0335 -1.9924 0.9712
0.0000 7.0382 -1.9925 0.9712
-0.2512 7.0339 -1.9925 0.9712
-0.3980 5.5650 -1.5794 0.9771
-0.5941 5.5262 -1.5734 0.9772
-1.4134 5.5375 -1.6179 0.9765
-2.6944 6.5049 -1.9932 0.9712
-3.1518 6.2965 -1.9933 0.9712
-3.8072 5.9241 -1.9935 0.9711
-4.2204 5.6378 -1.9937 0.9711
-4.4191 5.4837 -1.9937 0.9711
-4.7993 5.1549 -1.9939 0.9711
-4.9804 4.9804 -1.9939 0.9711
-5.1552 4.7996 -1.9940 0.9711
-5.7864 4.0176 -1.9942 0.9711
-5.9263 3.8086 -1.9943 0.9711
-6.1832 3.3763 -1.9944 0.9711
-6.4087 2.9267 -1.9945 0.9711
-6.5092 2.6962 -1.9945 0.9711
-6.8272 1.7425 -1.9947 0.9711
-6.8852 1.4978 -1.9947 0.9711
-6.9747 1.0028 -1.9948 0.9711
-7.0062 0.7532 -1.9948 0.9711
-7.0422 0.2515 -1.9949 0.9711
6.4578 0.4619 -1.9914 0.9733
6.3262 1.3762 -1.9913 0.9733
6.2119 1.8240 -1.9913 0.9733
5.7894 2.8979 -1.9913 0.9733
5.6823 3.1028 -1.9913 0.9733
5.0413 4.0625 -1.9914 0.9733
4.8931 4.2399 -1.9914 0.9733
4.7387 4.4119 -1.9915 0.9733
4.5783 4.5783 -1.9915 0.9733
4.2402 4.8934 -1.9915 0.9733
4.0629 5.0417 -1.9916 0.9733
3.6930 5.3189 -1.9917 0.9733
3.1034 5.6835 -1.9918 0.9733
2.8987 5.7908 -1.9918 0.9733
2.0452 6.1450 -1.9920 0.9733
1.6017 6.2756 -1.9921 0.9733
0.6924 6.4404 -1.9923 0.9733
0.4621 6.4612 -1.9924 0.9733
-0.0000 6.4781 -1.9925 0.9733
-0.6925 6.4415 -1.9927 0.9733
-0.7881 5.4815 -1.7033 0.9771
-1.0264 5.6890 -1.7781 0.9761
-1.2425 5.7115 -1.7978 0.9758
-2.6921 5.8948 -1.9933 0.9732
-2.9009 5.7952 -1.9933 0.9732
-3.1060 5.6881 -1.9934 0.9732
-3.3071 5.5738 -1.9934 0.9732
-3.6966 5.3240 -1.9936 0.9732
-4.4171 4.7443 -1.9938 0.9732
-4.5838 4.5838 -1.9939 0.9732
-4.8994 4.2453 -1.9940 0.9732
-5.1901 3.8852 -1.9941 0.9732
-5.3256 3.6976 -1.9941 0.9732
-5.4543 3.5052 -1.9942 0.9732
-5.5760 3.3084 -1.9942 0.9732
-5.7981 2.9023 -1.9943 0.9732
-5.8982 2.6936 -1.9944 0.9732
-5.9907 2.4814 -1.9944 0.9732
-6.1527 2.0478 -1.9945 0.9732
-6.2220 1.8269 -1.9945 0.9732
-6.2833 1.6037 -1.9946 0.9732
-6.3819 1.1514 -1.9946 0.9732
-6.4190 0.9229 -1.9947 0.9732
-6.4480 0.6932 -1.9947 0.9732
5.9874 0.2138 -1.9915 0.9751
5.9759 0.4274 -1.9915 0.9751
5.8958 1.0637 -1.9914 0.9751
5.8541 1.2735 -1.9914 0.9751
5.7483 1.6879 -1.9914 0.9751
5.4496 2.4887 -1.9914 0.9751
5.3573 2.6817 -1.9914 0.9751
5.2582 2.8712 -1.9915 0.9751
4.7962 3.5904 -1.9915 0.9751
4.5280 3.9235 -1.9916 0.9751
4.3851 4.0826 -1.9916 0.9751
3.9237 4.5282 -1.9917 0.9751
3.7596 4.6654 -1.9917 0.9751
3.5908 4.7967 -1.9917 0.9751
3.4173 4.9219 -1.9918 0.9751
3.0576 5.1533 -1.9918 0.9751
2.8718 5.2593 -1.9919 0.9751
2.6823 5.3586 -1.9919 0.9751
2.4894 5.4510 -1.9920 0.9751
2.0943 5.6150 -1.9920 0.9751
1.8926 5.6862 -1.9921 0.9751
1.4822 5.8071 -1.9922 0.9751
1.2740 5.8564 -1.9922 0.9751
0.4276 5.9787 -1.9924 0.9751
0.2139 5.9904 -1.9925 0.9750
0.0000 5.9943 -1.9926 0.9750
-0.4277 5.9794 -1.9927 0.9750
-0.6408 5.9605 -1.9927 0.9750
-0.8532 5.9340 -1.9928 0.9750
-1.1958 5.4971 -1.8700 0.9766
-1.4017 5.4918 -1.8840 0.9764
-3.0601 5.1575 -1.9934 0.9750
-3.4204 4.9263 -1.9935 0.9750
-3.5941 4.8012 -1.9936 0.9750
-4.6707 3.7639 -1.9940 0.9750
-5.0467 3.2433 -1.9941 0.9750
-5.1593 3.0612 -1.9941 0.9750
-5.2654 2.8751 -1.9942 0.9750
-5.4574 2.4923 -1.9943 0.9750
-5.5429 2.2960 -1.9943 0.9750
-5.6215 2.0967 -1.9944 0.9750
-5.6928 1.8948 -1.9944 0.9750
-5.7569 1.6904 -1.9944 0.9750
-5.8137 1.4839 -1.9945 0.9750
-5.8630 1.2754 -1.9945 0.9750
-5.9852 0.4281 -1.9946 0.9750
5.5693 0.0000 -1.9916 0.9766
5.5657 0.1988 -1.9916 0.9766
5.5550 0.3973 -1.9916 0.9766
5.5373 0.5953 -1.9916 0.9766
5.5125 0.7926 -1.9916 0.9766
5.4806 0.9888 -1.9916 0.9766
5.3961 1.3773 -1.9915 0.9766
5.3435 1.5690 -1.9915 0.9766
5.2180 1.9462 -1.9915 0.9766
5.1452 2.1312 -1.9915 0.9766
4.9801 2.4928 -1.9916 0.9766
4.7896 2.8418 -1.9916 0.9766
4.5747 3.1763 -1.9916 0.9766
4.4585 3.3375 -1.9916 0.9766
4.2091 3.6472 -1.9917 0.9766
4.0763 3.7951 -1.9917 0.9766
3.7952 4.0764 -1.9917 0.9766
3.6474 4.2093 -1.9918 0.9766
3.4949 4.3368 -1.9918 0.9766
3.3379 4.4589 -1.9918 0.9766
3.1767 4.5753 -1.9918 0.9766
1.9467 5.2194 -1.9921 0.9766
1.7592 5.2857 -1.9922 0.9766
1.3778 5.3980 -1.9922 0.9766
0.7929 5.5147 -1.9924 0.9766
0.3975 5.5575 -1.9925 0.9766
0.1989 5.5683 -1.9925 0.9766
-0.3975 5.5581 -1.9927 0.9766
-0.5957 5.5405 -1.9927 0.9766
-0.7931 5.5158 -1.9928 0.9766
-1.5702 5.3474 -1.9930 0.9766
-1.7601 5.2881 -1.9931 0.9766
-1.9478 5.2221 -1.9931 0.9766
-2.1329 5.1494 -1.9932 0.9766
-3.0138 4.6895 -1.9934 0.9766
-3.1793 4.5790 -1.9935 0.9766
-4.0806 3.7992 -1.9938 0.9766
-4.3414 3.4986 -1.9939 0.9766
-4.4637 3.3414 -1.9939 0.9766
-4.7956 2.8453 -1.9941 0.9766
-4.8942 2.6724 -1.9941 0.9766
-4.9865 2.4961 -1.9942 0.9766
-5.1521 2.1341 -1.9942 0.9766
-5.4496 1.1855 -1.9944 0.9766
-5.4885 0.9902 -1.9944 0.9766
-5.5204 0.7937 -1.9944 0.9766
-5.5631 0.3979 -1.9945 0.9766
5.1940 0.1855 -1.9917 0.9780
5.1840 0.3708 -1.9917 0.9780
5.1443 0.7396 -1.9917 0.9780
5.0784 1.1047 -1.9917 0.9780
5.0357 1.2853 -1.9917 0.9780
4.9866 1.4642 -1.9916 0.9780
4.8016 1.9889 -1.9917 0.9780
4.7275 2.1590 -1.9917 0.9780
4.5615 2.4908 -1.9917 0.9780
4.3722 2.8099 -1.9917 0.9780
4.0469 3.2612 -1.9917 0.9780
3.8040 3.5417 -1.9918 0.9780
3.4038 3.9281 -1.9918 0.9780
3.1149 4.1611 -1.9919 0.9780
2.9645 4.2697 -1.9919 0.9780
2.8102 4.3728 -1.9920 0.9780
2.4912 4.5623 -1.9920 0.9780
2.3268 4.6484 -1.9921 0.9780
1.9894 4.8027 -1.9921 0.9780
1.8167 4.8708 -1.9922 0.9780
1.6417 4.9326 -1.9922 0.9780
1.2857 5.0374 -1.9923 0.9780
1.1051 5.0802 -1.9923 0.9780
0.5558 5.1695 -1.9925 0.9780
0.0000 5.1997 -1.9926 0.9780
-0.3710 5.1867 -1.9927 0.9780
-0.7401 5.1473 -1.9928 0.9780
-1.1054 5.0816 -1.9929 0.9780
-1.2861 5.0391 -1.9930 0.9780
-1.4652 4.9901 -1.9930 0.9780
-1.8176 4.8731 -1.9931 0.9780
-1.9904 4.8052 -1.9932 0.9780
-2.3282 4.6512 -1.9933 0.9780
-2.4928 4.5653 -1.9933 0.9780
-2.6543 4.4735 -1.9934 0.9780
-2.9668 4.2730 -1.9935 0.9780
-3.1175 4.1644 -1.9935 0.9780
-3.2642 4.0506 -1.9936 0.9780
-3.4068 3.9316 -1.9936 0.9780
-3.5450 3.8076 -1.9937 0.9780
-3.8078 3.5452 -1.9938 0.9780
-4.1652 3.1180 -1.9939 0.9780
-4.3772 2.8131 -1.9940 0.9780
-4.4749 2.6551 -1.9940 0.9780
-4.5669 2.4937 -1.9940 0.9780
-4.6531 2.3292 -1.9941 0.9780
-4.7334 2.1617 -1.9941 0.9780
-4.8757 1.8185 -1.9942 0.9780
-5.1911 0.3713 -1.9944 0.9780
4.8635 0.1737 -1.9918 0.9792
4.8542 0.3472 -1.9918 0.9792
4.8170 0.6926 -1.9918 0.9792
4.7553 1.0345 -1.9917 0.9792
4.7153 1.2035 -1.9917 0.9792
4.6694 1.3710 -1.9917 0.9792
4.6175 1.5368 -1.9917 0.9792
4.5597 1.7007 -1.9917 0.9792
4.1853 2.4833 -1.9918 0.9792
4.0940 2.6311 -1.9918 0.9792
3.9976 2.7755 -1.9918 0.9792
3.8960 2.9165 -1.9918 0.9792
3.7894 3.0537 -1.9918 0.9792
3.6780 3.1870 -1.9918 0.9792
3.5620 3.3163 -1.9919 0.9792
3.4414 3.4414 -1.9919 0.9792
3.0539 3.7897 -1.9919 0.9792
2.9167 3.8963 -1.9920 0.9792
2.7758 3.9980 -1.9920 0.9792
2.4836 4.1859 -1.9921 0.9792
2.3327 4.2720 -1.9921 0.9792
2.1788 4.3526 -1.9921 0.9792
2.0220 4.4277 -1.9922 0.9792
1.8628 4.4971 -1.9922 0.9792
1.5373 4.6187 -1.9923 0.9792
1.3714 4.6707 -1.9923 0.9792
1.2039 4.7168 -1.9923 0.9792
1.0348 4.7568 -1.9924 0.9792
0.3473 4.8561 -1.9926 0.9792
0.1738 4.8655 -1.9926 0.9792
0.0000 4.8687 -1.9926 0.9792
-0.1738 4.8657 -1.9927 0.9792
-0.3473 4.8565 -1.9927 0.9792
-0.5205 4.8412 -1.9928 0.9792
-1.2043 4.7183 -1.9930 0.9792
-1.3719 4.6724 -1.9930 0.9792
-1.5379 4.6205 -1.9931 0.9792
-2.0231 4.4300 -1.9932 0.9792
-2.1800 4.3551 -1.9933 0.9792
-2.3341 4.2746 -1.9933 0.9792
-2.6332 4.0974 -1.9934 0.9792
-2.7779 4.0009 -1.9934 0.9792
-3.1898 3.6812 -1.9936 0.9792
-3.3193 3.5651 -1.9936 0.9792
-3.4445 3.4445 -1.9937 0.9792
-3.5653 3.3194 -1.9937 0.9792
-3.6816 3.1901 -1.9938 0.9792
-4.0017 2.7784 -1.9939 0.9792
-4.1899 2.4860 -1.9939 0.9792
-4.2760 2.3349 -1.9940 0.9792
-4.3567 2.1808 -1.9940 0.9792
-4.5013 1.8645 -1.9941 0.9792
-4.5651 1.7027 -1.9941 0.9792
-4.6751 1.3727 -1.9942 0.9792
-4.7952 0.8651 -1.9942 0.9792
-4.8231 0.6934 -1.9943 0.9792
-4.8448 0.5209 -1.9943 0.9792
-4.8604 0.3476 -1.9943 0.9792
-4.8697 0.1739 -1.9943 0.9792
4.5705 0.0000 -1.9919 0.9803
4.5675 0.1631 -1.9919 0.9803
4.5588 0.3261 -1.9919 0.9803
4.5442 0.4885 -1.9918 0.9803
4.4977 0.8115 -1.9918 0.9803
4.4659 0.9715 -1.9918 0.9803
4.4284 1.1303 -1.9918 0.9803
4.3852 1.2876 -1.9918 0.9803
4.3364 1.4433 -1.9918 0.9803
4.2822 1.5972 -1.9918 0.9803
4.2224 1.7490 -1.9918 0.9803
3.9306 2.3321 -1.9918 0.9803
3.8449 2.4709 -1.9919 0.9803
3.5588 2.8678 -1.9919 0.9803
3.3452 3.1145 -1.9919 0.9803
3.2319 3.2319 -1.9920 0.9803
2.9932 3.4543 -1.9920 0.9803
2.3325 3.9311 -1.9921 0.9803
2.1907 4.0119 -1.9922 0.9803
2.0461 4.0876 -1.9922 0.9803
1.7494 4.2233 -1.9923 0.9803
0.9718 4.4672 -1.9924 0.9802
0.8117 4.4992 -1.9925 0.9802
0.6506 4.5254 -1.9925 0.9802
0.4887 4.5458 -1.9926 0.9802
0.3262 4.5604 -1.9926 0.9802
0.1632 4.5693 -1.9926 0.9802
0.0000 4.5723 -1.9927 0.9802
-0.1632 4.5695 -1.9927 0.9802
-0.3262 4.5608 -1.9928 0.9802
-0.8119 4.5001 -1.9929 0.9802
-0.9720 4.4684 -1.9929 0.9802
-1.1309 4.4309 -1.9930 0.9802
-1.7502 4.2252 -1.9932 0.9802
-2.0472 4.0898 -1.9932 0.9802
-2.3339 3.9335 -1.9933 0.9802
-2.6087 3.7572 -1.9934 0.9802
-2.9955 3.4570 -1.9936 0.9802
-3.1171 3.3479 -1.9936 0.9802
-3.2346 3.2346 -1.9936 0.9802
-3.3481 3.1172 -1.9937 0.9802
-3.4573 2.9957 -1.9937 0.9802
-3.7579 2.6092 -1.9938 0.9802
-3.8487 2.4734 -1.9939 0.9802
-3.9346 2.3345 -1.9939 0.9802
-4.0155 2.1926 -1.9939 0.9802
-4.1618 1.9006 -1.9940 0.9802
-4.2271 1.7509 -1.9940 0.9802
-1.5118 0.5639 -0.7032 0.9930
-1.4401 0.4793 -0.6615 0.9934
-1.3955 0.2518 -0.6180 0.9938
-1.4490 0.1036 -0.6331 0.9937
-1.4571 0.0520 -0.6354 0.9937
4.2923 0.3070 -1.9919 0.9812
4.2786 0.4600 -1.9919 0.9812
4.2349 0.7640 -1.9919 0.9812
4.1289 1.2123 -1.9919 0.9812
4.0830 1.3590 -1.9919 0.9812
4.0319 1.5038 -1.9919 0.9812
3.9757 1.6468 -1.9919 0.9812
3.9144 1.7876 -1.9919 0.9812
3.8481 1.9262 -1.9919 0.9812
3.7769 2.0623 -1.9919 0.9812
3.7009 2.1958 -1.9919 0.9812
3.5348 2.4543 -1.9919 0.9812
3.2523 2.8181 -1.9920 0.9812
2.9325 3.1497 -1.9920 0.9812
2.8182 3.2524 -1.9921 0.9812
2.7004 3.3510 -1.9921 0.9812
2.5791 3.4453 -1.9921 0.9812
2.4545 3.5352 -1.9921 0.9812
2.3268 3.6206 -1.9922 0.9812
2.1961 3.7014 -1.9922 0.9812
1.9265 3.8487 -1.9922 0.9812
1.7880 3.9151 -1.9923 0.9812
1.6471 3.9765 -1.9923 0.9812
1.3593 4.0840 -1.9924 0.9812
1.2127 4.1300 -1.9924 0.9812
1.0645 4.1707 -1.9924 0.9812
0.9150 4.2061 -1.9925 0.9812
0.7643 4.2361 -1.9925 0.9812
0.6126 4.2608 -1.9925 0.9812
0.4602 4.2800 -1.9926 0.9812
0.3071 4.2938 -1.9926 0.9812
0.1537 4.3021 -1.9927 0.9812
0.0000 4.3050 -1.9927 0.9812
-0.3071 4.2942 -1.9928 0.9812
-0.7644 4.2370 -1.9929 0.9812
-1.0648 4.1718 -1.9930 0.9812
-1.2130 4.1312 -1.9930 0.9812
-1.3598 4.0854 -1.9931 0.9812
-1.5047 4.0344 -1.9931 0.9812
-1.6478 3.9782 -1.9932 0.9812
-2.0637 3.7795 -1.9933 0.9812
-2.1974 3.7035 -1.9933 0.9812
-2.3282 3.6228 -1.9934 0.9812
-2.4561 3.5374 -1.9934 0.9812
-2.8203 3.2548 -1.9935 0.9812
-3.4481 2.5812 -1.9937 0.9812
-3.8519 1.9281 -1.9939 0.9812
-1.2345 0.5113 -0.6185 0.9941
-1.1536 0.3840 -0.5628 0.9947
-1.1330 0.3327 -0.5466 0.9948
-1.1790 0.2565 -0.5585 0.9947
-1.2261 0.1318 -0.5708 0.9946
4.0506 0.2897 -1.9920 0.9821
4.0377 0.4341 -1.9920 0.9821
4.0196 0.5779 -1.9920 0.9821
3.9964 0.7210 -1.9920 0.9821
3.9681 0.8632 -1.9920 0.9821
3.6314 1.8177 -1.9920 0.9821
3.3358 2.3161 -1.9920 0.9821
3.2510 2.4337 -1.9920 0.9821
2.9723 2.7673 -1.9921 0.9821
2.8716 2.8717 -1.9921 0.9821
2.6595 3.0693 -1.9921 0.9821
2.4338 3.2512 -1.9922 0.9821
2.3163 3.3361 -1.9922 0.9821
1.2827 3.8539 -1.9924 0.9821
1.1444 3.8973 -1.9924 0.9821
0.8634 3.9692 -1.9925 0.9821
0.7212 3.9975 -1.9925 0.9821
0.5781 4.0208 -1.9926 0.9821
0.2898 4.0519 -1.9926 0.9821
-0.2898 4.0522 -1.9928 0.9821
-0.5782 4.0214 -1.9929 0.9821
-0.7214 3.9983 -1.9929 0.9821
-1.1447 3.8985 -1.9930 0.9821
-1.2831 3.8552 -1.9931 0.9821
-1.4200 3.8070 -1.9931 0.9821
-1.5550 3.7540 -1.9932 0.9821
-1.9475 3.5665 -1.9933 0.9821
-2.0736 3.4948 -1.9933 0.9821
-2.5500 3.1644 -1.9935 0.9821
-2.6614 3.0714 -1.9935 0.9821
-2.9746 2.7694 -1.9936 0.9821
-3.0716 2.6616 -1.9936 0.9821
-3.2538 2.4357 -1.9937 0.9821
-3.3387 2.3181 -1.9937 0.9821
-3.4193 2.1975 -1.9938 0.9821
-3.5675 1.9480 -1.9938 0.9821
-1.0307 0.2631 -0.5218 0.9953
-1.0422 0.2267 -0.5232 0.9953
-1.0611 0.1526 -0.5258 0.9952
-1.0705 0.1151 -0.5281 0.9952
3.8375 0.1371 -1.9921 0.9828
3.8008 0.5465 -1.9920 0.9828
3.7788 0.6818 -1.9920 0.9828
3.5977 1.3419 -1.9920 0.9828
3.5475 1.4694 -1.9920 0.9828
3.4928 1.5951 -1.9920 0.9828
3.3023 1.9594 -1.9920 0.9828
2.8105 2.6167 -1.9921 0.9828
2.6167 2.8105 -1.9921 0.9828
2.5147 2.9021 -1.9922 0.9828
2.4096 2.9901 -1.9922 0.9828
2.3013 3.0742 -1.9922 0.9828
2.1902 3.1544 -1.9922 0.9828
2.0762 3.2306 -1.9923 0.9828
1.3421 3.5984 -1.9924 0.9828
1.2129 3.6441 -1.9924 0.9828
1.0821 3.6851 -1.9925 0.9828
0.6820 3.7798 -1.9926 0.9828
0.5466 3.8018 -1.9926 0.9828
0.2740 3.8313 -1.9927 0.9828
0.0000 3.8412 -1.9927 0.9828
-0.1371 3.8388 -1.9928 0.9828
-0.2740 3.8316 -1.9928 0.9828
-0.4106 3.8194 -1.9928 0.9828
-0.9501 3.7224 -1.9930 0.9828
-1.0824 3.6861 -1.9930 0.9828
-1.2133 3.6452 -1.9931 0.9828
-1.4703 3.5495 -1.9931 0.9828
-1.7198 3.4357 -1.9932 0.9828
-1.9606 3.3044 -1.9933 0.9828
-2.1914 3.1562 -1.9934 0.9828
-2.7172 2.7172 -1.9935 0.9828
-2.9043 2.5165 -1.9936 0.9828
-2.9923 2.4113 -1.9936 0.9828
-3.0765 2.3030 -1.9937 0.9828
-3.1568 2.1918 -1.9937 0.9828
-3.2330 2.0777 -1.9937 0.9828
-0.9416 0.4713 -0.5463 0.9953
-0.9326 0.4259 -0.5319 0.9954
-0.9271 0.3840 -0.5206 0.9955
-0.9268 0.3085 -0.5067 0.9956
-0.9404 0.2761 -0.5085 0.9956
-0.9715 0.1753 -0.5121 0.9956
-0.9785 0.1407 -0.5129 0.9956
-0.9838 0.1058 -0.5133 0.9956
-0.9893 0.0353 -0.5135 0.9955
3.6349 0.1298 -1.9921 0.9835
3.6279 0.2595 -1.9921 0.9835
3.6002 0.5176 -1.9921 0.9835
3.5794 0.6458 -1.9921 0.9835
3.4510 1.1486 -1.9921 0.9835
3.4078 1.2711 -1.9921 0.9835
3.3085 1.5109 -1.9921 0.9835
3.2524 1.6280 -1.9921 0.9835
3.0598 1.9664 -1.9921 0.9835
2.9877 2.0744 -1.9921 0.9835
2.9118 2.1797 -1.9921 0.9835
2.7489 2.3819 -1.9922 0.9835
2.6621 2.4785 -1.9922 0.9835
2.4786 2.6622 -1.9922 0.9835
2.3820 2.7490 -1.9922 0.9835
2.2824 2.8322 -1.9922 0.9835
2.0746 2.9879 -1.9923 0.9835
1.9666 3.0601 -1.9923 0.9835
1.5112 3.3090 -1.9924 0.9835
1.2713 3.4084 -1.9924 0.9835
1.0249 3.4906 -1.9925 0.9835
0.7733 3.5549 -1.9926 0.9835
0.6460 3.5803 -1.9926 0.9835
0.5178 3.6011 -1.9926 0.9835
0.0000 3.6384 -1.9928 0.9835
-0.2596 3.6292 -1.9928 0.9835
-0.5178 3.6016 -1.9929 0.9835
-0.6461 3.5809 -1.9929 0.9835
-1.1492 3.4527 -1.9931 0.9835
-1.3926 3.3621 -1.9931 0.9835
-1.6290 3.2543 -1.9932 0.9835
-1.9676 3.0617 -1.9933 0.9835
-2.0757 2.9895 -1.9934 0.9835
-2.2837 2.8339 -1.9934 0.9835
-2.3835 2.7507 -1.9935 0.9835
-2.4802 2.6639 -1.9935 0.9835
-2.7508 2.3836 -1.9936 0.9835
-2.8342 2.2839 -1.9936 0.9835
-2.9140 2.1814 -1.9936 0.9835
-0.8524 0.5058 -0.5428 0.9955
-0.8516 0.4262 -0.5216 0.9957
-0.8465 0.3157 -0.4948 0.9959
-0.8603 0.2863 -0.4966 0.9959
-0.8727 0.2562 -0.4982 0.9959
-0.8932 0.1943 -0.5006 0.9958
-0.9011 0.1626 -0.5015 0.9958
-0.9077 0.1305 -0.5022 0.9958
-0.9127 0.0981 -0.5028 0.9958
-0.9161 0.0655 -0.5030 0.9958
3.4505 -0.0000 -1.9922 0.9842
3.4483 0.1232 -1.9922 0.9842
3.4307 0.3688 -1.9921 0.9842
3.4154 0.4911 -1.9921 0.9842
3.3957 0.6127 -1.9921 0.9842
3.3433 0.8533 -1.9921 0.9842
3.3107 0.9721 -1.9921 0.9842
3.2739 1.0896 -1.9921 0.9842
3.1387 1.4334 -1.9921 0.9842
3.0855 1.5445 -1.9921 0.9842
3.0284 1.6536 -1.9921 0.9842
2.9675 1.7607 -1.9921 0.9842
2.9028 1.8655 -1.9922 0.9842
2.8343 1.9679 -1.9922 0.9842
2.7623 2.0678 -1.9922 0.9842
2.6078 2.2597 -1.9922 0.9842
2.0680 2.7625 -1.9923 0.9842
1.9681 2.8345 -1.9923 0.9842
1.8657 2.9030 -1.9923 0.9842
1.7609 2.9678 -1.9924 0.9842
1.6538 3.0288 -1.9924 0.9842
1.5447 3.0859 -1.9924 0.9842
1.3206 3.1883 -1.9925 0.9842
1.2060 3.2335 -1.9925 0.9842
0.9723 3.3114 -1.9925 0.9842
0.8535 3.3440 -1.9926 0.9842
0.6128 3.3965 -1.9926 0.9842
0.4912 3.4162 -1.9926 0.9842
0.3689 3.4316 -1.9927 0.9842
-0.1232 3.4494 -1.9928 0.9842
-0.2462 3.4429 -1.9928 0.9842
-0.3690 3.4320 -1.9929 0.9842
-0.4912 3.4167 -1.9929 0.9842
-0.6129 3.3970 -1.9929 0.9842
-0.7338 3.3730 -1.9930 0.9842
-0.9726 3.3122 -1.9930 0.9842
-1.2064 3.2345 -1.9931 0.9842
-1.3211 3.1894 -1.9931 0.9842
-1.4341 3.1403 -1.9932 0.9842
-1.5453 3.0872 -1.9932 0.9842
-1.6546 3.0301 -1.9932 0.9842
-1.7617 2.9692 -1.9933 0.9842
-1.8666 2.9044 -1.9933 0.9842
-1.9691 2.8360 -1.9933 0.9842
-2.0691 2.7640 -1.9934 0.9842
-2.1664 2.6884 -1.9934 0.9842
-2.2611 2.6094 -1.9934 0.9842
-2.4415 2.4415 -1.9935 0.9842
-2.5272 2.3528 -1.9935 0.9842
-2.6096 2.2612 -1.9936 0.9842
-2.7643 2.0693 -1.9936 0.9842
-0.7750 0.4599 -0.5203 0.9958
-0.7787 0.4252 -0.5122 0.9959
-0.7806 0.3908 -0.5040 0.9960
-0.7809 0.3566 -0.4957 0.9960
-0.7887 0.2942 -0.4860 0.9961
-0.8128 0.2387 -0.4891 0.9961
-0.8393 0.1514 -0.4924 0.9961
-0.8453 0.1215 -0.4930 0.9961
-0.8499 0.0914 -0.4935 0.9961
