ply
format ascii 1.0
element vertex 692
property float32 x
property float32 y
property float32 z
property float32 I
end_header
-9.2512 -0.0000 -1.9555 0.9629
-9.2454 -0.3302 -1.9555 0.9629
-9.1992 -0.9890 -1.9557 0.9629
-9.1587 -1.3168 -1.9559 0.9629
-9.1068 -1.6431 -1.9561 0.9629
-9.0435 -1.9673 -1.9563 0.9629
-8.7858 -2.9242 -1.9573 0.9629
-8.6777 -3.2366 -1.9577 0.9628
-8.5586 -3.5451 -1.9582 0.9628
-8.4288 -3.8493 -1.9587 0.9628
-8.1373 -4.4433 -1.9598 0.9628
-7.6234 -5.2930 -1.9618 0.9628
-7.4324 -5.5638 -1.9625 0.9628
-7.2319 -5.8278 -1.9633 0.9627
-6.5758 -6.5759 -1.9658 0.9627
-5.8435 -7.2514 -1.9686 0.9626
-5.5838 -7.4591 -1.9695 0.9626
-5.3168 -7.6576 -1.9706 0.9626
-4.4750 -8.1954 -1.9738 0.9625
-3.8834 -8.5035 -1.9760 0.9625
-3.5795 -8.6418 -1.9772 0.9625
-2.9575 -8.8858 -1.9796 0.9624
-2.6401 -8.9912 -1.9808 0.9624
-1.6669 -9.2392 -1.9845 0.9623
-1.3370 -9.2987 -1.9858 0.9623
0.3364 -9.4185 -1.9922 0.9622
1.0087 -9.3826 -1.9947 0.9622
1.6777 -9.2986 -1.9973 0.9621
2.3397 -9.1668 -1.9998 0.9621
2.6671 -9.0831 -2.0010 0.9620
2.9914 -8.9877 -2.0023 0.9620
3.3123 -8.8807 -2.0035 0.9620
3.6294 -8.7621 -2.0047 0.9620
3.9421 -8.6321 -2.0059 0.9619
4.2502 -8.4908 -2.0071 0.9619
4.5532 -8.3385 -2.0082 0.9619
5.1422 -8.0014 -2.0105 0.9619
5.4274 -7.8170 -2.0116 0.9618
5.9775 -7.4176 -2.0137 0.9618
6.2415 -7.2031 -2.0147 0.9618
6.4978 -6.9792 -2.0157 0.9618
6.7459 -6.7459 -2.0166 0.9617
6.9856 -6.5038 -2.0175 0.9617
7.4381 -5.9940 -2.0192 0.9617
7.8529 -5.4524 -2.0208 0.9617
8.0454 -5.1705 -2.0216 0.9617
8.3994 -4.5864 -2.0229 0.9616
8.7103 -3.9779 -2.0241 0.9616
8.8490 -3.6654 -2.0246 0.9616
9.2883 -2.3707 -2.0263 0.9616
9.3684 -2.0380 -2.0266 0.9616
9.5355 -1.0252 -2.0272 0.9615
-8.3354 -0.0000 -1.9590 0.9663
-8.3145 -0.5947 -1.9591 0.9663
-8.2519 -1.1864 -1.9593 0.9663
-8.2051 -1.4804 -1.9595 0.9663
-7.9154 -2.6345 -1.9606 0.9663
-7.8178 -2.9159 -1.9610 0.9663
-7.7104 -3.1937 -1.9614 0.9663
-7.5932 -3.4677 -1.9619 0.9663
-7.1847 -4.2629 -1.9634 0.9663
-6.8666 -4.7675 -1.9646 0.9662
-6.6943 -5.0113 -1.9653 0.9662
-5.9218 -5.9218 -1.9683 0.9662
-5.4889 -6.3345 -1.9699 0.9661
-5.2616 -6.5293 -1.9708 0.9661
-5.0275 -6.7160 -1.9717 0.9661
-4.0283 -7.3773 -1.9755 0.9661
-3.2217 -7.7778 -1.9786 0.9660
-2.3757 -8.0908 -1.9818 0.9659
-2.0865 -8.1750 -1.9829 0.9659
-1.7944 -8.2489 -1.9840 0.9659
-1.4997 -8.3124 -1.9851 0.9659
-1.2028 -8.3654 -1.9863 0.9659
-0.6036 -8.4396 -1.9886 0.9658
-0.3022 -8.4606 -1.9897 0.9658
-0.0000 -8.4709 -1.9909 0.9658
0.6050 -8.4592 -1.9932 0.9658
0.9071 -8.4371 -1.9943 0.9657
1.2083 -8.4041 -1.9955 0.9657
1.5084 -8.3605 -1.9966 0.9657
1.8069 -8.3060 -1.9978 0.9657
2.1034 -8.2409 -1.9989 0.9657
3.5429 -7.7578 -2.0044 0.9656
3.8195 -7.6304 -2.0054 0.9655
4.0915 -7.4931 -2.0065 0.9655
4.3586 -7.3460 -2.0075 0.9655
4.8763 -7.0233 -2.0095 0.9655
5.3700 -6.6637 -2.0114 0.9654
5.8368 -6.2692 -2.0131 0.9654
6.0594 -6.0594 -2.0140 0.9654
6.4814 -5.6162 -2.0156 0.9654
6.6803 -5.3833 -2.0164 0.9654
6.8706 -5.1433 -2.0171 0.9653
7.5422 -4.1184 -2.0196 0.9653
7.6865 -3.8476 -2.0202 0.9653
8.0594 -3.0060 -2.0216 0.9653
8.1631 -2.7170 -2.0220 0.9653
8.3389 -2.1284 -2.0227 0.9653
8.4716 -1.5285 -2.0232 0.9652
8.5884 -0.6143 -2.0236 0.9652
-7.5726 -0.2704 -1.9619 0.9692
-7.5346 -0.8101 -1.9621 0.9692
-7.4067 -1.6112 -1.9626 0.9692
-7.3453 -1.8748 -1.9628 0.9692
-7.2747 -2.1361 -1.9631 0.9692
-7.1950 -2.3947 -1.9634 0.9692
-7.0083 -2.9029 -1.9641 0.9691
-6.7863 -3.3970 -1.9649 0.9691
-6.5300 -3.8744 -1.9659 0.9691
-6.2404 -4.3328 -1.9670 0.9691
-6.0837 -4.5542 -1.9676 0.9691
-5.9191 -4.7699 -1.9683 0.9691
-5.5676 -5.1836 -1.9696 0.9691
-5.3809 -5.3809 -1.9703 0.9690
-4.7805 -5.9322 -1.9726 0.9690
-3.4192 -6.8308 -1.9778 0.9689
-1.8947 -7.4233 -1.9836 0.9688
-1.3617 -7.5472 -1.9857 0.9688
-1.0920 -7.5950 -1.9867 0.9688
-0.8206 -7.6331 -1.9877 0.9688
0.2746 -7.6883 -1.9919 0.9687
0.5491 -7.6777 -1.9930 0.9687
1.9085 -7.4776 -1.9981 0.9686
2.4396 -7.3298 -2.0002 0.9686
2.7010 -7.2417 -2.0012 0.9686
3.2139 -7.0374 -2.0031 0.9685
3.9533 -6.6629 -2.0059 0.9685
4.6490 -6.2104 -2.0086 0.9685
4.8697 -6.0430 -2.0094 0.9684
5.2927 -5.6848 -2.0111 0.9684
5.4943 -5.4943 -2.0118 0.9684
5.6890 -5.2967 -2.0126 0.9684
5.8765 -5.0921 -2.0133 0.9684
6.2290 -4.6630 -2.0146 0.9684
6.5497 -4.2093 -2.0158 0.9683
6.9676 -3.4878 -2.0174 0.9683
7.2019 -2.9831 -2.0183 0.9683
7.3052 -2.7247 -2.0187 0.9683
7.3991 -2.4627 -2.0191 0.9683
7.4835 -2.1974 -2.0194 0.9683
7.5582 -1.9291 -2.0197 0.9683
7.6232 -1.6583 -2.0199 0.9683
7.6783 -1.3853 -2.0201 0.9683
7.7235 -1.1105 -2.0203 0.9683
7.7587 -0.8342 -2.0205 0.9683
7.7991 -0.2785 -2.0206 0.9683
-6.9345 -0.2477 -1.9644 0.9716
-6.9214 -0.4950 -1.9644 0.9716
-6.8997 -0.7418 -1.9645 0.9716
-6.7824 -1.4754 -1.9650 0.9716
-6.4172 -2.6581 -1.9663 0.9715
-5.9787 -3.5474 -1.9680 0.9715
-5.2612 -4.5589 -1.9708 0.9715
-4.9258 -4.9258 -1.9721 0.9715
-4.7484 -5.1002 -1.9727 0.9714
-4.1806 -5.5847 -1.9749 0.9714
-3.9802 -5.7326 -1.9757 0.9714
-3.7746 -5.8733 -1.9764 0.9714
-1.9738 -6.7221 -1.9833 0.9713
-1.4906 -6.8522 -1.9852 0.9713
-0.2509 -7.0247 -1.9899 0.9712
0.0000 -7.0325 -1.9909 0.9712
0.2511 -7.0314 -1.9918 0.9712
0.7528 -7.0023 -1.9937 0.9711
1.0028 -6.9743 -1.9947 0.9711
1.4992 -6.8916 -1.9966 0.9711
1.7450 -6.8369 -1.9975 0.9711
2.2304 -6.7012 -1.9994 0.9711
2.4693 -6.6203 -2.0003 0.9711
2.7052 -6.5309 -2.0012 0.9710
2.9379 -6.4330 -2.0021 0.9710
3.1670 -6.3269 -2.0029 0.9710
3.6133 -6.0900 -2.0046 0.9710
3.8300 -5.9596 -2.0055 0.9710
4.0419 -5.8214 -2.0063 0.9710
4.2488 -5.6757 -2.0071 0.9710
4.4503 -5.5225 -2.0078 0.9709
4.6463 -5.3622 -2.0086 0.9709
5.0206 -5.0206 -2.0100 0.9709
5.1983 -4.8398 -2.0107 0.9709
5.9840 -3.8457 -2.0137 0.9709
6.6734 -2.4890 -2.0163 0.9708
6.7591 -2.2496 -2.0166 0.9708
6.9042 -1.7622 -2.0172 0.9708
6.9635 -1.5148 -2.0174 0.9708
7.0550 -1.0144 -2.0178 0.9708
7.1102 -0.5085 -2.0180 0.9708
7.1240 -0.2544 -2.0180 0.9708
-6.3892 -0.2282 -1.9664 0.9736
-6.3290 -0.9100 -1.9667 0.9736
-6.1374 -1.8021 -1.9674 0.9736
-6.0699 -2.0203 -1.9677 0.9736
-5.9948 -2.2360 -1.9680 0.9736
-5.7245 -2.8655 -1.9690 0.9736
-5.5078 -3.2679 -1.9698 0.9736
-5.3889 -3.4632 -1.9703 0.9735
-5.2631 -3.6543 -1.9708 0.9735
-5.1307 -3.8408 -1.9713 0.9735
-4.8463 -4.1993 -1.9724 0.9735
-4.3736 -4.6976 -1.9742 0.9735
-4.2045 -4.8523 -1.9748 0.9735
-3.8503 -5.1434 -1.9762 0.9735
-3.6656 -5.2794 -1.9769 0.9735
-3.4761 -5.4089 -1.9776 0.9735
-2.8813 -5.7561 -1.9799 0.9734
-2.6751 -5.8576 -1.9806 0.9734
-2.2522 -6.0384 -1.9823 0.9734
-2.0361 -6.1175 -1.9831 0.9734
-1.8172 -6.1889 -1.9839 0.9734
-1.5958 -6.2524 -1.9848 0.9734
-0.6910 -6.4271 -1.9882 0.9733
-0.4614 -6.4505 -1.9891 0.9733
-0.0000 -6.4727 -1.9909 0.9733
0.4622 -6.4619 -1.9926 0.9733
0.6928 -6.4442 -1.9935 0.9732
1.1518 -6.3839 -1.9953 0.9732
2.4888 -6.0085 -2.0004 0.9732
2.7028 -5.9183 -2.0012 0.9731
2.9135 -5.8204 -2.0020 0.9731
3.5230 -5.4820 -2.0043 0.9731
3.7178 -5.3547 -2.0050 0.9731
4.0933 -5.0795 -2.0065 0.9731
4.2734 -4.9318 -2.0072 0.9731
4.6174 -4.6174 -2.0085 0.9730
4.7807 -4.4510 -2.0091 0.9730
5.0891 -4.1010 -2.0103 0.9730
5.2336 -3.9178 -2.0108 0.9730
5.9549 -2.7195 -2.0136 0.9730
6.0493 -2.5057 -2.0139 0.9730
6.1359 -2.2886 -2.0143 0.9730
6.4864 -0.9326 -2.0156 0.9729
-5.9063 -0.4224 -1.9683 0.9753
-5.8876 -0.6330 -1.9684 0.9753
-5.8282 -1.0515 -1.9686 0.9753
-5.7874 -1.2590 -1.9687 0.9753
-5.6840 -1.6690 -1.9691 0.9753
-5.5518 -2.0707 -1.9697 0.9753
-5.4752 -2.2679 -1.9699 0.9753
-5.3013 -2.6536 -1.9706 0.9753
-5.2041 -2.8417 -1.9710 0.9753
-4.9902 -3.2070 -1.9718 0.9753
-4.7509 -3.5565 -1.9727 0.9753
-4.3469 -4.0472 -1.9743 0.9753
-4.2009 -4.2009 -1.9748 0.9753
-3.8928 -4.4926 -1.9760 0.9753
-3.7312 -4.6301 -1.9766 0.9752
-3.3936 -4.8877 -1.9779 0.9752
-2.8546 -5.2279 -1.9800 0.9752
-2.6672 -5.3283 -1.9807 0.9752
-2.2819 -5.5091 -1.9821 0.9752
-1.8846 -5.6622 -1.9837 0.9752
-1.6819 -5.7281 -1.9844 0.9751
-1.0612 -5.8821 -1.9868 0.9751
-0.6394 -5.9476 -1.9884 0.9751
-0.2137 -5.9830 -1.9900 0.9751
0.2139 -5.9879 -1.9917 0.9751
0.4276 -5.9789 -1.9925 0.9750
0.6410 -5.9623 -1.9933 0.9750
0.8537 -5.9380 -1.9941 0.9750
1.2762 -5.8667 -1.9957 0.9750
2.6947 -5.3834 -2.0011 0.9749
3.0741 -5.1812 -2.0026 0.9749
3.2582 -5.0699 -2.0033 0.9749
3.4383 -4.9521 -2.0040 0.9749
4.4206 -4.1158 -2.0077 0.9749
4.9665 -3.4483 -2.0098 0.9748
5.0876 -3.2696 -2.0103 0.9748
5.3101 -2.8995 -2.0111 0.9748
5.6726 -2.1158 -2.0125 0.9748
5.8106 -1.7062 -2.0130 0.9748
5.8684 -1.4978 -2.0132 0.9748
5.9187 -1.2875 -2.0134 0.9748
5.9614 -1.0756 -2.0136 0.9748
5.9964 -0.8621 -2.0137 0.9748
6.0431 -0.4322 -2.0139 0.9748
-5.5048 -0.1966 -1.9698 0.9769
-5.4771 -0.5889 -1.9699 0.9769
-5.4528 -0.7840 -1.9700 0.9769
-5.3837 -1.1712 -1.9703 0.9769
-5.3390 -1.3627 -1.9705 0.9769
-5.2875 -1.5525 -1.9707 0.9769
-5.1645 -1.9263 -1.9711 0.9769
-4.9312 -2.4684 -1.9720 0.9768
-4.8408 -2.6433 -1.9724 0.9768
-4.5332 -3.1475 -1.9735 0.9768
-4.2991 -3.4644 -1.9744 0.9768
-4.0430 -3.7642 -1.9754 0.9768
-3.7662 -4.0452 -1.9765 0.9768
-3.6204 -4.1782 -1.9770 0.9768
-3.4700 -4.3060 -1.9776 0.9768
-3.3151 -4.4284 -1.9782 0.9768
-3.1559 -4.5453 -1.9788 0.9768
-2.8254 -4.7619 -1.9801 0.9768
-2.4801 -4.9546 -1.9814 0.9767
-2.3025 -5.0417 -1.9821 0.9767
-1.9383 -5.1968 -1.9835 0.9767
-1.3732 -5.3800 -1.9856 0.9767
-0.3969 -5.5488 -1.9893 0.9766
-0.1986 -5.5615 -1.9901 0.9766
-0.0000 -5.5672 -1.9909 0.9766
0.1988 -5.5657 -1.9916 0.9766
0.3975 -5.5572 -1.9924 0.9766
1.7641 -5.3001 -1.9976 0.9765
2.1392 -5.1645 -1.9990 0.9765
2.5039 -5.0022 -2.0004 0.9765
2.8563 -4.8140 -2.0018 0.9765
3.1945 -4.6010 -2.0030 0.9765
3.3577 -4.4854 -2.0037 0.9765
3.8213 -4.1044 -2.0054 0.9765
3.9665 -3.9665 -2.0060 0.9765
4.3711 -3.5225 -2.0075 0.9764
4.4951 -3.3650 -2.0080 0.9764
4.6134 -3.2032 -2.0085 0.9764
4.8322 -2.8671 -2.0093 0.9764
4.9324 -2.6933 -2.0097 0.9764
5.0262 -2.5160 -2.0100 0.9764
5.1137 -2.3353 -2.0104 0.9764
5.1946 -2.1517 -2.0107 0.9764
5.4972 -1.1959 -2.0118 0.9764
5.5946 -0.6015 -2.0122 0.9764
5.6127 -0.4014 -2.0123 0.9764
5.6235 -0.2009 -2.0123 0.9764
-5.1406 -0.1836 -1.9712 0.9782
-5.1308 -0.3670 -1.9713 0.9782
-5.0920 -0.7321 -1.9714 0.9782
-4.9856 -1.2725 -1.9718 0.9782
-4.9374 -1.4498 -1.9720 0.9782
-4.8831 -1.6253 -1.9722 0.9782
-4.8225 -1.7987 -1.9724 0.9782
-4.7558 -1.9700 -1.9727 0.9782
-4.6832 -2.1387 -1.9730 0.9782
-4.4299 -2.6284 -1.9739 0.9782
-4.1260 -3.0887 -1.9751 0.9782
-3.6478 -3.6478 -1.9769 0.9781
-3.3800 -3.9008 -1.9779 0.9781
-3.2395 -4.0200 -1.9785 0.9781
-2.9461 -4.2432 -1.9796 0.9781
-2.7936 -4.3470 -1.9802 0.9781
-2.6375 -4.4453 -1.9808 0.9781
-2.4779 -4.5380 -1.9814 0.9781
-2.3151 -4.6250 -1.9820 0.9781
-2.1492 -4.7061 -1.9826 0.9781
-1.9805 -4.7814 -1.9833 0.9781
-1.8092 -4.8506 -1.9839 0.9781
-1.1020 -5.0657 -1.9866 0.9780
-0.7383 -5.1349 -1.9880 0.9780
-0.3704 -5.1782 -1.9894 0.9780
0.0000 -5.1951 -1.9909 0.9780
0.1855 -5.1936 -1.9916 0.9780
0.5559 -5.1708 -1.9930 0.9780
0.7404 -5.1495 -1.9937 0.9780
0.9240 -5.1216 -1.9944 0.9780
1.1066 -5.0871 -1.9951 0.9779
1.2879 -5.0462 -1.9958 0.9779
1.6458 -4.9448 -1.9971 0.9779
1.8218 -4.8846 -1.9978 0.9779
2.1671 -4.7453 -1.9991 0.9779
2.5017 -4.5815 -2.0004 0.9779
2.6644 -4.4907 -2.0010 0.9779
2.8239 -4.3940 -2.0016 0.9779
3.2802 -4.0705 -2.0034 0.9779
3.5642 -3.8282 -2.0045 0.9778
4.5064 -2.6738 -2.0080 0.9778
4.7688 -2.1779 -2.0090 0.9778
4.8442 -2.0065 -2.0093 0.9778
4.9134 -1.8326 -2.0096 0.9778
5.1262 -1.1152 -2.0104 0.9778
5.1934 -0.7467 -2.0107 0.9778
5.2169 -0.5609 -2.0107 0.9778
-4.8163 -0.1720 -1.9725 0.9794
-4.8072 -0.3438 -1.9725 0.9794
-4.7920 -0.5152 -1.9725 0.9794
-4.7707 -0.6859 -1.9726 0.9794
-4.7435 -0.8558 -1.9727 0.9794
-4.7102 -1.0246 -1.9729 0.9794
-4.6259 -1.3583 -1.9732 0.9794
-4.5749 -1.5227 -1.9734 0.9794
-4.5181 -1.6852 -1.9736 0.9794
-4.3138 -2.1594 -1.9744 0.9794
-4.2346 -2.3123 -1.9747 0.9794
-4.1501 -2.4624 -1.9750 0.9794
-3.7603 -3.0302 -1.9765 0.9793
-3.6505 -3.1632 -1.9769 0.9793
-3.4171 -3.4171 -1.9778 0.9793
-2.8989 -3.8725 -1.9798 0.9793
-2.4704 -4.1636 -1.9814 0.9793
-2.3209 -4.2503 -1.9820 0.9793
-2.1683 -4.3317 -1.9826 0.9793
-2.0129 -4.4077 -1.9832 0.9793
-1.8549 -4.4781 -1.9838 0.9793
-1.5316 -4.6019 -1.9850 0.9793
-1.2002 -4.7024 -1.9863 0.9792
-0.8623 -4.7792 -1.9876 0.9792
-0.1736 -4.8596 -1.9902 0.9792
0.3473 -4.8552 -1.9922 0.9792
0.5205 -4.8413 -1.9928 0.9792
0.6932 -4.8212 -1.9935 0.9792
0.8651 -4.7950 -1.9942 0.9792
1.2058 -4.7241 -1.9955 0.9791
1.3741 -4.6796 -1.9961 0.9791
1.5407 -4.6291 -1.9967 0.9791
2.0286 -4.4420 -1.9986 0.9791
2.6432 -4.1129 -2.0009 0.9791
2.7891 -4.0170 -2.0015 0.9791
3.0702 -3.8099 -2.0026 0.9791
3.3358 -3.5830 -2.0036 0.9791
3.4624 -3.4624 -2.0041 0.9791
3.7023 -3.2081 -2.0050 0.9790
4.0265 -2.7957 -2.0062 0.9790
4.4626 -2.0380 -2.0079 0.9790
4.6566 -1.5499 -2.0086 0.9790
4.8596 -0.6987 -2.0094 0.9790
4.8817 -0.5249 -2.0095 0.9790
4.8975 -0.3503 -2.0095 0.9790
4.9069 -0.1753 -2.0096 0.9790
-1.4490 -0.1036 -0.6331 0.9937
-1.4359 -0.1544 -0.6294 0.9937
-1.4180 -0.2039 -0.6244 0.9938
-1.3955 -0.2518 -0.6180 0.9938
-1.3400 -0.3420 -0.6027 0.9940
-1.3722 -0.4029 -0.6233 0.9938
-4.0531 -2.0289 -1.9754 0.9804
-3.8992 -2.3135 -1.9760 0.9804
-3.7255 -2.5867 -1.9766 0.9804
-3.5328 -2.8469 -1.9774 0.9804
-3.3221 -3.0930 -1.9782 0.9804
-2.8507 -3.5375 -1.9800 0.9804
-2.4581 -3.8248 -1.9815 0.9804
-2.0368 -4.0690 -1.9831 0.9803
-1.5915 -4.2670 -1.9848 0.9803
-1.1273 -4.4166 -1.9865 0.9803
-0.8098 -4.4885 -1.9878 0.9803
-0.4878 -4.5377 -1.9890 0.9803
-0.3257 -4.5536 -1.9896 0.9803
0.1631 -4.5666 -1.9915 0.9803
0.6509 -4.5272 -1.9933 0.9802
1.4466 -4.3463 -1.9964 0.9802
1.7540 -4.2346 -1.9975 0.9802
2.0528 -4.1010 -1.9987 0.9802
2.7520 -3.6762 -2.0014 0.9802
2.8822 -3.5766 -2.0018 0.9802
3.0087 -3.4723 -2.0023 0.9802
3.1315 -3.3634 -2.0028 0.9801
3.3649 -3.1329 -2.0037 0.9801
3.6827 -2.7569 -2.0049 0.9801
3.9584 -2.3487 -2.0060 0.9801
4.1171 -2.0609 -2.0066 0.9801
4.2548 -1.7624 -2.0071 0.9801
4.5022 -0.9794 -2.0080 0.9801
4.5346 -0.8181 -2.0081 0.9801
4.6054 -0.1645 -2.0084 0.9801
-1.2447 -0.0000 -0.5761 0.9945
-1.2424 -0.0444 -0.5755 0.9945
-3.8832 -1.7734 -1.9760 0.9814
-3.6728 -2.1792 -1.9768 0.9814
-3.5933 -2.3093 -1.9771 0.9813
-3.4205 -2.5606 -1.9778 0.9813
-3.3275 -2.6815 -1.9781 0.9813
-3.1290 -2.9132 -1.9789 0.9813
-2.9144 -3.1303 -1.9797 0.9813
-2.5648 -3.4262 -1.9811 0.9813
-2.1855 -3.6834 -1.9825 0.9813
-1.7806 -3.8989 -1.9841 0.9813
-1.4987 -4.0182 -1.9851 0.9813
-1.2089 -4.1172 -1.9862 0.9813
-1.0615 -4.1589 -1.9868 0.9813
-0.9126 -4.1953 -1.9874 0.9813
-0.6114 -4.2522 -1.9885 0.9812
-0.4593 -4.2725 -1.9891 0.9812
-0.3066 -4.2875 -1.9897 0.9812
0.4602 -4.2801 -1.9926 0.9812
0.6128 -4.2622 -1.9932 0.9812
1.5074 -4.0414 -1.9966 0.9812
2.0694 -3.7898 -1.9987 0.9811
2.2039 -3.7145 -1.9993 0.9811
2.3357 -3.6344 -1.9998 0.9811
2.7127 -3.3663 -2.0012 0.9811
2.8318 -3.2681 -2.0017 0.9811
2.9473 -3.1656 -2.0021 0.9811
3.3705 -2.7161 -2.0037 0.9811
3.7253 -2.2103 -2.0051 0.9811
3.8024 -2.0763 -2.0054 0.9811
3.9418 -1.8002 -2.0059 0.9811
4.1130 -1.3690 -2.0065 0.9811
4.2368 -0.9217 -2.0070 0.9811
4.2672 -0.7699 -2.0071 0.9811
4.2922 -0.6171 -2.0072 0.9811
4.3256 -0.3094 -2.0073 0.9811
4.3339 -0.1548 -2.0074 0.9811
-1.0769 -0.0770 -0.5296 0.9952
-1.0611 -0.1526 -0.5258 0.9952
-1.0518 -0.1898 -0.5242 0.9952
-1.0422 -0.2267 -0.5232 0.9953
-1.0175 -0.2988 -0.5202 0.9953
-1.0444 -0.4770 -0.5632 0.9949
-1.0588 -0.5300 -0.5808 0.9947
-3.3921 -2.1800 -1.9779 0.9822
-3.3127 -2.3000 -1.9782 0.9822
-3.1412 -2.5313 -1.9789 0.9822
-2.9537 -2.7500 -1.9796 0.9822
-2.8542 -2.8542 -1.9800 0.9822
-2.7510 -2.9548 -1.9803 0.9822
-2.4209 -3.2340 -1.9816 0.9822
-2.3045 -3.3191 -1.9821 0.9822
-2.0628 -3.4767 -1.9830 0.9822
-1.9379 -3.5489 -1.9835 0.9821
-1.8104 -3.6167 -1.9839 0.9821
-1.6806 -3.6800 -1.9844 0.9821
-1.4145 -3.7924 -1.9854 0.9821
-1.0018 -3.9250 -1.9870 0.9821
-0.8613 -3.9593 -1.9876 0.9821
-0.5770 -4.0129 -1.9886 0.9821
0.1449 -4.0572 -1.9914 0.9821
0.2897 -4.0505 -1.9920 0.9821
0.4342 -4.0387 -1.9925 0.9821
0.7216 -3.9997 -1.9936 0.9821
0.8642 -3.9725 -1.9941 0.9821
1.0057 -3.9401 -1.9947 0.9820
1.2849 -3.8604 -1.9958 0.9820
1.5578 -3.7609 -1.9968 0.9820
1.6915 -3.7038 -1.9973 0.9820
1.8231 -3.6420 -1.9978 0.9820
2.2035 -3.4288 -1.9993 0.9820
2.4436 -3.2643 -2.0002 0.9820
2.5591 -3.1757 -2.0006 0.9820
2.7804 -2.9863 -2.0015 0.9820
2.8857 -2.8858 -2.0019 0.9820
2.9875 -2.7815 -2.0022 0.9820
3.1795 -2.5622 -2.0030 0.9820
3.2694 -2.4475 -2.0033 0.9820
3.5140 -2.0850 -2.0043 0.9820
3.7182 -1.6980 -2.0050 0.9820
3.8306 -1.4288 -2.0055 0.9819
3.9235 -1.1521 -2.0058 0.9819
3.9624 -1.0114 -2.0060 0.9819
4.0799 -0.2918 -2.0064 0.9819
-0.9895 -0.0000 -0.5133 0.9956
-0.9838 -0.1058 -0.5133 0.9956
-0.9785 -0.1407 -0.5129 0.9956
-0.9715 -0.1753 -0.5121 0.9956
-0.9628 -0.2095 -0.5112 0.9956
-0.9524 -0.2431 -0.5099 0.9956
-0.9268 -0.3085 -0.5067 0.9956
-0.9208 -0.3434 -0.5098 0.9956
-0.9416 -0.4713 -0.5463 0.9953
-3.2085 -2.0620 -1.9786 0.9830
-3.1333 -2.1755 -1.9789 0.9830
-3.0541 -2.2863 -1.9792 0.9830
-2.7936 -2.6010 -1.9802 0.9829
-2.6995 -2.6995 -1.9805 0.9829
-2.6019 -2.7947 -1.9809 0.9829
-2.5010 -2.8863 -1.9813 0.9829
-2.1795 -3.1391 -1.9825 0.9829
-2.0665 -3.2156 -1.9830 0.9829
-1.8327 -3.3563 -1.9839 0.9829
-1.7121 -3.4204 -1.9843 0.9829
-1.3377 -3.5864 -1.9857 0.9829
-1.2091 -3.6328 -1.9862 0.9829
-1.0789 -3.6745 -1.9867 0.9829
-0.9473 -3.7116 -1.9872 0.9829
-0.8145 -3.7440 -1.9877 0.9829
-0.5456 -3.7945 -1.9888 0.9829
-0.4099 -3.8126 -1.9893 0.9829
-0.2736 -3.8258 -1.9898 0.9829
-0.1369 -3.8341 -1.9903 0.9829
0.2739 -3.8298 -1.9919 0.9828
0.4105 -3.8186 -1.9924 0.9828
0.5467 -3.8025 -1.9929 0.9828
0.8170 -3.7557 -1.9940 0.9828
0.9508 -3.7251 -1.9945 0.9828
1.0834 -3.6898 -1.9950 0.9828
1.4727 -3.5555 -1.9965 0.9828
1.5991 -3.5015 -1.9970 0.9828
1.9656 -3.3128 -1.9983 0.9828
2.0830 -3.2413 -1.9988 0.9828
2.1979 -3.1655 -1.9992 0.9828
2.3099 -3.0857 -1.9997 0.9828
2.4191 -3.0020 -2.0001 0.9828
2.5252 -2.9143 -2.0005 0.9828
2.7277 -2.7278 -2.0013 0.9828
3.0053 -2.4218 -2.0023 0.9828
3.0903 -2.3134 -2.0026 0.9828
3.1714 -2.2020 -2.0029 0.9828
3.2485 -2.0877 -2.0032 0.9827
3.3900 -1.8511 -2.0038 0.9827
3.5143 -1.6049 -2.0043 0.9827
3.5697 -1.4786 -2.0045 0.9827
3.6205 -1.3504 -2.0047 0.9827
3.6668 -1.2204 -2.0048 0.9827
3.8041 -0.6864 -2.0054 0.9827
3.8561 -0.2758 -2.0056 0.9827
3.8635 -0.1380 -2.0056 0.9827
-0.9182 -0.0000 -0.5029 0.9958
-0.9179 -0.0328 -0.5031 0.9958
-0.9161 -0.0655 -0.5030 0.9958
-0.9011 -0.1626 -0.5015 0.9958
-0.8932 -0.1943 -0.5006 0.9958
-0.8837 -0.2256 -0.4995 0.9958
-0.8727 -0.2563 -0.4982 0.9959
-0.8603 -0.2863 -0.4966 0.9959
-0.8465 -0.3157 -0.4948 0.9959
-0.8479 -0.3512 -0.5027 0.9958
-0.8507 -0.4645 -0.5309 0.9956
-0.8524 -0.5058 -0.5428 0.9955
-3.0400 -1.9537 -1.9792 0.9837
-2.9688 -2.0613 -1.9795 0.9837
-2.8150 -2.2685 -1.9801 0.9836
-2.6469 -2.4643 -1.9807 0.9836
-2.1693 -2.8978 -1.9826 0.9836
-2.0649 -2.9740 -1.9830 0.9836
-1.6220 -3.2403 -1.9847 0.9836
-1.5056 -3.2969 -1.9851 0.9836
-1.2672 -3.3975 -1.9860 0.9836
-1.1454 -3.4413 -1.9865 0.9836
-0.7715 -3.5466 -1.9879 0.9836
-0.5168 -3.5944 -1.9889 0.9836
-0.3883 -3.6114 -1.9894 0.9836
-0.2592 -3.6238 -1.9899 0.9836
0.0000 -3.6349 -1.9908 0.9836
0.1298 -3.6335 -1.9913 0.9836
0.2594 -3.6275 -1.9918 0.9836
0.3888 -3.6168 -1.9923 0.9835
0.9005 -3.5281 -1.9943 0.9835
1.1504 -3.4565 -1.9952 0.9835
1.2734 -3.4140 -1.9957 0.9835
1.3947 -3.3672 -1.9962 0.9835
1.6321 -3.2606 -1.9971 0.9835
1.9726 -3.0694 -1.9984 0.9835
2.0813 -2.9977 -1.9988 0.9835
2.1874 -2.9221 -1.9992 0.9835
2.2908 -2.8427 -1.9996 0.9835
2.4887 -2.6731 -2.0003 0.9835
2.6740 -2.4896 -2.0010 0.9835
2.8457 -2.2932 -2.0017 0.9835
2.9262 -2.1905 -2.0020 0.9835
3.0759 -1.9768 -2.0026 0.9835
3.1449 -1.8660 -2.0028 0.9835
3.3275 -1.5196 -2.0035 0.9835
3.4281 -1.2786 -2.0039 0.9835
3.4718 -1.1556 -2.0041 0.9835
3.5111 -1.0310 -2.0042 0.9834
3.5459 -0.9051 -2.0044 0.9834
3.5762 -0.7779 -2.0045 0.9834
3.6018 -0.6498 -2.0046 0.9834
3.6229 -0.5209 -2.0047 0.9834
3.6393 -0.3913 -2.0047 0.9834
3.6510 -0.2611 -2.0048 0.9834
-0.8550 -0.0000 -0.4936 0.9961
-0.8548 -0.0305 -0.4938 0.9961
-0.8499 -0.0914 -0.4935 0.9961
-0.8453 -0.1215 -0.4930 0.9961
-0.8128 -0.2387 -0.4891 0.9961
-0.7887 -0.2942 -0.4860 0.9961
-0.7796 -0.3229 -0.4872 0.9961
-0.7809 -0.3566 -0.4957 0.9960
-2.4269 -2.4269 -1.9816 0.9843
-2.1547 -2.6739 -1.9826 0.9843
-2.0583 -2.7496 -1.9830 0.9843
-1.9592 -2.8218 -1.9834 0.9843
-1.7536 -2.9556 -1.9842 0.9843
-1.6473 -3.0169 -1.9846 0.9842
-1.5389 -3.0744 -1.9850 0.9842
-1.4285 -3.1280 -1.9854 0.9842
-1.2023 -3.2234 -1.9863 0.9842
-0.9697 -3.3024 -1.9871 0.9842
-0.3683 -3.4261 -1.9894 0.9842
-0.2459 -3.4379 -1.9899 0.9842
0.1231 -3.4469 -1.9913 0.9842
0.2461 -3.4411 -1.9918 0.9842
0.6130 -3.3975 -1.9932 0.9842
0.7340 -3.3742 -1.9936 0.9842
0.8542 -3.3466 -1.9941 0.9842
1.0912 -3.2786 -1.9950 0.9842
1.3229 -3.1938 -1.9959 0.9842
1.5481 -3.0927 -1.9968 0.9842
1.9741 -2.8432 -1.9984 0.9841
2.0747 -2.7714 -1.9988 0.9841
2.2679 -2.6174 -1.9995 0.9841
2.3603 -2.5352 -1.9999 0.9841
2.5360 -2.3611 -2.0005 0.9841
2.6988 -2.1749 -2.0011 0.9841
2.8479 -1.9774 -2.0017 0.9841
2.9171 -1.8747 -2.0020 0.9841
2.9825 -1.7696 -2.0022 0.9841
3.0441 -1.6622 -2.0025 0.9841
3.2053 -1.3277 -2.0031 0.9841
3.3297 -0.9777 -2.0035 0.9841
3.3627 -0.8583 -2.0037 0.9841
3.4356 -0.4940 -2.0039 0.9841
3.4512 -0.3710 -2.0040 0.9841
3.4623 -0.2476 -2.0041 0.9841
