ply
format ascii 1.0
element vertex 776
property float32 x
property float32 y
property float32 z
property float32 I
end_header
2.3375 7.9607 0.8909 0.9672
1.7307 7.9561 0.8743 0.9678
1.1450 7.9635 0.8639 0.9682
3.3971 8.2013 0.7515 0.9650
3.0699 8.2306 0.7436 0.9654
2.4180 8.2348 0.7265 0.9661
2.1023 8.2368 0.7196 0.9665
1.7922 8.2388 0.7137 0.9667
1.4868 8.2407 0.7089 0.9669
1.3733 9.5512 0.8169 0.9620
2.4262 9.5057 0.6083 0.9614
1.3418 9.3324 0.5847 0.9629
2.4262 9.5057 0.3868 0.9615
2.0791 9.5576 0.3857 0.9616
1.7248 9.5598 0.3830 0.9619
1.3425 9.3371 0.3720 0.9629
2.8050 9.5530 0.1682 0.9610
1.3541 9.4179 0.1607 0.9627
4.6092 8.4412 -0.0541 0.9623
2.8050 9.5529 -0.0561 0.9610
2.0791 9.5576 -0.0551 0.9616
4.6089 8.4405 -0.2708 0.9622
2.8050 9.5529 -0.2803 0.9609
2.4262 9.5057 -0.2762 0.9615
2.8050 9.5529 -0.5049 0.9609
2.0791 9.5576 -0.4960 0.9616
1.3540 9.4170 -0.4825 0.9626
4.6082 8.4393 -0.7050 0.9622
2.8050 9.5529 -0.7300 0.9609
2.4262 9.5057 -0.7193 0.9614
1.7248 9.5598 -0.7123 0.9618
1.3539 9.4167 -0.6975 0.9626
-0.3211 8.9915 -0.6597 0.9646
2.4262 9.5057 -0.9419 0.9613
2.0791 9.5575 -0.9390 0.9615
1.7248 9.5598 -0.9326 0.9617
1.3539 9.4164 -0.9133 0.9625
-0.6511 9.1031 -0.8762 0.9640
4.6076 8.4381 -1.1420 0.9620
1.7248 9.5598 -1.1539 0.9616
1.3538 9.4161 -1.1300 0.9624
2.9993 9.0114 -1.3457 0.9624
2.6499 9.0246 -1.3327 0.9627
2.3074 9.0401 -1.3220 0.9630
1.6385 9.0816 -1.3075 0.9634
1.3716 9.5397 -1.3656 0.9618
-0.3212 8.9920 -1.2749 0.9643
-0.3212 8.9925 -1.4824 0.9642
-0.6444 9.0096 -1.4880 0.9640
4.7098 8.6253 -1.8472 0.9608
3.7579 9.0724 -1.8457 0.9608
3.4308 9.1983 -1.8453 0.9608
2.7644 9.4145 -1.8443 0.9609
2.4259 9.5045 -1.8437 0.9609
2.0845 9.5824 -1.8432 0.9609
1.7407 9.6480 -1.8427 0.9609
-0.3212 8.9932 -1.6914 0.9640
-0.6444 9.0102 -1.6979 0.9639
-1.0456 9.7254 -1.8385 0.9610
-1.3916 9.6791 -1.8380 0.9610
-1.7357 9.6206 -1.8375 0.9610
-2.4163 9.4670 -1.8365 0.9610
-2.7519 9.3721 -1.8360 0.9610
-3.0838 9.2654 -1.8355 0.9610
-3.4116 9.1470 -1.8350 0.9610
-3.7349 9.0169 -1.8345 0.9611
-4.0533 8.8756 -1.8340 0.9611
-4.0768 8.1443 -1.7119 0.9636
-4.6738 8.5594 -1.8331 0.9611
-4.9751 8.3851 -1.8326 0.9611
-5.5579 8.0049 -1.8317 0.9611
-5.8387 7.7996 -1.8313 0.9611
9.4923 -0.0000 -2.0065 0.9619
9.4376 1.0146 -2.0064 0.9619
9.3405 1.6852 -2.0063 0.9619
9.1053 2.6736 -2.0059 0.9619
9.0034 2.9966 -2.0058 0.9619
8.7651 3.6306 -2.0054 0.9620
8.6291 3.9408 -2.0052 0.9620
8.4820 4.2458 -2.0050 0.9620
7.9766 5.1262 -2.0043 0.9620
7.7874 5.4069 -2.0040 0.9620
7.3796 5.9469 -2.0034 0.9620
7.1615 6.2055 -2.0030 0.9620
6.9343 6.4560 -2.0027 0.9620
5.9345 7.3643 -1.9992 0.9621
5.6574 7.5574 -1.9955 0.9621
4.9528 7.7067 -1.9364 0.9632
4.5772 7.7144 -1.8961 0.9640
4.2161 7.7213 -1.8596 0.9647
3.9090 7.8092 -1.8460 0.9649
3.0497 8.1766 -1.8447 0.9650
2.7553 8.2782 -1.8442 0.9650
1.8532 8.5191 -1.8429 0.9650
1.5476 8.5777 -1.8424 0.9650
1.2401 8.6253 -1.8420 0.9650
0.9312 8.6618 -1.8415 0.9650
0.6213 8.6874 -1.8410 0.9650
0.0000 8.7051 -1.8401 0.9650
-0.6207 8.6785 -1.8392 0.9651
-1.2376 8.6078 -1.8382 0.9651
-1.5437 8.5560 -1.8378 0.9651
-1.8476 8.4933 -1.8373 0.9651
-2.1490 8.4199 -1.8369 0.9651
-2.4476 8.3358 -1.8364 0.9651
-3.0346 8.1360 -1.8355 0.9651
-3.6056 7.8951 -1.8347 0.9651
-4.2183 7.7253 -1.8606 0.9647
-4.5797 7.7187 -1.8971 0.9640
-4.9558 7.7114 -1.9376 0.9632
-5.3341 7.6826 -1.9770 0.9625
-5.6127 7.4976 -1.9797 0.9624
-5.8852 7.3032 -1.9826 0.9624
-6.1435 7.0900 -1.9830 0.9624
-6.3914 6.8649 -1.9827 0.9624
-6.6312 6.6311 -1.9823 0.9624
-6.8624 6.3891 -1.9819 0.9624
-7.5024 5.6162 -1.9810 0.9624
-7.6969 5.3440 -1.9807 0.9624
-7.8816 5.0652 -1.9804 0.9624
-8.2207 4.4888 -1.9799 0.9624
-8.3747 4.1921 -1.9796 0.9624
-8.5181 3.8901 -1.9794 0.9624
-8.6506 3.5832 -1.9792 0.9624
-8.8826 2.9564 -1.9789 0.9624
-9.2105 1.6618 -1.9784 0.9625
-9.2636 1.3319 -1.9783 0.9625
-9.3049 1.0004 -1.9782 0.9625
-9.3345 0.6676 -1.9782 0.9625
-9.3522 0.3340 -1.9781 0.9625
8.5312 -0.0000 -2.0050 0.9656
8.5258 0.3045 -2.0050 0.9656
8.5094 0.6086 -2.0050 0.9656
8.3351 1.8132 -2.0048 0.9656
7.6238 3.8162 -2.0037 0.9656
7.3305 4.3494 -2.0033 0.9656
7.1698 4.6077 -2.0030 0.9656
6.9998 4.8601 -2.0028 0.9656
6.8210 5.1061 -2.0025 0.9656
6.2334 5.8035 -2.0016 0.9656
5.5746 6.4334 -2.0007 0.9656
4.8523 6.9886 -1.9996 0.9656
4.5989 7.1560 -1.9992 0.9657
4.0680 7.4501 -1.9950 0.9657
3.7946 7.5806 -1.9923 0.9658
3.1908 7.7033 -1.9596 0.9663
2.8750 7.7083 -1.9335 0.9668
2.5670 7.7127 -1.9104 0.9672
2.2658 7.7166 -1.8901 0.9675
1.9704 7.7200 -1.8725 0.9678
1.6800 7.7229 -1.8575 0.9680
1.1153 7.7567 -1.8418 0.9683
0.8375 7.7898 -1.8413 0.9683
0.2795 7.8262 -1.8405 0.9683
-0.0000 7.8294 -1.8401 0.9683
-0.2794 7.8226 -1.8397 0.9683
-1.3941 7.7267 -1.8453 0.9683
-1.9709 7.7219 -1.8730 0.9678
-2.5678 7.7151 -1.9110 0.9671
-3.4999 7.6636 -1.9801 0.9660
-3.7744 7.5402 -1.9817 0.9659
-4.3110 7.2658 -1.9856 0.9659
-4.5672 7.1067 -1.9854 0.9659
-5.2977 6.5741 -1.9843 0.9659
-5.5280 6.3796 -1.9839 0.9659
-5.7512 6.1772 -1.9836 0.9659
-5.9671 5.9670 -1.9833 0.9659
-6.3755 5.5244 -1.9827 0.9659
-6.7515 5.0541 -1.9821 0.9659
-6.9266 4.8092 -1.9818 0.9659
-7.0929 4.5584 -1.9816 0.9659
-7.2503 4.3018 -1.9813 0.9660
-7.3983 4.0398 -1.9811 0.9660
-7.7855 3.2248 -1.9805 0.9660
-8.0837 2.3736 -1.9801 0.9660
-8.1628 2.0834 -1.9799 0.9660
-8.2315 1.7907 -1.9798 0.9660
-8.2898 1.4956 -1.9797 0.9660
-8.3748 0.9004 -1.9796 0.9660
7.7393 -0.0000 -2.0038 0.9685
7.5509 1.6425 -2.0008 0.9686
7.4976 1.9136 -2.0035 0.9685
7.2488 2.7037 -2.0031 0.9685
7.1471 2.9604 -2.0030 0.9685
6.9165 3.4621 -2.0026 0.9685
6.5048 4.1804 -2.0020 0.9686
6.3507 4.4094 -2.0018 0.9686
6.1886 4.6327 -2.0016 0.9686
6.0185 4.8500 -2.0013 0.9686
5.8408 5.0611 -2.0010 0.9686
5.4633 5.4633 -2.0005 0.9686
4.8458 6.0132 -1.9996 0.9686
4.6273 6.1814 -1.9992 0.9686
3.4532 6.8987 -1.9975 0.9686
2.9512 7.1247 -1.9967 0.9686
1.9024 7.4534 -1.9917 0.9687
1.6340 7.5113 -1.9903 0.9687
1.3640 7.5602 -1.9891 0.9688
0.8204 7.6305 -1.9871 0.9688
0.0000 7.6674 -1.9852 0.9688
-0.2736 7.6613 -1.9849 0.9688
-0.8194 7.6217 -1.9848 0.9688
-1.6302 7.4940 -1.9857 0.9688
-4.1470 6.4528 -1.9860 0.9688
-5.0198 5.7931 -1.9847 0.9688
-6.1313 4.5898 -1.9830 0.9688
-6.5845 3.9067 -1.9823 0.9689
-6.8450 3.4263 -1.9819 0.9689
-6.9623 3.1796 -1.9818 0.9689
-7.2606 2.4166 -1.9813 0.9689
-7.4137 1.8922 -1.9811 0.9689
-7.4761 1.6263 -1.9810 0.9689
-7.5725 1.0888 -1.9808 0.9689
-7.6063 0.8178 -1.9808 0.9689
-7.6305 0.5457 -1.9807 0.9689
7.0749 -0.0000 -2.0028 0.9710
7.0568 0.5047 -2.0028 0.9710
7.0341 0.7562 -2.0028 0.9710
6.8540 1.7494 -2.0025 0.9710
6.7869 1.9928 -2.0024 0.9710
6.5338 2.7064 -2.0021 0.9710
6.3231 3.1651 -2.0017 0.9710
6.2055 3.3885 -2.0016 0.9710
5.9468 3.8218 -2.0012 0.9710
5.3400 4.6271 -2.0003 0.9711
4.8129 5.1694 -1.9995 0.9711
4.6247 5.3371 -1.9992 0.9711
4.0258 5.7983 -1.9983 0.9711
2.9300 6.4157 -1.9967 0.9711
2.6986 6.5151 -1.9963 0.9711
2.4639 6.6061 -1.9960 0.9711
2.2262 6.6886 -1.9956 0.9711
1.7427 6.8279 -1.9949 0.9711
1.4976 6.8845 -1.9945 0.9711
1.2507 6.9322 -1.9942 0.9711
1.0023 6.9711 -1.9938 0.9711
0.5022 7.0222 -1.9930 0.9712
0.0000 7.0375 -1.9923 0.9712
-0.2511 7.0317 -1.9919 0.9712
-0.5019 7.0169 -1.9915 0.9712
-1.0008 6.9606 -1.9908 0.9712
-1.2483 6.9192 -1.9904 0.9712
-1.4942 6.8689 -1.9900 0.9712
-1.7381 6.8099 -1.9897 0.9712
-1.9797 6.7423 -1.9893 0.9712
-2.9170 6.3874 -1.9879 0.9712
-3.1426 6.2782 -1.9875 0.9712
-3.5813 6.0360 -1.9869 0.9712
-4.0015 5.7633 -1.9862 0.9713
-4.2040 5.6159 -1.9859 0.9713
-4.7781 5.1321 -1.9851 0.9713
-4.9576 4.9576 -1.9848 0.9713
-5.1307 4.7769 -1.9845 0.9713
-5.2973 4.5901 -1.9843 0.9713
-5.6099 4.1995 -1.9838 0.9713
-5.8939 3.7878 -1.9834 0.9713
-6.2632 3.1351 -1.9828 0.9713
-6.6437 2.2112 -1.9822 0.9713
-6.7180 1.9726 -1.9821 0.9713
-6.7838 1.7315 -1.9820 0.9713
-6.8410 1.4882 -1.9819 0.9713
-6.8895 1.2430 -1.9818 0.9713
-6.9292 0.9963 -1.9818 0.9713
-6.9956 0.2499 -1.9817 0.9713
6.1743 2.0550 -2.0015 0.9731
6.0967 2.2739 -2.0014 0.9731
6.0113 2.4899 -2.0013 0.9731
5.9181 2.7027 -2.0011 0.9731
5.8175 2.9120 -2.0010 0.9731
5.3419 3.7090 -2.0003 0.9732
5.0627 4.0798 -1.9999 0.9732
4.9133 4.2574 -1.9996 0.9732
4.7577 4.4295 -1.9994 0.9732
4.5960 4.5960 -1.9992 0.9732
4.4284 4.7565 -1.9989 0.9732
4.0768 5.0589 -1.9984 0.9732
3.8931 5.2005 -1.9981 0.9732
3.3134 5.5845 -1.9972 0.9732
3.1115 5.6983 -1.9969 0.9732
2.9057 5.8048 -1.9966 0.9732
2.6962 5.9039 -1.9963 0.9732
2.4834 5.9954 -1.9960 0.9732
1.8274 6.2234 -1.9950 0.9732
1.6038 6.2836 -1.9947 0.9732
1.3783 6.3358 -1.9943 0.9732
1.1511 6.3799 -1.9940 0.9732
0.9225 6.4158 -1.9937 0.9732
0.2312 6.4743 -1.9926 0.9733
0.0000 6.4773 -1.9923 0.9733
-0.4619 6.4585 -1.9916 0.9733
-0.6920 6.4368 -1.9912 0.9733
-0.9212 6.4069 -1.9909 0.9733
-1.1491 6.3688 -1.9905 0.9733
-1.5999 6.2685 -1.9899 0.9733
-2.0424 6.1363 -1.9892 0.9733
-2.2597 6.0585 -1.9889 0.9733
-2.6853 5.8800 -1.9882 0.9733
-3.0969 5.6716 -1.9876 0.9733
-3.2969 5.5566 -1.9873 0.9733
-3.4926 5.4346 -1.9870 0.9733
-3.6838 5.3057 -1.9867 0.9733
-3.8703 5.1701 -1.9864 0.9733
-4.3990 4.7249 -1.9856 0.9733
-4.5643 4.5643 -1.9854 0.9733
-4.7237 4.3979 -1.9851 0.9734
-5.4266 3.4875 -1.9841 0.9734
-5.8657 2.6788 -1.9834 0.9734
-5.9572 2.4675 -1.9833 0.9734
-6.1173 2.0360 -1.9830 0.9734
-6.2463 1.5943 -1.9828 0.9734
-6.3803 0.9173 -1.9826 0.9734
-6.4414 0.2301 -1.9825 0.9734
6.0167 0.2149 -2.0013 0.9749
6.0051 0.4295 -2.0012 0.9749
5.9859 0.6435 -2.0012 0.9749
5.7756 1.6959 -2.0009 0.9749
5.7112 1.9008 -2.0008 0.9749
5.6394 2.1034 -2.0007 0.9749
5.5604 2.3032 -2.0006 0.9749
5.4743 2.5000 -2.0005 0.9750
5.3812 2.6936 -2.0003 0.9750
5.1745 3.0702 -2.0000 0.9750
5.0612 3.2526 -1.9998 0.9750
4.9415 3.4309 -1.9997 0.9750
4.8154 3.6048 -1.9995 0.9750
4.5451 3.9383 -1.9991 0.9750
3.6015 4.8110 -1.9977 0.9750
3.4270 4.9359 -1.9974 0.9750
3.2482 5.0544 -1.9971 0.9750
3.0654 5.1664 -1.9969 0.9750
2.8786 5.2717 -1.9966 0.9750
2.4945 5.4621 -1.9960 0.9750
2.2976 5.5468 -1.9957 0.9750
1.0650 5.9030 -1.9939 0.9750
0.6410 5.9620 -1.9932 0.9750
-0.4274 5.9763 -1.9916 0.9751
-1.2728 5.8509 -1.9903 0.9751
-1.4806 5.8008 -1.9900 0.9751
-1.6864 5.7434 -1.9897 0.9751
-1.8900 5.6786 -1.9894 0.9751
-2.4851 5.4416 -1.9885 0.9751
-2.6773 5.3486 -1.9882 0.9751
-3.0512 5.1426 -1.9877 0.9751
-3.4094 4.9104 -1.9871 0.9751
-3.5820 4.7850 -1.9869 0.9751
-3.7500 4.6535 -1.9866 0.9751
-4.0715 4.3731 -1.9861 0.9751
-4.3721 4.0705 -1.9857 0.9751
-4.5141 3.9115 -1.9854 0.9751
-4.7806 3.5787 -1.9850 0.9751
-5.1344 3.0464 -1.9845 0.9751
-5.3378 2.6719 -1.9842 0.9752
-5.4294 2.4795 -1.9841 0.9752
-5.5917 2.0856 -1.9838 0.9752
-5.8719 1.0594 -1.9834 0.9752
-5.9058 0.8491 -1.9833 0.9752
5.5944 -0.0000 -2.0006 0.9765
5.5909 0.1997 -2.0006 0.9765
5.5623 0.5980 -2.0006 0.9765
5.5052 0.9932 -2.0005 0.9765
5.4200 1.3834 -2.0004 0.9765
5.2404 1.9545 -2.0001 0.9765
5.1670 2.1402 -2.0000 0.9765
5.0870 2.3231 -1.9999 0.9765
5.0005 2.5031 -1.9997 0.9765
4.7033 3.0226 -1.9993 0.9765
4.5920 3.1883 -1.9991 0.9765
4.4749 3.3498 -1.9990 0.9765
4.2237 3.6599 -1.9986 0.9765
3.9511 3.9511 -1.9982 0.9765
3.6583 4.2219 -1.9977 0.9765
3.3470 4.4711 -1.9973 0.9766
2.1354 5.1553 -1.9955 0.9766
1.9498 5.2275 -1.9952 0.9766
1.5714 5.3517 -1.9946 0.9766
0.9899 5.4866 -1.9937 0.9766
0.5958 5.5416 -1.9932 0.9766
0.0000 5.5711 -1.9923 0.9766
-0.3973 5.5552 -1.9917 0.9766
-0.5952 5.5367 -1.9914 0.9766
-0.7924 5.5111 -1.9911 0.9766
-1.1832 5.4389 -1.9905 0.9766
-1.5677 5.3391 -1.9899 0.9766
-1.7570 5.2790 -1.9896 0.9766
-1.9440 5.2121 -1.9893 0.9766
-2.1285 5.1387 -1.9891 0.9766
-2.6646 4.8798 -1.9882 0.9767
-2.8367 4.7809 -1.9880 0.9767
-3.0051 4.6760 -1.9877 0.9767
-3.1697 4.5652 -1.9875 0.9767
-3.3302 4.4486 -1.9872 0.9767
-3.4865 4.3264 -1.9870 0.9767
-3.6382 4.1988 -1.9868 0.9767
-3.7853 4.0657 -1.9865 0.9767
-3.9276 3.9276 -1.9863 0.9767
-4.3237 3.4842 -1.9857 0.9767
-4.4449 3.3274 -1.9855 0.9767
-4.5604 3.1663 -1.9854 0.9767
-4.6701 3.0013 -1.9852 0.9767
-4.7739 2.8325 -1.9850 0.9767
-4.8716 2.6601 -1.9849 0.9767
-4.9630 2.4843 -1.9848 0.9767
-5.0482 2.3054 -1.9846 0.9767
-5.1270 2.1237 -1.9845 0.9767
-5.2649 1.7523 -1.9843 0.9767
-5.3238 1.5632 -1.9842 0.9767
-5.3760 1.3721 -1.9841 0.9767
-5.4598 0.9851 -1.9840 0.9767
-5.4914 0.7895 -1.9839 0.9767
-5.5441 0.1980 -1.9839 0.9767
5.2191 -0.0000 -2.0001 0.9779
5.2158 0.1863 -2.0000 0.9779
5.0994 1.1093 -1.9999 0.9779
5.0069 1.4702 -1.9997 0.9779
4.8889 1.8234 -1.9996 0.9779
4.8204 1.9967 -1.9995 0.9779
4.6652 2.3352 -1.9992 0.9779
4.5785 2.5001 -1.9991 0.9779
4.3879 2.8199 -1.9988 0.9779
3.8159 3.5527 -1.9980 0.9779
3.6863 3.6863 -1.9978 0.9779
3.2701 4.0579 -1.9972 0.9779
3.1228 4.1716 -1.9969 0.9779
2.9716 4.2799 -1.9967 0.9779
2.8166 4.3827 -1.9965 0.9779
2.1632 4.7366 -1.9955 0.9779
1.9925 4.8102 -1.9952 0.9779
1.4663 4.9937 -1.9945 0.9780
1.2869 5.0421 -1.9942 0.9780
1.1060 5.0842 -1.9939 0.9780
0.9237 5.1197 -1.9936 0.9780
0.5560 5.1711 -1.9931 0.9780
0.0000 5.1988 -1.9923 0.9780
-0.3708 5.1841 -1.9917 0.9780
-0.5555 5.1668 -1.9914 0.9780
-0.7394 5.1429 -1.9911 0.9780
-1.2844 5.0324 -1.9903 0.9780
-1.4630 4.9826 -1.9901 0.9780
-1.6397 4.9266 -1.9898 0.9780
-1.8143 4.8643 -1.9895 0.9780
-1.9865 4.7958 -1.9893 0.9780
-2.1561 4.7212 -1.9890 0.9780
-2.3230 4.6407 -1.9888 0.9780
-3.1082 4.1520 -1.9876 0.9780
-3.2540 4.0380 -1.9873 0.9780
-3.3957 3.9189 -1.9871 0.9780
-4.0356 3.2521 -1.9862 0.9780
-4.6325 2.3189 -1.9853 0.9781
-4.7856 1.9822 -1.9850 0.9781
-4.8530 1.8101 -1.9849 0.9781
-4.9693 1.4591 -1.9847 0.9781
-5.0181 1.2808 -1.9847 0.9781
-5.1487 0.5535 -1.9845 0.9781
-5.1750 0.1848 -1.9844 0.9781
4.8856 -0.0000 -1.9995 0.9791
4.8731 0.3485 -1.9995 0.9791
4.8357 0.6953 -1.9995 0.9791
4.8077 0.8674 -1.9994 0.9791
4.7736 1.0384 -1.9994 0.9791
4.6870 1.3762 -1.9993 0.9791
4.6347 1.5426 -1.9992 0.9791
4.5125 1.8691 -1.9990 0.9791
4.3672 2.1860 -1.9988 0.9791
4.2861 2.3404 -1.9987 0.9791
4.1996 2.4917 -1.9985 0.9791
3.9083 2.9257 -1.9981 0.9791
3.5723 3.3259 -1.9976 0.9791
3.4510 3.4510 -1.9974 0.9791
3.3253 3.5716 -1.9972 0.9791
3.1954 3.6876 -1.9970 0.9791
3.0614 3.7990 -1.9968 0.9791
2.9236 3.9054 -1.9966 0.9791
2.6369 4.1031 -1.9962 0.9791
1.7033 4.5667 -1.9948 0.9792
1.2049 4.7208 -1.9941 0.9792
0.5205 4.8417 -1.9930 0.9792
0.3474 4.8566 -1.9928 0.9792
-0.3472 4.8541 -1.9917 0.9792
-0.6924 4.8157 -1.9912 0.9792
-0.8637 4.7873 -1.9910 0.9792
-1.2027 4.7123 -1.9904 0.9792
-1.5354 4.6133 -1.9899 0.9792
-1.6989 4.5550 -1.9897 0.9792
-2.0190 4.4211 -1.9892 0.9792
-2.3288 4.2648 -1.9887 0.9792
-2.6265 4.0869 -1.9883 0.9792
-2.7704 3.9901 -1.9881 0.9792
-2.9107 3.8882 -1.9879 0.9792
-3.0473 3.7815 -1.9877 0.9792
-3.1800 3.6699 -1.9875 0.9792
-3.3087 3.5537 -1.9873 0.9792
-3.4331 3.4331 -1.9871 0.9792
-3.6686 3.1788 -1.9867 0.9792
-3.8854 2.9085 -1.9864 0.9792
-3.9864 2.7678 -1.9862 0.9792
-4.0823 2.6236 -1.9861 0.9792
-4.1731 2.4760 -1.9859 0.9792
-4.2585 2.3253 -1.9858 0.9792
-4.3385 2.1717 -1.9857 0.9792
-4.6025 1.5319 -1.9853 0.9793
-4.6541 1.3666 -1.9852 0.9793
-4.8006 0.6902 -1.9850 0.9793
-4.8221 0.5184 -1.9849 0.9793
-4.8375 0.3460 -1.9849 0.9793
4.5607 0.4903 -1.9991 0.9802
4.4819 0.9750 -1.9990 0.9802
4.3515 1.4483 -1.9988 0.9802
4.1004 2.0525 -1.9984 0.9802
3.9430 2.3395 -1.9982 0.9802
3.5690 2.8760 -1.9976 0.9802
3.3542 3.1228 -1.9973 0.9802
3.1223 3.3536 -1.9969 0.9802
2.6123 3.7623 -1.9962 0.9802
1.5994 4.2882 -1.9947 0.9802
1.4452 4.3421 -1.9944 0.9802
1.2891 4.3904 -1.9942 0.9802
1.1315 4.4331 -1.9939 0.9802
0.9724 4.4701 -1.9937 0.9802
0.6509 4.5270 -1.9932 0.9802
-0.6502 4.5225 -1.9913 0.9803
-0.9710 4.4635 -1.9908 0.9803
-1.1295 4.4255 -1.9905 0.9803
-2.0430 4.0814 -1.9892 0.9803
-2.1872 4.0055 -1.9890 0.9803
-2.3285 3.9244 -1.9887 0.9803
-2.4668 3.8384 -1.9885 0.9803
-2.6020 3.7476 -1.9883 0.9803
-2.7338 3.6519 -1.9881 0.9803
-2.8621 3.5517 -1.9879 0.9803
-2.9868 3.4469 -1.9877 0.9803
-3.7443 2.5997 -1.9866 0.9803
-3.8344 2.4642 -1.9865 0.9803
-3.9197 2.3257 -1.9863 0.9803
-4.1451 1.8930 -1.9860 0.9803
-4.2098 1.7438 -1.9859 0.9803
-1.5118 0.5639 -0.7032 0.9930
-1.4401 0.4793 -0.6615 0.9934
-1.3722 0.4029 -0.6233 0.9938
-1.3955 0.2518 -0.6180 0.9938
-1.4180 0.2039 -0.6244 0.9938
-1.4571 0.0520 -0.6354 0.9937
4.3179 0.0000 -1.9987 0.9811
4.3152 0.1541 -1.9987 0.9811
4.2738 0.6145 -1.9986 0.9811
4.2189 0.9178 -1.9986 0.9811
4.1834 1.0677 -1.9985 0.9811
3.9883 1.6520 -1.9982 0.9812
3.9266 1.7932 -1.9981 0.9812
3.8599 1.9321 -1.9980 0.9812
3.7883 2.0685 -1.9979 0.9812
3.4545 2.5860 -1.9974 0.9812
3.3597 2.7074 -1.9973 0.9812
2.8245 3.2596 -1.9965 0.9812
2.7061 3.3581 -1.9963 0.9812
2.5843 3.4522 -1.9961 0.9812
2.4592 3.5419 -1.9959 0.9812
2.1998 3.7076 -1.9955 0.9812
2.0659 3.7834 -1.9953 0.9812
1.6491 3.9813 -1.9947 0.9812
1.0653 4.1736 -1.9938 0.9812
0.9155 4.2085 -1.9936 0.9812
0.7646 4.2380 -1.9934 0.9812
0.6128 4.2621 -1.9932 0.9812
0.3071 4.2940 -1.9927 0.9812
-0.1536 4.3007 -1.9920 0.9812
-0.3070 4.2920 -1.9918 0.9812
-0.4599 4.2778 -1.9916 0.9812
-0.6122 4.2582 -1.9913 0.9812
-0.9142 4.2027 -1.9909 0.9812
-1.0635 4.1669 -1.9906 0.9812
-1.2115 4.1258 -1.9904 0.9812
-2.0595 3.7716 -1.9891 0.9812
-2.3228 3.6143 -1.9887 0.9812
-2.4501 3.5288 -1.9885 0.9812
-2.5742 3.4388 -1.9884 0.9812
-3.4365 2.5725 -1.9871 0.9813
-3.6108 2.3205 -1.9868 0.9813
-3.6911 2.1900 -1.9867 0.9813
-3.7667 2.0568 -1.9866 0.9813
-3.8375 1.9209 -1.9864 0.9813
-3.9034 1.7826 -1.9863 0.9813
-1.1329 0.3327 -0.5466 0.9948
-1.1575 0.2954 -0.5529 0.9947
-1.1790 0.2565 -0.5585 0.9947
-1.1974 0.2160 -0.5632 0.9947
-1.2261 0.1318 -0.5708 0.9946
-1.2362 0.0884 -0.5737 0.9946
-1.2424 0.0444 -0.5755 0.9945
3.9805 0.8659 -1.9982 0.9820
3.8163 1.4234 -1.9980 0.9820
3.7629 1.5586 -1.9979 0.9820
3.7047 1.6919 -1.9978 0.9820
3.6418 1.8229 -1.9977 0.9820
3.3446 2.3222 -1.9973 0.9820
3.2593 2.4399 -1.9971 0.9820
3.1700 2.5545 -1.9970 0.9820
3.0766 2.6658 -1.9969 0.9820
2.7733 2.9788 -1.9964 0.9820
2.6650 3.0756 -1.9962 0.9820
2.5533 3.1685 -1.9961 0.9820
2.4384 3.2573 -1.9959 0.9820
2.1994 3.4224 -1.9955 0.9820
2.0757 3.4984 -1.9954 0.9820
1.9493 3.5699 -1.9952 0.9820
1.8205 3.6368 -1.9950 0.9820
1.6893 3.6991 -1.9948 0.9820
1.5561 3.7567 -1.9946 0.9820
1.1452 3.9003 -1.9940 0.9821
0.8639 3.9712 -1.9935 0.9821
0.7215 3.9991 -1.9933 0.9821
0.5783 4.0219 -1.9931 0.9821
0.0000 4.0614 -1.9922 0.9821
-0.4340 4.0369 -1.9916 0.9821
-0.5778 4.0183 -1.9914 0.9821
-1.2814 3.8499 -1.9903 0.9821
-1.5524 3.7479 -1.9899 0.9821
-1.9436 3.5594 -1.9893 0.9821
-2.3123 3.3303 -1.9888 0.9821
-2.6544 3.0633 -1.9882 0.9821
-2.7618 2.9663 -1.9881 0.9821
-2.8657 2.8656 -1.9879 0.9821
-2.9659 2.7613 -1.9878 0.9821
-3.0623 2.6535 -1.9876 0.9821
-3.2434 2.4280 -1.9873 0.9821
-3.3278 2.3105 -1.9872 0.9821
-3.4837 2.0670 -1.9870 0.9821
-3.5551 1.9412 -1.9869 0.9821
-1.0444 0.4769 -0.5632 0.9949
-1.0290 0.4262 -0.5463 0.9951
-1.0119 0.3774 -0.5298 0.9952
-1.0025 0.3337 -0.5183 0.9953
-1.0175 0.2987 -0.5202 0.9953
-1.0422 0.2267 -0.5232 0.9953
-1.0518 0.1897 -0.5242 0.9952
-1.0611 0.1525 -0.5258 0.9952
-1.0705 0.1151 -0.5281 0.9952
-1.0803 0.0386 -0.5302 0.9952
3.8489 0.1374 -1.9980 0.9828
3.8292 0.4117 -1.9980 0.9828
3.7900 0.6838 -1.9979 0.9828
3.7631 0.8186 -1.9979 0.9828
3.6537 1.2161 -1.9977 0.9828
3.6079 1.3457 -1.9976 0.9828
3.5024 1.5995 -1.9975 0.9828
3.3791 1.8451 -1.9973 0.9828
3.3109 1.9644 -1.9972 0.9828
3.2385 2.0812 -1.9971 0.9828
3.1620 2.1954 -1.9970 0.9828
2.9086 2.5203 -1.9966 0.9828
2.8166 2.6224 -1.9965 0.9828
2.7210 2.7210 -1.9963 0.9828
2.3054 3.0796 -1.9957 0.9828
2.1938 3.1597 -1.9955 0.9828
1.9625 3.3075 -1.9952 0.9828
1.8430 3.3752 -1.9950 0.9828
1.5972 3.4974 -1.9946 0.9828
0.9504 3.7236 -1.9937 0.9828
0.8168 3.7548 -1.9935 0.9828
0.4106 3.8194 -1.9929 0.9828
0.0000 3.8402 -1.9922 0.9828
-0.1371 3.8374 -1.9920 0.9828
-0.5463 3.7996 -1.9914 0.9829
-0.8158 3.7502 -1.9910 0.9829
-1.0810 3.6817 -1.9906 0.9829
-1.3407 3.5945 -1.9902 0.9829
-1.5934 3.4890 -1.9898 0.9829
-1.8379 3.3658 -1.9895 0.9829
-2.6116 2.8051 -1.9883 0.9829
-2.7099 2.7099 -1.9882 0.9829
-2.8959 2.5093 -1.9879 0.9829
-2.9834 2.4042 -1.9877 0.9829
-3.0671 2.2960 -1.9876 0.9829
-3.1469 2.1850 -1.9875 0.9829
-3.2944 1.9547 -1.9873 0.9829
-0.9486 0.5179 -0.5607 0.9951
-0.9271 0.3840 -0.5206 0.9955
-0.9268 0.3084 -0.5067 0.9956
-0.9404 0.2761 -0.5085 0.9956
-0.9715 0.1753 -0.5121 0.9956
-0.9785 0.1407 -0.5129 0.9956
-0.9873 0.0706 -0.5135 0.9955
3.6474 -0.0000 -1.9977 0.9835
3.6451 0.1302 -1.9977 0.9835
3.6264 0.3899 -1.9977 0.9835
3.5638 0.7752 -1.9976 0.9835
3.5338 0.9019 -1.9975 0.9835
3.4993 1.0275 -1.9975 0.9835
3.4603 1.1517 -1.9974 0.9835
3.3170 1.5148 -1.9972 0.9835
3.1356 1.8604 -1.9969 0.9835
3.0671 1.9711 -1.9968 0.9835
2.9946 2.0792 -1.9967 0.9835
2.9183 2.1846 -1.9966 0.9835
2.8383 2.2872 -1.9965 0.9835
2.6676 2.4836 -1.9962 0.9835
2.5770 2.5770 -1.9961 0.9835
2.3863 2.7539 -1.9958 0.9835
2.1834 2.9167 -1.9955 0.9835
1.9695 3.0645 -1.9952 0.9835
1.8587 3.1326 -1.9950 0.9835
1.7455 3.1967 -1.9949 0.9835
1.2724 3.4114 -1.9941 0.9835
1.1497 3.4543 -1.9940 0.9835
0.9002 3.5268 -1.9936 0.9835
0.7736 3.5564 -1.9934 0.9835
0.6462 3.5814 -1.9932 0.9835
0.5179 3.6018 -1.9930 0.9835
0.2595 3.6289 -1.9926 0.9835
0.1298 3.6355 -1.9924 0.9835
0.0000 3.6374 -1.9922 0.9835
-0.1298 3.6348 -1.9920 0.9835
-0.6455 3.5779 -1.9913 0.9836
-0.8990 3.5220 -1.9909 0.9836
-1.2699 3.4048 -1.9903 0.9836
-1.3905 3.3570 -1.9901 0.9836
-1.9636 3.0554 -1.9893 0.9836
-2.1762 2.9071 -1.9890 0.9836
-2.3777 2.7440 -1.9887 0.9836
-2.4740 2.6572 -1.9885 0.9836
-2.5671 2.5670 -1.9884 0.9836
-2.8262 2.2775 -1.9880 0.9836
-2.9811 2.0698 -1.9877 0.9836
-0.8506 0.3884 -0.5122 0.9957
-0.8837 0.2255 -0.4995 0.9958
-0.8932 0.1943 -0.5006 0.9958
-0.9011 0.1626 -0.5015 0.9958
-0.9127 0.0981 -0.5028 0.9958
3.4508 0.2468 -1.9974 0.9841
3.4243 0.4923 -1.9974 0.9841
3.4045 0.6142 -1.9973 0.9841
3.3804 0.7353 -1.9973 0.9841
3.3519 0.8555 -1.9973 0.9841
3.1463 1.4368 -1.9969 0.9842
3.0928 1.5482 -1.9969 0.9842
2.9742 1.7647 -1.9967 0.9842
2.9092 1.8696 -1.9966 0.9842
2.8405 1.9722 -1.9965 0.9842
2.7681 2.0722 -1.9964 0.9842
2.6923 2.1696 -1.9963 0.9842
2.6130 2.2641 -1.9962 0.9842
2.4445 2.4445 -1.9959 0.9842
2.2635 2.6123 -1.9956 0.9842
2.1687 2.6912 -1.9955 0.9842
1.5464 3.0892 -1.9946 0.9842
1.2070 3.2360 -1.9940 0.9842
0.9729 3.3133 -1.9937 0.9842
0.8539 3.3456 -1.9935 0.9842
0.4913 3.4168 -1.9930 0.9842
0.2462 3.4425 -1.9926 0.9842
-0.1231 3.4481 -1.9920 0.9842
-0.2461 3.4412 -1.9919 0.9842
-0.3688 3.4299 -1.9917 0.9842
-0.4909 3.4142 -1.9915 0.9842
-0.7331 3.3699 -1.9911 0.9842
-0.9714 3.3084 -1.9908 0.9842
-1.2048 3.2301 -1.9904 0.9842
-1.5428 3.0821 -1.9899 0.9842
-1.6517 3.0248 -1.9897 0.9842
-1.7584 2.9637 -1.9896 0.9842
-1.9651 2.8302 -1.9893 0.9842
-2.0647 2.7581 -1.9891 0.9842
-2.1616 2.6824 -1.9890 0.9842
-2.2558 2.6034 -1.9888 0.9842
-2.3472 2.5210 -1.9887 0.9842
-2.4355 2.4355 -1.9886 0.9842
-2.6027 2.2552 -1.9883 0.9842
-2.6814 2.1608 -1.9882 0.9842
-2.7566 2.0636 -1.9881 0.9842
-0.7750 0.4598 -0.5203 0.9958
-0.7787 0.4252 -0.5122 0.9959
-0.7809 0.3566 -0.4957 0.9960
-0.7796 0.3229 -0.4872 0.9961
-0.7887 0.2942 -0.4860 0.9961
-0.8128 0.2387 -0.4891 0.9961
-0.8318 0.1809 -0.4915 0.9961
-0.8393 0.1514 -0.4924 0.9961
