ply
format ascii 1.0
element vertex 795
property float32 x
property float32 y
property float32 z
property float32 I
end_header
-4.8903 -3.1428 -0.0327 0.9770
-4.4393 -3.0823 -0.0304 0.9786
-4.0773 -3.0522 -0.0287 0.9798
-3.8031 -3.0648 -0.0275 0.9807
-3.0571 -3.5281 -0.0263 0.9815
-5.2732 -2.8794 -0.1692 0.9762
-4.8266 -2.8638 -0.1580 0.9778
-4.4351 -2.8503 -0.1484 0.9791
-4.0918 -2.8410 -0.1403 0.9803
-3.7881 -2.8357 -0.1332 0.9812
-3.1432 -2.9264 -0.1209 0.9830
-3.0384 -3.0384 -0.1210 0.9830
-2.9526 -3.4075 -0.1270 0.9821
-5.7311 -2.8688 -0.3250 0.9747
-4.7480 -2.8171 -0.2800 0.9781
-4.3664 -2.8061 -0.2632 0.9794
-4.0307 -2.7985 -0.2489 0.9805
-3.4692 -2.7956 -0.2260 0.9823
-3.2771 -2.8396 -0.2199 0.9828
-3.1108 -2.8963 -0.2156 0.9831
-2.9541 -3.1729 -0.2199 0.9828
-2.9000 -3.5987 -0.2344 0.9817
-2.8899 -3.8605 -0.2446 0.9809
-6.2059 -2.8342 -0.5002 0.9730
-5.6095 -2.8079 -0.4600 0.9752
-5.0934 -2.7812 -0.4255 0.9770
-4.6718 -2.7719 -0.3983 0.9784
-3.9712 -2.7573 -0.3545 0.9808
-3.6827 -2.7568 -0.3373 0.9817
-3.2400 -2.8075 -0.3143 0.9830
-2.9891 -2.9891 -0.3100 0.9832
-2.9264 -3.1432 -0.3149 0.9829
-2.8624 -3.5520 -0.3345 0.9819
-2.9283 -4.2176 -0.3765 0.9796
-6.8063 -2.8193 -0.7073 0.9708
-6.0682 -2.7712 -0.6404 0.9735
-5.4926 -2.7494 -0.5897 0.9756
-5.0076 -2.7344 -0.5478 0.9773
-3.6319 -2.7188 -0.4356 0.9819
-3.2036 -2.7760 -0.4070 0.9831
-2.9668 -2.9668 -0.4028 0.9833
-2.8543 -3.2941 -0.4185 0.9826
-2.8137 -3.7586 -0.4507 0.9813
-7.3752 -2.7508 -0.9350 0.9688
-6.5760 -2.7239 -0.8455 0.9717
-5.9358 -2.7108 -0.7751 0.9741
-5.3824 -2.6942 -0.7150 0.9760
-4.9243 -2.6889 -0.6665 0.9777
-3.3521 -2.7013 -0.5114 0.9828
-3.0281 -2.8193 -0.4915 0.9835
-2.8246 -3.2598 -0.5124 0.9828
-7.5238 -2.8062 -1.1378 0.9681
-5.8378 -2.6660 -0.9093 0.9744
-4.4547 -2.6431 -0.7339 0.9793
-3.8023 -2.6400 -0.6559 0.9815
-3.5370 -2.6478 -0.6260 0.9823
-3.3145 -2.6710 -0.6031 0.9830
-2.9227 -2.9227 -0.5857 0.9834
-2.8540 -3.0655 -0.5934 0.9832
-2.7663 -3.4327 -0.6247 0.9823
-2.7475 -3.9571 -0.6826 0.9807
-4.7517 -7.3938 -1.2453 0.9651
-4.7089 -7.9365 -1.3076 0.9634
-7.2545 -2.7058 -1.2755 0.9691
-6.4949 -2.6903 -1.1581 0.9719
-5.2690 -2.6375 -0.9707 0.9764
-4.7854 -2.6130 -0.8982 0.9781
-4.3840 -2.6012 -0.8398 0.9795
-3.7486 -2.6027 -0.7518 0.9817
-3.2862 -2.6482 -0.6953 0.9830
-3.1278 -2.7103 -0.6818 0.9834
-2.9090 -2.9090 -0.6777 0.9835
-2.8411 -3.0516 -0.6869 0.9832
-4.7097 -7.3285 -1.4351 0.9653
-4.6798 -7.8873 -1.5109 0.9635
-7.2537 -2.7055 -1.4552 0.9690
-5.8558 -2.6742 -1.2100 0.9741
-3.2694 -2.6347 -0.7892 0.9831
-2.7685 -3.1950 -0.7946 0.9829
-2.7289 -3.6454 -0.8559 0.9816
-2.7179 -3.9146 -0.8958 0.9808
-4.7053 -7.3216 -1.6359 0.9652
-9.6255 -0.3438 -2.0359 0.9614
-9.6096 -0.6873 -2.0365 0.9614
-9.3430 -2.3847 -2.0382 0.9613
-9.2528 -2.7169 -2.0384 0.9613
-9.1505 -3.0456 -2.0386 0.9613
-7.2530 -2.7052 -1.6363 0.9688
-6.4969 -2.6911 -1.4865 0.9717
-5.2925 -2.6492 -1.2511 0.9761
-3.4344 -2.5709 -0.9068 0.9826
-3.2529 -2.6213 -0.8831 0.9831
-2.9473 -2.7440 -0.8512 0.9837
-2.8854 -2.8854 -0.8625 0.9835
-2.8215 -3.0305 -0.8753 0.9832
-2.7103 -3.6205 -0.9560 0.9817
-2.6919 -3.8771 -0.9977 0.9809
-3.6670 -8.8528 -2.0255 0.9616
-3.3468 -8.9731 -2.0244 0.9616
-2.6949 -9.1781 -2.0220 0.9616
-2.3642 -9.2628 -2.0207 0.9617
-2.0308 -9.3354 -2.0195 0.9617
-1.3579 -9.4442 -2.0168 0.9617
-1.0192 -9.4802 -2.0155 0.9618
0.0000 -9.5150 -2.0113 0.9618
0.6778 -9.4770 -2.0084 0.9619
1.0149 -9.4399 -2.0069 0.9619
1.3502 -9.3906 -2.0054 0.9620
2.0136 -9.2565 -2.0024 0.9620
2.3410 -9.1718 -2.0009 0.9620
2.6648 -9.0755 -1.9994 0.9621
3.9173 -8.5776 -1.9933 0.9622
5.0827 -7.9089 -1.9873 0.9623
5.3578 -7.7167 -1.9858 0.9623
6.1385 -7.0842 -1.9814 0.9624
6.3829 -6.8557 -1.9800 0.9624
6.8462 -6.3740 -1.9773 0.9625
7.2736 -5.8615 -1.9746 0.9625
7.6633 -5.3207 -1.9720 0.9626
8.0135 -4.7546 -1.9696 0.9626
8.5891 -3.5577 -1.9652 0.9627
8.7061 -3.2472 -1.9641 0.9627
8.8121 -2.9329 -1.9632 0.9627
8.9904 -2.2947 -1.9613 0.9628
9.1235 -1.6461 -1.9597 0.9628
9.2107 -0.9903 -1.9582 0.9628
9.2370 -0.6606 -1.9575 0.9628
9.2517 -0.3304 -1.9569 0.9629
-8.6427 0.0000 -2.0312 0.9651
-8.5622 -1.2311 -2.0330 0.9651
-8.4550 -1.8393 -2.0336 0.9651
-8.3848 -2.1401 -2.0338 0.9651
-8.3038 -2.4382 -2.0340 0.9651
-8.2120 -2.7332 -2.0341 0.9651
-7.2523 -2.7050 -1.8192 0.9687
-6.4998 -2.6923 -1.6535 0.9715
-4.7830 -2.6117 -1.2808 0.9779
-4.3423 -2.5764 -1.1866 0.9795
-2.7071 -3.3593 -1.0140 0.9824
-2.6772 -3.5763 -1.0499 0.9818
-2.6627 -3.8350 -1.0973 0.9810
-4.3990 -7.4141 -2.0261 0.9652
-3.8555 -7.7022 -2.0243 0.9652
-3.2930 -7.9500 -2.0224 0.9653
-2.4205 -8.2436 -2.0192 0.9653
-0.6108 -8.5397 -2.0122 0.9654
0.0000 -8.5508 -2.0096 0.9655
0.3050 -8.5398 -2.0083 0.9655
1.2137 -8.4415 -2.0044 0.9656
1.5132 -8.3872 -2.0030 0.9656
1.8104 -8.3222 -2.0017 0.9656
2.1048 -8.2467 -2.0003 0.9656
2.3962 -8.1607 -1.9989 0.9657
2.6841 -8.0645 -1.9976 0.9657
2.9682 -7.9581 -1.9962 0.9657
3.2481 -7.8417 -1.9948 0.9657
3.7941 -7.5796 -1.9921 0.9658
4.3192 -7.2797 -1.9894 0.9658
4.5732 -7.1161 -1.9880 0.9658
5.5248 -6.3759 -1.9828 0.9659
5.7451 -6.1707 -1.9815 0.9659
5.9580 -5.9580 -1.9803 0.9660
6.7289 -5.0372 -1.9755 0.9661
6.9004 -4.7910 -1.9743 0.9661
7.0630 -4.5391 -1.9732 0.9661
7.3609 -4.0194 -1.9711 0.9661
7.4958 -3.7521 -1.9701 0.9661
7.7367 -3.2046 -1.9681 0.9662
7.9383 -2.6421 -1.9663 0.9662
8.1652 -1.7762 -1.9639 0.9662
8.2203 -1.4831 -1.9632 0.9663
8.2651 -1.1883 -1.9625 0.9663
8.2995 -0.8923 -1.9618 0.9663
8.3235 -0.5953 -1.9612 0.9663
8.3371 -0.2978 -1.9607 0.9663
-7.8320 0.0000 -2.0278 0.9682
-7.8288 -0.2796 -2.0283 0.9681
-7.7147 -1.3919 -2.0297 0.9681
-7.5974 -1.9391 -2.0302 0.9681
-7.4407 -2.4765 -2.0304 0.9681
-7.2516 -2.7047 -2.0039 0.9685
-5.2733 -2.6396 -1.5268 0.9759
-4.7823 -2.6113 -1.4108 0.9777
-3.9555 -2.5420 -1.2174 0.9808
-3.7321 -2.5912 -1.1764 0.9814
-3.2254 -2.5992 -1.0725 0.9830
-3.0619 -2.6532 -1.0490 0.9834
-2.6459 -3.5345 -1.1431 0.9819
-2.7464 -4.2735 -1.3153 0.9792
-3.9873 -6.7202 -2.0232 0.9682
-3.4949 -6.9820 -2.0216 0.9683
-3.2421 -7.0992 -2.0207 0.9683
-2.7249 -7.3059 -2.0189 0.9683
-1.9256 -7.5443 -2.0160 0.9683
-1.6542 -7.6043 -2.0149 0.9684
-1.1063 -7.6948 -2.0128 0.9684
-0.8305 -7.7251 -2.0117 0.9684
-0.5540 -7.7455 -2.0106 0.9684
0.2767 -7.7469 -2.0071 0.9685
0.5527 -7.7275 -2.0059 0.9685
0.8277 -7.6983 -2.0047 0.9685
1.9101 -7.4838 -1.9998 0.9686
2.4361 -7.3194 -1.9973 0.9686
2.9484 -7.1180 -1.9948 0.9687
3.1986 -7.0039 -1.9936 0.9687
3.4444 -6.8810 -1.9924 0.9687
4.1525 -6.4614 -1.9887 0.9688
4.5973 -6.1413 -1.9863 0.9688
4.8107 -5.9697 -1.9851 0.9688
5.0178 -5.7908 -1.9839 0.9688
5.2182 -5.6047 -1.9828 0.9689
5.5984 -5.2122 -1.9805 0.9689
5.7776 -5.0063 -1.9794 0.9689
6.5575 -3.8908 -1.9742 0.9690
6.6890 -3.6525 -1.9733 0.9690
6.9261 -3.1630 -1.9714 0.9690
7.0315 -2.9125 -1.9706 0.9690
7.1279 -2.6586 -1.9697 0.9691
7.2153 -2.4015 -1.9689 0.9691
7.4224 -1.6146 -1.9667 0.9691
7.4727 -1.3482 -1.9661 0.9691
7.5137 -1.0803 -1.9654 0.9691
7.5672 -0.5412 -1.9643 0.9691
7.5797 -0.2707 -1.9638 0.9691
-7.1501 -0.2554 -2.0254 0.9707
-7.1162 -0.7651 -2.0262 0.9707
-6.9964 -1.5220 -2.0269 0.9707
-6.9382 -1.7709 -2.0271 0.9707
-6.8710 -2.0175 -2.0273 0.9707
-6.7950 -2.2616 -2.0274 0.9707
-6.7101 -2.5027 -2.0274 0.9707
-6.6165 -2.7407 -2.0274 0.9707
-6.4039 -3.2055 -2.0273 0.9707
-4.7819 -2.6111 -1.5424 0.9776
-4.3140 -2.5596 -1.4200 0.9794
-3.9553 -2.5419 -1.3310 0.9806
-3.4040 -2.5482 -1.2037 0.9825
-2.8382 -2.8382 -1.1363 0.9835
-2.6331 -3.5174 -1.2438 0.9819
-2.7640 -4.3008 -1.4473 0.9790
-3.6424 -6.1389 -2.0208 0.9708
-3.4197 -6.2628 -2.0200 0.9708
-3.1928 -6.3785 -2.0193 0.9708
-2.2489 -6.7569 -2.0160 0.9708
-2.0054 -6.8298 -2.0151 0.9708
-1.7596 -6.8939 -2.0142 0.9709
-1.2621 -6.9952 -2.0123 0.9709
-1.0111 -7.0323 -2.0113 0.9709
0.7567 -7.0380 -2.0039 0.9710
1.2554 -6.9583 -2.0017 0.9710
1.5021 -6.9052 -2.0005 0.9710
2.6966 -6.5103 -1.9949 0.9711
2.9256 -6.4062 -1.9937 0.9711
3.1506 -6.2941 -1.9926 0.9712
3.5876 -6.0465 -1.9903 0.9712
3.7990 -5.9113 -1.9892 0.9712
4.2063 -5.6190 -1.9870 0.9712
4.4018 -5.4623 -1.9859 0.9713
4.5915 -5.2988 -1.9849 0.9713
4.7751 -5.1288 -1.9838 0.9713
5.2878 -4.5819 -1.9807 0.9713
5.4452 -4.3880 -1.9797 0.9713
5.5956 -4.1888 -1.9788 0.9714
5.7388 -3.9845 -1.9778 0.9714
5.8746 -3.7754 -1.9769 0.9714
6.0029 -3.5617 -1.9760 0.9714
6.1235 -3.3437 -1.9751 0.9714
6.2362 -3.1216 -1.9743 0.9714
6.6066 -2.1989 -1.9711 0.9715
6.6784 -1.9610 -1.9704 0.9715
6.7419 -1.7208 -1.9698 0.9715
6.8431 -1.2346 -1.9685 0.9715
6.8808 -0.9893 -1.9679 0.9715
6.9301 -0.4957 -1.9669 0.9715
-6.5615 -0.4693 -2.0233 0.9728
-6.5132 -0.9364 -2.0239 0.9728
-6.3159 -1.8545 -2.0247 0.9728
-6.2460 -2.0789 -2.0247 0.9728
-6.0820 -2.5192 -2.0248 0.9728
-4.3137 -2.5594 -1.5428 0.9792
-3.9550 -2.5417 -1.4460 0.9805
-3.6383 -2.5261 -1.3623 0.9816
-2.8884 -2.6892 -1.2139 0.9836
-2.8274 -2.8274 -1.2299 0.9834
-2.7650 -2.9698 -1.2481 0.9832
-2.7007 -3.1168 -1.2685 0.9829
-2.6654 -3.3076 -1.3066 0.9824
-2.6472 -3.8127 -1.4277 0.9808
-3.5494 -5.5230 -2.0193 0.9729
-3.1444 -5.7585 -2.0180 0.9729
-2.9358 -5.8650 -2.0173 0.9729
-2.7236 -5.9639 -2.0166 0.9729
-2.5081 -6.0551 -2.0159 0.9729
-2.0681 -6.2138 -2.0143 0.9730
-1.8443 -6.2811 -2.0135 0.9730
-1.3903 -6.3912 -2.0118 0.9730
-0.9300 -6.4683 -2.0100 0.9730
-0.6982 -6.4944 -2.0090 0.9730
-0.4657 -6.5121 -2.0081 0.9730
0.0000 -6.5225 -2.0062 0.9731
0.2327 -6.5151 -2.0052 0.9731
0.4649 -6.4994 -2.0042 0.9731
0.6962 -6.4754 -2.0032 0.9731
0.9264 -6.4432 -2.0022 0.9731
3.1034 -5.6835 -1.9917 0.9733
3.3026 -5.5662 -1.9907 0.9733
3.4973 -5.4420 -1.9897 0.9733
3.6875 -5.3109 -1.9887 0.9733
3.8727 -5.1733 -1.9877 0.9733
4.0528 -5.0292 -1.9867 0.9733
4.2277 -4.8790 -1.9857 0.9733
4.5605 -4.5605 -1.9837 0.9734
4.8696 -4.2195 -1.9819 0.9734
5.1535 -3.8579 -1.9801 0.9734
5.5292 -3.2806 -1.9775 0.9735
5.9306 -2.4565 -1.9744 0.9735
6.0123 -2.2425 -1.9737 0.9735
6.0864 -2.0258 -1.9730 0.9735
6.1528 -1.8066 -1.9724 0.9735
6.2622 -1.3623 -1.9712 0.9735
6.3050 -1.1375 -1.9706 0.9735
6.3964 -0.2285 -1.9687 0.9736
-6.0756 -0.2170 -2.0209 0.9747
-6.0650 -0.4338 -2.0212 0.9747
-6.0465 -0.6501 -2.0215 0.9747
-6.0202 -0.8656 -2.0217 0.9747
-5.9862 -1.0800 -2.0220 0.9747
-5.9443 -1.2931 -2.0221 0.9747
-5.8948 -1.5046 -2.0223 0.9747
-5.7009 -2.1263 -2.0225 0.9747
-5.4408 -2.7235 -2.0225 0.9747
-5.3399 -2.9158 -2.0224 0.9747
-3.9548 -2.5416 -1.5627 0.9804
-2.7671 -2.9720 -1.3498 0.9830
-2.6708 -3.3142 -1.4149 0.9822
-2.6478 -3.5371 -1.4687 0.9815
-3.0961 -5.2182 -2.0169 0.9747
-2.7143 -5.4225 -2.0157 0.9748
-2.5182 -5.5141 -2.0150 0.9748
-1.4964 -5.8628 -2.0113 0.9748
-1.0735 -5.9498 -2.0097 0.9748
-0.8601 -5.9818 -2.0088 0.9748
-0.6457 -6.0062 -2.0080 0.9749
-0.2154 -6.0317 -2.0062 0.9749
0.0000 -6.0328 -2.0053 0.9749
0.2152 -6.0262 -2.0044 0.9749
0.4300 -6.0119 -2.0035 0.9749
0.8570 -5.9603 -2.0016 0.9749
1.0687 -5.9231 -2.0007 0.9749
1.2788 -5.8784 -1.9997 0.9750
1.4871 -5.8262 -1.9988 0.9750
1.6933 -5.7667 -1.9978 0.9750
1.8971 -5.6998 -1.9968 0.9750
2.2966 -5.5445 -1.9949 0.9750
2.8720 -5.2596 -1.9920 0.9751
3.0564 -5.1513 -1.9910 0.9751
3.2368 -5.0365 -1.9901 0.9751
3.4129 -4.9154 -1.9891 0.9751
3.7513 -4.6551 -1.9873 0.9751
4.3677 -4.0665 -1.9837 0.9752
4.7713 -3.5717 -1.9812 0.9752
5.3193 -2.6626 -1.9773 0.9752
5.5677 -2.0767 -1.9753 0.9753
5.7525 -1.4682 -1.9735 0.9753
5.7996 -1.2616 -1.9729 0.9753
5.8394 -1.0536 -1.9724 0.9753
5.8969 -0.6340 -1.9714 0.9753
5.9144 -0.4230 -1.9710 0.9753
5.9246 -0.2116 -1.9706 0.9753
-5.6423 -0.2015 -2.0190 0.9763
-5.6324 -0.4028 -2.0193 0.9763
-5.6152 -0.6037 -2.0196 0.9763
-5.5590 -1.0030 -2.0200 0.9763
-5.4211 -1.5918 -2.0205 0.9763
-5.3610 -1.7843 -2.0205 0.9763
-5.2940 -1.9746 -2.0206 0.9763
-5.1396 -2.3472 -2.0206 0.9763
-4.8587 -2.8828 -2.0203 0.9763
-3.9545 -2.5414 -1.6810 0.9802
-3.0941 -2.6810 -1.4641 0.9828
-2.9014 -2.7013 -1.4176 0.9833
-2.7705 -2.9757 -1.4539 0.9829
-2.7048 -3.1215 -1.4770 0.9826
-3.0477 -4.7423 -2.0159 0.9763
-2.7001 -4.9449 -2.0148 0.9764
-2.5212 -5.0367 -2.0142 0.9764
-1.9664 -5.2723 -2.0123 0.9764
-0.5999 -5.5804 -2.0071 0.9764
-0.4002 -5.5960 -2.0063 0.9764
-0.2001 -5.6044 -2.0054 0.9765
0.2000 -5.5997 -2.0038 0.9765
0.3996 -5.5866 -2.0029 0.9765
1.1885 -5.4632 -1.9994 0.9765
1.3821 -5.4149 -1.9985 0.9765
1.5738 -5.3597 -1.9976 0.9765
1.7633 -5.2978 -1.9967 0.9766
1.9504 -5.2291 -1.9958 0.9766
2.3163 -5.0721 -1.9940 0.9766
2.4948 -4.9839 -1.9931 0.9766
2.6699 -4.8895 -1.9922 0.9766
3.0092 -4.6824 -1.9904 0.9766
3.4879 -4.3282 -1.9878 0.9767
3.6386 -4.1992 -1.9870 0.9767
3.9256 -3.9256 -1.9853 0.9767
4.0616 -3.7814 -1.9845 0.9767
4.1922 -3.6326 -1.9837 0.9767
4.3175 -3.4793 -1.9829 0.9767
4.5512 -3.1600 -1.9814 0.9767
4.8577 -2.6525 -1.9792 0.9768
5.0311 -2.2976 -1.9779 0.9768
5.1083 -2.1159 -1.9773 0.9768
5.1790 -1.9316 -1.9767 0.9768
5.3005 -1.5564 -1.9755 0.9768
5.4323 -0.9801 -1.9740 0.9768
5.4625 -0.7854 -1.9735 0.9768
5.4859 -0.5898 -1.9731 0.9768
-5.2636 0.0000 -2.0171 0.9777
-5.2610 -0.1879 -2.0174 0.9777
-5.1040 -1.3027 -2.0186 0.9777
-4.9985 -1.6637 -2.0188 0.9777
-4.9360 -1.8410 -2.0189 0.9777
-4.7921 -2.1885 -2.0188 0.9777
-4.7108 -2.3580 -2.0188 0.9777
-4.6234 -2.5246 -2.0187 0.9777
-3.5047 -2.8242 -1.7249 0.9809
-3.9789 -3.4477 -2.0176 0.9777
-2.9116 -2.7108 -1.5245 0.9831
-3.1517 -4.2102 -2.0154 0.9777
-2.5180 -4.6114 -2.0135 0.9777
-2.1814 -4.7766 -2.0123 0.9778
-1.8340 -4.9171 -2.0111 0.9778
-1.6568 -4.9778 -2.0105 0.9778
-0.9302 -5.1559 -2.0077 0.9778
-0.7453 -5.1839 -2.0070 0.9778
-0.3733 -5.2200 -2.0055 0.9778
0.0000 -5.2293 -2.0040 0.9778
0.3728 -5.2118 -2.0024 0.9779
0.5583 -5.1931 -2.0016 0.9779
0.7430 -5.1678 -2.0008 0.9779
1.2896 -5.0524 -1.9983 0.9779
1.4685 -5.0011 -1.9974 0.9779
1.8200 -4.8795 -1.9957 0.9779
1.9921 -4.8094 -1.9949 0.9779
2.4917 -4.5632 -1.9924 0.9780
2.9615 -4.2654 -1.9899 0.9780
3.2556 -4.0399 -1.9883 0.9780
3.3964 -3.9196 -1.9875 0.9780
3.5327 -3.7944 -1.9867 0.9780
3.7915 -3.5300 -1.9852 0.9781
3.9136 -3.3911 -1.9844 0.9781
4.0306 -3.2481 -1.9837 0.9781
4.3501 -2.7956 -1.9816 0.9781
4.4456 -2.6377 -1.9809 0.9781
4.5354 -2.4765 -1.9803 0.9781
4.6976 -2.1453 -1.9790 0.9781
4.7697 -1.9757 -1.9784 0.9781
4.8958 -1.6295 -1.9773 0.9781
4.9495 -1.4533 -1.9768 0.9781
5.0381 -1.0960 -1.9758 0.9782
5.0728 -0.9152 -1.9754 0.9782
5.1230 -0.5508 -1.9745 0.9782
5.1384 -0.3675 -1.9742 0.9782
5.1474 -0.1838 -1.9738 0.9782
-4.9226 -0.1758 -2.0160 0.9789
-4.9138 -0.3514 -2.0162 0.9789
-4.6767 -1.5566 -2.0173 0.9789
-4.5538 -1.8863 -2.0173 0.9789
-4.4075 -2.2062 -2.0173 0.9789
-4.3258 -2.3621 -2.0172 0.9789
-3.6374 -2.5255 -1.8123 0.9810
-3.4823 -3.4823 -2.0156 0.9789
-3.2239 -3.7206 -2.0149 0.9789
-3.0885 -3.8326 -2.0145 0.9790
-2.9491 -3.9396 -2.0141 0.9790
-2.8061 -4.0415 -2.0137 0.9790
-2.6594 -4.1382 -2.0132 0.9790
-2.5094 -4.2295 -2.0128 0.9790
-2.2002 -4.3955 -2.0118 0.9790
-1.8800 -4.5388 -2.0107 0.9790
-1.7163 -4.6017 -2.0101 0.9790
-1.3828 -4.7095 -2.0089 0.9790
-1.2135 -4.7544 -2.0082 0.9790
-0.8706 -4.8257 -2.0069 0.9790
-0.5238 -4.8722 -2.0056 0.9790
-0.1748 -4.8937 -2.0041 0.9791
0.3490 -4.8789 -2.0019 0.9791
0.5227 -4.8615 -2.0012 0.9791
0.6956 -4.8379 -2.0004 0.9791
1.0381 -4.7722 -1.9988 0.9791
1.3749 -4.6824 -1.9973 0.9791
1.5405 -4.6285 -1.9965 0.9791
1.8653 -4.5032 -1.9949 0.9792
2.0241 -4.4321 -1.9941 0.9792
2.1801 -4.3553 -1.9933 0.9792
2.3332 -4.2730 -1.9926 0.9792
2.4833 -4.1854 -1.9918 0.9792
2.6301 -4.0925 -1.9910 0.9792
2.7734 -3.9945 -1.9902 0.9792
3.3087 -3.5538 -1.9873 0.9792
3.5512 -3.3063 -1.9858 0.9792
3.7754 -3.0424 -1.9844 0.9793
4.3275 -2.1662 -1.9806 0.9793
4.5867 -1.5266 -1.9785 0.9793
4.7528 -0.8575 -1.9766 0.9793
4.7794 -0.6872 -1.9762 0.9793
4.8145 -0.3443 -1.9755 0.9794
-1.4571 -0.0520 -0.6354 0.9937
-1.4490 -0.1036 -0.6331 0.9937
-1.4359 -0.1544 -0.6294 0.9937
-1.3688 -0.2978 -0.6105 0.9939
-1.3400 -0.3420 -0.6027 0.9940
-1.5118 -0.5639 -0.7032 0.9930
-4.2736 -1.7702 -2.0160 0.9800
-4.2077 -1.9216 -2.0159 0.9800
-4.1363 -2.0705 -2.0159 0.9800
-3.9777 -2.3601 -2.0157 0.9800
-3.8907 -2.5004 -2.0156 0.9800
-3.7987 -2.6375 -2.0155 0.9800
-3.7018 -2.7711 -2.0153 0.9800
-3.6002 -2.9012 -2.0151 0.9800
-3.4939 -3.0275 -2.0148 0.9800
-3.3832 -3.1499 -2.0146 0.9800
-3.2682 -3.2682 -2.0143 0.9800
-3.1490 -3.3822 -2.0140 0.9800
-3.0258 -3.4919 -2.0137 0.9800
-2.6337 -3.7932 -2.0125 0.9801
-2.4961 -3.8840 -2.0121 0.9801
-2.3553 -3.9697 -2.0117 0.9801
-2.2117 -4.0503 -2.0112 0.9801
-2.0652 -4.1257 -2.0107 0.9801
-1.6111 -4.3194 -2.0092 0.9801
-1.2981 -4.4208 -2.0080 0.9801
-1.1391 -4.4631 -2.0074 0.9801
-0.9788 -4.4995 -2.0068 0.9801
0.0000 -4.5957 -2.0029 0.9801
0.1640 -4.5912 -2.0022 0.9802
0.3276 -4.5808 -2.0015 0.9802
0.4908 -4.5646 -2.0008 0.9802
0.6531 -4.5425 -2.0001 0.9802
0.9748 -4.4811 -1.9986 0.9802
1.6003 -4.2904 -1.9957 0.9802
1.7517 -4.2290 -1.9949 0.9802
1.9008 -4.1622 -1.9942 0.9802
2.0474 -4.0902 -1.9935 0.9802
3.2240 -3.2240 -1.9870 0.9803
3.3359 -3.1058 -1.9864 0.9803
3.4434 -2.9837 -1.9857 0.9803
3.5466 -2.8580 -1.9851 0.9803
3.6452 -2.7287 -1.9844 0.9803
3.7391 -2.5961 -1.9838 0.9803
3.8282 -2.4602 -1.9832 0.9803
3.9124 -2.3213 -1.9826 0.9803
4.0657 -2.0351 -1.9815 0.9804
4.1346 -1.8882 -1.9810 0.9804
4.1983 -1.7390 -1.9804 0.9804
4.2566 -1.5876 -1.9799 0.9804
4.4352 -0.9648 -1.9781 0.9804
4.4909 -0.6457 -1.9773 0.9804
4.5240 -0.3236 -1.9767 0.9804
-1.2362 -0.0884 -0.5737 0.9946
-1.2261 -0.1318 -0.5708 0.9946
-1.1790 -0.2565 -0.5585 0.9947
-1.1574 -0.2954 -0.5529 0.9947
-1.1536 -0.3840 -0.5628 0.9947
-1.2017 -0.4482 -0.5937 0.9944
-1.2345 -0.5114 -0.6185 0.9941
-3.9592 -1.8081 -2.0147 0.9810
-3.8920 -1.9482 -2.0147 0.9810
-3.7428 -2.2207 -2.0145 0.9810
-3.6610 -2.3528 -2.0144 0.9810
-3.5744 -2.4818 -2.0142 0.9810
-3.4833 -2.6075 -2.0141 0.9810
-3.2877 -2.8488 -2.0137 0.9810
-3.1836 -2.9640 -2.0134 0.9810
-2.9632 -3.1827 -2.0129 0.9810
-2.4784 -3.5696 -2.0115 0.9810
-2.3489 -3.6550 -2.0111 0.9810
-2.2165 -3.7358 -2.0107 0.9810
-1.9435 -3.8827 -2.0098 0.9810
-1.3698 -4.1156 -2.0078 0.9811
-1.0721 -4.2005 -2.0067 0.9811
-0.7693 -4.2639 -2.0055 0.9811
-0.1545 -4.3246 -2.0031 0.9811
0.0000 -4.3260 -2.0024 0.9811
0.3084 -4.3121 -2.0011 0.9811
0.4620 -4.2969 -2.0004 0.9811
0.7668 -4.2501 -1.9991 0.9811
0.9177 -4.2186 -1.9984 0.9812
1.3620 -4.0921 -1.9963 0.9812
1.5067 -4.0394 -1.9956 0.9812
1.7897 -3.9190 -1.9942 0.9812
2.0633 -3.7787 -1.9929 0.9812
2.3260 -3.6193 -1.9915 0.9812
2.4529 -3.5328 -1.9908 0.9812
2.6969 -3.3466 -1.9895 0.9812
2.9268 -3.1436 -1.9882 0.9812
3.0361 -3.0361 -1.9875 0.9813
3.2430 -2.8100 -1.9863 0.9813
3.3402 -2.6917 -1.9857 0.9813
3.4331 -2.5700 -1.9851 0.9813
3.8295 -1.9169 -1.9823 0.9813
3.9545 -1.6380 -1.9813 0.9813
4.0594 -1.3511 -1.9804 0.9813
4.1436 -1.0576 -1.9795 0.9813
4.2305 -0.6083 -1.9784 0.9813
4.2617 -0.3048 -1.9777 0.9813
4.2693 -0.1525 -1.9774 0.9813
-1.0518 -0.1898 -0.5242 0.9952
-1.0422 -0.2267 -0.5232 0.9953
-1.0025 -0.3337 -0.5183 0.9953
-1.0119 -0.3774 -0.5298 0.9952
-1.0444 -0.4769 -0.5632 0.9949
-1.0588 -0.5300 -0.5808 0.9947
-3.6027 -1.9672 -2.0135 0.9819
-3.4528 -2.2190 -2.0133 0.9819
-3.3712 -2.3407 -2.0132 0.9819
-3.0026 -2.7955 -2.0124 0.9819
-2.9006 -2.9006 -2.0121 0.9819
-2.7948 -3.0018 -2.0119 0.9819
-2.6855 -3.0992 -2.0116 0.9819
-2.4568 -3.2819 -2.0109 0.9819
-2.3377 -3.3669 -2.0106 0.9819
-2.0907 -3.5237 -2.0098 0.9819
-1.9632 -3.5954 -2.0094 0.9819
-1.8332 -3.6624 -2.0090 0.9819
-1.4303 -3.8347 -2.0076 0.9819
-1.1525 -3.9250 -2.0066 0.9819
-1.0114 -3.9625 -2.0060 0.9819
-0.8691 -3.9951 -2.0055 0.9819
-0.4367 -4.0616 -2.0038 0.9820
-0.2913 -4.0734 -2.0032 0.9820
-0.1457 -4.0800 -2.0026 0.9820
0.1456 -4.0775 -2.0014 0.9820
0.7235 -4.0102 -1.9989 0.9820
1.1469 -3.9061 -1.9969 0.9820
1.2852 -3.8614 -1.9963 0.9820
1.5564 -3.7574 -1.9949 0.9820
1.6889 -3.6982 -1.9943 0.9820
1.8192 -3.6344 -1.9936 0.9821
1.9472 -3.5660 -1.9930 0.9821
2.3150 -3.3342 -1.9910 0.9821
2.4317 -3.2484 -1.9904 0.9821
2.5453 -3.1585 -1.9898 0.9821
2.8657 -2.8657 -1.9879 0.9821
2.9652 -2.7607 -1.9873 0.9821
3.0610 -2.6524 -1.9868 0.9821
3.1528 -2.5407 -1.9862 0.9821
3.2406 -2.4258 -1.9856 0.9821
3.3242 -2.3080 -1.9851 0.9821
3.6150 -1.8096 -1.9830 0.9822
3.6764 -1.6790 -1.9825 0.9822
3.7331 -1.5463 -1.9821 0.9822
3.8745 -1.1377 -1.9808 0.9822
3.9443 -0.8580 -1.9800 0.9822
4.0113 -0.4313 -1.9790 0.9822
4.0307 -0.1439 -1.9784 0.9822
-0.9893 -0.0353 -0.5135 0.9955
-0.9838 -0.1058 -0.5133 0.9956
-0.9268 -0.3085 -0.5067 0.9956
-0.9326 -0.4259 -0.5319 0.9954
-0.9416 -0.4713 -0.5463 0.9953
-3.0196 -2.4333 -2.0118 0.9827
-2.9305 -2.5393 -2.0117 0.9827
-2.8377 -2.6420 -2.0114 0.9827
-2.7413 -2.7413 -2.0112 0.9827
-2.6414 -2.8370 -2.0109 0.9827
-2.4316 -3.0174 -2.0104 0.9827
-2.3220 -3.1018 -2.0101 0.9827
-2.0940 -3.2584 -2.0094 0.9827
-1.9760 -3.3304 -2.0090 0.9827
-1.8556 -3.3982 -2.0086 0.9827
-1.6077 -3.5205 -2.0078 0.9827
-1.4807 -3.5748 -2.0073 0.9827
-0.8215 -3.7764 -2.0049 0.9827
-0.4128 -3.8395 -2.0033 0.9827
-0.2754 -3.8507 -2.0028 0.9828
-0.1377 -3.8570 -2.0022 0.9828
0.0000 -3.8583 -2.0016 0.9828
0.2751 -3.8462 -2.0005 0.9828
0.4121 -3.8328 -1.9999 0.9828
0.5484 -3.8145 -1.9993 0.9828
0.8187 -3.7634 -1.9980 0.9828
1.0844 -3.6931 -1.9968 0.9828
1.3443 -3.6041 -1.9956 0.9828
1.4716 -3.5527 -1.9949 0.9828
1.5970 -3.4969 -1.9943 0.9828
1.7202 -3.4366 -1.9937 0.9828
1.9598 -3.3031 -1.9925 0.9828
2.0758 -3.2300 -1.9919 0.9828
2.1891 -3.1529 -1.9913 0.9829
2.5113 -2.8982 -1.9895 0.9829
2.8043 -2.6109 -1.9878 0.9829
2.8949 -2.5085 -1.9872 0.9829
3.0648 -2.2943 -1.9861 0.9829
3.1440 -2.1829 -1.9856 0.9829
3.2191 -2.0687 -1.9851 0.9829
3.4192 -1.7116 -1.9837 0.9829
3.7310 -0.8116 -1.9808 0.9829
3.7569 -0.6778 -1.9805 0.9829
3.7781 -0.5432 -1.9802 0.9829
-0.9127 -0.0981 -0.5028 0.9958
-0.9077 -0.1305 -0.5022 0.9958
-0.8932 -0.1943 -0.5006 0.9958
-0.8727 -0.2562 -0.4982 0.9959
-0.8603 -0.2863 -0.4966 0.9959
-0.8506 -0.3884 -0.5122 0.9957
-0.8524 -0.5058 -0.5428 0.9955
-3.0164 -2.0943 -2.0113 0.9834
-2.9395 -2.2005 -2.0111 0.9834
-2.8589 -2.3038 -2.0109 0.9834
-2.7746 -2.4042 -2.0108 0.9834
-2.6867 -2.5014 -2.0106 0.9834
-2.5954 -2.5954 -2.0103 0.9834
-2.4031 -2.7733 -2.0098 0.9834
-2.3022 -2.8569 -2.0096 0.9834
-2.0919 -3.0129 -2.0089 0.9834
-1.7569 -3.2176 -2.0079 0.9834
-1.6407 -3.2776 -2.0075 0.9834
-1.5223 -3.3334 -2.0071 0.9834
-1.2801 -3.4321 -2.0063 0.9834
-0.9053 -3.5468 -2.0049 0.9834
-0.5206 -3.6206 -2.0034 0.9835
-0.2608 -3.6466 -2.0024 0.9835
0.0000 -3.6539 -2.0013 0.9835
0.1304 -3.6506 -2.0007 0.9835
0.2605 -3.6426 -2.0002 0.9835
0.5194 -3.6127 -1.9990 0.9835
0.9019 -3.5334 -1.9973 0.9835
1.1509 -3.4580 -1.9961 0.9835
1.2733 -3.4137 -1.9955 0.9835
1.5127 -3.3123 -1.9944 0.9835
1.6294 -3.2552 -1.9938 0.9835
1.7441 -3.1940 -1.9932 0.9835
2.1784 -2.9100 -1.9909 0.9836
2.2802 -2.8295 -1.9903 0.9836
2.3791 -2.7456 -1.9898 0.9836
2.4749 -2.6582 -1.9892 0.9836
2.7426 -2.3765 -1.9876 0.9836
2.9787 -2.0681 -1.9861 0.9836
3.0499 -1.9600 -1.9856 0.9836
3.1171 -1.8495 -1.9852 0.9836
3.1804 -1.7366 -1.9847 0.9836
3.2397 -1.6216 -1.9843 0.9836
3.2948 -1.5047 -1.9838 0.9836
3.3923 -1.2653 -1.9830 0.9836
3.5353 -0.7691 -1.9816 0.9836
3.5599 -0.6423 -1.9812 0.9836
3.5800 -0.5147 -1.9809 0.9836
3.6066 -0.2579 -1.9804 0.9836
-0.8550 0.0000 -0.4936 0.9961
-0.8453 -0.1215 -0.4930 0.9961
-0.8393 -0.1514 -0.4924 0.9961
-0.8318 -0.1809 -0.4915 0.9961
-0.8230 -0.2101 -0.4904 0.9961
-0.7796 -0.3229 -0.4872 0.9961
-0.7809 -0.3566 -0.4957 0.9960
-0.7787 -0.4252 -0.5122 0.9959
-0.7750 -0.4599 -0.5203 0.9958
-0.7696 -0.4946 -0.5282 0.9958
-0.7634 -0.5300 -0.5366 0.9957
-2.7874 -2.0866 -2.0103 0.9840
-2.6310 -2.2798 -2.0100 0.9840
-2.5477 -2.3720 -2.0098 0.9841
-2.0848 -2.7850 -2.0085 0.9841
-1.9838 -2.8572 -2.0082 0.9841
-1.7743 -2.9905 -2.0076 0.9841
-1.5559 -3.1083 -2.0069 0.9841
-1.3297 -3.2101 -2.0061 0.9841
-1.2140 -3.2549 -2.0057 0.9841
-0.9783 -3.3318 -2.0048 0.9841
-0.7378 -3.3916 -2.0039 0.9841
-0.6161 -3.4149 -2.0035 0.9841
-0.3708 -3.4485 -2.0025 0.9841
0.1237 -3.4626 -2.0004 0.9841
0.2471 -3.4551 -1.9999 0.9841
0.3702 -3.4432 -1.9994 0.9841
0.4927 -3.4268 -1.9988 0.9841
0.6145 -3.4061 -1.9983 0.9841
0.9743 -3.3182 -1.9966 0.9842
1.3223 -3.1923 -1.9950 0.9842
1.6546 -3.0302 -1.9933 0.9842
1.8655 -2.9028 -1.9922 0.9842
1.9674 -2.8336 -1.9916 0.9842
2.1634 -2.6846 -1.9906 0.9842
2.2572 -2.6050 -1.9900 0.9842
2.3481 -2.5221 -1.9895 0.9842
2.6023 -2.2549 -1.9880 0.9842
2.6805 -2.1600 -1.9875 0.9842
2.8264 -1.9624 -1.9866 0.9842
3.2191 -1.2007 -1.9836 0.9843
3.3273 -0.8492 -1.9826 0.9843
3.3549 -0.7298 -1.9822 0.9843
3.3783 -0.6095 -1.9819 0.9843
3.3974 -0.4885 -1.9817 0.9843
3.4288 -0.1225 -1.9809 0.9843
