ply
format ascii 1.0
element vertex 786
property float32 x
property float32 y
property float32 z
property float32 I
end_header
-0.8542 7.9451 0.8581 0.9684
-1.1419 7.9420 0.8616 0.9682
-1.4328 7.9414 0.8665 0.9681
-1.7278 7.9428 0.8729 0.9678
-1.7895 8.2262 0.7127 0.9668
-3.0603 8.2049 0.7413 0.9655
-3.3992 8.2065 0.7519 0.9650
-4.1296 9.0425 0.8415 0.9609
-4.4446 8.8793 0.8406 0.9609
-4.3118 8.6139 0.5973 0.9621
-2.0670 9.5018 0.3834 0.9618
-2.4375 9.5499 0.3886 0.9613
-4.3452 8.6805 0.3828 0.9619
-2.4375 9.5499 0.1665 0.9613
-2.0663 9.4985 -0.0547 0.9619
-2.4375 9.5499 -0.0555 0.9613
-4.3452 8.6805 -0.0547 0.9619
-1.0043 9.3412 -0.2645 0.9631
-2.8046 9.5516 -0.2803 0.9609
-1.0043 9.3412 -0.4765 0.9631
-2.8046 9.5516 -0.5049 0.9609
-4.3452 8.6805 -0.4923 0.9619
-1.0043 9.3412 -0.6889 0.9630
-2.4375 9.5499 -0.7227 0.9612
-2.8046 9.5516 -0.7299 0.9609
-1.0043 9.3412 -0.9020 0.9630
-2.0663 9.4985 -0.9332 0.9617
-4.3452 8.6805 -0.9320 0.9617
-1.0043 9.3412 -1.1160 0.9629
-2.0663 9.4985 -1.1547 0.9616
-2.4375 9.5499 -1.1708 0.9611
-0.9657 8.9825 -1.2801 0.9642
-2.0663 9.4985 -1.3773 0.9615
-2.3091 9.0469 -1.3229 0.9630
-2.6506 9.0269 -1.3330 0.9627
-3.3593 9.0067 -1.3620 0.9619
-3.7311 9.0077 -1.3814 0.9614
-2.0663 9.4985 -1.6014 0.9614
-4.3452 8.6805 -1.5992 0.9614
5.8175 7.7712 -1.8246 0.9613
5.2532 8.1742 -1.8263 0.9612
4.0446 8.8565 -1.8300 0.9611
3.7279 8.9999 -1.8310 0.9611
3.0797 9.2529 -1.8330 0.9611
2.4144 9.4595 -1.8350 0.9610
1.7354 9.6185 -1.8371 0.9610
1.3918 9.6799 -1.8381 0.9610
1.0460 9.7289 -1.8392 0.9610
0.6985 9.7657 -1.8403 0.9609
-1.3982 9.7247 -1.8467 0.9608
-2.0663 9.4985 -1.8271 0.9612
9.3013 0.0000 -1.9661 0.9627
9.2955 0.3320 -1.9661 0.9627
9.2080 1.3239 -1.9664 0.9627
9.1557 1.6519 -1.9666 0.9627
9.0165 2.3013 -1.9670 0.9627
8.9298 2.6220 -1.9673 0.9627
8.8319 2.9395 -1.9676 0.9627
8.7228 3.2536 -1.9679 0.9627
8.6028 3.5634 -1.9683 0.9626
8.4718 3.8690 -1.9687 0.9626
8.0154 4.7558 -1.9701 0.9626
7.6600 5.3184 -1.9712 0.9626
7.0542 6.1125 -1.9730 0.9626
6.8339 6.3626 -1.9737 0.9625
5.8664 7.2797 -1.9763 0.9625
5.3192 7.6611 -1.9715 0.9626
4.5792 7.7178 -1.8969 0.9640
2.7400 8.2324 -1.8340 0.9651
1.8470 8.4907 -1.8367 0.9651
0.9303 8.6527 -1.8395 0.9650
0.3109 8.7059 -1.8414 0.9650
-0.3113 8.7149 -1.8433 0.9650
-0.6224 8.7027 -1.8443 0.9650
-0.9331 8.6794 -1.8452 0.9649
-1.2430 8.6450 -1.8462 0.9649
-2.4656 8.3970 -1.8499 0.9649
-2.7651 8.3078 -1.8508 0.9648
-3.6426 7.9761 -1.8535 0.9648
-3.9268 7.8447 -1.8543 0.9648
-4.9534 7.7076 -1.9367 0.9632
-5.6870 7.5970 -2.0060 0.9619
-6.2382 7.1992 -2.0136 0.9618
-7.6421 5.7208 -2.0179 0.9617
-7.8437 5.4460 -2.0185 0.9617
-8.0354 5.1641 -2.0190 0.9617
-8.2169 4.8753 -2.0196 0.9617
-8.5480 4.2788 -2.0206 0.9617
-9.1806 2.6957 -2.0225 0.9616
-9.5675 0.3417 -2.0237 0.9616
8.3776 0.0000 -1.9689 0.9662
8.3565 0.5977 -1.9690 0.9662
8.3302 0.8956 -1.9691 0.9662
8.2934 1.1924 -1.9692 0.9662
8.1886 1.7813 -1.9695 0.9662
8.1207 2.0727 -1.9697 0.9661
8.0425 2.3615 -1.9700 0.9661
7.7476 3.2092 -1.9709 0.9661
7.6295 3.4843 -1.9712 0.9661
7.2180 4.2826 -1.9725 0.9661
7.0622 4.5386 -1.9730 0.9661
6.1528 5.7285 -1.9758 0.9660
5.9464 5.9464 -1.9764 0.9660
5.7322 6.1568 -1.9771 0.9660
5.5107 6.3597 -1.9777 0.9660
5.2821 6.5547 -1.9784 0.9660
5.0466 6.7415 -1.9792 0.9660
4.8046 6.9199 -1.9799 0.9660
4.5563 7.0897 -1.9807 0.9660
4.3020 7.2506 -1.9814 0.9660
4.0373 7.3937 -1.9799 0.9660
3.4947 7.6523 -1.9771 0.9660
3.1918 7.7056 -1.9602 0.9663
2.8758 7.7104 -1.9341 0.9668
2.5676 7.7146 -1.9109 0.9671
2.2663 7.7182 -1.8905 0.9675
1.6803 7.7241 -1.8578 0.9680
1.1136 7.7450 -1.8390 0.9684
0.8368 7.7834 -1.8398 0.9683
0.0000 7.8391 -1.8424 0.9683
-0.5597 7.8264 -1.8441 0.9683
-1.9705 7.7203 -1.8726 0.9678
-2.5672 7.7131 -1.9105 0.9671
-2.8752 7.7087 -1.9337 0.9668
-3.5157 7.6983 -1.9890 0.9658
-4.0846 7.4803 -2.0031 0.9656
-4.3558 7.3414 -2.0062 0.9655
-4.8762 7.0231 -2.0094 0.9655
-5.1257 6.8472 -2.0102 0.9655
-5.3688 6.6623 -2.0109 0.9655
-6.2709 5.8384 -2.0137 0.9654
-6.6755 5.3794 -2.0149 0.9654
-6.8652 5.1392 -2.0155 0.9654
-7.0461 4.8922 -2.0160 0.9654
-7.2181 4.6388 -2.0166 0.9654
-7.6779 3.8433 -2.0179 0.9653
-7.8118 3.5675 -2.0183 0.9653
-7.9356 3.2871 -2.0187 0.9653
-8.2454 2.4211 -2.0197 0.9653
-8.3990 1.8271 -2.0201 0.9653
-8.4596 1.5263 -2.0203 0.9653
-8.5093 1.2235 -2.0204 0.9653
-8.5924 0.3069 -2.0207 0.9653
7.5943 0.5432 -1.9713 0.9690
7.5704 0.8139 -1.9714 0.9690
7.4939 1.3521 -1.9716 0.9690
7.3797 1.8836 -1.9720 0.9690
7.2282 2.4058 -1.9725 0.9690
7.1388 2.6626 -1.9727 0.9690
6.9328 3.1661 -1.9734 0.9690
6.5585 3.8913 -1.9745 0.9690
6.4168 4.1239 -1.9750 0.9690
6.1092 4.5733 -1.9759 0.9690
5.5899 5.2043 -1.9775 0.9689
5.4021 5.4021 -1.9781 0.9689
5.0060 5.7773 -1.9793 0.9689
4.7982 5.9542 -1.9799 0.9689
4.5841 6.1237 -1.9806 0.9689
3.4301 6.8525 -1.9841 0.9688
2.6810 7.1882 -1.9864 0.9688
2.4232 7.2804 -1.9867 0.9688
2.1612 7.3602 -1.9861 0.9688
1.8967 7.4311 -1.9857 0.9688
1.6300 7.4932 -1.9855 0.9688
1.3615 7.5463 -1.9854 0.9688
0.8198 7.6254 -1.9857 0.9688
0.2739 7.6680 -1.9867 0.9688
-0.2741 7.6740 -1.9882 0.9688
-0.8217 7.6433 -1.9904 0.9687
-2.4401 7.3313 -2.0006 0.9686
-3.7128 6.7995 -2.0059 0.9685
-3.9546 6.6651 -2.0066 0.9685
-4.4232 6.3705 -2.0080 0.9685
-5.0839 5.8671 -2.0101 0.9684
-5.6871 5.2949 -2.0119 0.9684
-6.0537 4.8783 -2.0130 0.9684
-6.2256 4.6604 -2.0135 0.9684
-6.3895 4.4363 -2.0140 0.9684
-6.9618 3.4848 -2.0158 0.9683
-7.0831 3.2347 -2.0161 0.9683
-7.1952 2.9803 -2.0165 0.9683
-7.2981 2.7221 -2.0168 0.9683
-7.3917 2.4602 -2.0171 0.9683
-7.5501 1.9271 -2.0175 0.9683
-7.6148 1.6565 -2.0177 0.9683
-7.6697 1.3838 -2.0179 0.9683
-7.7147 1.1092 -2.0180 0.9683
-7.7498 0.8332 -2.0181 0.9683
-7.7749 0.5561 -2.0182 0.9683
-7.7900 0.2782 -2.0182 0.9683
6.9702 0.0000 -1.9732 0.9714
6.9527 0.4973 -1.9733 0.9714
6.9307 0.7451 -1.9733 0.9714
6.9000 0.9921 -1.9734 0.9714
6.8607 1.2378 -1.9736 0.9714
6.7560 1.7244 -1.9739 0.9714
6.6908 1.9646 -1.9741 0.9714
6.2401 3.1236 -1.9755 0.9714
6.1257 3.3449 -1.9758 0.9714
5.8738 3.7748 -1.9766 0.9714
5.5920 4.1861 -1.9775 0.9714
5.4403 4.3841 -1.9779 0.9714
5.2816 4.5766 -1.9784 0.9714
4.7660 5.1190 -1.9800 0.9713
4.3912 5.4491 -1.9811 0.9713
4.1951 5.6041 -1.9817 0.9713
3.9937 5.7520 -1.9824 0.9713
3.5755 6.0262 -1.9836 0.9713
2.9138 6.3803 -1.9857 0.9713
2.4529 6.5766 -1.9871 0.9712
2.2175 6.6624 -1.9878 0.9712
1.2486 6.9204 -1.9908 0.9712
1.0012 6.9632 -1.9915 0.9712
0.5022 7.0222 -1.9930 0.9712
0.0000 7.0456 -1.9946 0.9711
-0.2516 7.0438 -1.9953 0.9711
-0.5030 7.0331 -1.9961 0.9711
-0.7540 7.0133 -1.9969 0.9711
-1.0042 6.9846 -1.9976 0.9711
-1.2534 6.9469 -1.9984 0.9711
-2.2326 6.7078 -2.0014 0.9710
-2.4715 6.6263 -2.0021 0.9710
-2.9400 6.4377 -2.0035 0.9710
-3.6150 6.0928 -2.0056 0.9710
-3.8314 5.9618 -2.0062 0.9710
-4.0431 5.8231 -2.0069 0.9710
-4.2497 5.6769 -2.0075 0.9710
-4.6466 5.3625 -2.0087 0.9709
-5.1976 4.8391 -2.0104 0.9709
-5.3683 4.6517 -2.0109 0.9709
-5.5323 4.4582 -2.0114 0.9709
-5.6893 4.2589 -2.0119 0.9709
-5.8390 4.0541 -2.0123 0.9709
-5.9812 3.8439 -2.0128 0.9709
-6.1159 3.6287 -2.0132 0.9709
-6.2427 3.4087 -2.0136 0.9709
-6.4722 2.9558 -2.0143 0.9709
-6.5746 2.7233 -2.0146 0.9708
-6.7539 2.2479 -2.0151 0.9708
-6.8306 2.0056 -2.0153 0.9708
-6.9576 1.5135 -2.0157 0.9708
-7.1037 0.5081 -2.0162 0.9708
6.4208 0.0000 -1.9749 0.9735
6.3561 0.9139 -1.9751 0.9735
6.3198 1.1402 -1.9752 0.9735
6.0198 2.2452 -1.9761 0.9735
5.9366 2.4590 -1.9764 0.9735
5.8458 2.6697 -1.9767 0.9735
5.5297 3.2809 -1.9776 0.9735
5.2835 3.6684 -1.9784 0.9734
5.1503 3.8555 -1.9788 0.9734
4.8643 4.2149 -1.9797 0.9734
4.2191 4.8692 -1.9817 0.9734
3.8631 5.1606 -1.9828 0.9734
3.6776 5.2967 -1.9833 0.9734
2.8898 5.7731 -1.9857 0.9733
2.6828 5.8745 -1.9864 0.9733
2.0415 6.1336 -1.9883 0.9733
1.5998 6.2679 -1.9897 0.9733
1.1494 6.3704 -1.9910 0.9733
0.9216 6.4096 -1.9917 0.9733
0.0000 6.4847 -1.9946 0.9732
-0.9242 6.4278 -1.9974 0.9732
-1.3813 6.3499 -1.9988 0.9732
-2.0543 6.1722 -2.0008 0.9731
-2.2740 6.0969 -2.0015 0.9731
-3.3258 5.6053 -2.0047 0.9731
-3.5248 5.4846 -2.0053 0.9731
-3.7194 5.3569 -2.0059 0.9731
-3.9093 5.2223 -2.0065 0.9731
-4.0944 5.0808 -2.0070 0.9731
-4.4488 4.7784 -2.0081 0.9730
-4.6177 4.6177 -2.0086 0.9730
-4.7808 4.4510 -2.0091 0.9730
-5.0885 4.1005 -2.0100 0.9730
-5.2327 3.9172 -2.0105 0.9730
-5.3703 3.7287 -2.0109 0.9730
-5.6248 3.3373 -2.0117 0.9730
-5.7414 3.1350 -2.0120 0.9730
-5.8505 2.9286 -2.0124 0.9730
-5.9523 2.7183 -2.0127 0.9730
-6.0463 2.5045 -2.0130 0.9730
-6.1327 2.2874 -2.0132 0.9730
-6.2111 2.0673 -2.0134 0.9730
-6.3983 1.3919 -2.0140 0.9730
-6.4821 0.9320 -2.0143 0.9730
-6.5452 0.2338 -2.0144 0.9730
5.9456 0.0000 -1.9763 0.9752
5.9418 0.2122 -1.9764 0.9752
5.9306 0.4242 -1.9764 0.9752
5.9118 0.6356 -1.9765 0.9752
5.8520 1.0558 -1.9766 0.9752
5.8110 1.2641 -1.9768 0.9752
5.7626 1.4708 -1.9769 0.9752
5.7069 1.6757 -1.9771 0.9752
5.5740 2.0790 -1.9775 0.9752
5.4969 2.2769 -1.9777 0.9752
5.4128 2.4720 -1.9780 0.9752
5.3219 2.6639 -1.9783 0.9752
5.2242 2.8526 -1.9786 0.9752
5.1199 3.0378 -1.9789 0.9752
4.6389 3.7383 -1.9804 0.9752
3.9059 4.5076 -1.9826 0.9752
3.5762 4.7772 -1.9836 0.9752
3.2280 5.0229 -1.9847 0.9751
3.0475 5.1363 -1.9852 0.9751
2.8631 5.2433 -1.9858 0.9751
2.6749 5.3437 -1.9864 0.9751
2.4832 5.4374 -1.9870 0.9751
2.0902 5.6040 -1.9882 0.9751
1.6861 5.7424 -1.9894 0.9751
1.4806 5.8008 -1.9900 0.9751
0.6408 5.9601 -1.9926 0.9750
0.4278 5.9811 -1.9932 0.9750
0.2141 5.9946 -1.9939 0.9750
-0.2142 5.9985 -1.9952 0.9750
-0.4283 5.9890 -1.9959 0.9750
-0.6420 5.9718 -1.9965 0.9750
-0.8551 5.9470 -1.9972 0.9750
-1.0671 5.9146 -1.9978 0.9750
-1.4873 5.8272 -1.9991 0.9750
-1.6949 5.7722 -1.9997 0.9750
-2.1036 5.6401 -2.0010 0.9749
-2.3043 5.5631 -2.0016 0.9749
-3.4401 4.9547 -2.0050 0.9749
-3.6157 4.8301 -2.0056 0.9749
-3.7868 4.6992 -2.0061 0.9749
-3.9531 4.5621 -2.0066 0.9749
-4.2706 4.2705 -2.0076 0.9749
-4.5664 3.9568 -2.0085 0.9749
-4.9662 3.4481 -2.0097 0.9748
-5.0870 3.2692 -2.0100 0.9748
-5.2013 3.0861 -2.0104 0.9748
-5.3090 2.8990 -2.0107 0.9748
-5.4100 2.7080 -2.0110 0.9748
-5.5909 2.3158 -2.0116 0.9748
-5.7432 1.9115 -2.0120 0.9748
-5.9586 1.0750 -2.0127 0.9748
-6.0207 0.6473 -2.0129 0.9748
-6.0518 0.2162 -2.0129 0.9748
5.5301 0.0000 -1.9776 0.9768
5.4987 0.5912 -1.9777 0.9768
5.4048 1.1758 -1.9780 0.9768
5.3598 1.3680 -1.9781 0.9768
5.3080 1.5586 -1.9783 0.9768
5.2494 1.7472 -1.9785 0.9768
5.1843 1.9336 -1.9787 0.9768
5.1125 2.1177 -1.9789 0.9768
5.0343 2.2991 -1.9791 0.9768
4.9497 2.4776 -1.9794 0.9768
4.8394 2.6424 -1.9718 0.9768
4.7617 2.8252 -1.9800 0.9768
4.6586 2.9939 -1.9803 0.9768
3.7786 4.0585 -1.9830 0.9767
3.4810 4.3197 -1.9839 0.9767
3.1655 4.5592 -1.9849 0.9767
3.0016 4.6705 -1.9854 0.9767
2.8337 4.7759 -1.9859 0.9767
2.6621 4.8753 -1.9864 0.9767
2.4871 4.9685 -1.9869 0.9767
2.1275 5.1361 -1.9880 0.9767
1.9433 5.2103 -1.9886 0.9767
1.7566 5.2778 -1.9892 0.9766
1.3764 5.3928 -1.9903 0.9766
0.9888 5.4805 -1.9915 0.9766
0.3977 5.5599 -1.9933 0.9766
0.0000 5.5775 -1.9945 0.9766
-0.1991 5.5756 -1.9952 0.9766
-0.3981 5.5666 -1.9958 0.9766
-0.5967 5.5506 -1.9964 0.9766
-1.1877 5.4599 -1.9982 0.9765
-1.9549 5.2414 -2.0005 0.9765
-2.1414 5.1698 -2.0011 0.9765
-2.5061 5.0066 -2.0022 0.9765
-2.6840 4.9153 -2.0027 0.9765
-2.8584 4.8176 -2.0033 0.9765
-3.1965 4.6038 -2.0043 0.9765
-3.5185 4.3662 -2.0053 0.9765
-3.6730 4.2388 -2.0057 0.9765
-4.1077 3.8244 -2.0071 0.9764
-4.2425 3.6761 -2.0075 0.9764
-4.3718 3.5230 -2.0079 0.9764
-4.9321 2.6931 -2.0096 0.9764
-5.0258 2.5157 -2.0098 0.9764
-5.1130 2.3350 -2.0101 0.9764
-5.1937 2.1513 -2.0103 0.9764
-5.3351 1.7757 -2.0108 0.9764
-5.3956 1.5843 -2.0110 0.9764
-5.6217 0.2008 -2.0116 0.9764
5.1602 0.1843 -1.9787 0.9781
5.1504 0.3684 -1.9788 0.9781
5.1341 0.5520 -1.9788 0.9781
5.0464 1.0978 -1.9791 0.9781
5.0043 1.2773 -1.9792 0.9781
4.9012 1.6313 -1.9795 0.9781
4.8404 1.8054 -1.9797 0.9781
4.7733 1.9772 -1.9799 0.9781
4.7003 2.1465 -1.9802 0.9781
4.6212 2.3132 -1.9804 0.9781
4.4456 2.6377 -1.9809 0.9781
4.3493 2.7951 -1.9812 0.9781
4.2474 2.9490 -1.9816 0.9781
4.0276 3.2456 -1.9822 0.9781
3.7872 3.5260 -1.9830 0.9781
3.5274 3.7887 -1.9838 0.9781
3.2495 4.0324 -1.9846 0.9781
3.1042 4.1468 -1.9851 0.9781
2.9549 4.2559 -1.9855 0.9781
2.6451 4.4580 -1.9865 0.9780
2.1550 4.7188 -1.9880 0.9780
1.8138 4.8630 -1.9890 0.9780
1.6395 4.9260 -1.9895 0.9780
1.2846 5.0331 -1.9906 0.9780
1.1045 5.0771 -1.9912 0.9780
0.9228 5.1148 -1.9917 0.9780
0.5559 5.1705 -1.9928 0.9780
0.3711 5.1885 -1.9934 0.9780
-0.1858 5.2029 -1.9951 0.9779
-0.3715 5.1944 -1.9957 0.9779
-0.5568 5.1793 -1.9962 0.9779
-0.7415 5.1576 -1.9968 0.9779
-0.9254 5.1293 -1.9974 0.9779
-1.1082 5.0944 -1.9979 0.9779
-1.6478 4.9508 -1.9996 0.9779
-1.9978 4.8232 -2.0006 0.9779
-2.1693 4.7501 -2.0012 0.9779
-2.5039 4.5855 -2.0022 0.9779
-2.6666 4.4944 -2.0027 0.9779
-2.8260 4.3974 -2.0032 0.9779
-2.9819 4.2947 -2.0036 0.9779
-3.1340 4.1865 -2.0041 0.9778
-3.4262 3.9540 -2.0050 0.9778
-3.7011 3.7011 -2.0058 0.9778
-3.8316 3.5673 -2.0062 0.9778
-3.9572 3.4289 -2.0066 0.9778
-4.0778 3.2861 -2.0070 0.9778
-4.3033 2.9879 -2.0076 0.9778
-4.4079 2.8328 -2.0080 0.9778
-4.5069 2.6741 -2.0083 0.9778
-4.6875 2.3464 -2.0088 0.9778
-4.7688 2.1778 -2.0091 0.9778
-4.9131 1.8325 -2.0095 0.9778
-4.9758 1.6561 -2.0097 0.9778
-5.0821 1.2971 -2.0100 0.9778
-5.1623 0.9314 -2.0102 0.9778
-5.1925 0.7466 -2.0103 0.9778
-5.2328 0.3743 -2.0104 0.9778
-5.2429 0.1873 -2.0105 0.9778
4.8371 0.0000 -1.9797 0.9793
4.8341 0.1726 -1.9797 0.9793
4.8249 0.3451 -1.9798 0.9793
4.7883 0.6885 -1.9799 0.9793
4.7609 0.8590 -1.9800 0.9793
4.6426 1.3632 -1.9803 0.9793
4.5914 1.5282 -1.9805 0.9793
4.5343 1.6912 -1.9807 0.9793
4.4030 2.0108 -1.9811 0.9793
4.3289 2.1669 -1.9813 0.9793
4.2494 2.3203 -1.9815 0.9793
4.0741 2.6183 -1.9821 0.9793
3.9787 2.7624 -1.9824 0.9793
3.8781 2.9031 -1.9827 0.9793
3.6624 3.1734 -1.9833 0.9793
3.5474 3.3027 -1.9837 0.9793
3.4279 3.4279 -1.9841 0.9793
3.0436 3.7769 -1.9852 0.9793
2.9075 3.8839 -1.9857 0.9792
2.6241 4.0832 -1.9865 0.9792
2.4773 4.1752 -1.9870 0.9792
2.0182 4.4192 -1.9884 0.9792
1.5354 4.6131 -1.9898 0.9792
1.2030 4.7133 -1.9909 0.9792
1.0343 4.7544 -1.9914 0.9792
0.8641 4.7896 -1.9919 0.9792
0.6928 4.8186 -1.9924 0.9792
0.1739 4.8689 -1.9940 0.9792
0.0000 4.8733 -1.9945 0.9792
-0.3478 4.8635 -1.9956 0.9791
-1.0375 4.7695 -1.9977 0.9791
-1.2074 4.7307 -1.9982 0.9791
-1.3759 4.6858 -1.9987 0.9791
-1.5426 4.6349 -1.9992 0.9791
-1.8703 4.5152 -2.0002 0.9791
-2.0307 4.4467 -2.0007 0.9791
-2.1887 4.3724 -2.0012 0.9791
-2.3439 4.2925 -2.0017 0.9791
-2.9336 3.9188 -2.0035 0.9791
-3.2070 3.7011 -2.0043 0.9791
-3.3377 3.5849 -2.0047 0.9791
-3.5863 3.3390 -2.0055 0.9790
-4.0277 2.7965 -2.0068 0.9790
-4.3053 2.3509 -2.0076 0.9790
-4.5981 1.7150 -2.0085 0.9790
-4.7095 1.3828 -2.0089 0.9790
-4.8595 0.6987 -2.0093 0.9790
-4.8815 0.5248 -2.0094 0.9790
4.5446 0.0000 -1.9806 0.9804
4.5417 0.1622 -1.9806 0.9804
4.5331 0.3242 -1.9807 0.9804
4.4987 0.6468 -1.9808 0.9804
4.4415 0.9662 -1.9809 0.9804
4.2600 1.5889 -1.9815 0.9804
4.2009 1.7401 -1.9817 0.9804
4.1366 1.8891 -1.9819 0.9804
4.0669 2.0358 -1.9821 0.9804
3.9922 2.1799 -1.9823 0.9803
3.8274 2.4597 -1.9828 0.9803
3.6433 2.7273 -1.9834 0.9803
3.4405 2.9812 -1.9840 0.9803
3.3324 3.1026 -1.9843 0.9803
3.1037 3.3336 -1.9850 0.9803
2.9833 3.4429 -1.9854 0.9803
2.7311 3.6484 -1.9862 0.9803
2.5997 3.7443 -1.9866 0.9803
2.4649 3.8355 -1.9870 0.9803
2.3270 3.9219 -1.9874 0.9803
2.1860 4.0033 -1.9879 0.9803
2.0421 4.0796 -1.9883 0.9803
1.8957 4.1509 -1.9887 0.9803
1.5954 4.2775 -1.9897 0.9803
1.1299 4.4267 -1.9911 0.9803
0.9714 4.4653 -1.9916 0.9803
0.8116 4.4982 -1.9921 0.9803
0.6507 4.5254 -1.9925 0.9802
0.3263 4.5626 -1.9935 0.9802
-0.1634 4.5748 -1.9950 0.9802
-0.3266 4.5672 -1.9955 0.9802
-0.4896 4.5537 -1.9960 0.9802
-0.6520 4.5345 -1.9965 0.9802
-0.8136 4.5094 -1.9970 0.9802
-1.7561 4.2395 -1.9999 0.9802
-2.6206 3.7743 -2.0025 0.9802
-3.0108 3.4746 -2.0037 0.9801
-3.1335 3.3655 -2.0041 0.9801
-3.2522 3.2522 -2.0044 0.9801
-3.5830 2.8873 -2.0054 0.9801
-3.7810 2.6252 -2.0060 0.9801
-3.8728 2.4889 -2.0063 0.9801
-3.9597 2.3494 -2.0066 0.9801
-4.1896 1.9133 -2.0073 0.9801
-1.5118 0.5639 -0.7032 0.9930
-1.3722 0.4029 -0.6233 0.9938
-1.3400 0.3420 -0.6027 0.9940
-1.3688 0.2978 -0.6105 0.9939
-1.3956 0.2518 -0.6180 0.9938
-1.4360 0.1544 -0.6294 0.9937
-1.4571 0.0520 -0.6354 0.9937
4.2806 0.0000 -1.9814 0.9813
4.2779 0.1528 -1.9814 0.9813
4.2562 0.4576 -1.9815 0.9813
4.2373 0.6092 -1.9816 0.9813
4.2130 0.7601 -1.9816 0.9813
4.1834 0.9100 -1.9817 0.9813
3.9568 1.6389 -1.9824 0.9813
3.8305 1.9174 -1.9828 0.9813
3.6848 2.1863 -1.9833 0.9813
3.5203 2.4442 -1.9838 0.9813
3.4313 2.5687 -1.9840 0.9813
3.1385 2.9221 -1.9849 0.9813
2.8096 3.2424 -1.9859 0.9813
2.6926 3.3412 -1.9863 0.9813
2.5721 3.4359 -1.9867 0.9813
2.4483 3.5261 -1.9871 0.9813
2.3213 3.6120 -1.9874 0.9813
2.1913 3.6933 -1.9878 0.9812
2.0585 3.7699 -1.9882 0.9812
1.2117 4.1267 -1.9908 0.9812
1.0639 4.1683 -1.9913 0.9812
0.7642 4.2355 -1.9922 0.9812
0.6127 4.2611 -1.9927 0.9812
0.4603 4.2812 -1.9931 0.9812
0.3072 4.2959 -1.9936 0.9812
0.0000 4.3089 -1.9945 0.9812
-0.6138 4.2690 -1.9964 0.9812
-0.9172 4.2163 -1.9973 0.9812
-1.3636 4.0969 -1.9987 0.9811
-1.5093 4.0465 -1.9991 0.9811
-1.6531 3.9910 -1.9996 0.9811
-1.7949 3.9303 -2.0000 0.9811
-1.9344 3.8645 -2.0004 0.9811
-2.4667 3.5527 -2.0020 0.9811
-2.7149 3.3690 -2.0028 0.9811
-2.9494 3.1679 -2.0035 0.9811
-3.2727 2.8358 -2.0045 0.9811
-3.3724 2.7176 -2.0048 0.9811
-3.5587 2.4708 -2.0054 0.9811
-3.6451 2.3425 -2.0056 0.9811
-3.7268 2.2112 -2.0059 0.9811
-3.9431 1.8007 -2.0065 0.9811
-1.2017 0.4482 -0.5937 0.9944
-1.2261 0.1318 -0.5708 0.9946
-1.2362 0.0884 -0.5737 0.9946
4.0409 0.0000 -1.9822 0.9822
4.0307 0.2883 -1.9822 0.9822
3.9771 0.7176 -1.9824 0.9822
3.9161 0.9995 -1.9825 0.9822
3.8782 1.1388 -1.9827 0.9822
3.7351 1.5471 -1.9831 0.9821
3.6778 1.6796 -1.9833 0.9821
3.6159 1.8100 -1.9835 0.9821
3.5493 1.9381 -1.9837 0.9821
3.4783 2.0638 -1.9839 0.9821
3.4028 2.1868 -1.9841 0.9821
3.2389 2.4246 -1.9846 0.9821
3.0586 2.6503 -1.9852 0.9821
2.9625 2.7581 -1.9855 0.9821
2.8626 2.8626 -1.9858 0.9821
2.7590 2.9634 -1.9861 0.9821
2.6519 3.0605 -1.9864 0.9821
2.4277 3.2430 -1.9871 0.9821
2.0682 3.4858 -1.9882 0.9821
1.9429 3.5581 -1.9886 0.9821
1.8150 3.6259 -1.9890 0.9821
1.6848 3.6891 -1.9894 0.9821
1.5523 3.7477 -1.9898 0.9821
1.2816 3.8505 -1.9906 0.9821
1.1436 3.8946 -1.9910 0.9821
1.0040 3.9337 -1.9915 0.9821
0.8632 3.9679 -1.9919 0.9821
0.1451 4.0626 -1.9941 0.9821
-0.1452 4.0644 -1.9950 0.9820
-0.5792 4.0283 -1.9963 0.9820
-0.7227 4.0059 -1.9967 0.9820
-1.4241 3.8180 -1.9989 0.9820
-1.8251 3.6462 -2.0001 0.9820
-2.2057 3.4322 -2.0012 0.9820
-2.3272 3.3519 -2.0016 0.9820
-2.6736 3.0855 -2.0027 0.9820
-2.7825 2.9886 -2.0030 0.9820
-2.8879 2.8879 -2.0033 0.9820
-3.1814 2.5637 -2.0042 0.9820
-3.2714 2.4489 -2.0045 0.9820
-3.4386 2.2098 -2.0050 0.9820
-3.5157 2.0860 -2.0052 0.9820
-1.0444 0.4770 -0.5632 0.9949
-1.0290 0.4262 -0.5463 0.9951
-1.0119 0.3774 -0.5298 0.9952
-1.0025 0.3337 -0.5183 0.9953
-1.0175 0.2987 -0.5202 0.9953
-1.0307 0.2631 -0.5218 0.9953
-1.0422 0.2267 -0.5232 0.9953
-1.0769 0.0770 -0.5296 0.9952
-1.0803 0.0386 -0.5302 0.9952
3.8221 0.0000 -1.9828 0.9829
3.8124 0.2727 -1.9829 0.9829
3.8003 0.4086 -1.9829 0.9829
3.7353 0.8126 -1.9831 0.9829
3.7041 0.9454 -1.9832 0.9829
3.6682 1.0771 -1.9833 0.9829
3.5824 1.3362 -1.9836 0.9829
3.5328 1.4633 -1.9837 0.9829
3.4786 1.5886 -1.9839 0.9829
3.2898 1.9519 -1.9845 0.9829
3.2184 2.0683 -1.9847 0.9829
3.1429 2.1822 -1.9849 0.9829
3.0633 2.2932 -1.9852 0.9829
2.9799 2.4014 -1.9854 0.9829
2.8927 2.5066 -1.9857 0.9829
2.8018 2.6086 -1.9860 0.9829
2.7073 2.7073 -1.9863 0.9829
2.4035 2.9826 -1.9872 0.9829
2.2959 3.0670 -1.9875 0.9829
2.1854 3.1475 -1.9878 0.9829
2.0720 3.2241 -1.9882 0.9829
1.9559 3.2965 -1.9886 0.9829
1.8374 3.3649 -1.9889 0.9829
1.5932 3.4887 -1.9897 0.9829
1.4680 3.5440 -1.9900 0.9829
1.2119 3.6411 -1.9908 0.9829
0.6819 3.7796 -1.9924 0.9828
0.4107 3.8202 -1.9933 0.9828
0.0000 3.8446 -1.9945 0.9828
-0.1373 3.8430 -1.9949 0.9828
-0.4112 3.8250 -1.9958 0.9828
-0.6833 3.7875 -1.9966 0.9828
-0.9522 3.7306 -1.9974 0.9828
-1.2164 3.6547 -1.9982 0.9828
-1.4746 3.5600 -1.9990 0.9828
-1.7255 3.4470 -1.9998 0.9828
-2.3121 3.0887 -2.0016 0.9828
-2.4213 3.0047 -2.0019 0.9828
-2.5274 2.9168 -2.0022 0.9828
-2.6303 2.8252 -2.0025 0.9828
-2.8260 2.6311 -2.0031 0.9828
-2.9185 2.5289 -2.0034 0.9827
-3.0073 2.4235 -2.0037 0.9827
-3.0923 2.3149 -2.0039 0.9827
-3.1734 2.2033 -2.0042 0.9827
-3.3232 1.9718 -2.0046 0.9827
-0.9326 0.4259 -0.5319 0.9954
-0.9271 0.3840 -0.5206 0.9955
-0.9268 0.3085 -0.5067 0.9956
-0.9524 0.2431 -0.5099 0.9956
-0.9628 0.2094 -0.5112 0.9956
-0.9785 0.1407 -0.5129 0.9956
-0.9873 0.0706 -0.5135 0.9955
3.6122 0.2583 -1.9835 0.9836
3.6007 0.3871 -1.9835 0.9836
3.4370 1.1440 -1.9840 0.9836
3.2402 1.6220 -1.9846 0.9836
3.1806 1.7367 -1.9848 0.9836
3.0492 1.9596 -1.9852 0.9836
2.9776 2.0674 -1.9854 0.9836
2.9023 2.1726 -1.9857 0.9836
2.7406 2.3747 -1.9861 0.9836
2.6544 2.4714 -1.9864 0.9836
2.3761 2.7421 -1.9873 0.9836
2.2770 2.8256 -1.9876 0.9836
2.1751 2.9055 -1.9879 0.9836
1.9629 3.0543 -1.9885 0.9836
1.6260 3.2483 -1.9896 0.9836
1.0244 3.4886 -1.9914 0.9836
0.8994 3.5236 -1.9918 0.9836
0.7732 3.5542 -1.9922 0.9835
0.5178 3.6017 -1.9929 0.9835
0.1300 3.6386 -1.9941 0.9835
-0.1300 3.6400 -1.9949 0.9835
-0.3895 3.6229 -1.9957 0.9835
-0.7750 3.5626 -1.9969 0.9835
-0.9018 3.5333 -1.9973 0.9835
-1.2751 3.4187 -1.9984 0.9835
-1.3966 3.3716 -1.9988 0.9835
-1.5163 3.3202 -1.9991 0.9835
-1.7499 3.2047 -1.9999 0.9835
-1.8635 3.1407 -2.0002 0.9835
-2.1896 2.9250 -2.0012 0.9835
-2.3935 2.7622 -2.0018 0.9835
-2.5852 2.5852 -2.0024 0.9835
-2.6762 2.4916 -2.0027 0.9835
-2.7638 2.3948 -2.0029 0.9835
-2.8478 2.2949 -2.0032 0.9835
-2.9283 2.1921 -2.0034 0.9835
-3.0779 1.9780 -2.0039 0.9835
-0.8507 0.4645 -0.5309 0.9956
-0.8516 0.4263 -0.5216 0.9957
-0.8603 0.2863 -0.4966 0.9959
-0.8727 0.2562 -0.4982 0.9959
-0.8837 0.2255 -0.4995 0.9958
-0.9127 0.0981 -0.5028 0.9958
3.4364 0.0000 -1.9840 0.9843
3.4342 0.1226 -1.9840 0.9843
3.4016 0.4891 -1.9841 0.9843
3.3821 0.6102 -1.9842 0.9843
3.3583 0.7305 -1.9842 0.9843
3.3302 0.8500 -1.9843 0.9843
3.2208 1.2013 -1.9847 0.9842
3.1761 1.3156 -1.9848 0.9842
3.1274 1.4282 -1.9850 0.9842
3.0746 1.5391 -1.9851 0.9842
3.0180 1.6480 -1.9853 0.9842
2.6789 2.1588 -1.9863 0.9842
2.6004 2.2533 -1.9866 0.9842
2.5187 2.3449 -1.9868 0.9842
2.3456 2.5193 -1.9874 0.9842
2.2545 2.6018 -1.9876 0.9842
2.1605 2.6810 -1.9879 0.9842
1.9643 2.8292 -1.9885 0.9842
1.8624 2.8979 -1.9888 0.9842
1.7580 2.9630 -1.9892 0.9842
1.6514 3.0244 -1.9895 0.9842
1.5427 3.0819 -1.9898 0.9842
1.3194 3.1852 -1.9905 0.9842
0.9718 3.3097 -1.9916 0.9842
0.8532 3.3429 -1.9919 0.9842
0.7335 3.3719 -1.9923 0.9842
0.6128 3.3965 -1.9926 0.9842
0.4913 3.4169 -1.9930 0.9842
-0.2465 3.4471 -1.9953 0.9842
-0.3695 3.4367 -1.9956 0.9842
-0.6140 3.4029 -1.9964 0.9842
-0.7352 3.3794 -1.9968 0.9842
-0.8555 3.3517 -1.9971 0.9841
-1.3247 3.1981 -1.9986 0.9841
-1.8730 2.9145 -2.0002 0.9841
-1.9762 2.8462 -2.0005 0.9841
-2.2701 2.6199 -2.0014 0.9841
-2.4519 2.4519 -2.0020 0.9841
-2.6213 2.2713 -2.0025 0.9841
-2.7773 2.0790 -2.0030 0.9841
-0.7787 0.4252 -0.5122 0.9959
-0.7809 0.3566 -0.4957 0.9960
-0.7887 0.2942 -0.4860 0.9961
-0.8230 0.2101 -0.4904 0.9961
-0.8318 0.1809 -0.4915 0.9961
-0.8393 0.1514 -0.4924 0.9961
-0.8499 0.0914 -0.4935 0.9961
