ply
format ascii 1.0
element vertex 722
property float32 x
property float32 y
property float32 z
property float32 I
end_header
9.6606 1.3890 -0.7156 0.9616
9.2495 2.0121 -0.6941 0.9627
9.3049 2.3749 -0.7041 0.9622
8.6299 1.8773 -0.8479 0.9651
8.6672 2.2122 -0.8588 0.9647
8.7643 2.5734 -0.8769 0.9640
9.1777 1.3195 -1.1014 0.9633
8.5792 1.8663 -1.0429 0.9653
8.6033 2.1958 -1.0547 0.9649
8.5384 1.8574 -1.2381 0.9653
8.5611 2.1851 -1.2519 0.9649
8.6549 2.5413 -1.2781 0.9642
8.8888 2.9585 -1.3274 0.9629
9.1198 1.3112 -1.5178 0.9633
8.5407 1.8579 -1.4399 0.9652
8.5662 2.1864 -1.4564 0.9648
8.6890 2.5513 -1.4919 0.9640
9.1206 1.3113 -1.7319 0.9632
6.0854 7.5514 -1.8229 0.9613
5.4648 7.8708 -1.8010 0.9618
5.1820 8.0633 -1.8016 0.9617
4.2950 8.5804 -1.8035 0.9617
3.9877 8.7318 -1.8043 0.9617
3.6751 8.8725 -1.8051 0.9617
3.3577 9.0023 -1.8059 0.9616
2.3798 9.3241 -1.8088 0.9616
1.7106 9.4811 -1.8109 0.9615
1.0311 9.5910 -1.8131 0.9615
-1.0355 9.6315 -1.8208 0.9613
-2.0639 9.4878 -1.8250 0.9613
-2.7400 9.3315 -1.8280 0.9612
-3.4043 9.1274 -1.8310 0.9611
-3.7311 9.0077 -1.8326 0.9611
-4.3717 8.7335 -1.8357 0.9610
-4.6847 8.5793 -1.8373 0.9610
-4.9922 8.4140 -1.8389 0.9610
-5.5895 8.0504 -1.8421 0.9609
9.2722 -0.0000 -1.9600 0.9628
9.2623 0.3308 -1.9591 0.9628
9.2408 0.6609 -1.9583 0.9628
9.0401 1.9665 -1.9556 0.9629
8.8719 2.6050 -1.9545 0.9629
8.7712 2.9193 -1.9540 0.9629
8.6596 3.2298 -1.9536 0.9629
8.5372 3.5362 -1.9533 0.9629
7.9433 4.7130 -1.9524 0.9629
7.5863 5.2673 -1.9522 0.9629
7.3935 5.5347 -1.9522 0.9629
6.9805 6.0486 -1.9524 0.9629
6.7608 6.2945 -1.9526 0.9629
6.5325 6.5325 -1.9528 0.9629
5.7961 7.1925 -1.9526 0.9629
5.2574 7.5721 -1.9486 0.9630
4.5921 7.7396 -1.9023 0.9639
3.2754 7.9074 -1.8092 0.9656
2.9923 8.0226 -1.8099 0.9656
2.7052 8.1279 -1.8107 0.9656
2.1205 8.3080 -1.8124 0.9656
1.5240 8.4468 -1.8143 0.9655
1.2222 8.5005 -1.8153 0.9655
0.6134 8.5759 -1.8174 0.9655
0.3071 8.5975 -1.8185 0.9654
0.0000 8.6083 -1.8196 0.9654
-0.6149 8.5974 -1.8220 0.9654
-1.2283 8.5431 -1.8244 0.9653
-1.5335 8.4997 -1.8257 0.9653
-1.8372 8.4455 -1.8270 0.9653
-2.1390 8.3806 -1.8283 0.9653
-3.0293 8.1218 -1.8323 0.9652
-3.3202 8.0157 -1.8340 0.9652
-3.9838 7.9587 -1.8813 0.9643
-4.6853 7.8967 -1.9409 0.9632
-5.3647 7.7267 -1.9883 0.9623
-5.6488 7.5459 -1.9925 0.9622
-6.6975 6.6975 -2.0021 0.9620
-7.3919 5.9568 -2.0067 0.9619
-7.6056 5.6935 -2.0082 0.9619
-7.8097 5.4224 -2.0097 0.9619
-8.0042 5.1440 -2.0112 0.9618
-8.9519 3.3389 -2.0196 0.9617
-9.1789 2.6952 -2.0222 0.9616
-9.2750 2.3673 -2.0234 0.9616
-9.3591 2.0360 -2.0246 0.9616
-9.4912 1.3646 -2.0269 0.9616
-9.5390 1.0255 -2.0280 0.9615
-9.5744 0.6848 -2.0290 0.9615
8.3542 -0.0000 -1.9634 0.9663
8.3266 0.5955 -1.9619 0.9663
8.2573 1.1872 -1.9606 0.9663
8.2071 1.4807 -1.9600 0.9663
8.0762 2.0613 -1.9590 0.9663
7.9956 2.3477 -1.9585 0.9663
7.6945 3.1872 -1.9574 0.9664
7.5748 3.4593 -1.9571 0.9664
7.4456 3.7270 -1.9569 0.9664
7.0031 4.5006 -1.9565 0.9664
6.8379 4.7476 -1.9564 0.9664
6.6641 4.9887 -1.9564 0.9664
6.4820 5.2235 -1.9565 0.9664
6.0936 5.6733 -1.9568 0.9664
5.6746 6.0950 -1.9572 0.9664
4.9932 6.6702 -1.9582 0.9663
4.5068 7.0126 -1.9591 0.9663
3.7321 7.4558 -1.9596 0.9663
3.1877 7.6958 -1.9577 0.9664
2.9100 7.8021 -1.9571 0.9664
2.6291 7.8990 -1.9566 0.9664
2.3331 7.9458 -1.9463 0.9665
1.7386 7.9924 -1.9223 0.9669
1.4444 8.0057 -1.9119 0.9671
0.8634 8.0308 -1.8983 0.9674
0.5752 8.0426 -1.8950 0.9674
0.0000 8.0626 -1.8949 0.9674
-0.5767 8.0633 -1.8999 0.9673
-0.8669 8.0630 -1.9059 0.9672
-1.4544 8.0612 -1.9252 0.9669
-1.7512 8.0502 -1.9362 0.9667
-2.3567 8.0263 -1.9660 0.9662
-2.6558 7.9794 -1.9765 0.9660
-3.2270 7.7908 -1.9819 0.9659
-4.3241 7.2879 -1.9916 0.9658
-4.8397 6.9706 -1.9944 0.9657
-5.0890 6.7981 -1.9958 0.9657
-5.3322 6.6168 -1.9972 0.9657
-6.0215 6.0215 -2.0014 0.9656
-6.2369 5.8068 -2.0028 0.9656
-6.8358 5.1173 -2.0069 0.9655
-7.0188 4.8732 -2.0082 0.9655
-7.6606 3.8346 -2.0134 0.9654
-7.7975 3.5610 -2.0146 0.9654
-7.9244 3.2824 -2.0159 0.9654
-8.2442 2.4207 -2.0194 0.9653
-8.4050 1.8284 -2.0216 0.9653
-8.4692 1.5280 -2.0226 0.9653
-8.5226 1.2254 -2.0236 0.9652
7.5696 0.5414 -1.9649 0.9691
7.3431 1.8742 -1.9622 0.9692
7.2700 2.1346 -1.9618 0.9692
6.8877 3.1455 -1.9605 0.9692
6.3681 4.0925 -1.9599 0.9692
6.2179 4.3171 -1.9599 0.9692
6.0598 4.5363 -1.9599 0.9692
5.7212 4.9574 -1.9601 0.9692
5.5410 5.1588 -1.9602 0.9692
5.1599 5.5421 -1.9606 0.9692
4.7528 5.8979 -1.9612 0.9692
4.0976 6.3760 -1.9624 0.9692
3.8684 6.5198 -1.9629 0.9692
3.3953 6.7828 -1.9639 0.9691
2.6533 7.1138 -1.9658 0.9691
2.3986 7.2066 -1.9665 0.9691
1.8798 7.3650 -1.9681 0.9691
1.6164 7.4305 -1.9689 0.9691
0.8140 7.5709 -1.9715 0.9690
0.5434 7.5977 -1.9722 0.9690
-0.2723 7.6234 -1.9751 0.9690
-0.5445 7.6136 -1.9763 0.9690
-0.8164 7.5942 -1.9776 0.9689
-1.8932 7.4176 -1.9821 0.9689
-2.1581 7.3497 -1.9833 0.9688
-3.4393 6.8708 -1.9894 0.9688
-3.9256 6.6163 -1.9919 0.9687
-4.1619 6.4761 -1.9932 0.9687
-4.3932 6.3274 -1.9944 0.9687
-4.6192 6.1705 -1.9957 0.9687
-5.0540 5.8326 -1.9983 0.9686
-6.0282 4.8578 -2.0045 0.9685
-6.2015 4.6424 -2.0057 0.9685
-6.3671 4.4208 -2.0070 0.9685
-6.9477 3.4778 -2.0117 0.9684
-7.3880 2.4590 -2.0160 0.9683
-7.5522 1.9276 -2.0181 0.9683
6.9542 0.0000 -1.9687 0.9715
6.9080 0.7427 -1.9669 0.9715
6.8338 1.2329 -1.9658 0.9715
6.5834 2.1911 -1.9642 0.9716
6.4999 2.4243 -1.9639 0.9716
6.4084 2.6544 -1.9636 0.9716
6.2013 3.1042 -1.9632 0.9716
6.0861 3.3233 -1.9631 0.9716
5.9633 3.5382 -1.9629 0.9716
5.8330 3.7486 -1.9629 0.9716
5.5506 4.1551 -1.9629 0.9716
5.2404 4.5408 -1.9630 0.9716
5.0753 4.7253 -1.9631 0.9716
4.9039 4.9039 -1.9633 0.9716
4.7262 5.0763 -1.9635 0.9716
4.5426 5.2424 -1.9637 0.9716
4.3532 5.4020 -1.9640 0.9716
4.1583 5.5548 -1.9643 0.9716
3.7529 5.8396 -1.9651 0.9716
3.5429 5.9712 -1.9655 0.9715
3.3283 6.0953 -1.9660 0.9715
2.6599 6.4215 -1.9677 0.9715
2.4298 6.5144 -1.9683 0.9715
2.1964 6.5992 -1.9689 0.9715
1.9602 6.6757 -1.9696 0.9715
1.7213 6.7438 -1.9703 0.9715
1.4800 6.8036 -1.9711 0.9715
1.2367 6.8547 -1.9719 0.9715
0.7452 6.9313 -1.9735 0.9714
-0.4985 6.9696 -1.9781 0.9714
-0.9954 6.9232 -1.9801 0.9713
-1.2425 6.8869 -1.9811 0.9713
-2.2147 6.6543 -1.9854 0.9713
-2.6868 6.4866 -1.9876 0.9712
-2.9183 6.3902 -1.9887 0.9712
-3.1463 6.2855 -1.9899 0.9712
-3.3706 6.1728 -1.9910 0.9712
-3.8068 5.9234 -1.9933 0.9712
-4.2246 5.6433 -1.9956 0.9711
-4.4259 5.4922 -1.9968 0.9711
-4.9963 4.9963 -2.0003 0.9711
-5.1744 4.8175 -2.0014 0.9710
-5.5111 4.4411 -2.0037 0.9710
-5.9642 3.8329 -2.0070 0.9710
-6.7509 2.2469 -2.0142 0.9709
-6.8300 2.0055 -2.0152 0.9708
-7.0927 0.7625 -2.0195 0.9708
-7.1344 0.2548 -2.0210 0.9708
6.4073 0.0000 -1.9707 0.9735
6.4013 0.2286 -1.9702 0.9736
6.3872 0.4568 -1.9696 0.9736
6.3351 0.9108 -1.9686 0.9736
6.2512 1.3599 -1.9677 0.9736
6.1974 1.5818 -1.9673 0.9736
6.1359 1.8017 -1.9669 0.9736
6.0667 2.0192 -1.9666 0.9736
5.4956 3.2607 -1.9655 0.9736
5.1153 3.8292 -1.9654 0.9736
4.1862 4.8311 -1.9662 0.9736
4.0116 4.9781 -1.9664 0.9736
3.8320 5.1189 -1.9667 0.9736
3.6474 5.2533 -1.9671 0.9736
3.0669 5.6165 -1.9683 0.9736
2.8651 5.7238 -1.9688 0.9736
2.2387 6.0021 -1.9704 0.9735
1.1393 6.3148 -1.9737 0.9735
0.9136 6.3539 -1.9744 0.9735
0.6865 6.3849 -1.9752 0.9735
0.0000 6.4297 -1.9776 0.9735
-0.2296 6.4285 -1.9785 0.9734
-1.1442 6.3421 -1.9822 0.9734
-1.8183 6.1926 -1.9851 0.9734
-2.4736 5.9719 -1.9882 0.9733
-2.6866 5.8829 -1.9892 0.9733
-3.1027 5.6822 -1.9913 0.9733
-3.5039 5.4522 -1.9934 0.9732
-3.8881 5.1939 -1.9956 0.9732
-4.0732 5.0545 -1.9966 0.9732
-4.2533 4.9086 -1.9977 0.9732
-4.4281 4.7562 -1.9988 0.9732
-4.5975 4.5975 -1.9998 0.9732
-5.0706 4.0862 -2.0030 0.9731
-5.3547 3.7178 -2.0050 0.9731
-5.4867 3.5261 -2.0060 0.9731
-5.7299 3.1288 -2.0080 0.9730
-5.8407 2.9237 -2.0090 0.9730
-6.0401 2.5019 -2.0109 0.9730
-6.3457 1.6196 -2.0144 0.9730
-6.4021 1.3927 -2.0152 0.9730
-6.4502 1.1637 -2.0160 0.9729
-6.5217 0.7012 -2.0175 0.9729
-6.5449 0.4681 -2.0182 0.9729
-6.5596 0.2343 -2.0189 0.9729
5.9341 -0.0000 -1.9725 0.9753
5.9286 0.2117 -1.9720 0.9753
5.9158 0.4231 -1.9715 0.9753
5.8954 0.6338 -1.9710 0.9753
5.8677 0.8437 -1.9705 0.9753
5.7902 1.2596 -1.9697 0.9753
5.7405 1.4651 -1.9693 0.9753
5.6835 1.6688 -1.9690 0.9753
5.4704 2.2659 -1.9682 0.9754
5.2938 2.6499 -1.9678 0.9754
5.1955 2.8370 -1.9677 0.9754
4.9795 3.2001 -1.9676 0.9754
4.8620 3.3758 -1.9675 0.9754
4.7385 3.5472 -1.9675 0.9754
4.6089 3.7141 -1.9676 0.9754
4.3326 4.0338 -1.9678 0.9754
4.1862 4.1862 -1.9679 0.9754
4.0345 4.3333 -1.9681 0.9754
3.7159 4.6112 -1.9685 0.9753
3.3785 4.8660 -1.9691 0.9753
3.0239 5.0965 -1.9698 0.9753
2.6537 5.3015 -1.9707 0.9753
2.2699 5.4800 -1.9716 0.9753
2.0734 5.5590 -1.9722 0.9753
1.8742 5.6310 -1.9727 0.9753
1.2627 5.8045 -1.9746 0.9753
1.0551 5.8478 -1.9752 0.9753
0.0000 5.9533 -1.9789 0.9752
-0.2126 5.9520 -1.9797 0.9752
-0.4250 5.9430 -1.9805 0.9752
-0.6372 5.9266 -1.9814 0.9752
-0.8487 5.9026 -1.9822 0.9752
-1.8875 5.6711 -1.9868 0.9751
-2.2895 5.5273 -1.9887 0.9751
-2.6805 5.3550 -1.9906 0.9751
-3.2424 5.0453 -1.9935 0.9750
-3.4221 4.9288 -1.9945 0.9750
-3.7687 4.6767 -1.9965 0.9750
-3.9352 4.5415 -1.9975 0.9750
-4.0968 4.4003 -1.9985 0.9750
-4.2533 4.2533 -1.9995 0.9750
-4.4046 4.1008 -2.0004 0.9750
-4.5504 3.9429 -2.0014 0.9749
-4.9528 3.4388 -2.0043 0.9749
-5.4016 2.7039 -2.0079 0.9749
-5.4971 2.5104 -2.0088 0.9748
-5.7412 1.9108 -2.0113 0.9748
-5.8675 1.4976 -2.0129 0.9748
-5.9194 1.2877 -2.0137 0.9748
-6.0005 0.8628 -2.0151 0.9748
-6.0642 0.2166 -2.0171 0.9747
5.5153 0.1970 -1.9736 0.9768
5.4263 0.9790 -1.9718 0.9768
5.2283 1.7401 -1.9705 0.9769
4.9254 2.4655 -1.9697 0.9769
4.8340 2.6396 -1.9696 0.9769
4.7365 2.8103 -1.9695 0.9769
4.2883 3.4557 -1.9695 0.9769
4.0312 3.7531 -1.9696 0.9769
3.8949 3.8949 -1.9698 0.9769
3.7537 4.0318 -1.9699 0.9769
3.4573 4.2902 -1.9704 0.9769
3.3024 4.4114 -1.9706 0.9769
2.9802 4.6372 -1.9712 0.9769
2.4688 4.9321 -1.9724 0.9768
2.1116 5.0979 -1.9733 0.9768
1.3661 5.3523 -1.9754 0.9768
0.5912 5.4993 -1.9779 0.9768
0.3947 5.5188 -1.9786 0.9768
-0.3953 5.5270 -1.9815 0.9767
-0.9850 5.4597 -1.9839 0.9767
-1.5650 5.3299 -1.9865 0.9767
-1.7550 5.2729 -1.9873 0.9767
-2.1286 5.1389 -1.9891 0.9766
-2.4920 4.9784 -1.9909 0.9766
-2.6693 4.8885 -1.9918 0.9766
-3.0140 4.6899 -1.9936 0.9766
-3.1810 4.5815 -1.9946 0.9766
-3.5029 4.3469 -1.9964 0.9766
-3.9529 3.9529 -1.9991 0.9765
-4.0934 3.8111 -2.0000 0.9765
-4.2287 3.6642 -2.0009 0.9765
-4.3587 3.5125 -2.0018 0.9765
-4.9238 2.6886 -2.0062 0.9765
-5.0186 2.5122 -2.0070 0.9764
-5.3954 1.5842 -2.0109 0.9764
-5.4505 1.3912 -2.0116 0.9764
-5.6004 0.6021 -2.0143 0.9764
5.1394 0.3676 -1.9745 0.9782
5.1219 0.5506 -1.9741 0.9782
5.0308 1.0944 -1.9730 0.9782
4.9878 1.2730 -1.9727 0.9782
4.9384 1.4500 -1.9724 0.9782
4.7535 1.9689 -1.9717 0.9782
4.6797 2.1371 -1.9715 0.9782
4.6001 2.3026 -1.9714 0.9782
4.3271 2.7808 -1.9711 0.9782
4.2250 2.9335 -1.9711 0.9782
4.0051 3.2275 -1.9711 0.9782
3.3695 3.8885 -1.9718 0.9782
3.0842 4.1200 -1.9722 0.9782
2.7832 4.3307 -1.9728 0.9782
2.6273 4.4280 -1.9731 0.9782
2.3056 4.6059 -1.9739 0.9782
1.4528 4.9478 -1.9761 0.9782
1.2756 4.9979 -1.9767 0.9781
0.7347 5.1101 -1.9784 0.9781
-0.7368 5.1243 -1.9839 0.9781
-0.9195 5.0967 -1.9847 0.9781
-1.2818 5.0220 -1.9862 0.9780
-1.6381 4.9218 -1.9878 0.9780
-2.1575 4.7244 -1.9903 0.9780
-2.8127 4.3767 -1.9937 0.9780
-2.9684 4.2753 -1.9946 0.9780
-3.2686 4.0561 -1.9963 0.9779
-3.4128 3.9386 -1.9971 0.9779
-3.5527 3.8159 -1.9980 0.9779
-3.6882 3.6882 -1.9988 0.9779
-3.8191 3.5558 -1.9997 0.9779
-3.9453 3.4186 -2.0005 0.9779
-4.1826 3.1310 -2.0022 0.9779
-4.8402 2.0049 -2.0077 0.9778
-4.9745 1.6557 -2.0091 0.9778
-5.1281 1.1155 -2.0111 0.9778
-5.1663 0.9321 -2.0118 0.9778
-5.2227 0.5615 -2.0130 0.9778
-5.2524 0.1876 -2.0141 0.9777
4.8297 0.0000 -1.9767 0.9793
4.8255 0.1723 -1.9762 0.9793
4.8153 0.3444 -1.9758 0.9794
4.7482 0.8567 -1.9747 0.9794
4.7138 1.0254 -1.9744 0.9794
4.6735 1.1928 -1.9741 0.9794
4.6273 1.3587 -1.9738 0.9794
4.5753 1.5228 -1.9736 0.9794
4.5175 1.6850 -1.9733 0.9794
4.3851 2.0026 -1.9730 0.9794
4.2305 2.3100 -1.9727 0.9794
4.1452 2.4595 -1.9727 0.9794
3.5279 3.2846 -1.9728 0.9794
3.2850 3.5283 -1.9730 0.9794
3.1573 3.6437 -1.9732 0.9794
3.0255 3.7544 -1.9734 0.9794
2.8899 3.8604 -1.9736 0.9794
2.7506 3.9616 -1.9739 0.9794
2.4617 4.1490 -1.9745 0.9794
2.3125 4.2349 -1.9748 0.9794
2.1602 4.3156 -1.9752 0.9794
1.3611 4.6356 -1.9773 0.9793
1.1951 4.6824 -1.9778 0.9793
1.0275 4.7233 -1.9783 0.9793
0.6883 4.7872 -1.9794 0.9793
0.3452 4.8270 -1.9806 0.9793
0.1728 4.8378 -1.9813 0.9793
0.0000 4.8425 -1.9819 0.9793
-0.5182 4.8196 -1.9839 0.9793
-1.2005 4.7036 -1.9868 0.9792
-1.5342 4.6095 -1.9883 0.9792
-1.6984 4.5535 -1.9891 0.9792
-2.0205 4.4242 -1.9906 0.9792
-2.1780 4.3510 -1.9914 0.9792
-2.3328 4.2722 -1.9922 0.9792
-2.4848 4.1879 -1.9930 0.9792
-2.7794 4.0032 -1.9946 0.9792
-3.0604 3.7977 -1.9962 0.9791
-3.5754 3.3288 -1.9994 0.9791
-3.6934 3.2004 -2.0002 0.9791
-3.8068 3.0677 -2.0010 0.9791
-3.9154 2.9310 -2.0017 0.9791
-4.0190 2.7904 -2.0025 0.9791
-4.1176 2.6462 -2.0032 0.9791
-4.2110 2.4985 -2.0040 0.9791
-4.2991 2.3475 -2.0047 0.9791
-4.5302 1.8765 -2.0069 0.9790
-4.5958 1.7142 -2.0075 0.9790
-4.7095 1.3828 -2.0089 0.9790
-4.8347 0.8723 -2.0107 0.9790
-4.8642 0.6994 -2.0113 0.9790
-4.9150 0.1755 -2.0129 0.9790
4.5342 0.1619 -1.9774 0.9804
4.5247 0.3236 -1.9770 0.9804
4.5094 0.4848 -1.9766 0.9804
4.4884 0.6453 -1.9762 0.9804
4.4295 0.9636 -1.9756 0.9804
4.3917 1.1209 -1.9753 0.9804
4.2995 1.4310 -1.9748 0.9804
4.1856 1.7337 -1.9745 0.9804
3.8103 2.4487 -1.9740 0.9804
3.5268 2.8420 -1.9740 0.9804
3.2032 3.2031 -1.9742 0.9804
3.0870 3.3157 -1.9744 0.9804
2.9669 3.4240 -1.9745 0.9804
2.8431 3.5281 -1.9747 0.9804
2.7157 3.6277 -1.9749 0.9804
2.5848 3.7227 -1.9752 0.9804
2.4506 3.8131 -1.9754 0.9804
2.1730 3.9795 -1.9760 0.9804
2.0299 4.0552 -1.9764 0.9804
1.7361 4.1912 -1.9771 0.9804
1.4332 4.3062 -1.9779 0.9804
0.9654 4.4379 -1.9793 0.9804
0.6467 4.4978 -1.9804 0.9804
0.4859 4.5193 -1.9809 0.9804
0.3244 4.5350 -1.9815 0.9804
0.0000 4.5493 -1.9827 0.9803
-0.4868 4.5276 -1.9846 0.9803
-0.6483 4.5088 -1.9852 0.9803
-0.9689 4.4541 -1.9866 0.9803
-1.4410 4.3296 -1.9887 0.9803
-1.5952 4.2769 -1.9894 0.9803
-1.7475 4.2188 -1.9901 0.9803
-2.0455 4.0864 -1.9916 0.9803
-2.3336 3.9331 -1.9931 0.9802
-2.4734 3.8487 -1.9938 0.9802
-2.7437 3.6652 -1.9954 0.9802
-2.8739 3.5663 -1.9961 0.9802
-3.2423 3.2423 -1.9984 0.9802
-3.5743 2.8804 -2.0006 0.9802
-3.7734 2.6199 -2.0020 0.9802
-3.9535 2.3457 -2.0034 0.9801
-4.0360 2.2038 -2.0041 0.9801
-4.1135 2.0591 -2.0048 0.9801
-1.5118 0.5639 -0.7032 0.9930
-1.3722 0.4029 -0.6233 0.9938
-1.3400 0.3420 -0.6027 0.9940
-1.4359 0.1544 -0.6294 0.9937
-1.4490 0.1036 -0.6331 0.9937
4.2748 0.0000 -1.9788 0.9813
4.2713 0.1525 -1.9784 0.9813
4.2032 0.7583 -1.9770 0.9814
4.1728 0.9077 -1.9767 0.9814
4.0964 1.2028 -1.9762 0.9814
4.0504 1.3481 -1.9760 0.9814
3.7454 2.0451 -1.9753 0.9814
3.5897 2.3069 -1.9752 0.9814
3.3226 2.6775 -1.9752 0.9814
3.0177 3.0177 -1.9754 0.9814
2.9082 3.1237 -1.9755 0.9814
2.7951 3.2257 -1.9757 0.9814
2.6784 3.3237 -1.9759 0.9814
2.4350 3.5071 -1.9763 0.9814
2.1792 3.6728 -1.9768 0.9814
2.0470 3.7488 -1.9771 0.9813
1.9122 3.8201 -1.9774 0.9813
1.6354 3.9482 -1.9781 0.9813
1.3501 4.0564 -1.9789 0.9813
1.0577 4.1442 -1.9798 0.9813
0.9094 4.1803 -1.9802 0.9813
0.7598 4.2111 -1.9807 0.9813
0.6091 4.2366 -1.9812 0.9813
0.3055 4.2715 -1.9823 0.9813
0.0000 4.2848 -1.9834 0.9813
-0.1530 4.2833 -1.9840 0.9813
-0.4584 4.2641 -1.9852 0.9813
-0.6105 4.2463 -1.9858 0.9813
-0.9125 4.1946 -1.9871 0.9813
-1.3570 4.0771 -1.9890 0.9812
-1.5022 4.0275 -1.9897 0.9812
-1.6455 3.9727 -1.9904 0.9812
-1.9261 3.8479 -1.9918 0.9812
-2.1972 3.7033 -1.9932 0.9812
-2.3288 3.6237 -1.9939 0.9812
-2.4576 3.5396 -1.9946 0.9812
-2.5833 3.4508 -1.9953 0.9812
-2.7057 3.3576 -1.9960 0.9812
-2.8249 3.2601 -1.9967 0.9812
-3.0524 3.0524 -1.9982 0.9812
-3.1605 2.9425 -1.9989 0.9811
-3.3647 2.7114 -2.0002 0.9811
-3.4605 2.5905 -2.0009 0.9811
-3.7990 2.0744 -2.0036 0.9811
-3.8718 1.9381 -2.0042 0.9811
-1.2345 0.5114 -0.6185 0.9941
-1.2017 0.4482 -0.5937 0.9944
-1.1536 0.3840 -0.5628 0.9947
-1.1575 0.2954 -0.5529 0.9947
-1.1790 0.2565 -0.5585 0.9947
-1.2362 0.0884 -0.5737 0.9946
4.0358 0.0000 -1.9797 0.9822
3.9397 0.8570 -1.9777 0.9822
3.7760 1.4084 -1.9769 0.9822
3.6031 1.8036 -1.9765 0.9822
3.5363 1.9309 -1.9764 0.9822
3.3094 2.2977 -1.9762 0.9822
3.2253 2.4144 -1.9763 0.9822
3.1371 2.5280 -1.9763 0.9822
3.0449 2.6384 -1.9763 0.9822
2.9489 2.7456 -1.9764 0.9822
2.7459 2.9493 -1.9766 0.9822
2.5289 3.1381 -1.9769 0.9822
2.1796 3.3916 -1.9776 0.9822
2.0574 3.4676 -1.9778 0.9822
1.5440 3.7275 -1.9791 0.9822
1.2746 3.8296 -1.9798 0.9822
1.1373 3.8734 -1.9802 0.9822
0.9986 3.9123 -1.9806 0.9822
0.8585 3.9464 -1.9811 0.9822
0.5750 3.9994 -1.9820 0.9822
0.2884 4.0323 -1.9830 0.9822
-1.1422 3.8901 -1.9887 0.9821
-1.2807 3.8481 -1.9894 0.9821
-1.4177 3.8011 -1.9900 0.9821
-1.9468 3.5653 -1.9926 0.9821
-2.0735 3.4948 -1.9933 0.9821
-2.3191 3.3402 -1.9946 0.9820
-2.5532 3.1683 -1.9960 0.9820
-3.0803 2.6691 -1.9993 0.9820
-3.1746 2.5583 -1.9999 0.9820
-3.3512 2.3268 -2.0012 0.9820
-1.0119 0.3774 -0.5298 0.9952
-1.0307 0.2631 -0.5218 0.9953
-1.0518 0.1897 -0.5242 0.9952
-1.0611 0.1526 -0.5258 0.9952
-1.0769 0.0770 -0.5296 0.9952
-1.0803 0.0386 -0.5302 0.9952
3.8145 0.1362 -1.9801 0.9829
3.7762 0.5429 -1.9792 0.9830
3.7539 0.6773 -1.9789 0.9830
3.7269 0.8107 -1.9787 0.9830
3.6951 0.9431 -1.9784 0.9830
3.6587 1.0743 -1.9782 0.9830
3.2779 1.9449 -1.9773 0.9830
3.0512 2.2841 -1.9773 0.9830
2.6954 2.6954 -1.9775 0.9830
2.4965 2.8811 -1.9777 0.9830
2.3923 2.9687 -1.9779 0.9830
2.1748 3.1323 -1.9783 0.9830
2.0619 3.2083 -1.9785 0.9830
1.9463 3.2803 -1.9787 0.9830
1.8282 3.3481 -1.9790 0.9830
1.5852 3.4710 -1.9796 0.9830
1.3340 3.5765 -1.9803 0.9829
0.9445 3.7007 -1.9814 0.9829
0.5439 3.7829 -1.9827 0.9829
0.4086 3.8008 -1.9831 0.9829
0.2728 3.8139 -1.9836 0.9829
-0.1366 3.8241 -1.9851 0.9829
-0.5450 3.7907 -1.9868 0.9829
-1.0802 3.6788 -1.9891 0.9829
-1.2112 3.6390 -1.9897 0.9829
-1.4686 3.5455 -1.9909 0.9829
-1.8409 3.3714 -1.9927 0.9828
-1.9607 3.3046 -1.9934 0.9828
-2.0780 3.2335 -1.9940 0.9828
-2.1928 3.1583 -1.9946 0.9828
-2.4141 2.9957 -1.9959 0.9828
-2.7230 2.7230 -1.9978 0.9828
-2.8194 2.6249 -1.9984 0.9828
-2.9122 2.5234 -1.9990 0.9828
-3.0867 2.3106 -2.0003 0.9828
-3.1681 2.1997 -2.0009 0.9828
-3.2456 2.0858 -2.0015 0.9828
-3.3189 1.9692 -2.0021 0.9828
-0.9416 0.4713 -0.5463 0.9953
-0.9271 0.3840 -0.5206 0.9955
-0.9208 0.3434 -0.5098 0.9956
-0.9268 0.3085 -0.5067 0.9956
-0.9404 0.2761 -0.5085 0.9956
-0.9628 0.2094 -0.5112 0.9956
-0.9715 0.1753 -0.5121 0.9956
-0.9838 0.1058 -0.5133 0.9956
-0.9893 0.0353 -0.5135 0.9955
3.5949 0.3865 -1.9803 0.9836
3.5316 0.7682 -1.9795 0.9837
3.4282 1.1410 -1.9789 0.9837
3.3850 1.2625 -1.9787 0.9837
3.3375 1.3825 -1.9786 0.9837
3.2300 1.6168 -1.9784 0.9837
3.1702 1.7310 -1.9783 0.9837
3.0384 1.9527 -1.9782 0.9837
2.7297 2.3653 -1.9782 0.9837
2.5542 2.5542 -1.9784 0.9837
2.4615 2.6439 -1.9785 0.9837
2.3658 2.7302 -1.9786 0.9837
2.1653 2.8925 -1.9790 0.9837
1.8443 3.1084 -1.9796 0.9837
1.7324 3.1726 -1.9798 0.9836
1.5021 3.2891 -1.9804 0.9836
1.3839 3.3411 -1.9807 0.9836
1.1424 3.4325 -1.9814 0.9836
0.8950 3.5065 -1.9821 0.9836
0.7694 3.5369 -1.9825 0.9836
0.6428 3.5628 -1.9829 0.9836
0.2584 3.6135 -1.9842 0.9836
0.1293 3.6213 -1.9847 0.9836
0.0000 3.6245 -1.9851 0.9836
-0.2587 3.6170 -1.9861 0.9836
-0.3877 3.6065 -1.9867 0.9836
-0.6444 3.5715 -1.9877 0.9836
-0.8980 3.5184 -1.9888 0.9836
-1.0233 3.4851 -1.9894 0.9836
-1.1474 3.4473 -1.9899 0.9836
-1.2700 3.4051 -1.9905 0.9836
-1.6282 3.2527 -1.9923 0.9835
-1.8572 3.1302 -1.9935 0.9835
-2.1831 2.9163 -1.9953 0.9835
-2.2865 2.8374 -1.9959 0.9835
-2.3870 2.7548 -1.9964 0.9835
-2.8424 2.2906 -1.9994 0.9835
-3.0003 2.0832 -2.0006 0.9835
-3.0736 1.9753 -2.0011 0.9835
-0.8524 0.5057 -0.5428 0.9955
-0.8479 0.3512 -0.5027 0.9958
-0.8465 0.3157 -0.4948 0.9959
-0.8727 0.2562 -0.4982 0.9959
-0.8837 0.2255 -0.4995 0.9958
-0.8932 0.1943 -0.5006 0.9958
-0.9011 0.1626 -0.5015 0.9958
-0.9077 0.1305 -0.5022 0.9958
-0.9127 0.0981 -0.5028 0.9958
-0.9161 0.0655 -0.5030 0.9958
-0.9179 0.0328 -0.5031 0.9958
3.4328 0.0000 -1.9819 0.9843
3.4301 0.1225 -1.9816 0.9843
3.4230 0.2448 -1.9813 0.9843
3.3959 0.4882 -1.9808 0.9843
3.2535 1.0828 -1.9797 0.9843
3.2125 1.1982 -1.9796 0.9843
3.1675 1.3120 -1.9794 0.9843
2.8837 1.8532 -1.9790 0.9843
2.6690 2.1508 -1.9790 0.9843
2.5906 2.2448 -1.9791 0.9843
2.5089 2.3359 -1.9792 0.9843
1.8543 2.8853 -1.9801 0.9843
1.7503 2.9499 -1.9804 0.9843
1.6441 3.0109 -1.9806 0.9843
1.1995 3.2160 -1.9817 0.9843
1.0842 3.2573 -1.9821 0.9843
0.9674 3.2945 -1.9824 0.9843
0.7301 3.3564 -1.9831 0.9843
0.4890 3.4012 -1.9839 0.9843
0.3674 3.4172 -1.9843 0.9843
0.2452 3.4289 -1.9847 0.9842
0.0000 3.4392 -1.9856 0.9842
-0.3679 3.4220 -1.9871 0.9842
-0.4899 3.4075 -1.9876 0.9842
-0.9709 3.3066 -1.9896 0.9842
-1.0886 3.2707 -1.9902 0.9842
-1.4332 3.1382 -1.9918 0.9842
-1.5447 3.0859 -1.9924 0.9842
-1.6543 3.0297 -1.9930 0.9842
-2.0710 2.7665 -1.9952 0.9842
-2.2644 2.6132 -1.9964 0.9842
-2.7728 2.0757 -1.9997 0.9841
-0.7634 0.5300 -0.5366 0.9957
-0.7696 0.4946 -0.5282 0.9958
-0.7751 0.4599 -0.5203 0.9958
-0.7787 0.4252 -0.5122 0.9959
-0.7796 0.3229 -0.4872 0.9961
-0.7887 0.2942 -0.4860 0.9961
-0.8014 0.2667 -0.4876 0.9961
-0.8230 0.2100 -0.4904 0.9961
-0.8318 0.1809 -0.4915 0.9961
-0.8393 0.1514 -0.4924 0.9961
-0.8453 0.1215 -0.4930 0.9961
-0.8499 0.0914 -0.4935 0.9961
-0.8530 0.0610 -0.4938 0.9961
