ply
format ascii 1.0
element vertex 689
property float32 x
property float32 y
property float32 z
property float32 I
end_header
-9.4654 -0.3381 -2.0021 0.9620
-9.3907 -1.3502 -2.0054 0.9620
-9.3416 -1.6854 -2.0065 0.9619
-9.1223 -2.6786 -2.0097 0.9619
-8.7967 -3.6437 -2.0127 0.9618
-8.6652 -3.9572 -2.0136 0.9618
-8.2034 -4.8674 -2.0163 0.9618
-8.0278 -5.1592 -2.0171 0.9617
-7.8417 -5.4446 -2.0179 0.9617
-7.2228 -6.2586 -2.0202 0.9617
-6.9972 -6.5146 -2.0209 0.9617
-6.5186 -7.0015 -2.0221 0.9616
-5.7374 -7.6643 -2.0237 0.9616
-5.4614 -7.8659 -2.0242 0.9616
-4.2894 -8.5692 -2.0256 0.9616
-2.7009 -9.1984 -2.0264 0.9616
-2.3709 -9.2891 -2.0265 0.9616
-2.0378 -9.3678 -2.0265 0.9616
-1.7021 -9.4344 -2.0264 0.9616
-1.3643 -9.4887 -2.0263 0.9616
1.0238 -9.5229 -2.0245 0.9616
1.3628 -9.4783 -2.0241 0.9616
2.3664 -9.2714 -2.0226 0.9616
3.0200 -9.0737 -2.0214 0.9617
3.3408 -8.9572 -2.0208 0.9617
3.9686 -8.6900 -2.0194 0.9617
4.2746 -8.5396 -2.0186 0.9617
4.5749 -8.3784 -2.0178 0.9617
4.8691 -8.2064 -2.0170 0.9617
5.1567 -8.0241 -2.0162 0.9618
5.9769 -7.4169 -2.0135 0.9618
7.1810 -6.2224 -2.0085 0.9619
7.5986 -5.6882 -2.0064 0.9619
7.7925 -5.4105 -2.0053 0.9620
7.9763 -5.1260 -2.0042 0.9620
8.1496 -4.8354 -2.0031 0.9620
8.4642 -4.2369 -2.0008 0.9620
8.6051 -3.9298 -1.9997 0.9621
8.7348 -3.6181 -1.9985 0.9621
9.0557 -2.6590 -1.9950 0.9621
9.2116 -2.0039 -1.9927 0.9622
9.2719 -1.6728 -1.9915 0.9622
-8.5095 -0.3039 -2.0012 0.9656
-8.4746 -0.9111 -2.0032 0.9656
-8.4409 -1.2136 -2.0042 0.9656
-8.3409 -1.8145 -2.0061 0.9655
-8.1978 -2.4071 -2.0080 0.9655
-8.0124 -2.9885 -2.0098 0.9655
-7.3697 -4.3726 -2.0140 0.9654
-7.2116 -4.6346 -2.0147 0.9654
-7.0441 -4.8908 -2.0154 0.9654
-6.6818 -5.3845 -2.0168 0.9654
-6.4874 -5.6214 -2.0175 0.9653
-6.2845 -5.8511 -2.0181 0.9653
-5.3935 -6.6930 -2.0202 0.9653
-5.1523 -6.8827 -2.0206 0.9653
-4.9044 -7.0636 -2.0210 0.9653
-4.6500 -7.2355 -2.0214 0.9653
-3.5749 -7.8280 -2.0225 0.9653
-2.7183 -8.1671 -2.0230 0.9652
-2.4251 -8.2593 -2.0231 0.9652
-2.1288 -8.3407 -2.0231 0.9652
-1.2250 -8.5200 -2.0230 0.9652
-0.0000 -8.6046 -2.0223 0.9653
0.3071 -8.5980 -2.0220 0.9653
0.6137 -8.5802 -2.0217 0.9653
0.9194 -8.5514 -2.0214 0.9653
1.2238 -8.5116 -2.0210 0.9653
1.8271 -8.3990 -2.0201 0.9653
2.1252 -8.3264 -2.0196 0.9653
2.4204 -8.2432 -2.0191 0.9653
2.7123 -8.1493 -2.0186 0.9653
3.2848 -7.9303 -2.0174 0.9653
3.5647 -7.8056 -2.0167 0.9654
3.8397 -7.6708 -2.0161 0.9654
4.8851 -7.0359 -2.0131 0.9654
5.8269 -6.2585 -2.0097 0.9655
6.0439 -6.0439 -2.0088 0.9655
6.4537 -5.5922 -2.0070 0.9655
6.6460 -5.3557 -2.0060 0.9655
6.8297 -5.1126 -2.0051 0.9656
7.0044 -4.8632 -2.0041 0.9656
7.1699 -4.6079 -2.0031 0.9656
7.6098 -3.8092 -2.0000 0.9656
7.8541 -3.2533 -1.9980 0.9657
8.1441 -2.3913 -1.9948 0.9657
8.2199 -2.0980 -1.9938 0.9657
8.2852 -1.8024 -1.9928 0.9658
8.4397 -0.6036 -1.9886 0.9658
8.4516 -0.3019 -1.9876 0.9658
-7.7227 0.0000 -1.9995 0.9686
-7.7101 -0.5514 -2.0014 0.9686
-7.6890 -0.8267 -2.0023 0.9686
-7.6580 -1.1011 -2.0032 0.9685
-7.6172 -1.3743 -2.0041 0.9685
-7.4362 -2.1835 -2.0067 0.9685
-7.3566 -2.4485 -2.0075 0.9685
-7.2674 -2.7106 -2.0083 0.9685
-6.9440 -3.4759 -2.0106 0.9684
-6.8180 -3.7229 -2.0113 0.9684
-6.6831 -3.9653 -2.0120 0.9684
-6.5396 -4.2027 -2.0127 0.9684
-6.2271 -4.6616 -2.0140 0.9684
-6.0586 -4.8823 -2.0146 0.9684
-5.8821 -5.0969 -2.0152 0.9684
-5.5065 -5.5065 -2.0163 0.9683
-5.3077 -5.7009 -2.0168 0.9683
-4.6709 -6.2396 -2.0181 0.9683
-4.2154 -6.5593 -2.0188 0.9683
-3.7378 -6.8452 -2.0194 0.9683
-2.4640 -7.4033 -2.0202 0.9683
-2.1983 -7.4867 -2.0203 0.9683
-1.6586 -7.6246 -2.0203 0.9683
-1.3854 -7.6788 -2.0203 0.9683
-1.1104 -7.7231 -2.0202 0.9683
-0.0000 -7.8001 -2.0196 0.9683
1.3839 -7.6703 -2.0180 0.9683
1.9267 -7.5488 -2.0172 0.9683
2.4591 -7.3886 -2.0162 0.9683
2.7206 -7.2942 -2.0157 0.9683
2.9784 -7.1905 -2.0151 0.9684
4.2011 -6.5371 -2.0120 0.9684
4.6534 -6.2162 -2.0105 0.9684
4.8705 -6.0439 -2.0098 0.9684
5.0812 -5.8640 -2.0090 0.9684
5.2851 -5.6767 -2.0082 0.9685
5.6720 -5.2808 -2.0065 0.9685
5.8544 -5.0729 -2.0057 0.9685
6.1960 -4.6383 -2.0040 0.9685
6.5053 -4.1807 -2.0022 0.9686
6.6474 -3.9441 -2.0013 0.9686
6.7808 -3.7026 -2.0004 0.9686
6.9054 -3.4567 -1.9994 0.9686
7.0211 -3.2064 -1.9985 0.9686
7.1277 -2.9524 -1.9976 0.9686
7.3133 -2.4341 -1.9957 0.9687
7.3919 -2.1705 -1.9947 0.9687
7.5208 -1.6361 -1.9928 0.9687
7.6111 -1.0943 -1.9909 0.9687
7.6417 -0.8216 -1.9900 0.9687
-7.0493 -0.5042 -2.0007 0.9710
-7.0297 -0.7558 -2.0015 0.9710
-7.0011 -1.0066 -2.0023 0.9710
-6.9635 -1.2564 -2.0032 0.9710
-6.7973 -1.9959 -2.0055 0.9710
-6.7243 -2.2381 -2.0063 0.9710
-6.5523 -2.7140 -2.0077 0.9709
-6.4535 -2.9472 -2.0084 0.9709
-6.3464 -3.1768 -2.0091 0.9709
-5.8370 -4.0527 -2.0117 0.9709
-5.6903 -4.2597 -2.0122 0.9709
-5.5361 -4.4613 -2.0128 0.9709
-5.2064 -4.8474 -2.0138 0.9709
-4.8496 -5.2089 -2.0148 0.9708
-4.6616 -5.3798 -2.0152 0.9708
-4.4675 -5.5438 -2.0156 0.9708
-4.2675 -5.7008 -2.0159 0.9708
-4.0620 -5.8504 -2.0163 0.9708
-3.8512 -5.9926 -2.0166 0.9708
-3.6354 -6.1271 -2.0169 0.9708
-3.4148 -6.2537 -2.0171 0.9708
-2.7275 -6.5847 -2.0177 0.9708
-2.0083 -6.8395 -2.0180 0.9708
-1.2656 -7.0149 -2.0179 0.9708
-1.0144 -7.0554 -2.0179 0.9708
-0.7619 -7.0868 -2.0178 0.9708
-0.5085 -7.1090 -2.0177 0.9708
0.0000 -7.1260 -2.0173 0.9708
0.2543 -7.1206 -2.0171 0.9708
0.7614 -7.0825 -2.0165 0.9708
1.0136 -7.0497 -2.0162 0.9708
1.2643 -7.0078 -2.0159 0.9708
1.5134 -6.9570 -2.0155 0.9708
1.7604 -6.8971 -2.0151 0.9708
3.1816 -6.3560 -2.0122 0.9709
3.4054 -6.2366 -2.0116 0.9709
3.6247 -6.1092 -2.0110 0.9709
3.8393 -5.9741 -2.0103 0.9709
4.0488 -5.8314 -2.0097 0.9709
4.2529 -5.6812 -2.0090 0.9709
5.0110 -5.0110 -2.0062 0.9710
6.0776 -3.6060 -2.0006 0.9710
6.4201 -2.9320 -1.9980 0.9711
6.6881 -2.2260 -1.9955 0.9711
6.7603 -1.9850 -1.9946 0.9711
6.8239 -1.7417 -1.9937 0.9711
6.9619 -1.0010 -1.9911 0.9712
6.9901 -0.7515 -1.9903 0.9712
7.0095 -0.5013 -1.9894 0.9712
7.0199 -0.2507 -1.9886 0.9712
-6.4977 -0.0000 -1.9986 0.9732
-6.4961 -0.2320 -1.9993 0.9732
-6.4862 -0.4639 -2.0001 0.9732
-6.4680 -0.6954 -2.0009 0.9731
-6.4415 -0.9262 -2.0016 0.9731
-6.3637 -1.3843 -2.0031 0.9731
-6.3125 -1.6112 -2.0038 0.9731
-6.2532 -1.8361 -2.0045 0.9731
-6.1858 -2.0588 -2.0052 0.9731
-6.0272 -2.4966 -2.0066 0.9731
-5.9362 -2.7110 -2.0072 0.9731
-5.8375 -2.9220 -2.0079 0.9731
-5.7312 -3.1295 -2.0085 0.9730
-5.3684 -3.7274 -2.0102 0.9730
-5.0915 -4.1030 -2.0112 0.9730
-4.4597 -4.7901 -2.0130 0.9730
-3.9243 -5.2422 -2.0141 0.9730
-3.3428 -5.6340 -2.0150 0.9730
-3.1400 -5.7504 -2.0152 0.9730
-2.5079 -6.0547 -2.0157 0.9729
-2.2903 -6.1407 -2.0158 0.9729
-2.0698 -6.2188 -2.0159 0.9729
-1.8466 -6.2889 -2.0160 0.9729
-1.6209 -6.3508 -2.0160 0.9729
-1.1637 -6.4502 -2.0160 0.9729
-0.9328 -6.4874 -2.0159 0.9729
-0.7006 -6.5163 -2.0158 0.9729
-0.4675 -6.5367 -2.0157 0.9729
-0.2339 -6.5488 -2.0156 0.9729
0.0000 -6.5524 -2.0154 0.9730
1.1627 -6.4442 -2.0141 0.9730
1.3917 -6.3975 -2.0137 0.9730
1.8438 -6.2795 -2.0130 0.9730
2.0663 -6.2084 -2.0126 0.9730
2.5028 -6.0424 -2.0117 0.9730
2.7163 -5.9478 -2.0112 0.9730
3.1320 -5.7359 -2.0101 0.9730
3.3338 -5.6189 -2.0096 0.9730
3.7240 -5.3636 -2.0084 0.9730
3.9119 -5.2257 -2.0078 0.9731
4.7697 -4.4407 -2.0044 0.9731
4.9234 -4.2662 -2.0037 0.9731
5.4723 -3.5168 -2.0008 0.9731
5.5922 -3.3180 -2.0000 0.9732
5.7048 -3.1151 -1.9992 0.9732
5.8101 -2.9083 -1.9985 0.9732
6.0805 -2.2679 -1.9961 0.9732
6.3312 -1.3773 -1.9929 0.9732
6.4082 -0.9214 -1.9913 0.9733
6.4525 -0.4615 -1.9897 0.9733
-6.0096 -0.2146 -1.9989 0.9750
-6.0002 -0.4292 -1.9996 0.9750
-5.9832 -0.6433 -2.0003 0.9750
-5.8862 -1.2805 -2.0024 0.9749
-5.7837 -1.6983 -2.0037 0.9749
-5.7212 -1.9042 -2.0043 0.9749
-5.6514 -2.1079 -2.0050 0.9749
-5.1949 -3.0823 -2.0079 0.9749
-4.9643 -3.4468 -2.0089 0.9748
-4.8393 -3.6227 -2.0094 0.9748
-4.5706 -3.9605 -2.0103 0.9748
-4.2782 -4.2782 -2.0112 0.9748
-3.9636 -4.5742 -2.0119 0.9748
-3.7984 -4.7136 -2.0122 0.9748
-3.6283 -4.8469 -2.0126 0.9748
-3.4535 -4.9740 -2.0128 0.9748
-3.2742 -5.0948 -2.0131 0.9748
-2.9031 -5.3166 -2.0136 0.9748
-2.1175 -5.6772 -2.0141 0.9748
-1.4986 -5.8715 -2.0143 0.9748
-0.8624 -5.9978 -2.0142 0.9748
-0.2162 -6.0546 -2.0139 0.9748
-0.0000 -6.0580 -2.0137 0.9748
1.0750 -5.9582 -2.0125 0.9748
1.4968 -5.8644 -2.0119 0.9748
1.7049 -5.8062 -2.0115 0.9748
2.5117 -5.4999 -2.0098 0.9748
2.7058 -5.4055 -2.0093 0.9748
3.2656 -5.0814 -2.0078 0.9749
3.4439 -4.9602 -2.0073 0.9749
3.9510 -4.5597 -2.0055 0.9749
4.1099 -4.4144 -2.0049 0.9749
4.2635 -4.2635 -2.0043 0.9749
4.5539 -3.9460 -2.0030 0.9749
4.8205 -3.6086 -2.0016 0.9749
5.4658 -2.4962 -1.9973 0.9750
5.6258 -2.0983 -1.9959 0.9750
5.7569 -1.6904 -1.9944 0.9750
5.8114 -1.4833 -1.9937 0.9750
5.8585 -1.2744 -1.9929 0.9750
5.9545 -0.6402 -1.9907 0.9751
5.9714 -0.4271 -1.9900 0.9751
-5.5850 -0.1995 -1.9985 0.9765
-5.5761 -0.3988 -1.9992 0.9765
-5.5602 -0.5978 -1.9998 0.9765
-5.5069 -0.9936 -2.0011 0.9765
-5.4697 -1.1899 -2.0017 0.9765
-5.3741 -1.5780 -2.0030 0.9765
-5.3160 -1.7693 -2.0036 0.9765
-5.1792 -2.1453 -2.0047 0.9765
-4.9242 -2.6888 -2.0063 0.9764
-4.6119 -3.2021 -2.0078 0.9764
-4.4957 -3.3654 -2.0083 0.9764
-4.3737 -3.5246 -2.0087 0.9764
-4.2460 -3.6792 -2.0091 0.9764
-3.8305 -4.1143 -2.0103 0.9764
-3.3704 -4.5023 -2.0112 0.9764
-3.2079 -4.6203 -2.0115 0.9764
-3.0413 -4.7324 -2.0117 0.9764
-2.5188 -5.0319 -2.0123 0.9764
-2.3377 -5.1190 -2.0124 0.9764
-2.1537 -5.1995 -2.0126 0.9764
-1.7774 -5.3403 -2.0127 0.9764
-0.2009 -5.6239 -2.0124 0.9764
0.2008 -5.6230 -2.0121 0.9764
0.4013 -5.6117 -2.0119 0.9764
1.1953 -5.4946 -2.0109 0.9764
2.1499 -5.1905 -2.0091 0.9764
2.3333 -5.1093 -2.0087 0.9764
2.5137 -5.0217 -2.0082 0.9764
2.6907 -4.9276 -2.0078 0.9764
2.8642 -4.8273 -2.0073 0.9764
3.0339 -4.7209 -2.0068 0.9764
3.1997 -4.6084 -2.0063 0.9764
3.5184 -4.3661 -2.0052 0.9765
3.8187 -4.1016 -2.0041 0.9765
4.0992 -3.8165 -2.0029 0.9765
4.2315 -3.6666 -2.0023 0.9765
4.3583 -3.5122 -2.0017 0.9765
4.7043 -3.0233 -1.9997 0.9765
4.8076 -2.8525 -1.9991 0.9765
4.9955 -2.5006 -1.9977 0.9765
5.0799 -2.3199 -1.9971 0.9766
5.2933 -1.7618 -1.9950 0.9766
5.3510 -1.5712 -1.9943 0.9766
5.4826 -0.9892 -1.9923 0.9766
5.5125 -0.7926 -1.9916 0.9766
5.5512 -0.3970 -1.9902 0.9766
-5.2108 -0.1861 -1.9982 0.9779
-5.2025 -0.3721 -1.9988 0.9779
-5.1875 -0.5577 -1.9994 0.9779
-5.1658 -0.7428 -2.0000 0.9779
-5.1375 -0.9269 -2.0006 0.9779
-4.8312 -2.0012 -2.0040 0.9778
-4.7579 -2.1729 -2.0045 0.9778
-4.5931 -2.5080 -2.0055 0.9778
-4.3016 -2.9867 -2.0068 0.9778
-4.1932 -3.1390 -2.0073 0.9778
-4.0793 -3.2873 -2.0077 0.9778
-2.9917 -4.3089 -2.0102 0.9778
-2.8364 -4.4134 -2.0105 0.9778
-2.6773 -4.5123 -2.0107 0.9778
-2.1801 -4.7738 -2.0111 0.9778
-2.0085 -4.8489 -2.0113 0.9778
-1.1158 -5.1290 -2.0115 0.9778
-0.7470 -5.1953 -2.0114 0.9778
-0.0000 -5.2476 -2.0110 0.9778
0.1873 -5.2439 -2.0108 0.9778
0.5608 -5.2162 -2.0104 0.9778
0.7465 -5.1922 -2.0102 0.9778
1.1147 -5.1244 -2.0097 0.9778
1.4770 -5.0303 -2.0091 0.9778
1.6553 -4.9735 -2.0087 0.9778
2.0052 -4.8410 -2.0080 0.9778
2.3445 -4.6837 -2.0072 0.9778
2.5097 -4.5961 -2.0068 0.9778
2.8299 -4.4034 -2.0059 0.9778
3.5622 -3.8261 -2.0033 0.9779
3.8240 -3.5603 -2.0022 0.9779
3.9475 -3.4206 -2.0017 0.9779
4.1790 -3.1284 -2.0005 0.9779
4.4854 -2.6613 -1.9987 0.9779
4.6610 -2.3331 -1.9974 0.9779
4.8790 -1.8198 -1.9955 0.9779
5.0407 -1.2866 -1.9936 0.9780
5.1164 -0.9231 -1.9923 0.9780
5.1444 -0.7397 -1.9917 0.9780
5.1659 -0.5554 -1.9911 0.9780
-4.8704 -0.3483 -1.9984 0.9791
-4.8359 -0.6953 -1.9996 0.9791
-4.7766 -1.0391 -2.0007 0.9791
-4.6419 -1.5450 -2.0023 0.9791
-4.3790 -2.1920 -2.0042 0.9791
-4.1224 -2.6493 -2.0056 0.9790
-4.0260 -2.7953 -2.0060 0.9790
-3.8178 -3.0766 -2.0068 0.9790
-3.7063 -3.2115 -2.0071 0.9790
-2.7997 -4.0324 -2.0092 0.9790
-2.6543 -4.1302 -2.0094 0.9790
-1.3838 -4.7129 -2.0103 0.9790
-1.0441 -4.7996 -2.0103 0.9790
-0.8721 -4.8338 -2.0103 0.9790
-0.3504 -4.8989 -2.0101 0.9790
-0.1753 -4.9080 -2.0100 0.9790
-0.0000 -4.9108 -2.0099 0.9790
0.1753 -4.9073 -2.0097 0.9790
0.5248 -4.8814 -2.0093 0.9790
1.3823 -4.7076 -2.0081 0.9790
1.5492 -4.6546 -2.0078 0.9790
1.7141 -4.5956 -2.0074 0.9790
1.8767 -4.5307 -2.0071 0.9790
2.1943 -4.3836 -2.0063 0.9790
2.6486 -4.1214 -2.0051 0.9790
2.7934 -4.0233 -2.0046 0.9791
2.9346 -3.9202 -2.0042 0.9791
3.3344 -3.5814 -2.0027 0.9791
3.4592 -3.4592 -2.0022 0.9791
3.8061 -3.0672 -2.0006 0.9791
3.9121 -2.9286 -2.0001 0.9791
4.0130 -2.7863 -1.9995 0.9791
4.1087 -2.6405 -1.9989 0.9791
4.3637 -2.1843 -1.9972 0.9791
4.4375 -2.0266 -1.9966 0.9791
4.5057 -1.8663 -1.9960 0.9791
4.6246 -1.5392 -1.9948 0.9792
4.8171 -0.6926 -1.9918 0.9792
4.8373 -0.5201 -1.9912 0.9792
4.8514 -0.3470 -1.9906 0.9792
-1.4601 0.0000 -0.6363 0.9936
-1.4490 -0.1036 -0.6331 0.9937
-1.4359 -0.1544 -0.6294 0.9937
-1.3955 -0.2518 -0.6180 0.9938
-1.3688 -0.2978 -0.6105 0.9939
-1.3400 -0.3420 -0.6027 0.9940
-1.3722 -0.4029 -0.6233 0.9938
-1.5118 -0.5639 -0.7032 0.9930
-4.1809 -1.9093 -2.0031 0.9801
-4.1110 -2.0578 -2.0036 0.9801
-4.0358 -2.2037 -2.0040 0.9801
-3.8699 -2.4870 -2.0048 0.9801
-3.4791 -3.0146 -2.0063 0.9801
-3.2562 -3.2562 -2.0069 0.9801
-2.7611 -3.6884 -2.0080 0.9801
-2.6280 -3.7850 -2.0082 0.9801
-2.2089 -4.0453 -2.0087 0.9801
-1.9149 -4.1931 -2.0090 0.9801
-1.6111 -4.3195 -2.0092 0.9801
-1.1402 -4.4672 -2.0093 0.9801
-0.9800 -4.5050 -2.0093 0.9801
-0.8186 -4.5371 -2.0093 0.9801
-0.3289 -4.5982 -2.0091 0.9801
-0.1645 -4.6067 -2.0090 0.9801
0.1645 -4.6061 -2.0087 0.9801
0.8180 -4.5341 -2.0079 0.9801
1.2975 -4.4190 -2.0072 0.9801
1.4542 -4.3692 -2.0069 0.9801
1.9120 -4.1867 -2.0059 0.9801
2.0598 -4.1150 -2.0055 0.9801
2.2050 -4.0381 -2.0052 0.9801
2.7550 -3.6802 -2.0035 0.9801
3.0091 -3.4727 -2.0026 0.9801
3.2477 -3.2477 -2.0017 0.9802
3.4694 -3.0062 -2.0007 0.9802
3.5735 -2.8797 -2.0002 0.9802
3.6731 -2.7497 -1.9996 0.9802
3.9428 -2.3394 -1.9980 0.9802
4.0227 -2.1966 -1.9975 0.9802
4.1669 -1.9030 -1.9964 0.9802
4.2309 -1.7525 -1.9958 0.9802
4.2896 -1.5999 -1.9953 0.9802
4.3427 -1.4454 -1.9947 0.9802
4.4991 -0.8117 -1.9925 0.9802
4.5240 -0.6505 -1.9919 0.9803
4.5430 -0.4884 -1.9913 0.9803
4.5563 -0.3259 -1.9908 0.9803
4.5638 -0.1630 -1.9902 0.9803
-1.2261 -0.1318 -0.5708 0.9946
-1.2124 -0.1743 -0.5670 0.9946
-1.1974 -0.2160 -0.5632 0.9947
-1.1790 -0.2565 -0.5585 0.9947
-1.1575 -0.2954 -0.5529 0.9947
-1.1330 -0.3327 -0.5466 0.9948
-1.1536 -0.3840 -0.5628 0.9947
-1.2017 -0.4482 -0.5937 0.9944
-3.8694 -1.9369 -2.0030 0.9811
-3.7986 -2.0742 -2.0034 0.9811
-3.6424 -2.3408 -2.0041 0.9811
-3.5571 -2.4698 -2.0045 0.9811
-3.4673 -2.5956 -2.0049 0.9811
-3.0645 -3.0646 -2.0061 0.9811
-2.7205 -3.3759 -2.0069 0.9811
-2.5985 -3.4712 -2.0071 0.9811
-2.0788 -3.8070 -2.0078 0.9811
-1.3701 -4.1166 -2.0083 0.9811
-1.0730 -4.2040 -2.0083 0.9811
-0.9223 -4.2396 -2.0083 0.9811
-0.7703 -4.2698 -2.0083 0.9811
-0.6175 -4.2945 -2.0083 0.9811
-0.4638 -4.3136 -2.0082 0.9811
-0.3095 -4.3273 -2.0081 0.9811
-0.1548 -4.3354 -2.0080 0.9811
-0.0000 -4.3379 -2.0079 0.9811
0.1548 -4.3348 -2.0078 0.9811
0.6171 -4.2923 -2.0073 0.9811
0.7699 -4.2671 -2.0071 0.9811
1.2211 -4.1589 -2.0063 0.9811
1.3686 -4.1121 -2.0061 0.9811
1.7995 -3.9404 -2.0051 0.9811
1.9387 -3.8730 -2.0048 0.9811
2.0753 -3.8007 -2.0045 0.9811
2.2092 -3.7235 -2.0041 0.9811
2.3403 -3.6416 -2.0037 0.9811
2.4683 -3.5550 -2.0033 0.9811
2.5931 -3.4640 -2.0029 0.9811
2.8324 -3.2688 -2.0021 0.9811
3.3639 -2.7108 -1.9998 0.9811
3.7117 -2.2023 -1.9978 0.9812
3.7870 -2.0679 -1.9973 0.9812
3.9228 -1.7915 -1.9962 0.9812
3.9832 -1.6499 -1.9957 0.9812
4.0886 -1.3608 -1.9946 0.9812
4.1335 -1.2137 -1.9941 0.9812
4.1731 -1.0651 -1.9936 0.9812
4.2973 -0.1535 -1.9904 0.9812
-1.0817 0.0000 -0.5306 0.9952
-1.0422 -0.2267 -0.5232 0.9953
-1.0175 -0.2988 -0.5202 0.9953
-1.0119 -0.3774 -0.5298 0.9952
-1.0444 -0.4770 -0.5632 0.9949
-3.5121 -2.0838 -2.0032 0.9820
-3.3556 -2.3299 -2.0039 0.9820
-3.0888 -2.6765 -2.0048 0.9820
-2.8908 -2.8908 -2.0054 0.9820
-2.7862 -2.9926 -2.0056 0.9819
-2.5662 -3.1845 -2.0061 0.9819
-2.4512 -3.2743 -2.0063 0.9819
-2.3329 -3.3601 -2.0065 0.9819
-2.2117 -3.4415 -2.0067 0.9819
-2.0877 -3.5185 -2.0069 0.9819
-1.9609 -3.5911 -2.0070 0.9819
-1.8316 -3.6590 -2.0071 0.9819
-1.5660 -3.7807 -2.0073 0.9819
-1.1530 -3.9267 -2.0075 0.9819
-0.8699 -3.9990 -2.0075 0.9819
-0.7266 -4.0275 -2.0075 0.9819
-0.5824 -4.0508 -2.0074 0.9819
-0.2919 -4.0818 -2.0073 0.9819
-0.1461 -4.0894 -2.0072 0.9819
-0.0000 -4.0918 -2.0071 0.9819
0.1460 -4.0889 -2.0070 0.9819
0.4373 -4.0675 -2.0067 0.9819
0.5821 -4.0489 -2.0065 0.9819
0.8693 -3.9962 -2.0061 0.9819
1.0113 -3.9622 -2.0059 0.9819
1.4285 -3.8299 -2.0051 0.9820
1.6976 -3.7171 -2.0045 0.9820
1.9578 -3.5854 -2.0038 0.9820
2.4463 -3.2679 -2.0024 0.9820
2.7799 -2.9859 -2.0012 0.9820
2.8841 -2.8841 -2.0007 0.9820
2.9846 -2.7787 -2.0003 0.9820
3.1738 -2.5576 -1.9994 0.9820
3.2623 -2.4421 -1.9989 0.9820
3.3466 -2.3236 -1.9985 0.9820
3.4266 -2.2022 -1.9980 0.9820
3.5022 -2.0779 -1.9975 0.9820
3.7586 -1.5569 -1.9956 0.9820
3.8581 -1.2841 -1.9946 0.9820
3.9005 -1.1453 -1.9941 0.9821
3.9379 -1.0051 -1.9936 0.9821
3.9976 -0.7213 -1.9926 0.9821
4.0198 -0.5780 -1.9921 0.9821
4.0368 -0.4340 -1.9916 0.9821
4.0555 -0.1449 -1.9906 0.9821
-0.9895 -0.0000 -0.5133 0.9956
-0.9838 -0.1058 -0.5133 0.9956
-0.9785 -0.1407 -0.5128 0.9956
-0.9271 -0.3840 -0.5206 0.9955
-0.9486 -0.5180 -0.5607 0.9951
-3.0918 -2.3145 -2.0036 0.9827
-3.0077 -2.4238 -2.0039 0.9827
-2.8279 -2.6329 -2.0045 0.9827
-2.2051 -3.1759 -2.0058 0.9827
-2.0905 -3.2529 -2.0060 0.9827
-1.8534 -3.3942 -2.0062 0.9827
-1.6067 -3.5182 -2.0065 0.9827
-1.4801 -3.5734 -2.0065 0.9827
-1.2215 -3.6701 -2.0067 0.9827
-0.9566 -3.7480 -2.0067 0.9827
-0.8222 -3.7797 -2.0067 0.9827
-0.4135 -3.8458 -2.0066 0.9827
-0.0000 -3.8675 -2.0063 0.9827
0.5502 -3.8270 -2.0058 0.9827
0.9559 -3.7451 -2.0052 0.9827
1.3502 -3.6201 -2.0044 0.9827
1.4784 -3.5692 -2.0042 0.9827
1.8506 -3.3892 -2.0033 0.9827
1.9701 -3.3204 -2.0029 0.9828
2.0870 -3.2474 -2.0026 0.9828
2.2012 -3.1703 -2.0022 0.9828
2.4208 -3.0041 -2.0015 0.9828
2.7265 -2.7265 -2.0003 0.9828
2.8215 -2.6269 -1.9999 0.9828
2.9128 -2.5240 -1.9995 0.9828
3.0004 -2.4179 -1.9991 0.9828
3.0841 -2.3088 -1.9986 0.9828
3.2395 -2.0820 -1.9977 0.9828
3.3110 -1.9645 -1.9973 0.9828
3.3783 -1.8447 -1.9968 0.9828
3.6478 -1.2142 -1.9945 0.9828
3.7234 -0.9503 -1.9936 0.9828
3.8171 -0.4104 -1.9917 0.9828
3.8284 -0.2738 -1.9912 0.9829
3.8349 -0.1370 -1.9907 0.9829
-0.9179 -0.0328 -0.5031 0.9958
-0.9127 -0.0981 -0.5028 0.9958
-0.8932 -0.1943 -0.5006 0.9958
-0.8837 -0.2255 -0.4995 0.9958
-0.8727 -0.2563 -0.4982 0.9959
-0.8479 -0.3512 -0.5027 0.9958
-0.8506 -0.3885 -0.5122 0.9957
-0.8507 -0.4645 -0.5309 0.9956
-0.8524 -0.5058 -0.5429 0.9955
-3.0757 -1.9766 -2.0025 0.9835
-2.9277 -2.1917 -2.0031 0.9835
-2.8481 -2.2951 -2.0033 0.9835
-2.4937 -2.6784 -2.0044 0.9834
-2.3968 -2.7660 -2.0046 0.9834
-2.2967 -2.8501 -2.0048 0.9834
-1.8684 -3.1490 -2.0054 0.9834
-1.7549 -3.2139 -2.0056 0.9834
-1.1566 -3.4751 -2.0060 0.9834
-0.7785 -3.5789 -2.0060 0.9834
-0.5212 -3.6252 -2.0060 0.9834
-0.2613 -3.6530 -2.0058 0.9834
-0.1307 -3.6598 -2.0058 0.9834
0.1307 -3.6594 -2.0055 0.9834
0.5210 -3.6237 -2.0051 0.9834
0.7780 -3.5766 -2.0047 0.9834
0.9051 -3.5462 -2.0045 0.9834
1.0310 -3.5113 -2.0043 0.9834
1.1555 -3.4718 -2.0041 0.9835
1.2786 -3.4280 -2.0038 0.9835
1.7524 -3.2093 -2.0027 0.9835
1.8655 -3.1442 -2.0024 0.9835
1.9763 -3.0752 -2.0021 0.9835
2.0844 -3.0022 -2.0018 0.9835
2.3921 -2.7607 -2.0007 0.9835
2.5820 -2.5820 -2.0000 0.9835
2.7585 -2.3903 -1.9992 0.9835
2.9964 -2.0805 -1.9979 0.9835
3.1996 -1.7471 -1.9967 0.9835
3.4126 -1.2729 -1.9949 0.9835
3.4932 -1.0257 -1.9940 0.9835
3.5268 -0.9002 -1.9935 0.9835
3.6003 -0.5177 -1.9922 0.9835
3.6265 -0.2594 -1.9913 0.9836
-0.8531 -0.0610 -0.4938 0.9961
-0.8499 -0.0914 -0.4935 0.9961
-0.8453 -0.1215 -0.4930 0.9961
-0.8393 -0.1514 -0.4924 0.9961
-0.8318 -0.1810 -0.4915 0.9961
-0.8128 -0.2387 -0.4891 0.9961
-0.8014 -0.2667 -0.4876 0.9961
-0.7887 -0.2942 -0.4860 0.9961
-0.7806 -0.3908 -0.5040 0.9960
-0.7787 -0.4252 -0.5122 0.9959
-0.7751 -0.4599 -0.5203 0.9958
-0.7696 -0.4946 -0.5282 0.9958
-2.6220 -2.2720 -2.0031 0.9841
-2.5396 -2.3644 -2.0033 0.9841
-2.3650 -2.5402 -2.0038 0.9841
-2.2730 -2.6232 -2.0040 0.9841
-1.8772 -2.9210 -2.0047 0.9841
-1.7719 -2.9864 -2.0048 0.9841
-1.6643 -3.0479 -2.0049 0.9841
-1.5545 -3.1055 -2.0050 0.9841
-1.4427 -3.1591 -2.0051 0.9841
-1.3291 -3.2088 -2.0052 0.9841
-1.2138 -3.2542 -2.0053 0.9841
-1.0969 -3.2956 -2.0053 0.9841
-0.9786 -3.3326 -2.0053 0.9841
-0.6167 -3.4182 -2.0053 0.9841
-0.4943 -3.4379 -2.0053 0.9841
-0.3713 -3.4533 -2.0053 0.9841
-0.2478 -3.4642 -2.0052 0.9841
-0.1240 -3.4708 -2.0051 0.9841
0.3712 -3.4523 -2.0047 0.9841
0.4941 -3.4366 -2.0045 0.9841
0.8584 -3.3632 -2.0040 0.9841
1.0959 -3.2927 -2.0035 0.9841
1.3277 -3.2053 -2.0031 0.9841
1.5525 -3.1016 -2.0025 0.9841
1.6620 -3.0438 -2.0022 0.9841
1.7694 -2.9821 -2.0020 0.9841
1.8744 -2.9166 -2.0016 0.9841
1.9770 -2.8474 -2.0013 0.9841
2.6952 -2.1720 -1.9985 0.9841
2.8422 -1.9734 -1.9977 0.9841
2.9745 -1.7649 -1.9969 0.9842
3.0350 -1.6573 -1.9965 0.9842
3.1928 -1.3225 -1.9952 0.9842
3.2373 -1.2074 -1.9948 0.9842
3.2776 -1.0909 -1.9944 0.9842
3.3137 -0.9730 -1.9940 0.9842
3.3456 -0.8539 -1.9935 0.9842
3.3733 -0.7338 -1.9931 0.9842
3.4404 -0.2461 -1.9914 0.9842
3.4463 -0.1231 -1.9910 0.9842
