ply
format ascii 1.0
element vertex 725
property float32 x
property float32 y
property float32 z
property float32 I
end_header
-9.2977 0.0000 -1.9654 0.9627
-9.2784 -0.6636 -1.9663 0.9627
-9.1618 -1.6530 -1.9679 0.9627
-9.0997 -1.9795 -1.9685 0.9626
-8.8449 -2.9438 -1.9705 0.9626
-8.7373 -3.2588 -1.9712 0.9626
-8.3486 -4.1790 -1.9735 0.9625
-8.1975 -4.4762 -1.9743 0.9625
-8.0359 -4.7679 -1.9751 0.9625
-7.8640 -5.0539 -1.9760 0.9625
-7.0777 -6.1329 -1.9796 0.9624
-6.8576 -6.3846 -1.9806 0.9624
-5.8908 -7.3101 -1.9845 0.9623
-4.5109 -8.2612 -1.9896 0.9622
-4.2154 -8.4213 -1.9907 0.9622
-3.9142 -8.5709 -1.9917 0.9622
-3.6077 -8.7097 -1.9928 0.9622
-3.2962 -8.8376 -1.9938 0.9622
-2.3363 -9.1536 -1.9969 0.9621
-1.3465 -9.3653 -2.0000 0.9621
-1.0119 -9.4121 -2.0010 0.9620
-0.6757 -9.4469 -2.0020 0.9620
0.0000 -9.4803 -2.0039 0.9620
0.3385 -9.4787 -2.0049 0.9620
1.0148 -9.4391 -2.0067 0.9619
1.3517 -9.4011 -2.0076 0.9619
2.0207 -9.2888 -2.0094 0.9619
3.0057 -9.0305 -2.0118 0.9618
3.3273 -8.9209 -2.0126 0.9618
3.6449 -8.7997 -2.0133 0.9618
4.5694 -8.3681 -2.0154 0.9618
4.8666 -8.2022 -2.0160 0.9618
5.1578 -8.0257 -2.0166 0.9617
5.9908 -7.4342 -2.0182 0.9617
6.7554 -6.7554 -2.0194 0.9617
7.4423 -5.9974 -2.0204 0.9617
7.8530 -5.4524 -2.0208 0.9617
8.2231 -4.8790 -2.0211 0.9617
8.5509 -4.2803 -2.0213 0.9617
9.0722 -3.0195 -2.0211 0.9617
9.1736 -2.6936 -2.0210 0.9617
9.2630 -2.3643 -2.0208 0.9617
9.3405 -2.0319 -2.0206 0.9617
9.5002 -1.0214 -2.0197 0.9617
9.5288 -0.6815 -2.0194 0.9617
9.5452 -0.3409 -2.0190 0.9617
-8.3557 -0.5976 -1.9688 0.9662
-8.3309 -0.8957 -1.9692 0.9662
-8.2957 -1.1927 -1.9697 0.9661
-8.2500 -1.4885 -1.9702 0.9661
-8.1939 -1.7825 -1.9708 0.9661
-8.1274 -2.0744 -1.9714 0.9661
-8.0506 -2.3639 -1.9719 0.9661
-7.9636 -2.6505 -1.9726 0.9661
-7.8665 -2.9340 -1.9732 0.9661
-7.6424 -3.4902 -1.9746 0.9661
-7.5156 -3.7621 -1.9753 0.9661
-7.3793 -4.0294 -1.9760 0.9660
-7.2335 -4.2919 -1.9768 0.9660
-7.0785 -4.5491 -1.9775 0.9660
-6.9144 -4.8008 -1.9783 0.9660
-6.3695 -5.5192 -1.9808 0.9660
-6.1711 -5.7455 -1.9817 0.9659
-4.5730 -7.1158 -1.9880 0.9658
-4.3182 -7.2779 -1.9889 0.9658
-4.0575 -7.4308 -1.9898 0.9658
-3.7915 -7.5745 -1.9908 0.9658
-3.5204 -7.7086 -1.9917 0.9658
-2.9643 -7.9476 -1.9936 0.9657
-2.3920 -8.1465 -1.9954 0.9657
-2.1007 -8.2305 -1.9964 0.9657
-1.8064 -8.3041 -1.9973 0.9657
-0.6074 -8.4921 -2.0009 0.9656
0.0000 -8.5212 -2.0027 0.9656
0.3043 -8.5194 -2.0035 0.9656
0.9120 -8.4831 -2.0052 0.9655
1.2147 -8.4485 -2.0060 0.9655
1.5161 -8.4031 -2.0068 0.9655
2.1133 -8.2798 -2.0083 0.9655
2.4084 -8.2021 -2.0091 0.9655
2.7005 -8.1138 -2.0098 0.9655
2.9894 -8.0150 -2.0105 0.9655
3.2747 -7.9058 -2.0111 0.9654
3.5559 -7.7863 -2.0118 0.9654
3.8327 -7.6568 -2.0124 0.9654
4.8886 -7.0410 -2.0145 0.9654
5.3809 -6.6773 -2.0155 0.9654
5.6170 -6.4823 -2.0159 0.9654
6.0673 -6.0673 -2.0166 0.9654
6.4866 -5.6207 -2.0172 0.9653
6.6839 -5.3862 -2.0175 0.9653
6.8727 -5.1448 -2.0177 0.9653
7.0526 -4.8967 -2.0179 0.9653
7.5369 -4.1154 -2.0182 0.9653
8.0458 -3.0009 -2.0182 0.9653
8.1474 -2.7117 -2.0181 0.9653
8.2385 -2.4190 -2.0180 0.9653
8.3886 -1.8248 -2.0176 0.9653
8.4954 -1.2215 -2.0171 0.9653
8.5323 -0.9173 -2.0168 0.9654
8.5731 -0.3062 -2.0162 0.9654
-7.6090 0.0000 -1.9701 0.9690
-7.5926 -0.5430 -1.9709 0.9690
-7.5378 -1.0838 -1.9717 0.9690
-7.2350 -2.4080 -1.9743 0.9690
-6.7031 -3.6602 -1.9774 0.9689
-6.5705 -3.8984 -1.9781 0.9689
-6.4294 -4.1319 -1.9788 0.9689
-6.1228 -4.5834 -1.9803 0.9689
-5.9575 -4.8009 -1.9810 0.9689
-5.2219 -5.6087 -1.9842 0.9688
-5.0204 -5.7939 -1.9850 0.9688
-4.3778 -6.3052 -1.9874 0.9688
-3.9201 -6.6070 -1.9891 0.9688
-3.6834 -6.7456 -1.9900 0.9687
-3.4417 -6.8757 -1.9908 0.9687
-2.9450 -7.1098 -1.9925 0.9687
-2.6905 -7.2135 -1.9934 0.9687
-1.0984 -7.6399 -1.9984 0.9686
1.6470 -7.5709 -2.0061 0.9685
1.9168 -7.5099 -2.0068 0.9685
2.1843 -7.4391 -2.0074 0.9685
2.4492 -7.3588 -2.0081 0.9685
2.7112 -7.2689 -2.0087 0.9685
3.2247 -7.0611 -2.0099 0.9684
3.7222 -6.8168 -2.0110 0.9684
4.8789 -6.0544 -2.0132 0.9684
5.0929 -5.8775 -2.0136 0.9684
5.5010 -5.5010 -2.0143 0.9684
5.8810 -5.0959 -2.0148 0.9684
6.0598 -4.8833 -2.0150 0.9684
6.3939 -4.4394 -2.0154 0.9683
6.5487 -4.2086 -2.0155 0.9683
6.6951 -3.9724 -2.0156 0.9683
6.8329 -3.7310 -2.0157 0.9683
6.9618 -3.4848 -2.0158 0.9683
7.5420 -1.9250 -2.0154 0.9683
7.6053 -1.6544 -2.0152 0.9684
7.7731 -0.2776 -2.0139 0.9684
-6.9624 -0.2487 -1.9723 0.9715
-6.9503 -0.4971 -1.9726 0.9714
-6.9295 -0.7450 -1.9730 0.9714
-6.8999 -0.9921 -1.9734 0.9714
-6.7590 -1.7251 -1.9748 0.9714
-6.4515 -2.6723 -1.9769 0.9714
-6.3539 -2.9017 -1.9774 0.9714
-6.2481 -3.1276 -1.9780 0.9714
-6.1344 -3.3496 -1.9786 0.9714
-6.0129 -3.5676 -1.9793 0.9714
-5.8836 -3.7812 -1.9799 0.9713
-5.4513 -4.3929 -1.9819 0.9713
-5.2929 -4.5863 -1.9826 0.9713
-5.1276 -4.7740 -1.9833 0.9713
-4.9558 -4.9558 -1.9841 0.9713
-4.0046 -5.7678 -1.9878 0.9712
-3.7977 -5.9093 -1.9886 0.9712
-3.5857 -6.0434 -1.9893 0.9712
-1.9852 -6.7610 -1.9948 0.9711
-1.0043 -6.9854 -1.9978 0.9711
0.0000 -7.0676 -2.0008 0.9710
0.2523 -7.0656 -2.0015 0.9710
0.5046 -7.0546 -2.0022 0.9710
1.0072 -7.0053 -2.0036 0.9710
1.2570 -6.9672 -2.0042 0.9710
1.9964 -6.7992 -2.0061 0.9710
2.2385 -6.7256 -2.0067 0.9710
2.4778 -6.6433 -2.0072 0.9710
3.1763 -6.3454 -2.0088 0.9709
3.6226 -6.1055 -2.0098 0.9709
3.8390 -5.9736 -2.0102 0.9709
4.0506 -5.8340 -2.0106 0.9709
4.2571 -5.6868 -2.0110 0.9709
4.4581 -5.5322 -2.0114 0.9709
5.3734 -4.6561 -2.0128 0.9709
5.5368 -4.4618 -2.0130 0.9709
5.8419 -4.0561 -2.0133 0.9709
5.9833 -3.8452 -2.0135 0.9709
6.6645 -2.4857 -2.0136 0.9709
6.7487 -2.2462 -2.0135 0.9709
6.9488 -1.5116 -2.0132 0.9709
6.9976 -1.2625 -2.0130 0.9709
7.0683 -0.7599 -2.0125 0.9709
7.0900 -0.5071 -2.0122 0.9709
7.1025 -0.2537 -2.0119 0.9709
-6.4162 0.0000 -1.9735 0.9735
-6.4131 -0.2290 -1.9738 0.9735
-6.3826 -0.6862 -1.9745 0.9735
-6.3553 -0.9137 -1.9748 0.9735
-6.3199 -1.1402 -1.9752 0.9735
-6.0239 -2.2468 -1.9775 0.9735
-5.9414 -2.4610 -1.9780 0.9734
-5.8514 -2.6722 -1.9786 0.9734
-5.6490 -3.0846 -1.9797 0.9734
-5.2917 -3.6740 -1.9814 0.9734
-5.1588 -3.8618 -1.9821 0.9734
-5.0192 -4.0448 -1.9827 0.9734
-4.8732 -4.2227 -1.9833 0.9734
-4.5626 -4.5626 -1.9847 0.9734
-4.3983 -4.7242 -1.9853 0.9733
-4.0529 -5.0294 -1.9867 0.9733
-3.4958 -5.4396 -1.9888 0.9733
-3.3006 -5.5629 -1.9895 0.9733
-2.8974 -5.7883 -1.9909 0.9733
-2.6899 -5.8901 -1.9917 0.9733
-2.2645 -6.0714 -1.9931 0.9732
-2.0471 -6.1506 -1.9938 0.9732
-1.6043 -6.2854 -1.9952 0.9732
-1.1526 -6.3884 -1.9967 0.9732
-0.9242 -6.4277 -1.9973 0.9732
-0.2320 -6.4963 -1.9994 0.9732
0.0000 -6.5026 -2.0001 0.9732
0.4642 -6.4902 -2.0013 0.9731
1.1564 -6.4093 -2.0032 0.9731
2.0591 -6.1865 -2.0055 0.9731
2.2791 -6.1106 -2.0060 0.9731
2.7106 -5.9354 -2.0070 0.9731
3.1285 -5.7295 -2.0079 0.9731
3.5308 -5.4940 -2.0087 0.9730
3.9151 -5.2300 -2.0094 0.9730
4.4539 -4.7838 -2.0104 0.9730
4.6224 -4.6224 -2.0106 0.9730
4.9415 -4.2818 -2.0111 0.9730
5.0916 -4.1031 -2.0113 0.9730
5.2353 -3.9191 -2.0115 0.9730
5.5022 -3.5361 -2.0117 0.9730
5.6252 -3.3376 -2.0118 0.9730
5.9500 -2.7173 -2.0119 0.9730
6.0432 -2.5032 -2.0119 0.9730
6.1285 -2.2858 -2.0118 0.9730
6.2060 -2.0655 -2.0118 0.9730
6.3369 -1.6174 -2.0116 0.9730
6.3901 -1.3901 -2.0114 0.9730
6.4351 -1.1610 -2.0112 0.9730
6.5202 -0.4663 -2.0106 0.9730
-5.9381 -0.2121 -1.9751 0.9753
-5.9276 -0.4239 -1.9754 0.9753
-5.8843 -0.8460 -1.9761 0.9753
-5.8514 -1.0557 -1.9764 0.9752
-5.8111 -1.2641 -1.9768 0.9752
-5.7635 -1.4710 -1.9772 0.9752
-5.5770 -2.0801 -1.9786 0.9752
-5.4170 -2.4739 -1.9795 0.9752
-5.3266 -2.6663 -1.9800 0.9752
-5.1255 -3.0411 -1.9811 0.9752
-4.8983 -3.4009 -1.9822 0.9752
-4.7752 -3.5746 -1.9828 0.9752
-4.2229 -4.2229 -1.9852 0.9751
-3.9134 -4.5163 -1.9864 0.9751
-3.7509 -4.6546 -1.9871 0.9751
-3.2350 -5.0338 -1.9890 0.9751
-3.0543 -5.1478 -1.9897 0.9751
-2.6811 -5.3561 -1.9910 0.9751
-2.2937 -5.5374 -1.9923 0.9751
-1.8941 -5.6907 -1.9937 0.9750
-1.6903 -5.7566 -1.9943 0.9750
-1.4842 -5.8152 -1.9950 0.9750
-1.2761 -5.8664 -1.9956 0.9750
-1.0663 -5.9101 -1.9963 0.9750
-0.8549 -5.9463 -1.9969 0.9750
-0.6424 -5.9750 -1.9976 0.9750
-0.2146 -6.0093 -1.9988 0.9750
0.2148 -6.0130 -2.0000 0.9750
0.4294 -6.0033 -2.0006 0.9749
0.6435 -5.9858 -2.0012 0.9749
0.8570 -5.9608 -2.0018 0.9749
1.0695 -5.9280 -2.0023 0.9749
1.2808 -5.8877 -2.0029 0.9749
1.4905 -5.8397 -2.0034 0.9749
1.9043 -5.7214 -2.0044 0.9749
2.5067 -5.4889 -2.0058 0.9749
2.8931 -5.2983 -2.0066 0.9749
3.9573 -4.5669 -2.0087 0.9748
4.1183 -4.4233 -2.0090 0.9748
4.2741 -4.2741 -2.0092 0.9748
4.5691 -3.9591 -2.0096 0.9748
5.2011 -3.0859 -2.0103 0.9748
5.3081 -2.8984 -2.0103 0.9748
5.4082 -2.7072 -2.0104 0.9748
5.7381 -1.9098 -2.0103 0.9748
5.8024 -1.7037 -2.0102 0.9748
5.9084 -1.2853 -2.0099 0.9748
5.9840 -0.8604 -2.0096 0.9748
6.0103 -0.6462 -2.0094 0.9748
6.0289 -0.4312 -2.0092 0.9748
-5.5256 0.0000 -1.9760 0.9768
-5.5228 -0.1972 -1.9763 0.9768
-5.5131 -0.3943 -1.9765 0.9768
-5.4963 -0.5909 -1.9768 0.9768
-5.4726 -0.7868 -1.9772 0.9768
-5.3089 -1.5588 -1.9786 0.9768
-5.2509 -1.7477 -1.9790 0.9768
-5.1863 -1.9344 -1.9795 0.9768
-5.1151 -2.1187 -1.9799 0.9768
-5.0374 -2.3005 -1.9804 0.9767
-4.7661 -2.8279 -1.9818 0.9767
-4.5546 -3.1623 -1.9829 0.9767
-4.4400 -3.3238 -1.9834 0.9767
-4.3197 -3.4811 -1.9839 0.9767
-4.1939 -3.6340 -1.9845 0.9767
-3.7847 -4.0650 -1.9862 0.9767
-3.4871 -4.3273 -1.9874 0.9767
-3.3315 -4.4503 -1.9880 0.9767
-3.0073 -4.6795 -1.9892 0.9766
-2.8393 -4.7853 -1.9898 0.9766
-2.3136 -5.0661 -1.9917 0.9766
-1.9475 -5.2215 -1.9929 0.9766
-1.7604 -5.2893 -1.9935 0.9766
-1.3795 -5.4047 -1.9947 0.9766
-0.7946 -5.5262 -1.9965 0.9766
-0.1994 -5.5844 -1.9983 0.9765
1.1901 -5.4706 -2.0021 0.9765
1.3849 -5.4259 -2.0026 0.9765
1.7693 -5.3158 -2.0035 0.9765
2.1449 -5.1783 -2.0044 0.9765
2.5099 -5.0141 -2.0052 0.9765
2.6878 -4.9223 -2.0056 0.9765
3.0332 -4.7197 -2.0063 0.9764
3.2002 -4.6092 -2.0066 0.9764
3.3632 -4.4927 -2.0069 0.9764
3.6762 -4.2425 -2.0075 0.9764
3.8257 -4.1091 -2.0077 0.9764
4.1100 -3.8265 -2.0082 0.9764
4.2443 -3.6777 -2.0083 0.9764
4.3733 -3.5242 -2.0085 0.9764
4.6141 -3.2037 -2.0088 0.9764
5.0237 -2.5147 -2.0090 0.9764
5.1103 -2.3338 -2.0090 0.9764
5.3302 -1.7741 -2.0089 0.9764
5.3899 -1.5826 -2.0088 0.9764
5.5272 -0.9972 -2.0085 0.9764
5.6005 -0.4006 -2.0079 0.9764
5.6106 -0.2004 -2.0077 0.9764
-5.1472 -0.3681 -1.9775 0.9781
-5.1315 -0.5517 -1.9778 0.9781
-5.0456 -1.0976 -1.9788 0.9781
-4.9562 -1.4553 -1.9795 0.9781
-4.8417 -1.8058 -1.9803 0.9781
-4.7751 -1.9779 -1.9807 0.9781
-4.5394 -2.4787 -1.9820 0.9781
-4.4490 -2.6397 -1.9825 0.9781
-4.3530 -2.7975 -1.9829 0.9781
-4.2515 -2.9518 -1.9834 0.9781
-3.9146 -3.3920 -1.9850 0.9781
-3.6646 -3.6646 -1.9860 0.9780
-3.5324 -3.7941 -1.9866 0.9780
-3.2545 -4.0386 -1.9877 0.9780
-3.1092 -4.1534 -1.9882 0.9780
-2.9598 -4.2629 -1.9888 0.9780
-2.8066 -4.3671 -1.9894 0.9780
-2.3257 -4.6461 -1.9911 0.9780
-2.1590 -4.7275 -1.9917 0.9780
-1.9894 -4.8029 -1.9922 0.9780
-1.1066 -5.0872 -1.9951 0.9779
-0.9246 -5.1249 -1.9957 0.9779
-0.7413 -5.1560 -1.9962 0.9779
-0.3718 -5.1986 -1.9973 0.9779
0.0000 -5.2147 -1.9984 0.9779
0.3722 -5.2041 -1.9994 0.9779
0.7429 -5.1669 -2.0004 0.9779
0.9271 -5.1383 -2.0009 0.9779
1.1101 -5.1032 -2.0014 0.9779
1.6504 -4.9586 -2.0027 0.9779
1.8267 -4.8975 -2.0031 0.9779
2.0007 -4.8302 -2.0035 0.9779
2.3411 -4.6769 -2.0043 0.9778
2.6697 -4.4995 -2.0050 0.9778
2.8291 -4.4021 -2.0053 0.9778
2.9848 -4.2990 -2.0056 0.9778
3.7030 -3.7030 -2.0069 0.9778
3.8332 -3.5688 -2.0070 0.9778
4.0787 -3.2868 -2.0074 0.9778
4.3033 -2.9878 -2.0076 0.9778
4.4074 -2.8325 -2.0077 0.9778
4.5058 -2.6734 -2.0078 0.9778
4.6852 -2.3453 -2.0079 0.9778
4.8406 -2.0050 -2.0079 0.9778
4.9711 -1.6545 -2.0078 0.9778
5.0268 -1.4760 -2.0077 0.9778
5.0760 -1.2956 -2.0076 0.9778
5.1549 -0.9300 -2.0073 0.9778
5.1844 -0.7454 -2.0072 0.9778
5.2234 -0.3736 -2.0068 0.9778
5.2328 -0.1869 -2.0066 0.9778
-4.8328 0.0000 -1.9779 0.9793
-4.8303 -0.1725 -1.9782 0.9793
-4.8217 -0.3449 -1.9784 0.9793
-4.7592 -0.8587 -1.9793 0.9793
-4.7263 -1.0281 -1.9796 0.9793
-4.6873 -1.1964 -1.9799 0.9793
-4.5917 -1.5283 -1.9806 0.9793
-4.4727 -1.8526 -1.9814 0.9793
-4.4046 -2.0115 -1.9818 0.9793
-4.1670 -2.4724 -1.9830 0.9793
-4.0770 -2.6201 -1.9835 0.9793
-3.8815 -2.9057 -1.9844 0.9793
-3.6661 -3.1767 -1.9854 0.9793
-3.0477 -3.7820 -1.9879 0.9792
-2.9116 -3.8894 -1.9884 0.9792
-2.6281 -4.0893 -1.9895 0.9792
-2.3309 -4.2687 -1.9906 0.9792
-2.1776 -4.3504 -1.9911 0.9792
-2.0215 -4.4265 -1.9916 0.9792
-1.8627 -4.4971 -1.9922 0.9792
-1.7015 -4.5619 -1.9927 0.9792
-1.5380 -4.6210 -1.9933 0.9792
-1.3725 -4.6742 -1.9938 0.9792
-1.0361 -4.7627 -1.9949 0.9792
-0.6940 -4.8271 -1.9959 0.9791
-0.3481 -4.8668 -1.9969 0.9791
-0.1742 -4.8773 -1.9974 0.9791
0.0000 -4.8817 -1.9979 0.9791
0.1743 -4.8798 -1.9984 0.9791
0.5222 -4.8572 -1.9994 0.9791
0.6954 -4.8366 -1.9998 0.9791
1.0391 -4.7768 -2.0007 0.9791
1.2092 -4.7376 -2.0012 0.9791
1.5448 -4.6412 -2.0020 0.9791
1.7098 -4.5840 -2.0024 0.9791
2.0332 -4.4520 -2.0031 0.9791
2.1912 -4.3774 -2.0035 0.9791
2.3464 -4.2971 -2.0038 0.9791
2.4987 -4.2113 -2.0041 0.9791
2.9358 -3.9217 -2.0050 0.9790
3.9247 -2.9380 -2.0065 0.9790
4.0272 -2.7962 -2.0066 0.9790
4.3035 -2.3499 -2.0068 0.9790
4.3847 -2.1948 -2.0068 0.9790
4.5941 -1.7135 -2.0068 0.9790
4.7904 -1.0421 -2.0065 0.9790
4.8243 -0.8704 -2.0063 0.9790
4.8884 -0.3496 -2.0058 0.9790
-1.4571 -0.0520 -0.6354 0.9937
-1.4180 -0.2039 -0.6244 0.9938
-1.3400 -0.3420 -0.6027 0.9940
-1.4401 -0.4793 -0.6615 0.9934
-4.2016 -1.7404 -1.9820 0.9804
-4.1376 -1.8896 -1.9824 0.9803
-4.0683 -2.0364 -1.9828 0.9803
-3.9938 -2.1808 -1.9832 0.9803
-3.9142 -2.3224 -1.9836 0.9803
-3.8297 -2.4612 -1.9840 0.9803
-3.7402 -2.5969 -1.9844 0.9803
-3.6459 -2.7293 -1.9849 0.9803
-3.4435 -2.9838 -1.9858 0.9803
-2.7345 -3.6529 -1.9886 0.9803
-2.6030 -3.7491 -1.9891 0.9803
-2.4682 -3.8405 -1.9896 0.9803
-2.3301 -3.9272 -1.9901 0.9803
-1.8984 -4.1569 -1.9916 0.9803
-1.4443 -4.3394 -1.9932 0.9802
-1.2888 -4.3892 -1.9937 0.9802
-0.9729 -4.4722 -1.9947 0.9802
-0.6517 -4.5325 -1.9956 0.9802
-0.4896 -4.5540 -1.9961 0.9802
-0.3268 -4.5696 -1.9966 0.9802
-0.1635 -4.5795 -1.9971 0.9802
0.1636 -4.5816 -1.9980 0.9802
0.6529 -4.5409 -1.9993 0.9802
0.8147 -4.5156 -1.9998 0.9802
0.9756 -4.4846 -2.0002 0.9802
1.2935 -4.4053 -2.0010 0.9802
1.7580 -4.2442 -2.0021 0.9802
1.9087 -4.1794 -2.0024 0.9802
2.4856 -3.8676 -2.0036 0.9801
2.7558 -3.6814 -2.0042 0.9801
2.8858 -3.5811 -2.0044 0.9801
3.0121 -3.4762 -2.0046 0.9801
3.1346 -3.3668 -2.0048 0.9801
3.3674 -3.1352 -2.0052 0.9801
3.4774 -3.0132 -2.0053 0.9801
3.5830 -2.8874 -2.0055 0.9801
3.7803 -2.6247 -2.0057 0.9801
3.8717 -2.4882 -2.0057 0.9801
3.9581 -2.3485 -2.0058 0.9801
4.1157 -2.0602 -2.0059 0.9801
4.4158 -1.2966 -2.0057 0.9801
4.4591 -1.1381 -2.0056 0.9801
4.5544 -0.6548 -2.0053 0.9801
4.5887 -0.3282 -2.0050 0.9801
-1.2447 0.0000 -0.5761 0.9945
-1.2261 -0.1318 -0.5708 0.9946
-1.1790 -0.2565 -0.5585 0.9947
-1.1575 -0.2954 -0.5529 0.9947
-1.1536 -0.3840 -0.5628 0.9947
-1.2017 -0.4482 -0.5937 0.9944
-1.2345 -0.5114 -0.6185 0.9941
-3.8967 -1.7796 -1.9829 0.9813
-3.8314 -1.9179 -1.9833 0.9813
-3.6862 -2.1871 -1.9840 0.9813
-3.5222 -2.4455 -1.9848 0.9813
-3.3402 -2.6917 -1.9857 0.9813
-3.2427 -2.8098 -1.9861 0.9813
-3.0353 -3.0353 -1.9870 0.9813
-2.9257 -3.1424 -1.9874 0.9813
-2.8123 -3.2456 -1.9879 0.9812
-2.6953 -3.3447 -1.9883 0.9812
-2.4510 -3.5301 -1.9893 0.9812
-2.0611 -3.7746 -1.9907 0.9812
-1.9255 -3.8466 -1.9912 0.9812
-1.7874 -3.9138 -1.9916 0.9812
-1.6470 -3.9761 -1.9921 0.9812
-1.5044 -4.0333 -1.9926 0.9812
-1.3598 -4.0854 -1.9931 0.9812
-0.7652 -4.2413 -1.9949 0.9812
-0.6135 -4.2669 -1.9954 0.9812
-0.4609 -4.2871 -1.9959 0.9812
-0.1540 -4.3110 -1.9968 0.9812
0.0000 -4.3147 -1.9972 0.9812
0.1540 -4.3129 -1.9976 0.9812
0.6146 -4.2744 -1.9989 0.9811
0.7669 -4.2506 -1.9993 0.9811
0.9183 -4.2213 -1.9997 0.9811
1.2175 -4.1466 -2.0004 0.9811
1.3650 -4.1012 -2.0008 0.9811
1.5108 -4.0506 -2.0011 0.9811
1.6547 -3.9947 -2.0015 0.9811
1.7965 -3.9338 -2.0018 0.9811
1.9360 -3.8677 -2.0021 0.9811
2.2077 -3.7208 -2.0027 0.9811
2.3394 -3.6401 -2.0029 0.9811
2.4681 -3.5548 -2.0032 0.9811
2.7160 -3.3704 -2.0036 0.9811
2.8349 -3.2717 -2.0038 0.9811
2.9502 -3.1687 -2.0040 0.9811
3.1692 -2.9507 -2.0044 0.9811
3.3721 -2.7174 -2.0046 0.9811
3.4671 -2.5955 -2.0047 0.9811
3.5577 -2.4702 -2.0048 0.9811
3.6438 -2.3417 -2.0049 0.9811
3.7251 -2.2102 -2.0050 0.9811
3.8017 -2.0759 -2.0050 0.9811
3.9402 -1.7994 -2.0050 0.9811
4.0019 -1.6576 -2.0050 0.9811
4.0584 -1.5137 -2.0050 0.9811
4.1559 -1.2203 -2.0049 0.9811
4.1966 -1.0711 -2.0048 0.9811
4.2319 -0.9206 -2.0047 0.9811
4.2619 -0.7689 -2.0046 0.9811
4.3187 -0.3089 -2.0042 0.9811
-1.0803 -0.0386 -0.5302 0.9952
-1.0769 -0.0770 -0.5296 0.9952
-1.0611 -0.1526 -0.5258 0.9952
-1.0422 -0.2267 -0.5232 0.9953
-1.0307 -0.2631 -0.5218 0.9953
-1.0175 -0.2987 -0.5202 0.9953
-1.0119 -0.3774 -0.5298 0.9952
-1.0290 -0.4262 -0.5463 0.9951
-3.5501 -1.9385 -1.9841 0.9821
-3.4040 -2.1876 -1.9848 0.9821
-3.2405 -2.4258 -1.9856 0.9821
-3.1525 -2.5404 -1.9860 0.9821
-3.0605 -2.6519 -1.9864 0.9821
-2.8647 -2.8647 -1.9872 0.9821
-2.7612 -2.9657 -1.9877 0.9821
-2.6541 -3.0630 -1.9881 0.9821
-2.5437 -3.1565 -1.9885 0.9821
-2.4299 -3.2460 -1.9890 0.9821
-2.0704 -3.4895 -1.9903 0.9821
-0.7220 -4.0020 -1.9948 0.9820
-0.5789 -4.0261 -1.9952 0.9820
-0.4349 -4.0450 -1.9956 0.9820
-0.2903 -4.0589 -1.9961 0.9820
0.0000 -4.0709 -1.9969 0.9820
0.4354 -4.0500 -1.9981 0.9820
1.0081 -3.9498 -1.9996 0.9820
1.1487 -3.9120 -1.9999 0.9820
1.2878 -3.8691 -2.0003 0.9820
1.5610 -3.7686 -2.0009 0.9820
1.9558 -3.5817 -2.0018 0.9820
2.0826 -3.5101 -2.0020 0.9820
2.2069 -3.4339 -2.0023 0.9820
2.3283 -3.3534 -2.0025 0.9820
2.5621 -3.1794 -2.0030 0.9820
2.7830 -2.9891 -2.0033 0.9820
2.8881 -2.8881 -2.0035 0.9820
3.1809 -2.5633 -2.0039 0.9820
3.3560 -2.3301 -2.0041 0.9820
3.5139 -2.0849 -2.0042 0.9820
3.5861 -1.9582 -2.0043 0.9820
3.7168 -1.6974 -2.0043 0.9820
3.8768 -1.2903 -2.0042 0.9820
3.9587 -1.0104 -2.0041 0.9820
4.0203 -0.7253 -2.0039 0.9820
4.0433 -0.5813 -2.0037 0.9820
4.0739 -0.2914 -2.0035 0.9820
4.0814 -0.1458 -2.0033 0.9820
-0.9893 -0.0353 -0.5135 0.9955
-0.9873 -0.0706 -0.5135 0.9955
-0.9838 -0.1058 -0.5133 0.9956
-0.9785 -0.1407 -0.5129 0.9956
-0.9715 -0.1753 -0.5121 0.9956
-0.9628 -0.2094 -0.5112 0.9956
-0.9404 -0.2761 -0.5085 0.9956
-0.9268 -0.3085 -0.5067 0.9956
-0.9208 -0.3434 -0.5098 0.9956
-3.2904 -1.9523 -1.9848 0.9829
-3.1439 -2.1828 -1.9856 0.9829
-3.0645 -2.2941 -1.9859 0.9829
-2.8942 -2.5078 -1.9867 0.9829
-2.8034 -2.6100 -1.9871 0.9829
-2.7090 -2.7090 -1.9875 0.9829
-2.6111 -2.8045 -1.9879 0.9829
-2.5098 -2.8965 -1.9883 0.9829
-1.9577 -3.2995 -1.9904 0.9829
-1.8391 -3.3680 -1.9908 0.9829
-1.7181 -3.4323 -1.9912 0.9829
-1.5948 -3.4921 -1.9916 0.9828
-1.3422 -3.5986 -1.9925 0.9828
-0.8171 -3.7561 -1.9942 0.9828
-0.2744 -3.8373 -1.9958 0.9828
-0.1373 -3.8454 -1.9962 0.9828
0.1374 -3.8469 -1.9970 0.9828
0.2747 -3.8403 -1.9974 0.9828
0.4116 -3.8288 -1.9977 0.9828
0.5481 -3.8123 -1.9981 0.9828
0.9530 -3.7338 -1.9991 0.9828
1.6021 -3.5080 -2.0007 0.9828
1.7265 -3.4491 -2.0009 0.9828
1.8487 -3.3857 -2.0012 0.9828
1.9686 -3.3179 -2.0015 0.9828
2.0860 -3.2459 -2.0017 0.9828
2.3128 -3.0895 -2.0021 0.9828
2.4218 -3.0053 -2.0023 0.9828
2.5278 -2.9172 -2.0025 0.9828
2.6305 -2.8254 -2.0027 0.9828
2.9181 -2.5285 -2.0031 0.9828
3.0914 -2.3142 -2.0033 0.9827
3.4536 -1.7287 -2.0036 0.9827
3.5681 -1.4780 -2.0036 0.9827
3.7418 -0.9550 -2.0034 0.9827
3.7733 -0.8208 -2.0033 0.9827
3.8218 -0.5495 -2.0031 0.9828
3.8388 -0.4127 -2.0029 0.9828
-0.9182 0.0000 -0.5029 0.9958
-0.9011 -0.1626 -0.5015 0.9958
-0.8932 -0.1943 -0.5006 0.9958
-0.8506 -0.3885 -0.5122 0.9957
-0.8524 -0.5057 -0.5429 0.9955
-2.9031 -2.1733 -1.9862 0.9836
-2.7417 -2.3757 -1.9869 0.9836
-2.5662 -2.5662 -1.9877 0.9836
-2.4734 -2.6566 -1.9881 0.9836
-2.2785 -2.8274 -1.9888 0.9836
-2.0718 -2.9839 -1.9896 0.9836
-1.9644 -3.0566 -1.9900 0.9836
-1.5106 -3.3077 -1.9916 0.9836
-1.3918 -3.3602 -1.9920 0.9835
-1.1490 -3.4523 -1.9928 0.9835
-1.0253 -3.4919 -1.9932 0.9835
-0.9002 -3.5269 -1.9936 0.9835
-0.7739 -3.5575 -1.9940 0.9835
-0.6465 -3.5836 -1.9944 0.9835
-0.5183 -3.6051 -1.9948 0.9835
-0.2599 -3.6343 -1.9956 0.9835
-0.1301 -3.6419 -1.9960 0.9835
-0.0000 -3.6449 -1.9963 0.9835
0.2601 -3.6369 -1.9971 0.9835
0.3898 -3.6260 -1.9974 0.9835
0.5191 -3.6104 -1.9978 0.9835
0.6477 -3.5902 -1.9981 0.9835
0.7756 -3.5653 -1.9984 0.9835
0.9025 -3.5359 -1.9987 0.9835
1.2759 -3.4208 -1.9996 0.9835
1.5171 -3.3219 -2.0002 0.9835
1.7506 -3.2061 -2.0007 0.9835
1.8642 -3.1419 -2.0009 0.9835
2.3936 -2.7624 -2.0019 0.9835
2.5850 -2.5850 -2.0022 0.9835
2.7631 -2.3943 -2.0025 0.9835
3.0037 -2.0855 -2.0028 0.9835
3.1450 -1.8660 -2.0029 0.9835
3.2096 -1.7526 -2.0029 0.9835
3.3786 -1.3995 -2.0029 0.9835
3.4264 -1.2780 -2.0029 0.9835
3.5982 -0.6492 -2.0026 0.9835
3.6189 -0.5203 -2.0025 0.9835
3.6349 -0.3908 -2.0023 0.9835
3.6463 -0.2608 -2.0022 0.9835
3.6530 -0.1305 -2.0021 0.9835
-0.8550 -0.0000 -0.4936 0.9961
-0.8548 -0.0305 -0.4938 0.9961
-0.8453 -0.1215 -0.4930 0.9961
-0.8393 -0.1514 -0.4924 0.9961
-0.8230 -0.2101 -0.4904 0.9961
-0.8128 -0.2387 -0.4891 0.9961
-0.8014 -0.2667 -0.4876 0.9961
-0.7796 -0.3229 -0.4872 0.9961
-0.7696 -0.4946 -0.5282 0.9958
-0.7634 -0.5300 -0.5366 0.9957
-2.7544 -2.0619 -1.9865 0.9842
-2.6795 -2.1593 -1.9868 0.9842
-2.6012 -2.2540 -1.9872 0.9842
-2.5196 -2.3458 -1.9875 0.9842
-2.4346 -2.4346 -1.9879 0.9842
-2.3466 -2.5205 -1.9882 0.9842
-2.1616 -2.6824 -1.9890 0.9842
-2.0649 -2.7584 -1.9893 0.9842
-1.8636 -2.8998 -1.9901 0.9842
-1.4330 -3.1379 -1.9916 0.9842
-1.2060 -3.2333 -1.9924 0.9842
-0.9726 -3.3124 -1.9932 0.9842
-0.3694 -3.4357 -1.9950 0.9842
-0.2466 -3.4473 -1.9954 0.9842
-0.0000 -3.4573 -1.9961 0.9842
0.1234 -3.4557 -1.9964 0.9842
0.2467 -3.4497 -1.9968 0.9842
0.6144 -3.4052 -1.9978 0.9841
0.7356 -3.3817 -1.9981 0.9841
1.0934 -3.2851 -1.9989 0.9841
1.3253 -3.1996 -1.9995 0.9841
1.5506 -3.0977 -2.0000 0.9841
1.6604 -3.0407 -2.0002 0.9841
1.8735 -2.9152 -2.0007 0.9841
2.1750 -2.6990 -2.0012 0.9841
2.3623 -2.5373 -2.0016 0.9841
2.5377 -2.3626 -2.0018 0.9841
2.6205 -2.2707 -2.0019 0.9841
2.7761 -2.0782 -2.0021 0.9841
2.8486 -1.9778 -2.0022 0.9841
2.9175 -1.8749 -2.0023 0.9841
3.1013 -1.5524 -2.0024 0.9841
3.2906 -1.0952 -2.0023 0.9841
3.4473 -0.3706 -2.0018 0.9841
3.4581 -0.2473 -2.0017 0.9841
3.4645 -0.1237 -2.0015 0.9841
