ply
format ascii 1.0
element vertex 822
property float32 x
property float32 y
property float32 z
property float32 I
end_header
7.6383 2.5423 -0.5903 0.9682
1.0289 9.5698 -0.7057 0.9621
0.3170 8.8755 -0.6512 0.9650
-2.0671 9.5022 -0.7130 0.9617
8.8697 1.6003 -0.8653 0.9644
7.3446 2.1566 -0.7349 0.9697
7.2042 2.3978 -0.7289 0.9699
7.1877 2.6809 -0.7365 0.9696
7.2142 2.9883 -0.7497 0.9691
1.0339 9.6168 -0.9286 0.9619
0.6475 9.0533 -0.8714 0.9642
8.6678 1.5639 -1.0462 0.9651
7.4347 1.8976 -0.9114 0.9696
7.0149 2.0598 -0.8684 0.9710
6.7718 2.2539 -0.8478 0.9717
6.7178 2.7826 -0.8637 0.9711
6.7873 3.0997 -0.8863 0.9704
1.0287 9.5681 -1.1431 0.9620
0.6691 9.3558 -1.1142 0.9629
0.3144 8.8018 -1.0462 0.9651
-0.6605 9.2344 -1.0997 0.9634
-0.9378 8.7226 -1.0421 0.9653
-1.7432 9.6622 -1.1663 0.9612
8.6003 1.5517 -1.2382 0.9653
7.8758 1.7133 -1.1420 0.9680
7.2638 1.8540 -1.0622 0.9702
6.8894 2.0229 -1.0174 0.9714
6.6788 2.2229 -0.9974 0.9720
6.6686 2.7623 -1.0227 0.9713
6.9046 3.4562 -1.0940 0.9693
3.1115 8.3421 -1.2615 0.9647
1.0322 9.6005 -1.3681 0.9617
0.3167 8.8668 -1.2571 0.9648
-0.6584 9.2055 -1.3076 0.9634
-0.9293 8.6435 -1.2317 0.9655
-2.0135 9.2558 -1.3421 0.9625
-2.2449 8.7954 -1.2862 0.9640
9.5622 1.3748 -1.5915 0.9616
7.8031 1.6975 -1.3155 0.9681
7.1884 1.8347 -1.2222 0.9704
6.8299 2.0054 -1.1726 0.9716
6.6432 2.2111 -1.1534 0.9720
6.6096 2.4653 -1.1621 0.9718
6.6203 2.7423 -1.1805 0.9714
6.8689 3.4383 -1.2654 0.9693
2.8551 8.5783 -1.4894 0.9640
0.6605 9.2350 -1.5252 0.9632
-1.2223 8.5014 -1.4149 0.9658
-1.7320 9.6000 -1.6070 0.9612
-2.2367 8.7631 -1.4899 0.9640
-2.4792 8.4434 -1.4497 0.9650
6.6378 2.2093 -1.3149 0.9719
6.6143 2.7398 -1.3457 0.9713
6.8805 3.4441 -1.4462 0.9692
5.4429 7.8393 -1.7938 0.9619
4.8743 8.2153 -1.7955 0.9619
3.9748 8.7036 -1.7984 0.9618
3.6638 8.8453 -1.7995 0.9618
3.0976 8.3049 -1.6660 0.9646
2.8429 8.5415 -1.6921 0.9640
2.7028 9.2048 -1.8032 0.9617
2.3742 9.3021 -1.8045 0.9617
1.3695 9.5250 -1.8087 0.9616
0.6877 9.6146 -1.8118 0.9615
0.0000 9.6563 -1.8150 0.9615
-0.3450 9.6591 -1.8167 0.9614
-0.6901 9.6497 -1.8184 0.9614
-1.0351 9.6281 -1.8201 0.9614
-1.2173 8.4666 -1.6078 0.9658
-1.7227 9.5485 -1.8237 0.9613
-2.7515 8.2670 -1.6377 0.9652
-4.0600 8.8902 -1.8370 0.9610
-4.3794 8.7490 -1.8390 0.9610
-5.0031 8.4324 -1.8429 0.9609
-5.6040 8.0714 -1.8469 0.9608
9.2274 0.0000 -1.9505 0.9630
9.2172 0.3292 -1.9496 0.9630
9.1180 1.3110 -1.9472 0.9630
7.1767 1.8318 -1.5656 0.9702
6.6036 2.4631 -1.4898 0.9716
7.9347 3.2867 -1.8154 0.9655
7.4630 3.4082 -1.7342 0.9670
8.2213 4.1153 -1.9434 0.9631
8.0687 4.4058 -1.9433 0.9631
7.7338 4.9702 -1.9432 0.9631
7.5518 5.2433 -1.9433 0.9631
7.3604 5.5100 -1.9435 0.9631
7.1599 5.7698 -1.9437 0.9631
6.7322 6.2679 -1.9443 0.9631
6.5055 6.5056 -1.9447 0.9631
5.2387 7.5452 -1.9416 0.9631
4.9306 7.6722 -1.9278 0.9634
4.5825 7.7234 -1.8983 0.9639
3.5796 7.8382 -1.8214 0.9654
2.9846 8.0021 -1.8053 0.9657
2.6987 8.1084 -1.8064 0.9657
2.4091 8.2047 -1.8075 0.9656
1.5213 8.4322 -1.8112 0.9656
0.0000 8.6011 -1.8181 0.9654
-0.6146 8.5934 -1.8211 0.9654
-0.9217 8.5733 -1.8227 0.9654
-1.8377 8.4479 -1.8275 0.9653
-2.7378 8.2257 -1.8325 0.9652
-3.0324 8.1303 -1.8342 0.9651
-3.3304 8.0404 -1.8396 0.9650
-4.3506 7.9676 -1.9189 0.9636
-4.7091 7.9368 -1.9507 0.9630
-5.0749 7.8967 -1.9842 0.9624
-5.6642 7.5664 -1.9979 0.9621
-5.9445 7.3767 -2.0026 0.9620
-6.2106 7.1675 -2.0047 0.9620
-6.4686 6.9478 -2.0066 0.9619
-6.7188 6.7188 -2.0085 0.9619
-6.9608 6.4808 -2.0104 0.9619
-7.4190 5.9787 -2.0141 0.9618
-7.6346 5.7152 -2.0159 0.9618
-7.8407 5.4439 -2.0177 0.9617
-8.0370 5.1651 -2.0194 0.9617
-8.2234 4.8792 -2.0212 0.9617
-8.3994 4.5864 -2.0229 0.9616
-8.5648 4.2872 -2.0246 0.9616
-8.9954 3.3551 -2.0294 0.9615
-9.1162 3.0342 -2.0309 0.9615
-9.3228 2.3795 -2.0338 0.9614
-9.4082 2.0467 -2.0352 0.9614
-9.4815 1.7107 -2.0366 0.9614
-9.5426 1.3720 -2.0378 0.9614
-9.6275 0.6886 -2.0403 0.9613
-9.6512 0.3447 -2.0414 0.9613
8.3180 0.0000 -1.9549 0.9664
8.2207 1.1820 -1.9519 0.9664
8.1708 1.4742 -1.9513 0.9665
8.1106 1.7644 -1.9508 0.9665
7.1770 1.8318 -1.7408 0.9700
7.9603 2.3374 -1.9498 0.9665
7.6610 3.1733 -1.9488 0.9665
7.1296 4.2302 -1.9483 0.9665
6.9741 4.4820 -1.9484 0.9665
6.8100 4.7282 -1.9485 0.9665
6.6373 4.9687 -1.9486 0.9665
6.2674 5.4308 -1.9490 0.9665
5.8661 5.8661 -1.9497 0.9665
5.6542 6.0730 -1.9502 0.9665
5.4352 6.2725 -1.9506 0.9665
4.9768 6.6482 -1.9518 0.9665
4.7379 6.8238 -1.9524 0.9664
4.2422 7.1498 -1.9539 0.9664
3.7218 7.4352 -1.9541 0.9664
3.1799 7.6769 -1.9529 0.9664
2.6235 7.8825 -1.9525 0.9664
2.3296 7.9337 -1.9433 0.9666
2.0304 7.9550 -1.9295 0.9668
1.4425 7.9955 -1.9095 0.9672
0.2876 8.0522 -1.8937 0.9674
-0.8684 8.0769 -1.9092 0.9672
-1.7541 8.0637 -1.9395 0.9667
-2.0563 8.0564 -1.9541 0.9664
-2.9461 7.8988 -1.9813 0.9660
-3.2312 7.8007 -1.9844 0.9659
-3.5133 7.6930 -1.9876 0.9658
-3.7921 7.5757 -1.9911 0.9658
-4.0650 7.4445 -1.9935 0.9657
-4.3318 7.3009 -1.9952 0.9657
-4.5936 7.1478 -1.9969 0.9657
-4.8500 6.9853 -1.9986 0.9657
-5.1006 6.8136 -2.0003 0.9656
-6.4651 5.6021 -2.0105 0.9655
-6.6664 5.3721 -2.0122 0.9654
-7.0440 4.8908 -2.0154 0.9654
-7.2198 4.6399 -2.0170 0.9654
-7.3865 4.3826 -2.0186 0.9653
-7.5439 4.1193 -2.0201 0.9653
-7.6919 3.8503 -2.0216 0.9653
-7.8301 3.5759 -2.0231 0.9652
-8.0766 3.0125 -2.0259 0.9652
-8.2819 2.4318 -2.0286 0.9652
-8.5100 1.5354 -2.0323 0.9651
-8.5642 1.2314 -2.0335 0.9651
-8.6394 0.6179 -2.0357 0.9650
7.5645 0.0000 -1.9586 0.9692
7.4771 1.0751 -1.9559 0.9693
7.2409 2.1261 -1.9539 0.9693
7.1591 2.3828 -1.9536 0.9693
7.0684 2.6364 -1.9533 0.9693
6.9690 2.8867 -1.9531 0.9693
6.3443 4.0772 -1.9526 0.9693
4.9438 5.7055 -1.9547 0.9693
4.7382 5.8798 -1.9552 0.9693
3.6249 6.6385 -1.9584 0.9692
2.3939 7.1927 -1.9628 0.9692
1.8767 7.3528 -1.9648 0.9691
1.6140 7.4192 -1.9659 0.9691
1.3489 7.4764 -1.9670 0.9691
1.0818 7.5242 -1.9682 0.9691
0.8131 7.5626 -1.9694 0.9691
0.5429 7.5911 -1.9705 0.9690
-0.2721 7.6200 -1.9742 0.9690
-0.8163 7.5927 -1.9772 0.9689
-1.3578 7.5259 -1.9800 0.9689
-1.8940 7.4208 -1.9830 0.9689
-2.1593 7.3539 -1.9844 0.9688
-2.9398 7.0972 -1.9890 0.9688
-3.1937 6.9932 -1.9905 0.9687
-3.4439 6.8801 -1.9921 0.9687
-3.9321 6.6272 -1.9952 0.9687
-4.6288 6.1834 -1.9999 0.9686
-4.8503 6.0189 -2.0014 0.9686
-5.0660 5.8465 -2.0030 0.9685
-5.6750 5.2836 -2.0076 0.9685
-6.0465 4.8726 -2.0106 0.9684
-6.6976 3.9739 -2.0164 0.9683
-7.0984 3.2418 -2.0205 0.9683
-7.2142 2.9883 -2.0218 0.9683
-7.3209 2.7306 -2.0231 0.9682
-7.4182 2.4691 -2.0243 0.9682
-7.5061 2.2040 -2.0255 0.9682
-7.5843 1.9358 -2.0267 0.9682
-7.6528 1.6648 -2.0278 0.9682
-7.7989 0.8385 -2.0309 0.9681
-7.8275 0.5599 -2.0319 0.9681
6.9226 0.2472 -1.9610 0.9716
6.8502 0.9849 -1.9592 0.9716
6.7591 1.4703 -1.9582 0.9717
6.5595 2.1832 -1.9571 0.9717
6.4765 2.4156 -1.9568 0.9717
6.2863 2.8709 -1.9564 0.9717
6.0649 3.3117 -1.9562 0.9717
5.9427 3.5260 -1.9562 0.9717
5.8132 3.7359 -1.9562 0.9717
5.6763 3.9411 -1.9563 0.9717
5.5323 4.1415 -1.9564 0.9717
5.3814 4.3367 -1.9565 0.9717
5.2238 4.5265 -1.9568 0.9717
5.0596 4.7107 -1.9570 0.9717
4.8890 4.8890 -1.9573 0.9717
4.5295 5.2274 -1.9581 0.9717
4.3411 5.3869 -1.9585 0.9716
4.1471 5.5399 -1.9590 0.9716
3.9478 5.6859 -1.9596 0.9716
3.1026 6.1982 -1.9622 0.9716
2.4252 6.5023 -1.9646 0.9716
1.7187 6.7337 -1.9674 0.9715
1.4780 6.7942 -1.9684 0.9715
1.2352 6.8462 -1.9694 0.9715
0.2489 6.9680 -1.9739 0.9714
-0.2492 6.9765 -1.9763 0.9714
-0.9954 6.9231 -1.9800 0.9713
-1.4887 6.8436 -1.9827 0.9713
-1.9758 6.7291 -1.9854 0.9713
-2.4543 6.5801 -1.9881 0.9712
-2.9216 6.3973 -1.9909 0.9712
-4.2327 5.6543 -1.9995 0.9711
-4.6319 5.3455 -2.0023 0.9710
-5.3604 4.6448 -2.0079 0.9709
-5.8380 4.0534 -2.0120 0.9709
-5.9828 3.8450 -2.0133 0.9709
-6.1202 3.6313 -2.0146 0.9708
-6.2498 3.4127 -2.0159 0.9708
-6.4853 2.9617 -2.0183 0.9708
-6.6878 2.4944 -2.0207 0.9708
-6.7764 2.2554 -2.0218 0.9707
-6.8563 2.0132 -2.0229 0.9707
-6.9274 1.7681 -2.0240 0.9707
-6.9896 1.5205 -2.0250 0.9707
-7.1221 0.7657 -2.0278 0.9707
-7.1646 0.2559 -2.0295 0.9706
6.3802 0.2279 -1.9637 0.9736
6.3661 0.4553 -1.9631 0.9736
6.2761 1.1323 -1.9615 0.9737
6.2303 1.3553 -1.9611 0.9737
6.1155 1.7957 -1.9604 0.9737
5.9701 2.2267 -1.9598 0.9737
5.8862 2.4381 -1.9596 0.9737
5.7949 2.6465 -1.9595 0.9737
5.6964 2.8514 -1.9593 0.9737
5.5908 3.0528 -1.9593 0.9737
5.4782 3.2504 -1.9592 0.9737
5.3588 3.4439 -1.9593 0.9737
5.2326 3.6331 -1.9593 0.9737
5.0999 3.8177 -1.9594 0.9737
4.9607 3.9976 -1.9596 0.9737
4.8154 4.1726 -1.9598 0.9737
4.6639 4.3423 -1.9600 0.9737
4.5066 4.5067 -1.9603 0.9737
4.3437 4.6654 -1.9606 0.9737
4.1752 4.8184 -1.9610 0.9737
3.4503 5.3688 -1.9629 0.9736
3.2575 5.4902 -1.9635 0.9736
3.0604 5.6047 -1.9641 0.9736
2.6546 5.8128 -1.9655 0.9736
2.2349 5.9920 -1.9670 0.9736
2.0205 6.0705 -1.9678 0.9736
1.8033 6.1414 -1.9687 0.9736
1.5836 6.2046 -1.9696 0.9736
1.3618 6.2601 -1.9705 0.9735
0.4580 6.4031 -1.9745 0.9735
-0.4590 6.4174 -1.9789 0.9734
-0.9167 6.3759 -1.9813 0.9734
-1.1444 6.3430 -1.9825 0.9734
-1.5960 6.2529 -1.9849 0.9734
-2.0406 6.1309 -1.9874 0.9733
-2.2595 6.0581 -1.9887 0.9733
-2.6895 5.8891 -1.9913 0.9733
-2.8998 5.7931 -1.9926 0.9733
-3.1068 5.6897 -1.9939 0.9732
-3.5094 5.4607 -1.9965 0.9732
-3.7045 5.3355 -1.9979 0.9732
-3.8951 5.2033 -1.9992 0.9732
-4.0810 5.0643 -2.0005 0.9731
-4.4377 4.7664 -2.0031 0.9731
-5.0838 4.0968 -2.0082 0.9730
-5.2300 3.9151 -2.0094 0.9730
-5.3697 3.7283 -2.0107 0.9730
-5.5026 3.5363 -2.0119 0.9730
-5.6287 3.3396 -2.0131 0.9730
-5.7476 3.1384 -2.0142 0.9730
-6.0602 2.5103 -2.0176 0.9729
-6.1492 2.2936 -2.0186 0.9729
-6.2303 2.0737 -2.0197 0.9729
-6.3687 1.6255 -2.0217 0.9729
-6.4256 1.3978 -2.0226 0.9729
-6.4743 1.1681 -2.0235 0.9728
-6.5147 0.9367 -2.0244 0.9728
-6.5467 0.7039 -2.0252 0.9728
-6.5702 0.4699 -2.0260 0.9728
5.9163 0.0000 -1.9666 0.9754
5.8978 0.4218 -1.9655 0.9754
5.8774 0.6319 -1.9649 0.9754
5.8497 0.8411 -1.9645 0.9754
5.8147 1.0491 -1.9640 0.9754
5.7724 1.2557 -1.9636 0.9754
5.7228 1.4607 -1.9633 0.9754
5.6023 1.8646 -1.9627 0.9754
5.5316 2.0632 -1.9625 0.9754
5.2781 2.6420 -1.9620 0.9754
5.1803 2.8287 -1.9619 0.9754
4.4617 3.8661 -1.9624 0.9754
4.3213 4.0233 -1.9626 0.9754
4.1755 4.1755 -1.9629 0.9754
3.8683 4.4643 -1.9635 0.9754
3.5414 4.7308 -1.9644 0.9754
3.3711 4.8554 -1.9648 0.9754
2.8351 5.1922 -1.9664 0.9754
2.6489 5.2917 -1.9671 0.9754
2.2661 5.4709 -1.9684 0.9753
2.0702 5.5504 -1.9691 0.9753
1.8715 5.6229 -1.9699 0.9753
1.2613 5.7979 -1.9723 0.9753
1.0540 5.8419 -1.9732 0.9753
-0.4250 5.9418 -1.9801 0.9752
-0.6371 5.9261 -1.9812 0.9752
-0.8487 5.9028 -1.9823 0.9752
-1.0594 5.8721 -1.9834 0.9752
-1.2691 5.8339 -1.9846 0.9751
-1.4773 5.7882 -1.9857 0.9751
-1.6840 5.7351 -1.9869 0.9751
-1.8887 5.6747 -1.9880 0.9751
-2.0913 5.6070 -1.9892 0.9751
-2.2915 5.5321 -1.9904 0.9751
-2.8749 5.2650 -1.9940 0.9750
-3.0629 5.1622 -1.9952 0.9750
-3.4275 4.9365 -1.9977 0.9750
-3.7755 4.6851 -2.0001 0.9750
-4.1051 4.4092 -2.0025 0.9749
-4.2624 4.2624 -2.0037 0.9749
-4.7018 3.7890 -2.0072 0.9749
-4.9658 3.4478 -2.0095 0.9748
-5.5138 2.5181 -2.0149 0.9748
-5.6029 2.3208 -2.0159 0.9748
-5.6850 2.1204 -2.0169 0.9747
-5.8272 1.7111 -2.0188 0.9747
-5.8872 1.5026 -2.0197 0.9747
-5.9396 1.2921 -2.0205 0.9747
-5.9844 1.0797 -2.0214 0.9747
-6.0216 0.8658 -2.0222 0.9747
-6.0725 0.4344 -2.0237 0.9747
-6.0863 0.2174 -2.0244 0.9747
5.4434 0.7827 -1.9666 0.9769
5.3716 1.1685 -1.9658 0.9769
5.3255 1.3593 -1.9655 0.9769
5.2135 1.7353 -1.9650 0.9769
5.1477 1.9200 -1.9647 0.9769
5.0754 2.1023 -1.9646 0.9769
4.8209 2.6324 -1.9643 0.9769
4.7238 2.8028 -1.9642 0.9769
4.5120 3.1327 -1.9643 0.9769
4.2775 3.4470 -1.9645 0.9769
4.0214 3.7441 -1.9649 0.9769
3.8857 3.8858 -1.9651 0.9769
3.5997 4.1543 -1.9658 0.9769
3.2955 4.4023 -1.9665 0.9769
2.9744 4.6283 -1.9674 0.9769
2.8080 4.7327 -1.9679 0.9769
2.4646 4.9237 -1.9690 0.9769
2.2880 5.0101 -1.9696 0.9769
2.1084 5.0902 -1.9703 0.9769
1.9261 5.1640 -1.9710 0.9769
1.5539 5.2921 -1.9724 0.9768
0.7862 5.4683 -1.9756 0.9768
0.3945 5.5154 -1.9774 0.9768
0.0000 5.5347 -1.9792 0.9768
-0.5925 5.5112 -1.9822 0.9767
-0.9852 5.4606 -1.9843 0.9767
-1.1801 5.4248 -1.9853 0.9767
-1.3737 5.3821 -1.9864 0.9767
-1.5658 5.3325 -1.9875 0.9767
-1.7561 5.2762 -1.9885 0.9767
-2.1303 5.1431 -1.9908 0.9766
-2.6724 4.8942 -1.9941 0.9766
-3.0182 4.6964 -1.9964 0.9766
-3.3493 4.4742 -1.9986 0.9765
-3.6641 4.2286 -2.0009 0.9765
-4.2379 3.6722 -2.0053 0.9765
-4.3687 3.5205 -2.0064 0.9764
-4.6135 3.2033 -2.0085 0.9764
-5.0325 2.5191 -2.0125 0.9764
-5.3496 1.7805 -2.0162 0.9763
-5.4121 1.5892 -2.0171 0.9763
-5.4676 1.3955 -2.0179 0.9763
-5.5576 1.0027 -2.0195 0.9763
-5.5919 0.8040 -2.0203 0.9763
-5.6190 0.6041 -2.0210 0.9763
-5.6515 0.2019 -2.0223 0.9763
5.1416 0.0000 -1.9704 0.9782
5.0845 0.7311 -1.9685 0.9782
5.0542 0.9119 -1.9681 0.9782
5.0176 1.0915 -1.9678 0.9782
4.9254 1.4463 -1.9672 0.9783
4.8086 1.7935 -1.9668 0.9783
4.5884 2.2968 -1.9664 0.9783
4.5034 2.4590 -1.9663 0.9783
4.2148 2.9264 -1.9663 0.9783
4.1079 3.0751 -1.9664 0.9783
3.9957 3.2200 -1.9666 0.9783
3.8786 3.3608 -1.9667 0.9783
3.7565 3.4975 -1.9669 0.9783
3.6297 3.6297 -1.9671 0.9783
3.3625 3.8805 -1.9677 0.9782
3.2224 3.9988 -1.9680 0.9782
3.0782 4.1120 -1.9684 0.9782
2.9301 4.2201 -1.9688 0.9782
2.6228 4.4205 -1.9697 0.9782
2.4640 4.5124 -1.9702 0.9782
2.3020 4.5987 -1.9708 0.9782
2.1370 4.6793 -1.9713 0.9782
1.9692 4.7540 -1.9719 0.9782
1.7988 4.8228 -1.9726 0.9782
1.4512 4.9422 -1.9739 0.9782
0.9156 5.0748 -1.9761 0.9782
0.7342 5.1063 -1.9769 0.9781
0.1844 5.1620 -1.9794 0.9781
-0.0000 5.1676 -1.9803 0.9781
-0.1845 5.1667 -1.9812 0.9781
-0.3690 5.1592 -1.9821 0.9781
-0.5532 5.1452 -1.9831 0.9781
-0.9197 5.0975 -1.9850 0.9781
-1.1016 5.0640 -1.9860 0.9780
-1.4615 4.9775 -1.9880 0.9780
-1.8147 4.8656 -1.9900 0.9780
-2.1595 4.7286 -1.9921 0.9780
-2.3281 4.6510 -1.9932 0.9780
-2.4939 4.5673 -1.9942 0.9780
-2.6568 4.4778 -1.9953 0.9779
-2.8164 4.3824 -1.9963 0.9779
-3.1251 4.1747 -1.9984 0.9779
-3.2739 4.0627 -1.9995 0.9779
-3.4186 3.9453 -2.0005 0.9779
-3.6952 3.6952 -2.0026 0.9779
-4.0752 3.2840 -2.0057 0.9778
-4.1919 3.1380 -2.0066 0.9778
-4.3033 2.9879 -2.0076 0.9778
-4.5098 2.6758 -2.0095 0.9778
-4.6046 2.5143 -2.0105 0.9778
-4.6935 2.3494 -2.0114 0.9778
-4.9241 1.8366 -2.0140 0.9777
-4.9886 1.6604 -2.0148 0.9777
-5.0467 1.4819 -2.0156 0.9777
-5.0984 1.3013 -2.0164 0.9777
-5.1435 1.1189 -2.0172 0.9777
-5.1820 0.9350 -2.0179 0.9777
-5.2390 0.5633 -2.0193 0.9777
-5.2691 0.1882 -2.0205 0.9777
4.8181 0.0000 -1.9719 0.9794
4.7873 0.5147 -1.9706 0.9794
4.7649 0.6851 -1.9702 0.9794
4.7023 1.0229 -1.9695 0.9794
4.6621 1.1899 -1.9692 0.9794
4.6160 1.3554 -1.9690 0.9794
4.5642 1.5191 -1.9687 0.9794
4.4434 1.8405 -1.9684 0.9794
4.3003 2.1526 -1.9682 0.9794
4.1356 2.4538 -1.9681 0.9794
3.9501 2.7426 -1.9682 0.9794
3.8499 2.8820 -1.9682 0.9794
3.6350 3.1497 -1.9685 0.9794
3.4017 3.4017 -1.9689 0.9794
2.8847 3.8536 -1.9701 0.9794
2.0025 4.3848 -1.9729 0.9794
1.8452 4.4547 -1.9734 0.9794
1.6855 4.5191 -1.9740 0.9794
1.5237 4.5778 -1.9746 0.9794
1.3597 4.6308 -1.9753 0.9794
1.1940 4.6779 -1.9759 0.9793
1.0266 4.7192 -1.9766 0.9793
0.5168 4.8073 -1.9789 0.9793
0.3451 4.8246 -1.9796 0.9793
-0.6902 4.8001 -1.9847 0.9793
-0.8614 4.7746 -1.9857 0.9792
-1.2009 4.7054 -1.9875 0.9792
-1.3688 4.6617 -1.9885 0.9792
-1.8620 4.4952 -1.9913 0.9792
-2.0222 4.4280 -1.9923 0.9792
-2.4876 4.1927 -1.9953 0.9791
-3.0650 3.8035 -1.9992 0.9791
-3.4591 3.4591 -2.0021 0.9791
-3.5821 3.3351 -2.0031 0.9791
-3.7006 3.2066 -2.0041 0.9791
-4.0278 2.7965 -2.0068 0.9790
-4.1269 2.6522 -2.0077 0.9790
-4.2208 2.5043 -2.0086 0.9790
-4.3093 2.3531 -2.0095 0.9790
-4.3924 2.1987 -2.0104 0.9790
-4.4700 2.0414 -2.0112 0.9790
-4.5418 1.8813 -2.0120 0.9790
-4.6079 1.7187 -2.0128 0.9790
-4.7706 1.2176 -2.0151 0.9789
-4.8127 1.0470 -2.0158 0.9789
-4.8486 0.8748 -2.0164 0.9789
-4.8783 0.7014 -2.0171 0.9789
-4.9189 0.3518 -2.0183 0.9789
4.5240 0.1616 -1.9729 0.9804
4.5144 0.3229 -1.9725 0.9804
4.3816 1.1184 -1.9708 0.9805
4.3384 1.2739 -1.9706 0.9805
4.2897 1.4278 -1.9704 0.9805
4.2356 1.5798 -1.9702 0.9805
4.1762 1.7299 -1.9700 0.9805
4.1116 1.8777 -1.9699 0.9805
3.8022 2.4436 -1.9698 0.9805
3.7127 2.5778 -1.9698 0.9805
3.6184 2.7087 -1.9699 0.9805
3.5196 2.8363 -1.9700 0.9805
3.3089 3.0807 -1.9703 0.9805
3.0813 3.3096 -1.9707 0.9805
2.4468 3.8073 -1.9724 0.9804
2.3098 3.8930 -1.9728 0.9804
2.1699 3.9739 -1.9732 0.9804
1.8818 4.1206 -1.9742 0.9804
1.7340 4.1862 -1.9747 0.9804
1.5839 4.2466 -1.9753 0.9804
1.2777 4.3514 -1.9765 0.9804
0.9646 4.4344 -1.9778 0.9804
0.4856 4.5168 -1.9799 0.9804
0.1623 4.5434 -1.9813 0.9804
0.0000 4.5481 -1.9821 0.9804
-0.4868 4.5276 -1.9846 0.9803
-0.6483 4.5092 -1.9854 0.9803
-0.8092 4.4851 -1.9862 0.9803
-0.9692 4.4554 -1.9871 0.9803
-1.2857 4.3787 -1.9889 0.9803
-1.5963 4.2797 -1.9907 0.9803
-2.6135 3.7642 -1.9971 0.9802
-2.7475 3.6702 -1.9981 0.9802
-2.8780 3.5715 -1.9990 0.9802
-3.0051 3.4680 -1.9999 0.9802
-3.3631 3.1312 -2.0026 0.9801
-3.4743 3.0105 -2.0035 0.9801
-3.5811 2.8859 -2.0044 0.9801
-3.6835 2.7574 -2.0053 0.9801
-3.8741 2.4897 -2.0070 0.9801
-3.9621 2.3509 -2.0078 0.9801
-4.1231 2.0639 -2.0094 0.9801
-1.4401 0.4793 -0.6615 0.9934
-1.3722 0.4029 -0.6233 0.9938
-1.3400 0.3420 -0.6027 0.9940
-1.3688 0.2978 -0.6105 0.9939
-1.3955 0.2518 -0.6180 0.9938
-1.4359 0.1544 -0.6294 0.9937
-1.4490 0.1037 -0.6331 0.9937
4.2659 0.0000 -1.9746 0.9814
4.2533 0.3042 -1.9738 0.9814
4.2389 0.4558 -1.9734 0.9814
4.2192 0.6066 -1.9731 0.9814
4.1639 0.9058 -1.9725 0.9814
4.1284 1.0537 -1.9722 0.9814
4.0877 1.2003 -1.9720 0.9814
3.8740 1.7692 -1.9714 0.9814
3.7377 2.0410 -1.9712 0.9814
3.6624 2.1730 -1.9712 0.9814
3.4982 2.4288 -1.9713 0.9814
3.3163 2.6724 -1.9715 0.9814
3.1177 2.9027 -1.9718 0.9814
3.0123 3.0124 -1.9719 0.9814
2.9032 3.1183 -1.9722 0.9814
2.4314 3.5018 -1.9733 0.9814
2.1762 3.6678 -1.9741 0.9814
2.0443 3.7439 -1.9745 0.9814
1.3488 4.0525 -1.9770 0.9814
1.0569 4.1408 -1.9782 0.9813
0.9087 4.1772 -1.9788 0.9813
0.7593 4.2084 -1.9794 0.9813
0.4574 4.2547 -1.9808 0.9813
0.3054 4.2698 -1.9815 0.9813
0.1528 4.2795 -1.9822 0.9813
0.0000 4.2838 -1.9829 0.9813
-0.6106 4.2468 -1.9860 0.9813
-0.9127 4.1958 -1.9876 0.9813
-1.0624 4.1623 -1.9884 0.9812
-1.3577 4.0794 -1.9901 0.9812
-1.7883 3.9159 -1.9927 0.9812
-1.9278 3.8512 -1.9935 0.9812
-2.0649 3.7817 -1.9944 0.9812
-2.4606 3.5439 -1.9970 0.9812
-2.7095 3.3623 -1.9988 0.9811
-2.9450 3.1631 -2.0005 0.9811
-3.1658 2.9475 -2.0022 0.9811
-3.3708 2.7164 -2.0039 0.9811
-3.5589 2.4710 -2.0055 0.9811
-3.8804 1.9424 -2.0086 0.9811
-1.2017 0.4482 -0.5937 0.9944
-1.1330 0.3327 -0.5466 0.9948
-1.1575 0.2954 -0.5529 0.9947
-1.1974 0.2161 -0.5632 0.9947
-1.2260 0.1318 -0.5708 0.9946
-1.2362 0.0884 -0.5737 0.9946
-1.2424 0.0444 -0.5755 0.9945
4.0279 0.0000 -1.9758 0.9822
4.0161 0.2872 -1.9750 0.9822
4.0026 0.4303 -1.9747 0.9822
3.9604 0.7145 -1.9740 0.9822
3.9318 0.8553 -1.9738 0.9822
3.8983 0.9950 -1.9735 0.9822
3.8599 1.1334 -1.9733 0.9822
3.8166 1.2703 -1.9731 0.9822
3.7685 1.4056 -1.9730 0.9822
3.7157 1.5391 -1.9728 0.9822
3.6582 1.6707 -1.9727 0.9822
3.5961 1.8001 -1.9726 0.9822
3.5295 1.9273 -1.9726 0.9822
3.3033 2.2936 -1.9726 0.9822
3.1316 2.5236 -1.9728 0.9822
3.0397 2.6339 -1.9729 0.9822
2.9440 2.7409 -1.9731 0.9822
2.8445 2.8445 -1.9733 0.9822
2.6349 3.0409 -1.9737 0.9822
2.2958 3.3066 -1.9746 0.9822
1.9303 3.5350 -1.9757 0.9822
1.6739 3.6654 -1.9766 0.9822
1.5424 3.7237 -1.9770 0.9822
1.1364 3.8702 -1.9786 0.9822
0.9978 3.9094 -1.9791 0.9822
0.8579 3.9437 -1.9797 0.9822
0.7168 3.9730 -1.9803 0.9822
0.0000 4.0438 -1.9836 0.9821
-0.4327 4.0251 -1.9858 0.9821
-0.7193 3.9870 -1.9873 0.9821
-0.8615 3.9603 -1.9880 0.9821
-1.0027 3.9286 -1.9888 0.9821
-1.1427 3.8918 -1.9896 0.9821
-1.5541 3.7519 -1.9920 0.9821
-1.6877 3.6955 -1.9928 0.9821
-1.9486 3.5687 -1.9945 0.9820
-2.2001 3.4234 -1.9961 0.9820
-2.3218 3.3441 -1.9969 0.9820
-2.5566 3.1725 -1.9986 0.9820
-2.6693 3.0805 -1.9994 0.9820
-2.8845 2.8846 -2.0010 0.9820
-2.9869 2.7809 -2.0018 0.9820
-3.0854 2.6736 -2.0026 0.9820
-3.1801 2.5627 -2.0034 0.9820
-3.3574 2.3311 -2.0049 0.9820
-3.4398 2.2106 -2.0057 0.9819
-3.5178 2.0872 -2.0064 0.9819
-1.0588 0.5300 -0.5808 0.9947
-1.0290 0.4262 -0.5463 0.9951
-1.0119 0.3774 -0.5298 0.9952
-1.0025 0.3337 -0.5183 0.9953
-1.0175 0.2988 -0.5202 0.9953
-1.0307 0.2631 -0.5218 0.9953
-1.0422 0.2267 -0.5232 0.9953
-1.0611 0.1526 -0.5258 0.9952
-1.0705 0.1151 -0.5281 0.9952
-1.0769 0.0770 -0.5296 0.9952
-1.0803 0.0386 -0.5302 0.9952
3.8106 0.0000 -1.9769 0.9830
3.7867 0.4071 -1.9758 0.9830
3.7692 0.5420 -1.9755 0.9830
3.7469 0.6760 -1.9752 0.9830
3.5655 1.3299 -1.9742 0.9830
3.3393 1.8234 -1.9738 0.9830
3.0460 2.2802 -1.9739 0.9830
2.9628 2.3876 -1.9740 0.9830
2.6912 2.6912 -1.9744 0.9830
1.7059 3.4080 -1.9771 0.9830
1.4591 3.5226 -1.9780 0.9830
1.0750 3.6611 -1.9795 0.9830
0.9439 3.6981 -1.9800 0.9829
0.6780 3.7582 -1.9811 0.9829
0.5436 3.7811 -1.9817 0.9829
0.4085 3.7993 -1.9823 0.9829
0.1365 3.8211 -1.9836 0.9829
-0.0000 3.8249 -1.9842 0.9829
-0.1366 3.8237 -1.9849 0.9829
-0.2730 3.8177 -1.9856 0.9829
-0.5451 3.7912 -1.9870 0.9829
-1.0807 3.6804 -1.9899 0.9829
-1.2118 3.6409 -1.9907 0.9829
-1.3415 3.5967 -1.9914 0.9829
-1.4696 3.5479 -1.9922 0.9828
-1.8425 3.3744 -1.9945 0.9828
-1.9626 3.3078 -1.9953 0.9828
-2.0802 3.2369 -1.9961 0.9828
-2.1953 3.1618 -1.9969 0.9828
-2.3076 3.0826 -1.9976 0.9828
-2.5236 2.9124 -1.9992 0.9828
-2.7270 2.7270 -2.0007 0.9828
-2.8237 2.6290 -2.0015 0.9828
-2.9168 2.5274 -2.0022 0.9828
-3.0919 2.3146 -2.0037 0.9827
-3.1737 2.2036 -2.0044 0.9827
-3.2515 2.0896 -2.0051 0.9827
-0.9486 0.5180 -0.5607 0.9951
-0.9416 0.4713 -0.5463 0.9953
-0.9326 0.4259 -0.5319 0.9954
-0.9268 0.3085 -0.5067 0.9956
-0.9628 0.2095 -0.5112 0.9956
-0.9785 0.1407 -0.5129 0.9956
-0.9873 0.0706 -0.5135 0.9955
3.6082 0.1289 -1.9775 0.9837
3.6006 0.2575 -1.9771 0.9837
3.5720 0.5136 -1.9765 0.9837
3.5253 0.7669 -1.9760 0.9837
3.4953 0.8921 -1.9758 0.9837
3.4609 1.0162 -1.9756 0.9837
3.2245 1.6141 -1.9750 0.9837
3.1648 1.7281 -1.9750 0.9837
2.8868 2.1610 -1.9750 0.9837
2.8079 2.2628 -1.9751 0.9837
2.7255 2.3617 -1.9752 0.9837
2.6397 2.4577 -1.9754 0.9837
2.4581 2.6402 -1.9757 0.9837
2.2640 2.8094 -1.9762 0.9837
2.1625 2.8889 -1.9764 0.9837
2.0584 2.9646 -1.9767 0.9837
1.9515 3.0367 -1.9770 0.9837
1.6166 3.2296 -1.9781 0.9837
1.2630 3.3861 -1.9794 0.9837
0.8944 3.5043 -1.9808 0.9836
0.7690 3.5349 -1.9813 0.9836
0.6425 3.5611 -1.9819 0.9836
0.5151 3.5827 -1.9824 0.9836
0.2584 3.6125 -1.9836 0.9836
0.1293 3.6205 -1.9842 0.9836
0.0000 3.6239 -1.9848 0.9836
-1.0237 3.4866 -1.9902 0.9836
-1.1479 3.4490 -1.9909 0.9836
-1.2708 3.4071 -1.9916 0.9836
-1.3921 3.3608 -1.9924 0.9835
-1.5117 3.3102 -1.9931 0.9835
-1.7453 3.1962 -1.9946 0.9835
-1.8589 3.1331 -1.9953 0.9835
-2.0792 2.9947 -1.9968 0.9835
-2.2893 2.8408 -1.9983 0.9835
-2.4879 2.6722 -1.9997 0.9835
-2.7623 2.3935 -2.0019 0.9835
-2.8469 2.2942 -2.0026 0.9835
-2.9280 2.1919 -2.0033 0.9835
-3.0790 1.9788 -2.0046 0.9834
-0.8507 0.4645 -0.5309 0.9956
-0.8506 0.3885 -0.5122 0.9957
-0.8479 0.3512 -0.5027 0.9958
-0.8727 0.2563 -0.4982 0.9959
-0.8837 0.2256 -0.4995 0.9958
-0.8932 0.1943 -0.5006 0.9958
-0.9011 0.1626 -0.5015 0.9958
-0.9077 0.1305 -0.5022 0.9958
-0.9127 0.0981 -0.5028 0.9958
-0.9161 0.0655 -0.5030 0.9958
3.4245 0.1223 -1.9784 0.9843
3.4174 0.2444 -1.9781 0.9843
3.3902 0.4874 -1.9775 0.9843
3.3702 0.6081 -1.9772 0.9843
3.3460 0.7279 -1.9770 0.9843
3.3175 0.8468 -1.9768 0.9843
3.2849 0.9645 -1.9766 0.9843
3.2481 1.0811 -1.9764 0.9843
3.2072 1.1962 -1.9763 0.9843
3.1134 1.4218 -1.9761 0.9843
3.0606 1.5320 -1.9760 0.9843
2.6651 2.1477 -1.9762 0.9843
2.5869 2.2416 -1.9763 0.9843
2.3330 2.5059 -1.9767 0.9843
1.9536 2.8138 -1.9777 0.9843
1.6424 3.0079 -1.9786 0.9843
1.5343 3.0651 -1.9790 0.9843
1.4242 3.1186 -1.9794 0.9843
1.0834 3.2550 -1.9806 0.9843
0.9667 3.2924 -1.9811 0.9843
0.8488 3.3256 -1.9816 0.9843
0.6097 3.3794 -1.9826 0.9843
0.3673 3.4161 -1.9836 0.9843
0.2452 3.4280 -1.9842 0.9843
0.1227 3.4355 -1.9848 0.9842
-0.2455 3.4321 -1.9866 0.9842
-0.3679 3.4222 -1.9872 0.9842
-0.4900 3.4080 -1.9878 0.9842
-0.6115 3.3895 -1.9885 0.9842
-0.8523 3.3394 -1.9898 0.9842
-0.9713 3.3080 -1.9905 0.9842
-1.9724 2.8408 -1.9967 0.9842
-2.6200 2.2703 -2.0015 0.9841
-2.7003 2.1760 -2.0022 0.9841
-2.7771 2.0789 -2.0029 0.9841
-0.7634 0.5300 -0.5366 0.9957
-0.7809 0.3567 -0.4957 0.9960
-0.7796 0.3229 -0.4872 0.9961
-0.8014 0.2667 -0.4876 0.9961
-0.8393 0.1514 -0.4924 0.9961
-0.8453 0.1215 -0.4930 0.9961
-0.8499 0.0914 -0.4935 0.9961
-0.8531 0.0610 -0.4938 0.9961
-0.8548 0.0305 -0.4938 0.9961
