ply
format ascii 1.0
element vertex 803
property float32 x
property float32 y
property float32 z
property float32 I
end_header
8.8871 1.9333 -0.6669 0.9642
7.3794 2.7524 -0.5775 0.9689
7.4280 3.0768 -0.5895 0.9683
8.3624 5.3742 -0.7289 0.9609
7.9119 5.4933 -0.7062 0.9621
7.7952 1.9896 -0.7724 0.9682
7.0277 2.3390 -0.7111 0.9707
6.9530 2.5933 -0.7124 0.9706
8.2077 5.2748 -0.9367 0.9616
7.7851 5.4053 -0.9099 0.9626
7.0664 5.6944 -0.8713 0.9642
6.8989 5.9779 -0.8764 0.9640
6.7192 6.7192 -0.9123 0.9625
3.2179 6.4286 -0.6902 0.9715
2.9411 6.4401 -0.6797 0.9720
6.7195 2.2365 -0.8412 0.9719
6.4053 2.9252 -0.8364 0.9720
6.4674 3.2373 -0.8591 0.9713
8.0855 5.1962 -1.1417 0.9620
6.8638 5.5312 -1.0471 0.9651
6.6391 5.7528 -1.0435 0.9652
6.6171 6.6171 -1.1116 0.9630
5.1892 8.0746 -1.1401 0.9621
3.0457 6.0844 -0.8082 0.9730
2.5252 6.0963 -0.7838 0.9738
2.2837 6.1228 -0.7763 0.9740
2.0699 6.2190 -0.7786 0.9739
1.9736 6.7215 -0.8321 0.9722
1.8873 7.3946 -0.9065 0.9697
7.4336 1.8973 -1.0870 0.9695
6.5716 2.1873 -0.9814 0.9724
6.3729 2.3770 -0.9637 0.9729
6.5716 3.5883 -1.0609 0.9702
7.5994 5.2763 -1.3108 0.9633
6.5765 5.6986 -1.2330 0.9655
6.4660 6.0201 -1.2518 0.9649
6.5028 6.5028 -1.3030 0.9635
5.1301 5.9205 -1.1100 0.9688
3.2833 6.0130 -0.9707 0.9727
3.0140 6.0211 -0.9540 0.9732
2.0201 6.0694 -0.9063 0.9745
1.7135 6.7136 -0.9817 0.9724
1.5689 7.2121 -1.0458 0.9706
1.3729 7.6093 -1.0956 0.9692
6.8472 2.0105 -1.1756 0.9715
6.5162 2.1688 -1.1314 0.9725
6.3384 2.3641 -1.1144 0.9729
6.3099 2.8816 -1.1428 0.9723
6.5158 3.5579 -1.2230 0.9704
8.0826 5.1944 -1.5828 0.9618
7.5989 5.2760 -1.5240 0.9632
7.1940 5.3854 -1.4804 0.9642
6.5717 5.6944 -1.4325 0.9654
6.5234 6.5234 -1.5198 0.9633
5.0972 5.8825 -1.2823 0.9689
3.7926 5.9014 -1.1556 0.9720
3.5099 5.9156 -1.1332 0.9725
2.9743 5.9419 -1.0947 0.9734
2.7248 5.9664 -1.0805 0.9738
2.2344 5.9905 -1.0533 0.9744
1.9950 5.9941 -1.0407 0.9747
1.7642 6.0083 -1.0316 0.9749
1.1984 6.6421 -1.1119 0.9730
0.8159 7.5885 -1.2573 0.9695
8.0937 1.7607 -1.5569 0.9668
7.4018 1.8892 -1.4358 0.9694
6.7949 1.9952 -1.3311 0.9716
6.4901 2.1601 -1.2857 0.9725
6.3236 2.3586 -1.2686 0.9729
6.3439 3.1755 -1.3335 0.9715
7.5998 5.2767 -1.7390 0.9630
7.2334 5.4149 -1.6983 0.9639
5.1041 5.8904 -1.4650 0.9688
4.7377 5.8791 -1.4192 0.9697
4.0859 5.8849 -1.3466 0.9713
3.7872 5.8931 -1.3167 0.9719
2.4511 5.9175 -1.2039 0.9743
1.9697 5.9181 -1.1724 0.9749
1.7387 5.9213 -1.1600 0.9752
1.0737 5.9513 -1.1367 0.9757
0.7886 7.3352 -1.3867 0.9704
0.6858 9.5888 -1.8069 0.9616
0.3433 9.6127 -1.8080 0.9616
-0.0000 9.6246 -1.8090 0.9616
-0.3437 9.6245 -1.8102 0.9616
-1.0308 9.5881 -1.8126 0.9615
-2.3917 9.3707 -1.8178 0.9614
-4.6612 8.5364 -1.8281 0.9612
9.2901 0.0000 -1.9637 0.9627
9.2790 0.3314 -1.9626 0.9628
9.2562 0.6620 -1.9616 0.9628
9.2219 0.9915 -1.9606 0.9628
6.2983 2.8763 -1.4636 0.9721
6.4797 3.2435 -1.5317 0.9708
7.9418 4.7121 -1.9520 0.9629
7.7670 4.9916 -1.9516 0.9630
7.1859 5.7908 -1.9508 0.9630
6.7535 6.2877 -1.9505 0.9630
6.5246 6.5246 -1.9504 0.9630
6.2875 6.7533 -1.9504 0.9630
4.1125 5.9231 -1.5242 0.9709
3.5092 5.9144 -1.4537 0.9723
3.2316 5.9182 -1.4253 0.9728
2.9644 5.9220 -1.3999 0.9733
2.4610 5.9414 -1.3594 0.9741
1.5046 5.8951 -1.2860 0.9754
0.8542 5.9412 -1.2688 0.9758
0.6111 8.5445 -1.8107 0.9656
0.0000 8.5754 -1.8127 0.9655
-0.3063 8.5746 -1.8137 0.9655
-0.6125 8.5632 -1.8147 0.9655
-0.9182 8.5410 -1.8158 0.9655
-1.2233 8.5080 -1.8169 0.9655
-1.8295 8.4098 -1.8192 0.9654
-2.7235 8.1828 -1.8230 0.9654
-3.0160 8.0861 -1.8243 0.9653
-3.6400 7.9706 -1.8522 0.9648
-3.9780 7.9470 -1.8785 0.9643
-4.3260 7.9224 -1.9080 0.9638
-5.0549 7.8656 -1.9764 0.9625
-5.3436 7.6962 -1.9805 0.9624
-5.6268 7.5165 -1.9847 0.9623
-6.1656 7.1155 -1.9902 0.9622
-7.1383 6.1854 -1.9966 0.9621
-7.9714 5.1229 -2.0030 0.9620
-8.1556 4.8390 -2.0045 0.9620
-8.3297 4.5483 -2.0061 0.9619
-8.7884 3.6403 -2.0107 0.9619
-9.0391 3.0085 -2.0137 0.9618
-9.2440 2.3594 -2.0166 0.9617
-9.5480 0.6829 -2.0234 0.9616
8.3685 0.0000 -1.9668 0.9662
8.3589 0.2985 -1.9658 0.9662
8.3388 0.5964 -1.9648 0.9662
8.3084 0.8932 -1.9639 0.9662
8.2675 1.1887 -1.9630 0.9663
8.2163 1.4824 -1.9622 0.9663
7.4040 1.8898 -1.7959 0.9691
6.8434 2.0094 -1.6763 0.9711
7.9098 2.6326 -1.9592 0.9663
7.8083 2.9123 -1.9586 0.9663
7.5763 3.4600 -1.9575 0.9664
7.4461 3.7273 -1.9570 0.9664
7.3067 3.9897 -1.9566 0.9664
7.1582 4.2471 -1.9562 0.9664
7.0008 4.4991 -1.9558 0.9664
6.4772 5.2197 -1.9551 0.9664
6.0876 5.6677 -1.9548 0.9664
5.6675 6.0874 -1.9548 0.9664
4.4064 5.8862 -1.7281 0.9702
4.1309 5.9496 -1.7023 0.9707
3.8354 5.9679 -1.6673 0.9713
1.9745 5.9323 -1.4694 0.9746
1.5173 5.9449 -1.4420 0.9751
1.2858 5.9109 -1.4217 0.9755
1.0679 5.9192 -1.4136 0.9756
0.8518 5.9246 -1.4067 0.9757
0.2855 7.9942 -1.8800 0.9677
-0.2858 8.0036 -1.8822 0.9676
-1.1524 8.0148 -1.9030 0.9673
-1.4454 8.0112 -1.9132 0.9671
-2.3450 7.9862 -1.9562 0.9664
-3.4946 7.6521 -1.9771 0.9660
-4.5661 7.1050 -1.9849 0.9659
-4.8202 6.9424 -1.9863 0.9659
-5.3107 6.5902 -1.9892 0.9658
-5.7756 6.2034 -1.9920 0.9658
-6.6187 5.3337 -1.9978 0.9657
-6.8098 5.0977 -1.9992 0.9657
-7.4873 4.0883 -2.0049 0.9656
-7.6337 3.8212 -2.0063 0.9655
-7.7706 3.5487 -2.0077 0.9655
-7.8977 3.2713 -2.0091 0.9655
-8.2185 2.4132 -2.0131 0.9654
-8.3804 1.8231 -2.0156 0.9654
-8.4994 1.2220 -2.0181 0.9653
-8.5426 0.9184 -2.0193 0.9653
7.5796 0.5421 -1.9675 0.9691
7.5522 0.8119 -1.9667 0.9691
7.5154 1.0805 -1.9659 0.9691
7.4135 1.6127 -1.9644 0.9691
7.3486 1.8756 -1.9637 0.9691
6.9942 2.0537 -1.8874 0.9703
7.1915 2.3936 -1.9624 0.9692
7.0994 2.6479 -1.9619 0.9692
6.6440 3.6279 -1.9600 0.9692
6.5090 3.8620 -1.9596 0.9692
6.0564 4.5338 -1.9588 0.9692
5.7166 4.9534 -1.9585 0.9692
5.5359 5.1541 -1.9584 0.9692
4.3146 6.2142 -1.9588 0.9692
3.8613 6.5078 -1.9593 0.9692
2.9758 5.9448 -1.7213 0.9729
1.9731 5.9281 -1.6177 0.9745
1.7593 5.9916 -1.6168 0.9745
1.5153 5.9370 -1.5865 0.9750
1.2935 5.9463 -1.5756 0.9752
1.0763 5.9657 -1.5696 0.9753
0.8114 7.5469 -1.9653 0.9691
0.0000 7.5976 -1.9672 0.9691
-0.2713 7.5966 -1.9681 0.9691
-1.8866 7.3914 -1.9751 0.9690
-2.4118 7.2462 -1.9774 0.9689
-2.9260 7.0640 -1.9797 0.9689
-3.1782 6.9592 -1.9809 0.9689
-3.4266 6.8455 -1.9821 0.9689
-3.6710 6.7230 -1.9833 0.9688
-4.1465 6.4521 -1.9858 0.9688
-4.3769 6.3040 -1.9871 0.9688
-4.6021 6.1477 -1.9883 0.9688
-5.0355 5.8113 -1.9909 0.9687
-5.2431 5.6315 -1.9922 0.9687
-5.4444 5.4444 -1.9935 0.9687
-5.8265 5.0487 -1.9962 0.9686
-6.1799 4.6262 -1.9988 0.9686
-6.3453 4.4056 -2.0001 0.9686
-6.6520 3.9468 -2.0027 0.9685
-6.9254 3.4666 -2.0052 0.9685
-7.0491 3.2192 -2.0065 0.9685
-7.2698 2.7115 -2.0089 0.9684
-7.3664 2.4517 -2.0101 0.9684
-7.4536 2.1886 -2.0113 0.9684
-7.5313 1.9223 -2.0125 0.9684
-7.6579 1.3817 -2.0148 0.9684
-7.7066 1.1080 -2.0159 0.9683
-7.7453 0.8327 -2.0170 0.9683
-7.7930 0.2783 -2.0190 0.9683
6.9638 -0.0000 -1.9714 0.9715
6.9403 0.4964 -1.9698 0.9715
6.9155 0.7435 -1.9690 0.9715
6.8820 0.9895 -1.9683 0.9715
6.7891 1.4769 -1.9669 0.9715
6.6623 1.9562 -1.9657 0.9715
6.5022 2.4252 -1.9646 0.9716
6.3096 2.8815 -1.9637 0.9716
6.2014 3.1042 -1.9632 0.9716
5.9621 3.5375 -1.9625 0.9716
5.8311 3.7474 -1.9623 0.9716
5.6929 3.9527 -1.9620 0.9716
5.5476 4.1529 -1.9618 0.9716
5.3954 4.3479 -1.9616 0.9716
5.2364 4.5374 -1.9615 0.9716
4.7211 5.0708 -1.9614 0.9716
4.5372 5.2362 -1.9614 0.9716
4.3476 5.3950 -1.9615 0.9716
3.3223 6.0843 -1.9625 0.9716
3.1035 6.2000 -1.9628 0.9716
1.9737 5.9301 -1.7693 0.9744
1.4763 6.7865 -1.9661 0.9715
0.9891 6.8790 -1.9674 0.9715
0.4962 6.9371 -1.9689 0.9715
0.2483 6.9530 -1.9696 0.9715
-0.2485 6.9588 -1.9712 0.9715
-0.4970 6.9485 -1.9721 0.9715
-1.7269 6.7658 -1.9768 0.9714
-1.9683 6.7033 -1.9778 0.9714
-2.6778 6.4648 -1.9809 0.9713
-3.1356 6.2642 -1.9831 0.9713
-3.5786 6.0314 -1.9854 0.9713
-3.7938 5.9033 -1.9865 0.9712
-4.2102 5.6242 -1.9889 0.9712
-4.6061 5.3158 -1.9912 0.9712
-4.7958 5.1511 -1.9924 0.9712
-5.1572 4.8016 -1.9948 0.9711
-5.4932 4.4267 -1.9972 0.9711
-5.6511 4.2304 -1.9984 0.9711
-5.9456 3.8210 -2.0008 0.9710
-6.0817 3.6085 -2.0019 0.9710
-6.2103 3.3911 -2.0031 0.9710
-6.4438 2.9428 -2.0054 0.9710
-6.6448 2.4784 -2.0077 0.9709
-6.7327 2.2409 -2.0088 0.9709
-6.8828 1.7567 -2.0109 0.9709
-6.9448 1.5107 -2.0120 0.9709
-6.9978 1.2625 -2.0130 0.9709
-7.1031 0.5080 -2.0160 0.9708
-7.1199 0.2543 -2.0169 0.9708
6.4153 0.0000 -1.9732 0.9735
6.3407 0.9117 -1.9703 0.9735
6.3021 1.1370 -1.9697 0.9736
6.0691 2.0200 -1.9674 0.9736
5.9917 2.2348 -1.9669 0.9736
5.7149 2.8606 -1.9657 0.9736
5.3738 3.4535 -1.9648 0.9736
5.2465 3.6427 -1.9645 0.9736
5.1126 3.8273 -1.9643 0.9736
4.9724 4.0070 -1.9642 0.9736
4.6734 4.3511 -1.9640 0.9736
4.5150 4.5150 -1.9639 0.9736
4.1815 4.8257 -1.9640 0.9736
4.0067 4.9720 -1.9641 0.9736
3.6423 5.2459 -1.9643 0.9736
3.4531 5.3731 -1.9645 0.9736
2.8600 5.7137 -1.9653 0.9736
2.4460 5.9052 -1.9660 0.9736
2.2342 5.9900 -1.9664 0.9736
1.5822 6.1990 -1.9678 0.9736
1.3603 6.2533 -1.9684 0.9736
0.6847 6.3688 -1.9702 0.9735
0.4571 6.3913 -1.9709 0.9735
0.2288 6.4058 -1.9716 0.9735
-0.0000 6.4123 -1.9723 0.9735
-0.9140 6.3573 -1.9755 0.9735
-1.1409 6.3234 -1.9764 0.9735
-1.5905 6.2316 -1.9781 0.9734
-2.0329 6.1081 -1.9800 0.9734
-2.2508 6.0345 -1.9810 0.9734
-3.0929 5.6643 -1.9850 0.9734
-3.2949 5.5533 -1.9861 0.9733
-3.4929 5.4350 -1.9871 0.9733
-3.6866 5.3097 -1.9882 0.9733
-3.8759 5.1776 -1.9893 0.9733
-4.2400 4.8932 -1.9915 0.9733
-4.7466 4.4192 -1.9948 0.9732
-5.4709 3.5159 -2.0003 0.9732
-5.7139 3.1200 -2.0024 0.9731
-5.8247 2.9157 -2.0035 0.9731
-6.1126 2.2799 -2.0066 0.9731
-6.3307 1.6158 -2.0096 0.9730
-6.3874 1.3895 -2.0106 0.9730
-6.4359 1.1612 -2.0115 0.9730
-6.5083 0.6997 -2.0133 0.9730
-6.5319 0.4672 -2.0142 0.9730
-6.5472 0.2338 -2.0151 0.9730
5.9007 0.6344 -1.9727 0.9753
5.8368 1.0531 -1.9715 0.9753
5.5499 2.0700 -1.9689 0.9753
5.3859 2.4597 -1.9681 0.9754
5.2937 2.6498 -1.9678 0.9754
4.6062 3.7119 -1.9664 0.9754
4.4705 3.8737 -1.9663 0.9754
4.1825 4.1825 -1.9662 0.9754
4.0306 4.3292 -1.9662 0.9754
3.8736 4.4703 -1.9662 0.9754
3.5451 4.7357 -1.9664 0.9754
3.0194 5.0889 -1.9669 0.9754
2.8361 5.1940 -1.9671 0.9754
2.2658 5.4700 -1.9681 0.9754
1.6691 5.6844 -1.9693 0.9753
0.2119 5.9325 -1.9732 0.9753
-0.2120 5.9366 -1.9746 0.9753
-0.6355 5.9108 -1.9761 0.9753
-0.8464 5.8867 -1.9769 0.9752
-1.2652 5.8161 -1.9785 0.9752
-1.6783 5.7159 -1.9802 0.9752
-1.8821 5.6549 -1.9811 0.9752
-2.6727 5.3394 -1.9848 0.9751
-2.8629 5.2431 -1.9857 0.9751
-3.0497 5.1401 -1.9867 0.9751
-3.5871 4.7918 -1.9897 0.9751
-4.0849 4.3875 -1.9927 0.9750
-4.2411 4.2411 -1.9937 0.9750
-4.3920 4.0891 -1.9947 0.9750
-4.8113 3.6017 -1.9978 0.9750
-5.1766 3.0714 -2.0008 0.9749
-5.2855 2.8861 -2.0018 0.9749
-5.3878 2.6969 -2.0028 0.9749
-5.5719 2.3079 -2.0047 0.9749
-5.6534 2.1086 -2.0057 0.9749
-5.7278 1.9064 -2.0066 0.9749
-5.9067 1.2849 -2.0094 0.9748
-5.9514 1.0738 -2.0102 0.9748
-5.9885 0.8610 -2.0111 0.9748
-6.0396 0.4320 -2.0127 0.9748
-6.0535 0.2162 -2.0135 0.9748
5.5260 -0.0000 -1.9761 0.9768
5.5206 0.1971 -1.9755 0.9768
5.4629 0.7854 -1.9736 0.9768
5.4298 0.9796 -1.9731 0.9768
5.3433 1.3638 -1.9721 0.9768
5.1634 1.9258 -1.9707 0.9769
5.0903 2.1085 -1.9703 0.9769
5.0109 2.2884 -1.9700 0.9769
4.7355 2.8097 -1.9691 0.9769
4.6316 2.9766 -1.9689 0.9769
4.2858 3.4537 -1.9683 0.9769
4.0282 3.7504 -1.9682 0.9769
3.6042 4.1594 -1.9682 0.9769
3.4535 4.2856 -1.9682 0.9769
3.2985 4.4063 -1.9683 0.9769
3.1394 4.5215 -1.9685 0.9769
2.8093 4.7348 -1.9688 0.9769
2.4650 4.9244 -1.9693 0.9769
2.2880 5.0099 -1.9696 0.9769
2.1080 5.0892 -1.9699 0.9769
1.9254 5.1622 -1.9702 0.9769
1.7402 5.2286 -1.9706 0.9769
1.5528 5.2885 -1.9710 0.9769
1.3634 5.3417 -1.9715 0.9769
0.9793 5.4280 -1.9724 0.9768
0.7852 5.4610 -1.9730 0.9768
0.1971 5.5185 -1.9747 0.9768
-0.0000 5.5238 -1.9753 0.9768
-0.1972 5.5221 -1.9760 0.9768
-0.3943 5.5134 -1.9767 0.9768
-0.5911 5.4978 -1.9774 0.9768
-0.7872 5.4752 -1.9781 0.9768
-1.3696 5.3659 -1.9804 0.9767
-1.5608 5.3157 -1.9812 0.9767
-1.7503 5.2588 -1.9820 0.9767
-2.1228 5.1249 -1.9837 0.9767
-2.4852 4.9648 -1.9854 0.9767
-2.8356 4.7791 -1.9872 0.9767
-3.1722 4.5689 -1.9891 0.9766
-3.3348 4.4548 -1.9900 0.9766
-3.4933 4.3350 -1.9909 0.9766
-3.7973 4.0786 -1.9928 0.9766
-4.2175 3.6545 -1.9956 0.9766
-4.4717 3.3475 -1.9975 0.9766
-4.5905 3.1872 -1.9985 0.9765
-4.8107 2.8543 -2.0004 0.9765
-4.9118 2.6820 -2.0013 0.9765
-5.0952 2.3269 -2.0031 0.9765
-5.1773 2.1445 -2.0040 0.9765
-5.2529 1.9592 -2.0049 0.9765
-5.3839 1.5808 -2.0066 0.9764
-5.4392 1.3883 -2.0075 0.9764
-5.4876 1.1937 -2.0083 0.9764
-5.5289 0.9975 -2.0091 0.9764
-5.5632 0.7999 -2.0099 0.9764
-5.5903 0.6010 -2.0107 0.9764
-5.6231 0.2008 -2.0121 0.9764
5.1549 0.1841 -1.9767 0.9781
5.1256 0.5511 -1.9756 0.9782
5.1013 0.7335 -1.9750 0.9782
5.0705 0.9148 -1.9745 0.9782
5.0334 1.0950 -1.9740 0.9782
4.8221 1.7985 -1.9723 0.9782
4.6799 2.1372 -1.9716 0.9782
4.5999 2.3025 -1.9713 0.9782
4.5141 2.4649 -1.9710 0.9782
4.4227 2.6241 -1.9707 0.9782
4.3258 2.7800 -1.9705 0.9782
4.2234 2.9324 -1.9703 0.9782
3.8850 3.3664 -1.9700 0.9782
3.5027 3.7622 -1.9699 0.9782
3.3663 3.8849 -1.9699 0.9782
3.2255 4.0026 -1.9700 0.9782
3.0808 4.1154 -1.9700 0.9782
2.9321 4.2230 -1.9702 0.9782
2.7797 4.3253 -1.9703 0.9782
2.1368 4.6790 -1.9712 0.9782
1.9688 4.7530 -1.9715 0.9782
1.4502 4.9389 -1.9726 0.9782
1.0946 5.0320 -1.9734 0.9782
0.9146 5.0690 -1.9739 0.9782
0.5509 5.1240 -1.9749 0.9782
-0.1842 5.1562 -1.9772 0.9781
-0.5519 5.1333 -1.9785 0.9781
-1.0986 5.0502 -1.9806 0.9781
-1.4572 4.9626 -1.9821 0.9781
-1.6340 4.9094 -1.9828 0.9781
-1.8089 4.8498 -1.9836 0.9781
-1.9816 4.7841 -1.9844 0.9781
-2.1520 4.7122 -1.9852 0.9781
-2.3198 4.6343 -1.9860 0.9780
-2.6467 4.4608 -1.9877 0.9780
-2.9607 4.2643 -1.9894 0.9780
-3.1124 4.1577 -1.9903 0.9780
-3.2602 4.0457 -1.9912 0.9780
-4.0565 3.2689 -1.9964 0.9779
-4.2831 2.9738 -1.9982 0.9779
-4.5824 2.5022 -2.0008 0.9779
-4.6708 2.3380 -2.0017 0.9779
-4.7533 2.1708 -2.0025 0.9779
-4.8298 2.0006 -2.0033 0.9779
-5.0735 1.2949 -2.0066 0.9778
-5.1184 1.1134 -2.0073 0.9778
-5.1568 0.9304 -2.0081 0.9778
-5.1887 0.7460 -2.0088 0.9778
-5.2139 0.5605 -2.0096 0.9778
-5.2324 0.3742 -2.0103 0.9778
-5.2442 0.1873 -2.0109 0.9778
4.8295 0.1725 -1.9778 0.9793
4.8022 0.5163 -1.9767 0.9793
4.7795 0.6872 -1.9762 0.9793
4.7160 1.0259 -1.9753 0.9794
4.6753 1.1933 -1.9748 0.9794
4.6288 1.3591 -1.9744 0.9794
4.5764 1.5232 -1.9740 0.9794
4.5183 1.6852 -1.9737 0.9794
4.2299 2.3097 -1.9725 0.9794
4.1443 2.4589 -1.9722 0.9794
3.8567 2.8870 -1.9717 0.9794
3.6405 3.1545 -1.9715 0.9794
3.4060 3.4060 -1.9714 0.9794
3.2823 3.5254 -1.9714 0.9794
3.1544 3.6404 -1.9714 0.9794
2.8868 3.8564 -1.9716 0.9794
2.6047 4.0530 -1.9718 0.9794
2.3094 4.2293 -1.9722 0.9794
2.1572 4.3096 -1.9724 0.9794
2.0023 4.3843 -1.9727 0.9794
1.8448 4.4537 -1.9729 0.9794
1.3588 4.6277 -1.9739 0.9794
1.0256 4.7147 -1.9747 0.9794
0.5161 4.8007 -1.9761 0.9793
0.1724 4.8278 -1.9772 0.9793
0.0000 4.8322 -1.9777 0.9793
-0.3449 4.8228 -1.9789 0.9793
-0.5170 4.8089 -1.9795 0.9793
-1.1977 4.6926 -1.9821 0.9793
-1.3649 4.6485 -1.9828 0.9793
-1.5305 4.5985 -1.9836 0.9793
-1.8560 4.4809 -1.9850 0.9793
-2.0156 4.4135 -1.9858 0.9792
-2.3271 4.2618 -1.9873 0.9792
-2.4787 4.1777 -1.9881 0.9792
-2.6273 4.0882 -1.9889 0.9792
-2.7727 3.9934 -1.9897 0.9792
-3.0530 3.7885 -1.9914 0.9792
-3.1876 3.6787 -1.9922 0.9792
-3.3182 3.5640 -1.9930 0.9792
-3.4447 3.4447 -1.9938 0.9792
-3.5670 3.3210 -1.9947 0.9792
-3.6848 3.1929 -1.9955 0.9791
-3.7979 3.0606 -1.9963 0.9791
-4.2898 2.3424 -2.0004 0.9791
-4.3724 2.1887 -2.0012 0.9791
-4.6466 1.5466 -2.0043 0.9791
-4.8264 0.8708 -2.0072 0.9790
-4.8968 0.3502 -2.0092 0.9790
4.5376 0.1620 -1.9788 0.9804
4.5278 0.3238 -1.9783 0.9804
4.4909 0.6457 -1.9773 0.9804
4.4639 0.8054 -1.9769 0.9804
4.4314 0.9640 -1.9764 0.9804
4.3932 1.1213 -1.9760 0.9804
4.3004 1.4313 -1.9753 0.9804
4.2458 1.5836 -1.9749 0.9804
4.1207 1.8819 -1.9743 0.9804
3.7191 2.5822 -1.9732 0.9804
3.4212 2.9644 -1.9729 0.9804
3.3131 3.0846 -1.9728 0.9804
3.2008 3.2008 -1.9728 0.9804
2.8404 3.5248 -1.9729 0.9804
2.7129 3.6241 -1.9729 0.9804
2.5820 3.7188 -1.9730 0.9804
2.1702 3.9744 -1.9735 0.9804
2.0272 4.0498 -1.9737 0.9804
1.7335 4.1851 -1.9742 0.9804
1.1210 4.3921 -1.9755 0.9804
0.4850 4.5108 -1.9772 0.9804
0.3237 4.5263 -1.9777 0.9804
0.1620 4.5362 -1.9782 0.9804
-0.1621 4.5386 -1.9793 0.9804
-0.3241 4.5312 -1.9798 0.9804
-0.8073 4.4746 -1.9816 0.9804
-1.2822 4.3669 -1.9835 0.9803
-1.7435 4.2092 -1.9856 0.9803
-2.0408 4.0771 -1.9870 0.9803
-2.1858 4.0031 -1.9878 0.9803
-2.3282 3.9240 -1.9885 0.9803
-2.6042 3.7507 -1.9900 0.9803
-2.7374 3.6568 -1.9908 0.9803
-2.8673 3.5581 -1.9915 0.9803
-3.1163 3.3471 -1.9931 0.9802
-3.2350 3.2350 -1.9939 0.9802
-3.5664 2.8740 -1.9962 0.9802
-3.7653 2.6143 -1.9977 0.9802
-4.0278 2.1993 -2.0000 0.9802
-4.1052 2.0549 -2.0008 0.9802
-4.2445 1.7581 -2.0023 0.9802
-1.5118 0.5639 -0.7032 0.9930
-1.4401 0.4793 -0.6615 0.9934
-1.3722 0.4029 -0.6233 0.9938
-1.3400 0.3420 -0.6027 0.9940
-1.3688 0.2977 -0.6105 0.9939
-1.3955 0.2518 -0.6180 0.9938
-1.4490 0.1036 -0.6331 0.9937
4.2742 0.1526 -1.9797 0.9813
4.2304 0.6082 -1.9783 0.9813
4.1385 1.0563 -1.9771 0.9813
3.9434 1.6334 -1.9757 0.9814
3.8821 1.7729 -1.9755 0.9814
3.8158 1.9100 -1.9752 0.9814
3.7447 2.0448 -1.9750 0.9814
3.6690 2.1769 -1.9748 0.9814
3.5886 2.3063 -1.9746 0.9814
3.5038 2.4327 -1.9744 0.9814
3.4145 2.5560 -1.9743 0.9814
3.3209 2.6762 -1.9742 0.9814
3.2231 2.7928 -1.9741 0.9814
3.1213 2.9060 -1.9741 0.9814
2.9060 3.1213 -1.9740 0.9814
2.3061 3.5883 -1.9744 0.9814
2.1767 3.6686 -1.9746 0.9814
1.9098 3.8153 -1.9749 0.9814
1.7726 3.8814 -1.9752 0.9814
1.6331 3.9427 -1.9754 0.9814
1.4916 3.9991 -1.9757 0.9814
1.3481 4.0504 -1.9760 0.9814
1.0561 4.1376 -1.9766 0.9814
0.9079 4.1734 -1.9770 0.9814
0.6081 4.2293 -1.9778 0.9813
0.3049 4.2638 -1.9787 0.9813
-0.3053 4.2680 -1.9807 0.9813
-0.6093 4.2378 -1.9818 0.9813
-0.7604 4.2145 -1.9823 0.9813
-0.9106 4.1860 -1.9829 0.9813
-1.0597 4.1521 -1.9835 0.9813
-1.2076 4.1129 -1.9842 0.9813
-1.4990 4.0188 -1.9854 0.9813
-1.7830 3.9043 -1.9868 0.9813
-2.0584 3.7697 -1.9881 0.9812
-2.4522 3.5318 -1.9903 0.9812
-2.5776 3.4433 -1.9910 0.9812
-2.6999 3.3503 -1.9917 0.9812
-3.1538 2.9363 -1.9946 0.9812
-3.2578 2.8229 -1.9953 0.9812
-3.5447 2.4611 -1.9975 0.9812
-3.9324 1.7959 -2.0011 0.9811
-1.2017 0.4482 -0.5937 0.9944
-1.1536 0.3840 -0.5628 0.9947
-1.1330 0.3326 -0.5466 0.9948
-1.1574 0.2954 -0.5529 0.9947
-1.1790 0.2565 -0.5585 0.9947
-1.1974 0.2160 -0.5632 0.9947
-1.2424 0.0444 -0.5754 0.9945
4.0386 0.0000 -1.9810 0.9822
4.0126 0.4314 -1.9796 0.9822
3.9073 0.9973 -1.9780 0.9822
3.8248 1.2730 -1.9774 0.9822
3.7764 1.4085 -1.9771 0.9822
3.7232 1.5422 -1.9768 0.9822
3.4642 2.0554 -1.9759 0.9822
3.3883 2.1775 -1.9757 0.9822
3.2239 2.4134 -1.9754 0.9822
3.0433 2.6370 -1.9752 0.9822
2.8473 2.8473 -1.9752 0.9822
2.7438 2.9471 -1.9752 0.9822
2.6369 3.0432 -1.9752 0.9822
2.5267 3.1354 -1.9752 0.9822
2.4133 3.2237 -1.9753 0.9822
2.0552 3.4638 -1.9757 0.9822
1.8032 3.6023 -1.9760 0.9822
1.4083 3.7757 -1.9767 0.9822
1.2728 3.8241 -1.9770 0.9822
1.1357 3.8677 -1.9773 0.9822
0.9970 3.9064 -1.9776 0.9822
0.8571 3.9402 -1.9780 0.9822
0.5741 3.9928 -1.9787 0.9822
0.4313 4.0116 -1.9791 0.9822
0.2879 4.0253 -1.9795 0.9822
0.0000 4.0374 -1.9805 0.9822
-0.2882 4.0291 -1.9814 0.9822
-0.4319 4.0173 -1.9819 0.9822
-0.5752 4.0004 -1.9825 0.9822
-0.8596 3.9514 -1.9836 0.9821
-1.0003 3.9193 -1.9841 0.9821
-1.1399 3.8823 -1.9847 0.9821
-1.6829 3.6851 -1.9872 0.9821
-2.1931 3.4126 -1.9898 0.9821
-2.4326 3.2496 -1.9912 0.9821
-2.6601 3.0699 -1.9925 0.9821
-2.7689 2.9740 -1.9932 0.9821
-2.8743 2.8743 -1.9939 0.9821
-1.0444 0.4769 -0.5632 0.9949
-1.0290 0.4262 -0.5463 0.9951
-1.0025 0.3336 -0.5183 0.9953
-1.0175 0.2987 -0.5202 0.9953
-1.0705 0.1151 -0.5281 0.9952
-1.0769 0.0770 -0.5296 0.9952
-1.0803 0.0386 -0.5302 0.9952
3.7956 0.4080 -1.9804 0.9829
3.6594 1.0745 -1.9786 0.9830
3.6182 1.2042 -1.9783 0.9830
3.5724 1.3324 -1.9780 0.9830
3.3448 1.8264 -1.9770 0.9830
3.1296 2.1729 -1.9766 0.9830
2.8790 2.4947 -1.9763 0.9830
2.6936 2.6936 -1.9762 0.9830
2.5958 2.7880 -1.9762 0.9830
2.3903 2.9662 -1.9763 0.9830
2.1728 3.1294 -1.9764 0.9830
1.9442 3.2768 -1.9767 0.9830
1.7058 3.4078 -1.9770 0.9830
1.3322 3.5718 -1.9777 0.9830
1.2040 3.6176 -1.9779 0.9830
1.0743 3.6587 -1.9782 0.9830
0.9432 3.6953 -1.9785 0.9830
0.6774 3.7545 -1.9792 0.9830
0.5431 3.7770 -1.9796 0.9830
0.4080 3.7947 -1.9799 0.9829
0.2723 3.8076 -1.9803 0.9829
0.1363 3.8157 -1.9808 0.9829
0.0000 3.8190 -1.9812 0.9829
-0.1363 3.8174 -1.9817 0.9829
-0.5440 3.7837 -1.9831 0.9829
-0.6789 3.7629 -1.9836 0.9829
-1.0781 3.6718 -1.9853 0.9829
-1.3381 3.5876 -1.9864 0.9829
-1.7155 3.4271 -1.9882 0.9829
-1.9568 3.2980 -1.9894 0.9829
-2.3003 3.0729 -1.9913 0.9829
-2.6182 2.8121 -1.9933 0.9828
-2.8140 2.6199 -1.9946 0.9828
-2.9956 2.4141 -1.9959 0.9828
-3.1623 2.1956 -1.9972 0.9828
-3.3130 1.9657 -1.9985 0.9828
-0.9326 0.4259 -0.5319 0.9954
-0.9208 0.3434 -0.5098 0.9956
-0.9268 0.3085 -0.5067 0.9956
-0.9715 0.1753 -0.5121 0.9956
-0.9785 0.1407 -0.5128 0.9956
-0.9838 0.1058 -0.5133 0.9956
-0.9892 0.0353 -0.5135 0.9955
3.5326 0.7685 -1.9801 0.9836
3.5023 0.8939 -1.9797 0.9837
3.4676 1.0182 -1.9794 0.9837
3.4286 1.1411 -1.9791 0.9837
3.3852 1.2626 -1.9788 0.9837
3.3375 1.3825 -1.9786 0.9837
3.2297 1.6167 -1.9781 0.9837
3.1055 1.8426 -1.9778 0.9837
2.9658 2.0592 -1.9775 0.9837
2.8902 2.1636 -1.9774 0.9837
2.8110 2.2652 -1.9773 0.9837
2.7283 2.3641 -1.9772 0.9837
2.4599 2.6421 -1.9771 0.9837
2.1635 2.8900 -1.9773 0.9837
1.9520 3.0373 -1.9775 0.9837
1.7305 3.1693 -1.9777 0.9837
1.6165 3.2293 -1.9779 0.9837
1.3823 3.3371 -1.9783 0.9837
1.2624 3.3847 -1.9785 0.9837
1.1410 3.4280 -1.9788 0.9837
1.0180 3.4670 -1.9791 0.9837
0.8937 3.5017 -1.9794 0.9837
0.7683 3.5319 -1.9797 0.9837
0.3866 3.5956 -1.9807 0.9836
0.2580 3.6078 -1.9811 0.9836
-0.1292 3.6170 -1.9823 0.9836
-0.2582 3.6109 -1.9828 0.9836
-0.6432 3.5652 -1.9842 0.9836
-0.8964 3.5120 -1.9852 0.9836
-1.3886 3.3523 -1.9874 0.9836
-1.5078 3.3016 -1.9879 0.9836
-1.7405 3.1875 -1.9891 0.9836
-1.8537 3.1242 -1.9897 0.9836
-1.9646 3.0570 -1.9903 0.9836
-2.4800 2.6637 -1.9933 0.9835
-2.6653 2.4815 -1.9946 0.9835
-2.7531 2.3856 -1.9952 0.9835
-3.0683 1.9719 -1.9976 0.9835
-0.8524 0.5058 -0.5428 0.9955
-0.8507 0.4645 -0.5309 0.9956
-0.8603 0.2863 -0.4966 0.9959
-0.9011 0.1626 -0.5015 0.9958
-0.9077 0.1305 -0.5022 0.9958
-0.9127 0.0981 -0.5028 0.9958
-0.9161 0.0655 -0.5030 0.9958
-0.9179 0.0328 -0.5031 0.9958
3.4318 0.1226 -1.9826 0.9843
3.4246 0.2449 -1.9822 0.9843
3.0081 1.6425 -1.9788 0.9843
2.9473 1.7487 -1.9786 0.9843
2.8828 1.8527 -1.9785 0.9843
2.8147 1.9543 -1.9783 0.9843
2.7430 2.0534 -1.9782 0.9843
2.5893 2.2436 -1.9781 0.9843
2.1498 2.6677 -1.9781 0.9843
1.9542 2.8145 -1.9782 0.9843
1.7486 2.9471 -1.9784 0.9843
1.6424 3.0078 -1.9786 0.9843
1.5341 3.0648 -1.9787 0.9843
1.4239 3.1179 -1.9789 0.9843
1.3118 3.1670 -1.9791 0.9843
1.1981 3.2122 -1.9793 0.9843
1.0828 3.2533 -1.9796 0.9843
0.9661 3.2903 -1.9798 0.9843
0.8482 3.3231 -1.9801 0.9843
0.6092 3.3762 -1.9807 0.9843
0.4883 3.3963 -1.9810 0.9843
0.3668 3.4122 -1.9814 0.9843
0.2449 3.4237 -1.9818 0.9843
-0.3673 3.4163 -1.9838 0.9843
-0.4891 3.4018 -1.9842 0.9843
-0.6104 3.3830 -1.9847 0.9842
-0.7309 3.3599 -1.9852 0.9842
-1.4306 3.1326 -1.9883 0.9842
-1.5419 3.0804 -1.9888 0.9842
-1.6513 3.0242 -1.9894 0.9842
-1.7587 2.9642 -1.9899 0.9842
-1.8639 2.9003 -1.9905 0.9842
-2.0673 2.7616 -1.9916 0.9842
-2.1652 2.6868 -1.9922 0.9842
-2.2603 2.6086 -1.9928 0.9842
-2.4421 2.4421 -1.9940 0.9842
-2.5285 2.3541 -1.9946 0.9842
-2.6116 2.2630 -1.9951 0.9842
-2.6915 2.1690 -1.9957 0.9842
-2.7680 2.0721 -1.9963 0.9842
-0.7696 0.4946 -0.5282 0.9958
-0.7750 0.4599 -0.5203 0.9958
-0.7787 0.4252 -0.5122 0.9959
-0.7806 0.3908 -0.5040 0.9960
-0.7809 0.3566 -0.4957 0.9960
-0.7796 0.3229 -0.4872 0.9961
-0.7887 0.2942 -0.4860 0.9961
-0.8014 0.2667 -0.4876 0.9961
-0.8230 0.2100 -0.4904 0.9961
-0.8393 0.1514 -0.4924 0.9961
