ply
format ascii 1.0
element vertex 748
property float32 x
property float32 y
property float32 z
property float32 I
end_header
-9.2885 -0.3317 -1.9647 0.9627
-9.2549 -0.9950 -1.9676 0.9627
-9.0476 -2.3093 -1.9738 0.9625
-8.9668 -2.6328 -1.9754 0.9625
-8.8744 -2.9537 -1.9770 0.9625
-8.5296 -3.8953 -1.9821 0.9624
-8.3923 -4.2009 -1.9838 0.9624
-8.2442 -4.5017 -1.9855 0.9623
-8.0854 -4.7973 -1.9873 0.9623
-7.7361 -5.3713 -1.9908 0.9622
-7.1365 -6.1838 -1.9960 0.9621
-6.9173 -6.4402 -1.9978 0.9621
-6.6888 -6.6889 -1.9995 0.9621
-6.4515 -6.9294 -2.0013 0.9620
-5.1404 -7.9986 -2.0098 0.9619
-4.5641 -8.3586 -2.0131 0.9618
-3.6530 -8.8192 -2.0178 0.9617
-3.3384 -8.9507 -2.0193 0.9617
-2.6953 -9.1793 -2.0222 0.9616
-2.3676 -9.2761 -2.0236 0.9616
-2.0363 -9.3610 -2.0250 0.9616
-1.7020 -9.4339 -2.0263 0.9616
-1.3651 -9.4946 -2.0276 0.9615
-1.0260 -9.5430 -2.0288 0.9615
-0.6851 -9.5792 -2.0300 0.9615
-0.3430 -9.6029 -2.0312 0.9615
-0.0000 -9.6142 -2.0322 0.9615
0.3433 -9.6130 -2.0333 0.9614
0.6865 -9.5992 -2.0343 0.9614
1.0292 -9.5730 -2.0352 0.9614
1.7109 -9.4830 -2.0369 0.9614
2.3848 -9.3434 -2.0383 0.9613
3.0471 -9.1549 -2.0395 0.9613
4.3224 -8.6351 -2.0412 0.9613
4.6284 -8.4764 -2.0414 0.9613
5.7887 -7.7328 -2.0418 0.9613
6.0608 -7.5209 -2.0417 0.9613
6.3249 -7.2993 -2.0416 0.9613
7.0661 -6.5788 -2.0408 0.9613
7.2950 -6.3211 -2.0404 0.9613
7.5142 -6.0554 -2.0399 0.9613
7.7236 -5.7818 -2.0394 0.9613
7.9227 -5.5009 -2.0388 0.9613
8.4565 -4.6176 -2.0367 0.9614
8.6124 -4.3111 -2.0358 0.9614
8.7570 -3.9992 -2.0349 0.9614
8.8900 -3.6824 -2.0340 0.9614
9.1209 -3.0357 -2.0320 0.9615
9.2184 -2.7068 -2.0309 0.9615
9.3772 -2.0399 -2.0285 0.9615
9.4869 -1.3640 -2.0260 0.9616
9.5233 -1.0239 -2.0246 0.9616
9.5472 -0.6828 -2.0233 0.9616
-8.3653 0.0000 -1.9660 0.9662
-8.3339 -0.8960 -1.9699 0.9661
-8.3023 -1.1937 -1.9713 0.9661
-8.2077 -1.7855 -1.9741 0.9661
-8.1446 -2.0788 -1.9755 0.9661
-8.0712 -2.3699 -1.9770 0.9660
-7.9875 -2.6585 -1.9785 0.9660
-7.6751 -3.5051 -1.9830 0.9659
-7.5510 -3.7798 -1.9846 0.9659
-7.2735 -4.3156 -1.9877 0.9658
-7.1204 -4.5761 -1.9893 0.9658
-6.7866 -5.0804 -1.9924 0.9658
-6.6062 -5.3236 -1.9940 0.9657
-6.4170 -5.5604 -1.9956 0.9657
-5.7996 -6.2292 -2.0003 0.9656
-5.5779 -6.4372 -2.0018 0.9656
-5.1123 -6.8292 -2.0049 0.9656
-4.8689 -7.0126 -2.0064 0.9655
-4.3627 -7.3530 -2.0094 0.9655
-4.1005 -7.5095 -2.0109 0.9655
-3.8326 -7.6565 -2.0123 0.9654
-2.4204 -8.2430 -2.0191 0.9653
-1.8284 -8.4050 -2.0216 0.9653
-1.5281 -8.4699 -2.0228 0.9653
-1.2255 -8.5239 -2.0239 0.9652
-0.9210 -8.5668 -2.0250 0.9652
-0.6150 -8.5988 -2.0261 0.9652
-0.3079 -8.6196 -2.0271 0.9652
0.3081 -8.6277 -2.0290 0.9651
1.2301 -8.5558 -2.0315 0.9651
1.5353 -8.5095 -2.0322 0.9651
2.1398 -8.3836 -2.0335 0.9651
2.4383 -8.3042 -2.0341 0.9651
3.5984 -7.8793 -2.0358 0.9650
4.4215 -7.4520 -2.0365 0.9650
4.6849 -7.2898 -2.0366 0.9650
5.1931 -6.9372 -2.0366 0.9650
5.4372 -6.7472 -2.0366 0.9650
6.7418 -5.4329 -2.0349 0.9650
7.1087 -4.9357 -2.0339 0.9651
7.2782 -4.6775 -2.0333 0.9651
7.5884 -4.1436 -2.0320 0.9651
7.7287 -3.8687 -2.0313 0.9651
7.8588 -3.5890 -2.0305 0.9651
8.1866 -2.7248 -2.0278 0.9652
8.2746 -2.4296 -2.0268 0.9652
8.3517 -2.1317 -2.0258 0.9652
8.4734 -1.5288 -2.0236 0.9652
8.5509 -0.9193 -2.0212 0.9653
8.5730 -0.6132 -2.0200 0.9653
-7.6019 -0.2715 -1.9695 0.9691
-7.5723 -0.8141 -1.9719 0.9690
-7.5432 -1.0846 -1.9731 0.9690
-7.0737 -2.9300 -1.9824 0.9689
-6.9695 -3.1829 -1.9838 0.9688
-6.8563 -3.4320 -1.9852 0.9688
-6.7342 -3.6772 -1.9866 0.9688
-6.1600 -4.6113 -1.9923 0.9687
-5.4567 -5.4567 -1.9980 0.9686
-5.2622 -5.6520 -1.9995 0.9686
-5.0606 -5.8403 -2.0009 0.9686
-4.4165 -6.3610 -2.0050 0.9685
-3.9568 -6.6689 -2.0077 0.9685
-3.7187 -6.8103 -2.0091 0.9684
-3.4755 -6.9432 -2.0104 0.9684
-3.2275 -7.0673 -2.0116 0.9684
-2.7185 -7.2886 -2.0141 0.9684
-2.4581 -7.3854 -2.0153 0.9684
-2.1942 -7.4727 -2.0165 0.9683
-1.3851 -7.6771 -2.0198 0.9683
-0.8347 -7.7642 -2.0219 0.9682
-0.2790 -7.8112 -2.0237 0.9682
-0.0000 -7.8196 -2.0246 0.9682
0.2792 -7.8178 -2.0255 0.9682
0.5583 -7.8059 -2.0263 0.9682
1.1145 -7.7518 -2.0277 0.9682
1.9385 -7.5951 -2.0295 0.9681
2.2089 -7.5230 -2.0301 0.9681
2.4766 -7.4410 -2.0305 0.9681
2.7412 -7.3494 -2.0309 0.9681
3.5127 -7.0175 -2.0319 0.9681
4.0051 -6.7502 -2.0322 0.9681
4.2436 -6.6033 -2.0323 0.9681
4.7040 -6.2838 -2.0324 0.9681
4.9251 -6.1117 -2.0323 0.9681
5.5489 -5.5489 -2.0318 0.9681
5.7426 -5.3466 -2.0315 0.9681
5.9289 -5.1374 -2.0312 0.9681
6.2777 -4.6995 -2.0304 0.9681
6.4400 -4.4713 -2.0299 0.9681
6.5937 -4.2375 -2.0294 0.9681
6.8752 -3.7541 -2.0282 0.9682
7.2294 -2.9945 -2.0260 0.9682
7.3287 -2.7335 -2.0252 0.9682
7.4185 -2.4691 -2.0244 0.9682
7.7205 -1.1100 -2.0195 0.9683
7.7510 -0.8333 -2.0184 0.9683
7.7715 -0.5558 -2.0173 0.9683
7.7820 -0.2779 -2.0162 0.9683
-6.9592 -0.2486 -1.9714 0.9715
-6.9497 -0.4970 -1.9724 0.9715
-6.9044 -0.9927 -1.9747 0.9714
-6.7708 -1.7281 -1.9782 0.9714
-6.6385 -2.2095 -1.9807 0.9713
-6.5595 -2.4466 -1.9819 0.9713
-6.4721 -2.6808 -1.9832 0.9713
-6.3764 -2.9120 -1.9844 0.9713
-6.1604 -3.3638 -1.9870 0.9712
-5.9125 -3.7997 -1.9896 0.9712
-5.7769 -4.0110 -1.9909 0.9712
-5.6337 -4.2174 -1.9922 0.9712
-5.4832 -4.4187 -1.9936 0.9711
-4.0370 -5.8144 -2.0039 0.9710
-3.8293 -5.9585 -2.0051 0.9710
-2.9494 -6.4582 -2.0099 0.9709
-2.7185 -6.5631 -2.0110 0.9709
-2.4839 -6.6597 -2.0122 0.9709
-0.7624 -7.0919 -2.0192 0.9708
-0.0000 -7.1416 -2.0217 0.9707
0.5099 -7.1287 -2.0232 0.9707
1.0178 -7.0788 -2.0246 0.9707
1.2702 -7.0400 -2.0252 0.9707
1.5210 -6.9922 -2.0257 0.9707
2.0170 -6.8692 -2.0267 0.9707
2.2613 -6.7942 -2.0271 0.9707
2.7412 -6.6179 -2.0278 0.9707
2.9761 -6.5167 -2.0281 0.9707
3.4341 -6.2891 -2.0285 0.9707
4.2947 -5.7371 -2.0288 0.9706
4.8827 -5.2444 -2.0285 0.9707
5.0662 -5.0662 -2.0283 0.9707
5.4133 -4.6907 -2.0277 0.9707
5.5763 -4.4937 -2.0274 0.9707
5.7321 -4.2910 -2.0270 0.9707
5.8803 -4.0828 -2.0266 0.9707
6.5027 -2.9697 -2.0237 0.9707
6.6022 -2.7347 -2.0230 0.9707
6.6932 -2.4964 -2.0223 0.9707
6.9133 -1.7645 -2.0199 0.9708
7.0527 -1.0140 -2.0171 0.9708
7.0809 -0.7613 -2.0161 0.9708
7.1000 -0.5078 -2.0151 0.9708
7.1099 -0.2540 -2.0140 0.9709
-6.4104 -0.2290 -1.9729 0.9735
-6.4013 -0.4578 -1.9739 0.9735
-6.3842 -0.6864 -1.9750 0.9735
-6.3590 -0.9143 -1.9760 0.9735
-6.3258 -1.1413 -1.9771 0.9735
-6.1778 -1.8140 -1.9804 0.9734
-6.0396 -2.2527 -1.9827 0.9734
-5.9589 -2.4683 -1.9838 0.9734
-5.7744 -2.8905 -1.9862 0.9733
-5.6710 -3.0966 -1.9874 0.9733
-5.4422 -3.4975 -1.9898 0.9733
-5.1851 -3.8815 -1.9922 0.9733
-5.0463 -4.0666 -1.9934 0.9732
-4.9009 -4.2467 -1.9946 0.9732
-4.7491 -4.4216 -1.9958 0.9732
-4.5910 -4.5910 -1.9970 0.9732
-4.2568 -4.9127 -1.9994 0.9732
-3.9001 -5.2099 -2.0017 0.9731
-3.1260 -5.7248 -2.0062 0.9731
-2.7126 -5.9397 -2.0084 0.9730
-2.0653 -6.2051 -2.0115 0.9730
-1.3921 -6.3995 -2.0144 0.9730
-1.1633 -6.4480 -2.0153 0.9730
-0.9329 -6.4882 -2.0161 0.9729
-0.7010 -6.5201 -2.0170 0.9729
-0.2342 -6.5586 -2.0186 0.9729
0.0000 -6.5651 -2.0193 0.9729
0.2344 -6.5633 -2.0200 0.9729
0.4687 -6.5529 -2.0207 0.9729
0.9355 -6.5067 -2.0219 0.9729
1.1675 -6.4709 -2.0224 0.9729
2.3003 -6.1673 -2.0246 0.9728
3.1560 -5.7799 -2.0255 0.9728
3.3606 -5.6639 -2.0257 0.9728
3.5607 -5.5406 -2.0257 0.9728
3.9469 -5.2725 -2.0258 0.9728
4.1325 -5.1282 -2.0257 0.9728
4.3127 -4.9772 -2.0256 0.9728
4.4873 -4.8197 -2.0255 0.9728
4.6561 -4.6561 -2.0253 0.9728
4.8187 -4.4864 -2.0251 0.9728
4.9751 -4.3110 -2.0248 0.9728
5.4046 -3.7525 -2.0237 0.9728
5.5339 -3.5564 -2.0233 0.9728
5.6559 -3.3558 -2.0228 0.9729
6.1528 -2.2949 -2.0198 0.9729
6.2285 -2.0731 -2.0191 0.9729
6.3558 -1.6222 -2.0176 0.9729
6.4070 -1.3938 -2.0168 0.9729
6.4846 -0.9324 -2.0150 0.9730
6.5286 -0.4669 -2.0132 0.9730
6.5380 -0.2335 -2.0122 0.9730
-5.9271 -0.4239 -1.9752 0.9753
-5.9110 -0.6355 -1.9762 0.9753
-5.7720 -1.4732 -1.9802 0.9752
-5.6582 -1.8832 -1.9823 0.9752
-5.5904 -2.0851 -1.9833 0.9752
-5.4333 -2.4813 -1.9855 0.9751
-5.3442 -2.6751 -1.9866 0.9751
-5.2482 -2.8658 -1.9877 0.9751
-5.1454 -3.0529 -1.9888 0.9751
-5.0360 -3.2365 -1.9899 0.9751
-4.9200 -3.4160 -1.9910 0.9751
-4.7977 -3.5915 -1.9921 0.9751
-4.6690 -3.7625 -1.9932 0.9750
-4.3936 -4.0907 -1.9955 0.9750
-3.9377 -4.5444 -1.9988 0.9750
-3.7751 -4.6846 -1.9999 0.9750
-3.4349 -4.9473 -2.0020 0.9749
-2.8909 -5.2943 -2.0051 0.9749
-2.7015 -5.3969 -2.0061 0.9749
-2.5084 -5.4925 -2.0071 0.9749
-2.3118 -5.5813 -2.0081 0.9749
-1.9096 -5.7374 -2.0100 0.9748
-1.0755 -5.9610 -2.0135 0.9748
-0.6480 -6.0273 -2.0150 0.9748
-0.4326 -6.0488 -2.0158 0.9748
0.4332 -6.0568 -2.0184 0.9747
0.6493 -6.0392 -2.0190 0.9747
1.9207 -5.7709 -2.0217 0.9747
2.1258 -5.6996 -2.0221 0.9747
2.3282 -5.6209 -2.0223 0.9747
2.5277 -5.5348 -2.0226 0.9747
2.7239 -5.4416 -2.0228 0.9747
2.9166 -5.3414 -2.0229 0.9747
3.4712 -4.9996 -2.0232 0.9747
3.9855 -4.5995 -2.0230 0.9747
4.4532 -4.1461 -2.0225 0.9747
4.8688 -3.6448 -2.0217 0.9747
5.3335 -2.9123 -2.0199 0.9747
5.4326 -2.7194 -2.0194 0.9747
5.6096 -2.3236 -2.0183 0.9747
5.6872 -2.1212 -2.0177 0.9747
5.8753 -1.4996 -2.0156 0.9748
5.9229 -1.2885 -2.0148 0.9748
5.9949 -0.8620 -2.0132 0.9748
6.0194 -0.6472 -2.0124 0.9748
6.0449 -0.2159 -2.0107 0.9748
-5.5207 -0.1972 -1.9755 0.9768
-5.4974 -0.5910 -1.9773 0.9768
-5.4753 -0.7872 -1.9782 0.9768
-5.4463 -0.9826 -1.9791 0.9768
-5.4103 -1.1769 -1.9800 0.9768
-5.3674 -1.3700 -1.9810 0.9767
-5.3177 -1.5614 -1.9819 0.9767
-5.1279 -2.1241 -1.9849 0.9767
-4.0834 -3.8018 -1.9952 0.9766
-3.9471 -3.9471 -1.9962 0.9766
-3.8057 -4.0876 -1.9972 0.9766
-3.6593 -4.2230 -1.9983 0.9765
-3.5080 -4.3531 -1.9993 0.9765
-3.3521 -4.4778 -2.0003 0.9765
-3.1917 -4.5969 -2.0013 0.9765
-2.6859 -4.9188 -2.0042 0.9765
-2.3303 -5.1026 -2.0060 0.9765
-1.9621 -5.2606 -2.0078 0.9764
-1.7738 -5.3295 -2.0087 0.9764
-1.5831 -5.3917 -2.0095 0.9764
-1.1954 -5.4953 -2.0111 0.9764
-0.8009 -5.5708 -2.0126 0.9764
-0.4018 -5.6177 -2.0141 0.9764
-0.2011 -5.6303 -2.0147 0.9764
0.4023 -5.6246 -2.0165 0.9763
0.8029 -5.5844 -2.0176 0.9763
1.0020 -5.5535 -2.0180 0.9763
1.1998 -5.5154 -2.0185 0.9763
1.7835 -5.3585 -2.0196 0.9763
2.1618 -5.2190 -2.0201 0.9763
2.3469 -5.1391 -2.0204 0.9763
2.7080 -4.9594 -2.0207 0.9763
2.8835 -4.8599 -2.0208 0.9763
3.0552 -4.7540 -2.0209 0.9763
3.3866 -4.5240 -2.0209 0.9763
3.7005 -4.2706 -2.0208 0.9763
3.8503 -4.1356 -2.0206 0.9763
4.1348 -3.8497 -2.0203 0.9763
4.2691 -3.6992 -2.0201 0.9763
4.3978 -3.5440 -2.0198 0.9763
4.8540 -2.8800 -2.0184 0.9763
5.1304 -2.3430 -2.0169 0.9763
5.2093 -2.1578 -2.0164 0.9763
5.2815 -1.9699 -2.0158 0.9763
5.3468 -1.7796 -2.0152 0.9763
5.4566 -1.3927 -2.0139 0.9764
5.5009 -1.1967 -2.0132 0.9764
5.5381 -0.9992 -2.0124 0.9764
5.5681 -0.8006 -2.0117 0.9764
5.5910 -0.6011 -2.0109 0.9764
5.6067 -0.4010 -2.0101 0.9764
5.6151 -0.2006 -2.0093 0.9764
-5.1468 -0.3681 -1.9774 0.9781
-5.1325 -0.5518 -1.9782 0.9781
-5.0506 -1.0987 -1.9808 0.9781
-5.0104 -1.2788 -1.9816 0.9781
-4.9639 -1.4575 -1.9825 0.9781
-4.9109 -1.6345 -1.9835 0.9781
-4.7863 -1.9825 -1.9853 0.9781
-4.5535 -2.4864 -1.9882 0.9780
-4.3687 -2.8076 -1.9901 0.9780
-4.0494 -3.2633 -1.9930 0.9780
-3.8100 -3.5473 -1.9949 0.9779
-3.6828 -3.6828 -1.9959 0.9779
-3.5507 -3.8137 -1.9968 0.9779
-3.1271 -4.1773 -1.9997 0.9779
-2.9774 -4.2883 -2.0006 0.9779
-2.8237 -4.3938 -2.0015 0.9779
-1.8300 -4.9063 -2.0067 0.9778
-1.6543 -4.9705 -2.0075 0.9778
-1.1148 -5.1247 -2.0098 0.9778
-0.7469 -5.1948 -2.0112 0.9778
-0.3746 -5.2383 -2.0125 0.9778
-0.1875 -5.2499 -2.0131 0.9777
0.0000 -5.2548 -2.0137 0.9777
0.3751 -5.2442 -2.0148 0.9777
0.7486 -5.2066 -2.0158 0.9777
1.4831 -5.0510 -2.0174 0.9777
1.6627 -4.9956 -2.0177 0.9777
1.8402 -4.9338 -2.0179 0.9777
2.5246 -4.6234 -2.0187 0.9777
2.8482 -4.4319 -2.0189 0.9777
3.0046 -4.3275 -2.0189 0.9777
3.1572 -4.2175 -2.0189 0.9777
3.3056 -4.1020 -2.0189 0.9777
3.4498 -3.9813 -2.0188 0.9777
3.8548 -3.5889 -2.0183 0.9777
3.9800 -3.4487 -2.0181 0.9777
4.2147 -3.1551 -2.0176 0.9777
4.3240 -3.0022 -2.0173 0.9777
4.4276 -2.8455 -2.0169 0.9777
4.6175 -2.5213 -2.0161 0.9777
4.7035 -2.3544 -2.0157 0.9777
4.7834 -2.1845 -2.0152 0.9777
5.1925 -0.7466 -2.0103 0.9778
5.2140 -0.5606 -2.0096 0.9778
5.2287 -0.3740 -2.0088 0.9778
5.2367 -0.1871 -2.0081 0.9778
-4.8212 -0.3448 -1.9783 0.9793
-4.7624 -0.8592 -1.9806 0.9793
-4.7307 -1.0291 -1.9814 0.9793
-4.6492 -1.3651 -1.9831 0.9793
-4.5994 -1.5308 -1.9840 0.9793
-4.4153 -2.0164 -1.9866 0.9792
-4.3424 -2.1737 -1.9875 0.9792
-4.1801 -2.4801 -1.9893 0.9792
-3.8963 -2.9167 -1.9920 0.9792
-3.7914 -3.0554 -1.9929 0.9792
-3.6817 -3.1902 -1.9938 0.9792
-3.5671 -3.3211 -1.9947 0.9792
-3.4478 -3.4478 -1.9956 0.9791
-2.9272 -3.9103 -1.9991 0.9791
-2.7870 -4.0141 -2.0000 0.9791
-2.6431 -4.1127 -2.0009 0.9791
-2.4957 -4.2062 -2.0017 0.9791
-2.3449 -4.2944 -2.0025 0.9791
-2.1910 -4.3771 -2.0034 0.9791
-1.8747 -4.5259 -2.0049 0.9790
-1.5482 -4.6516 -2.0065 0.9790
-1.3817 -4.7057 -2.0072 0.9790
-1.0432 -4.7956 -2.0086 0.9790
-0.8717 -4.8314 -2.0093 0.9790
-0.6989 -4.8610 -2.0099 0.9790
-0.5251 -4.8844 -2.0106 0.9790
-0.3506 -4.9015 -2.0112 0.9790
-0.1754 -4.9123 -2.0117 0.9790
-0.0000 -4.9167 -2.0123 0.9790
0.1755 -4.9149 -2.0128 0.9790
0.3509 -4.9067 -2.0133 0.9790
0.5260 -4.8922 -2.0138 0.9790
1.0465 -4.8109 -2.0150 0.9789
1.2178 -4.7713 -2.0154 0.9789
1.3875 -4.7255 -2.0157 0.9789
1.5555 -4.6737 -2.0160 0.9789
1.7216 -4.6158 -2.0162 0.9789
1.8854 -4.5518 -2.0165 0.9789
2.2058 -4.4065 -2.0168 0.9789
2.5148 -4.2384 -2.0170 0.9789
2.8108 -4.0484 -2.0171 0.9789
3.0924 -3.8375 -2.0171 0.9789
3.6062 -3.3575 -2.0166 0.9789
3.7234 -3.2264 -2.0164 0.9789
3.9431 -2.9518 -2.0159 0.9789
4.0453 -2.8088 -2.0156 0.9789
4.1423 -2.6621 -2.0153 0.9789
4.2340 -2.5121 -2.0149 0.9789
4.4754 -2.0439 -2.0137 0.9790
4.5445 -1.8824 -2.0132 0.9790
4.6648 -1.5526 -2.0121 0.9790
4.7159 -1.3847 -2.0116 0.9790
4.8792 -0.5246 -2.0084 0.9790
-1.4601 -0.0000 -0.6363 0.9936
-1.4490 -0.1036 -0.6331 0.9937
-1.4180 -0.2039 -0.6244 0.9938
-1.3955 -0.2518 -0.6180 0.9938
-1.3688 -0.2978 -0.6105 0.9939
-1.3400 -0.3420 -0.6027 0.9940
-1.3722 -0.4029 -0.6233 0.9938
-1.4401 -0.4793 -0.6615 0.9934
-1.5118 -0.5639 -0.7032 0.9930
-4.2102 -1.7439 -1.9861 0.9803
-4.1470 -1.8939 -1.9869 0.9803
-4.0785 -2.0415 -1.9877 0.9803
-3.9258 -2.3293 -1.9894 0.9803
-3.7528 -2.6056 -1.9911 0.9803
-3.6590 -2.7391 -1.9919 0.9803
-3.5604 -2.8692 -1.9928 0.9802
-3.4572 -2.9957 -1.9937 0.9802
-3.2374 -3.2374 -1.9953 0.9802
-3.1211 -3.3523 -1.9962 0.9802
-3.0007 -3.4630 -1.9970 0.9802
-2.8764 -3.5694 -1.9978 0.9802
-2.7483 -3.6713 -1.9987 0.9802
-2.4814 -3.8611 -2.0003 0.9802
-2.0568 -4.1091 -2.0026 0.9801
-1.9096 -4.1814 -2.0034 0.9801
-1.7598 -4.2485 -2.0041 0.9801
-1.6076 -4.3102 -2.0048 0.9801
-1.4532 -4.3663 -2.0055 0.9801
-0.9792 -4.5012 -2.0076 0.9801
-0.6560 -4.5624 -2.0088 0.9801
-0.3290 -4.6002 -2.0100 0.9801
-0.1647 -4.6102 -2.0105 0.9801
-0.0000 -4.6144 -2.0110 0.9801
0.1647 -4.6125 -2.0115 0.9801
0.3293 -4.6048 -2.0120 0.9801
0.9821 -4.5146 -2.0136 0.9800
1.1428 -4.4774 -2.0139 0.9800
1.3021 -4.4345 -2.0142 0.9800
1.6155 -4.3314 -2.0147 0.9800
1.7693 -4.2714 -2.0149 0.9800
2.2162 -4.0587 -2.0154 0.9800
2.3598 -3.9772 -2.0155 0.9800
2.5003 -3.8905 -2.0155 0.9800
2.7715 -3.7023 -2.0155 0.9800
3.0284 -3.4950 -2.0154 0.9800
3.2696 -3.2697 -2.0152 0.9800
3.3840 -3.1506 -2.0150 0.9800
3.4940 -3.0275 -2.0149 0.9800
3.7962 -2.6358 -2.0141 0.9800
3.8872 -2.4982 -2.0138 0.9800
3.9733 -2.3575 -2.0135 0.9800
4.0541 -2.2137 -2.0131 0.9800
4.1297 -2.0672 -2.0127 0.9801
4.2000 -1.9181 -2.0123 0.9801
4.2649 -1.7666 -2.0118 0.9801
4.3779 -1.4571 -2.0109 0.9801
4.4259 -1.2996 -2.0103 0.9801
4.4683 -1.1405 -2.0098 0.9801
4.5796 -0.4924 -2.0074 0.9801
-1.2362 -0.0884 -0.5737 0.9946
-1.2260 -0.1318 -0.5708 0.9946
-1.1974 -0.2161 -0.5632 0.9947
-1.1574 -0.2954 -0.5529 0.9947
-1.1329 -0.3327 -0.5466 0.9948
-1.1536 -0.3840 -0.5628 0.9947
-1.2345 -0.5114 -0.6185 0.9941
-3.8404 -1.9224 -1.9879 0.9812
-3.6964 -2.1932 -1.9895 0.9812
-3.5334 -2.4533 -1.9911 0.9812
-3.4450 -2.5789 -1.9919 0.9812
-2.7077 -3.3601 -1.9975 0.9812
-2.5870 -3.4559 -1.9982 0.9812
-1.6562 -3.9986 -2.0034 0.9811
-1.0718 -4.1991 -2.0060 0.9811
-0.7699 -4.2674 -2.0072 0.9811
-0.4638 -4.3139 -2.0083 0.9811
-0.3096 -4.3288 -2.0089 0.9811
-0.1549 -4.3382 -2.0094 0.9810
0.1550 -4.3402 -2.0103 0.9810
0.6185 -4.3015 -2.0116 0.9810
1.0752 -4.2128 -2.0126 0.9810
1.2251 -4.1723 -2.0128 0.9810
1.3734 -4.1265 -2.0131 0.9810
1.6647 -4.0188 -2.0135 0.9810
2.0851 -3.8187 -2.0139 0.9810
2.2202 -3.7420 -2.0140 0.9810
2.3524 -3.6604 -2.0141 0.9810
2.8493 -3.2883 -2.0140 0.9810
3.0763 -3.0763 -2.0138 0.9810
3.2874 -2.8486 -2.0135 0.9810
3.5718 -2.4800 -2.0128 0.9810
3.7385 -2.2182 -2.0122 0.9810
3.8146 -2.0830 -2.0118 0.9810
3.8858 -1.9451 -2.0115 0.9810
3.9520 -1.8048 -2.0111 0.9810
4.0131 -1.6623 -2.0106 0.9810
4.0689 -1.5176 -2.0102 0.9810
4.2392 -0.9222 -2.0082 0.9811
4.2683 -0.7701 -2.0076 0.9811
4.2918 -0.6171 -2.0070 0.9811
4.3098 -0.4633 -2.0064 0.9811
4.3223 -0.3091 -2.0058 0.9811
4.3292 -0.1546 -2.0052 0.9811
-1.0769 -0.0770 -0.5296 0.9952
-1.0611 -0.1526 -0.5258 0.9952
-1.0025 -0.3337 -0.5183 0.9953
-1.0444 -0.4769 -0.5632 0.9949
-1.0589 -0.5300 -0.5808 0.9947
-3.4135 -2.1937 -1.9904 0.9821
-3.2508 -2.4335 -1.9919 0.9821
-3.1631 -2.5490 -1.9926 0.9821
-3.0712 -2.6612 -1.9934 0.9821
-2.9754 -2.7702 -1.9942 0.9821
-2.7723 -2.9776 -1.9957 0.9820
-2.5547 -3.1702 -1.9971 0.9820
-2.3237 -3.3468 -1.9986 0.9820
-2.2036 -3.4288 -1.9993 0.9820
-2.0805 -3.5065 -2.0000 0.9820
-1.9547 -3.5798 -2.0007 0.9820
-1.4272 -3.8266 -2.0033 0.9820
-1.2902 -3.8763 -2.0040 0.9820
-1.0109 -3.9608 -2.0052 0.9820
-0.7262 -4.0252 -2.0063 0.9819
-0.5822 -4.0496 -2.0068 0.9819
-0.4374 -4.0688 -2.0074 0.9819
-0.1461 -4.0917 -2.0083 0.9819
-0.0000 -4.0952 -2.0088 0.9819
0.2923 -4.0865 -2.0097 0.9819
0.5833 -4.0568 -2.0104 0.9819
0.8715 -4.0062 -2.0111 0.9819
1.4335 -3.8433 -2.0121 0.9819
1.5699 -3.7900 -2.0123 0.9819
1.7043 -3.7319 -2.0124 0.9819
1.9664 -3.6012 -2.0127 0.9819
2.0938 -3.5289 -2.0127 0.9819
2.2184 -3.4520 -2.0128 0.9819
2.4591 -3.2850 -2.0128 0.9819
2.5747 -3.1951 -2.0128 0.9819
2.6870 -3.1010 -2.0127 0.9819
2.7959 -3.0030 -2.0126 0.9819
3.0026 -2.7955 -2.0124 0.9819
3.1938 -2.5738 -2.0120 0.9819
3.2833 -2.4579 -2.0118 0.9819
3.3685 -2.3388 -2.0116 0.9819
3.4494 -2.2168 -2.0113 0.9819
3.5258 -2.0919 -2.0110 0.9819
3.5976 -1.9645 -2.0107 0.9819
3.6648 -1.8345 -2.0103 0.9819
3.7273 -1.7022 -2.0099 0.9819
3.7849 -1.5678 -2.0095 0.9819
3.8854 -1.2932 -2.0087 0.9819
4.0482 -0.5821 -2.0062 0.9819
4.0652 -0.4371 -2.0056 0.9819
-0.9895 -0.0000 -0.5133 0.9956
-0.9893 -0.0353 -0.5135 0.9955
-0.9873 -0.0706 -0.5135 0.9955
-0.9838 -0.1058 -0.5133 0.9956
-0.9715 -0.1753 -0.5121 0.9956
-0.9628 -0.2095 -0.5112 0.9956
-0.9486 -0.5180 -0.5607 0.9951
-3.1527 -2.1890 -1.9911 0.9829
-2.9907 -2.4101 -1.9926 0.9828
-2.9038 -2.5162 -1.9933 0.9828
-2.8131 -2.6191 -1.9940 0.9828
-2.7188 -2.7188 -1.9947 0.9828
-2.6210 -2.8152 -1.9954 0.9828
-2.3075 -3.0824 -1.9975 0.9828
-1.8478 -3.3839 -2.0002 0.9828
-1.7264 -3.4488 -2.0008 0.9828
-1.3491 -3.6170 -2.0027 0.9828
-1.2195 -3.6639 -2.0033 0.9827
-0.8215 -3.7765 -2.0050 0.9827
-0.6864 -3.8044 -2.0055 0.9827
-0.4134 -3.8456 -2.0065 0.9827
-0.2760 -3.8588 -2.0070 0.9827
-0.1381 -3.8670 -2.0074 0.9827
-0.0000 -3.8703 -2.0078 0.9827
0.2762 -3.8620 -2.0086 0.9827
0.4140 -3.8504 -2.0090 0.9827
0.5512 -3.8338 -2.0094 0.9827
0.9583 -3.7546 -2.0103 0.9827
1.0918 -3.7185 -2.0105 0.9827
1.3546 -3.6319 -2.0109 0.9827
1.6105 -3.5266 -2.0113 0.9827
1.8582 -3.4031 -2.0115 0.9827
2.2115 -3.1852 -2.0116 0.9827
2.3238 -3.1042 -2.0116 0.9827
2.6421 -2.8378 -2.0115 0.9827
3.1833 -2.2102 -2.0104 0.9827
3.3999 -1.8565 -2.0096 0.9827
3.5225 -1.6087 -2.0089 0.9827
3.6268 -1.3528 -2.0081 0.9827
3.6721 -1.2222 -2.0077 0.9827
3.7125 -1.0901 -2.0073 0.9827
3.7482 -0.9567 -2.0068 0.9827
3.8051 -0.6865 -2.0059 0.9827
3.8599 -0.1379 -2.0037 0.9827
-0.9161 -0.0655 -0.5030 0.9958
-0.9011 -0.1626 -0.5015 0.9958
-0.8931 -0.1943 -0.5006 0.9958
-0.8837 -0.2255 -0.4995 0.9958
-0.8727 -0.2563 -0.4982 0.9959
-0.8603 -0.2864 -0.4966 0.9959
-0.8479 -0.3512 -0.5027 0.9958
-0.8506 -0.3885 -0.5122 0.9957
-0.8507 -0.4645 -0.5309 0.9956
-3.0573 -1.9648 -1.9905 0.9836
-2.9862 -2.0734 -1.9912 0.9836
-2.8326 -2.2827 -1.9925 0.9835
-2.7503 -2.3832 -1.9932 0.9835
-2.6644 -2.4806 -1.9939 0.9835
-2.5750 -2.5750 -1.9945 0.9835
-2.2873 -2.8384 -1.9965 0.9835
-2.1852 -2.9192 -1.9972 0.9835
-1.8625 -3.1390 -1.9991 0.9835
-1.7498 -3.2045 -1.9997 0.9835
-1.5176 -3.3232 -2.0009 0.9835
-0.9048 -3.5448 -2.0037 0.9835
-0.7778 -3.5757 -2.0042 0.9834
-0.6499 -3.6021 -2.0047 0.9834
-0.2613 -3.6535 -2.0061 0.9834
-0.1308 -3.6613 -2.0066 0.9834
0.0000 -3.6644 -2.0070 0.9834
0.3919 -3.6454 -2.0081 0.9834
0.5219 -3.6297 -2.0084 0.9834
0.9073 -3.5546 -2.0093 0.9834
1.2824 -3.4383 -2.0099 0.9834
1.4044 -3.3906 -2.0101 0.9834
1.5247 -3.3386 -2.0102 0.9834
1.7592 -3.2217 -2.0104 0.9834
1.8731 -3.1569 -2.0105 0.9834
2.0936 -3.0154 -2.0106 0.9834
2.3033 -2.8583 -2.0105 0.9834
2.4038 -2.7742 -2.0105 0.9834
2.5012 -2.6865 -2.0104 0.9834
2.8573 -2.3026 -2.0099 0.9834
3.0860 -1.9833 -2.0092 0.9834
3.1544 -1.8717 -2.0089 0.9834
3.2188 -1.7576 -2.0086 0.9834
3.2790 -1.6413 -2.0083 0.9834
3.5150 -1.0321 -2.0064 0.9834
3.5488 -0.9058 -2.0060 0.9834
3.5781 -0.7784 -2.0056 0.9834
3.6227 -0.5209 -2.0046 0.9834
3.6381 -0.3911 -2.0041 0.9835
3.6548 -0.1306 -2.0030 0.9835
-0.8531 -0.0610 -0.4938 0.9961
-0.8393 -0.1514 -0.4924 0.9961
-0.8318 -0.1810 -0.4915 0.9961
-0.8128 -0.2387 -0.4891 0.9961
-0.7887 -0.2942 -0.4860 0.9961
-0.7809 -0.3567 -0.4957 0.9960
-0.7806 -0.3908 -0.5040 0.9960
-0.7787 -0.4252 -0.5122 0.9959
-0.7696 -0.4946 -0.5282 0.9958
-0.7634 -0.5300 -0.5366 0.9957
-2.7618 -2.0675 -1.9918 0.9842
-2.6090 -2.2607 -1.9931 0.9842
-2.5274 -2.3531 -1.9937 0.9842
-2.4426 -2.4426 -1.9944 0.9842
-2.2635 -2.6123 -1.9956 0.9842
-2.1696 -2.6923 -1.9963 0.9842
-1.9732 -2.8419 -1.9975 0.9841
-1.8711 -2.9114 -1.9981 0.9841
-1.7665 -2.9772 -1.9987 0.9841
-1.6596 -3.0393 -1.9993 0.9841
-1.4394 -3.1518 -2.0004 0.9841
-1.3263 -3.2020 -2.0010 0.9841
-1.2115 -3.2482 -2.0015 0.9841
-0.7377 -3.3910 -2.0036 0.9841
-0.4941 -3.4366 -2.0045 0.9841
-0.3712 -3.4528 -2.0049 0.9841
-0.2478 -3.4646 -2.0054 0.9841
-0.1240 -3.4719 -2.0058 0.9841
-0.0000 -3.4748 -2.0062 0.9841
0.3716 -3.4567 -2.0072 0.9841
0.4948 -3.4418 -2.0075 0.9841
0.8603 -3.3705 -2.0083 0.9841
0.9801 -3.3380 -2.0086 0.9841
1.0987 -3.3012 -2.0088 0.9841
1.2160 -3.2602 -2.0089 0.9841
1.4457 -3.1656 -2.0092 0.9841
1.5578 -3.1122 -2.0094 0.9841
1.6680 -3.0547 -2.0094 0.9841
1.7760 -2.9933 -2.0095 0.9841
2.0859 -2.7865 -2.0096 0.9841
2.1840 -2.7102 -2.0095 0.9841
2.2793 -2.6304 -2.0095 0.9841
2.5470 -2.3714 -2.0092 0.9841
2.6299 -2.2788 -2.0091 0.9841
2.7093 -2.1833 -2.0089 0.9841
2.8576 -1.9841 -2.0085 0.9841
2.9911 -1.7747 -2.0080 0.9841
3.0521 -1.6666 -2.0077 0.9841
3.1092 -1.5564 -2.0074 0.9841
3.1623 -1.4442 -2.0071 0.9841
3.2113 -1.3302 -2.0068 0.9841
3.2561 -1.2145 -2.0064 0.9841
3.3332 -0.9787 -2.0057 0.9841
3.3653 -0.8590 -2.0053 0.9841
3.4165 -0.6164 -2.0044 0.9841
3.4502 -0.3709 -2.0034 0.9841
3.4604 -0.2475 -2.0029 0.9841
