ply
format ascii 1.0
element vertex 723
property float32 x
property float32 y
property float32 z
property float32 I
end_header
-9.2483 0.0000 -1.9549 0.9629
-9.2480 -0.3303 -1.9561 0.9629
-9.1774 -1.3195 -1.9599 0.9628
-9.0725 -1.9736 -1.9626 0.9628
-9.0028 -2.2978 -1.9640 0.9627
-8.9217 -2.6196 -1.9655 0.9627
-8.8292 -2.9387 -1.9670 0.9627
-8.6106 -3.5666 -1.9701 0.9626
-8.4846 -3.8748 -1.9717 0.9626
-8.2001 -4.4776 -1.9749 0.9625
-7.5050 -5.6182 -1.9817 0.9624
-6.8796 -6.4052 -1.9869 0.9623
-6.6525 -6.6525 -1.9887 0.9623
-6.4166 -6.8919 -1.9905 0.9622
-5.9191 -7.3451 -1.9940 0.9622
-4.2449 -8.4802 -2.0046 0.9620
-3.9429 -8.6338 -2.0063 0.9619
-3.0050 -9.0286 -2.0114 0.9618
-2.3571 -9.2349 -2.0147 0.9618
-2.0275 -9.3205 -2.0162 0.9618
-1.3595 -9.4559 -2.0193 0.9617
-1.0219 -9.5054 -2.0208 0.9617
-0.3417 -9.5677 -2.0237 0.9616
0.3422 -9.5806 -2.0264 0.9616
0.6843 -9.5684 -2.0277 0.9615
1.3669 -9.5066 -2.0302 0.9615
2.0438 -9.3953 -2.0324 0.9615
2.3791 -9.3212 -2.0335 0.9614
2.7116 -9.2348 -2.0345 0.9614
3.6880 -8.9036 -2.0371 0.9614
4.0049 -8.7696 -2.0379 0.9614
4.3169 -8.6240 -2.0386 0.9613
4.9241 -8.2991 -2.0398 0.9613
5.2185 -8.1201 -2.0403 0.9613
5.7868 -7.7303 -2.0411 0.9613
6.0600 -7.5200 -2.0415 0.9613
6.3253 -7.2998 -2.0417 0.9613
6.5825 -7.0700 -2.0419 0.9613
6.8310 -6.8310 -2.0420 0.9613
7.5220 -6.0616 -2.0420 0.9613
7.9339 -5.5086 -2.0417 0.9613
8.1243 -5.2212 -2.0414 0.9613
8.3041 -4.9270 -2.0410 0.9613
8.6307 -4.3202 -2.0402 0.9613
8.9120 -3.6915 -2.0390 0.9613
9.0351 -3.3699 -2.0384 0.9613
9.3328 -2.3821 -2.0360 0.9614
9.4704 -1.7086 -2.0342 0.9614
9.5584 -1.0276 -2.0321 0.9615
-8.3332 0.0000 -1.9585 0.9663
-8.3324 -0.2976 -1.9595 0.9663
-8.3211 -0.5951 -1.9606 0.9663
-8.2672 -1.1886 -1.9630 0.9663
-8.1716 -1.7776 -1.9654 0.9662
-8.1083 -2.0695 -1.9667 0.9662
-8.0346 -2.3592 -1.9680 0.9662
-7.9507 -2.6463 -1.9694 0.9662
-7.6386 -3.4884 -1.9736 0.9661
-7.2381 -4.2946 -1.9780 0.9660
-6.7532 -5.0554 -1.9826 0.9659
-6.5737 -5.2974 -1.9842 0.9659
-5.9840 -5.9840 -1.9889 0.9658
-5.3229 -6.6052 -1.9937 0.9657
-4.8458 -6.9793 -1.9969 0.9657
-4.3425 -7.3188 -2.0001 0.9656
-4.0817 -7.4751 -2.0017 0.9656
-3.8153 -7.6219 -2.0032 0.9656
-1.8212 -8.3722 -2.0137 0.9654
-1.2210 -8.4925 -2.0165 0.9654
-0.6129 -8.5692 -2.0191 0.9653
0.3072 -8.6014 -2.0228 0.9653
1.5315 -8.4885 -2.0272 0.9652
2.4335 -8.2876 -2.0300 0.9651
2.7289 -8.1989 -2.0309 0.9651
3.0209 -8.0994 -2.0316 0.9651
3.3093 -7.9893 -2.0324 0.9651
3.5936 -7.8688 -2.0331 0.9651
4.1482 -7.5969 -2.0343 0.9651
4.4178 -7.4459 -2.0348 0.9651
4.9398 -7.1147 -2.0357 0.9650
5.1915 -6.9351 -2.0360 0.9650
6.3430 -5.9056 -2.0368 0.9650
6.9372 -5.1932 -2.0366 0.9650
7.1175 -4.9418 -2.0364 0.9650
7.2885 -4.6840 -2.0362 0.9650
7.4499 -4.4202 -2.0359 0.9650
7.6016 -4.1508 -2.0355 0.9650
7.7433 -3.8760 -2.0351 0.9650
7.9961 -3.3121 -2.0341 0.9651
8.2964 -2.4360 -2.0322 0.9651
-7.5756 0.0000 -1.9615 0.9692
-7.5437 -0.8110 -1.9645 0.9691
-7.5140 -1.0803 -1.9655 0.9691
-7.3683 -1.8806 -1.9689 0.9691
-7.2242 -2.4044 -1.9714 0.9690
-7.1383 -2.6625 -1.9726 0.9690
-6.9393 -3.1691 -1.9752 0.9690
-6.8263 -3.4170 -1.9765 0.9690
-6.1324 -4.5907 -1.9834 0.9688
-5.9689 -4.8101 -1.9848 0.9688
-5.6187 -5.2312 -1.9877 0.9688
-5.4323 -5.4323 -1.9891 0.9688
-3.9401 -6.6406 -1.9992 0.9686
-3.7032 -6.7819 -2.0007 0.9686
-3.4612 -6.9146 -2.0021 0.9686
-3.2145 -7.0387 -2.0035 0.9685
-2.9632 -7.1539 -2.0049 0.9685
-2.7079 -7.2601 -2.0063 0.9685
-2.1860 -7.4448 -2.0090 0.9684
-1.9201 -7.5230 -2.0103 0.9684
-1.6514 -7.5916 -2.0116 0.9684
-1.1070 -7.6997 -2.0141 0.9684
-0.8320 -7.7390 -2.0153 0.9684
-0.5556 -7.7683 -2.0165 0.9683
0.2784 -7.7961 -2.0198 0.9683
0.5568 -7.7853 -2.0209 0.9683
0.8348 -7.7643 -2.0219 0.9682
1.1119 -7.7333 -2.0229 0.9682
1.3878 -7.6923 -2.0238 0.9682
1.6622 -7.6412 -2.0247 0.9682
1.9347 -7.5801 -2.0256 0.9682
2.4725 -7.4285 -2.0271 0.9682
2.7370 -7.3381 -2.0278 0.9682
3.5089 -7.0099 -2.0297 0.9681
4.4747 -6.4448 -2.0315 0.9681
5.1400 -5.9318 -2.0322 0.9681
5.3488 -5.7450 -2.0324 0.9681
5.9327 -5.1407 -2.0325 0.9681
6.4471 -4.4763 -2.0322 0.9681
6.7484 -4.0040 -2.0317 0.9681
6.8859 -3.7600 -2.0313 0.9681
7.0143 -3.5111 -2.0310 0.9681
7.1337 -3.2578 -2.0305 0.9681
7.2437 -3.0004 -2.0300 0.9681
7.4352 -2.4747 -2.0289 0.9681
7.5879 -1.9367 -2.0276 0.9682
7.7010 -1.3894 -2.0261 0.9682
7.7425 -1.1132 -2.0253 0.9682
7.7740 -0.8358 -2.0244 0.9682
7.7954 -0.5575 -2.0235 0.9682
-6.9074 -0.7426 -1.9667 0.9715
-6.8437 -1.2347 -1.9687 0.9715
-6.7454 -1.7217 -1.9708 0.9715
-6.6129 -2.2010 -1.9730 0.9714
-6.5339 -2.4370 -1.9742 0.9714
-6.4466 -2.6703 -1.9753 0.9714
-6.3510 -2.9004 -1.9765 0.9714
-6.2472 -3.1271 -1.9778 0.9714
-6.1355 -3.3502 -1.9790 0.9714
-5.8883 -3.7842 -1.9815 0.9713
-5.7532 -3.9945 -1.9828 0.9713
-5.4607 -4.4005 -1.9853 0.9713
-5.3036 -4.5956 -1.9867 0.9712
-5.1396 -4.7851 -1.9880 0.9712
-4.0210 -5.7913 -1.9959 0.9711
-3.3856 -6.2002 -1.9999 0.9711
-2.4750 -6.6358 -2.0050 0.9710
-1.9978 -6.8038 -2.0074 0.9710
-1.7547 -6.8749 -2.0086 0.9709
-1.2613 -6.9907 -2.0110 0.9709
-1.0115 -7.0352 -2.0121 0.9709
-0.2541 -7.1145 -2.0153 0.9708
0.5086 -7.1113 -2.0183 0.9708
1.0156 -7.0633 -2.0201 0.9708
1.2675 -7.0255 -2.0210 0.9708
1.5181 -6.9786 -2.0218 0.9707
1.7669 -6.9226 -2.0226 0.9707
2.4993 -6.7009 -2.0246 0.9707
3.2040 -6.4007 -2.0263 0.9707
3.6540 -6.1586 -2.0272 0.9707
4.0855 -5.8842 -2.0279 0.9707
4.2935 -5.7355 -2.0282 0.9707
4.6928 -5.4157 -2.0287 0.9706
5.8862 -4.0868 -2.0286 0.9706
6.1613 -3.6557 -2.0281 0.9707
6.6141 -2.7396 -2.0267 0.9707
6.7060 -2.5012 -2.0262 0.9707
6.8636 -2.0153 -2.0251 0.9707
6.9854 -1.5196 -2.0238 0.9707
7.0710 -1.0167 -2.0223 0.9707
7.1000 -0.7633 -2.0215 0.9708
7.1198 -0.5092 -2.0207 0.9708
7.1304 -0.2547 -2.0199 0.9708
-6.3907 -0.2283 -1.9669 0.9736
-6.3812 -0.4564 -1.9677 0.9736
-6.3381 -0.9113 -1.9695 0.9736
-6.3046 -1.1375 -1.9705 0.9735
-6.2135 -1.5859 -1.9724 0.9735
-6.1561 -1.8076 -1.9734 0.9735
-6.0178 -2.2445 -1.9755 0.9735
-5.7530 -2.8797 -1.9788 0.9734
-5.6498 -3.0850 -1.9799 0.9734
-5.5393 -3.2866 -1.9811 0.9734
-5.2969 -3.6777 -1.9834 0.9734
-4.8823 -4.2305 -1.9870 0.9733
-4.4101 -4.7368 -1.9906 0.9733
-4.2409 -4.8942 -1.9919 0.9733
-4.0660 -5.0456 -1.9931 0.9732
-3.8857 -5.1906 -1.9943 0.9732
-3.7002 -5.3293 -1.9955 0.9732
-3.5097 -5.4612 -1.9967 0.9732
-3.1150 -5.7046 -1.9992 0.9732
-2.7032 -5.9193 -2.0015 0.9731
-2.2767 -6.1042 -2.0038 0.9731
-1.8375 -6.2581 -2.0061 0.9731
-1.6139 -6.3232 -2.0072 0.9731
-1.3879 -6.3802 -2.0083 0.9730
-0.4667 -6.5261 -2.0124 0.9730
-0.2336 -6.5417 -2.0134 0.9730
0.2339 -6.5478 -2.0152 0.9730
0.7010 -6.5200 -2.0170 0.9729
0.9336 -6.4934 -2.0178 0.9729
1.6242 -6.3635 -2.0200 0.9729
1.8509 -6.3036 -2.0207 0.9729
2.0754 -6.2354 -2.0213 0.9729
2.5163 -6.0750 -2.0225 0.9729
2.9447 -5.8829 -2.0235 0.9728
3.5588 -5.5376 -2.0247 0.9728
4.1319 -5.1274 -2.0254 0.9728
4.3127 -4.9771 -2.0256 0.9728
4.4879 -4.8203 -2.0257 0.9728
4.6573 -4.6572 -2.0258 0.9728
4.8206 -4.4881 -2.0259 0.9728
4.9777 -4.3132 -2.0259 0.9728
5.1283 -4.1327 -2.0258 0.9728
5.4095 -3.7559 -2.0256 0.9728
5.5396 -3.5601 -2.0254 0.9728
5.6625 -3.3597 -2.0251 0.9728
5.7780 -3.1550 -2.0249 0.9728
5.8860 -2.9463 -2.0245 0.9728
6.0789 -2.5180 -2.0238 0.9728
6.2401 -2.0769 -2.0228 0.9729
6.3086 -1.8524 -2.0223 0.9729
6.3689 -1.6256 -2.0217 0.9729
6.4647 -1.1663 -2.0205 0.9729
6.5268 -0.7017 -2.0191 0.9729
-5.9202 0.0000 -1.9679 0.9754
-5.9187 -0.2114 -1.9687 0.9753
-5.9098 -0.4227 -1.9695 0.9753
-5.8934 -0.6336 -1.9703 0.9753
-5.7995 -1.2616 -1.9729 0.9753
-5.7534 -1.4685 -1.9738 0.9753
-5.4147 -2.4728 -1.9787 0.9752
-5.3258 -2.6659 -1.9797 0.9752
-5.2300 -2.8558 -1.9808 0.9752
-5.0183 -3.2251 -1.9829 0.9752
-4.7808 -3.5788 -1.9851 0.9751
-4.5183 -3.9151 -1.9873 0.9751
-4.0808 -4.3831 -1.9907 0.9751
-3.7620 -4.6683 -1.9929 0.9750
-3.0662 -5.1678 -1.9974 0.9750
-2.5004 -5.4750 -2.0007 0.9749
-2.1057 -5.6455 -2.0029 0.9749
-1.9038 -5.7201 -2.0039 0.9749
-1.6993 -5.7874 -2.0050 0.9749
-1.4924 -5.8473 -2.0060 0.9749
-0.4315 -6.0338 -2.0108 0.9748
-0.2160 -6.0481 -2.0117 0.9748
0.0000 -6.0546 -2.0126 0.9748
0.2162 -6.0532 -2.0134 0.9748
0.4323 -6.0441 -2.0142 0.9748
0.6480 -6.0272 -2.0150 0.9748
0.8630 -6.0024 -2.0158 0.9748
1.2899 -5.9297 -2.0172 0.9747
1.7108 -5.8263 -2.0185 0.9747
1.9182 -5.7632 -2.0190 0.9747
2.1232 -5.6926 -2.0196 0.9747
2.3257 -5.6146 -2.0201 0.9747
3.2888 -5.1175 -2.0221 0.9747
3.4699 -4.9976 -2.0224 0.9747
3.6465 -4.8712 -2.0226 0.9747
3.8184 -4.7383 -2.0228 0.9747
3.9854 -4.5994 -2.0230 0.9747
4.1473 -4.4545 -2.0231 0.9747
4.7392 -3.8190 -2.0232 0.9747
4.8722 -3.6473 -2.0231 0.9747
4.9990 -3.4708 -2.0229 0.9747
5.3397 -2.9157 -2.0223 0.9747
5.5324 -2.5265 -2.0217 0.9747
5.6963 -2.1246 -2.0209 0.9747
5.7672 -1.9195 -2.0204 0.9747
5.9347 -1.2910 -2.0189 0.9747
5.9752 -1.0780 -2.0183 0.9747
6.0080 -0.8638 -2.0176 0.9747
6.0330 -0.6486 -2.0170 0.9747
6.0502 -0.4327 -2.0163 0.9748
6.0596 -0.2164 -2.0155 0.9748
-5.5075 0.0000 -1.9695 0.9769
-5.4975 -0.3932 -1.9710 0.9769
-5.4821 -0.5894 -1.9717 0.9768
-5.4597 -0.7850 -1.9725 0.9768
-5.3943 -1.1734 -1.9741 0.9768
-5.3513 -1.3658 -1.9750 0.9768
-5.2449 -1.7457 -1.9768 0.9768
-5.1816 -1.9326 -1.9777 0.9768
-5.1117 -2.1173 -1.9786 0.9768
-4.7677 -2.8288 -1.9825 0.9767
-4.6660 -2.9987 -1.9835 0.9767
-4.3254 -3.4856 -1.9865 0.9767
-4.0700 -3.7893 -1.9886 0.9767
-3.9342 -3.9342 -1.9897 0.9766
-3.7933 -4.0743 -1.9907 0.9766
-2.8495 -4.8026 -1.9970 0.9766
-2.6776 -4.9037 -1.9980 0.9765
-2.5022 -4.9988 -1.9990 0.9765
-1.5788 -5.3769 -2.0040 0.9765
-1.3865 -5.4324 -2.0049 0.9765
-1.1923 -5.4810 -2.0059 0.9765
-0.7990 -5.5571 -2.0077 0.9764
-0.6004 -5.5845 -2.0086 0.9764
-0.4009 -5.6047 -2.0094 0.9764
-0.2006 -5.6178 -2.0102 0.9764
0.0000 -5.6236 -2.0110 0.9764
0.2008 -5.6222 -2.0118 0.9764
0.4015 -5.6136 -2.0126 0.9764
0.6018 -5.5977 -2.0133 0.9764
0.8015 -5.5745 -2.0140 0.9764
1.0003 -5.5442 -2.0147 0.9764
1.3941 -5.4621 -2.0159 0.9763
1.5886 -5.4105 -2.0165 0.9763
1.7812 -5.3517 -2.0170 0.9763
1.9716 -5.2861 -2.0176 0.9763
2.3448 -5.1343 -2.0185 0.9763
2.7061 -4.9559 -2.0193 0.9763
3.3857 -4.5228 -2.0204 0.9763
3.7004 -4.2705 -2.0207 0.9763
3.8507 -4.1359 -2.0208 0.9763
3.9960 -3.9960 -2.0209 0.9763
4.4002 -3.5459 -2.0209 0.9763
4.5237 -3.3864 -2.0208 0.9763
4.6414 -3.2226 -2.0207 0.9763
4.7531 -3.0547 -2.0205 0.9763
4.8587 -2.8828 -2.0203 0.9763
5.0507 -2.5282 -2.0198 0.9763
5.1369 -2.3460 -2.0195 0.9763
5.2165 -2.1607 -2.0191 0.9763
5.3552 -1.7824 -2.0183 0.9763
5.4142 -1.5897 -2.0179 0.9763
5.4661 -1.3951 -2.0174 0.9763
5.5488 -1.0011 -2.0163 0.9763
5.5794 -0.8022 -2.0157 0.9763
5.6188 -0.4019 -2.0145 0.9764
-5.1416 -0.1836 -1.9716 0.9782
-5.1190 -0.5503 -1.9730 0.9782
-5.0980 -0.7330 -1.9737 0.9782
-5.0705 -0.9148 -1.9745 0.9782
-4.9497 -1.4533 -1.9769 0.9781
-4.8967 -1.6298 -1.9777 0.9781
-4.8375 -1.8043 -1.9786 0.9781
-4.7721 -1.9767 -1.9794 0.9781
-4.5396 -2.4788 -1.9821 0.9781
-4.4503 -2.6405 -1.9830 0.9781
-4.3553 -2.7990 -1.9840 0.9781
-4.1485 -3.1055 -1.9859 0.9780
-3.2628 -4.0488 -1.9927 0.9780
-2.9685 -4.2755 -1.9946 0.9780
-2.3343 -4.6635 -1.9985 0.9779
-2.1674 -4.7460 -1.9995 0.9779
-1.9976 -4.8226 -2.0004 0.9779
-1.8250 -4.8931 -2.0013 0.9779
-1.6500 -4.9574 -2.0022 0.9779
-1.4726 -5.0154 -2.0031 0.9779
-1.2933 -5.0670 -2.0040 0.9778
-1.1121 -5.1121 -2.0049 0.9778
-0.9293 -5.1508 -2.0057 0.9778
-0.1871 -5.2390 -2.0089 0.9778
0.0000 -5.2442 -2.0097 0.9778
0.3744 -5.2346 -2.0111 0.9778
0.5612 -5.2197 -2.0118 0.9778
1.6607 -4.9897 -2.0153 0.9777
1.8382 -4.9284 -2.0158 0.9777
2.0134 -4.8608 -2.0162 0.9777
2.1861 -4.7868 -2.0166 0.9777
2.5229 -4.6203 -2.0173 0.9777
3.1564 -4.2164 -2.0184 0.9777
3.4496 -3.9811 -2.0187 0.9777
4.2172 -3.1569 -2.0188 0.9777
4.3269 -3.0042 -2.0187 0.9777
4.7086 -2.3569 -2.0179 0.9777
4.8633 -2.0144 -2.0172 0.9777
4.9927 -1.6617 -2.0165 0.9777
5.0963 -1.3008 -2.0156 0.9777
5.1383 -1.1178 -2.0151 0.9777
5.1736 -0.9334 -2.0146 0.9777
5.2022 -0.7480 -2.0141 0.9777
5.2241 -0.5617 -2.0135 0.9777
5.2392 -0.3747 -2.0129 0.9778
5.2476 -0.1874 -2.0123 0.9778
-4.8096 -0.3440 -1.9735 0.9794
-4.7959 -0.5156 -1.9742 0.9794
-4.7761 -0.6867 -1.9748 0.9794
-4.6805 -1.1946 -1.9770 0.9793
-4.6366 -1.3614 -1.9778 0.9793
-4.5869 -1.5267 -1.9786 0.9793
-4.4028 -2.0107 -1.9810 0.9793
-4.2518 -2.3217 -1.9827 0.9793
-4.1681 -2.4730 -1.9836 0.9793
-4.0789 -2.6214 -1.9844 0.9793
-3.9845 -2.7665 -1.9853 0.9793
-3.8850 -2.9083 -1.9862 0.9792
-3.7804 -3.0465 -1.9871 0.9792
-3.5567 -3.3114 -1.9889 0.9792
-3.3145 -3.5600 -1.9908 0.9792
-3.1868 -3.6777 -1.9917 0.9792
-2.9190 -3.8993 -1.9935 0.9792
-2.7792 -4.0028 -1.9944 0.9792
-2.6358 -4.1014 -1.9953 0.9791
-2.3386 -4.2828 -1.9971 0.9791
-2.1852 -4.3655 -1.9980 0.9791
-1.7083 -4.5801 -2.0007 0.9791
-1.5444 -4.6401 -2.0015 0.9791
-1.3784 -4.6942 -2.0024 0.9791
-1.2104 -4.7424 -2.0032 0.9791
-1.0408 -4.7845 -2.0040 0.9791
-0.8697 -4.8206 -2.0048 0.9791
-0.6974 -4.8504 -2.0056 0.9790
-0.5240 -4.8741 -2.0063 0.9790
-0.1751 -4.9026 -2.0078 0.9790
0.0000 -4.9075 -2.0085 0.9790
0.3503 -4.8982 -2.0098 0.9790
0.5251 -4.8841 -2.0105 0.9790
1.0451 -4.8042 -2.0122 0.9790
1.3859 -4.7198 -2.0133 0.9790
1.5538 -4.6684 -2.0137 0.9790
1.7198 -4.6110 -2.0142 0.9790
2.0452 -4.4783 -2.0150 0.9789
2.2041 -4.4033 -2.0153 0.9789
2.3603 -4.3225 -2.0156 0.9789
2.5134 -4.2361 -2.0159 0.9789
3.2272 -3.7243 -2.0169 0.9789
3.7247 -3.2275 -2.0171 0.9789
3.8374 -3.0924 -2.0171 0.9789
3.9452 -2.9533 -2.0170 0.9789
4.0479 -2.8105 -2.0169 0.9789
4.4050 -2.2050 -2.0161 0.9789
4.4803 -2.0461 -2.0159 0.9789
4.5498 -1.8846 -2.0156 0.9789
4.6711 -1.5547 -2.0149 0.9789
4.7227 -1.3867 -2.0145 0.9790
4.7681 -1.2170 -2.0140 0.9790
4.8074 -1.0458 -2.0136 0.9790
4.8406 -0.8733 -2.0131 0.9790
4.8880 -0.5255 -2.0120 0.9790
4.9022 -0.3506 -2.0115 0.9790
-1.4601 -0.0000 -0.6363 0.9936
-1.4490 -0.1036 -0.6331 0.9937
-1.4180 -0.2039 -0.6244 0.9938
-1.3955 -0.2518 -0.6180 0.9938
-1.5118 -0.5639 -0.7032 0.9930
-4.1360 -1.8888 -1.9816 0.9804
-3.9939 -2.1808 -1.9832 0.9803
-3.8313 -2.4622 -1.9848 0.9803
-3.6490 -2.7316 -1.9865 0.9803
-3.5506 -2.8613 -1.9873 0.9803
-3.3403 -3.1100 -1.9891 0.9803
-3.2286 -3.2286 -1.9899 0.9803
-2.8687 -3.5598 -1.9925 0.9802
-2.7410 -3.6616 -1.9934 0.9802
-2.6097 -3.7587 -1.9942 0.9802
-2.4749 -3.8511 -1.9951 0.9802
-2.1958 -4.0212 -1.9968 0.9802
-2.0517 -4.0988 -1.9976 0.9802
-1.4498 -4.3561 -2.0009 0.9802
-0.3284 -4.5914 -2.0061 0.9801
-0.1643 -4.6017 -2.0068 0.9801
0.0000 -4.6061 -2.0074 0.9801
0.1645 -4.6046 -2.0081 0.9801
0.3288 -4.5973 -2.0087 0.9801
0.4928 -4.5839 -2.0093 0.9801
0.6563 -4.5647 -2.0098 0.9801
1.6140 -4.3271 -2.0127 0.9801
2.0684 -4.1320 -2.0138 0.9800
2.6367 -3.7976 -2.0149 0.9800
2.7709 -3.7014 -2.0150 0.9800
3.2701 -3.2701 -2.0155 0.9800
3.3847 -3.1513 -2.0155 0.9800
3.4951 -3.0285 -2.0155 0.9800
3.6009 -2.9017 -2.0155 0.9800
3.7984 -2.6373 -2.0153 0.9800
4.0576 -2.2156 -2.0148 0.9800
4.2043 -1.9200 -2.0143 0.9800
4.2695 -1.7685 -2.0140 0.9800
4.4319 -1.3013 -2.0130 0.9800
4.4746 -1.1421 -2.0126 0.9801
4.5680 -0.6568 -2.0113 0.9801
4.5873 -0.4932 -2.0108 0.9801
4.6084 -0.1646 -2.0097 0.9801
-1.2446 0.0000 -0.5761 0.9945
-1.2260 -0.1318 -0.5708 0.9946
-1.2124 -0.1743 -0.5670 0.9946
-1.1974 -0.2160 -0.5632 0.9947
-1.1790 -0.2565 -0.5585 0.9947
-1.1574 -0.2954 -0.5529 0.9947
-1.1329 -0.3327 -0.5466 0.9948
-1.1536 -0.3839 -0.5628 0.9947
-3.7612 -2.0538 -1.9837 0.9813
-3.6079 -2.3187 -1.9852 0.9813
-3.5243 -2.4469 -1.9860 0.9813
-3.3434 -2.6943 -1.9876 0.9813
-2.9307 -3.1477 -1.9908 0.9812
-2.7008 -3.3515 -1.9924 0.9812
-2.5805 -3.4472 -1.9932 0.9812
-2.3299 -3.6254 -1.9948 0.9812
-2.1999 -3.7078 -1.9956 0.9812
-2.0670 -3.7854 -1.9964 0.9812
-1.9313 -3.8583 -1.9972 0.9812
-1.2179 -4.1479 -2.0010 0.9811
-0.9196 -4.2272 -2.0025 0.9811
-0.6161 -4.2851 -2.0039 0.9811
-0.3090 -4.3209 -2.0052 0.9811
-0.1547 -4.3306 -2.0058 0.9811
0.0000 -4.3347 -2.0065 0.9811
0.1548 -4.3332 -2.0071 0.9811
0.6176 -4.2954 -2.0087 0.9811
0.7707 -4.2718 -2.0093 0.9810
0.9229 -4.2425 -2.0097 0.9810
1.2238 -4.1678 -2.0107 0.9810
1.5186 -4.0715 -2.0115 0.9810
1.6633 -4.0154 -2.0118 0.9810
1.8058 -3.9542 -2.0122 0.9810
2.2191 -3.7401 -2.0130 0.9810
2.6070 -3.4825 -2.0136 0.9810
2.7298 -3.3875 -2.0138 0.9810
2.9648 -3.1844 -2.0140 0.9810
3.2883 -2.8493 -2.0140 0.9810
3.4830 -2.6074 -2.0139 0.9810
3.5737 -2.4813 -2.0139 0.9810
3.9557 -1.8065 -2.0130 0.9810
4.0172 -1.6640 -2.0127 0.9810
4.0734 -1.5193 -2.0124 0.9810
4.2103 -1.0746 -2.0113 0.9810
4.2451 -0.9234 -2.0109 0.9810
4.2745 -0.7712 -2.0105 0.9810
-1.0803 -0.0386 -0.5302 0.9952
-1.0769 -0.0770 -0.5296 0.9952
-1.0705 -0.1151 -0.5281 0.9952
-1.0611 -0.1526 -0.5258 0.9952
-1.0307 -0.2631 -0.5218 0.9953
-1.0025 -0.3337 -0.5183 0.9953
-1.0444 -0.4769 -0.5632 0.9949
-1.0588 -0.5300 -0.5808 0.9947
-3.5500 -1.9385 -1.9841 0.9821
-3.4052 -2.1884 -1.9855 0.9821
-3.3262 -2.3094 -1.9863 0.9821
-3.2428 -2.4275 -1.9870 0.9821
-3.0637 -2.6547 -1.9885 0.9821
-2.8687 -2.8687 -1.9900 0.9821
-2.7656 -2.9704 -1.9908 0.9821
-2.6588 -3.0684 -1.9916 0.9821
-2.5486 -3.1626 -1.9923 0.9821
-2.4350 -3.2528 -1.9931 0.9821
-2.3182 -3.3389 -1.9939 0.9821
-2.0757 -3.4984 -1.9954 0.9820
-1.9502 -3.5716 -1.9961 0.9820
-1.8222 -3.6403 -1.9969 0.9820
-1.6917 -3.7044 -1.9976 0.9820
-1.5590 -3.7638 -1.9983 0.9820
-1.2874 -3.8682 -1.9998 0.9820
-0.7248 -4.0175 -2.0025 0.9820
-0.4367 -4.0616 -2.0038 0.9820
0.0000 -4.0887 -2.0056 0.9819
0.4374 -4.0686 -2.0072 0.9819
0.8705 -4.0014 -2.0087 0.9819
1.0129 -3.9686 -2.0091 0.9819
1.2940 -3.8879 -2.0099 0.9819
1.5686 -3.7870 -2.0107 0.9819
1.8354 -3.6666 -2.0113 0.9819
2.0928 -3.5272 -2.0118 0.9819
2.2176 -3.4506 -2.0120 0.9819
2.3395 -3.3696 -2.0122 0.9819
2.4585 -3.2842 -2.0123 0.9819
2.5743 -3.1945 -2.0125 0.9819
3.1010 -2.6870 -2.0127 0.9819
3.1949 -2.5746 -2.0127 0.9819
3.2847 -2.4589 -2.0126 0.9819
3.4514 -2.2181 -2.0124 0.9819
3.5281 -2.0933 -2.0123 0.9819
3.6003 -1.9659 -2.0121 0.9819
3.7885 -1.5692 -2.0115 0.9819
3.8416 -1.4328 -2.0112 0.9819
3.8897 -1.2946 -2.0109 0.9819
3.9328 -1.1548 -2.0105 0.9819
4.0037 -0.8709 -2.0098 0.9819
4.0314 -0.7273 -2.0094 0.9819
4.0712 -0.4377 -2.0085 0.9819
-0.9895 0.0000 -0.5133 0.9956
-0.9893 -0.0353 -0.5135 0.9955
-0.9838 -0.1058 -0.5133 0.9956
-0.9524 -0.2431 -0.5099 0.9956
-0.9208 -0.3434 -0.5098 0.9956
-0.9271 -0.3840 -0.5206 0.9955
-3.2909 -1.9526 -1.9851 0.9829
-3.2202 -2.0695 -1.9858 0.9829
-3.0665 -2.2956 -1.9872 0.9829
-2.8970 -2.5103 -1.9887 0.9829
-2.8066 -2.6131 -1.9894 0.9829
-2.7125 -2.7125 -1.9901 0.9829
-2.6149 -2.8086 -1.9908 0.9829
-2.5140 -2.9012 -1.9915 0.9828
-2.4097 -2.9902 -1.9923 0.9828
-2.3022 -3.0754 -1.9930 0.9828
-2.1918 -3.1568 -1.9937 0.9828
-2.0785 -3.2342 -1.9944 0.9828
-1.9624 -3.3075 -1.9951 0.9828
-1.5993 -3.5020 -1.9973 0.9828
-1.3463 -3.6096 -1.9986 0.9828
-1.2170 -3.6566 -1.9993 0.9828
-1.0861 -3.6990 -2.0000 0.9828
-0.8200 -3.7694 -2.0013 0.9828
-0.6851 -3.7975 -2.0019 0.9828
-0.4127 -3.8390 -2.0031 0.9828
-0.2755 -3.8525 -2.0037 0.9827
-0.1379 -3.8609 -2.0042 0.9827
0.2758 -3.8566 -2.0058 0.9827
0.4134 -3.8453 -2.0063 0.9827
0.6870 -3.8077 -2.0073 0.9827
1.2229 -3.6742 -2.0089 0.9827
1.7344 -3.4649 -2.0102 0.9827
1.9777 -3.3332 -2.0106 0.9827
2.0956 -3.2608 -2.0108 0.9827
2.3233 -3.1035 -2.0112 0.9827
2.5390 -2.9302 -2.0114 0.9827
2.7417 -2.7417 -2.0115 0.9827
2.8379 -2.6422 -2.0115 0.9827
3.1039 -2.3236 -2.0115 0.9827
3.2615 -2.0960 -2.0113 0.9827
3.5254 -1.6100 -2.0106 0.9827
3.5801 -1.4829 -2.0103 0.9827
3.6303 -1.3540 -2.0101 0.9827
3.6758 -1.2234 -2.0098 0.9827
3.7166 -1.0913 -2.0095 0.9827
3.7525 -0.9578 -2.0091 0.9827
3.8099 -0.6874 -2.0084 0.9827
3.8312 -0.5508 -2.0080 0.9827
3.8477 -0.4137 -2.0076 0.9827
-0.9127 -0.0981 -0.5028 0.9958
-0.9077 -0.1305 -0.5022 0.9958
-0.9011 -0.1626 -0.5015 0.9958
-0.8727 -0.2563 -0.4982 0.9959
-0.8603 -0.2863 -0.4966 0.9959
-0.8465 -0.3157 -0.4948 0.9959
-0.8479 -0.3512 -0.5027 0.9958
-0.8506 -0.3884 -0.5122 0.9957
-0.8515 -0.4262 -0.5216 0.9957
-0.8507 -0.4645 -0.5309 0.9956
-0.8524 -0.5057 -0.5428 0.9955
-3.0506 -1.9605 -1.9861 0.9836
-2.9796 -2.0688 -1.9868 0.9836
-2.9049 -2.1746 -1.9874 0.9836
-2.8264 -2.2776 -1.9881 0.9836
-2.7442 -2.3779 -1.9888 0.9836
-2.6585 -2.4752 -1.9895 0.9836
-2.5694 -2.5693 -1.9901 0.9836
-1.8586 -3.1325 -1.9949 0.9835
-1.3957 -3.3696 -1.9976 0.9835
-1.2750 -3.4183 -1.9982 0.9835
-1.0285 -3.5028 -1.9995 0.9835
-0.5202 -3.6178 -2.0019 0.9835
-0.3908 -3.6351 -2.0025 0.9835
-0.2609 -3.6478 -2.0030 0.9835
-0.1306 -3.6558 -2.0035 0.9835
0.1306 -3.6576 -2.0046 0.9834
0.2612 -3.6515 -2.0051 0.9834
0.5213 -3.6253 -2.0060 0.9834
0.6504 -3.6051 -2.0064 0.9834
1.6420 -3.2803 -2.0091 0.9834
1.8723 -3.1555 -2.0096 0.9834
1.9839 -3.0870 -2.0098 0.9834
2.4036 -2.7739 -2.0103 0.9834
2.5012 -2.6865 -2.0104 0.9834
2.8581 -2.3032 -2.0104 0.9834
3.1562 -1.8727 -2.0101 0.9834
3.2208 -1.7587 -2.0099 0.9834
3.3375 -1.5242 -2.0095 0.9834
3.3894 -1.4039 -2.0093 0.9834
3.5822 -0.7792 -2.0078 0.9834
3.6429 -0.3916 -2.0067 0.9834
3.6538 -0.2613 -2.0063 0.9834
3.6600 -0.1307 -2.0058 0.9834
-0.8550 0.0000 -0.4936 0.9961
-0.8530 -0.0610 -0.4938 0.9961
-0.8453 -0.1215 -0.4930 0.9961
-0.8393 -0.1514 -0.4924 0.9961
-0.8318 -0.1810 -0.4915 0.9961
-0.8128 -0.2387 -0.4891 0.9961
-0.8014 -0.2667 -0.4876 0.9961
-0.7887 -0.2942 -0.4860 0.9961
-0.7796 -0.3229 -0.4872 0.9961
-0.7809 -0.3566 -0.4957 0.9960
-0.7696 -0.4946 -0.5282 0.9958
-0.7634 -0.5300 -0.5366 0.9957
-2.7560 -2.0631 -1.9876 0.9842
-2.6035 -2.2559 -1.9889 0.9842
-2.5221 -2.3482 -1.9895 0.9842
-2.4375 -2.4375 -1.9902 0.9842
-2.2588 -2.6069 -1.9915 0.9842
-2.0685 -2.7632 -1.9928 0.9842
-1.4366 -3.1457 -1.9966 0.9842
-1.3238 -3.1960 -1.9972 0.9841
-1.2093 -3.2422 -1.9979 0.9841
-0.8565 -3.3559 -1.9996 0.9841
-0.6153 -3.4104 -2.0008 0.9841
-0.4933 -3.4311 -2.0013 0.9841
-0.3706 -3.4475 -2.0019 0.9841
0.1239 -3.4686 -2.0039 0.9841
0.2477 -3.4628 -2.0043 0.9841
0.4943 -3.4378 -2.0052 0.9841
0.6168 -3.4187 -2.0056 0.9841
0.7386 -3.3951 -2.0060 0.9841
0.8594 -3.3672 -2.0064 0.9841
1.3308 -3.2127 -2.0077 0.9841
1.5570 -3.1104 -2.0082 0.9841
1.6672 -3.0532 -2.0084 0.9841
1.7753 -2.9920 -2.0086 0.9841
2.0854 -2.7858 -2.0091 0.9841
2.2791 -2.6302 -2.0093 0.9841
2.4610 -2.4610 -2.0094 0.9841
2.5474 -2.3717 -2.0095 0.9841
2.9927 -1.7757 -2.0091 0.9841
3.2998 -1.0983 -2.0079 0.9841
3.3364 -0.9796 -2.0076 0.9841
3.4544 -0.3714 -2.0059 0.9841
3.4707 -0.1240 -2.0051 0.9841
