ply
format ascii 1.0
element vertex 689
property float32 x
property float32 y
property float32 z
property float32 I
end_header
-9.5992 0.0000 -2.0291 0.9615
-9.5994 -0.3428 -2.0304 0.9615
-9.5872 -0.6857 -2.0317 0.9615
-9.5625 -1.0281 -2.0330 0.9614
-9.5254 -1.3695 -2.0342 0.9614
-9.4758 -1.7096 -2.0353 0.9614
-9.2531 -2.7169 -2.0385 0.9613
-9.1544 -3.0469 -2.0394 0.9613
-9.0437 -3.3731 -2.0403 0.9613
-8.7869 -4.0128 -2.0419 0.9613
-8.4838 -4.6325 -2.0432 0.9613
-8.3154 -4.9337 -2.0438 0.9612
-7.9460 -5.5170 -2.0448 0.9612
-7.7455 -5.7982 -2.0452 0.9612
-7.5347 -6.0719 -2.0455 0.9612
-7.0839 -6.5953 -2.0459 0.9612
-6.8444 -6.8443 -2.0460 0.9612
-6.3388 -7.3153 -2.0461 0.9612
-5.8001 -7.7480 -2.0458 0.9612
-4.9366 -8.3202 -2.0450 0.9612
-4.0161 -8.7940 -2.0436 0.9612
-3.0501 -9.1639 -2.0416 0.9613
-2.3866 -9.3507 -2.0399 0.9613
-1.3714 -9.5386 -2.0370 0.9614
-0.6867 -9.6018 -2.0348 0.9614
0.3430 -9.6028 -2.0311 0.9615
1.0258 -9.5412 -2.0285 0.9615
3.9591 -8.6692 -2.0145 0.9618
4.5598 -8.3505 -2.0111 0.9618
5.1350 -7.9902 -2.0077 0.9619
5.6819 -7.5901 -2.0042 0.9620
6.6804 -6.6804 -1.9970 0.9621
6.9084 -6.4319 -1.9952 0.9621
7.1272 -6.1757 -1.9934 0.9622
7.9054 -5.0805 -1.9864 0.9623
8.0746 -4.7909 -1.9846 0.9623
8.3813 -4.1954 -1.9812 0.9624
8.6446 -3.5807 -1.9779 0.9625
8.7597 -3.2672 -1.9762 0.9625
9.0369 -2.3065 -1.9715 0.9626
9.1644 -1.6534 -1.9684 0.9626
-8.6182 -0.3078 -2.0268 0.9652
-8.6067 -0.6155 -2.0279 0.9652
-8.5840 -0.9229 -2.0291 0.9651
-8.5501 -1.2293 -2.0301 0.9651
-8.4491 -1.8380 -2.0322 0.9651
-8.3039 -2.4382 -2.0340 0.9651
-8.0050 -3.3157 -2.0364 0.9650
-7.6117 -4.1563 -2.0383 0.9650
-7.2993 -4.6910 -2.0392 0.9650
-6.9486 -5.2016 -2.0400 0.9650
-6.7595 -5.4471 -2.0403 0.9650
-6.5615 -5.6855 -2.0405 0.9650
-6.3549 -5.9166 -2.0407 0.9650
-6.1400 -6.1399 -2.0408 0.9649
-5.9171 -6.3553 -2.0408 0.9649
-5.6864 -6.5624 -2.0408 0.9649
-5.4483 -6.7610 -2.0407 0.9650
-5.2032 -6.9507 -2.0406 0.9650
-4.9513 -7.1313 -2.0404 0.9650
-4.6931 -7.3025 -2.0401 0.9650
-4.4288 -7.4643 -2.0398 0.9650
-4.1588 -7.6162 -2.0395 0.9650
-3.8835 -7.7582 -2.0390 0.9650
-3.6032 -7.8899 -2.0385 0.9650
-2.7368 -8.2226 -2.0367 0.9650
-2.1416 -8.3909 -2.0353 0.9650
-1.8400 -8.4586 -2.0345 0.9651
-1.2309 -8.5608 -2.0327 0.9651
-0.9241 -8.5952 -2.0317 0.9651
-0.6164 -8.6184 -2.0307 0.9651
-0.3082 -8.6304 -2.0297 0.9651
1.2255 -8.5232 -2.0238 0.9652
2.4195 -8.2401 -2.0184 0.9653
2.7102 -8.1427 -2.0169 0.9654
3.5573 -7.7893 -2.0125 0.9654
4.3595 -7.3476 -2.0079 0.9655
5.1079 -6.8234 -2.0032 0.9656
5.5728 -6.4313 -2.0000 0.9656
5.7941 -6.2233 -1.9984 0.9657
6.0077 -6.0076 -1.9968 0.9657
6.2133 -5.7847 -1.9952 0.9657
6.4106 -5.5548 -1.9936 0.9657
6.7797 -5.0752 -1.9904 0.9658
6.9510 -4.8261 -1.9888 0.9658
7.4095 -4.0458 -1.9841 0.9659
7.7816 -3.2232 -1.9795 0.9660
7.8858 -2.9412 -1.9781 0.9660
7.9799 -2.6559 -1.9766 0.9660
8.2006 -1.7839 -1.9724 0.9661
8.2534 -1.4890 -1.9711 0.9661
8.2958 -1.1927 -1.9697 0.9661
8.3277 -0.8953 -1.9685 0.9662
8.3599 -0.2986 -1.9660 0.9662
-7.7484 -1.1140 -2.0268 0.9682
-7.4430 -2.4772 -2.0311 0.9681
-7.3525 -2.7423 -2.0318 0.9681
-6.6121 -4.2493 -2.0350 0.9680
-5.5615 -5.5615 -2.0364 0.9680
-4.9350 -6.1240 -2.0364 0.9680
-4.7130 -6.2959 -2.0363 0.9680
-4.4849 -6.4595 -2.0361 0.9680
-4.2510 -6.6147 -2.0359 0.9680
-3.2641 -7.1473 -2.0344 0.9681
-2.4794 -7.4493 -2.0328 0.9681
-1.6672 -7.6639 -2.0307 0.9681
-1.3920 -7.7155 -2.0299 0.9681
-1.1153 -7.7572 -2.0291 0.9681
-0.2793 -7.8213 -2.0264 0.9682
0.0000 -7.8225 -2.0254 0.9682
0.2791 -7.8135 -2.0244 0.9682
0.8349 -7.7653 -2.0222 0.9682
1.1109 -7.7262 -2.0210 0.9683
1.3851 -7.6772 -2.0199 0.9683
1.6573 -7.6183 -2.0187 0.9683
1.9270 -7.5497 -2.0174 0.9683
2.7177 -7.2865 -2.0136 0.9684
2.9741 -7.1801 -2.0122 0.9684
3.2263 -7.0646 -2.0109 0.9684
3.9548 -6.6654 -2.0067 0.9685
4.1872 -6.5154 -2.0053 0.9685
4.6347 -6.1912 -2.0024 0.9685
5.0572 -5.8363 -1.9995 0.9686
5.4527 -5.4527 -1.9966 0.9686
5.8193 -5.0424 -1.9937 0.9687
5.9912 -4.8280 -1.9922 0.9687
6.1552 -4.6077 -1.9908 0.9687
6.3112 -4.3819 -1.9893 0.9688
6.4589 -4.1509 -1.9879 0.9688
6.7290 -3.6743 -1.9851 0.9688
6.8510 -3.4293 -1.9837 0.9688
7.0684 -2.9278 -1.9809 0.9689
7.1636 -2.6719 -1.9796 0.9689
7.4515 -1.6210 -1.9744 0.9690
7.5000 -1.3531 -1.9732 0.9690
7.5985 -0.2714 -1.9686 0.9691
-7.1364 0.0000 -2.0203 0.9708
-7.1354 -0.2548 -2.0213 0.9708
-7.1251 -0.5096 -2.0222 0.9707
-7.0770 -1.0175 -2.0240 0.9707
-7.0391 -1.2700 -2.0249 0.9707
-6.9921 -1.5210 -2.0257 0.9707
-6.9360 -1.7703 -2.0265 0.9707
-6.7139 -2.5041 -2.0286 0.9707
-6.4131 -3.2102 -2.0303 0.9706
-6.2959 -3.4378 -2.0307 0.9706
-6.0370 -3.8797 -2.0315 0.9706
-5.5900 -4.5047 -2.0324 0.9706
-5.2553 -4.8928 -2.0327 0.9706
-5.0775 -5.0775 -2.0328 0.9706
-4.8931 -5.2556 -2.0328 0.9706
-4.7024 -5.4268 -2.0328 0.9706
-4.5056 -5.5910 -2.0328 0.9706
-4.3029 -5.7480 -2.0327 0.9706
-3.6627 -6.1731 -2.0320 0.9706
-3.4395 -6.2990 -2.0317 0.9706
-3.2119 -6.4166 -2.0314 0.9706
-2.5060 -6.7187 -2.0300 0.9706
-2.2639 -6.8021 -2.0295 0.9706
-1.7719 -6.9421 -2.0283 0.9707
-1.5225 -6.9986 -2.0276 0.9707
-1.2712 -7.0460 -2.0269 0.9707
-0.7648 -7.1133 -2.0253 0.9707
-0.5102 -7.1332 -2.0245 0.9707
0.5093 -7.1201 -2.0208 0.9708
1.0149 -7.0585 -2.0188 0.9708
1.5142 -6.9606 -2.0166 0.9708
2.9488 -6.4569 -2.0095 0.9709
3.1754 -6.3435 -2.0082 0.9709
3.3976 -6.2222 -2.0070 0.9710
3.8279 -5.9563 -2.0044 0.9710
4.4339 -5.5021 -2.0004 0.9711
4.6244 -5.3368 -1.9991 0.9711
4.8087 -5.1650 -1.9978 0.9711
5.3226 -4.6120 -1.9938 0.9711
5.6306 -4.2150 -1.9911 0.9712
5.7736 -4.0086 -1.9898 0.9712
6.0369 -3.5818 -1.9872 0.9712
6.1569 -3.3619 -1.9859 0.9713
6.2689 -3.1380 -1.9846 0.9713
6.5561 -2.4453 -1.9809 0.9713
6.9574 -0.2485 -1.9708 0.9715
-6.5507 -0.4685 -2.0200 0.9729
-6.5326 -0.7023 -2.0209 0.9729
-6.5060 -0.9354 -2.0217 0.9729
-6.4710 -1.1675 -2.0225 0.9729
-6.4275 -1.3982 -2.0232 0.9728
-6.3758 -1.6273 -2.0239 0.9728
-6.3158 -1.8545 -2.0246 0.9728
-6.2475 -2.0793 -2.0252 0.9728
-5.9944 -2.7375 -2.0269 0.9728
-5.7864 -3.1596 -2.0278 0.9728
-5.6710 -3.3648 -2.0282 0.9728
-5.5483 -3.5656 -2.0286 0.9728
-5.4183 -3.7620 -2.0289 0.9728
-5.2812 -3.9535 -2.0291 0.9728
-5.1373 -4.1399 -2.0293 0.9728
-4.8296 -4.4965 -2.0296 0.9728
-4.6662 -4.6662 -2.0297 0.9728
-4.1406 -5.1382 -2.0297 0.9728
-3.5669 -5.5501 -2.0292 0.9728
-3.3661 -5.6733 -2.0290 0.9728
-3.1610 -5.7890 -2.0287 0.9728
-2.9519 -5.8972 -2.0284 0.9728
-1.8559 -6.3206 -2.0261 0.9728
-1.6286 -6.3809 -2.0256 0.9728
-1.1686 -6.4768 -2.0243 0.9728
-0.7030 -6.5391 -2.0229 0.9729
-0.4690 -6.5575 -2.0221 0.9729
-0.2346 -6.5675 -2.0213 0.9729
-0.0000 -6.5690 -2.0205 0.9729
0.2344 -6.5619 -2.0196 0.9729
0.4682 -6.5465 -2.0187 0.9729
0.9332 -6.4904 -2.0168 0.9729
1.1637 -6.4498 -2.0158 0.9729
1.8436 -6.2787 -2.0127 0.9730
2.0654 -6.2056 -2.0117 0.9730
2.2844 -6.1246 -2.0106 0.9730
2.7124 -5.9394 -2.0083 0.9730
3.7130 -5.3476 -2.0024 0.9731
4.0800 -5.0630 -2.0000 0.9732
4.2555 -4.9111 -1.9988 0.9732
4.4254 -4.7532 -1.9975 0.9732
4.5894 -4.5894 -1.9963 0.9732
5.4401 -3.4961 -1.9890 0.9733
5.5580 -3.2977 -1.9878 0.9733
5.7722 -2.8893 -1.9854 0.9733
5.8682 -2.6799 -1.9843 0.9734
6.0375 -2.2518 -1.9820 0.9734
6.1759 -1.8134 -1.9798 0.9734
6.2333 -1.5909 -1.9787 0.9734
6.3242 -1.1410 -1.9766 0.9735
6.3577 -0.9141 -1.9756 0.9735
6.4004 -0.4577 -1.9736 0.9735
6.4096 -0.2289 -1.9727 0.9735
-6.0662 0.0000 -2.0164 0.9748
-6.0649 -0.2166 -2.0173 0.9747
-6.0140 -0.8647 -2.0196 0.9747
-5.9815 -1.0792 -2.0204 0.9747
-5.9412 -1.2924 -2.0211 0.9747
-5.7036 -2.1273 -2.0235 0.9747
-5.6254 -2.3301 -2.0240 0.9747
-5.5400 -2.5300 -2.0245 0.9747
-5.4473 -2.7267 -2.0249 0.9746
-5.1274 -3.2952 -2.0260 0.9746
-4.4630 -4.1552 -2.0270 0.9746
-3.9935 -4.6087 -2.0271 0.9746
-3.6543 -4.8815 -2.0269 0.9746
-3.4775 -5.0085 -2.0268 0.9746
-3.1107 -5.2428 -2.0264 0.9746
-2.5313 -5.5428 -2.0255 0.9746
-1.9231 -5.7781 -2.0243 0.9747
-1.7152 -5.8416 -2.0238 0.9747
-1.5053 -5.8975 -2.0232 0.9747
-1.2934 -5.9458 -2.0227 0.9747
-1.0801 -5.9864 -2.0221 0.9747
-0.8654 -6.0193 -2.0214 0.9747
-0.6498 -6.0443 -2.0207 0.9747
0.2167 -6.0662 -2.0177 0.9747
0.4329 -6.0521 -2.0169 0.9747
0.6483 -6.0303 -2.0160 0.9748
0.8628 -6.0006 -2.0152 0.9748
2.1125 -5.6638 -2.0094 0.9748
2.3121 -5.5819 -2.0083 0.9749
2.5086 -5.4929 -2.0073 0.9749
2.7016 -5.3971 -2.0062 0.9749
2.8909 -5.2943 -2.0051 0.9749
3.0764 -5.1850 -2.0041 0.9749
3.2577 -5.0691 -2.0030 0.9749
3.4347 -4.9468 -2.0018 0.9749
3.6070 -4.8184 -2.0007 0.9749
3.7746 -4.6839 -1.9996 0.9750
3.9371 -4.5436 -1.9985 0.9750
4.3927 -4.0898 -1.9951 0.9750
4.5333 -3.9281 -1.9939 0.9750
4.9189 -3.4152 -1.9905 0.9751
5.3430 -2.6745 -1.9861 0.9751
5.5142 -2.2840 -1.9840 0.9752
5.5893 -2.0847 -1.9829 0.9752
5.6572 -1.8829 -1.9819 0.9752
5.7178 -1.6789 -1.9809 0.9752
5.7712 -1.4730 -1.9799 0.9752
5.8172 -1.2654 -1.9789 0.9752
5.8558 -1.0565 -1.9779 0.9752
5.8870 -0.8464 -1.9770 0.9752
5.9108 -0.6354 -1.9761 0.9753
5.9270 -0.4239 -1.9752 0.9753
-5.6330 -0.2012 -2.0157 0.9763
-5.6243 -0.4022 -2.0164 0.9763
-5.5549 -1.0022 -2.0185 0.9763
-5.2962 -1.9754 -2.0214 0.9763
-5.2236 -2.1637 -2.0219 0.9763
-4.8662 -2.8873 -2.0235 0.9762
-4.6492 -3.2279 -2.0240 0.9762
-4.4079 -3.5521 -2.0244 0.9762
-4.0036 -4.0036 -2.0247 0.9762
-3.8582 -4.1440 -2.0248 0.9762
-3.5526 -4.4085 -2.0247 0.9762
-3.3929 -4.5323 -2.0246 0.9762
-2.8883 -4.8679 -2.0241 0.9762
-2.7123 -4.9673 -2.0239 0.9762
-2.3504 -5.1466 -2.0233 0.9763
-1.7858 -5.3653 -2.0222 0.9763
-1.3978 -5.4764 -2.0212 0.9763
-0.8037 -5.5898 -2.0195 0.9763
-0.4026 -5.6293 -2.0182 0.9763
-0.2014 -5.6382 -2.0176 0.9763
0.6022 -5.6011 -2.0145 0.9764
0.8014 -5.5737 -2.0137 0.9764
0.9994 -5.5393 -2.0129 0.9764
1.1960 -5.4977 -2.0120 0.9764
1.3908 -5.4491 -2.0111 0.9764
1.5837 -5.3935 -2.0102 0.9764
1.7744 -5.3312 -2.0093 0.9764
1.9626 -5.2619 -2.0083 0.9764
2.3307 -5.1036 -2.0064 0.9764
2.5102 -5.0147 -2.0054 0.9765
3.0272 -4.7104 -2.0024 0.9765
3.1918 -4.5970 -2.0013 0.9765
3.8056 -4.0874 -1.9971 0.9766
3.9469 -3.9469 -1.9961 0.9766
4.2140 -3.6514 -1.9940 0.9766
4.3393 -3.4968 -1.9929 0.9766
4.6809 -3.0082 -1.9898 0.9766
4.8785 -2.6639 -1.9877 0.9767
5.0510 -2.3067 -1.9857 0.9767
5.4464 -0.9826 -1.9791 0.9768
5.4756 -0.7873 -1.9782 0.9768
5.4979 -0.5911 -1.9774 0.9768
-5.2297 -0.5622 -2.0157 0.9777
-5.1795 -0.9345 -2.0169 0.9777
-5.1026 -1.3024 -2.0181 0.9777
-5.0542 -1.4840 -2.0186 0.9777
-4.9379 -1.8417 -2.0196 0.9777
-4.8701 -2.0172 -2.0201 0.9777
-4.7156 -2.3604 -2.0209 0.9777
-4.4383 -2.8523 -2.0218 0.9777
-4.3342 -3.0093 -2.0220 0.9777
-4.2245 -3.1623 -2.0222 0.9776
-4.1092 -3.3114 -2.0224 0.9776
-3.9887 -3.4562 -2.0226 0.9776
-3.8630 -3.5966 -2.0227 0.9776
-3.3119 -4.1098 -2.0227 0.9776
-3.0100 -4.3352 -2.0225 0.9776
-2.8531 -4.4395 -2.0223 0.9776
-2.5286 -4.6308 -2.0219 0.9777
-2.3614 -4.7175 -2.0217 0.9777
-2.1912 -4.7981 -2.0214 0.9777
-2.0182 -4.8724 -2.0211 0.9777
-1.6649 -5.0021 -2.0203 0.9777
-0.7494 -5.2119 -2.0178 0.9777
-0.1878 -5.2574 -2.0160 0.9777
0.0000 -5.2590 -2.0153 0.9777
0.1876 -5.2538 -2.0147 0.9777
0.3749 -5.2419 -2.0139 0.9777
0.5616 -5.2233 -2.0132 0.9777
0.9320 -5.1660 -2.0116 0.9778
1.1154 -5.1273 -2.0108 0.9778
1.2971 -5.0821 -2.0100 0.9778
1.4771 -5.0305 -2.0092 0.9778
1.6550 -4.9724 -2.0083 0.9778
2.3416 -4.6779 -2.0047 0.9778
2.5059 -4.5892 -2.0038 0.9779
2.8242 -4.3945 -2.0019 0.9779
3.4142 -3.9402 -1.9980 0.9779
3.5509 -3.8139 -1.9970 0.9779
3.6830 -3.6830 -1.9960 0.9779
4.0496 -3.2633 -1.9930 0.9780
4.5536 -2.4864 -1.9882 0.9780
4.7149 -2.1532 -1.9863 0.9780
4.9112 -1.6346 -1.9836 0.9781
5.0851 -0.9174 -1.9802 0.9781
5.1125 -0.7350 -1.9793 0.9781
5.1478 -0.3681 -1.9778 0.9781
-4.9168 0.0000 -2.0123 0.9790
-4.9154 -0.1755 -2.0130 0.9790
-4.9076 -0.3510 -2.0137 0.9790
-4.8935 -0.5261 -2.0143 0.9790
-4.8730 -0.7006 -2.0149 0.9789
-4.8463 -0.8743 -2.0155 0.9789
-4.8134 -1.0471 -2.0161 0.9789
-4.6774 -1.5567 -2.0176 0.9789
-4.5563 -1.8873 -2.0184 0.9789
-4.4869 -2.0491 -2.0188 0.9789
-4.2442 -2.5182 -2.0198 0.9789
-4.0547 -2.8152 -2.0203 0.9789
-3.8442 -3.0979 -2.0206 0.9789
-3.7314 -3.2333 -2.0208 0.9789
-3.3647 -3.6140 -2.0209 0.9789
-2.9590 -3.9527 -2.0208 0.9789
-2.6691 -4.1532 -2.0206 0.9789
-1.7239 -4.6221 -2.0190 0.9789
-1.5576 -4.6798 -2.0186 0.9789
-1.2193 -4.7771 -2.0178 0.9789
-1.0478 -4.8164 -2.0174 0.9789
-0.8750 -4.8496 -2.0169 0.9789
-0.7011 -4.8765 -2.0164 0.9789
-0.3513 -4.9114 -2.0152 0.9789
-0.1757 -4.9193 -2.0146 0.9789
-0.0000 -4.9209 -2.0140 0.9790
0.5255 -4.8879 -2.0120 0.9790
0.6994 -4.8643 -2.0113 0.9790
1.3824 -4.7080 -2.0082 0.9790
2.1918 -4.3786 -2.0041 0.9791
2.4964 -4.2074 -2.0023 0.9791
2.7877 -4.0150 -2.0005 0.9791
3.0642 -3.8025 -1.9987 0.9791
3.3246 -3.5709 -1.9968 0.9791
3.5676 -3.3215 -1.9950 0.9792
3.6822 -3.1906 -1.9941 0.9792
3.8968 -2.9171 -1.9922 0.9792
4.2645 -2.3286 -1.9886 0.9792
4.4159 -2.0166 -1.9869 0.9792
4.4831 -1.8569 -1.9860 0.9792
4.5446 -1.6950 -1.9851 0.9793
4.7894 -0.6886 -1.9803 0.9793
4.8227 -0.3449 -1.9788 0.9793
4.8302 -0.1725 -1.9781 0.9793
-1.4490 -0.1036 -0.6331 0.9937
-1.4359 -0.1544 -0.6294 0.9937
-1.3955 -0.2518 -0.6180 0.9938
-1.3400 -0.3420 -0.6027 0.9940
-4.2757 -1.7710 -2.0170 0.9800
-4.2106 -1.9229 -2.0173 0.9800
-4.0639 -2.2191 -2.0180 0.9800
-3.8963 -2.5040 -2.0185 0.9800
-3.8048 -2.6417 -2.0187 0.9800
-3.2763 -3.2763 -2.0193 0.9800
-3.0342 -3.5017 -2.0193 0.9800
-2.7765 -3.7090 -2.0192 0.9800
-2.5046 -3.8972 -2.0190 0.9800
-2.2198 -4.0652 -2.0186 0.9800
-2.0730 -4.1414 -2.0184 0.9800
-1.7718 -4.2776 -2.0178 0.9800
-1.6178 -4.3374 -2.0175 0.9800
-1.3037 -4.4402 -2.0168 0.9800
-0.8211 -4.5512 -2.0155 0.9800
-0.3297 -4.6094 -2.0140 0.9800
0.0000 -4.6185 -2.0128 0.9800
0.3293 -4.6039 -2.0116 0.9801
1.2977 -4.4195 -2.0074 0.9801
1.6084 -4.3124 -2.0059 0.9801
1.7606 -4.2506 -2.0051 0.9801
2.0577 -4.1108 -2.0035 0.9801
2.2022 -4.0331 -2.0027 0.9801
2.3438 -3.9503 -2.0018 0.9802
2.8773 -3.5704 -1.9984 0.9802
3.1219 -3.3532 -1.9967 0.9802
3.4580 -2.9963 -1.9941 0.9802
3.5612 -2.8698 -1.9933 0.9802
3.6598 -2.7396 -1.9924 0.9803
4.0056 -2.1872 -1.9890 0.9803
4.2690 -1.5922 -1.9857 0.9803
4.3214 -1.4383 -1.9849 0.9803
4.4096 -1.1254 -1.9834 0.9803
4.4996 -0.6469 -1.9812 0.9804
4.5384 -0.1621 -1.9792 0.9804
-1.2362 -0.0884 -0.5737 0.9946
-1.2260 -0.1318 -0.5708 0.9946
-1.2124 -0.1743 -0.5670 0.9946
-1.1974 -0.2160 -0.5632 0.9947
-1.2345 -0.5113 -0.6185 0.9941
-3.9617 -1.8092 -2.0160 0.9810
-3.8237 -2.0879 -2.0166 0.9810
-3.7472 -2.2233 -2.0169 0.9810
-3.5798 -2.4855 -2.0173 0.9810
-3.4891 -2.6119 -2.0175 0.9810
-3.3939 -2.7350 -2.0176 0.9810
-3.1905 -2.9704 -2.0178 0.9810
-3.0825 -3.0825 -2.0178 0.9810
-2.6123 -3.4896 -2.0178 0.9810
-2.4860 -3.5804 -2.0177 0.9810
-2.3564 -3.6667 -2.0175 0.9810
-2.2239 -3.7482 -2.0174 0.9810
-2.0885 -3.8248 -2.0172 0.9810
-1.8099 -3.9631 -2.0167 0.9810
-1.6671 -4.0247 -2.0165 0.9810
-1.5221 -4.0810 -2.0162 0.9810
-1.2267 -4.1778 -2.0155 0.9810
-0.3102 -4.3374 -2.0128 0.9810
-0.1552 -4.3446 -2.0123 0.9810
0.0000 -4.3461 -2.0118 0.9810
0.1551 -4.3421 -2.0112 0.9810
0.3099 -4.3325 -2.0106 0.9810
0.4642 -4.3174 -2.0100 0.9810
0.7705 -4.2706 -2.0087 0.9811
1.3686 -4.1118 -2.0060 0.9811
1.9369 -3.8695 -2.0030 0.9811
2.0730 -3.7964 -2.0022 0.9811
2.2063 -3.7185 -2.0014 0.9811
2.3367 -3.6360 -2.0006 0.9811
2.4640 -3.5488 -1.9998 0.9811
2.5881 -3.4572 -1.9990 0.9811
2.9392 -3.1569 -1.9966 0.9812
3.0488 -3.0487 -1.9958 0.9812
3.1544 -2.9368 -1.9950 0.9812
3.3531 -2.7021 -1.9933 0.9812
3.6183 -2.3253 -1.9909 0.9812
3.6975 -2.1938 -1.9901 0.9812
3.7720 -2.0596 -1.9893 0.9812
3.8416 -1.9229 -1.9885 0.9812
3.9659 -1.6427 -1.9870 0.9813
4.0205 -1.4995 -1.9862 0.9813
4.1141 -1.2080 -1.9848 0.9813
4.1531 -1.0600 -1.9840 0.9813
4.1868 -0.9108 -1.9833 0.9813
4.2152 -0.7605 -1.9827 0.9813
4.2382 -0.6094 -1.9820 0.9813
4.2558 -0.4575 -1.9813 0.9813
4.2681 -0.3052 -1.9807 0.9813
4.2749 -0.1526 -1.9801 0.9813
-1.0769 -0.0770 -0.5296 0.9952
-1.0705 -0.1151 -0.5281 0.9952
-1.0422 -0.2267 -0.5232 0.9953
-1.0025 -0.3336 -0.5183 0.9953
-1.0119 -0.3774 -0.5298 0.9952
-1.0444 -0.4769 -0.5632 0.9949
-3.5339 -2.0967 -2.0156 0.9819
-3.1067 -2.6919 -2.0164 0.9819
-3.0087 -2.8012 -2.0165 0.9819
-2.9069 -2.9069 -2.0165 0.9819
-2.8013 -3.0088 -2.0166 0.9819
-2.6921 -3.1069 -2.0165 0.9819
-2.5795 -3.2009 -2.0165 0.9819
-2.4635 -3.2908 -2.0164 0.9819
-2.3444 -3.3765 -2.0164 0.9819
-2.0973 -3.5347 -2.0161 0.9819
-1.9696 -3.6070 -2.0159 0.9819
-1.8394 -3.6746 -2.0157 0.9819
-1.5722 -3.7956 -2.0152 0.9819
-1.4355 -3.8487 -2.0150 0.9819
-1.1569 -3.9401 -2.0143 0.9819
-0.8726 -4.0111 -2.0136 0.9819
-0.4385 -4.0788 -2.0123 0.9819
-0.1464 -4.0977 -2.0113 0.9819
0.0000 -4.0993 -2.0108 0.9819
0.1463 -4.0956 -2.0103 0.9819
0.2923 -4.0866 -2.0097 0.9819
0.4378 -4.0724 -2.0091 0.9819
0.7268 -4.0284 -2.0079 0.9819
0.8699 -3.9986 -2.0073 0.9819
1.0117 -3.9637 -2.0067 0.9819
1.2910 -3.8789 -2.0053 0.9820
1.5634 -3.7743 -2.0039 0.9820
1.6965 -3.7148 -2.0032 0.9820
1.9558 -3.5817 -2.0018 0.9820
2.3248 -3.3484 -1.9995 0.9820
2.5559 -3.1716 -1.9980 0.9820
2.6664 -3.0771 -1.9973 0.9820
2.9766 -2.7713 -1.9950 0.9820
3.0725 -2.6623 -1.9942 0.9821
3.3356 -2.3159 -1.9919 0.9821
3.6258 -1.8149 -1.9889 0.9821
3.7432 -1.5505 -1.9874 0.9821
3.8834 -1.1402 -1.9853 0.9821
3.9203 -1.0006 -1.9846 0.9821
3.9790 -0.7179 -1.9833 0.9821
4.0008 -0.5752 -1.9827 0.9822
4.0292 -0.2882 -1.9815 0.9822
4.0357 -0.1441 -1.9809 0.9822
-0.9873 -0.0706 -0.5135 0.9955
-0.9838 -0.1057 -0.5133 0.9956
-0.9715 -0.1753 -0.5121 0.9956
-0.9628 -0.2094 -0.5112 0.9956
-0.9524 -0.2431 -0.5099 0.9956
-0.9404 -0.2761 -0.5085 0.9956
-0.9271 -0.3840 -0.5206 0.9955
-0.9326 -0.4259 -0.5319 0.9954
-0.9416 -0.4713 -0.5462 0.9953
-3.1094 -2.3276 -2.0150 0.9826
-3.0245 -2.4373 -2.0151 0.9826
-2.9357 -2.5438 -2.0152 0.9826
-2.5440 -2.9359 -2.0153 0.9826
-2.4375 -3.0248 -2.0153 0.9826
-2.3279 -3.1097 -2.0153 0.9826
-2.1000 -3.2676 -2.0151 0.9826
-1.9819 -3.3402 -2.0149 0.9827
-1.8612 -3.4086 -2.0148 0.9827
-1.7382 -3.4725 -2.0146 0.9827
-0.9596 -3.7595 -2.0129 0.9827
-0.6887 -3.8170 -2.0122 0.9827
-0.4144 -3.8548 -2.0113 0.9827
-0.2765 -3.8663 -2.0109 0.9827
-0.1383 -3.8728 -2.0104 0.9827
0.0000 -3.8743 -2.0099 0.9827
0.4138 -3.8491 -2.0083 0.9827
0.5508 -3.8308 -2.0078 0.9827
0.6870 -3.8076 -2.0072 0.9827
0.9563 -3.7466 -2.0060 0.9827
1.0891 -3.7090 -2.0054 0.9827
1.3500 -3.6195 -2.0041 0.9827
1.6037 -3.5116 -2.0028 0.9828
1.8489 -3.3860 -2.0014 0.9828
2.0843 -3.2432 -2.0000 0.9828
2.1979 -3.1656 -1.9993 0.9828
2.3087 -3.0840 -1.9986 0.9828
2.6223 -2.8165 -1.9964 0.9828
2.8145 -2.6203 -1.9949 0.9828
3.2291 -2.0752 -1.9913 0.9829
3.3000 -1.9579 -1.9906 0.9829
3.4288 -1.7163 -1.9892 0.9829
3.6332 -1.2092 -1.9865 0.9829
3.7380 -0.8131 -1.9846 0.9829
3.8001 -0.4085 -1.9828 0.9829
3.8111 -0.2725 -1.9822 0.9829
3.8174 -0.1363 -1.9816 0.9829
-0.9182 0.0000 -0.5029 0.9958
-0.9077 -0.1305 -0.5022 0.9958
-0.9011 -0.1626 -0.5015 0.9958
-0.8932 -0.1943 -0.5006 0.9958
-0.8727 -0.2562 -0.4982 0.9959
-0.8603 -0.2863 -0.4966 0.9959
-0.8465 -0.3157 -0.4948 0.9959
-0.8507 -0.4645 -0.5309 0.9956
-3.0928 -1.9876 -2.0136 0.9834
-2.9436 -2.2035 -2.0139 0.9834
-2.8632 -2.3073 -2.0140 0.9834
-2.6916 -2.5059 -2.0142 0.9834
-2.6005 -2.6004 -2.0142 0.9834
-2.2038 -2.9439 -2.0142 0.9834
-2.0973 -3.0206 -2.0141 0.9834
-1.5270 -3.3437 -2.0133 0.9834
-1.2843 -3.4433 -2.0128 0.9834
-1.1604 -3.4865 -2.0126 0.9834
-1.0351 -3.5252 -2.0123 0.9834
-0.9085 -3.5593 -2.0119 0.9834
-0.3924 -3.6496 -2.0104 0.9834
-0.2618 -3.6606 -2.0100 0.9834
-0.1310 -3.6667 -2.0096 0.9834
0.0000 -3.6682 -2.0091 0.9834
0.3918 -3.6445 -2.0076 0.9834
0.5215 -3.6272 -2.0071 0.9834
0.7785 -3.5788 -2.0060 0.9834
1.1556 -3.4720 -2.0042 0.9834
1.2784 -3.4275 -2.0036 0.9835
1.5187 -3.3255 -2.0023 0.9835
1.6359 -3.2681 -2.0017 0.9835
1.7510 -3.2066 -2.0010 0.9835
1.9739 -3.0715 -1.9997 0.9835
2.0816 -2.9981 -1.9990 0.9835
2.1865 -2.9208 -1.9984 0.9835
2.6658 -2.4820 -1.9949 0.9835
2.7518 -2.3844 -1.9942 0.9835
2.8341 -2.2839 -1.9936 0.9835
2.9129 -2.1805 -1.9929 0.9835
3.0589 -1.9658 -1.9915 0.9836
3.4001 -1.2681 -1.9876 0.9836
3.4421 -1.1456 -1.9869 0.9836
3.4797 -1.0217 -1.9863 0.9836
3.5129 -0.8966 -1.9857 0.9836
3.5658 -0.6433 -1.9845 0.9836
3.5854 -0.5155 -1.9839 0.9836
3.6111 -0.2582 -1.9828 0.9836
3.6170 -0.1292 -1.9823 0.9836
-0.8318 -0.1809 -0.4915 0.9961
-0.8230 -0.2100 -0.4904 0.9961
-0.7796 -0.3229 -0.4872 0.9961
-0.7809 -0.3566 -0.4957 0.9960
-2.7149 -2.1878 -2.0130 0.9840
-2.3761 -2.5521 -2.0132 0.9840
-2.2835 -2.6353 -2.0132 0.9840
-1.8850 -2.9331 -2.0130 0.9840
-1.6707 -3.0597 -2.0127 0.9840
-1.2178 -3.2650 -2.0119 0.9840
-1.1003 -3.3059 -2.0116 0.9840
-0.8614 -3.3750 -2.0110 0.9840
-0.7403 -3.4030 -2.0107 0.9840
-0.6182 -3.4267 -2.0104 0.9840
0.0000 -3.4786 -2.0084 0.9841
0.4946 -3.4399 -2.0065 0.9841
1.2125 -3.2508 -2.0031 0.9841
1.3274 -3.2045 -2.0026 0.9841
1.6608 -3.0414 -2.0007 0.9841
1.9745 -2.8438 -1.9988 0.9841
2.1709 -2.6939 -1.9975 0.9841
2.6105 -2.2620 -1.9943 0.9842
2.6887 -2.1667 -1.9936 0.9842
2.7634 -2.0686 -1.9930 0.9842
2.9658 -1.7597 -1.9910 0.9842
3.0818 -1.5426 -1.9898 0.9842
3.1340 -1.4312 -1.9891 0.9842
3.2261 -1.2032 -1.9879 0.9842
3.3017 -0.9695 -1.9867 0.9842
3.3333 -0.8507 -1.9862 0.9842
3.3606 -0.7310 -1.9856 0.9842
3.3836 -0.6104 -1.9850 0.9842
3.4023 -0.4892 -1.9845 0.9842
3.4166 -0.3673 -1.9840 0.9843
3.4324 -0.1226 -1.9830 0.9843
