ply
format ascii 1.0
element vertex 792
property float32 x
property float32 y
property float32 z
property float32 I
end_header
-0.5919 8.2762 1.2711 0.9670
-0.5919 8.2754 1.0804 0.9671
-0.5918 8.2745 0.8908 0.9672
-0.5918 8.2737 0.7022 0.9673
-0.5917 8.2728 0.5143 0.9673
-0.5916 8.2720 0.3270 0.9673
7.0886 2.9362 -0.5626 0.9697
6.5170 2.9762 -0.5253 0.9717
6.2922 3.1496 -0.5159 0.9722
6.1513 3.6497 -0.5244 0.9717
-2.4322 8.2831 -0.6330 0.9660
6.7746 2.8061 -0.7040 0.9710
5.9051 2.9559 -0.6340 0.9738
5.6996 3.6629 -0.6504 0.9731
-2.1751 8.5220 -0.8444 0.9653
7.1677 2.6734 -0.9087 0.9697
6.0818 2.7775 -0.7942 0.9734
5.7642 2.8854 -0.7657 0.9744
5.4011 3.2046 -0.7460 0.9750
5.3428 3.4336 -0.7544 0.9747
5.3419 3.9989 -0.7926 0.9735
-0.5912 8.2660 -0.9844 0.9672
-2.1748 8.5208 -1.0446 0.9652
-2.4303 8.2769 -1.0247 0.9658
7.7779 2.5887 -1.1615 0.9674
6.3450 2.6282 -0.9731 0.9726
5.8647 2.6783 -0.9135 0.9743
5.2553 2.8696 -0.8484 0.9761
4.8989 3.9478 -0.8914 0.9749
-2.1745 8.5197 -1.2459 0.9651
8.7956 2.5826 -1.5102 0.9635
7.7523 2.5802 -1.3460 0.9674
6.9396 2.5883 -1.2202 0.9704
5.7512 2.6265 -1.0416 0.9747
5.3541 2.6801 -0.9864 0.9760
4.8646 3.1263 -0.9526 0.9768
4.8292 3.3529 -0.9685 0.9764
4.8208 3.6088 -0.9920 0.9759
-0.5860 8.1937 -1.3533 0.9672
-2.4305 8.2776 -1.4212 0.9656
7.7840 2.5908 -1.5420 0.9672
5.6678 2.5884 -1.1712 0.9750
5.0543 2.7599 -1.0824 0.9768
4.8921 2.9027 -1.0692 0.9771
4.8319 3.1053 -1.0796 0.9769
5.8388 7.7997 -1.8313 0.9611
4.9754 8.3856 -1.8327 0.9611
4.6742 8.5601 -1.8332 0.9611
4.0538 8.8767 -1.8342 0.9611
3.4122 9.1485 -1.8353 0.9610
2.7525 9.3742 -1.8364 0.9610
1.7363 9.6235 -1.8381 0.9610
1.3921 9.6824 -1.8386 0.9610
0.6983 9.7631 -1.8398 0.9609
0.3495 9.7849 -1.8404 0.9609
-0.5847 8.1748 -1.5405 0.9672
-1.0480 9.7474 -1.8427 0.9609
-2.0859 9.5885 -1.8444 0.9608
-3.1017 9.3192 -1.8461 0.9608
9.3574 -0.0000 -1.9780 0.9625
9.3514 0.3340 -1.9780 0.9625
9.3040 1.0003 -1.9780 0.9625
8.7883 2.5805 -1.9361 0.9632
8.3962 2.7945 -1.8705 0.9645
6.9096 2.5772 -1.5588 0.9703
6.2193 2.5761 -1.4230 0.9729
5.6718 2.5902 -1.3180 0.9748
5.2634 2.6347 -1.2442 0.9762
5.0050 2.7330 -1.2054 0.9770
4.7986 3.0839 -1.2057 0.9769
4.7609 3.3056 -1.2251 0.9766
4.7557 3.5600 -1.2557 0.9760
7.0845 6.1387 -1.9815 0.9624
6.6309 6.6309 -1.9822 0.9624
6.3913 6.8647 -1.9826 0.9624
5.6128 7.4979 -1.9798 0.9624
4.9587 7.7159 -1.9388 0.9632
4.5837 7.7254 -1.8988 0.9639
4.2232 7.7341 -1.8627 0.9646
3.3229 8.0223 -1.8355 0.9651
2.7436 8.2432 -1.8364 0.9651
1.8482 8.4961 -1.8379 0.9651
1.2381 8.6111 -1.8389 0.9651
0.9302 8.6522 -1.8394 0.9650
-0.0000 8.7093 -1.8410 0.9650
-0.3110 8.7062 -1.8415 0.9650
-0.9318 8.6667 -1.8425 0.9650
-1.8544 8.5246 -1.8441 0.9650
-2.1581 8.4553 -1.8446 0.9650
-2.7573 8.2843 -1.8456 0.9649
-3.0520 8.1828 -1.8461 0.9649
-3.3430 8.0708 -1.8466 0.9649
-3.6299 7.9484 -1.8470 0.9649
-4.2481 7.7798 -1.8737 0.9644
-4.6131 7.7749 -1.9110 0.9637
-5.3820 7.7516 -1.9948 0.9622
-5.6655 7.5682 -1.9984 0.9621
-5.9432 7.3751 -2.0021 0.9620
-6.4602 6.9388 -2.0040 0.9620
-6.9416 6.4628 -2.0048 0.9620
-7.3878 5.9534 -2.0056 0.9620
-7.5969 5.6870 -2.0059 0.9619
-7.7964 5.4131 -2.0063 0.9619
-7.9859 5.1323 -2.0066 0.9619
-8.3342 4.5508 -2.0072 0.9619
-8.4925 4.2511 -2.0075 0.9619
-8.6399 3.9457 -2.0077 0.9619
-8.7763 3.6353 -2.0080 0.9619
-8.9015 3.3201 -2.0082 0.9619
-9.1174 2.6771 -2.0086 0.9619
-9.2865 2.0202 -2.0089 0.9619
-9.4081 1.3527 -2.0091 0.9619
-9.4813 0.6781 -2.0093 0.9619
8.4173 0.3006 -1.9795 0.9660
8.4012 0.6009 -1.9795 0.9660
7.8946 2.9446 -1.9803 0.9660
6.2168 2.5751 -1.5815 0.9727
5.6761 2.5922 -1.4666 0.9747
5.2431 2.6245 -1.3780 0.9762
5.0049 2.7329 -1.3402 0.9768
4.8631 2.8854 -1.3290 0.9770
4.7913 3.0792 -1.3386 0.9769
4.7532 3.3002 -1.3600 0.9765
4.7842 3.8554 -1.4441 0.9751
5.9673 5.9673 -1.9834 0.9659
5.7515 6.1776 -1.9837 0.9659
5.0611 6.7608 -1.9848 0.9659
4.5677 7.1075 -1.9856 0.9659
4.3119 7.2673 -1.9860 0.9659
3.5009 7.6658 -1.9806 0.9660
3.1982 7.7211 -1.9642 0.9662
2.2724 7.7390 -1.8956 0.9674
1.9765 7.7439 -1.8783 0.9677
1.1156 7.7591 -1.8423 0.9683
0.8367 7.7826 -1.8396 0.9683
0.5585 7.8094 -1.8401 0.9683
-0.0000 7.8333 -1.8410 0.9683
-0.2797 7.8303 -1.8415 0.9683
-1.6895 7.7664 -1.8680 0.9679
-1.9820 7.7652 -1.8835 0.9676
-2.2796 7.7635 -1.9016 0.9673
-3.5213 7.7105 -1.9922 0.9658
-4.0731 7.4593 -1.9974 0.9657
-4.8566 6.9947 -2.0013 0.9656
-5.1042 6.8184 -2.0017 0.9656
-5.3454 6.6332 -2.0022 0.9656
-5.8073 6.2374 -2.0029 0.9656
-6.0273 6.0273 -2.0033 0.9656
-6.8284 5.1117 -2.0047 0.9656
-7.1778 4.6129 -2.0053 0.9655
-7.3389 4.3544 -2.0056 0.9655
-7.4906 4.0902 -2.0058 0.9655
-7.7652 3.5462 -2.0063 0.9655
-8.1022 2.6967 -2.0069 0.9655
-8.3459 1.8155 -2.0073 0.9655
-8.4058 1.5166 -2.0075 0.9655
-8.4550 1.2156 -2.0075 0.9655
-8.5207 0.6094 -2.0077 0.9655
7.6454 0.2731 -1.9808 0.9689
7.6309 0.5458 -1.9808 0.9689
7.6066 0.8178 -1.9808 0.9689
7.5293 1.3584 -1.9810 0.9689
7.4763 1.6264 -1.9810 0.9689
7.4139 1.8923 -1.9811 0.9689
7.3420 2.1558 -1.9812 0.9689
7.1705 2.6744 -1.9815 0.9689
7.0710 2.9289 -1.9817 0.9689
5.2450 2.6254 -1.5187 0.9761
5.0111 2.7363 -1.4783 0.9767
5.5598 4.1620 -1.7982 0.9717
5.6082 5.2215 -1.9840 0.9688
5.0204 5.7938 -1.9849 0.9688
4.8112 5.9704 -1.9853 0.9688
4.5958 6.1393 -1.9856 0.9688
4.1477 6.4539 -1.9864 0.9688
3.9154 6.5991 -1.9868 0.9688
3.6781 6.7360 -1.9871 0.9688
3.1895 6.9841 -1.9879 0.9688
2.6843 7.1968 -1.9888 0.9688
2.4259 7.2886 -1.9889 0.9688
1.8982 7.4371 -1.9873 0.9688
1.6311 7.4980 -1.9868 0.9688
1.3621 7.5499 -1.9864 0.9688
1.0916 7.5927 -1.9861 0.9688
0.8199 7.6265 -1.9860 0.9688
0.5472 7.6511 -1.9861 0.9688
-0.2740 7.6701 -1.9872 0.9688
-0.5477 7.6580 -1.9879 0.9688
-1.3652 7.5669 -1.9908 0.9687
-2.1710 7.3938 -1.9952 0.9687
-2.4357 7.3180 -1.9970 0.9686
-2.6964 7.2292 -1.9977 0.9686
-2.9533 7.1299 -1.9982 0.9686
-3.2066 7.0214 -1.9986 0.9686
-3.4559 6.9039 -1.9990 0.9686
-4.1766 6.4989 -2.0002 0.9686
-4.6314 6.1868 -2.0010 0.9686
-4.8502 6.0187 -2.0014 0.9686
-5.2690 5.6593 -2.0021 0.9686
-5.4686 5.4686 -2.0024 0.9685
-5.6612 5.2708 -2.0027 0.9685
-5.8467 5.0661 -2.0031 0.9685
-6.3575 4.4141 -2.0039 0.9685
-6.9244 3.4661 -2.0049 0.9685
-7.5068 1.9160 -2.0059 0.9685
-7.5708 1.6469 -2.0061 0.9685
-7.7045 0.8283 -2.0063 0.9685
-7.7293 0.5528 -2.0064 0.9685
6.9830 0.4994 -1.9819 0.9713
6.9608 0.7484 -1.9819 0.9713
6.7844 1.7316 -1.9822 0.9713
6.7186 1.9728 -1.9823 0.9713
6.6443 2.2114 -1.9824 0.9713
6.5615 2.4473 -1.9825 0.9713
6.4704 2.6801 -1.9827 0.9713
5.6765 2.5924 -1.7666 0.9744
5.4462 2.7262 -1.7242 0.9750
6.1485 3.3573 -1.9832 0.9713
5.7562 3.9966 -1.9838 0.9713
5.2979 4.5907 -1.9845 0.9713
5.1314 4.7775 -1.9848 0.9713
4.9583 4.9583 -1.9851 0.9713
4.2048 5.6170 -1.9863 0.9713
3.7947 5.9046 -1.9870 0.9712
3.5821 6.0374 -1.9873 0.9712
3.3650 6.1625 -1.9877 0.9712
3.1434 6.2798 -1.9880 0.9712
2.9178 6.3892 -1.9884 0.9712
1.4948 6.8715 -1.9908 0.9712
1.2488 6.9219 -1.9912 0.9712
0.7521 6.9962 -1.9920 0.9712
0.2512 7.0350 -1.9928 0.9712
-0.2514 7.0379 -1.9937 0.9711
-1.0029 6.9751 -1.9949 0.9711
-1.2515 6.9363 -1.9953 0.9711
-1.4985 6.8887 -1.9957 0.9711
-1.9870 6.7670 -1.9966 0.9711
-2.2277 6.6931 -1.9970 0.9711
-2.4656 6.6107 -1.9974 0.9711
-2.7006 6.5197 -1.9978 0.9711
-2.9321 6.4204 -1.9981 0.9711
-3.3840 6.1972 -1.9989 0.9711
-4.0292 5.8032 -2.0000 0.9711
-4.4345 5.5028 -2.0007 0.9710
-5.1757 4.8188 -2.0019 0.9710
-5.8120 4.0354 -2.0030 0.9710
-5.9531 3.8258 -2.0033 0.9710
-6.0865 3.6113 -2.0035 0.9710
-6.4396 2.9409 -2.0041 0.9710
-6.6342 2.4744 -2.0045 0.9710
-6.8621 1.7514 -2.0049 0.9710
-6.9702 1.2576 -2.0051 0.9710
-7.0109 1.0080 -2.0052 0.9710
-7.0427 0.7572 -2.0052 0.9710
-7.0790 0.2529 -2.0053 0.9710
6.4465 -0.0000 -1.9828 0.9734
6.3445 1.1447 -1.9829 0.9734
6.2998 1.3704 -1.9830 0.9734
6.2471 1.5945 -1.9831 0.9734
6.1181 2.0363 -1.9833 0.9734
6.0418 2.2535 -1.9834 0.9734
5.6284 2.8174 -1.9360 0.9740
5.5479 3.2917 -1.9842 0.9734
5.1658 3.8671 -1.9848 0.9734
4.5651 4.5652 -1.9858 0.9733
4.3999 4.7258 -1.9860 0.9733
4.2290 4.8805 -1.9863 0.9733
4.0527 5.0291 -1.9866 0.9733
3.8712 5.1713 -1.9869 0.9733
3.6847 5.3070 -1.9872 0.9733
3.4935 5.4360 -1.9875 0.9733
2.6861 5.8818 -1.9888 0.9733
2.4749 5.9749 -1.9892 0.9733
1.8230 6.2086 -1.9902 0.9733
1.3760 6.3252 -1.9910 0.9733
0.9216 6.4096 -1.9917 0.9733
0.6923 6.4397 -1.9921 0.9733
0.4621 6.4615 -1.9925 0.9733
0.2313 6.4752 -1.9929 0.9732
-0.0000 6.4805 -1.9933 0.9732
-0.4625 6.4665 -1.9940 0.9732
-1.1518 6.3837 -1.9952 0.9732
-1.3791 6.3397 -1.9956 0.9732
-2.0501 6.1595 -1.9967 0.9732
-2.4852 5.9997 -1.9974 0.9732
-2.9079 5.8092 -1.9981 0.9732
-3.5140 5.4679 -1.9992 0.9732
-3.8964 5.2049 -1.9998 0.9732
-4.4324 4.7608 -2.0007 0.9731
-4.7621 4.4337 -2.0013 0.9731
-4.9180 4.2615 -2.0015 0.9731
-5.4770 3.5199 -2.0025 0.9731
-5.7153 3.1208 -2.0029 0.9731
-5.8236 2.9151 -2.0031 0.9731
-5.9245 2.7056 -2.0033 0.9731
-6.1034 2.2764 -2.0036 0.9731
-6.2510 1.8355 -2.0039 0.9731
-6.3129 1.6113 -2.0040 0.9731
-6.3667 1.3850 -2.0041 0.9731
-6.4498 0.9273 -2.0042 0.9731
-6.4790 0.6966 -2.0043 0.9731
-6.4999 0.4649 -2.0043 0.9731
5.9636 0.2130 -1.9836 0.9752
5.9522 0.4257 -1.9836 0.9752
5.9333 0.6379 -1.9836 0.9752
5.9069 0.8493 -1.9837 0.9752
5.7267 1.6815 -1.9839 0.9752
5.5150 2.2844 -1.9843 0.9752
5.3387 2.6724 -1.9845 0.9751
5.1353 3.0469 -1.9849 0.9751
4.6513 3.7482 -1.9856 0.9751
4.3730 4.0714 -1.9861 0.9751
4.2254 4.2254 -1.9863 0.9751
4.0724 4.3741 -1.9866 0.9751
3.9142 4.5172 -1.9868 0.9751
3.7510 4.6547 -1.9871 0.9751
3.2333 5.0311 -1.9879 0.9751
3.0521 5.1441 -1.9882 0.9751
2.4859 5.4434 -1.9892 0.9751
2.0919 5.6087 -1.9898 0.9751
1.8907 5.6808 -1.9902 0.9751
1.6870 5.7456 -1.9905 0.9751
1.4812 5.8031 -1.9908 0.9751
1.2733 5.8533 -1.9912 0.9751
1.0638 5.8961 -1.9915 0.9751
0.6407 5.9590 -1.9922 0.9751
0.4276 5.9792 -1.9926 0.9750
-0.4279 5.9834 -1.9940 0.9750
-0.6414 5.9654 -1.9944 0.9750
-0.8540 5.9397 -1.9947 0.9750
-1.0657 5.9065 -1.9951 0.9750
-1.2760 5.8658 -1.9954 0.9750
-1.6918 5.7618 -1.9961 0.9750
-2.0993 5.6284 -1.9968 0.9750
-2.2992 5.5508 -1.9971 0.9750
-2.4963 5.4661 -1.9975 0.9750
-2.6902 5.3744 -1.9978 0.9750
-2.8808 5.2758 -1.9981 0.9750
-3.0678 5.1704 -1.9984 0.9750
-3.2508 5.0584 -1.9987 0.9750
-3.6045 4.8150 -1.9993 0.9750
-3.7746 4.6840 -1.9996 0.9750
-4.1003 4.4040 -2.0002 0.9750
-4.4052 4.1013 -2.0007 0.9749
-4.5493 3.9420 -2.0009 0.9749
-4.8200 3.6082 -2.0014 0.9749
-4.9463 3.4343 -2.0016 0.9749
-5.1797 3.0733 -2.0020 0.9749
-5.7819 1.6977 -2.0031 0.9749
-5.8391 1.4904 -2.0032 0.9749
-5.9657 0.8577 -2.0034 0.9749
-5.9927 0.6443 -2.0035 0.9749
5.5488 0.0000 -1.9843 0.9767
5.5453 0.1980 -1.9843 0.9767
5.5171 0.5931 -1.9843 0.9767
5.4925 0.7897 -1.9844 0.9767
5.4609 0.9853 -1.9844 0.9767
5.4225 1.1796 -1.9845 0.9767
5.3771 1.3724 -1.9845 0.9767
5.3249 1.5635 -1.9846 0.9767
5.0493 2.3059 -1.9850 0.9767
4.3247 3.4850 -1.9862 0.9767
4.0659 3.7855 -1.9866 0.9767
3.3312 4.4499 -1.9878 0.9767
3.1706 4.5666 -1.9881 0.9767
3.0060 4.6775 -1.9883 0.9767
2.6654 4.8814 -1.9889 0.9767
2.4899 4.9741 -1.9892 0.9766
2.1293 5.1406 -1.9898 0.9766
1.9448 5.2141 -1.9901 0.9766
1.3769 5.3947 -1.9910 0.9766
0.7927 5.5136 -1.9920 0.9766
0.3975 5.5579 -1.9926 0.9766
0.1989 5.5695 -1.9930 0.9766
-0.0000 5.5740 -1.9933 0.9766
-0.1990 5.5714 -1.9936 0.9766
-0.3978 5.5617 -1.9940 0.9766
-0.5961 5.5448 -1.9943 0.9766
-0.7938 5.5209 -1.9946 0.9766
-1.1860 5.4520 -1.9953 0.9766
-1.5725 5.3553 -1.9959 0.9766
-2.3200 5.0802 -1.9972 0.9766
-2.8511 4.8052 -1.9981 0.9765
-3.0212 4.7011 -1.9984 0.9765
-3.1875 4.5909 -1.9986 0.9765
-3.3498 4.4748 -1.9989 0.9765
-3.5078 4.3530 -1.9992 0.9765
-3.6615 4.2255 -1.9995 0.9765
-3.8104 4.0927 -1.9997 0.9765
-4.0937 3.8113 -2.0002 0.9765
-4.2276 3.6632 -2.0004 0.9765
-4.3561 3.5104 -2.0006 0.9765
-4.4791 3.3530 -2.0008 0.9765
-4.5964 3.1913 -2.0010 0.9765
-4.8132 2.8558 -2.0014 0.9765
-4.9125 2.6825 -2.0016 0.9765
-5.1723 2.1425 -2.0020 0.9765
-5.3126 1.7682 -2.0023 0.9765
-5.4258 1.3849 -2.0025 0.9765
-5.4720 1.1904 -2.0026 0.9765
-5.5863 0.3996 -2.0028 0.9765
5.1796 0.0000 -1.9849 0.9781
5.1763 0.1849 -1.9849 0.9781
5.1664 0.3695 -1.9849 0.9781
5.0976 0.9197 -1.9850 0.9781
5.0616 1.1011 -1.9851 0.9781
4.9705 1.4595 -1.9852 0.9781
4.9155 1.6360 -1.9853 0.9781
4.8542 1.8105 -1.9854 0.9781
4.7867 1.9827 -1.9855 0.9781
4.6336 2.3194 -1.9857 0.9780
4.4570 2.6445 -1.9860 0.9780
4.1498 3.1065 -1.9865 0.9780
4.0366 3.2529 -1.9867 0.9780
3.9183 3.3953 -1.9869 0.9780
3.7950 3.5333 -1.9871 0.9780
3.2550 4.0392 -1.9880 0.9780
3.1091 4.1533 -1.9882 0.9780
2.6483 4.4636 -1.9889 0.9780
2.4877 4.5558 -1.9892 0.9780
2.1569 4.7230 -1.9898 0.9780
1.9873 4.7977 -1.9900 0.9780
1.8150 4.8662 -1.9903 0.9780
1.6404 4.9286 -1.9906 0.9780
1.4637 4.9847 -1.9909 0.9780
1.2850 5.0346 -1.9912 0.9780
0.9228 5.1149 -1.9918 0.9780
0.1856 5.1974 -1.9930 0.9780
-0.3712 5.1899 -1.9939 0.9780
-0.5563 5.1741 -1.9942 0.9780
-0.9243 5.1228 -1.9949 0.9779
-1.2878 5.0454 -1.9955 0.9779
-1.8205 4.8810 -1.9964 0.9779
-2.4981 4.5748 -1.9975 0.9779
-2.6601 4.4834 -1.9978 0.9779
-2.8188 4.3862 -1.9980 0.9779
-2.9740 4.2833 -1.9983 0.9779
-3.4161 3.9424 -1.9991 0.9779
-3.6895 3.6895 -1.9995 0.9779
-3.8192 3.5558 -1.9997 0.9779
-3.9441 3.4176 -2.0000 0.9779
-4.1787 3.1282 -2.0004 0.9779
-4.2881 2.9773 -2.0005 0.9779
-4.3921 2.8226 -2.0007 0.9779
-4.5830 2.5025 -2.0011 0.9779
-4.8253 1.9987 -2.0015 0.9779
-4.8938 1.8253 -2.0016 0.9779
-5.0617 1.2919 -2.0019 0.9779
-5.2114 0.3727 -2.0022 0.9779
-5.2214 0.1865 -2.0022 0.9779
4.8481 0.1731 -1.9855 0.9793
4.8388 0.3461 -1.9855 0.9793
4.8234 0.5186 -1.9855 0.9793
4.7009 1.1998 -1.9857 0.9792
4.6553 1.3669 -1.9857 0.9792
4.6037 1.5323 -1.9858 0.9792
4.5463 1.6957 -1.9859 0.9792
4.4831 1.8570 -1.9860 0.9792
4.2597 2.3260 -1.9864 0.9792
4.1742 2.4767 -1.9865 0.9792
4.0835 2.6243 -1.9866 0.9792
3.9875 2.7686 -1.9868 0.9792
3.8865 2.9094 -1.9869 0.9792
3.6697 3.1798 -1.9873 0.9792
3.4341 3.4341 -1.9877 0.9792
3.3097 3.5549 -1.9879 0.9792
3.0483 3.7827 -1.9883 0.9792
2.9117 3.8896 -1.9885 0.9792
2.3296 4.2664 -1.9895 0.9792
2.0198 4.4228 -1.9900 0.9792
1.0344 4.7550 -1.9916 0.9792
0.6927 4.8181 -1.9922 0.9792
0.5204 4.8404 -1.9925 0.9792
-0.1739 4.8680 -1.9936 0.9792
-0.3476 4.8594 -1.9939 0.9792
-0.5209 4.8446 -1.9942 0.9792
-0.6935 4.8236 -1.9945 0.9792
-1.2057 4.7239 -1.9953 0.9791
-1.3737 4.6785 -1.9956 0.9791
-1.7045 4.5698 -1.9962 0.9791
-2.0267 4.4378 -1.9967 0.9791
-2.1841 4.3632 -1.9970 0.9791
-2.4904 4.1974 -1.9975 0.9791
-2.7842 4.0100 -1.9980 0.9791
-2.9259 3.9086 -1.9982 0.9791
-3.0639 3.8021 -1.9985 0.9791
-3.1980 3.6907 -1.9987 0.9791
-3.4539 3.4539 -1.9991 0.9791
-3.5754 3.3288 -1.9993 0.9791
-4.0142 2.7871 -2.0001 0.9791
-4.4470 2.0309 -2.0008 0.9791
-4.6918 1.3776 -2.0013 0.9791
-4.7381 1.2093 -2.0014 0.9791
-4.8127 0.8683 -2.0015 0.9791
-4.8407 0.6960 -2.0016 0.9791
-4.8626 0.5228 -2.0016 0.9791
-4.8782 0.3489 -2.0016 0.9791
-4.8876 0.1746 -2.0017 0.9791
4.5568 0.0000 -1.9860 0.9803
4.5539 0.1626 -1.9860 0.9803
4.4846 0.8091 -1.9860 0.9803
4.4530 0.9687 -1.9861 0.9803
4.4157 1.1271 -1.9861 0.9803
4.3728 1.2840 -1.9862 0.9803
4.3244 1.4393 -1.9863 0.9803
3.9208 2.3264 -1.9869 0.9803
3.7454 2.6005 -1.9872 0.9803
3.6505 2.7328 -1.9873 0.9803
3.5509 2.8615 -1.9875 0.9803
2.9878 3.4481 -1.9884 0.9803
2.4677 3.8399 -1.9893 0.9803
2.3294 3.9259 -1.9895 0.9803
1.8970 4.1539 -1.9902 0.9803
1.7478 4.2195 -1.9905 0.9803
1.5963 4.2797 -1.9907 0.9803
1.4427 4.3346 -1.9910 0.9803
1.1301 4.4276 -1.9915 0.9803
0.8115 4.4981 -1.9920 0.9803
0.4887 4.5458 -1.9925 0.9802
0.3262 4.5609 -1.9928 0.9802
-0.0000 4.5738 -1.9933 0.9802
-0.1633 4.5715 -1.9936 0.9802
-0.3264 4.5634 -1.9939 0.9802
-0.8127 4.5042 -1.9947 0.9802
-1.2900 4.3933 -1.9955 0.9802
-1.6005 4.2912 -1.9960 0.9802
-1.7529 4.2319 -1.9963 0.9802
-1.9031 4.1671 -1.9965 0.9802
-2.1960 4.0218 -1.9970 0.9802
-2.4780 3.8557 -1.9975 0.9802
-2.6143 3.7653 -1.9977 0.9802
-3.1249 3.3564 -1.9986 0.9802
-3.2430 3.2430 -1.9988 0.9802
-3.3570 3.1255 -1.9990 0.9802
-3.4668 3.0040 -1.9992 0.9802
-3.7690 2.6169 -1.9997 0.9802
-4.0280 2.1995 -2.0001 0.9802
-4.1042 2.0544 -2.0003 0.9802
-4.1752 1.9067 -2.0004 0.9802
-4.2409 1.7566 -2.0005 0.9802
-1.4401 0.4793 -0.6615 0.9934
-1.3722 0.4029 -0.6233 0.9938
-1.3400 0.3420 -0.6027 0.9940
-1.4180 0.2039 -0.6244 0.9938
-1.4360 0.1544 -0.6294 0.9937
-1.4490 0.1037 -0.6331 0.9937
4.2913 0.0000 -1.9864 0.9813
4.2886 0.1532 -1.9864 0.9813
4.2804 0.3061 -1.9864 0.9813
4.2478 0.6107 -1.9864 0.9813
4.0724 1.3554 -1.9867 0.9813
3.6923 2.1907 -1.9873 0.9813
3.6120 2.3213 -1.9874 0.9813
3.5271 2.4489 -1.9876 0.9813
3.4377 2.5734 -1.9877 0.9813
3.1436 2.9268 -1.9882 0.9812
3.0374 3.0375 -1.9884 0.9812
2.8135 3.2470 -1.9887 0.9812
2.5752 3.4401 -1.9891 0.9812
1.5030 4.0298 -1.9909 0.9812
1.3584 4.0814 -1.9911 0.9812
1.2120 4.1278 -1.9913 0.9812
1.0641 4.1689 -1.9916 0.9812
0.9147 4.2048 -1.9918 0.9812
0.3071 4.2943 -1.9928 0.9812
-0.3073 4.2965 -1.9939 0.9812
-0.4605 4.2834 -1.9941 0.9812
-0.9161 4.2112 -1.9949 0.9812
-1.0660 4.1763 -1.9951 0.9812
-1.3615 4.0907 -1.9956 0.9812
-1.5068 4.0400 -1.9959 0.9812
-1.6503 3.9841 -1.9961 0.9812
-1.7916 3.9231 -1.9964 0.9812
-2.0674 3.7862 -1.9968 0.9812
-2.2015 3.7104 -1.9970 0.9812
-2.3328 3.6299 -1.9973 0.9812
-2.4611 3.5446 -1.9975 0.9812
-2.5863 3.4549 -1.9977 0.9812
-2.7083 3.3608 -1.9979 0.9812
-3.0529 3.0529 -1.9985 0.9811
-3.1602 2.9423 -1.9987 0.9811
-3.2635 2.8278 -1.9988 0.9811
-3.4575 2.5883 -1.9992 0.9811
-3.5480 2.4634 -1.9993 0.9811
-3.9303 1.7949 -2.0000 0.9811
-1.1536 0.3840 -0.5628 0.9947
-1.1330 0.3327 -0.5466 0.9948
-1.1575 0.2954 -0.5529 0.9947
-1.1974 0.2160 -0.5632 0.9947
-1.2124 0.1743 -0.5670 0.9946
-1.2362 0.0884 -0.5737 0.9946
4.0503 0.0000 -1.9868 0.9821
4.0478 0.1446 -1.9868 0.9821
4.0400 0.2889 -1.9868 0.9821
4.0272 0.4330 -1.9868 0.9821
3.8867 1.1413 -1.9870 0.9821
3.7957 1.4157 -1.9872 0.9821
3.6853 1.6830 -1.9873 0.9821
3.6231 1.8136 -1.9874 0.9821
3.5562 1.9419 -1.9875 0.9821
3.4849 2.0677 -1.9877 0.9821
3.3289 2.3113 -1.9879 0.9821
3.1560 2.5432 -1.9882 0.9821
2.9669 2.7623 -1.9885 0.9821
2.8667 2.8667 -1.9886 0.9821
2.7628 2.9674 -1.9888 0.9821
2.6516 3.0601 -1.9862 0.9821
2.5346 3.1453 -1.9815 0.9822
2.4216 3.2349 -1.9821 0.9822
1.9444 3.5609 -1.9902 0.9821
1.6858 3.6913 -1.9906 0.9821
1.0041 3.9342 -1.9917 0.9821
0.5781 4.0205 -1.9924 0.9821
0.4342 4.0390 -1.9926 0.9821
-0.0000 4.0637 -1.9934 0.9821
-0.1451 4.0617 -1.9936 0.9821
-0.2900 4.0544 -1.9938 0.9821
-0.5786 4.0243 -1.9943 0.9820
-0.7220 4.0016 -1.9946 0.9820
-1.0058 3.9408 -1.9950 0.9820
-1.1460 3.9029 -1.9953 0.9820
-1.2847 3.8599 -1.9955 0.9820
-1.4218 3.8121 -1.9957 0.9820
-1.5572 3.7593 -1.9960 0.9820
-1.8218 3.6395 -1.9964 0.9820
-1.9507 3.5725 -1.9966 0.9820
-2.2011 3.4250 -1.9971 0.9820
-2.4403 3.2599 -1.9975 0.9820
-2.5554 3.1710 -1.9977 0.9820
-2.7756 2.9812 -1.9980 0.9820
-2.8805 2.8805 -1.9982 0.9820
-2.9817 2.7761 -1.9984 0.9820
-3.0792 2.6681 -1.9985 0.9820
-3.2622 2.4420 -1.9989 0.9820
-3.3475 2.3242 -1.9990 0.9820
-3.4286 2.2034 -1.9991 0.9820
-1.0290 0.4262 -0.5463 0.9951
-1.0119 0.3774 -0.5298 0.9952
-1.0307 0.2631 -0.5218 0.9953
-1.0422 0.2267 -0.5232 0.9953
-1.0611 0.1526 -0.5258 0.9952
-1.0705 0.1151 -0.5281 0.9952
-1.0803 0.0386 -0.5302 0.9952
3.8304 0.0000 -1.9872 0.9829
3.7697 0.6801 -1.9872 0.9829
3.7118 0.9474 -1.9873 0.9829
3.5896 1.3388 -1.9875 0.9829
3.5396 1.4662 -1.9876 0.9829
3.4852 1.5916 -1.9877 0.9829
3.3631 1.8364 -1.9879 0.9829
3.2956 1.9554 -1.9880 0.9829
3.1481 2.1857 -1.9882 0.9829
2.9845 2.4051 -1.9885 0.9829
2.7109 2.7109 -1.9889 0.9829
2.5110 2.8979 -1.9892 0.9829
2.2983 3.0702 -1.9896 0.9829
2.1875 3.1505 -1.9898 0.9829
1.7175 3.4311 -1.9905 0.9829
1.4686 3.5456 -1.9909 0.9829
1.3413 3.5962 -1.9912 0.9829
1.2122 3.6421 -1.9914 0.9829
1.0816 3.6835 -1.9916 0.9828
0.5466 3.8016 -1.9925 0.9828
0.4106 3.8191 -1.9927 0.9828
0.2740 3.8318 -1.9929 0.9828
-0.1372 3.8404 -1.9936 0.9828
-0.2742 3.8335 -1.9938 0.9828
-0.4109 3.8217 -1.9941 0.9828
-0.5471 3.8051 -1.9943 0.9828
-0.6826 3.7836 -1.9945 0.9828
-0.8173 3.7572 -1.9947 0.9828
-1.0835 3.6901 -1.9952 0.9828
-1.3443 3.6042 -1.9956 0.9828
-1.4723 3.5543 -1.9958 0.9828
-2.1955 3.1621 -1.9971 0.9828
-2.3072 3.0820 -1.9972 0.9828
-2.6241 2.8185 -1.9978 0.9828
-2.8190 2.6245 -1.9981 0.9828
-2.9110 2.5224 -1.9983 0.9828
-2.9995 2.4171 -1.9984 0.9828
-3.0840 2.3087 -1.9986 0.9828
-3.1647 2.1973 -1.9987 0.9828
-3.2413 2.0831 -1.9988 0.9828
-3.3138 1.9662 -1.9990 0.9828
-0.9416 0.4713 -0.5462 0.9953
-0.9326 0.4259 -0.5319 0.9954
-0.9271 0.3840 -0.5206 0.9955
-0.9208 0.3434 -0.5098 0.9956
-0.9268 0.3085 -0.5067 0.9956
-0.9404 0.2761 -0.5085 0.9956
-0.9524 0.2431 -0.5099 0.9956
-0.9715 0.1753 -0.5121 0.9956
-0.9838 0.1058 -0.5133 0.9956
-0.9893 0.0354 -0.5135 0.9955
3.6265 0.1295 -1.9875 0.9836
3.6195 0.2589 -1.9875 0.9836
3.6080 0.3879 -1.9875 0.9836
3.5460 0.7714 -1.9876 0.9836
3.5163 0.8975 -1.9876 0.9836
3.4821 1.0225 -1.9877 0.9836
3.4005 1.2683 -1.9878 0.9836
3.2459 1.6248 -1.9881 0.9836
3.1220 1.8524 -1.9883 0.9836
3.0541 1.9627 -1.9884 0.9836
2.9822 2.0706 -1.9885 0.9836
2.9066 2.1759 -1.9886 0.9836
2.8273 2.2784 -1.9887 0.9836
2.5681 2.5681 -1.9892 0.9836
2.3787 2.7452 -1.9895 0.9836
2.2794 2.8286 -1.9896 0.9836
2.0721 2.9845 -1.9900 0.9836
1.7417 3.1897 -1.9905 0.9836
1.3912 3.3586 -1.9911 0.9836
1.2705 3.4064 -1.9913 0.9836
0.6459 3.5798 -1.9923 0.9835
0.3889 3.6175 -1.9927 0.9835
0.2596 3.6295 -1.9930 0.9835
0.1299 3.6368 -1.9932 0.9835
-0.1299 3.6376 -1.9936 0.9835
-0.2597 3.6311 -1.9938 0.9835
-0.3892 3.6199 -1.9940 0.9835
-0.5182 3.6040 -1.9942 0.9835
-0.7741 3.5587 -1.9947 0.9835
-0.9008 3.5292 -1.9949 0.9835
-1.1505 3.4566 -1.9953 0.9835
-1.2732 3.4137 -1.9955 0.9835
-1.7468 3.1990 -1.9963 0.9835
-1.9709 3.0668 -1.9967 0.9835
-2.4852 2.6693 -1.9976 0.9835
-2.5791 2.5791 -1.9977 0.9835
-2.6698 2.4856 -1.9979 0.9835
-2.7570 2.3889 -1.9980 0.9835
-2.9208 2.1865 -1.9983 0.9835
-2.9972 2.0810 -1.9984 0.9835
-0.8507 0.4645 -0.5309 0.9956
-0.8506 0.3884 -0.5122 0.9957
-0.8479 0.3512 -0.5027 0.9958
-0.8603 0.2863 -0.4966 0.9959
-0.8727 0.2563 -0.4982 0.9959
-0.8932 0.1943 -0.5006 0.9958
-0.9011 0.1626 -0.5015 0.9958
-0.9077 0.1305 -0.5022 0.9958
-0.9127 0.0981 -0.5028 0.9958
-0.9161 0.0655 -0.5030 0.9958
3.4430 0.0000 -1.9878 0.9842
3.4342 0.2456 -1.9878 0.9842
3.4080 0.4900 -1.9878 0.9842
3.3884 0.6113 -1.9879 0.9842
3.3363 0.8515 -1.9879 0.9842
3.3038 0.9701 -1.9880 0.9842
3.1326 1.4306 -1.9883 0.9842
3.0796 1.5415 -1.9883 0.9842
3.0228 1.6506 -1.9884 0.9842
2.6824 2.1616 -1.9890 0.9842
2.6037 2.2562 -1.9891 0.9842
2.4365 2.4365 -1.9894 0.9842
2.3481 2.5221 -1.9895 0.9842
2.2568 2.6045 -1.9897 0.9842
2.0656 2.7593 -1.9900 0.9842
1.7592 2.9650 -1.9905 0.9842
1.3198 3.1863 -1.9912 0.9842
1.2054 3.2317 -1.9914 0.9842
0.9719 3.3101 -1.9918 0.9842
0.8533 3.3430 -1.9920 0.9842
0.7335 3.3717 -1.9922 0.9842
0.4912 3.4161 -1.9926 0.9842
0.2462 3.4431 -1.9930 0.9842
0.1232 3.4501 -1.9932 0.9842
-0.1233 3.4508 -1.9936 0.9842
-0.2464 3.4446 -1.9938 0.9842
-0.3692 3.4339 -1.9940 0.9842
-0.4916 3.4189 -1.9942 0.9842
-0.6133 3.3995 -1.9944 0.9842
-0.8545 3.3478 -1.9948 0.9842
-0.9735 3.3155 -1.9950 0.9842
-1.2078 3.2383 -1.9954 0.9842
-1.3227 3.1934 -1.9956 0.9842
-1.7644 2.9737 -1.9963 0.9842
-1.9724 2.8408 -1.9967 0.9842
-2.2653 2.6143 -1.9972 0.9841
-2.4465 2.4464 -1.9975 0.9841
-2.5324 2.3577 -1.9976 0.9841
-2.6945 2.1714 -1.9979 0.9841
-2.7705 2.0739 -1.9981 0.9841
-0.7696 0.4946 -0.5282 0.9958
-0.7750 0.4599 -0.5203 0.9958
-0.7787 0.4252 -0.5122 0.9959
-0.7806 0.3908 -0.5040 0.9960
-0.8230 0.2101 -0.4904 0.9961
-0.8393 0.1514 -0.4924 0.9961
-0.8499 0.0914 -0.4935 0.9961
-0.8530 0.0610 -0.4938 0.9961
