ply
format ascii 1.0
element vertex 802
property float32 x
property float32 y
property float32 z
property float32 I
end_header
6.7281 2.7869 -0.5340 0.9712
6.4468 2.9441 -0.5197 0.9720
6.3446 3.4644 -0.5300 0.9714
7.6045 2.5310 -0.7694 0.9683
6.3696 2.6384 -0.6619 0.9727
6.0013 2.7407 -0.6334 0.9738
5.8360 3.7505 -0.6660 0.9725
7.2277 2.4056 -0.9049 0.9698
6.6226 2.4701 -0.8396 0.9719
5.8236 2.6595 -0.7605 0.9745
5.5863 2.7963 -0.7421 0.9751
5.4502 3.2337 -0.7528 0.9748
8.7707 2.2386 -1.2826 0.9641
7.0132 2.3342 -1.0473 0.9706
5.9784 2.4763 -0.9169 0.9742
5.3621 2.6841 -0.8496 0.9761
5.1916 2.8348 -0.8381 0.9764
5.0892 3.0196 -0.8385 0.9764
5.0198 3.2260 -0.8455 0.9762
4.9394 3.6975 -0.8742 0.9754
7.6928 2.2588 -1.3208 0.9680
6.3574 2.3712 -1.1178 0.9729
5.8396 2.4188 -1.0413 0.9747
5.4613 2.4941 -0.9891 0.9760
4.9830 2.7209 -0.9353 0.9772
4.8891 2.9008 -0.9365 0.9772
4.8610 3.1239 -0.9519 0.9768
-3.5745 8.6295 -1.5387 0.9628
-3.8179 8.3601 -1.5141 0.9634
8.6710 2.2131 -1.6821 0.9642
6.3194 2.3570 -1.2677 0.9729
5.7602 2.3859 -1.1719 0.9749
5.3972 2.4648 -1.1153 0.9761
4.9288 2.6913 -1.0555 0.9774
4.8586 2.8828 -1.0619 0.9773
4.8225 3.0993 -1.0775 0.9769
5.8651 7.8349 -1.8396 0.9609
5.5778 8.0336 -1.8383 0.9610
4.6773 8.5658 -1.8344 0.9611
4.3656 8.7213 -1.8332 0.9611
4.0487 8.8655 -1.8319 0.9611
3.0716 9.2287 -1.8282 0.9612
2.7385 9.3263 -1.8270 0.9612
2.4023 9.4120 -1.8258 0.9612
2.0635 9.4856 -1.8246 0.9613
1.7225 9.5472 -1.8235 0.9613
1.3798 9.5967 -1.8223 0.9613
1.0358 9.6339 -1.8212 0.9613
0.6908 9.6590 -1.8202 0.9614
0.3454 9.6719 -1.8191 0.9614
0.0000 9.6725 -1.8181 0.9614
-0.6893 9.6374 -1.8161 0.9614
-1.0323 9.6016 -1.8151 0.9615
-3.0412 9.1375 -1.8101 0.9616
-3.5654 8.6077 -1.7512 0.9628
-5.1946 8.0830 -1.8060 0.9616
9.5455 0.3409 -2.0190 0.9617
9.4892 1.0202 -2.0174 0.9617
9.3840 1.6930 -2.0156 0.9618
8.6638 2.2113 -1.8901 0.9641
7.7133 2.2648 -1.6993 0.9677
6.9254 2.3050 -1.5428 0.9706
5.3446 2.4408 -1.2420 0.9763
5.0752 2.5404 -1.1997 0.9771
4.8906 2.6704 -1.1778 0.9775
4.9556 3.9935 -1.3453 0.9743
7.1476 6.1935 -1.9992 0.9621
6.9178 6.4407 -1.9979 0.9621
6.6794 6.6794 -1.9967 0.9621
6.4327 6.9093 -1.9955 0.9621
6.1782 7.1300 -1.9942 0.9622
5.9117 7.3360 -1.9915 0.9622
5.6347 7.5271 -1.9875 0.9623
5.3520 7.7083 -1.9836 0.9624
4.2894 7.8554 -1.8919 0.9641
3.9479 7.8869 -1.8643 0.9646
3.6158 7.9173 -1.8398 0.9650
3.0263 8.1137 -1.8305 0.9652
2.1378 8.3759 -1.8273 0.9653
1.2281 8.5420 -1.8242 0.9653
0.9220 8.5758 -1.8232 0.9654
0.3075 8.6106 -1.8213 0.9654
0.0000 8.6118 -1.8204 0.9654
-0.9192 8.5501 -1.8177 0.9655
-1.2233 8.5081 -1.8169 0.9655
-2.9968 8.0346 -1.8127 0.9655
-3.6289 7.9461 -1.8465 0.9649
-3.9636 7.9182 -1.8717 0.9644
-4.6627 7.8585 -1.9315 0.9633
-5.2745 7.5967 -1.9549 0.9629
-5.5487 7.4122 -1.9572 0.9629
-6.0657 7.0002 -1.9579 0.9628
-7.2092 5.8095 -1.9571 0.9629
-7.4118 5.5484 -1.9571 0.9629
-8.1271 4.4377 -1.9573 0.9629
-8.2810 4.1452 -1.9575 0.9628
-8.5577 3.5447 -1.9580 0.9628
-8.8923 2.6110 -1.9590 0.9628
-9.2797 0.3314 -1.9628 0.9627
8.5816 -0.0000 -2.0169 0.9654
8.4296 1.5209 -2.0131 0.9654
8.3664 1.8200 -2.0123 0.9654
8.2926 2.1165 -2.0114 0.9654
6.9225 2.3040 -1.7147 0.9705
5.7580 2.3850 -1.4648 0.9747
5.3100 2.4250 -1.3720 0.9763
4.8097 2.8537 -1.3144 0.9773
4.7694 3.0651 -1.3324 0.9770
4.7772 3.3169 -1.3668 0.9764
4.9713 4.0061 -1.5005 0.9741
5.7844 6.2128 -1.9950 0.9657
5.5558 6.4118 -1.9939 0.9657
5.3205 6.6023 -1.9928 0.9658
5.0786 6.7842 -1.9917 0.9658
4.8305 6.9572 -1.9906 0.9658
4.5765 7.1212 -1.9895 0.9658
4.0519 7.4204 -1.9870 0.9659
3.2219 7.7783 -1.9787 0.9660
2.9385 7.8783 -1.9762 0.9660
2.6450 7.9468 -1.9684 0.9662
2.3391 7.9661 -1.9513 0.9665
2.0376 7.9831 -1.9364 0.9667
1.7390 7.9940 -1.9227 0.9669
1.4442 8.0044 -1.9116 0.9671
1.1523 8.0142 -1.9029 0.9673
0.8626 8.0235 -1.8966 0.9674
0.5743 8.0298 -1.8920 0.9675
0.2869 8.0315 -1.8888 0.9675
0.0000 8.0327 -1.8879 0.9675
-0.8634 8.0310 -1.8984 0.9674
-1.1536 8.0237 -1.9052 0.9672
-1.4463 8.0160 -1.9144 0.9671
-2.0416 7.9989 -1.9402 0.9666
-2.6331 7.9113 -1.9596 0.9663
-3.1936 7.7101 -1.9614 0.9663
-3.7402 7.4719 -1.9638 0.9662
-4.2618 7.1829 -1.9629 0.9663
-4.5145 7.0247 -1.9625 0.9663
-5.0023 6.6823 -1.9618 0.9663
-5.4647 6.3066 -1.9612 0.9663
-5.6857 6.1068 -1.9610 0.9663
-6.4951 5.2341 -1.9605 0.9663
-7.0175 4.5098 -1.9605 0.9663
-7.1742 4.2567 -1.9606 0.9663
-7.7098 3.1935 -1.9613 0.9663
-7.9203 2.6361 -1.9619 0.9663
-8.0108 2.3521 -1.9622 0.9663
-8.0912 2.0651 -1.9626 0.9663
-8.1615 1.7754 -1.9630 0.9663
-8.3107 0.8935 -1.9645 0.9662
-8.3397 0.5964 -1.9650 0.9662
-8.3582 0.2985 -1.9656 0.9662
7.7804 -0.0000 -2.0145 0.9684
7.7557 0.5547 -2.0132 0.9684
7.7283 0.8309 -2.0125 0.9684
7.6439 1.3791 -2.0111 0.9684
5.2989 2.4199 -1.5083 0.9762
5.0537 2.5297 -1.4633 0.9769
4.8850 2.6674 -1.4411 0.9773
4.8072 2.8522 -1.4473 0.9772
5.5367 4.1447 -1.7907 0.9718
6.0106 4.8437 -1.9987 0.9686
5.2496 5.6385 -1.9947 0.9687
4.8291 5.9925 -1.9927 0.9687
4.6098 6.1579 -1.9917 0.9687
4.3848 6.3153 -1.9906 0.9687
3.6790 6.7376 -1.9876 0.9688
3.4345 6.8612 -1.9866 0.9688
2.9333 7.0817 -1.9846 0.9688
2.4183 7.2658 -1.9827 0.9689
2.1564 7.3439 -1.9818 0.9689
1.8920 7.4127 -1.9808 0.9689
1.3571 7.5218 -1.9790 0.9689
0.8161 7.5908 -1.9767 0.9689
0.2722 7.6215 -1.9746 0.9690
0.0000 7.6232 -1.9738 0.9690
-0.2720 7.6158 -1.9731 0.9690
-0.5435 7.5994 -1.9727 0.9690
-0.8143 7.5739 -1.9723 0.9690
-1.0837 7.5374 -1.9717 0.9690
-1.3516 7.4913 -1.9710 0.9690
-2.4008 7.2134 -1.9684 0.9691
-3.3994 6.7911 -1.9663 0.9691
-3.6388 6.6640 -1.9659 0.9691
-3.8736 6.5285 -1.9655 0.9691
-4.1033 6.3849 -1.9651 0.9691
-4.5469 6.0739 -1.9645 0.9691
-4.7601 5.9069 -1.9642 0.9691
-5.3626 5.3625 -1.9636 0.9692
-5.9041 4.7578 -1.9633 0.9692
-6.3789 4.0995 -1.9633 0.9692
-6.5214 3.8693 -1.9634 0.9692
-6.6558 3.6343 -1.9635 0.9692
-6.7817 3.3947 -1.9636 0.9691
-7.0080 2.9028 -1.9640 0.9691
-7.4180 1.6136 -1.9656 0.9691
-7.5175 1.0808 -1.9664 0.9691
-7.5531 0.8120 -1.9669 0.9691
-7.5792 0.5421 -1.9674 0.9691
7.1024 0.2537 -2.0119 0.9709
7.0867 0.5069 -2.0113 0.9709
7.0619 0.7592 -2.0107 0.9709
6.9333 1.5082 -2.0087 0.9709
6.8032 1.9976 -2.0072 0.9710
6.6383 2.4759 -2.0057 0.9710
5.2968 2.4190 -1.6485 0.9761
5.0596 2.5326 -1.6018 0.9768
6.0806 3.6078 -2.0016 0.9710
5.9454 3.8209 -2.0007 0.9710
5.7042 3.9605 -1.9659 0.9715
5.6527 4.2316 -1.9990 0.9711
5.3316 4.6199 -1.9971 0.9711
4.6114 5.3218 -1.9935 0.9712
3.8000 5.9129 -1.9898 0.9712
3.3654 6.1632 -1.9879 0.9712
3.1418 6.2765 -1.9870 0.9712
2.9145 6.3817 -1.9861 0.9713
2.6836 6.4787 -1.9852 0.9713
1.9730 6.7195 -1.9826 0.9713
1.4874 6.8372 -1.9809 0.9713
1.2418 6.8831 -1.9800 0.9713
0.7470 6.9485 -1.9784 0.9714
0.2492 6.9786 -1.9768 0.9714
-0.0000 6.9804 -1.9761 0.9714
-0.2490 6.9733 -1.9754 0.9714
-0.4976 6.9575 -1.9747 0.9714
-0.7454 6.9329 -1.9740 0.9714
-1.7222 6.7477 -1.9715 0.9715
-2.4317 6.5195 -1.9698 0.9715
-2.8892 6.3264 -1.9689 0.9715
-3.3317 6.1016 -1.9680 0.9715
-4.1634 5.5616 -1.9667 0.9715
-4.3586 5.4087 -1.9665 0.9715
-4.5484 5.2492 -1.9663 0.9715
-5.0822 4.7317 -1.9658 0.9715
-5.2476 4.5471 -1.9657 0.9715
-5.4064 4.3568 -1.9656 0.9715
-5.5584 4.1610 -1.9656 0.9715
-5.7034 3.9599 -1.9656 0.9715
-5.8412 3.7539 -1.9656 0.9715
-6.0946 3.3279 -1.9658 0.9715
-6.3175 2.8851 -1.9661 0.9715
-6.4170 2.6580 -1.9663 0.9715
-6.5086 2.4275 -1.9665 0.9715
-6.5919 2.1940 -1.9668 0.9715
-6.6670 1.9576 -1.9671 0.9715
-6.7337 1.7187 -1.9674 0.9715
-6.8417 1.2344 -1.9681 0.9715
-6.9153 0.7434 -1.9690 0.9715
-6.9391 0.4963 -1.9694 0.9715
6.5374 0.0000 -2.0108 0.9730
6.5316 0.2333 -2.0102 0.9730
6.5173 0.4661 -2.0097 0.9730
6.4637 0.9293 -2.0085 0.9730
6.4244 1.1591 -2.0079 0.9730
6.3769 1.3872 -2.0073 0.9731
6.3213 1.6134 -2.0066 0.9731
6.1859 2.0588 -2.0053 0.9731
6.1063 2.2775 -2.0045 0.9731
5.4773 2.5014 -1.8521 0.9751
5.4701 3.5154 -2.0000 0.9732
5.2011 3.8935 -1.9983 0.9732
4.9060 4.2511 -1.9967 0.9732
4.5864 4.5864 -1.9950 0.9732
3.8804 5.1835 -1.9916 0.9733
3.6913 5.3165 -1.9907 0.9733
3.2998 5.5615 -1.9890 0.9733
2.0371 6.1204 -1.9840 0.9734
1.5940 6.2451 -1.9825 0.9734
1.3695 6.2956 -1.9817 0.9734
0.4589 6.4167 -1.9787 0.9734
0.0000 6.4286 -1.9773 0.9735
-0.2294 6.4223 -1.9766 0.9735
-0.4583 6.4079 -1.9760 0.9735
-1.1396 6.3163 -1.9741 0.9735
-1.3639 6.2698 -1.9736 0.9735
-1.8067 6.1532 -1.9725 0.9735
-2.0247 6.0832 -1.9720 0.9735
-2.6615 5.8280 -1.9706 0.9735
-2.8673 5.7281 -1.9702 0.9735
-3.4613 5.3860 -1.9692 0.9736
-4.0156 4.9831 -1.9684 0.9736
-4.1905 4.8361 -1.9682 0.9736
-4.6824 4.3595 -1.9678 0.9736
-4.9811 4.0140 -1.9676 0.9736
-5.1212 3.8336 -1.9676 0.9736
-5.2547 3.6484 -1.9676 0.9736
-5.7214 2.8639 -1.9679 0.9736
-5.8204 2.6581 -1.9681 0.9736
-5.9121 2.4488 -1.9683 0.9736
-6.2036 1.5833 -1.9693 0.9736
-6.2572 1.3612 -1.9696 0.9736
-6.3029 1.1371 -1.9699 0.9736
-6.4060 0.2288 -1.9716 0.9735
6.0447 -0.0000 -2.0093 0.9748
6.0394 0.2157 -2.0088 0.9748
6.0263 0.4310 -2.0083 0.9749
6.0056 0.6457 -2.0078 0.9749
5.9409 1.0719 -2.0067 0.9749
5.8971 1.2828 -2.0061 0.9749
5.7208 1.9041 -2.0042 0.9749
5.5667 2.3058 -2.0029 0.9749
5.4790 2.5022 -2.0022 0.9749
5.3843 2.6952 -2.0015 0.9749
5.2828 2.8846 -2.0008 0.9749
5.1746 3.0702 -2.0000 0.9750
5.0599 3.2518 -1.9993 0.9750
4.9387 3.4290 -1.9986 0.9750
4.8114 3.6017 -1.9978 0.9750
4.6780 3.7697 -1.9970 0.9750
4.5387 3.9328 -1.9963 0.9750
4.2432 4.2432 -1.9947 0.9750
4.0875 4.3902 -1.9939 0.9750
3.9266 4.5315 -1.9931 0.9750
3.5905 4.7963 -1.9916 0.9751
3.4157 4.9195 -1.9908 0.9751
3.2366 5.0363 -1.9900 0.9751
2.0872 5.5960 -1.9853 0.9751
1.0585 5.8669 -1.9817 0.9752
0.6368 5.9233 -1.9803 0.9752
-0.2124 5.9459 -1.9777 0.9752
-1.0551 5.8483 -1.9754 0.9753
-1.4689 5.7551 -1.9744 0.9753
-1.6730 5.6976 -1.9739 0.9753
-1.8748 5.6330 -1.9734 0.9753
-2.2709 5.4825 -1.9726 0.9753
-2.4647 5.3968 -1.9722 0.9753
-2.6552 5.3044 -1.9718 0.9753
-2.8424 5.2054 -1.9715 0.9753
-3.0258 5.0998 -1.9711 0.9753
-3.2055 4.9878 -1.9708 0.9753
-3.3810 4.8695 -1.9706 0.9753
-3.5522 4.7452 -1.9703 0.9753
-3.7189 4.6149 -1.9701 0.9753
-3.8809 4.4788 -1.9699 0.9753
-4.0379 4.3370 -1.9698 0.9753
-4.3365 4.0374 -1.9695 0.9753
-4.8666 3.3789 -1.9694 0.9753
-5.0955 3.0232 -1.9695 0.9753
-5.2004 2.8396 -1.9695 0.9753
-5.2987 2.6523 -1.9696 0.9753
-5.3903 2.4617 -1.9698 0.9753
-5.4752 2.2679 -1.9700 0.9753
-5.5533 2.0713 -1.9701 0.9753
-5.6243 1.8719 -1.9704 0.9753
-5.6882 1.6702 -1.9706 0.9753
-5.7946 1.2605 -1.9712 0.9753
-5.8717 0.8442 -1.9719 0.9753
-5.8992 0.6342 -1.9722 0.9753
-5.9193 0.4233 -1.9726 0.9753
5.6151 0.0000 -2.0080 0.9764
5.6103 0.2004 -2.0076 0.9764
5.5983 0.4004 -2.0071 0.9764
5.5791 0.5998 -2.0066 0.9764
5.5527 0.7983 -2.0061 0.9765
5.5192 0.9957 -2.0056 0.9765
5.4311 1.3862 -2.0045 0.9765
5.0909 2.3249 -2.0014 0.9765
5.0031 2.5044 -2.0008 0.9765
4.9089 2.6804 -2.0001 0.9765
4.8084 2.8530 -1.9994 0.9765
4.5895 3.1865 -1.9980 0.9765
4.4713 3.3471 -1.9973 0.9766
4.3474 3.5033 -1.9966 0.9766
4.2181 3.6550 -1.9959 0.9766
4.0835 3.8018 -1.9952 0.9766
3.4957 4.3379 -1.9923 0.9766
3.1750 4.5728 -1.9908 0.9766
3.0087 4.6815 -1.9901 0.9766
2.8386 4.7842 -1.9893 0.9766
2.6651 4.8807 -1.9886 0.9767
1.9405 5.2028 -1.9858 0.9767
1.7530 5.2668 -1.9851 0.9767
1.1787 5.4185 -1.9830 0.9767
0.5922 5.5080 -1.9811 0.9767
0.3951 5.5239 -1.9804 0.9767
0.1976 5.5328 -1.9798 0.9768
-0.1975 5.5295 -1.9787 0.9768
-0.3946 5.5174 -1.9781 0.9768
-0.5911 5.4982 -1.9775 0.9768
-0.7868 5.4722 -1.9770 0.9768
-0.9813 5.4392 -1.9765 0.9768
-1.1746 5.3994 -1.9760 0.9768
-1.5560 5.2993 -1.9751 0.9768
-1.7438 5.2393 -1.9747 0.9768
-1.9293 5.1726 -1.9743 0.9768
-2.2925 5.0199 -1.9735 0.9768
-2.4698 4.9340 -1.9732 0.9768
-2.6439 4.8419 -1.9728 0.9768
-2.8146 4.7438 -1.9725 0.9768
-2.9817 4.6396 -1.9723 0.9768
-3.6101 4.1663 -1.9714 0.9769
-3.7562 4.0345 -1.9713 0.9769
-4.0340 3.7558 -1.9710 0.9769
-4.1653 3.6093 -1.9710 0.9769
-4.2914 3.4582 -1.9709 0.9769
-4.4120 3.3028 -1.9709 0.9769
-4.6365 2.9797 -1.9709 0.9769
-4.7400 2.8124 -1.9710 0.9769
-5.0143 2.2899 -1.9713 0.9769
-5.0932 2.1097 -1.9714 0.9769
-5.4293 0.9795 -1.9729 0.9768
-5.4617 0.7852 -1.9732 0.9768
-5.5058 0.3938 -1.9739 0.9768
5.2214 0.3734 -2.0060 0.9778
5.2035 0.5594 -2.0056 0.9778
5.1479 0.9288 -2.0046 0.9778
5.0151 1.4726 -2.0030 0.9779
4.9580 1.6502 -2.0025 0.9779
4.8249 1.9985 -2.0013 0.9779
4.7491 2.1688 -2.0007 0.9779
4.6672 2.3362 -2.0001 0.9779
4.5794 2.5006 -1.9995 0.9779
4.4858 2.6616 -1.9989 0.9779
4.2818 2.9729 -1.9976 0.9779
4.1716 3.1228 -1.9969 0.9779
4.0561 3.2686 -1.9963 0.9779
3.9356 3.4101 -1.9956 0.9779
3.5449 3.8074 -1.9936 0.9780
2.9629 4.2673 -1.9908 0.9780
2.6491 4.4647 -1.9895 0.9780
1.8112 4.8559 -1.9861 0.9780
1.4592 4.9695 -1.9848 0.9781
1.2805 5.0168 -1.9842 0.9781
1.1003 5.0577 -1.9836 0.9781
0.9187 5.0922 -1.9829 0.9781
0.5528 5.1417 -1.9817 0.9781
0.3688 5.1566 -1.9812 0.9781
-0.3684 5.1509 -1.9790 0.9781
-0.9162 5.0782 -1.9775 0.9781
-1.0966 5.0411 -1.9770 0.9781
-1.2756 4.9976 -1.9766 0.9781
-1.6282 4.8919 -1.9758 0.9782
-1.8014 4.8297 -1.9754 0.9782
-1.9723 4.7614 -1.9750 0.9782
-2.6282 4.4295 -1.9738 0.9782
-2.9367 4.2297 -1.9733 0.9782
-3.0855 4.1217 -1.9731 0.9782
-3.2303 4.0086 -1.9729 0.9782
-3.3711 3.8904 -1.9727 0.9782
-3.5075 3.7674 -1.9726 0.9782
-3.6396 3.6395 -1.9725 0.9782
-4.0073 3.2293 -1.9723 0.9782
-4.3296 2.7825 -1.9723 0.9782
-4.6823 2.1383 -1.9726 0.9782
-4.7560 1.9700 -1.9728 0.9782
-4.8237 1.7991 -1.9729 0.9782
-4.8853 1.6260 -1.9731 0.9782
-4.9900 1.2736 -1.9736 0.9782
-5.0695 0.9146 -1.9741 0.9782
-5.1235 0.5508 -1.9747 0.9782
-5.1516 0.1840 -1.9754 0.9782
4.8866 0.3495 -2.0051 0.9790
4.8471 0.6969 -2.0042 0.9791
4.8181 0.8693 -2.0037 0.9791
4.6407 1.5446 -2.0018 0.9791
4.4454 2.0301 -2.0001 0.9791
4.3688 2.1869 -1.9995 0.9791
4.2867 2.3407 -1.9990 0.9791
4.1064 2.6390 -1.9978 0.9791
4.0084 2.7830 -1.9972 0.9791
3.7973 3.0600 -1.9959 0.9791
3.4452 3.4451 -1.9941 0.9792
3.3189 3.5648 -1.9934 0.9792
2.4805 4.1807 -1.9896 0.9792
2.3290 4.2652 -1.9889 0.9792
2.1746 4.3442 -1.9883 0.9792
2.0175 4.4177 -1.9877 0.9792
1.6962 4.5475 -1.9864 0.9792
1.1992 4.6985 -1.9846 0.9793
1.0304 4.7369 -1.9840 0.9793
0.8605 4.7693 -1.9835 0.9793
0.6895 4.7956 -1.9829 0.9793
0.0000 4.8396 -1.9807 0.9793
-0.1727 4.8353 -1.9802 0.9793
-0.3451 4.8248 -1.9797 0.9793
-0.5169 4.8083 -1.9793 0.9793
-0.6881 4.7857 -1.9788 0.9793
-0.8583 4.7570 -1.9784 0.9793
-1.0273 4.7223 -1.9779 0.9793
-1.1949 4.6816 -1.9775 0.9793
-1.3610 4.6351 -1.9771 0.9793
-2.1605 4.3161 -1.9754 0.9794
-2.3128 4.2356 -1.9751 0.9794
-2.4622 4.1498 -1.9749 0.9794
-2.6084 4.0588 -1.9746 0.9794
-2.7513 3.9627 -1.9744 0.9794
-2.8907 3.8616 -1.9742 0.9794
-3.1583 3.6449 -1.9739 0.9794
-3.2862 3.5296 -1.9738 0.9794
-3.5293 3.2858 -1.9736 0.9794
-3.6442 3.1577 -1.9735 0.9794
-3.7545 3.0255 -1.9735 0.9794
-3.8600 2.8896 -1.9734 0.9794
-4.3868 2.0034 -1.9738 0.9794
-4.4558 1.8457 -1.9739 0.9794
-4.5192 1.6856 -1.9741 0.9794
-4.5769 1.5233 -1.9743 0.9794
-4.6289 1.3592 -1.9745 0.9794
-4.6750 1.1932 -1.9747 0.9794
-4.7151 1.0257 -1.9749 0.9794
-4.7998 0.5160 -1.9758 0.9794
-4.8160 0.3444 -1.9761 0.9793
-4.8260 0.1724 -1.9764 0.9793
4.5715 0.4915 -2.0038 0.9801
4.3567 1.4500 -2.0011 0.9802
4.3011 1.6042 -2.0006 0.9802
4.2400 1.7563 -2.0001 0.9802
4.1735 1.9060 -1.9996 0.9802
4.1017 2.0532 -1.9990 0.9802
3.8555 2.4778 -1.9974 0.9802
3.7636 2.6131 -1.9968 0.9802
3.6668 2.7450 -1.9962 0.9802
3.4597 2.9978 -1.9951 0.9802
3.3495 3.1184 -1.9945 0.9802
3.1166 3.3475 -1.9933 0.9802
2.6053 3.7524 -1.9909 0.9803
2.4690 3.8418 -1.9903 0.9803
2.3296 3.9263 -1.9897 0.9803
1.8948 4.1491 -1.9879 0.9803
1.5931 4.2712 -1.9867 0.9803
1.2836 4.3714 -1.9856 0.9803
1.1264 4.4132 -1.9850 0.9803
0.9679 4.4494 -1.9845 0.9803
0.8083 4.4799 -1.9839 0.9803
0.4863 4.5237 -1.9829 0.9803
0.3245 4.5370 -1.9824 0.9803
0.0000 4.5463 -1.9814 0.9804
-0.3242 4.5326 -1.9804 0.9804
-0.4856 4.5171 -1.9800 0.9804
-1.2787 4.3547 -1.9780 0.9804
-1.4330 4.3055 -1.9776 0.9804
-1.8841 4.1256 -1.9767 0.9804
-2.0299 4.0553 -1.9764 0.9804
-2.1730 3.9796 -1.9761 0.9804
-2.4508 3.8135 -1.9756 0.9804
-2.7161 3.6283 -1.9753 0.9804
-2.9675 3.4247 -1.9749 0.9804
-3.3161 3.0874 -1.9746 0.9804
-3.8114 2.4494 -1.9745 0.9804
-3.8965 2.3119 -1.9746 0.9804
-4.0518 2.0282 -1.9747 0.9804
-4.1218 1.8824 -1.9748 0.9804
-4.1867 1.7342 -1.9750 0.9804
-1.5118 0.5638 -0.7032 0.9930
-1.3722 0.4029 -0.6233 0.9938
-1.3688 0.2978 -0.6105 0.9939
-1.3955 0.2518 -0.6180 0.9938
-1.4180 0.2039 -0.6244 0.9938
-1.4359 0.1544 -0.6294 0.9937
-1.4490 0.1036 -0.6331 0.9937
-1.4571 0.0520 -0.6354 0.9937
4.3297 -0.0000 -2.0042 0.9811
4.3262 0.1545 -2.0038 0.9811
4.3172 0.3088 -2.0035 0.9811
4.3026 0.4626 -2.0031 0.9811
4.2570 0.7680 -2.0023 0.9811
4.2259 0.9193 -2.0019 0.9811
4.1895 1.0693 -2.0014 0.9811
3.9910 1.6531 -1.9996 0.9811
3.9285 1.7941 -1.9991 0.9811
3.8610 1.9326 -1.9986 0.9811
3.7886 2.0687 -1.9981 0.9812
3.4519 2.5841 -1.9959 0.9812
3.2570 2.8222 -1.9948 0.9812
3.0457 3.0456 -1.9937 0.9812
2.9342 3.1515 -1.9932 0.9812
2.8190 3.2533 -1.9926 0.9812
2.5783 3.4442 -1.9915 0.9812
2.1935 3.6969 -1.9898 0.9812
1.9231 3.8418 -1.9887 0.9812
1.6432 3.9669 -1.9875 0.9813
1.3552 4.0718 -1.9865 0.9813
1.0608 4.1559 -1.9854 0.9813
0.7612 4.2188 -1.9844 0.9813
0.3056 4.2728 -1.9829 0.9813
0.0000 4.2817 -1.9819 0.9813
-0.1528 4.2780 -1.9815 0.9813
-0.3053 4.2689 -1.9811 0.9813
-0.4574 4.2544 -1.9806 0.9813
-0.6088 4.2345 -1.9802 0.9813
-0.7594 4.2092 -1.9798 0.9813
-0.9090 4.1786 -1.9795 0.9813
-1.3497 4.0554 -1.9784 0.9813
-1.4934 4.0040 -1.9781 0.9813
-1.6351 3.9475 -1.9778 0.9813
-1.7747 3.8860 -1.9775 0.9813
-2.0469 3.7486 -1.9770 0.9814
-2.3086 3.5922 -1.9765 0.9814
-2.4351 3.5072 -1.9764 0.9814
-2.5585 3.4177 -1.9762 0.9814
-2.6786 3.3239 -1.9760 0.9814
-2.7954 3.2260 -1.9759 0.9814
-3.1237 2.9083 -1.9756 0.9814
-3.3231 2.6779 -1.9755 0.9814
-3.8167 1.9105 -1.9757 0.9814
-1.2345 0.5113 -0.6185 0.9941
-1.2017 0.4482 -0.5937 0.9944
-1.1536 0.3839 -0.5628 0.9947
-1.1574 0.2954 -0.5529 0.9947
-1.1790 0.2565 -0.5585 0.9947
-1.2260 0.1318 -0.5708 0.9946
-1.2424 0.0443 -0.5755 0.9945
4.0843 -0.0000 -2.0034 0.9820
4.0725 0.2913 -2.0028 0.9820
4.0588 0.4364 -2.0024 0.9820
3.9866 0.8672 -2.0013 0.9820
3.9523 1.0087 -2.0009 0.9820
3.8194 1.4246 -1.9996 0.9820
3.7063 1.6926 -1.9986 0.9820
3.5744 1.9518 -1.9977 0.9820
3.4244 2.2007 -1.9967 0.9820
3.2570 2.4381 -1.9957 0.9820
3.1671 2.5522 -1.9952 0.9820
3.0731 2.6629 -1.9946 0.9820
2.9754 2.7702 -1.9941 0.9821
2.8738 2.8738 -1.9936 0.9821
2.6601 3.0699 -1.9925 0.9821
2.4330 3.2501 -1.9915 0.9821
2.1937 3.4135 -1.9904 0.9821
2.0700 3.4887 -1.9899 0.9821
1.9436 3.5594 -1.9893 0.9821
1.8148 3.6256 -1.9888 0.9821
1.4158 3.7958 -1.9872 0.9821
1.1408 3.8851 -1.9862 0.9821
0.8603 3.9547 -1.9852 0.9821
0.7184 3.9819 -1.9847 0.9821
0.5757 4.0040 -1.9843 0.9821
0.4323 4.0211 -1.9838 0.9821
0.2885 4.0330 -1.9834 0.9821
-0.0000 4.0415 -1.9825 0.9822
-0.1442 4.0381 -1.9820 0.9822
-0.2882 4.0295 -1.9816 0.9822
-0.5747 3.9971 -1.9808 0.9822
-0.7169 3.9733 -1.9805 0.9822
-0.8581 3.9445 -1.9801 0.9822
-1.1369 3.8719 -1.9794 0.9822
-1.2742 3.8282 -1.9791 0.9822
-1.4098 3.7797 -1.9788 0.9822
-1.6754 3.6685 -1.9783 0.9822
-2.0572 3.4672 -1.9776 0.9822
-2.1794 3.3912 -1.9774 0.9822
-2.4153 3.2265 -1.9770 0.9822
-2.8492 2.8492 -1.9765 0.9822
-3.1372 2.5281 -1.9764 0.9822
-3.3096 2.2979 -1.9764 0.9822
-3.3895 2.1783 -1.9764 0.9822
-3.4652 2.0560 -1.9764 0.9822
-1.0588 0.5300 -0.5808 0.9947
-1.0290 0.4262 -0.5463 0.9951
-1.0119 0.3774 -0.5298 0.9952
-1.0175 0.2987 -0.5202 0.9953
-1.0422 0.2267 -0.5232 0.9953
-1.0611 0.1526 -0.5258 0.9952
-1.0769 0.0770 -0.5296 0.9952
-1.0803 0.0386 -0.5302 0.9952
3.8575 0.1378 -2.0025 0.9828
3.8495 0.2753 -2.0021 0.9828
3.8366 0.4125 -2.0018 0.9828
3.7960 0.6849 -2.0011 0.9828
3.7361 0.9536 -2.0003 0.9828
3.6571 1.2172 -1.9995 0.9828
3.5594 1.4743 -1.9987 0.9828
3.5037 1.6001 -1.9982 0.9828
3.4436 1.7238 -1.9978 0.9828
3.3791 1.8451 -1.9973 0.9828
3.3103 1.9641 -1.9969 0.9828
3.0792 2.3051 -1.9954 0.9828
2.9942 2.4129 -1.9950 0.9828
2.8131 2.6190 -1.9940 0.9828
2.7171 2.7171 -1.9935 0.9828
2.5151 2.9026 -1.9925 0.9828
2.0743 3.2277 -1.9904 0.9829
1.9573 3.2988 -1.9899 0.9829
1.8379 3.3657 -1.9894 0.9829
1.4664 3.5403 -1.9879 0.9829
1.3388 3.5894 -1.9875 0.9829
1.2095 3.6341 -1.9870 0.9829
0.9468 3.7093 -1.9860 0.9829
0.8136 3.7399 -1.9856 0.9829
0.5444 3.7867 -1.9847 0.9829
0.1365 3.8207 -1.9834 0.9829
0.0000 3.8223 -1.9829 0.9829
-0.1364 3.8191 -1.9825 0.9829
-0.4083 3.7982 -1.9818 0.9829
-0.5436 3.7805 -1.9814 0.9829
-0.6780 3.7580 -1.9811 0.9829
-1.3334 3.5751 -1.9795 0.9830
-1.4600 3.5247 -1.9792 0.9830
-1.8278 3.3473 -1.9785 0.9830
-2.0615 3.2077 -1.9781 0.9830
-2.1745 3.1318 -1.9779 0.9830
-2.3920 2.9683 -1.9777 0.9830
-2.4962 2.8808 -1.9775 0.9830
-2.7895 2.5971 -1.9773 0.9830
-3.0510 2.2840 -1.9772 0.9830
-3.1306 2.1736 -1.9772 0.9830
-0.9416 0.4713 -0.5463 0.9953
-0.9268 0.3085 -0.5067 0.9956
-0.9628 0.2094 -0.5112 0.9956
-0.9715 0.1753 -0.5121 0.9956
-0.9838 0.1058 -0.5133 0.9956
3.6527 0.1304 -2.0019 0.9835
3.6452 0.2607 -2.0016 0.9835
3.6161 0.5199 -2.0009 0.9835
3.5946 0.6485 -2.0006 0.9835
3.5028 1.0285 -1.9995 0.9835
3.4632 1.1526 -1.9991 0.9835
3.4191 1.2753 -1.9987 0.9835
3.3708 1.3962 -1.9983 0.9835
3.3181 1.5153 -1.9979 0.9835
3.2002 1.7474 -1.9970 0.9835
3.0660 1.9704 -1.9961 0.9835
2.9163 2.1831 -1.9952 0.9835
2.7518 2.3845 -1.9943 0.9835
2.6643 2.4806 -1.9938 0.9835
2.3822 2.7492 -1.9924 0.9835
2.2820 2.8318 -1.9919 0.9836
2.1790 2.9107 -1.9914 0.9836
2.0732 2.9859 -1.9910 0.9836
1.6256 3.2475 -1.9891 0.9836
1.3891 3.3536 -1.9881 0.9836
1.1458 3.4425 -1.9872 0.9836
0.8969 3.5139 -1.9863 0.9836
0.6436 3.5674 -1.9854 0.9836
0.3873 3.6027 -1.9846 0.9836
0.2584 3.6135 -1.9842 0.9836
0.0000 3.6212 -1.9834 0.9836
-0.1292 3.6183 -1.9830 0.9836
-0.2583 3.6107 -1.9826 0.9836
-0.3869 3.5985 -1.9823 0.9836
-0.6424 3.5605 -1.9816 0.9836
-0.7689 3.5347 -1.9813 0.9836
-0.8945 3.5045 -1.9810 0.9836
-1.0188 3.4698 -1.9807 0.9836
-1.1419 3.4308 -1.9804 0.9836
-1.7318 3.1716 -1.9792 0.9837
-1.8437 3.1074 -1.9790 0.9837
-2.1648 2.8918 -1.9785 0.9837
-2.2665 2.8125 -1.9784 0.9837
-2.4611 2.6434 -1.9781 0.9837
-2.5538 2.5537 -1.9781 0.9837
-2.6432 2.4609 -1.9780 0.9837
-2.8119 2.2660 -1.9779 0.9837
-2.9664 2.0596 -1.9779 0.9837
-3.0380 1.9524 -1.9779 0.9837
-0.8506 0.3884 -0.5122 0.9957
-0.8479 0.3512 -0.5027 0.9958
-0.8465 0.3157 -0.4948 0.9959
-0.8603 0.2863 -0.4966 0.9959
-0.8727 0.2562 -0.4982 0.9959
-0.8932 0.1943 -0.5006 0.9958
-0.9077 0.1305 -0.5022 0.9958
-0.9161 0.0655 -0.5030 0.9958
3.4642 0.1237 -2.0013 0.9841
3.4455 0.3704 -2.0007 0.9841
3.4296 0.4931 -2.0004 0.9841
3.4092 0.6151 -2.0001 0.9841
3.3555 0.8564 -1.9994 0.9841
3.2847 1.0932 -1.9987 0.9841
3.1971 1.3243 -1.9979 0.9841
3.1472 1.4372 -1.9975 0.9841
3.0932 1.5483 -1.9971 0.9842
2.9737 1.7643 -1.9963 0.9842
2.7662 2.0708 -1.9950 0.9842
2.6103 2.2618 -1.9941 0.9842
2.3520 2.5262 -1.9928 0.9842
2.0671 2.7613 -1.9914 0.9842
1.7588 2.9644 -1.9901 0.9842
1.6515 3.0246 -1.9896 0.9842
1.5422 3.0809 -1.9892 0.9842
0.8509 3.3339 -1.9865 0.9842
0.7312 3.3615 -1.9861 0.9842
0.6107 3.3847 -1.9857 0.9842
0.2452 3.4285 -1.9845 0.9842
0.1227 3.4345 -1.9842 0.9843
-0.1226 3.4332 -1.9834 0.9843
-0.2450 3.4260 -1.9831 0.9843
-0.3671 3.4145 -1.9827 0.9843
-0.4887 3.3987 -1.9824 0.9843
-0.6096 3.3785 -1.9821 0.9843
-0.7296 3.3541 -1.9818 0.9843
-0.9668 3.2925 -1.9812 0.9843
-1.1989 3.2143 -1.9807 0.9843
-1.4248 3.1199 -1.9802 0.9843
-1.5351 3.0667 -1.9800 0.9843
-1.6434 3.0096 -1.9798 0.9843
-1.7496 2.9488 -1.9796 0.9843
-1.9552 2.8160 -1.9793 0.9843
-2.1508 2.6690 -1.9790 0.9843
-2.3355 2.5085 -1.9788 0.9843
-2.4234 2.4234 -1.9787 0.9843
-2.5083 2.3353 -1.9787 0.9843
-2.5900 2.2443 -1.9786 0.9843
-0.7696 0.4946 -0.5282 0.9958
-0.7887 0.2942 -0.4860 0.9961
-0.8014 0.2667 -0.4876 0.9961
-0.8318 0.1809 -0.4915 0.9961
-0.8393 0.1514 -0.4924 0.9961
-0.8499 0.0914 -0.4935 0.9961
-0.8530 0.0610 -0.4938 0.9961
-0.8547 0.0305 -0.4938 0.9961
