ply
format ascii 1.0
element vertex 720
property float32 x
property float32 y
property float32 z
property float32 I
end_header
-9.1729 0.0000 -1.9390 0.9632
-9.1224 -0.9808 -1.9394 0.9632
-8.8967 -2.2707 -1.9409 0.9632
-8.8123 -2.5875 -1.9414 0.9631
-8.0791 -4.4115 -1.9458 0.9631
-7.9203 -4.6993 -1.9467 0.9630
-7.7514 -4.9815 -1.9477 0.9630
-7.5727 -5.2578 -1.9487 0.9630
-6.7636 -6.2971 -1.9534 0.9629
-6.5388 -6.5388 -1.9547 0.9629
-6.3056 -6.7727 -1.9560 0.9629
-6.0641 -6.9984 -1.9574 0.9628
-5.8147 -7.2156 -1.9588 0.9628
-5.5576 -7.4241 -1.9603 0.9628
-5.2932 -7.6236 -1.9618 0.9628
-5.0217 -7.8138 -1.9634 0.9627
-4.7434 -7.9945 -1.9649 0.9627
-2.9508 -8.8656 -1.9751 0.9625
-1.9916 -9.1552 -1.9805 0.9624
-1.6651 -9.2290 -1.9823 0.9624
-1.0043 -9.3417 -1.9860 0.9623
-0.6709 -9.3804 -1.9879 0.9623
-0.3360 -9.4072 -1.9898 0.9622
1.3460 -9.3613 -1.9991 0.9621
1.6808 -9.3160 -2.0010 0.9620
2.0141 -9.2586 -2.0029 0.9620
2.3454 -9.1892 -2.0047 0.9620
3.0004 -9.0148 -2.0083 0.9619
3.6423 -8.7933 -2.0119 0.9618
3.9572 -8.6651 -2.0136 0.9618
5.1671 -8.0402 -2.0203 0.9617
5.4551 -7.8568 -2.0218 0.9616
6.0107 -7.4588 -2.0249 0.9616
6.5367 -7.0209 -2.0277 0.9615
6.7877 -6.7877 -2.0291 0.9615
7.2639 -6.2942 -2.0317 0.9615
7.7034 -5.7667 -2.0340 0.9614
7.9086 -5.4910 -2.0351 0.9614
8.2884 -4.9177 -2.0372 0.9614
8.7777 -4.0086 -2.0398 0.9613
8.9184 -3.6941 -2.0405 0.9613
9.0475 -3.3745 -2.0412 0.9613
9.2704 -2.7220 -2.0423 0.9613
9.3638 -2.3900 -2.0428 0.9613
9.6455 -0.6899 -2.0441 0.9612
9.6642 -0.3452 -2.0441 0.9612
-8.2715 -0.0000 -1.9440 0.9666
-8.2665 -0.2953 -1.9441 0.9666
-8.2258 -0.8844 -1.9444 0.9666
-8.1900 -1.1775 -1.9446 0.9666
-8.1440 -1.4693 -1.9449 0.9666
-8.0217 -2.0473 -1.9457 0.9666
-7.2827 -3.9766 -1.9501 0.9665
-6.8252 -4.7388 -1.9528 0.9664
-6.6551 -4.9819 -1.9538 0.9664
-6.2895 -5.4499 -1.9559 0.9664
-6.0945 -5.6742 -1.9570 0.9664
-5.8916 -5.8916 -1.9582 0.9663
-5.6810 -6.1019 -1.9594 0.9663
-5.0061 -6.6873 -1.9633 0.9663
-4.7675 -6.8665 -1.9646 0.9662
-4.5226 -7.0373 -1.9660 0.9662
-3.4854 -7.6321 -1.9719 0.9661
-3.2133 -7.7577 -1.9734 0.9661
-2.6559 -7.9798 -1.9766 0.9660
-2.3713 -8.0761 -1.9782 0.9660
-1.4982 -8.3038 -1.9831 0.9659
-0.6035 -8.4377 -1.9881 0.9658
0.3027 -8.4754 -1.9932 0.9658
0.6055 -8.4663 -1.9949 0.9657
0.9081 -8.4465 -1.9966 0.9657
1.5109 -8.3742 -1.9999 0.9656
1.8103 -8.3218 -2.0016 0.9656
2.1079 -8.2587 -2.0032 0.9656
2.6961 -8.1004 -2.0065 0.9655
2.9859 -8.0054 -2.0081 0.9655
3.2723 -7.9000 -2.0097 0.9655
4.1074 -7.5221 -2.0143 0.9654
4.3765 -7.3761 -2.0157 0.9654
5.1507 -6.8805 -2.0200 0.9653
5.3966 -6.6967 -2.0213 0.9653
5.6358 -6.5041 -2.0226 0.9653
5.8680 -6.3027 -2.0239 0.9652
6.0929 -6.0929 -2.0251 0.9652
6.3102 -5.8750 -2.0263 0.9652
6.5195 -5.6491 -2.0274 0.9652
6.9131 -5.1751 -2.0295 0.9651
7.4369 -4.4125 -2.0323 0.9651
7.5927 -4.1460 -2.0332 0.9651
7.7388 -3.8737 -2.0339 0.9651
8.0008 -3.3141 -2.0353 0.9650
8.1164 -3.0273 -2.0359 0.9650
8.2215 -2.7364 -2.0365 0.9650
8.3994 -2.1438 -2.0373 0.9650
8.4721 -1.8430 -2.0377 0.9650
8.6516 -0.6188 -2.0385 0.9650
-7.5197 -0.2685 -1.9482 0.9694
-7.4825 -0.8045 -1.9485 0.9694
-7.4499 -1.0711 -1.9487 0.9694
-7.4079 -1.3365 -1.9490 0.9694
-7.3568 -1.6004 -1.9493 0.9694
-7.1483 -2.3792 -1.9506 0.9694
-6.3531 -4.0829 -1.9553 0.9693
-6.0511 -4.5298 -1.9571 0.9693
-5.8884 -4.7452 -1.9580 0.9692
-5.3558 -5.3558 -1.9611 0.9692
-5.1641 -5.5467 -1.9622 0.9692
-4.9657 -5.7308 -1.9633 0.9692
-4.5497 -6.0777 -1.9657 0.9691
-3.8815 -6.5419 -1.9695 0.9691
-3.6480 -6.6808 -1.9708 0.9690
-3.4095 -6.8114 -1.9722 0.9690
-2.9190 -7.0472 -1.9750 0.9690
-2.4124 -7.2479 -1.9778 0.9689
-2.1537 -7.3348 -1.9793 0.9689
-1.0912 -7.5895 -1.9853 0.9688
-0.8203 -7.6294 -1.9868 0.9688
0.0000 -7.6911 -1.9914 0.9687
0.5495 -7.6833 -1.9944 0.9687
1.0979 -7.6362 -1.9975 0.9686
1.9122 -7.4920 -2.0020 0.9686
2.1800 -7.4245 -2.0035 0.9685
2.4454 -7.3473 -2.0050 0.9685
2.9676 -7.1644 -2.0078 0.9685
3.4760 -6.9441 -2.0106 0.9684
3.7242 -6.8203 -2.0120 0.9684
4.2068 -6.5458 -2.0147 0.9684
4.8915 -6.0699 -2.0184 0.9683
5.1080 -5.8949 -2.0196 0.9683
5.3181 -5.7121 -2.0207 0.9683
5.5216 -5.5216 -2.0218 0.9682
5.7182 -5.3238 -2.0229 0.9682
5.9076 -5.1189 -2.0239 0.9682
6.0895 -4.9072 -2.0249 0.9682
6.5878 -4.2337 -2.0276 0.9682
6.7374 -3.9975 -2.0284 0.9681
6.8783 -3.7558 -2.0291 0.9681
7.0104 -3.5092 -2.0298 0.9681
7.1334 -3.2577 -2.0305 0.9681
7.4467 -2.4785 -2.0321 0.9681
7.6076 -1.9417 -2.0329 0.9681
7.6733 -1.6692 -2.0332 0.9681
-6.8941 0.0000 -1.9517 0.9717
-6.8899 -0.2461 -1.9517 0.9717
-6.8771 -0.4919 -1.9518 0.9717
-6.6211 -1.9441 -1.9535 0.9717
-6.4686 -2.4127 -1.9544 0.9717
-6.3800 -2.6427 -1.9550 0.9717
-6.2835 -2.8696 -1.9555 0.9717
-6.1790 -3.0930 -1.9562 0.9717
-5.9468 -3.5284 -1.9575 0.9717
-5.8193 -3.7398 -1.9583 0.9717
-5.2368 -4.5377 -1.9616 0.9716
-5.0740 -4.7240 -1.9626 0.9716
-4.7288 -5.0791 -1.9646 0.9716
-4.5469 -5.2474 -1.9656 0.9715
-4.1656 -5.5646 -1.9678 0.9715
-3.7624 -5.8544 -1.9701 0.9715
-3.5532 -5.9886 -1.9713 0.9715
-3.3392 -6.1153 -1.9725 0.9714
-2.8981 -6.3460 -1.9750 0.9714
-2.2075 -6.6325 -1.9789 0.9714
-1.7311 -6.7823 -1.9816 0.9713
-1.2445 -6.8980 -1.9843 0.9713
-0.9982 -6.9428 -1.9857 0.9713
-0.7503 -6.9789 -1.9871 0.9712
-0.5011 -7.0061 -1.9885 0.9712
-0.2509 -7.0245 -1.9899 0.9712
1.0038 -6.9819 -1.9969 0.9711
1.5015 -6.9020 -1.9996 0.9711
1.7480 -6.8487 -2.0010 0.9710
2.2352 -6.7156 -2.0037 0.9710
2.7121 -6.5477 -2.0063 0.9710
2.9460 -6.4508 -2.0076 0.9709
3.1764 -6.3456 -2.0089 0.9709
3.4029 -6.2320 -2.0101 0.9709
3.6254 -6.1103 -2.0113 0.9709
3.8435 -5.9806 -2.0125 0.9709
4.2652 -5.6977 -2.0148 0.9708
4.6659 -5.3847 -2.0170 0.9708
4.8576 -5.2174 -2.0181 0.9708
5.5612 -4.4815 -2.0219 0.9707
5.8715 -4.0767 -2.0236 0.9707
6.1519 -3.6501 -2.0250 0.9707
6.2804 -3.4294 -2.0257 0.9707
6.4008 -3.2040 -2.0264 0.9707
6.5130 -2.9744 -2.0270 0.9707
6.6168 -2.7407 -2.0275 0.9707
6.7120 -2.5034 -2.0280 0.9707
6.8764 -2.0191 -2.0288 0.9706
7.0051 -1.5238 -2.0295 0.9706
7.0559 -1.2730 -2.0297 0.9706
7.0975 -1.0204 -2.0299 0.9706
7.1530 -0.5116 -2.0301 0.9706
-6.3551 0.0000 -1.9547 0.9738
-6.3512 -0.2268 -1.9547 0.9738
-6.2564 -1.1288 -1.9554 0.9737
-6.2130 -1.3516 -1.9557 0.9737
-6.1618 -1.5727 -1.9560 0.9737
-6.1029 -1.7920 -1.9564 0.9737
-5.9621 -2.2238 -1.9572 0.9737
-5.8804 -2.4358 -1.9577 0.9737
-5.7913 -2.6448 -1.9582 0.9737
-5.6949 -2.8506 -1.9588 0.9737
-5.5912 -3.0530 -1.9594 0.9737
-5.2384 -3.6371 -1.9615 0.9737
-4.9695 -4.0047 -1.9630 0.9736
-4.8254 -4.1813 -1.9639 0.9736
-4.6752 -4.3528 -1.9647 0.9736
-4.1890 -4.8344 -1.9675 0.9736
-4.0158 -4.9834 -1.9685 0.9736
-3.8374 -5.1262 -1.9695 0.9736
-3.6539 -5.2627 -1.9706 0.9735
-3.4657 -5.3927 -1.9717 0.9735
-3.2728 -5.5160 -1.9728 0.9735
-3.0756 -5.6325 -1.9739 0.9735
-2.8742 -5.7420 -1.9750 0.9735
-2.4602 -5.9394 -1.9774 0.9735
-2.2480 -6.0271 -1.9786 0.9734
-1.8145 -6.1798 -1.9810 0.9734
-1.5938 -6.2445 -1.9822 0.9734
-1.3708 -6.3014 -1.9835 0.9734
-0.4612 -6.4488 -1.9886 0.9733
-0.2309 -6.4654 -1.9899 0.9733
0.2312 -6.4738 -1.9925 0.9733
0.9237 -6.4244 -1.9963 0.9732
1.1531 -6.3914 -1.9976 0.9732
1.3814 -6.3502 -1.9989 0.9732
1.8332 -6.2433 -2.0014 0.9731
2.2767 -6.1041 -2.0038 0.9731
2.9213 -5.8361 -2.0074 0.9731
3.1296 -5.7313 -2.0085 0.9730
3.3340 -5.6191 -2.0096 0.9730
3.5344 -5.4995 -2.0107 0.9730
3.7304 -5.3728 -2.0118 0.9730
3.9218 -5.2389 -2.0129 0.9730
4.1084 -5.0982 -2.0139 0.9730
4.2898 -4.9507 -2.0149 0.9730
4.9596 -4.2975 -2.0185 0.9729
5.1120 -4.1195 -2.0193 0.9729
5.8827 -2.9447 -2.0234 0.9728
5.9857 -2.7336 -2.0240 0.9728
6.0809 -2.5188 -2.0245 0.9728
6.3824 -1.6290 -2.0260 0.9728
6.4373 -1.4004 -2.0263 0.9728
-5.8737 -0.4201 -1.9574 0.9755
-5.7967 -1.0458 -1.9580 0.9755
-5.7564 -1.2522 -1.9582 0.9755
-5.6543 -1.6602 -1.9589 0.9755
-5.5925 -1.8613 -1.9592 0.9755
-5.5237 -2.0602 -1.9596 0.9755
-5.3652 -2.4502 -1.9606 0.9754
-5.2757 -2.6408 -1.9611 0.9754
-5.0769 -3.0123 -1.9623 0.9754
-4.8523 -3.3690 -1.9636 0.9754
-4.6030 -3.7093 -1.9650 0.9754
-4.4694 -3.8728 -1.9658 0.9754
-4.1852 -4.1852 -1.9675 0.9754
-4.0350 -4.3339 -1.9683 0.9753
-3.7189 -4.6149 -1.9701 0.9753
-3.5535 -4.7470 -1.9711 0.9753
-3.3835 -4.8732 -1.9720 0.9753
-3.2090 -4.9934 -1.9730 0.9753
-2.8476 -5.2150 -1.9751 0.9753
-2.6611 -5.3161 -1.9761 0.9753
-1.8816 -5.6533 -1.9805 0.9752
-1.4752 -5.7798 -1.9828 0.9752
-1.2687 -5.8322 -1.9840 0.9752
-1.0604 -5.8772 -1.9852 0.9751
-0.4268 -5.9675 -1.9887 0.9751
-0.2137 -5.9826 -1.9899 0.9751
-0.0000 -5.9900 -1.9911 0.9751
0.6415 -5.9663 -1.9947 0.9750
0.8545 -5.9432 -1.9959 0.9750
1.2778 -5.8740 -1.9982 0.9750
1.6956 -5.7745 -2.0005 0.9750
2.3070 -5.5696 -2.0039 0.9749
2.5057 -5.4867 -2.0050 0.9749
2.7014 -5.3967 -2.0061 0.9749
2.8938 -5.2996 -2.0071 0.9749
3.0827 -5.1956 -2.0082 0.9749
3.4489 -4.9674 -2.0102 0.9748
3.7981 -4.7132 -2.0121 0.9748
3.9658 -4.5767 -2.0130 0.9748
4.1284 -4.4342 -2.0139 0.9748
4.2858 -4.2858 -2.0147 0.9748
4.4379 -4.1318 -2.0156 0.9748
4.5843 -3.9723 -2.0164 0.9748
4.8596 -3.6378 -2.0178 0.9747
4.9881 -3.4633 -2.0185 0.9747
5.3346 -2.9129 -2.0204 0.9747
5.4366 -2.7214 -2.0209 0.9747
5.5316 -2.5262 -2.0214 0.9747
5.6195 -2.3277 -2.0219 0.9747
5.7002 -2.1261 -2.0223 0.9747
5.7735 -1.9216 -2.0227 0.9747
5.8394 -1.7146 -2.0230 0.9747
5.8977 -1.5053 -2.0233 0.9747
6.0267 -0.8665 -2.0239 0.9747
6.0541 -0.6509 -2.0240 0.9747
6.0737 -0.4344 -2.0241 0.9747
6.0854 -0.2173 -2.0241 0.9747
-5.4763 -0.1956 -1.9596 0.9770
-5.4661 -0.3909 -1.9597 0.9770
-5.4251 -0.7800 -1.9600 0.9770
-5.3568 -1.1653 -1.9604 0.9770
-5.3126 -1.3559 -1.9607 0.9770
-5.2616 -1.5449 -1.9610 0.9770
-5.2041 -1.7321 -1.9614 0.9770
-5.1400 -1.9171 -1.9618 0.9770
-4.8195 -2.6316 -1.9637 0.9769
-4.6221 -2.9705 -1.9648 0.9769
-4.4013 -3.2948 -1.9661 0.9769
-3.7535 -4.0316 -1.9698 0.9769
-3.6087 -4.1647 -1.9707 0.9769
-3.4593 -4.2927 -1.9715 0.9769
-3.3053 -4.4154 -1.9724 0.9768
-2.9847 -4.6443 -1.9742 0.9768
-2.8184 -4.7501 -1.9752 0.9768
-2.6483 -4.8501 -1.9761 0.9768
-2.1179 -5.1131 -1.9791 0.9768
-1.7496 -5.2567 -1.9812 0.9767
-1.5617 -5.3186 -1.9823 0.9767
-0.3967 -5.5473 -1.9888 0.9767
-0.1986 -5.5610 -1.9899 0.9766
0.1988 -5.5672 -1.9921 0.9766
0.3976 -5.5596 -1.9932 0.9766
0.5962 -5.5450 -1.9943 0.9766
0.9913 -5.4944 -1.9965 0.9766
1.3822 -5.4155 -1.9987 0.9765
1.7669 -5.3088 -2.0008 0.9765
1.9563 -5.2451 -2.0019 0.9765
2.1434 -5.1746 -2.0029 0.9765
2.3279 -5.0974 -2.0039 0.9765
2.5096 -5.0135 -2.0049 0.9765
2.8636 -4.8264 -2.0069 0.9764
3.0355 -4.7233 -2.0078 0.9764
3.5277 -4.3776 -2.0105 0.9764
3.6833 -4.2507 -2.0114 0.9764
3.8342 -4.1183 -2.0122 0.9764
3.9803 -3.9803 -2.0130 0.9764
4.1214 -3.8372 -2.0137 0.9764
4.3878 -3.5359 -2.0152 0.9763
4.5127 -3.3782 -2.0159 0.9763
4.6319 -3.2160 -2.0165 0.9763
4.7451 -3.0495 -2.0171 0.9763
4.8523 -2.8790 -2.0177 0.9763
5.0479 -2.5268 -2.0187 0.9763
5.2176 -2.1612 -2.0196 0.9763
5.3605 -1.7842 -2.0203 0.9763
5.4757 -1.3976 -2.0209 0.9763
5.5227 -1.2014 -2.0211 0.9763
5.5626 -1.0036 -2.0213 0.9763
-5.1187 0.0000 -1.9616 0.9783
-5.1156 -0.1827 -1.9616 0.9783
-5.1060 -0.3652 -1.9617 0.9783
-5.0676 -0.7286 -1.9620 0.9783
-5.0389 -0.9091 -1.9622 0.9783
-5.0038 -1.0885 -1.9624 0.9783
-4.9148 -1.4431 -1.9629 0.9783
-4.8610 -1.6179 -1.9633 0.9783
-4.6630 -2.1295 -1.9645 0.9783
-4.5851 -2.2951 -1.9649 0.9783
-4.5014 -2.4579 -1.9654 0.9783
-4.4119 -2.6177 -1.9659 0.9783
-4.3169 -2.7743 -1.9665 0.9783
-4.1105 -3.0771 -1.9677 0.9782
-3.9994 -3.2229 -1.9683 0.9782
-3.8831 -3.3647 -1.9690 0.9782
-3.7619 -3.5024 -1.9697 0.9782
-3.2301 -4.0083 -1.9728 0.9782
-3.0863 -4.1228 -1.9736 0.9782
-2.6313 -4.4349 -1.9762 0.9782
-2.4725 -4.5280 -1.9771 0.9781
-2.3104 -4.6156 -1.9780 0.9781
-2.1452 -4.6973 -1.9789 0.9781
-1.9771 -4.7732 -1.9799 0.9781
-1.4577 -4.9645 -1.9828 0.9781
-1.2802 -5.0159 -1.9838 0.9781
-0.9201 -5.0996 -1.9858 0.9780
-0.7379 -5.1318 -1.9868 0.9780
0.5562 -5.1737 -1.9941 0.9780
0.7409 -5.1532 -1.9951 0.9779
0.9249 -5.1261 -1.9961 0.9779
1.2895 -5.0521 -1.9981 0.9779
1.8249 -4.8926 -2.0011 0.9779
1.9993 -4.8267 -2.0021 0.9779
2.5073 -4.5917 -2.0049 0.9778
2.6708 -4.5013 -2.0058 0.9778
2.9877 -4.3030 -2.0075 0.9778
3.1406 -4.1954 -2.0083 0.9778
3.2897 -4.0823 -2.0091 0.9778
3.4347 -3.9638 -2.0099 0.9778
3.8429 -3.5779 -2.0122 0.9778
3.9696 -3.4396 -2.0128 0.9778
4.0911 -3.2968 -2.0135 0.9777
4.2075 -3.1497 -2.0141 0.9777
4.4240 -2.8432 -2.0153 0.9777
4.5238 -2.6841 -2.0158 0.9777
4.6179 -2.5216 -2.0163 0.9777
4.7882 -2.1867 -2.0172 0.9777
4.8641 -2.0148 -2.0176 0.9777
5.2396 -0.5633 -2.0195 0.9777
5.2565 -0.3760 -2.0195 0.9777
5.2666 -0.1881 -2.0196 0.9777
-4.7972 -0.0000 -1.9634 0.9795
-4.7493 -0.6828 -1.9637 0.9795
-4.6506 -1.1870 -1.9644 0.9795
-4.6059 -1.3524 -1.9647 0.9795
-4.5554 -1.5162 -1.9650 0.9795
-4.2181 -2.3033 -1.9670 0.9794
-4.1342 -2.4530 -1.9675 0.9794
-4.0451 -2.5997 -1.9680 0.9794
-3.7474 -3.0198 -1.9697 0.9794
-3.6383 -3.1526 -1.9703 0.9794
-3.5247 -3.2816 -1.9710 0.9794
-3.2839 -3.5271 -1.9724 0.9794
-3.1571 -3.6434 -1.9731 0.9794
-2.8913 -3.8624 -1.9746 0.9794
-2.6105 -4.0621 -1.9762 0.9793
-2.0093 -4.3998 -1.9796 0.9793
-1.1990 -4.6975 -1.9842 0.9793
-1.0310 -4.7395 -1.9851 0.9793
-0.8616 -4.7756 -1.9861 0.9792
-0.6909 -4.8056 -1.9871 0.9792
-0.3467 -4.8474 -1.9890 0.9792
-0.1735 -4.8590 -1.9899 0.9792
0.3474 -4.8568 -1.9929 0.9792
0.5208 -4.8437 -1.9938 0.9792
0.6936 -4.8243 -1.9948 0.9792
0.8658 -4.7988 -1.9957 0.9791
1.0370 -4.7671 -1.9967 0.9791
2.1907 -4.3765 -2.0031 0.9791
2.6493 -4.1224 -2.0056 0.9790
2.9390 -3.9260 -2.0072 0.9790
3.0784 -3.8201 -2.0079 0.9790
3.2140 -3.7091 -2.0087 0.9790
3.3455 -3.5933 -2.0094 0.9790
3.4728 -3.4728 -2.0101 0.9790
3.5957 -3.3478 -2.0107 0.9790
3.7141 -3.2183 -2.0114 0.9790
3.9366 -2.9469 -2.0126 0.9790
4.0404 -2.8053 -2.0131 0.9790
4.1390 -2.6600 -2.0137 0.9790
4.2324 -2.5112 -2.0142 0.9790
4.9267 -0.1759 -2.0177 0.9789
-1.4601 -0.0000 -0.6363 0.9936
-1.4571 -0.0520 -0.6354 0.9937
-1.4490 -0.1036 -0.6331 0.9937
-1.3955 -0.2518 -0.6180 0.9938
-1.3688 -0.2978 -0.6105 0.9939
-1.3722 -0.4029 -0.6233 0.9938
-1.4401 -0.4793 -0.6615 0.9934
-4.1066 -1.8754 -1.9675 0.9805
-3.9640 -2.1645 -1.9684 0.9805
-3.8852 -2.3052 -1.9688 0.9805
-3.5213 -2.8377 -1.9709 0.9805
-3.4188 -2.9624 -1.9715 0.9805
-2.4526 -3.8163 -1.9771 0.9804
-2.3157 -3.9030 -1.9778 0.9804
-2.1758 -3.9847 -1.9786 0.9804
-2.0330 -4.0615 -1.9794 0.9804
-1.8876 -4.1332 -1.9803 0.9804
-1.7396 -4.1997 -1.9811 0.9804
-1.5892 -4.2609 -1.9820 0.9804
-1.4368 -4.3168 -1.9828 0.9803
-1.1262 -4.4122 -1.9846 0.9803
-0.9684 -4.4516 -1.9854 0.9803
-0.8092 -4.4853 -1.9863 0.9803
-0.3256 -4.5523 -1.9890 0.9803
-0.1630 -4.5631 -1.9900 0.9803
0.1631 -4.5673 -1.9918 0.9803
0.3262 -4.5607 -1.9927 0.9802
0.6513 -4.5299 -1.9945 0.9802
0.8129 -4.5058 -1.9954 0.9802
1.1333 -4.4402 -1.9972 0.9802
1.2916 -4.3989 -1.9980 0.9802
1.4485 -4.3519 -1.9989 0.9802
1.6035 -4.2993 -1.9998 0.9802
1.7567 -4.2411 -2.0006 0.9802
2.0565 -4.1083 -2.0023 0.9802
2.2027 -4.0339 -2.0031 0.9801
2.3462 -3.9543 -2.0039 0.9801
2.6243 -3.7797 -2.0054 0.9801
2.7586 -3.6850 -2.0061 0.9801
3.1399 -3.3725 -2.0082 0.9801
3.3746 -3.1419 -2.0095 0.9801
3.4857 -3.0203 -2.0101 0.9801
3.7916 -2.6326 -2.0117 0.9801
4.0542 -2.2137 -2.0131 0.9800
4.1314 -2.0680 -2.0135 0.9800
4.2034 -1.9196 -2.0139 0.9800
4.3311 -1.6154 -2.0146 0.9800
4.4364 -1.3026 -2.0151 0.9800
4.4806 -1.1436 -2.0153 0.9800
4.5515 -0.8212 -2.0157 0.9800
4.5990 -0.4945 -2.0159 0.9800
-1.2446 0.0000 -0.5761 0.9945
-1.2261 -0.1318 -0.5708 0.9946
-1.1974 -0.2160 -0.5632 0.9947
-1.2017 -0.4482 -0.5937 0.9944
-3.8690 -1.7669 -1.9688 0.9814
-3.8042 -1.9043 -1.9692 0.9814
-3.7346 -2.0392 -1.9696 0.9814
-3.6603 -2.1717 -1.9701 0.9814
-3.4977 -2.4285 -1.9710 0.9814
-3.2207 -2.7907 -1.9726 0.9814
-2.9066 -3.1219 -1.9744 0.9814
-2.6782 -3.3235 -1.9757 0.9814
-2.5588 -3.4181 -1.9764 0.9814
-2.0493 -3.7530 -1.9793 0.9813
-1.9148 -3.8252 -1.9801 0.9813
-1.7777 -3.8926 -1.9808 0.9813
-1.4967 -4.0127 -1.9824 0.9813
-1.3530 -4.0653 -1.9832 0.9813
-1.2076 -4.1127 -1.9841 0.9813
-1.0605 -4.1549 -1.9849 0.9813
-0.7620 -4.2235 -1.9866 0.9813
0.0000 -4.3009 -1.9908 0.9812
0.6131 -4.2644 -1.9942 0.9812
0.9166 -4.2134 -1.9959 0.9812
1.2158 -4.1407 -1.9976 0.9812
1.7956 -3.9318 -2.0008 0.9811
2.3404 -3.6417 -2.0038 0.9811
2.4697 -3.5571 -2.0045 0.9811
2.7191 -3.3742 -2.0058 0.9811
2.9547 -3.1736 -2.0071 0.9811
3.4761 -2.6022 -2.0100 0.9810
3.5677 -2.4771 -2.0104 0.9810
3.8872 -1.9458 -2.0121 0.9810
3.9548 -1.8061 -2.0125 0.9810
4.0748 -1.5198 -2.0131 0.9810
4.1271 -1.3736 -2.0134 0.9810
4.3073 -0.6193 -2.0143 0.9810
4.3268 -0.4652 -2.0144 0.9810
-1.0817 0.0000 -0.5306 0.9952
-1.0769 -0.0770 -0.5296 0.9952
-1.0705 -0.1151 -0.5281 0.9952
-1.0611 -0.1526 -0.5258 0.9952
-1.0518 -0.1898 -0.5242 0.9952
-1.0422 -0.2267 -0.5232 0.9953
-1.0025 -0.3336 -0.5183 0.9953
-1.0119 -0.3774 -0.5298 0.9952
-1.0444 -0.4769 -0.5632 0.9949
-1.0588 -0.5300 -0.5808 0.9947
-3.5262 -1.9255 -1.9708 0.9823
-3.3813 -2.1730 -1.9716 0.9823
-3.3024 -2.2929 -1.9721 0.9822
-3.2192 -2.4099 -1.9726 0.9822
-2.8466 -2.8466 -1.9747 0.9822
-2.6379 -3.0443 -1.9759 0.9822
-2.5283 -3.1375 -1.9765 0.9822
-2.4155 -3.2268 -1.9772 0.9822
-2.1806 -3.3932 -1.9785 0.9822
-2.0589 -3.4701 -1.9792 0.9822
-1.9344 -3.5426 -1.9799 0.9822
-1.5463 -3.7332 -1.9821 0.9822
-1.4126 -3.7875 -1.9829 0.9822
-1.2771 -3.8369 -1.9836 0.9821
-1.0009 -3.9214 -1.9852 0.9821
-0.5766 -4.0107 -1.9876 0.9821
-0.4333 -4.0303 -1.9884 0.9821
-0.1448 -4.0543 -1.9900 0.9821
0.0000 -4.0585 -1.9908 0.9821
0.4344 -4.0401 -1.9932 0.9821
0.5785 -4.0237 -1.9940 0.9821
0.7221 -4.0021 -1.9948 0.9820
0.8648 -3.9753 -1.9956 0.9820
1.0065 -3.9435 -1.9964 0.9820
1.5599 -3.7659 -1.9994 0.9820
2.4487 -3.2711 -2.0043 0.9820
2.5647 -3.1826 -2.0050 0.9820
2.6775 -3.0900 -2.0056 0.9819
2.9950 -2.7885 -2.0073 0.9819
3.1880 -2.5690 -2.0083 0.9819
3.5243 -2.0911 -2.0101 0.9819
3.7886 -1.5693 -2.0115 0.9819
3.8919 -1.2954 -2.0121 0.9819
3.9361 -1.1558 -2.0123 0.9819
3.9753 -1.0146 -2.0125 0.9819
4.0381 -0.7286 -2.0128 0.9819
-0.9895 0.0000 -0.5133 0.9956
-0.9893 -0.0353 -0.5135 0.9955
-0.9873 -0.0706 -0.5135 0.9955
-0.9785 -0.1407 -0.5129 0.9956
-0.9524 -0.2431 -0.5099 0.9956
-0.9268 -0.3085 -0.5067 0.9956
-0.9271 -0.3840 -0.5206 0.9955
-0.9326 -0.4259 -0.5319 0.9954
-0.9486 -0.5180 -0.5607 0.9951
-3.2695 -1.9399 -1.9722 0.9830
-3.1988 -2.0557 -1.9726 0.9830
-3.0454 -2.2797 -1.9735 0.9830
-2.8764 -2.4924 -1.9745 0.9830
-2.6927 -2.6927 -1.9755 0.9830
-2.4952 -2.8796 -1.9767 0.9830
-1.9473 -3.2821 -1.9798 0.9830
-1.8296 -3.3506 -1.9805 0.9829
-1.7094 -3.4149 -1.9811 0.9829
-1.4624 -3.5307 -1.9825 0.9829
-1.3360 -3.5819 -1.9833 0.9829
-1.2077 -3.6286 -1.9840 0.9829
-1.0778 -3.6708 -1.9847 0.9829
-0.9465 -3.7083 -1.9854 0.9829
-0.6800 -3.7692 -1.9869 0.9829
-0.5453 -3.7925 -1.9877 0.9829
-0.2735 -3.8247 -1.9892 0.9829
-0.1369 -3.8334 -1.9900 0.9829
0.0000 -3.8374 -1.9908 0.9829
0.4107 -3.8198 -1.9930 0.9828
0.5470 -3.8041 -1.9938 0.9828
0.6826 -3.7836 -1.9946 0.9828
1.4745 -3.5598 -1.9989 0.9828
1.7259 -3.4480 -2.0003 0.9828
1.9688 -3.3183 -2.0017 0.9828
2.2019 -3.1714 -2.0029 0.9828
2.4240 -3.0081 -2.0041 0.9827
2.5306 -2.9204 -2.0047 0.9827
2.7340 -2.7340 -2.0058 0.9827
2.8306 -2.6354 -2.0064 0.9827
2.9235 -2.5333 -2.0069 0.9827
3.0128 -2.4279 -2.0073 0.9827
3.0983 -2.3193 -2.0078 0.9827
3.1798 -2.2078 -2.0082 0.9827
3.3305 -1.9761 -2.0090 0.9827
3.5245 -1.6096 -2.0101 0.9827
3.6313 -1.3544 -2.0106 0.9827
3.6778 -1.2241 -2.0109 0.9827
3.7195 -1.0921 -2.0111 0.9827
3.7886 -0.8242 -2.0114 0.9827
3.8159 -0.6885 -2.0115 0.9827
3.8680 -0.2767 -2.0118 0.9827
3.8754 -0.1384 -2.0118 0.9827
-0.9179 -0.0328 -0.5031 0.9958
-0.9161 -0.0655 -0.5030 0.9958
-0.9077 -0.1305 -0.5022 0.9958
-0.8837 -0.2256 -0.4995 0.9958
-0.8727 -0.2562 -0.4982 0.9959
-0.8479 -0.3512 -0.5027 0.9958
-0.8506 -0.3885 -0.5122 0.9957
-2.8075 -2.2624 -1.9748 0.9837
-2.5515 -2.5515 -1.9763 0.9837
-2.4595 -2.6417 -1.9768 0.9837
-2.2660 -2.8119 -1.9779 0.9837
-2.1648 -2.8919 -1.9785 0.9837
-2.0608 -2.9682 -1.9791 0.9837
-1.7334 -3.1745 -1.9810 0.9836
-1.2657 -3.3933 -1.9836 0.9836
-1.1441 -3.4375 -1.9843 0.9836
-0.8966 -3.5129 -1.9857 0.9836
-0.7709 -3.5439 -1.9864 0.9836
-0.6442 -3.5704 -1.9871 0.9836
-0.5165 -3.5924 -1.9878 0.9836
-0.3881 -3.6099 -1.9885 0.9836
0.0000 -3.6347 -1.9907 0.9836
0.2595 -3.6281 -1.9922 0.9835
0.5180 -3.6029 -1.9936 0.9835
0.7743 -3.5593 -1.9950 0.9835
0.9012 -3.5306 -1.9957 0.9835
1.1515 -3.4597 -1.9971 0.9835
1.3963 -3.3711 -1.9985 0.9835
1.5163 -3.3202 -1.9991 0.9835
1.8643 -3.1421 -2.0010 0.9835
2.2952 -2.8481 -2.0034 0.9835
2.3960 -2.7652 -2.0039 0.9835
2.4938 -2.6786 -2.0045 0.9834
2.8524 -2.2986 -2.0064 0.9834
3.1530 -1.8708 -2.0080 0.9834
3.2184 -1.7574 -2.0084 0.9834
3.2796 -1.6416 -2.0087 0.9834
3.3366 -1.5238 -2.0090 0.9834
3.3893 -1.4039 -2.0093 0.9834
3.4377 -1.2822 -2.0095 0.9834
3.4816 -1.1588 -2.0098 0.9834
3.5211 -1.0339 -2.0100 0.9834
3.5865 -0.7802 -2.0103 0.9834
3.6334 -0.5224 -2.0105 0.9834
3.6499 -0.3924 -2.0106 0.9834
3.6616 -0.2619 -2.0106 0.9834
3.6687 -0.1310 -2.0106 0.9834
-0.8550 0.0000 -0.4936 0.9961
-0.8548 -0.0305 -0.4938 0.9961
-0.8531 -0.0610 -0.4938 0.9961
-0.8499 -0.0914 -0.4935 0.9961
-0.8453 -0.1215 -0.4930 0.9961
-0.8230 -0.2101 -0.4904 0.9961
-0.8014 -0.2667 -0.4876 0.9961
-0.7796 -0.3229 -0.4872 0.9961
-0.7809 -0.3566 -0.4957 0.9960
-0.7787 -0.4252 -0.5122 0.9959
-0.7750 -0.4599 -0.5203 0.9958
-0.7696 -0.4946 -0.5282 0.9958
-2.7388 -2.0502 -1.9752 0.9843
-2.5056 -2.3328 -1.9765 0.9843
-2.3340 -2.5069 -1.9775 0.9843
-2.1503 -2.6684 -1.9786 0.9843
-1.9556 -2.8166 -1.9797 0.9843
-1.5367 -3.0699 -1.9821 0.9843
-1.0855 -3.2615 -1.9846 0.9842
-0.9688 -3.2993 -1.9853 0.9842
-0.6111 -3.3874 -1.9873 0.9842
-0.3682 -3.4247 -1.9886 0.9842
0.0000 -3.4480 -1.9907 0.9842
0.4914 -3.4176 -1.9934 0.9842
0.6133 -3.3990 -1.9941 0.9842
0.7344 -3.3761 -1.9948 0.9842
0.8547 -3.3489 -1.9954 0.9842
0.9741 -3.3173 -1.9961 0.9842
1.5500 -3.0966 -1.9993 0.9841
1.6601 -3.0402 -1.9999 0.9841
1.8738 -2.9157 -2.0011 0.9841
1.9773 -2.8478 -2.0016 0.9841
2.0782 -2.7762 -2.0022 0.9841
2.5413 -2.3660 -2.0047 0.9841
2.9240 -1.8792 -2.0068 0.9841
3.1097 -1.5566 -2.0077 0.9841
3.3717 -0.8606 -2.0091 0.9841
3.4006 -0.7397 -2.0092 0.9841
3.4450 -0.4953 -2.0094 0.9841
3.4606 -0.3721 -2.0095 0.9841
