ply
format ascii 1.0
element vertex 763
property float32 x
property float32 y
property float32 z
property float32 I
end_header
6.1965 3.6766 -0.5283 0.9715
6.7799 2.8083 -0.7045 0.9709
6.2455 2.8523 -0.6592 0.9728
5.7098 3.1178 -0.6246 0.9742
5.6460 3.3499 -0.6303 0.9740
5.6461 2.8262 -0.7500 0.9749
5.4276 2.9637 -0.7346 0.9754
5.2615 3.3814 -0.7429 0.9751
5.2340 3.6340 -0.7569 0.9747
8.7165 2.5594 -1.2872 0.9640
7.6647 2.5510 -1.1446 0.9679
6.9046 2.5753 -1.0441 0.9707
5.5229 2.7646 -0.8751 0.9754
5.0528 2.9980 -0.8325 0.9765
4.9456 3.1783 -0.8330 0.9765
3.0853 8.2720 -1.2509 0.9650
7.6049 2.5312 -1.3204 0.9680
5.3522 2.6791 -0.9860 0.9760
5.0266 2.7447 -0.9435 0.9771
4.6796 4.0550 -1.0201 0.9752
4.8476 8.1702 -1.5650 0.9622
3.0854 8.2723 -1.4545 0.9648
8.6157 2.5298 -1.6878 0.9641
6.7987 2.5358 -1.3639 0.9709
5.6342 2.5731 -1.1642 0.9751
5.2384 2.6222 -1.1011 0.9764
4.7395 2.8121 -1.0358 0.9778
4.5861 3.1842 -1.0494 0.9775
4.5646 3.4170 -1.0717 0.9771
4.5666 3.6800 -1.1023 0.9764
4.6216 4.0046 -1.1494 0.9754
3.0855 8.2725 -1.6595 0.9647
2.0853 9.5857 -1.8439 0.9609
1.7403 9.6456 -1.8423 0.9609
1.3937 9.6931 -1.8407 0.9609
0.3486 9.7610 -1.8359 0.9610
-0.0000 9.7587 -1.8343 0.9611
-0.6950 9.7171 -1.8311 0.9611
-1.0405 9.6778 -1.8295 0.9612
-1.7253 9.5627 -1.8264 0.9612
-2.7309 9.3006 -1.8220 0.9613
-3.0587 9.1899 -1.8205 0.9613
-3.7007 8.9344 -1.8177 0.9614
-4.0142 8.7899 -1.8163 0.9614
-4.6243 8.4688 -1.8136 0.9615
-5.4933 7.9118 -1.8104 0.9616
9.6260 -0.0000 -2.0347 0.9614
9.6190 0.3435 -2.0346 0.9614
9.5995 0.6866 -2.0343 0.9614
9.5230 1.3692 -2.0337 0.9614
9.4662 1.7079 -2.0333 0.9614
9.3158 2.3777 -2.0323 0.9615
7.6300 2.5395 -1.6998 0.9677
6.8089 2.5396 -1.5361 0.9707
5.1862 2.5960 -1.2259 0.9766
4.6875 2.7812 -1.1521 0.9780
4.6032 2.9583 -1.1566 0.9779
4.5539 3.1618 -1.1719 0.9776
4.5290 3.3903 -1.1959 0.9771
4.5824 3.9707 -1.2817 0.9755
6.9937 6.5114 -2.0199 0.9617
6.7528 6.7528 -2.0187 0.9617
6.5035 6.9852 -2.0174 0.9617
5.9723 7.4112 -2.0119 0.9618
5.6912 7.6025 -2.0074 0.9619
4.9612 7.7197 -1.9397 0.9632
4.5880 7.7327 -1.9006 0.9639
3.9240 7.8392 -1.8531 0.9648
3.3498 8.0872 -1.8503 0.9648
2.7602 8.2930 -1.8475 0.9649
1.5471 8.5750 -1.8419 0.9650
0.0000 8.6797 -1.8347 0.9651
-0.3096 8.6675 -1.8333 0.9652
-0.9257 8.6102 -1.8305 0.9652
-1.2315 8.5652 -1.8291 0.9652
-1.5353 8.5094 -1.8278 0.9653
-2.4308 8.2784 -1.8238 0.9653
-2.7228 8.1806 -1.8225 0.9654
-3.2949 7.9545 -1.8200 0.9654
-3.9407 7.8725 -1.8609 0.9646
-4.6697 7.8703 -1.9344 0.9633
-5.2881 7.6164 -1.9600 0.9628
-5.5624 7.4305 -1.9620 0.9628
-6.0717 7.0071 -1.9599 0.9628
-6.3146 6.7824 -1.9588 0.9628
-7.2022 5.8039 -1.9552 0.9629
-7.4017 5.5408 -1.9544 0.9629
-7.7723 4.9950 -1.9529 0.9629
-7.9430 4.7128 -1.9523 0.9629
-8.1036 4.4249 -1.9517 0.9630
-8.5234 3.5305 -1.9501 0.9630
-8.8471 2.5977 -1.9490 0.9630
-8.9330 2.2800 -1.9488 0.9630
-9.0077 1.9595 -1.9486 0.9630
-9.1234 1.3118 -1.9483 0.9630
-9.1642 0.9853 -1.9483 0.9630
-9.2115 0.3290 -1.9484 0.9630
8.6384 -0.0000 -2.0302 0.9651
8.6322 0.3083 -2.0301 0.9651
8.5862 0.9231 -2.0296 0.9651
8.5465 1.2288 -2.0293 0.9651
8.4956 1.5328 -2.0289 0.9651
8.4338 1.8346 -2.0285 0.9652
8.3610 2.1340 -2.0280 0.9652
8.2775 2.4305 -2.0275 0.9652
5.6104 2.5621 -1.4496 0.9750
4.8733 2.6610 -1.3050 0.9774
4.5319 3.1466 -1.2967 0.9776
4.5173 3.6402 -1.3635 0.9764
4.5723 3.9620 -1.4219 0.9754
6.2809 5.8477 -2.0169 0.9654
5.6105 6.4749 -2.0136 0.9654
5.1283 6.8506 -2.0112 0.9654
4.6208 7.1901 -2.0087 0.9655
4.3558 7.3413 -2.0062 0.9655
3.5280 7.7252 -1.9960 0.9657
3.2066 7.7415 -1.9693 0.9662
2.8910 7.7510 -1.9443 0.9666
2.5827 7.7599 -1.9221 0.9670
2.2809 7.7682 -1.9028 0.9673
1.4054 7.7896 -1.8603 0.9680
1.1209 7.7958 -1.8510 0.9682
0.5588 7.8105 -1.8403 0.9683
0.2792 7.8160 -1.8381 0.9684
0.0001 7.8196 -1.8378 0.9684
-0.2793 7.8213 -1.8394 0.9684
-0.5595 7.8233 -1.8433 0.9683
-1.7041 7.8335 -1.8841 0.9676
-2.6084 7.8370 -1.9412 0.9666
-3.4781 7.6159 -1.9677 0.9662
-4.7705 6.8708 -1.9659 0.9662
-5.2432 6.5063 -1.9639 0.9662
-6.1046 5.6835 -1.9603 0.9663
-6.3009 5.4598 -1.9595 0.9663
-6.4893 5.2294 -1.9587 0.9663
-6.6694 4.9926 -1.9580 0.9663
-6.8409 4.7497 -1.9573 0.9664
-7.0038 4.5011 -1.9567 0.9664
-7.5649 3.4548 -1.9545 0.9664
-7.6817 3.1819 -1.9541 0.9664
-7.7889 2.9051 -1.9538 0.9664
-8.1188 1.7662 -1.9527 0.9664
-8.2232 1.1823 -1.9525 0.9664
-8.2600 0.8880 -1.9525 0.9664
-8.2864 0.5927 -1.9525 0.9664
7.7439 1.1134 -2.0256 0.9682
7.5763 1.9337 -2.0245 0.9682
7.5007 2.2024 -2.0241 0.9682
7.3207 2.7305 -2.0230 0.9682
5.1195 2.5626 -1.4823 0.9766
4.8572 2.6522 -1.4329 0.9774
4.6655 2.7682 -1.4046 0.9778
4.5246 3.1415 -1.4262 0.9775
4.5152 3.3800 -1.4603 0.9770
4.5231 3.6450 -1.5041 0.9763
4.6674 4.0443 -1.5990 0.9748
5.6944 5.3016 -2.0145 0.9684
5.2964 5.6887 -2.0125 0.9684
4.4235 6.3710 -2.0082 0.9685
3.9532 6.6627 -2.0059 0.9685
3.7107 6.7956 -2.0047 0.9685
3.2126 7.0346 -2.0023 0.9686
2.6993 7.2371 -1.9999 0.9686
2.1717 7.3962 -1.9959 0.9687
1.3643 7.5618 -1.9895 0.9687
1.0925 7.5988 -1.9877 0.9688
0.8199 7.6266 -1.9860 0.9688
-1.0877 7.5652 -1.9789 0.9689
-1.6242 7.4661 -1.9783 0.9689
-1.8896 7.4032 -1.9783 0.9689
-2.1519 7.3287 -1.9777 0.9689
-2.4107 7.2431 -1.9765 0.9690
-2.9180 7.0447 -1.9743 0.9690
-3.1658 6.9322 -1.9732 0.9690
-3.4094 6.8112 -1.9721 0.9690
-3.6484 6.6816 -1.9711 0.9690
-4.1116 6.3978 -1.9691 0.9691
-4.3352 6.2439 -1.9681 0.9691
-4.7652 5.9133 -1.9663 0.9691
-5.1704 5.5534 -1.9646 0.9691
-5.3632 5.3631 -1.9638 0.9691
-5.5490 5.1663 -1.9630 0.9692
-5.8992 4.7538 -1.9616 0.9692
-6.3675 4.0921 -1.9598 0.9692
-6.5077 3.8612 -1.9592 0.9692
-6.7632 3.3854 -1.9582 0.9692
-6.8783 3.1412 -1.9578 0.9692
-6.9846 2.8931 -1.9574 0.9692
-7.3826 1.6060 -1.9562 0.9693
-7.4775 1.0751 -1.9560 0.9693
-7.5110 0.8075 -1.9559 0.9693
-7.5351 0.5389 -1.9559 0.9693
-7.5497 0.2696 -1.9560 0.9693
7.1475 -0.0000 -2.0234 0.9707
7.1424 0.2551 -2.0233 0.9707
7.1282 0.5098 -2.0231 0.9707
7.1047 0.7638 -2.0229 0.9707
7.0301 1.2684 -2.0223 0.9707
6.9792 1.5182 -2.0220 0.9707
6.8504 2.0115 -2.0212 0.9708
6.6863 2.4938 -2.0202 0.9708
6.5912 2.7302 -2.0197 0.9708
5.1168 2.5613 -1.6199 0.9765
4.6742 2.7733 -1.5386 0.9777
5.8487 4.0608 -2.0157 0.9708
5.5215 4.1333 -1.9525 0.9717
5.3570 4.3169 -1.9476 0.9718
5.3746 4.6572 -2.0133 0.9709
4.8396 5.1981 -2.0106 0.9709
4.6488 5.3650 -2.0096 0.9709
4.4522 5.5248 -2.0087 0.9709
4.2501 5.6774 -2.0077 0.9709
4.0427 5.8225 -2.0067 0.9710
3.8303 5.9600 -2.0056 0.9710
3.3918 6.2116 -2.0035 0.9710
3.1662 6.3252 -2.0024 0.9710
2.9368 6.4307 -2.0013 0.9710
2.4678 6.6164 -1.9991 0.9711
2.2288 6.6965 -1.9980 0.9711
1.9873 6.7679 -1.9968 0.9711
1.4977 6.8846 -1.9946 0.9711
1.2502 6.9296 -1.9934 0.9712
1.0015 6.9658 -1.9923 0.9712
0.5015 7.0114 -1.9899 0.9712
-0.2505 7.0126 -1.9865 0.9712
-0.7492 6.9689 -1.9842 0.9713
-0.9970 6.9339 -1.9831 0.9713
-1.7296 6.7763 -1.9798 0.9713
-1.9692 6.7067 -1.9788 0.9714
-2.2062 6.6286 -1.9777 0.9714
-2.4401 6.5422 -1.9767 0.9714
-3.1207 6.2344 -1.9737 0.9714
-3.3397 6.1161 -1.9727 0.9714
-3.5542 5.9902 -1.9718 0.9715
-3.9689 5.7162 -1.9700 0.9715
-4.3628 5.4139 -1.9684 0.9715
-4.5514 5.2526 -1.9676 0.9715
-4.7342 5.0849 -1.9668 0.9715
-5.2450 4.5448 -1.9647 0.9716
-5.6955 3.9545 -1.9629 0.9716
-6.2997 2.8770 -1.9606 0.9716
-6.7058 1.7116 -1.9592 0.9716
-6.7621 1.4710 -1.9591 0.9716
-6.8099 1.2287 -1.9590 0.9716
-6.8492 0.9848 -1.9589 0.9716
-6.8799 0.7397 -1.9589 0.9716
-6.9153 0.2470 -1.9589 0.9716
6.5699 0.0000 -2.0208 0.9729
6.5307 0.7021 -2.0203 0.9729
6.5007 0.9347 -2.0200 0.9729
6.4156 1.3956 -2.0194 0.9729
6.1467 2.2926 -2.0178 0.9729
5.2028 2.6043 -1.7896 0.9759
5.7517 3.1406 -2.0156 0.9729
5.3777 3.7338 -2.0137 0.9730
4.9423 4.2825 -2.0115 0.9730
4.6205 4.6205 -2.0098 0.9730
4.2755 4.9341 -2.0081 0.9730
3.9091 5.2219 -2.0063 0.9731
3.5233 5.4823 -2.0044 0.9731
3.3237 5.6018 -2.0035 0.9731
2.7019 5.9162 -2.0005 0.9731
2.4877 6.0058 -1.9995 0.9732
2.2706 6.0877 -1.9984 0.9732
1.6043 6.2856 -1.9953 0.9732
0.9217 6.4109 -1.9921 0.9733
0.2308 6.4623 -1.9889 0.9733
-0.0000 6.4630 -1.9879 0.9733
-0.4606 6.4397 -1.9858 0.9733
-0.6898 6.4158 -1.9847 0.9734
-1.1445 6.3437 -1.9827 0.9734
-1.5926 6.2396 -1.9807 0.9734
-1.8134 6.1757 -1.9797 0.9734
-2.0316 6.1040 -1.9787 0.9734
-2.8743 5.7420 -1.9750 0.9735
-4.0191 4.9874 -1.9701 0.9736
-4.1930 4.8390 -1.9694 0.9736
-4.3615 4.6846 -1.9687 0.9736
-4.5243 4.5243 -1.9680 0.9736
-5.2479 3.6437 -1.9651 0.9736
-5.7079 2.8572 -1.9633 0.9736
-5.8052 2.6512 -1.9630 0.9736
-5.8952 2.4418 -1.9626 0.9736
-6.0527 2.0145 -1.9621 0.9737
-6.1798 1.5773 -1.9617 0.9737
-6.2758 1.1323 -1.9615 0.9737
-6.3119 0.9075 -1.9614 0.9737
-6.3402 0.6817 -1.9614 0.9737
6.0723 -0.0000 -2.0185 0.9747
6.0561 0.4331 -2.0182 0.9747
6.0362 0.6490 -2.0180 0.9747
5.9731 1.0777 -2.0176 0.9747
5.9300 1.2900 -2.0173 0.9747
5.8792 1.5006 -2.0169 0.9747
5.7551 1.9155 -2.0162 0.9748
5.6013 2.3201 -2.0153 0.9748
5.5136 2.5180 -2.0148 0.9748
5.3171 2.9034 -2.0138 0.9748
5.2086 3.0904 -2.0132 0.9748
4.5696 3.9596 -2.0099 0.9748
4.4238 4.1187 -2.0091 0.9748
4.2723 4.2723 -2.0084 0.9749
3.9535 4.5626 -2.0068 0.9749
3.6150 4.8290 -2.0051 0.9749
3.4388 4.9528 -2.0043 0.9749
3.2584 5.0702 -2.0034 0.9749
2.6941 5.3822 -2.0007 0.9749
2.3011 5.5554 -1.9988 0.9750
1.0646 5.9004 -1.9930 0.9750
0.8529 5.9317 -1.9920 0.9751
0.6403 5.9554 -1.9910 0.9751
-0.2134 5.9742 -1.9871 0.9751
-0.4262 5.9599 -1.9861 0.9751
-1.2677 5.8274 -1.9824 0.9752
-1.6786 5.7168 -1.9805 0.9752
-1.8807 5.6507 -1.9796 0.9752
-2.2770 5.4973 -1.9779 0.9752
-2.4707 5.4102 -1.9770 0.9752
-3.0312 5.1087 -1.9746 0.9753
-3.2103 4.9953 -1.9738 0.9753
-3.3853 4.8757 -1.9731 0.9753
-3.5558 4.7500 -1.9723 0.9753
-3.7218 4.6185 -1.9716 0.9753
-4.3355 4.0365 -1.9691 0.9753
-5.0867 3.0181 -1.9661 0.9754
-5.1902 2.8341 -1.9657 0.9754
-5.3772 2.4557 -1.9650 0.9754
-5.4606 2.2619 -1.9647 0.9754
-5.5371 2.0652 -1.9644 0.9754
-5.6691 1.6646 -1.9640 0.9754
-5.7244 1.4611 -1.9638 0.9754
-5.8134 1.0489 -1.9636 0.9754
-5.8469 0.8407 -1.9635 0.9754
-5.8919 0.4214 -1.9635 0.9754
-5.9033 0.2108 -1.9636 0.9754
5.6350 0.2013 -2.0164 0.9763
5.6054 0.6026 -2.0161 0.9763
5.5797 0.8022 -2.0159 0.9763
5.5469 1.0008 -2.0156 0.9763
5.2767 1.9681 -2.0140 0.9764
4.9384 2.6965 -2.0121 0.9764
4.8377 2.8703 -2.0116 0.9764
4.6179 3.2063 -2.0104 0.9764
4.4992 3.3681 -2.0098 0.9764
4.3747 3.5254 -2.0092 0.9764
4.2447 3.6780 -2.0085 0.9764
3.9688 3.9687 -2.0071 0.9764
3.8232 4.1064 -2.0064 0.9764
3.5179 4.3654 -2.0049 0.9765
3.3585 4.4864 -2.0041 0.9765
3.0274 4.7108 -2.0025 0.9765
2.6814 4.9106 -2.0008 0.9765
2.5034 5.0011 -2.0000 0.9765
1.1851 5.4478 -1.9937 0.9766
-0.1984 5.5539 -1.9874 0.9767
-0.5935 5.5206 -1.9856 0.9767
-1.5609 5.3158 -1.9812 0.9767
-1.9345 5.1866 -1.9796 0.9768
-2.1175 5.1122 -1.9788 0.9768
-2.6487 4.8508 -1.9765 0.9768
-2.9859 4.6461 -1.9750 0.9768
-3.3074 4.4182 -1.9736 0.9768
-3.4618 4.2959 -1.9730 0.9768
-4.1634 3.6076 -1.9701 0.9769
-4.2884 3.4558 -1.9695 0.9769
-4.5219 3.1396 -1.9686 0.9769
-4.6301 2.9756 -1.9682 0.9769
-4.8287 2.6367 -1.9674 0.9769
-4.9189 2.4622 -1.9671 0.9769
-5.0028 2.2847 -1.9668 0.9769
-5.1517 1.9215 -1.9663 0.9769
-5.2164 1.7362 -1.9660 0.9769
-5.3261 1.3594 -1.9657 0.9769
-5.4089 0.9759 -1.9655 0.9769
-5.4401 0.7822 -1.9654 0.9769
-5.4645 0.5875 -1.9654 0.9769
-5.4820 0.3921 -1.9654 0.9769
-5.4926 0.1962 -1.9654 0.9769
5.2538 0.1876 -2.0146 0.9777
5.2263 0.5619 -2.0144 0.9777
4.7748 2.1806 -2.0116 0.9778
4.6050 2.5145 -2.0107 0.9778
4.4116 2.8352 -2.0096 0.9778
4.1958 3.1409 -2.0085 0.9778
4.0798 3.2877 -2.0079 0.9778
3.9586 3.4302 -2.0073 0.9778
3.7015 3.7015 -2.0060 0.9778
3.5658 3.8299 -2.0053 0.9778
3.2812 4.0717 -2.0039 0.9778
3.1326 4.1847 -2.0032 0.9779
2.8240 4.3942 -2.0017 0.9779
2.6643 4.4905 -2.0009 0.9779
2.3353 4.6654 -1.9993 0.9779
2.1664 4.7439 -1.9985 0.9779
1.8210 4.8823 -1.9969 0.9779
1.6449 4.9421 -1.9961 0.9779
1.4668 4.9956 -1.9952 0.9779
0.5554 5.1656 -1.9910 0.9780
0.3705 5.1800 -1.9901 0.9780
-0.5540 5.1525 -1.9859 0.9780
-0.7372 5.1273 -1.9851 0.9781
-1.1002 5.0575 -1.9835 0.9781
-1.4570 4.9621 -1.9819 0.9781
-1.6325 4.9050 -1.9811 0.9781
-1.9768 4.7724 -1.9796 0.9781
-2.4729 4.5288 -1.9774 0.9781
-2.7878 4.3379 -1.9760 0.9782
-2.9399 4.2342 -1.9754 0.9782
-3.2324 4.0112 -1.9741 0.9782
-3.5083 3.7682 -1.9730 0.9782
-3.6395 3.6395 -1.9724 0.9782
-3.8879 3.3688 -1.9714 0.9782
-4.0047 3.2272 -1.9709 0.9782
-4.1164 3.0815 -1.9705 0.9782
-4.3239 2.7788 -1.9697 0.9782
-4.4195 2.6222 -1.9693 0.9782
-4.5095 2.4624 -1.9690 0.9782
-4.7448 1.9654 -1.9681 0.9782
-4.8114 1.7945 -1.9679 0.9782
-4.8718 1.6215 -1.9677 0.9782
-4.9743 1.2696 -1.9674 0.9782
-5.0517 0.9114 -1.9672 0.9783
-5.1299 0.1832 -1.9671 0.9783
4.9189 0.0000 -2.0132 0.9790
4.9156 0.1756 -2.0131 0.9790
4.9059 0.3509 -2.0130 0.9790
4.8676 0.6998 -2.0127 0.9790
4.8042 1.0451 -2.0122 0.9790
4.6038 1.7171 -2.0110 0.9790
4.3913 2.1981 -2.0098 0.9790
4.3091 2.3529 -2.0094 0.9790
4.1283 2.6531 -2.0084 0.9790
3.7047 3.2101 -2.0062 0.9790
3.4641 3.4641 -2.0050 0.9790
3.2061 3.7001 -2.0038 0.9791
2.6433 4.1130 -2.0010 0.9791
2.4939 4.2032 -2.0003 0.9791
2.3414 4.2880 -1.9995 0.9791
2.0280 4.4407 -1.9980 0.9791
1.3733 4.6769 -1.9949 0.9792
0.8644 4.7912 -1.9926 0.9792
0.6926 4.8170 -1.9918 0.9792
0.3469 4.8503 -1.9902 0.9792
0.1735 4.8576 -1.9894 0.9792
0.0000 4.8588 -1.9886 0.9792
-0.1733 4.8537 -1.9878 0.9792
-0.3463 4.8426 -1.9870 0.9792
-0.5188 4.8252 -1.9862 0.9792
-0.6904 4.8017 -1.9854 0.9793
-0.8610 4.7722 -1.9847 0.9793
-1.1983 4.6950 -1.9832 0.9793
-1.3646 4.6475 -1.9824 0.9793
-2.0093 4.3997 -1.9796 0.9793
-2.1643 4.3237 -1.9789 0.9793
-2.6115 4.0636 -1.9770 0.9793
-3.1595 3.6463 -1.9746 0.9794
-3.2868 3.5302 -1.9741 0.9794
-3.4098 3.4098 -1.9736 0.9794
-3.6426 3.1563 -1.9726 0.9794
-3.7521 3.0236 -1.9722 0.9794
-3.8568 2.8871 -1.9718 0.9794
-3.9566 2.7471 -1.9714 0.9794
-4.0513 2.6036 -1.9710 0.9794
-4.1410 2.4569 -1.9707 0.9794
-4.2253 2.3072 -1.9703 0.9794
-4.3779 1.9993 -1.9698 0.9794
-4.5083 1.6815 -1.9693 0.9794
-4.5650 1.5194 -1.9691 0.9794
-4.6160 1.3554 -1.9690 0.9794
-4.7003 1.0225 -1.9687 0.9794
-4.7610 0.6845 -1.9686 0.9794
4.6040 0.3293 -2.0116 0.9801
4.5890 0.4934 -2.0115 0.9801
4.5413 0.8193 -2.0111 0.9801
4.3207 1.6115 -2.0098 0.9801
4.2597 1.7644 -2.0094 0.9801
4.1933 1.9150 -2.0090 0.9801
3.9621 2.3508 -2.0078 0.9801
3.8748 2.4901 -2.0073 0.9801
3.7825 2.6262 -2.0069 0.9801
3.5837 2.8879 -2.0058 0.9801
3.3667 3.1345 -2.0047 0.9801
3.2517 3.2517 -2.0042 0.9801
3.1327 3.3647 -2.0036 0.9801
2.8829 3.5774 -2.0023 0.9802
2.4815 3.8613 -2.0004 0.9802
2.1982 4.0257 -1.9990 0.9802
2.0524 4.1002 -1.9983 0.9802
1.6006 4.2915 -1.9961 0.9802
1.4459 4.3443 -1.9954 0.9802
0.9722 4.4689 -1.9932 0.9802
0.8117 4.4991 -1.9924 0.9802
0.3258 4.5549 -1.9902 0.9803
0.1629 4.5620 -1.9894 0.9803
-0.4872 4.5320 -1.9865 0.9803
-0.6484 4.5100 -1.9858 0.9803
-0.8087 4.4824 -1.9850 0.9803
-0.9678 4.4491 -1.9843 0.9803
-1.7394 4.1992 -1.9809 0.9804
-1.8876 4.1331 -1.9802 0.9804
-2.1762 3.9854 -1.9790 0.9804
-2.3164 3.9040 -1.9784 0.9804
-2.5874 3.7266 -1.9772 0.9804
-2.9686 3.4259 -1.9756 0.9804
-3.2038 3.2038 -1.9746 0.9804
-3.6240 2.7129 -1.9729 0.9804
-3.7178 2.5813 -1.9725 0.9804
-3.8069 2.4465 -1.9722 0.9804
-3.9705 2.1680 -1.9716 0.9805
-1.5118 0.5639 -0.7032 0.9930
-1.4401 0.4793 -0.6615 0.9934
-1.4359 0.1544 -0.6294 0.9937
-1.4490 0.1036 -0.6331 0.9937
4.3435 -0.0000 -2.0106 0.9810
4.3406 0.1550 -2.0105 0.9810
4.3321 0.3098 -2.0104 0.9810
4.2425 0.9229 -2.0097 0.9810
4.1648 1.2229 -2.0092 0.9810
3.9459 1.8020 -2.0080 0.9811
3.7285 2.2122 -2.0068 0.9811
3.5596 2.4715 -2.0059 0.9811
3.2726 2.8357 -2.0044 0.9811
3.1685 2.9500 -2.0039 0.9811
2.5907 3.4607 -2.0010 0.9811
2.4647 3.5499 -2.0004 0.9811
2.2038 3.7143 -1.9992 0.9811
1.9319 3.8595 -1.9979 0.9812
1.7924 3.9247 -1.9972 0.9812
1.6506 3.9849 -1.9965 0.9812
1.3612 4.0896 -1.9951 0.9812
1.2139 4.1342 -1.9944 0.9812
1.0652 4.1734 -1.9937 0.9812
0.6123 4.2589 -1.9916 0.9812
0.4598 4.2765 -1.9909 0.9812
0.3067 4.2887 -1.9902 0.9812
-0.0000 4.2966 -1.9888 0.9812
-0.3063 4.2826 -1.9874 0.9813
-0.4588 4.2675 -1.9867 0.9813
-0.6106 4.2469 -1.9860 0.9813
-0.7615 4.2210 -1.9854 0.9813
-0.9114 4.1897 -1.9847 0.9813
-1.4964 4.0120 -1.9821 0.9813
-1.7777 3.8927 -1.9809 0.9813
-1.9149 3.8255 -1.9803 0.9813
-2.0497 3.7537 -1.9797 0.9813
-2.1817 3.6770 -1.9791 0.9813
-2.3109 3.5958 -1.9785 0.9813
-2.4371 3.5101 -1.9780 0.9813
-2.6799 3.3255 -1.9770 0.9814
-3.0179 3.0179 -1.9756 0.9814
-3.1230 2.9076 -1.9751 0.9814
-3.2241 2.7937 -1.9747 0.9814
-3.4138 2.5556 -1.9739 0.9814
-3.5023 2.4317 -1.9736 0.9814
-3.6656 2.1749 -1.9730 0.9814
-3.7404 2.0424 -1.9727 0.9814
-3.8104 1.9073 -1.9724 0.9814
-1.2017 0.4482 -0.5937 0.9944
-1.1536 0.3840 -0.5628 0.9947
-1.1575 0.2954 -0.5529 0.9947
-1.1974 0.2160 -0.5632 0.9947
-1.2260 0.1318 -0.5708 0.9946
-1.2424 0.0444 -0.5754 0.9945
4.0724 0.4378 -2.0091 0.9819
4.0539 0.5829 -2.0090 0.9819
4.0302 0.7271 -2.0088 0.9819
3.9672 1.0126 -2.0084 0.9819
3.9281 1.1534 -2.0082 0.9819
3.7218 1.6997 -2.0070 0.9819
3.4394 2.2104 -2.0055 0.9819
3.3576 2.3312 -2.0050 0.9820
3.2715 2.4490 -2.0046 0.9820
3.0870 2.6749 -2.0037 0.9820
2.9889 2.7827 -2.0032 0.9820
2.8869 2.8869 -2.0026 0.9820
2.6721 3.0838 -2.0016 0.9820
2.4440 3.2648 -2.0005 0.9820
2.3252 3.3489 -1.9999 0.9820
2.2035 3.4288 -1.9993 0.9820
2.0791 3.5042 -1.9987 0.9820
1.8227 3.6413 -1.9974 0.9820
1.6911 3.7029 -1.9968 0.9820
1.5573 3.7597 -1.9962 0.9820
1.4217 3.8117 -1.9955 0.9820
1.2843 3.8587 -1.9949 0.9820
1.0051 3.9379 -1.9936 0.9821
0.8636 3.9700 -1.9929 0.9821
0.7211 3.9969 -1.9922 0.9821
0.4339 4.0355 -1.9909 0.9821
0.1448 4.0535 -1.9896 0.9821
0.0000 4.0547 -1.9889 0.9821
-0.1447 4.0508 -1.9883 0.9821
-0.8602 3.9543 -1.9850 0.9821
-1.2768 3.8361 -1.9832 0.9821
-1.5463 3.7330 -1.9820 0.9822
-2.1814 3.3944 -1.9792 0.9822
-2.3006 3.3135 -1.9787 0.9822
-2.4168 3.2285 -1.9782 0.9822
-2.5299 3.1394 -1.9777 0.9822
-2.7461 2.9495 -1.9768 0.9822
-2.9483 2.7450 -1.9760 0.9822
-3.4608 2.0534 -1.9739 0.9822
-3.5314 1.9283 -1.9737 0.9822
-1.0290 0.4262 -0.5463 0.9951
-1.0025 0.3337 -0.5183 0.9953
-1.0307 0.2631 -0.5218 0.9953
-1.0422 0.2267 -0.5232 0.9953
-1.0611 0.1526 -0.5258 0.9952
-1.0705 0.1151 -0.5281 0.9952
-1.0769 0.0770 -0.5296 0.9952
-1.0803 0.0386 -0.5302 0.9952
3.8714 -0.0000 -2.0084 0.9827
3.8612 0.2761 -2.0082 0.9827
3.8487 0.4138 -2.0081 0.9827
3.7815 0.8226 -2.0076 0.9827
3.5731 1.4800 -2.0064 0.9827
3.5175 1.6064 -2.0061 0.9827
3.4573 1.7306 -2.0058 0.9827
3.3928 1.8526 -2.0054 0.9827
3.3239 1.9721 -2.0050 0.9827
3.2507 2.0891 -2.0047 0.9827
3.0921 2.3148 -2.0038 0.9827
2.5258 2.9150 -2.0010 0.9828
2.1980 3.1658 -1.9994 0.9828
2.0830 3.2413 -1.9988 0.9828
1.4723 3.5544 -1.9959 0.9828
1.3441 3.6036 -1.9953 0.9828
1.0829 3.6880 -1.9940 0.9828
0.9503 3.7232 -1.9934 0.9828
0.8165 3.7535 -1.9928 0.9828
0.6818 3.7791 -1.9922 0.9828
0.5463 3.7998 -1.9915 0.9828
0.4102 3.8157 -1.9909 0.9829
0.2737 3.8267 -1.9903 0.9829
-0.0000 3.8340 -1.9890 0.9829
-0.1368 3.8304 -1.9884 0.9829
-0.2733 3.8218 -1.9878 0.9829
-0.4095 3.8085 -1.9872 0.9829
-0.5450 3.7903 -1.9865 0.9829
-0.9461 3.7070 -1.9847 0.9829
-1.0775 3.6697 -1.9842 0.9829
-1.3358 3.5814 -1.9830 0.9829
-1.4624 3.5305 -1.9825 0.9829
-1.5870 3.4751 -1.9819 0.9829
-1.7096 3.4153 -1.9814 0.9829
-2.1760 3.1341 -1.9794 0.9830
-2.2859 3.0537 -1.9789 0.9830
-2.3929 2.9694 -1.9784 0.9830
-2.4968 2.8815 -1.9780 0.9830
-2.5976 2.7900 -1.9776 0.9830
-2.6949 2.6949 -1.9772 0.9830
-2.7888 2.5965 -1.9768 0.9830
-2.8792 2.4948 -1.9764 0.9830
-2.9659 2.3901 -1.9761 0.9830
-3.1278 2.1717 -1.9754 0.9830
-3.2029 2.0584 -1.9751 0.9830
-3.2738 1.9424 -1.9748 0.9830
-0.9326 0.4259 -0.5319 0.9954
-0.9208 0.3434 -0.5098 0.9956
-0.9268 0.3085 -0.5067 0.9956
-0.9404 0.2761 -0.5085 0.9956
-0.9524 0.2431 -0.5099 0.9956
-0.9628 0.2094 -0.5112 0.9956
-0.9715 0.1753 -0.5121 0.9956
-0.9785 0.1407 -0.5128 0.9956
-0.9838 0.1058 -0.5133 0.9956
-0.9873 0.0706 -0.5135 0.9955
3.6272 0.5215 -2.0071 0.9834
3.6060 0.6506 -2.0069 0.9834
3.5802 0.7788 -2.0067 0.9834
3.5497 0.9060 -2.0065 0.9834
3.5148 1.0320 -2.0063 0.9834
3.4753 1.1567 -2.0061 0.9834
3.4313 1.2798 -2.0058 0.9834
3.2734 1.6386 -2.0050 0.9834
3.1471 1.8673 -2.0043 0.9834
3.0779 1.9781 -2.0039 0.9835
2.9278 2.1917 -2.0031 0.9835
2.8472 2.2944 -2.0027 0.9835
2.7629 2.3940 -2.0023 0.9835
2.5839 2.5839 -2.0014 0.9835
2.1877 2.9224 -1.9994 0.9835
1.7477 3.2006 -1.9973 0.9835
1.6319 3.2600 -1.9967 0.9835
1.5140 3.3153 -1.9962 0.9835
1.2729 3.4129 -1.9950 0.9835
1.0256 3.4929 -1.9939 0.9835
0.7734 3.5551 -1.9927 0.9835
0.2592 3.6246 -1.9903 0.9836
-0.2589 3.6203 -1.9879 0.9836
-0.5162 3.5905 -1.9868 0.9836
-0.6439 3.5688 -1.9862 0.9836
-0.7706 3.5425 -1.9856 0.9836
-0.8963 3.5117 -1.9851 0.9836
-1.1439 3.4369 -1.9840 0.9836
-1.5036 3.2924 -1.9824 0.9836
-1.6197 3.2357 -1.9819 0.9836
-1.7337 3.1751 -1.9814 0.9836
-1.8455 3.1104 -1.9809 0.9836
-2.4612 2.6435 -1.9783 0.9837
-2.8104 2.2647 -1.9768 0.9837
-2.8889 2.1626 -1.9765 0.9837
-3.0350 1.9504 -1.9759 0.9837
-0.8524 0.5057 -0.5428 0.9955
-0.8507 0.4645 -0.5309 0.9956
-0.8506 0.3884 -0.5122 0.9957
-0.8465 0.3157 -0.4948 0.9959
-0.8603 0.2863 -0.4966 0.9959
-0.8727 0.2562 -0.4982 0.9959
-0.8837 0.2256 -0.4995 0.9958
-0.9011 0.1626 -0.5015 0.9958
-0.9077 0.1305 -0.5022 0.9958
-0.9161 0.0655 -0.5030 0.9958
-0.9179 0.0328 -0.5031 0.9958
3.4755 0.0000 -2.0066 0.9841
3.4395 0.4945 -2.0062 0.9841
3.4194 0.6169 -2.0061 0.9841
3.3949 0.7385 -2.0059 0.9841
3.3661 0.8592 -2.0057 0.9841
3.3329 0.9786 -2.0055 0.9841
3.2955 1.0968 -2.0053 0.9841
3.2539 1.2136 -2.0050 0.9841
3.2081 1.3288 -2.0048 0.9841
3.1582 1.4423 -2.0045 0.9841
3.0463 1.6634 -2.0039 0.9841
2.9845 1.7708 -2.0036 0.9841
2.9189 1.8758 -2.0032 0.9841
2.6202 2.2704 -2.0017 0.9841
2.0749 2.7717 -1.9990 0.9841
1.9742 2.8433 -1.9985 0.9841
1.8709 2.9113 -1.9980 0.9841
1.7654 2.9754 -1.9975 0.9841
1.5478 3.0921 -1.9964 0.9842
1.4361 3.1446 -1.9959 0.9842
1.3226 3.1930 -1.9953 0.9842
1.2074 3.2372 -1.9948 0.9842
0.6126 3.3955 -1.9920 0.9842
0.4909 3.4142 -1.9914 0.9842
-0.2456 3.4346 -1.9881 0.9842
-0.7312 3.3610 -1.9859 0.9842
-0.8504 3.3319 -1.9853 0.9842
-1.0854 3.2610 -1.9843 0.9843
-1.2008 3.2194 -1.9838 0.9843
-1.4267 3.1240 -1.9828 0.9843
-1.5369 3.0703 -1.9823 0.9843
-1.6451 3.0127 -1.9818 0.9843
-1.7512 2.9514 -1.9814 0.9843
-1.8550 2.8864 -1.9809 0.9843
-2.0553 2.7455 -1.9801 0.9843
-2.1515 2.6699 -1.9797 0.9843
-2.2450 2.5909 -1.9793 0.9843
-2.3356 2.5086 -1.9789 0.9843
-2.4232 2.4232 -1.9785 0.9843
-2.5077 2.3348 -1.9782 0.9843
-2.5890 2.2434 -1.9779 0.9843
-0.7634 0.5300 -0.5366 0.9957
-0.7696 0.4946 -0.5282 0.9958
-0.7806 0.3908 -0.5040 0.9960
-0.7796 0.3229 -0.4872 0.9961
-0.7887 0.2942 -0.4860 0.9961
-0.8318 0.1809 -0.4915 0.9961
-0.8393 0.1514 -0.4924 0.9961
-0.8499 0.0914 -0.4935 0.9961
