ply
format ascii 1.0
element vertex 774
property float32 x
property float32 y
property float32 z
property float32 I
end_header
3.3962 8.1992 1.3596 0.9647
3.3941 8.1940 0.9524 0.9649
3.3934 8.1925 0.7507 0.9650
3.3928 8.1910 0.5498 0.9651
3.3922 8.1896 0.3495 0.9651
3.3916 8.1881 0.1497 0.9652
3.3910 8.1867 -0.0499 0.9652
3.3904 8.1852 -0.2495 0.9652
3.3898 8.1838 -0.4492 0.9651
5.7624 3.7033 -0.5022 0.9729
3.3892 8.1823 -0.6494 0.9651
5.0947 3.0229 -0.5687 0.9765
4.9141 3.6787 -0.5893 0.9756
6.6473 2.7534 -0.8547 0.9714
5.2376 2.8600 -0.7089 0.9762
4.9033 2.9093 -0.6772 0.9773
4.5808 3.4292 -0.6797 0.9772
4.5399 3.9339 -0.7136 0.9761
8.0101 2.6660 -1.1962 0.9665
5.8831 2.6867 -0.9164 0.9742
5.4248 2.7154 -0.8596 0.9758
4.7771 2.8344 -0.7870 0.9778
4.5928 2.9516 -0.7736 0.9782
4.3963 3.0524 -0.7583 0.9786
4.2683 3.4396 -0.7767 0.9781
7.8989 2.6290 -1.3714 0.9668
6.9679 2.5989 -1.2251 0.9703
6.3037 2.6111 -1.1240 0.9727
5.7472 2.6247 -1.0409 0.9747
5.2948 2.6504 -0.9754 0.9763
4.9241 2.6888 -0.9243 0.9775
4.0585 3.0382 -0.8352 0.9797
3.8061 3.5436 -0.8567 0.9791
6.9635 2.5973 -1.3969 0.9702
6.2541 2.5905 -1.2724 0.9728
5.7142 2.6096 -1.1807 0.9748
5.2504 2.6282 -1.1036 0.9764
4.5134 2.6779 -0.9864 0.9789
3.8295 3.0860 -0.9244 0.9802
3.7706 3.5106 -0.9683 0.9793
5.8890 7.8668 -1.8471 0.9608
4.7061 8.6186 -1.8457 0.9608
4.3947 8.7795 -1.8454 0.9608
3.3429 8.0704 -1.6419 0.9651
3.4290 9.1935 -1.8443 0.9609
2.0840 9.5799 -1.8428 0.9609
1.3947 9.7001 -1.8420 0.9609
1.0473 9.7416 -1.8416 0.9609
0.3496 9.7872 -1.8408 0.9609
-0.3494 9.7830 -1.8400 0.9609
-0.6982 9.7622 -1.8396 0.9609
-1.0460 9.7289 -1.8392 0.9610
-1.7366 9.6254 -1.8384 0.9610
-2.4178 9.4730 -1.8376 0.9610
-2.7538 9.3787 -1.8372 0.9610
-3.4145 9.1545 -1.8365 0.9610
-3.7383 9.0250 -1.8361 0.9610
-4.3708 8.7319 -1.8354 0.9610
-4.6788 8.5686 -1.8350 0.9610
-5.5649 8.0149 -1.8340 0.9611
9.4707 0.3383 -2.0032 0.9620
9.4223 1.0130 -2.0031 0.9620
9.2592 2.0142 -2.0030 0.9620
9.1810 2.3433 -2.0029 0.9620
3.8625 2.8915 -1.0199 0.9805
3.8044 3.0658 -1.0328 0.9802
3.7594 3.2576 -1.0515 0.9799
3.7388 3.7388 -1.1177 0.9786
6.1948 7.1492 -1.9996 0.9621
5.9293 7.3579 -1.9975 0.9621
5.6528 7.5512 -1.9939 0.9622
4.5787 7.7170 -1.8967 0.9640
4.2176 7.7240 -1.8602 0.9647
3.3345 8.0503 -1.8419 0.9650
3.0483 8.1729 -1.8438 0.9650
-0.0000 8.7065 -1.8404 0.9650
-0.9301 8.6516 -1.8393 0.9651
-1.2381 8.6112 -1.8390 0.9651
-1.5444 8.5599 -1.8386 0.9651
-1.8486 8.4977 -1.8383 0.9651
-2.1503 8.4247 -1.8379 0.9651
-2.7448 8.2468 -1.8372 0.9651
-4.9577 7.7143 -1.9383 0.9632
-6.6400 6.6400 -1.9849 0.9623
-7.0949 6.1478 -1.9844 0.9623
-7.3089 5.8899 -1.9842 0.9624
-7.5135 5.6246 -1.9839 0.9624
-7.7086 5.3522 -1.9837 0.9624
-8.5323 3.8966 -1.9827 0.9624
-8.6652 3.5893 -1.9826 0.9624
-8.7872 3.2774 -1.9824 0.9624
-8.8979 2.9615 -1.9823 0.9624
-9.1620 1.9931 -1.9820 0.9624
8.5187 0.0000 -2.0021 0.9656
8.5133 0.3041 -2.0021 0.9656
8.4970 0.6077 -2.0021 0.9656
8.3829 1.5124 -2.0020 0.9656
8.3233 1.8106 -2.0019 0.9656
8.1723 2.3996 -2.0018 0.9656
7.3010 2.7231 -1.8314 0.9685
6.2584 2.5923 -1.5920 0.9725
5.6710 2.5899 -1.4652 0.9747
5.1686 2.5872 -1.3584 0.9765
4.4183 2.6215 -1.2074 0.9791
4.1558 2.6708 -1.1610 0.9799
3.7899 4.0707 -1.3072 0.9774
5.3359 6.6215 -1.9986 0.9657
4.3348 7.3059 -1.9965 0.9657
3.7926 7.5768 -1.9913 0.9658
3.1919 7.7060 -1.9603 0.9663
2.5679 7.7154 -1.9111 0.9671
1.9711 7.7227 -1.8732 0.9678
1.6806 7.7257 -1.8582 0.9680
1.3948 7.7308 -1.8462 0.9682
1.1152 7.7562 -1.8416 0.9683
0.5588 7.8133 -1.8410 0.9683
0.2796 7.8269 -1.8407 0.9683
0.0000 7.8305 -1.8403 0.9683
-0.5584 7.8079 -1.8397 0.9683
-0.8366 7.7816 -1.8394 0.9684
-1.9716 7.7247 -1.8737 0.9678
-2.2673 7.7216 -1.8914 0.9675
-2.5688 7.7180 -1.9117 0.9671
-3.1932 7.7091 -1.9611 0.9663
-3.5025 7.6694 -1.9815 0.9659
-3.7774 7.5462 -1.9833 0.9659
-4.0482 7.4138 -1.9853 0.9659
-4.5716 7.1135 -1.9873 0.9659
-5.5343 6.3869 -1.9862 0.9659
-6.3837 5.5315 -1.9852 0.9659
-6.7606 5.0609 -1.9848 0.9659
-7.4092 4.0457 -1.9840 0.9659
-7.6777 3.5063 -1.9837 0.9659
-7.7974 3.2298 -1.9835 0.9659
-7.9071 2.9492 -1.9834 0.9659
-8.0965 2.3774 -1.9832 0.9659
-8.1757 2.0867 -1.9831 0.9659
-8.3031 1.4981 -1.9829 0.9659
-8.4311 0.3011 -1.9828 0.9659
7.7094 0.5514 -2.0012 0.9686
7.6502 1.0999 -2.0011 0.9686
7.1386 2.9569 -2.0006 0.9686
5.1651 2.5855 -1.4955 0.9764
4.3811 2.5995 -1.3190 0.9792
3.9481 2.7412 -1.2445 0.9803
3.8233 2.8621 -1.2366 0.9805
3.7558 3.0266 -1.2489 0.9803
3.6987 3.6988 -1.3543 0.9786
4.8421 6.0087 -1.9980 0.9686
4.1705 6.4894 -1.9973 0.9686
3.2027 7.0130 -1.9962 0.9686
2.6935 7.2215 -1.9956 0.9687
2.4325 7.3085 -1.9943 0.9687
2.1684 7.3847 -1.9928 0.9687
1.6338 7.5103 -1.9900 0.9687
0.5473 7.6524 -1.9864 0.9688
-0.2737 7.6628 -1.9853 0.9688
-1.6309 7.4972 -1.9866 0.9688
-2.4262 7.2896 -1.9892 0.9688
-2.9400 7.0979 -1.9892 0.9688
-3.6803 6.7400 -1.9883 0.9688
-3.9180 6.6034 -1.9880 0.9688
-4.1506 6.4585 -1.9878 0.9688
-4.3779 6.3055 -1.9875 0.9688
-4.8154 5.9755 -1.9870 0.9688
-5.0250 5.7991 -1.9868 0.9688
-5.2281 5.6154 -1.9865 0.9688
-5.4246 5.4246 -1.9863 0.9688
-5.7965 5.0227 -1.9859 0.9688
-6.1388 4.5955 -1.9855 0.9688
-6.2983 4.3730 -1.9853 0.9688
-6.4498 4.1451 -1.9851 0.9688
-6.5931 3.9119 -1.9849 0.9688
-6.7280 3.6738 -1.9848 0.9688
-6.8543 3.4310 -1.9846 0.9688
-7.1804 2.6782 -1.9842 0.9688
-7.5402 1.3604 -1.9838 0.9688
-7.5837 1.0904 -1.9837 0.9688
-7.6176 0.8190 -1.9837 0.9688
-7.6419 0.5466 -1.9837 0.9688
-7.6564 0.2735 -1.9836 0.9688
7.0619 0.2522 -2.0004 0.9711
7.0258 0.7554 -2.0004 0.9711
6.9537 1.2546 -2.0003 0.9711
6.9044 1.5020 -2.0003 0.9711
6.8461 1.7474 -2.0002 0.9711
6.7792 1.9906 -2.0002 0.9711
6.7035 2.2312 -2.0001 0.9711
6.4257 2.9345 -1.9998 0.9711
4.7642 2.6015 -1.5367 0.9777
4.3612 2.5876 -1.4356 0.9791
3.7506 3.0225 -1.3636 0.9802
3.7019 3.2077 -1.3867 0.9798
3.6984 3.4433 -1.4305 0.9792
4.8092 5.1655 -1.9980 0.9711
4.4275 5.4942 -1.9975 0.9711
3.1562 6.3053 -1.9961 0.9711
2.9287 6.4131 -1.9959 0.9711
2.2256 6.6867 -1.9951 0.9711
1.9852 6.7610 -1.9948 0.9711
1.7424 6.8266 -1.9945 0.9711
0.7527 7.0011 -1.9934 0.9712
0.0000 7.0384 -1.9925 0.9712
-0.2512 7.0329 -1.9922 0.9712
-0.5020 7.0185 -1.9920 0.9712
-1.0011 6.9628 -1.9914 0.9712
-1.2488 6.9217 -1.9911 0.9712
-1.4948 6.8717 -1.9908 0.9712
-2.2199 6.6697 -1.9900 0.9712
-2.9190 6.3917 -1.9892 0.9712
-3.1448 6.2826 -1.9889 0.9712
-3.3666 6.1655 -1.9887 0.9712
-3.5841 6.0407 -1.9884 0.9712
-4.2078 5.6209 -1.9877 0.9712
-5.1361 4.7819 -1.9866 0.9712
-5.6163 4.2043 -1.9861 0.9713
-5.7622 4.0008 -1.9859 0.9713
-6.1555 3.3611 -1.9854 0.9713
-6.2711 3.1391 -1.9853 0.9713
-6.3787 2.9131 -1.9852 0.9713
-6.4782 2.6834 -1.9850 0.9713
-6.5695 2.4503 -1.9849 0.9713
-6.6524 2.2142 -1.9848 0.9713
-6.9386 0.9976 -1.9845 0.9713
-7.0052 0.2502 -1.9844 0.9713
6.4976 0.2321 -1.9998 0.9732
6.4644 0.6950 -1.9998 0.9732
6.4354 0.9253 -1.9997 0.9732
6.3981 1.1544 -1.9997 0.9732
6.2992 1.6078 -1.9996 0.9732
6.1680 2.0529 -1.9995 0.9732
6.0905 2.2717 -1.9994 0.9732
5.9124 2.7001 -1.9992 0.9732
5.8119 2.9093 -1.9991 0.9732
4.7657 2.6023 -1.6701 0.9775
3.7532 3.0245 -1.4826 0.9800
3.7133 3.2176 -1.5113 0.9796
4.4779 4.1691 -1.8818 0.9747
4.4254 4.7532 -1.9975 0.9732
4.0742 5.0558 -1.9971 0.9732
3.8908 5.1975 -1.9969 0.9732
3.7024 5.3325 -1.9967 0.9732
3.5093 5.4606 -1.9965 0.9732
3.3118 5.5818 -1.9963 0.9732
3.1101 5.6958 -1.9960 0.9732
2.9045 5.8025 -1.9958 0.9732
2.6952 5.9017 -1.9956 0.9732
2.4826 5.9934 -1.9953 0.9732
2.2668 6.0775 -1.9951 0.9732
2.0482 6.1537 -1.9948 0.9732
1.8270 6.2222 -1.9946 0.9732
1.6035 6.2826 -1.9943 0.9732
1.3781 6.3350 -1.9941 0.9732
0.9224 6.4155 -1.9936 0.9732
0.4623 6.4633 -1.9930 0.9732
0.2312 6.4748 -1.9928 0.9733
-0.6922 6.4384 -1.9917 0.9733
-0.9214 6.4088 -1.9915 0.9733
-1.1494 6.3710 -1.9912 0.9733
-2.2609 6.0618 -1.9899 0.9733
-2.4755 5.9765 -1.9897 0.9733
-2.6869 5.8836 -1.9894 0.9733
-3.0991 5.6755 -1.9890 0.9733
-3.2993 5.5607 -1.9887 0.9733
-3.8735 5.1744 -1.9881 0.9733
-4.2319 4.8838 -1.9877 0.9733
-4.4031 4.7292 -1.9875 0.9733
-4.5686 4.5686 -1.9873 0.9733
-4.7283 4.4022 -1.9871 0.9733
-4.8820 4.2303 -1.9869 0.9733
-5.0294 4.0530 -1.9867 0.9733
-5.3049 3.6833 -1.9864 0.9733
-5.4326 3.4913 -1.9863 0.9733
-5.5533 3.2949 -1.9861 0.9733
-5.6670 3.0944 -1.9860 0.9733
-5.8726 2.6819 -1.9857 0.9733
-6.0483 2.2559 -1.9855 0.9733
-6.1247 2.0385 -1.9854 0.9733
-6.2540 1.5963 -1.9853 0.9733
-6.3068 1.3720 -1.9852 0.9734
-6.3883 0.9185 -1.9851 0.9734
-6.4496 0.2304 -1.9850 0.9734
6.0145 0.0000 -1.9992 0.9750
6.0106 0.2147 -1.9992 0.9750
5.9991 0.4291 -1.9992 0.9750
5.9186 1.0679 -1.9992 0.9750
5.8271 1.4873 -1.9991 0.9750
5.5553 2.3011 -1.9988 0.9750
5.4694 2.4978 -1.9987 0.9750
5.3765 2.6913 -1.9986 0.9750
4.3817 2.5998 -1.6936 0.9788
4.3981 4.0948 -1.9975 0.9750
4.2488 4.2488 -1.9973 0.9750
4.0941 4.3973 -1.9971 0.9750
3.9342 4.5403 -1.9970 0.9750
3.7693 4.6774 -1.9968 0.9750
3.4253 4.9334 -1.9964 0.9750
2.8774 5.2696 -1.9958 0.9750
2.6872 5.3684 -1.9956 0.9750
2.4936 5.4603 -1.9953 0.9750
2.2969 5.5452 -1.9951 0.9750
1.8950 5.6936 -1.9947 0.9750
1.6904 5.7570 -1.9944 0.9750
1.4837 5.8129 -1.9942 0.9750
1.2751 5.8615 -1.9940 0.9750
1.0649 5.9026 -1.9937 0.9750
0.8535 5.9361 -1.9935 0.9750
0.6410 5.9621 -1.9932 0.9750
0.2140 5.9911 -1.9928 0.9750
-0.0000 5.9942 -1.9925 0.9750
-0.4275 5.9775 -1.9920 0.9751
-0.8527 5.9303 -1.9915 0.9751
-1.2732 5.8529 -1.9911 0.9751
-1.4811 5.8031 -1.9908 0.9751
-1.6871 5.7458 -1.9906 0.9751
-2.0922 5.6095 -1.9901 0.9751
-2.4865 5.4447 -1.9897 0.9751
-2.6790 5.3519 -1.9894 0.9751
-2.8680 5.2523 -1.9892 0.9751
-3.0533 5.1461 -1.9890 0.9751
-3.2347 5.0333 -1.9888 0.9751
-3.5848 4.7887 -1.9884 0.9751
-3.7530 4.6572 -1.9882 0.9751
-3.9165 4.5199 -1.9880 0.9751
-4.0750 4.3768 -1.9878 0.9751
-4.2282 4.2282 -1.9876 0.9751
-4.5183 3.9151 -1.9873 0.9751
-4.6548 3.7511 -1.9871 0.9751
-4.9098 3.4090 -1.9868 0.9751
-5.1398 3.0496 -1.9866 0.9751
-5.3436 2.6748 -1.9863 0.9751
-5.4353 2.4822 -1.9862 0.9751
-5.5202 2.2866 -1.9861 0.9751
-5.6687 1.8867 -1.9859 0.9751
-5.9128 0.8502 -1.9856 0.9751
-5.9392 0.6386 -1.9856 0.9751
-5.9695 0.2132 -1.9856 0.9751
5.5572 0.5975 -1.9987 0.9765
5.5322 0.7954 -1.9987 0.9765
5.5002 0.9924 -1.9987 0.9765
5.4612 1.1880 -1.9986 0.9765
5.4152 1.3821 -1.9986 0.9765
4.9965 2.5011 -1.9981 0.9765
4.7589 2.5985 -1.9390 0.9772
4.4491 2.6398 -1.8500 0.9783
4.6997 3.0203 -1.9978 0.9765
4.5887 3.1860 -1.9977 0.9765
4.0874 3.8055 -1.9971 0.9766
3.8049 4.0868 -1.9968 0.9766
3.6563 4.2196 -1.9966 0.9766
3.3454 4.4689 -1.9963 0.9766
3.0175 4.6953 -1.9959 0.9766
2.8477 4.7996 -1.9957 0.9766
2.4976 4.9895 -1.9953 0.9766
2.3176 5.0749 -1.9951 0.9766
2.1348 5.1539 -1.9949 0.9766
1.9493 5.2263 -1.9947 0.9766
1.5712 5.3509 -1.9943 0.9766
1.3790 5.4029 -1.9941 0.9766
1.1852 5.4481 -1.9938 0.9766
0.9898 5.4863 -1.9936 0.9766
0.5958 5.5417 -1.9932 0.9766
0.0000 5.5718 -1.9925 0.9766
-0.1989 5.5676 -1.9923 0.9766
-0.5954 5.5379 -1.9918 0.9766
-0.7926 5.5125 -1.9916 0.9766
-1.5683 5.3412 -1.9907 0.9766
-1.9450 5.2146 -1.9903 0.9766
-2.1296 5.1413 -1.9901 0.9766
-2.4904 4.9753 -1.9896 0.9766
-2.6662 4.8827 -1.9894 0.9766
-3.0071 4.6792 -1.9890 0.9766
-3.1719 4.5684 -1.9889 0.9767
-3.3326 4.4519 -1.9887 0.9767
-3.6411 4.2020 -1.9883 0.9767
-3.7884 4.0690 -1.9881 0.9767
-4.0684 3.7878 -1.9878 0.9767
-4.3276 3.4874 -1.9875 0.9767
-4.5647 3.1693 -1.9872 0.9767
-4.8764 2.6627 -1.9869 0.9767
-4.9680 2.4868 -1.9868 0.9767
-5.0534 2.3078 -1.9867 0.9767
-5.1323 2.1259 -1.9866 0.9767
-5.2704 1.7542 -1.9864 0.9767
-5.3295 1.5649 -1.9863 0.9767
-5.3818 1.3736 -1.9863 0.9767
-5.4658 0.9861 -1.9862 0.9767
-5.5220 0.5937 -1.9861 0.9767
-5.5396 0.3962 -1.9861 0.9767
-5.5502 0.1982 -1.9860 0.9767
5.2146 0.0000 -1.9983 0.9779
5.2113 0.1861 -1.9983 0.9779
5.0951 1.1084 -1.9982 0.9779
4.8167 1.9952 -1.9979 0.9779
4.7422 2.1657 -1.9978 0.9779
4.6617 2.3335 -1.9977 0.9779
4.5752 2.4983 -1.9977 0.9779
4.4829 2.6598 -1.9975 0.9779
4.3848 2.8180 -1.9974 0.9779
4.1721 3.1232 -1.9972 0.9779
4.0578 3.2700 -1.9971 0.9779
3.9382 3.4125 -1.9969 0.9779
3.8136 3.5506 -1.9968 0.9779
3.6842 3.6842 -1.9967 0.9779
3.5501 3.8131 -1.9965 0.9779
3.4115 3.9370 -1.9964 0.9779
2.6571 4.4783 -1.9955 0.9779
2.4953 4.5699 -1.9953 0.9779
2.3304 4.6556 -1.9951 0.9779
2.1626 4.7353 -1.9949 0.9779
1.6435 4.9379 -1.9944 0.9780
1.2868 5.0416 -1.9940 0.9780
0.7403 5.1486 -1.9933 0.9780
0.1856 5.1966 -1.9927 0.9780
-0.0000 5.1994 -1.9925 0.9780
-0.3708 5.1850 -1.9921 0.9780
-0.7396 5.1443 -1.9916 0.9780
-0.9227 5.1141 -1.9914 0.9780
-1.1045 5.0773 -1.9912 0.9780
-1.6404 4.9287 -1.9906 0.9780
-1.8151 4.8665 -1.9904 0.9780
-2.1572 4.7237 -1.9900 0.9780
-2.3242 4.6432 -1.9898 0.9780
-2.4882 4.5568 -1.9896 0.9780
-2.6490 4.4647 -1.9895 0.9780
-2.8064 4.3669 -1.9893 0.9780
-2.9603 4.2636 -1.9891 0.9780
-3.3982 3.9217 -1.9886 0.9780
-3.5357 3.7976 -1.9884 0.9780
-3.6687 3.6687 -1.9883 0.9780
-3.7840 3.5230 -1.9813 0.9781
-3.9141 3.3916 -1.9847 0.9781
-4.0256 3.2441 -1.9813 0.9781
-4.1523 3.1084 -1.9877 0.9780
-4.3629 2.8039 -1.9875 0.9780
-4.5513 2.4852 -1.9872 0.9780
-4.8578 1.8119 -1.9869 0.9780
-4.9743 1.4606 -1.9867 0.9780
-5.0231 1.2821 -1.9867 0.9780
-5.1311 0.7378 -1.9865 0.9780
-5.1540 0.5541 -1.9865 0.9780
-5.1705 0.3698 -1.9865 0.9780
4.8692 0.3483 -1.9979 0.9791
4.8536 0.5218 -1.9979 0.9791
4.8319 0.6947 -1.9979 0.9791
4.8039 0.8667 -1.9979 0.9791
4.7297 1.2072 -1.9978 0.9791
4.6313 1.5414 -1.9977 0.9791
4.5092 1.8678 -1.9976 0.9791
4.4395 2.0275 -1.9975 0.9791
4.3641 2.1846 -1.9974 0.9791
4.2832 2.3388 -1.9973 0.9791
4.1968 2.4901 -1.9972 0.9791
4.0080 2.7828 -1.9970 0.9791
3.7989 3.0613 -1.9968 0.9791
3.6869 3.1948 -1.9967 0.9791
3.5703 3.3241 -1.9965 0.9791
3.4492 3.4492 -1.9964 0.9791
3.3236 3.5698 -1.9962 0.9791
3.1939 3.6859 -1.9961 0.9791
2.9223 3.9038 -1.9958 0.9791
2.7809 4.0053 -1.9956 0.9791
2.6360 4.1016 -1.9955 0.9791
2.1819 4.3588 -1.9950 0.9792
1.7029 4.5658 -1.9944 0.9792
1.5388 4.6232 -1.9942 0.9792
1.3726 4.6748 -1.9940 0.9792
1.2048 4.7204 -1.9939 0.9792
0.5206 4.8419 -1.9931 0.9792
0.3474 4.8569 -1.9929 0.9792
-0.3472 4.8550 -1.9921 0.9792
-0.6926 4.8169 -1.9917 0.9792
-1.6996 4.5569 -1.9905 0.9792
-2.0200 4.4232 -1.9902 0.9792
-2.3300 4.2671 -1.9898 0.9792
-2.4806 4.1809 -1.9896 0.9792
-2.7721 3.9926 -1.9893 0.9792
-2.9126 3.8908 -1.9891 0.9792
-3.0494 3.7840 -1.9890 0.9792
-3.1822 3.6725 -1.9888 0.9792
-3.5558 3.3106 -1.9884 0.9792
-3.8885 2.9109 -1.9880 0.9792
-3.9897 2.7701 -1.9879 0.9792
-4.0858 2.6258 -1.9878 0.9792
-4.1767 2.4782 -1.9877 0.9792
-4.2623 2.3274 -1.9876 0.9792
-4.4170 2.0172 -1.9874 0.9792
-4.4860 1.8582 -1.9873 0.9792
-4.5493 1.6968 -1.9872 0.9792
-4.6585 1.3679 -1.9871 0.9792
-4.7042 1.2007 -1.9870 0.9792
-4.7439 1.0320 -1.9870 0.9792
-4.7776 0.8620 -1.9869 0.9792
-4.8268 0.5190 -1.9869 0.9792
-4.8514 0.1733 -1.9868 0.9792
4.5836 0.0000 -1.9976 0.9802
4.5807 0.1636 -1.9976 0.9802
4.5368 0.6523 -1.9976 0.9802
4.4786 0.9743 -1.9975 0.9802
4.2940 1.6016 -1.9973 0.9802
4.2339 1.7538 -1.9972 0.9802
4.0977 2.0512 -1.9971 0.9802
4.0217 2.1960 -1.9970 0.9802
3.8545 2.4771 -1.9968 0.9802
3.6675 2.7455 -1.9966 0.9802
3.4619 2.9998 -1.9964 0.9802
3.3525 3.1213 -1.9963 0.9802
3.2387 3.2387 -1.9961 0.9802
3.1208 3.3521 -1.9960 0.9802
2.9990 3.4611 -1.9959 0.9802
2.7441 3.6657 -1.9956 0.9802
2.6113 3.7610 -1.9954 0.9802
2.4752 3.8515 -1.9953 0.9802
1.9013 4.1632 -1.9946 0.9802
1.5991 4.2875 -1.9943 0.9802
1.4450 4.3414 -1.9941 0.9802
0.9724 4.4698 -1.9936 0.9802
0.4889 4.5469 -1.9930 0.9802
-0.3261 4.5593 -1.9921 0.9803
-0.8114 4.4971 -1.9915 0.9803
-1.1299 4.4269 -1.9912 0.9803
-1.4426 4.3343 -1.9908 0.9803
-1.5962 4.2796 -1.9906 0.9803
-1.8971 4.1541 -1.9903 0.9803
-2.0440 4.0834 -1.9901 0.9803
-2.1883 4.0075 -1.9900 0.9803
-2.3297 3.9266 -1.9898 0.9803
-2.6035 3.7498 -1.9895 0.9803
-2.7355 3.6542 -1.9893 0.9803
-2.8639 3.5539 -1.9892 0.9803
-2.9887 3.4492 -1.9890 0.9803
-3.1097 3.3401 -1.9889 0.9803
-3.2267 3.2267 -1.9888 0.9803
-3.8375 2.4662 -1.9881 0.9803
-3.9229 2.3276 -1.9880 0.9803
-4.0786 2.0416 -1.9878 0.9803
-4.1487 1.8946 -1.9877 0.9803
-1.5118 0.5639 -0.7032 0.9930
-1.4401 0.4793 -0.6615 0.9934
-1.3722 0.4029 -0.6233 0.9938
-1.3688 0.2978 -0.6105 0.9939
-1.3955 0.2518 -0.6180 0.9938
-1.4359 0.1544 -0.6294 0.9937
-1.4571 0.0521 -0.6354 0.9937
4.3149 0.0000 -1.9973 0.9812
4.2161 0.9172 -1.9972 0.9812
4.0936 1.3625 -1.9971 0.9812
3.9858 1.6510 -1.9970 0.9812
3.9242 1.7921 -1.9969 0.9812
3.8576 1.9310 -1.9968 0.9812
3.7097 2.2011 -1.9967 0.9812
3.6286 2.3320 -1.9966 0.9812
3.5429 2.4599 -1.9965 0.9812
3.4527 2.5846 -1.9964 0.9812
3.3580 2.7061 -1.9963 0.9812
3.2591 2.8240 -1.9962 0.9812
3.0490 3.0490 -1.9959 0.9812
2.8233 3.2583 -1.9957 0.9812
2.5834 3.4510 -1.9954 0.9812
2.3303 3.6260 -1.9951 0.9812
2.1992 3.7065 -1.9950 0.9812
2.0653 3.7824 -1.9948 0.9812
1.9289 3.8534 -1.9947 0.9812
1.6488 3.9805 -1.9943 0.9812
1.5055 4.0365 -1.9942 0.9812
1.0652 4.1733 -1.9937 0.9812
0.7646 4.2379 -1.9933 0.9812
0.6128 4.2621 -1.9932 0.9812
0.4603 4.2810 -1.9930 0.9812
0.3071 4.2942 -1.9928 0.9812
0.1536 4.3021 -1.9926 0.9812
-0.0000 4.3045 -1.9925 0.9812
-0.3070 4.2927 -1.9921 0.9812
-0.7639 4.2342 -1.9916 0.9812
-0.9145 4.2039 -1.9914 0.9812
-1.0639 4.1682 -1.9913 0.9812
-1.2119 4.1272 -1.9911 0.9812
-1.3583 4.0810 -1.9909 0.9812
-1.5029 4.0296 -1.9907 0.9812
-1.9246 3.8449 -1.9903 0.9812
-2.0605 3.7735 -1.9901 0.9812
-2.4515 3.5308 -1.9897 0.9812
-2.5757 3.4408 -1.9895 0.9812
-2.6967 3.3464 -1.9894 0.9812
-2.8143 3.2478 -1.9892 0.9812
-3.4391 2.5744 -1.9885 0.9812
-3.6136 2.3223 -1.9883 0.9812
-3.9066 1.7841 -1.9880 0.9812
-1.2345 0.5114 -0.6185 0.9941
-1.2017 0.4482 -0.5937 0.9944
-1.1536 0.3840 -0.5628 0.9947
-1.1330 0.3327 -0.5466 0.9948
-1.1575 0.2954 -0.5529 0.9947
-1.1790 0.2565 -0.5585 0.9947
-1.1974 0.2161 -0.5632 0.9947
-1.2124 0.1743 -0.5670 0.9946
-1.2260 0.1318 -0.5708 0.9946
-1.2362 0.0884 -0.5737 0.9946
4.0712 0.0000 -1.9970 0.9820
4.0478 0.4352 -1.9970 0.9820
4.0297 0.5794 -1.9970 0.9820
4.0064 0.7229 -1.9970 0.9820
3.9060 1.1469 -1.9969 0.9820
3.8140 1.4226 -1.9968 0.9820
3.7607 1.5577 -1.9967 0.9820
3.4237 2.2003 -1.9963 0.9820
3.2577 2.4387 -1.9961 0.9820
3.1685 2.5533 -1.9960 0.9820
2.9779 2.7726 -1.9958 0.9820
2.8769 2.8769 -1.9957 0.9820
2.6640 3.0745 -1.9955 0.9820
2.5524 3.1674 -1.9954 0.9820
2.4376 3.2563 -1.9952 0.9820
2.3197 3.3410 -1.9951 0.9820
2.1988 3.4214 -1.9950 0.9820
1.8201 3.6360 -1.9945 0.9820
1.6890 3.6984 -1.9944 0.9820
1.5558 3.7561 -1.9942 0.9820
1.4206 3.8089 -1.9941 0.9821
1.1451 3.8999 -1.9938 0.9821
0.8639 3.9711 -1.9934 0.9821
0.7215 3.9990 -1.9933 0.9821
0.0000 4.0619 -1.9925 0.9821
-0.1450 4.0590 -1.9923 0.9821
-0.2897 4.0509 -1.9921 0.9821
-0.5779 4.0192 -1.9918 0.9821
-0.8630 3.9671 -1.9915 0.9821
-1.0040 3.9335 -1.9913 0.9821
-1.1436 3.8948 -1.9912 0.9821
-1.2818 3.8512 -1.9910 0.9821
-1.5530 3.7494 -1.9907 0.9821
-1.6857 3.6913 -1.9905 0.9821
-2.3135 3.3321 -1.9898 0.9821
-2.6559 3.0651 -1.9894 0.9821
-2.8675 2.8675 -1.9892 0.9821
-2.9678 2.7631 -1.9891 0.9821
-3.1570 2.5441 -1.9888 0.9821
-3.2456 2.4296 -1.9887 0.9821
-3.3301 2.3121 -1.9886 0.9821
-3.4103 2.1917 -1.9885 0.9821
-3.5577 1.9427 -1.9884 0.9821
-1.0588 0.5300 -0.5808 0.9947
-1.0444 0.4770 -0.5632 0.9949
-1.0290 0.4262 -0.5463 0.9951
-1.0175 0.2988 -0.5202 0.9953
-1.0307 0.2631 -0.5218 0.9953
-1.0518 0.1898 -0.5242 0.9952
-1.0611 0.1526 -0.5258 0.9952
-1.0769 0.0770 -0.5296 0.9952
-1.0803 0.0386 -0.5302 0.9952
3.8465 0.1374 -1.9968 0.9828
3.8392 0.2746 -1.9968 0.9828
3.7877 0.6834 -1.9967 0.9828
3.7292 0.9518 -1.9967 0.9828
3.6516 1.2154 -1.9966 0.9828
3.6058 1.3449 -1.9965 0.9828
3.5005 1.5987 -1.9964 0.9828
3.4411 1.7225 -1.9963 0.9828
3.2369 2.0803 -1.9961 0.9828
2.8155 2.6213 -1.9956 0.9828
2.7200 2.7200 -1.9955 0.9828
2.6210 2.8151 -1.9954 0.9828
2.3046 3.0787 -1.9951 0.9828
1.7208 3.4378 -1.9944 0.9828
1.5969 3.4968 -1.9943 0.9828
1.3432 3.6013 -1.9940 0.9828
1.0827 3.6874 -1.9937 0.9828
0.6822 3.7811 -1.9932 0.9828
0.4106 3.8196 -1.9929 0.9828
0.1371 3.8385 -1.9926 0.9828
-0.1371 3.8379 -1.9923 0.9828
-0.8160 3.7511 -1.9915 0.9828
-1.2120 3.6416 -1.9911 0.9829
-1.4685 3.5453 -1.9908 0.9829
-1.7175 3.4310 -1.9905 0.9829
-1.8387 3.3673 -1.9904 0.9829
-1.9576 3.2993 -1.9902 0.9829
-2.0739 3.2271 -1.9901 0.9829
-2.2986 3.0706 -1.9898 0.9829
-2.4065 2.9864 -1.9897 0.9829
-2.6132 2.8067 -1.9895 0.9829
-2.8064 2.6129 -1.9892 0.9829
-3.0692 2.2975 -1.9889 0.9829
-3.1491 2.1864 -1.9888 0.9829
-0.9486 0.5180 -0.5607 0.9951
-0.9416 0.4713 -0.5463 0.9953
-0.9785 0.1407 -0.5129 0.9956
-0.9838 0.1058 -0.5133 0.9956
3.6453 0.0000 -1.9965 0.9835
3.6430 0.1301 -1.9965 0.9835
3.6244 0.3897 -1.9965 0.9835
3.5319 0.9015 -1.9964 0.9835
3.4584 1.1511 -1.9963 0.9835
3.4150 1.2738 -1.9963 0.9835
3.3673 1.3948 -1.9962 0.9835
3.3153 1.5140 -1.9962 0.9835
3.2591 1.6314 -1.9961 0.9835
3.1986 1.7466 -1.9961 0.9835
3.1341 1.8596 -1.9960 0.9835
2.7536 2.3860 -1.9956 0.9835
2.6665 2.4826 -1.9955 0.9835
2.5761 2.5761 -1.9954 0.9835
2.2856 2.8363 -1.9950 0.9835
1.6299 3.2561 -1.9943 0.9835
1.5125 3.3120 -1.9942 0.9835
1.3932 3.3636 -1.9940 0.9835
1.2722 3.4109 -1.9939 0.9835
1.1496 3.4539 -1.9938 0.9835
0.7736 3.5563 -1.9933 0.9835
0.6461 3.5814 -1.9932 0.9835
0.2596 3.6291 -1.9928 0.9835
-0.3888 3.6162 -1.9920 0.9835
-0.6457 3.5787 -1.9917 0.9836
-1.0243 3.4884 -1.9913 0.9836
-1.2704 3.4060 -1.9910 0.9836
-1.5099 3.3062 -1.9907 0.9836
-2.0723 2.9846 -1.9901 0.9836
-2.3790 2.7455 -1.9897 0.9836
-2.6584 2.4751 -1.9894 0.9836
-2.7449 2.3785 -1.9893 0.9836
-2.9073 2.1764 -1.9891 0.9836
-2.9830 2.0712 -1.9890 0.9836
-3.0549 1.9633 -1.9889 0.9836
-0.8524 0.5058 -0.5428 0.9955
-0.8516 0.4263 -0.5216 0.9957
-0.8506 0.3885 -0.5122 0.9957
-0.8479 0.3512 -0.5027 0.9958
-0.8465 0.3157 -0.4948 0.9959
-0.8603 0.2864 -0.4966 0.9959
-0.8727 0.2562 -0.4982 0.9959
-0.8837 0.2256 -0.4995 0.9958
-0.9161 0.0655 -0.5030 0.9958
-0.9179 0.0328 -0.5031 0.9958
3.4489 0.2467 -1.9963 0.9842
3.3501 0.8551 -1.9962 0.9842
3.2394 1.2082 -1.9961 0.9842
3.0914 1.5475 -1.9959 0.9842
2.7670 2.0714 -1.9956 0.9842
2.6912 2.1687 -1.9955 0.9842
2.6120 2.2633 -1.9954 0.9842
2.4436 2.4436 -1.9952 0.9842
2.0706 2.7659 -1.9948 0.9842
1.9704 2.8379 -1.9947 0.9842
1.8678 2.9063 -1.9946 0.9842
1.5461 3.0887 -1.9942 0.9842
1.4348 3.1417 -1.9941 0.9842
1.3216 3.1907 -1.9940 0.9842
1.2068 3.2356 -1.9938 0.9842
0.7339 3.3736 -1.9933 0.9842
0.2462 3.4427 -1.9927 0.9842
0.0000 3.4510 -1.9925 0.9842
-0.3688 3.4305 -1.9920 0.9842
-0.4910 3.4150 -1.9919 0.9842
-0.7333 3.3708 -1.9916 0.9842
-1.0892 3.2724 -1.9912 0.9842
-1.2052 3.2312 -1.9911 0.9842
-1.4324 3.1366 -1.9908 0.9842
-1.8638 2.9001 -1.9903 0.9842
-1.9660 2.8315 -1.9902 0.9842
-2.2570 2.6047 -1.9899 0.9842
-2.3484 2.5224 -1.9898 0.9842
-2.4368 2.4368 -1.9896 0.9842
-2.6829 2.1621 -1.9894 0.9842
-2.7583 2.0648 -1.9893 0.9842
-0.7750 0.4599 -0.5203 0.9958
-0.7787 0.4252 -0.5122 0.9959
-0.7809 0.3567 -0.4957 0.9960
-0.7796 0.3229 -0.4872 0.9961
-0.7887 0.2942 -0.4860 0.9961
-0.8014 0.2667 -0.4876 0.9961
-0.8230 0.2101 -0.4904 0.9961
-0.8393 0.1514 -0.4924 0.9961
-0.8530 0.0610 -0.4938 0.9961
-0.8548 0.0305 -0.4938 0.9961
