ply
format ascii 1.0
element vertex 739
property float32 x
property float32 y
property float32 z
property float32 I
end_header
-9.2547 0.0000 -1.9563 0.9629
-9.2316 -0.6603 -1.9564 0.9629
-9.2027 -0.9894 -1.9565 0.9629
-9.1623 -1.3174 -1.9566 0.9629
-9.1104 -1.6437 -1.9568 0.9629
-8.8864 -2.6093 -1.9577 0.9628
-8.7893 -2.9254 -1.9581 0.9628
-8.5621 -3.5465 -1.9590 0.9628
-7.9792 -4.7343 -1.9612 0.9628
-7.2346 -5.8300 -1.9640 0.9627
-7.0248 -6.0870 -1.9648 0.9627
-6.3422 -6.8119 -1.9674 0.9627
-4.7636 -8.0286 -1.9733 0.9626
-4.4764 -8.1980 -1.9744 0.9625
-3.5806 -8.6442 -1.9778 0.9625
-2.6407 -8.9934 -1.9813 0.9624
-2.3195 -9.0875 -1.9825 0.9624
-1.6673 -9.2412 -1.9849 0.9623
0.3364 -9.4199 -1.9924 0.9622
1.0088 -9.3837 -1.9950 0.9621
1.3440 -9.3476 -1.9962 0.9621
1.6778 -9.2995 -1.9975 0.9621
2.0099 -9.2394 -1.9987 0.9621
2.6672 -9.0836 -2.0011 0.9620
3.6294 -8.7621 -2.0047 0.9620
3.9421 -8.6320 -2.0059 0.9619
4.2501 -8.4907 -2.0071 0.9619
4.8504 -8.1749 -2.0093 0.9619
5.1419 -8.0009 -2.0104 0.9619
6.2408 -7.2023 -2.0145 0.9618
7.2152 -6.2520 -2.0181 0.9617
7.6490 -5.7259 -2.0197 0.9617
7.8514 -5.4513 -2.0204 0.9617
8.0437 -5.1694 -2.0211 0.9617
8.3974 -4.5854 -2.0224 0.9616
8.5583 -4.2839 -2.0230 0.9616
8.9739 -3.3471 -2.0246 0.9616
9.0896 -3.0253 -2.0250 0.9616
9.1935 -2.6994 -2.0254 0.9616
9.2855 -2.3700 -2.0257 0.9616
9.4334 -1.7020 -2.0262 0.9616
9.4890 -1.3643 -2.0264 0.9616
9.5820 -0.3422 -2.0267 0.9616
-8.3331 -0.2976 -1.9597 0.9663
-8.2914 -0.8914 -1.9599 0.9663
-8.2080 -1.4809 -1.9602 0.9663
-8.1509 -1.7731 -1.9604 0.9663
-8.0835 -2.0632 -1.9607 0.9663
-8.0059 -2.3508 -1.9610 0.9663
-7.9183 -2.6355 -1.9613 0.9663
-7.8206 -2.9169 -1.9617 0.9663
-7.4691 -3.7388 -1.9631 0.9663
-6.8690 -4.7692 -1.9653 0.9662
-6.6966 -5.0130 -1.9660 0.9662
-6.5157 -5.2507 -1.9667 0.9662
-6.3264 -5.4819 -1.9674 0.9662
-5.4907 -6.3366 -1.9705 0.9661
-5.2633 -6.5313 -1.9714 0.9661
-5.0291 -6.7180 -1.9723 0.9661
-4.5412 -7.0663 -1.9741 0.9661
-4.2882 -7.2273 -1.9751 0.9661
-4.0295 -7.3794 -1.9760 0.9660
-3.4963 -7.6558 -1.9780 0.9660
-3.2225 -7.7798 -1.9791 0.9660
-2.9443 -7.8940 -1.9801 0.9660
-2.3762 -8.0926 -1.9822 0.9659
-1.5000 -8.3140 -1.9855 0.9659
-1.2030 -8.3669 -1.9866 0.9659
-0.9041 -8.4093 -1.9878 0.9658
-0.6037 -8.4410 -1.9889 0.9658
-0.3022 -8.4619 -1.9900 0.9658
-0.0000 -8.4721 -1.9912 0.9658
2.3976 -8.1656 -2.0001 0.9656
2.6890 -8.0792 -2.0012 0.9656
2.9772 -7.9823 -2.0023 0.9656
3.2620 -7.8751 -2.0033 0.9656
3.5428 -7.7578 -2.0044 0.9656
3.8194 -7.6303 -2.0054 0.9655
4.0914 -7.4929 -2.0064 0.9655
4.3584 -7.3457 -2.0074 0.9655
4.6200 -7.1889 -2.0084 0.9655
5.1259 -6.8475 -2.0103 0.9655
5.3695 -6.6631 -2.0112 0.9654
5.6063 -6.4701 -2.0121 0.9654
6.0587 -6.0587 -2.0137 0.9654
6.2735 -5.8409 -2.0145 0.9654
6.4805 -5.6154 -2.0153 0.9654
6.8695 -5.1424 -2.0167 0.9654
7.0510 -4.8956 -2.0174 0.9653
7.3868 -4.3828 -2.0187 0.9653
7.5406 -4.1175 -2.0192 0.9653
7.8191 -3.5709 -2.0202 0.9653
7.9434 -3.2902 -2.0207 0.9653
8.0574 -3.0053 -2.0211 0.9653
8.3367 -2.1278 -2.0221 0.9653
8.4084 -1.8291 -2.0224 0.9653
8.4693 -1.5280 -2.0226 0.9653
8.5191 -1.2249 -2.0228 0.9653
8.5858 -0.6141 -2.0230 0.9652
8.6025 -0.3072 -2.0231 0.9652
-7.5608 -0.5408 -1.9626 0.9692
-7.4091 -1.6118 -1.9632 0.9692
-7.2771 -2.1367 -1.9637 0.9691
-7.1974 -2.3955 -1.9640 0.9691
-7.1085 -2.6513 -1.9644 0.9691
-6.7886 -3.3981 -1.9656 0.9691
-6.6646 -3.6391 -1.9661 0.9691
-6.5321 -3.8757 -1.9666 0.9691
-6.3913 -4.1075 -1.9671 0.9691
-6.0856 -4.5556 -1.9683 0.9691
-5.5693 -5.1852 -1.9702 0.9690
-5.1890 -5.5733 -1.9716 0.9690
-4.7819 -5.9339 -1.9732 0.9690
-4.3500 -6.2651 -1.9748 0.9690
-3.8953 -6.5652 -1.9765 0.9690
-3.1755 -6.9534 -1.9792 0.9689
-2.9267 -7.0657 -1.9802 0.9689
-2.6739 -7.1691 -1.9811 0.9689
-2.4175 -7.2634 -1.9821 0.9689
-1.8951 -7.4247 -1.9840 0.9688
-1.3619 -7.5486 -1.9860 0.9688
-1.0922 -7.5963 -1.9870 0.9688
-0.8208 -7.6343 -1.9881 0.9688
-0.0000 -7.6902 -1.9911 0.9687
0.2746 -7.6893 -1.9922 0.9687
0.5492 -7.6785 -1.9932 0.9687
1.6397 -7.5376 -1.9973 0.9686
2.1754 -7.4088 -1.9993 0.9686
2.4397 -7.3300 -2.0002 0.9686
3.4646 -6.9214 -2.0041 0.9685
3.7112 -6.7965 -2.0050 0.9685
4.4222 -6.3692 -2.0076 0.9685
4.6487 -6.2099 -2.0085 0.9685
5.0840 -5.8672 -2.0101 0.9684
5.8758 -5.0914 -2.0130 0.9684
6.2280 -4.6622 -2.0143 0.9684
6.5486 -4.2085 -2.0155 0.9683
6.6965 -3.9732 -2.0161 0.9683
6.8358 -3.7326 -2.0166 0.9683
6.9663 -3.4871 -2.0170 0.9683
7.2004 -2.9825 -2.0179 0.9683
7.3036 -2.7241 -2.0183 0.9683
7.6213 -1.6579 -2.0194 0.9683
7.7215 -1.1102 -2.0198 0.9683
7.7818 -0.5566 -2.0200 0.9683
-6.8322 -1.2326 -1.9654 0.9716
-6.7282 -1.7173 -1.9658 0.9715
-6.5903 -2.1935 -1.9663 0.9715
-6.5089 -2.4277 -1.9666 0.9715
-6.4192 -2.6589 -1.9669 0.9715
-6.3214 -2.8869 -1.9673 0.9715
-6.2156 -3.1113 -1.9677 0.9715
-5.9805 -3.5484 -1.9686 0.9715
-5.8515 -3.7605 -1.9691 0.9715
-5.5713 -4.1706 -1.9702 0.9715
-5.4205 -4.3681 -1.9707 0.9715
-5.2627 -4.5602 -1.9713 0.9715
-4.7498 -5.1016 -1.9733 0.9714
-4.5663 -5.2697 -1.9740 0.9714
-4.3768 -5.4313 -1.9747 0.9714
-4.1818 -5.5862 -1.9754 0.9714
-3.9812 -5.7341 -1.9762 0.9714
-3.7755 -5.8748 -1.9769 0.9714
-3.5648 -6.0082 -1.9777 0.9714
-3.3495 -6.1341 -1.9785 0.9714
-2.4466 -6.5596 -1.9819 0.9713
-2.2119 -6.6457 -1.9828 0.9713
-1.9742 -6.7234 -1.9837 0.9713
-1.7337 -6.7927 -1.9846 0.9713
-1.4909 -6.8534 -1.9855 0.9713
-1.2459 -6.9054 -1.9864 0.9713
-0.9991 -6.9487 -1.9874 0.9712
-0.2509 -7.0256 -1.9902 0.9712
-0.0000 -7.0334 -1.9911 0.9712
0.5022 -7.0221 -1.9930 0.9712
0.7529 -7.0030 -1.9939 0.9711
1.2517 -6.9379 -1.9958 0.9711
1.7451 -6.8372 -1.9976 0.9711
2.9379 -6.4331 -2.0021 0.9710
3.1670 -6.3268 -2.0029 0.9710
3.3922 -6.2123 -2.0038 0.9710
3.6132 -6.0898 -2.0046 0.9710
4.0417 -5.8211 -2.0062 0.9710
4.2485 -5.6753 -2.0070 0.9710
5.0201 -5.0201 -2.0098 0.9709
5.1978 -4.8393 -2.0105 0.9709
5.3689 -4.6522 -2.0111 0.9709
5.5332 -4.4589 -2.0117 0.9709
6.1180 -3.6300 -2.0139 0.9709
6.2451 -3.4101 -2.0143 0.9709
6.7577 -2.2492 -2.0162 0.9708
6.8346 -2.0068 -2.0165 0.9708
6.9619 -1.5145 -2.0170 0.9708
7.0534 -1.0141 -2.0173 0.9708
7.0855 -0.7618 -2.0174 0.9708
7.1084 -0.5084 -2.0175 0.9708
7.1222 -0.2544 -2.0175 0.9708
-6.3950 0.0000 -1.9670 0.9736
-6.3789 -0.4562 -1.9670 0.9736
-6.2947 -1.1357 -1.9674 0.9736
-6.2507 -1.3598 -1.9675 0.9736
-6.1988 -1.5822 -1.9677 0.9736
-5.9965 -2.2366 -1.9685 0.9736
-5.9138 -2.4496 -1.9688 0.9736
-5.8237 -2.6596 -1.9692 0.9736
-5.7261 -2.8663 -1.9695 0.9736
-5.5093 -3.2688 -1.9704 0.9735
-5.2646 -3.6553 -1.9713 0.9735
-4.8476 -4.2004 -1.9729 0.9735
-4.6959 -4.3720 -1.9735 0.9735
-4.5382 -4.5382 -1.9740 0.9735
-3.8512 -5.1446 -1.9766 0.9735
-3.6664 -5.2807 -1.9773 0.9735
-3.4769 -5.4101 -1.9780 0.9734
-3.2828 -5.5328 -1.9788 0.9734
-2.8819 -5.7573 -1.9803 0.9734
-2.6756 -5.8588 -1.9811 0.9734
-2.4658 -5.9529 -1.9818 0.9734
-2.2526 -6.0396 -1.9826 0.9734
-2.0365 -6.1186 -1.9835 0.9734
-1.5961 -6.2535 -1.9851 0.9734
-1.1469 -6.3568 -1.9868 0.9733
-0.6911 -6.4280 -1.9885 0.9733
-0.4614 -6.4513 -1.9894 0.9733
0.0000 -6.4734 -1.9911 0.9733
0.2311 -6.4721 -1.9920 0.9733
0.4622 -6.4625 -1.9928 0.9732
0.9229 -6.4186 -1.9945 0.9732
1.3796 -6.3419 -1.9962 0.9732
1.6057 -6.2912 -1.9971 0.9732
1.8300 -6.2325 -1.9979 0.9732
2.0522 -6.1658 -1.9988 0.9732
2.2719 -6.0911 -1.9996 0.9732
2.4888 -6.0086 -2.0004 0.9731
2.7028 -5.9183 -2.0012 0.9731
3.3238 -5.6019 -2.0035 0.9731
3.5229 -5.4817 -2.0042 0.9731
4.0930 -5.0791 -2.0064 0.9731
4.4478 -4.7773 -2.0077 0.9731
4.6170 -4.6170 -2.0083 0.9730
4.7803 -4.4506 -2.0089 0.9730
5.0885 -4.1006 -2.0100 0.9730
5.2330 -3.9174 -2.0106 0.9730
5.3708 -3.7290 -2.0111 0.9730
5.5018 -3.5358 -2.0116 0.9730
5.7426 -3.1357 -2.0125 0.9730
6.0482 -2.5053 -2.0136 0.9730
6.1348 -2.2882 -2.0139 0.9730
6.2134 -2.0680 -2.0142 0.9730
6.2841 -1.8452 -2.0144 0.9730
6.3466 -1.6199 -2.0147 0.9730
6.5356 -0.4674 -2.0153 0.9730
6.5482 -0.2339 -2.0154 0.9730
-5.9227 -0.0000 -1.9687 0.9753
-5.9189 -0.2114 -1.9687 0.9753
-5.9078 -0.4225 -1.9688 0.9753
-5.7889 -1.2593 -1.9693 0.9753
-5.7408 -1.4653 -1.9694 0.9753
-5.6855 -1.6694 -1.9697 0.9753
-5.6229 -1.8715 -1.9699 0.9753
-5.3931 -2.4629 -1.9708 0.9753
-5.3027 -2.6543 -1.9711 0.9753
-5.2055 -2.8424 -1.9715 0.9753
-5.1018 -3.0270 -1.9719 0.9753
-4.9915 -3.2079 -1.9723 0.9753
-4.8750 -3.3847 -1.9728 0.9753
-4.4885 -3.8893 -1.9742 0.9753
-4.3480 -4.0482 -1.9747 0.9753
-4.2019 -4.2019 -1.9753 0.9753
-4.0504 -4.3505 -1.9759 0.9753
-3.8938 -4.4936 -1.9765 0.9752
-3.7320 -4.6312 -1.9771 0.9752
-3.5655 -4.7629 -1.9777 0.9752
-3.2188 -5.0085 -1.9790 0.9752
-3.0390 -5.1219 -1.9797 0.9752
-2.8552 -5.2289 -1.9804 0.9752
-2.4767 -5.4232 -1.9818 0.9752
-1.8849 -5.6632 -1.9840 0.9752
-1.4772 -5.7877 -1.9855 0.9751
-1.2702 -5.8390 -1.9863 0.9751
-1.0614 -5.8829 -1.9871 0.9751
-0.8511 -5.9194 -1.9879 0.9751
-0.4270 -5.9698 -1.9895 0.9751
-0.0000 -5.9899 -1.9911 0.9751
0.2139 -5.9885 -1.9919 0.9751
0.4277 -5.9794 -1.9927 0.9750
0.8538 -5.9384 -1.9943 0.9750
1.0656 -5.9065 -1.9951 0.9750
1.8983 -5.7036 -1.9982 0.9750
2.3021 -5.5578 -1.9997 0.9750
2.4999 -5.4741 -2.0004 0.9750
2.6947 -5.3834 -2.0011 0.9749
3.0741 -5.1811 -2.0025 0.9749
3.2581 -5.0698 -2.0032 0.9749
3.4382 -4.9519 -2.0039 0.9749
3.6139 -4.8276 -2.0046 0.9749
4.2693 -4.2693 -2.0070 0.9749
4.4202 -4.1154 -2.0075 0.9749
4.5655 -3.9561 -2.0081 0.9749
4.7050 -3.7915 -2.0086 0.9749
4.8385 -3.6221 -2.0091 0.9748
5.6717 -2.1154 -2.0122 0.9748
5.7443 -1.9119 -2.0124 0.9748
5.8096 -1.7058 -2.0127 0.9748
5.8674 -1.4975 -2.0129 0.9748
5.9176 -1.2873 -2.0131 0.9748
5.9602 -1.0753 -2.0132 0.9748
5.9952 -0.8620 -2.0133 0.9748
6.0224 -0.6475 -2.0134 0.9748
6.0419 -0.4321 -2.0135 0.9748
6.0536 -0.2162 -2.0135 0.9748
-5.5096 0.0000 -1.9703 0.9769
-5.4957 -0.3931 -1.9703 0.9769
-5.4784 -0.5890 -1.9704 0.9769
-5.4230 -0.9784 -1.9706 0.9769
-5.3851 -1.1715 -1.9708 0.9769
-5.3403 -1.3630 -1.9709 0.9769
-5.2888 -1.5529 -1.9711 0.9769
-5.2306 -1.7409 -1.9714 0.9769
-5.1658 -1.9267 -1.9716 0.9769
-5.0166 -2.2910 -1.9722 0.9768
-4.9324 -2.4690 -1.9725 0.9768
-4.8420 -2.6439 -1.9728 0.9768
-4.7454 -2.8156 -1.9732 0.9768
-4.6428 -2.9838 -1.9736 0.9768
-4.5343 -3.1482 -1.9740 0.9768
-4.1747 -3.6174 -1.9754 0.9768
-3.7670 -4.0460 -1.9769 0.9768
-3.6212 -4.1791 -1.9775 0.9768
-3.3158 -4.4293 -1.9786 0.9768
-3.1565 -4.5462 -1.9792 0.9768
-2.9932 -4.6574 -1.9798 0.9768
-2.6550 -4.8623 -1.9811 0.9767
-2.4806 -4.9555 -1.9818 0.9767
-2.3029 -5.0426 -1.9824 0.9767
-2.1222 -5.1233 -1.9831 0.9767
-1.9386 -5.1977 -1.9838 0.9767
-1.5640 -5.3265 -1.9852 0.9767
-1.3734 -5.3808 -1.9859 0.9767
-1.1809 -5.4284 -1.9866 0.9767
-0.7912 -5.5029 -1.9881 0.9767
-0.5945 -5.5296 -1.9888 0.9767
-0.3969 -5.5494 -1.9896 0.9766
-0.0000 -5.5677 -1.9911 0.9766
0.3975 -5.5577 -1.9925 0.9766
0.5958 -5.5420 -1.9933 0.9766
0.9904 -5.4894 -1.9948 0.9766
1.1861 -5.4526 -1.9955 0.9766
1.5732 -5.3580 -1.9969 0.9766
1.7641 -5.3003 -1.9976 0.9765
1.9529 -5.2358 -1.9984 0.9765
2.1392 -5.1645 -1.9990 0.9765
2.6817 -4.9113 -2.0011 0.9765
2.8563 -4.8140 -2.0017 0.9765
3.1944 -4.6008 -2.0030 0.9765
3.3576 -4.4852 -2.0036 0.9765
3.5166 -4.3638 -2.0042 0.9765
3.9662 -3.9662 -2.0058 0.9765
4.2412 -3.6750 -2.0069 0.9764
4.3707 -3.5221 -2.0073 0.9764
4.4947 -3.3647 -2.0078 0.9764
4.9317 -2.6929 -2.0094 0.9764
5.1130 -2.3350 -2.0101 0.9764
5.1938 -2.1513 -2.0104 0.9764
5.3960 -1.5844 -2.0111 0.9764
5.4496 -1.3909 -2.0113 0.9764
5.5935 -0.6014 -2.0118 0.9764
5.6116 -0.4014 -2.0119 0.9764
-5.1417 -0.1836 -1.9716 0.9782
-5.1158 -0.5500 -1.9718 0.9782
-5.0286 -1.0939 -1.9721 0.9782
-4.9386 -1.4501 -1.9724 0.9782
-4.7570 -1.9704 -1.9731 0.9782
-4.6843 -2.1392 -1.9734 0.9782
-4.6056 -2.3054 -1.9737 0.9782
-4.5211 -2.4687 -1.9740 0.9782
-4.4309 -2.6290 -1.9744 0.9782
-4.3350 -2.7860 -1.9748 0.9782
-4.0149 -3.2354 -1.9760 0.9782
-3.7756 -3.5152 -1.9769 0.9781
-3.6486 -3.6485 -1.9773 0.9781
-3.5169 -3.7774 -1.9778 0.9781
-3.2402 -4.0208 -1.9789 0.9781
-3.0954 -4.1350 -1.9794 0.9781
-2.9467 -4.2441 -1.9800 0.9781
-2.6380 -4.4461 -1.9812 0.9781
-2.3155 -4.6258 -1.9824 0.9781
-2.1496 -4.7069 -1.9830 0.9781
-1.6357 -4.9145 -1.9849 0.9781
-1.4598 -4.9714 -1.9856 0.9780
-1.2818 -5.0221 -1.9862 0.9780
-1.1021 -5.0663 -1.9869 0.9780
-0.7384 -5.1356 -1.9883 0.9780
-0.5548 -5.1604 -1.9890 0.9780
-0.1854 -5.1905 -1.9904 0.9780
0.0000 -5.1956 -1.9910 0.9780
0.7404 -5.1499 -1.9938 0.9780
1.6458 -4.9450 -1.9972 0.9779
2.8238 -4.3940 -2.0016 0.9779
3.4242 -3.9517 -2.0038 0.9779
3.6993 -3.6993 -2.0048 0.9778
3.8299 -3.5658 -2.0053 0.9778
4.0764 -3.2849 -2.0062 0.9778
4.1919 -3.1380 -2.0067 0.9778
4.3021 -2.9870 -2.0071 0.9778
4.6867 -2.3460 -2.0085 0.9778
4.7682 -2.1776 -2.0088 0.9778
4.8435 -2.0063 -2.0091 0.9778
4.9755 -1.6560 -2.0095 0.9778
5.0819 -1.2971 -2.0099 0.9778
5.1623 -0.9314 -2.0102 0.9778
5.2329 -0.3743 -2.0105 0.9778
-4.8204 -0.0000 -1.9728 0.9794
-4.8173 -0.1721 -1.9729 0.9794
-4.7930 -0.5153 -1.9730 0.9794
-4.7718 -0.6861 -1.9730 0.9794
-4.7445 -0.8560 -1.9732 0.9794
-4.5759 -1.5230 -1.9738 0.9794
-4.3148 -2.1598 -1.9748 0.9794
-4.2356 -2.3128 -1.9751 0.9794
-4.1510 -2.4629 -1.9754 0.9794
-3.9661 -2.7537 -1.9761 0.9793
-3.8661 -2.8941 -1.9765 0.9793
-3.6512 -3.1638 -1.9773 0.9793
-3.5368 -3.2928 -1.9778 0.9793
-3.2944 -3.5384 -1.9787 0.9793
-2.8994 -3.8732 -1.9802 0.9793
-2.7601 -3.9753 -1.9807 0.9793
-2.6171 -4.0723 -1.9812 0.9793
-2.4708 -4.1643 -1.9818 0.9793
-2.1687 -4.3325 -1.9829 0.9793
-1.8552 -4.4788 -1.9841 0.9793
-1.3671 -4.6557 -1.9859 0.9792
-1.0321 -4.7444 -1.9872 0.9792
-0.8624 -4.7797 -1.9878 0.9792
-0.6914 -4.8090 -1.9884 0.9792
-0.5195 -4.8322 -1.9891 0.9792
0.1737 -4.8633 -1.9917 0.9792
0.6932 -4.8215 -1.9936 0.9792
1.0361 -4.7629 -1.9949 0.9792
1.3741 -4.6798 -1.9962 0.9791
1.5407 -4.6292 -1.9968 0.9791
2.0286 -4.4420 -1.9986 0.9791
2.3417 -4.2885 -1.9998 0.9791
2.9314 -3.9158 -2.0020 0.9791
3.0700 -3.8097 -2.0025 0.9791
3.4622 -3.4622 -2.0039 0.9791
3.7020 -3.2078 -2.0048 0.9791
3.8150 -3.0743 -2.0052 0.9790
3.9230 -2.9367 -2.0056 0.9790
4.0261 -2.7954 -2.0060 0.9790
4.2168 -2.5019 -2.0067 0.9790
4.3041 -2.3502 -2.0071 0.9790
4.4621 -2.0378 -2.0076 0.9790
4.5325 -1.8774 -2.0079 0.9790
4.5972 -1.7147 -2.0081 0.9790
4.6559 -1.5497 -2.0083 0.9790
4.7961 -1.0433 -2.0089 0.9790
4.8809 -0.5248 -2.0092 0.9790
4.9061 -0.1752 -2.0092 0.9790
-1.4601 0.0000 -0.6363 0.9936
-1.4359 -0.1544 -0.6294 0.9937
-1.4180 -0.2039 -0.6244 0.9938
-1.3956 -0.2518 -0.6180 0.9938
-1.3688 -0.2978 -0.6105 0.9939
-4.1873 -1.7344 -1.9753 0.9804
-4.1233 -1.8830 -1.9755 0.9804
-3.9795 -2.1730 -1.9761 0.9804
-3.9000 -2.3140 -1.9764 0.9804
-3.7263 -2.5872 -1.9770 0.9804
-3.4303 -2.9724 -1.9781 0.9804
-3.2109 -3.2108 -1.9790 0.9804
-2.9750 -3.4333 -1.9799 0.9804
-2.8512 -3.5381 -1.9803 0.9804
-2.4585 -3.8255 -1.9818 0.9804
-2.3210 -3.9118 -1.9823 0.9803
-1.8911 -4.1408 -1.9839 0.9803
-1.4388 -4.3230 -1.9856 0.9803
-1.2840 -4.3728 -1.9862 0.9803
-1.1274 -4.4172 -1.9868 0.9803
-0.9694 -4.4559 -1.9874 0.9803
-0.6494 -4.5165 -1.9886 0.9803
-0.4879 -4.5381 -1.9892 0.9803
-0.1630 -4.5642 -1.9904 0.9803
0.3261 -4.5597 -1.9922 0.9803
0.6510 -4.5275 -1.9935 0.9802
0.8124 -4.5028 -1.9941 0.9802
0.9729 -4.4723 -1.9947 0.9802
1.2902 -4.3941 -1.9958 0.9802
2.0528 -4.1010 -1.9987 0.9802
2.3414 -3.9462 -1.9998 0.9802
2.6183 -3.7711 -2.0008 0.9802
2.8821 -3.5764 -2.0018 0.9802
3.1313 -3.3633 -2.0027 0.9801
3.3647 -3.1327 -2.0036 0.9801
3.4751 -3.0112 -2.0040 0.9801
3.6825 -2.7567 -2.0047 0.9801
3.8711 -2.4878 -2.0054 0.9801
3.9580 -2.3484 -2.0058 0.9801
4.1167 -2.0607 -2.0063 0.9801
4.5016 -0.9793 -2.0077 0.9801
4.5339 -0.8180 -2.0079 0.9801
4.5811 -0.4925 -2.0080 0.9801
4.5959 -0.3287 -2.0081 0.9801
4.6047 -0.1645 -2.0081 0.9801
-1.2447 -0.0000 -0.5761 0.9945
-1.2362 -0.0884 -0.5737 0.9946
-1.2124 -0.1743 -0.5670 0.9946
-1.1790 -0.2565 -0.5585 0.9947
-1.1575 -0.2954 -0.5529 0.9947
-1.1329 -0.3327 -0.5466 0.9948
-1.2017 -0.4482 -0.5937 0.9944
-1.2345 -0.5113 -0.6185 0.9941
-3.8839 -1.7737 -1.9764 0.9814
-3.6735 -2.1796 -1.9772 0.9813
-3.4211 -2.5610 -1.9782 0.9813
-2.6853 -3.3322 -1.9809 0.9813
-2.5652 -3.4267 -1.9814 0.9813
-2.4419 -3.5169 -1.9819 0.9813
-2.1858 -3.6840 -1.9828 0.9813
-1.7809 -3.8995 -1.9843 0.9813
-1.6410 -3.9616 -1.9849 0.9813
-1.3549 -4.0708 -1.9859 0.9813
-1.2091 -4.1177 -1.9865 0.9813
-0.4594 -4.2730 -1.9893 0.9812
0.1536 -4.2998 -1.9916 0.9812
0.4602 -4.2804 -1.9927 0.9812
0.9159 -4.2102 -1.9944 0.9812
1.2146 -4.1365 -1.9956 0.9812
1.3618 -4.0916 -1.9961 0.9812
1.7928 -3.9258 -1.9977 0.9812
1.9323 -3.8603 -1.9982 0.9812
2.0694 -3.7898 -1.9987 0.9811
2.3356 -3.6344 -1.9997 0.9811
3.0589 -3.0589 -2.0024 0.9811
3.1668 -2.9484 -2.0028 0.9811
3.3703 -2.7160 -2.0036 0.9811
3.4657 -2.5944 -2.0039 0.9811
3.5567 -2.4695 -2.0043 0.9811
3.6431 -2.3413 -2.0046 0.9811
3.7250 -2.2101 -2.0049 0.9811
3.8742 -1.9393 -2.0054 0.9811
3.9414 -1.8000 -2.0057 0.9811
4.0036 -1.6583 -2.0059 0.9811
4.0607 -1.5146 -2.0061 0.9811
4.1591 -1.2212 -2.0065 0.9811
4.2004 -1.0721 -2.0066 0.9811
4.2362 -0.9215 -2.0068 0.9811
4.3110 -0.4635 -2.0070 0.9811
4.3249 -0.3093 -2.0071 0.9811
-1.0817 0.0000 -0.5306 0.9952
-1.0769 -0.0770 -0.5296 0.9952
-1.0705 -0.1151 -0.5281 0.9952
-1.0611 -0.1526 -0.5258 0.9952
-1.0422 -0.2267 -0.5232 0.9953
-1.0175 -0.2988 -0.5202 0.9953
-1.0025 -0.3337 -0.5183 0.9953
-1.0290 -0.4262 -0.5463 0.9951
-3.5387 -1.9322 -1.9777 0.9822
-3.3133 -2.3004 -1.9786 0.9822
-3.2296 -2.4176 -1.9789 0.9822
-2.9542 -2.7504 -1.9799 0.9822
-2.8547 -2.8547 -1.9803 0.9822
-1.2787 -3.8420 -1.9862 0.9821
-1.1411 -3.8862 -1.9867 0.9821
-0.7197 -3.9891 -1.9883 0.9821
-0.0000 -4.0590 -1.9910 0.9821
0.4342 -4.0390 -1.9926 0.9821
0.7217 -3.9999 -1.9937 0.9821
0.8642 -3.9726 -1.9942 0.9820
1.0057 -3.9403 -1.9948 0.9820
1.4222 -3.8132 -1.9963 0.9820
1.9524 -3.5755 -1.9983 0.9820
2.0792 -3.5044 -1.9988 0.9820
2.3250 -3.3486 -1.9997 0.9820
2.4436 -3.2642 -2.0001 0.9820
2.6713 -3.0829 -2.0010 0.9820
2.7802 -2.9862 -2.0014 0.9820
2.8856 -2.8856 -2.0018 0.9820
3.1793 -2.5620 -2.0029 0.9820
3.6544 -1.8293 -2.0046 0.9820
3.9619 -1.0112 -2.0057 0.9819
3.9958 -0.8692 -2.0059 0.9819
4.0244 -0.7261 -2.0060 0.9819
4.0480 -0.5820 -2.0060 0.9819
4.0794 -0.2918 -2.0061 0.9819
-0.9895 0.0000 -0.5133 0.9956
-0.9873 -0.0706 -0.5135 0.9955
-0.9838 -0.1058 -0.5133 0.9956
-0.9271 -0.3840 -0.5206 0.9955
-0.9486 -0.5180 -0.5607 0.9951
-3.2091 -2.0623 -1.9789 0.9830
-3.1339 -2.1759 -1.9792 0.9830
-3.0547 -2.2867 -1.9795 0.9830
-2.9716 -2.3946 -1.9798 0.9829
-2.8847 -2.4996 -1.9802 0.9829
-2.7000 -2.7000 -1.9809 0.9829
-2.3973 -2.9748 -1.9820 0.9829
-2.0668 -3.2160 -1.9832 0.9829
-1.5895 -3.4806 -1.9850 0.9829
-1.3378 -3.5868 -1.9860 0.9829
-1.2093 -3.6332 -1.9865 0.9829
-0.6806 -3.7721 -1.9885 0.9829
-0.5456 -3.7949 -1.9890 0.9829
-0.4099 -3.8129 -1.9895 0.9829
-0.1370 -3.8344 -1.9905 0.9829
-0.0000 -3.8379 -1.9910 0.9829
0.1370 -3.8364 -1.9915 0.9828
0.4106 -3.8188 -1.9925 0.9828
0.5467 -3.8027 -1.9930 0.9828
0.6823 -3.7817 -1.9936 0.9828
0.8170 -3.7559 -1.9941 0.9828
0.9508 -3.7253 -1.9946 0.9828
1.2147 -3.6498 -1.9955 0.9828
1.3446 -3.6049 -1.9960 0.9828
1.5991 -3.5015 -1.9970 0.9828
1.7234 -3.4430 -1.9974 0.9828
1.9656 -3.3128 -1.9983 0.9828
2.0830 -3.2412 -1.9988 0.9828
2.4191 -3.0019 -2.0000 0.9828
2.8237 -2.6290 -2.0015 0.9828
2.9163 -2.5270 -2.0019 0.9828
3.2482 -2.0875 -2.0031 0.9828
3.3211 -1.9705 -2.0034 0.9827
3.3897 -1.8509 -2.0036 0.9827
3.5694 -1.4785 -2.0043 0.9827
3.6202 -1.3503 -2.0045 0.9827
3.7446 -0.9558 -2.0049 0.9827
3.7766 -0.8215 -2.0050 0.9827
3.8259 -0.5501 -2.0052 0.9827
3.8556 -0.2758 -2.0053 0.9827
-0.9182 0.0000 -0.5029 0.9958
-0.9179 -0.0328 -0.5031 0.9958
-0.9161 -0.0655 -0.5030 0.9958
-0.9127 -0.0981 -0.5028 0.9958
-0.8932 -0.1943 -0.5006 0.9958
-0.8727 -0.2563 -0.4982 0.9959
-0.8603 -0.2863 -0.4966 0.9959
-0.8479 -0.3512 -0.5027 0.9958
-0.8516 -0.4262 -0.5216 0.9957
-0.8524 -0.5058 -0.5429 0.9955
-2.9693 -2.0616 -1.9798 0.9836
-2.8155 -2.2688 -1.9804 0.9836
-2.7331 -2.3683 -1.9807 0.9836
-2.5581 -2.5581 -1.9814 0.9836
-2.4656 -2.6482 -1.9817 0.9836
-2.2712 -2.8184 -1.9825 0.9836
-2.1696 -2.8982 -1.9829 0.9836
-2.0652 -2.9744 -1.9832 0.9836
-1.9581 -3.0468 -1.9837 0.9836
-1.5058 -3.2973 -1.9854 0.9836
-1.1455 -3.4417 -1.9867 0.9836
-0.8975 -3.5163 -1.9876 0.9836
-0.7716 -3.5469 -1.9881 0.9836
-0.6447 -3.5731 -1.9886 0.9836
-0.5168 -3.5947 -1.9891 0.9836
-0.3883 -3.6117 -1.9895 0.9836
-0.0000 -3.6352 -1.9910 0.9836
0.2595 -3.6277 -1.9920 0.9835
0.3889 -3.6170 -1.9924 0.9835
0.5178 -3.6017 -1.9929 0.9835
1.0261 -3.4946 -1.9948 0.9835
1.1505 -3.4566 -1.9953 0.9835
1.3948 -3.3672 -1.9962 0.9835
1.5144 -3.3161 -1.9966 0.9835
1.8614 -3.1372 -1.9979 0.9835
1.9726 -3.0694 -1.9984 0.9835
2.0813 -2.9976 -1.9988 0.9835
2.2907 -2.8426 -1.9995 0.9835
2.3912 -2.7596 -1.9999 0.9835
2.4886 -2.6729 -2.0003 0.9835
2.5829 -2.5829 -2.0006 0.9835
2.6739 -2.4895 -2.0010 0.9835
2.8456 -2.2931 -2.0016 0.9835
2.9260 -2.1904 -2.0019 0.9835
3.0028 -2.0849 -2.0022 0.9835
3.1447 -1.8658 -2.0027 0.9835
3.2097 -1.7526 -2.0029 0.9835
3.3797 -1.3999 -2.0036 0.9835
3.5455 -0.9050 -2.0042 0.9834
3.5758 -0.7779 -2.0043 0.9834
3.6014 -0.6498 -2.0044 0.9834
3.6225 -0.5208 -2.0044 0.9834
3.6388 -0.3912 -2.0045 0.9834
-0.8550 0.0000 -0.4936 0.9961
-0.8548 -0.0305 -0.4938 0.9961
-0.8499 -0.0914 -0.4935 0.9961
-0.8453 -0.1215 -0.4930 0.9961
-0.8318 -0.1810 -0.4915 0.9961
-0.8230 -0.2100 -0.4904 0.9961
-0.7887 -0.2942 -0.4860 0.9961
-0.7809 -0.3566 -0.4957 0.9960
-0.7787 -0.4252 -0.5122 0.9959
-0.7750 -0.4599 -0.5203 0.9958
-0.7634 -0.5300 -0.5366 0.9957
-2.6716 -2.1529 -1.9810 0.9843
-2.4273 -2.4273 -1.9819 0.9843
-1.9595 -2.8222 -1.9836 0.9843
-1.8579 -2.8909 -1.9840 0.9843
-1.7539 -2.9560 -1.9844 0.9843
-1.5391 -3.0748 -1.9852 0.9842
-1.4287 -3.1284 -1.9856 0.9842
-1.3164 -3.1781 -1.9861 0.9842
-1.2024 -3.2238 -1.9865 0.9842
-1.0868 -3.2653 -1.9869 0.9842
-0.9698 -3.3028 -1.9874 0.9842
-0.6116 -3.3898 -1.9887 0.9842
-0.4903 -3.4103 -1.9892 0.9842
-0.3684 -3.4264 -1.9896 0.9842
-0.2459 -3.4381 -1.9901 0.9842
-0.1231 -3.4455 -1.9905 0.9842
0.2461 -3.4413 -1.9919 0.9842
0.3689 -3.4311 -1.9924 0.9842
0.4912 -3.4165 -1.9928 0.9842
0.6130 -3.3976 -1.9933 0.9842
0.7340 -3.3743 -1.9937 0.9842
0.8542 -3.3467 -1.9942 0.9842
1.0913 -3.2787 -1.9951 0.9842
1.3229 -3.1939 -1.9959 0.9842
1.5481 -3.0927 -1.9968 0.9842
1.6578 -3.0361 -1.9972 0.9841
1.8709 -2.9112 -1.9980 0.9841
1.9740 -2.8432 -1.9984 0.9841
2.0746 -2.7714 -1.9987 0.9841
2.2679 -2.6173 -1.9994 0.9841
2.3602 -2.5351 -1.9998 0.9841
2.4496 -2.4496 -2.0001 0.9841
2.5359 -2.3610 -2.0004 0.9841
2.6190 -2.2693 -2.0007 0.9841
2.6987 -2.1748 -2.0010 0.9841
2.7750 -2.0774 -2.0013 0.9841
2.9823 -1.7695 -2.0021 0.9841
3.1016 -1.5525 -2.0025 0.9841
3.1553 -1.4410 -2.0027 0.9841
3.2051 -1.3276 -2.0029 0.9841
3.3294 -0.9776 -2.0034 0.9841
3.3910 -0.7377 -2.0036 0.9841
3.4508 -0.3710 -2.0038 0.9841
3.4619 -0.2476 -2.0038 0.9841
