ply
format ascii 1.0
element vertex 741
property float32 x
property float32 y
property float32 z
property float32 I
end_header
-9.2653 -0.6627 -1.9635 0.9627
-9.2363 -0.9930 -1.9636 0.9627
-9.1957 -1.3221 -1.9638 0.9627
-9.0799 -1.9752 -1.9642 0.9627
-8.9184 -2.6187 -1.9648 0.9627
-8.8207 -2.9358 -1.9651 0.9627
-8.7119 -3.2494 -1.9654 0.9627
-8.5921 -3.5590 -1.9658 0.9627
-8.3201 -4.1647 -1.9667 0.9627
-8.0059 -4.7501 -1.9677 0.9627
-7.8335 -5.0343 -1.9683 0.9626
-7.4589 -5.5837 -1.9695 0.9626
-7.2572 -5.8482 -1.9701 0.9626
-7.0462 -6.1056 -1.9708 0.9626
-6.8262 -6.3554 -1.9715 0.9626
-6.3601 -6.8312 -1.9729 0.9626
-5.8612 -7.2733 -1.9745 0.9625
-5.6002 -7.4809 -1.9753 0.9625
-5.0565 -7.8681 -1.9770 0.9625
-4.1921 -8.3748 -1.9797 0.9624
-3.8923 -8.5231 -1.9806 0.9624
-3.5874 -8.6606 -1.9815 0.9624
-2.9632 -8.9031 -1.9834 0.9624
-2.6449 -9.0076 -1.9844 0.9623
-2.3228 -9.1007 -1.9854 0.9623
-1.9975 -9.1824 -1.9864 0.9623
-1.3387 -9.3109 -1.9884 0.9623
-1.0060 -9.3575 -1.9894 0.9623
-0.6717 -9.3923 -1.9904 0.9622
-0.3363 -9.4151 -1.9914 0.9622
0.0000 -9.4259 -1.9924 0.9622
0.3366 -9.4247 -1.9935 0.9622
0.6731 -9.4114 -1.9945 0.9622
1.3442 -9.3489 -1.9965 0.9621
3.3104 -8.8756 -2.0024 0.9620
3.6268 -8.7559 -2.0033 0.9620
3.9389 -8.6249 -2.0043 0.9620
4.2461 -8.4827 -2.0052 0.9620
4.5482 -8.3294 -2.0061 0.9619
5.4195 -7.8055 -2.0086 0.9619
5.6969 -7.6102 -2.0095 0.9619
5.9673 -7.4050 -2.0102 0.9619
6.2302 -7.1900 -2.0110 0.9619
7.2001 -6.2389 -2.0138 0.9618
7.6316 -5.7129 -2.0151 0.9618
7.8329 -5.4385 -2.0157 0.9618
8.0242 -5.1568 -2.0162 0.9618
8.3757 -4.5735 -2.0172 0.9617
8.6844 -3.9660 -2.0181 0.9617
8.8221 -3.6542 -2.0185 0.9617
8.9484 -3.3376 -2.0188 0.9617
9.2577 -2.3629 -2.0196 0.9617
9.3371 -2.0312 -2.0198 0.9617
9.4044 -1.6968 -2.0200 0.9617
9.5333 -0.6818 -2.0203 0.9617
-8.3657 0.0000 -1.9661 0.9662
-8.3450 -0.5968 -1.9663 0.9662
-8.2822 -1.1908 -1.9665 0.9662
-8.2351 -1.4858 -1.9667 0.9662
-8.1777 -1.7790 -1.9669 0.9662
-8.0320 -2.3584 -1.9674 0.9662
-7.9439 -2.6440 -1.9677 0.9662
-7.6199 -3.4799 -1.9688 0.9662
-7.4924 -3.7504 -1.9692 0.9662
-6.8892 -4.7833 -1.9711 0.9661
-6.7160 -5.0275 -1.9717 0.9661
-6.5342 -5.2655 -1.9722 0.9661
-6.1457 -5.7218 -1.9735 0.9661
-5.9395 -5.9395 -1.9741 0.9661
-5.5044 -6.3524 -1.9755 0.9661
-5.0409 -6.7338 -1.9769 0.9660
-4.7992 -6.9121 -1.9777 0.9660
-4.5511 -7.0817 -1.9784 0.9660
-4.2972 -7.2425 -1.9792 0.9660
-4.0376 -7.3943 -1.9800 0.9660
-3.5027 -7.6698 -1.9817 0.9659
-2.9491 -7.9070 -1.9834 0.9659
-2.3796 -8.1043 -1.9851 0.9659
-2.0898 -8.1877 -1.9860 0.9659
-1.7970 -8.2608 -1.9869 0.9659
-0.9049 -8.4170 -1.9896 0.9658
-0.6042 -8.4478 -1.9905 0.9658
-0.3024 -8.4679 -1.9914 0.9658
-0.0000 -8.4772 -1.9923 0.9658
0.3027 -8.4757 -1.9933 0.9658
0.9074 -8.4402 -1.9951 0.9657
1.2086 -8.4063 -1.9960 0.9657
2.1031 -8.2400 -1.9987 0.9657
2.3969 -8.1632 -1.9995 0.9656
2.6879 -8.0760 -2.0004 0.9656
2.9758 -7.9783 -2.0013 0.9656
3.2600 -7.8704 -2.0021 0.9656
4.8700 -7.0142 -2.0069 0.9655
5.3619 -6.6537 -2.0083 0.9655
5.5979 -6.4603 -2.0090 0.9655
5.8268 -6.2585 -2.0097 0.9655
6.0485 -6.0484 -2.0103 0.9655
6.6663 -5.3721 -2.0121 0.9654
6.8556 -5.1321 -2.0127 0.9654
7.2079 -4.6322 -2.0137 0.9654
7.5233 -4.1081 -2.0146 0.9654
7.8002 -3.5623 -2.0154 0.9654
7.9238 -3.2821 -2.0157 0.9654
8.1401 -2.7093 -2.0163 0.9654
8.2326 -2.4173 -2.0165 0.9654
8.3145 -2.1222 -2.0168 0.9654
8.4462 -1.5239 -2.0171 0.9653
8.5342 -0.9175 -2.0173 0.9653
8.5617 -0.6123 -2.0173 0.9653
8.5782 -0.3064 -2.0174 0.9653
-7.5265 -1.0821 -1.9688 0.9691
-7.4315 -1.6166 -1.9691 0.9691
-7.3698 -1.8810 -1.9694 0.9691
-7.1295 -2.6592 -1.9702 0.9690
-6.9240 -3.1621 -1.9708 0.9690
-6.8080 -3.4078 -1.9712 0.9690
-6.6834 -3.6494 -1.9716 0.9690
-6.5503 -3.8865 -1.9720 0.9690
-6.4089 -4.1187 -1.9725 0.9690
-6.1017 -4.5677 -1.9735 0.9690
-5.5831 -5.1981 -1.9751 0.9690
-5.3957 -5.3957 -1.9757 0.9690
-5.2012 -5.5865 -1.9763 0.9690
-5.0001 -5.7704 -1.9769 0.9689
-4.7925 -5.9472 -1.9776 0.9689
-4.5788 -6.1165 -1.9782 0.9689
-3.6669 -6.7154 -1.9811 0.9689
-3.1809 -6.9652 -1.9826 0.9689
-2.4210 -7.2738 -1.9849 0.9688
-2.1607 -7.3585 -1.9857 0.9688
-1.3634 -7.5566 -1.9881 0.9688
-0.2745 -7.6864 -1.9914 0.9687
0.2747 -7.6928 -1.9931 0.9687
0.5494 -7.6813 -1.9939 0.9687
0.8235 -7.6600 -1.9947 0.9687
1.0969 -7.6289 -1.9956 0.9687
2.6999 -7.2387 -2.0004 0.9686
3.9496 -6.6566 -2.0041 0.9685
4.1861 -6.5137 -2.0048 0.9685
4.4174 -6.3623 -2.0054 0.9685
4.6432 -6.2026 -2.0061 0.9685
5.0771 -5.8593 -2.0074 0.9685
5.6793 -5.2877 -2.0091 0.9684
5.8660 -5.0829 -2.0097 0.9684
6.3805 -4.4300 -2.0112 0.9684
6.5360 -4.2004 -2.0116 0.9684
6.8217 -3.7249 -2.0124 0.9684
7.0725 -3.2299 -2.0131 0.9684
7.2871 -2.7179 -2.0137 0.9684
7.3804 -2.4564 -2.0140 0.9684
7.4642 -2.1917 -2.0142 0.9684
7.5384 -1.9241 -2.0144 0.9684
-6.9429 -0.4966 -1.9705 0.9715
-6.9210 -0.7441 -1.9706 0.9715
-6.8905 -0.9907 -1.9707 0.9715
-6.8512 -1.2361 -1.9709 0.9715
-6.7468 -1.7220 -1.9712 0.9715
-6.3383 -2.8946 -1.9726 0.9714
-6.1179 -3.3406 -1.9733 0.9714
-5.9959 -3.5575 -1.9737 0.9714
-5.5850 -4.1809 -1.9750 0.9714
-5.4335 -4.3786 -1.9755 0.9714
-5.2751 -4.5709 -1.9760 0.9714
-5.1099 -4.7575 -1.9765 0.9714
-4.9382 -4.9382 -1.9770 0.9714
-4.5760 -5.2809 -1.9782 0.9714
-3.9889 -5.7451 -1.9800 0.9713
-3.5712 -6.0190 -1.9813 0.9713
-3.1349 -6.2627 -1.9826 0.9713
-2.2148 -6.6545 -1.9854 0.9713
-1.0000 -6.9550 -1.9891 0.9712
-0.7514 -6.9889 -1.9899 0.9712
-0.5017 -7.0139 -1.9907 0.9712
-0.2511 -7.0300 -1.9914 0.9712
0.2513 -7.0354 -1.9929 0.9712
0.7531 -7.0048 -1.9945 0.9711
1.0030 -6.9761 -1.9952 0.9711
1.7449 -6.8366 -1.9974 0.9711
1.9886 -6.7724 -1.9982 0.9711
2.4684 -6.6180 -1.9996 0.9711
2.7040 -6.5280 -2.0003 0.9711
3.1650 -6.3228 -2.0017 0.9710
3.3897 -6.2079 -2.0023 0.9710
4.0378 -5.8155 -2.0042 0.9710
4.2440 -5.6694 -2.0049 0.9710
4.4450 -5.5159 -2.0054 0.9710
4.6404 -5.3553 -2.0060 0.9710
5.1904 -4.8324 -2.0076 0.9709
5.3609 -4.6453 -2.0081 0.9709
5.5246 -4.4520 -2.0086 0.9709
5.6812 -4.2529 -2.0090 0.9709
5.8306 -4.0483 -2.0095 0.9709
5.9726 -3.8384 -2.0099 0.9709
6.1070 -3.6234 -2.0103 0.9709
6.3521 -3.1796 -2.0109 0.9709
6.5647 -2.7192 -2.0115 0.9709
6.6584 -2.4835 -2.0118 0.9709
6.7436 -2.2445 -2.0120 0.9709
6.8201 -2.0026 -2.0122 0.9709
6.8878 -1.7580 -2.0124 0.9709
6.9467 -1.5112 -2.0126 0.9709
6.9967 -1.2623 -2.0127 0.9709
7.0922 -0.5072 -2.0129 0.9709
-6.4076 -0.2288 -1.9721 0.9735
-6.3955 -0.4574 -1.9721 0.9735
-6.3472 -0.9126 -1.9723 0.9735
-6.3110 -1.1386 -1.9725 0.9735
-6.2669 -1.3633 -1.9726 0.9735
-6.2148 -1.5862 -1.9728 0.9735
-6.1548 -1.8072 -1.9730 0.9735
-6.0871 -2.0260 -1.9732 0.9735
-6.0117 -2.2423 -1.9735 0.9735
-5.9287 -2.4557 -1.9738 0.9735
-5.8381 -2.6662 -1.9741 0.9735
-5.7401 -2.8733 -1.9744 0.9735
-5.6349 -3.0769 -1.9747 0.9735
-5.5225 -3.2766 -1.9751 0.9735
-5.4031 -3.4723 -1.9755 0.9735
-5.2768 -3.6637 -1.9759 0.9735
-5.1437 -3.8505 -1.9763 0.9735
-5.0041 -4.0326 -1.9767 0.9735
-4.7060 -4.3814 -1.9777 0.9735
-4.5477 -4.5477 -1.9782 0.9734
-4.3836 -4.7083 -1.9787 0.9734
-3.6731 -5.2902 -1.9809 0.9734
-3.2883 -5.5421 -1.9821 0.9734
-3.0893 -5.6576 -1.9827 0.9734
-2.2556 -6.0475 -1.9853 0.9733
-1.8197 -6.1972 -1.9866 0.9733
-1.5978 -6.2603 -1.9873 0.9733
-1.3739 -6.3155 -1.9880 0.9733
-1.1480 -6.3627 -1.9886 0.9733
-0.2311 -6.4704 -1.9914 0.9733
0.0000 -6.4768 -1.9921 0.9733
0.2313 -6.4749 -1.9928 0.9732
0.4624 -6.4648 -1.9935 0.9732
0.9230 -6.4198 -1.9949 0.9732
1.8298 -6.2316 -1.9976 0.9732
2.4878 -6.0062 -1.9996 0.9732
2.9118 -5.8171 -2.0008 0.9731
3.5201 -5.4774 -2.0026 0.9731
3.9041 -5.2153 -2.0038 0.9731
4.7741 -4.4449 -2.0063 0.9731
4.9308 -4.2726 -2.0068 0.9731
5.0813 -4.0948 -2.0072 0.9731
5.4931 -3.5302 -2.0084 0.9730
5.7329 -3.1304 -2.0091 0.9730
6.3883 -1.3897 -2.0109 0.9730
6.4342 -1.1609 -2.0110 0.9730
6.5011 -0.6989 -2.0111 0.9730
6.5220 -0.4665 -2.0112 0.9730
-5.9035 -0.6347 -1.9736 0.9753
-5.8438 -1.0543 -1.9739 0.9753
-5.6363 -1.8759 -1.9746 0.9753
-5.5664 -2.0762 -1.9748 0.9753
-5.3148 -2.6604 -1.9756 0.9753
-5.2173 -2.8489 -1.9760 0.9753
-4.7623 -3.5650 -1.9774 0.9752
-4.2101 -4.2101 -1.9792 0.9752
-4.0582 -4.3588 -1.9796 0.9752
-3.9010 -4.5020 -1.9801 0.9752
-3.2240 -5.0166 -1.9822 0.9752
-2.6716 -5.3371 -1.9839 0.9752
-1.4787 -5.7936 -1.9876 0.9751
-1.2714 -5.8446 -1.9882 0.9751
-0.6400 -5.9527 -1.9901 0.9751
-0.4273 -5.9737 -1.9908 0.9751
-0.2138 -5.9871 -1.9914 0.9751
0.0000 -5.9929 -1.9921 0.9751
0.2140 -5.9910 -1.9927 0.9750
0.6412 -5.9643 -1.9940 0.9750
0.8540 -5.9396 -1.9946 0.9750
1.0658 -5.9072 -1.9953 0.9750
1.8980 -5.7025 -1.9978 0.9750
2.8845 -5.2826 -2.0007 0.9749
3.2558 -5.0662 -2.0018 0.9749
3.4355 -4.9480 -2.0023 0.9749
3.6108 -4.8235 -2.0028 0.9749
3.9477 -4.5559 -2.0038 0.9749
4.1087 -4.4131 -2.0043 0.9749
4.2646 -4.2646 -2.0048 0.9749
4.4151 -4.1106 -2.0052 0.9749
4.9590 -3.4431 -2.0068 0.9749
5.0796 -3.2645 -2.0071 0.9749
5.1937 -3.0816 -2.0074 0.9749
5.4019 -2.7040 -2.0080 0.9749
5.4957 -2.5098 -2.0083 0.9749
5.6620 -2.1118 -2.0087 0.9748
5.7344 -1.9086 -2.0089 0.9748
5.8569 -1.4949 -2.0093 0.9748
5.9493 -1.0734 -2.0095 0.9748
5.9840 -0.8604 -2.0096 0.9748
6.0111 -0.6463 -2.0096 0.9748
6.0304 -0.4313 -2.0097 0.9748
6.0420 -0.2158 -2.0097 0.9748
-5.5186 -0.1971 -1.9748 0.9768
-5.5082 -0.3940 -1.9748 0.9768
-5.1772 -1.9310 -1.9760 0.9768
-5.1056 -2.1148 -1.9762 0.9768
-5.0275 -2.2960 -1.9765 0.9768
-4.9430 -2.4743 -1.9768 0.9768
-4.8523 -2.6495 -1.9770 0.9768
-4.7554 -2.8215 -1.9774 0.9768
-4.6524 -2.9899 -1.9777 0.9768
-4.5435 -3.1546 -1.9780 0.9768
-4.4289 -3.3154 -1.9784 0.9768
-4.3085 -3.4720 -1.9788 0.9768
-3.9151 -3.9151 -1.9800 0.9768
-3.3212 -4.4366 -1.9819 0.9767
-2.6587 -4.8691 -1.9839 0.9767
-2.3059 -5.0492 -1.9850 0.9767
-2.1248 -5.1297 -1.9856 0.9767
-1.7544 -5.2712 -1.9867 0.9767
-1.5656 -5.3320 -1.9873 0.9767
-1.3747 -5.3861 -1.9878 0.9767
-1.1819 -5.4333 -1.9884 0.9767
-0.9876 -5.4737 -1.9890 0.9766
-0.7918 -5.5071 -1.9896 0.9766
-0.5949 -5.5335 -1.9902 0.9766
-0.0000 -5.5704 -1.9920 0.9766
0.3976 -5.5596 -1.9932 0.9766
0.5960 -5.5435 -1.9938 0.9766
1.1862 -5.4529 -1.9956 0.9766
1.3805 -5.4086 -1.9962 0.9766
1.5731 -5.3575 -1.9967 0.9766
1.7638 -5.2994 -1.9973 0.9766
1.9524 -5.2346 -1.9979 0.9765
3.0253 -4.7074 -2.0011 0.9765
3.6679 -4.2329 -2.0030 0.9765
3.8174 -4.1002 -2.0034 0.9765
4.3656 -3.5180 -2.0050 0.9765
4.6070 -3.1987 -2.0057 0.9765
4.7190 -3.0327 -2.0060 0.9765
4.9248 -2.6891 -2.0066 0.9764
5.0183 -2.5120 -2.0068 0.9764
5.1053 -2.3315 -2.0071 0.9764
5.2598 -1.9618 -2.0075 0.9764
5.4407 -1.3887 -2.0080 0.9764
5.5587 -0.7992 -2.0083 0.9764
5.6126 -0.2004 -2.0084 0.9764
-5.1559 0.0000 -1.9758 0.9782
-5.1040 -0.7339 -1.9761 0.9782
-5.0749 -0.9156 -1.9762 0.9782
-5.0393 -1.0962 -1.9763 0.9782
-4.9490 -1.4532 -1.9766 0.9781
-4.8337 -1.8029 -1.9770 0.9781
-4.7668 -1.9745 -1.9772 0.9781
-4.6939 -2.1436 -1.9775 0.9781
-4.6150 -2.3101 -1.9777 0.9781
-4.5302 -2.4737 -1.9780 0.9781
-4.4397 -2.6342 -1.9783 0.9781
-4.2418 -2.9451 -1.9789 0.9781
-4.1347 -3.0952 -1.9793 0.9781
-3.6549 -3.6549 -1.9808 0.9781
-3.5228 -3.7838 -1.9812 0.9781
-2.3185 -4.6317 -1.9849 0.9781
-1.8115 -4.8568 -1.9865 0.9780
-1.6374 -4.9197 -1.9870 0.9780
-1.4612 -4.9764 -1.9875 0.9780
-1.2830 -5.0267 -1.9881 0.9780
-0.9216 -5.1083 -1.9892 0.9780
-0.7389 -5.1393 -1.9897 0.9780
-0.5552 -5.1639 -1.9903 0.9780
-0.3706 -5.1819 -1.9909 0.9780
0.0000 -5.1980 -1.9920 0.9780
0.3710 -5.1877 -1.9931 0.9780
0.5561 -5.1726 -1.9937 0.9780
0.7406 -5.1509 -1.9942 0.9780
0.9242 -5.1226 -1.9948 0.9779
1.2880 -5.0463 -1.9959 0.9779
1.4677 -4.9985 -1.9964 0.9779
1.6456 -4.9443 -1.9969 0.9779
1.8215 -4.8836 -1.9974 0.9779
2.3349 -4.6645 -1.9990 0.9779
2.5005 -4.5793 -1.9995 0.9779
3.2776 -4.0673 -2.0018 0.9779
3.4214 -3.9485 -2.0022 0.9779
3.6959 -3.6958 -2.0030 0.9779
3.8261 -3.5623 -2.0034 0.9779
3.9516 -3.4241 -2.0037 0.9779
4.0720 -3.2814 -2.0041 0.9778
4.2971 -2.9835 -2.0047 0.9778
4.7617 -2.1746 -2.0060 0.9778
4.9056 -1.8297 -2.0064 0.9778
5.0742 -1.2951 -2.0069 0.9778
5.1175 -1.1133 -2.0070 0.9778
5.1843 -0.7454 -2.0072 0.9778
5.2077 -0.5599 -2.0072 0.9778
5.2245 -0.3737 -2.0072 0.9778
5.2345 -0.1870 -2.0072 0.9778
-4.8301 -0.0000 -1.9768 0.9793
-4.8270 -0.1724 -1.9768 0.9793
-4.7814 -0.6875 -1.9770 0.9793
-4.7541 -0.8577 -1.9771 0.9793
-4.6814 -1.1948 -1.9774 0.9793
-4.6361 -1.3613 -1.9776 0.9793
-4.5850 -1.5260 -1.9777 0.9793
-4.4653 -1.8496 -1.9781 0.9793
-4.3230 -2.1639 -1.9786 0.9793
-4.2436 -2.3172 -1.9788 0.9793
-4.1588 -2.4675 -1.9791 0.9793
-3.8729 -2.8992 -1.9800 0.9793
-3.7676 -3.0361 -1.9804 0.9793
-3.6575 -3.1692 -1.9807 0.9793
-3.5427 -3.2984 -1.9811 0.9793
-3.1717 -3.6603 -1.9822 0.9793
-3.0396 -3.7719 -1.9826 0.9793
-2.9037 -3.8789 -1.9831 0.9793
-2.6207 -4.0779 -1.9839 0.9793
-2.3242 -4.2565 -1.9849 0.9793
-2.1713 -4.3377 -1.9853 0.9793
-1.8572 -4.4837 -1.9863 0.9792
-1.5334 -4.6071 -1.9873 0.9792
-1.0329 -4.7483 -1.9888 0.9792
-0.3470 -4.8520 -1.9909 0.9792
0.1738 -4.8652 -1.9925 0.9792
0.3474 -4.8571 -1.9930 0.9792
0.5207 -4.8429 -1.9935 0.9792
0.6934 -4.8225 -1.9940 0.9792
1.2058 -4.7244 -1.9956 0.9791
1.3740 -4.6796 -1.9961 0.9791
1.5406 -4.6287 -1.9966 0.9791
1.7052 -4.5718 -1.9971 0.9791
1.8678 -4.5092 -1.9975 0.9791
2.1857 -4.3665 -1.9985 0.9791
2.4928 -4.2013 -1.9994 0.9791
2.6417 -4.1106 -1.9998 0.9791
2.9295 -3.9133 -2.0007 0.9791
3.0679 -3.8071 -2.0011 0.9791
3.4593 -3.4593 -2.0022 0.9791
3.8112 -3.0712 -2.0033 0.9791
3.9190 -2.9337 -2.0036 0.9791
4.2119 -2.4990 -2.0044 0.9791
4.4564 -2.0352 -2.0051 0.9790
4.7488 -1.2121 -2.0059 0.9790
4.7893 -1.0419 -2.0060 0.9790
4.8518 -0.6976 -2.0061 0.9790
4.8737 -0.5240 -2.0062 0.9790
4.8894 -0.3497 -2.0062 0.9790
-1.4490 -0.1036 -0.6331 0.9937
-1.4359 -0.1544 -0.6294 0.9937
-1.4180 -0.2039 -0.6244 0.9938
-1.3722 -0.4029 -0.6233 0.9938
-1.5118 -0.5639 -0.7032 0.9930
-4.1951 -1.7377 -1.9789 0.9804
-4.1308 -1.8865 -1.9791 0.9804
-3.8222 -2.4564 -1.9801 0.9804
-3.7327 -2.5916 -1.9804 0.9804
-3.5394 -2.8522 -1.9810 0.9804
-3.4359 -2.9772 -1.9814 0.9804
-3.2159 -3.2158 -1.9820 0.9804
-2.9794 -3.4383 -1.9828 0.9803
-2.5963 -3.7394 -1.9840 0.9803
-2.3239 -3.9167 -1.9848 0.9803
-2.1831 -3.9981 -1.9853 0.9803
-2.0395 -4.0743 -1.9857 0.9803
-1.5934 -4.2719 -1.9871 0.9803
-1.4402 -4.3271 -1.9875 0.9803
-1.1284 -4.4209 -1.9885 0.9803
-0.8105 -4.4924 -1.9895 0.9803
-0.6498 -4.5195 -1.9899 0.9803
-0.4882 -4.5410 -1.9904 0.9803
-0.3259 -4.5566 -1.9909 0.9803
0.0000 -4.5705 -1.9919 0.9803
0.4889 -4.5477 -1.9934 0.9802
0.9730 -4.4726 -1.9948 0.9802
1.1322 -4.4361 -1.9953 0.9802
1.2902 -4.3939 -1.9958 0.9802
1.4465 -4.3461 -1.9963 0.9802
1.7537 -4.2338 -1.9972 0.9802
2.0522 -4.0997 -1.9981 0.9802
2.1977 -4.0247 -1.9985 0.9802
2.3404 -3.9445 -1.9989 0.9802
2.4802 -3.8593 -1.9993 0.9802
2.7503 -3.6740 -2.0001 0.9802
2.8802 -3.5741 -2.0005 0.9802
3.3619 -3.1301 -2.0019 0.9802
3.5778 -2.8832 -2.0025 0.9802
3.6789 -2.7540 -2.0028 0.9801
3.7754 -2.6213 -2.0031 0.9801
3.8671 -2.4852 -2.0034 0.9801
4.2492 -1.7601 -2.0044 0.9801
4.4139 -1.2961 -2.0049 0.9801
4.4577 -1.1377 -2.0050 0.9801
4.4956 -0.9780 -2.0051 0.9801
4.5543 -0.6548 -2.0052 0.9801
4.5748 -0.4918 -2.0053 0.9801
4.5896 -0.3283 -2.0053 0.9801
4.5984 -0.1642 -2.0053 0.9801
-1.2362 -0.0884 -0.5737 0.9946
-1.2261 -0.1318 -0.5708 0.9946
-1.2124 -0.1743 -0.5670 0.9946
-1.1974 -0.2160 -0.5632 0.9947
-1.1790 -0.2565 -0.5585 0.9947
-1.2017 -0.4482 -0.5937 0.9944
-1.2345 -0.5114 -0.6185 0.9941
-3.8907 -1.7768 -1.9799 0.9813
-3.8252 -1.9148 -1.9801 0.9813
-3.7548 -2.0503 -1.9803 0.9813
-3.5155 -2.4409 -1.9811 0.9813
-3.3334 -2.6862 -1.9816 0.9813
-3.0286 -3.0286 -1.9826 0.9813
-2.6890 -3.3368 -1.9837 0.9813
-2.5686 -3.4313 -1.9840 0.9813
-2.4450 -3.5215 -1.9844 0.9813
-2.3182 -3.6072 -1.9848 0.9813
-2.1884 -3.6884 -1.9852 0.9813
-1.9205 -3.8367 -1.9860 0.9813
-1.7827 -3.9036 -1.9865 0.9813
-1.5004 -4.0226 -1.9873 0.9813
-1.0625 -4.1628 -1.9887 0.9812
-0.6118 -4.2554 -1.9900 0.9812
0.0000 -4.3032 -1.9919 0.9812
0.1536 -4.3014 -1.9923 0.9812
0.3071 -4.2942 -1.9928 0.9812
0.4603 -4.2815 -1.9933 0.9812
0.6130 -4.2633 -1.9937 0.9812
0.9160 -4.2107 -1.9946 0.9812
1.5072 -4.0410 -1.9964 0.9812
1.7924 -3.9249 -1.9973 0.9812
2.3346 -3.6328 -1.9989 0.9811
2.8299 -3.2659 -2.0003 0.9811
2.9452 -3.1633 -2.0007 0.9811
3.0567 -3.0567 -2.0010 0.9811
3.1644 -2.9461 -2.0013 0.9811
3.5534 -2.4672 -2.0024 0.9811
3.6397 -2.3391 -2.0027 0.9811
3.7213 -2.2079 -2.0029 0.9811
3.7981 -2.0739 -2.0031 0.9811
3.8701 -1.9372 -2.0033 0.9811
3.9371 -1.7980 -2.0035 0.9811
4.0561 -1.5128 -2.0038 0.9811
4.1077 -1.3672 -2.0040 0.9811
4.2614 -0.7688 -2.0044 0.9811
4.3056 -0.4629 -2.0045 0.9811
4.3277 -0.1546 -2.0045 0.9811
-1.0769 -0.0770 -0.5296 0.9952
-1.0705 -0.1151 -0.5281 0.9952
-1.0518 -0.1898 -0.5242 0.9952
-1.0307 -0.2631 -0.5218 0.9953
-1.0175 -0.2988 -0.5202 0.9953
-1.0025 -0.3337 -0.5183 0.9953
-1.0119 -0.3774 -0.5298 0.9952
-1.0444 -0.4770 -0.5632 0.9949
-1.0588 -0.5300 -0.5808 0.9947
-3.5444 -1.9354 -1.9809 0.9822
-3.3981 -2.1838 -1.9814 0.9822
-3.3184 -2.3040 -1.9816 0.9822
-3.2345 -2.4213 -1.9819 0.9822
-3.1465 -2.5356 -1.9822 0.9822
-3.0544 -2.6466 -1.9825 0.9822
-2.7553 -2.9594 -1.9834 0.9821
-2.5380 -3.1495 -1.9841 0.9821
-2.1880 -3.4046 -1.9852 0.9821
-1.9403 -3.5534 -1.9859 0.9821
-1.6825 -3.6842 -1.9867 0.9821
-1.2799 -3.8453 -1.9880 0.9821
-1.1420 -3.8894 -1.9884 0.9821
-1.0027 -3.9285 -1.9888 0.9821
-0.7202 -3.9918 -1.9897 0.9821
-0.2896 -4.0486 -1.9910 0.9821
0.2898 -4.0521 -1.9927 0.9821
0.4343 -4.0400 -1.9932 0.9821
0.8643 -3.9731 -1.9945 0.9820
1.0058 -3.9405 -1.9949 0.9820
1.1460 -3.9029 -1.9953 0.9820
1.8226 -3.6411 -1.9973 0.9820
1.9518 -3.5744 -1.9977 0.9820
2.0785 -3.5031 -1.9981 0.9820
2.2026 -3.4273 -1.9984 0.9820
2.3240 -3.3471 -1.9988 0.9820
2.4424 -3.2626 -1.9991 0.9820
2.5577 -3.1739 -1.9995 0.9820
2.8837 -2.8837 -2.0004 0.9820
2.9852 -2.7794 -2.0007 0.9820
3.0830 -2.6714 -2.0010 0.9820
3.2665 -2.4453 -2.0015 0.9820
3.3522 -2.3274 -2.0018 0.9820
3.4335 -2.2066 -2.0020 0.9820
3.8262 -1.4271 -2.0031 0.9820
3.8749 -1.2897 -2.0033 0.9820
3.9912 -0.8682 -2.0036 0.9820
4.0745 -0.2914 -2.0038 0.9820
-0.9895 -0.0000 -0.5133 0.9956
-0.9838 -0.1058 -0.5133 0.9956
-0.9404 -0.2761 -0.5085 0.9956
-0.9208 -0.3434 -0.5098 0.9956
-0.9271 -0.3840 -0.5206 0.9955
-0.9486 -0.5180 -0.5607 0.9951
-3.2852 -1.9492 -1.9817 0.9829
-3.2139 -2.0654 -1.9819 0.9829
-3.1385 -2.1791 -1.9822 0.9829
-2.9758 -2.3981 -1.9827 0.9829
-2.8887 -2.5031 -1.9830 0.9829
-2.7036 -2.7036 -1.9835 0.9829
-2.6058 -2.7988 -1.9838 0.9829
-2.5046 -2.8905 -1.9842 0.9829
-2.2928 -3.0628 -1.9848 0.9829
-2.1824 -3.1433 -1.9852 0.9829
-2.0692 -3.2197 -1.9855 0.9829
-1.9533 -3.2921 -1.9859 0.9829
-1.4660 -3.5393 -1.9874 0.9829
-1.0799 -3.6779 -1.9886 0.9829
-0.9481 -3.7148 -1.9890 0.9829
-0.8151 -3.7471 -1.9894 0.9829
-0.6810 -3.7746 -1.9898 0.9829
-0.5459 -3.7972 -1.9902 0.9829
-0.2738 -3.8281 -1.9910 0.9829
-0.1370 -3.8362 -1.9914 0.9829
-0.0000 -3.8395 -1.9918 0.9828
0.1371 -3.8378 -1.9922 0.9828
0.2740 -3.8313 -1.9927 0.9828
0.4107 -3.8198 -1.9931 0.9828
0.6824 -3.7824 -1.9939 0.9828
0.9509 -3.7255 -1.9947 0.9828
1.2147 -3.6497 -1.9955 0.9828
1.3445 -3.6046 -1.9959 0.9828
1.4726 -3.5551 -1.9962 0.9828
1.5988 -3.5009 -1.9966 0.9828
1.7231 -3.4422 -1.9970 0.9828
1.9649 -3.3117 -1.9977 0.9828
2.1969 -3.1642 -1.9984 0.9828
2.6266 -2.8211 -1.9997 0.9828
2.7260 -2.7260 -1.9999 0.9828
2.8219 -2.6273 -2.0002 0.9828
2.9143 -2.5252 -2.0005 0.9828
3.3867 -1.8493 -2.0018 0.9828
3.5107 -1.6033 -2.0022 0.9828
3.6627 -1.2191 -2.0026 0.9828
3.7041 -1.0876 -2.0027 0.9828
3.7726 -0.8207 -2.0029 0.9828
3.8217 -0.5495 -2.0030 0.9828
3.8390 -0.4127 -2.0031 0.9828
3.8513 -0.2755 -2.0031 0.9828
3.8587 -0.1378 -2.0031 0.9828
-0.9179 -0.0328 -0.5031 0.9958
-0.9161 -0.0655 -0.5030 0.9958
-0.9077 -0.1305 -0.5022 0.9958
-0.9011 -0.1626 -0.5015 0.9958
-0.8932 -0.1943 -0.5006 0.9958
-0.8837 -0.2256 -0.4995 0.9958
-0.8465 -0.3157 -0.4948 0.9959
-0.8479 -0.3512 -0.5027 0.9958
-0.8507 -0.4645 -0.5309 0.9956
-0.8524 -0.5057 -0.5429 0.9955
-3.0449 -1.9569 -1.9824 0.9836
-2.8193 -2.2720 -1.9831 0.9836
-2.6508 -2.4679 -1.9837 0.9836
-2.4687 -2.6515 -1.9842 0.9836
-2.3728 -2.7384 -1.9845 0.9836
-2.2739 -2.8218 -1.9849 0.9836
-2.0675 -2.9777 -1.9855 0.9836
-1.7382 -3.1833 -1.9865 0.9836
-1.6238 -3.2439 -1.9869 0.9836
-1.5072 -3.3004 -1.9872 0.9836
-1.2684 -3.4008 -1.9880 0.9836
-1.1465 -3.4445 -1.9883 0.9836
-1.0230 -3.4839 -1.9887 0.9836
-0.8981 -3.5189 -1.9891 0.9836
-0.7721 -3.5494 -1.9895 0.9836
-0.3885 -3.6137 -1.9906 0.9836
-0.0000 -3.6367 -1.9918 0.9836
0.1298 -3.6350 -1.9922 0.9835
0.3890 -3.6179 -1.9930 0.9835
0.7739 -3.5577 -1.9941 0.9835
1.3946 -3.3669 -1.9960 0.9835
1.5142 -3.3155 -1.9963 0.9835
1.6318 -3.2600 -1.9967 0.9835
1.7474 -3.2002 -1.9970 0.9835
1.8609 -3.1363 -1.9974 0.9835
1.9719 -3.0684 -1.9977 0.9835
2.0805 -2.9965 -1.9980 0.9835
2.1865 -2.9208 -1.9983 0.9835
2.4873 -2.6715 -1.9992 0.9835
2.7597 -2.3913 -2.0000 0.9835
2.8436 -2.2916 -2.0003 0.9835
2.9240 -2.1888 -2.0005 0.9835
3.2070 -1.7512 -2.0013 0.9835
3.4246 -1.2773 -2.0019 0.9835
3.4682 -1.1543 -2.0020 0.9835
3.5074 -1.0299 -2.0021 0.9835
3.5421 -0.9041 -2.0022 0.9835
3.5978 -0.6491 -2.0024 0.9835
3.6188 -0.5203 -2.0024 0.9835
3.6351 -0.3908 -2.0024 0.9835
3.6468 -0.2608 -2.0025 0.9835
-0.8547 -0.0305 -0.4938 0.9961
-0.8530 -0.0610 -0.4938 0.9961
-0.8014 -0.2667 -0.4876 0.9961
-0.7809 -0.3566 -0.4957 0.9960
-0.7806 -0.3908 -0.5040 0.9960
-0.7787 -0.4252 -0.5122 0.9959
-0.7696 -0.4946 -0.5282 0.9958
-2.6751 -2.1558 -1.9836 0.9843
-2.5152 -2.3417 -1.9841 0.9843
-2.4303 -2.4303 -1.9843 0.9843
-2.3423 -2.5159 -1.9846 0.9842
-2.2514 -2.5982 -1.9849 0.9842
-2.1575 -2.6773 -1.9852 0.9842
-2.0609 -2.7530 -1.9855 0.9842
-1.9616 -2.8253 -1.9858 0.9842
-1.7556 -2.9590 -1.9864 0.9842
-1.5406 -3.0777 -1.9871 0.9842
-1.4300 -3.1313 -1.9874 0.9842
-1.3175 -3.1809 -1.9878 0.9842
-1.2034 -3.2264 -1.9881 0.9842
-1.0877 -3.2679 -1.9885 0.9842
-0.9705 -3.3052 -1.9888 0.9842
-0.8521 -3.3384 -1.9892 0.9842
-0.7325 -3.3673 -1.9896 0.9842
-0.4906 -3.4122 -1.9903 0.9842
-0.1231 -3.4470 -1.9914 0.9842
-0.0000 -3.4499 -1.9918 0.9842
0.2462 -3.4424 -1.9925 0.9842
0.3690 -3.4320 -1.9929 0.9842
0.4913 -3.4173 -1.9933 0.9842
0.6131 -3.3982 -1.9936 0.9842
0.7341 -3.3748 -1.9940 0.9842
0.9734 -3.3150 -1.9947 0.9842
1.2078 -3.2382 -1.9954 0.9842
1.3228 -3.1936 -1.9958 0.9842
1.4362 -3.1449 -1.9961 0.9842
1.9734 -2.8422 -1.9977 0.9841
2.0739 -2.7704 -1.9980 0.9841
2.5345 -2.3597 -1.9993 0.9841
2.6970 -2.1734 -1.9998 0.9841
2.7732 -2.0760 -2.0000 0.9841
2.8458 -1.9759 -2.0002 0.9841
2.9148 -1.8732 -2.0004 0.9841
2.9801 -1.7682 -2.0006 0.9841
3.0991 -1.5513 -2.0009 0.9841
3.2024 -1.3265 -2.0012 0.9841
3.2479 -1.2114 -2.0014 0.9841
3.2892 -1.0948 -2.0015 0.9841
3.3593 -0.8574 -2.0017 0.9841
3.3879 -0.7370 -2.0017 0.9841
3.4121 -0.6156 -2.0018 0.9841
3.4320 -0.4934 -2.0018 0.9841
3.4475 -0.3706 -2.0019 0.9841
3.4585 -0.2474 -2.0019 0.9841
3.4652 -0.1237 -2.0019 0.9841
