ply
format ascii 1.0
element vertex 846
property float32 x
property float32 y
property float32 z
property float32 I
end_header
2.5914 7.7858 0.8811 0.9675
2.2871 7.7892 0.8717 0.9679
1.9904 7.7983 0.8642 0.9681
1.7828 8.1951 0.9006 0.9668
4.0199 8.0307 0.7602 0.9646
3.6811 8.0606 0.7501 0.9651
3.0084 8.0657 0.7287 0.9660
2.6854 8.0682 0.7198 0.9664
2.0605 8.0730 0.7053 0.9671
5.3315 8.2960 0.6115 0.9612
2.0880 8.1808 0.5236 0.9667
2.0332 9.3466 0.5931 0.9624
3.1128 9.3526 0.3887 0.9613
2.3969 9.3911 0.3822 0.9619
2.0386 9.3715 0.3782 0.9623
5.2999 8.2468 0.1656 0.9615
3.1134 9.3543 0.1665 0.9613
2.3969 9.3911 0.1637 0.9620
2.0386 9.3714 0.1620 0.9624
5.3004 8.2476 -0.0552 0.9615
3.1139 9.3559 -0.0555 0.9613
2.7567 9.3883 -0.0551 0.9616
5.3010 8.2485 -0.2761 0.9615
2.7567 9.3883 -0.2755 0.9616
3.1151 9.3592 -0.5002 0.9613
2.7567 9.3883 -0.4962 0.9616
2.3969 9.3911 -0.4915 0.9619
5.3021 8.2502 -0.7191 0.9614
2.7567 9.3883 -0.7174 0.9615
2.3969 9.3911 -0.7106 0.9619
5.4025 2.9500 -0.5909 0.9756
4.9806 2.9551 -0.5560 0.9770
4.3384 3.2476 -0.5203 0.9785
4.2638 3.4360 -0.5257 0.9782
4.2311 3.6663 -0.5375 0.9778
5.3026 8.2510 -0.9416 0.9614
2.7567 9.3883 -0.9394 0.9614
2.3969 9.3911 -0.9305 0.9618
5.6567 2.8315 -0.7514 0.9748
4.8087 2.8531 -0.6642 0.9777
4.5001 2.8921 -0.6354 0.9787
4.2390 2.9432 -0.6130 0.9794
3.9841 3.2106 -0.6078 0.9796
3.8655 3.8655 -0.6494 0.9782
5.3032 8.2519 -1.1652 0.9613
4.6635 2.7670 -0.7683 0.9783
4.0941 2.8426 -0.7062 0.9801
3.7685 3.0368 -0.6857 0.9806
3.5873 3.5873 -0.7188 0.9797
3.6565 8.8275 -1.3538 0.9621
3.2980 8.8422 -1.3372 0.9626
2.9483 8.8583 -1.3228 0.9630
2.2741 8.9099 -1.3029 0.9635
-2.3831 8.1159 -1.1985 0.9664
7.0215 2.6189 -1.2346 0.9701
6.3129 2.6149 -1.1257 0.9727
5.2828 2.6444 -0.9732 0.9763
3.8518 2.8834 -0.7926 0.9807
3.5131 3.0441 -0.7658 0.9813
3.3769 3.3769 -0.7867 0.9808
3.2283 3.7257 -0.8121 0.9802
3.1839 3.9509 -0.8359 0.9796
-2.3780 8.0988 -1.3905 0.9664
6.9564 2.5946 -1.3955 0.9702
5.6898 2.5984 -1.1757 0.9749
4.8038 2.6230 -1.0288 0.9780
4.4519 2.6414 -0.9730 0.9792
3.9051 2.7114 -0.8936 0.9808
3.5018 2.8219 -0.8453 0.9819
3.0492 3.2751 -0.8411 0.9820
2.9694 3.4268 -0.8523 0.9817
3.0041 4.0130 -0.9422 0.9798
5.5490 7.9920 -1.8288 0.9612
4.9685 8.3740 -1.8302 0.9611
4.6683 8.5494 -1.8309 0.9611
4.3620 8.7141 -1.8317 0.9611
4.0499 8.8680 -1.8324 0.9611
3.7323 9.0106 -1.8332 0.9611
3.0827 9.2619 -1.8348 0.9610
2.7513 9.3702 -1.8356 0.9610
2.4162 9.4666 -1.8364 0.9610
2.0327 9.3442 -1.7974 0.9618
0.6986 9.7672 -1.8405 0.9609
0.3497 9.7904 -1.8414 0.9609
-0.3500 9.7994 -1.8431 0.9609
-1.0491 9.7584 -1.8448 0.9608
-1.7442 9.6675 -1.8465 0.9608
-2.3723 8.0793 -1.5827 0.9663
9.3273 0.0000 -1.9716 0.9626
9.3215 0.3329 -1.9716 0.9626
9.2746 0.9971 -1.9718 0.9626
9.2336 1.3276 -1.9719 0.9626
9.1810 1.6564 -1.9720 0.9626
9.0411 2.3076 -1.9724 0.9626
8.9540 2.6291 -1.9726 0.9626
8.8555 2.9474 -1.9728 0.9626
6.9600 2.5960 -1.5702 0.9701
5.6649 2.5870 -1.3164 0.9749
5.1849 2.5954 -1.2256 0.9766
4.7796 2.6099 -1.1511 0.9780
4.4263 2.6263 -1.0879 0.9792
4.0937 2.6308 -1.0286 0.9803
3.8252 2.6559 -0.9843 0.9811
3.6216 2.7111 -0.9563 0.9817
3.4147 2.7517 -0.9270 0.9822
3.2517 2.8176 -0.9095 0.9826
3.1092 2.8948 -0.8980 0.9828
3.0098 3.0098 -0.8998 0.9827
2.9704 3.1904 -0.9214 0.9823
2.9420 3.3952 -0.9496 0.9818
2.9330 3.6396 -0.9881 0.9811
5.3268 7.6721 -1.9743 0.9625
4.9509 7.7038 -1.9357 0.9633
4.5756 7.7118 -1.8955 0.9640
4.2149 7.7190 -1.8590 0.9647
2.1492 8.4206 -1.8370 0.9651
1.5443 8.5592 -1.8385 0.9651
1.2383 8.6124 -1.8392 0.9651
0.6212 8.6859 -1.8407 0.9650
0.3109 8.7060 -1.8415 0.9650
-0.9327 8.6758 -1.8445 0.9650
-1.2423 8.6405 -1.8452 0.9649
-1.5506 8.5941 -1.8460 0.9649
-2.7622 8.2991 -1.8489 0.9649
-3.0578 8.1983 -1.8496 0.9649
-3.3498 8.0870 -1.8503 0.9648
-6.2252 7.1843 -2.0094 0.9619
-6.4796 6.9596 -2.0100 0.9619
-7.6227 5.7063 -2.0127 0.9618
-7.8234 5.4319 -2.0132 0.9618
-8.0141 5.1503 -2.0137 0.9618
-8.1945 4.8620 -2.0141 0.9618
-8.5238 4.2667 -2.0149 0.9618
-8.8094 3.6489 -2.0156 0.9618
-8.9353 3.3327 -2.0159 0.9618
-9.3228 2.0281 -2.0167 0.9617
-9.5186 0.6808 -2.0172 0.9617
8.2666 1.4915 -1.9742 0.9661
8.1405 2.0777 -1.9745 0.9661
8.0620 2.3672 -1.9747 0.9661
7.9732 2.6537 -1.9750 0.9661
6.9590 2.5956 -1.7456 0.9699
5.6837 2.5956 -1.4685 0.9747
5.1633 2.5846 -1.3570 0.9766
4.4003 2.6108 -1.2025 0.9792
4.0547 2.6058 -1.1328 0.9804
3.7826 2.6263 -1.0823 0.9813
3.5626 2.6669 -1.0459 0.9819
3.3432 2.6941 -1.0091 0.9825
3.2121 2.7833 -0.9989 0.9827
2.9893 2.9893 -0.9936 0.9828
2.9478 3.1661 -1.0167 0.9824
2.9017 3.6008 -1.0869 0.9812
4.8114 6.9297 -1.9827 0.9659
3.4979 7.6593 -1.9790 0.9660
2.8746 7.7070 -1.9332 0.9668
2.5667 7.7117 -1.9102 0.9672
2.2656 7.7158 -1.8900 0.9675
1.9703 7.7195 -1.8724 0.9678
1.6800 7.7226 -1.8574 0.9680
1.1139 7.7472 -1.8395 0.9684
0.0000 7.8383 -1.8422 0.9683
-0.2799 7.8362 -1.8429 0.9683
-1.1171 7.7699 -1.8449 0.9683
-1.3953 7.7337 -1.8469 0.9682
-1.9716 7.7244 -1.8736 0.9678
-2.2673 7.7215 -1.8914 0.9675
-4.0795 7.4710 -2.0006 0.9656
-4.6134 7.1786 -2.0055 0.9655
-5.1169 6.8353 -2.0067 0.9655
-5.8231 6.2545 -2.0084 0.9655
-6.6606 5.3674 -2.0104 0.9655
-6.8494 5.1274 -2.0109 0.9655
-7.3627 4.3685 -2.0121 0.9654
-7.5153 4.1037 -2.0124 0.9654
-7.7915 3.5582 -2.0131 0.9654
-8.3044 2.1195 -2.0143 0.9654
-8.4357 1.5220 -2.0146 0.9654
-8.4851 1.2200 -2.0147 0.9654
-8.5511 0.6116 -2.0148 0.9654
-8.5676 0.3060 -2.0149 0.9654
7.5874 0.8157 -1.9758 0.9690
7.5538 1.0861 -1.9759 0.9690
7.4580 1.6224 -1.9762 0.9690
7.3960 1.8877 -1.9763 0.9690
7.2439 2.4110 -1.9767 0.9689
6.4713 2.6805 -1.8136 0.9715
5.1696 2.5877 -1.4968 0.9764
4.7415 2.5890 -1.3988 0.9779
4.3680 2.5917 -1.3150 0.9792
3.5328 2.6446 -1.1426 0.9819
3.1837 2.7587 -1.0907 0.9827
3.0450 2.8350 -1.0772 0.9830
2.9252 3.1419 -1.1115 0.9824
4.3697 6.2935 -1.9838 0.9688
4.1434 6.4473 -1.9843 0.9688
3.9118 6.5929 -1.9849 0.9688
3.4335 6.8592 -1.9861 0.9688
3.1875 6.9795 -1.9867 0.9688
2.9372 7.0910 -1.9873 0.9688
2.4246 7.2848 -1.9879 0.9688
2.1623 7.3641 -1.9872 0.9688
1.6307 7.4961 -1.9863 0.9688
1.3619 7.5486 -1.9860 0.9688
0.8199 7.6265 -1.9860 0.9688
0.5473 7.6518 -1.9863 0.9688
0.2739 7.6680 -1.9866 0.9688
-0.5480 7.6614 -1.9888 0.9688
-0.8215 7.6409 -1.9898 0.9687
-1.0943 7.6112 -1.9909 0.9687
-1.3662 7.5723 -1.9923 0.9687
-1.6368 7.5242 -1.9937 0.9687
-2.1731 7.4009 -1.9971 0.9686
-2.4382 7.3256 -1.9990 0.9686
-2.7006 7.2406 -2.0009 0.9686
-2.9583 7.1418 -2.0015 0.9686
-3.7081 6.7908 -2.0033 0.9685
-3.9492 6.6561 -2.0039 0.9685
-4.1855 6.5127 -2.0045 0.9685
-5.0751 5.8570 -2.0066 0.9685
-5.6762 5.2847 -2.0080 0.9685
-6.0413 4.8684 -2.0089 0.9684
-6.2125 4.6506 -2.0093 0.9684
-6.3758 4.4268 -2.0097 0.9684
-7.0662 3.2270 -2.0113 0.9684
-7.3733 2.4541 -2.0120 0.9684
-7.4569 2.1896 -2.0122 0.9684
-7.5954 1.6522 -2.0126 0.9684
-7.7296 0.8310 -2.0129 0.9684
-7.7545 0.5546 -2.0129 0.9684
6.9845 0.0000 -1.9773 0.9714
6.9802 0.2493 -1.9773 0.9714
6.9669 0.4983 -1.9773 0.9714
6.9449 0.7466 -1.9774 0.9714
6.9142 0.9941 -1.9775 0.9714
6.8746 1.2403 -1.9776 0.9714
6.8264 1.4850 -1.9777 0.9714
6.6302 2.2067 -1.9782 0.9714
6.5479 2.4422 -1.9784 0.9714
6.3585 2.9038 -1.9789 0.9714
4.3566 2.5848 -1.4341 0.9792
4.0411 2.5971 -1.3599 0.9802
2.9529 2.9529 -1.1822 0.9828
2.8680 3.3098 -1.2398 0.9820
2.8616 3.5510 -1.2910 0.9812
2.8830 3.8512 -1.3619 0.9802
3.7912 5.8992 -1.9852 0.9713
2.9162 6.3855 -1.9873 0.9712
2.6872 6.4874 -1.9878 0.9712
2.2188 6.6664 -1.9890 0.9712
1.7386 6.8116 -1.9902 0.9712
1.4948 6.8714 -1.9907 0.9712
1.2490 6.9224 -1.9913 0.9712
1.0014 6.9647 -1.9919 0.9712
0.7524 6.9981 -1.9925 0.9712
0.5023 7.0227 -1.9931 0.9712
-0.2515 7.0425 -1.9950 0.9711
-0.7538 7.0109 -1.9962 0.9711
-1.0038 6.9817 -1.9968 0.9711
-1.2527 6.9435 -1.9974 0.9711
-1.7459 6.8405 -1.9986 0.9711
-1.9896 6.7758 -1.9992 0.9711
-2.2308 6.7024 -1.9997 0.9711
-2.7048 6.5299 -2.0009 0.9710
-2.9369 6.4310 -2.0014 0.9710
-3.1655 6.3238 -2.0020 0.9710
-3.3901 6.2085 -2.0025 0.9710
-3.8264 5.9539 -2.0036 0.9710
-4.0375 5.8150 -2.0041 0.9710
-4.2435 5.6686 -2.0046 0.9710
-4.6392 5.3540 -2.0055 0.9710
-4.8285 5.1861 -2.0060 0.9710
-5.1884 4.8305 -2.0068 0.9710
-5.6783 4.2507 -2.0080 0.9709
-5.8274 4.0460 -2.0084 0.9709
-6.3478 3.1775 -2.0096 0.9709
-6.4580 2.9493 -2.0099 0.9709
-6.5600 2.7172 -2.0101 0.9709
-6.8825 1.7566 -2.0108 0.9709
-6.9413 1.5100 -2.0110 0.9709
-7.0320 1.0110 -2.0112 0.9709
-7.1003 0.2536 -2.0113 0.9709
6.4329 -0.0000 -1.9786 0.9734
6.4288 0.2296 -1.9786 0.9734
6.4166 0.4589 -1.9787 0.9734
6.3680 0.9155 -1.9788 0.9734
6.2347 1.5913 -1.9791 0.9734
6.1744 1.8129 -1.9793 0.9734
6.1063 2.0323 -1.9795 0.9734
5.7574 2.8819 -1.9803 0.9734
4.3543 2.5835 -1.5573 0.9790
3.4829 2.6073 -1.3382 0.9820
3.0135 2.8056 -1.2664 0.9829
2.9453 2.9453 -1.2811 0.9827
2.8628 3.3038 -1.3446 0.9819
2.8603 3.5495 -1.4021 0.9811
2.8959 3.8684 -1.4863 0.9800
3.6814 5.3022 -1.9854 0.9733
3.4906 5.4315 -1.9859 0.9733
3.2953 5.5540 -1.9864 0.9733
3.0958 5.6695 -1.9868 0.9733
2.6848 5.8788 -1.9878 0.9733
2.4739 5.9724 -1.9883 0.9733
2.0426 6.1369 -1.9894 0.9733
1.8227 6.2076 -1.9899 0.9733
1.1497 6.3721 -1.9916 0.9733
0.9217 6.4108 -1.9921 0.9733
0.6925 6.4415 -1.9927 0.9733
0.4623 6.4639 -1.9932 0.9732
0.0000 6.4840 -1.9943 0.9732
-0.2315 6.4817 -1.9949 0.9732
-0.4628 6.4711 -1.9955 0.9732
-0.9238 6.4252 -1.9966 0.9732
-1.1529 6.3899 -1.9971 0.9732
-1.3806 6.3464 -1.9977 0.9732
-1.6067 6.2948 -1.9982 0.9732
-1.8308 6.2351 -1.9988 0.9732
-2.0527 6.1675 -1.9993 0.9732
-2.4888 6.0085 -2.0003 0.9732
-2.7024 5.9173 -2.0009 0.9731
-2.9126 5.8186 -2.0014 0.9731
-3.1192 5.7123 -2.0019 0.9731
-3.3219 5.5987 -2.0023 0.9731
-3.7146 5.3500 -2.0033 0.9731
-4.0886 5.0736 -2.0042 0.9731
-4.2680 4.9255 -2.0046 0.9731
-4.6104 4.6104 -2.0054 0.9731
-4.9294 4.2713 -2.0062 0.9731
-5.3605 3.7218 -2.0072 0.9731
-5.4908 3.5287 -2.0075 0.9731
-5.6140 3.3309 -2.0078 0.9731
-5.7301 3.1289 -2.0081 0.9730
-6.0339 2.4993 -2.0088 0.9730
-6.2682 1.8405 -2.0094 0.9730
-6.3844 1.3888 -2.0096 0.9730
-6.4302 1.1601 -2.0097 0.9730
-6.5180 0.4662 -2.0099 0.9730
-6.5306 0.2332 -2.0099 0.9730
5.9559 -0.0000 -1.9798 0.9752
5.9408 0.4249 -1.9798 0.9752
5.8957 0.8477 -1.9799 0.9752
5.8620 1.0576 -1.9800 0.9752
5.7723 1.4733 -1.9802 0.9752
5.6533 1.8816 -1.9805 0.9752
5.5057 2.2805 -1.9809 0.9752
5.4214 2.4758 -1.9811 0.9752
5.2322 2.8570 -1.9816 0.9752
4.3541 2.5834 -1.6829 0.9789
4.0446 2.5993 -1.5981 0.9799
2.9431 2.9431 -1.3835 0.9826
2.8675 3.3093 -1.4555 0.9817
2.8647 3.5549 -1.5176 0.9809
3.5798 4.7821 -1.9856 0.9751
3.4076 4.9078 -1.9861 0.9751
3.2309 5.0274 -1.9865 0.9751
2.8653 5.2474 -1.9874 0.9751
2.4848 5.4410 -1.9883 0.9751
2.0914 5.6071 -1.9893 0.9751
1.8904 5.6796 -1.9898 0.9751
1.4811 5.8028 -1.9907 0.9751
1.0639 5.8967 -1.9918 0.9751
0.8530 5.9325 -1.9923 0.9751
0.6408 5.9607 -1.9928 0.9750
0.0000 5.9997 -1.9943 0.9750
-0.2142 5.9974 -1.9948 0.9750
-0.4282 5.9875 -1.9954 0.9750
-1.0666 5.9120 -1.9969 0.9750
-1.4864 5.8238 -1.9979 0.9750
-1.6938 5.7685 -1.9984 0.9750
-1.8990 5.7057 -1.9989 0.9750
-2.1020 5.6357 -1.9994 0.9750
-2.6943 5.3825 -2.0008 0.9749
-2.8854 5.2841 -2.0013 0.9749
-3.0728 5.1790 -2.0017 0.9749
-3.2564 5.0671 -2.0022 0.9749
-3.4360 4.9487 -2.0026 0.9749
-3.7818 4.6929 -2.0034 0.9749
-4.1086 4.4129 -2.0042 0.9749
-4.8310 3.6164 -2.0059 0.9749
-5.1921 3.0806 -2.0068 0.9749
-5.4936 2.5088 -2.0075 0.9749
-5.5802 2.3114 -2.0077 0.9749
-5.7319 1.9077 -2.0081 0.9749
-5.7967 1.7021 -2.0082 0.9749
-5.8542 1.4942 -2.0084 0.9749
-5.9812 0.8600 -2.0086 0.9749
-6.0276 0.4311 -2.0087 0.9748
5.5389 -0.0000 -1.9808 0.9767
5.5355 0.1977 -1.9808 0.9767
5.5250 0.3951 -1.9808 0.9767
5.4830 0.7883 -1.9809 0.9767
5.4133 1.1776 -1.9811 0.9767
5.3681 1.3701 -1.9812 0.9767
5.3161 1.5610 -1.9814 0.9767
5.2574 1.7498 -1.9815 0.9767
5.1921 1.9365 -1.9817 0.9767
5.0416 2.3024 -1.9820 0.9767
4.7683 2.8291 -1.9827 0.9767
4.0441 2.5990 -1.7191 0.9798
3.7446 2.5999 -1.6302 0.9808
3.4683 2.5963 -1.5493 0.9818
3.2871 2.6489 -1.5097 0.9822
3.1471 2.7269 -1.4891 0.9825
3.0203 2.8120 -1.4758 0.9826
2.9485 2.9485 -1.4912 0.9824
3.6359 4.1960 -1.9855 0.9767
3.3285 4.4464 -1.9862 0.9767
2.8359 4.7796 -1.9874 0.9767
2.6640 4.8788 -1.9879 0.9767
2.4887 4.9719 -1.9883 0.9767
2.3102 5.0586 -1.9887 0.9767
2.1286 5.1390 -1.9892 0.9766
1.9443 5.2129 -1.9896 0.9766
1.7574 5.2801 -1.9901 0.9766
1.5682 5.3407 -1.9905 0.9766
1.1837 5.4415 -1.9915 0.9766
0.9890 5.4816 -1.9919 0.9766
0.5957 5.5409 -1.9929 0.9766
0.3977 5.5599 -1.9934 0.9766
0.0000 5.5768 -1.9943 0.9766
-0.3980 5.5653 -1.9953 0.9766
-0.5966 5.5489 -1.9958 0.9766
-0.7944 5.5254 -1.9962 0.9766
-0.9914 5.4948 -1.9967 0.9766
-1.1871 5.4572 -1.9972 0.9766
-1.3815 5.4126 -1.9977 0.9765
-1.5742 5.3611 -1.9981 0.9765
-1.9535 5.2376 -1.9990 0.9765
-2.1397 5.1657 -1.9995 0.9765
-2.5038 5.0020 -2.0004 0.9765
-2.8555 4.8127 -2.0012 0.9765
-3.0261 4.7087 -2.0016 0.9765
-3.1929 4.5986 -2.0020 0.9765
-3.3556 4.4826 -2.0024 0.9765
-3.6682 4.2333 -2.0031 0.9765
-3.9623 3.9622 -2.0038 0.9765
-4.1018 3.8189 -2.0042 0.9765
-4.3652 3.5177 -2.0048 0.9765
-4.7182 3.0322 -2.0056 0.9765
-5.0171 2.5113 -2.0064 0.9764
-5.4389 1.3882 -2.0073 0.9764
-5.4853 1.1932 -2.0074 0.9764
-5.5246 0.9967 -2.0075 0.9764
-5.5569 0.7989 -2.0076 0.9764
-5.5820 0.6001 -2.0077 0.9764
-5.6000 0.4005 -2.0077 0.9764
-5.6108 0.2004 -2.0077 0.9764
5.1711 -0.0000 -1.9817 0.9781
5.1678 0.1845 -1.9817 0.9781
5.1417 0.5528 -1.9817 0.9781
5.1188 0.7360 -1.9818 0.9781
5.0895 0.9182 -1.9819 0.9781
5.0537 1.0994 -1.9820 0.9781
5.0115 1.2791 -1.9821 0.9781
4.9630 1.4572 -1.9822 0.9781
4.8471 1.8079 -1.9825 0.9781
4.7066 2.1494 -1.9828 0.9781
4.6273 2.3163 -1.9830 0.9781
4.5422 2.4802 -1.9832 0.9781
4.4513 2.6411 -1.9835 0.9781
4.0422 2.5978 -1.8414 0.9796
3.4648 2.5937 -1.6586 0.9816
3.2928 2.6535 -1.6206 0.9820
3.1502 2.7296 -1.5974 0.9823
3.7913 3.5298 -1.9851 0.9781
3.6634 3.6634 -1.9854 0.9781
3.5309 3.7925 -1.9857 0.9780
3.3939 3.9167 -1.9861 0.9780
3.2525 4.0361 -1.9864 0.9780
3.1069 4.1503 -1.9868 0.9780
2.9573 4.2594 -1.9871 0.9780
2.8040 4.3630 -1.9875 0.9780
2.4865 4.5537 -1.9883 0.9780
2.1562 4.7214 -1.9891 0.9780
1.9867 4.7963 -1.9895 0.9780
1.8146 4.8652 -1.9899 0.9780
1.6402 4.9279 -1.9903 0.9780
1.4636 4.9844 -1.9908 0.9780
1.2850 5.0346 -1.9912 0.9780
1.1047 5.0783 -1.9916 0.9780
0.9230 5.1157 -1.9921 0.9780
0.7400 5.1465 -1.9925 0.9780
0.1857 5.1996 -1.9939 0.9780
-0.0000 5.2041 -1.9943 0.9780
-0.3714 5.1932 -1.9952 0.9779
-0.9250 5.1271 -1.9965 0.9779
-1.4688 5.0022 -1.9979 0.9779
-1.8227 4.8867 -1.9987 0.9779
-1.9963 4.8196 -1.9991 0.9779
-2.1675 4.7462 -1.9995 0.9779
-2.6640 4.4900 -2.0007 0.9779
-3.2783 4.0682 -2.0022 0.9779
-3.4220 3.9492 -2.0025 0.9779
-3.5614 3.8252 -2.0029 0.9779
-3.8264 3.5625 -2.0035 0.9779
-3.9517 3.4242 -2.0038 0.9779
-4.0720 3.2814 -2.0041 0.9778
-4.4012 2.8284 -2.0049 0.9778
-4.9047 1.8294 -2.0061 0.9778
-4.9673 1.6532 -2.0062 0.9778
-5.0234 1.4750 -2.0063 0.9778
-5.1832 0.7452 -2.0067 0.9778
-5.2233 0.3736 -2.0068 0.9778
-5.2334 0.1869 -2.0068 0.9778
4.8438 0.0000 -1.9824 0.9793
4.8408 0.1729 -1.9825 0.9793
4.8162 0.5178 -1.9825 0.9793
4.6488 1.3650 -1.9830 0.9793
4.5974 1.5302 -1.9831 0.9793
4.4085 2.0133 -1.9836 0.9793
4.2545 2.3231 -1.9839 0.9793
3.7767 3.0434 -1.9851 0.9793
3.5509 3.3060 -1.9857 0.9792
3.4312 3.4311 -1.9860 0.9792
2.9098 3.8870 -1.9872 0.9792
2.7697 3.9891 -1.9876 0.9792
2.6260 4.0861 -1.9879 0.9792
2.0193 4.4215 -1.9894 0.9792
1.8605 4.4916 -1.9898 0.9792
1.6993 4.5561 -1.9902 0.9792
1.3705 4.6676 -1.9910 0.9792
1.2033 4.7145 -1.9914 0.9792
0.8643 4.7903 -1.9922 0.9792
0.6929 4.8191 -1.9926 0.9792
-0.0000 4.8727 -1.9943 0.9792
-0.1740 4.8707 -1.9947 0.9792
-0.3478 4.8624 -1.9951 0.9792
-0.5212 4.8479 -1.9956 0.9791
-0.6940 4.8272 -1.9960 0.9791
-0.8661 4.8004 -1.9964 0.9791
-1.0371 4.7674 -1.9968 0.9791
-1.5417 4.6320 -1.9980 0.9791
-1.8689 4.5120 -1.9988 0.9791
-2.0292 4.4433 -1.9992 0.9791
-2.1869 4.3688 -1.9996 0.9791
-2.3419 4.2888 -1.9999 0.9791
-2.4939 4.2033 -2.0003 0.9791
-2.6428 4.1123 -2.0007 0.9791
-2.7884 4.0161 -2.0010 0.9791
-2.9305 3.9146 -2.0014 0.9791
-3.2033 3.6968 -2.0020 0.9791
-3.4599 3.4599 -2.0026 0.9791
-3.5818 3.3347 -2.0029 0.9791
-3.6990 3.2052 -2.0032 0.9791
-3.8116 3.0715 -2.0035 0.9791
-4.0220 2.7925 -2.0040 0.9791
-4.2119 2.4990 -2.0044 0.9791
-4.2988 2.3473 -2.0046 0.9791
-4.3803 2.1926 -2.0048 0.9791
-4.4562 2.0350 -2.0050 0.9790
-4.5907 1.7122 -2.0053 0.9790
-4.6492 1.5474 -2.0054 0.9790
-4.7483 1.2119 -2.0057 0.9790
-4.8888 0.3496 -2.0060 0.9790
4.5504 -0.0000 -1.9832 0.9803
4.5245 0.4864 -1.9832 0.9803
4.4471 0.9674 -1.9834 0.9803
4.4099 1.1255 -1.9835 0.9803
4.3672 1.2823 -1.9836 0.9803
4.3189 1.4375 -1.9838 0.9803
4.2651 1.5908 -1.9839 0.9803
4.2059 1.7421 -1.9840 0.9803
4.1414 1.8913 -1.9842 0.9803
4.0716 2.0381 -1.9844 0.9803
3.9966 2.1823 -1.9846 0.9803
3.9166 2.3238 -1.9848 0.9803
3.6470 2.7301 -1.9854 0.9803
3.3355 3.1055 -1.9862 0.9803
3.1064 3.3364 -1.9867 0.9803
2.9857 3.4457 -1.9870 0.9803
2.6015 3.7469 -1.9880 0.9803
2.4665 3.8380 -1.9883 0.9803
1.8965 4.1529 -1.9897 0.9803
1.7474 4.2187 -1.9901 0.9803
1.4426 4.3342 -1.9908 0.9803
1.1301 4.4278 -1.9916 0.9803
0.9716 4.4661 -1.9919 0.9803
0.1633 4.5721 -1.9939 0.9802
-0.4894 4.5524 -1.9955 0.9802
-0.6517 4.5330 -1.9959 0.9802
-0.9738 4.4767 -1.9966 0.9802
-1.6022 4.2958 -1.9982 0.9802
-1.7549 4.2366 -1.9985 0.9802
-2.3416 3.9465 -1.9999 0.9802
-2.4814 3.8611 -2.0003 0.9802
-3.0075 3.4708 -2.0015 0.9802
-3.2484 3.2484 -2.0021 0.9802
-3.3627 3.1308 -2.0024 0.9802
-3.7759 2.6217 -2.0034 0.9801
-4.1834 1.9105 -2.0043 0.9801
-1.5118 0.5639 -0.7032 0.9930
-1.4401 0.4793 -0.6615 0.9934
-1.3400 0.3420 -0.6027 0.9940
-1.3688 0.2978 -0.6105 0.9939
-1.3955 0.2518 -0.6180 0.9938
-1.4490 0.1036 -0.6331 0.9937
4.2613 0.4581 -1.9839 0.9813
4.0676 1.3538 -1.9844 0.9813
3.9611 1.6407 -1.9846 0.9813
3.6886 2.1885 -1.9853 0.9813
3.6085 2.3190 -1.9855 0.9813
3.2432 2.8102 -1.9864 0.9813
3.1412 2.9246 -1.9866 0.9813
3.0352 3.0352 -1.9869 0.9813
2.4498 3.5284 -1.9883 0.9812
2.1926 3.6954 -1.9890 0.9812
1.7859 3.9105 -1.9900 0.9812
1.5029 4.0293 -1.9906 0.9812
1.3583 4.0812 -1.9910 0.9812
1.2120 4.1278 -1.9913 0.9812
0.6127 4.2613 -1.9928 0.9812
0.4603 4.2813 -1.9932 0.9812
0.3072 4.2958 -1.9935 0.9812
0.1538 4.3048 -1.9939 0.9812
0.0000 4.3084 -1.9943 0.9812
-0.9168 4.2146 -1.9965 0.9812
-1.6520 3.9884 -1.9983 0.9812
-1.9330 3.8616 -1.9989 0.9811
-2.0699 3.7908 -1.9993 0.9811
-2.3359 3.6347 -1.9999 0.9811
-2.4645 3.5495 -2.0002 0.9811
-2.5900 3.4598 -2.0005 0.9811
-2.8310 3.2672 -2.0011 0.9811
-3.1653 2.9470 -2.0019 0.9811
-3.3683 2.7143 -2.0024 0.9811
-3.6403 2.3395 -2.0030 0.9811
-3.7987 2.0742 -2.0034 0.9811
-3.8706 1.9375 -2.0036 0.9811
-1.2345 0.5113 -0.6185 0.9941
-1.2017 0.4482 -0.5937 0.9944
-1.1536 0.3840 -0.5628 0.9947
-1.1330 0.3327 -0.5466 0.9948
-1.1575 0.2954 -0.5529 0.9947
-1.2261 0.1318 -0.5708 0.9946
-1.2362 0.0884 -0.5737 0.9946
4.0224 0.4324 -1.9844 0.9821
3.9535 0.8600 -1.9846 0.9821
3.9204 1.0006 -1.9847 0.9821
3.8824 1.1400 -1.9848 0.9821
3.7916 1.4142 -1.9850 0.9821
3.6816 1.6813 -1.9853 0.9821
3.6195 1.8118 -1.9855 0.9821
3.5528 1.9400 -1.9856 0.9821
3.4060 2.1889 -1.9860 0.9821
3.2418 2.4268 -1.9864 0.9821
2.9648 2.7604 -1.9871 0.9821
2.8648 2.8648 -1.9873 0.9821
2.7611 2.9656 -1.9876 0.9821
2.6538 3.0626 -1.9878 0.9821
2.5431 3.1558 -1.9881 0.9821
2.4292 3.2451 -1.9884 0.9821
2.1922 3.4111 -1.9890 0.9821
1.9438 3.5599 -1.9896 0.9821
1.6854 3.6906 -1.9902 0.9821
1.2819 3.8515 -1.9912 0.9821
1.1438 3.8955 -1.9915 0.9821
1.0042 3.9345 -1.9918 0.9821
0.7212 3.9975 -1.9925 0.9821
0.5782 4.0214 -1.9929 0.9821
0.4344 4.0402 -1.9932 0.9821
0.2899 4.0538 -1.9936 0.9821
0.1451 4.0623 -1.9939 0.9821
0.0000 4.0656 -1.9943 0.9820
-0.4348 4.0444 -1.9953 0.9820
-0.8651 3.9768 -1.9964 0.9820
-1.0067 3.9441 -1.9967 0.9820
-1.1470 3.9063 -1.9970 0.9820
-1.2859 3.8635 -1.9974 0.9820
-1.5588 3.7632 -1.9980 0.9820
-1.8238 3.6436 -1.9987 0.9820
-1.9530 3.5767 -1.9990 0.9820
-2.0798 3.5053 -1.9993 0.9820
-2.2039 3.4293 -1.9996 0.9820
-2.3252 3.3489 -1.9999 0.9820
-2.6710 3.0825 -2.0007 0.9820
-2.9863 2.7803 -2.0015 0.9820
-3.0840 2.6723 -2.0017 0.9820
-3.1778 2.5608 -2.0019 0.9820
-3.2675 2.4460 -2.0021 0.9820
-3.5113 2.0833 -2.0027 0.9820
-1.0518 0.1897 -0.5242 0.9952
-1.0611 0.1526 -0.5258 0.9952
-1.0705 0.1151 -0.5281 0.9952
-1.0769 0.0770 -0.5296 0.9952
-1.0803 0.0386 -0.5302 0.9952
3.8237 0.1366 -1.9849 0.9829
3.8043 0.4090 -1.9850 0.9829
3.7874 0.5445 -1.9850 0.9829
3.7391 0.8134 -1.9851 0.9829
3.7078 0.9464 -1.9852 0.9829
3.6719 1.0781 -1.9853 0.9829
3.6312 1.2086 -1.9854 0.9829
3.5860 1.3375 -1.9855 0.9829
3.3601 1.8347 -1.9861 0.9829
3.2212 2.0701 -1.9864 0.9829
3.1456 2.1840 -1.9866 0.9829
2.9823 2.4033 -1.9870 0.9829
2.8950 2.5085 -1.9872 0.9829
2.8039 2.6105 -1.9875 0.9829
2.7093 2.7093 -1.9877 0.9829
2.5097 2.8963 -1.9882 0.9829
2.4050 2.9845 -1.9884 0.9829
2.2973 3.0688 -1.9887 0.9829
1.7171 3.4304 -1.9901 0.9829
1.5938 3.4900 -1.9904 0.9829
1.4685 3.5452 -1.9907 0.9829
1.3412 3.5959 -1.9910 0.9829
1.2122 3.6420 -1.9913 0.9829
0.9496 3.7204 -1.9920 0.9828
0.8163 3.7526 -1.9923 0.9828
0.6820 3.7799 -1.9926 0.9828
0.4107 3.8202 -1.9933 0.9828
0.2742 3.8331 -1.9936 0.9828
0.1372 3.8411 -1.9939 0.9828
0.0000 3.8441 -1.9943 0.9828
-0.2743 3.8356 -1.9949 0.9828
-0.4111 3.8240 -1.9953 0.9828
-0.6831 3.7862 -1.9959 0.9828
-1.2158 3.6528 -1.9972 0.9828
-1.6000 3.5035 -1.9981 0.9828
-1.8464 3.3814 -1.9987 0.9828
-1.9662 3.3139 -1.9990 0.9828
-2.1982 3.1660 -1.9996 0.9828
-2.3101 3.0860 -1.9998 0.9828
-2.4191 3.0019 -2.0001 0.9828
-2.6278 2.8224 -2.0006 0.9828
-2.7272 2.7271 -2.0008 0.9828
-2.8231 2.6284 -2.0011 0.9828
-3.0041 2.4208 -2.0015 0.9828
-3.0889 2.3123 -2.0017 0.9828
-0.9416 0.4713 -0.5463 0.9953
-0.9271 0.3840 -0.5206 0.9955
-0.9208 0.3434 -0.5098 0.9956
-0.9404 0.2761 -0.5085 0.9956
-0.9524 0.2431 -0.5099 0.9956
-0.9873 0.0706 -0.5135 0.9955
-0.9893 0.0353 -0.5135 0.9955
3.6249 -0.0000 -1.9854 0.9836
3.6158 0.2586 -1.9854 0.9836
3.6043 0.3875 -1.9855 0.9836
3.5676 0.6437 -1.9856 0.9836
3.5425 0.7706 -1.9856 0.9836
3.4788 1.0215 -1.9858 0.9836
3.4403 1.1450 -1.9859 0.9836
3.3974 1.2671 -1.9860 0.9836
3.2987 1.5065 -1.9862 0.9836
3.2431 1.6234 -1.9864 0.9836
3.0517 1.9612 -1.9868 0.9836
2.9800 2.0691 -1.9870 0.9836
2.7426 2.3764 -1.9876 0.9836
2.5666 2.5666 -1.9880 0.9836
2.3775 2.7438 -1.9885 0.9836
2.2784 2.8273 -1.9887 0.9836
2.1763 2.9072 -1.9890 0.9836
2.0714 2.9833 -1.9892 0.9836
1.9638 3.0558 -1.9895 0.9836
1.8538 3.1244 -1.9898 0.9836
1.7413 3.1890 -1.9900 0.9836
1.6266 3.2496 -1.9903 0.9836
1.3910 3.3583 -1.9909 0.9836
1.2705 3.4063 -1.9912 0.9836
1.1483 3.4500 -1.9915 0.9836
1.0246 3.4893 -1.9918 0.9836
0.8995 3.5242 -1.9921 0.9835
0.6460 3.5805 -1.9927 0.9835
0.2597 3.6307 -1.9936 0.9835
0.1300 3.6382 -1.9939 0.9835
-0.2598 3.6330 -1.9949 0.9835
-0.7747 3.5612 -1.9961 0.9835
-0.9015 3.5319 -1.9964 0.9835
-1.0271 3.4980 -1.9967 0.9835
-1.1515 3.4596 -1.9970 0.9835
-1.5153 3.3181 -1.9979 0.9835
-1.7487 3.2025 -1.9985 0.9835
-1.8621 3.1385 -1.9987 0.9835
-1.9732 3.0704 -1.9990 0.9835
-2.0819 2.9984 -1.9993 0.9835
-2.1878 2.9226 -1.9995 0.9835
-2.2910 2.8430 -1.9998 0.9835
-2.3913 2.7597 -2.0000 0.9835
-2.5827 2.5827 -2.0005 0.9835
-2.6735 2.4891 -2.0007 0.9835
-2.9251 2.1897 -2.0013 0.9835
-3.0017 2.0841 -2.0015 0.9835
-3.0745 1.9758 -2.0016 0.9835
-0.8516 0.4262 -0.5216 0.9957
-0.8506 0.3884 -0.5122 0.9957
-0.8465 0.3157 -0.4948 0.9959
-0.8603 0.2863 -0.4966 0.9959
-0.8727 0.2562 -0.4982 0.9959
-0.8837 0.2255 -0.4995 0.9958
-0.9077 0.1305 -0.5022 0.9958
-0.9127 0.0981 -0.5028 0.9958
-0.9179 0.0328 -0.5031 0.9958
3.4396 -0.0000 -1.9858 0.9842
3.4309 0.2454 -1.9859 0.9842
3.4200 0.3677 -1.9859 0.9842
3.3332 0.8507 -1.9861 0.9842
3.2643 1.0864 -1.9863 0.9842
3.2236 1.2023 -1.9864 0.9842
3.1788 1.3167 -1.9865 0.9842
3.1300 1.4294 -1.9866 0.9842
2.9599 1.7562 -1.9871 0.9842
2.8956 1.8608 -1.9872 0.9842
2.7559 2.0630 -1.9876 0.9842
2.6808 2.1603 -1.9877 0.9842
2.5203 2.3465 -1.9881 0.9842
2.4352 2.4352 -1.9883 0.9842
2.3470 2.5208 -1.9886 0.9842
2.1617 2.6825 -1.9890 0.9842
2.0648 2.7582 -1.9892 0.9842
1.7588 2.9643 -1.9900 0.9842
1.6521 3.0255 -1.9903 0.9842
1.4324 3.1365 -1.9908 0.9842
1.3197 3.1861 -1.9911 0.9842
1.2053 3.2316 -1.9913 0.9842
1.0894 3.2731 -1.9916 0.9842
0.8533 3.3434 -1.9922 0.9842
0.7336 3.3722 -1.9925 0.9842
0.6129 3.3967 -1.9928 0.9842
0.4913 3.4169 -1.9931 0.9842
0.3691 3.4328 -1.9934 0.9842
0.1233 3.4514 -1.9940 0.9842
-0.1233 3.4525 -1.9946 0.9842
-0.3694 3.4359 -1.9951 0.9842
-0.4919 3.4210 -1.9954 0.9842
-0.6138 3.4018 -1.9957 0.9842
-0.9743 3.3181 -1.9966 0.9842
-1.2089 3.2411 -1.9972 0.9841
-1.3240 3.1963 -1.9974 0.9841
-1.4374 3.1475 -1.9977 0.9841
-1.5490 3.0946 -1.9980 0.9841
-1.7663 2.9770 -1.9985 0.9841
-1.8717 2.9124 -1.9988 0.9841
-2.3604 2.5352 -1.9999 0.9841
-2.5358 2.3609 -2.0004 0.9841
-2.6983 2.1744 -2.0007 0.9841
-2.7744 2.0769 -2.0009 0.9841
-0.7696 0.4946 -0.5282 0.9958
-0.7787 0.4252 -0.5122 0.9959
-0.7796 0.3229 -0.4872 0.9961
-0.7887 0.2942 -0.4860 0.9961
-0.8128 0.2387 -0.4891 0.9961
-0.8318 0.1809 -0.4915 0.9961
-0.8393 0.1514 -0.4924 0.9961
-0.8548 0.0305 -0.4938 0.9961
