ply
format ascii 1.0
element vertex 689
property float32 x
property float32 y
property float32 z
property float32 I
end_header
-9.3753 0.0000 -1.9817 0.9624
-9.3694 -0.3346 -1.9818 0.9624
-9.3515 -0.6688 -1.9818 0.9624
-9.3219 -1.0022 -1.9818 0.9624
-9.2804 -1.3343 -1.9819 0.9624
-9.1621 -1.9931 -1.9820 0.9624
-8.8979 -2.9615 -1.9823 0.9624
-8.6651 -3.5892 -1.9825 0.9624
-8.0688 -4.7875 -1.9832 0.9624
-7.7083 -5.3520 -1.9836 0.9624
-6.3992 -6.8732 -1.9851 0.9623
-6.1507 -7.0982 -1.9853 0.9623
-5.6302 -7.5211 -1.9859 0.9623
-5.3590 -7.7185 -1.9862 0.9623
-4.7963 -8.0837 -1.9869 0.9623
-4.2087 -8.4080 -1.9875 0.9623
-3.9066 -8.5543 -1.9879 0.9623
-3.5994 -8.6898 -1.9882 0.9623
-3.2876 -8.8143 -1.9885 0.9623
-2.9714 -8.9276 -1.9889 0.9623
-2.6513 -9.0296 -1.9893 0.9623
-2.3278 -9.1201 -1.9896 0.9622
-2.0011 -9.1991 -1.9900 0.9622
-1.6718 -9.2664 -1.9903 0.9622
-1.3403 -9.3219 -1.9907 0.9622
-1.0069 -9.3655 -1.9911 0.9622
-0.6721 -9.3972 -1.9915 0.9622
-0.3363 -9.4170 -1.9918 0.9622
-0.0000 -9.4248 -1.9922 0.9622
0.3364 -9.4206 -1.9926 0.9622
0.6726 -9.4043 -1.9930 0.9622
1.6750 -9.2838 -1.9941 0.9622
2.0056 -9.2198 -1.9945 0.9622
2.3338 -9.1440 -1.9948 0.9622
2.6592 -9.0565 -1.9952 0.9621
2.9813 -8.9574 -1.9955 0.9621
3.6140 -8.7250 -1.9962 0.9621
4.2287 -8.4479 -1.9969 0.9621
4.5283 -8.2929 -1.9973 0.9621
4.8222 -8.1274 -1.9976 0.9621
5.3914 -7.7651 -1.9982 0.9621
5.6660 -7.5689 -1.9985 0.9621
6.4454 -6.9229 -1.9994 0.9621
6.9247 -6.4471 -1.9999 0.9621
7.5770 -5.6721 -2.0007 0.9620
8.1424 -4.8311 -2.0013 0.9620
8.3105 -4.5379 -2.0015 0.9620
8.4679 -4.2387 -2.0017 0.9620
8.8745 -3.3100 -2.0021 0.9620
9.0891 -2.6688 -2.0024 0.9620
9.3235 -1.6822 -2.0026 0.9620
9.3779 -1.3484 -2.0027 0.9620
-8.4313 -0.3011 -1.9828 0.9659
-8.4152 -0.6019 -1.9828 0.9659
-8.3885 -0.9019 -1.9828 0.9659
-8.1757 -2.0867 -1.9831 0.9659
-7.9070 -2.9492 -1.9834 0.9659
-7.7972 -3.2297 -1.9835 0.9659
-7.5480 -3.7783 -1.9838 0.9659
-7.4089 -4.0456 -1.9839 0.9659
-6.9359 -4.8157 -1.9845 0.9659
-6.7602 -5.0607 -1.9847 0.9659
-6.5760 -5.2992 -1.9849 0.9659
-6.1825 -5.7562 -1.9853 0.9659
-5.5338 -6.3864 -1.9860 0.9659
-4.5711 -7.1128 -1.9871 0.9659
-4.3149 -7.2725 -1.9874 0.9659
-4.0532 -7.4229 -1.9877 0.9658
-2.6729 -8.0308 -1.9892 0.9658
-1.8000 -8.2746 -1.9902 0.9658
-1.2055 -8.3847 -1.9909 0.9658
-0.3025 -8.4698 -1.9919 0.9658
-0.0000 -8.4767 -1.9922 0.9658
0.6049 -8.4579 -1.9929 0.9658
0.9066 -8.4324 -1.9932 0.9658
1.5063 -8.3490 -1.9939 0.9657
1.8037 -8.2913 -1.9942 0.9657
2.0988 -8.2230 -1.9946 0.9657
2.3913 -8.1442 -1.9949 0.9657
2.6809 -8.0550 -1.9952 0.9657
2.9672 -7.9554 -1.9955 0.9657
3.2498 -7.8457 -1.9958 0.9657
3.5283 -7.7259 -1.9962 0.9657
3.8024 -7.5962 -1.9965 0.9657
4.8476 -6.9818 -1.9976 0.9657
5.7949 -6.2242 -1.9987 0.9657
6.8118 -5.0993 -1.9998 0.9656
6.9902 -4.8534 -2.0000 0.9656
7.1596 -4.6012 -2.0002 0.9656
7.4709 -4.0795 -2.0006 0.9656
7.6124 -3.8105 -2.0007 0.9656
7.8659 -3.2582 -2.0010 0.9656
7.9777 -2.9756 -2.0011 0.9656
8.1705 -2.3991 -2.0013 0.9656
8.3811 -1.5121 -2.0016 0.9656
8.4300 -1.2121 -2.0016 0.9656
8.4681 -0.9104 -2.0017 0.9656
8.5117 -0.3040 -2.0017 0.9656
-7.6565 -0.2735 -1.9837 0.9688
-7.6176 -0.8190 -1.9837 0.9688
-7.5837 -1.0904 -1.9837 0.9688
-7.5402 -1.3604 -1.9838 0.9688
-7.4870 -1.6287 -1.9839 0.9688
-7.4244 -1.8950 -1.9839 0.9688
-6.8541 -3.4309 -1.9846 0.9688
-6.7278 -3.6736 -1.9847 0.9688
-6.4496 -4.1449 -1.9850 0.9688
-6.2980 -4.3728 -1.9852 0.9688
-5.9711 -4.8118 -1.9855 0.9688
-5.4242 -5.4242 -1.9862 0.9688
-4.8150 -5.9750 -1.9868 0.9688
-4.5992 -6.1438 -1.9871 0.9688
-4.3775 -6.3048 -1.9873 0.9688
-3.9176 -6.6028 -1.9878 0.9688
-3.6799 -6.7393 -1.9881 0.9688
-3.4375 -6.8673 -1.9884 0.9688
-3.1907 -6.9865 -1.9887 0.9688
-2.9397 -7.0970 -1.9889 0.9688
-2.6849 -7.1984 -1.9892 0.9688
-2.1651 -7.3738 -1.9898 0.9687
-1.9009 -7.4474 -1.9901 0.9687
-1.6341 -7.5117 -1.9904 0.9687
-1.3651 -7.5663 -1.9907 0.9687
-0.8221 -7.6468 -1.9913 0.9687
-0.5488 -7.6724 -1.9916 0.9687
-0.2746 -7.6883 -1.9919 0.9687
-0.0000 -7.6944 -1.9922 0.9687
0.2747 -7.6907 -1.9925 0.9687
1.3672 -7.5779 -1.9937 0.9687
1.9049 -7.4633 -1.9943 0.9687
2.1704 -7.3917 -1.9946 0.9687
2.4332 -7.3106 -1.9949 0.9687
2.6930 -7.2201 -1.9952 0.9687
2.9494 -7.1205 -1.9955 0.9687
4.3991 -6.3359 -1.9971 0.9686
5.0530 -5.8315 -1.9979 0.9686
5.2585 -5.6481 -1.9981 0.9686
5.8340 -5.0552 -1.9987 0.9686
6.0113 -4.8442 -1.9989 0.9686
6.3428 -4.4039 -1.9993 0.9686
6.4965 -4.1750 -1.9995 0.9686
6.6419 -3.9408 -1.9996 0.9686
6.7788 -3.7015 -1.9998 0.9686
7.3306 -2.4399 -2.0004 0.9686
7.4134 -2.1768 -2.0005 0.9686
7.5503 -1.6425 -2.0006 0.9686
7.6487 -1.0997 -2.0007 0.9686
7.6832 -0.8260 -2.0008 0.9686
-7.0097 0.0000 -1.9844 0.9713
-6.9697 -0.7493 -1.9844 0.9713
-6.8987 -1.2447 -1.9845 0.9713
-6.7928 -1.7338 -1.9846 0.9713
-6.6523 -2.2141 -1.9848 0.9713
-6.3785 -2.9130 -1.9851 0.9713
-6.1552 -3.3610 -1.9853 0.9713
-5.6159 -4.2041 -1.9859 0.9713
-5.4628 -4.4022 -1.9861 0.9713
-5.3026 -4.5948 -1.9863 0.9713
-4.9623 -4.9623 -1.9867 0.9712
-4.5966 -5.3047 -1.9871 0.9712
-4.4048 -5.4660 -1.9873 0.9712
-4.2074 -5.6204 -1.9875 0.9712
-4.0045 -5.7676 -1.9877 0.9712
-3.7966 -5.9076 -1.9880 0.9712
-3.5837 -6.0400 -1.9882 0.9712
-3.3663 -6.1649 -1.9885 0.9712
-3.1445 -6.2819 -1.9887 0.9712
-1.9805 -6.7448 -1.9900 0.9712
-1.7387 -6.8121 -1.9903 0.9712
-1.4947 -6.8707 -1.9905 0.9712
-0.7519 -6.9941 -1.9914 0.9712
0.2512 -7.0338 -1.9925 0.9712
0.5022 -7.0214 -1.9928 0.9712
1.4971 -6.8823 -1.9939 0.9711
1.9848 -6.7598 -1.9944 0.9711
2.9282 -6.4119 -1.9955 0.9711
3.3790 -6.1882 -1.9960 0.9711
3.5982 -6.0644 -1.9962 0.9711
4.0226 -5.7936 -1.9967 0.9711
4.2273 -5.6470 -1.9969 0.9711
4.8083 -5.1645 -1.9976 0.9711
4.9900 -4.9901 -1.9978 0.9711
5.3343 -4.6222 -1.9982 0.9711
5.9399 -3.8173 -1.9988 0.9711
6.0728 -3.6032 -1.9990 0.9711
6.3152 -3.1612 -1.9993 0.9711
6.9031 -1.5017 -1.9999 0.9711
6.9930 -1.0055 -2.0000 0.9711
7.0471 -0.5040 -2.0001 0.9711
-6.4537 -0.0000 -1.9850 0.9734
-6.4496 -0.2303 -1.9850 0.9734
-6.4373 -0.4604 -1.9850 0.9734
-6.4168 -0.6899 -1.9851 0.9734
-6.2539 -1.5962 -1.9852 0.9734
-6.0481 -2.2558 -1.9855 0.9733
-5.9641 -2.4704 -1.9856 0.9733
-5.8724 -2.6818 -1.9857 0.9733
-5.5531 -3.2948 -1.9860 0.9733
-5.1702 -3.8703 -1.9864 0.9733
-4.8817 -4.2300 -1.9868 0.9733
-4.7280 -4.4019 -1.9869 0.9733
-4.5683 -4.5683 -1.9871 0.9733
-4.4027 -4.7289 -1.9873 0.9733
-4.2315 -4.8835 -1.9875 0.9733
-4.0550 -5.0319 -1.9877 0.9733
-3.8732 -5.1739 -1.9879 0.9733
-3.6864 -5.3094 -1.9881 0.9733
-3.2990 -5.5601 -1.9885 0.9733
-2.6866 -5.8829 -1.9892 0.9733
-2.2607 -6.0610 -1.9897 0.9733
-1.6004 -6.2703 -1.9904 0.9733
-0.9213 -6.4079 -1.9912 0.9733
-0.4620 -6.4589 -1.9917 0.9733
0.6926 -6.4425 -1.9930 0.9732
1.1508 -6.3783 -1.9935 0.9732
1.3779 -6.3340 -1.9938 0.9732
2.0478 -6.1527 -1.9945 0.9732
2.2664 -6.0764 -1.9947 0.9732
2.6947 -5.9007 -1.9952 0.9732
3.1095 -5.6947 -1.9957 0.9732
3.5087 -5.4596 -1.9961 0.9732
3.8900 -5.1965 -1.9966 0.9732
4.0734 -5.0549 -1.9968 0.9732
4.4245 -4.7523 -1.9972 0.9732
4.5918 -4.5918 -1.9973 0.9732
4.7532 -4.4254 -1.9975 0.9732
5.3363 -3.7051 -1.9982 0.9732
5.4655 -3.5125 -1.9983 0.9732
5.5878 -3.3154 -1.9984 0.9732
5.7030 -3.1141 -1.9986 0.9732
5.8108 -2.9087 -1.9987 0.9732
6.0894 -2.2713 -1.9990 0.9732
6.1669 -2.0526 -1.9991 0.9732
6.2364 -1.8312 -1.9992 0.9732
6.2980 -1.6075 -1.9992 0.9732
6.3516 -1.3817 -1.9993 0.9732
6.4343 -0.9251 -1.9994 0.9732
6.4841 -0.4638 -1.9994 0.9732
-5.9733 -0.0000 -1.9855 0.9751
-5.7883 -1.4774 -1.9858 0.9751
-5.6686 -1.8867 -1.9859 0.9751
-5.5200 -2.2865 -1.9861 0.9751
-5.4351 -2.4821 -1.9861 0.9751
-5.3434 -2.6747 -1.9862 0.9751
-5.2448 -2.8639 -1.9864 0.9751
-5.1395 -3.0494 -1.9865 0.9751
-5.0277 -3.2311 -1.9866 0.9751
-4.7850 -3.5820 -1.9869 0.9751
-4.6545 -3.7508 -1.9870 0.9751
-4.3757 -4.0740 -1.9873 0.9751
-4.0746 -4.3765 -1.9877 0.9751
-3.7527 -4.6568 -1.9880 0.9751
-3.5845 -4.7883 -1.9882 0.9751
-3.0530 -5.1455 -1.9888 0.9751
-2.6787 -5.3514 -1.9892 0.9751
-2.2906 -5.5300 -1.9897 0.9751
-2.0920 -5.6089 -1.9899 0.9751
-1.6869 -5.7451 -1.9903 0.9751
-0.2139 -5.9888 -1.9920 0.9751
0.2139 -5.9902 -1.9925 0.9751
0.4276 -5.9795 -1.9927 0.9750
0.8533 -5.9352 -1.9932 0.9750
1.2749 -5.8605 -1.9936 0.9750
1.6901 -5.7560 -1.9941 0.9750
1.8947 -5.6927 -1.9943 0.9750
2.0969 -5.6220 -1.9946 0.9750
2.2965 -5.5442 -1.9948 0.9750
3.0635 -5.1632 -1.9956 0.9750
3.4247 -4.9325 -1.9960 0.9750
3.7686 -4.6765 -1.9964 0.9750
3.9334 -4.5394 -1.9966 0.9750
4.0933 -4.3966 -1.9968 0.9750
4.2480 -4.2480 -1.9970 0.9750
4.3973 -4.0940 -1.9971 0.9750
4.5410 -3.9348 -1.9973 0.9750
4.6789 -3.7705 -1.9974 0.9750
5.1693 -3.0671 -1.9980 0.9750
5.2758 -2.8808 -1.9981 0.9750
5.3755 -2.6908 -1.9982 0.9750
5.4684 -2.4974 -1.9983 0.9750
5.5543 -2.3007 -1.9984 0.9750
5.7048 -1.8987 -1.9986 0.9750
5.8261 -1.4870 -1.9987 0.9750
5.8756 -1.2782 -1.9988 0.9750
5.9176 -1.0677 -1.9988 0.9750
5.9521 -0.8558 -1.9989 0.9750
5.9981 -0.4290 -1.9989 0.9750
6.0097 -0.2147 -1.9989 0.9750
-5.5536 -0.0000 -1.9860 0.9767
-5.5219 -0.5937 -1.9860 0.9767
-5.4656 -0.9861 -1.9861 0.9767
-5.4271 -1.1806 -1.9862 0.9767
-5.3816 -1.3736 -1.9862 0.9767
-5.3293 -1.5648 -1.9863 0.9767
-5.2045 -1.9412 -1.9864 0.9767
-5.1321 -2.1258 -1.9865 0.9767
-5.0532 -2.3077 -1.9866 0.9767
-4.9678 -2.4867 -1.9867 0.9767
-4.8762 -2.6626 -1.9868 0.9767
-4.7783 -2.8351 -1.9869 0.9767
-4.4364 -3.3210 -1.9818 0.9767
-4.2878 -3.4553 -1.9693 0.9769
-4.1848 -3.6261 -1.9802 0.9768
-4.0681 -3.7875 -1.9877 0.9767
-3.6408 -4.2017 -1.9881 0.9767
-3.4888 -4.3293 -1.9883 0.9767
-3.1716 -4.5680 -1.9887 0.9767
-2.6659 -4.8822 -1.9892 0.9766
-2.4902 -4.9748 -1.9894 0.9766
-2.1294 -5.1408 -1.9898 0.9766
-1.9447 -5.2140 -1.9900 0.9766
-1.1834 -5.4400 -1.9909 0.9766
-0.9886 -5.4794 -1.9911 0.9766
-0.7925 -5.5118 -1.9913 0.9766
-0.5953 -5.5372 -1.9915 0.9766
-0.1988 -5.5668 -1.9920 0.9766
-0.0000 -5.5710 -1.9922 0.9766
0.1989 -5.5680 -1.9924 0.9766
0.3975 -5.5580 -1.9927 0.9766
0.9897 -5.4855 -1.9933 0.9766
1.1850 -5.4473 -1.9935 0.9766
1.3788 -5.4021 -1.9938 0.9766
1.5709 -5.3500 -1.9940 0.9766
1.7610 -5.2911 -1.9942 0.9766
2.4971 -4.9887 -1.9950 0.9766
3.8042 -4.0860 -1.9965 0.9766
3.9480 -3.9480 -1.9966 0.9766
4.0867 -3.8049 -1.9968 0.9766
4.2202 -3.6568 -1.9969 0.9766
4.6989 -3.0198 -1.9975 0.9766
5.3016 -1.7645 -1.9981 0.9765
5.3613 -1.5742 -1.9982 0.9765
5.4143 -1.3819 -1.9983 0.9765
5.5313 -0.7953 -1.9984 0.9765
5.5741 -0.3987 -1.9984 0.9765
5.5848 -0.1995 -1.9984 0.9765
-5.1836 0.0000 -1.9864 0.9780
-5.1803 -0.1850 -1.9864 0.9780
-5.1309 -0.7377 -1.9865 0.9780
-4.9742 -1.4606 -1.9867 0.9780
-4.9190 -1.6372 -1.9867 0.9780
-4.5511 -2.4851 -1.9871 0.9780
-4.2601 -2.9578 -1.9875 0.9780
-4.1521 -3.1082 -1.9876 0.9780
-3.9202 -3.3969 -1.9878 0.9780
-3.5354 -3.7973 -1.9883 0.9780
-3.3979 -3.9214 -1.9884 0.9780
-3.2560 -4.0405 -1.9886 0.9780
-3.1100 -4.1545 -1.9887 0.9780
-2.9600 -4.2632 -1.9889 0.9780
-2.4880 -4.5564 -1.9894 0.9780
-2.3240 -4.6427 -1.9896 0.9780
-2.1570 -4.7231 -1.9898 0.9780
-1.9872 -4.7976 -1.9900 0.9780
-0.7395 -5.1436 -1.9914 0.9780
-0.5556 -5.1673 -1.9916 0.9780
-0.1855 -5.1948 -1.9920 0.9780
-0.0000 -5.1987 -1.9922 0.9780
0.5559 -5.1705 -1.9928 0.9780
0.9235 -5.1187 -1.9932 0.9780
1.2866 -5.0408 -1.9936 0.9780
1.6432 -4.9372 -1.9940 0.9780
1.9916 -4.8083 -1.9944 0.9780
2.1622 -4.7346 -1.9946 0.9780
2.8150 -4.3803 -1.9954 0.9779
3.5495 -3.8124 -1.9962 0.9779
3.8130 -3.5500 -1.9965 0.9779
3.9375 -3.4119 -1.9966 0.9779
4.0571 -3.2694 -1.9967 0.9779
4.2805 -2.9720 -1.9970 0.9779
4.3841 -2.8175 -1.9971 0.9779
4.5744 -2.4978 -1.9973 0.9779
4.7414 -2.1653 -1.9975 0.9779
4.8159 -1.9948 -1.9976 0.9779
4.9463 -1.6463 -1.9977 0.9779
5.0020 -1.4687 -1.9978 0.9779
5.0514 -1.2893 -1.9979 0.9779
5.1606 -0.7420 -1.9980 0.9779
5.2105 -0.1861 -1.9980 0.9779
-4.8513 -0.1733 -1.9868 0.9792
-4.7775 -0.8620 -1.9869 0.9792
-4.7040 -1.2006 -1.9870 0.9792
-4.6067 -1.5332 -1.9871 0.9792
-4.5491 -1.6967 -1.9871 0.9792
-4.4168 -2.0171 -1.9873 0.9792
-4.3422 -2.1736 -1.9874 0.9792
-4.2621 -2.3273 -1.9875 0.9792
-4.1765 -2.4780 -1.9876 0.9792
-4.0856 -2.6256 -1.9877 0.9792
-3.9895 -2.7699 -1.9878 0.9792
-3.7821 -3.0478 -1.9880 0.9792
-3.5555 -3.3103 -1.9882 0.9792
-3.3108 -3.5560 -1.9885 0.9792
-3.0491 -3.7837 -1.9888 0.9792
-2.3298 -4.2667 -1.9896 0.9792
-1.8608 -4.4925 -1.9901 0.9792
-1.3703 -4.6669 -1.9907 0.9792
-0.8639 -4.7880 -1.9912 0.9792
-0.5202 -4.8384 -1.9916 0.9792
-0.3472 -4.8543 -1.9918 0.9792
0.1737 -4.8651 -1.9924 0.9792
0.3473 -4.8562 -1.9926 0.9792
0.6930 -4.8200 -1.9930 0.9792
1.5385 -4.6225 -1.9939 0.9792
1.7027 -4.5651 -1.9941 0.9792
2.1815 -4.3581 -1.9946 0.9792
2.9218 -3.9031 -1.9955 0.9791
3.0595 -3.7967 -1.9956 0.9791
3.1933 -3.6853 -1.9958 0.9791
3.4486 -3.4486 -1.9961 0.9791
3.6863 -3.1942 -1.9963 0.9791
3.7982 -3.0608 -1.9965 0.9791
4.0074 -2.7824 -1.9967 0.9791
4.1044 -2.6377 -1.9968 0.9791
4.2825 -2.3384 -1.9970 0.9791
4.4388 -2.0271 -1.9972 0.9791
4.5724 -1.7054 -1.9973 0.9791
4.7691 -1.0375 -1.9975 0.9791
4.8032 -0.8666 -1.9976 0.9791
4.8311 -0.6946 -1.9976 0.9791
4.8529 -0.5218 -1.9976 0.9791
4.8685 -0.3482 -1.9976 0.9791
-1.4601 -0.0000 -0.6363 0.9936
-1.4571 -0.0521 -0.6354 0.9937
-1.4359 -0.1544 -0.6294 0.9937
-1.4180 -0.2039 -0.6244 0.9938
-1.3722 -0.4029 -0.6233 0.9938
-1.5118 -0.5639 -0.7032 0.9930
-4.2133 -1.7452 -1.9875 0.9803
-4.1485 -1.8945 -1.9876 0.9803
-4.0784 -2.0415 -1.9877 0.9803
-4.0031 -2.1858 -1.9877 0.9803
-3.3394 -3.1091 -1.9885 0.9803
-3.2265 -3.2265 -1.9886 0.9803
-2.9885 -3.4489 -1.9889 0.9803
-2.7352 -3.6538 -1.9892 0.9803
-2.3295 -3.9262 -1.9896 0.9803
-1.7476 -4.2191 -1.9903 0.9803
-1.5960 -4.2792 -1.9904 0.9803
-1.1298 -4.4264 -1.9910 0.9803
-0.4885 -4.5438 -1.9917 0.9803
-0.1632 -4.5679 -1.9920 0.9803
-0.0000 -4.5712 -1.9922 0.9803
0.3262 -4.5604 -1.9926 0.9802
0.6508 -4.5264 -1.9929 0.9802
1.7510 -4.2274 -1.9942 0.9802
2.1934 -4.0170 -1.9947 0.9802
2.3356 -3.9365 -1.9948 0.9802
2.6109 -3.7604 -1.9951 0.9802
3.2382 -3.2382 -1.9958 0.9802
3.3519 -3.1208 -1.9960 0.9802
3.4614 -2.9993 -1.9961 0.9802
3.5664 -2.8740 -1.9962 0.9802
3.6670 -2.7451 -1.9963 0.9802
3.9400 -2.3377 -1.9966 0.9802
4.0211 -2.1957 -1.9967 0.9802
4.2933 -1.6013 -1.9970 0.9802
4.3479 -1.4471 -1.9971 0.9802
4.3969 -1.2911 -1.9971 0.9802
4.4402 -1.1333 -1.9972 0.9802
4.5566 -0.4899 -1.9973 0.9802
-1.2424 -0.0444 -0.5755 0.9945
-1.2362 -0.0884 -0.5737 0.9946
-1.2124 -0.1743 -0.5670 0.9946
-1.1974 -0.2161 -0.5632 0.9947
-1.1790 -0.2565 -0.5585 0.9947
-1.1330 -0.3327 -0.5466 0.9948
-1.1536 -0.3840 -0.5628 0.9947
-1.2345 -0.5114 -0.6185 0.9941
-3.6938 -2.1916 -1.9881 0.9812
-3.6134 -2.3222 -1.9882 0.9812
-3.5283 -2.4498 -1.9883 0.9812
-3.3449 -2.6955 -1.9885 0.9812
-3.1445 -2.9276 -1.9887 0.9812
-2.9279 -3.1449 -1.9889 0.9812
-2.6965 -3.3461 -1.9892 0.9812
-2.5755 -3.4405 -1.9893 0.9812
-2.4512 -3.5305 -1.9895 0.9812
-2.3239 -3.6160 -1.9896 0.9812
-2.1935 -3.6969 -1.9898 0.9812
-1.9244 -3.8445 -1.9901 0.9812
-1.6455 -3.9726 -1.9904 0.9812
-1.3582 -4.0806 -1.9907 0.9812
-1.0638 -4.1677 -1.9910 0.9812
-0.9144 -4.2034 -1.9912 0.9812
-0.7639 -4.2337 -1.9914 0.9812
-0.6123 -4.2587 -1.9915 0.9812
-0.4600 -4.2782 -1.9917 0.9812
-0.0000 -4.3039 -1.9922 0.9812
0.1536 -4.3015 -1.9924 0.9812
0.3071 -4.2937 -1.9926 0.9812
0.4602 -4.2804 -1.9927 0.9812
0.7645 -4.2374 -1.9931 0.9812
0.9153 -4.2077 -1.9932 0.9812
1.0650 -4.1727 -1.9934 0.9812
1.2134 -4.1324 -1.9936 0.9812
1.5053 -4.0359 -1.9939 0.9812
1.6485 -3.9800 -1.9941 0.9812
1.9286 -3.8528 -1.9944 0.9812
2.4580 -3.5402 -1.9950 0.9812
2.5830 -3.4504 -1.9951 0.9812
2.7047 -3.3563 -1.9952 0.9812
2.9376 -3.1552 -1.9955 0.9812
3.2586 -2.8236 -1.9958 0.9812
3.3575 -2.7057 -1.9960 0.9812
3.8570 -1.9307 -1.9965 0.9812
3.9236 -1.7919 -1.9966 0.9812
3.9852 -1.6507 -1.9967 0.9812
4.0417 -1.5075 -1.9967 0.9812
4.0930 -1.3623 -1.9968 0.9812
4.2155 -0.9170 -1.9969 0.9812
4.2703 -0.6140 -1.9970 0.9812
4.2895 -0.4612 -1.9970 0.9812
-1.0817 -0.0000 -0.5306 0.9952
-1.0803 -0.0386 -0.5302 0.9952
-1.0769 -0.0770 -0.5296 0.9952
-1.0611 -0.1526 -0.5258 0.9952
-1.0518 -0.1898 -0.5242 0.9952
-1.0307 -0.2631 -0.5218 0.9953
-1.0175 -0.2988 -0.5202 0.9953
-1.0025 -0.3337 -0.5183 0.9953
-1.0119 -0.3774 -0.5298 0.9952
-3.5575 -1.9425 -1.9882 0.9821
-3.3299 -2.3120 -1.9885 0.9821
-3.1568 -2.5439 -1.9887 0.9821
-2.9676 -2.7629 -1.9889 0.9821
-2.8672 -2.8672 -1.9890 0.9821
-2.7632 -2.9679 -1.9891 0.9821
-2.4306 -3.2469 -1.9895 0.9821
-1.8161 -3.6281 -1.9902 0.9821
-1.4182 -3.8023 -1.9906 0.9821
-0.7208 -3.9953 -1.9914 0.9821
-0.2897 -4.0504 -1.9919 0.9821
-0.0000 -4.0614 -1.9922 0.9821
0.5782 -4.0214 -1.9929 0.9821
0.7214 -3.9985 -1.9930 0.9821
0.8637 -3.9705 -1.9932 0.9821
1.1450 -3.8994 -1.9935 0.9821
1.4204 -3.8084 -1.9938 0.9821
1.6888 -3.6979 -1.9941 0.9821
1.8198 -3.6355 -1.9942 0.9820
2.0748 -3.4969 -1.9945 0.9820
2.1985 -3.4209 -1.9947 0.9820
2.3193 -3.3405 -1.9948 0.9820
2.6636 -3.0740 -1.9952 0.9820
2.7718 -2.9771 -1.9953 0.9820
2.8765 -2.8765 -1.9954 0.9820
2.9775 -2.7721 -1.9955 0.9820
3.1680 -2.5529 -1.9957 0.9820
3.3424 -2.3207 -1.9959 0.9820
3.4997 -2.0765 -1.9961 0.9820
3.5717 -1.9503 -1.9962 0.9820
3.6392 -1.8217 -1.9963 0.9820
3.7020 -1.6907 -1.9963 0.9820
3.8619 -1.2854 -1.9965 0.9820
3.9054 -1.1467 -1.9966 0.9820
3.9439 -1.0067 -1.9966 0.9820
3.9774 -0.8652 -1.9967 0.9820
4.0058 -0.7227 -1.9967 0.9820
4.0291 -0.5793 -1.9967 0.9820
4.0603 -0.2904 -1.9967 0.9820
-0.9838 -0.1058 -0.5133 0.9956
-0.9404 -0.2761 -0.5085 0.9956
-0.9208 -0.3434 -0.5098 0.9956
-0.9416 -0.4713 -0.5463 0.9953
-3.2965 -1.9559 -1.9885 0.9829
-3.1489 -2.1863 -1.9887 0.9829
-3.0690 -2.2974 -1.9888 0.9829
-2.9851 -2.4056 -1.9889 0.9829
-2.8975 -2.5107 -1.9890 0.9829
-2.7113 -2.7113 -1.9892 0.9829
-2.4064 -2.9861 -1.9895 0.9829
-2.0738 -3.2268 -1.9899 0.9829
-1.9574 -3.2990 -1.9900 0.9829
-1.8385 -3.3670 -1.9902 0.9829
-1.7173 -3.4307 -1.9903 0.9829
-1.5939 -3.4900 -1.9904 0.9829
-1.3410 -3.5954 -1.9907 0.9829
-1.2119 -3.6412 -1.9909 0.9829
-0.9492 -3.7189 -1.9912 0.9829
-0.6816 -3.7778 -1.9915 0.9829
-0.4104 -3.8173 -1.9918 0.9828
0.1371 -3.8380 -1.9924 0.9828
0.4106 -3.8191 -1.9927 0.9828
0.5467 -3.8023 -1.9928 0.9828
0.6821 -3.7806 -1.9930 0.9828
0.8167 -3.7542 -1.9931 0.9828
0.9502 -3.7229 -1.9933 0.9828
1.0826 -3.6869 -1.9934 0.9828
1.2136 -3.6462 -1.9936 0.9828
1.5967 -3.4963 -1.9940 0.9828
1.7206 -3.4373 -1.9941 0.9828
1.9617 -3.3063 -1.9944 0.9828
2.3043 -3.0782 -1.9948 0.9828
2.4129 -2.9942 -1.9949 0.9828
2.6206 -2.8148 -1.9951 0.9828
2.8150 -2.6209 -1.9954 0.9828
2.9069 -2.5189 -1.9955 0.9828
3.4406 -1.7223 -1.9961 0.9828
3.6511 -1.2152 -1.9963 0.9828
3.7872 -0.6833 -1.9964 0.9828
3.8092 -0.5477 -1.9965 0.9828
3.8264 -0.4114 -1.9965 0.9828
3.8386 -0.2746 -1.9965 0.9828
3.8460 -0.1374 -1.9965 0.9828
-0.9161 -0.0655 -0.5030 0.9958
-0.9011 -0.1626 -0.5015 0.9958
-0.8932 -0.1943 -0.5006 0.9958
-0.8837 -0.2256 -0.4995 0.9958
-0.8603 -0.2863 -0.4966 0.9959
-0.8516 -0.4263 -0.5216 0.9957
-0.8507 -0.4645 -0.5309 0.9956
-2.9829 -2.0710 -1.9889 0.9836
-2.9072 -2.1763 -1.9890 0.9836
-2.8278 -2.2787 -1.9891 0.9836
-2.7447 -2.3783 -1.9891 0.9836
-2.5683 -2.5683 -1.9893 0.9836
-2.2794 -2.8286 -1.9897 0.9836
-1.7415 -3.1894 -1.9903 0.9836
-1.6267 -3.2497 -1.9904 0.9836
-1.5098 -3.3059 -1.9905 0.9836
-1.3909 -3.3579 -1.9907 0.9836
-1.1480 -3.4490 -1.9909 0.9836
-0.3887 -3.6158 -1.9918 0.9836
0.3889 -3.6173 -1.9926 0.9835
0.5178 -3.6014 -1.9928 0.9835
0.9000 -3.5262 -1.9932 0.9835
1.0254 -3.4921 -1.9934 0.9835
1.1494 -3.4535 -1.9935 0.9835
1.5123 -3.3115 -1.9939 0.9835
1.6296 -3.2556 -1.9940 0.9835
1.7449 -3.1956 -1.9942 0.9835
2.1825 -2.9154 -1.9946 0.9835
2.3852 -2.7526 -1.9949 0.9835
2.5757 -2.5758 -1.9951 0.9835
2.9166 -2.1834 -1.9955 0.9835
3.0652 -1.9699 -1.9956 0.9835
3.1982 -1.7463 -1.9958 0.9835
3.2586 -1.6311 -1.9958 0.9835
3.3668 -1.3946 -1.9960 0.9835
3.5314 -0.9013 -1.9962 0.9835
3.5614 -0.7747 -1.9962 0.9835
3.6076 -0.5187 -1.9962 0.9835
3.6355 -0.2600 -1.9963 0.9835
3.6425 -0.1301 -1.9963 0.9835
-0.8548 -0.0305 -0.4938 0.9961
-0.8499 -0.0914 -0.4935 0.9961
-0.8393 -0.1514 -0.4924 0.9961
-0.8230 -0.2101 -0.4904 0.9961
-0.8014 -0.2667 -0.4876 0.9961
-0.7887 -0.2942 -0.4860 0.9961
-0.7797 -0.3229 -0.4872 0.9961
-0.7809 -0.3567 -0.4957 0.9960
-0.7787 -0.4252 -0.5122 0.9959
-0.7751 -0.4599 -0.5203 0.9958
-0.7634 -0.5300 -0.5366 0.9957
-2.6040 -2.2564 -1.9893 0.9842
-2.5219 -2.3480 -1.9894 0.9842
-2.4366 -2.4366 -1.9895 0.9842
-2.2568 -2.6045 -1.9897 0.9842
-2.1625 -2.6836 -1.9898 0.9842
-1.9658 -2.8313 -1.9900 0.9842
-1.6522 -3.0257 -1.9904 0.9842
-1.5432 -3.0830 -1.9905 0.9842
-1.3195 -3.1856 -1.9907 0.9842
-0.9716 -3.3091 -1.9911 0.9842
-0.7332 -3.3704 -1.9914 0.9842
-0.1232 -3.4482 -1.9921 0.9842
0.2462 -3.4423 -1.9925 0.9842
0.6129 -3.3970 -1.9929 0.9842
0.9727 -3.3126 -1.9933 0.9842
1.0904 -3.2760 -1.9934 0.9842
1.2067 -3.2352 -1.9936 0.9842
1.6552 -3.0314 -1.9941 0.9842
1.7625 -2.9705 -1.9942 0.9842
1.9701 -2.8375 -1.9944 0.9842
2.1678 -2.6901 -1.9946 0.9842
2.5291 -2.3546 -1.9950 0.9842
2.6116 -2.2630 -1.9951 0.9842
2.8389 -1.9711 -1.9954 0.9842
2.9076 -1.8686 -1.9955 0.9842
3.0337 -1.6565 -1.9956 0.9842
3.0910 -1.5472 -1.9957 0.9842
3.1443 -1.4360 -1.9957 0.9842
3.1937 -1.3229 -1.9958 0.9842
3.3170 -0.9740 -1.9959 0.9842
3.3781 -0.7349 -1.9960 0.9842
3.4023 -0.6139 -1.9960 0.9842
3.4374 -0.3696 -1.9960 0.9842
