ply
format ascii 1.0
element vertex 702
property float32 x
property float32 y
property float32 z
property float32 I
end_header
-9.7384 0.0000 -2.0585 0.9610
-9.6810 -1.0408 -2.0582 0.9610
-9.3326 -2.7403 -2.0560 0.9610
-9.2258 -3.0706 -2.0553 0.9610
-9.1070 -3.3967 -2.0546 0.9610
-8.9764 -3.7181 -2.0538 0.9611
-8.8340 -4.0344 -2.0529 0.9611
-8.5153 -4.6497 -2.0508 0.9611
-8.3394 -4.9480 -2.0497 0.9611
-8.1528 -5.2395 -2.0485 0.9612
-7.9557 -5.5237 -2.0473 0.9612
-7.3048 -6.3297 -2.0431 0.9613
-7.0690 -6.5815 -2.0416 0.9613
-6.3100 -7.2821 -2.0368 0.9614
-5.1912 -8.0776 -2.0296 0.9615
-4.8950 -8.2500 -2.0277 0.9615
-4.5930 -8.4114 -2.0258 0.9616
-4.2857 -8.5617 -2.0238 0.9616
-3.6567 -8.8280 -2.0198 0.9617
-3.3359 -8.9438 -2.0178 0.9617
-3.0114 -9.0479 -2.0157 0.9618
-2.6838 -9.1401 -2.0136 0.9618
-1.6860 -9.3448 -2.0072 0.9619
-1.3499 -9.3889 -2.0050 0.9620
-1.0129 -9.4209 -2.0029 0.9620
-0.6752 -9.4409 -2.0007 0.9620
1.9947 -9.1695 -1.9836 0.9624
2.3183 -9.0829 -1.9815 0.9624
2.9542 -8.8760 -1.9774 0.9625
3.5727 -8.6253 -1.9734 0.9626
4.7456 -7.9983 -1.9659 0.9627
5.2946 -7.6256 -1.9623 0.9628
5.5585 -7.4253 -1.9606 0.9628
5.8151 -7.2161 -1.9590 0.9628
6.0640 -6.9982 -1.9574 0.9628
6.7617 -6.2954 -1.9529 0.9629
6.9771 -6.0457 -1.9515 0.9630
7.5685 -5.2549 -1.9476 0.9630
8.0733 -4.4083 -1.9444 0.9631
8.3592 -3.8175 -1.9425 0.9631
8.4865 -3.5153 -1.9417 0.9631
8.7092 -2.8987 -1.9402 0.9632
9.0234 -1.6280 -1.9382 0.9632
9.1137 -0.9798 -1.9376 0.9632
9.1589 -0.3271 -1.9372 0.9632
-8.7312 0.0000 -2.0520 0.9648
-8.7255 -0.3116 -2.0520 0.9648
-8.6799 -0.9332 -2.0517 0.9648
-8.5889 -1.5496 -2.0512 0.9648
-8.3684 -2.4572 -2.0498 0.9648
-8.1667 -3.0461 -2.0485 0.9648
-7.9227 -3.6182 -2.0470 0.9648
-7.3133 -4.7000 -2.0431 0.9649
-7.1369 -4.9553 -2.0420 0.9649
-6.7572 -5.4453 -2.0396 0.9650
-6.3433 -5.9059 -2.0369 0.9650
-6.1243 -6.1243 -2.0355 0.9650
-5.6636 -6.5361 -2.0326 0.9651
-5.4226 -6.7290 -2.0311 0.9651
-4.6610 -7.2527 -2.0262 0.9652
-3.8491 -7.6896 -2.0210 0.9653
-3.2849 -7.9304 -2.0174 0.9653
-2.9970 -8.0353 -2.0156 0.9654
-2.7058 -8.1296 -2.0137 0.9654
-2.4116 -8.2133 -2.0118 0.9654
-1.5155 -8.4000 -2.0061 0.9655
-0.9107 -8.4703 -2.0022 0.9656
-0.6072 -8.4891 -2.0002 0.9656
-0.3035 -8.4971 -1.9983 0.9657
0.0000 -8.4942 -1.9963 0.9657
0.3029 -8.4806 -1.9944 0.9657
0.6048 -8.4561 -1.9925 0.9658
0.9054 -8.4210 -1.9905 0.9658
1.2042 -8.3752 -1.9886 0.9658
1.7951 -8.2522 -1.9848 0.9659
2.6595 -7.9906 -1.9793 0.9660
2.9403 -7.8834 -1.9774 0.9660
3.4890 -7.6398 -1.9739 0.9661
3.7562 -7.5039 -1.9722 0.9661
4.0182 -7.3587 -1.9705 0.9661
4.2747 -7.2046 -1.9689 0.9662
5.0083 -6.6903 -1.9641 0.9662
5.6821 -6.1030 -1.9598 0.9663
5.8923 -5.8922 -1.9584 0.9663
6.2893 -5.4498 -1.9559 0.9664
6.4759 -5.2186 -1.9547 0.9664
6.6541 -4.9812 -1.9535 0.9664
7.1370 -4.2346 -1.9504 0.9665
7.2801 -3.9752 -1.9494 0.9665
7.6538 -3.1703 -1.9470 0.9665
7.7593 -2.8941 -1.9463 0.9665
7.8551 -2.6144 -1.9457 0.9666
7.9411 -2.3317 -1.9451 0.9666
8.0172 -2.0463 -1.9446 0.9666
8.1853 -1.1769 -1.9435 0.9666
8.2620 -0.2951 -1.9430 0.9666
-7.9049 0.0000 -2.0467 0.9679
-7.8998 -0.2822 -2.0467 0.9679
-7.8844 -0.5639 -2.0466 0.9679
-7.7764 -1.4030 -2.0460 0.9679
-7.7201 -1.6794 -2.0456 0.9679
-7.5773 -2.2249 -2.0447 0.9679
-7.4910 -2.4933 -2.0442 0.9679
-7.3951 -2.7582 -2.0436 0.9679
-7.2896 -3.0194 -2.0429 0.9679
-7.0503 -3.5292 -2.0414 0.9679
-6.6239 -4.2569 -2.0387 0.9680
-6.4645 -4.4884 -2.0377 0.9680
-6.2969 -4.7138 -2.0366 0.9680
-5.9379 -5.1452 -2.0343 0.9681
-5.5489 -5.5490 -2.0318 0.9681
-4.2250 -6.5742 -2.0234 0.9682
-3.7395 -6.8483 -2.0203 0.9683
-2.9788 -7.1914 -2.0154 0.9683
-2.1875 -7.4499 -2.0103 0.9684
-1.9185 -7.5168 -2.0086 0.9685
-1.6476 -7.5739 -2.0069 0.9685
-1.3750 -7.6212 -2.0051 0.9685
-0.5510 -7.7042 -1.9998 0.9686
0.2749 -7.6985 -1.9945 0.9687
0.5491 -7.6770 -1.9928 0.9687
0.8220 -7.6458 -1.9910 0.9687
1.3630 -7.5544 -1.9876 0.9688
2.1571 -7.3465 -1.9825 0.9689
2.4159 -7.2587 -1.9808 0.9689
2.6713 -7.1620 -1.9791 0.9689
2.9228 -7.0563 -1.9775 0.9689
3.1702 -6.9419 -1.9759 0.9690
3.6517 -6.6875 -1.9728 0.9690
3.8851 -6.5480 -1.9713 0.9690
4.5528 -6.0818 -1.9670 0.9691
4.7637 -5.9114 -1.9657 0.9691
4.9683 -5.7337 -1.9643 0.9691
5.3578 -5.3578 -1.9618 0.9692
5.5422 -5.1600 -1.9606 0.9692
5.7195 -4.9560 -1.9595 0.9692
5.8895 -4.7461 -1.9584 0.9692
6.2065 -4.3093 -1.9563 0.9693
6.3533 -4.0830 -1.9554 0.9693
6.4920 -3.8519 -1.9545 0.9693
6.6225 -3.6162 -1.9536 0.9693
6.7446 -3.3761 -1.9529 0.9693
7.0594 -2.6330 -1.9508 0.9693
7.1468 -2.3787 -1.9502 0.9694
7.2252 -2.1216 -1.9497 0.9694
7.2947 -1.8619 -1.9493 0.9694
7.3550 -1.6000 -1.9489 0.9694
7.4061 -1.3362 -1.9485 0.9694
7.4480 -1.0709 -1.9483 0.9694
7.4806 -0.8043 -1.9480 0.9694
-7.2142 -0.0000 -2.0423 0.9705
-7.0972 -1.2805 -2.0416 0.9705
-6.9853 -1.7829 -2.0409 0.9705
-6.7498 -2.5176 -2.0394 0.9705
-6.3143 -3.4479 -2.0367 0.9705
-6.1847 -3.6696 -2.0358 0.9705
-5.9020 -4.0978 -2.0340 0.9706
-5.7492 -4.3038 -2.0331 0.9706
-5.0673 -5.0673 -2.0287 0.9706
-4.8804 -5.2419 -2.0275 0.9707
-4.6873 -5.4094 -2.0263 0.9707
-4.2840 -5.7228 -2.0237 0.9707
-3.8596 -6.0057 -2.0210 0.9708
-3.4166 -6.2570 -2.0182 0.9708
-2.7221 -6.5719 -2.0137 0.9709
-2.2430 -6.7390 -2.0107 0.9709
-1.7537 -6.8711 -2.0075 0.9709
-1.2571 -6.9677 -2.0043 0.9710
-0.5039 -7.0451 -1.9995 0.9711
-0.2519 -7.0529 -1.9979 0.9711
0.0000 -7.0517 -1.9963 0.9711
0.2515 -7.0415 -1.9947 0.9711
0.5023 -7.0224 -1.9931 0.9712
0.7520 -6.9943 -1.9915 0.9712
1.2470 -6.9118 -1.9883 0.9712
1.7342 -6.7945 -1.9851 0.9713
2.4449 -6.5551 -1.9806 0.9713
2.6753 -6.4588 -1.9791 0.9714
3.3431 -6.1225 -1.9748 0.9714
3.5570 -5.9951 -1.9734 0.9714
4.1692 -5.5694 -1.9695 0.9715
4.5502 -5.2512 -1.9670 0.9715
4.7319 -5.0824 -1.9658 0.9715
4.9074 -4.9074 -1.9647 0.9716
5.0766 -4.7265 -1.9636 0.9716
5.5442 -4.1504 -1.9606 0.9716
5.9482 -3.5292 -1.9580 0.9717
6.0679 -3.3134 -1.9572 0.9717
6.2843 -2.8700 -1.9558 0.9717
6.4691 -2.4129 -1.9546 0.9717
6.7405 -1.4663 -1.9528 0.9717
6.8559 -0.7371 -1.9520 0.9717
6.8773 -0.4919 -1.9519 0.9717
6.8902 -0.2461 -1.9518 0.9717
-6.6277 0.0000 -2.0385 0.9726
-6.6105 -0.4728 -2.0384 0.9726
-6.5203 -1.1764 -2.0379 0.9727
-6.4178 -1.6380 -2.0373 0.9727
-6.3540 -1.8657 -2.0369 0.9727
-6.2819 -2.0908 -2.0364 0.9727
-6.1136 -2.5323 -2.0353 0.9727
-5.9137 -2.9602 -2.0341 0.9727
-5.1368 -4.1395 -2.0291 0.9728
-4.9834 -4.3181 -2.0282 0.9728
-4.8237 -4.4910 -2.0271 0.9728
-4.6579 -4.6579 -2.0261 0.9728
-4.4862 -4.8185 -2.0250 0.9728
-4.3090 -4.9728 -2.0239 0.9728
-3.9386 -5.2614 -2.0215 0.9729
-3.7460 -5.3953 -2.0203 0.9729
-3.5489 -5.5221 -2.0190 0.9729
-2.9325 -5.8584 -2.0151 0.9730
-2.7197 -5.9553 -2.0137 0.9730
-2.2848 -6.1257 -2.0109 0.9730
-2.0632 -6.1989 -2.0095 0.9730
-1.6134 -6.3213 -2.0066 0.9731
-1.1567 -6.4109 -2.0037 0.9731
-0.6953 -6.4675 -2.0007 0.9731
-0.4637 -6.4834 -1.9992 0.9732
-0.0000 -6.4902 -1.9963 0.9732
0.2315 -6.4813 -1.9948 0.9732
0.9209 -6.4052 -1.9903 0.9733
1.1481 -6.3635 -1.9889 0.9733
2.0362 -6.1178 -1.9832 0.9734
3.6579 -5.2684 -1.9727 0.9735
3.8413 -5.1314 -1.9716 0.9735
4.0197 -4.9881 -1.9704 0.9735
4.3604 -4.6834 -1.9682 0.9736
4.9725 -4.0071 -1.9643 0.9736
5.1101 -3.8254 -1.9634 0.9736
5.2411 -3.6390 -1.9625 0.9737
5.3654 -3.4482 -1.9617 0.9737
5.5935 -3.0543 -1.9602 0.9737
5.8824 -2.4366 -1.9584 0.9737
5.9639 -2.2245 -1.9578 0.9737
6.0380 -2.0097 -1.9573 0.9737
6.1046 -1.7925 -1.9569 0.9737
6.2146 -1.3519 -1.9562 0.9737
6.2580 -1.1291 -1.9559 0.9737
6.2935 -0.9049 -1.9557 0.9737
6.3212 -0.6796 -1.9555 0.9737
6.3529 -0.2269 -1.9552 0.9737
-6.0872 -0.6545 -2.0351 0.9745
-6.0595 -0.8712 -2.0349 0.9745
-5.9805 -1.3010 -2.0344 0.9745
-5.9293 -1.5134 -2.0341 0.9745
-5.8704 -1.7237 -2.0337 0.9745
-5.8040 -1.9318 -2.0333 0.9745
-5.3614 -2.9275 -2.0305 0.9746
-5.2517 -3.1160 -2.0298 0.9746
-5.0122 -3.4801 -2.0283 0.9746
-4.6056 -3.9908 -2.0257 0.9746
-4.3051 -4.3051 -2.0238 0.9747
-3.9830 -4.5966 -2.0217 0.9747
-3.8143 -4.7333 -2.0207 0.9747
-3.4631 -4.9878 -2.0184 0.9747
-3.2810 -5.1053 -2.0173 0.9747
-3.0948 -5.2161 -2.0161 0.9748
-2.9049 -5.3200 -2.0149 0.9748
-2.7115 -5.4170 -2.0136 0.9748
-2.5149 -5.5069 -2.0124 0.9748
-2.1129 -5.6650 -2.0098 0.9748
-1.9081 -5.7330 -2.0085 0.9749
-1.7012 -5.7937 -2.0071 0.9749
-1.2818 -5.8924 -2.0045 0.9749
0.0000 -6.0054 -1.9962 0.9750
0.2142 -5.9975 -1.9949 0.9750
0.6406 -5.9587 -1.9921 0.9751
1.0626 -5.8898 -1.9894 0.9751
1.2713 -5.8442 -1.9881 0.9751
1.6828 -5.7310 -1.9854 0.9751
2.0846 -5.5890 -1.9828 0.9752
2.2813 -5.5076 -1.9816 0.9752
2.4749 -5.4192 -1.9803 0.9752
2.6651 -5.3241 -1.9791 0.9752
3.2132 -4.9998 -1.9756 0.9753
3.3877 -4.8792 -1.9745 0.9753
3.5577 -4.7525 -1.9734 0.9753
3.7230 -4.6200 -1.9723 0.9753
4.0389 -4.3381 -1.9703 0.9753
4.1892 -4.1891 -1.9693 0.9753
4.3339 -4.0351 -1.9684 0.9753
4.6066 -3.7123 -1.9666 0.9754
4.8557 -3.3714 -1.9650 0.9754
5.0801 -3.0142 -1.9635 0.9754
5.1827 -2.8300 -1.9629 0.9754
5.2787 -2.6423 -1.9622 0.9754
5.3681 -2.4515 -1.9617 0.9754
5.5264 -2.0612 -1.9606 0.9754
5.5952 -1.8622 -1.9602 0.9754
5.7115 -1.4578 -1.9594 0.9755
5.7590 -1.2528 -1.9591 0.9755
5.7993 -1.0463 -1.9588 0.9755
5.8323 -0.8386 -1.9586 0.9755
5.8763 -0.4203 -1.9583 0.9755
5.8873 -0.2103 -1.9582 0.9755
-5.6835 0.0000 -2.0325 0.9761
-5.6688 -0.4054 -2.0324 0.9761
-5.6504 -0.6075 -2.0323 0.9761
-5.4494 -1.6001 -2.0310 0.9762
-5.3193 -1.9840 -2.0302 0.9762
-5.1617 -2.3573 -2.0292 0.9762
-5.0728 -2.5393 -2.0287 0.9762
-4.9775 -2.7179 -2.0281 0.9762
-4.7678 -3.0640 -2.0267 0.9762
-4.6537 -3.2311 -2.0260 0.9762
-4.5337 -3.3939 -2.0252 0.9762
-4.3490 -3.5046 -1.9974 0.9766
-4.2419 -3.6756 -2.0072 0.9764
-4.1398 -3.8543 -2.0227 0.9763
-3.9978 -3.9978 -2.0218 0.9763
-3.8508 -4.1360 -2.0209 0.9763
-3.6989 -4.2688 -2.0199 0.9763
-2.5189 -5.0321 -2.0124 0.9764
-2.3363 -5.1158 -2.0112 0.9764
-2.1510 -5.1929 -2.0100 0.9764
-1.9631 -5.2632 -2.0088 0.9764
-0.7965 -5.5395 -2.0013 0.9765
-0.1994 -5.5822 -1.9975 0.9766
0.3977 -5.5608 -1.9937 0.9766
0.5956 -5.5396 -1.9924 0.9766
2.1216 -5.1220 -1.9826 0.9767
2.3017 -5.0401 -1.9814 0.9767
3.1513 -4.5388 -1.9760 0.9768
3.4635 -4.2980 -1.9739 0.9768
3.7577 -4.0361 -1.9720 0.9768
4.2864 -3.4542 -1.9686 0.9769
4.5185 -3.1373 -1.9671 0.9769
4.7275 -2.8050 -1.9658 0.9769
5.2074 -1.7332 -1.9627 0.9770
5.3159 -1.3568 -1.9619 0.9770
5.3601 -1.1660 -1.9617 0.9770
5.3977 -0.9739 -1.9614 0.9770
5.4524 -0.5862 -1.9610 0.9770
5.4695 -0.3912 -1.9609 0.9770
-5.2972 -0.0000 -2.0300 0.9776
-5.2938 -0.1891 -2.0300 0.9776
-5.2835 -0.3779 -2.0299 0.9776
-5.2664 -0.5662 -2.0298 0.9776
-5.2425 -0.7538 -2.0297 0.9776
-5.2118 -0.9403 -2.0295 0.9776
-5.1743 -1.1256 -2.0293 0.9776
-5.0793 -1.4914 -2.0287 0.9776
-5.0219 -1.6715 -2.0283 0.9776
-4.9581 -1.8493 -2.0279 0.9776
-4.8879 -2.0246 -2.0275 0.9776
-4.8113 -2.1973 -2.0270 0.9776
-4.4446 -2.8563 -2.0246 0.9776
-4.1094 -3.3116 -2.0225 0.9776
-3.9871 -3.4548 -2.0217 0.9777
-3.4490 -3.9803 -2.0183 0.9777
-2.8419 -4.4221 -2.0144 0.9777
-2.6809 -4.5184 -2.0134 0.9777
-2.5166 -4.6088 -2.0123 0.9778
-1.8311 -4.9093 -2.0079 0.9778
-1.4745 -5.0218 -2.0057 0.9778
-1.2936 -5.0682 -2.0045 0.9778
-0.3721 -5.2020 -1.9986 0.9779
0.9221 -5.1111 -1.9903 0.9780
1.2829 -5.0264 -1.9880 0.9780
1.4607 -4.9746 -1.9868 0.9780
1.6364 -4.9165 -1.9857 0.9780
2.1490 -4.7056 -1.9824 0.9781
2.3143 -4.6234 -1.9813 0.9781
2.4765 -4.5354 -1.9803 0.9781
2.7909 -4.3428 -1.9783 0.9781
3.0906 -4.1286 -1.9763 0.9782
3.6402 -3.6401 -1.9728 0.9782
3.7662 -3.5065 -1.9720 0.9782
4.0037 -3.2263 -1.9704 0.9782
4.1147 -3.0803 -1.9697 0.9782
4.3211 -2.7770 -1.9684 0.9782
4.4160 -2.6202 -1.9678 0.9782
4.5054 -2.4601 -1.9672 0.9783
4.5891 -2.2971 -1.9666 0.9783
4.6670 -2.1313 -1.9661 0.9783
4.7389 -1.9629 -1.9657 0.9783
4.8049 -1.7921 -1.9652 0.9783
4.8649 -1.6192 -1.9648 0.9783
4.9187 -1.4443 -1.9645 0.9783
5.0077 -1.0894 -1.9639 0.9783
5.0428 -0.9098 -1.9637 0.9783
5.1196 -0.1829 -1.9632 0.9783
-4.9514 -0.1769 -2.0278 0.9788
-4.9418 -0.3534 -2.0277 0.9788
-4.9258 -0.5296 -2.0276 0.9788
-4.9035 -0.7050 -2.0275 0.9788
-4.7984 -1.2247 -2.0268 0.9788
-4.6377 -1.7298 -2.0258 0.9788
-4.5721 -1.8938 -2.0254 0.9788
-4.5006 -2.0554 -2.0250 0.9788
-4.4233 -2.2142 -2.0245 0.9788
-4.3403 -2.3700 -2.0240 0.9789
-4.2518 -2.5227 -2.0234 0.9789
-4.1578 -2.6721 -2.0228 0.9789
-4.0585 -2.8179 -2.0222 0.9789
-3.9540 -2.9600 -2.0215 0.9789
-3.7302 -3.2322 -2.0201 0.9789
-3.6111 -3.3620 -2.0193 0.9789
-3.2271 -3.7243 -2.0169 0.9789
-2.9506 -3.9415 -2.0151 0.9789
-2.8067 -4.0425 -2.0142 0.9790
-2.6594 -4.1382 -2.0132 0.9790
-2.5088 -4.2284 -2.0123 0.9790
-2.3552 -4.3131 -2.0113 0.9790
-2.1986 -4.3923 -2.0103 0.9790
-2.0394 -4.4657 -2.0093 0.9790
-1.7138 -4.5950 -2.0072 0.9790
-1.5479 -4.6508 -2.0061 0.9790
-1.2109 -4.7443 -2.0040 0.9791
-0.8684 -4.8133 -2.0018 0.9791
-0.3483 -4.8704 -1.9984 0.9791
-0.1742 -4.8770 -1.9973 0.9791
0.5205 -4.8413 -1.9929 0.9792
0.6926 -4.8170 -1.9918 0.9792
0.8636 -4.7866 -1.9907 0.9792
1.6952 -4.5450 -1.9853 0.9793
2.0130 -4.4079 -1.9833 0.9793
2.3200 -4.2488 -1.9813 0.9793
2.4690 -4.1613 -1.9803 0.9793
3.1615 -3.6485 -1.9759 0.9794
3.4109 -3.4109 -1.9743 0.9794
3.5291 -3.2857 -1.9735 0.9794
3.6428 -3.1565 -1.9728 0.9794
3.8560 -2.8866 -1.9714 0.9794
3.9553 -2.7462 -1.9707 0.9794
4.3010 -2.1529 -1.9685 0.9794
4.4415 -1.8397 -1.9676 0.9794
4.5034 -1.6797 -1.9672 0.9794
4.5597 -1.5176 -1.9668 0.9794
4.6102 -1.3537 -1.9665 0.9794
4.6548 -1.1881 -1.9662 0.9795
4.6937 -1.0211 -1.9659 0.9795
4.7266 -0.8528 -1.9657 0.9795
4.7536 -0.6835 -1.9655 0.9795
4.7746 -0.5133 -1.9654 0.9795
4.7986 -0.1714 -1.9652 0.9795
-1.4601 -0.0000 -0.6363 0.9936
-1.4490 -0.1036 -0.6331 0.9937
-1.4180 -0.2039 -0.6244 0.9938
-1.3955 -0.2518 -0.6180 0.9938
-1.3400 -0.3420 -0.6027 0.9940
-1.4401 -0.4793 -0.6615 0.9934
-1.5118 -0.5639 -0.7032 0.9930
-4.2898 -1.7769 -2.0236 0.9799
-4.1503 -2.0775 -2.0227 0.9800
-3.9014 -2.5073 -2.0211 0.9800
-3.7104 -2.7775 -2.0199 0.9800
-3.5004 -3.0332 -2.0186 0.9800
-3.3887 -3.1550 -2.0179 0.9800
-3.2728 -3.2728 -2.0171 0.9800
-2.7693 -3.6993 -2.0139 0.9800
-2.3549 -3.9689 -2.0113 0.9801
-2.2107 -4.0486 -2.0104 0.9801
-1.7627 -4.2556 -2.0075 0.9801
-1.6089 -4.3137 -2.0065 0.9801
-1.2958 -4.4131 -2.0045 0.9801
-1.1369 -4.4543 -2.0035 0.9801
-0.8154 -4.5194 -2.0014 0.9802
-0.6532 -4.5432 -2.0004 0.9802
-0.3271 -4.5735 -1.9983 0.9802
-0.1636 -4.5798 -1.9972 0.9802
0.1634 -4.5750 -1.9951 0.9802
0.4888 -4.5469 -1.9930 0.9802
0.8111 -4.4958 -1.9910 0.9803
0.9706 -4.4617 -1.9900 0.9803
2.0368 -4.0690 -1.9831 0.9803
2.1797 -3.9919 -1.9822 0.9804
2.3198 -3.9097 -1.9813 0.9804
2.7208 -3.6346 -1.9787 0.9804
3.2053 -3.2053 -1.9756 0.9804
3.3165 -3.0878 -1.9748 0.9804
3.4234 -2.9664 -1.9742 0.9804
3.5259 -2.8413 -1.9735 0.9804
3.6239 -2.7128 -1.9729 0.9804
3.7173 -2.5809 -1.9723 0.9804
3.8897 -2.3079 -1.9711 0.9805
3.9686 -2.1670 -1.9706 0.9805
4.1111 -1.8775 -1.9697 0.9805
4.1747 -1.7292 -1.9693 0.9805
4.2858 -1.4264 -1.9686 0.9805
4.3753 -1.1167 -1.9680 0.9805
4.4428 -0.8016 -1.9675 0.9805
4.4682 -0.6424 -1.9674 0.9805
4.5022 -0.3220 -1.9671 0.9805
-1.2424 -0.0444 -0.5755 0.9945
-1.2362 -0.0884 -0.5737 0.9946
-1.1536 -0.3840 -0.5628 0.9947
-1.2345 -0.5114 -0.6185 0.9941
-3.9045 -1.9545 -2.0211 0.9809
-3.8314 -2.0921 -2.0207 0.9809
-3.7534 -2.2270 -2.0202 0.9809
-3.5830 -2.4877 -2.0191 0.9810
-3.4909 -2.6133 -2.0185 0.9810
-3.0795 -3.0795 -2.0159 0.9810
-2.9665 -3.1863 -2.0152 0.9810
-2.8499 -3.2889 -2.0144 0.9810
-2.4791 -3.5705 -2.0121 0.9810
-1.6591 -4.0054 -2.0068 0.9811
-0.4617 -4.2941 -1.9991 0.9811
0.4603 -4.2814 -1.9932 0.9812
0.6125 -4.2602 -1.9922 0.9812
0.9140 -4.2015 -1.9903 0.9812
1.9184 -3.8325 -1.9838 0.9813
2.3141 -3.6008 -1.9813 0.9813
2.7986 -3.2298 -1.9782 0.9813
2.9110 -3.1267 -1.9774 0.9813
3.0197 -3.0197 -1.9767 0.9814
3.1245 -2.9090 -1.9761 0.9814
3.2253 -2.7947 -1.9754 0.9814
3.3219 -2.6770 -1.9748 0.9814
3.4143 -2.5559 -1.9742 0.9814
3.5859 -2.3045 -1.9731 0.9814
3.8089 -1.9066 -1.9716 0.9814
3.8737 -1.7691 -1.9712 0.9814
3.9336 -1.6294 -1.9708 0.9814
3.9885 -1.4877 -1.9705 0.9814
4.0384 -1.3441 -1.9701 0.9814
4.0832 -1.1989 -1.9698 0.9814
4.1573 -0.9044 -1.9694 0.9814
4.2105 -0.6054 -1.9690 0.9814
4.2291 -0.4547 -1.9689 0.9814
4.2505 -0.1518 -1.9687 0.9814
-1.0611 -0.1526 -0.5258 0.9952
-1.0422 -0.2267 -0.5232 0.9953
-1.0307 -0.2631 -0.5218 0.9953
-1.0175 -0.2988 -0.5202 0.9953
-1.0290 -0.4262 -0.5463 0.9951
-3.6130 -1.9729 -2.0193 0.9818
-3.2012 -2.5797 -2.0166 0.9818
-3.1061 -2.6915 -2.0160 0.9819
-2.7979 -3.0051 -2.0141 0.9819
-2.5746 -3.1948 -2.0127 0.9819
-2.3383 -3.3678 -2.0111 0.9819
-2.0905 -3.5233 -2.0096 0.9819
-1.9626 -3.5942 -2.0087 0.9819
-1.8323 -3.6604 -2.0079 0.9819
-0.8674 -3.9875 -2.0017 0.9820
-0.4356 -4.0518 -1.9990 0.9820
-0.2906 -4.0629 -1.9980 0.9820
0.1452 -4.0650 -1.9952 0.9820
0.2900 -4.0553 -1.9943 0.9820
1.0032 -3.9303 -1.9897 0.9821
1.1423 -3.8903 -1.9888 0.9821
1.2798 -3.8453 -1.9879 0.9821
1.4157 -3.7955 -1.9871 0.9821
1.5496 -3.7410 -1.9862 0.9821
1.8109 -3.6178 -1.9845 0.9821
1.9381 -3.5494 -1.9837 0.9821
2.0627 -3.4765 -1.9829 0.9822
2.1846 -3.3994 -1.9821 0.9822
2.3037 -3.3179 -1.9814 0.9822
2.6422 -3.0493 -1.9792 0.9822
3.0453 -2.6388 -1.9766 0.9822
3.1366 -2.5276 -1.9760 0.9822
3.2239 -2.4134 -1.9754 0.9822
3.5310 -1.9281 -1.9734 0.9822
3.6580 -1.6706 -1.9726 0.9822
3.7146 -1.5386 -1.9722 0.9822
3.7665 -1.4048 -1.9719 0.9822
3.8137 -1.2693 -1.9716 0.9823
3.9260 -0.8541 -1.9708 0.9823
3.9536 -0.7133 -1.9707 0.9823
3.9763 -0.5717 -1.9705 0.9823
4.0065 -0.2866 -1.9703 0.9823
-0.9873 -0.0706 -0.5135 0.9955
-0.9785 -0.1407 -0.5129 0.9956
-0.9715 -0.1753 -0.5121 0.9956
-0.9628 -0.2095 -0.5112 0.9956
-0.9271 -0.3840 -0.5206 0.9955
-3.2709 -2.1021 -2.0171 0.9826
-3.1110 -2.3289 -2.0161 0.9826
-2.8418 -2.6459 -2.0143 0.9827
-2.7448 -2.7447 -2.0137 0.9827
-2.6442 -2.8401 -2.0131 0.9827
-2.5403 -2.9317 -2.0124 0.9827
-2.4332 -3.0195 -2.0117 0.9827
-2.3231 -3.1033 -2.0110 0.9827
-1.6067 -3.5181 -2.0065 0.9827
-1.3505 -3.6208 -2.0048 0.9827
-1.2199 -3.6652 -2.0040 0.9827
-1.0878 -3.7048 -2.0031 0.9828
-0.9545 -3.7397 -2.0023 0.9828
-0.8201 -3.7698 -2.0014 0.9828
-0.5486 -3.8153 -1.9997 0.9828
-0.2747 -3.8414 -1.9979 0.9828
0.4108 -3.8207 -1.9935 0.9828
0.6817 -3.7784 -1.9918 0.9828
0.8158 -3.7500 -1.9909 0.9829
1.0803 -3.6791 -1.9892 0.9829
1.2104 -3.6367 -1.9884 0.9829
1.4656 -3.5381 -1.9867 0.9829
1.5902 -3.4822 -1.9859 0.9829
1.8332 -3.3572 -1.9844 0.9829
2.3957 -2.9729 -1.9807 0.9829
2.7908 -2.5984 -1.9782 0.9830
2.8810 -2.4964 -1.9776 0.9830
2.9674 -2.3913 -1.9771 0.9830
3.1288 -2.1723 -1.9760 0.9830
3.2035 -2.0588 -1.9755 0.9830
3.2742 -1.9427 -1.9751 0.9830
3.3407 -1.8242 -1.9746 0.9830
3.4030 -1.7034 -1.9742 0.9830
3.6084 -1.2010 -1.9729 0.9830
3.6839 -0.9403 -1.9724 0.9830
3.7409 -0.6749 -1.9720 0.9830
-0.9182 0.0000 -0.5029 0.9958
-0.9179 -0.0328 -0.5031 0.9958
-0.9127 -0.0981 -0.5028 0.9958
-0.8932 -0.1943 -0.5006 0.9958
-0.8837 -0.2256 -0.4995 0.9958
-0.8465 -0.3157 -0.4948 0.9959
-0.8479 -0.3512 -0.5027 0.9958
-0.8516 -0.4263 -0.5216 0.9957
-0.8507 -0.4645 -0.5309 0.9956
-3.0964 -1.9900 -2.0160 0.9834
-2.6904 -2.5049 -2.0134 0.9834
-2.5986 -2.5986 -2.0128 0.9834
-1.5214 -3.3314 -2.0059 0.9834
-1.4010 -3.3823 -2.0051 0.9834
-1.2789 -3.4288 -2.0043 0.9834
-1.0302 -3.5085 -2.0028 0.9835
-0.9039 -3.5416 -2.0019 0.9835
-0.7766 -3.5702 -2.0011 0.9835
-0.6485 -3.5942 -2.0003 0.9835
-0.5195 -3.6135 -1.9995 0.9835
-0.3901 -3.6283 -1.9987 0.9835
-0.1301 -3.6438 -1.9970 0.9835
0.0000 -3.6446 -1.9961 0.9835
0.3891 -3.6192 -1.9937 0.9835
0.5178 -3.6015 -1.9928 0.9835
0.7728 -3.5524 -1.9912 0.9836
1.0234 -3.4854 -1.9896 0.9836
1.2685 -3.4009 -1.9880 0.9836
1.3885 -3.3521 -1.9872 0.9836
1.7369 -3.1809 -1.9850 0.9836
2.1689 -2.8972 -1.9822 0.9836
2.5559 -2.5559 -1.9797 0.9837
2.6447 -2.4623 -1.9791 0.9837
2.7302 -2.3657 -1.9786 0.9837
2.8121 -2.2661 -1.9780 0.9837
2.9651 -2.0587 -1.9771 0.9837
3.0360 -1.9511 -1.9766 0.9837
3.2252 -1.6144 -1.9754 0.9837
3.2801 -1.4980 -1.9750 0.9837
3.3309 -1.3797 -1.9747 0.9837
3.4579 -1.0153 -1.9739 0.9837
3.5659 -0.5127 -1.9731 0.9837
3.5817 -0.3851 -1.9730 0.9837
3.5931 -0.2570 -1.9730 0.9837
3.5999 -0.1286 -1.9729 0.9837
-0.8548 -0.0305 -0.4938 0.9961
-0.8531 -0.0610 -0.4938 0.9961
-0.8318 -0.1810 -0.4915 0.9961
-0.8230 -0.2101 -0.4904 0.9961
-0.7809 -0.3567 -0.4957 0.9960
-0.7806 -0.3908 -0.5040 0.9960
-0.7751 -0.4599 -0.5203 0.9958
-0.7696 -0.4946 -0.5282 0.9958
-0.7634 -0.5300 -0.5366 0.9957
-2.7155 -2.1883 -2.0135 0.9840
-2.6350 -2.2833 -2.0130 0.9840
-2.5512 -2.3752 -2.0125 0.9840
-2.3739 -2.5497 -2.0113 0.9840
-2.2807 -2.6321 -2.0107 0.9840
-2.1846 -2.7110 -2.0101 0.9840
-1.9844 -2.8581 -2.0089 0.9841
-1.8805 -2.9261 -2.0082 0.9841
-1.6658 -3.0507 -2.0068 0.9841
-1.5553 -3.1072 -2.0061 0.9841
-1.4429 -3.1596 -2.0054 0.9841
-0.9771 -3.3278 -2.0024 0.9841
-0.8574 -3.3593 -2.0016 0.9841
-0.7367 -3.3864 -2.0009 0.9841
-0.6151 -3.4092 -2.0001 0.9841
-0.4928 -3.4277 -1.9993 0.9841
-0.3700 -3.4417 -1.9985 0.9841
-0.2469 -3.4513 -1.9977 0.9841
0.0000 -3.4574 -1.9961 0.9842
0.1234 -3.4538 -1.9953 0.9842
0.8527 -3.3408 -1.9907 0.9842
0.9710 -3.3070 -1.9899 0.9842
1.0880 -3.2690 -1.9892 0.9842
1.2036 -3.2269 -1.9884 0.9842
1.3175 -3.1807 -1.9877 0.9842
1.4297 -3.1305 -1.9870 0.9842
1.6482 -3.0184 -1.9855 0.9842
1.7542 -2.9566 -1.9849 0.9842
1.8580 -2.8912 -1.9842 0.9843
1.9594 -2.8221 -1.9835 0.9843
2.1544 -2.6734 -1.9823 0.9843
2.2477 -2.5940 -1.9817 0.9843
2.8142 -1.9540 -1.9780 0.9843
2.8815 -1.8519 -1.9776 0.9843
3.0051 -1.6409 -1.9768 0.9843
3.0612 -1.5323 -1.9764 0.9843
3.2059 -1.1957 -1.9755 0.9843
3.2461 -1.0804 -1.9752 0.9843
3.3142 -0.8459 -1.9748 0.9843
3.3848 -0.4867 -1.9743 0.9843
3.3998 -0.3655 -1.9742 0.9843
3.4106 -0.2439 -1.9741 0.9843
