ply
format ascii 1.0
element vertex 750
property float32 x
property float32 y
property float32 z
property float32 I
end_header
-9.3515 -0.6688 -1.9818 0.9624
-9.3219 -1.0022 -1.9818 0.9624
-9.2804 -1.3343 -1.9819 0.9624
-9.1621 -1.9931 -1.9820 0.9624
-9.0855 -2.3190 -1.9821 0.9624
-8.9975 -2.6419 -1.9822 0.9624
-8.8979 -2.9615 -1.9823 0.9624
-8.7871 -3.2774 -1.9824 0.9624
-8.6651 -3.5892 -1.9825 0.9624
-8.3883 -4.1989 -1.9828 0.9624
-8.2338 -4.4960 -1.9830 0.9624
-8.0688 -4.7875 -1.9832 0.9624
-5.8942 -7.3143 -1.9856 0.9623
-5.3590 -7.7185 -1.9862 0.9623
-3.9066 -8.5543 -1.9879 0.9623
-3.2876 -8.8143 -1.9885 0.9623
-2.6513 -9.0296 -1.9893 0.9623
-1.6718 -9.2664 -1.9903 0.9622
-1.3403 -9.3219 -1.9907 0.9622
-1.0069 -9.3655 -1.9911 0.9622
-0.3363 -9.4170 -1.9918 0.9622
0.6726 -9.4043 -1.9930 0.9622
2.0056 -9.2198 -1.9945 0.9622
2.3338 -9.1440 -1.9948 0.9622
2.9813 -8.9574 -1.9955 0.9621
3.2997 -8.8469 -1.9959 0.9621
3.6140 -8.7250 -1.9962 0.9621
3.9238 -8.5920 -1.9966 0.9621
5.3914 -7.7651 -1.9982 0.9621
5.6660 -7.5689 -1.9985 0.9621
5.9334 -7.3629 -1.9988 0.9621
6.4454 -6.9229 -1.9994 0.9621
6.9247 -6.4471 -1.9999 0.9621
7.5770 -5.6721 -2.0007 0.9620
7.7754 -5.3986 -2.0009 0.9620
8.3105 -4.5379 -2.0015 0.9620
8.8745 -3.3100 -2.0021 0.9620
8.9875 -2.9913 -2.0022 0.9620
9.0891 -2.6688 -2.0024 0.9620
9.2572 -2.0138 -2.0025 0.9620
9.3235 -1.6822 -2.0026 0.9620
9.3779 -1.3484 -2.0027 0.9620
9.4202 -1.0128 -2.0027 0.9620
9.4506 -0.6759 -2.0028 0.9620
-8.4366 0.0000 -1.9828 0.9659
-8.4313 -0.3011 -1.9828 0.9659
-8.1757 -2.0867 -1.9831 0.9659
-8.0964 -2.3773 -1.9832 0.9659
-8.0068 -2.6649 -1.9833 0.9659
-7.6775 -3.5062 -1.9836 0.9659
-7.4089 -4.0456 -1.9839 0.9659
-7.2604 -4.3078 -1.9841 0.9659
-7.1027 -4.5646 -1.9843 0.9659
-6.9359 -4.8157 -1.9845 0.9659
-6.5760 -5.2992 -1.9849 0.9659
-5.9739 -5.9739 -1.9855 0.9659
-4.8214 -6.9441 -1.9868 0.9659
-4.5711 -7.1128 -1.9871 0.9659
-4.0532 -7.4229 -1.9877 0.9658
-3.5144 -7.6955 -1.9883 0.9658
-2.9574 -7.9291 -1.9889 0.9658
-2.6729 -8.0308 -1.9892 0.9658
-2.3850 -8.1225 -1.9896 0.9658
-1.8000 -8.2746 -1.9902 0.9658
-1.5038 -8.3350 -1.9905 0.9658
-0.9057 -8.4238 -1.9912 0.9658
-0.6045 -8.4522 -1.9915 0.9658
-0.0000 -8.4767 -1.9922 0.9658
0.3026 -8.4727 -1.9926 0.9658
0.9066 -8.4324 -1.9932 0.9658
1.2072 -8.3961 -1.9936 0.9657
2.0988 -8.2230 -1.9946 0.9657
2.6809 -8.0550 -1.9952 0.9657
2.9672 -7.9554 -1.9955 0.9657
3.2498 -7.8457 -1.9958 0.9657
3.5283 -7.7259 -1.9962 0.9657
4.3359 -7.3078 -1.9971 0.9657
4.5946 -7.1494 -1.9973 0.9657
4.8476 -6.9818 -1.9976 0.9657
5.0944 -6.8053 -1.9979 0.9657
5.3347 -6.6200 -1.9982 0.9657
5.5684 -6.4262 -1.9984 0.9657
5.7949 -6.2242 -1.9987 0.9657
6.2257 -5.7963 -1.9992 0.9657
6.6248 -5.3386 -1.9996 0.9656
6.9902 -4.8534 -2.0000 0.9656
7.6124 -3.8105 -2.0007 0.9656
7.9777 -2.9756 -2.0011 0.9656
8.0793 -2.6891 -2.0012 0.9656
8.3216 -1.8103 -2.0015 0.9656
8.4300 -1.2121 -2.0016 0.9656
8.4681 -0.9104 -2.0017 0.9656
8.4953 -0.6076 -2.0017 0.9656
8.5117 -0.3040 -2.0017 0.9656
-7.6419 -0.5466 -1.9837 0.9688
-7.5837 -1.0904 -1.9837 0.9688
-7.4244 -1.8950 -1.9839 0.9688
-7.3523 -2.1588 -1.9840 0.9688
-7.1803 -2.6781 -1.9842 0.9688
-7.0805 -2.9328 -1.9843 0.9688
-6.4496 -4.1449 -1.9850 0.9688
-4.1502 -6.4579 -1.9876 0.9688
-3.9176 -6.6028 -1.9878 0.9688
-3.6799 -6.7393 -1.9881 0.9688
-3.4375 -6.8673 -1.9884 0.9688
-3.1907 -6.9865 -1.9887 0.9688
-2.9397 -7.0970 -1.9889 0.9688
-2.4266 -7.2907 -1.9895 0.9687
-1.9009 -7.4474 -1.9901 0.9687
-1.6341 -7.5117 -1.9904 0.9687
-1.3651 -7.5663 -1.9907 0.9687
-0.2746 -7.6883 -1.9919 0.9687
0.5491 -7.6771 -1.9928 0.9687
1.0957 -7.6208 -1.9934 0.9687
1.3672 -7.5779 -1.9937 0.9687
2.4332 -7.3106 -1.9949 0.9687
2.6930 -7.2201 -1.9952 0.9687
3.2021 -7.0116 -1.9958 0.9687
3.4508 -6.8938 -1.9961 0.9686
3.6951 -6.7672 -1.9963 0.9686
3.9349 -6.6319 -1.9966 0.9686
4.1696 -6.4880 -1.9969 0.9686
4.8411 -6.0074 -1.9976 0.9686
5.0530 -5.8315 -1.9979 0.9686
5.2585 -5.6481 -1.9981 0.9686
5.4574 -5.4574 -1.9983 0.9686
5.6493 -5.2597 -1.9985 0.9686
5.8340 -5.0552 -1.9987 0.9686
6.0113 -4.8442 -1.9989 0.9686
6.3428 -4.4039 -1.9993 0.9686
6.4965 -4.1750 -1.9995 0.9686
6.7788 -3.7015 -1.9998 0.9686
6.9071 -3.4575 -1.9999 0.9686
7.0266 -3.2090 -2.0001 0.9686
7.1371 -2.9563 -2.0002 0.9686
7.2385 -2.6999 -2.0003 0.9686
7.3306 -2.4399 -2.0004 0.9686
7.4866 -1.9109 -2.0006 0.9686
7.5503 -1.6425 -2.0006 0.9686
7.6044 -1.3720 -2.0007 0.9686
7.6487 -1.0997 -2.0007 0.9686
7.7227 -0.2758 -2.0008 0.9686
-7.0052 -0.2502 -1.9844 0.9713
-6.9386 -0.9976 -1.9845 0.9713
-6.7928 -1.7338 -1.9846 0.9713
-6.5694 -2.4502 -1.9849 0.9713
-6.4780 -2.6833 -1.9850 0.9713
-6.1552 -3.3610 -1.9853 0.9713
-6.0317 -3.5788 -1.9855 0.9713
-5.9006 -3.7921 -1.9856 0.9713
-5.7619 -4.0006 -1.9858 0.9713
-5.6159 -4.2041 -1.9859 0.9713
-5.3026 -4.5948 -1.9863 0.9713
-4.9623 -4.9623 -1.9867 0.9712
-4.2074 -5.6204 -1.9875 0.9712
-3.7966 -5.9076 -1.9880 0.9712
-3.5837 -6.0400 -1.9882 0.9712
-3.3663 -6.1649 -1.9885 0.9712
-2.9186 -6.3909 -1.9890 0.9712
-1.0010 -6.9618 -1.9911 0.9712
-0.2512 -7.0318 -1.9919 0.9712
-0.0000 -7.0373 -1.9922 0.9712
0.2512 -7.0338 -1.9925 0.9712
0.5022 -7.0214 -1.9928 0.9712
1.4971 -6.8823 -1.9939 0.9711
1.7421 -6.8254 -1.9942 0.9711
1.9848 -6.7598 -1.9944 0.9711
2.2251 -6.6855 -1.9947 0.9711
2.4627 -6.6027 -1.9950 0.9711
2.6971 -6.5115 -1.9952 0.9711
2.9282 -6.4119 -1.9955 0.9711
3.1556 -6.3041 -1.9957 0.9711
3.3790 -6.1882 -1.9960 0.9711
3.5982 -6.0644 -1.9962 0.9711
3.8128 -5.9328 -1.9965 0.9711
4.8083 -5.1645 -1.9976 0.9711
5.3343 -4.6222 -1.9982 0.9711
5.4964 -4.4293 -1.9983 0.9711
5.6515 -4.2307 -1.9985 0.9711
5.9399 -3.8173 -1.9988 0.9711
6.3152 -3.1612 -1.9993 0.9711
6.5254 -2.7029 -1.9995 0.9711
6.6180 -2.4684 -1.9996 0.9711
6.7022 -2.2310 -1.9997 0.9711
6.7779 -1.9902 -1.9998 0.9711
6.9031 -1.5017 -1.9999 0.9711
6.9525 -1.2544 -2.0000 0.9711
7.0606 -0.2522 -2.0001 0.9711
-6.4373 -0.4604 -1.9850 0.9734
-6.3882 -0.9185 -1.9851 0.9734
-6.3515 -1.1459 -1.9851 0.9734
-6.3067 -1.3720 -1.9852 0.9734
-6.2539 -1.5962 -1.9852 0.9734
-6.1246 -2.0385 -1.9854 0.9733
-6.0481 -2.2558 -1.9855 0.9733
-5.9641 -2.4704 -1.9856 0.9733
-5.8724 -2.6818 -1.9857 0.9733
-5.7732 -2.8899 -1.9858 0.9733
-5.5531 -3.2948 -1.9860 0.9733
-5.4323 -3.4911 -1.9861 0.9733
-5.0291 -4.0527 -1.9866 0.9733
-4.8817 -4.2300 -1.9868 0.9733
-4.7280 -4.4019 -1.9869 0.9733
-4.2315 -4.8835 -1.9875 0.9733
-2.8946 -5.7826 -1.9890 0.9733
-2.6866 -5.8829 -1.9892 0.9733
-2.4752 -5.9758 -1.9894 0.9733
-2.2607 -6.0610 -1.9897 0.9733
-1.8230 -6.2084 -1.9902 0.9733
-1.3758 -6.3242 -1.9907 0.9733
-0.6921 -6.4375 -1.9914 0.9733
-0.4620 -6.4589 -1.9917 0.9733
0.6926 -6.4425 -1.9930 0.9732
1.1508 -6.3783 -1.9935 0.9732
2.0478 -6.1527 -1.9945 0.9732
2.2664 -6.0764 -1.9947 0.9732
2.4821 -5.9924 -1.9950 0.9732
2.6947 -5.9007 -1.9952 0.9732
2.9040 -5.8014 -1.9955 0.9732
3.3112 -5.5807 -1.9959 0.9732
3.5087 -5.4596 -1.9961 0.9732
3.8900 -5.1965 -1.9966 0.9732
4.2517 -4.9067 -1.9970 0.9732
4.4245 -4.7523 -1.9972 0.9732
4.9085 -4.2533 -1.9977 0.9732
5.0576 -4.0757 -1.9979 0.9732
5.3363 -3.7051 -1.9982 0.9732
5.4655 -3.5125 -1.9983 0.9732
5.5878 -3.3154 -1.9984 0.9732
5.7030 -3.1141 -1.9986 0.9732
5.8108 -2.9087 -1.9987 0.9732
5.9113 -2.6996 -1.9988 0.9732
6.0894 -2.2713 -1.9990 0.9732
6.2364 -1.8312 -1.9992 0.9732
6.2980 -1.6075 -1.9992 0.9732
6.3516 -1.3817 -1.9993 0.9732
6.3970 -1.1542 -1.9994 0.9732
6.4343 -0.9251 -1.9994 0.9732
6.4633 -0.6949 -1.9994 0.9732
6.4841 -0.4638 -1.9994 0.9732
-5.9733 -0.0000 -1.9855 0.9751
-5.9581 -0.4261 -1.9856 0.9751
-5.9392 -0.6385 -1.9856 0.9751
-5.8787 -1.0606 -1.9857 0.9751
-5.8372 -1.2698 -1.9857 0.9751
-5.7883 -1.4774 -1.9858 0.9751
-5.7321 -1.6831 -1.9858 0.9751
-5.6686 -1.8867 -1.9859 0.9751
-5.5200 -2.2865 -1.9861 0.9751
-5.3434 -2.6747 -1.9862 0.9751
-5.2448 -2.8639 -1.9864 0.9751
-5.1395 -3.0494 -1.9865 0.9751
-5.0277 -3.2311 -1.9866 0.9751
-4.9095 -3.4087 -1.9867 0.9751
-4.7850 -3.5820 -1.9869 0.9751
-4.2279 -4.2279 -1.9875 0.9751
-3.4116 -4.9136 -1.9884 0.9751
-3.0530 -5.1455 -1.9888 0.9751
-2.8677 -5.2518 -1.9890 0.9751
-2.6787 -5.3514 -1.9892 0.9751
-2.4863 -5.4441 -1.9894 0.9751
-2.2906 -5.5300 -1.9897 0.9751
-2.0920 -5.6089 -1.9899 0.9751
-1.6869 -5.7451 -1.9903 0.9751
-1.2731 -5.8522 -1.9908 0.9751
-1.0635 -5.8946 -1.9910 0.9751
-0.8525 -5.9295 -1.9913 0.9751
-0.6404 -5.9568 -1.9915 0.9751
-0.4275 -5.9766 -1.9917 0.9751
-0.0000 -5.9933 -1.9922 0.9751
0.2139 -5.9902 -1.9925 0.9751
0.6409 -5.9611 -1.9929 0.9750
0.8533 -5.9352 -1.9932 0.9750
1.2749 -5.8605 -1.9936 0.9750
1.4834 -5.8120 -1.9939 0.9750
1.6901 -5.7560 -1.9941 0.9750
2.0969 -5.6220 -1.9946 0.9750
2.4932 -5.4593 -1.9950 0.9750
2.6868 -5.3675 -1.9952 0.9750
3.0635 -5.1632 -1.9956 0.9750
3.4247 -4.9325 -1.9960 0.9750
3.9334 -4.5394 -1.9966 0.9750
4.5410 -3.9348 -1.9973 0.9750
4.6789 -3.7705 -1.9974 0.9750
4.9366 -3.4276 -1.9977 0.9750
5.1693 -3.0671 -1.9980 0.9750
5.2758 -2.8808 -1.9981 0.9750
5.3755 -2.6908 -1.9982 0.9750
5.4684 -2.4974 -1.9983 0.9750
5.6332 -2.1011 -1.9985 0.9750
5.7048 -1.8987 -1.9986 0.9750
5.7691 -1.6940 -1.9987 0.9750
5.8261 -1.4870 -1.9987 0.9750
5.9521 -0.8558 -1.9989 0.9750
-5.5536 -0.0000 -1.9860 0.9767
-5.5501 -0.1982 -1.9860 0.9767
-5.5395 -0.3962 -1.9860 0.9767
-5.4656 -0.9861 -1.9861 0.9767
-5.3816 -1.3736 -1.9862 0.9767
-5.3293 -1.5648 -1.9863 0.9767
-5.2703 -1.7541 -1.9863 0.9767
-5.2045 -1.9412 -1.9864 0.9767
-4.8762 -2.6626 -1.9868 0.9767
-4.5644 -3.1691 -1.9871 0.9767
-4.4364 -3.3210 -1.9818 0.9767
-4.2878 -3.4553 -1.9693 0.9769
-4.1848 -3.6261 -1.9802 0.9768
-3.7881 -4.0687 -1.9880 0.9767
-3.6408 -4.2017 -1.9881 0.9767
-3.4888 -4.3293 -1.9883 0.9767
-3.3323 -4.4515 -1.9885 0.9767
-3.1716 -4.5680 -1.9887 0.9767
-2.6659 -4.8822 -1.9892 0.9766
-2.4902 -4.9748 -1.9894 0.9766
-1.9447 -5.2140 -1.9900 0.9766
-1.5682 -5.3406 -1.9905 0.9766
-1.3767 -5.3937 -1.9907 0.9766
-0.5953 -5.5372 -1.9915 0.9766
-0.0000 -5.5710 -1.9922 0.9766
0.1989 -5.5680 -1.9924 0.9766
0.7932 -5.5167 -1.9931 0.9766
0.9897 -5.4855 -1.9933 0.9766
1.1850 -5.4473 -1.9935 0.9766
1.7610 -5.2911 -1.9942 0.9766
1.9490 -5.2254 -1.9944 0.9766
2.1345 -5.1531 -1.9946 0.9766
2.3172 -5.0741 -1.9948 0.9766
2.4971 -4.9887 -1.9950 0.9766
2.6739 -4.8968 -1.9952 0.9766
2.8472 -4.7988 -1.9954 0.9766
3.1829 -4.5843 -1.9958 0.9766
3.6557 -4.2189 -1.9963 0.9766
3.8042 -4.0860 -1.9965 0.9766
4.0867 -3.8049 -1.9968 0.9766
4.3483 -3.5041 -1.9971 0.9766
4.4709 -3.3469 -1.9972 0.9766
4.6989 -3.0198 -1.9975 0.9766
4.9956 -2.5006 -1.9978 0.9765
5.0819 -2.3208 -1.9979 0.9765
5.1618 -2.1381 -1.9980 0.9765
5.4143 -1.3819 -1.9983 0.9765
5.4603 -1.1878 -1.9983 0.9765
5.5313 -0.7953 -1.9984 0.9765
5.5563 -0.5974 -1.9984 0.9765
-5.1836 0.0000 -1.9864 0.9780
-5.1704 -0.3698 -1.9864 0.9780
-5.1014 -0.9204 -1.9865 0.9780
-5.0654 -1.1019 -1.9866 0.9780
-5.0230 -1.2821 -1.9866 0.9780
-4.9742 -1.4606 -1.9867 0.9780
-4.8576 -1.8118 -1.9868 0.9780
-4.4598 -2.6461 -1.9872 0.9780
-4.1521 -3.1082 -1.9876 0.9780
-4.0387 -3.2546 -1.9877 0.9780
-3.7968 -3.5349 -1.9880 0.9780
-3.6684 -3.6684 -1.9881 0.9780
-3.3979 -3.9214 -1.9884 0.9780
-3.1100 -4.1545 -1.9887 0.9780
-2.8062 -4.3665 -1.9891 0.9780
-2.4880 -4.5564 -1.9894 0.9780
-2.3240 -4.6427 -1.9896 0.9780
-1.8149 -4.8659 -1.9902 0.9780
-1.6402 -4.9281 -1.9904 0.9780
-1.4634 -4.9840 -1.9906 0.9780
-1.1044 -5.0767 -1.9910 0.9780
-0.7395 -5.1436 -1.9914 0.9780
-0.5556 -5.1673 -1.9916 0.9780
-0.3708 -5.1843 -1.9918 0.9780
-0.1855 -5.1948 -1.9920 0.9780
-0.0000 -5.1987 -1.9922 0.9780
0.3709 -5.1865 -1.9926 0.9780
0.5559 -5.1705 -1.9928 0.9780
0.7401 -5.1479 -1.9930 0.9780
1.1057 -5.0830 -1.9934 0.9780
1.2866 -5.0408 -1.9936 0.9780
1.9916 -4.8083 -1.9944 0.9780
2.3300 -4.6548 -1.9948 0.9779
2.6567 -4.4776 -1.9952 0.9779
2.8150 -4.3803 -1.9954 0.9779
3.2679 -4.0553 -1.9959 0.9779
3.4109 -3.9364 -1.9960 0.9779
3.5495 -3.8124 -1.9962 0.9779
3.8130 -3.5500 -1.9965 0.9779
4.1715 -3.1227 -1.9969 0.9779
4.6609 -2.3331 -1.9974 0.9779
4.7414 -2.1653 -1.9975 0.9779
4.8842 -1.8217 -1.9977 0.9779
4.9463 -1.6463 -1.9977 0.9779
5.0020 -1.4687 -1.9978 0.9779
5.0943 -1.1082 -1.9979 0.9779
5.1606 -0.7420 -1.9980 0.9779
5.1839 -0.5573 -1.9980 0.9779
5.2005 -0.3720 -1.9980 0.9779
-4.8544 -0.0000 -1.9868 0.9792
-4.8513 -0.1733 -1.9868 0.9792
-4.8421 -0.3463 -1.9868 0.9792
-4.8267 -0.5189 -1.9868 0.9792
-4.7775 -0.8620 -1.9869 0.9792
-4.7438 -1.0320 -1.9869 0.9792
-4.7040 -1.2006 -1.9870 0.9792
-4.6583 -1.3678 -1.9870 0.9792
-4.4858 -1.8581 -1.9872 0.9792
-4.3422 -2.1736 -1.9874 0.9792
-4.2621 -2.3273 -1.9875 0.9792
-4.0856 -2.6256 -1.9877 0.9792
-3.9895 -2.7699 -1.9878 0.9792
-3.8883 -2.9107 -1.9879 0.9792
-3.7821 -3.0478 -1.9880 0.9792
-3.3108 -3.5560 -1.9885 0.9792
-3.1820 -3.6722 -1.9887 0.9792
-2.7718 -3.9922 -1.9891 0.9792
-2.6278 -4.0889 -1.9893 0.9792
-2.1762 -4.3475 -1.9898 0.9792
-2.0198 -4.4228 -1.9900 0.9792
-1.5359 -4.6146 -1.9905 0.9792
-1.3703 -4.6669 -1.9907 0.9792
-1.2030 -4.7133 -1.9909 0.9792
-1.0341 -4.7537 -1.9911 0.9792
-0.8639 -4.7880 -1.9912 0.9792
-0.6925 -4.8163 -1.9914 0.9792
-0.1737 -4.8641 -1.9920 0.9792
-0.0000 -4.8677 -1.9922 0.9792
0.1737 -4.8651 -1.9924 0.9792
0.5205 -4.8412 -1.9928 0.9792
0.6930 -4.8200 -1.9930 0.9792
1.0353 -4.7592 -1.9934 0.9792
1.2046 -4.7197 -1.9936 0.9792
1.3724 -4.6741 -1.9937 0.9792
1.7027 -4.5651 -1.9941 0.9792
1.8647 -4.5018 -1.9943 0.9792
2.0244 -4.4328 -1.9945 0.9792
2.3359 -4.2778 -1.9948 0.9792
2.4873 -4.1921 -1.9950 0.9792
2.6355 -4.1010 -1.9952 0.9792
2.9218 -3.9031 -1.9955 0.9791
3.1933 -3.6853 -1.9958 0.9791
3.6863 -3.1942 -1.9963 0.9791
3.9053 -2.9235 -1.9966 0.9791
4.1044 -2.6377 -1.9968 0.9791
4.1961 -2.4897 -1.9969 0.9791
4.2825 -2.3384 -1.9970 0.9791
4.4388 -2.0271 -1.9972 0.9791
4.5724 -1.7054 -1.9973 0.9791
4.6305 -1.5412 -1.9974 0.9791
4.6827 -1.3750 -1.9974 0.9791
4.7290 -1.2070 -1.9975 0.9791
4.8311 -0.6946 -1.9976 0.9791
4.8685 -0.3482 -1.9976 0.9791
4.8779 -0.1742 -1.9977 0.9791
-1.4601 -0.0000 -0.6363 0.9936
-1.4571 -0.0521 -0.6354 0.9937
-1.4490 -0.1036 -0.6331 0.9937
-1.3956 -0.2518 -0.6180 0.9938
-1.3722 -0.4029 -0.6233 0.9938
-1.5118 -0.5639 -0.7032 0.9930
-4.2133 -1.7452 -1.9875 0.9803
-4.1485 -1.8945 -1.9876 0.9803
-4.0784 -2.0415 -1.9877 0.9803
-3.9227 -2.3274 -1.9878 0.9803
-3.8373 -2.4661 -1.9879 0.9803
-3.7470 -2.6016 -1.9880 0.9803
-3.6520 -2.7338 -1.9881 0.9803
-3.5523 -2.8626 -1.9882 0.9803
-3.3394 -3.1091 -1.9885 0.9803
-3.2265 -3.2265 -1.9886 0.9803
-3.1095 -3.3398 -1.9887 0.9803
-2.9885 -3.4489 -1.9889 0.9803
-2.8637 -3.5536 -1.9890 0.9803
-2.4680 -3.8402 -1.9895 0.9803
-2.3295 -3.9262 -1.9896 0.9803
-2.1881 -4.0072 -1.9898 0.9803
-2.0438 -4.0830 -1.9899 0.9803
-1.8969 -4.1537 -1.9901 0.9803
-1.7476 -4.2191 -1.9903 0.9803
-1.4424 -4.3338 -1.9906 0.9803
-1.1298 -4.4264 -1.9910 0.9803
-0.9712 -4.4643 -1.9911 0.9803
-0.8113 -4.4966 -1.9913 0.9803
-0.6503 -4.5230 -1.9915 0.9803
0.1632 -4.5687 -1.9924 0.9802
0.3262 -4.5604 -1.9926 0.9802
0.4888 -4.5463 -1.9928 0.9802
1.5989 -4.2868 -1.9940 0.9802
1.9010 -4.1626 -1.9943 0.9802
2.1934 -4.0170 -1.9947 0.9802
2.3356 -3.9365 -1.9948 0.9802
2.6109 -3.7604 -1.9951 0.9802
2.8729 -3.5651 -1.9954 0.9802
2.9985 -3.4605 -1.9956 0.9802
3.1203 -3.3515 -1.9957 0.9802
3.2382 -3.2382 -1.9958 0.9802
3.3519 -3.1208 -1.9960 0.9802
3.4614 -2.9993 -1.9961 0.9802
3.5664 -2.8740 -1.9962 0.9802
3.6670 -2.7451 -1.9963 0.9802
3.8538 -2.4767 -1.9965 0.9802
4.0211 -2.1957 -1.9967 0.9802
4.2333 -1.7535 -1.9969 0.9802
4.3969 -1.2911 -1.9971 0.9802
4.4402 -1.1333 -1.9972 0.9802
4.4780 -0.9741 -1.9972 0.9802
4.5800 -0.1636 -1.9973 0.9802
-1.2362 -0.0884 -0.5737 0.9946
-1.2261 -0.1318 -0.5708 0.9946
-1.2124 -0.1743 -0.5670 0.9946
-1.1974 -0.2161 -0.5632 0.9947
-1.1575 -0.2954 -0.5529 0.9947
-1.1536 -0.3840 -0.5628 0.9947
-3.9064 -1.7840 -1.9879 0.9812
-3.8404 -1.9224 -1.9879 0.9812
-3.6134 -2.3222 -1.9882 0.9812
-3.5283 -2.4498 -1.9883 0.9812
-3.0381 -3.0382 -1.9888 0.9812
-2.9279 -3.1449 -1.9889 0.9812
-2.8140 -3.2476 -1.9891 0.9812
-2.1935 -3.6969 -1.9898 0.9812
-1.9244 -3.8445 -1.9901 0.9812
-1.7861 -3.9111 -1.9902 0.9812
-1.6455 -3.9726 -1.9904 0.9812
-1.5028 -4.0292 -1.9905 0.9812
-1.3582 -4.0806 -1.9907 0.9812
-0.7639 -4.2337 -1.9914 0.9812
-0.4600 -4.2782 -1.9917 0.9812
-0.0000 -4.3039 -1.9922 0.9812
0.1536 -4.3015 -1.9924 0.9812
0.3071 -4.2937 -1.9926 0.9812
0.6127 -4.2616 -1.9929 0.9812
0.9153 -4.2077 -1.9932 0.9812
1.5053 -4.0359 -1.9939 0.9812
1.6485 -3.9800 -1.9941 0.9812
1.7897 -3.9189 -1.9942 0.9812
1.9286 -3.8528 -1.9944 0.9812
2.0650 -3.7818 -1.9945 0.9812
2.1989 -3.7060 -1.9947 0.9812
2.3299 -3.6254 -1.9948 0.9812
2.4580 -3.5402 -1.9950 0.9812
2.8229 -3.2578 -1.9954 0.9812
3.0485 -3.0485 -1.9956 0.9812
3.1556 -2.9380 -1.9957 0.9812
3.2586 -2.8236 -1.9958 0.9812
3.4521 -2.5842 -1.9961 0.9812
3.5423 -2.4595 -1.9962 0.9812
3.6280 -2.3316 -1.9963 0.9812
3.7855 -2.0670 -1.9964 0.9812
3.9236 -1.7919 -1.9966 0.9812
3.9852 -1.6507 -1.9967 0.9812
4.0417 -1.5075 -1.9967 0.9812
4.1800 -1.0669 -1.9969 0.9812
4.2155 -0.9170 -1.9969 0.9812
4.2456 -0.7660 -1.9970 0.9812
4.3033 -0.3078 -1.9970 0.9812
-1.0817 -0.0000 -0.5306 0.9952
-1.0769 -0.0770 -0.5296 0.9952
-1.0611 -0.1526 -0.5258 0.9952
-1.0422 -0.2267 -0.5232 0.9953
-1.0307 -0.2631 -0.5218 0.9953
-1.0025 -0.3337 -0.5183 0.9953
-3.5575 -1.9425 -1.9882 0.9821
-3.4860 -2.0684 -1.9883 0.9821
-3.3299 -2.3120 -1.9885 0.9821
-3.1568 -2.5439 -1.9887 0.9821
-3.0641 -2.6551 -1.9888 0.9821
-2.6557 -3.0649 -1.9892 0.9821
-2.4306 -3.2469 -1.9895 0.9821
-2.1931 -3.4125 -1.9898 0.9821
-1.9443 -3.5607 -1.9900 0.9821
-1.8161 -3.6281 -1.9902 0.9821
-1.2817 -3.8508 -1.9908 0.9821
-1.0039 -3.9330 -1.9911 0.9821
-0.8629 -3.9667 -1.9912 0.9821
-0.5778 -4.0188 -1.9916 0.9821
-0.4341 -4.0372 -1.9917 0.9821
-0.1450 -4.0585 -1.9921 0.9821
0.2898 -4.0517 -1.9925 0.9821
0.4342 -4.0391 -1.9927 0.9821
0.7214 -3.9985 -1.9930 0.9821
1.1450 -3.8994 -1.9935 0.9821
1.5556 -3.7555 -1.9939 0.9821
1.8198 -3.6355 -1.9942 0.9820
2.1985 -3.4209 -1.9947 0.9820
2.3193 -3.3405 -1.9948 0.9820
2.5520 -3.1669 -1.9951 0.9820
2.6636 -3.0740 -1.9952 0.9820
2.9775 -2.7721 -1.9955 0.9820
3.1680 -2.5529 -1.9957 0.9820
3.2573 -2.4384 -1.9958 0.9820
3.3424 -2.3207 -1.9959 0.9820
3.6392 -1.8217 -1.9963 0.9820
3.7020 -1.6907 -1.9963 0.9820
3.7602 -1.5575 -1.9964 0.9820
3.9439 -1.0067 -1.9966 0.9820
3.9774 -0.8652 -1.9967 0.9820
4.0291 -0.5793 -1.9967 0.9820
4.0473 -0.4351 -1.9967 0.9820
4.0603 -0.2904 -1.9967 0.9820
4.0681 -0.1453 -1.9968 0.9820
-0.9895 -0.0000 -0.5133 0.9956
-0.9893 -0.0353 -0.5135 0.9955
-0.9628 -0.2095 -0.5112 0.9956
-0.9404 -0.2761 -0.5085 0.9956
-0.9268 -0.3085 -0.5067 0.9956
-3.2248 -2.0724 -1.9886 0.9829
-2.9851 -2.4056 -1.9889 0.9829
-2.8975 -2.5107 -1.9890 0.9829
-2.8062 -2.6127 -1.9891 0.9829
-2.6129 -2.8065 -1.9893 0.9829
-2.4064 -2.9861 -1.9895 0.9829
-1.9574 -3.2990 -1.9900 0.9829
-1.7173 -3.4307 -1.9903 0.9829
-1.5939 -3.4900 -1.9904 0.9829
-1.4684 -3.5450 -1.9906 0.9829
-1.2119 -3.6412 -1.9909 0.9829
-0.9492 -3.7189 -1.9912 0.9829
-0.8159 -3.7507 -1.9913 0.9829
-0.4104 -3.8173 -1.9918 0.9828
-0.2739 -3.8298 -1.9919 0.9828
-0.1371 -3.8375 -1.9921 0.9828
-0.0000 -3.8402 -1.9922 0.9828
0.1371 -3.8380 -1.9924 0.9828
0.2740 -3.8310 -1.9925 0.9828
0.4106 -3.8191 -1.9927 0.9828
0.5467 -3.8023 -1.9928 0.9828
0.8167 -3.7542 -1.9931 0.9828
0.9502 -3.7229 -1.9933 0.9828
1.0826 -3.6869 -1.9934 0.9828
1.2136 -3.6462 -1.9936 0.9828
1.3430 -3.6008 -1.9937 0.9828
1.4708 -3.5508 -1.9939 0.9828
1.5967 -3.4963 -1.9940 0.9828
1.8423 -3.3739 -1.9943 0.9828
2.0786 -3.2343 -1.9945 0.9828
2.1928 -3.1583 -1.9947 0.9828
2.3043 -3.0782 -1.9948 0.9828
2.4129 -2.9942 -1.9949 0.9828
2.8150 -2.6209 -1.9954 0.9828
2.9951 -2.4137 -1.9956 0.9828
3.1600 -2.1940 -1.9957 0.9828
3.2364 -2.0799 -1.9958 0.9828
3.3770 -1.8439 -1.9960 0.9828
3.4406 -1.7223 -1.9961 0.9828
3.5549 -1.4725 -1.9962 0.9828
3.6053 -1.3447 -1.9962 0.9828
3.6511 -1.2152 -1.9963 0.9828
3.7603 -0.8180 -1.9964 0.9828
3.7872 -0.6833 -1.9964 0.9828
3.8092 -0.5477 -1.9965 0.9828
3.8264 -0.4114 -1.9965 0.9828
3.8460 -0.1374 -1.9965 0.9828
-0.9182 -0.0000 -0.5029 0.9958
-0.9179 -0.0328 -0.5031 0.9958
-0.9077 -0.1305 -0.5022 0.9958
-0.9011 -0.1626 -0.5015 0.9958
-0.8932 -0.1943 -0.5006 0.9958
-0.8837 -0.2256 -0.4995 0.9958
-0.8603 -0.2863 -0.4966 0.9959
-0.8465 -0.3157 -0.4948 0.9959
-0.8516 -0.4263 -0.5216 0.9957
-0.8507 -0.4645 -0.5309 0.9956
-2.9829 -2.0710 -1.9889 0.9836
-2.9072 -2.1763 -1.9890 0.9836
-2.8278 -2.2787 -1.9891 0.9836
-2.5683 -2.5683 -1.9893 0.9836
-2.4752 -2.6585 -1.9894 0.9836
-2.2794 -2.8286 -1.9897 0.9836
-2.1772 -2.9083 -1.9898 0.9836
-2.0721 -2.9844 -1.9899 0.9836
-1.5098 -3.3059 -1.9905 0.9836
-1.2702 -3.4056 -1.9908 0.9836
-1.1480 -3.4490 -1.9909 0.9836
-0.8991 -3.5226 -1.9912 0.9836
-0.7729 -3.5528 -1.9913 0.9836
-0.6456 -3.5783 -1.9915 0.9836
-0.5175 -3.5993 -1.9916 0.9836
-0.1298 -3.6348 -1.9921 0.9835
0.1298 -3.6354 -1.9924 0.9835
0.3889 -3.6173 -1.9926 0.9835
0.5178 -3.6014 -1.9928 0.9835
0.7735 -3.5558 -1.9931 0.9835
0.9000 -3.5262 -1.9932 0.9835
1.3930 -3.3631 -1.9938 0.9835
1.5123 -3.3115 -1.9939 0.9835
1.6296 -3.2556 -1.9940 0.9835
1.8580 -3.1315 -1.9943 0.9835
1.9687 -3.0634 -1.9944 0.9835
2.1825 -2.9154 -1.9946 0.9835
2.4820 -2.6659 -1.9950 0.9835
2.5757 -2.5758 -1.9951 0.9835
2.6662 -2.4823 -1.9952 0.9835
2.7532 -2.3857 -1.9953 0.9835
2.8367 -2.2860 -1.9954 0.9835
2.9166 -2.1834 -1.9955 0.9835
3.0652 -1.9699 -1.9956 0.9835
3.1337 -1.8593 -1.9957 0.9835
3.2586 -1.6311 -1.9958 0.9835
3.3148 -1.5138 -1.9959 0.9835
3.3668 -1.3946 -1.9960 0.9835
3.4579 -1.1509 -1.9961 0.9835
3.5314 -0.9013 -1.9962 0.9835
3.5614 -0.7747 -1.9962 0.9835
3.6239 -0.3896 -1.9963 0.9835
3.6355 -0.2600 -1.9963 0.9835
-0.8548 -0.0305 -0.4938 0.9961
-0.8499 -0.0914 -0.4935 0.9961
-0.8453 -0.1216 -0.4930 0.9961
-0.8318 -0.1810 -0.4915 0.9961
-0.8230 -0.2101 -0.4904 0.9961
-0.8128 -0.2387 -0.4891 0.9961
-0.8014 -0.2667 -0.4876 0.9961
-0.7797 -0.3229 -0.4872 0.9961
-0.7809 -0.3567 -0.4957 0.9960
-0.7806 -0.3908 -0.5040 0.9960
-2.4366 -2.4366 -1.9895 0.9842
-2.3482 -2.5222 -1.9896 0.9842
-2.0655 -2.7592 -1.9899 0.9842
-1.9658 -2.8313 -1.9900 0.9842
-1.7590 -2.9647 -1.9902 0.9842
-1.6522 -3.0257 -1.9904 0.9842
-1.4323 -3.1363 -1.9906 0.9842
-1.3195 -3.1856 -1.9907 0.9842
-1.0891 -3.2720 -1.9910 0.9842
-0.7332 -3.3704 -1.9914 0.9842
-0.6125 -3.3946 -1.9915 0.9842
-0.3688 -3.4301 -1.9918 0.9842
-0.2461 -3.4414 -1.9919 0.9842
-0.1232 -3.4482 -1.9921 0.9842
0.1232 -3.4487 -1.9923 0.9842
0.2462 -3.4423 -1.9925 0.9842
0.7338 -3.3732 -1.9930 0.9842
1.2067 -3.2352 -1.9936 0.9842
1.3215 -3.1903 -1.9937 0.9842
1.4346 -3.1413 -1.9938 0.9842
1.6552 -3.0314 -1.9941 0.9842
1.7625 -2.9705 -1.9942 0.9842
2.1678 -2.6901 -1.9946 0.9842
2.2625 -2.6111 -1.9947 0.9842
2.3544 -2.5288 -1.9948 0.9842
2.4433 -2.4433 -1.9949 0.9842
2.6116 -2.2630 -1.9951 0.9842
2.6908 -2.1684 -1.9952 0.9842
2.7666 -2.0711 -1.9953 0.9842
2.9076 -1.8686 -1.9955 0.9842
2.9725 -1.7637 -1.9955 0.9842
3.0337 -1.6565 -1.9956 0.9842
3.1443 -1.4360 -1.9957 0.9842
3.3170 -0.9740 -1.9959 0.9842
3.3497 -0.8550 -1.9960 0.9842
3.3781 -0.7349 -1.9960 0.9842
3.4220 -0.4920 -1.9960 0.9842
3.4374 -0.3696 -1.9960 0.9842
3.4485 -0.2467 -1.9961 0.9842
