ply
format ascii 1.0
element vertex 768
property float32 x
property float32 y
property float32 z
property float32 I
end_header
-4.3885 8.0369 0.7752 0.9639
-4.1928 8.3762 0.3693 0.9632
-4.2327 8.4558 -0.4796 0.9628
-4.2331 8.4568 -0.9079 0.9627
-4.2334 8.4572 -1.1234 0.9626
-0.2844 3.9761 -0.5648 0.9840
-0.3852 3.5832 -0.5106 0.9855
-0.6198 3.4354 -0.4946 0.9860
-0.7428 3.4145 -0.4951 0.9860
-1.1074 3.3273 -0.4969 0.9859
-0.2382 3.3302 -0.5500 0.9866
-0.3445 3.2041 -0.5309 0.9870
-0.4453 3.0970 -0.5154 0.9874
-0.5562 3.0826 -0.5160 0.9874
-0.6681 3.0714 -0.5178 0.9873
-0.7804 3.0577 -0.5199 0.9873
-1.0061 3.0228 -0.5248 0.9872
-1.1202 3.0034 -0.5281 0.9871
-1.3941 3.0527 -0.5529 0.9865
-1.5783 3.1530 -0.5809 0.9858
5.8865 7.8635 -1.8463 0.9608
5.3088 8.2607 -1.8457 0.9608
4.7043 8.6154 -1.8450 0.9608
4.3930 8.7762 -1.8447 0.9608
4.0763 8.9258 -1.8444 0.9608
3.4278 9.1904 -1.8437 0.9609
3.0970 9.3051 -1.8433 0.9609
2.7624 9.4079 -1.8430 0.9609
2.4244 9.4987 -1.8426 0.9609
2.0834 9.5773 -1.8423 0.9609
1.7399 9.6436 -1.8419 0.9609
-0.2198 3.0727 -0.5790 0.9875
-0.3210 2.9853 -0.5644 0.9879
-0.5341 2.9605 -0.5654 0.9878
-0.8666 2.9513 -0.5781 0.9876
-0.9810 2.9473 -0.5838 0.9874
-1.0975 2.9425 -0.5903 0.9873
-1.2199 2.9451 -0.5992 0.9871
-1.6197 2.9662 -0.6352 0.9863
-1.7833 3.0055 -0.6569 0.9859
-2.0921 3.2554 -0.7274 0.9844
-2.4609 3.5443 -0.8110 0.9826
9.4725 0.0000 -2.0023 0.9620
9.4665 0.3381 -2.0023 0.9620
9.4483 0.6758 -2.0023 0.9620
9.4180 1.0125 -2.0022 0.9620
9.3213 1.6818 -2.0021 0.9620
9.1769 2.3423 -2.0020 0.9620
9.0870 2.6682 -2.0019 0.9620
8.8725 3.3093 -2.0017 0.9620
8.7481 3.6236 -2.0015 0.9620
8.6126 3.9332 -2.0014 0.9620
8.1408 4.8301 -2.0009 0.9620
7.9624 5.1172 -2.0007 0.9620
7.5755 5.6710 -2.0003 0.9621
7.3675 5.9371 -2.0001 0.9621
6.1924 7.1464 -1.9988 0.9621
5.6502 7.5478 -1.9930 0.9622
5.3390 7.6896 -1.9788 0.9625
4.9477 7.6987 -1.9344 0.9633
4.2125 7.7146 -1.8580 0.9647
3.9052 7.8017 -1.8442 0.9650
3.0474 8.1704 -1.8433 0.9650
2.1555 8.4450 -1.8423 0.9650
0.2312 3.2327 -0.6851 0.9868
0.1116 3.1259 -0.6612 0.9873
-0.0000 3.0286 -0.6402 0.9877
-0.3154 2.9333 -0.6236 0.9880
-0.4192 2.9157 -0.6227 0.9880
-0.5247 2.9082 -0.6247 0.9880
-0.8496 2.8934 -0.6374 0.9877
-0.9615 2.8889 -0.6436 0.9876
-1.4521 2.9010 -0.6857 0.9868
-1.7187 2.8967 -0.7120 0.9863
-1.9077 2.9684 -0.7459 0.9857
-2.0568 2.9624 -0.7623 0.9854
-2.2704 3.0329 -0.8008 0.9846
-6.4004 6.8745 -1.9854 0.9623
-6.6408 6.6408 -1.9852 0.9623
-7.0959 6.1487 -1.9847 0.9623
-7.3100 5.8908 -1.9845 0.9623
-7.8954 5.0740 -1.9839 0.9624
-8.0707 4.7885 -1.9837 0.9624
-8.2357 4.4970 -1.9835 0.9624
-8.3903 4.1999 -1.9833 0.9624
-8.6673 3.5901 -1.9830 0.9624
-8.7893 3.2783 -1.9829 0.9624
-9.2828 1.3347 -1.9824 0.9624
8.5098 0.3039 -2.0013 0.9656
8.4282 1.2118 -2.0012 0.9656
8.1688 2.3986 -2.0009 0.9656
8.0776 2.6885 -2.0008 0.9656
7.9761 2.9749 -2.0007 0.9656
7.8644 3.2575 -2.0006 0.9656
7.7426 3.5359 -2.0005 0.9656
7.4695 4.0787 -2.0002 0.9656
7.1583 4.6004 -1.9998 0.9656
6.9890 4.8525 -1.9997 0.9656
6.8107 5.0984 -1.9995 0.9656
6.6237 5.3377 -1.9993 0.9656
6.4283 5.5702 -1.9991 0.9657
6.2247 5.7954 -1.9989 0.9657
6.0132 6.0132 -1.9986 0.9657
5.7941 6.2233 -1.9984 0.9657
5.3340 6.6192 -1.9979 0.9657
4.5941 7.1486 -1.9971 0.9657
4.3331 7.3031 -1.9958 0.9657
4.0643 7.4432 -1.9931 0.9658
2.5657 7.7088 -1.9095 0.9672
1.1359 3.8684 -0.9475 0.9836
0.9525 3.7319 -0.9052 0.9843
0.7843 3.6052 -0.8671 0.9850
0.4812 3.3469 -0.7947 0.9862
0.2126 2.9729 -0.7005 0.9878
0.1052 2.9463 -0.6929 0.9880
-0.0000 2.9311 -0.6889 0.9880
-0.1041 2.9155 -0.6856 0.9881
-0.4120 2.8654 -0.6804 0.9882
-0.5155 2.8572 -0.6824 0.9881
-0.6205 2.8525 -0.6861 0.9881
-0.8342 2.8409 -0.6959 0.9879
-0.9432 2.8340 -0.7020 0.9878
-1.1693 2.8230 -0.7181 0.9875
-1.8539 2.8848 -0.8059 0.9860
-2.3029 2.8577 -0.8626 0.9850
-6.3845 5.5322 -1.9855 0.9659
-6.5773 5.3003 -1.9853 0.9659
-6.9373 4.8166 -1.9849 0.9659
-7.6792 3.5070 -1.9841 0.9659
-7.7990 3.2304 -1.9840 0.9659
-8.3531 1.2010 -1.9834 0.9659
-8.3905 0.9021 -1.9833 0.9659
-8.4333 0.3012 -1.9833 0.9659
7.7262 0.0000 -2.0005 0.9686
7.7064 0.5512 -2.0004 0.9686
7.6472 1.0995 -2.0004 0.9686
7.5489 1.6422 -2.0003 0.9686
7.4852 1.9105 -2.0002 0.9686
7.4120 2.1764 -2.0001 0.9686
7.0254 3.2084 -1.9997 0.9686
6.9060 3.4569 -1.9996 0.9686
6.7777 3.7009 -1.9994 0.9686
6.4954 4.1744 -1.9991 0.9686
6.3418 4.4032 -1.9990 0.9686
5.6485 5.2589 -1.9982 0.9686
5.4566 5.4567 -1.9980 0.9686
4.8405 6.0067 -1.9974 0.9686
4.3986 6.3352 -1.9969 0.9686
4.1692 6.4874 -1.9967 0.9686
1.6963 3.7144 -1.0573 0.9833
1.4434 3.4847 -0.9766 0.9845
1.2877 3.4525 -0.9541 0.9849
1.1380 3.4190 -0.9330 0.9852
0.5768 3.1968 -0.8411 0.9867
0.4398 3.0587 -0.8001 0.9873
0.0000 2.8706 -0.7433 0.9882
-0.2037 2.8480 -0.7393 0.9883
-0.3046 2.8331 -0.7378 0.9883
-0.4049 2.8162 -0.7367 0.9883
-0.5065 2.8075 -0.7387 0.9883
-0.6097 2.8026 -0.7426 0.9882
-0.9274 2.7864 -0.7604 0.9879
-1.0370 2.7802 -0.7683 0.9878
-1.4044 2.8056 -0.8124 0.9871
-1.6364 2.7580 -0.8303 0.9868
-1.7769 2.7649 -0.8510 0.9865
-2.0894 2.7911 -0.9027 0.9857
-5.2285 5.6159 -1.9867 0.9688
-5.4251 5.4251 -1.9865 0.9688
-5.6147 5.2275 -1.9863 0.9688
-5.7971 5.0232 -1.9861 0.9688
-5.9722 4.8127 -1.9859 0.9688
-6.4508 4.1456 -1.9854 0.9688
-6.5941 3.9125 -1.9852 0.9688
-6.7291 3.6743 -1.9851 0.9688
-6.8555 3.4316 -1.9850 0.9688
-7.2724 2.4205 -1.9845 0.9688
-7.3539 2.1593 -1.9844 0.9688
-7.4886 1.6291 -1.9843 0.9688
-7.6193 0.8192 -1.9841 0.9688
-7.6436 0.5467 -1.9841 0.9688
7.0639 0.0000 -1.9997 0.9711
7.0594 0.2521 -1.9997 0.9711
7.0459 0.5039 -1.9997 0.9711
7.0233 0.7551 -1.9997 0.9711
6.9917 1.0053 -1.9997 0.9711
6.8437 1.7468 -1.9995 0.9711
6.7767 1.9898 -1.9994 0.9711
6.5243 2.7025 -1.9992 0.9711
6.4234 2.9335 -1.9991 0.9711
6.3142 3.1607 -1.9989 0.9711
6.1970 3.3838 -1.9988 0.9711
6.0719 3.6026 -1.9987 0.9711
5.6507 4.2301 -1.9982 0.9711
5.4957 4.4287 -1.9981 0.9711
5.3336 4.6216 -1.9979 0.9711
5.1648 4.8086 -1.9977 0.9711
4.8077 5.1638 -1.9973 0.9711
3.8124 5.9323 -1.9963 0.9711
3.3787 6.1877 -1.9958 0.9711
1.4585 3.1937 -0.9939 0.9855
1.1748 3.1499 -0.9517 0.9861
1.0413 3.1286 -0.9334 0.9864
0.7803 3.0572 -0.8932 0.9870
0.5363 2.9726 -0.8551 0.9875
0.4162 2.8948 -0.8279 0.9879
0.2016 2.8190 -0.8001 0.9883
0.1004 2.8105 -0.7961 0.9884
-0.0000 2.8010 -0.7929 0.9884
-0.0997 2.7906 -0.7905 0.9885
-0.1989 2.7812 -0.7894 0.9885
-0.2985 2.7768 -0.7906 0.9885
-0.4992 2.7671 -0.7960 0.9884
-0.7040 2.7581 -0.8058 0.9882
-0.8083 2.7529 -0.8122 0.9881
-0.9143 2.7471 -0.8196 0.9880
-1.0222 2.7406 -0.8280 0.9879
-1.2549 2.7479 -0.8552 0.9875
-1.3783 2.7534 -0.8717 0.9873
-1.4969 2.7413 -0.8842 0.9871
-1.6120 2.7169 -0.8943 0.9870
-1.9016 2.7389 -0.9439 0.9862
-2.0385 2.7231 -0.9630 0.9860
-2.1771 2.7017 -0.9822 0.9857
-2.6150 2.8087 -1.0864 0.9842
-4.9630 4.9630 -1.9870 0.9712
-5.1365 4.7823 -1.9868 0.9712
-5.9016 3.7927 -1.9860 0.9713
-6.1563 3.3616 -1.9857 0.9713
-6.3797 2.9135 -1.9855 0.9713
-6.4793 2.6838 -1.9854 0.9713
-6.5706 2.4507 -1.9853 0.9713
-6.7281 1.9755 -1.9851 0.9713
-6.8515 1.4904 -1.9850 0.9713
-6.9400 0.9978 -1.9849 0.9713
-6.9933 0.5002 -1.9848 0.9713
-7.0066 0.2503 -1.9848 0.9713
6.4955 0.2320 -1.9991 0.9732
6.4830 0.4637 -1.9991 0.9732
6.4623 0.6948 -1.9991 0.9732
6.4332 0.9250 -1.9991 0.9732
6.3506 1.3815 -1.9990 0.9732
5.9104 2.6992 -1.9985 0.9732
5.7022 3.1136 -1.9983 0.9732
5.5871 3.3150 -1.9982 0.9732
5.1996 3.8924 -1.9978 0.9732
5.0570 4.0752 -1.9976 0.9732
4.9079 4.2528 -1.9975 0.9732
4.4241 4.7518 -1.9969 0.9732
3.8897 5.1960 -1.9964 0.9732
3.7014 5.3310 -1.9962 0.9732
3.3109 5.5803 -1.9958 0.9732
1.6729 3.0637 -1.0737 0.9855
1.2289 2.9669 -0.9877 0.9867
0.9716 2.9191 -0.9463 0.9872
0.8489 2.8912 -0.9268 0.9875
0.5167 2.8639 -0.8951 0.9879
0.4046 2.8142 -0.8745 0.9882
0.0984 2.7550 -0.8479 0.9885
-0.0000 2.7523 -0.8466 0.9885
-0.0982 2.7490 -0.8461 0.9886
-0.1963 2.7452 -0.8465 0.9885
-0.4927 2.7309 -0.8535 0.9885
-0.5930 2.7261 -0.8581 0.9884
-1.2346 2.7033 -0.9141 0.9876
-1.8485 2.6623 -0.9969 0.9865
-2.1582 2.6781 -1.0579 0.9857
-2.5720 2.7625 -1.1610 0.9843
-4.5689 4.5689 -1.9874 0.9733
-5.4332 3.4917 -1.9865 0.9733
-5.5540 3.2953 -1.9863 0.9733
-5.6677 3.0948 -1.9862 0.9733
-5.7742 2.8904 -1.9861 0.9733
-5.8734 2.6823 -1.9860 0.9733
-6.1256 2.0388 -1.9857 0.9733
-6.3894 0.9187 -1.9855 0.9733
-6.4385 0.4605 -1.9854 0.9733
-6.4508 0.2304 -1.9854 0.9733
5.9972 0.4289 -1.9986 0.9750
5.9781 0.6427 -1.9986 0.9750
5.9168 1.0675 -1.9985 0.9750
5.8748 1.2780 -1.9985 0.9750
5.8253 1.4868 -1.9984 0.9750
5.6324 2.1008 -1.9982 0.9750
5.5536 2.3004 -1.9981 0.9750
5.4677 2.4970 -1.9980 0.9750
5.3748 2.6904 -1.9980 0.9750
5.2751 2.8804 -1.9978 0.9750
4.6784 3.7700 -1.9972 0.9750
4.5405 3.9343 -1.9971 0.9750
4.3968 4.0936 -1.9969 0.9750
4.2476 4.2476 -1.9968 0.9750
3.9331 4.5390 -1.9964 0.9750
3.7682 4.6761 -1.9962 0.9750
3.2459 5.0507 -1.9957 0.9750
1.7549 2.9577 -1.1432 0.9856
1.5675 2.8706 -1.0872 0.9863
1.4166 2.8300 -1.0520 0.9867
0.9305 2.7959 -0.9795 0.9877
0.8238 2.8058 -0.9720 0.9877
0.7174 2.8107 -0.9642 0.9878
0.6119 2.8129 -0.9569 0.9879
0.3745 2.6045 -0.8747 0.9890
0.1945 2.7191 -0.9062 0.9886
0.0971 2.7185 -0.9042 0.9886
-0.0969 2.7134 -0.9025 0.9886
-0.1938 2.7096 -0.9030 0.9886
-0.2908 2.7052 -0.9044 0.9886
-0.5852 2.6902 -0.9152 0.9885
-0.9934 2.6634 -0.9449 0.9881
-1.0998 2.6552 -0.9553 0.9880
-1.2122 2.6544 -0.9700 0.9878
-1.4474 2.6508 -1.0039 0.9873
-1.6978 2.6418 -1.0439 0.9869
-1.8329 2.6398 -1.0683 0.9865
-2.1386 2.6538 -1.1329 0.9857
-2.3146 2.6712 -1.1749 0.9852
-4.3763 4.0745 -1.9876 0.9751
-4.5186 3.9154 -1.9874 0.9751
-5.4360 2.4825 -1.9865 0.9751
-5.5988 2.0882 -1.9863 0.9751
-5.7331 1.6834 -1.9861 0.9751
-5.7893 1.4776 -1.9861 0.9751
-5.8382 1.2700 -1.9860 0.9751
-5.8797 1.0608 -1.9860 0.9751
-5.9137 0.8503 -1.9860 0.9751
-5.9592 0.4262 -1.9859 0.9751
-5.9705 0.2132 -1.9859 0.9751
5.5876 0.0000 -1.9982 0.9765
5.5841 0.1994 -1.9982 0.9765
5.5555 0.5973 -1.9981 0.9765
5.3009 1.7643 -1.9979 0.9765
5.2343 1.9523 -1.9978 0.9765
5.0813 2.3206 -1.9976 0.9765
4.9950 2.5004 -1.9975 0.9766
4.9023 2.6769 -1.9974 0.9766
4.8034 2.8500 -1.9973 0.9766
4.4705 3.3466 -1.9970 0.9766
4.3479 3.5037 -1.9969 0.9766
4.2198 3.6565 -1.9967 0.9766
4.0863 3.8045 -1.9966 0.9766
3.9476 3.9476 -1.9964 0.9766
3.6554 4.2185 -1.9961 0.9766
3.5022 4.3459 -1.9960 0.9766
3.0168 4.6942 -1.9954 0.9766
1.4965 2.7406 -1.1166 0.9868
1.3557 2.7084 -1.0831 0.9872
1.2368 2.7083 -1.0647 0.9874
1.1207 2.7056 -1.0473 0.9876
1.0102 2.7086 -1.0338 0.9878
0.6966 2.7291 -1.0072 0.9881
0.5945 2.7329 -1.0002 0.9882
0.2652 2.4667 -0.8872 0.9895
0.1917 2.6806 -0.9610 0.9886
0.0957 2.6801 -0.9590 0.9887
-0.0000 2.6789 -0.9580 0.9887
-0.0956 2.6770 -0.9579 0.9887
-0.1913 2.6744 -0.9588 0.9887
-0.3832 2.6649 -0.9628 0.9886
-0.4799 2.6598 -0.9665 0.9886
-0.5775 2.6548 -0.9716 0.9885
-0.6761 2.6490 -0.9777 0.9885
-0.7759 2.6425 -0.9849 0.9884
-1.0908 2.6333 -1.0193 0.9880
-1.3224 2.6418 -1.0565 0.9875
-1.4405 2.6381 -1.0749 0.9873
-1.5588 2.6272 -1.0924 0.9871
-1.6858 2.6232 -1.1151 0.9868
-1.8167 2.6166 -1.1391 0.9866
-1.9574 2.6148 -1.1680 0.9862
-2.2927 2.6459 -1.2520 0.9852
-2.5376 2.7256 -1.3317 0.9843
-3.9311 3.9311 -1.9881 0.9767
-4.0686 3.7880 -1.9879 0.9767
-4.2009 3.6401 -1.9878 0.9767
-4.4493 3.3307 -1.9875 0.9767
-4.5650 3.1696 -1.9874 0.9767
-4.6750 3.0044 -1.9873 0.9767
-4.8769 2.6630 -1.9871 0.9767
-5.0539 2.3081 -1.9869 0.9767
-5.1329 2.1261 -1.9868 0.9767
-5.3302 1.5651 -1.9866 0.9767
-5.4280 1.1808 -1.9865 0.9767
-5.4665 0.9863 -1.9864 0.9767
-5.4982 0.7905 -1.9864 0.9767
-5.5404 0.3963 -1.9864 0.9767
5.2098 0.1861 -1.9978 0.9779
5.1998 0.3719 -1.9978 0.9779
5.0014 1.4686 -1.9976 0.9779
4.8836 1.8215 -1.9974 0.9779
4.8153 1.9946 -1.9974 0.9779
4.7409 2.1651 -1.9973 0.9779
4.6604 2.3328 -1.9972 0.9779
4.4817 2.6591 -1.9970 0.9779
4.2801 2.9717 -1.9968 0.9779
4.0567 3.2691 -1.9966 0.9779
3.9372 3.4116 -1.9964 0.9779
3.8126 3.5497 -1.9963 0.9779
3.6833 3.6833 -1.9962 0.9779
3.5492 3.8121 -1.9960 0.9779
3.2677 4.0550 -1.9957 0.9779
3.1207 4.1687 -1.9956 0.9779
2.8148 4.3800 -1.9952 0.9779
1.6215 2.7329 -1.2178 0.9865
1.3272 2.6515 -1.1363 0.9874
1.2142 2.6588 -1.1201 0.9876
1.1055 2.6690 -1.1071 0.9877
0.9941 2.6654 -1.0901 0.9879
0.8831 2.6531 -1.0716 0.9881
0.7764 2.6441 -1.0561 0.9883
0.6739 2.6404 -1.0443 0.9884
0.5762 2.6487 -1.0388 0.9885
-0.0943 2.6391 -1.0120 0.9888
-0.1886 2.6365 -1.0129 0.9887
-0.3781 2.6296 -1.0181 0.9887
-0.4745 2.6297 -1.0240 0.9886
-0.6710 2.6290 -1.0398 0.9884
-0.7718 2.6284 -1.0498 0.9883
-0.9797 2.6268 -1.0744 0.9881
-1.2002 2.6280 -1.1071 0.9877
-1.3179 2.6327 -1.1282 0.9875
-1.4351 2.6282 -1.1475 0.9873
-1.6739 2.6046 -1.1865 0.9868
-2.0995 2.6053 -1.2822 0.9858
-3.9207 3.3973 -1.9881 0.9780
-4.0392 3.2550 -1.9879 0.9780
-4.2606 2.9582 -1.9877 0.9780
-4.6373 2.3213 -1.9873 0.9780
-4.7170 2.1542 -1.9872 0.9780
-4.7907 1.9844 -1.9872 0.9780
-4.9197 1.6375 -1.9870 0.9780
-5.1022 0.9205 -1.9868 0.9780
-5.1317 0.7378 -1.9868 0.9780
-5.1712 0.3699 -1.9867 0.9780
-5.1811 0.1851 -1.9867 0.9780
4.8679 0.3482 -1.9974 0.9791
4.8524 0.5217 -1.9974 0.9791
4.8306 0.6945 -1.9974 0.9791
4.8027 0.8665 -1.9973 0.9791
4.7284 1.2069 -1.9973 0.9791
4.6822 1.3748 -1.9972 0.9791
4.5719 1.7052 -1.9971 0.9791
4.5080 1.8673 -1.9970 0.9791
4.4383 2.0269 -1.9970 0.9791
4.3630 2.1840 -1.9969 0.9791
3.6860 3.1940 -1.9962 0.9791
3.5694 3.3233 -1.9960 0.9791
2.9217 3.9029 -1.9953 0.9791
2.7803 4.0044 -1.9952 0.9792
2.6354 4.1007 -1.9950 0.9792
1.3176 2.6323 -1.2048 0.9874
1.1985 2.6244 -1.1808 0.9876
0.8750 2.6290 -1.1340 0.9881
0.7696 2.6210 -1.1180 0.9883
0.5702 2.6211 -1.0978 0.9885
0.1872 2.6174 -1.0740 0.9887
0.0935 2.6184 -1.0723 0.9887
0.0000 2.6192 -1.0720 0.9887
-0.0936 2.6198 -1.0729 0.9887
-0.2817 2.6204 -1.0787 0.9887
-0.3768 2.6205 -1.0835 0.9886
-0.4729 2.6209 -1.0900 0.9886
-0.5703 2.6217 -1.0981 0.9885
-0.8721 2.6202 -1.1302 0.9881
-0.9769 2.6192 -1.1441 0.9880
-1.1965 2.6199 -1.1788 0.9876
-1.3120 2.6209 -1.1996 0.9874
-1.4286 2.6162 -1.2200 0.9872
-1.5443 2.6028 -1.2387 0.9870
-1.7237 2.6822 -1.3049 0.9863
-1.9519 2.6074 -1.3330 0.9860
-2.1363 2.6510 -1.3935 0.9854
-2.2689 2.6185 -1.4180 0.9851
-2.5430 2.7313 -1.5274 0.9840
-3.7826 3.0482 -1.9882 0.9792
-3.8887 2.9111 -1.9881 0.9792
-4.0861 2.6260 -1.9879 0.9792
-4.1770 2.4783 -1.9878 0.9792
-4.3428 2.1738 -1.9876 0.9792
-4.4865 1.8584 -1.9875 0.9792
-4.6073 1.5334 -1.9873 0.9792
-4.7782 0.8621 -1.9872 0.9792
-4.8058 0.6910 -1.9871 0.9792
-4.8274 0.5190 -1.9871 0.9792
-4.8428 0.3464 -1.9871 0.9792
4.5825 0.0000 -1.9971 0.9802
4.5707 0.3269 -1.9971 0.9802
4.4398 1.1332 -1.9970 0.9802
4.3964 1.2909 -1.9969 0.9802
4.3474 1.4470 -1.9969 0.9802
4.2328 1.7533 -1.9967 0.9802
4.1674 1.9032 -1.9967 0.9802
3.8535 2.4765 -1.9963 0.9802
3.7625 2.6123 -1.9962 0.9802
3.5662 2.8738 -1.9960 0.9802
3.4611 2.9991 -1.9959 0.9802
3.2380 3.2380 -1.9957 0.9802
3.1201 3.3513 -1.9956 0.9802
2.9983 3.4603 -1.9954 0.9802
2.8727 3.5649 -1.9953 0.9802
2.7435 3.6648 -1.9952 0.9802
1.5719 2.6493 -1.3426 0.9866
1.4343 2.6268 -1.3044 0.9870
1.3080 2.6130 -1.2735 0.9873
1.0770 2.6002 -1.2266 0.9878
0.7668 2.6116 -1.1862 0.9882
0.6679 2.6169 -1.1771 0.9883
0.5684 2.6131 -1.1655 0.9884
0.3750 2.6080 -1.1483 0.9886
0.1866 2.6087 -1.1398 0.9887
-0.0000 2.6100 -1.1375 0.9887
-0.0932 2.6106 -1.1385 0.9887
-0.2807 2.6112 -1.1446 0.9886
-0.3754 2.6112 -1.1497 0.9886
-0.5683 2.6124 -1.1651 0.9884
-0.8696 2.6126 -1.2000 0.9881
-0.9741 2.6115 -1.2147 0.9879
-1.0812 2.6103 -1.2313 0.9877
-1.3060 2.6090 -1.2716 0.9873
-1.6751 2.6065 -1.3503 0.9866
-1.8108 2.6080 -1.3837 0.9862
-2.2684 2.6178 -1.5096 0.9850
-3.1098 3.3401 -1.9889 0.9803
-3.5526 2.8629 -1.9885 0.9803
-4.0789 2.0417 -1.9879 0.9803
-1.3722 0.4029 -0.6233 0.9938
-1.3400 0.3420 -0.6027 0.9940
-1.3688 0.2978 -0.6105 0.9939
-1.4180 0.2039 -0.6244 0.9938
-1.4360 0.1544 -0.6294 0.9937
4.3111 0.1540 -1.9968 0.9812
4.3028 0.3078 -1.9968 0.9812
4.2891 0.4611 -1.9968 0.9812
4.2452 0.7659 -1.9968 0.9812
4.1387 1.2152 -1.9966 0.9812
3.8566 1.9305 -1.9963 0.9812
3.7851 2.0669 -1.9963 0.9812
3.6277 2.3314 -1.9961 0.9812
3.3572 2.7054 -1.9958 0.9812
3.2584 2.8234 -1.9957 0.9812
2.7045 3.3561 -1.9951 0.9812
2.4579 3.5400 -1.9949 0.9812
1.7884 2.7828 -1.5312 0.9855
1.4236 2.8440 -1.4722 0.9861
1.1854 2.5956 -1.3208 0.9875
1.0753 2.5961 -1.3007 0.9877
0.9827 2.6349 -1.3017 0.9877
0.7650 2.6053 -1.2568 0.9881
0.6659 2.6090 -1.2464 0.9882
0.5667 2.6053 -1.2341 0.9883
0.4693 2.6014 -1.2236 0.9884
0.3737 2.5989 -1.2154 0.9885
0.2795 2.5997 -1.2103 0.9885
0.0929 2.6008 -1.2047 0.9886
-0.0000 2.6012 -1.2040 0.9886
-0.0929 2.6013 -1.2049 0.9886
-0.1861 2.6017 -1.2074 0.9886
-0.3741 2.6018 -1.2167 0.9885
-0.4695 2.6023 -1.2240 0.9884
-0.5662 2.6029 -1.2330 0.9883
-0.6645 2.6033 -1.2437 0.9882
-0.7645 2.6035 -1.2560 0.9881
-0.8665 2.6035 -1.2701 0.9880
-0.9710 2.6033 -1.2861 0.9878
-1.0780 2.6024 -1.3039 0.9877
-1.5574 2.6249 -1.4128 0.9866
-1.8117 2.6093 -1.4704 0.9861
-2.1020 2.6085 -1.5507 0.9853
-2.2658 2.6148 -1.6016 0.9849
-2.9282 3.1451 -1.9891 0.9812
-3.1448 2.9279 -1.9889 0.9812
-3.6138 2.3224 -1.9884 0.9812
-3.6942 2.1919 -1.9883 0.9812
-1.2017 0.4482 -0.5937 0.9944
-1.1575 0.2954 -0.5529 0.9947
-1.1790 0.2565 -0.5585 0.9947
-1.2261 0.1318 -0.5708 0.9946
4.0703 0.0000 -1.9966 0.9820
4.0469 0.4351 -1.9965 0.9820
3.9771 0.8652 -1.9965 0.9820
3.9436 1.0065 -1.9964 0.9820
3.9051 1.1467 -1.9964 0.9820
3.6389 1.8215 -1.9961 0.9820
3.5714 1.9502 -1.9960 0.9820
3.4994 2.0763 -1.9960 0.9820
3.2570 2.4382 -1.9957 0.9820
3.0745 2.6641 -1.9955 0.9820
2.8763 2.8763 -1.9953 0.9820
2.6635 3.0738 -1.9951 0.9820
2.5519 3.1667 -1.9950 0.9820
1.1858 2.5966 -1.4002 0.9874
1.0758 2.5972 -1.3789 0.9876
0.8673 2.6059 -1.3472 0.9878
0.6639 2.6010 -1.3167 0.9881
0.5650 2.5973 -1.3039 0.9882
0.4679 2.5937 -1.2928 0.9883
0.2786 2.5911 -1.2783 0.9885
0.0926 2.5923 -1.2724 0.9885
-0.0000 2.5926 -1.2718 0.9885
-0.0926 2.5928 -1.2726 0.9885
-0.3727 2.5923 -1.2847 0.9884
-0.6620 2.5936 -1.3130 0.9881
-0.9682 2.5957 -1.3589 0.9877
-1.1857 2.5964 -1.4001 0.9874
-1.5463 2.6061 -1.4864 0.9866
-1.6764 2.6085 -1.5210 0.9863
-2.7635 2.9682 -1.9893 0.9821
-2.8675 2.8675 -1.9892 0.9821
-2.9679 2.7632 -1.9891 0.9821
-3.3302 2.3122 -1.9887 0.9821
-3.4105 2.1918 -1.9886 0.9821
-3.4864 2.0686 -1.9885 0.9821
-3.5579 1.9428 -1.9885 0.9821
-1.0444 0.4770 -0.5632 0.9949
-1.0290 0.4262 -0.5463 0.9951
-1.0025 0.3337 -0.5183 0.9953
-1.0175 0.2988 -0.5202 0.9953
-1.0307 0.2631 -0.5218 0.9953
-1.0422 0.2267 -0.5232 0.9953
-1.0518 0.1898 -0.5242 0.9952
-1.0705 0.1151 -0.5281 0.9952
-1.0769 0.0770 -0.5296 0.9952
-1.0803 0.0386 -0.5302 0.9952
3.8481 0.0000 -1.9963 0.9828
3.8383 0.2745 -1.9963 0.9828
3.8260 0.4113 -1.9963 0.9828
3.7869 0.6832 -1.9963 0.9828
3.7600 0.8179 -1.9962 0.9828
3.6050 1.3446 -1.9961 0.9828
3.4997 1.5983 -1.9960 0.9828
3.3085 1.9630 -1.9958 0.9828
3.1598 2.1939 -1.9956 0.9828
3.0793 2.3052 -1.9955 0.9828
2.9949 2.4135 -1.9954 0.9828
2.8149 2.6207 -1.9952 0.9828
2.7194 2.7194 -1.9951 0.9828
2.5182 2.9062 -1.9949 0.9828
2.4127 2.9940 -1.9948 0.9828
2.3042 3.0780 -1.9947 0.9828
2.1927 3.1581 -1.9946 0.9828
1.4616 2.6767 -1.5821 0.9864
1.1863 2.5976 -1.4814 0.9872
0.9691 2.5983 -1.4387 0.9876
0.8646 2.5976 -1.4203 0.9877
0.7763 2.6438 -1.4295 0.9877
0.6635 2.5995 -1.3918 0.9880
0.4682 2.5950 -1.3679 0.9882
0.3736 2.5983 -1.3618 0.9882
0.1856 2.5957 -1.3501 0.9883
0.0927 2.5947 -1.3469 0.9884
0.0000 2.5938 -1.3456 0.9884
-0.1854 2.5924 -1.3483 0.9884
-0.3723 2.5895 -1.3572 0.9883
-0.4673 2.5900 -1.3653 0.9882
-0.6618 2.5928 -1.3882 0.9880
-0.7618 2.5943 -1.4027 0.9879
-0.8640 2.5959 -1.4193 0.9877
-0.9683 2.5960 -1.4374 0.9876
-1.0751 2.5955 -1.4574 0.9874
-1.1850 2.5948 -1.4799 0.9872
-2.6132 2.8067 -1.9895 0.9829
-2.8065 2.6129 -1.9893 0.9829
-3.2251 2.0726 -1.9888 0.9829
-3.2969 1.9561 -1.9887 0.9829
-0.9486 0.5180 -0.5607 0.9951
-0.9416 0.4713 -0.5462 0.9953
-0.9271 0.3840 -0.5206 0.9955
-0.9785 0.1407 -0.5129 0.9956
-0.9893 0.0353 -0.5135 0.9955
3.6445 0.0000 -1.9961 0.9835
3.6422 0.1301 -1.9961 0.9835
3.6236 0.3896 -1.9961 0.9835
3.6073 0.5187 -1.9961 0.9835
3.5865 0.6471 -1.9961 0.9835
3.4966 1.0267 -1.9960 0.9835
3.3666 1.3945 -1.9958 0.9835
3.1979 1.7462 -1.9956 0.9835
2.9926 2.0778 -1.9954 0.9835
2.9165 2.1832 -1.9953 0.9835
2.8365 2.2858 -1.9953 0.9835
2.6660 2.4821 -1.9951 0.9835
2.5756 2.5756 -1.9950 0.9835
2.4819 2.6657 -1.9949 0.9835
2.1824 2.9153 -1.9946 0.9835
2.0768 2.9912 -1.9944 0.9835
1.9686 3.0632 -1.9943 0.9835
1.1866 2.5983 -1.5645 0.9871
1.0768 2.5996 -1.5411 0.9872
0.5650 2.5974 -1.4559 0.9880
0.4693 2.6012 -1.4477 0.9880
0.2799 2.6033 -1.4340 0.9881
0.1861 2.6020 -1.4288 0.9882
-0.0000 2.5998 -1.4239 0.9882
-0.5641 2.5931 -1.4535 0.9880
-0.6622 2.5946 -1.4666 0.9879
-0.8636 2.5948 -1.4978 0.9876
-1.0744 2.5938 -1.5377 0.9873
-1.1843 2.5933 -1.5614 0.9871
-1.4832 2.7162 -1.6950 0.9860
-1.6767 2.6089 -1.6986 0.9860
-2.1014 2.6077 -1.8343 0.9848
-2.3790 2.7455 -1.9897 0.9836
-2.4754 2.6587 -1.9896 0.9836
-2.5685 2.5685 -1.9895 0.9836
-2.7450 2.3785 -1.9893 0.9836
-0.8524 0.5057 -0.5428 0.9955
-0.8507 0.4645 -0.5309 0.9956
-0.8516 0.4263 -0.5216 0.9957
-0.8479 0.3512 -0.5027 0.9958
-0.8727 0.2562 -0.4982 0.9959
-0.8837 0.2256 -0.4995 0.9958
-0.8932 0.1943 -0.5006 0.9958
-0.9011 0.1626 -0.5015 0.9958
-0.9127 0.0981 -0.5028 0.9958
-0.9161 0.0655 -0.5030 0.9958
3.4570 0.0000 -1.9959 0.9842
3.4548 0.1234 -1.9959 0.9842
3.4482 0.2466 -1.9959 0.9842
3.4372 0.3695 -1.9959 0.9842
3.4020 0.6138 -1.9959 0.9842
3.3779 0.7348 -1.9958 0.9842
3.3494 0.8549 -1.9958 0.9842
3.3167 0.9739 -1.9958 0.9842
3.2798 1.0916 -1.9957 0.9842
3.2387 1.2080 -1.9957 0.9842
3.1441 1.4359 -1.9956 0.9842
3.0908 1.5471 -1.9955 0.9842
2.8387 1.9710 -1.9953 0.9842
2.5289 2.3545 -1.9949 0.9842
2.4432 2.4432 -1.9948 0.9842
2.2624 2.6110 -1.9946 0.9842
2.0702 2.7654 -1.9944 0.9842
1.9701 2.8374 -1.9943 0.9842
1.2997 2.5965 -1.6764 0.9867
1.0772 2.6006 -1.6252 0.9871
0.9698 2.6002 -1.6022 0.9873
0.7004 2.7441 -1.6351 0.9870
0.5661 2.6023 -1.5376 0.9878
0.4703 2.6067 -1.5293 0.9878
0.3754 2.6107 -1.5228 0.9879
0.2804 2.6085 -1.5147 0.9880
0.1864 2.6062 -1.5085 0.9880
0.0930 2.6039 -1.5043 0.9880
-0.0928 2.5994 -1.5017 0.9881
-0.1858 2.5973 -1.5034 0.9880
-0.2790 2.5952 -1.5069 0.9880
-0.5643 2.5942 -1.5328 0.9878
-0.6621 2.5939 -1.5456 0.9877
-0.7615 2.5936 -1.5606 0.9876
-0.8632 2.5935 -1.5781 0.9875
-0.9673 2.5934 -1.5980 0.9873
-1.0740 2.5929 -1.6204 0.9871
-1.2975 2.5920 -1.6735 0.9867
-1.5465 2.6064 -1.7497 0.9861
-1.6761 2.6081 -1.7899 0.9858
-1.8113 2.6088 -1.8337 0.9854
-2.1627 2.6837 -1.9899 0.9842
-2.3484 2.5224 -1.9897 0.9842
-2.4368 2.4368 -1.9897 0.9842
-2.5221 2.3482 -1.9896 0.9842
-2.6042 2.2566 -1.9895 0.9842
-2.6830 2.1621 -1.9894 0.9842
-0.7696 0.4946 -0.5282 0.9958
-0.7806 0.3908 -0.5040 0.9960
-0.7809 0.3566 -0.4957 0.9960
-0.7796 0.3229 -0.4872 0.9961
-0.8230 0.2101 -0.4904 0.9961
-0.8499 0.0914 -0.4935 0.9961
