ply
format ascii 1.0
element vertex 726
property float32 x
property float32 y
property float32 z
property float32 I
end_header
-3.7136 8.9653 0.8215 0.9618
-4.3176 8.6254 0.8165 0.9620
-4.6092 8.4412 0.8142 0.9621
-3.7128 8.9635 0.6016 0.9619
-3.7183 8.1421 0.5551 0.9648
-5.2187 8.1204 0.5986 0.9621
-3.7167 8.1385 0.3528 0.9648
-3.7520 9.0582 0.1656 0.9615
-3.7135 8.1314 -0.0503 0.9649
-3.7102 8.1243 -0.4530 0.9649
-3.7070 8.1172 -0.8567 0.9648
0.1316 3.6858 -0.5226 0.9852
0.0000 3.5216 -0.4990 0.9859
-0.3799 3.5334 -0.5035 0.9857
-0.5072 3.5278 -0.5050 0.9857
-0.7918 3.6399 -0.5278 0.9851
-3.7037 8.1100 -1.2633 0.9646
0.2376 3.3220 -0.5487 0.9866
0.1141 3.1939 -0.5265 0.9871
-0.2242 3.1353 -0.5178 0.9873
-0.3370 3.1343 -0.5193 0.9873
-0.4501 3.1304 -0.5210 0.9873
-0.9486 3.2306 -0.5547 0.9864
5.7801 7.7213 -1.8129 0.9615
4.6076 8.4382 -1.8071 0.9616
4.3093 8.6089 -1.8095 0.9616
2.7316 9.3031 -1.8224 0.9613
2.4014 9.4085 -1.8251 0.9612
0.3365 3.1297 -0.5917 0.9873
0.2166 3.0285 -0.5707 0.9877
0.1064 2.9788 -0.5603 0.9879
0.0000 2.9697 -0.5582 0.9880
-0.2125 2.9711 -0.5599 0.9879
-0.3195 2.9714 -0.5617 0.9879
-0.4272 2.9712 -0.5642 0.9879
-0.6460 2.9697 -0.5712 0.9877
-0.7601 2.9781 -0.5777 0.9876
-0.8768 2.9861 -0.5850 0.9874
-1.1482 3.0785 -0.6176 0.9867
-1.3667 3.2996 -0.6713 0.9856
9.0953 0.0000 -1.9226 0.9635
9.0897 0.3246 -1.9226 0.9635
9.0451 0.9724 -1.9230 0.9635
8.8951 1.9350 -1.9242 0.9635
8.7401 2.5663 -1.9255 0.9634
8.6464 2.8778 -1.9262 0.9634
8.5420 3.1860 -1.9271 0.9634
8.0194 4.3789 -1.9314 0.9633
7.6971 4.9466 -1.9340 0.9633
7.3358 5.4915 -1.9370 0.9632
7.1410 5.7545 -1.9386 0.9632
6.9370 6.0109 -1.9402 0.9632
6.2722 6.7368 -1.9457 0.9631
6.0338 6.9634 -1.9476 0.9630
5.7874 7.1817 -1.9496 0.9630
5.5269 7.3831 -1.9495 0.9630
5.2572 7.5718 -1.9485 0.9630
4.9487 7.7003 -1.9348 0.9633
4.5737 7.7085 -1.8946 0.9640
3.8657 7.7227 -1.8255 0.9653
3.0092 8.0679 -1.8202 0.9654
2.7228 8.1807 -1.8225 0.9654
0.6827 3.1383 -0.6789 0.9870
0.3176 2.9543 -0.6281 0.9879
0.0000 2.9179 -0.6168 0.9881
-0.6334 2.9115 -0.6298 0.9879
-0.7449 2.9187 -0.6367 0.9878
-1.3737 3.0080 -0.6990 0.9866
-1.8494 3.3870 -0.8157 0.9843
-5.3539 7.7111 -1.9843 0.9623
-6.0614 7.5217 -2.0419 0.9613
-6.8679 6.8679 -2.0531 0.9611
-7.1157 6.6249 -2.0551 0.9610
-7.3546 6.3728 -2.0570 0.9610
-7.8044 5.8423 -2.0607 0.9609
-8.5828 4.6865 -2.0671 0.9608
8.2110 -0.0000 -1.9298 0.9668
8.2060 0.2931 -1.9298 0.9668
8.1908 0.5858 -1.9300 0.9668
8.1303 1.1689 -1.9305 0.9668
8.0849 1.4587 -1.9308 0.9668
7.9644 2.0328 -1.9318 0.9668
7.8044 2.5975 -1.9331 0.9668
7.7098 2.8756 -1.9339 0.9668
7.0951 4.2097 -1.9389 0.9667
6.7856 4.7113 -1.9415 0.9666
6.2570 5.4217 -1.9458 0.9666
5.8639 5.8639 -1.9490 0.9665
5.6558 6.0748 -1.9507 0.9665
5.4403 6.2785 -1.9525 0.9664
4.9880 6.6632 -1.9562 0.9664
4.7517 6.8437 -1.9581 0.9663
1.8018 3.5996 -0.9460 0.9836
1.4604 3.5258 -0.8969 0.9844
1.2789 3.4290 -0.8601 0.9851
1.1197 3.3642 -0.8333 0.9855
0.9416 3.2068 -0.7855 0.9864
0.7596 2.9762 -0.7219 0.9875
0.6394 2.9390 -0.7069 0.9877
0.4190 2.9144 -0.6920 0.9880
0.2066 2.8882 -0.6805 0.9882
0.1027 2.8744 -0.6760 0.9883
0.0000 2.8673 -0.6739 0.9883
-0.2049 2.8647 -0.6750 0.9883
-0.4111 2.8596 -0.6790 0.9882
-0.8458 2.8807 -0.7056 0.9877
-1.0678 2.8629 -0.7181 0.9875
-1.1885 2.8694 -0.7299 0.9873
-1.6152 2.9581 -0.7921 0.9862
-1.7986 3.0314 -0.8284 0.9856
-1.9599 3.0496 -0.8520 0.9852
-5.2003 6.9468 -2.0394 0.9650
-5.4504 6.7635 -2.0415 0.9649
-5.9304 6.3697 -2.0454 0.9649
-6.3811 5.9411 -2.0491 0.9648
-6.8000 5.4798 -2.0525 0.9648
-6.9968 5.2377 -2.0541 0.9647
-7.1846 4.9884 -2.0556 0.9647
-7.3633 4.7321 -2.0571 0.9647
-8.1105 3.3595 -2.0632 0.9646
-8.2291 3.0693 -2.0642 0.9646
-8.3369 2.7748 -2.0650 0.9645
-8.4339 2.4764 -2.0658 0.9645
-8.5198 2.1746 -2.0665 0.9645
-8.5945 1.8696 -2.0671 0.9645
-8.7795 0.6279 -2.0686 0.9645
-8.7969 0.3142 -2.0688 0.9645
7.4719 0.2669 -1.9358 0.9696
7.4580 0.5334 -1.9359 0.9696
7.4349 0.7993 -1.9361 0.9696
7.3613 1.3281 -1.9367 0.9696
7.2512 1.8508 -1.9376 0.9696
7.0187 2.6178 -1.9395 0.9695
6.9235 2.8678 -1.9403 0.9695
6.8198 3.1145 -1.9412 0.9695
6.3204 4.0619 -1.9453 0.9694
6.0221 4.5080 -1.9477 0.9694
5.8613 4.7233 -1.9490 0.9694
5.5174 5.1368 -1.9518 0.9693
5.1449 5.5260 -1.9549 0.9693
4.9484 5.7108 -1.9565 0.9693
4.5362 6.0596 -1.9599 0.9692
4.3209 6.2233 -1.9616 0.9692
2.1349 3.3219 -1.0224 0.9838
1.9110 3.2208 -0.9697 0.9846
1.7536 3.2115 -0.9474 0.9850
1.6022 3.2008 -0.9268 0.9853
1.0190 3.0617 -0.8355 0.9868
0.7320 2.8679 -0.7664 0.9878
0.6231 2.8644 -0.7590 0.9880
0.4104 2.8545 -0.7467 0.9882
0.2029 2.8374 -0.7365 0.9883
0.1009 2.8241 -0.7317 0.9884
-0.1006 2.8170 -0.7298 0.9884
-0.3024 2.8130 -0.7325 0.9884
-0.4040 2.8100 -0.7350 0.9883
-0.5063 2.8063 -0.7383 0.9883
-0.6095 2.8019 -0.7424 0.9882
-0.8315 2.8317 -0.7641 0.9879
-1.0507 2.8171 -0.7785 0.9877
-1.3015 2.8499 -0.8112 0.9871
-1.5712 2.8775 -0.8489 0.9865
-1.6881 2.8451 -0.8566 0.9864
-2.0127 2.8988 -0.9137 0.9855
-4.7111 6.2933 -2.0354 0.9680
-4.9372 6.1267 -2.0373 0.9680
-5.5781 5.5782 -2.0425 0.9679
-5.7783 5.3798 -2.0442 0.9679
-5.9712 5.1741 -2.0457 0.9679
-6.3343 4.7418 -2.0487 0.9678
-6.8180 4.0453 -2.0526 0.9678
-7.5438 2.5108 -2.0586 0.9677
-7.6312 2.2407 -2.0593 0.9677
-7.7087 1.9675 -2.0599 0.9677
-7.8333 1.4133 -2.0609 0.9676
-7.8802 1.1330 -2.0613 0.9676
-7.9586 0.2842 -2.0619 0.9676
6.8559 -0.0000 -1.9409 0.9719
6.8517 0.2447 -1.9409 0.9719
6.7036 1.4583 -1.9421 0.9719
6.5857 1.9337 -1.9431 0.9719
6.3477 2.6293 -1.9450 0.9718
6.2523 2.8553 -1.9458 0.9718
6.1491 3.0780 -1.9467 0.9718
5.2172 4.5207 -1.9543 0.9717
5.0559 4.7072 -1.9556 0.9717
4.5336 5.2321 -1.9599 0.9716
4.3474 5.3948 -1.9614 0.9716
1.9173 2.9833 -1.0039 0.9854
1.6240 2.9742 -0.9593 0.9860
1.4783 2.9532 -0.9349 0.9864
1.3391 2.9323 -0.9126 0.9867
0.8286 2.8220 -0.8326 0.9878
0.1987 2.7783 -0.7885 0.9885
0.0992 2.7764 -0.7865 0.9885
-0.0991 2.7739 -0.7858 0.9885
-0.2979 2.7709 -0.7889 0.9885
-1.0353 2.7757 -0.8387 0.9878
-1.5369 2.8146 -0.9078 0.9868
-1.9358 2.7881 -0.9609 0.9860
-4.7084 5.4338 -2.0354 0.9706
-4.9031 5.2664 -2.0370 0.9705
-5.2742 4.9104 -2.0400 0.9705
-5.6188 4.5279 -2.0428 0.9704
-6.3520 3.4685 -2.0488 0.9704
-6.4749 3.2411 -2.0498 0.9703
-6.8814 2.2904 -2.0531 0.9703
-7.0315 1.7947 -2.0544 0.9703
-7.0928 1.5429 -2.0549 0.9703
-7.2207 0.7763 -2.0559 0.9703
6.3243 -0.0000 -1.9452 0.9739
6.2616 0.9003 -1.9457 0.9739
6.2264 1.1233 -1.9460 0.9739
6.1328 1.5653 -1.9468 0.9739
6.0745 1.7836 -1.9473 0.9739
6.0086 1.9998 -1.9478 0.9738
5.9352 2.2137 -1.9484 0.9738
5.8544 2.4250 -1.9491 0.9738
5.3423 3.4333 -1.9533 0.9738
5.2191 3.6237 -1.9543 0.9738
5.0892 3.8097 -1.9553 0.9737
4.9528 3.9912 -1.9564 0.9737
4.8100 4.1679 -1.9576 0.9737
4.5062 4.5062 -1.9601 0.9737
4.3454 4.6672 -1.9614 0.9737
2.1484 2.8699 -1.1026 0.9851
1.9572 2.8189 -1.0555 0.9857
1.5256 2.7939 -0.9791 0.9868
1.4053 2.8075 -0.9657 0.9869
0.8065 2.7467 -0.8805 0.9881
0.5969 2.7438 -0.8637 0.9883
0.4951 2.7443 -0.8577 0.9884
0.3946 2.7442 -0.8527 0.9885
0.2950 2.7434 -0.8487 0.9885
0.1961 2.7422 -0.8456 0.9886
0.0979 2.7403 -0.8434 0.9886
0.0000 2.7388 -0.8424 0.9886
-0.0978 2.7372 -0.8425 0.9886
-0.2938 2.7332 -0.8455 0.9886
-0.3926 2.7307 -0.8486 0.9885
-0.4921 2.7277 -0.8525 0.9885
-0.5925 2.7239 -0.8574 0.9884
-0.8061 2.7453 -0.8800 0.9881
-1.8845 2.7142 -1.0163 0.9863
-4.1429 5.1410 -2.0308 0.9727
-4.3269 4.9935 -2.0323 0.9727
-4.6787 4.6787 -2.0352 0.9727
-5.0072 4.3387 -2.0378 0.9727
-5.1620 4.1598 -2.0391 0.9726
-5.3104 3.9753 -2.0403 0.9726
-5.4520 3.7854 -2.0415 0.9726
-5.7141 3.3903 -2.0436 0.9726
-5.8343 3.1858 -2.0446 0.9726
-6.0519 2.7638 -2.0464 0.9725
-6.1491 2.5470 -2.0472 0.9725
-6.2383 2.3268 -2.0479 0.9725
-6.3923 1.8770 -2.0491 0.9725
-6.4569 1.6480 -2.0497 0.9725
-6.5131 1.4168 -2.0501 0.9725
-6.5607 1.1837 -2.0505 0.9725
-6.6303 0.7128 -2.0511 0.9725
5.8632 0.0000 -1.9490 0.9756
5.8596 0.2093 -1.9490 0.9756
5.7324 1.2470 -1.9501 0.9756
5.6854 1.4511 -1.9504 0.9756
5.5701 1.8539 -1.9514 0.9756
5.5019 2.0521 -1.9519 0.9756
5.4269 2.2479 -1.9526 0.9755
5.3450 2.4410 -1.9532 0.9755
5.1612 2.8182 -1.9547 0.9755
5.0595 3.0020 -1.9556 0.9755
4.9514 3.1821 -1.9564 0.9755
4.7164 3.5306 -1.9584 0.9755
4.5898 3.6987 -1.9594 0.9755
4.1754 4.1753 -1.9628 0.9754
3.8718 4.4682 -1.9653 0.9754
3.7123 4.6066 -1.9666 0.9754
2.0340 2.7171 -1.1282 0.9858
1.8580 2.6760 -1.0829 0.9864
1.7269 2.6872 -1.0618 0.9866
1.6014 2.6990 -1.0432 0.9869
1.1394 2.7507 -0.9897 0.9875
0.6898 2.7026 -0.9272 0.9883
0.5886 2.7058 -0.9204 0.9884
0.3894 2.7081 -0.9094 0.9885
0.0966 2.7047 -0.8996 0.9887
-0.3873 2.6935 -0.9045 0.9886
-0.5844 2.6864 -0.9139 0.9885
-0.6867 2.6905 -0.9230 0.9884
-0.7922 2.6981 -0.9347 0.9882
-1.3348 2.6666 -0.9912 0.9875
-1.4563 2.6671 -1.0101 0.9873
-1.7242 2.6829 -1.0601 0.9866
-2.0739 2.7704 -1.1504 0.9855
-4.9058 3.6724 -2.0370 0.9745
-5.2781 3.1317 -2.0401 0.9745
-5.3889 2.9426 -2.0410 0.9745
-5.5896 2.5527 -2.0426 0.9744
-5.6792 2.3524 -2.0433 0.9744
-5.7614 2.1489 -2.0440 0.9744
-5.9034 1.7334 -2.0452 0.9744
-5.9629 1.5219 -2.0456 0.9744
-6.0146 1.3084 -2.0461 0.9744
-6.0586 1.0931 -2.0464 0.9744
-6.0946 0.8763 -2.0467 0.9744
-6.1227 0.6582 -2.0469 0.9744
5.4559 0.1948 -1.9523 0.9771
5.4457 0.3895 -1.9524 0.9771
5.4287 0.5836 -1.9525 0.9771
5.4050 0.7771 -1.9527 0.9771
5.3745 0.9697 -1.9530 0.9771
5.3373 1.1611 -1.9533 0.9771
5.2429 1.5395 -1.9541 0.9771
5.1859 1.7260 -1.9545 0.9770
4.9760 2.2725 -1.9562 0.9770
4.8934 2.4495 -1.9569 0.9770
4.6090 2.9620 -1.9592 0.9770
4.3900 3.2863 -1.9610 0.9770
4.2720 3.4426 -1.9620 0.9770
4.1485 3.5947 -1.9630 0.9770
4.0198 3.7425 -1.9641 0.9769
3.8858 3.8858 -1.9652 0.9769
2.2715 2.8188 -1.2946 0.9847
1.9962 2.6666 -1.1912 0.9859
1.7034 2.6505 -1.1267 0.9867
1.1013 2.6588 -1.0291 0.9878
0.9984 2.6769 -1.0217 0.9879
0.7237 2.4647 -0.9186 0.9891
0.6798 2.6633 -0.9830 0.9884
0.5801 2.6667 -0.9759 0.9885
0.3841 2.6712 -0.9651 0.9886
0.2873 2.6721 -0.9611 0.9886
0.1910 2.6711 -0.9577 0.9887
0.0954 2.6695 -0.9553 0.9887
-0.1906 2.6645 -0.9553 0.9887
-0.2862 2.6617 -0.9573 0.9887
-0.4789 2.6541 -0.9645 0.9886
-0.6763 2.6497 -0.9779 0.9885
-0.8831 2.6534 -1.0000 0.9882
-0.9875 2.6475 -1.0105 0.9881
-1.0946 2.6425 -1.0229 0.9879
-1.2069 2.6427 -1.0389 0.9877
-1.3238 2.6446 -1.0576 0.9875
-1.4431 2.6429 -1.0769 0.9873
-1.7133 2.6660 -1.1333 0.9866
-2.0449 2.7316 -1.2202 0.9856
-3.5548 4.4113 -2.0260 0.9762
-3.8653 4.1516 -2.0285 0.9762
-4.0134 4.0134 -2.0297 0.9762
-4.1565 3.8698 -2.0309 0.9762
-4.2944 3.7211 -2.0320 0.9762
-4.4268 3.5673 -2.0331 0.9761
-4.5536 3.4088 -2.0341 0.9761
-4.6746 3.2457 -2.0351 0.9761
-4.7897 3.0782 -2.0361 0.9761
-5.1873 2.3690 -2.0393 0.9761
-5.3465 1.9941 -2.0406 0.9761
-5.4158 1.8025 -2.0412 0.9760
-5.5331 1.4122 -2.0421 0.9760
-5.6811 0.6108 -2.0433 0.9760
-5.6997 0.4077 -2.0435 0.9760
5.0989 0.1821 -1.9552 0.9784
5.0734 0.5454 -1.9554 0.9784
5.0227 0.9062 -1.9558 0.9784
4.8995 1.4386 -1.9569 0.9784
4.8462 1.6130 -1.9573 0.9784
4.4895 2.4514 -1.9602 0.9783
4.4007 2.6111 -1.9609 0.9783
4.3064 2.7676 -1.9617 0.9783
4.2067 2.9207 -1.9625 0.9783
4.1015 3.0704 -1.9634 0.9783
3.3654 3.8839 -1.9694 0.9782
2.2133 2.7465 -1.3517 0.9850
1.9798 2.6448 -1.2660 0.9859
1.6801 2.6143 -1.1909 0.9868
1.4368 2.6313 -1.1489 0.9872
0.9775 2.6208 -1.0719 0.9881
0.8717 2.6192 -1.0578 0.9882
0.6699 2.6245 -1.0380 0.9885
0.5717 2.6281 -1.0307 0.9885
0.0941 2.6347 -1.0103 0.9888
0.0000 2.6335 -1.0092 0.9888
-0.0940 2.6319 -1.0093 0.9888
-0.1881 2.6303 -1.0105 0.9888
-0.4745 2.6299 -1.0241 0.9886
-0.6715 2.6307 -1.0405 0.9884
-0.7741 2.6363 -1.0529 0.9883
-1.0879 2.6265 -1.0894 0.9879
-1.1990 2.6254 -1.1061 0.9877
-1.3128 2.6226 -1.1239 0.9875
-1.5604 2.6300 -1.1719 0.9870
-1.8456 2.6582 -1.2401 0.9862
-2.0387 2.7233 -1.3037 0.9855
-3.3140 4.1125 -2.0240 0.9776
-3.6032 3.8701 -2.0264 0.9776
-4.2440 3.1770 -2.0316 0.9775
-4.6607 2.5450 -2.0350 0.9775
-4.7503 2.3778 -2.0357 0.9775
-4.8338 2.2075 -2.0364 0.9775
-4.9819 1.8582 -2.0376 0.9775
-5.0463 1.6796 -2.0381 0.9775
-5.1555 1.3159 -2.0390 0.9775
-5.2690 0.7576 -2.0400 0.9775
4.7806 0.1708 -1.9578 0.9795
4.7716 0.3413 -1.9579 0.9795
4.7358 0.6809 -1.9582 0.9795
4.7091 0.8496 -1.9584 0.9795
4.6764 1.0173 -1.9587 0.9795
4.6378 1.1837 -1.9590 0.9795
4.5935 1.3488 -1.9594 0.9795
4.5434 1.5122 -1.9598 0.9795
4.4875 1.6738 -1.9602 0.9795
4.2865 2.1457 -1.9619 0.9795
4.2086 2.2980 -1.9625 0.9795
3.8445 2.8779 -1.9655 0.9795
3.7409 3.0146 -1.9663 0.9794
3.5196 3.2768 -1.9682 0.9794
3.1539 3.6398 -1.9711 0.9794
1.9636 2.6231 -1.3411 0.9859
1.8087 2.6051 -1.2980 0.9864
1.6087 2.7113 -1.2903 0.9865
1.4220 2.6042 -1.2144 0.9873
0.9740 2.6114 -1.1407 0.9880
0.6668 2.6124 -1.1035 0.9884
0.4720 2.6159 -1.0879 0.9886
0.1874 2.6197 -1.0749 0.9887
-0.0937 2.6230 -1.0742 0.9887
-0.1876 2.6231 -1.0763 0.9887
-0.3771 2.6230 -1.0846 0.9886
-0.5704 2.6222 -1.0983 0.9885
-0.9778 2.6215 -1.1451 0.9880
-1.1911 2.6081 -1.1735 0.9877
-1.3018 2.6006 -1.1903 0.9875
-1.4177 2.5964 -1.2107 0.9873
-1.5477 2.6085 -1.2414 0.9870
-1.6847 2.6215 -1.2754 0.9866
-1.8340 2.6414 -1.3161 0.9862
-3.3706 3.6203 -2.0245 0.9788
-3.4995 3.4995 -2.0255 0.9788
-3.6240 3.3740 -2.0265 0.9788
-3.9694 2.9714 -2.0294 0.9788
-4.0747 2.8291 -2.0302 0.9788
-4.1747 2.6829 -2.0310 0.9788
-4.2694 2.5332 -2.0318 0.9788
-4.3587 2.3800 -2.0325 0.9788
-4.4424 2.2237 -2.0332 0.9788
-4.5203 2.0644 -2.0339 0.9788
-4.5924 1.9022 -2.0344 0.9787
-4.6587 1.7376 -2.0350 0.9787
-4.7188 1.5706 -2.0355 0.9787
-4.8208 1.2304 -2.0363 0.9787
-4.9494 0.5321 -2.0373 0.9787
-4.9753 0.1777 -2.0376 0.9787
4.4723 0.4808 -1.9603 0.9806
4.4527 0.6402 -1.9605 0.9806
4.4275 0.7988 -1.9607 0.9806
4.3967 0.9564 -1.9610 0.9806
4.3604 1.1129 -1.9613 0.9806
4.3187 1.2681 -1.9616 0.9806
4.2715 1.4217 -1.9620 0.9805
4.2190 1.5736 -1.9624 0.9805
4.1611 1.7236 -1.9629 0.9805
4.0980 1.8715 -1.9634 0.9805
4.0298 2.0171 -1.9640 0.9805
3.8780 2.3009 -1.9652 0.9805
3.7067 2.5736 -1.9666 0.9805
3.6138 2.7053 -1.9674 0.9805
3.5164 2.8337 -1.9682 0.9805
3.4145 2.9586 -1.9690 0.9805
3.3081 3.0800 -1.9699 0.9805
3.0829 3.3112 -1.9717 0.9805
2.9642 3.4208 -1.9727 0.9804
2.1671 2.6892 -1.5052 0.9850
1.9534 2.6094 -1.4206 0.9859
1.4336 2.6254 -1.3036 0.9870
1.3025 2.6021 -1.2682 0.9874
1.1917 2.6094 -1.2502 0.9876
1.0794 2.6058 -1.2292 0.9878
0.6646 2.6038 -1.1712 0.9883
0.4703 2.6066 -1.1544 0.9885
0.0000 2.6131 -1.1388 0.9887
-0.0934 2.6146 -1.1402 0.9886
-0.1871 2.6159 -1.1430 0.9886
-0.2812 2.6159 -1.1466 0.9886
-0.3761 2.6157 -1.1517 0.9885
-0.4719 2.6154 -1.1582 0.9885
-1.0763 2.5983 -1.2257 0.9878
-1.3429 2.6828 -1.3075 0.9870
-2.0314 2.7137 -1.4773 0.9853
-3.1627 3.3970 -2.0228 0.9800
-3.2835 3.2835 -2.0238 0.9799
-3.5126 3.0437 -2.0256 0.9799
-4.0888 2.2327 -2.0303 0.9799
-4.2402 1.9365 -2.0316 0.9799
-4.3078 1.7844 -2.0321 0.9799
-1.3722 0.4029 -0.6233 0.9938
-1.4180 0.2039 -0.6244 0.9938
-1.4360 0.1544 -0.6294 0.9937
-1.4490 0.1036 -0.6331 0.9937
4.2286 0.3024 -1.9623 0.9815
4.1440 0.9015 -1.9630 0.9815
4.0258 1.3399 -1.9640 0.9815
3.4930 2.4252 -1.9684 0.9814
3.4054 2.5493 -1.9691 0.9814
3.2174 2.7879 -1.9706 0.9814
3.0129 3.0129 -1.9723 0.9814
2.1538 2.6727 -1.5889 0.9850
1.9450 2.5982 -1.5023 0.9858
1.6699 2.5985 -1.4298 0.9865
1.5419 2.5987 -1.3987 0.9868
1.4186 2.5980 -1.3702 0.9870
1.3248 2.6466 -1.3700 0.9870
1.0759 2.5975 -1.3014 0.9877
0.9675 2.5940 -1.2815 0.9879
-0.0930 2.6054 -1.2068 0.9886
-0.1864 2.6067 -1.2097 0.9885
-0.2804 2.6078 -1.2141 0.9885
-0.4705 2.6080 -1.2267 0.9884
-0.9706 2.6023 -1.2856 0.9878
-1.0722 2.5887 -1.2970 0.9877
-1.3025 2.6021 -1.3470 0.9873
-1.4210 2.6024 -1.3725 0.9870
-1.5439 2.6020 -1.4005 0.9868
-1.8218 2.6238 -1.4786 0.9860
-2.0408 2.7262 -1.5763 0.9851
-2.7373 3.3967 -2.0193 0.9810
-2.8582 3.2985 -2.0203 0.9809
-2.9755 3.1959 -2.0212 0.9809
-3.3044 2.8633 -2.0239 0.9809
-3.4059 2.7447 -2.0247 0.9809
-3.7673 2.2353 -2.0277 0.9809
-3.8460 2.1000 -2.0283 0.9809
-1.1536 0.3840 -0.5628 0.9947
-1.1575 0.2954 -0.5529 0.9947
-1.2124 0.1743 -0.5670 0.9946
-1.2261 0.1318 -0.5708 0.9946
-1.2362 0.0884 -0.5737 0.9946
-1.2424 0.0444 -0.5755 0.9945
3.9817 0.4281 -1.9644 0.9823
3.9641 0.5700 -1.9645 0.9823
3.9142 0.8515 -1.9649 0.9823
3.8818 0.9908 -1.9652 0.9823
3.8446 1.1289 -1.9655 0.9823
3.8025 1.2656 -1.9658 0.9823
3.7041 1.5343 -1.9666 0.9823
3.6478 1.6659 -1.9671 0.9823
3.5215 1.9229 -1.9681 0.9823
3.2988 2.2904 -1.9699 0.9823
3.2161 2.4075 -1.9706 0.9823
3.1292 2.5217 -1.9713 0.9823
3.0384 2.6328 -1.9721 0.9822
2.9436 2.7406 -1.9729 0.9822
2.7429 2.9461 -1.9745 0.9822
2.6371 3.0434 -1.9754 0.9822
2.1504 2.6684 -1.6811 0.9848
1.8037 2.5978 -1.5513 0.9860
1.6706 2.5995 -1.5157 0.9863
1.3003 2.5977 -1.4249 0.9871
1.0757 2.5970 -1.3789 0.9876
0.8642 2.5963 -1.3423 0.9879
0.5633 2.5895 -1.2999 0.9883
0.3724 2.5902 -1.2836 0.9884
0.1854 2.5918 -1.2746 0.9885
0.0000 2.5945 -1.2727 0.9885
-0.0927 2.5960 -1.2742 0.9885
-0.1858 2.5973 -1.2773 0.9885
-0.3737 2.5993 -1.2881 0.9884
-0.4691 2.5999 -1.2959 0.9883
-0.5656 2.5998 -1.3051 0.9882
-0.8636 2.5948 -1.3414 0.9879
-0.9664 2.5910 -1.3565 0.9878
-1.0869 2.6240 -1.3932 0.9874
-1.1884 2.6023 -1.4033 0.9873
-1.3031 2.6033 -1.4280 0.9871
-1.4216 2.6035 -1.4551 0.9869
-1.6917 2.6324 -1.5349 0.9862
-1.8274 2.6320 -1.5717 0.9858
-2.5814 3.2033 -2.0180 0.9818
-3.3030 2.4726 -2.0239 0.9818
-3.5520 2.1075 -2.0259 0.9818
-3.6260 1.9800 -2.0265 0.9818
-1.0588 0.5300 -0.5808 0.9947
-1.0705 0.1151 -0.5281 0.9952
-1.0769 0.0770 -0.5296 0.9952
3.7895 0.0000 -1.9659 0.9831
3.7871 0.1353 -1.9659 0.9831
3.7042 0.8058 -1.9666 0.9831
3.5541 1.3256 -1.9679 0.9831
3.1215 2.1673 -1.9714 0.9830
3.0431 2.2780 -1.9720 0.9830
2.8748 2.4911 -1.9734 0.9830
2.7851 2.5930 -1.9741 0.9830
2.5951 2.7873 -1.9757 0.9830
2.4950 2.8794 -1.9765 0.9830
2.3917 2.9679 -1.9774 0.9830
1.9677 2.6286 -1.7034 0.9853
1.2238 2.6797 -1.5283 0.9868
0.9700 2.6007 -1.4400 0.9876
0.8663 2.6028 -1.4231 0.9877
0.7635 2.6003 -1.4059 0.9879
0.6631 2.5979 -1.3910 0.9880
0.5647 2.5958 -1.3781 0.9881
0.4680 2.5938 -1.3673 0.9882
0.3727 2.5920 -1.3585 0.9883
0.2785 2.5904 -1.3516 0.9883
0.1851 2.5886 -1.3463 0.9884
0.0924 2.5866 -1.3427 0.9884
0.0000 2.5874 -1.3423 0.9884
-0.1852 2.5893 -1.3467 0.9884
-0.5642 2.5935 -1.3769 0.9881
-0.6619 2.5933 -1.3885 0.9880
-0.7609 2.5914 -1.4011 0.9879
-0.8618 2.5892 -1.4157 0.9878
-1.1889 2.6033 -1.4847 0.9872
-1.3037 2.6046 -1.5110 0.9870
-1.7011 2.6470 -1.6323 0.9859
-1.8257 2.6295 -1.6607 0.9857
-2.4394 3.0271 -2.0169 0.9826
-2.5470 2.9394 -2.0177 0.9826
-2.9441 2.5511 -2.0210 0.9826
-3.0344 2.4453 -2.0217 0.9826
-3.1208 2.3362 -2.0224 0.9826
-3.2817 2.1090 -2.0237 0.9826
-0.9416 0.4713 -0.5463 0.9953
-0.9208 0.3434 -0.5098 0.9956
-0.9268 0.3085 -0.5067 0.9956
-0.9524 0.2431 -0.5099 0.9956
-0.9715 0.1753 -0.5121 0.9956
3.5923 -0.0000 -1.9675 0.9838
3.5901 0.1282 -1.9676 0.9837
3.5833 0.2563 -1.9676 0.9837
3.5563 0.5113 -1.9678 0.9837
3.5361 0.6380 -1.9680 0.9837
3.5114 0.7639 -1.9682 0.9837
3.4489 1.0127 -1.9687 0.9837
3.4111 1.1353 -1.9690 0.9837
3.3690 1.2566 -1.9694 0.9837
3.3226 1.3763 -1.9697 0.9837
3.2721 1.4943 -1.9702 0.9837
3.2174 1.6105 -1.9706 0.9837
3.1586 1.7247 -1.9711 0.9837
2.8843 2.1592 -1.9733 0.9837
2.8063 2.2615 -1.9740 0.9837
2.7247 2.3610 -1.9746 0.9837
2.5512 2.5512 -1.9761 0.9837
2.4594 2.6416 -1.9768 0.9837
1.8037 2.5977 -1.7321 0.9857
1.5437 2.6017 -1.6569 0.9863
1.4199 2.6003 -1.6227 0.9866
1.3008 2.5987 -1.5917 0.9868
1.2107 2.6512 -1.5963 0.9868
1.0775 2.6013 -1.5421 0.9872
0.9722 2.6066 -1.5237 0.9874
0.7654 2.6068 -1.4880 0.9877
0.5658 2.6010 -1.4579 0.9879
0.2788 2.5928 -1.4283 0.9882
0.0925 2.5883 -1.4185 0.9883
0.0000 2.5891 -1.4181 0.9883
-0.0925 2.5901 -1.4195 0.9882
-0.1853 2.5910 -1.4227 0.9882
-0.2787 2.5920 -1.4278 0.9882
-0.4678 2.5927 -1.4430 0.9881
-0.5639 2.5923 -1.4530 0.9880
-0.7607 2.5907 -1.4788 0.9878
-0.8617 2.5889 -1.4944 0.9876
-0.9880 2.6489 -1.5485 0.9872
-1.1893 2.6042 -1.5680 0.9870
-1.4226 2.6052 -1.6258 0.9866
-1.5448 2.6037 -1.6582 0.9863
-2.2047 2.9451 -2.0149 0.9834
-2.3094 2.8657 -2.0158 0.9834
-2.4112 2.7826 -2.0166 0.9833
-2.6979 2.5119 -2.0190 0.9833
-2.7869 2.4148 -2.0197 0.9833
-2.8723 2.3146 -2.0204 0.9833
-3.0320 2.1052 -2.0217 0.9833
-3.1062 1.9962 -2.0223 0.9833
-0.8524 0.5057 -0.5429 0.9955
-0.8479 0.3512 -0.5027 0.9958
-0.8837 0.2255 -0.4995 0.9958
-0.8932 0.1943 -0.5006 0.9958
-0.9011 0.1626 -0.5015 0.9958
-0.9127 0.0981 -0.5028 0.9958
-0.9161 0.0655 -0.5030 0.9958
-0.9179 0.0328 -0.5031 0.9958
3.3570 0.6057 -1.9695 0.9844
3.3060 0.8438 -1.9699 0.9844
3.1062 1.4185 -1.9715 0.9844
3.0542 1.5288 -1.9719 0.9843
2.6638 2.1466 -1.9751 0.9843
2.5863 2.2410 -1.9758 0.9843
2.4215 2.4215 -1.9771 0.9843
2.3344 2.5073 -1.9778 0.9843
2.2442 2.5899 -1.9786 0.9843
2.0553 2.7456 -1.9801 0.9843
1.6703 2.5990 -1.7837 0.9858
1.0764 2.5986 -1.6239 0.9871
0.8672 2.6054 -1.5854 0.9874
0.4691 2.6000 -1.5253 0.9879
0.3734 2.5973 -1.5149 0.9880
0.1854 2.5921 -1.5003 0.9881
0.0925 2.5901 -1.4963 0.9881
-0.0926 2.5918 -1.4974 0.9881
-0.1854 2.5922 -1.5004 0.9881
-0.3726 2.5915 -1.5116 0.9880
-0.6611 2.5902 -1.5434 0.9877
-0.8613 2.5880 -1.5747 0.9875
-1.3046 2.6062 -1.6827 0.9866
-1.4225 2.6050 -1.7136 0.9864
-1.8844 2.9321 -2.0123 0.9840
-1.9886 2.8642 -2.0132 0.9840
-2.0905 2.7926 -2.0140 0.9840
-2.2862 2.6384 -2.0156 0.9840
-2.3798 2.5561 -2.0164 0.9840
-2.4704 2.4704 -2.0171 0.9840
-2.7231 2.1945 -2.0192 0.9840
-0.7696 0.4946 -0.5282 0.9958
-0.7787 0.4252 -0.5122 0.9959
-0.7887 0.2942 -0.4860 0.9961
-0.8128 0.2387 -0.4891 0.9961
-0.8230 0.2101 -0.4904 0.9961
-0.8318 0.1810 -0.4915 0.9961
-0.8453 0.1215 -0.4930 0.9961
-0.8499 0.0914 -0.4935 0.9961
-0.8530 0.0610 -0.4938 0.9961
-0.8547 0.0305 -0.4938 0.9961
