ply
format ascii 1.0
element vertex 748
property float32 x
property float32 y
property float32 z
property float32 I
end_header
-4.3885 8.0369 0.7752 0.9639
-4.2155 8.4216 0.5840 0.9630
-4.1924 8.3754 0.3693 0.9632
-4.2319 8.4543 0.1597 0.9629
-4.2322 8.4548 -0.0532 0.9629
-4.2324 8.4553 -0.2662 0.9629
-4.2326 8.4557 -0.4796 0.9628
-4.2329 8.4562 -0.6934 0.9628
-4.2331 8.4567 -0.9079 0.9627
-6.7194 3.6690 -0.7350 0.9697
-6.7202 3.3639 -0.7215 0.9703
-6.7627 3.0884 -0.7138 0.9706
-6.0868 3.6115 -0.8407 0.9719
-6.1485 3.3573 -0.8321 0.9722
-0.2843 3.9753 -0.5647 0.9840
-0.4964 3.4525 -0.4942 0.9860
-0.8650 3.3891 -0.4956 0.9860
-1.1073 3.3267 -0.4968 0.9859
-1.2632 3.3868 -0.5122 0.9855
-5.8641 3.4793 -0.9661 0.9728
-6.2014 3.3862 -1.0011 0.9719
-6.7795 3.3936 -1.0742 0.9698
-0.1248 3.4942 -0.5760 0.9859
-0.2382 3.3299 -0.5500 0.9866
-0.3445 3.2039 -0.5309 0.9870
-1.2528 3.0244 -0.5393 0.9868
-1.3939 3.0523 -0.5528 0.9865
-6.0023 3.5613 -1.1498 0.9721
-6.4452 3.2262 -1.1874 0.9712
-7.3929 3.3762 -1.3389 0.9676
5.3096 8.2618 -1.8459 0.9608
5.0104 8.4445 -1.8456 0.9608
3.7547 9.0648 -1.8442 0.9609
3.4281 9.1912 -1.8438 0.9609
3.0973 9.3058 -1.8435 0.9609
2.4245 9.4992 -1.8427 0.9609
1.0471 9.7394 -1.8412 0.9609
-0.1133 3.1733 -0.5968 0.9872
-0.2198 3.0725 -0.5790 0.9875
-0.3209 2.9853 -0.5644 0.9879
-0.5341 2.9605 -0.5654 0.9878
-0.6433 2.9573 -0.5689 0.9878
-0.7541 2.9546 -0.5732 0.9877
-0.9809 2.9472 -0.5838 0.9874
-1.0975 2.9425 -0.5903 0.9873
-1.3476 2.9508 -0.6097 0.9869
-2.4599 3.5429 -0.8107 0.9826
-2.7188 3.6318 -0.8527 0.9817
-6.0283 3.5768 -1.3175 0.9719
-6.4148 3.2110 -1.3484 0.9712
9.4748 -0.0000 -2.0028 0.9620
9.4506 0.6759 -2.0028 0.9620
9.4203 1.0128 -2.0027 0.9620
9.3779 1.3483 -2.0027 0.9620
9.1790 2.3428 -2.0025 0.9620
8.9875 2.9913 -2.0022 0.9620
8.6145 3.9341 -2.0018 0.9620
8.3105 4.5378 -2.0015 0.9620
8.1424 4.8311 -2.0013 0.9620
7.9640 5.1182 -2.0011 0.9620
7.7754 5.3986 -2.0009 0.9620
7.5770 5.6720 -2.0007 0.9620
6.9247 6.4471 -1.9999 0.9621
6.1933 7.1475 -1.9991 0.9621
5.6510 7.5488 -1.9932 0.9622
4.5728 7.7070 -1.8943 0.9640
2.7535 8.2731 -1.8431 0.9650
2.4561 8.3646 -1.8428 0.9650
2.1556 8.4454 -1.8424 0.9650
1.8524 8.5154 -1.8421 0.9650
0.3718 3.4584 -0.7352 0.9859
0.1116 3.1258 -0.6611 0.9873
-0.1060 2.9670 -0.6276 0.9879
-0.3154 2.9333 -0.6236 0.9880
-0.4192 2.9156 -0.6226 0.9880
-0.8496 2.8933 -0.6374 0.9877
-1.1941 2.8829 -0.6596 0.9873
-1.3223 2.8955 -0.6729 0.9871
-1.4521 2.9009 -0.6857 0.9868
-2.0567 2.9622 -0.7623 0.9854
-2.2701 3.0325 -0.8007 0.9846
-6.3992 6.8732 -1.9851 0.9623
-6.6396 6.6395 -1.9848 0.9623
-7.0945 6.1474 -1.9843 0.9623
-7.7083 5.3519 -1.9836 0.9624
-5.7435 3.4077 -1.4117 0.9731
-6.4515 3.2294 -1.5250 0.9709
-7.4279 3.3922 -1.7261 0.9672
-8.6651 3.5892 -1.9825 0.9624
-8.7871 3.2774 -1.9824 0.9624
-8.9974 2.6419 -1.9822 0.9624
-9.1622 1.9931 -1.9820 0.9624
-9.2271 1.6648 -1.9819 0.9624
-9.2804 1.3343 -1.9819 0.9624
-9.3515 0.6688 -1.9818 0.9624
-9.3694 0.3346 -1.9818 0.9624
8.5171 -0.0000 -2.0017 0.9656
8.5117 0.3040 -2.0017 0.9656
8.4300 1.2120 -2.0016 0.9656
8.3216 1.8102 -2.0015 0.9656
8.1705 2.3991 -2.0013 0.9656
7.8659 3.2582 -2.0010 0.9656
7.7441 3.5366 -2.0009 0.9656
7.1596 4.6012 -2.0002 0.9656
6.9902 4.8533 -2.0000 0.9656
6.8118 5.0993 -1.9998 0.9656
6.4293 5.5710 -1.9994 0.9656
6.0141 6.0141 -1.9989 0.9657
5.7949 6.2241 -1.9987 0.9657
5.3347 6.6200 -1.9982 0.9657
5.0944 6.8053 -1.9979 0.9657
4.8476 6.9818 -1.9976 0.9657
4.5946 7.1494 -1.9973 0.9657
4.3335 7.3038 -1.9960 0.9657
3.5129 7.6922 -1.9875 0.9658
3.1888 7.6983 -1.9584 0.9663
2.8734 7.7039 -1.9324 0.9668
2.5658 7.7088 -1.9095 0.9672
0.9525 3.7320 -0.9052 0.9843
0.3381 3.1452 -0.7434 0.9871
0.0000 2.9311 -0.6889 0.9880
-0.5155 2.8572 -0.6824 0.9881
-0.6205 2.8525 -0.6861 0.9881
-0.7267 2.8470 -0.6906 0.9880
-0.8342 2.8408 -0.6959 0.9879
-0.9432 2.8339 -0.7020 0.9878
-1.2978 2.8417 -0.7342 0.9872
-1.4283 2.8533 -0.7499 0.9870
-1.5438 2.8273 -0.7571 0.9869
-1.6614 2.8002 -0.7652 0.9867
-2.0105 2.8957 -0.8285 0.9856
-2.1388 2.8571 -0.8388 0.9854
-2.3026 2.8573 -0.8625 0.9850
-2.5005 2.8857 -0.8974 0.9844
-5.7575 6.1840 -1.9858 0.9659
-5.9739 5.9738 -1.9855 0.9659
-6.3833 5.5312 -1.9851 0.9659
-6.7602 5.0606 -1.9847 0.9659
-5.3213 3.4198 -1.4866 0.9743
-5.6691 3.3636 -1.5492 0.9733
-7.4046 3.3815 -1.9131 0.9671
-7.7972 3.2297 -1.9835 0.9659
-7.9070 2.9491 -1.9834 0.9659
-8.0964 2.3773 -1.9832 0.9659
-8.2447 1.7935 -1.9830 0.9659
-8.3885 0.9018 -1.9828 0.9659
-8.4152 0.6019 -1.9828 0.9659
7.7227 0.2758 -2.0008 0.9686
7.6832 0.8260 -2.0008 0.9686
7.6487 1.0997 -2.0007 0.9686
7.6044 1.3720 -2.0007 0.9686
7.4866 1.9108 -2.0006 0.9686
7.4134 2.1768 -2.0005 0.9686
7.2385 2.6998 -2.0003 0.9686
7.0266 3.2089 -2.0001 0.9686
6.9071 3.4575 -1.9999 0.9686
6.7788 3.7015 -1.9998 0.9686
6.6419 3.9408 -1.9996 0.9686
6.4965 4.1750 -1.9995 0.9686
6.0113 4.8442 -1.9989 0.9686
5.8340 5.0552 -1.9987 0.9686
5.4574 5.4574 -1.9983 0.9686
5.2585 5.6480 -1.9981 0.9686
5.0530 5.8315 -1.9979 0.9686
4.8411 6.0074 -1.9976 0.9686
4.6230 6.1756 -1.9974 0.9686
3.6951 6.7672 -1.9963 0.9686
3.4508 6.8938 -1.9961 0.9686
1.6969 3.7158 -1.0577 0.9833
0.2067 2.8896 -0.7501 0.9881
0.1029 2.8806 -0.7463 0.9882
-0.2037 2.8479 -0.7393 0.9883
-0.5065 2.8075 -0.7386 0.9883
-0.6097 2.8026 -0.7426 0.9882
-0.7139 2.7969 -0.7474 0.9881
-0.8198 2.7919 -0.7534 0.9880
-0.9274 2.7864 -0.7604 0.9879
-1.1498 2.7758 -0.7779 0.9877
-1.2754 2.7928 -0.7949 0.9874
-1.7768 2.7647 -0.8509 0.9865
-1.9652 2.8304 -0.8922 0.9859
-5.4242 5.4242 -1.9862 0.9688
-5.6138 5.2266 -1.9859 0.9688
-5.9711 4.8118 -1.9855 0.9688
-6.1385 4.5952 -1.9854 0.9688
-6.2980 4.3728 -1.9852 0.9688
-6.8541 3.4309 -1.9846 0.9688
-6.9717 3.1839 -1.9844 0.9688
-7.1803 2.6781 -1.9842 0.9688
-7.3523 2.1588 -1.9840 0.9688
-7.6565 0.2734 -1.9837 0.9688
7.0652 -0.0000 -2.0001 0.9711
7.0245 0.7552 -2.0001 0.9711
6.9930 1.0054 -2.0000 0.9711
6.9031 1.5017 -1.9999 0.9711
6.7023 2.2307 -1.9997 0.9711
6.6180 2.4684 -1.9996 0.9711
6.5254 2.7029 -1.9995 0.9711
6.3152 3.1612 -1.9993 0.9711
5.9399 3.8173 -1.9988 0.9711
5.7994 4.0266 -1.9987 0.9711
5.6515 4.2306 -1.9985 0.9711
5.1655 4.8092 -1.9980 0.9711
4.8083 5.1644 -1.9976 0.9711
4.4266 5.4931 -1.9972 0.9711
3.5982 6.0644 -1.9962 0.9711
3.3790 6.1882 -1.9960 0.9711
1.4586 3.1938 -0.9940 0.9855
0.9088 3.0952 -0.9132 0.9867
0.7803 3.0573 -0.8932 0.9870
0.5363 2.9725 -0.8551 0.9875
0.3059 2.8450 -0.8100 0.9882
0.2016 2.8189 -0.8001 0.9883
-0.0000 2.8010 -0.7929 0.9884
-0.0997 2.7906 -0.7905 0.9885
-0.1989 2.7812 -0.7893 0.9885
-0.3985 2.7718 -0.7927 0.9884
-0.4992 2.7671 -0.7960 0.9884
-0.6010 2.7625 -0.8004 0.9883
-0.9143 2.7471 -0.8196 0.9880
-1.1322 2.7333 -0.8375 0.9878
-1.3782 2.7533 -0.8716 0.9873
-1.6120 2.7168 -0.8943 0.9870
-1.9015 2.7387 -0.9439 0.9862
-2.3429 2.7038 -1.0128 0.9852
-2.6149 2.8086 -1.0864 0.9842
-4.9623 4.9623 -1.9867 0.9712
-5.6159 4.2040 -1.9859 0.9713
-5.7656 3.4208 -1.8979 0.9725
-6.1552 3.3610 -1.9853 0.9713
-6.4780 2.6833 -1.9850 0.9713
-6.7268 1.9752 -1.9847 0.9713
-6.7928 1.7337 -1.9846 0.9713
-6.8987 1.2447 -1.9845 0.9713
6.5007 -0.0000 -1.9995 0.9732
6.4965 0.2320 -1.9995 0.9732
6.4840 0.4637 -1.9994 0.9732
6.4633 0.6949 -1.9994 0.9732
6.3970 1.1542 -1.9994 0.9732
6.3516 1.3817 -1.9993 0.9732
6.2364 1.8312 -1.9992 0.9732
6.1669 2.0525 -1.9991 0.9732
5.7030 3.1140 -1.9986 0.9732
5.0576 4.0757 -1.9979 0.9732
4.9085 4.2532 -1.9977 0.9732
4.4245 4.7523 -1.9972 0.9732
3.7017 5.3314 -1.9963 0.9732
3.5087 5.4596 -1.9961 0.9732
1.5029 3.0024 -1.0327 0.9860
1.3603 2.9787 -1.0072 0.9864
1.0994 2.9477 -0.9677 0.9869
0.4046 2.8141 -0.8745 0.9882
0.2973 2.7654 -0.8555 0.9884
0.0984 2.7550 -0.8479 0.9885
-0.0982 2.7490 -0.8461 0.9886
-0.4927 2.7309 -0.8535 0.9885
-0.5930 2.7260 -0.8581 0.9884
-0.6944 2.7206 -0.8636 0.9883
-0.7970 2.7144 -0.8701 0.9882
-1.0076 2.7015 -0.8868 0.9880
-1.4703 2.6926 -0.9436 0.9872
-1.9951 2.6651 -1.0240 0.9862
-2.3292 2.6880 -1.0940 0.9852
-2.5719 2.7625 -1.1609 0.9843
-4.5683 4.5683 -1.9871 0.9733
-4.7280 4.4019 -1.9869 0.9733
-4.8817 4.2300 -1.9868 0.9733
-5.4323 3.4911 -1.9861 0.9733
-5.6668 3.0943 -1.9859 0.9733
-5.9641 2.4704 -1.9856 0.9733
-6.2539 1.5962 -1.9852 0.9734
-6.3067 1.3719 -1.9852 0.9734
-6.3515 1.1459 -1.9851 0.9734
-6.3882 0.9185 -1.9851 0.9734
-6.4496 0.2303 -1.9850 0.9734
6.0135 -0.0000 -1.9989 0.9750
6.0097 0.2146 -1.9989 0.9750
5.9521 0.8558 -1.9989 0.9750
5.8261 1.4870 -1.9987 0.9750
5.7691 1.6940 -1.9987 0.9750
5.6332 2.1011 -1.9985 0.9750
5.5543 2.3007 -1.9984 0.9750
4.8108 3.6013 -1.9976 0.9750
4.6789 3.7705 -1.9974 0.9750
4.5410 3.9348 -1.9973 0.9750
4.3973 4.0940 -1.9971 0.9750
4.0933 4.3965 -1.9968 0.9750
3.9334 4.5394 -1.9966 0.9750
3.7686 4.6765 -1.9964 0.9750
3.4247 4.9325 -1.9960 0.9750
1.5675 2.8707 -1.0872 0.9863
1.2873 2.8189 -1.0301 0.9870
1.0415 2.7923 -0.9906 0.9875
0.6119 2.8129 -0.9569 0.9879
0.5030 2.7880 -0.9417 0.9881
-0.0969 2.7134 -0.9025 0.9886
-0.4863 2.6951 -0.9104 0.9885
-0.6852 2.6845 -0.9210 0.9884
-0.7864 2.6782 -0.9278 0.9883
-1.0998 2.6551 -0.9553 0.9880
-1.2122 2.6543 -0.9700 0.9878
-1.5688 2.6441 -1.0220 0.9871
-1.6978 2.6417 -1.0438 0.9869
-1.8329 2.6398 -1.0683 0.9865
-1.9752 2.6386 -1.0956 0.9862
-2.1385 2.6537 -1.1329 0.9857
-4.5180 3.9149 -1.9872 0.9751
-4.7850 3.5820 -1.9869 0.9751
-4.9095 3.4087 -1.9867 0.9751
-5.0277 3.2311 -1.9866 0.9751
-5.1395 3.0494 -1.9865 0.9751
-5.2448 2.8638 -1.9864 0.9751
-5.4351 2.4821 -1.9861 0.9751
-5.5200 2.2864 -1.9861 0.9751
-5.5978 2.0879 -1.9860 0.9751
-5.6686 1.8867 -1.9859 0.9751
-5.7321 1.6831 -1.9858 0.9751
-5.7883 1.4774 -1.9858 0.9751
-5.9127 0.8501 -1.9856 0.9751
-5.9392 0.6385 -1.9856 0.9751
-5.9581 0.4261 -1.9856 0.9751
-5.9695 0.2132 -1.9855 0.9751
5.5884 -0.0000 -1.9984 0.9765
5.5848 0.1994 -1.9984 0.9765
5.5741 0.3987 -1.9984 0.9765
5.4993 0.9922 -1.9984 0.9765
5.4603 1.1878 -1.9983 0.9765
5.3016 1.7645 -1.9981 0.9765
5.1618 2.1381 -1.9980 0.9765
5.0819 2.3208 -1.9979 0.9765
4.9956 2.5006 -1.9978 0.9765
4.8040 2.8503 -1.9976 0.9765
4.6989 3.0198 -1.9975 0.9766
4.5879 3.1854 -1.9973 0.9766
4.3483 3.5041 -1.9971 0.9766
4.0867 3.8048 -1.9968 0.9766
3.9480 3.9480 -1.9966 0.9766
3.5025 4.3463 -1.9961 0.9766
3.1829 4.5842 -1.9958 0.9766
3.0170 4.6945 -1.9956 0.9766
1.6510 2.7827 -1.1571 0.9863
1.3557 2.7084 -1.0831 0.9872
1.2369 2.7083 -1.0647 0.9874
1.1207 2.7056 -1.0473 0.9876
1.0102 2.7086 -1.0338 0.9878
0.9021 2.7104 -1.0215 0.9879
0.6966 2.7291 -1.0072 0.9881
0.4939 2.7375 -0.9948 0.9883
0.2652 2.4666 -0.8872 0.9895
-0.0000 2.6788 -0.9580 0.9887
-0.2871 2.6699 -0.9603 0.9887
-0.3832 2.6648 -0.9628 0.9886
-0.8771 2.6352 -0.9932 0.9883
-1.2038 2.6359 -1.0363 0.9878
-1.3224 2.6418 -1.0565 0.9875
-1.9574 2.6147 -1.1680 0.9862
-3.9306 3.9306 -1.9878 0.9767
-4.3273 3.4871 -1.9874 0.9767
-4.5644 3.1691 -1.9871 0.9767
-4.6743 3.0040 -1.9870 0.9767
-4.7783 2.8351 -1.9869 0.9767
-5.1321 2.1258 -1.9865 0.9767
-5.2703 1.7541 -1.9863 0.9767
-5.3816 1.3736 -1.9862 0.9767
-5.5395 0.3962 -1.9860 0.9767
-5.5501 0.1982 -1.9860 0.9767
5.2005 0.3719 -1.9980 0.9779
5.1606 0.7420 -1.9980 0.9779
5.0943 1.1082 -1.9979 0.9779
5.0514 1.2893 -1.9979 0.9779
5.0020 1.4687 -1.9978 0.9779
4.8842 1.8217 -1.9977 0.9779
4.8159 1.9948 -1.9976 0.9779
4.5744 2.4978 -1.9973 0.9779
4.4821 2.6593 -1.9972 0.9779
4.2805 2.9720 -1.9970 0.9779
4.0571 3.2694 -1.9967 0.9779
3.6836 3.6836 -1.9963 0.9779
3.5495 3.8124 -1.9962 0.9779
3.4109 3.9364 -1.9960 0.9779
3.1209 4.1690 -1.9957 0.9779
2.9698 4.2774 -1.9955 0.9779
2.8150 4.3802 -1.9954 0.9779
1.4566 2.6675 -1.1647 0.9871
0.9941 2.6653 -1.0901 0.9879
0.8831 2.6532 -1.0716 0.9881
0.6739 2.6404 -1.0443 0.9884
0.2652 2.4667 -0.9507 0.9894
0.1890 2.6424 -1.0152 0.9887
0.0944 2.6420 -1.0131 0.9887
-0.0000 2.6409 -1.0120 0.9888
-0.0943 2.6391 -1.0120 0.9888
-0.1886 2.6365 -1.0129 0.9887
-0.8746 2.6276 -1.0613 0.9882
-1.0876 2.6257 -1.0891 0.9879
-1.3179 2.6327 -1.1282 0.9875
-1.5502 2.6126 -1.1642 0.9871
-2.1029 2.8092 -1.3448 0.9851
-2.2796 2.6308 -1.3340 0.9852
-2.5236 2.7105 -1.4192 0.9843
-3.6685 3.6684 -1.9881 0.9780
-3.7968 3.5349 -1.9880 0.9780
-3.9202 3.3969 -1.9878 0.9780
-4.2601 2.9578 -1.9875 0.9780
-4.3627 2.8037 -1.9873 0.9780
-4.4597 2.6461 -1.9872 0.9780
-4.6367 2.3209 -1.9870 0.9780
-4.7164 2.1539 -1.9869 0.9780
-4.9190 1.6372 -1.9867 0.9780
-4.9742 1.4605 -1.9867 0.9780
-5.0654 1.1019 -1.9866 0.9780
-5.1704 0.3698 -1.9864 0.9780
4.8685 0.3482 -1.9976 0.9791
4.8312 0.6946 -1.9976 0.9791
4.5085 1.8675 -1.9972 0.9791
4.4388 2.0271 -1.9972 0.9791
4.2825 2.3384 -1.9970 0.9791
4.0074 2.7824 -1.9967 0.9791
3.9053 2.9234 -1.9966 0.9791
3.7982 3.0608 -1.9965 0.9791
3.5697 3.3235 -1.9962 0.9791
3.4486 3.4486 -1.9961 0.9791
3.0595 3.7967 -1.9956 0.9791
2.9219 3.9031 -1.9955 0.9791
2.7805 4.0046 -1.9953 0.9791
2.6355 4.1010 -1.9952 0.9792
1.4455 2.6472 -1.2344 0.9870
1.1985 2.6243 -1.1808 0.9876
1.0912 2.6345 -1.1671 0.9878
0.9847 2.6402 -1.1533 0.9879
0.8750 2.6290 -1.1340 0.9881
0.7696 2.6209 -1.1180 0.9883
0.5702 2.6211 -1.0978 0.9885
0.4725 2.6191 -1.0892 0.9886
0.1872 2.6174 -1.0740 0.9887
0.0935 2.6184 -1.0723 0.9887
-0.0000 2.6191 -1.0720 0.9887
-0.0936 2.6197 -1.0729 0.9887
-0.4729 2.6209 -1.0900 0.9886
-0.5703 2.6217 -1.0981 0.9885
-0.7696 2.6210 -1.1180 0.9883
-0.9769 2.6192 -1.1441 0.9880
-1.0844 2.6180 -1.1598 0.9878
-1.1965 2.6199 -1.1788 0.9876
-1.4285 2.6162 -1.2200 0.9872
-1.5443 2.6028 -1.2386 0.9870
-1.7236 2.6820 -1.3048 0.9863
-1.8099 2.6068 -1.2988 0.9864
-1.9519 2.6074 -1.3330 0.9860
-2.2689 2.6185 -1.4180 0.9851
-2.5430 2.7313 -1.5274 0.9840
-3.8883 2.9107 -1.9879 0.9792
-3.9895 2.7699 -1.9878 0.9792
-4.0856 2.6256 -1.9877 0.9792
-4.4168 2.0171 -1.9873 0.9792
-4.4858 1.8581 -1.9872 0.9792
-4.6066 1.5332 -1.9871 0.9792
-4.6583 1.3678 -1.9870 0.9792
-4.7775 0.8619 -1.9869 0.9792
-4.8052 0.6908 -1.9868 0.9792
-4.8267 0.5189 -1.9868 0.9792
-4.8421 0.3463 -1.9868 0.9792
4.5362 0.6522 -1.9973 0.9802
4.4779 0.9741 -1.9972 0.9802
4.3478 1.4471 -1.9971 0.9802
4.2933 1.6013 -1.9970 0.9802
4.2333 1.7535 -1.9969 0.9802
4.0211 2.1957 -1.9967 0.9802
3.7628 2.6125 -1.9964 0.9802
3.6670 2.7450 -1.9963 0.9802
3.3519 3.1207 -1.9960 0.9802
3.2382 3.2382 -1.9958 0.9802
3.1203 3.3515 -1.9957 0.9802
2.9985 3.4605 -1.9956 0.9802
2.8729 3.5651 -1.9954 0.9802
1.8019 2.8038 -1.4525 0.9856
1.5719 2.6493 -1.3426 0.9866
1.1878 2.6010 -1.2462 0.9876
0.9730 2.6088 -1.2135 0.9879
0.8672 2.6054 -1.1967 0.9881
0.7668 2.6116 -1.1862 0.9882
0.5684 2.6131 -1.1655 0.9884
0.4709 2.6101 -1.1559 0.9885
0.3750 2.6079 -1.1483 0.9886
-0.0000 2.6100 -1.1375 0.9887
-0.0932 2.6106 -1.1385 0.9887
-0.1867 2.6110 -1.1408 0.9886
-0.2807 2.6112 -1.1446 0.9886
-0.3754 2.6112 -1.1497 0.9886
-0.9741 2.6115 -1.2147 0.9879
-1.0812 2.6103 -1.2313 0.9877
-1.1927 2.6117 -1.2513 0.9876
-1.3060 2.6090 -1.2716 0.9873
-1.4220 2.6041 -1.2931 0.9871
-1.5384 2.5928 -1.3139 0.9869
-1.6751 2.6065 -1.3503 0.9866
-1.8108 2.6080 -1.3837 0.9862
-1.9527 2.6085 -1.4201 0.9859
-2.1016 2.6079 -1.4597 0.9855
-2.2684 2.6178 -1.5096 0.9850
-3.1095 3.3398 -1.9887 0.9803
-3.5523 2.8626 -1.9882 0.9803
-3.6520 2.7338 -1.9881 0.9803
-3.8373 2.4661 -1.9879 0.9803
-4.0031 2.1858 -1.9877 0.9803
-4.0784 2.0415 -1.9877 0.9803
-4.1485 1.8945 -1.9876 0.9803
-4.2133 1.7452 -1.9875 0.9803
-1.5118 0.5639 -0.7032 0.9930
-1.4401 0.4793 -0.6615 0.9934
-1.3722 0.4029 -0.6233 0.9938
-1.3400 0.3420 -0.6027 0.9940
-1.3956 0.2518 -0.6180 0.9938
-1.4180 0.2039 -0.6244 0.9938
-1.4359 0.1544 -0.6294 0.9937
-1.4571 0.0520 -0.6354 0.9937
4.3033 0.3078 -1.9970 0.9812
4.2456 0.7660 -1.9970 0.9812
4.1391 1.2154 -1.9968 0.9812
4.0417 1.5075 -1.9967 0.9812
3.9236 1.7918 -1.9966 0.9812
3.8570 1.9307 -1.9965 0.9812
3.7854 2.0670 -1.9964 0.9812
3.7091 2.2007 -1.9964 0.9812
3.6280 2.3316 -1.9963 0.9812
3.3575 2.7056 -1.9960 0.9812
3.0485 3.0485 -1.9956 0.9812
2.7046 3.3563 -1.9952 0.9812
2.5830 3.4504 -1.9951 0.9812
2.4580 3.5402 -1.9950 0.9812
1.7884 2.7828 -1.5312 0.9855
1.5657 2.6388 -1.4203 0.9866
1.4238 2.6075 -1.3752 0.9870
1.0753 2.5960 -1.3007 0.9877
0.9031 2.7133 -1.3237 0.9875
0.5667 2.6052 -1.2341 0.9883
0.3737 2.5989 -1.2154 0.9885
0.2795 2.5996 -1.2103 0.9885
0.1860 2.6003 -1.2067 0.9886
0.0929 2.6008 -1.2047 0.9886
-0.0000 2.6011 -1.2040 0.9886
-0.0929 2.6013 -1.2049 0.9886
-0.1861 2.6017 -1.2073 0.9886
-0.6645 2.6033 -1.2437 0.9882
-0.7645 2.6035 -1.2560 0.9881
-0.8665 2.6035 -1.2701 0.9880
-1.1882 2.6017 -1.3239 0.9875
-1.3000 2.5970 -1.3443 0.9873
-1.9535 2.6096 -1.5089 0.9857
-2.2658 2.6148 -1.6015 0.9849
-3.1445 2.9276 -1.9887 0.9812
-3.2468 2.8133 -1.9886 0.9812
-3.3449 2.6955 -1.9885 0.9812
-3.4388 2.5743 -1.9884 0.9812
-3.6938 2.1916 -1.9881 0.9812
-3.7695 2.0583 -1.9880 0.9812
-3.9064 1.7840 -1.9879 0.9812
-1.1790 0.2565 -0.5585 0.9947
-1.2124 0.1743 -0.5670 0.9946
-1.2424 0.0444 -0.5755 0.9945
4.0707 -0.0000 -1.9968 0.9820
4.0681 0.1453 -1.9968 0.9820
3.9774 0.8652 -1.9967 0.9820
3.9054 1.1467 -1.9966 0.9820
3.8134 1.4223 -1.9965 0.9820
3.7601 1.5575 -1.9964 0.9820
3.7020 1.6907 -1.9963 0.9820
3.5717 1.9503 -1.9962 0.9820
3.4997 2.0765 -1.9961 0.9820
3.4232 2.2000 -1.9960 0.9820
3.2573 2.4383 -1.9958 0.9820
3.1680 2.5529 -1.9957 0.9820
2.9775 2.7721 -1.9955 0.9820
2.7718 2.9771 -1.9953 0.9820
2.4372 3.2558 -1.9949 0.9820
2.3193 3.3404 -1.9948 0.9820
1.4185 2.5977 -1.4518 0.9869
1.1858 2.5966 -1.4002 0.9874
1.0758 2.5972 -1.3789 0.9876
0.8673 2.6059 -1.3472 0.9878
0.8005 2.7262 -1.3937 0.9874
0.5650 2.5973 -1.3039 0.9882
0.4679 2.5937 -1.2928 0.9883
-0.2787 2.5924 -1.2790 0.9885
-0.3727 2.5923 -1.2847 0.9884
-0.5641 2.5933 -1.3018 0.9882
-0.6620 2.5936 -1.3130 0.9881
-1.2987 2.5945 -1.4232 0.9872
-1.5463 2.6061 -1.4864 0.9866
-1.6764 2.6085 -1.5210 0.9863
-1.8126 2.6106 -1.5590 0.9859
-2.1022 2.6087 -1.6434 0.9852
-2.7632 2.9679 -1.9891 0.9821
-2.9676 2.7629 -1.9889 0.9821
-3.0641 2.6551 -1.9888 0.9821
-3.2454 2.4295 -1.9886 0.9821
-3.3299 2.3120 -1.9885 0.9821
-3.4101 2.1915 -1.9884 0.9821
-3.4860 2.0683 -1.9883 0.9821
-3.5575 1.9425 -1.9882 0.9821
-1.0444 0.4769 -0.5632 0.9949
-1.0119 0.3774 -0.5298 0.9952
-1.0025 0.3337 -0.5183 0.9953
-1.0175 0.2987 -0.5202 0.9953
-1.0611 0.1525 -0.5258 0.9952
3.8460 0.1374 -1.9965 0.9828
3.8092 0.5477 -1.9965 0.9828
3.7287 0.9517 -1.9964 0.9828
3.6923 1.0841 -1.9963 0.9828
3.6511 1.2152 -1.9963 0.9828
3.3768 1.8439 -1.9960 0.9828
3.2364 2.0799 -1.9958 0.9828
3.1600 2.1940 -1.9957 0.9828
2.9952 2.4136 -1.9956 0.9828
2.9070 2.5189 -1.9955 0.9828
2.8150 2.6209 -1.9954 0.9828
2.7196 2.7196 -1.9952 0.9828
2.6206 2.8147 -1.9951 0.9828
2.3043 3.0782 -1.9948 0.9828
1.7622 2.7420 -1.6909 0.9854
1.5621 2.6327 -1.5881 0.9863
1.4616 2.6766 -1.5821 0.9864
1.1863 2.5976 -1.4814 0.9872
0.9691 2.5983 -1.4387 0.9876
0.8646 2.5976 -1.4203 0.9877
0.7763 2.6438 -1.4295 0.9877
0.4682 2.5949 -1.3679 0.9882
0.3736 2.5983 -1.3618 0.9882
0.1856 2.5957 -1.3501 0.9883
0.0927 2.5947 -1.3469 0.9884
-0.0000 2.5938 -1.3456 0.9884
-0.0926 2.5930 -1.3461 0.9884
-0.5637 2.5913 -1.3758 0.9881
-0.6618 2.5928 -1.3882 0.9880
-0.8640 2.5958 -1.4193 0.9877
-0.9682 2.5959 -1.4373 0.9876
-1.0751 2.5955 -1.4574 0.9874
-1.1850 2.5948 -1.4799 0.9872
-1.4153 2.5919 -1.5320 0.9868
-1.6767 2.6090 -1.6089 0.9861
-2.1020 2.6084 -1.7379 0.9850
-2.5113 2.8981 -1.9894 0.9829
-2.8062 2.6126 -1.9891 0.9829
-3.0690 2.2974 -1.9888 0.9829
-3.2247 2.0724 -1.9886 0.9829
-3.2965 1.9559 -1.9885 0.9829
-0.9416 0.4713 -0.5463 0.9953
-0.9326 0.4259 -0.5319 0.9954
-0.9271 0.3840 -0.5206 0.9955
-0.9208 0.3434 -0.5098 0.9956
-0.9268 0.3084 -0.5067 0.9956
-0.9524 0.2431 -0.5099 0.9956
-0.9785 0.1407 -0.5129 0.9956
-0.9873 0.0706 -0.5135 0.9955
-0.9893 0.0353 -0.5135 0.9955
3.6355 0.2600 -1.9963 0.9835
3.6239 0.3896 -1.9963 0.9835
3.4969 1.0268 -1.9961 0.9835
3.3668 1.3946 -1.9960 0.9835
3.3148 1.5138 -1.9959 0.9835
3.2586 1.6311 -1.9958 0.9835
3.1982 1.7463 -1.9958 0.9835
3.0652 1.9699 -1.9956 0.9835
2.9166 2.1833 -1.9955 0.9835
2.7532 2.3857 -1.9953 0.9835
2.5757 2.5757 -1.9951 0.9835
2.3852 2.7526 -1.9949 0.9835
2.0769 2.9913 -1.9945 0.9835
1.2997 2.5964 -1.5903 0.9868
1.0768 2.5996 -1.5411 0.9872
0.8648 2.5984 -1.4999 0.9876
0.7122 2.7902 -1.5772 0.9870
0.5650 2.5974 -1.4559 0.9880
0.3745 2.6047 -1.4413 0.9881
-0.0000 2.5998 -1.4239 0.9882
-0.0928 2.5976 -1.4236 0.9882
-0.1856 2.5955 -1.4252 0.9882
-0.4676 2.5917 -1.4424 0.9881
-0.6622 2.5946 -1.4666 0.9879
-0.9676 2.5943 -1.5165 0.9875
-1.0744 2.5938 -1.5377 0.9873
-1.4832 2.7163 -1.6951 0.9860
-1.9533 2.6093 -1.7852 0.9852
-2.1014 2.6077 -1.8343 0.9848
-2.3788 2.7453 -1.9896 0.9836
-2.4752 2.6585 -1.9894 0.9836
-2.5683 2.5683 -1.9893 0.9836
-2.7447 2.3783 -1.9891 0.9836
-2.9071 2.1762 -1.9890 0.9836
-2.9828 2.0710 -1.9889 0.9836
-0.8524 0.5057 -0.5428 0.9955
-0.8516 0.4262 -0.5216 0.9957
-0.8479 0.3512 -0.5027 0.9958
-0.8932 0.1943 -0.5006 0.9958
-0.9077 0.1305 -0.5022 0.9958
-0.9179 0.0328 -0.5031 0.9958
3.4573 -0.0000 -1.9961 0.9842
3.4374 0.3695 -1.9960 0.9842
3.4023 0.6138 -1.9960 0.9842
3.3781 0.7349 -1.9960 0.9842
3.3497 0.8550 -1.9960 0.9842
3.3170 0.9740 -1.9959 0.9842
3.2800 1.0917 -1.9959 0.9842
3.1937 1.3228 -1.9958 0.9842
3.0337 1.6565 -1.9956 0.9842
2.9725 1.7637 -1.9955 0.9842
2.8389 1.9711 -1.9954 0.9842
2.7666 2.0711 -1.9953 0.9842
2.6908 2.1684 -1.9952 0.9842
2.6116 2.2630 -1.9951 0.9842
2.5291 2.3546 -1.9950 0.9842
2.2625 2.6111 -1.9947 0.9842
2.0703 2.7655 -1.9945 0.9842
1.9701 2.8375 -1.9944 0.9842
1.8675 2.9059 -1.9943 0.9842
1.2997 2.5964 -1.6764 0.9867
0.8650 2.5990 -1.5815 0.9874
0.5661 2.6023 -1.5376 0.9878
0.3754 2.6107 -1.5228 0.9879
0.2804 2.6085 -1.5147 0.9880
-0.0000 2.6016 -1.5020 0.9881
-0.0928 2.5994 -1.5017 0.9881
-0.1858 2.5973 -1.5034 0.9880
-0.2790 2.5951 -1.5069 0.9880
-0.3728 2.5931 -1.5125 0.9880
-0.6621 2.5939 -1.5456 0.9877
-0.7615 2.5936 -1.5606 0.9876
-0.8632 2.5935 -1.5781 0.9875
-0.9673 2.5933 -1.5980 0.9873
-1.0740 2.5929 -1.6204 0.9871
-1.1839 2.5924 -1.6454 0.9869
-1.5465 2.6064 -1.7497 0.9861
-1.9524 2.6081 -1.8810 0.9851
-2.1625 2.6835 -1.9898 0.9842
-2.2568 2.6045 -1.9897 0.9842
-2.3482 2.5222 -1.9896 0.9842
-2.4366 2.4366 -1.9895 0.9842
-2.5219 2.3480 -1.9894 0.9842
-2.6040 2.2564 -1.9893 0.9842
-2.6828 2.1619 -1.9892 0.9842
-2.7581 2.0647 -1.9891 0.9842
-0.7751 0.4598 -0.5203 0.9958
-0.7887 0.2942 -0.4860 0.9961
-0.8128 0.2386 -0.4891 0.9961
-0.8453 0.1215 -0.4930 0.9961
-0.8499 0.0914 -0.4935 0.9961
-0.8531 0.0610 -0.4938 0.9961
-0.8548 0.0305 -0.4938 0.9961
