ply
format ascii 1.0
element vertex 769
property float32 x
property float32 y
property float32 z
property float32 I
end_header
-4.3885 8.0369 0.7752 0.9639
-4.1924 8.3754 0.3693 0.9632
-8.8427 3.6628 -0.7018 0.9623
-8.2433 3.4145 -0.8566 0.9648
-4.2333 8.4571 -1.1234 0.9626
-9.0952 3.3923 -1.1531 0.9617
-0.2843 3.9753 -0.5647 0.9840
-0.4964 3.4525 -0.4942 0.9860
-0.6198 3.4350 -0.4946 0.9860
-0.7427 3.4140 -0.4950 0.9860
-0.9866 3.3600 -0.4962 0.9860
-8.1412 3.3722 -1.2486 0.9650
-9.0559 3.3777 -1.3695 0.9617
-0.1248 3.4942 -0.5760 0.9859
-0.4452 3.0967 -0.5154 0.9874
-0.5561 3.0824 -0.5160 0.9874
-0.6681 3.0712 -0.5178 0.9873
-1.2528 3.0244 -0.5393 0.9868
-1.5778 3.1521 -0.5807 0.9858
-7.5435 3.4450 -1.3662 0.9669
-8.9780 3.3486 -1.5785 0.9619
5.8875 7.8647 -1.8466 0.9608
5.3096 8.2618 -1.8459 0.9608
3.0973 9.3058 -1.8435 0.9609
2.7626 9.4085 -1.8431 0.9609
1.3943 9.6979 -1.8416 0.9609
1.0471 9.7394 -1.8412 0.9609
0.2633 3.6815 -0.6937 0.9851
-0.0000 3.2845 -0.6174 0.9867
-0.1133 3.1733 -0.5968 0.9872
-0.2198 3.0725 -0.5790 0.9875
-0.4266 2.9673 -0.5635 0.9879
-0.5341 2.9605 -0.5654 0.9878
-0.6433 2.9573 -0.5689 0.9878
-0.8666 2.9512 -0.5781 0.9876
-1.0975 2.9425 -0.5903 0.9873
-1.3476 2.9508 -0.6097 0.9869
-1.4765 2.9497 -0.6200 0.9867
-1.7832 3.0054 -0.6569 0.9859
-2.7188 3.6318 -0.8527 0.9817
-7.5003 3.4252 -1.5498 0.9670
9.2572 2.0138 -2.0025 0.9620
8.8745 3.3100 -2.0021 0.9620
8.7501 3.6244 -2.0020 0.9620
8.6145 3.9341 -2.0018 0.9620
8.3105 4.5378 -2.0015 0.9620
7.7754 5.3986 -2.0009 0.9620
7.5770 5.6720 -2.0007 0.9620
7.1513 6.1967 -2.0002 0.9621
6.9247 6.4471 -1.9999 0.9621
6.6893 6.6893 -1.9997 0.9621
6.4454 6.9228 -1.9994 0.9621
5.9274 7.3555 -1.9968 0.9621
5.6510 7.5488 -1.9932 0.9622
5.3390 7.6896 -1.9788 0.9625
4.9477 7.6987 -1.9344 0.9633
4.5728 7.7070 -1.8943 0.9640
3.9056 7.8025 -1.8444 0.9650
3.0476 8.1710 -1.8434 0.9650
2.7535 8.2731 -1.8431 0.9650
1.2397 8.6226 -1.8414 0.9650
0.3718 3.4584 -0.7352 0.9859
0.2312 3.2325 -0.6850 0.9868
0.1116 3.1258 -0.6611 0.9873
-0.1060 2.9670 -0.6276 0.9879
-0.2110 2.9504 -0.6252 0.9880
-0.3154 2.9333 -0.6236 0.9880
-0.5247 2.9082 -0.6247 0.9880
-0.6317 2.9036 -0.6281 0.9879
-0.7398 2.8984 -0.6323 0.9878
-0.8496 2.8933 -0.6374 0.9877
-0.9615 2.8888 -0.6436 0.9876
-1.0755 2.8835 -0.6505 0.9875
-1.3223 2.8955 -0.6729 0.9871
-1.5698 2.8750 -0.6924 0.9867
-1.7186 2.8965 -0.7119 0.9863
-1.9077 2.9683 -0.7459 0.9857
-2.4631 3.0565 -0.8297 0.9841
-2.6658 3.0765 -0.8605 0.9835
-6.3992 6.8732 -1.9851 0.9623
-7.0945 6.1474 -1.9843 0.9623
-8.0688 4.7875 -1.9832 0.9624
-8.2338 4.4960 -1.9830 0.9624
-8.3883 4.1989 -1.9828 0.9624
-7.5003 3.4252 -1.7429 0.9669
-8.6651 3.5892 -1.9825 0.9624
-8.8979 2.9615 -1.9823 0.9624
-9.2271 1.6648 -1.9819 0.9624
-9.3219 1.0022 -1.9818 0.9624
-9.3694 0.3346 -1.9818 0.9624
8.5117 0.3040 -2.0017 0.9656
8.4300 1.2120 -2.0016 0.9656
8.3216 1.8102 -2.0015 0.9656
8.2513 2.1060 -2.0014 0.9656
7.9777 2.9748 -2.0011 0.9656
7.8659 3.2582 -2.0010 0.9656
7.4709 4.0794 -2.0006 0.9656
6.9902 4.8533 -2.0000 0.9656
6.6248 5.3386 -1.9996 0.9656
6.4293 5.5710 -1.9994 0.9656
6.2257 5.7963 -1.9992 0.9657
6.0141 6.0141 -1.9989 0.9657
5.5683 6.4262 -1.9984 0.9657
5.3347 6.6200 -1.9982 0.9657
5.0944 6.8053 -1.9979 0.9657
4.8476 6.9818 -1.9976 0.9657
4.5946 7.1494 -1.9973 0.9657
3.5129 7.6922 -1.9875 0.9658
2.8734 7.7039 -1.9324 0.9668
2.5658 7.7088 -1.9095 0.9672
0.7843 3.6052 -0.8671 0.9850
0.6295 3.4890 -0.8332 0.9855
0.2126 2.9728 -0.7005 0.9878
0.1052 2.9462 -0.6929 0.9880
-0.1041 2.9154 -0.6856 0.9881
-0.3099 2.8826 -0.6814 0.9882
-0.8342 2.8408 -0.6959 0.9879
-0.9432 2.8339 -0.7020 0.9878
-1.1693 2.8230 -0.7181 0.9875
-1.4283 2.8533 -0.7499 0.9870
-1.5438 2.8273 -0.7571 0.9869
-1.8538 2.8846 -0.8059 0.9860
-2.0105 2.8957 -0.8285 0.9856
-2.1388 2.8571 -0.8388 0.9854
-2.3026 2.8573 -0.8625 0.9850
-2.5005 2.8857 -0.8974 0.9844
-6.1825 5.7561 -1.9853 0.9659
-7.2604 4.3078 -1.9841 0.9659
-7.5480 3.7783 -1.9838 0.9659
-7.6775 3.5062 -1.9836 0.9659
-8.0964 2.3773 -1.9832 0.9659
-8.1757 2.0867 -1.9831 0.9659
-8.3511 1.2007 -1.9829 0.9659
-8.4313 0.3011 -1.9828 0.9659
7.7079 0.5513 -2.0008 0.9686
7.6487 1.0997 -2.0007 0.9686
7.6044 1.3720 -2.0007 0.9686
7.5503 1.6425 -2.0006 0.9686
7.4866 1.9108 -2.0006 0.9686
7.2385 2.6998 -2.0003 0.9686
6.9071 3.4575 -1.9999 0.9686
6.6419 3.9408 -1.9996 0.9686
6.1810 4.6270 -1.9991 0.9686
5.8340 5.0552 -1.9987 0.9686
5.6493 5.2597 -1.9985 0.9686
4.6230 6.1756 -1.9974 0.9686
4.3991 6.3359 -1.9971 0.9686
3.6951 6.7672 -1.9963 0.9686
1.2878 3.4526 -0.9541 0.9849
1.1380 3.4191 -0.9330 0.9852
0.9924 3.3799 -0.9121 0.9856
0.8433 3.3039 -0.8829 0.9860
0.5768 3.1967 -0.8411 0.9867
0.4398 3.0586 -0.8001 0.9873
-0.0000 2.8706 -0.7432 0.9882
-0.1021 2.8597 -0.7409 0.9882
-0.2037 2.8479 -0.7393 0.9883
-0.4049 2.8162 -0.7367 0.9883
-0.6097 2.8026 -0.7426 0.9882
-0.7139 2.7969 -0.7474 0.9881
-1.0370 2.7801 -0.7683 0.9878
-1.1498 2.7758 -0.7779 0.9877
-1.2754 2.7928 -0.7949 0.9874
-1.4044 2.8056 -0.8123 0.9871
-1.7768 2.7647 -0.8509 0.9865
-1.9652 2.8304 -0.8922 0.9859
-2.0893 2.7910 -0.9027 0.9857
-2.2299 2.7671 -0.9201 0.9854
-2.4016 2.7716 -0.9495 0.9850
-5.6138 5.2266 -1.9859 0.9688
-5.7961 5.0224 -1.9857 0.9688
-5.9711 4.8118 -1.9855 0.9688
-6.2980 4.3728 -1.9852 0.9688
-6.4495 4.1449 -1.9850 0.9688
-6.5928 3.9117 -1.9849 0.9688
-6.8541 3.4309 -1.9846 0.9688
-6.9717 3.1839 -1.9844 0.9688
-7.0805 2.9328 -1.9843 0.9688
-7.2709 2.4200 -1.9841 0.9688
-7.3523 2.1588 -1.9840 0.9688
-7.4870 1.6287 -1.9839 0.9688
7.0652 -0.0000 -2.0001 0.9711
7.0245 0.7552 -2.0001 0.9711
6.9930 1.0054 -2.0000 0.9711
6.9525 1.2543 -2.0000 0.9711
6.9031 1.5017 -1.9999 0.9711
6.7779 1.9901 -1.9998 0.9711
6.6180 2.4684 -1.9996 0.9711
6.3152 3.1612 -1.9993 0.9711
6.1979 3.3843 -1.9991 0.9711
6.0728 3.6031 -1.9990 0.9711
5.9399 3.8173 -1.9988 0.9711
5.7994 4.0266 -1.9987 0.9711
5.1655 4.8092 -1.9980 0.9711
4.8083 5.1644 -1.9976 0.9711
4.2273 5.6470 -1.9969 0.9711
3.5982 6.0644 -1.9962 0.9711
3.3790 6.1882 -1.9960 0.9711
1.6461 3.2884 -1.0410 0.9848
1.3131 3.1700 -0.9714 0.9858
1.1749 3.1500 -0.9517 0.9861
1.0413 3.1286 -0.9335 0.9864
0.5363 2.9725 -0.8551 0.9875
0.1004 2.8104 -0.7961 0.9884
-0.0997 2.7906 -0.7905 0.9885
-0.2985 2.7767 -0.7906 0.9885
-0.3985 2.7718 -0.7927 0.9884
-0.4992 2.7671 -0.7960 0.9884
-0.7040 2.7581 -0.8058 0.9882
-0.8083 2.7529 -0.8122 0.9881
-0.9143 2.7471 -0.8196 0.9880
-1.6120 2.7168 -0.8943 0.9870
-2.3429 2.7038 -1.0128 0.9852
-5.9006 3.7921 -1.9856 0.9713
-6.0317 3.5788 -1.9855 0.9713
-6.3785 2.9130 -1.9851 0.9713
-6.4780 2.6833 -1.9850 0.9713
-6.5694 2.4502 -1.9849 0.9713
-6.6523 2.2141 -1.9848 0.9713
-6.7268 1.9752 -1.9847 0.9713
-6.9386 0.9976 -1.9845 0.9713
-6.9697 0.7493 -1.9844 0.9713
-6.9919 0.5001 -1.9844 0.9713
-7.0052 0.2502 -1.9844 0.9713
6.4965 0.2320 -1.9995 0.9732
6.4840 0.4637 -1.9994 0.9732
6.3970 1.1542 -1.9994 0.9732
6.2980 1.6075 -1.9992 0.9732
6.2364 1.8312 -1.9992 0.9732
6.1669 2.0525 -1.9991 0.9732
6.0894 2.2712 -1.9990 0.9732
6.0042 2.4870 -1.9989 0.9732
5.8108 2.9087 -1.9987 0.9732
5.7030 3.1140 -1.9986 0.9732
5.5878 3.3154 -1.9984 0.9732
5.4656 3.5125 -1.9983 0.9732
5.3363 3.7050 -1.9982 0.9732
5.2003 3.8929 -1.9980 0.9732
5.0576 4.0757 -1.9979 0.9732
4.9085 4.2532 -1.9977 0.9732
4.7532 4.4253 -1.9975 0.9732
4.5918 4.5918 -1.9973 0.9732
4.4245 4.7523 -1.9972 0.9732
4.2517 4.9067 -1.9970 0.9732
4.0734 5.0548 -1.9968 0.9732
3.8900 5.1965 -1.9966 0.9732
3.7017 5.3314 -1.9963 0.9732
3.5087 5.4596 -1.9961 0.9732
1.6730 3.0639 -1.0737 0.9855
1.5029 3.0024 -1.0327 0.9860
1.2289 2.9669 -0.9878 0.9867
1.0994 2.9477 -0.9677 0.9869
0.9716 2.9192 -0.9463 0.9872
0.7344 2.8773 -0.9134 0.9876
0.6263 2.8791 -0.9062 0.9877
0.4046 2.8141 -0.8745 0.9882
0.1972 2.7572 -0.8502 0.9885
0.0984 2.7550 -0.8479 0.9885
-0.0982 2.7490 -0.8461 0.9886
-0.1963 2.7452 -0.8465 0.9885
-0.3933 2.7357 -0.8501 0.9885
-0.4927 2.7309 -0.8535 0.9885
-0.6944 2.7206 -0.8636 0.9883
-0.7970 2.7144 -0.8701 0.9882
-0.9014 2.7083 -0.8780 0.9881
-1.5877 2.6760 -0.9570 0.9871
-1.8485 2.6623 -0.9969 0.9865
-1.9951 2.6651 -1.0240 0.9862
-2.1582 2.6781 -1.0579 0.9857
-4.5683 4.5683 -1.9871 0.9733
-4.8817 4.2300 -1.9868 0.9733
-5.1702 3.8703 -1.9864 0.9733
-5.3046 3.6830 -1.9863 0.9733
-5.4323 3.4911 -1.9861 0.9733
-5.7732 2.8899 -1.9858 0.9733
-5.8724 2.6818 -1.9857 0.9733
-5.9641 2.4704 -1.9856 0.9733
-6.0481 2.2558 -1.9855 0.9733
-6.1932 1.8185 -1.9853 0.9733
-6.3067 1.3719 -1.9852 0.9734
-6.3882 0.9185 -1.9851 0.9734
-6.4373 0.4604 -1.9850 0.9734
-6.4496 0.2303 -1.9850 0.9734
5.9981 0.4290 -1.9989 0.9750
5.9521 0.8558 -1.9989 0.9750
5.9176 1.0676 -1.9988 0.9750
5.8756 1.2782 -1.9988 0.9750
5.8261 1.4870 -1.9987 0.9750
5.7048 1.8987 -1.9986 0.9750
5.6332 2.1011 -1.9985 0.9750
5.5543 2.3007 -1.9984 0.9750
5.3755 2.6908 -1.9982 0.9750
5.1693 3.0671 -1.9980 0.9750
5.0562 3.2494 -1.9979 0.9750
4.9367 3.4276 -1.9977 0.9750
4.6789 3.7705 -1.9974 0.9750
4.5410 3.9348 -1.9973 0.9750
4.0933 4.3965 -1.9968 0.9750
3.9334 4.5394 -1.9966 0.9750
3.7686 4.6765 -1.9964 0.9750
3.2461 5.0511 -1.9958 0.9750
1.7550 2.9579 -1.1433 0.9856
1.2873 2.8189 -1.0301 0.9870
1.0415 2.7923 -0.9906 0.9875
0.7174 2.8107 -0.9642 0.9878
0.6119 2.8129 -0.9569 0.9879
0.3745 2.6044 -0.8746 0.9890
0.1945 2.7191 -0.9062 0.9886
-0.0000 2.7166 -0.9030 0.9886
-0.0969 2.7134 -0.9025 0.9886
-0.2908 2.7051 -0.9044 0.9886
-0.3882 2.7001 -0.9068 0.9886
-0.8891 2.6712 -0.9358 0.9882
-1.0998 2.6551 -0.9553 0.9880
-1.8329 2.6398 -1.0683 0.9865
-1.9752 2.6386 -1.0956 0.9862
-2.3146 2.6712 -1.1749 0.9852
-2.5410 2.7292 -1.2395 0.9844
-4.2279 4.2279 -1.9875 0.9751
-4.5180 3.9149 -1.9872 0.9751
-4.7850 3.5820 -1.9869 0.9751
-4.9095 3.4087 -1.9867 0.9751
-5.1395 3.0494 -1.9865 0.9751
-5.4351 2.4821 -1.9861 0.9751
-5.5978 2.0879 -1.9860 0.9751
-5.6686 1.8867 -1.9859 0.9751
-5.7321 1.6831 -1.9858 0.9751
-5.8787 1.0606 -1.9857 0.9751
-5.9581 0.4261 -1.9856 0.9751
5.5884 -0.0000 -1.9984 0.9765
5.5848 0.1994 -1.9984 0.9765
5.5563 0.5973 -1.9984 0.9765
5.4993 0.9922 -1.9984 0.9765
5.4603 1.1878 -1.9983 0.9765
5.3016 1.7645 -1.9981 0.9765
5.1618 2.1381 -1.9980 0.9765
4.9029 2.6772 -1.9977 0.9765
4.6989 3.0198 -1.9975 0.9766
4.5879 3.1854 -1.9973 0.9766
4.2202 3.6568 -1.9969 0.9766
3.5025 4.3463 -1.9961 0.9766
3.1829 4.5842 -1.9958 0.9766
1.6510 2.7827 -1.1571 0.9863
1.4965 2.7406 -1.1167 0.9868
1.2369 2.7083 -1.0647 0.9874
1.0102 2.7086 -1.0338 0.9878
0.9021 2.7104 -1.0215 0.9879
0.7988 2.7205 -1.0140 0.9880
0.5945 2.7329 -1.0002 0.9882
0.4939 2.7375 -0.9948 0.9883
-0.0000 2.6788 -0.9580 0.9887
-0.1913 2.6744 -0.9588 0.9887
-0.6761 2.6489 -0.9777 0.9885
-0.8771 2.6352 -0.9932 0.9883
-1.0907 2.6333 -1.0193 0.9880
-1.3224 2.6418 -1.0565 0.9875
-1.5588 2.6271 -1.0924 0.9871
-1.6858 2.6232 -1.1151 0.9868
-1.8167 2.6165 -1.1391 0.9866
-2.1190 2.6294 -1.2076 0.9858
-2.2926 2.6458 -1.2520 0.9852
-3.9306 3.9306 -1.9878 0.9767
-4.0681 3.7875 -1.9877 0.9767
-4.4487 3.3302 -1.9872 0.9767
-4.5644 3.1691 -1.9871 0.9767
-4.7783 2.8351 -1.9869 0.9767
-5.0532 2.3077 -1.9866 0.9767
-5.1321 2.1258 -1.9865 0.9767
-5.2045 1.9412 -1.9864 0.9767
-5.2703 1.7541 -1.9863 0.9767
-5.3293 1.5648 -1.9863 0.9767
-5.4271 1.1806 -1.9862 0.9767
-5.4973 0.7904 -1.9861 0.9767
-5.5219 0.5936 -1.9860 0.9767
-5.5395 0.3962 -1.9860 0.9767
-5.5501 0.1982 -1.9860 0.9767
5.2005 0.3719 -1.9980 0.9779
5.1839 0.5573 -1.9980 0.9779
5.1606 0.7420 -1.9980 0.9779
5.0943 1.1082 -1.9979 0.9779
5.0514 1.2893 -1.9979 0.9779
4.8159 1.9948 -1.9976 0.9779
4.5744 2.4978 -1.9973 0.9779
4.4821 2.6593 -1.9972 0.9779
4.0571 3.2694 -1.9967 0.9779
3.5495 3.8124 -1.9962 0.9779
3.4109 3.9364 -1.9960 0.9779
3.1209 4.1690 -1.9957 0.9779
1.6215 2.7329 -1.2178 0.9865
1.4566 2.6675 -1.1647 0.9871
0.8831 2.6532 -1.0716 0.9881
0.6739 2.6404 -1.0443 0.9884
0.5762 2.6487 -1.0388 0.9885
0.3825 2.6606 -1.0301 0.9886
-0.0000 2.6409 -1.0120 0.9888
-0.2831 2.6332 -1.0149 0.9887
-0.3781 2.6296 -1.0181 0.9887
-0.5720 2.6294 -1.0312 0.9885
-0.6710 2.6290 -1.0398 0.9884
-0.9797 2.6267 -1.0744 0.9881
-1.0876 2.6257 -1.0891 0.9879
-1.2002 2.6280 -1.1071 0.9877
-1.3179 2.6327 -1.1282 0.9875
-1.8006 2.5933 -1.2098 0.9866
-2.1029 2.8092 -1.3448 0.9851
-2.2796 2.6308 -1.3340 0.9852
-3.6685 3.6684 -1.9881 0.9780
-3.7968 3.5349 -1.9880 0.9780
-4.0387 3.2546 -1.9877 0.9780
-4.1520 3.1082 -1.9876 0.9780
-4.3627 2.8037 -1.9873 0.9780
-4.4597 2.6461 -1.9872 0.9780
-4.5511 2.4851 -1.9871 0.9780
-4.6367 2.3209 -1.9870 0.9780
-4.9190 1.6372 -1.9867 0.9780
-4.9742 1.4605 -1.9867 0.9780
-5.1014 0.9204 -1.9865 0.9780
-5.1704 0.3698 -1.9864 0.9780
4.8810 -0.0000 -1.9977 0.9791
4.8779 0.1742 -1.9977 0.9791
4.8685 0.3482 -1.9976 0.9791
4.8529 0.5217 -1.9976 0.9791
4.8032 0.8666 -1.9976 0.9791
4.7691 1.0375 -1.9975 0.9791
4.7290 1.2070 -1.9975 0.9791
4.6827 1.3750 -1.9974 0.9791
4.3634 2.1842 -1.9971 0.9791
4.1961 2.4897 -1.9969 0.9791
4.1044 2.6377 -1.9968 0.9791
3.9053 2.9234 -1.9966 0.9791
3.7982 3.0608 -1.9965 0.9791
3.5697 3.3235 -1.9962 0.9791
3.4486 3.4486 -1.9961 0.9791
3.1933 3.6853 -1.9958 0.9791
3.0595 3.7967 -1.9956 0.9791
1.5926 2.6841 -1.2774 0.9866
1.3176 2.6323 -1.2048 0.9874
0.9847 2.6402 -1.1533 0.9879
0.8750 2.6290 -1.1340 0.9881
0.6697 2.6237 -1.1082 0.9884
0.5702 2.6211 -1.0978 0.9885
0.4725 2.6191 -1.0892 0.9886
0.2813 2.6164 -1.0770 0.9887
-0.1874 2.6202 -1.0751 0.9887
-0.2817 2.6204 -1.0786 0.9887
-0.4729 2.6209 -1.0900 0.9886
-0.7696 2.6210 -1.1180 0.9883
-0.8721 2.6202 -1.1302 0.9881
-1.0844 2.6180 -1.1598 0.9878
-1.1965 2.6199 -1.1788 0.9876
-1.3119 2.6209 -1.1996 0.9874
-1.4285 2.6162 -1.2200 0.9872
-1.5443 2.6028 -1.2386 0.9870
-1.9519 2.6074 -1.3330 0.9860
-2.5430 2.7313 -1.5274 0.9840
-3.4353 3.4353 -1.9884 0.9792
-3.5555 3.3103 -1.9882 0.9792
-3.6712 3.1811 -1.9881 0.9792
-3.9895 2.7699 -1.9878 0.9792
-4.2621 2.3272 -1.9875 0.9792
-4.4168 2.0171 -1.9873 0.9792
-4.5491 1.6967 -1.9871 0.9792
-4.6066 1.5332 -1.9871 0.9792
-4.7040 1.2006 -1.9870 0.9792
-4.7438 1.0319 -1.9869 0.9792
-4.8052 0.6908 -1.9868 0.9792
-4.8421 0.3463 -1.9868 0.9792
4.5800 0.1635 -1.9973 0.9802
4.5566 0.4899 -1.9973 0.9802
4.5362 0.6522 -1.9973 0.9802
4.5099 0.8137 -1.9972 0.9802
4.2933 1.6013 -1.9970 0.9802
4.1678 1.9034 -1.9969 0.9802
4.0971 2.0508 -1.9968 0.9802
4.0211 2.1957 -1.9967 0.9802
3.7628 2.6125 -1.9964 0.9802
3.6670 2.7450 -1.9963 0.9802
3.5664 2.8740 -1.9962 0.9802
3.2382 3.2382 -1.9958 0.9802
2.8729 3.5651 -1.9954 0.9802
2.7436 3.6651 -1.9953 0.9802
1.4343 2.6268 -1.3044 0.9870
1.3080 2.6130 -1.2735 0.9873
1.0770 2.6002 -1.2266 0.9878
0.7668 2.6116 -1.1862 0.9882
0.5684 2.6131 -1.1655 0.9884
0.3750 2.6079 -1.1483 0.9886
0.2804 2.6080 -1.1432 0.9886
0.1866 2.6087 -1.1398 0.9887
-0.0000 2.6100 -1.1375 0.9887
-0.0932 2.6106 -1.1385 0.9887
-0.2807 2.6112 -1.1446 0.9886
-0.3754 2.6112 -1.1497 0.9886
-0.4712 2.6117 -1.1566 0.9885
-0.7673 2.6131 -1.1869 0.9882
-0.8696 2.6126 -1.2000 0.9881
-1.0812 2.6103 -1.2313 0.9877
-1.1927 2.6117 -1.2513 0.9876
-1.3060 2.6090 -1.2716 0.9873
-1.4220 2.6041 -1.2931 0.9871
-1.5384 2.5928 -1.3139 0.9869
-1.9527 2.6085 -1.4201 0.9859
-2.2684 2.6178 -1.5096 0.9850
-3.2265 3.2265 -1.9886 0.9803
-3.3394 3.1091 -1.9885 0.9803
-3.4480 2.9877 -1.9884 0.9803
-3.5523 2.8626 -1.9882 0.9803
-3.7470 2.6016 -1.9880 0.9803
-4.0031 2.1858 -1.9877 0.9803
-4.0784 2.0415 -1.9877 0.9803
-1.5118 0.5639 -0.7032 0.9930
-1.4401 0.4793 -0.6615 0.9934
-1.3688 0.2977 -0.6105 0.9939
-1.4180 0.2039 -0.6244 0.9938
-1.4359 0.1544 -0.6294 0.9937
4.3143 -0.0000 -1.9970 0.9812
4.3116 0.1540 -1.9970 0.9812
4.3033 0.3078 -1.9970 0.9812
4.2895 0.4612 -1.9970 0.9812
4.2456 0.7660 -1.9970 0.9812
4.1391 1.2154 -1.9968 0.9812
4.0930 1.3623 -1.9968 0.9812
4.0417 1.5075 -1.9967 0.9812
3.9236 1.7918 -1.9966 0.9812
3.8570 1.9307 -1.9965 0.9812
3.7854 2.0670 -1.9964 0.9812
3.7091 2.2007 -1.9964 0.9812
3.6280 2.3316 -1.9963 0.9812
3.5423 2.4595 -1.9962 0.9812
3.3575 2.7056 -1.9960 0.9812
3.2586 2.8236 -1.9958 0.9812
3.1556 2.9379 -1.9957 0.9812
3.0485 3.0485 -1.9956 0.9812
2.9376 3.1552 -1.9955 0.9812
2.8229 3.2578 -1.9954 0.9812
2.7046 3.3563 -1.9952 0.9812
2.5830 3.4504 -1.9951 0.9812
1.7884 2.7828 -1.5312 0.9855
1.5657 2.6388 -1.4203 0.9866
1.4236 2.8440 -1.4722 0.9861
1.1854 2.5956 -1.3208 0.9875
1.0753 2.5960 -1.3007 0.9877
0.4693 2.6014 -1.2236 0.9884
0.3737 2.5989 -1.2154 0.9885
0.2795 2.5996 -1.2103 0.9885
0.1860 2.6003 -1.2067 0.9886
0.0929 2.6008 -1.2047 0.9886
-0.0000 2.6011 -1.2040 0.9886
-0.0929 2.6013 -1.2049 0.9886
-0.2797 2.6018 -1.2113 0.9885
-0.4695 2.6023 -1.2240 0.9884
-0.5662 2.6029 -1.2330 0.9883
-0.6645 2.6033 -1.2437 0.9882
-0.8665 2.6035 -1.2701 0.9880
-1.0780 2.6024 -1.3039 0.9877
-1.1882 2.6017 -1.3239 0.9875
-1.4157 2.5926 -1.3673 0.9871
-1.5574 2.6248 -1.4128 0.9866
-1.8117 2.6093 -1.4704 0.9861
-2.1020 2.6085 -1.5507 0.9853
-2.2658 2.6148 -1.6015 0.9849
-2.9280 3.1448 -1.9889 0.9812
-3.0381 3.0381 -1.9888 0.9812
-3.1445 2.9276 -1.9887 0.9812
-3.2468 2.8133 -1.9886 0.9812
-3.4388 2.5743 -1.9884 0.9812
-3.5283 2.4498 -1.9883 0.9812
-3.6938 2.1916 -1.9881 0.9812
-3.7695 2.0583 -1.9880 0.9812
-1.2017 0.4482 -0.5937 0.9944
-1.1330 0.3327 -0.5466 0.9948
-1.1575 0.2954 -0.5529 0.9947
-1.2124 0.1743 -0.5670 0.9946
4.0681 0.1453 -1.9968 0.9820
4.0603 0.2904 -1.9967 0.9820
4.0291 0.5793 -1.9967 0.9820
3.9774 0.8652 -1.9967 0.9820
3.8619 1.2854 -1.9965 0.9820
3.8134 1.4223 -1.9965 0.9820
3.7601 1.5575 -1.9964 0.9820
3.7020 1.6907 -1.9963 0.9820
3.5717 1.9503 -1.9962 0.9820
3.4997 2.0765 -1.9961 0.9820
3.4232 2.2000 -1.9960 0.9820
3.3424 2.3206 -1.9959 0.9820
3.1680 2.5529 -1.9957 0.9820
2.9775 2.7721 -1.9955 0.9820
2.7718 2.9771 -1.9953 0.9820
2.5520 3.1669 -1.9951 0.9820
1.7738 2.7601 -1.6094 0.9855
1.4185 2.5977 -1.4518 0.9869
1.1858 2.5966 -1.4002 0.9874
0.9687 2.5971 -1.3597 0.9877
0.8005 2.7262 -1.3937 0.9874
0.6639 2.6010 -1.3167 0.9881
0.3727 2.5921 -1.2846 0.9884
0.2786 2.5911 -1.2783 0.9885
0.0926 2.5923 -1.2724 0.9885
-0.0926 2.5928 -1.2726 0.9885
-0.1854 2.5927 -1.2750 0.9885
-0.2787 2.5924 -1.2790 0.9885
-0.5641 2.5933 -1.3018 0.9882
-0.6620 2.5936 -1.3130 0.9881
-0.7616 2.5937 -1.3260 0.9880
-0.8634 2.5941 -1.3411 0.9879
-0.9681 2.5957 -1.3589 0.9877
-1.0758 2.5971 -1.3789 0.9876
-1.6764 2.6085 -1.5210 0.9863
-1.8126 2.6106 -1.5590 0.9859
-1.9540 2.6102 -1.5994 0.9856
-2.6557 3.0648 -1.9892 0.9821
-2.9676 2.7629 -1.9889 0.9821
-3.0641 2.6551 -1.9888 0.9821
-3.3299 2.3120 -1.9885 0.9821
-3.4101 2.1915 -1.9884 0.9821
-3.4860 2.0683 -1.9883 0.9821
-3.5575 1.9425 -1.9882 0.9821
-1.0589 0.5300 -0.5808 0.9947
-1.0444 0.4769 -0.5632 0.9949
-1.0119 0.3774 -0.5298 0.9952
-1.0175 0.2987 -0.5202 0.9953
-1.0705 0.1151 -0.5281 0.9952
-1.0769 0.0770 -0.5296 0.9952
3.8485 0.0000 -1.9965 0.9828
3.8460 0.1374 -1.9965 0.9828
3.8386 0.2745 -1.9965 0.9828
3.6923 1.0841 -1.9963 0.9828
3.6511 1.2152 -1.9963 0.9828
3.6053 1.3447 -1.9962 0.9828
3.5549 1.4725 -1.9962 0.9828
3.3768 1.8439 -1.9960 0.9828
3.3087 1.9632 -1.9959 0.9828
3.1600 2.1940 -1.9957 0.9828
3.0795 2.3053 -1.9956 0.9828
2.8150 2.6209 -1.9954 0.9828
2.7196 2.7196 -1.9952 0.9828
2.1928 3.1583 -1.9947 0.9828
1.5621 2.6327 -1.5881 0.9863
1.0763 2.5983 -1.4590 0.9874
0.8646 2.5976 -1.4203 0.9877
0.7763 2.6438 -1.4295 0.9877
0.6635 2.5995 -1.3918 0.9880
0.4682 2.5949 -1.3679 0.9882
0.3736 2.5983 -1.3618 0.9882
0.2792 2.5969 -1.3550 0.9883
0.1856 2.5957 -1.3501 0.9883
-0.0000 2.5938 -1.3456 0.9884
-0.0926 2.5930 -1.3461 0.9884
-0.3723 2.5895 -1.3572 0.9883
-0.5637 2.5913 -1.3758 0.9881
-0.6618 2.5928 -1.3882 0.9880
-0.7618 2.5943 -1.4027 0.9879
-0.8640 2.5958 -1.4193 0.9877
-0.9682 2.5959 -1.4373 0.9876
-1.0751 2.5955 -1.4574 0.9874
-1.1850 2.5948 -1.4799 0.9872
-1.5465 2.6065 -1.5723 0.9864
-2.1020 2.6084 -1.7379 0.9850
-2.6130 2.8065 -1.9893 0.9829
-3.0690 2.2974 -1.9888 0.9829
-3.1489 2.1863 -1.9887 0.9829
-3.2965 1.9559 -1.9885 0.9829
-0.9486 0.5180 -0.5607 0.9951
-0.9268 0.3084 -0.5067 0.9956
-0.9404 0.2761 -0.5085 0.9956
-0.9524 0.2431 -0.5099 0.9956
-0.9628 0.2094 -0.5112 0.9956
-0.9715 0.1753 -0.5121 0.9956
-0.9785 0.1407 -0.5129 0.9956
-0.9873 0.0706 -0.5135 0.9955
3.6425 0.1301 -1.9963 0.9835
3.5314 0.9013 -1.9962 0.9835
3.4969 1.0268 -1.9961 0.9835
3.2586 1.6311 -1.9958 0.9835
3.0652 1.9699 -1.9956 0.9835
2.9928 2.0780 -1.9956 0.9835
2.9166 2.1833 -1.9955 0.9835
2.5757 2.5757 -1.9951 0.9835
2.0769 2.9913 -1.9945 0.9835
1.9687 3.0633 -1.9944 0.9835
1.1866 2.5983 -1.5645 0.9871
1.0768 2.5996 -1.5411 0.9872
0.7627 2.5974 -1.4826 0.9877
0.5650 2.5974 -1.4559 0.9880
0.4693 2.6012 -1.4477 0.9880
0.2799 2.6033 -1.4340 0.9881
0.0929 2.6010 -1.4255 0.9882
-0.0000 2.5998 -1.4239 0.9882
-0.0928 2.5976 -1.4236 0.9882
-0.1856 2.5955 -1.4252 0.9882
-0.2788 2.5933 -1.4286 0.9882
-0.3726 2.5913 -1.4338 0.9881
-0.4676 2.5917 -1.4424 0.9881
-0.9676 2.5943 -1.5165 0.9875
-1.0744 2.5938 -1.5377 0.9873
-1.2976 2.5923 -1.5877 0.9869
-1.6767 2.6089 -1.6986 0.9860
-2.1014 2.6077 -1.8343 0.9848
-2.3788 2.7453 -1.9896 0.9836
-2.5683 2.5683 -1.9893 0.9836
-2.9828 2.0710 -1.9889 0.9836
-3.0547 1.9632 -1.9888 0.9836
-0.8507 0.4645 -0.5309 0.9956
-0.8479 0.3512 -0.5027 0.9958
-0.8603 0.2863 -0.4966 0.9959
-0.8727 0.2562 -0.4982 0.9959
-0.8837 0.2255 -0.4995 0.9958
-0.8932 0.1943 -0.5006 0.9958
-0.9011 0.1626 -0.5015 0.9958
-0.9077 0.1305 -0.5022 0.9958
-0.9127 0.0981 -0.5028 0.9958
-0.9161 0.0655 -0.5030 0.9958
-0.9179 0.0328 -0.5031 0.9958
3.4573 -0.0000 -1.9961 0.9842
3.4551 0.1234 -1.9961 0.9842
3.4220 0.4920 -1.9960 0.9842
3.4023 0.6138 -1.9960 0.9842
3.3170 0.9740 -1.9959 0.9842
3.2800 1.0917 -1.9959 0.9842
3.2389 1.2081 -1.9958 0.9842
3.1937 1.3228 -1.9958 0.9842
3.1443 1.4359 -1.9957 0.9842
3.0910 1.5472 -1.9957 0.9842
3.0337 1.6565 -1.9956 0.9842
2.7666 2.0711 -1.9953 0.9842
2.6116 2.2630 -1.9951 0.9842
2.5291 2.3546 -1.9950 0.9842
2.4433 2.4433 -1.9949 0.9842
2.2625 2.6111 -1.9947 0.9842
2.1678 2.6900 -1.9946 0.9842
2.0703 2.7655 -1.9945 0.9842
1.8675 2.9059 -1.9943 0.9842
1.7625 2.9705 -1.9942 0.9842
1.4631 2.6795 -1.7626 0.9860
1.2997 2.5964 -1.6764 0.9867
1.0772 2.6006 -1.6252 0.9871
0.8650 2.5990 -1.5815 0.9874
0.5661 2.6023 -1.5376 0.9878
0.4703 2.6067 -1.5293 0.9878
0.2804 2.6085 -1.5147 0.9880
0.1864 2.6061 -1.5085 0.9880
0.0930 2.6038 -1.5043 0.9880
-0.1858 2.5973 -1.5034 0.9880
-0.2790 2.5951 -1.5069 0.9880
-0.5643 2.5942 -1.5328 0.9878
-0.7615 2.5936 -1.5606 0.9876
-0.8632 2.5935 -1.5781 0.9875
-0.9673 2.5933 -1.5980 0.9873
-1.2974 2.5919 -1.6735 0.9867
-1.6522 3.0257 -1.9904 0.9842
-1.5465 2.6064 -1.7497 0.9861
-1.9524 2.6081 -1.8810 0.9851
-2.1625 2.6835 -1.9898 0.9842
-2.2568 2.6045 -1.9897 0.9842
-2.3482 2.5222 -1.9896 0.9842
-2.4366 2.4366 -1.9895 0.9842
-2.7581 2.0647 -1.9891 0.9842
-0.7696 0.4946 -0.5282 0.9958
-0.7751 0.4598 -0.5203 0.9958
-0.7796 0.3229 -0.4872 0.9961
-0.7887 0.2942 -0.4860 0.9961
-0.8014 0.2667 -0.4876 0.9961
-0.8230 0.2100 -0.4904 0.9961
-0.8318 0.1809 -0.4915 0.9961
-0.8393 0.1514 -0.4924 0.9961
-0.8453 0.1215 -0.4930 0.9961
-0.8499 0.0914 -0.4935 0.9961
-0.8531 0.0610 -0.4938 0.9961
-0.8548 0.0305 -0.4938 0.9961
