ply
format ascii 1.0
element vertex 752
property float32 x
property float32 y
property float32 z
property float32 I
end_header
-4.3885 8.0369 0.7752 0.9639
-4.1924 8.3754 0.3693 0.9632
-4.2322 8.4548 -0.0532 0.9629
-6.7194 3.6690 -0.7350 0.9697
-6.7202 3.3639 -0.7215 0.9703
-6.7627 3.0884 -0.7138 0.9706
-6.7477 3.3777 -0.8963 0.9701
-0.2843 3.9753 -0.5647 0.9840
-0.6198 3.4350 -0.4946 0.9860
-1.1073 3.3267 -0.4968 0.9859
-1.2632 3.3868 -0.5122 0.9855
-1.4360 3.4669 -0.5317 0.9850
-5.8641 3.4793 -0.9661 0.9728
-0.0000 3.7591 -0.6193 0.9849
-0.1248 3.4942 -0.5760 0.9859
-0.2382 3.3299 -0.5500 0.9866
-0.3445 3.2039 -0.5309 0.9870
-0.6681 3.0712 -0.5178 0.9873
-0.7804 3.0575 -0.5198 0.9873
-1.1202 3.0033 -0.5281 0.9871
-1.2528 3.0244 -0.5393 0.9868
-1.3939 3.0523 -0.5528 0.9865
-6.0023 3.5613 -1.1498 0.9721
-6.1141 3.3386 -1.1476 0.9722
-6.4452 3.2262 -1.1874 0.9712
-7.3929 3.3762 -1.3389 0.9676
5.8875 7.8647 -1.8466 0.9608
5.0104 8.4445 -1.8456 0.9608
4.3935 8.7772 -1.8449 0.9608
3.7547 9.0648 -1.8442 0.9609
3.4281 9.1912 -1.8438 0.9609
0.2633 3.6815 -0.6937 0.9851
-0.7541 2.9546 -0.5732 0.9877
-0.8666 2.9512 -0.5781 0.9876
-1.0975 2.9425 -0.5903 0.9873
-1.2199 2.9450 -0.5992 0.9871
-2.7188 3.6318 -0.8527 0.9817
-7.4297 3.3930 -1.5352 0.9673
9.3779 1.3483 -2.0027 0.9620
9.1790 2.3428 -2.0025 0.9620
8.9875 2.9913 -2.0022 0.9620
8.8745 3.3100 -2.0021 0.9620
8.7501 3.6244 -2.0020 0.9620
8.6145 3.9341 -2.0018 0.9620
8.3105 4.5378 -2.0015 0.9620
7.9640 5.1182 -2.0011 0.9620
7.5770 5.6720 -2.0007 0.9620
7.3688 5.9382 -2.0004 0.9620
6.9247 6.4471 -1.9999 0.9621
6.4454 6.9228 -1.9994 0.9621
6.1933 7.1475 -1.9991 0.9621
5.9274 7.3555 -1.9968 0.9621
5.3390 7.6896 -1.9788 0.9625
4.2125 7.7146 -1.8580 0.9647
3.6240 7.9355 -1.8441 0.9650
3.0476 8.1710 -1.8434 0.9650
2.7535 8.2731 -1.8431 0.9650
1.5470 8.5745 -1.8417 0.9650
0.3718 3.4584 -0.7352 0.9859
-0.3154 2.9333 -0.6236 0.9880
-0.4192 2.9156 -0.6226 0.9880
-0.7398 2.8984 -0.6323 0.9878
-1.0755 2.8835 -0.6505 0.9875
-1.1941 2.8829 -0.6596 0.9873
-1.3223 2.8955 -0.6729 0.9871
-1.5698 2.8750 -0.6924 0.9867
-1.9077 2.9683 -0.7459 0.9857
-2.0567 2.9622 -0.7623 0.9854
-2.6658 3.0765 -0.8605 0.9835
-7.3085 5.8895 -1.9841 0.9624
-7.5132 5.6243 -1.9838 0.9624
-6.1516 3.3590 -1.4815 0.9718
-8.8979 2.9615 -1.9823 0.9624
-8.9974 2.6419 -1.9822 0.9624
-9.0856 2.3189 -1.9821 0.9624
-9.1622 1.9931 -1.9820 0.9624
-9.3694 0.3346 -1.9818 0.9624
8.5171 -0.0000 -2.0017 0.9656
8.5117 0.3040 -2.0017 0.9656
8.4681 0.9104 -2.0017 0.9656
8.4300 1.2120 -2.0016 0.9656
8.0793 2.6890 -2.0012 0.9656
7.7441 3.5366 -2.0009 0.9656
7.4709 4.0794 -2.0006 0.9656
7.3200 4.3431 -2.0004 0.9656
7.1596 4.6012 -2.0002 0.9656
6.9902 4.8533 -2.0000 0.9656
6.8118 5.0993 -1.9998 0.9656
5.7949 6.2241 -1.9987 0.9657
5.3347 6.6200 -1.9982 0.9657
4.0647 7.4439 -1.9933 0.9658
3.7916 7.5747 -1.9908 0.9658
3.1888 7.6983 -1.9584 0.9663
0.6295 3.4890 -0.8332 0.9855
0.2126 2.9728 -0.7005 0.9878
0.1052 2.9462 -0.6929 0.9880
0.0000 2.9311 -0.6889 0.9880
-0.3099 2.8826 -0.6814 0.9882
-0.4120 2.8653 -0.6803 0.9882
-0.6205 2.8525 -0.6861 0.9881
-0.8342 2.8408 -0.6959 0.9879
-1.0542 2.8265 -0.7090 0.9877
-1.4283 2.8533 -0.7499 0.9870
-1.5438 2.8273 -0.7571 0.9869
-1.6614 2.8002 -0.7652 0.9867
-2.5005 2.8857 -0.8974 0.9844
-5.7575 6.1840 -1.9858 0.9659
-6.5760 5.2992 -1.9849 0.9659
-6.9359 4.8157 -1.9845 0.9659
-5.3213 3.4198 -1.4866 0.9743
-6.1588 3.3629 -1.6492 0.9716
-6.6362 3.3218 -1.7441 0.9700
-7.7972 3.2297 -1.9835 0.9659
-8.0068 2.6649 -1.9833 0.9659
-8.0964 2.3773 -1.9832 0.9659
-8.1757 2.0867 -1.9831 0.9659
-8.2447 1.7935 -1.9830 0.9659
-8.3885 0.9018 -1.9828 0.9659
-8.4313 0.3011 -1.9828 0.9659
7.7227 0.2758 -2.0008 0.9686
7.6487 1.0997 -2.0007 0.9686
7.6044 1.3720 -2.0007 0.9686
7.4866 1.9108 -2.0006 0.9686
7.4134 2.1768 -2.0005 0.9686
7.0266 3.2089 -2.0001 0.9686
6.9071 3.4575 -1.9999 0.9686
6.7788 3.7015 -1.9998 0.9686
6.3428 4.4039 -1.9993 0.9686
6.1810 4.6270 -1.9991 0.9686
6.0113 4.8442 -1.9989 0.9686
5.8340 5.0552 -1.9987 0.9686
5.4574 5.4574 -1.9983 0.9686
4.6230 6.1756 -1.9974 0.9686
4.1696 6.4880 -1.9969 0.9686
3.9349 6.6318 -1.9966 0.9686
3.6951 6.7672 -1.9963 0.9686
3.4508 6.8938 -1.9961 0.9686
1.6969 3.7158 -1.0577 0.9833
1.2878 3.4526 -0.9541 0.9849
0.9924 3.3799 -0.9121 0.9856
0.8433 3.3039 -0.8829 0.9860
0.7067 3.2488 -0.8609 0.9864
0.5768 3.1967 -0.8411 0.9867
0.4398 3.0586 -0.8001 0.9873
0.3149 2.9291 -0.7628 0.9879
0.2067 2.8896 -0.7501 0.9881
0.1029 2.8806 -0.7463 0.9882
-0.0000 2.8706 -0.7432 0.9882
-0.1021 2.8597 -0.7409 0.9882
-0.2037 2.8479 -0.7393 0.9883
-0.3046 2.8331 -0.7378 0.9883
-0.6097 2.8026 -0.7426 0.9882
-0.8198 2.7919 -0.7534 0.9880
-0.9274 2.7864 -0.7604 0.9879
-1.1498 2.7758 -0.7779 0.9877
-1.4044 2.8056 -0.8123 0.9871
-1.9652 2.8304 -0.8922 0.9859
-2.2299 2.7671 -0.9201 0.9854
-2.4016 2.7716 -0.9495 0.9850
-5.2277 5.6150 -1.9864 0.9688
-5.4242 5.4242 -1.9862 0.9688
-5.6138 5.2266 -1.9859 0.9688
-6.2980 4.3728 -1.9852 0.9688
-5.8001 3.4414 -1.7462 0.9725
-6.8541 3.4309 -1.9846 0.9688
-6.9717 3.1839 -1.9844 0.9688
-7.0805 2.9328 -1.9843 0.9688
-7.2709 2.4200 -1.9841 0.9688
-7.3523 2.1588 -1.9840 0.9688
-7.6177 0.8190 -1.9837 0.9688
-7.6419 0.5466 -1.9837 0.9688
7.0652 -0.0000 -2.0001 0.9711
7.0245 0.7552 -2.0001 0.9711
6.9525 1.2543 -2.0000 0.9711
6.8449 1.7470 -1.9999 0.9711
6.7779 1.9901 -1.9998 0.9711
6.6180 2.4684 -1.9996 0.9711
6.5254 2.7029 -1.9995 0.9711
6.4244 2.9339 -1.9994 0.9711
6.0728 3.6031 -1.9990 0.9711
5.6515 4.2306 -1.9985 0.9711
4.9900 4.9900 -1.9978 0.9711
4.8083 5.1644 -1.9976 0.9711
4.6204 5.3322 -1.9974 0.9711
4.0226 5.7936 -1.9967 0.9711
3.8128 5.9328 -1.9965 0.9711
3.3790 6.1882 -1.9960 0.9711
1.0413 3.1286 -0.9335 0.9864
0.9088 3.0952 -0.9132 0.9867
0.7803 3.0573 -0.8932 0.9870
0.6567 3.0187 -0.8746 0.9872
0.4162 2.8948 -0.8279 0.9879
0.1004 2.8104 -0.7961 0.9884
-0.0997 2.7906 -0.7905 0.9885
-0.2985 2.7767 -0.7906 0.9885
-0.7040 2.7581 -0.8058 0.9882
-0.9143 2.7471 -0.8196 0.9880
-1.0222 2.7405 -0.8280 0.9879
-1.1322 2.7333 -0.8375 0.9878
-1.2549 2.7479 -0.8552 0.9875
-1.4969 2.7413 -0.8842 0.9871
-1.6120 2.7168 -0.8943 0.9870
-1.7392 2.7063 -0.9107 0.9867
-1.9015 2.7387 -0.9439 0.9862
-2.0384 2.7230 -0.9629 0.9860
-2.3429 2.7038 -1.0128 0.9852
-2.6149 2.8086 -1.0864 0.9842
-4.9623 4.9623 -1.9867 0.9712
-5.1358 4.7815 -1.9865 0.9713
-5.3027 4.5948 -1.9863 0.9713
-5.7619 4.0006 -1.9858 0.9713
-5.7656 3.4208 -1.8979 0.9725
-6.1552 3.3610 -1.9853 0.9713
-6.3785 2.9130 -1.9851 0.9713
-6.7268 1.9752 -1.9847 0.9713
-6.7928 1.7337 -1.9846 0.9713
-6.8501 1.4901 -1.9846 0.9713
-6.9697 0.7493 -1.9844 0.9713
-6.9919 0.5001 -1.9844 0.9713
-7.0052 0.2502 -1.9844 0.9713
6.4965 0.2320 -1.9995 0.9732
6.4343 0.9251 -1.9994 0.9732
6.3970 1.1542 -1.9994 0.9732
6.3516 1.3817 -1.9993 0.9732
6.2980 1.6075 -1.9992 0.9732
6.1669 2.0525 -1.9991 0.9732
6.0894 2.2712 -1.9990 0.9732
6.0042 2.4870 -1.9989 0.9732
5.5878 3.3154 -1.9984 0.9732
5.3363 3.7050 -1.9982 0.9732
5.2003 3.8929 -1.9980 0.9732
5.0576 4.0757 -1.9979 0.9732
4.7532 4.4253 -1.9975 0.9732
4.5918 4.5918 -1.9973 0.9732
3.5087 5.4596 -1.9961 0.9732
1.6730 3.0639 -1.0737 0.9855
1.5029 3.0024 -1.0327 0.9860
1.0994 2.9477 -0.9677 0.9869
0.8489 2.8912 -0.9268 0.9875
0.4046 2.8141 -0.8745 0.9882
0.2973 2.7654 -0.8555 0.9884
0.0000 2.7523 -0.8465 0.9885
-0.1963 2.7452 -0.8465 0.9885
-0.2947 2.7407 -0.8478 0.9885
-0.3933 2.7357 -0.8501 0.9885
-0.5930 2.7260 -0.8581 0.9884
-0.6944 2.7206 -0.8636 0.9883
-0.7970 2.7144 -0.8701 0.9882
-1.0076 2.7015 -0.8868 0.9880
-1.1159 2.6939 -0.8969 0.9879
-1.5877 2.6760 -0.9570 0.9871
-2.1582 2.6781 -1.0579 0.9857
-2.5719 2.7625 -1.1609 0.9843
-4.8817 4.2300 -1.9868 0.9733
-5.4323 3.4911 -1.9861 0.9733
-5.5531 3.2948 -1.9860 0.9733
-5.7732 2.8899 -1.9858 0.9733
-6.1932 1.8185 -1.9853 0.9733
-6.2539 1.5962 -1.9852 0.9734
-6.3067 1.3719 -1.9852 0.9734
-6.3882 0.9185 -1.9851 0.9734
-6.4168 0.6899 -1.9851 0.9734
-6.4373 0.4604 -1.9850 0.9734
6.0135 -0.0000 -1.9989 0.9750
5.9981 0.4290 -1.9989 0.9750
5.9789 0.6428 -1.9989 0.9750
5.9176 1.0676 -1.9988 0.9750
5.7691 1.6940 -1.9987 0.9750
5.5543 2.3007 -1.9984 0.9750
5.3755 2.6908 -1.9982 0.9750
5.2758 2.8808 -1.9981 0.9750
5.1693 3.0671 -1.9980 0.9750
5.0562 3.2494 -1.9979 0.9750
4.8108 3.6013 -1.9976 0.9750
4.6789 3.7705 -1.9974 0.9750
4.5410 3.9348 -1.9973 0.9750
4.2480 4.2480 -1.9970 0.9750
4.0933 4.3965 -1.9968 0.9750
3.7686 4.6765 -1.9964 0.9750
3.5989 4.8076 -1.9962 0.9750
3.4247 4.9325 -1.9960 0.9750
3.2461 5.0511 -1.9958 0.9750
1.2873 2.8189 -1.0301 0.9870
1.0415 2.7923 -0.9906 0.9875
0.9306 2.7959 -0.9795 0.9877
0.7174 2.8107 -0.9642 0.9878
0.6119 2.8129 -0.9569 0.9879
0.5030 2.7880 -0.9417 0.9881
0.2750 2.5575 -0.8550 0.9892
0.1945 2.7191 -0.9062 0.9886
0.0971 2.7185 -0.9042 0.9886
-0.0969 2.7134 -0.9025 0.9886
-0.3882 2.7001 -0.9068 0.9886
-0.4863 2.6951 -0.9104 0.9885
-0.5852 2.6902 -0.9151 0.9885
-0.7864 2.6782 -0.9278 0.9883
-0.8891 2.6712 -0.9358 0.9882
-1.0998 2.6551 -0.9553 0.9880
-1.4474 2.6507 -1.0039 0.9874
-1.6978 2.6417 -1.0438 0.9869
-1.9752 2.6386 -1.0956 0.9862
-2.1385 2.6537 -1.1329 0.9857
-2.3146 2.6712 -1.1749 0.9852
-2.5410 2.7292 -1.2395 0.9844
-4.2279 4.2279 -1.9875 0.9751
-4.3757 4.0739 -1.9873 0.9751
-4.5180 3.9149 -1.9872 0.9751
-4.6545 3.7508 -1.9870 0.9751
-4.7850 3.5820 -1.9869 0.9751
-4.9095 3.4087 -1.9867 0.9751
-5.0277 3.2311 -1.9866 0.9751
-5.2448 2.8638 -1.9864 0.9751
-5.3433 2.6747 -1.9862 0.9751
-5.4351 2.4821 -1.9861 0.9751
-5.5978 2.0879 -1.9860 0.9751
-5.7883 1.4774 -1.9858 0.9751
-5.8787 1.0606 -1.9857 0.9751
-5.9392 0.6385 -1.9856 0.9751
-5.9581 0.4261 -1.9856 0.9751
-5.9695 0.2132 -1.9855 0.9751
5.5313 0.7953 -1.9984 0.9765
5.4143 1.3819 -1.9983 0.9765
5.3613 1.5742 -1.9982 0.9765
5.3016 1.7645 -1.9981 0.9765
5.2350 1.9525 -1.9981 0.9765
5.1618 2.1381 -1.9980 0.9765
5.0819 2.3208 -1.9979 0.9765
4.9956 2.5006 -1.9978 0.9765
4.9029 2.6772 -1.9977 0.9765
4.6989 3.0198 -1.9975 0.9766
4.4709 3.3469 -1.9972 0.9766
4.3483 3.5041 -1.9971 0.9766
4.2202 3.6568 -1.9969 0.9766
3.9480 3.9480 -1.9966 0.9766
3.5025 4.3463 -1.9961 0.9766
3.0170 4.6945 -1.9956 0.9766
1.6510 2.7827 -1.1571 0.9863
1.1207 2.7056 -1.0473 0.9876
0.9021 2.7104 -1.0215 0.9879
0.7988 2.7205 -1.0140 0.9880
0.6966 2.7291 -1.0072 0.9881
0.5945 2.7329 -1.0002 0.9882
0.3745 2.6046 -0.9410 0.9889
0.2652 2.4666 -0.8872 0.9895
-0.2871 2.6699 -0.9603 0.9887
-0.3832 2.6648 -0.9628 0.9886
-0.4799 2.6598 -0.9665 0.9886
-0.7759 2.6424 -0.9848 0.9884
-1.0907 2.6333 -1.0193 0.9880
-1.2038 2.6359 -1.0363 0.9878
-1.3224 2.6418 -1.0565 0.9875
-1.5588 2.6271 -1.0924 0.9871
-1.6858 2.6232 -1.1151 0.9868
-1.8167 2.6165 -1.1391 0.9866
-1.9574 2.6147 -1.1680 0.9862
-2.2926 2.6458 -1.2520 0.9852
-4.3273 3.4871 -1.9874 0.9767
-4.4487 3.3302 -1.9872 0.9767
-4.5644 3.1691 -1.9871 0.9767
-4.6743 3.0040 -1.9870 0.9767
-4.7783 2.8351 -1.9869 0.9767
-4.9678 2.4867 -1.9867 0.9767
-5.0532 2.3077 -1.9866 0.9767
-5.1321 2.1258 -1.9865 0.9767
-5.2703 1.7541 -1.9863 0.9767
-5.3816 1.3736 -1.9862 0.9767
-5.4271 1.1806 -1.9862 0.9767
-5.4656 0.9861 -1.9861 0.9767
-5.4973 0.7904 -1.9861 0.9767
-5.5219 0.5936 -1.9860 0.9767
-5.5395 0.3962 -1.9860 0.9767
-5.5501 0.1982 -1.9860 0.9767
5.2105 0.1861 -1.9980 0.9779
5.1839 0.5573 -1.9980 0.9779
5.1307 0.9257 -1.9979 0.9779
5.0943 1.1082 -1.9979 0.9779
5.0514 1.2893 -1.9979 0.9779
4.8842 1.8217 -1.9977 0.9779
4.7414 2.1653 -1.9975 0.9779
4.4821 2.6593 -1.9972 0.9779
4.2805 2.9720 -1.9970 0.9779
3.9375 3.4119 -1.9966 0.9779
3.8130 3.5500 -1.9965 0.9779
3.5495 3.8124 -1.9962 0.9779
3.4109 3.9364 -1.9960 0.9779
3.2679 4.0553 -1.9959 0.9779
2.9698 4.2774 -1.9955 0.9779
1.6215 2.7329 -1.2178 0.9865
1.3272 2.6515 -1.1363 0.9874
0.9941 2.6653 -1.0901 0.9879
0.8831 2.6532 -1.0716 0.9881
0.6739 2.6404 -1.0443 0.9884
0.3825 2.6606 -1.0301 0.9886
0.2652 2.4667 -0.9507 0.9894
-0.0000 2.6409 -1.0120 0.9888
-0.1886 2.6365 -1.0129 0.9887
-0.2831 2.6332 -1.0149 0.9887
-0.3781 2.6296 -1.0181 0.9887
-0.8746 2.6276 -1.0613 0.9882
-0.9797 2.6267 -1.0744 0.9881
-1.3179 2.6327 -1.1282 0.9875
-1.4351 2.6281 -1.1475 0.9873
-1.5502 2.6126 -1.1642 0.9871
-1.6738 2.6045 -1.1864 0.9868
-1.8006 2.5933 -1.2098 0.9866
-2.0994 2.6052 -1.2822 0.9858
-2.2796 2.6308 -1.3340 0.9852
-2.5236 2.7105 -1.4192 0.9843
-3.6685 3.6684 -1.9881 0.9780
-4.0387 3.2546 -1.9877 0.9780
-4.1520 3.1082 -1.9876 0.9780
-4.3627 2.8037 -1.9873 0.9780
-4.4597 2.6461 -1.9872 0.9780
-4.5511 2.4851 -1.9871 0.9780
-4.7164 2.1539 -1.9869 0.9780
-4.7900 1.9841 -1.9869 0.9780
-4.8576 1.8118 -1.9868 0.9780
-4.9742 1.4605 -1.9867 0.9780
-5.1704 0.3698 -1.9864 0.9780
4.8685 0.3482 -1.9976 0.9791
4.8529 0.5217 -1.9976 0.9791
4.8312 0.6946 -1.9976 0.9791
4.6305 1.5412 -1.9974 0.9791
4.5724 1.7054 -1.9973 0.9791
4.1961 2.4897 -1.9969 0.9791
4.1044 2.6377 -1.9968 0.9791
4.0074 2.7824 -1.9967 0.9791
3.9053 2.9234 -1.9966 0.9791
3.7982 3.0608 -1.9965 0.9791
3.5697 3.3235 -1.9962 0.9791
3.3231 3.5692 -1.9959 0.9791
3.1933 3.6853 -1.9958 0.9791
3.0595 3.7967 -1.9956 0.9791
2.6355 4.1010 -1.9952 0.9792
1.4455 2.6472 -1.2344 0.9870
1.3176 2.6323 -1.2048 0.9874
1.1985 2.6243 -1.1808 0.9876
0.9847 2.6402 -1.1533 0.9879
0.7696 2.6209 -1.1180 0.9883
0.6697 2.6237 -1.1082 0.9884
0.4725 2.6191 -1.0892 0.9886
0.3762 2.6169 -1.0820 0.9886
0.1872 2.6174 -1.0740 0.9887
0.0935 2.6184 -1.0723 0.9887
-0.0936 2.6197 -1.0729 0.9887
-0.4729 2.6209 -1.0900 0.9886
-0.7696 2.6210 -1.1180 0.9883
-0.8721 2.6202 -1.1302 0.9881
-1.3119 2.6209 -1.1996 0.9874
-1.4285 2.6162 -1.2200 0.9872
-2.2689 2.6185 -1.4180 0.9851
-2.5430 2.7313 -1.5274 0.9840
-3.6712 3.1811 -1.9881 0.9792
-3.7821 3.0478 -1.9880 0.9792
-3.8883 2.9107 -1.9879 0.9792
-4.0856 2.6256 -1.9877 0.9792
-4.3422 2.1735 -1.9874 0.9792
-4.5491 1.6967 -1.9871 0.9792
-4.6066 1.5332 -1.9871 0.9792
-4.6583 1.3678 -1.9870 0.9792
-4.7438 1.0319 -1.9869 0.9792
-4.8052 0.6908 -1.9868 0.9792
-4.8267 0.5189 -1.9868 0.9792
-4.8513 0.1733 -1.9868 0.9792
4.5829 -0.0000 -1.9973 0.9802
4.5566 0.4899 -1.9973 0.9802
4.5362 0.6522 -1.9973 0.9802
4.5099 0.8137 -1.9972 0.9802
4.4779 0.9741 -1.9972 0.9802
4.3968 1.2910 -1.9971 0.9802
4.3478 1.4471 -1.9971 0.9802
4.0211 2.1957 -1.9967 0.9802
3.9400 2.3377 -1.9966 0.9802
3.8539 2.4767 -1.9965 0.9802
3.6670 2.7450 -1.9963 0.9802
2.9985 3.4605 -1.9956 0.9802
2.7436 3.6651 -1.9953 0.9802
1.8019 2.8038 -1.4525 0.9856
1.5719 2.6493 -1.3426 0.9866
1.4343 2.6268 -1.3044 0.9870
1.1878 2.6010 -1.2462 0.9876
0.9730 2.6088 -1.2135 0.9879
0.8672 2.6054 -1.1967 0.9881
0.5684 2.6131 -1.1655 0.9884
-0.0000 2.6100 -1.1375 0.9887
-0.2807 2.6112 -1.1446 0.9886
-0.5683 2.6123 -1.1651 0.9884
-0.6669 2.6128 -1.1752 0.9883
-0.9741 2.6115 -1.2147 0.9879
-1.3060 2.6090 -1.2716 0.9873
-1.4220 2.6041 -1.2931 0.9871
-1.5384 2.5928 -1.3139 0.9869
-1.8108 2.6080 -1.3837 0.9862
-2.1016 2.6079 -1.4597 0.9855
-2.2684 2.6178 -1.5096 0.9850
-3.1095 3.3398 -1.9887 0.9803
-3.4480 2.9877 -1.9884 0.9803
-3.5523 2.8626 -1.9882 0.9803
-3.6520 2.7338 -1.9881 0.9803
-3.7470 2.6016 -1.9880 0.9803
-3.8373 2.4661 -1.9879 0.9803
-3.9227 2.3274 -1.9878 0.9803
-4.0031 2.1858 -1.9877 0.9803
-4.0784 2.0415 -1.9877 0.9803
-4.1485 1.8945 -1.9876 0.9803
-4.2133 1.7452 -1.9875 0.9803
-1.5118 0.5639 -0.7032 0.9930
-1.4401 0.4793 -0.6615 0.9934
-1.3722 0.4029 -0.6233 0.9938
-1.3400 0.3420 -0.6027 0.9940
-1.3688 0.2977 -0.6105 0.9939
-1.3956 0.2518 -0.6180 0.9938
-1.4359 0.1544 -0.6294 0.9937
4.3143 -0.0000 -1.9970 0.9812
4.3116 0.1540 -1.9970 0.9812
4.3033 0.3078 -1.9970 0.9812
4.2895 0.4612 -1.9970 0.9812
4.2703 0.6140 -1.9970 0.9812
4.2456 0.7660 -1.9970 0.9812
4.2155 0.9170 -1.9969 0.9812
3.9852 1.6507 -1.9967 0.9812
3.7854 2.0670 -1.9964 0.9812
3.5423 2.4595 -1.9962 0.9812
3.3575 2.7056 -1.9960 0.9812
2.7046 3.3563 -1.9952 0.9812
1.7884 2.7828 -1.5312 0.9855
1.0753 2.5960 -1.3007 0.9877
0.9031 2.7133 -1.3237 0.9875
0.7650 2.6053 -1.2568 0.9881
0.6659 2.6090 -1.2464 0.9882
0.3737 2.5989 -1.2154 0.9885
-0.0000 2.6011 -1.2040 0.9886
-0.2797 2.6018 -1.2113 0.9885
-0.4695 2.6023 -1.2240 0.9884
-0.6645 2.6033 -1.2437 0.9882
-0.7645 2.6035 -1.2560 0.9881
-0.8665 2.6035 -1.2701 0.9880
-0.9710 2.6033 -1.2861 0.9878
-1.1882 2.6017 -1.3239 0.9875
-1.3000 2.5970 -1.3443 0.9873
-1.5574 2.6248 -1.4128 0.9866
-1.8117 2.6093 -1.4704 0.9861
-2.1020 2.6085 -1.5507 0.9853
-2.2658 2.6148 -1.6015 0.9849
-3.0381 3.0381 -1.9888 0.9812
-3.1445 2.9276 -1.9887 0.9812
-3.2468 2.8133 -1.9886 0.9812
-3.3449 2.6955 -1.9885 0.9812
-3.4388 2.5743 -1.9884 0.9812
-3.5283 2.4498 -1.9883 0.9812
-3.7695 2.0583 -1.9880 0.9812
-1.2345 0.5114 -0.6185 0.9941
-1.1330 0.3327 -0.5466 0.9948
-1.1575 0.2954 -0.5529 0.9947
-1.1974 0.2160 -0.5632 0.9947
-1.2261 0.1318 -0.5708 0.9946
-1.2362 0.0884 -0.5737 0.9946
-1.2424 0.0444 -0.5755 0.9945
4.0707 -0.0000 -1.9968 0.9820
4.0681 0.1453 -1.9968 0.9820
4.0603 0.2904 -1.9967 0.9820
3.9439 1.0066 -1.9966 0.9820
3.8619 1.2854 -1.9965 0.9820
3.8134 1.4223 -1.9965 0.9820
3.7601 1.5575 -1.9964 0.9820
3.4232 2.2000 -1.9960 0.9820
3.2573 2.4383 -1.9958 0.9820
2.9775 2.7721 -1.9955 0.9820
2.8765 2.8765 -1.9954 0.9820
2.7718 2.9771 -1.9953 0.9820
2.4372 3.2558 -1.9949 0.9820
2.3193 3.3404 -1.9948 0.9820
1.7738 2.7601 -1.6094 0.9855
1.1858 2.5966 -1.4002 0.9874
1.0758 2.5972 -1.3789 0.9876
0.8673 2.6059 -1.3472 0.9878
0.5650 2.5973 -1.3039 0.9882
0.4679 2.5937 -1.2928 0.9883
-0.0000 2.5926 -1.2718 0.9885
-0.0926 2.5928 -1.2726 0.9885
-0.1854 2.5927 -1.2750 0.9885
-0.2787 2.5924 -1.2790 0.9885
-0.4678 2.5928 -1.2923 0.9883
-0.5641 2.5933 -1.3018 0.9882
-0.6620 2.5936 -1.3130 0.9881
-0.7616 2.5937 -1.3260 0.9880
-0.9681 2.5957 -1.3589 0.9877
-1.1857 2.5964 -1.4001 0.9874
-1.4155 2.5922 -1.4488 0.9869
-1.5463 2.6061 -1.4864 0.9866
-1.8126 2.6106 -1.5590 0.9859
-1.9540 2.6102 -1.5994 0.9856
-2.1022 2.6087 -1.6434 0.9852
-2.6557 3.0648 -1.9892 0.9821
-2.8672 2.8672 -1.9890 0.9821
-3.1568 2.5439 -1.9887 0.9821
-3.2454 2.4295 -1.9886 0.9821
-3.4101 2.1915 -1.9884 0.9821
-3.4860 2.0683 -1.9883 0.9821
-3.5575 1.9425 -1.9882 0.9821
-1.0589 0.5300 -0.5808 0.9947
-1.0444 0.4769 -0.5632 0.9949
-1.0119 0.3774 -0.5298 0.9952
-1.0025 0.3337 -0.5183 0.9953
-1.0518 0.1898 -0.5242 0.9952
-1.0611 0.1525 -0.5258 0.9952
-1.0705 0.1151 -0.5281 0.9952
-1.0769 0.0770 -0.5296 0.9952
-1.0803 0.0386 -0.5302 0.9952
3.8485 0.0000 -1.9965 0.9828
3.8460 0.1374 -1.9965 0.9828
3.8386 0.2745 -1.9965 0.9828
3.8092 0.5477 -1.9965 0.9828
3.6511 1.2152 -1.9963 0.9828
3.6053 1.3447 -1.9962 0.9828
3.5549 1.4725 -1.9962 0.9828
3.5000 1.5984 -1.9961 0.9828
3.3087 1.9632 -1.9959 0.9828
2.6206 2.8147 -1.9951 0.9828
2.3043 3.0782 -1.9948 0.9828
2.1928 3.1583 -1.9947 0.9828
1.7622 2.7420 -1.6909 0.9854
1.5621 2.6327 -1.5881 0.9863
1.4616 2.6766 -1.5821 0.9864
1.2995 2.5960 -1.5061 0.9870
0.8646 2.5976 -1.4203 0.9877
0.6635 2.5995 -1.3918 0.9880
0.5649 2.5968 -1.3787 0.9881
0.4682 2.5949 -1.3679 0.9882
0.2792 2.5969 -1.3550 0.9883
0.1856 2.5957 -1.3501 0.9883
-0.0926 2.5930 -1.3461 0.9884
-0.1854 2.5924 -1.3483 0.9884
-0.2786 2.5916 -1.3522 0.9883
-0.5637 2.5913 -1.3758 0.9881
-0.7618 2.5943 -1.4027 0.9879
-0.9682 2.5959 -1.4373 0.9876
-1.0751 2.5955 -1.4574 0.9874
-1.1850 2.5948 -1.4799 0.9872
-1.2983 2.5936 -1.5047 0.9870
-1.4153 2.5919 -1.5320 0.9868
-1.5465 2.6065 -1.5723 0.9864
-2.6130 2.8065 -1.9893 0.9829
-2.7113 2.7113 -1.9892 0.9829
-2.8975 2.5107 -1.9890 0.9829
-3.2247 2.0724 -1.9886 0.9829
-3.2965 1.9559 -1.9885 0.9829
-0.9486 0.5180 -0.5607 0.9951
-0.9271 0.3840 -0.5206 0.9955
-0.9208 0.3434 -0.5098 0.9956
-0.9524 0.2431 -0.5099 0.9956
-0.9628 0.2094 -0.5112 0.9956
-0.9715 0.1753 -0.5121 0.9956
-0.9838 0.1058 -0.5133 0.9956
-0.9873 0.0706 -0.5135 0.9955
-0.9893 0.0353 -0.5135 0.9955
3.6425 0.1301 -1.9963 0.9835
3.6355 0.2600 -1.9963 0.9835
3.6239 0.3896 -1.9963 0.9835
3.5868 0.6471 -1.9962 0.9835
3.5614 0.7747 -1.9962 0.9835
3.5314 0.9013 -1.9962 0.9835
3.4969 1.0268 -1.9961 0.9835
3.4579 1.1509 -1.9961 0.9835
3.3148 1.5138 -1.9959 0.9835
3.1982 1.7463 -1.9958 0.9835
3.0652 1.9699 -1.9956 0.9835
2.8367 2.2860 -1.9954 0.9835
2.5757 2.5757 -1.9951 0.9835
2.3852 2.7526 -1.9949 0.9835
2.1825 2.9154 -1.9946 0.9835
1.9687 3.0633 -1.9944 0.9835
1.5619 2.6324 -1.6765 0.9861
1.1866 2.5983 -1.5645 0.9871
1.0768 2.5996 -1.5411 0.9872
0.8648 2.5984 -1.4999 0.9876
0.7122 2.7902 -1.5772 0.9870
0.4693 2.6012 -1.4477 0.9880
0.2799 2.6033 -1.4340 0.9881
0.1861 2.6020 -1.4288 0.9882
0.0929 2.6010 -1.4255 0.9882
-0.0000 2.5998 -1.4239 0.9882
-0.1856 2.5955 -1.4252 0.9882
-0.5641 2.5931 -1.4535 0.9880
-0.8636 2.5948 -1.4978 0.9876
-1.1843 2.5932 -1.5614 0.9871
-1.6767 2.6089 -1.6986 0.9860
-2.3788 2.7453 -1.9896 0.9836
-2.6582 2.4749 -1.9892 0.9836
-2.7447 2.3783 -1.9891 0.9836
-2.8277 2.2787 -1.9891 0.9836
-3.0547 1.9632 -1.9888 0.9836
-0.8507 0.4645 -0.5309 0.9956
-0.8516 0.4262 -0.5216 0.9957
-0.8506 0.3884 -0.5122 0.9957
-0.8465 0.3157 -0.4948 0.9959
-0.8727 0.2562 -0.4982 0.9959
-0.8932 0.1943 -0.5006 0.9958
-0.9161 0.0655 -0.5030 0.9958
3.4573 -0.0000 -1.9961 0.9842
3.4551 0.1234 -1.9961 0.9842
3.4374 0.3695 -1.9960 0.9842
3.4220 0.4920 -1.9960 0.9842
3.4023 0.6138 -1.9960 0.9842
3.3497 0.8550 -1.9960 0.9842
3.3170 0.9740 -1.9959 0.9842
3.2800 1.0917 -1.9959 0.9842
3.2389 1.2081 -1.9958 0.9842
3.1443 1.4359 -1.9957 0.9842
3.0910 1.5472 -1.9957 0.9842
3.0337 1.6565 -1.9956 0.9842
2.9725 1.7637 -1.9955 0.9842
2.8389 1.9711 -1.9954 0.9842
2.7666 2.0711 -1.9953 0.9842
2.6908 2.1684 -1.9952 0.9842
2.6116 2.2630 -1.9951 0.9842
2.3544 2.5288 -1.9948 0.9842
2.1678 2.6900 -1.9946 0.9842
1.9701 2.8375 -1.9944 0.9842
1.7625 2.9705 -1.9942 0.9842
1.4631 2.6795 -1.7626 0.9860
1.2997 2.5964 -1.6764 0.9867
1.0772 2.6006 -1.6252 0.9871
0.8650 2.5990 -1.5815 0.9874
0.7004 2.7441 -1.6351 0.9870
0.5661 2.6023 -1.5376 0.9878
0.3754 2.6107 -1.5228 0.9879
0.2804 2.6085 -1.5147 0.9880
0.1864 2.6061 -1.5085 0.9880
0.0930 2.6038 -1.5043 0.9880
-0.0000 2.6016 -1.5020 0.9881
-0.6621 2.5939 -1.5456 0.9877
-0.7615 2.5936 -1.5606 0.9876
-1.1839 2.5924 -1.6454 0.9869
-1.2974 2.5919 -1.6735 0.9867
-1.5465 2.6064 -1.7497 0.9861
-1.8113 2.6088 -1.8336 0.9854
-1.9524 2.6081 -1.8810 0.9851
-2.1625 2.6835 -1.9898 0.9842
-2.3482 2.5222 -1.9896 0.9842
-2.6040 2.2564 -1.9893 0.9842
-2.7581 2.0647 -1.9891 0.9842
-0.7634 0.5300 -0.5366 0.9957
-0.7751 0.4598 -0.5203 0.9958
-0.7787 0.4252 -0.5122 0.9959
-0.7806 0.3908 -0.5040 0.9960
-0.7809 0.3566 -0.4957 0.9960
-0.8014 0.2667 -0.4876 0.9961
-0.8128 0.2386 -0.4891 0.9961
-0.8230 0.2100 -0.4904 0.9961
-0.8453 0.1215 -0.4930 0.9961
-0.8531 0.0610 -0.4938 0.9961
