ply
format ascii 1.0
element vertex 776
property float32 x
property float32 y
property float32 z
property float32 I
end_header
-4.3885 8.0369 0.7752 0.9639
-4.1924 8.3754 0.3693 0.9632
-4.2319 8.4543 0.1597 0.9629
-4.2322 8.4548 -0.0532 0.9629
-4.2326 8.4557 -0.4796 0.9628
-4.2329 8.4562 -0.6934 0.9628
-4.2331 8.4567 -0.9079 0.9627
-6.7194 3.6690 -0.7350 0.9697
-6.7202 3.3639 -0.7215 0.9703
-6.7627 3.0884 -0.7138 0.9706
-6.1485 3.3573 -0.8321 0.9722
-6.7477 3.3777 -0.8963 0.9701
-0.2843 3.9753 -0.5647 0.9840
-0.3852 3.5828 -0.5106 0.9855
-0.6198 3.4350 -0.4946 0.9860
-0.7427 3.4140 -0.4950 0.9860
-0.9866 3.3600 -0.4962 0.9860
-1.2632 3.3868 -0.5122 0.9855
-1.4360 3.4669 -0.5317 0.9850
-6.2014 3.3862 -1.0011 0.9719
-0.0000 3.7591 -0.6193 0.9849
-0.1248 3.4942 -0.5760 0.9859
-0.2382 3.3299 -0.5500 0.9866
-0.4452 3.0967 -0.5154 0.9874
-1.1202 3.0033 -0.5281 0.9871
-1.3939 3.0523 -0.5528 0.9865
-6.0023 3.5613 -1.1498 0.9721
-6.1141 3.3386 -1.1476 0.9722
-6.4452 3.2262 -1.1874 0.9712
-7.3929 3.3762 -1.3389 0.9676
5.0104 8.4445 -1.8456 0.9608
4.7049 8.6164 -1.8453 0.9608
3.7547 9.0648 -1.8442 0.9609
3.4281 9.1912 -1.8438 0.9609
2.7626 9.4085 -1.8431 0.9609
1.0471 9.7394 -1.8412 0.9609
-0.1133 3.1733 -0.5968 0.9872
-0.3209 2.9853 -0.5644 0.9879
-0.5341 2.9605 -0.5654 0.9878
-0.6433 2.9573 -0.5689 0.9878
-0.7541 2.9546 -0.5732 0.9877
-0.8666 2.9512 -0.5781 0.9876
-1.2199 2.9450 -0.5992 0.9871
-1.3476 2.9508 -0.6097 0.9869
-1.6196 2.9661 -0.6352 0.9863
-1.7832 3.0054 -0.6569 0.9859
-6.1453 3.3556 -1.3161 0.9719
-6.4148 3.2110 -1.3484 0.9712
-7.4297 3.3930 -1.5352 0.9673
9.4748 -0.0000 -2.0028 0.9620
9.3779 1.3483 -2.0027 0.9620
9.3235 1.6821 -2.0026 0.9620
9.2572 2.0138 -2.0025 0.9620
9.1790 2.3428 -2.0025 0.9620
9.0891 2.6688 -2.0024 0.9620
8.9875 2.9913 -2.0022 0.9620
8.8745 3.3100 -2.0021 0.9620
8.6145 3.9341 -2.0018 0.9620
8.4679 4.2387 -2.0017 0.9620
8.3105 4.5378 -2.0015 0.9620
7.9640 5.1182 -2.0011 0.9620
7.7754 5.3986 -2.0009 0.9620
7.5770 5.6720 -2.0007 0.9620
7.3688 5.9382 -2.0004 0.9620
7.1513 6.1967 -2.0002 0.9621
5.9274 7.3555 -1.9968 0.9621
5.6510 7.5488 -1.9932 0.9622
5.3390 7.6896 -1.9788 0.9625
4.5728 7.7070 -1.8943 0.9640
3.9056 7.8025 -1.8444 0.9650
3.3379 8.0584 -1.8437 0.9650
2.7535 8.2731 -1.8431 0.9650
2.4561 8.3646 -1.8428 0.9650
2.1556 8.4454 -1.8424 0.9650
1.5470 8.5745 -1.8417 0.9650
1.2397 8.6226 -1.8414 0.9650
0.3718 3.4584 -0.7352 0.9859
0.2312 3.2325 -0.6850 0.9868
0.1116 3.1258 -0.6611 0.9873
0.0000 3.0285 -0.6402 0.9877
-0.3154 2.9333 -0.6236 0.9880
-0.4192 2.9156 -0.6226 0.9880
-0.6317 2.9036 -0.6281 0.9879
-0.7398 2.8984 -0.6323 0.9878
-0.8496 2.8933 -0.6374 0.9877
-0.9615 2.8888 -0.6436 0.9876
-1.3223 2.8955 -0.6729 0.9871
-1.4521 2.9009 -0.6857 0.9868
-1.7186 2.8965 -0.7119 0.9863
-1.9077 2.9683 -0.7459 0.9857
-2.0567 2.9622 -0.7623 0.9854
-2.4631 3.0565 -0.8297 0.9841
-2.6658 3.0765 -0.8605 0.9835
-6.3992 6.8732 -1.9851 0.9623
-6.6396 6.6395 -1.9848 0.9623
-6.8714 6.3975 -1.9845 0.9623
-5.4217 3.4843 -1.3623 0.9740
-9.3515 0.6688 -1.9818 0.9624
8.5117 0.3040 -2.0017 0.9656
8.4681 0.9104 -2.0017 0.9656
8.1705 2.3991 -2.0013 0.9656
7.9777 2.9748 -2.0011 0.9656
7.3200 4.3431 -2.0004 0.9656
6.9902 4.8533 -2.0000 0.9656
6.6248 5.3386 -1.9996 0.9656
6.2257 5.7963 -1.9992 0.9657
6.0141 6.0141 -1.9989 0.9657
5.7949 6.2241 -1.9987 0.9657
5.3347 6.6200 -1.9982 0.9657
5.0944 6.8053 -1.9979 0.9657
4.5946 7.1494 -1.9973 0.9657
4.0647 7.4439 -1.9933 0.9658
3.7916 7.5747 -1.9908 0.9658
3.5129 7.6922 -1.9875 0.9658
3.1888 7.6983 -1.9584 0.9663
0.6295 3.4890 -0.8332 0.9855
0.4812 3.3468 -0.7947 0.9862
0.2126 2.9728 -0.7005 0.9878
0.0000 2.9311 -0.6889 0.9880
-0.2074 2.8993 -0.6831 0.9881
-0.7267 2.8470 -0.6906 0.9880
-1.0542 2.8265 -0.7090 0.9877
-1.1693 2.8230 -0.7181 0.9875
-1.6614 2.8002 -0.7652 0.9867
-1.8538 2.8846 -0.8059 0.9860
-2.1388 2.8571 -0.8388 0.9854
-2.5005 2.8857 -0.8974 0.9844
-5.7575 6.1840 -1.9858 0.9659
-6.3833 5.5312 -1.9851 0.9659
-6.5760 5.2992 -1.9849 0.9659
-6.9359 4.8157 -1.9845 0.9659
-5.6691 3.3636 -1.5492 0.9733
-6.6362 3.3218 -1.7441 0.9700
-7.4046 3.3815 -1.9131 0.9671
-8.0068 2.6649 -1.9833 0.9659
-8.1757 2.0867 -1.9831 0.9659
-8.2447 1.7935 -1.9830 0.9659
-8.3032 1.4981 -1.9829 0.9659
-8.3511 1.2007 -1.9829 0.9659
-8.4152 0.6019 -1.9828 0.9659
-8.4313 0.3011 -1.9828 0.9659
7.7277 -0.0000 -2.0008 0.9686
7.7227 0.2758 -2.0008 0.9686
7.6832 0.8260 -2.0008 0.9686
7.6487 1.0997 -2.0007 0.9686
7.6044 1.3720 -2.0007 0.9686
7.5503 1.6425 -2.0006 0.9686
7.4866 1.9108 -2.0006 0.9686
7.4134 2.1768 -2.0005 0.9686
7.2385 2.6998 -2.0003 0.9686
6.9071 3.4575 -1.9999 0.9686
6.7788 3.7015 -1.9998 0.9686
5.8340 5.0552 -1.9987 0.9686
5.6493 5.2597 -1.9985 0.9686
5.4574 5.4574 -1.9983 0.9686
5.2585 5.6480 -1.9981 0.9686
5.0530 5.8315 -1.9979 0.9686
4.3991 6.3359 -1.9971 0.9686
4.1696 6.4880 -1.9969 0.9686
3.4508 6.8938 -1.9961 0.9686
1.6969 3.7158 -1.0577 0.9833
1.1380 3.4191 -0.9330 0.9852
0.8433 3.3039 -0.8829 0.9860
0.7067 3.2488 -0.8609 0.9864
0.5768 3.1967 -0.8411 0.9867
0.3149 2.9291 -0.7628 0.9879
0.2067 2.8896 -0.7501 0.9881
0.1029 2.8806 -0.7463 0.9882
-0.0000 2.8706 -0.7432 0.9882
-0.2037 2.8479 -0.7393 0.9883
-0.3046 2.8331 -0.7378 0.9883
-0.4049 2.8162 -0.7367 0.9883
-0.5065 2.8075 -0.7386 0.9883
-0.7139 2.7969 -0.7474 0.9881
-1.4044 2.8056 -0.8123 0.9871
-1.5202 2.7840 -0.8213 0.9870
-1.9652 2.8304 -0.8922 0.9859
-2.0893 2.7910 -0.9027 0.9857
-2.4016 2.7716 -0.9495 0.9850
-5.2277 5.6150 -1.9864 0.9688
-5.4242 5.4242 -1.9862 0.9688
-5.6138 5.2266 -1.9859 0.9688
-5.7961 5.0224 -1.9857 0.9688
-5.9711 4.8118 -1.9855 0.9688
-6.2980 4.3728 -1.9852 0.9688
-5.3213 3.4198 -1.6378 0.9742
-5.8001 3.4414 -1.7462 0.9725
-6.7278 3.6736 -1.9847 0.9688
-6.8541 3.4309 -1.9846 0.9688
-6.9717 3.1839 -1.9844 0.9688
-7.1803 2.6781 -1.9842 0.9688
-7.2709 2.4200 -1.9841 0.9688
-7.3523 2.1588 -1.9840 0.9688
-7.6419 0.5466 -1.9837 0.9688
-7.6565 0.2734 -1.9837 0.9688
7.0652 -0.0000 -2.0001 0.9711
7.0606 0.2522 -2.0001 0.9711
7.0471 0.5040 -2.0001 0.9711
6.9930 1.0054 -2.0000 0.9711
6.9031 1.5017 -1.9999 0.9711
6.8449 1.7470 -1.9999 0.9711
6.7023 2.2307 -1.9997 0.9711
6.5254 2.7029 -1.9995 0.9711
6.1979 3.3843 -1.9991 0.9711
6.0728 3.6031 -1.9990 0.9711
5.6515 4.2306 -1.9985 0.9711
5.4964 4.4293 -1.9983 0.9711
5.3343 4.6222 -1.9982 0.9711
5.1655 4.8092 -1.9980 0.9711
4.8083 5.1644 -1.9976 0.9711
4.6204 5.3322 -1.9974 0.9711
3.5982 6.0644 -1.9962 0.9711
3.3790 6.1882 -1.9960 0.9711
1.4586 3.1938 -0.9940 0.9855
1.3131 3.1700 -0.9714 0.9858
1.0413 3.1286 -0.9335 0.9864
0.6567 3.0187 -0.8746 0.9872
0.4162 2.8948 -0.8279 0.9879
0.3059 2.8450 -0.8100 0.9882
0.1004 2.8104 -0.7961 0.9884
-0.2985 2.7767 -0.7906 0.9885
-0.3985 2.7718 -0.7927 0.9884
-0.4992 2.7671 -0.7960 0.9884
-0.6010 2.7625 -0.8004 0.9883
-0.7040 2.7581 -0.8058 0.9882
-0.8083 2.7529 -0.8122 0.9881
-0.9143 2.7471 -0.8196 0.9880
-1.0222 2.7405 -0.8280 0.9879
-1.1322 2.7333 -0.8375 0.9878
-1.4969 2.7413 -0.8842 0.9871
-1.7392 2.7063 -0.9107 0.9867
-2.6149 2.8086 -1.0864 0.9842
-5.1358 4.7815 -1.9865 0.9713
-5.3027 4.5948 -1.9863 0.9713
-5.4628 4.4022 -1.9861 0.9713
-5.6159 4.2040 -1.9859 0.9713
-5.3213 3.4198 -1.7907 0.9740
-5.7656 3.4208 -1.8979 0.9725
-6.1552 3.3610 -1.9853 0.9713
-6.2708 3.1389 -1.9852 0.9713
-6.5694 2.4502 -1.9849 0.9713
-6.6523 2.2141 -1.9848 0.9713
-6.7268 1.9752 -1.9847 0.9713
-6.7928 1.7337 -1.9846 0.9713
-6.8987 1.2447 -1.9845 0.9713
-6.9386 0.9976 -1.9845 0.9713
-6.9919 0.5001 -1.9844 0.9713
6.5007 -0.0000 -1.9995 0.9732
6.4965 0.2320 -1.9995 0.9732
6.4840 0.4637 -1.9994 0.9732
6.2364 1.8312 -1.9992 0.9732
6.0894 2.2712 -1.9990 0.9732
6.0042 2.4870 -1.9989 0.9732
5.9113 2.6996 -1.9988 0.9732
5.5878 3.3154 -1.9984 0.9732
5.4656 3.5125 -1.9983 0.9732
5.2003 3.8929 -1.9980 0.9732
5.0576 4.0757 -1.9979 0.9732
4.9085 4.2532 -1.9977 0.9732
4.7532 4.4253 -1.9975 0.9732
4.5918 4.5918 -1.9973 0.9732
3.8900 5.1965 -1.9966 0.9732
3.3112 5.5807 -1.9959 0.9732
1.5029 3.0024 -1.0327 0.9860
1.2289 2.9669 -0.9878 0.9867
0.8489 2.8912 -0.9268 0.9875
0.7344 2.8773 -0.9134 0.9876
0.6263 2.8791 -0.9062 0.9877
0.5167 2.8639 -0.8951 0.9879
0.4046 2.8141 -0.8745 0.9882
0.2973 2.7654 -0.8555 0.9884
0.1972 2.7572 -0.8502 0.9885
-0.0982 2.7490 -0.8461 0.9886
-0.2947 2.7407 -0.8478 0.9885
-0.4927 2.7309 -0.8535 0.9885
-0.5930 2.7260 -0.8581 0.9884
-0.6944 2.7206 -0.8636 0.9883
-0.7970 2.7144 -0.8701 0.9882
-0.9014 2.7083 -0.8780 0.9881
-1.0076 2.7015 -0.8868 0.9880
-1.1159 2.6939 -0.8969 0.9879
-1.2346 2.7033 -0.9141 0.9876
-1.4703 2.6926 -0.9436 0.9872
-1.5877 2.6760 -0.9570 0.9871
-1.9951 2.6651 -1.0240 0.9862
-4.5683 4.5683 -1.9871 0.9733
-4.8817 4.2300 -1.9868 0.9733
-5.3046 3.6830 -1.9863 0.9733
-5.5531 3.2948 -1.9860 0.9733
-5.6668 3.0943 -1.9859 0.9733
-5.7732 2.8899 -1.9858 0.9733
-5.9641 2.4704 -1.9856 0.9733
-6.2539 1.5962 -1.9852 0.9734
-6.3067 1.3719 -1.9852 0.9734
-6.3515 1.1459 -1.9851 0.9734
-6.4168 0.6899 -1.9851 0.9734
6.0135 -0.0000 -1.9989 0.9750
5.9981 0.4290 -1.9989 0.9750
5.9176 1.0676 -1.9988 0.9750
5.8261 1.4870 -1.9987 0.9750
5.7691 1.6940 -1.9987 0.9750
5.7048 1.8987 -1.9986 0.9750
5.6332 2.1011 -1.9985 0.9750
5.5543 2.3007 -1.9984 0.9750
5.4684 2.4973 -1.9983 0.9750
5.3755 2.6908 -1.9982 0.9750
5.2758 2.8808 -1.9981 0.9750
5.1693 3.0671 -1.9980 0.9750
4.8108 3.6013 -1.9976 0.9750
4.6789 3.7705 -1.9974 0.9750
4.3973 4.0940 -1.9971 0.9750
4.2480 4.2480 -1.9970 0.9750
4.0933 4.3965 -1.9968 0.9750
3.9334 4.5394 -1.9966 0.9750
3.7686 4.6765 -1.9964 0.9750
1.7550 2.9579 -1.1433 0.9856
1.4166 2.8300 -1.0520 0.9867
1.2873 2.8189 -1.0301 0.9870
1.1624 2.8062 -1.0097 0.9873
0.9306 2.7959 -0.9795 0.9877
0.6119 2.8129 -0.9569 0.9879
0.1945 2.7191 -0.9062 0.9886
-0.4863 2.6951 -0.9104 0.9885
-0.5852 2.6902 -0.9151 0.9885
-0.6852 2.6845 -0.9210 0.9884
-0.7864 2.6782 -0.9278 0.9883
-0.8891 2.6712 -0.9358 0.9882
-0.9934 2.6634 -0.9449 0.9881
-1.4474 2.6507 -1.0039 0.9874
-1.5688 2.6441 -1.0220 0.9871
-1.9752 2.6386 -1.0956 0.9862
-2.1385 2.6537 -1.1329 0.9857
-2.3146 2.6712 -1.1749 0.9852
-2.5410 2.7292 -1.2395 0.9844
-4.3757 4.0739 -1.9873 0.9751
-4.5180 3.9149 -1.9872 0.9751
-4.6545 3.7508 -1.9870 0.9751
-4.7850 3.5820 -1.9869 0.9751
-4.9095 3.4087 -1.9867 0.9751
-5.0277 3.2311 -1.9866 0.9751
-5.5978 2.0879 -1.9860 0.9751
-5.7321 1.6831 -1.9858 0.9751
-5.8787 1.0606 -1.9857 0.9751
-5.9127 0.8501 -1.9856 0.9751
-5.9392 0.6385 -1.9856 0.9751
-5.9695 0.2132 -1.9855 0.9751
5.5563 0.5973 -1.9984 0.9765
5.5313 0.7953 -1.9984 0.9765
5.4993 0.9922 -1.9984 0.9765
5.3016 1.7645 -1.9981 0.9765
5.2350 1.9525 -1.9981 0.9765
4.9029 2.6772 -1.9977 0.9765
4.8040 2.8503 -1.9976 0.9765
4.3483 3.5041 -1.9971 0.9766
3.9480 3.9480 -1.9966 0.9766
3.8042 4.0860 -1.9965 0.9766
3.6557 4.2189 -1.9963 0.9766
3.1829 4.5842 -1.9958 0.9766
1.6510 2.7827 -1.1571 0.9863
1.4965 2.7406 -1.1167 0.9868
1.2369 2.7083 -1.0647 0.9874
1.1207 2.7056 -1.0473 0.9876
0.4939 2.7375 -0.9948 0.9883
0.2652 2.4666 -0.8872 0.9895
0.0957 2.6800 -0.9590 0.9887
-0.0956 2.6770 -0.9579 0.9887
-0.4799 2.6598 -0.9665 0.9886
-0.9825 2.6342 -1.0054 0.9881
-1.0907 2.6333 -1.0193 0.9880
-1.8167 2.6165 -1.1391 0.9866
-2.2926 2.6458 -1.2520 0.9852
-2.5376 2.7255 -1.3317 0.9843
-3.9306 3.9306 -1.9878 0.9767
-4.0681 3.7875 -1.9877 0.9767
-4.2003 3.6396 -1.9875 0.9767
-4.3273 3.4871 -1.9874 0.9767
-4.4487 3.3302 -1.9872 0.9767
-4.5644 3.1691 -1.9871 0.9767
-4.6743 3.0040 -1.9870 0.9767
-4.7783 2.8351 -1.9869 0.9767
-4.8762 2.6626 -1.9868 0.9767
-5.0532 2.3077 -1.9866 0.9767
-5.1321 2.1258 -1.9865 0.9767
-5.2045 1.9412 -1.9864 0.9767
-5.4271 1.1806 -1.9862 0.9767
-5.4973 0.7904 -1.9861 0.9767
-5.5219 0.5936 -1.9860 0.9767
-5.5501 0.1982 -1.9860 0.9767
5.2138 -0.0000 -1.9980 0.9779
5.2105 0.1861 -1.9980 0.9779
5.1839 0.5573 -1.9980 0.9779
5.1606 0.7420 -1.9980 0.9779
5.1307 0.9257 -1.9979 0.9779
5.0020 1.4687 -1.9978 0.9779
4.8842 1.8217 -1.9977 0.9779
4.7414 2.1653 -1.9975 0.9779
4.6609 2.3331 -1.9974 0.9779
4.4821 2.6593 -1.9972 0.9779
4.3841 2.8175 -1.9971 0.9779
4.1715 3.1227 -1.9969 0.9779
4.0571 3.2694 -1.9967 0.9779
3.8130 3.5500 -1.9965 0.9779
3.4109 3.9364 -1.9960 0.9779
3.1209 4.1690 -1.9957 0.9779
1.6215 2.7329 -1.2178 0.9865
1.2142 2.6588 -1.1201 0.9876
0.9941 2.6653 -1.0901 0.9879
0.8831 2.6532 -1.0716 0.9881
0.7764 2.6441 -1.0561 0.9883
0.6739 2.6404 -1.0443 0.9884
0.5762 2.6487 -1.0388 0.9885
0.4794 2.6573 -1.0348 0.9885
0.1890 2.6424 -1.0152 0.9887
-0.0000 2.6409 -1.0120 0.9888
-0.1886 2.6365 -1.0129 0.9887
-0.3781 2.6296 -1.0181 0.9887
-0.4745 2.6297 -1.0240 0.9886
-0.5720 2.6294 -1.0312 0.9885
-0.6710 2.6290 -1.0398 0.9884
-0.7718 2.6284 -1.0498 0.9883
-0.9797 2.6267 -1.0744 0.9881
-1.2002 2.6280 -1.1071 0.9877
-1.4351 2.6281 -1.1475 0.9873
-1.6738 2.6045 -1.1864 0.9868
-1.8006 2.5933 -1.2098 0.9866
-2.0994 2.6052 -1.2822 0.9858
-2.2796 2.6308 -1.3340 0.9852
-2.5236 2.7105 -1.4192 0.9843
-3.6685 3.6684 -1.9881 0.9780
-4.0387 3.2546 -1.9877 0.9780
-4.1520 3.1082 -1.9876 0.9780
-4.4597 2.6461 -1.9872 0.9780
-4.5511 2.4851 -1.9871 0.9780
-4.6367 2.3209 -1.9870 0.9780
-4.7900 1.9841 -1.9869 0.9780
-4.8576 1.8118 -1.9868 0.9780
-4.9190 1.6372 -1.9867 0.9780
-4.9742 1.4605 -1.9867 0.9780
-5.0230 1.2820 -1.9866 0.9780
-5.1014 0.9204 -1.9865 0.9780
-5.1539 0.5541 -1.9865 0.9780
-5.1704 0.3698 -1.9864 0.9780
-5.1803 0.1850 -1.9864 0.9780
4.8779 0.1742 -1.9977 0.9791
4.8312 0.6946 -1.9976 0.9791
4.7691 1.0375 -1.9975 0.9791
4.7290 1.2070 -1.9975 0.9791
4.5085 1.8675 -1.9972 0.9791
4.3634 2.1842 -1.9971 0.9791
4.1961 2.4897 -1.9969 0.9791
4.0074 2.7824 -1.9967 0.9791
3.6863 3.1942 -1.9963 0.9791
3.5697 3.3235 -1.9962 0.9791
3.4486 3.4486 -1.9961 0.9791
3.3231 3.5692 -1.9959 0.9791
3.0595 3.7967 -1.9956 0.9791
2.9219 3.9031 -1.9955 0.9791
2.7805 4.0046 -1.9953 0.9791
2.6355 4.1010 -1.9952 0.9792
1.5926 2.6841 -1.2774 0.9866
1.1985 2.6243 -1.1808 0.9876
0.8750 2.6290 -1.1340 0.9881
0.7696 2.6209 -1.1180 0.9883
0.5702 2.6211 -1.0978 0.9885
0.2813 2.6164 -1.0770 0.9887
0.0935 2.6184 -1.0723 0.9887
-0.0000 2.6191 -1.0720 0.9887
-0.0936 2.6197 -1.0729 0.9887
-0.1874 2.6202 -1.0751 0.9887
-0.3768 2.6205 -1.0835 0.9886
-0.4729 2.6209 -1.0900 0.9886
-0.5703 2.6217 -1.0981 0.9885
-0.9769 2.6192 -1.1441 0.9880
-1.0844 2.6180 -1.1598 0.9878
-1.3119 2.6209 -1.1996 0.9874
-1.9519 2.6074 -1.3330 0.9860
-2.5430 2.7313 -1.5274 0.9840
-3.6712 3.1811 -1.9881 0.9792
-3.9895 2.7699 -1.9878 0.9792
-4.0856 2.6256 -1.9877 0.9792
-4.4858 1.8581 -1.9872 0.9792
-4.6066 1.5332 -1.9871 0.9792
-4.6583 1.3678 -1.9870 0.9792
-4.7438 1.0319 -1.9869 0.9792
-4.8052 0.6908 -1.9868 0.9792
-4.8267 0.5189 -1.9868 0.9792
-4.8421 0.3463 -1.9868 0.9792
4.5800 0.1635 -1.9973 0.9802
4.5362 0.6522 -1.9973 0.9802
4.5099 0.8137 -1.9972 0.9802
4.4779 0.9741 -1.9972 0.9802
4.4402 1.1333 -1.9972 0.9802
4.3968 1.2910 -1.9971 0.9802
4.3478 1.4471 -1.9971 0.9802
4.2933 1.6013 -1.9970 0.9802
4.2333 1.7535 -1.9969 0.9802
4.0211 2.1957 -1.9967 0.9802
3.9400 2.3377 -1.9966 0.9802
3.7628 2.6125 -1.9964 0.9802
3.6670 2.7450 -1.9963 0.9802
3.1203 3.3515 -1.9957 0.9802
2.9985 3.4605 -1.9956 0.9802
2.8729 3.5651 -1.9954 0.9802
2.7436 3.6651 -1.9953 0.9802
1.5719 2.6493 -1.3426 0.9866
1.4343 2.6268 -1.3044 0.9870
1.3080 2.6130 -1.2735 0.9873
1.1878 2.6010 -1.2462 0.9876
1.0770 2.6002 -1.2266 0.9878
0.8672 2.6054 -1.1967 0.9881
0.3750 2.6079 -1.1483 0.9886
0.2804 2.6080 -1.1432 0.9886
0.1866 2.6087 -1.1398 0.9887
-0.0000 2.6100 -1.1375 0.9887
-0.0932 2.6106 -1.1385 0.9887
-0.1867 2.6110 -1.1408 0.9886
-0.2807 2.6112 -1.1446 0.9886
-0.3754 2.6112 -1.1497 0.9886
-0.5683 2.6123 -1.1651 0.9884
-0.6669 2.6128 -1.1752 0.9883
-1.4220 2.6041 -1.2931 0.9871
-1.8108 2.6080 -1.3837 0.9862
-1.9527 2.6085 -1.4201 0.9859
-2.1016 2.6079 -1.4597 0.9855
-3.2265 3.2265 -1.9886 0.9803
-3.4480 2.9877 -1.9884 0.9803
-3.6520 2.7338 -1.9881 0.9803
-3.7470 2.6016 -1.9880 0.9803
-3.9227 2.3274 -1.9878 0.9803
-4.1485 1.8945 -1.9876 0.9803
-4.2133 1.7452 -1.9875 0.9803
-1.5118 0.5639 -0.7032 0.9930
-1.4401 0.4793 -0.6615 0.9934
-1.3722 0.4029 -0.6233 0.9938
-1.3688 0.2977 -0.6105 0.9939
-1.3956 0.2518 -0.6180 0.9938
-1.4180 0.2039 -0.6244 0.9938
-1.4571 0.0520 -0.6354 0.9937
4.3116 0.1540 -1.9970 0.9812
4.3033 0.3078 -1.9970 0.9812
4.2703 0.6140 -1.9970 0.9812
4.2456 0.7660 -1.9970 0.9812
4.1800 1.0669 -1.9969 0.9812
4.1391 1.2154 -1.9968 0.9812
3.9852 1.6507 -1.9967 0.9812
3.8570 1.9307 -1.9965 0.9812
3.7854 2.0670 -1.9964 0.9812
3.6280 2.3316 -1.9963 0.9812
3.5423 2.4595 -1.9962 0.9812
3.2586 2.8236 -1.9958 0.9812
2.9376 3.1552 -1.9955 0.9812
2.8229 3.2578 -1.9954 0.9812
2.7046 3.3563 -1.9952 0.9812
2.4580 3.5402 -1.9950 0.9812
1.7884 2.7828 -1.5312 0.9855
1.5657 2.6388 -1.4203 0.9866
1.4236 2.8440 -1.4722 0.9861
1.1854 2.5956 -1.3208 0.9875
0.6659 2.6090 -1.2464 0.9882
0.5667 2.6052 -1.2341 0.9883
0.4693 2.6014 -1.2236 0.9884
0.2795 2.5996 -1.2103 0.9885
0.1860 2.6003 -1.2067 0.9886
-0.0000 2.6011 -1.2040 0.9886
-0.3741 2.6018 -1.2167 0.9885
-1.0780 2.6024 -1.3039 0.9877
-1.1882 2.6017 -1.3239 0.9875
-1.3000 2.5970 -1.3443 0.9873
-1.4157 2.5926 -1.3673 0.9871
-1.5574 2.6248 -1.4128 0.9866
-1.6758 2.6075 -1.4348 0.9864
-1.9535 2.6096 -1.5089 0.9857
-2.9280 3.1448 -1.9889 0.9812
-3.0381 3.0381 -1.9888 0.9812
-3.1445 2.9276 -1.9887 0.9812
-3.6938 2.1916 -1.9881 0.9812
-3.7695 2.0583 -1.9880 0.9812
-3.8404 1.9223 -1.9879 0.9812
-1.2017 0.4482 -0.5937 0.9944
-1.1536 0.3840 -0.5628 0.9947
-1.1330 0.3327 -0.5466 0.9948
-1.1575 0.2954 -0.5529 0.9947
-1.1974 0.2160 -0.5632 0.9947
-1.2424 0.0444 -0.5755 0.9945
4.0707 -0.0000 -1.9968 0.9820
4.0603 0.2904 -1.9967 0.9820
4.0473 0.4351 -1.9967 0.9820
4.0058 0.7227 -1.9967 0.9820
3.9439 1.0066 -1.9966 0.9820
3.7601 1.5575 -1.9964 0.9820
3.5717 1.9503 -1.9962 0.9820
3.4232 2.2000 -1.9960 0.9820
3.2573 2.4383 -1.9958 0.9820
3.1680 2.5529 -1.9957 0.9820
3.0747 2.6642 -1.9956 0.9820
2.8765 2.8765 -1.9954 0.9820
2.6636 3.0740 -1.9952 0.9820
2.5520 3.1669 -1.9951 0.9820
2.4372 3.2558 -1.9949 0.9820
2.3193 3.3404 -1.9948 0.9820
1.7738 2.7601 -1.6094 0.9855
1.5634 2.6349 -1.5029 0.9864
1.4185 2.5977 -1.4518 0.9869
1.0758 2.5972 -1.3789 0.9876
0.9687 2.5971 -1.3597 0.9877
0.8673 2.6059 -1.3472 0.9878
0.5650 2.5973 -1.3039 0.9882
0.2786 2.5911 -1.2783 0.9885
0.1854 2.5918 -1.2746 0.9885
0.0926 2.5923 -1.2724 0.9885
-0.0000 2.5926 -1.2718 0.9885
-0.0926 2.5928 -1.2726 0.9885
-0.3727 2.5923 -1.2847 0.9884
-0.5641 2.5933 -1.3018 0.9882
-0.6620 2.5936 -1.3130 0.9881
-0.9681 2.5957 -1.3589 0.9877
-1.0758 2.5971 -1.3789 0.9876
-1.1857 2.5964 -1.4001 0.9874
-1.9540 2.6102 -1.5994 0.9856
-2.1022 2.6087 -1.6434 0.9852
-2.6557 3.0648 -1.9892 0.9821
-3.0641 2.6551 -1.9888 0.9821
-3.2454 2.4295 -1.9886 0.9821
-3.4101 2.1915 -1.9884 0.9821
-1.0444 0.4769 -0.5632 0.9949
-1.0119 0.3774 -0.5298 0.9952
-1.0025 0.3337 -0.5183 0.9953
-1.0175 0.2987 -0.5202 0.9953
-1.0422 0.2267 -0.5232 0.9953
-1.0518 0.1898 -0.5242 0.9952
-1.0611 0.1525 -0.5258 0.9952
-1.0769 0.0770 -0.5296 0.9952
3.8460 0.1374 -1.9965 0.9828
3.8386 0.2745 -1.9965 0.9828
3.8092 0.5477 -1.9965 0.9828
3.7872 0.6833 -1.9964 0.9828
3.7603 0.8180 -1.9964 0.9828
3.7287 0.9517 -1.9964 0.9828
3.6923 1.0841 -1.9963 0.9828
3.6511 1.2152 -1.9963 0.9828
3.5000 1.5984 -1.9961 0.9828
3.3768 1.8439 -1.9960 0.9828
3.2364 2.0799 -1.9958 0.9828
3.1600 2.1940 -1.9957 0.9828
2.9952 2.4136 -1.9956 0.9828
2.7196 2.7196 -1.9952 0.9828
2.4129 2.9942 -1.9949 0.9828
2.3043 3.0782 -1.9948 0.9828
2.1928 3.1583 -1.9947 0.9828
1.5621 2.6327 -1.5881 0.9863
1.4616 2.6766 -1.5821 0.9864
1.2995 2.5960 -1.5061 0.9870
1.1863 2.5976 -1.4814 0.9872
0.9691 2.5983 -1.4387 0.9876
0.7763 2.6438 -1.4295 0.9877
0.6635 2.5995 -1.3918 0.9880
0.3736 2.5983 -1.3618 0.9882
0.2792 2.5969 -1.3550 0.9883
0.1856 2.5957 -1.3501 0.9883
-0.0926 2.5930 -1.3461 0.9884
-0.2786 2.5916 -1.3522 0.9883
-0.4673 2.5900 -1.3653 0.9882
-0.7618 2.5943 -1.4027 0.9879
-0.9682 2.5959 -1.4373 0.9876
-1.4153 2.5919 -1.5320 0.9868
-1.8132 2.6115 -1.6493 0.9858
-2.8062 2.6126 -1.9891 0.9829
-3.0690 2.2974 -1.9888 0.9829
-0.9486 0.5180 -0.5607 0.9951
-0.9416 0.4713 -0.5463 0.9953
-0.9271 0.3840 -0.5206 0.9955
-0.9208 0.3434 -0.5098 0.9956
-0.9268 0.3084 -0.5067 0.9956
-0.9524 0.2431 -0.5099 0.9956
-0.9628 0.2094 -0.5112 0.9956
-0.9785 0.1407 -0.5129 0.9956
-0.9893 0.0353 -0.5135 0.9955
3.6448 -0.0000 -1.9963 0.9835
3.6425 0.1301 -1.9963 0.9835
3.6355 0.2600 -1.9963 0.9835
3.6239 0.3896 -1.9963 0.9835
3.5868 0.6471 -1.9962 0.9835
3.5614 0.7747 -1.9962 0.9835
3.5314 0.9013 -1.9962 0.9835
3.4969 1.0268 -1.9961 0.9835
3.4579 1.1509 -1.9961 0.9835
3.3668 1.3946 -1.9960 0.9835
3.3148 1.5138 -1.9959 0.9835
2.9928 2.0780 -1.9956 0.9835
2.8367 2.2860 -1.9954 0.9835
2.7532 2.3857 -1.9953 0.9835
2.3852 2.7526 -1.9949 0.9835
2.2853 2.8358 -1.9948 0.9835
2.1825 2.9154 -1.9946 0.9835
2.0769 2.9913 -1.9945 0.9835
1.9687 3.0633 -1.9944 0.9835
1.2997 2.5964 -1.5903 0.9868
1.0768 2.5996 -1.5411 0.9872
0.9695 2.5993 -1.5195 0.9874
0.8648 2.5984 -1.4999 0.9876
0.7122 2.7902 -1.5772 0.9870
0.5650 2.5974 -1.4559 0.9880
0.3745 2.6047 -1.4413 0.9881
-0.1856 2.5955 -1.4252 0.9882
-0.2788 2.5933 -1.4286 0.9882
-0.3726 2.5913 -1.4338 0.9881
-0.6622 2.5946 -1.4666 0.9879
-0.8636 2.5948 -1.4978 0.9876
-1.0744 2.5938 -1.5377 0.9873
-1.4832 2.7163 -1.6951 0.9860
-1.5466 2.6066 -1.6601 0.9863
-1.9533 2.6093 -1.7852 0.9852
-2.3788 2.7453 -1.9896 0.9836
-2.4752 2.6585 -1.9894 0.9836
-2.6582 2.4749 -1.9892 0.9836
-2.7447 2.3783 -1.9891 0.9836
-2.8277 2.2787 -1.9891 0.9836
-2.9071 2.1762 -1.9890 0.9836
-0.8516 0.4262 -0.5216 0.9957
-0.8479 0.3512 -0.5027 0.9958
-0.8465 0.3157 -0.4948 0.9959
-0.8837 0.2255 -0.4995 0.9958
-0.8932 0.1943 -0.5006 0.9958
-0.9011 0.1626 -0.5015 0.9958
-0.9077 0.1305 -0.5022 0.9958
3.4573 -0.0000 -1.9961 0.9842
3.4551 0.1234 -1.9961 0.9842
3.4485 0.2466 -1.9961 0.9842
3.4374 0.3695 -1.9960 0.9842
3.4220 0.4920 -1.9960 0.9842
3.4023 0.6138 -1.9960 0.9842
3.3497 0.8550 -1.9960 0.9842
3.3170 0.9740 -1.9959 0.9842
3.2800 1.0917 -1.9959 0.9842
3.2389 1.2081 -1.9958 0.9842
3.0337 1.6565 -1.9956 0.9842
2.9725 1.7637 -1.9955 0.9842
2.9076 1.8686 -1.9955 0.9842
2.7666 2.0711 -1.9953 0.9842
2.6908 2.1684 -1.9952 0.9842
2.5291 2.3546 -1.9950 0.9842
2.4433 2.4433 -1.9949 0.9842
2.3544 2.5288 -1.9948 0.9842
2.2625 2.6111 -1.9947 0.9842
2.1678 2.6900 -1.9946 0.9842
2.0703 2.7655 -1.9945 0.9842
1.8675 2.9059 -1.9943 0.9842
1.2997 2.5964 -1.6764 0.9867
0.7004 2.7441 -1.6351 0.9870
0.5661 2.6023 -1.5376 0.9878
0.0930 2.6038 -1.5043 0.9880
-0.0928 2.5994 -1.5017 0.9881
-0.3728 2.5931 -1.5125 0.9880
-0.4679 2.5936 -1.5216 0.9879
-0.6621 2.5939 -1.5456 0.9877
-0.7615 2.5936 -1.5606 0.9876
-0.8632 2.5935 -1.5781 0.9875
-0.9673 2.5933 -1.5980 0.9873
-1.2974 2.5919 -1.6735 0.9867
-1.6522 3.0257 -1.9904 0.9842
-1.6761 2.6081 -1.7899 0.9858
-1.8113 2.6088 -1.8336 0.9854
-1.9524 2.6081 -1.8810 0.9851
-2.2568 2.6045 -1.9897 0.9842
-2.4366 2.4366 -1.9895 0.9842
-2.6040 2.2564 -1.9893 0.9842
-2.7581 2.0647 -1.9891 0.9842
-0.7634 0.5300 -0.5366 0.9957
-0.7696 0.4946 -0.5282 0.9958
-0.7787 0.4252 -0.5122 0.9959
-0.7806 0.3908 -0.5040 0.9960
-0.7809 0.3566 -0.4957 0.9960
-0.7796 0.3229 -0.4872 0.9961
-0.8318 0.1809 -0.4915 0.9961
-0.8393 0.1514 -0.4924 0.9961
-0.8453 0.1215 -0.4930 0.9961
