ply
format ascii 1.0
element vertex 760
property float32 x
property float32 y
property float32 z
property float32 I
end_header
-5.8129 -3.4489 -0.3428 0.9733
7.8526 -3.9307 -0.6439 0.9654
7.8601 -3.2558 -0.6238 0.9665
-5.6859 -3.3736 -0.6347 0.9738
7.4299 -3.7191 -0.7977 0.9672
7.5104 -3.1109 -0.7804 0.9679
7.6453 -2.8516 -0.7834 0.9677
9.2710 -2.7222 -0.9276 0.9619
-5.6894 -3.3757 -0.7858 0.9737
7.4201 -2.7676 -0.9407 0.9686
8.9995 -2.6425 -1.1142 0.9629
-6.0546 -3.3061 -0.9774 0.9725
6.4167 -4.1238 -1.0807 0.9697
6.3794 -3.7851 -1.0510 0.9705
6.3979 -3.4935 -1.0329 0.9710
6.6145 -3.0207 -1.0303 0.9711
7.1484 -2.6662 -1.0810 0.9696
7.8991 -2.6291 -1.1796 0.9669
-6.1580 -3.3625 -1.1558 0.9720
-5.6676 -3.3627 -1.0856 0.9736
6.5201 -2.7007 -1.1626 0.9718
7.0487 -2.6290 -1.2393 0.9700
7.8657 -2.6180 -1.3657 0.9670
-6.9314 -3.4696 -1.4569 0.9689
-6.1545 -3.3606 -1.3180 0.9719
-5.3516 -3.4393 -1.1957 0.9744
6.1570 -4.2749 -1.4089 0.9700
5.9464 -3.2470 -1.2735 0.9728
6.1778 -2.8213 -1.2765 0.9727
-9.3515 -0.6688 -1.9818 0.9624
-9.3219 -1.0022 -1.9818 0.9624
-9.2804 -1.3343 -1.9819 0.9624
-9.1621 -1.9931 -1.9820 0.9624
-9.0855 -2.3190 -1.9821 0.9624
-8.9975 -2.6419 -1.9822 0.9624
-8.8979 -2.9615 -1.9823 0.9624
-8.7871 -3.2774 -1.9824 0.9624
-8.5321 -3.8965 -1.9827 0.9624
-7.3085 -5.8896 -1.9841 0.9624
-7.0945 -6.1474 -1.9843 0.9623
-6.6395 -6.6396 -1.9848 0.9623
-5.8942 -7.3143 -1.9856 0.9623
-5.6302 -7.5211 -1.9859 0.9623
-5.3590 -7.7185 -1.9862 0.9623
-5.0809 -7.9061 -1.9865 0.9623
-4.7963 -8.0837 -1.9869 0.9623
-4.5054 -8.2511 -1.9872 0.9623
-4.2087 -8.4080 -1.9875 0.9623
-3.9066 -8.5543 -1.9879 0.9623
-1.3403 -9.3219 -1.9907 0.9622
-1.0069 -9.3655 -1.9911 0.9622
-0.6721 -9.3972 -1.9915 0.9622
-0.0000 -9.4248 -1.9922 0.9622
0.3364 -9.4206 -1.9926 0.9622
1.0080 -9.3761 -1.9933 0.9622
2.0056 -9.2198 -1.9945 0.9622
2.6592 -9.0565 -1.9952 0.9621
2.9813 -8.9574 -1.9955 0.9621
3.6140 -8.7250 -1.9962 0.9621
4.2287 -8.4479 -1.9969 0.9621
5.1100 -7.9513 -1.9979 0.9621
5.6660 -7.5689 -1.9985 0.9621
5.9334 -7.3629 -1.9988 0.9621
6.6893 -6.6893 -1.9997 0.9621
6.9247 -6.4471 -1.9999 0.9621
7.3688 -5.9382 -2.0004 0.9620
5.9059 -3.7955 -1.4840 0.9717
5.9102 -3.2272 -1.4234 0.9728
5.9843 -2.9955 -1.4146 0.9730
6.3858 -2.6451 -1.4610 0.9721
7.8798 -2.6227 -1.7555 0.9666
9.2572 -2.0138 -2.0025 0.9620
9.3235 -1.6822 -2.0026 0.9620
9.4202 -1.0128 -2.0027 0.9620
9.4506 -0.6759 -2.0028 0.9620
-8.4366 0.0000 -1.9828 0.9659
-8.4313 -0.3011 -1.9828 0.9659
-8.3511 -1.2007 -1.9829 0.9659
-8.3032 -1.4981 -1.9829 0.9659
-8.2447 -1.7935 -1.9830 0.9659
-8.1757 -2.0867 -1.9831 0.9659
-8.0964 -2.3773 -1.9832 0.9659
-8.0068 -2.6649 -1.9833 0.9659
-7.9070 -2.9492 -1.9834 0.9659
-7.6775 -3.5062 -1.9836 0.9659
-7.4089 -4.0456 -1.9839 0.9659
-5.4856 -3.5254 -1.5325 0.9736
-6.9359 -4.8157 -1.9845 0.9659
-6.3833 -5.5312 -1.9851 0.9659
-5.9739 -5.9739 -1.9855 0.9659
-5.7575 -6.1840 -1.9858 0.9659
-5.3030 -6.5807 -1.9863 0.9659
-5.0655 -6.7667 -1.9866 0.9659
-4.8214 -6.9441 -1.9868 0.9659
-4.5711 -7.1128 -1.9871 0.9659
-4.0532 -7.4229 -1.9877 0.9658
-3.7863 -7.5640 -1.9880 0.9658
-3.2380 -7.8172 -1.9886 0.9658
-2.6729 -8.0308 -1.9892 0.9658
-2.3850 -8.1225 -1.9896 0.9658
-2.0939 -8.2037 -1.9899 0.9658
-1.2055 -8.3847 -1.9909 0.9658
-0.9057 -8.4238 -1.9912 0.9658
-0.6045 -8.4522 -1.9915 0.9658
-0.3025 -8.4698 -1.9919 0.9658
-0.0000 -8.4767 -1.9922 0.9658
0.6049 -8.4579 -1.9929 0.9658
0.9066 -8.4324 -1.9932 0.9658
1.5063 -8.3490 -1.9939 0.9657
1.8037 -8.2913 -1.9942 0.9657
2.9672 -7.9554 -1.9955 0.9657
3.2498 -7.8457 -1.9958 0.9657
3.5283 -7.7259 -1.9962 0.9657
4.0717 -7.4568 -1.9968 0.9657
4.8476 -6.9818 -1.9976 0.9657
5.0944 -6.8053 -1.9979 0.9657
5.5684 -6.4262 -1.9984 0.9657
5.7949 -6.2242 -1.9987 0.9657
6.0141 -6.0141 -1.9989 0.9657
6.4293 -5.5710 -1.9994 0.9656
6.6248 -5.3386 -1.9996 0.9656
6.0414 -4.1946 -1.7286 0.9702
5.9779 -2.9924 -1.5711 0.9729
8.0793 -2.6891 -2.0012 0.9656
8.2513 -2.1061 -2.0014 0.9656
8.3216 -1.8103 -2.0015 0.9656
8.3811 -1.5121 -2.0016 0.9656
8.4681 -0.9104 -2.0017 0.9656
8.4953 -0.6076 -2.0017 0.9656
8.5117 -0.3040 -2.0017 0.9656
-7.6614 0.0000 -1.9837 0.9688
-7.6176 -0.8190 -1.9837 0.9688
-7.5402 -1.3604 -1.9838 0.9688
-7.3523 -2.1588 -1.9840 0.9688
-7.2709 -2.4200 -1.9841 0.9688
-7.1803 -2.6781 -1.9842 0.9688
-6.8541 -3.4309 -1.9846 0.9688
-5.4351 -3.4929 -1.6728 0.9737
-6.2980 -4.3728 -1.9852 0.9688
-5.9711 -4.8118 -1.9855 0.9688
-5.7962 -5.0224 -1.9857 0.9688
-5.6138 -5.2266 -1.9859 0.9688
-5.4242 -5.4242 -1.9862 0.9688
-5.0246 -5.7987 -1.9866 0.9688
-4.8150 -5.9750 -1.9868 0.9688
-4.5992 -6.1438 -1.9871 0.9688
-4.1502 -6.4579 -1.9876 0.9688
-3.9176 -6.6028 -1.9878 0.9688
-3.6799 -6.7393 -1.9881 0.9688
-2.9397 -7.0970 -1.9889 0.9688
-2.1651 -7.3738 -1.9898 0.9687
-1.9009 -7.4474 -1.9901 0.9687
-1.3651 -7.5663 -1.9907 0.9687
-0.8221 -7.6468 -1.9913 0.9687
-0.5488 -7.6724 -1.9916 0.9687
-0.2746 -7.6883 -1.9919 0.9687
0.2747 -7.6907 -1.9925 0.9687
0.5491 -7.6771 -1.9928 0.9687
0.8229 -7.6538 -1.9931 0.9687
1.3672 -7.5779 -1.9937 0.9687
2.4332 -7.3106 -1.9949 0.9687
2.6930 -7.2201 -1.9952 0.9687
3.4508 -6.8938 -1.9961 0.9686
3.9349 -6.6319 -1.9966 0.9686
4.3991 -6.3359 -1.9971 0.9686
4.6230 -6.1756 -1.9974 0.9686
5.0530 -5.8315 -1.9979 0.9686
5.4574 -5.4574 -1.9983 0.9686
5.6493 -5.2597 -1.9985 0.9686
5.8340 -5.0552 -1.9987 0.9686
6.1810 -4.6270 -1.9991 0.9686
6.3428 -4.4039 -1.9993 0.9686
5.8978 -3.2205 -1.7399 0.9726
6.0995 -2.7856 -1.7362 0.9727
7.5503 -1.6425 -2.0006 0.9686
7.6044 -1.3720 -2.0007 0.9686
7.6487 -1.0997 -2.0007 0.9686
7.7227 -0.2758 -2.0008 0.9686
-7.0097 0.0000 -1.9844 0.9713
-7.0052 -0.2502 -1.9844 0.9713
-6.9919 -0.5001 -1.9844 0.9713
-6.9697 -0.7493 -1.9844 0.9713
-6.8501 -1.4901 -1.9846 0.9713
-6.7928 -1.7338 -1.9846 0.9713
-6.7268 -1.9752 -1.9847 0.9713
-6.6523 -2.2141 -1.9848 0.9713
-6.5694 -2.4502 -1.9849 0.9713
-6.4780 -2.6833 -1.9850 0.9713
-6.3785 -2.9130 -1.9851 0.9713
-6.1552 -3.3610 -1.9853 0.9713
-6.0317 -3.5788 -1.9855 0.9713
-5.9006 -3.7921 -1.9856 0.9713
-5.3026 -4.5948 -1.9863 0.9713
-4.9623 -4.9623 -1.9867 0.9712
-4.7825 -5.1368 -1.9869 0.9712
-4.5966 -5.3047 -1.9871 0.9712
-4.0045 -5.7676 -1.9877 0.9712
-3.3663 -6.1649 -1.9885 0.9712
-3.1445 -6.2819 -1.9887 0.9712
-2.9186 -6.3909 -1.9890 0.9712
-2.4559 -6.5845 -1.9895 0.9712
-2.2196 -6.6689 -1.9897 0.9712
-1.9805 -6.7448 -1.9900 0.9712
-1.4947 -6.8707 -1.9905 0.9712
-1.2486 -6.9207 -1.9908 0.9712
-0.2512 -7.0318 -1.9919 0.9712
1.0021 -6.9696 -1.9933 0.9712
1.2504 -6.9303 -1.9936 0.9711
1.7421 -6.8254 -1.9942 0.9711
1.9848 -6.7598 -1.9944 0.9711
2.2251 -6.6855 -1.9947 0.9711
2.4627 -6.6027 -1.9950 0.9711
2.9282 -6.4119 -1.9955 0.9711
3.1556 -6.3041 -1.9957 0.9711
3.3790 -6.1882 -1.9960 0.9711
3.5982 -6.0644 -1.9962 0.9711
4.0226 -5.7936 -1.9967 0.9711
4.2273 -5.6470 -1.9969 0.9711
4.4266 -5.4931 -1.9972 0.9711
4.6204 -5.3322 -1.9974 0.9711
4.8083 -5.1645 -1.9976 0.9711
4.9900 -4.9901 -1.9978 0.9711
5.3343 -4.6222 -1.9982 0.9711
5.4964 -4.4293 -1.9983 0.9711
6.0728 -3.6032 -1.9990 0.9711
6.1979 -3.3843 -1.9991 0.9711
6.5254 -2.7029 -1.9995 0.9711
6.7022 -2.2310 -1.9997 0.9711
6.7779 -1.9902 -1.9998 0.9711
6.8449 -1.7470 -1.9999 0.9711
6.9031 -1.5017 -1.9999 0.9711
6.9930 -1.0055 -2.0000 0.9711
7.0471 -0.5040 -2.0001 0.9711
-6.4496 -0.2303 -1.9850 0.9734
-6.3515 -1.1459 -1.9851 0.9734
-6.1246 -2.0385 -1.9854 0.9733
-6.0481 -2.2558 -1.9855 0.9733
-5.7732 -2.8899 -1.9858 0.9733
-5.6668 -3.0943 -1.9859 0.9733
-5.5531 -3.2948 -1.9860 0.9733
-5.3046 -3.6831 -1.9863 0.9733
-5.1702 -3.8703 -1.9864 0.9733
-4.8817 -4.2300 -1.9868 0.9733
-4.7280 -4.4019 -1.9869 0.9733
-4.5683 -4.5683 -1.9871 0.9733
-4.2315 -4.8835 -1.9875 0.9733
-4.0550 -5.0319 -1.9877 0.9733
-3.8732 -5.1739 -1.9879 0.9733
-3.4949 -5.4382 -1.9883 0.9733
-2.8946 -5.7826 -1.9890 0.9733
-2.4752 -5.9758 -1.9894 0.9733
-2.0431 -6.1386 -1.9899 0.9733
-1.3758 -6.3242 -1.9907 0.9733
-0.6921 -6.4375 -1.9914 0.9733
-0.4620 -6.4589 -1.9917 0.9733
0.4622 -6.4623 -1.9927 0.9733
0.6926 -6.4425 -1.9930 0.9732
1.1508 -6.3783 -1.9935 0.9732
1.6033 -6.2815 -1.9940 0.9732
2.2664 -6.0764 -1.9947 0.9732
2.9040 -5.8014 -1.9955 0.9732
3.1095 -5.6947 -1.9957 0.9732
3.5087 -5.4596 -1.9961 0.9732
3.7017 -5.3315 -1.9963 0.9732
4.9085 -4.2533 -1.9977 0.9732
5.0576 -4.0757 -1.9979 0.9732
5.2003 -3.8929 -1.9980 0.9732
5.5878 -3.3154 -1.9984 0.9732
5.8108 -2.9087 -1.9987 0.9732
5.9113 -2.6996 -1.9988 0.9732
6.0042 -2.4870 -1.9989 0.9732
6.0894 -2.2713 -1.9990 0.9732
6.1669 -2.0526 -1.9991 0.9732
6.2980 -1.6075 -1.9992 0.9732
6.4965 -0.2320 -1.9995 0.9732
-5.9695 -0.2132 -1.9855 0.9751
-5.8787 -1.0606 -1.9857 0.9751
-5.8372 -1.2698 -1.9857 0.9751
-5.7321 -1.6831 -1.9858 0.9751
-5.5978 -2.0879 -1.9860 0.9751
-5.4351 -2.4821 -1.9861 0.9751
-5.1395 -3.0494 -1.9865 0.9751
-4.7850 -3.5820 -1.9869 0.9751
-4.5180 -3.9149 -1.9872 0.9751
-4.2279 -4.2279 -1.9875 0.9751
-3.9162 -4.5195 -1.9878 0.9751
-3.4116 -4.9136 -1.9884 0.9751
-3.0530 -5.1455 -1.9888 0.9751
-2.6787 -5.3514 -1.9892 0.9751
-2.2906 -5.5300 -1.9897 0.9751
-1.8907 -5.6806 -1.9901 0.9751
-1.2731 -5.8522 -1.9908 0.9751
-0.8525 -5.9295 -1.9913 0.9751
-0.4275 -5.9766 -1.9917 0.9751
-0.2139 -5.9888 -1.9920 0.9751
-0.0000 -5.9933 -1.9922 0.9751
0.2139 -5.9902 -1.9925 0.9751
0.6409 -5.9611 -1.9929 0.9750
1.2749 -5.8605 -1.9936 0.9750
1.4834 -5.8120 -1.9939 0.9750
2.2965 -5.5442 -1.9948 0.9750
2.6868 -5.3675 -1.9952 0.9750
2.8769 -5.2687 -1.9954 0.9750
3.2461 -5.0511 -1.9958 0.9750
3.4247 -4.9325 -1.9960 0.9750
3.5989 -4.8076 -1.9962 0.9750
3.7686 -4.6765 -1.9964 0.9750
3.9334 -4.5394 -1.9966 0.9750
4.0933 -4.3966 -1.9968 0.9750
4.2480 -4.2480 -1.9970 0.9750
4.3973 -4.0940 -1.9971 0.9750
4.5410 -3.9348 -1.9973 0.9750
4.6789 -3.7705 -1.9974 0.9750
4.8108 -3.6014 -1.9976 0.9750
5.0562 -3.2494 -1.9979 0.9750
5.1693 -3.0671 -1.9980 0.9750
5.2758 -2.8808 -1.9981 0.9750
5.4684 -2.4974 -1.9983 0.9750
5.5543 -2.3007 -1.9984 0.9750
5.6332 -2.1011 -1.9985 0.9750
5.8261 -1.4870 -1.9987 0.9750
5.9176 -1.0677 -1.9988 0.9750
5.9789 -0.6428 -1.9989 0.9750
6.0097 -0.2147 -1.9989 0.9750
-5.5501 -0.1982 -1.9860 0.9767
-5.5395 -0.3962 -1.9860 0.9767
-5.5219 -0.5937 -1.9860 0.9767
-5.4656 -0.9861 -1.9861 0.9767
-5.4271 -1.1806 -1.9862 0.9767
-5.3816 -1.3736 -1.9862 0.9767
-5.3293 -1.5648 -1.9863 0.9767
-5.2703 -1.7541 -1.9863 0.9767
-5.2045 -1.9412 -1.9864 0.9767
-5.0532 -2.3077 -1.9866 0.9767
-4.9678 -2.4867 -1.9867 0.9767
-4.7783 -2.8351 -1.9869 0.9767
-4.6743 -3.0040 -1.9870 0.9767
-4.5644 -3.1691 -1.9871 0.9767
-4.1848 -3.6261 -1.9802 0.9768
-4.0681 -3.7875 -1.9877 0.9767
-3.9306 -3.9306 -1.9878 0.9767
-3.7881 -4.0687 -1.9880 0.9767
-3.3323 -4.4515 -1.9885 0.9767
-3.1716 -4.5680 -1.9887 0.9767
-3.0068 -4.6787 -1.9889 0.9767
-2.4902 -4.9748 -1.9894 0.9766
-2.1294 -5.1408 -1.9898 0.9766
-1.9447 -5.2140 -1.9900 0.9766
-1.7576 -5.2807 -1.9903 0.9766
-1.5682 -5.3406 -1.9905 0.9766
-1.3767 -5.3937 -1.9907 0.9766
-1.1834 -5.4400 -1.9909 0.9766
-0.9886 -5.4794 -1.9911 0.9766
-0.7925 -5.5118 -1.9913 0.9766
-0.5953 -5.5372 -1.9915 0.9766
-0.3974 -5.5556 -1.9918 0.9766
-0.1988 -5.5668 -1.9920 0.9766
-0.0000 -5.5710 -1.9922 0.9766
0.3975 -5.5580 -1.9927 0.9766
0.5957 -5.5409 -1.9929 0.9766
1.1850 -5.4473 -1.9935 0.9766
1.5709 -5.3500 -1.9940 0.9766
1.7610 -5.2911 -1.9942 0.9766
2.3172 -5.0741 -1.9948 0.9766
2.4971 -4.9887 -1.9950 0.9766
3.0170 -4.6945 -1.9956 0.9766
3.5024 -4.3463 -1.9961 0.9766
4.0867 -3.8049 -1.9968 0.9766
4.2202 -3.6568 -1.9969 0.9766
4.3483 -3.5041 -1.9971 0.9766
4.5879 -3.1854 -1.9973 0.9766
4.6989 -3.0198 -1.9975 0.9766
4.9029 -2.6772 -1.9977 0.9765
5.3613 -1.5742 -1.9982 0.9765
5.4603 -1.1878 -1.9983 0.9765
5.4993 -0.9922 -1.9984 0.9765
5.5313 -0.7953 -1.9984 0.9765
-5.1836 0.0000 -1.9864 0.9780
-5.1803 -0.1850 -1.9864 0.9780
-5.1704 -0.3698 -1.9864 0.9780
-5.1014 -0.9204 -1.9865 0.9780
-5.0654 -1.1019 -1.9866 0.9780
-5.0230 -1.2821 -1.9866 0.9780
-4.9190 -1.6372 -1.9867 0.9780
-4.7164 -2.1539 -1.9869 0.9780
-4.6367 -2.3210 -1.9870 0.9780
-4.3627 -2.8037 -1.9873 0.9780
-4.2601 -2.9578 -1.9875 0.9780
-4.1521 -3.1082 -1.9876 0.9780
-3.9202 -3.3969 -1.9878 0.9780
-3.3979 -3.9214 -1.9884 0.9780
-3.2560 -4.0405 -1.9886 0.9780
-2.8062 -4.3665 -1.9891 0.9780
-2.6488 -4.4643 -1.9893 0.9780
-2.1570 -4.7231 -1.9898 0.9780
-1.9872 -4.7976 -1.9900 0.9780
-1.1044 -5.0767 -1.9910 0.9780
-0.7395 -5.1436 -1.9914 0.9780
-0.5556 -5.1673 -1.9916 0.9780
-0.3708 -5.1843 -1.9918 0.9780
-0.1855 -5.1948 -1.9920 0.9780
-0.0000 -5.1987 -1.9922 0.9780
0.7401 -5.1479 -1.9930 0.9780
1.1057 -5.0830 -1.9934 0.9780
1.4658 -4.9922 -1.9938 0.9780
1.6432 -4.9372 -1.9940 0.9780
1.8186 -4.8758 -1.9942 0.9780
1.9916 -4.8083 -1.9944 0.9780
2.1622 -4.7346 -1.9946 0.9780
2.3300 -4.6548 -1.9948 0.9779
2.4949 -4.5691 -1.9950 0.9779
2.6567 -4.4776 -1.9952 0.9779
2.9698 -4.2774 -1.9955 0.9779
3.4109 -3.9364 -1.9960 0.9779
3.5495 -3.8124 -1.9962 0.9779
3.6836 -3.6836 -1.9963 0.9779
3.9375 -3.4119 -1.9966 0.9779
4.1715 -3.1227 -1.9969 0.9779
4.2805 -2.9720 -1.9970 0.9779
4.6609 -2.3331 -1.9974 0.9779
4.7414 -2.1653 -1.9975 0.9779
4.8159 -1.9948 -1.9976 0.9779
5.0514 -1.2893 -1.9979 0.9779
-4.8513 -0.1733 -1.9868 0.9792
-4.8421 -0.3463 -1.9868 0.9792
-4.8267 -0.5189 -1.9868 0.9792
-4.7438 -1.0320 -1.9869 0.9792
-4.6067 -1.5332 -1.9871 0.9792
-4.5491 -1.6967 -1.9871 0.9792
-4.4168 -2.0171 -1.9873 0.9792
-4.3422 -2.1736 -1.9874 0.9792
-4.2621 -2.3273 -1.9875 0.9792
-4.1765 -2.4780 -1.9876 0.9792
-4.0856 -2.6256 -1.9877 0.9792
-3.9895 -2.7699 -1.9878 0.9792
-3.7821 -3.0478 -1.9880 0.9792
-3.3108 -3.5560 -1.9885 0.9792
-3.1820 -3.6722 -1.9887 0.9792
-3.0491 -3.7837 -1.9888 0.9792
-2.7718 -3.9922 -1.9891 0.9792
-2.4804 -4.1805 -1.9894 0.9792
-2.3298 -4.2667 -1.9896 0.9792
-2.1762 -4.3475 -1.9898 0.9792
-2.0198 -4.4228 -1.9900 0.9792
-1.6995 -4.5564 -1.9903 0.9792
-1.5359 -4.6146 -1.9905 0.9792
-1.3703 -4.6669 -1.9907 0.9792
-1.2030 -4.7133 -1.9909 0.9792
-1.0341 -4.7537 -1.9911 0.9792
-0.6925 -4.8163 -1.9914 0.9792
-0.3472 -4.8543 -1.9918 0.9792
-0.0000 -4.8677 -1.9922 0.9792
0.5205 -4.8412 -1.9928 0.9792
0.6930 -4.8200 -1.9930 0.9792
0.8647 -4.7926 -1.9932 0.9792
1.2046 -4.7197 -1.9936 0.9792
2.0244 -4.4328 -1.9945 0.9792
2.1815 -4.3581 -1.9946 0.9792
2.3359 -4.2778 -1.9948 0.9792
2.6355 -4.1010 -1.9952 0.9792
2.7805 -4.0046 -1.9953 0.9791
3.0595 -3.7967 -1.9956 0.9791
3.1933 -3.6853 -1.9958 0.9791
3.3231 -3.5693 -1.9959 0.9791
3.6863 -3.1942 -1.9963 0.9791
4.1961 -2.4897 -1.9969 0.9791
4.2825 -2.3384 -1.9970 0.9791
4.4388 -2.0271 -1.9972 0.9791
4.5085 -1.8675 -1.9972 0.9791
4.5724 -1.7054 -1.9973 0.9791
4.6305 -1.5412 -1.9974 0.9791
4.6827 -1.3750 -1.9974 0.9791
4.7290 -1.2070 -1.9975 0.9791
4.8529 -0.5218 -1.9976 0.9791
4.8779 -0.1742 -1.9977 0.9791
-1.4601 -0.0000 -0.6363 0.9936
-1.4571 -0.0521 -0.6354 0.9937
-1.4359 -0.1544 -0.6294 0.9937
-1.3688 -0.2978 -0.6105 0.9939
-1.3722 -0.4029 -0.6233 0.9938
-1.4401 -0.4793 -0.6615 0.9934
-1.5118 -0.5639 -0.7032 0.9930
-4.1485 -1.8945 -1.9876 0.9803
-4.0031 -2.1858 -1.9877 0.9803
-3.8373 -2.4661 -1.9879 0.9803
-3.1095 -3.3398 -1.9887 0.9803
-2.9885 -3.4489 -1.9889 0.9803
-2.8637 -3.5536 -1.9890 0.9803
-2.6033 -3.7494 -1.9893 0.9803
-2.4680 -3.8402 -1.9895 0.9803
-2.3295 -3.9262 -1.9896 0.9803
-2.1881 -4.0072 -1.9898 0.9803
-2.0438 -4.0830 -1.9899 0.9803
-1.8969 -4.1537 -1.9901 0.9803
-1.2869 -4.3829 -1.9908 0.9803
-0.9712 -4.4643 -1.9911 0.9803
-0.4885 -4.5438 -1.9917 0.9803
-0.3261 -4.5587 -1.9918 0.9803
-0.1632 -4.5679 -1.9920 0.9803
-0.0000 -4.5712 -1.9922 0.9803
0.1632 -4.5687 -1.9924 0.9802
0.4888 -4.5463 -1.9928 0.9802
0.6508 -4.5264 -1.9929 0.9802
0.8120 -4.5006 -1.9931 0.9802
0.9722 -4.4692 -1.9933 0.9802
1.1312 -4.4320 -1.9935 0.9802
1.4447 -4.3408 -1.9938 0.9802
1.7510 -4.2274 -1.9942 0.9802
1.9010 -4.1626 -1.9943 0.9802
2.4748 -3.8509 -1.9950 0.9802
2.9985 -3.4605 -1.9956 0.9802
3.3519 -3.1208 -1.9960 0.9802
3.6670 -2.7451 -1.9963 0.9802
3.7628 -2.6126 -1.9964 0.9802
3.8538 -2.4767 -1.9965 0.9802
3.9400 -2.3377 -1.9966 0.9802
4.0211 -2.1957 -1.9967 0.9802
4.0971 -2.0508 -1.9968 0.9802
4.1678 -1.9034 -1.9969 0.9802
4.2933 -1.6013 -1.9970 0.9802
4.4402 -1.1333 -1.9972 0.9802
4.5362 -0.6522 -1.9973 0.9802
4.5800 -0.1636 -1.9973 0.9802
-1.2424 -0.0444 -0.5755 0.9945
-1.2362 -0.0884 -0.5737 0.9946
-1.2124 -0.1743 -0.5670 0.9946
-1.1974 -0.2161 -0.5632 0.9947
-1.1790 -0.2565 -0.5585 0.9947
-1.1575 -0.2954 -0.5529 0.9947
-1.1536 -0.3840 -0.5628 0.9947
-1.2017 -0.4482 -0.5937 0.9944
-3.9064 -1.7840 -1.9879 0.9812
-3.4388 -2.5743 -1.9884 0.9812
-3.2468 -2.8133 -1.9886 0.9812
-3.0381 -3.0382 -1.9888 0.9812
-2.3239 -3.6160 -1.9896 0.9812
-2.0603 -3.7731 -1.9899 0.9812
-1.9244 -3.8445 -1.9901 0.9812
-1.7861 -3.9111 -1.9902 0.9812
-1.3582 -4.0806 -1.9907 0.9812
-1.2117 -4.1268 -1.9909 0.9812
-0.9144 -4.2034 -1.9912 0.9812
-0.7639 -4.2337 -1.9914 0.9812
-0.1536 -4.3008 -1.9920 0.9812
0.1536 -4.3015 -1.9924 0.9812
0.4602 -4.2804 -1.9927 0.9812
0.6127 -4.2616 -1.9929 0.9812
0.7645 -4.2374 -1.9931 0.9812
0.9153 -4.2077 -1.9932 0.9812
1.0650 -4.1727 -1.9934 0.9812
1.2134 -4.1324 -1.9936 0.9812
1.3602 -4.0868 -1.9937 0.9812
2.4580 -3.5402 -1.9950 0.9812
2.8229 -3.2578 -1.9954 0.9812
3.0485 -3.0485 -1.9956 0.9812
3.2586 -2.8236 -1.9958 0.9812
3.3575 -2.7057 -1.9960 0.9812
3.5423 -2.4595 -1.9962 0.9812
3.7091 -2.2007 -1.9964 0.9812
3.7855 -2.0670 -1.9964 0.9812
3.8570 -1.9307 -1.9965 0.9812
3.9236 -1.7919 -1.9966 0.9812
4.0417 -1.5075 -1.9967 0.9812
4.0930 -1.3623 -1.9968 0.9812
4.1391 -1.2154 -1.9968 0.9812
4.1800 -1.0669 -1.9969 0.9812
4.2703 -0.6140 -1.9970 0.9812
-1.0803 -0.0386 -0.5302 0.9952
-1.0705 -0.1151 -0.5281 0.9952
-1.0422 -0.2267 -0.5232 0.9953
-1.0175 -0.2988 -0.5202 0.9953
-1.0290 -0.4262 -0.5463 0.9951
-1.0588 -0.5300 -0.5808 0.9947
-3.5575 -1.9425 -1.9882 0.9821
-3.4101 -2.1916 -1.9884 0.9821
-3.2454 -2.4295 -1.9886 0.9821
-3.1568 -2.5439 -1.9887 0.9821
-2.9676 -2.7629 -1.9889 0.9821
-2.7632 -2.9679 -1.9891 0.9821
-2.5448 -3.1579 -1.9894 0.9821
-2.4306 -3.2469 -1.9895 0.9821
-1.9443 -3.5607 -1.9900 0.9821
-1.8161 -3.6281 -1.9902 0.9821
-1.5529 -3.7490 -1.9905 0.9821
-1.2817 -3.8508 -1.9908 0.9821
-1.1435 -3.8944 -1.9909 0.9821
-0.8629 -3.9667 -1.9912 0.9821
-0.5778 -4.0188 -1.9916 0.9821
-0.4341 -4.0372 -1.9917 0.9821
-0.2897 -4.0504 -1.9919 0.9821
0.4342 -4.0391 -1.9927 0.9821
0.5782 -4.0214 -1.9929 0.9821
0.7214 -3.9985 -1.9930 0.9821
1.2835 -3.8564 -1.9936 0.9821
1.4204 -3.8084 -1.9938 0.9821
1.6888 -3.6979 -1.9941 0.9821
1.9485 -3.5685 -1.9944 0.9820
2.1985 -3.4209 -1.9947 0.9820
2.3193 -3.3405 -1.9948 0.9820
2.6636 -3.0740 -1.9952 0.9820
2.7718 -2.9771 -1.9953 0.9820
3.0747 -2.6642 -1.9956 0.9820
3.1680 -2.5529 -1.9957 0.9820
3.2573 -2.4384 -1.9958 0.9820
3.4232 -2.2000 -1.9960 0.9820
3.7020 -1.6907 -1.9963 0.9820
3.8135 -1.4224 -1.9965 0.9820
3.8619 -1.2854 -1.9965 0.9820
3.9439 -1.0067 -1.9966 0.9820
4.0058 -0.7227 -1.9967 0.9820
4.0291 -0.5793 -1.9967 0.9820
-0.9873 -0.0706 -0.5135 0.9955
-0.9785 -0.1407 -0.5129 0.9956
-0.9715 -0.1753 -0.5121 0.9956
-0.9628 -0.2095 -0.5112 0.9956
-0.9524 -0.2431 -0.5099 0.9956
-0.9268 -0.3085 -0.5067 0.9956
-0.9271 -0.3840 -0.5206 0.9955
-0.9416 -0.4713 -0.5463 0.9953
-0.9486 -0.5180 -0.5607 0.9951
-3.2248 -2.0724 -1.9886 0.9829
-3.1489 -2.1863 -1.9887 0.9829
-2.9851 -2.4056 -1.9889 0.9829
-2.8975 -2.5107 -1.9890 0.9829
-2.5113 -2.8981 -1.9894 0.9829
-2.4064 -2.9861 -1.9895 0.9829
-2.2984 -3.0703 -1.9896 0.9829
-2.1875 -3.1506 -1.9898 0.9829
-2.0738 -3.2268 -1.9899 0.9829
-1.9574 -3.2990 -1.9900 0.9829
-1.8385 -3.3670 -1.9902 0.9829
-1.7173 -3.4307 -1.9903 0.9829
-1.4684 -3.5450 -1.9906 0.9829
-1.3410 -3.5954 -1.9907 0.9829
-1.2119 -3.6412 -1.9909 0.9829
-0.9492 -3.7189 -1.9912 0.9829
-0.8159 -3.7507 -1.9913 0.9829
-0.6816 -3.7778 -1.9915 0.9829
-0.5464 -3.8000 -1.9916 0.9828
-0.4104 -3.8173 -1.9918 0.9828
-0.1371 -3.8375 -1.9921 0.9828
0.1371 -3.8380 -1.9924 0.9828
0.2740 -3.8310 -1.9925 0.9828
0.4106 -3.8191 -1.9927 0.9828
0.5467 -3.8023 -1.9928 0.9828
0.6821 -3.7806 -1.9930 0.9828
0.8167 -3.7542 -1.9931 0.9828
0.9502 -3.7229 -1.9933 0.9828
1.3430 -3.6008 -1.9937 0.9828
1.5967 -3.4963 -1.9940 0.9828
1.7206 -3.4373 -1.9941 0.9828
1.8423 -3.3739 -1.9943 0.9828
1.9617 -3.3063 -1.9944 0.9828
2.1928 -3.1583 -1.9947 0.9828
2.4129 -2.9942 -1.9949 0.9828
2.5183 -2.9063 -1.9950 0.9828
2.7196 -2.7196 -1.9952 0.9828
2.9069 -2.5189 -1.9955 0.9828
2.9951 -2.4137 -1.9956 0.9828
3.0795 -2.3053 -1.9956 0.9828
3.2364 -2.0799 -1.9958 0.9828
3.3087 -1.9632 -1.9959 0.9828
3.3770 -1.8439 -1.9960 0.9828
3.5000 -1.5984 -1.9961 0.9828
3.7287 -0.9517 -1.9964 0.9828
3.7603 -0.8180 -1.9964 0.9828
3.8264 -0.4114 -1.9965 0.9828
3.8460 -0.1374 -1.9965 0.9828
-0.8932 -0.1943 -0.5006 0.9958
-0.8727 -0.2563 -0.4982 0.9959
-0.8603 -0.2863 -0.4966 0.9959
-0.8507 -0.4645 -0.5309 0.9956
-0.8524 -0.5058 -0.5428 0.9955
-3.0547 -1.9632 -1.9888 0.9836
-2.9829 -2.0710 -1.9889 0.9836
-2.8278 -2.2787 -1.9891 0.9836
-1.7415 -3.1894 -1.9903 0.9836
-1.3909 -3.3579 -1.9907 0.9836
-1.0242 -3.4881 -1.9911 0.9836
-0.1298 -3.6348 -1.9921 0.9835
0.1298 -3.6354 -1.9924 0.9835
0.2595 -3.6287 -1.9925 0.9835
0.3889 -3.6173 -1.9926 0.9835
0.5178 -3.6014 -1.9928 0.9835
1.6296 -3.2556 -1.9940 0.9835
1.7449 -3.1956 -1.9942 0.9835
1.9687 -3.0634 -1.9944 0.9835
2.0769 -2.9913 -1.9945 0.9835
2.2853 -2.8358 -1.9948 0.9835
2.3852 -2.7526 -1.9949 0.9835
2.4820 -2.6659 -1.9950 0.9835
2.6662 -2.4823 -1.9952 0.9835
2.8367 -2.2860 -1.9954 0.9835
2.9928 -2.0780 -1.9956 0.9835
3.1337 -1.8593 -1.9957 0.9835
3.1982 -1.7463 -1.9958 0.9835
3.2586 -1.6311 -1.9958 0.9835
3.3148 -1.5138 -1.9959 0.9835
3.3668 -1.3946 -1.9960 0.9835
3.4146 -1.2736 -1.9960 0.9835
3.4969 -1.0268 -1.9961 0.9835
3.5614 -0.7747 -1.9962 0.9835
3.6239 -0.3896 -1.9963 0.9835
3.6355 -0.2600 -1.9963 0.9835
3.6425 -0.1301 -1.9963 0.9835
-0.8499 -0.0914 -0.4935 0.9961
-0.8393 -0.1514 -0.4924 0.9961
-0.8318 -0.1810 -0.4915 0.9961
-0.8128 -0.2387 -0.4891 0.9961
-0.8014 -0.2667 -0.4876 0.9961
-0.7887 -0.2942 -0.4860 0.9961
-0.7787 -0.4252 -0.5122 0.9959
-0.7751 -0.4599 -0.5203 0.9958
-0.7696 -0.4946 -0.5282 0.9958
-0.7634 -0.5300 -0.5366 0.9957
-2.7581 -2.0647 -1.9891 0.9842
-2.6828 -2.1619 -1.9892 0.9842
-2.6040 -2.2564 -1.9893 0.9842
-2.4366 -2.4366 -1.9895 0.9842
-2.2568 -2.6045 -1.9897 0.9842
-2.1625 -2.6836 -1.9898 0.9842
-1.9658 -2.8313 -1.9900 0.9842
-1.6522 -3.0257 -1.9904 0.9842
-1.5432 -3.0830 -1.9905 0.9842
-1.4323 -3.1363 -1.9906 0.9842
-1.3195 -3.1856 -1.9907 0.9842
-1.2051 -3.2309 -1.9909 0.9842
-0.8530 -3.3419 -1.9913 0.9842
-0.7332 -3.3704 -1.9914 0.9842
-0.6125 -3.3946 -1.9915 0.9842
-0.3688 -3.4301 -1.9918 0.9842
-0.1232 -3.4482 -1.9921 0.9842
0.1232 -3.4487 -1.9923 0.9842
0.2462 -3.4423 -1.9925 0.9842
0.4912 -3.4164 -1.9928 0.9842
0.8538 -3.3450 -1.9932 0.9842
1.0904 -3.2760 -1.9934 0.9842
1.2067 -3.2352 -1.9936 0.9842
1.4346 -3.1413 -1.9938 0.9842
1.5459 -3.0883 -1.9939 0.9842
1.6552 -3.0314 -1.9941 0.9842
1.7625 -2.9705 -1.9942 0.9842
1.8675 -2.9059 -1.9943 0.9842
1.9701 -2.8375 -1.9944 0.9842
2.1678 -2.6901 -1.9946 0.9842
2.3544 -2.5288 -1.9948 0.9842
2.4433 -2.4433 -1.9949 0.9842
2.5291 -2.3546 -1.9950 0.9842
2.6116 -2.2630 -1.9951 0.9842
2.6908 -2.1684 -1.9952 0.9842
3.0337 -1.6565 -1.9956 0.9842
3.0910 -1.5472 -1.9957 0.9842
3.2389 -1.2081 -1.9958 0.9842
3.2800 -1.0917 -1.9959 0.9842
3.3170 -0.9740 -1.9959 0.9842
3.3497 -0.8550 -1.9960 0.9842
3.4023 -0.6139 -1.9960 0.9842
3.4220 -0.4920 -1.9960 0.9842
3.4374 -0.3696 -1.9960 0.9842
3.4551 -0.1234 -1.9961 0.9842
