ply
format ascii 1.0
element vertex 740
property float32 x
property float32 y
property float32 z
property float32 I
end_header
-9.0279 -1.2980 -1.9279 0.9634
-8.9158 -1.9395 -1.9287 0.9634
-8.8431 -2.2571 -1.9292 0.9634
-8.6649 -2.8840 -1.9304 0.9634
-8.5596 -3.1926 -1.9311 0.9633
-8.4436 -3.4975 -1.9319 0.9633
-8.3171 -3.7983 -1.9327 0.9633
-8.1801 -4.0947 -1.9336 0.9633
-7.8207 -4.6403 -1.9222 0.9635
-7.6484 -4.9153 -1.9218 0.9635
-7.5312 -5.2290 -1.9380 0.9632
-7.3445 -5.4981 -1.9393 0.9632
-7.1485 -5.7606 -1.9406 0.9632
-6.7292 -6.2651 -1.9435 0.9631
-6.5063 -6.5063 -1.9450 0.9631
-6.2750 -6.7398 -1.9465 0.9631
-6.0355 -6.9653 -1.9482 0.9630
-5.5329 -7.3911 -1.9516 0.9630
-5.0008 -7.7813 -1.9552 0.9629
-4.1525 -8.2957 -1.9610 0.9628
-3.5575 -8.5885 -1.9650 0.9627
-2.3089 -9.0463 -1.9735 0.9625
-1.9868 -9.1331 -1.9757 0.9625
-1.3332 -9.2723 -1.9801 0.9624
0.0000 -9.4106 -1.9892 0.9623
0.3363 -9.4155 -1.9915 0.9622
0.6729 -9.4083 -1.9938 0.9622
1.0094 -9.3891 -1.9961 0.9621
2.0142 -9.2590 -2.0029 0.9620
2.3460 -9.1916 -2.0052 0.9620
3.9624 -8.6765 -2.0162 0.9618
5.1781 -8.0573 -2.0245 0.9616
5.4677 -7.8750 -2.0265 0.9616
6.0269 -7.4790 -2.0303 0.9615
6.8098 -6.8098 -2.0357 0.9614
7.0543 -6.5677 -2.0374 0.9614
7.2900 -6.3168 -2.0390 0.9613
7.5165 -6.0572 -2.0405 0.9613
7.7335 -5.7892 -2.0420 0.9613
7.9408 -5.5133 -2.0434 0.9612
8.3245 -4.9392 -2.0461 0.9612
8.5005 -4.6416 -2.0473 0.9612
8.6656 -4.3377 -2.0484 0.9612
9.3185 -2.7361 -2.0529 0.9611
9.4132 -2.4026 -2.0535 0.9611
9.4956 -2.0656 -2.0541 0.9610
9.5655 -1.7258 -2.0546 0.9610
9.6676 -1.0394 -2.0553 0.9610
9.7189 -0.3471 -2.0557 0.9610
-8.2215 -0.2936 -1.9335 0.9668
-8.2062 -0.5869 -1.9336 0.9668
-8.1807 -0.8795 -1.9337 0.9668
-8.1451 -1.1711 -1.9340 0.9668
-8.0994 -1.4613 -1.9343 0.9667
-7.9778 -2.0362 -1.9351 0.9667
-7.8166 -2.6016 -1.9362 0.9667
-7.7213 -2.8799 -1.9368 0.9667
-7.5019 -3.4260 -1.9383 0.9667
-7.3780 -3.6932 -1.9391 0.9667
-7.2449 -3.9560 -1.9400 0.9667
-6.9513 -4.4673 -1.9420 0.9666
-6.6225 -4.9575 -1.9442 0.9666
-6.4453 -5.1939 -1.9454 0.9666
-6.0663 -5.6480 -1.9480 0.9665
-5.4397 -6.2777 -1.9523 0.9664
-4.5055 -7.0107 -1.9586 0.9663
-4.0009 -7.3271 -1.9620 0.9663
-3.7402 -7.4719 -1.9638 0.9662
-3.2035 -7.7340 -1.9674 0.9662
-2.6487 -7.9581 -1.9712 0.9661
-2.0783 -8.1428 -1.9751 0.9661
-1.7882 -8.2200 -1.9771 0.9660
-0.6026 -8.4251 -1.9851 0.9659
0.6051 -8.4600 -1.9934 0.9657
1.5106 -8.3727 -1.9995 0.9656
2.1083 -8.2604 -2.0036 0.9656
2.4042 -8.1881 -2.0056 0.9655
3.2754 -7.9075 -2.0116 0.9654
3.5590 -7.7931 -2.0135 0.9654
4.1136 -7.5335 -2.0173 0.9653
4.9085 -7.0696 -2.0227 0.9653
5.1621 -6.8957 -2.0245 0.9652
5.4094 -6.7127 -2.0261 0.9652
5.6502 -6.5206 -2.0278 0.9652
6.1104 -6.1104 -2.0309 0.9651
6.3293 -5.8928 -2.0324 0.9651
6.7429 -5.4338 -2.0353 0.9650
6.9371 -5.1931 -2.0366 0.9650
7.1225 -4.9452 -2.0379 0.9650
7.4657 -4.4296 -2.0402 0.9650
7.6231 -4.1625 -2.0413 0.9649
8.0355 -3.3284 -2.0441 0.9649
8.2587 -2.7488 -2.0457 0.9649
8.4389 -2.1539 -2.0469 0.9648
8.5125 -1.8518 -2.0474 0.9648
8.5750 -1.5471 -2.0479 0.9648
8.6263 -1.2403 -2.0482 0.9648
8.6662 -0.9317 -2.0485 0.9648
-7.4869 0.0000 -1.9385 0.9695
-7.4822 -0.2672 -1.9385 0.9695
-7.4682 -0.5341 -1.9386 0.9695
-7.4450 -0.8004 -1.9387 0.9695
-7.4125 -1.0658 -1.9390 0.9695
-7.3708 -1.3298 -1.9392 0.9695
-7.3199 -1.5923 -1.9396 0.9695
-7.1908 -2.1114 -1.9404 0.9695
-7.0259 -2.6205 -1.9415 0.9695
-6.9302 -2.8706 -1.9422 0.9695
-6.7128 -3.3602 -1.9437 0.9695
-6.3237 -4.0640 -1.9463 0.9694
-6.1778 -4.2893 -1.9473 0.9694
-5.5171 -5.1366 -1.9518 0.9693
-5.3337 -5.3336 -1.9530 0.9693
-5.1433 -5.5243 -1.9543 0.9693
-4.9462 -5.7082 -1.9556 0.9693
-4.7427 -5.8853 -1.9570 0.9693
-4.5329 -6.0552 -1.9584 0.9692
-4.3171 -6.2178 -1.9599 0.9692
-3.8685 -6.5201 -1.9629 0.9692
-3.6363 -6.6593 -1.9645 0.9691
-3.3991 -6.7904 -1.9661 0.9691
-2.6605 -7.1331 -1.9712 0.9690
-2.1486 -7.3176 -1.9746 0.9690
-1.8878 -7.3963 -1.9764 0.9690
-1.6241 -7.4657 -1.9782 0.9689
-1.3578 -7.5258 -1.9800 0.9689
-1.0893 -7.5764 -1.9819 0.9689
-0.8190 -7.6176 -1.9837 0.9688
-0.5471 -7.6491 -1.9855 0.9688
0.0000 -7.6830 -1.9893 0.9688
0.2745 -7.6853 -1.9911 0.9687
2.1807 -7.4269 -2.0041 0.9685
2.4466 -7.3510 -2.0059 0.9685
2.7099 -7.2654 -2.0077 0.9685
3.2269 -7.0660 -2.0113 0.9684
3.4801 -6.9523 -2.0130 0.9684
3.7291 -6.8294 -2.0147 0.9684
3.9738 -6.6975 -2.0164 0.9683
4.2137 -6.5567 -2.0180 0.9683
4.4486 -6.4072 -2.0196 0.9683
4.6781 -6.2492 -2.0212 0.9683
5.1196 -5.9084 -2.0242 0.9682
5.7338 -5.3383 -2.0284 0.9681
6.1077 -4.9219 -2.0310 0.9681
6.2832 -4.7035 -2.0322 0.9681
7.0363 -3.5221 -2.0373 0.9680
7.1605 -3.2701 -2.0382 0.9680
7.3811 -2.7530 -2.0397 0.9680
7.4770 -2.4886 -2.0404 0.9680
7.7062 -1.6764 -2.0419 0.9679
7.7626 -1.4005 -2.0423 0.9679
7.8089 -1.1228 -2.0427 0.9679
7.8450 -0.8434 -2.0429 0.9679
7.8708 -0.5629 -2.0431 0.9679
7.8863 -0.2817 -2.0432 0.9679
-6.8625 0.0000 -1.9427 0.9719
-6.8241 -0.7337 -1.9430 0.9719
-6.7942 -0.9769 -1.9432 0.9719
-6.6541 -1.6983 -1.9441 0.9719
-6.5190 -2.1697 -1.9450 0.9718
-6.3513 -2.6308 -1.9461 0.9718
-6.2554 -2.8567 -1.9468 0.9718
-5.6605 -3.9301 -1.9508 0.9718
-4.7112 -5.0602 -1.9572 0.9717
-3.5422 -5.9701 -1.9652 0.9716
-3.3293 -6.0972 -1.9666 0.9715
-2.8902 -6.3288 -1.9696 0.9715
-2.6646 -6.4329 -1.9712 0.9715
-2.2024 -6.6171 -1.9743 0.9714
-1.7275 -6.7684 -1.9775 0.9714
-1.4861 -6.8315 -1.9792 0.9714
-1.2424 -6.8859 -1.9808 0.9713
-0.2506 -7.0165 -1.9876 0.9712
0.0000 -7.0270 -1.9893 0.9712
1.5014 -6.9017 -1.9995 0.9711
1.9932 -6.7884 -2.0029 0.9710
2.4765 -6.6398 -2.0062 0.9710
2.7141 -6.5525 -2.0078 0.9709
2.9486 -6.4566 -2.0094 0.9709
3.4070 -6.2394 -2.0125 0.9709
3.6303 -6.1185 -2.0140 0.9709
3.8492 -5.9895 -2.0155 0.9708
4.0635 -5.8525 -2.0170 0.9708
4.2728 -5.7078 -2.0184 0.9708
4.6755 -5.3958 -2.0212 0.9708
4.8683 -5.2289 -2.0225 0.9707
5.2354 -4.8743 -2.0250 0.9707
5.7361 -4.2940 -2.0284 0.9707
5.8888 -4.0886 -2.0295 0.9706
6.5354 -2.9846 -2.0339 0.9706
6.8421 -2.0090 -2.0187 0.9708
6.9295 -1.7686 -2.0246 0.9707
7.0323 -1.5298 -2.0374 0.9705
7.0837 -1.2780 -2.0377 0.9705
7.1258 -1.0245 -2.0380 0.9705
7.1821 -0.5137 -2.0384 0.9705
7.1962 -0.2570 -2.0385 0.9705
-6.3122 -0.4515 -1.9465 0.9739
-6.2925 -0.6765 -1.9466 0.9739
-6.2650 -0.9008 -1.9468 0.9739
-6.2296 -1.1239 -1.9470 0.9739
-6.1355 -1.5660 -1.9476 0.9738
-6.0107 -2.0006 -1.9485 0.9738
-5.9370 -2.2144 -1.9490 0.9738
-5.8558 -2.4256 -1.9495 0.9738
-5.4585 -3.2387 -1.9522 0.9738
-5.3416 -3.4329 -1.9530 0.9738
-4.5029 -4.5029 -1.9587 0.9737
-4.3417 -4.6634 -1.9598 0.9737
-4.0027 -4.9671 -1.9621 0.9737
-3.8252 -5.1099 -1.9633 0.9736
-3.6427 -5.2464 -1.9645 0.9736
-2.6623 -5.8296 -1.9712 0.9735
-2.4543 -5.9251 -1.9726 0.9735
-2.2429 -6.0133 -1.9740 0.9735
-2.0283 -6.0941 -1.9755 0.9735
-1.8109 -6.1672 -1.9770 0.9735
-1.5908 -6.2326 -1.9785 0.9734
-1.3684 -6.2902 -1.9800 0.9734
-0.9175 -6.3817 -1.9831 0.9734
-0.6897 -6.4154 -1.9846 0.9734
-0.4607 -6.4410 -1.9862 0.9733
-0.0000 -6.4676 -1.9893 0.9733
0.4621 -6.4613 -1.9925 0.9733
0.9233 -6.4220 -1.9956 0.9732
1.6083 -6.3012 -2.0003 0.9732
1.8336 -6.2446 -2.0018 0.9731
2.0569 -6.1799 -2.0033 0.9731
2.2778 -6.1071 -2.0048 0.9731
2.7117 -5.9379 -2.0078 0.9731
2.9240 -5.8415 -2.0092 0.9730
3.1329 -5.7375 -2.0107 0.9730
3.3380 -5.6259 -2.0121 0.9730
3.5391 -5.5069 -2.0134 0.9730
3.7359 -5.3807 -2.0148 0.9730
4.1155 -5.1070 -2.0174 0.9729
4.6462 -4.6462 -2.0210 0.9729
4.9713 -4.3076 -2.0232 0.9728
5.1245 -4.1296 -2.0243 0.9728
5.2712 -3.9460 -2.0253 0.9728
5.4113 -3.7571 -2.0262 0.9728
5.6705 -3.3645 -2.0280 0.9728
5.7893 -3.1612 -2.0288 0.9728
6.0045 -2.7421 -2.0303 0.9728
6.1005 -2.5269 -2.0310 0.9727
6.1886 -2.3082 -2.0316 0.9727
6.4046 -1.6347 -2.0331 0.9727
6.4601 -1.4053 -2.0335 0.9727
6.5072 -1.1740 -2.0338 0.9727
6.5458 -0.9411 -2.0341 0.9727
6.6104 -0.2361 -2.0345 0.9727
-5.8612 -0.2093 -1.9495 0.9756
-5.8502 -0.4184 -1.9496 0.9756
-5.7735 -1.0416 -1.9501 0.9756
-5.7334 -1.2472 -1.9504 0.9756
-5.6862 -1.4513 -1.9507 0.9756
-5.6318 -1.6536 -1.9511 0.9756
-5.5019 -2.0521 -1.9519 0.9756
-5.3444 -2.4407 -1.9530 0.9755
-5.2555 -2.6307 -1.9536 0.9755
-4.7138 -3.5287 -1.9573 0.9755
-4.4540 -3.8594 -1.9590 0.9755
-4.3155 -4.0179 -1.9600 0.9755
-3.8673 -4.4631 -1.9630 0.9754
-3.3738 -4.8592 -1.9664 0.9754
-2.6545 -5.3030 -1.9713 0.9753
-2.4651 -5.3979 -1.9725 0.9753
-2.0765 -5.5674 -1.9752 0.9753
-1.6764 -5.7092 -1.9779 0.9752
-1.4726 -5.7695 -1.9793 0.9752
-1.2666 -5.8225 -1.9807 0.9752
-0.6383 -5.9373 -1.9850 0.9751
0.2138 -5.9852 -1.9908 0.9751
0.4275 -5.9781 -1.9922 0.9751
0.6411 -5.9634 -1.9937 0.9750
0.8542 -5.9410 -1.9951 0.9750
1.0665 -5.9110 -1.9966 0.9750
1.4876 -5.8283 -1.9995 0.9750
1.6958 -5.7756 -2.0009 0.9749
1.9023 -5.7154 -2.0023 0.9749
2.1065 -5.6477 -2.0037 0.9749
2.5075 -5.4906 -2.0064 0.9749
3.0861 -5.2013 -2.0104 0.9748
3.2718 -5.0910 -2.0116 0.9748
3.6311 -4.8506 -2.0141 0.9748
3.8041 -4.7206 -2.0153 0.9748
4.2941 -4.2941 -2.0186 0.9747
4.7356 -3.8162 -2.0216 0.9747
5.0002 -3.4717 -2.0235 0.9747
5.1231 -3.2924 -2.0243 0.9747
5.2394 -3.1087 -2.0251 0.9746
5.4517 -2.7289 -2.0265 0.9746
5.5475 -2.5334 -2.0272 0.9746
5.7913 -1.9275 -2.0289 0.9746
5.8577 -1.7200 -2.0293 0.9746
5.9677 -1.2982 -2.0301 0.9746
6.0112 -1.0845 -2.0304 0.9746
6.0745 -0.6531 -2.0309 0.9746
6.0944 -0.4359 -2.0310 0.9746
6.1064 -0.2181 -2.0311 0.9746
-5.4593 0.0000 -1.9523 0.9771
-5.4559 -0.1949 -1.9523 0.9771
-5.4456 -0.3895 -1.9524 0.9771
-5.4047 -0.7771 -1.9526 0.9771
-5.3741 -0.9696 -1.9528 0.9771
-5.3368 -1.1609 -1.9531 0.9771
-5.2927 -1.3509 -1.9534 0.9771
-5.2420 -1.5392 -1.9537 0.9771
-4.8023 -2.6223 -1.9567 0.9770
-4.4992 -3.1239 -1.9587 0.9770
-4.3866 -3.2837 -1.9595 0.9770
-4.1446 -3.5913 -1.9611 0.9770
-3.7422 -4.0194 -1.9639 0.9769
-3.5981 -4.1524 -1.9649 0.9769
-3.2961 -4.4031 -1.9669 0.9769
-2.9769 -4.6321 -1.9691 0.9769
-2.8113 -4.7381 -1.9702 0.9769
-2.6419 -4.8383 -1.9714 0.9769
-2.1134 -5.1023 -1.9749 0.9768
-1.9312 -5.1777 -1.9762 0.9768
-1.1777 -5.4138 -1.9813 0.9767
-0.9844 -5.4561 -1.9826 0.9767
-0.7895 -5.4914 -1.9840 0.9767
-0.5934 -5.5198 -1.9853 0.9767
-0.3963 -5.5412 -1.9866 0.9767
-0.1984 -5.5556 -1.9880 0.9767
0.1987 -5.5631 -1.9907 0.9766
0.7938 -5.5212 -1.9947 0.9766
0.9911 -5.4931 -1.9961 0.9766
1.1873 -5.4579 -1.9974 0.9766
1.3823 -5.4156 -1.9987 0.9765
1.5757 -5.3664 -2.0001 0.9765
1.9571 -5.2471 -2.0027 0.9765
2.1445 -5.1772 -2.0039 0.9765
2.3294 -5.1006 -2.0052 0.9765
2.5115 -5.0173 -2.0065 0.9764
2.6906 -4.9275 -2.0077 0.9764
3.0389 -4.7285 -2.0101 0.9764
3.3723 -4.5048 -2.0123 0.9764
3.5328 -4.3840 -2.0134 0.9764
3.6890 -4.2573 -2.0145 0.9764
3.8406 -4.1251 -2.0155 0.9763
3.9874 -3.9874 -2.0165 0.9763
4.1291 -3.8443 -2.0175 0.9763
4.5224 -3.3854 -2.0202 0.9763
4.6423 -3.2232 -2.0210 0.9763
4.8640 -2.8860 -2.0225 0.9763
4.9657 -2.7114 -2.0232 0.9763
5.1496 -2.3517 -2.0245 0.9762
5.2318 -2.1671 -2.0251 0.9762
5.3071 -1.9795 -2.0256 0.9762
5.4372 -1.5965 -2.0265 0.9762
5.4918 -1.4017 -2.0269 0.9762
5.6125 -0.8070 -2.0277 0.9762
5.6382 -0.6062 -2.0279 0.9762
5.6677 -0.2024 -2.0281 0.9762
-5.0976 -0.1821 -1.9548 0.9784
-5.0211 -0.9059 -1.9553 0.9784
-4.9862 -1.0847 -1.9555 0.9784
-4.9450 -1.2621 -1.9558 0.9784
-4.8976 -1.4381 -1.9561 0.9784
-4.8440 -1.6122 -1.9564 0.9784
-4.5696 -2.2874 -1.9583 0.9783
-4.4863 -2.4497 -1.9589 0.9783
-4.3974 -2.6091 -1.9595 0.9783
-4.0975 -3.0674 -1.9615 0.9783
-3.9870 -3.2129 -1.9622 0.9783
-3.8713 -3.3545 -1.9630 0.9783
-3.6252 -3.6252 -1.9647 0.9783
-3.4951 -3.7540 -1.9656 0.9783
-3.2214 -3.9975 -1.9674 0.9782
-3.0782 -4.1120 -1.9684 0.9782
-2.9310 -4.2214 -1.9694 0.9782
-2.7799 -4.3255 -1.9704 0.9782
-2.6251 -4.4244 -1.9715 0.9782
-2.4669 -4.5177 -1.9726 0.9782
-1.9732 -4.7636 -1.9759 0.9782
-1.8029 -4.8338 -1.9771 0.9781
-1.4552 -4.9561 -1.9794 0.9781
-0.7369 -5.1253 -1.9843 0.9781
-0.5539 -5.1516 -1.9856 0.9780
-0.3699 -5.1714 -1.9868 0.9780
0.0000 -5.1911 -1.9893 0.9780
0.1854 -5.1911 -1.9906 0.9780
0.3708 -5.1845 -1.9919 0.9780
0.5560 -5.1712 -1.9931 0.9780
0.7407 -5.1513 -1.9944 0.9780
1.2895 -5.0521 -1.9981 0.9779
1.4699 -5.0059 -1.9994 0.9779
1.8255 -4.8943 -2.0018 0.9779
2.0002 -4.8289 -2.0030 0.9779
2.1725 -4.7572 -2.0042 0.9778
2.5092 -4.5953 -2.0065 0.9778
2.6732 -4.5054 -2.0076 0.9778
2.9910 -4.3078 -2.0097 0.9778
3.4396 -3.9695 -2.0128 0.9778
3.8495 -3.5840 -2.0156 0.9777
3.9767 -3.4458 -2.0165 0.9777
4.0989 -3.3031 -2.0173 0.9777
4.2158 -3.1559 -2.0181 0.9777
4.6285 -2.5274 -2.0209 0.9777
4.7998 -2.1920 -2.0221 0.9777
4.8763 -2.0198 -2.0226 0.9776
5.0102 -1.6676 -2.0236 0.9776
5.1999 -0.9382 -2.0249 0.9776
5.2546 -0.5649 -2.0253 0.9776
5.2820 -0.1886 -2.0255 0.9776
-4.7784 -0.1707 -1.9569 0.9795
-4.7694 -0.3411 -1.9570 0.9795
-4.7544 -0.5111 -1.9571 0.9795
-4.7335 -0.6806 -1.9572 0.9795
-4.7066 -0.8492 -1.9574 0.9795
-4.6738 -1.0167 -1.9576 0.9795
-4.5907 -1.3479 -1.9582 0.9795
-4.5404 -1.5112 -1.9585 0.9795
-4.3557 -1.9892 -1.9598 0.9795
-4.2830 -2.1439 -1.9602 0.9795
-4.0327 -2.5917 -1.9619 0.9795
-3.9389 -2.7348 -1.9626 0.9795
-3.8401 -2.8747 -1.9632 0.9795
-3.7364 -3.0110 -1.9639 0.9795
-3.6279 -3.1436 -1.9647 0.9795
-3.5148 -3.2724 -1.9654 0.9795
-3.1488 -3.6339 -1.9679 0.9794
-2.7461 -3.9552 -1.9707 0.9794
-2.6045 -4.0526 -1.9716 0.9794
-2.1597 -4.3144 -1.9747 0.9794
-2.0053 -4.3911 -1.9757 0.9794
-1.6888 -4.5279 -1.9779 0.9793
-1.3630 -4.6420 -1.9801 0.9793
-1.1972 -4.6904 -1.9812 0.9793
-0.8605 -4.7694 -1.9835 0.9793
-0.3463 -4.8425 -1.9870 0.9792
-0.0000 -4.8607 -1.9893 0.9792
0.1736 -4.8605 -1.9905 0.9792
0.3472 -4.8540 -1.9917 0.9792
0.8656 -4.7976 -1.9952 0.9792
1.2071 -4.7292 -1.9976 0.9791
1.5431 -4.6363 -1.9999 0.9791
1.8720 -4.5195 -2.0021 0.9791
2.3482 -4.3004 -2.0054 0.9790
2.5015 -4.2161 -2.0064 0.9790
2.6518 -4.1262 -2.0074 0.9790
3.0821 -3.8247 -2.0104 0.9790
3.3502 -3.5984 -2.0122 0.9790
3.4780 -3.4780 -2.0131 0.9790
3.7203 -3.2237 -2.0147 0.9789
3.8345 -3.0900 -2.0155 0.9789
3.9438 -2.9523 -2.0163 0.9789
4.0481 -2.8107 -2.0170 0.9789
4.5610 -1.8892 -2.0205 0.9789
4.7397 -1.3917 -2.0217 0.9789
4.7871 -1.2218 -2.0221 0.9789
4.9304 -0.3526 -2.0231 0.9789
-1.4571 -0.0520 -0.6354 0.9937
-1.4490 -0.1036 -0.6331 0.9937
-1.4359 -0.1544 -0.6294 0.9937
-1.3955 -0.2518 -0.6180 0.9938
-1.3400 -0.3420 -0.6027 0.9940
-1.4401 -0.4793 -0.6615 0.9934
-1.5118 -0.5639 -0.7032 0.9930
-4.0941 -1.8697 -1.9615 0.9806
-3.9522 -2.1581 -1.9625 0.9805
-3.8737 -2.2984 -1.9630 0.9805
-3.7021 -2.5704 -1.9642 0.9805
-3.5116 -2.8298 -1.9655 0.9805
-3.4095 -2.9544 -1.9662 0.9805
-3.0777 -3.3057 -1.9684 0.9805
-2.8364 -3.5198 -1.9701 0.9805
-2.7102 -3.6203 -1.9709 0.9805
-2.1714 -3.9765 -1.9746 0.9804
-1.7364 -4.1921 -1.9775 0.9804
-1.2804 -4.3606 -1.9806 0.9804
-0.8082 -4.4797 -1.9839 0.9803
-0.6482 -4.5082 -1.9849 0.9803
-0.3253 -4.5479 -1.9871 0.9803
0.1630 -4.5643 -1.9905 0.9803
0.4887 -4.5461 -1.9927 0.9802
0.8127 -4.5046 -1.9949 0.9802
0.9735 -4.4752 -1.9960 0.9802
1.2917 -4.3992 -1.9982 0.9802
1.6040 -4.3004 -2.0003 0.9802
1.7573 -4.2426 -2.0013 0.9802
2.0576 -4.1106 -2.0034 0.9801
2.4889 -3.8728 -2.0063 0.9801
2.7614 -3.6888 -2.0082 0.9801
3.0202 -3.4855 -2.0100 0.9801
3.1440 -3.3769 -2.0108 0.9801
3.5981 -2.8995 -2.0139 0.9800
3.7984 -2.6373 -2.0153 0.9800
4.0622 -2.2181 -2.0171 0.9800
4.2122 -1.9237 -2.0181 0.9800
4.2792 -1.7725 -2.0186 0.9800
4.3965 -1.4633 -2.0194 0.9800
4.4467 -1.3056 -2.0197 0.9800
4.4911 -1.1463 -2.0200 0.9800
4.5895 -0.6598 -2.0207 0.9800
4.6104 -0.4957 -2.0209 0.9800
4.6254 -0.3308 -2.0210 0.9800
-1.2261 -0.1318 -0.5708 0.9946
-1.2125 -0.1743 -0.5670 0.9946
-1.1790 -0.2565 -0.5585 0.9947
-1.1575 -0.2954 -0.5529 0.9947
-1.2017 -0.4482 -0.5937 0.9944
-1.2345 -0.5114 -0.6185 0.9941
-3.7934 -1.8988 -1.9636 0.9815
-3.7241 -2.0335 -1.9641 0.9815
-3.4005 -2.5456 -1.9662 0.9815
-3.2124 -2.7835 -1.9675 0.9814
-2.8995 -3.1143 -1.9696 0.9814
-2.7876 -3.2171 -1.9704 0.9814
-2.6721 -3.3158 -1.9712 0.9814
-2.5531 -3.4105 -1.9720 0.9814
-2.1767 -3.6686 -1.9746 0.9814
-2.0453 -3.7457 -1.9754 0.9814
-1.4942 -4.0062 -1.9792 0.9813
-1.2058 -4.1066 -1.9812 0.9813
-1.0590 -4.1492 -1.9822 0.9813
-0.9107 -4.1864 -1.9832 0.9813
-0.7611 -4.2184 -1.9842 0.9813
-0.6104 -4.2451 -1.9852 0.9813
-0.4587 -4.2664 -1.9862 0.9813
-0.3063 -4.2823 -1.9873 0.9813
0.0000 -4.2978 -1.9894 0.9812
0.1535 -4.2973 -1.9904 0.9812
0.7651 -4.2406 -1.9946 0.9812
0.9164 -4.2127 -1.9956 0.9812
1.2159 -4.1408 -1.9977 0.9812
1.3636 -4.0969 -1.9987 0.9811
1.5097 -4.0476 -1.9997 0.9811
1.6540 -3.9931 -2.0006 0.9811
2.2096 -3.7241 -2.0044 0.9811
2.3422 -3.6445 -2.0053 0.9811
2.4719 -3.5602 -2.0062 0.9811
2.5985 -3.4712 -2.0071 0.9811
2.9583 -3.1774 -2.0095 0.9810
3.0710 -3.0710 -2.0103 0.9810
3.1798 -2.9605 -2.0111 0.9810
3.2846 -2.8461 -2.0118 0.9810
3.3853 -2.7280 -2.0125 0.9810
3.4816 -2.6063 -2.0131 0.9810
3.6609 -2.3527 -2.0144 0.9810
3.7436 -2.2212 -2.0149 0.9810
3.9626 -1.8096 -2.0164 0.9810
4.0832 -1.5230 -2.0173 0.9810
4.1829 -1.2282 -2.0179 0.9810
4.3171 -0.6207 -2.0189 0.9810
4.3368 -0.4663 -2.0190 0.9810
4.3594 -0.1557 -2.0192 0.9810
-1.0817 -0.0000 -0.5306 0.9952
-1.0769 -0.0770 -0.5296 0.9952
-1.0611 -0.1526 -0.5258 0.9952
-1.0518 -0.1898 -0.5242 0.9952
-1.0307 -0.2631 -0.5218 0.9953
-1.0119 -0.3774 -0.5298 0.9952
-1.0290 -0.4262 -0.5463 0.9951
-1.0444 -0.4769 -0.5632 0.9949
-3.5168 -1.9203 -1.9655 0.9823
-3.3725 -2.1674 -1.9664 0.9823
-3.2939 -2.2870 -1.9670 0.9823
-3.2111 -2.4038 -1.9675 0.9823
-3.1242 -2.5176 -1.9681 0.9823
-3.0333 -2.6283 -1.9687 0.9823
-2.9385 -2.7358 -1.9694 0.9823
-2.8399 -2.8399 -1.9701 0.9823
-2.6320 -3.0374 -1.9715 0.9823
-2.0549 -3.4634 -1.9754 0.9822
-1.8042 -3.6043 -1.9771 0.9822
-1.6751 -3.6680 -1.9780 0.9822
-1.5438 -3.7271 -1.9789 0.9822
-1.2752 -3.8313 -1.9807 0.9822
-1.1381 -3.8762 -1.9816 0.9822
-0.8596 -3.9513 -1.9835 0.9821
-0.4329 -4.0264 -1.9864 0.9821
-0.1447 -4.0510 -1.9884 0.9821
-0.0000 -4.0556 -1.9894 0.9821
0.1448 -4.0550 -1.9904 0.9821
0.2896 -4.0493 -1.9913 0.9821
0.4342 -4.0384 -1.9923 0.9821
0.8646 -3.9747 -1.9953 0.9820
1.1471 -3.9066 -1.9972 0.9820
1.2864 -3.8650 -1.9981 0.9820
1.5603 -3.7669 -2.0000 0.9820
2.0842 -3.5128 -2.0036 0.9820
2.3315 -3.3580 -2.0053 0.9820
2.4509 -3.2740 -2.0061 0.9819
2.6803 -3.0932 -2.0077 0.9819
2.8962 -2.8962 -2.0091 0.9819
2.9988 -2.7920 -2.0098 0.9819
3.1925 -2.5726 -2.0112 0.9819
3.2833 -2.4578 -2.0118 0.9819
3.3699 -2.3397 -2.0124 0.9819
3.4522 -2.2186 -2.0129 0.9819
3.5301 -2.0945 -2.0135 0.9819
3.6036 -1.9677 -2.0140 0.9819
3.7957 -1.5722 -2.0153 0.9819
3.8501 -1.4360 -2.0157 0.9819
3.9834 -1.0167 -2.0166 0.9819
4.0176 -0.8740 -2.0168 0.9818
-0.9895 0.0000 -0.5133 0.9956
-0.9893 -0.0353 -0.5135 0.9955
-0.9838 -0.1058 -0.5133 0.9956
-0.9785 -0.1407 -0.5129 0.9956
-0.9628 -0.2094 -0.5112 0.9956
-0.9404 -0.2761 -0.5085 0.9956
-0.9208 -0.3434 -0.5098 0.9956
-0.9271 -0.3840 -0.5206 0.9955
-0.9486 -0.5180 -0.5607 0.9951
-3.2612 -1.9350 -1.9672 0.9831
-3.0380 -2.2742 -1.9687 0.9830
-2.8697 -2.4866 -1.9699 0.9830
-2.6867 -2.6867 -1.9711 0.9830
-2.4898 -2.8734 -1.9724 0.9830
-2.2802 -3.0459 -1.9739 0.9830
-2.1708 -3.1265 -1.9746 0.9830
-1.8263 -3.3446 -1.9769 0.9830
-1.4602 -3.5251 -1.9794 0.9830
-1.3340 -3.5766 -1.9803 0.9829
-1.2060 -3.6235 -1.9812 0.9829
-1.0764 -3.6658 -1.9820 0.9829
-0.8129 -3.7367 -1.9838 0.9829
-0.6793 -3.7650 -1.9848 0.9829
-0.5447 -3.7886 -1.9857 0.9829
-0.4093 -3.8074 -1.9866 0.9829
-0.2733 -3.8214 -1.9875 0.9829
0.2738 -3.8286 -1.9912 0.9829
0.5467 -3.8028 -1.9931 0.9828
0.8174 -3.7576 -1.9949 0.9828
0.9514 -3.7277 -1.9959 0.9828
1.2160 -3.6537 -1.9977 0.9828
1.3463 -3.6095 -1.9986 0.9828
1.4749 -3.5607 -1.9994 0.9828
1.6017 -3.5073 -2.0003 0.9828
1.8494 -3.3870 -2.0020 0.9828
1.9700 -3.3202 -2.0028 0.9828
2.0880 -3.2491 -2.0036 0.9827
2.2036 -3.1737 -2.0044 0.9827
2.3163 -3.0942 -2.0052 0.9827
2.4262 -3.0107 -2.0059 0.9827
2.5330 -2.9233 -2.0067 0.9827
2.6367 -2.8320 -2.0074 0.9827
2.7370 -2.7370 -2.0081 0.9827
2.9272 -2.5364 -2.0094 0.9827
3.0168 -2.4311 -2.0100 0.9827
3.1025 -2.3225 -2.0106 0.9827
3.1843 -2.2109 -2.0111 0.9827
3.2621 -2.0964 -2.0116 0.9827
3.3357 -1.9791 -2.0122 0.9827
3.4700 -1.7369 -2.0131 0.9827
3.5305 -1.6123 -2.0135 0.9827
3.7265 -1.0942 -2.0148 0.9827
3.7636 -0.9606 -2.0151 0.9826
3.8234 -0.6898 -2.0155 0.9826
3.8459 -0.5529 -2.0157 0.9826
-0.9182 -0.0000 -0.5029 0.9958
-0.9179 -0.0328 -0.5031 0.9958
-0.9127 -0.0981 -0.5028 0.9958
-0.8932 -0.1943 -0.5006 0.9958
-0.8479 -0.3512 -0.5027 0.9958
-0.8506 -0.3885 -0.5122 0.9957
-0.8507 -0.4645 -0.5309 0.9956
-3.0241 -1.9434 -1.9688 0.9837
-2.8791 -2.1553 -1.9698 0.9837
-2.8011 -2.2573 -1.9703 0.9837
-2.5460 -2.5460 -1.9721 0.9837
-2.3594 -2.7229 -1.9733 0.9837
-1.6169 -3.2301 -1.9784 0.9837
-1.5011 -3.2870 -1.9792 0.9837
-1.3834 -3.3399 -1.9800 0.9836
-1.0198 -3.4729 -1.9824 0.9836
-0.6435 -3.5666 -1.9850 0.9836
-0.5160 -3.5889 -1.9859 0.9836
-0.2589 -3.6198 -1.9876 0.9836
0.1297 -3.6315 -1.9903 0.9836
0.3888 -3.6162 -1.9920 0.9835
0.5178 -3.6016 -1.9929 0.9835
0.6463 -3.5824 -1.9938 0.9835
0.7741 -3.5586 -1.9947 0.9835
0.9011 -3.5303 -1.9955 0.9835
1.1516 -3.4600 -1.9972 0.9835
1.8653 -3.1437 -2.0021 0.9835
1.9770 -3.0763 -2.0029 0.9835
2.1931 -2.9296 -2.0043 0.9834
2.2971 -2.8505 -2.0051 0.9834
2.3982 -2.7676 -2.0057 0.9834
2.6829 -2.4978 -2.0077 0.9834
2.9371 -2.1986 -2.0094 0.9834
3.0144 -2.0930 -2.0100 0.9834
3.0880 -1.9845 -2.0105 0.9834
3.3949 -1.4062 -2.0126 0.9834
3.4435 -1.2843 -2.0129 0.9834
3.4876 -1.1608 -2.0132 0.9834
3.5273 -1.0357 -2.0135 0.9834
3.5625 -0.9093 -2.0137 0.9834
3.5930 -0.7816 -2.0139 0.9834
3.6190 -0.6529 -2.0141 0.9834
3.6402 -0.5234 -2.0143 0.9834
3.6568 -0.3931 -2.0144 0.9834
3.6758 -0.1313 -2.0145 0.9834
-0.8547 -0.0305 -0.4938 0.9961
-0.8530 -0.0610 -0.4938 0.9961
-0.8453 -0.1215 -0.4930 0.9961
-0.8014 -0.2667 -0.4876 0.9961
-0.7809 -0.3566 -0.4957 0.9960
-0.7806 -0.3908 -0.5040 0.9960
-0.7787 -0.4252 -0.5122 0.9959
-2.7327 -2.0457 -1.9708 0.9844
-2.6586 -2.1424 -1.9713 0.9844
-2.5811 -2.2366 -1.9718 0.9843
-2.5004 -2.3279 -1.9724 0.9843
-2.4164 -2.4164 -1.9730 0.9843
-2.1462 -2.6633 -1.9748 0.9843
-1.8511 -2.8804 -1.9768 0.9843
-1.7477 -2.9456 -1.9775 0.9843
-1.5343 -3.0651 -1.9789 0.9843
-1.4244 -3.1191 -1.9797 0.9843
-0.2456 -3.4341 -1.9877 0.9842
-0.1229 -3.4421 -1.9886 0.9842
0.1230 -3.4450 -1.9902 0.9842
0.3688 -3.4303 -1.9919 0.9842
0.4912 -3.4164 -1.9927 0.9842
0.7343 -3.3754 -1.9944 0.9842
1.2091 -3.2418 -1.9976 0.9841
1.3246 -3.1979 -1.9984 0.9841
1.8749 -2.9173 -2.0022 0.9841
1.9785 -2.8496 -2.0029 0.9841
2.4570 -2.4570 -2.0062 0.9841
2.7848 -2.0847 -2.0084 0.9841
2.9279 -1.8816 -2.0094 0.9841
2.9938 -1.7763 -2.0098 0.9840
3.0560 -1.6687 -2.0103 0.9840
3.1684 -1.4470 -2.0110 0.9840
3.2186 -1.3332 -2.0114 0.9840
3.3065 -1.1005 -2.0120 0.9840
3.3441 -0.9819 -2.0122 0.9840
3.4064 -0.7410 -2.0127 0.9840
3.4309 -0.6190 -2.0128 0.9840
3.4511 -0.4962 -2.0130 0.9840
3.4780 -0.2487 -2.0132 0.9840
3.4848 -0.1245 -2.0132 0.9840
