ply
format ascii 1.0
element vertex 726
property float32 x
property float32 y
property float32 z
property float32 I
end_header
-9.3943 -1.3507 -2.0062 0.9619
-9.2732 -2.0173 -2.0060 0.9619
-9.1948 -2.3468 -2.0059 0.9619
-8.7648 -3.6305 -2.0053 0.9620
-8.4818 -4.2457 -2.0050 0.9620
-8.3240 -4.5452 -2.0048 0.9620
-8.1556 -4.8389 -2.0045 0.9620
-7.5887 -5.6808 -2.0038 0.9620
-6.9349 -6.4566 -2.0029 0.9620
-6.6990 -6.6990 -2.0026 0.9620
-6.4545 -6.9327 -2.0022 0.9620
-6.2019 -7.1574 -2.0019 0.9620
-5.9415 -7.3729 -2.0015 0.9620
-5.6735 -7.5789 -2.0012 0.9620
-5.3984 -7.7751 -2.0008 0.9620
-5.1165 -7.9613 -2.0004 0.9620
-4.8281 -8.1373 -2.0000 0.9621
-3.9282 -8.6016 -1.9988 0.9621
-3.3032 -8.8562 -1.9980 0.9621
-2.9843 -8.9665 -1.9976 0.9621
-2.0074 -9.2280 -1.9962 0.9621
-1.6764 -9.2917 -1.9958 0.9621
-1.0088 -9.3834 -1.9949 0.9622
-0.6731 -9.4113 -1.9944 0.9622
-0.3367 -9.4271 -1.9940 0.9622
0.0000 -9.4310 -1.9935 0.9622
0.3365 -9.4228 -1.9931 0.9622
0.6725 -9.4027 -1.9926 0.9622
1.3410 -9.3265 -1.9917 0.9622
2.0020 -9.2029 -1.9908 0.9622
2.3287 -9.1236 -1.9904 0.9622
3.6003 -8.6918 -1.9886 0.9623
3.9074 -8.5560 -1.9882 0.9623
4.5060 -8.2520 -1.9874 0.9623
5.6302 -7.5210 -1.9859 0.9623
5.8939 -7.3139 -1.9855 0.9623
6.3985 -6.8725 -1.9849 0.9623
6.6386 -6.6386 -1.9845 0.9623
6.8702 -6.3964 -1.9842 0.9623
7.0931 -6.1462 -1.9839 0.9624
7.3069 -5.8882 -1.9836 0.9624
7.5113 -5.6229 -1.9833 0.9624
7.8913 -5.0714 -1.9828 0.9624
8.0663 -4.7859 -1.9826 0.9624
8.2310 -4.4945 -1.9824 0.9624
8.5289 -3.8950 -1.9819 0.9624
8.6617 -3.5878 -1.9818 0.9624
8.8942 -2.9603 -1.9814 0.9624
9.1580 -1.9922 -1.9811 0.9624
9.2228 -1.6640 -1.9810 0.9624
9.2760 -1.3337 -1.9809 0.9624
9.3174 -1.0017 -1.9809 0.9624
9.3648 -0.3345 -1.9808 0.9624
-8.5311 0.0000 -2.0050 0.9656
-8.4820 -0.9119 -2.0049 0.9656
-8.4438 -1.2140 -2.0049 0.9656
-8.1837 -2.4029 -2.0045 0.9656
-8.0922 -2.6933 -2.0044 0.9656
-7.6241 -3.8164 -2.0038 0.9656
-7.4824 -4.0857 -2.0036 0.9656
-7.3310 -4.3497 -2.0034 0.9656
-7.1703 -4.6081 -2.0032 0.9656
-6.4384 -5.5789 -2.0022 0.9656
-6.0223 -6.0223 -2.0016 0.9656
-5.5756 -6.4346 -2.0010 0.9656
-5.3416 -6.6285 -2.0007 0.9656
-4.6001 -7.1579 -1.9997 0.9656
-4.0763 -7.4652 -1.9990 0.9657
-1.2081 -8.4028 -1.9952 0.9657
0.0000 -8.4822 -1.9935 0.9657
0.3027 -8.4751 -1.9931 0.9658
0.6049 -8.4571 -1.9927 0.9658
1.2062 -8.3890 -1.9919 0.9658
1.5045 -8.3389 -1.9915 0.9658
1.8008 -8.2782 -1.9911 0.9658
2.0947 -8.2070 -1.9907 0.9658
2.3858 -8.1254 -1.9903 0.9658
2.6738 -8.0335 -1.9899 0.9658
3.2389 -7.8193 -1.9891 0.9658
3.5152 -7.6973 -1.9888 0.9658
3.7870 -7.5655 -1.9884 0.9658
4.3155 -7.2734 -1.9877 0.9658
5.0657 -6.7670 -1.9867 0.9659
5.3031 -6.5808 -1.9863 0.9659
5.7573 -6.1838 -1.9857 0.9659
6.3826 -5.5305 -1.9849 0.9659
6.5751 -5.2985 -1.9846 0.9659
7.1012 -4.5637 -1.9839 0.9659
7.4071 -4.0446 -1.9835 0.9659
7.9046 -2.9483 -1.9828 0.9659
8.1730 -2.0860 -1.9824 0.9659
8.3481 -1.2003 -1.9822 0.9659
8.4121 -0.6017 -1.9821 0.9659
8.4281 -0.3010 -1.9821 0.9659
-7.7347 -0.2762 -2.0039 0.9685
-7.7198 -0.5521 -2.0039 0.9685
-7.6951 -0.8273 -2.0039 0.9685
-7.6605 -1.1014 -2.0038 0.9685
-7.6161 -1.3741 -2.0038 0.9685
-7.5619 -1.6450 -2.0037 0.9685
-7.3417 -2.4435 -2.0034 0.9685
-6.9172 -3.4625 -2.0028 0.9685
-6.7886 -3.7069 -2.0027 0.9685
-6.6514 -3.9464 -2.0025 0.9685
-6.0195 -4.8508 -2.0016 0.9686
-4.8470 -6.0147 -2.0001 0.9686
-4.1744 -6.4955 -1.9992 0.9686
-3.9393 -6.6393 -1.9988 0.9686
-3.6992 -6.7746 -1.9985 0.9686
-3.4545 -6.9011 -1.9982 0.9686
-2.1724 -7.3984 -1.9964 0.9686
-1.9066 -7.4699 -1.9961 0.9686
-1.0966 -7.6267 -1.9950 0.9687
-0.0000 -7.6994 -1.9935 0.9687
0.2748 -7.6930 -1.9931 0.9687
0.5491 -7.6769 -1.9928 0.9687
1.6348 -7.5151 -1.9913 0.9687
1.9017 -7.4506 -1.9909 0.9687
3.1915 -6.9884 -1.9892 0.9688
3.9183 -6.6040 -1.9882 0.9688
4.1509 -6.4589 -1.9879 0.9688
4.3781 -6.3056 -1.9876 0.9688
4.5996 -6.1444 -1.9873 0.9688
4.8153 -5.9754 -1.9870 0.9688
5.0248 -5.7989 -1.9867 0.9688
5.9707 -4.8115 -1.9854 0.9688
6.2974 -4.3723 -1.9850 0.9688
6.4487 -4.1443 -1.9848 0.9688
6.9704 -3.1833 -1.9841 0.9688
7.1787 -2.6775 -1.9838 0.9688
7.3505 -2.1583 -1.9835 0.9688
7.4225 -1.8945 -1.9834 0.9688
7.5381 -1.3600 -1.9833 0.9688
7.5817 -1.0901 -1.9832 0.9688
7.6155 -0.8187 -1.9832 0.9688
-7.0755 0.0000 -2.0030 0.9710
-7.0710 -0.2525 -2.0030 0.9710
-7.0574 -0.5047 -2.0030 0.9710
-7.0348 -0.7563 -2.0030 0.9710
-6.9131 -1.5038 -2.0028 0.9710
-6.8548 -1.7496 -2.0027 0.9710
-6.7119 -2.2339 -2.0026 0.9710
-6.6275 -2.4719 -2.0024 0.9710
-6.5346 -2.7067 -2.0023 0.9710
-6.3240 -3.1655 -2.0020 0.9710
-6.2065 -3.3890 -2.0019 0.9710
-6.0810 -3.6080 -2.0017 0.9710
-5.9479 -3.8225 -2.0015 0.9710
-5.8071 -4.0319 -2.0013 0.9710
-5.5035 -4.4350 -2.0009 0.9710
-5.3412 -4.6281 -2.0007 0.9710
-5.1720 -4.8153 -2.0005 0.9711
-4.8141 -5.1707 -2.0000 0.9711
-4.6259 -5.3386 -1.9998 0.9711
-4.4318 -5.4996 -1.9995 0.9711
-4.2321 -5.6535 -1.9992 0.9711
-4.0271 -5.8001 -1.9989 0.9711
-3.8170 -5.9393 -1.9987 0.9711
-3.3826 -6.1947 -1.9981 0.9711
-2.4650 -6.6089 -1.9968 0.9711
-2.2272 -6.6916 -1.9965 0.9711
-1.7436 -6.8312 -1.9959 0.9711
-1.0029 -6.9749 -1.9949 0.9711
-0.5025 -7.0263 -1.9942 0.9711
0.0000 -7.0419 -1.9935 0.9711
0.2513 -7.0362 -1.9932 0.9712
0.5022 -7.0215 -1.9928 0.9712
0.7524 -6.9979 -1.9925 0.9712
1.0015 -6.9655 -1.9922 0.9712
1.2493 -6.9241 -1.9918 0.9712
1.4953 -6.8740 -1.9915 0.9712
1.7395 -6.8151 -1.9912 0.9712
1.9813 -6.7475 -1.9908 0.9712
3.3671 -6.1664 -1.9889 0.9712
3.7973 -5.9087 -1.9884 0.9712
4.0052 -5.7686 -1.9881 0.9712
4.4053 -5.4667 -1.9875 0.9712
4.5970 -5.3053 -1.9873 0.9712
4.7829 -5.1371 -1.9870 0.9712
4.9626 -4.9626 -1.9868 0.9712
5.7617 -4.0004 -1.9857 0.9713
6.0313 -3.5785 -1.9853 0.9713
6.1546 -3.3607 -1.9852 0.9713
6.2702 -3.1386 -1.9850 0.9713
6.3777 -2.9126 -1.9849 0.9713
6.4772 -2.6829 -1.9847 0.9713
6.5684 -2.4499 -1.9846 0.9713
6.6512 -2.2137 -1.9845 0.9713
6.7257 -1.9748 -1.9844 0.9713
6.7916 -1.7335 -1.9843 0.9713
6.8974 -1.2444 -1.9841 0.9713
6.9683 -0.7492 -1.9840 0.9713
7.0038 -0.2501 -1.9840 0.9713
-6.5098 0.0000 -2.0023 0.9731
-6.4931 -0.4644 -2.0022 0.9731
-6.4723 -0.6958 -2.0022 0.9731
-6.4059 -1.1557 -2.0021 0.9731
-6.3604 -1.3836 -2.0021 0.9731
-6.3067 -1.6097 -2.0020 0.9731
-6.2450 -1.8337 -2.0019 0.9731
-6.1753 -2.0553 -2.0018 0.9731
-6.0123 -2.4904 -2.0016 0.9731
-5.9192 -2.7032 -2.0015 0.9731
-5.7105 -3.1181 -2.0012 0.9731
-5.5951 -3.3197 -2.0011 0.9731
-5.4726 -3.5170 -2.0009 0.9731
-5.0639 -4.0807 -2.0003 0.9732
-4.7589 -4.4307 -1.9999 0.9732
-3.8943 -5.2022 -1.9988 0.9732
-3.7057 -5.3372 -1.9985 0.9732
-2.6974 -5.9064 -1.9972 0.9732
-2.2685 -6.0820 -1.9966 0.9732
-1.8283 -6.2265 -1.9960 0.9732
-1.6046 -6.2868 -1.9957 0.9732
-1.3790 -6.3391 -1.9954 0.9732
-1.1517 -6.3833 -1.9951 0.9732
-0.6931 -6.4472 -1.9944 0.9732
-0.2314 -6.4782 -1.9938 0.9732
0.0000 -6.4813 -1.9935 0.9732
0.6925 -6.4411 -1.9926 0.9733
1.1499 -6.3733 -1.9919 0.9733
1.3764 -6.3272 -1.9916 0.9733
1.8237 -6.2110 -1.9910 0.9733
2.0440 -6.1411 -1.9907 0.9733
2.2615 -6.0633 -1.9904 0.9733
2.6875 -5.8848 -1.9899 0.9733
3.4957 -5.4394 -1.9888 0.9733
3.8739 -5.1749 -1.9883 0.9733
4.2321 -4.8841 -1.9878 0.9733
4.8820 -4.2302 -1.9869 0.9733
5.0293 -4.0529 -1.9867 0.9733
5.1703 -3.8704 -1.9865 0.9733
5.3046 -3.6831 -1.9863 0.9733
5.4323 -3.4911 -1.9861 0.9733
5.5529 -3.2947 -1.9860 0.9733
5.7730 -2.8897 -1.9857 0.9733
5.9636 -2.4702 -1.9854 0.9733
6.1240 -2.0382 -1.9852 0.9734
6.3060 -1.3718 -1.9849 0.9734
6.3874 -0.9184 -1.9848 0.9734
6.4160 -0.6898 -1.9848 0.9734
6.4487 -0.2303 -1.9847 0.9734
-6.0062 -0.4296 -2.0016 0.9749
-5.9869 -0.6437 -2.0016 0.9749
-5.9255 -1.0691 -2.0015 0.9749
-5.7767 -1.6962 -2.0013 0.9749
-5.5615 -2.3037 -2.0010 0.9749
-5.3824 -2.6942 -2.0008 0.9749
-5.2824 -2.8844 -2.0006 0.9749
-5.1757 -3.0709 -2.0005 0.9750
-5.0624 -3.2534 -2.0003 0.9750
-4.8167 -3.6057 -2.0000 0.9750
-4.6845 -3.7750 -1.9998 0.9750
-4.5463 -3.9394 -1.9996 0.9750
-4.2529 -4.2529 -1.9992 0.9750
-4.0979 -4.4015 -1.9990 0.9750
-3.7727 -4.6816 -1.9986 0.9750
-3.0666 -5.1684 -1.9976 0.9750
-2.6893 -5.3726 -1.9971 0.9750
-2.2986 -5.5493 -1.9966 0.9750
-1.6915 -5.7609 -1.9958 0.9750
-1.4846 -5.8168 -1.9955 0.9750
-1.2759 -5.8652 -1.9952 0.9750
-0.8540 -5.9396 -1.9947 0.9750
-0.6414 -5.9654 -1.9944 0.9750
-0.4280 -5.9836 -1.9941 0.9750
-0.2141 -5.9942 -1.9938 0.9750
-0.0000 -5.9972 -1.9935 0.9750
0.2140 -5.9925 -1.9932 0.9750
0.4277 -5.9802 -1.9929 0.9750
0.8530 -5.9327 -1.9923 0.9751
1.0640 -5.8976 -1.9921 0.9751
1.2737 -5.8551 -1.9918 0.9751
1.8915 -5.6830 -1.9909 0.9751
2.0928 -5.6111 -1.9907 0.9751
2.2915 -5.5321 -1.9904 0.9751
2.6796 -5.3531 -1.9899 0.9751
3.0538 -5.1470 -1.9894 0.9751
3.2352 -5.0341 -1.9891 0.9751
3.5852 -4.7893 -1.9886 0.9751
3.9169 -4.5203 -1.9882 0.9751
4.3762 -4.0744 -1.9876 0.9751
4.6549 -3.7511 -1.9872 0.9751
4.7854 -3.5823 -1.9870 0.9751
5.0279 -3.2312 -1.9867 0.9751
5.1396 -3.0495 -1.9865 0.9751
5.2448 -2.8639 -1.9864 0.9751
5.3433 -2.6747 -1.9863 0.9751
5.4351 -2.4821 -1.9861 0.9751
5.5199 -2.2864 -1.9860 0.9751
5.5977 -2.0878 -1.9859 0.9751
5.6683 -1.8866 -1.9858 0.9751
5.8368 -1.2697 -1.9856 0.9751
5.8783 -1.0605 -1.9855 0.9751
5.9122 -0.8500 -1.9855 0.9751
5.9576 -0.4261 -1.9854 0.9751
-5.5813 -0.3992 -2.0010 0.9765
-5.5635 -0.5981 -2.0010 0.9765
-5.5385 -0.7963 -2.0010 0.9765
-5.4673 -1.1893 -2.0009 0.9765
-5.3083 -1.7667 -2.0007 0.9765
-5.1682 -2.1407 -2.0005 0.9765
-4.7045 -3.0234 -1.9998 0.9765
-4.4762 -3.3508 -1.9995 0.9765
-4.3534 -3.5082 -1.9994 0.9765
-4.2250 -3.6610 -1.9992 0.9765
-4.0913 -3.8091 -1.9990 0.9765
-3.8084 -4.0905 -1.9986 0.9765
-3.5062 -4.3509 -1.9982 0.9765
-3.1862 -4.5889 -1.9978 0.9765
-3.0200 -4.6992 -1.9976 0.9765
-2.8500 -4.8034 -1.9973 0.9766
-2.6764 -4.9015 -1.9971 0.9766
-2.3194 -5.0788 -1.9966 0.9766
-2.1364 -5.1577 -1.9964 0.9766
-1.7625 -5.2956 -1.9959 0.9766
-1.3799 -5.4064 -1.9954 0.9766
-0.7938 -5.5208 -1.9946 0.9766
-0.5961 -5.5448 -1.9943 0.9766
-0.3978 -5.5618 -1.9940 0.9766
0.1989 -5.5702 -1.9932 0.9766
0.3976 -5.5588 -1.9930 0.9766
0.5956 -5.5404 -1.9927 0.9766
1.1840 -5.4428 -1.9919 0.9766
1.5689 -5.3430 -1.9914 0.9766
2.1302 -5.1427 -1.9906 0.9766
2.3121 -5.0628 -1.9904 0.9766
2.4910 -4.9765 -1.9901 0.9766
2.8390 -4.7849 -1.9897 0.9766
3.1724 -4.5692 -1.9892 0.9766
3.3331 -4.4525 -1.9890 0.9766
3.6415 -4.2025 -1.9886 0.9767
3.7888 -4.0695 -1.9884 0.9767
4.0687 -3.7881 -1.9880 0.9767
4.2009 -3.6401 -1.9878 0.9767
4.3278 -3.4875 -1.9876 0.9767
4.4491 -3.3306 -1.9875 0.9767
4.7786 -2.8353 -1.9870 0.9767
5.3816 -1.3736 -1.9862 0.9767
5.4655 -0.9861 -1.9861 0.9767
5.4971 -0.7904 -1.9860 0.9767
5.5217 -0.5937 -1.9860 0.9767
5.5393 -0.3962 -1.9860 0.9767
5.5499 -0.1982 -1.9860 0.9767
-5.2170 -0.1863 -2.0005 0.9779
-5.0576 -1.2909 -2.0003 0.9779
-5.0082 -1.4705 -2.0002 0.9779
-4.9523 -1.6483 -2.0002 0.9779
-4.8901 -1.8239 -2.0001 0.9779
-4.6664 -2.3358 -1.9998 0.9779
-4.5798 -2.5008 -1.9997 0.9779
-4.0616 -3.2731 -1.9990 0.9779
-3.9419 -3.4157 -1.9988 0.9779
-3.8171 -3.5539 -1.9986 0.9779
-3.4145 -3.9405 -1.9981 0.9779
-2.4973 -4.5734 -1.9969 0.9779
-2.3322 -4.6591 -1.9966 0.9779
-2.1641 -4.7388 -1.9964 0.9779
-1.9934 -4.8125 -1.9962 0.9779
-1.6446 -4.9413 -1.9957 0.9779
-1.4670 -4.9962 -1.9955 0.9779
-1.1066 -5.0869 -1.9950 0.9779
-0.9242 -5.1225 -1.9947 0.9779
-0.7407 -5.1516 -1.9945 0.9780
-0.5563 -5.1741 -1.9942 0.9780
-0.3712 -5.1900 -1.9940 0.9780
-0.1857 -5.1993 -1.9937 0.9780
0.1856 -5.1980 -1.9932 0.9780
0.9231 -5.1161 -1.9922 0.9780
1.1049 -5.0793 -1.9920 0.9780
1.4641 -4.9863 -1.9915 0.9780
1.6409 -4.9303 -1.9913 0.9780
2.1578 -4.7249 -1.9906 0.9780
2.3248 -4.6444 -1.9903 0.9780
2.8071 -4.3678 -1.9897 0.9780
2.9608 -4.2644 -1.9895 0.9780
3.2569 -4.0415 -1.9891 0.9780
3.3987 -3.9223 -1.9889 0.9780
3.5362 -3.7982 -1.9887 0.9780
3.7975 -3.5356 -1.9883 0.9780
3.9209 -3.3975 -1.9882 0.9780
4.1526 -3.1086 -1.9879 0.9780
4.3632 -2.8041 -1.9876 0.9780
4.5515 -2.4853 -1.9873 0.9780
4.6371 -2.3211 -1.9872 0.9780
4.7167 -2.1540 -1.9871 0.9780
4.8579 -1.8119 -1.9869 0.9780
4.9192 -1.6373 -1.9868 0.9780
5.0656 -1.1020 -1.9866 0.9780
5.1540 -0.5541 -1.9865 0.9780
5.1704 -0.3698 -1.9865 0.9780
-4.8837 -0.1744 -2.0001 0.9791
-4.8588 -0.5224 -2.0000 0.9791
-4.8090 -0.8676 -2.0000 0.9791
-4.7346 -1.2084 -1.9999 0.9791
-4.6360 -1.5430 -1.9997 0.9791
-4.5778 -1.7074 -1.9997 0.9791
-4.5138 -1.8696 -1.9996 0.9791
-4.4440 -2.0295 -1.9995 0.9791
-4.3685 -2.1867 -1.9994 0.9791
-4.2874 -2.3411 -1.9993 0.9791
-4.2009 -2.4925 -1.9992 0.9791
-3.9096 -2.9267 -1.9988 0.9791
-3.8024 -3.0641 -1.9986 0.9791
-3.6903 -3.1977 -1.9985 0.9791
-3.5735 -3.3271 -1.9983 0.9791
-3.4522 -3.4522 -1.9982 0.9791
-3.0626 -3.8005 -1.9976 0.9791
-2.6381 -4.1049 -1.9971 0.9791
-2.1835 -4.3620 -1.9964 0.9791
-1.7041 -4.5690 -1.9958 0.9791
-1.5398 -4.6263 -1.9956 0.9791
-1.0361 -4.7628 -1.9949 0.9792
-0.8653 -4.7962 -1.9947 0.9792
-0.6935 -4.8235 -1.9944 0.9792
-0.1739 -4.8683 -1.9937 0.9792
0.0000 -4.8708 -1.9935 0.9792
0.3474 -4.8572 -1.9930 0.9792
0.5205 -4.8412 -1.9928 0.9792
0.8643 -4.7906 -1.9923 0.9792
1.3710 -4.6691 -1.9916 0.9792
2.4812 -4.1819 -1.9901 0.9792
2.9132 -3.8915 -1.9895 0.9792
3.5563 -3.3110 -1.9887 0.9792
3.8890 -2.9112 -1.9882 0.9792
3.9901 -2.7704 -1.9881 0.9792
4.0862 -2.6260 -1.9880 0.9792
4.1771 -2.4783 -1.9878 0.9792
4.2626 -2.3275 -1.9877 0.9792
4.3427 -2.1738 -1.9876 0.9792
4.4173 -2.0173 -1.9875 0.9792
4.4863 -1.8583 -1.9874 0.9792
4.7044 -1.2007 -1.9871 0.9792
4.7778 -0.8620 -1.9870 0.9792
4.8054 -0.6909 -1.9870 0.9792
4.8270 -0.5189 -1.9869 0.9792
4.8423 -0.3463 -1.9869 0.9792
-1.4571 -0.0520 -0.6354 0.9937
-1.4359 -0.1544 -0.6294 0.9937
-1.4180 -0.2039 -0.6244 0.9938
-1.3688 -0.2978 -0.6105 0.9939
-1.4401 -0.4793 -0.6615 0.9934
-4.2381 -1.7555 -1.9992 0.9802
-4.1725 -1.9055 -1.9991 0.9802
-4.1017 -2.0531 -1.9990 0.9802
-3.8581 -2.4794 -1.9987 0.9802
-3.5702 -2.8771 -1.9983 0.9802
-3.3554 -3.1240 -1.9980 0.9802
-3.2415 -3.2415 -1.9979 0.9802
-3.1235 -3.3549 -1.9977 0.9802
-2.8757 -3.5686 -1.9974 0.9802
-2.4771 -3.8545 -1.9968 0.9802
-2.3378 -3.9401 -1.9967 0.9802
-2.1954 -4.0206 -1.9965 0.9802
-1.9026 -4.1662 -1.9961 0.9802
-1.6002 -4.2904 -1.9957 0.9802
-1.4459 -4.3443 -1.9954 0.9802
-0.1633 -4.5718 -1.9937 0.9802
0.1633 -4.5707 -1.9933 0.9802
0.3262 -4.5615 -1.9931 0.9802
0.4888 -4.5464 -1.9928 0.9802
0.6507 -4.5256 -1.9926 0.9802
0.8117 -4.4990 -1.9924 0.9802
1.2876 -4.3850 -1.9917 0.9803
1.4431 -4.3358 -1.9915 0.9803
2.3304 -3.9276 -1.9903 0.9803
2.6041 -3.7507 -1.9900 0.9803
2.7361 -3.6550 -1.9898 0.9803
2.9893 -3.4499 -1.9894 0.9803
3.2273 -3.2273 -1.9891 0.9803
3.6527 -2.7344 -1.9885 0.9803
3.7477 -2.6021 -1.9884 0.9803
3.9233 -2.3278 -1.9882 0.9803
4.0037 -2.1862 -1.9881 0.9803
4.1490 -1.8948 -1.9879 0.9803
4.3273 -1.4403 -1.9876 0.9803
4.4187 -1.1278 -1.9875 0.9803
4.5484 -0.3253 -1.9873 0.9803
4.5570 -0.1628 -1.9873 0.9803
-1.2446 0.0000 -0.5761 0.9945
-1.1575 -0.2954 -0.5529 0.9947
-1.1329 -0.3327 -0.5466 0.9948
-1.1536 -0.3840 -0.5628 0.9947
-1.2017 -0.4482 -0.5937 0.9944
-3.6319 -2.3341 -1.9984 0.9812
-3.4557 -2.5869 -1.9982 0.9812
-3.0516 -3.0516 -1.9976 0.9812
-2.9405 -3.1583 -1.9975 0.9812
-2.8257 -3.2610 -1.9973 0.9812
-2.7073 -3.3595 -1.9971 0.9812
-2.4603 -3.5435 -1.9968 0.9812
-2.0669 -3.7852 -1.9963 0.9812
-1.6499 -3.9833 -1.9957 0.9812
-1.5066 -4.0392 -1.9955 0.9812
-1.2143 -4.1356 -1.9951 0.9812
-0.9160 -4.2109 -1.9947 0.9812
-0.7651 -4.2404 -1.9945 0.9812
-0.3073 -4.2966 -1.9939 0.9812
-0.1537 -4.3044 -1.9937 0.9812
0.0000 -4.3067 -1.9935 0.9812
0.3072 -4.2948 -1.9931 0.9812
0.4602 -4.2806 -1.9929 0.9812
0.6127 -4.2611 -1.9927 0.9812
0.9149 -4.2056 -1.9923 0.9812
1.0643 -4.1699 -1.9920 0.9812
1.9252 -3.8461 -1.9909 0.9812
2.1943 -3.6983 -1.9905 0.9812
2.3247 -3.6172 -1.9903 0.9812
2.9288 -3.1457 -1.9895 0.9812
3.0390 -3.0390 -1.9894 0.9812
3.1453 -2.9284 -1.9892 0.9812
3.2476 -2.8140 -1.9891 0.9812
3.5291 -2.4503 -1.9887 0.9812
3.6141 -2.3226 -1.9886 0.9812
3.6945 -2.1920 -1.9885 0.9812
3.7702 -2.0587 -1.9884 0.9812
3.8411 -1.9227 -1.9883 0.9812
3.9681 -1.6436 -1.9881 0.9812
4.0749 -1.3563 -1.9880 0.9812
4.1206 -1.2099 -1.9879 0.9812
4.1611 -1.0621 -1.9878 0.9812
4.1962 -0.9128 -1.9878 0.9812
4.2260 -0.7625 -1.9877 0.9812
4.2505 -0.6111 -1.9877 0.9813
4.2695 -0.4590 -1.9877 0.9813
4.2913 -0.1533 -1.9877 0.9813
-1.0817 0.0000 -0.5306 0.9952
-1.0803 -0.0386 -0.5302 0.9952
-1.0705 -0.1151 -0.5281 0.9952
-1.0119 -0.3774 -0.5298 0.9952
-1.0444 -0.4770 -0.5632 0.9949
-1.0588 -0.5300 -0.5808 0.9947
-3.5755 -1.9524 -1.9983 0.9820
-3.5034 -2.0786 -1.9982 0.9820
-3.4268 -2.2023 -1.9981 0.9820
-3.2606 -2.4408 -1.9979 0.9820
-3.1712 -2.5555 -1.9978 0.9820
-3.0778 -2.6669 -1.9976 0.9820
-2.9804 -2.7749 -1.9975 0.9820
-2.3214 -3.3435 -1.9966 0.9820
-2.0767 -3.5000 -1.9963 0.9820
-1.8214 -3.6386 -1.9959 0.9820
-1.6902 -3.7010 -1.9958 0.9820
-1.5569 -3.7586 -1.9956 0.9820
-1.4216 -3.8114 -1.9954 0.9820
-0.7219 -4.0014 -1.9945 0.9820
-0.4346 -4.0419 -1.9941 0.9821
-0.1451 -4.0618 -1.9937 0.9821
-0.0000 -4.0640 -1.9935 0.9821
0.1450 -4.0610 -1.9933 0.9821
0.2899 -4.0529 -1.9931 0.9821
0.4343 -4.0395 -1.9929 0.9821
0.8634 -3.9688 -1.9923 0.9821
1.0044 -3.9351 -1.9921 0.9821
1.2823 -3.8527 -1.9918 0.9821
1.5536 -3.7507 -1.9914 0.9821
1.9451 -3.5622 -1.9909 0.9821
2.0708 -3.4902 -1.9907 0.9821
2.4314 -3.2480 -1.9902 0.9821
2.6565 -3.0658 -1.9899 0.9821
2.9684 -2.7637 -1.9895 0.9821
3.0650 -2.6558 -1.9893 0.9821
3.1576 -2.5445 -1.9892 0.9821
3.3307 -2.3125 -1.9890 0.9821
3.4109 -2.1921 -1.9889 0.9821
3.4868 -2.0688 -1.9888 0.9821
3.5583 -1.9429 -1.9887 0.9821
3.6252 -1.8146 -1.9886 0.9821
3.6875 -1.6840 -1.9885 0.9821
3.8459 -1.2800 -1.9883 0.9821
3.8891 -1.1419 -1.9882 0.9821
3.9272 -1.0024 -1.9882 0.9821
3.9604 -0.8615 -1.9881 0.9821
3.9886 -0.7196 -1.9881 0.9821
4.0116 -0.5768 -1.9880 0.9821
4.0296 -0.4332 -1.9880 0.9821
4.0425 -0.2891 -1.9880 0.9821
4.0502 -0.1446 -1.9880 0.9821
-0.9895 0.0000 -0.5133 0.9956
-0.9838 -0.1058 -0.5133 0.9956
-0.9785 -0.1407 -0.5129 0.9956
-0.9715 -0.1753 -0.5121 0.9956
-0.9404 -0.2761 -0.5085 0.9956
-0.9271 -0.3840 -0.5206 0.9955
-0.9326 -0.4259 -0.5319 0.9954
-3.3121 -1.9652 -1.9980 0.9828
-3.2397 -2.0821 -1.9979 0.9828
-3.1632 -2.1962 -1.9978 0.9828
-3.0826 -2.3076 -1.9976 0.9828
-2.9098 -2.5213 -1.9974 0.9828
-2.7222 -2.7222 -1.9972 0.9828
-2.6231 -2.8174 -1.9970 0.9828
-2.4151 -2.9969 -1.9967 0.9828
-2.3064 -3.0810 -1.9966 0.9828
-2.1948 -3.1611 -1.9965 0.9828
-1.8439 -3.3768 -1.9960 0.9828
-1.5980 -3.4992 -1.9956 0.9828
-1.4720 -3.5537 -1.9955 0.9828
-0.9509 -3.7257 -1.9948 0.9828
-0.8173 -3.7569 -1.9946 0.9828
-0.2742 -3.8335 -1.9939 0.9828
0.2741 -3.8321 -1.9931 0.9828
0.4106 -3.8196 -1.9929 0.9828
0.6820 -3.7798 -1.9926 0.9828
0.8164 -3.7527 -1.9924 0.9828
1.0818 -3.6843 -1.9920 0.9828
1.4690 -3.5466 -1.9915 0.9829
1.5946 -3.4916 -1.9913 0.9829
1.7180 -3.4322 -1.9912 0.9829
1.9582 -3.3003 -1.9908 0.9829
2.4072 -2.9871 -1.9902 0.9829
2.6138 -2.8074 -1.9899 0.9829
2.7122 -2.7121 -1.9898 0.9829
2.9860 -2.4062 -1.9894 0.9829
3.1497 -2.1869 -1.9892 0.9829
3.2256 -2.0729 -1.9891 0.9829
3.6370 -1.2105 -1.9885 0.9829
3.6778 -1.0799 -1.9885 0.9829
3.7937 -0.5454 -1.9883 0.9829
3.8229 -0.2734 -1.9883 0.9829
3.8302 -0.1368 -1.9883 0.9829
-0.9182 0.0000 -0.5029 0.9958
-0.9179 -0.0328 -0.5031 0.9958
-0.9161 -0.0655 -0.5030 0.9958
-0.9127 -0.0981 -0.5028 0.9958
-0.8932 -0.1943 -0.5006 0.9958
-0.8837 -0.2255 -0.4995 0.9958
-0.8727 -0.2562 -0.4982 0.9959
-0.8603 -0.2863 -0.4966 0.9959
-0.8465 -0.3157 -0.4948 0.9959
-0.8479 -0.3512 -0.5027 0.9958
-0.8506 -0.3884 -0.5122 0.9957
-0.8516 -0.4262 -0.5216 0.9957
-0.8524 -0.5057 -0.5429 0.9955
-3.0683 -1.9719 -1.9976 0.9835
-2.9958 -2.0800 -1.9975 0.9835
-2.9195 -2.1855 -1.9974 0.9835
-2.8395 -2.2882 -1.9973 0.9835
-2.5782 -2.5782 -1.9970 0.9835
-2.2873 -2.8384 -1.9966 0.9835
-1.9704 -3.0660 -1.9961 0.9835
-1.7464 -3.1983 -1.9958 0.9835
-1.6310 -3.2583 -1.9957 0.9835
-1.5135 -3.3142 -1.9955 0.9835
-1.3942 -3.3658 -1.9954 0.9835
-1.2730 -3.4132 -1.9952 0.9835
-1.1503 -3.4562 -1.9950 0.9835
-0.9007 -3.5288 -1.9947 0.9835
-0.7741 -3.5584 -1.9945 0.9835
-0.6465 -3.5834 -1.9944 0.9835
-0.5182 -3.6039 -1.9942 0.9835
-0.2597 -3.6311 -1.9938 0.9835
-0.1299 -3.6377 -1.9937 0.9835
-0.0000 -3.6397 -1.9935 0.9835
0.1299 -3.6371 -1.9933 0.9835
0.2596 -3.6298 -1.9931 0.9835
0.5178 -3.6014 -1.9928 0.9835
1.5104 -3.3074 -1.9914 0.9836
2.3797 -2.7462 -1.9903 0.9836
2.4760 -2.6594 -1.9901 0.9836
2.5692 -2.5692 -1.9900 0.9836
2.6591 -2.4757 -1.9899 0.9836
2.8286 -2.2794 -1.9896 0.9836
2.9080 -2.1769 -1.9895 0.9836
2.9837 -2.0716 -1.9894 0.9836
3.0556 -1.9637 -1.9893 0.9836
3.1235 -1.8533 -1.9892 0.9836
3.2475 -1.6256 -1.9891 0.9836
3.5182 -0.8980 -1.9887 0.9836
3.5479 -0.7718 -1.9887 0.9836
3.5938 -0.5167 -1.9886 0.9836
3.6100 -0.3881 -1.9886 0.9836
3.6284 -0.1296 -1.9886 0.9836
-0.8548 -0.0305 -0.4938 0.9961
-0.8531 -0.0610 -0.4938 0.9961
-0.8453 -0.1215 -0.4930 0.9961
-0.8318 -0.1809 -0.4915 0.9961
-0.8230 -0.2101 -0.4904 0.9961
-0.7796 -0.3229 -0.4872 0.9961
-0.7787 -0.4252 -0.5122 0.9959
-0.7750 -0.4598 -0.5203 0.9958
-2.6934 -2.1705 -1.9971 0.9841
-2.5314 -2.3568 -1.9969 0.9842
-2.4456 -2.4455 -1.9968 0.9842
-2.3566 -2.5311 -1.9967 0.9842
-2.1697 -2.6924 -1.9964 0.9842
-1.9719 -2.8400 -1.9961 0.9842
-1.8691 -2.9084 -1.9960 0.9842
-1.7640 -2.9730 -1.9959 0.9842
-1.5472 -3.0908 -1.9956 0.9842
-1.4357 -3.1438 -1.9954 0.9842
-1.0912 -3.2785 -1.9950 0.9842
-0.8544 -3.3475 -1.9946 0.9842
-0.7343 -3.3756 -1.9945 0.9842
-0.4916 -3.4188 -1.9941 0.9842
-0.3692 -3.4339 -1.9940 0.9842
-0.1232 -3.4509 -1.9937 0.9842
0.1232 -3.4503 -1.9933 0.9842
0.2463 -3.4434 -1.9932 0.9842
0.3690 -3.4322 -1.9930 0.9842
0.4912 -3.4165 -1.9928 0.9842
0.6128 -3.3965 -1.9927 0.9842
0.7336 -3.3722 -1.9925 0.9842
0.9721 -3.3108 -1.9922 0.9842
1.0896 -3.2737 -1.9920 0.9842
1.2056 -3.2325 -1.9919 0.9842
1.4330 -3.1377 -1.9915 0.9842
1.5439 -3.0844 -1.9914 0.9842
1.8644 -2.9010 -1.9910 0.9842
2.0663 -2.7602 -1.9907 0.9842
2.2577 -2.6054 -1.9904 0.9842
2.3490 -2.5231 -1.9903 0.9842
2.5228 -2.3488 -1.9901 0.9842
2.6048 -2.2571 -1.9900 0.9842
2.6836 -2.1626 -1.9898 0.9842
2.7589 -2.0653 -1.9897 0.9842
2.9635 -1.7583 -1.9895 0.9842
3.0811 -1.5423 -1.9893 0.9842
3.1341 -1.4313 -1.9892 0.9842
3.2280 -1.2040 -1.9891 0.9842
3.2688 -1.0880 -1.9890 0.9842
3.3055 -0.9706 -1.9890 0.9842
3.3662 -0.7323 -1.9889 0.9842
3.3901 -0.6116 -1.9889 0.9842
3.4250 -0.3682 -1.9888 0.9842
3.4359 -0.2457 -1.9888 0.9842
