ply
format ascii 1.0
element vertex 746
property float32 x
property float32 y
property float32 z
property float32 I
end_header
-9.3558 -0.6691 -1.9827 0.9624
-9.2846 -1.3349 -1.9828 0.9624
-9.0014 -2.6430 -1.9830 0.9624
-8.9018 -2.9628 -1.9831 0.9624
-8.5356 -3.8981 -1.9835 0.9624
-7.7112 -5.3539 -1.9843 0.9623
-7.5159 -5.6263 -1.9845 0.9623
-6.6417 -6.6417 -1.9854 0.9623
-6.1525 -7.1004 -1.9859 0.9623
-5.3605 -7.7205 -1.9868 0.9623
-4.7974 -8.0856 -1.9873 0.9623
-4.5065 -8.2530 -1.9876 0.9623
-4.2097 -8.4099 -1.9879 0.9623
-3.9075 -8.5561 -1.9883 0.9623
-3.6002 -8.6915 -1.9886 0.9623
-3.2882 -8.8159 -1.9889 0.9623
-2.9719 -8.9291 -1.9892 0.9623
-2.6517 -9.0310 -1.9896 0.9623
-2.3281 -9.1214 -1.9899 0.9622
-2.0014 -9.2003 -1.9902 0.9622
-1.6720 -9.2674 -1.9906 0.9622
-1.0070 -9.3663 -1.9913 0.9622
-0.3364 -9.4176 -1.9920 0.9622
0.3365 -9.4209 -1.9927 0.9622
0.6726 -9.4045 -1.9930 0.9622
1.0080 -9.3762 -1.9934 0.9622
2.0056 -9.2195 -1.9944 0.9622
2.6591 -9.0560 -1.9951 0.9621
2.9811 -8.9568 -1.9954 0.9621
3.6137 -8.7242 -1.9961 0.9621
3.9234 -8.5911 -1.9964 0.9621
4.8215 -8.1263 -1.9973 0.9621
5.1093 -7.9502 -1.9976 0.9621
5.3906 -7.7639 -1.9979 0.9621
5.6651 -7.5676 -1.9982 0.9621
5.9324 -7.3617 -1.9985 0.9621
6.1922 -7.1462 -1.9988 0.9621
6.6880 -6.6880 -1.9993 0.9621
6.9233 -6.4458 -1.9995 0.9621
7.3672 -5.9369 -2.0000 0.9621
7.9621 -5.1169 -2.0006 0.9620
8.3084 -4.5367 -2.0010 0.9620
8.7477 -3.6234 -2.0015 0.9620
8.9851 -2.9905 -2.0017 0.9620
9.3209 -1.6817 -2.0021 0.9620
9.3753 -1.3480 -2.0021 0.9620
9.4662 -0.3381 -2.0022 0.9620
-8.3920 -0.9022 -1.9837 0.9659
-8.3546 -1.2012 -1.9837 0.9659
-8.3066 -1.4987 -1.9838 0.9659
-8.0997 -2.3783 -1.9840 0.9659
-7.9101 -2.9503 -1.9842 0.9659
-7.8002 -3.2309 -1.9843 0.9659
-7.6804 -3.5075 -1.9844 0.9659
-7.5508 -3.7797 -1.9845 0.9659
-7.2630 -4.3093 -1.9848 0.9659
-7.1052 -4.5662 -1.9850 0.9659
-5.5354 -6.3882 -1.9866 0.9659
-5.3045 -6.5825 -1.9868 0.9659
-5.0668 -6.7684 -1.9871 0.9659
-4.5722 -7.1145 -1.9876 0.9658
-4.3159 -7.2741 -1.9879 0.9658
-4.0541 -7.4245 -1.9881 0.9658
-3.2386 -7.8186 -1.9890 0.9658
-2.6734 -8.0321 -1.9895 0.9658
-2.3853 -8.1236 -1.9898 0.9658
-2.0942 -8.2048 -1.9901 0.9658
-1.8003 -8.2756 -1.9905 0.9658
-0.9057 -8.4246 -1.9914 0.9658
-0.6046 -8.4529 -1.9917 0.9658
-0.3025 -8.4704 -1.9920 0.9658
0.3026 -8.4730 -1.9926 0.9658
0.6049 -8.4582 -1.9929 0.9658
0.9066 -8.4325 -1.9933 0.9658
1.8036 -8.2912 -1.9942 0.9657
2.0987 -8.2228 -1.9945 0.9657
2.3913 -8.1439 -1.9948 0.9657
2.6808 -8.0546 -1.9951 0.9657
3.2495 -7.8451 -1.9957 0.9657
3.5280 -7.7253 -1.9960 0.9657
4.0713 -7.4560 -1.9966 0.9657
4.3354 -7.3069 -1.9968 0.9657
5.5675 -6.4252 -1.9981 0.9657
5.7940 -6.2232 -1.9984 0.9657
6.2246 -5.7953 -1.9988 0.9657
6.8105 -5.0983 -1.9994 0.9656
7.1581 -4.6003 -1.9998 0.9656
7.3184 -4.3422 -2.0000 0.9656
7.6107 -3.8096 -2.0003 0.9656
7.8641 -3.2574 -2.0005 0.9656
7.9759 -2.9749 -2.0007 0.9656
8.0774 -2.6884 -2.0008 0.9656
8.2494 -2.1055 -2.0009 0.9656
8.3792 -1.5118 -2.0011 0.9656
8.4660 -0.9102 -2.0012 0.9656
8.4933 -0.6074 -2.0012 0.9656
8.5096 -0.3039 -2.0012 0.9656
-7.6644 0.0000 -1.9844 0.9688
-7.6206 -0.8193 -1.9845 0.9688
-7.5867 -1.0908 -1.9845 0.9688
-7.5431 -1.3609 -1.9846 0.9688
-7.3550 -2.1596 -1.9847 0.9688
-7.1829 -2.6791 -1.9849 0.9688
-7.0830 -2.9339 -1.9850 0.9688
-6.9742 -3.1850 -1.9851 0.9688
-6.7301 -3.6749 -1.9854 0.9688
-6.5950 -3.9130 -1.9855 0.9688
-6.4517 -4.1462 -1.9857 0.9688
-6.3001 -4.3742 -1.9858 0.9688
-6.1404 -4.5966 -1.9860 0.9688
-5.9730 -4.8133 -1.9862 0.9688
-5.6154 -5.2281 -1.9865 0.9688
-4.8162 -5.9765 -1.9873 0.9688
-4.3786 -6.3063 -1.9878 0.9688
-4.1512 -6.4593 -1.9880 0.9688
-3.9185 -6.6042 -1.9883 0.9688
-3.6807 -6.7407 -1.9885 0.9688
-3.4382 -6.8686 -1.9888 0.9688
-2.9402 -7.0982 -1.9893 0.9688
-2.6853 -7.1996 -1.9895 0.9687
-2.1654 -7.3748 -1.9901 0.9687
-1.9011 -7.4484 -1.9904 0.9687
-1.6343 -7.5126 -1.9906 0.9687
-1.0945 -7.6121 -1.9912 0.9687
-0.8222 -7.6475 -1.9915 0.9687
-0.0000 -7.6948 -1.9923 0.9687
0.2747 -7.6910 -1.9926 0.9687
0.5491 -7.6774 -1.9929 0.9687
1.3672 -7.5780 -1.9937 0.9687
1.6370 -7.5254 -1.9940 0.9687
2.1703 -7.3915 -1.9946 0.9687
3.4505 -6.8933 -1.9959 0.9687
3.9345 -6.6313 -1.9964 0.9686
4.3986 -6.3352 -1.9969 0.9686
4.6225 -6.1749 -1.9971 0.9686
4.8405 -6.0067 -1.9974 0.9686
5.0524 -5.8307 -1.9976 0.9686
5.2578 -5.6473 -1.9978 0.9686
5.4566 -5.4566 -1.9980 0.9686
5.8331 -5.0544 -1.9984 0.9686
6.1800 -4.6262 -1.9988 0.9686
6.6407 -3.9401 -1.9993 0.9686
6.7776 -3.7008 -1.9994 0.9686
6.9058 -3.4568 -1.9995 0.9686
7.0252 -3.2083 -1.9997 0.9686
7.1357 -2.9557 -1.9998 0.9686
7.2370 -2.6993 -1.9999 0.9686
7.3291 -2.4394 -2.0000 0.9686
7.4119 -2.1763 -2.0001 0.9686
7.5488 -1.6421 -2.0002 0.9686
7.6028 -1.3717 -2.0003 0.9686
7.6471 -1.0995 -2.0003 0.9686
7.6816 -0.8259 -2.0004 0.9686
7.7063 -0.5512 -2.0004 0.9686
-7.0078 -0.2503 -1.9851 0.9713
-6.9945 -0.5002 -1.9851 0.9713
-6.9012 -1.2451 -1.9852 0.9713
-6.8526 -1.4907 -1.9853 0.9713
-6.7292 -1.9758 -1.9854 0.9713
-6.6546 -2.2148 -1.9855 0.9713
-6.4802 -2.6842 -1.9857 0.9713
-6.2729 -3.1400 -1.9859 0.9713
-6.1572 -3.3621 -1.9860 0.9713
-5.7637 -4.0018 -1.9864 0.9713
-5.6176 -4.2053 -1.9865 0.9712
-5.4644 -4.4034 -1.9867 0.9712
-4.9636 -4.9636 -1.9872 0.9712
-4.7837 -5.1381 -1.9874 0.9712
-4.5977 -5.3061 -1.9876 0.9712
-4.4059 -5.4673 -1.9878 0.9712
-3.7974 -5.9088 -1.9884 0.9712
-3.5845 -6.0413 -1.9886 0.9712
-3.3669 -6.1661 -1.9888 0.9712
-3.1451 -6.2830 -1.9891 0.9712
-2.9192 -6.3920 -1.9893 0.9712
-2.2200 -6.6699 -1.9900 0.9712
-1.7389 -6.8129 -1.9905 0.9712
-1.4948 -6.8716 -1.9908 0.9712
-1.0011 -6.9625 -1.9913 0.9712
-0.7520 -6.9947 -1.9916 0.9712
-0.5019 -7.0180 -1.9918 0.9712
-0.2512 -7.0323 -1.9921 0.9712
0.5022 -7.0217 -1.9929 0.9712
0.7526 -7.0002 -1.9931 0.9712
1.0021 -6.9697 -1.9934 0.9712
1.2504 -6.9304 -1.9936 0.9711
1.7421 -6.8253 -1.9941 0.9711
2.2251 -6.6853 -1.9946 0.9711
3.1554 -6.3037 -1.9956 0.9711
3.3788 -6.1878 -1.9959 0.9711
3.5979 -6.0639 -1.9961 0.9711
4.0222 -5.7931 -1.9965 0.9711
5.1648 -4.8086 -1.9977 0.9711
5.9389 -3.8167 -1.9985 0.9711
6.0718 -3.6026 -1.9987 0.9711
6.1969 -3.3838 -1.9988 0.9711
6.3141 -3.1606 -1.9989 0.9711
6.4233 -2.9334 -1.9990 0.9711
6.5243 -2.7024 -1.9992 0.9711
6.7011 -2.2303 -1.9993 0.9711
6.9018 -1.5014 -1.9996 0.9711
6.9917 -1.0053 -1.9997 0.9711
7.0232 -0.7551 -1.9997 0.9711
-6.4518 -0.2304 -1.9857 0.9733
-6.4190 -0.6901 -1.9857 0.9733
-6.3904 -0.9188 -1.9858 0.9733
-6.3537 -1.1463 -1.9858 0.9733
-6.1952 -1.8191 -1.9860 0.9733
-6.0501 -2.2565 -1.9861 0.9733
-5.9660 -2.4712 -1.9862 0.9733
-5.6685 -3.0952 -1.9865 0.9733
-5.5547 -3.2958 -1.9866 0.9733
-5.3061 -3.6841 -1.9869 0.9733
-4.8830 -4.2311 -1.9873 0.9733
-4.7292 -4.4030 -1.9875 0.9733
-4.5694 -4.5694 -1.9876 0.9733
-3.8740 -5.1751 -1.9883 0.9733
-3.6872 -5.3105 -1.9885 0.9733
-3.2996 -5.5612 -1.9889 0.9733
-3.0994 -5.6760 -1.9891 0.9733
-2.6871 -5.8839 -1.9896 0.9733
-2.2610 -6.0619 -1.9900 0.9733
-2.0434 -6.1395 -1.9902 0.9733
-1.8232 -6.2092 -1.9904 0.9733
-1.6006 -6.2710 -1.9907 0.9733
-1.1494 -6.3708 -1.9911 0.9733
-0.6922 -6.4381 -1.9916 0.9733
-0.4620 -6.4594 -1.9919 0.9733
-0.2312 -6.4726 -1.9921 0.9733
0.2312 -6.4741 -1.9926 0.9733
0.6927 -6.4427 -1.9931 0.9732
1.1508 -6.3784 -1.9935 0.9732
1.3779 -6.3340 -1.9938 0.9732
1.6033 -6.2815 -1.9940 0.9732
2.0478 -6.1526 -1.9945 0.9732
2.2663 -6.0763 -1.9947 0.9732
3.1094 -5.6944 -1.9956 0.9732
3.3110 -5.5804 -1.9958 0.9732
3.5084 -5.4592 -1.9960 0.9732
3.7014 -5.3310 -1.9962 0.9732
3.8897 -5.1961 -1.9964 0.9732
4.4241 -4.7518 -1.9970 0.9732
4.5913 -4.5913 -1.9971 0.9732
4.7526 -4.4248 -1.9973 0.9732
4.9079 -4.2528 -1.9975 0.9732
5.0570 -4.0752 -1.9976 0.9732
5.1996 -3.8924 -1.9978 0.9732
5.3356 -3.7046 -1.9979 0.9732
5.4648 -3.5120 -1.9980 0.9732
5.9104 -2.6992 -1.9985 0.9732
6.0885 -2.2709 -1.9987 0.9732
6.2354 -1.8309 -1.9989 0.9732
6.3960 -1.1540 -1.9990 0.9732
6.4332 -0.9250 -1.9991 0.9732
6.4830 -0.4637 -1.9991 0.9732
6.4955 -0.2320 -1.9991 0.9732
-5.9752 0.0000 -1.9862 0.9751
-5.9714 -0.2132 -1.9862 0.9751
-5.9146 -0.8504 -1.9863 0.9751
-5.8806 -1.0610 -1.9863 0.9751
-5.5995 -2.0885 -1.9866 0.9751
-5.5217 -2.2871 -1.9866 0.9751
-5.4367 -2.4829 -1.9867 0.9751
-5.3449 -2.6754 -1.9868 0.9751
-5.2463 -2.8647 -1.9869 0.9751
-5.1410 -3.0503 -1.9870 0.9751
-4.6557 -3.7518 -1.9875 0.9751
-4.5191 -3.9158 -1.9877 0.9751
-3.9171 -4.5205 -1.9883 0.9751
-3.7535 -4.6579 -1.9885 0.9751
-3.2350 -5.0338 -1.9890 0.9751
-3.0536 -5.1465 -1.9892 0.9751
-2.6792 -5.3522 -1.9896 0.9751
-2.2910 -5.5309 -1.9900 0.9751
-2.0923 -5.6097 -1.9902 0.9751
-1.4812 -5.8030 -1.9908 0.9751
-1.2732 -5.8529 -1.9910 0.9751
-0.8526 -5.9301 -1.9915 0.9751
-0.0000 -5.9937 -1.9923 0.9751
1.0648 -5.9017 -1.9935 0.9750
1.8947 -5.6926 -1.9943 0.9750
2.0969 -5.6220 -1.9945 0.9750
2.8768 -5.2685 -1.9953 0.9750
3.0633 -5.1629 -1.9955 0.9750
3.2459 -5.0508 -1.9957 0.9750
3.7683 -4.6761 -1.9963 0.9750
3.9331 -4.5391 -1.9964 0.9750
4.0930 -4.3962 -1.9966 0.9750
4.2476 -4.2476 -1.9968 0.9750
4.3969 -4.0936 -1.9969 0.9750
4.5405 -3.9344 -1.9971 0.9750
4.8103 -3.6009 -1.9974 0.9750
4.9361 -3.4272 -1.9975 0.9750
5.0556 -3.2490 -1.9976 0.9750
5.1686 -3.0667 -1.9977 0.9750
5.4677 -2.4970 -1.9981 0.9750
5.6324 -2.1008 -1.9982 0.9750
5.7040 -1.8985 -1.9983 0.9750
5.7683 -1.6937 -1.9984 0.9750
5.8748 -1.2780 -1.9985 0.9750
5.9781 -0.6427 -1.9986 0.9750
6.0088 -0.2146 -1.9986 0.9750
-5.5554 0.0000 -1.9866 0.9767
-5.5518 -0.1983 -1.9866 0.9767
-5.4990 -0.7906 -1.9867 0.9767
-5.4673 -0.9864 -1.9867 0.9767
-5.4287 -1.1809 -1.9868 0.9767
-5.3832 -1.3740 -1.9868 0.9767
-5.3309 -1.5653 -1.9869 0.9767
-5.2718 -1.7546 -1.9869 0.9767
-5.0546 -2.3083 -1.9871 0.9767
-4.3283 -3.4880 -1.9879 0.9767
-4.2014 -3.6405 -1.9880 0.9767
-4.0690 -3.7884 -1.9881 0.9767
-3.3330 -4.4524 -1.9889 0.9767
-3.1722 -4.5689 -1.9891 0.9766
-3.0074 -4.6796 -1.9892 0.9766
-2.8387 -4.7844 -1.9894 0.9766
-1.9450 -5.2148 -1.9903 0.9766
-1.5684 -5.3413 -1.9907 0.9766
-0.9887 -5.4800 -1.9913 0.9766
-0.7926 -5.5124 -1.9915 0.9766
-0.1988 -5.5672 -1.9921 0.9766
0.1989 -5.5683 -1.9926 0.9766
0.3975 -5.5583 -1.9928 0.9766
0.5957 -5.5411 -1.9930 0.9766
0.7932 -5.5169 -1.9932 0.9766
0.9897 -5.4856 -1.9934 0.9766
1.1850 -5.4474 -1.9936 0.9766
1.3788 -5.4022 -1.9938 0.9766
1.5709 -5.3500 -1.9940 0.9766
1.7610 -5.2911 -1.9942 0.9766
1.9490 -5.2254 -1.9944 0.9766
2.1344 -5.1530 -1.9946 0.9766
2.4971 -4.9885 -1.9949 0.9766
2.8276 -4.7657 -1.9817 0.9767
3.1827 -4.5840 -1.9957 0.9766
3.3446 -4.4679 -1.9958 0.9766
3.5022 -4.3460 -1.9960 0.9766
3.6554 -4.2186 -1.9962 0.9766
3.8040 -4.0857 -1.9963 0.9766
4.2198 -3.6565 -1.9967 0.9766
4.4705 -3.3466 -1.9970 0.9766
4.5874 -3.1851 -1.9971 0.9766
4.8035 -2.8500 -1.9974 0.9766
4.9951 -2.5004 -1.9976 0.9765
5.1612 -2.1378 -1.9977 0.9765
5.3607 -1.5740 -1.9980 0.9765
5.4136 -1.3817 -1.9980 0.9765
5.4986 -0.9921 -1.9981 0.9765
5.5556 -0.5973 -1.9982 0.9765
5.5841 -0.1994 -1.9982 0.9765
-5.1851 0.0000 -1.9870 0.9780
-5.1818 -0.1851 -1.9870 0.9780
-5.1555 -0.5543 -1.9870 0.9780
-5.1324 -0.7379 -1.9871 0.9780
-5.0669 -1.1022 -1.9871 0.9780
-5.0244 -1.2824 -1.9872 0.9780
-4.9756 -1.4610 -1.9872 0.9780
-4.8590 -1.8123 -1.9873 0.9780
-4.6379 -2.3216 -1.9876 0.9780
-4.5523 -2.4857 -1.9877 0.9780
-4.4609 -2.6467 -1.9877 0.9780
-4.3638 -2.8044 -1.9878 0.9780
-4.2611 -2.9585 -1.9880 0.9780
-4.1531 -3.1089 -1.9881 0.9780
-3.7976 -3.5357 -1.9884 0.9780
-3.6693 -3.6692 -1.9886 0.9780
-3.5362 -3.7981 -1.9887 0.9780
-3.3986 -3.9222 -1.9888 0.9780
-3.2567 -4.0413 -1.9890 0.9780
-2.9606 -4.2640 -1.9893 0.9780
-2.6493 -4.4650 -1.9896 0.9780
-2.4884 -4.5571 -1.9898 0.9780
-2.3244 -4.6435 -1.9899 0.9780
-1.9875 -4.7983 -1.9903 0.9780
-1.8152 -4.8666 -1.9905 0.9780
-1.6405 -4.9287 -1.9907 0.9780
-1.2849 -5.0341 -1.9910 0.9780
-1.1045 -5.0772 -1.9912 0.9780
-0.7396 -5.1441 -1.9916 0.9780
-0.3708 -5.1848 -1.9920 0.9780
0.0000 -5.1990 -1.9924 0.9780
0.3710 -5.1867 -1.9927 0.9780
0.7402 -5.1481 -1.9931 0.9780
0.9235 -5.1188 -1.9933 0.9780
1.1058 -5.0831 -1.9935 0.9780
1.2866 -5.0409 -1.9937 0.9780
1.6432 -4.9372 -1.9941 0.9780
2.3300 -4.6547 -1.9948 0.9779
2.4949 -4.5690 -1.9949 0.9779
2.6566 -4.4774 -1.9951 0.9779
3.1207 -4.1688 -1.9956 0.9779
3.8127 -3.5498 -1.9963 0.9779
4.2801 -2.9718 -1.9968 0.9779
4.3837 -2.8173 -1.9969 0.9779
4.6604 -2.3328 -1.9972 0.9779
4.8837 -1.8215 -1.9975 0.9779
4.9458 -1.6461 -1.9975 0.9779
5.1600 -0.7419 -1.9978 0.9779
5.1833 -0.5573 -1.9978 0.9779
-4.8435 -0.3464 -1.9874 0.9792
-4.8281 -0.5191 -1.9874 0.9792
-4.8065 -0.6911 -1.9874 0.9792
-4.7788 -0.8622 -1.9874 0.9792
-4.7053 -1.2010 -1.9875 0.9792
-4.6596 -1.3682 -1.9876 0.9792
-4.5504 -1.6972 -1.9877 0.9792
-4.4180 -2.0176 -1.9878 0.9792
-4.3433 -2.1741 -1.9879 0.9792
-4.2631 -2.3278 -1.9880 0.9792
-4.0866 -2.6263 -1.9881 0.9792
-3.7830 -3.0485 -1.9884 0.9792
-3.3115 -3.5567 -1.9889 0.9792
-3.0497 -3.7844 -1.9892 0.9792
-2.9129 -3.8911 -1.9893 0.9792
-2.7723 -3.9929 -1.9895 0.9792
-2.6283 -4.0896 -1.9896 0.9792
-2.4808 -4.1812 -1.9898 0.9792
-2.3302 -4.2674 -1.9899 0.9792
-2.1766 -4.3482 -1.9901 0.9792
-1.8611 -4.4931 -1.9904 0.9792
-1.6997 -4.5570 -1.9906 0.9792
-1.5361 -4.6152 -1.9908 0.9792
-1.2031 -4.7138 -1.9911 0.9792
-0.5202 -4.8388 -1.9918 0.9792
-0.3472 -4.8547 -1.9920 0.9792
-0.1737 -4.8645 -1.9922 0.9792
-0.0000 -4.8680 -1.9924 0.9792
0.3473 -4.8565 -1.9927 0.9792
0.5205 -4.8414 -1.9929 0.9792
0.6930 -4.8202 -1.9931 0.9792
1.0353 -4.7593 -1.9934 0.9792
1.3725 -4.6742 -1.9938 0.9792
1.5385 -4.6226 -1.9940 0.9792
1.8647 -4.5018 -1.9943 0.9792
2.0244 -4.4328 -1.9945 0.9792
2.6355 -4.1009 -1.9951 0.9792
2.9217 -3.9030 -1.9954 0.9791
3.1932 -3.6851 -1.9957 0.9791
3.3229 -3.5691 -1.9958 0.9791
3.4484 -3.4484 -1.9960 0.9791
3.6861 -3.1940 -1.9962 0.9791
3.9050 -2.9233 -1.9964 0.9791
4.0071 -2.7822 -1.9965 0.9791
4.1040 -2.6375 -1.9966 0.9791
4.1958 -2.4895 -1.9967 0.9791
4.2821 -2.3382 -1.9968 0.9791
4.5081 -1.8673 -1.9971 0.9791
4.5720 -1.7053 -1.9971 0.9791
4.6823 -1.3748 -1.9973 0.9791
4.7285 -1.2069 -1.9973 0.9791
4.7687 -1.0374 -1.9973 0.9791
4.8028 -0.8665 -1.9974 0.9791
4.8680 -0.3482 -1.9975 0.9791
4.8774 -0.1742 -1.9975 0.9791
-1.4601 0.0000 -0.6363 0.9936
-1.4571 -0.0520 -0.6354 0.9937
-1.4180 -0.2039 -0.6244 0.9938
-1.3956 -0.2518 -0.6180 0.9938
-1.3688 -0.2978 -0.6105 0.9939
-1.5118 -0.5639 -0.7032 0.9930
-4.2144 -1.7456 -1.9880 0.9803
-4.0040 -2.1864 -1.9882 0.9803
-3.9236 -2.3280 -1.9883 0.9803
-3.7479 -2.6022 -1.9885 0.9803
-3.6528 -2.7344 -1.9886 0.9803
-3.3401 -3.1097 -1.9889 0.9803
-2.9891 -3.4496 -1.9893 0.9803
-2.7357 -3.6545 -1.9895 0.9803
-2.6037 -3.7501 -1.9897 0.9803
-2.3299 -3.9268 -1.9899 0.9803
-1.8972 -4.1543 -1.9904 0.9803
-1.5963 -4.2797 -1.9907 0.9803
-1.1299 -4.4269 -1.9912 0.9803
-0.9713 -4.4648 -1.9914 0.9803
-0.8114 -4.4970 -1.9915 0.9803
-0.3261 -4.5591 -1.9920 0.9803
-0.1632 -4.5682 -1.9922 0.9803
0.4888 -4.5465 -1.9929 0.9802
0.8120 -4.5008 -1.9932 0.9802
0.9722 -4.4693 -1.9934 0.9802
1.2888 -4.3893 -1.9937 0.9802
1.4448 -4.3409 -1.9939 0.9802
2.1934 -4.0169 -1.9946 0.9802
2.6108 -3.7603 -1.9951 0.9802
2.7436 -3.6650 -1.9952 0.9802
3.2380 -3.2380 -1.9957 0.9802
3.3518 -3.1206 -1.9959 0.9802
3.8536 -2.4766 -1.9964 0.9802
3.9397 -2.3375 -1.9965 0.9802
4.0208 -2.1955 -1.9966 0.9802
4.1675 -1.9032 -1.9967 0.9802
4.2329 -1.7533 -1.9968 0.9802
4.3475 -1.4470 -1.9969 0.9802
4.4399 -1.1332 -1.9970 0.9802
4.4776 -0.9740 -1.9970 0.9802
4.5096 -0.8136 -1.9971 0.9802
4.5358 -0.6521 -1.9971 0.9802
4.5562 -0.4898 -1.9971 0.9802
4.5709 -0.3269 -1.9971 0.9802
4.5796 -0.1636 -1.9972 0.9802
-1.2424 -0.0444 -0.5755 0.9945
-1.2124 -0.1743 -0.5670 0.9946
-1.1330 -0.3327 -0.5466 0.9948
-1.2345 -0.5114 -0.6185 0.9941
-3.7704 -2.0587 -1.9885 0.9812
-3.6946 -2.1921 -1.9885 0.9812
-3.6142 -2.3227 -1.9886 0.9812
-3.5291 -2.4503 -1.9887 0.9812
-3.4396 -2.5748 -1.9888 0.9812
-3.0388 -3.0387 -1.9892 0.9812
-2.9285 -3.1454 -1.9893 0.9812
-2.8146 -3.2482 -1.9895 0.9812
-2.6970 -3.3468 -1.9896 0.9812
-2.5760 -3.4411 -1.9897 0.9812
-2.4517 -3.5311 -1.9898 0.9812
-2.3242 -3.6166 -1.9900 0.9812
-2.0606 -3.7737 -1.9902 0.9812
-1.9247 -3.8451 -1.9904 0.9812
-1.6458 -3.9732 -1.9907 0.9812
-1.2119 -4.1273 -1.9911 0.9812
-1.0639 -4.1682 -1.9913 0.9812
-0.7639 -4.2342 -1.9916 0.9812
-0.3070 -4.2925 -1.9920 0.9812
0.4602 -4.2806 -1.9928 0.9812
0.6127 -4.2618 -1.9930 0.9812
0.9154 -4.2079 -1.9933 0.9812
1.0650 -4.1728 -1.9935 0.9812
1.2134 -4.1325 -1.9936 0.9812
1.3602 -4.0869 -1.9938 0.9812
1.5053 -4.0360 -1.9939 0.9812
1.6486 -3.9800 -1.9941 0.9812
1.7897 -3.9189 -1.9942 0.9812
1.9286 -3.8528 -1.9944 0.9812
2.1988 -3.7059 -1.9947 0.9812
2.3299 -3.6254 -1.9948 0.9812
2.8228 -3.2577 -1.9953 0.9812
2.9375 -3.1551 -1.9954 0.9812
3.0484 -3.0484 -1.9955 0.9812
3.1554 -2.9378 -1.9957 0.9812
3.3573 -2.7055 -1.9959 0.9812
3.5421 -2.4593 -1.9961 0.9812
3.7089 -2.2006 -1.9962 0.9812
3.7852 -2.0669 -1.9963 0.9812
4.1797 -1.0668 -1.9967 0.9812
4.2152 -0.9170 -1.9968 0.9812
4.2453 -0.7659 -1.9968 0.9812
4.2700 -0.6139 -1.9968 0.9812
4.3112 -0.1540 -1.9969 0.9812
-1.0769 -0.0770 -0.5296 0.9952
-1.0705 -0.1151 -0.5281 0.9952
-1.0611 -0.1526 -0.5258 0.9952
-1.0422 -0.2267 -0.5232 0.9953
-1.0307 -0.2631 -0.5218 0.9953
-1.0175 -0.2988 -0.5202 0.9953
-1.0290 -0.4262 -0.5463 0.9951
-1.0444 -0.4769 -0.5632 0.9949
-1.0588 -0.5300 -0.5808 0.9947
-3.4868 -2.0688 -1.9888 0.9821
-3.4109 -2.1920 -1.9888 0.9821
-2.9682 -2.7635 -1.9893 0.9821
-2.8678 -2.8678 -1.9894 0.9821
-2.7638 -2.9685 -1.9895 0.9821
-2.6562 -3.0654 -1.9896 0.9821
-2.0703 -3.4894 -1.9902 0.9821
-1.9446 -3.5613 -1.9904 0.9821
-1.6858 -3.6914 -1.9906 0.9821
-1.1436 -3.8948 -1.9912 0.9821
-1.0040 -3.9335 -1.9913 0.9821
-0.7209 -3.9957 -1.9916 0.9821
-0.5779 -4.0192 -1.9918 0.9821
-0.4341 -4.0375 -1.9919 0.9821
-0.0000 -4.0617 -1.9924 0.9821
0.7214 -3.9987 -1.9931 0.9821
1.0050 -3.9376 -1.9934 0.9821
1.1450 -3.8995 -1.9936 0.9821
1.2835 -3.8564 -1.9937 0.9821
1.4205 -3.8084 -1.9938 0.9821
1.8198 -3.6355 -1.9943 0.9820
1.9485 -3.5685 -1.9944 0.9820
2.1984 -3.4208 -1.9947 0.9820
2.3193 -3.3404 -1.9948 0.9820
2.4372 -3.2557 -1.9949 0.9820
2.5520 -3.1668 -1.9950 0.9820
2.6635 -3.0739 -1.9951 0.9820
2.7717 -2.9770 -1.9953 0.9820
3.0746 -2.6641 -1.9956 0.9820
3.1679 -2.5528 -1.9957 0.9820
3.2571 -2.4382 -1.9958 0.9820
3.6390 -1.8215 -1.9962 0.9820
3.8132 -1.4223 -1.9963 0.9820
4.0056 -0.7227 -1.9966 0.9820
4.0289 -0.5793 -1.9966 0.9820
4.0470 -0.4351 -1.9966 0.9820
4.0600 -0.2904 -1.9966 0.9820
-0.9895 0.0000 -0.5133 0.9956
-0.9893 -0.0353 -0.5135 0.9955
-0.9838 -0.1058 -0.5133 0.9956
-0.9785 -0.1407 -0.5129 0.9956
-0.9715 -0.1753 -0.5121 0.9956
-0.9524 -0.2431 -0.5099 0.9956
-0.9268 -0.3085 -0.5067 0.9956
-0.9326 -0.4259 -0.5319 0.9954
-0.9486 -0.5179 -0.5607 0.9951
-3.2972 -1.9563 -1.9890 0.9829
-2.9857 -2.4060 -1.9893 0.9829
-2.8981 -2.5112 -1.9894 0.9829
-2.7118 -2.7118 -1.9896 0.9829
-2.4068 -2.9866 -1.9899 0.9829
-2.2988 -3.0708 -1.9900 0.9829
-1.7175 -3.4312 -1.9906 0.9829
-1.5941 -3.4905 -1.9907 0.9829
-1.3412 -3.5958 -1.9910 0.9829
-1.2121 -3.6416 -1.9911 0.9829
-1.0814 -3.6828 -1.9912 0.9829
-0.9493 -3.7193 -1.9914 0.9829
-0.6817 -3.7781 -1.9917 0.9828
-0.5464 -3.8003 -1.9918 0.9828
-0.4105 -3.8177 -1.9919 0.9828
-0.2739 -3.8302 -1.9921 0.9828
0.1371 -3.8383 -1.9925 0.9828
0.9502 -3.7230 -1.9934 0.9828
1.0826 -3.6870 -1.9935 0.9828
1.8423 -3.3739 -1.9943 0.9828
1.9617 -3.3063 -1.9944 0.9828
2.0786 -3.2343 -1.9945 0.9828
2.1928 -3.1583 -1.9946 0.9828
2.3043 -3.0782 -1.9948 0.9828
2.7195 -2.7195 -1.9952 0.9828
2.8150 -2.6208 -1.9953 0.9828
2.9069 -2.5188 -1.9954 0.9828
2.9950 -2.4136 -1.9955 0.9828
3.2363 -2.0798 -1.9957 0.9828
3.4998 -1.5983 -1.9960 0.9828
3.5548 -1.4724 -1.9961 0.9828
3.6921 -1.0841 -1.9962 0.9828
3.7285 -0.9516 -1.9963 0.9828
3.8458 -0.1373 -1.9964 0.9828
-0.9161 -0.0655 -0.5030 0.9958
-0.8932 -0.1943 -0.5006 0.9958
-0.8837 -0.2255 -0.4995 0.9958
-0.8603 -0.2863 -0.4966 0.9959
-0.8479 -0.3512 -0.5027 0.9958
-0.8506 -0.3884 -0.5122 0.9957
-0.8507 -0.4645 -0.5309 0.9956
-0.8524 -0.5057 -0.5429 0.9955
-3.0554 -1.9636 -1.9892 0.9836
-2.9835 -2.0714 -1.9893 0.9836
-2.9077 -2.1767 -1.9894 0.9836
-2.8283 -2.2792 -1.9894 0.9836
-2.5688 -2.5688 -1.9897 0.9836
-2.3792 -2.7458 -1.9899 0.9836
-2.2798 -2.8291 -1.9900 0.9836
-2.1775 -2.9088 -1.9901 0.9836
-2.0724 -2.9848 -1.9902 0.9836
-1.9647 -3.0571 -1.9903 0.9836
-1.5100 -3.3063 -1.9908 0.9836
-1.3911 -3.3583 -1.9909 0.9836
-1.2704 -3.4061 -1.9911 0.9836
-0.8992 -3.5230 -1.9914 0.9836
-0.6457 -3.5787 -1.9917 0.9836
-0.5176 -3.5997 -1.9918 0.9836
-0.3888 -3.6161 -1.9920 0.9835
-0.2595 -3.6279 -1.9921 0.9835
0.1298 -3.6356 -1.9925 0.9835
0.7735 -3.5560 -1.9932 0.9835
1.0254 -3.4922 -1.9934 0.9835
1.2721 -3.4106 -1.9937 0.9835
1.3931 -3.3632 -1.9938 0.9835
1.6297 -3.2557 -1.9941 0.9835
1.7449 -3.1956 -1.9942 0.9835
1.8580 -3.1315 -1.9943 0.9835
2.0769 -2.9913 -1.9945 0.9835
2.1825 -2.9154 -1.9946 0.9835
2.5757 -2.5757 -1.9951 0.9835
2.6661 -2.4822 -1.9951 0.9835
2.8367 -2.2859 -1.9953 0.9835
2.9165 -2.1833 -1.9954 0.9835
3.1336 -1.8592 -1.9956 0.9835
3.1981 -1.7463 -1.9957 0.9835
3.3147 -1.5138 -1.9958 0.9835
3.3667 -1.3945 -1.9959 0.9835
3.4144 -1.2735 -1.9959 0.9835
3.4967 -1.0267 -1.9960 0.9835
3.5866 -0.6471 -1.9961 0.9835
3.6237 -0.3896 -1.9962 0.9835
3.6353 -0.2600 -1.9962 0.9835
3.6423 -0.1301 -1.9962 0.9835
-0.8531 -0.0610 -0.4938 0.9961
-0.8499 -0.0914 -0.4935 0.9961
-0.8393 -0.1514 -0.4924 0.9961
-0.8318 -0.1809 -0.4915 0.9961
-0.8230 -0.2100 -0.4904 0.9961
-0.8128 -0.2387 -0.4891 0.9961
-0.7887 -0.2942 -0.4860 0.9961
-0.7787 -0.4252 -0.5122 0.9959
-0.7634 -0.5300 -0.5366 0.9957
-2.7586 -2.0651 -1.9895 0.9842
-2.6833 -2.1623 -1.9896 0.9842
-2.6045 -2.2568 -1.9897 0.9842
-2.5224 -2.3484 -1.9898 0.9842
-2.4371 -2.4371 -1.9899 0.9842
-2.2572 -2.6050 -1.9900 0.9842
-2.1629 -2.6840 -1.9901 0.9842
-2.0658 -2.7596 -1.9902 0.9842
-1.9661 -2.8317 -1.9903 0.9842
-1.8639 -2.9003 -1.9904 0.9842
-1.6524 -3.0262 -1.9907 0.9842
-1.3197 -3.1860 -1.9910 0.9842
-1.2052 -3.2313 -1.9911 0.9842
-0.9717 -3.3094 -1.9914 0.9842
-0.8530 -3.3422 -1.9915 0.9842
-0.6125 -3.3950 -1.9917 0.9842
-0.2462 -3.4417 -1.9921 0.9842
-0.1232 -3.4485 -1.9922 0.9842
-0.0000 -3.4509 -1.9924 0.9842
0.1232 -3.4489 -1.9925 0.9842
0.2462 -3.4425 -1.9926 0.9842
0.3690 -3.4318 -1.9928 0.9842
0.4912 -3.4167 -1.9929 0.9842
0.6129 -3.3971 -1.9930 0.9842
0.7338 -3.3733 -1.9931 0.9842
0.9727 -3.3128 -1.9934 0.9842
1.0904 -3.2762 -1.9935 0.9842
1.2067 -3.2353 -1.9936 0.9842
1.3215 -3.1904 -1.9937 0.9842
1.4346 -3.1414 -1.9939 0.9842
1.6553 -3.0314 -1.9941 0.9842
1.9701 -2.8375 -1.9944 0.9842
2.0703 -2.7655 -1.9945 0.9842
2.1678 -2.6900 -1.9946 0.9842
2.2625 -2.6111 -1.9947 0.9842
2.5290 -2.3546 -1.9950 0.9842
2.6116 -2.2629 -1.9951 0.9842
2.6908 -2.1684 -1.9952 0.9842
2.8388 -1.9711 -1.9953 0.9842
2.9075 -1.8685 -1.9954 0.9842
2.9724 -1.7636 -1.9955 0.9842
3.2388 -1.2080 -1.9958 0.9842
3.3169 -0.9739 -1.9958 0.9842
3.3496 -0.8549 -1.9959 0.9842
3.3780 -0.7348 -1.9959 0.9842
3.4021 -0.6138 -1.9959 0.9842
3.4373 -0.3695 -1.9960 0.9842
3.4549 -0.1234 -1.9960 0.9842
