ply
format ascii 1.0
element vertex 717
property float32 x
property float32 y
property float32 z
property float32 I
end_header
-9.1727 0.0000 -1.9389 0.9632
-9.0308 -1.6293 -1.9397 0.9632
-8.9685 -1.9510 -1.9401 0.9632
-8.8951 -2.2703 -1.9405 0.9632
-8.8105 -2.5870 -1.9410 0.9632
-8.7150 -2.9006 -1.9415 0.9631
-8.6086 -3.2108 -1.9421 0.9631
-8.4914 -3.5172 -1.9428 0.9631
-8.3635 -3.8195 -1.9435 0.9631
-7.9175 -4.6977 -1.9460 0.9631
-7.7486 -4.9797 -1.9470 0.9630
-7.3815 -5.5257 -1.9490 0.9630
-7.1836 -5.7889 -1.9501 0.9630
-6.7606 -6.2943 -1.9525 0.9629
-5.2904 -7.6195 -1.9608 0.9628
-3.8691 -8.4721 -1.9687 0.9626
-3.2605 -8.7416 -1.9721 0.9626
-2.6332 -8.9679 -1.9757 0.9625
-1.3350 -9.2854 -1.9829 0.9624
-1.0037 -9.3358 -1.9848 0.9623
-0.0000 -9.4161 -1.9904 0.9622
0.3364 -9.4190 -1.9923 0.9622
0.6730 -9.4099 -1.9941 0.9622
1.3451 -9.3555 -1.9979 0.9621
1.6797 -9.3103 -1.9998 0.9621
2.3440 -9.1837 -2.0035 0.9620
2.6727 -9.1025 -2.0053 0.9620
2.9987 -9.0095 -2.0071 0.9619
3.3213 -8.9047 -2.0089 0.9619
4.2653 -8.5210 -2.0142 0.9618
4.5706 -8.3704 -2.0159 0.9618
4.8704 -8.2087 -2.0176 0.9617
5.1645 -8.0362 -2.0192 0.9617
5.4524 -7.8529 -2.0208 0.9617
5.7337 -7.6593 -2.0224 0.9616
6.2748 -7.2415 -2.0254 0.9616
6.5339 -7.0180 -2.0269 0.9616
7.0274 -6.5428 -2.0296 0.9615
7.7008 -5.7647 -2.0334 0.9614
7.9061 -5.4893 -2.0345 0.9614
8.1013 -5.2064 -2.0356 0.9614
8.2861 -4.9164 -2.0366 0.9614
8.6237 -4.3167 -2.0385 0.9613
8.7759 -4.0078 -2.0393 0.9613
8.9168 -3.6935 -2.0401 0.9613
9.0461 -3.3740 -2.0408 0.9613
9.1637 -3.0500 -2.0415 0.9613
9.3630 -2.3898 -2.0426 0.9613
9.4444 -2.0545 -2.0430 0.9613
9.5701 -1.3760 -2.0437 0.9612
9.6142 -1.0337 -2.0440 0.9612
9.6647 -0.3452 -2.0442 0.9612
-8.2713 0.0000 -1.9440 0.9666
-8.2508 -0.5901 -1.9441 0.9666
-8.0204 -2.0471 -1.9454 0.9666
-7.8576 -2.6153 -1.9463 0.9665
-7.6555 -3.1710 -1.9475 0.9665
-7.5400 -3.4434 -1.9481 0.9665
-7.4149 -3.7116 -1.9488 0.9665
-7.2806 -3.9755 -1.9496 0.9665
-7.1370 -4.2346 -1.9504 0.9665
-6.4741 -5.2171 -1.9541 0.9664
-6.0921 -5.6719 -1.9563 0.9664
-5.8891 -5.8892 -1.9574 0.9664
-5.6786 -6.0993 -1.9586 0.9663
-5.4607 -6.3020 -1.9598 0.9663
-5.0038 -6.6842 -1.9624 0.9663
-4.7652 -6.8632 -1.9637 0.9663
-4.5204 -7.0338 -1.9651 0.9662
-4.2695 -7.1959 -1.9665 0.9662
-4.0129 -7.3490 -1.9679 0.9662
-3.7508 -7.4932 -1.9694 0.9662
-3.4836 -7.6280 -1.9709 0.9661
-3.2116 -7.7535 -1.9724 0.9661
-2.9351 -7.8694 -1.9739 0.9661
-2.0821 -8.1577 -1.9787 0.9660
-1.7911 -8.2336 -1.9803 0.9660
-1.4973 -8.2992 -1.9820 0.9659
-1.2012 -8.3543 -1.9836 0.9659
-0.9030 -8.3989 -1.9853 0.9659
-0.6031 -8.4329 -1.9870 0.9659
-0.3020 -8.4562 -1.9887 0.9658
0.3025 -8.4706 -1.9921 0.9658
1.5100 -8.3696 -1.9988 0.9657
1.8093 -8.3173 -2.0005 0.9656
2.1068 -8.2543 -2.0021 0.9656
2.4020 -8.1806 -2.0038 0.9656
2.6947 -8.0962 -2.0054 0.9655
2.9843 -8.0013 -2.0070 0.9655
4.1054 -7.5186 -2.0133 0.9654
4.3744 -7.3727 -2.0148 0.9654
4.6382 -7.2171 -2.0163 0.9654
5.1485 -6.8776 -2.0191 0.9653
6.0907 -6.0906 -2.0244 0.9652
6.3079 -5.8729 -2.0256 0.9652
6.9110 -5.1735 -2.0289 0.9651
7.2696 -4.6719 -2.0309 0.9651
7.4351 -4.4114 -2.0319 0.9651
7.5911 -4.1450 -2.0327 0.9651
7.7373 -3.8730 -2.0335 0.9651
7.8735 -3.5957 -2.0343 0.9651
8.3988 -2.1437 -2.0372 0.9650
8.4716 -1.8429 -2.0376 0.9650
8.5334 -1.5396 -2.0379 0.9650
8.5841 -1.2342 -2.0382 0.9650
8.6236 -0.9271 -2.0384 0.9650
8.6519 -0.6188 -2.0386 0.9650
-7.5241 0.0000 -1.9481 0.9694
-7.5195 -0.2686 -1.9482 0.9694
-7.5054 -0.5368 -1.9482 0.9694
-7.3559 -1.6002 -1.9491 0.9694
-7.1470 -2.3787 -1.9503 0.9694
-7.0593 -2.6330 -1.9508 0.9693
-6.9628 -2.8841 -1.9513 0.9693
-6.8575 -3.1317 -1.9519 0.9693
-6.7436 -3.3756 -1.9526 0.9693
-6.6211 -3.6154 -1.9533 0.9693
-5.7162 -4.9531 -1.9583 0.9692
-5.5386 -5.1566 -1.9593 0.9692
-5.1621 -5.5445 -1.9614 0.9692
-4.7589 -5.9054 -1.9637 0.9691
-4.5479 -6.0752 -1.9649 0.9691
-4.3308 -6.2375 -1.9661 0.9691
-3.6463 -6.6777 -1.9699 0.9691
-2.4112 -7.2444 -1.9769 0.9689
-2.1526 -7.3312 -1.9783 0.9689
-1.3597 -7.5361 -1.9827 0.9689
-1.0907 -7.5856 -1.9843 0.9688
-0.8198 -7.6255 -1.9858 0.9688
-0.5476 -7.6558 -1.9873 0.9688
-0.2742 -7.6764 -1.9888 0.9688
0.2746 -7.6882 -1.9919 0.9687
0.5492 -7.6794 -1.9934 0.9687
1.6415 -7.5462 -1.9995 0.9686
2.1790 -7.4209 -2.0025 0.9685
2.7068 -7.2572 -2.0055 0.9685
2.9662 -7.1612 -2.0069 0.9685
3.2222 -7.0558 -2.0084 0.9685
3.4745 -6.9411 -2.0098 0.9684
4.2050 -6.5432 -2.0138 0.9684
4.8896 -6.0677 -2.0177 0.9683
5.5198 -5.5198 -2.0212 0.9683
5.9058 -5.1174 -2.0233 0.9682
7.0091 -3.5085 -2.0295 0.9681
7.1323 -3.2572 -2.0301 0.9681
7.2462 -3.0015 -2.0308 0.9681
7.3509 -2.7417 -2.0313 0.9681
7.4460 -2.4783 -2.0319 0.9681
7.5314 -2.2114 -2.0323 0.9681
7.7288 -1.3944 -2.0334 0.9681
7.8511 -0.2804 -2.0341 0.9681
-6.8941 0.0000 -1.9517 0.9717
-6.8554 -0.7370 -1.9519 0.9717
-6.7396 -1.4661 -1.9525 0.9717
-6.6840 -1.7060 -1.9529 0.9717
-6.1777 -3.0923 -1.9557 0.9717
-5.9453 -3.5275 -1.9570 0.9717
-5.0723 -4.7225 -1.9619 0.9716
-4.9029 -4.9029 -1.9629 0.9716
-4.7271 -5.0773 -1.9639 0.9716
-4.5453 -5.2455 -1.9649 0.9716
-3.9651 -5.7107 -1.9681 0.9715
-3.1195 -6.2319 -1.9729 0.9714
-2.2065 -6.6295 -1.9780 0.9714
-1.9698 -6.7085 -1.9793 0.9714
-1.7303 -6.7792 -1.9807 0.9713
-0.7500 -6.9757 -1.9861 0.9713
-0.5009 -7.0029 -1.9875 0.9712
-0.2508 -7.0212 -1.9889 0.9712
0.7531 -7.0052 -1.9945 0.9711
1.2527 -6.9433 -1.9973 0.9711
1.5008 -6.8990 -1.9987 0.9711
1.7473 -6.8457 -2.0001 0.9711
3.4016 -6.2296 -2.0093 0.9709
3.6240 -6.1080 -2.0106 0.9709
3.8421 -5.9784 -2.0118 0.9709
4.2637 -5.6957 -2.0141 0.9709
5.2211 -4.8610 -2.0195 0.9708
5.3938 -4.6737 -2.0204 0.9708
5.5597 -4.4803 -2.0214 0.9708
5.7186 -4.2809 -2.0223 0.9707
6.0143 -3.8652 -2.0239 0.9707
6.1508 -3.6494 -2.0247 0.9707
6.3998 -3.2035 -2.0260 0.9707
6.5121 -2.9740 -2.0267 0.9707
6.6159 -2.7404 -2.0272 0.9707
7.0048 -1.5238 -2.0294 0.9706
7.0974 -1.0204 -2.0299 0.9706
7.1532 -0.5116 -2.0302 0.9706
7.1672 -0.2560 -2.0303 0.9706
-6.3550 0.0000 -1.9547 0.9738
-6.3392 -0.4534 -1.9548 0.9738
-6.3193 -0.6794 -1.9549 0.9738
-6.2559 -1.1287 -1.9552 0.9737
-6.2124 -1.3514 -1.9555 0.9737
-6.0355 -2.0088 -1.9565 0.9737
-5.8794 -2.4353 -1.9574 0.9737
-5.7902 -2.6443 -1.9579 0.9737
-5.2370 -3.6361 -1.9610 0.9737
-5.1059 -3.8222 -1.9617 0.9737
-4.9681 -4.0036 -1.9625 0.9737
-4.8240 -4.1801 -1.9633 0.9736
-4.6738 -4.3514 -1.9642 0.9736
-4.1877 -4.8328 -1.9669 0.9736
-4.0145 -4.9817 -1.9679 0.9736
-2.4592 -5.9371 -1.9766 0.9735
-1.8138 -6.1772 -1.9802 0.9734
-1.5932 -6.2419 -1.9814 0.9734
-0.6904 -6.4214 -1.9865 0.9733
-0.4611 -6.4461 -1.9877 0.9733
1.1527 -6.3888 -1.9968 0.9732
1.3808 -6.3476 -1.9980 0.9732
1.8325 -6.2408 -2.0006 0.9731
2.0553 -6.1752 -2.0018 0.9731
2.2758 -6.1017 -2.0030 0.9731
3.3328 -5.6172 -2.0089 0.9730
3.7291 -5.3710 -2.0112 0.9730
4.4646 -4.7954 -2.0153 0.9730
4.6351 -4.6351 -2.0162 0.9729
4.7998 -4.4688 -2.0171 0.9729
4.9584 -4.2965 -2.0180 0.9729
5.1108 -4.1185 -2.0189 0.9729
5.2566 -3.9351 -2.0197 0.9729
5.3958 -3.7464 -2.0204 0.9729
5.5281 -3.5527 -2.0212 0.9729
5.6533 -3.3543 -2.0219 0.9729
5.7713 -3.1514 -2.0225 0.9729
5.9849 -2.7332 -2.0237 0.9728
6.0802 -2.5185 -2.0242 0.9728
6.1677 -2.3004 -2.0247 0.9728
6.2473 -2.0793 -2.0252 0.9728
6.3820 -1.6289 -2.0259 0.9728
6.4371 -1.4003 -2.0262 0.9728
6.5221 -0.9377 -2.0267 0.9728
6.5519 -0.7044 -2.0268 0.9728
6.5861 -0.2352 -2.0270 0.9728
-5.8846 -0.2102 -1.9573 0.9755
-5.8735 -0.4201 -1.9574 0.9755
-5.8293 -0.8381 -1.9576 0.9755
-5.7963 -1.0457 -1.9578 0.9755
-5.7083 -1.4570 -1.9583 0.9755
-5.6536 -1.6600 -1.9586 0.9755
-5.5917 -1.8611 -1.9590 0.9755
-5.5229 -2.0599 -1.9594 0.9755
-5.3643 -2.4498 -1.9603 0.9754
-5.2748 -2.6404 -1.9608 0.9754
-5.0759 -3.0116 -1.9619 0.9754
-4.9667 -3.1919 -1.9625 0.9754
-4.7296 -3.5405 -1.9638 0.9754
-4.4683 -3.8718 -1.9653 0.9754
-4.1841 -4.1841 -1.9669 0.9754
-4.0338 -4.3326 -1.9677 0.9754
-3.7178 -4.6135 -1.9695 0.9753
-3.5524 -4.7454 -1.9704 0.9753
-3.3824 -4.8716 -1.9714 0.9753
-2.8466 -5.2131 -1.9744 0.9753
-2.6601 -5.3142 -1.9754 0.9753
-2.4701 -5.4087 -1.9765 0.9752
-1.8809 -5.6512 -1.9798 0.9752
-1.6790 -5.7180 -1.9809 0.9752
-1.2682 -5.8299 -1.9832 0.9752
-1.0600 -5.8749 -1.9844 0.9752
-0.4266 -5.9652 -1.9879 0.9751
-0.2136 -5.9802 -1.9891 0.9751
0.2138 -5.9874 -1.9915 0.9751
0.8542 -5.9409 -1.9951 0.9750
1.0663 -5.9101 -1.9963 0.9750
1.2773 -5.8718 -1.9975 0.9750
1.4869 -5.8258 -1.9986 0.9750
1.6949 -5.7724 -1.9998 0.9750
2.5048 -5.4848 -2.0043 0.9749
2.8928 -5.2979 -2.0065 0.9749
3.0817 -5.1940 -2.0075 0.9749
3.2668 -5.0833 -2.0086 0.9749
3.6247 -4.8421 -2.0106 0.9748
4.4368 -4.1308 -2.0151 0.9748
4.8586 -3.6371 -2.0174 0.9747
5.8390 -1.7145 -2.0229 0.9747
5.8975 -1.5052 -2.0232 0.9747
5.9913 -1.0810 -2.0237 0.9747
6.0542 -0.6509 -2.0241 0.9747
6.0857 -0.2174 -2.0242 0.9747
-5.4797 0.0000 -1.9596 0.9770
-5.4488 -0.5858 -1.9597 0.9770
-5.3940 -0.9732 -1.9601 0.9770
-5.3121 -1.3558 -1.9605 0.9770
-5.2611 -1.5448 -1.9608 0.9770
-5.2034 -1.7319 -1.9611 0.9770
-5.1393 -1.9168 -1.9615 0.9770
-4.9082 -2.4568 -1.9628 0.9770
-4.8186 -2.6312 -1.9633 0.9769
-4.6212 -2.9699 -1.9644 0.9769
-4.5136 -3.1339 -1.9650 0.9769
-4.2814 -3.4502 -1.9663 0.9769
-4.1570 -3.6021 -1.9670 0.9769
-4.0273 -3.7496 -1.9678 0.9769
-2.9838 -4.6428 -1.9736 0.9768
-2.4739 -4.9423 -1.9765 0.9768
-2.1172 -5.1114 -1.9785 0.9768
-1.9344 -5.1863 -1.9795 0.9768
-1.7490 -5.2548 -1.9805 0.9767
-1.3711 -5.3720 -1.9826 0.9767
-0.9855 -5.4620 -1.9848 0.9767
-0.7903 -5.4967 -1.9859 0.9767
-0.3966 -5.5453 -1.9881 0.9767
-0.1986 -5.5590 -1.9892 0.9766
0.1987 -5.5652 -1.9914 0.9766
0.3975 -5.5576 -1.9925 0.9766
0.5959 -5.5430 -1.9936 0.9766
1.5749 -5.3638 -1.9991 0.9765
1.7663 -5.3070 -2.0002 0.9765
1.9556 -5.2434 -2.0012 0.9765
2.3271 -5.0957 -2.0033 0.9765
2.5088 -5.0120 -2.0043 0.9765
3.0346 -4.7220 -2.0073 0.9764
3.2027 -4.6128 -2.0082 0.9764
3.5268 -4.3765 -2.0100 0.9764
3.8333 -4.1173 -2.0117 0.9764
3.9794 -3.9794 -2.0125 0.9764
4.1205 -3.8364 -2.0133 0.9764
4.2564 -3.6882 -2.0141 0.9764
4.8516 -2.8786 -2.0174 0.9763
5.0473 -2.5265 -2.0185 0.9763
5.1355 -2.3453 -2.0190 0.9763
5.2920 -1.9738 -2.0198 0.9763
5.3601 -1.7840 -2.0202 0.9763
5.4213 -1.5918 -2.0205 0.9763
5.4754 -1.3975 -2.0208 0.9763
5.5225 -1.2014 -2.0211 0.9763
5.6208 -0.6043 -2.0216 0.9763
5.6500 -0.2018 -2.0218 0.9763
-5.1155 -0.1827 -1.9616 0.9783
-5.1059 -0.3652 -1.9617 0.9783
-5.0674 -0.7286 -1.9619 0.9783
-5.0034 -1.0884 -1.9622 0.9783
-4.8604 -1.6177 -1.9631 0.9783
-4.7344 -1.9610 -1.9638 0.9783
-4.5006 -2.4575 -1.9651 0.9783
-4.3161 -2.7738 -1.9661 0.9783
-4.1097 -3.0764 -1.9673 0.9782
-3.9985 -3.2222 -1.9679 0.9782
-3.8822 -3.3640 -1.9686 0.9782
-3.3689 -3.8879 -1.9714 0.9782
-3.2293 -4.0073 -1.9722 0.9782
-3.0854 -4.1217 -1.9730 0.9782
-2.9376 -4.2309 -1.9739 0.9782
-2.7859 -4.3350 -1.9747 0.9782
-2.6306 -4.4336 -1.9756 0.9782
-2.4718 -4.5267 -1.9765 0.9781
-2.3097 -4.6141 -1.9774 0.9781
-1.9765 -4.7717 -1.9792 0.9781
-0.9198 -5.0979 -1.9852 0.9781
-0.7376 -5.1301 -1.9862 0.9780
-0.3701 -5.1750 -1.9882 0.9780
-0.0000 -5.1937 -1.9903 0.9780
0.1855 -5.1930 -1.9913 0.9780
0.7407 -5.1515 -1.9944 0.9780
1.2891 -5.0505 -1.9975 0.9779
1.4693 -5.0038 -1.9985 0.9779
1.6477 -4.9507 -1.9995 0.9779
1.9987 -4.8252 -2.0015 0.9779
2.5065 -4.5904 -2.0043 0.9778
3.2889 -4.0813 -2.0087 0.9778
3.4339 -3.9629 -2.0095 0.9778
3.8422 -3.5772 -2.0117 0.9778
3.9688 -3.4390 -2.0125 0.9778
4.3178 -2.9979 -2.0144 0.9777
4.5232 -2.6838 -2.0155 0.9777
4.6173 -2.5213 -2.0161 0.9777
4.7877 -2.1865 -2.0170 0.9777
4.8637 -2.0146 -2.0174 0.9777
4.9334 -1.8401 -2.0178 0.9777
5.0538 -1.4839 -2.0185 0.9777
5.1481 -1.1199 -2.0190 0.9777
5.1853 -0.9355 -2.0192 0.9777
5.2397 -0.5633 -2.0195 0.9777
5.2567 -0.3760 -2.0196 0.9777
-4.7972 0.0000 -1.9634 0.9795
-4.7942 -0.1712 -1.9634 0.9795
-4.7852 -0.3422 -1.9635 0.9795
-4.7701 -0.5128 -1.9635 0.9795
-4.7221 -0.8520 -1.9638 0.9795
-4.6891 -1.0200 -1.9640 0.9795
-4.5549 -1.5160 -1.9648 0.9795
-4.4986 -1.6779 -1.9651 0.9795
-4.2960 -2.1504 -1.9662 0.9795
-4.1336 -2.4526 -1.9671 0.9794
-3.6376 -3.1520 -1.9699 0.9794
-3.2831 -3.5263 -1.9719 0.9794
-3.1563 -3.6426 -1.9726 0.9794
-2.8906 -3.8614 -1.9741 0.9794
-2.7520 -3.9636 -1.9749 0.9794
-2.6098 -4.0610 -1.9757 0.9794
-2.4642 -4.1532 -1.9765 0.9793
-2.3154 -4.2404 -1.9773 0.9793
-2.0087 -4.3985 -1.9791 0.9793
-1.8513 -4.4694 -1.9799 0.9793
-1.5291 -4.5943 -1.9817 0.9793
-1.1986 -4.6960 -1.9836 0.9793
-1.0307 -4.7381 -1.9845 0.9793
-0.8614 -4.7741 -1.9855 0.9793
-0.6907 -4.8041 -1.9864 0.9792
-0.5191 -4.8281 -1.9874 0.9792
-0.3466 -4.8459 -1.9884 0.9792
-0.0000 -4.8630 -1.9903 0.9792
0.1737 -4.8622 -1.9913 0.9792
0.3472 -4.8553 -1.9922 0.9792
0.5206 -4.8422 -1.9932 0.9792
1.5424 -4.6341 -1.9989 0.9791
1.7076 -4.5782 -1.9998 0.9791
1.8707 -4.5164 -2.0007 0.9791
2.0317 -4.4488 -2.0016 0.9791
2.1901 -4.3753 -2.0025 0.9791
2.3459 -4.2962 -2.0034 0.9791
2.6487 -4.1214 -2.0051 0.9790
2.9383 -3.9251 -2.0067 0.9790
3.7135 -3.2177 -2.0110 0.9790
4.0398 -2.8049 -2.0128 0.9790
4.3198 -2.3588 -2.0144 0.9790
4.6153 -1.7214 -2.0160 0.9789
4.6745 -1.5558 -2.0164 0.9789
4.7749 -1.2187 -2.0169 0.9789
4.8792 -0.7015 -2.0175 0.9789
4.9174 -0.3517 -2.0177 0.9789
4.9269 -0.1760 -2.0177 0.9789
-1.4601 0.0000 -0.6363 0.9936
-1.4571 -0.0520 -0.6354 0.9937
-1.4359 -0.1544 -0.6294 0.9937
-1.3955 -0.2518 -0.6180 0.9938
-1.3688 -0.2978 -0.6105 0.9939
-1.3722 -0.4029 -0.6233 0.9938
-1.5118 -0.5639 -0.7032 0.9930
-4.1061 -1.8752 -1.9673 0.9805
-3.8846 -2.3048 -1.9685 0.9805
-3.7121 -2.5773 -1.9695 0.9805
-3.5207 -2.8371 -1.9706 0.9805
-3.2002 -3.2001 -1.9724 0.9804
-3.0849 -3.3134 -1.9730 0.9804
-2.9657 -3.4226 -1.9737 0.9804
-2.8426 -3.5275 -1.9744 0.9804
-2.7159 -3.6280 -1.9751 0.9804
-2.4520 -3.8154 -1.9766 0.9804
-2.3151 -3.9019 -1.9773 0.9804
-2.1752 -3.9837 -1.9781 0.9804
-2.0325 -4.0604 -1.9789 0.9804
-1.7391 -4.1986 -1.9806 0.9804
-1.5888 -4.2598 -1.9814 0.9804
-1.1258 -4.4109 -1.9840 0.9803
-0.8090 -4.4840 -1.9858 0.9803
-0.6487 -4.5121 -1.9867 0.9803
-0.4875 -4.5344 -1.9876 0.9803
-0.3255 -4.5510 -1.9885 0.9803
-0.1629 -4.5618 -1.9894 0.9803
-0.0000 -4.5668 -1.9903 0.9803
0.1631 -4.5660 -1.9912 0.9803
0.3261 -4.5593 -1.9921 0.9803
0.6511 -4.5286 -1.9939 0.9802
0.8127 -4.5045 -1.9948 0.9802
1.1330 -4.4390 -1.9966 0.9802
1.4480 -4.3507 -1.9984 0.9802
1.6031 -4.2981 -1.9992 0.9802
1.7562 -4.2400 -2.0001 0.9802
2.0560 -4.1073 -2.0018 0.9802
2.3456 -3.9534 -2.0034 0.9801
2.4862 -3.8686 -2.0042 0.9801
2.6237 -3.7789 -2.0049 0.9801
2.7580 -3.6842 -2.0057 0.9801
3.1393 -3.3718 -2.0078 0.9801
3.2587 -3.2587 -2.0085 0.9801
3.5917 -2.8944 -2.0103 0.9801
4.1310 -2.0678 -2.0133 0.9800
4.2030 -1.9195 -2.0137 0.9800
4.2697 -1.7686 -2.0141 0.9800
4.4362 -1.3026 -2.0150 0.9800
4.4805 -1.1436 -2.0153 0.9800
4.5515 -0.8212 -2.0157 0.9800
4.5991 -0.4945 -2.0159 0.9800
-1.2362 -0.0884 -0.5737 0.9946
-1.2124 -0.1743 -0.5670 0.9946
-1.1974 -0.2160 -0.5632 0.9947
-1.1330 -0.3327 -0.5466 0.9948
-3.8686 -1.7667 -1.9686 0.9814
-3.6598 -2.1714 -1.9698 0.9814
-3.4971 -2.4281 -1.9707 0.9814
-3.3167 -2.6728 -1.9717 0.9814
-3.2201 -2.7902 -1.9722 0.9814
-3.1193 -2.9042 -1.9728 0.9814
-2.9060 -3.1212 -1.9740 0.9814
-2.7936 -3.2240 -1.9746 0.9814
-2.5582 -3.4173 -1.9760 0.9814
-2.3095 -3.5937 -1.9774 0.9813
-2.1806 -3.6752 -1.9781 0.9813
-2.0488 -3.7521 -1.9788 0.9813
-1.7773 -3.8916 -1.9803 0.9813
-1.4963 -4.0117 -1.9819 0.9813
-1.2073 -4.1116 -1.9835 0.9813
-0.3065 -4.2851 -1.9886 0.9812
-0.1534 -4.2951 -1.9894 0.9812
-0.0000 -4.2997 -1.9903 0.9812
0.6130 -4.2633 -1.9937 0.9812
1.9351 -3.8658 -2.0011 0.9811
2.2076 -3.7207 -2.0026 0.9811
2.3399 -3.6409 -2.0034 0.9811
2.4692 -3.5564 -2.0041 0.9811
2.5955 -3.4672 -2.0048 0.9811
2.7185 -3.3735 -2.0055 0.9811
3.0665 -3.0665 -2.0074 0.9811
3.2794 -2.8416 -2.0086 0.9811
3.3797 -2.7235 -2.0091 0.9811
3.4757 -2.6019 -2.0097 0.9810
3.5672 -2.4768 -2.0102 0.9810
3.6542 -2.3484 -2.0107 0.9810
3.8868 -1.9456 -2.0120 0.9810
4.1269 -1.3736 -2.0133 0.9810
4.1738 -1.2256 -2.0136 0.9810
4.2154 -1.0759 -2.0138 0.9810
4.2515 -0.9249 -2.0140 0.9810
4.3073 -0.6193 -2.0143 0.9810
4.3269 -0.4652 -2.0144 0.9810
4.3493 -0.1553 -2.0145 0.9810
-1.0817 0.0000 -0.5306 0.9952
-1.0769 -0.0770 -0.5296 0.9952
-1.0307 -0.2631 -0.5218 0.9953
-1.0175 -0.2987 -0.5202 0.9953
-1.0444 -0.4770 -0.5632 0.9949
-1.0589 -0.5300 -0.5808 0.9947
-3.3019 -2.2925 -1.9718 0.9823
-3.2188 -2.4095 -1.9722 0.9822
-3.1315 -2.5235 -1.9727 0.9822
-3.0402 -2.6343 -1.9733 0.9822
-2.9450 -2.7419 -1.9738 0.9822
-2.8461 -2.8461 -1.9743 0.9822
-2.5278 -3.1369 -1.9761 0.9822
-2.4150 -3.2261 -1.9768 0.9822
-2.2991 -3.3113 -1.9774 0.9822
-2.0584 -3.4693 -1.9788 0.9822
-1.8070 -3.6099 -1.9802 0.9822
-1.5460 -3.7323 -1.9816 0.9822
-1.4123 -3.7865 -1.9824 0.9822
-1.2768 -3.8360 -1.9831 0.9821
-1.1395 -3.8806 -1.9839 0.9821
-0.8604 -3.9552 -1.9855 0.9821
-0.0000 -4.0575 -1.9903 0.9821
0.1449 -4.0565 -1.9911 0.9821
0.2897 -4.0504 -1.9919 0.9821
0.4342 -4.0391 -1.9927 0.9821
0.5784 -4.0227 -1.9935 0.9821
1.4236 -3.8168 -1.9982 0.9820
1.5595 -3.7650 -1.9990 0.9820
1.8255 -3.6469 -2.0005 0.9820
2.2072 -3.4345 -2.0026 0.9820
2.4482 -3.2705 -2.0040 0.9820
2.5642 -3.1821 -2.0046 0.9820
2.7864 -2.9929 -2.0058 0.9819
2.9946 -2.7880 -2.0070 0.9819
3.2780 -2.4539 -2.0086 0.9819
3.3643 -2.3359 -2.0091 0.9819
3.5239 -2.0909 -2.0099 0.9819
3.7294 -1.7032 -2.0111 0.9819
3.8918 -1.2953 -2.0120 0.9819
3.9360 -1.1557 -2.0122 0.9819
3.9752 -1.0146 -2.0124 0.9819
4.0092 -0.8722 -2.0126 0.9819
4.0381 -0.7286 -2.0128 0.9819
4.0803 -0.4387 -2.0130 0.9819
4.0935 -0.2928 -2.0131 0.9819
4.1014 -0.1465 -2.0131 0.9819
-0.9895 0.0000 -0.5133 0.9956
-0.9873 -0.0706 -0.5135 0.9955
-0.9838 -0.1058 -0.5133 0.9956
-0.9715 -0.1753 -0.5121 0.9956
-0.9524 -0.2431 -0.5099 0.9956
-0.9268 -0.3085 -0.5067 0.9956
-0.9208 -0.3434 -0.5098 0.9956
-0.9271 -0.3840 -0.5206 0.9955
-0.9326 -0.4259 -0.5319 0.9954
-0.9416 -0.4713 -0.5463 0.9953
-3.2690 -1.9396 -1.9720 0.9830
-3.1984 -2.0555 -1.9724 0.9830
-3.1237 -2.1688 -1.9728 0.9830
-3.0449 -2.2794 -1.9732 0.9830
-2.9623 -2.3872 -1.9737 0.9830
-2.8759 -2.4920 -1.9742 0.9830
-2.4947 -2.8790 -1.9763 0.9830
-2.3911 -2.9671 -1.9769 0.9830
-2.0621 -3.2087 -1.9787 0.9830
-1.7090 -3.4142 -1.9807 0.9829
-1.5866 -3.4742 -1.9814 0.9829
-1.0776 -3.6699 -1.9842 0.9829
-0.9463 -3.7074 -1.9850 0.9829
-0.8136 -3.7402 -1.9857 0.9829
-0.6799 -3.7683 -1.9865 0.9829
-0.5452 -3.7916 -1.9872 0.9829
-0.4096 -3.8101 -1.9880 0.9829
0.1370 -3.8355 -1.9910 0.9829
0.2739 -3.8296 -1.9918 0.9828
0.4106 -3.8189 -1.9926 0.9828
0.6825 -3.7827 -1.9941 0.9828
1.0841 -3.6923 -1.9963 0.9828
1.2157 -3.6526 -1.9971 0.9828
1.4742 -3.5591 -1.9985 0.9828
1.6009 -3.5054 -1.9992 0.9828
1.9684 -3.3176 -2.0013 0.9828
2.0863 -3.2463 -2.0019 0.9828
2.2015 -3.1708 -2.0026 0.9828
2.3140 -3.0912 -2.0032 0.9828
2.4236 -3.0075 -2.0038 0.9827
2.6335 -2.8286 -2.0050 0.9827
2.8302 -2.6350 -2.0061 0.9827
2.9232 -2.5329 -2.0066 0.9827
3.0125 -2.4276 -2.0071 0.9827
3.0979 -2.3191 -2.0076 0.9827
3.2569 -2.0931 -2.0084 0.9827
3.3302 -1.9759 -2.0089 0.9827
3.4640 -1.7339 -2.0096 0.9827
3.5242 -1.6095 -2.0099 0.9827
3.6311 -1.3544 -2.0105 0.9827
3.7194 -1.0921 -2.0110 0.9827
3.7564 -0.9588 -2.0112 0.9827
3.7885 -0.8242 -2.0114 0.9827
3.8382 -0.5519 -2.0117 0.9827
3.8556 -0.4145 -2.0118 0.9827
-0.9182 0.0000 -0.5029 0.9958
-0.9161 -0.0655 -0.5030 0.9958
-0.9127 -0.0981 -0.5028 0.9958
-0.9077 -0.1305 -0.5022 0.9958
-0.9011 -0.1626 -0.5015 0.9958
-0.8932 -0.1943 -0.5006 0.9958
-0.8837 -0.2255 -0.4995 0.9958
-0.8603 -0.2863 -0.4966 0.9959
-0.8465 -0.3157 -0.4948 0.9959
-0.8516 -0.4263 -0.5216 0.9957
-3.0309 -1.9479 -1.9733 0.9837
-2.9601 -2.0552 -1.9737 0.9837
-2.8854 -2.1600 -1.9741 0.9837
-2.3639 -2.7280 -1.9770 0.9837
-2.1644 -2.8913 -1.9782 0.9837
-2.0605 -2.9676 -1.9787 0.9837
-1.9538 -3.0402 -1.9793 0.9837
-1.8446 -3.1089 -1.9799 0.9836
-1.6192 -3.2347 -1.9812 0.9836
-1.3852 -3.3442 -1.9825 0.9836
-0.7708 -3.5431 -1.9860 0.9836
-0.6440 -3.5696 -1.9867 0.9836
-0.2591 -3.6220 -1.9888 0.9836
-0.1297 -3.6302 -1.9895 0.9836
0.2594 -3.6272 -1.9917 0.9836
0.3889 -3.6170 -1.9924 0.9835
0.9009 -3.5299 -1.9953 0.9835
1.0267 -3.4967 -1.9960 0.9835
1.1513 -3.4590 -1.9967 0.9835
1.3960 -3.3704 -1.9981 0.9835
1.5160 -3.3195 -1.9987 0.9835
1.7501 -3.2050 -2.0000 0.9835
1.9755 -3.0739 -2.0013 0.9835
2.0846 -3.0024 -2.0019 0.9835
2.3956 -2.7647 -2.0036 0.9835
2.6796 -2.4948 -2.0052 0.9834
2.7676 -2.3981 -2.0057 0.9834
2.8521 -2.2984 -2.0062 0.9834
2.9330 -2.1956 -2.0066 0.9834
3.0101 -2.0900 -2.0071 0.9834
3.0834 -1.9816 -2.0075 0.9834
3.1528 -1.8706 -2.0079 0.9834
3.2793 -1.6415 -2.0086 0.9834
3.3364 -1.5237 -2.0089 0.9834
3.3891 -1.4038 -2.0092 0.9834
3.4815 -1.1588 -2.0097 0.9834
3.5210 -1.0339 -2.0099 0.9834
3.6123 -0.6517 -2.0104 0.9834
3.6499 -0.3924 -2.0106 0.9834
3.6688 -0.1310 -2.0107 0.9834
-0.8499 -0.0914 -0.4935 0.9961
-0.8393 -0.1514 -0.4924 0.9961
-0.8014 -0.2667 -0.4876 0.9961
-0.7796 -0.3229 -0.4872 0.9961
-0.7809 -0.3566 -0.4957 0.9960
-0.7787 -0.4252 -0.5122 0.9959
-0.7634 -0.5300 -0.5366 0.9957
-2.6640 -2.1468 -1.9753 0.9843
-2.5052 -2.3325 -1.9762 0.9843
-2.3336 -2.5064 -1.9772 0.9843
-2.0539 -2.7437 -1.9788 0.9843
-1.9552 -2.8161 -1.9793 0.9843
-1.8540 -2.8849 -1.9799 0.9843
-1.7504 -2.9501 -1.9805 0.9843
-1.6445 -3.0116 -1.9811 0.9843
-0.6110 -3.3866 -1.9868 0.9842
-0.4899 -3.4075 -1.9875 0.9842
-0.3681 -3.4239 -1.9882 0.9842
0.1231 -3.4462 -1.9910 0.9842
0.2461 -3.4408 -1.9916 0.9842
0.3689 -3.4310 -1.9923 0.9842
0.4913 -3.4169 -1.9930 0.9842
0.6131 -3.3983 -1.9937 0.9842
0.7343 -3.3754 -1.9944 0.9842
0.8546 -3.3482 -1.9950 0.9842
0.9739 -3.3166 -1.9957 0.9842
1.0920 -3.2809 -1.9964 0.9842
1.2088 -3.2409 -1.9970 0.9842
1.3241 -3.1967 -1.9977 0.9841
1.4378 -3.1484 -1.9983 0.9841
1.5497 -3.0960 -1.9989 0.9841
1.6598 -3.0397 -1.9995 0.9841
1.8735 -2.9153 -2.0007 0.9841
1.9769 -2.8473 -2.0013 0.9841
2.0779 -2.7758 -2.0019 0.9841
2.1762 -2.7006 -2.0024 0.9841
2.3646 -2.5398 -2.0035 0.9841
2.5410 -2.3658 -2.0045 0.9841
2.7812 -2.0820 -2.0058 0.9841
2.8543 -1.9818 -2.0062 0.9841
2.9238 -1.8790 -2.0066 0.9841
3.1095 -1.5565 -2.0076 0.9841
3.2594 -1.2157 -2.0084 0.9841
3.3717 -0.8606 -2.0091 0.9841
3.4607 -0.3721 -2.0096 0.9841
