ply
format ascii 1.0
element vertex 739
property float32 x
property float32 y
property float32 z
property float32 I
end_header
5.3104 8.2631 1.7319 0.9609
5.3098 8.2621 1.5046 0.9610
5.3090 8.2609 1.2787 0.9612
5.3082 8.2597 1.0543 0.9613
5.3074 8.2585 0.8310 0.9614
5.3067 8.2573 0.6087 0.9614
5.3059 8.2561 0.3870 0.9615
5.3036 8.2526 -0.2762 0.9615
5.3029 8.2514 -0.4974 0.9615
-9.2539 3.4515 -0.5009 0.9612
-9.2685 3.4570 -0.7253 0.9611
-8.5335 3.5347 -0.8868 0.9636
0.3968 3.6906 -0.5259 0.9851
-0.3717 3.4575 -0.4927 0.9860
-0.5054 3.5151 -0.5032 0.9858
-0.6570 3.6414 -0.5243 0.9852
-8.2319 3.4098 -1.2625 0.9646
0.3393 3.1558 -0.5229 0.9872
0.2220 3.1042 -0.5127 0.9875
0.1110 3.1078 -0.5123 0.9875
-0.1110 3.1077 -0.5123 0.9875
-0.2219 3.1032 -0.5125 0.9875
-0.4465 3.1054 -0.5168 0.9874
-0.5672 3.1439 -0.5263 0.9871
-1.0716 3.6496 -0.6266 0.9847
5.2278 8.1346 -1.8175 0.9614
0.5575 3.0902 -0.5902 0.9873
0.2119 2.9629 -0.5583 0.9880
0.1058 2.9634 -0.5574 0.9880
0.0000 2.9643 -0.5572 0.9880
-0.1059 2.9645 -0.5576 0.9880
-0.2120 2.9642 -0.5586 0.9880
-0.3186 2.9633 -0.5602 0.9879
-0.6482 2.9798 -0.5732 0.9877
-0.7634 2.9910 -0.5802 0.9875
-0.8942 3.0454 -0.5966 0.9872
-4.0063 8.7725 -1.8127 0.9615
-4.3123 8.6149 -1.8108 0.9615
-4.6123 8.4469 -1.8090 0.9616
-5.1929 8.0803 -1.8054 0.9617
-5.7844 7.7270 -1.8142 0.9615
-8.2844 3.4315 -1.6854 0.9642
9.4676 2.0596 -2.0481 0.9612
9.3858 2.3956 -2.0476 0.9612
9.2916 2.7283 -2.0470 0.9612
9.1854 3.0572 -2.0463 0.9612
9.0672 3.3819 -2.0456 0.9612
8.4785 4.6296 -2.0420 0.9613
7.9217 5.5001 -2.0385 0.9613
7.7155 5.7757 -2.0372 0.9614
7.4995 6.0434 -2.0359 0.9614
7.2740 6.3030 -2.0345 0.9614
6.7960 6.7960 -2.0316 0.9615
6.2838 7.2519 -2.0283 0.9615
4.2250 7.7375 -1.8635 0.9646
3.9424 7.8759 -1.8617 0.9646
3.3641 8.1215 -1.8582 0.9647
1.4813 3.9716 -0.8960 0.9828
0.9108 3.1019 -0.6834 0.9869
0.7644 2.9947 -0.6533 0.9874
0.6435 2.9579 -0.6399 0.9877
0.5311 2.9439 -0.6323 0.9878
0.4212 2.9295 -0.6256 0.9880
-0.2080 2.9081 -0.6163 0.9882
-0.3125 2.9070 -0.6180 0.9881
-0.4179 2.9069 -0.6208 0.9881
-0.6370 2.9283 -0.6335 0.9878
-0.8599 2.9285 -0.6452 0.9876
-1.4832 3.2477 -0.7547 0.9855
-4.9517 7.7050 -1.9360 0.9632
-5.2654 7.5836 -1.9515 0.9630
-5.5370 7.3965 -1.9530 0.9629
-6.0483 6.9801 -1.9523 0.9629
-6.7449 6.2797 -1.9480 0.9630
-7.1661 5.7748 -1.9454 0.9631
-7.5506 5.2425 -1.9430 0.9631
-8.0549 4.3983 -1.9399 0.9632
-8.2320 3.4098 -1.8834 0.9642
-8.5844 3.2018 -1.9367 0.9632
-8.6903 2.8924 -1.9360 0.9632
-8.7853 2.5796 -1.9354 0.9633
-8.9425 1.9453 -1.9345 0.9633
-9.0552 1.3019 -1.9338 0.9633
-9.0948 0.9778 -1.9335 0.9633
-9.1401 0.3265 -1.9333 0.9633
8.6713 0.6202 -2.0432 0.9649
8.6429 0.9292 -2.0430 0.9649
8.6032 1.2369 -2.0427 0.9649
8.5522 1.5430 -2.0424 0.9649
8.1320 3.0331 -2.0398 0.9650
7.7523 3.8805 -2.0375 0.9650
7.4488 4.4196 -2.0356 0.9650
7.2827 4.6803 -2.0346 0.9651
7.1072 4.9346 -2.0335 0.9651
6.9227 5.1822 -2.0324 0.9651
6.7293 5.4228 -2.0312 0.9651
6.0994 6.0994 -2.0273 0.9652
5.8737 6.3088 -2.0259 0.9652
5.1544 6.8854 -2.0214 0.9653
4.6428 7.2243 -2.0183 0.9653
2.1252 3.5819 -0.9789 0.9830
1.9368 3.5470 -0.9498 0.9835
1.5596 3.4151 -0.8824 0.9847
1.1902 3.1911 -0.8004 0.9861
0.9786 2.9401 -0.7283 0.9873
0.5215 2.8903 -0.6903 0.9880
0.4136 2.8768 -0.6831 0.9881
0.1021 2.8596 -0.6725 0.9883
-0.1020 2.8561 -0.6717 0.9883
-0.4099 2.8511 -0.6770 0.9882
-0.5162 2.8609 -0.6832 0.9881
-0.6265 2.8798 -0.6926 0.9880
-0.8391 2.8578 -0.7000 0.9878
-0.9538 2.8657 -0.7098 0.9877
-1.3444 2.9438 -0.7606 0.9868
-1.6529 3.0272 -0.8106 0.9859
-4.7569 6.8513 -1.9603 0.9663
-4.9947 6.6721 -1.9588 0.9663
-5.2258 6.4849 -1.9574 0.9664
-5.4501 6.2898 -1.9560 0.9664
-5.6673 6.0871 -1.9547 0.9664
-5.8770 5.8770 -1.9534 0.9664
-6.0792 5.6599 -1.9521 0.9664
-6.2735 5.4360 -1.9509 0.9665
-6.6376 4.9689 -1.9487 0.9665
-6.8071 4.7263 -1.9476 0.9665
-7.2628 3.9658 -1.9448 0.9666
-7.3966 3.7025 -1.9440 0.9666
-7.5211 3.4347 -1.9432 0.9666
-7.6361 3.1630 -1.9425 0.9666
-7.7415 2.8874 -1.9419 0.9666
-7.9993 2.0417 -1.9403 0.9666
-8.1674 1.1743 -1.9393 0.9667
-8.2031 0.8819 -1.9390 0.9667
-8.2287 0.5885 -1.9389 0.9667
-8.2441 0.2944 -1.9388 0.9667
7.8516 0.5615 -2.0381 0.9680
7.8259 0.8414 -2.0379 0.9680
7.7440 1.3972 -2.0374 0.9680
7.6879 1.6724 -2.0371 0.9680
7.4599 2.4829 -2.0357 0.9680
7.2594 3.0069 -2.0344 0.9681
7.0213 3.5146 -2.0330 0.9681
6.8886 3.7614 -2.0321 0.9681
6.5968 4.2395 -2.0303 0.9681
6.2714 4.6947 -2.0283 0.9681
6.0966 4.9129 -2.0273 0.9682
5.9140 5.1245 -2.0261 0.9682
5.7240 5.3293 -2.0250 0.9682
5.5268 5.5268 -2.0237 0.9682
5.1120 5.8996 -2.0212 0.9683
4.8949 6.0742 -2.0198 0.9683
4.6718 6.2408 -2.0185 0.9683
1.7204 3.1507 -0.9295 0.9853
1.5590 3.1144 -0.9017 0.9857
1.2511 3.0205 -0.8465 0.9866
1.0801 2.8958 -0.8002 0.9873
0.9497 2.8535 -0.7787 0.9877
0.8369 2.8502 -0.7691 0.9878
0.7264 2.8460 -0.7605 0.9879
0.5115 2.8348 -0.7458 0.9882
0.4062 2.8253 -0.7391 0.9883
0.3023 2.8122 -0.7323 0.9884
0.0000 2.8090 -0.7273 0.9885
-0.2006 2.8043 -0.7279 0.9885
-0.5078 2.8144 -0.7405 0.9883
-0.8259 2.8126 -0.7590 0.9880
-1.0616 2.8462 -0.7865 0.9875
-1.4271 2.8511 -0.8255 0.9869
-1.8604 2.8949 -0.8910 0.9859
-4.5402 6.0651 -1.9616 0.9692
-5.1526 5.5343 -1.9578 0.9692
-5.7047 4.9432 -1.9544 0.9693
-5.8744 4.7339 -1.9534 0.9693
-6.3375 4.0729 -1.9505 0.9694
-6.4760 3.8424 -1.9497 0.9694
-6.7282 3.3679 -1.9481 0.9694
-6.9466 2.8774 -1.9468 0.9694
-7.0427 2.6268 -1.9462 0.9694
-7.2084 2.1166 -1.9452 0.9694
-7.3380 1.5963 -1.9444 0.9694
-7.3891 1.3331 -1.9441 0.9695
-7.4636 0.8024 -1.9436 0.9695
-7.5010 0.2679 -1.9434 0.9695
7.1849 -0.0000 -2.0340 0.9706
7.1802 0.2565 -2.0340 0.9706
7.1662 0.5125 -2.0339 0.9706
7.1101 1.0223 -2.0335 0.9706
6.8094 2.2664 -2.0317 0.9706
6.7224 2.5073 -2.0311 0.9706
6.6267 2.7449 -2.0305 0.9706
6.4098 3.2085 -2.0292 0.9706
6.1598 3.6548 -2.0277 0.9707
5.8784 4.0814 -2.0259 0.9707
5.5669 4.4861 -2.0240 0.9707
5.4005 4.6796 -2.0230 0.9707
4.8613 5.2214 -2.0196 0.9708
4.6691 5.3885 -2.0184 0.9708
2.2140 2.9576 -1.0459 0.9848
1.8864 2.9353 -0.9878 0.9856
1.4431 2.8829 -0.9127 0.9867
1.3200 2.8903 -0.8995 0.9869
0.3985 2.7713 -0.7926 0.9884
0.1980 2.7688 -0.7858 0.9885
0.0989 2.7684 -0.7842 0.9886
-0.0000 2.7675 -0.7835 0.9886
-0.2969 2.7614 -0.7862 0.9885
-0.3966 2.7582 -0.7889 0.9885
-0.6068 2.7896 -0.8082 0.9882
-1.1724 2.8304 -0.8673 0.9873
-1.2878 2.8200 -0.8776 0.9872
-1.3962 2.7893 -0.8830 0.9871
-4.3505 5.3986 -1.9628 0.9716
-4.7190 5.0686 -1.9605 0.9716
-4.8943 4.8942 -1.9594 0.9716
-5.2255 4.5279 -1.9574 0.9717
-5.8060 3.7313 -1.9538 0.9717
-5.9332 3.5203 -1.9530 0.9717
-6.1647 3.0858 -1.9516 0.9717
-6.5335 2.1745 -1.9493 0.9718
-6.6054 1.9395 -1.9489 0.9718
-6.6691 1.7022 -1.9485 0.9718
-6.7714 1.2217 -1.9479 0.9718
-6.8098 0.9791 -1.9476 0.9718
-6.8398 0.7354 -1.9475 0.9718
-6.8741 0.2455 -1.9472 0.9718
6.5969 0.2356 -2.0304 0.9728
6.5327 0.9392 -2.0300 0.9728
6.4942 1.1717 -2.0297 0.9728
6.4473 1.4025 -2.0294 0.9728
6.3285 1.8582 -2.0287 0.9728
6.2568 2.0825 -2.0283 0.9728
6.0892 2.5222 -2.0272 0.9728
5.9935 2.7372 -2.0266 0.9728
5.8902 2.9484 -2.0260 0.9728
5.7792 3.1557 -2.0253 0.9728
5.6609 3.3587 -2.0246 0.9728
5.5353 3.5573 -2.0238 0.9728
5.4026 3.7511 -2.0230 0.9729
5.2630 3.9398 -2.0221 0.9729
5.1168 4.1233 -2.0212 0.9729
4.6399 4.6399 -2.0183 0.9729
4.4690 4.8000 -2.0172 0.9729
4.2925 4.9538 -2.0161 0.9729
1.9263 2.7744 -1.0389 0.9860
1.7782 2.7669 -1.0116 0.9863
1.5279 2.7982 -0.9806 0.9867
1.2856 2.8151 -0.9519 0.9871
1.0178 2.7289 -0.8958 0.9879
0.9096 2.7331 -0.8860 0.9880
0.8031 2.7351 -0.8768 0.9881
0.6983 2.7359 -0.8685 0.9883
0.5952 2.7362 -0.8613 0.9883
0.3932 2.7349 -0.8498 0.9885
0.2939 2.7335 -0.8456 0.9886
0.1955 2.7328 -0.8427 0.9886
-0.0000 2.7300 -0.8397 0.9886
-0.0975 2.7286 -0.8398 0.9886
-0.1950 2.7265 -0.8408 0.9886
-0.3912 2.7206 -0.8454 0.9886
-0.7006 2.7450 -0.8714 0.9882
-0.8024 2.7329 -0.8761 0.9882
-1.2567 2.7518 -0.9305 0.9874
-1.3659 2.7287 -0.9386 0.9873
-1.6097 2.7130 -0.9703 0.9869
-1.7916 2.7878 -1.0193 0.9862
-3.6475 5.2534 -1.9671 0.9736
-3.8305 5.1169 -1.9660 0.9736
-4.1812 4.8253 -1.9638 0.9736
-4.3484 4.6706 -1.9628 0.9736
-4.5101 4.5101 -1.9618 0.9737
-4.6659 4.3441 -1.9608 0.9737
-4.8157 4.1729 -1.9599 0.9737
-4.9593 3.9965 -1.9590 0.9737
-5.0966 3.8153 -1.9582 0.9737
-5.2274 3.6295 -1.9574 0.9737
-5.4688 3.2448 -1.9559 0.9737
-5.6826 2.8445 -1.9546 0.9738
-5.9491 2.2189 -1.9529 0.9738
-6.0895 1.7881 -1.9521 0.9738
-6.1994 1.3486 -1.9514 0.9738
-6.2427 1.1263 -1.9511 0.9738
-6.3059 0.6780 -1.9507 0.9738
6.0949 0.2177 -2.0273 0.9746
6.0356 0.8678 -2.0269 0.9746
5.3404 2.9161 -2.0226 0.9747
5.2312 3.1038 -2.0219 0.9747
5.1153 3.2874 -2.0212 0.9747
4.9928 3.4666 -2.0205 0.9747
4.2887 4.2887 -2.0161 0.9748
2.1524 2.6710 -1.1403 0.9856
1.8644 2.6853 -1.0867 0.9863
1.5939 2.6864 -1.0383 0.9869
1.4777 2.7062 -1.0249 0.9871
0.8962 2.6925 -0.9433 0.9881
0.7917 2.6962 -0.9341 0.9882
0.6890 2.6992 -0.9260 0.9883
0.2901 2.6978 -0.9019 0.9886
0.0963 2.6962 -0.8968 0.9887
0.0000 2.6945 -0.8957 0.9887
-0.0961 2.6921 -0.8955 0.9887
-0.1924 2.6896 -0.8963 0.9887
-0.2889 2.6869 -0.8983 0.9887
-0.4862 2.6948 -0.9102 0.9885
-0.5872 2.6992 -0.9182 0.9884
-0.6890 2.6997 -0.9261 0.9883
-0.7897 2.6896 -0.9318 0.9883
-0.8901 2.6744 -0.9369 0.9882
-1.5944 2.6873 -1.0387 0.9869
-1.7685 2.7518 -1.0873 0.9863
-3.7125 4.6070 -1.9667 0.9754
-3.8726 4.4692 -1.9657 0.9754
-4.4610 3.8655 -1.9621 0.9754
-4.7215 3.5345 -1.9605 0.9754
-4.8428 3.3624 -1.9598 0.9755
-4.9580 3.1863 -1.9591 0.9755
-5.0668 3.0063 -1.9584 0.9755
-5.2651 2.6355 -1.9572 0.9755
-5.6426 1.6568 -1.9548 0.9755
-5.7446 1.2497 -1.9542 0.9755
-5.8435 0.6282 -1.9536 0.9755
-5.8729 0.2098 -1.9534 0.9755
5.6615 0.0000 -2.0246 0.9762
5.6578 0.2021 -2.0246 0.9762
5.6468 0.4039 -2.0245 0.9762
5.5700 1.0049 -2.0240 0.9762
5.5299 1.2029 -2.0238 0.9762
5.2235 2.1637 -2.0219 0.9763
5.1417 2.3481 -2.0214 0.9763
5.0533 2.5295 -2.0208 0.9763
4.9583 2.7074 -2.0202 0.9763
4.8570 2.8818 -2.0196 0.9763
4.6359 3.2188 -2.0182 0.9763
4.1242 3.8397 -2.0151 0.9763
3.9828 3.9828 -2.0142 0.9764
3.8364 4.1205 -2.0133 0.9764
2.3465 2.7080 -1.2814 0.9849
1.9701 2.6317 -1.1756 0.9861
1.8382 2.6475 -1.1526 0.9864
1.5658 2.6390 -1.0973 0.9870
1.3164 2.6298 -1.0517 0.9876
1.0370 2.5035 -0.9690 0.9886
0.9258 2.4822 -0.9474 0.9888
0.8829 2.6525 -0.9997 0.9882
0.5792 2.6624 -0.9744 0.9885
0.3829 2.6634 -0.9623 0.9886
0.2863 2.6625 -0.9576 0.9887
0.1904 2.6621 -0.9544 0.9887
0.0000 2.6595 -0.9510 0.9888
-0.0949 2.6572 -0.9508 0.9888
-0.3806 2.6470 -0.9563 0.9887
-0.4783 2.6511 -0.9634 0.9886
-0.5773 2.6539 -0.9713 0.9885
-0.9858 2.6431 -1.0088 0.9881
-1.0957 2.6452 -1.0239 0.9879
-1.5862 2.6734 -1.1117 0.9869
-1.7456 2.7161 -1.1546 0.9864
-3.3001 4.4084 -1.9693 0.9769
-3.4537 4.2858 -1.9683 0.9769
-4.1507 3.5966 -1.9640 0.9769
-4.2747 3.4448 -1.9633 0.9769
-4.3933 3.2888 -1.9625 0.9770
-4.5063 3.1288 -1.9618 0.9770
-4.8997 2.4526 -1.9594 0.9770
-5.1940 1.7287 -1.9576 0.9770
-5.3023 1.3533 -1.9569 0.9770
-5.3840 0.9714 -1.9564 0.9770
-5.4386 0.5847 -1.9561 0.9770
-5.4557 0.3902 -1.9560 0.9770
5.2770 -0.0000 -2.0222 0.9776
5.2462 0.5640 -2.0220 0.9777
5.2223 0.7508 -2.0219 0.9777
5.1917 0.9367 -2.0217 0.9777
5.1104 1.3043 -2.0212 0.9777
5.0027 1.6651 -2.0205 0.9777
4.9391 1.8422 -2.0201 0.9777
4.8692 2.0169 -2.0197 0.9777
4.7106 2.3580 -2.0187 0.9777
4.6222 2.5239 -2.0182 0.9777
4.0940 3.2992 -2.0149 0.9777
3.9722 3.4419 -2.0142 0.9777
3.8453 3.5801 -2.0134 0.9777
3.7135 3.7135 -2.0126 0.9778
1.6853 2.6223 -1.1945 0.9867
1.4302 2.6191 -1.1436 0.9873
1.1949 2.6166 -1.1023 0.9878
0.7695 2.6205 -1.0466 0.9884
0.6693 2.6223 -1.0371 0.9885
0.5708 2.6239 -1.0290 0.9886
0.2825 2.6277 -1.0128 0.9887
0.1879 2.6277 -1.0096 0.9888
-0.0939 2.6283 -1.0079 0.9888
-0.2825 2.6281 -1.0129 0.9887
-0.4747 2.6313 -1.0246 0.9886
-0.5736 2.6367 -1.0341 0.9885
-0.6735 2.6387 -1.0436 0.9884
-1.4432 2.6431 -1.1541 0.9872
-1.5760 2.6563 -1.1836 0.9869
-3.3645 3.8829 -1.9689 0.9782
-3.6299 3.6299 -1.9672 0.9782
-3.7557 3.4967 -1.9665 0.9783
-3.8766 3.3591 -1.9657 0.9783
-3.9926 3.2174 -1.9650 0.9783
-4.2091 2.9224 -1.9637 0.9783
-4.3094 2.7695 -1.9631 0.9783
-4.4934 2.4536 -1.9619 0.9783
-4.5769 2.2910 -1.9614 0.9783
-4.6546 2.1257 -1.9609 0.9783
-4.7264 1.9577 -1.9605 0.9783
-4.7923 1.7874 -1.9601 0.9783
-4.9534 1.2643 -1.9591 0.9783
-4.9947 1.0865 -1.9588 0.9783
-5.0809 0.5463 -1.9583 0.9783
-5.0969 0.3645 -1.9582 0.9783
4.9327 0.1762 -2.0201 0.9789
4.9071 0.5276 -2.0199 0.9789
4.8848 0.7023 -2.0198 0.9789
4.8213 1.0488 -2.0194 0.9789
4.7802 1.2201 -2.0191 0.9789
4.7330 1.3897 -2.0189 0.9789
4.6202 1.7232 -2.0182 0.9789
4.4836 2.0476 -2.0173 0.9789
4.3240 2.3611 -2.0163 0.9789
4.1422 2.6620 -2.0152 0.9789
4.0433 2.8073 -2.0146 0.9790
3.8303 3.0866 -2.0133 0.9790
3.5977 3.3496 -2.0118 0.9790
3.4746 3.4746 -2.0111 0.9790
3.3470 3.5950 -2.0103 0.9790
2.0965 2.6016 -1.3674 0.9857
2.1446 2.8648 -1.4646 0.9847
1.8141 2.6129 -1.3019 0.9863
1.5455 2.6047 -1.2396 0.9870
1.4266 2.6125 -1.2183 0.9872
1.0793 2.6056 -1.1543 0.9879
0.8684 2.6091 -1.1254 0.9882
0.7667 2.6111 -1.1138 0.9883
0.6669 2.6129 -1.1037 0.9884
0.5688 2.6146 -1.0951 0.9885
0.4720 2.6160 -1.0880 0.9886
0.3763 2.6172 -1.0822 0.9886
0.0936 2.6210 -1.0734 0.9887
0.0000 2.6212 -1.0728 0.9887
-0.0936 2.6212 -1.0735 0.9887
-0.1875 2.6212 -1.0755 0.9887
-0.5719 2.6292 -1.1012 0.9884
-0.7687 2.6180 -1.1167 0.9883
-0.8687 2.6101 -1.1259 0.9882
-0.9733 2.6095 -1.1399 0.9880
-1.1867 2.5986 -1.1692 0.9877
-1.4317 2.6219 -1.2226 0.9872
-1.9231 2.7698 -1.3801 0.9855
-3.0218 3.7498 -1.9710 0.9794
-3.1524 3.6381 -1.9702 0.9794
-3.2789 3.5218 -1.9694 0.9794
-3.4013 3.4013 -1.9687 0.9794
-3.5192 3.2765 -1.9679 0.9794
-3.7413 3.0150 -1.9666 0.9794
-4.0384 2.5954 -1.9647 0.9795
-4.3623 1.9922 -1.9627 0.9795
-4.4914 1.6752 -1.9619 0.9795
-4.5476 1.5136 -1.9616 0.9795
-4.5980 1.3501 -1.9613 0.9795
-4.7142 0.8506 -1.9606 0.9795
-4.7412 0.6817 -1.9604 0.9795
-4.7622 0.5120 -1.9603 0.9795
-4.7862 0.1709 -1.9601 0.9795
4.6189 0.3304 -2.0182 0.9800
4.6040 0.4950 -2.0181 0.9800
4.5563 0.8220 -2.0178 0.9800
4.4407 1.3039 -2.0171 0.9800
4.3907 1.4613 -2.0167 0.9800
4.3350 1.6169 -2.0164 0.9800
4.2737 1.7702 -2.0160 0.9800
3.8869 2.4979 -2.0136 0.9800
3.5944 2.8965 -2.0118 0.9801
3.4876 3.0220 -2.0112 0.9801
2.1603 2.6808 -1.5005 0.9851
1.9445 2.5975 -1.4141 0.9859
1.5901 2.6800 -1.3581 0.9865
1.4226 2.6053 -1.2937 0.9871
1.3022 2.6015 -1.2679 0.9874
1.1864 2.5978 -1.2446 0.9876
0.9693 2.5987 -1.2088 0.9880
0.7640 2.6019 -1.1818 0.9882
0.6645 2.6035 -1.1710 0.9883
0.4703 2.6067 -1.1544 0.9885
0.3750 2.6080 -1.1483 0.9886
-0.1869 2.6140 -1.1421 0.9886
-0.2810 2.6137 -1.1457 0.9886
-0.5699 2.6196 -1.1684 0.9884
-0.6679 2.6167 -1.1770 0.9883
-0.7660 2.6087 -1.1849 0.9882
-0.8640 2.5958 -1.1923 0.9881
-0.9660 2.5899 -1.2047 0.9880
-1.1301 2.7282 -1.2870 0.9872
-1.2772 2.7968 -1.3400 0.9867
-1.2961 2.5893 -1.2619 0.9874
-1.5563 2.6230 -1.3292 0.9868
-1.7088 2.6589 -1.3775 0.9863
-1.9353 2.7874 -1.4789 0.9853
-2.9622 3.4185 -1.9714 0.9805
-3.3071 3.0790 -1.9692 0.9805
-3.4137 2.9580 -1.9686 0.9805
-3.6138 2.7052 -1.9673 0.9805
-3.7069 2.5738 -1.9668 0.9805
-3.7954 2.4392 -1.9662 0.9805
-3.8790 2.3015 -1.9657 0.9805
-4.0314 2.0180 -1.9648 0.9805
-4.1000 1.8724 -1.9644 0.9805
-1.5118 0.5639 -0.7032 0.9930
-1.3955 0.2518 -0.6180 0.9938
-1.4180 0.2039 -0.6244 0.9938
-1.4359 0.1544 -0.6294 0.9937
-1.4490 0.1036 -0.6331 0.9937
-1.4571 0.0520 -0.6354 0.9937
4.3537 0.1555 -2.0165 0.9810
4.3312 0.4656 -2.0164 0.9810
4.3115 0.6199 -2.0163 0.9810
4.2556 0.9257 -2.0159 0.9810
4.2194 1.0769 -2.0157 0.9810
4.1307 1.3748 -2.0151 0.9810
4.0207 1.6654 -2.0145 0.9810
3.9579 1.8075 -2.0141 0.9810
3.8901 1.9472 -2.0137 0.9810
3.6570 2.3502 -2.0122 0.9810
3.5699 2.4786 -2.0117 0.9810
3.2816 2.8435 -2.0099 0.9810
3.1769 2.9578 -2.0092 0.9810
3.0683 3.0683 -2.0086 0.9811
2.2791 2.6302 -1.6110 0.9848
2.0926 2.5967 -1.5437 0.9854
1.9452 2.5984 -1.5025 0.9858
1.8046 2.5991 -1.4646 0.9861
1.5409 2.5970 -1.3978 0.9868
1.2994 2.5960 -1.3438 0.9873
0.9660 2.5898 -1.2795 0.9879
0.8626 2.5916 -1.2643 0.9880
0.7615 2.5932 -1.2510 0.9882
0.6622 2.5946 -1.2395 0.9883
0.5647 2.5958 -1.2297 0.9884
0.3736 2.5986 -1.2152 0.9885
0.1861 2.6021 -1.2075 0.9886
0.0930 2.6038 -1.2060 0.9886
-0.1864 2.6067 -1.2097 0.9885
-0.5674 2.6084 -1.2357 0.9883
-0.6650 2.6055 -1.2447 0.9882
-0.7632 2.5993 -1.2540 0.9881
-0.8608 2.5864 -1.2618 0.9881
-1.0767 2.5994 -1.3024 0.9877
-1.4140 2.5895 -1.3657 0.9871
-1.7056 2.6540 -1.4603 0.9862
-2.5555 3.4137 -1.9739 0.9814
-3.0110 3.0110 -1.9711 0.9814
-3.2161 2.7867 -1.9698 0.9814
-3.3125 2.6694 -1.9692 0.9814
-3.4925 2.4249 -1.9681 0.9814
-1.1536 0.3840 -0.5628 0.9947
-1.1790 0.2565 -0.5585 0.9947
-1.1974 0.2160 -0.5632 0.9947
-1.2124 0.1743 -0.5670 0.9946
4.1079 -0.0000 -2.0150 0.9819
4.0973 0.2931 -2.0149 0.9819
4.0840 0.4391 -2.0149 0.9819
4.0418 0.7292 -2.0146 0.9819
3.8951 1.2964 -2.0137 0.9819
3.7323 1.7045 -2.0127 0.9819
3.6684 1.8363 -2.0123 0.9819
3.5265 2.0924 -2.0114 0.9819
3.4488 2.2164 -2.0109 0.9819
3.2802 2.4555 -2.0099 0.9819
3.1896 2.5703 -2.0093 0.9819
3.0949 2.6817 -2.0087 0.9819
2.9963 2.7896 -2.0081 0.9819
2.0928 2.5969 -1.6360 0.9853
1.5413 2.5977 -1.4817 0.9866
1.4635 2.6802 -1.4979 0.9865
0.8628 2.5923 -1.3402 0.9879
0.7605 2.5899 -1.3240 0.9880
0.6605 2.5877 -1.3100 0.9882
0.4669 2.5881 -1.2900 0.9884
0.3723 2.5891 -1.2831 0.9884
0.2785 2.5908 -1.2782 0.9885
0.1854 2.5927 -1.2750 0.9885
0.0000 2.5959 -1.2733 0.9885
-0.1858 2.5982 -1.2777 0.9885
-0.2794 2.5990 -1.2822 0.9884
-0.6621 2.5941 -1.3133 0.9881
-0.7604 2.5897 -1.3240 0.9880
-0.8763 2.6329 -1.3612 0.9877
-0.9697 2.5998 -1.3611 0.9877
-1.3015 2.6002 -1.4263 0.9871
-1.7092 2.6595 -1.5507 0.9860
-2.4126 3.2228 -1.9748 0.9822
-2.6345 3.0404 -1.9734 0.9822
-2.7404 2.9434 -1.9727 0.9822
-2.8429 2.8429 -1.9721 0.9822
-2.9416 2.7387 -1.9715 0.9823
-3.0366 2.6312 -1.9709 0.9823
-3.1277 2.5204 -1.9703 0.9823
-3.2148 2.4065 -1.9698 0.9823
-3.3765 2.1700 -1.9688 0.9823
-3.4510 2.0476 -1.9684 0.9823
-3.5211 1.9227 -1.9679 0.9823
-1.0588 0.5300 -0.5808 0.9947
-1.0290 0.4262 -0.5463 0.9951
-1.0175 0.2987 -0.5202 0.9953
-1.0307 0.2631 -0.5218 0.9953
-1.0518 0.1898 -0.5242 0.9952
-1.0611 0.1526 -0.5258 0.9952
-1.0705 0.1151 -0.5281 0.9952
-1.0803 0.0386 -0.5302 0.9952
3.8814 0.0000 -2.0136 0.9827
3.8415 0.5523 -2.0134 0.9827
3.8190 0.6890 -2.0132 0.9827
3.7917 0.8248 -2.0131 0.9827
3.7595 0.9595 -2.0129 0.9827
3.5268 1.6106 -2.0114 0.9827
3.4665 1.7352 -2.0110 0.9827
3.3325 1.9772 -2.0102 0.9827
3.1814 2.2089 -2.0093 0.9827
3.0142 2.4290 -2.0082 0.9827
2.9248 2.5343 -2.0077 0.9827
2.7349 2.7349 -2.0065 0.9827
2.5313 2.9212 -2.0053 0.9827
2.0926 2.5967 -1.7301 0.9851
1.9457 2.5992 -1.6843 0.9855
1.6711 2.6002 -1.6035 0.9862
1.1889 2.6033 -1.4847 0.9872
0.9703 2.6016 -1.4405 0.9876
0.7624 2.5963 -1.4038 0.9879
0.4672 2.5892 -1.3649 0.9882
0.1850 2.5866 -1.3453 0.9884
0.0000 2.5882 -1.3427 0.9884
-0.0925 2.5890 -1.3440 0.9884
-0.2785 2.5909 -1.3518 0.9883
-0.5631 2.5888 -1.3744 0.9881
-0.6602 2.5867 -1.3849 0.9880
-0.8652 2.5995 -1.4213 0.9877
-0.9700 2.6008 -1.4400 0.9876
-1.4194 2.5995 -1.5365 0.9867
-2.0602 3.2058 -1.9769 0.9830
-2.3887 2.9642 -1.9749 0.9830
-2.8727 2.4892 -1.9719 0.9830
-2.9589 2.3844 -1.9714 0.9830
-3.0413 2.2767 -1.9709 0.9830
-3.1944 2.0529 -1.9699 0.9830
-0.9416 0.4713 -0.5463 0.9953
-0.9207 0.3434 -0.5098 0.9956
-0.9404 0.2761 -0.5085 0.9956
-0.9628 0.2094 -0.5112 0.9956
-0.9785 0.1407 -0.5128 0.9956
3.6741 -0.0000 -2.0123 0.9834
3.6647 0.2621 -2.0123 0.9834
3.6528 0.3927 -2.0122 0.9834
3.5587 0.9083 -2.0116 0.9834
3.4841 1.1596 -2.0112 0.9834
3.3386 1.5247 -2.0103 0.9834
3.1548 1.8718 -2.0091 0.9834
3.0853 1.9828 -2.0087 0.9834
3.0119 2.0912 -2.0082 0.9834
2.8536 2.2996 -2.0073 0.9834
1.5418 2.5986 -1.6549 0.9863
1.3006 2.5983 -1.5914 0.9868
1.1892 2.6040 -1.5679 0.9870
0.6628 2.5967 -1.4678 0.9879
0.5642 2.5938 -1.4539 0.9880
0.4675 2.5910 -1.4420 0.9881
0.3721 2.5882 -1.4322 0.9881
0.1851 2.5883 -1.4212 0.9882
0.0925 2.5891 -1.4190 0.9883
-0.0925 2.5908 -1.4199 0.9882
-0.2785 2.5909 -1.4272 0.9882
-0.3724 2.5904 -1.4334 0.9881
-0.5631 2.5884 -1.4509 0.9880
-1.3021 2.6013 -1.5933 0.9868
-1.4196 2.5997 -1.6223 0.9866
-1.9521 3.0375 -1.9776 0.9837
-2.1624 2.8886 -1.9763 0.9837
-2.2634 2.8087 -1.9757 0.9837
-2.3615 2.7253 -1.9751 0.9837
-2.4565 2.6385 -1.9745 0.9837
-2.7222 2.3588 -1.9728 0.9837
-2.8821 2.1575 -1.9719 0.9837
-2.9566 2.0528 -1.9714 0.9837
-3.0273 1.9456 -1.9710 0.9837
-0.8524 0.5058 -0.5428 0.9955
-0.8507 0.4645 -0.5309 0.9956
-0.8506 0.3885 -0.5122 0.9957
-0.8932 0.1943 -0.5006 0.9958
-0.9011 0.1626 -0.5015 0.9958
-0.9077 0.1305 -0.5022 0.9958
-0.9127 0.0981 -0.5028 0.9958
-0.9161 0.0655 -0.5030 0.9958
3.4834 0.0000 -2.0112 0.9840
3.4812 0.1243 -2.0111 0.9840
3.4632 0.3723 -2.0110 0.9840
3.3408 0.9809 -2.0103 0.9840
3.3033 1.0995 -2.0100 0.9840
3.1655 1.4456 -2.0092 0.9841
3.0533 1.6672 -2.0085 0.9841
2.9913 1.7748 -2.0081 0.9841
2.7059 2.1805 -2.0063 0.9841
2.4554 2.4554 -2.0048 0.9841
2.3655 2.5407 -2.0042 0.9841
2.2727 2.6228 -2.0037 0.9841
1.8046 2.5991 -1.8268 0.9855
1.5417 2.5983 -1.7443 0.9861
1.3004 2.5979 -1.6773 0.9867
1.1869 2.5989 -1.6495 0.9869
1.0778 2.6021 -1.6261 0.9871
0.9708 2.6028 -1.6038 0.9873
0.7637 2.6010 -1.5651 0.9876
0.6632 2.5985 -1.5483 0.9877
0.5647 2.5956 -1.5336 0.9878
0.4678 2.5928 -1.5211 0.9879
0.2784 2.5894 -1.5036 0.9880
0.1852 2.5901 -1.4992 0.9881
0.0925 2.5908 -1.4967 0.9881
-0.2784 2.5893 -1.5036 0.9880
-0.5628 2.5871 -1.5286 0.9878
-1.1887 2.6029 -1.6521 0.9869
-1.7489 2.9477 -1.9789 0.9843
-1.8524 2.8824 -1.9782 0.9843
-2.1480 2.6655 -1.9764 0.9843
-2.3313 2.5040 -1.9753 0.9843
-2.4185 2.4185 -1.9747 0.9843
-2.6612 2.1445 -1.9732 0.9843
-2.7354 2.0477 -1.9728 0.9843
-0.7634 0.5300 -0.5366 0.9957
-0.7809 0.3566 -0.4957 0.9960
-0.8128 0.2387 -0.4891 0.9961
-0.8230 0.2100 -0.4904 0.9961
-0.8318 0.1810 -0.4915 0.9961
-0.8392 0.1514 -0.4924 0.9961
-0.8453 0.1215 -0.4930 0.9961
-0.8499 0.0914 -0.4935 0.9961
-0.8530 0.0610 -0.4938 0.9961
-0.8547 0.0305 -0.4938 0.9961
