ply
format ascii 1.0
element vertex 809
property float32 x
property float32 y
property float32 z
property float32 I
end_header
-2.1639 3.6471 -0.5037 0.9831
-2.2920 3.5664 -0.5036 0.9831
-1.6524 3.6183 -0.5636 0.9841
-1.7219 3.4399 -0.5450 0.9846
-1.7924 3.2826 -0.5299 0.9850
-1.8730 3.1568 -0.5201 0.9853
-1.9886 3.0943 -0.5212 0.9852
-2.7744 2.9799 -0.5769 0.9837
-1.6836 3.0833 -0.5787 0.9859
-1.7679 2.9797 -0.5708 0.9861
-1.8964 2.9508 -0.5778 0.9859
-2.3487 2.9146 -0.6166 0.9849
-2.6974 2.8973 -0.6521 0.9841
-2.9048 2.9048 -0.6767 0.9835
-3.9803 3.2076 -0.8421 0.9795
5.8291 7.7868 -1.8283 0.9612
5.2626 8.1887 -1.8296 0.9612
4.6685 8.5498 -1.8310 0.9611
4.0499 8.8681 -1.8324 0.9611
3.7323 9.0106 -1.8332 0.9611
3.0825 9.2615 -1.8347 0.9611
2.4160 9.4658 -1.8362 0.9610
1.3921 9.6824 -1.8386 0.9610
0.3496 9.7886 -1.8410 0.9609
0.0000 9.7992 -1.8419 0.9609
-0.3499 9.7972 -1.8427 0.9609
-0.6997 9.7828 -1.8435 0.9609
-1.0488 9.7559 -1.8443 0.9609
-1.7437 9.6647 -1.8459 0.9608
-2.0884 9.6004 -1.8467 0.9608
-1.1302 4.4281 -0.8590 0.9816
-1.1671 3.5067 -0.6947 0.9851
-1.4227 3.1152 -0.6437 0.9862
-1.5045 3.0055 -0.6317 0.9864
-1.7351 2.9244 -0.6391 0.9863
-2.1435 2.8634 -0.6723 0.9855
-2.2948 2.8477 -0.6874 0.9852
-2.4529 2.8309 -0.7041 0.9849
-3.0146 2.8067 -0.7742 0.9834
-3.3282 2.8839 -0.8277 0.9822
9.3301 0.0000 -1.9722 0.9626
9.2773 0.9974 -1.9723 0.9626
9.1836 1.6569 -1.9726 0.9626
8.9563 2.6298 -1.9731 0.9626
8.8578 2.9482 -1.9733 0.9626
8.7481 3.2629 -1.9736 0.9625
8.4956 3.8798 -1.9742 0.9625
8.3532 4.1813 -1.9745 0.9625
8.2001 4.4776 -1.9749 0.9625
7.8629 5.0532 -1.9757 0.9625
7.6792 5.3318 -1.9761 0.9625
7.0704 6.1266 -1.9776 0.9625
6.8490 6.3767 -1.9781 0.9625
6.1334 7.0783 -1.9798 0.9624
5.8767 7.2926 -1.9797 0.9624
5.6051 7.4876 -1.9771 0.9625
5.3276 7.6731 -1.9746 0.9625
4.9559 7.7115 -1.9377 0.9632
4.2180 7.7246 -1.8604 0.9647
3.6032 7.8899 -1.8335 0.9652
3.3205 8.0164 -1.8341 0.9651
2.4473 8.3346 -1.8361 0.9651
2.1490 8.4198 -1.8368 0.9651
1.8479 8.4944 -1.8375 0.9651
1.5441 8.5582 -1.8382 0.9651
1.2381 8.6112 -1.8390 0.9651
0.9303 8.6533 -1.8397 0.9650
0.6211 8.6844 -1.8404 0.9650
0.3109 8.7044 -1.8411 0.9650
-0.6221 8.6980 -1.8433 0.9650
-1.5501 8.5917 -1.8454 0.9649
-0.8692 3.9958 -0.8644 0.9834
-1.0183 3.4679 -0.7640 0.9853
-1.1783 3.1593 -0.7127 0.9863
-1.5829 2.8988 -0.6982 0.9866
-1.7032 2.8706 -0.7056 0.9864
-1.8258 2.8411 -0.7139 0.9863
-1.9574 2.8192 -0.7255 0.9861
-2.0989 2.8038 -0.7403 0.9858
-2.2465 2.7877 -0.7568 0.9855
-2.4032 2.7734 -0.7757 0.9851
-2.5676 2.7578 -0.7965 0.9847
-2.7791 2.7791 -0.8308 0.9841
-3.1393 2.7202 -0.8780 0.9832
-3.4419 2.7736 -0.9344 0.9821
-3.6379 2.7233 -0.9606 0.9816
-7.8191 5.4289 -2.0121 0.9618
-8.0096 5.1475 -2.0126 0.9618
-8.1899 4.8593 -2.0130 0.9618
-8.3597 4.5648 -2.0134 0.9618
-8.9300 3.3308 -2.0147 0.9618
-9.0444 3.0103 -2.0149 0.9618
-9.2381 2.3579 -2.0153 0.9618
-9.3172 2.0268 -2.0155 0.9618
-9.4393 1.3572 -2.0158 0.9618
-9.4821 1.0194 -2.0159 0.9618
-9.5128 0.6804 -2.0160 0.9618
-9.5312 0.3404 -2.0160 0.9618
8.4007 0.0000 -1.9743 0.9661
8.3954 0.2999 -1.9744 0.9661
8.3795 0.5993 -1.9744 0.9661
8.2686 1.4918 -1.9747 0.9661
8.2107 1.7861 -1.9748 0.9661
8.0638 2.3678 -1.9752 0.9661
7.8761 2.9376 -1.9756 0.9660
7.7673 3.2173 -1.9759 0.9660
7.6486 3.4930 -1.9762 0.9660
7.5202 3.7643 -1.9765 0.9660
7.3822 4.0310 -1.9768 0.9660
7.2349 4.2927 -1.9771 0.9660
7.0784 4.5490 -1.9775 0.9660
6.9129 4.7997 -1.9779 0.9660
6.5557 5.2829 -1.9787 0.9660
6.3644 5.5148 -1.9792 0.9660
6.1649 5.7398 -1.9797 0.9660
5.9576 5.9576 -1.9801 0.9660
5.7426 6.1680 -1.9806 0.9660
5.5203 6.3707 -1.9812 0.9660
5.2908 6.5655 -1.9817 0.9659
5.0545 6.7520 -1.9823 0.9659
4.5626 7.0995 -1.9834 0.9659
4.3074 7.2597 -1.9839 0.9659
3.7720 7.5354 -1.9805 0.9660
3.4980 7.6595 -1.9790 0.9660
2.5677 7.7148 -1.9109 0.9671
2.2663 7.7183 -1.8906 0.9675
1.3941 7.7268 -1.8453 0.9683
1.1137 7.7461 -1.8392 0.9684
-0.5472 3.8061 -0.9037 0.9843
-0.6588 3.6513 -0.8720 0.9849
-1.0445 3.1382 -0.7773 0.9865
-1.1206 3.0045 -0.7536 0.9869
-1.5489 2.8367 -0.7596 0.9868
-2.0624 2.7550 -0.8088 0.9860
-2.2089 2.7411 -0.8274 0.9856
-2.3620 2.7259 -0.8477 0.9853
-2.5225 2.7094 -0.8700 0.9849
-2.9015 2.7014 -0.9317 0.9838
-3.5596 2.6647 -1.0450 0.9819
-3.9458 2.7396 -1.1290 0.9805
-7.5113 4.1015 -2.0114 0.9654
-7.6542 3.8314 -2.0117 0.9654
-7.7872 3.5563 -2.0120 0.9654
-7.9103 3.2766 -2.0123 0.9654
-8.1259 2.7046 -2.0128 0.9654
-8.2181 2.4131 -2.0130 0.9654
-8.2997 2.1184 -2.0132 0.9654
-8.3707 1.8210 -2.0133 0.9654
-8.4309 1.5211 -2.0135 0.9654
-8.5188 0.9159 -2.0136 0.9654
-8.5463 0.6113 -2.0137 0.9654
7.6275 0.2724 -1.9761 0.9690
7.6130 0.5445 -1.9762 0.9690
7.5554 1.0863 -1.9763 0.9690
7.5122 1.3554 -1.9764 0.9690
7.3974 1.8881 -1.9767 0.9689
7.0563 2.9228 -1.9775 0.9689
6.7062 3.6619 -1.9784 0.9689
6.5723 3.8995 -1.9787 0.9689
6.4300 4.1323 -1.9790 0.9689
6.1211 4.5822 -1.9797 0.9689
5.9548 4.7987 -1.9801 0.9689
5.7809 5.0092 -1.9805 0.9689
5.5997 5.2135 -1.9810 0.9689
5.2159 5.6022 -1.9819 0.9689
5.0138 5.7862 -1.9823 0.9689
4.3698 6.2938 -1.9838 0.9688
4.1435 6.4474 -1.9844 0.9688
3.4335 6.8591 -1.9860 0.9688
3.1874 6.9793 -1.9866 0.9688
2.6829 7.1932 -1.9878 0.9688
2.1622 7.3637 -1.9871 0.9688
0.8198 7.6255 -1.9857 0.9688
0.5472 7.6507 -1.9860 0.9688
0.2738 7.6667 -1.9863 0.9688
0.0000 3.8444 -0.9954 0.9842
-0.1326 3.7120 -0.9617 0.9848
-0.2592 3.6248 -0.9409 0.9851
-0.3812 3.5457 -0.9233 0.9854
-0.7116 3.2714 -0.8668 0.9863
-1.3966 2.7900 -0.8078 0.9872
-1.7617 2.7412 -0.8437 0.9866
-1.8930 2.7265 -0.8594 0.9864
-2.3222 2.6799 -0.9181 0.9855
-2.8390 2.6432 -1.0043 0.9841
-3.0358 2.6305 -1.0401 0.9835
-3.2595 2.6267 -1.0839 0.9829
-3.8312 2.6601 -1.2076 0.9809
-6.6745 3.9601 -2.0094 0.9684
-6.9421 3.4750 -2.0100 0.9684
-7.0626 3.2254 -2.0103 0.9684
-7.1742 2.9716 -2.0106 0.9684
-7.3695 2.4528 -2.0110 0.9684
-7.4531 2.1884 -2.0112 0.9684
-7.5270 1.9212 -2.0114 0.9684
-7.5914 1.6514 -2.0115 0.9684
-7.6459 1.3795 -2.0116 0.9684
-7.7504 0.5543 -2.0119 0.9684
6.9858 0.0000 -1.9776 0.9714
6.9682 0.4984 -1.9777 0.9714
6.9153 0.9943 -1.9778 0.9714
6.8275 1.4852 -1.9780 0.9714
6.7706 1.7281 -1.9782 0.9714
6.7052 1.9688 -1.9783 0.9714
6.5489 2.4426 -1.9787 0.9714
6.4582 2.6751 -1.9789 0.9714
6.1376 3.3514 -1.9797 0.9713
6.0150 3.5689 -1.9800 0.9713
5.7469 3.9901 -1.9806 0.9713
5.6018 4.1934 -1.9809 0.9713
5.2903 4.5841 -1.9817 0.9713
5.1243 4.7709 -1.9821 0.9713
4.9518 4.9518 -1.9825 0.9713
4.5879 5.2947 -1.9833 0.9713
4.3970 5.4563 -1.9838 0.9713
3.7912 5.8993 -1.9852 0.9713
3.5792 6.0323 -1.9857 0.9713
3.3624 6.1578 -1.9862 0.9713
2.9161 6.3853 -1.9872 0.9712
2.2186 6.6659 -1.9888 0.9712
1.9799 6.7427 -1.9894 0.9712
1.7384 6.8110 -1.9900 0.9712
1.4946 6.8707 -1.9905 0.9712
1.2488 6.9216 -1.9911 0.9712
0.2685 3.7543 -1.0655 0.9845
0.1280 3.5846 -1.0154 0.9852
0.0000 3.4536 -0.9777 0.9857
-0.1211 3.3914 -0.9607 0.9860
-0.3511 3.2657 -0.9298 0.9864
-0.6698 3.0791 -0.8921 0.9870
-0.8660 2.9495 -0.8702 0.9873
-0.9618 2.8898 -0.8622 0.9874
-1.1494 2.7749 -0.8503 0.9876
-1.2571 2.7526 -0.8567 0.9875
-1.3721 2.7411 -0.8678 0.9873
-1.4900 2.7287 -0.8801 0.9872
-1.8646 2.6855 -0.9255 0.9865
-1.9991 2.6705 -0.9444 0.9862
-2.1390 2.6543 -0.9650 0.9859
-2.2848 2.6368 -0.9877 0.9856
-2.4445 2.6256 -1.0156 0.9852
-2.6245 2.6245 -1.0507 0.9847
-3.2243 2.5983 -1.1723 0.9829
-5.9664 3.8344 -2.0078 0.9709
-6.1004 3.6196 -2.0081 0.9709
-6.2266 3.4000 -2.0084 0.9709
-6.3448 3.1760 -2.0086 0.9709
-6.4550 2.9479 -2.0089 0.9709
-6.6503 2.4804 -2.0093 0.9709
-6.7352 2.2417 -2.0095 0.9709
-6.8115 2.0001 -2.0097 0.9709
-6.8791 1.7558 -2.0099 0.9709
-6.9378 1.5092 -2.0100 0.9709
-7.0831 0.5066 -2.0103 0.9709
-7.0968 0.2535 -2.0103 0.9709
6.4339 0.0000 -1.9789 0.9734
6.4298 0.2297 -1.9789 0.9734
6.4176 0.4590 -1.9790 0.9734
6.3973 0.6878 -1.9790 0.9734
6.3689 0.9157 -1.9791 0.9734
6.1752 1.8132 -1.9796 0.9734
6.0312 2.2495 -1.9799 0.9734
5.8566 2.6746 -1.9803 0.9734
5.7581 2.8823 -1.9805 0.9734
5.6522 3.0863 -1.9808 0.9734
5.5392 3.2866 -1.9811 0.9734
5.4192 3.4827 -1.9813 0.9734
4.8715 4.2212 -1.9826 0.9734
4.7186 4.3932 -1.9830 0.9734
4.3949 4.7204 -1.9837 0.9734
3.6814 5.3023 -1.9854 0.9733
3.4906 5.4315 -1.9859 0.9733
2.0424 6.1365 -1.9892 0.9733
1.3758 6.3246 -1.9908 0.9733
1.1495 6.3713 -1.9913 0.9733
0.9216 6.4100 -1.9918 0.9733
0.3982 3.7033 -1.1456 0.9845
0.2431 3.3993 -1.0482 0.9858
-0.1131 3.1679 -0.9750 0.9868
-0.2233 3.1217 -0.9626 0.9870
-0.4349 3.0246 -0.9399 0.9873
-0.5360 2.9709 -0.9286 0.9874
-0.6343 2.9158 -0.9178 0.9876
-0.7346 2.8780 -0.9136 0.9876
-0.8411 2.8646 -0.9183 0.9876
-0.9409 2.8269 -0.9164 0.9876
-1.0741 2.5931 -0.8633 0.9883
-1.1602 2.5405 -0.8590 0.9884
-1.3520 2.7010 -0.9290 0.9874
-1.4683 2.6891 -0.9424 0.9873
-1.9684 2.6295 -1.0103 0.9863
-2.1139 2.6232 -1.0362 0.9860
-2.2703 2.6200 -1.0663 0.9856
-2.4360 2.6165 -1.0996 0.9852
-2.6144 2.6144 -1.1372 0.9846
-5.4884 3.5272 -2.0067 0.9731
-6.3274 1.6150 -2.0086 0.9730
-6.3814 1.3882 -2.0087 0.9730
-6.4272 1.1596 -2.0088 0.9730
-6.4941 0.6982 -2.0089 0.9730
-6.5150 0.4660 -2.0090 0.9730
5.9529 0.2126 -1.9800 0.9752
5.9228 0.6368 -1.9801 0.9752
5.8215 1.2664 -1.9804 0.9752
5.7171 1.6787 -1.9806 0.9752
5.6539 1.8818 -1.9808 0.9752
5.5837 2.0826 -1.9809 0.9752
5.2326 2.8572 -1.9818 0.9752
5.1279 3.0426 -1.9820 0.9752
5.0167 3.2241 -1.9823 0.9752
4.8992 3.4016 -1.9825 0.9752
4.7753 3.5748 -1.9828 0.9752
4.3679 4.0667 -1.9838 0.9752
4.2208 4.2207 -1.9841 0.9752
3.7475 4.6503 -1.9852 0.9751
2.6767 5.3474 -1.9877 0.9751
2.4847 5.4407 -1.9882 0.9751
2.0912 5.6067 -1.9891 0.9751
1.8902 5.6791 -1.9896 0.9751
1.6867 5.7443 -1.9901 0.9751
1.2732 5.8528 -1.9910 0.9751
0.2275 3.1800 -1.0597 0.9867
0.1109 3.1058 -1.0330 0.9870
0.0000 3.0381 -1.0099 0.9873
-0.2122 2.9674 -0.9889 0.9875
-0.3144 2.9248 -0.9778 0.9877
-0.5117 2.8361 -0.9580 0.9879
-0.7179 2.8129 -0.9650 0.9878
-0.8220 2.7995 -0.9699 0.9878
-0.9220 2.7702 -0.9705 0.9878
-1.0740 2.5929 -0.9329 0.9882
-1.6850 2.6220 -1.0360 0.9869
-1.9590 2.6170 -1.0866 0.9863
-2.2625 2.6111 -1.1485 0.9855
-2.4275 2.6074 -1.1842 0.9851
-2.6043 2.6043 -1.2243 0.9846
-2.9813 2.5833 -1.3113 0.9835
-3.7764 2.6220 -1.5282 0.9808
-5.1899 3.0793 -2.0060 0.9749
-5.2972 2.8925 -2.0062 0.9749
-5.3976 2.7019 -2.0064 0.9749
-5.5778 2.3104 -2.0068 0.9749
-5.7294 1.9069 -2.0072 0.9749
-5.7942 1.7013 -2.0073 0.9749
-5.8516 1.4935 -2.0075 0.9749
-6.0056 0.6457 -2.0078 0.9749
-6.0250 0.4309 -2.0078 0.9749
-6.0366 0.2156 -2.0079 0.9749
5.5396 0.0000 -1.9810 0.9767
5.5361 0.1977 -1.9810 0.9767
5.5256 0.3952 -1.9810 0.9767
5.5081 0.5922 -1.9811 0.9767
5.4836 0.7884 -1.9811 0.9767
5.4522 0.9837 -1.9812 0.9767
5.3687 1.3703 -1.9814 0.9767
5.3167 1.5611 -1.9815 0.9767
5.2579 1.7500 -1.9817 0.9767
5.1925 1.9367 -1.9818 0.9767
5.1205 2.1210 -1.9820 0.9767
5.0420 2.3026 -1.9822 0.9767
4.7686 2.8293 -1.9828 0.9767
4.6651 2.9981 -1.9831 0.9767
4.4405 3.3241 -1.9836 0.9767
4.1933 3.6335 -1.9842 0.9767
3.9246 3.9246 -1.9848 0.9767
3.4844 4.3239 -1.9859 0.9767
3.3285 4.4464 -1.9862 0.9767
2.8358 4.7795 -1.9874 0.9767
2.6639 4.8786 -1.9878 0.9767
2.4886 4.9716 -1.9882 0.9767
2.3101 5.0583 -1.9886 0.9767
1.5680 5.3402 -1.9903 0.9766
1.3767 5.3940 -1.9908 0.9766
1.1836 5.4409 -1.9912 0.9766
0.2152 3.0093 -1.0789 0.9873
0.1056 2.9558 -1.0577 0.9875
0.0000 2.9033 -1.0383 0.9877
-0.3013 2.8031 -1.0082 0.9881
-0.3988 2.7740 -1.0022 0.9882
-0.5972 2.7453 -1.0047 0.9881
-0.6975 2.7329 -1.0086 0.9881
-0.8987 2.7001 -1.0177 0.9880
-1.0014 2.6850 -1.0248 0.9879
-1.0972 2.6490 -1.0254 0.9879
-1.3110 2.6191 -1.0474 0.9876
-1.6783 2.6116 -1.1102 0.9869
-1.8111 2.6085 -1.1356 0.9866
-1.9509 2.6061 -1.1642 0.9863
-2.2541 2.6014 -1.2309 0.9855
-2.4189 2.5981 -1.2695 0.9850
-3.0008 2.6002 -1.4199 0.9833
-3.2223 2.5967 -1.4799 0.9826
-3.4673 2.5956 -1.5489 0.9818
-3.7791 2.6239 -1.6452 0.9806
-4.7163 3.0310 -2.0049 0.9765
-5.0150 2.5103 -2.0055 0.9765
-5.1823 2.1466 -2.0059 0.9765
-5.2561 1.9604 -2.0061 0.9765
-5.4366 1.3876 -2.0065 0.9764
-5.5223 0.9963 -2.0067 0.9764
-5.5545 0.7986 -2.0068 0.9764
-5.5796 0.5999 -2.0068 0.9764
-5.6084 0.2003 -2.0069 0.9764
5.1716 0.0000 -1.9818 0.9781
5.1683 0.1846 -1.9819 0.9781
5.1193 0.7360 -1.9820 0.9781
5.0542 1.0995 -1.9821 0.9781
4.7802 1.9800 -1.9828 0.9781
4.5425 2.4804 -1.9834 0.9781
4.4515 2.6412 -1.9836 0.9781
4.3549 2.7987 -1.9838 0.9781
4.2528 2.9528 -1.9840 0.9781
4.1452 3.1030 -1.9843 0.9781
4.0323 3.2494 -1.9846 0.9781
3.9143 3.3918 -1.9848 0.9781
3.6635 3.6635 -1.9854 0.9781
3.5309 3.7925 -1.9857 0.9780
3.2524 4.0360 -1.9864 0.9780
2.9573 4.2593 -1.9871 0.9780
2.4864 4.5535 -1.9882 0.9780
2.3227 4.6402 -1.9886 0.9780
2.1561 4.7211 -1.9889 0.9780
1.8145 4.8648 -1.9897 0.9780
1.6400 4.9275 -1.9901 0.9780
1.1046 5.0778 -1.9914 0.9780
0.3195 2.9712 -1.1452 0.9873
0.1015 2.8404 -1.0892 0.9879
-0.3881 2.6996 -1.0452 0.9884
-0.4840 2.6829 -1.0447 0.9884
-0.5797 2.6650 -1.0451 0.9884
-0.6761 2.6488 -1.0476 0.9884
-0.7729 2.6322 -1.0513 0.9883
-0.9772 2.6201 -1.0716 0.9881
-1.0829 2.6145 -1.0845 0.9880
-1.3060 2.6092 -1.1182 0.9876
-1.4234 2.6068 -1.1382 0.9874
-1.5451 2.6041 -1.1604 0.9871
-1.6716 2.6011 -1.1849 0.9868
-2.5875 2.5875 -1.4023 0.9844
-4.2953 2.9823 -2.0039 0.9778
-4.3995 2.8274 -2.0041 0.9778
-4.6780 2.3417 -2.0048 0.9778
-4.8340 2.0023 -2.0051 0.9778
-4.9653 1.6526 -2.0054 0.9778
-5.0214 1.4744 -2.0055 0.9778
-5.0711 1.2943 -2.0057 0.9778
-5.1143 1.1126 -2.0057 0.9778
-5.1510 0.9294 -2.0058 0.9778
-5.1810 0.7449 -2.0059 0.9778
-5.2212 0.3734 -2.0060 0.9778
4.8166 0.5178 -1.9827 0.9793
4.7952 0.6894 -1.9827 0.9793
4.6946 1.1982 -1.9830 0.9793
4.6491 1.3651 -1.9831 0.9793
4.4775 1.8546 -1.9835 0.9793
4.4088 2.0134 -1.9837 0.9793
4.3345 2.1697 -1.9838 0.9793
4.2547 2.3232 -1.9840 0.9793
3.9833 2.7656 -1.9847 0.9793
3.7767 3.0435 -1.9851 0.9793
3.6662 3.1768 -1.9854 0.9793
3.5509 3.3060 -1.9857 0.9792
3.4312 3.4312 -1.9860 0.9792
3.3070 3.5520 -1.9862 0.9792
3.0461 3.7800 -1.9869 0.9792
2.9097 3.8869 -1.9872 0.9792
2.4788 4.1778 -1.9882 0.9792
2.0191 4.4212 -1.9893 0.9792
1.8604 4.4913 -1.9896 0.9792
1.5358 4.6143 -1.9904 0.9792
1.3704 4.6671 -1.9908 0.9792
1.2032 4.7140 -1.9912 0.9792
1.0344 4.7548 -1.9915 0.9792
0.8642 4.7897 -1.9919 0.9792
0.3097 2.8805 -1.1857 0.9876
0.1997 2.7922 -1.1457 0.9880
0.0983 2.7532 -1.1275 0.9882
0.0000 2.7112 -1.1096 0.9884
-0.1912 2.6735 -1.0970 0.9885
-0.2875 2.6739 -1.1007 0.9884
-0.3842 2.6725 -1.1050 0.9884
-0.6700 2.6253 -1.1089 0.9884
-0.8709 2.6167 -1.1287 0.9882
-0.9738 2.6110 -1.1405 0.9880
-1.0791 2.6053 -1.1541 0.9879
-1.1886 2.6026 -1.1710 0.9877
-1.3015 2.6000 -1.1900 0.9875
-1.4182 2.5972 -1.2111 0.9873
-1.5391 2.5940 -1.2345 0.9870
-1.6648 2.5906 -1.2603 0.9868
-1.7962 2.5870 -1.2890 0.9865
-1.9344 2.5841 -1.3211 0.9861
-2.0830 2.5848 -1.3587 0.9858
-4.1181 2.6465 -2.0035 0.9791
-4.2103 2.4981 -2.0037 0.9791
-4.2973 2.3465 -2.0039 0.9791
-4.3787 2.1918 -2.0041 0.9791
-4.5246 1.8742 -2.0044 0.9791
-4.5890 1.7116 -2.0045 0.9791
-4.6474 1.5468 -2.0047 0.9791
-4.7465 1.2115 -2.0049 0.9791
-4.7869 1.0413 -2.0050 0.9790
-4.8212 0.8699 -2.0051 0.9790
-4.8493 0.6972 -2.0051 0.9790
-4.8712 0.5237 -2.0052 0.9790
-4.8869 0.3495 -2.0052 0.9790
-4.8963 0.1749 -2.0052 0.9790
4.5507 0.0000 -1.9833 0.9803
4.5392 0.3246 -1.9833 0.9803
4.5248 0.4865 -1.9834 0.9803
4.5047 0.6477 -1.9834 0.9803
4.4788 0.8081 -1.9835 0.9803
4.4473 0.9675 -1.9835 0.9803
4.3191 1.4375 -1.9839 0.9803
4.2061 1.7422 -1.9841 0.9803
4.1416 1.8914 -1.9843 0.9803
4.0717 2.0382 -1.9844 0.9803
3.9167 2.3239 -1.9848 0.9803
3.5477 2.8589 -1.9857 0.9803
3.2230 3.2230 -1.9864 0.9803
3.1063 3.3364 -1.9867 0.9803
2.9857 3.4457 -1.9870 0.9803
2.8612 3.5505 -1.9873 0.9803
2.6014 3.7467 -1.9879 0.9803
2.4664 3.8378 -1.9882 0.9803
2.3283 3.9240 -1.9885 0.9803
2.1871 4.0053 -1.9889 0.9803
1.8964 4.1525 -1.9895 0.9803
1.7473 4.2183 -1.9899 0.9803
0.9714 4.4656 -1.9917 0.9803
0.8116 4.4983 -1.9921 0.9803
0.4327 3.0095 -1.3251 0.9868
0.3043 2.8303 -1.2406 0.9877
0.0000 2.6683 -1.1629 0.9884
-0.0947 2.6521 -1.1566 0.9885
-0.1889 2.6408 -1.1538 0.9885
-0.7680 2.6157 -1.1881 0.9882
-0.9704 2.6019 -1.2102 0.9880
-1.0753 2.5961 -1.2246 0.9878
-1.1845 2.5937 -1.2426 0.9876
-1.4131 2.5879 -1.2850 0.9872
-1.5340 2.5855 -1.3102 0.9870
-1.6620 2.5861 -1.3397 0.9867
-1.7946 2.5847 -1.3713 0.9864
-2.2420 2.5874 -1.4921 0.9852
-2.4072 2.5856 -1.5396 0.9847
-2.9952 2.5954 -1.7272 0.9829
-3.2225 2.5968 -1.8037 0.9821
-3.4656 2.5943 -1.8867 0.9813
-3.7746 2.6208 -2.0027 0.9801
-4.0343 2.2029 -2.0033 0.9801
-4.1819 1.9098 -2.0036 0.9801
-1.5118 0.5639 -0.7032 0.9930
-1.3722 0.4029 -0.6233 0.9938
-1.3400 0.3420 -0.6027 0.9940
-1.3688 0.2978 -0.6105 0.9939
-1.3955 0.2518 -0.6180 0.9938
-1.4180 0.2039 -0.6244 0.9938
-1.4490 0.1037 -0.6331 0.9937
-1.4571 0.0521 -0.6354 0.9937
4.2832 0.1530 -1.9839 0.9813
4.2615 0.4582 -1.9840 0.9813
4.2426 0.6100 -1.9840 0.9813
4.2182 0.7610 -1.9841 0.9813
4.1885 0.9112 -1.9841 0.9813
4.1132 1.2078 -1.9843 0.9813
4.0677 1.3539 -1.9844 0.9813
4.0171 1.4983 -1.9846 0.9813
3.9613 1.6408 -1.9847 0.9813
3.7641 2.0553 -1.9852 0.9813
3.6886 2.1886 -1.9853 0.9813
3.6085 2.3191 -1.9855 0.9813
3.5238 2.4466 -1.9857 0.9813
3.2432 2.8102 -1.9864 0.9813
3.1412 2.9245 -1.9866 0.9813
3.0352 3.0352 -1.9869 0.9813
2.9253 3.1420 -1.9871 0.9813
2.8116 3.2448 -1.9874 0.9813
2.6944 3.3436 -1.9877 0.9813
2.5737 3.4381 -1.9879 0.9812
2.4497 3.5283 -1.9882 0.9812
2.0595 3.7716 -1.9891 0.9812
1.9238 3.8433 -1.9895 0.9812
1.7857 3.9102 -1.9898 0.9812
1.6453 3.9721 -1.9901 0.9812
1.3582 4.0807 -1.9908 0.9812
1.2119 4.1273 -1.9911 0.9812
1.0640 4.1687 -1.9915 0.9812
0.4251 2.9567 -1.3827 0.9869
0.3011 2.8006 -1.3038 0.9877
-0.0941 2.6356 -1.2207 0.9884
-0.2804 2.6083 -1.2143 0.9885
-0.4698 2.6040 -1.2248 0.9884
-0.6651 2.6059 -1.2449 0.9882
-0.7658 2.6080 -1.2581 0.9881
-1.0732 2.5909 -1.2981 0.9877
-1.1833 2.5910 -1.3185 0.9875
-1.5380 2.5922 -1.3952 0.9868
-1.6642 2.5896 -1.4249 0.9865
-2.0850 2.5873 -1.5381 0.9855
-3.1643 2.9461 -2.0013 0.9811
-3.4623 2.5918 -2.0019 0.9811
-3.5529 2.4669 -2.0022 0.9811
-3.7973 2.0735 -2.0027 0.9811
-3.8692 1.9368 -2.0029 0.9811
-1.2345 0.5114 -0.6185 0.9941
-1.2017 0.4482 -0.5937 0.9944
-1.1536 0.3840 -0.5628 0.9947
-1.1329 0.3327 -0.5466 0.9948
-1.1790 0.2565 -0.5585 0.9947
-1.1974 0.2160 -0.5632 0.9947
-1.2362 0.0884 -0.5737 0.9946
-1.2424 0.0444 -0.5755 0.9945
4.0456 0.0000 -1.9845 0.9821
4.0430 0.1444 -1.9845 0.9821
4.0225 0.4325 -1.9845 0.9821
3.9817 0.7184 -1.9846 0.9821
3.9205 1.0007 -1.9848 0.9821
3.8825 1.1400 -1.9849 0.9821
3.8395 1.2779 -1.9850 0.9821
3.7917 1.4142 -1.9851 0.9821
3.7390 1.5488 -1.9852 0.9821
3.4817 2.0658 -1.9858 0.9821
3.3260 2.3093 -1.9862 0.9821
3.2418 2.4268 -1.9864 0.9821
3.1534 2.5412 -1.9866 0.9821
2.3121 3.3300 -1.9886 0.9821
2.1920 3.4109 -1.9888 0.9821
2.0692 3.4874 -1.9891 0.9821
1.9437 3.5596 -1.9894 0.9821
1.5528 3.7487 -1.9903 0.9821
1.4182 3.8023 -1.9906 0.9821
1.2818 3.8511 -1.9910 0.9821
1.1437 3.8951 -1.9913 0.9821
0.8632 3.9680 -1.9919 0.9821
0.4200 2.9212 -1.4476 0.9869
-0.0935 2.6189 -1.2854 0.9884
-0.1863 2.6050 -1.2811 0.9884
-0.5890 2.7078 -1.3593 0.9877
-0.7314 2.8658 -1.4508 0.9869
-0.7634 2.6001 -1.3292 0.9880
-0.9671 2.5928 -1.3574 0.9877
-1.0758 2.5973 -1.3790 0.9876
-1.1862 2.5975 -1.4007 0.9874
-1.5393 2.5944 -1.4798 0.9866
-1.6654 2.5915 -1.5111 0.9864
-1.7973 2.5886 -1.5458 0.9861
-1.9369 2.5874 -1.5854 0.9857
-2.9854 2.7795 -2.0008 0.9820
-3.0830 2.6715 -2.0011 0.9820
-3.3520 2.3273 -2.0017 0.9820
-3.5101 2.0826 -2.0020 0.9820
-3.5825 1.9562 -2.0022 0.9820
-1.0588 0.5300 -0.5808 0.9947
-1.0443 0.4769 -0.5632 0.9949
-1.0290 0.4262 -0.5463 0.9951
-1.0025 0.3337 -0.5183 0.9953
-1.0175 0.2988 -0.5202 0.9953
-1.0422 0.2267 -0.5232 0.9953
-1.0517 0.1898 -0.5242 0.9952
-1.0769 0.0770 -0.5296 0.9952
3.8262 0.0000 -1.9850 0.9829
3.8238 0.1366 -1.9850 0.9829
3.8165 0.2730 -1.9850 0.9829
3.8044 0.4090 -1.9850 0.9829
3.7079 0.9464 -1.9853 0.9829
3.6719 1.0782 -1.9853 0.9829
3.5362 1.4648 -1.9857 0.9829
3.4819 1.5901 -1.9858 0.9829
3.2927 1.9537 -1.9862 0.9829
3.2212 2.0701 -1.9864 0.9829
3.0659 2.2951 -1.9868 0.9829
2.9823 2.4033 -1.9870 0.9829
2.6110 2.8045 -1.9878 0.9829
2.1864 3.1491 -1.9888 0.9829
2.0729 3.2255 -1.9891 0.9829
1.8381 3.3661 -1.9897 0.9829
1.7170 3.4301 -1.9899 0.9829
1.4683 3.5449 -1.9905 0.9829
1.2121 3.6417 -1.9911 0.9829
0.8162 3.7521 -1.9920 0.9828
0.4164 2.8962 -1.5180 0.9869
0.2967 2.7599 -1.4400 0.9876
0.0000 2.6185 -1.3584 0.9883
-0.2793 2.5981 -1.3556 0.9883
-0.3736 2.5984 -1.3618 0.9882
-0.4688 2.5982 -1.3697 0.9882
-0.7314 2.8656 -1.5342 0.9868
-0.9692 2.5987 -1.4389 0.9876
-1.0786 2.6039 -1.4622 0.9874
-1.1893 2.6042 -1.4852 0.9872
-1.3024 2.6018 -1.5094 0.9870
-1.4192 2.5991 -1.5363 0.9867
-1.6661 2.5925 -1.5987 0.9862
-1.7975 2.5888 -1.6350 0.9859
-1.9367 2.5871 -1.6765 0.9855
-2.7264 2.7264 -2.0002 0.9828
-2.8222 2.6276 -2.0005 0.9828
-3.0879 2.3116 -2.0011 0.9828
-3.2455 2.0858 -2.0014 0.9828
-3.3182 1.9688 -2.0016 0.9828
-0.9486 0.5180 -0.5607 0.9951
-0.9416 0.4713 -0.5462 0.9953
-0.9271 0.3840 -0.5206 0.9955
-0.9404 0.2761 -0.5085 0.9956
-0.9715 0.1753 -0.5121 0.9956
-0.9785 0.1407 -0.5129 0.9956
-0.9838 0.1058 -0.5133 0.9956
3.6044 0.3875 -1.9855 0.9836
3.5883 0.5159 -1.9855 0.9836
3.5677 0.6437 -1.9856 0.9836
3.5426 0.7706 -1.9856 0.9836
3.5129 0.8966 -1.9857 0.9836
3.4788 1.0215 -1.9858 0.9836
3.4403 1.1450 -1.9859 0.9836
3.3974 1.2672 -1.9860 0.9836
3.3502 1.3877 -1.9861 0.9836
3.2987 1.5065 -1.9862 0.9836
3.1833 1.7382 -1.9865 0.9836
3.0517 1.9612 -1.9868 0.9836
2.8253 2.2768 -1.9873 0.9836
2.4735 2.6568 -1.9882 0.9836
2.2782 2.8271 -1.9886 0.9836
1.9637 3.0556 -1.9894 0.9836
1.8536 3.1241 -1.9896 0.9836
1.7412 3.1887 -1.9899 0.9836
1.6265 3.2493 -1.9901 0.9836
1.5097 3.3057 -1.9904 0.9836
1.2704 3.4059 -1.9910 0.9836
1.1481 3.4496 -1.9913 0.9836
0.8994 3.5237 -1.9918 0.9836
0.4102 2.8530 -1.5787 0.9869
0.2956 2.7490 -1.5143 0.9875
0.0940 2.6308 -1.4418 0.9881
0.0000 2.6088 -1.4289 0.9882
-0.1858 2.5984 -1.4268 0.9882
-0.2794 2.5991 -1.4317 0.9881
-0.3737 2.5995 -1.4384 0.9881
-0.4690 2.5993 -1.4466 0.9880
-0.6629 2.5974 -1.4682 0.9878
-0.8022 2.7321 -1.5595 0.9871
-0.9718 2.6055 -1.5231 0.9874
-1.0799 2.6072 -1.5456 0.9872
-1.3022 2.6016 -1.5934 0.9868
-1.4188 2.5984 -1.6215 0.9866
-2.0813 2.9976 -1.9987 0.9835
-2.5819 2.5820 -1.9999 0.9835
-2.7601 2.3917 -2.0003 0.9835
-2.8440 2.2919 -2.0005 0.9835
-2.9243 2.1891 -2.0007 0.9835
-3.0008 2.0835 -2.0009 0.9835
-0.8515 0.4262 -0.5216 0.9957
-0.8506 0.3885 -0.5122 0.9957
-0.8479 0.3512 -0.5027 0.9958
-0.8603 0.2863 -0.4966 0.9959
-0.8727 0.2562 -0.4982 0.9959
-0.8932 0.1943 -0.5006 0.9958
-0.9077 0.1305 -0.5022 0.9958
3.4396 0.0000 -1.9859 0.9842
3.4375 0.1228 -1.9859 0.9842
3.4048 0.4895 -1.9860 0.9842
3.3852 0.6108 -1.9860 0.9842
3.3009 0.9692 -1.9862 0.9842
3.2643 1.0865 -1.9863 0.9842
3.2236 1.2023 -1.9864 0.9842
3.0772 1.5403 -1.9867 0.9842
3.0204 1.6493 -1.9869 0.9842
2.9598 1.7562 -1.9870 0.9842
2.8275 1.9631 -1.9873 0.9842
2.7558 2.0630 -1.9875 0.9842
2.6807 2.1602 -1.9877 0.9842
2.5202 2.3464 -1.9880 0.9842
1.7586 2.9641 -1.9898 0.9842
1.6519 3.0253 -1.9901 0.9842
1.5431 3.0827 -1.9903 0.9842
1.3196 3.1858 -1.9909 0.9842
1.2052 3.2313 -1.9911 0.9842
1.0893 3.2727 -1.9914 0.9842
0.7335 3.3718 -1.9922 0.9842
0.1905 2.6634 -1.5416 0.9877
0.0000 2.6007 -1.5015 0.9881
-0.0928 2.5980 -1.5009 0.9881
-0.2795 2.6001 -1.5098 0.9880
-0.3739 2.6006 -1.5169 0.9879
-0.6631 2.5979 -1.5480 0.9877
-0.8015 2.7298 -1.6426 0.9869
-0.8648 2.5984 -1.5811 0.9874
-0.9700 2.6008 -1.6026 0.9873
-1.0776 2.6015 -1.6257 0.9871
-1.2993 2.5957 -1.6759 0.9867
-1.4156 2.5924 -1.7053 0.9864
-1.8712 2.9117 -1.9983 0.9841
-1.9742 2.8433 -1.9985 0.9841
-2.0746 2.7714 -1.9987 0.9841
-2.5351 2.3603 -1.9998 0.9841
-2.6180 2.2685 -2.0000 0.9841
-2.6975 2.1738 -2.0002 0.9841
-2.7736 2.0763 -2.0003 0.9841
-0.7634 0.5300 -0.5366 0.9957
-0.7750 0.4599 -0.5203 0.9958
-0.7787 0.4252 -0.5122 0.9959
-0.7806 0.3908 -0.5040 0.9960
-0.7887 0.2942 -0.4860 0.9961
-0.8230 0.2101 -0.4904 0.9961
-0.8318 0.1810 -0.4915 0.9961
-0.8392 0.1514 -0.4924 0.9961
-0.8453 0.1215 -0.4930 0.9961
-0.8530 0.0610 -0.4938 0.9961
-0.8547 0.0305 -0.4938 0.9961
