ply
format ascii 1.0
element vertex 703
property float32 x
property float32 y
property float32 z
property float32 I
end_header
-9.6196 0.0000 -2.0334 0.9614
-9.6134 -0.3433 -2.0334 0.9614
-9.5200 -1.3688 -2.0330 0.9614
-9.2230 -2.7081 -2.0319 0.9615
-9.0025 -3.3577 -2.0310 0.9615
-8.5850 -4.2973 -2.0294 0.9615
-7.8751 -5.4678 -2.0265 0.9616
-7.4589 -6.0108 -2.0249 0.9616
-6.5155 -6.9981 -2.0211 0.9617
-5.7211 -7.6425 -2.0180 0.9617
-4.8632 -8.1964 -2.0146 0.9618
-4.5648 -8.3598 -2.0134 0.9618
-4.2610 -8.5123 -2.0122 0.9618
-3.9520 -8.6537 -2.0109 0.9619
-3.3204 -8.9024 -2.0084 0.9619
-2.6734 -9.1049 -2.0058 0.9619
-2.3452 -9.1885 -2.0045 0.9620
-1.6815 -9.3201 -2.0019 0.9620
-1.3469 -9.3679 -2.0005 0.9620
-1.0110 -9.4037 -1.9992 0.9621
-0.6743 -9.4274 -1.9979 0.9621
-0.3371 -9.4391 -1.9965 0.9621
1.0069 -9.3657 -1.9911 0.9622
1.6703 -9.2577 -1.9885 0.9623
1.9983 -9.1861 -1.9872 0.9623
2.3234 -9.1030 -1.9859 0.9623
2.6451 -9.0084 -1.9846 0.9623
4.1895 -8.3695 -1.9784 0.9625
6.1053 -7.0459 -1.9707 0.9626
6.5860 -6.5860 -1.9688 0.9626
6.8137 -6.3438 -1.9679 0.9627
7.0326 -6.0938 -1.9670 0.9627
7.2425 -5.8364 -1.9661 0.9627
7.8157 -5.0229 -1.9638 0.9627
8.4402 -3.8545 -1.9613 0.9628
8.5701 -3.5498 -1.9608 0.9628
8.8944 -2.6116 -1.9595 0.9628
9.0551 -1.9698 -1.9588 0.9628
9.2107 -0.9903 -1.9582 0.9628
9.2570 -0.3306 -1.9580 0.9628
-8.6351 0.0000 -2.0295 0.9651
-8.6128 -0.6160 -2.0294 0.9651
-8.5459 -1.2287 -2.0291 0.9651
-8.4958 -1.5328 -2.0289 0.9651
-8.4346 -1.8348 -2.0287 0.9652
-8.2798 -2.4312 -2.0281 0.9652
-8.0821 -3.0145 -2.0273 0.9652
-7.9676 -3.3003 -2.0269 0.9652
-7.7080 -3.8583 -2.0258 0.9652
-7.5632 -4.1298 -2.0253 0.9652
-7.2448 -4.6560 -2.0240 0.9652
-7.0716 -4.9099 -2.0233 0.9652
-6.8894 -5.1573 -2.0226 0.9653
-6.6984 -5.3979 -2.0218 0.9653
-6.4990 -5.6314 -2.0210 0.9653
-6.2912 -5.8574 -2.0202 0.9653
-6.0756 -6.0756 -2.0194 0.9653
-5.6217 -6.4877 -2.0176 0.9653
-4.1018 -7.5119 -2.0115 0.9654
-3.8290 -7.6493 -2.0104 0.9655
-2.6953 -8.0981 -2.0059 0.9655
-2.4032 -8.1844 -2.0047 0.9656
-2.1083 -8.2601 -2.0036 0.9656
-1.8110 -8.3252 -2.0024 0.9656
-0.9091 -8.4559 -1.9988 0.9657
-0.3032 -8.4889 -1.9964 0.9657
0.0000 -8.4891 -1.9951 0.9657
0.3028 -8.4786 -1.9939 0.9657
0.6049 -8.4572 -1.9927 0.9658
0.9058 -8.4252 -1.9915 0.9658
1.2052 -8.3824 -1.9903 0.9658
1.5027 -8.3291 -1.9891 0.9658
2.0906 -8.1910 -1.9868 0.9659
3.7711 -7.5338 -1.9801 0.9660
4.5477 -7.0764 -1.9769 0.9660
4.7950 -6.9061 -1.9760 0.9660
5.0359 -6.7272 -1.9750 0.9661
5.2703 -6.5401 -1.9740 0.9661
5.4979 -6.3449 -1.9731 0.9661
5.9313 -5.9313 -1.9714 0.9661
6.5234 -5.2569 -1.9690 0.9662
6.7044 -5.0188 -1.9683 0.9662
7.1952 -4.2691 -1.9663 0.9662
7.3408 -4.0084 -1.9657 0.9662
7.4771 -3.7428 -1.9652 0.9662
7.7212 -3.1982 -1.9642 0.9662
7.8287 -2.9200 -1.9637 0.9662
8.0140 -2.3531 -1.9630 0.9663
8.2162 -1.4824 -1.9622 0.9663
-7.8257 0.0000 -2.0262 0.9682
-7.8207 -0.2793 -2.0262 0.9682
-7.8055 -0.5583 -2.0262 0.9682
-7.7803 -0.8365 -2.0261 0.9682
-7.7449 -1.1136 -2.0259 0.9682
-7.6443 -1.6629 -2.0255 0.9682
-7.5042 -2.2034 -2.0250 0.9682
-7.4195 -2.4695 -2.0247 0.9682
-7.3253 -2.7322 -2.0243 0.9682
-7.2217 -2.9913 -2.0239 0.9682
-6.9867 -3.4973 -2.0229 0.9682
-6.8556 -3.7434 -2.0224 0.9682
-6.7158 -3.9847 -2.0219 0.9682
-6.5674 -4.2206 -2.0213 0.9683
-6.4106 -4.4510 -2.0207 0.9683
-6.2456 -4.6754 -2.0200 0.9683
-6.0727 -4.8937 -2.0193 0.9683
-5.8921 -5.1055 -2.0186 0.9683
-5.7040 -5.3106 -2.0179 0.9683
-5.0975 -5.8828 -2.0155 0.9683
-4.8822 -6.0585 -2.0146 0.9684
-4.6608 -6.2261 -2.0137 0.9684
-4.2010 -6.5368 -2.0119 0.9684
-3.9631 -6.6795 -2.0109 0.9684
-3.7204 -6.8134 -2.0100 0.9684
-3.4731 -6.9384 -2.0090 0.9684
-3.2217 -7.0545 -2.0080 0.9685
-2.9663 -7.1613 -2.0070 0.9685
-2.7074 -7.2589 -2.0059 0.9685
-2.1804 -7.4258 -2.0038 0.9685
-1.6433 -7.5543 -2.0017 0.9686
-1.3719 -7.6040 -2.0006 0.9686
-0.8251 -7.6741 -1.9984 0.9686
-0.5503 -7.6945 -1.9973 0.9686
0.2749 -7.6965 -1.9940 0.9687
0.5491 -7.6775 -1.9929 0.9687
0.8223 -7.6488 -1.9918 0.9687
1.0942 -7.6105 -1.9908 0.9687
1.3644 -7.5625 -1.9897 0.9687
1.6326 -7.5049 -1.9886 0.9688
1.8984 -7.4379 -1.9875 0.9688
2.1615 -7.3615 -1.9865 0.9688
2.4216 -7.2758 -1.9854 0.9688
2.6784 -7.1810 -1.9844 0.9688
2.9315 -7.0772 -1.9834 0.9688
3.4255 -6.8432 -1.9814 0.9689
3.6658 -6.7133 -1.9805 0.9689
4.3563 -6.2742 -1.9777 0.9689
4.5754 -6.1120 -1.9768 0.9689
4.9955 -5.7651 -1.9751 0.9690
5.3898 -5.3898 -1.9735 0.9690
5.5766 -5.1920 -1.9728 0.9690
5.9285 -4.7775 -1.9714 0.9690
6.2501 -4.3395 -1.9701 0.9690
6.3991 -4.1124 -1.9695 0.9691
6.6724 -3.6434 -1.9684 0.9691
6.9119 -3.1566 -1.9674 0.9691
7.0186 -2.9072 -1.9670 0.9691
7.1165 -2.6543 -1.9666 0.9691
7.2054 -2.3982 -1.9662 0.9691
7.2852 -2.1391 -1.9659 0.9691
7.3558 -1.8775 -1.9656 0.9691
7.5451 -0.8112 -1.9648 0.9691
7.5832 -0.2708 -1.9647 0.9691
-7.1479 0.0000 -2.0235 0.9707
-7.1433 -0.2551 -2.0235 0.9707
-7.1295 -0.5099 -2.0235 0.9707
-7.0742 -1.0171 -2.0232 0.9707
-7.0328 -1.2688 -2.0231 0.9707
-6.9824 -1.5189 -2.0229 0.9707
-6.9229 -1.7670 -2.0227 0.9707
-6.7773 -2.2557 -2.0221 0.9707
-6.6914 -2.4957 -2.0217 0.9707
-6.3824 -3.1948 -2.0205 0.9708
-5.2118 -4.8523 -2.0159 0.9708
-4.8489 -5.2080 -2.0144 0.9709
-4.0519 -5.8359 -2.0113 0.9709
-3.4005 -6.2275 -2.0087 0.9709
-2.9449 -6.4484 -2.0069 0.9710
-2.4751 -6.6359 -2.0050 0.9710
-1.7490 -6.8525 -2.0021 0.9710
-1.5026 -6.9072 -2.0011 0.9710
-1.2545 -6.9530 -2.0001 0.9711
-1.0050 -6.9898 -1.9991 0.9711
-0.7545 -7.0177 -1.9981 0.9711
-0.5033 -7.0367 -1.9971 0.9711
-0.0000 -7.0475 -1.9951 0.9711
1.2482 -6.9182 -1.9901 0.9712
1.7368 -6.8048 -1.9882 0.9712
2.4508 -6.5708 -1.9853 0.9713
2.6825 -6.4761 -1.9844 0.9713
2.9106 -6.3733 -1.9835 0.9713
3.1348 -6.2625 -1.9826 0.9713
3.3548 -6.1439 -1.9817 0.9713
3.5704 -6.0176 -1.9808 0.9713
4.1879 -5.5944 -1.9783 0.9714
4.3832 -5.4393 -1.9776 0.9714
4.5728 -5.2773 -1.9768 0.9714
4.7565 -5.1088 -1.9761 0.9714
5.1052 -4.7531 -1.9747 0.9714
5.2698 -4.5663 -1.9740 0.9714
5.4277 -4.3739 -1.9734 0.9714
5.8590 -3.7654 -1.9716 0.9715
5.9881 -3.5529 -1.9711 0.9715
6.3291 -2.8904 -1.9697 0.9715
6.5167 -2.4306 -1.9690 0.9715
6.5982 -2.1961 -1.9686 0.9715
6.6714 -1.9589 -1.9683 0.9715
6.7361 -1.7193 -1.9681 0.9715
6.7924 -1.4776 -1.9679 0.9715
6.9097 -0.7429 -1.9674 0.9715
6.9315 -0.4958 -1.9673 0.9715
6.9446 -0.2480 -1.9672 0.9715
-6.5714 0.0000 -2.0212 0.9729
-6.5544 -0.4688 -2.0212 0.9729
-6.5333 -0.7024 -2.0211 0.9729
-6.4657 -1.1665 -2.0208 0.9729
-6.4194 -1.3964 -2.0206 0.9729
-6.3648 -1.6245 -2.0204 0.9729
-6.3020 -1.8504 -2.0202 0.9729
-6.2310 -2.0739 -2.0199 0.9729
-6.1521 -2.2946 -2.0196 0.9729
-5.9706 -2.7267 -2.0189 0.9729
-5.8683 -2.9375 -2.0185 0.9729
-5.5169 -3.5455 -2.0171 0.9729
-4.7929 -4.4623 -2.0142 0.9730
-4.6291 -4.6290 -2.0136 0.9730
-4.1034 -5.0921 -2.0115 0.9730
-3.3319 -5.6156 -2.0084 0.9730
-2.9204 -5.8342 -2.0068 0.9731
-2.2771 -6.1052 -2.0042 0.9731
-1.8342 -6.2466 -2.0024 0.9731
-1.3826 -6.3558 -2.0006 0.9731
-0.6943 -6.4583 -1.9979 0.9732
-0.2316 -6.4853 -1.9960 0.9732
-0.0000 -6.4865 -1.9951 0.9732
0.6924 -6.4404 -1.9923 0.9733
1.8208 -6.2010 -1.9878 0.9733
2.8867 -5.7668 -1.9836 0.9734
3.2880 -5.5417 -1.9819 0.9734
3.8571 -5.1525 -1.9797 0.9734
4.0371 -5.0097 -1.9789 0.9734
4.2118 -4.8607 -1.9782 0.9734
4.3811 -4.7057 -1.9776 0.9735
4.5448 -4.5448 -1.9769 0.9735
4.7026 -4.3783 -1.9763 0.9735
4.9999 -4.0292 -1.9751 0.9735
5.1391 -3.8471 -1.9745 0.9735
5.5166 -3.2732 -1.9730 0.9735
5.7335 -2.8700 -1.9721 0.9735
5.8312 -2.6630 -1.9717 0.9735
5.9214 -2.4527 -1.9714 0.9735
6.0041 -2.2394 -1.9710 0.9735
6.2065 -1.5841 -1.9702 0.9735
6.2584 -1.3614 -1.9700 0.9736
6.3025 -1.1371 -1.9698 0.9736
6.3386 -0.9113 -1.9697 0.9736
6.3667 -0.6845 -1.9695 0.9736
6.3868 -0.4568 -1.9695 0.9736
6.3988 -0.2285 -1.9694 0.9736
-6.0746 0.0000 -2.0192 0.9747
-6.0590 -0.4333 -2.0192 0.9747
-6.0394 -0.6493 -2.0191 0.9747
-6.0121 -0.8644 -2.0190 0.9747
-5.9770 -1.0784 -2.0189 0.9747
-5.9342 -1.2909 -2.0187 0.9747
-5.8838 -1.5017 -2.0185 0.9747
-5.8258 -1.7106 -2.0183 0.9747
-5.6874 -2.1212 -2.0177 0.9747
-5.5197 -2.5208 -2.0171 0.9747
-5.2155 -3.0945 -2.0159 0.9748
-5.1006 -3.2779 -2.0154 0.9748
-4.7174 -3.8015 -2.0139 0.9748
-4.5775 -3.9664 -2.0133 0.9748
-4.1236 -4.4290 -2.0115 0.9748
-3.9616 -4.5719 -2.0109 0.9748
-3.4467 -4.9641 -2.0088 0.9748
-3.0815 -5.1936 -2.0074 0.9749
-2.7011 -5.3961 -2.0059 0.9749
-2.1063 -5.6472 -2.0035 0.9749
-1.9026 -5.7165 -2.0027 0.9749
-1.6967 -5.7784 -2.0019 0.9749
-0.8556 -5.9511 -1.9985 0.9750
-0.6424 -5.9753 -1.9977 0.9750
-0.4285 -5.9918 -1.9968 0.9750
-0.2143 -6.0007 -1.9959 0.9750
0.2141 -5.9956 -1.9942 0.9750
0.4278 -5.9815 -1.9934 0.9750
0.6408 -5.9599 -1.9925 0.9750
1.4799 -5.7983 -1.9892 0.9751
2.2863 -5.5197 -1.9859 0.9751
2.4809 -5.4324 -1.9852 0.9751
3.2239 -5.0165 -1.9822 0.9752
3.5711 -4.7704 -1.9808 0.9752
3.8997 -4.5005 -1.9795 0.9752
4.0566 -4.3571 -1.9788 0.9752
4.3544 -4.0541 -1.9776 0.9752
4.4950 -3.8950 -1.9771 0.9752
4.6299 -3.7310 -1.9765 0.9752
4.8818 -3.3895 -1.9755 0.9753
5.1088 -3.0312 -1.9746 0.9753
5.4003 -2.4662 -1.9734 0.9753
5.4840 -2.2715 -1.9731 0.9753
5.6304 -1.8740 -1.9725 0.9753
5.6929 -1.6716 -1.9722 0.9753
5.8372 -1.0532 -1.9717 0.9753
5.8968 -0.6340 -1.9714 0.9753
-5.6417 0.0000 -2.0175 0.9763
-5.6271 -0.4025 -2.0174 0.9763
-5.5837 -0.8028 -2.0173 0.9763
-5.4646 -1.3947 -2.0168 0.9763
-5.4108 -1.5887 -2.0166 0.9763
-5.2079 -2.1571 -2.0158 0.9763
-4.8444 -2.8743 -2.0144 0.9764
-4.7377 -3.0447 -2.0140 0.9764
-4.6250 -3.2112 -2.0135 0.9764
-4.5064 -3.3734 -2.0130 0.9764
-3.9763 -3.9763 -2.0109 0.9764
-3.8307 -4.1145 -2.0104 0.9764
-3.3658 -4.4962 -2.0085 0.9764
-3.2022 -4.6120 -2.0079 0.9764
-3.0345 -4.7218 -2.0072 0.9764
-2.5098 -5.0139 -2.0051 0.9765
-2.3284 -5.0984 -2.0044 0.9765
-2.1441 -5.1764 -2.0036 0.9765
-0.7952 -5.5310 -1.9983 0.9765
0.1990 -5.5732 -1.9943 0.9766
0.3977 -5.5603 -1.9935 0.9766
0.5957 -5.5404 -1.9927 0.9766
1.1831 -5.4385 -1.9903 0.9766
1.5668 -5.3362 -1.9888 0.9767
1.7556 -5.2748 -1.9881 0.9767
1.9421 -5.2069 -1.9873 0.9767
2.1259 -5.1323 -1.9866 0.9767
2.6594 -4.8704 -1.9844 0.9767
2.8306 -4.7707 -1.9838 0.9767
2.9981 -4.6651 -1.9831 0.9767
3.3211 -4.4364 -1.9818 0.9767
3.6269 -4.1856 -1.9806 0.9767
3.7728 -4.0523 -1.9800 0.9768
4.1809 -3.6228 -1.9783 0.9768
4.5409 -3.1528 -1.9769 0.9768
4.7522 -2.8196 -1.9760 0.9768
4.9393 -2.4725 -1.9753 0.9768
5.1014 -2.1131 -1.9746 0.9768
5.2960 -1.5550 -1.9738 0.9768
5.3923 -1.1730 -1.9734 0.9768
5.4304 -0.9797 -1.9733 0.9768
5.4615 -0.7852 -1.9732 0.9768
5.4858 -0.5898 -1.9731 0.9768
-5.2066 -0.7486 -2.0158 0.9777
-5.1393 -1.1180 -2.0155 0.9777
-4.9258 -1.8372 -2.0147 0.9777
-4.8564 -2.0116 -2.0144 0.9777
-4.5177 -2.6805 -2.0131 0.9777
-4.3132 -2.9947 -2.0123 0.9778
-4.0868 -3.2933 -2.0114 0.9778
-3.7085 -3.7085 -2.0099 0.9778
-3.5729 -3.8375 -2.0093 0.9778
-2.6707 -4.5012 -2.0057 0.9778
-2.5075 -4.5922 -2.0051 0.9778
-2.1721 -4.7562 -2.0037 0.9779
-2.0003 -4.8290 -2.0031 0.9779
-1.8260 -4.8957 -2.0024 0.9779
-1.4711 -5.0099 -2.0009 0.9779
-1.2908 -5.0574 -2.0002 0.9779
-1.1091 -5.0984 -1.9995 0.9779
-0.9261 -5.1329 -1.9988 0.9779
-0.5571 -5.1820 -1.9973 0.9779
-0.1859 -5.2047 -1.9958 0.9779
0.0000 -5.2061 -1.9951 0.9779
0.1858 -5.2008 -1.9943 0.9780
0.3711 -5.1890 -1.9936 0.9780
0.9226 -5.1139 -1.9914 0.9780
1.1042 -5.0759 -1.9907 0.9780
1.2842 -5.0314 -1.9899 0.9780
1.4624 -4.9806 -1.9892 0.9780
1.6387 -4.9234 -1.9885 0.9780
1.8127 -4.8601 -1.9878 0.9780
1.9844 -4.7907 -1.9871 0.9780
3.1005 -4.1418 -1.9827 0.9781
3.2454 -4.0273 -1.9821 0.9781
3.3861 -3.9078 -1.9815 0.9781
3.6543 -3.6543 -1.9804 0.9781
3.7814 -3.5206 -1.9799 0.9781
3.9037 -3.3825 -1.9794 0.9781
4.0209 -3.2403 -1.9790 0.9781
4.1331 -3.0940 -1.9785 0.9781
4.2400 -2.9439 -1.9781 0.9781
4.3415 -2.7901 -1.9777 0.9781
4.5277 -2.4723 -1.9769 0.9781
4.6123 -2.3087 -1.9766 0.9781
4.6910 -2.1423 -1.9763 0.9782
4.8305 -1.8017 -1.9757 0.9782
4.8911 -1.6279 -1.9755 0.9782
4.9455 -1.4521 -1.9752 0.9782
5.0356 -1.0954 -1.9749 0.9782
5.1229 -0.5508 -1.9745 0.9782
5.1391 -0.3676 -1.9744 0.9782
5.1489 -0.1839 -1.9744 0.9782
-4.9224 0.0000 -2.0146 0.9789
-4.8435 -0.8739 -2.0143 0.9790
-4.7681 -1.2170 -2.0140 0.9790
-4.6093 -1.7192 -2.0134 0.9790
-4.4737 -2.0431 -2.0129 0.9790
-4.3973 -2.2011 -2.0126 0.9790
-4.3152 -2.3563 -2.0123 0.9790
-4.2276 -2.5084 -2.0119 0.9790
-3.9330 -2.9442 -2.0107 0.9790
-3.8246 -3.0820 -2.0103 0.9790
-3.5933 -3.3455 -2.0094 0.9790
-3.3439 -3.5915 -2.0084 0.9790
-2.9384 -3.9253 -2.0068 0.9790
-2.3471 -4.2984 -2.0044 0.9791
-2.0332 -4.4522 -2.0032 0.9791
-1.7093 -4.5829 -2.0019 0.9791
-1.5442 -4.6395 -2.0012 0.9791
-1.3771 -4.6900 -2.0006 0.9791
-1.2085 -4.7346 -1.9999 0.9791
-0.8670 -4.8055 -1.9985 0.9791
-0.3480 -4.8656 -1.9965 0.9791
-0.1741 -4.8732 -1.9958 0.9791
0.1739 -4.8698 -1.9944 0.9792
0.3475 -4.8588 -1.9937 0.9792
0.5205 -4.8416 -1.9930 0.9792
0.8640 -4.7889 -1.9916 0.9792
1.0340 -4.7534 -1.9909 0.9792
2.0168 -4.4162 -1.9870 0.9792
2.1725 -4.3400 -1.9864 0.9792
2.3253 -4.2584 -1.9858 0.9792
2.6216 -4.0792 -1.9846 0.9793
2.9042 -3.8796 -1.9834 0.9793
3.1719 -3.6605 -1.9824 0.9793
3.9722 -2.7579 -1.9791 0.9793
4.1572 -2.4666 -1.9784 0.9793
4.2419 -2.3162 -1.9781 0.9793
4.3950 -2.0071 -1.9774 0.9793
4.4632 -1.8487 -1.9772 0.9793
4.5257 -1.6880 -1.9769 0.9793
4.5825 -1.5252 -1.9767 0.9793
4.6336 -1.3605 -1.9765 0.9793
4.7180 -1.0263 -1.9761 0.9793
-1.4571 -0.0520 -0.6354 0.9937
-1.4490 -0.1036 -0.6331 0.9937
-1.4359 -0.1544 -0.6294 0.9937
-1.3688 -0.2978 -0.6105 0.9939
-1.4401 -0.4793 -0.6615 0.9934
-1.5118 -0.5639 -0.7032 0.9930
-3.9681 -2.3544 -2.0109 0.9801
-3.8809 -2.4941 -2.0105 0.9801
-3.3730 -3.1404 -2.0085 0.9801
-3.2580 -3.2580 -2.0080 0.9801
-3.0159 -3.4805 -2.0071 0.9801
-2.4872 -3.8702 -2.0050 0.9801
-2.3469 -3.9554 -2.0044 0.9801
-2.2035 -4.0355 -2.0038 0.9801
-0.9750 -4.4818 -1.9990 0.9802
-0.8141 -4.5124 -1.9983 0.9802
-0.6523 -4.5371 -1.9977 0.9802
-0.3268 -4.5691 -1.9964 0.9802
-0.1634 -4.5763 -1.9957 0.9802
-0.0000 -4.5777 -1.9951 0.9802
0.3263 -4.5631 -1.9938 0.9802
0.8115 -4.4977 -1.9918 0.9803
0.9712 -4.4644 -1.9912 0.9803
1.2864 -4.3810 -1.9899 0.9803
1.8944 -4.1482 -1.9875 0.9803
2.0407 -4.0768 -1.9869 0.9803
2.3250 -3.9186 -1.9858 0.9803
2.8559 -3.5440 -1.9836 0.9803
3.1000 -3.3296 -1.9826 0.9803
3.3280 -3.0985 -1.9817 0.9804
3.6379 -2.7233 -1.9805 0.9804
3.7321 -2.5912 -1.9801 0.9804
3.9856 -2.1763 -1.9791 0.9804
4.0601 -2.0324 -1.9788 0.9804
4.1295 -1.8859 -1.9785 0.9804
4.1936 -1.7371 -1.9782 0.9804
4.3538 -1.2784 -1.9776 0.9804
4.3963 -1.1221 -1.9774 0.9804
4.5102 -0.4849 -1.9769 0.9804
4.5331 -0.1619 -1.9769 0.9804
-1.2447 0.0000 -0.5761 0.9945
-1.2362 -0.0884 -0.5737 0.9946
-1.2261 -0.1318 -0.5708 0.9946
-1.2125 -0.1743 -0.5670 0.9946
-1.1974 -0.2160 -0.5632 0.9947
-1.1790 -0.2565 -0.5585 0.9947
-1.2017 -0.4482 -0.5937 0.9944
-3.9515 -1.8046 -2.0108 0.9810
-3.8840 -1.9442 -2.0105 0.9810
-3.8116 -2.0813 -2.0102 0.9810
-3.7343 -2.2157 -2.0099 0.9810
-3.4743 -2.6008 -2.0089 0.9811
-3.3786 -2.7227 -2.0085 0.9811
-3.2787 -2.8409 -2.0081 0.9811
-3.1745 -2.9556 -2.0077 0.9811
-3.0663 -3.0663 -2.0073 0.9811
-2.8385 -3.2758 -2.0064 0.9811
-2.7191 -3.3742 -2.0059 0.9811
-2.4703 -3.5578 -2.0049 0.9811
-2.3411 -3.6428 -2.0044 0.9811
-2.2090 -3.7231 -2.0039 0.9811
-1.7969 -3.9346 -2.0022 0.9811
-1.5108 -4.0505 -2.0011 0.9811
-0.9179 -4.2193 -1.9987 0.9811
-0.6141 -4.2714 -1.9975 0.9812
-0.4611 -4.2893 -1.9969 0.9812
-0.1539 -4.3086 -1.9957 0.9812
0.0000 -4.3100 -1.9951 0.9812
0.4603 -4.2814 -1.9932 0.9812
1.3574 -4.0783 -1.9896 0.9812
1.5017 -4.0261 -1.9890 0.9812
2.0571 -3.7672 -1.9868 0.9813
2.9197 -3.1360 -1.9834 0.9813
3.2361 -2.8041 -1.9821 0.9813
3.3335 -2.6863 -1.9817 0.9813
3.5154 -2.4408 -1.9810 0.9813
3.6793 -2.1830 -1.9803 0.9813
3.7543 -2.0500 -1.9800 0.9813
3.8245 -1.9144 -1.9797 0.9813
3.8899 -1.7765 -1.9795 0.9813
4.0058 -1.4941 -1.9790 0.9813
4.0561 -1.3500 -1.9788 0.9813
4.1414 -1.0570 -1.9784 0.9813
4.2622 -0.3048 -1.9779 0.9813
-1.0817 0.0000 -0.5306 0.9952
-1.0803 -0.0386 -0.5302 0.9952
-1.0769 -0.0770 -0.5296 0.9952
-1.0705 -0.1151 -0.5281 0.9952
-1.0611 -0.1526 -0.5258 0.9952
-1.0422 -0.2267 -0.5232 0.9953
-1.0307 -0.2631 -0.5218 0.9953
-1.0175 -0.2987 -0.5202 0.9953
-1.0025 -0.3336 -0.5183 0.9953
-1.0290 -0.4262 -0.5463 0.9951
-1.0444 -0.4769 -0.5632 0.9949
-3.5953 -1.9632 -2.0094 0.9819
-3.5224 -2.0900 -2.0091 0.9819
-3.2773 -2.4533 -2.0081 0.9819
-2.9946 -2.7880 -2.0070 0.9819
-2.7869 -2.9933 -2.0062 0.9819
-2.6777 -3.0902 -2.0057 0.9819
-2.5651 -3.1831 -2.0053 0.9820
-2.3304 -3.3564 -2.0043 0.9820
-1.5613 -3.7693 -2.0013 0.9820
-0.7232 -4.0083 -1.9979 0.9820
-0.4351 -4.0474 -1.9968 0.9820
-0.2903 -4.0592 -1.9962 0.9820
0.2900 -4.0545 -1.9939 0.9821
0.7211 -3.9968 -1.9922 0.9821
1.0038 -3.9329 -1.9910 0.9821
1.2811 -3.8491 -1.9899 0.9821
1.5516 -3.7459 -1.9888 0.9821
1.8139 -3.6237 -1.9878 0.9821
2.3089 -3.3254 -1.9858 0.9821
2.4255 -3.2401 -1.9853 0.9821
2.5390 -3.1507 -1.9849 0.9821
2.7561 -2.9603 -1.9840 0.9821
3.0549 -2.6471 -1.9828 0.9822
3.2348 -2.4215 -1.9821 0.9822
3.3186 -2.3042 -1.9817 0.9822
3.3982 -2.1839 -1.9814 0.9822
3.6106 -1.8073 -1.9806 0.9822
3.6723 -1.6771 -1.9803 0.9822
3.7818 -1.4105 -1.9799 0.9822
3.8720 -1.1369 -1.9795 0.9822
3.9099 -0.9979 -1.9794 0.9822
3.9427 -0.8577 -1.9792 0.9822
3.9706 -0.7164 -1.9791 0.9822
3.9934 -0.5742 -1.9790 0.9822
4.0240 -0.2878 -1.9789 0.9822
-0.9715 -0.1753 -0.5121 0.9956
-0.9628 -0.2094 -0.5112 0.9956
-0.9524 -0.2431 -0.5099 0.9956
-0.9404 -0.2761 -0.5085 0.9956
-0.9208 -0.3434 -0.5098 0.9956
-0.9416 -0.4713 -0.5463 0.9953
-0.9486 -0.5180 -0.5607 0.9951
-3.3293 -1.9753 -2.0083 0.9827
-3.0977 -2.3189 -2.0074 0.9827
-2.8305 -2.6353 -2.0063 0.9827
-2.5311 -2.9210 -2.0051 0.9827
-2.4247 -3.0089 -2.0047 0.9827
-2.3153 -3.0929 -2.0043 0.9827
-2.2029 -3.1728 -2.0038 0.9827
-1.8498 -3.3877 -2.0024 0.9828
-1.6027 -3.5093 -2.0014 0.9828
-1.3475 -3.6129 -2.0004 0.9828
-1.2174 -3.6577 -1.9999 0.9828
-0.9529 -3.7333 -1.9988 0.9828
-0.5479 -3.8107 -1.9972 0.9828
-0.2745 -3.8379 -1.9961 0.9828
-0.0000 -3.8456 -1.9950 0.9828
0.2742 -3.8337 -1.9939 0.9828
0.5467 -3.8023 -1.9929 0.9828
0.6819 -3.7794 -1.9923 0.9828
1.0811 -3.6819 -1.9907 0.9829
1.4673 -3.5425 -1.9892 0.9829
1.5924 -3.4870 -1.9887 0.9829
1.7154 -3.4270 -1.9882 0.9829
1.8362 -3.3628 -1.9877 0.9829
1.9546 -3.2943 -1.9872 0.9829
2.0705 -3.2217 -1.9868 0.9829
2.1836 -3.1451 -1.9863 0.9829
2.6068 -2.7999 -1.9846 0.9829
2.7045 -2.7045 -1.9842 0.9829
2.7988 -2.6058 -1.9838 0.9829
3.1390 -2.1794 -1.9825 0.9829
3.2143 -2.0657 -1.9822 0.9829
3.3525 -1.8306 -1.9816 0.9829
3.4737 -1.5864 -1.9811 0.9829
3.5277 -1.4612 -1.9809 0.9829
3.5773 -1.3342 -1.9807 0.9829
3.6223 -1.2056 -1.9805 0.9829
3.6627 -1.0755 -1.9803 0.9829
3.6985 -0.9440 -1.9802 0.9829
3.7296 -0.8113 -1.9801 0.9829
3.7776 -0.5431 -1.9799 0.9829
3.7944 -0.4079 -1.9798 0.9830
3.8064 -0.2722 -1.9798 0.9830
3.8137 -0.1362 -1.9797 0.9830
-0.9179 -0.0328 -0.5031 0.9958
-0.8932 -0.1943 -0.5006 0.9958
-0.8506 -0.3884 -0.5122 0.9957
-0.8516 -0.4263 -0.5216 0.9957
-0.8524 -0.5057 -0.5429 0.9955
-3.0100 -2.0899 -2.0070 0.9834
-2.8524 -2.2986 -2.0064 0.9834
-2.7681 -2.3985 -2.0061 0.9834
-2.5890 -2.5890 -2.0054 0.9834
-2.4945 -2.6792 -2.0050 0.9834
-2.0861 -3.0045 -2.0034 0.9835
-1.9771 -3.0764 -2.0029 0.9835
-1.8656 -3.1443 -2.0025 0.9835
-1.7518 -3.2082 -2.0020 0.9835
-1.6358 -3.2679 -2.0016 0.9835
-1.5178 -3.3234 -2.0011 0.9835
-1.3978 -3.3747 -2.0006 0.9835
-1.1530 -3.4641 -1.9996 0.9835
-0.9025 -3.5358 -1.9986 0.9835
-0.6476 -3.5893 -1.9976 0.9835
-0.5189 -3.6092 -1.9971 0.9835
-0.2600 -3.6352 -1.9961 0.9835
-0.1301 -3.6412 -1.9956 0.9835
0.1300 -3.6393 -1.9945 0.9835
0.3891 -3.6188 -1.9935 0.9835
1.3900 -3.3559 -1.9895 0.9836
1.5086 -3.3033 -1.9890 0.9836
1.7396 -3.1858 -1.9881 0.9836
1.8518 -3.1210 -1.9876 0.9836
1.9616 -3.0522 -1.9872 0.9836
2.0688 -2.9796 -1.9868 0.9836
2.2752 -2.8233 -1.9859 0.9836
2.4698 -2.6527 -1.9851 0.9836
2.7377 -2.3722 -1.9841 0.9836
2.8990 -2.1702 -1.9834 0.9836
2.9742 -2.0650 -1.9831 0.9836
3.1130 -1.8471 -1.9826 0.9836
3.1766 -1.7346 -1.9823 0.9836
3.2361 -1.6199 -1.9821 0.9836
3.2915 -1.5032 -1.9818 0.9836
3.3427 -1.3846 -1.9816 0.9836
3.3896 -1.2643 -1.9814 0.9836
3.5045 -0.8945 -1.9810 0.9836
3.5590 -0.6421 -1.9808 0.9836
3.5795 -0.5147 -1.9807 0.9836
3.5955 -0.3866 -1.9806 0.9836
3.6069 -0.2580 -1.9806 0.9836
-0.8499 -0.0914 -0.4935 0.9961
-0.8318 -0.1809 -0.4915 0.9961
-0.8230 -0.2101 -0.4904 0.9961
-0.7796 -0.3229 -0.4872 0.9961
-0.7696 -0.4946 -0.5282 0.9958
-2.7816 -2.0823 -2.0061 0.9841
-2.5419 -2.3666 -2.0052 0.9841
-2.4554 -2.4554 -2.0048 0.9841
-2.3658 -2.5410 -2.0045 0.9841
-2.2732 -2.6233 -2.0041 0.9841
-2.1777 -2.7023 -2.0037 0.9841
-1.8752 -2.9178 -2.0025 0.9841
-1.6616 -3.0429 -2.0017 0.9841
-1.3259 -3.2009 -2.0003 0.9841
-1.0936 -3.2858 -1.9994 0.9841
-0.9754 -3.3220 -1.9989 0.9841
-0.6143 -3.4048 -1.9975 0.9841
-0.4923 -3.4237 -1.9970 0.9842
-0.3697 -3.4382 -1.9965 0.9842
-0.2466 -3.4484 -1.9960 0.9842
0.1233 -3.4525 -1.9945 0.9842
0.2464 -3.4450 -1.9940 0.9842
0.3691 -3.4332 -1.9936 0.9842
0.4913 -3.4170 -1.9931 0.9842
0.6128 -3.3964 -1.9926 0.9842
0.7334 -3.3716 -1.9921 0.9842
1.3189 -3.1840 -1.9898 0.9842
1.4313 -3.1342 -1.9893 0.9842
1.6506 -3.0228 -1.9884 0.9842
1.7570 -2.9613 -1.9880 0.9842
1.9630 -2.8272 -1.9872 0.9842
2.1588 -2.6789 -1.9864 0.9842
2.5163 -2.3427 -1.9850 0.9842
2.5979 -2.2511 -1.9846 0.9842
2.6761 -2.1566 -1.9843 0.9843
2.7510 -2.0594 -1.9840 0.9843
2.8901 -1.8573 -1.9835 0.9843
2.9541 -1.7528 -1.9832 0.9843
3.0709 -1.5372 -1.9827 0.9843
3.1235 -1.4264 -1.9825 0.9843
3.2572 -1.0841 -1.9820 0.9843
3.2936 -0.9671 -1.9818 0.9843
3.3969 -0.4884 -1.9814 0.9843
3.4229 -0.2448 -1.9813 0.9843
3.4295 -0.1225 -1.9813 0.9843
