ply
format ascii 1.0
element vertex 774
property float32 x
property float32 y
property float32 z
property float32 I
end_header
-2.1300 3.5900 -0.4959 0.9833
-2.2899 3.5632 -0.5031 0.9831
-1.3431 3.6009 -0.5445 0.9846
-1.5923 3.1810 -0.5040 0.9857
-1.7192 3.1484 -0.5083 0.9856
-1.8469 3.1128 -0.5128 0.9855
-1.9756 3.0741 -0.5178 0.9853
-2.1054 3.0323 -0.5230 0.9852
-2.2435 2.9970 -0.5304 0.9850
-1.0578 3.6027 -0.6186 0.9849
-1.3991 3.0635 -0.5548 0.9864
-1.6183 2.9638 -0.5563 0.9864
-1.8931 2.9458 -0.5769 0.9859
-2.1891 2.9243 -0.6018 0.9853
-2.5393 2.9305 -0.6388 0.9844
-2.7269 2.9289 -0.6593 0.9839
5.5958 8.0594 -1.8442 0.9609
5.3040 8.2531 -1.8440 0.9609
4.7006 8.6085 -1.8436 0.9609
4.0735 8.9198 -1.8431 0.9609
3.7521 9.0584 -1.8429 0.9609
3.4260 9.1854 -1.8427 0.9609
2.0829 9.5747 -1.8418 0.9609
1.7396 9.6417 -1.8415 0.9609
1.0470 9.7387 -1.8410 0.9609
-0.3494 9.7835 -1.8401 0.9609
-1.3927 9.6863 -1.8394 0.9610
-0.7988 3.6719 -0.7063 0.9848
-0.8759 3.4319 -0.6657 0.9857
-1.0621 3.1910 -0.6321 0.9864
-1.1502 3.0839 -0.6187 0.9867
-2.4905 2.8742 -0.7148 0.9846
-2.8752 2.8752 -0.7643 0.9836
-3.1250 2.9095 -0.8026 0.9828
-3.6379 2.9316 -0.8782 0.9812
9.4513 0.3376 -1.9991 0.9621
9.3607 1.3459 -1.9990 0.9621
9.3066 1.6791 -1.9990 0.9621
9.2405 2.0101 -1.9989 0.9621
9.0730 2.6641 -1.9988 0.9621
8.9718 2.9861 -1.9987 0.9621
8.8592 3.3043 -1.9987 0.9621
8.7352 3.6182 -1.9986 0.9621
8.6001 3.9275 -1.9985 0.9621
8.4540 4.2318 -1.9984 0.9621
8.2971 4.5306 -1.9983 0.9621
8.1296 4.8235 -1.9982 0.9621
7.9518 5.1103 -1.9980 0.9621
7.5659 5.6638 -1.9978 0.9621
7.3584 5.9298 -1.9976 0.9621
6.9156 6.4387 -1.9973 0.9621
6.6808 6.6808 -1.9971 0.9621
6.1861 7.1392 -1.9968 0.9621
5.3490 7.7039 -1.9825 0.9624
4.5800 7.7191 -1.8973 0.9640
3.6216 7.9303 -1.8428 0.9650
3.3359 8.0536 -1.8426 0.9650
2.7523 8.2693 -1.8422 0.9650
2.1549 8.4427 -1.8418 0.9650
1.5467 8.5729 -1.8414 0.9650
0.9310 8.6594 -1.8410 0.9650
0.0000 8.7063 -1.8403 0.9650
-0.6210 8.6821 -1.8399 0.9650
-0.9303 8.6534 -1.8397 0.9650
-0.6474 3.5885 -0.7708 0.9852
-0.8218 3.2200 -0.7025 0.9865
-1.0994 2.9476 -0.6650 0.9872
-1.2110 2.9237 -0.6689 0.9871
-1.3239 2.8989 -0.6737 0.9871
-1.4382 2.8732 -0.6792 0.9869
-1.5561 2.8498 -0.6863 0.9868
-1.6836 2.8376 -0.6975 0.9866
-2.0920 2.7946 -0.7379 0.9858
-2.7500 2.7500 -0.8221 0.9842
-3.0465 2.8364 -0.8799 0.9831
-3.2082 2.7799 -0.8973 0.9828
-7.5266 5.6343 -1.9874 0.9623
-7.7224 5.3618 -1.9872 0.9623
-7.9083 5.0824 -1.9871 0.9623
-8.0842 4.7966 -1.9870 0.9623
-8.2498 4.5047 -1.9869 0.9623
-8.4049 4.2072 -1.9868 0.9623
-8.5493 3.9043 -1.9867 0.9623
-9.0165 2.6475 -1.9864 0.9623
-9.1050 2.3239 -1.9863 0.9623
-9.2471 1.6684 -1.9862 0.9623
-9.3423 1.0044 -1.9862 0.9623
-9.3721 0.6703 -1.9861 0.9623
8.4814 0.6066 -1.9984 0.9657
8.4163 1.2101 -1.9984 0.9657
8.3082 1.8073 -1.9983 0.9657
8.0667 2.6849 -1.9981 0.9657
7.9655 2.9710 -1.9981 0.9657
7.8541 3.2533 -1.9980 0.9657
7.6013 3.8049 -1.9978 0.9657
7.4603 4.0736 -1.9977 0.9657
7.1499 4.5949 -1.9975 0.9657
6.8030 5.0927 -1.9972 0.9657
6.6165 5.3319 -1.9971 0.9657
6.4216 5.5643 -1.9970 0.9657
6.2184 5.7895 -1.9968 0.9657
6.0074 6.0074 -1.9967 0.9657
5.5626 6.4196 -1.9964 0.9657
5.3295 6.6135 -1.9962 0.9657
5.0896 6.7990 -1.9960 0.9657
4.8433 6.9757 -1.9959 0.9657
4.5909 7.1435 -1.9957 0.9657
4.3309 7.2993 -1.9947 0.9657
3.7896 7.5707 -1.9898 0.9658
3.1921 7.7064 -1.9604 0.9663
2.8760 7.7110 -1.9342 0.9667
2.5678 7.7150 -1.9110 0.9671
2.2664 7.7186 -1.8906 0.9675
1.3944 7.7288 -1.8458 0.9682
1.1149 7.7540 -1.8411 0.9683
0.8373 7.7880 -1.8409 0.9683
0.5587 7.8121 -1.8407 0.9683
0.0000 7.8304 -1.8403 0.9683
-0.4994 3.4735 -0.8247 0.9857
-0.6023 3.3386 -0.7973 0.9862
-0.6931 3.1860 -0.7663 0.9867
-0.7773 3.0456 -0.7387 0.9872
-1.3005 2.8476 -0.7357 0.9872
-1.5263 2.7952 -0.7485 0.9870
-1.9173 2.7615 -0.7901 0.9863
-2.2035 2.7344 -0.8253 0.9857
-2.3823 2.7493 -0.8550 0.9852
-2.5496 2.7385 -0.8794 0.9847
-2.7038 2.7038 -0.8987 0.9844
-2.8887 2.6895 -0.9276 0.9839
-3.1173 2.7012 -0.9694 0.9832
-6.9474 4.8237 -1.9878 0.9658
-7.1147 4.5724 -1.9877 0.9658
-7.2730 4.3153 -1.9876 0.9658
-7.8117 3.2357 -1.9872 0.9659
-7.9219 2.9547 -1.9871 0.9659
-8.3195 1.5010 -1.9869 0.9659
-8.4052 0.9037 -1.9868 0.9659
-8.4320 0.6031 -1.9868 0.9659
-8.4481 0.3017 -1.9868 0.9659
7.7114 0.2754 -1.9979 0.9686
7.6966 0.5505 -1.9979 0.9686
7.6720 0.8248 -1.9979 0.9686
7.6376 1.0981 -1.9978 0.9686
7.5934 1.3700 -1.9978 0.9686
7.4760 1.9081 -1.9977 0.9686
7.4029 2.1737 -1.9977 0.9686
6.8981 3.4530 -1.9973 0.9686
6.1739 4.6217 -1.9968 0.9686
6.0046 4.8388 -1.9967 0.9686
5.6434 5.2542 -1.9964 0.9686
5.0484 5.8262 -1.9960 0.9686
4.8369 6.0022 -1.9959 0.9687
4.6192 6.1705 -1.9957 0.9687
4.1666 6.4833 -1.9954 0.9687
3.4488 6.8899 -1.9949 0.9687
3.2004 7.0079 -1.9947 0.9687
2.9480 7.1171 -1.9946 0.9687
1.9012 7.4489 -1.9905 0.9687
1.0924 7.5977 -1.9874 0.9688
0.0000 3.5724 -0.9249 0.9853
-0.1246 3.4901 -0.9042 0.9857
-0.2424 3.3895 -0.8798 0.9861
-0.8405 2.8624 -0.7724 0.9877
-1.1596 2.7994 -0.7845 0.9876
-1.3848 2.7664 -0.8010 0.9873
-1.5040 2.7543 -0.8125 0.9871
-1.6273 2.7427 -0.8257 0.9869
-1.7548 2.7305 -0.8404 0.9867
-1.8869 2.7176 -0.8566 0.9864
-2.0241 2.7039 -0.8745 0.9861
-2.1670 2.6891 -0.8942 0.9858
-2.4976 2.6826 -0.9490 0.9850
-2.6552 2.6552 -0.9723 0.9846
-3.3069 2.6649 -1.0996 0.9826
-3.6614 2.7409 -1.1842 0.9813
-6.3077 4.3795 -1.9882 0.9688
-6.7387 3.6796 -1.9879 0.9688
-6.9834 3.1892 -1.9878 0.9688
-7.0925 2.9378 -1.9877 0.9688
-7.1926 2.6827 -1.9876 0.9688
-7.2836 2.4242 -1.9876 0.9688
-7.3653 2.1626 -1.9875 0.9688
-7.4376 1.8983 -1.9875 0.9688
-7.5004 1.6316 -1.9874 0.9688
-7.5538 1.3629 -1.9874 0.9688
-7.5975 1.0924 -1.9874 0.9688
-7.6316 0.8205 -1.9873 0.9688
-7.6705 0.2740 -1.9873 0.9688
7.0558 -0.0000 -1.9974 0.9711
7.0513 0.2518 -1.9974 0.9711
7.0378 0.5034 -1.9974 0.9711
6.9838 1.0041 -1.9974 0.9711
6.9434 1.2527 -1.9974 0.9711
6.8941 1.4997 -1.9973 0.9711
6.5174 2.6996 -1.9971 0.9711
6.4167 2.9304 -1.9970 0.9711
5.4909 4.4248 -1.9963 0.9711
5.1606 4.8047 -1.9961 0.9711
4.9856 4.9856 -1.9960 0.9711
4.8041 5.1600 -1.9959 0.9711
4.6166 5.3278 -1.9957 0.9711
4.4232 5.4889 -1.9956 0.9711
3.5960 6.0607 -1.9950 0.9711
3.3771 6.1847 -1.9949 0.9711
2.2245 6.6834 -1.9941 0.9711
0.5145 3.5781 -1.0234 0.9851
0.3705 3.4460 -0.9812 0.9857
0.1190 3.3304 -0.9434 0.9862
-0.1150 3.2213 -0.9125 0.9867
-0.3334 3.1014 -0.8831 0.9871
-0.4374 3.0424 -0.8701 0.9873
-0.5381 2.9824 -0.8579 0.9875
-0.6311 2.9013 -0.8406 0.9877
-0.7266 2.8468 -0.8318 0.9879
-0.9230 2.7731 -0.8274 0.9879
-1.0294 2.7600 -0.8339 0.9878
-1.2510 2.7393 -0.8525 0.9876
-1.6037 2.7029 -0.8897 0.9870
-1.8582 2.6763 -0.9223 0.9865
-2.1315 2.6450 -0.9616 0.9860
-2.2818 2.6333 -0.9864 0.9856
-2.4587 2.6408 -1.0214 0.9851
-2.6283 2.6283 -1.0522 0.9847
-3.0145 2.6121 -1.1292 0.9836
-3.2682 2.6337 -1.1882 0.9827
-5.7701 4.0062 -1.9886 0.9712
-6.2804 3.1437 -1.9882 0.9712
-6.3884 2.9175 -1.9882 0.9712
-6.4882 2.6875 -1.9881 0.9712
-6.6630 2.2177 -1.9880 0.9712
-6.8614 1.4926 -1.9879 0.9712
-6.9102 1.2467 -1.9878 0.9712
-6.9502 0.9993 -1.9878 0.9712
-6.9814 0.7506 -1.9878 0.9712
-7.0037 0.5009 -1.9878 0.9712
-7.0171 0.2506 -1.9878 0.9712
6.4928 -0.0000 -1.9971 0.9732
6.4763 0.4632 -1.9970 0.9732
6.4555 0.6940 -1.9970 0.9732
6.4266 0.9240 -1.9970 0.9732
6.3894 1.1528 -1.9970 0.9732
6.3441 1.3801 -1.9969 0.9732
6.2907 1.6056 -1.9969 0.9732
6.1598 2.0502 -1.9968 0.9732
6.0826 2.2687 -1.9968 0.9732
5.9975 2.4842 -1.9967 0.9732
5.9048 2.6967 -1.9966 0.9732
5.8046 2.9056 -1.9966 0.9732
5.6970 3.1108 -1.9965 0.9732
5.5821 3.3120 -1.9964 0.9732
5.4601 3.5090 -1.9963 0.9732
4.9042 4.2495 -1.9959 0.9732
4.7492 4.4216 -1.9958 0.9732
4.2486 4.9031 -1.9955 0.9732
3.6994 5.3281 -1.9951 0.9732
3.5066 5.4564 -1.9950 0.9732
3.3094 5.5777 -1.9948 0.9732
2.6936 5.8982 -1.9944 0.9732
2.4812 5.9902 -1.9943 0.9732
2.2657 6.0745 -1.9941 0.9732
1.8263 6.2197 -1.9938 0.9732
1.6030 6.2804 -1.9937 0.9732
1.3777 6.3331 -1.9935 0.9732
0.6070 3.3645 -1.0516 0.9858
0.4698 3.2675 -1.0154 0.9863
0.2256 3.1543 -0.9727 0.9869
0.0000 3.0725 -0.9450 0.9872
-0.2131 2.9789 -0.9186 0.9876
-0.3149 2.9291 -0.9061 0.9877
-0.4157 2.8916 -0.8985 0.9878
-0.5199 2.8814 -0.9006 0.9878
-0.6166 2.8343 -0.8922 0.9879
-0.7099 2.7812 -0.8829 0.9881
-0.7826 2.6651 -0.8543 0.9884
-1.0155 2.7227 -0.8938 0.9879
-1.1235 2.7125 -0.9030 0.9878
-1.2337 2.7014 -0.9135 0.9876
-1.4616 2.6767 -0.9380 0.9873
-1.5804 2.6637 -0.9527 0.9871
-1.8303 2.6361 -0.9871 0.9867
-2.1148 2.6243 -1.0366 0.9860
-2.2736 2.6239 -1.0679 0.9856
-2.4467 2.6280 -1.1044 0.9851
-2.6108 2.6108 -1.1356 0.9847
-2.7920 2.5995 -1.1733 0.9842
-2.9933 2.5937 -1.2182 0.9836
-3.2300 2.6029 -1.2759 0.9828
-3.5946 2.6909 -1.3811 0.9814
-5.4396 3.4958 -1.9888 0.9733
-5.6747 3.0986 -1.9887 0.9733
-5.7814 2.8940 -1.9886 0.9733
-5.9728 2.4740 -1.9885 0.9733
-6.0571 2.2592 -1.9884 0.9733
-6.1337 2.0415 -1.9884 0.9733
-6.2635 1.5987 -1.9883 0.9733
-6.3613 1.1477 -1.9882 0.9733
-6.3982 0.9199 -1.9882 0.9733
-6.4269 0.6910 -1.9882 0.9733
-6.4474 0.4611 -1.9881 0.9733
-6.4597 0.2307 -1.9881 0.9733
6.0069 0.0000 -1.9967 0.9750
6.0030 0.2144 -1.9967 0.9750
5.9724 0.6421 -1.9967 0.9750
5.9456 0.8549 -1.9967 0.9750
5.9112 1.0665 -1.9966 0.9750
5.8693 1.2768 -1.9966 0.9750
5.6274 2.0989 -1.9964 0.9750
5.5487 2.2983 -1.9964 0.9750
5.4630 2.4949 -1.9963 0.9750
5.2707 2.8780 -1.9962 0.9750
5.1645 3.0642 -1.9961 0.9750
5.0516 3.2465 -1.9960 0.9750
4.9323 3.4246 -1.9960 0.9750
4.6750 3.7674 -1.9958 0.9750
4.5373 3.9316 -1.9957 0.9750
3.9308 4.5364 -1.9953 0.9750
3.7662 4.6735 -1.9952 0.9750
3.4228 4.9297 -1.9949 0.9750
3.2444 5.0484 -1.9948 0.9750
2.8756 5.2663 -1.9945 0.9750
2.6857 5.3653 -1.9944 0.9750
2.2958 5.5425 -1.9941 0.9750
0.7165 3.2937 -1.1205 0.9859
0.3240 3.0138 -1.0076 0.9873
0.1056 2.9568 -0.9835 0.9876
-0.0000 2.9153 -0.9691 0.9878
-0.2034 2.8437 -0.9477 0.9881
-0.3049 2.8358 -0.9481 0.9880
-0.4064 2.8269 -0.9493 0.9880
-0.5082 2.8168 -0.9514 0.9880
-0.6033 2.7736 -0.9435 0.9881
-0.6801 2.6648 -0.9142 0.9885
-0.8206 2.4655 -0.8637 0.9891
-1.0006 2.6826 -0.9517 0.9880
-1.1072 2.6730 -0.9617 0.9879
-1.2159 2.6625 -0.9730 0.9877
-1.8201 2.6215 -1.0608 0.9866
-2.1078 2.6156 -1.1166 0.9859
-2.2654 2.6144 -1.1499 0.9855
-2.4341 2.6144 -1.1874 0.9851
-2.8544 2.6575 -1.2964 0.9837
-3.2052 2.5829 -1.3683 0.9828
-3.6332 2.7197 -1.5086 0.9811
-5.0340 3.2352 -1.9891 0.9751
-5.1461 3.0533 -1.9890 0.9751
-5.2516 2.8676 -1.9890 0.9751
-5.5275 2.2896 -1.9888 0.9751
-5.6056 2.0908 -1.9887 0.9751
-5.6765 1.8893 -1.9887 0.9751
-5.7402 1.6855 -1.9886 0.9751
-5.8872 1.0622 -1.9885 0.9751
-5.9668 0.4268 -1.9885 0.9751
-5.9783 0.2135 -1.9885 0.9751
5.5685 0.3983 -1.9964 0.9766
5.5507 0.5968 -1.9964 0.9766
5.4939 0.9912 -1.9964 0.9766
5.4549 1.1866 -1.9963 0.9766
5.4090 1.3806 -1.9963 0.9766
5.3562 1.5727 -1.9963 0.9766
5.2301 1.9507 -1.9962 0.9766
4.8987 2.6749 -1.9959 0.9766
4.5842 3.1828 -1.9957 0.9766
4.4675 3.3443 -1.9956 0.9766
4.2171 3.6542 -1.9955 0.9766
3.8018 4.0834 -1.9952 0.9766
3.6534 4.2163 -1.9951 0.9766
3.5004 4.3438 -1.9950 0.9766
3.3430 4.4657 -1.9949 0.9766
3.1813 4.5819 -1.9947 0.9766
2.4962 4.9868 -1.9943 0.9766
1.9485 5.2241 -1.9939 0.9766
1.5706 5.3491 -1.9936 0.9766
1.3786 5.4014 -1.9935 0.9766
0.6614 3.0402 -1.1126 0.9869
0.5353 2.9671 -1.0782 0.9873
0.3095 2.8786 -1.0353 0.9878
0.1007 2.8196 -1.0090 0.9881
0.0000 2.7943 -0.9993 0.9882
-0.8206 2.4655 -0.9292 0.9890
-1.4299 2.6187 -1.0670 0.9874
-1.6808 2.6153 -1.1117 0.9869
-1.9540 2.6102 -1.1660 0.9862
-2.2571 2.6049 -1.2326 0.9855
-2.5888 2.5888 -1.3093 0.9846
-3.2805 2.6436 -1.5067 0.9823
-4.4537 3.3340 -1.9895 0.9766
-4.5697 3.1728 -1.9894 0.9766
-4.6798 3.0076 -1.9893 0.9766
-4.8821 2.6659 -1.9892 0.9766
-5.0596 2.3106 -1.9891 0.9766
-5.2772 1.7564 -1.9889 0.9766
-5.5295 0.5945 -1.9888 0.9767
-5.5472 0.3967 -1.9888 0.9767
-5.5578 0.1985 -1.9888 0.9767
5.2090 0.0000 -1.9962 0.9779
5.2056 0.1859 -1.9962 0.9779
4.9976 1.4674 -1.9960 0.9779
4.9419 1.6448 -1.9960 0.9779
4.2773 2.9698 -1.9955 0.9779
4.1685 3.1205 -1.9954 0.9779
3.8105 3.5477 -1.9952 0.9779
3.6813 3.6813 -1.9951 0.9779
3.5474 3.8102 -1.9950 0.9779
3.4090 3.9342 -1.9949 0.9779
3.2662 4.0532 -1.9948 0.9779
3.1193 4.1669 -1.9947 0.9779
2.6556 4.4758 -1.9944 0.9780
2.4940 4.5675 -1.9943 0.9780
2.1616 4.7332 -1.9940 0.9780
1.6429 4.9362 -1.9937 0.9780
0.7851 3.0761 -1.2166 0.9865
0.6291 2.8919 -1.1342 0.9874
0.5131 2.8439 -1.1074 0.9877
0.4033 2.8049 -1.0859 0.9879
0.1968 2.7519 -1.0573 0.9883
0.0976 2.7332 -1.0481 0.9884
0.0000 2.7128 -1.0396 0.9884
-0.0965 2.7013 -1.0359 0.9885
-0.1923 2.6885 -1.0329 0.9885
-0.5760 2.6477 -1.0384 0.9885
-0.9760 2.6167 -1.0702 0.9881
-1.3070 2.6110 -1.1189 0.9876
-1.4244 2.6086 -1.1390 0.9873
-1.5465 2.6064 -1.1614 0.9871
-1.6740 2.6048 -1.1866 0.9868
-1.8073 2.6030 -1.2144 0.9865
-1.9469 2.6008 -1.2450 0.9862
-2.4086 2.5870 -1.3545 0.9850
-2.6340 2.6340 -1.4275 0.9842
-2.9997 2.5993 -1.5211 0.9831
-3.2221 2.5966 -1.5858 0.9824
-4.4648 2.6491 -1.9895 0.9780
-4.5564 2.4880 -1.9894 0.9780
-4.8636 1.8140 -1.9892 0.9780
-5.1080 0.9216 -1.9891 0.9780
-5.1375 0.7387 -1.9890 0.9780
-5.1606 0.5548 -1.9890 0.9780
4.8737 0.1741 -1.9959 0.9791
4.8488 0.5213 -1.9959 0.9791
4.8271 0.6940 -1.9959 0.9791
4.7992 0.8659 -1.9959 0.9791
4.7651 1.0366 -1.9959 0.9791
4.7250 1.2060 -1.9958 0.9791
4.6789 1.3738 -1.9958 0.9791
4.6268 1.5400 -1.9958 0.9791
4.5688 1.7041 -1.9957 0.9791
4.4354 2.0256 -1.9956 0.9791
4.3601 2.1825 -1.9956 0.9791
4.2793 2.3367 -1.9955 0.9791
4.1931 2.4879 -1.9955 0.9791
4.0046 2.7805 -1.9953 0.9791
3.9027 2.9215 -1.9953 0.9791
3.7958 3.0589 -1.9952 0.9792
3.6841 3.1923 -1.9951 0.9792
3.5676 3.3216 -1.9950 0.9792
3.4467 3.4467 -1.9949 0.9792
3.0581 3.7948 -1.9947 0.9792
2.7793 4.0029 -1.9945 0.9792
2.4864 4.1906 -1.9943 0.9792
2.3351 4.2764 -1.9942 0.9792
1.8643 4.5008 -1.9938 0.9792
1.5383 4.6218 -1.9936 0.9792
0.4962 2.7503 -1.1438 0.9880
0.0956 2.6759 -1.0959 0.9885
-0.2836 2.6378 -1.0858 0.9886
-0.6674 2.6147 -1.1045 0.9884
-0.7666 2.6107 -1.1136 0.9883
-0.8684 2.6090 -1.1254 0.9882
-0.9724 2.6072 -1.1389 0.9880
-1.7998 2.5922 -1.2916 0.9865
-1.9387 2.5897 -1.3240 0.9861
-2.0867 2.5895 -1.3611 0.9857
-2.5968 2.5968 -1.5030 0.9843
-3.2221 2.5965 -1.6936 0.9823
-3.8922 2.9137 -1.9899 0.9792
-4.2667 2.3298 -1.9896 0.9792
-4.3471 2.1760 -1.9896 0.9792
-4.4910 1.8602 -1.9895 0.9792
-4.6121 1.5350 -1.9894 0.9792
-4.6638 1.3694 -1.9894 0.9792
-4.7833 0.8630 -1.9893 0.9792
-4.8326 0.5196 -1.9893 0.9792
4.5793 0.0000 -1.9957 0.9802
4.5764 0.1634 -1.9957 0.9802
4.5530 0.4895 -1.9957 0.9802
4.5326 0.6517 -1.9957 0.9802
4.5064 0.8130 -1.9957 0.9802
4.4368 1.1324 -1.9956 0.9802
4.3446 1.4460 -1.9956 0.9802
4.0942 2.0494 -1.9954 0.9802
4.0184 2.1942 -1.9953 0.9802
3.9374 2.3362 -1.9953 0.9802
3.7604 2.6109 -1.9952 0.9802
3.6647 2.7434 -1.9951 0.9802
3.5644 2.8723 -1.9950 0.9802
3.3501 3.1191 -1.9949 0.9802
3.1188 3.3498 -1.9947 0.9802
2.6099 3.7589 -1.9944 0.9802
2.4739 3.8495 -1.9943 0.9802
2.3349 3.9352 -1.9942 0.9802
2.1928 4.0158 -1.9941 0.9802
2.0480 4.0913 -1.9940 0.9802
1.7507 4.2266 -1.9938 0.9802
0.3840 2.6711 -1.1761 0.9883
0.2854 2.6549 -1.1637 0.9884
0.1889 2.6416 -1.1542 0.9885
0.0000 2.6447 -1.1526 0.9885
-0.0944 2.6433 -1.1527 0.9885
-0.3765 2.6183 -1.1528 0.9885
-0.4721 2.6165 -1.1587 0.9885
-0.5679 2.6105 -1.1643 0.9884
-0.6651 2.6057 -1.1720 0.9883
-0.8655 2.6004 -1.1944 0.9881
-1.0754 2.5962 -1.2247 0.9878
-1.5341 2.5856 -1.3103 0.9870
-1.6618 2.5859 -1.3396 0.9867
-1.7966 2.5876 -1.3729 0.9863
-1.9385 2.5895 -1.4097 0.9860
-2.4064 2.5847 -1.5391 0.9847
-3.0000 2.5995 -1.7300 0.9828
-3.6555 2.7365 -1.9901 0.9803
-3.9267 2.3298 -1.9899 0.9803
-4.0072 2.1881 -1.9898 0.9803
-4.0827 2.0436 -1.9898 0.9803
-4.1529 1.8966 -1.9897 0.9803
-4.2179 1.7471 -1.9897 0.9803
-1.5118 0.5639 -0.7032 0.9930
-1.3722 0.4029 -0.6233 0.9938
-1.3400 0.3420 -0.6027 0.9940
-1.3688 0.2978 -0.6105 0.9939
-1.3955 0.2518 -0.6180 0.9938
-1.4180 0.2039 -0.6244 0.9938
-1.4359 0.1544 -0.6294 0.9937
-1.4490 0.1036 -0.6331 0.9937
-1.4571 0.0521 -0.6354 0.9937
4.2672 0.6135 -1.9955 0.9812
4.1770 1.0661 -1.9955 0.9812
4.0902 1.3613 -1.9954 0.9812
4.0389 1.5064 -1.9954 0.9812
3.9825 1.6496 -1.9953 0.9812
3.9210 1.7906 -1.9953 0.9812
3.7831 2.0657 -1.9952 0.9812
3.7068 2.1994 -1.9951 0.9812
3.6259 2.3302 -1.9951 0.9812
3.2569 2.8221 -1.9948 0.9812
3.1540 2.9365 -1.9947 0.9812
2.9363 3.1537 -1.9946 0.9812
2.8217 3.2564 -1.9945 0.9812
2.7036 3.3549 -1.9944 0.9812
2.5820 3.4491 -1.9943 0.9812
2.4571 3.5389 -1.9943 0.9812
2.1982 3.7049 -1.9941 0.9812
2.0645 3.7808 -1.9940 0.9812
1.9281 3.8519 -1.9939 0.9812
1.2133 4.1320 -1.9934 0.9812
0.7323 2.8691 -1.3706 0.9870
0.5991 2.7540 -1.3046 0.9877
0.3815 2.6536 -1.2409 0.9883
0.2836 2.6379 -1.2281 0.9884
0.1877 2.6249 -1.2181 0.9885
-0.0933 2.6122 -1.2099 0.9885
-0.2804 2.6081 -1.2142 0.9885
-0.5662 2.6029 -1.2330 0.9883
-0.6628 2.5966 -1.2405 0.9883
-0.8626 2.5916 -1.2643 0.9880
-1.4126 2.5871 -1.3644 0.9871
-1.5344 2.5861 -1.3919 0.9868
-1.6631 2.5878 -1.4239 0.9865
-1.9379 2.5888 -1.4969 0.9858
-2.0849 2.5872 -1.5380 0.9855
-2.2406 2.5858 -1.5838 0.9850
-2.4057 2.5838 -1.6342 0.9846
-2.9985 2.5982 -1.8365 0.9827
-3.4420 2.5766 -1.9902 0.9812
-3.6168 2.3244 -1.9901 0.9812
-3.8443 1.9243 -1.9899 0.9812
-1.2345 0.5113 -0.6185 0.9941
-1.1575 0.2954 -0.5529 0.9947
-1.2124 0.1743 -0.5670 0.9946
-1.2362 0.0884 -0.5737 0.9946
-1.2424 0.0444 -0.5755 0.9945
4.0679 0.0000 -1.9954 0.9820
4.0653 0.1452 -1.9954 0.9820
4.0264 0.5789 -1.9954 0.9820
4.0031 0.7223 -1.9953 0.9820
3.9413 1.0060 -1.9953 0.9820
3.9029 1.1460 -1.9953 0.9820
3.8110 1.4214 -1.9952 0.9820
3.7578 1.5565 -1.9952 0.9820
3.6370 1.8206 -1.9951 0.9820
3.5696 1.9492 -1.9950 0.9820
3.4977 2.0753 -1.9950 0.9820
3.4213 2.1988 -1.9949 0.9820
3.3406 2.3194 -1.9949 0.9820
3.1664 2.5517 -1.9948 0.9820
2.9761 2.7709 -1.9946 0.9820
2.6626 3.0728 -1.9944 0.9820
2.5511 3.1657 -1.9943 0.9820
2.4364 3.2546 -1.9942 0.9820
2.3186 3.3394 -1.9942 0.9821
2.1978 3.4199 -1.9941 0.9821
2.0743 3.4960 -1.9940 0.9821
1.9481 3.5676 -1.9939 0.9821
1.6884 3.6972 -1.9937 0.9821
1.4203 3.8079 -1.9935 0.9821
1.2834 3.8559 -1.9934 0.9821
0.7199 2.8207 -1.4280 0.9871
0.2818 2.6208 -1.2930 0.9883
0.1865 2.6080 -1.2826 0.9884
0.0000 2.6391 -1.2946 0.9883
-0.1933 2.7027 -1.3291 0.9880
-0.5645 2.5952 -1.3028 0.9882
-0.7617 2.5942 -1.3263 0.9880
-0.9675 2.5941 -1.3581 0.9877
-1.0746 2.5942 -1.3774 0.9876
-1.1847 2.5942 -1.3989 0.9874
-1.2973 2.5916 -1.4216 0.9872
-1.4137 2.5889 -1.4469 0.9869
-1.6644 2.5898 -1.5101 0.9864
-2.0842 2.5863 -1.6293 0.9853
-2.2398 2.5849 -1.6777 0.9849
-2.7654 2.9702 -1.9907 0.9821
-2.6128 2.6128 -1.8125 0.9837
-2.7901 2.5977 -1.8700 0.9832
-3.3329 2.3141 -1.9903 0.9821
-3.4893 2.0703 -1.9902 0.9821
-3.5609 1.9444 -1.9901 0.9821
-1.0588 0.5300 -0.5808 0.9947
-1.0444 0.4769 -0.5632 0.9949
-1.0119 0.3774 -0.5298 0.9952
-1.0175 0.2987 -0.5202 0.9953
-1.0307 0.2631 -0.5218 0.9953
-1.0422 0.2267 -0.5232 0.9953
-1.0518 0.1898 -0.5242 0.9952
-1.0611 0.1525 -0.5258 0.9952
3.8460 0.0000 -1.9952 0.9828
3.8436 0.1373 -1.9952 0.9828
3.8362 0.2744 -1.9952 0.9828
3.7580 0.8175 -1.9952 0.9828
3.6032 1.3439 -1.9951 0.9828
3.5529 1.4717 -1.9950 0.9828
3.3070 1.9621 -1.9949 0.9828
3.2348 2.0789 -1.9948 0.9828
3.0781 2.3042 -1.9947 0.9828
2.8138 2.6198 -1.9945 0.9828
2.6196 2.8137 -1.9944 0.9828
2.5174 2.9053 -1.9943 0.9828
2.0780 3.2335 -1.9940 0.9828
1.8419 3.3732 -1.9938 0.9828
1.4706 3.5503 -1.9936 0.9828
0.5900 2.7120 -1.4398 0.9876
0.3769 2.6212 -1.3738 0.9881
0.2799 2.6036 -1.3585 0.9883
0.1891 2.6444 -1.3754 0.9881
-0.0928 2.5991 -1.3492 0.9883
-0.2874 2.6730 -1.3947 0.9880
-0.5647 2.5957 -1.3781 0.9881
-0.6632 2.5986 -1.3913 0.9880
-0.7636 2.6006 -1.4061 0.9879
-0.8655 2.6005 -1.4219 0.9877
-1.0764 2.5986 -1.4592 0.9874
-1.1856 2.5961 -1.4806 0.9872
-1.6637 2.5887 -1.5964 0.9862
-1.9364 2.5867 -1.6763 0.9855
-2.4080 2.9882 -1.9909 0.9829
-2.7134 2.7134 -1.9907 0.9829
-2.9876 2.4075 -1.9905 0.9829
-3.1516 2.1882 -1.9904 0.9829
-3.2995 1.9577 -1.9903 0.9829
-0.9486 0.5180 -0.5607 0.9951
-0.9271 0.3840 -0.5206 0.9955
-0.9208 0.3434 -0.5098 0.9956
-0.9268 0.3085 -0.5067 0.9956
-0.9628 0.2095 -0.5112 0.9956
-0.9715 0.1753 -0.5121 0.9956
-0.9838 0.1058 -0.5133 0.9956
-0.9873 0.0706 -0.5135 0.9955
-0.9893 0.0353 -0.5135 0.9955
3.6403 0.1300 -1.9951 0.9835
3.5293 0.9008 -1.9950 0.9835
3.4949 1.0262 -1.9950 0.9835
3.4560 1.1503 -1.9950 0.9835
3.4127 1.2729 -1.9949 0.9835
3.3650 1.3938 -1.9949 0.9835
3.1966 1.7455 -1.9948 0.9835
3.0638 1.9690 -1.9947 0.9835
2.9153 2.1824 -1.9946 0.9835
2.6651 2.4813 -1.9944 0.9835
2.4812 2.6650 -1.9943 0.9835
2.3844 2.7517 -1.9942 0.9835
2.2846 2.8350 -1.9941 0.9835
2.1818 2.9146 -1.9941 0.9835
2.0763 2.9905 -1.9940 0.9835
1.9682 3.0626 -1.9939 0.9835
1.2719 3.4102 -1.9934 0.9835
1.1493 3.4532 -1.9934 0.9835
0.7120 2.7897 -1.5769 0.9870
0.5875 2.7006 -1.5137 0.9875
0.4764 2.6404 -1.4695 0.9878
0.3757 2.6130 -1.4459 0.9880
0.3082 2.8663 -1.5789 0.9869
-0.1859 2.5996 -1.4274 0.9882
-0.2794 2.5986 -1.4315 0.9882
-0.4122 2.8666 -1.5862 0.9869
-0.5655 2.5997 -1.4571 0.9879
-0.6649 2.6050 -1.4725 0.9878
-0.9709 2.6030 -1.5216 0.9874
-1.0771 2.6004 -1.5416 0.9872
-1.2987 2.5945 -1.5891 0.9869
-1.4150 2.5913 -1.6171 0.9866
-1.5362 2.5891 -1.6489 0.9864
-1.6634 2.5883 -1.6851 0.9861
-2.1786 2.9102 -1.9911 0.9836
-2.2810 2.8305 -1.9910 0.9836
-2.3804 2.7472 -1.9909 0.9836
-2.4769 2.6604 -1.9909 0.9836
-2.6602 2.4768 -1.9907 0.9836
-2.9853 2.0727 -1.9905 0.9836
-0.8524 0.5057 -0.5428 0.9955
-0.8507 0.4645 -0.5309 0.9956
-0.8516 0.4262 -0.5216 0.9957
-0.8506 0.3885 -0.5122 0.9957
-0.8479 0.3512 -0.5027 0.9958
-0.8465 0.3157 -0.4948 0.9959
-0.8603 0.2863 -0.4966 0.9959
-0.8837 0.2256 -0.4995 0.9958
-0.8932 0.1943 -0.5006 0.9958
-0.9011 0.1626 -0.5015 0.9958
-0.9127 0.0981 -0.5028 0.9958
-0.9161 0.0655 -0.5030 0.9958
-0.9179 0.0328 -0.5031 0.9958
3.4554 0.0000 -1.9950 0.9842
3.4532 0.1233 -1.9950 0.9842
3.4466 0.2465 -1.9950 0.9842
3.4356 0.3694 -1.9950 0.9842
3.4202 0.4917 -1.9949 0.9842
3.4004 0.6135 -1.9949 0.9842
3.3763 0.7345 -1.9949 0.9842
3.2373 1.2074 -1.9948 0.9842
2.9063 1.8678 -1.9946 0.9842
2.7655 2.0702 -1.9945 0.9842
2.6106 2.2621 -1.9944 0.9842
2.5281 2.3538 -1.9943 0.9842
2.4425 2.4425 -1.9943 0.9842
2.2618 2.6103 -1.9941 0.9842
2.0697 2.7648 -1.9940 0.9842
1.7621 2.9699 -1.9938 0.9842
1.5457 3.0878 -1.9936 0.9842
1.4344 3.1409 -1.9936 0.9842
1.3213 3.1900 -1.9935 0.9842
1.2066 3.2350 -1.9934 0.9842
1.0903 3.2758 -1.9933 0.9842
0.9727 3.3125 -1.9932 0.9842
0.7084 2.7757 -1.6539 0.9869
0.5851 2.6899 -1.5893 0.9874
0.2794 2.5987 -1.5090 0.9880
0.0929 2.6008 -1.5025 0.9881
0.0000 2.6014 -1.5019 0.9881
-0.4693 2.6011 -1.5260 0.9879
-0.5665 2.6041 -1.5386 0.9878
-0.7653 2.6062 -1.5682 0.9875
-1.1857 2.5964 -1.6480 0.9869
-1.4143 2.5902 -1.7039 0.9865
-1.7600 2.9663 -1.9914 0.9842
-2.2583 2.6062 -1.9910 0.9842
-2.4383 2.4383 -1.9909 0.9842
-2.5237 2.3497 -1.9908 0.9842
-2.6848 2.1635 -1.9907 0.9842
-0.7696 0.4946 -0.5282 0.9958
-0.8014 0.2667 -0.4876 0.9961
-0.8230 0.2101 -0.4904 0.9961
-0.8453 0.1215 -0.4930 0.9961
-0.8499 0.0914 -0.4935 0.9961
