ply
format ascii 1.0
element vertex 804
property float32 x
property float32 y
property float32 z
property float32 I
end_header
-2.0857 3.8196 -0.5169 0.9826
-2.2202 3.4547 -0.4878 0.9836
-2.3485 3.3825 -0.4891 0.9835
-2.4748 3.3060 -0.4905 0.9835
-2.7498 3.1735 -0.4988 0.9832
-1.7794 3.8963 -0.6069 0.9828
-1.8139 3.6238 -0.5742 0.9838
-1.8794 3.4418 -0.5556 0.9843
-2.1057 3.0327 -0.5231 0.9852
-2.2269 2.9748 -0.5265 0.9851
-2.3869 2.9620 -0.5390 0.9847
-2.5544 2.9480 -0.5527 0.9844
-2.7304 2.9326 -0.5677 0.9839
-2.9254 2.9254 -0.5862 0.9834
-1.4714 3.9451 -0.6936 0.9831
-1.5873 3.4758 -0.6295 0.9846
-1.9095 2.9712 -0.5818 0.9858
-2.1788 2.9105 -0.5989 0.9854
-2.3321 2.8939 -0.6123 0.9850
-2.4922 2.8762 -0.6270 0.9847
-2.6621 2.8593 -0.6436 0.9843
-2.8428 2.8429 -0.6623 0.9838
-3.0724 2.8605 -0.6915 0.9831
-3.6135 2.9119 -0.7645 0.9814
-3.8869 2.9097 -0.7999 0.9805
6.1395 7.6187 -1.8391 0.9610
5.5497 7.9931 -1.8290 0.9612
5.2595 8.1839 -1.8285 0.9612
4.9627 8.3642 -1.8280 0.9612
4.6598 8.5338 -1.8276 0.9612
4.3512 8.6926 -1.8271 0.9612
4.0372 8.8402 -1.8267 0.9612
3.3948 9.1017 -1.8259 0.9612
2.4010 9.4069 -1.8248 0.9613
2.0633 9.4849 -1.8245 0.9613
1.7232 9.5510 -1.8242 0.9613
1.3810 9.6049 -1.8239 0.9613
1.0371 9.6467 -1.8237 0.9613
0.6921 9.6764 -1.8234 0.9613
0.3462 9.6937 -1.8232 0.9613
0.0000 9.6989 -1.8230 0.9613
-0.3461 9.6918 -1.8228 0.9613
-0.6918 9.6725 -1.8227 0.9613
-1.3799 9.5973 -1.8225 0.9613
-2.0609 9.4737 -1.8223 0.9613
-1.2961 3.8943 -0.7714 0.9834
-1.3474 3.6125 -0.7247 0.9844
-1.4102 3.4046 -0.6927 0.9851
-1.4817 3.2445 -0.6704 0.9856
-1.5661 3.1286 -0.6576 0.9859
-1.6464 3.0152 -0.6457 0.9861
-1.7485 2.9470 -0.6441 0.9861
-1.8739 2.9158 -0.6515 0.9860
-2.0019 2.8833 -0.6598 0.9858
-2.4378 2.8134 -0.6997 0.9850
-2.6002 2.7928 -0.7172 0.9846
-2.7709 2.7709 -0.7366 0.9842
-2.9899 2.7837 -0.7679 0.9835
-3.7239 2.7877 -0.8743 0.9812
-3.9409 2.7362 -0.9018 0.9807
9.4506 -0.0000 -1.9977 0.9621
9.4417 0.3372 -1.9970 0.9621
9.4207 0.6738 -1.9964 0.9621
9.3877 1.0093 -1.9958 0.9621
9.2860 1.6754 -1.9946 0.9622
9.2174 2.0051 -1.9939 0.9622
9.1370 2.3321 -1.9933 0.9622
9.0451 2.6559 -1.9927 0.9622
8.8270 3.2923 -1.9914 0.9622
8.5642 3.9112 -1.9902 0.9622
8.4166 4.2130 -1.9895 0.9623
8.0896 4.7998 -1.9883 0.9623
7.7219 5.3614 -1.9871 0.9623
7.3154 5.8951 -1.9859 0.9623
7.0983 6.1507 -1.9853 0.9623
6.1439 7.0904 -1.9832 0.9624
5.6055 7.4881 -1.9772 0.9625
5.3242 7.6683 -1.9733 0.9626
4.9498 7.7020 -1.9353 0.9633
4.2395 7.7641 -1.8699 0.9645
3.8970 7.7851 -1.8403 0.9650
3.3092 7.9889 -1.8278 0.9653
2.7298 8.2016 -1.8272 0.9653
2.4349 8.2923 -1.8268 0.9653
2.1370 8.3726 -1.8265 0.9653
1.5338 8.5011 -1.8260 0.9653
-0.3081 8.6272 -1.8248 0.9653
-0.6158 8.6101 -1.8247 0.9653
-1.5324 8.4937 -1.8244 0.9653
-1.8345 8.4333 -1.8243 0.9653
-1.0207 3.9993 -0.8725 0.9833
-1.1860 3.5635 -0.7939 0.9848
-1.2617 3.3827 -0.7631 0.9853
-1.4076 3.0821 -0.7162 0.9862
-1.4775 2.9517 -0.6977 0.9866
-1.5962 2.9232 -0.7040 0.9865
-1.7166 2.8933 -0.7111 0.9863
-1.8393 2.8620 -0.7191 0.9862
-1.9645 2.8294 -0.7281 0.9860
-2.0926 2.7954 -0.7381 0.9858
-2.2355 2.7741 -0.7531 0.9855
-2.3897 2.7579 -0.7714 0.9852
-2.9205 2.7191 -0.8435 0.9838
-3.1317 2.7136 -0.8759 0.9832
-3.3138 2.6705 -0.8996 0.9828
-3.5877 2.6857 -0.9473 0.9818
-3.8145 2.6484 -0.9816 0.9812
-8.2223 4.4897 -1.9802 0.9624
-8.8995 2.9620 -1.9826 0.9624
-9.0930 2.3208 -1.9837 0.9624
-9.2405 1.6672 -1.9848 0.9623
-9.3946 0.3355 -1.9871 0.9623
8.4420 0.9076 -1.9955 0.9657
8.3510 1.5067 -1.9944 0.9657
8.2896 1.8033 -1.9938 0.9657
8.1352 2.3887 -1.9927 0.9658
7.5711 3.7898 -1.9898 0.9658
7.4289 4.0565 -1.9893 0.9658
7.2774 4.3178 -1.9887 0.9658
7.1167 4.5736 -1.9882 0.9658
6.7686 5.0669 -1.9871 0.9659
6.5817 5.3039 -1.9866 0.9659
6.3865 5.5339 -1.9861 0.9659
6.1834 5.7569 -1.9856 0.9659
5.9724 5.9724 -1.9851 0.9659
5.7540 6.1803 -1.9846 0.9659
5.5285 6.3802 -1.9841 0.9659
4.8115 6.9298 -1.9827 0.9659
4.0375 7.3941 -1.9800 0.9660
3.7665 7.5245 -1.9776 0.9660
2.9115 7.8060 -1.9581 0.9663
2.6015 7.8162 -1.9361 0.9667
2.2978 7.8257 -1.9169 0.9670
1.9997 7.8346 -1.9003 0.9673
0.0000 7.8277 -1.8397 0.9683
-0.8385 7.7995 -1.8436 0.9683
-0.5822 4.0491 -0.9614 0.9833
-0.6919 3.8350 -0.9159 0.9841
-1.0065 3.4279 -0.8396 0.9854
-1.1098 3.3345 -0.8260 0.9857
-1.1973 3.2102 -0.8052 0.9860
-1.2725 3.0721 -0.7815 0.9864
-1.3440 2.9429 -0.7604 0.9868
-1.4405 2.8779 -0.7564 0.9869
-1.5554 2.8485 -0.7628 0.9868
-1.7922 2.7888 -0.7791 0.9865
-1.9193 2.7644 -0.7909 0.9863
-2.1997 2.7297 -0.8239 0.9857
-2.5071 2.6928 -0.8647 0.9850
-2.6727 2.6728 -0.8884 0.9846
-2.8537 2.6569 -0.9164 0.9841
-3.0595 2.6511 -0.9514 0.9835
-3.2492 2.6184 -0.9807 0.9830
-3.7655 2.6144 -1.0774 0.9813
-7.2494 4.3013 -1.9811 0.9660
-7.3998 4.0406 -1.9815 0.9660
-7.6723 3.5038 -1.9823 0.9659
-7.9062 2.9489 -1.9832 0.9659
-8.0083 2.6654 -1.9836 0.9659
-8.1002 2.3784 -1.9841 0.9659
-8.2533 1.7954 -1.9851 0.9659
-8.3142 1.5000 -1.9856 0.9659
-8.3646 1.2026 -1.9861 0.9659
-8.4044 0.9036 -1.9866 0.9659
-8.4335 0.6032 -1.9871 0.9659
7.7119 0.0000 -1.9967 0.9686
7.7050 0.2752 -1.9962 0.9686
7.6884 0.5499 -1.9957 0.9687
7.6619 0.8237 -1.9952 0.9687
7.5797 1.3675 -1.9942 0.9687
7.3844 2.1683 -1.9927 0.9687
7.3004 2.4298 -1.9922 0.9687
7.2072 2.6881 -1.9916 0.9687
6.9935 3.1938 -1.9906 0.9687
6.3073 4.3793 -1.9881 0.9688
6.1455 4.6005 -1.9876 0.9688
5.9760 4.8157 -1.9872 0.9688
5.7989 5.0248 -1.9867 0.9688
5.6146 5.2273 -1.9862 0.9688
5.2250 5.6120 -1.9853 0.9688
4.5922 6.1344 -1.9841 0.9688
3.9078 6.5863 -1.9829 0.9689
3.4268 6.8458 -1.9822 0.9689
2.4161 7.2591 -1.9809 0.9689
1.8910 7.4087 -1.9797 0.9689
1.6244 7.4670 -1.9786 0.9689
1.0864 7.5561 -1.9765 0.9689
0.0000 7.6254 -1.9743 0.9690
-0.1447 4.0517 -1.0497 0.9834
-0.2676 3.7420 -0.9713 0.9846
-0.3922 3.6485 -0.9501 0.9850
-0.5119 3.5604 -0.9313 0.9852
-0.8394 3.2889 -0.8788 0.9861
-0.9421 3.2086 -0.8658 0.9863
-1.3116 2.8720 -0.8175 0.9870
-1.7608 2.7400 -0.8433 0.9866
-2.0253 2.7056 -0.8751 0.9861
-2.6268 2.6268 -0.9619 0.9848
-2.8021 2.6088 -0.9913 0.9843
-3.0163 2.6137 -1.0334 0.9836
-3.2224 2.5968 -1.0715 0.9830
-3.7179 2.5814 -1.1719 0.9815
-6.5839 3.9064 -1.9822 0.9689
-6.7203 3.6696 -1.9825 0.9689
-6.8483 3.4280 -1.9829 0.9689
-6.9676 3.1820 -1.9833 0.9688
-7.1797 2.6779 -1.9841 0.9688
-7.3556 2.1598 -1.9849 0.9688
-7.5494 1.3621 -1.9862 0.9688
-7.5950 1.0920 -1.9867 0.9688
-7.6571 0.5476 -1.9876 0.9688
7.0521 0.0000 -1.9964 0.9711
7.0460 0.2517 -1.9959 0.9711
7.0309 0.5029 -1.9955 0.9711
7.0068 0.7533 -1.9950 0.9711
6.8813 1.4969 -1.9936 0.9711
6.8219 1.7412 -1.9931 0.9712
6.7538 1.9831 -1.9927 0.9712
6.4985 2.6918 -1.9913 0.9712
6.3968 2.9213 -1.9908 0.9712
5.9105 3.7984 -1.9890 0.9712
4.4001 5.4602 -1.9852 0.9713
3.7891 5.8959 -1.9841 0.9713
3.5756 6.0264 -1.9837 0.9713
3.3577 6.1491 -1.9834 0.9713
2.6799 6.4697 -1.9824 0.9713
1.9721 6.7164 -1.9816 0.9713
1.4876 6.8383 -1.9811 0.9713
1.2424 6.8863 -1.9809 0.9713
0.9958 6.9255 -1.9807 0.9713
0.7479 6.9560 -1.9805 0.9713
0.2497 6.9905 -1.9802 0.9713
-0.1267 3.5482 -1.0051 0.9853
-0.5821 3.2265 -0.9281 0.9865
-1.0848 2.9086 -0.8788 0.9872
-1.1878 2.8677 -0.8787 0.9872
-1.4906 2.7299 -0.8805 0.9872
-1.6114 2.7159 -0.8940 0.9870
-1.7353 2.7001 -0.9086 0.9867
-1.8629 2.6831 -0.9247 0.9865
-1.9948 2.6648 -0.9423 0.9863
-2.2756 2.6262 -0.9837 0.9857
-2.7920 2.5995 -1.0800 0.9843
-3.2028 2.5810 -1.1645 0.9830
-4.0398 2.5963 -1.3595 0.9802
-6.0244 3.5744 -1.9831 0.9713
-6.1491 3.3577 -1.9834 0.9713
-6.2661 3.1366 -1.9837 0.9713
-6.3752 2.9115 -1.9841 0.9713
-6.5690 2.4501 -1.9848 0.9713
-6.8563 1.4915 -1.9864 0.9713
-6.9482 0.9990 -1.9872 0.9712
-7.0048 0.5010 -1.9881 0.9712
-7.0197 0.2507 -1.9885 0.9712
6.4897 -0.0000 -1.9961 0.9732
6.4705 0.4628 -1.9953 0.9732
6.2787 1.6025 -1.9931 0.9732
6.1457 2.0455 -1.9922 0.9733
6.0675 2.2630 -1.9918 0.9733
5.7870 2.8968 -1.9905 0.9733
5.4408 3.4966 -1.9893 0.9733
5.3114 3.6878 -1.9888 0.9733
5.0327 4.0556 -1.9880 0.9733
4.7287 4.4026 -1.9872 0.9733
4.5677 4.5677 -1.9869 0.9733
2.6790 5.8661 -1.9835 0.9734
2.4675 5.9571 -1.9833 0.9734
2.2530 6.0406 -1.9830 0.9734
2.0357 6.1164 -1.9827 0.9734
1.5938 6.2446 -1.9823 0.9734
1.3698 6.2968 -1.9821 0.9734
0.9169 6.3773 -1.9817 0.9734
0.6887 6.4054 -1.9815 0.9734
0.4596 6.4254 -1.9813 0.9734
0.0000 3.3934 -1.0437 0.9859
-0.3387 3.1508 -0.9747 0.9868
-0.7493 2.9356 -0.9319 0.9874
-0.8444 2.8758 -0.9219 0.9875
-0.9514 2.8586 -0.9266 0.9875
-1.0598 2.8414 -0.9328 0.9874
-1.2582 2.7552 -0.9316 0.9874
-1.4654 2.4699 -0.8833 0.9881
-1.7081 2.6578 -0.9717 0.9869
-1.9635 2.6229 -1.0078 0.9864
-2.1058 2.6132 -1.0322 0.9861
-3.1886 2.5696 -1.2596 0.9830
-3.6937 2.5646 -1.3831 0.9814
-5.5469 3.2911 -1.9838 0.9734
-5.6617 3.0915 -1.9841 0.9734
-5.7693 2.8879 -1.9844 0.9734
-5.8697 2.6806 -1.9847 0.9734
-6.0480 2.2558 -1.9854 0.9733
-6.1257 2.0388 -1.9858 0.9733
-6.3964 0.9197 -1.9876 0.9733
-6.4483 0.4612 -1.9884 0.9733
5.9992 0.2143 -1.9955 0.9750
5.9866 0.4282 -1.9951 0.9750
5.9384 0.8538 -1.9943 0.9750
5.8601 1.2748 -1.9935 0.9750
5.8097 1.4828 -1.9931 0.9750
5.6868 1.8927 -1.9923 0.9751
5.6145 2.0941 -1.9919 0.9751
5.2551 2.8695 -1.9903 0.9751
5.1483 3.0546 -1.9899 0.9751
5.0350 3.2358 -1.9895 0.9751
4.9154 3.4128 -1.9891 0.9751
4.7896 3.5854 -1.9887 0.9751
4.6577 3.7534 -1.9884 0.9751
4.3764 4.0746 -1.9876 0.9751
4.2275 4.2275 -1.9873 0.9751
4.0732 4.3749 -1.9869 0.9751
3.9138 4.5167 -1.9866 0.9751
3.7494 4.6528 -1.9863 0.9751
3.5804 4.7828 -1.9860 0.9751
3.4069 4.9068 -1.9856 0.9751
3.2291 5.0245 -1.9853 0.9751
3.0472 5.1358 -1.9850 0.9751
2.8615 5.2405 -1.9848 0.9751
2.6723 5.3385 -1.9845 0.9751
2.4797 5.4298 -1.9842 0.9752
2.2840 5.5141 -1.9840 0.9752
1.4754 5.7804 -1.9830 0.9752
1.0590 5.8698 -1.9827 0.9752
0.6375 5.9294 -1.9823 0.9752
0.4254 5.9480 -1.9822 0.9752
0.1200 3.3600 -1.1176 0.9859
-0.2172 3.0368 -1.0120 0.9872
-0.6199 2.8495 -0.9693 0.9878
-0.7196 2.8194 -0.9672 0.9878
-1.2397 2.7147 -0.9920 0.9875
-1.3701 2.5092 -0.9503 0.9880
-1.4655 2.4700 -0.9547 0.9880
-1.8141 2.6128 -1.0573 0.9867
-1.9521 2.6078 -1.0828 0.9864
-2.0971 2.6024 -1.1109 0.9860
-2.2512 2.5981 -1.1427 0.9856
-2.4145 2.5934 -1.1778 0.9852
-2.5877 2.5877 -1.2164 0.9847
-2.7718 2.5806 -1.2589 0.9842
-2.9693 2.5730 -1.3060 0.9836
-3.1743 2.5580 -1.3551 0.9830
-4.0433 2.5985 -1.5976 0.9799
-5.1343 3.0463 -1.9845 0.9751
-5.2405 2.8615 -1.9848 0.9751
-5.3401 2.6731 -1.9850 0.9751
-5.4329 2.4811 -1.9853 0.9751
-5.5188 2.2860 -1.9856 0.9751
-5.5978 2.0879 -1.9860 0.9751
-5.6697 1.8871 -1.9863 0.9751
-5.7918 1.4783 -1.9870 0.9751
-5.9475 0.6394 -1.9884 0.9751
-5.9676 0.4268 -1.9888 0.9751
5.5805 0.0000 -1.9956 0.9766
5.5759 0.1992 -1.9953 0.9766
5.5642 0.3980 -1.9949 0.9766
5.5455 0.5962 -1.9945 0.9766
5.4469 1.1849 -1.9934 0.9766
5.3465 1.5699 -1.9927 0.9766
5.2189 1.9466 -1.9919 0.9766
4.9782 2.4919 -1.9908 0.9766
4.8852 2.6675 -1.9904 0.9766
4.6807 3.0081 -1.9897 0.9766
4.4526 3.3332 -1.9890 0.9766
3.9303 3.9303 -1.9877 0.9767
3.3289 4.4468 -1.9864 0.9767
3.0023 4.6716 -1.9858 0.9767
2.4847 4.9638 -1.9850 0.9767
2.3057 5.0487 -1.9848 0.9767
2.1237 5.1271 -1.9846 0.9767
1.9392 5.1991 -1.9843 0.9767
1.7522 5.2644 -1.9841 0.9767
1.1791 5.4200 -1.9835 0.9767
0.7893 5.4893 -1.9832 0.9767
0.3956 5.5308 -1.9829 0.9767
-0.1060 2.9683 -1.0622 0.9875
-0.2082 2.9105 -1.0435 0.9877
-0.3080 2.8644 -1.0302 0.9878
-0.6013 2.7640 -1.0115 0.9881
-0.7989 2.7207 -1.0140 0.9880
-1.0000 2.6811 -1.0233 0.9879
-1.1016 2.6594 -1.0294 0.9878
-1.3120 2.6211 -1.0482 0.9876
-1.4283 2.6157 -1.0658 0.9874
-1.5495 2.6116 -1.0860 0.9872
-1.6755 2.6072 -1.1083 0.9869
-1.8068 2.6024 -1.1329 0.9866
-1.9442 2.5972 -1.1602 0.9863
-2.4038 2.5819 -1.2615 0.9851
-2.7614 2.5710 -1.3492 0.9841
-2.9606 2.5653 -1.4009 0.9835
-3.1982 2.5773 -1.4689 0.9827
-3.4352 2.5715 -1.5345 0.9819
-3.6966 2.5666 -1.6093 0.9811
-4.6692 3.0007 -1.9848 0.9767
-4.7739 2.8325 -1.9851 0.9767
-4.9651 2.4853 -1.9856 0.9767
-5.1312 2.1254 -1.9861 0.9767
-5.3847 1.3744 -1.9874 0.9767
-5.4312 1.1815 -1.9877 0.9767
-5.4708 0.9871 -1.9880 0.9767
-5.5035 0.7913 -1.9883 0.9767
-5.5292 0.5944 -1.9887 0.9767
-5.5479 0.3968 -1.9890 0.9766
-5.5595 0.1986 -1.9894 0.9766
5.2028 0.1858 -1.9951 0.9779
5.1920 0.3713 -1.9947 0.9779
5.1745 0.5563 -1.9944 0.9780
5.1199 0.9237 -1.9937 0.9780
5.0828 1.1057 -1.9934 0.9780
4.9892 1.4650 -1.9927 0.9780
4.8015 1.9888 -1.9916 0.9780
4.7266 2.1586 -1.9913 0.9780
4.6458 2.3255 -1.9909 0.9780
4.5590 2.4894 -1.9906 0.9780
4.4665 2.6501 -1.9903 0.9780
4.3684 2.8074 -1.9899 0.9780
4.2646 2.9610 -1.9896 0.9780
3.7974 3.5355 -1.9883 0.9780
3.6682 3.6682 -1.9880 0.9780
3.5344 3.7962 -1.9877 0.9780
3.3962 3.9194 -1.9874 0.9780
3.1070 4.1505 -1.9868 0.9780
2.9565 4.2582 -1.9866 0.9780
2.8023 4.3604 -1.9863 0.9780
2.4834 4.5480 -1.9858 0.9780
2.1521 4.7125 -1.9853 0.9781
1.8101 4.8530 -1.9849 0.9781
1.1006 5.0593 -1.9841 0.9781
0.9192 5.0949 -1.9840 0.9781
0.7367 5.1241 -1.9838 0.9781
0.5533 5.1468 -1.9837 0.9781
0.2332 3.2606 -1.2527 0.9861
0.0000 2.9133 -1.1164 0.9876
-0.3939 2.7400 -1.0608 0.9882
-0.4890 2.7104 -1.0554 0.9883
-0.7829 2.6664 -1.0649 0.9882
-0.8815 2.6486 -1.0697 0.9881
-0.9814 2.6314 -1.0762 0.9880
-1.0881 2.6270 -1.0897 0.9879
-1.3074 2.6118 -1.1193 0.9876
-1.7996 2.5919 -1.2092 0.9866
-2.2318 2.5756 -1.3060 0.9855
-2.9593 2.5643 -1.5006 0.9834
-3.4364 2.5724 -1.6450 0.9818
-3.6964 2.5665 -1.7245 0.9809
-4.3583 2.8009 -1.9853 0.9781
-4.5480 2.4834 -1.9858 0.9780
-4.7148 2.1532 -1.9863 0.9780
-4.7893 1.9838 -1.9866 0.9780
-4.8577 1.8118 -1.9868 0.9780
-4.9200 1.6375 -1.9871 0.9780
-5.0258 1.2827 -1.9877 0.9780
-5.0691 1.1027 -1.9880 0.9780
-5.1060 0.9212 -1.9883 0.9780
-5.1365 0.7385 -1.9886 0.9780
-5.1885 0.1853 -1.9896 0.9780
4.8751 0.0000 -1.9952 0.9792
4.8712 0.1740 -1.9949 0.9792
4.8611 0.3477 -1.9946 0.9792
4.8448 0.5209 -1.9943 0.9792
4.7938 0.8649 -1.9936 0.9792
4.7591 1.0353 -1.9933 0.9792
4.7183 1.2043 -1.9930 0.9792
4.6716 1.3717 -1.9927 0.9792
4.5603 1.7009 -1.9920 0.9792
4.2691 2.3311 -1.9907 0.9792
4.1825 2.4816 -1.9904 0.9792
3.9935 2.7728 -1.9898 0.9792
3.8914 2.9131 -1.9895 0.9792
3.7844 3.0497 -1.9892 0.9792
3.6726 3.1823 -1.9889 0.9792
3.5561 3.3109 -1.9886 0.9792
3.3099 3.5551 -1.9880 0.9792
2.7688 3.9878 -1.9870 0.9792
2.4767 4.1742 -1.9865 0.9792
2.1721 4.3392 -1.9860 0.9792
2.0156 4.4135 -1.9858 0.9792
1.6953 4.5451 -1.9854 0.9793
1.5318 4.6023 -1.9852 0.9793
1.3664 4.6536 -1.9850 0.9793
1.1994 4.6990 -1.9848 0.9793
1.0308 4.7385 -1.9847 0.9793
0.6900 4.7992 -1.9844 0.9793
0.2241 3.1331 -1.2856 0.9865
0.1055 2.9530 -1.2094 0.9873
0.0000 2.8321 -1.1591 0.9878
-0.1952 2.7296 -1.1200 0.9882
-0.7764 2.6442 -1.1279 0.9882
-0.8743 2.6269 -1.1331 0.9881
-0.9790 2.6249 -1.1466 0.9880
-1.1921 2.6104 -1.1745 0.9877
-1.3027 2.6025 -1.1911 0.9875
-1.6631 2.5879 -1.2590 0.9868
-1.9309 2.5794 -1.3187 0.9862
-2.3980 2.5757 -1.4403 0.9849
-2.5726 2.5726 -1.4890 0.9844
-2.9578 2.5629 -1.6018 0.9832
-3.1922 2.5724 -1.6779 0.9824
-3.4351 2.5715 -1.7562 0.9816
-4.1732 2.4761 -1.9860 0.9792
-4.2594 2.3258 -1.9862 0.9792
-4.3402 2.1725 -1.9865 0.9792
-4.4155 2.0165 -1.9867 0.9792
-4.4853 1.8579 -1.9870 0.9792
-4.5493 1.6968 -1.9872 0.9792
-4.6076 1.5335 -1.9875 0.9792
-4.6600 1.3683 -1.9877 0.9792
-4.7065 1.2013 -1.9880 0.9792
-4.8324 0.5195 -1.9892 0.9792
-4.8486 0.3468 -1.9895 0.9792
-4.8586 0.1735 -1.9898 0.9792
4.5778 0.0000 -1.9951 0.9802
4.5285 0.6511 -1.9939 0.9802
4.4691 0.9722 -1.9933 0.9802
4.4309 1.1309 -1.9930 0.9802
4.3871 1.2882 -1.9927 0.9802
4.3376 1.4437 -1.9924 0.9803
4.2827 1.5974 -1.9921 0.9803
4.2223 1.7489 -1.9918 0.9803
4.0855 2.0450 -1.9911 0.9803
4.0093 2.1892 -1.9908 0.9803
3.9280 2.3306 -1.9905 0.9803
3.8418 2.4690 -1.9903 0.9803
3.7507 2.6041 -1.9900 0.9803
3.4493 2.9888 -1.9891 0.9803
3.3400 3.1096 -1.9888 0.9803
3.2264 3.2264 -1.9886 0.9803
2.9872 3.4475 -1.9880 0.9803
2.8619 3.5514 -1.9878 0.9803
2.6006 3.7456 -1.9873 0.9803
2.4650 3.8356 -1.9871 0.9803
2.3263 3.9207 -1.9868 0.9803
2.1846 4.0008 -1.9866 0.9803
1.7439 4.2101 -1.9860 0.9803
1.2835 4.3712 -1.9855 0.9803
1.1266 4.4139 -1.9853 0.9803
0.9683 4.4510 -1.9852 0.9803
0.8087 4.4824 -1.9850 0.9803
0.4868 4.5281 -1.9848 0.9803
0.2206 3.0847 -1.3478 0.9866
0.0000 2.8051 -1.2225 0.9878
-0.0976 2.7341 -1.1923 0.9881
-0.1924 2.6908 -1.1757 0.9883
-0.2873 2.6719 -1.1712 0.9883
-0.3817 2.6550 -1.1690 0.9884
-0.6722 2.6338 -1.1847 0.9882
-0.9766 2.6184 -1.2180 0.9879
-1.0818 2.6116 -1.2320 0.9877
-1.1885 2.6025 -1.2469 0.9876
-1.5365 2.5896 -1.3123 0.9869
-1.7965 2.5875 -1.3728 0.9863
-1.9337 2.5831 -1.4063 0.9860
-2.0774 2.5780 -1.4429 0.9857
-2.2338 2.5779 -1.4866 0.9852
-2.5713 2.5713 -1.5848 0.9843
-3.4430 2.9834 -1.9855 0.9803
-3.4332 2.5701 -1.8691 0.9815
-3.7432 2.5990 -1.9860 0.9803
-3.9198 2.3258 -1.9864 0.9803
-4.1474 1.8940 -1.9871 0.9803
-4.2128 1.7450 -1.9873 0.9803
-1.3722 0.4029 -0.6233 0.9938
-1.3400 0.3420 -0.6027 0.9940
-1.3688 0.2978 -0.6105 0.9939
-1.4180 0.2039 -0.6244 0.9938
-1.4359 0.1544 -0.6294 0.9937
-1.4490 0.1036 -0.6331 0.9937
4.2833 0.4605 -1.9941 0.9812
4.2383 0.7647 -1.9935 0.9812
3.9755 1.6467 -1.9918 0.9812
3.6986 2.1945 -1.9907 0.9812
3.6174 2.3247 -1.9904 0.9812
3.3468 2.6970 -1.9896 0.9812
3.1450 2.9281 -1.9891 0.9812
3.0381 3.0381 -1.9888 0.9812
2.5736 3.4379 -1.9878 0.9812
2.4490 3.5272 -1.9876 0.9813
2.0572 3.7675 -1.9870 0.9813
1.7829 3.9039 -1.9866 0.9813
1.6422 3.9647 -1.9864 0.9813
1.3550 4.0710 -1.9861 0.9813
1.0609 4.1567 -1.9857 0.9813
0.1021 2.8582 -1.3239 0.9875
-0.1913 2.6746 -1.2412 0.9883
-0.3794 2.6386 -1.2339 0.9883
-0.4731 2.6222 -1.2334 0.9883
-0.6907 2.7063 -1.2929 0.9878
-0.8154 2.7769 -1.3397 0.9873
-0.8686 2.6099 -1.2732 0.9879
-0.9742 2.6119 -1.2904 0.9878
-1.0785 2.6038 -1.3046 0.9877
-1.1864 2.5979 -1.3220 0.9875
-1.4184 2.5975 -1.3699 0.9870
-1.5405 2.5965 -1.3975 0.9868
-1.9352 2.5852 -1.4948 0.9859
-2.0792 2.5801 -1.5338 0.9855
-2.2336 2.5777 -1.5788 0.9851
-2.5706 2.5706 -1.6828 0.9841
-3.1398 2.9232 -1.9858 0.9813
-3.2424 2.8095 -1.9859 0.9813
-3.3408 2.6922 -1.9861 0.9813
-3.6104 2.3203 -1.9866 0.9813
-3.9055 1.7836 -1.9874 0.9813
-1.2345 0.5114 -0.6185 0.9941
-1.1329 0.3327 -0.5466 0.9948
-1.1574 0.2954 -0.5529 0.9947
-1.1974 0.2160 -0.5632 0.9947
-1.2124 0.1743 -0.5670 0.9946
-1.2424 0.0444 -0.5755 0.9945
4.0636 0.1451 -1.9946 0.9820
3.9994 0.7216 -1.9935 0.9821
3.8978 1.1445 -1.9927 0.9821
3.8539 1.2827 -1.9924 0.9821
3.7516 1.5540 -1.9919 0.9821
3.6932 1.6867 -1.9916 0.9821
3.6302 1.8171 -1.9913 0.9821
3.5625 1.9453 -1.9910 0.9821
3.4904 2.0709 -1.9908 0.9821
3.4138 2.1939 -1.9905 0.9821
3.2477 2.4312 -1.9900 0.9821
3.1585 2.5453 -1.9898 0.9821
3.0652 2.6560 -1.9895 0.9821
2.9681 2.7634 -1.9893 0.9821
2.8673 2.8673 -1.9890 0.9821
2.5434 3.1562 -1.9883 0.9821
2.4289 3.2446 -1.9881 0.9821
1.9416 3.5558 -1.9873 0.9821
1.6827 3.6846 -1.9869 0.9821
1.4153 3.7946 -1.9866 0.9821
0.8606 3.9562 -1.9860 0.9821
0.5761 4.0071 -1.9858 0.9821
0.2165 3.0266 -1.4884 0.9866
0.0000 2.7508 -1.3493 0.9878
-0.0958 2.6830 -1.3169 0.9881
-0.1902 2.6592 -1.3077 0.9882
-0.2837 2.6386 -1.3018 0.9882
-0.6661 2.6096 -1.3211 0.9881
-0.9565 2.8737 -1.4857 0.9866
-0.9960 2.6705 -1.3981 0.9874
-1.3042 2.6055 -1.4292 0.9871
-1.5435 2.6014 -1.4838 0.9866
-1.7997 2.5920 -1.5479 0.9860
-2.2334 2.5775 -1.6730 0.9849
-2.7587 2.9631 -1.9859 0.9821
-2.9634 2.7591 -1.9861 0.9821
-3.0603 2.6517 -1.9863 0.9821
-3.2421 2.4270 -1.9866 0.9821
-3.3270 2.3100 -1.9868 0.9821
-3.4839 2.0671 -1.9871 0.9821
-1.0290 0.4262 -0.5463 0.9951
-1.0119 0.3774 -0.5298 0.9952
-1.0422 0.2267 -0.5232 0.9953
-1.0518 0.1898 -0.5242 0.9952
-1.0705 0.1151 -0.5281 0.9952
-1.0769 0.0770 -0.5296 0.9952
3.8421 0.1372 -1.9945 0.9828
3.8342 0.2742 -1.9942 0.9828
3.8215 0.4109 -1.9939 0.9828
3.8039 0.5469 -1.9937 0.9828
3.7543 0.8167 -1.9932 0.9828
3.6440 1.2128 -1.9924 0.9828
3.5980 1.3420 -1.9922 0.9828
3.3004 1.9582 -1.9909 0.9829
3.2280 2.0745 -1.9906 0.9829
3.1515 2.1882 -1.9904 0.9829
3.0711 2.2990 -1.9902 0.9829
2.9867 2.4068 -1.9899 0.9829
2.8985 2.5116 -1.9897 0.9829
2.7113 2.7114 -1.9892 0.9829
2.5105 2.8972 -1.9888 0.9829
2.4052 2.9846 -1.9886 0.9829
1.9552 3.2952 -1.9878 0.9829
1.8361 3.3626 -1.9876 0.9829
1.4658 3.5387 -1.9871 0.9829
1.3385 3.5885 -1.9869 0.9829
1.0789 3.6743 -1.9866 0.9829
0.9470 3.7102 -1.9865 0.9829
0.5449 3.7895 -1.9861 0.9829
0.4092 3.8064 -1.9860 0.9829
0.2141 2.9927 -1.5565 0.9866
0.0000 2.7392 -1.4211 0.9877
-0.0954 2.6711 -1.3866 0.9880
-0.1892 2.6453 -1.3758 0.9881
-0.5682 2.6121 -1.3868 0.9880
-1.0457 2.8036 -1.5523 0.9866
-1.0786 2.6040 -1.4622 0.9874
-1.1907 2.6073 -1.4870 0.9872
-1.3075 2.6121 -1.5154 0.9869
-1.4237 2.6073 -1.5412 0.9867
-1.5441 2.6024 -1.5698 0.9865
-1.6691 2.5973 -1.6017 0.9862
-1.9357 2.5858 -1.6757 0.9856
-2.5071 2.8934 -1.9861 0.9829
-2.7075 2.7075 -1.9864 0.9829
-2.8025 2.6093 -1.9865 0.9829
-2.8941 2.5077 -1.9866 0.9829
-2.9820 2.4030 -1.9868 0.9829
-3.0661 2.2952 -1.9869 0.9829
-3.2225 2.0710 -1.9872 0.9829
-3.2946 1.9548 -1.9874 0.9829
-0.9486 0.5180 -0.5607 0.9951
-0.9326 0.4259 -0.5319 0.9954
-0.9271 0.3840 -0.5206 0.9955
-0.9208 0.3434 -0.5098 0.9956
-0.9404 0.2761 -0.5085 0.9956
-0.9524 0.2431 -0.5099 0.9956
-0.9628 0.2094 -0.5112 0.9956
-0.9715 0.1753 -0.5121 0.9956
-0.9785 0.1407 -0.5129 0.9956
-0.9873 0.0706 -0.5135 0.9955
-0.9892 0.0353 -0.5135 0.9955
3.6417 -0.0000 -1.9946 0.9835
3.6196 0.3891 -1.9939 0.9835
3.6029 0.5180 -1.9936 0.9835
3.5560 0.7735 -1.9932 0.9835
3.3601 1.3918 -1.9919 0.9836
3.2514 1.6275 -1.9915 0.9836
3.1909 1.7423 -1.9912 0.9836
3.1263 1.8549 -1.9910 0.9836
3.0577 1.9651 -1.9907 0.9836
2.7457 2.3791 -1.9898 0.9836
2.6587 2.4754 -1.9896 0.9836
2.5684 2.5684 -1.9894 0.9836
2.4748 2.6581 -1.9892 0.9836
2.3781 2.7445 -1.9890 0.9836
1.9626 3.0538 -1.9882 0.9836
1.7394 3.1855 -1.9879 0.9836
1.6245 3.2453 -1.9877 0.9836
1.2680 3.3995 -1.9872 0.9836
1.0221 3.4808 -1.9869 0.9836
0.6440 3.5695 -1.9866 0.9836
0.5162 3.5900 -1.9865 0.9836
0.2107 2.9452 -1.6172 0.9866
-0.0953 2.6684 -1.4624 0.9879
-0.1886 2.6375 -1.4483 0.9880
-0.3014 2.8034 -1.5443 0.9872
-0.6667 2.6121 -1.4765 0.9878
-0.7664 2.6101 -1.4899 0.9877
-0.8679 2.6075 -1.5052 0.9875
-1.0452 2.8023 -1.6381 0.9865
-1.1904 2.6065 -1.5694 0.9870
-2.1733 2.9032 -1.9863 0.9836
-2.2757 2.8239 -1.9864 0.9836
-2.3751 2.7411 -1.9865 0.9836
-2.4716 2.6547 -1.9866 0.9836
-2.6550 2.4719 -1.9868 0.9836
-2.7417 2.3757 -1.9869 0.9836
-2.8249 2.2765 -1.9871 0.9836
-2.9046 2.1743 -1.9872 0.9836
-3.0528 1.9619 -1.9875 0.9836
-0.8507 0.4645 -0.5309 0.9956
-0.8479 0.3512 -0.5027 0.9958
-0.8603 0.2863 -0.4966 0.9959
-0.8837 0.2255 -0.4995 0.9958
-0.8932 0.1943 -0.5006 0.9958
-0.9011 0.1626 -0.5015 0.9958
-0.9077 0.1305 -0.5022 0.9958
-0.9127 0.0981 -0.5028 0.9958
3.4336 0.3692 -1.9938 0.9842
3.3978 0.6130 -1.9934 0.9842
3.3446 0.8536 -1.9929 0.9842
3.3116 0.9724 -1.9927 0.9842
3.2744 1.0898 -1.9924 0.9842
3.2331 1.2058 -1.9922 0.9842
3.0846 1.5440 -1.9915 0.9842
2.9659 1.7597 -1.9911 0.9842
2.9008 1.8643 -1.9908 0.9842
2.7599 2.0660 -1.9904 0.9842
2.5224 2.3484 -1.9898 0.9842
2.4367 2.4367 -1.9896 0.9842
2.3480 2.5219 -1.9894 0.9842
2.0643 2.7576 -1.9888 0.9842
1.9644 2.8293 -1.9886 0.9842
1.8620 2.8973 -1.9884 0.9842
1.7573 2.9617 -1.9883 0.9842
1.6503 3.0223 -1.9881 0.9842
1.5413 3.0790 -1.9879 0.9842
1.4303 3.1318 -1.9878 0.9842
0.9697 3.3026 -1.9872 0.9842
0.7316 3.3629 -1.9870 0.9842
0.6110 3.3867 -1.9869 0.9842
0.4897 3.4062 -1.9868 0.9842
0.0998 2.7936 -1.6139 0.9872
-0.1881 2.6303 -1.5225 0.9879
-0.2928 2.7236 -1.5815 0.9874
-0.3759 2.6148 -1.5252 0.9879
-0.4717 2.6147 -1.5340 0.9878
-0.6670 2.6134 -1.5572 0.9876
-1.0790 2.6049 -1.6278 0.9871
-1.1880 2.6014 -1.6511 0.9869
-1.4175 2.5959 -1.7077 0.9864
-1.7556 2.9589 -1.9864 0.9842
-2.0621 2.7546 -1.9866 0.9842
-2.2535 2.6007 -1.9868 0.9842
-2.3450 2.5187 -1.9869 0.9842
-2.4336 2.4336 -1.9870 0.9842
-2.5190 2.3453 -1.9871 0.9842
-2.6013 2.2540 -1.9872 0.9842
-2.6803 2.1599 -1.9874 0.9842
-2.7558 2.0630 -1.9875 0.9842
-0.7796 0.3230 -0.4872 0.9961
-0.8318 0.1810 -0.4915 0.9961
-0.8392 0.1514 -0.4924 0.9961
-0.8531 0.0610 -0.4938 0.9961
