ply
format ascii 1.0
element vertex 764
property float32 x
property float32 y
property float32 z
property float32 I
end_header
-1.7025 3.7280 -0.4868 0.9836
-1.9521 3.5750 -0.4838 0.9837
-2.0743 3.4961 -0.4829 0.9838
-2.3223 3.3447 -0.4837 0.9837
-1.3278 3.9894 -0.5957 0.9832
-1.5950 3.1864 -0.5049 0.9857
-1.8233 3.0730 -0.5063 0.9857
-2.2333 2.9833 -0.5280 0.9851
-1.2483 3.3467 -0.5884 0.9856
-1.7481 2.9463 -0.5644 0.9862
-1.8866 2.9357 -0.5749 0.9860
-2.0309 2.9251 -0.5866 0.9857
-2.3390 2.9026 -0.6141 0.9850
1.3977 9.7214 -1.8460 0.9608
1.0489 9.7562 -1.8444 0.9608
0.6994 9.7785 -1.8427 0.9609
0.3496 9.7882 -1.8410 0.9609
-0.3489 9.7703 -1.8376 0.9610
-0.6968 9.7427 -1.8359 0.9610
-1.0432 9.7028 -1.8343 0.9611
-1.3875 9.6506 -1.8326 0.9611
-1.7296 9.5862 -1.8309 0.9611
-0.9883 3.3657 -0.6593 0.9858
-1.1680 3.1315 -0.6282 0.9865
-1.2520 3.0225 -0.6149 0.9868
-1.8478 2.8752 -0.6424 0.9862
-1.9867 2.8614 -0.6547 0.9859
-2.1308 2.8464 -0.6683 0.9856
-2.6473 2.8434 -0.7302 0.9843
-3.2952 2.8553 -0.8195 0.9824
-3.5369 2.8502 -0.8538 0.9817
9.6119 0.6875 -2.0369 0.9614
9.5370 1.3712 -2.0367 0.9614
9.4808 1.7105 -2.0364 0.9614
9.0173 3.3633 -2.0343 0.9614
8.5980 4.3039 -2.0324 0.9615
8.4358 4.6063 -2.0317 0.9615
7.8851 5.4747 -2.0291 0.9615
7.4672 6.0175 -2.0271 0.9616
7.2439 6.2769 -2.0261 0.9616
7.0115 6.5279 -2.0250 0.9616
6.7702 6.7702 -2.0239 0.9616
6.5204 7.0034 -2.0227 0.9616
5.7058 7.6221 -2.0126 0.9618
5.3533 7.7102 -1.9841 0.9624
4.9600 7.7180 -1.9393 0.9632
4.5822 7.7228 -1.8982 0.9640
4.2215 7.7312 -1.8620 0.9646
3.9346 7.8605 -1.8581 0.9647
3.3589 8.1091 -1.8553 0.9648
3.0650 8.2176 -1.8539 0.9648
2.7676 8.3154 -1.8525 0.9648
1.8585 8.5434 -1.8481 0.9649
1.2423 8.6403 -1.8452 0.9649
0.9323 8.6721 -1.8437 0.9650
-0.3103 8.6882 -1.8377 0.9651
-0.6197 8.6646 -1.8362 0.9651
-0.5860 4.0755 -0.8703 0.9833
-0.6806 3.7721 -0.8102 0.9845
-1.1022 2.9552 -0.6667 0.9872
-1.3271 2.9059 -0.6753 0.9870
-1.4416 2.8799 -0.6808 0.9869
-1.8109 2.8178 -0.7080 0.9864
-1.9463 2.8032 -0.7214 0.9861
-2.0872 2.7882 -0.7362 0.9859
-2.2360 2.7748 -0.7533 0.9855
-2.4059 2.7766 -0.7766 0.9851
-2.5984 2.7909 -0.8060 0.9845
-2.7551 2.7551 -0.8236 0.9842
-2.9312 2.7290 -0.8466 0.9838
-3.2092 2.7808 -0.8976 0.9828
-3.3953 2.7361 -0.9217 0.9823
-7.9444 4.7137 -1.9526 0.9629
-8.2539 4.1316 -1.9511 0.9630
-8.3931 3.8330 -1.9504 0.9630
-8.5217 3.5298 -1.9497 0.9630
-8.6396 3.2224 -1.9491 0.9630
-8.9277 2.2787 -1.9476 0.9630
-9.0016 1.9582 -1.9473 0.9630
-9.0642 1.6354 -1.9469 0.9630
-9.1154 1.3106 -1.9466 0.9630
-9.1554 0.9843 -1.9464 0.9631
-9.1839 0.6569 -1.9462 0.9631
8.6414 0.3087 -2.0322 0.9651
8.5967 0.9243 -2.0321 0.9651
8.5576 1.2304 -2.0319 0.9651
8.5073 1.5349 -2.0317 0.9651
8.4460 1.8373 -2.0314 0.9651
8.3737 2.1373 -2.0311 0.9651
8.1967 2.7282 -2.0303 0.9651
8.0923 3.0183 -2.0298 0.9651
7.9773 3.3043 -2.0293 0.9651
7.8521 3.5859 -2.0287 0.9652
7.7167 3.8627 -2.0281 0.9652
7.5714 4.1343 -2.0275 0.9652
7.4164 4.4004 -2.0267 0.9652
7.0780 4.9144 -2.0252 0.9652
6.7036 5.4021 -2.0234 0.9652
6.5035 5.6353 -2.0225 0.9653
6.2951 5.8610 -2.0215 0.9653
5.6237 6.4901 -2.0183 0.9653
4.8893 7.0419 -2.0148 0.9654
3.8155 7.6224 -2.0034 0.9656
3.5158 7.6986 -1.9891 0.9658
3.1902 7.7019 -1.9593 0.9663
2.5651 7.7068 -1.9090 0.9672
2.2635 7.7086 -1.8882 0.9675
1.6779 7.7130 -1.8551 0.9681
1.3945 7.7290 -1.8458 0.9682
0.5591 7.8167 -1.8418 0.9683
0.2795 7.8259 -1.8404 0.9683
-0.0000 7.8252 -1.8391 0.9684
-0.1452 4.0647 -0.9559 0.9834
-0.2747 3.8412 -0.9051 0.9843
-0.3951 3.6748 -0.8686 0.9849
-0.5086 3.5372 -0.8399 0.9854
-0.7146 3.2848 -0.7901 0.9863
-0.8004 3.1360 -0.7607 0.9868
-0.8806 2.9991 -0.7346 0.9872
-0.9708 2.9167 -0.7225 0.9874
-1.0799 2.8953 -0.7262 0.9874
-1.5274 2.7972 -0.7490 0.9870
-1.6490 2.7793 -0.7595 0.9868
-1.9135 2.7559 -0.7885 0.9863
-2.0532 2.7428 -0.8052 0.9860
-2.7067 2.7067 -0.8996 0.9844
-3.0874 2.6752 -0.9601 0.9834
-3.6644 2.7431 -1.0758 0.9814
-6.8432 4.7513 -1.9580 0.9663
-7.4384 3.7234 -1.9550 0.9664
-7.5641 3.4544 -1.9543 0.9664
-7.8834 2.6239 -1.9527 0.9664
-7.9702 2.3403 -1.9523 0.9664
-8.1138 1.7651 -1.9515 0.9665
-8.1703 1.4741 -1.9512 0.9665
-8.2527 0.8873 -1.9508 0.9665
7.8337 0.0000 -2.0283 0.9682
7.3321 2.7347 -2.0262 0.9682
7.1148 3.2492 -2.0252 0.9682
6.9923 3.5001 -2.0246 0.9682
6.5718 4.2234 -2.0226 0.9682
6.4145 4.4537 -2.0219 0.9682
5.8946 5.1077 -2.0195 0.9683
5.7060 5.3125 -2.0186 0.9683
4.8824 6.0587 -2.0147 0.9684
4.6606 6.2259 -2.0136 0.9684
4.2000 6.5354 -2.0114 0.9684
3.9618 6.6773 -2.0103 0.9684
3.7188 6.8106 -2.0091 0.9684
2.9642 7.1562 -2.0055 0.9685
2.1750 7.4075 -1.9989 0.9686
1.6373 7.5263 -1.9943 0.9687
0.8210 7.6361 -1.9885 0.9688
0.1326 3.7123 -0.9618 0.9848
-0.1268 3.5492 -0.9195 0.9854
-0.2472 3.4568 -0.8973 0.9858
-0.7599 2.9773 -0.7956 0.9874
-1.1602 2.8011 -0.7850 0.9876
-1.3836 2.7642 -0.8003 0.9873
-1.5026 2.7519 -0.8118 0.9871
-1.7522 2.7264 -0.8391 0.9867
-1.8837 2.7130 -0.8551 0.9864
-2.1623 2.6833 -0.8923 0.9859
-2.3109 2.6669 -0.9137 0.9855
-2.6502 2.6502 -0.9704 0.9846
-2.8324 2.6371 -1.0020 0.9841
-3.0394 2.6337 -1.0413 0.9835
-6.2210 4.3194 -1.9609 0.9692
-6.8775 3.1409 -1.9576 0.9692
-7.0804 2.6408 -1.9566 0.9693
-7.3175 1.8677 -1.9554 0.9693
-7.3783 1.6051 -1.9551 0.9693
-7.4721 1.0743 -1.9545 0.9693
-7.5284 0.5384 -1.9542 0.9693
-7.5425 0.2694 -1.9541 0.9693
7.0380 1.2698 -2.0246 0.9707
6.9875 1.5200 -2.0244 0.9707
6.9279 1.7683 -2.0241 0.9707
6.8593 2.0141 -2.0238 0.9707
6.6957 2.4974 -2.0231 0.9707
6.6009 2.7342 -2.0226 0.9707
6.4975 2.9673 -2.0221 0.9707
6.3859 3.1965 -2.0216 0.9707
5.8588 4.0679 -2.0192 0.9708
5.2124 4.8530 -2.0161 0.9708
5.0338 5.0338 -2.0153 0.9708
4.6577 5.3753 -2.0135 0.9709
4.0507 5.8341 -2.0106 0.9709
3.8379 5.9719 -2.0096 0.9709
2.9427 6.4436 -2.0054 0.9710
2.7093 6.5409 -2.0042 0.9710
2.2332 6.7098 -2.0020 0.9710
1.9912 6.7813 -2.0008 0.9710
0.5416 3.7667 -1.0773 0.9843
0.3834 3.5660 -1.0153 0.9852
0.0000 3.3204 -0.9400 0.9863
-0.1164 3.2593 -0.9233 0.9865
-0.2291 3.2033 -0.9092 0.9867
-0.5441 3.0160 -0.8676 0.9873
-0.6423 2.9525 -0.8554 0.9875
-0.7359 2.8831 -0.8424 0.9877
-0.8303 2.8276 -0.8343 0.9878
-0.9238 2.7757 -0.8281 0.9879
-1.2500 2.7372 -0.8519 0.9876
-1.7263 2.6862 -0.9039 0.9868
-2.1279 2.6406 -0.9600 0.9860
-2.4516 2.6332 -1.0185 0.9852
-3.0077 2.6062 -1.1266 0.9836
-3.5303 2.6428 -1.2484 0.9818
-5.6970 3.9555 -1.9634 0.9716
-5.9607 3.5366 -1.9621 0.9716
-6.0812 3.3206 -1.9615 0.9716
-6.2991 2.8767 -1.9604 0.9716
-6.3962 2.6494 -1.9599 0.9716
-6.4852 2.4188 -1.9594 0.9716
-6.8058 1.2279 -1.9578 0.9717
-6.8445 0.9841 -1.9576 0.9717
-6.8747 0.7391 -1.9574 0.9717
-6.9091 0.2468 -1.9572 0.9717
6.5578 0.4690 -2.0222 0.9729
6.5366 0.7028 -2.0221 0.9729
6.5070 0.9356 -2.0220 0.9729
6.4689 1.1671 -2.0218 0.9729
6.4225 1.3971 -2.0216 0.9729
6.3678 1.6253 -2.0214 0.9729
6.3048 1.8513 -2.0211 0.9729
6.2338 2.0748 -2.0208 0.9729
6.1546 2.2956 -2.0204 0.9729
6.0676 2.5133 -2.0200 0.9729
5.9727 2.7277 -2.0196 0.9729
5.8702 2.9384 -2.0191 0.9729
5.7601 3.1453 -2.0186 0.9729
5.5180 3.5462 -2.0175 0.9729
4.9506 4.2897 -2.0148 0.9730
4.7926 4.4621 -2.0141 0.9730
4.2830 4.9429 -2.0117 0.9730
3.7252 5.3653 -2.0090 0.9730
3.5297 5.4923 -2.0081 0.9730
3.3298 5.6121 -2.0071 0.9731
3.1259 5.7246 -2.0062 0.9731
2.9181 5.8297 -2.0052 0.9731
2.7068 5.9271 -2.0042 0.9731
2.4923 6.0169 -2.0031 0.9731
2.2747 6.0988 -2.0021 0.9731
1.8319 6.2389 -2.0000 0.9732
1.6072 6.2969 -1.9989 0.9732
0.6685 3.7055 -1.1581 0.9844
0.4842 3.3679 -1.0465 0.9859
0.3511 3.2655 -1.0102 0.9863
0.1126 3.1521 -0.9701 0.9869
-0.2157 3.0154 -0.9298 0.9874
-0.3186 2.9634 -0.9167 0.9876
-0.7803 2.6575 -0.8519 0.9885
-1.1225 2.7101 -0.9022 0.9878
-1.3452 2.6874 -0.9244 0.9875
-1.7008 2.6466 -0.9676 0.9869
-1.8275 2.6321 -0.9856 0.9867
-1.9654 2.6254 -1.0087 0.9864
-2.2700 2.6198 -1.0662 0.9856
-3.2351 2.6070 -1.2779 0.9828
-3.5083 2.6263 -1.3480 0.9818
-5.3742 3.4538 -1.9649 0.9736
-5.6036 3.0598 -1.9638 0.9736
-5.8942 2.4415 -1.9623 0.9737
-5.9763 2.2291 -1.9619 0.9737
-6.0509 2.0139 -1.9615 0.9737
-6.2722 1.1317 -1.9603 0.9737
-6.3080 0.9070 -1.9601 0.9737
-6.3557 0.4546 -1.9599 0.9737
-6.3676 0.2274 -1.9598 0.9737
6.0725 0.2169 -2.0198 0.9747
6.0608 0.4335 -2.0198 0.9747
5.7616 1.9177 -2.0185 0.9747
5.6082 2.3230 -2.0178 0.9747
5.4259 2.7160 -2.0170 0.9747
5.1007 3.2780 -2.0154 0.9748
4.9790 3.4570 -2.0149 0.9748
4.7168 3.8011 -2.0136 0.9748
4.5767 3.9657 -2.0130 0.9748
4.4307 4.1251 -2.0123 0.9748
4.1221 4.4275 -2.0108 0.9748
3.6209 4.8370 -2.0085 0.9749
3.2639 5.0787 -2.0068 0.9749
2.8907 5.2939 -2.0050 0.9749
2.6987 5.3913 -2.0041 0.9749
2.5034 5.4816 -2.0031 0.9749
2.3050 5.5648 -2.0022 0.9749
2.1039 5.6408 -2.0012 0.9749
1.4867 5.8248 -1.9983 0.9750
1.2772 5.8712 -1.9973 0.9750
0.5907 3.2741 -1.1059 0.9861
0.0000 2.9534 -0.9817 0.9876
-0.1039 2.9085 -0.9674 0.9878
-0.3050 2.8364 -0.9483 0.9880
-0.8463 2.5427 -0.8908 0.9888
-0.9188 2.4633 -0.8739 0.9890
-1.1058 2.6696 -0.9605 0.9879
-1.2143 2.6590 -0.9717 0.9878
-1.3252 2.6474 -0.9841 0.9876
-1.4387 2.6348 -0.9979 0.9874
-1.6850 2.6219 -1.0360 0.9869
-1.9590 2.6170 -1.0866 0.9863
-2.1066 2.6141 -1.1160 0.9859
-2.2623 2.6109 -1.1484 0.9855
-2.4333 2.6136 -1.1870 0.9851
-2.7755 2.5841 -1.2605 0.9841
-3.2245 2.5984 -1.3765 0.9827
-3.4943 2.6158 -1.4509 0.9818
-4.8617 3.3755 -1.9674 0.9754
-4.9776 3.1989 -1.9668 0.9754
-5.1903 2.8341 -1.9657 0.9754
-5.3767 2.4554 -1.9648 0.9754
-5.5359 2.0648 -1.9640 0.9754
-5.6671 1.6640 -1.9633 0.9754
-5.7221 1.4605 -1.9630 0.9754
-5.7698 1.2552 -1.9628 0.9754
-5.8435 0.8402 -1.9624 0.9754
-5.8693 0.6310 -1.9622 0.9754
5.6423 0.0000 -2.0177 0.9763
5.6387 0.2014 -2.0177 0.9763
5.6278 0.4025 -2.0177 0.9763
5.6097 0.6031 -2.0176 0.9763
5.5843 0.8029 -2.0175 0.9763
5.5517 1.0017 -2.0174 0.9763
5.2825 1.9703 -2.0162 0.9763
5.2079 2.1572 -2.0158 0.9763
4.8439 2.8740 -2.0142 0.9764
4.7370 3.0443 -2.0137 0.9764
4.5054 3.3727 -2.0126 0.9764
4.2508 3.6833 -2.0114 0.9764
4.1153 3.8315 -2.0107 0.9764
3.5232 4.3720 -2.0079 0.9764
3.3636 4.4933 -2.0072 0.9764
3.0321 4.7181 -2.0056 0.9765
2.6856 4.9183 -2.0040 0.9765
2.5073 5.0089 -2.0031 0.9765
2.3259 5.0930 -2.0022 0.9765
2.1417 5.1705 -2.0014 0.9765
1.9549 5.2413 -2.0005 0.9765
1.7658 5.3054 -1.9996 0.9765
1.3815 5.4128 -1.9977 0.9765
0.7046 3.2389 -1.1853 0.9860
0.5476 3.0351 -1.1029 0.9870
0.3141 2.9211 -1.0506 0.9876
0.2062 2.8825 -1.0335 0.9878
0.0000 2.8171 -1.0074 0.9881
-0.0996 2.7899 -0.9983 0.9882
-0.1981 2.7702 -0.9932 0.9883
-0.2967 2.7597 -0.9926 0.9883
-0.3955 2.7510 -0.9939 0.9883
-0.4945 2.7409 -0.9960 0.9882
-0.5930 2.7260 -0.9976 0.9882
-0.6930 2.7150 -1.0020 0.9882
-0.7878 2.6831 -1.0000 0.9882
-0.8464 2.5432 -0.9585 0.9887
-1.0893 2.6298 -1.0179 0.9880
-1.1964 2.6197 -1.0299 0.9878
-1.3104 2.6179 -1.0469 0.9876
-1.4283 2.6158 -1.0658 0.9874
-1.8122 2.6101 -1.1363 0.9866
-1.9526 2.6084 -1.1652 0.9863
-2.0995 2.6053 -1.1966 0.9859
-2.2546 2.6019 -1.2312 0.9855
-2.5912 2.5912 -1.3105 0.9846
-2.7901 2.5977 -1.3633 0.9839
-3.5028 2.6222 -1.5647 0.9816
-4.5227 3.1402 -1.9690 0.9769
-4.7327 2.8081 -1.9679 0.9769
-4.9187 2.4621 -1.9670 0.9769
-5.0023 2.2845 -1.9666 0.9769
-5.0797 2.1041 -1.9662 0.9769
-5.2728 1.5482 -1.9652 0.9769
-5.3685 1.1679 -1.9647 0.9769
-5.4886 0.1960 -1.9640 0.9769
5.2604 0.0000 -2.0159 0.9777
5.2570 0.1878 -2.0159 0.9777
5.2469 0.3753 -2.0158 0.9777
5.2064 0.7486 -2.0157 0.9777
5.1760 0.9339 -2.0156 0.9777
5.0953 1.3005 -2.0152 0.9777
5.0451 1.4814 -2.0150 0.9777
4.9884 1.6603 -2.0147 0.9777
4.6982 2.3518 -2.0134 0.9777
4.6103 2.5175 -2.0130 0.9777
4.5166 2.6798 -2.0126 0.9778
3.8376 3.5730 -2.0094 0.9778
3.5707 3.8352 -2.0081 0.9778
3.4304 3.9589 -2.0075 0.9778
2.9844 4.2984 -2.0053 0.9778
2.8281 4.4005 -2.0046 0.9778
2.6682 4.4970 -2.0038 0.9778
2.5050 4.5876 -2.0030 0.9779
2.3387 4.6722 -2.0023 0.9779
1.8236 4.8894 -1.9998 0.9779
0.5235 2.9017 -1.1299 0.9874
0.4099 2.8510 -1.1038 0.9877
0.1983 2.7727 -1.0653 0.9882
-0.0968 2.7091 -1.0388 0.9885
-0.3839 2.6702 -1.0338 0.9885
-0.4792 2.6560 -1.0343 0.9885
-0.7690 2.6190 -1.0460 0.9884
-0.9747 2.6132 -1.0688 0.9881
-1.0818 2.6117 -1.0833 0.9880
-1.3054 2.6080 -1.1176 0.9876
-1.4228 2.6057 -1.1377 0.9874
-1.5445 2.6032 -1.1600 0.9871
-1.8048 2.5994 -1.2127 0.9865
-1.9444 2.5974 -1.2434 0.9862
-4.3244 2.7792 -1.9699 0.9782
-4.5936 2.2994 -1.9686 0.9782
-4.7441 1.9651 -1.9678 0.9782
-4.8706 1.6211 -1.9672 0.9783
-4.9246 1.4460 -1.9669 0.9783
-5.0493 0.9110 -1.9662 0.9783
-5.0782 0.7301 -1.9661 0.9783
-5.1007 0.5484 -1.9659 0.9783
-5.1167 0.3660 -1.9658 0.9783
-5.1264 0.1831 -1.9658 0.9783
4.9183 0.1757 -2.0142 0.9790
4.9089 0.3511 -2.0142 0.9790
4.8710 0.7003 -2.0141 0.9790
4.8426 0.8737 -2.0139 0.9790
4.8080 1.0459 -2.0138 0.9790
4.7671 1.2167 -2.0136 0.9790
4.7202 1.3860 -2.0134 0.9790
4.6081 1.7188 -2.0129 0.9790
4.5432 1.8818 -2.0126 0.9790
4.1329 2.6561 -2.0107 0.9790
3.8226 3.0804 -2.0093 0.9790
3.5911 3.3435 -2.0082 0.9790
3.4685 3.4685 -2.0076 0.9790
3.3415 3.5891 -2.0070 0.9790
3.2103 3.7049 -2.0064 0.9790
3.0750 3.8159 -2.0057 0.9790
2.9359 3.9219 -2.0051 0.9790
2.7931 4.0228 -2.0044 0.9791
2.6468 4.1185 -2.0037 0.9791
2.4972 4.2089 -2.0030 0.9791
2.1890 4.3731 -2.0015 0.9791
2.0308 4.4468 -2.0007 0.9791
1.7070 4.5768 -1.9992 0.9791
1.5420 4.6329 -1.9984 0.9791
1.2066 4.7273 -1.9968 0.9791
0.6486 2.9816 -1.2488 0.9869
0.2923 2.7185 -1.1190 0.9883
0.0954 2.6704 -1.0936 0.9885
-0.0955 2.6734 -1.0949 0.9885
-0.2845 2.6465 -1.0894 0.9886
-0.3786 2.6329 -1.0887 0.9886
-0.6674 2.6148 -1.1045 0.9884
-0.7664 2.6101 -1.1133 0.9883
-0.8674 2.6061 -1.1241 0.9882
-0.9714 2.6043 -1.1376 0.9881
-1.0779 2.6024 -1.1528 0.9879
-1.3004 2.5979 -1.1890 0.9875
-1.5384 2.5928 -1.2339 0.9871
-1.6649 2.5905 -1.2603 0.9868
-1.7973 2.5886 -1.2898 0.9865
-1.9361 2.5864 -1.3223 0.9861
-2.2437 2.5894 -1.4023 0.9853
-2.7919 2.5993 -1.5612 0.9836
-3.2262 2.5998 -1.6958 0.9823
-3.9572 2.7475 -1.9717 0.9794
-4.2253 2.3072 -1.9703 0.9794
-4.3775 1.9991 -1.9696 0.9794
-4.4452 1.8413 -1.9692 0.9794
-4.5639 1.5190 -1.9686 0.9794
-4.6146 1.3550 -1.9684 0.9794
-4.6594 1.1893 -1.9681 0.9794
4.6155 0.1649 -2.0128 0.9800
4.5918 0.4937 -2.0127 0.9801
4.5444 0.8199 -2.0125 0.9801
4.3245 1.6130 -2.0115 0.9801
4.2636 1.7661 -2.0112 0.9801
4.1254 2.0651 -2.0106 0.9801
4.0484 2.2106 -2.0103 0.9801
3.9662 2.3532 -2.0099 0.9801
3.8788 2.4928 -2.0095 0.9801
3.7866 2.6291 -2.0090 0.9801
3.3706 3.1382 -2.0071 0.9801
3.2556 3.2556 -2.0065 0.9801
3.1364 3.3688 -2.0060 0.9801
2.8864 3.5818 -2.0048 0.9801
2.6219 3.7762 -2.0035 0.9801
2.4846 3.8661 -2.0029 0.9801
2.3443 3.9510 -2.0022 0.9802
2.2010 4.0308 -2.0015 0.9802
2.0550 4.1054 -2.0008 0.9802
1.9065 4.1746 -2.0001 0.9802
1.7556 4.2385 -1.9994 0.9802
1.6026 4.2969 -1.9987 0.9802
1.4477 4.3497 -1.9979 0.9802
1.2911 4.3970 -1.9972 0.9802
0.3890 2.7055 -1.1912 0.9881
0.2869 2.6687 -1.1698 0.9884
0.1897 2.6525 -1.1589 0.9885
-0.0000 2.6399 -1.1505 0.9885
-0.2821 2.6242 -1.1503 0.9885
-0.5683 2.6124 -1.1651 0.9884
-1.2958 2.5886 -1.2616 0.9874
-1.4119 2.5858 -1.2840 0.9872
-1.5328 2.5834 -1.3092 0.9870
-1.6608 2.5842 -1.3387 0.9867
-1.7956 2.5862 -1.3721 0.9864
-2.0863 2.5890 -1.4491 0.9856
-2.2421 2.5876 -1.4922 0.9852
-2.4074 2.5858 -1.5397 0.9847
-2.7919 2.5994 -1.6625 0.9835
-3.2251 2.5990 -1.8052 0.9821
-3.7183 2.5817 -1.9728 0.9804
-3.8913 2.3088 -1.9719 0.9805
-4.0446 2.0246 -1.9712 0.9805
-1.4401 0.4793 -0.6615 0.9934
-1.3400 0.3420 -0.6027 0.9940
-1.3955 0.2518 -0.6180 0.9938
-1.4180 0.2039 -0.6244 0.9938
-1.4359 0.1544 -0.6294 0.9937
4.3455 0.0000 -2.0115 0.9810
4.3427 0.1551 -2.0115 0.9810
4.3204 0.4645 -2.0114 0.9810
4.2454 0.9235 -2.0111 0.9810
4.2094 1.0744 -2.0109 0.9810
4.1679 1.2238 -2.0107 0.9810
4.1212 1.3717 -2.0105 0.9810
4.0691 1.5177 -2.0103 0.9810
4.0118 1.6618 -2.0100 0.9810
3.9494 1.8036 -2.0097 0.9810
3.5632 2.4740 -2.0079 0.9811
3.4719 2.5990 -2.0075 0.9811
3.2761 2.8388 -2.0066 0.9811
3.0638 3.0638 -2.0056 0.9811
2.9517 3.1703 -2.0051 0.9811
2.3385 3.6387 -2.0021 0.9811
2.2064 3.7187 -2.0015 0.9811
1.9342 3.8641 -2.0002 0.9811
1.6525 3.9896 -1.9989 0.9811
1.5086 4.0446 -1.9982 0.9812
1.3628 4.0945 -1.9975 0.9812
0.6212 2.8555 -1.3527 0.9872
0.4965 2.7522 -1.2945 0.9877
-0.0000 2.6090 -1.2076 0.9886
-0.0931 2.6080 -1.2080 0.9886
-0.1865 2.6074 -1.2100 0.9885
-0.4705 2.6077 -1.2265 0.9884
-0.5666 2.6047 -1.2339 0.9883
-0.6633 2.5986 -1.2414 0.9882
-0.7612 2.5923 -1.2506 0.9882
-0.8616 2.5887 -1.2629 0.9880
-0.9649 2.5870 -1.2781 0.9879
-1.0717 2.5873 -1.2963 0.9877
-1.5343 2.5859 -1.3918 0.9868
-1.7970 2.5882 -1.4585 0.9862
-1.9377 2.5884 -1.4967 0.9858
-2.0848 2.5871 -1.5380 0.9855
-2.5843 2.5843 -1.6917 0.9840
-2.7912 2.5987 -1.7653 0.9833
-3.4144 2.5560 -1.9743 0.9814
-3.5027 2.4320 -1.9738 0.9814
-3.5865 2.3049 -1.9734 0.9814
-3.6658 2.1750 -1.9730 0.9814
-3.8102 1.9073 -1.9723 0.9814
-1.2345 0.5114 -0.6185 0.9941
-1.2017 0.4482 -0.5937 0.9944
-1.1329 0.3327 -0.5466 0.9948
-1.1574 0.2954 -0.5529 0.9947
-1.1974 0.2160 -0.5632 0.9947
-1.2261 0.1318 -0.5708 0.9946
-1.2424 0.0444 -0.5755 0.9945
4.0877 0.2924 -2.0102 0.9819
4.0746 0.4381 -2.0102 0.9819
4.0326 0.7276 -2.0100 0.9819
4.0038 0.8710 -2.0099 0.9819
3.9308 1.1542 -2.0096 0.9819
3.8868 1.2937 -2.0094 0.9819
3.8377 1.4314 -2.0092 0.9819
3.7837 1.5673 -2.0089 0.9819
3.6612 1.8327 -2.0083 0.9819
3.5200 2.0885 -2.0077 0.9819
3.4426 2.2124 -2.0073 0.9819
3.2747 2.4514 -2.0065 0.9819
3.1845 2.5662 -2.0061 0.9819
3.0901 2.6777 -2.0057 0.9819
2.9919 2.7856 -2.0052 0.9820
2.8899 2.8899 -2.0047 0.9820
2.6750 3.0871 -2.0037 0.9820
2.3278 3.3526 -2.0021 0.9820
2.2060 3.4326 -2.0015 0.9820
2.0815 3.5081 -2.0009 0.9820
1.9543 3.5791 -2.0003 0.9820
1.6929 3.7071 -1.9990 0.9820
1.4233 3.8159 -1.9978 0.9820
1.0062 3.9422 -1.9958 0.9820
0.6106 2.8070 -1.4091 0.9873
0.4910 2.7216 -1.3566 0.9878
-0.2885 2.6830 -1.3237 0.9880
-0.4117 2.8635 -1.4191 0.9872
-0.4693 2.6012 -1.2966 0.9883
-0.5649 2.5970 -1.3037 0.9882
-0.6617 2.5923 -1.3124 0.9882
-1.0744 2.5938 -1.3771 0.9876
-1.4144 2.5903 -1.4477 0.9869
-1.5354 2.5878 -1.4760 0.9867
-1.6633 2.5881 -1.5091 0.9864
-1.7968 2.5879 -1.5454 0.9861
-1.9368 2.5873 -1.5853 0.9857
-2.0843 2.5865 -1.6294 0.9853
-2.7471 2.9506 -1.9775 0.9822
-2.8500 2.8500 -1.9770 0.9822
-2.7902 2.5977 -1.8700 0.9832
-2.9984 2.5981 -1.9461 0.9825
-3.1360 2.5272 -1.9756 0.9822
-3.2235 2.4131 -1.9752 0.9822
-3.4609 2.0535 -1.9740 0.9822
-1.0589 0.5300 -0.5808 0.9947
-1.0119 0.3774 -0.5298 0.9952
-1.0175 0.2988 -0.5202 0.9953
-1.0307 0.2631 -0.5218 0.9953
-1.0611 0.1526 -0.5258 0.9952
-1.0705 0.1151 -0.5281 0.9952
3.8729 0.0000 -2.0092 0.9827
3.8704 0.1382 -2.0092 0.9827
3.8332 0.5512 -2.0090 0.9827
3.8109 0.6876 -2.0090 0.9827
3.7517 0.9576 -2.0087 0.9827
3.6732 1.2226 -2.0083 0.9827
3.3267 1.9738 -2.0067 0.9827
3.1763 2.2054 -2.0060 0.9827
3.0097 2.4254 -2.0053 0.9827
2.8278 2.6328 -2.0044 0.9827
2.7314 2.7314 -2.0040 0.9827
2.5284 2.9179 -2.0030 0.9828
2.3126 3.0893 -2.0020 0.9828
2.2003 3.1690 -2.0014 0.9828
2.0852 3.2446 -2.0009 0.9828
1.8474 3.3832 -1.9998 0.9828
1.7249 3.4460 -1.9992 0.9828
1.4738 3.5581 -1.9980 0.9828
1.2155 3.6519 -1.9967 0.9828
1.0840 3.6918 -1.9961 0.9828
0.3797 2.6411 -1.3842 0.9880
-0.0927 2.5950 -1.3471 0.9884
-0.2790 2.5949 -1.3540 0.9883
-0.3796 2.6399 -1.3836 0.9881
-0.5646 2.5956 -1.3780 0.9881
-1.0767 2.5993 -1.4596 0.9874
-1.1860 2.5970 -1.4811 0.9872
-1.4155 2.5922 -1.5322 0.9868
-1.5364 2.5895 -1.5620 0.9865
-1.9363 2.5866 -1.6762 0.9855
-2.3939 2.9707 -1.9792 0.9830
-2.4978 2.8826 -1.9787 0.9830
-2.5984 2.7909 -1.9782 0.9830
-2.7896 2.5972 -1.9773 0.9830
-2.8798 2.4954 -1.9768 0.9830
-2.9664 2.3905 -1.9764 0.9830
-3.0492 2.2826 -1.9760 0.9830
-3.1281 2.1719 -1.9756 0.9830
-3.2031 2.0585 -1.9752 0.9830
-0.9486 0.5180 -0.5607 0.9951
-0.9208 0.3434 -0.5098 0.9956
-0.9404 0.2761 -0.5085 0.9956
-0.9715 0.1753 -0.5121 0.9956
-0.9785 0.1407 -0.5129 0.9956
-0.9838 0.1058 -0.5133 0.9956
-0.9873 0.0706 -0.5135 0.9955
-0.9893 0.0353 -0.5135 0.9955
3.6642 0.1309 -2.0082 0.9834
3.6454 0.3919 -2.0081 0.9834
3.6290 0.5218 -2.0081 0.9834
3.6079 0.6509 -2.0080 0.9834
3.5822 0.7793 -2.0079 0.9834
3.5518 0.9066 -2.0077 0.9834
3.5169 1.0327 -2.0076 0.9834
3.3854 1.4023 -2.0070 0.9834
3.3328 1.5221 -2.0067 0.9834
3.2759 1.6398 -2.0065 0.9834
3.0805 1.9797 -2.0056 0.9834
2.9304 2.1936 -2.0049 0.9834
2.7653 2.3962 -2.0041 0.9835
2.5863 2.5862 -2.0032 0.9835
2.1898 2.9253 -2.0014 0.9835
2.0835 3.0008 -2.0009 0.9835
1.8631 3.1401 -1.9998 0.9835
1.2742 3.4162 -1.9970 0.9835
0.3792 2.6373 -1.4593 0.9879
0.2047 2.8615 -1.5713 0.9870
0.0927 2.5945 -1.4219 0.9882
-0.0927 2.5961 -1.4228 0.9882
-0.1857 2.5963 -1.4256 0.9882
-0.5166 2.8633 -1.5935 0.9868
-0.5648 2.5962 -1.4552 0.9880
-0.6630 2.5976 -1.4683 0.9878
-0.8673 2.6058 -1.5042 0.9876
-0.9711 2.6035 -1.5219 0.9874
-1.0773 2.6009 -1.5419 0.9872
-1.1865 2.5981 -1.5644 0.9871
-1.4155 2.5923 -1.6177 0.9866
-1.5363 2.5893 -1.6490 0.9864
-1.6630 2.5877 -1.6847 0.9861
-2.0627 2.9708 -1.9808 0.9836
-2.3666 2.7312 -1.9794 0.9837
-2.4620 2.6444 -1.9789 0.9837
-2.5542 2.5542 -1.9784 0.9837
-2.7287 2.3645 -1.9776 0.9837
-2.8108 2.2651 -1.9772 0.9837
-2.8893 2.1629 -1.9768 0.9837
-2.9641 2.0580 -1.9764 0.9837
-0.8524 0.5058 -0.5429 0.9955
-0.8507 0.4645 -0.5309 0.9956
-0.8479 0.3512 -0.5027 0.9958
-0.8837 0.2256 -0.4995 0.9958
-0.9077 0.1305 -0.5022 0.9958
-0.9127 0.0981 -0.5028 0.9958
-0.9161 0.0655 -0.5030 0.9958
3.4567 0.3717 -2.0072 0.9841
3.4211 0.6172 -2.0071 0.9841
3.2559 1.2144 -2.0063 0.9841
3.2102 1.3297 -2.0061 0.9841
3.1064 1.5550 -2.0056 0.9841
3.0485 1.6646 -2.0054 0.9841
2.8518 1.9801 -2.0045 0.9841
2.7789 2.0802 -2.0041 0.9841
2.7024 2.1777 -2.0038 0.9841
2.6224 2.2723 -2.0034 0.9841
2.4526 2.4527 -2.0026 0.9841
2.3630 2.5381 -2.0022 0.9841
2.2704 2.6202 -2.0017 0.9841
2.0768 2.7743 -2.0008 0.9841
1.9760 2.8459 -2.0003 0.9841
1.8727 2.9139 -1.9998 0.9841
1.7670 2.9782 -1.9993 0.9841
1.4374 3.1475 -1.9977 0.9841
1.3238 3.1959 -1.9972 0.9841
0.9738 3.3164 -1.9955 0.9842
0.8545 3.3480 -1.9950 0.9842
0.4846 2.6861 -1.5758 0.9875
0.2798 2.6025 -1.5112 0.9880
0.1870 2.6142 -1.5132 0.9880
0.0927 2.5951 -1.4992 0.9881
-0.0000 2.5964 -1.4990 0.9881
-0.5166 2.8632 -1.6798 0.9867
-0.6636 2.5999 -1.5492 0.9877
-0.7642 2.6027 -1.5661 0.9875
-0.8661 2.6021 -1.5834 0.9874
-1.0759 2.5975 -1.6233 0.9871
-1.4137 2.5890 -1.7031 0.9865
-1.7520 2.9529 -1.9823 0.9843
-1.9572 2.8189 -1.9813 0.9843
-2.0561 2.7466 -1.9809 0.9843
-2.1523 2.6708 -1.9804 0.9843
-2.4238 2.4238 -1.9790 0.9843
-2.6674 2.1495 -1.9778 0.9843
-2.7419 2.0526 -1.9775 0.9843
-0.7634 0.5300 -0.5366 0.9957
-0.7696 0.4946 -0.5282 0.9958
-0.7787 0.4252 -0.5122 0.9959
-0.7806 0.3908 -0.5040 0.9960
-0.8014 0.2667 -0.4876 0.9961
-0.8128 0.2387 -0.4891 0.9961
-0.8230 0.2101 -0.4904 0.9961
-0.8318 0.1810 -0.4915 0.9961
-0.8499 0.0914 -0.4935 0.9961
-0.8531 0.0610 -0.4938 0.9961
-0.8547 0.0305 -0.4938 0.9961
