ply
format ascii 1.0
element vertex 752
property float32 x
property float32 y
property float32 z
property float32 I
end_header
-1.8952 3.4708 -0.4697 0.9842
-2.1422 3.3333 -0.4707 0.9842
-2.2625 3.2585 -0.4712 0.9841
-2.5691 3.1880 -0.4864 0.9836
-1.4466 3.8784 -0.5865 0.9834
-1.5641 3.4248 -0.5335 0.9849
-1.6372 3.2707 -0.5182 0.9853
-1.7180 3.1462 -0.5079 0.9856
-1.7980 3.0304 -0.4993 0.9859
-2.2250 2.9723 -0.5261 0.9851
-2.3823 2.9563 -0.5380 0.9848
-2.7462 2.9496 -0.5710 0.9839
-1.1449 3.8992 -0.6695 0.9837
-1.2090 3.6323 -0.6307 0.9846
-1.2869 3.4502 -0.6066 0.9852
-1.7549 2.9577 -0.5666 0.9862
-1.8880 2.9378 -0.5753 0.9859
-2.1741 2.9043 -0.5977 0.9854
-4.0191 3.0086 -0.8271 0.9799
4.7046 8.6159 -1.8451 0.9608
4.0668 8.9050 -1.8401 0.9609
3.7412 9.0321 -1.8376 0.9610
3.4117 9.1473 -1.8350 0.9610
3.0789 9.2506 -1.8325 0.9611
2.7430 9.3418 -1.8300 0.9611
2.4045 9.4210 -1.8275 0.9612
2.0640 9.4880 -1.8251 0.9613
1.7217 9.5428 -1.8226 0.9613
1.3782 9.5855 -1.8202 0.9614
1.0338 9.6159 -1.8178 0.9614
0.3443 9.6403 -1.8132 0.9615
0.0000 8.5117 -1.5999 0.9660
-0.3024 8.4659 -1.5923 0.9661
-0.6856 9.5861 -1.8064 0.9616
-2.0334 9.3475 -1.7981 0.9618
-0.9766 3.8264 -0.7423 0.9841
-1.1140 3.3471 -0.6631 0.9857
-1.2849 3.1020 -0.6311 0.9864
-1.3682 2.9959 -0.6191 0.9867
-1.4848 2.9662 -0.6235 0.9866
-1.6029 2.9355 -0.6287 0.9865
-1.9871 2.8620 -0.6549 0.9859
-2.1283 2.8431 -0.6675 0.9856
-2.8018 2.8018 -0.7448 0.9840
-3.4516 2.7814 -0.8332 0.9821
9.7200 -0.0000 -2.0546 0.9610
9.6851 0.6927 -2.0525 0.9611
9.6486 1.0373 -2.0513 0.9611
9.3774 2.3934 -2.0457 0.9612
9.2788 2.7245 -2.0442 0.9612
9.1683 3.0515 -2.0425 0.9613
9.0460 3.3740 -2.0408 0.9613
8.9121 3.6915 -2.0390 0.9613
8.7667 4.0036 -2.0372 0.9614
8.4429 4.6101 -2.0334 0.9614
8.2648 4.9037 -2.0314 0.9615
8.0764 5.1904 -2.0293 0.9615
7.8778 5.4696 -2.0272 0.9615
7.6695 5.7413 -2.0251 0.9616
7.4516 6.0049 -2.0229 0.9616
6.7444 6.7444 -2.0161 0.9618
6.2272 7.1865 -2.0101 0.9619
5.9516 7.3855 -2.0050 0.9620
4.9592 7.7167 -1.9390 0.9632
4.6041 7.7599 -1.9073 0.9638
3.0342 8.1350 -1.8353 0.9651
2.4402 8.3105 -1.8308 0.9652
1.8367 8.4431 -1.8264 0.9653
1.5323 8.4931 -1.8243 0.9653
0.6135 8.5781 -1.8179 0.9655
0.3066 8.5848 -1.8158 0.9655
0.0000 8.4795 -1.7924 0.9659
-0.3015 8.4412 -1.7854 0.9661
-1.2159 8.4568 -1.8060 0.9657
-0.7116 3.9443 -0.8472 0.9837
-0.8142 3.7426 -0.8096 0.9845
-0.9750 3.3204 -0.7315 0.9860
-1.2309 2.9716 -0.6799 0.9869
-1.9476 2.8050 -0.7218 0.9861
-2.2324 2.7702 -0.7520 0.9856
-2.3840 2.7513 -0.7695 0.9852
-2.5581 2.7476 -0.7935 0.9848
-2.7498 2.7498 -0.8220 0.9842
-2.9109 2.7102 -0.8407 0.9839
-3.3607 2.7082 -0.9123 0.9825
-3.5585 2.6638 -0.9396 0.9820
-7.8297 4.6455 -1.9244 0.9635
-7.9893 4.3625 -1.9241 0.9635
-8.1390 4.0741 -1.9239 0.9635
-8.4082 3.4828 -1.9238 0.9635
-8.5273 3.1805 -1.9238 0.9635
-8.6359 2.8743 -1.9239 0.9635
-8.8975 1.9355 -1.9247 0.9635
-9.0174 1.2965 -1.9257 0.9634
8.7135 -0.0000 -2.0479 0.9648
8.7041 0.3109 -2.0470 0.9648
8.6832 0.6210 -2.0460 0.9649
8.5528 1.5431 -2.0426 0.9649
8.4870 1.8462 -2.0413 0.9649
8.3224 2.4437 -2.0385 0.9650
8.2240 2.7372 -2.0371 0.9650
7.9955 3.3118 -2.0340 0.9651
7.8659 3.5922 -2.0323 0.9651
7.5768 4.1372 -2.0289 0.9652
7.4177 4.4011 -2.0271 0.9652
6.6907 5.3917 -2.0195 0.9653
6.4876 5.6215 -2.0175 0.9653
6.2765 5.8436 -2.0155 0.9654
6.0578 6.0578 -2.0134 0.9654
5.8317 6.2637 -2.0114 0.9654
5.3587 6.6497 -2.0071 0.9655
5.1125 6.8295 -2.0050 0.9656
4.6023 7.1613 -2.0007 0.9656
4.3390 7.3130 -1.9985 0.9657
4.0670 7.4482 -1.9945 0.9657
3.5118 7.6898 -1.9868 0.9659
3.2292 7.7959 -1.9832 0.9659
2.9380 7.8771 -1.9759 0.9660
2.0258 7.9369 -1.9252 0.9669
1.7293 7.9494 -1.9120 0.9671
1.4364 7.9612 -1.9013 0.9673
0.5711 7.9852 -1.8815 0.9676
-0.1505 4.2130 -0.9908 0.9828
-0.4045 3.7625 -0.8894 0.9846
-0.5218 3.6295 -0.8618 0.9850
-0.6321 3.5033 -0.8367 0.9855
-0.7408 3.4051 -0.8190 0.9858
-0.9989 3.0011 -0.7434 0.9871
-1.2017 2.9011 -0.7380 0.9872
-1.4247 2.8462 -0.7481 0.9870
-1.5381 2.8168 -0.7543 0.9869
-1.7850 2.7774 -0.7759 0.9865
-2.0537 2.7434 -0.8054 0.9860
-2.1961 2.7251 -0.8226 0.9857
-2.3443 2.7055 -0.8414 0.9854
-2.6884 2.6884 -0.8936 0.9845
-2.8574 2.6604 -0.9176 0.9841
-3.0353 2.6300 -0.9439 0.9836
-3.8830 2.6960 -1.1110 0.9808
-6.9124 4.4423 -1.9311 0.9668
-7.0653 4.1920 -1.9308 0.9668
-7.2095 3.9366 -1.9305 0.9668
-7.5876 3.1429 -1.9302 0.9668
-7.6951 2.8701 -1.9302 0.9668
-7.7930 2.5938 -1.9303 0.9668
-7.8814 2.3142 -1.9305 0.9668
-7.9600 2.0317 -1.9307 0.9668
-8.1754 0.8789 -1.9325 0.9668
-8.2228 0.2937 -1.9338 0.9668
7.8880 -0.0000 -2.0424 0.9679
7.8798 0.2814 -2.0415 0.9679
7.7445 1.3972 -2.0376 0.9680
7.6853 1.6718 -2.0364 0.9680
7.5373 2.2131 -2.0339 0.9681
7.4486 2.4791 -2.0326 0.9681
7.2427 3.0000 -2.0298 0.9681
7.1258 3.2543 -2.0283 0.9681
6.9999 3.5039 -2.0268 0.9682
6.8650 3.7486 -2.0252 0.9682
6.7215 3.9880 -2.0236 0.9682
6.5694 4.2219 -2.0219 0.9682
6.4092 4.4500 -2.0202 0.9683
6.2409 4.6719 -2.0185 0.9683
5.4926 5.4926 -2.0112 0.9684
5.2881 5.6799 -2.0093 0.9684
5.0772 5.8594 -2.0074 0.9685
4.6373 6.1947 -2.0036 0.9685
4.4090 6.3501 -2.0016 0.9686
3.4467 6.8856 -1.9937 0.9687
2.6829 7.1930 -1.9877 0.9688
2.4220 7.2770 -1.9858 0.9688
1.6254 7.4721 -1.9799 0.9689
1.3562 7.5170 -1.9777 0.9689
1.0858 7.5517 -1.9754 0.9690
0.5431 7.5934 -1.9711 0.9690
-0.0000 3.6766 -0.9519 0.9849
-0.2515 3.5160 -0.9127 0.9855
-0.3694 3.4356 -0.8947 0.9858
-0.4799 3.3380 -0.8732 0.9862
-0.9718 2.9198 -0.7968 0.9874
-1.5134 2.7716 -0.8176 0.9870
-2.0225 2.7017 -0.8738 0.9862
-2.3058 2.6610 -0.9117 0.9856
-2.4569 2.6388 -0.9335 0.9852
-2.6282 2.6282 -0.9624 0.9848
-2.8133 2.6192 -0.9952 0.9842
-3.0050 2.6038 -1.0295 0.9837
-3.4712 2.5985 -1.1227 0.9822
-6.6852 3.3464 -1.9357 0.9696
-7.0042 2.6124 -1.9355 0.9696
-7.1737 2.1064 -1.9358 0.9696
-7.2451 1.8492 -1.9360 0.9696
-7.4666 0.5340 -1.9382 0.9695
7.1981 -0.0000 -2.0377 0.9705
7.1909 0.2568 -2.0370 0.9705
7.1130 1.0227 -2.0344 0.9706
7.0685 1.2753 -2.0334 0.9706
7.0149 1.5260 -2.0323 0.9706
6.9522 1.7744 -2.0312 0.9706
6.8805 2.0203 -2.0301 0.9706
6.8000 2.2632 -2.0289 0.9706
6.7107 2.5029 -2.0276 0.9707
6.6128 2.7391 -2.0263 0.9707
6.5065 2.9714 -2.0249 0.9707
6.1385 3.6421 -2.0206 0.9708
5.7009 4.2676 -2.0160 0.9708
5.5405 4.4648 -2.0144 0.9709
5.3732 4.6559 -2.0127 0.9709
5.0189 5.0189 -2.0094 0.9709
4.8325 5.1904 -2.0076 0.9709
3.8172 5.9397 -1.9988 0.9711
3.5995 6.0666 -1.9970 0.9711
3.3776 6.1856 -1.9952 0.9711
2.6897 6.4935 -1.9897 0.9712
2.2155 6.6567 -1.9861 0.9713
1.7319 6.7855 -1.9825 0.9713
1.2412 6.8794 -1.9790 0.9714
0.4174 3.8823 -1.1054 0.9839
-0.0000 3.3681 -0.9535 0.9861
-0.1182 3.3097 -0.9376 0.9863
-0.2329 3.2558 -0.9240 0.9865
-0.3441 3.2004 -0.9112 0.9867
-0.4506 3.1341 -0.8964 0.9869
-0.5537 3.0691 -0.8829 0.9871
-0.8547 2.9108 -0.8588 0.9875
-0.9488 2.8507 -0.8505 0.9876
-1.0420 2.7937 -0.8441 0.9877
-1.1507 2.7780 -0.8512 0.9876
-1.3760 2.7488 -0.8702 0.9873
-1.4923 2.7329 -0.8815 0.9871
-1.8607 2.6799 -0.9236 0.9865
-1.9921 2.6611 -0.9410 0.9863
-2.2764 2.6271 -0.9841 0.9857
-3.4306 2.5681 -1.2132 0.9823
-5.7674 3.7065 -1.9408 0.9719
-5.8952 3.4978 -1.9405 0.9719
-6.3313 2.6225 -1.9400 0.9719
-6.6417 1.6952 -1.9405 0.9719
-6.6989 1.4572 -1.9408 0.9719
-6.8592 0.2450 -1.9430 0.9719
6.6124 0.0000 -2.0338 0.9727
6.6059 0.2359 -2.0331 0.9727
6.5908 0.4714 -2.0324 0.9727
6.5672 0.7060 -2.0316 0.9727
6.4455 1.4021 -2.0289 0.9728
6.3881 1.6305 -2.0278 0.9728
6.3225 1.8565 -2.0268 0.9728
6.2488 2.0798 -2.0257 0.9728
6.0775 2.5174 -2.0233 0.9728
5.9801 2.7310 -2.0221 0.9729
5.8751 2.9408 -2.0208 0.9729
5.2415 3.9237 -2.0139 0.9730
4.9409 4.2813 -2.0109 0.9730
4.6157 4.6157 -2.0078 0.9731
3.8994 5.2089 -2.0013 0.9731
3.7079 5.3404 -1.9997 0.9732
3.3120 5.5820 -1.9964 0.9732
2.6895 5.8893 -1.9914 0.9733
2.4755 5.9765 -1.9897 0.9733
2.2587 6.0560 -1.9880 0.9733
1.5945 6.2470 -1.9831 0.9734
1.3693 6.2948 -1.9814 0.9734
1.1429 6.3345 -1.9798 0.9734
0.9153 6.3660 -1.9782 0.9734
0.2361 3.3009 -1.0179 0.9862
-0.1113 3.1170 -0.9593 0.9870
-0.5268 2.9198 -0.9126 0.9877
-0.6321 2.9055 -0.9146 0.9876
-0.7376 2.8900 -0.9174 0.9876
-0.8360 2.8471 -0.9127 0.9877
-0.9736 2.6102 -0.8569 0.9884
-1.2439 2.7237 -0.9210 0.9875
-1.3562 2.7093 -0.9319 0.9874
-1.8335 2.6408 -0.9888 0.9866
-1.9717 2.6339 -1.0120 0.9863
-2.2691 2.6186 -1.0657 0.9856
-2.4301 2.6101 -1.0969 0.9852
-3.4375 2.5733 -1.3207 0.9822
-5.3187 3.4181 -1.9446 0.9739
-5.9969 1.9959 -1.9440 0.9739
-6.0647 1.7807 -1.9441 0.9739
-6.1250 1.5633 -1.9443 0.9739
-6.2600 0.9000 -1.9452 0.9739
-6.2895 0.6762 -1.9457 0.9739
-6.3111 0.4514 -1.9461 0.9739
6.1084 0.0000 -2.0305 0.9746
6.1025 0.2179 -2.0298 0.9746
6.0888 0.4355 -2.0291 0.9746
6.0672 0.6523 -2.0284 0.9746
6.0003 1.0826 -2.0268 0.9746
5.9553 1.2955 -2.0259 0.9746
5.9025 1.5065 -2.0249 0.9746
5.7743 1.9219 -2.0229 0.9747
5.6990 2.1256 -2.0219 0.9747
5.4299 2.7180 -2.0184 0.9747
5.2158 3.0947 -2.0160 0.9748
5.0988 3.2768 -2.0147 0.9748
4.7098 3.7954 -2.0107 0.9748
4.4209 4.1160 -2.0078 0.9749
4.2681 4.2681 -2.0064 0.9749
4.1100 4.4145 -2.0049 0.9749
3.6065 4.8178 -2.0005 0.9750
3.2487 5.0550 -1.9974 0.9750
2.8753 5.2658 -1.9943 0.9750
2.6835 5.3609 -1.9928 0.9750
2.4885 5.4490 -1.9912 0.9751
2.0902 5.6040 -1.9881 0.9751
1.8873 5.6706 -1.9866 0.9751
1.6825 5.7299 -1.9851 0.9751
1.2675 5.8264 -1.9820 0.9752
0.4856 3.3776 -1.1343 0.9857
0.2222 3.1066 -1.0353 0.9870
0.1087 3.0445 -1.0126 0.9872
-0.0000 3.0098 -1.0005 0.9874
-0.1060 2.9692 -0.9876 0.9876
-0.2088 2.9188 -0.9727 0.9877
-0.6169 2.8359 -0.9647 0.9878
-0.7199 2.8205 -0.9676 0.9878
-0.9171 2.7553 -0.9653 0.9878
-0.9738 2.6107 -0.9262 0.9883
-1.0434 2.5191 -0.9063 0.9886
-1.3357 2.6684 -0.9919 0.9875
-1.8272 2.6317 -1.0650 0.9866
-1.9656 2.6257 -1.0903 0.9863
-2.5957 2.5957 -1.2202 0.9846
-2.7719 2.5808 -1.2589 0.9842
-3.4203 2.5604 -1.4202 0.9822
-3.7490 2.6030 -1.5171 0.9809
-5.3287 2.4335 -1.9472 0.9756
-5.4121 2.2417 -1.9472 0.9756
-5.4887 2.0472 -1.9472 0.9756
-5.6213 1.6506 -1.9474 0.9756
-5.8293 0.6267 -1.9489 0.9756
-5.8493 0.4183 -1.9493 0.9756
5.6697 -0.0000 -2.0275 0.9762
5.6644 0.2023 -2.0269 0.9762
5.6518 0.4042 -2.0263 0.9762
5.6319 0.6055 -2.0256 0.9762
5.4238 1.5926 -2.0215 0.9763
5.3610 1.7843 -2.0205 0.9763
5.2913 1.9736 -2.0196 0.9763
5.2149 2.1601 -2.0185 0.9763
5.0421 2.5239 -2.0164 0.9763
4.7352 3.0431 -2.0129 0.9764
4.5005 3.3691 -2.0104 0.9764
4.1067 3.8234 -2.0065 0.9764
3.8183 4.1012 -2.0038 0.9765
3.6670 4.2319 -2.0025 0.9765
3.5112 4.3571 -2.0011 0.9765
3.0189 4.6975 -1.9969 0.9766
2.8473 4.7988 -1.9954 0.9766
2.6723 4.8939 -1.9940 0.9766
2.4941 4.9825 -1.9926 0.9766
2.1292 5.1403 -1.9897 0.9766
1.7545 5.2715 -1.9868 0.9767
1.5641 5.3270 -1.9854 0.9767
0.9837 5.4520 -1.9812 0.9767
0.4525 3.1475 -1.1372 0.9866
0.3258 3.0301 -1.0899 0.9871
0.1040 2.9128 -1.0423 0.9877
-0.0000 2.8852 -1.0318 0.9878
-0.1020 2.8551 -1.0217 0.9879
-0.2020 2.8242 -1.0125 0.9880
-0.3010 2.7995 -1.0069 0.9881
-0.3998 2.7807 -1.0046 0.9881
-0.4991 2.7662 -1.0052 0.9881
-0.7975 2.7159 -1.0122 0.9880
-1.2111 2.6520 -1.0426 0.9877
-1.3247 2.6464 -1.0583 0.9875
-1.8200 2.6213 -1.1412 0.9865
-2.2540 2.6012 -1.2309 0.9855
-2.5823 2.5823 -1.3059 0.9846
-2.7590 2.5687 -1.3481 0.9841
-3.4214 2.5612 -1.5283 0.9820
-4.4815 3.1116 -1.9510 0.9771
-4.5891 2.9492 -1.9508 0.9771
-4.6909 2.7832 -1.9506 0.9771
-4.7868 2.6138 -1.9504 0.9771
-5.0382 2.0869 -1.9501 0.9771
-5.1745 1.7222 -1.9502 0.9771
-5.2850 1.3489 -1.9505 0.9771
-5.3691 0.9687 -1.9510 0.9771
-5.4011 0.7765 -1.9513 0.9771
-5.4449 0.3894 -1.9521 0.9771
5.2491 0.5643 -2.0232 0.9776
5.2239 0.7511 -2.0225 0.9776
5.1919 0.9367 -2.0217 0.9777
5.0559 1.4846 -2.0193 0.9777
4.8616 2.0137 -2.0166 0.9777
4.7843 2.1849 -2.0156 0.9777
4.7009 2.3531 -2.0146 0.9777
4.6115 2.5181 -2.0135 0.9777
4.4153 2.8375 -2.0113 0.9778
4.3088 2.9916 -2.0102 0.9778
3.8300 3.5659 -2.0054 0.9778
3.6980 3.6980 -2.0042 0.9778
3.5614 3.8252 -2.0029 0.9779
3.4204 3.9474 -2.0016 0.9779
3.2752 4.0643 -2.0003 0.9779
3.1260 4.1759 -1.9990 0.9779
2.8165 4.3825 -1.9964 0.9779
2.6565 4.4772 -1.9950 0.9779
2.4933 4.5661 -1.9937 0.9780
2.3272 4.6491 -1.9924 0.9780
1.9869 4.7968 -1.9897 0.9780
1.8132 4.8614 -1.9883 0.9780
1.6374 4.9197 -1.9870 0.9780
1.1000 5.0564 -1.9830 0.9781
0.9182 5.0891 -1.9817 0.9781
0.3130 2.9115 -1.1222 0.9875
0.2050 2.8665 -1.1013 0.9878
0.1007 2.8191 -1.0810 0.9880
-0.0000 2.7836 -1.0667 0.9881
-0.2951 2.7449 -1.0580 0.9882
-0.5851 2.6898 -1.0549 0.9883
-0.7840 2.6701 -1.0665 0.9881
-0.9897 2.6534 -1.0852 0.9879
-1.4365 2.6307 -1.1486 0.9872
-1.6821 2.6174 -1.1923 0.9868
-1.8128 2.6109 -1.2181 0.9865
-2.2444 2.5901 -1.3134 0.9854
-2.5785 2.5785 -1.3974 0.9845
-2.9740 2.5770 -1.5080 0.9833
-3.1919 2.5722 -1.5709 0.9826
-4.2880 2.7557 -1.9533 0.9784
-4.6352 2.1168 -1.9528 0.9784
-4.7077 1.9500 -1.9527 0.9784
-4.7744 1.7807 -1.9528 0.9784
-4.9382 1.2604 -1.9531 0.9784
-4.9806 1.0835 -1.9533 0.9784
-5.0702 0.5451 -1.9542 0.9784
-5.0874 0.3638 -1.9546 0.9784
4.9420 -0.0000 -2.0227 0.9789
4.9376 0.1763 -2.0221 0.9789
4.9268 0.3524 -2.0216 0.9789
4.8563 0.8762 -2.0197 0.9789
4.8202 1.0486 -2.0190 0.9789
4.7296 1.3887 -2.0174 0.9789
4.6751 1.5560 -2.0166 0.9789
4.5482 1.8839 -2.0148 0.9789
4.4760 2.0441 -2.0139 0.9790
4.3981 2.2015 -2.0130 0.9790
4.3146 2.3559 -2.0120 0.9790
4.1313 2.6550 -2.0099 0.9790
4.0318 2.7993 -2.0089 0.9790
3.8176 3.0764 -2.0067 0.9790
2.9261 3.9089 -1.9984 0.9791
2.7830 4.0084 -1.9972 0.9791
2.4869 4.1914 -1.9947 0.9792
2.3343 4.2749 -1.9934 0.9792
2.0208 4.4249 -1.9909 0.9792
1.5333 4.6069 -1.9872 0.9792
1.1992 4.6986 -1.9847 0.9793
1.0301 4.7355 -1.9834 0.9793
0.3066 2.8517 -1.1739 0.9877
0.1985 2.7760 -1.1391 0.9880
0.0982 2.7495 -1.1260 0.9882
0.0000 2.7302 -1.1174 0.9883
-0.0974 2.7257 -1.1163 0.9883
-0.1948 2.7238 -1.1176 0.9883
-0.2924 2.7199 -1.1196 0.9882
-0.3886 2.7029 -1.1176 0.9883
-0.4844 2.6847 -1.1165 0.9883
-0.6818 2.6712 -1.1283 0.9882
-0.7815 2.6616 -1.1353 0.9881
-0.8830 2.6529 -1.1443 0.9880
-0.9865 2.6448 -1.1553 0.9879
-1.3153 2.6276 -1.2026 0.9874
-1.4312 2.6211 -1.2223 0.9872
-1.9445 2.5975 -1.3280 0.9861
-2.0910 2.5947 -1.3639 0.9857
-2.2455 2.5914 -1.4034 0.9853
-2.4064 2.5846 -1.4453 0.9849
-2.5769 2.5769 -1.4915 0.9844
-3.1916 2.5719 -1.6776 0.9824
-3.4214 2.5612 -1.7492 0.9817
-3.9254 2.7254 -1.9558 0.9796
-4.0197 2.5833 -1.9556 0.9796
-4.5326 1.5086 -1.9551 0.9796
-4.6689 1.0157 -1.9556 0.9796
-4.7028 0.8485 -1.9558 0.9796
-4.7528 0.5110 -1.9564 0.9796
-4.7688 0.3411 -1.9568 0.9795
4.6364 -0.0000 -2.0206 0.9800
4.6222 0.3306 -2.0196 0.9800
4.6062 0.4952 -2.0190 0.9800
4.5564 0.8221 -2.0178 0.9800
4.2679 1.7678 -2.0133 0.9800
4.2003 1.9182 -2.0124 0.9801
4.1273 2.0660 -2.0115 0.9801
3.9657 2.3529 -2.0096 0.9801
3.8773 2.4918 -2.0087 0.9801
3.6860 2.7593 -2.0067 0.9801
3.3646 3.1325 -2.0035 0.9801
2.6129 3.7634 -1.9967 0.9802
2.3351 3.9356 -1.9944 0.9802
2.0459 4.0873 -1.9920 0.9803
1.8976 4.1553 -1.9908 0.9803
1.5945 4.2750 -1.9885 0.9803
1.4400 4.3266 -1.9873 0.9803
1.1264 4.4131 -1.9850 0.9803
0.5651 3.1322 -1.3871 0.9862
0.3034 2.8221 -1.2370 0.9877
0.1969 2.7537 -1.2032 0.9880
0.0976 2.7323 -1.1915 0.9881
0.0000 2.7134 -1.1826 0.9882
-0.0963 2.6962 -1.1758 0.9883
-0.1924 2.6905 -1.1756 0.9883
-0.6799 2.6637 -1.1981 0.9881
-0.8801 2.6441 -1.2145 0.9879
-1.0897 2.6306 -1.2409 0.9877
-1.1987 2.6248 -1.2576 0.9875
-1.4283 2.6157 -1.2988 0.9871
-1.5500 2.6123 -1.3238 0.9868
-1.6751 2.6064 -1.3503 0.9866
-2.0921 2.5961 -1.4531 0.9856
-2.5758 2.5758 -1.5876 0.9842
-3.6901 2.5621 -1.9579 0.9806
-3.7788 2.4285 -1.9576 0.9806
-3.8627 2.2918 -1.9574 0.9806
-1.5118 0.5639 -0.7032 0.9930
-1.4401 0.4793 -0.6615 0.9934
-1.3722 0.4029 -0.6233 0.9938
-1.3400 0.3420 -0.6027 0.9940
-1.3955 0.2518 -0.6180 0.9938
-1.4180 0.2039 -0.6244 0.9938
-1.4490 0.1036 -0.6331 0.9937
-1.4571 0.0520 -0.6354 0.9937
4.3613 0.0000 -2.0188 0.9810
4.3481 0.3110 -2.0178 0.9810
4.3331 0.4658 -2.0173 0.9810
4.2176 1.0765 -2.0148 0.9810
4.1271 1.3736 -2.0134 0.9810
4.0739 1.5195 -2.0127 0.9810
3.8099 2.0804 -2.0094 0.9810
3.7316 2.2140 -2.0085 0.9811
3.6485 2.3448 -2.0075 0.9811
3.5608 2.4723 -2.0066 0.9811
3.3721 2.7174 -2.0047 0.9811
3.2714 2.8347 -2.0037 0.9811
3.1665 2.9481 -2.0027 0.9811
3.0577 3.0577 -2.0016 0.9811
2.9451 3.1632 -2.0006 0.9811
2.8288 3.2646 -1.9995 0.9811
2.7090 3.3617 -1.9985 0.9811
2.5859 3.4544 -1.9974 0.9812
2.3303 3.6261 -1.9952 0.9812
2.0634 3.7789 -1.9930 0.9812
1.6449 3.9712 -1.9897 0.9812
1.5013 4.0251 -1.9886 0.9812
0.9112 4.1885 -1.9842 0.9813
0.3002 2.7924 -1.3000 0.9877
0.0969 2.7150 -1.2575 0.9881
-0.0000 2.6966 -1.2482 0.9882
-0.1990 2.7822 -1.2912 0.9878
-0.3984 2.7706 -1.2957 0.9877
-0.4798 2.6592 -1.2508 0.9882
-0.8781 2.6382 -1.2871 0.9878
-1.2006 2.6290 -1.3378 0.9873
-1.4316 2.6218 -1.3827 0.9869
-1.5517 2.6152 -1.4076 0.9867
-1.8082 2.6042 -1.4675 0.9861
-1.9468 2.6006 -1.5037 0.9858
-2.4043 2.5823 -1.6332 0.9846
-2.8931 2.6936 -1.8298 0.9827
-3.1883 2.5693 -1.8953 0.9821
-3.3896 2.5374 -1.9599 0.9815
-3.7148 2.0284 -1.9592 0.9815
-3.7846 1.8944 -1.9591 0.9815
-3.8497 1.7581 -1.9590 0.9815
-1.1330 0.3327 -0.5466 0.9948
-1.1790 0.2565 -0.5585 0.9947
-1.1974 0.2160 -0.5632 0.9947
-1.2362 0.0884 -0.5737 0.9946
-1.2424 0.0444 -0.5755 0.9945
4.1121 -0.0000 -2.0171 0.9818
3.9371 1.1560 -2.0127 0.9819
3.7869 1.5686 -2.0106 0.9819
3.5195 2.0882 -2.0074 0.9819
3.2717 2.4492 -2.0047 0.9820
3.1808 2.5632 -2.0038 0.9820
2.9870 2.7810 -2.0019 0.9820
2.8844 2.8844 -2.0009 0.9820
2.5557 3.1715 -1.9980 0.9820
2.1987 3.4212 -1.9949 0.9820
2.0741 3.4957 -1.9938 0.9821
1.9470 3.5657 -1.9928 0.9821
1.8175 3.6310 -1.9918 0.9821
1.5522 3.7474 -1.9897 0.9821
1.4167 3.7984 -1.9886 0.9821
1.1410 3.8858 -1.9865 0.9821
0.8599 3.9531 -1.9845 0.9821
0.2975 2.7672 -1.3652 0.9877
0.1946 2.7212 -1.3382 0.9879
-0.0972 2.7215 -1.3358 0.9879
-0.1907 2.6659 -1.3111 0.9882
-0.3824 2.6598 -1.3181 0.9881
-0.4875 2.7020 -1.3468 0.9878
-0.6353 2.9202 -1.4659 0.9868
-0.6767 2.6513 -1.3422 0.9879
-1.2037 2.6357 -1.4213 0.9872
-1.5529 2.6173 -1.4928 0.9865
-1.6777 2.6105 -1.5222 0.9863
-1.8087 2.6050 -1.5556 0.9860
-1.9463 2.5999 -1.5931 0.9856
-2.0907 2.5943 -1.6344 0.9853
-2.7273 2.9294 -1.9633 0.9823
-2.9282 2.7262 -1.9625 0.9823
-3.0231 2.6195 -1.9622 0.9823
-3.1142 2.5096 -1.9619 0.9823
-3.3634 2.1615 -1.9611 0.9823
-3.5085 1.9158 -1.9608 0.9823
-1.0290 0.4262 -0.5463 0.9951
-1.0025 0.3336 -0.5183 0.9953
-1.0307 0.2631 -0.5218 0.9953
-1.0611 0.1525 -0.5258 0.9952
-1.0705 0.1151 -0.5281 0.9952
-1.0769 0.0770 -0.5296 0.9952
3.8820 0.1386 -2.0152 0.9826
3.8605 0.4150 -2.0143 0.9827
3.8191 0.6890 -2.0132 0.9827
3.7910 0.8247 -2.0127 0.9827
3.7202 1.0924 -2.0115 0.9827
3.6777 1.2241 -2.0108 0.9827
3.5221 1.6085 -2.0087 0.9827
3.4612 1.7325 -2.0080 0.9827
3.3958 1.8542 -2.0072 0.9827
3.0923 2.3148 -2.0039 0.9827
2.9167 2.5273 -2.0021 0.9828
2.8233 2.6286 -2.0012 0.9828
2.7265 2.7265 -2.0003 0.9828
2.6262 2.8207 -1.9994 0.9828
2.5227 2.9113 -1.9985 0.9828
2.1938 3.1597 -1.9956 0.9828
2.0786 3.2344 -1.9946 0.9828
1.8408 3.3711 -1.9926 0.9828
1.7184 3.4330 -1.9916 0.9828
1.5940 3.4904 -1.9906 0.9829
1.4677 3.5433 -1.9897 0.9829
1.2100 3.6354 -1.9877 0.9829
1.0789 3.6744 -1.9867 0.9829
0.9466 3.7088 -1.9857 0.9829
0.8132 3.7384 -1.9847 0.9829
0.4092 2.8461 -1.4917 0.9871
0.0959 2.6854 -1.3940 0.9880
-0.0000 2.7626 -1.4332 0.9876
-0.3826 2.6610 -1.3947 0.9880
-0.4794 2.6571 -1.4007 0.9879
-0.6769 2.6520 -1.4199 0.9877
-0.7770 2.6461 -1.4307 0.9876
-1.0954 2.6445 -1.4849 0.9872
-1.2049 2.6384 -1.5047 0.9870
-1.3175 2.6320 -1.5270 0.9868
-1.6779 2.6108 -1.6100 0.9861
-1.8086 2.6048 -1.6451 0.9858
-2.2711 3.0338 -1.9660 0.9831
-2.4806 2.8627 -1.9651 0.9831
-2.7708 2.5796 -1.9640 0.9831
-2.9468 2.3747 -1.9633 0.9831
-3.1079 2.1579 -1.9629 0.9831
-3.1827 2.0454 -1.9627 0.9831
-3.2534 1.9303 -1.9625 0.9831
-0.9486 0.5179 -0.5607 0.9951
-0.9326 0.4259 -0.5319 0.9954
-0.9208 0.3434 -0.5098 0.9956
-0.9404 0.2761 -0.5085 0.9956
-0.9785 0.1407 -0.5129 0.9956
-0.9838 0.1058 -0.5133 0.9956
-0.9893 0.0353 -0.5135 0.9955
3.6775 -0.0000 -2.0142 0.9834
3.6745 0.1312 -2.0138 0.9834
3.6542 0.3929 -2.0130 0.9834
3.6370 0.5229 -2.0125 0.9834
3.6151 0.6522 -2.0120 0.9834
3.5886 0.7806 -2.0114 0.9834
3.5217 1.0341 -2.0103 0.9834
3.4368 1.2819 -2.0091 0.9834
3.3344 1.5228 -2.0077 0.9834
3.2150 1.7555 -2.0063 0.9834
3.0054 2.0867 -2.0040 0.9835
2.8466 2.2939 -2.0023 0.9835
2.4869 2.6711 -1.9989 0.9835
2.3889 2.7569 -1.9980 0.9835
2.1841 2.9177 -1.9962 0.9835
1.9686 3.0632 -1.9943 0.9835
1.8571 3.1301 -1.9934 0.9835
1.5098 3.3060 -1.9906 0.9836
1.3902 3.3562 -1.9897 0.9836
1.2689 3.4021 -1.9887 0.9836
0.8967 3.5133 -1.9859 0.9836
0.5371 2.9771 -1.6569 0.9863
0.2954 2.7473 -1.5134 0.9875
-0.2866 2.6656 -1.4684 0.9878
-0.4796 2.6580 -1.4793 0.9878
-0.5773 2.6536 -1.4874 0.9877
-0.6957 2.7256 -1.5407 0.9873
-0.8825 2.6515 -1.5306 0.9873
-0.9879 2.6487 -1.5483 0.9872
-1.0947 2.6429 -1.5668 0.9870
-1.2042 2.6368 -1.5877 0.9869
-1.3167 2.6304 -1.6111 0.9867
-1.4326 2.6237 -1.6373 0.9865
-2.4460 2.6271 -1.9660 0.9838
-2.7114 2.3494 -1.9650 0.9838
-2.7931 2.2508 -1.9647 0.9838
-0.8507 0.4645 -0.5309 0.9956
-0.8506 0.3884 -0.5122 0.9957
-0.8479 0.3512 -0.5027 0.9958
-0.8465 0.3157 -0.4948 0.9959
-0.8727 0.2562 -0.4982 0.9959
-0.9077 0.1305 -0.5022 0.9958
3.4763 0.2486 -2.0122 0.9840
3.4645 0.3725 -2.0117 0.9840
3.4482 0.4958 -2.0113 0.9840
3.3391 0.9804 -2.0092 0.9841
3.3010 1.0987 -2.0087 0.9841
3.2587 1.2154 -2.0080 0.9841
3.2123 1.3306 -2.0074 0.9841
3.1617 1.4439 -2.0068 0.9841
3.1071 1.5553 -2.0061 0.9841
2.9862 1.7717 -2.0047 0.9841
2.8500 1.9788 -2.0032 0.9841
2.4485 2.4485 -1.9992 0.9841
2.1700 2.6928 -1.9967 0.9842
1.7616 2.9690 -1.9932 0.9842
1.6538 3.0287 -1.9923 0.9842
1.0873 3.2669 -1.9879 0.9842
0.9696 3.3021 -1.9870 0.9842
0.8507 3.3332 -1.9861 0.9842
0.4058 2.8225 -1.6463 0.9869
-0.0000 2.6731 -1.5433 0.9877
-0.0954 2.6713 -1.5433 0.9877
-0.3829 2.6631 -1.5533 0.9877
-0.5774 2.6541 -1.5682 0.9875
-0.7774 2.6474 -1.5930 0.9873
-1.2016 2.6312 -1.6700 0.9867
-1.3138 2.6247 -1.6946 0.9865
-1.6356 2.9954 -1.9704 0.9844
-1.7410 2.9343 -1.9699 0.9844
-1.9449 2.8012 -1.9689 0.9844
-2.0432 2.7293 -1.9684 0.9844
-2.1388 2.6541 -1.9680 0.9844
-2.4089 2.4089 -1.9668 0.9844
-2.6514 2.1366 -1.9660 0.9844
-0.7634 0.5300 -0.5366 0.9957
-0.7797 0.3229 -0.4872 0.9961
-0.7887 0.2942 -0.4860 0.9961
-0.8014 0.2667 -0.4876 0.9961
-0.8393 0.1514 -0.4924 0.9961
-0.8453 0.1215 -0.4930 0.9961
-0.8531 0.0610 -0.4938 0.9961
-0.8548 0.0305 -0.4938 0.9961
