ply
format ascii 1.0
element vertex 724
property float32 x
property float32 y
property float32 z
property float32 I
end_header
-9.4559 0.0000 -1.9988 0.9621
-9.4539 -0.3376 -1.9996 0.9621
-9.2629 -2.0150 -2.0038 0.9620
-9.1888 -2.3453 -2.0046 0.9620
-9.0050 -2.9971 -2.0061 0.9619
-8.8956 -3.3179 -2.0069 0.9619
-8.6425 -3.9469 -2.0083 0.9619
-8.4991 -4.2543 -2.0090 0.9619
-8.3447 -4.5565 -2.0097 0.9619
-8.0035 -5.1435 -2.0110 0.9619
-7.8172 -5.4276 -2.0116 0.9618
-7.4143 -5.9748 -2.0128 0.9618
-6.7383 -6.7383 -2.0143 0.9618
-6.4950 -6.9762 -2.0148 0.9618
-6.2433 -7.2051 -2.0152 0.9618
-5.4403 -7.8356 -2.0164 0.9618
-4.5735 -8.3758 -2.0172 0.9617
-4.2722 -8.5347 -2.0175 0.9617
-3.6531 -8.8193 -2.0178 0.9617
-3.0150 -9.0585 -2.0181 0.9617
-2.3612 -9.2510 -2.0182 0.9617
-2.0295 -9.3294 -2.0182 0.9617
-1.6952 -9.3958 -2.0181 0.9617
-0.6810 -9.5219 -2.0179 0.9617
-0.3407 -9.5394 -2.0177 0.9617
0.0000 -9.5446 -2.0175 0.9617
0.3406 -9.5374 -2.0173 0.9617
1.0199 -9.4863 -2.0168 0.9617
1.6935 -9.3864 -2.0161 0.9618
2.0271 -9.3183 -2.0158 0.9618
2.6856 -9.1462 -2.0149 0.9618
3.0096 -9.0425 -2.0145 0.9618
3.3296 -8.9271 -2.0140 0.9618
3.6452 -8.8004 -2.0135 0.9618
4.2615 -8.5133 -2.0124 0.9618
4.5613 -8.3533 -2.0118 0.9618
4.8551 -8.1828 -2.0112 0.9618
5.4230 -7.8106 -2.0099 0.9619
5.6964 -7.6095 -2.0093 0.9619
5.9623 -7.3988 -2.0086 0.9619
6.4703 -6.9496 -2.0071 0.9619
6.9444 -6.4654 -2.0056 0.9620
7.7814 -5.4027 -2.0024 0.9620
7.9660 -5.1194 -2.0016 0.9620
8.1402 -4.8298 -2.0008 0.9620
8.5988 -3.9269 -1.9982 0.9621
8.7297 -3.6159 -1.9973 0.9621
9.1394 -2.3327 -1.9938 0.9622
9.2127 -2.0041 -1.9929 0.9622
9.3240 -1.3406 -1.9912 0.9622
9.3618 -1.0065 -1.9903 0.9622
9.3877 -0.6714 -1.9894 0.9623
-8.5022 0.0000 -1.9982 0.9657
-8.5001 -0.3036 -1.9990 0.9657
-8.4871 -0.6070 -1.9998 0.9656
-8.3830 -1.5124 -2.0020 0.9656
-8.3267 -1.8113 -2.0027 0.9656
-7.8863 -3.2666 -2.0062 0.9655
-7.7672 -3.5471 -2.0068 0.9655
-7.4990 -4.0947 -2.0081 0.9655
-7.3502 -4.3611 -2.0086 0.9655
-7.0243 -4.8770 -2.0098 0.9655
-6.8475 -5.1260 -2.0103 0.9655
-6.6619 -5.3685 -2.0108 0.9655
-6.4676 -5.6042 -2.0113 0.9654
-6.2649 -5.8328 -2.0118 0.9654
-6.0540 -6.0540 -2.0122 0.9654
-5.8353 -6.2675 -2.0126 0.9654
-5.6090 -6.4731 -2.0130 0.9654
-4.3739 -7.3718 -2.0146 0.9654
-4.1085 -7.5241 -2.0148 0.9654
-2.4162 -8.2288 -2.0156 0.9654
-1.5227 -8.4400 -2.0156 0.9654
-0.6117 -8.5533 -2.0154 0.9654
0.3060 -8.5676 -2.0149 0.9654
1.5214 -8.4324 -2.0138 0.9654
2.1183 -8.2995 -2.0131 0.9654
2.4128 -8.2171 -2.0127 0.9654
2.7040 -8.1241 -2.0123 0.9654
2.9916 -8.0207 -2.0119 0.9654
3.2752 -7.9070 -2.0114 0.9654
3.8291 -7.6495 -2.0105 0.9655
4.0986 -7.5060 -2.0099 0.9655
4.6211 -7.1905 -2.0088 0.9655
4.8733 -7.0189 -2.0082 0.9655
6.0325 -6.0325 -2.0051 0.9656
6.2419 -5.8114 -2.0044 0.9656
6.6359 -5.3475 -2.0030 0.9656
6.9954 -4.8570 -2.0015 0.9656
7.1616 -4.6025 -2.0007 0.9656
7.3185 -4.3423 -2.0000 0.9656
7.4660 -4.0767 -1.9992 0.9657
7.7318 -3.5310 -1.9977 0.9657
7.8499 -3.2515 -1.9969 0.9657
8.0555 -2.6811 -1.9953 0.9657
8.1428 -2.3909 -1.9945 0.9657
8.2197 -2.0979 -1.9938 0.9657
8.3418 -1.5050 -1.9922 0.9658
8.4213 -0.9054 -1.9906 0.9658
-7.7158 0.0000 -1.9978 0.9686
-7.7136 -0.2755 -1.9985 0.9686
-7.7015 -0.5508 -1.9992 0.9686
-7.6796 -0.8256 -1.9998 0.9686
-7.6478 -1.0996 -2.0005 0.9686
-7.0459 -3.2178 -2.0056 0.9685
-6.9286 -3.4682 -2.0061 0.9685
-6.6671 -3.9558 -2.0072 0.9685
-6.3711 -4.4236 -2.0082 0.9685
-6.0421 -4.8691 -2.0092 0.9684
-5.8658 -5.0827 -2.0096 0.9684
-5.4905 -5.4905 -2.0104 0.9684
-5.0867 -5.8703 -2.0112 0.9684
-4.8747 -6.0491 -2.0115 0.9684
-4.4320 -6.3833 -2.0121 0.9684
-4.2019 -6.5383 -2.0123 0.9684
-3.4800 -6.9522 -2.0130 0.9684
-3.2299 -7.0725 -2.0131 0.9684
-2.7175 -7.2858 -2.0134 0.9684
-2.1909 -7.4616 -2.0135 0.9684
-1.9233 -7.5352 -2.0135 0.9684
-1.6531 -7.5990 -2.0135 0.9684
-1.3808 -7.6531 -2.0135 0.9684
-1.1067 -7.6973 -2.0135 0.9684
0.2775 -7.7691 -2.0128 0.9684
0.5545 -7.7535 -2.0126 0.9684
0.8308 -7.7279 -2.0124 0.9684
1.1060 -7.6923 -2.0122 0.9684
1.6515 -7.5916 -2.0116 0.9684
1.9211 -7.5267 -2.0113 0.9684
2.4523 -7.3678 -2.0105 0.9684
2.9704 -7.1712 -2.0097 0.9684
3.4729 -6.9380 -2.0089 0.9685
3.9571 -6.6693 -2.0079 0.9685
4.4205 -6.3667 -2.0068 0.9685
5.0715 -5.8528 -2.0052 0.9685
6.0208 -4.8518 -2.0021 0.9686
6.3473 -4.4070 -2.0007 0.9686
6.4984 -4.1763 -2.0001 0.9686
6.6410 -3.9403 -1.9994 0.9686
7.0168 -3.2045 -1.9973 0.9686
7.2224 -2.6938 -1.9959 0.9687
7.4610 -1.9043 -1.9937 0.9687
7.6136 -1.0947 -1.9916 0.9687
7.6450 -0.8219 -1.9908 0.9687
7.6668 -0.5483 -1.9901 0.9687
7.6788 -0.2742 -1.9894 0.9688
-7.0555 0.0000 -1.9974 0.9711
-7.0533 -0.2519 -1.9980 0.9711
-7.0218 -0.7549 -1.9993 0.9711
-6.7864 -1.9926 -2.0023 0.9710
-6.6307 -2.4731 -2.0034 0.9710
-6.4408 -2.9414 -2.0045 0.9710
-6.2178 -3.3951 -2.0055 0.9710
-5.8233 -4.0432 -2.0069 0.9710
-5.6765 -4.2494 -2.0074 0.9710
-5.5224 -4.4502 -2.0078 0.9709
-5.0179 -5.0179 -2.0089 0.9709
-4.8365 -5.1947 -2.0093 0.9709
-4.4549 -5.5282 -2.0099 0.9709
-4.2554 -5.6845 -2.0102 0.9709
-3.6246 -6.1090 -2.0109 0.9709
-2.9516 -6.4630 -2.0114 0.9709
-2.4833 -6.6579 -2.0116 0.9709
-1.7575 -6.8857 -2.0118 0.9709
-1.5106 -6.9441 -2.0118 0.9709
-1.0113 -7.0339 -2.0117 0.9709
-0.7596 -7.0653 -2.0117 0.9709
-0.5069 -7.0876 -2.0116 0.9709
-0.2536 -7.1008 -2.0115 0.9709
0.5068 -7.0855 -2.0110 0.9709
0.7593 -7.0621 -2.0108 0.9709
1.0107 -7.0297 -2.0105 0.9709
1.2608 -6.9883 -2.0103 0.9709
2.2412 -6.7336 -2.0091 0.9709
2.4796 -6.6482 -2.0087 0.9709
2.7148 -6.5542 -2.0083 0.9709
3.8313 -5.9616 -2.0062 0.9710
4.0407 -5.8196 -2.0057 0.9710
4.2447 -5.6703 -2.0052 0.9710
4.4433 -5.5138 -2.0047 0.9710
5.1771 -4.8200 -2.0025 0.9710
5.6576 -4.2352 -2.0007 0.9710
5.8034 -4.0294 -2.0001 0.9711
6.0723 -3.6029 -1.9988 0.9711
6.1951 -3.3828 -1.9982 0.9711
6.3099 -3.1585 -1.9976 0.9711
6.5149 -2.6986 -1.9963 0.9711
6.6049 -2.4635 -1.9956 0.9711
6.7594 -1.9847 -1.9943 0.9711
6.9260 -1.2496 -1.9924 0.9712
6.9639 -1.0013 -1.9917 0.9712
6.9929 -0.7518 -1.9910 0.9712
7.0130 -0.5016 -1.9904 0.9712
7.0242 -0.2508 -1.9898 0.9712
-6.4906 -0.2318 -1.9976 0.9732
-6.4800 -0.4635 -1.9982 0.9732
-6.3988 -1.1545 -1.9999 0.9732
-6.3553 -1.3825 -2.0005 0.9731
-6.2439 -1.8334 -2.0016 0.9731
-6.1004 -2.2753 -2.0026 0.9731
-5.9254 -2.7061 -2.0036 0.9731
-5.7200 -3.1233 -2.0045 0.9731
-5.4850 -3.5250 -2.0054 0.9731
-5.3568 -3.7193 -2.0058 0.9731
-4.9314 -4.2731 -2.0070 0.9731
-4.2758 -4.9346 -2.0083 0.9730
-3.7253 -5.3654 -2.0091 0.9730
-3.5318 -5.4956 -2.0093 0.9730
-3.1313 -5.7346 -2.0097 0.9730
-2.2839 -6.1234 -2.0102 0.9730
-1.3893 -6.3865 -2.0103 0.9730
-0.6986 -6.4981 -2.0102 0.9730
-0.4662 -6.5186 -2.0101 0.9730
-0.2332 -6.5307 -2.0100 0.9730
0.6983 -6.4954 -2.0094 0.9730
1.1597 -6.4276 -2.0089 0.9730
1.6148 -6.3268 -2.0084 0.9730
2.0615 -6.1937 -2.0078 0.9731
2.4972 -6.0288 -2.0071 0.9731
3.1256 -5.7240 -2.0060 0.9731
3.7172 -5.3537 -2.0047 0.9731
4.0877 -5.0725 -2.0037 0.9731
4.4370 -4.7656 -2.0028 0.9731
4.7632 -4.4347 -2.0017 0.9731
5.0647 -4.0814 -2.0007 0.9731
5.3400 -3.7076 -1.9995 0.9732
5.4674 -3.5137 -1.9990 0.9732
5.5877 -3.3153 -1.9984 0.9732
5.9049 -2.6966 -1.9966 0.9732
5.9956 -2.4834 -1.9960 0.9732
6.0785 -2.2672 -1.9954 0.9732
6.1537 -2.0482 -1.9948 0.9732
6.2210 -1.8266 -1.9942 0.9732
6.3317 -1.3774 -1.9930 0.9732
6.4099 -0.9216 -1.9918 0.9733
6.4368 -0.6920 -1.9912 0.9733
-6.0070 0.0000 -1.9968 0.9750
-6.0048 -0.2144 -1.9973 0.9750
-5.9194 -1.0680 -1.9994 0.9750
-5.8791 -1.2789 -1.9999 0.9750
-5.7757 -1.6959 -2.0009 0.9749
-5.7129 -1.9014 -2.0014 0.9749
-5.6427 -2.1046 -2.0019 0.9749
-5.2905 -2.8888 -2.0037 0.9749
-4.9544 -3.4399 -2.0049 0.9749
-4.8293 -3.6152 -2.0053 0.9749
-4.2685 -4.2685 -2.0066 0.9749
-4.1141 -4.4188 -2.0069 0.9749
-3.7893 -4.7023 -2.0074 0.9749
-3.6195 -4.8351 -2.0077 0.9749
-3.4450 -4.9618 -2.0079 0.9749
-3.2660 -5.0821 -2.0081 0.9749
-3.0829 -5.1959 -2.0083 0.9749
-2.8957 -5.3030 -2.0084 0.9749
-2.5103 -5.4968 -2.0087 0.9748
-2.1120 -5.6624 -2.0089 0.9748
-1.9086 -5.7344 -2.0089 0.9748
-1.7027 -5.7990 -2.0090 0.9748
-1.4947 -5.8561 -2.0090 0.9748
-1.2847 -5.9058 -2.0090 0.9748
-1.0731 -5.9478 -2.0090 0.9748
-0.6460 -6.0089 -2.0089 0.9748
0.0000 -6.0427 -2.0086 0.9749
0.2157 -6.0384 -2.0085 0.9749
0.4310 -6.0264 -2.0083 0.9749
0.6458 -6.0066 -2.0081 0.9749
0.8597 -5.9792 -2.0079 0.9749
1.0724 -5.9440 -2.0077 0.9749
1.7010 -5.7932 -2.0070 0.9749
2.1094 -5.6554 -2.0064 0.9749
2.3095 -5.5756 -2.0061 0.9749
2.8908 -5.2940 -2.0050 0.9749
3.2598 -5.0723 -2.0042 0.9749
3.7809 -4.6918 -2.0030 0.9749
3.9451 -4.5528 -2.0025 0.9749
4.1041 -4.4081 -2.0020 0.9749
4.9400 -3.4299 -1.9991 0.9750
5.1693 -3.0671 -1.9980 0.9750
5.2741 -2.8799 -1.9975 0.9750
5.3721 -2.6890 -1.9969 0.9750
5.4631 -2.4949 -1.9964 0.9750
5.5472 -2.2977 -1.9958 0.9750
5.6241 -2.0977 -1.9953 0.9750
5.6938 -1.8951 -1.9947 0.9750
5.7562 -1.6902 -1.9942 0.9750
5.8112 -1.4832 -1.9936 0.9750
5.8989 -1.0643 -1.9925 0.9751
5.9739 -0.4273 -1.9908 0.9751
-5.5830 0.0000 -1.9965 0.9766
-5.5808 -0.1993 -1.9970 0.9766
-5.5715 -0.3985 -1.9975 0.9766
-5.5551 -0.5972 -1.9980 0.9765
-5.4634 -1.1885 -1.9995 0.9765
-5.4188 -1.3831 -1.9999 0.9765
-5.3672 -1.5760 -2.0004 0.9765
-5.3088 -1.7669 -2.0008 0.9765
-5.0075 -2.5066 -2.0026 0.9765
-4.4871 -3.3590 -2.0044 0.9765
-4.1043 -3.8212 -2.0054 0.9765
-3.9658 -3.9658 -2.0057 0.9765
-3.6738 -4.2398 -2.0062 0.9765
-3.5205 -4.3687 -2.0064 0.9764
-3.3627 -4.4921 -2.0066 0.9764
-3.0343 -4.7214 -2.0070 0.9764
-2.6902 -4.9267 -2.0074 0.9764
-2.3321 -5.1067 -2.0076 0.9764
-2.1485 -5.1869 -2.0077 0.9764
-1.9620 -5.2605 -2.0078 0.9764
-1.5819 -5.3873 -2.0079 0.9764
-1.3886 -5.4404 -2.0079 0.9764
-1.1935 -5.4865 -2.0079 0.9764
-0.9969 -5.5256 -2.0079 0.9764
-0.6002 -5.5824 -2.0078 0.9764
-0.4005 -5.6000 -2.0077 0.9764
0.0000 -5.6138 -2.0075 0.9764
0.4004 -5.5987 -2.0072 0.9764
1.1927 -5.4826 -2.0065 0.9764
1.3875 -5.4359 -2.0063 0.9764
1.5804 -5.3823 -2.0060 0.9765
2.1458 -5.1803 -2.0052 0.9765
2.3289 -5.0996 -2.0048 0.9765
2.6859 -4.9189 -2.0042 0.9765
3.0289 -4.7130 -2.0035 0.9765
3.1946 -4.6010 -2.0031 0.9765
3.3561 -4.4832 -2.0027 0.9765
4.5909 -3.1875 -1.9987 0.9765
4.9017 -2.6765 -1.9972 0.9766
5.2922 -1.7614 -1.9946 0.9766
5.3503 -1.5710 -1.9941 0.9766
5.4459 -1.1847 -1.9931 0.9766
5.4833 -0.9893 -1.9925 0.9766
5.5371 -0.5953 -1.9915 0.9766
5.5533 -0.3972 -1.9910 0.9766
-5.1984 -0.3718 -1.9972 0.9779
-5.1831 -0.5572 -1.9977 0.9779
-5.1611 -0.7420 -1.9981 0.9779
-5.1324 -0.9260 -1.9986 0.9779
-5.0972 -1.1088 -1.9990 0.9779
-5.0073 -1.4703 -1.9999 0.9779
-4.9527 -1.6484 -2.0003 0.9779
-4.8917 -1.8245 -2.0007 0.9779
-4.8245 -1.9984 -2.0011 0.9779
-4.4943 -2.6666 -2.0027 0.9779
-4.3971 -2.8258 -2.0030 0.9779
-4.2941 -2.9815 -2.0033 0.9779
-4.1856 -3.1333 -2.0037 0.9779
-4.0718 -3.2812 -2.0040 0.9778
-3.6993 -3.6993 -2.0048 0.9778
-3.2838 -4.0749 -2.0055 0.9778
-2.9853 -4.2997 -2.0059 0.9778
-2.6714 -4.5024 -2.0063 0.9778
-2.5092 -4.5952 -2.0064 0.9778
-2.1752 -4.7631 -2.0066 0.9778
-1.6538 -4.9689 -2.0069 0.9778
-1.2951 -5.0743 -2.0069 0.9778
-0.9298 -5.1537 -2.0069 0.9778
-0.5598 -5.2067 -2.0068 0.9778
-0.3736 -5.2232 -2.0067 0.9778
0.0000 -5.2361 -2.0066 0.9778
0.1869 -5.2324 -2.0064 0.9778
0.5596 -5.2050 -2.0062 0.9778
0.9293 -5.1509 -2.0058 0.9778
1.2942 -5.0704 -2.0054 0.9778
1.6522 -4.9640 -2.0049 0.9778
2.0016 -4.8322 -2.0044 0.9778
2.3405 -4.6757 -2.0038 0.9779
2.6672 -4.4954 -2.0031 0.9779
2.8255 -4.3965 -2.0028 0.9779
2.9801 -4.2921 -2.0024 0.9779
3.1308 -4.1822 -2.0020 0.9779
3.4199 -3.9467 -2.0013 0.9779
3.5579 -3.8214 -2.0009 0.9779
3.9435 -3.4170 -1.9996 0.9779
4.0621 -3.2734 -1.9992 0.9779
4.1754 -3.1256 -1.9987 0.9779
4.3857 -2.8185 -1.9978 0.9779
4.4825 -2.6596 -1.9974 0.9779
4.5735 -2.4973 -1.9969 0.9779
4.7378 -2.1637 -1.9960 0.9779
4.8777 -1.8193 -1.9950 0.9779
4.9383 -1.6436 -1.9945 0.9780
4.9926 -1.4660 -1.9940 0.9780
5.0405 -1.2865 -1.9936 0.9780
5.0820 -1.1055 -1.9931 0.9780
5.1170 -0.9232 -1.9926 0.9780
5.1454 -0.7398 -1.9921 0.9780
5.1673 -0.5555 -1.9916 0.9780
5.1826 -0.3707 -1.9911 0.9780
5.1913 -0.1854 -1.9907 0.9780
-4.8771 -0.0000 -1.9961 0.9791
-4.8317 -0.6947 -1.9978 0.9791
-4.8049 -0.8669 -1.9983 0.9791
-4.7718 -1.0381 -1.9987 0.9791
-4.6875 -1.3764 -1.9995 0.9791
-4.6363 -1.5431 -1.9999 0.9791
-4.5792 -1.7079 -2.0003 0.9791
-4.4473 -2.0310 -2.0010 0.9791
-4.2926 -2.3439 -2.0017 0.9791
-4.2069 -2.4961 -2.0021 0.9791
-4.1158 -2.6451 -2.0024 0.9791
-4.0194 -2.7907 -2.0027 0.9791
-3.6997 -3.2058 -2.0036 0.9791
-3.5834 -3.3362 -2.0038 0.9791
-3.4625 -3.4625 -2.0041 0.9791
-3.0735 -3.8140 -2.0047 0.9791
-2.6489 -4.1218 -2.0053 0.9790
-2.3484 -4.3008 -2.0056 0.9790
-2.1936 -4.3822 -2.0057 0.9790
-1.7128 -4.5922 -2.0059 0.9790
-1.3809 -4.7028 -2.0060 0.9790
-1.2122 -4.7492 -2.0060 0.9790
-0.5239 -4.8731 -2.0059 0.9790
0.3496 -4.8876 -2.0055 0.9790
0.5238 -4.8716 -2.0053 0.9790
0.8698 -4.8210 -2.0050 0.9790
1.3798 -4.6990 -2.0044 0.9791
1.5464 -4.6462 -2.0042 0.9791
1.8735 -4.5229 -2.0036 0.9791
2.0334 -4.4526 -2.0034 0.9791
2.1907 -4.3765 -2.0031 0.9791
2.3452 -4.2949 -2.0028 0.9791
2.4966 -4.2078 -2.0025 0.9791
2.7895 -4.0177 -2.0018 0.9791
3.2013 -3.6945 -2.0008 0.9791
3.4554 -3.4554 -2.0000 0.9791
3.5759 -3.3292 -1.9996 0.9791
3.6917 -3.1988 -1.9992 0.9791
4.0100 -2.7842 -1.9980 0.9791
4.1059 -2.6387 -1.9975 0.9791
4.2818 -2.3380 -1.9967 0.9791
4.4357 -2.0257 -1.9958 0.9791
4.5042 -1.8657 -1.9953 0.9791
4.5669 -1.7033 -1.9949 0.9792
4.6237 -1.5389 -1.9944 0.9792
4.6746 -1.3726 -1.9940 0.9792
4.7196 -1.2046 -1.9935 0.9792
4.7585 -1.0351 -1.9931 0.9792
4.7913 -0.8644 -1.9926 0.9792
4.8612 -0.1736 -1.9908 0.9792
-1.4180 -0.2039 -0.6244 0.9938
-1.3688 -0.2978 -0.6105 0.9939
-1.3722 -0.4029 -0.6233 0.9938
-1.4401 -0.4793 -0.6615 0.9934
-4.2402 -1.7563 -2.0002 0.9802
-4.1055 -2.0550 -2.0009 0.9802
-4.0302 -2.2006 -2.0012 0.9802
-3.8641 -2.4833 -2.0018 0.9802
-3.7735 -2.6200 -2.0021 0.9802
-3.5780 -2.8834 -2.0027 0.9801
-3.4733 -3.0096 -2.0029 0.9801
-3.2505 -3.2505 -2.0034 0.9801
-3.0110 -3.4749 -2.0038 0.9801
-2.7559 -3.6815 -2.0042 0.9801
-2.3471 -3.9559 -2.0047 0.9801
-2.2046 -4.0374 -2.0048 0.9801
-2.0592 -4.1137 -2.0049 0.9801
-1.9111 -4.1848 -2.0050 0.9801
-1.7606 -4.2505 -2.0051 0.9801
-1.4530 -4.3656 -2.0052 0.9801
-0.9780 -4.4960 -2.0053 0.9801
-0.6548 -4.5542 -2.0052 0.9801
-0.1642 -4.5977 -2.0050 0.9801
0.0000 -4.6004 -2.0049 0.9801
0.3282 -4.5882 -2.0047 0.9801
0.4917 -4.5732 -2.0046 0.9801
0.6546 -4.5524 -2.0044 0.9801
0.8166 -4.5258 -2.0043 0.9801
0.9775 -4.4934 -2.0041 0.9801
1.1371 -4.4552 -2.0039 0.9801
1.7588 -4.2461 -2.0030 0.9801
1.9090 -4.1801 -2.0028 0.9801
2.3439 -3.9504 -2.0019 0.9802
2.6190 -3.7720 -2.0013 0.9802
2.7515 -3.6755 -2.0010 0.9802
3.0057 -3.4687 -2.0003 0.9802
3.2443 -3.2443 -1.9996 0.9802
3.5705 -2.8773 -1.9985 0.9802
4.0206 -2.1954 -1.9965 0.9802
4.1653 -1.9022 -1.9956 0.9802
4.2886 -1.5995 -1.9948 0.9802
4.4321 -1.1312 -1.9935 0.9802
4.4687 -0.9721 -1.9931 0.9802
4.4996 -0.8118 -1.9927 0.9802
4.5441 -0.4885 -1.9918 0.9803
4.5577 -0.3260 -1.9914 0.9803
-1.2424 -0.0444 -0.5755 0.9945
-1.1790 -0.2565 -0.5585 0.9947
-1.1330 -0.3327 -0.5466 0.9948
-1.1536 -0.3840 -0.5628 0.9947
-1.2017 -0.4482 -0.5937 0.9944
-3.8645 -1.9344 -2.0004 0.9811
-3.7936 -2.0714 -2.0007 0.9811
-3.6372 -2.3375 -2.0013 0.9811
-3.4621 -2.5917 -2.0019 0.9811
-3.3679 -2.7140 -2.0021 0.9811
-3.2692 -2.8328 -2.0024 0.9811
-3.1664 -2.9480 -2.0026 0.9811
-2.8340 -3.2706 -2.0032 0.9811
-2.5939 -3.4651 -2.0036 0.9811
-2.4688 -3.5558 -2.0037 0.9811
-2.3405 -3.6419 -2.0039 0.9811
-2.0750 -3.8000 -2.0041 0.9811
-1.6571 -4.0006 -2.0044 0.9811
-1.2200 -4.1551 -2.0045 0.9811
-0.7689 -4.2617 -2.0045 0.9811
-0.4629 -4.3056 -2.0045 0.9811
0.0000 -4.3299 -2.0043 0.9811
0.1545 -4.3269 -2.0042 0.9811
0.3089 -4.3184 -2.0040 0.9811
0.4628 -4.3044 -2.0039 0.9811
0.6161 -4.2848 -2.0038 0.9811
1.0703 -4.1934 -2.0033 0.9811
1.2192 -4.1521 -2.0031 0.9811
1.5120 -4.0537 -2.0027 0.9811
1.9359 -3.8675 -2.0019 0.9811
2.2063 -3.7185 -2.0014 0.9811
2.3373 -3.6369 -2.0011 0.9811
2.4652 -3.5506 -2.0008 0.9811
2.8293 -3.2652 -1.9999 0.9811
2.9436 -3.1616 -1.9996 0.9811
3.0540 -3.0540 -1.9992 0.9811
3.1605 -2.9425 -1.9989 0.9811
3.3612 -2.7086 -1.9982 0.9812
3.4551 -2.5864 -1.9978 0.9812
3.6295 -2.3325 -1.9970 0.9812
3.7097 -2.2010 -1.9967 0.9812
3.7852 -2.0668 -1.9963 0.9812
3.9821 -1.6494 -1.9951 0.9812
4.1331 -1.2136 -1.9939 0.9812
4.1729 -1.0651 -1.9935 0.9812
4.2074 -0.9153 -1.9931 0.9812
4.2365 -0.7644 -1.9927 0.9812
4.2603 -0.6125 -1.9923 0.9812
4.2786 -0.4600 -1.9919 0.9812
4.2988 -0.1535 -1.9911 0.9812
-1.0817 0.0000 -0.5306 0.9952
-1.0769 -0.0770 -0.5296 0.9952
-1.0705 -0.1151 -0.5281 0.9952
-1.0611 -0.1526 -0.5258 0.9952
-1.0518 -0.1898 -0.5242 0.9952
-1.0422 -0.2267 -0.5232 0.9953
-1.0307 -0.2631 -0.5218 0.9953
-1.0025 -0.3336 -0.5183 0.9953
-1.0290 -0.4262 -0.5463 0.9951
-1.0444 -0.4769 -0.5632 0.9949
-1.0588 -0.5300 -0.5808 0.9947
-3.5791 -1.9543 -2.0003 0.9820
-3.5075 -2.0811 -2.0006 0.9820
-3.4315 -2.2053 -2.0009 0.9820
-3.3510 -2.3267 -2.0011 0.9820
-3.2663 -2.4451 -2.0014 0.9820
-3.1773 -2.5604 -2.0016 0.9820
-2.9872 -2.7812 -2.0021 0.9820
-2.8863 -2.8863 -2.0023 0.9820
-2.7818 -2.9878 -2.0025 0.9820
-2.6736 -3.0855 -2.0027 0.9820
-2.4471 -3.2689 -2.0030 0.9820
-1.4276 -3.8275 -2.0038 0.9820
-1.0103 -3.9583 -2.0039 0.9820
-0.2914 -4.0746 -2.0038 0.9820
0.1458 -4.0819 -2.0035 0.9820
0.7250 -4.0186 -2.0030 0.9820
0.8679 -3.9898 -2.0029 0.9820
1.1502 -3.9171 -2.0025 0.9820
1.2891 -3.8731 -2.0023 0.9820
1.6952 -3.7120 -2.0017 0.9820
1.8264 -3.6486 -2.0014 0.9820
2.3258 -3.3498 -2.0004 0.9820
2.4436 -3.2642 -2.0001 0.9820
3.1714 -2.5556 -1.9979 0.9820
3.2600 -2.4404 -1.9975 0.9820
3.5003 -2.0768 -1.9965 0.9820
3.6382 -1.8212 -1.9957 0.9820
3.7002 -1.6898 -1.9954 0.9820
3.8575 -1.2839 -1.9942 0.9820
3.9704 -0.8637 -1.9931 0.9821
4.0203 -0.5780 -1.9923 0.9821
4.0376 -0.4341 -1.9920 0.9821
4.0498 -0.2896 -1.9916 0.9821
4.0568 -0.1449 -1.9912 0.9821
-0.9873 -0.0706 -0.5135 0.9955
-0.9838 -0.1058 -0.5133 0.9956
-0.9785 -0.1407 -0.5129 0.9956
-0.9715 -0.1753 -0.5121 0.9956
-0.9628 -0.2094 -0.5112 0.9956
-0.9524 -0.2431 -0.5099 0.9956
-0.9268 -0.3085 -0.5067 0.9956
-0.9271 -0.3840 -0.5206 0.9955
-0.9326 -0.4259 -0.5319 0.9954
-0.9486 -0.5180 -0.5607 0.9951
-3.3158 -1.9674 -2.0002 0.9828
-3.1678 -2.1995 -2.0007 0.9828
-2.9156 -2.5263 -2.0014 0.9828
-2.4218 -3.0053 -2.0023 0.9828
-2.2016 -3.1708 -2.0026 0.9828
-2.0871 -3.2476 -2.0027 0.9828
-1.9700 -3.3202 -2.0028 0.9828
-1.8503 -3.3886 -2.0029 0.9828
-1.7283 -3.4526 -2.0030 0.9828
-1.6040 -3.5123 -2.0031 0.9828
-1.4777 -3.5674 -2.0032 0.9828
-1.2195 -3.6639 -2.0033 0.9827
-1.0879 -3.7051 -2.0033 0.9827
-0.8208 -3.7733 -2.0033 0.9827
-0.5496 -3.8222 -2.0033 0.9827
-0.1378 -3.8588 -2.0031 0.9828
0.1378 -3.8585 -2.0030 0.9828
0.2754 -3.8509 -2.0029 0.9828
0.4127 -3.8384 -2.0028 0.9828
0.5494 -3.8210 -2.0026 0.9828
0.8204 -3.7715 -2.0024 0.9828
0.9545 -3.7395 -2.0022 0.9828
1.0872 -3.7028 -2.0020 0.9828
1.4764 -3.5643 -2.0014 0.9828
1.6025 -3.5090 -2.0012 0.9828
1.9677 -3.3164 -2.0005 0.9828
2.1987 -3.1667 -2.0000 0.9828
2.3100 -3.0858 -1.9997 0.9828
2.4184 -3.0010 -1.9995 0.9828
2.6255 -2.8200 -1.9989 0.9828
2.8192 -2.6247 -1.9983 0.9828
2.9983 -2.4161 -1.9976 0.9828
3.4398 -1.7218 -1.9956 0.9828
3.4985 -1.5977 -1.9952 0.9828
3.5526 -1.4715 -1.9949 0.9828
3.6023 -1.3436 -1.9945 0.9828
3.6473 -1.2139 -1.9942 0.9828
3.6876 -1.0828 -1.9938 0.9828
3.7541 -0.8166 -1.9931 0.9828
3.7802 -0.6820 -1.9928 0.9828
-0.9161 -0.0655 -0.5030 0.9958
-0.9077 -0.1305 -0.5022 0.9958
-0.8932 -0.1943 -0.5006 0.9958
-0.8465 -0.3157 -0.4948 0.9959
-0.8479 -0.3512 -0.5027 0.9958
-0.8516 -0.4263 -0.5216 0.9957
-3.0720 -1.9743 -2.0001 0.9835
-2.8443 -2.2921 -2.0007 0.9835
-2.7610 -2.3924 -2.0009 0.9835
-2.6741 -2.4897 -2.0011 0.9835
-2.4901 -2.6746 -2.0015 0.9835
-2.2933 -2.8459 -2.0018 0.9835
-1.1548 -3.4695 -2.0027 0.9835
-0.9043 -3.5431 -2.0028 0.9835
-0.5204 -3.6194 -2.0028 0.9835
-0.2608 -3.6472 -2.0027 0.9835
0.1305 -3.6538 -2.0025 0.9835
0.5202 -3.6183 -2.0021 0.9835
0.6490 -3.5972 -2.0020 0.9835
0.9038 -3.5412 -2.0017 0.9835
1.0296 -3.5064 -2.0016 0.9835
1.1540 -3.4671 -2.0014 0.9835
1.5176 -3.3229 -2.0008 0.9835
1.6350 -3.2663 -2.0006 0.9835
1.7504 -3.2055 -2.0004 0.9835
2.1877 -2.9224 -1.9994 0.9835
2.3899 -2.7581 -1.9989 0.9835
2.4865 -2.6707 -1.9986 0.9835
2.5799 -2.5799 -1.9983 0.9835
2.6699 -2.4858 -1.9980 0.9835
2.8396 -2.2883 -1.9974 0.9835
2.9190 -2.1851 -1.9971 0.9835
2.9947 -2.0792 -1.9968 0.9835
3.0665 -1.9707 -1.9965 0.9835
3.1344 -1.8597 -1.9961 0.9835
3.1982 -1.7463 -1.9958 0.9835
3.2580 -1.6308 -1.9955 0.9835
3.3649 -1.3938 -1.9948 0.9835
3.4546 -1.1498 -1.9941 0.9835
3.4928 -1.0256 -1.9938 0.9835
3.5266 -0.9001 -1.9935 0.9835
3.5559 -0.7735 -1.9931 0.9835
3.5806 -0.6460 -1.9928 0.9835
3.6008 -0.5177 -1.9924 0.9835
3.6164 -0.3888 -1.9921 0.9835
3.6337 -0.1298 -1.9914 0.9836
-0.8550 0.0000 -0.4936 0.9961
-0.8547 -0.0305 -0.4938 0.9961
-0.8530 -0.0610 -0.4938 0.9961
-0.8499 -0.0914 -0.4935 0.9961
-0.8393 -0.1514 -0.4924 0.9961
-0.8318 -0.1809 -0.4915 0.9961
-0.8128 -0.2387 -0.4891 0.9961
-0.8014 -0.2667 -0.4876 0.9961
-0.7696 -0.4946 -0.5282 0.9958
-2.7733 -2.0761 -2.0001 0.9841
-2.6978 -2.1740 -2.0003 0.9841
-2.3618 -2.5367 -2.0011 0.9841
-2.2699 -2.6196 -2.0012 0.9841
-2.1751 -2.6991 -2.0014 0.9841
-2.0775 -2.7753 -2.0015 0.9841
-1.9773 -2.8478 -2.0016 0.9841
-1.8745 -2.9168 -2.0018 0.9841
-1.6618 -3.0433 -2.0020 0.9841
-1.3271 -3.2039 -2.0022 0.9841
-1.0952 -3.2905 -2.0023 0.9841
-0.8577 -3.3603 -2.0023 0.9841
-0.7372 -3.3888 -2.0023 0.9841
-0.6158 -3.4130 -2.0023 0.9841
-0.4936 -3.4327 -2.0023 0.9841
-0.3707 -3.4481 -2.0022 0.9841
-0.1238 -3.4656 -2.0021 0.9841
0.0000 -3.4677 -2.0021 0.9841
0.2474 -3.4585 -2.0019 0.9841
0.3706 -3.4473 -2.0018 0.9841
0.6155 -3.4117 -2.0016 0.9841
0.7369 -3.3873 -2.0014 0.9841
0.9765 -3.3256 -2.0011 0.9841
1.4393 -3.1517 -2.0004 0.9841
1.6602 -3.0404 -2.0000 0.9841
1.7674 -2.9788 -1.9998 0.9841
1.9750 -2.8445 -1.9993 0.9841
2.0750 -2.7719 -1.9991 0.9841
2.2669 -2.6161 -1.9986 0.9841
2.5325 -2.3578 -1.9978 0.9841
2.6935 -2.1705 -1.9972 0.9841
3.0338 -1.6566 -1.9957 0.9842
3.1433 -1.4355 -1.9950 0.9842
3.2771 -1.0907 -1.9941 0.9842
3.3134 -0.9729 -1.9938 0.9842
3.3455 -0.8539 -1.9934 0.9842
3.3968 -0.6128 -1.9928 0.9842
3.4160 -0.4912 -1.9925 0.9842
3.4412 -0.2461 -1.9918 0.9842
