ply
format ascii 1.0
element vertex 774
property float32 x
property float32 y
property float32 z
property float32 I
end_header
-4.5795 8.3868 1.6849 0.9619
-4.5795 8.3867 1.2443 0.9622
-4.5794 8.3866 1.0261 0.9623
-4.5793 8.3864 0.5925 0.9624
-4.5792 8.3863 0.3768 0.9625
-4.5791 8.3861 -0.0538 0.9625
-4.5791 8.3860 -0.2690 0.9625
-4.5790 8.3859 -0.4846 0.9625
-4.5790 8.3858 -0.7006 0.9624
-4.5789 8.3856 -0.9173 0.9623
-3.7671 3.7671 -0.5115 0.9788
-4.0294 3.2471 -0.4968 0.9794
-3.1751 3.9401 -0.6011 0.9798
-3.1564 3.6427 -0.5726 0.9808
-3.1834 3.4193 -0.5549 0.9814
-3.2979 3.0704 -0.5352 0.9820
-3.3679 2.9183 -0.5294 0.9822
-3.5602 2.8690 -0.5431 0.9818
-4.0263 2.7955 -0.5822 0.9804
-4.3237 2.7787 -0.6105 0.9795
-4.7042 2.7911 -0.6498 0.9782
-4.5382 8.3111 -1.3417 0.9625
-2.8343 3.7862 -0.6701 0.9811
-2.9016 3.3486 -0.6278 0.9823
-2.9659 3.1856 -0.6167 0.9826
-3.1176 2.9026 -0.6036 0.9829
-3.2846 2.8461 -0.6158 0.9826
-3.4709 2.7970 -0.6316 0.9822
-3.9103 2.7150 -0.6745 0.9810
-4.9387 2.6967 -0.7973 0.9775
-5.4069 2.7065 -0.8567 0.9759
-4.5274 8.2912 -1.5563 0.9624
-2.6343 3.5190 -0.7242 0.9823
-2.6795 3.3251 -0.7035 0.9828
-2.7279 3.1482 -0.6862 0.9833
-3.3880 2.7302 -0.7168 0.9825
-3.8135 2.6478 -0.7648 0.9814
-4.3749 2.5958 -0.8380 0.9796
-5.0256 2.5156 -0.9258 0.9775
5.7325 7.6578 -1.7980 0.9618
5.4450 7.8422 -1.7945 0.9619
4.8720 8.2112 -1.7946 0.9619
4.5762 8.3806 -1.7948 0.9619
3.9677 8.6880 -1.7952 0.9619
3.0182 9.0681 -1.7964 0.9618
2.3649 9.2657 -1.7974 0.9618
2.0334 9.3474 -1.7980 0.9618
1.6991 9.4175 -1.7987 0.9618
1.3624 9.4759 -1.7994 0.9618
0.6835 9.5574 -1.8010 0.9618
0.0000 9.5914 -1.8028 0.9617
-0.3425 9.5904 -1.8038 0.9617
-0.6850 9.5775 -1.8048 0.9617
-1.0270 9.5527 -1.8059 0.9617
-1.3682 9.5158 -1.8070 0.9616
-2.0462 9.4062 -1.8094 0.9616
-3.0465 9.1532 -1.8132 0.9615
-3.6973 8.9261 -1.8160 0.9614
-4.3316 8.6535 -1.8189 0.9614
-4.5165 8.2713 -1.7714 0.9624
-2.4014 3.7367 -0.8349 0.9821
-2.4495 3.5279 -0.8073 0.9827
-2.5033 3.3440 -0.7851 0.9831
-2.5572 3.1734 -0.7660 0.9835
-2.6846 2.8835 -0.7405 0.9841
-2.8262 2.8262 -0.7513 0.9839
-3.3198 2.6753 -0.8014 0.9828
-3.5216 2.6363 -0.8269 0.9823
-4.5161 2.4660 -0.9672 0.9793
-4.8547 2.4301 -1.0204 0.9781
-5.4127 2.4719 -1.1185 0.9761
9.2374 0.9931 -1.9639 0.9627
9.1904 1.3214 -1.9627 0.9628
8.8889 2.6100 -1.9583 0.9628
8.5466 3.5401 -1.9554 0.9629
8.2654 4.1373 -1.9538 0.9629
8.1093 4.4280 -1.9531 0.9629
7.7675 4.9919 -1.9517 0.9630
7.3874 5.5301 -1.9506 0.9630
7.1835 5.7888 -1.9501 0.9630
6.9708 6.0403 -1.9497 0.9630
6.7495 6.2840 -1.9493 0.9630
6.5199 6.5199 -1.9490 0.9630
6.2822 6.7476 -1.9488 0.9630
6.0367 6.9668 -1.9486 0.9630
5.7833 7.1767 -1.9483 0.9630
5.2428 7.5510 -1.9431 0.9631
4.6100 7.7696 -1.9097 0.9637
4.2652 7.8111 -1.8812 0.9643
2.9774 7.9826 -1.8009 0.9658
2.4014 8.1785 -1.8017 0.9658
2.1086 8.2612 -1.8022 0.9657
1.5148 8.3959 -1.8034 0.9657
1.2146 8.4476 -1.8040 0.9657
0.6093 8.5195 -1.8054 0.9657
0.3050 8.5395 -1.8062 0.9657
0.0000 8.5488 -1.8070 0.9657
-0.6105 8.5355 -1.8088 0.9656
-0.9152 8.5128 -1.8098 0.9656
-1.5219 8.4353 -1.8118 0.9656
-3.0049 8.0565 -1.8176 0.9655
-3.3183 8.0111 -1.8329 0.9652
-2.0393 3.7347 -0.8995 0.9828
-2.1998 3.4229 -0.8601 0.9835
-2.4493 3.0395 -0.8251 0.9842
-3.6674 2.5464 -0.9438 0.9819
-4.1658 2.4717 -1.0239 0.9804
-4.7802 2.3928 -1.1300 0.9784
-5.2461 2.3958 -1.2191 0.9767
-9.2166 2.3524 -2.0107 0.9619
-9.3020 2.0235 -2.0122 0.9618
-9.3755 1.6916 -2.0138 0.9618
-9.5492 0.3411 -2.0198 0.9617
8.3835 0.0000 -1.9703 0.9661
8.3208 0.8946 -1.9669 0.9662
8.2790 1.1904 -1.9658 0.9662
8.2269 1.4843 -1.9647 0.9662
8.1644 1.7761 -1.9637 0.9663
8.0918 2.0653 -1.9627 0.9663
7.8140 2.9145 -1.9601 0.9663
7.4490 3.7287 -1.9578 0.9664
7.3087 3.9908 -1.9571 0.9664
7.0011 4.4993 -1.9559 0.9664
6.8342 4.7451 -1.9554 0.9664
6.6588 4.9847 -1.9549 0.9664
6.2836 5.4448 -1.9541 0.9664
6.0843 5.6647 -1.9538 0.9664
5.4420 6.2804 -1.9531 0.9664
5.2140 6.4702 -1.9529 0.9664
4.2401 7.1463 -1.9529 0.9664
3.9826 7.2936 -1.9531 0.9664
3.7192 7.4299 -1.9528 0.9664
3.4492 7.5526 -1.9514 0.9665
2.3347 7.9511 -1.9476 0.9665
2.0370 7.9810 -1.9359 0.9667
1.4456 8.0125 -1.9135 0.9671
0.8643 8.0395 -1.9004 0.9673
0.5757 8.0496 -1.8967 0.9674
0.0000 8.0596 -1.8942 0.9674
-1.4534 8.0557 -1.9238 0.9669
-1.7513 8.0507 -1.9364 0.9667
-2.6379 7.9258 -1.9632 0.9663
-1.5312 4.1053 -1.0298 0.9822
-1.5803 3.8151 -0.9705 0.9832
-1.6807 3.6802 -0.9508 0.9835
-1.7792 3.5545 -0.9342 0.9838
-1.8770 3.4375 -0.9205 0.9840
-1.9702 3.3206 -0.9074 0.9843
-2.0627 3.2096 -0.8967 0.9844
-2.1546 3.1032 -0.8879 0.9846
-2.3440 2.9087 -0.8780 0.9848
-2.4574 2.8360 -0.8819 0.9847
-2.5592 2.7488 -0.8827 0.9847
-3.0281 2.6239 -0.9417 0.9837
-3.3967 2.5427 -0.9972 0.9827
-3.6168 2.5113 -1.0348 0.9821
-4.9499 2.4777 -1.3009 0.9775
-8.1959 2.4066 -2.0075 0.9655
-8.2825 2.1140 -2.0090 0.9655
-8.3585 1.8183 -2.0104 0.9655
-8.5226 0.9163 -2.0145 0.9654
-8.5555 0.6119 -2.0159 0.9654
7.6182 0.0000 -1.9725 0.9690
7.6092 0.2718 -1.9714 0.9690
7.5906 0.5429 -1.9704 0.9690
7.5625 0.8131 -1.9693 0.9691
7.4778 1.3491 -1.9674 0.9691
7.4214 1.6144 -1.9665 0.9691
7.2809 2.1379 -1.9647 0.9691
6.0553 4.5329 -1.9584 0.9692
5.8885 4.7452 -1.9581 0.9692
5.3450 5.3450 -1.9572 0.9692
5.1503 5.5318 -1.9569 0.9693
4.7418 5.8843 -1.9567 0.9693
4.5286 6.0496 -1.9566 0.9693
3.8562 6.4992 -1.9567 0.9693
3.1401 6.8759 -1.9572 0.9692
2.3883 7.1755 -1.9581 0.9692
2.1311 7.2577 -1.9585 0.9692
1.8711 7.3308 -1.9589 0.9692
1.3440 7.4494 -1.9599 0.9692
0.8096 7.5309 -1.9611 0.9692
0.5405 7.5575 -1.9618 0.9692
0.2705 7.5746 -1.9625 0.9692
-0.2707 7.5805 -1.9640 0.9691
-0.5413 7.5691 -1.9648 0.9691
-0.8115 7.5482 -1.9656 0.9691
-1.3492 7.4780 -1.9674 0.9691
-2.1440 7.3019 -1.9704 0.9690
-1.2969 3.8965 -1.0633 0.9832
-1.3776 3.6935 -1.0207 0.9838
-1.4647 3.5362 -0.9910 0.9843
-1.5535 3.4017 -0.9682 0.9847
-1.7549 3.2139 -0.9481 0.9850
-1.8532 3.1234 -0.9403 0.9851
-1.9497 3.0338 -0.9337 0.9852
-2.0420 2.9410 -0.9270 0.9853
-2.4051 2.7756 -0.9509 0.9849
-2.6244 2.4434 -0.9284 0.9853
-3.1619 2.5480 -1.0514 0.9834
-3.8507 2.4747 -1.1852 0.9813
-4.7606 2.3830 -1.3784 0.9782
-5.1454 2.3498 -1.4646 0.9769
-7.1447 2.9594 -2.0023 0.9686
-7.3474 2.4455 -2.0050 0.9685
-7.6403 1.3785 -2.0102 0.9684
-7.6894 1.1056 -2.0114 0.9684
-7.7581 0.5549 -2.0138 0.9684
6.9741 0.0000 -1.9743 0.9714
6.9240 0.7444 -1.9714 0.9715
6.5909 2.1937 -1.9665 0.9715
6.5061 2.4266 -1.9658 0.9715
6.4131 2.6564 -1.9651 0.9716
6.2034 3.1052 -1.9639 0.9716
5.5466 4.1522 -1.9614 0.9716
5.3939 4.3467 -1.9611 0.9716
4.8963 4.8963 -1.9603 0.9716
4.7180 5.0675 -1.9601 0.9716
4.1486 5.5418 -1.9597 0.9716
3.9481 5.6863 -1.9597 0.9716
3.5325 5.9537 -1.9598 0.9716
3.0992 6.1914 -1.9601 0.9716
2.8765 6.2987 -1.9603 0.9716
2.4205 6.4896 -1.9608 0.9716
1.9520 6.6480 -1.9615 0.9716
1.4734 6.7733 -1.9623 0.9716
0.9870 6.8646 -1.9633 0.9716
0.2478 6.9372 -1.9651 0.9716
-0.2479 6.9421 -1.9665 0.9715
-0.4957 6.9314 -1.9673 0.9715
-0.9898 6.8840 -1.9688 0.9715
-1.4796 6.8018 -1.9706 0.9715
-1.7223 6.7478 -1.9715 0.9715
-1.1575 3.9419 -1.1630 0.9831
-1.2164 3.6547 -1.0904 0.9841
-1.2866 3.4496 -1.0423 0.9848
-1.3788 3.3288 -1.0200 0.9851
-1.6663 3.0516 -0.9843 0.9856
-2.0894 2.7911 -0.9870 0.9856
-2.3403 2.7009 -1.0117 0.9853
-2.4727 2.6558 -1.0273 0.9850
-2.6013 2.6013 -1.0414 0.9848
-2.7698 2.5788 -1.0713 0.9844
-3.3573 2.5133 -1.1872 0.9827
-3.5860 2.4898 -1.2359 0.9820
-4.1028 2.4343 -1.3505 0.9804
-5.1479 2.3510 -1.6021 0.9767
-6.5322 2.7058 -2.0016 0.9710
-6.6287 2.4724 -2.0028 0.9710
-6.7168 2.2356 -2.0040 0.9710
-6.8674 1.7528 -2.0064 0.9710
-6.9296 1.5075 -2.0076 0.9709
-7.0276 1.0104 -2.0099 0.9709
-7.1070 0.2538 -2.0132 0.9709
6.4240 0.0000 -1.9759 0.9735
6.4169 0.2292 -1.9750 0.9735
6.3786 0.6858 -1.9732 0.9735
6.3473 0.9126 -1.9724 0.9735
6.3081 1.1381 -1.9716 0.9735
6.2610 1.3620 -1.9708 0.9735
6.1433 1.8039 -1.9693 0.9736
6.0729 2.0213 -1.9686 0.9736
5.9949 2.2360 -1.9680 0.9736
5.9094 2.4478 -1.9674 0.9736
5.8166 2.6563 -1.9668 0.9736
5.7164 2.8614 -1.9662 0.9736
5.4949 3.2603 -1.9652 0.9736
5.2461 3.6424 -1.9644 0.9736
5.1117 3.8266 -1.9640 0.9736
4.9711 4.0060 -1.9637 0.9736
4.8242 4.1802 -1.9634 0.9736
4.6713 4.3492 -1.9631 0.9736
4.5126 4.5126 -1.9629 0.9736
3.8236 5.1077 -1.9624 0.9737
3.6388 5.2408 -1.9624 0.9737
3.4494 5.3674 -1.9624 0.9737
3.2558 5.4873 -1.9625 0.9737
3.0580 5.6003 -1.9626 0.9737
2.4425 5.8967 -1.9631 0.9736
1.7990 6.1268 -1.9640 0.9736
1.5795 6.1883 -1.9644 0.9736
0.9095 6.3260 -1.9657 0.9736
0.6833 6.3561 -1.9663 0.9736
0.4562 6.3782 -1.9668 0.9736
0.2283 6.3923 -1.9674 0.9736
-0.2284 6.3965 -1.9687 0.9736
-0.4567 6.3865 -1.9694 0.9736
-0.9119 6.3424 -1.9708 0.9735
-1.1381 6.3083 -1.9716 0.9735
-1.3631 6.2662 -1.9724 0.9735
-1.5866 6.2162 -1.9733 0.9735
-1.0883 3.7064 -1.1881 0.9840
-1.1534 3.4654 -1.1234 0.9848
-1.4046 3.0755 -1.0399 0.9859
-1.7984 2.7983 -1.0231 0.9862
-2.0223 2.7015 -1.0380 0.9860
-2.1453 2.6622 -1.0516 0.9858
-2.2814 2.6329 -1.0716 0.9855
-2.5879 2.5879 -1.1257 0.9848
-2.9397 2.5473 -1.1964 0.9839
-3.1333 2.5250 -1.2377 0.9833
-3.8259 2.4588 -1.3988 0.9811
-4.0994 2.4323 -1.4661 0.9802
-4.4201 2.4136 -1.5490 0.9791
-5.9144 2.7010 -1.9999 0.9732
-6.0989 2.2748 -2.0021 0.9731
-6.3746 1.3867 -2.0065 0.9731
-6.4234 1.1589 -2.0076 0.9731
-6.4641 0.9294 -2.0086 0.9730
-6.4965 0.6985 -2.0097 0.9730
-6.5362 0.2334 -2.0117 0.9730
5.9483 0.0000 -1.9772 0.9752
5.9281 0.4240 -1.9756 0.9753
5.8419 1.0540 -1.9732 0.9753
5.7985 1.2614 -1.9725 0.9753
5.6247 1.8721 -1.9705 0.9753
5.5526 2.0710 -1.9699 0.9753
5.4735 2.2672 -1.9693 0.9753
5.3876 2.4605 -1.9688 0.9753
5.2950 2.6505 -1.9683 0.9753
5.0900 3.0201 -1.9674 0.9754
4.8597 3.3741 -1.9666 0.9754
4.7353 3.5448 -1.9662 0.9754
4.4690 3.8724 -1.9656 0.9754
4.3275 4.0290 -1.9654 0.9754
4.1805 4.1805 -1.9652 0.9754
3.7089 4.6025 -1.9648 0.9754
3.5422 4.7318 -1.9648 0.9754
3.0162 5.0835 -1.9648 0.9754
1.4631 5.7325 -1.9666 0.9754
1.2578 5.7821 -1.9670 0.9754
0.6330 5.8875 -1.9683 0.9753
-0.4230 5.9150 -1.9712 0.9753
-0.6341 5.8981 -1.9719 0.9753
-0.8445 5.8738 -1.9726 0.9753
-1.2623 5.8029 -1.9740 0.9753
-1.4692 5.7564 -1.9748 0.9753
-1.0528 3.5855 -1.2421 0.9844
-1.1015 3.3096 -1.1595 0.9854
-1.1783 3.1592 -1.1208 0.9859
-1.3542 2.9654 -1.0836 0.9864
-1.4470 2.8907 -1.0745 0.9865
-1.5401 2.8205 -1.0682 0.9865
-1.6399 2.7639 -1.0683 0.9865
-1.7580 2.7355 -1.0809 0.9864
-1.8826 2.7114 -1.0972 0.9862
-2.0020 2.6744 -1.1105 0.9860
-2.1268 2.6391 -1.1267 0.9858
-2.7479 2.5584 -1.2480 0.9843
-3.1260 2.5191 -1.3345 0.9832
-4.4210 2.4141 -1.6744 0.9790
-5.5601 2.3031 -2.0005 0.9750
-5.7162 1.9025 -2.0026 0.9749
-5.9406 1.0718 -2.0066 0.9749
-6.0077 0.6459 -2.0085 0.9749
-6.0298 0.4313 -2.0094 0.9748
5.5266 0.1974 -1.9776 0.9768
5.5139 0.3944 -1.9769 0.9768
5.4943 0.5907 -1.9761 0.9768
5.4677 0.7861 -1.9754 0.9768
5.3939 1.1734 -1.9740 0.9768
5.2327 1.7416 -1.9722 0.9768
5.0922 2.1093 -1.9711 0.9769
4.7358 2.8099 -1.9692 0.9769
4.0266 3.7489 -1.9674 0.9769
3.8898 3.8898 -1.9672 0.9769
3.7482 4.0259 -1.9671 0.9769
3.2960 4.4029 -1.9668 0.9769
2.9735 4.6268 -1.9668 0.9769
2.2852 5.0040 -1.9672 0.9769
1.9228 5.1553 -1.9676 0.9769
1.7378 5.2213 -1.9679 0.9769
1.5506 5.2808 -1.9682 0.9769
0.9778 5.4192 -1.9692 0.9769
0.7839 5.4518 -1.9697 0.9769
-0.1968 5.5115 -1.9722 0.9768
-0.3935 5.5026 -1.9728 0.9768
-1.3145 2.8785 -1.1316 0.9866
-1.4070 2.8107 -1.1240 0.9867
-1.5013 2.7494 -1.1202 0.9868
-1.7345 2.6990 -1.1473 0.9865
-2.7482 2.5586 -1.3428 0.9842
-3.1306 2.5228 -1.4378 0.9831
-3.3410 2.5011 -1.4924 0.9824
-3.5728 2.4806 -1.5554 0.9817
-4.0960 2.4303 -1.7032 0.9800
-5.1671 2.1403 -2.0000 0.9765
-5.3117 1.7679 -2.0020 0.9765
-5.4780 1.1917 -2.0048 0.9765
-5.5541 0.7986 -2.0066 0.9764
-5.5815 0.6001 -2.0075 0.9764
-5.6018 0.4007 -2.0084 0.9764
-5.6149 0.2005 -2.0092 0.9764
5.1601 0.1843 -1.9787 0.9781
5.1484 0.3682 -1.9780 0.9781
5.1055 0.7341 -1.9766 0.9781
5.0743 0.9155 -1.9760 0.9782
4.9429 1.4514 -1.9742 0.9782
4.8866 1.6264 -1.9736 0.9782
4.8241 1.7993 -1.9731 0.9782
4.7556 1.9698 -1.9726 0.9782
4.4230 2.6243 -1.9709 0.9782
4.2230 2.9321 -1.9702 0.9782
4.0020 3.2250 -1.9696 0.9782
3.7608 3.5015 -1.9692 0.9782
3.6332 3.6331 -1.9690 0.9782
3.5009 3.7602 -1.9688 0.9782
3.0785 4.1124 -1.9686 0.9782
2.2997 4.5943 -1.9689 0.9782
1.2715 4.9815 -1.9702 0.9782
0.9131 5.0613 -1.9709 0.9782
0.0000 5.1488 -1.9731 0.9782
-0.1838 5.1469 -1.9736 0.9782
-0.3675 5.1385 -1.9742 0.9782
-0.5508 5.1236 -1.9748 0.9782
-0.7336 5.1023 -1.9754 0.9782
-0.9155 5.0744 -1.9760 0.9782
-1.0964 5.0402 -1.9767 0.9781
-1.2761 4.9996 -1.9773 0.9781
-1.1341 3.0405 -1.2436 0.9862
-1.2101 2.9214 -1.2118 0.9865
-1.3849 2.7667 -1.1857 0.9868
-2.1140 2.6233 -1.2911 0.9857
-2.4114 2.5901 -1.3561 0.9850
-2.7563 2.5662 -1.4432 0.9840
-2.9390 2.5467 -1.4903 0.9835
-3.5725 2.4805 -1.6667 0.9815
-4.5735 2.4973 -1.9969 0.9779
-4.6618 2.3336 -1.9978 0.9779
-4.7443 2.1667 -1.9987 0.9779
-4.8912 1.8243 -2.0005 0.9779
-4.9554 1.6493 -2.0014 0.9779
-5.0134 1.4721 -2.0023 0.9779
-5.1807 0.7449 -2.0058 0.9778
-5.2061 0.5597 -2.0066 0.9778
4.8340 0.1726 -1.9797 0.9793
4.7190 1.0266 -1.9765 0.9793
4.6780 1.1940 -1.9760 0.9793
4.6311 1.3598 -1.9754 0.9794
4.5784 1.5239 -1.9749 0.9794
4.5200 1.6859 -1.9744 0.9794
4.4559 1.8457 -1.9739 0.9794
4.3110 2.1579 -1.9731 0.9794
4.2304 2.3100 -1.9727 0.9794
4.1445 2.4590 -1.9723 0.9794
4.0534 2.6049 -1.9720 0.9794
3.9572 2.7475 -1.9717 0.9794
3.7501 3.0220 -1.9711 0.9794
3.6394 3.1536 -1.9709 0.9794
3.4046 3.4046 -1.9706 0.9794
3.2807 3.5237 -1.9704 0.9794
3.0207 3.7484 -1.9703 0.9794
2.7455 3.9542 -1.9702 0.9794
2.6026 4.0497 -1.9702 0.9794
2.4564 4.1401 -1.9703 0.9794
2.3072 4.2253 -1.9703 0.9794
2.1550 4.3052 -1.9704 0.9794
2.0001 4.3797 -1.9706 0.9794
1.6829 4.5121 -1.9709 0.9794
1.5210 4.5698 -1.9712 0.9794
1.0242 4.7082 -1.9720 0.9794
0.8557 4.7425 -1.9723 0.9794
0.5154 4.7933 -1.9731 0.9794
0.0000 4.8242 -1.9744 0.9794
-0.1722 4.8224 -1.9749 0.9794
-0.6873 4.7803 -1.9766 0.9793
-1.1955 4.6838 -1.9784 0.9793
-1.0494 3.1528 -1.3600 0.9857
-1.2004 2.8979 -1.2838 0.9865
-1.3773 2.7515 -1.2593 0.9868
-1.5923 2.6837 -1.2771 0.9866
-1.7288 2.6902 -1.3088 0.9863
-1.8368 2.6454 -1.3181 0.9862
-2.2605 2.6088 -1.4128 0.9852
-2.4170 2.5960 -1.4517 0.9848
-2.7592 2.5689 -1.5429 0.9838
-2.9404 2.5479 -1.5924 0.9833
-3.1339 2.5254 -1.6472 0.9828
-3.3425 2.5022 -1.7088 0.9821
-4.1006 2.6353 -1.9950 0.9792
-4.2819 2.3381 -1.9967 0.9791
-4.6389 1.5440 -2.0010 0.9791
-4.7832 1.0405 -2.0034 0.9791
-4.8192 0.8695 -2.0042 0.9791
-4.8491 0.6972 -2.0050 0.9790
-4.8728 0.5239 -2.0058 0.9790
-4.9014 0.1751 -2.0073 0.9790
4.5416 0.1622 -1.9806 0.9804
4.5315 0.3241 -1.9799 0.9804
4.4941 0.6462 -1.9787 0.9804
4.4668 0.8059 -1.9781 0.9804
4.4340 0.9646 -1.9776 0.9804
4.3956 1.1219 -1.9771 0.9804
4.2473 1.5842 -1.9756 0.9804
4.1871 1.7344 -1.9752 0.9804
4.0510 2.0278 -1.9743 0.9804
3.9753 2.1707 -1.9740 0.9804
3.8091 2.4479 -1.9733 0.9804
3.6237 2.7127 -1.9728 0.9804
3.4202 2.9636 -1.9723 0.9804
2.9628 3.4192 -1.9718 0.9805
2.7112 3.6217 -1.9716 0.9805
2.4459 3.8059 -1.9717 0.9805
2.1683 3.9709 -1.9718 0.9805
2.0253 4.0460 -1.9719 0.9805
1.5816 4.2403 -1.9723 0.9804
1.4293 4.2945 -1.9725 0.9804
1.2753 4.3433 -1.9728 0.9804
0.9625 4.4244 -1.9733 0.9804
0.8041 4.4567 -1.9737 0.9804
0.6446 4.4833 -1.9740 0.9804
0.4843 4.5043 -1.9744 0.9804
0.1618 4.5293 -1.9752 0.9804
-0.9651 4.4366 -1.9788 0.9804
-1.0420 3.1308 -1.4380 0.9857
-1.1906 2.8744 -1.3559 0.9865
-1.2771 2.7966 -1.3399 0.9867
-1.7079 2.6575 -1.3767 0.9863
-1.8378 2.6469 -1.4043 0.9860
-1.9724 2.6348 -1.4344 0.9857
-2.1123 2.6212 -1.4671 0.9854
-2.5849 2.5850 -1.5932 0.9842
-2.9353 2.5434 -1.6927 0.9832
-3.5599 2.8687 -1.9925 0.9802
-3.6615 2.7410 -1.9933 0.9802
-3.7585 2.6096 -1.9941 0.9802
-3.8508 2.4748 -1.9949 0.9802
-3.9383 2.3367 -1.9957 0.9802
-4.0208 2.1955 -1.9966 0.9802
-4.1705 1.9046 -1.9982 0.9802
-1.5118 0.5639 -0.7032 0.9930
-1.3722 0.4029 -0.6233 0.9938
-1.3688 0.2978 -0.6105 0.9939
-1.4180 0.2039 -0.6244 0.9938
-1.4490 0.1036 -0.6331 0.9937
4.2818 0.0000 -1.9820 0.9813
4.2683 0.3053 -1.9808 0.9813
4.2534 0.4573 -1.9802 0.9813
4.2332 0.6087 -1.9796 0.9813
4.2076 0.7592 -1.9791 0.9813
4.1406 1.0568 -1.9781 0.9813
4.0011 1.4923 -1.9767 0.9814
3.8829 1.7732 -1.9759 0.9814
3.8164 1.9104 -1.9755 0.9814
3.7451 2.0450 -1.9751 0.9814
3.6691 2.1770 -1.9748 0.9814
3.5035 2.4325 -1.9743 0.9814
3.4140 2.5557 -1.9740 0.9814
3.2223 2.7921 -1.9736 0.9814
3.0144 3.0144 -1.9733 0.9814
2.9047 3.1199 -1.9731 0.9814
2.7913 3.2214 -1.9731 0.9814
2.5543 3.4121 -1.9729 0.9814
2.4309 3.5011 -1.9729 0.9814
2.1750 3.6657 -1.9730 0.9814
1.7709 3.8778 -1.9733 0.9814
1.3466 4.0459 -1.9738 0.9814
1.0548 4.1327 -1.9743 0.9814
0.9067 4.1682 -1.9745 0.9814
0.7575 4.1986 -1.9748 0.9814
0.6073 4.2236 -1.9752 0.9814
0.4562 4.2434 -1.9755 0.9814
0.3045 4.2578 -1.9759 0.9814
0.1524 4.2668 -1.9763 0.9814
0.0000 4.2704 -1.9767 0.9814
-0.1524 4.2686 -1.9771 0.9813
-0.6083 4.2310 -1.9786 0.9813
-0.9944 3.3868 -1.6339 0.9846
-1.7087 2.6588 -1.4629 0.9862
-1.8388 2.6484 -1.4924 0.9859
-1.9734 2.6361 -1.5242 0.9856
-2.1129 2.6220 -1.5587 0.9853
-3.3518 2.7011 -1.9926 0.9812
-3.8582 1.9313 -1.9972 0.9812
-3.9262 1.7930 -1.9979 0.9812
-1.2345 0.5114 -0.6185 0.9941
-1.1330 0.3327 -0.5466 0.9948
-1.1575 0.2954 -0.5529 0.9947
-1.1974 0.2160 -0.5632 0.9947
-1.2362 0.0884 -0.5737 0.9946
4.0419 0.0000 -1.9826 0.9822
4.0153 0.4317 -1.9810 0.9822
3.9963 0.5746 -1.9804 0.9822
3.9722 0.7167 -1.9799 0.9822
3.9431 0.8578 -1.9794 0.9822
3.9090 0.9977 -1.9789 0.9822
3.8262 1.2735 -1.9781 0.9822
3.7775 1.4089 -1.9776 0.9822
3.7241 1.5426 -1.9773 0.9822
3.6660 1.6742 -1.9769 0.9822
3.5360 1.9308 -1.9762 0.9822
3.4643 2.0554 -1.9759 0.9822
3.3882 2.1775 -1.9756 0.9822
3.2234 2.4130 -1.9751 0.9822
3.1349 2.5263 -1.9749 0.9822
2.6357 3.0417 -1.9742 0.9822
2.5253 3.1337 -1.9742 0.9822
2.4118 3.2218 -1.9741 0.9822
2.2953 3.3058 -1.9741 0.9822
2.0537 3.4612 -1.9742 0.9822
1.4069 3.7720 -1.9747 0.9822
0.8561 3.9356 -1.9756 0.9822
0.5733 3.9878 -1.9762 0.9822
0.2875 4.0199 -1.9769 0.9822
-0.5743 3.9943 -1.9794 0.9822
-0.7167 3.9723 -1.9799 0.9822
-0.9987 3.9131 -1.9810 0.9822
-1.0292 3.0922 -1.5986 0.9856
-1.1834 2.8569 -1.5168 0.9863
-1.3633 2.7235 -1.4939 0.9865
-1.5837 2.6692 -1.5224 0.9863
-1.7094 2.6598 -1.5509 0.9860
-1.8399 2.6499 -1.5824 0.9857
-2.2655 2.6146 -1.6970 0.9847
-3.0690 2.6593 -1.9920 0.9821
-3.1631 2.5490 -1.9927 0.9821
-3.3393 2.3186 -1.9941 0.9821
-3.4987 2.0759 -1.9956 0.9820
-3.5719 1.9504 -1.9963 0.9820
-1.0444 0.4770 -0.5632 0.9949
-1.0290 0.4262 -0.5463 0.9951
-1.0119 0.3774 -0.5298 0.9952
-1.0175 0.2988 -0.5202 0.9953
-1.0307 0.2631 -0.5218 0.9953
-1.0422 0.2267 -0.5232 0.9953
-1.0518 0.1898 -0.5242 0.9952
-1.0769 0.0771 -0.5296 0.9952
-1.0803 0.0386 -0.5302 0.9952
3.7573 0.6779 -1.9807 0.9829
3.6194 1.2046 -1.9789 0.9830
3.5229 1.4592 -1.9782 0.9830
3.4679 1.5838 -1.9778 0.9830
3.2772 1.9445 -1.9769 0.9830
3.2053 2.0599 -1.9766 0.9830
3.1293 2.1727 -1.9764 0.9830
3.0495 2.2828 -1.9761 0.9830
2.8783 2.4940 -1.9758 0.9830
2.5947 2.7869 -1.9754 0.9830
2.4934 2.8776 -1.9753 0.9830
2.0585 3.2030 -1.9752 0.9830
1.9429 3.2745 -1.9752 0.9830
1.8248 3.3419 -1.9753 0.9830
1.7044 3.4050 -1.9754 0.9830
1.4573 3.5183 -1.9756 0.9830
1.3309 3.5684 -1.9758 0.9830
1.2028 3.6139 -1.9760 0.9830
0.9422 3.6913 -1.9764 0.9830
0.6766 3.7501 -1.9769 0.9830
0.5424 3.7724 -1.9772 0.9830
0.2720 3.8028 -1.9778 0.9830
0.1361 3.8107 -1.9782 0.9830
0.0000 3.8139 -1.9786 0.9830
-0.1362 3.8122 -1.9789 0.9830
-0.2722 3.8057 -1.9794 0.9830
-0.4079 3.7944 -1.9798 0.9830
-0.6756 3.7447 -1.9740 0.9830
-1.0948 2.9353 -1.6253 0.9860
-1.1795 2.8477 -1.5990 0.9862
-1.3625 2.7220 -1.5791 0.9864
-1.8402 2.6503 -1.6738 0.9856
-1.9740 2.6369 -1.7088 0.9853
-2.5113 2.8982 -1.9894 0.9829
-2.8095 2.6157 -1.9914 0.9829
-2.9910 2.4103 -1.9928 0.9828
-3.0761 2.3028 -1.9934 0.9828
-3.1574 2.1923 -1.9941 0.9828
-3.3080 1.9628 -1.9955 0.9828
-0.9486 0.5180 -0.5607 0.9951
-0.9416 0.4713 -0.5463 0.9953
-0.9271 0.3840 -0.5206 0.9955
-0.9207 0.3434 -0.5098 0.9956
-0.9268 0.3085 -0.5067 0.9956
-0.9715 0.1753 -0.5121 0.9956
-0.9785 0.1407 -0.5129 0.9956
-0.9838 0.1058 -0.5133 0.9956
-0.9873 0.0706 -0.5135 0.9955
-0.9893 0.0353 -0.5135 0.9955
3.6221 0.0000 -1.9838 0.9836
3.6188 0.1293 -1.9833 0.9836
3.5816 0.5150 -1.9818 0.9836
3.5601 0.6423 -1.9814 0.9836
3.5342 0.7688 -1.9809 0.9836
3.4689 1.0185 -1.9801 0.9836
3.4296 1.1415 -1.9797 0.9837
3.3382 1.3827 -1.9790 0.9837
3.0374 1.9520 -1.9775 0.9837
2.8898 2.1633 -1.9771 0.9837
2.5517 2.5517 -1.9765 0.9837
2.4589 2.6410 -1.9764 0.9837
2.3629 2.7270 -1.9763 0.9837
1.9507 3.0354 -1.9762 0.9837
1.8412 3.1031 -1.9762 0.9837
1.7293 3.1669 -1.9763 0.9837
1.3811 3.3342 -1.9766 0.9837
1.1399 3.4247 -1.9769 0.9837
0.8928 3.4980 -1.9773 0.9837
0.5140 3.5748 -1.9781 0.9837
0.2577 3.6035 -1.9787 0.9837
-0.3865 3.5954 -1.9805 0.9836
-0.5147 3.5801 -1.9810 0.9836
-0.6423 3.5602 -1.9814 0.9836
-0.7692 3.5358 -1.9819 0.9836
-0.8951 3.5070 -1.9823 0.9836
-1.0199 3.4736 -1.9828 0.9836
-1.1436 3.4359 -1.9833 0.9836
-1.1773 2.8424 -1.6850 0.9861
-1.2662 2.7725 -1.6694 0.9862
-1.5830 2.8990 -1.8091 0.9850
-1.7096 2.6603 -1.7320 0.9857
-1.8395 2.6493 -1.7665 0.9854
-1.9735 2.6363 -1.8036 0.9851
-2.1129 2.6220 -1.8443 0.9848
-2.4762 2.6596 -1.9903 0.9836
-2.9907 2.0765 -1.9941 0.9835
-3.0639 1.9691 -1.9948 0.9835
-0.8524 0.5058 -0.5429 0.9955
-0.8507 0.4645 -0.5309 0.9956
-0.8516 0.4263 -0.5216 0.9957
-0.8479 0.3512 -0.5027 0.9958
-0.8465 0.3157 -0.4948 0.9959
-0.8603 0.2863 -0.4966 0.9959
-0.8727 0.2563 -0.4982 0.9959
-0.8837 0.2256 -0.4995 0.9958
-0.8932 0.1943 -0.5006 0.9958
-0.9077 0.1305 -0.5022 0.9958
-0.9161 0.0655 -0.5030 0.9958
3.4266 0.2451 -1.9834 0.9843
3.3988 0.4887 -1.9825 0.9843
3.3784 0.6096 -1.9820 0.9843
3.3538 0.7296 -1.9816 0.9843
3.3250 0.8487 -1.9812 0.9843
3.2919 0.9666 -1.9808 0.9843
3.2547 1.0833 -1.9805 0.9843
3.2134 1.1985 -1.9801 0.9843
3.1680 1.3123 -1.9798 0.9843
3.1187 1.4243 -1.9795 0.9843
3.0654 1.5344 -1.9792 0.9843
3.0083 1.6426 -1.9789 0.9843
2.8827 1.8526 -1.9784 0.9843
2.8144 1.9541 -1.9782 0.9843
2.6673 2.1495 -1.9778 0.9843
2.5887 2.2431 -1.9776 0.9843
2.5068 2.3339 -1.9775 0.9843
2.4218 2.4218 -1.9774 0.9843
1.6412 3.0057 -1.9772 0.9843
1.4228 3.1154 -1.9774 0.9843
0.9652 3.2872 -1.9780 0.9843
0.6085 3.3726 -1.9786 0.9843
0.3664 3.4084 -1.9792 0.9843
0.0000 3.4297 -1.9801 0.9843
-0.2448 3.4222 -1.9808 0.9843
-0.4885 3.3974 -1.9816 0.9843
-0.9679 3.2962 -1.9834 0.9843
-1.0851 3.2604 -1.9839 0.9843
-1.2011 3.2204 -1.9844 0.9843
-1.3156 3.1762 -1.9849 0.9842
-1.7092 2.6596 -1.8253 0.9855
-2.1620 2.6829 -1.9893 0.9842
-2.3493 2.5233 -1.9905 0.9842
-2.5248 2.3507 -1.9917 0.9842
-2.6079 2.2598 -1.9923 0.9842
-2.6877 2.1659 -1.9929 0.9842
-2.7642 2.0692 -1.9935 0.9842
-0.7696 0.4946 -0.5282 0.9958
-0.7787 0.4252 -0.5122 0.9959
-0.7796 0.3229 -0.4872 0.9961
-0.7887 0.2942 -0.4860 0.9961
-0.8014 0.2667 -0.4876 0.9961
-0.8230 0.2101 -0.4904 0.9961
-0.8318 0.1810 -0.4915 0.9961
-0.8453 0.1216 -0.4930 0.9961
-0.8499 0.0914 -0.4935 0.9961
-0.8530 0.0610 -0.4938 0.9961
-0.8548 0.0305 -0.4938 0.9961
