ply
format ascii 1.0
element vertex 706
property float32 x
property float32 y
property float32 z
property float32 I
end_header
-9.2370 0.0000 -1.9525 0.9629
-9.2354 -0.3298 -1.9534 0.9629
-9.2223 -0.6596 -1.9544 0.9629
-9.1615 -1.3172 -1.9565 0.9629
-9.1137 -1.6443 -1.9576 0.9628
-8.9019 -2.6138 -1.9611 0.9628
-8.5886 -3.5575 -1.9650 0.9627
-6.8559 -6.3830 -1.9801 0.9624
-6.1495 -7.0969 -1.9850 0.9623
-5.6370 -7.5301 -1.9883 0.9623
-4.5232 -8.2835 -1.9950 0.9621
-3.9273 -8.5996 -1.9984 0.9621
-2.9929 -8.9924 -2.0033 0.9620
-2.0194 -9.2832 -2.0082 0.9619
-1.6881 -9.3567 -2.0098 0.9619
-1.3541 -9.4183 -2.0113 0.9618
-0.6798 -9.5053 -2.0144 0.9618
-0.3404 -9.5305 -2.0158 0.9618
0.6818 -9.5323 -2.0201 0.9617
1.0222 -9.5082 -2.0214 0.9617
1.3618 -9.4719 -2.0227 0.9616
2.0366 -9.3621 -2.0252 0.9616
2.3709 -9.2889 -2.0264 0.9616
2.7024 -9.2035 -2.0276 0.9615
3.6764 -8.8757 -2.0307 0.9615
4.3041 -8.5986 -2.0326 0.9615
5.4922 -7.9103 -2.0356 0.9614
5.7728 -7.7115 -2.0362 0.9614
6.0460 -7.5026 -2.0368 0.9614
6.3115 -7.2839 -2.0373 0.9614
6.8178 -6.8178 -2.0381 0.9613
7.5103 -6.0522 -2.0388 0.9613
7.7220 -5.7806 -2.0390 0.9613
8.2957 -4.9221 -2.0390 0.9613
8.4656 -4.6226 -2.0388 0.9613
8.6244 -4.3171 -2.0387 0.9613
9.0324 -3.3689 -2.0377 0.9614
9.1449 -3.0437 -2.0373 0.9614
9.2455 -2.7147 -2.0368 0.9614
9.4742 -1.7093 -2.0350 0.9614
9.5649 -1.0283 -2.0335 0.9614
9.5915 -0.6860 -2.0326 0.9614
9.6057 -0.3431 -2.0317 0.9615
-8.3221 -0.2972 -1.9571 0.9664
-8.2872 -0.8910 -1.9589 0.9663
-8.2542 -1.1868 -1.9599 0.9663
-8.0928 -2.0656 -1.9630 0.9663
-8.0185 -2.3544 -1.9641 0.9662
-7.9339 -2.6407 -1.9652 0.9662
-7.3621 -4.0200 -1.9714 0.9661
-7.2188 -4.2831 -1.9727 0.9661
-6.7336 -5.0407 -1.9769 0.9660
-6.5541 -5.2816 -1.9783 0.9660
-6.3660 -5.5162 -1.9797 0.9660
-6.1696 -5.7441 -1.9811 0.9660
-5.7526 -6.1787 -1.9841 0.9659
-5.3051 -6.5832 -1.9871 0.9659
-5.0706 -6.7734 -1.9886 0.9658
-4.5814 -7.1287 -1.9916 0.9658
-3.8017 -7.5949 -1.9961 0.9657
-3.5309 -7.7315 -1.9976 0.9657
-2.9747 -7.9756 -2.0006 0.9656
-2.6902 -8.0827 -2.0021 0.9656
-2.4017 -8.1795 -2.0035 0.9656
-2.1098 -8.2660 -2.0050 0.9656
-1.8147 -8.3420 -2.0064 0.9655
-1.5169 -8.4074 -2.0078 0.9655
-0.6107 -8.5389 -2.0120 0.9654
-0.3058 -8.5609 -2.0133 0.9654
-0.0000 -8.5719 -2.0146 0.9654
0.3061 -8.5719 -2.0159 0.9654
0.6123 -8.5608 -2.0171 0.9653
0.9180 -8.5386 -2.0183 0.9653
2.1285 -8.3395 -2.0228 0.9653
3.8630 -7.7173 -2.0283 0.9652
4.1375 -7.5773 -2.0290 0.9651
4.6707 -7.2677 -2.0304 0.9651
4.9286 -7.0985 -2.0310 0.9651
5.1802 -6.9199 -2.0316 0.9651
5.4252 -6.7323 -2.0321 0.9651
5.6633 -6.5358 -2.0325 0.9651
5.8941 -6.3307 -2.0329 0.9651
6.3326 -5.8959 -2.0335 0.9651
6.7384 -5.4302 -2.0339 0.9651
6.9283 -5.1865 -2.0340 0.9651
7.1092 -4.9360 -2.0341 0.9651
7.2809 -4.6792 -2.0341 0.9651
7.4431 -4.4162 -2.0340 0.9651
7.5955 -4.1475 -2.0339 0.9651
7.7381 -3.8734 -2.0338 0.9651
7.9928 -3.3107 -2.0333 0.9651
8.1045 -3.0228 -2.0329 0.9651
8.2057 -2.7311 -2.0325 0.9651
8.2961 -2.4360 -2.0321 0.9651
8.5842 -0.9229 -2.0291 0.9651
8.6085 -0.6157 -2.0284 0.9652
8.6216 -0.3079 -2.0276 0.9652
-7.5336 -0.8099 -1.9618 0.9692
-7.4634 -1.3465 -1.9636 0.9692
-7.4141 -1.6129 -1.9645 0.9691
-7.2103 -2.3998 -1.9676 0.9691
-6.9241 -3.1621 -1.9709 0.9690
-6.5581 -3.8911 -1.9744 0.9690
-5.9527 -4.7970 -1.9794 0.9689
-5.6027 -5.2163 -1.9820 0.9689
-4.8163 -5.9767 -1.9874 0.9688
-4.6031 -6.1490 -1.9888 0.9688
-4.3837 -6.3137 -1.9901 0.9687
-3.6913 -6.7601 -1.9943 0.9687
-3.4500 -6.8923 -1.9956 0.9687
-2.9536 -7.1305 -1.9983 0.9686
-2.6990 -7.2363 -1.9997 0.9686
-2.1788 -7.4203 -2.0024 0.9686
-1.6460 -7.5667 -2.0050 0.9685
-1.3758 -7.6255 -2.0063 0.9685
-1.1034 -7.6746 -2.0075 0.9685
-0.8293 -7.7139 -2.0088 0.9685
-0.2773 -7.7628 -2.0112 0.9684
0.8322 -7.7407 -2.0158 0.9683
1.1086 -7.7101 -2.0168 0.9683
1.9292 -7.5587 -2.0198 0.9683
2.4658 -7.4084 -2.0216 0.9683
2.7298 -7.3187 -2.0225 0.9682
3.2475 -7.1109 -2.0241 0.9682
3.5004 -6.9930 -2.0248 0.9682
3.9930 -6.7298 -2.0261 0.9682
5.1307 -5.9212 -2.0286 0.9681
5.5419 -5.5419 -2.0292 0.9681
5.7369 -5.3412 -2.0295 0.9681
6.5958 -4.2388 -2.0300 0.9681
6.7427 -4.0006 -2.0300 0.9681
6.8808 -3.7572 -2.0299 0.9681
7.1301 -3.2562 -2.0295 0.9681
7.2409 -2.9993 -2.0293 0.9681
7.3423 -2.7385 -2.0290 0.9681
7.4340 -2.4743 -2.0286 0.9681
7.5885 -1.9368 -2.0278 0.9682
7.7034 -1.3898 -2.0267 0.9682
7.7458 -1.1137 -2.0262 0.9682
7.8005 -0.5579 -2.0248 0.9682
7.8126 -0.2790 -2.0241 0.9682
-6.9309 0.0000 -1.9621 0.9716
-6.9289 -0.2475 -1.9628 0.9716
-6.6722 -1.9591 -1.9686 0.9715
-6.3382 -2.8946 -1.9726 0.9714
-5.4470 -4.3895 -1.9804 0.9713
-5.1262 -4.7727 -1.9828 0.9713
-4.9556 -4.9556 -1.9840 0.9713
-4.7785 -5.1325 -1.9852 0.9713
-4.4057 -5.4672 -1.9877 0.9712
-3.8032 -5.9179 -1.9915 0.9712
-3.3756 -6.1819 -1.9940 0.9711
-3.1548 -6.3024 -1.9952 0.9711
-2.9296 -6.4150 -1.9965 0.9711
-2.2312 -6.7038 -2.0002 0.9711
-1.9917 -6.7833 -2.0014 0.9710
-1.7494 -6.8542 -2.0026 0.9710
-1.5046 -6.9164 -2.0038 0.9710
-1.2575 -6.9698 -2.0049 0.9710
-1.0085 -7.0143 -2.0061 0.9710
-0.5061 -7.0763 -2.0084 0.9709
-0.2534 -7.0937 -2.0095 0.9709
0.0000 -7.1020 -2.0105 0.9709
0.7603 -7.0721 -2.0136 0.9709
2.0084 -6.8402 -2.0182 0.9708
2.2522 -6.7668 -2.0190 0.9708
3.4238 -6.2703 -2.0225 0.9707
4.8758 -5.2370 -2.0256 0.9707
5.0603 -5.0603 -2.0259 0.9707
5.2383 -4.8770 -2.0261 0.9707
5.5738 -4.4916 -2.0265 0.9707
5.8804 -4.0828 -2.0266 0.9707
6.0224 -3.8704 -2.0266 0.9707
6.4008 -3.2040 -2.0263 0.9707
6.5105 -2.9732 -2.0262 0.9707
6.8633 -2.0153 -2.0250 0.9707
6.9866 -1.5198 -2.0241 0.9707
7.0347 -1.2692 -2.0236 0.9707
-6.3865 0.0000 -1.9644 0.9736
-6.3745 -0.4559 -1.9657 0.9736
-6.3564 -0.6834 -1.9664 0.9736
-6.3303 -0.9102 -1.9671 0.9736
-6.2542 -1.3605 -1.9687 0.9736
-6.2043 -1.5836 -1.9695 0.9736
-6.1465 -1.8048 -1.9703 0.9735
-5.9265 -2.4548 -1.9731 0.9735
-5.8379 -2.6661 -1.9740 0.9735
-5.7419 -2.8742 -1.9750 0.9735
-5.5278 -3.2798 -1.9770 0.9735
-5.2853 -3.6697 -1.9791 0.9734
-5.1538 -3.8581 -1.9801 0.9734
-4.5624 -4.5624 -1.9846 0.9734
-4.2301 -4.8818 -1.9868 0.9733
-4.0555 -5.0325 -1.9880 0.9733
-3.1065 -5.6891 -1.9937 0.9732
-2.4848 -5.9989 -1.9972 0.9732
-2.2704 -6.0872 -1.9983 0.9732
-2.0529 -6.1679 -1.9994 0.9732
-1.6094 -6.3056 -2.0016 0.9731
-1.3841 -6.3625 -2.0027 0.9731
-1.1567 -6.4113 -2.0038 0.9731
-0.6971 -6.4843 -2.0059 0.9731
-0.4655 -6.5084 -2.0070 0.9731
-0.2330 -6.5242 -2.0080 0.9730
0.2332 -6.5305 -2.0099 0.9730
0.4664 -6.5211 -2.0109 0.9730
0.6992 -6.5032 -2.0118 0.9730
1.3921 -6.3995 -2.0144 0.9730
2.0706 -6.2212 -2.0167 0.9729
3.3519 -5.6493 -2.0204 0.9729
3.5523 -5.5274 -2.0209 0.9729
3.7481 -5.3983 -2.0214 0.9729
3.9392 -5.2622 -2.0218 0.9729
4.1253 -5.1192 -2.0222 0.9729
4.3061 -4.9695 -2.0225 0.9729
4.4814 -4.8134 -2.0228 0.9729
4.6510 -4.6509 -2.0231 0.9728
4.8145 -4.4825 -2.0233 0.9728
4.9718 -4.3081 -2.0235 0.9728
5.1228 -4.1282 -2.0236 0.9728
5.5351 -3.5572 -2.0237 0.9728
5.6584 -3.3573 -2.0237 0.9728
5.7744 -3.1531 -2.0236 0.9728
6.1620 -2.2983 -2.0228 0.9729
6.2392 -2.0766 -2.0226 0.9729
6.3693 -1.6257 -2.0218 0.9729
6.4219 -1.3970 -2.0214 0.9729
6.4662 -1.1666 -2.0210 0.9729
6.5297 -0.7020 -2.0200 0.9729
6.5593 -0.2343 -2.0188 0.9729
-5.9134 -0.2112 -1.9669 0.9754
-5.9039 -0.4223 -1.9675 0.9754
-5.8871 -0.6329 -1.9682 0.9754
-5.8628 -0.8430 -1.9689 0.9753
-5.8310 -1.0520 -1.9696 0.9753
-5.7455 -1.4664 -1.9711 0.9753
-5.6918 -1.6713 -1.9719 0.9753
-5.4053 -2.4685 -1.9753 0.9753
-5.2202 -2.8505 -1.9771 0.9752
-4.7708 -3.5713 -1.9809 0.9752
-4.3684 -4.0671 -1.9840 0.9752
-4.0714 -4.3729 -1.9861 0.9751
-3.9147 -4.5179 -1.9871 0.9751
-3.5863 -4.7907 -1.9892 0.9751
-3.4148 -4.9183 -1.9903 0.9751
-2.8741 -5.2636 -1.9935 0.9750
-2.2987 -5.5495 -1.9967 0.9750
-2.1003 -5.6310 -1.9977 0.9750
-1.8989 -5.7054 -1.9988 0.9750
-1.6950 -5.7725 -1.9998 0.9750
-1.4886 -5.8323 -2.0008 0.9749
-1.2801 -5.8847 -2.0018 0.9749
-0.8579 -5.9669 -2.0038 0.9749
-0.6447 -5.9966 -2.0048 0.9749
-0.2155 -6.0330 -2.0067 0.9749
0.4312 -6.0295 -2.0094 0.9748
0.8610 -5.9884 -2.0110 0.9748
1.2870 -5.9163 -2.0126 0.9748
1.7070 -5.8136 -2.0141 0.9748
2.5202 -5.5185 -2.0166 0.9748
2.7163 -5.4266 -2.0172 0.9747
2.9091 -5.3275 -2.0177 0.9747
3.2833 -5.1088 -2.0187 0.9747
3.6408 -4.8635 -2.0195 0.9747
3.8127 -4.7313 -2.0198 0.9747
3.9798 -4.5929 -2.0201 0.9747
4.1417 -4.4485 -2.0204 0.9747
4.5949 -3.9815 -2.0210 0.9747
4.8677 -3.6439 -2.0212 0.9747
5.3366 -2.9140 -2.0211 0.9747
5.4368 -2.7215 -2.0210 0.9747
5.6950 -2.1241 -2.0204 0.9747
5.7664 -1.9192 -2.0202 0.9747
5.8303 -1.7119 -2.0198 0.9747
5.8867 -1.5025 -2.0195 0.9747
5.9765 -1.0783 -2.0187 0.9747
6.0099 -0.8641 -2.0182 0.9747
-5.4924 -0.3928 -1.9692 0.9769
-5.4766 -0.5888 -1.9698 0.9769
-5.3877 -1.1720 -1.9717 0.9768
-5.3444 -1.3641 -1.9725 0.9768
-5.2942 -1.5545 -1.9732 0.9768
-5.1739 -1.9298 -1.9747 0.9768
-5.1038 -2.1141 -1.9755 0.9768
-5.0272 -2.2958 -1.9764 0.9768
-4.9441 -2.4748 -1.9772 0.9768
-4.4361 -3.3208 -1.9816 0.9767
-3.6393 -4.2000 -1.9874 0.9767
-3.1742 -4.5718 -1.9903 0.9766
-3.0105 -4.6845 -1.9913 0.9766
-2.4963 -4.9869 -1.9943 0.9766
-2.3178 -5.0754 -1.9953 0.9766
-2.1363 -5.1574 -1.9963 0.9766
-1.9518 -5.2329 -1.9973 0.9766
-1.7646 -5.3018 -1.9982 0.9765
-1.3832 -5.4194 -2.0001 0.9765
-1.1895 -5.4678 -2.0011 0.9765
-0.5990 -5.5713 -2.0038 0.9765
-0.3999 -5.5916 -2.0047 0.9765
-0.2002 -5.6047 -2.0056 0.9765
-0.0000 -5.6107 -2.0064 0.9764
0.2003 -5.6094 -2.0072 0.9764
0.4006 -5.6009 -2.0080 0.9764
0.7997 -5.5624 -2.0096 0.9764
0.9981 -5.5323 -2.0103 0.9764
1.7777 -5.3412 -2.0130 0.9764
2.1555 -5.2038 -2.0142 0.9764
2.5226 -5.0394 -2.0153 0.9763
2.8770 -4.8489 -2.0163 0.9763
3.8458 -4.1307 -2.0183 0.9763
3.9913 -3.9912 -2.0185 0.9763
4.1316 -3.8466 -2.0187 0.9763
4.5198 -3.3835 -2.0190 0.9763
4.6378 -3.2201 -2.0191 0.9763
4.7498 -3.0525 -2.0191 0.9763
4.8556 -2.8810 -2.0190 0.9763
4.9552 -2.7057 -2.0190 0.9763
5.2149 -2.1601 -2.0185 0.9763
5.2881 -1.9723 -2.0183 0.9763
5.4139 -1.5897 -2.0178 0.9763
5.5499 -1.0013 -2.0167 0.9763
5.6047 -0.6026 -2.0158 0.9763
5.6213 -0.4020 -2.0154 0.9763
-5.1375 -0.1835 -1.9700 0.9782
-5.1291 -0.3668 -1.9706 0.9782
-5.1142 -0.5498 -1.9712 0.9782
-5.0929 -0.7322 -1.9718 0.9782
-5.0309 -1.0944 -1.9730 0.9782
-4.9903 -1.2737 -1.9737 0.9782
-4.9434 -1.4515 -1.9744 0.9782
-4.8901 -1.6276 -1.9751 0.9782
-4.8307 -1.8018 -1.9758 0.9782
-4.6935 -2.1434 -1.9773 0.9781
-4.6158 -2.3105 -1.9781 0.9781
-4.5322 -2.4748 -1.9789 0.9781
-4.4429 -2.6361 -1.9797 0.9781
-4.2471 -2.9488 -1.9814 0.9781
-3.9127 -3.3904 -1.9840 0.9781
-3.7909 -3.5295 -1.9849 0.9781
-3.5326 -3.7943 -1.9867 0.9780
-3.2560 -4.0404 -1.9885 0.9780
-2.8093 -4.3714 -1.9913 0.9780
-2.3292 -4.6531 -1.9941 0.9780
-2.1626 -4.7355 -1.9950 0.9779
-1.6463 -4.9463 -1.9977 0.9779
-1.4693 -5.0041 -1.9986 0.9779
-1.2904 -5.0556 -1.9995 0.9779
-0.9272 -5.1392 -2.0013 0.9779
-0.7435 -5.1713 -2.0021 0.9779
-0.3730 -5.2155 -2.0038 0.9779
-0.1867 -5.2276 -2.0046 0.9778
0.3736 -5.2236 -2.0069 0.9778
1.1147 -5.1244 -2.0097 0.9778
1.2974 -5.0830 -2.0103 0.9778
1.4784 -5.0350 -2.0110 0.9778
1.6577 -4.9805 -2.0116 0.9778
2.0099 -4.8522 -2.0127 0.9778
2.1823 -4.7786 -2.0132 0.9777
2.5188 -4.6129 -2.0141 0.9777
2.6824 -4.5210 -2.0145 0.9777
2.8427 -4.4233 -2.0149 0.9777
2.9993 -4.3197 -2.0153 0.9777
3.5855 -3.8511 -2.0164 0.9777
3.7211 -3.7211 -2.0166 0.9777
3.8518 -3.5862 -2.0168 0.9777
3.9777 -3.4467 -2.0169 0.9777
4.0983 -3.3027 -2.0171 0.9777
4.2138 -3.1544 -2.0171 0.9777
4.3237 -3.0020 -2.0172 0.9777
4.4281 -2.8458 -2.0172 0.9777
4.5268 -2.6859 -2.0171 0.9777
4.8619 -2.0138 -2.0167 0.9777
4.9301 -1.8388 -2.0165 0.9777
4.9921 -1.6615 -2.0162 0.9777
5.1745 -0.9336 -2.0150 0.9777
5.2258 -0.5618 -2.0142 0.9777
5.2413 -0.3749 -2.0137 0.9777
5.2501 -0.1875 -2.0132 0.9777
-4.8057 -0.3437 -1.9719 0.9794
-4.7715 -0.6860 -1.9730 0.9794
-4.7133 -1.0253 -1.9741 0.9794
-4.6311 -1.3598 -1.9754 0.9794
-4.3966 -2.0079 -1.9782 0.9793
-4.3237 -2.1643 -1.9789 0.9793
-3.9779 -2.7619 -1.9820 0.9793
-3.8783 -2.9033 -1.9828 0.9793
-3.5502 -3.3054 -1.9853 0.9793
-3.1806 -3.6706 -1.9878 0.9792
-3.0489 -3.7835 -1.9887 0.9792
-2.7736 -3.9948 -1.9904 0.9792
-2.6304 -4.0930 -1.9913 0.9792
-2.4837 -4.1861 -1.9921 0.9792
-2.3338 -4.2740 -1.9930 0.9792
-1.7047 -4.5704 -1.9964 0.9791
-1.5411 -4.6303 -1.9973 0.9791
-1.2079 -4.7324 -1.9990 0.9791
-1.0386 -4.7745 -1.9998 0.9791
-0.8679 -4.8105 -2.0006 0.9791
0.1749 -4.8962 -2.0052 0.9790
0.3496 -4.8885 -2.0059 0.9790
0.5241 -4.8746 -2.0065 0.9790
0.6980 -4.8544 -2.0072 0.9790
0.8711 -4.8279 -2.0079 0.9790
1.0431 -4.7953 -2.0085 0.9790
1.2140 -4.7564 -2.0091 0.9790
1.3834 -4.7114 -2.0097 0.9790
1.8806 -4.5401 -2.0113 0.9790
2.2007 -4.3964 -2.0122 0.9790
2.3567 -4.3160 -2.0126 0.9790
2.6596 -4.1385 -2.0134 0.9790
2.9490 -3.9395 -2.0140 0.9790
3.0882 -3.8322 -2.0143 0.9790
3.2234 -3.7200 -2.0146 0.9790
3.4813 -3.4813 -2.0150 0.9789
3.7213 -3.2245 -2.0153 0.9789
3.8342 -3.0898 -2.0154 0.9789
3.9422 -2.9511 -2.0154 0.9789
4.2351 -2.5128 -2.0154 0.9789
4.3219 -2.3599 -2.0154 0.9789
4.5486 -1.8841 -2.0150 0.9789
4.6125 -1.7204 -2.0148 0.9789
4.6704 -1.5545 -2.0146 0.9790
4.8413 -0.8735 -2.0134 0.9790
4.8894 -0.5257 -2.0127 0.9790
4.9041 -0.3507 -2.0122 0.9790
4.9124 -0.1754 -2.0118 0.9790
-1.4490 -0.1036 -0.6331 0.9937
-1.4359 -0.1544 -0.6294 0.9937
-1.3400 -0.3420 -0.6027 0.9940
-1.4401 -0.4793 -0.6615 0.9934
-1.5118 -0.5639 -0.7032 0.9930
-4.0619 -2.0332 -1.9796 0.9804
-3.9881 -2.1777 -1.9803 0.9804
-3.9093 -2.3195 -1.9811 0.9804
-3.7367 -2.5944 -1.9825 0.9803
-3.6431 -2.7272 -1.9833 0.9803
-3.4419 -2.9824 -1.9848 0.9803
-2.6048 -3.7515 -1.9904 0.9803
-2.4702 -3.8437 -1.9913 0.9803
-1.9011 -4.1629 -1.9945 0.9802
-1.7520 -4.2298 -1.9953 0.9802
-1.4470 -4.3475 -1.9969 0.9802
-1.2914 -4.3981 -1.9977 0.9802
-1.1340 -4.4431 -1.9985 0.9802
-0.8148 -4.5162 -2.0000 0.9802
-0.6533 -4.5441 -2.0007 0.9802
-0.4909 -4.5662 -2.0015 0.9802
-0.3278 -4.5824 -2.0022 0.9802
0.3282 -4.5887 -2.0049 0.9801
0.8176 -4.5316 -2.0068 0.9801
0.9791 -4.5008 -2.0074 0.9801
1.2984 -4.4219 -2.0085 0.9801
1.4558 -4.3739 -2.0090 0.9801
1.7650 -4.2610 -2.0100 0.9801
2.3553 -3.9697 -2.0117 0.9801
2.6334 -3.7928 -2.0123 0.9801
2.7675 -3.6969 -2.0126 0.9801
2.8980 -3.5963 -2.0129 0.9800
3.0249 -3.4909 -2.0131 0.9800
3.3817 -3.1484 -2.0136 0.9800
3.5980 -2.8995 -2.0139 0.9800
3.9742 -2.3580 -2.0139 0.9800
4.0557 -2.2146 -2.0139 0.9800
4.2029 -1.9194 -2.0137 0.9800
4.3284 -1.6144 -2.0133 0.9800
4.4316 -1.3012 -2.0129 0.9800
4.5433 -0.8197 -2.0120 0.9801
4.5689 -0.6569 -2.0117 0.9801
4.5886 -0.4933 -2.0113 0.9801
4.6102 -0.1646 -2.0105 0.9801
-1.2447 0.0000 -0.5761 0.9945
-1.2424 -0.0444 -0.5755 0.9945
-1.2261 -0.1318 -0.5708 0.9946
-1.2124 -0.1743 -0.5670 0.9946
-1.1974 -0.2160 -0.5632 0.9947
-1.1790 -0.2565 -0.5585 0.9947
-1.2017 -0.4482 -0.5937 0.9944
-1.2345 -0.5113 -0.6185 0.9941
-3.8903 -1.7766 -1.9796 0.9813
-3.7561 -2.0510 -1.9810 0.9813
-3.5190 -2.4433 -1.9830 0.9813
-3.4308 -2.5683 -1.9837 0.9813
-3.3381 -2.6901 -1.9845 0.9813
-2.9257 -3.1424 -1.9874 0.9813
-2.8128 -3.2461 -1.9882 0.9812
-2.6961 -3.3457 -1.9889 0.9812
-2.5760 -3.4411 -1.9897 0.9812
-2.4525 -3.5322 -1.9905 0.9812
-2.3257 -3.6189 -1.9912 0.9812
-2.0632 -3.7785 -1.9928 0.9812
-1.9278 -3.8512 -1.9935 0.9812
-1.2156 -4.1401 -1.9973 0.9812
-1.0675 -4.1824 -1.9980 0.9812
-0.7669 -4.2509 -1.9995 0.9811
-0.6150 -4.2771 -2.0002 0.9811
-0.4621 -4.2978 -2.0009 0.9811
-0.1544 -4.3227 -2.0022 0.9811
0.0000 -4.3269 -2.0029 0.9811
0.1545 -4.3255 -2.0035 0.9811
0.3089 -4.3186 -2.0041 0.9811
0.4630 -4.3061 -2.0047 0.9811
1.3699 -4.1160 -2.0080 0.9811
1.8033 -3.9486 -2.0093 0.9810
1.9434 -3.8824 -2.0097 0.9810
2.2162 -3.7353 -2.0104 0.9810
2.6040 -3.4785 -2.0113 0.9810
2.7268 -3.3838 -2.0116 0.9810
2.8462 -3.2847 -2.0118 0.9810
3.1818 -2.9623 -2.0123 0.9810
3.7392 -2.2186 -2.0126 0.9810
3.8159 -2.0837 -2.0125 0.9810
3.8877 -1.9461 -2.0124 0.9810
4.0161 -1.6635 -2.0122 0.9810
4.0726 -1.5190 -2.0120 0.9810
4.1238 -1.3725 -2.0118 0.9810
4.1698 -1.2244 -2.0116 0.9810
4.2103 -1.0746 -2.0114 0.9810
4.2454 -0.9235 -2.0111 0.9810
4.2750 -0.7713 -2.0108 0.9810
4.2991 -0.6181 -2.0105 0.9810
4.3177 -0.4642 -2.0101 0.9810
4.3307 -0.3097 -2.0097 0.9810
4.3381 -0.1549 -2.0093 0.9810
-1.0817 0.0000 -0.5306 0.9952
-1.0705 -0.1151 -0.5281 0.9952
-1.0611 -0.1526 -0.5258 0.9952
-1.0518 -0.1897 -0.5242 0.9952
-1.0421 -0.2267 -0.5232 0.9953
-1.0175 -0.2988 -0.5202 0.9953
-1.0290 -0.4262 -0.5463 0.9951
-3.5455 -1.9360 -1.9815 0.9822
-3.4005 -2.1854 -1.9828 0.9822
-3.2381 -2.4240 -1.9841 0.9821
-2.8642 -2.8642 -1.9869 0.9821
-2.7611 -2.9657 -1.9876 0.9821
-2.6545 -3.0634 -1.9883 0.9821
-2.5444 -3.1574 -1.9890 0.9821
-1.8190 -3.6339 -1.9934 0.9821
-1.6888 -3.6979 -1.9941 0.9821
-1.4217 -3.8117 -1.9955 0.9820
-1.2852 -3.8613 -1.9962 0.9820
-1.1469 -3.9061 -1.9969 0.9820
-1.0071 -3.9459 -1.9976 0.9820
-0.4359 -4.0545 -2.0003 0.9820
-0.1456 -4.0779 -2.0016 0.9820
0.1457 -4.0803 -2.0028 0.9820
0.5816 -4.0448 -2.0045 0.9820
0.7258 -4.0226 -2.0050 0.9820
1.4302 -3.8344 -2.0074 0.9819
1.7008 -3.7241 -2.0083 0.9819
2.0902 -3.5229 -2.0093 0.9819
2.3369 -3.3658 -2.0099 0.9819
2.4558 -3.2806 -2.0102 0.9819
2.6842 -3.0978 -2.0106 0.9819
2.7933 -3.0002 -2.0108 0.9819
3.0986 -2.6850 -2.0112 0.9819
3.1926 -2.5728 -2.0113 0.9819
3.2825 -2.4572 -2.0113 0.9819
3.4495 -2.2169 -2.0114 0.9819
3.5264 -2.0923 -2.0113 0.9819
3.5987 -1.9651 -2.0113 0.9819
3.6664 -1.8353 -2.0112 0.9819
3.8409 -1.4326 -2.0108 0.9819
3.8892 -1.2945 -2.0106 0.9819
4.0039 -0.8710 -2.0099 0.9819
4.0546 -0.5830 -2.0093 0.9819
-0.9895 0.0000 -0.5133 0.9956
-0.9873 -0.0706 -0.5135 0.9955
-0.9785 -0.1407 -0.5129 0.9956
-0.9715 -0.1753 -0.5121 0.9956
-0.9628 -0.2094 -0.5112 0.9956
-0.9404 -0.2761 -0.5085 0.9956
-0.9268 -0.3085 -0.5067 0.9956
-0.9208 -0.3434 -0.5098 0.9956
-0.9326 -0.4259 -0.5319 0.9954
-3.2867 -1.9501 -1.9826 0.9829
-3.1412 -2.1810 -1.9839 0.9829
-3.0623 -2.2924 -1.9845 0.9829
-2.9795 -2.4011 -1.9851 0.9829
-2.8929 -2.5067 -1.9858 0.9829
-2.7085 -2.7085 -1.9871 0.9829
-2.6110 -2.8044 -1.9878 0.9829
-2.5101 -2.8968 -1.9885 0.9829
-2.4059 -2.9855 -1.9891 0.9829
-2.2986 -3.0705 -1.9898 0.9829
-2.0751 -3.2289 -1.9912 0.9829
-1.7198 -3.4358 -1.9932 0.9828
-1.5966 -3.4962 -1.9939 0.9828
-1.0843 -3.6928 -1.9966 0.9828
-0.9521 -3.7303 -1.9973 0.9828
-0.8186 -3.7631 -1.9979 0.9828
-0.4121 -3.8327 -1.9998 0.9828
-0.1377 -3.8546 -2.0010 0.9828
0.1377 -3.8569 -2.0021 0.9828
0.5497 -3.8231 -2.0037 0.9827
0.6860 -3.8020 -2.0043 0.9827
0.9559 -3.7452 -2.0052 0.9827
1.0892 -3.7095 -2.0057 0.9827
1.4804 -3.5741 -2.0069 0.9827
1.6074 -3.5196 -2.0073 0.9827
1.7323 -3.4606 -2.0077 0.9827
2.0932 -3.2571 -2.0086 0.9827
2.3209 -3.1003 -2.0091 0.9827
2.4303 -3.0158 -2.0093 0.9827
2.5367 -2.9274 -2.0095 0.9827
2.9283 -2.5373 -2.0101 0.9827
3.4648 -1.7343 -2.0101 0.9827
3.5243 -1.6095 -2.0100 0.9827
3.5793 -1.4826 -2.0099 0.9827
3.6297 -1.3538 -2.0097 0.9827
3.6754 -1.2233 -2.0095 0.9827
3.7525 -0.9578 -2.0091 0.9827
3.8602 -0.2761 -2.0077 0.9827
-0.9182 0.0000 -0.5029 0.9958
-0.9179 -0.0328 -0.5031 0.9958
-0.9077 -0.1305 -0.5022 0.9958
-0.9011 -0.1626 -0.5015 0.9958
-0.8727 -0.2562 -0.4982 0.9959
-0.8479 -0.3512 -0.5027 0.9958
-0.8506 -0.3885 -0.5122 0.9957
-0.8516 -0.4263 -0.5216 0.9957
-0.8507 -0.4645 -0.5309 0.9956
-0.8524 -0.5058 -0.5428 0.9955
-3.0468 -1.9581 -1.9836 0.9836
-2.9011 -2.1717 -1.9848 0.9836
-2.5657 -2.5657 -1.9873 0.9836
-2.3777 -2.7440 -1.9886 0.9836
-2.0727 -2.9853 -1.9905 0.9836
-1.9655 -3.0584 -1.9912 0.9836
-1.8557 -3.1276 -1.9918 0.9836
-1.5122 -3.3113 -1.9938 0.9835
-1.0269 -3.4972 -1.9963 0.9835
-0.9017 -3.5327 -1.9969 0.9835
-0.7752 -3.5637 -1.9975 0.9835
-0.6477 -3.5902 -1.9981 0.9835
-0.5193 -3.6121 -1.9987 0.9835
-0.3902 -3.6294 -1.9993 0.9835
-0.2605 -3.6421 -1.9999 0.9835
-0.1304 -3.6501 -2.0004 0.9835
0.0000 -3.6534 -2.0010 0.9835
0.7778 -3.5753 -2.0040 0.9835
1.0313 -3.5123 -2.0049 0.9834
1.1562 -3.4739 -2.0053 0.9834
1.4017 -3.3839 -2.0061 0.9834
1.5218 -3.3323 -2.0064 0.9834
1.8702 -3.1520 -2.0074 0.9834
1.9818 -3.0837 -2.0077 0.9834
2.0908 -3.0114 -2.0079 0.9834
2.1972 -2.9352 -2.0081 0.9834
2.3008 -2.8552 -2.0083 0.9834
2.4015 -2.7715 -2.0085 0.9834
2.4991 -2.6842 -2.0087 0.9834
2.5935 -2.5935 -2.0088 0.9834
2.8563 -2.3017 -2.0091 0.9834
2.9367 -2.1984 -2.0092 0.9834
3.0133 -2.0922 -2.0092 0.9834
3.0861 -1.9833 -2.0092 0.9834
3.3365 -1.5237 -2.0090 0.9834
3.4363 -1.2817 -2.0087 0.9834
3.5183 -1.0331 -2.0084 0.9834
3.5823 -0.7793 -2.0079 0.9834
3.6436 -0.3917 -2.0071 0.9834
-0.8550 0.0000 -0.4936 0.9961
-0.8548 -0.0305 -0.4938 0.9961
-0.8530 -0.0610 -0.4938 0.9961
-0.8392 -0.1514 -0.4924 0.9961
-0.7796 -0.3229 -0.4872 0.9961
-0.7787 -0.4252 -0.5122 0.9959
-0.7750 -0.4599 -0.5203 0.9958
-0.7696 -0.4946 -0.5282 0.9958
-2.7526 -2.0605 -1.9852 0.9842
-2.6780 -2.1581 -1.9857 0.9842
-2.4342 -2.4342 -1.9875 0.9842
-2.3465 -2.5203 -1.9881 0.9842
-2.2557 -2.6032 -1.9887 0.9842
-1.6539 -3.0288 -1.9924 0.9842
-0.9740 -3.3171 -1.9960 0.9842
-0.7353 -3.3802 -1.9972 0.9841
-0.6144 -3.4052 -1.9978 0.9841
-0.4926 -3.4260 -1.9983 0.9841
-0.3701 -3.4423 -1.9989 0.9841
-0.1236 -3.4618 -1.9999 0.9841
0.1237 -3.4636 -2.0010 0.9841
0.6159 -3.4140 -2.0029 0.9841
0.7376 -3.3906 -2.0033 0.9841
0.8583 -3.3628 -2.0038 0.9841
1.3292 -3.2089 -2.0053 0.9841
1.4431 -3.1599 -2.0056 0.9841
1.5552 -3.1069 -2.0059 0.9841
1.6654 -3.0499 -2.0062 0.9841
1.8792 -2.9241 -2.0068 0.9841
2.2771 -2.6280 -2.0076 0.9841
2.3697 -2.5452 -2.0078 0.9841
2.5455 -2.3700 -2.0080 0.9841
2.6286 -2.2777 -2.0081 0.9841
2.7083 -2.1825 -2.0082 0.9841
2.8572 -1.9838 -2.0082 0.9841
2.9914 -1.7749 -2.0082 0.9841
3.0528 -1.6670 -2.0082 0.9841
3.1637 -1.4448 -2.0080 0.9841
3.2994 -1.0981 -2.0076 0.9841
3.3362 -0.9796 -2.0075 0.9841
3.3687 -0.8598 -2.0073 0.9841
3.4207 -0.6172 -2.0068 0.9841
3.4550 -0.3715 -2.0063 0.9841
3.4717 -0.1240 -2.0057 0.9841
