ply
format ascii 1.0
element vertex 780
property float32 x
property float32 y
property float32 z
property float32 I
end_header
-2.4769 3.8542 -0.5442 0.9817
-2.4929 3.5905 -0.5192 0.9825
-2.5427 3.3967 -0.5040 0.9831
-2.5973 3.2231 -0.4917 0.9835
-3.3759 2.9252 -0.5306 0.9822
-3.6668 2.9549 -0.5594 0.9812
-2.1795 3.6733 -0.6052 0.9829
-2.3696 3.1654 -0.5602 0.9842
-2.4445 3.0335 -0.5520 0.9844
-2.5546 2.9482 -0.5527 0.9844
-2.7149 2.9161 -0.5645 0.9840
-2.8915 2.8915 -0.5794 0.9836
-3.0792 2.8669 -0.5961 0.9831
-3.5226 2.8387 -0.6410 0.9819
-4.1651 2.8919 -0.7184 0.9797
-1.9136 3.8229 -0.7043 0.9828
-1.9409 3.5545 -0.6672 0.9837
-2.0039 3.3774 -0.6470 0.9842
-2.0794 3.2356 -0.6336 0.9845
-2.2297 2.9786 -0.6129 0.9850
-2.6553 2.8520 -0.6419 0.9843
-2.8253 2.8253 -0.6582 0.9839
-3.4212 2.7570 -0.7238 0.9823
-3.8985 2.7068 -0.7819 0.9809
6.1233 7.5985 -1.8342 0.9611
5.2177 8.1189 -1.8140 0.9615
4.6199 8.4607 -1.8119 0.9615
4.3126 8.6155 -1.8109 0.9615
3.6832 8.8920 -1.8091 0.9616
3.3619 9.0135 -1.8082 0.9616
2.7079 9.2220 -1.8066 0.9616
2.0414 9.3841 -1.8051 0.9617
1.7045 9.4476 -1.8044 0.9617
1.0255 9.5388 -1.8033 0.9617
0.0000 9.5861 -1.8018 0.9617
-1.7007 9.4263 -1.8004 0.9618
-3.0244 9.0870 -1.8001 0.9618
-3.3469 8.9735 -1.8002 0.9618
-1.9573 3.0456 -0.6805 0.9854
-2.0528 2.9565 -0.6765 0.9855
-2.1840 2.9175 -0.6850 0.9853
-2.3184 2.8769 -0.6945 0.9851
-2.4562 2.8346 -0.7050 0.9849
-2.7627 2.7627 -0.7344 0.9842
-3.1266 2.7092 -0.7776 0.9833
-3.3346 2.6872 -0.8050 0.9827
-3.5867 2.6850 -0.8421 0.9819
-3.7858 2.6285 -0.8663 0.9814
-4.1207 2.6482 -0.9207 0.9803
9.4789 0.0000 -2.0037 0.9620
9.4419 0.6753 -2.0009 0.9620
9.4053 1.0112 -1.9995 0.9621
9.3567 1.3453 -1.9982 0.9621
9.2240 2.0066 -1.9954 0.9621
9.0447 2.6557 -1.9926 0.9622
8.9378 2.9748 -1.9912 0.9622
8.8198 3.2896 -1.9898 0.9622
8.2390 4.4988 -1.9843 0.9623
7.6952 5.3429 -1.9803 0.9624
7.2849 5.8705 -1.9777 0.9625
7.0662 6.1229 -1.9764 0.9625
6.8388 6.3672 -1.9751 0.9625
6.6031 6.6031 -1.9739 0.9625
5.8444 7.2524 -1.9688 0.9626
5.5713 7.4423 -1.9651 0.9627
4.9644 7.7248 -1.9410 0.9632
3.9277 7.8466 -1.8548 0.9648
2.9951 8.0302 -1.8116 0.9656
2.7055 8.1286 -1.8109 0.9656
2.4127 8.2168 -1.8102 0.9656
2.1171 8.2946 -1.8095 0.9656
1.8190 8.3620 -1.8089 0.9656
1.5189 8.4188 -1.8083 0.9656
0.9139 8.5007 -1.8072 0.9656
0.6098 8.5257 -1.8068 0.9657
0.3050 8.5400 -1.8063 0.9657
0.0000 8.5437 -1.8060 0.9657
-0.3049 8.5366 -1.8056 0.9657
-1.2151 8.4515 -1.8048 0.9657
-1.8147 8.3419 -1.8046 0.9657
-1.3409 4.0288 -0.8975 0.9828
-1.5071 3.6383 -0.8324 0.9840
-1.5952 3.4931 -0.8117 0.9844
-1.6798 3.3558 -0.7933 0.9848
-2.0023 2.8839 -0.7421 0.9857
-2.1301 2.8455 -0.7514 0.9856
-2.2607 2.8054 -0.7616 0.9854
-2.5523 2.7414 -0.7917 0.9848
-2.7154 2.7154 -0.8117 0.9844
-3.0692 2.6595 -0.8584 0.9835
-3.2618 2.6286 -0.8855 0.9830
-3.4971 2.6179 -0.9234 0.9823
-3.7118 2.5771 -0.9552 0.9817
-8.1568 4.4540 -1.9645 0.9627
-8.5993 3.5620 -1.9675 0.9627
-8.8412 2.9426 -1.9697 0.9626
-8.9457 2.6267 -1.9708 0.9626
-9.1918 1.6584 -1.9743 0.9625
-9.2509 1.3301 -1.9756 0.9625
-9.3342 0.6676 -1.9781 0.9625
8.5098 0.3039 -2.0013 0.9656
8.4883 0.6071 -2.0000 0.9656
8.4129 1.2096 -1.9975 0.9657
8.2198 2.0980 -1.9938 0.9657
8.1346 2.3885 -1.9925 0.9658
7.5575 3.7830 -1.9863 0.9659
7.0967 4.5608 -1.9826 0.9659
6.9253 4.8083 -1.9814 0.9660
5.4992 6.3463 -1.9736 0.9661
5.0272 6.7155 -1.9715 0.9661
4.7819 6.8873 -1.9706 0.9661
4.0126 7.3486 -1.9678 0.9662
3.1928 7.7081 -1.9608 0.9663
2.9125 7.8088 -1.9587 0.9663
2.6294 7.9001 -1.9568 0.9664
2.0348 7.9721 -1.9337 0.9668
1.7377 7.9882 -1.9213 0.9670
1.1529 8.0185 -1.9039 0.9673
0.2872 8.0417 -1.8912 0.9675
-0.2876 8.0516 -1.8935 0.9674
-0.5757 8.0495 -1.8967 0.9674
-1.1566 8.0441 -1.9100 0.9672
-0.8875 4.0797 -0.9813 0.9830
-1.0938 3.7252 -0.9125 0.9842
-1.2033 3.6154 -0.8955 0.9845
-1.3943 3.3660 -0.8563 0.9851
-1.6688 3.0561 -0.8184 0.9858
-1.7443 2.9398 -0.8034 0.9861
-1.8418 2.8659 -0.8006 0.9861
-2.0757 2.7728 -0.8140 0.9859
-2.2157 2.7495 -0.8299 0.9856
-2.3609 2.7246 -0.8473 0.9853
-2.5120 2.6981 -0.8664 0.9850
-2.6710 2.6710 -0.8878 0.9846
-2.8387 2.6429 -0.9115 0.9842
-3.0151 2.6126 -0.9376 0.9837
-3.4325 2.5695 -1.0077 0.9825
-3.6689 2.5474 -1.0497 0.9818
-4.2379 2.5144 -1.1581 0.9800
-7.6208 3.4803 -1.9690 0.9662
-7.7438 3.2076 -1.9699 0.9661
-7.9608 2.6496 -1.9719 0.9661
-8.1380 2.0771 -1.9739 0.9661
-8.2115 1.7863 -1.9750 0.9661
-8.2745 1.4929 -1.9761 0.9660
-8.3272 1.1973 -1.9772 0.9660
7.7304 -0.0000 -2.0015 0.9686
7.7212 0.2758 -2.0004 0.9686
7.6732 0.8250 -1.9982 0.9686
7.5862 1.3687 -1.9959 0.9687
7.5282 1.6377 -1.9948 0.9687
7.3837 2.1680 -1.9925 0.9687
7.2974 2.4288 -1.9913 0.9687
7.0975 2.9399 -1.9891 0.9688
6.8619 3.4348 -1.9868 0.9688
6.7311 3.6755 -1.9857 0.9688
6.5920 3.9112 -1.9846 0.9688
6.2893 4.3667 -1.9824 0.9689
6.1261 4.5859 -1.9813 0.9689
5.9553 4.7991 -1.9803 0.9689
5.5920 5.2063 -1.9782 0.9689
5.3998 5.3998 -1.9772 0.9689
4.9959 5.7656 -1.9753 0.9690
4.7847 5.9374 -1.9743 0.9690
4.3449 6.2579 -1.9725 0.9690
4.1170 6.4062 -1.9717 0.9690
3.1583 6.9157 -1.9685 0.9691
2.9083 7.0214 -1.9678 0.9691
1.6129 7.4144 -1.9646 0.9691
0.8105 7.5387 -1.9631 0.9692
-0.2704 7.5717 -1.9617 0.9692
-0.7839 3.6036 -0.9548 0.9849
-1.1092 3.3326 -0.9094 0.9856
-1.2129 3.2519 -0.8986 0.9858
-1.4070 3.0809 -0.8770 0.9861
-1.4999 2.9964 -0.8676 0.9862
-1.7042 2.8722 -0.8647 0.9863
-1.7998 2.8005 -0.8619 0.9863
-1.8508 2.6657 -0.8402 0.9867
-2.0446 2.7313 -0.8834 0.9860
-2.1823 2.7081 -0.9005 0.9857
-2.3246 2.6828 -0.9191 0.9854
-2.4726 2.6558 -0.9395 0.9851
-2.6276 2.6276 -0.9621 0.9848
-2.7913 2.5988 -0.9875 0.9844
-2.9814 2.5834 -1.0214 0.9838
-3.1869 2.5682 -1.0597 0.9832
-6.9249 3.1625 -1.9711 0.9690
-7.3932 1.8870 -1.9756 0.9690
-7.4595 1.6227 -1.9766 0.9689
-7.5165 1.3561 -1.9776 0.9689
-7.6302 0.5457 -1.9807 0.9689
-7.6489 0.2732 -1.9817 0.9689
7.0593 0.2521 -1.9997 0.9711
6.9811 1.0037 -1.9966 0.9711
6.8231 1.7415 -1.9935 0.9711
6.7531 1.9829 -1.9925 0.9712
6.6745 2.2215 -1.9914 0.9712
6.4922 2.6892 -1.9893 0.9712
6.2773 3.1422 -1.9873 0.9712
6.1580 3.3625 -1.9862 0.9713
6.0310 3.5784 -1.9852 0.9713
5.7546 3.9955 -1.9832 0.9713
5.4495 4.3915 -1.9813 0.9713
5.1175 4.7645 -1.9794 0.9714
4.9419 4.9418 -1.9785 0.9714
2.8915 6.3315 -1.9705 0.9715
2.6628 6.4285 -1.9698 0.9715
1.4769 6.7892 -1.9669 0.9715
0.4952 6.9242 -1.9652 0.9716
0.2477 6.9362 -1.9649 0.9716
0.0000 6.9396 -1.9645 0.9716
-0.2476 6.9341 -1.9643 0.9716
-0.4174 3.8822 -1.1054 0.9839
-0.5166 3.5926 -1.0275 0.9850
-0.6260 3.4695 -0.9981 0.9855
-0.7279 3.3460 -0.9694 0.9859
-0.8361 3.2757 -0.9571 0.9860
-0.9420 3.2081 -0.9465 0.9862
-1.2417 2.9977 -0.9185 0.9866
-1.3351 2.9235 -0.9098 0.9867
-1.4494 2.8955 -0.9166 0.9866
-1.5667 2.8692 -0.9254 0.9865
-1.6681 2.8114 -0.9254 0.9865
-1.7960 2.5868 -0.8915 0.9870
-1.8664 2.4932 -0.8817 0.9871
-2.6010 2.6010 -1.0413 0.9848
-2.9709 2.5743 -1.1128 0.9838
-3.1753 2.5588 -1.1544 0.9832
-3.8997 2.5062 -1.3123 0.9809
-6.1120 3.3374 -1.9714 0.9715
-6.3393 2.8951 -1.9729 0.9714
-6.4411 2.6680 -1.9737 0.9714
-6.5349 2.4374 -1.9745 0.9714
-6.6978 1.9666 -1.9761 0.9714
-6.7667 1.7271 -1.9770 0.9714
-6.8271 1.4851 -1.9779 0.9714
-6.8789 1.2411 -1.9788 0.9714
-6.9220 0.9952 -1.9797 0.9713
-6.9564 0.7479 -1.9807 0.9713
-6.9989 0.2500 -1.9826 0.9713
6.5025 0.0000 -2.0000 0.9732
6.4562 0.6941 -1.9972 0.9732
6.4242 0.9237 -1.9963 0.9732
6.2154 1.8250 -1.9924 0.9733
6.1433 2.0447 -1.9915 0.9733
5.9761 2.4754 -1.9896 0.9733
5.8811 2.6858 -1.9886 0.9733
5.7787 2.8926 -1.9877 0.9733
5.5524 3.2944 -1.9858 0.9733
5.2983 3.6787 -1.9839 0.9734
4.8682 4.2183 -1.9813 0.9734
4.5509 4.5509 -1.9796 0.9734
4.3838 4.7085 -1.9787 0.9734
4.2112 4.8600 -1.9779 0.9734
4.0334 5.0052 -1.9771 0.9735
3.4713 5.4014 -1.9749 0.9735
3.2751 5.5199 -1.9742 0.9735
3.0749 5.6313 -1.9735 0.9735
2.8710 5.7356 -1.9728 0.9735
2.0231 6.0784 -1.9704 0.9735
1.5835 6.2040 -1.9694 0.9736
1.1363 6.2982 -1.9685 0.9736
0.6838 6.3606 -1.9677 0.9736
0.4563 6.3798 -1.9673 0.9736
0.2283 6.3910 -1.9670 0.9736
0.0000 6.3942 -1.9667 0.9736
-0.3841 3.5730 -1.1053 0.9851
-0.4834 3.3624 -1.0448 0.9859
-1.0900 2.9223 -0.9593 0.9870
-1.3004 2.8474 -0.9628 0.9870
-1.5245 2.7920 -0.9784 0.9868
-1.6379 2.7606 -0.9873 0.9867
-2.1162 2.6261 -1.0374 0.9860
-2.2657 2.6147 -1.0642 0.9856
-2.5899 2.5899 -1.1265 0.9848
-2.7686 2.5777 -1.1635 0.9843
-2.9596 2.5645 -1.2045 0.9837
-3.1636 2.5494 -1.2497 0.9831
-3.6124 2.5081 -1.3527 0.9818
-3.9026 2.5080 -1.4269 0.9808
-4.1983 2.4910 -1.5015 0.9798
-5.6301 3.0743 -1.9730 0.9735
-5.7382 2.8723 -1.9737 0.9735
-5.8391 2.6666 -1.9744 0.9735
-5.9327 2.4574 -1.9751 0.9735
-6.0189 2.2449 -1.9759 0.9735
-6.0975 2.0294 -1.9766 0.9735
-6.1685 1.8112 -1.9774 0.9735
-6.2871 1.3677 -1.9790 0.9734
-6.3346 1.1429 -1.9799 0.9734
-6.4056 0.6887 -1.9816 0.9734
-6.4289 0.4598 -1.9825 0.9734
-6.4442 0.2302 -1.9833 0.9734
6.0151 0.0000 -1.9994 0.9750
5.9945 0.4287 -1.9977 0.9750
5.9728 0.6421 -1.9968 0.9750
5.8621 1.2752 -1.9942 0.9750
5.8103 1.4830 -1.9933 0.9750
5.7511 1.6887 -1.9924 0.9751
5.3480 2.6770 -1.9880 0.9751
5.2468 2.8649 -1.9871 0.9751
4.9041 3.4050 -1.9846 0.9751
4.6448 3.7430 -1.9829 0.9752
4.5064 3.9048 -1.9821 0.9752
4.3624 4.0616 -1.9813 0.9752
4.2130 4.2130 -1.9805 0.9752
4.0584 4.3590 -1.9797 0.9752
3.8987 4.4994 -1.9790 0.9752
3.3917 4.8850 -1.9768 0.9752
3.2141 5.0013 -1.9762 0.9753
3.0326 5.1111 -1.9755 0.9753
2.8473 5.2144 -1.9749 0.9753
2.6585 5.3110 -1.9742 0.9753
2.4665 5.4009 -1.9737 0.9753
2.2715 5.4839 -1.9731 0.9753
2.0738 5.5600 -1.9725 0.9753
1.8735 5.6290 -1.9720 0.9753
1.6710 5.6908 -1.9715 0.9753
0.4226 5.9088 -1.9691 0.9753
-0.2113 5.9177 -1.9683 0.9753
-0.5602 3.1050 -1.0488 0.9868
-0.8561 2.9156 -1.0101 0.9873
-1.0544 2.8271 -1.0030 0.9874
-1.3681 2.7331 -1.0160 0.9872
-1.4739 2.6992 -1.0223 0.9871
-1.5831 2.6682 -1.0313 0.9870
-1.7035 2.6507 -1.0474 0.9868
-1.8309 2.6370 -1.0671 0.9866
-1.9662 2.6265 -1.0906 0.9863
-2.2564 2.6041 -1.1454 0.9856
-2.4129 2.5917 -1.1771 0.9852
-2.7563 2.5662 -1.2518 0.9843
-2.9459 2.5527 -1.2957 0.9837
-3.1519 2.5400 -1.3456 0.9831
-3.6506 2.5346 -1.4773 0.9814
-3.9053 2.5098 -1.5431 0.9806
-5.2133 2.8467 -1.9745 0.9753
-5.3133 2.6596 -1.9751 0.9753
-5.4931 2.2753 -1.9764 0.9752
-5.5727 2.0785 -1.9771 0.9752
-5.7109 1.6769 -1.9785 0.9752
-5.7693 1.4725 -1.9792 0.9752
-5.8204 1.2662 -1.9800 0.9752
-5.9509 0.4256 -1.9832 0.9752
5.5839 0.1994 -1.9981 0.9765
5.4897 0.9904 -1.9949 0.9766
5.4006 1.3784 -1.9932 0.9766
5.2841 1.7587 -1.9916 0.9766
5.2158 1.9454 -1.9907 0.9766
5.0596 2.3106 -1.9891 0.9766
4.8779 2.6635 -1.9875 0.9767
4.7778 2.8348 -1.9867 0.9767
4.5597 3.1659 -1.9851 0.9767
4.4421 3.3253 -1.9843 0.9767
4.0565 3.7768 -1.9820 0.9767
3.6256 4.1842 -1.9799 0.9768
3.1544 4.5432 -1.9779 0.9768
2.9893 4.6514 -1.9773 0.9768
2.6482 4.8499 -1.9761 0.9768
2.4727 4.9399 -1.9755 0.9768
2.2942 5.0236 -1.9749 0.9768
2.1129 5.1009 -1.9744 0.9768
1.7427 5.2360 -1.9734 0.9768
1.5544 5.2937 -1.9730 0.9768
0.9790 5.4261 -1.9717 0.9768
0.3931 5.4969 -1.9707 0.9769
0.1967 5.5066 -1.9705 0.9769
0.0000 5.5094 -1.9702 0.9769
-0.1966 5.5053 -1.9700 0.9769
-0.3439 3.1987 -1.1505 0.9864
-0.4403 3.0624 -1.1064 0.9869
-0.5393 2.9890 -1.0861 0.9872
-0.6361 2.9239 -1.0701 0.9874
-0.9258 2.7817 -1.0484 0.9876
-1.0293 2.7598 -1.0533 0.9876
-1.1341 2.7379 -1.0598 0.9875
-1.2382 2.7113 -1.0659 0.9874
-1.3446 2.6862 -1.0742 0.9873
-1.4562 2.6667 -1.0866 0.9872
-1.5754 2.6552 -1.1041 0.9870
-1.8246 2.6279 -1.1441 0.9865
-1.9592 2.6172 -1.1691 0.9862
-2.0999 2.6059 -1.1968 0.9859
-2.2475 2.5938 -1.2273 0.9855
-2.5674 2.5674 -1.2984 0.9847
-3.3728 2.5249 -1.5067 0.9823
-3.6317 2.5215 -1.5811 0.9814
-3.9064 2.5105 -1.6606 0.9805
-4.9418 2.4737 -1.9763 0.9768
-5.1088 2.1162 -1.9775 0.9768
-5.1828 1.9331 -1.9781 0.9768
-5.2502 1.7474 -1.9788 0.9768
-5.4126 1.1774 -1.9808 0.9767
-5.4531 0.9838 -1.9816 0.9767
-5.5135 0.5928 -1.9830 0.9767
-5.5460 0.1981 -1.9846 0.9767
5.2150 0.0000 -1.9985 0.9779
5.1977 0.3717 -1.9970 0.9779
5.1792 0.5568 -1.9962 0.9779
5.1541 0.7410 -1.9954 0.9779
4.9884 1.4647 -1.9924 0.9780
4.8675 1.8155 -1.9908 0.9780
4.5526 2.4859 -1.9878 0.9780
4.2560 2.9550 -1.9856 0.9780
4.1463 3.1039 -1.9848 0.9781
4.0314 3.2487 -1.9841 0.9781
3.9115 3.3893 -1.9834 0.9781
3.7867 3.5255 -1.9827 0.9781
3.5232 3.7841 -1.9814 0.9781
3.0955 4.1351 -1.9794 0.9781
2.6334 4.4383 -1.9777 0.9781
2.3087 4.6123 -1.9766 0.9781
1.9728 4.7628 -1.9756 0.9782
1.8012 4.8291 -1.9751 0.9782
1.6273 4.8892 -1.9747 0.9782
1.2738 4.9907 -1.9738 0.9782
1.0946 5.0320 -1.9734 0.9782
0.9142 5.0669 -1.9731 0.9782
0.7326 5.0955 -1.9728 0.9782
0.5502 5.1176 -1.9724 0.9782
0.1837 5.1424 -1.9719 0.9782
-0.2419 3.3825 -1.2995 0.9856
-0.4271 2.9708 -1.1502 0.9872
-0.5221 2.8936 -1.1268 0.9875
-0.6178 2.8398 -1.1137 0.9876
-0.7104 2.7832 -1.1008 0.9878
-0.8055 2.7433 -1.0957 0.9878
-0.9101 2.7343 -1.1043 0.9877
-1.0164 2.7251 -1.1146 0.9876
-1.3335 2.6640 -1.1417 0.9873
-1.6914 2.6318 -1.1989 0.9867
-1.8182 2.6187 -1.2217 0.9864
-2.2434 2.5890 -1.3128 0.9854
-3.3714 2.5238 -1.6139 0.9821
-4.6948 2.1440 -1.9779 0.9781
-4.7697 1.9757 -1.9785 0.9781
-4.9015 1.6314 -1.9797 0.9781
-5.0086 1.2784 -1.9809 0.9781
-5.1649 0.3694 -1.9844 0.9781
-5.1767 0.1849 -1.9851 0.9781
4.8819 0.0000 -1.9981 0.9791
4.8771 0.1742 -1.9974 0.9791
4.8661 0.3480 -1.9967 0.9791
4.7185 1.2043 -1.9931 0.9792
4.6172 1.5367 -1.9916 0.9792
4.4926 1.8609 -1.9902 0.9792
4.3452 2.1751 -1.9888 0.9792
4.1760 2.4778 -1.9874 0.9792
4.0835 2.6243 -1.9867 0.9792
3.9859 2.7674 -1.9860 0.9792
3.7757 3.0427 -1.9846 0.9793
3.5467 3.3021 -1.9833 0.9793
3.4255 3.4255 -1.9827 0.9793
3.1704 3.6588 -1.9814 0.9793
2.7587 3.9732 -1.9797 0.9793
2.4668 4.1576 -1.9786 0.9793
2.3163 4.2419 -1.9781 0.9793
2.0068 4.3942 -1.9771 0.9793
1.3598 4.6310 -1.9754 0.9794
1.1934 4.6757 -1.9750 0.9794
1.0256 4.7144 -1.9746 0.9794
0.6864 4.7740 -1.9740 0.9794
0.5155 4.7948 -1.9737 0.9794
0.0000 4.8206 -1.9730 0.9794
-0.1720 4.8171 -1.9728 0.9794
-0.2340 3.2717 -1.3424 0.9859
-0.3306 3.0748 -1.2657 0.9867
-0.4216 2.9326 -1.2126 0.9873
-0.6053 2.7825 -1.1655 0.9878
-0.7023 2.7515 -1.1622 0.9878
-0.9001 2.7043 -1.1665 0.9878
-1.5660 2.6394 -1.2561 0.9868
-1.6863 2.6239 -1.2766 0.9866
-2.2484 2.5948 -1.4052 0.9853
-2.4047 2.5828 -1.4443 0.9849
-2.5712 2.5712 -1.4882 0.9844
-2.7516 2.5618 -1.5387 0.9839
-3.7057 2.5729 -1.8464 0.9807
-4.2412 2.3159 -1.9777 0.9793
-4.3223 2.1636 -1.9783 0.9793
-4.5913 1.5281 -1.9804 0.9793
-4.6443 1.3637 -1.9810 0.9793
-4.6914 1.1974 -1.9816 0.9793
-4.7679 0.8602 -1.9829 0.9793
-4.8203 0.5182 -1.9842 0.9793
4.5530 0.4895 -1.9957 0.9802
4.5311 0.6515 -1.9950 0.9802
4.4700 0.9724 -1.9937 0.9802
4.3361 1.4432 -1.9917 0.9803
4.1527 1.8965 -1.9896 0.9803
4.0042 2.1864 -1.9883 0.9803
3.7438 2.5994 -1.9863 0.9803
3.6475 2.7305 -1.9857 0.9803
3.5466 2.8580 -1.9851 0.9803
3.3316 3.1018 -1.9838 0.9803
3.2178 3.2178 -1.9832 0.9803
3.1000 3.3296 -1.9827 0.9803
2.7240 3.6388 -1.9810 0.9804
2.5917 3.7327 -1.9804 0.9804
2.1761 3.9853 -1.9789 0.9804
2.0320 4.0595 -1.9785 0.9804
1.8854 4.1285 -1.9780 0.9804
1.5854 4.2506 -1.9772 0.9804
1.4324 4.3036 -1.9768 0.9804
1.2776 4.3512 -1.9764 0.9804
0.1617 4.5273 -1.9743 0.9804
-0.1617 4.5264 -1.9739 0.9804
-0.2304 3.2210 -1.4073 0.9860
-0.3265 3.0366 -1.3310 0.9868
-0.4179 2.9064 -1.2797 0.9873
-0.5109 2.8319 -1.2541 0.9875
-0.6009 2.7621 -1.2319 0.9877
-0.6980 2.7348 -1.2301 0.9878
-1.4451 2.6465 -1.3141 0.9869
-1.5634 2.6350 -1.3353 0.9867
-1.8220 2.6242 -1.3923 0.9862
-2.4068 2.5851 -1.5393 0.9847
-2.5723 2.5723 -1.5854 0.9843
-2.7514 2.5616 -1.6383 0.9837
-3.4268 2.9694 -1.9761 0.9804
-3.5313 2.8457 -1.9765 0.9804
-3.6313 2.7184 -1.9769 0.9804
-3.8176 2.4534 -1.9777 0.9804
-4.0608 2.0327 -1.9791 0.9804
-1.5118 0.5639 -0.7032 0.9930
-1.4401 0.4793 -0.6615 0.9934
-1.3688 0.2978 -0.6105 0.9939
-1.4359 0.1544 -0.6294 0.9937
4.3110 0.1540 -1.9967 0.9812
4.3014 0.3076 -1.9961 0.9812
4.2863 0.4608 -1.9955 0.9812
4.2398 0.7649 -1.9942 0.9812
4.2085 0.9155 -1.9936 0.9812
3.7704 2.0588 -1.9885 0.9812
3.6117 2.3211 -1.9873 0.9813
3.5255 2.4478 -1.9867 0.9813
3.3399 2.6914 -1.9855 0.9813
3.2407 2.8081 -1.9849 0.9813
3.0304 3.0304 -1.9838 0.9813
2.5655 3.4271 -1.9816 0.9813
2.4409 3.5156 -1.9811 0.9813
2.3133 3.5996 -1.9806 0.9813
2.0497 3.7537 -1.9797 0.9813
1.7759 3.8887 -1.9788 0.9813
1.4933 4.0038 -1.9780 0.9813
1.0562 4.1383 -1.9770 0.9814
0.9077 4.1727 -1.9766 0.9814
0.7581 4.2018 -1.9763 0.9814
0.6075 4.2255 -1.9761 0.9814
-0.0000 4.2671 -1.9752 0.9814
-0.1523 4.2640 -1.9750 0.9814
-0.2297 3.2118 -1.4905 0.9859
-0.6940 2.7189 -1.2989 0.9877
-0.7910 2.6938 -1.2996 0.9877
-0.9124 2.7412 -1.3373 0.9873
-1.1027 2.6621 -1.3338 0.9874
-1.5639 2.6358 -1.4187 0.9866
-1.6926 2.6337 -1.4492 0.9863
-1.8270 2.6314 -1.4828 0.9860
-1.9623 2.6214 -1.5157 0.9857
-2.2510 2.5978 -1.5911 0.9850
-3.1256 2.9100 -1.9767 0.9814
-3.2279 2.7970 -1.9771 0.9813
-3.5104 2.4373 -1.9782 0.9813
-3.5958 2.3109 -1.9785 0.9813
-3.6768 2.1816 -1.9790 0.9813
-3.8248 1.9146 -1.9798 0.9813
-3.8916 1.7772 -1.9803 0.9813
-1.2017 0.4482 -0.5937 0.9944
-1.1575 0.2954 -0.5529 0.9947
-1.1974 0.2160 -0.5632 0.9947
4.0713 0.0000 -1.9971 0.9820
4.0675 0.1453 -1.9965 0.9820
4.0586 0.2903 -1.9959 0.9820
4.0444 0.4348 -1.9953 0.9820
3.9366 1.0048 -1.9929 0.9821
3.8032 1.4185 -1.9911 0.9821
3.7490 1.5529 -1.9905 0.9821
3.6901 1.6852 -1.9899 0.9821
3.6265 1.8153 -1.9893 0.9821
3.5584 1.9430 -1.9887 0.9821
3.4857 2.0682 -1.9881 0.9821
3.4087 2.1906 -1.9876 0.9821
3.1523 2.5403 -1.9859 0.9821
2.9614 2.7571 -1.9848 0.9821
2.8603 2.8603 -1.9842 0.9821
2.7557 2.9598 -1.9837 0.9821
2.4217 3.2350 -1.9822 0.9822
2.3041 3.3186 -1.9817 0.9822
2.1837 3.3979 -1.9813 0.9822
2.0606 3.4729 -1.9808 0.9822
1.9349 3.5434 -1.9804 0.9822
1.4098 3.7797 -1.9788 0.9822
0.9971 3.9068 -1.9778 0.9822
0.8569 3.9393 -1.9775 0.9822
0.5736 3.9893 -1.9770 0.9822
0.2874 4.0191 -1.9765 0.9822
0.0000 4.0286 -1.9761 0.9822
-0.1438 4.0257 -1.9759 0.9822
-0.3205 2.9809 -1.4706 0.9867
-0.4125 2.8690 -1.4218 0.9872
-0.6904 2.7049 -1.3694 0.9876
-1.1033 2.6635 -1.4142 0.9872
-1.3265 2.6500 -1.4537 0.9869
-1.6945 2.6367 -1.5374 0.9861
-1.8254 2.6290 -1.5700 0.9858
-1.9598 2.6180 -1.6041 0.9855
-2.1003 2.6063 -1.6419 0.9852
-2.2476 2.5939 -1.6836 0.9848
-2.8504 2.8504 -1.9773 0.9822
-3.0474 2.6405 -1.9779 0.9822
-3.2291 2.4173 -1.9786 0.9822
-3.3139 2.3009 -1.9789 0.9822
-3.4709 2.0594 -1.9797 0.9822
-1.0588 0.5300 -0.5808 0.9947
-1.0119 0.3774 -0.5298 0.9952
-1.0025 0.3337 -0.5183 0.9953
-1.0175 0.2987 -0.5202 0.9953
-1.0422 0.2267 -0.5232 0.9953
-1.0518 0.1898 -0.5242 0.9952
-1.0611 0.1526 -0.5258 0.9952
-1.0705 0.1151 -0.5281 0.9952
-1.0769 0.0770 -0.5296 0.9952
-1.0803 0.0386 -0.5302 0.9952
3.8490 0.0000 -1.9968 0.9828
3.8371 0.2744 -1.9957 0.9828
3.8238 0.4111 -1.9951 0.9828
3.8056 0.5471 -1.9946 0.9828
3.7826 0.6825 -1.9940 0.9828
3.7547 0.8168 -1.9934 0.9828
3.7221 0.9500 -1.9929 0.9828
3.6428 1.2124 -1.9917 0.9828
3.5962 1.3413 -1.9912 0.9829
3.5450 1.4684 -1.9906 0.9829
3.4893 1.5935 -1.9900 0.9829
3.4293 1.7166 -1.9895 0.9829
3.2234 2.0716 -1.9878 0.9829
3.1466 2.1847 -1.9873 0.9829
2.9811 2.4023 -1.9862 0.9829
2.8927 2.5065 -1.9857 0.9829
2.8007 2.6075 -1.9852 0.9829
2.5040 2.8898 -1.9837 0.9829
2.3987 2.9766 -1.9832 0.9829
2.2904 3.0596 -1.9827 0.9829
2.1792 3.1387 -1.9823 0.9829
2.0654 3.2138 -1.9819 0.9829
1.8301 3.3515 -1.9810 0.9829
1.7089 3.4140 -1.9806 0.9829
0.8106 3.7262 -1.9783 0.9830
0.6770 3.7523 -1.9780 0.9830
0.2719 3.8018 -1.9773 0.9830
0.1360 3.8087 -1.9771 0.9830
-0.2245 3.1388 -1.6325 0.9859
-0.3178 2.9556 -1.5422 0.9867
-0.4112 2.8598 -1.4989 0.9871
-0.5022 2.7836 -1.4674 0.9873
-0.6885 2.6973 -1.4442 0.9875
-0.8902 2.6746 -1.4624 0.9874
-1.3269 2.6509 -1.5379 0.9867
-1.5166 2.7774 -1.6416 0.9858
-1.5648 2.6374 -1.5909 0.9863
-1.6912 2.6316 -1.6228 0.9860
-1.8214 2.6233 -1.6568 0.9857
-1.9554 2.6121 -1.6928 0.9854
-2.4964 2.8810 -1.9776 0.9830
-2.5979 2.7904 -1.9779 0.9830
-2.6962 2.6962 -1.9781 0.9830
-2.7911 2.5986 -1.9784 0.9830
-2.8825 2.4977 -1.9787 0.9830
-2.9703 2.3936 -1.9790 0.9830
-3.1345 2.1763 -1.9796 0.9830
-0.9208 0.3434 -0.5098 0.9956
-0.9404 0.2761 -0.5085 0.9956
-0.9524 0.2431 -0.5099 0.9956
-0.9785 0.1407 -0.5129 0.9956
-0.9873 0.0706 -0.5135 0.9955
-0.9893 0.0353 -0.5135 0.9955
3.6453 0.0000 -1.9966 0.9835
3.6420 0.1301 -1.9960 0.9835
3.6216 0.3894 -1.9950 0.9835
3.4902 1.0248 -1.9923 0.9835
3.4504 1.1484 -1.9917 0.9836
3.4063 1.2705 -1.9912 0.9836
3.3579 1.3909 -1.9907 0.9836
3.3053 1.5094 -1.9901 0.9836
3.1874 1.7405 -1.9891 0.9836
3.0535 1.9624 -1.9880 0.9836
2.8241 2.2758 -1.9865 0.9836
2.6533 2.4703 -1.9855 0.9836
2.5628 2.5628 -1.9850 0.9836
2.3723 2.7378 -1.9841 0.9836
2.2726 2.8201 -1.9837 0.9836
2.1700 2.8988 -1.9832 0.9836
2.0647 2.9737 -1.9828 0.9836
1.9568 3.0449 -1.9824 0.9836
1.8465 3.1122 -1.9820 0.9836
1.7339 3.1755 -1.9816 0.9836
1.3838 3.3408 -1.9805 0.9836
1.2635 3.3875 -1.9802 0.9836
1.1416 3.4299 -1.9799 0.9836
1.0183 3.4679 -1.9796 0.9837
0.8937 3.5015 -1.9793 0.9837
0.6415 3.5554 -1.9788 0.9837
0.0000 3.6110 -1.9778 0.9837
-0.1289 3.6084 -1.9776 0.9837
-0.2217 3.0997 -1.7021 0.9859
-0.3167 2.9457 -1.6227 0.9866
-0.5006 2.7749 -1.5443 0.9872
-0.5933 2.7273 -1.5287 0.9874
-1.1044 2.6663 -1.5807 0.9869
-1.2144 2.6592 -1.6011 0.9868
-1.3272 2.6513 -1.6239 0.9866
-1.6890 2.6281 -1.7110 0.9859
-2.0595 2.9662 -1.9778 0.9837
-2.3655 2.7299 -1.9784 0.9837
-2.4617 2.6440 -1.9786 0.9837
-2.5548 2.5548 -1.9788 0.9837
-2.6447 2.4623 -1.9791 0.9837
-2.8940 2.1664 -1.9800 0.9836
-2.9700 2.0621 -1.9803 0.9836
-3.0422 1.9551 -1.9806 0.9836
-0.8507 0.4645 -0.5309 0.9956
-0.8506 0.3884 -0.5122 0.9957
-0.8603 0.2863 -0.4966 0.9959
-0.8727 0.2563 -0.4982 0.9959
-0.9077 0.1305 -0.5022 0.9958
-0.9127 0.0981 -0.5028 0.9958
-0.9161 0.0655 -0.5030 0.9958
3.4577 0.0000 -1.9963 0.9842
3.4547 0.1234 -1.9958 0.9842
3.4353 0.3694 -1.9948 0.9842
3.3985 0.6131 -1.9938 0.9842
3.3444 0.8536 -1.9928 0.9842
3.3109 0.9722 -1.9923 0.9842
3.2733 1.0895 -1.9918 0.9842
3.2315 1.2053 -1.9913 0.9842
3.1357 1.4320 -1.9902 0.9842
3.0818 1.5426 -1.9897 0.9842
3.0240 1.6512 -1.9892 0.9842
2.8971 1.8618 -1.9882 0.9842
2.6795 2.1593 -1.9868 0.9842
2.6001 2.2530 -1.9863 0.9842
2.4316 2.4316 -1.9854 0.9842
2.3428 2.5163 -1.9850 0.9842
2.2510 2.5977 -1.9845 0.9842
1.8568 2.8893 -1.9829 0.9843
1.6453 3.0132 -1.9821 0.9843
1.5365 3.0695 -1.9818 0.9843
1.4257 3.1218 -1.9814 0.9843
1.1990 3.2145 -1.9808 0.9843
0.9663 3.2909 -1.9802 0.9843
0.8481 3.3228 -1.9799 0.9843
0.6087 3.3740 -1.9794 0.9843
0.4879 3.3932 -1.9792 0.9843
0.3664 3.4081 -1.9790 0.9843
0.2445 3.4187 -1.9788 0.9843
0.0000 3.4268 -1.9785 0.9843
-0.1223 3.4244 -1.9784 0.9843
-0.2444 3.4177 -1.9782 0.9843
-0.3156 2.9356 -1.7046 0.9865
-0.4085 2.8410 -1.6571 0.9868
-0.5004 2.7738 -1.6273 0.9871
-0.5933 2.7271 -1.6113 0.9872
-0.7869 2.6801 -1.6127 0.9872
-1.1045 2.6665 -1.6664 0.9868
-1.2144 2.6592 -1.6878 0.9866
-1.6421 3.0072 -1.9782 0.9843
-2.1507 2.6688 -1.9789 0.9843
-2.2448 2.5906 -1.9791 0.9843
-2.3361 2.5091 -1.9793 0.9843
-2.5097 2.3366 -1.9798 0.9843
-2.5919 2.2458 -1.9800 0.9843
-0.7634 0.5300 -0.5366 0.9957
-0.7806 0.3908 -0.5040 0.9960
-0.7887 0.2942 -0.4860 0.9961
-0.8230 0.2101 -0.4904 0.9961
-0.8318 0.1810 -0.4915 0.9961
-0.8393 0.1514 -0.4924 0.9961
-0.8499 0.0914 -0.4935 0.9961
