ply
format ascii 1.0
element vertex 783
property float32 x
property float32 y
property float32 z
property float32 I
end_header
-5.7973 3.1656 -0.4843 0.9739
-5.9440 2.9753 -0.4874 0.9737
-5.0097 3.4783 -0.5855 0.9758
-5.0096 3.2195 -0.5717 0.9764
-5.3358 2.6709 -0.5729 0.9763
-4.6552 3.4849 -0.6908 0.9768
-4.7547 2.8211 -0.6567 0.9780
-5.1946 2.6002 -0.6900 0.9769
-5.5098 2.5162 -0.7195 0.9759
-5.8828 2.4367 -0.7564 0.9747
-6.9735 2.3210 -0.8730 0.9708
-1.5114 8.3770 -1.2061 0.9662
-4.4547 3.8600 -0.8352 0.9765
-4.4250 3.5659 -0.8052 0.9773
-4.4154 3.3053 -0.7815 0.9780
-4.4923 2.8870 -0.7566 0.9787
-4.7886 2.6148 -0.7731 0.9782
-5.3732 2.4538 -0.8370 0.9764
-1.5155 8.3997 -1.4061 0.9660
-2.1714 8.5074 -1.4464 0.9650
-4.1516 3.1079 -0.8543 0.9792
-4.5837 2.2944 -0.8444 0.9794
-6.0744 2.2656 -1.0680 0.9741
5.7826 7.7246 -1.8137 0.9615
5.5007 7.9226 -1.8129 0.9615
5.2123 8.1104 -1.8121 0.9615
3.9989 8.7564 -1.8094 0.9616
3.6827 8.8907 -1.8088 0.9616
3.3620 9.0138 -1.8082 0.9616
2.3774 9.3143 -1.8069 0.9616
1.3673 9.5098 -1.8059 0.9617
0.6853 9.5807 -1.8054 0.9617
0.0000 9.6037 -1.8051 0.9617
-0.3428 9.5972 -1.8050 0.9617
-1.1997 8.3442 -1.5845 0.9663
-1.5040 8.3362 -1.5922 0.9661
-2.0417 9.3854 -1.8053 0.9617
-2.7067 9.2181 -1.8058 0.9617
-3.0344 9.1170 -1.8061 0.9616
-3.3585 9.0045 -1.8064 0.9616
-4.3047 8.5997 -1.8076 0.9616
-4.9100 8.2754 -1.8086 0.9616
-5.2039 8.0975 -1.8092 0.9616
-5.4915 7.9093 -1.8098 0.9616
-5.8349 7.7946 -1.8301 0.9611
-3.5750 3.5750 -0.9503 0.9796
-3.7214 3.2246 -0.9255 0.9802
-3.9986 2.7763 -0.9150 0.9804
-4.3701 2.5929 -0.9551 0.9795
-5.1790 2.3652 -1.0702 0.9771
-6.0392 2.2525 -1.2115 0.9741
-6.5385 2.1762 -1.2953 0.9723
9.4043 0.6726 -1.9930 0.9622
8.7904 3.2787 -1.9832 0.9624
8.5241 3.8928 -1.9808 0.9624
8.2152 4.4858 -1.9785 0.9625
8.0453 4.7735 -1.9774 0.9625
7.8655 5.0548 -1.9763 0.9625
7.6759 5.3295 -1.9753 0.9625
7.4768 5.5971 -1.9742 0.9625
7.0513 6.1099 -1.9722 0.9626
6.5910 6.5911 -1.9703 0.9626
6.3487 6.8189 -1.9694 0.9626
5.8376 7.2441 -1.9666 0.9627
5.5658 7.4351 -1.9632 0.9627
4.6186 7.7843 -1.9133 0.9637
2.9954 8.0307 -1.8118 0.9656
1.5203 8.4262 -1.8099 0.9656
1.2184 8.4739 -1.8096 0.9656
0.9150 8.5110 -1.8094 0.9656
0.6106 8.5373 -1.8092 0.9656
0.3055 8.5530 -1.8091 0.9656
0.0000 8.5580 -1.8090 0.9656
-0.3054 8.5522 -1.8089 0.9656
-1.8193 8.3633 -1.8092 0.9656
-3.3143 8.0016 -1.8307 0.9652
-3.6419 7.9746 -1.8531 0.9648
-3.9777 7.9465 -1.8784 0.9643
-4.3231 7.9172 -1.9068 0.9638
-4.6793 7.8866 -1.9384 0.9632
-5.2860 7.6133 -1.9592 0.9628
-3.2894 4.0819 -1.1081 0.9788
-3.2474 3.7477 -1.0482 0.9799
-3.4997 3.0325 -0.9788 0.9812
-3.6064 2.9062 -0.9790 0.9812
-3.7023 2.7715 -0.9776 0.9813
-4.0296 2.5897 -1.0125 0.9806
-4.2113 2.4987 -1.0351 0.9802
-4.7988 2.4021 -1.1344 0.9783
-5.1489 2.3514 -1.1965 0.9771
-5.5468 2.2975 -1.2691 0.9758
-6.5447 2.1783 -1.4580 0.9722
-8.9899 2.6397 -1.9805 0.9624
-9.0837 2.3185 -1.9817 0.9624
-9.1661 1.9940 -1.9828 0.9624
-9.4031 0.3358 -1.9889 0.9623
8.4893 -0.0000 -1.9952 0.9657
8.4264 0.9059 -1.9918 0.9658
8.3840 1.2054 -1.9907 0.9658
8.3310 1.5031 -1.9896 0.9658
8.1934 2.0913 -1.9874 0.9659
8.1091 2.3810 -1.9863 0.9659
8.0146 2.6675 -1.9852 0.9659
7.9100 2.9503 -1.9841 0.9659
7.7954 3.2290 -1.9831 0.9659
7.6712 3.5033 -1.9820 0.9659
7.2416 4.2966 -1.9790 0.9660
6.9098 4.7976 -1.9770 0.9660
6.5438 5.2733 -1.9752 0.9661
6.1454 5.7216 -1.9734 0.9661
5.9347 5.9347 -1.9725 0.9661
5.0218 6.7083 -1.9694 0.9662
4.5272 7.0445 -1.9680 0.9662
3.7428 7.4772 -1.9652 0.9662
3.1930 7.7086 -1.9610 0.9663
2.3398 7.9684 -1.9518 0.9665
2.0397 7.9915 -1.9384 0.9667
1.7418 8.0069 -1.9258 0.9669
1.4468 8.0190 -1.9151 0.9671
0.0000 8.0630 -1.8950 0.9674
-0.2879 8.0627 -1.8961 0.9674
-1.7499 8.0441 -1.9348 0.9667
-2.6297 7.9011 -1.9571 0.9664
-2.9125 7.8088 -1.9587 0.9663
-3.1923 7.7070 -1.9606 0.9663
-4.2664 7.1906 -1.9650 0.9662
-5.0147 6.6988 -1.9666 0.9662
-3.1023 3.8497 -1.1620 0.9799
-3.1117 3.5911 -1.1168 0.9807
-3.2540 3.0296 -1.0449 0.9819
-3.3446 2.8982 -1.0401 0.9820
-3.5725 2.6744 -1.0488 0.9818
-3.7549 2.6071 -1.0743 0.9814
-3.9483 2.5374 -1.1030 0.9809
-4.1930 2.4878 -1.1459 0.9802
-4.4624 2.4366 -1.1949 0.9793
-4.7746 2.3900 -1.2549 0.9783
-5.5366 2.2933 -1.4084 0.9757
-8.1745 2.0864 -1.9828 0.9659
-8.3114 1.4996 -1.9849 0.9659
-8.4380 0.6035 -1.9882 0.9658
-8.4589 0.3021 -1.9893 0.9658
7.7050 0.0000 -1.9950 0.9687
7.6491 0.8223 -1.9919 0.9687
7.6110 1.0943 -1.9909 0.9687
7.5059 1.6328 -1.9889 0.9688
7.4391 1.8987 -1.9879 0.9688
7.3629 2.1620 -1.9869 0.9688
7.0792 2.9323 -1.9840 0.9688
6.8455 3.4266 -1.9821 0.9689
6.7157 3.6670 -1.9811 0.9689
6.5775 3.9026 -1.9802 0.9689
6.2767 4.3580 -1.9785 0.9689
5.7676 4.9976 -1.9760 0.9690
5.3921 5.3921 -1.9744 0.9690
5.1942 5.5790 -1.9736 0.9690
4.7796 5.9311 -1.9722 0.9690
4.3414 6.2528 -1.9709 0.9690
4.1142 6.4017 -1.9703 0.9690
3.6449 6.6751 -1.9692 0.9691
3.4034 6.7991 -1.9686 0.9691
3.1577 6.9145 -1.9681 0.9691
2.3990 7.2077 -1.9668 0.9691
2.1398 7.2873 -1.9665 0.9691
0.8113 7.5464 -1.9651 0.9691
0.5414 7.5699 -1.9650 0.9691
0.2709 7.5839 -1.9649 0.9691
-1.0799 7.5111 -1.9647 0.9691
-1.3474 7.4680 -1.9648 0.9691
-1.8770 7.3539 -1.9651 0.9691
-2.1384 7.2829 -1.9653 0.9691
-2.3973 7.2028 -1.9655 0.9691
-2.6532 7.1136 -1.9658 0.9691
-2.9058 7.0154 -1.9661 0.9691
-3.1549 6.9083 -1.9664 0.9691
-3.4001 6.7926 -1.9667 0.9691
-3.6411 6.6682 -1.9671 0.9691
-4.1094 6.3943 -1.9680 0.9691
-4.5574 6.0879 -1.9690 0.9691
-3.0322 3.7628 -1.2512 0.9802
-3.2374 2.8052 -1.1091 0.9825
-3.3422 2.6933 -1.1114 0.9824
-3.4900 2.6125 -1.1288 0.9821
-4.1770 2.4783 -1.2575 0.9801
-4.4558 2.4331 -1.3145 0.9792
-4.7825 2.3940 -1.3848 0.9781
-6.5476 2.1792 -1.7867 0.9719
-7.3477 2.1575 -1.9828 0.9689
-7.4900 1.6294 -1.9847 0.9688
-7.5471 1.3617 -1.9856 0.9688
-7.6326 0.8206 -1.9876 0.9688
-7.6609 0.5479 -1.9886 0.9688
6.9962 0.7522 -1.9920 0.9712
6.9616 1.0009 -1.9911 0.9712
6.9183 1.2482 -1.9901 0.9712
6.8661 1.4936 -1.9892 0.9712
6.7359 1.9778 -1.9874 0.9712
6.6580 2.2160 -1.9865 0.9713
6.5717 2.4511 -1.9856 0.9713
6.3745 2.9111 -1.9838 0.9713
5.2789 4.5741 -1.9774 0.9714
5.1103 4.7579 -1.9767 0.9714
4.9355 4.9355 -1.9760 0.9714
4.7546 5.1068 -1.9753 0.9714
4.3753 5.4294 -1.9740 0.9714
3.7664 5.8607 -1.9722 0.9715
3.3370 6.1112 -1.9712 0.9715
2.8911 6.3307 -1.9702 0.9715
2.6628 6.4285 -1.9698 0.9715
1.9592 6.6725 -1.9687 0.9715
1.7196 6.7372 -1.9684 0.9715
1.2342 6.8409 -1.9679 0.9715
0.7429 6.9101 -1.9675 0.9715
0.0000 6.9487 -1.9671 0.9715
-0.2480 6.9441 -1.9671 0.9715
-0.4957 6.9307 -1.9671 0.9715
-1.2338 6.8385 -1.9672 0.9715
-1.4771 6.7905 -1.9673 0.9715
-1.7188 6.7339 -1.9674 0.9715
-1.9582 6.6688 -1.9676 0.9715
-2.4295 6.5136 -1.9680 0.9715
-3.5503 5.9838 -1.9697 0.9715
-3.7624 5.8545 -1.9701 0.9715
-3.9699 5.7177 -1.9706 0.9715
-4.1724 5.5738 -1.9710 0.9715
-2.9786 3.1993 -1.2375 0.9820
-3.8996 2.5061 -1.3123 0.9809
-4.1693 2.4738 -1.3724 0.9800
-6.7231 1.9741 -1.9836 0.9713
-6.8528 1.4907 -1.9854 0.9713
-7.0079 0.5012 -1.9890 0.9712
-7.0246 0.2509 -1.9899 0.9712
6.4780 0.2314 -1.9938 0.9732
6.2010 1.8208 -1.9878 0.9733
6.1295 2.0401 -1.9870 0.9733
6.0503 2.2566 -1.9862 0.9733
5.8691 2.6803 -1.9845 0.9734
5.7674 2.8869 -1.9838 0.9734
5.6584 3.0897 -1.9830 0.9734
5.5424 3.2885 -1.9822 0.9734
5.4195 3.4829 -1.9815 0.9734
5.2897 3.6727 -1.9807 0.9734
5.0106 4.0378 -1.9793 0.9734
4.8616 4.2126 -1.9786 0.9734
4.5457 4.5457 -1.9773 0.9735
3.8478 5.1401 -1.9749 0.9735
3.6609 5.2727 -1.9743 0.9735
3.2737 5.5176 -1.9733 0.9735
3.0740 5.6296 -1.9729 0.9735
2.8705 5.7344 -1.9724 0.9735
2.6634 5.8320 -1.9720 0.9735
2.4530 5.9222 -1.9716 0.9735
2.2397 6.0048 -1.9712 0.9735
2.0236 6.0799 -1.9709 0.9735
1.3615 6.2587 -1.9701 0.9736
1.1371 6.3026 -1.9698 0.9736
0.4568 6.3864 -1.9693 0.9736
0.0000 6.4021 -1.9691 0.9736
-0.2285 6.3979 -1.9691 0.9736
-0.4567 6.3855 -1.9691 0.9736
-1.5835 6.2041 -1.9694 0.9736
-1.8041 6.1442 -1.9696 0.9736
-2.0224 6.0764 -1.9698 0.9736
-2.2382 6.0010 -1.9700 0.9736
-2.4513 5.9181 -1.9702 0.9735
-2.6614 5.8276 -1.9705 0.9735
-2.8681 5.7298 -1.9708 0.9735
-3.4661 5.3933 -1.9719 0.9735
-3.6571 5.2672 -1.9723 0.9735
-3.8436 5.1345 -1.9727 0.9735
-2.9612 3.6747 -1.4516 0.9804
-2.9342 3.3863 -1.3782 0.9814
-2.9474 3.1657 -1.3304 0.9821
-3.0063 3.0063 -1.3077 0.9824
-3.0687 2.8571 -1.2896 0.9826
-3.2775 2.6412 -1.2947 0.9825
-3.4411 2.5760 -1.3221 0.9822
-3.6551 2.5378 -1.3686 0.9816
-4.1711 2.4748 -1.4918 0.9799
-4.7858 2.3956 -1.6462 0.9779
-5.8594 2.6759 -1.9813 0.9734
-5.9534 2.4660 -1.9820 0.9734
-6.1189 2.0365 -1.9835 0.9734
-6.2536 1.5961 -1.9851 0.9734
-6.3092 1.3725 -1.9859 0.9733
-6.3567 1.1469 -1.9868 0.9733
-6.4278 0.6910 -1.9884 0.9733
-6.4661 0.2309 -1.9901 0.9733
5.9939 0.2141 -1.9937 0.9750
5.9801 0.4277 -1.9929 0.9750
5.8491 1.2724 -1.9897 0.9751
5.7977 1.4797 -1.9890 0.9751
5.7389 1.6851 -1.9882 0.9751
5.6729 1.8881 -1.9874 0.9751
5.5196 2.2863 -1.9859 0.9751
5.4324 2.4809 -1.9852 0.9751
5.3384 2.6722 -1.9844 0.9751
5.1305 3.0441 -1.9830 0.9752
5.0168 3.2241 -1.9823 0.9752
4.3575 4.0569 -1.9790 0.9752
4.2086 4.2086 -1.9784 0.9752
4.0545 4.3549 -1.9778 0.9752
3.3898 4.8823 -1.9757 0.9753
2.8465 5.2130 -1.9743 0.9753
2.6581 5.3102 -1.9739 0.9753
1.8740 5.6304 -1.9725 0.9753
1.4671 5.7482 -1.9720 0.9753
1.0531 5.8369 -1.9715 0.9753
0.8440 5.8702 -1.9713 0.9753
0.2116 5.9256 -1.9710 0.9753
-0.4230 5.9139 -1.9708 0.9753
-0.8438 5.8688 -1.9709 0.9753
-1.4665 5.7458 -1.9712 0.9753
-1.6708 5.6902 -1.9713 0.9753
-1.8730 5.6274 -1.9715 0.9753
-2.4647 5.3968 -1.9722 0.9753
-2.8442 5.2088 -1.9728 0.9753
-2.9634 3.6774 -1.5699 0.9803
-2.9318 3.1490 -1.4302 0.9820
-2.9878 2.9877 -1.4045 0.9823
-3.0458 2.8357 -1.3833 0.9826
-3.2625 2.6291 -1.3928 0.9825
-3.6572 2.5393 -1.4800 0.9814
-3.9039 2.5089 -1.5426 0.9806
-4.1717 2.4752 -1.6124 0.9798
-5.3304 2.6682 -1.9814 0.9752
-5.4241 2.4771 -1.9821 0.9752
-5.5909 2.0853 -1.9835 0.9752
-5.6638 1.8851 -1.9842 0.9752
-5.7296 1.6824 -1.9850 0.9751
-5.8833 1.0614 -1.9872 0.9751
-5.9197 0.8511 -1.9880 0.9751
-5.9486 0.6395 -1.9888 0.9751
-5.9700 0.4270 -1.9895 0.9751
5.5770 -0.0000 -1.9944 0.9766
5.4782 0.9884 -1.9907 0.9766
5.4375 1.1829 -1.9900 0.9766
5.1318 2.1257 -1.9864 0.9767
4.9637 2.4846 -1.9850 0.9767
4.7706 2.8305 -1.9837 0.9767
4.5536 3.1616 -1.9824 0.9767
4.4364 3.3210 -1.9818 0.9767
4.0524 3.7729 -1.9800 0.9768
3.9140 3.9140 -1.9794 0.9768
3.7708 4.0501 -1.9789 0.9768
3.6229 4.1810 -1.9784 0.9768
3.4704 4.3065 -1.9779 0.9768
3.3137 4.4266 -1.9774 0.9768
3.1528 4.5409 -1.9769 0.9768
2.9881 4.6495 -1.9765 0.9768
2.8196 4.7522 -1.9760 0.9768
2.2941 5.0234 -1.9749 0.9768
1.5549 5.2955 -1.9737 0.9768
0.9796 5.4296 -1.9730 0.9768
0.5897 5.4848 -1.9727 0.9768
0.1969 5.5123 -1.9725 0.9768
0.0000 5.5156 -1.9724 0.9768
-0.3935 5.5014 -1.9724 0.9768
-0.5896 5.4838 -1.9724 0.9768
-1.3642 5.3449 -1.9727 0.9768
-1.5542 5.2932 -1.9728 0.9768
-1.7423 5.2348 -1.9730 0.9768
-2.1117 5.0982 -1.9734 0.9768
-2.4707 4.9358 -1.9739 0.9768
-2.6457 4.8452 -1.9742 0.9768
-2.8174 4.7484 -1.9745 0.9768
-2.9856 4.6456 -1.9748 0.9768
-3.3106 4.4224 -1.9755 0.9768
-2.9707 3.6864 -1.6931 0.9801
-2.9799 2.9799 -1.5070 0.9823
-3.0357 2.8264 -1.4833 0.9825
-3.1398 2.7207 -1.4857 0.9825
-3.2596 2.6268 -1.4970 0.9824
-3.9047 2.5094 -1.6599 0.9805
-4.7641 2.8267 -1.9810 0.9767
-5.1244 2.1226 -1.9835 0.9767
-5.1986 1.9390 -1.9842 0.9767
-5.2663 1.7528 -1.9848 0.9767
-5.3816 1.3736 -1.9862 0.9767
-5.4697 0.9868 -1.9876 0.9767
-5.5035 0.7913 -1.9883 0.9767
-5.5499 0.3969 -1.9898 0.9766
-5.5626 0.1987 -1.9905 0.9766
5.0746 1.1039 -1.9901 0.9780
5.0302 1.2839 -1.9895 0.9780
4.8593 1.8124 -1.9875 0.9780
4.7145 2.1530 -1.9862 0.9780
4.6332 2.3192 -1.9855 0.9780
4.4531 2.6421 -1.9843 0.9781
4.3547 2.7986 -1.9837 0.9781
4.1415 3.1002 -1.9825 0.9781
4.0270 3.2452 -1.9819 0.9781
3.9075 3.3859 -1.9814 0.9781
3.6541 3.6541 -1.9803 0.9781
3.5204 3.7812 -1.9798 0.9781
2.7899 4.3412 -1.9775 0.9781
2.4721 4.5274 -1.9768 0.9781
2.1421 4.6905 -1.9761 0.9782
1.6277 4.8904 -1.9752 0.9782
1.4519 4.9448 -1.9749 0.9782
1.0952 5.0347 -1.9745 0.9782
0.9147 5.0701 -1.9743 0.9782
0.3675 5.1378 -1.9739 0.9782
0.1838 5.1474 -1.9738 0.9782
-0.3674 5.1372 -1.9737 0.9782
-0.7330 5.0980 -1.9738 0.9782
-0.9145 5.0688 -1.9738 0.9782
-1.0949 5.0331 -1.9739 0.9782
-1.2739 4.9911 -1.9740 0.9782
-1.8005 4.8274 -1.9745 0.9782
-1.9719 4.7606 -1.9747 0.9782
-2.3070 4.6088 -1.9751 0.9782
-2.4704 4.5242 -1.9754 0.9782
-2.9412 4.2362 -1.9763 0.9782
-3.0911 4.1292 -1.9767 0.9781
-3.2371 4.0171 -1.9770 0.9781
-3.3791 3.8997 -1.9774 0.9781
-3.0274 2.8186 -1.5852 0.9824
-3.1313 2.7133 -1.5878 0.9824
-3.2586 2.6259 -1.6038 0.9822
-3.4279 2.5661 -1.6410 0.9818
-3.9041 2.5090 -1.7784 0.9803
-4.4475 2.6388 -1.9818 0.9781
-4.5401 2.4791 -1.9824 0.9781
-4.6271 2.3162 -1.9829 0.9781
-4.7082 2.1502 -1.9835 0.9781
-4.8526 1.8099 -1.9847 0.9781
-5.1051 0.9211 -1.9880 0.9780
-5.1364 0.7385 -1.9886 0.9780
-5.1613 0.5549 -1.9893 0.9780
4.8724 -0.0000 -1.9942 0.9792
4.8678 0.1738 -1.9935 0.9792
4.8569 0.3474 -1.9929 0.9792
4.7873 0.8637 -1.9909 0.9792
4.7519 1.0337 -1.9903 0.9792
4.7105 1.2023 -1.9897 0.9792
4.6098 1.5343 -1.9884 0.9792
4.5507 1.6973 -1.9878 0.9792
4.4858 1.8581 -1.9872 0.9792
4.4153 2.0164 -1.9866 0.9792
4.3392 2.1721 -1.9860 0.9792
4.1708 2.4746 -1.9848 0.9793
4.0786 2.6212 -1.9843 0.9793
3.9813 2.7643 -1.9837 0.9793
3.7719 3.0396 -1.9826 0.9793
3.6601 3.1715 -1.9821 0.9793
3.5437 3.2992 -1.9816 0.9793
3.2977 3.5419 -1.9806 0.9793
3.1684 3.6565 -1.9802 0.9793
3.0352 3.7664 -1.9797 0.9793
2.8982 3.8715 -1.9793 0.9793
2.7576 3.9717 -1.9789 0.9793
2.6136 4.0668 -1.9785 0.9793
2.4663 4.1567 -1.9781 0.9793
2.3159 4.2413 -1.9778 0.9793
2.1627 4.3205 -1.9774 0.9793
1.8484 4.4624 -1.9768 0.9793
1.6877 4.5249 -1.9766 0.9793
1.3603 4.6326 -1.9761 0.9793
1.1939 4.6777 -1.9759 0.9794
1.0261 4.7169 -1.9757 0.9794
0.6869 4.7773 -1.9753 0.9794
0.5159 4.7985 -1.9752 0.9794
0.3443 4.8136 -1.9751 0.9794
0.1722 4.8226 -1.9750 0.9794
0.0000 4.8255 -1.9750 0.9794
-0.5158 4.7978 -1.9749 0.9794
-1.0258 4.7155 -1.9751 0.9794
-1.1935 4.6761 -1.9752 0.9794
-1.3597 4.6308 -1.9753 0.9794
-1.6869 4.5227 -1.9756 0.9794
-2.0056 4.3917 -1.9760 0.9793
-2.3144 4.2385 -1.9765 0.9793
-2.6116 4.0638 -1.9770 0.9793
-2.8958 3.8683 -1.9777 0.9793
-3.0326 3.7632 -1.9780 0.9793
-3.1655 3.6532 -1.9784 0.9793
-3.2946 3.5386 -1.9788 0.9793
-3.1302 2.7123 -1.6951 0.9823
-3.2591 2.6263 -1.7131 0.9821
-3.6578 2.5396 -1.8225 0.9809
-3.9026 2.5080 -1.8986 0.9801
-4.3339 2.1694 -1.9836 0.9793
-4.4801 1.8557 -1.9847 0.9793
-4.6038 1.5323 -1.9858 0.9792
-4.6569 1.3674 -1.9864 0.9792
-4.7808 0.8625 -1.9883 0.9792
-4.8611 0.1736 -1.9908 0.9792
4.5234 0.6504 -1.9917 0.9803
4.4960 0.8112 -1.9911 0.9803
4.4628 0.9708 -1.9905 0.9803
4.3296 1.4410 -1.9887 0.9803
3.9993 2.1837 -1.9859 0.9803
3.9177 2.3245 -1.9853 0.9803
3.8312 2.4622 -1.9848 0.9803
3.7399 2.5966 -1.9843 0.9803
3.4383 2.9793 -1.9828 0.9803
3.0980 3.3274 -1.9814 0.9804
2.8515 3.5385 -1.9805 0.9804
2.7228 3.6372 -1.9801 0.9804
2.5908 3.7314 -1.9797 0.9804
2.3171 3.9053 -1.9790 0.9804
2.0319 4.0593 -1.9784 0.9804
1.7367 4.1927 -1.9778 0.9804
1.4328 4.3048 -1.9773 0.9804
1.1218 4.3951 -1.9769 0.9804
0.8052 4.4632 -1.9765 0.9804
0.3235 4.5229 -1.9762 0.9804
-0.1618 4.5311 -1.9760 0.9804
-0.4846 4.5080 -1.9760 0.9804
-0.6453 4.4879 -1.9760 0.9804
-0.9638 4.4307 -1.9762 0.9804
-1.2776 4.3511 -1.9764 0.9804
-1.4322 4.3031 -1.9765 0.9804
-1.7358 4.1906 -1.9768 0.9804
-1.8845 4.1264 -1.9770 0.9804
-2.0307 4.0570 -1.9772 0.9804
-2.3156 3.9027 -1.9777 0.9804
-2.4538 3.8181 -1.9780 0.9804
-2.7207 3.6344 -1.9786 0.9804
-3.0953 3.3245 -1.9796 0.9804
-3.2126 3.2125 -1.9800 0.9804
-3.3258 3.0965 -1.9804 0.9804
-3.5398 2.8525 -1.9813 0.9804
-3.6563 2.5386 -1.9399 0.9808
-3.9133 2.3219 -1.9831 0.9803
-4.0711 2.0378 -1.9841 0.9803
-4.1423 1.8917 -1.9846 0.9803
-4.2083 1.7431 -1.9852 0.9803
-1.5118 0.5639 -0.7032 0.9930
-1.4401 0.4793 -0.6615 0.9934
-1.3955 0.2518 -0.6180 0.9938
-1.4180 0.2039 -0.6244 0.9938
-1.4359 0.1544 -0.6294 0.9937
4.3078 -0.0000 -1.9940 0.9812
4.2333 0.7638 -1.9912 0.9812
4.2022 0.9141 -1.9906 0.9812
4.1239 1.2109 -1.9895 0.9812
4.0769 1.3569 -1.9889 0.9812
3.9676 1.6434 -1.9878 0.9812
3.7662 2.0565 -1.9863 0.9813
3.6894 2.1890 -1.9857 0.9813
3.6080 2.3187 -1.9852 0.9813
3.5221 2.4454 -1.9848 0.9813
3.3371 2.6891 -1.9838 0.9813
3.2382 2.8059 -1.9833 0.9813
3.1353 2.9190 -1.9829 0.9813
3.0284 3.0284 -1.9825 0.9813
2.9178 3.1339 -1.9820 0.9813
2.5646 3.4258 -1.9809 0.9813
2.3128 3.5987 -1.9802 0.9813
1.9139 3.8235 -1.9792 0.9813
1.7760 3.8889 -1.9789 0.9813
1.4937 4.0046 -1.9784 0.9813
1.0567 4.1400 -1.9778 0.9813
0.9082 4.1747 -1.9776 0.9813
0.7585 4.2042 -1.9775 0.9813
0.4566 4.2471 -1.9772 0.9813
0.3047 4.2604 -1.9771 0.9813
0.0000 4.2711 -1.9770 0.9814
-0.3047 4.2601 -1.9770 0.9814
-0.7583 4.2033 -1.9771 0.9814
-0.9079 4.1737 -1.9771 0.9813
-1.0563 4.1388 -1.9772 0.9813
-1.2035 4.0987 -1.9773 0.9813
-1.7751 3.8869 -1.9779 0.9813
-1.9129 3.8215 -1.9781 0.9813
-2.1811 3.6761 -1.9786 0.9813
-2.5627 3.4233 -1.9794 0.9813
-2.6836 3.3302 -1.9797 0.9813
-2.9154 3.1313 -1.9804 0.9813
-3.0258 3.0258 -1.9808 0.9813
-3.1325 2.9164 -1.9811 0.9813
-3.2352 2.8033 -1.9815 0.9813
-3.4284 2.5664 -1.9823 0.9813
-3.5186 2.4430 -1.9828 0.9813
-3.6043 2.3164 -1.9832 0.9813
-3.7621 2.0543 -1.9841 0.9813
-3.8340 1.9192 -1.9846 0.9813
-1.2017 0.4482 -0.5937 0.9944
-1.1575 0.2954 -0.5529 0.9947
-1.1790 0.2565 -0.5585 0.9947
-1.1974 0.2160 -0.5632 0.9947
-1.2124 0.1743 -0.5670 0.9946
-1.2260 0.1318 -0.5708 0.9946
-1.2424 0.0444 -0.5755 0.9945
4.0649 0.0000 -1.9939 0.9821
4.0524 0.2898 -1.9929 0.9821
4.0384 0.4342 -1.9923 0.9821
4.0192 0.5779 -1.9918 0.9821
3.8919 1.1428 -1.9897 0.9821
3.8476 1.2806 -1.9891 0.9821
3.7985 1.4168 -1.9886 0.9821
3.7445 1.5510 -1.9881 0.9821
3.4055 2.1885 -1.9857 0.9821
3.3244 2.3082 -1.9852 0.9821
3.1498 2.5383 -1.9843 0.9821
2.8586 2.8586 -1.9830 0.9821
2.7542 2.9582 -1.9826 0.9822
2.6464 3.0541 -1.9823 0.9822
2.5352 3.1460 -1.9819 0.9822
2.4209 3.2339 -1.9815 0.9822
2.1833 3.3972 -1.9809 0.9822
2.0603 3.4724 -1.9805 0.9822
1.8068 3.6095 -1.9800 0.9822
1.5443 3.7282 -1.9795 0.9822
0.9976 3.9084 -1.9786 0.9822
0.8574 3.9412 -1.9785 0.9822
0.5739 3.9918 -1.9782 0.9822
0.1439 4.0297 -1.9779 0.9822
0.0000 4.0322 -1.9779 0.9822
-0.2876 4.0219 -1.9779 0.9822
-0.4310 4.0090 -1.9779 0.9822
-0.7159 3.9682 -1.9779 0.9822
-1.1361 3.8694 -1.9782 0.9822
-1.2736 3.8266 -1.9783 0.9822
-1.6758 3.6694 -1.9788 0.9822
-1.9337 3.5412 -1.9792 0.9822
-2.1819 3.3951 -1.9796 0.9822
-2.3020 3.3155 -1.9799 0.9822
-2.5334 3.1437 -1.9805 0.9822
-2.8563 2.8562 -1.9814 0.9822
-2.9570 2.7530 -1.9818 0.9822
-3.0539 2.6462 -1.9822 0.9822
-3.1470 2.5360 -1.9825 0.9822
-3.3213 2.3060 -1.9833 0.9821
-1.0119 0.3774 -0.5298 0.9952
-1.0025 0.3337 -0.5183 0.9953
-1.0175 0.2988 -0.5202 0.9953
-1.0307 0.2631 -0.5218 0.9953
-1.0421 0.2267 -0.5232 0.9953
-1.0518 0.1898 -0.5242 0.9952
-1.0705 0.1151 -0.5281 0.9952
3.7775 0.6815 -1.9913 0.9829
3.7498 0.8157 -1.9908 0.9829
3.7174 0.9488 -1.9903 0.9829
3.5410 1.4667 -1.9884 0.9829
3.4856 1.5918 -1.9879 0.9829
3.3616 1.8356 -1.9870 0.9829
3.2206 2.0697 -1.9861 0.9829
3.1440 2.1829 -1.9856 0.9829
3.0634 2.2932 -1.9852 0.9829
2.9790 2.4006 -1.9848 0.9829
2.7990 2.6059 -1.9840 0.9829
2.6049 2.7979 -1.9832 0.9829
2.5030 2.8885 -1.9828 0.9829
2.2897 3.0587 -1.9821 0.9829
2.1787 3.1379 -1.9818 0.9829
2.0650 3.2132 -1.9815 0.9829
1.9487 3.2844 -1.9812 0.9829
1.8300 3.3514 -1.9809 0.9829
1.7090 3.4141 -1.9807 0.9829
0.9436 3.6970 -1.9794 0.9830
0.8110 3.7280 -1.9793 0.9830
0.6774 3.7543 -1.9791 0.9830
0.5429 3.7759 -1.9790 0.9830
0.2721 3.8046 -1.9788 0.9830
-0.1361 3.8117 -1.9787 0.9830
-0.2721 3.8044 -1.9787 0.9830
-0.4077 3.7922 -1.9787 0.9830
-0.5428 3.7753 -1.9787 0.9830
-0.6772 3.7536 -1.9787 0.9830
-0.8108 3.7271 -1.9788 0.9830
-1.0747 3.6601 -1.9790 0.9830
-1.3332 3.5746 -1.9792 0.9830
-1.4601 3.5250 -1.9794 0.9830
-1.5851 3.4709 -1.9795 0.9830
-1.7081 3.4124 -1.9797 0.9830
-1.8290 3.3496 -1.9799 0.9829
-2.1774 3.1360 -1.9806 0.9829
-2.3962 2.9735 -1.9811 0.9829
-2.5012 2.8865 -1.9814 0.9829
-2.7016 2.7016 -1.9821 0.9829
-2.7967 2.6039 -1.9824 0.9829
-2.9764 2.3986 -1.9831 0.9829
-0.9486 0.5180 -0.5607 0.9951
-0.9326 0.4259 -0.5319 0.9954
-0.9271 0.3840 -0.5206 0.9955
-0.9208 0.3434 -0.5098 0.9956
-0.9268 0.3085 -0.5067 0.9956
-0.9524 0.2431 -0.5099 0.9956
-0.9628 0.2094 -0.5112 0.9956
-0.9715 0.1753 -0.5121 0.9956
-0.9873 0.0706 -0.5135 0.9955
3.6371 0.1299 -1.9933 0.9835
3.5998 0.5176 -1.9919 0.9836
3.5213 0.8988 -1.9905 0.9836
3.4862 1.0236 -1.9900 0.9836
3.4027 1.2691 -1.9891 0.9836
3.3544 1.3894 -1.9886 0.9836
3.1198 1.8510 -1.9868 0.9836
3.0511 1.9608 -1.9864 0.9836
2.9022 2.1726 -1.9856 0.9836
2.8223 2.2743 -1.9852 0.9836
2.6518 2.4689 -1.9844 0.9836
2.3714 2.7367 -1.9834 0.9836
2.0643 2.9731 -1.9824 0.9836
1.8464 3.1119 -1.9818 0.9836
1.3840 3.3413 -1.9808 0.9836
1.2637 3.3882 -1.9806 0.9836
1.1419 3.4309 -1.9804 0.9836
1.0186 3.4691 -1.9803 0.9836
0.8941 3.5030 -1.9801 0.9836
0.7685 3.5324 -1.9800 0.9836
0.6418 3.5574 -1.9798 0.9836
0.5144 3.5778 -1.9797 0.9837
0.3864 3.5937 -1.9796 0.9837
-0.1290 3.6117 -1.9794 0.9837
-0.3863 3.5933 -1.9794 0.9837
-0.7683 3.5316 -1.9795 0.9837
-0.8938 3.5021 -1.9796 0.9837
-1.0183 3.4681 -1.9797 0.9837
-1.1415 3.4297 -1.9798 0.9836
-1.2633 3.3870 -1.9799 0.9836
-1.3835 3.3400 -1.9801 0.9836
-1.5019 3.2888 -1.9802 0.9836
-1.7330 3.1738 -1.9806 0.9836
-1.8454 3.1102 -1.9808 0.9836
-1.9554 3.0427 -1.9810 0.9836
-2.1681 2.8962 -1.9815 0.9836
-2.4662 2.6490 -1.9823 0.9836
-2.5596 2.5596 -1.9826 0.9836
-2.6498 2.4670 -1.9829 0.9836
-2.8998 2.1708 -1.9840 0.9836
-2.9760 2.0663 -1.9843 0.9836
-0.8524 0.5057 -0.5428 0.9955
-0.8507 0.4645 -0.5309 0.9956
-0.8516 0.4262 -0.5216 0.9957
-0.8506 0.3885 -0.5122 0.9957
-0.8465 0.3157 -0.4948 0.9959
-0.8727 0.2562 -0.4982 0.9959
-0.8837 0.2255 -0.4995 0.9958
-0.8932 0.1943 -0.5006 0.9958
-0.9077 0.1305 -0.5022 0.9958
-0.9161 0.0655 -0.5030 0.9958
-0.9179 0.0328 -0.5031 0.9958
3.4533 0.0000 -1.9938 0.9842
3.4503 0.1232 -1.9933 0.9842
3.2699 1.0883 -1.9897 0.9842
3.1825 1.3182 -1.9888 0.9842
3.0791 1.5413 -1.9880 0.9842
3.0215 1.6498 -1.9875 0.9842
2.9600 1.7562 -1.9871 0.9842
2.8261 1.9621 -1.9863 0.9842
2.7537 2.0614 -1.9860 0.9842
2.0585 2.7499 -1.9832 0.9843
1.9588 2.8212 -1.9829 0.9843
1.7521 2.9529 -1.9824 0.9843
1.5366 3.0696 -1.9819 0.9843
1.1992 3.2153 -1.9813 0.9843
1.0836 3.2557 -1.9811 0.9843
0.9666 3.2921 -1.9809 0.9843
0.8485 3.3242 -1.9808 0.9843
0.7292 3.3521 -1.9806 0.9843
0.6091 3.3758 -1.9805 0.9843
0.3666 3.4103 -1.9803 0.9843
0.2447 3.4211 -1.9802 0.9843
0.1224 3.4276 -1.9802 0.9843
0.0000 3.4297 -1.9801 0.9843
-0.1224 3.4274 -1.9801 0.9843
-0.2447 3.4209 -1.9801 0.9843
-0.3666 3.4100 -1.9801 0.9843
-0.4881 3.3947 -1.9801 0.9843
-0.6089 3.3752 -1.9802 0.9843
-0.8482 3.3234 -1.9803 0.9843
-0.9663 3.2911 -1.9804 0.9843
-1.5359 3.0683 -1.9810 0.9843
-1.6446 3.0118 -1.9812 0.9843
-1.8556 2.8874 -1.9816 0.9843
-1.9577 2.8196 -1.9818 0.9843
-2.1544 2.6734 -1.9823 0.9843
-2.3402 2.5136 -1.9828 0.9843
-2.4288 2.4288 -1.9831 0.9843
-2.5143 2.3409 -1.9834 0.9843
-2.5967 2.2501 -1.9837 0.9843
-0.7696 0.4946 -0.5282 0.9958
-0.7750 0.4599 -0.5203 0.9958
-0.7806 0.3908 -0.5040 0.9960
-0.7809 0.3566 -0.4957 0.9960
-0.8014 0.2667 -0.4876 0.9961
-0.8128 0.2387 -0.4891 0.9961
-0.8230 0.2100 -0.4904 0.9961
-0.8392 0.1514 -0.4924 0.9961
