ply
format ascii 1.0
element vertex 719
property float32 x
property float32 y
property float32 z
property float32 I
end_header
-9.3089 -0.3325 -1.9690 0.9626
-9.2715 -0.9968 -1.9711 0.9626
-9.2352 -1.3278 -1.9722 0.9626
-9.1275 -1.9856 -1.9745 0.9625
-9.0562 -2.3115 -1.9757 0.9625
-8.9734 -2.6348 -1.9769 0.9625
-8.5285 -3.8949 -1.9819 0.9624
-8.3895 -4.1995 -1.9831 0.9624
-8.0791 -4.7936 -1.9857 0.9623
-6.4357 -6.9124 -1.9964 0.9621
-6.1890 -7.1424 -1.9977 0.9621
-5.9340 -7.3637 -1.9990 0.9621
-5.6711 -7.5757 -2.0003 0.9620
-5.4006 -7.7784 -2.0017 0.9620
-5.1229 -7.9713 -2.0029 0.9620
-4.8382 -8.1543 -2.0042 0.9620
-4.5469 -8.3271 -2.0055 0.9620
-4.2494 -8.4893 -2.0067 0.9619
-3.9462 -8.6409 -2.0080 0.9619
-3.0052 -9.0292 -2.0115 0.9618
-2.6825 -9.1359 -2.0127 0.9618
-2.3561 -9.2309 -2.0138 0.9618
-1.3579 -9.4448 -2.0170 0.9617
-0.6814 -9.5268 -2.0189 0.9617
-0.0000 -9.5598 -2.0207 0.9617
0.6826 -9.5433 -2.0224 0.9616
1.3627 -9.4774 -2.0239 0.9616
1.7006 -9.4260 -2.0246 0.9616
2.0366 -9.3623 -2.0253 0.9616
2.3702 -9.2864 -2.0259 0.9616
2.7009 -9.1985 -2.0265 0.9616
3.0283 -9.0986 -2.0270 0.9616
3.3519 -8.9868 -2.0275 0.9615
3.6713 -8.8633 -2.0279 0.9615
3.9861 -8.7283 -2.0283 0.9615
4.6000 -8.4242 -2.0289 0.9615
5.1903 -8.0763 -2.0293 0.9615
5.7539 -7.6863 -2.0295 0.9615
6.0247 -7.4762 -2.0296 0.9615
6.5425 -7.0271 -2.0295 0.9615
7.0262 -6.5416 -2.0292 0.9615
7.2545 -6.2860 -2.0290 0.9615
7.4733 -6.0223 -2.0288 0.9615
7.8813 -5.4721 -2.0281 0.9615
8.2482 -4.8939 -2.0273 0.9615
8.5719 -4.2908 -2.0263 0.9616
8.9732 -3.3468 -2.0244 0.9616
9.0837 -3.0233 -2.0237 0.9616
9.1824 -2.6962 -2.0229 0.9616
9.4567 -1.3597 -2.0195 0.9617
-8.3820 -0.2994 -1.9712 0.9661
-8.3142 -1.1954 -1.9741 0.9661
-8.2705 -1.4922 -1.9752 0.9661
-7.9913 -2.6598 -1.9794 0.9660
-7.8957 -2.9449 -1.9805 0.9660
-7.7900 -3.2267 -1.9817 0.9659
-7.6743 -3.5047 -1.9828 0.9659
-7.5487 -3.7786 -1.9840 0.9659
-7.4134 -4.0480 -1.9851 0.9659
-7.2685 -4.3126 -1.9863 0.9659
-7.1142 -4.5720 -1.9875 0.9658
-6.7780 -5.0740 -1.9899 0.9658
-6.0014 -6.0014 -1.9947 0.9657
-5.3350 -6.6204 -1.9983 0.9657
-4.6048 -7.1653 -2.0018 0.9656
-4.3487 -7.3293 -2.0029 0.9656
-3.5462 -7.7651 -2.0063 0.9655
-3.2686 -7.8911 -2.0074 0.9655
-2.7002 -8.1126 -2.0095 0.9655
-2.4101 -8.2081 -2.0105 0.9655
-1.2198 -8.4837 -2.0144 0.9654
0.0000 -8.5854 -2.0178 0.9653
0.3066 -8.5832 -2.0185 0.9653
0.9187 -8.5455 -2.0200 0.9653
1.2236 -8.5100 -2.0206 0.9653
1.5270 -8.4635 -2.0212 0.9653
1.8286 -8.4061 -2.0218 0.9653
2.1281 -8.3377 -2.0224 0.9653
2.4249 -8.2585 -2.0229 0.9653
3.0092 -8.0680 -2.0238 0.9652
3.2959 -7.9570 -2.0242 0.9652
4.3972 -7.4110 -2.0253 0.9652
4.6593 -7.2500 -2.0254 0.9652
4.9154 -7.0795 -2.0256 0.9652
6.0941 -6.0941 -2.0255 0.9652
6.5123 -5.6429 -2.0252 0.9652
6.7088 -5.4063 -2.0250 0.9652
7.0754 -4.9125 -2.0244 0.9652
7.6961 -3.8524 -2.0227 0.9653
7.9470 -3.2918 -2.0216 0.9653
8.0571 -3.0051 -2.0210 0.9653
8.1566 -2.7148 -2.0204 0.9653
8.2456 -2.4211 -2.0197 0.9653
8.3912 -1.8254 -2.0183 0.9653
8.4934 -1.2212 -2.0167 0.9654
8.5279 -0.9168 -2.0158 0.9654
8.5515 -0.6116 -2.0149 0.9654
8.5641 -0.3059 -2.0140 0.9654
-7.6044 -0.5439 -1.9739 0.9690
-7.3357 -2.1540 -1.9795 0.9689
-7.2578 -2.4157 -1.9805 0.9689
-6.9689 -3.1826 -1.9836 0.9688
-6.5993 -3.9155 -1.9868 0.9688
-6.4588 -4.1508 -1.9879 0.9688
-6.3100 -4.3811 -1.9890 0.9688
-5.8150 -5.0387 -1.9922 0.9687
-5.6345 -5.2460 -1.9933 0.9687
-5.4467 -5.4467 -1.9944 0.9687
-4.8411 -6.0075 -1.9976 0.9686
-4.4049 -6.3443 -1.9998 0.9686
-4.1779 -6.5009 -2.0008 0.9686
-3.4644 -6.9209 -2.0039 0.9685
-2.7087 -7.2623 -2.0069 0.9685
-2.4489 -7.3578 -2.0078 0.9685
-2.1857 -7.4440 -2.0087 0.9685
-1.9195 -7.5206 -2.0097 0.9684
-0.8311 -7.7303 -2.0130 0.9684
1.3842 -7.6719 -2.0185 0.9683
1.6575 -7.6196 -2.0190 0.9683
2.1979 -7.4855 -2.0199 0.9683
2.7274 -7.3125 -2.0208 0.9683
2.9872 -7.2118 -2.0211 0.9683
3.2432 -7.1016 -2.0214 0.9683
3.4951 -6.9823 -2.0217 0.9683
3.7425 -6.8539 -2.0219 0.9682
4.4547 -6.4160 -2.0224 0.9682
4.6810 -6.2531 -2.0224 0.9682
5.3226 -5.7169 -2.0224 0.9682
5.5230 -5.5230 -2.0223 0.9682
5.7162 -5.3220 -2.0222 0.9682
5.9021 -5.1142 -2.0220 0.9682
6.0802 -4.8998 -2.0218 0.9682
6.5664 -4.2200 -2.0210 0.9683
6.9757 -3.4918 -2.0198 0.9683
7.0943 -3.2398 -2.0193 0.9683
7.2036 -2.9838 -2.0188 0.9683
7.4748 -2.1948 -2.0171 0.9683
7.5460 -1.9260 -2.0164 0.9683
7.6589 -1.3818 -2.0150 0.9684
7.7005 -1.1072 -2.0143 0.9684
7.7656 -0.2773 -2.0119 0.9684
-6.9707 -0.2490 -1.9746 0.9714
-6.8301 -1.4858 -1.9788 0.9714
-6.7757 -1.7294 -1.9797 0.9713
-6.7127 -1.9710 -1.9806 0.9713
-6.6412 -2.2104 -1.9815 0.9713
-6.3759 -2.9118 -1.9843 0.9713
-6.2709 -3.1390 -1.9852 0.9713
-6.1579 -3.3625 -1.9862 0.9713
-5.3183 -4.6083 -1.9922 0.9712
-4.8024 -5.1581 -1.9951 0.9711
-4.6175 -5.3289 -1.9961 0.9711
-4.0273 -5.8005 -1.9991 0.9711
-3.8196 -5.9434 -2.0000 0.9711
-3.6067 -6.0788 -2.0010 0.9710
-3.3890 -6.2066 -2.0019 0.9710
-2.9403 -6.4385 -2.0038 0.9710
-2.4757 -6.6377 -2.0055 0.9710
-1.9976 -6.8033 -2.0073 0.9710
-1.2605 -6.9862 -2.0097 0.9709
-1.0107 -7.0294 -2.0104 0.9709
0.2539 -7.1093 -2.0139 0.9709
0.5076 -7.0979 -2.0145 0.9709
0.7609 -7.0772 -2.0151 0.9708
1.5142 -6.9607 -2.0166 0.9708
1.7621 -6.9038 -2.0171 0.9708
2.2510 -6.7632 -2.0179 0.9708
2.4914 -6.6797 -2.0182 0.9708
2.7286 -6.5875 -2.0185 0.9708
2.9625 -6.4869 -2.0188 0.9708
3.1925 -6.3778 -2.0191 0.9708
3.8570 -6.0015 -2.0196 0.9708
4.0689 -5.8603 -2.0197 0.9708
4.4768 -5.5554 -2.0198 0.9708
4.8616 -5.2217 -2.0197 0.9708
5.3910 -4.6713 -2.0194 0.9708
5.8575 -4.0669 -2.0187 0.9708
5.9981 -3.8547 -2.0184 0.9708
6.1308 -3.6376 -2.0181 0.9708
6.2556 -3.4158 -2.0177 0.9708
6.4807 -2.9596 -2.0169 0.9708
6.5807 -2.7258 -2.0164 0.9708
6.8290 -2.0052 -2.0149 0.9708
6.9505 -1.5120 -2.0137 0.9709
7.0361 -1.0116 -2.0123 0.9709
7.0853 -0.5067 -2.0109 0.9709
7.0962 -0.2534 -2.0102 0.9709
-6.4219 0.0000 -1.9753 0.9735
-6.4201 -0.2293 -1.9760 0.9735
-6.3660 -0.9153 -1.9782 0.9734
-6.3318 -1.1424 -1.9790 0.9734
-6.2895 -1.3682 -1.9798 0.9734
-6.1149 -2.0352 -1.9823 0.9734
-5.9593 -2.4684 -1.9840 0.9734
-5.6689 -3.0954 -1.9866 0.9733
-5.5573 -3.2973 -1.9875 0.9733
-5.1801 -3.8778 -1.9903 0.9733
-5.0407 -4.0621 -1.9912 0.9733
-4.8948 -4.2413 -1.9921 0.9733
-4.5840 -4.5839 -1.9939 0.9732
-4.4194 -4.7468 -1.9948 0.9732
-4.0732 -5.0546 -1.9967 0.9732
-3.8920 -5.1991 -1.9976 0.9732
-3.7056 -5.3371 -1.9985 0.9732
-3.1180 -5.7101 -2.0011 0.9731
-2.7050 -5.9230 -2.0028 0.9731
-2.2774 -6.1059 -2.0044 0.9731
-1.3874 -6.3776 -2.0075 0.9731
-1.1593 -6.4254 -2.0082 0.9730
-0.9295 -6.4649 -2.0089 0.9730
-0.4663 -6.5191 -2.0103 0.9730
-0.2333 -6.5336 -2.0109 0.9730
0.0000 -6.5398 -2.0115 0.9730
0.2335 -6.5375 -2.0121 0.9730
0.9317 -6.4802 -2.0137 0.9730
1.1627 -6.4443 -2.0141 0.9730
1.6202 -6.3477 -2.0150 0.9730
1.8460 -6.2870 -2.0154 0.9730
2.0696 -6.2182 -2.0157 0.9729
2.2906 -6.1414 -2.0161 0.9729
2.5087 -6.0566 -2.0164 0.9729
2.9351 -5.8636 -2.0168 0.9729
3.3465 -5.6402 -2.0172 0.9729
3.5459 -5.5176 -2.0173 0.9729
4.1158 -5.1074 -2.0175 0.9729
4.4695 -4.8006 -2.0175 0.9729
4.8002 -4.4691 -2.0173 0.9729
5.1060 -4.1147 -2.0170 0.9729
5.3853 -3.7391 -2.0165 0.9729
5.5146 -3.5440 -2.0163 0.9729
5.6368 -3.3444 -2.0159 0.9729
5.7516 -3.1406 -2.0156 0.9729
6.0508 -2.5063 -2.0144 0.9730
6.2795 -1.8438 -2.0130 0.9730
6.3396 -1.6181 -2.0124 0.9730
6.3915 -1.3904 -2.0119 0.9730
6.4975 -0.6986 -2.0100 0.9730
6.5162 -0.4660 -2.0094 0.9730
6.5264 -0.2331 -2.0087 0.9730
-5.9441 -0.2123 -1.9771 0.9752
-5.9347 -0.4245 -1.9778 0.9752
-5.8616 -1.0576 -1.9799 0.9752
-5.8223 -1.2666 -1.9806 0.9752
-5.7756 -1.4741 -1.9814 0.9752
-5.5915 -2.0855 -1.9837 0.9752
-5.5158 -2.2847 -1.9845 0.9751
-5.4329 -2.4811 -1.9853 0.9751
-5.3431 -2.6746 -1.9862 0.9751
-5.2464 -2.8648 -1.9870 0.9751
-4.6643 -3.7587 -1.9912 0.9751
-4.5291 -3.9245 -1.9921 0.9751
-4.2412 -4.2412 -1.9937 0.9750
-3.6005 -4.8097 -1.9971 0.9750
-3.0695 -5.1734 -1.9996 0.9750
-2.8840 -5.2817 -2.0004 0.9750
-2.6947 -5.3834 -2.0012 0.9749
-2.5019 -5.4783 -2.0019 0.9749
-2.3056 -5.5662 -2.0027 0.9749
-1.0720 -5.9417 -2.0070 0.9749
-0.2158 -6.0412 -2.0094 0.9748
0.2159 -6.0446 -2.0105 0.9748
0.8614 -5.9912 -2.0120 0.9748
1.2872 -5.9170 -2.0128 0.9748
1.4978 -5.8684 -2.0132 0.9748
1.7066 -5.8122 -2.0136 0.9748
1.9133 -5.7485 -2.0139 0.9748
2.3192 -5.5990 -2.0145 0.9748
2.5178 -5.5133 -2.0147 0.9748
2.9053 -5.3206 -2.0151 0.9748
3.2779 -5.1005 -2.0154 0.9748
3.4580 -4.9805 -2.0155 0.9748
3.9707 -4.5825 -2.0155 0.9748
4.1317 -4.4377 -2.0155 0.9748
4.4374 -4.1313 -2.0153 0.9748
4.5817 -3.9701 -2.0152 0.9748
5.0980 -3.2763 -2.0144 0.9748
5.2110 -3.0918 -2.0141 0.9748
5.6720 -2.1155 -2.0123 0.9748
5.8058 -1.7047 -2.0114 0.9748
5.8615 -1.4961 -2.0109 0.9748
5.9830 -0.8602 -2.0092 0.9748
6.0351 -0.2155 -2.0074 0.9749
-5.5298 0.0000 -1.9775 0.9768
-5.5280 -0.1974 -1.9781 0.9768
-5.5192 -0.3947 -1.9787 0.9768
-5.4805 -0.7880 -1.9800 0.9768
-5.3201 -1.5621 -1.9828 0.9767
-5.2628 -1.7517 -1.9835 0.9767
-5.1283 -2.1242 -1.9850 0.9767
-4.9675 -2.4866 -1.9865 0.9767
-4.7812 -2.8368 -1.9881 0.9767
-4.5702 -3.1731 -1.9896 0.9766
-4.4558 -3.3356 -1.9904 0.9766
-4.3356 -3.4938 -1.9912 0.9766
-4.2098 -3.6478 -1.9920 0.9766
-3.8003 -4.0818 -1.9944 0.9766
-3.5021 -4.3459 -1.9959 0.9766
-3.3461 -4.4698 -1.9967 0.9766
-3.1856 -4.5882 -1.9975 0.9766
-2.8524 -4.8074 -1.9990 0.9765
-2.3247 -5.0904 -2.0012 0.9765
-1.5788 -5.3768 -2.0039 0.9765
-1.3863 -5.4315 -2.0046 0.9765
-0.9959 -5.5200 -2.0059 0.9765
-0.4005 -5.5997 -2.0076 0.9764
-0.2004 -5.6119 -2.0082 0.9764
0.0000 -5.6170 -2.0087 0.9764
0.2005 -5.6148 -2.0092 0.9764
0.6008 -5.5887 -2.0101 0.9764
1.3912 -5.4506 -2.0117 0.9764
1.7771 -5.3392 -2.0123 0.9764
1.9668 -5.2731 -2.0126 0.9764
2.1540 -5.2002 -2.0128 0.9764
2.3385 -5.1205 -2.0131 0.9764
2.5200 -5.0343 -2.0133 0.9764
3.0443 -4.7371 -2.0137 0.9764
3.3747 -4.5081 -2.0138 0.9764
3.8372 -4.1215 -2.0138 0.9764
3.9818 -3.9818 -2.0137 0.9764
4.1212 -3.8370 -2.0136 0.9764
4.2553 -3.6872 -2.0135 0.9764
4.5067 -3.3737 -2.0132 0.9764
4.6238 -3.2104 -2.0130 0.9764
4.7349 -3.0429 -2.0127 0.9764
4.8399 -2.8716 -2.0125 0.9764
5.0309 -2.5183 -2.0119 0.9764
5.3341 -1.7753 -2.0104 0.9764
5.5578 -0.7991 -2.0080 0.9764
5.5975 -0.4004 -2.0068 0.9764
5.6066 -0.2002 -2.0062 0.9764
-5.1627 0.0000 -1.9784 0.9781
-5.1609 -0.1843 -1.9790 0.9781
-5.1525 -0.3685 -1.9796 0.9781
-5.1376 -0.5523 -1.9802 0.9781
-5.0883 -0.9180 -1.9814 0.9781
-4.9125 -1.6350 -1.9841 0.9781
-4.8526 -1.8099 -1.9848 0.9781
-4.7145 -2.1530 -1.9862 0.9780
-4.6363 -2.3208 -1.9869 0.9780
-4.5521 -2.4857 -1.9876 0.9780
-4.3664 -2.8061 -1.9890 0.9780
-4.0459 -3.2604 -1.9912 0.9780
-3.8058 -3.5433 -1.9927 0.9780
-3.5459 -3.8086 -1.9942 0.9780
-3.2676 -4.0548 -1.9956 0.9779
-3.1219 -4.1704 -1.9964 0.9779
-2.9721 -4.2807 -1.9971 0.9779
-2.6611 -4.4850 -1.9985 0.9779
-2.5002 -4.5787 -1.9992 0.9779
-2.3359 -4.6666 -1.9999 0.9779
-2.1686 -4.7486 -2.0005 0.9779
-1.9984 -4.8246 -2.0012 0.9779
-1.8255 -4.8944 -2.0018 0.9779
-1.2931 -5.0662 -2.0037 0.9779
-0.7448 -5.1799 -2.0055 0.9778
-0.5596 -5.2046 -2.0060 0.9778
-0.3735 -5.2226 -2.0065 0.9778
-0.1869 -5.2340 -2.0070 0.9778
0.3739 -5.2276 -2.0084 0.9778
0.5604 -5.2120 -2.0088 0.9778
0.7462 -5.1897 -2.0092 0.9778
0.9311 -5.1608 -2.0096 0.9778
1.6571 -4.9789 -2.0109 0.9778
2.0086 -4.8492 -2.0114 0.9778
2.3499 -4.6944 -2.0118 0.9778
2.5161 -4.6079 -2.0119 0.9778
2.6792 -4.5154 -2.0121 0.9778
2.9947 -4.3132 -2.0122 0.9778
3.2949 -4.0887 -2.0123 0.9778
3.7129 -3.7129 -2.0122 0.9778
3.8429 -3.5779 -2.0121 0.9778
3.9679 -3.4382 -2.0120 0.9778
4.0879 -3.2942 -2.0119 0.9778
4.2025 -3.1459 -2.0117 0.9778
4.3117 -2.9936 -2.0115 0.9778
4.4153 -2.8375 -2.0113 0.9778
4.5132 -2.6778 -2.0111 0.9778
4.6053 -2.5147 -2.0108 0.9778
4.6915 -2.3484 -2.0105 0.9778
4.8454 -2.0071 -2.0099 0.9778
4.9131 -1.8325 -2.0095 0.9778
4.9744 -1.6556 -2.0091 0.9778
5.1196 -1.1137 -2.0078 0.9778
5.1835 -0.7453 -2.0068 0.9778
5.2055 -0.5596 -2.0063 0.9778
5.2208 -0.3734 -2.0058 0.9778
5.2293 -0.1868 -2.0053 0.9778
-4.8360 0.0000 -1.9793 0.9793
-4.8342 -0.1727 -1.9798 0.9793
-4.7659 -0.8599 -1.9821 0.9793
-4.7336 -1.0297 -1.9827 0.9793
-4.4827 -1.8568 -1.9858 0.9792
-4.4151 -2.0163 -1.9865 0.9792
-4.0887 -2.6277 -1.9892 0.9792
-3.9937 -2.7729 -1.9899 0.9792
-3.8935 -2.9147 -1.9906 0.9792
-3.5634 -3.3176 -1.9926 0.9792
-3.4439 -3.4439 -1.9933 0.9792
-3.3199 -3.5658 -1.9940 0.9792
-3.0591 -3.7962 -1.9954 0.9791
-2.6385 -4.1056 -1.9974 0.9791
-2.1866 -4.3683 -1.9993 0.9791
-1.7087 -4.5813 -2.0012 0.9791
-1.3784 -4.6943 -2.0024 0.9791
-1.2103 -4.7418 -2.0029 0.9791
-0.6970 -4.8480 -2.0046 0.9791
-0.3496 -4.8878 -2.0056 0.9790
0.1750 -4.9005 -2.0069 0.9790
0.3499 -4.8921 -2.0073 0.9790
0.8713 -4.8294 -2.0085 0.9790
1.0433 -4.7960 -2.0088 0.9790
1.2140 -4.7564 -2.0091 0.9790
1.3832 -4.7107 -2.0094 0.9790
1.5507 -4.6590 -2.0097 0.9790
1.8795 -4.5375 -2.0101 0.9790
2.1988 -4.3927 -2.0105 0.9790
2.6563 -4.1332 -2.0108 0.9790
2.8022 -4.0359 -2.0109 0.9790
3.0831 -3.8258 -2.0110 0.9790
3.9324 -2.9437 -2.0104 0.9790
4.0346 -2.8012 -2.0102 0.9790
4.3095 -2.3531 -2.0096 0.9790
4.4651 -2.0391 -2.0090 0.9790
4.5977 -1.7148 -2.0083 0.9790
4.6551 -1.5494 -2.0080 0.9790
4.7065 -1.3820 -2.0076 0.9790
4.8243 -0.8704 -2.0063 0.9790
4.8718 -0.5238 -2.0054 0.9790
4.8861 -0.3495 -2.0049 0.9791
-1.4571 -0.0520 -0.6354 0.9937
-1.4490 -0.1036 -0.6331 0.9937
-1.4180 -0.2039 -0.6244 0.9938
-1.3955 -0.2518 -0.6180 0.9938
-1.3688 -0.2978 -0.6105 0.9939
-1.3400 -0.3420 -0.6027 0.9940
-1.4401 -0.4793 -0.6615 0.9934
-4.2105 -1.7440 -1.9862 0.9803
-4.1468 -1.8938 -1.9868 0.9803
-4.0779 -2.0412 -1.9874 0.9803
-4.0037 -2.1862 -1.9881 0.9803
-3.8400 -2.4678 -1.9893 0.9803
-3.6565 -2.7372 -1.9906 0.9803
-3.4542 -2.9930 -1.9919 0.9803
-3.3462 -3.1154 -1.9926 0.9802
-2.9969 -3.4587 -1.9945 0.9802
-2.8725 -3.5646 -1.9951 0.9802
-2.1974 -4.0242 -1.9982 0.9802
-1.9058 -4.1732 -1.9994 0.9802
-1.7562 -4.2398 -2.0000 0.9802
-1.6042 -4.3010 -2.0006 0.9802
-1.4500 -4.3568 -2.0012 0.9802
-0.9768 -4.4904 -2.0028 0.9801
-0.4916 -4.5724 -2.0042 0.9801
-0.1642 -4.5979 -2.0051 0.9801
0.6554 -4.5585 -2.0071 0.9801
0.8178 -4.5329 -2.0074 0.9801
0.9793 -4.5015 -2.0077 0.9801
1.1395 -4.4644 -2.0080 0.9801
1.2983 -4.4214 -2.0083 0.9801
1.6108 -4.3186 -2.0088 0.9801
1.9151 -4.1935 -2.0091 0.9801
2.0637 -4.1228 -2.0093 0.9801
2.4930 -3.8792 -2.0096 0.9801
2.7636 -3.6917 -2.0098 0.9801
3.0199 -3.4852 -2.0098 0.9801
3.1423 -3.3751 -2.0097 0.9801
3.2607 -3.2607 -2.0097 0.9801
3.3749 -3.1421 -2.0096 0.9801
3.4847 -3.0195 -2.0095 0.9801
3.5900 -2.8930 -2.0094 0.9801
3.6907 -2.7629 -2.0093 0.9801
3.8778 -2.4921 -2.0089 0.9801
4.1909 -1.9139 -2.0079 0.9801
4.3154 -1.6096 -2.0073 0.9801
4.3694 -1.4543 -2.0070 0.9801
4.4973 -0.9783 -2.0058 0.9801
4.5537 -0.6547 -2.0050 0.9801
-1.2424 -0.0444 -0.5755 0.9945
-1.2260 -0.1318 -0.5708 0.9946
-1.2124 -0.1743 -0.5670 0.9946
-1.1575 -0.2954 -0.5529 0.9947
-1.1330 -0.3327 -0.5466 0.9948
-1.1536 -0.3840 -0.5628 0.9947
-1.2345 -0.5114 -0.6185 0.9941
-3.6952 -2.1925 -1.9889 0.9812
-3.6157 -2.3236 -1.9895 0.9812
-3.4428 -2.5772 -1.9907 0.9812
-3.3496 -2.6993 -1.9913 0.9812
-3.2521 -2.8180 -1.9919 0.9812
-3.1504 -2.9332 -1.9925 0.9812
-2.8214 -3.2561 -1.9943 0.9812
-2.5835 -3.4512 -1.9955 0.9812
-2.2017 -3.7108 -1.9973 0.9812
-2.0685 -3.7881 -1.9978 0.9812
-1.7940 -3.9282 -1.9990 0.9811
-1.6531 -3.9909 -1.9995 0.9811
-1.5100 -4.0484 -2.0001 0.9811
-1.3649 -4.1008 -2.0006 0.9811
-1.2180 -4.1480 -2.0011 0.9811
-0.9194 -4.2264 -2.0021 0.9811
-0.3088 -4.3182 -2.0039 0.9811
-0.1545 -4.3273 -2.0043 0.9811
0.0000 -4.3310 -2.0047 0.9811
0.1546 -4.3290 -2.0051 0.9811
0.3091 -4.3216 -2.0055 0.9811
0.4632 -4.3085 -2.0058 0.9811
0.6168 -4.2899 -2.0062 0.9811
0.7696 -4.2659 -2.0065 0.9811
0.9216 -4.2363 -2.0068 0.9811
1.2217 -4.1608 -2.0073 0.9811
1.6600 -4.0077 -2.0079 0.9811
1.8022 -3.9462 -2.0081 0.9811
1.9420 -3.8797 -2.0083 0.9811
2.3460 -3.6504 -2.0086 0.9811
2.6005 -3.4739 -2.0087 0.9811
2.8418 -3.2796 -2.0087 0.9811
2.9570 -3.1760 -2.0087 0.9811
3.0684 -3.0684 -2.0086 0.9811
3.1758 -2.9568 -2.0085 0.9811
3.2792 -2.8414 -2.0085 0.9811
3.4731 -2.5999 -2.0082 0.9811
3.6491 -2.3452 -2.0079 0.9811
3.8776 -1.9410 -2.0072 0.9811
3.9439 -1.8011 -2.0069 0.9811
4.0612 -1.5147 -2.0064 0.9811
4.1120 -1.3686 -2.0060 0.9811
4.1977 -1.0714 -2.0054 0.9811
4.2325 -0.9207 -2.0050 0.9811
4.2618 -0.7689 -2.0046 0.9811
4.3169 -0.3087 -2.0033 0.9811
-1.0817 0.0000 -0.5306 0.9952
-1.0803 -0.0386 -0.5302 0.9952
-1.0705 -0.1151 -0.5281 0.9952
-1.0518 -0.1898 -0.5242 0.9952
-1.0175 -0.2987 -0.5202 0.9953
-1.0119 -0.3774 -0.5298 0.9952
-1.0290 -0.4262 -0.5463 0.9951
-3.5579 -1.9427 -1.9884 0.9821
-3.4872 -2.0691 -1.9890 0.9821
-3.4121 -2.1929 -1.9896 0.9821
-3.3327 -2.3139 -1.9901 0.9821
-3.1609 -2.5472 -1.9913 0.9821
-2.9729 -2.7678 -1.9924 0.9821
-2.7694 -2.9746 -1.9936 0.9821
-2.6622 -3.0724 -1.9942 0.9821
-2.5516 -3.1663 -1.9947 0.9820
-2.4377 -3.2563 -1.9953 0.9820
-1.9516 -3.5740 -1.9975 0.9820
-1.8232 -3.6424 -1.9980 0.9820
-1.4246 -3.8194 -1.9996 0.9820
-1.2877 -3.8687 -2.0001 0.9820
-0.8673 -3.9871 -2.0015 0.9820
-0.2913 -4.0734 -2.0032 0.9820
-0.0000 -4.0854 -2.0040 0.9820
0.1458 -4.0835 -2.0043 0.9820
0.2916 -4.0764 -2.0047 0.9820
0.4369 -4.0641 -2.0050 0.9820
0.5818 -4.0465 -2.0053 0.9820
0.7260 -4.0238 -2.0056 0.9819
0.8692 -3.9959 -2.0059 0.9819
1.1524 -3.9246 -2.0064 0.9819
1.2919 -3.8814 -2.0066 0.9819
1.4297 -3.8332 -2.0068 0.9819
1.6998 -3.7221 -2.0072 0.9819
2.3343 -3.3620 -2.0077 0.9819
2.6804 -3.0933 -2.0077 0.9819
2.8941 -2.8941 -2.0076 0.9819
3.0929 -2.6801 -2.0075 0.9819
3.1865 -2.5678 -2.0074 0.9819
3.5903 -1.9604 -2.0065 0.9819
3.6575 -1.8308 -2.0063 0.9819
3.7779 -1.5648 -2.0058 0.9819
3.8308 -1.4288 -2.0055 0.9819
3.8787 -1.2910 -2.0052 0.9820
3.9217 -1.1515 -2.0049 0.9820
4.0202 -0.7253 -2.0038 0.9820
4.0601 -0.4365 -2.0031 0.9820
-0.9895 -0.0000 -0.5133 0.9956
-0.9873 -0.0706 -0.5135 0.9955
-0.9785 -0.1407 -0.5129 0.9956
-0.9268 -0.3085 -0.5067 0.9956
-0.9271 -0.3840 -0.5206 0.9955
-0.9486 -0.5180 -0.5607 0.9951
-3.2265 -2.0735 -1.9897 0.9829
-3.1512 -2.1879 -1.9902 0.9829
-3.0720 -2.2996 -1.9908 0.9829
-2.9888 -2.4085 -1.9913 0.9829
-2.9017 -2.5143 -1.9918 0.9828
-2.7164 -2.7164 -1.9929 0.9828
-2.6184 -2.8124 -1.9935 0.9828
-2.5171 -2.9048 -1.9940 0.9828
-1.4743 -3.5593 -1.9986 0.9828
-0.6850 -3.7965 -2.0014 0.9828
-0.2754 -3.8503 -2.0026 0.9828
-0.1378 -3.8584 -2.0029 0.9828
0.0000 -3.8616 -2.0033 0.9827
0.1378 -3.8598 -2.0036 0.9827
0.2756 -3.8530 -2.0040 0.9827
0.4130 -3.8413 -2.0043 0.9827
0.5499 -3.8247 -2.0046 0.9827
0.9560 -3.7454 -2.0054 0.9827
1.2210 -3.6685 -2.0058 0.9827
1.3513 -3.6229 -2.0060 0.9827
1.4799 -3.5727 -2.0061 0.9827
1.6066 -3.5179 -2.0063 0.9827
2.2062 -3.1775 -2.0068 0.9827
2.4273 -3.0121 -2.0068 0.9827
2.7353 -2.7352 -2.0068 0.9827
2.9232 -2.5330 -2.0066 0.9827
3.0961 -2.3177 -2.0064 0.9827
3.1767 -2.2056 -2.0062 0.9827
3.2531 -2.0906 -2.0061 0.9827
3.3253 -1.9730 -2.0059 0.9827
3.4569 -1.7304 -2.0055 0.9827
3.5161 -1.6057 -2.0053 0.9827
3.6207 -1.3504 -2.0048 0.9827
3.6661 -1.2202 -2.0045 0.9827
3.7067 -1.0884 -2.0042 0.9827
3.7426 -0.9553 -2.0038 0.9827
3.7737 -0.8209 -2.0035 0.9827
3.8000 -0.6856 -2.0032 0.9828
3.8213 -0.5494 -2.0028 0.9828
3.8378 -0.4126 -2.0024 0.9828
3.8559 -0.1377 -2.0016 0.9828
-0.9181 -0.0000 -0.5029 0.9958
-0.9179 -0.0328 -0.5031 0.9958
-0.9161 -0.0655 -0.5030 0.9958
-0.8932 -0.1943 -0.5006 0.9958
-0.8837 -0.2255 -0.4995 0.9958
-0.8727 -0.2562 -0.4982 0.9959
-0.8603 -0.2863 -0.4966 0.9959
-0.8516 -0.4262 -0.5216 0.9957
-3.0562 -1.9641 -1.9898 0.9836
-2.6624 -2.4787 -1.9923 0.9835
-2.5729 -2.5728 -1.9929 0.9835
-2.2848 -2.8353 -1.9944 0.9835
-2.1827 -2.9158 -1.9949 0.9835
-1.9701 -3.0656 -1.9959 0.9835
-1.8599 -3.1347 -1.9964 0.9835
-1.7473 -3.1999 -1.9969 0.9835
-1.6323 -3.2610 -1.9973 0.9835
-1.3962 -3.3707 -1.9983 0.9835
-1.2753 -3.4192 -1.9987 0.9835
-0.5200 -3.6167 -2.0012 0.9835
-0.2608 -3.6459 -2.0020 0.9835
-0.1305 -3.6535 -2.0023 0.9835
0.0000 -3.6565 -2.0027 0.9835
0.2609 -3.6483 -2.0033 0.9835
0.3910 -3.6372 -2.0036 0.9835
0.5207 -3.6214 -2.0039 0.9835
0.6497 -3.6010 -2.0041 0.9835
1.2794 -3.4303 -2.0052 0.9834
1.4012 -3.3827 -2.0054 0.9834
1.5211 -3.3308 -2.0055 0.9834
1.6391 -3.2746 -2.0056 0.9834
1.9800 -3.0810 -2.0059 0.9834
2.1949 -2.9320 -2.0060 0.9834
2.2981 -2.8518 -2.0060 0.9834
2.3985 -2.7680 -2.0060 0.9834
2.4957 -2.6806 -2.0060 0.9834
2.8514 -2.2978 -2.0057 0.9834
2.9315 -2.1945 -2.0056 0.9834
3.0077 -2.0883 -2.0055 0.9834
3.1485 -1.8681 -2.0051 0.9834
3.4283 -1.2787 -2.0040 0.9835
3.4713 -1.1554 -2.0038 0.9835
3.5098 -1.0306 -2.0035 0.9835
3.5438 -0.9045 -2.0032 0.9835
3.5982 -0.6492 -2.0025 0.9835
-0.8547 -0.0305 -0.4938 0.9961
-0.8530 -0.0610 -0.4938 0.9961
-0.8499 -0.0914 -0.4935 0.9961
-0.8453 -0.1215 -0.4930 0.9961
-0.8318 -0.1810 -0.4915 0.9961
-0.8128 -0.2387 -0.4891 0.9961
-0.7796 -0.3229 -0.4872 0.9961
-0.7809 -0.3566 -0.4957 0.9960
-0.7787 -0.4252 -0.5122 0.9959
-0.7750 -0.4599 -0.5203 0.9958
-0.7696 -0.4946 -0.5282 0.9958
-2.6856 -2.1642 -1.9913 0.9842
-2.6073 -2.2592 -1.9918 0.9842
-2.4406 -2.4406 -1.9928 0.9842
-2.3525 -2.5268 -1.9933 0.9842
-2.2614 -2.6098 -1.9938 0.9842
-1.9709 -2.8386 -1.9952 0.9842
-1.6573 -3.0352 -1.9966 0.9842
-1.4372 -3.1471 -1.9975 0.9841
-1.3243 -3.1971 -1.9979 0.9841
-1.2096 -3.2430 -1.9983 0.9841
-0.7363 -3.3849 -2.0000 0.9841
-0.6152 -3.4097 -2.0004 0.9841
-0.4932 -3.4301 -2.0007 0.9841
-0.3705 -3.4461 -2.0011 0.9841
-0.2473 -3.4578 -2.0014 0.9841
-0.1237 -3.4650 -2.0018 0.9841
0.0000 -3.4677 -2.0021 0.9841
0.2475 -3.4599 -2.0027 0.9841
0.4938 -3.4344 -2.0032 0.9841
0.7377 -3.3912 -2.0037 0.9841
0.8584 -3.3631 -2.0039 0.9841
0.9780 -3.3306 -2.0041 0.9841
1.3288 -3.2079 -2.0047 0.9841
1.6643 -3.0480 -2.0050 0.9841
1.8777 -2.9217 -2.0052 0.9841
2.0814 -2.7804 -2.0052 0.9841
2.3667 -2.5420 -2.0052 0.9841
2.4559 -2.4558 -2.0052 0.9841
2.7799 -2.0810 -2.0049 0.9841
2.8522 -1.9804 -2.0047 0.9841
3.0469 -1.6637 -2.0043 0.9841
3.1571 -1.4418 -2.0039 0.9841
3.2062 -1.3280 -2.0036 0.9841
3.2920 -1.0957 -2.0031 0.9841
3.3608 -0.8578 -2.0026 0.9841
3.4124 -0.6157 -2.0020 0.9841
3.4465 -0.3705 -2.0013 0.9841
3.4569 -0.2472 -2.0010 0.9841
3.4629 -0.1237 -2.0006 0.9841
