ply
format ascii 1.0
element vertex 713
property float32 x
property float32 y
property float32 z
property float32 I
end_header
-9.4613 -1.0172 -2.0114 0.9618
-9.3686 -1.6903 -2.0123 0.9618
-9.3042 -2.0240 -2.0127 0.9618
-9.2277 -2.3552 -2.0131 0.9618
-9.0392 -3.0085 -2.0138 0.9618
-8.9274 -3.3297 -2.0140 0.9618
-8.5234 -4.2665 -2.0148 0.9618
-8.3664 -4.5684 -2.0150 0.9618
-8.1987 -4.8645 -2.0151 0.9618
-8.0204 -5.1544 -2.0153 0.9618
-6.9786 -6.4973 -2.0155 0.9618
-6.7422 -6.7421 -2.0155 0.9618
-6.2435 -7.2054 -2.0153 0.9618
-5.9820 -7.4232 -2.0152 0.9618
-3.9572 -8.6651 -2.0136 0.9618
-3.3278 -8.9222 -2.0129 0.9618
-3.0067 -9.0336 -2.0125 0.9618
-2.6818 -9.1333 -2.0121 0.9618
-1.3534 -9.4133 -2.0102 0.9619
-0.0000 -9.4996 -2.0080 0.9619
0.6773 -9.4697 -2.0068 0.9619
1.6840 -9.3340 -2.0049 0.9620
2.0154 -9.2648 -2.0042 0.9620
2.6694 -9.0911 -2.0028 0.9620
3.6219 -8.7441 -2.0006 0.9620
3.9302 -8.6061 -1.9999 0.9621
4.2333 -8.4572 -1.9991 0.9621
4.5308 -8.2975 -1.9984 0.9621
5.1073 -7.9471 -1.9968 0.9621
5.3856 -7.7567 -1.9961 0.9621
5.6568 -7.5566 -1.9953 0.9621
5.9206 -7.3471 -1.9945 0.9622
6.1767 -7.1283 -1.9938 0.9622
6.4247 -6.9006 -1.9930 0.9622
6.8952 -6.4197 -1.9914 0.9622
7.3300 -5.9069 -1.9899 0.9622
7.7269 -5.3648 -1.9884 0.9623
8.2469 -4.5031 -1.9862 0.9623
8.6717 -3.5919 -1.9841 0.9624
8.8998 -2.9621 -1.9827 0.9624
9.0825 -2.3182 -1.9814 0.9624
9.1566 -1.9919 -1.9808 0.9624
9.2190 -1.6633 -1.9802 0.9624
9.3087 -1.0008 -1.9790 0.9624
-8.5452 0.0000 -2.0083 0.9655
-8.5417 -0.3051 -2.0088 0.9655
-8.5018 -0.9140 -2.0096 0.9655
-8.4654 -1.2171 -2.0100 0.9655
-8.4182 -1.5188 -2.0104 0.9655
-8.3601 -1.8186 -2.0108 0.9655
-8.2117 -2.4112 -2.0114 0.9654
-8.1216 -2.7031 -2.0117 0.9654
-7.7889 -3.5571 -2.0124 0.9654
-7.5167 -4.1044 -2.0128 0.9654
-7.3659 -4.3704 -2.0129 0.9654
-7.2057 -4.6308 -2.0131 0.9654
-6.6700 -5.3750 -2.0133 0.9654
-6.2696 -5.8372 -2.0133 0.9654
-6.0572 -6.0572 -2.0132 0.9654
-5.8370 -6.2693 -2.0132 0.9654
-5.6093 -6.4734 -2.0131 0.9654
-4.8842 -7.0346 -2.0127 0.9654
-4.1030 -7.5140 -2.0121 0.9654
-3.5555 -7.7855 -2.0116 0.9654
-3.2749 -7.9063 -2.0113 0.9654
-2.7016 -8.1171 -2.0106 0.9655
-2.4097 -8.2068 -2.0102 0.9655
-0.0000 -8.5377 -2.0066 0.9655
0.9119 -8.4818 -2.0049 0.9656
1.2137 -8.4414 -2.0043 0.9656
1.5137 -8.3902 -2.0037 0.9656
2.3997 -8.1727 -2.0019 0.9656
3.5338 -7.7379 -1.9992 0.9657
3.8064 -7.6042 -1.9986 0.9657
4.3362 -7.3083 -1.9972 0.9657
4.5927 -7.1464 -1.9965 0.9657
5.0873 -6.7959 -1.9951 0.9657
5.5553 -6.4111 -1.9937 0.9657
5.7785 -6.2066 -1.9930 0.9658
5.9943 -5.9943 -1.9923 0.9658
6.5938 -5.3136 -1.9903 0.9658
6.9514 -4.8264 -1.9889 0.9658
7.4200 -4.0516 -1.9869 0.9659
7.6852 -3.5097 -1.9856 0.9659
7.8031 -3.2322 -1.9850 0.9659
7.9110 -2.9507 -1.9844 0.9659
8.0089 -2.6656 -1.9838 0.9659
8.0965 -2.3773 -1.9832 0.9659
8.2407 -1.7927 -1.9821 0.9659
8.3784 -0.9008 -1.9805 0.9660
8.4031 -0.6010 -1.9800 0.9660
8.4171 -0.3006 -1.9795 0.9660
-7.7513 -0.0000 -2.0069 0.9685
-7.7479 -0.2767 -2.0074 0.9685
-7.7347 -0.5532 -2.0078 0.9685
-7.6353 -1.3776 -2.0088 0.9685
-7.5200 -1.9193 -2.0095 0.9684
-7.4477 -2.1868 -2.0098 0.9684
-7.3659 -2.4516 -2.0100 0.9684
-7.2746 -2.7133 -2.0103 0.9684
-7.0639 -3.2260 -2.0107 0.9684
-6.9449 -3.4764 -2.0108 0.9684
-6.8169 -3.7223 -2.0110 0.9684
-6.3810 -4.4304 -2.0113 0.9684
-6.2190 -4.6554 -2.0114 0.9684
-5.8712 -5.0874 -2.0114 0.9684
-5.6858 -5.2937 -2.0114 0.9684
-5.4932 -5.4932 -2.0114 0.9684
-5.2935 -5.6856 -2.0114 0.9684
-4.4295 -6.3797 -2.0109 0.9684
-4.1986 -6.5332 -2.0108 0.9684
-3.7211 -6.8147 -2.0104 0.9684
-3.4751 -6.9424 -2.0101 0.9684
-2.1857 -7.4437 -2.0087 0.9685
-1.9183 -7.5156 -2.0083 0.9685
-1.3767 -7.6305 -2.0076 0.9685
0.8273 -7.6950 -2.0039 0.9685
1.1011 -7.6585 -2.0033 0.9685
1.3734 -7.6123 -2.0028 0.9685
1.9119 -7.4908 -2.0017 0.9686
2.1774 -7.4156 -2.0011 0.9686
2.6993 -7.2371 -1.9999 0.9686
2.9550 -7.1340 -1.9993 0.9686
3.2068 -7.0219 -1.9987 0.9686
3.6973 -6.7711 -1.9975 0.9686
4.3958 -6.3311 -1.9956 0.9687
4.6175 -6.1682 -1.9950 0.9687
5.0425 -5.8194 -1.9937 0.9687
5.2454 -5.6340 -1.9931 0.9687
5.4414 -5.4414 -1.9925 0.9687
5.8120 -5.0362 -1.9912 0.9687
5.9862 -4.8240 -1.9906 0.9687
6.4616 -4.1526 -1.9887 0.9688
6.6037 -3.9182 -1.9881 0.9688
6.9785 -3.1870 -1.9864 0.9688
7.0858 -2.9350 -1.9858 0.9688
7.1840 -2.6795 -1.9852 0.9688
7.4232 -1.8947 -1.9836 0.9688
7.4842 -1.6281 -1.9831 0.9688
7.5357 -1.3596 -1.9826 0.9689
7.6098 -0.8181 -1.9817 0.9689
7.6324 -0.5459 -1.9812 0.9689
-7.0485 -0.7578 -2.0069 0.9710
-6.9304 -1.5076 -2.0078 0.9709
-6.8731 -1.7542 -2.0081 0.9709
-6.8070 -1.9987 -2.0084 0.9709
-6.5565 -2.7158 -2.0090 0.9709
-6.3471 -3.1771 -2.0094 0.9709
-6.1051 -3.6223 -2.0096 0.9709
-5.3657 -4.6494 -2.0099 0.9709
-5.1963 -4.8379 -2.0099 0.9709
-5.0203 -5.0202 -2.0099 0.9709
-4.8378 -5.1961 -2.0098 0.9709
-4.4544 -5.5276 -2.0097 0.9709
-3.6214 -6.1035 -2.0091 0.9709
-3.4009 -6.2283 -2.0089 0.9709
-3.1761 -6.3450 -2.0087 0.9709
-2.7147 -6.5539 -2.0082 0.9709
-2.2397 -6.7290 -2.0077 0.9709
-1.0084 -7.0138 -2.0060 0.9710
-0.7573 -7.0440 -2.0056 0.9710
-0.5053 -7.0651 -2.0052 0.9710
-0.2528 -7.0772 -2.0048 0.9710
-0.0000 -7.0802 -2.0043 0.9710
0.2526 -7.0741 -2.0039 0.9710
0.7563 -7.0348 -2.0030 0.9710
1.0067 -7.0016 -2.0025 0.9710
1.2556 -6.9595 -2.0020 0.9710
1.5028 -6.9085 -2.0015 0.9710
1.7480 -6.8487 -2.0010 0.9710
3.3810 -6.1918 -1.9972 0.9711
3.5988 -6.0655 -1.9966 0.9711
3.8119 -5.9314 -1.9960 0.9711
4.2229 -5.6411 -1.9949 0.9711
4.4203 -5.4852 -1.9943 0.9711
4.6119 -5.3224 -1.9937 0.9711
4.9769 -4.9770 -1.9925 0.9712
5.1499 -4.7948 -1.9920 0.9712
5.3163 -4.6066 -1.9914 0.9712
5.4757 -4.4126 -1.9908 0.9712
5.6281 -4.2132 -1.9903 0.9712
5.9110 -3.7988 -1.9891 0.9712
6.0412 -3.5844 -1.9886 0.9712
6.2781 -3.1426 -1.9875 0.9712
6.4828 -2.6853 -1.9865 0.9713
6.6545 -2.2148 -1.9854 0.9713
6.7276 -1.9754 -1.9850 0.9713
6.8481 -1.4897 -1.9840 0.9713
6.8954 -1.2440 -1.9835 0.9713
6.9963 -0.2499 -1.9819 0.9713
-6.5037 -0.4652 -2.0055 0.9731
-6.4559 -0.9282 -2.0061 0.9731
-6.4196 -1.1582 -2.0064 0.9731
-6.3223 -1.6137 -2.0069 0.9731
-6.1156 -2.2810 -2.0076 0.9731
-6.0308 -2.4980 -2.0078 0.9731
-5.9383 -2.7119 -2.0079 0.9730
-5.8382 -2.9224 -2.0081 0.9730
-5.6155 -3.3318 -2.0083 0.9730
-5.3639 -3.7242 -2.0085 0.9730
-5.2277 -3.9134 -2.0085 0.9730
-5.0848 -4.0976 -2.0086 0.9730
-4.9353 -4.2765 -2.0086 0.9730
-4.7795 -4.4499 -2.0086 0.9730
-4.4498 -4.7794 -2.0085 0.9730
-4.0972 -5.0843 -2.0084 0.9730
-3.9129 -5.2270 -2.0083 0.9730
-3.5296 -5.4921 -2.0080 0.9730
-3.3311 -5.6142 -2.0079 0.9731
-2.9215 -5.8364 -2.0075 0.9731
-2.7111 -5.9363 -2.0073 0.9731
-2.2801 -6.1132 -2.0068 0.9731
-2.0602 -6.1898 -2.0065 0.9731
-1.6129 -6.3192 -2.0060 0.9731
-0.6967 -6.4801 -2.0046 0.9731
-0.0000 -6.5137 -2.0035 0.9731
0.6958 -6.4723 -2.0022 0.9731
1.6084 -6.3016 -2.0004 0.9731
1.8318 -6.2387 -1.9999 0.9732
2.4864 -6.0026 -1.9984 0.9732
2.9068 -5.8070 -1.9974 0.9732
3.3119 -5.5819 -1.9963 0.9732
3.6997 -5.3286 -1.9953 0.9732
4.0683 -5.0484 -1.9942 0.9732
4.4157 -4.7428 -1.9932 0.9732
4.5809 -4.5809 -1.9926 0.9733
4.8935 -4.2402 -1.9916 0.9733
5.3145 -3.6899 -1.9900 0.9733
5.4414 -3.4970 -1.9895 0.9733
5.5614 -3.2997 -1.9890 0.9733
5.8778 -2.6843 -1.9875 0.9733
6.0514 -2.2571 -1.9865 0.9733
6.1942 -1.8188 -1.9856 0.9733
6.3054 -1.3716 -1.9848 0.9734
6.3490 -1.1455 -1.9843 0.9734
6.3845 -0.9179 -1.9839 0.9734
6.4119 -0.6893 -1.9835 0.9734
6.4312 -0.4600 -1.9832 0.9734
6.4423 -0.2301 -1.9828 0.9734
-6.0287 0.0000 -2.0040 0.9749
-6.0258 -0.2152 -2.0043 0.9749
-5.9709 -0.8585 -2.0052 0.9749
-5.8960 -1.2826 -2.0057 0.9749
-5.7270 -1.9061 -2.0064 0.9749
-5.6558 -2.1095 -2.0065 0.9749
-5.5774 -2.3102 -2.0067 0.9749
-5.4918 -2.5080 -2.0069 0.9749
-5.2996 -2.8938 -2.0071 0.9749
-4.7024 -3.7894 -2.0075 0.9749
-4.4201 -4.1152 -2.0075 0.9749
-3.9546 -4.5638 -2.0073 0.9749
-3.6186 -4.8339 -2.0072 0.9749
-3.2642 -5.0792 -2.0069 0.9749
-3.0806 -5.1921 -2.0068 0.9749
-2.8931 -5.2983 -2.0066 0.9749
-2.7019 -5.3977 -2.0064 0.9749
-2.5073 -5.4901 -2.0063 0.9749
-2.1088 -5.6538 -2.0058 0.9749
-1.4917 -5.8445 -2.0050 0.9749
-0.4300 -6.0118 -2.0035 0.9749
-0.2151 -6.0222 -2.0031 0.9749
-0.0000 -6.0250 -2.0027 0.9749
0.6437 -5.9870 -2.0016 0.9749
1.0687 -5.9233 -2.0007 0.9749
1.2791 -5.8801 -2.0003 0.9750
1.8991 -5.7059 -1.9990 0.9750
2.8786 -5.2718 -1.9966 0.9750
3.2458 -5.0506 -1.9956 0.9750
3.4232 -4.9303 -1.9952 0.9750
3.5961 -4.8038 -1.9947 0.9750
3.9277 -4.5328 -1.9937 0.9750
4.0859 -4.3886 -1.9932 0.9750
4.3865 -4.0839 -1.9922 0.9751
4.5283 -3.9238 -1.9917 0.9751
4.6643 -3.7588 -1.9912 0.9751
4.9182 -3.4148 -1.9903 0.9751
5.0358 -3.2363 -1.9898 0.9751
5.1469 -3.0538 -1.9893 0.9751
5.3491 -2.6776 -1.9884 0.9751
5.4400 -2.4844 -1.9880 0.9751
5.5240 -2.2881 -1.9875 0.9751
5.6009 -2.0890 -1.9871 0.9751
5.6707 -1.8874 -1.9866 0.9751
5.8364 -1.2696 -1.9854 0.9751
5.9098 -0.8497 -1.9846 0.9751
5.9352 -0.6381 -1.9843 0.9752
5.9532 -0.4258 -1.9839 0.9752
-5.6018 0.0000 -2.0032 0.9765
-5.5990 -0.2000 -2.0035 0.9765
-5.4327 -1.3866 -2.0051 0.9765
-5.3803 -1.5798 -2.0053 0.9765
-5.2548 -1.9599 -2.0056 0.9765
-5.0163 -2.5110 -2.0060 0.9765
-4.8249 -2.8627 -2.0063 0.9764
-4.6087 -3.1998 -2.0064 0.9764
-4.4916 -3.3624 -2.0064 0.9764
-4.1066 -3.8233 -2.0065 0.9764
-3.9674 -3.9674 -2.0065 0.9764
-3.8232 -4.1064 -2.0064 0.9764
-3.6741 -4.2402 -2.0064 0.9764
-3.5203 -4.3684 -2.0063 0.9764
-3.3620 -4.4911 -2.0062 0.9764
-2.6880 -4.9226 -2.0057 0.9765
-2.5103 -5.0150 -2.0055 0.9765
-2.1458 -5.1803 -2.0052 0.9765
-1.9593 -5.2531 -2.0049 0.9765
-1.5792 -5.3782 -2.0045 0.9765
-1.3861 -5.4304 -2.0042 0.9765
-0.1999 -5.5960 -2.0024 0.9765
0.1998 -5.5940 -2.0017 0.9765
0.7962 -5.5375 -2.0006 0.9765
0.9931 -5.5045 -2.0002 0.9765
1.1887 -5.4644 -1.9998 0.9765
1.3827 -5.4174 -1.9994 0.9765
1.5749 -5.3635 -1.9990 0.9765
1.7649 -5.3028 -1.9986 0.9765
1.9527 -5.2353 -1.9982 0.9765
2.1378 -5.1611 -1.9977 0.9765
2.3202 -5.0804 -1.9973 0.9766
2.4995 -4.9933 -1.9968 0.9766
3.0168 -4.6943 -1.9955 0.9766
3.3425 -4.4651 -1.9946 0.9766
3.4990 -4.3419 -1.9941 0.9766
5.0577 -2.3098 -1.9883 0.9767
5.2074 -1.9423 -1.9875 0.9767
5.2724 -1.7548 -1.9871 0.9767
5.3306 -1.5652 -1.9867 0.9767
5.3820 -1.3737 -1.9864 0.9767
5.4950 -0.7901 -1.9853 0.9767
5.5188 -0.5933 -1.9849 0.9767
-5.2257 -0.0000 -2.0026 0.9779
-5.1979 -0.5588 -2.0034 0.9779
-5.1460 -0.9284 -2.0039 0.9778
-5.1101 -1.1116 -2.0041 0.9778
-5.0677 -1.2934 -2.0043 0.9778
-4.9634 -1.6520 -2.0046 0.9778
-4.8336 -2.0022 -2.0050 0.9778
-4.6791 -2.3422 -2.0052 0.9778
-4.2988 -2.9847 -2.0055 0.9778
-3.9553 -3.4273 -2.0056 0.9778
-3.7007 -3.7007 -2.0056 0.9778
-3.5662 -3.8303 -2.0056 0.9778
-3.4271 -3.9551 -2.0055 0.9778
-3.2836 -4.0748 -2.0054 0.9778
-3.1360 -4.1892 -2.0054 0.9778
-2.3416 -4.6780 -2.0047 0.9778
-2.1730 -4.7582 -2.0046 0.9778
-1.6514 -4.9617 -2.0040 0.9778
-1.2930 -5.0657 -2.0035 0.9779
-0.9280 -5.1437 -2.0030 0.9779
-0.5586 -5.1954 -2.0024 0.9779
0.3725 -5.2079 -2.0008 0.9779
0.7428 -5.1662 -2.0001 0.9779
0.9265 -5.1355 -1.9998 0.9779
1.1090 -5.0982 -1.9994 0.9779
1.4693 -5.0042 -1.9986 0.9779
1.6467 -4.9476 -1.9983 0.9779
1.8219 -4.8846 -1.9979 0.9779
2.8150 -4.3803 -1.9954 0.9779
2.9690 -4.2761 -1.9949 0.9779
3.1190 -4.1665 -1.9945 0.9780
3.4069 -3.9317 -1.9937 0.9780
3.5443 -3.8068 -1.9932 0.9780
3.8052 -3.5427 -1.9924 0.9780
3.9284 -3.4040 -1.9920 0.9780
4.0465 -3.2609 -1.9915 0.9780
4.1594 -3.1137 -1.9911 0.9780
4.2670 -2.9627 -1.9907 0.9780
4.4657 -2.6496 -1.9899 0.9780
4.5565 -2.4880 -1.9895 0.9780
4.6414 -2.3233 -1.9891 0.9780
4.7205 -2.1558 -1.9887 0.9780
4.7935 -1.9855 -1.9883 0.9780
4.9211 -1.6379 -1.9876 0.9780
5.0652 -1.1019 -1.9865 0.9780
5.1292 -0.7375 -1.9858 0.9780
-4.8916 0.0000 -2.0020 0.9791
-4.8891 -0.1746 -2.0023 0.9791
-4.8442 -0.6965 -2.0030 0.9791
-4.7832 -1.0405 -2.0034 0.9791
-4.5879 -1.7112 -2.0041 0.9791
-4.1206 -2.6482 -2.0047 0.9791
-4.0236 -2.7936 -2.0048 0.9791
-3.7021 -3.2078 -2.0048 0.9791
-3.5852 -3.3379 -2.0048 0.9791
-3.3379 -3.5851 -2.0048 0.9791
-2.6478 -4.1200 -2.0044 0.9791
-2.4989 -4.2116 -2.0043 0.9791
-2.1918 -4.3786 -2.0040 0.9791
-1.5458 -4.6443 -2.0033 0.9791
-1.3789 -4.6960 -2.0031 0.9791
-1.2103 -4.7417 -2.0029 0.9791
-1.0401 -4.7813 -2.0026 0.9791
-0.0000 -4.8892 -2.0010 0.9791
0.3487 -4.8752 -2.0004 0.9791
1.2077 -4.7318 -1.9987 0.9791
1.3756 -4.6848 -1.9983 0.9791
1.5416 -4.6319 -1.9980 0.9791
1.7056 -4.5730 -1.9976 0.9791
1.8674 -4.5084 -1.9972 0.9791
2.4881 -4.1935 -1.9957 0.9791
2.6357 -4.1012 -1.9953 0.9792
2.9204 -3.9012 -1.9945 0.9792
3.1900 -3.6814 -1.9937 0.9792
3.4430 -3.4431 -1.9929 0.9792
3.8949 -2.9157 -1.9913 0.9792
4.6086 -1.5339 -1.9879 0.9792
4.6597 -1.3682 -1.9876 0.9792
4.7047 -1.2008 -1.9873 0.9792
4.7769 -0.8618 -1.9866 0.9792
4.8038 -0.6907 -1.9863 0.9792
4.8247 -0.5187 -1.9860 0.9792
4.8394 -0.3461 -1.9857 0.9792
4.8480 -0.1731 -1.9855 0.9793
-1.4601 0.0000 -0.6363 0.9936
-1.4571 -0.0520 -0.6354 0.9937
-1.4491 -0.1036 -0.6331 0.9937
-1.4360 -0.1544 -0.6294 0.9937
-1.3956 -0.2518 -0.6180 0.9938
-1.3722 -0.4029 -0.6233 0.9938
-4.1115 -2.0580 -2.0038 0.9801
-4.0356 -2.2036 -2.0039 0.9801
-3.8684 -2.4860 -2.0040 0.9801
-3.7773 -2.6226 -2.0041 0.9801
-3.4754 -3.0114 -2.0041 0.9801
-2.8853 -3.5804 -2.0040 0.9801
-2.6223 -3.7768 -2.0038 0.9801
-2.3459 -3.9538 -2.0036 0.9801
-2.0576 -4.1106 -2.0034 0.9801
-1.9095 -4.1811 -2.0032 0.9801
-1.6061 -4.3060 -2.0029 0.9801
-1.4512 -4.3601 -2.0027 0.9801
-1.1362 -4.4517 -2.0023 0.9802
-0.9765 -4.4889 -2.0021 0.9802
-0.8156 -4.5203 -2.0019 0.9802
-0.6536 -4.5460 -2.0016 0.9802
-0.4909 -4.5659 -2.0014 0.9802
-0.0000 -4.5904 -2.0006 0.9802
0.8144 -4.5140 -1.9990 0.9802
0.9748 -4.4813 -1.9987 0.9802
1.1340 -4.4429 -1.9984 0.9802
1.2916 -4.3989 -1.9980 0.9802
1.4475 -4.3492 -1.9977 0.9802
1.7535 -4.2334 -1.9970 0.9802
2.0503 -4.0960 -1.9963 0.9802
2.1948 -4.0195 -1.9959 0.9802
2.4750 -3.8512 -1.9952 0.9802
2.6104 -3.7597 -1.9948 0.9802
2.7424 -3.6635 -1.9944 0.9802
2.9957 -3.4572 -1.9937 0.9802
3.2334 -3.2334 -1.9929 0.9802
3.3462 -3.1154 -1.9925 0.9802
3.4546 -2.9934 -1.9922 0.9803
3.5586 -2.8677 -1.9918 0.9803
3.7527 -2.6055 -1.9910 0.9803
4.0824 -2.0435 -1.9896 0.9803
4.2163 -1.7464 -1.9889 0.9803
4.4191 -1.1279 -1.9876 0.9803
4.4558 -0.9693 -1.9873 0.9803
4.5319 -0.4872 -1.9865 0.9803
4.5458 -0.3251 -1.9862 0.9803
4.5539 -0.1626 -1.9859 0.9803
-1.2447 0.0000 -0.5761 0.9945
-1.2261 -0.1318 -0.5708 0.9946
-1.1974 -0.2160 -0.5632 0.9947
-1.1790 -0.2565 -0.5585 0.9947
-1.1575 -0.2954 -0.5529 0.9947
-1.2017 -0.4482 -0.5937 0.9944
-1.2346 -0.5114 -0.6185 0.9941
-3.7221 -2.2084 -2.0034 0.9811
-3.4650 -2.5938 -2.0035 0.9811
-3.2712 -2.8345 -2.0035 0.9811
-3.1679 -2.9494 -2.0035 0.9811
-2.9494 -3.1678 -2.0035 0.9811
-2.8344 -3.2710 -2.0034 0.9811
-2.2081 -3.7215 -2.0030 0.9811
-2.0737 -3.7978 -2.0029 0.9811
-1.9367 -3.8691 -2.0028 0.9811
-1.5117 -4.0531 -2.0023 0.9811
-1.3660 -4.1041 -2.0022 0.9811
-1.2185 -4.1498 -2.0020 0.9811
-1.0695 -4.1903 -2.0018 0.9811
-0.9192 -4.2253 -2.0016 0.9811
-0.7677 -4.2550 -2.0014 0.9811
-0.3083 -4.3111 -2.0007 0.9811
0.7666 -4.2493 -1.9987 0.9811
0.9177 -4.2186 -1.9984 0.9812
1.0675 -4.1825 -1.9981 0.9812
1.3627 -4.0944 -1.9974 0.9812
1.5077 -4.0425 -1.9971 0.9812
1.6508 -3.9854 -1.9968 0.9812
1.9302 -3.8562 -1.9961 0.9812
2.0663 -3.7842 -1.9958 0.9812
2.1997 -3.7074 -1.9954 0.9812
2.3302 -3.6258 -1.9951 0.9812
2.5820 -3.4492 -1.9944 0.9812
2.7030 -3.3542 -1.9940 0.9812
3.1506 -2.9333 -1.9926 0.9812
3.4443 -2.5784 -1.9915 0.9812
3.5335 -2.4533 -1.9912 0.9812
3.6182 -2.3253 -1.9909 0.9812
3.8441 -1.9242 -1.9899 0.9812
3.9097 -1.7855 -1.9895 0.9812
3.9703 -1.6445 -1.9892 0.9812
4.1614 -1.0621 -1.9880 0.9812
4.2493 -0.6110 -1.9872 0.9813
4.2678 -0.4588 -1.9869 0.9813
4.2886 -0.1532 -1.9864 0.9813
-1.0817 0.0000 -0.5306 0.9952
-1.0803 -0.0386 -0.5302 0.9952
-1.0769 -0.0770 -0.5296 0.9952
-1.0705 -0.1151 -0.5281 0.9952
-1.0611 -0.1526 -0.5258 0.9952
-1.0175 -0.2988 -0.5202 0.9953
-1.0290 -0.4262 -0.5463 0.9951
-1.0444 -0.4769 -0.5632 0.9949
-3.5834 -1.9567 -2.0027 0.9820
-3.4349 -2.2075 -2.0029 0.9820
-3.2688 -2.4470 -2.0029 0.9820
-3.1794 -2.5621 -2.0030 0.9820
-3.0860 -2.6740 -2.0030 0.9820
-2.9886 -2.7824 -2.0030 0.9820
-2.8873 -2.8873 -2.0029 0.9820
-2.7824 -2.9885 -2.0029 0.9820
-2.5620 -3.1792 -2.0028 0.9820
-2.4468 -3.2685 -2.0028 0.9820
-2.0831 -3.5109 -2.0025 0.9820
-1.9564 -3.5828 -2.0024 0.9820
-1.8271 -3.6502 -2.0023 0.9820
-0.7243 -4.0144 -2.0009 0.9820
-0.5805 -4.0372 -2.0007 0.9820
-0.2909 -4.0674 -2.0003 0.9820
-0.1455 -4.0747 -2.0000 0.9820
0.1455 -4.0737 -1.9995 0.9820
0.2907 -4.0654 -1.9993 0.9820
0.5799 -4.0332 -1.9987 0.9820
0.7233 -4.0093 -1.9984 0.9820
0.8659 -3.9804 -1.9981 0.9820
1.1473 -3.9073 -1.9975 0.9820
1.5576 -3.7605 -1.9966 0.9820
1.8213 -3.6386 -1.9960 0.9820
1.9497 -3.5707 -1.9956 0.9820
2.0756 -3.4983 -1.9953 0.9820
2.1988 -3.4214 -1.9950 0.9820
2.5506 -3.1652 -1.9940 0.9821
2.7690 -2.9742 -1.9933 0.9821
2.8729 -2.8729 -1.9930 0.9821
2.9731 -2.7681 -1.9926 0.9821
3.0695 -2.6598 -1.9923 0.9821
3.4146 -2.1944 -1.9910 0.9821
3.5613 -1.9446 -1.9904 0.9821
3.6898 -1.6851 -1.9898 0.9821
3.7470 -1.5521 -1.9895 0.9821
3.7995 -1.4171 -1.9892 0.9821
3.8471 -1.2804 -1.9889 0.9821
3.9275 -1.0024 -1.9883 0.9821
3.9602 -0.8615 -1.9880 0.9821
3.9879 -0.7195 -1.9878 0.9821
4.0106 -0.5766 -1.9875 0.9821
4.0281 -0.4331 -1.9873 0.9821
4.0405 -0.2890 -1.9870 0.9821
-0.9873 -0.0706 -0.5135 0.9955
-0.9785 -0.1407 -0.5129 0.9956
-0.9715 -0.1753 -0.5121 0.9956
-0.9628 -0.2094 -0.5112 0.9956
-0.9524 -0.2431 -0.5099 0.9956
-0.9404 -0.2761 -0.5085 0.9956
-0.9208 -0.3434 -0.5098 0.9956
-0.9271 -0.3840 -0.5206 0.9955
-0.9326 -0.4259 -0.5319 0.9954
-0.9416 -0.4713 -0.5463 0.9953
-3.3193 -1.9694 -2.0023 0.9828
-3.2470 -2.0867 -2.0023 0.9828
-3.1706 -2.2013 -2.0024 0.9828
-3.0055 -2.4220 -2.0024 0.9828
-2.9171 -2.5277 -2.0024 0.9828
-2.5276 -2.9170 -2.0024 0.9828
-2.4218 -3.0053 -2.0023 0.9828
-1.9692 -3.3189 -2.0020 0.9828
-1.8494 -3.3869 -2.0019 0.9828
-1.7272 -3.4505 -2.0018 0.9828
-1.6029 -3.5097 -2.0017 0.9828
-1.4765 -3.5645 -2.0015 0.9828
-1.2182 -3.6602 -2.0012 0.9828
-0.8198 -3.7684 -2.0007 0.9828
-0.6847 -3.7949 -2.0005 0.9828
-0.5488 -3.8166 -2.0003 0.9828
-0.4121 -3.8333 -2.0001 0.9828
-0.2750 -3.8452 -1.9999 0.9828
-0.1376 -3.8521 -1.9997 0.9828
0.2749 -3.8433 -1.9989 0.9828
0.4118 -3.8306 -1.9987 0.9828
0.5482 -3.8129 -1.9984 0.9828
0.6838 -3.7904 -1.9982 0.9828
0.8186 -3.7631 -1.9979 0.9828
0.9523 -3.7310 -1.9976 0.9828
1.0847 -3.6941 -1.9973 0.9828
1.4727 -3.5554 -1.9964 0.9828
1.8434 -3.3760 -1.9955 0.9828
2.1927 -3.1582 -1.9946 0.9828
2.4117 -2.9927 -1.9940 0.9828
2.6182 -2.8122 -1.9933 0.9828
2.8113 -2.6174 -1.9927 0.9828
2.9899 -2.4094 -1.9921 0.9828
3.1532 -2.1893 -1.9914 0.9829
3.2288 -2.0750 -1.9911 0.9829
3.3676 -1.8389 -1.9905 0.9829
3.4306 -1.7172 -1.9903 0.9829
3.5930 -1.3401 -1.9894 0.9829
3.6380 -1.2108 -1.9891 0.9829
3.6784 -1.0801 -1.9889 0.9829
3.7141 -0.9480 -1.9886 0.9829
3.7928 -0.5453 -1.9878 0.9829
-0.9182 0.0000 -0.5029 0.9958
-0.9179 -0.0328 -0.5031 0.9958
-0.9161 -0.0655 -0.5030 0.9958
-0.9011 -0.1626 -0.5015 0.9958
-0.8932 -0.1943 -0.5006 0.9958
-0.8603 -0.2863 -0.4966 0.9959
-0.8465 -0.3157 -0.4948 0.9959
-0.8479 -0.3512 -0.5027 0.9958
-0.8506 -0.3884 -0.5122 0.9957
-0.8507 -0.4645 -0.5309 0.9956
-3.0024 -2.0846 -2.0019 0.9835
-2.9261 -2.1905 -2.0019 0.9835
-2.8461 -2.2935 -2.0020 0.9835
-2.7624 -2.3937 -2.0020 0.9835
-2.4907 -2.6752 -2.0019 0.9835
-2.3936 -2.7623 -2.0019 0.9835
-2.2934 -2.8459 -2.0019 0.9835
-2.1903 -2.9259 -2.0018 0.9835
-1.9759 -3.0745 -2.0017 0.9835
-1.7513 -3.2073 -2.0015 0.9835
-1.5179 -3.3237 -2.0012 0.9835
-1.3982 -3.3755 -2.0011 0.9835
-1.2767 -3.4231 -2.0010 0.9835
-0.7763 -3.5688 -2.0003 0.9835
-0.6484 -3.5939 -2.0002 0.9835
-0.5197 -3.6144 -2.0000 0.9835
-0.1303 -3.6481 -1.9993 0.9835
-0.0000 -3.6500 -1.9991 0.9835
0.1303 -3.6473 -1.9989 0.9835
0.3900 -3.6278 -1.9984 0.9835
0.6477 -3.5898 -1.9979 0.9835
0.7753 -3.5640 -1.9976 0.9835
0.9019 -3.5336 -1.9974 0.9835
1.0273 -3.4986 -1.9971 0.9835
1.1513 -3.4593 -1.9968 0.9835
1.2739 -3.4155 -1.9966 0.9835
1.5139 -3.3150 -1.9960 0.9835
1.6310 -3.2583 -1.9957 0.9835
1.8587 -3.1328 -1.9951 0.9835
1.9691 -3.0640 -1.9948 0.9835
2.2843 -2.8347 -1.9939 0.9835
2.4800 -2.6637 -1.9933 0.9835
2.5731 -2.5731 -1.9930 0.9835
2.6629 -2.4792 -1.9927 0.9835
2.7493 -2.3823 -1.9924 0.9835
2.9113 -2.1794 -1.9919 0.9836
3.1900 -1.7419 -1.9907 0.9836
3.2497 -1.6267 -1.9904 0.9836
3.5184 -0.8980 -1.9889 0.9836
3.5727 -0.6446 -1.9884 0.9836
3.6199 -0.2589 -1.9877 0.9836
3.6264 -0.1295 -1.9875 0.9836
-0.8550 0.0000 -0.4936 0.9961
-0.8531 -0.0610 -0.4938 0.9961
-0.8453 -0.1215 -0.4930 0.9961
-0.8393 -0.1514 -0.4924 0.9961
-0.8014 -0.2667 -0.4876 0.9961
-0.7887 -0.2942 -0.4860 0.9961
-0.7797 -0.3229 -0.4872 0.9961
-0.7810 -0.3566 -0.4957 0.9960
-0.7807 -0.3908 -0.5040 0.9960
-0.7787 -0.4252 -0.5122 0.9959
-0.7751 -0.4599 -0.5203 0.9958
-0.7634 -0.5300 -0.5366 0.9957
-2.5373 -2.3623 -2.0015 0.9841
-2.3623 -2.5373 -2.0015 0.9841
-2.2702 -2.6199 -2.0015 0.9841
-1.9770 -2.8473 -2.0013 0.9841
-1.8740 -2.9160 -2.0012 0.9841
-1.7687 -2.9809 -2.0012 0.9841
-1.6611 -3.0420 -2.0011 0.9841
-1.5513 -3.0992 -2.0010 0.9841
-0.9761 -3.3243 -2.0003 0.9841
-0.7363 -3.3849 -2.0000 0.9841
-0.2470 -3.4540 -1.9992 0.9841
-0.1236 -3.4602 -1.9990 0.9841
-0.0000 -3.4621 -1.9988 0.9841
0.4925 -3.4253 -1.9979 0.9841
0.8555 -3.3518 -1.9972 0.9841
0.9744 -3.3187 -1.9969 0.9842
1.0921 -3.2814 -1.9967 0.9842
1.2084 -3.2398 -1.9964 0.9842
1.6563 -3.0332 -1.9953 0.9842
1.7632 -2.9718 -1.9950 0.9842
1.9702 -2.8376 -1.9945 0.9842
2.0699 -2.7651 -1.9942 0.9842
2.4410 -2.4410 -1.9931 0.9842
2.5262 -2.3520 -1.9928 0.9842
2.6082 -2.2600 -1.9925 0.9842
2.6868 -2.1652 -1.9922 0.9842
2.7620 -2.0676 -1.9919 0.9842
3.0264 -1.6526 -1.9909 0.9842
3.1358 -1.4321 -1.9903 0.9842
3.1845 -1.3191 -1.9901 0.9842
3.2697 -1.0883 -1.9896 0.9842
3.3897 -0.6116 -1.9886 0.9842
3.4090 -0.4901 -1.9884 0.9842
3.4239 -0.3681 -1.9882 0.9842
3.4345 -0.2456 -1.9880 0.9842
3.4408 -0.1229 -1.9878 0.9842
