ply
format ascii 1.0
element vertex 791
property float32 x
property float32 y
property float32 z
property float32 I
end_header
-5.3898 3.1979 -0.4595 0.9752
-5.4415 2.9713 -0.4546 0.9754
-5.6782 2.8423 -0.4656 0.9749
-5.0074 3.7485 -0.6005 0.9752
-4.9828 3.2022 -0.5686 0.9765
-5.1025 2.7862 -0.5581 0.9769
-5.3669 2.6865 -0.5762 0.9762
-6.8445 2.5529 -0.7013 0.9711
-4.6927 3.7816 -0.7159 0.9760
-4.6714 3.2434 -0.6755 0.9774
-4.9799 2.7192 -0.6740 0.9774
-5.2339 2.6199 -0.6952 0.9767
-5.5464 2.5329 -0.7243 0.9757
-5.9277 2.4553 -0.7621 0.9745
-6.4212 2.3950 -0.8141 0.9728
-6.9922 2.3272 -0.8754 0.9708
-4.3975 3.8105 -0.8245 0.9768
-4.3902 3.5378 -0.7989 0.9775
-4.4765 3.1081 -0.7722 0.9782
-5.0950 2.5504 -0.8073 0.9772
-5.4190 2.4747 -0.8441 0.9762
-6.2122 2.3170 -0.9394 0.9736
-6.7424 2.2441 -1.0068 0.9717
-3.9488 3.6765 -0.8888 0.9784
-4.0125 3.4769 -0.8747 0.9787
-4.1432 3.1015 -0.8526 0.9792
-4.2302 2.9371 -0.8484 0.9793
-4.3521 2.7969 -0.8523 0.9792
-4.6282 2.3167 -0.8526 0.9792
-5.2993 2.4201 -0.9597 0.9767
-5.6966 2.3596 -1.0158 0.9753
-6.6436 2.2112 -1.1535 0.9720
6.1171 7.5908 -1.8324 0.9611
5.8270 7.7839 -1.8276 0.9612
5.5378 7.9759 -1.8251 0.9613
4.3229 8.6361 -1.8153 0.9615
4.0067 8.7734 -1.8129 0.9615
3.0343 9.1166 -1.8060 0.9616
1.0200 9.4873 -1.7935 0.9619
-0.0000 9.5129 -1.7880 0.9620
-0.3392 9.4978 -1.7863 0.9621
-1.3490 9.3825 -1.7817 0.9622
-1.6817 9.3210 -1.7803 0.9622
-2.6627 9.0684 -1.7765 0.9623
-2.9828 8.9620 -1.7753 0.9623
-4.5155 8.2696 -1.7710 0.9624
-5.4724 7.8817 -1.8035 0.9617
-5.8660 7.8360 -1.8398 0.9609
-3.5883 4.1411 -1.0299 0.9779
-3.5307 3.7922 -0.9739 0.9791
-3.7115 3.2160 -0.9231 0.9802
-3.9076 2.9252 -0.9175 0.9803
-4.0081 2.7829 -0.9171 0.9803
-4.2114 2.7065 -0.9409 0.9798
-4.8970 2.4512 -1.0293 0.9780
-5.2578 2.4012 -1.0864 0.9767
-5.6687 2.3480 -1.1533 0.9753
-6.1332 2.2875 -1.2304 0.9737
9.6546 0.0000 -2.0408 0.9613
9.6395 0.3443 -2.0389 0.9613
9.4545 1.7058 -2.0308 0.9615
9.2888 2.3708 -2.0264 0.9616
9.0756 3.0207 -2.0219 0.9616
8.9517 3.3388 -2.0195 0.9617
8.8165 3.6519 -2.0172 0.9617
8.6703 3.9596 -2.0148 0.9618
8.5133 4.2614 -2.0124 0.9618
8.1677 4.8461 -2.0075 0.9619
7.1330 6.1808 -1.9951 0.9621
6.8992 6.4234 -1.9926 0.9622
6.6572 6.6572 -1.9901 0.9622
5.8776 7.2937 -1.9800 0.9624
5.3161 7.6566 -1.9703 0.9626
4.6083 7.7669 -1.9090 0.9638
4.2634 7.8079 -1.8804 0.9643
3.2833 7.9265 -1.8136 0.9655
1.5135 8.3889 -1.8019 0.9657
1.2119 8.4292 -1.8001 0.9658
0.9094 8.4589 -1.7983 0.9658
0.6064 8.4780 -1.7967 0.9658
0.3031 8.4866 -1.7950 0.9659
-0.3026 8.4720 -1.7919 0.9659
-0.6043 8.4489 -1.7905 0.9660
-0.9047 8.4154 -1.7891 0.9660
-1.2036 8.3715 -1.7878 0.9660
-1.5006 8.3173 -1.7865 0.9660
-2.0874 8.1783 -1.7842 0.9661
-3.3243 8.0257 -1.8362 0.9651
-4.9137 7.6459 -1.9212 0.9635
-5.1890 7.4735 -1.9232 0.9635
-3.2904 3.7974 -1.0621 0.9797
-3.6159 2.9139 -0.9816 0.9812
-3.7250 2.7885 -0.9836 0.9812
-4.0412 2.5972 -1.0154 0.9806
-4.2724 2.5350 -1.0501 0.9799
-4.5499 2.4844 -1.0958 0.9790
-4.8709 2.4382 -1.1514 0.9780
-5.6345 2.3339 -1.2891 0.9754
-6.6788 2.2229 -1.4879 0.9716
-8.9374 1.9442 -1.9334 0.9633
-9.0072 1.6251 -1.9347 0.9633
-9.0660 1.3035 -1.9361 0.9632
-9.1136 0.9798 -1.9375 0.9632
-9.1750 0.3277 -1.9406 0.9632
8.6613 0.0000 -2.0356 0.9650
8.5895 0.9235 -2.0304 0.9651
8.5433 1.2284 -2.0285 0.9652
8.3391 2.1284 -2.0227 0.9653
8.1496 2.7125 -2.0186 0.9653
8.0393 2.9985 -2.0166 0.9654
7.9188 3.2801 -2.0145 0.9654
7.1716 4.6089 -2.0036 0.9656
6.9947 4.8566 -2.0013 0.9656
6.8093 5.0974 -1.9991 0.9657
6.2045 5.7766 -1.9923 0.9658
5.9875 5.9876 -1.9901 0.9658
5.7635 6.1905 -1.9879 0.9658
4.5475 7.0760 -1.9768 0.9660
4.0223 7.3663 -1.9725 0.9661
3.4736 7.6062 -1.9652 0.9662
3.1945 7.7122 -1.9619 0.9663
2.9125 7.8087 -1.9587 0.9663
2.6278 7.8953 -1.9557 0.9664
2.3370 7.9591 -1.9495 0.9665
1.7400 7.9989 -1.9239 0.9669
0.8650 8.0452 -1.9017 0.9673
0.2879 8.0610 -1.8957 0.9674
-1.7472 8.0318 -1.9318 0.9668
-2.3159 7.8871 -1.9319 0.9668
-2.5963 7.8005 -1.9322 0.9668
-2.8737 7.7047 -1.9326 0.9668
-3.1480 7.5999 -1.9333 0.9668
-3.4168 7.4818 -1.9331 0.9668
-4.1929 7.0668 -1.9312 0.9668
-4.9212 6.5740 -1.9300 0.9668
-3.2793 3.0531 -1.0530 0.9818
-3.3730 2.9228 -1.0489 0.9818
-3.4739 2.7994 -1.0485 0.9818
-3.5872 2.6854 -1.0531 0.9818
-3.7912 2.6323 -1.0847 0.9812
-4.0007 2.5711 -1.1177 0.9806
-4.5286 2.4728 -1.2127 0.9790
-4.8547 2.4301 -1.2759 0.9779
-5.6409 2.3365 -1.4350 0.9752
-6.6814 2.2238 -1.6550 0.9715
-7.9892 2.0391 -1.9378 0.9667
-8.0615 1.7538 -1.9390 0.9667
-8.1240 1.4657 -1.9401 0.9666
-8.1764 1.1756 -1.9414 0.9666
-8.2187 0.8836 -1.9427 0.9666
-8.2728 0.2955 -1.9455 0.9666
7.8135 0.5588 -2.0282 0.9682
7.7823 0.8367 -2.0266 0.9682
7.7412 1.1130 -2.0249 0.9682
7.6900 1.3874 -2.0232 0.9682
7.5582 1.9291 -2.0197 0.9683
7.4777 2.1957 -2.0179 0.9683
7.3878 2.4589 -2.0160 0.9683
7.2885 2.7185 -2.0141 0.9684
7.1800 2.9741 -2.0122 0.9684
7.0625 3.2253 -2.0103 0.9684
6.9361 3.4720 -2.0083 0.9685
5.8208 5.0438 -1.9942 0.9687
5.6313 5.2430 -1.9922 0.9687
5.2322 5.6198 -1.9881 0.9688
5.0232 5.7971 -1.9861 0.9688
4.5875 6.1282 -1.9820 0.9689
3.8945 6.5639 -1.9761 0.9690
3.4097 6.8117 -1.9723 0.9690
2.6545 7.1171 -1.9667 0.9691
2.3966 7.2007 -1.9649 0.9691
1.6089 7.3962 -1.9598 0.9692
1.0754 7.4798 -1.9566 0.9693
0.8071 7.5075 -1.9550 0.9693
0.5382 7.5257 -1.9535 0.9693
0.0000 7.5339 -1.9507 0.9694
-0.2687 7.5239 -1.9493 0.9694
-1.5955 7.3342 -1.9434 0.9695
-2.1125 7.1945 -1.9414 0.9695
-2.3669 7.1112 -1.9405 0.9695
-2.6180 7.0192 -1.9397 0.9695
-2.8657 6.9185 -1.9389 0.9695
-3.3497 6.6919 -1.9376 0.9696
-3.5854 6.5661 -1.9370 0.9696
-4.0427 6.2905 -1.9361 0.9696
-4.2638 6.1411 -1.9357 0.9696
-3.1217 3.8738 -1.2881 0.9797
-3.0832 3.5582 -1.2190 0.9807
-3.1297 3.1296 -1.1460 0.9819
-3.2699 2.8334 -1.1203 0.9823
-3.5401 2.6501 -1.1450 0.9819
-3.7274 2.5879 -1.1749 0.9814
-4.2406 2.5161 -1.2767 0.9798
-4.8709 2.4382 -1.4103 0.9777
-5.2279 2.3875 -1.4881 0.9765
-6.4535 2.4070 -1.7834 0.9719
-7.1951 2.1127 -1.9416 0.9695
-7.2696 1.8554 -1.9426 0.9695
-7.3914 1.3336 -1.9447 0.9694
-7.4767 0.8038 -1.9470 0.9694
-7.5055 0.5368 -1.9483 0.9694
-7.5249 0.2687 -1.9496 0.9694
7.1067 0.7641 -2.0235 0.9707
7.0696 1.0165 -2.0219 0.9707
7.0234 1.2672 -2.0204 0.9708
6.9682 1.5158 -2.0188 0.9708
6.7495 2.2464 -2.0138 0.9709
6.5607 2.7175 -2.0103 0.9709
6.4538 2.9474 -2.0085 0.9709
6.2160 3.3942 -2.0050 0.9710
5.6489 4.2287 -1.9976 0.9711
5.4892 4.4235 -1.9957 0.9711
4.7859 5.1404 -1.9883 0.9712
3.7797 5.8813 -1.9791 0.9714
3.1209 6.2348 -1.9738 0.9714
2.6636 6.4304 -1.9704 0.9715
2.4303 6.5159 -1.9687 0.9715
2.1943 6.5930 -1.9671 0.9715
1.9560 6.6616 -1.9655 0.9715
1.4735 6.7735 -1.9624 0.9716
0.9850 6.8510 -1.9594 0.9716
0.7393 6.8768 -1.9580 0.9717
0.4931 6.8939 -1.9566 0.9717
0.2465 6.9025 -1.9553 0.9717
-0.2462 6.8935 -1.9527 0.9717
-0.4918 6.8761 -1.9516 0.9717
-0.7365 6.8502 -1.9504 0.9718
-0.9800 6.8157 -1.9493 0.9718
-1.2220 6.7728 -1.9483 0.9718
-1.4622 6.7215 -1.9473 0.9718
-1.7003 6.6618 -1.9464 0.9718
-1.9361 6.5939 -1.9455 0.9718
-2.3997 6.4337 -1.9439 0.9719
-2.6268 6.3417 -1.9432 0.9719
-3.0706 6.1343 -1.9420 0.9719
-3.2867 6.0192 -1.9415 0.9719
-4.1068 5.4860 -1.9400 0.9719
-3.0799 3.8220 -1.3896 0.9798
-3.0531 3.2793 -1.2684 0.9815
-3.0946 3.0946 -1.2389 0.9820
-3.1602 2.9423 -1.2224 0.9822
-3.3519 2.7011 -1.2186 0.9823
-3.5161 2.6321 -1.2434 0.9819
-3.7237 2.5854 -1.2833 0.9813
-3.9629 2.5468 -1.3336 0.9806
-6.4342 2.3998 -1.9441 0.9719
-6.5945 1.9363 -1.9457 0.9718
-6.7221 1.4623 -1.9475 0.9718
-6.7735 1.2221 -1.9485 0.9718
-6.8165 0.9800 -1.9495 0.9718
-6.8769 0.4919 -1.9518 0.9717
-6.8944 0.2462 -1.9530 0.9717
6.5745 0.2348 -2.0235 0.9728
6.5576 0.4690 -2.0221 0.9729
6.5323 0.7023 -2.0208 0.9729
6.4986 0.9344 -2.0194 0.9729
6.3476 1.6201 -2.0150 0.9730
6.2810 1.8443 -2.0135 0.9730
6.2063 2.0657 -2.0119 0.9730
6.1238 2.2841 -2.0103 0.9730
5.8304 2.9185 -2.0054 0.9731
5.5980 3.3215 -2.0021 0.9731
5.4713 3.5162 -2.0004 0.9731
5.1977 3.8909 -1.9970 0.9732
5.0511 4.0705 -1.9953 0.9732
4.8984 4.2445 -1.9936 0.9732
4.7397 4.4129 -1.9919 0.9733
4.2299 4.8816 -1.9867 0.9733
4.0495 5.0252 -1.9850 0.9734
3.6745 5.2923 -1.9817 0.9734
2.8744 5.7423 -1.9751 0.9735
2.6654 5.8365 -1.9735 0.9735
1.8021 6.1374 -1.9674 0.9736
1.5807 6.1933 -1.9660 0.9736
1.1333 6.2813 -1.9632 0.9736
0.4544 6.3537 -1.9593 0.9737
0.2272 6.3619 -1.9580 0.9737
-0.2269 6.3543 -1.9557 0.9737
-0.4533 6.3386 -1.9546 0.9738
-0.6789 6.3150 -1.9535 0.9738
-0.9034 6.2835 -1.9525 0.9738
-1.3481 6.1971 -1.9507 0.9738
-1.5677 6.1423 -1.9498 0.9738
-2.4223 5.8479 -1.9469 0.9739
-2.6287 5.7559 -1.9463 0.9739
-2.8317 5.6569 -1.9457 0.9739
-3.0310 5.5508 -1.9453 0.9739
-3.2265 5.4379 -1.9448 0.9739
-3.0227 3.2465 -1.3644 0.9816
-3.0735 3.0735 -1.3369 0.9820
-3.1342 2.9181 -1.3172 0.9822
-3.2240 2.7936 -1.3121 0.9823
-3.7125 2.5777 -1.3902 0.9813
-4.5445 2.4815 -1.5926 0.9786
-5.7563 2.6288 -1.9464 0.9739
-5.8483 2.4224 -1.9470 0.9739
-5.9330 2.2129 -1.9477 0.9738
-6.0104 2.0004 -1.9484 0.9738
-6.1428 1.5679 -1.9500 0.9738
-6.3550 0.2270 -1.9559 0.9737
6.0833 0.0000 -2.0221 0.9747
6.0759 0.2170 -2.0209 0.9747
5.9681 1.0768 -2.0159 0.9748
5.7382 1.9099 -2.0103 0.9748
5.6622 2.1119 -2.0088 0.9748
5.3919 2.6990 -2.0043 0.9749
5.1776 3.0721 -2.0012 0.9749
5.0607 3.2524 -1.9997 0.9750
4.9375 3.4282 -1.9981 0.9750
4.6730 3.7658 -1.9949 0.9750
4.3855 4.0830 -1.9918 0.9751
4.0765 4.3785 -1.9886 0.9751
3.9145 4.5176 -1.9870 0.9751
3.5766 4.7778 -1.9839 0.9752
3.4012 4.8986 -1.9823 0.9752
3.2216 5.0130 -1.9808 0.9752
2.2718 5.4846 -1.9733 0.9753
1.4640 5.7360 -1.9678 0.9754
1.0497 5.8181 -1.9652 0.9754
0.8408 5.8481 -1.9639 0.9754
0.4210 5.8860 -1.9615 0.9754
0.2105 5.8938 -1.9604 0.9754
-0.0000 5.8943 -1.9593 0.9755
-0.8371 5.8224 -1.9553 0.9755
-1.4529 5.6922 -1.9528 0.9755
-2.0508 5.4983 -1.9507 0.9756
-2.4364 5.3348 -1.9495 0.9756
-2.8093 5.1449 -1.9486 0.9756
-3.1680 4.9296 -1.9478 0.9756
-3.3414 4.8126 -1.9475 0.9756
-3.0846 3.8277 -1.6341 0.9795
-3.0216 3.4871 -1.5337 0.9807
-3.0190 3.2427 -1.4727 0.9815
-3.1185 2.9034 -1.4163 0.9822
-3.3236 2.6783 -1.4188 0.9822
-3.4827 2.6072 -1.4461 0.9818
-4.2708 2.5340 -1.6507 0.9793
-5.1452 2.8095 -1.9486 0.9756
-5.6349 1.6546 -1.9522 0.9755
-5.6926 1.4529 -1.9529 0.9755
-5.7432 1.2494 -1.9537 0.9755
-5.7867 1.0440 -1.9546 0.9755
-5.8229 0.8372 -1.9555 0.9755
-5.8519 0.6292 -1.9564 0.9755
-5.8879 0.2103 -1.9584 0.9755
5.5781 0.8020 -2.0153 0.9763
5.2597 1.9618 -2.0075 0.9764
5.1828 2.1468 -2.0061 0.9765
5.0993 2.3288 -2.0047 0.9765
4.7025 3.0222 -1.9990 0.9765
4.3430 3.4998 -1.9946 0.9766
4.2122 3.6499 -1.9931 0.9766
4.0762 3.7951 -1.9917 0.9766
3.9352 3.9353 -1.9902 0.9766
3.7895 4.0702 -1.9887 0.9767
3.3253 4.4421 -1.9843 0.9767
3.1624 4.5547 -1.9829 0.9767
2.9956 4.6613 -1.9814 0.9767
2.8253 4.7618 -1.9800 0.9768
2.4749 4.9442 -1.9772 0.9768
2.2952 5.0259 -1.9759 0.9768
2.1130 5.1012 -1.9745 0.9768
1.9282 5.1699 -1.9732 0.9768
1.7413 5.2320 -1.9719 0.9768
0.9766 5.4129 -1.9669 0.9769
0.7823 5.4411 -1.9658 0.9769
0.5873 5.4624 -1.9646 0.9769
-0.0000 5.4849 -1.9615 0.9770
-0.1957 5.4787 -1.9605 0.9770
-0.3909 5.4656 -1.9595 0.9770
-0.9716 5.3853 -1.9569 0.9770
-1.1628 5.3450 -1.9561 0.9770
-1.3522 5.2981 -1.9554 0.9770
-1.5399 5.2446 -1.9547 0.9770
-1.7256 5.1845 -1.9540 0.9771
-2.0898 5.0452 -1.9528 0.9771
-2.4431 4.8808 -1.9519 0.9771
-2.6152 4.7895 -1.9514 0.9771
-2.7840 4.6922 -1.9511 0.9771
-3.0197 3.2433 -1.5847 0.9814
-3.1055 2.8913 -1.5173 0.9821
-3.2050 2.7771 -1.5165 0.9821
-3.3216 2.6767 -1.5255 0.9820
-3.5231 2.6373 -1.5738 0.9815
-3.7162 2.5802 -1.6179 0.9810
-3.9683 2.5503 -1.6869 0.9802
-4.7896 2.6154 -1.9515 0.9771
-4.8810 2.4433 -1.9520 0.9771
-5.1183 1.9090 -1.9535 0.9771
-5.2449 1.5400 -1.9548 0.9770
-5.3454 1.1628 -1.9563 0.9770
-5.3857 0.9717 -1.9571 0.9770
-5.4193 0.7792 -1.9579 0.9770
-5.4661 0.3909 -1.9597 0.9770
5.2009 0.7478 -2.0136 0.9777
5.1284 1.1156 -2.0113 0.9778
5.0297 1.4769 -2.0088 0.9778
4.9707 1.6544 -2.0076 0.9778
4.8339 2.0023 -2.0051 0.9778
4.5831 2.5026 -2.0011 0.9779
4.2806 2.9721 -1.9971 0.9779
4.1690 3.1209 -1.9957 0.9779
4.0521 3.2654 -1.9943 0.9780
3.2519 4.0354 -1.9861 0.9780
3.1037 4.1461 -1.9847 0.9781
2.7962 4.3511 -1.9820 0.9781
2.6374 4.4451 -1.9807 0.9781
2.4754 4.5334 -1.9794 0.9781
2.1429 4.6923 -1.9768 0.9781
1.9728 4.7628 -1.9756 0.9782
1.4497 4.9372 -1.9719 0.9782
1.2718 4.9829 -1.9707 0.9782
1.0925 5.0222 -1.9696 0.9782
0.5485 5.1017 -1.9663 0.9783
0.3659 5.1154 -1.9653 0.9783
-0.1828 5.1177 -1.9624 0.9783
-0.3652 5.1056 -1.9615 0.9783
-0.7278 5.0622 -1.9599 0.9783
-0.9077 5.0310 -1.9591 0.9783
-1.2634 4.9498 -1.9577 0.9784
-1.4387 4.8999 -1.9570 0.9784
-1.9526 4.7139 -1.9553 0.9784
-2.1191 4.6401 -1.9548 0.9784
-2.2828 4.5605 -1.9544 0.9784
-2.7558 4.2880 -1.9533 0.9784
-3.1973 3.9677 -1.9527 0.9784
-3.4719 3.7291 -1.9525 0.9784
-3.7161 2.5801 -1.7337 0.9808
-3.9674 2.5497 -1.8073 0.9800
-4.3845 2.6015 -1.9537 0.9784
-4.6403 2.1192 -1.9549 0.9784
-4.7822 1.7837 -1.9559 0.9784
-4.8442 1.6123 -1.9565 0.9784
-4.9002 1.4388 -1.9571 0.9784
-4.9501 1.2635 -1.9578 0.9784
-4.9939 1.0863 -1.9585 0.9783
-5.0314 0.9078 -1.9592 0.9783
-5.1060 0.3652 -1.9617 0.9783
-5.1181 0.1828 -1.9626 0.9783
4.9260 0.0000 -2.0161 0.9789
4.9205 0.1757 -2.0151 0.9789
4.9087 0.3511 -2.0141 0.9790
4.8662 0.6996 -2.0121 0.9790
4.7557 1.2138 -2.0088 0.9790
4.7067 1.3820 -2.0077 0.9790
4.6517 1.5482 -2.0065 0.9790
4.5907 1.7123 -2.0053 0.9790
4.5240 1.8739 -2.0041 0.9791
4.4515 2.0330 -2.0029 0.9791
4.3734 2.1892 -2.0017 0.9791
4.2898 2.3424 -2.0004 0.9791
4.2008 2.4925 -1.9992 0.9791
4.1066 2.6392 -1.9979 0.9791
3.9029 2.9217 -1.9953 0.9791
3.7937 3.0571 -1.9941 0.9792
3.6798 3.1886 -1.9928 0.9792
3.5613 3.3157 -1.9915 0.9792
3.3114 3.5567 -1.9889 0.9792
3.1803 3.6703 -1.9876 0.9792
3.0453 3.7790 -1.9864 0.9792
2.9066 3.8828 -1.9851 0.9793
2.7644 3.9816 -1.9838 0.9793
2.6189 4.0751 -1.9826 0.9793
2.4702 4.1634 -1.9813 0.9793
2.3186 4.2463 -1.9801 0.9793
2.0073 4.3955 -1.9777 0.9793
1.8481 4.4617 -1.9765 0.9793
1.6867 4.5221 -1.9753 0.9794
1.0236 4.7056 -1.9709 0.9794
0.6846 4.7616 -1.9688 0.9794
0.5140 4.7806 -1.9678 0.9794
0.3428 4.7935 -1.9669 0.9794
0.1714 4.8004 -1.9660 0.9795
-0.1713 4.7961 -1.9642 0.9795
-0.3422 4.7849 -1.9633 0.9795
-0.6822 4.7445 -1.9618 0.9795
-0.8508 4.7154 -1.9611 0.9795
-1.1842 4.6395 -1.9597 0.9795
-1.3486 4.5929 -1.9591 0.9795
-1.5112 4.5405 -1.9585 0.9795
-1.6718 4.4824 -1.9580 0.9795
-2.1400 4.2751 -1.9566 0.9795
-2.2907 4.1952 -1.9563 0.9796
-2.4386 4.1101 -1.9559 0.9796
-2.5834 4.0198 -1.9557 0.9796
-2.7249 3.9246 -1.9554 0.9796
-2.9974 3.7195 -1.9551 0.9796
-3.2548 3.4959 -1.9549 0.9796
-3.4959 3.2548 -1.9549 0.9796
-3.7196 2.9974 -1.9551 0.9796
-3.7151 2.5795 -1.8511 0.9806
-4.1953 2.2908 -1.9563 0.9796
-4.2752 2.1400 -1.9567 0.9795
-4.4826 1.6719 -1.9581 0.9795
-4.5407 1.5113 -1.9586 0.9795
-4.6807 1.0182 -1.9605 0.9795
-4.7157 0.8508 -1.9612 0.9795
-4.7449 0.6822 -1.9619 0.9795
-4.7681 0.5126 -1.9627 0.9795
-4.7853 0.3423 -1.9635 0.9795
4.6173 0.1649 -2.0136 0.9800
4.5381 0.8188 -2.0097 0.9801
4.5037 0.9797 -2.0087 0.9801
4.3662 1.4532 -2.0055 0.9801
4.3092 1.6073 -2.0044 0.9801
4.2467 1.7590 -2.0033 0.9801
4.1057 2.0552 -2.0010 0.9802
3.8556 2.4779 -1.9974 0.9802
3.7625 2.6124 -1.9962 0.9802
3.3443 3.1137 -1.9914 0.9803
2.9868 3.4470 -1.9878 0.9803
2.4600 3.8279 -1.9830 0.9803
1.8858 4.1294 -1.9784 0.9804
1.7363 4.1917 -1.9773 0.9804
1.5847 4.2487 -1.9762 0.9804
1.4312 4.3002 -1.9752 0.9804
1.2762 4.3462 -1.9741 0.9804
0.8030 4.4509 -1.9711 0.9805
0.6433 4.4746 -1.9701 0.9805
0.4830 4.4925 -1.9692 0.9805
-0.4818 4.4812 -1.9642 0.9805
-0.6412 4.4595 -1.9635 0.9805
-0.7997 4.4322 -1.9628 0.9805
-0.9570 4.3994 -1.9622 0.9805
-1.1131 4.3611 -1.9615 0.9806
-1.4205 4.2681 -1.9604 0.9806
-1.5716 4.2136 -1.9599 0.9806
-1.7206 4.1538 -1.9595 0.9806
-1.8673 4.0889 -1.9590 0.9806
-2.0117 4.0188 -1.9587 0.9806
-2.6914 3.5954 -1.9573 0.9806
-2.9407 3.3938 -1.9571 0.9806
-3.0599 3.2866 -1.9570 0.9806
-3.5954 2.6915 -1.9574 0.9806
-3.6896 2.5617 -1.9576 0.9806
-4.0190 2.0118 -1.9587 0.9806
-4.1540 1.7206 -1.9596 0.9806
-1.5118 0.5639 -0.7032 0.9930
-1.4401 0.4793 -0.6615 0.9934
-1.4180 0.2039 -0.6244 0.9938
4.3489 0.0000 -2.0131 0.9810
4.3444 0.1552 -2.0122 0.9810
4.3342 0.3100 -2.0114 0.9810
4.2381 0.9219 -2.0076 0.9811
4.1574 1.2207 -2.0056 0.9811
4.1091 1.3676 -2.0046 0.9811
4.0555 1.5126 -2.0036 0.9811
3.7124 2.2027 -1.9981 0.9812
3.6294 2.3325 -1.9970 0.9812
3.5418 2.4592 -1.9959 0.9812
3.1486 2.9315 -1.9914 0.9812
2.8124 3.2457 -1.9879 0.9812
2.6932 3.3421 -1.9868 0.9813
2.3166 3.6048 -1.9835 0.9813
1.9149 3.8255 -1.9802 0.9813
1.7762 3.8893 -1.9791 0.9813
1.2021 4.0940 -1.9751 0.9814
1.0547 4.1323 -1.9741 0.9814
0.9061 4.1653 -1.9731 0.9814
0.4550 4.2325 -1.9704 0.9814
0.3035 4.2442 -1.9696 0.9814
0.1518 4.2505 -1.9687 0.9814
-0.0000 4.2515 -1.9679 0.9814
-0.4540 4.2224 -1.9657 0.9815
-0.6042 4.2020 -1.9650 0.9815
-0.7535 4.1764 -1.9644 0.9815
-0.9018 4.1455 -1.9638 0.9815
-1.0489 4.1095 -1.9632 0.9815
-1.3387 4.0221 -1.9622 0.9815
-1.6214 3.9145 -1.9612 0.9815
-2.1605 3.6413 -1.9599 0.9815
-2.6557 3.2955 -1.9591 0.9815
-2.7714 3.1985 -1.9590 0.9815
-2.8838 3.0974 -1.9589 0.9815
-2.9925 2.9925 -1.9589 0.9815
-3.0974 2.8838 -1.9590 0.9815
-3.1985 2.7715 -1.9590 0.9815
-3.2955 2.6557 -1.9591 0.9815
-3.3885 2.5366 -1.9593 0.9815
-3.4771 2.4142 -1.9594 0.9815
-3.5615 2.2889 -1.9597 0.9815
-3.6414 2.1606 -1.9599 0.9815
-3.8535 1.7598 -1.9609 0.9815
-1.2345 0.5114 -0.6185 0.9941
-1.2017 0.4482 -0.5937 0.9944
-1.1790 0.2565 -0.5585 0.9947
-1.2124 0.1743 -0.5670 0.9946
-1.2261 0.1318 -0.5708 0.9946
-1.2362 0.0884 -0.5737 0.9946
-1.2424 0.0444 -0.5755 0.9945
4.1013 0.0000 -2.0118 0.9819
4.0970 0.1463 -2.0110 0.9819
4.0875 0.2924 -2.0102 0.9819
4.0728 0.4379 -2.0093 0.9819
4.0528 0.5827 -2.0084 0.9819
4.0276 0.7267 -2.0076 0.9819
3.9973 0.8696 -2.0066 0.9819
3.9619 1.0112 -2.0057 0.9819
3.9214 1.1514 -2.0048 0.9820
3.8256 1.4269 -2.0028 0.9820
3.7103 1.6945 -2.0008 0.9820
3.6456 1.8249 -1.9998 0.9820
3.5763 1.9528 -1.9987 0.9820
3.4243 2.2007 -1.9966 0.9820
3.2551 2.4367 -1.9945 0.9820
3.1643 2.5500 -1.9934 0.9821
3.0696 2.6599 -1.9924 0.9821
2.9711 2.7662 -1.9913 0.9821
2.8690 2.8690 -1.9902 0.9821
2.7633 2.9679 -1.9891 0.9821
2.6541 3.0630 -1.9881 0.9821
2.3078 3.3239 -1.9849 0.9821
1.9362 3.5459 -1.9818 0.9822
1.6766 3.6713 -1.9798 0.9822
1.4090 3.7778 -1.9778 0.9822
0.9957 3.9012 -1.9750 0.9822
0.8555 3.9325 -1.9741 0.9822
0.5722 3.9800 -1.9724 0.9822
0.2866 4.0074 -1.9707 0.9823
0.1433 4.0135 -1.9699 0.9823
-0.1432 4.0104 -1.9685 0.9823
-0.2862 4.0014 -1.9678 0.9823
-0.4287 3.9872 -1.9671 0.9823
-0.8516 3.9149 -1.9653 0.9823
-0.9905 3.8809 -1.9647 0.9823
-1.1281 3.8421 -1.9642 0.9823
-1.5313 3.6970 -1.9629 0.9823
-1.7905 3.5770 -1.9621 0.9823
-1.9167 3.5103 -1.9618 0.9823
-2.5082 3.1126 -1.9608 0.9823
-2.6176 3.0209 -1.9607 0.9823
-2.8264 2.8264 -1.9607 0.9823
-2.9255 2.7237 -1.9607 0.9823
-3.0209 2.6177 -1.9608 0.9823
-3.2004 2.3958 -1.9610 0.9823
-3.3637 2.1618 -1.9614 0.9823
-3.4392 2.0406 -1.9616 0.9823
-3.5103 1.9168 -1.9619 0.9823
-1.0588 0.5300 -0.5808 0.9947
-1.0444 0.4769 -0.5632 0.9949
-1.0290 0.4262 -0.5463 0.9951
-1.0025 0.3337 -0.5183 0.9953
-1.0518 0.1898 -0.5242 0.9952
-1.0611 0.1526 -0.5258 0.9952
-1.0705 0.1151 -0.5281 0.9952
-1.0769 0.0770 -0.5296 0.9952
-1.0803 0.0386 -0.5302 0.9952
3.8717 0.1383 -2.0098 0.9827
3.8490 0.4138 -2.0083 0.9827
3.8302 0.5507 -2.0074 0.9827
3.8065 0.6868 -2.0066 0.9827
3.7445 0.9557 -2.0049 0.9827
3.7064 1.0883 -2.0040 0.9827
3.6635 1.2193 -2.0031 0.9828
3.6160 1.3487 -2.0021 0.9828
3.5072 1.6017 -2.0002 0.9828
3.4462 1.7250 -1.9993 0.9828
3.3807 1.8460 -1.9983 0.9828
3.3110 1.9645 -1.9973 0.9828
2.4035 2.9826 -1.9872 0.9829
2.2944 3.0649 -1.9862 0.9829
2.1824 3.1433 -1.9852 0.9829
1.8312 3.3536 -1.9822 0.9829
1.7095 3.4152 -1.9813 0.9829
1.5858 3.4723 -1.9803 0.9829
1.4601 3.5251 -1.9794 0.9830
0.8092 3.7200 -1.9750 0.9830
0.5413 3.7651 -1.9733 0.9830
0.4064 3.7805 -1.9725 0.9830
-0.1355 3.7943 -1.9696 0.9830
-0.2708 3.7857 -1.9690 0.9830
-0.6733 3.7317 -1.9672 0.9831
-1.4490 3.4982 -1.9643 0.9831
-1.5727 3.4437 -1.9640 0.9831
-1.8137 3.3217 -1.9634 0.9831
-2.4771 2.8587 -1.9623 0.9831
-2.7684 2.5775 -1.9623 0.9831
-3.1077 2.1577 -1.9627 0.9831
-3.1831 2.0456 -1.9629 0.9831
-3.2544 1.9309 -1.9631 0.9831
-0.9486 0.5180 -0.5607 0.9951
-0.9416 0.4713 -0.5462 0.9953
-0.9326 0.4259 -0.5319 0.9954
-0.9271 0.3840 -0.5206 0.9955
-0.9208 0.3434 -0.5098 0.9956
-0.9524 0.2431 -0.5099 0.9956
-0.9628 0.2095 -0.5112 0.9956
-0.9838 0.1058 -0.5133 0.9956
-0.9873 0.0706 -0.5135 0.9955
-0.9893 0.0353 -0.5135 0.9955
3.6690 0.0000 -2.0095 0.9834
3.6570 0.2616 -2.0081 0.9834
3.6263 0.5214 -2.0065 0.9834
3.5770 0.7781 -2.0049 0.9834
3.5454 0.9049 -2.0041 0.9835
3.4689 1.1546 -2.0024 0.9835
3.4240 1.2771 -2.0015 0.9835
3.3747 1.3978 -2.0006 0.9835
3.3211 1.5167 -1.9997 0.9835
3.1356 1.8604 -1.9969 0.9835
3.0658 1.9703 -1.9960 0.9835
2.9920 2.0774 -1.9950 0.9835
2.9146 2.1819 -1.9941 0.9835
2.3773 2.7436 -1.9883 0.9836
2.0674 2.9777 -1.9855 0.9836
1.8480 3.1147 -1.9836 0.9836
1.2628 3.3856 -1.9791 0.9837
1.1406 3.4271 -1.9782 0.9837
0.8925 3.4968 -1.9766 0.9837
0.7668 3.5250 -1.9758 0.9837
0.6403 3.5487 -1.9750 0.9837
0.5130 3.5679 -1.9742 0.9837
0.2570 3.5927 -1.9728 0.9837
0.1285 3.5983 -1.9721 0.9837
-0.1284 3.5959 -1.9707 0.9837
-0.5116 3.5583 -1.9689 0.9837
-0.6381 3.5368 -1.9684 0.9837
-0.7637 3.5108 -1.9679 0.9837
-1.1338 3.4067 -1.9665 0.9838
-1.3734 3.3158 -1.9657 0.9838
-1.6060 3.2083 -1.9650 0.9838
-1.9390 3.0171 -1.9643 0.9838
-2.0452 2.9457 -1.9641 0.9838
-2.5353 2.5352 -1.9637 0.9838
-2.6241 2.4432 -1.9637 0.9838
-2.7098 2.3480 -1.9638 0.9838
-2.7920 2.2499 -1.9639 0.9838
-2.8707 2.1489 -1.9640 0.9838
-2.9458 2.0453 -1.9642 0.9838
-3.0172 1.9390 -1.9643 0.9838
-0.8524 0.5057 -0.5428 0.9955
-0.8507 0.4645 -0.5309 0.9956
-0.8516 0.4263 -0.5216 0.9957
-0.8465 0.3157 -0.4948 0.9959
-0.8932 0.1943 -0.5006 0.9958
-0.9011 0.1626 -0.5015 0.9958
-0.9127 0.0981 -0.5028 0.9958
-0.9161 0.0655 -0.5030 0.9958
-0.9179 0.0328 -0.5031 0.9958
3.4755 0.1241 -2.0078 0.9841
3.4386 0.4944 -2.0057 0.9841
3.3622 0.8582 -2.0034 0.9841
3.3281 0.9772 -2.0026 0.9841
3.2897 1.0949 -2.0018 0.9841
3.1498 1.4385 -1.9992 0.9841
3.0951 1.5493 -1.9984 0.9841
2.9741 1.7646 -1.9966 0.9842
2.7647 2.0696 -1.9939 0.9842
2.6878 2.1660 -1.9930 0.9842
2.6076 2.2595 -1.9921 0.9842
2.5241 2.3501 -1.9911 0.9842
2.4375 2.4375 -1.9902 0.9842
2.3479 2.5218 -1.9893 0.9842
2.2553 2.6028 -1.9884 0.9842
2.1600 2.6805 -1.9875 0.9842
1.9615 2.8252 -1.9857 0.9842
1.8586 2.8921 -1.9848 0.9842
1.7534 2.9553 -1.9839 0.9843
1.6461 3.0146 -1.9831 0.9843
1.1983 3.2127 -1.9797 0.9843
0.8469 3.3184 -1.9773 0.9843
0.7277 3.3452 -1.9765 0.9843
0.6076 3.3678 -1.9758 0.9843
0.4868 3.3861 -1.9750 0.9843
0.2439 3.4098 -1.9737 0.9843
0.1220 3.4151 -1.9730 0.9843
-0.1219 3.4129 -1.9717 0.9843
-0.6057 3.3571 -1.9695 0.9844
-0.7249 3.3325 -1.9690 0.9844
-0.8432 3.3037 -1.9685 0.9844
-1.0763 3.2337 -1.9677 0.9844
-1.1908 3.1926 -1.9673 0.9844
-1.4150 3.0985 -1.9666 0.9844
-1.6320 2.9888 -1.9661 0.9844
-1.7374 2.9283 -1.9658 0.9844
-1.8407 2.8641 -1.9656 0.9844
-1.9415 2.7963 -1.9655 0.9844
-2.0400 2.7251 -1.9653 0.9844
-2.1358 2.6504 -1.9652 0.9844
-2.2290 2.5724 -1.9651 0.9844
-2.3193 2.4911 -1.9651 0.9844
-2.4067 2.4067 -1.9651 0.9844
-2.4911 2.3193 -1.9651 0.9844
-2.7251 2.0400 -1.9653 0.9844
-0.7696 0.4946 -0.5282 0.9958
-0.7806 0.3908 -0.5040 0.9960
-0.7796 0.3229 -0.4872 0.9961
-0.7887 0.2942 -0.4860 0.9961
-0.8014 0.2667 -0.4876 0.9961
-0.8393 0.1514 -0.4924 0.9961
-0.8531 0.0610 -0.4938 0.9961
