ply
format ascii 1.0
element vertex 799
property float32 x
property float32 y
property float32 z
property float32 I
end_header
-6.7454 2.7940 -0.5353 0.9711
-6.8007 2.5365 -0.5322 0.9713
-7.1129 2.3674 -0.5497 0.9704
-7.6373 2.2425 -0.5836 0.9686
-6.3062 2.8799 -0.6656 0.9725
-6.5459 2.4415 -0.6707 0.9723
-7.9746 2.0354 -0.7901 0.9675
-6.0495 3.5893 -0.8356 0.9721
-6.0097 3.0083 -0.7983 0.9733
-6.3004 2.3499 -0.7988 0.9733
-7.6903 1.9628 -0.9428 0.9685
-8.3912 1.8254 -1.0201 0.9660
-5.4745 3.2482 -0.9019 0.9746
-5.6057 2.8060 -0.8882 0.9750
-5.6952 2.6009 -0.8871 0.9750
-6.0580 2.2595 -0.9161 0.9742
-7.0197 2.0612 -1.0366 0.9709
-8.3651 1.8197 -1.2130 0.9660
-5.0371 3.2371 -0.9864 0.9760
-5.0809 3.0146 -0.9733 0.9763
-5.1654 2.8205 -0.9695 0.9764
-5.6782 2.3520 -1.0125 0.9754
-6.0215 2.2459 -1.0587 0.9743
-6.4630 2.1511 -1.1221 0.9728
-7.5678 1.9315 -1.2867 0.9688
4.9542 8.3498 -1.8249 0.9613
4.3385 8.6672 -1.8218 0.9613
3.7030 8.9399 -1.8188 0.9614
3.3789 9.0591 -1.8173 0.9614
2.7197 9.2626 -1.8145 0.9615
2.3856 9.3467 -1.8131 0.9615
1.7102 9.4793 -1.8105 0.9616
1.0282 9.5641 -1.8080 0.9616
0.6858 9.5884 -1.8069 0.9616
0.3429 9.6008 -1.8057 0.9617
-0.6842 9.5658 -1.8026 0.9617
-1.3634 9.4828 -1.8007 0.9618
-2.0346 9.3527 -1.7991 0.9618
-3.0191 9.0709 -1.7969 0.9618
-3.3398 8.9544 -1.7963 0.9618
-3.6562 8.8268 -1.7958 0.9619
-3.9678 8.6883 -1.7953 0.9619
-5.1598 8.0288 -1.7939 0.9619
-5.4425 7.8386 -1.7937 0.9619
-4.8167 3.6058 -1.1309 0.9758
-4.8043 3.3357 -1.0993 0.9765
-4.8483 2.8766 -1.0596 0.9773
-4.9470 2.7013 -1.0594 0.9773
-5.0664 2.5361 -1.0649 0.9772
-5.9901 2.2342 -1.2017 0.9743
-6.4298 2.1400 -1.2737 0.9728
-8.2878 1.8029 -1.5942 0.9661
9.5650 0.0000 -2.0218 0.9616
9.4918 1.0205 -2.0179 0.9617
9.4429 1.3577 -2.0166 0.9617
9.3089 2.0250 -2.0137 0.9618
9.2240 2.3543 -2.0123 0.9618
9.1274 2.6800 -2.0108 0.9619
8.6267 3.9397 -2.0047 0.9620
8.1368 4.8278 -1.9999 0.9621
6.8911 6.4158 -1.9902 0.9622
6.6523 6.6523 -1.9886 0.9623
5.6127 7.4978 -1.9798 0.9624
5.3305 7.6774 -1.9757 0.9625
5.0431 7.8472 -1.9718 0.9626
4.6868 7.8992 -1.9415 0.9631
3.6525 7.9978 -1.8585 0.9647
3.3244 8.0259 -1.8363 0.9651
3.0085 8.0660 -1.8197 0.9654
2.7167 8.1625 -1.8185 0.9654
2.4220 8.2486 -1.8172 0.9655
1.8250 8.3893 -1.8148 0.9655
1.5234 8.4437 -1.8136 0.9655
1.2203 8.4875 -1.8125 0.9656
0.9160 8.5205 -1.8114 0.9656
0.6110 8.5428 -1.8104 0.9656
0.3055 8.5544 -1.8094 0.9656
-1.2152 8.4518 -1.8049 0.9657
-1.8135 8.3366 -1.8034 0.9657
-2.1092 8.2635 -1.8027 0.9657
-2.6915 8.0865 -1.8015 0.9658
-2.9942 8.0278 -1.8111 0.9656
-3.3138 8.0002 -1.8304 0.9652
-3.6392 7.9688 -1.8518 0.9648
-3.9725 7.9361 -1.8760 0.9644
-4.3149 7.9021 -1.9031 0.9639
-4.6675 7.8667 -1.9335 0.9633
-6.2770 6.7420 -1.9472 0.9630
-6.7426 6.2776 -1.9474 0.9630
-4.9095 3.9563 -1.3328 0.9746
-4.7303 3.5410 -1.2490 0.9761
-4.6804 3.0079 -1.1760 0.9775
-4.8352 2.6402 -1.1645 0.9777
-5.9846 2.2321 -1.3502 0.9742
-6.4499 2.1468 -1.4369 0.9726
-6.9555 2.0423 -1.5323 0.9708
-7.5485 1.9266 -1.6468 0.9687
-8.2841 1.8021 -1.7920 0.9659
-9.1089 1.6434 -1.9565 0.9629
-9.1664 1.3179 -1.9575 0.9628
-9.2124 0.9904 -1.9585 0.9628
-9.2700 0.3311 -1.9607 0.9628
8.5896 0.0000 -2.0187 0.9653
8.4280 1.5206 -2.0127 0.9654
8.3630 1.8193 -2.0115 0.9654
8.2874 2.1152 -2.0102 0.9655
8.2011 2.4081 -2.0088 0.9655
7.8806 3.2643 -2.0047 0.9656
6.7944 5.0862 -1.9947 0.9657
5.9839 5.9839 -1.9889 0.9658
5.5338 6.3863 -1.9860 0.9659
5.2985 6.5750 -1.9846 0.9659
4.2967 7.2417 -1.9790 0.9660
3.7640 7.5195 -1.9763 0.9660
3.4880 7.6376 -1.9733 0.9661
2.9262 7.8453 -1.9679 0.9662
2.6409 7.9346 -1.9654 0.9662
2.3532 8.0144 -1.9631 0.9663
0.8716 8.1067 -1.9162 0.9671
0.5802 8.1123 -1.9114 0.9671
0.0000 8.1112 -1.9063 0.9672
-0.2897 8.1100 -1.9073 0.9672
-0.5799 8.1084 -1.9105 0.9671
-0.8708 8.0998 -1.9146 0.9671
-1.1632 8.0902 -1.9209 0.9670
-1.7554 8.0694 -1.9408 0.9666
-2.0505 8.0339 -1.9487 0.9665
-2.3364 7.9572 -1.9491 0.9665
-2.6198 7.8712 -1.9497 0.9665
-2.9003 7.7759 -1.9505 0.9665
-3.4512 7.5571 -1.9525 0.9664
-3.7193 7.4302 -1.9528 0.9664
-3.9814 7.2914 -1.9525 0.9664
-4.2385 7.1436 -1.9522 0.9664
-4.7363 6.8216 -1.9518 0.9665
-5.4376 6.2754 -1.9515 0.9665
-5.8717 5.8717 -1.9516 0.9665
-6.0779 5.6587 -1.9517 0.9665
-6.2765 5.4386 -1.9519 0.9665
-4.8468 3.9058 -1.4629 0.9747
-4.6431 3.2237 -1.3285 0.9770
-4.6476 2.9868 -1.2984 0.9776
-4.7060 2.7922 -1.2861 0.9778
-4.9492 2.4774 -1.3008 0.9775
-5.2125 2.3805 -1.3468 0.9767
-5.5815 2.3119 -1.4199 0.9755
-6.0053 2.2398 -1.5064 0.9740
-6.4517 2.1473 -1.5981 0.9724
-7.9918 2.3466 -1.9575 0.9664
-8.0736 2.0607 -1.9583 0.9663
-8.2994 0.8923 -1.9618 0.9663
-8.3301 0.5958 -1.9628 0.9663
-8.3504 0.2982 -1.9638 0.9662
7.7870 -0.0000 -2.0162 0.9683
7.6913 1.1058 -2.0119 0.9684
7.6426 1.3789 -2.0108 0.9684
7.5160 1.9183 -2.0084 0.9685
7.2546 2.7058 -2.0047 0.9685
7.1489 2.9612 -2.0035 0.9685
7.0342 3.2124 -2.0022 0.9686
6.9106 3.4592 -2.0009 0.9686
6.7784 3.7013 -1.9996 0.9686
6.6377 3.9383 -1.9983 0.9686
6.4886 4.1700 -1.9970 0.9686
6.3315 4.3960 -1.9957 0.9687
6.1664 4.6161 -1.9944 0.9687
5.8137 5.0376 -1.9918 0.9687
5.6265 5.2384 -1.9904 0.9687
5.4323 5.4323 -1.9891 0.9688
5.2315 5.6191 -1.9878 0.9688
5.0243 5.7984 -1.9865 0.9688
4.5919 6.1340 -1.9839 0.9688
4.3672 6.2900 -1.9827 0.9689
4.1373 6.4378 -1.9814 0.9689
3.9024 6.5772 -1.9801 0.9689
3.6629 6.7081 -1.9789 0.9689
2.9195 7.0484 -1.9753 0.9690
1.8825 7.3754 -1.9708 0.9690
1.6171 7.4339 -1.9698 0.9691
0.8120 7.5527 -1.9668 0.9691
0.5416 7.5733 -1.9659 0.9691
-0.5407 7.5602 -1.9625 0.9692
-0.8099 7.5331 -1.9617 0.9692
-1.6088 7.3957 -1.9597 0.9692
-1.8712 7.3313 -1.9591 0.9692
-2.1311 7.2577 -1.9585 0.9692
-2.3881 7.1752 -1.9580 0.9692
-2.6421 7.0836 -1.9575 0.9692
-3.1393 6.8742 -1.9567 0.9693
-3.6205 6.6305 -1.9560 0.9693
-3.8544 6.4962 -1.9558 0.9693
-4.3071 6.2034 -1.9554 0.9693
-5.7077 4.9457 -1.9554 0.9693
-4.6625 3.4903 -1.5080 0.9762
-4.6208 3.2082 -1.4565 0.9770
-4.6807 2.7772 -1.4092 0.9778
-4.7789 2.6094 -1.4098 0.9778
-5.2154 2.3818 -1.4845 0.9766
-5.5839 2.3129 -1.5649 0.9753
-5.9879 2.2334 -1.6547 0.9739
-7.4047 1.6108 -1.9621 0.9692
-7.5069 1.0793 -1.9636 0.9691
7.1066 0.2538 -2.0131 0.9709
7.0896 0.5071 -2.0121 0.9709
6.7192 2.2364 -2.0047 0.9710
6.6313 2.4733 -2.0036 0.9710
6.3179 3.1625 -2.0001 0.9711
5.7897 4.0199 -1.9954 0.9711
5.6391 4.2214 -1.9941 0.9711
5.4815 4.4173 -1.9929 0.9712
4.9689 4.9689 -1.9893 0.9712
4.7855 5.1400 -1.9881 0.9712
4.5962 5.3043 -1.9869 0.9712
4.4013 5.4618 -1.9857 0.9713
4.2011 5.6120 -1.9846 0.9713
3.9958 5.7550 -1.9834 0.9713
3.7856 5.8905 -1.9822 0.9713
3.5709 6.0184 -1.9811 0.9713
3.1289 6.2507 -1.9789 0.9714
2.9022 6.3549 -1.9778 0.9714
2.6721 6.4509 -1.9767 0.9714
2.2027 6.6181 -1.9746 0.9714
1.7232 6.7515 -1.9726 0.9714
1.2360 6.8506 -1.9707 0.9715
0.4959 6.9341 -1.9680 0.9715
0.2480 6.9445 -1.9672 0.9715
-0.2478 6.9390 -1.9656 0.9715
-0.4952 6.9231 -1.9649 0.9716
-0.7417 6.8986 -1.9642 0.9716
-1.4735 6.7733 -1.9623 0.9716
-1.7138 6.7145 -1.9618 0.9716
-1.9518 6.6473 -1.9613 0.9716
-2.1873 6.5718 -1.9608 0.9716
-2.4200 6.4881 -1.9603 0.9716
-3.0979 6.1889 -1.9593 0.9716
-3.7404 5.8201 -1.9586 0.9716
-4.7134 5.0626 -1.9582 0.9717
-5.2284 4.5304 -1.9585 0.9716
-4.6246 3.2109 -1.5938 0.9769
-4.6120 2.9640 -1.5520 0.9775
-4.6618 2.7660 -1.5345 0.9777
-4.9275 2.4665 -1.5600 0.9774
-5.2168 2.3824 -1.6236 0.9764
-6.5779 2.1893 -1.9626 0.9716
-6.6540 1.9538 -1.9632 0.9716
-6.8317 1.2326 -1.9652 0.9716
-6.9076 0.7426 -1.9668 0.9715
6.5352 0.2334 -2.0114 0.9730
6.5198 0.4663 -2.0105 0.9730
6.4640 0.9294 -2.0086 0.9730
6.4236 1.1589 -2.0077 0.9731
6.3751 1.3868 -2.0067 0.9731
6.3184 1.6127 -2.0057 0.9731
6.2537 1.8362 -2.0047 0.9731
6.1004 2.2753 -2.0026 0.9731
5.8129 2.9098 -1.9994 0.9732
5.7023 3.1137 -1.9983 0.9732
5.5845 3.3134 -1.9972 0.9732
5.1896 3.8849 -1.9939 0.9732
4.2311 4.8830 -1.9873 0.9733
4.0519 5.0281 -1.9862 0.9733
3.8677 5.1667 -1.9851 0.9734
3.6789 5.2986 -1.9840 0.9734
3.2880 5.5416 -1.9819 0.9734
3.0865 5.6524 -1.9809 0.9734
2.6726 5.8522 -1.9788 0.9734
1.5872 6.2187 -1.9741 0.9735
1.3636 6.2686 -1.9732 0.9735
0.4569 6.3881 -1.9699 0.9736
-0.0000 6.3995 -1.9684 0.9736
-0.2283 6.3932 -1.9677 0.9736
-0.4562 6.3788 -1.9670 0.9736
-0.6834 6.3564 -1.9663 0.9736
-1.3577 6.2414 -1.9646 0.9736
-1.5792 6.1873 -1.9641 0.9736
-2.0157 6.0561 -1.9632 0.9736
-2.2301 5.9791 -1.9628 0.9736
-2.6500 5.8027 -1.9621 0.9737
-2.8550 5.7035 -1.9618 0.9737
-3.0563 5.5973 -1.9615 0.9737
-3.2538 5.4840 -1.9613 0.9737
-3.4471 5.3639 -1.9611 0.9737
-3.6361 5.2370 -1.9610 0.9737
-4.1747 4.8178 -1.9608 0.9737
-4.8185 4.1752 -1.9610 0.9737
-5.1050 3.8216 -1.9614 0.9737
-4.5994 2.9558 -1.6816 0.9774
-4.6512 2.7597 -1.6635 0.9776
-4.7592 2.5987 -1.6678 0.9776
-5.2161 2.3821 -1.7637 0.9763
-6.0613 2.0174 -1.9649 0.9736
-6.2478 1.3591 -1.9666 0.9736
-6.2945 1.1356 -1.9673 0.9736
-6.3332 0.9106 -1.9680 0.9736
6.0488 0.0000 -2.0107 0.9748
6.0426 0.2158 -2.0099 0.9748
6.0285 0.4312 -2.0090 0.9748
6.0068 0.6458 -2.0082 0.9749
5.8956 1.2825 -2.0056 0.9749
5.5610 2.3034 -2.0008 0.9749
5.4725 2.4992 -1.9998 0.9750
5.2750 2.8804 -1.9978 0.9750
5.0510 3.2461 -1.9958 0.9750
4.6678 3.7616 -1.9927 0.9750
4.5283 3.9237 -1.9917 0.9751
4.2324 4.2324 -1.9896 0.9751
4.0766 4.3785 -1.9886 0.9751
3.9157 4.5190 -1.9876 0.9751
3.7500 4.6535 -1.9866 0.9751
3.4050 4.9042 -1.9846 0.9751
2.4742 5.4177 -1.9798 0.9752
2.0794 5.5752 -1.9779 0.9752
1.8783 5.6434 -1.9771 0.9752
1.6749 5.7043 -1.9762 0.9753
1.4696 5.7580 -1.9754 0.9753
0.6342 5.8991 -1.9722 0.9753
0.4231 5.9157 -1.9715 0.9753
-0.2115 5.9210 -1.9694 0.9753
-0.4225 5.9078 -1.9688 0.9753
-1.0507 5.8237 -1.9671 0.9754
-1.6660 5.6740 -1.9657 0.9754
-1.8671 5.6097 -1.9653 0.9754
-2.0657 5.5384 -1.9649 0.9754
-2.2617 5.4602 -1.9646 0.9754
-2.8312 5.1850 -1.9637 0.9754
-3.0142 5.0801 -1.9635 0.9754
-3.1933 4.9689 -1.9634 0.9754
-3.3684 4.8514 -1.9632 0.9754
-3.5392 4.7278 -1.9631 0.9754
-3.7056 4.5984 -1.9631 0.9754
-3.8673 4.4631 -1.9630 0.9754
-4.0242 4.3223 -1.9630 0.9754
-4.3225 4.0244 -1.9632 0.9754
-4.8529 3.3694 -1.9638 0.9754
-4.9707 3.1945 -1.9641 0.9754
-5.1876 2.8326 -1.9647 0.9754
-5.4639 2.2632 -1.9659 0.9754
-5.5425 2.0672 -1.9663 0.9754
-5.6142 1.8686 -1.9668 0.9754
-5.6788 1.6674 -1.9673 0.9754
-5.7363 1.4641 -1.9679 0.9754
-5.8296 1.0518 -1.9691 0.9753
-5.8937 0.6336 -1.9704 0.9753
-5.9281 0.2117 -1.9718 0.9753
5.6187 0.0000 -2.0093 0.9764
5.6002 0.4005 -2.0078 0.9764
5.5187 0.9957 -2.0054 0.9765
5.4773 1.1915 -2.0045 0.9765
5.3117 1.7679 -2.0019 0.9765
5.0854 2.3224 -1.9992 0.9765
4.9022 2.6768 -1.9974 0.9766
4.8012 2.8487 -1.9964 0.9766
4.6943 3.0168 -1.9955 0.9766
4.4628 3.3408 -1.9936 0.9766
4.3387 3.4963 -1.9926 0.9766
4.0743 3.7933 -1.9907 0.9766
3.9344 3.9344 -1.9898 0.9766
3.7897 4.0704 -1.9888 0.9767
3.4863 4.3263 -1.9869 0.9767
3.3281 4.4458 -1.9860 0.9767
3.1658 4.5597 -1.9851 0.9767
2.4802 4.9548 -1.9815 0.9767
2.1185 5.1146 -1.9797 0.9768
1.7468 5.2483 -1.9781 0.9768
1.5577 5.3052 -1.9773 0.9768
1.3669 5.3553 -1.9765 0.9768
0.9806 5.4350 -1.9750 0.9768
0.7857 5.4645 -1.9742 0.9768
0.5899 5.4871 -1.9735 0.9768
0.1968 5.5114 -1.9722 0.9768
-0.0000 5.5132 -1.9716 0.9769
-0.1967 5.5080 -1.9710 0.9769
-0.3931 5.4958 -1.9704 0.9769
-0.7837 5.4508 -1.9693 0.9769
-0.9775 5.4180 -1.9688 0.9769
-1.1700 5.3783 -1.9683 0.9769
-1.5500 5.2789 -1.9675 0.9769
-1.7371 5.2192 -1.9671 0.9769
-2.1043 5.0803 -1.9664 0.9769
-2.4607 4.9158 -1.9659 0.9769
-2.6343 4.8243 -1.9657 0.9769
-2.8045 4.7268 -1.9655 0.9769
-3.1342 4.5140 -1.9652 0.9769
-3.2931 4.3991 -1.9651 0.9769
-3.5984 4.1527 -1.9650 0.9769
-3.8856 3.8856 -1.9651 0.9769
-4.0219 3.7445 -1.9651 0.9769
-4.2793 3.4485 -1.9654 0.9769
-4.4001 3.2939 -1.9656 0.9769
-4.6249 2.9723 -1.9660 0.9769
-4.7287 2.8057 -1.9663 0.9769
-4.9184 2.4620 -1.9669 0.9769
-5.0041 2.2853 -1.9673 0.9769
-5.1565 1.9233 -1.9681 0.9769
-5.2231 1.7384 -1.9685 0.9769
-5.3365 1.3620 -1.9695 0.9769
-5.3832 1.1710 -1.9701 0.9769
-5.4231 0.9784 -1.9706 0.9769
-5.5142 0.1969 -1.9732 0.9768
5.2045 0.5595 -2.0060 0.9778
5.1090 1.1114 -2.0037 0.9779
5.0641 1.2925 -2.0029 0.9779
4.8909 1.8242 -2.0004 0.9779
4.7442 2.1666 -1.9987 0.9779
4.6619 2.3336 -1.9978 0.9779
4.4796 2.6579 -1.9961 0.9779
4.3799 2.8148 -1.9952 0.9779
4.2748 2.9680 -1.9943 0.9780
4.1643 3.1173 -1.9934 0.9780
3.9277 3.4034 -1.9917 0.9780
3.1063 4.1495 -1.9864 0.9780
2.7999 4.3567 -1.9846 0.9781
2.6415 4.4520 -1.9838 0.9781
2.4798 4.5415 -1.9829 0.9781
2.1478 4.7030 -1.9813 0.9781
1.4543 4.9530 -1.9782 0.9781
1.2761 4.9999 -1.9775 0.9781
1.0965 5.0404 -1.9767 0.9781
0.9155 5.0745 -1.9760 0.9782
0.7336 5.1022 -1.9754 0.9782
-0.1837 5.1434 -1.9723 0.9782
-0.3671 5.1321 -1.9718 0.9782
-0.5499 5.1144 -1.9712 0.9782
-0.7319 5.0903 -1.9708 0.9782
-0.9129 5.0597 -1.9703 0.9782
-1.2710 4.9796 -1.9694 0.9782
-1.4476 4.9301 -1.9691 0.9782
-1.6223 4.8744 -1.9687 0.9782
-1.7950 4.8126 -1.9684 0.9782
-1.9653 4.7447 -1.9681 0.9782
-2.2982 4.5912 -1.9676 0.9782
-2.6194 4.4147 -1.9672 0.9783
-2.7751 4.3181 -1.9670 0.9783
-2.9273 4.2160 -1.9669 0.9783
-3.0757 4.1087 -1.9668 0.9783
-3.2203 3.9962 -1.9668 0.9783
-3.3609 3.8787 -1.9668 0.9783
-3.6291 3.6291 -1.9668 0.9783
-3.7565 3.4974 -1.9669 0.9783
-3.8791 3.3612 -1.9670 0.9783
-3.9968 3.2209 -1.9671 0.9783
-4.1096 3.0764 -1.9673 0.9782
-4.2172 2.9280 -1.9675 0.9782
-4.3195 2.7760 -1.9677 0.9782
-4.4164 2.6204 -1.9679 0.9782
-4.7475 1.9665 -1.9692 0.9782
-4.8156 1.7961 -1.9696 0.9782
-4.9835 1.2719 -1.9710 0.9782
-5.1194 0.5504 -1.9731 0.9782
-5.1373 0.3674 -1.9737 0.9782
-5.1488 0.1839 -1.9744 0.9782
4.8881 0.3496 -2.0057 0.9790
4.7819 1.0402 -2.0029 0.9791
4.6920 1.3777 -2.0014 0.9791
4.5782 1.7076 -1.9998 0.9791
4.4412 2.0282 -1.9982 0.9791
4.3642 2.1846 -1.9974 0.9791
4.2817 2.3380 -1.9966 0.9791
4.1938 2.4883 -1.9958 0.9791
4.0023 2.7788 -1.9941 0.9792
3.8989 2.9187 -1.9933 0.9792
3.7906 3.0547 -1.9925 0.9792
3.6777 3.1867 -1.9916 0.9792
3.4381 3.4381 -1.9900 0.9792
3.3118 3.5571 -1.9891 0.9792
2.9090 3.8859 -1.9867 0.9792
2.7673 3.9857 -1.9859 0.9792
2.6222 4.0802 -1.9851 0.9793
2.4739 4.1696 -1.9843 0.9793
2.3226 4.2535 -1.9835 0.9793
2.1685 4.3320 -1.9827 0.9793
1.6910 4.5339 -1.9805 0.9793
1.5276 4.5897 -1.9797 0.9793
1.1954 4.6836 -1.9783 0.9793
1.0271 4.7217 -1.9777 0.9793
0.6872 4.7798 -1.9764 0.9793
-0.6857 4.7694 -1.9721 0.9794
-0.8553 4.7408 -1.9716 0.9794
-1.0238 4.7063 -1.9712 0.9794
-1.6820 4.5095 -1.9698 0.9794
-1.8416 4.4460 -1.9695 0.9794
-1.9988 4.3768 -1.9693 0.9794
-2.1535 4.3022 -1.9691 0.9794
-2.6004 4.0463 -1.9686 0.9794
-2.7431 3.9507 -1.9685 0.9794
-2.8822 3.8501 -1.9684 0.9794
-3.0177 3.7447 -1.9683 0.9794
-3.2771 3.5199 -1.9683 0.9794
-3.4007 3.4007 -1.9683 0.9794
-3.5201 3.2773 -1.9684 0.9794
-3.6350 3.1497 -1.9685 0.9794
-3.7453 3.0181 -1.9686 0.9794
-3.9517 2.7437 -1.9690 0.9794
-4.0476 2.6012 -1.9692 0.9794
-4.2239 2.3064 -1.9697 0.9794
-4.3042 2.1545 -1.9700 0.9794
-4.5122 1.6830 -1.9710 0.9794
-4.6692 1.1917 -1.9723 0.9794
-4.7447 0.8560 -1.9732 0.9794
-4.7963 0.5156 -1.9743 0.9794
-4.8236 0.1723 -1.9754 0.9794
4.5723 0.4916 -2.0042 0.9801
4.5504 0.6542 -2.0035 0.9801
4.5226 0.8160 -2.0029 0.9801
4.4891 0.9765 -2.0022 0.9802
4.4049 1.2934 -2.0008 0.9802
4.3543 1.4493 -2.0000 0.9802
4.1698 1.9043 -1.9978 0.9802
4.0203 2.1952 -1.9963 0.9802
3.9378 2.3364 -1.9955 0.9802
3.8504 2.4745 -1.9948 0.9802
3.6612 2.7408 -1.9932 0.9802
3.5597 2.8686 -1.9924 0.9802
3.4537 2.9926 -1.9916 0.9803
3.2288 3.2288 -1.9901 0.9803
2.8618 3.5513 -1.9877 0.9803
2.7322 3.6498 -1.9870 0.9803
2.5992 3.7436 -1.9862 0.9803
2.4630 3.8325 -1.9854 0.9803
2.3238 3.9165 -1.9847 0.9803
1.8897 4.1379 -1.9825 0.9803
1.7402 4.2012 -1.9818 0.9804
1.5886 4.2592 -1.9811 0.9804
1.2798 4.3587 -1.9798 0.9804
0.9650 4.4360 -1.9785 0.9804
0.8058 4.4662 -1.9779 0.9804
0.4848 4.5097 -1.9767 0.9804
0.1618 4.5302 -1.9756 0.9804
-0.0000 4.5319 -1.9751 0.9804
-0.3231 4.5181 -1.9741 0.9804
-0.6444 4.4815 -1.9732 0.9804
-0.8037 4.4548 -1.9728 0.9804
-1.1191 4.3844 -1.9721 0.9804
-1.5806 4.2377 -1.9711 0.9805
-1.7306 4.1780 -1.9709 0.9805
-1.8784 4.1131 -1.9706 0.9805
-2.3066 3.8876 -1.9701 0.9805
-2.4438 3.8026 -1.9699 0.9805
-2.5778 3.7127 -1.9698 0.9805
-2.7086 3.6182 -1.9698 0.9805
-2.9597 3.4156 -1.9697 0.9805
-3.0797 3.3078 -1.9697 0.9805
-3.1959 3.1959 -1.9697 0.9805
-3.3080 3.0798 -1.9698 0.9805
-3.4160 2.9599 -1.9699 0.9805
-3.5197 2.8363 -1.9700 0.9805
-3.6189 2.7091 -1.9701 0.9805
-3.7136 2.5784 -1.9703 0.9805
-3.8037 2.4445 -1.9705 0.9805
-3.9693 2.1674 -1.9710 0.9805
-4.0447 2.0246 -1.9713 0.9805
-4.1150 1.8793 -1.9716 0.9805
-1.3400 0.3420 -0.6027 0.9940
-1.4360 0.1544 -0.6294 0.9937
-1.4490 0.1036 -0.6331 0.9937
-1.4571 0.0520 -0.6354 0.9937
4.3319 0.0000 -2.0052 0.9811
4.2828 0.6158 -2.0028 0.9811
4.2252 0.9191 -2.0015 0.9811
4.1884 1.0690 -2.0009 0.9811
4.1462 1.2174 -2.0002 0.9811
3.9881 1.6519 -1.9982 0.9812
3.7847 2.0666 -1.9960 0.9812
3.6249 2.3296 -1.9946 0.9812
3.5382 2.4566 -1.9938 0.9812
3.4470 2.5804 -1.9931 0.9812
3.3514 2.7008 -1.9923 0.9812
3.2517 2.8176 -1.9916 0.9812
3.1479 2.9308 -1.9909 0.9812
3.0401 3.0402 -1.9901 0.9812
2.8134 3.2469 -1.9887 0.9812
2.4476 3.5252 -1.9865 0.9813
2.1883 3.6882 -1.9851 0.9813
2.0546 3.7626 -1.9844 0.9813
1.9183 3.8322 -1.9837 0.9813
1.7797 3.8969 -1.9830 0.9813
1.6389 3.9567 -1.9824 0.9813
1.4961 4.0113 -1.9817 0.9813
1.3516 4.0608 -1.9811 0.9813
1.2054 4.1052 -1.9805 0.9813
1.0578 4.1443 -1.9799 0.9813
0.9089 4.1782 -1.9793 0.9813
0.7590 4.2067 -1.9787 0.9813
0.6082 4.2299 -1.9781 0.9813
0.3047 4.2602 -1.9770 0.9814
0.0000 4.2690 -1.9760 0.9814
-0.1523 4.2652 -1.9756 0.9814
-0.6070 4.2217 -1.9743 0.9814
-0.9063 4.1661 -1.9735 0.9814
-1.0542 4.1304 -1.9732 0.9814
-1.2008 4.0895 -1.9729 0.9814
-1.4890 3.9922 -1.9723 0.9814
-1.7696 3.8749 -1.9718 0.9814
-2.0411 3.7381 -1.9715 0.9814
-2.3023 3.5825 -1.9712 0.9814
-2.4286 3.4978 -1.9711 0.9814
-2.6718 3.3155 -1.9710 0.9814
-2.7884 3.2180 -1.9710 0.9814
-3.1165 2.9016 -1.9710 0.9814
-3.2183 2.7886 -1.9711 0.9814
-3.3159 2.6721 -1.9712 0.9814
-3.4094 2.5522 -1.9714 0.9814
-3.4986 2.4291 -1.9715 0.9814
-3.5834 2.3029 -1.9717 0.9814
-3.6637 2.1738 -1.9719 0.9814
-3.7394 2.0419 -1.9722 0.9814
-3.8104 1.9074 -1.9724 0.9814
-3.8766 1.7704 -1.9727 0.9814
-1.2017 0.4482 -0.5937 0.9944
-1.1790 0.2565 -0.5585 0.9947
-1.1974 0.2160 -0.5632 0.9947
-1.2261 0.1318 -0.5708 0.9946
4.0863 0.0000 -2.0044 0.9820
4.0736 0.2914 -2.0033 0.9820
3.9513 1.0085 -2.0004 0.9820
3.9116 1.1485 -1.9997 0.9820
3.7034 1.6913 -1.9971 0.9820
3.6395 1.8218 -1.9964 0.9820
3.2526 2.4349 -1.9930 0.9821
3.1625 2.5485 -1.9923 0.9821
3.0685 2.6588 -1.9916 0.9821
2.9706 2.7657 -1.9909 0.9821
2.7638 2.9685 -1.9895 0.9821
2.6551 3.0642 -1.9888 0.9821
2.5432 3.1559 -1.9881 0.9821
2.3100 3.3270 -1.9868 0.9821
2.1890 3.4062 -1.9861 0.9821
1.6798 3.6782 -1.9835 0.9821
1.5470 3.7347 -1.9829 0.9822
1.2758 3.8332 -1.9817 0.9822
1.1378 3.8751 -1.9811 0.9822
0.8580 3.9441 -1.9799 0.9822
0.7165 3.9712 -1.9794 0.9822
0.5741 3.9931 -1.9789 0.9822
0.2876 4.0218 -1.9778 0.9822
0.1439 4.0286 -1.9774 0.9822
-0.0000 4.0302 -1.9769 0.9822
-0.2874 4.0181 -1.9760 0.9822
-0.4305 4.0045 -1.9756 0.9822
-0.8556 3.9334 -1.9745 0.9822
-1.1337 3.8611 -1.9739 0.9822
-1.2706 3.8176 -1.9736 0.9822
-1.5394 3.7163 -1.9731 0.9822
-1.6708 3.6586 -1.9729 0.9822
-1.8002 3.5963 -1.9727 0.9822
-1.9272 3.5295 -1.9726 0.9822
-2.0518 3.4582 -1.9724 0.9822
-2.1738 3.3825 -1.9723 0.9822
-2.6328 3.0384 -1.9721 0.9822
-2.7396 2.9425 -1.9721 0.9822
-2.9426 2.7397 -1.9722 0.9822
-3.0387 2.6330 -1.9723 0.9822
-3.1309 2.5230 -1.9724 0.9822
-3.2192 2.4098 -1.9725 0.9822
-3.3034 2.2936 -1.9726 0.9822
-3.4592 2.0524 -1.9730 0.9822
-3.5307 1.9279 -1.9732 0.9822
-1.0444 0.4770 -0.5632 0.9949
-1.0290 0.4262 -0.5463 0.9951
-1.0175 0.2988 -0.5202 0.9953
-1.0307 0.2631 -0.5218 0.9953
-1.0422 0.2267 -0.5232 0.9953
-1.0705 0.1151 -0.5281 0.9952
-1.0769 0.0770 -0.5296 0.9952
-1.0803 0.0386 -0.5302 0.9952
3.8589 0.1378 -2.0032 0.9828
3.8372 0.4125 -2.0021 0.9828
3.7959 0.6848 -2.0010 0.9828
3.7352 0.9533 -1.9999 0.9828
3.6555 1.2167 -1.9987 0.9828
3.6086 1.3459 -1.9980 0.9828
3.5571 1.4734 -1.9974 0.9828
3.3760 1.8434 -1.9955 0.9828
3.1565 2.1916 -1.9936 0.9828
2.8088 2.6151 -1.9909 0.9829
2.7128 2.7128 -1.9903 0.9829
2.6134 2.8070 -1.9896 0.9829
2.5107 2.8975 -1.9890 0.9829
2.2961 3.0672 -1.9877 0.9829
2.0701 3.2211 -1.9864 0.9829
1.9532 3.2919 -1.9858 0.9829
1.8339 3.3585 -1.9852 0.9829
1.7123 3.4208 -1.9845 0.9829
1.3356 3.5810 -1.9828 0.9829
1.0762 3.6651 -1.9816 0.9829
0.9444 3.7001 -1.9811 0.9829
0.8115 3.7305 -1.9806 0.9829
0.6777 3.7561 -1.9800 0.9829
0.5430 3.7769 -1.9795 0.9830
-0.2718 3.8009 -1.9769 0.9830
-0.5421 3.7704 -1.9761 0.9830
-0.8094 3.7208 -1.9754 0.9830
-1.0725 3.6525 -1.9748 0.9830
-1.3300 3.5658 -1.9743 0.9830
-1.5806 3.4611 -1.9739 0.9830
-1.7030 3.4022 -1.9737 0.9830
-1.8232 3.3390 -1.9736 0.9830
-2.0565 3.2000 -1.9733 0.9830
-2.1693 3.1244 -1.9733 0.9830
-2.2794 3.0449 -1.9732 0.9830
-2.9619 2.3868 -1.9734 0.9830
-3.1250 2.1697 -1.9737 0.9830
-3.2725 1.9416 -1.9740 0.9830
-0.9486 0.5180 -0.5607 0.9951
-0.9416 0.4713 -0.5463 0.9953
-0.9326 0.4259 -0.5319 0.9954
-0.9628 0.2095 -0.5112 0.9956
-0.9785 0.1407 -0.5129 0.9956
-0.9873 0.0706 -0.5135 0.9955
-0.9893 0.0353 -0.5135 0.9955
3.6572 -0.0000 -2.0030 0.9835
3.6540 0.1305 -2.0026 0.9835
3.6461 0.2608 -2.0021 0.9835
3.6335 0.3906 -2.0016 0.9835
3.5681 0.7762 -2.0000 0.9835
3.5017 1.0282 -1.9989 0.9835
3.4174 1.2746 -1.9977 0.9835
3.3688 1.3954 -1.9971 0.9835
3.3158 1.5143 -1.9965 0.9835
3.1974 1.7459 -1.9953 0.9835
3.1321 1.8583 -1.9947 0.9835
3.0628 1.9683 -1.9941 0.9835
2.9897 2.0758 -1.9934 0.9835
2.9128 2.1805 -1.9928 0.9835
2.6605 2.4770 -1.9910 0.9836
2.4755 2.6588 -1.9897 0.9836
2.3782 2.7447 -1.9891 0.9836
1.9610 3.0514 -1.9867 0.9836
1.8503 3.1186 -1.9861 0.9836
1.7373 3.1817 -1.9855 0.9836
1.5051 3.2956 -1.9843 0.9836
1.3861 3.3463 -1.9838 0.9836
1.0196 3.4724 -1.9822 0.9836
0.8948 3.5057 -1.9816 0.9836
0.6421 3.5588 -1.9806 0.9836
0.5145 3.5786 -1.9802 0.9836
0.3864 3.5938 -1.9797 0.9837
-0.1289 3.6092 -1.9780 0.9837
-0.5137 3.5727 -1.9769 0.9837
-0.8922 3.4957 -1.9760 0.9837
-1.2603 3.3790 -1.9752 0.9837
-1.3800 3.3315 -1.9750 0.9837
-1.7277 3.1641 -1.9745 0.9837
-1.8395 3.1002 -1.9744 0.9837
-1.9488 3.0324 -1.9743 0.9837
-2.0558 2.9608 -1.9742 0.9837
-2.1601 2.8855 -1.9742 0.9837
-2.2616 2.8065 -1.9741 0.9837
-2.4561 2.6380 -1.9741 0.9837
-2.6381 2.4561 -1.9742 0.9837
-2.7242 2.3605 -1.9742 0.9837
-2.8068 2.2619 -1.9743 0.9837
-3.0332 1.9493 -1.9747 0.9837
-0.8524 0.5057 -0.5428 0.9955
-0.8516 0.4263 -0.5216 0.9957
-0.8506 0.3884 -0.5122 0.9957
-0.8479 0.3512 -0.5027 0.9958
-0.8465 0.3157 -0.4948 0.9959
-0.8603 0.2863 -0.4966 0.9959
-0.8932 0.1943 -0.5006 0.9958
-0.9011 0.1626 -0.5015 0.9958
3.4653 0.1238 -2.0020 0.9841
3.4579 0.2473 -2.0015 0.9841
3.4298 0.4931 -2.0005 0.9841
3.4091 0.6151 -2.0000 0.9841
3.2834 1.0928 -1.9979 0.9841
3.2414 1.2090 -1.9974 0.9841
3.1953 1.3235 -1.9968 0.9842
3.1451 1.4363 -1.9962 0.9842
3.0329 1.6561 -1.9951 0.9842
2.9710 1.7628 -1.9945 0.9842
2.9053 1.8671 -1.9939 0.9842
2.6070 2.2590 -1.9916 0.9842
2.2563 2.6039 -1.9892 0.9842
2.0636 2.7566 -1.9881 0.9842
1.7556 2.9588 -1.9863 0.9842
1.4280 3.1269 -1.9847 0.9842
1.3152 3.1751 -1.9842 0.9843
1.0847 3.2591 -1.9831 0.9843
0.9675 3.2949 -1.9826 0.9843
0.7296 3.3539 -1.9817 0.9843
0.4882 3.3958 -1.9807 0.9843
0.3667 3.4103 -1.9803 0.9843
-0.2445 3.4178 -1.9783 0.9843
-0.6081 3.3704 -1.9773 0.9843
-1.0810 3.2478 -1.9763 0.9843
-1.4216 3.1127 -1.9757 0.9843
-1.5316 3.0598 -1.9755 0.9843
-1.8496 2.8780 -1.9752 0.9843
-1.9511 2.8100 -1.9751 0.9843
-2.6639 2.1467 -1.9752 0.9843
-0.7696 0.4946 -0.5282 0.9958
-0.7751 0.4599 -0.5203 0.9958
-0.7809 0.3566 -0.4957 0.9960
-0.7797 0.3229 -0.4872 0.9961
-0.7887 0.2942 -0.4860 0.9961
-0.8318 0.1810 -0.4915 0.9961
-0.8453 0.1215 -0.4930 0.9961
-0.8531 0.0610 -0.4938 0.9961
