ply
format ascii 1.0
element vertex 804
property float32 x
property float32 y
property float32 z
property float32 I
end_header
0.9071 8.4377 1.4964 0.9661
0.9070 8.4368 1.2999 0.9662
0.9068 8.4349 0.9110 0.9664
0.9067 8.4340 0.7181 0.9665
0.9066 8.4331 0.5260 0.9666
0.9065 8.4321 0.3344 0.9666
0.9064 8.4312 0.1432 0.9666
0.9063 8.4303 -0.0477 0.9667
0.9062 8.4294 -0.2387 0.9666
0.9062 8.4285 -0.4299 0.9666
3.3563 6.1467 -0.5135 0.9723
3.0982 6.1894 -0.5075 0.9726
2.8691 6.2825 -0.5064 0.9727
2.6861 6.4848 -0.5147 0.9722
0.9060 8.4275 -0.6215 0.9666
-1.4182 9.8634 -0.7306 0.9608
-7.7405 3.8746 -0.6347 0.9659
-7.7653 3.2165 -0.6163 0.9669
3.2396 5.9329 -0.6490 0.9732
2.2908 6.1419 -0.6293 0.9740
2.1283 6.3944 -0.6470 0.9733
2.0300 6.9136 -0.6918 0.9715
-1.4161 9.8491 -0.9553 0.9608
-7.3276 4.0012 -0.8015 0.9670
-7.3207 3.3432 -0.7726 0.9682
-8.1980 2.7286 -0.8295 0.9659
4.3912 5.8660 -0.8704 0.9709
4.0667 5.8571 -0.8470 0.9717
3.7631 5.8554 -0.8268 0.9724
3.4749 5.8567 -0.8089 0.9729
2.9415 5.8765 -0.7806 0.9739
1.9920 5.9850 -0.7493 0.9749
1.8352 6.2499 -0.7738 0.9741
1.6913 6.6264 -0.8124 0.9728
-6.7980 3.4028 -0.9030 0.9698
-6.8841 3.1438 -0.8990 0.9700
-7.3470 2.7403 -0.9314 0.9689
-7.4629 2.4839 -0.9343 0.9688
-8.8675 2.6037 -1.0978 0.9635
5.3869 5.7860 -1.1201 0.9686
4.9809 5.7483 -1.0777 0.9697
3.7146 5.7801 -0.9735 0.9726
3.4350 5.7894 -0.9538 0.9732
3.1711 5.8075 -0.9375 0.9736
2.6625 5.8300 -0.9081 0.9744
2.1801 5.8452 -0.8839 0.9751
1.9585 5.8845 -0.8787 0.9753
1.5496 6.0714 -0.8878 0.9750
-0.6442 9.0076 -1.2796 0.9642
-0.9691 9.0138 -1.2845 0.9640
-1.2969 9.0200 -1.2912 0.9639
-1.6285 9.0263 -1.2996 0.9636
-2.3071 9.0392 -1.3218 0.9630
-2.6561 9.0459 -1.3358 0.9626
-6.1819 3.6679 -1.0185 0.9714
-6.2228 3.3979 -1.0046 0.9718
-6.2979 3.1525 -0.9979 0.9719
-6.4459 2.9437 -1.0041 0.9718
-6.6455 2.7526 -1.0192 0.9714
-7.0386 2.6253 -1.0644 0.9701
-8.7936 2.5820 -1.2986 0.9637
4.9319 5.6917 -1.2407 0.9699
3.9557 5.6973 -1.1426 0.9723
3.1158 5.7061 -1.0710 0.9740
2.6149 5.7258 -1.0370 0.9748
2.3728 5.7284 -1.0214 0.9752
0.8977 8.3499 -1.3835 0.9665
-0.6442 9.0077 -1.4877 0.9641
-0.9691 9.0138 -1.4935 0.9639
-1.2969 9.0200 -1.5012 0.9637
-2.3071 9.0392 -1.5369 0.9629
-6.4015 2.6516 -1.1415 0.9723
-6.9708 2.6000 -1.2256 0.9703
-7.7570 2.5818 -1.3468 0.9674
5.2995 5.6921 -1.4618 0.9688
4.9203 5.6783 -1.4122 0.9699
4.5918 5.6981 -1.3755 0.9707
4.2605 5.6914 -1.3363 0.9715
3.9475 5.6855 -1.3010 0.9722
3.3704 5.6805 -1.2415 0.9735
2.8465 5.6865 -1.1953 0.9745
2.3571 5.6906 -1.1577 0.9752
2.1248 5.6969 -1.1429 0.9756
1.9046 5.7223 -1.1336 0.9758
1.6952 5.7731 -1.1309 0.9758
1.4882 5.8307 -1.1311 0.9758
1.3289 6.1086 -1.1750 0.9749
1.1912 6.6022 -1.2610 0.9731
0.6986 9.7684 -1.8408 0.9609
0.3495 9.7861 -1.8406 0.9609
-0.0000 9.7912 -1.8404 0.9609
-0.3422 9.5816 -1.8021 0.9617
-1.2841 8.9311 -1.6960 0.9639
-1.9447 8.9396 -1.7196 0.9634
-3.7426 9.0354 -1.8382 0.9610
-4.0623 8.8952 -1.8381 0.9610
-4.9885 8.4076 -1.8375 0.9610
-5.2849 8.2234 -1.8374 0.9610
-7.7798 2.5894 -1.5412 0.9672
9.4464 0.3374 -1.9980 0.9621
9.3981 1.0104 -1.9980 0.9621
9.2358 2.0091 -1.9979 0.9621
9.0685 2.6627 -1.9978 0.9621
8.9674 2.9846 -1.9978 0.9621
8.8548 3.3027 -1.9977 0.9621
8.4500 4.2298 -1.9975 0.9621
8.2933 4.5285 -1.9974 0.9621
7.7605 5.3882 -1.9970 0.9621
7.5628 5.6614 -1.9969 0.9621
7.1388 6.1858 -1.9967 0.9621
6.9130 6.4362 -1.9966 0.9621
6.6784 6.6784 -1.9964 0.9621
4.2647 5.6970 -1.5043 0.9713
3.6517 5.6822 -1.4278 0.9728
3.3697 5.6793 -1.3959 0.9734
3.1013 5.6796 -1.3679 0.9739
2.8436 5.6809 -1.3429 0.9744
2.5943 5.6807 -1.3201 0.9748
2.3615 5.7011 -1.3044 0.9751
2.1431 5.7459 -1.2963 0.9752
1.8965 5.6982 -1.2694 0.9757
1.6923 5.7635 -1.2697 0.9757
1.2956 5.9560 -1.2884 0.9754
1.2126 6.7208 -1.4436 0.9725
0.8935 8.3112 -1.7669 0.9664
0.6212 8.6860 -1.8407 0.9650
0.3108 8.7018 -1.8406 0.9650
-0.0000 8.7065 -1.8404 0.9650
-0.6210 8.6826 -1.8400 0.9650
-1.2386 8.6146 -1.8397 0.9650
-1.8496 8.5026 -1.8393 0.9651
-2.1517 8.4304 -1.8392 0.9651
-2.4511 8.3475 -1.8390 0.9651
-2.7472 8.2539 -1.8388 0.9651
-3.3284 8.0354 -1.8385 0.9651
-4.2249 7.7373 -1.8635 0.9646
-4.5870 7.7310 -1.9002 0.9639
-4.9639 7.7239 -1.9408 0.9632
-5.3480 7.7026 -1.9821 0.9624
-6.1622 7.1115 -1.9891 0.9623
-6.4116 6.8866 -1.9889 0.9623
-6.6529 6.6529 -1.9888 0.9623
-5.7830 3.7165 -1.4531 0.9723
-5.7671 3.4218 -1.4175 0.9730
-5.8924 2.9495 -1.3929 0.9734
-6.2956 2.6077 -1.4404 0.9725
-8.9214 2.9693 -1.9875 0.9623
-9.1101 2.3252 -1.9874 0.9623
-9.2524 1.6693 -1.9873 0.9623
-9.3775 0.6707 -1.9873 0.9623
-9.3954 0.3356 -1.9873 0.9623
8.4938 0.3034 -1.9975 0.9657
8.4775 0.6063 -1.9975 0.9657
8.4503 0.9085 -1.9975 0.9657
8.2345 2.1017 -1.9973 0.9657
8.0632 2.6837 -1.9972 0.9657
7.8507 3.2519 -1.9971 0.9657
7.7293 3.5299 -1.9970 0.9657
7.5981 3.8033 -1.9970 0.9657
7.4572 4.0719 -1.9969 0.9657
7.3068 4.3353 -1.9968 0.9657
7.1471 4.5931 -1.9967 0.9657
6.8005 5.0908 -1.9965 0.9657
6.6141 5.3300 -1.9964 0.9657
6.4193 5.5623 -1.9963 0.9657
6.0054 6.0054 -1.9960 0.9657
5.0047 5.7757 -1.7961 0.9691
4.2605 5.6915 -1.6709 0.9712
3.6516 5.6819 -1.5874 0.9726
3.1041 5.6848 -1.5223 0.9737
2.8462 5.6859 -1.4944 0.9742
2.6074 5.7094 -1.4751 0.9745
1.6875 5.7471 -1.4077 0.9757
1.4847 5.8171 -1.4110 0.9756
1.3038 5.9937 -1.4416 0.9751
1.2158 6.7386 -1.6093 0.9723
0.8373 7.7878 -1.8409 0.9683
0.5587 7.8121 -1.8407 0.9683
0.2795 7.8263 -1.8405 0.9683
0.0000 7.8307 -1.8404 0.9683
-0.2795 7.8250 -1.8402 0.9683
-0.5588 7.8128 -1.8409 0.9683
-1.3962 7.7384 -1.8481 0.9682
-1.6827 7.7351 -1.8604 0.9680
-1.9736 7.7323 -1.8755 0.9677
-2.5715 7.7260 -1.9137 0.9671
-2.8802 7.7220 -1.9370 0.9667
-3.1967 7.7176 -1.9633 0.9663
-3.5061 7.6773 -1.9836 0.9659
-4.0531 7.4226 -1.9876 0.9658
-4.8287 6.9546 -1.9898 0.9658
-5.0735 6.7773 -1.9897 0.9658
-5.3118 6.5915 -1.9896 0.9658
-5.7677 6.1949 -1.9893 0.9658
-5.9848 5.9848 -1.9892 0.9658
-6.1942 5.7670 -1.9891 0.9658
-6.3957 5.5419 -1.9889 0.9658
-5.8525 4.0634 -1.6745 0.9711
-5.7692 3.4230 -1.5766 0.9728
-6.2780 2.6004 -1.5970 0.9725
-6.9484 2.5916 -1.7429 0.9700
-8.0260 2.6713 -1.9880 0.9658
-8.1161 2.3831 -1.9880 0.9658
-8.3238 1.5018 -1.9879 0.9658
-8.3720 1.2037 -1.9878 0.9658
-8.4096 0.9041 -1.9878 0.9658
7.6934 0.5502 -1.9970 0.9686
7.5902 1.3694 -1.9970 0.9686
7.1247 2.9511 -1.9967 0.9686
6.4863 4.1685 -1.9963 0.9686
6.0027 4.8373 -1.9960 0.9686
5.6417 5.2526 -1.9958 0.9687
5.4503 5.4503 -1.9957 0.9687
4.6181 6.1690 -1.9952 0.9687
4.3947 6.3295 -1.9951 0.9687
3.6586 5.6928 -1.7521 0.9724
3.1045 5.6854 -1.6772 0.9736
2.6511 5.8050 -1.6523 0.9740
2.3819 5.7503 -1.6115 0.9746
1.3125 6.0337 -1.5988 0.9748
1.3635 7.5572 -1.9883 0.9688
1.0924 7.5979 -1.9875 0.9688
0.2737 7.6650 -1.9859 0.9688
-0.0000 7.6690 -1.9857 0.9688
-0.2737 7.6639 -1.9856 0.9688
-1.0918 7.5936 -1.9863 0.9688
-2.1648 7.3726 -1.9895 0.9687
-2.6873 7.2050 -1.9911 0.9687
-2.9426 7.1040 -1.9909 0.9687
-4.1557 6.4664 -1.9902 0.9687
-4.6059 6.1527 -1.9900 0.9687
-4.8223 5.9840 -1.9898 0.9687
-5.2362 5.6241 -1.9896 0.9687
-5.4333 5.4333 -1.9895 0.9687
-5.6235 5.2356 -1.9894 0.9688
-5.8065 5.0313 -1.9893 0.9688
-5.9821 4.8206 -1.9892 0.9688
-6.3101 4.3812 -1.9890 0.9688
-6.4622 4.1530 -1.9889 0.9688
-6.6061 3.9195 -1.9888 0.9688
-5.8481 2.9273 -1.6933 0.9733
-6.2802 2.6014 -1.7600 0.9723
-7.4410 1.8992 -1.9884 0.9688
-7.5039 1.6324 -1.9883 0.9688
-7.6352 0.8209 -1.9883 0.9688
-7.6742 0.2741 -1.9883 0.9688
7.0531 -0.0000 -1.9967 0.9711
7.0351 0.5032 -1.9967 0.9711
6.9811 1.0037 -1.9966 0.9711
6.7668 1.9869 -1.9965 0.9711
6.6075 2.4645 -1.9964 0.9711
6.5151 2.6987 -1.9964 0.9711
6.0640 3.5979 -1.9961 0.9711
5.9314 3.8119 -1.9960 0.9711
5.4893 4.4235 -1.9958 0.9711
5.1592 4.8034 -1.9956 0.9711
4.8029 5.1587 -1.9954 0.9711
3.8096 5.9278 -1.9948 0.9711
3.5953 6.0596 -1.9947 0.9711
3.1535 6.2998 -1.9944 0.9711
2.3588 5.6946 -1.7449 0.9747
2.1186 5.6802 -1.7162 0.9751
1.9014 5.7128 -1.7045 0.9753
1.7416 6.8234 -1.9936 0.9711
1.4968 6.8807 -1.9935 0.9712
1.0020 6.9690 -1.9932 0.9712
0.5022 7.0217 -1.9929 0.9712
-0.5021 7.0197 -1.9923 0.9712
-1.0014 6.9650 -1.9920 0.9712
-1.2493 6.9243 -1.9919 0.9712
-1.7398 6.8166 -1.9916 0.9712
-2.2214 6.6742 -1.9913 0.9712
-2.4580 6.5902 -1.9912 0.9712
-2.6915 6.4978 -1.9911 0.9712
-3.5879 6.0471 -1.9905 0.9712
-3.8012 5.9148 -1.9904 0.9712
-4.6032 5.3124 -1.9900 0.9712
-5.3114 4.6023 -1.9896 0.9712
-5.4720 4.4096 -1.9895 0.9712
-5.6257 4.2113 -1.9894 0.9712
-5.9113 3.7990 -1.9892 0.9712
-6.0429 3.5854 -1.9892 0.9712
-6.1668 3.3673 -1.9891 0.9712
-6.3909 2.9187 -1.9890 0.9712
-6.8068 1.7373 -1.9887 0.9712
-6.9132 1.2473 -1.9887 0.9712
-6.9533 0.9997 -1.9887 0.9712
-7.0202 0.2507 -1.9886 0.9712
6.4740 0.4630 -1.9963 0.9732
6.3872 1.1524 -1.9963 0.9732
6.2885 1.6051 -1.9962 0.9732
6.2271 1.8285 -1.9962 0.9732
5.9956 2.4835 -1.9961 0.9732
5.6953 3.1099 -1.9959 0.9732
5.5805 3.3110 -1.9958 0.9732
5.1940 3.8881 -1.9956 0.9732
5.0517 4.0709 -1.9955 0.9732
4.9029 4.2484 -1.9954 0.9732
4.5869 4.5869 -1.9952 0.9732
4.4201 4.7475 -1.9951 0.9732
4.2476 4.9020 -1.9950 0.9732
3.8867 5.1920 -1.9948 0.9732
3.3088 5.5768 -1.9945 0.9732
3.1075 5.6910 -1.9944 0.9732
2.6933 5.8975 -1.9941 0.9732
1.3776 6.3328 -1.9934 0.9732
0.9222 6.4141 -1.9931 0.9732
0.2312 6.4746 -1.9927 0.9733
0.0000 6.4783 -1.9926 0.9733
-0.2312 6.4738 -1.9925 0.9733
-0.4621 6.4610 -1.9923 0.9733
-0.6924 6.4399 -1.9922 0.9733
-0.9217 6.4107 -1.9921 0.9733
-2.0447 6.1432 -1.9914 0.9733
-2.2625 6.0659 -1.9913 0.9733
-2.6891 5.8883 -1.9911 0.9733
-2.8974 5.7883 -1.9909 0.9733
-3.1020 5.6808 -1.9908 0.9733
-3.3026 5.5662 -1.9907 0.9733
-3.4990 5.4444 -1.9906 0.9733
-3.8780 5.1804 -1.9904 0.9733
-4.2373 4.8901 -1.9902 0.9733
-4.4089 4.7355 -1.9901 0.9733
-4.5749 4.5749 -1.9900 0.9733
-4.8892 4.2365 -1.9898 0.9733
-5.0371 4.0591 -1.9897 0.9733
-5.4415 3.4970 -1.9895 0.9733
-5.6767 3.0997 -1.9894 0.9733
-5.7836 2.8950 -1.9893 0.9733
-5.9750 2.4749 -1.9892 0.9733
-6.1361 2.0423 -1.9891 0.9733
-6.2659 1.5993 -1.9890 0.9733
-6.3639 1.1482 -1.9890 0.9733
-6.4008 0.9203 -1.9890 0.9733
-6.4295 0.6912 -1.9890 0.9733
-6.4500 0.4613 -1.9890 0.9733
5.9896 0.4284 -1.9961 0.9750
5.9705 0.6419 -1.9961 0.9750
5.9437 0.8546 -1.9960 0.9750
5.8181 1.4850 -1.9960 0.9750
5.7613 1.6917 -1.9959 0.9750
5.6971 1.8962 -1.9959 0.9750
5.5471 2.2977 -1.9958 0.9750
5.4614 2.4941 -1.9958 0.9750
5.3687 2.6874 -1.9957 0.9750
5.1630 3.0634 -1.9956 0.9750
4.9310 3.4237 -1.9954 0.9750
4.6739 3.7664 -1.9953 0.9750
4.3929 4.0899 -1.9951 0.9750
4.0896 4.3925 -1.9950 0.9750
3.9300 4.5354 -1.9949 0.9750
3.7654 4.6726 -1.9948 0.9750
3.0615 5.1599 -1.9944 0.9750
2.8752 5.2656 -1.9943 0.9750
2.4920 5.4567 -1.9940 0.9750
1.6897 5.7544 -1.9936 0.9750
1.4831 5.8107 -1.9935 0.9750
1.2747 5.8596 -1.9933 0.9750
0.4277 5.9799 -1.9928 0.9750
0.2140 5.9910 -1.9927 0.9750
-0.0000 5.9945 -1.9926 0.9750
-0.2140 5.9903 -1.9925 0.9751
-0.4276 5.9785 -1.9924 0.9751
-0.8529 5.9320 -1.9921 0.9751
-1.2738 5.8553 -1.9919 0.9751
-1.4819 5.8058 -1.9918 0.9751
-1.6880 5.7489 -1.9916 0.9751
-1.8920 5.6846 -1.9915 0.9751
-2.0936 5.6131 -1.9914 0.9751
-2.8705 5.2569 -1.9910 0.9751
-3.5887 4.7939 -1.9906 0.9751
-3.9212 4.5252 -1.9904 0.9751
-4.0800 4.3822 -1.9903 0.9751
-4.5245 3.9205 -1.9900 0.9751
-4.6614 3.7564 -1.9900 0.9751
-4.7923 3.5874 -1.9899 0.9751
-5.2534 2.8685 -1.9896 0.9751
-5.4443 2.4863 -1.9895 0.9751
-5.6785 1.8900 -1.9894 0.9751
-5.7423 1.6861 -1.9893 0.9751
-5.7987 1.4800 -1.9893 0.9751
-5.8478 1.2721 -1.9893 0.9751
-5.8894 1.0626 -1.9893 0.9751
-5.9235 0.8517 -1.9893 0.9751
-5.9501 0.6397 -1.9892 0.9751
-5.9691 0.4269 -1.9892 0.9751
5.5811 -0.0000 -1.9958 0.9766
5.5775 0.1992 -1.9958 0.9766
5.5668 0.3981 -1.9958 0.9766
5.4922 0.9909 -1.9958 0.9766
5.4074 1.3802 -1.9957 0.9766
5.2950 1.7623 -1.9957 0.9766
5.1556 2.1355 -1.9956 0.9766
4.9899 2.4977 -1.9955 0.9766
4.6939 3.0166 -1.9953 0.9766
4.3441 3.5007 -1.9951 0.9766
4.2162 3.6534 -1.9950 0.9766
4.0830 3.8014 -1.9950 0.9766
3.9445 3.9445 -1.9949 0.9766
3.6527 4.2155 -1.9947 0.9766
3.1808 4.5812 -1.9944 0.9766
2.6725 4.8942 -1.9941 0.9766
2.3163 5.0719 -1.9939 0.9766
2.1336 5.1510 -1.9938 0.9766
1.5705 5.3487 -1.9935 0.9766
0.1989 5.5688 -1.9927 0.9766
-0.1989 5.5682 -1.9925 0.9766
-0.5955 5.5392 -1.9923 0.9766
-0.7928 5.5141 -1.9922 0.9766
-0.9891 5.4819 -1.9920 0.9766
-1.3775 5.3968 -1.9918 0.9766
-1.5691 5.3439 -1.9917 0.9766
-1.9462 5.2178 -1.9915 0.9766
-2.3132 5.0651 -1.9913 0.9766
-2.4924 4.9791 -1.9912 0.9766
-3.0099 4.6835 -1.9909 0.9766
-3.3360 4.4564 -1.9907 0.9766
-3.6451 4.2067 -1.9905 0.9766
-4.0734 3.7925 -1.9903 0.9766
-4.3333 3.4920 -1.9901 0.9766
-4.4550 3.3350 -1.9901 0.9766
-4.5710 3.1737 -1.9900 0.9766
-4.8837 2.6667 -1.9898 0.9766
-4.9756 2.4906 -1.9898 0.9766
-5.0612 2.3114 -1.9897 0.9766
-5.1404 2.1292 -1.9897 0.9766
-5.2130 1.9443 -1.9896 0.9766
-5.3382 1.5674 -1.9896 0.9766
-5.3907 1.3759 -1.9896 0.9766
-5.4750 0.9878 -1.9895 0.9766
-5.5491 0.3969 -1.9895 0.9766
-5.5597 0.1986 -1.9895 0.9766
5.2075 -0.0000 -1.9956 0.9779
5.2042 0.1859 -1.9956 0.9779
5.1942 0.3715 -1.9956 0.9779
5.1776 0.5567 -1.9956 0.9779
5.1544 0.7411 -1.9956 0.9779
5.1247 0.9246 -1.9956 0.9779
5.0883 1.1069 -1.9955 0.9779
5.0455 1.2878 -1.9955 0.9779
4.9963 1.4670 -1.9955 0.9779
4.8787 1.8197 -1.9954 0.9779
4.7363 2.1630 -1.9953 0.9779
4.4776 2.6567 -1.9952 0.9779
4.3798 2.8147 -1.9951 0.9779
3.8098 3.5470 -1.9948 0.9779
3.5468 3.8095 -1.9946 0.9780
3.4084 3.9335 -1.9946 0.9780
3.2657 4.0525 -1.9945 0.9780
2.8134 4.3778 -1.9942 0.9780
2.4937 4.5669 -1.9940 0.9780
2.3290 4.6528 -1.9939 0.9780
1.4655 4.9911 -1.9934 0.9780
1.2864 5.0400 -1.9933 0.9780
1.1056 5.0824 -1.9932 0.9780
0.9235 5.1184 -1.9931 0.9780
0.3710 5.1870 -1.9928 0.9780
-0.0000 5.1996 -1.9926 0.9780
-0.3709 5.1858 -1.9924 0.9780
-0.5557 5.1690 -1.9923 0.9780
-1.1049 5.0792 -1.9920 0.9780
-1.4643 4.9869 -1.9918 0.9780
-1.6413 4.9312 -1.9917 0.9780
-1.9887 4.8011 -1.9915 0.9780
-2.1587 4.7268 -1.9914 0.9780
-2.3259 4.6466 -1.9913 0.9780
-2.8089 4.3707 -1.9910 0.9780
-3.2596 4.0449 -1.9908 0.9780
-3.4018 3.9258 -1.9907 0.9780
-3.6729 3.6729 -1.9905 0.9780
-3.8015 3.5393 -1.9904 0.9780
-3.9253 3.4012 -1.9904 0.9780
-4.0440 3.2589 -1.9903 0.9780
-4.2659 2.9619 -1.9902 0.9780
-4.3688 2.8077 -1.9901 0.9780
-4.5577 2.4887 -1.9900 0.9780
-4.6435 2.3244 -1.9900 0.9780
-4.7234 2.1571 -1.9899 0.9780
-4.7973 1.9871 -1.9899 0.9780
-4.8651 1.8146 -1.9898 0.9780
-4.9820 1.4628 -1.9898 0.9780
-5.0310 1.2841 -1.9898 0.9780
-5.1096 0.9219 -1.9897 0.9780
-5.1887 0.1853 -1.9897 0.9780
4.8755 -0.0000 -1.9954 0.9791
4.8631 0.3478 -1.9954 0.9791
4.7979 0.8656 -1.9954 0.9791
4.7639 1.0363 -1.9954 0.9791
4.5039 1.8656 -1.9952 0.9792
4.2784 2.3362 -1.9951 0.9792
4.1922 2.4873 -1.9950 0.9792
3.9019 2.9209 -1.9949 0.9792
3.7951 3.0583 -1.9948 0.9792
3.6834 3.1917 -1.9947 0.9792
3.5670 3.3210 -1.9947 0.9792
3.3207 3.5667 -1.9945 0.9792
2.6342 4.0988 -1.9941 0.9792
2.1806 4.3564 -1.9939 0.9792
2.0237 4.4312 -1.9938 0.9792
1.7022 4.5639 -1.9936 0.9792
1.3722 4.6732 -1.9934 0.9792
0.6930 4.8200 -1.9930 0.9792
0.5205 4.8414 -1.9929 0.9792
0.1738 4.8658 -1.9927 0.9792
-0.3473 4.8557 -1.9924 0.9792
-0.5204 4.8400 -1.9923 0.9792
-0.6927 4.8181 -1.9922 0.9792
-0.8642 4.7901 -1.9921 0.9792
-1.0346 4.7559 -1.9920 0.9792
-1.3711 4.6696 -1.9918 0.9792
-1.5368 4.6174 -1.9917 0.9792
-1.7006 4.5594 -1.9916 0.9792
-2.4826 4.1841 -1.9912 0.9792
-2.6302 4.0927 -1.9911 0.9792
-2.7745 3.9960 -1.9910 0.9792
-3.0523 3.7876 -1.9909 0.9792
-3.1854 3.6761 -1.9908 0.9792
-3.3144 3.5599 -1.9907 0.9792
-3.5597 3.3142 -1.9906 0.9792
-3.7868 3.0516 -1.9905 0.9792
-3.8932 2.9144 -1.9904 0.9792
-4.0910 2.6291 -1.9903 0.9792
-4.1821 2.4814 -1.9902 0.9792
-4.6134 1.5355 -1.9900 0.9792
-4.6652 1.3698 -1.9900 0.9792
-4.7848 0.8633 -1.9899 0.9792
-4.8125 0.6919 -1.9899 0.9792
-4.8341 0.5197 -1.9899 0.9792
-4.8496 0.3468 -1.9899 0.9792
-4.8588 0.1735 -1.9899 0.9792
4.5665 0.3266 -1.9953 0.9802
4.5519 0.4894 -1.9952 0.9802
4.5315 0.6515 -1.9952 0.9802
4.4734 0.9731 -1.9952 0.9802
4.4358 1.1322 -1.9952 0.9802
4.3925 1.2898 -1.9952 0.9802
4.2892 1.5998 -1.9951 0.9802
4.2293 1.7518 -1.9951 0.9802
4.1640 1.9016 -1.9950 0.9802
4.0175 2.1937 -1.9949 0.9802
3.8506 2.4746 -1.9948 0.9802
3.7597 2.6104 -1.9948 0.9802
3.6640 2.7429 -1.9947 0.9802
3.5637 2.8718 -1.9947 0.9802
3.4588 2.9971 -1.9946 0.9802
3.3495 3.1185 -1.9945 0.9802
3.2360 3.2360 -1.9945 0.9802
2.8712 3.5630 -1.9943 0.9802
2.6096 3.7585 -1.9941 0.9802
2.3346 3.9347 -1.9940 0.9802
1.9004 4.1612 -1.9937 0.9802
1.2886 4.3885 -1.9934 0.9802
1.1311 4.4315 -1.9933 0.9802
0.9721 4.4689 -1.9932 0.9802
0.1632 4.5694 -1.9927 0.9802
-0.3261 4.5600 -1.9924 0.9802
-0.4887 4.5453 -1.9923 0.9803
-0.6506 4.5247 -1.9922 0.9803
-0.8116 4.4984 -1.9921 0.9803
-0.9716 4.4664 -1.9921 0.9803
-1.2876 4.3853 -1.9919 0.9803
-1.4433 4.3363 -1.9918 0.9803
-1.5971 4.2819 -1.9917 0.9803
-2.4701 3.8436 -1.9912 0.9803
-2.6057 3.7528 -1.9911 0.9803
-2.7378 3.6573 -1.9911 0.9803
-2.8665 3.5571 -1.9910 0.9803
-3.1128 3.3433 -1.9908 0.9803
-3.2300 3.2300 -1.9908 0.9803
-3.5564 2.8660 -1.9906 0.9803
-3.6564 2.7371 -1.9905 0.9803
-3.8421 2.4692 -1.9904 0.9803
-3.9277 2.3304 -1.9904 0.9803
-4.0083 2.1887 -1.9903 0.9803
-4.0838 2.0442 -1.9903 0.9803
-1.4401 0.4793 -0.6615 0.9934
-1.3400 0.3420 -0.6027 0.9940
-1.4180 0.2039 -0.6244 0.9938
4.3102 -0.0000 -1.9951 0.9812
4.2854 0.4607 -1.9951 0.9812
4.1761 1.0659 -1.9950 0.9812
4.1353 1.2143 -1.9950 0.9812
4.0893 1.3611 -1.9950 0.9812
4.0381 1.5061 -1.9949 0.9812
3.9817 1.6493 -1.9949 0.9812
3.9202 1.7903 -1.9949 0.9812
3.6252 2.3298 -1.9947 0.9812
3.3551 2.7037 -1.9945 0.9812
3.2564 2.8217 -1.9945 0.9812
3.1535 2.9360 -1.9944 0.9812
2.8213 3.2560 -1.9942 0.9812
2.4568 3.5385 -1.9940 0.9812
1.9280 3.8516 -1.9937 0.9812
1.6481 3.9790 -1.9936 0.9812
1.3600 4.0860 -1.9934 0.9812
0.7645 4.2373 -1.9931 0.9812
0.6127 4.2617 -1.9930 0.9812
0.4602 4.2807 -1.9929 0.9812
0.3071 4.2942 -1.9928 0.9812
0.1537 4.3022 -1.9927 0.9812
-0.1536 4.3018 -1.9925 0.9812
-0.3071 4.2934 -1.9924 0.9812
-0.4601 4.2795 -1.9924 0.9812
-0.7642 4.2354 -1.9922 0.9812
-1.0643 4.1698 -1.9920 0.9812
-1.2124 4.1289 -1.9919 0.9812
-1.3589 4.0829 -1.9918 0.9812
-1.6466 3.9752 -1.9917 0.9812
-2.4534 3.5335 -1.9912 0.9812
-2.5779 3.4436 -1.9911 0.9812
-2.8168 3.2507 -1.9910 0.9812
-2.9309 3.1480 -1.9909 0.9812
-3.0413 3.0413 -1.9909 0.9812
-3.1478 2.9307 -1.9908 0.9812
-3.3487 2.6985 -1.9907 0.9812
-3.5325 2.4526 -1.9906 0.9812
-3.6983 2.1943 -1.9905 0.9812
-3.7742 2.0608 -1.9905 0.9812
-3.9114 1.7863 -1.9904 0.9812
-1.1536 0.3840 -0.5628 0.9947
-1.2124 0.1743 -0.5670 0.9946
-1.2261 0.1318 -0.5708 0.9946
-1.2362 0.0884 -0.5737 0.9946
-1.2424 0.0444 -0.5755 0.9945
4.0670 0.0000 -1.9950 0.9820
4.0566 0.2901 -1.9950 0.9820
4.0437 0.4347 -1.9950 0.9820
4.0256 0.5788 -1.9949 0.9820
4.0023 0.7221 -1.9949 0.9820
3.9405 1.0058 -1.9949 0.9820
3.8103 1.4212 -1.9948 0.9820
3.7571 1.5562 -1.9948 0.9820
3.6991 1.6893 -1.9948 0.9820
3.4207 2.1984 -1.9946 0.9820
3.2550 2.4367 -1.9945 0.9820
3.1659 2.5512 -1.9944 0.9820
2.8748 2.8748 -1.9943 0.9820
2.7703 2.9755 -1.9942 0.9821
2.4361 3.2543 -1.9940 0.9821
2.3183 3.3390 -1.9939 0.9821
2.0741 3.4957 -1.9938 0.9821
1.8193 3.6344 -1.9937 0.9821
1.6883 3.6969 -1.9936 0.9821
1.4202 3.8077 -1.9934 0.9821
1.2833 3.8558 -1.9934 0.9821
1.0049 3.9372 -1.9932 0.9821
0.8637 3.9704 -1.9931 0.9821
0.7214 3.9985 -1.9930 0.9821
0.2898 4.0522 -1.9928 0.9821
0.1450 4.0598 -1.9927 0.9821
-0.1450 4.0594 -1.9925 0.9821
-0.4342 4.0384 -1.9924 0.9821
-0.5780 4.0202 -1.9923 0.9821
-0.8633 3.9684 -1.9921 0.9821
-1.0043 3.9349 -1.9920 0.9821
-1.4190 3.8046 -1.9918 0.9821
-1.6867 3.6933 -1.9917 0.9821
-1.8174 3.6306 -1.9916 0.9821
-1.9457 3.5633 -1.9915 0.9821
-2.0716 3.4915 -1.9914 0.9821
-2.3153 3.3346 -1.9913 0.9821
-2.5471 3.1607 -1.9912 0.9821
-2.6582 3.0677 -1.9911 0.9821
-2.8701 2.8701 -1.9910 0.9821
-2.9706 2.7657 -1.9909 0.9821
-3.3336 2.3146 -1.9907 0.9821
-1.0588 0.5300 -0.5808 0.9947
-1.0444 0.4769 -0.5632 0.9949
-1.0422 0.2267 -0.5232 0.9953
-1.0611 0.1526 -0.5258 0.9952
-1.0705 0.1151 -0.5281 0.9952
-1.0769 0.0770 -0.5296 0.9952
-1.0803 0.0386 -0.5302 0.9952
3.7841 0.6827 -1.9948 0.9828
3.6893 1.0833 -1.9947 0.9828
3.6025 1.3437 -1.9947 0.9828
3.5522 1.4714 -1.9947 0.9828
3.4974 1.5972 -1.9946 0.9828
3.4381 1.7210 -1.9946 0.9828
3.0776 2.3039 -1.9944 0.9828
2.9052 2.5174 -1.9943 0.9828
2.8135 2.6194 -1.9942 0.9828
2.4118 2.9928 -1.9940 0.9828
2.3033 3.0769 -1.9939 0.9828
2.1920 3.1570 -1.9939 0.9828
1.9610 3.3052 -1.9937 0.9828
1.8418 3.3729 -1.9937 0.9828
1.7201 3.4364 -1.9936 0.9828
1.3428 3.6002 -1.9934 0.9828
1.2134 3.6457 -1.9933 0.9828
0.5467 3.8025 -1.9929 0.9828
0.1371 3.8387 -1.9927 0.9828
-0.1371 3.8384 -1.9925 0.9828
-0.5466 3.8013 -1.9923 0.9828
-0.6819 3.7792 -1.9922 0.9828
-0.9496 3.7206 -1.9921 0.9828
-1.2126 3.6431 -1.9919 0.9828
-1.3418 3.5974 -1.9919 0.9828
-2.0754 3.2293 -1.9914 0.9829
-2.1892 3.1531 -1.9914 0.9829
-2.3003 3.0728 -1.9913 0.9829
-2.4084 2.9887 -1.9912 0.9829
-2.5135 2.9007 -1.9912 0.9829
-2.7139 2.7139 -1.9911 0.9829
-2.8089 2.6152 -1.9910 0.9829
-2.9004 2.5132 -1.9910 0.9829
-3.0722 2.2998 -1.9909 0.9829
-3.1522 2.1886 -1.9908 0.9829
-3.2283 2.0747 -1.9908 0.9829
-0.9271 0.3840 -0.5206 0.9955
-0.9208 0.3434 -0.5098 0.9956
-0.9268 0.3085 -0.5067 0.9956
-0.9404 0.2761 -0.5085 0.9956
-0.9785 0.1407 -0.5129 0.9956
3.6397 0.1300 -1.9947 0.9835
3.6327 0.2598 -1.9947 0.9835
3.5840 0.6466 -1.9947 0.9835
3.5587 0.7741 -1.9947 0.9835
3.5287 0.9007 -1.9947 0.9835
3.3645 1.3936 -1.9946 0.9835
3.1961 1.7452 -1.9945 0.9835
3.1317 1.8581 -1.9944 0.9835
3.0633 1.9687 -1.9944 0.9835
2.9910 2.0767 -1.9943 0.9835
2.9149 2.1821 -1.9943 0.9835
2.8351 2.2847 -1.9943 0.9835
2.7517 2.3844 -1.9942 0.9835
2.6648 2.4810 -1.9942 0.9835
2.2843 2.8347 -1.9939 0.9835
1.6292 3.2548 -1.9936 0.9835
1.3928 3.3625 -1.9934 0.9835
1.2719 3.4100 -1.9933 0.9835
0.9000 3.5260 -1.9931 0.9835
0.7735 3.5558 -1.9931 0.9835
0.6461 3.5810 -1.9930 0.9835
0.5178 3.6016 -1.9929 0.9835
0.3889 3.6177 -1.9928 0.9835
0.2596 3.6291 -1.9928 0.9835
-0.5177 3.6006 -1.9923 0.9835
-0.6458 3.5797 -1.9923 0.9835
-0.8995 3.5242 -1.9921 0.9835
-1.0247 3.4897 -1.9920 0.9835
-1.6277 3.2518 -1.9917 0.9836
-1.7427 3.1915 -1.9916 0.9836
-1.8554 3.1272 -1.9916 0.9836
-1.9658 3.0589 -1.9915 0.9836
-2.0737 2.9867 -1.9914 0.9836
-2.1789 2.9107 -1.9914 0.9836
-2.2813 2.8310 -1.9913 0.9836
-2.3809 2.7477 -1.9913 0.9836
-0.8524 0.5057 -0.5428 0.9955
-0.8516 0.4263 -0.5216 0.9957
-0.8506 0.3884 -0.5122 0.9957
-0.8479 0.3512 -0.5027 0.9958
-0.8837 0.2255 -0.4995 0.9958
-0.8932 0.1943 -0.5006 0.9958
-0.9077 0.1305 -0.5022 0.9958
-0.9127 0.0981 -0.5028 0.9958
-0.9161 0.0655 -0.5030 0.9958
-0.9179 0.0328 -0.5031 0.9958
3.4526 0.1233 -1.9946 0.9842
3.4460 0.2465 -1.9946 0.9842
3.4350 0.3693 -1.9946 0.9842
3.4196 0.4917 -1.9946 0.9842
3.3474 0.8544 -1.9946 0.9842
3.2778 1.0910 -1.9945 0.9842
3.0890 1.5462 -1.9944 0.9842
2.7651 2.0699 -1.9942 0.9842
2.6103 2.2618 -1.9941 0.9842
2.5278 2.3535 -1.9941 0.9842
2.4422 2.4422 -1.9940 0.9842
2.3534 2.5277 -1.9940 0.9842
2.1670 2.6890 -1.9939 0.9842
2.0695 2.7646 -1.9938 0.9842
1.9695 2.8366 -1.9938 0.9842
1.8669 2.9050 -1.9937 0.9842
1.4343 3.1407 -1.9934 0.9842
1.3213 3.1898 -1.9934 0.9842
1.2065 3.2348 -1.9933 0.9842
1.0903 3.2757 -1.9932 0.9842
0.9726 3.3124 -1.9932 0.9842
0.7338 3.3732 -1.9930 0.9842
0.4912 3.4167 -1.9929 0.9842
0.2462 3.4428 -1.9928 0.9842
0.1232 3.4492 -1.9927 0.9842
-0.0000 3.4513 -1.9926 0.9842
-0.2462 3.4423 -1.9925 0.9842
-0.4911 3.4157 -1.9923 0.9842
-0.8533 3.3433 -1.9921 0.9842
-1.4331 3.1381 -1.9918 0.9842
-1.8649 2.9019 -1.9916 0.9842
-1.9673 2.8334 -1.9915 0.9842
-2.2587 2.6067 -1.9913 0.9842
-2.4388 2.4388 -1.9912 0.9842
-2.6064 2.2584 -1.9911 0.9842
-0.7634 0.5300 -0.5366 0.9957
-0.7696 0.4946 -0.5282 0.9958
-0.7751 0.4599 -0.5203 0.9958
-0.7787 0.4252 -0.5122 0.9959
-0.7809 0.3566 -0.4957 0.9960
-0.8014 0.2667 -0.4876 0.9961
-0.8128 0.2387 -0.4891 0.9961
-0.8230 0.2101 -0.4904 0.9961
-0.8393 0.1514 -0.4924 0.9961
