ply
format ascii 1.0
element vertex 730
property float32 x
property float32 y
property float32 z
property float32 I
end_header
-9.5533 0.0000 -2.0194 0.9617
-9.5003 -1.0214 -2.0197 0.9617
-9.4581 -1.3599 -2.0198 0.9617
-9.3370 -2.0312 -2.0198 0.9617
-9.2584 -2.3631 -2.0198 0.9617
-8.9513 -3.3387 -2.0194 0.9617
-8.8256 -3.6557 -2.0193 0.9617
-8.3813 -4.5766 -2.0186 0.9617
-8.0310 -5.1612 -2.0179 0.9617
-7.6395 -5.7188 -2.0172 0.9617
-7.4289 -5.9866 -2.0167 0.9617
-6.9797 -6.4983 -2.0158 0.9618
-6.2401 -7.2015 -2.0142 0.9618
-5.7071 -7.6238 -2.0130 0.9618
-4.5580 -8.3473 -2.0104 0.9619
-3.6356 -8.7771 -2.0082 0.9619
-3.3187 -8.8978 -2.0074 0.9619
-2.6734 -9.1046 -2.0058 0.9619
-2.3458 -9.1905 -2.0050 0.9620
-2.0154 -9.2645 -2.0041 0.9620
-1.6827 -9.3266 -2.0033 0.9620
-1.3482 -9.3767 -2.0024 0.9620
-1.0122 -9.4148 -2.0016 0.9620
-0.6752 -9.4408 -2.0007 0.9620
-0.3377 -9.4548 -1.9998 0.9621
0.3374 -9.4463 -1.9980 0.9621
1.0095 -9.3898 -1.9962 0.9621
1.3434 -9.3435 -1.9953 0.9621
1.6753 -9.2854 -1.9944 0.9622
2.3313 -9.1340 -1.9926 0.9622
2.6546 -9.0409 -1.9917 0.9622
2.9743 -8.9364 -1.9909 0.9622
3.6011 -8.6937 -1.9891 0.9623
4.2084 -8.4073 -1.9873 0.9623
4.5038 -8.2482 -1.9865 0.9623
4.7933 -8.0788 -1.9856 0.9623
5.0765 -7.8992 -1.9848 0.9623
5.3530 -7.7098 -1.9840 0.9624
5.6225 -7.5108 -1.9832 0.9624
6.1391 -7.0849 -1.9816 0.9624
6.3856 -6.8587 -1.9809 0.9624
7.2862 -5.8716 -1.9780 0.9625
7.4886 -5.6059 -1.9773 0.9625
7.8644 -5.0542 -1.9761 0.9625
8.0374 -4.7688 -1.9755 0.9625
8.3524 -4.1809 -1.9744 0.9625
8.4940 -3.8791 -1.9738 0.9625
8.6249 -3.5726 -1.9734 0.9626
8.7449 -3.2617 -1.9729 0.9626
9.0377 -2.3068 -1.9716 0.9626
9.1126 -1.9824 -1.9713 0.9626
9.1761 -1.6555 -1.9710 0.9626
-8.5765 -0.3063 -2.0170 0.9654
-8.5606 -0.6123 -2.0171 0.9653
-8.4957 -1.2215 -2.0172 0.9653
-8.4467 -1.5240 -2.0172 0.9653
-8.3163 -2.1226 -2.0172 0.9653
-8.2349 -2.4180 -2.0171 0.9653
-8.1430 -2.7103 -2.0170 0.9654
-8.0406 -2.9990 -2.0169 0.9654
-7.5290 -4.1111 -2.0161 0.9654
-7.0055 -4.8640 -2.0044 0.9656
-6.6740 -5.3783 -2.0145 0.9654
-6.2707 -5.8382 -2.0136 0.9654
-6.0570 -6.0570 -2.0132 0.9654
-5.6067 -6.4705 -2.0122 0.9654
-5.3708 -6.6648 -2.0117 0.9654
-4.8790 -7.0271 -2.0106 0.9655
-3.2676 -7.8886 -2.0067 0.9655
-2.6946 -8.0959 -2.0053 0.9655
-1.8117 -8.3284 -2.0031 0.9656
-1.5128 -8.3845 -2.0024 0.9656
-1.2121 -8.4300 -2.0016 0.9656
-0.9100 -8.4646 -2.0008 0.9656
-0.6071 -8.4883 -2.0000 0.9656
-0.3036 -8.5012 -1.9993 0.9657
0.3034 -8.4944 -1.9977 0.9657
0.6061 -8.4748 -1.9969 0.9657
0.9078 -8.4443 -1.9960 0.9657
1.8031 -8.2888 -1.9936 0.9657
2.3879 -8.1324 -1.9920 0.9658
2.6755 -8.0388 -1.9912 0.9658
2.9596 -7.9350 -1.9904 0.9658
3.2396 -7.8212 -1.9896 0.9658
3.5153 -7.6975 -1.9888 0.9658
3.7863 -7.5642 -1.9880 0.9658
4.0523 -7.4214 -1.9873 0.9659
4.3130 -7.2692 -1.9865 0.9659
4.5680 -7.1080 -1.9858 0.9659
5.0597 -6.7590 -1.9843 0.9659
5.5250 -6.3763 -1.9829 0.9659
5.7471 -6.1729 -1.9822 0.9659
6.3677 -5.5177 -1.9802 0.9660
6.9148 -4.8011 -1.9785 0.9660
7.2357 -4.2931 -1.9774 0.9660
7.3824 -4.0311 -1.9768 0.9660
7.5197 -3.7641 -1.9764 0.9660
7.6474 -3.4925 -1.9759 0.9660
7.7655 -3.2166 -1.9754 0.9661
7.8736 -2.9367 -1.9750 0.9661
8.0599 -2.3666 -1.9742 0.9661
8.1378 -2.0771 -1.9739 0.9661
8.3095 -1.1947 -1.9730 0.9661
8.3458 -0.8973 -1.9728 0.9661
8.3716 -0.5988 -1.9726 0.9661
8.3869 -0.2995 -1.9724 0.9661
-7.7769 -0.2778 -2.0148 0.9684
-7.7624 -0.5552 -2.0149 0.9684
-7.7379 -0.8319 -2.0150 0.9684
-7.5408 -1.9247 -2.0150 0.9684
-7.0772 -3.2321 -2.0145 0.9684
-6.9567 -3.4823 -2.0143 0.9684
-6.8272 -3.7279 -2.0141 0.9684
-6.6890 -3.9688 -2.0138 0.9684
-6.3871 -4.4346 -2.0132 0.9684
-6.0524 -4.8774 -2.0126 0.9684
-5.8735 -5.0893 -2.0122 0.9684
-5.6869 -5.2947 -2.0118 0.9684
-5.4932 -5.4932 -2.0114 0.9684
-5.2925 -5.6845 -2.0110 0.9684
-4.8712 -6.0448 -2.0101 0.9684
-4.6512 -6.2133 -2.0096 0.9684
-3.7156 -6.8047 -2.0074 0.9685
-3.2188 -7.0482 -2.0062 0.9685
-2.9643 -7.1564 -2.0056 0.9685
-2.7061 -7.2554 -2.0050 0.9685
-1.6439 -7.5567 -2.0023 0.9686
-1.0998 -7.6494 -2.0009 0.9686
-0.8258 -7.6811 -2.0002 0.9686
-0.5509 -7.7029 -1.9995 0.9686
-0.2756 -7.7149 -1.9988 0.9686
1.0966 -7.6273 -1.9951 0.9687
1.3676 -7.5805 -1.9944 0.9687
1.6367 -7.5241 -1.9937 0.9687
1.9035 -7.4581 -1.9929 0.9687
2.1677 -7.3827 -1.9922 0.9687
3.6796 -6.7386 -1.9879 0.9688
3.9164 -6.6007 -1.9872 0.9688
4.1480 -6.4545 -1.9865 0.9688
4.3743 -6.3002 -1.9859 0.9688
4.5949 -6.1380 -1.9852 0.9688
4.8094 -5.9682 -1.9846 0.9688
5.0178 -5.7909 -1.9839 0.9688
5.2196 -5.6063 -1.9833 0.9688
5.6029 -5.2165 -1.9821 0.9689
6.2813 -4.3612 -1.9799 0.9689
6.4313 -4.1331 -1.9794 0.9689
6.5731 -3.9000 -1.9789 0.9689
7.0550 -2.9223 -1.9772 0.9689
7.2427 -2.4106 -1.9764 0.9690
7.3229 -2.1502 -1.9761 0.9690
7.3938 -1.8872 -1.9758 0.9690
7.4553 -1.6218 -1.9755 0.9690
7.5074 -1.3545 -1.9752 0.9690
7.5831 -0.8153 -1.9747 0.9690
-7.1106 0.0000 -2.0130 0.9709
-7.1065 -0.2538 -2.0131 0.9709
-7.0393 -1.0121 -2.0133 0.9709
-6.9492 -1.5117 -2.0133 0.9709
-6.8907 -1.7588 -2.0132 0.9709
-6.8234 -2.0035 -2.0132 0.9709
-6.7472 -2.2457 -2.0131 0.9709
-6.6624 -2.4850 -2.0130 0.9709
-6.5691 -2.7210 -2.0129 0.9709
-6.4673 -2.9535 -2.0127 0.9709
-6.2389 -3.4067 -2.0123 0.9709
-6.1127 -3.6268 -2.0121 0.9709
-5.9786 -3.8422 -2.0119 0.9709
-5.3677 -4.6512 -2.0107 0.9709
-5.1974 -4.8389 -2.0103 0.9709
-4.6476 -5.3636 -2.0091 0.9709
-4.4522 -5.5249 -2.0087 0.9709
-4.0449 -5.8258 -2.0078 0.9709
-3.8335 -5.9650 -2.0073 0.9710
-2.7098 -6.5421 -2.0046 0.9710
-1.9932 -6.7883 -2.0029 0.9710
-1.7492 -6.8531 -2.0022 0.9710
-1.5030 -6.9090 -2.0016 0.9710
-1.2550 -6.9560 -2.0010 0.9710
-0.7551 -7.0233 -1.9997 0.9711
-0.5038 -7.0435 -1.9991 0.9711
-0.2520 -7.0547 -1.9984 0.9711
-0.0000 -7.0569 -1.9977 0.9711
0.2518 -7.0500 -1.9971 0.9711
0.7536 -7.0094 -1.9957 0.9711
1.2508 -6.9331 -1.9944 0.9711
2.2218 -6.6755 -1.9917 0.9712
2.4578 -6.5898 -1.9911 0.9712
2.9198 -6.3934 -1.9897 0.9712
3.1451 -6.2831 -1.9891 0.9712
3.3662 -6.1649 -1.9885 0.9712
4.0022 -5.7643 -1.9866 0.9712
4.2041 -5.6161 -1.9860 0.9713
4.4006 -5.4608 -1.9854 0.9713
4.5913 -5.2987 -1.9848 0.9713
4.7761 -5.1300 -1.9842 0.9713
6.1379 -3.3516 -1.9798 0.9713
6.5474 -2.4421 -1.9783 0.9714
6.6293 -2.2065 -1.9779 0.9714
6.7028 -1.9681 -1.9776 0.9714
6.7678 -1.7274 -1.9773 0.9714
6.8242 -1.4845 -1.9771 0.9714
6.9110 -0.9937 -1.9766 0.9714
6.9630 -0.4980 -1.9762 0.9714
-6.5236 -0.4666 -2.0116 0.9730
-6.5030 -0.6992 -2.0117 0.9730
-6.4740 -0.9308 -2.0117 0.9730
-6.4367 -1.1613 -2.0118 0.9730
-6.2754 -1.8427 -2.0117 0.9730
-6.2054 -2.0654 -2.0116 0.9730
-6.0417 -2.5025 -2.0114 0.9730
-5.9481 -2.7164 -2.0112 0.9730
-5.8468 -2.9267 -2.0111 0.9730
-5.4988 -3.5339 -2.0105 0.9730
-5.0875 -4.0998 -2.0097 0.9730
-4.9372 -4.2781 -2.0094 0.9730
-4.7806 -4.4509 -2.0090 0.9730
-4.6179 -4.6179 -2.0087 0.9730
-4.2751 -4.9337 -2.0079 0.9730
-3.7209 -5.3591 -2.0067 0.9731
-3.5265 -5.4873 -2.0062 0.9731
-2.7070 -5.9275 -2.0043 0.9731
-2.4931 -6.0188 -2.0038 0.9731
-2.0563 -6.1780 -2.0027 0.9731
-1.8339 -6.2458 -2.0022 0.9731
-1.6094 -6.3055 -2.0016 0.9731
-1.3829 -6.3571 -2.0010 0.9731
-0.9254 -6.4358 -1.9999 0.9732
-0.4636 -6.4816 -1.9987 0.9732
-0.0000 -6.4942 -1.9975 0.9732
0.2317 -6.4881 -1.9969 0.9732
0.4630 -6.4737 -1.9962 0.9732
0.6935 -6.4510 -1.9956 0.9732
0.9231 -6.4202 -1.9950 0.9732
1.1513 -6.3811 -1.9944 0.9732
1.3779 -6.3340 -1.9938 0.9732
2.0451 -6.1447 -1.9919 0.9733
2.4768 -5.9795 -1.9907 0.9733
2.6878 -5.8855 -1.9901 0.9733
3.8707 -5.1707 -1.9866 0.9733
4.0517 -5.0278 -1.9861 0.9733
4.2274 -4.8787 -1.9856 0.9733
4.3977 -4.7235 -1.9850 0.9734
4.5623 -4.5623 -1.9845 0.9734
4.7210 -4.3955 -1.9840 0.9734
4.8737 -4.2231 -1.9835 0.9734
5.0201 -4.0455 -1.9831 0.9734
5.2936 -3.6754 -1.9822 0.9734
5.4202 -3.4834 -1.9817 0.9734
5.6526 -3.0866 -1.9809 0.9734
5.8562 -2.6745 -1.9802 0.9734
6.0300 -2.2491 -1.9795 0.9734
6.2332 -1.5909 -1.9787 0.9734
-6.0473 -0.0000 -2.0102 0.9748
-6.0438 -0.2159 -2.0103 0.9748
-6.0134 -0.6465 -2.0104 0.9748
-5.8602 -1.4957 -2.0104 0.9748
-5.7382 -1.9099 -2.0103 0.9748
-5.5868 -2.3141 -2.0101 0.9748
-5.4067 -2.7064 -2.0098 0.9748
-4.9646 -3.4470 -2.0090 0.9748
-4.8378 -3.6215 -2.0088 0.9748
-4.5659 -3.9563 -2.0082 0.9749
-4.4211 -4.1162 -2.0079 0.9749
-4.2707 -4.2707 -2.0076 0.9749
-4.1148 -4.4196 -2.0073 0.9749
-3.9538 -4.5629 -2.0069 0.9749
-3.7877 -4.7002 -2.0065 0.9749
-3.6168 -4.8315 -2.0062 0.9749
-3.2616 -5.0751 -2.0053 0.9749
-3.0777 -5.1872 -2.0049 0.9749
-2.8900 -5.2926 -2.0045 0.9749
-2.6986 -5.3911 -2.0040 0.9749
-2.1054 -5.6447 -2.0026 0.9749
-1.9021 -5.7148 -2.0021 0.9749
-1.6965 -5.7776 -2.0016 0.9749
-1.4888 -5.8329 -2.0011 0.9749
-1.2793 -5.8808 -2.0005 0.9750
-0.8560 -5.9539 -1.9995 0.9750
-0.6428 -5.9790 -1.9989 0.9750
-0.4289 -5.9965 -1.9984 0.9750
-0.2145 -6.0063 -1.9978 0.9750
0.4284 -5.9897 -1.9961 0.9750
1.2750 -5.8610 -1.9938 0.9750
1.4829 -5.8101 -1.9932 0.9750
1.6889 -5.7519 -1.9927 0.9750
1.8926 -5.6863 -1.9921 0.9751
2.6795 -5.3530 -1.9899 0.9751
3.2338 -5.0319 -1.9882 0.9751
3.4104 -4.9119 -1.9877 0.9751
3.5826 -4.7858 -1.9872 0.9751
4.0706 -4.3722 -1.9857 0.9751
4.3701 -4.0687 -1.9848 0.9751
5.0177 -3.2247 -1.9827 0.9752
5.1286 -3.0430 -1.9823 0.9752
5.2330 -2.8575 -1.9819 0.9752
5.3307 -2.6684 -1.9816 0.9752
5.5057 -2.2805 -1.9809 0.9752
5.6527 -1.8814 -1.9803 0.9752
5.7155 -1.6782 -1.9801 0.9752
5.8601 -1.0573 -1.9794 0.9752
5.8935 -0.8474 -1.9792 0.9752
5.9195 -0.6364 -1.9790 0.9752
5.9380 -0.4247 -1.9789 0.9752
-5.6180 -0.0000 -2.0090 0.9764
-5.6147 -0.2005 -2.0091 0.9764
-5.6041 -0.4008 -2.0092 0.9764
-5.5295 -0.9976 -2.0093 0.9764
-5.4903 -1.1943 -2.0093 0.9764
-5.3909 -1.5829 -2.0092 0.9764
-5.2639 -1.9633 -2.0091 0.9764
-5.1098 -2.3336 -2.0089 0.9764
-4.8300 -2.8658 -2.0084 0.9764
-4.3711 -3.5224 -2.0075 0.9764
-4.1075 -3.8242 -2.0070 0.9764
-3.9678 -3.9678 -2.0067 0.9764
-3.8231 -4.1063 -2.0063 0.9764
-3.6735 -4.2394 -2.0060 0.9765
-3.5192 -4.3671 -2.0057 0.9765
-3.3605 -4.4891 -2.0053 0.9765
-3.1976 -4.6054 -2.0049 0.9765
-3.0306 -4.7156 -2.0046 0.9765
-2.5076 -5.0095 -2.0033 0.9765
-2.3267 -5.0947 -2.0029 0.9765
-1.7676 -5.3106 -2.0015 0.9765
-1.3835 -5.4206 -2.0006 0.9765
-1.1889 -5.4652 -2.0001 0.9765
-0.9928 -5.5027 -1.9996 0.9765
-0.5974 -5.5567 -1.9986 0.9765
-0.3986 -5.5731 -1.9981 0.9765
0.1993 -5.5794 -1.9965 0.9766
0.7939 -5.5217 -1.9949 0.9766
1.1851 -5.4481 -1.9938 0.9766
1.3785 -5.4009 -1.9933 0.9766
1.7593 -5.2860 -1.9922 0.9766
2.1308 -5.1443 -1.9912 0.9766
2.4911 -4.9766 -1.9902 0.9766
2.8383 -4.7838 -1.9892 0.9766
3.0065 -4.6782 -1.9887 0.9767
3.1708 -4.5668 -1.9882 0.9767
3.3310 -4.4497 -1.9877 0.9767
3.6382 -4.1988 -1.9868 0.9767
3.7849 -4.0653 -1.9863 0.9767
3.9267 -3.9267 -1.9859 0.9767
4.0635 -3.7833 -1.9854 0.9767
4.3212 -3.4823 -1.9846 0.9767
4.8664 -2.6573 -1.9828 0.9767
4.9573 -2.4815 -1.9825 0.9767
5.0419 -2.3026 -1.9821 0.9767
5.2569 -1.7497 -1.9813 0.9767
5.3154 -1.5607 -1.9811 0.9767
5.3671 -1.3699 -1.9808 0.9767
5.4119 -1.1773 -1.9806 0.9767
5.5328 -0.1976 -1.9798 0.9768
-5.2368 -0.1870 -2.0081 0.9778
-5.2104 -0.5602 -2.0082 0.9778
-5.1208 -1.1140 -2.0083 0.9778
-5.0777 -1.2960 -2.0083 0.9778
-4.9721 -1.6549 -2.0082 0.9778
-4.8409 -2.0052 -2.0080 0.9778
-4.6850 -2.3451 -2.0077 0.9778
-4.1923 -3.1383 -2.0068 0.9778
-3.9568 -3.4286 -2.0064 0.9778
-3.7011 -3.7011 -2.0058 0.9778
-3.4266 -3.9545 -2.0052 0.9778
-3.1348 -4.1875 -2.0046 0.9778
-2.9828 -4.2960 -2.0042 0.9778
-2.6677 -4.4962 -2.0035 0.9779
-1.9991 -4.8263 -2.0019 0.9779
-1.6490 -4.9545 -2.0010 0.9779
-0.7423 -5.1627 -1.9988 0.9779
-0.3719 -5.2000 -1.9978 0.9779
-0.1860 -5.2087 -1.9973 0.9779
-0.0000 -5.2107 -1.9968 0.9779
0.1859 -5.2061 -1.9963 0.9779
0.3715 -5.1949 -1.9959 0.9779
1.1060 -5.0840 -1.9939 0.9780
1.4651 -4.9897 -1.9929 0.9780
2.3249 -4.6446 -1.9904 0.9780
2.6491 -4.4648 -1.9895 0.9780
2.8061 -4.3664 -1.9890 0.9780
2.9595 -4.2625 -1.9886 0.9780
3.1090 -4.1532 -1.9881 0.9780
3.5329 -3.7946 -1.9868 0.9780
3.6653 -3.6653 -1.9864 0.9780
3.9159 -3.3932 -1.9856 0.9780
4.5429 -2.4806 -1.9835 0.9781
4.6278 -2.3165 -1.9832 0.9781
4.7799 -1.9799 -1.9827 0.9781
4.9623 -1.4571 -1.9819 0.9781
5.0881 -0.9180 -1.9813 0.9781
5.1172 -0.7357 -1.9812 0.9781
-4.9013 -0.1750 -2.0072 0.9790
-4.8920 -0.3499 -2.0073 0.9790
-4.8765 -0.5243 -2.0073 0.9790
-4.8548 -0.6980 -2.0074 0.9790
-4.8268 -0.8709 -2.0074 0.9790
-4.7926 -1.0426 -2.0074 0.9790
-4.7059 -1.3818 -2.0073 0.9790
-4.6535 -1.5488 -2.0073 0.9790
-4.5951 -1.7139 -2.0072 0.9790
-4.5308 -1.8767 -2.0071 0.9790
-4.3848 -2.1949 -2.0069 0.9790
-4.3034 -2.3498 -2.0067 0.9790
-4.2165 -2.5018 -2.0066 0.9790
-3.7034 -3.2090 -2.0056 0.9790
-3.4642 -3.4642 -2.0051 0.9790
-3.0727 -3.8130 -2.0042 0.9791
-2.9342 -3.9197 -2.0039 0.9791
-2.6463 -4.1177 -2.0033 0.9791
-2.4972 -4.2087 -2.0029 0.9791
-2.1898 -4.3746 -2.0022 0.9791
-2.0319 -4.4491 -2.0018 0.9791
-1.8714 -4.5179 -2.0014 0.9791
-1.5437 -4.6380 -2.0006 0.9791
-1.0384 -4.7735 -1.9994 0.9791
-0.8672 -4.8064 -1.9989 0.9791
-0.3482 -4.8683 -1.9976 0.9791
-0.0000 -4.8786 -1.9967 0.9791
0.1741 -4.8743 -1.9962 0.9791
0.3479 -4.8639 -1.9958 0.9791
0.5211 -4.8472 -1.9953 0.9791
1.0356 -4.7604 -1.9939 0.9792
1.3719 -4.6723 -1.9930 0.9792
2.1772 -4.3495 -1.9907 0.9792
2.7716 -3.9919 -1.9889 0.9792
2.9117 -3.8896 -1.9885 0.9792
3.1804 -3.6704 -1.9877 0.9792
3.3087 -3.5539 -1.9873 0.9792
3.5525 -3.3075 -1.9866 0.9792
3.6676 -3.1780 -1.9862 0.9792
4.0797 -2.6219 -1.9848 0.9793
4.2551 -2.3235 -1.9842 0.9793
4.4088 -2.0134 -1.9837 0.9793
4.5400 -1.6933 -1.9832 0.9793
4.5970 -1.5301 -1.9829 0.9793
4.7328 -1.0296 -1.9823 0.9793
4.8146 -0.5176 -1.9819 0.9793
4.8297 -0.3454 -1.9817 0.9793
-1.4571 -0.0520 -0.6354 0.9937
-1.4180 -0.2039 -0.6244 0.9938
-1.3956 -0.2518 -0.6180 0.9938
-1.3400 -0.3420 -0.6027 0.9940
-1.3722 -0.4029 -0.6233 0.9938
-4.2532 -1.7617 -2.0063 0.9801
-4.1874 -1.9123 -2.0062 0.9801
-4.1162 -2.0604 -2.0061 0.9801
-3.8715 -2.4881 -2.0057 0.9801
-3.6835 -2.7575 -2.0053 0.9801
-3.5824 -2.8869 -2.0051 0.9801
-3.4767 -3.0126 -2.0049 0.9801
-3.3666 -3.1344 -2.0047 0.9801
-3.0111 -3.4750 -2.0039 0.9801
-2.7547 -3.6798 -2.0033 0.9801
-2.4844 -3.8658 -2.0027 0.9801
-2.3445 -3.9514 -2.0024 0.9802
-2.2016 -4.0319 -2.0020 0.9802
-2.0559 -4.1072 -2.0017 0.9802
-1.7570 -4.2418 -2.0010 0.9802
-1.6042 -4.3010 -2.0006 0.9802
-1.4494 -4.3547 -2.0002 0.9802
-0.9750 -4.4821 -1.9990 0.9802
-0.1636 -4.5792 -1.9970 0.9802
-0.0000 -4.5811 -1.9965 0.9802
0.1635 -4.5772 -1.9961 0.9802
0.3267 -4.5675 -1.9957 0.9802
0.6514 -4.5305 -1.9948 0.9802
0.8125 -4.5034 -1.9944 0.9802
0.9725 -4.4706 -1.9939 0.9802
1.1312 -4.4320 -1.9935 0.9802
1.2884 -4.3879 -1.9930 0.9802
1.4439 -4.3382 -1.9926 0.9802
1.5974 -4.2829 -1.9922 0.9803
1.7489 -4.2223 -1.9918 0.9803
2.1888 -4.0086 -1.9905 0.9803
2.4682 -3.8407 -1.9897 0.9803
2.8629 -3.5527 -1.9885 0.9803
2.9873 -3.4476 -1.9881 0.9803
3.5488 -2.8599 -1.9863 0.9803
3.7426 -2.5986 -1.9857 0.9803
3.9972 -2.1826 -1.9848 0.9803
4.0720 -2.0383 -1.9846 0.9803
4.2060 -1.7422 -1.9841 0.9803
4.2650 -1.5908 -1.9838 0.9803
4.3667 -1.2822 -1.9834 0.9803
4.4462 -0.9672 -1.9831 0.9803
4.4775 -0.8079 -1.9829 0.9803
4.5458 -0.1624 -1.9824 0.9803
-1.2261 -0.1318 -0.5708 0.9946
-1.1575 -0.2954 -0.5529 0.9947
-1.1330 -0.3327 -0.5466 0.9948
-1.1536 -0.3840 -0.5628 0.9947
-3.9411 -1.7998 -2.0055 0.9811
-3.8022 -2.0762 -2.0053 0.9811
-3.7255 -2.2104 -2.0052 0.9811
-3.6439 -2.3418 -2.0050 0.9811
-3.4670 -2.5954 -2.0047 0.9811
-3.3718 -2.7172 -2.0045 0.9811
-3.2724 -2.8355 -2.0043 0.9811
-3.1687 -2.9502 -2.0041 0.9811
-3.0611 -3.0611 -2.0038 0.9811
-2.9495 -3.1680 -2.0036 0.9811
-2.8342 -3.2708 -2.0033 0.9811
-2.7153 -3.3695 -2.0031 0.9811
-2.4673 -3.5536 -2.0025 0.9811
-2.2068 -3.7194 -2.0019 0.9811
-1.9353 -3.8662 -2.0013 0.9811
-1.7957 -3.9321 -2.0009 0.9811
-1.6540 -3.9930 -2.0006 0.9811
-1.5101 -4.0488 -2.0002 0.9811
-0.9179 -4.2194 -1.9988 0.9811
-0.6143 -4.2725 -1.9980 0.9812
-0.1540 -4.3111 -1.9968 0.9812
-0.0000 -4.3130 -1.9964 0.9812
0.3075 -4.3002 -1.9956 0.9812
1.2131 -4.1314 -1.9931 0.9812
1.3595 -4.0847 -1.9927 0.9812
1.5041 -4.0327 -1.9923 0.9812
1.7873 -3.9136 -1.9915 0.9812
1.9254 -3.8465 -1.9911 0.9812
2.0611 -3.7746 -1.9907 0.9812
2.5753 -3.4402 -1.9892 0.9812
2.6960 -3.3455 -1.9888 0.9812
2.8131 -3.2466 -1.9885 0.9812
3.3421 -2.6932 -1.9868 0.9813
3.4356 -2.5718 -1.9865 0.9813
3.5247 -2.4472 -1.9862 0.9813
3.6092 -2.3195 -1.9859 0.9813
3.6892 -2.1889 -1.9856 0.9813
3.9612 -1.6408 -1.9847 0.9813
4.0168 -1.4982 -1.9844 0.9813
4.1876 -0.9110 -1.9837 0.9813
4.2601 -0.4580 -1.9833 0.9813
-1.0817 -0.0000 -0.5306 0.9952
-1.0705 -0.1151 -0.5281 0.9952
-1.0611 -0.1526 -0.5258 0.9952
-1.0175 -0.2988 -0.5202 0.9953
-1.0119 -0.3774 -0.5298 0.9952
-1.0444 -0.4769 -0.5632 0.9949
-3.5869 -1.9586 -2.0047 0.9820
-3.5145 -2.0852 -2.0045 0.9820
-3.4376 -2.2092 -2.0044 0.9820
-3.3563 -2.3303 -2.0042 0.9820
-3.2707 -2.4484 -2.0041 0.9820
-3.1809 -2.5633 -2.0039 0.9820
-3.0871 -2.6750 -2.0037 0.9820
-2.8878 -2.8878 -2.0033 0.9820
-2.7826 -2.9887 -2.0031 0.9820
-2.6738 -3.0857 -2.0028 0.9820
-2.5617 -3.1788 -2.0026 0.9820
-2.0821 -3.5091 -2.0015 0.9820
-1.9552 -3.5806 -2.0012 0.9820
-1.8259 -3.6476 -2.0009 0.9820
-1.6942 -3.7098 -2.0005 0.9820
-1.5605 -3.7674 -2.0002 0.9820
-1.4248 -3.8200 -1.9999 0.9820
-1.2873 -3.8678 -1.9996 0.9820
-1.1483 -3.9106 -1.9992 0.9820
-1.0078 -3.9484 -1.9989 0.9820
-0.8661 -3.9811 -1.9985 0.9820
-0.7233 -4.0088 -1.9981 0.9820
-0.4353 -4.0487 -1.9974 0.9820
-0.2905 -4.0609 -1.9970 0.9820
-0.1453 -4.0679 -1.9967 0.9820
0.1452 -4.0663 -1.9959 0.9820
0.7219 -4.0012 -1.9943 0.9820
1.0051 -3.9379 -1.9936 0.9821
1.5541 -3.7519 -1.9920 0.9821
2.1935 -3.4132 -1.9902 0.9821
2.3135 -3.3321 -1.9898 0.9821
2.5445 -3.1575 -1.9891 0.9821
2.6551 -3.0642 -1.9888 0.9821
2.7623 -2.9669 -1.9885 0.9821
2.8660 -2.8660 -1.9881 0.9821
2.9660 -2.7614 -1.9878 0.9821
3.0622 -2.6534 -1.9875 0.9821
3.2427 -2.4275 -1.9869 0.9821
3.4822 -2.0661 -1.9861 0.9821
3.5533 -1.9402 -1.9859 0.9821
3.7390 -1.5488 -1.9852 0.9821
3.7915 -1.4142 -1.9850 0.9821
3.8820 -1.1399 -1.9846 0.9821
3.9807 -0.7182 -1.9842 0.9821
4.0213 -0.4324 -1.9839 0.9821
4.0340 -0.2885 -1.9838 0.9821
4.0415 -0.1444 -1.9837 0.9821
-0.9895 0.0000 -0.5133 0.9956
-0.9893 -0.0353 -0.5135 0.9955
-0.9873 -0.0706 -0.5135 0.9955
-0.9785 -0.1407 -0.5129 0.9956
-0.9524 -0.2431 -0.5099 0.9956
-0.9404 -0.2761 -0.5085 0.9956
-0.9268 -0.3085 -0.5067 0.9956
-0.9208 -0.3434 -0.5098 0.9956
-0.9271 -0.3840 -0.5206 0.9955
-0.9326 -0.4259 -0.5319 0.9954
-3.3221 -1.9711 -2.0040 0.9827
-3.0069 -2.4231 -2.0034 0.9827
-2.9182 -2.5287 -2.0032 0.9828
-2.8258 -2.6309 -2.0030 0.9828
-2.4216 -3.0050 -2.0021 0.9828
-2.3125 -3.0891 -2.0019 0.9828
-2.2005 -3.1693 -2.0016 0.9828
-2.0857 -3.2454 -2.0014 0.9828
-1.8483 -3.3850 -2.0008 0.9828
-1.7261 -3.4483 -2.0005 0.9828
-1.6017 -3.5072 -2.0002 0.9828
-1.4753 -3.5616 -1.9999 0.9828
-1.0856 -3.6971 -1.9989 0.9828
-0.6838 -3.7900 -1.9979 0.9828
-0.1374 -3.8461 -1.9965 0.9828
-0.0000 -3.8478 -1.9962 0.9828
0.1373 -3.8447 -1.9958 0.9828
0.4111 -3.8237 -1.9951 0.9828
0.5472 -3.8059 -1.9947 0.9828
0.8170 -3.7557 -1.9940 0.9828
1.0824 -3.6866 -1.9932 0.9828
1.2131 -3.6449 -1.9929 0.9828
1.5949 -3.4924 -1.9918 0.9828
1.7183 -3.4327 -1.9914 0.9829
2.0743 -3.2277 -1.9904 0.9829
2.2985 -3.0704 -1.9897 0.9829
2.5108 -2.8977 -1.9891 0.9829
2.6123 -2.8058 -1.9888 0.9829
2.9832 -2.4040 -1.9876 0.9829
3.0667 -2.2957 -1.9873 0.9829
3.3605 -1.8350 -1.9863 0.9829
3.4235 -1.7137 -1.9861 0.9829
3.4821 -1.5902 -1.9859 0.9829
3.5363 -1.4648 -1.9857 0.9829
3.6716 -1.0781 -1.9851 0.9829
3.7074 -0.9463 -1.9850 0.9829
3.7385 -0.8133 -1.9848 0.9829
3.7649 -0.6793 -1.9847 0.9829
3.8153 -0.2729 -1.9844 0.9829
3.8225 -0.1365 -1.9843 0.9829
-0.9182 0.0000 -0.5029 0.9958
-0.9179 -0.0328 -0.5031 0.9958
-0.9161 -0.0655 -0.5030 0.9958
-0.9127 -0.0981 -0.5028 0.9958
-0.9077 -0.1305 -0.5022 0.9958
-0.9011 -0.1626 -0.5015 0.9958
-0.8932 -0.1943 -0.5006 0.9958
-0.8837 -0.2256 -0.4995 0.9958
-0.8603 -0.2863 -0.4966 0.9959
-0.8506 -0.3884 -0.5122 0.9957
-0.8524 -0.5058 -0.5428 0.9955
-3.0043 -2.0859 -2.0032 0.9835
-2.6760 -2.4914 -2.0025 0.9835
-2.4909 -2.6754 -2.0021 0.9835
-2.1899 -2.9254 -2.0015 0.9835
-1.9752 -3.0734 -2.0010 0.9835
-1.3971 -3.3730 -1.9996 0.9835
-1.2757 -3.4202 -1.9993 0.9835
-1.1526 -3.4630 -1.9990 0.9835
-1.0281 -3.5014 -1.9987 0.9835
-0.9024 -3.5353 -1.9984 0.9835
-0.1301 -3.6427 -1.9964 0.9835
0.3894 -3.6217 -1.9950 0.9835
0.6465 -3.5834 -1.9943 0.9835
0.7739 -3.5575 -1.9940 0.9835
0.9002 -3.5269 -1.9936 0.9835
1.1491 -3.4525 -1.9929 0.9835
1.3920 -3.3606 -1.9923 0.9835
1.5108 -3.3082 -1.9919 0.9836
1.7424 -3.1910 -1.9913 0.9836
1.8548 -3.1262 -1.9909 0.9836
2.1774 -2.9086 -1.9900 0.9836
2.5676 -2.5676 -1.9888 0.9836
2.6572 -2.4740 -1.9885 0.9836
2.9807 -2.0695 -1.9875 0.9836
3.1200 -1.8512 -1.9870 0.9836
3.3503 -1.3877 -1.9861 0.9836
3.3973 -1.2672 -1.9860 0.9836
3.4785 -1.0214 -1.9856 0.9836
3.5875 -0.5158 -1.9851 0.9836
3.6148 -0.2585 -1.9849 0.9836
3.6216 -0.1294 -1.9848 0.9836
-0.8550 0.0000 -0.4936 0.9961
-0.8499 -0.0914 -0.4935 0.9961
-0.8318 -0.1810 -0.4915 0.9961
-0.8128 -0.2387 -0.4891 0.9961
-0.7809 -0.3566 -0.4957 0.9960
-0.7806 -0.3908 -0.5040 0.9960
-0.7751 -0.4599 -0.5203 0.9958
-0.7634 -0.5300 -0.5366 0.9957
-2.7768 -2.0787 -2.0026 0.9841
-2.7006 -2.1763 -2.0024 0.9841
-2.6210 -2.2711 -2.0023 0.9841
-2.5380 -2.3630 -2.0021 0.9841
-2.2702 -2.6200 -2.0015 0.9841
-2.0771 -2.7747 -2.0011 0.9841
-1.8734 -2.9151 -2.0006 0.9841
-1.6603 -3.0406 -2.0001 0.9841
-1.5505 -3.0975 -1.9999 0.9841
-1.2100 -3.2442 -1.9990 0.9841
-1.0933 -3.2848 -1.9988 0.9841
-0.9752 -3.3212 -1.9985 0.9841
-0.6143 -3.4049 -1.9976 0.9841
-0.4923 -3.4241 -1.9972 0.9841
-0.0000 -3.4571 -1.9960 0.9842
0.2465 -3.4472 -1.9953 0.9842
0.3694 -3.4356 -1.9950 0.9842
0.7341 -3.3748 -1.9940 0.9842
0.8540 -3.3459 -1.9937 0.9842
0.9727 -3.3127 -1.9933 0.9842
1.0901 -3.2754 -1.9930 0.9842
1.2061 -3.2338 -1.9927 0.9842
1.4333 -3.1385 -1.9920 0.9842
1.5442 -3.0849 -1.9917 0.9842
1.6530 -3.0273 -1.9914 0.9842
1.7598 -2.9659 -1.9911 0.9842
1.8642 -2.9008 -1.9908 0.9842
2.1626 -2.6837 -1.9899 0.9842
2.4361 -2.4361 -1.9891 0.9842
2.6030 -2.2555 -1.9885 0.9842
2.6815 -2.1609 -1.9883 0.9842
2.7566 -2.0635 -1.9880 0.9842
2.8281 -1.9636 -1.9878 0.9842
2.8961 -1.8612 -1.9876 0.9842
2.9603 -1.7565 -1.9873 0.9842
3.0208 -1.6495 -1.9871 0.9842
3.0774 -1.5405 -1.9869 0.9842
3.1302 -1.4295 -1.9867 0.9842
3.1789 -1.3167 -1.9866 0.9842
3.2236 -1.2023 -1.9864 0.9842
3.3609 -0.7311 -1.9858 0.9842
3.4041 -0.4894 -1.9856 0.9842
3.4300 -0.2453 -1.9854 0.9842
3.4364 -0.1227 -1.9853 0.9842
