ply
format ascii 1.0
element vertex 717
property float32 x
property float32 y
property float32 z
property float32 I
end_header
-9.3848 -0.3352 -1.9850 0.9623
-9.3669 -0.6699 -1.9850 0.9623
-9.1771 -1.9963 -1.9852 0.9623
-8.9121 -2.9662 -1.9854 0.9623
-8.8010 -3.2826 -1.9855 0.9623
-8.6786 -3.5948 -1.9856 0.9623
-7.7192 -5.3596 -1.9864 0.9623
-6.6479 -6.6479 -1.9873 0.9623
-6.1579 -7.1065 -1.9877 0.9623
-5.9009 -7.3226 -1.9879 0.9623
-5.6364 -7.5293 -1.9881 0.9623
-5.0860 -7.9140 -1.9885 0.9623
-4.8009 -8.0914 -1.9888 0.9623
-4.5095 -8.2585 -1.9890 0.9623
-3.9098 -8.5612 -1.9895 0.9623
-3.2899 -8.8205 -1.9899 0.9622
-2.3291 -9.1251 -1.9907 0.9622
-2.0021 -9.2036 -1.9910 0.9622
-1.3408 -9.3254 -1.9915 0.9622
-0.6723 -9.3998 -1.9920 0.9622
-0.3364 -9.4190 -1.9923 0.9622
-0.0000 -9.4263 -1.9925 0.9622
0.3365 -9.4215 -1.9928 0.9622
0.6726 -9.4047 -1.9931 0.9622
1.0080 -9.3760 -1.9933 0.9622
2.3333 -9.1418 -1.9943 0.9622
2.9803 -8.9543 -1.9948 0.9622
3.2984 -8.8433 -1.9951 0.9621
3.9218 -8.5875 -1.9956 0.9621
4.2263 -8.4431 -1.9958 0.9621
4.5255 -8.2878 -1.9960 0.9621
4.8190 -8.1219 -1.9963 0.9621
5.1063 -7.9456 -1.9965 0.9621
5.3873 -7.7591 -1.9967 0.9621
6.4393 -6.9163 -1.9975 0.9621
7.1436 -6.1900 -1.9980 0.9621
7.3606 -5.9315 -1.9982 0.9621
7.5682 -5.6655 -1.9984 0.9621
7.7662 -5.3922 -1.9985 0.9621
7.9542 -5.1119 -1.9986 0.9621
8.4567 -4.2331 -1.9990 0.9621
8.6028 -3.9288 -1.9991 0.9621
8.8620 -3.3054 -1.9993 0.9621
8.9747 -2.9871 -1.9994 0.9621
9.3637 -1.3463 -1.9997 0.9621
9.4060 -1.0113 -1.9997 0.9621
9.4361 -0.6749 -1.9997 0.9621
9.4542 -0.3377 -1.9997 0.9621
-8.4491 0.0000 -1.9857 0.9659
-8.4277 -0.6028 -1.9858 0.9659
-8.4009 -0.9032 -1.9858 0.9659
-8.3635 -1.2025 -1.9858 0.9659
-8.3154 -1.5003 -1.9859 0.9659
-7.9183 -2.9534 -1.9862 0.9659
-7.8082 -3.2343 -1.9863 0.9659
-7.6882 -3.5111 -1.9864 0.9659
-7.5584 -3.7834 -1.9865 0.9659
-7.1119 -4.5706 -1.9869 0.9659
-5.5397 -6.3932 -1.9881 0.9658
-5.0705 -6.7733 -1.9885 0.9658
-4.5752 -7.1192 -1.9889 0.9658
-4.3187 -7.2787 -1.9891 0.9658
-3.7892 -7.5698 -1.9895 0.9658
-3.5170 -7.7011 -1.9897 0.9658
-3.2402 -7.8226 -1.9900 0.9658
-2.9593 -7.9341 -1.9902 0.9658
-2.3863 -8.1269 -1.9906 0.9658
-2.0949 -8.2078 -1.9909 0.9658
-1.8008 -8.2783 -1.9911 0.9658
-1.2060 -8.3877 -1.9916 0.9658
-0.9059 -8.4263 -1.9918 0.9658
-0.6047 -8.4543 -1.9920 0.9658
-0.3026 -8.4715 -1.9923 0.9658
0.9066 -8.4323 -1.9932 0.9658
1.2071 -8.3956 -1.9934 0.9657
1.5062 -8.3481 -1.9937 0.9657
2.0984 -8.2213 -1.9941 0.9657
2.9661 -7.9526 -1.9948 0.9657
3.5267 -7.7224 -1.9952 0.9657
4.5917 -7.1448 -1.9961 0.9657
5.7900 -6.2189 -1.9970 0.9657
6.6181 -5.3333 -1.9976 0.9657
6.8048 -5.0940 -1.9977 0.9657
6.9827 -4.8482 -1.9979 0.9657
7.1518 -4.5962 -1.9980 0.9657
7.3117 -4.3382 -1.9981 0.9657
7.4623 -4.0747 -1.9982 0.9657
7.6034 -3.8060 -1.9983 0.9657
7.7347 -3.5323 -1.9984 0.9657
7.9677 -2.9718 -1.9986 0.9657
8.1600 -2.3960 -1.9987 0.9657
8.2405 -2.1033 -1.9988 0.9657
8.3105 -1.8079 -1.9989 0.9657
8.4837 -0.6068 -1.9990 0.9657
-7.6717 -0.0000 -1.9863 0.9688
-7.6669 -0.2738 -1.9864 0.9688
-7.6280 -0.8201 -1.9864 0.9688
-7.5939 -1.0918 -1.9864 0.9688
-7.5503 -1.3622 -1.9865 0.9688
-7.4970 -1.6309 -1.9865 0.9688
-7.1896 -2.6816 -1.9868 0.9688
-6.8627 -3.4352 -1.9870 0.9688
-6.6008 -3.9165 -1.9873 0.9688
-6.4572 -4.1498 -1.9874 0.9688
-6.1455 -4.6005 -1.9876 0.9688
-5.8025 -5.0279 -1.9879 0.9688
-5.4298 -5.4298 -1.9882 0.9688
-5.2330 -5.6206 -1.9884 0.9688
-5.0294 -5.8043 -1.9885 0.9688
-4.3813 -6.3103 -1.9890 0.9688
-4.1537 -6.4632 -1.9892 0.9688
-3.4400 -6.8721 -1.9898 0.9687
-2.9415 -7.1014 -1.9902 0.9687
-2.4279 -7.2947 -1.9906 0.9687
-1.9017 -7.4508 -1.9910 0.9687
-0.8223 -7.6489 -1.9919 0.9687
-0.5489 -7.6742 -1.9921 0.9687
-0.2746 -7.6897 -1.9923 0.9687
0.8229 -7.6538 -1.9931 0.9687
1.0956 -7.6204 -1.9933 0.9687
1.6368 -7.5244 -1.9938 0.9687
1.9045 -7.4619 -1.9940 0.9687
2.1699 -7.3900 -1.9942 0.9687
3.6933 -6.7639 -1.9954 0.9687
4.6200 -6.1716 -1.9961 0.9686
4.8377 -6.0033 -1.9962 0.9686
5.0493 -5.8272 -1.9964 0.9686
5.2545 -5.6437 -1.9965 0.9686
5.4530 -5.4530 -1.9967 0.9686
5.6446 -5.2553 -1.9968 0.9686
6.3367 -4.3996 -1.9974 0.9686
6.4900 -4.1709 -1.9975 0.9686
6.6351 -3.9368 -1.9976 0.9686
7.4047 -2.1742 -1.9982 0.9686
7.4778 -1.9086 -1.9982 0.9686
7.5413 -1.6405 -1.9982 0.9686
7.5952 -1.3703 -1.9983 0.9686
7.6738 -0.8250 -1.9983 0.9686
-7.0006 -0.5007 -1.9869 0.9712
-6.9783 -0.7502 -1.9869 0.9712
-6.9472 -0.9989 -1.9869 0.9712
-6.9073 -1.2462 -1.9870 0.9712
-6.8011 -1.7359 -1.9871 0.9712
-6.7350 -1.9776 -1.9871 0.9712
-6.6603 -2.2168 -1.9872 0.9712
-6.5772 -2.4532 -1.9872 0.9712
-6.4857 -2.6865 -1.9873 0.9712
-6.3859 -2.9163 -1.9874 0.9712
-6.1622 -3.3648 -1.9876 0.9712
-6.0385 -3.5828 -1.9877 0.9712
-5.4684 -4.4067 -1.9882 0.9712
-4.7869 -5.1415 -1.9887 0.9712
-4.6007 -5.3095 -1.9889 0.9712
-4.2109 -5.6250 -1.9892 0.9712
-4.0077 -5.7722 -1.9893 0.9712
-3.5863 -6.0444 -1.9897 0.9712
-3.3686 -6.1691 -1.9898 0.9712
-2.9204 -6.3949 -1.9902 0.9712
-2.4572 -6.5881 -1.9906 0.9712
-1.7394 -6.8150 -1.9911 0.9712
-1.4952 -6.8734 -1.9913 0.9712
-1.0013 -6.9639 -1.9917 0.9712
0.2512 -7.0345 -1.9927 0.9712
0.7526 -7.0000 -1.9931 0.9712
1.9844 -6.7584 -1.9940 0.9711
2.2246 -6.6839 -1.9942 0.9711
2.6962 -6.5093 -1.9946 0.9711
3.3775 -6.1854 -1.9951 0.9711
4.0203 -5.7904 -1.9956 0.9711
4.2248 -5.6436 -1.9957 0.9711
4.8049 -5.1608 -1.9962 0.9711
5.3301 -4.6186 -1.9966 0.9711
5.4919 -4.4257 -1.9967 0.9711
5.7943 -4.0231 -1.9969 0.9711
6.0671 -3.5998 -1.9971 0.9711
6.1920 -3.3811 -1.9972 0.9711
6.5188 -2.7002 -1.9975 0.9711
6.6112 -2.4659 -1.9975 0.9711
6.8375 -1.7452 -1.9977 0.9711
7.0167 -0.7544 -1.9978 0.9711
-6.4570 -0.2306 -1.9873 0.9733
-6.4447 -0.4609 -1.9873 0.9733
-6.3139 -1.3735 -1.9874 0.9733
-6.2610 -1.5980 -1.9875 0.9733
-6.2001 -1.8205 -1.9875 0.9733
-6.0548 -2.2583 -1.9877 0.9733
-5.6727 -3.0975 -1.9880 0.9733
-5.5588 -3.2982 -1.9881 0.9733
-5.3099 -3.6867 -1.9883 0.9733
-4.7323 -4.4059 -1.9887 0.9733
-4.5723 -4.5723 -1.9889 0.9733
-4.0582 -5.0359 -1.9893 0.9733
-3.8761 -5.1779 -1.9894 0.9733
-3.6891 -5.3133 -1.9896 0.9733
-3.4974 -5.4421 -1.9897 0.9733
-3.1007 -5.6786 -1.9900 0.9733
-2.2618 -6.0641 -1.9907 0.9733
-2.0441 -6.1415 -1.9909 0.9733
-1.8237 -6.2111 -1.9910 0.9733
-1.6010 -6.2728 -1.9912 0.9733
-1.1497 -6.3721 -1.9916 0.9733
-0.6923 -6.4391 -1.9919 0.9733
-0.4620 -6.4602 -1.9921 0.9733
-0.2312 -6.4732 -1.9923 0.9733
0.4622 -6.4626 -1.9928 0.9732
0.6926 -6.4425 -1.9930 0.9732
1.3777 -6.3333 -1.9935 0.9732
1.8263 -6.2200 -1.9939 0.9732
2.2658 -6.0748 -1.9942 0.9732
2.6938 -5.8987 -1.9946 0.9732
2.9029 -5.7993 -1.9947 0.9732
3.5070 -5.4570 -1.9952 0.9732
3.6998 -5.3287 -1.9953 0.9732
3.8879 -5.1937 -1.9955 0.9732
4.0711 -5.0519 -1.9956 0.9732
4.4217 -4.7493 -1.9959 0.9732
4.5887 -4.5887 -1.9960 0.9732
5.6980 -3.1114 -1.9968 0.9732
5.8057 -2.9061 -1.9969 0.9732
6.0837 -2.2691 -1.9971 0.9732
6.2304 -1.8294 -1.9972 0.9732
6.2918 -1.6059 -1.9973 0.9732
6.4277 -0.9242 -1.9974 0.9732
6.4567 -0.6942 -1.9974 0.9732
6.4774 -0.4633 -1.9974 0.9732
6.4898 -0.2318 -1.9974 0.9732
-5.9796 -0.0000 -1.9877 0.9751
-5.9645 -0.4266 -1.9877 0.9751
-5.9455 -0.6392 -1.9877 0.9751
-5.9190 -0.8510 -1.9877 0.9751
-5.8849 -1.0618 -1.9878 0.9751
-5.7944 -1.4789 -1.9878 0.9751
-5.4406 -2.4846 -1.9881 0.9751
-5.2499 -2.8666 -1.9883 0.9751
-4.6586 -3.7541 -1.9888 0.9751
-4.3794 -4.0774 -1.9890 0.9751
-4.2313 -4.2313 -1.9891 0.9751
-4.0779 -4.3799 -1.9892 0.9751
-3.7555 -4.6603 -1.9895 0.9751
-3.4139 -4.9170 -1.9898 0.9751
-3.2365 -5.0361 -1.9899 0.9751
-2.8694 -5.2549 -1.9902 0.9751
-2.6802 -5.3544 -1.9904 0.9751
-2.4876 -5.4470 -1.9905 0.9751
-2.2918 -5.5328 -1.9907 0.9751
-2.0930 -5.6115 -1.9908 0.9751
-1.2735 -5.8541 -1.9915 0.9751
-1.0638 -5.8964 -1.9916 0.9751
-0.8528 -5.9311 -1.9918 0.9751
-0.6406 -5.9582 -1.9920 0.9751
0.2140 -5.9907 -1.9926 0.9750
0.6409 -5.9612 -1.9930 0.9750
1.0647 -5.9013 -1.9933 0.9750
1.2748 -5.8600 -1.9934 0.9750
1.4832 -5.8112 -1.9936 0.9750
1.6898 -5.7550 -1.9938 0.9750
1.8943 -5.6915 -1.9939 0.9750
2.0964 -5.6207 -1.9941 0.9750
2.2959 -5.5427 -1.9942 0.9750
2.4924 -5.4577 -1.9944 0.9750
2.6858 -5.3656 -1.9945 0.9750
2.8759 -5.2667 -1.9947 0.9750
3.2447 -5.0489 -1.9950 0.9750
3.4231 -4.9302 -1.9951 0.9750
3.5971 -4.8052 -1.9952 0.9750
3.7666 -4.6740 -1.9954 0.9750
3.9312 -4.5369 -1.9955 0.9750
4.2454 -4.2454 -1.9957 0.9750
4.3945 -4.0914 -1.9958 0.9750
4.9330 -3.4251 -1.9963 0.9750
5.2715 -2.8785 -1.9965 0.9750
5.3711 -2.6886 -1.9966 0.9750
5.4638 -2.4953 -1.9966 0.9750
5.6283 -2.0992 -1.9968 0.9750
5.6997 -1.8971 -1.9968 0.9750
5.7640 -1.6925 -1.9969 0.9750
5.9121 -1.0667 -1.9970 0.9750
5.9465 -0.8550 -1.9970 0.9750
5.9733 -0.6422 -1.9970 0.9750
5.9924 -0.4286 -1.9970 0.9750
6.0039 -0.2144 -1.9970 0.9750
-5.5027 -0.7912 -1.9881 0.9767
-5.4324 -1.1818 -1.9881 0.9767
-5.3869 -1.3749 -1.9882 0.9767
-5.2754 -1.7558 -1.9883 0.9767
-5.2095 -1.9430 -1.9883 0.9767
-5.1370 -2.1278 -1.9884 0.9767
-4.9724 -2.4890 -1.9885 0.9767
-4.8806 -2.6650 -1.9886 0.9767
-4.7826 -2.8376 -1.9887 0.9767
-4.3308 -3.4900 -1.9890 0.9766
-4.2037 -3.6426 -1.9891 0.9766
-3.9336 -3.9336 -1.9893 0.9766
-3.7909 -4.0717 -1.9895 0.9766
-3.3346 -4.4544 -1.9898 0.9766
-3.0087 -4.6816 -1.9901 0.9766
-2.8398 -4.7863 -1.9902 0.9766
-2.4915 -4.9774 -1.9905 0.9766
-2.3124 -5.0635 -1.9906 0.9766
-1.1838 -5.4418 -1.9915 0.9766
-0.5954 -5.5384 -1.9920 0.9766
-0.3974 -5.5566 -1.9921 0.9766
-0.1989 -5.5676 -1.9923 0.9766
0.0000 -5.5716 -1.9924 0.9766
0.3975 -5.5583 -1.9928 0.9766
0.9896 -5.4852 -1.9932 0.9766
1.5707 -5.3492 -1.9937 0.9766
1.7607 -5.2901 -1.9938 0.9766
2.1339 -5.1518 -1.9941 0.9766
2.3166 -5.0727 -1.9942 0.9766
2.4964 -4.9871 -1.9944 0.9766
2.6730 -4.8952 -1.9945 0.9766
3.0158 -4.6926 -1.9948 0.9766
3.1815 -4.5823 -1.9949 0.9766
3.3433 -4.4661 -1.9950 0.9766
3.9457 -3.9458 -1.9955 0.9766
4.2176 -3.6546 -1.9957 0.9766
4.4680 -3.3447 -1.9959 0.9766
4.5847 -3.1832 -1.9960 0.9766
4.8993 -2.6752 -1.9962 0.9766
5.1577 -2.1364 -1.9964 0.9766
5.2308 -1.9510 -1.9965 0.9766
5.2972 -1.7631 -1.9965 0.9766
5.4097 -1.3808 -1.9966 0.9766
5.4556 -1.1868 -1.9966 0.9766
5.4946 -0.9913 -1.9966 0.9766
5.5265 -0.7946 -1.9967 0.9766
5.5514 -0.5968 -1.9967 0.9766
5.5692 -0.3983 -1.9967 0.9766
-5.1884 -0.0000 -1.9883 0.9780
-5.1587 -0.5546 -1.9883 0.9780
-5.1357 -0.7384 -1.9883 0.9780
-5.0701 -1.1029 -1.9884 0.9780
-5.0276 -1.2832 -1.9884 0.9780
-4.9787 -1.4619 -1.9885 0.9780
-4.8620 -1.8134 -1.9886 0.9780
-4.7943 -1.9859 -1.9886 0.9780
-4.5550 -2.4872 -1.9888 0.9780
-4.4635 -2.6483 -1.9889 0.9780
-4.3663 -2.8060 -1.9890 0.9780
-4.2635 -2.9602 -1.9891 0.9780
-4.1553 -3.1106 -1.9892 0.9780
-3.9232 -3.3995 -1.9893 0.9780
-3.7996 -3.5375 -1.9894 0.9780
-3.5379 -3.8000 -1.9896 0.9780
-3.2582 -4.0431 -1.9899 0.9780
-2.9618 -4.2658 -1.9901 0.9780
-2.6502 -4.4667 -1.9904 0.9780
-2.4893 -4.5588 -1.9905 0.9780
-2.3251 -4.6450 -1.9906 0.9780
-2.1580 -4.7254 -1.9907 0.9780
-1.9881 -4.7997 -1.9909 0.9780
-1.6409 -4.9300 -1.9912 0.9780
-1.4640 -4.9858 -1.9913 0.9780
-1.2852 -5.0352 -1.9914 0.9780
-0.9228 -5.1148 -1.9917 0.9780
-0.7397 -5.1448 -1.9919 0.9780
-0.5557 -5.1683 -1.9920 0.9780
0.0000 -5.1992 -1.9924 0.9780
0.1856 -5.1963 -1.9926 0.9780
0.5559 -5.1706 -1.9929 0.9780
0.7401 -5.1478 -1.9930 0.9780
1.1056 -5.0826 -1.9933 0.9780
1.4656 -4.9915 -1.9936 0.9780
1.6430 -4.9363 -1.9937 0.9780
1.8182 -4.8749 -1.9939 0.9780
2.1616 -4.7334 -1.9941 0.9780
3.2665 -4.0535 -1.9950 0.9779
3.4093 -3.9345 -1.9951 0.9779
4.1689 -3.1208 -1.9956 0.9779
4.2778 -2.9701 -1.9957 0.9779
4.4791 -2.6576 -1.9959 0.9779
4.5713 -2.4961 -1.9959 0.9779
4.7380 -2.1638 -1.9961 0.9779
4.8123 -1.9933 -1.9961 0.9779
5.0903 -1.1073 -1.9963 0.9779
5.1266 -0.9250 -1.9963 0.9779
5.1564 -0.7414 -1.9964 0.9779
5.1797 -0.5569 -1.9964 0.9779
5.1963 -0.3717 -1.9964 0.9779
-4.8556 -0.1734 -1.9885 0.9792
-4.8463 -0.3466 -1.9886 0.9792
-4.8094 -0.6915 -1.9886 0.9792
-4.7479 -1.0328 -1.9886 0.9792
-4.6623 -1.3690 -1.9887 0.9792
-4.4896 -1.8596 -1.9889 0.9792
-4.4205 -2.0188 -1.9889 0.9792
-4.2655 -2.3291 -1.9891 0.9792
-3.9925 -2.7720 -1.9893 0.9792
-3.7849 -3.0501 -1.9894 0.9792
-3.6738 -3.1834 -1.9895 0.9792
-3.4377 -3.4377 -1.9897 0.9792
-3.3129 -3.5583 -1.9898 0.9792
-2.7734 -3.9945 -1.9902 0.9792
-2.4817 -4.1826 -1.9905 0.9792
-2.3309 -4.2688 -1.9906 0.9792
-2.1772 -4.3495 -1.9907 0.9792
-1.8616 -4.4943 -1.9910 0.9792
-1.7001 -4.5582 -1.9911 0.9792
-1.3708 -4.6685 -1.9914 0.9792
-1.2034 -4.7148 -1.9915 0.9792
-0.8641 -4.7892 -1.9918 0.9792
-0.6926 -4.8173 -1.9919 0.9792
-0.5203 -4.8393 -1.9920 0.9792
-0.1737 -4.8648 -1.9923 0.9792
0.1738 -4.8654 -1.9926 0.9792
0.8646 -4.7925 -1.9931 0.9792
1.2045 -4.7192 -1.9934 0.9792
1.3723 -4.6735 -1.9935 0.9792
1.7024 -4.5643 -1.9938 0.9792
2.0239 -4.4318 -1.9940 0.9792
2.1809 -4.3570 -1.9941 0.9792
2.3352 -4.2766 -1.9942 0.9792
2.4865 -4.1908 -1.9944 0.9792
3.0583 -3.7951 -1.9948 0.9792
3.1919 -3.6837 -1.9949 0.9792
3.5679 -3.3219 -1.9952 0.9792
3.6844 -3.1925 -1.9953 0.9791
4.0050 -2.7807 -1.9955 0.9791
4.1019 -2.6361 -1.9956 0.9791
4.4358 -2.0258 -1.9958 0.9791
4.5054 -1.8662 -1.9959 0.9791
4.7656 -1.0367 -1.9961 0.9791
4.8275 -0.6941 -1.9961 0.9791
4.8493 -0.5214 -1.9961 0.9791
-1.4571 -0.0520 -0.6354 0.9937
-1.4359 -0.1544 -0.6294 0.9937
-1.4180 -0.2039 -0.6244 0.9938
-1.3722 -0.4029 -0.6233 0.9938
-1.5118 -0.5639 -0.7032 0.9930
-4.0061 -2.1875 -1.9892 0.9803
-3.9256 -2.3292 -1.9893 0.9803
-3.7497 -2.6035 -1.9895 0.9803
-3.6545 -2.7358 -1.9895 0.9803
-3.4503 -2.9897 -1.9897 0.9803
-3.2286 -3.2286 -1.9899 0.9803
-3.1114 -3.3419 -1.9900 0.9803
-2.9903 -3.4510 -1.9901 0.9803
-2.7368 -3.6559 -1.9903 0.9803
-2.6047 -3.7514 -1.9904 0.9803
-2.4692 -3.8422 -1.9905 0.9803
-2.1891 -4.0090 -1.9907 0.9803
-2.0447 -4.0848 -1.9908 0.9803
-0.8115 -4.4976 -1.9918 0.9803
-0.4886 -4.5446 -1.9920 0.9803
-0.3261 -4.5595 -1.9922 0.9803
0.0000 -4.5717 -1.9924 0.9802
0.1632 -4.5691 -1.9926 0.9802
0.3262 -4.5606 -1.9927 0.9802
0.8120 -4.5005 -1.9931 0.9802
1.1311 -4.4317 -1.9933 0.9802
1.5986 -4.2861 -1.9937 0.9802
1.7507 -4.2266 -1.9938 0.9802
2.0480 -4.0914 -1.9940 0.9802
2.3349 -3.9353 -1.9942 0.9802
2.4740 -3.8497 -1.9943 0.9802
2.7426 -3.6637 -1.9945 0.9802
2.9973 -3.4591 -1.9947 0.9802
3.2367 -3.2367 -1.9949 0.9802
3.4597 -2.9978 -1.9951 0.9802
3.6650 -2.7436 -1.9952 0.9802
3.7607 -2.6111 -1.9953 0.9802
3.8517 -2.4753 -1.9954 0.9802
4.0187 -2.1944 -1.9955 0.9802
4.1652 -1.9022 -1.9956 0.9802
4.2905 -1.6003 -1.9957 0.9802
4.3939 -1.2902 -1.9958 0.9802
4.4372 -1.1325 -1.9958 0.9802
4.5768 -0.1635 -1.9959 0.9802
-1.2362 -0.0884 -0.5737 0.9946
-1.2261 -0.1318 -0.5708 0.9946
-1.1330 -0.3327 -0.5466 0.9948
-1.2017 -0.4482 -0.5937 0.9944
-1.2345 -0.5114 -0.6185 0.9941
-3.9093 -1.7853 -1.9893 0.9812
-3.8432 -1.9238 -1.9894 0.9812
-3.7722 -2.0598 -1.9894 0.9812
-3.6964 -2.1932 -1.9895 0.9812
-3.6159 -2.3238 -1.9896 0.9812
-3.4411 -2.5760 -1.9897 0.9812
-3.3471 -2.6973 -1.9898 0.9812
-3.1464 -2.9294 -1.9899 0.9812
-2.9297 -3.1467 -1.9901 0.9812
-2.8156 -3.2494 -1.9902 0.9812
-2.6980 -3.3480 -1.9903 0.9812
-2.4525 -3.5323 -1.9905 0.9812
-2.3250 -3.6177 -1.9906 0.9812
-1.7868 -3.9126 -1.9910 0.9812
-1.6461 -3.9741 -1.9911 0.9812
-1.3586 -4.0819 -1.9914 0.9812
-1.2121 -4.1280 -1.9915 0.9812
-0.9146 -4.2045 -1.9917 0.9812
-0.6124 -4.2595 -1.9919 0.9812
-0.4600 -4.2789 -1.9921 0.9812
0.4602 -4.2805 -1.9928 0.9812
0.6127 -4.2616 -1.9929 0.9812
1.3600 -4.0863 -1.9935 0.9812
1.6482 -3.9793 -1.9937 0.9812
1.7893 -3.9181 -1.9938 0.9812
2.1983 -3.7050 -1.9941 0.9812
2.3292 -3.6243 -1.9942 0.9812
2.4572 -3.5391 -1.9943 0.9812
2.7037 -3.3551 -1.9945 0.9812
2.9364 -3.1539 -1.9947 0.9812
3.0472 -3.0472 -1.9948 0.9812
3.2571 -2.8223 -1.9949 0.9812
3.3559 -2.7044 -1.9950 0.9812
3.4504 -2.5829 -1.9951 0.9812
3.5405 -2.4582 -1.9951 0.9812
3.6261 -2.3304 -1.9952 0.9812
4.0392 -1.5066 -1.9955 0.9812
4.1773 -1.0662 -1.9956 0.9812
4.2128 -0.9164 -1.9956 0.9812
4.2428 -0.7655 -1.9957 0.9812
4.2675 -0.6136 -1.9957 0.9812
4.2867 -0.4609 -1.9957 0.9812
4.3087 -0.1539 -1.9957 0.9812
-1.0817 0.0000 -0.5306 0.9952
-1.0175 -0.2988 -0.5202 0.9953
-1.0119 -0.3774 -0.5298 0.9952
-1.0444 -0.4769 -0.5632 0.9949
-3.4124 -2.1930 -1.9897 0.9821
-3.0660 -2.6567 -1.9900 0.9821
-2.5461 -3.1595 -1.9904 0.9821
-2.3144 -3.3334 -1.9906 0.9821
-2.1941 -3.4141 -1.9907 0.9821
-2.0709 -3.4904 -1.9908 0.9821
-1.8168 -3.6296 -1.9910 0.9821
-1.6862 -3.6923 -1.9911 0.9821
-1.4187 -3.8036 -1.9913 0.9821
-1.2821 -3.8520 -1.9914 0.9821
-1.0041 -3.9341 -1.9916 0.9821
-0.8631 -3.9676 -1.9917 0.9821
-0.5779 -4.0196 -1.9920 0.9821
-0.0000 -4.0618 -1.9924 0.9821
0.2898 -4.0519 -1.9926 0.9821
0.4343 -4.0392 -1.9928 0.9821
0.5782 -4.0214 -1.9929 0.9821
0.8637 -3.9703 -1.9931 0.9821
1.0049 -3.9372 -1.9932 0.9821
1.4202 -3.8078 -1.9935 0.9821
1.5553 -3.7549 -1.9936 0.9821
1.9481 -3.5677 -1.9939 0.9821
2.0743 -3.4960 -1.9940 0.9821
2.8753 -2.8753 -1.9946 0.9820
3.0734 -2.6631 -1.9948 0.9820
3.1666 -2.5518 -1.9949 0.9820
3.3408 -2.3195 -1.9950 0.9820
3.4215 -2.1989 -1.9950 0.9820
3.7000 -1.6897 -1.9953 0.9820
3.7580 -1.5566 -1.9953 0.9820
3.8597 -1.2846 -1.9954 0.9820
3.9031 -1.1460 -1.9954 0.9820
3.9750 -0.8647 -1.9954 0.9820
4.0034 -0.7223 -1.9955 0.9820
4.0577 -0.2902 -1.9955 0.9820
-0.9895 0.0000 -0.5133 0.9956
-0.9873 -0.0706 -0.5135 0.9955
-0.9838 -0.1058 -0.5133 0.9956
-0.9785 -0.1407 -0.5129 0.9956
-0.9715 -0.1753 -0.5121 0.9956
-0.9628 -0.2094 -0.5112 0.9956
-0.9404 -0.2761 -0.5085 0.9956
-0.9208 -0.3434 -0.5098 0.9956
-0.9486 -0.5180 -0.5607 0.9951
-3.2986 -1.9572 -1.9898 0.9829
-3.2268 -2.0737 -1.9899 0.9829
-3.1508 -2.1876 -1.9899 0.9829
-2.8992 -2.5122 -1.9901 0.9829
-2.8078 -2.6141 -1.9902 0.9829
-2.7128 -2.7128 -1.9903 0.9829
-2.6143 -2.8080 -1.9903 0.9829
-2.5125 -2.8996 -1.9904 0.9829
-2.1885 -3.1520 -1.9907 0.9829
-1.9582 -3.3004 -1.9909 0.9829
-1.8393 -3.3683 -1.9910 0.9829
-1.5944 -3.4913 -1.9912 0.9829
-1.4689 -3.5462 -1.9913 0.9829
-1.3414 -3.5965 -1.9914 0.9829
-1.2123 -3.6423 -1.9915 0.9829
-0.9494 -3.7199 -1.9917 0.9828
-0.6817 -3.7785 -1.9919 0.9828
-0.4105 -3.8180 -1.9921 0.9828
-0.2740 -3.8304 -1.9922 0.9828
0.1371 -3.8383 -1.9925 0.9828
0.5467 -3.8023 -1.9928 0.9828
0.6821 -3.7806 -1.9929 0.9828
0.9501 -3.7227 -1.9931 0.9828
1.2134 -3.6458 -1.9934 0.9828
1.3428 -3.6003 -1.9935 0.9828
1.4706 -3.5503 -1.9936 0.9828
1.7202 -3.4366 -1.9937 0.9828
1.8419 -3.3732 -1.9938 0.9828
1.9612 -3.3055 -1.9939 0.9828
2.0780 -3.2335 -1.9940 0.9828
2.1922 -3.1574 -1.9941 0.9828
2.5175 -2.9053 -1.9944 0.9828
2.6197 -2.8138 -1.9944 0.9828
2.8139 -2.6199 -1.9946 0.9828
2.9939 -2.4126 -1.9947 0.9828
3.0782 -2.3043 -1.9948 0.9828
3.3072 -1.9622 -1.9950 0.9828
3.3752 -1.8430 -1.9950 0.9828
3.4389 -1.7214 -1.9950 0.9828
3.5531 -1.4717 -1.9951 0.9828
3.6034 -1.3440 -1.9952 0.9828
3.6902 -1.0836 -1.9952 0.9828
3.8070 -0.5474 -1.9953 0.9828
3.8241 -0.4111 -1.9953 0.9828
3.8364 -0.2744 -1.9953 0.9828
3.8437 -0.1373 -1.9953 0.9828
-0.9179 -0.0328 -0.5031 0.9958
-0.9127 -0.0981 -0.5028 0.9958
-0.9077 -0.1305 -0.5022 0.9958
-0.9011 -0.1626 -0.5015 0.9958
-0.8837 -0.2255 -0.4995 0.9958
-0.8603 -0.2863 -0.4966 0.9959
-0.8479 -0.3512 -0.5027 0.9958
-0.8506 -0.3885 -0.5122 0.9957
-0.8507 -0.4645 -0.5309 0.9956
-0.8524 -0.5057 -0.5429 0.9955
-3.0566 -1.9643 -1.9900 0.9836
-2.7462 -2.3796 -1.9902 0.9836
-2.6596 -2.4762 -1.9903 0.9836
-2.5697 -2.5697 -1.9904 0.9836
-2.4764 -2.6598 -1.9905 0.9836
-2.2805 -2.8300 -1.9906 0.9836
-2.1781 -2.9097 -1.9907 0.9836
-2.0730 -2.9857 -1.9908 0.9836
-1.8549 -3.1262 -1.9909 0.9836
-1.6273 -3.2509 -1.9911 0.9836
-1.5103 -3.3070 -1.9912 0.9836
-1.3913 -3.3590 -1.9913 0.9836
-1.2706 -3.4067 -1.9914 0.9836
-1.0245 -3.4890 -1.9916 0.9836
-0.8993 -3.5235 -1.9917 0.9836
-0.3888 -3.6164 -1.9921 0.9835
0.2595 -3.6289 -1.9926 0.9835
0.6460 -3.5809 -1.9929 0.9835
1.0253 -3.4918 -1.9932 0.9835
1.1493 -3.4531 -1.9933 0.9835
1.2719 -3.4101 -1.9934 0.9835
1.3928 -3.3627 -1.9935 0.9835
1.5121 -3.3110 -1.9936 0.9835
1.6293 -3.2550 -1.9937 0.9835
1.7446 -3.1949 -1.9938 0.9835
1.9682 -3.0626 -1.9939 0.9835
2.3844 -2.7518 -1.9942 0.9835
2.4812 -2.6650 -1.9943 0.9835
2.5748 -2.5748 -1.9944 0.9835
2.6652 -2.4814 -1.9945 0.9835
2.7521 -2.3848 -1.9945 0.9835
2.8356 -2.2851 -1.9946 0.9835
3.0639 -1.9690 -1.9948 0.9835
3.1323 -1.8585 -1.9948 0.9835
3.3652 -1.3939 -1.9950 0.9835
3.4128 -1.2729 -1.9950 0.9835
3.5295 -0.9009 -1.9951 0.9835
3.5595 -0.7743 -1.9951 0.9835
3.6219 -0.3894 -1.9952 0.9835
3.6335 -0.2599 -1.9952 0.9835
3.6405 -0.1300 -1.9952 0.9835
-0.8550 0.0000 -0.4936 0.9961
-0.8548 -0.0305 -0.4938 0.9961
-0.8499 -0.0914 -0.4935 0.9961
-0.8128 -0.2387 -0.4891 0.9961
-0.8014 -0.2667 -0.4876 0.9961
-0.7887 -0.2942 -0.4860 0.9961
-0.7809 -0.3566 -0.4957 0.9960
-0.7806 -0.3908 -0.5040 0.9960
-0.7787 -0.4252 -0.5122 0.9959
-0.7750 -0.4599 -0.5203 0.9958
-0.7696 -0.4946 -0.5282 0.9958
-2.7596 -2.0658 -1.9902 0.9842
-2.6842 -2.1630 -1.9903 0.9842
-2.3494 -2.5234 -1.9905 0.9842
-2.2579 -2.6057 -1.9906 0.9842
-2.0664 -2.7604 -1.9908 0.9842
-1.9666 -2.8325 -1.9909 0.9842
-1.8644 -2.9010 -1.9909 0.9842
-1.6528 -3.0268 -1.9911 0.9842
-1.5438 -3.0840 -1.9912 0.9842
-1.4328 -3.1373 -1.9913 0.9842
-1.3199 -3.1866 -1.9914 0.9842
-1.0893 -3.2729 -1.9915 0.9842
-0.8532 -3.3426 -1.9917 0.9842
-0.7333 -3.3711 -1.9918 0.9842
-0.2462 -3.4418 -1.9922 0.9842
-0.1232 -3.4486 -1.9923 0.9842
0.2462 -3.4425 -1.9926 0.9842
0.7338 -3.3731 -1.9930 0.9842
0.8537 -3.3449 -1.9931 0.9842
1.0903 -3.2757 -1.9932 0.9842
1.2065 -3.2349 -1.9933 0.9842
1.3213 -3.1899 -1.9934 0.9842
1.4344 -3.1408 -1.9935 0.9842
1.6549 -3.0308 -1.9937 0.9842
1.7621 -2.9699 -1.9938 0.9842
1.9696 -2.8369 -1.9939 0.9842
2.0697 -2.7648 -1.9940 0.9842
2.2619 -2.6103 -1.9941 0.9842
2.4425 -2.4425 -1.9943 0.9842
2.5282 -2.3538 -1.9944 0.9842
2.6107 -2.2622 -1.9944 0.9842
2.6898 -2.1676 -1.9945 0.9842
2.8378 -1.9703 -1.9946 0.9842
3.1922 -1.3222 -1.9948 0.9842
3.2374 -1.2075 -1.9949 0.9842
3.2785 -1.0912 -1.9949 0.9842
3.3154 -0.9735 -1.9949 0.9842
3.3480 -0.8545 -1.9950 0.9842
3.3764 -0.7345 -1.9950 0.9842
3.4005 -0.6135 -1.9950 0.9842
3.4203 -0.4918 -1.9950 0.9842
3.4357 -0.3694 -1.9950 0.9842
3.4467 -0.2465 -1.9950 0.9842
3.4533 -0.1233 -1.9950 0.9842
