ply
format ascii 1.0
element vertex 746
property float32 x
property float32 y
property float32 z
property float32 I
end_header
-9.5447 -1.0262 -2.0292 0.9615
-9.4456 -1.7042 -2.0288 0.9615
-9.2976 -2.3731 -2.0283 0.9615
-9.2055 -2.7030 -2.0280 0.9615
-9.1015 -3.0293 -2.0276 0.9615
-8.8585 -3.6693 -2.0268 0.9616
-8.5698 -4.2897 -2.0258 0.9616
-8.2371 -4.8873 -2.0246 0.9616
-8.0549 -5.1765 -2.0239 0.9616
-7.8623 -5.4589 -2.0232 0.9616
-7.6597 -5.7340 -2.0225 0.9616
-7.4474 -6.0015 -2.0218 0.9617
-7.2256 -6.2610 -2.0210 0.9617
-6.7549 -6.7549 -2.0193 0.9617
-6.5066 -6.9886 -2.0184 0.9617
-5.7143 -7.6333 -2.0156 0.9618
-3.9486 -8.6463 -2.0092 0.9619
-3.6354 -8.7768 -2.0081 0.9619
-3.3180 -8.8959 -2.0070 0.9619
-2.9966 -9.0035 -2.0058 0.9619
-2.6718 -9.0994 -2.0046 0.9620
-2.3440 -9.1836 -2.0034 0.9620
-1.3464 -9.3647 -1.9999 0.9621
-1.0107 -9.4011 -1.9987 0.9621
-0.6741 -9.4254 -1.9974 0.9621
-0.0000 -9.4380 -1.9950 0.9621
0.3367 -9.4263 -1.9938 0.9622
0.6725 -9.4025 -1.9926 0.9622
1.3399 -9.3193 -1.9902 0.9622
1.9989 -9.1890 -1.9878 0.9623
2.9645 -8.9070 -1.9843 0.9623
3.5883 -8.6630 -1.9821 0.9624
4.1926 -8.3757 -1.9799 0.9624
4.4864 -8.2163 -1.9788 0.9625
4.7743 -8.0467 -1.9778 0.9625
6.5939 -6.5939 -1.9712 0.9626
6.8222 -6.3517 -1.9703 0.9626
7.2522 -5.8442 -1.9688 0.9626
7.6451 -5.3081 -1.9673 0.9627
7.8270 -5.0301 -1.9667 0.9627
7.9990 -4.7460 -1.9661 0.9627
8.1609 -4.4562 -1.9655 0.9627
8.3124 -4.1609 -1.9649 0.9627
8.4534 -3.8605 -1.9644 0.9627
8.7032 -3.2461 -1.9635 0.9627
8.8117 -2.9328 -1.9631 0.9627
8.9954 -2.2959 -1.9624 0.9628
9.2265 -0.9920 -1.9615 0.9628
9.2729 -0.3312 -1.9613 0.9628
-8.6141 -0.3077 -2.0258 0.9652
-8.5974 -0.6149 -2.0258 0.9652
-8.5696 -0.9213 -2.0257 0.9652
-8.5307 -1.2265 -2.0255 0.9652
-7.9545 -3.2948 -2.0235 0.9652
-7.8301 -3.5759 -2.0231 0.9652
-6.8795 -5.1499 -2.0197 0.9653
-6.4901 -5.6237 -2.0183 0.9653
-6.2830 -5.8496 -2.0176 0.9653
-6.0679 -6.0678 -2.0168 0.9654
-5.8451 -6.2781 -2.0160 0.9654
-5.6150 -6.4800 -2.0152 0.9654
-5.3779 -6.6735 -2.0143 0.9654
-5.1340 -6.8583 -2.0134 0.9654
-4.8838 -7.0340 -2.0125 0.9654
-4.0982 -7.5052 -2.0097 0.9655
-3.8258 -7.6430 -2.0087 0.9655
-2.9824 -7.9960 -2.0057 0.9655
-2.4019 -8.1799 -2.0036 0.9656
-1.8102 -8.3216 -2.0015 0.9656
-1.2107 -8.4204 -1.9993 0.9656
-0.3031 -8.4877 -1.9961 0.9657
-0.0000 -8.4885 -1.9950 0.9657
0.6049 -8.4576 -1.9928 0.9658
0.9059 -8.4260 -1.9917 0.9658
1.2054 -8.3837 -1.9906 0.9658
1.7985 -8.2675 -1.9885 0.9658
2.3812 -8.1095 -1.9864 0.9659
2.6677 -8.0152 -1.9854 0.9659
2.9506 -7.9108 -1.9843 0.9659
3.2294 -7.7965 -1.9833 0.9659
3.7736 -7.5387 -1.9814 0.9660
5.0405 -6.7333 -1.9768 0.9660
5.2753 -6.5463 -1.9759 0.9660
5.9377 -5.9377 -1.9735 0.9661
6.3414 -5.4949 -1.9721 0.9661
6.5312 -5.2632 -1.9714 0.9661
6.7126 -5.0250 -1.9707 0.9661
7.0496 -4.5305 -1.9695 0.9662
7.3508 -4.0138 -1.9684 0.9662
7.4874 -3.7480 -1.9679 0.9662
7.6146 -3.4775 -1.9674 0.9662
7.7322 -3.2028 -1.9670 0.9662
7.8400 -2.9242 -1.9666 0.9662
7.9379 -2.6420 -1.9662 0.9662
8.1713 -1.7775 -1.9654 0.9662
8.2756 -1.1899 -1.9650 0.9662
8.3122 -0.8937 -1.9648 0.9662
-7.8130 0.0000 -2.0229 0.9682
-7.7928 -0.5574 -2.0229 0.9682
-7.7676 -0.8351 -2.0228 0.9682
-7.6872 -1.3869 -2.0225 0.9682
-7.5671 -1.9314 -2.0221 0.9682
-7.4080 -2.4656 -2.0215 0.9683
-7.2108 -2.9868 -2.0208 0.9683
-6.9764 -3.4922 -2.0200 0.9683
-6.7064 -3.9791 -2.0190 0.9683
-6.5583 -4.2148 -2.0185 0.9683
-6.4020 -4.4450 -2.0179 0.9683
-5.8848 -5.0992 -2.0161 0.9683
-5.5023 -5.5022 -2.0147 0.9684
-5.0920 -5.8765 -2.0133 0.9684
-4.8771 -6.0522 -2.0125 0.9684
-4.6562 -6.2199 -2.0117 0.9684
-3.9597 -6.6737 -2.0092 0.9684
-3.2194 -7.0494 -2.0065 0.9685
-2.9643 -7.1566 -2.0056 0.9685
-2.1793 -7.4220 -2.0028 0.9685
-1.9121 -7.4914 -2.0018 0.9686
-1.6427 -7.5512 -2.0009 0.9686
-1.3714 -7.6013 -1.9999 0.9686
-1.0987 -7.6417 -1.9989 0.9686
-0.5502 -7.6930 -1.9969 0.9686
-0.0000 -7.7050 -1.9950 0.9687
1.3647 -7.5639 -1.9900 0.9687
1.6330 -7.5067 -1.9891 0.9688
2.1623 -7.3640 -1.9872 0.9688
2.6796 -7.1842 -1.9853 0.9688
2.9329 -7.0807 -1.9844 0.9688
3.1823 -6.9684 -1.9835 0.9688
4.1345 -6.4333 -1.9800 0.9689
4.3596 -6.2791 -1.9792 0.9689
4.5791 -6.1170 -1.9784 0.9689
4.7927 -5.9474 -1.9776 0.9689
5.0000 -5.7703 -1.9769 0.9689
5.7622 -4.9930 -1.9741 0.9690
5.9349 -4.7826 -1.9735 0.9690
6.0999 -4.5663 -1.9729 0.9690
6.2572 -4.3445 -1.9723 0.9690
6.5477 -3.8849 -1.9713 0.9690
6.6805 -3.6478 -1.9708 0.9690
7.3657 -1.8800 -1.9683 0.9691
7.5223 -1.0815 -1.9677 0.9691
7.5937 -0.2712 -1.9674 0.9691
-7.1326 -0.2547 -2.0205 0.9708
-7.0637 -1.0156 -2.0202 0.9708
-7.0224 -1.2670 -2.0201 0.9708
-6.9128 -1.7644 -2.0197 0.9708
-6.8447 -2.0098 -2.0195 0.9708
-6.7677 -2.2525 -2.0192 0.9708
-6.6819 -2.4922 -2.0189 0.9708
-6.5876 -2.7287 -2.0186 0.9708
-6.4849 -2.9615 -2.0182 0.9708
-6.2546 -3.4152 -2.0174 0.9708
-6.1273 -3.6355 -2.0169 0.9708
-5.8495 -4.0614 -2.0159 0.9708
-5.6993 -4.2664 -2.0154 0.9708
-5.3773 -4.6594 -2.0143 0.9709
-5.0281 -5.0281 -2.0130 0.9709
-4.8438 -5.2026 -2.0124 0.9709
-4.6535 -5.3704 -2.0117 0.9709
-4.4573 -5.5311 -2.0110 0.9709
-4.0484 -5.8308 -2.0095 0.9709
-3.1724 -6.3376 -2.0064 0.9710
-2.7099 -6.5424 -2.0047 0.9710
-2.4737 -6.6321 -2.0038 0.9710
-1.5020 -6.9046 -2.0004 0.9711
-1.2541 -6.9507 -1.9995 0.9711
-1.0047 -6.9879 -1.9986 0.9711
-0.7543 -7.0161 -1.9977 0.9711
-0.5032 -7.0354 -1.9968 0.9711
0.2514 -7.0393 -1.9940 0.9711
0.5023 -7.0226 -1.9931 0.9712
1.2484 -6.9194 -1.9904 0.9712
1.4939 -6.8673 -1.9896 0.9712
1.7373 -6.8066 -1.9887 0.9712
1.9782 -6.7373 -1.9878 0.9712
2.2165 -6.6595 -1.9869 0.9712
2.9120 -6.3764 -1.9844 0.9713
3.1364 -6.2658 -1.9836 0.9713
3.7838 -5.8877 -1.9813 0.9713
3.9900 -5.7467 -1.9805 0.9713
4.1910 -5.5986 -1.9798 0.9713
4.7605 -5.1131 -1.9777 0.9714
5.1099 -4.7575 -1.9765 0.9714
5.2748 -4.5706 -1.9759 0.9714
5.4330 -4.3782 -1.9753 0.9714
5.7284 -3.9773 -1.9742 0.9714
6.1163 -3.3398 -1.9728 0.9714
6.3364 -2.8937 -1.9720 0.9715
6.4345 -2.6652 -1.9716 0.9715
6.5244 -2.4335 -1.9713 0.9715
6.6795 -1.9613 -1.9707 0.9715
6.7444 -1.7214 -1.9705 0.9715
6.8008 -1.4794 -1.9703 0.9715
6.9184 -0.7438 -1.9698 0.9715
6.9403 -0.4964 -1.9698 0.9715
6.9534 -0.2483 -1.9697 0.9715
-6.5580 -0.2342 -2.0184 0.9729
-6.5454 -0.4681 -2.0184 0.9729
-6.5243 -0.7014 -2.0183 0.9729
-6.4947 -0.9338 -2.0182 0.9729
-6.4569 -1.1650 -2.0181 0.9729
-6.3562 -1.6223 -2.0177 0.9729
-6.2936 -1.8479 -2.0175 0.9729
-6.2228 -2.0711 -2.0172 0.9729
-6.1441 -2.2916 -2.0170 0.9729
-5.9631 -2.7232 -2.0163 0.9729
-5.8610 -2.9338 -2.0160 0.9729
-5.6345 -3.3431 -2.0152 0.9730
-5.5104 -3.5413 -2.0147 0.9730
-5.3793 -3.7349 -2.0142 0.9730
-5.0965 -4.1071 -2.0132 0.9730
-4.2801 -4.9395 -2.0103 0.9730
-4.0998 -5.0875 -2.0097 0.9730
-3.7239 -5.3634 -2.0083 0.9730
-3.5289 -5.4910 -2.0076 0.9731
-3.1259 -5.7246 -2.0062 0.9731
-2.9185 -5.8304 -2.0054 0.9731
-2.2759 -6.1019 -2.0031 0.9731
-1.3821 -6.3535 -1.9999 0.9732
-1.1540 -6.3962 -1.9991 0.9732
-0.9246 -6.4306 -1.9983 0.9732
-0.4631 -6.4748 -1.9966 0.9732
0.2314 -6.4791 -1.9941 0.9732
0.6924 -6.4407 -1.9924 0.9733
0.9215 -6.4092 -1.9916 0.9733
1.1492 -6.3696 -1.9908 0.9733
1.5994 -6.2663 -1.9892 0.9733
1.8213 -6.2027 -1.9884 0.9733
2.0407 -6.1313 -1.9876 0.9733
2.2573 -6.0522 -1.9868 0.9733
2.4709 -5.9654 -1.9860 0.9733
2.6813 -5.8712 -1.9853 0.9734
3.0910 -5.6607 -1.9838 0.9734
3.2899 -5.5448 -1.9830 0.9734
3.6745 -5.2922 -1.9817 0.9734
4.0399 -5.0132 -1.9803 0.9734
4.5484 -4.5484 -1.9785 0.9734
4.7065 -4.3819 -1.9779 0.9734
4.8586 -4.2100 -1.9774 0.9735
5.0044 -4.0328 -1.9768 0.9735
5.1438 -3.8506 -1.9763 0.9735
5.2767 -3.6637 -1.9758 0.9735
5.4028 -3.4722 -1.9754 0.9735
5.7395 -2.8730 -1.9742 0.9735
5.8373 -2.6658 -1.9738 0.9735
6.0106 -2.2418 -1.9732 0.9735
6.0860 -2.0256 -1.9729 0.9735
6.2135 -1.5859 -1.9724 0.9735
6.2655 -1.3630 -1.9722 0.9735
6.3458 -0.9124 -1.9719 0.9735
6.3740 -0.6853 -1.9718 0.9735
6.3941 -0.4573 -1.9717 0.9735
-6.0668 0.0000 -2.0166 0.9748
-6.0512 -0.4328 -2.0166 0.9748
-6.0044 -0.8633 -2.0164 0.9748
-5.9267 -1.2893 -2.0162 0.9748
-5.6805 -2.1187 -2.0153 0.9748
-5.5132 -2.5178 -2.0147 0.9748
-5.3177 -2.9037 -2.0140 0.9748
-5.2097 -3.0911 -2.0136 0.9748
-5.0950 -3.2744 -2.0132 0.9748
-4.9739 -3.4534 -2.0128 0.9748
-4.8463 -3.6279 -2.0123 0.9748
-4.5729 -3.9625 -2.0113 0.9748
-4.4275 -4.1221 -2.0108 0.9748
-4.1199 -4.4250 -2.0097 0.9748
-3.0794 -5.1900 -2.0060 0.9749
-2.8912 -5.2948 -2.0053 0.9749
-2.5044 -5.4838 -2.0039 0.9749
-2.3062 -5.5677 -2.0032 0.9749
-2.1053 -5.6444 -2.0025 0.9749
-1.9018 -5.7139 -2.0018 0.9749
-1.6960 -5.7760 -2.0010 0.9749
-1.4882 -5.8307 -2.0003 0.9750
-1.2787 -5.8778 -1.9995 0.9750
-0.6423 -5.9740 -1.9972 0.9750
-0.2143 -6.0000 -1.9957 0.9750
0.2141 -5.9953 -1.9941 0.9750
0.6408 -5.9602 -1.9926 0.9750
1.2728 -5.8508 -1.9903 0.9751
1.4802 -5.7995 -1.9896 0.9751
1.8888 -5.6749 -1.9881 0.9751
2.8613 -5.2401 -1.9846 0.9751
3.2257 -5.0192 -1.9833 0.9752
3.4017 -4.8994 -1.9826 0.9752
4.2113 -4.2113 -1.9797 0.9752
4.3577 -4.0572 -1.9792 0.9752
4.8860 -3.3924 -1.9772 0.9752
5.0029 -3.2152 -1.9768 0.9752
5.4894 -2.2738 -1.9750 0.9753
5.6360 -1.8758 -1.9745 0.9753
5.7542 -1.4687 -1.9741 0.9753
5.8025 -1.2623 -1.9739 0.9753
5.8434 -1.0543 -1.9737 0.9753
5.8769 -0.8450 -1.9736 0.9753
5.9217 -0.4235 -1.9734 0.9753
5.9329 -0.2119 -1.9734 0.9753
-5.6204 -0.4020 -2.0150 0.9763
-5.6023 -0.6023 -2.0150 0.9763
-5.5770 -0.8018 -2.0149 0.9763
-5.5445 -1.0003 -2.0148 0.9764
-5.5049 -1.1975 -2.0146 0.9764
-5.2020 -2.1547 -2.0136 0.9764
-5.1211 -2.3387 -2.0133 0.9764
-4.9396 -2.6972 -2.0126 0.9764
-4.3779 -3.5279 -2.0106 0.9764
-4.2482 -3.6811 -2.0102 0.9764
-4.1131 -3.8294 -2.0097 0.9764
-3.9728 -3.9728 -2.0092 0.9764
-3.6773 -4.2439 -2.0081 0.9764
-3.5225 -4.3712 -2.0076 0.9764
-3.0324 -4.7186 -2.0058 0.9765
-2.8612 -4.8223 -2.0052 0.9765
-2.3271 -5.0957 -2.0033 0.9765
-2.1430 -5.1738 -2.0026 0.9765
-1.9564 -5.2452 -2.0019 0.9765
-1.5761 -5.3677 -2.0006 0.9765
-1.3830 -5.4187 -1.9999 0.9765
-1.1883 -5.4627 -1.9992 0.9765
-0.1992 -5.5769 -1.9956 0.9766
-0.0000 -5.5785 -1.9949 0.9766
0.1990 -5.5729 -1.9942 0.9766
0.3977 -5.5603 -1.9935 0.9766
0.5957 -5.5406 -1.9928 0.9766
0.7928 -5.5138 -1.9920 0.9766
1.1833 -5.4393 -1.9906 0.9766
1.3762 -5.3917 -1.9899 0.9766
1.5672 -5.3373 -1.9893 0.9766
2.1266 -5.1340 -1.9872 0.9767
2.3077 -5.0532 -1.9866 0.9767
2.4858 -4.9660 -1.9859 0.9767
2.6606 -4.8725 -1.9853 0.9767
3.3229 -4.4389 -1.9829 0.9767
3.4783 -4.3163 -1.9823 0.9767
3.6291 -4.1882 -1.9818 0.9767
4.4299 -3.3162 -1.9789 0.9768
4.5445 -3.1553 -1.9785 0.9768
4.6533 -2.9905 -1.9781 0.9768
4.8530 -2.6499 -1.9773 0.9768
4.9437 -2.4746 -1.9770 0.9768
5.1061 -2.1150 -1.9764 0.9768
5.1776 -1.9311 -1.9762 0.9768
5.2426 -1.7449 -1.9759 0.9768
5.3010 -1.5565 -1.9757 0.9768
5.3526 -1.3662 -1.9755 0.9768
5.3975 -1.1742 -1.9753 0.9768
5.4356 -0.9807 -1.9752 0.9768
5.4911 -0.5904 -1.9750 0.9768
5.5189 -0.1971 -1.9749 0.9768
-5.2547 0.0000 -2.0137 0.9777
-5.2513 -0.1875 -2.0137 0.9777
-5.2243 -0.5617 -2.0136 0.9777
-5.1336 -1.1167 -2.0133 0.9777
-5.0400 -1.4799 -2.0130 0.9778
-4.9835 -1.6586 -2.0128 0.9778
-4.6067 -2.5155 -2.0114 0.9778
-4.5133 -2.6778 -2.0111 0.9778
-4.4140 -2.8367 -2.0107 0.9778
-4.3092 -2.9919 -2.0104 0.9778
-4.1988 -3.1432 -2.0100 0.9778
-3.9622 -3.4333 -2.0091 0.9778
-3.8363 -3.5717 -2.0087 0.9778
-3.5700 -3.8345 -2.0077 0.9778
-2.9849 -4.2990 -2.0056 0.9778
-2.8287 -4.4016 -2.0051 0.9778
-2.6691 -4.4985 -2.0045 0.9778
-1.6488 -4.9539 -2.0008 0.9779
-1.4705 -5.0080 -2.0002 0.9779
-1.1088 -5.0968 -1.9989 0.9779
-0.9258 -5.1315 -1.9982 0.9779
-0.1859 -5.2041 -1.9956 0.9779
-0.0000 -5.2056 -1.9949 0.9779
0.1857 -5.2006 -1.9942 0.9780
0.3711 -5.1889 -1.9936 0.9780
0.5559 -5.1706 -1.9929 0.9780
0.7398 -5.1458 -1.9922 0.9780
1.1043 -5.0765 -1.9909 0.9780
1.4627 -4.9815 -1.9896 0.9780
2.3203 -4.6355 -1.9865 0.9780
2.4836 -4.5483 -1.9859 0.9780
2.6436 -4.4555 -1.9853 0.9781
2.8001 -4.3571 -1.9848 0.9781
2.9530 -4.2532 -1.9842 0.9781
3.1021 -4.1439 -1.9837 0.9781
3.2472 -4.0295 -1.9832 0.9781
3.5246 -3.7857 -1.9822 0.9781
3.6565 -3.6566 -1.9817 0.9781
3.7838 -3.5229 -1.9812 0.9781
3.9063 -3.3848 -1.9808 0.9781
4.1361 -3.0962 -1.9799 0.9781
4.2431 -2.9460 -1.9795 0.9781
4.4409 -2.6349 -1.9788 0.9781
4.5313 -2.4743 -1.9785 0.9781
4.6160 -2.3106 -1.9782 0.9781
4.6949 -2.1441 -1.9779 0.9781
4.8346 -1.8032 -1.9774 0.9781
4.9499 -1.4534 -1.9770 0.9781
5.0401 -1.0964 -1.9766 0.9781
5.1275 -0.5513 -1.9763 0.9782
5.1535 -0.1841 -1.9762 0.9782
-4.9172 0.0000 -2.0125 0.9790
-4.9140 -0.1755 -2.0125 0.9790
-4.8667 -0.6997 -2.0123 0.9790
-4.8384 -0.8730 -2.0122 0.9790
-4.8039 -1.0450 -2.0121 0.9790
-4.7632 -1.2157 -2.0120 0.9790
-4.6047 -1.7174 -2.0114 0.9790
-4.3931 -2.1990 -2.0106 0.9790
-4.0328 -2.8000 -2.0094 0.9790
-3.5905 -3.3428 -2.0078 0.9790
-3.4681 -3.4681 -2.0073 0.9790
-3.3414 -3.5889 -2.0069 0.9790
-3.2104 -3.7050 -2.0064 0.9790
-3.0754 -3.8163 -2.0059 0.9790
-2.9365 -3.9227 -2.0054 0.9790
-2.7939 -4.0239 -2.0049 0.9790
-2.4984 -4.2108 -2.0039 0.9791
-2.3458 -4.2961 -2.0033 0.9791
-2.1904 -4.3759 -2.0028 0.9791
-2.0322 -4.4500 -2.0022 0.9791
-1.5436 -4.6376 -2.0004 0.9791
-1.3766 -4.6884 -1.9998 0.9791
-1.0380 -4.7717 -1.9986 0.9791
-0.8668 -4.8042 -1.9980 0.9791
-0.6945 -4.8306 -1.9974 0.9791
-0.0000 -4.8742 -1.9949 0.9792
0.1739 -4.8696 -1.9943 0.9792
0.3475 -4.8587 -1.9936 0.9792
0.6928 -4.8185 -1.9924 0.9792
0.8641 -4.7893 -1.9918 0.9792
1.0341 -4.7539 -1.9912 0.9792
1.3698 -4.6652 -1.9899 0.9792
1.5350 -4.6119 -1.9893 0.9792
2.0174 -4.4175 -1.9876 0.9792
2.1732 -4.3415 -1.9870 0.9792
2.9056 -3.8815 -1.9844 0.9793
3.0416 -3.7744 -1.9839 0.9793
3.5445 -3.3000 -1.9821 0.9793
3.6592 -3.1708 -1.9817 0.9793
3.8746 -2.9005 -1.9809 0.9793
4.2450 -2.3180 -1.9795 0.9793
4.3983 -2.0086 -1.9790 0.9793
4.4667 -1.8501 -1.9787 0.9793
4.6826 -1.1952 -1.9779 0.9793
4.7553 -0.8580 -1.9776 0.9793
4.7826 -0.6876 -1.9775 0.9793
4.8192 -0.3447 -1.9774 0.9793
4.8283 -0.1724 -1.9774 0.9793
-1.4571 -0.0520 -0.6354 0.9937
-1.4490 -0.1036 -0.6331 0.9937
-1.4359 -0.1544 -0.6294 0.9937
-1.4180 -0.2039 -0.6244 0.9938
-1.3688 -0.2978 -0.6105 0.9939
-1.3400 -0.3420 -0.6027 0.9940
-1.3722 -0.4029 -0.6233 0.9938
-1.5118 -0.5639 -0.7032 0.9930
-4.2613 -1.7651 -2.0102 0.9801
-4.1951 -1.9158 -2.0099 0.9801
-4.1235 -2.0641 -2.0097 0.9801
-3.9647 -2.3523 -2.0091 0.9801
-3.7855 -2.6283 -2.0085 0.9801
-3.6887 -2.7613 -2.0081 0.9801
-3.5871 -2.8907 -2.0078 0.9801
-3.4810 -3.0163 -2.0074 0.9801
-3.1367 -3.3690 -2.0062 0.9801
-3.0138 -3.4781 -2.0057 0.9801
-2.4858 -3.8680 -2.0038 0.9801
-2.2024 -4.0334 -2.0028 0.9801
-2.0565 -4.1084 -2.0023 0.9802
-1.9080 -4.1780 -2.0017 0.9802
-1.7572 -4.2423 -2.0012 0.9802
-1.2926 -4.4022 -1.9995 0.9802
-1.1343 -4.4442 -1.9990 0.9802
-0.9747 -4.4806 -1.9984 0.9802
-0.8139 -4.5112 -1.9978 0.9802
-0.3267 -4.5684 -1.9961 0.9802
-0.0000 -4.5773 -1.9949 0.9802
0.1633 -4.5731 -1.9943 0.9802
0.4889 -4.5471 -1.9931 0.9802
0.6506 -4.5254 -1.9925 0.9802
0.8115 -4.4980 -1.9920 0.9803
1.2866 -4.3817 -1.9902 0.9803
1.4417 -4.3318 -1.9897 0.9803
1.5950 -4.2764 -1.9891 0.9803
1.8950 -4.1494 -1.9880 0.9803
2.0413 -4.0781 -1.9875 0.9803
2.4637 -3.8335 -1.9860 0.9803
2.7295 -3.6462 -1.9850 0.9803
3.2178 -3.2178 -1.9832 0.9803
3.3299 -3.1003 -1.9828 0.9803
3.4378 -2.9788 -1.9824 0.9803
3.5412 -2.8537 -1.9821 0.9804
3.8240 -2.4575 -1.9810 0.9804
3.9087 -2.3191 -1.9807 0.9804
3.9884 -2.1778 -1.9804 0.9804
4.0630 -2.0338 -1.9802 0.9804
4.1325 -1.8872 -1.9799 0.9804
4.3572 -1.2794 -1.9791 0.9804
4.4367 -0.9652 -1.9788 0.9804
4.4680 -0.8061 -1.9787 0.9804
4.4937 -0.6461 -1.9786 0.9804
4.5281 -0.3239 -1.9784 0.9804
-1.2424 -0.0444 -0.5755 0.9945
-1.2362 -0.0884 -0.5737 0.9946
-1.1790 -0.2565 -0.5585 0.9947
-1.2017 -0.4482 -0.5937 0.9944
-3.9480 -1.8030 -2.0090 0.9811
-3.7312 -2.2138 -2.0083 0.9811
-3.2762 -2.8389 -2.0066 0.9811
-3.0642 -3.0642 -2.0059 0.9811
-2.9523 -3.1710 -2.0055 0.9811
-2.8366 -3.2737 -2.0051 0.9811
-2.5948 -3.4662 -2.0042 0.9811
-2.4688 -3.5558 -2.0037 0.9811
-2.3398 -3.6408 -2.0033 0.9811
-2.2078 -3.7211 -2.0028 0.9811
-2.0731 -3.7966 -2.0023 0.9811
-1.9358 -3.8673 -2.0018 0.9811
-1.5102 -4.0489 -2.0003 0.9811
-1.2168 -4.1442 -1.9993 0.9811
-0.7663 -4.2471 -1.9976 0.9812
-0.6140 -4.2705 -1.9971 0.9812
-0.4611 -4.2885 -1.9965 0.9812
0.0000 -4.3097 -1.9949 0.9812
0.1538 -4.3057 -1.9943 0.9812
0.3073 -4.2963 -1.9938 0.9812
0.4603 -4.2814 -1.9932 0.9812
0.9146 -4.2042 -1.9916 0.9812
1.0637 -4.1678 -1.9910 0.9812
1.5020 -4.0270 -1.9895 0.9812
1.7845 -3.9075 -1.9884 0.9812
2.4470 -3.5243 -1.9860 0.9813
2.5706 -3.4340 -1.9856 0.9813
2.6910 -3.3393 -1.9851 0.9813
2.8079 -3.2404 -1.9847 0.9813
2.9211 -3.1375 -1.9843 0.9813
3.3354 -2.6878 -1.9828 0.9813
3.4286 -2.5666 -1.9825 0.9813
3.6018 -2.3147 -1.9818 0.9813
3.7567 -2.0513 -1.9813 0.9813
3.8925 -1.7776 -1.9808 0.9813
4.0085 -1.4951 -1.9804 0.9813
4.0590 -1.3510 -1.9802 0.9813
4.1042 -1.2051 -1.9800 0.9813
4.1792 -0.9091 -1.9797 0.9813
4.2734 -0.1526 -1.9794 0.9813
-1.0817 0.0000 -0.5306 0.9952
-1.0422 -0.2267 -0.5232 0.9953
-1.0307 -0.2631 -0.5218 0.9953
-1.0290 -0.4262 -0.5463 0.9951
-1.0444 -0.4769 -0.5632 0.9949
-1.0589 -0.5300 -0.5808 0.9947
-3.5924 -1.9616 -2.0078 0.9819
-3.5197 -2.0883 -2.0075 0.9819
-3.4424 -2.2123 -2.0072 0.9819
-3.0906 -2.6780 -2.0060 0.9819
-2.9925 -2.7861 -2.0056 0.9819
-2.8906 -2.8906 -2.0053 0.9820
-2.6760 -3.0883 -2.0045 0.9820
-2.4479 -3.2700 -2.0037 0.9820
-2.2074 -3.4348 -2.0028 0.9820
-1.8264 -3.6486 -2.0014 0.9820
-1.2873 -3.8677 -1.9995 0.9820
-1.1481 -3.9102 -1.9990 0.9820
-0.8658 -3.9801 -1.9980 0.9820
-0.5794 -4.0296 -1.9970 0.9820
-0.4351 -4.0467 -1.9964 0.9820
-0.2903 -4.0586 -1.9959 0.9820
-0.1452 -4.0653 -1.9954 0.9820
-0.0000 -4.0668 -1.9949 0.9820
0.1451 -4.0632 -1.9943 0.9820
0.7211 -3.9970 -1.9923 0.9821
0.8631 -3.9677 -1.9918 0.9821
1.0039 -3.9333 -1.9912 0.9821
1.1434 -3.8940 -1.9907 0.9821
1.2813 -3.8498 -1.9902 0.9821
1.5519 -3.7467 -1.9893 0.9821
1.6843 -3.6880 -1.9888 0.9821
2.1900 -3.4077 -1.9870 0.9821
2.3097 -3.3266 -1.9865 0.9821
2.4264 -3.2413 -1.9861 0.9821
2.5401 -3.1520 -1.9857 0.9821
2.6504 -3.0587 -1.9853 0.9821
2.7574 -2.9616 -1.9849 0.9821
2.8608 -2.8608 -1.9845 0.9821
3.1485 -2.5372 -1.9835 0.9821
3.2365 -2.4229 -1.9832 0.9821
3.3204 -2.3054 -1.9829 0.9822
3.4001 -2.1851 -1.9826 0.9822
3.6128 -1.8084 -1.9818 0.9822
3.7318 -1.5457 -1.9814 0.9822
3.8318 -1.2754 -1.9810 0.9822
3.8746 -1.1377 -1.9808 0.9822
3.9125 -0.9986 -1.9807 0.9822
3.9454 -0.8583 -1.9806 0.9822
3.9733 -0.7169 -1.9805 0.9822
3.9962 -0.5746 -1.9804 0.9822
4.0140 -0.4315 -1.9803 0.9822
4.0267 -0.2880 -1.9803 0.9822
-0.9895 0.0000 -0.5133 0.9956
-0.9893 -0.0353 -0.5135 0.9955
-0.9873 -0.0706 -0.5135 0.9955
-0.9838 -0.1058 -0.5133 0.9956
-0.9785 -0.1407 -0.5129 0.9956
-0.9628 -0.2094 -0.5112 0.9956
-0.9524 -0.2431 -0.5099 0.9956
-0.9208 -0.3434 -0.5098 0.9956
-0.9416 -0.4713 -0.5463 0.9953
-3.3268 -1.9739 -2.0068 0.9827
-3.2538 -2.0911 -2.0065 0.9827
-3.1767 -2.2056 -2.0063 0.9827
-3.0955 -2.3172 -2.0060 0.9827
-3.0103 -2.4259 -2.0057 0.9827
-2.7324 -2.7324 -2.0047 0.9827
-2.5296 -2.9193 -2.0040 0.9827
-2.4233 -3.0072 -2.0036 0.9827
-2.0868 -3.2470 -2.0024 0.9828
-1.8490 -3.3862 -2.0015 0.9828
-1.3471 -3.6116 -1.9997 0.9828
-1.0855 -3.6968 -1.9988 0.9828
-0.8186 -3.7630 -1.9978 0.9828
-0.4114 -3.8261 -1.9963 0.9828
-0.1373 -3.8438 -1.9954 0.9828
0.0000 -3.8453 -1.9949 0.9828
0.1372 -3.8419 -1.9944 0.9828
0.2742 -3.8336 -1.9939 0.9828
0.4107 -3.8204 -1.9934 0.9828
1.0812 -3.6823 -1.9910 0.9829
1.2117 -3.6405 -1.9905 0.9829
1.7159 -3.4279 -1.9887 0.9829
1.8367 -3.3637 -1.9882 0.9829
2.0711 -3.2227 -1.9874 0.9829
2.1844 -3.1461 -1.9870 0.9829
2.2948 -3.0655 -1.9866 0.9829
2.5067 -2.8929 -1.9858 0.9829
2.7057 -2.7057 -1.9851 0.9829
2.9779 -2.3998 -1.9841 0.9829
3.0612 -2.2916 -1.9838 0.9829
3.2160 -2.0668 -1.9832 0.9829
3.2873 -1.9504 -1.9830 0.9829
3.3544 -1.8316 -1.9827 0.9829
3.4172 -1.7105 -1.9825 0.9829
3.4757 -1.5873 -1.9823 0.9829
3.6650 -1.0761 -1.9816 0.9829
3.7583 -0.6781 -1.9812 0.9829
3.7800 -0.5435 -1.9812 0.9829
-0.9182 0.0000 -0.5029 0.9958
-0.9179 -0.0328 -0.5031 0.9958
-0.9161 -0.0655 -0.5030 0.9958
-0.9127 -0.0981 -0.5028 0.9958
-0.9077 -0.1305 -0.5022 0.9958
-0.9011 -0.1626 -0.5015 0.9958
-0.8932 -0.1943 -0.5006 0.9958
-0.8837 -0.2255 -0.4995 0.9958
-0.8727 -0.2562 -0.4982 0.9959
-0.8506 -0.3884 -0.5122 0.9957
-0.8524 -0.5057 -0.5428 0.9955
-3.0810 -1.9800 -2.0059 0.9834
-2.8505 -2.2971 -2.0051 0.9834
-2.1913 -2.9273 -2.0027 0.9835
-1.9762 -3.0749 -2.0020 0.9835
-1.7510 -3.2068 -2.0012 0.9835
-1.6351 -3.2666 -2.0007 0.9835
-1.5172 -3.3221 -2.0003 0.9835
-1.2758 -3.4204 -1.9994 0.9835
-1.0280 -3.5012 -1.9986 0.9835
-0.7753 -3.5640 -1.9976 0.9835
-0.6475 -3.5885 -1.9972 0.9835
-0.3896 -3.6239 -1.9963 0.9835
-0.2600 -3.6346 -1.9958 0.9835
0.1300 -3.6390 -1.9944 0.9835
0.2597 -3.6312 -1.9939 0.9835
0.6459 -3.5802 -1.9925 0.9835
1.0242 -3.4882 -1.9912 0.9836
1.1478 -3.4486 -1.9907 0.9836
1.2699 -3.4047 -1.9903 0.9836
1.3903 -3.3565 -1.9898 0.9836
1.5089 -3.3040 -1.9894 0.9836
1.6255 -3.2474 -1.9890 0.9836
1.8523 -3.1219 -1.9882 0.9836
2.0694 -2.9806 -1.9874 0.9836
2.2760 -2.8243 -1.9866 0.9836
2.5635 -2.5635 -1.9856 0.9836
2.6529 -2.4699 -1.9853 0.9836
2.7389 -2.3733 -1.9850 0.9836
2.8215 -2.2737 -1.9847 0.9836
2.9004 -2.1712 -1.9844 0.9836
2.9756 -2.0660 -1.9841 0.9836
3.0471 -1.9582 -1.9838 0.9836
3.3445 -1.3854 -1.9827 0.9836
3.3916 -1.2650 -1.9826 0.9836
3.4726 -1.0197 -1.9823 0.9836
3.5976 -0.3868 -1.9818 0.9836
-0.8548 -0.0305 -0.4938 0.9961
-0.8531 -0.0610 -0.4938 0.9961
-0.8499 -0.0914 -0.4935 0.9961
-0.8393 -0.1514 -0.4924 0.9961
-0.8230 -0.2101 -0.4904 0.9961
-0.8128 -0.2387 -0.4891 0.9961
-0.7887 -0.2942 -0.4860 0.9961
-0.7797 -0.3229 -0.4872 0.9961
-0.7809 -0.3566 -0.4957 0.9960
-0.7751 -0.4599 -0.5203 0.9958
-0.7696 -0.4946 -0.5282 0.9958
-0.7634 -0.5300 -0.5366 0.9957
-2.7035 -2.1786 -2.0046 0.9841
-2.6236 -2.2733 -2.0043 0.9841
-2.4540 -2.4540 -2.0037 0.9841
-2.2719 -2.6219 -2.0030 0.9841
-1.9776 -2.8483 -2.0020 0.9841
-1.7687 -2.9810 -2.0012 0.9841
-1.5509 -3.0984 -2.0004 0.9841
-1.3254 -3.1998 -1.9996 0.9841
-1.2101 -3.2444 -1.9992 0.9841
-1.0933 -3.2848 -1.9988 0.9841
-0.9752 -3.3211 -1.9984 0.9841
-0.8558 -3.3530 -1.9979 0.9841
-0.7354 -3.3807 -1.9975 0.9841
-0.6142 -3.4041 -1.9971 0.9842
-0.3696 -3.4377 -1.9962 0.9842
-0.2466 -3.4479 -1.9957 0.9842
-0.1234 -3.4537 -1.9953 0.9842
0.1233 -3.4522 -1.9944 0.9842
0.3691 -3.4331 -1.9935 0.9842
0.6128 -3.3965 -1.9926 0.9842
0.7335 -3.3717 -1.9922 0.9842
1.4316 -3.1348 -1.9897 0.9842
1.5423 -3.0811 -1.9893 0.9842
1.6509 -3.0235 -1.9889 0.9842
2.2534 -2.6006 -1.9867 0.9842
2.3444 -2.5181 -1.9864 0.9842
2.4324 -2.4324 -1.9861 0.9842
2.5173 -2.3437 -1.9857 0.9842
2.5989 -2.2520 -1.9855 0.9842
2.7522 -2.0603 -1.9849 0.9842
2.8236 -1.9605 -1.9846 0.9842
2.9556 -1.7536 -1.9842 0.9843
3.0159 -1.6468 -1.9839 0.9843
3.1251 -1.4272 -1.9835 0.9843
3.1738 -1.3146 -1.9834 0.9843
3.2590 -1.0847 -1.9830 0.9843
3.3276 -0.8493 -1.9828 0.9843
3.3556 -0.7300 -1.9827 0.9843
3.3794 -0.6097 -1.9826 0.9843
3.3989 -0.4887 -1.9825 0.9843
