ply
format ascii 1.0
element vertex 827
property float32 x
property float32 y
property float32 z
property float32 I
end_header
-1.3959 -6.4170 -0.0370 0.9741
-1.1571 -6.4136 -0.0367 0.9743
-0.6866 -6.3864 -0.0362 0.9746
-0.4559 -6.3736 -0.0360 0.9748
0.0000 -6.3917 -0.0360 0.9748
0.2296 -6.4287 -0.0362 0.9746
0.4619 -6.4576 -0.0364 0.9744
-1.5880 -6.2217 -0.1808 0.9746
-1.3537 -6.2227 -0.1793 0.9748
-0.8952 -6.2263 -0.1771 0.9751
-0.6696 -6.2280 -0.1764 0.9752
-0.4456 -6.2299 -0.1759 0.9753
-0.2227 -6.2344 -0.1757 0.9753
0.2231 -6.2467 -0.1760 0.9753
-2.0615 -6.1937 -0.3310 0.9742
-1.8153 -6.1823 -0.3268 0.9745
-1.1141 -6.1752 -0.3182 0.9752
-0.8882 -6.1773 -0.3165 0.9753
-0.4419 -6.1785 -0.3141 0.9755
-0.2208 -6.1831 -0.3138 0.9755
0.0000 -6.1885 -0.3138 0.9755
0.4457 -6.2318 -0.3168 0.9753
-2.5433 -6.1401 -0.4873 0.9737
-1.8003 -6.1313 -0.4685 0.9747
-1.3324 -6.1250 -0.4596 0.9752
-1.1054 -6.1266 -0.4565 0.9753
-0.4383 -6.1291 -0.4505 0.9757
-0.2190 -6.1325 -0.4499 0.9757
0.0000 -6.1376 -0.4500 0.9757
0.6740 -6.2694 -0.4623 0.9750
-3.7333 -6.2922 -0.7024 0.9710
-3.3836 -6.1966 -0.6778 0.9720
-3.0808 -6.1547 -0.6608 0.9727
-2.5201 -6.0841 -0.6322 0.9739
-2.2693 -6.0842 -0.6234 0.9742
-1.7855 -6.0810 -0.6084 0.9749
-1.0968 -6.0790 -0.5930 0.9755
-0.8743 -6.0811 -0.5898 0.9756
-0.6539 -6.0825 -0.5873 0.9757
-0.4349 -6.0813 -0.5853 0.9758
0.0000 -6.0875 -0.5844 0.9758
0.4377 -6.1205 -0.5891 0.9756
0.6677 -6.2105 -0.5997 0.9752
-3.9095 -6.0833 -0.8590 0.9713
-3.2919 -6.0287 -0.8159 0.9727
-3.0196 -6.0323 -0.8013 0.9732
-2.7528 -6.0277 -0.7871 0.9737
-2.4973 -6.0289 -0.7752 0.9741
-1.7706 -6.0302 -0.7465 0.9750
-1.3118 -6.0303 -0.7331 0.9754
-1.0883 -6.0322 -0.7281 0.9756
-0.8675 -6.0338 -0.7241 0.9757
-0.6488 -6.0350 -0.7210 0.9758
-0.2155 -6.0332 -0.7171 0.9760
0.0000 -6.0381 -0.7172 0.9760
0.2160 -6.0481 -0.7189 0.9759
-3.8600 -6.0062 -1.0116 0.9716
-3.5528 -5.9879 -0.9865 0.9723
-3.2670 -5.9830 -0.9659 0.9728
-2.9969 -5.9871 -0.9487 0.9733
-2.7374 -5.9940 -0.9337 0.9737
-1.9949 -5.9938 -0.8951 0.9748
-1.3033 -5.9914 -0.8688 0.9755
-1.0809 -5.9912 -0.8626 0.9757
-0.8614 -5.9909 -0.8576 0.9758
-0.6445 -5.9943 -0.8542 0.9759
-0.4293 -6.0022 -0.8526 0.9760
0.4327 -6.0495 -0.8593 0.9758
0.9443 -6.5676 -0.9401 0.9736
-4.2203 -6.0783 -1.2190 0.9704
-3.8794 -6.0365 -1.1821 0.9713
-3.5395 -5.9655 -1.1427 0.9723
-3.3193 -6.0789 -1.1410 0.9723
-2.9941 -5.9814 -1.1019 0.9732
-1.5302 -5.9952 -1.0193 0.9752
-0.8612 -5.9901 -0.9969 0.9758
-0.4285 -5.9913 -0.9895 0.9759
-0.2135 -5.9792 -0.9856 0.9760
0.4311 -6.0269 -0.9954 0.9758
0.6568 -6.1094 -1.0123 0.9754
0.9224 -6.4154 -1.0677 0.9741
-4.2156 -6.0716 -1.3893 0.9704
-3.5396 -5.9656 -1.3038 0.9722
-3.2572 -5.9652 -1.2775 0.9727
-2.7327 -5.9837 -1.2364 0.9736
-2.4813 -5.9904 -1.2187 0.9740
-1.7639 -6.0073 -1.1768 0.9748
-1.5317 -6.0009 -1.1641 0.9751
-1.3041 -5.9946 -1.1531 0.9753
-1.0806 -5.9894 -1.1440 0.9755
-0.6428 -5.9790 -1.1303 0.9758
-0.4619 -6.4578 -1.2169 0.9740
-0.0000 -6.1283 -1.1519 0.9754
0.4307 -6.0215 -1.1347 0.9757
0.9038 -6.2858 -1.1936 0.9745
-9.4702 0.0000 -2.0018 0.9620
-9.4643 -0.3380 -2.0018 0.9620
-9.4165 -1.0124 -2.0019 0.9620
-9.2548 -2.0133 -2.0020 0.9620
-8.9871 -2.9912 -2.0022 0.9620
-8.8748 -3.3101 -2.0022 0.9620
-8.7512 -3.6249 -2.0022 0.9620
-8.4706 -4.2401 -2.0023 0.9620
-8.3140 -4.5398 -2.0023 0.9620
-7.7815 -5.4028 -2.0025 0.9620
-7.5838 -5.6772 -2.0025 0.9620
-7.1597 -6.2040 -2.0025 0.9620
-6.6991 -6.6991 -2.0026 0.9620
-6.4558 -6.9340 -2.0026 0.9620
-6.2043 -7.1602 -2.0027 0.9620
-3.8342 -5.9662 -1.4991 0.9714
-3.0407 -6.0746 -1.4359 0.9726
-2.7341 -5.9868 -1.3912 0.9735
-2.4824 -5.9931 -1.3712 0.9738
-2.2376 -5.9993 -1.3535 0.9742
-1.7629 -6.0038 -1.3227 0.9747
-1.0810 -5.9916 -1.2870 0.9754
-0.8605 -5.9848 -1.2781 0.9756
-0.6942 -6.4572 -1.3728 0.9738
0.4318 -6.0373 -1.2794 0.9756
1.6824 -9.3250 -2.0030 0.9620
2.0142 -9.2590 -2.0029 0.9620
3.6261 -8.7541 -2.0029 0.9620
3.9362 -8.6190 -2.0029 0.9620
4.2413 -8.4729 -2.0029 0.9620
5.1225 -7.9708 -2.0028 0.9620
6.4560 -6.9342 -2.0027 0.9620
6.6993 -6.6993 -2.0027 0.9620
6.9340 -6.4558 -2.0026 0.9620
7.5841 -5.6774 -2.0025 0.9620
7.7818 -5.4030 -2.0025 0.9620
7.9695 -5.1217 -2.0025 0.9620
8.1471 -4.8339 -2.0024 0.9620
8.3143 -4.5399 -2.0024 0.9620
8.6167 -3.9351 -2.0023 0.9620
8.7515 -3.6250 -2.0023 0.9620
9.3210 -1.6817 -2.0021 0.9620
9.3749 -1.3479 -2.0020 0.9620
9.4168 -1.0124 -2.0020 0.9620
9.4468 -0.6756 -2.0020 0.9620
-8.5175 0.0000 -2.0018 0.9656
-8.4961 -0.6077 -2.0019 0.9656
-8.4314 -1.2123 -2.0020 0.9656
-8.3829 -1.5125 -2.0020 0.9656
-8.3237 -1.8107 -2.0020 0.9656
-8.1736 -2.4000 -2.0021 0.9656
-8.0829 -2.6903 -2.0021 0.9656
-7.9819 -2.9771 -2.0022 0.9656
-7.8707 -3.2601 -2.0022 0.9656
-7.7494 -3.5390 -2.0022 0.9656
-7.6183 -3.8135 -2.0023 0.9656
-7.4775 -4.0830 -2.0023 0.9656
-7.3271 -4.3474 -2.0023 0.9656
-7.1673 -4.6062 -2.0024 0.9656
-6.9985 -4.8591 -2.0024 0.9656
-6.8207 -5.1059 -2.0024 0.9656
-6.4392 -5.5796 -2.0025 0.9656
-6.2361 -5.8060 -2.0025 0.9656
-5.8061 -6.2362 -2.0026 0.9656
-3.2573 -5.9654 -1.5974 0.9725
-3.0240 -6.0412 -1.5878 0.9726
-2.7355 -5.9898 -1.5476 0.9733
-2.4829 -5.9942 -1.5248 0.9737
-1.9956 -5.9958 -1.4851 0.9744
-1.7607 -5.9965 -1.4688 0.9746
-0.8615 -5.9921 -1.4228 0.9754
0.0000 -5.9604 -1.4008 0.9758
0.2129 -5.9601 -1.4017 0.9758
0.4350 -6.0824 -1.4332 0.9753
0.6605 -6.1435 -1.4522 0.9749
0.9137 -6.3547 -1.5089 0.9740
1.5131 -8.3865 -2.0028 0.9656
2.1075 -8.2571 -2.0028 0.9656
2.6912 -8.0857 -2.0028 0.9656
3.5400 -7.7515 -2.0028 0.9656
3.8144 -7.6202 -2.0028 0.9656
4.3482 -7.3285 -2.0027 0.9656
4.6070 -7.1686 -2.0027 0.9656
4.8599 -6.9995 -2.0027 0.9656
5.1066 -6.8215 -2.0027 0.9656
5.3467 -6.6348 -2.0026 0.9656
5.8063 -6.2364 -2.0026 0.9656
6.0251 -6.0251 -2.0026 0.9656
6.2362 -5.8061 -2.0026 0.9656
6.8209 -5.1060 -2.0025 0.9656
6.9987 -4.8593 -2.0024 0.9656
7.1676 -4.6063 -2.0024 0.9656
7.3273 -4.3475 -2.0024 0.9656
7.4777 -4.0831 -2.0024 0.9656
7.6185 -3.8136 -2.0023 0.9656
7.9821 -2.9772 -2.0022 0.9656
8.1739 -2.4001 -2.0022 0.9656
8.2542 -2.1068 -2.0021 0.9656
8.4694 -0.9106 -2.0020 0.9656
8.5125 -0.3040 -2.0019 0.9656
-7.7314 0.0000 -2.0018 0.9686
-7.6875 -0.8265 -2.0019 0.9686
-7.6092 -1.3729 -2.0020 0.9686
-7.4921 -1.9123 -2.0020 0.9686
-7.1442 -2.9592 -2.0022 0.9686
-6.9151 -3.4614 -2.0022 0.9686
-6.7872 -3.7061 -2.0023 0.9686
-6.5057 -4.1810 -2.0023 0.9686
-6.3525 -4.4106 -2.0023 0.9686
-5.8448 -5.0646 -2.0024 0.9685
-5.6604 -5.2700 -2.0024 0.9685
-5.4688 -5.4688 -2.0025 0.9685
-5.2701 -5.6605 -2.0025 0.9685
-4.8530 -6.0222 -2.0025 0.9685
-4.1816 -6.5067 -2.0026 0.9685
-3.5397 -5.9659 -1.7961 0.9717
-3.2574 -5.9654 -1.7598 0.9723
-3.0964 -6.1859 -1.7911 0.9718
-3.2131 -7.0358 -2.0027 0.9685
-2.9600 -7.1460 -2.0027 0.9685
-1.9931 -5.9882 -1.6341 0.9743
-1.7585 -5.9890 -1.6161 0.9745
-1.0810 -5.9914 -1.5763 0.9752
-0.8617 -5.9934 -1.5678 0.9753
-0.8268 -7.6908 -2.0027 0.9685
-0.2129 -5.9608 -1.5443 0.9757
0.0000 -5.9605 -1.5433 0.9757
0.8269 -7.6908 -2.0028 0.9685
1.6442 -7.5583 -2.0027 0.9685
1.9129 -7.4948 -2.0027 0.9685
2.1792 -7.4217 -2.0027 0.9685
3.2132 -7.0358 -2.0027 0.9685
3.9468 -6.6519 -2.0026 0.9685
4.1817 -6.5068 -2.0026 0.9685
4.4112 -6.3533 -2.0026 0.9685
4.6351 -6.1918 -2.0026 0.9685
5.2703 -5.6606 -2.0025 0.9685
5.4689 -5.4689 -2.0025 0.9685
5.6605 -5.2701 -2.0025 0.9685
6.3526 -4.4107 -2.0024 0.9686
6.5059 -4.1811 -2.0024 0.9686
7.2454 -2.7024 -2.0022 0.9686
7.4194 -2.1785 -2.0021 0.9686
7.4924 -1.9123 -2.0021 0.9686
7.5557 -1.6436 -2.0021 0.9686
7.6535 -1.1004 -2.0020 0.9686
7.6878 -0.8265 -2.0020 0.9686
-7.0534 -0.5045 -2.0019 0.9710
-6.9997 -1.0064 -2.0019 0.9710
-6.9594 -1.2556 -2.0020 0.9710
-6.9102 -1.5032 -2.0020 0.9710
-6.7856 -1.9924 -2.0021 0.9710
-6.6264 -2.4715 -2.0021 0.9710
-6.5340 -2.7065 -2.0021 0.9710
-6.4333 -2.9380 -2.0022 0.9710
-6.3245 -3.1658 -2.0022 0.9710
-6.2075 -3.3896 -2.0022 0.9710
-6.0827 -3.6090 -2.0022 0.9710
-5.9500 -3.8239 -2.0023 0.9710
-5.8099 -4.0339 -2.0023 0.9710
-5.3456 -4.6320 -2.0024 0.9710
-5.1769 -4.8199 -2.0024 0.9710
-4.4384 -5.5078 -2.0025 0.9710
-4.0343 -5.8105 -2.0025 0.9710
-3.8244 -5.9508 -2.0025 0.9710
-3.2574 -5.9655 -1.9242 0.9721
-2.7071 -6.5355 -2.0026 0.9710
-2.4721 -6.6280 -2.0026 0.9710
-2.2340 -6.7121 -2.0026 0.9710
-1.9930 -6.7876 -2.0026 0.9710
-1.2560 -6.9618 -2.0027 0.9710
-1.0068 -7.0022 -2.0027 0.9710
-0.7562 -7.0337 -2.0027 0.9710
-0.4263 -5.9612 -1.6919 0.9755
-0.2129 -5.9609 -1.6886 0.9755
0.0000 -5.9606 -1.6874 0.9755
0.2129 -5.9603 -1.6884 0.9755
0.5047 -7.0562 -2.0027 0.9710
1.0068 -7.0023 -2.0027 0.9710
1.2561 -6.9619 -2.0027 0.9710
1.5037 -6.9126 -2.0027 0.9710
1.7495 -6.8545 -2.0027 0.9710
2.2340 -6.7122 -2.0026 0.9710
2.4722 -6.6281 -2.0026 0.9710
3.1665 -6.3258 -2.0026 0.9710
3.3902 -6.2087 -2.0026 0.9710
4.0344 -5.8106 -2.0025 0.9710
4.4385 -5.5079 -2.0025 0.9710
4.8201 -5.1771 -2.0025 0.9710
5.9502 -3.8240 -2.0023 0.9710
6.0828 -3.6091 -2.0023 0.9710
6.6265 -2.4716 -2.0022 0.9710
6.7104 -2.2334 -2.0021 0.9710
6.8525 -1.7490 -2.0021 0.9710
6.9596 -1.2556 -2.0020 0.9710
7.0312 -0.7559 -2.0020 0.9710
7.0670 -0.2524 -2.0019 0.9710
-6.5083 0.0000 -2.0018 0.9731
-6.5042 -0.2323 -2.0018 0.9731
-6.4919 -0.4643 -2.0019 0.9731
-6.4424 -0.9263 -2.0019 0.9731
-6.2454 -1.8338 -2.0020 0.9731
-6.0988 -2.2747 -2.0021 0.9731
-5.9211 -2.7041 -2.0021 0.9731
-5.8209 -2.9137 -2.0022 0.9731
-5.7133 -3.1197 -2.0022 0.9731
-5.5983 -3.3217 -2.0022 0.9731
-5.3472 -3.7127 -2.0023 0.9731
-5.2114 -3.9012 -2.0023 0.9731
-5.0689 -4.0848 -2.0023 0.9731
-3.7130 -5.3478 -2.0025 0.9731
-3.1202 -5.7142 -2.0025 0.9731
-2.9142 -5.8220 -2.0025 0.9731
-2.7046 -5.9223 -2.0025 0.9731
-2.2753 -6.1002 -2.0026 0.9731
-1.1560 -6.4074 -2.0026 0.9731
-0.6960 -6.4736 -2.0026 0.9731
-0.4264 -5.9613 -1.8382 0.9753
-0.0000 -5.9606 -1.8334 0.9754
0.9266 -6.4446 -2.0026 0.9731
1.1560 -6.4074 -2.0026 0.9731
1.8343 -6.2471 -2.0026 0.9731
2.2753 -6.1002 -2.0026 0.9731
2.4916 -6.0151 -2.0026 0.9731
2.7046 -5.9223 -2.0026 0.9731
3.1202 -5.7142 -2.0025 0.9731
3.5199 -5.4770 -2.0025 0.9731
4.0851 -5.0693 -2.0025 0.9731
4.2634 -4.9202 -2.0024 0.9731
4.6034 -4.6034 -2.0024 0.9731
4.7648 -4.4361 -2.0024 0.9731
5.0690 -4.0848 -2.0023 0.9731
5.3474 -3.7127 -2.0023 0.9731
5.8211 -2.9138 -2.0022 0.9731
6.1762 -2.0556 -2.0021 0.9731
6.2455 -1.8338 -2.0021 0.9731
6.3069 -1.6097 -2.0021 0.9731
6.3603 -1.3836 -2.0020 0.9731
6.4715 -0.6957 -2.0019 0.9731
-6.0185 -0.2150 -2.0018 0.9749
-6.0070 -0.4296 -2.0019 0.9749
-5.8850 -1.2802 -2.0020 0.9749
-5.7789 -1.6968 -2.0020 0.9749
-5.6432 -2.1048 -2.0021 0.9749
-5.2865 -2.8866 -2.0022 0.9749
-5.1801 -3.0735 -2.0022 0.9749
-4.4087 -4.1047 -2.0023 0.9749
-3.9448 -4.5525 -2.0024 0.9749
-3.2568 -5.0678 -2.0024 0.9749
-2.8871 -5.2873 -2.0025 0.9749
-2.5025 -5.4798 -2.0025 0.9749
-2.1053 -5.6444 -2.0025 0.9749
-1.6972 -5.7803 -2.0025 0.9749
-1.4899 -5.8372 -2.0025 0.9749
-1.2806 -5.8867 -2.0025 0.9749
-0.4298 -6.0091 -2.0026 0.9749
-0.2129 -5.9610 -1.9827 0.9752
0.0000 -6.0244 -2.0026 0.9749
0.2150 -6.0206 -2.0026 0.9749
0.6440 -5.9899 -2.0026 0.9749
1.0697 -5.9287 -2.0025 0.9749
1.2806 -5.8867 -2.0025 0.9749
1.4899 -5.8372 -2.0025 0.9749
1.6973 -5.7803 -2.0025 0.9749
2.1053 -5.6445 -2.0025 0.9749
2.3054 -5.5657 -2.0025 0.9749
2.5026 -5.4799 -2.0025 0.9749
2.8871 -5.2873 -2.0025 0.9749
3.0740 -5.1809 -2.0025 0.9749
3.2569 -5.0678 -2.0025 0.9749
3.4357 -4.9483 -2.0024 0.9749
3.6101 -4.8225 -2.0024 0.9749
3.7799 -4.6905 -2.0024 0.9749
3.9449 -4.5526 -2.0024 0.9749
4.1048 -4.4088 -2.0024 0.9749
4.2595 -4.2595 -2.0024 0.9749
4.4088 -4.1047 -2.0023 0.9749
4.9479 -3.4354 -2.0023 0.9749
5.0673 -3.2566 -2.0022 0.9749
5.1803 -3.0736 -2.0022 0.9749
5.2866 -2.8867 -2.0022 0.9749
5.3862 -2.6961 -2.0022 0.9749
5.6433 -2.1049 -2.0021 0.9749
5.7148 -1.9021 -2.0021 0.9749
5.9271 -1.0693 -2.0020 0.9749
5.9614 -0.8571 -2.0020 0.9749
6.0186 -0.2149 -2.0019 0.9749
-5.5978 0.0000 -2.0018 0.9765
-5.5837 -0.3994 -2.0019 0.9765
-5.5659 -0.5984 -2.0019 0.9765
-5.4703 -1.1900 -2.0020 0.9765
-5.3716 -1.5772 -2.0020 0.9765
-5.2455 -1.9565 -2.0021 0.9765
-5.1724 -2.1425 -2.0021 0.9765
-5.0927 -2.3258 -2.0021 0.9765
-5.0065 -2.5061 -2.0021 0.9765
-4.8150 -2.8569 -2.0022 0.9765
-4.7100 -3.0270 -2.0022 0.9765
-4.5990 -3.1932 -2.0022 0.9765
-4.4822 -3.3553 -2.0022 0.9765
-4.2315 -3.6666 -2.0023 0.9765
-4.0979 -3.8153 -2.0023 0.9765
-3.9592 -3.9592 -2.0023 0.9765
-3.5134 -4.3599 -2.0023 0.9765
-3.0273 -4.7105 -2.0024 0.9765
-2.5064 -5.0072 -2.0024 0.9765
-2.3261 -5.0935 -2.0024 0.9765
-1.9569 -5.2466 -2.0025 0.9765
-1.5776 -5.3728 -2.0025 0.9765
-1.3848 -5.4257 -2.0025 0.9765
-1.1903 -5.4717 -2.0025 0.9765
-0.9942 -5.5107 -2.0025 0.9765
-0.7969 -5.5427 -2.0025 0.9765
-0.3995 -5.5854 -2.0025 0.9765
-0.1999 -5.5962 -2.0025 0.9765
0.0000 -5.5997 -2.0025 0.9765
0.5986 -5.5676 -2.0025 0.9765
0.7969 -5.5427 -2.0025 0.9765
0.9942 -5.5107 -2.0025 0.9765
1.1903 -5.4717 -2.0025 0.9765
1.5776 -5.3729 -2.0025 0.9765
1.9569 -5.2466 -2.0025 0.9765
2.1429 -5.1734 -2.0025 0.9765
3.0273 -4.7106 -2.0024 0.9765
3.1935 -4.5995 -2.0024 0.9765
3.5134 -4.3599 -2.0024 0.9765
3.8155 -4.0981 -2.0023 0.9765
4.3597 -3.5133 -2.0023 0.9765
4.4823 -3.3554 -2.0023 0.9765
4.7101 -3.0270 -2.0022 0.9765
5.0928 -2.3258 -2.0021 0.9765
5.1725 -2.1425 -2.0021 0.9765
5.5093 -0.9940 -2.0020 0.9765
5.5661 -0.5984 -2.0019 0.9765
5.5838 -0.3994 -2.0019 0.9765
5.5944 -0.1998 -2.0019 0.9765
-5.2237 0.0000 -2.0018 0.9779
-5.2204 -0.1865 -2.0018 0.9779
-5.2105 -0.3727 -2.0019 0.9779
-5.1940 -0.5584 -2.0019 0.9779
-5.1708 -0.7435 -2.0019 0.9779
-5.1410 -0.9275 -2.0019 0.9779
-5.1047 -1.1105 -2.0020 0.9779
-5.0618 -1.2920 -2.0020 0.9779
-4.9569 -1.6498 -2.0020 0.9779
-4.8949 -1.8257 -2.0020 0.9779
-4.5854 -2.5038 -2.0021 0.9779
-4.2916 -2.9797 -2.0022 0.9779
-4.1826 -3.1311 -2.0022 0.9779
-3.5603 -3.8241 -2.0023 0.9779
-3.4216 -3.9488 -2.0023 0.9779
-3.2785 -4.0684 -2.0023 0.9779
-2.9800 -4.2920 -2.0023 0.9779
-2.8249 -4.3956 -2.0024 0.9779
-2.6662 -4.4937 -2.0024 0.9779
-2.5042 -4.5860 -2.0024 0.9779
-2.1706 -4.7530 -2.0024 0.9779
-1.9996 -4.8275 -2.0024 0.9779
-1.8260 -4.8958 -2.0024 0.9779
-1.6501 -4.9579 -2.0024 0.9779
-1.4721 -5.0136 -2.0024 0.9779
-0.5586 -5.1954 -2.0025 0.9779
-0.3728 -5.2121 -2.0025 0.9779
-0.1865 -5.2221 -2.0025 0.9779
0.1865 -5.2220 -2.0025 0.9779
0.3728 -5.2121 -2.0025 0.9779
0.9278 -5.1423 -2.0025 0.9779
1.1107 -5.1059 -2.0025 0.9779
1.2923 -5.0630 -2.0024 0.9779
1.4722 -5.0137 -2.0024 0.9779
1.6502 -4.9579 -2.0024 0.9779
1.8261 -4.8958 -2.0024 0.9779
2.3389 -4.6725 -2.0024 0.9779
2.6663 -4.4937 -2.0024 0.9779
2.9800 -4.2920 -2.0024 0.9779
3.2786 -4.0684 -2.0023 0.9779
3.5604 -3.8241 -2.0023 0.9779
3.8241 -3.5603 -2.0023 0.9779
4.1827 -3.1311 -2.0022 0.9779
4.3953 -2.8247 -2.0022 0.9779
4.8267 -1.9993 -2.0021 0.9779
5.0127 -1.4719 -2.0020 0.9779
5.0619 -1.2920 -2.0020 0.9779
5.1411 -0.9275 -2.0020 0.9779
5.2106 -0.3727 -2.0019 0.9779
5.2205 -0.1865 -2.0019 0.9779
-1.9308 -0.0690 -0.7907 0.9917
-1.9524 -0.1396 -0.8011 0.9916
-1.9569 -0.2104 -0.8055 0.9915
-2.1703 -0.3916 -0.9026 0.9905
-4.7396 -1.2097 -2.0020 0.9791
-4.6934 -1.3781 -2.0020 0.9791
-4.6413 -1.5448 -2.0020 0.9791
-4.5832 -1.7095 -2.0020 0.9791
-4.5193 -1.8720 -2.0020 0.9791
-4.4497 -2.0321 -2.0021 0.9791
-4.3744 -2.1896 -2.0021 0.9791
-4.2934 -2.3444 -2.0021 0.9791
-4.1153 -2.6448 -2.0021 0.9791
-3.9162 -2.9317 -2.0022 0.9791
-3.8091 -3.0696 -2.0022 0.9791
-3.6972 -3.2036 -2.0022 0.9791
-3.5805 -3.3336 -2.0022 0.9791
-3.3336 -3.5806 -2.0023 0.9791
-3.2037 -3.6973 -2.0023 0.9791
-3.0697 -3.8093 -2.0023 0.9791
-2.7902 -4.0187 -2.0023 0.9791
-2.3447 -4.2940 -2.0023 0.9791
-2.0324 -4.4504 -2.0024 0.9791
-1.3784 -4.6944 -2.0024 0.9791
-1.2100 -4.7406 -2.0024 0.9791
-0.8687 -4.8148 -2.0024 0.9791
-0.6963 -4.8428 -2.0024 0.9791
-0.3490 -4.8801 -2.0024 0.9791
0.5230 -4.8646 -2.0024 0.9791
1.2100 -4.7406 -2.0024 0.9791
1.3784 -4.6944 -2.0024 0.9791
1.7098 -4.5841 -2.0024 0.9791
1.8723 -4.5201 -2.0024 0.9791
2.1900 -4.3750 -2.0024 0.9791
2.3447 -4.2940 -2.0024 0.9791
2.4965 -4.2076 -2.0023 0.9791
2.7902 -4.0187 -2.0023 0.9791
2.9319 -3.9165 -2.0023 0.9791
3.2038 -3.6973 -2.0023 0.9791
3.3337 -3.5806 -2.0023 0.9791
3.4593 -3.4593 -2.0023 0.9791
3.5806 -3.3336 -2.0023 0.9791
3.9163 -2.9317 -2.0022 0.9791
4.0184 -2.7900 -2.0022 0.9791
4.1154 -2.6448 -2.0022 0.9791
4.2072 -2.4962 -2.0022 0.9791
4.2935 -2.3444 -2.0021 0.9791
4.6414 -1.5448 -2.0020 0.9791
4.7396 -1.2097 -2.0020 0.9791
4.7798 -1.0398 -2.0020 0.9791
4.8138 -0.8685 -2.0020 0.9791
4.8417 -0.6961 -2.0019 0.9791
4.8789 -0.3489 -2.0019 0.9791
4.8882 -0.1746 -2.0019 0.9791
-1.5221 0.0000 -0.6634 0.9934
-1.5249 -0.1639 -0.6684 0.9933
-1.5151 -0.2179 -0.6671 0.9933
-1.5001 -0.2707 -0.6643 0.9934
-1.5214 -0.3310 -0.6786 0.9932
-1.5707 -0.4612 -0.7134 0.9929
-1.5875 -0.5284 -0.7292 0.9927
-1.5984 -0.5962 -0.7435 0.9926
-4.2441 -1.7579 -2.0020 0.9802
-4.1787 -1.9083 -2.0021 0.9802
-4.0319 -2.2016 -2.0021 0.9802
-3.8647 -2.4837 -2.0021 0.9802
-3.7736 -2.6201 -2.0021 0.9802
-3.6777 -2.7531 -2.0022 0.9802
-3.5771 -2.8826 -2.0022 0.9802
-3.3624 -3.1305 -2.0022 0.9802
-3.2486 -3.2486 -2.0022 0.9802
-3.1306 -3.3625 -2.0022 0.9802
-3.0086 -3.4721 -2.0022 0.9802
-2.7532 -3.6779 -2.0023 0.9802
-2.4839 -3.8650 -2.0023 0.9802
-2.2019 -4.0324 -2.0023 0.9802
-2.0565 -4.1084 -2.0023 0.9802
-1.9086 -4.1792 -2.0023 0.9802
-1.7582 -4.2447 -2.0023 0.9802
-1.4509 -4.3594 -2.0024 0.9802
-1.2944 -4.4084 -2.0024 0.9802
-0.9766 -4.4895 -2.0024 0.9802
-0.4911 -4.5682 -2.0024 0.9802
0.0000 -4.5946 -2.0024 0.9802
0.1640 -4.5916 -2.0024 0.9802
1.4510 -4.3594 -2.0024 0.9802
1.6056 -4.3048 -2.0024 0.9802
1.7582 -4.2447 -2.0024 0.9802
2.0566 -4.1085 -2.0023 0.9802
2.2019 -4.0324 -2.0023 0.9802
2.3444 -3.9512 -2.0023 0.9802
2.4839 -3.8650 -2.0023 0.9802
2.7533 -3.6779 -2.0023 0.9802
3.0086 -3.4721 -2.0023 0.9802
3.3625 -3.1306 -2.0022 0.9802
3.4720 -3.0085 -2.0022 0.9802
3.5772 -2.8827 -2.0022 0.9802
3.8647 -2.4837 -2.0022 0.9802
3.9509 -2.3442 -2.0021 0.9802
4.1080 -2.0563 -2.0021 0.9802
4.2442 -1.7580 -2.0021 0.9802
4.3042 -1.6054 -2.0020 0.9802
4.3587 -1.4507 -2.0020 0.9802
4.4076 -1.2942 -2.0020 0.9802
4.4510 -1.1360 -2.0020 0.9802
4.5672 -0.4910 -2.0019 0.9802
-1.3333 0.0000 -0.6172 0.9941
-1.3384 -0.0957 -0.6211 0.9941
-1.3351 -0.1435 -0.6215 0.9941
-1.3273 -0.1908 -0.6207 0.9941
-1.3160 -0.2374 -0.6190 0.9941
-1.3013 -0.2831 -0.6164 0.9941
-1.3324 -0.4970 -0.6582 0.9938
-1.3263 -0.5494 -0.6645 0.9937
-3.7961 -2.0729 -2.0021 0.9811
-3.6387 -2.3384 -2.0021 0.9811
-3.5529 -2.4668 -2.0021 0.9811
-3.3679 -2.7140 -2.0022 0.9811
-3.2689 -2.8325 -2.0022 0.9811
-3.1658 -2.9474 -2.0022 0.9811
-3.0586 -3.0586 -2.0022 0.9811
-2.8326 -3.2690 -2.0022 0.9811
-2.7141 -3.3680 -2.0022 0.9811
-2.4670 -3.5531 -2.0023 0.9811
-2.3386 -3.6389 -2.0023 0.9811
-2.0731 -3.7966 -2.0023 0.9811
-1.9362 -3.8681 -2.0023 0.9811
-1.7970 -3.9348 -2.0023 0.9811
-1.5117 -4.0530 -2.0023 0.9811
-1.2187 -4.1505 -2.0023 0.9811
-1.0698 -4.1914 -2.0023 0.9811
-0.7681 -4.2571 -2.0023 0.9811
-0.3086 -4.3148 -2.0024 0.9811
-0.1544 -4.3231 -2.0024 0.9811
0.3086 -4.3148 -2.0024 0.9811
0.4624 -4.3010 -2.0024 0.9811
0.6156 -4.2818 -2.0024 0.9811
0.9195 -4.2269 -2.0023 0.9811
1.0698 -4.1914 -2.0023 0.9811
1.2187 -4.1505 -2.0023 0.9811
1.3661 -4.1044 -2.0023 0.9811
1.5117 -4.0530 -2.0023 0.9811
1.6554 -3.9965 -2.0023 0.9811
1.9363 -3.8682 -2.0023 0.9811
2.0731 -3.7966 -2.0023 0.9811
2.2073 -3.7201 -2.0023 0.9811
2.3386 -3.6390 -2.0023 0.9811
2.4670 -3.5532 -2.0023 0.9811
2.5923 -3.4628 -2.0023 0.9811
3.0586 -3.0586 -2.0022 0.9811
3.1658 -2.9475 -2.0022 0.9811
3.2690 -2.8326 -2.0022 0.9811
3.3680 -2.7141 -2.0022 0.9811
3.4627 -2.5921 -2.0022 0.9811
3.5529 -2.4669 -2.0021 0.9811
3.7198 -2.2071 -2.0021 0.9811
3.8677 -1.9360 -2.0021 0.9811
3.9343 -1.7967 -2.0021 0.9811
4.0524 -1.5115 -2.0020 0.9811
4.1038 -1.3659 -2.0020 0.9811
4.1907 -1.0696 -2.0020 0.9811
4.2261 -0.9193 -2.0020 0.9811
4.3001 -0.4623 -2.0019 0.9811
4.3138 -0.3085 -2.0019 0.9811
4.3220 -0.1544 -2.0019 0.9811
-1.1953 -0.0855 -0.5878 0.9947
-1.1791 -0.2127 -0.5877 0.9947
-1.1578 -0.2955 -0.5861 0.9947
-1.1484 -0.4757 -0.6097 0.9945
-1.1113 -0.6068 -0.6211 0.9944
-3.4336 -2.2067 -2.0021 0.9820
-3.1781 -2.5611 -2.0021 0.9820
-3.0847 -2.6729 -2.0021 0.9820
-2.8862 -2.8862 -2.0022 0.9820
-2.6730 -3.0848 -2.0022 0.9820
-2.5612 -3.1783 -2.0022 0.9820
-2.0829 -3.5105 -2.0022 0.9820
-1.9562 -3.5826 -2.0023 0.9820
-1.1500 -3.9166 -2.0023 0.9820
-0.8677 -3.9887 -2.0023 0.9820
-0.5809 -4.0404 -2.0023 0.9820
-0.1457 -4.0794 -2.0023 0.9820
0.2912 -4.0716 -2.0023 0.9820
0.5809 -4.0404 -2.0023 0.9820
0.8677 -3.9887 -2.0023 0.9820
1.1500 -3.9167 -2.0023 0.9820
1.4265 -3.8246 -2.0023 0.9820
2.4462 -3.2677 -2.0022 0.9820
2.5612 -3.1783 -2.0022 0.9820
2.6730 -3.0848 -2.0022 0.9820
2.7814 -2.9874 -2.0022 0.9820
2.8862 -2.8862 -2.0022 0.9820
2.9874 -2.7813 -2.0022 0.9820
3.1782 -2.5611 -2.0022 0.9820
3.2675 -2.4460 -2.0021 0.9820
3.5823 -1.9561 -2.0021 0.9820
3.7126 -1.6955 -2.0021 0.9820
3.9160 -1.1498 -2.0020 0.9820
3.9880 -0.8675 -2.0020 0.9820
4.0578 -0.4363 -2.0019 0.9820
4.0708 -0.2911 -2.0019 0.9820
4.0785 -0.1457 -2.0019 0.9820
-1.0814 -0.2352 -0.5741 0.9950
-1.0576 -0.3945 -0.5856 0.9949
-1.0514 -0.4355 -0.5904 0.9949
-1.0430 -0.4763 -0.5948 0.9948
-1.0298 -0.5154 -0.5974 0.9948
-1.0118 -0.5525 -0.5981 0.9948
-2.9167 -2.5273 -2.0021 0.9828
-2.8246 -2.6298 -2.0021 0.9828
-2.7290 -2.7290 -2.0022 0.9828
-2.4217 -3.0051 -2.0022 0.9828
-2.2011 -3.1703 -2.0022 0.9828
-2.0866 -3.2468 -2.0022 0.9828
-1.7276 -3.4513 -2.0022 0.9828
-1.4770 -3.5658 -2.0023 0.9828
-1.3488 -3.6162 -2.0023 0.9828
-0.9545 -3.7397 -2.0023 0.9828
-0.6853 -3.7983 -2.0023 0.9828
0.4126 -3.8375 -2.0023 0.9828
0.6853 -3.7983 -2.0023 0.9828
0.8204 -3.7714 -2.0023 0.9828
1.0874 -3.7033 -2.0023 0.9828
1.4770 -3.5658 -2.0023 0.9828
1.8497 -3.3874 -2.0023 0.9828
2.0866 -3.2468 -2.0022 0.9828
2.2012 -3.1703 -2.0022 0.9828
2.4217 -3.0051 -2.0022 0.9828
2.5274 -2.9168 -2.0022 0.9828
2.6299 -2.8247 -2.0022 0.9828
2.8247 -2.6299 -2.0022 0.9828
3.0050 -2.4216 -2.0021 0.9828
3.0895 -2.3128 -2.0021 0.9828
3.3871 -1.8495 -2.0021 0.9828
3.5104 -1.6031 -2.0020 0.9828
3.5654 -1.4768 -2.0020 0.9828
3.7708 -0.8203 -2.0020 0.9828
3.7976 -0.6852 -2.0019 0.9828
3.8196 -0.5492 -2.0019 0.9828
3.8490 -0.2753 -2.0019 0.9828
-1.0269 0.0000 -0.5625 0.9953
-1.0265 -0.0734 -0.5637 0.9953
-1.0236 -0.1101 -0.5639 0.9953
-1.0190 -0.1465 -0.5638 0.9953
-0.9820 -0.2883 -0.5606 0.9953
-0.9785 -0.3257 -0.5648 0.9953
-0.9741 -0.3633 -0.5694 0.9953
-0.9677 -0.4008 -0.5737 0.9952
-0.9269 -0.5061 -0.5784 0.9952
-0.9084 -0.5390 -0.5785 0.9952
-0.8882 -0.5708 -0.5782 0.9952
-2.9263 -2.1906 -2.0021 0.9835
-2.8463 -2.2937 -2.0021 0.9835
-2.7626 -2.3938 -2.0021 0.9835
-2.6754 -2.4909 -2.0021 0.9835
-2.5848 -2.5848 -2.0021 0.9835
-2.4909 -2.6755 -2.0021 0.9835
-2.2938 -2.8464 -2.0022 0.9835
-2.1907 -2.9265 -2.0022 0.9835
-2.0849 -3.0028 -2.0022 0.9835
-1.8654 -3.1439 -2.0022 0.9835
-1.6363 -3.2690 -2.0022 0.9835
-1.5186 -3.3253 -2.0022 0.9835
-1.1545 -3.4686 -2.0022 0.9835
-1.0299 -3.5076 -2.0023 0.9835
-0.9041 -3.5422 -2.0023 0.9835
-0.6491 -3.5977 -2.0023 0.9835
-0.1305 -3.6534 -2.0023 0.9835
0.1305 -3.6534 -2.0023 0.9835
0.2608 -3.6464 -2.0023 0.9835
0.3908 -3.6348 -2.0023 0.9835
0.5203 -3.6185 -2.0023 0.9835
0.7771 -3.5722 -2.0023 0.9835
0.9041 -3.5422 -2.0023 0.9835
1.1545 -3.4687 -2.0023 0.9835
1.2775 -3.4252 -2.0023 0.9835
1.5186 -3.3253 -2.0022 0.9835
1.8654 -3.1439 -2.0022 0.9835
1.9764 -3.0753 -2.0022 0.9835
2.4910 -2.6755 -2.0022 0.9835
2.5849 -2.5849 -2.0022 0.9835
2.6755 -2.4909 -2.0021 0.9835
2.7627 -2.3939 -2.0021 0.9835
2.8463 -2.2937 -2.0021 0.9835
2.9264 -2.1906 -2.0021 0.9835
3.0751 -1.9763 -2.0021 0.9835
3.1437 -1.8652 -2.0021 0.9835
3.2083 -1.7518 -2.0021 0.9835
3.2687 -1.6362 -2.0020 0.9835
3.3250 -1.5185 -2.0020 0.9835
3.3771 -1.3988 -2.0020 0.9835
3.4248 -1.2774 -2.0020 0.9835
3.4682 -1.1543 -2.0020 0.9835
3.5971 -0.6490 -2.0019 0.9835
3.6342 -0.3907 -2.0019 0.9835
3.6527 -0.1304 -2.0019 0.9835
-0.9575 -0.0342 -0.5532 0.9956
-0.9537 -0.1025 -0.5538 0.9956
-0.9352 -0.2034 -0.5526 0.9956
-0.9151 -0.2687 -0.5506 0.9956
-0.9011 -0.3361 -0.5553 0.9956
-0.8823 -0.4029 -0.5600 0.9955
-0.8687 -0.4348 -0.5609 0.9955
-0.8534 -0.4660 -0.5614 0.9955
-0.8178 -0.5256 -0.5613 0.9955
-0.8008 -0.5560 -0.5628 0.9955
-2.5380 -2.3630 -2.0021 0.9841
-2.3630 -2.5381 -2.0021 0.9841
-2.1759 -2.7002 -2.0022 0.9841
-1.9778 -2.8486 -2.0022 0.9841
-1.8749 -2.9174 -2.0022 0.9841
-1.6620 -3.0437 -2.0022 0.9841
-1.2119 -3.2493 -2.0022 0.9841
-0.7372 -3.3887 -2.0022 0.9841
-0.6158 -3.4129 -2.0022 0.9841
-0.4935 -3.4327 -2.0022 0.9841
-0.3707 -3.4481 -2.0022 0.9841
-0.2474 -3.4592 -2.0023 0.9841
-0.1238 -3.4658 -2.0023 0.9841
0.0000 -3.4680 -2.0023 0.9841
0.2474 -3.4592 -2.0023 0.9841
0.3707 -3.4481 -2.0023 0.9841
0.6158 -3.4129 -2.0022 0.9841
0.7372 -3.3887 -2.0022 0.9841
0.8577 -3.3603 -2.0022 0.9841
0.9771 -3.3275 -2.0022 0.9841
1.3271 -3.2040 -2.0022 0.9841
1.4406 -3.1546 -2.0022 0.9841
1.5523 -3.1011 -2.0022 0.9841
1.6620 -3.0437 -2.0022 0.9841
1.8749 -2.9174 -2.0022 0.9841
2.1760 -2.7002 -2.0022 0.9841
2.3631 -2.5381 -2.0022 0.9841
2.4521 -2.4521 -2.0021 0.9841
2.6208 -2.2709 -2.0021 0.9841
2.7001 -2.1759 -2.0021 0.9841
2.7761 -2.0781 -2.0021 0.9841
2.9823 -1.7695 -2.0021 0.9841
3.0435 -1.6619 -2.0021 0.9841
3.1008 -1.5522 -2.0020 0.9841
1.8508 -0.8452 -1.1747 0.9906
1.8620 -0.7713 -1.1636 0.9907
1.9033 -0.6335 -1.1581 0.9908
1.9351 -0.5682 -1.1644 0.9907
1.9883 -0.4325 -1.1748 0.9906
2.0359 -0.1456 -1.1784 0.9906
