ply
format ascii 1.0
element vertex 736
property float32 x
property float32 y
property float32 z
property float32 I
end_header
-0.3544 -9.9221 -0.7280 0.9610
0.0000 -9.9035 -0.7261 0.9611
0.7077 -9.8942 -0.7273 0.9610
-0.6991 -9.7740 -0.9408 0.9614
0.3480 -9.7434 -0.9360 0.9616
1.0473 -9.7416 -0.9406 0.9614
-2.1096 -9.6978 -1.1789 0.9608
-1.7398 -9.6433 -1.1640 0.9613
-1.3886 -9.6577 -1.1590 0.9615
-1.0387 -9.6611 -1.1542 0.9616
-0.6908 -9.6593 -1.1503 0.9617
0.0000 -9.6389 -1.1450 0.9619
0.3441 -9.6332 -1.1450 0.9619
1.0328 -9.6067 -1.1477 0.9618
1.7290 -9.5830 -1.1567 0.9615
-0.6869 -9.6037 -1.3642 0.9618
-0.3427 -9.5960 -1.3605 0.9620
0.0000 -9.5847 -1.3580 0.9620
0.6846 -9.5715 -1.3596 0.9620
1.7219 -9.5435 -1.3741 0.9616
2.0779 -9.5522 -1.3851 0.9613
-1.3771 -9.5779 -1.5941 0.9615
-0.3418 -9.5706 -1.5777 0.9619
0.6829 -9.5477 -1.5769 0.9619
1.7250 -9.5612 -1.6005 0.9614
-0.6882 -9.6224 -1.8133 0.9615
-0.3433 -9.6127 -1.8080 0.9616
0.0000 -9.6041 -1.8052 0.9617
1.3664 -9.5036 -1.8047 0.9617
-9.4426 0.0000 -1.9960 0.9621
-9.4187 -0.6736 -1.9960 0.9621
-9.3469 -1.3439 -1.9961 0.9621
-9.2931 -1.6767 -1.9961 0.9621
-9.1503 -2.3355 -1.9962 0.9621
-9.0614 -2.6607 -1.9963 0.9621
-8.8491 -3.3005 -1.9964 0.9621
-8.5918 -3.9237 -1.9966 0.9621
-8.2908 -4.5271 -1.9968 0.9621
-7.7607 -5.3883 -1.9971 0.9621
-7.1417 -6.1883 -1.9975 0.9621
-6.9167 -6.4397 -1.9976 0.9621
-6.6829 -6.6830 -1.9978 0.9621
-6.4406 -6.9177 -1.9979 0.9621
-6.1901 -7.1438 -1.9981 0.9621
-5.9317 -7.3607 -1.9982 0.9621
-5.6656 -7.5684 -1.9984 0.9621
-4.8254 -8.1328 -1.9989 0.9621
-4.2337 -8.4578 -1.9993 0.9621
-3.9295 -8.6044 -1.9995 0.9621
-3.6202 -8.7400 -1.9997 0.9621
-3.3063 -8.8644 -1.9999 0.9621
-2.6660 -9.0795 -2.0003 0.9621
-2.0119 -9.2484 -2.0007 0.9620
-1.6807 -9.3153 -2.0009 0.9620
-0.3380 -9.4635 -2.0017 0.9620
0.3381 -9.4654 -2.0021 0.9620
0.6758 -9.4483 -2.0023 0.9620
1.0127 -9.4191 -2.0025 0.9620
1.3483 -9.3779 -2.0027 0.9620
1.6824 -9.3247 -2.0029 0.9620
2.0143 -9.2597 -2.0031 0.9620
2.6703 -9.0942 -2.0035 0.9620
3.9388 -8.6248 -2.0042 0.9620
4.2445 -8.4795 -2.0044 0.9620
4.5449 -8.3234 -2.0046 0.9620
5.1280 -7.9793 -2.0049 0.9620
5.4100 -7.7918 -2.0051 0.9620
5.6851 -7.5944 -2.0053 0.9620
5.9530 -7.3872 -2.0054 0.9620
6.2133 -7.1706 -2.0056 0.9620
6.7100 -6.7100 -2.0059 0.9619
6.9457 -6.4667 -2.0060 0.9619
8.1645 -4.8442 -2.0067 0.9619
8.6367 -3.9442 -2.0070 0.9619
8.7723 -3.6336 -2.0071 0.9619
9.1113 -2.6753 -2.0072 0.9619
9.2012 -2.3484 -2.0073 0.9619
9.3456 -1.6861 -2.0074 0.9619
9.4725 -0.6775 -2.0074 0.9619
9.4907 -0.3389 -2.0074 0.9619
-8.4951 0.0000 -1.9965 0.9657
-8.4897 -0.3032 -1.9966 0.9657
-8.4466 -0.9081 -1.9966 0.9657
-8.3606 -1.5084 -1.9967 0.9657
-8.3016 -1.8059 -1.9967 0.9657
-8.0617 -2.6832 -1.9969 0.9657
-7.7295 -3.5299 -1.9971 0.9657
-7.4586 -4.0727 -1.9973 0.9657
-7.3089 -4.3365 -1.9974 0.9657
-6.9816 -4.8474 -1.9976 0.9657
-6.8045 -5.0938 -1.9977 0.9657
-5.7938 -6.2230 -1.9983 0.9657
-5.0965 -6.8081 -1.9987 0.9657
-4.5986 -7.1555 -1.9990 0.9657
-4.3406 -7.3156 -1.9992 0.9657
-3.5346 -7.7396 -1.9997 0.9656
-3.2564 -7.8615 -1.9999 0.9656
-2.9739 -7.9734 -2.0000 0.9656
-2.1051 -8.2478 -2.0006 0.9656
-1.8096 -8.3185 -2.0008 0.9656
-1.2117 -8.4279 -2.0011 0.9656
-0.6075 -8.4944 -2.0015 0.9656
-0.3040 -8.5115 -2.0017 0.9656
0.0000 -8.5177 -2.0019 0.9656
0.3041 -8.5130 -2.0020 0.9656
0.6078 -8.4975 -2.0022 0.9656
0.9108 -8.4712 -2.0024 0.9656
2.6921 -8.0883 -2.0035 0.9656
3.2628 -7.8770 -2.0038 0.9656
3.5421 -7.7562 -2.0040 0.9656
4.6114 -7.1754 -2.0046 0.9656
5.1123 -6.8292 -2.0049 0.9656
5.3531 -6.6428 -2.0051 0.9656
6.0337 -6.0337 -2.0055 0.9655
6.4496 -5.5886 -2.0057 0.9655
7.1808 -4.6148 -2.0061 0.9655
7.4924 -4.0911 -2.0063 0.9655
7.6339 -3.8213 -2.0064 0.9655
7.8877 -3.2672 -2.0065 0.9655
7.9995 -2.9836 -2.0066 0.9655
8.1924 -2.4055 -2.0067 0.9655
8.2732 -2.1116 -2.0067 0.9655
8.3434 -1.8150 -2.0068 0.9655
8.4030 -1.5161 -2.0068 0.9655
8.4900 -0.9128 -2.0068 0.9655
8.5172 -0.6092 -2.0068 0.9655
8.5335 -0.3048 -2.0068 0.9655
-7.6934 -0.5502 -1.9970 0.9686
-7.6689 -0.8245 -1.9971 0.9686
-7.6347 -1.0977 -1.9971 0.9686
-7.5908 -1.3695 -1.9971 0.9686
-7.5372 -1.6396 -1.9972 0.9686
-7.2279 -2.6959 -1.9974 0.9686
-7.1273 -2.9522 -1.9974 0.9686
-6.7717 -3.6976 -1.9977 0.9686
-6.4912 -4.1716 -1.9978 0.9686
-6.3385 -4.4009 -1.9979 0.9686
-6.0090 -4.8424 -1.9981 0.9686
-5.6489 -5.2593 -1.9984 0.9686
-5.4579 -5.4579 -1.9985 0.9686
-5.0553 -5.8341 -1.9987 0.9686
-4.8441 -6.0112 -1.9989 0.9686
-4.6268 -6.1807 -1.9990 0.9686
-3.7012 -6.7782 -1.9996 0.9686
-3.4571 -6.9065 -1.9997 0.9686
-3.2087 -7.0260 -1.9999 0.9686
-2.9561 -7.1366 -2.0000 0.9686
-1.9110 -7.4870 -2.0007 0.9686
-1.6426 -7.5511 -2.0008 0.9686
-1.1000 -7.6503 -2.0012 0.9686
-0.2759 -7.7260 -2.0017 0.9686
0.0000 -7.7315 -2.0018 0.9686
0.2760 -7.7273 -2.0020 0.9686
0.8267 -7.6892 -2.0023 0.9686
1.1007 -7.6554 -2.0025 0.9685
1.6443 -7.5586 -2.0028 0.9685
2.4434 -7.3413 -2.0033 0.9685
2.9614 -7.1494 -2.0036 0.9685
3.4644 -6.9209 -2.0039 0.9685
3.9498 -6.6571 -2.0042 0.9685
4.1852 -6.5123 -2.0043 0.9685
4.4153 -6.3592 -2.0045 0.9685
5.0708 -5.8520 -2.0049 0.9685
5.4760 -5.4759 -2.0051 0.9685
5.8533 -5.0719 -2.0053 0.9685
6.0309 -4.8600 -2.0054 0.9685
6.5168 -4.1881 -2.0057 0.9685
6.7995 -3.7128 -2.0059 0.9685
7.1581 -2.9650 -2.0061 0.9685
7.6258 -1.3758 -2.0063 0.9685
7.6701 -1.1028 -2.0063 0.9685
7.7046 -0.8283 -2.0064 0.9685
-7.0557 0.0000 -1.9974 0.9711
-7.0512 -0.2518 -1.9974 0.9711
-7.0378 -0.5033 -1.9974 0.9711
-6.8371 -1.7450 -1.9976 0.9711
-6.7706 -1.9880 -1.9976 0.9711
-6.6955 -2.2285 -1.9977 0.9711
-6.5199 -2.7006 -1.9978 0.9711
-6.4195 -2.9317 -1.9979 0.9711
-6.3110 -3.1591 -1.9979 0.9711
-6.1945 -3.3824 -1.9980 0.9711
-5.9379 -3.8160 -1.9982 0.9711
-5.6510 -4.2303 -1.9984 0.9711
-5.4967 -4.4295 -1.9984 0.9711
-5.3354 -4.6231 -1.9986 0.9711
-5.1672 -4.8109 -1.9987 0.9711
-4.9925 -4.9925 -1.9988 0.9711
-4.8114 -5.1678 -1.9989 0.9711
-4.2322 -5.6535 -1.9992 0.9711
-4.0279 -5.8013 -1.9994 0.9711
-3.6043 -6.0747 -1.9996 0.9711
-3.3854 -6.1999 -1.9998 0.9711
-3.1622 -6.3172 -1.9999 0.9711
-2.4693 -6.6204 -2.0003 0.9711
-2.2316 -6.7048 -2.0005 0.9711
-1.9910 -6.7807 -2.0006 0.9710
-1.5024 -6.9065 -2.0009 0.9710
-1.2550 -6.9562 -2.0011 0.9710
-1.0060 -6.9971 -2.0012 0.9710
-0.7557 -7.0291 -2.0014 0.9710
-0.5044 -7.0522 -2.0015 0.9710
0.5045 -7.0543 -2.0021 0.9710
1.2560 -6.9615 -2.0026 0.9710
1.7497 -6.8552 -2.0029 0.9710
1.9934 -6.7889 -2.0030 0.9710
2.4730 -6.6303 -2.0033 0.9710
2.7083 -6.5383 -2.0035 0.9710
2.9401 -6.4379 -2.0036 0.9710
3.1682 -6.3293 -2.0037 0.9710
3.6122 -6.0879 -2.0040 0.9710
3.8274 -5.9555 -2.0041 0.9710
4.8254 -5.1828 -2.0047 0.9710
5.0076 -5.0076 -2.0048 0.9710
5.3526 -4.6381 -2.0050 0.9710
5.5150 -4.4443 -2.0051 0.9710
5.9592 -3.8298 -2.0054 0.9710
6.0924 -3.6148 -2.0054 0.9710
6.2177 -3.3951 -2.0055 0.9710
6.4445 -2.9431 -2.0056 0.9710
6.7984 -1.9962 -2.0058 0.9710
6.8654 -1.7523 -2.0059 0.9710
6.9237 -1.5062 -2.0059 0.9710
6.9732 -1.2581 -2.0059 0.9710
7.0137 -1.0084 -2.0059 0.9710
7.0814 -0.2529 -2.0060 0.9710
-6.4910 -0.2318 -1.9978 0.9732
-6.4580 -0.6943 -1.9978 0.9732
-6.2938 -1.6064 -1.9979 0.9732
-6.2326 -1.8301 -1.9980 0.9732
-6.1635 -2.0514 -1.9980 0.9732
-6.0017 -2.4860 -1.9981 0.9732
-5.7022 -3.1136 -1.9983 0.9732
-5.4659 -3.5127 -1.9984 0.9732
-5.0598 -4.0774 -1.9987 0.9732
-4.7565 -4.4284 -1.9989 0.9732
-4.2565 -4.9122 -1.9992 0.9732
-3.8956 -5.2040 -1.9994 0.9732
-3.7076 -5.3400 -1.9995 0.9732
-3.5149 -5.4692 -1.9997 0.9732
-3.3176 -5.5916 -1.9998 0.9732
-3.1161 -5.7068 -1.9999 0.9732
-2.2728 -6.0937 -2.0004 0.9731
-2.0540 -6.1714 -2.0006 0.9731
-1.6088 -6.3031 -2.0008 0.9731
-1.1552 -6.4026 -2.0011 0.9731
-0.9260 -6.4402 -2.0013 0.9731
-0.6956 -6.4696 -2.0014 0.9731
-0.2323 -6.5037 -2.0017 0.9731
0.0000 -6.5083 -2.0018 0.9731
0.2323 -6.5046 -2.0020 0.9731
0.4644 -6.4926 -2.0021 0.9731
0.6959 -6.4724 -2.0022 0.9731
1.1560 -6.4071 -2.0025 0.9731
1.3840 -6.3622 -2.0026 0.9731
1.6103 -6.3092 -2.0028 0.9731
2.0566 -6.1791 -2.0030 0.9731
2.2760 -6.1021 -2.0032 0.9731
2.9158 -5.8250 -2.0036 0.9731
3.7160 -5.3520 -2.0040 0.9731
3.9048 -5.2162 -2.0041 0.9731
4.2675 -4.9249 -2.0044 0.9731
4.6084 -4.6084 -2.0046 0.9731
4.7702 -4.4412 -2.0047 0.9731
5.0753 -4.0899 -2.0048 0.9731
5.3546 -3.7177 -2.0050 0.9731
5.4840 -3.5244 -2.0051 0.9731
5.6065 -3.3265 -2.0051 0.9731
6.0236 -2.4950 -2.0054 0.9731
6.1089 -2.2785 -2.0054 0.9731
6.1865 -2.0591 -2.0055 0.9731
6.4543 -0.9280 -2.0056 0.9731
6.5041 -0.4652 -2.0056 0.9731
-6.0109 0.0000 -1.9981 0.9750
-6.0071 -0.2145 -1.9981 0.9750
-5.9956 -0.4288 -1.9981 0.9750
-5.9156 -1.0673 -1.9981 0.9750
-5.8738 -1.2778 -1.9982 0.9750
-5.7679 -1.6936 -1.9982 0.9750
-5.6327 -2.1009 -1.9983 0.9750
-5.5542 -2.3006 -1.9984 0.9750
-5.2769 -2.8814 -1.9986 0.9750
-5.1709 -3.0680 -1.9986 0.9750
-5.0583 -3.2508 -1.9987 0.9750
-4.9392 -3.4294 -1.9988 0.9750
-4.6824 -3.7733 -1.9989 0.9750
-4.5449 -3.9382 -1.9990 0.9750
-4.4017 -4.0981 -1.9991 0.9750
-3.9389 -4.5458 -1.9994 0.9750
-3.6050 -4.8157 -1.9996 0.9750
-3.4310 -4.9416 -1.9997 0.9750
-3.2526 -5.0611 -1.9998 0.9750
-3.0701 -5.1743 -1.9999 0.9750
-2.8836 -5.2809 -2.0000 0.9750
-2.6934 -5.3808 -2.0002 0.9750
-2.3030 -5.5599 -2.0004 0.9750
-2.1032 -5.6389 -2.0005 0.9750
-1.9007 -5.7107 -2.0006 0.9749
-1.6958 -5.7753 -2.0008 0.9749
-1.2796 -5.8823 -2.0010 0.9749
-0.8568 -5.9593 -2.0013 0.9749
-0.6436 -5.9865 -2.0014 0.9749
-0.2149 -6.0179 -2.0017 0.9749
0.2150 -6.0187 -2.0019 0.9749
0.8573 -5.9624 -2.0023 0.9749
1.0696 -5.9284 -2.0024 0.9749
1.6975 -5.7812 -2.0028 0.9749
1.9029 -5.7172 -2.0029 0.9749
2.3062 -5.5676 -2.0032 0.9749
2.5036 -5.4821 -2.0033 0.9749
2.6978 -5.3895 -2.0034 0.9749
2.8886 -5.2901 -2.0035 0.9749
3.0758 -5.1839 -2.0036 0.9749
4.5574 -3.9490 -2.0045 0.9749
4.6957 -3.7840 -2.0046 0.9749
4.9540 -3.4396 -2.0047 0.9749
5.0738 -3.2607 -2.0048 0.9749
5.1871 -3.0777 -2.0049 0.9749
5.3938 -2.6999 -2.0050 0.9749
5.4868 -2.5058 -2.0050 0.9749
5.5729 -2.3084 -2.0051 0.9749
5.6519 -2.1080 -2.0051 0.9749
5.7881 -1.6995 -2.0052 0.9749
6.0174 -0.4304 -2.0053 0.9749
6.0289 -0.2153 -2.0053 0.9749
-5.5880 0.0000 -1.9983 0.9765
-5.5844 -0.1994 -1.9983 0.9765
-5.5561 -0.5973 -1.9983 0.9765
-5.5312 -0.7953 -1.9984 0.9765
-5.4148 -1.3820 -1.9984 0.9765
-5.3621 -1.5744 -1.9985 0.9765
-5.2363 -1.9530 -1.9986 0.9765
-5.1634 -2.1387 -1.9986 0.9765
-5.0839 -2.3217 -1.9987 0.9765
-4.7023 -3.0220 -1.9989 0.9765
-4.5916 -3.1880 -1.9990 0.9765
-4.3528 -3.5077 -1.9991 0.9765
-4.2250 -3.6610 -1.9992 0.9765
-3.8100 -4.0922 -1.9995 0.9765
-3.6616 -4.2257 -1.9996 0.9765
-3.3512 -4.4766 -1.9997 0.9765
-2.8539 -4.8099 -2.0001 0.9765
-2.3237 -5.0883 -2.0004 0.9765
-1.5763 -5.3684 -2.0008 0.9765
-1.3838 -5.4216 -2.0010 0.9765
-0.7965 -5.5394 -2.0013 0.9765
-0.5983 -5.5647 -2.0014 0.9765
-0.3993 -5.5828 -2.0016 0.9765
-0.1998 -5.5938 -2.0017 0.9765
0.0000 -5.5977 -2.0018 0.9765
0.3994 -5.5842 -2.0020 0.9765
0.9942 -5.5104 -2.0024 0.9765
1.1903 -5.4718 -2.0025 0.9765
1.9574 -5.2479 -2.0030 0.9765
2.5075 -5.0094 -2.0033 0.9765
2.6849 -4.9170 -2.0034 0.9765
2.8588 -4.8183 -2.0035 0.9765
3.0291 -4.7134 -2.0036 0.9765
3.3580 -4.4857 -2.0038 0.9765
3.8187 -4.1016 -2.0041 0.9765
3.9629 -3.9629 -2.0042 0.9765
4.1020 -3.8191 -2.0042 0.9765
4.2358 -3.6703 -2.0043 0.9765
4.3643 -3.5170 -2.0044 0.9765
4.4872 -3.3591 -2.0045 0.9765
4.7157 -3.0306 -2.0046 0.9765
4.9202 -2.6866 -2.0047 0.9765
5.0131 -2.5094 -2.0048 0.9765
5.2529 -1.9592 -2.0049 0.9765
5.4325 -1.3866 -2.0050 0.9765
5.4786 -1.1918 -2.0050 0.9765
5.5498 -0.7979 -2.0051 0.9765
5.5748 -0.5993 -2.0051 0.9765
5.5926 -0.4000 -2.0051 0.9765
5.6033 -0.2001 -2.0051 0.9765
-5.2118 -0.1861 -1.9985 0.9779
-5.1853 -0.5575 -1.9986 0.9779
-4.9487 -1.6471 -1.9987 0.9779
-4.3885 -2.8203 -1.9991 0.9779
-4.2851 -2.9752 -1.9992 0.9779
-4.0623 -3.2736 -1.9993 0.9779
-3.9430 -3.4166 -1.9994 0.9779
-3.8187 -3.5553 -1.9994 0.9779
-3.2744 -4.0633 -1.9998 0.9779
-3.1274 -4.1777 -1.9999 0.9779
-2.9764 -4.2869 -2.0000 0.9779
-2.6633 -4.4887 -2.0002 0.9779
-2.1685 -4.7484 -2.0005 0.9779
-1.6488 -4.9538 -2.0008 0.9779
-1.4710 -5.0098 -2.0009 0.9779
-1.2913 -5.0594 -2.0010 0.9779
-0.5583 -5.1928 -2.0014 0.9779
0.5585 -5.1946 -2.0021 0.9779
0.7436 -5.1716 -2.0022 0.9779
1.2923 -5.0633 -2.0026 0.9779
1.8265 -4.8969 -2.0029 0.9779
2.1714 -4.7547 -2.0031 0.9779
2.9818 -4.2946 -2.0036 0.9779
3.1333 -4.1856 -2.0037 0.9779
3.5633 -3.8272 -2.0039 0.9778
3.6977 -3.6977 -2.0040 0.9778
3.8275 -3.5635 -2.0041 0.9778
3.9524 -3.4248 -2.0041 0.9778
4.1869 -3.1343 -2.0043 0.9778
4.4001 -2.8278 -2.0044 0.9778
4.4984 -2.6690 -2.0045 0.9778
4.6776 -2.3414 -2.0046 0.9778
4.7583 -2.1730 -2.0046 0.9778
4.8329 -2.0018 -2.0046 0.9778
4.9013 -1.8281 -2.0047 0.9778
4.9636 -1.6520 -2.0047 0.9778
5.0194 -1.4738 -2.0047 0.9778
5.2016 -0.5592 -2.0048 0.9778
-1.9308 -0.0690 -0.7907 0.9917
-1.9524 -0.1396 -0.8011 0.9916
-1.9569 -0.2104 -0.8055 0.9915
-1.9449 -0.2796 -0.8042 0.9915
-4.6861 -1.3760 -1.9989 0.9791
-4.6341 -1.5424 -1.9989 0.9791
-4.5762 -1.7068 -1.9990 0.9791
-4.4430 -2.0290 -1.9990 0.9791
-4.3678 -2.1864 -1.9991 0.9791
-4.2871 -2.3409 -1.9991 0.9791
-4.1094 -2.6409 -1.9993 0.9791
-4.0126 -2.7860 -1.9993 0.9791
-3.9108 -2.9276 -1.9994 0.9791
-3.8039 -3.0654 -1.9994 0.9791
-3.6922 -3.1993 -1.9995 0.9791
-3.5758 -3.3292 -1.9996 0.9791
-3.3294 -3.5761 -1.9997 0.9791
-3.1998 -3.6928 -1.9998 0.9791
-2.7871 -4.0142 -2.0001 0.9791
-2.6422 -4.1113 -2.0002 0.9791
-2.4939 -4.2032 -2.0003 0.9791
-2.1879 -4.3708 -2.0004 0.9791
-1.7083 -4.5803 -2.0007 0.9791
-1.5439 -4.6386 -2.0008 0.9791
-1.3774 -4.6909 -2.0009 0.9791
-1.2091 -4.7374 -2.0010 0.9791
-0.8682 -4.8121 -2.0013 0.9791
-0.6959 -4.8402 -2.0014 0.9791
-0.5227 -4.8622 -2.0015 0.9791
-0.3489 -4.8781 -2.0016 0.9791
-0.1746 -4.8877 -2.0017 0.9791
1.0400 -4.7808 -2.0024 0.9791
1.2100 -4.7408 -2.0025 0.9791
2.0330 -4.4517 -2.0030 0.9791
2.1908 -4.3765 -2.0031 0.9791
2.4976 -4.2095 -2.0033 0.9791
2.6464 -4.1179 -2.0034 0.9791
2.7918 -4.0209 -2.0035 0.9791
3.0718 -3.8118 -2.0036 0.9791
3.2060 -3.6999 -2.0037 0.9791
3.3362 -3.5833 -2.0038 0.9791
3.5835 -3.3364 -2.0039 0.9791
4.0224 -2.7928 -2.0042 0.9791
4.4549 -2.0345 -2.0044 0.9791
4.5248 -1.8742 -2.0045 0.9791
4.6471 -1.5467 -2.0045 0.9791
4.7457 -1.2113 -2.0046 0.9791
4.8700 -0.5236 -2.0046 0.9791
-1.5249 -0.1639 -0.6684 0.9933
-1.5151 -0.2178 -0.6671 0.9933
-1.5001 -0.2706 -0.6643 0.9934
-1.5214 -0.3310 -0.6786 0.9932
-1.5485 -0.3952 -0.6965 0.9931
-1.5707 -0.4612 -0.7134 0.9929
-1.5875 -0.5284 -0.7292 0.9927
-1.5984 -0.5962 -0.7435 0.9926
-3.9454 -2.3409 -1.9993 0.9802
-3.8594 -2.4803 -1.9994 0.9802
-3.7685 -2.6165 -1.9995 0.9802
-3.4676 -3.0047 -1.9996 0.9802
-3.3582 -3.1266 -1.9997 0.9802
-3.2446 -3.2446 -1.9998 0.9802
-3.0051 -3.4681 -1.9999 0.9802
-2.4814 -3.8611 -2.0003 0.9802
-1.6044 -4.3014 -2.0008 0.9802
-1.4499 -4.3562 -2.0009 0.9802
-1.1355 -4.4489 -2.0011 0.9802
-0.8153 -4.5191 -2.0013 0.9802
-0.6535 -4.5455 -2.0014 0.9802
-0.4909 -4.5662 -2.0015 0.9802
-0.1639 -4.5900 -2.0017 0.9802
0.0000 -4.5931 -2.0018 0.9802
0.6538 -4.5473 -2.0022 0.9802
0.8157 -4.5213 -2.0023 0.9802
1.4512 -4.3600 -2.0026 0.9801
1.6059 -4.3056 -2.0027 0.9801
1.7587 -4.2458 -2.0028 0.9801
1.9092 -4.1805 -2.0029 0.9801
2.3454 -3.9529 -2.0032 0.9801
2.4851 -3.8669 -2.0033 0.9801
2.7548 -3.6800 -2.0034 0.9801
2.8846 -3.5795 -2.0035 0.9801
3.2510 -3.2510 -2.0037 0.9801
3.3651 -3.1330 -2.0038 0.9801
3.4749 -3.0110 -2.0038 0.9801
4.0361 -2.2039 -2.0042 0.9801
4.1833 -1.9104 -2.0042 0.9801
4.2489 -1.7599 -2.0043 0.9801
4.3637 -1.4524 -2.0043 0.9801
4.4128 -1.2957 -2.0044 0.9801
4.4563 -1.1374 -2.0044 0.9801
4.5730 -0.4916 -2.0045 0.9801
4.5964 -0.1642 -2.0045 0.9801
-1.3333 0.0000 -0.6172 0.9941
-1.3376 -0.0477 -0.6195 0.9941
-1.3384 -0.0957 -0.6211 0.9941
-1.3351 -0.1435 -0.6215 0.9941
-1.3160 -0.2374 -0.6190 0.9941
-1.3013 -0.2831 -0.6164 0.9941
-1.3116 -0.3348 -0.6266 0.9941
-1.3324 -0.4435 -0.6500 0.9938
-1.3324 -0.4970 -0.6582 0.9938
-1.3150 -0.6006 -0.6692 0.9936
-3.8625 -1.9334 -1.9994 0.9811
-3.7911 -2.0701 -1.9994 0.9811
-3.7149 -2.2042 -1.9995 0.9811
-3.4583 -2.5889 -1.9996 0.9811
-3.3638 -2.7107 -1.9997 0.9811
-3.2650 -2.8291 -1.9998 0.9811
-3.0551 -3.0550 -1.9999 0.9811
-2.9442 -3.1623 -2.0000 0.9811
-2.5896 -3.4592 -2.0002 0.9811
-2.4645 -3.5496 -2.0003 0.9811
-2.2052 -3.7167 -2.0004 0.9811
-1.9346 -3.8648 -2.0006 0.9811
-1.7955 -3.9316 -2.0007 0.9811
-1.6541 -3.9933 -2.0008 0.9811
-1.3651 -4.1015 -2.0009 0.9811
-1.2179 -4.1478 -2.0010 0.9811
-1.0691 -4.1889 -2.0011 0.9811
-0.6153 -4.2797 -2.0014 0.9811
-0.1543 -4.3216 -2.0017 0.9811
0.0000 -4.3245 -2.0018 0.9811
0.3085 -4.3139 -2.0020 0.9811
0.4623 -4.3004 -2.0020 0.9811
0.7680 -4.2568 -2.0022 0.9811
1.0698 -4.1916 -2.0024 0.9811
1.6558 -3.9973 -2.0028 0.9811
1.7975 -3.9359 -2.0028 0.9811
2.2081 -3.7216 -2.0031 0.9811
2.8344 -3.2710 -2.0035 0.9811
2.9494 -3.1679 -2.0035 0.9811
3.0607 -3.0607 -2.0036 0.9811
3.2715 -2.8347 -2.0037 0.9811
3.3707 -2.7162 -2.0038 0.9811
3.5560 -2.4690 -2.0039 0.9811
3.6420 -2.3406 -2.0039 0.9811
3.7998 -2.0749 -2.0040 0.9811
4.0001 -1.6569 -2.0041 0.9811
4.1082 -1.3673 -2.0042 0.9811
4.1545 -1.2199 -2.0042 0.9811
4.2310 -0.9204 -2.0043 0.9811
4.3190 -0.3089 -2.0043 0.9811
4.3273 -0.1546 -2.0043 0.9811
-1.1954 0.0000 -0.5864 0.9947
-1.1953 -0.0855 -0.5878 0.9947
-1.1921 -0.1282 -0.5881 0.9947
-1.1791 -0.2127 -0.5877 0.9947
-1.1695 -0.2544 -0.5871 0.9947
-1.1578 -0.3854 -0.5986 0.9946
-1.1543 -0.4305 -0.6043 0.9945
-1.1484 -0.4757 -0.6097 0.9945
-1.1292 -0.5652 -0.6194 0.9944
-1.1113 -0.6068 -0.6211 0.9944
-3.4294 -2.2040 -1.9997 0.9820
-3.2636 -2.4431 -1.9998 0.9820
-3.1744 -2.5581 -1.9998 0.9820
-3.0812 -2.6699 -1.9999 0.9820
-2.7784 -2.9842 -2.0001 0.9820
-2.6702 -3.0816 -2.0001 0.9820
-2.5586 -3.1750 -2.0002 0.9820
-2.3258 -3.3497 -2.0003 0.9820
-2.2048 -3.4307 -2.0004 0.9820
-1.4255 -3.8219 -2.0009 0.9820
-0.8672 -3.9866 -2.0012 0.9820
-0.7244 -4.0152 -2.0013 0.9820
-0.5807 -4.0386 -2.0014 0.9820
-0.4362 -4.0569 -2.0015 0.9820
-0.1456 -4.0781 -2.0017 0.9820
0.0000 -4.0809 -2.0018 0.9820
0.1457 -4.0784 -2.0019 0.9820
0.4363 -4.0580 -2.0020 0.9820
0.7247 -4.0169 -2.0022 0.9820
0.8677 -3.9886 -2.0023 0.9820
1.0095 -3.9553 -2.0024 0.9820
1.4267 -3.8252 -2.0026 0.9820
1.6961 -3.7140 -2.0028 0.9820
1.8277 -3.6512 -2.0029 0.9820
2.0837 -3.5118 -2.0030 0.9820
2.3290 -3.3544 -2.0032 0.9820
2.5626 -3.1800 -2.0033 0.9820
2.6745 -3.0866 -2.0034 0.9820
2.8881 -2.8881 -2.0035 0.9820
3.3555 -2.3297 -2.0038 0.9820
3.4366 -2.2085 -2.0038 0.9820
3.6532 -1.8286 -2.0039 0.9820
3.7744 -1.5634 -2.0040 0.9820
3.9201 -1.1510 -2.0041 0.9820
3.9587 -1.0104 -2.0041 0.9820
4.0441 -0.5815 -2.0041 0.9820
-1.1058 0.0000 -0.5737 0.9950
-1.0905 -0.1967 -0.5749 0.9950
-1.0814 -0.2352 -0.5741 0.9950
-1.0576 -0.3945 -0.5856 0.9949
-1.0514 -0.4355 -0.5904 0.9949
-1.0298 -0.5154 -0.5974 0.9948
-1.0118 -0.5525 -0.5981 0.9948
-0.9917 -0.5884 -0.5982 0.9948
-3.1664 -2.1985 -1.9998 0.9828
-3.0860 -2.3102 -1.9999 0.9828
-3.0017 -2.4189 -1.9999 0.9828
-2.9135 -2.5246 -2.0000 0.9828
-2.8216 -2.6270 -2.0000 0.9828
-2.4194 -3.0022 -2.0003 0.9828
-1.9677 -3.3164 -2.0006 0.9828
-1.8482 -3.3847 -2.0006 0.9828
-1.7263 -3.4486 -2.0007 0.9828
-0.6850 -3.7965 -2.0013 0.9828
-0.4124 -3.8360 -2.0015 0.9828
-0.2753 -3.8484 -2.0016 0.9828
0.0000 -3.8586 -2.0018 0.9828
0.1377 -3.8563 -2.0018 0.9828
0.2753 -3.8491 -2.0019 0.9828
0.5492 -3.8199 -2.0021 0.9828
1.0875 -3.7035 -2.0024 0.9828
1.2190 -3.6625 -2.0025 0.9828
1.4773 -3.5665 -2.0026 0.9828
1.7281 -3.4522 -2.0028 0.9828
1.8503 -3.3885 -2.0029 0.9828
1.9701 -3.3204 -2.0029 0.9828
2.2021 -3.1716 -2.0031 0.9828
2.3140 -3.0911 -2.0031 0.9828
2.4229 -3.0066 -2.0032 0.9828
2.5287 -2.9183 -2.0033 0.9827
2.6314 -2.8263 -2.0033 0.9827
3.0072 -2.4233 -2.0035 0.9827
3.0918 -2.3145 -2.0036 0.9827
3.3217 -1.9708 -2.0037 0.9827
3.5136 -1.6046 -2.0038 0.9827
3.5686 -1.4782 -2.0039 0.9827
3.6651 -1.2199 -2.0039 0.9827
3.7429 -0.9553 -2.0040 0.9827
3.7746 -0.8211 -2.0040 0.9827
3.8015 -0.6859 -2.0040 0.9827
-1.0276 -0.0367 -0.5632 0.9953
-1.0265 -0.0734 -0.5637 0.9953
-1.0124 -0.1826 -0.5634 0.9953
-1.0039 -0.2184 -0.5627 0.9953
-0.9938 -0.2537 -0.5618 0.9953
-0.9785 -0.3257 -0.5648 0.9953
-0.9741 -0.3633 -0.5694 0.9953
-0.9580 -0.4375 -0.5768 0.9952
-0.9269 -0.5061 -0.5784 0.9952
-0.8661 -0.6013 -0.5775 0.9952
-2.9232 -2.1883 -2.0000 0.9835
-2.8433 -2.2913 -2.0000 0.9835
-2.6728 -2.4884 -2.0001 0.9835
-2.2917 -2.8438 -2.0004 0.9835
-2.1888 -2.9239 -2.0004 0.9835
-2.0831 -3.0002 -2.0005 0.9835
-1.7506 -3.2060 -2.0007 0.9835
-1.6351 -3.2666 -2.0008 0.9835
-1.5176 -3.3230 -2.0008 0.9835
-1.2767 -3.4230 -2.0010 0.9835
-0.9036 -3.5403 -2.0012 0.9835
-0.7767 -3.5704 -2.0013 0.9835
-0.5200 -3.6170 -2.0014 0.9835
-0.3906 -3.6334 -2.0015 0.9835
-0.2607 -3.6452 -2.0016 0.9835
-0.1304 -3.6523 -2.0017 0.9835
0.0000 -3.6548 -2.0018 0.9835
0.1305 -3.6526 -2.0018 0.9835
0.3907 -3.6343 -2.0020 0.9835
0.6491 -3.5974 -2.0021 0.9835
0.7771 -3.5721 -2.0022 0.9835
1.1546 -3.4690 -2.0025 0.9835
1.5190 -3.3260 -2.0027 0.9835
1.6368 -3.2698 -2.0027 0.9835
1.8660 -3.1449 -2.0029 0.9835
1.9771 -3.0764 -2.0029 0.9835
2.0857 -3.0040 -2.0030 0.9835
2.1917 -2.9277 -2.0031 0.9835
2.4923 -2.6769 -2.0032 0.9835
2.9284 -2.1921 -2.0035 0.9835
3.1461 -1.8667 -2.0036 0.9835
3.2108 -1.7532 -2.0037 0.9835
3.2714 -1.6375 -2.0037 0.9835
3.4279 -1.2785 -2.0038 0.9835
3.4713 -1.1554 -2.0038 0.9835
3.6005 -0.6496 -2.0039 0.9835
3.6215 -0.5207 -2.0039 0.9835
3.6564 -0.1306 -2.0039 0.9835
-0.9575 -0.0342 -0.5532 0.9956
-0.9259 -0.2363 -0.5517 0.9956
-0.9011 -0.3361 -0.5553 0.9956
-0.8823 -0.4029 -0.5600 0.9955
-0.7846 -0.5873 -0.5658 0.9955
-0.7671 -0.6182 -0.5688 0.9955
-2.5356 -2.3607 -2.0002 0.9841
-2.1741 -2.6979 -2.0004 0.9841
-1.5512 -3.0989 -2.0008 0.9841
-1.4397 -3.1524 -2.0009 0.9841
-1.2112 -3.2473 -2.0010 0.9841
-0.2473 -3.4580 -2.0016 0.9841
-0.1237 -3.4648 -2.0017 0.9841
0.1238 -3.4650 -2.0018 0.9841
0.2474 -3.4585 -2.0019 0.9841
0.3707 -3.4476 -2.0020 0.9841
0.6157 -3.4127 -2.0021 0.9841
0.7372 -3.3886 -2.0022 0.9841
0.8577 -3.3603 -2.0023 0.9841
0.9771 -3.3277 -2.0023 0.9841
1.4409 -3.1552 -2.0026 0.9841
1.5527 -3.1018 -2.0027 0.9841
1.6625 -3.0445 -2.0027 0.9841
1.7701 -2.9833 -2.0028 0.9841
1.9786 -2.8497 -2.0029 0.9841
2.1769 -2.7014 -2.0031 0.9841
2.2720 -2.6221 -2.0031 0.9841
2.3642 -2.5393 -2.0032 0.9841
2.5395 -2.3643 -2.0033 0.9841
2.8504 -1.9791 -2.0034 0.9841
2.9193 -1.8761 -2.0035 0.9841
3.0458 -1.6631 -2.0036 0.9841
1.8508 -0.8452 -1.1747 0.9906
1.8620 -0.7713 -1.1636 0.9907
1.8682 -0.6968 -1.1512 0.9908
1.9033 -0.6335 -1.1581 0.9908
1.9351 -0.5682 -1.1644 0.9907
2.0153 -0.3636 -1.1823 0.9906
2.0300 -0.2919 -1.1841 0.9906
2.0366 -0.2190 -1.1826 0.9906
2.0359 -0.1456 -1.1784 0.9906
