ply
format ascii 1.0
element vertex 750
property float32 x
property float32 y
property float32 z
property float32 I
end_header
-9.4697 0.0000 -2.0017 0.9620
-9.4642 -0.3380 -2.0018 0.9620
-9.2559 -2.0135 -2.0023 0.9620
-9.1786 -2.3427 -2.0024 0.9620
-9.0895 -2.6689 -2.0025 0.9620
-8.9889 -2.9918 -2.0025 0.9620
-8.8767 -3.3109 -2.0026 0.9620
-8.7533 -3.6258 -2.0027 0.9620
-8.4731 -4.2413 -2.0029 0.9620
-8.3167 -4.5412 -2.0030 0.9620
-8.1496 -4.8354 -2.0031 0.9620
-7.5869 -5.6795 -2.0033 0.9620
-7.3797 -5.9469 -2.0034 0.9620
-7.1630 -6.2068 -2.0035 0.9620
-6.4592 -6.9376 -2.0037 0.9620
-5.4067 -7.7872 -2.0039 0.9620
-5.1255 -7.9755 -2.0040 0.9620
-4.8377 -8.1535 -2.0040 0.9620
-4.2439 -8.4783 -2.0041 0.9620
-3.9387 -8.6246 -2.0042 0.9620
-3.3135 -8.8839 -2.0042 0.9620
-2.9944 -8.9967 -2.0043 0.9620
-1.6836 -9.3318 -2.0044 0.9620
-0.3385 -9.4767 -2.0045 0.9620
0.0000 -9.4827 -2.0045 0.9620
0.3385 -9.4767 -2.0045 0.9620
1.3495 -9.3862 -2.0044 0.9620
1.6837 -9.3320 -2.0044 0.9620
2.3451 -9.1879 -2.0044 0.9620
2.9945 -8.9970 -2.0044 0.9620
3.6286 -8.7602 -2.0043 0.9620
4.2442 -8.4788 -2.0042 0.9620
4.5440 -8.3217 -2.0042 0.9620
5.4071 -7.7878 -2.0041 0.9620
5.9486 -7.3818 -2.0040 0.9620
6.2082 -7.1646 -2.0039 0.9620
6.4597 -6.9382 -2.0038 0.9620
6.7030 -6.7030 -2.0038 0.9620
6.9378 -6.4593 -2.0037 0.9620
7.3804 -5.9475 -2.0036 0.9620
7.5877 -5.6801 -2.0035 0.9620
7.7853 -5.4055 -2.0034 0.9620
7.9730 -5.1239 -2.0034 0.9620
8.1505 -4.8359 -2.0033 0.9620
8.9900 -2.9921 -2.0028 0.9620
9.0906 -2.6692 -2.0027 0.9620
9.2571 -2.0137 -2.0025 0.9620
9.3226 -1.6820 -2.0024 0.9620
9.3763 -1.3481 -2.0023 0.9620
-8.5171 0.0000 -2.0017 0.9656
-8.4962 -0.6077 -2.0019 0.9656
-8.4319 -1.2123 -2.0021 0.9656
-8.3836 -1.5126 -2.0021 0.9656
-8.2550 -2.1070 -2.0023 0.9656
-7.9834 -2.9777 -2.0026 0.9656
-7.8724 -3.2608 -2.0026 0.9656
-7.7513 -3.5399 -2.0027 0.9656
-7.6203 -3.8145 -2.0028 0.9656
-7.4796 -4.0842 -2.0029 0.9656
-7.3293 -4.3487 -2.0029 0.9656
-7.0009 -4.8608 -2.0031 0.9656
-6.2387 -5.8085 -2.0034 0.9656
-5.8088 -6.2391 -2.0035 0.9656
-5.1091 -6.8249 -2.0037 0.9656
-4.8623 -7.0031 -2.0037 0.9656
-4.6094 -7.1724 -2.0038 0.9656
-4.0862 -7.4833 -2.0039 0.9656
-3.8165 -7.6245 -2.0039 0.9656
-3.5421 -7.7560 -2.0039 0.9656
-3.2630 -7.8776 -2.0040 0.9656
-2.9798 -7.9892 -2.0040 0.9656
-2.1088 -8.2623 -2.0041 0.9656
-1.5141 -8.3919 -2.0041 0.9656
-1.2136 -8.4407 -2.0042 0.9656
-0.3044 -8.5222 -2.0042 0.9656
0.3044 -8.5222 -2.0042 0.9656
0.6084 -8.5059 -2.0042 0.9656
1.2136 -8.4408 -2.0042 0.9656
1.5141 -8.3921 -2.0042 0.9656
2.1089 -8.2626 -2.0041 0.9656
2.4025 -8.1820 -2.0041 0.9656
2.9800 -7.9896 -2.0041 0.9656
3.8168 -7.6249 -2.0040 0.9656
4.0864 -7.4837 -2.0040 0.9656
4.3508 -7.3329 -2.0039 0.9656
4.6097 -7.1728 -2.0039 0.9656
4.8627 -7.0035 -2.0038 0.9656
5.1094 -6.8254 -2.0038 0.9656
5.8093 -6.2396 -2.0036 0.9656
7.0016 -4.8613 -2.0033 0.9656
7.1704 -4.6081 -2.0032 0.9656
7.3300 -4.3491 -2.0031 0.9656
7.4803 -4.0846 -2.0031 0.9656
7.6211 -3.8149 -2.0030 0.9656
7.8732 -3.2612 -2.0028 0.9656
8.0852 -2.6910 -2.0027 0.9656
8.1758 -2.4006 -2.0026 0.9656
8.2559 -2.1072 -2.0025 0.9656
8.3255 -1.8111 -2.0025 0.9656
8.4971 -0.6077 -2.0021 0.9656
-7.7265 -0.2759 -2.0018 0.9686
-7.7120 -0.5516 -2.0019 0.9686
-7.6536 -1.1004 -2.0020 0.9686
-7.6098 -1.3729 -2.0021 0.9686
-7.5562 -1.6437 -2.0022 0.9686
-7.4202 -2.1788 -2.0023 0.9686
-7.2464 -2.7028 -2.0025 0.9685
-7.1456 -2.9598 -2.0026 0.9685
-6.9167 -3.4623 -2.0027 0.9685
-6.7890 -3.7071 -2.0028 0.9685
-6.6526 -3.9471 -2.0028 0.9685
-6.5077 -4.1822 -2.0029 0.9685
-6.3545 -4.4120 -2.0030 0.9685
-6.1931 -4.6361 -2.0030 0.9685
-5.8470 -5.0664 -2.0032 0.9685
-5.6626 -5.2721 -2.0032 0.9685
-5.4710 -5.4710 -2.0033 0.9685
-5.2723 -5.6629 -2.0033 0.9685
-4.8552 -6.0249 -2.0034 0.9685
-4.4132 -6.3562 -2.0035 0.9685
-4.1836 -6.5099 -2.0036 0.9685
-3.9487 -6.6552 -2.0036 0.9685
-2.9616 -7.1499 -2.0038 0.9685
-2.4441 -7.3432 -2.0038 0.9685
-1.6452 -7.5627 -2.0039 0.9685
-1.3742 -7.6167 -2.0039 0.9685
-1.1015 -7.6609 -2.0039 0.9685
-0.8273 -7.6954 -2.0040 0.9685
-0.5521 -7.7201 -2.0040 0.9685
-0.2763 -7.7349 -2.0040 0.9685
0.0000 -7.7398 -2.0040 0.9685
0.5521 -7.7201 -2.0040 0.9685
1.1015 -7.6610 -2.0040 0.9685
1.3742 -7.6168 -2.0040 0.9685
1.9141 -7.4993 -2.0039 0.9685
2.1805 -7.4261 -2.0039 0.9685
3.2150 -7.0398 -2.0038 0.9685
3.7089 -6.7924 -2.0038 0.9685
3.9489 -6.6555 -2.0037 0.9685
4.1839 -6.5102 -2.0037 0.9685
4.6375 -6.1949 -2.0036 0.9685
4.8555 -6.0253 -2.0036 0.9685
5.0674 -5.8480 -2.0035 0.9685
5.6630 -5.2725 -2.0034 0.9685
5.8475 -5.0668 -2.0033 0.9685
6.0244 -4.8548 -2.0033 0.9685
6.7896 -3.7074 -2.0030 0.9685
7.2471 -2.7030 -2.0027 0.9685
7.5570 -1.6439 -2.0024 0.9686
7.6105 -1.3731 -2.0023 0.9686
7.6885 -0.8266 -2.0022 0.9686
7.7128 -0.5516 -2.0021 0.9686
-7.0535 -0.5045 -2.0019 0.9710
-7.0312 -0.7559 -2.0020 0.9710
-6.9108 -1.5034 -2.0022 0.9710
-6.8530 -1.7491 -2.0022 0.9710
-6.5352 -2.7070 -2.0025 0.9710
-6.3258 -3.1665 -2.0026 0.9710
-6.0842 -3.6099 -2.0028 0.9710
-5.9517 -3.8249 -2.0028 0.9710
-5.8115 -4.0350 -2.0029 0.9710
-5.3474 -4.6335 -2.0030 0.9710
-5.0034 -5.0035 -2.0032 0.9710
-4.8218 -5.1790 -2.0032 0.9710
-4.6340 -5.3479 -2.0033 0.9710
-4.4403 -5.5100 -2.0033 0.9710
-4.2409 -5.6651 -2.0033 0.9710
-4.0361 -5.8130 -2.0034 0.9710
-3.6112 -6.0864 -2.0035 0.9710
-3.1679 -6.3287 -2.0035 0.9710
-2.9401 -6.4379 -2.0036 0.9710
-2.7085 -6.5388 -2.0036 0.9710
-2.4734 -6.6314 -2.0036 0.9710
-1.9941 -6.7911 -2.0037 0.9710
-1.7504 -6.8581 -2.0037 0.9710
-1.5045 -6.9162 -2.0037 0.9710
-1.2567 -6.9656 -2.0037 0.9710
-0.7566 -7.0376 -2.0038 0.9710
-0.5049 -7.0601 -2.0038 0.9710
-0.2526 -7.0737 -2.0038 0.9710
0.2526 -7.0737 -2.0038 0.9710
0.5050 -7.0602 -2.0038 0.9710
0.7566 -7.0377 -2.0038 0.9710
1.0073 -7.0062 -2.0038 0.9710
1.5046 -6.9164 -2.0038 0.9710
1.9941 -6.7913 -2.0037 0.9710
3.3919 -6.2118 -2.0036 0.9710
3.6114 -6.0867 -2.0036 0.9710
3.8263 -5.9538 -2.0035 0.9710
4.0363 -5.8133 -2.0035 0.9710
4.6343 -5.3483 -2.0034 0.9710
4.8221 -5.1793 -2.0033 0.9710
5.0038 -5.0038 -2.0033 0.9710
5.5096 -4.4399 -2.0031 0.9710
5.8120 -4.0353 -2.0030 0.9710
6.2095 -3.3906 -2.0029 0.9710
6.3264 -3.1668 -2.0028 0.9710
6.4352 -2.9388 -2.0027 0.9710
6.6280 -2.4721 -2.0026 0.9710
6.7118 -2.2339 -2.0025 0.9710
6.7871 -1.9929 -2.0025 0.9710
6.8536 -1.7493 -2.0024 0.9710
6.9605 -1.2558 -2.0023 0.9710
7.0319 -0.7560 -2.0021 0.9710
-6.5042 -0.2323 -2.0018 0.9731
-6.4919 -0.4643 -2.0019 0.9731
-6.4427 -0.9263 -2.0020 0.9731
-6.4057 -1.1557 -2.0021 0.9731
-6.2461 -1.8340 -2.0023 0.9731
-6.1768 -2.0558 -2.0023 0.9731
-6.0997 -2.2751 -2.0024 0.9731
-6.0148 -2.4914 -2.0024 0.9731
-5.7145 -3.1204 -2.0026 0.9731
-5.4777 -3.5203 -2.0027 0.9731
-5.3487 -3.7136 -2.0028 0.9731
-4.9214 -4.2645 -2.0030 0.9731
-4.7662 -4.4375 -2.0030 0.9731
-4.6049 -4.6049 -2.0030 0.9731
-4.4377 -4.7664 -2.0031 0.9731
-4.2649 -4.9219 -2.0031 0.9731
-4.0865 -5.0711 -2.0032 0.9731
-3.1215 -5.7167 -2.0034 0.9731
-2.9155 -5.8245 -2.0034 0.9731
-2.4927 -6.0179 -2.0035 0.9731
-1.8352 -6.2501 -2.0035 0.9731
-1.3846 -6.3652 -2.0036 0.9731
-1.1566 -6.4106 -2.0036 0.9731
-0.6963 -6.4769 -2.0036 0.9731
-0.2325 -6.5101 -2.0036 0.9731
0.0000 -6.5142 -2.0036 0.9731
0.4647 -6.4977 -2.0036 0.9731
0.9271 -6.4479 -2.0036 0.9731
1.3847 -6.3653 -2.0036 0.9731
1.6110 -6.3118 -2.0036 0.9731
2.2764 -6.1033 -2.0036 0.9731
2.4928 -6.0181 -2.0035 0.9731
2.7059 -5.9252 -2.0035 0.9731
3.3237 -5.6018 -2.0034 0.9731
3.5215 -5.4795 -2.0034 0.9731
3.7147 -5.3502 -2.0034 0.9731
4.4380 -4.7667 -2.0032 0.9731
4.7665 -4.4378 -2.0031 0.9731
5.0707 -4.0862 -2.0030 0.9731
5.3491 -3.7139 -2.0029 0.9731
5.4781 -3.5205 -2.0029 0.9731
5.6001 -3.3227 -2.0028 0.9731
5.7150 -3.1206 -2.0028 0.9731
5.9227 -2.7048 -2.0027 0.9731
6.2466 -1.8342 -2.0024 0.9731
6.3079 -1.6100 -2.0024 0.9731
6.4063 -1.1558 -2.0022 0.9731
6.4433 -0.9264 -2.0022 0.9731
6.4925 -0.4644 -2.0021 0.9731
6.5047 -0.2323 -2.0020 0.9731
-6.0220 0.0000 -2.0018 0.9749
-5.9272 -1.0694 -2.0021 0.9749
-5.7154 -1.9023 -2.0023 0.9749
-5.6440 -2.1051 -2.0023 0.9749
-5.5654 -2.3053 -2.0024 0.9749
-5.3871 -2.6966 -2.0025 0.9749
-5.2875 -2.8872 -2.0026 0.9749
-4.9490 -3.4361 -2.0027 0.9749
-4.6915 -3.7806 -2.0028 0.9749
-4.5537 -3.9458 -2.0029 0.9749
-4.4100 -4.1059 -2.0029 0.9749
-4.2608 -4.2608 -2.0030 0.9749
-4.1061 -4.4102 -2.0030 0.9749
-3.4369 -4.9501 -2.0032 0.9749
-3.2581 -5.0697 -2.0032 0.9749
-3.0751 -5.1828 -2.0032 0.9749
-2.6976 -5.3892 -2.0033 0.9749
-2.5036 -5.4821 -2.0033 0.9749
-2.1062 -5.6469 -2.0034 0.9749
-1.9033 -5.7185 -2.0034 0.9749
-1.2812 -5.8894 -2.0034 0.9749
-1.0701 -5.9314 -2.0035 0.9749
-0.8577 -5.9659 -2.0035 0.9749
0.0000 -6.0273 -2.0035 0.9749
0.4300 -6.0119 -2.0035 0.9749
0.8578 -5.9659 -2.0035 0.9749
1.0702 -5.9315 -2.0035 0.9749
1.4906 -5.8400 -2.0035 0.9749
1.6981 -5.7830 -2.0035 0.9749
1.9034 -5.7187 -2.0034 0.9749
2.3064 -5.5682 -2.0034 0.9749
2.5037 -5.4823 -2.0034 0.9749
2.6977 -5.3894 -2.0034 0.9749
2.8883 -5.2896 -2.0033 0.9749
3.0752 -5.1830 -2.0033 0.9749
3.7813 -4.6924 -2.0032 0.9749
3.9463 -4.5543 -2.0031 0.9749
4.1063 -4.4105 -2.0031 0.9749
4.2610 -4.2610 -2.0031 0.9749
4.4103 -4.1061 -2.0030 0.9749
4.5540 -3.9460 -2.0030 0.9749
4.6918 -3.7809 -2.0029 0.9749
4.8236 -3.6109 -2.0029 0.9749
4.9493 -3.4364 -2.0029 0.9749
5.0687 -3.2575 -2.0028 0.9749
5.4802 -2.5027 -2.0026 0.9749
5.7158 -1.9024 -2.0024 0.9749
5.8367 -1.4897 -2.0023 0.9749
5.9886 -0.6438 -2.0021 0.9749
6.0075 -0.4297 -2.0020 0.9749
-5.5977 0.0000 -2.0018 0.9765
-5.5942 -0.1998 -2.0018 0.9765
-5.5837 -0.3994 -2.0019 0.9765
-5.5095 -0.9940 -2.0020 0.9765
-5.3721 -1.5774 -2.0022 0.9765
-5.3125 -1.7682 -2.0023 0.9765
-5.2462 -1.9567 -2.0023 0.9765
-5.0935 -2.3261 -2.0024 0.9765
-5.0073 -2.5065 -2.0025 0.9765
-4.9148 -2.6837 -2.0025 0.9765
-4.3607 -3.5141 -2.0028 0.9765
-4.0991 -3.8164 -2.0028 0.9765
-3.9603 -3.9604 -2.0029 0.9765
-3.5145 -4.3612 -2.0030 0.9765
-3.3567 -4.4840 -2.0030 0.9765
-2.8583 -4.8173 -2.0031 0.9765
-2.3270 -5.0955 -2.0032 0.9765
-2.1437 -5.1754 -2.0032 0.9765
-1.9576 -5.2486 -2.0033 0.9765
-1.5783 -5.3751 -2.0033 0.9765
-1.1908 -5.4740 -2.0033 0.9765
-0.9947 -5.5131 -2.0033 0.9765
-0.7973 -5.5451 -2.0034 0.9765
-0.5988 -5.5700 -2.0034 0.9765
-0.3996 -5.5879 -2.0034 0.9765
-0.2000 -5.5986 -2.0034 0.9765
0.0000 -5.6022 -2.0034 0.9765
0.2000 -5.5986 -2.0034 0.9765
0.3997 -5.5879 -2.0034 0.9765
0.5988 -5.5701 -2.0034 0.9765
0.7973 -5.5452 -2.0034 0.9765
0.9947 -5.5132 -2.0034 0.9765
1.3854 -5.4281 -2.0034 0.9765
2.1438 -5.1755 -2.0033 0.9765
2.3271 -5.0957 -2.0033 0.9765
2.6846 -4.9166 -2.0032 0.9765
3.1947 -4.6012 -2.0032 0.9765
3.3568 -4.4842 -2.0031 0.9765
3.5147 -4.3615 -2.0031 0.9765
3.6681 -4.2332 -2.0031 0.9765
3.8167 -4.0995 -2.0030 0.9765
4.6004 -3.1941 -2.0028 0.9765
4.7113 -3.0278 -2.0027 0.9765
4.9151 -2.6839 -2.0026 0.9765
5.3129 -1.7683 -2.0024 0.9765
5.4252 -1.3847 -2.0023 0.9765
5.4710 -1.1902 -2.0022 0.9765
5.5099 -0.9941 -2.0022 0.9765
5.5417 -0.7968 -2.0021 0.9765
5.5841 -0.3994 -2.0020 0.9765
5.5947 -0.1998 -2.0020 0.9765
-5.2236 0.0000 -2.0018 0.9779
-5.2204 -0.1864 -2.0018 0.9779
-5.1940 -0.5584 -2.0019 0.9779
-5.0130 -1.4719 -2.0022 0.9779
-4.9574 -1.6500 -2.0022 0.9779
-4.8955 -1.8259 -2.0023 0.9779
-4.8273 -1.9995 -2.0023 0.9779
-4.7530 -2.1706 -2.0024 0.9779
-4.6726 -2.3389 -2.0024 0.9779
-4.5862 -2.5043 -2.0025 0.9779
-4.2925 -2.9804 -2.0026 0.9779
-4.1835 -3.1317 -2.0026 0.9779
-4.0692 -3.2791 -2.0027 0.9779
-3.6955 -3.6955 -2.0028 0.9779
-3.5613 -3.8252 -2.0028 0.9779
-3.4226 -3.9499 -2.0029 0.9779
-2.9809 -4.2934 -2.0030 0.9779
-2.8258 -4.3971 -2.0030 0.9779
-2.6671 -4.4952 -2.0030 0.9779
-2.5050 -4.5876 -2.0031 0.9779
-2.3397 -4.6742 -2.0031 0.9779
-2.0004 -4.8293 -2.0031 0.9779
-1.8267 -4.8976 -2.0032 0.9779
-1.1112 -5.1079 -2.0032 0.9779
-0.9281 -5.1444 -2.0032 0.9779
-0.7439 -5.1742 -2.0033 0.9779
-0.3729 -5.2142 -2.0033 0.9779
-0.1866 -5.2242 -2.0033 0.9779
0.0000 -5.2275 -2.0033 0.9779
0.1866 -5.2242 -2.0033 0.9779
0.3729 -5.2142 -2.0033 0.9779
0.7440 -5.1743 -2.0033 0.9779
0.9282 -5.1444 -2.0033 0.9779
1.8268 -4.8978 -2.0032 0.9779
2.1715 -4.7549 -2.0032 0.9779
2.3398 -4.6743 -2.0032 0.9779
2.5051 -4.5878 -2.0031 0.9779
2.8259 -4.3973 -2.0031 0.9779
2.9811 -4.2935 -2.0031 0.9779
3.2797 -4.0698 -2.0030 0.9779
3.4228 -3.9501 -2.0030 0.9779
3.5615 -3.8254 -2.0029 0.9779
3.6957 -3.6957 -2.0029 0.9779
3.8252 -3.5614 -2.0029 0.9779
4.0694 -3.2793 -2.0028 0.9779
4.3964 -2.8254 -2.0027 0.9779
4.4943 -2.6666 -2.0026 0.9779
4.5865 -2.5044 -2.0026 0.9779
4.6729 -2.3391 -2.0025 0.9779
4.7533 -2.1708 -2.0025 0.9779
5.0626 -1.2921 -2.0023 0.9779
5.1713 -0.7435 -2.0021 0.9779
5.2109 -0.3727 -2.0020 0.9779
5.2208 -0.1865 -2.0020 0.9779
-1.8977 0.0000 -0.7767 0.9918
-1.9308 -0.0690 -0.7907 0.9917
-1.9569 -0.2104 -0.8055 0.9915
-1.9449 -0.2796 -0.8042 0.9915
-4.7799 -1.0398 -2.0021 0.9791
-4.5199 -1.8722 -2.0023 0.9791
-4.4503 -2.0324 -2.0023 0.9791
-4.3750 -2.1900 -2.0024 0.9791
-4.2942 -2.3448 -2.0024 0.9791
-4.2078 -2.4966 -2.0025 0.9791
-4.1161 -2.6453 -2.0025 0.9791
-3.6980 -3.2044 -2.0027 0.9791
-3.5814 -3.3344 -2.0027 0.9791
-3.3345 -3.5815 -2.0028 0.9791
-3.2046 -3.6983 -2.0028 0.9791
-3.0706 -3.8104 -2.0029 0.9791
-2.9327 -3.9176 -2.0029 0.9791
-2.7910 -4.0199 -2.0029 0.9791
-2.6458 -4.1170 -2.0029 0.9791
-2.1907 -4.3764 -2.0030 0.9791
-2.0331 -4.4519 -2.0030 0.9791
-1.7104 -4.5856 -2.0031 0.9791
-1.5456 -4.6438 -2.0031 0.9791
-1.3789 -4.6961 -2.0031 0.9791
-1.2104 -4.7423 -2.0031 0.9791
-1.0404 -4.7825 -2.0031 0.9791
-0.8690 -4.8166 -2.0032 0.9791
-0.3492 -4.8820 -2.0032 0.9791
-0.1747 -4.8914 -2.0032 0.9791
0.0000 -4.8945 -2.0032 0.9791
1.0404 -4.7826 -2.0032 0.9791
1.5456 -4.6439 -2.0031 0.9791
1.7104 -4.5857 -2.0031 0.9791
1.8730 -4.5217 -2.0031 0.9791
2.0331 -4.4520 -2.0031 0.9791
2.1907 -4.3765 -2.0031 0.9791
2.4973 -4.2090 -2.0030 0.9791
2.9328 -3.9178 -2.0030 0.9791
3.3347 -3.5817 -2.0029 0.9791
3.4603 -3.4603 -2.0028 0.9791
3.5816 -3.3346 -2.0028 0.9791
3.6982 -3.2045 -2.0028 0.9791
3.9173 -2.9324 -2.0027 0.9791
4.2081 -2.4968 -2.0026 0.9791
4.2944 -2.3449 -2.0025 0.9791
4.3753 -2.1901 -2.0025 0.9791
4.6420 -1.5450 -2.0023 0.9791
4.6941 -1.3783 -2.0023 0.9791
4.7402 -1.2099 -2.0022 0.9791
4.8420 -0.6962 -2.0021 0.9791
4.8637 -0.5229 -2.0020 0.9791
-1.5221 0.0000 -0.6634 0.9934
-1.5293 -0.1094 -0.6682 0.9933
-1.5214 -0.3309 -0.6786 0.9932
-1.5707 -0.4612 -0.7134 0.9929
-1.5875 -0.5284 -0.7292 0.9927
-4.2446 -1.7582 -2.0023 0.9802
-4.1792 -1.9086 -2.0023 0.9802
-4.1085 -2.0566 -2.0024 0.9802
-4.0325 -2.2019 -2.0024 0.9802
-3.8654 -2.4841 -2.0025 0.9802
-3.7743 -2.6205 -2.0025 0.9802
-3.5779 -2.8832 -2.0026 0.9801
-3.3632 -3.1312 -2.0027 0.9801
-2.8835 -3.5782 -2.0028 0.9801
-2.6210 -3.7749 -2.0028 0.9801
-2.3451 -3.9524 -2.0029 0.9801
-2.2025 -4.0336 -2.0029 0.9801
-2.0572 -4.1097 -2.0029 0.9801
-1.6061 -4.3062 -2.0030 0.9801
-1.4514 -4.3608 -2.0030 0.9801
-1.1366 -4.4533 -2.0031 0.9801
-0.9770 -4.4911 -2.0031 0.9801
-0.8160 -4.5231 -2.0031 0.9801
-0.3279 -4.5845 -2.0031 0.9801
0.1641 -4.5933 -2.0031 0.9801
0.3279 -4.5845 -2.0031 0.9801
0.6541 -4.5494 -2.0031 0.9801
0.8161 -4.5232 -2.0031 0.9801
0.9770 -4.4911 -2.0031 0.9801
1.1367 -4.4534 -2.0031 0.9801
1.2949 -4.4100 -2.0031 0.9801
1.6062 -4.3063 -2.0031 0.9801
2.4847 -3.8663 -2.0029 0.9801
2.8836 -3.5784 -2.0029 0.9801
3.0095 -3.4731 -2.0028 0.9801
3.2495 -3.2495 -2.0028 0.9801
3.4729 -3.0093 -2.0027 0.9801
3.5781 -2.8834 -2.0027 0.9801
3.7745 -2.6207 -2.0026 0.9801
3.8656 -2.4842 -2.0026 0.9801
4.1087 -2.0567 -2.0025 0.9802
4.2448 -1.7583 -2.0024 0.9802
4.4082 -1.2944 -2.0023 0.9802
4.5674 -0.4910 -2.0020 0.9802
4.5906 -0.1639 -2.0019 0.9802
-1.3333 -0.0000 -0.6172 0.9941
-1.3384 -0.0957 -0.6211 0.9941
-1.3351 -0.1435 -0.6215 0.9941
-1.3273 -0.1908 -0.6207 0.9941
-1.3116 -0.3348 -0.6266 0.9941
-1.3324 -0.4435 -0.6500 0.9938
-1.3324 -0.4970 -0.6582 0.9938
-1.3263 -0.5494 -0.6645 0.9937
-3.8682 -1.9363 -2.0023 0.9811
-3.7204 -2.2074 -2.0024 0.9811
-3.5535 -2.4672 -2.0025 0.9811
-3.4633 -2.5926 -2.0025 0.9811
-3.3686 -2.7146 -2.0025 0.9811
-3.0592 -3.0593 -2.0026 0.9811
-2.9482 -3.1666 -2.0027 0.9811
-2.5929 -3.4637 -2.0028 0.9811
-2.2079 -3.7212 -2.0028 0.9811
-2.0737 -3.7976 -2.0029 0.9811
-1.9368 -3.8693 -2.0029 0.9811
-1.7975 -3.9360 -2.0029 0.9811
-1.6559 -3.9977 -2.0029 0.9811
-1.5121 -4.0543 -2.0029 0.9811
-1.3665 -4.1057 -2.0030 0.9811
-1.2191 -4.1519 -2.0030 0.9811
-0.9198 -4.2283 -2.0030 0.9811
-0.7683 -4.2585 -2.0030 0.9811
-0.6158 -4.2832 -2.0030 0.9811
-0.1544 -4.3245 -2.0030 0.9811
0.1545 -4.3245 -2.0030 0.9811
0.4626 -4.3025 -2.0030 0.9811
0.9198 -4.2283 -2.0030 0.9811
1.0702 -4.1928 -2.0030 0.9811
1.3665 -4.1058 -2.0030 0.9811
1.5122 -4.0543 -2.0030 0.9811
1.6559 -3.9978 -2.0030 0.9811
2.2079 -3.7213 -2.0029 0.9811
2.5930 -3.4638 -2.0028 0.9811
2.7149 -3.3690 -2.0028 0.9811
2.8334 -3.2699 -2.0028 0.9811
2.9483 -3.1667 -2.0028 0.9811
3.1666 -2.9482 -2.0027 0.9811
3.2697 -2.8333 -2.0027 0.9811
3.3687 -2.7147 -2.0026 0.9811
3.6394 -2.3389 -2.0025 0.9811
3.7205 -2.2075 -2.0025 0.9811
3.9965 -1.6554 -2.0023 0.9811
4.1503 -1.2186 -2.0022 0.9811
4.1911 -1.0697 -2.0022 0.9811
4.3003 -0.4623 -2.0020 0.9811
4.3140 -0.3085 -2.0020 0.9811
-1.1954 0.0000 -0.5864 0.9947
-1.1964 -0.0427 -0.5873 0.9947
-1.1953 -0.0855 -0.5878 0.9947
-1.1921 -0.1282 -0.5881 0.9947
-1.1867 -0.1706 -0.5881 0.9947
-1.1695 -0.2544 -0.5871 0.9947
-1.1578 -0.2955 -0.5861 0.9947
-1.1578 -0.3854 -0.5986 0.9946
-1.1484 -0.4757 -0.6097 0.9945
-1.1400 -0.5206 -0.6148 0.9944
-3.5107 -2.0830 -2.0024 0.9820
-3.2681 -2.4464 -2.0025 0.9820
-3.1787 -2.5616 -2.0025 0.9820
-2.9880 -2.7819 -2.0026 0.9820
-2.7820 -2.9881 -2.0026 0.9820
-2.6736 -3.0855 -2.0027 0.9820
-2.4467 -3.2685 -2.0027 0.9820
-2.2074 -3.4348 -2.0028 0.9820
-2.0834 -3.5114 -2.0028 0.9820
-1.8276 -3.6511 -2.0028 0.9820
-1.6962 -3.7141 -2.0028 0.9820
-1.0098 -3.9564 -2.0029 0.9820
-0.7250 -4.0184 -2.0029 0.9820
-0.4365 -4.0599 -2.0030 0.9820
0.1458 -4.0807 -2.0030 0.9820
0.2913 -4.0729 -2.0030 0.9820
0.5811 -4.0418 -2.0030 0.9820
0.7250 -4.0184 -2.0030 0.9820
1.0098 -3.9564 -2.0029 0.9820
1.4270 -3.8258 -2.0029 0.9820
1.5626 -3.7724 -2.0029 0.9820
1.6962 -3.7142 -2.0029 0.9820
1.8277 -3.6512 -2.0029 0.9820
1.9568 -3.5837 -2.0029 0.9820
2.2075 -3.4349 -2.0028 0.9820
2.4468 -3.2685 -2.0028 0.9820
2.5619 -3.1791 -2.0028 0.9820
2.6737 -3.0856 -2.0027 0.9820
2.7821 -2.9882 -2.0027 0.9820
3.1788 -2.5617 -2.0026 0.9820
3.3534 -2.3283 -2.0025 0.9820
3.6504 -1.8272 -2.0024 0.9820
3.8246 -1.4265 -2.0023 0.9820
3.8730 -1.2891 -2.0022 0.9820
3.9883 -0.8676 -2.0021 0.9820
4.0167 -0.7247 -2.0021 0.9820
4.0399 -0.5809 -2.0021 0.9820
4.0580 -0.4363 -2.0020 0.9820
4.0709 -0.2912 -2.0020 0.9820
-1.1058 0.0000 -0.5737 0.9950
-1.1024 -0.1185 -0.5752 0.9950
-1.0974 -0.1578 -0.5752 0.9950
-1.0905 -0.1967 -0.5749 0.9950
-1.0814 -0.2352 -0.5741 0.9950
-1.0704 -0.2732 -0.5731 0.9950
-1.0636 -0.3123 -0.5751 0.9950
-1.0617 -0.3534 -0.5805 0.9950
-1.0576 -0.3945 -0.5856 0.9949
-1.0297 -0.5155 -0.5974 0.9948
-3.2471 -2.0867 -2.0024 0.9828
-3.0055 -2.4220 -2.0025 0.9828
-2.9172 -2.5278 -2.0025 0.9828
-2.8252 -2.6303 -2.0025 0.9828
-2.6304 -2.8253 -2.0026 0.9828
-2.5279 -2.9174 -2.0026 0.9828
-2.4222 -3.0058 -2.0026 0.9828
-2.3134 -3.0904 -2.0027 0.9828
-2.2017 -3.1710 -2.0027 0.9828
-2.0871 -3.2476 -2.0027 0.9828
-1.9699 -3.3201 -2.0027 0.9828
-1.7280 -3.4522 -2.0028 0.9828
-1.4774 -3.5667 -2.0028 0.9828
-1.3492 -3.6172 -2.0028 0.9828
-0.8206 -3.7725 -2.0029 0.9828
-0.6855 -3.7994 -2.0029 0.9828
-0.2754 -3.8510 -2.0029 0.9828
0.0000 -3.8608 -2.0029 0.9828
0.1378 -3.8583 -2.0029 0.9828
0.2754 -3.8510 -2.0029 0.9828
0.4127 -3.8387 -2.0029 0.9828
0.5495 -3.8215 -2.0029 0.9828
0.9548 -3.7408 -2.0029 0.9828
1.3492 -3.6173 -2.0029 0.9828
1.4774 -3.5668 -2.0028 0.9828
1.6038 -3.5118 -2.0028 0.9828
1.7281 -3.4523 -2.0028 0.9828
1.8502 -3.3884 -2.0028 0.9828
1.9699 -3.3201 -2.0028 0.9828
2.2017 -3.1711 -2.0027 0.9828
2.3135 -3.0905 -2.0027 0.9828
2.5280 -2.9175 -2.0027 0.9828
2.8253 -2.6304 -2.0026 0.9828
3.0901 -2.3132 -2.0025 0.9828
3.2472 -2.0869 -2.0025 0.9828
3.3877 -1.8498 -2.0024 0.9828
3.5658 -1.4770 -2.0023 0.9828
3.7031 -1.0873 -2.0022 0.9828
3.7395 -0.9545 -2.0022 0.9828
3.8370 -0.4125 -2.0020 0.9828
3.8565 -0.1377 -2.0019 0.9828
-1.0276 -0.0367 -0.5632 0.9953
-1.0265 -0.0734 -0.5637 0.9953
-1.0190 -0.1465 -0.5638 0.9953
-1.0124 -0.1827 -0.5634 0.9953
-1.0039 -0.2184 -0.5627 0.9953
-0.9938 -0.2537 -0.5618 0.9953
-0.9785 -0.3257 -0.5648 0.9953
-0.9741 -0.3633 -0.5694 0.9953
-0.9677 -0.4008 -0.5737 0.9952
-0.9580 -0.4375 -0.5768 0.9952
-0.9434 -0.4722 -0.5778 0.9952
-0.9269 -0.5061 -0.5784 0.9952
-0.9084 -0.5390 -0.5785 0.9952
-0.8881 -0.5708 -0.5782 0.9952
-0.8661 -0.6014 -0.5775 0.9952
-2.9268 -2.1910 -2.0024 0.9835
-2.8468 -2.2941 -2.0024 0.9835
-2.7631 -2.3942 -2.0025 0.9835
-2.6759 -2.4914 -2.0025 0.9835
-2.3944 -2.7632 -2.0026 0.9835
-2.2942 -2.8470 -2.0026 0.9835
-2.1912 -2.9271 -2.0026 0.9835
-2.0853 -3.0035 -2.0026 0.9835
-1.9768 -3.0760 -2.0027 0.9835
-1.8658 -3.1446 -2.0027 0.9835
-1.3993 -3.3783 -2.0028 0.9835
-1.2779 -3.4261 -2.0028 0.9835
-1.1548 -3.4696 -2.0028 0.9835
-1.0302 -3.5086 -2.0028 0.9835
-0.9043 -3.5432 -2.0028 0.9835
-0.6493 -3.5987 -2.0028 0.9835
0.1305 -3.6545 -2.0029 0.9835
0.2609 -3.6475 -2.0029 0.9835
0.7773 -3.5732 -2.0028 0.9835
0.9044 -3.5432 -2.0028 0.9835
1.0302 -3.5087 -2.0028 0.9835
1.1548 -3.4696 -2.0028 0.9835
1.5191 -3.3262 -2.0028 0.9835
1.6368 -3.2699 -2.0028 0.9835
2.0854 -3.0035 -2.0027 0.9835
2.1913 -2.9272 -2.0027 0.9835
2.4915 -2.6761 -2.0026 0.9835
2.6760 -2.4915 -2.0026 0.9835
3.0757 -1.9766 -2.0024 0.9835
3.1442 -1.8655 -2.0024 0.9835
3.2087 -1.7521 -2.0024 0.9835
3.3254 -1.5187 -2.0023 0.9835
3.4252 -1.2775 -2.0022 0.9835
3.5973 -0.6490 -2.0021 0.9835
3.6181 -0.5202 -2.0020 0.9835
3.6343 -0.3907 -2.0020 0.9835
-0.9565 -0.0684 -0.5536 0.9956
-0.9492 -0.1365 -0.5536 0.9956
-0.9430 -0.1701 -0.5532 0.9956
-0.9057 -0.3015 -0.5511 0.9956
-0.8941 -0.3703 -0.5587 0.9955
-0.8178 -0.5256 -0.5613 0.9955
-0.7846 -0.5873 -0.5658 0.9955
-2.5385 -2.3634 -2.0025 0.9841
-2.4525 -2.4525 -2.0025 0.9841
-2.1764 -2.7008 -2.0026 0.9841
-2.0786 -2.7767 -2.0026 0.9841
-1.8753 -2.9180 -2.0026 0.9841
-1.7700 -2.9831 -2.0026 0.9841
-1.6624 -3.0444 -2.0027 0.9841
-1.5527 -3.1018 -2.0027 0.9841
-1.4410 -3.1553 -2.0027 0.9841
-1.2122 -3.2501 -2.0027 0.9841
-1.0954 -3.2913 -2.0027 0.9841
-0.9773 -3.3283 -2.0027 0.9841
-0.8579 -3.3611 -2.0028 0.9841
-0.7374 -3.3896 -2.0028 0.9841
-0.3708 -3.4491 -2.0028 0.9841
-0.1238 -3.4667 -2.0028 0.9841
0.1238 -3.4667 -2.0028 0.9841
0.2475 -3.4601 -2.0028 0.9841
0.6159 -3.4138 -2.0028 0.9841
0.7374 -3.3896 -2.0028 0.9841
0.8579 -3.3612 -2.0028 0.9841
0.9773 -3.3284 -2.0028 0.9841
1.2122 -3.2501 -2.0028 0.9841
1.5527 -3.1019 -2.0027 0.9841
1.7700 -2.9832 -2.0027 0.9841
1.8753 -2.9181 -2.0027 0.9841
1.9783 -2.8493 -2.0027 0.9841
2.3636 -2.5386 -2.0026 0.9841
2.4526 -2.4526 -2.0025 0.9841
2.6213 -2.2713 -2.0025 0.9841
2.7766 -2.0785 -2.0025 0.9841
2.9177 -1.8751 -2.0024 0.9841
2.9827 -1.7697 -2.0024 0.9841
1.9033 -0.6335 -1.1581 0.9908
1.9351 -0.5682 -1.1644 0.9907
2.0359 -0.1456 -1.1784 0.9906
2.0320 -0.0726 -1.1739 0.9907
