ply
format ascii 1.0
element vertex 776
property float32 x
property float32 y
property float32 z
property float32 I
end_header
-2.3642 9.2627 1.2449 0.9622
-1.7605 9.7576 1.0647 0.9609
-2.7120 9.2362 1.0337 0.9620
-2.7120 9.2363 0.8149 0.9621
6.2173 4.6542 -1.2794 0.9690
6.3413 4.4029 -1.4511 0.9691
6.2025 4.6432 -1.4563 0.9690
6.6963 7.1924 -1.8471 0.9608
6.1656 7.6510 -1.8469 0.9608
5.3117 8.2653 -1.8467 0.9608
5.0132 8.4493 -1.8466 0.9608
3.4328 9.2037 -1.8464 0.9608
3.1020 9.3202 -1.8463 0.9608
2.7673 9.4248 -1.8463 0.9608
2.4291 9.5173 -1.8462 0.9608
2.0879 9.5978 -1.8462 0.9608
1.7439 9.6661 -1.8462 0.9608
1.3978 9.7220 -1.8462 0.9608
-1.3978 9.7219 -1.8461 0.9608
-1.7439 9.6659 -1.8461 0.9608
-2.0879 9.5976 -1.8462 0.9608
-2.4291 9.5171 -1.8462 0.9608
-3.1020 9.3199 -1.8463 0.9608
-3.4327 9.2035 -1.8463 0.9608
-3.7591 9.0753 -1.8463 0.9608
-4.0808 8.9356 -1.8464 0.9608
-5.3116 8.2649 -1.8466 0.9608
-5.6034 8.0704 -1.8467 0.9608
-5.8881 7.8655 -1.8468 0.9608
-6.4347 7.4261 -1.8469 0.9608
-6.6960 7.1920 -1.8470 0.9608
-6.9488 6.9487 -1.8471 0.9608
-7.1927 6.6966 -1.8472 0.9608
9.4147 1.0122 -2.0015 0.9620
9.3174 1.6810 -2.0013 0.9620
9.2509 2.0124 -2.0012 0.9620
9.1726 2.3412 -2.0011 0.9620
8.9812 2.9892 -2.0008 0.9620
8.8533 3.3021 -1.9974 0.9621
8.6757 3.5936 -1.9850 0.9623
8.1357 3.7155 -1.8906 0.9641
7.8190 3.9139 -1.8483 0.9649
7.6739 4.1903 -1.8482 0.9649
7.3547 4.7266 -1.8480 0.9649
6.8063 5.4848 -1.8477 0.9649
6.6058 5.7240 -1.8476 0.9649
5.7230 6.6047 -1.8473 0.9649
5.4834 6.8045 -1.8472 0.9649
4.9836 7.1778 -1.8471 0.9649
3.6294 7.9474 -1.8468 0.9649
3.3434 8.0717 -1.8468 0.9649
2.7589 8.2892 -1.8467 0.9649
1.2432 8.6467 -1.8465 0.9649
0.6232 8.7132 -1.8465 0.9649
-0.0000 8.7354 -1.8465 0.9649
-0.3118 8.7299 -1.8465 0.9649
-0.9338 8.6854 -1.8465 0.9649
-1.2432 8.6466 -1.8465 0.9649
-1.8569 8.5361 -1.8466 0.9649
-2.4612 8.3821 -1.8466 0.9649
-3.3433 8.0714 -1.8467 0.9649
-3.9108 7.8127 -1.8468 0.9649
-4.1873 7.6684 -1.8469 0.9649
-4.4584 7.5143 -1.8469 0.9649
-4.7239 7.3506 -1.8470 0.9649
-4.9835 7.1775 -1.8470 0.9649
-5.2366 6.9953 -1.8471 0.9649
-5.4832 6.8042 -1.8472 0.9649
-6.1798 6.1798 -1.8474 0.9649
-6.3967 5.9556 -1.8475 0.9649
-6.8059 5.4846 -1.8476 0.9649
-6.9977 5.2384 -1.8477 0.9649
-7.1805 4.9855 -1.8478 0.9649
-7.3543 4.7263 -1.8479 0.9649
-7.6735 4.1900 -1.8481 0.9649
-8.7326 3.6172 -1.9980 0.9621
-8.8677 3.3075 -2.0006 0.9620
-9.0821 2.6667 -2.0008 0.9620
-9.1720 2.3410 -2.0009 0.9620
-9.3714 1.3474 -2.0013 0.9620
-9.4448 0.6755 -2.0015 0.9620
-9.4634 0.3380 -2.0017 0.9620
8.5179 0.0000 -2.0019 0.9656
8.4953 0.6076 -2.0017 0.9656
8.4677 0.9104 -2.0016 0.9656
8.4294 1.2120 -2.0015 0.9656
8.2502 2.1057 -2.0011 0.9656
8.1693 2.3987 -2.0010 0.9656
8.0781 2.6886 -2.0009 0.9656
7.8649 3.2578 -2.0007 0.9656
7.7295 3.5299 -1.9971 0.9657
7.5829 3.7958 -1.9930 0.9658
6.1742 4.6219 -1.8126 0.9688
6.1222 4.9336 -1.8479 0.9682
5.9420 5.1487 -1.8478 0.9682
5.7542 5.3573 -1.8478 0.9682
5.5591 5.5591 -1.8477 0.9682
5.3569 5.7537 -1.8476 0.9682
4.9324 6.1208 -1.8475 0.9682
4.7106 6.2927 -1.8474 0.9682
4.4829 6.4566 -1.8473 0.9682
4.2494 6.6123 -1.8473 0.9682
3.7667 6.8982 -1.8472 0.9682
3.2648 7.1490 -1.8471 0.9682
3.0075 7.2608 -1.8470 0.9682
2.4818 7.4565 -1.8470 0.9682
2.2140 7.5402 -1.8469 0.9682
0.8400 7.8131 -1.8468 0.9682
0.2805 7.8530 -1.8468 0.9682
-0.0000 7.8580 -1.8468 0.9682
-0.2805 7.8530 -1.8468 0.9682
-0.5606 7.8380 -1.8468 0.9682
-0.8400 7.8130 -1.8468 0.9682
-1.1183 7.7781 -1.8468 0.9682
-1.6704 7.6787 -1.8469 0.9682
-1.9434 7.6142 -1.8469 0.9682
-2.7463 7.3632 -1.8470 0.9682
-4.4828 6.4564 -1.8473 0.9682
-4.7105 6.2925 -1.8473 0.9682
-5.5588 5.5588 -1.8476 0.9682
-5.7539 5.3571 -1.8477 0.9682
-6.1219 4.9333 -1.8478 0.9682
-6.2944 4.7119 -1.8479 0.9682
-6.4588 4.4844 -1.8480 0.9682
-7.0414 4.1779 -1.9243 0.9669
-7.4448 4.0652 -1.9935 0.9657
-8.4288 1.2119 -2.0013 0.9656
-8.5115 0.3040 -2.0017 0.9656
7.7318 0.0000 -2.0019 0.9686
7.6863 0.8264 -2.0016 0.9686
7.3329 2.4406 -2.0010 0.9686
7.0290 3.2100 -2.0007 0.9686
6.2650 4.0263 -1.9282 0.9697
5.8928 4.0914 -1.8575 0.9708
5.7142 4.2776 -1.8481 0.9709
5.5577 4.4787 -1.8481 0.9709
5.2236 4.8634 -1.8479 0.9709
4.6733 5.3933 -1.8477 0.9709
4.4777 5.5565 -1.8477 0.9709
4.2764 5.7126 -1.8476 0.9709
4.0696 5.8614 -1.8476 0.9709
3.8577 6.0028 -1.8475 0.9709
3.1937 6.3803 -1.8474 0.9709
2.9639 6.4900 -1.8473 0.9710
2.4932 6.6847 -1.8473 0.9710
2.2530 6.7693 -1.8472 0.9710
2.0100 6.8453 -1.8472 0.9710
1.7643 6.9126 -1.8472 0.9710
1.2667 7.0207 -1.8471 0.9710
1.0153 7.0613 -1.8471 0.9710
0.5089 7.1157 -1.8471 0.9710
-0.0000 7.1338 -1.8471 0.9710
-0.2546 7.1293 -1.8471 0.9710
-0.5089 7.1157 -1.8471 0.9710
-0.7626 7.0930 -1.8471 0.9710
-1.2667 7.0206 -1.8471 0.9710
-1.5165 6.9710 -1.8471 0.9710
-1.7643 6.9125 -1.8471 0.9710
-2.2530 6.7692 -1.8472 0.9710
-2.4932 6.6845 -1.8472 0.9710
-2.9638 6.4899 -1.8473 0.9710
-3.4194 6.2622 -1.8474 0.9709
-3.6408 6.1363 -1.8474 0.9709
-3.8576 6.0026 -1.8475 0.9709
-4.0695 5.8612 -1.8475 0.9709
-4.4776 5.5563 -1.8476 0.9709
-4.8628 5.2230 -1.8477 0.9709
-6.1640 4.2797 -1.9429 0.9695
-6.4782 4.1633 -1.9938 0.9687
-6.6346 3.9365 -1.9974 0.9686
-6.7812 3.7028 -2.0005 0.9686
-7.1391 2.9571 -2.0007 0.9686
-7.3325 2.4405 -2.0009 0.9686
-7.6067 1.3724 -2.0013 0.9686
-7.6512 1.1001 -2.0014 0.9686
-7.6859 0.8263 -2.0015 0.9686
-7.7109 0.5515 -2.0016 0.9686
-7.7261 0.2759 -2.0017 0.9686
7.0715 0.0000 -2.0019 0.9710
7.0667 0.2524 -2.0018 0.9710
7.0300 0.7558 -2.0016 0.9710
6.9982 1.0062 -2.0015 0.9710
6.9080 1.5028 -2.0014 0.9710
6.7069 2.2323 -2.0011 0.9710
6.5300 2.7048 -2.0009 0.9710
6.3199 3.1635 -2.0007 0.9710
6.0767 3.6055 -2.0003 0.9711
5.5133 4.1272 -1.9497 0.9718
5.1916 4.1837 -1.8875 0.9727
4.9338 4.2752 -1.8481 0.9732
4.7779 4.4484 -1.8481 0.9732
3.7225 5.3614 -1.8477 0.9732
3.5287 5.4907 -1.8477 0.9732
2.4974 6.0293 -1.8475 0.9732
2.2806 6.1145 -1.8475 0.9732
2.0608 6.1919 -1.8474 0.9732
1.8385 6.2614 -1.8474 0.9732
1.6138 6.3230 -1.8474 0.9732
1.1586 6.4219 -1.8473 0.9732
0.6975 6.4881 -1.8473 0.9732
0.4655 6.5088 -1.8473 0.9732
0.2329 6.5212 -1.8473 0.9732
-0.0000 6.5254 -1.8473 0.9732
-0.2329 6.5212 -1.8473 0.9732
-2.4974 6.0292 -1.8475 0.9732
-2.7110 5.9363 -1.8475 0.9732
-3.5286 5.4905 -1.8476 0.9732
-3.7224 5.3612 -1.8477 0.9732
-3.9115 5.2251 -1.8477 0.9732
-4.6158 4.6158 -1.8479 0.9732
-4.7778 4.4482 -1.8480 0.9732
-6.0774 3.6059 -2.0005 0.9711
-6.2025 3.3868 -2.0006 0.9710
-6.4288 2.9359 -2.0007 0.9710
-6.7066 2.2322 -2.0010 0.9710
-6.8493 1.7482 -2.0012 0.9710
-6.9572 1.2552 -2.0013 0.9710
-6.9979 1.0062 -2.0014 0.9710
-7.0297 0.7558 -2.0015 0.9710
-7.0663 0.2524 -2.0017 0.9710
6.5085 0.0000 -2.0019 0.9731
6.5041 0.2323 -2.0018 0.9731
6.4914 0.4643 -2.0017 0.9731
6.4412 0.9261 -2.0016 0.9731
6.4038 1.1554 -2.0015 0.9731
6.2428 1.8331 -2.0012 0.9731
6.1732 2.0547 -2.0011 0.9731
6.0957 2.2736 -2.0011 0.9731
6.0104 2.4896 -2.0010 0.9731
5.9175 2.7024 -2.0009 0.9731
5.8170 2.9118 -2.0008 0.9731
5.7092 3.1175 -2.0008 0.9731
5.5941 3.3191 -2.0007 0.9731
5.4718 3.5166 -2.0006 0.9731
5.0495 4.0692 -1.9947 0.9732
4.8536 4.2057 -1.9754 0.9735
4.5640 4.2492 -1.9180 0.9742
3.9346 4.5408 -1.8480 0.9752
3.7699 4.6782 -1.8480 0.9752
3.6005 4.8097 -1.8479 0.9752
3.2480 5.0540 -1.8478 0.9752
2.6890 5.3719 -1.8477 0.9752
2.4955 5.4644 -1.8477 0.9752
2.2988 5.5498 -1.8477 0.9752
2.0992 5.6283 -1.8476 0.9752
1.4855 5.8202 -1.8476 0.9752
1.0665 5.9112 -1.8475 0.9752
-0.4285 5.9912 -1.8475 0.9752
-0.6421 5.9721 -1.8475 0.9752
-1.0665 5.9112 -1.8475 0.9752
-1.6923 5.7635 -1.8476 0.9752
-1.8970 5.6994 -1.8476 0.9752
-2.0992 5.6282 -1.8476 0.9752
-2.6889 5.3718 -1.8477 0.9752
-2.8790 5.2725 -1.8477 0.9752
-3.0654 5.1665 -1.8478 0.9752
-3.2479 5.0539 -1.8478 0.9752
-3.4263 4.9348 -1.8478 0.9752
-3.6004 4.8095 -1.8479 0.9752
-3.7698 4.6781 -1.8479 0.9752
-4.1549 4.4626 -1.8754 0.9748
-4.4338 4.4338 -1.9286 0.9741
-4.7290 4.4029 -1.9874 0.9733
-4.9021 4.2476 -1.9951 0.9732
-5.0574 4.0755 -1.9978 0.9732
-5.3425 3.7093 -2.0005 0.9731
-5.4716 3.5164 -2.0005 0.9731
-5.5939 3.3190 -2.0006 0.9731
-5.7090 3.1173 -2.0007 0.9731
-5.8168 2.9117 -2.0008 0.9731
-5.9173 2.7023 -2.0008 0.9731
-6.0102 2.4895 -2.0009 0.9731
-6.0954 2.2735 -2.0010 0.9731
-6.3043 1.6091 -2.0012 0.9731
-6.3579 1.3831 -2.0013 0.9731
-6.4035 1.1553 -2.0014 0.9731
-6.4409 0.9261 -2.0015 0.9731
-6.4702 0.6956 -2.0015 0.9731
-6.4911 0.4643 -2.0016 0.9731
-6.5038 0.2323 -2.0017 0.9731
5.9872 0.6437 -2.0017 0.9749
5.9256 1.0691 -2.0015 0.9749
5.7122 1.9012 -2.0012 0.9749
5.6405 2.1038 -2.0011 0.9749
5.5617 2.3037 -2.0011 0.9749
5.4757 2.5007 -2.0010 0.9749
5.3828 2.6944 -2.0009 0.9749
5.2830 2.8847 -2.0008 0.9749
4.8180 3.6068 -2.0006 0.9749
4.6858 3.7761 -2.0004 0.9750
4.5424 3.9361 -1.9979 0.9750
4.3938 4.0908 -1.9955 0.9750
4.0083 4.3053 -1.9553 0.9755
3.5189 4.3668 -1.8642 0.9766
3.3318 4.4507 -1.8481 0.9768
2.6642 4.8792 -1.8479 0.9768
2.1273 5.1358 -1.8478 0.9768
1.5661 5.3335 -1.8477 0.9768
1.3747 5.3859 -1.8477 0.9768
1.1816 5.4315 -1.8477 0.9768
0.9869 5.4702 -1.8477 0.9768
0.5942 5.5266 -1.8477 0.9768
0.0000 5.5584 -1.8476 0.9768
-0.3965 5.5442 -1.8476 0.9768
-0.9869 5.4701 -1.8477 0.9768
-1.5660 5.3334 -1.8477 0.9768
-1.7554 5.2742 -1.8477 0.9768
-1.9426 5.2083 -1.8478 0.9768
-2.1273 5.1357 -1.8478 0.9768
-2.3093 5.0565 -1.8478 0.9768
-2.4883 4.9710 -1.8478 0.9768
-2.8367 4.7810 -1.8479 0.9768
-3.0056 4.6768 -1.8479 0.9768
-3.6192 4.4911 -1.9173 0.9760
-4.3998 4.0963 -1.9983 0.9750
-5.0632 3.2539 -2.0006 0.9749
-5.1763 3.0712 -2.0007 0.9749
-5.2828 2.8846 -2.0008 0.9749
-5.5615 2.3036 -2.0010 0.9749
-5.6403 2.1037 -2.0010 0.9749
-5.7765 1.6961 -2.0012 0.9749
-5.8832 1.2798 -2.0013 0.9749
-5.9253 1.0690 -2.0014 0.9749
-5.9870 0.6437 -2.0016 0.9749
-6.0064 0.4296 -2.0016 0.9749
-6.0181 0.2149 -2.0017 0.9749
5.5833 0.3993 -2.0017 0.9765
5.5402 0.7966 -2.0016 0.9765
5.5080 0.9938 -2.0015 0.9765
5.4689 1.1897 -2.0015 0.9765
5.3697 1.5767 -2.0013 0.9765
5.3098 1.7673 -2.0012 0.9765
5.2432 1.9556 -2.0012 0.9765
4.9108 2.6815 -2.0009 0.9765
4.5956 3.1908 -2.0007 0.9765
4.2279 3.6635 -2.0006 0.9765
4.0943 3.8119 -2.0005 0.9765
3.9522 3.9522 -1.9988 0.9765
3.8046 4.0865 -1.9967 0.9766
3.6527 4.2155 -1.9947 0.9766
3.0536 4.3980 -1.9147 0.9775
2.8424 4.4229 -1.8801 0.9779
2.4782 4.5384 -1.8492 0.9783
1.8058 4.8416 -1.8479 0.9783
1.4558 4.9580 -1.8479 0.9783
1.2779 5.0068 -1.8478 0.9783
0.9174 5.0851 -1.8478 0.9783
0.7354 5.1146 -1.8478 0.9783
0.5523 5.1375 -1.8478 0.9783
0.3686 5.1539 -1.8478 0.9783
-0.0000 5.1671 -1.8478 0.9783
-0.7354 5.1145 -1.8478 0.9783
-0.9174 5.0850 -1.8478 0.9783
-1.0984 5.0491 -1.8478 0.9783
-1.8058 4.8416 -1.8479 0.9783
-2.1467 4.7005 -1.8479 0.9783
-2.4852 4.5513 -1.8544 0.9782
-2.6913 4.5359 -1.8861 0.9778
-3.1270 4.5037 -1.9607 0.9770
-3.3400 4.4617 -1.9931 0.9766
-3.5005 4.3438 -1.9950 0.9766
-3.8092 4.0913 -1.9990 0.9765
-4.5955 3.1907 -2.0007 0.9765
-4.7066 3.0247 -2.0007 0.9765
-4.9107 2.6814 -2.0008 0.9765
-5.0034 2.5045 -2.0009 0.9765
-5.0898 2.3244 -2.0010 0.9765
-5.1697 2.1413 -2.0010 0.9765
-5.2430 1.9555 -2.0011 0.9765
-5.4687 1.1896 -2.0014 0.9765
-5.5079 0.9937 -2.0014 0.9765
-5.5651 0.5983 -2.0016 0.9765
-5.5940 0.1998 -2.0017 0.9765
5.2204 0.1864 -2.0018 0.9779
5.2102 0.3727 -2.0017 0.9779
5.1934 0.5584 -2.0017 0.9779
5.1700 0.7433 -2.0016 0.9779
5.1400 0.9274 -2.0015 0.9779
4.8929 1.8250 -2.0012 0.9779
4.7499 2.1692 -2.0011 0.9779
4.6693 2.3373 -2.0010 0.9779
4.4904 2.6643 -2.0009 0.9779
4.3923 2.8228 -2.0009 0.9779
4.2887 2.9777 -2.0008 0.9779
3.9455 3.4188 -2.0006 0.9779
3.8208 3.5573 -2.0006 0.9779
3.5571 3.8207 -2.0005 0.9779
3.2713 4.0595 -1.9979 0.9779
3.1217 4.1702 -1.9962 0.9779
2.8119 4.3755 -1.9932 0.9780
2.6246 4.4236 -1.9711 0.9782
2.4253 4.4417 -1.9394 0.9786
2.0443 4.4764 -1.8858 0.9791
1.5234 4.5771 -1.8486 0.9795
1.1952 4.6828 -1.8521 0.9795
0.6863 4.7730 -1.8479 0.9796
0.5154 4.7945 -1.8479 0.9796
0.3440 4.8098 -1.8479 0.9796
-0.1721 4.8190 -1.8479 0.9796
-0.3440 4.8098 -1.8479 0.9796
-0.5155 4.7945 -1.8479 0.9796
-0.6863 4.7730 -1.8479 0.9796
-0.8562 4.7455 -1.8479 0.9796
-1.0250 4.7119 -1.8479 0.9796
-1.1926 4.6724 -1.8480 0.9796
-1.5231 4.5762 -1.8483 0.9796
-1.7023 4.5639 -1.8667 0.9794
-1.8874 4.5566 -1.8900 0.9791
-2.2726 4.5401 -1.9456 0.9785
-2.6542 4.4734 -1.9933 0.9780
-2.8143 4.3792 -1.9949 0.9779
-3.1248 4.1742 -1.9982 0.9779
-3.2747 4.0637 -2.0000 0.9779
-3.4184 3.9450 -2.0004 0.9779
-3.5571 3.8206 -2.0004 0.9779
-3.9454 3.4187 -2.0006 0.9779
-4.1794 3.1287 -2.0007 0.9779
-4.6692 2.3372 -2.0010 0.9779
-4.7498 2.1692 -2.0010 0.9779
-4.8243 1.9983 -2.0011 0.9779
-4.9549 1.6492 -2.0012 0.9779
-5.1033 1.1101 -2.0014 0.9779
-5.1398 0.9273 -2.0015 0.9779
-5.2100 0.3726 -2.0017 0.9779
4.8913 0.0000 -2.0019 0.9791
4.8785 0.3489 -2.0018 0.9791
4.8628 0.5228 -2.0017 0.9791
4.8128 0.8683 -2.0016 0.9791
4.6920 1.3777 -2.0014 0.9791
4.6397 1.5442 -2.0013 0.9791
4.5174 1.8712 -2.0012 0.9791
4.4476 2.0312 -2.0011 0.9791
4.2047 2.4947 -2.0010 0.9791
4.1128 2.6432 -2.0009 0.9791
4.0158 2.7882 -2.0009 0.9791
3.9136 2.9297 -2.0008 0.9791
3.3308 3.5776 -2.0006 0.9791
3.2009 3.6941 -2.0005 0.9791
3.0670 3.8059 -2.0005 0.9791
2.9291 3.9129 -2.0005 0.9791
2.7862 4.0129 -1.9994 0.9791
2.4893 4.1956 -1.9967 0.9791
2.3365 4.2790 -1.9954 0.9791
2.1810 4.3571 -1.9942 0.9792
2.0230 4.4298 -1.9931 0.9792
1.6726 4.4845 -1.9589 0.9795
1.3242 4.5097 -1.9236 0.9799
1.1533 4.5185 -1.9086 0.9800
0.4890 4.5487 -1.8724 0.9804
0.1629 4.5612 -1.8680 0.9805
-0.1630 4.5641 -1.8692 0.9805
-0.3265 4.5650 -1.8731 0.9804
-0.4908 4.5654 -1.8793 0.9804
-0.6564 4.5654 -1.8877 0.9803
-0.8236 4.5651 -1.8985 0.9802
-1.1643 4.5615 -1.9268 0.9799
-1.3377 4.5557 -1.9432 0.9797
-1.5142 4.5493 -1.9623 0.9795
-1.6942 4.5423 -1.9842 0.9793
-1.8637 4.4995 -1.9932 0.9792
-2.0243 4.4325 -1.9944 0.9792
-2.7875 4.0148 -2.0004 0.9791
-3.0670 3.8058 -2.0004 0.9791
-3.2009 3.6940 -2.0005 0.9791
-3.4564 3.4564 -2.0006 0.9791
-3.9135 2.9296 -2.0008 0.9791
-4.1127 2.6431 -2.0009 0.9791
-4.4475 2.0311 -2.0011 0.9791
-1.9569 0.2104 -0.8055 0.9915
-1.9524 0.1396 -0.8011 0.9916
4.5934 0.0000 -2.0019 0.9802
4.5903 0.1639 -2.0018 0.9802
4.5667 0.4910 -2.0017 0.9802
4.5461 0.6536 -2.0016 0.9802
4.5197 0.8154 -2.0016 0.9802
4.4876 0.9762 -2.0015 0.9802
4.4498 1.1358 -2.0015 0.9802
4.4063 1.2938 -2.0014 0.9802
4.3572 1.4502 -2.0014 0.9802
4.2424 1.7573 -2.0012 0.9802
4.1768 1.9075 -2.0012 0.9802
3.6754 2.7513 -2.0009 0.9802
3.4695 3.0064 -2.0008 0.9802
3.3600 3.1283 -2.0007 0.9802
3.1281 3.3598 -2.0007 0.9802
2.8803 3.5743 -2.0006 0.9802
2.7509 3.6747 -2.0005 0.9802
2.4816 3.8615 -2.0005 0.9802
2.3422 3.9475 -2.0004 0.9802
2.0529 4.1011 -1.9987 0.9802
1.4457 4.3437 -1.9952 0.9802
1.2893 4.3910 -1.9945 0.9802
1.1314 4.4329 -1.9938 0.9802
0.6500 4.5212 -1.9907 0.9803
0.4868 4.5281 -1.9848 0.9803
0.3243 4.5345 -1.9812 0.9804
0.1621 4.5405 -1.9801 0.9804
-0.0000 4.5422 -1.9795 0.9804
-0.3250 4.5442 -1.9855 0.9803
-0.4886 4.5446 -1.9920 0.9803
-0.6508 4.5263 -1.9929 0.9802
-0.8121 4.5012 -1.9934 0.9802
-1.2898 4.3927 -1.9953 0.9802
-1.7543 4.2352 -1.9978 0.9802
-1.9053 4.1721 -1.9989 0.9802
-2.0542 4.1037 -2.0000 0.9802
-2.3422 3.9475 -2.0004 0.9802
-2.4816 3.8614 -2.0004 0.9802
-2.7508 3.6747 -2.0005 0.9802
-3.0061 3.4692 -2.0006 0.9802
-3.1281 3.3598 -2.0006 0.9802
-3.5747 2.8806 -2.0008 0.9802
-3.8624 2.4822 -2.0009 0.9802
-3.9486 2.3428 -2.0010 0.9802
-4.0298 2.2004 -2.0010 0.9802
-4.2423 1.7572 -2.0012 0.9802
-1.5984 0.5962 -0.7435 0.9926
-1.5214 0.3310 -0.6786 0.9932
-1.5151 0.2179 -0.6671 0.9933
-1.5249 0.1639 -0.6684 0.9933
-1.5293 0.1094 -0.6682 0.9933
-1.5284 0.0546 -0.6665 0.9933
4.3248 0.0000 -2.0019 0.9811
4.3219 0.1544 -2.0018 0.9811
4.2555 0.7678 -2.0016 0.9811
4.1896 1.0694 -2.0015 0.9811
4.1487 1.2182 -2.0014 0.9811
4.1024 1.3654 -2.0014 0.9811
4.0510 1.5109 -2.0013 0.9811
3.9944 1.6545 -2.0013 0.9811
3.8660 1.9352 -2.0012 0.9811
3.7943 2.0719 -2.0011 0.9811
3.6367 2.3372 -2.0010 0.9811
3.4605 2.5905 -2.0009 0.9811
2.8304 3.2665 -2.0007 0.9811
2.5901 3.4600 -2.0006 0.9811
2.0712 3.7931 -2.0005 0.9811
1.7953 3.9312 -2.0004 0.9811
1.2165 4.1432 -1.9988 0.9811
0.9174 4.2171 -1.9977 0.9812
0.3077 4.3024 -1.9966 0.9812
-0.0000 4.3132 -1.9965 0.9812
-0.1540 4.3106 -1.9966 0.9812
-0.4612 4.2895 -1.9970 0.9812
-0.6141 4.2711 -1.9973 0.9812
-0.7663 4.2473 -1.9978 0.9812
-1.0680 4.1842 -1.9989 0.9811
-1.7953 3.9311 -2.0004 0.9811
-2.2053 3.7168 -2.0005 0.9811
-2.3366 3.6358 -2.0005 0.9811
-2.5901 3.4599 -2.0006 0.9811
-3.1635 2.9453 -2.0008 0.9811
-3.2667 2.8306 -2.0008 0.9811
-3.3657 2.7123 -2.0008 0.9811
-3.4605 2.5905 -2.0009 0.9811
-1.3151 0.6006 -0.6692 0.9936
-1.3324 0.4435 -0.6500 0.9938
-1.3117 0.3348 -0.6266 0.9941
-1.3013 0.2831 -0.6164 0.9941
-1.3160 0.2374 -0.6190 0.9941
-1.3384 0.0957 -0.6211 0.9941
4.0811 0.0000 -2.0019 0.9820
4.0784 0.1457 -2.0018 0.9820
4.0574 0.4362 -2.0017 0.9820
4.0391 0.5807 -2.0017 0.9820
3.9872 0.8674 -2.0016 0.9820
3.9536 1.0091 -2.0015 0.9820
3.9150 1.1495 -2.0015 0.9820
3.8713 1.2885 -2.0014 0.9820
3.7694 1.5613 -2.0013 0.9820
3.6482 1.8262 -2.0012 0.9820
3.5085 2.0817 -2.0011 0.9820
3.3509 2.3266 -2.0010 0.9820
3.1762 2.5596 -2.0009 0.9820
2.9854 2.7796 -2.0009 0.9820
2.8842 2.8843 -2.0008 0.9820
2.7794 2.9853 -2.0008 0.9820
2.5593 3.1759 -2.0007 0.9820
2.4443 3.2651 -2.0007 0.9820
2.2050 3.4311 -2.0006 0.9820
2.0811 3.5076 -2.0006 0.9820
1.8255 3.6470 -2.0005 0.9820
1.6942 3.7098 -2.0005 0.9820
1.5607 3.7679 -2.0005 0.9820
1.4252 3.8211 -2.0005 0.9820
1.1489 3.9130 -2.0004 0.9820
0.5804 4.0366 -2.0004 0.9820
0.4359 4.0547 -2.0004 0.9820
0.2909 4.0677 -2.0004 0.9820
0.1455 4.0754 -2.0004 0.9820
-0.1456 4.0754 -2.0004 0.9820
-0.4359 4.0547 -2.0004 0.9820
-0.5804 4.0366 -2.0004 0.9820
-1.0086 3.9514 -2.0004 0.9820
-1.2879 3.8695 -2.0004 0.9820
-1.4252 3.8211 -2.0005 0.9820
-1.5607 3.7678 -2.0005 0.9820
-1.6942 3.7097 -2.0005 0.9820
-1.9546 3.5795 -2.0005 0.9820
-2.2050 3.4310 -2.0006 0.9820
-2.3261 3.3502 -2.0006 0.9820
-2.4442 3.2651 -2.0006 0.9820
-2.5593 3.1758 -2.0007 0.9820
-2.8842 2.8842 -2.0008 0.9820
-2.9854 2.7795 -2.0008 0.9820
-3.3508 2.3265 -2.0010 0.9820
-3.5084 2.0816 -2.0011 0.9820
-1.1113 0.6068 -0.6211 0.9944
-1.1292 0.5652 -0.6194 0.9944
-1.1484 0.4757 -0.6097 0.9945
-1.1579 0.3854 -0.5986 0.9946
-1.1590 0.3403 -0.5925 0.9946
-1.1695 0.2544 -0.5871 0.9947
-1.1791 0.2127 -0.5877 0.9947
3.8588 0.0000 -2.0019 0.9828
3.8488 0.2753 -2.0018 0.9828
3.8191 0.5491 -2.0017 0.9828
3.7383 0.9542 -2.0015 0.9828
3.6605 1.2183 -2.0014 0.9828
3.5641 1.4763 -2.0013 0.9828
3.3856 1.8487 -2.0012 0.9828
3.3174 1.9683 -2.0012 0.9828
3.2450 2.0854 -2.0011 0.9828
3.1684 2.1999 -2.0011 0.9828
2.9149 2.5258 -2.0010 0.9828
2.7272 2.7272 -2.0009 0.9828
2.4200 3.0030 -2.0008 0.9828
2.3112 3.0874 -2.0007 0.9828
2.1995 3.1679 -2.0007 0.9828
2.0850 3.2443 -2.0007 0.9828
1.9678 3.3166 -2.0007 0.9828
1.8482 3.3847 -2.0006 0.9828
1.7262 3.4485 -2.0006 0.9828
1.6020 3.5079 -2.0006 0.9828
1.4757 3.5628 -2.0006 0.9828
1.3476 3.6131 -2.0006 0.9828
1.2178 3.6589 -2.0005 0.9828
1.0864 3.7000 -2.0005 0.9828
0.9536 3.7364 -2.0005 0.9828
0.6847 3.7948 -2.0005 0.9828
0.2751 3.8463 -2.0005 0.9828
0.1376 3.8536 -2.0005 0.9828
-0.0000 3.8561 -2.0005 0.9828
-0.1376 3.8536 -2.0005 0.9828
-0.4122 3.8340 -2.0005 0.9828
-0.5488 3.8168 -2.0005 0.9828
-0.9537 3.7364 -2.0005 0.9828
-1.2178 3.6589 -2.0005 0.9828
-1.3476 3.6131 -2.0005 0.9828
-1.4757 3.5627 -2.0005 0.9828
-1.6020 3.5078 -2.0006 0.9828
-1.7262 3.4484 -2.0006 0.9828
-2.4199 3.0029 -2.0007 0.9828
-2.6281 2.8227 -2.0008 0.9828
-2.7272 2.7272 -2.0008 0.9828
-3.0878 2.3115 -2.0010 0.9828
-3.1684 2.1999 -2.0010 0.9828
-3.2450 2.0854 -2.0011 0.9828
-1.0118 0.5525 -0.5981 0.9948
-1.0514 0.4355 -0.5904 0.9949
-1.0576 0.3945 -0.5856 0.9949
-1.0617 0.3534 -0.5805 0.9950
-1.0704 0.2732 -0.5731 0.9950
-1.0814 0.2353 -0.5741 0.9950
-1.0974 0.1578 -0.5752 0.9950
-1.1055 0.0791 -0.5750 0.9950
3.6550 0.0000 -2.0019 0.9835
3.5965 0.6489 -2.0016 0.9835
3.5710 0.7768 -2.0016 0.9835
3.5409 0.9038 -2.0015 0.9835
3.5063 1.0296 -2.0015 0.9835
3.4672 1.1540 -2.0015 0.9835
3.4238 1.2770 -2.0014 0.9835
3.3759 1.3984 -2.0014 0.9835
3.2674 1.6356 -2.0013 0.9835
3.2069 1.7511 -2.0012 0.9835
3.1423 1.8644 -2.0012 0.9835
3.0737 1.9754 -2.0012 0.9835
3.0012 2.0838 -2.0011 0.9835
2.8448 2.2925 -2.0010 0.9835
2.7611 2.3925 -2.0010 0.9835
2.6739 2.4895 -2.0010 0.9835
2.4894 2.6738 -2.0009 0.9835
2.3923 2.7609 -2.0009 0.9835
2.2922 2.8445 -2.0008 0.9835
2.1892 2.9244 -2.0008 0.9835
1.9749 3.0731 -2.0007 0.9835
1.8640 3.1416 -2.0007 0.9835
1.6351 3.2665 -2.0007 0.9835
1.3978 3.3747 -2.0006 0.9835
1.0291 3.5047 -2.0006 0.9835
0.6485 3.5946 -2.0006 0.9835
0.5198 3.6154 -2.0005 0.9835
0.2606 3.6433 -2.0005 0.9835
0.1304 3.6503 -2.0005 0.9835
-0.0000 3.6526 -2.0005 0.9835
-0.1304 3.6503 -2.0005 0.9835
-0.6485 3.5946 -2.0005 0.9835
-0.9033 3.5392 -2.0006 0.9835
-1.0291 3.5047 -2.0006 0.9835
-1.1535 3.4658 -2.0006 0.9835
-1.3979 3.3747 -2.0006 0.9835
-1.6351 3.2664 -2.0007 0.9835
-1.7506 3.2060 -2.0007 0.9835
-1.8640 3.1415 -2.0007 0.9835
-2.2922 2.8445 -2.0008 0.9835
-2.3923 2.7609 -2.0008 0.9835
-2.4894 2.6737 -2.0009 0.9835
-2.6738 2.4894 -2.0009 0.9835
-2.7610 2.3925 -2.0010 0.9835
-2.8447 2.2924 -2.0010 0.9835
-0.9084 0.5390 -0.5785 0.9952
-0.9269 0.5061 -0.5784 0.9952
-0.9580 0.4375 -0.5768 0.9952
-0.9741 0.3633 -0.5694 0.9953
-0.9785 0.3257 -0.5648 0.9953
-1.0276 0.0367 -0.5632 0.9953
2.0320 0.0726 -1.1739 0.9907
2.0366 0.2190 -1.1826 0.9906
2.0300 0.2919 -1.1841 0.9906
2.0153 0.3636 -1.1823 0.9906
1.9883 0.4325 -1.1748 0.9906
1.9616 0.5007 -1.1688 0.9907
1.9351 0.5682 -1.1644 0.9907
1.8682 0.6968 -1.1512 0.9908
1.8620 0.7713 -1.1636 0.9907
1.8507 0.8452 -1.1747 0.9906
3.0997 1.5516 -2.0013 0.9841
3.0423 1.6612 -2.0013 0.9841
2.8471 1.9768 -2.0012 0.9841
2.7747 2.0771 -2.0011 0.9841
2.6987 2.1748 -2.0011 0.9841
2.6193 2.2697 -2.0010 0.9841
2.3616 2.5366 -2.0009 0.9841
2.2695 2.6192 -2.0009 0.9841
2.0768 2.7743 -2.0009 0.9841
1.8736 2.9154 -2.0008 0.9841
1.7683 2.9804 -2.0008 0.9841
1.5512 3.0988 -2.0007 0.9841
1.4395 3.1522 -2.0007 0.9841
1.3261 3.2015 -2.0007 0.9841
0.7366 3.3860 -2.0006 0.9841
0.4931 3.4299 -2.0006 0.9841
0.1237 3.4629 -2.0006 0.9841
-0.0000 3.4651 -2.0006 0.9841
-0.1237 3.4629 -2.0006 0.9841
-0.2472 3.4563 -2.0006 0.9841
-0.3704 3.4453 -2.0006 0.9841
-0.6153 3.4101 -2.0006 0.9841
-0.8570 3.3576 -2.0006 0.9841
-0.9763 3.3248 -2.0006 0.9841
-1.0943 3.2879 -2.0006 0.9841
-1.2110 3.2468 -2.0007 0.9841
-1.3261 3.2015 -2.0007 0.9841
-1.4396 3.1522 -2.0007 0.9841
-1.5512 3.0988 -2.0007 0.9841
-1.8736 2.9153 -2.0008 0.9841
-1.9765 2.8466 -2.0008 0.9841
-2.0768 2.7743 -2.0008 0.9841
-2.1746 2.6984 -2.0009 0.9841
-2.2695 2.6192 -2.0009 0.9841
-2.3616 2.5365 -2.0009 0.9841
-2.4507 2.4506 -2.0009 0.9841
-0.7671 0.6182 -0.5688 0.9955
-0.7846 0.5873 -0.5658 0.9955
-0.8008 0.5560 -0.5628 0.9955
-0.8534 0.4660 -0.5614 0.9955
-0.8687 0.4349 -0.5609 0.9955
-0.8941 0.3703 -0.5587 0.9955
-0.9058 0.3015 -0.5511 0.9956
-0.9151 0.2687 -0.5506 0.9956
-0.9259 0.2363 -0.5517 0.9956
-0.9430 0.1701 -0.5532 0.9956
-0.9492 0.1365 -0.5536 0.9956
-0.9565 0.0684 -0.5536 0.9956
-0.9575 0.0342 -0.5532 0.9956
