ply
format ascii 1.0
element vertex 740
property float32 x
property float32 y
property float32 z
property float32 I
end_header
-9.4646 -0.3380 -2.0019 0.9620
-9.4470 -0.6757 -2.0020 0.9620
-9.2569 -2.0137 -2.0025 0.9620
-8.9902 -2.9922 -2.0028 0.9620
-8.8782 -3.3114 -2.0030 0.9620
-8.7548 -3.6264 -2.0031 0.9620
-8.6203 -3.9368 -2.0032 0.9620
-8.4747 -4.2422 -2.0033 0.9620
-7.9740 -5.1246 -2.0036 0.9620
-7.7864 -5.4062 -2.0037 0.9620
-7.3816 -5.9485 -2.0039 0.9620
-7.1649 -6.2084 -2.0040 0.9620
-6.7044 -6.7044 -2.0042 0.9620
-6.2095 -7.1662 -2.0043 0.9620
-3.9401 -8.6276 -2.0049 0.9620
-3.6297 -8.7629 -2.0049 0.9620
-2.6724 -9.1013 -2.0051 0.9620
-1.6843 -9.3353 -2.0051 0.9620
-1.3500 -9.3895 -2.0052 0.9620
-1.0140 -9.4318 -2.0052 0.9620
-0.6767 -9.4621 -2.0052 0.9620
0.0000 -9.4863 -2.0052 0.9620
0.3386 -9.4802 -2.0052 0.9620
0.6767 -9.4621 -2.0052 0.9620
1.0140 -9.4319 -2.0052 0.9620
1.3500 -9.3896 -2.0052 0.9620
1.6843 -9.3354 -2.0052 0.9620
2.0164 -9.2692 -2.0052 0.9620
3.6298 -8.7632 -2.0050 0.9620
4.2455 -8.4815 -2.0049 0.9620
4.5454 -8.3243 -2.0048 0.9620
5.1274 -7.9784 -2.0047 0.9620
5.4087 -7.7900 -2.0047 0.9620
6.2098 -7.1665 -2.0044 0.9620
6.4614 -6.9400 -2.0044 0.9620
6.9394 -6.4608 -2.0042 0.9620
7.5893 -5.6812 -2.0039 0.9620
7.7868 -5.4065 -2.0038 0.9620
8.3189 -4.5425 -2.0035 0.9620
8.4753 -4.2424 -2.0034 0.9620
8.7554 -3.6266 -2.0032 0.9620
8.9908 -2.9924 -2.0030 0.9620
9.1803 -2.3431 -2.0027 0.9620
9.2575 -2.0139 -2.0026 0.9620
9.3230 -1.6821 -2.0025 0.9620
9.3765 -1.3481 -2.0024 0.9620
9.4181 -1.0125 -2.0023 0.9620
9.4477 -0.6757 -2.0022 0.9620
9.4652 -0.3381 -2.0020 0.9620
-8.5124 -0.3040 -2.0019 0.9656
-8.4966 -0.6077 -2.0020 0.9656
-8.4700 -0.9106 -2.0021 0.9656
-8.3254 -1.8111 -2.0024 0.9656
-7.9846 -2.9781 -2.0028 0.9656
-7.7526 -3.5405 -2.0030 0.9656
-7.4810 -4.0849 -2.0032 0.9656
-7.3307 -4.3495 -2.0033 0.9656
-7.1712 -4.6086 -2.0034 0.9656
-7.0024 -4.8619 -2.0035 0.9656
-6.6383 -5.3495 -2.0037 0.9656
-6.4434 -5.5833 -2.0038 0.9656
-6.0292 -6.0292 -2.0039 0.9656
-5.5841 -6.4444 -2.0041 0.9656
-4.8638 -7.0051 -2.0043 0.9656
-4.6108 -7.1745 -2.0044 0.9656
-4.3519 -7.3347 -2.0044 0.9656
-4.0874 -7.4856 -2.0045 0.9656
-2.9808 -7.9918 -2.0047 0.9656
-2.1095 -8.2651 -2.0048 0.9656
-1.2140 -8.4435 -2.0048 0.9656
-0.9119 -8.4816 -2.0049 0.9656
-0.3045 -8.5251 -2.0049 0.9656
1.2140 -8.4436 -2.0049 0.9656
1.5146 -8.3948 -2.0048 0.9656
2.6938 -8.0934 -2.0047 0.9656
3.2642 -7.8804 -2.0047 0.9656
3.8179 -7.6271 -2.0046 0.9656
4.0876 -7.4858 -2.0045 0.9656
4.3520 -7.3350 -2.0045 0.9656
5.1107 -6.8271 -2.0043 0.9656
5.3510 -6.6401 -2.0042 0.9656
6.0295 -6.0295 -2.0040 0.9656
6.2406 -5.8102 -2.0040 0.9656
7.0028 -4.8621 -2.0036 0.9656
7.4814 -4.0851 -2.0033 0.9656
7.6221 -3.8153 -2.0033 0.9656
7.7530 -3.5407 -2.0032 0.9656
7.8741 -3.2615 -2.0031 0.9656
7.9851 -2.9783 -2.0030 0.9656
8.2564 -2.1073 -2.0027 0.9656
8.3259 -1.8112 -2.0025 0.9656
8.4330 -1.2125 -2.0023 0.9656
8.5129 -0.3040 -2.0020 0.9656
-7.7268 -0.2760 -2.0019 0.9686
-7.6882 -0.8266 -2.0021 0.9686
-7.6104 -1.3731 -2.0023 0.9686
-7.5569 -1.6439 -2.0024 0.9686
-7.3389 -2.4426 -2.0027 0.9685
-7.0367 -3.2136 -2.0029 0.9685
-6.5089 -4.1830 -2.0033 0.9685
-6.1944 -4.6371 -2.0034 0.9685
-5.6639 -5.2732 -2.0037 0.9685
-5.2736 -5.6643 -2.0038 0.9685
-4.8564 -6.0265 -2.0039 0.9685
-4.6384 -6.1961 -2.0040 0.9685
-4.4144 -6.3579 -2.0041 0.9685
-3.7098 -6.7939 -2.0042 0.9685
-2.9625 -7.1520 -2.0044 0.9685
-2.7053 -7.2533 -2.0044 0.9685
-2.4448 -7.3454 -2.0044 0.9685
-1.9146 -7.5013 -2.0045 0.9685
-1.6457 -7.5650 -2.0045 0.9685
-1.1018 -7.6633 -2.0046 0.9685
-0.8276 -7.6978 -2.0046 0.9685
-0.2763 -7.7373 -2.0046 0.9685
0.0000 -7.7422 -2.0046 0.9685
0.2763 -7.7373 -2.0046 0.9685
0.8276 -7.6978 -2.0046 0.9685
1.9146 -7.5015 -2.0045 0.9685
2.1811 -7.4282 -2.0045 0.9685
2.4448 -7.3455 -2.0045 0.9685
3.2159 -7.0417 -2.0044 0.9685
3.4651 -6.9224 -2.0043 0.9685
4.1849 -6.5118 -2.0042 0.9685
4.4145 -6.3581 -2.0041 0.9685
4.6386 -6.1964 -2.0041 0.9685
5.2738 -5.6645 -2.0039 0.9685
5.4725 -5.4725 -2.0038 0.9685
5.8485 -5.0678 -2.0037 0.9685
6.1947 -4.6373 -2.0035 0.9685
6.3560 -4.4131 -2.0035 0.9685
6.6541 -3.9480 -2.0033 0.9685
6.7905 -3.7079 -2.0032 0.9685
7.0371 -3.2137 -2.0030 0.9685
7.1470 -2.9604 -2.0029 0.9685
7.2478 -2.7033 -2.0029 0.9685
7.4942 -1.9128 -2.0026 0.9685
7.5573 -1.6440 -2.0025 0.9685
7.6546 -1.1006 -2.0023 0.9686
7.6886 -0.8266 -2.0022 0.9686
7.7272 -0.2760 -2.0020 0.9686
-7.0670 -0.2524 -2.0019 0.9710
-7.0537 -0.5045 -2.0020 0.9710
-7.0004 -1.0065 -2.0021 0.9710
-6.9114 -1.5035 -2.0023 0.9710
-6.8536 -1.7493 -2.0024 0.9710
-6.7871 -1.9929 -2.0025 0.9710
-6.7119 -2.2340 -2.0026 0.9710
-6.5360 -2.7073 -2.0028 0.9710
-6.4355 -2.9390 -2.0028 0.9710
-6.2099 -3.3909 -2.0030 0.9710
-6.0852 -3.6105 -2.0031 0.9710
-5.9527 -3.8256 -2.0032 0.9710
-5.8126 -4.0358 -2.0032 0.9710
-5.3484 -4.6344 -2.0035 0.9710
-5.1798 -4.8225 -2.0035 0.9710
-5.0045 -5.0045 -2.0036 0.9710
-4.8229 -5.1801 -2.0036 0.9710
-4.6350 -5.3491 -2.0037 0.9710
-4.4413 -5.5113 -2.0038 0.9710
-4.0370 -5.8144 -2.0039 0.9710
-3.6121 -6.0879 -2.0040 0.9710
-3.3926 -6.2131 -2.0040 0.9710
-2.9409 -6.4396 -2.0041 0.9710
-2.2358 -6.7174 -2.0042 0.9710
-0.7568 -7.0396 -2.0043 0.9710
-0.5051 -7.0621 -2.0043 0.9710
0.0000 -7.0802 -2.0044 0.9710
0.2527 -7.0757 -2.0044 0.9710
0.7568 -7.0396 -2.0043 0.9710
1.0076 -7.0081 -2.0043 0.9710
1.2571 -6.9676 -2.0043 0.9710
1.5050 -6.9183 -2.0043 0.9710
2.4741 -6.6333 -2.0042 0.9710
2.7093 -6.5407 -2.0042 0.9710
3.8271 -5.9551 -2.0040 0.9710
4.0372 -5.8146 -2.0039 0.9710
4.4415 -5.5115 -2.0038 0.9710
4.6352 -5.3493 -2.0038 0.9710
4.8230 -5.1803 -2.0037 0.9710
5.0047 -5.0047 -2.0037 0.9710
5.1800 -4.8227 -2.0036 0.9710
5.3486 -4.6346 -2.0035 0.9710
5.5105 -4.4406 -2.0035 0.9710
5.6653 -4.2409 -2.0034 0.9710
5.9529 -3.8257 -2.0032 0.9710
6.2102 -3.3910 -2.0031 0.9710
6.3271 -3.1671 -2.0030 0.9710
6.4358 -2.9391 -2.0029 0.9710
6.5364 -2.7074 -2.0029 0.9710
6.8540 -1.7494 -2.0025 0.9710
6.9607 -1.2558 -2.0023 0.9710
7.0008 -1.0066 -2.0023 0.9710
7.0319 -0.7560 -2.0022 0.9710
-6.5082 0.0000 -2.0018 0.9731
-6.5044 -0.2323 -2.0019 0.9731
-6.4922 -0.4643 -2.0020 0.9731
-6.4430 -0.9264 -2.0021 0.9731
-6.2467 -1.8342 -2.0024 0.9731
-6.1774 -2.0560 -2.0025 0.9731
-6.0155 -2.4917 -2.0027 0.9731
-5.0713 -4.0867 -2.0033 0.9731
-4.2658 -4.9229 -2.0036 0.9731
-4.0874 -5.0722 -2.0036 0.9731
-3.9039 -5.2150 -2.0037 0.9731
-3.7154 -5.3511 -2.0037 0.9731
-3.5221 -5.4805 -2.0038 0.9731
-3.3243 -5.6028 -2.0038 0.9731
-3.1223 -5.7180 -2.0039 0.9731
-2.9163 -5.8259 -2.0039 0.9731
-2.2769 -6.1046 -2.0040 0.9731
-2.0576 -6.1821 -2.0040 0.9731
-1.8356 -6.2517 -2.0041 0.9731
-1.6114 -6.3133 -2.0041 0.9731
-1.3850 -6.3668 -2.0041 0.9731
-0.9273 -6.4495 -2.0041 0.9731
-0.6965 -6.4785 -2.0041 0.9731
0.4648 -6.4993 -2.0042 0.9731
0.6965 -6.4786 -2.0041 0.9731
1.1569 -6.4123 -2.0041 0.9731
1.3850 -6.3669 -2.0041 0.9731
1.6114 -6.3133 -2.0041 0.9731
2.2769 -6.1047 -2.0040 0.9731
2.4933 -6.0194 -2.0040 0.9731
2.7066 -5.9265 -2.0040 0.9731
3.3244 -5.6029 -2.0039 0.9731
3.5222 -5.4806 -2.0038 0.9731
3.7155 -5.3513 -2.0038 0.9731
3.9040 -5.2151 -2.0037 0.9731
4.2659 -4.9231 -2.0036 0.9731
4.9225 -4.2654 -2.0034 0.9731
5.0715 -4.0868 -2.0033 0.9731
5.2139 -3.9031 -2.0033 0.9731
5.4788 -3.5210 -2.0031 0.9731
5.6007 -3.3231 -2.0031 0.9731
5.7156 -3.1209 -2.0030 0.9731
6.0158 -2.4918 -2.0028 0.9731
6.1007 -2.2754 -2.0027 0.9731
6.1777 -2.0561 -2.0026 0.9731
6.3082 -1.6100 -2.0025 0.9731
6.4065 -1.1558 -2.0023 0.9731
6.4434 -0.9264 -2.0022 0.9731
6.4925 -0.4643 -2.0021 0.9731
-6.0221 -0.0000 -2.0018 0.9749
-6.0073 -0.4297 -2.0020 0.9749
-5.9618 -0.8572 -2.0021 0.9749
-5.9276 -1.0695 -2.0022 0.9749
-5.7800 -1.6971 -2.0024 0.9749
-5.4804 -2.5028 -2.0027 0.9749
-5.3877 -2.6969 -2.0028 0.9749
-5.2883 -2.8876 -2.0028 0.9749
-5.1820 -3.0746 -2.0029 0.9749
-5.0691 -3.2577 -2.0030 0.9749
-4.9498 -3.4367 -2.0030 0.9749
-4.8241 -3.6113 -2.0031 0.9749
-4.6923 -3.7813 -2.0032 0.9749
-4.5545 -3.9465 -2.0032 0.9749
-4.2616 -4.2615 -2.0033 0.9749
-4.1069 -4.4110 -2.0034 0.9749
-3.9469 -4.5550 -2.0034 0.9749
-3.7819 -4.6930 -2.0035 0.9749
-3.4376 -4.9511 -2.0036 0.9749
-3.0758 -5.1840 -2.0037 0.9749
-2.5042 -5.4833 -2.0038 0.9749
-1.2815 -5.8908 -2.0039 0.9749
-0.8579 -5.9673 -2.0040 0.9749
-0.6444 -5.9942 -2.0040 0.9749
-0.4301 -6.0133 -2.0040 0.9749
-0.2152 -6.0249 -2.0040 0.9749
0.8580 -5.9673 -2.0040 0.9749
1.0704 -5.9329 -2.0040 0.9749
1.6984 -5.7843 -2.0039 0.9749
1.9038 -5.7199 -2.0039 0.9749
2.1067 -5.6483 -2.0039 0.9749
2.6983 -5.3905 -2.0038 0.9749
3.2589 -5.0709 -2.0037 0.9749
3.7820 -4.6932 -2.0035 0.9749
4.2617 -4.2617 -2.0034 0.9749
4.4110 -4.1067 -2.0033 0.9749
4.8243 -3.6114 -2.0032 0.9749
4.9500 -3.4368 -2.0031 0.9749
5.1822 -3.0747 -2.0030 0.9749
5.3880 -2.6970 -2.0028 0.9749
5.4806 -2.5029 -2.0028 0.9749
5.6448 -2.1054 -2.0026 0.9749
5.7802 -1.6972 -2.0025 0.9749
5.8369 -1.4898 -2.0024 0.9749
5.9279 -1.0695 -2.0023 0.9749
5.9620 -0.8572 -2.0022 0.9749
5.9886 -0.6438 -2.0021 0.9749
6.0075 -0.4297 -2.0020 0.9749
-5.5839 -0.3994 -2.0019 0.9765
-5.5663 -0.5984 -2.0020 0.9765
-5.5416 -0.7967 -2.0021 0.9765
-5.5098 -0.9941 -2.0022 0.9765
-5.4710 -1.1901 -2.0022 0.9765
-5.4252 -1.3847 -2.0023 0.9765
-5.0940 -2.3263 -2.0026 0.9765
-4.9154 -2.6840 -2.0028 0.9765
-4.2333 -3.6681 -2.0031 0.9765
-3.8172 -4.1000 -2.0033 0.9765
-3.3573 -4.4848 -2.0034 0.9765
-3.0289 -4.7131 -2.0035 0.9765
-2.8588 -4.8183 -2.0035 0.9765
-2.6851 -4.9174 -2.0036 0.9765
-2.5079 -5.0102 -2.0036 0.9765
-2.1442 -5.1765 -2.0037 0.9765
-1.7695 -5.3164 -2.0037 0.9765
-1.5786 -5.3762 -2.0037 0.9765
-1.3857 -5.4292 -2.0038 0.9765
-1.1911 -5.4752 -2.0038 0.9765
-0.9949 -5.5143 -2.0038 0.9765
-0.7974 -5.5463 -2.0038 0.9765
-0.5990 -5.5713 -2.0038 0.9765
-0.3997 -5.5891 -2.0038 0.9765
-0.2000 -5.5999 -2.0038 0.9765
0.0000 -5.6034 -2.0038 0.9765
0.3998 -5.5892 -2.0038 0.9765
0.5990 -5.5713 -2.0038 0.9765
1.1911 -5.4753 -2.0038 0.9765
1.3857 -5.4292 -2.0038 0.9765
1.9581 -5.2499 -2.0037 0.9765
2.5080 -5.0103 -2.0036 0.9765
3.0290 -4.7132 -2.0035 0.9765
3.1953 -4.6020 -2.0035 0.9765
3.5153 -4.3622 -2.0034 0.9765
3.6687 -4.2338 -2.0034 0.9765
3.9612 -3.9611 -2.0033 0.9765
4.0999 -3.8171 -2.0032 0.9765
4.2334 -3.6683 -2.0032 0.9765
4.6009 -3.1945 -2.0030 0.9765
4.9156 -2.6841 -2.0028 0.9765
5.0081 -2.5069 -2.0028 0.9765
5.2469 -1.9570 -2.0026 0.9765
5.3132 -1.7684 -2.0025 0.9765
5.3727 -1.5776 -2.0024 0.9765
5.4712 -1.1902 -2.0023 0.9765
5.5100 -0.9941 -2.0022 0.9765
5.5418 -0.7968 -2.0022 0.9765
5.5665 -0.5985 -2.0021 0.9765
5.5841 -0.3994 -2.0020 0.9765
-5.2237 0.0000 -2.0018 0.9779
-5.2205 -0.1865 -2.0019 0.9779
-5.2107 -0.3727 -2.0019 0.9779
-5.1415 -0.9276 -2.0021 0.9779
-5.1053 -1.1106 -2.0022 0.9779
-5.0626 -1.2921 -2.0023 0.9779
-5.0134 -1.4721 -2.0023 0.9779
-4.8959 -1.8261 -2.0025 0.9779
-4.7534 -2.1708 -2.0026 0.9779
-4.6731 -2.3392 -2.0026 0.9779
-4.5867 -2.5046 -2.0027 0.9779
-4.4946 -2.6667 -2.0028 0.9779
-4.3966 -2.8256 -2.0028 0.9779
-4.2931 -2.9808 -2.0029 0.9779
-3.6961 -3.6961 -2.0031 0.9779
-3.5619 -3.8258 -2.0032 0.9779
-3.4232 -3.9506 -2.0032 0.9779
-3.2801 -4.0703 -2.0033 0.9779
-2.9815 -4.2941 -2.0033 0.9779
-2.8264 -4.3979 -2.0034 0.9779
-2.5055 -4.5885 -2.0035 0.9779
-2.0007 -4.8302 -2.0035 0.9779
-1.8271 -4.8986 -2.0036 0.9779
-1.6511 -4.9608 -2.0036 0.9779
-1.1114 -5.1090 -2.0036 0.9779
-0.5589 -5.1986 -2.0037 0.9779
-0.3730 -5.2153 -2.0037 0.9779
0.3730 -5.2153 -2.0037 0.9779
0.5589 -5.1986 -2.0037 0.9779
0.7441 -5.1753 -2.0037 0.9779
0.9284 -5.1455 -2.0037 0.9779
1.1114 -5.1090 -2.0037 0.9779
1.2930 -5.0661 -2.0037 0.9779
1.6511 -4.9608 -2.0036 0.9779
2.1719 -4.7558 -2.0035 0.9779
2.5056 -4.5886 -2.0035 0.9779
2.8264 -4.3980 -2.0034 0.9779
2.9815 -4.2942 -2.0034 0.9779
3.4233 -3.9507 -2.0033 0.9779
3.8257 -3.5619 -2.0031 0.9779
3.9503 -3.4230 -2.0031 0.9779
4.0699 -3.2797 -2.0030 0.9779
4.2933 -2.9808 -2.0029 0.9779
4.4947 -2.6668 -2.0028 0.9779
4.6733 -2.3392 -2.0027 0.9779
4.8279 -1.9998 -2.0026 0.9779
4.9580 -1.6502 -2.0025 0.9779
5.0136 -1.4721 -2.0024 0.9779
5.0628 -1.2922 -2.0023 0.9779
5.1417 -0.9277 -2.0022 0.9779
5.1714 -0.7435 -2.0021 0.9779
5.2207 -0.1865 -2.0019 0.9779
-1.9308 -0.0690 -0.7907 0.9917
-1.9524 -0.1396 -0.8011 0.9916
-1.9569 -0.2104 -0.8055 0.9915
-2.1703 -0.3916 -0.9026 0.9905
-4.7802 -1.0399 -2.0022 0.9791
-4.7402 -1.2099 -2.0022 0.9791
-4.5841 -1.7098 -2.0024 0.9791
-4.5203 -1.8724 -2.0025 0.9791
-4.3754 -2.1902 -2.0026 0.9791
-4.0196 -2.7909 -2.0028 0.9791
-3.9176 -2.9326 -2.0029 0.9791
-3.8105 -3.0707 -2.0029 0.9791
-3.6986 -3.2048 -2.0030 0.9791
-3.5819 -3.3349 -2.0030 0.9791
-3.4607 -3.4607 -2.0030 0.9791
-3.3350 -3.5821 -2.0031 0.9791
-2.7915 -4.0205 -2.0033 0.9791
-2.3459 -4.2961 -2.0034 0.9791
-2.1911 -4.3772 -2.0034 0.9791
-2.0335 -4.4526 -2.0034 0.9791
-1.7107 -4.5865 -2.0035 0.9791
-1.5459 -4.6447 -2.0035 0.9791
-1.3791 -4.6970 -2.0035 0.9791
-1.2106 -4.7432 -2.0035 0.9791
-1.0406 -4.7834 -2.0035 0.9791
-0.8692 -4.8176 -2.0035 0.9791
-0.5233 -4.8674 -2.0036 0.9791
-0.1747 -4.8923 -2.0036 0.9791
0.3492 -4.8830 -2.0036 0.9791
0.6967 -4.8456 -2.0036 0.9791
0.8692 -4.8176 -2.0036 0.9791
1.0406 -4.7835 -2.0035 0.9791
1.2107 -4.7433 -2.0035 0.9791
1.3792 -4.6970 -2.0035 0.9791
1.5459 -4.6447 -2.0035 0.9791
1.7107 -4.5866 -2.0035 0.9791
2.0335 -4.4527 -2.0034 0.9791
2.3459 -4.2962 -2.0034 0.9791
2.7916 -4.0206 -2.0033 0.9791
2.9333 -3.9184 -2.0033 0.9791
3.0712 -3.8111 -2.0032 0.9791
3.3351 -3.5821 -2.0031 0.9791
3.5820 -3.3350 -2.0031 0.9791
3.6987 -3.2049 -2.0030 0.9791
3.8106 -3.0708 -2.0030 0.9791
3.9177 -2.9327 -2.0029 0.9791
4.0198 -2.7910 -2.0029 0.9791
4.1167 -2.6456 -2.0028 0.9791
4.2948 -2.3451 -2.0027 0.9791
4.4509 -2.0326 -2.0026 0.9791
4.6943 -1.3783 -2.0024 0.9791
4.7404 -1.2099 -2.0023 0.9791
4.8143 -0.8686 -2.0022 0.9791
4.8637 -0.5229 -2.0021 0.9791
4.8791 -0.3490 -2.0020 0.9791
-1.5284 -0.0546 -0.6665 0.9933
-1.5293 -0.1094 -0.6682 0.9933
-1.5214 -0.3310 -0.6786 0.9932
-1.5707 -0.4612 -0.7134 0.9929
-4.2449 -1.7583 -2.0024 0.9802
-4.0330 -2.2022 -2.0026 0.9801
-3.7747 -2.6208 -2.0027 0.9801
-3.6789 -2.7540 -2.0028 0.9801
-3.4732 -3.0095 -2.0029 0.9801
-3.3636 -3.1317 -2.0029 0.9801
-2.8839 -3.5788 -2.0031 0.9801
-2.6214 -3.7755 -2.0032 0.9801
-2.4850 -3.8667 -2.0032 0.9801
-2.2029 -4.0343 -2.0033 0.9801
-1.9095 -4.1813 -2.0033 0.9801
-1.6064 -4.3070 -2.0034 0.9801
-1.2951 -4.4107 -2.0034 0.9801
-1.1369 -4.4541 -2.0034 0.9801
-0.6542 -4.5502 -2.0035 0.9801
-0.4914 -4.5707 -2.0035 0.9801
-0.3279 -4.5853 -2.0035 0.9801
-0.1641 -4.5941 -2.0035 0.9801
0.6542 -4.5502 -2.0035 0.9801
0.8162 -4.5240 -2.0035 0.9801
0.9772 -4.4919 -2.0034 0.9801
1.6064 -4.3070 -2.0034 0.9801
1.7591 -4.2469 -2.0034 0.9801
1.9096 -4.1813 -2.0033 0.9801
2.3455 -3.9531 -2.0033 0.9801
3.0099 -3.4736 -2.0031 0.9801
3.1319 -3.3639 -2.0031 0.9801
3.2499 -3.2499 -2.0030 0.9801
3.4733 -3.0096 -2.0029 0.9801
3.6790 -2.7541 -2.0028 0.9801
3.9520 -2.3448 -2.0027 0.9801
4.3050 -1.6057 -2.0024 0.9802
4.4083 -1.2944 -2.0023 0.9802
4.5820 -0.3277 -2.0020 0.9802
-1.3376 -0.0478 -0.6195 0.9941
-1.3384 -0.0957 -0.6211 0.9941
-1.3160 -0.2374 -0.6190 0.9941
-1.3013 -0.2831 -0.6164 0.9941
-1.3117 -0.3348 -0.6266 0.9941
-1.3240 -0.3888 -0.6388 0.9939
-1.3324 -0.4970 -0.6582 0.9938
-1.3263 -0.5493 -0.6645 0.9937
-1.3150 -0.6006 -0.6692 0.9936
-3.8685 -1.9365 -2.0025 0.9811
-3.7971 -2.0733 -2.0026 0.9811
-3.6396 -2.3391 -2.0026 0.9811
-3.5539 -2.4675 -2.0027 0.9811
-3.4636 -2.5929 -2.0027 0.9811
-3.2700 -2.8335 -2.0028 0.9811
-2.8337 -3.2703 -2.0030 0.9811
-2.5933 -3.4642 -2.0031 0.9811
-2.4680 -3.5546 -2.0031 0.9811
-2.3396 -3.6405 -2.0031 0.9811
-2.0740 -3.7982 -2.0032 0.9811
-1.9371 -3.8699 -2.0032 0.9811
-1.7978 -3.9366 -2.0032 0.9811
-1.3667 -4.1064 -2.0033 0.9811
-1.0703 -4.1935 -2.0033 0.9811
-0.9200 -4.2290 -2.0033 0.9811
-0.3088 -4.3170 -2.0034 0.9811
0.0000 -4.3280 -2.0034 0.9811
0.1545 -4.3253 -2.0034 0.9811
0.4627 -4.3032 -2.0034 0.9811
0.9200 -4.2291 -2.0034 0.9811
1.0703 -4.1935 -2.0033 0.9811
1.2193 -4.1526 -2.0033 0.9811
1.3668 -4.1064 -2.0033 0.9811
1.5124 -4.0550 -2.0033 0.9811
1.6562 -3.9983 -2.0033 0.9811
2.0740 -3.7983 -2.0032 0.9811
2.2082 -3.7218 -2.0032 0.9811
2.4681 -3.5547 -2.0031 0.9811
2.7153 -3.3694 -2.0031 0.9811
2.9486 -3.1670 -2.0030 0.9811
3.0597 -3.0597 -2.0030 0.9811
3.2701 -2.8335 -2.0029 0.9811
3.3691 -2.7150 -2.0028 0.9811
3.4637 -2.5929 -2.0028 0.9811
3.8687 -1.9365 -2.0026 0.9811
3.9352 -1.7971 -2.0025 0.9811
3.9967 -1.6555 -2.0025 0.9811
4.0532 -1.5118 -2.0024 0.9811
4.1912 -1.0698 -2.0023 0.9811
4.2567 -0.7680 -2.0021 0.9811
4.3004 -0.4623 -2.0020 0.9811
4.3140 -0.3085 -2.0020 0.9811
4.3221 -0.1544 -2.0019 0.9811
-1.1954 -0.0855 -0.5878 0.9947
-1.1921 -0.1282 -0.5881 0.9947
-1.1791 -0.2127 -0.5877 0.9947
-1.1695 -0.2544 -0.5871 0.9947
-1.1578 -0.2955 -0.5861 0.9947
-1.1590 -0.3403 -0.5925 0.9946
-1.1578 -0.3854 -0.5986 0.9946
-1.1484 -0.4757 -0.6097 0.9945
-1.1400 -0.5206 -0.6148 0.9944
-1.1292 -0.5652 -0.6194 0.9944
-1.1113 -0.6068 -0.6211 0.9944
-3.5110 -2.0832 -2.0026 0.9820
-3.3536 -2.3284 -2.0026 0.9820
-3.2684 -2.4467 -2.0027 0.9820
-2.8872 -2.8872 -2.0028 0.9820
-2.7823 -2.9884 -2.0029 0.9820
-2.6739 -3.0859 -2.0029 0.9820
-2.5621 -3.1794 -2.0030 0.9820
-2.2077 -3.4352 -2.0030 0.9820
-1.8279 -3.6517 -2.0031 0.9820
-1.2896 -3.8748 -2.0032 0.9820
-1.1506 -3.9184 -2.0032 0.9820
-1.0100 -3.9570 -2.0032 0.9820
-0.7251 -4.0191 -2.0033 0.9820
-0.5812 -4.0424 -2.0033 0.9820
-0.4366 -4.0606 -2.0033 0.9820
-0.2913 -4.0736 -2.0033 0.9820
0.2913 -4.0736 -2.0033 0.9820
0.4366 -4.0606 -2.0033 0.9820
0.5812 -4.0424 -2.0033 0.9820
0.8681 -3.9906 -2.0033 0.9820
1.0100 -3.9571 -2.0033 0.9820
1.6965 -3.7147 -2.0032 0.9820
2.0838 -3.5119 -2.0031 0.9820
2.4471 -3.2689 -2.0030 0.9820
2.5622 -3.1795 -2.0030 0.9820
3.1792 -2.5619 -2.0028 0.9820
3.2685 -2.4467 -2.0027 0.9820
3.3537 -2.3285 -2.0027 0.9820
3.4346 -2.2073 -2.0027 0.9820
3.5111 -2.0832 -2.0026 0.9820
3.7715 -1.5622 -2.0024 0.9820
3.8247 -1.4266 -2.0024 0.9820
3.9166 -1.1500 -2.0023 0.9820
3.9550 -1.0095 -2.0022 0.9820
3.9884 -0.8676 -2.0022 0.9820
4.0168 -0.7247 -2.0021 0.9820
4.0400 -0.5808 -2.0021 0.9820
4.0580 -0.4363 -2.0020 0.9820
4.0709 -0.2911 -2.0020 0.9820
-1.1058 0.0000 -0.5737 0.9950
-1.0974 -0.1578 -0.5752 0.9950
-1.0905 -0.1967 -0.5749 0.9950
-1.0617 -0.3534 -0.5805 0.9950
-1.0576 -0.3945 -0.5856 0.9949
-1.0430 -0.4763 -0.5948 0.9948
-1.0298 -0.5155 -0.5974 0.9948
-1.0118 -0.5525 -0.5981 0.9948
-0.9917 -0.5884 -0.5982 0.9948
-3.1709 -2.2016 -2.0026 0.9828
-3.0058 -2.4223 -2.0027 0.9828
-2.7299 -2.7298 -2.0028 0.9828
-2.5282 -2.9177 -2.0029 0.9828
-2.3137 -3.0908 -2.0029 0.9828
-2.2020 -3.1714 -2.0030 0.9828
-1.8504 -3.3888 -2.0030 0.9828
-1.4776 -3.5673 -2.0031 0.9828
-1.3494 -3.6178 -2.0031 0.9828
-0.6856 -3.8000 -2.0032 0.9828
-0.5495 -3.8220 -2.0032 0.9828
-0.1378 -3.8589 -2.0032 0.9828
0.0000 -3.8614 -2.0032 0.9828
0.1378 -3.8589 -2.0032 0.9828
0.2755 -3.8516 -2.0032 0.9828
0.8208 -3.7731 -2.0032 0.9828
0.9549 -3.7414 -2.0032 0.9828
1.0879 -3.7049 -2.0032 0.9828
1.2194 -3.6637 -2.0032 0.9828
1.3494 -3.6178 -2.0031 0.9828
1.4776 -3.5673 -2.0031 0.9828
1.7283 -3.4527 -2.0031 0.9828
1.8504 -3.3888 -2.0031 0.9828
1.9702 -3.3206 -2.0030 0.9828
2.0874 -3.2481 -2.0030 0.9828
2.2020 -3.1715 -2.0030 0.9828
2.3138 -3.0908 -2.0030 0.9828
2.4226 -3.0062 -2.0029 0.9828
2.6308 -2.8256 -2.0029 0.9828
2.7299 -2.7299 -2.0028 0.9828
2.8256 -2.6307 -2.0028 0.9828
3.0059 -2.4223 -2.0027 0.9828
3.0904 -2.3134 -2.0027 0.9828
3.1709 -2.2016 -2.0026 0.9828
3.3198 -1.9697 -2.0026 0.9828
3.3879 -1.8499 -2.0025 0.9828
3.4517 -1.7278 -2.0025 0.9828
3.8199 -0.5492 -2.0021 0.9828
3.8370 -0.4125 -2.0020 0.9828
3.8564 -0.1377 -2.0019 0.9828
-1.0265 -0.0734 -0.5637 0.9953
-1.0236 -0.1100 -0.5639 0.9953
-1.0123 -0.1826 -0.5634 0.9953
-1.0039 -0.2184 -0.5627 0.9953
-0.9938 -0.2537 -0.5618 0.9953
-0.9785 -0.3257 -0.5648 0.9953
-0.9434 -0.4722 -0.5778 0.9952
-0.9269 -0.5061 -0.5784 0.9952
-0.8882 -0.5708 -0.5782 0.9952
-0.8661 -0.6013 -0.5775 0.9952
-2.9271 -2.1912 -2.0026 0.9835
-2.8470 -2.2943 -2.0026 0.9835
-2.7634 -2.3945 -2.0027 0.9835
-2.5856 -2.5856 -2.0027 0.9835
-2.4917 -2.6763 -2.0028 0.9835
-2.3946 -2.7636 -2.0028 0.9835
-2.1915 -2.9275 -2.0029 0.9835
-1.9771 -3.0764 -2.0029 0.9835
-1.6370 -3.2702 -2.0030 0.9835
-1.5192 -3.3266 -2.0030 0.9835
-1.0304 -3.5091 -2.0031 0.9835
-0.3909 -3.6364 -2.0031 0.9835
-0.1305 -3.6550 -2.0031 0.9835
0.1305 -3.6550 -2.0031 0.9835
0.2609 -3.6480 -2.0031 0.9835
0.3909 -3.6364 -2.0031 0.9835
0.5205 -3.6201 -2.0031 0.9835
0.7774 -3.5737 -2.0031 0.9835
1.5192 -3.3267 -2.0030 0.9835
1.6370 -3.2703 -2.0030 0.9835
1.8661 -3.1451 -2.0030 0.9835
2.0857 -3.0039 -2.0029 0.9835
2.1915 -2.9275 -2.0029 0.9835
2.2946 -2.8474 -2.0029 0.9835
2.6763 -2.4917 -2.0027 0.9835
2.7635 -2.3945 -2.0027 0.9835
3.0034 -2.0853 -2.0026 0.9835
3.2089 -1.7522 -2.0025 0.9835
3.2694 -1.6365 -2.0024 0.9835
3.3256 -1.5188 -2.0024 0.9835
3.3776 -1.3991 -2.0024 0.9835
3.4687 -1.1545 -2.0023 0.9835
3.5421 -0.9041 -2.0022 0.9835
3.5720 -0.7770 -2.0021 0.9835
3.6182 -0.5202 -2.0021 0.9835
-0.9575 -0.0342 -0.5532 0.9956
-0.9537 -0.1025 -0.5538 0.9956
-0.9492 -0.1365 -0.5536 0.9956
-0.9352 -0.2035 -0.5526 0.9956
-0.9150 -0.2687 -0.5506 0.9956
-0.8823 -0.4029 -0.5600 0.9955
-0.8687 -0.4349 -0.5609 0.9955
-0.8364 -0.4963 -0.5615 0.9955
-0.8008 -0.5560 -0.5628 0.9955
-0.7671 -0.6182 -0.5688 0.9955
-2.6214 -2.2715 -2.0026 0.9841
-2.4528 -2.4528 -2.0027 0.9841
-2.2716 -2.6216 -2.0028 0.9841
-2.1767 -2.7010 -2.0028 0.9841
-1.9785 -2.8495 -2.0028 0.9841
-1.8755 -2.9184 -2.0029 0.9841
-1.5529 -3.1022 -2.0029 0.9841
-1.4412 -3.1557 -2.0030 0.9841
-1.3276 -3.2052 -2.0030 0.9841
-1.0956 -3.2918 -2.0030 0.9841
-0.9774 -3.3288 -2.0030 0.9841
-0.8580 -3.3616 -2.0030 0.9841
-0.7375 -3.3901 -2.0030 0.9841
-0.6160 -3.4143 -2.0031 0.9841
-0.4937 -3.4341 -2.0031 0.9841
-0.2475 -3.4606 -2.0031 0.9841
0.1238 -3.4672 -2.0031 0.9841
0.2475 -3.4606 -2.0031 0.9841
0.6160 -3.4143 -2.0031 0.9841
0.8580 -3.3616 -2.0030 0.9841
0.9774 -3.3288 -2.0030 0.9841
1.2124 -3.2506 -2.0030 0.9841
1.3276 -3.2052 -2.0030 0.9841
1.6626 -3.0448 -2.0029 0.9841
1.8756 -2.9184 -2.0029 0.9841
1.9785 -2.8496 -2.0029 0.9841
2.0789 -2.7771 -2.0028 0.9841
2.1767 -2.7011 -2.0028 0.9841
2.2717 -2.6216 -2.0028 0.9841
2.3638 -2.5389 -2.0028 0.9841
2.5388 -2.3637 -2.0027 0.9841
2.6215 -2.2715 -2.0027 0.9841
2.7008 -2.1765 -2.0026 0.9841
2.7768 -2.0786 -2.0026 0.9841
2.8491 -1.9782 -2.0026 0.9841
2.9179 -1.8752 -2.0025 0.9841
2.9829 -1.7698 -2.0025 0.9841
3.0441 -1.6622 -2.0025 0.9841
3.1014 -1.5525 -2.0024 0.9841
1.8620 -0.7713 -1.1636 0.9907
1.8682 -0.6968 -1.1512 0.9908
1.9033 -0.6335 -1.1581 0.9908
2.0153 -0.3636 -1.1823 0.9906
2.0301 -0.2919 -1.1841 0.9906
2.0366 -0.2190 -1.1826 0.9906
2.0359 -0.1456 -1.1784 0.9906
2.0320 -0.0726 -1.1739 0.9907
