ply
format ascii 1.0
element vertex 759
property float32 x
property float32 y
property float32 z
property float32 I
end_header
-2.3548 5.1563 -0.5442 0.9775
-2.3532 5.1528 -0.6729 0.9774
-2.3526 5.1515 -0.8024 0.9774
5.6048 8.0724 -1.8472 0.9608
5.3129 8.2670 -1.8471 0.9608
5.0143 8.4511 -1.8470 0.9608
3.7601 9.0777 -1.8468 0.9608
3.4336 9.2059 -1.8468 0.9608
2.4297 9.5196 -1.8467 0.9608
0.7009 9.7993 -1.8466 0.9608
0.3507 9.8180 -1.8466 0.9608
0.0000 9.8242 -1.8466 0.9608
-1.0502 9.7680 -1.8466 0.9608
-1.3981 9.7244 -1.8466 0.9608
-2.0884 9.6001 -1.8466 0.9608
-2.7680 9.4269 -1.8467 0.9608
-3.1027 9.3222 -1.8467 0.9608
-3.4336 9.2057 -1.8468 0.9608
-3.7600 9.0775 -1.8468 0.9608
-2.3514 5.1489 -1.0639 0.9772
-4.7092 8.6242 -1.8469 0.9608
-5.3127 8.2668 -1.8470 0.9608
-5.6046 8.0721 -1.8471 0.9608
-5.8893 7.8672 -1.8472 0.9608
-6.1666 7.6523 -1.8472 0.9608
9.4640 0.3380 -2.0018 0.9620
9.4454 0.6755 -2.0017 0.9620
9.4148 1.0122 -2.0016 0.9620
8.9817 2.9894 -2.0010 0.9620
8.8582 3.3039 -1.9984 0.9621
8.2135 3.7510 -1.9086 0.9638
7.5199 4.4617 -1.8483 0.9649
7.1818 4.9864 -1.8481 0.9649
6.9989 5.2393 -1.8480 0.9649
6.8072 5.4856 -1.8480 0.9649
6.6068 5.7248 -1.8479 0.9649
6.3980 5.9567 -1.8478 0.9649
6.1811 6.1811 -1.8477 0.9649
5.7240 6.6058 -1.8476 0.9649
5.4843 6.8056 -1.8475 0.9649
5.2378 6.9968 -1.8475 0.9649
4.7250 7.3522 -1.8474 0.9649
4.4594 7.5159 -1.8473 0.9649
3.9117 7.8145 -1.8472 0.9649
3.6302 7.9490 -1.8472 0.9649
3.3441 8.0733 -1.8471 0.9649
3.0537 8.1873 -1.8471 0.9649
2.4618 8.3841 -1.8470 0.9649
1.2435 8.6486 -1.8470 0.9649
0.9340 8.6875 -1.8469 0.9649
0.3119 8.7319 -1.8469 0.9649
-0.3119 8.7319 -1.8469 0.9649
-0.9340 8.6874 -1.8469 0.9649
-1.2435 8.6486 -1.8469 0.9649
-1.5514 8.5988 -1.8470 0.9649
-1.8573 8.5380 -1.8470 0.9649
-2.4617 8.3839 -1.8470 0.9649
-3.0537 8.1872 -1.8471 0.9649
-3.3440 8.0732 -1.8471 0.9649
-2.5048 5.0040 -1.1829 0.9774
-4.1881 7.6700 -1.8472 0.9649
-5.2376 6.9966 -1.8474 0.9649
-5.4842 6.8054 -1.8475 0.9649
-5.7238 6.6056 -1.8476 0.9649
-5.9561 6.3973 -1.8476 0.9649
-6.1808 6.1808 -1.8477 0.9649
-6.6065 5.7246 -1.8478 0.9649
-6.8069 5.4854 -1.8479 0.9649
-6.9987 5.2391 -1.8480 0.9649
-7.1815 4.9862 -1.8481 0.9649
-7.3552 4.7269 -1.8481 0.9649
-7.5196 4.4616 -1.8482 0.9649
-8.4167 3.8438 -1.9559 0.9629
-8.7238 3.6135 -1.9960 0.9621
-8.8684 3.3077 -2.0008 0.9620
-8.9813 2.9893 -2.0009 0.9620
-9.0828 2.6670 -2.0010 0.9620
-9.2508 2.0124 -2.0012 0.9620
-9.3172 1.6810 -2.0013 0.9620
-9.4450 0.6755 -2.0016 0.9620
8.5178 0.0000 -2.0019 0.9656
8.4678 0.9104 -2.0016 0.9656
8.4295 1.2120 -2.0015 0.9656
8.3805 1.5120 -2.0014 0.9656
8.3208 1.8101 -2.0013 0.9656
8.1697 2.3988 -2.0011 0.9656
8.0785 2.6888 -2.0010 0.9656
7.5864 3.7975 -1.9939 0.9657
7.1829 3.9221 -1.9234 0.9669
6.7639 4.0132 -1.8484 0.9682
6.6161 4.2519 -1.8483 0.9682
6.4599 4.4851 -1.8483 0.9682
5.9427 5.1494 -1.8481 0.9682
5.5598 5.5598 -1.8479 0.9682
5.1487 5.9419 -1.8478 0.9682
4.4836 6.4576 -1.8476 0.9682
4.2502 6.6134 -1.8476 0.9682
4.0113 6.7607 -1.8476 0.9682
3.5186 7.0293 -1.8475 0.9682
3.2654 7.1503 -1.8474 0.9682
3.0081 7.2621 -1.8474 0.9682
2.4823 7.4580 -1.8473 0.9682
1.6707 7.6802 -1.8473 0.9682
1.3955 7.7349 -1.8472 0.9682
1.1186 7.7797 -1.8472 0.9682
0.5607 7.8396 -1.8472 0.9682
0.2805 7.8546 -1.8472 0.9682
0.0000 7.8596 -1.8472 0.9682
-0.2805 7.8546 -1.8472 0.9682
-0.5607 7.8396 -1.8472 0.9682
-0.8401 7.8146 -1.8472 0.9682
-1.1185 7.7797 -1.8472 0.9682
-2.7469 7.3646 -1.8473 0.9682
-2.2920 5.0187 -1.2967 0.9776
-2.4951 4.9845 -1.3100 0.9774
-4.2501 6.6132 -1.8476 0.9682
-4.4835 6.4575 -1.8476 0.9682
-4.9330 6.1216 -1.8477 0.9682
-5.1485 5.9418 -1.8478 0.9682
-5.5597 5.5597 -1.8479 0.9682
-6.2952 4.7125 -1.8481 0.9682
-6.4596 4.4850 -1.8482 0.9682
-6.6158 4.2517 -1.8483 0.9682
-7.7406 3.5350 -2.0000 0.9656
-7.8651 3.2579 -2.0008 0.9656
-7.9767 2.9752 -2.0009 0.9656
-8.1694 2.3987 -2.0011 0.9656
-8.2502 2.1057 -2.0011 0.9656
-8.3802 1.5120 -2.0013 0.9656
-8.4292 1.2120 -2.0014 0.9656
-8.4950 0.6076 -2.0016 0.9656
-8.5116 0.3040 -2.0017 0.9656
7.7317 0.0000 -2.0019 0.9686
7.6517 1.1002 -2.0015 0.9686
7.6072 1.3725 -2.0015 0.9686
7.3333 2.4407 -2.0011 0.9686
7.2412 2.7008 -2.0010 0.9686
6.9102 3.4590 -2.0008 0.9686
6.6235 3.9299 -1.9941 0.9687
5.9243 4.1133 -1.8674 0.9706
5.7148 4.2781 -1.8483 0.9709
5.5583 4.4792 -1.8483 0.9709
5.2242 4.8639 -1.8481 0.9709
4.6740 5.3940 -1.8480 0.9709
4.4783 5.5573 -1.8479 0.9709
4.2770 5.7134 -1.8479 0.9709
4.0703 5.8623 -1.8478 0.9709
3.8583 6.0037 -1.8478 0.9709
3.6415 6.1374 -1.8477 0.9709
3.4200 6.2633 -1.8477 0.9709
2.4937 6.6858 -1.8476 0.9709
2.2534 6.7705 -1.8475 0.9709
2.0103 6.8465 -1.8475 0.9709
1.5167 6.9723 -1.8475 0.9709
1.2669 7.0219 -1.8475 0.9709
1.0155 7.0626 -1.8474 0.9709
0.5090 7.1170 -1.8474 0.9709
-0.5090 7.1170 -1.8474 0.9709
-1.7646 6.9137 -1.8475 0.9709
-2.2852 5.0038 -1.4243 0.9775
-2.4880 4.9705 -1.4392 0.9773
-3.4200 6.2632 -1.8477 0.9709
-3.6414 6.1373 -1.8477 0.9709
-4.0702 5.8621 -1.8478 0.9709
-4.6738 5.3939 -1.8479 0.9709
-5.0470 5.0470 -1.8480 0.9709
-5.2241 4.8638 -1.8481 0.9709
-5.5581 4.4790 -1.8482 0.9709
-6.0357 4.1906 -1.9025 0.9701
-6.4280 4.1310 -1.9784 0.9689
-6.6291 3.9333 -1.9958 0.9687
-7.3330 2.4407 -2.0010 0.9686
-7.4157 2.1775 -2.0011 0.9686
-7.4890 1.9115 -2.0012 0.9686
-7.5528 1.6430 -2.0013 0.9686
-7.6514 1.1001 -2.0015 0.9686
-7.6861 0.8263 -2.0015 0.9686
-7.7262 0.2759 -2.0017 0.9686
7.0714 0.0000 -2.0019 0.9710
7.0667 0.2524 -2.0018 0.9710
7.0529 0.5044 -2.0017 0.9710
6.9984 1.0062 -2.0016 0.9710
6.9577 1.2553 -2.0015 0.9710
6.8499 1.7483 -2.0013 0.9710
6.7072 2.2324 -2.0012 0.9710
6.6230 2.4703 -2.0011 0.9710
6.5304 2.7050 -2.0010 0.9710
6.4295 2.9362 -2.0010 0.9710
6.2032 3.3872 -2.0008 0.9710
6.0781 3.6063 -2.0007 0.9710
5.9363 3.8151 -1.9977 0.9711
5.7872 4.0181 -1.9945 0.9711
4.9344 4.2756 -1.8483 0.9732
4.7784 4.4489 -1.8483 0.9732
4.6165 4.6165 -1.8482 0.9732
4.4486 4.7782 -1.8482 0.9732
4.0962 5.0831 -1.8481 0.9732
3.9121 5.2259 -1.8480 0.9732
3.7230 5.3621 -1.8480 0.9732
3.1283 5.7290 -1.8479 0.9732
2.9217 5.8369 -1.8478 0.9732
2.4978 6.0302 -1.8478 0.9732
2.2810 6.1154 -1.8477 0.9732
1.3874 6.3775 -1.8477 0.9732
0.9288 6.4602 -1.8476 0.9732
0.2330 6.5223 -1.8476 0.9732
0.0000 6.5265 -1.8476 0.9732
-0.2329 6.5223 -1.8476 0.9732
-0.4656 6.5099 -1.8476 0.9732
-0.9288 6.4601 -1.8476 0.9732
-1.1588 6.4229 -1.8476 0.9732
-1.6141 6.3240 -1.8477 0.9732
-2.0612 6.1928 -1.8477 0.9732
-2.2789 4.9901 -1.5530 0.9775
-3.1282 5.7289 -1.8478 0.9732
-3.3307 5.6137 -1.8479 0.9732
-3.7229 5.3620 -1.8480 0.9732
-4.0961 5.0830 -1.8480 0.9732
-4.2750 4.9337 -1.8481 0.9732
-4.6164 4.6164 -1.8482 0.9732
-4.7783 4.4488 -1.8482 0.9732
-4.9753 4.3111 -1.8637 0.9730
-5.6342 4.2177 -1.9924 0.9712
-5.9408 3.8180 -1.9992 0.9711
-6.3201 3.1636 -2.0008 0.9710
-6.6228 2.4702 -2.0010 0.9710
-6.7070 2.2323 -2.0011 0.9710
-6.7827 1.9916 -2.0012 0.9710
-6.8497 1.7483 -2.0013 0.9710
-6.9575 1.2553 -2.0014 0.9710
-6.9981 1.0062 -2.0015 0.9710
-7.0299 0.7558 -2.0016 0.9710
-7.0526 0.5044 -2.0017 0.9710
6.5085 -0.0000 -2.0019 0.9731
6.5041 0.2323 -2.0018 0.9731
6.4705 0.6957 -2.0017 0.9731
6.4039 1.1554 -2.0015 0.9731
6.3584 1.3832 -2.0014 0.9731
6.3047 1.6092 -2.0014 0.9731
6.2431 1.8331 -2.0013 0.9731
6.0107 2.4897 -2.0011 0.9731
5.8174 2.9120 -2.0010 0.9731
5.7096 3.1177 -2.0009 0.9731
5.3431 3.7098 -2.0007 0.9731
5.1999 3.8926 -1.9979 0.9732
5.0507 4.0701 -1.9951 0.9732
4.8696 4.2195 -1.9818 0.9734
4.5749 4.2594 -1.9226 0.9742
4.0948 4.3981 -1.8483 0.9752
3.7704 4.6787 -1.8482 0.9752
3.0659 5.1673 -1.8480 0.9752
2.2992 5.5506 -1.8479 0.9752
1.6926 5.7644 -1.8479 0.9752
1.2770 5.8703 -1.8478 0.9752
0.4286 5.9922 -1.8478 0.9752
0.0000 6.0075 -1.8478 0.9752
-0.2144 6.0036 -1.8478 0.9752
-0.4286 5.9922 -1.8478 0.9752
-0.6422 5.9731 -1.8478 0.9752
-0.8550 5.9464 -1.8478 0.9752
-1.6926 5.7643 -1.8478 0.9752
-2.0995 5.6290 -1.8479 0.9752
-2.2733 4.9778 -1.6832 0.9774
-2.4779 4.9502 -1.7027 0.9771
-3.4268 4.9355 -1.8481 0.9752
-3.7703 4.6787 -1.8482 0.9752
-4.0947 4.3980 -1.8483 0.9752
-4.3567 4.3567 -1.8951 0.9745
-4.6427 4.3225 -1.9511 0.9738
-5.0540 4.0728 -1.9964 0.9732
-5.3430 3.7097 -2.0007 0.9731
-5.4721 3.5167 -2.0007 0.9731
-5.7094 3.1176 -2.0008 0.9731
-6.0106 2.4897 -2.0010 0.9731
-6.2429 1.8331 -2.0012 0.9731
-6.3046 1.6091 -2.0013 0.9731
-6.3582 1.3831 -2.0014 0.9731
-6.4037 1.1554 -2.0015 0.9731
-6.4411 0.9261 -2.0015 0.9731
-6.4912 0.4643 -2.0017 0.9731
-6.5039 0.2323 -2.0017 0.9731
6.0224 0.0000 -2.0019 0.9749
5.9257 1.0691 -2.0015 0.9749
5.8339 1.4890 -2.0014 0.9749
5.7769 1.6962 -2.0013 0.9749
5.6408 2.1039 -2.0012 0.9749
5.1768 3.0716 -2.0009 0.9749
4.8184 3.6070 -2.0007 0.9749
4.6865 3.7766 -2.0007 0.9749
4.2408 4.2408 -1.9936 0.9750
4.0113 4.3084 -1.9568 0.9755
3.7620 4.3416 -1.9096 0.9761
3.0060 4.6774 -1.8482 0.9768
2.8371 4.7816 -1.8482 0.9768
2.6646 4.8798 -1.8481 0.9768
2.4887 4.9717 -1.8481 0.9768
2.3096 5.0573 -1.8481 0.9768
1.9429 5.2090 -1.8480 0.9768
1.5663 5.3342 -1.8480 0.9768
1.3749 5.3867 -1.8480 0.9768
0.7912 5.5027 -1.8479 0.9768
0.1984 5.5557 -1.8479 0.9768
0.0000 5.5592 -1.8479 0.9768
-0.1984 5.5557 -1.8479 0.9768
-0.3966 5.5450 -1.8479 0.9768
-0.7912 5.5026 -1.8479 0.9768
-0.9871 5.4709 -1.8479 0.9768
-1.5662 5.3342 -1.8480 0.9768
-1.7557 5.2749 -1.8480 0.9768
-1.9428 5.2090 -1.8480 0.9768
-2.2676 4.9654 -1.8145 0.9773
-2.8370 4.7816 -1.8481 0.9768
-3.0059 4.6774 -1.8482 0.9768
-3.1710 4.5672 -1.8482 0.9768
-3.5602 4.4180 -1.8860 0.9764
-4.0638 4.3648 -1.9824 0.9752
-4.3970 4.0938 -1.9970 0.9750
-4.6864 3.7765 -2.0006 0.9749
-4.8183 3.6070 -2.0007 0.9749
-4.9441 3.4328 -2.0007 0.9749
-5.3829 2.6945 -2.0010 0.9749
-5.4759 2.5007 -2.0010 0.9749
-5.7767 1.6962 -2.0013 0.9749
-5.8338 1.4890 -2.0014 0.9749
-5.8834 1.2799 -2.0014 0.9749
-5.9255 1.0691 -2.0015 0.9749
5.5979 0.0000 -2.0019 0.9765
5.5654 0.5983 -2.0017 0.9765
5.5082 0.9938 -2.0016 0.9765
5.4690 1.1897 -2.0015 0.9765
5.3699 1.5767 -2.0014 0.9765
5.3100 1.7673 -2.0013 0.9765
5.2434 1.9557 -2.0013 0.9765
5.0902 2.3246 -2.0011 0.9765
4.9112 2.6817 -2.0010 0.9765
4.7071 3.0250 -2.0009 0.9765
4.5960 3.1910 -2.0009 0.9765
4.4791 3.3530 -2.0008 0.9765
3.9527 3.9527 -1.9990 0.9765
3.6532 4.2160 -1.9949 0.9766
3.4970 4.3395 -1.9930 0.9766
2.6373 4.4449 -1.8483 0.9783
2.3134 4.6216 -1.8482 0.9783
2.1470 4.7012 -1.8482 0.9783
1.9778 4.7747 -1.8482 0.9783
1.6321 4.9035 -1.8481 0.9783
1.4560 4.9586 -1.8481 0.9783
1.2781 5.0074 -1.8481 0.9783
1.0985 5.0498 -1.8481 0.9783
0.9176 5.0857 -1.8481 0.9783
0.7355 5.1152 -1.8480 0.9783
0.3687 5.1546 -1.8480 0.9783
0.1845 5.1645 -1.8480 0.9783
0.0000 5.1678 -1.8480 0.9783
-0.1844 5.1645 -1.8480 0.9783
-0.3687 5.1546 -1.8480 0.9783
-0.5524 5.1382 -1.8480 0.9783
-0.9176 5.0857 -1.8481 0.9783
-1.0985 5.0498 -1.8481 0.9783
-1.2780 5.0074 -1.8481 0.9783
-1.4560 4.9586 -1.8481 0.9783
-1.6320 4.9035 -1.8481 0.9783
-1.8060 4.8422 -1.8481 0.9783
-1.9777 4.7747 -1.8481 0.9783
-2.1469 4.7011 -1.8482 0.9783
-2.4769 4.5361 -1.8482 0.9783
-2.6548 4.4744 -1.8605 0.9781
-3.3061 4.4164 -1.9728 0.9768
-3.6549 4.2179 -1.9958 0.9766
-3.9547 3.9547 -2.0000 0.9765
-4.0946 3.8122 -2.0006 0.9765
-4.2281 3.6637 -2.0007 0.9765
-4.3563 3.5105 -2.0007 0.9765
-4.4789 3.3529 -2.0008 0.9765
-4.5959 3.1910 -2.0008 0.9765
-5.0037 2.5047 -2.0010 0.9765
-5.0901 2.3246 -2.0011 0.9765
-5.2433 1.9556 -2.0012 0.9765
-5.4228 1.3841 -2.0014 0.9765
-5.4689 1.1897 -2.0014 0.9765
-5.5941 0.1998 -2.0018 0.9765
5.2102 0.3726 -2.0018 0.9779
5.1036 1.1102 -2.0015 0.9779
5.0605 1.2916 -2.0015 0.9779
4.9552 1.6493 -2.0014 0.9779
4.8931 1.8250 -2.0013 0.9779
4.7502 2.1693 -2.0012 0.9779
4.5830 2.5025 -2.0011 0.9779
4.4907 2.6645 -2.0010 0.9779
4.3926 2.8230 -2.0010 0.9779
4.1799 3.1290 -2.0009 0.9779
3.6917 3.6917 -2.0007 0.9779
3.5575 3.8210 -2.0007 0.9779
3.1219 4.1704 -1.9964 0.9779
2.2258 4.4466 -1.9056 0.9789
2.0369 4.4602 -1.8790 0.9792
1.8529 4.4734 -1.8555 0.9795
1.3588 4.6275 -1.8482 0.9796
1.0252 4.7125 -1.8482 0.9796
0.8563 4.7461 -1.8482 0.9796
0.6864 4.7736 -1.8482 0.9796
0.3441 4.8104 -1.8481 0.9796
0.0000 4.8227 -1.8481 0.9796
-0.3440 4.8104 -1.8481 0.9796
-0.5155 4.7951 -1.8481 0.9796
-0.8563 4.7461 -1.8482 0.9796
-1.0251 4.7125 -1.8482 0.9796
-1.3587 4.6275 -1.8482 0.9796
-1.6854 4.5188 -1.8482 0.9796
-1.8642 4.5006 -1.8668 0.9793
-2.2421 4.4791 -1.9195 0.9788
-2.4392 4.4671 -1.9505 0.9784
-2.6417 4.4523 -1.9839 0.9781
-2.8130 4.3771 -1.9939 0.9780
-3.1232 4.1720 -1.9972 0.9779
-3.4187 3.9454 -2.0006 0.9779
-3.5574 3.8209 -2.0006 0.9779
-3.9457 3.4190 -2.0008 0.9779
-4.0653 3.2761 -2.0008 0.9779
-4.1798 3.1289 -2.0008 0.9779
-4.2889 2.9778 -2.0009 0.9779
-4.3925 2.8229 -2.0009 0.9779
-4.4906 2.6644 -2.0010 0.9779
-4.6695 2.3374 -2.0011 0.9779
-4.7500 2.1693 -2.0011 0.9779
-4.8246 1.9984 -2.0012 0.9779
-4.9551 1.6492 -2.0013 0.9779
-5.0604 1.2916 -2.0014 0.9779
-5.1034 1.1102 -2.0015 0.9779
-5.1699 0.7433 -2.0016 0.9779
-5.2101 0.3726 -2.0017 0.9779
-5.2202 0.1865 -2.0018 0.9779
4.8912 0.0000 -2.0019 0.9791
4.8880 0.1746 -2.0018 0.9791
4.8628 0.5228 -2.0017 0.9791
4.8409 0.6960 -2.0016 0.9791
4.8129 0.8683 -2.0016 0.9791
4.7384 1.2094 -2.0015 0.9791
4.6921 1.3777 -2.0014 0.9791
4.6398 1.5443 -2.0014 0.9791
4.4478 2.0312 -2.0012 0.9791
4.3724 2.1887 -2.0012 0.9791
4.2914 2.3433 -2.0011 0.9791
4.2049 2.4949 -2.0011 0.9791
3.5780 3.3313 -2.0008 0.9791
3.3311 3.5779 -2.0007 0.9791
3.2012 3.6944 -2.0007 0.9791
3.0673 3.8062 -2.0007 0.9791
2.9294 3.9132 -2.0006 0.9791
2.4894 4.1957 -1.9967 0.9791
2.3365 4.2790 -1.9954 0.9791
2.1810 4.3570 -1.9942 0.9792
2.0229 4.4296 -1.9930 0.9792
1.8440 4.4519 -1.9722 0.9794
1.4897 4.4759 -1.9307 0.9798
1.3175 4.4870 -1.9139 0.9800
0.6487 4.5118 -1.8655 0.9805
0.4855 4.5163 -1.8591 0.9806
0.3233 4.5210 -1.8551 0.9806
0.1617 4.5258 -1.8535 0.9806
0.0000 4.5290 -1.8536 0.9806
-0.3237 4.5256 -1.8569 0.9806
-0.4863 4.5237 -1.8621 0.9805
-0.8153 4.5188 -1.8793 0.9803
-0.9823 4.5156 -1.8914 0.9802
-1.1516 4.5121 -1.9059 0.9801
-1.3234 4.5072 -1.9226 0.9799
-1.4972 4.4985 -1.9404 0.9797
-1.6744 4.4892 -1.9609 0.9795
-1.8553 4.4792 -1.9843 0.9793
-2.1816 4.3582 -1.9947 0.9792
-2.3372 4.2803 -1.9960 0.9791
-2.6402 4.1083 -1.9987 0.9791
-3.0672 3.8062 -2.0006 0.9791
-3.2012 3.6944 -2.0007 0.9791
-3.3311 3.5778 -2.0007 0.9791
-3.6946 3.2014 -2.0008 0.9791
-3.8066 3.0676 -2.0009 0.9791
-4.1130 2.6433 -2.0010 0.9791
-4.5175 1.8712 -2.0012 0.9791
-4.5815 1.7088 -2.0013 0.9791
-4.6920 1.3777 -2.0014 0.9791
-2.1703 0.3916 -0.9026 0.9905
-1.9449 0.2796 -0.8042 0.9915
-1.9525 0.1396 -0.8011 0.9916
-1.9308 0.0690 -0.7907 0.9917
4.5903 0.1639 -2.0018 0.9802
4.5814 0.3277 -2.0018 0.9802
4.5667 0.4910 -2.0017 0.9802
4.4877 0.9762 -2.0016 0.9802
4.3573 1.4502 -2.0014 0.9802
4.3027 1.6048 -2.0014 0.9802
4.2425 1.7573 -2.0013 0.9802
3.9489 2.3430 -2.0011 0.9802
3.7715 2.6186 -2.0010 0.9802
3.6756 2.7515 -2.0010 0.9802
3.5750 2.8809 -2.0010 0.9802
3.4698 3.0066 -2.0009 0.9802
3.2463 3.2463 -2.0008 0.9802
3.1283 3.3601 -2.0008 0.9802
3.0064 3.4695 -2.0008 0.9802
2.8806 3.5746 -2.0007 0.9802
2.6182 3.7708 -2.0007 0.9802
2.4819 3.8618 -2.0006 0.9802
2.1991 4.0274 -1.9998 0.9802
1.9041 4.1694 -1.9976 0.9802
1.6003 4.2906 -1.9957 0.9802
1.4456 4.3433 -1.9950 0.9802
1.1313 4.4324 -1.9936 0.9802
0.9721 4.4686 -1.9931 0.9802
0.8094 4.4861 -1.9867 0.9803
0.6457 4.4912 -1.9774 0.9804
0.4833 4.4957 -1.9706 0.9805
-0.0000 4.5068 -1.9641 0.9805
-0.4841 4.5031 -1.9738 0.9804
-0.6471 4.5008 -1.9817 0.9804
-0.9722 4.4692 -1.9933 0.9802
-1.7536 4.2336 -1.9971 0.9802
-2.4818 3.8618 -2.0006 0.9802
-2.7511 3.6750 -2.0007 0.9802
-3.1283 3.3600 -2.0008 0.9802
-3.3601 3.1284 -2.0009 0.9802
-3.4697 3.0065 -2.0009 0.9802
-3.5749 2.8808 -2.0009 0.9802
-3.9488 2.3429 -2.0011 0.9802
-1.5984 0.5962 -0.7435 0.9926
-1.5875 0.5284 -0.7292 0.9927
-1.5214 0.3310 -0.6786 0.9932
-1.5249 0.1639 -0.6684 0.9933
-1.5284 0.0546 -0.6665 0.9933
4.3135 0.3085 -2.0018 0.9811
4.2555 0.7678 -2.0016 0.9811
4.1897 1.0693 -2.0015 0.9811
4.1488 1.2182 -2.0015 0.9811
4.1026 1.3655 -2.0014 0.9811
4.0511 1.5110 -2.0014 0.9811
3.8661 1.9353 -2.0013 0.9811
3.7181 2.2060 -2.0012 0.9811
3.1638 2.9456 -2.0009 0.9811
3.0566 3.0566 -2.0009 0.9811
2.8307 3.2667 -2.0008 0.9811
2.5903 3.4603 -2.0008 0.9811
2.4651 3.5504 -2.0007 0.9811
2.3368 3.6361 -2.0007 0.9811
2.2055 3.7172 -2.0007 0.9811
2.0714 3.7935 -2.0007 0.9811
1.5099 4.0483 -2.0000 0.9811
1.3640 4.0981 -1.9993 0.9811
1.2164 4.1428 -1.9986 0.9811
0.9173 4.2165 -1.9974 0.9812
0.6139 4.2695 -1.9966 0.9812
-0.1539 4.3096 -1.9961 0.9812
-0.4610 4.2884 -1.9965 0.9812
-0.9174 4.2170 -1.9977 0.9812
-1.0676 4.1828 -1.9982 0.9812
-1.3642 4.0988 -1.9996 0.9811
-1.6539 3.9930 -2.0006 0.9811
-1.7954 3.9315 -2.0006 0.9811
-1.9346 3.8649 -2.0006 0.9811
-2.4651 3.5504 -2.0007 0.9811
-2.8306 3.2667 -2.0008 0.9811
-3.4607 2.5906 -2.0010 0.9811
-3.5510 2.4655 -2.0011 0.9811
-3.7180 2.2060 -2.0011 0.9811
-3.7944 2.0719 -2.0012 0.9811
-1.3151 0.6006 -0.6692 0.9936
-1.3241 0.3888 -0.6388 0.9939
-1.3116 0.3348 -0.6266 0.9941
-1.3013 0.2831 -0.6164 0.9941
-1.3384 0.0957 -0.6211 0.9941
4.0784 0.1457 -2.0018 0.9820
4.0705 0.2911 -2.0018 0.9820
4.0392 0.5807 -2.0017 0.9820
4.0158 0.7245 -2.0016 0.9820
3.9151 1.1496 -2.0015 0.9820
3.8229 1.4258 -2.0014 0.9820
3.7113 1.6949 -2.0013 0.9820
3.6484 1.8262 -2.0013 0.9820
3.5086 2.0818 -2.0012 0.9820
3.4320 2.2056 -2.0012 0.9820
3.3511 2.3267 -2.0011 0.9820
3.2658 2.4448 -2.0011 0.9820
3.1764 2.5597 -2.0011 0.9820
2.7796 2.9855 -2.0009 0.9820
2.6712 3.0828 -2.0009 0.9820
2.0813 3.5079 -2.0008 0.9820
1.8257 3.6473 -2.0007 0.9820
1.6944 3.7101 -2.0007 0.9820
1.5608 3.7682 -2.0007 0.9820
1.2880 3.8699 -2.0006 0.9820
1.0086 3.9518 -2.0006 0.9820
0.2909 4.0673 -2.0002 0.9820
-0.1455 4.0750 -2.0002 0.9820
-0.2909 4.0675 -2.0003 0.9820
-0.7241 4.0137 -2.0006 0.9820
-0.8669 3.9853 -2.0006 0.9820
-1.0086 3.9518 -2.0006 0.9820
-1.2880 3.8698 -2.0006 0.9820
-1.4253 3.8214 -2.0006 0.9820
-1.5608 3.7682 -2.0007 0.9820
-1.6943 3.7101 -2.0007 0.9820
-1.8257 3.6473 -2.0007 0.9820
-1.9547 3.5798 -2.0007 0.9820
-2.4444 3.2654 -2.0008 0.9820
-2.5594 3.1761 -2.0008 0.9820
-2.7796 2.9855 -2.0009 0.9820
-3.0829 2.6714 -2.0010 0.9820
-1.1484 0.4757 -0.6097 0.9945
-1.1578 0.3854 -0.5986 0.9946
-1.1590 0.3403 -0.5925 0.9946
-1.1578 0.2955 -0.5861 0.9947
-1.1695 0.2544 -0.5871 0.9947
-1.1867 0.1706 -0.5881 0.9947
-1.1921 0.1282 -0.5881 0.9947
-1.1964 0.0427 -0.5873 0.9947
3.8563 0.1377 -2.0018 0.9828
3.8364 0.4125 -2.0017 0.9828
3.7701 0.8201 -2.0016 0.9828
3.7384 0.9542 -2.0016 0.9828
3.6606 1.2184 -2.0015 0.9828
3.5092 1.6026 -2.0014 0.9828
3.4497 1.7268 -2.0013 0.9828
3.3858 1.8488 -2.0013 0.9828
3.3176 1.9684 -2.0012 0.9828
3.1686 2.2000 -2.0012 0.9828
3.0880 2.3117 -2.0011 0.9828
3.0035 2.4204 -2.0011 0.9828
2.9151 2.5260 -2.0011 0.9828
2.5258 2.9150 -2.0009 0.9828
2.4201 3.0032 -2.0009 0.9828
2.1997 3.1681 -2.0009 0.9828
2.0852 3.2446 -2.0008 0.9828
1.9680 3.3169 -2.0008 0.9828
0.9537 3.7367 -2.0007 0.9828
0.6847 3.7952 -2.0007 0.9828
0.5488 3.8172 -2.0007 0.9828
-0.1376 3.8540 -2.0006 0.9828
-0.2751 3.8466 -2.0006 0.9828
-0.4122 3.8344 -2.0006 0.9828
-0.5488 3.8172 -2.0006 0.9828
-0.6847 3.7952 -2.0007 0.9828
-0.8197 3.7683 -2.0007 0.9828
-1.9680 3.3169 -2.0008 0.9828
-2.0851 3.2445 -2.0008 0.9828
-2.1996 3.1681 -2.0008 0.9828
-2.3113 3.0876 -2.0009 0.9828
-2.4201 3.0032 -2.0009 0.9828
-2.6283 2.8229 -2.0009 0.9828
-2.7274 2.7274 -2.0010 0.9828
-2.8230 2.6283 -2.0010 0.9828
-2.9151 2.5259 -2.0010 0.9828
-3.0034 2.4203 -2.0011 0.9828
-3.0879 2.3116 -2.0011 0.9828
-3.2451 2.0855 -2.0012 0.9828
-1.0118 0.5525 -0.5981 0.9948
-1.0636 0.3123 -0.5751 0.9950
-1.0704 0.2732 -0.5731 0.9950
-1.0905 0.1968 -0.5749 0.9950
-1.1024 0.1185 -0.5752 0.9950
-1.1055 0.0791 -0.5750 0.9950
-1.1066 0.0395 -0.5744 0.9950
3.6550 0.0000 -2.0019 0.9835
3.6456 0.2607 -2.0018 0.9835
3.5966 0.6489 -2.0017 0.9835
3.5711 0.7768 -2.0016 0.9835
3.4673 1.1540 -2.0015 0.9835
3.3760 1.3984 -2.0014 0.9835
3.2675 1.6356 -2.0013 0.9835
3.0738 1.9754 -2.0012 0.9835
2.9250 2.1896 -2.0012 0.9835
2.8449 2.2926 -2.0011 0.9835
2.7613 2.3926 -2.0011 0.9835
2.6740 2.4896 -2.0011 0.9835
2.5834 2.5834 -2.0010 0.9835
2.4896 2.6740 -2.0010 0.9835
2.2924 2.8447 -2.0010 0.9835
1.9751 3.0733 -2.0009 0.9835
1.7508 3.2063 -2.0009 0.9835
1.6352 3.2667 -2.0008 0.9835
1.3980 3.3750 -2.0008 0.9835
1.1536 3.4661 -2.0008 0.9835
0.7765 3.5695 -2.0007 0.9835
0.0000 3.6529 -2.0007 0.9835
-0.2606 3.6436 -2.0007 0.9835
-0.7765 3.5695 -2.0007 0.9835
-0.9034 3.5395 -2.0007 0.9835
-1.2766 3.4227 -2.0008 0.9835
-1.3980 3.3750 -2.0008 0.9835
-1.6352 3.2667 -2.0008 0.9835
-1.7508 3.2063 -2.0008 0.9835
-1.9751 3.0733 -2.0009 0.9835
-2.4895 2.6739 -2.0010 0.9835
-2.6740 2.4896 -2.0011 0.9835
-2.8449 2.2925 -2.0011 0.9835
-2.9249 2.1896 -2.0011 0.9835
-0.8661 0.6013 -0.5775 0.9952
-0.8881 0.5708 -0.5782 0.9952
-0.9084 0.5390 -0.5785 0.9952
-0.9434 0.4722 -0.5778 0.9952
-0.9741 0.3633 -0.5694 0.9953
-0.9785 0.3257 -0.5648 0.9953
-1.0039 0.2184 -0.5627 0.9953
-1.0124 0.1827 -0.5634 0.9953
-1.0236 0.1101 -0.5639 0.9953
-1.0265 0.0734 -0.5637 0.9953
2.0320 0.0726 -1.1739 0.9907
2.0366 0.2190 -1.1826 0.9906
2.0153 0.3636 -1.1823 0.9906
1.9616 0.5007 -1.1688 0.9907
1.8682 0.6968 -1.1512 0.9908
1.8620 0.7713 -1.1636 0.9907
1.8508 0.8452 -1.1747 0.9906
3.0424 1.6613 -2.0013 0.9841
2.9811 1.7688 -2.0013 0.9841
2.9160 1.8740 -2.0013 0.9841
2.7748 2.0772 -2.0012 0.9841
2.6989 2.1749 -2.0012 0.9841
2.5368 2.3618 -2.0011 0.9841
2.4508 2.4508 -2.0011 0.9841
2.2697 2.6193 -2.0010 0.9841
2.1747 2.6987 -2.0010 0.9841
2.0770 2.7745 -2.0010 0.9841
1.9766 2.8469 -2.0010 0.9841
1.8737 2.9156 -2.0009 0.9841
1.6609 3.0417 -2.0009 0.9841
1.5513 3.0991 -2.0009 0.9841
1.2111 3.2470 -2.0008 0.9841
1.0944 3.2882 -2.0008 0.9841
0.9763 3.3251 -2.0008 0.9841
0.6153 3.4104 -2.0008 0.9841
0.3704 3.4456 -2.0008 0.9841
0.1237 3.4632 -2.0008 0.9841
0.0000 3.4654 -2.0008 0.9841
-0.1237 3.4632 -2.0008 0.9841
-0.2472 3.4566 -2.0008 0.9841
-0.3704 3.4456 -2.0008 0.9841
-0.7366 3.3863 -2.0008 0.9841
-0.9763 3.3251 -2.0008 0.9841
-1.0944 3.2882 -2.0008 0.9841
-1.4396 3.1524 -2.0009 0.9841
-1.6609 3.0417 -2.0009 0.9841
-1.7684 2.9805 -2.0009 0.9841
-1.8737 2.9155 -2.0009 0.9841
-1.9766 2.8468 -2.0009 0.9841
-2.0770 2.7745 -2.0010 0.9841
-2.1747 2.6986 -2.0010 0.9841
-2.2697 2.6193 -2.0010 0.9841
-2.5367 2.3618 -2.0011 0.9841
-2.6195 2.2698 -2.0011 0.9841
-0.7846 0.5873 -0.5658 0.9955
-0.8178 0.5256 -0.5613 0.9955
-0.8364 0.4963 -0.5615 0.9955
-0.8941 0.3703 -0.5587 0.9955
-0.9058 0.3015 -0.5511 0.9956
-0.9151 0.2687 -0.5506 0.9956
-0.9259 0.2363 -0.5517 0.9956
-0.9430 0.1701 -0.5532 0.9956
-0.9492 0.1365 -0.5536 0.9956
-0.9575 0.0342 -0.5532 0.9956
