ply
format ascii 1.0
element vertex 743
property float32 x
property float32 y
property float32 z
property float32 I
end_header
6.1667 7.6524 -1.8473 0.9608
5.6046 8.0722 -1.8471 0.9608
5.3128 8.2668 -1.8471 0.9608
5.0142 8.4509 -1.8470 0.9608
4.0817 8.9377 -1.8468 0.9608
3.4335 9.2057 -1.8467 0.9608
3.1027 9.3221 -1.8467 0.9608
2.7680 9.4268 -1.8467 0.9608
2.0884 9.5999 -1.8466 0.9608
1.7444 9.6682 -1.8466 0.9608
0.8545 5.9431 -1.1286 0.9759
1.0501 9.7678 -1.8466 0.9608
0.7008 9.7990 -1.8465 0.9608
-1.0501 9.7677 -1.8465 0.9608
-1.3981 9.7241 -1.8465 0.9608
-2.7679 9.4266 -1.8466 0.9608
-3.4334 9.2054 -1.8467 0.9608
-3.7599 9.0772 -1.8467 0.9608
-4.0816 8.9374 -1.8468 0.9608
-4.3981 8.7863 -1.8468 0.9608
-4.7090 8.6239 -1.8469 0.9608
-5.3125 8.2665 -1.8470 0.9608
-5.6044 8.0719 -1.8470 0.9608
-5.8892 7.8670 -1.8471 0.9608
-6.1664 7.6520 -1.8472 0.9608
9.4706 -0.0000 -2.0019 0.9620
9.4148 1.0122 -2.0016 0.9620
9.3177 1.6811 -2.0014 0.9620
9.2513 2.0125 -2.0013 0.9620
8.9817 2.9894 -2.0010 0.9620
7.8197 3.9143 -1.8484 0.9649
6.6067 5.7247 -1.8479 0.9649
6.3979 5.9566 -1.8478 0.9649
6.1810 6.1810 -1.8477 0.9649
5.9562 6.3974 -1.8477 0.9649
5.7239 6.6057 -1.8476 0.9649
5.4842 6.8055 -1.8475 0.9649
5.2377 6.9967 -1.8475 0.9649
4.9844 7.1789 -1.8474 0.9649
4.7249 7.3521 -1.8473 0.9649
4.1881 7.6700 -1.8472 0.9649
3.9116 7.8144 -1.8472 0.9649
3.3440 8.0731 -1.8471 0.9649
1.8573 8.5379 -1.8469 0.9649
1.0659 5.9081 -1.2690 0.9758
0.8476 5.8949 -1.2589 0.9759
0.6233 8.7150 -1.8469 0.9649
0.0000 8.7372 -1.8469 0.9649
-0.9340 8.6872 -1.8469 0.9649
-1.2434 8.6484 -1.8469 0.9649
-1.8573 8.5378 -1.8469 0.9649
-2.1608 8.4661 -1.8469 0.9649
-2.7594 8.2906 -1.8470 0.9649
-3.9115 7.8142 -1.8471 0.9649
-4.1880 7.6697 -1.8472 0.9649
-4.7247 7.3518 -1.8473 0.9649
-4.9843 7.1787 -1.8473 0.9649
-5.2375 6.9964 -1.8474 0.9649
-5.4840 6.8053 -1.8474 0.9649
-5.7236 6.6054 -1.8475 0.9649
-5.9559 6.3971 -1.8476 0.9649
-6.1807 6.1807 -1.8476 0.9649
-7.3551 4.7268 -1.8481 0.9649
-7.6743 4.1904 -1.8483 0.9649
-8.1183 4.0637 -1.9190 0.9636
-8.5803 3.9185 -1.9939 0.9622
-8.7352 3.6182 -1.9986 0.9621
-9.1725 2.3411 -2.0010 0.9620
-9.3171 1.6810 -2.0012 0.9620
-9.3716 1.3474 -2.0014 0.9620
-9.4143 1.0121 -2.0015 0.9620
8.5179 -0.0000 -2.0019 0.9656
8.5120 0.3040 -2.0018 0.9656
8.4678 0.9104 -2.0016 0.9656
8.3805 1.5120 -2.0014 0.9656
8.2505 2.1058 -2.0012 0.9656
7.9771 2.9753 -2.0009 0.9656
7.8654 3.2579 -2.0009 0.9656
7.7285 3.5295 -1.9968 0.9657
7.5569 3.7827 -1.9861 0.9659
7.1088 3.8817 -1.9036 0.9673
6.6160 4.2518 -1.8483 0.9682
6.2953 4.7126 -1.8482 0.9682
5.9426 5.1493 -1.8480 0.9682
5.5598 5.5598 -1.8479 0.9682
5.3576 5.7545 -1.8479 0.9682
4.7113 6.2936 -1.8477 0.9682
3.7673 6.8993 -1.8475 0.9682
3.2654 7.1501 -1.8474 0.9682
2.2144 7.5415 -1.8473 0.9682
1.0618 5.8854 -1.4055 0.9757
0.8451 5.8777 -1.3956 0.9759
0.5607 7.8394 -1.8472 0.9682
0.2805 7.8544 -1.8472 0.9682
0.0000 7.8594 -1.8471 0.9682
-0.5607 7.8394 -1.8472 0.9682
-0.8401 7.8144 -1.8472 0.9682
-1.6707 7.6800 -1.8472 0.9682
-1.9437 7.6155 -1.8472 0.9682
-2.2143 7.5414 -1.8472 0.9682
-2.4821 7.4577 -1.8473 0.9682
-3.7672 6.8991 -1.8474 0.9682
-4.0111 6.7604 -1.8475 0.9682
-4.2500 6.6131 -1.8475 0.9682
-4.4834 6.4573 -1.8476 0.9682
-4.7112 6.2934 -1.8476 0.9682
-5.5595 5.5595 -1.8478 0.9682
-6.1226 4.9339 -1.8480 0.9682
-6.2951 4.7124 -1.8481 0.9682
-6.4595 4.4849 -1.8482 0.9682
-7.9766 2.9751 -2.0008 0.9656
-8.0781 2.6886 -2.0009 0.9656
-8.3801 1.5119 -2.0013 0.9656
-8.4291 1.2119 -2.0014 0.9656
-8.4949 0.6076 -2.0016 0.9656
7.7318 -0.0000 -2.0019 0.9686
7.6865 0.8264 -2.0016 0.9686
7.5531 1.6431 -2.0014 0.9686
7.3333 2.4407 -2.0011 0.9686
7.2412 2.7008 -2.0010 0.9686
6.9093 3.4585 -2.0005 0.9686
6.7689 3.6961 -1.9968 0.9686
6.6207 3.9282 -1.9932 0.9687
5.8788 4.0817 -1.8531 0.9709
5.5583 4.4791 -1.8483 0.9709
5.3947 4.6745 -1.8482 0.9709
4.8636 5.2239 -1.8480 0.9709
4.6739 5.3940 -1.8480 0.9709
4.2770 5.7133 -1.8479 0.9709
3.6415 6.1373 -1.8477 0.9709
3.4200 6.2632 -1.8477 0.9709
2.9643 6.4910 -1.8476 0.9709
2.2534 6.7703 -1.8475 0.9709
2.0103 6.8464 -1.8475 0.9709
1.7646 6.9137 -1.8475 0.9709
0.8431 5.8637 -1.5338 0.9758
0.5090 7.1168 -1.8474 0.9709
0.2547 7.1304 -1.8474 0.9709
-0.2547 7.1304 -1.8474 0.9709
-0.5090 7.1168 -1.8474 0.9709
-0.7627 7.0941 -1.8474 0.9709
-1.5167 6.9721 -1.8474 0.9709
-2.0102 6.8463 -1.8475 0.9709
-2.4936 6.6856 -1.8475 0.9709
-2.7307 6.5924 -1.8475 0.9709
-3.1941 6.3810 -1.8476 0.9709
-3.8582 6.0034 -1.8477 0.9709
-4.4781 5.5570 -1.8479 0.9709
-4.8634 5.2237 -1.8480 0.9709
-5.0469 5.0469 -1.8480 0.9709
-5.2240 4.8637 -1.8481 0.9709
-6.1874 4.2959 -1.9503 0.9694
-6.4803 4.1646 -1.9945 0.9687
-6.6366 3.9377 -1.9980 0.9686
-6.7817 3.7031 -2.0006 0.9686
-6.9098 3.4588 -2.0007 0.9686
-7.0292 3.2101 -2.0008 0.9686
-7.1395 2.9573 -2.0009 0.9686
-7.2408 2.7007 -2.0009 0.9686
-7.3329 2.4406 -2.0010 0.9686
-7.4157 2.1774 -2.0011 0.9686
-7.6513 1.1001 -2.0014 0.9686
-7.6861 0.8263 -2.0015 0.9686
-7.7110 0.5515 -2.0016 0.9686
7.0529 0.5044 -2.0017 0.9710
6.9578 1.2553 -2.0015 0.9710
6.9082 1.5028 -2.0014 0.9710
6.8499 1.7483 -2.0013 0.9710
6.7829 1.9916 -2.0013 0.9710
6.7072 2.2324 -2.0012 0.9710
6.5304 2.7050 -2.0010 0.9710
6.4294 2.9362 -2.0010 0.9710
6.3203 3.1637 -2.0009 0.9710
6.0762 3.6052 -2.0001 0.9711
5.7853 4.0168 -1.9938 0.9711
5.5020 4.1187 -1.9456 0.9718
5.1787 4.1732 -1.8828 0.9727
4.9343 4.2756 -1.8483 0.9732
4.6164 4.6164 -1.8482 0.9732
4.2751 4.9337 -1.8481 0.9732
3.9120 5.2259 -1.8480 0.9732
3.7229 5.3620 -1.8480 0.9732
3.5291 5.4914 -1.8479 0.9732
3.3308 5.6137 -1.8479 0.9732
3.1282 5.7289 -1.8478 0.9732
2.4978 6.0301 -1.8477 0.9732
2.0612 6.1928 -1.8477 0.9732
1.8388 6.2623 -1.8477 0.9732
1.6141 6.3239 -1.8476 0.9732
1.0564 5.8551 -1.6843 0.9756
0.8411 5.8500 -1.6731 0.9757
0.6976 6.4890 -1.8476 0.9732
0.2329 6.5222 -1.8476 0.9732
-0.4656 6.5097 -1.8476 0.9732
-0.9288 6.4600 -1.8476 0.9732
-1.3873 6.3773 -1.8476 0.9732
-1.6140 6.3238 -1.8476 0.9732
-2.0611 6.1927 -1.8477 0.9732
-2.2809 6.1153 -1.8477 0.9732
-2.4977 6.0300 -1.8477 0.9732
-2.9216 5.8367 -1.8478 0.9732
-3.3307 5.6136 -1.8478 0.9732
-3.7228 5.3619 -1.8479 0.9732
-3.9119 5.2257 -1.8480 0.9732
-4.6163 4.6163 -1.8481 0.9732
-4.7808 4.4510 -1.8492 0.9732
-5.6410 4.2228 -1.9948 0.9711
-5.7973 4.0251 -1.9980 0.9711
-5.9451 3.8207 -2.0006 0.9710
-6.2029 3.3870 -2.0007 0.9710
-6.3201 3.1636 -2.0008 0.9710
-6.4292 2.9361 -2.0009 0.9710
-6.6227 2.4701 -2.0010 0.9710
-6.7069 2.2323 -2.0011 0.9710
-6.9079 1.5027 -2.0013 0.9710
-6.9574 1.2553 -2.0014 0.9710
-6.9981 1.0062 -2.0015 0.9710
-7.0664 0.2524 -2.0017 0.9710
6.5085 -0.0000 -2.0019 0.9731
6.4705 0.6956 -2.0017 0.9731
6.4413 0.9261 -2.0016 0.9731
6.4039 1.1554 -2.0015 0.9731
6.3584 1.3832 -2.0014 0.9731
6.3048 1.6092 -2.0014 0.9731
6.0107 2.4897 -2.0011 0.9731
5.4723 3.5168 -2.0008 0.9731
5.3418 3.7088 -2.0002 0.9732
5.1986 3.8916 -1.9974 0.9732
5.0494 4.0691 -1.9946 0.9732
4.8420 4.1956 -1.9706 0.9735
4.5535 4.2395 -1.9136 0.9743
4.0947 4.3980 -1.8483 0.9752
3.9350 4.5412 -1.8482 0.9752
3.4268 4.9355 -1.8481 0.9752
2.8794 5.2732 -1.8480 0.9752
2.6893 5.3726 -1.8480 0.9752
2.4958 5.4650 -1.8479 0.9752
2.2991 5.5506 -1.8479 0.9752
1.6926 5.7643 -1.8478 0.9752
1.4857 5.8210 -1.8478 0.9752
1.2770 5.8702 -1.8478 0.9752
0.8391 5.8362 -1.8135 0.9756
0.6422 5.9730 -1.8478 0.9752
0.4286 5.9921 -1.8477 0.9752
0.2144 6.0035 -1.8477 0.9752
0.0000 6.0073 -1.8477 0.9752
-0.2144 6.0035 -1.8477 0.9752
-0.8549 5.9462 -1.8478 0.9752
-1.2770 5.8702 -1.8478 0.9752
-1.4857 5.8209 -1.8478 0.9752
-1.6925 5.7642 -1.8478 0.9752
-1.8972 5.7002 -1.8478 0.9752
-2.2991 5.5504 -1.8479 0.9752
-2.4958 5.4649 -1.8479 0.9752
-3.2483 5.0545 -1.8480 0.9752
-3.4267 4.9354 -1.8481 0.9752
-3.6008 4.8101 -1.8481 0.9752
-3.7702 4.6786 -1.8481 0.9752
-3.9349 4.5411 -1.8482 0.9752
-4.1672 4.4758 -1.8810 0.9747
-4.4492 4.4492 -1.9353 0.9740
-5.0586 4.0765 -1.9983 0.9732
-5.3429 3.7096 -2.0006 0.9731
-5.4721 3.5167 -2.0007 0.9731
-6.1732 2.0546 -2.0012 0.9731
-6.3581 1.3831 -2.0014 0.9731
-6.4037 1.1553 -2.0014 0.9731
-6.4411 0.9261 -2.0015 0.9731
-6.4703 0.6956 -2.0016 0.9731
5.9873 0.6437 -2.0017 0.9749
5.9603 0.8570 -2.0016 0.9749
5.8340 1.4890 -2.0014 0.9749
5.7125 1.9013 -2.0013 0.9749
5.6408 2.1039 -2.0012 0.9749
5.5619 2.3038 -2.0011 0.9749
5.4760 2.5008 -2.0011 0.9749
5.1768 3.0715 -2.0009 0.9749
5.0637 3.2543 -2.0008 0.9749
4.8184 3.6070 -2.0007 0.9749
4.6857 3.7760 -2.0004 0.9750
3.3321 4.4512 -1.8483 0.9768
3.1711 4.5672 -1.8482 0.9768
2.4886 4.9716 -1.8481 0.9768
2.3096 5.0572 -1.8481 0.9768
1.9428 5.2089 -1.8480 0.9768
1.5662 5.3341 -1.8480 0.9768
1.3749 5.3866 -1.8479 0.9768
1.1817 5.4322 -1.8479 0.9768
0.9871 5.4709 -1.8479 0.9768
0.0000 5.5591 -1.8479 0.9768
-0.1984 5.5555 -1.8479 0.9768
-0.3966 5.5449 -1.8479 0.9768
-0.5942 5.5273 -1.8479 0.9768
-0.9870 5.4708 -1.8479 0.9768
-1.1817 5.4321 -1.8479 0.9768
-1.5662 5.3341 -1.8479 0.9768
-1.9428 5.2089 -1.8480 0.9768
-2.1275 5.1363 -1.8480 0.9768
-2.3095 5.0571 -1.8480 0.9768
-2.8370 4.7815 -1.8481 0.9768
-3.1710 4.5671 -1.8482 0.9768
-3.3854 4.5224 -1.8778 0.9765
-3.6265 4.5002 -1.9212 0.9759
-3.8789 4.4765 -1.9689 0.9753
-4.0876 4.3904 -1.9940 0.9750
-4.5484 3.9412 -2.0006 0.9750
-4.6863 3.7765 -2.0006 0.9749
-4.8183 3.6069 -2.0007 0.9749
-5.1767 3.0714 -2.0008 0.9749
-5.2831 2.8848 -2.0009 0.9749
-5.3829 2.6945 -2.0010 0.9749
-5.4758 2.5007 -2.0010 0.9749
-5.5617 2.3037 -2.0011 0.9749
-5.7123 1.9012 -2.0012 0.9749
-5.7767 1.6962 -2.0013 0.9749
-5.8833 1.2798 -2.0014 0.9749
-5.9255 1.0691 -2.0015 0.9749
-6.0064 0.4296 -2.0017 0.9749
5.5942 0.1998 -2.0018 0.9765
5.5834 0.3993 -2.0018 0.9765
5.5654 0.5983 -2.0017 0.9765
5.5403 0.7966 -2.0016 0.9765
5.5082 0.9938 -2.0016 0.9765
5.4690 1.1897 -2.0015 0.9765
5.3699 1.5767 -2.0014 0.9765
5.1701 2.1415 -2.0012 0.9765
5.0039 2.5047 -2.0011 0.9765
4.7071 3.0250 -2.0009 0.9765
4.3564 3.5106 -2.0008 0.9765
3.9522 3.9522 -1.9987 0.9765
3.6530 4.2157 -1.9948 0.9766
3.4968 4.3392 -1.9929 0.9766
2.8375 4.4151 -1.8768 0.9780
2.6373 4.4449 -1.8482 0.9783
2.4769 4.5361 -1.8482 0.9783
2.3134 4.6215 -1.8482 0.9783
2.1469 4.7011 -1.8482 0.9783
1.9778 4.7746 -1.8481 0.9783
1.8060 4.8421 -1.8481 0.9783
1.6320 4.9035 -1.8481 0.9783
0.5524 5.1381 -1.8480 0.9783
0.1845 5.1644 -1.8480 0.9783
-0.3687 5.1545 -1.8480 0.9783
-0.7354 5.1151 -1.8480 0.9783
-1.6320 4.9034 -1.8481 0.9783
-2.4885 4.5573 -1.8569 0.9782
-2.9139 4.5340 -1.9274 0.9774
-3.1385 4.5203 -1.9679 0.9769
-3.3407 4.4626 -1.9935 0.9766
-3.6576 4.2210 -1.9973 0.9766
-3.8099 4.0921 -1.9994 0.9765
-3.9558 3.9558 -2.0006 0.9765
-4.2281 3.6637 -2.0007 0.9765
-4.4789 3.3528 -2.0008 0.9765
-4.7069 3.0249 -2.0009 0.9765
-5.2432 1.9556 -2.0012 0.9765
-5.3098 1.7673 -2.0012 0.9765
-5.3697 1.5767 -2.0013 0.9765
-5.5401 0.7965 -2.0016 0.9765
-5.5652 0.5983 -2.0016 0.9765
-5.5832 0.3993 -2.0017 0.9765
-5.5940 0.1998 -2.0017 0.9765
5.2204 0.1864 -2.0018 0.9779
5.2102 0.3726 -2.0018 0.9779
5.1935 0.5583 -2.0017 0.9779
5.0111 1.4714 -2.0014 0.9779
4.9552 1.6492 -2.0014 0.9779
4.8931 1.8250 -2.0013 0.9779
4.8247 1.9984 -2.0012 0.9779
4.7501 2.1693 -2.0012 0.9779
4.6696 2.3374 -2.0011 0.9779
4.4907 2.6644 -2.0010 0.9779
4.3926 2.8229 -2.0010 0.9779
4.2890 2.9778 -2.0009 0.9779
4.0654 3.2761 -2.0008 0.9779
3.8211 3.5576 -2.0007 0.9779
3.1218 4.1703 -1.9963 0.9779
2.2313 4.4575 -1.9103 0.9789
0.6863 4.7736 -1.8481 0.9796
0.5155 4.7950 -1.8481 0.9796
0.3440 4.8103 -1.8481 0.9796
0.1721 4.8195 -1.8481 0.9796
0.0000 4.8226 -1.8481 0.9796
-0.1721 4.8195 -1.8481 0.9796
-0.5155 4.7950 -1.8481 0.9796
-0.6863 4.7735 -1.8481 0.9796
-0.8563 4.7460 -1.8481 0.9796
-1.1927 4.6729 -1.8482 0.9796
-1.3587 4.6274 -1.8482 0.9796
-1.8909 4.5650 -1.8935 0.9791
-2.0805 4.5556 -1.9192 0.9788
-2.2754 4.5456 -1.9480 0.9785
-2.8149 4.3800 -1.9953 0.9779
-3.1255 4.1752 -1.9987 0.9779
-3.4187 3.9453 -2.0006 0.9779
-3.5574 3.8209 -2.0006 0.9779
-3.6916 3.6915 -2.0006 0.9779
-3.8210 3.5575 -2.0007 0.9779
-4.2888 2.9778 -2.0009 0.9779
-4.6694 2.3373 -2.0011 0.9779
-4.9551 1.6492 -2.0013 0.9779
-5.0109 1.4713 -2.0013 0.9779
-5.1034 1.1101 -2.0015 0.9779
-5.1933 0.5583 -2.0016 0.9779
-5.2101 0.3726 -2.0017 0.9779
4.8913 -0.0000 -2.0019 0.9791
4.8628 0.5228 -2.0017 0.9791
4.8129 0.8683 -2.0016 0.9791
4.7787 1.0395 -2.0015 0.9791
4.7384 1.2094 -2.0015 0.9791
4.6398 1.5443 -2.0014 0.9791
4.5176 1.8712 -2.0013 0.9791
4.4478 2.0312 -2.0012 0.9791
3.9138 2.9298 -2.0009 0.9791
3.8067 3.0676 -2.0009 0.9791
3.6947 3.2014 -2.0008 0.9791
3.3311 3.5778 -2.0007 0.9791
3.0673 3.8062 -2.0007 0.9791
2.9294 3.9132 -2.0006 0.9791
2.6394 4.1069 -1.9980 0.9791
2.3367 4.2793 -1.9955 0.9791
1.8519 4.4708 -1.9806 0.9793
1.1526 4.5160 -1.9076 0.9801
0.6533 4.5440 -1.8789 0.9804
0.3262 4.5602 -1.8712 0.9804
-0.4912 4.5688 -1.8807 0.9803
-0.8243 4.5688 -1.9001 0.9801
-1.1657 4.5671 -1.9291 0.9798
-1.3406 4.5655 -1.9474 0.9796
-1.5178 4.5603 -1.9671 0.9794
-1.8641 4.5002 -1.9936 0.9792
-2.4917 4.1995 -1.9985 0.9791
-2.6419 4.1109 -2.0000 0.9791
-3.2011 3.6943 -2.0006 0.9791
-3.6946 3.2014 -2.0008 0.9791
-3.8066 3.0675 -2.0008 0.9791
-3.9137 2.9298 -2.0009 0.9791
-4.2912 2.3432 -2.0011 0.9791
-4.4477 2.0312 -2.0012 0.9791
-4.6920 1.3777 -2.0014 0.9791
-4.7383 1.2094 -2.0014 0.9791
-1.9525 0.1396 -0.8011 0.9916
-1.9308 0.0689 -0.7907 0.9917
4.5814 0.3277 -2.0018 0.9802
4.5462 0.6536 -2.0017 0.9802
4.4877 0.9762 -2.0016 0.9802
4.4064 1.2938 -2.0015 0.9802
4.3573 1.4502 -2.0014 0.9802
4.3027 1.6048 -2.0014 0.9802
4.1770 1.9076 -2.0013 0.9802
4.0301 2.2006 -2.0012 0.9802
3.9489 2.3430 -2.0011 0.9802
3.8627 2.4824 -2.0011 0.9802
3.6756 2.7515 -2.0010 0.9802
3.5750 2.8809 -2.0010 0.9802
3.4698 3.0066 -2.0009 0.9802
3.3602 3.1284 -2.0009 0.9802
3.1283 3.3600 -2.0008 0.9802
2.7511 3.6750 -2.0007 0.9802
2.0531 4.1015 -1.9989 0.9802
1.9044 4.1700 -1.9979 0.9802
1.6006 4.2913 -1.9961 0.9802
1.4458 4.3439 -1.9953 0.9802
0.6504 4.5232 -1.9916 0.9803
0.3247 4.5395 -1.9835 0.9803
0.1623 4.5433 -1.9813 0.9804
0.0000 4.5451 -1.9808 0.9804
-0.4888 4.5464 -1.9928 0.9802
-1.2900 4.3935 -1.9956 0.9802
-1.6015 4.2938 -1.9973 0.9802
-1.7546 4.2359 -1.9982 0.9802
-2.0545 4.1043 -2.0003 0.9802
-2.1999 4.0288 -2.0006 0.9802
-2.3424 3.9478 -2.0006 0.9802
-2.8805 3.5745 -2.0007 0.9802
-3.1283 3.3600 -2.0008 0.9802
-3.2463 3.2462 -2.0008 0.9802
-3.3601 3.1284 -2.0008 0.9802
-3.4697 3.0065 -2.0009 0.9802
-3.5749 2.8808 -2.0009 0.9802
-3.6755 2.7514 -2.0009 0.9802
-3.7714 2.6185 -2.0010 0.9802
-3.8626 2.4823 -2.0010 0.9802
-4.0300 2.2005 -2.0011 0.9802
-4.1060 2.0553 -2.0012 0.9802
-4.1769 1.9075 -2.0012 0.9802
-1.5875 0.5284 -0.7292 0.9927
-1.5485 0.3952 -0.6965 0.9931
-1.5001 0.2706 -0.6643 0.9934
-1.5151 0.2178 -0.6671 0.9933
-1.5249 0.1639 -0.6684 0.9933
-1.5293 0.1094 -0.6682 0.9933
4.3248 -0.0000 -2.0019 0.9811
4.3219 0.1543 -2.0018 0.9811
4.3135 0.3085 -2.0018 0.9811
4.2803 0.6154 -2.0017 0.9811
4.2555 0.7678 -2.0016 0.9811
4.2253 0.9191 -2.0016 0.9811
4.1897 1.0693 -2.0015 0.9811
4.1026 1.3654 -2.0014 0.9811
3.9945 1.6546 -2.0013 0.9811
3.9328 1.7961 -2.0013 0.9811
3.8661 1.9352 -2.0013 0.9811
3.7945 2.0719 -2.0012 0.9811
3.7181 2.2060 -2.0012 0.9811
3.6369 2.3373 -2.0011 0.9811
3.3660 2.7125 -2.0010 0.9811
3.2670 2.8308 -2.0010 0.9811
3.1638 2.9456 -2.0009 0.9811
3.0566 3.0566 -2.0009 0.9811
2.5903 3.4602 -2.0008 0.9811
2.4651 3.5504 -2.0007 0.9811
2.3368 3.6361 -2.0007 0.9811
1.2166 4.1434 -1.9989 0.9811
1.0677 4.1830 -1.9983 0.9812
0.9175 4.2175 -1.9979 0.9812
0.6140 4.2707 -1.9972 0.9812
0.1540 4.3110 -1.9968 0.9812
0.0000 4.3137 -1.9967 0.9812
-0.1540 4.3111 -1.9968 0.9812
-0.6142 4.2715 -1.9976 0.9812
-0.9178 4.2189 -1.9985 0.9811
-1.0681 4.1847 -1.9992 0.9811
-1.2172 4.1454 -1.9999 0.9811
-1.3649 4.1007 -2.0005 0.9811
-1.7954 3.9314 -2.0006 0.9811
-1.9346 3.8649 -2.0006 0.9811
-2.0714 3.7934 -2.0006 0.9811
-2.2054 3.7171 -2.0006 0.9811
-2.3367 3.6360 -2.0007 0.9811
-2.8306 3.2667 -2.0008 0.9811
-2.9454 3.1636 -2.0008 0.9811
-3.1637 2.9455 -2.0009 0.9811
-3.3659 2.7124 -2.0010 0.9811
-3.6368 2.3372 -2.0011 0.9811
-3.7944 2.0719 -2.0012 0.9811
-3.8660 1.9352 -2.0012 0.9811
-1.3263 0.5494 -0.6645 0.9937
-1.3324 0.4434 -0.6500 0.9938
-1.3013 0.2831 -0.6164 0.9941
-1.3273 0.1908 -0.6207 0.9941
-1.3350 0.1435 -0.6215 0.9941
-1.3376 0.0478 -0.6195 0.9941
4.0811 -0.0000 -2.0019 0.9820
4.0784 0.1456 -2.0018 0.9820
3.9873 0.8674 -2.0016 0.9820
3.9537 1.0091 -2.0015 0.9820
3.9151 1.1496 -2.0015 0.9820
3.8715 1.2885 -2.0015 0.9820
3.8229 1.4258 -2.0014 0.9820
3.7113 1.6949 -2.0013 0.9820
3.6483 1.8262 -2.0013 0.9820
3.2658 2.4447 -2.0011 0.9820
2.8844 2.8844 -2.0009 0.9820
2.6712 3.0827 -2.0009 0.9820
2.5595 3.1761 -2.0009 0.9820
2.4444 3.2654 -2.0008 0.9820
2.2052 3.4313 -2.0008 0.9820
2.0813 3.5078 -2.0007 0.9820
1.9547 3.5798 -2.0007 0.9820
1.8257 3.6473 -2.0007 0.9820
1.6943 3.7101 -2.0007 0.9820
1.5608 3.7681 -2.0007 0.9820
1.4253 3.8214 -2.0006 0.9820
1.1491 3.9133 -2.0006 0.9820
0.7241 4.0136 -2.0006 0.9820
0.5804 4.0369 -2.0006 0.9820
0.2909 4.0680 -2.0006 0.9820
0.1456 4.0758 -2.0006 0.9820
-0.2909 4.0680 -2.0005 0.9820
-0.4359 4.0550 -2.0006 0.9820
-0.7241 4.0136 -2.0006 0.9820
-0.8669 3.9852 -2.0006 0.9820
-1.0086 3.9518 -2.0006 0.9820
-1.2880 3.8698 -2.0006 0.9820
-1.6943 3.7100 -2.0007 0.9820
-1.8257 3.6472 -2.0007 0.9820
-1.9547 3.5798 -2.0007 0.9820
-2.4444 3.2653 -2.0008 0.9820
-2.6712 3.0827 -2.0008 0.9820
-2.7796 2.9854 -2.0009 0.9820
-2.8844 2.8844 -2.0009 0.9820
-3.0829 2.6713 -2.0010 0.9820
-3.1763 2.5596 -2.0010 0.9820
-3.2657 2.4447 -2.0010 0.9820
-3.3510 2.3266 -2.0011 0.9820
-1.1291 0.5652 -0.6194 0.9944
-1.1543 0.4305 -0.6043 0.9945
-1.1578 0.3854 -0.5986 0.9946
-1.1695 0.2544 -0.5871 0.9947
-1.1791 0.2127 -0.5877 0.9947
-1.1921 0.1281 -0.5881 0.9947
-1.1965 0.0427 -0.5873 0.9947
3.8563 0.1377 -2.0018 0.9828
3.8488 0.2753 -2.0018 0.9828
3.8364 0.4124 -2.0017 0.9828
3.8192 0.5491 -2.0017 0.9828
3.7971 0.6851 -2.0016 0.9828
3.7701 0.8201 -2.0016 0.9828
3.7384 0.9541 -2.0016 0.9828
3.6147 1.3482 -2.0014 0.9828
3.5642 1.4763 -2.0014 0.9828
3.4497 1.7268 -2.0013 0.9828
3.3858 1.8488 -2.0013 0.9828
3.1686 2.2000 -2.0012 0.9828
3.0035 2.4203 -2.0011 0.9828
2.9151 2.5259 -2.0011 0.9828
2.8230 2.6283 -2.0010 0.9828
2.7274 2.7274 -2.0010 0.9828
2.4201 3.0032 -2.0009 0.9828
2.1996 3.1681 -2.0009 0.9828
2.0851 3.2445 -2.0008 0.9828
1.9680 3.3168 -2.0008 0.9828
1.3477 3.6134 -2.0007 0.9828
1.2179 3.6592 -2.0007 0.9828
0.8198 3.7683 -2.0007 0.9828
0.1377 3.8539 -2.0006 0.9828
0.0000 3.8564 -2.0006 0.9828
-0.4122 3.8343 -2.0006 0.9828
-0.5488 3.8171 -2.0006 0.9828
-0.6847 3.7951 -2.0006 0.9828
-0.8197 3.7683 -2.0006 0.9828
-0.9537 3.7367 -2.0007 0.9828
-1.0865 3.7002 -2.0007 0.9828
-1.4758 3.5630 -2.0007 0.9828
-1.6021 3.5081 -2.0007 0.9828
-1.8483 3.3849 -2.0008 0.9828
-1.9679 3.3168 -2.0008 0.9828
-2.4201 3.0031 -2.0009 0.9828
-2.5258 2.9149 -2.0009 0.9828
-2.6282 2.8229 -2.0009 0.9828
-2.8230 2.6283 -2.0010 0.9828
-2.9150 2.5259 -2.0010 0.9828
-3.0034 2.4203 -2.0011 0.9828
-3.1685 2.1999 -2.0011 0.9828
-0.9917 0.5884 -0.5982 0.9948
-1.0118 0.5525 -0.5981 0.9948
-1.0298 0.5154 -0.5974 0.9948
-1.0430 0.4763 -0.5948 0.9948
-1.0514 0.4355 -0.5904 0.9949
-1.0617 0.3534 -0.5805 0.9950
-1.0704 0.2732 -0.5731 0.9950
-1.0814 0.2352 -0.5741 0.9950
-1.0974 0.1578 -0.5752 0.9950
-1.1024 0.1185 -0.5752 0.9950
-1.1055 0.0791 -0.5750 0.9950
-1.1066 0.0395 -0.5744 0.9950
3.6456 0.2607 -2.0018 0.9835
3.6338 0.3907 -2.0017 0.9835
3.6175 0.5201 -2.0017 0.9835
3.5711 0.7768 -2.0016 0.9835
3.4674 1.1540 -2.0015 0.9835
3.4239 1.2770 -2.0015 0.9835
3.2071 1.7512 -2.0013 0.9835
3.1425 1.8645 -2.0013 0.9835
3.0738 1.9754 -2.0012 0.9835
2.6740 2.4896 -2.0011 0.9835
2.3925 2.7611 -2.0010 0.9835
2.0836 3.0008 -2.0009 0.9835
1.9751 3.0733 -2.0009 0.9835
1.8641 3.1418 -2.0009 0.9835
1.7508 3.2063 -2.0008 0.9835
1.6352 3.2667 -2.0008 0.9835
1.3980 3.3750 -2.0008 0.9835
1.2766 3.4227 -2.0008 0.9835
1.1536 3.4660 -2.0007 0.9835
0.9034 3.5395 -2.0007 0.9835
0.5199 3.6157 -2.0007 0.9835
0.2606 3.6435 -2.0007 0.9835
0.1304 3.6505 -2.0007 0.9835
-0.0000 3.6529 -2.0007 0.9835
-0.3905 3.6319 -2.0007 0.9835
-0.6486 3.5948 -2.0007 0.9835
-1.0291 3.5049 -2.0007 0.9835
-1.1536 3.4660 -2.0007 0.9835
-1.2766 3.4226 -2.0007 0.9835
-1.3979 3.3749 -2.0008 0.9835
-1.8641 3.1417 -2.0008 0.9835
-1.9750 3.0732 -2.0009 0.9835
-2.0835 3.0008 -2.0009 0.9835
-2.2923 2.8446 -2.0009 0.9835
-2.4895 2.6739 -2.0010 0.9835
-2.5834 2.5834 -2.0010 0.9835
-2.6740 2.4896 -2.0010 0.9835
-2.7612 2.3926 -2.0011 0.9835
-2.8448 2.2925 -2.0011 0.9835
-2.9249 2.1896 -2.0011 0.9835
-0.8661 0.6013 -0.5775 0.9952
-0.8881 0.5708 -0.5782 0.9952
-0.9580 0.4375 -0.5768 0.9952
-0.9741 0.3633 -0.5694 0.9953
-0.9785 0.3257 -0.5648 0.9953
-0.9820 0.2883 -0.5606 0.9953
-1.0190 0.1465 -0.5638 0.9953
-1.0236 0.1100 -0.5639 0.9953
-1.0276 0.0367 -0.5632 0.9953
2.0320 0.0726 -1.1739 0.9907
2.0366 0.2189 -1.1826 0.9906
2.0300 0.2919 -1.1841 0.9906
1.9883 0.4325 -1.1748 0.9906
1.9033 0.6335 -1.1581 0.9908
3.0998 1.5516 -2.0014 0.9841
2.7748 2.0772 -2.0012 0.9841
2.6195 2.2698 -2.0011 0.9841
2.5368 2.3618 -2.0011 0.9841
2.4508 2.4508 -2.0011 0.9841
2.3617 2.5367 -2.0011 0.9841
2.2697 2.6193 -2.0010 0.9841
1.5513 3.0990 -2.0009 0.9841
1.4397 3.1524 -2.0009 0.9841
1.2111 3.2470 -2.0008 0.9841
1.0944 3.2881 -2.0008 0.9841
0.9763 3.3251 -2.0008 0.9841
0.8570 3.3578 -2.0008 0.9841
0.4932 3.4301 -2.0008 0.9841
0.3704 3.4455 -2.0008 0.9841
0.2472 3.4566 -2.0007 0.9841
0.0000 3.4654 -2.0007 0.9841
-0.1237 3.4632 -2.0007 0.9841
-0.3704 3.4455 -2.0007 0.9841
-0.4932 3.4301 -2.0008 0.9841
-0.7366 3.3862 -2.0008 0.9841
-0.8570 3.3578 -2.0008 0.9841
-1.0944 3.2881 -2.0008 0.9841
-1.2111 3.2470 -2.0008 0.9841
-1.5512 3.0990 -2.0008 0.9841
-1.7684 2.9805 -2.0009 0.9841
-1.8737 2.9155 -2.0009 0.9841
-2.1747 2.6986 -2.0010 0.9841
-2.3617 2.5366 -2.0010 0.9841
-2.5367 2.3618 -2.0011 0.9841
-0.7671 0.6182 -0.5688 0.9955
-0.7846 0.5873 -0.5658 0.9955
-0.8364 0.4963 -0.5615 0.9955
-0.8534 0.4660 -0.5614 0.9955
-0.8823 0.4029 -0.5600 0.9955
-0.9151 0.2687 -0.5506 0.9956
-0.9259 0.2363 -0.5517 0.9956
-0.9430 0.1701 -0.5532 0.9956
-0.9492 0.1365 -0.5537 0.9956
-0.9538 0.1025 -0.5538 0.9956
-0.9565 0.0684 -0.5536 0.9956
-0.9575 0.0342 -0.5532 0.9956
