ply
format ascii 1.0
element vertex 747
property float32 x
property float32 y
property float32 z
property float32 I
end_header
-6.2560 4.6831 -1.2874 0.9688
5.8896 7.8675 -1.8472 0.9608
5.0143 8.4512 -1.8470 0.9608
4.7093 8.6245 -1.8470 0.9608
4.3984 8.7869 -1.8469 0.9608
4.0818 8.9380 -1.8469 0.9608
3.7601 9.0778 -1.8468 0.9608
3.4336 9.2060 -1.8468 0.9608
2.7680 9.4271 -1.8467 0.9608
1.3982 9.7246 -1.8466 0.9608
-0.0000 9.8244 -1.8466 0.9608
-0.7009 9.7994 -1.8466 0.9608
-1.0502 9.7681 -1.8466 0.9608
-1.3982 9.7245 -1.8466 0.9608
-1.7444 9.6685 -1.8466 0.9608
-2.0884 9.6001 -1.8466 0.9608
-3.1028 9.3223 -1.8467 0.9608
-3.4336 9.2058 -1.8468 0.9608
-3.7600 9.0775 -1.8468 0.9608
9.3723 1.3475 -2.0015 0.9620
9.1731 2.3413 -2.0012 0.9620
8.9818 2.9894 -2.0010 0.9620
7.8198 3.9143 -1.8485 0.9649
7.1818 4.9865 -1.8481 0.9649
6.8072 5.4856 -1.8480 0.9649
6.6068 5.7249 -1.8479 0.9649
6.3980 5.9568 -1.8478 0.9649
5.9563 6.3976 -1.8477 0.9649
5.4844 6.8057 -1.8476 0.9649
5.2378 6.9969 -1.8475 0.9649
4.7250 7.3523 -1.8474 0.9649
3.9117 7.8146 -1.8472 0.9649
2.4618 8.3841 -1.8471 0.9649
1.5514 8.5989 -1.8470 0.9649
1.2435 8.6487 -1.8470 0.9649
0.9340 8.6875 -1.8469 0.9649
0.0000 8.7375 -1.8469 0.9649
-0.6233 8.7153 -1.8469 0.9649
-1.2435 8.6487 -1.8469 0.9649
-2.7595 8.2909 -1.8470 0.9649
-3.6301 7.9489 -1.8471 0.9649
-4.4593 7.5158 -1.8473 0.9649
-4.7249 7.3521 -1.8473 0.9649
-5.4842 6.8055 -1.8475 0.9649
-6.1809 6.1809 -1.8477 0.9649
-6.6066 5.7246 -1.8478 0.9649
-6.0142 4.8465 -1.6327 0.9689
-6.2292 4.6631 -1.6448 0.9687
-7.1815 4.9862 -1.8480 0.9649
-7.3552 4.7269 -1.8481 0.9649
-7.5196 4.4616 -1.8482 0.9649
-8.5806 3.9186 -1.9940 0.9622
-8.7354 3.6183 -1.9986 0.9621
-8.8685 3.3078 -2.0008 0.9620
-8.9813 2.9893 -2.0009 0.9620
-9.1726 2.3412 -2.0011 0.9620
-9.4635 0.3380 -2.0017 0.9620
8.5120 0.3040 -2.0018 0.9656
8.4954 0.6076 -2.0017 0.9656
8.4678 0.9104 -2.0016 0.9656
8.3208 1.8101 -2.0013 0.9656
8.2506 2.1058 -2.0012 0.9656
8.1698 2.3989 -2.0011 0.9656
8.0786 2.6888 -2.0011 0.9656
7.9771 2.9753 -2.0010 0.9656
7.8655 3.2580 -2.0009 0.9656
7.7303 3.5303 -1.9973 0.9657
7.5838 3.7962 -1.9932 0.9658
6.7639 4.0133 -1.8484 0.9682
6.4599 4.4852 -1.8483 0.9682
6.1230 4.9342 -1.8481 0.9682
5.9428 5.1494 -1.8481 0.9682
4.4837 6.4577 -1.8477 0.9682
4.2502 6.6135 -1.8476 0.9682
4.0113 6.7608 -1.8476 0.9682
3.7674 6.8995 -1.8475 0.9682
3.5186 7.0294 -1.8475 0.9682
3.2654 7.1504 -1.8474 0.9682
2.7469 7.3648 -1.8474 0.9682
1.9438 7.6159 -1.8473 0.9682
0.8402 7.8147 -1.8472 0.9682
0.5607 7.8397 -1.8472 0.9682
0.2805 7.8547 -1.8472 0.9682
-0.0000 7.8597 -1.8472 0.9682
-0.2806 7.8547 -1.8472 0.9682
-0.5607 7.8397 -1.8472 0.9682
-0.8402 7.8147 -1.8472 0.9682
-1.1186 7.7798 -1.8472 0.9682
-1.6708 7.6803 -1.8472 0.9682
-2.7469 7.3647 -1.8473 0.9682
-3.0080 7.2620 -1.8474 0.9682
-3.2654 7.1502 -1.8474 0.9682
-3.7673 6.8993 -1.8475 0.9682
-4.0112 6.7606 -1.8475 0.9682
-4.2501 6.6133 -1.8476 0.9682
-4.4836 6.4575 -1.8476 0.9682
-4.7113 6.2936 -1.8477 0.9682
-5.1486 5.9418 -1.8478 0.9682
-5.7548 5.3579 -1.8479 0.9682
-5.9425 5.1492 -1.8480 0.9682
-6.2121 4.6503 -1.8237 0.9686
-6.4596 4.4850 -1.8482 0.9682
-7.0793 4.2004 -1.9346 0.9667
-7.4472 4.0665 -1.9942 0.9657
-7.6031 3.8058 -1.9983 0.9657
-7.7435 3.5363 -2.0007 0.9656
-8.1694 2.3987 -2.0010 0.9656
-8.2502 2.1057 -2.0011 0.9656
-8.3204 1.8100 -2.0012 0.9656
-8.3801 1.5120 -2.0013 0.9656
-8.4949 0.6076 -2.0016 0.9656
7.7317 0.0000 -2.0019 0.9686
7.7265 0.2760 -2.0018 0.9686
7.7114 0.5515 -2.0017 0.9686
7.6864 0.8264 -2.0016 0.9686
7.6517 1.1002 -2.0015 0.9686
7.4160 2.1776 -2.0012 0.9686
7.3333 2.4408 -2.0011 0.9686
7.2412 2.7008 -2.0010 0.9686
7.0295 3.2103 -2.0009 0.9686
6.9102 3.4590 -2.0008 0.9686
6.6224 3.9292 -1.9937 0.9687
5.9057 4.1004 -1.8615 0.9707
5.7148 4.2781 -1.8483 0.9709
5.3947 4.6746 -1.8482 0.9709
4.8637 5.2240 -1.8480 0.9709
4.4783 5.5573 -1.8479 0.9709
4.0703 5.8623 -1.8478 0.9709
3.8583 6.0037 -1.8478 0.9709
3.6415 6.1375 -1.8478 0.9709
3.1943 6.3813 -1.8477 0.9709
2.7308 6.5927 -1.8476 0.9709
2.4937 6.6859 -1.8476 0.9709
1.5167 6.9724 -1.8475 0.9709
0.5090 7.1170 -1.8474 0.9709
0.2546 7.1307 -1.8474 0.9709
-0.2547 7.1306 -1.8474 0.9709
-0.5090 7.1170 -1.8474 0.9709
-2.2534 6.7704 -1.8475 0.9709
-2.4937 6.6858 -1.8475 0.9709
-2.7308 6.5926 -1.8476 0.9709
-3.8583 6.0036 -1.8478 0.9709
-4.0702 5.8622 -1.8478 0.9709
-4.2769 5.7133 -1.8478 0.9709
-4.4782 5.5571 -1.8479 0.9709
-4.6739 5.3939 -1.8479 0.9709
-5.0470 5.0470 -1.8480 0.9709
-5.2241 4.8638 -1.8481 0.9709
-5.5581 4.4790 -1.8482 0.9709
-5.8138 4.3522 -1.8804 0.9704
-6.1930 4.2999 -1.9521 0.9693
-6.7818 3.7032 -2.0006 0.9686
-7.0292 3.2102 -2.0008 0.9686
-7.2409 2.7007 -2.0010 0.9686
-7.4157 2.1775 -2.0011 0.9686
-7.4890 1.9115 -2.0012 0.9686
-7.5528 1.6430 -2.0013 0.9686
-7.6070 1.3725 -2.0014 0.9686
-7.6514 1.1001 -2.0015 0.9686
-7.6861 0.8263 -2.0015 0.9686
-7.7110 0.5515 -2.0016 0.9686
-7.7261 0.2760 -2.0017 0.9686
7.0667 0.2524 -2.0018 0.9710
6.9984 1.0062 -2.0016 0.9710
6.9577 1.2553 -2.0015 0.9710
6.9082 1.5028 -2.0014 0.9710
6.7072 2.2324 -2.0012 0.9710
6.4295 2.9363 -2.0010 0.9710
6.2032 3.3872 -2.0008 0.9710
6.0777 3.6061 -2.0006 0.9710
5.9355 3.8146 -1.9974 0.9711
5.2027 4.1926 -1.8916 0.9726
4.9343 4.2757 -1.8483 0.9732
4.0962 5.0831 -1.8481 0.9732
3.9121 5.2260 -1.8480 0.9732
3.5291 5.4915 -1.8480 0.9732
2.7115 5.9374 -1.8478 0.9732
2.4978 6.0303 -1.8478 0.9732
2.2809 6.1155 -1.8478 0.9732
2.0612 6.1929 -1.8477 0.9732
1.8388 6.2625 -1.8477 0.9732
1.6141 6.3241 -1.8477 0.9732
1.3873 6.3776 -1.8477 0.9732
1.1588 6.4230 -1.8477 0.9732
0.9288 6.4602 -1.8476 0.9732
0.2329 6.5224 -1.8476 0.9732
-0.0000 6.5266 -1.8476 0.9732
-0.4656 6.5099 -1.8476 0.9732
-0.9288 6.4602 -1.8476 0.9732
-1.3874 6.3775 -1.8477 0.9732
-1.6141 6.3240 -1.8477 0.9732
-1.8388 6.2624 -1.8477 0.9732
-2.0612 6.1929 -1.8477 0.9732
-2.7115 5.9373 -1.8478 0.9732
-3.7229 5.3620 -1.8480 0.9732
-4.2751 4.9337 -1.8481 0.9732
-4.6164 4.6164 -1.8482 0.9732
-5.0918 4.4121 -1.9073 0.9724
-5.6414 4.2231 -1.9950 0.9711
-5.7978 4.0254 -1.9981 0.9711
-5.9452 3.8207 -2.0006 0.9710
-6.3201 3.1637 -2.0008 0.9710
-6.7070 2.2323 -2.0011 0.9710
-6.7826 1.9916 -2.0012 0.9710
-6.9981 1.0062 -2.0015 0.9710
-7.0298 0.7558 -2.0016 0.9710
-7.0526 0.5044 -2.0016 0.9710
6.5085 0.0000 -2.0019 0.9731
6.5041 0.2323 -2.0018 0.9731
6.4705 0.6957 -2.0017 0.9731
6.4413 0.9262 -2.0016 0.9731
6.4040 1.1554 -2.0015 0.9731
6.3584 1.3832 -2.0015 0.9731
6.3048 1.6092 -2.0014 0.9731
5.8174 2.9120 -2.0010 0.9731
5.5945 3.3194 -2.0008 0.9731
5.4723 3.5169 -2.0008 0.9731
5.3428 3.7096 -2.0006 0.9731
5.0505 4.0700 -1.9950 0.9732
4.8652 4.2158 -1.9801 0.9734
4.3021 4.3021 -1.8713 0.9749
4.0948 4.3981 -1.8483 0.9752
3.9351 4.5414 -1.8483 0.9752
3.7704 4.6788 -1.8482 0.9752
3.0659 5.1673 -1.8481 0.9752
2.8795 5.2734 -1.8480 0.9752
2.0995 5.6291 -1.8479 0.9752
1.8972 5.7004 -1.8479 0.9752
1.6926 5.7644 -1.8479 0.9752
1.2770 5.8704 -1.8478 0.9752
1.0667 5.9122 -1.8478 0.9752
0.8550 5.9464 -1.8478 0.9752
0.4286 5.9922 -1.8478 0.9752
0.2144 6.0037 -1.8478 0.9752
-0.4286 5.9922 -1.8478 0.9752
-0.8550 5.9464 -1.8478 0.9752
-1.0667 5.9121 -1.8478 0.9752
-1.2771 5.8703 -1.8478 0.9752
-1.4858 5.8211 -1.8478 0.9752
-1.6926 5.7644 -1.8478 0.9752
-2.0995 5.6291 -1.8479 0.9752
-2.2991 5.5506 -1.8479 0.9752
-2.4958 5.4651 -1.8479 0.9752
-2.8794 5.2733 -1.8480 0.9752
-3.0659 5.1672 -1.8480 0.9752
-3.2484 5.0546 -1.8481 0.9752
-3.4268 4.9355 -1.8481 0.9752
-3.6009 4.8102 -1.8481 0.9752
-3.7703 4.6787 -1.8482 0.9752
-4.4559 4.4559 -1.9382 0.9740
-4.7425 4.4154 -1.9930 0.9732
-5.0589 4.0767 -1.9984 0.9732
-5.3430 3.7097 -2.0007 0.9731
-5.5943 3.3193 -2.0008 0.9731
-5.7094 3.1176 -2.0008 0.9731
-5.9177 2.7025 -2.0010 0.9731
-6.0106 2.4897 -2.0010 0.9731
-6.0958 2.2736 -2.0011 0.9731
-6.1733 2.0547 -2.0012 0.9731
-6.3582 1.3832 -2.0014 0.9731
-6.4912 0.4643 -2.0017 0.9731
6.0224 0.0000 -2.0019 0.9749
5.9603 0.8570 -2.0016 0.9749
5.8836 1.2799 -2.0015 0.9749
5.8340 1.4891 -2.0014 0.9749
5.7125 1.9013 -2.0013 0.9749
5.6408 2.1039 -2.0012 0.9749
5.5620 2.3039 -2.0012 0.9749
5.3831 2.6946 -2.0010 0.9749
5.1769 3.0716 -2.0009 0.9749
4.9443 3.4329 -2.0008 0.9749
4.6865 3.7767 -2.0007 0.9749
4.2411 4.2411 -1.9937 0.9750
4.0195 4.3173 -1.9608 0.9754
3.5289 4.3791 -1.8695 0.9766
2.8371 4.7817 -1.8482 0.9768
2.4887 4.9717 -1.8481 0.9768
2.3096 5.0573 -1.8481 0.9768
1.5663 5.3343 -1.8480 0.9768
1.1817 5.4323 -1.8480 0.9768
0.7912 5.5027 -1.8479 0.9768
0.5942 5.5274 -1.8479 0.9768
-0.0000 5.5592 -1.8479 0.9768
-0.3966 5.5451 -1.8479 0.9768
-0.5943 5.5274 -1.8479 0.9768
-0.7912 5.5027 -1.8479 0.9768
-0.9871 5.4710 -1.8479 0.9768
-1.1817 5.4323 -1.8479 0.9768
-1.3749 5.3867 -1.8480 0.9768
-1.5663 5.3342 -1.8480 0.9768
-1.9429 5.2090 -1.8480 0.9768
-2.1276 5.1364 -1.8480 0.9768
-2.3096 5.0572 -1.8481 0.9768
-2.4886 4.9717 -1.8481 0.9768
-2.6646 4.8797 -1.8481 0.9768
-3.3924 4.5318 -1.8817 0.9764
-4.4012 4.0976 -1.9989 0.9750
-4.6864 3.7766 -2.0006 0.9749
-4.8183 3.6070 -2.0007 0.9749
-4.9442 3.4328 -2.0007 0.9749
-5.2832 2.8849 -2.0009 0.9749
-5.3830 2.6945 -2.0010 0.9749
-5.4758 2.5007 -2.0010 0.9749
-5.6407 2.1039 -2.0012 0.9749
-5.9255 1.0691 -2.0015 0.9749
-5.9601 0.8570 -2.0015 0.9749
5.5979 0.0000 -2.0019 0.9765
5.5403 0.7966 -2.0016 0.9765
5.4229 1.3841 -2.0014 0.9765
5.3699 1.5768 -2.0014 0.9765
5.3100 1.7674 -2.0013 0.9765
5.2434 1.9557 -2.0013 0.9765
5.0039 2.5048 -2.0011 0.9765
4.9112 2.6817 -2.0010 0.9765
4.8122 2.8552 -2.0010 0.9765
4.5960 3.1911 -2.0009 0.9765
4.4791 3.3530 -2.0008 0.9765
3.6535 4.2164 -1.9951 0.9766
3.4973 4.3400 -1.9932 0.9766
3.2826 4.3850 -1.9588 0.9770
3.0634 4.4121 -1.9208 0.9774
2.8520 4.4378 -1.8864 0.9778
2.6459 4.4595 -1.8543 0.9782
2.3134 4.6216 -1.8482 0.9783
2.1469 4.7012 -1.8482 0.9783
1.9778 4.7748 -1.8482 0.9783
1.4560 4.9587 -1.8481 0.9783
1.2780 5.0074 -1.8481 0.9783
0.5524 5.1382 -1.8480 0.9783
0.3687 5.1547 -1.8480 0.9783
-0.1845 5.1645 -1.8480 0.9783
-0.5524 5.1382 -1.8480 0.9783
-0.7355 5.1152 -1.8480 0.9783
-1.0985 5.0498 -1.8481 0.9783
-1.2781 5.0074 -1.8481 0.9783
-1.4560 4.9586 -1.8481 0.9783
-2.3134 4.6216 -1.8482 0.9783
-2.4952 4.5696 -1.8618 0.9781
-2.7030 4.5556 -1.8943 0.9777
-3.5015 4.3451 -1.9956 0.9766
-3.6580 4.2215 -1.9975 0.9766
-3.9558 3.9558 -2.0006 0.9765
-4.4790 3.3529 -2.0008 0.9765
-4.7070 3.0250 -2.0009 0.9765
-4.8121 2.8551 -2.0009 0.9765
-4.9110 2.6816 -2.0010 0.9765
-5.0038 2.5047 -2.0010 0.9765
-5.1700 2.1415 -2.0011 0.9765
-5.3099 1.7673 -2.0013 0.9765
-5.3697 1.5767 -2.0013 0.9765
-5.5080 0.9938 -2.0015 0.9765
-5.5832 0.3993 -2.0017 0.9765
-5.5941 0.1998 -2.0017 0.9765
5.2238 0.0000 -2.0019 0.9779
5.2102 0.3727 -2.0018 0.9779
5.1701 0.7434 -2.0016 0.9779
5.1401 0.9274 -2.0016 0.9779
5.1036 1.1102 -2.0015 0.9779
5.0605 1.2917 -2.0015 0.9779
5.0111 1.4714 -2.0014 0.9779
4.9552 1.6493 -2.0014 0.9779
4.8931 1.8250 -2.0013 0.9779
4.8247 1.9985 -2.0013 0.9779
4.6696 2.3375 -2.0011 0.9779
4.5831 2.5026 -2.0011 0.9779
4.3926 2.8230 -2.0010 0.9779
4.2890 2.9779 -2.0009 0.9779
4.1798 3.1290 -2.0009 0.9779
3.9458 3.4191 -2.0008 0.9779
3.5575 3.8210 -2.0007 0.9779
1.5230 4.5761 -1.8482 0.9796
1.3587 4.6275 -1.8482 0.9796
1.1927 4.6730 -1.8482 0.9796
0.8563 4.7462 -1.8482 0.9796
0.6863 4.7737 -1.8482 0.9796
0.5155 4.7951 -1.8482 0.9796
0.3440 4.8104 -1.8481 0.9796
0.1721 4.8196 -1.8481 0.9796
-0.0000 4.8227 -1.8481 0.9796
-0.1721 4.8196 -1.8481 0.9796
-0.5155 4.7951 -1.8481 0.9796
-1.0252 4.7126 -1.8482 0.9796
-1.1927 4.6730 -1.8482 0.9796
-1.3588 4.6275 -1.8482 0.9796
-1.5280 4.5909 -1.8542 0.9795
-1.8958 4.5769 -1.8985 0.9790
-2.4829 4.5471 -1.9854 0.9781
-2.6550 4.4747 -1.9939 0.9780
-2.9721 4.2806 -1.9970 0.9779
-3.1257 4.1754 -1.9988 0.9779
-3.2757 4.0648 -2.0006 0.9779
-3.5574 3.8209 -2.0006 0.9779
-3.6916 3.6916 -2.0007 0.9779
-3.8211 3.5576 -2.0007 0.9779
-3.9457 3.4190 -2.0008 0.9779
-4.4906 2.6644 -2.0010 0.9779
-4.5830 2.5025 -2.0010 0.9779
-4.6695 2.3374 -2.0011 0.9779
-4.8246 1.9984 -2.0012 0.9779
-4.8930 1.8250 -2.0012 0.9779
-5.0604 1.2916 -2.0014 0.9779
-5.1034 1.1102 -2.0015 0.9779
-5.1400 0.9274 -2.0015 0.9779
4.8912 0.0000 -2.0019 0.9791
4.8880 0.1746 -2.0018 0.9791
4.8785 0.3489 -2.0018 0.9791
4.8628 0.5228 -2.0017 0.9791
4.7787 1.0396 -2.0015 0.9791
4.7384 1.2094 -2.0015 0.9791
4.6921 1.3778 -2.0014 0.9791
4.5176 1.8713 -2.0013 0.9791
4.3724 2.1887 -2.0012 0.9791
4.2049 2.4949 -2.0011 0.9791
4.0160 2.7884 -2.0010 0.9791
3.8067 3.0677 -2.0009 0.9791
3.5780 3.3313 -2.0008 0.9791
3.4568 3.4568 -2.0008 0.9791
3.3311 3.5779 -2.0008 0.9791
2.7869 4.0139 -1.9999 0.9791
2.6399 4.1078 -1.9985 0.9791
2.1815 4.3581 -1.9947 0.9792
2.0235 4.4308 -1.9936 0.9792
1.6787 4.5007 -1.9660 0.9795
1.3285 4.5244 -1.9299 0.9798
0.9882 4.5429 -1.9028 0.9801
0.8211 4.5513 -1.8928 0.9802
0.6555 4.5593 -1.8852 0.9803
0.4909 4.5667 -1.8798 0.9803
0.3271 4.5738 -1.8767 0.9804
-0.3278 4.5829 -1.8804 0.9803
-0.4928 4.5839 -1.8869 0.9803
-0.9972 4.5839 -1.9200 0.9799
-1.1688 4.5792 -1.9342 0.9798
-1.3431 4.5740 -1.9510 0.9796
-1.5204 4.5682 -1.9705 0.9794
-1.7015 4.5619 -1.9927 0.9792
-1.8643 4.5008 -1.9938 0.9792
-2.3389 4.2834 -1.9974 0.9791
-2.6422 4.1113 -2.0002 0.9791
-3.0672 3.8062 -2.0006 0.9791
-3.2012 3.6944 -2.0007 0.9791
-3.3311 3.5778 -2.0007 0.9791
-3.4567 3.4567 -2.0007 0.9791
-3.6947 3.2014 -2.0008 0.9791
-3.9138 2.9298 -2.0009 0.9791
-4.0160 2.7883 -2.0010 0.9791
-4.1130 2.6433 -2.0010 0.9791
-4.3723 2.1886 -2.0011 0.9791
-4.5175 1.8712 -2.0012 0.9791
-4.5815 1.7088 -2.0013 0.9791
-4.7383 1.2094 -2.0014 0.9791
-4.7786 1.0395 -2.0015 0.9791
-1.9449 0.2796 -0.8042 0.9915
-1.9570 0.2104 -0.8055 0.9915
-1.9525 0.1397 -0.8011 0.9916
4.5814 0.3277 -2.0018 0.9802
4.4499 1.1358 -2.0015 0.9802
4.3573 1.4503 -2.0014 0.9802
4.3027 1.6048 -2.0014 0.9802
4.2425 1.7573 -2.0013 0.9802
4.1770 1.9076 -2.0013 0.9802
4.1062 2.0554 -2.0012 0.9802
3.9489 2.3430 -2.0011 0.9802
3.7715 2.6187 -2.0011 0.9802
3.5750 2.8809 -2.0010 0.9802
3.4698 3.0066 -2.0009 0.9802
3.3602 3.1285 -2.0009 0.9802
3.2463 3.2464 -2.0009 0.9802
2.8806 3.5746 -2.0007 0.9802
2.7511 3.6751 -2.0007 0.9802
2.6181 3.7709 -2.0007 0.9802
2.4818 3.8619 -2.0007 0.9802
2.0533 4.1021 -1.9992 0.9802
1.6008 4.2921 -1.9964 0.9802
1.1317 4.4339 -1.9943 0.9802
0.3256 4.5530 -1.9893 0.9803
0.1627 4.5565 -1.9870 0.9803
-0.3262 4.5610 -1.9928 0.9802
-0.6510 4.5276 -1.9935 0.9802
-0.8124 4.5025 -1.9939 0.9802
-1.2902 4.3939 -1.9958 0.9802
-1.4468 4.3468 -1.9966 0.9802
-1.7548 4.2364 -1.9984 0.9802
-2.6181 3.7708 -2.0007 0.9802
-2.8806 3.5745 -2.0007 0.9802
-3.0063 3.4695 -2.0007 0.9802
-3.1283 3.3600 -2.0008 0.9802
-3.3602 3.1284 -2.0008 0.9802
-3.4698 3.0066 -2.0009 0.9802
-3.7715 2.6186 -2.0010 0.9802
-4.0300 2.2006 -2.0011 0.9802
-4.1061 2.0554 -2.0012 0.9802
-1.5485 0.3952 -0.6965 0.9931
-1.5151 0.2179 -0.6671 0.9933
-1.5249 0.1640 -0.6684 0.9933
-1.5293 0.1094 -0.6682 0.9933
4.3248 0.0000 -2.0019 0.9811
4.3219 0.1544 -2.0018 0.9811
4.3135 0.3085 -2.0018 0.9811
4.2803 0.6154 -2.0017 0.9811
4.2555 0.7678 -2.0016 0.9811
4.2253 0.9192 -2.0016 0.9811
4.1897 1.0694 -2.0015 0.9811
4.1488 1.2182 -2.0015 0.9811
3.8661 1.9353 -2.0013 0.9811
3.7945 2.0720 -2.0012 0.9811
3.7181 2.2061 -2.0012 0.9811
3.6369 2.3373 -2.0011 0.9811
3.3660 2.7125 -2.0010 0.9811
3.2670 2.8309 -2.0010 0.9811
3.1638 2.9456 -2.0009 0.9811
3.0566 3.0566 -2.0009 0.9811
2.8307 3.2668 -2.0008 0.9811
2.7122 3.3657 -2.0008 0.9811
2.5903 3.4603 -2.0008 0.9811
2.3368 3.6362 -2.0007 0.9811
1.9347 3.8650 -2.0007 0.9811
1.6540 3.9931 -2.0006 0.9811
1.3644 4.0995 -1.9999 0.9811
1.2168 4.1442 -1.9993 0.9811
0.9176 4.2182 -1.9982 0.9812
0.7663 4.2474 -1.9978 0.9812
-0.1540 4.3117 -1.9971 0.9812
-0.6143 4.2722 -1.9979 0.9812
-0.9179 4.2196 -1.9988 0.9811
-1.2173 4.1459 -2.0001 0.9811
-1.5104 4.0495 -2.0006 0.9811
-1.6540 3.9930 -2.0006 0.9811
-1.7954 3.9315 -2.0006 0.9811
-2.0714 3.7935 -2.0007 0.9811
-2.2055 3.7172 -2.0007 0.9811
-2.3368 3.6361 -2.0007 0.9811
-2.7122 3.3656 -2.0008 0.9811
-2.8306 3.2667 -2.0008 0.9811
-2.9455 3.1637 -2.0008 0.9811
-3.0566 3.0566 -2.0009 0.9811
-3.2670 2.8308 -2.0009 0.9811
-3.6368 2.3373 -2.0011 0.9811
-3.7944 2.0719 -2.0012 0.9811
-1.3263 0.5494 -0.6645 0.9937
-1.3324 0.4970 -0.6582 0.9938
-1.3241 0.3888 -0.6388 0.9939
-1.3273 0.1909 -0.6207 0.9941
-1.3376 0.0478 -0.6195 0.9941
4.0811 0.0000 -2.0019 0.9820
4.0784 0.1457 -2.0018 0.9820
4.0392 0.5808 -2.0017 0.9820
3.9151 1.1496 -2.0015 0.9820
3.8714 1.2886 -2.0015 0.9820
3.7113 1.6949 -2.0013 0.9820
3.6484 1.8262 -2.0013 0.9820
3.4320 2.2057 -2.0012 0.9820
3.2658 2.4448 -2.0011 0.9820
3.1764 2.5597 -2.0011 0.9820
3.0830 2.6714 -2.0010 0.9820
2.9856 2.7797 -2.0010 0.9820
2.8844 2.8845 -2.0010 0.9820
2.6712 3.0828 -2.0009 0.9820
2.4444 3.2654 -2.0008 0.9820
2.3263 3.3505 -2.0008 0.9820
2.2052 3.4314 -2.0008 0.9820
1.5608 3.7682 -2.0007 0.9820
1.1490 3.9134 -2.0006 0.9820
0.8669 3.9853 -2.0006 0.9820
0.7241 4.0137 -2.0006 0.9820
0.4360 4.0551 -2.0006 0.9820
0.2909 4.0681 -2.0006 0.9820
-0.4360 4.0551 -2.0006 0.9820
-0.7242 4.0137 -2.0006 0.9820
-1.1491 3.9133 -2.0006 0.9820
-1.5608 3.7682 -2.0007 0.9820
-2.0813 3.5078 -2.0007 0.9820
-2.3263 3.3505 -2.0008 0.9820
-2.5595 3.1761 -2.0008 0.9820
-2.6712 3.0828 -2.0009 0.9820
-3.1764 2.5597 -2.0010 0.9820
-3.2658 2.4447 -2.0011 0.9820
-3.3510 2.3267 -2.0011 0.9820
-3.4320 2.2056 -2.0011 0.9820
-1.1400 0.5207 -0.6148 0.9944
-1.1484 0.4757 -0.6097 0.9945
-1.1579 0.3854 -0.5986 0.9946
-1.1590 0.3403 -0.5925 0.9946
-1.1579 0.2955 -0.5861 0.9947
-1.1791 0.2128 -0.5877 0.9947
-1.1867 0.1706 -0.5881 0.9947
-1.1954 0.0855 -0.5878 0.9947
-1.1965 0.0428 -0.5873 0.9947
3.8588 0.0000 -2.0019 0.9828
3.8562 0.1378 -2.0018 0.9828
3.8488 0.2753 -2.0018 0.9828
3.8192 0.5491 -2.0017 0.9828
3.6606 1.2184 -2.0015 0.9828
3.6147 1.3483 -2.0014 0.9828
3.5092 1.6026 -2.0014 0.9828
3.4497 1.7268 -2.0013 0.9828
3.3858 1.8488 -2.0013 0.9828
3.3176 1.9684 -2.0013 0.9828
3.0035 2.4204 -2.0011 0.9828
2.7274 2.7274 -2.0010 0.9828
2.5258 2.9150 -2.0010 0.9828
2.4201 3.0032 -2.0009 0.9828
2.3114 3.0876 -2.0009 0.9828
2.1996 3.1681 -2.0009 0.9828
1.9680 3.3169 -2.0008 0.9828
1.8483 3.3850 -2.0008 0.9828
1.7263 3.4488 -2.0008 0.9828
1.6021 3.5082 -2.0008 0.9828
1.4759 3.5631 -2.0007 0.9828
1.3477 3.6135 -2.0007 0.9828
0.9537 3.7367 -2.0007 0.9828
0.8197 3.7684 -2.0007 0.9828
0.5488 3.8172 -2.0007 0.9828
0.4122 3.8344 -2.0007 0.9828
0.1376 3.8540 -2.0006 0.9828
-0.2751 3.8466 -2.0006 0.9828
-0.4122 3.8344 -2.0006 0.9828
-0.5488 3.8172 -2.0007 0.9828
-0.6847 3.7952 -2.0007 0.9828
-0.8198 3.7684 -2.0007 0.9828
-1.2179 3.6592 -2.0007 0.9828
-1.6021 3.5081 -2.0007 0.9828
-1.7263 3.4488 -2.0008 0.9828
-1.9680 3.3169 -2.0008 0.9828
-2.0851 3.2446 -2.0008 0.9828
-2.3113 3.0876 -2.0009 0.9828
-2.4201 3.0032 -2.0009 0.9828
-2.5258 2.9149 -2.0009 0.9828
-2.6283 2.8229 -2.0009 0.9828
-2.8230 2.6283 -2.0010 0.9828
-2.9151 2.5259 -2.0010 0.9828
-3.0880 2.3116 -2.0011 0.9828
-0.9917 0.5884 -0.5982 0.9948
-1.0118 0.5525 -0.5981 0.9948
-1.0430 0.4763 -0.5948 0.9948
-1.0576 0.3945 -0.5856 0.9949
-1.0617 0.3534 -0.5805 0.9950
-1.0636 0.3123 -0.5751 0.9950
-1.0704 0.2732 -0.5731 0.9950
-1.0905 0.1968 -0.5749 0.9950
-1.0975 0.1578 -0.5752 0.9950
-1.1055 0.0791 -0.5750 0.9950
3.6550 0.0000 -2.0019 0.9835
3.6526 0.1305 -2.0018 0.9835
3.6455 0.2607 -2.0018 0.9835
3.6175 0.5201 -2.0017 0.9835
3.5410 0.9038 -2.0016 0.9835
3.4239 1.2771 -2.0015 0.9835
3.2676 1.6356 -2.0014 0.9835
3.2070 1.7512 -2.0013 0.9835
3.1425 1.8645 -2.0013 0.9835
2.8449 2.2926 -2.0011 0.9835
2.7612 2.3926 -2.0011 0.9835
2.6740 2.4896 -2.0011 0.9835
2.2924 2.8447 -2.0010 0.9835
2.1893 2.9247 -2.0009 0.9835
2.0835 3.0009 -2.0009 0.9835
1.8641 3.1418 -2.0009 0.9835
1.7508 3.2063 -2.0009 0.9835
1.6352 3.2667 -2.0008 0.9835
1.5176 3.3230 -2.0008 0.9835
1.3979 3.3750 -2.0008 0.9835
1.1536 3.4661 -2.0008 0.9835
1.0292 3.5050 -2.0008 0.9835
0.6486 3.5949 -2.0007 0.9835
0.1304 3.6506 -2.0007 0.9835
-0.0000 3.6529 -2.0007 0.9835
-0.1304 3.6506 -2.0007 0.9835
-0.2606 3.6436 -2.0007 0.9835
-0.3905 3.6320 -2.0007 0.9835
-0.5199 3.6157 -2.0007 0.9835
-0.7765 3.5695 -2.0007 0.9835
-1.0292 3.5050 -2.0007 0.9835
-1.2766 3.4227 -2.0008 0.9835
-1.3980 3.3750 -2.0008 0.9835
-1.5175 3.3230 -2.0008 0.9835
-1.7508 3.2063 -2.0008 0.9835
-2.2924 2.8447 -2.0009 0.9835
-2.3925 2.7611 -2.0010 0.9835
-2.5834 2.5834 -2.0010 0.9835
-2.6740 2.4896 -2.0011 0.9835
-2.7612 2.3926 -2.0011 0.9835
-2.8449 2.2926 -2.0011 0.9835
-0.8661 0.6014 -0.5775 0.9952
-0.9084 0.5390 -0.5785 0.9952
-0.9269 0.5061 -0.5784 0.9952
-0.9434 0.4722 -0.5778 0.9952
-0.9580 0.4375 -0.5768 0.9952
-0.9678 0.4009 -0.5737 0.9952
-0.9741 0.3633 -0.5694 0.9953
-0.9820 0.2884 -0.5606 0.9953
-1.0039 0.2184 -0.5627 0.9953
-1.0124 0.1826 -0.5634 0.9953
-1.0190 0.1465 -0.5638 0.9953
-1.0236 0.1101 -0.5639 0.9953
-1.0265 0.0734 -0.5637 0.9953
-1.0276 0.0367 -0.5632 0.9953
2.0197 0.0000 -1.1661 0.9907
2.0359 0.1456 -1.1784 0.9906
2.0366 0.2190 -1.1826 0.9906
2.0153 0.3636 -1.1823 0.9906
1.9883 0.4325 -1.1748 0.9906
1.9351 0.5682 -1.1644 0.9907
1.9033 0.6335 -1.1581 0.9908
1.8620 0.7713 -1.1636 0.9907
1.8507 0.8452 -1.1747 0.9906
3.0424 1.6613 -2.0013 0.9841
2.9811 1.7688 -2.0013 0.9841
2.7748 2.0772 -2.0012 0.9841
2.6989 2.1749 -2.0012 0.9841
2.6195 2.2698 -2.0012 0.9841
2.3617 2.5367 -2.0011 0.9841
2.2697 2.6194 -2.0010 0.9841
2.0770 2.7745 -2.0010 0.9841
1.9766 2.8469 -2.0010 0.9841
1.8737 2.9156 -2.0009 0.9841
1.5513 3.0991 -2.0009 0.9841
1.4396 3.1524 -2.0009 0.9841
1.3262 3.2018 -2.0009 0.9841
1.2111 3.2471 -2.0008 0.9841
0.7366 3.3863 -2.0008 0.9841
-0.0000 3.4654 -2.0008 0.9841
-0.1237 3.4632 -2.0008 0.9841
-0.3705 3.4456 -2.0008 0.9841
-0.4932 3.4302 -2.0008 0.9841
-0.6153 3.4104 -2.0008 0.9841
-0.8570 3.3578 -2.0008 0.9841
-1.4397 3.1524 -2.0009 0.9841
-1.5513 3.0990 -2.0009 0.9841
-1.9766 2.8468 -2.0009 0.9841
-2.0770 2.7745 -2.0010 0.9841
-2.1747 2.6986 -2.0010 0.9841
-2.4508 2.4508 -2.0011 0.9841
-2.5368 2.3618 -2.0011 0.9841
-2.6195 2.2698 -2.0011 0.9841
-0.7671 0.6182 -0.5688 0.9955
-0.7846 0.5873 -0.5658 0.9955
-0.8008 0.5560 -0.5628 0.9955
-0.8364 0.4963 -0.5615 0.9955
-0.8534 0.4660 -0.5614 0.9955
-0.8823 0.4029 -0.5600 0.9955
-0.8941 0.3704 -0.5587 0.9955
-0.9151 0.2687 -0.5506 0.9956
-0.9259 0.2363 -0.5517 0.9956
-0.9538 0.1025 -0.5538 0.9956
-0.9565 0.0684 -0.5536 0.9956
-0.9575 0.0342 -0.5532 0.9956
