ply
format ascii 1.0
element vertex 723
property float32 x
property float32 y
property float32 z
property float32 I
end_header
-9.4470 -0.6756 -2.0020 0.9620
-9.4173 -1.0125 -2.0021 0.9620
-9.3221 -1.6819 -2.0023 0.9620
-9.1793 -2.3429 -2.0025 0.9620
-8.8776 -3.3112 -2.0028 0.9620
-8.6197 -3.9365 -2.0030 0.9620
-8.4741 -4.2418 -2.0031 0.9620
-8.3177 -4.5418 -2.0032 0.9620
-7.9732 -5.1241 -2.0034 0.9620
-7.3808 -5.9478 -2.0037 0.9620
-6.9382 -6.4597 -2.0038 0.9620
-6.7035 -6.7035 -2.0039 0.9620
-6.4602 -6.9388 -2.0040 0.9620
-5.9492 -7.3825 -2.0041 0.9620
-5.1264 -7.9769 -2.0043 0.9620
-4.2447 -8.4799 -2.0045 0.9620
-3.9395 -8.6262 -2.0045 0.9620
-2.9950 -8.9984 -2.0047 0.9620
-2.6719 -9.0997 -2.0047 0.9620
-2.0160 -9.2674 -2.0048 0.9620
-0.3385 -9.4785 -2.0048 0.9620
0.3385 -9.4785 -2.0048 0.9620
1.0138 -9.4302 -2.0048 0.9620
1.3498 -9.3879 -2.0048 0.9620
1.6840 -9.3337 -2.0048 0.9620
2.0160 -9.2675 -2.0048 0.9620
2.6720 -9.0999 -2.0047 0.9620
3.3142 -8.8858 -2.0047 0.9620
5.9494 -7.3828 -2.0042 0.9620
6.2089 -7.1655 -2.0041 0.9620
6.4605 -6.9390 -2.0041 0.9620
6.7038 -6.7038 -2.0040 0.9620
7.3811 -5.9481 -2.0038 0.9620
7.7860 -5.4059 -2.0036 0.9620
7.9736 -5.1243 -2.0035 0.9620
8.1511 -4.8363 -2.0034 0.9620
8.3181 -4.5420 -2.0033 0.9620
8.4745 -4.2421 -2.0032 0.9620
8.7547 -3.6263 -2.0030 0.9620
8.8781 -3.3114 -2.0029 0.9620
8.9902 -2.9922 -2.0028 0.9620
9.1798 -2.3430 -2.0026 0.9620
9.2571 -2.0138 -2.0025 0.9620
9.3762 -1.3481 -2.0023 0.9620
9.4475 -0.6757 -2.0021 0.9620
9.4651 -0.3380 -2.0020 0.9620
-8.5174 0.0000 -2.0018 0.9656
-8.4698 -0.9106 -2.0021 0.9656
-8.1755 -2.4006 -2.0026 0.9656
-8.0850 -2.6909 -2.0026 0.9656
-7.6211 -3.8149 -2.0030 0.9656
-7.4804 -4.0846 -2.0031 0.9656
-6.8241 -5.1084 -2.0034 0.9656
-6.6377 -5.3490 -2.0035 0.9656
-6.2396 -5.8093 -2.0036 0.9656
-6.0285 -6.0285 -2.0037 0.9656
-5.8097 -6.2401 -2.0038 0.9656
-5.5835 -6.4437 -2.0038 0.9656
-5.3501 -6.6390 -2.0039 0.9656
-5.1099 -6.8260 -2.0040 0.9656
-4.6102 -7.1735 -2.0041 0.9656
-3.8172 -7.6258 -2.0042 0.9656
-3.2636 -7.8790 -2.0043 0.9656
-2.6933 -8.0920 -2.0044 0.9656
-2.4028 -8.1831 -2.0044 0.9656
-2.1092 -8.2638 -2.0044 0.9656
-1.8129 -8.3339 -2.0045 0.9656
-1.2138 -8.4422 -2.0045 0.9656
-0.3044 -8.5237 -2.0045 0.9656
2.4028 -8.1833 -2.0044 0.9656
2.9804 -7.9908 -2.0044 0.9656
3.5427 -7.7575 -2.0043 0.9656
3.8173 -7.6260 -2.0043 0.9656
4.0869 -7.4847 -2.0042 0.9656
4.6103 -7.1737 -2.0041 0.9656
5.8099 -6.2403 -2.0039 0.9656
6.6379 -5.3492 -2.0036 0.9656
6.8244 -5.1087 -2.0035 0.9656
7.1709 -4.6084 -2.0033 0.9656
7.4807 -4.0848 -2.0032 0.9656
7.8735 -3.2613 -2.0029 0.9656
7.9846 -2.9781 -2.0028 0.9656
8.1759 -2.4007 -2.0027 0.9656
8.3256 -1.8111 -2.0025 0.9656
8.4328 -1.2125 -2.0023 0.9656
8.4703 -0.9106 -2.0022 0.9656
-7.7314 0.0000 -2.0018 0.9686
-7.7268 -0.2760 -2.0019 0.9686
-7.7124 -0.5516 -2.0020 0.9686
-7.4935 -1.9126 -2.0024 0.9686
-7.4208 -2.1789 -2.0025 0.9685
-7.2470 -2.7030 -2.0027 0.9685
-7.0363 -3.2134 -2.0028 0.9685
-6.7897 -3.7075 -2.0030 0.9685
-6.6533 -3.9476 -2.0030 0.9685
-6.5084 -4.1827 -2.0031 0.9685
-6.3552 -4.4125 -2.0032 0.9685
-6.1939 -4.6367 -2.0033 0.9685
-5.8477 -5.0671 -2.0034 0.9685
-5.6633 -5.2727 -2.0035 0.9685
-5.4717 -5.4717 -2.0035 0.9685
-4.8559 -6.0258 -2.0037 0.9685
-4.6378 -6.1954 -2.0038 0.9685
-2.7050 -7.2523 -2.0041 0.9685
-2.4445 -7.3444 -2.0042 0.9685
-1.6454 -7.5639 -2.0042 0.9685
-1.1017 -7.6621 -2.0043 0.9685
-0.8275 -7.6966 -2.0043 0.9685
-0.2763 -7.7361 -2.0043 0.9685
-0.0000 -7.7410 -2.0043 0.9685
0.5522 -7.7213 -2.0043 0.9685
0.8275 -7.6966 -2.0043 0.9685
1.1017 -7.6622 -2.0043 0.9685
1.3744 -7.6179 -2.0043 0.9685
1.6454 -7.5639 -2.0042 0.9685
1.9143 -7.5004 -2.0042 0.9685
2.1808 -7.4271 -2.0042 0.9685
2.7050 -7.2525 -2.0042 0.9685
3.2154 -7.0408 -2.0041 0.9685
3.7094 -6.7932 -2.0040 0.9685
4.1844 -6.5110 -2.0039 0.9685
4.6380 -6.1956 -2.0038 0.9685
5.2732 -5.6639 -2.0037 0.9685
5.4719 -5.4719 -2.0036 0.9685
5.6635 -5.2729 -2.0035 0.9685
5.8479 -5.0672 -2.0035 0.9685
6.0249 -4.8551 -2.0034 0.9685
6.5086 -4.1829 -2.0032 0.9685
7.1465 -2.9602 -2.0028 0.9685
7.2473 -2.7031 -2.0027 0.9685
7.3389 -2.4426 -2.0027 0.9685
7.4211 -2.1790 -2.0026 0.9685
7.4938 -1.9127 -2.0025 0.9685
7.5570 -1.6439 -2.0024 0.9686
7.6544 -1.1005 -2.0022 0.9686
7.6885 -0.8266 -2.0022 0.9686
7.7127 -0.5516 -2.0021 0.9686
-7.0315 -0.7560 -2.0020 0.9710
-6.9112 -1.5035 -2.0023 0.9710
-6.7869 -1.9928 -2.0024 0.9710
-6.7117 -2.2339 -2.0025 0.9710
-6.5357 -2.7072 -2.0027 0.9710
-6.3264 -3.1668 -2.0028 0.9710
-6.2096 -3.3907 -2.0029 0.9710
-6.0848 -3.6103 -2.0029 0.9710
-5.9523 -3.8253 -2.0030 0.9710
-5.6646 -4.2404 -2.0031 0.9710
-5.3480 -4.6340 -2.0033 0.9710
-5.0041 -5.0041 -2.0034 0.9710
-4.4408 -5.5107 -2.0036 0.9710
-4.0366 -5.8138 -2.0037 0.9710
-3.6117 -6.0872 -2.0037 0.9710
-3.3922 -6.2124 -2.0038 0.9710
-3.1684 -6.3296 -2.0038 0.9710
-2.9405 -6.4388 -2.0039 0.9710
-2.7089 -6.5397 -2.0039 0.9710
-2.2355 -6.7165 -2.0040 0.9710
-1.9944 -6.7921 -2.0040 0.9710
-1.0075 -7.0071 -2.0041 0.9710
-0.5050 -7.0612 -2.0041 0.9710
-0.0000 -7.0792 -2.0041 0.9710
0.5050 -7.0612 -2.0041 0.9710
2.2355 -6.7166 -2.0040 0.9710
2.4738 -6.6325 -2.0040 0.9710
2.9405 -6.4389 -2.0039 0.9710
3.3923 -6.2125 -2.0038 0.9710
4.0367 -5.8140 -2.0037 0.9710
4.6347 -5.3488 -2.0036 0.9710
5.0042 -5.0042 -2.0035 0.9710
5.6648 -4.2406 -2.0032 0.9710
5.8123 -4.0356 -2.0032 0.9710
5.9525 -3.8254 -2.0031 0.9710
6.3266 -3.1669 -2.0029 0.9710
6.4354 -2.9390 -2.0028 0.9710
6.5360 -2.7073 -2.0027 0.9710
6.6282 -2.4722 -2.0027 0.9710
6.7872 -1.9929 -2.0025 0.9710
6.8537 -1.7493 -2.0024 0.9710
6.9115 -1.5035 -2.0024 0.9710
6.9605 -1.2558 -2.0023 0.9710
7.0318 -0.7560 -2.0021 0.9710
7.0540 -0.5045 -2.0020 0.9710
-6.4922 -0.4643 -2.0019 0.9731
-6.4060 -1.1558 -2.0022 0.9731
-6.3077 -1.6099 -2.0023 0.9731
-6.2465 -1.8341 -2.0024 0.9731
-6.0152 -2.4916 -2.0026 0.9731
-5.8226 -2.9146 -2.0027 0.9731
-5.6002 -3.3227 -2.0029 0.9731
-5.2134 -3.9027 -2.0030 0.9731
-5.0709 -4.0864 -2.0031 0.9731
-4.7667 -4.4380 -2.0032 0.9731
-4.6054 -4.6054 -2.0033 0.9731
-3.9035 -5.2145 -2.0035 0.9731
-2.9159 -5.8253 -2.0037 0.9731
-2.7062 -5.9257 -2.0037 0.9731
-2.2766 -6.1039 -2.0038 0.9731
-2.0574 -6.1813 -2.0038 0.9731
-1.8354 -6.2509 -2.0038 0.9731
-1.3849 -6.3660 -2.0038 0.9731
-1.1568 -6.4115 -2.0039 0.9731
-0.0000 -6.5151 -2.0039 0.9731
0.6964 -6.4778 -2.0039 0.9731
0.9272 -6.4487 -2.0039 0.9731
1.3849 -6.3661 -2.0039 0.9731
1.8354 -6.2510 -2.0038 0.9731
2.0574 -6.1814 -2.0038 0.9731
2.2767 -6.1040 -2.0038 0.9731
2.4930 -6.0187 -2.0038 0.9731
2.7062 -5.9258 -2.0037 0.9731
3.1220 -5.7175 -2.0037 0.9731
3.5218 -5.4800 -2.0036 0.9731
4.0871 -5.0718 -2.0035 0.9731
4.2654 -4.9226 -2.0034 0.9731
4.4383 -4.7671 -2.0034 0.9731
4.6055 -4.6055 -2.0033 0.9731
4.9221 -4.2650 -2.0032 0.9731
5.2135 -3.9028 -2.0031 0.9731
5.6004 -3.3229 -2.0029 0.9731
5.7152 -3.1207 -2.0029 0.9731
5.8228 -2.9147 -2.0028 0.9731
5.9229 -2.7049 -2.0027 0.9731
6.1003 -2.2753 -2.0026 0.9731
6.1775 -2.0561 -2.0025 0.9731
6.2467 -1.8342 -2.0025 0.9731
6.3079 -1.6100 -2.0024 0.9731
6.4432 -0.9264 -2.0022 0.9731
6.4719 -0.6958 -2.0021 0.9731
6.5046 -0.2323 -2.0020 0.9731
-6.0072 -0.4296 -2.0019 0.9749
-5.9275 -1.0694 -2.0021 0.9749
-5.8858 -1.2804 -2.0022 0.9749
-5.7798 -1.6971 -2.0023 0.9749
-5.6444 -2.1053 -2.0025 0.9749
-5.5658 -2.3054 -2.0025 0.9749
-4.9495 -3.4365 -2.0029 0.9749
-4.2612 -4.2612 -2.0032 0.9749
-4.1065 -4.4107 -2.0032 0.9749
-3.9466 -4.5546 -2.0033 0.9749
-3.7816 -4.6926 -2.0033 0.9749
-3.6117 -4.8247 -2.0033 0.9749
-3.4373 -4.9507 -2.0034 0.9749
-2.8886 -5.2900 -2.0035 0.9749
-2.6979 -5.3898 -2.0035 0.9749
-2.3067 -5.5687 -2.0036 0.9749
-2.1064 -5.6476 -2.0036 0.9749
-1.9035 -5.7192 -2.0036 0.9749
-1.4907 -5.8406 -2.0037 0.9749
-1.0703 -5.9321 -2.0037 0.9749
-0.4300 -6.0126 -2.0037 0.9749
-0.2152 -6.0242 -2.0037 0.9749
-0.0000 -6.0280 -2.0037 0.9749
0.6443 -5.9935 -2.0037 0.9749
0.8579 -5.9666 -2.0037 0.9749
1.0703 -5.9322 -2.0037 0.9749
1.6982 -5.7837 -2.0037 0.9749
1.9036 -5.7193 -2.0037 0.9749
2.1065 -5.6477 -2.0036 0.9749
2.5039 -5.4829 -2.0036 0.9749
2.6980 -5.3899 -2.0036 0.9749
2.8886 -5.2901 -2.0035 0.9749
3.2585 -5.0704 -2.0035 0.9749
3.4374 -4.9508 -2.0034 0.9749
3.7816 -4.6927 -2.0034 0.9749
3.9466 -4.5547 -2.0033 0.9749
4.2613 -4.2613 -2.0032 0.9749
4.4106 -4.1064 -2.0032 0.9749
4.5542 -3.9463 -2.0031 0.9749
4.6921 -3.7811 -2.0031 0.9749
4.9496 -3.4366 -2.0030 0.9749
5.0690 -3.2576 -2.0029 0.9749
5.4803 -2.5028 -2.0027 0.9749
5.6445 -2.1053 -2.0025 0.9749
5.7159 -1.9024 -2.0025 0.9749
5.7800 -1.6972 -2.0024 0.9749
5.8367 -1.4897 -2.0024 0.9749
5.8859 -1.2804 -2.0023 0.9749
5.9619 -0.8572 -2.0022 0.9749
5.9885 -0.6438 -2.0021 0.9749
6.0075 -0.4296 -2.0020 0.9749
-5.5839 -0.3994 -2.0019 0.9765
-5.5662 -0.5984 -2.0020 0.9765
-5.5415 -0.7968 -2.0021 0.9765
-5.5097 -0.9941 -2.0021 0.9765
-5.4709 -1.1901 -2.0022 0.9765
-5.3128 -1.7683 -2.0024 0.9765
-5.0077 -2.5067 -2.0026 0.9765
-4.9152 -2.6839 -2.0027 0.9765
-4.7114 -3.0279 -2.0028 0.9765
-4.6005 -3.1942 -2.0028 0.9765
-4.2330 -3.6679 -2.0030 0.9765
-3.9607 -3.9607 -2.0031 0.9765
-3.8169 -4.0997 -2.0031 0.9765
-3.5149 -4.3617 -2.0032 0.9765
-3.3571 -4.4845 -2.0032 0.9765
-3.0287 -4.7127 -2.0033 0.9765
-2.5077 -5.0097 -2.0034 0.9765
-2.1440 -5.1760 -2.0035 0.9765
-1.9579 -5.2493 -2.0035 0.9765
-1.7693 -5.3158 -2.0035 0.9765
-1.1909 -5.4747 -2.0036 0.9765
-0.9948 -5.5137 -2.0036 0.9765
-0.5989 -5.5707 -2.0036 0.9765
-0.0000 -5.6029 -2.0036 0.9765
0.3997 -5.5886 -2.0036 0.9765
1.3856 -5.4287 -2.0036 0.9765
1.7693 -5.3159 -2.0035 0.9765
1.9579 -5.2493 -2.0035 0.9765
2.3273 -5.0962 -2.0035 0.9765
2.5077 -5.0098 -2.0034 0.9765
2.6849 -4.9170 -2.0034 0.9765
2.8586 -4.8180 -2.0034 0.9765
3.3571 -4.4846 -2.0033 0.9765
3.5150 -4.3618 -2.0032 0.9765
3.6683 -4.2335 -2.0032 0.9765
3.9608 -3.9608 -2.0031 0.9765
4.0996 -3.8169 -2.0031 0.9765
4.3612 -3.5145 -2.0030 0.9765
4.4838 -3.3565 -2.0029 0.9765
4.6006 -3.1943 -2.0029 0.9765
5.1736 -2.1430 -2.0026 0.9765
5.3130 -1.7683 -2.0024 0.9765
5.5099 -0.9941 -2.0022 0.9765
5.5417 -0.7968 -2.0021 0.9765
5.5664 -0.5984 -2.0021 0.9765
5.5841 -0.3994 -2.0020 0.9765
-5.2237 0.0000 -2.0018 0.9779
-5.1415 -0.9276 -2.0021 0.9779
-5.1052 -1.1106 -2.0022 0.9779
-4.8276 -1.9997 -2.0024 0.9779
-4.7533 -2.1707 -2.0025 0.9779
-4.4943 -2.6666 -2.0027 0.9779
-4.3964 -2.8254 -2.0027 0.9779
-4.1839 -3.1320 -2.0028 0.9779
-3.5617 -3.8255 -2.0030 0.9779
-3.4229 -3.9503 -2.0031 0.9779
-2.6674 -4.4957 -2.0032 0.9779
-2.5053 -4.5881 -2.0033 0.9779
-2.3400 -4.6746 -2.0033 0.9779
-2.1717 -4.7552 -2.0033 0.9779
-1.8270 -4.8982 -2.0034 0.9779
-1.2929 -5.0655 -2.0034 0.9779
-1.1113 -5.1085 -2.0035 0.9779
-0.9283 -5.1449 -2.0035 0.9779
-0.5589 -5.1981 -2.0035 0.9779
-0.3730 -5.2147 -2.0035 0.9779
-0.1866 -5.2247 -2.0035 0.9779
0.0000 -5.2281 -2.0035 0.9779
0.3730 -5.2148 -2.0035 0.9779
0.7440 -5.1748 -2.0035 0.9779
1.4729 -5.0162 -2.0034 0.9779
2.0006 -4.8298 -2.0034 0.9779
2.1717 -4.7553 -2.0034 0.9779
2.3400 -4.6747 -2.0033 0.9779
2.8262 -4.3976 -2.0033 0.9779
3.1326 -4.1847 -2.0032 0.9779
3.2799 -4.0701 -2.0032 0.9779
3.5618 -3.8256 -2.0031 0.9779
3.6960 -3.6960 -2.0030 0.9779
3.9500 -3.4227 -2.0030 0.9779
4.0696 -3.2795 -2.0029 0.9779
4.2930 -2.9807 -2.0028 0.9779
4.4945 -2.6667 -2.0027 0.9779
4.6730 -2.3391 -2.0026 0.9779
4.7534 -2.1708 -2.0026 0.9779
4.8277 -1.9997 -2.0025 0.9779
4.8959 -1.8261 -2.0025 0.9779
5.0626 -1.2921 -2.0023 0.9779
5.1416 -0.9276 -2.0022 0.9779
-1.8978 0.0000 -0.7767 0.9918
-1.9308 -0.0690 -0.7907 0.9917
-1.9570 -0.2104 -0.8055 0.9915
-1.9450 -0.2796 -0.8042 0.9915
-2.1703 -0.3916 -0.9026 0.9905
-4.7801 -1.0398 -2.0021 0.9791
-4.6940 -1.3783 -2.0022 0.9791
-4.6420 -1.5450 -2.0023 0.9791
-4.5840 -1.7097 -2.0024 0.9791
-4.5202 -1.8723 -2.0024 0.9791
-4.4506 -2.0325 -2.0025 0.9791
-4.3753 -2.1901 -2.0025 0.9791
-4.2944 -2.3449 -2.0026 0.9791
-4.0195 -2.7908 -2.0027 0.9791
-3.9174 -2.9325 -2.0027 0.9791
-3.6984 -3.2046 -2.0028 0.9791
-3.0709 -3.8107 -2.0030 0.9791
-2.7913 -4.0203 -2.0031 0.9791
-2.3457 -4.2958 -2.0032 0.9791
-2.1909 -4.3768 -2.0032 0.9791
-1.7105 -4.5861 -2.0033 0.9791
-1.5458 -4.6443 -2.0033 0.9791
-1.0405 -4.7830 -2.0033 0.9791
-0.6966 -4.8451 -2.0034 0.9791
-0.5233 -4.8669 -2.0034 0.9791
-0.3492 -4.8825 -2.0034 0.9791
-0.0000 -4.8950 -2.0034 0.9791
0.3492 -4.8825 -2.0034 0.9791
0.6966 -4.8451 -2.0034 0.9791
0.8691 -4.8172 -2.0034 0.9791
1.0405 -4.7830 -2.0034 0.9791
1.3790 -4.6966 -2.0033 0.9791
1.7105 -4.5862 -2.0033 0.9791
1.8731 -4.5221 -2.0033 0.9791
2.0333 -4.4523 -2.0033 0.9791
2.1909 -4.3769 -2.0032 0.9791
2.3457 -4.2958 -2.0032 0.9791
2.4975 -4.2093 -2.0032 0.9791
2.6461 -4.1174 -2.0032 0.9791
2.7913 -4.0203 -2.0031 0.9791
2.9330 -3.9181 -2.0031 0.9791
3.0709 -3.8108 -2.0031 0.9791
3.2049 -3.6987 -2.0030 0.9791
3.5818 -3.3347 -2.0029 0.9791
3.6984 -3.2047 -2.0029 0.9791
3.8104 -3.0706 -2.0028 0.9791
3.9175 -2.9326 -2.0028 0.9791
4.0196 -2.7908 -2.0028 0.9791
4.3754 -2.1902 -2.0026 0.9791
4.4507 -2.0326 -2.0025 0.9791
4.5203 -1.8723 -2.0025 0.9791
4.7803 -1.0399 -2.0022 0.9791
4.8142 -0.8686 -2.0021 0.9791
4.8420 -0.6962 -2.0021 0.9791
4.8790 -0.3490 -2.0020 0.9791
4.8883 -0.1746 -2.0019 0.9791
-1.5222 -0.0000 -0.6634 0.9934
-1.5284 -0.0546 -0.6665 0.9933
-1.5293 -0.1094 -0.6682 0.9933
-1.5249 -0.1639 -0.6684 0.9933
-1.5485 -0.3952 -0.6965 0.9931
-4.1794 -1.9087 -2.0024 0.9802
-3.5781 -2.8835 -2.0027 0.9801
-3.4730 -3.0094 -2.0028 0.9801
-3.3635 -3.1315 -2.0028 0.9801
-3.1316 -3.3636 -2.0029 0.9801
-2.7543 -3.6792 -2.0030 0.9801
-2.6212 -3.7753 -2.0030 0.9801
-2.0574 -4.1101 -2.0031 0.9801
-1.9094 -4.1810 -2.0032 0.9801
-1.6063 -4.3066 -2.0032 0.9801
-1.2950 -4.4103 -2.0032 0.9801
-1.1367 -4.4538 -2.0032 0.9801
-0.9771 -4.4915 -2.0033 0.9801
-0.8162 -4.5235 -2.0033 0.9801
-0.6542 -4.5498 -2.0033 0.9801
-0.3279 -4.5849 -2.0033 0.9801
0.3279 -4.5849 -2.0033 0.9801
0.4913 -4.5703 -2.0033 0.9801
0.6542 -4.5498 -2.0033 0.9801
0.8161 -4.5236 -2.0033 0.9801
1.1367 -4.4538 -2.0033 0.9801
1.2950 -4.4103 -2.0032 0.9801
1.4516 -4.3613 -2.0032 0.9801
2.0574 -4.1102 -2.0032 0.9801
2.2028 -4.0341 -2.0031 0.9801
2.3453 -3.9528 -2.0031 0.9801
2.4849 -3.8665 -2.0031 0.9801
2.6213 -3.7753 -2.0031 0.9801
2.8838 -3.5786 -2.0030 0.9801
3.1317 -3.3636 -2.0029 0.9801
3.2496 -3.2497 -2.0029 0.9801
3.3635 -3.1315 -2.0029 0.9801
3.7746 -2.6208 -2.0027 0.9801
3.8657 -2.4843 -2.0027 0.9801
3.9518 -2.3447 -2.0026 0.9801
4.1088 -2.0567 -2.0025 0.9802
4.3593 -1.4509 -2.0023 0.9802
4.4515 -1.1362 -2.0022 0.9802
4.4891 -0.9765 -2.0022 0.9802
4.5674 -0.4911 -2.0020 0.9802
4.5906 -0.1639 -2.0019 0.9802
-1.3376 -0.0478 -0.6195 0.9941
-1.3384 -0.0957 -0.6211 0.9941
-1.3351 -0.1436 -0.6215 0.9941
-1.3273 -0.1908 -0.6207 0.9941
-1.3160 -0.2374 -0.6190 0.9941
-1.3013 -0.2831 -0.6164 0.9941
-1.3241 -0.3888 -0.6388 0.9939
-1.3324 -0.4970 -0.6582 0.9938
-3.8684 -1.9364 -2.0024 0.9811
-3.7969 -2.0733 -2.0025 0.9811
-3.7206 -2.2075 -2.0025 0.9811
-3.6395 -2.3389 -2.0026 0.9811
-3.5538 -2.4674 -2.0026 0.9811
-3.4635 -2.5927 -2.0026 0.9811
-3.2698 -2.8333 -2.0027 0.9811
-3.1667 -2.9483 -2.0028 0.9811
-2.9484 -3.1668 -2.0028 0.9811
-2.8335 -3.2701 -2.0029 0.9811
-2.7151 -3.3692 -2.0029 0.9811
-2.3394 -3.6403 -2.0030 0.9811
-2.2081 -3.7215 -2.0030 0.9811
-2.0738 -3.7980 -2.0030 0.9811
-1.9370 -3.8696 -2.0031 0.9811
-1.6560 -3.9980 -2.0031 0.9811
-1.5123 -4.0546 -2.0031 0.9811
-1.3666 -4.1060 -2.0031 0.9811
-1.0703 -4.1931 -2.0032 0.9811
-0.9199 -4.2287 -2.0032 0.9811
-0.7684 -4.2589 -2.0032 0.9811
-0.6159 -4.2836 -2.0032 0.9811
-0.4626 -4.3028 -2.0032 0.9811
-0.3088 -4.3166 -2.0032 0.9811
-0.1545 -4.3249 -2.0032 0.9811
0.1545 -4.3249 -2.0032 0.9811
0.3087 -4.3166 -2.0032 0.9811
0.4626 -4.3029 -2.0032 0.9811
0.6159 -4.2836 -2.0032 0.9811
0.7684 -4.2589 -2.0032 0.9811
1.0702 -4.1932 -2.0032 0.9811
1.2192 -4.1523 -2.0032 0.9811
1.3666 -4.1061 -2.0032 0.9811
1.5123 -4.0546 -2.0031 0.9811
1.7977 -3.9364 -2.0031 0.9811
1.9370 -3.8696 -2.0031 0.9811
2.2081 -3.7215 -2.0030 0.9811
2.3395 -3.6403 -2.0030 0.9811
2.4679 -3.5544 -2.0030 0.9811
2.8336 -3.2701 -2.0029 0.9811
3.1667 -2.9483 -2.0028 0.9811
3.2699 -2.8334 -2.0028 0.9811
3.3689 -2.7148 -2.0027 0.9811
3.6396 -2.3390 -2.0026 0.9811
3.7206 -2.2076 -2.0026 0.9811
3.8685 -1.9364 -2.0025 0.9811
3.9966 -1.6554 -2.0024 0.9811
4.2265 -0.9194 -2.0022 0.9811
4.3003 -0.4623 -2.0020 0.9811
4.3139 -0.3085 -2.0020 0.9811
4.3221 -0.1544 -2.0019 0.9811
-1.1965 -0.0427 -0.5873 0.9947
-1.1791 -0.2127 -0.5877 0.9947
-1.1695 -0.2544 -0.5871 0.9947
-1.1544 -0.4305 -0.6043 0.9945
-1.1484 -0.4757 -0.6097 0.9945
-1.1400 -0.5206 -0.6148 0.9944
-1.1292 -0.5652 -0.6194 0.9944
-1.1113 -0.6068 -0.6211 0.9944
-3.5109 -2.0831 -2.0025 0.9820
-3.3535 -2.3283 -2.0026 0.9820
-3.2683 -2.4466 -2.0026 0.9820
-3.1789 -2.5617 -2.0026 0.9820
-3.0855 -2.6736 -2.0027 0.9820
-2.8870 -2.8870 -2.0027 0.9820
-2.6738 -3.0857 -2.0028 0.9820
-2.5620 -3.1792 -2.0028 0.9820
-2.3287 -3.3540 -2.0029 0.9820
-1.8278 -3.6514 -2.0030 0.9820
-1.1505 -3.9181 -2.0031 0.9820
-1.0099 -3.9567 -2.0031 0.9820
-0.8680 -3.9903 -2.0031 0.9820
-0.5812 -4.0421 -2.0031 0.9820
-0.4365 -4.0603 -2.0031 0.9820
-0.2913 -4.0732 -2.0031 0.9820
-0.0000 -4.0837 -2.0031 0.9820
0.2913 -4.0733 -2.0031 0.9820
0.4365 -4.0603 -2.0031 0.9820
0.7250 -4.0187 -2.0031 0.9820
1.0099 -3.9568 -2.0031 0.9820
1.2896 -3.8746 -2.0031 0.9820
1.4271 -3.8261 -2.0031 0.9820
1.5627 -3.7726 -2.0030 0.9820
1.6963 -3.7144 -2.0030 0.9820
2.4469 -3.2687 -2.0029 0.9820
2.6738 -3.0858 -2.0028 0.9820
2.9882 -2.7821 -2.0027 0.9820
3.0856 -2.6737 -2.0027 0.9820
3.1790 -2.5618 -2.0027 0.9820
3.3535 -2.3284 -2.0026 0.9820
3.4344 -2.2072 -2.0026 0.9820
3.6505 -1.8273 -2.0024 0.9820
3.8730 -1.2891 -2.0023 0.9820
3.9165 -1.1500 -2.0022 0.9820
3.9549 -1.0094 -2.0022 0.9820
4.0167 -0.7247 -2.0021 0.9820
4.0580 -0.4363 -2.0020 0.9820
4.0709 -0.2912 -2.0020 0.9820
-1.1055 -0.0791 -0.5750 0.9950
-1.1024 -0.1185 -0.5752 0.9950
-1.0974 -0.1578 -0.5752 0.9950
-1.0905 -0.1967 -0.5749 0.9950
-1.0814 -0.2352 -0.5741 0.9950
-1.0704 -0.2732 -0.5731 0.9950
-1.0637 -0.3123 -0.5751 0.9950
-1.0514 -0.4355 -0.5904 0.9949
-1.0298 -0.5155 -0.5974 0.9948
-0.9917 -0.5884 -0.5982 0.9948
-3.2472 -2.0869 -2.0025 0.9828
-3.1707 -2.2015 -2.0025 0.9828
-3.0902 -2.3133 -2.0026 0.9828
-2.9174 -2.5279 -2.0026 0.9828
-2.8254 -2.6305 -2.0027 0.9828
-2.7297 -2.7297 -2.0027 0.9828
-2.6306 -2.8254 -2.0027 0.9828
-2.4224 -3.0060 -2.0028 0.9828
-2.3136 -3.0906 -2.0028 0.9828
-2.2018 -3.1712 -2.0028 0.9828
-1.8503 -3.3885 -2.0029 0.9828
-1.6039 -3.5120 -2.0029 0.9828
-1.4775 -3.5670 -2.0030 0.9828
-1.0878 -3.7046 -2.0030 0.9828
-0.9549 -3.7411 -2.0030 0.9828
-0.5495 -3.8218 -2.0030 0.9828
-0.4128 -3.8390 -2.0031 0.9828
-0.1378 -3.8586 -2.0031 0.9828
0.1378 -3.8587 -2.0031 0.9828
0.4127 -3.8390 -2.0031 0.9828
0.8207 -3.7728 -2.0030 0.9828
1.0878 -3.7046 -2.0030 0.9828
1.6039 -3.5120 -2.0030 0.9828
1.7282 -3.4525 -2.0029 0.9828
1.9700 -3.3203 -2.0029 0.9828
2.0873 -3.2479 -2.0029 0.9828
2.2018 -3.1713 -2.0029 0.9828
2.4224 -3.0060 -2.0028 0.9828
2.8254 -2.6305 -2.0027 0.9828
3.0058 -2.4222 -2.0026 0.9828
3.0902 -2.3133 -2.0026 0.9828
3.2473 -2.0869 -2.0025 0.9828
3.3196 -1.9696 -2.0025 0.9828
3.5659 -1.4770 -2.0023 0.9828
3.6163 -1.3488 -2.0023 0.9828
3.7395 -0.9545 -2.0022 0.9828
3.7979 -0.6852 -2.0021 0.9828
3.8198 -0.5492 -2.0020 0.9828
-1.0270 0.0000 -0.5625 0.9953
-1.0040 -0.2184 -0.5627 0.9953
-0.9938 -0.2537 -0.5618 0.9953
-0.9084 -0.5390 -0.5785 0.9952
-0.8882 -0.5708 -0.5782 0.9952
-0.8661 -0.6013 -0.5775 0.9952
-2.7633 -2.3944 -2.0026 0.9835
-2.6761 -2.4915 -2.0026 0.9835
-2.5855 -2.5855 -2.0026 0.9835
-2.1914 -2.9273 -2.0028 0.9835
-2.0855 -3.0037 -2.0028 0.9835
-1.9770 -3.0762 -2.0028 0.9835
-1.7525 -3.2095 -2.0028 0.9835
-1.5191 -3.3264 -2.0029 0.9835
-1.3994 -3.3786 -2.0029 0.9835
-1.1549 -3.4698 -2.0029 0.9835
-1.0303 -3.5088 -2.0029 0.9835
-0.9044 -3.5434 -2.0030 0.9835
-0.7774 -3.5735 -2.0030 0.9835
-0.6493 -3.5989 -2.0030 0.9835
-0.5205 -3.6198 -2.0030 0.9835
-0.3909 -3.6361 -2.0030 0.9835
-0.2609 -3.6478 -2.0030 0.9835
0.1305 -3.6547 -2.0030 0.9835
0.3909 -3.6361 -2.0030 0.9835
0.5205 -3.6199 -2.0030 0.9835
0.6493 -3.5990 -2.0030 0.9835
0.7773 -3.5735 -2.0030 0.9835
0.9044 -3.5434 -2.0030 0.9835
1.2780 -3.4264 -2.0029 0.9835
1.6369 -3.2701 -2.0029 0.9835
1.7525 -3.2095 -2.0029 0.9835
1.8660 -3.1449 -2.0028 0.9835
1.9770 -3.0763 -2.0028 0.9835
2.0855 -3.0037 -2.0028 0.9835
2.2944 -2.8472 -2.0028 0.9835
2.5855 -2.5855 -2.0027 0.9835
2.6761 -2.4916 -2.0026 0.9835
2.8470 -2.2942 -2.0026 0.9835
2.9270 -2.1911 -2.0026 0.9835
3.0033 -2.0852 -2.0025 0.9835
3.2692 -1.6365 -2.0024 0.9835
3.3255 -1.5187 -2.0023 0.9835
3.3775 -1.3990 -2.0023 0.9835
3.5973 -0.6490 -2.0021 0.9835
3.6458 -0.2607 -2.0019 0.9835
3.6527 -0.1304 -2.0019 0.9835
-0.9576 -0.0342 -0.5532 0.9956
-0.9565 -0.0684 -0.5536 0.9956
-0.9537 -0.1025 -0.5538 0.9956
-0.9492 -0.1365 -0.5537 0.9956
-0.9430 -0.1701 -0.5532 0.9956
-0.9058 -0.3015 -0.5511 0.9956
-0.9011 -0.3361 -0.5553 0.9956
-0.8823 -0.4029 -0.5600 0.9955
-0.8534 -0.4660 -0.5614 0.9955
-0.8365 -0.4963 -0.5615 0.9955
-0.8008 -0.5560 -0.5628 0.9955
-0.7846 -0.5873 -0.5658 0.9955
-0.7671 -0.6182 -0.5688 0.9955
-2.2715 -2.6215 -2.0027 0.9841
-2.0788 -2.7769 -2.0027 0.9841
-1.7701 -2.9833 -2.0028 0.9841
-1.6625 -3.0446 -2.0028 0.9841
-1.5528 -3.1021 -2.0028 0.9841
-1.3275 -3.2050 -2.0028 0.9841
-0.8580 -3.3613 -2.0029 0.9841
-0.4937 -3.4338 -2.0029 0.9841
-0.3708 -3.4493 -2.0029 0.9841
-0.1238 -3.4670 -2.0029 0.9841
0.2475 -3.4604 -2.0029 0.9841
0.4937 -3.4339 -2.0029 0.9841
0.6159 -3.4141 -2.0029 0.9841
0.7374 -3.3899 -2.0029 0.9841
1.0955 -3.2916 -2.0029 0.9841
1.2123 -3.2504 -2.0029 0.9841
1.3275 -3.2050 -2.0029 0.9841
1.4411 -3.1555 -2.0028 0.9841
1.5528 -3.1021 -2.0028 0.9841
1.6625 -3.0447 -2.0028 0.9841
1.7701 -2.9833 -2.0028 0.9841
1.8754 -2.9182 -2.0028 0.9841
1.9784 -2.8494 -2.0028 0.9841
2.1765 -2.7009 -2.0027 0.9841
2.2716 -2.6215 -2.0027 0.9841
2.3637 -2.5387 -2.0027 0.9841
2.5387 -2.3636 -2.0026 0.9841
2.7007 -2.1764 -2.0025 0.9841
2.8490 -1.9781 -2.0025 0.9841
2.9178 -1.8751 -2.0025 0.9841
2.9828 -1.7698 -2.0024 0.9841
1.8507 -0.8452 -1.1747 0.9906
1.8620 -0.7713 -1.1636 0.9907
1.8682 -0.6968 -1.1512 0.9908
1.9616 -0.5007 -1.1688 0.9907
2.0300 -0.2919 -1.1841 0.9906
2.0359 -0.1456 -1.1784 0.9906
2.0320 -0.0726 -1.1739 0.9907
