ply
format ascii 1.0
element vertex 741
property float32 x
property float32 y
property float32 z
property float32 I
end_header
-2.1425 5.1725 -0.5375 0.9778
-2.6496 4.8525 -0.5308 0.9780
-2.1648 5.2263 -0.6720 0.9775
-2.2325 4.8885 -0.6384 0.9786
-2.4431 4.8806 -0.6483 0.9783
-2.6606 4.8725 -0.6595 0.9779
-2.1648 5.2263 -0.8015 0.9774
-2.1648 5.2263 -0.9319 0.9773
-2.4431 4.8807 -0.8991 0.9781
5.8894 7.8674 -1.8472 0.9608
5.6047 8.0722 -1.8471 0.9608
5.0142 8.4510 -1.8470 0.9608
4.7092 8.6243 -1.8469 0.9608
4.0817 8.9377 -1.8468 0.9608
3.7600 9.0775 -1.8468 0.9608
2.7680 9.4268 -1.8467 0.9608
1.0501 9.7679 -1.8466 0.9608
0.7008 9.7991 -1.8465 0.9608
0.3506 9.8178 -1.8465 0.9608
0.0000 9.8240 -1.8465 0.9608
-0.3507 9.8178 -1.8465 0.9608
-1.0502 9.7678 -1.8465 0.9608
-1.3981 9.7242 -1.8466 0.9608
-1.7443 9.6681 -1.8466 0.9608
-2.0883 9.5998 -1.8466 0.9608
-3.1027 9.3220 -1.8467 0.9608
-2.4431 4.8807 -1.0259 0.9780
-3.2578 5.0692 -1.1326 0.9758
-5.6045 8.0719 -1.8471 0.9608
-6.1664 7.6521 -1.8472 0.9608
9.4706 -0.0000 -2.0019 0.9620
9.4455 0.6756 -2.0017 0.9620
9.4148 1.0122 -2.0016 0.9620
9.3722 1.3475 -2.0015 0.9620
9.2512 2.0125 -2.0013 0.9620
9.1730 2.3413 -2.0012 0.9620
9.0832 2.6671 -2.0011 0.9620
8.9817 2.9894 -2.0010 0.9620
8.6543 3.5847 -1.9801 0.9624
8.1207 3.7086 -1.8871 0.9642
7.8197 3.9143 -1.8485 0.9649
6.8071 5.4855 -1.8480 0.9649
6.3979 5.9567 -1.8478 0.9649
5.7239 6.6057 -1.8476 0.9649
5.4843 6.8056 -1.8475 0.9649
5.2377 6.9967 -1.8475 0.9649
4.9845 7.1790 -1.8474 0.9649
4.4594 7.5158 -1.8473 0.9649
4.1881 7.6700 -1.8472 0.9649
3.3440 8.0732 -1.8471 0.9649
2.4617 8.3839 -1.8470 0.9649
2.1609 8.4663 -1.8470 0.9649
1.5514 8.5987 -1.8469 0.9649
0.6233 8.7150 -1.8469 0.9649
0.0000 8.7372 -1.8469 0.9649
-0.3118 8.7317 -1.8469 0.9649
-0.6233 8.7150 -1.8469 0.9649
-0.9340 8.6872 -1.8469 0.9649
-2.7594 8.2907 -1.8470 0.9649
-3.0536 8.1871 -1.8470 0.9649
-2.1648 5.2263 -1.1958 0.9771
-2.2325 4.8886 -1.1360 0.9783
-2.4431 4.8808 -1.1537 0.9779
-2.6607 4.8727 -1.1735 0.9776
-4.9843 7.1788 -1.8473 0.9649
-5.2375 6.9965 -1.8474 0.9649
-5.4841 6.8053 -1.8475 0.9649
-6.3976 5.9564 -1.8477 0.9649
-6.8068 5.4853 -1.8479 0.9649
-7.1814 4.9861 -1.8480 0.9649
-7.5195 4.4615 -1.8482 0.9649
-7.6743 4.1905 -1.8483 0.9649
-8.5811 3.9189 -1.9941 0.9622
-8.8684 3.3077 -2.0007 0.9620
-9.3171 1.6810 -2.0013 0.9620
8.5179 0.0000 -2.0019 0.9656
8.5120 0.3040 -2.0018 0.9656
8.2505 2.1058 -2.0012 0.9656
8.1697 2.3988 -2.0011 0.9656
8.0785 2.6888 -2.0010 0.9656
7.8654 3.2580 -2.0009 0.9656
7.7295 3.5300 -1.9971 0.9657
7.5804 3.7945 -1.9923 0.9658
7.1173 3.8863 -1.9058 0.9672
6.7639 4.0132 -1.8484 0.9682
6.6160 4.2519 -1.8483 0.9682
6.4598 4.4851 -1.8483 0.9682
4.9331 6.1216 -1.8477 0.9682
4.4836 6.4576 -1.8476 0.9682
3.5186 7.0292 -1.8474 0.9682
3.0080 7.2620 -1.8474 0.9682
1.6707 7.6801 -1.8472 0.9682
0.2805 7.8545 -1.8472 0.9682
0.0000 7.8595 -1.8472 0.9682
-1.3955 7.7347 -1.8472 0.9682
-1.6707 7.6800 -1.8472 0.9682
-1.9438 7.6156 -1.8472 0.9682
-2.2144 7.5415 -1.8472 0.9682
-2.4822 7.4577 -1.8473 0.9682
-2.4432 4.8808 -1.2828 0.9778
-2.6607 4.8727 -1.3048 0.9774
-3.0049 5.0645 -1.3840 0.9761
-3.2218 5.0132 -1.4006 0.9758
-4.9329 6.1214 -1.8477 0.9682
-5.1485 5.9416 -1.8477 0.9682
-5.3574 5.7543 -1.8478 0.9682
-5.7546 5.3578 -1.8479 0.9682
-6.1226 4.9339 -1.8480 0.9682
-7.6035 3.8060 -1.9984 0.9657
-7.8650 3.2578 -2.0008 0.9656
-8.0781 2.6886 -2.0009 0.9656
-8.1693 2.3987 -2.0010 0.9656
-8.2501 2.1057 -2.0011 0.9656
-8.3204 1.8100 -2.0012 0.9656
-8.4674 0.9103 -2.0015 0.9656
-8.5116 0.3040 -2.0017 0.9656
7.7265 0.2760 -2.0018 0.9686
7.7114 0.5515 -2.0017 0.9686
7.6864 0.8264 -2.0016 0.9686
7.6073 1.3725 -2.0015 0.9686
7.4893 1.9115 -2.0013 0.9686
7.4160 2.1775 -2.0012 0.9686
7.3333 2.4407 -2.0011 0.9686
7.2412 2.7008 -2.0010 0.9686
7.1399 2.9574 -2.0010 0.9686
6.9096 3.4587 -2.0006 0.9686
5.7148 4.2780 -1.8483 0.9709
5.3947 4.6745 -1.8482 0.9709
4.8636 5.2239 -1.8480 0.9709
4.6739 5.3940 -1.8480 0.9709
4.0702 5.8622 -1.8478 0.9709
3.6415 6.1373 -1.8477 0.9709
2.4937 6.6857 -1.8475 0.9709
2.2534 6.7704 -1.8475 0.9709
2.0103 6.8464 -1.8475 0.9709
1.5167 6.9722 -1.8474 0.9709
1.0154 7.0625 -1.8474 0.9709
0.7627 7.0942 -1.8474 0.9709
0.5090 7.1169 -1.8474 0.9709
0.2547 7.1305 -1.8474 0.9709
-0.2547 7.1305 -1.8474 0.9709
-0.7627 7.0942 -1.8474 0.9709
-1.0154 7.0625 -1.8474 0.9709
-1.2669 7.0218 -1.8474 0.9709
-2.0103 6.8463 -1.8475 0.9709
-2.2534 6.7703 -1.8475 0.9709
-2.1891 5.2849 -1.4811 0.9766
-2.4540 4.9025 -1.4195 0.9776
-2.6725 4.8944 -1.4439 0.9772
-3.2166 5.0052 -1.5405 0.9757
-4.0701 5.8621 -1.8478 0.9709
-4.2768 5.7132 -1.8478 0.9709
-4.4781 5.5570 -1.8479 0.9709
-4.6738 5.3938 -1.8479 0.9709
-4.8634 5.2237 -1.8480 0.9709
-5.0469 5.0469 -1.8480 0.9709
-5.3945 4.6743 -1.8481 0.9709
-5.8219 4.3582 -1.8830 0.9704
-6.6371 3.9379 -1.9982 0.9686
-6.9098 3.4588 -2.0007 0.9686
-7.2408 2.7007 -2.0009 0.9686
-7.3329 2.4406 -2.0010 0.9686
-7.4157 2.1774 -2.0011 0.9686
-7.5527 1.6430 -2.0013 0.9686
-7.6861 0.8263 -2.0015 0.9686
-7.7110 0.5515 -2.0016 0.9686
-7.7261 0.2759 -2.0017 0.9686
7.0301 0.7558 -2.0016 0.9710
6.9984 1.0062 -2.0016 0.9710
6.2032 3.3872 -2.0008 0.9710
5.1881 4.1808 -1.8863 0.9727
4.6164 4.6164 -1.8482 0.9732
4.2751 4.9337 -1.8481 0.9732
4.0962 5.0830 -1.8481 0.9732
3.9120 5.2259 -1.8480 0.9732
3.7230 5.3621 -1.8480 0.9732
3.5291 5.4914 -1.8479 0.9732
2.4978 6.0302 -1.8478 0.9732
2.2809 6.1154 -1.8477 0.9732
2.0612 6.1928 -1.8477 0.9732
1.3873 6.3774 -1.8476 0.9732
0.9288 6.4601 -1.8476 0.9732
0.2329 6.5223 -1.8476 0.9732
0.0000 6.5264 -1.8476 0.9732
-0.4656 6.5098 -1.8476 0.9732
-0.6976 6.4890 -1.8476 0.9732
-0.9288 6.4600 -1.8476 0.9732
-1.1588 6.4228 -1.8476 0.9732
-1.3873 6.3774 -1.8476 0.9732
-2.9814 5.0249 -1.6541 0.9760
-3.7229 5.3619 -1.8479 0.9732
-4.2750 4.9336 -1.8481 0.9732
-4.4485 4.7780 -1.8481 0.9732
-4.6163 4.6163 -1.8482 0.9732
-4.7831 4.4532 -1.8501 0.9732
-5.0926 4.4128 -1.9076 0.9724
-5.9451 3.8207 -2.0006 0.9710
-6.3201 3.1636 -2.0008 0.9710
-6.7070 2.2323 -2.0011 0.9710
-6.7826 1.9916 -2.0012 0.9710
-6.8496 1.7483 -2.0012 0.9710
-6.9079 1.5027 -2.0013 0.9710
-6.9574 1.2553 -2.0014 0.9710
-7.0298 0.7558 -2.0016 0.9710
-7.0664 0.2524 -2.0017 0.9710
6.4915 0.4643 -2.0017 0.9731
6.4039 1.1554 -2.0015 0.9731
6.3047 1.6092 -2.0014 0.9731
6.2431 1.8331 -2.0013 0.9731
6.0960 2.2737 -2.0012 0.9731
5.9178 2.7026 -2.0010 0.9731
5.8174 2.9120 -2.0010 0.9731
5.5945 3.3194 -2.0008 0.9731
5.4723 3.5168 -2.0008 0.9731
5.3420 3.7090 -2.0003 0.9732
5.0498 4.0693 -1.9948 0.9732
4.8520 4.2043 -1.9747 0.9735
4.2954 4.2953 -1.8684 0.9749
4.0947 4.3980 -1.8483 0.9752
3.9351 4.5413 -1.8482 0.9752
3.7704 4.6787 -1.8482 0.9752
3.2484 5.0546 -1.8481 0.9752
2.8794 5.2733 -1.8480 0.9752
2.4958 5.4650 -1.8479 0.9752
2.2991 5.5506 -1.8479 0.9752
2.0995 5.6290 -1.8479 0.9752
1.8972 5.7003 -1.8479 0.9752
1.6926 5.7643 -1.8478 0.9752
1.2770 5.8703 -1.8478 0.9752
0.8549 5.9463 -1.8478 0.9752
0.2144 6.0036 -1.8477 0.9752
-0.2144 6.0036 -1.8477 0.9752
-1.0666 5.9120 -1.8478 0.9752
-1.4857 5.8209 -1.8478 0.9752
-1.8972 5.7002 -1.8478 0.9752
-2.2136 4.8471 -1.6390 0.9779
-2.9711 5.0075 -1.7909 0.9759
-3.4267 4.9354 -1.8481 0.9752
-4.4583 4.4583 -1.9393 0.9740
-4.9034 4.2488 -1.9956 0.9732
-5.2070 3.8979 -2.0006 0.9731
-5.8172 2.9119 -2.0009 0.9731
-6.1732 2.0546 -2.0012 0.9731
-6.2428 1.8331 -2.0012 0.9731
-6.3045 1.6091 -2.0013 0.9731
-6.4037 1.1554 -2.0014 0.9731
-6.4411 0.9261 -2.0015 0.9731
-6.4703 0.6956 -2.0016 0.9731
6.0224 0.0000 -2.0019 0.9749
6.0183 0.2149 -2.0018 0.9749
5.9873 0.6437 -2.0017 0.9749
5.9257 1.0691 -2.0015 0.9749
5.8836 1.2799 -2.0015 0.9749
5.8340 1.4890 -2.0014 0.9749
5.7769 1.6962 -2.0013 0.9749
5.7125 1.9013 -2.0013 0.9749
5.6408 2.1039 -2.0012 0.9749
5.4760 2.5008 -2.0011 0.9749
5.3831 2.6946 -2.0010 0.9749
5.1768 3.0715 -2.0009 0.9749
4.9442 3.4328 -2.0008 0.9749
4.8184 3.6070 -2.0007 0.9749
4.5429 3.9364 -1.9981 0.9750
4.3943 4.0913 -1.9958 0.9750
4.2407 4.2407 -1.9935 0.9750
3.0060 4.6774 -1.8482 0.9768
2.8371 4.7816 -1.8481 0.9768
2.6645 4.8797 -1.8481 0.9768
2.3096 5.0572 -1.8481 0.9768
2.1275 5.1364 -1.8480 0.9768
1.7557 5.2749 -1.8480 0.9768
0.7912 5.5026 -1.8479 0.9768
0.5943 5.5273 -1.8479 0.9768
0.3966 5.5450 -1.8479 0.9768
0.1984 5.5556 -1.8479 0.9768
-0.1984 5.5556 -1.8479 0.9768
-0.3966 5.5450 -1.8479 0.9768
-0.5942 5.5273 -1.8479 0.9768
-0.9870 5.4708 -1.8479 0.9768
-1.1817 5.4322 -1.8479 0.9768
-1.5662 5.3341 -1.8479 0.9768
-1.7556 5.2749 -1.8480 0.9768
-2.2136 4.8471 -1.7713 0.9778
-2.4224 4.8394 -1.7989 0.9774
-3.0059 4.6773 -1.8481 0.9768
-3.3897 4.5282 -1.8802 0.9764
-3.8887 4.4878 -1.9739 0.9753
-4.4012 4.0977 -1.9989 0.9750
-4.5484 3.9412 -2.0006 0.9750
-4.6863 3.7765 -2.0006 0.9749
-5.0636 3.2542 -2.0008 0.9749
-5.1767 3.0714 -2.0008 0.9749
-5.2831 2.8848 -2.0009 0.9749
-5.3829 2.6945 -2.0010 0.9749
-5.4758 2.5007 -2.0010 0.9749
-5.5617 2.3037 -2.0011 0.9749
-5.8834 1.2798 -2.0014 0.9749
-5.9255 1.0691 -2.0015 0.9749
-5.9601 0.8569 -2.0015 0.9749
-5.9870 0.6437 -2.0016 0.9749
-6.0064 0.4296 -2.0017 0.9749
5.5980 0.0000 -2.0019 0.9765
5.5834 0.3993 -2.0018 0.9765
5.5654 0.5983 -2.0017 0.9765
5.5403 0.7966 -2.0016 0.9765
5.5082 0.9938 -2.0016 0.9765
5.4690 1.1897 -2.0015 0.9765
5.3100 1.7673 -2.0013 0.9765
5.2434 1.9557 -2.0013 0.9765
5.1701 2.1415 -2.0012 0.9765
5.0039 2.5048 -2.0011 0.9765
4.9111 2.6817 -2.0010 0.9765
4.7070 3.0250 -2.0009 0.9765
4.0946 3.8123 -2.0007 0.9765
3.6531 4.2159 -1.9949 0.9766
3.4970 4.3395 -1.9930 0.9766
2.8456 4.4278 -1.8822 0.9779
2.4769 4.5361 -1.8482 0.9783
2.3134 4.6215 -1.8482 0.9783
1.8061 4.8422 -1.8481 0.9783
1.6320 4.9035 -1.8481 0.9783
1.2780 5.0073 -1.8481 0.9783
0.7354 5.1151 -1.8480 0.9783
0.5524 5.1381 -1.8480 0.9783
0.0000 5.1677 -1.8480 0.9783
-0.1845 5.1644 -1.8480 0.9783
-0.3686 5.1545 -1.8480 0.9783
-0.5524 5.1381 -1.8480 0.9783
-0.7355 5.1151 -1.8480 0.9783
-0.9175 5.0856 -1.8480 0.9783
-1.6320 4.9034 -1.8481 0.9783
-1.8060 4.8421 -1.8481 0.9783
-1.9777 4.7746 -1.8481 0.9783
-2.1469 4.7010 -1.8481 0.9783
-2.4968 4.5726 -1.8631 0.9781
-2.7039 4.5571 -1.8949 0.9777
-2.9181 4.5407 -1.9302 0.9773
-3.1405 4.5232 -1.9692 0.9769
-3.6579 4.2214 -1.9975 0.9766
-3.9558 3.9558 -2.0006 0.9765
-4.0945 3.8121 -2.0006 0.9765
-4.3563 3.5105 -2.0007 0.9765
-4.5958 3.1909 -2.0008 0.9765
-4.7069 3.0250 -2.0009 0.9765
-5.0037 2.5047 -2.0010 0.9765
-5.0900 2.3245 -2.0011 0.9765
-5.1699 2.1414 -2.0011 0.9765
-5.2432 1.9556 -2.0012 0.9765
-5.3697 1.5767 -2.0013 0.9765
-5.4688 1.1897 -2.0014 0.9765
-5.5080 0.9937 -2.0015 0.9765
-5.5832 0.3993 -2.0017 0.9765
-5.5940 0.1998 -2.0017 0.9765
5.2204 0.1864 -2.0018 0.9779
5.2102 0.3727 -2.0018 0.9779
5.1701 0.7433 -2.0016 0.9779
5.1036 1.1102 -2.0015 0.9779
5.0605 1.2916 -2.0015 0.9779
4.9552 1.6493 -2.0014 0.9779
4.5831 2.5025 -2.0011 0.9779
4.4907 2.6645 -2.0010 0.9779
4.3926 2.8230 -2.0010 0.9779
4.2890 2.9779 -2.0009 0.9779
4.0654 3.2761 -2.0008 0.9779
3.9458 3.4190 -2.0008 0.9779
3.4176 3.9441 -1.9999 0.9779
3.2717 4.0599 -1.9982 0.9779
3.1221 4.1706 -1.9965 0.9779
2.8123 4.3761 -1.9934 0.9780
2.2356 4.4662 -1.9140 0.9788
2.0468 4.4819 -1.8882 0.9791
1.3588 4.6274 -1.8482 0.9796
1.1927 4.6729 -1.8482 0.9796
1.0251 4.7125 -1.8482 0.9796
0.6863 4.7736 -1.8481 0.9796
0.5155 4.7950 -1.8481 0.9796
0.1721 4.8196 -1.8481 0.9796
-0.1721 4.8195 -1.8481 0.9796
-0.5155 4.7950 -1.8481 0.9796
-1.3587 4.6274 -1.8482 0.9796
-1.5270 4.5880 -1.8530 0.9795
-2.0854 4.5663 -1.9237 0.9787
-2.2818 4.5585 -1.9535 0.9784
-2.4845 4.5501 -1.9867 0.9780
-3.1256 4.1753 -1.9987 0.9779
-3.2755 4.0647 -2.0005 0.9779
-3.4187 3.9454 -2.0006 0.9779
-3.6916 3.6915 -2.0007 0.9779
-4.1797 3.1289 -2.0008 0.9779
-4.4905 2.6644 -2.0010 0.9779
-4.5829 2.5025 -2.0010 0.9779
-4.8929 1.8250 -2.0012 0.9779
-5.0604 1.2916 -2.0014 0.9779
-5.1399 0.9273 -2.0015 0.9779
-5.1699 0.7433 -2.0016 0.9779
-5.1933 0.5583 -2.0016 0.9779
-5.2101 0.3726 -2.0017 0.9779
-5.2202 0.1864 -2.0018 0.9779
4.8913 0.0000 -2.0019 0.9791
4.8880 0.1746 -2.0018 0.9791
4.7787 1.0395 -2.0015 0.9791
4.6921 1.3777 -2.0014 0.9791
4.6398 1.5443 -2.0014 0.9791
4.2049 2.4949 -2.0011 0.9791
4.0160 2.7884 -2.0010 0.9791
3.6947 3.2015 -2.0009 0.9791
3.4567 3.4567 -2.0008 0.9791
3.3311 3.5779 -2.0007 0.9791
3.2012 3.6944 -2.0007 0.9791
3.0672 3.8062 -2.0007 0.9791
2.9294 3.9132 -2.0006 0.9791
2.7866 4.0135 -1.9997 0.9791
2.3369 4.2797 -1.9957 0.9791
2.0233 4.4304 -1.9934 0.9792
1.6746 4.4899 -1.9613 0.9795
1.4989 4.5035 -1.9426 0.9797
1.1560 4.5289 -1.9130 0.9800
0.9878 4.5407 -1.9019 0.9801
0.8208 4.5495 -1.8920 0.9802
0.6549 4.5549 -1.8834 0.9803
0.3265 4.5645 -1.8729 0.9804
0.1632 4.5686 -1.8710 0.9804
-0.3275 4.5786 -1.8787 0.9804
-0.6590 4.5832 -1.8951 0.9802
-0.8270 4.5839 -1.9064 0.9801
-0.9963 4.5798 -1.9182 0.9799
-1.3419 4.5701 -1.9494 0.9796
-1.5192 4.5645 -1.9689 0.9794
-1.7001 4.5583 -1.9911 0.9792
-1.8642 4.5005 -1.9937 0.9792
-2.0248 4.4336 -1.9949 0.9792
-2.1831 4.3612 -1.9961 0.9791
-2.3389 4.2833 -1.9974 0.9791
-2.4920 4.2001 -1.9988 0.9791
-2.7878 4.0151 -2.0006 0.9791
-3.0672 3.8062 -2.0006 0.9791
-3.2012 3.6943 -2.0007 0.9791
-3.3310 3.5778 -2.0007 0.9791
-3.4567 3.4567 -2.0007 0.9791
-3.6946 3.2014 -2.0008 0.9791
-3.8066 3.0675 -2.0008 0.9791
-3.9137 2.9298 -2.0009 0.9791
-4.1130 2.6432 -2.0010 0.9791
-4.2912 2.3432 -2.0011 0.9791
-4.3723 2.1886 -2.0011 0.9791
-4.5175 1.8712 -2.0012 0.9791
-4.7383 1.2094 -2.0014 0.9791
-4.7786 1.0395 -2.0015 0.9791
-1.9449 0.2796 -0.8042 0.9915
-1.9569 0.2104 -0.8055 0.9915
-1.9308 0.0690 -0.7907 0.9917
4.5934 0.0000 -2.0019 0.9802
4.5461 0.6537 -2.0017 0.9802
4.5198 0.8155 -2.0016 0.9802
4.4499 1.1358 -2.0015 0.9802
4.1062 2.0554 -2.0012 0.9802
3.8627 2.4824 -2.0011 0.9802
3.7715 2.6186 -2.0010 0.9802
3.6756 2.7515 -2.0010 0.9802
3.4698 3.0066 -2.0009 0.9802
3.3602 3.1284 -2.0009 0.9802
2.4818 3.8618 -2.0006 0.9802
1.7536 4.2335 -1.9971 0.9802
1.4459 4.3443 -1.9954 0.9802
1.1316 4.4337 -1.9942 0.9802
0.4880 4.5391 -1.9896 0.9803
0.1624 4.5479 -1.9833 0.9803
0.0000 4.5516 -1.9837 0.9803
-0.1627 4.5549 -1.9863 0.9803
-0.3260 4.5577 -1.9914 0.9803
-0.4888 4.5469 -1.9930 0.9802
-0.6510 4.5274 -1.9934 0.9802
-0.8123 4.5024 -1.9939 0.9802
-0.9728 4.4717 -1.9944 0.9802
-1.1321 4.4354 -1.9950 0.9802
-1.4467 4.3465 -1.9965 0.9802
-1.6016 4.2940 -1.9973 0.9802
-2.0547 4.1047 -2.0005 0.9802
-2.1999 4.0288 -2.0006 0.9802
-2.4818 3.8617 -2.0006 0.9802
-2.8805 3.5745 -2.0007 0.9802
-3.0063 3.4695 -2.0007 0.9802
-3.2462 3.2462 -2.0008 0.9802
-3.6755 2.7514 -2.0009 0.9802
-3.8626 2.4823 -2.0010 0.9802
-4.1061 2.0553 -2.0012 0.9802
-4.2424 1.7572 -2.0013 0.9802
-1.5875 0.5284 -0.7292 0.9927
-1.5707 0.4612 -0.7134 0.9929
-1.5485 0.3952 -0.6965 0.9931
-1.5214 0.3310 -0.6786 0.9932
-1.5151 0.2178 -0.6671 0.9933
-1.5249 0.1639 -0.6684 0.9933
4.3219 0.1544 -2.0018 0.9811
4.3135 0.3085 -2.0018 0.9811
4.2253 0.9192 -2.0016 0.9811
4.1488 1.2182 -2.0015 0.9811
3.9945 1.6546 -2.0013 0.9811
3.9328 1.7961 -2.0013 0.9811
3.8661 1.9352 -2.0013 0.9811
3.7945 2.0720 -2.0012 0.9811
3.7181 2.2060 -2.0012 0.9811
3.5511 2.4655 -2.0011 0.9811
3.2670 2.8308 -2.0010 0.9811
3.1638 2.9456 -2.0009 0.9811
3.0566 3.0566 -2.0009 0.9811
2.7122 3.3656 -2.0008 0.9811
2.5903 3.4602 -2.0008 0.9811
2.4651 3.5504 -2.0007 0.9811
1.9346 3.8649 -2.0006 0.9811
1.5103 4.0493 -2.0005 0.9811
1.0678 4.1836 -1.9986 0.9811
0.7663 4.2472 -1.9977 0.9812
0.6141 4.2711 -1.9974 0.9812
0.3078 4.3031 -1.9969 0.9812
0.1540 4.3112 -1.9968 0.9812
-0.0000 4.3139 -1.9969 0.9812
-0.6142 4.2721 -1.9978 0.9812
-0.7665 4.2484 -1.9983 0.9812
-0.9179 4.2194 -1.9988 0.9811
-1.0682 4.1851 -1.9993 0.9811
-1.2173 4.1457 -2.0000 0.9811
-1.5104 4.0494 -2.0006 0.9811
-1.6540 3.9929 -2.0006 0.9811
-2.5903 3.4602 -2.0007 0.9811
-2.7121 3.3656 -2.0008 0.9811
-2.8306 3.2667 -2.0008 0.9811
-2.9454 3.1636 -2.0008 0.9811
-3.1637 2.9455 -2.0009 0.9811
-3.5510 2.4655 -2.0010 0.9811
-3.6368 2.3372 -2.0011 0.9811
-3.7944 2.0719 -2.0012 0.9811
-3.8661 1.9352 -2.0012 0.9811
-1.3324 0.4970 -0.6582 0.9938
-1.3324 0.4435 -0.6500 0.9938
-1.3116 0.3348 -0.6266 0.9941
-1.3012 0.2831 -0.6164 0.9941
-1.3160 0.2374 -0.6190 0.9941
-1.3384 0.0957 -0.6211 0.9941
-1.3376 0.0478 -0.6195 0.9941
4.0784 0.1457 -2.0018 0.9820
4.0705 0.2911 -2.0018 0.9820
4.0574 0.4362 -2.0017 0.9820
4.0392 0.5807 -2.0017 0.9820
4.0158 0.7245 -2.0016 0.9820
3.9537 1.0091 -2.0015 0.9820
3.8714 1.2885 -2.0015 0.9820
3.8229 1.4259 -2.0014 0.9820
3.7695 1.5614 -2.0014 0.9820
3.7113 1.6949 -2.0013 0.9820
3.6484 1.8262 -2.0013 0.9820
3.5808 1.9552 -2.0012 0.9820
3.5086 2.0818 -2.0012 0.9820
3.3510 2.3267 -2.0011 0.9820
3.0830 2.6714 -2.0010 0.9820
2.9856 2.7797 -2.0010 0.9820
2.6712 3.0828 -2.0009 0.9820
2.4444 3.2654 -2.0008 0.9820
1.6943 3.7101 -2.0007 0.9820
1.5608 3.7682 -2.0007 0.9820
1.1491 3.9133 -2.0006 0.9820
0.4360 4.0550 -2.0006 0.9820
0.2909 4.0680 -2.0006 0.9820
0.1456 4.0758 -2.0006 0.9820
0.0000 4.0784 -2.0006 0.9820
-0.1456 4.0758 -2.0006 0.9820
-0.2910 4.0680 -2.0006 0.9820
-0.4360 4.0550 -2.0006 0.9820
-0.5804 4.0369 -2.0006 0.9820
-0.8669 3.9853 -2.0006 0.9820
-1.0086 3.9518 -2.0006 0.9820
-1.1490 3.9133 -2.0006 0.9820
-1.2880 3.8698 -2.0006 0.9820
-1.4253 3.8214 -2.0006 0.9820
-1.5608 3.7681 -2.0006 0.9820
-1.8257 3.6472 -2.0007 0.9820
-2.6712 3.0827 -2.0009 0.9820
-2.8844 2.8844 -2.0009 0.9820
-3.1763 2.5596 -2.0010 0.9820
-3.2657 2.4447 -2.0010 0.9820
-3.3510 2.3266 -2.0011 0.9820
-3.5086 2.0817 -2.0012 0.9820
-1.1113 0.6068 -0.6211 0.9944
-1.1400 0.5206 -0.6148 0.9944
-1.1543 0.4305 -0.6043 0.9945
-1.1578 0.3854 -0.5986 0.9946
-1.1590 0.3403 -0.5925 0.9946
-1.1578 0.2955 -0.5861 0.9947
-1.1695 0.2544 -0.5871 0.9947
-1.1791 0.2127 -0.5877 0.9947
-1.1867 0.1706 -0.5881 0.9947
-1.1953 0.0855 -0.5878 0.9947
-1.1964 0.0427 -0.5873 0.9947
3.8563 0.1377 -2.0018 0.9828
3.8488 0.2753 -2.0018 0.9828
3.8364 0.4125 -2.0017 0.9828
3.8192 0.5491 -2.0017 0.9828
3.7971 0.6851 -2.0016 0.9828
3.7019 1.0870 -2.0015 0.9828
3.5642 1.4764 -2.0014 0.9828
3.4497 1.7268 -2.0013 0.9828
3.3858 1.8488 -2.0013 0.9828
3.2452 2.0855 -2.0012 0.9828
3.1686 2.2000 -2.0012 0.9828
3.0880 2.3116 -2.0011 0.9828
3.0035 2.4203 -2.0011 0.9828
2.8230 2.6284 -2.0010 0.9828
2.4201 3.0032 -2.0009 0.9828
2.1997 3.1681 -2.0009 0.9828
1.9680 3.3169 -2.0008 0.9828
1.8483 3.3850 -2.0008 0.9828
1.6021 3.5081 -2.0007 0.9828
1.3477 3.6134 -2.0007 0.9828
0.8198 3.7683 -2.0007 0.9828
0.6847 3.7952 -2.0006 0.9828
0.4122 3.8343 -2.0006 0.9828
0.1376 3.8539 -2.0006 0.9828
-0.0000 3.8564 -2.0006 0.9828
-0.5488 3.8172 -2.0006 0.9828
-1.0865 3.7003 -2.0007 0.9828
-1.3477 3.6134 -2.0007 0.9828
-1.7263 3.4487 -2.0007 0.9828
-1.9680 3.3168 -2.0008 0.9828
-2.1996 3.1680 -2.0008 0.9828
-2.3113 3.0875 -2.0009 0.9828
-2.4201 3.0031 -2.0009 0.9828
-2.6282 2.8229 -2.0009 0.9828
-2.7273 2.7273 -2.0010 0.9828
-2.8230 2.6283 -2.0010 0.9828
-2.9151 2.5259 -2.0010 0.9828
-3.0879 2.3116 -2.0011 0.9828
-3.1685 2.2000 -2.0011 0.9828
-1.0118 0.5525 -0.5981 0.9948
-1.0298 0.5154 -0.5974 0.9948
-1.0576 0.3945 -0.5856 0.9949
-1.0617 0.3534 -0.5805 0.9950
-1.0814 0.2353 -0.5741 0.9950
-1.0974 0.1578 -0.5752 0.9950
-1.1024 0.1185 -0.5752 0.9950
-1.1066 0.0395 -0.5744 0.9950
3.6550 0.0000 -2.0019 0.9835
3.6175 0.5201 -2.0017 0.9835
3.5966 0.6489 -2.0017 0.9835
3.5710 0.7768 -2.0016 0.9835
3.5410 0.9038 -2.0016 0.9835
3.5064 1.0296 -2.0015 0.9835
3.4673 1.1540 -2.0015 0.9835
3.3239 1.5180 -2.0014 0.9835
3.2675 1.6356 -2.0013 0.9835
3.2071 1.7512 -2.0013 0.9835
3.1424 1.8645 -2.0013 0.9835
3.0738 1.9754 -2.0012 0.9835
2.7612 2.3926 -2.0011 0.9835
2.6740 2.4896 -2.0011 0.9835
2.5834 2.5834 -2.0010 0.9835
2.4895 2.6740 -2.0010 0.9835
2.2924 2.8446 -2.0010 0.9835
1.9751 3.0733 -2.0009 0.9835
1.8641 3.1418 -2.0009 0.9835
1.7508 3.2063 -2.0008 0.9835
1.6352 3.2667 -2.0008 0.9835
1.3980 3.3750 -2.0008 0.9835
1.0292 3.5050 -2.0007 0.9835
0.9034 3.5395 -2.0007 0.9835
0.7765 3.5694 -2.0007 0.9835
0.3905 3.6320 -2.0007 0.9835
0.2606 3.6436 -2.0007 0.9835
0.1304 3.6505 -2.0007 0.9835
0.0000 3.6529 -2.0007 0.9835
-0.2606 3.6436 -2.0007 0.9835
-0.3905 3.6320 -2.0007 0.9835
-0.5198 3.6157 -2.0007 0.9835
-0.6486 3.5948 -2.0007 0.9835
-1.2766 3.4227 -2.0008 0.9835
-1.3979 3.3749 -2.0008 0.9835
-1.5175 3.3229 -2.0008 0.9835
-1.7508 3.2062 -2.0008 0.9835
-1.8641 3.1417 -2.0008 0.9835
-2.1893 2.9246 -2.0009 0.9835
-2.2923 2.8446 -2.0009 0.9835
-2.3924 2.7610 -2.0010 0.9835
-2.5834 2.5834 -2.0010 0.9835
-2.7612 2.3926 -2.0011 0.9835
-2.8449 2.2925 -2.0011 0.9835
-0.8661 0.6013 -0.5775 0.9952
-0.9580 0.4375 -0.5768 0.9952
-0.9677 0.4008 -0.5737 0.9952
-0.9741 0.3633 -0.5694 0.9953
-0.9785 0.3257 -0.5648 0.9953
-0.9820 0.2883 -0.5606 0.9953
-1.0039 0.2184 -0.5627 0.9953
2.0320 0.0726 -1.1739 0.9907
2.0359 0.1456 -1.1784 0.9906
2.0366 0.2189 -1.1826 0.9906
2.0301 0.2919 -1.1841 0.9906
1.9883 0.4325 -1.1748 0.9906
1.9616 0.5006 -1.1688 0.9907
1.9033 0.6335 -1.1581 0.9908
3.0424 1.6613 -2.0013 0.9841
2.9811 1.7688 -2.0013 0.9841
2.8472 1.9769 -2.0012 0.9841
2.7748 2.0772 -2.0012 0.9841
2.6989 2.1749 -2.0012 0.9841
2.6195 2.2698 -2.0011 0.9841
2.5368 2.3618 -2.0011 0.9841
2.4508 2.4508 -2.0011 0.9841
2.3617 2.5367 -2.0011 0.9841
2.2697 2.6194 -2.0010 0.9841
2.1747 2.6986 -2.0010 0.9841
2.0770 2.7745 -2.0010 0.9841
1.9766 2.8469 -2.0010 0.9841
1.7684 2.9805 -2.0009 0.9841
1.2111 3.2470 -2.0008 0.9841
1.0944 3.2882 -2.0008 0.9841
0.9763 3.3251 -2.0008 0.9841
0.7366 3.3862 -2.0008 0.9841
0.4932 3.4301 -2.0008 0.9841
0.1237 3.4632 -2.0007 0.9841
0.0000 3.4654 -2.0007 0.9841
-0.1237 3.4632 -2.0007 0.9841
-0.4932 3.4301 -2.0008 0.9841
-0.6153 3.4104 -2.0008 0.9841
-0.8570 3.3578 -2.0008 0.9841
-0.9763 3.3251 -2.0008 0.9841
-1.4396 3.1524 -2.0008 0.9841
-1.5512 3.0990 -2.0009 0.9841
-1.6609 3.0417 -2.0009 0.9841
-1.7684 2.9805 -2.0009 0.9841
-1.9766 2.8468 -2.0009 0.9841
-2.0769 2.7745 -2.0010 0.9841
-2.1747 2.6986 -2.0010 0.9841
-2.3617 2.5366 -2.0010 0.9841
-2.4508 2.4508 -2.0011 0.9841
-2.5367 2.3618 -2.0011 0.9841
-0.7671 0.6182 -0.5688 0.9955
-0.8178 0.5256 -0.5613 0.9955
-0.9011 0.3361 -0.5553 0.9956
-0.9057 0.3015 -0.5511 0.9956
-0.9430 0.1701 -0.5532 0.9956
-0.9538 0.1025 -0.5538 0.9956
-0.9564 0.0684 -0.5536 0.9956
