ply
format ascii 1.0
element vertex 768
property float32 x
property float32 y
property float32 z
property float32 I
end_header
-5.4462 5.8497 1.4093 0.9681
-5.4450 5.8483 1.0406 0.9683
-5.4444 5.8477 0.8579 0.9684
-5.4437 5.8470 0.6762 0.9684
-5.4425 5.8457 0.3149 0.9685
-5.4419 5.8450 0.1349 0.9686
-5.4413 5.8444 -0.0450 0.9686
-5.4401 5.8431 -0.4049 0.9685
-5.4396 5.8425 -0.5853 0.9685
-5.4390 5.8419 -0.7663 0.9684
-5.4384 5.8413 -0.9480 0.9684
-5.3600 5.7571 -1.2958 0.9686
6.1667 7.6524 -1.8473 0.9608
5.8894 7.8673 -1.8472 0.9608
5.3128 8.2668 -1.8471 0.9608
5.0142 8.4509 -1.8470 0.9608
4.7092 8.6242 -1.8469 0.9608
4.3982 8.7865 -1.8469 0.9608
3.4335 9.2057 -1.8467 0.9608
2.4297 9.5194 -1.8466 0.9608
1.3981 9.7242 -1.8466 0.9608
0.7008 9.7990 -1.8465 0.9608
0.3506 9.8177 -1.8465 0.9608
-1.0501 9.7677 -1.8465 0.9608
-1.3981 9.7241 -1.8465 0.9608
-3.1026 9.3219 -1.8467 0.9608
-3.4335 9.2055 -1.8467 0.9608
-3.7599 9.0772 -1.8467 0.9608
-4.3981 8.7863 -1.8468 0.9608
-4.7090 8.6239 -1.8469 0.9608
-5.0140 8.4506 -1.8469 0.9608
-5.3126 8.2665 -1.8470 0.9608
-6.1664 7.6521 -1.8472 0.9608
-6.4359 7.4274 -1.8472 0.9608
-5.3433 5.7390 -1.4739 0.9686
9.4641 0.3380 -2.0018 0.9620
9.3722 1.3475 -2.0015 0.9620
8.9817 2.9894 -2.0009 0.9620
8.8518 3.3016 -1.9970 0.9621
8.6384 3.5781 -1.9764 0.9625
7.1817 4.9864 -1.8481 0.9649
6.6067 5.7247 -1.8479 0.9649
5.7238 6.6057 -1.8476 0.9649
4.9844 7.1790 -1.8474 0.9649
4.4593 7.5158 -1.8473 0.9649
4.1881 7.6700 -1.8472 0.9649
3.0537 8.1872 -1.8471 0.9649
2.7594 8.2908 -1.8470 0.9649
2.4617 8.3839 -1.8470 0.9649
1.8573 8.5379 -1.8469 0.9649
0.9340 8.6872 -1.8469 0.9649
-1.2434 8.6483 -1.8469 0.9649
-1.5513 8.5985 -1.8469 0.9649
-1.8573 8.5378 -1.8469 0.9649
-3.0536 8.1870 -1.8470 0.9649
-3.6300 7.9486 -1.8471 0.9649
-5.2375 6.9965 -1.8474 0.9649
-5.4840 6.8053 -1.8474 0.9649
-5.7236 6.6054 -1.8475 0.9649
-5.3264 5.7210 -1.6523 0.9685
-6.1807 6.1807 -1.8476 0.9649
-6.3976 5.9564 -1.8477 0.9649
-6.9986 5.2390 -1.8479 0.9649
-7.6742 4.1904 -1.8483 0.9649
-8.1034 4.0563 -1.9155 0.9636
-8.5798 3.9183 -1.9938 0.9622
-8.8683 3.3077 -2.0007 0.9620
-8.9812 2.9892 -2.0008 0.9620
-9.0826 2.6669 -2.0009 0.9620
-9.3171 1.6810 -2.0012 0.9620
-9.3717 1.3475 -2.0014 0.9620
-9.4143 1.0121 -2.0015 0.9620
-9.4635 0.3380 -2.0017 0.9620
8.4954 0.6076 -2.0017 0.9656
8.4678 0.9104 -2.0016 0.9656
8.3208 1.8101 -2.0013 0.9656
8.2505 2.1058 -2.0012 0.9656
8.0785 2.6888 -2.0010 0.9656
7.9770 2.9753 -2.0009 0.9656
7.8654 3.2579 -2.0009 0.9656
7.0994 3.8766 -1.9011 0.9673
6.7638 4.0132 -1.8484 0.9682
6.4598 4.4851 -1.8483 0.9682
6.1229 4.9341 -1.8481 0.9682
5.7549 5.3580 -1.8480 0.9682
4.9331 6.1216 -1.8477 0.9682
4.4836 6.4575 -1.8476 0.9682
3.5186 7.0292 -1.8474 0.9682
3.2654 7.1501 -1.8474 0.9682
3.0080 7.2620 -1.8474 0.9682
2.7468 7.3646 -1.8473 0.9682
1.9438 7.6157 -1.8472 0.9682
1.3955 7.7347 -1.8472 0.9682
1.1185 7.7796 -1.8472 0.9682
0.5607 7.8394 -1.8472 0.9682
-0.2805 7.8544 -1.8471 0.9682
-0.5607 7.8394 -1.8471 0.9682
-0.8401 7.8144 -1.8472 0.9682
-1.1185 7.7795 -1.8472 0.9682
-1.3955 7.7347 -1.8472 0.9682
-1.6707 7.6800 -1.8472 0.9682
-1.9437 7.6156 -1.8472 0.9682
-2.2144 7.5414 -1.8472 0.9682
-2.7468 7.3644 -1.8473 0.9682
-3.0080 7.2618 -1.8473 0.9682
-3.2653 7.1500 -1.8474 0.9682
-3.5185 7.0290 -1.8474 0.9682
-3.7672 6.8991 -1.8474 0.9682
-4.4834 6.4574 -1.8476 0.9682
-4.7112 6.2934 -1.8476 0.9682
-4.9329 6.1214 -1.8477 0.9682
-5.1485 5.9416 -1.8477 0.9682
-5.3096 5.7029 -1.8313 0.9685
-5.9424 5.1491 -1.8480 0.9682
-6.4595 4.4849 -1.8482 0.9682
-6.6298 4.2607 -1.8522 0.9681
-7.0650 4.1919 -1.9307 0.9668
-7.4467 4.0662 -1.9940 0.9657
-7.6029 3.8057 -1.9982 0.9657
-7.8650 3.2578 -2.0008 0.9656
-8.0781 2.6886 -2.0009 0.9656
-8.1693 2.3987 -2.0010 0.9656
-8.3800 1.5119 -2.0013 0.9656
-8.4674 0.9103 -2.0015 0.9656
-8.4949 0.6076 -2.0016 0.9656
7.7265 0.2759 -2.0018 0.9686
7.6864 0.8264 -2.0016 0.9686
7.6517 1.1002 -2.0015 0.9686
7.4160 2.1775 -2.0012 0.9686
7.3333 2.4407 -2.0011 0.9686
7.2412 2.7008 -2.0010 0.9686
7.0295 3.2103 -2.0009 0.9686
6.7685 3.6959 -1.9967 0.9686
6.6205 3.9281 -1.9932 0.9687
6.2447 4.0132 -1.9220 0.9698
5.8770 4.0804 -1.8525 0.9709
5.7148 4.2780 -1.8483 0.9709
5.5582 4.4791 -1.8483 0.9709
5.3946 4.6745 -1.8482 0.9709
5.0471 5.0471 -1.8481 0.9709
4.8636 5.2239 -1.8480 0.9709
4.4783 5.5572 -1.8479 0.9709
4.0702 5.8622 -1.8478 0.9709
3.4200 6.2632 -1.8477 0.9709
3.1942 6.3812 -1.8476 0.9709
2.9643 6.4910 -1.8476 0.9709
2.7307 6.5925 -1.8476 0.9709
2.4936 6.6857 -1.8475 0.9709
2.2534 6.7703 -1.8475 0.9709
2.0103 6.8464 -1.8475 0.9709
1.7646 6.9137 -1.8475 0.9709
1.5167 6.9722 -1.8474 0.9709
1.2669 7.0218 -1.8474 0.9709
1.0154 7.0625 -1.8474 0.9709
0.5090 7.1168 -1.8474 0.9709
0.2547 7.1304 -1.8474 0.9709
0.0000 7.1350 -1.8474 0.9709
-0.2547 7.1304 -1.8474 0.9709
-1.2668 7.0217 -1.8474 0.9709
-1.5167 6.9721 -1.8474 0.9709
-1.7646 6.9136 -1.8474 0.9709
-2.0102 6.8463 -1.8475 0.9709
-2.2533 6.7702 -1.8475 0.9709
-2.4936 6.6856 -1.8475 0.9709
-3.6413 6.1372 -1.8477 0.9709
-4.0701 5.8620 -1.8478 0.9709
-4.2768 5.7132 -1.8478 0.9709
-4.4781 5.5570 -1.8478 0.9709
-4.8634 5.2237 -1.8480 0.9709
-5.0469 5.0469 -1.8480 0.9709
-5.5580 4.4789 -1.8482 0.9709
-6.1823 4.2924 -1.9487 0.9694
-6.4797 4.1642 -1.9943 0.9687
-6.6361 3.9374 -1.9979 0.9686
-6.7817 3.7031 -2.0006 0.9686
-6.9098 3.4588 -2.0007 0.9686
-7.0292 3.2101 -2.0008 0.9686
-7.1395 2.9573 -2.0009 0.9686
-7.4157 2.1774 -2.0011 0.9686
-7.4890 1.9115 -2.0012 0.9686
-7.5527 1.6430 -2.0013 0.9686
-7.6861 0.8263 -2.0015 0.9686
-7.7110 0.5515 -2.0016 0.9686
7.0715 0.0000 -2.0019 0.9710
7.0667 0.2524 -2.0018 0.9710
7.0301 0.7558 -2.0016 0.9710
6.9577 1.2553 -2.0015 0.9710
6.9082 1.5028 -2.0014 0.9710
6.8499 1.7483 -2.0013 0.9710
6.7072 2.2324 -2.0012 0.9710
6.3203 3.1637 -2.0009 0.9710
6.0763 3.6052 -2.0001 0.9711
5.9341 3.8136 -1.9969 0.9711
5.7851 4.0167 -1.9938 0.9711
5.1740 4.1695 -1.8811 0.9728
4.4486 4.7781 -1.8482 0.9732
4.2751 4.9337 -1.8481 0.9732
4.0962 5.0830 -1.8481 0.9732
3.9120 5.2259 -1.8480 0.9732
3.7229 5.3620 -1.8480 0.9732
3.3308 5.6137 -1.8479 0.9732
3.1282 5.7289 -1.8478 0.9732
2.4978 6.0301 -1.8477 0.9732
2.2809 6.1154 -1.8477 0.9732
2.0612 6.1928 -1.8477 0.9732
1.3873 6.3774 -1.8476 0.9732
1.1588 6.4228 -1.8476 0.9732
0.9288 6.4600 -1.8476 0.9732
0.4656 6.5098 -1.8476 0.9732
-0.9288 6.4600 -1.8476 0.9732
-1.1588 6.4228 -1.8476 0.9732
-1.3873 6.3774 -1.8476 0.9732
-1.6141 6.3238 -1.8476 0.9732
-2.4977 6.0300 -1.8477 0.9732
-3.1282 5.7288 -1.8478 0.9732
-3.7228 5.3619 -1.8479 0.9732
-3.9119 5.2257 -1.8480 0.9732
-4.0961 5.0829 -1.8480 0.9732
-4.2750 4.9336 -1.8480 0.9732
-4.4485 4.7780 -1.8481 0.9732
-4.6163 4.6163 -1.8481 0.9732
-4.7782 4.4487 -1.8482 0.9732
-5.0780 4.4001 -1.9022 0.9725
-5.7972 4.0251 -1.9980 0.9711
-6.2029 3.3870 -2.0007 0.9710
-6.3201 3.1636 -2.0008 0.9710
-6.5301 2.7049 -2.0009 0.9710
-6.6227 2.4701 -2.0010 0.9710
-6.7826 1.9916 -2.0012 0.9710
-6.8496 1.7483 -2.0012 0.9710
-6.9079 1.5027 -2.0013 0.9710
-7.0298 0.7558 -2.0016 0.9710
-7.0526 0.5044 -2.0016 0.9710
-7.0664 0.2524 -2.0017 0.9710
6.4705 0.6957 -2.0017 0.9731
6.4413 0.9261 -2.0016 0.9731
6.4039 1.1554 -2.0015 0.9731
6.3584 1.3832 -2.0014 0.9731
6.0107 2.4897 -2.0011 0.9731
5.9178 2.7026 -2.0010 0.9731
5.8174 2.9120 -2.0010 0.9731
5.5945 3.3193 -2.0008 0.9731
5.4723 3.5168 -2.0008 0.9731
5.3414 3.7086 -2.0001 0.9732
4.5521 4.2382 -1.9130 0.9743
4.2786 4.2786 -1.8611 0.9750
3.9350 4.5413 -1.8482 0.9752
3.7703 4.6787 -1.8482 0.9752
2.0995 5.6290 -1.8479 0.9752
1.8972 5.7003 -1.8478 0.9752
1.2770 5.8702 -1.8478 0.9752
1.0667 5.9120 -1.8478 0.9752
0.4286 5.9921 -1.8477 0.9752
0.2144 6.0035 -1.8477 0.9752
-0.0000 6.0074 -1.8477 0.9752
-0.4286 5.9921 -1.8477 0.9752
-0.8549 5.9462 -1.8477 0.9752
-1.4857 5.8209 -1.8478 0.9752
-1.6925 5.7642 -1.8478 0.9752
-2.0995 5.6289 -1.8478 0.9752
-2.2991 5.5505 -1.8479 0.9752
-2.4958 5.4649 -1.8479 0.9752
-2.6893 5.3725 -1.8479 0.9752
-2.8793 5.2731 -1.8479 0.9752
-3.0658 5.1671 -1.8480 0.9752
-3.7702 4.6786 -1.8481 0.9752
-3.9349 4.5411 -1.8482 0.9752
-4.1670 4.4757 -1.8809 0.9747
-4.9028 4.2483 -1.9954 0.9732
-5.0583 4.0762 -1.9981 0.9732
-5.8172 2.9119 -2.0009 0.9731
-5.9176 2.7025 -2.0009 0.9731
-6.0105 2.4896 -2.0010 0.9731
-6.0957 2.2736 -2.0011 0.9731
-6.4037 1.1554 -2.0014 0.9731
-6.4411 0.9261 -2.0015 0.9731
-6.4912 0.4643 -2.0017 0.9731
-6.5039 0.2323 -2.0017 0.9731
6.0224 0.0000 -2.0019 0.9749
6.0067 0.4296 -2.0017 0.9749
5.9603 0.8570 -2.0016 0.9749
5.8836 1.2799 -2.0015 0.9749
5.8339 1.4890 -2.0014 0.9749
5.7769 1.6963 -2.0013 0.9749
5.7125 1.9013 -2.0013 0.9749
5.6408 2.1039 -2.0012 0.9749
5.5619 2.3038 -2.0011 0.9749
5.3831 2.6946 -2.0010 0.9749
4.8184 3.6070 -2.0007 0.9749
4.6857 3.7759 -2.0003 0.9750
4.5423 3.9359 -1.9979 0.9750
4.3937 4.0907 -1.9955 0.9750
3.7517 4.3297 -1.9044 0.9761
3.5124 4.3586 -1.8607 0.9767
3.3321 4.4512 -1.8483 0.9768
3.0060 4.6774 -1.8482 0.9768
2.8371 4.7816 -1.8481 0.9768
2.4886 4.9716 -1.8481 0.9768
2.3096 5.0572 -1.8481 0.9768
2.1275 5.1363 -1.8480 0.9768
1.9428 5.2090 -1.8480 0.9768
1.7557 5.2749 -1.8480 0.9768
1.5663 5.3342 -1.8480 0.9768
1.3749 5.3866 -1.8479 0.9768
0.9871 5.4709 -1.8479 0.9768
0.5942 5.5273 -1.8479 0.9768
0.3966 5.5450 -1.8479 0.9768
0.0000 5.5591 -1.8479 0.9768
-0.7911 5.5026 -1.8479 0.9768
-1.5662 5.3341 -1.8479 0.9768
-1.7556 5.2748 -1.8480 0.9768
-1.9428 5.2089 -1.8480 0.9768
-2.1275 5.1363 -1.8480 0.9768
-2.3095 5.0571 -1.8480 0.9768
-2.6645 4.8796 -1.8481 0.9768
-2.8370 4.7815 -1.8481 0.9768
-3.3796 4.5146 -1.8746 0.9765
-3.6221 4.4948 -1.9188 0.9760
-3.8764 4.4736 -1.9676 0.9754
-4.2466 4.2466 -1.9963 0.9750
-4.4007 4.0972 -1.9987 0.9750
-4.8183 3.6069 -2.0007 0.9749
-5.0636 3.2542 -2.0008 0.9749
-5.1766 3.0714 -2.0008 0.9749
-5.2831 2.8848 -2.0009 0.9749
-5.6406 2.1038 -2.0011 0.9749
-5.7123 1.9012 -2.0012 0.9749
-5.8337 1.4890 -2.0013 0.9749
-5.9601 0.8569 -2.0015 0.9749
-5.9871 0.6437 -2.0016 0.9749
-6.0181 0.2149 -2.0017 0.9749
5.5980 0.0000 -2.0019 0.9765
5.5942 0.1998 -2.0018 0.9765
5.5654 0.5983 -2.0017 0.9765
5.4229 1.3841 -2.0014 0.9765
5.1701 2.1415 -2.0012 0.9765
5.0038 2.5047 -2.0011 0.9765
4.7071 3.0250 -2.0009 0.9765
4.2282 3.6637 -2.0007 0.9765
3.9521 3.9521 -1.9987 0.9765
3.4941 4.3359 -1.9914 0.9766
3.2665 4.3635 -1.9492 0.9771
2.8368 4.4142 -1.8764 0.9780
2.4769 4.5361 -1.8482 0.9783
1.9777 4.7747 -1.8481 0.9783
1.0985 5.0497 -1.8480 0.9783
0.9175 5.0857 -1.8480 0.9783
0.5524 5.1381 -1.8480 0.9783
0.1844 5.1644 -1.8480 0.9783
0.0000 5.1677 -1.8480 0.9783
-0.1845 5.1644 -1.8480 0.9783
-0.9175 5.0856 -1.8480 0.9783
-1.0985 5.0497 -1.8480 0.9783
-1.2780 5.0073 -1.8480 0.9783
-1.4560 4.9585 -1.8481 0.9783
-1.6320 4.9034 -1.8481 0.9783
-1.8060 4.8421 -1.8481 0.9783
-2.3133 4.6215 -1.8482 0.9783
-2.4885 4.5574 -1.8569 0.9782
-2.6963 4.5445 -1.8897 0.9778
-4.2281 3.6637 -2.0007 0.9765
-4.5958 3.1909 -2.0008 0.9765
-4.9110 2.6816 -2.0010 0.9765
-5.0037 2.5047 -2.0010 0.9765
-5.1699 2.1414 -2.0011 0.9765
-5.2432 1.9556 -2.0012 0.9765
-5.3098 1.7673 -2.0012 0.9765
-5.4227 1.3841 -2.0014 0.9765
-5.4688 1.1897 -2.0014 0.9765
5.2238 0.0000 -2.0019 0.9779
5.2204 0.1864 -2.0018 0.9779
5.2102 0.3726 -2.0018 0.9779
5.1935 0.5584 -2.0017 0.9779
5.0605 1.2916 -2.0015 0.9779
4.4907 2.6644 -2.0010 0.9779
4.2889 2.9779 -2.0009 0.9779
4.1798 3.1290 -2.0009 0.9779
3.9458 3.4190 -2.0008 0.9779
3.6916 3.6916 -2.0007 0.9779
3.5575 3.8210 -2.0007 0.9779
3.2714 4.0595 -1.9979 0.9779
2.8120 4.3755 -1.9932 0.9780
2.2288 4.4526 -1.9081 0.9789
1.8567 4.4826 -1.8593 0.9794
1.6854 4.5188 -1.8482 0.9796
1.5231 4.5760 -1.8482 0.9796
0.8563 4.7460 -1.8481 0.9796
0.6863 4.7736 -1.8481 0.9796
0.5155 4.7950 -1.8481 0.9796
0.1721 4.8195 -1.8481 0.9796
0.0000 4.8226 -1.8481 0.9796
-0.1721 4.8195 -1.8481 0.9796
-0.6863 4.7735 -1.8481 0.9796
-1.0251 4.7125 -1.8481 0.9796
-1.5235 4.5773 -1.8487 0.9795
-1.8884 4.5589 -1.8910 0.9791
-2.4762 4.5348 -1.9800 0.9781
-2.8148 4.3799 -1.9952 0.9779
-3.1252 4.1748 -1.9985 0.9779
-3.2751 4.0642 -2.0003 0.9779
-3.4187 3.9453 -2.0006 0.9779
-3.6916 3.6916 -2.0006 0.9779
-3.9457 3.4189 -2.0007 0.9779
-4.2888 2.9778 -2.0009 0.9779
-4.3925 2.8229 -2.0009 0.9779
-4.4905 2.6644 -2.0010 0.9779
-4.5829 2.5025 -2.0010 0.9779
-4.7500 2.1692 -2.0011 0.9779
-4.8245 1.9984 -2.0012 0.9779
-4.8929 1.8250 -2.0012 0.9779
-4.9551 1.6492 -2.0013 0.9779
-5.1034 1.1102 -2.0015 0.9779
-5.1933 0.5583 -2.0016 0.9779
-5.2101 0.3726 -2.0017 0.9779
-5.2202 0.1864 -2.0017 0.9779
4.8880 0.1746 -2.0018 0.9791
4.8785 0.3489 -2.0018 0.9791
4.8409 0.6960 -2.0017 0.9791
4.7787 1.0395 -2.0015 0.9791
4.7384 1.2094 -2.0015 0.9791
4.6398 1.5443 -2.0014 0.9791
4.3724 2.1886 -2.0012 0.9791
4.2914 2.3433 -2.0011 0.9791
4.2049 2.4949 -2.0011 0.9791
4.0160 2.7884 -2.0010 0.9791
3.9138 2.9299 -2.0009 0.9791
3.8067 3.0676 -2.0009 0.9791
3.6947 3.2015 -2.0008 0.9791
3.4567 3.4567 -2.0008 0.9791
3.3311 3.5778 -2.0007 0.9791
3.0672 3.8062 -2.0007 0.9791
2.6394 4.1069 -1.9980 0.9791
2.3366 4.2792 -1.9954 0.9791
2.1811 4.3572 -1.9942 0.9792
1.8480 4.4614 -1.9764 0.9793
1.3217 4.5015 -1.9201 0.9799
1.1520 4.5136 -1.9065 0.9801
0.9844 4.5251 -1.8953 0.9802
0.6530 4.5414 -1.8778 0.9804
-0.4909 4.5658 -1.8794 0.9803
-0.6567 4.5677 -1.8887 0.9803
-0.8244 4.5692 -1.9002 0.9801
-1.1643 4.5618 -1.9269 0.9799
-1.5146 4.5505 -1.9629 0.9795
-2.1828 4.3606 -1.9958 0.9791
-2.3386 4.2827 -1.9971 0.9791
-2.4917 4.1995 -1.9985 0.9791
-2.6419 4.1109 -2.0000 0.9791
-2.7878 4.0151 -2.0005 0.9791
-2.9293 3.9131 -2.0006 0.9791
-3.2011 3.6943 -2.0006 0.9791
-3.3310 3.5778 -2.0007 0.9791
-3.5779 3.3311 -2.0008 0.9791
-3.6946 3.2014 -2.0008 0.9791
-3.8066 3.0675 -2.0008 0.9791
-3.9137 2.9298 -2.0009 0.9791
-4.3722 2.1886 -2.0011 0.9791
-4.4477 2.0312 -2.0012 0.9791
-4.6397 1.5442 -2.0013 0.9791
-4.6920 1.3777 -2.0014 0.9791
-4.7383 1.2094 -2.0014 0.9791
-4.7786 1.0395 -2.0015 0.9791
-1.9449 0.2796 -0.8042 0.9915
-1.9524 0.1396 -0.8011 0.9916
-1.9308 0.0690 -0.7907 0.9917
4.5814 0.3277 -2.0018 0.9802
4.5667 0.4910 -2.0017 0.9802
4.5462 0.6536 -2.0017 0.9802
4.5198 0.8155 -2.0016 0.9802
4.4877 0.9762 -2.0016 0.9802
4.4499 1.1358 -2.0015 0.9802
4.4064 1.2938 -2.0015 0.9802
4.3573 1.4503 -2.0014 0.9802
4.3027 1.6048 -2.0014 0.9802
4.1770 1.9076 -2.0013 0.9802
4.0301 2.2006 -2.0012 0.9802
3.9489 2.3430 -2.0011 0.9802
3.6756 2.7515 -2.0010 0.9802
3.4698 3.0066 -2.0009 0.9802
3.3602 3.1284 -2.0009 0.9802
3.2463 3.2463 -2.0008 0.9802
3.1283 3.3601 -2.0008 0.9802
3.0063 3.4695 -2.0008 0.9802
2.8806 3.5746 -2.0007 0.9802
2.3424 3.9479 -2.0006 0.9802
2.0529 4.1012 -1.9988 0.9802
1.6005 4.2910 -1.9959 0.9802
1.4457 4.3437 -1.9952 0.9802
0.9723 4.4695 -1.9935 0.9802
0.6500 4.5206 -1.9904 0.9803
0.4865 4.5254 -1.9836 0.9803
0.0000 4.5371 -1.9773 0.9804
-0.1621 4.5401 -1.9799 0.9804
-0.3249 4.5427 -1.9849 0.9803
-0.6509 4.5268 -1.9931 0.9802
-1.2900 4.3932 -1.9954 0.9802
-1.4465 4.3460 -1.9962 0.9802
-1.6014 4.2935 -1.9971 0.9802
-1.9055 4.1725 -1.9991 0.9802
-2.0544 4.1042 -2.0003 0.9802
-2.3423 3.9478 -2.0006 0.9802
-2.6181 3.7707 -2.0006 0.9802
-3.0063 3.4695 -2.0007 0.9802
-3.4697 3.0065 -2.0009 0.9802
-3.5749 2.8808 -2.0009 0.9802
-4.1061 2.0553 -2.0012 0.9802
-4.1769 1.9075 -2.0012 0.9802
-4.2424 1.7573 -2.0013 0.9802
-1.5984 0.5962 -0.7435 0.9926
-1.5707 0.4612 -0.7134 0.9929
-1.5001 0.2707 -0.6643 0.9934
-1.5151 0.2178 -0.6671 0.9933
-1.5293 0.1094 -0.6682 0.9933
4.3248 -0.0000 -2.0019 0.9811
4.3219 0.1544 -2.0018 0.9811
4.3135 0.3085 -2.0018 0.9811
4.2997 0.4623 -2.0017 0.9811
4.2803 0.6154 -2.0017 0.9811
4.2555 0.7678 -2.0016 0.9811
4.2253 0.9192 -2.0016 0.9811
4.1897 1.0694 -2.0015 0.9811
4.1488 1.2182 -2.0015 0.9811
4.1026 1.3655 -2.0014 0.9811
4.0511 1.5110 -2.0014 0.9811
3.9945 1.6546 -2.0013 0.9811
3.9328 1.7961 -2.0013 0.9811
3.8661 1.9352 -2.0013 0.9811
3.7945 2.0719 -2.0012 0.9811
3.6369 2.3373 -2.0011 0.9811
3.3660 2.7125 -2.0010 0.9811
3.0566 3.0566 -2.0009 0.9811
2.9455 3.1637 -2.0009 0.9811
2.8306 3.2667 -2.0008 0.9811
2.7122 3.3656 -2.0008 0.9811
2.5903 3.4602 -2.0008 0.9811
2.3368 3.6361 -2.0007 0.9811
2.2055 3.7171 -2.0007 0.9811
2.0714 3.7934 -2.0007 0.9811
1.7954 3.9315 -2.0006 0.9811
1.6540 3.9930 -2.0006 0.9811
1.3641 4.0986 -1.9995 0.9811
1.2166 4.1433 -1.9988 0.9811
1.0676 4.1830 -1.9983 0.9812
0.9175 4.2175 -1.9979 0.9812
0.6140 4.2706 -1.9971 0.9812
0.4611 4.2892 -1.9968 0.9812
0.3077 4.3025 -1.9967 0.9812
0.1540 4.3106 -1.9966 0.9812
-0.7664 4.2478 -1.9980 0.9812
-1.0681 4.1846 -1.9991 0.9811
-1.2171 4.1452 -1.9997 0.9811
-1.7954 3.9314 -2.0006 0.9811
-2.0713 3.7934 -2.0006 0.9811
-2.4651 3.5504 -2.0007 0.9811
-2.5903 3.4602 -2.0007 0.9811
-2.9454 3.1636 -2.0008 0.9811
-3.0565 3.0565 -2.0009 0.9811
-3.5510 2.4655 -2.0010 0.9811
-3.6368 2.3372 -2.0011 0.9811
-3.8660 1.9352 -2.0012 0.9811
-1.3151 0.6006 -0.6692 0.9936
-1.3263 0.5494 -0.6645 0.9937
-1.3324 0.4970 -0.6582 0.9938
-1.3241 0.3888 -0.6388 0.9939
-1.3160 0.2374 -0.6190 0.9941
-1.3273 0.1908 -0.6207 0.9941
-1.3351 0.1435 -0.6215 0.9941
-1.3376 0.0478 -0.6195 0.9941
4.0811 -0.0000 -2.0019 0.9820
4.0705 0.2911 -2.0018 0.9820
4.0574 0.4362 -2.0017 0.9820
4.0392 0.5807 -2.0017 0.9820
3.9537 1.0091 -2.0015 0.9820
3.8229 1.4258 -2.0014 0.9820
3.7695 1.5614 -2.0014 0.9820
3.6483 1.8262 -2.0013 0.9820
3.5808 1.9552 -2.0012 0.9820
3.5086 2.0818 -2.0012 0.9820
3.3510 2.3267 -2.0011 0.9820
2.9856 2.7797 -2.0010 0.9820
2.7796 2.9855 -2.0009 0.9820
2.6712 3.0828 -2.0009 0.9820
2.5594 3.1761 -2.0008 0.9820
2.4444 3.2654 -2.0008 0.9820
1.9547 3.5798 -2.0007 0.9820
1.8257 3.6473 -2.0007 0.9820
1.6943 3.7101 -2.0007 0.9820
1.2880 3.8698 -2.0006 0.9820
1.0086 3.9518 -2.0006 0.9820
0.8669 3.9852 -2.0006 0.9820
0.7241 4.0137 -2.0006 0.9820
0.5804 4.0369 -2.0006 0.9820
0.4360 4.0550 -2.0006 0.9820
0.1456 4.0758 -2.0005 0.9820
-0.1456 4.0758 -2.0005 0.9820
-0.2909 4.0680 -2.0005 0.9820
-0.4360 4.0550 -2.0006 0.9820
-0.5804 4.0369 -2.0006 0.9820
-0.7241 4.0136 -2.0006 0.9820
-0.8669 3.9852 -2.0006 0.9820
-1.0086 3.9518 -2.0006 0.9820
-1.4253 3.8214 -2.0006 0.9820
-1.5608 3.7681 -2.0006 0.9820
-1.9547 3.5798 -2.0007 0.9820
-2.3262 3.3504 -2.0008 0.9820
-2.5594 3.1760 -2.0008 0.9820
-2.6712 3.0827 -2.0008 0.9820
-2.7795 2.9854 -2.0009 0.9820
-2.8844 2.8844 -2.0009 0.9820
-2.9855 2.7796 -2.0009 0.9820
-3.0829 2.6713 -2.0010 0.9820
-3.2657 2.4447 -2.0010 0.9820
-3.3510 2.3266 -2.0011 0.9820
-3.5085 2.0817 -2.0012 0.9820
-1.1113 0.6068 -0.6211 0.9944
-1.1400 0.5206 -0.6148 0.9944
-1.1543 0.4305 -0.6043 0.9945
-1.1579 0.3854 -0.5986 0.9946
-1.1590 0.3403 -0.5925 0.9946
-1.1791 0.2127 -0.5877 0.9947
-1.1867 0.1706 -0.5881 0.9947
-1.1921 0.1282 -0.5881 0.9947
3.8563 0.1377 -2.0018 0.9828
3.8488 0.2753 -2.0018 0.9828
3.8364 0.4125 -2.0017 0.9828
3.8192 0.5491 -2.0017 0.9828
3.7971 0.6851 -2.0016 0.9828
3.7701 0.8201 -2.0016 0.9828
3.7019 1.0870 -2.0015 0.9828
3.3176 1.9684 -2.0012 0.9828
3.2451 2.0855 -2.0012 0.9828
3.1686 2.2000 -2.0012 0.9828
3.0880 2.3116 -2.0011 0.9828
2.9151 2.5259 -2.0011 0.9828
2.8231 2.6283 -2.0010 0.9828
2.5258 2.9149 -2.0009 0.9828
1.9680 3.3169 -2.0008 0.9828
1.8483 3.3849 -2.0008 0.9828
1.4758 3.5630 -2.0007 0.9828
1.0865 3.7003 -2.0007 0.9828
0.6847 3.7952 -2.0006 0.9828
0.5488 3.8172 -2.0006 0.9828
0.4122 3.8343 -2.0006 0.9828
0.1376 3.8539 -2.0006 0.9828
-0.2751 3.8466 -2.0006 0.9828
-0.4122 3.8343 -2.0006 0.9828
-0.5488 3.8171 -2.0006 0.9828
-0.8197 3.7683 -2.0006 0.9828
-1.0865 3.7003 -2.0007 0.9828
-1.2179 3.6591 -2.0007 0.9828
-1.6021 3.5081 -2.0007 0.9828
-1.9679 3.3168 -2.0008 0.9828
-2.0851 3.2445 -2.0008 0.9828
-2.3113 3.0876 -2.0008 0.9828
-2.4201 3.0031 -2.0009 0.9828
-2.5258 2.9149 -2.0009 0.9828
-2.6282 2.8229 -2.0009 0.9828
-2.7273 2.7273 -2.0010 0.9828
-2.9151 2.5259 -2.0010 0.9828
-3.0034 2.4203 -2.0011 0.9828
-3.0879 2.3116 -2.0011 0.9828
-3.1685 2.2000 -2.0011 0.9828
-3.2451 2.0855 -2.0012 0.9828
-0.9917 0.5884 -0.5982 0.9948
-1.0118 0.5525 -0.5981 0.9948
-1.0576 0.3945 -0.5856 0.9949
-1.0636 0.3123 -0.5751 0.9950
-1.0905 0.1967 -0.5749 0.9950
-1.1024 0.1185 -0.5752 0.9950
-1.1055 0.0791 -0.5750 0.9950
3.6550 0.0000 -2.0019 0.9835
3.6455 0.2607 -2.0018 0.9835
3.6339 0.3907 -2.0017 0.9835
3.5966 0.6489 -2.0017 0.9835
3.5410 0.9038 -2.0016 0.9835
3.4673 1.1540 -2.0015 0.9835
3.3239 1.5180 -2.0014 0.9835
3.1424 1.8645 -2.0013 0.9835
3.0013 2.0838 -2.0012 0.9835
2.8449 2.2926 -2.0011 0.9835
2.6740 2.4896 -2.0011 0.9835
2.5834 2.5834 -2.0010 0.9835
2.1893 2.9246 -2.0009 0.9835
2.0835 3.0009 -2.0009 0.9835
1.6352 3.2667 -2.0008 0.9835
1.5175 3.3229 -2.0008 0.9835
1.3979 3.3750 -2.0008 0.9835
1.2766 3.4227 -2.0008 0.9835
1.1536 3.4660 -2.0007 0.9835
1.0292 3.5050 -2.0007 0.9835
0.7765 3.5694 -2.0007 0.9835
0.6486 3.5949 -2.0007 0.9835
0.2606 3.6436 -2.0007 0.9835
0.1304 3.6505 -2.0007 0.9835
0.0000 3.6529 -2.0007 0.9835
-0.1304 3.6505 -2.0007 0.9835
-0.6486 3.5948 -2.0007 0.9835
-0.7765 3.5694 -2.0007 0.9835
-0.9034 3.5394 -2.0007 0.9835
-1.2766 3.4227 -2.0007 0.9835
-1.3979 3.3749 -2.0008 0.9835
-1.7507 3.2062 -2.0008 0.9835
-2.0835 3.0008 -2.0009 0.9835
-2.5834 2.5834 -2.0010 0.9835
-2.6740 2.4896 -2.0010 0.9835
-2.7612 2.3926 -2.0011 0.9835
-2.8448 2.2925 -2.0011 0.9835
-2.9249 2.1896 -2.0011 0.9835
-0.8882 0.5708 -0.5782 0.9952
-0.9084 0.5390 -0.5785 0.9952
-0.9580 0.4375 -0.5768 0.9952
-0.9677 0.4008 -0.5737 0.9952
-0.9785 0.3257 -0.5648 0.9953
-0.9820 0.2883 -0.5606 0.9953
-1.0124 0.1826 -0.5634 0.9953
-1.0190 0.1465 -0.5638 0.9953
-1.0276 0.0367 -0.5632 0.9953
2.0359 0.1456 -1.1784 0.9906
2.0366 0.2190 -1.1826 0.9906
2.0300 0.2919 -1.1841 0.9906
2.0153 0.3636 -1.1823 0.9906
1.9883 0.4325 -1.1748 0.9906
1.9616 0.5007 -1.1688 0.9907
1.9033 0.6335 -1.1581 0.9908
1.8620 0.7713 -1.1636 0.9907
3.0424 1.6613 -2.0013 0.9841
2.9160 1.8740 -2.0013 0.9841
2.8472 1.9769 -2.0012 0.9841
2.7748 2.0772 -2.0012 0.9841
2.6989 2.1749 -2.0012 0.9841
2.4508 2.4508 -2.0011 0.9841
2.0770 2.7745 -2.0010 0.9841
1.7684 2.9805 -2.0009 0.9841
1.6609 3.0417 -2.0009 0.9841
1.5513 3.0990 -2.0009 0.9841
1.3262 3.2017 -2.0008 0.9841
1.0944 3.2881 -2.0008 0.9841
0.9763 3.3251 -2.0008 0.9841
0.8570 3.3578 -2.0008 0.9841
0.7367 3.3862 -2.0008 0.9841
0.6153 3.4104 -2.0008 0.9841
0.4932 3.4301 -2.0008 0.9841
0.3704 3.4455 -2.0008 0.9841
0.2472 3.4566 -2.0007 0.9841
0.1237 3.4632 -2.0007 0.9841
0.0000 3.4654 -2.0007 0.9841
-0.2472 3.4566 -2.0007 0.9841
-0.4932 3.4301 -2.0007 0.9841
-0.8570 3.3578 -2.0008 0.9841
-0.9763 3.3251 -2.0008 0.9841
-1.0944 3.2881 -2.0008 0.9841
-1.4396 3.1524 -2.0008 0.9841
-1.5512 3.0990 -2.0008 0.9841
-1.7684 2.9805 -2.0009 0.9841
-2.0769 2.7745 -2.0009 0.9841
-2.1747 2.6986 -2.0010 0.9841
-2.2696 2.6193 -2.0010 0.9841
-2.4508 2.4508 -2.0010 0.9841
-2.5367 2.3618 -2.0011 0.9841
-0.7671 0.6182 -0.5688 0.9955
-0.8008 0.5560 -0.5628 0.9955
-0.8823 0.4029 -0.5600 0.9955
-0.8941 0.3703 -0.5587 0.9955
-0.9058 0.3015 -0.5511 0.9956
-0.9151 0.2687 -0.5506 0.9956
-0.9430 0.1701 -0.5532 0.9956
-0.9538 0.1025 -0.5538 0.9956
-0.9565 0.0684 -0.5536 0.9956
