ply
format ascii 1.0
element vertex 722
property float32 x
property float32 y
property float32 z
property float32 I
end_header
-9.4641 -0.3380 -2.0018 0.9620
-9.3741 -1.3478 -2.0019 0.9620
-9.3202 -1.6816 -2.0019 0.9620
-9.2544 -2.0132 -2.0019 0.9620
-9.1768 -2.3422 -2.0020 0.9620
-8.9866 -2.9910 -2.0020 0.9620
-8.8742 -3.3099 -2.0021 0.9620
-8.6157 -3.9347 -2.0021 0.9620
-8.4699 -4.2397 -2.0022 0.9620
-7.9685 -5.1211 -2.0022 0.9620
-7.3758 -5.9438 -2.0023 0.9620
-7.1590 -6.2033 -2.0023 0.9620
-6.9331 -6.4550 -2.0024 0.9620
-6.4551 -6.9333 -2.0024 0.9620
-5.9442 -7.3763 -2.0025 0.9620
-5.4029 -7.7817 -2.0025 0.9620
-4.8341 -8.1475 -2.0025 0.9620
-3.9356 -8.6177 -2.0026 0.9620
-3.6255 -8.7528 -2.0026 0.9620
-2.3430 -9.1799 -2.0027 0.9620
-1.6822 -9.3237 -2.0027 0.9620
-0.6759 -9.4502 -2.0027 0.9620
1.0128 -9.4201 -2.0027 0.9620
2.0139 -9.2579 -2.0027 0.9620
2.3431 -9.1801 -2.0027 0.9620
2.6692 -9.0906 -2.0027 0.9620
2.9920 -8.9895 -2.0027 0.9620
4.5405 -8.3152 -2.0026 0.9620
5.1220 -7.9700 -2.0026 0.9620
5.4032 -7.7821 -2.0026 0.9620
5.9445 -7.3767 -2.0026 0.9620
6.2039 -7.1597 -2.0025 0.9620
7.1594 -6.2037 -2.0025 0.9620
7.3762 -5.9442 -2.0024 0.9620
7.5836 -5.6770 -2.0024 0.9620
7.7813 -5.4027 -2.0024 0.9620
8.3139 -4.5398 -2.0023 0.9620
8.4706 -4.2401 -2.0023 0.9620
8.6164 -3.9350 -2.0023 0.9620
8.8749 -3.3102 -2.0022 0.9620
8.9873 -2.9913 -2.0022 0.9620
9.1775 -2.3424 -2.0021 0.9620
9.2551 -2.0134 -2.0021 0.9620
9.3210 -1.6817 -2.0021 0.9620
9.3749 -1.3479 -2.0020 0.9620
9.4469 -0.6757 -2.0020 0.9620
-8.3826 -1.5124 -2.0019 0.9656
-8.2535 -2.1066 -2.0020 0.9656
-8.1732 -2.3999 -2.0020 0.9656
-8.0825 -2.6901 -2.0020 0.9656
-7.8702 -3.2599 -2.0021 0.9656
-7.7489 -3.5388 -2.0021 0.9656
-7.3265 -4.3470 -2.0022 0.9656
-7.1668 -4.6058 -2.0022 0.9656
-6.9979 -4.8587 -2.0022 0.9656
-6.8201 -5.1055 -2.0022 0.9656
-6.6336 -5.3457 -2.0023 0.9656
-6.0244 -6.0244 -2.0023 0.9656
-5.8056 -6.2356 -2.0024 0.9656
-5.3460 -6.6340 -2.0024 0.9656
-5.1059 -6.8207 -2.0024 0.9656
-4.8592 -6.9986 -2.0024 0.9656
-4.6064 -7.1677 -2.0024 0.9656
-4.3477 -7.3276 -2.0025 0.9656
-4.0834 -7.4782 -2.0025 0.9656
-3.5395 -7.7505 -2.0025 0.9656
-3.2607 -7.8720 -2.0025 0.9656
-2.9776 -7.9834 -2.0025 0.9656
-2.4006 -8.1756 -2.0026 0.9656
-1.8112 -8.3261 -2.0026 0.9656
-1.5129 -8.3854 -2.0026 0.9656
-1.2126 -8.4341 -2.0026 0.9656
-0.0000 -8.5209 -2.0026 0.9656
0.6079 -8.4992 -2.0026 0.9656
0.9108 -8.4721 -2.0026 0.9656
1.2127 -8.4342 -2.0026 0.9656
1.5129 -8.3855 -2.0026 0.9656
1.8112 -8.3262 -2.0026 0.9656
2.4006 -8.1757 -2.0026 0.9656
3.2608 -7.8722 -2.0026 0.9656
3.8140 -7.6194 -2.0026 0.9656
4.0835 -7.4784 -2.0026 0.9656
4.3478 -7.3279 -2.0025 0.9656
4.8594 -6.9989 -2.0025 0.9656
5.3463 -6.6343 -2.0025 0.9656
5.5796 -6.4393 -2.0025 0.9656
5.8058 -6.2359 -2.0025 0.9656
6.2358 -5.8057 -2.0024 0.9656
6.4390 -5.5794 -2.0024 0.9656
7.1672 -4.6061 -2.0023 0.9656
7.3270 -4.3473 -2.0023 0.9656
7.6182 -3.8134 -2.0023 0.9656
7.8707 -3.2602 -2.0022 0.9656
8.0830 -2.6903 -2.0022 0.9656
8.4317 -1.2123 -2.0020 0.9656
8.4965 -0.6077 -2.0020 0.9656
8.5126 -0.3040 -2.0019 0.9656
-7.7118 -0.5516 -2.0018 0.9686
-7.6530 -1.1004 -2.0019 0.9686
-7.5552 -1.6435 -2.0019 0.9686
-7.4918 -1.9122 -2.0019 0.9686
-7.2447 -2.7022 -2.0020 0.9686
-7.1438 -2.9591 -2.0020 0.9686
-6.3520 -4.4103 -2.0022 0.9686
-6.1906 -4.6342 -2.0022 0.9686
-6.0213 -4.8523 -2.0022 0.9686
-5.8443 -5.0641 -2.0022 0.9686
-5.4683 -5.4683 -2.0023 0.9686
-4.6346 -6.1911 -2.0024 0.9686
-4.1812 -6.5060 -2.0024 0.9686
-3.9463 -6.6512 -2.0024 0.9686
-3.7064 -6.7878 -2.0024 0.9685
-3.4618 -6.9158 -2.0024 0.9685
-2.4424 -7.3383 -2.0025 0.9685
-1.3732 -7.6113 -2.0025 0.9685
-0.8268 -7.6899 -2.0025 0.9685
-0.2761 -7.7293 -2.0025 0.9685
-0.0000 -7.7343 -2.0025 0.9685
0.2761 -7.7294 -2.0025 0.9685
0.8268 -7.6900 -2.0025 0.9685
1.3732 -7.6114 -2.0025 0.9685
1.6440 -7.5575 -2.0025 0.9685
1.9127 -7.4940 -2.0025 0.9685
2.7028 -7.2466 -2.0025 0.9685
3.2129 -7.0352 -2.0025 0.9685
3.4619 -6.9160 -2.0025 0.9685
3.7065 -6.7880 -2.0025 0.9685
4.1813 -6.5062 -2.0025 0.9685
4.8527 -6.0219 -2.0024 0.9685
5.4685 -5.4685 -2.0024 0.9686
5.6602 -5.2698 -2.0024 0.9686
6.0216 -4.8525 -2.0023 0.9686
6.1909 -4.6345 -2.0023 0.9686
6.5056 -4.1809 -2.0023 0.9686
6.6506 -3.9460 -2.0023 0.9686
6.9151 -3.4614 -2.0022 0.9686
7.0341 -3.2124 -2.0022 0.9686
7.1442 -2.9592 -2.0022 0.9686
7.2452 -2.7023 -2.0021 0.9686
7.3370 -2.4420 -2.0021 0.9686
7.4194 -2.1785 -2.0021 0.9686
7.4923 -1.9123 -2.0021 0.9686
7.6094 -1.3729 -2.0020 0.9686
7.6535 -1.1004 -2.0020 0.9686
7.6878 -0.8265 -2.0020 0.9686
7.7123 -0.5516 -2.0020 0.9686
-7.0711 -0.0000 -2.0018 0.9710
-7.0667 -0.2524 -2.0018 0.9710
-7.0308 -0.7559 -2.0018 0.9710
-6.8520 -1.7489 -2.0019 0.9710
-6.7853 -1.9923 -2.0020 0.9710
-6.7099 -2.2333 -2.0020 0.9710
-6.5337 -2.7063 -2.0020 0.9710
-6.3241 -3.1656 -2.0021 0.9710
-6.0823 -3.6088 -2.0021 0.9710
-5.8094 -4.0336 -2.0022 0.9710
-5.6618 -4.2384 -2.0022 0.9710
-5.1765 -4.8195 -2.0022 0.9710
-4.6318 -5.3453 -2.0023 0.9710
-4.2387 -5.6622 -2.0023 0.9710
-4.0339 -5.8100 -2.0023 0.9710
-3.8240 -5.9503 -2.0023 0.9710
-3.6092 -6.0830 -2.0024 0.9710
-3.1661 -6.3251 -2.0024 0.9710
-2.9384 -6.4341 -2.0024 0.9710
-2.7068 -6.5349 -2.0024 0.9710
-2.4719 -6.6274 -2.0024 0.9710
-1.9928 -6.7869 -2.0024 0.9710
-1.5036 -6.9118 -2.0025 0.9710
-1.0067 -7.0015 -2.0025 0.9710
-0.7561 -7.0330 -2.0025 0.9710
-0.2525 -7.0691 -2.0025 0.9710
-0.0000 -7.0736 -2.0025 0.9710
1.0067 -7.0016 -2.0025 0.9710
1.2559 -6.9612 -2.0025 0.9710
1.5036 -6.9119 -2.0025 0.9710
1.7493 -6.8538 -2.0025 0.9710
2.7069 -6.5350 -2.0025 0.9710
3.3899 -6.2082 -2.0024 0.9710
3.8241 -5.9505 -2.0024 0.9710
4.2388 -5.6624 -2.0024 0.9710
4.4382 -5.5075 -2.0024 0.9710
4.6319 -5.3456 -2.0024 0.9710
5.1767 -4.8197 -2.0023 0.9710
5.5072 -4.4380 -2.0023 0.9710
5.6621 -4.2386 -2.0023 0.9710
6.2075 -3.3895 -2.0022 0.9710
6.5340 -2.7065 -2.0021 0.9710
6.6264 -2.4715 -2.0021 0.9710
6.7857 -1.9925 -2.0021 0.9710
6.8524 -1.7490 -2.0021 0.9710
6.9596 -1.2556 -2.0020 0.9710
6.9999 -1.0064 -2.0020 0.9710
7.0537 -0.5045 -2.0019 0.9710
-6.5041 -0.2323 -2.0018 0.9731
-6.4711 -0.6957 -2.0018 0.9731
-6.4422 -0.9263 -2.0019 0.9731
-6.4051 -1.1556 -2.0019 0.9731
-6.2451 -1.8337 -2.0020 0.9731
-6.1757 -2.0555 -2.0020 0.9731
-6.0985 -2.2746 -2.0020 0.9731
-6.0135 -2.4909 -2.0020 0.9731
-5.8206 -2.9136 -2.0021 0.9731
-5.4760 -3.5192 -2.0021 0.9731
-5.3469 -3.7124 -2.0021 0.9731
-5.2110 -3.9009 -2.0021 0.9731
-5.0685 -4.0845 -2.0022 0.9731
-4.6030 -4.6030 -2.0022 0.9731
-4.2630 -4.9197 -2.0022 0.9731
-4.0847 -5.0688 -2.0023 0.9731
-3.9012 -5.2114 -2.0023 0.9731
-3.7127 -5.3473 -2.0023 0.9731
-3.5195 -5.4765 -2.0023 0.9731
-3.1199 -5.7137 -2.0023 0.9731
-2.9140 -5.8214 -2.0023 0.9731
-2.7044 -5.9218 -2.0024 0.9731
-2.2751 -6.0997 -2.0024 0.9731
-2.0559 -6.1770 -2.0024 0.9731
-1.8341 -6.2465 -2.0024 0.9731
-1.6100 -6.3080 -2.0024 0.9731
-0.9265 -6.4440 -2.0024 0.9731
-0.4644 -6.4937 -2.0024 0.9731
0.2324 -6.5062 -2.0024 0.9731
0.4644 -6.4937 -2.0024 0.9731
1.3839 -6.3615 -2.0024 0.9731
1.6100 -6.3081 -2.0024 0.9731
1.8342 -6.2466 -2.0024 0.9731
2.0559 -6.1771 -2.0024 0.9731
2.2751 -6.0998 -2.0024 0.9731
2.7044 -5.9219 -2.0024 0.9731
2.9141 -5.8216 -2.0024 0.9731
3.1200 -5.7138 -2.0024 0.9731
3.3219 -5.5988 -2.0024 0.9731
3.5196 -5.4766 -2.0024 0.9731
3.7128 -5.3475 -2.0024 0.9731
4.2631 -4.9199 -2.0023 0.9731
4.4360 -4.7646 -2.0023 0.9731
4.9198 -4.2630 -2.0023 0.9731
5.2113 -3.9011 -2.0022 0.9731
5.5983 -3.3216 -2.0022 0.9731
5.7132 -3.1197 -2.0022 0.9731
6.0988 -2.2748 -2.0021 0.9731
6.2454 -1.8338 -2.0021 0.9731
6.3602 -1.3836 -2.0020 0.9731
6.4055 -1.1557 -2.0020 0.9731
6.4921 -0.4643 -2.0019 0.9731
6.5045 -0.2323 -2.0019 0.9731
-6.0221 -0.0000 -2.0018 0.9749
-6.0183 -0.2150 -2.0018 0.9749
-6.0069 -0.4296 -2.0018 0.9749
-5.9878 -0.6438 -2.0018 0.9749
-5.8848 -1.2802 -2.0019 0.9749
-5.7786 -1.6968 -2.0019 0.9749
-5.7145 -1.9020 -2.0020 0.9749
-5.6430 -2.1047 -2.0020 0.9749
-5.5643 -2.3048 -2.0020 0.9749
-5.4785 -2.5020 -2.0020 0.9749
-5.3858 -2.6959 -2.0020 0.9749
-5.2862 -2.8865 -2.0021 0.9749
-5.1799 -3.0734 -2.0021 0.9749
-4.8218 -3.6095 -2.0021 0.9749
-4.6899 -3.7794 -2.0021 0.9749
-4.5521 -3.9444 -2.0022 0.9749
-4.4084 -4.1044 -2.0022 0.9749
-4.1044 -4.4085 -2.0022 0.9749
-3.7795 -4.6901 -2.0022 0.9749
-3.6098 -4.8221 -2.0022 0.9749
-3.4354 -4.9479 -2.0023 0.9749
-3.2566 -5.0674 -2.0023 0.9749
-3.0737 -5.1804 -2.0023 0.9749
-2.8868 -5.2868 -2.0023 0.9749
-2.3052 -5.5652 -2.0023 0.9749
-1.2805 -5.8862 -2.0024 0.9749
-1.0696 -5.9282 -2.0024 0.9749
-0.6439 -5.9894 -2.0024 0.9749
-0.2150 -6.0201 -2.0024 0.9749
1.0696 -5.9282 -2.0024 0.9749
1.2805 -5.8863 -2.0024 0.9749
1.6971 -5.7799 -2.0024 0.9749
1.9023 -5.7156 -2.0024 0.9749
2.1051 -5.6441 -2.0024 0.9749
2.3052 -5.5653 -2.0024 0.9749
2.5024 -5.4795 -2.0024 0.9749
2.6964 -5.3867 -2.0024 0.9749
2.8869 -5.2870 -2.0023 0.9749
3.4355 -4.9480 -2.0023 0.9749
3.7797 -4.6903 -2.0023 0.9749
4.1046 -4.4086 -2.0023 0.9749
4.5522 -3.9445 -2.0022 0.9749
4.8220 -3.6097 -2.0022 0.9749
4.9477 -3.4352 -2.0022 0.9749
5.1801 -3.0735 -2.0022 0.9749
5.2864 -2.8866 -2.0021 0.9749
5.3861 -2.6961 -2.0021 0.9749
5.4788 -2.5021 -2.0021 0.9749
5.7147 -1.9021 -2.0021 0.9749
5.8358 -1.4895 -2.0020 0.9749
5.9614 -0.8571 -2.0020 0.9749
5.9881 -0.6438 -2.0020 0.9749
6.0072 -0.4296 -2.0019 0.9749
6.0187 -0.2150 -2.0019 0.9749
-5.5977 -0.0000 -2.0018 0.9765
-5.5942 -0.1998 -2.0018 0.9765
-5.5836 -0.3994 -2.0018 0.9765
-5.5410 -0.7967 -2.0019 0.9765
-5.4701 -1.1900 -2.0019 0.9765
-5.4242 -1.3844 -2.0019 0.9765
-5.3117 -1.7679 -2.0020 0.9765
-5.1722 -2.1424 -2.0020 0.9765
-5.0062 -2.5059 -2.0020 0.9765
-4.8148 -2.8567 -2.0021 0.9765
-4.2312 -3.6664 -2.0021 0.9765
-4.0977 -3.8151 -2.0022 0.9765
-2.3260 -5.0931 -2.0023 0.9765
-1.9567 -5.2461 -2.0023 0.9765
-1.5775 -5.3724 -2.0023 0.9765
-0.9942 -5.5103 -2.0023 0.9765
-0.7969 -5.5423 -2.0023 0.9765
0.0000 -5.5993 -2.0023 0.9765
0.1999 -5.5957 -2.0023 0.9765
0.3994 -5.5850 -2.0023 0.9765
0.5985 -5.5672 -2.0023 0.9765
0.7969 -5.5423 -2.0023 0.9765
1.1902 -5.4713 -2.0023 0.9765
1.7682 -5.3127 -2.0023 0.9765
2.1427 -5.1730 -2.0023 0.9765
2.3260 -5.0932 -2.0023 0.9765
2.6834 -4.9143 -2.0023 0.9765
2.8571 -4.8154 -2.0023 0.9765
3.0271 -4.7103 -2.0023 0.9765
3.6666 -4.2315 -2.0023 0.9765
3.8153 -4.0979 -2.0022 0.9765
3.9591 -3.9591 -2.0022 0.9765
4.0978 -3.8152 -2.0022 0.9765
4.4821 -3.3553 -2.0022 0.9765
4.8150 -2.8569 -2.0021 0.9765
5.3716 -1.5773 -2.0020 0.9765
5.4245 -1.3845 -2.0020 0.9765
5.5093 -0.9940 -2.0020 0.9765
5.5839 -0.3994 -2.0019 0.9765
-5.2236 -0.0000 -2.0018 0.9779
-5.2104 -0.3727 -2.0018 0.9779
-5.1938 -0.5584 -2.0018 0.9779
-5.0124 -1.4718 -2.0019 0.9779
-4.8947 -1.8256 -2.0020 0.9779
-4.8265 -1.9992 -2.0020 0.9779
-4.7521 -2.1702 -2.0020 0.9779
-4.3950 -2.8245 -2.0021 0.9779
-4.2914 -2.9796 -2.0021 0.9779
-4.1824 -3.1309 -2.0021 0.9779
-4.0680 -3.2782 -2.0021 0.9779
-3.8238 -3.5601 -2.0021 0.9779
-3.6943 -3.6943 -2.0021 0.9779
-3.5601 -3.8239 -2.0022 0.9779
-3.4214 -3.9485 -2.0022 0.9779
-3.2783 -4.0681 -2.0022 0.9779
-2.9798 -4.2917 -2.0022 0.9779
-2.6660 -4.4934 -2.0022 0.9779
-2.5040 -4.5857 -2.0022 0.9779
-2.3387 -4.6722 -2.0022 0.9779
-2.1705 -4.7527 -2.0023 0.9779
-1.6500 -4.9575 -2.0023 0.9779
-1.4720 -5.0133 -2.0023 0.9779
-1.2922 -5.0626 -2.0023 0.9779
-1.1106 -5.1055 -2.0023 0.9779
-0.7436 -5.1718 -2.0023 0.9779
-0.5585 -5.1950 -2.0023 0.9779
-0.0000 -5.2250 -2.0023 0.9779
0.5585 -5.1951 -2.0023 0.9779
0.7436 -5.1718 -2.0023 0.9779
0.9277 -5.1420 -2.0023 0.9779
1.2922 -5.0627 -2.0023 0.9779
1.4720 -5.0133 -2.0023 0.9779
1.8259 -4.8955 -2.0023 0.9779
1.9995 -4.8272 -2.0023 0.9779
2.1705 -4.7528 -2.0023 0.9779
2.3388 -4.6723 -2.0023 0.9779
2.5040 -4.5858 -2.0023 0.9779
2.6661 -4.4935 -2.0023 0.9779
2.8248 -4.3954 -2.0023 0.9779
2.9798 -4.2918 -2.0023 0.9779
3.1311 -4.1827 -2.0022 0.9779
3.2784 -4.0683 -2.0022 0.9779
3.4215 -3.9486 -2.0022 0.9779
3.5602 -3.8240 -2.0022 0.9779
3.6944 -3.6944 -2.0022 0.9779
3.8239 -3.5602 -2.0022 0.9779
3.9485 -3.4214 -2.0022 0.9779
4.1825 -3.1310 -2.0022 0.9779
4.3952 -2.8246 -2.0021 0.9779
4.4931 -2.6659 -2.0021 0.9779
4.5854 -2.5038 -2.0021 0.9779
4.6718 -2.3385 -2.0021 0.9779
4.7523 -2.1703 -2.0021 0.9779
4.8949 -1.8257 -2.0020 0.9779
5.1709 -0.7435 -2.0020 0.9779
-1.9524 -0.1396 -0.8011 0.9916
-1.9569 -0.2104 -0.8055 0.9915
-4.7795 -1.0397 -2.0019 0.9791
-4.3742 -2.1896 -2.0020 0.9791
-4.2933 -2.3443 -2.0020 0.9791
-3.8090 -3.0694 -2.0021 0.9791
-3.6970 -3.2035 -2.0021 0.9791
-3.5803 -3.3334 -2.0021 0.9791
-3.2035 -3.6971 -2.0021 0.9791
-2.4963 -4.2073 -2.0022 0.9791
-2.1898 -4.3747 -2.0022 0.9791
-1.7096 -4.5837 -2.0022 0.9791
-1.5450 -4.6418 -2.0022 0.9791
-1.2099 -4.7403 -2.0023 0.9791
-1.0399 -4.7804 -2.0023 0.9791
-0.6962 -4.8425 -2.0023 0.9791
-0.5230 -4.8642 -2.0023 0.9791
-0.3490 -4.8798 -2.0023 0.9791
-0.1746 -4.8891 -2.0023 0.9791
0.0000 -4.8923 -2.0023 0.9791
0.1746 -4.8892 -2.0023 0.9791
0.3490 -4.8798 -2.0023 0.9791
1.2099 -4.7403 -2.0023 0.9791
1.3783 -4.6941 -2.0023 0.9791
1.5450 -4.6419 -2.0023 0.9791
1.7097 -4.5838 -2.0023 0.9791
1.8722 -4.5198 -2.0023 0.9791
2.3446 -4.2938 -2.0022 0.9791
2.6449 -4.1156 -2.0022 0.9791
2.7901 -4.0185 -2.0022 0.9791
2.9317 -3.9164 -2.0022 0.9791
3.2036 -3.6972 -2.0022 0.9791
3.4592 -3.4592 -2.0022 0.9791
3.5804 -3.3335 -2.0022 0.9791
3.6971 -3.2036 -2.0022 0.9791
3.8091 -3.0695 -2.0022 0.9791
4.3743 -2.1896 -2.0021 0.9791
4.5832 -1.7095 -2.0020 0.9791
4.6413 -1.5448 -2.0020 0.9791
4.6935 -1.3781 -2.0020 0.9791
4.7797 -1.0398 -2.0020 0.9791
4.8634 -0.5229 -2.0019 0.9791
4.8882 -0.1746 -2.0019 0.9791
-1.5284 -0.0546 -0.6665 0.9933
-1.5293 -0.1094 -0.6682 0.9933
-1.5249 -0.1640 -0.6684 0.9933
-1.5151 -0.2178 -0.6671 0.9933
-1.5001 -0.2707 -0.6643 0.9934
-1.5875 -0.5284 -0.7292 0.9927
-1.5984 -0.5962 -0.7435 0.9926
-4.1785 -1.9083 -2.0020 0.9802
-3.6775 -2.7530 -2.0021 0.9802
-3.5770 -2.8825 -2.0021 0.9802
-3.4718 -3.0083 -2.0021 0.9802
-3.2484 -3.2484 -2.0021 0.9802
-3.0084 -3.4719 -2.0021 0.9802
-2.3442 -3.9510 -2.0022 0.9802
-2.0564 -4.1082 -2.0022 0.9802
-1.9085 -4.1790 -2.0022 0.9802
-1.4508 -4.3591 -2.0022 0.9802
-1.2943 -4.4081 -2.0022 0.9802
-0.9766 -4.4892 -2.0022 0.9802
-0.8157 -4.5212 -2.0022 0.9802
-0.4911 -4.5679 -2.0022 0.9802
0.1640 -4.5913 -2.0023 0.9802
0.6538 -4.5475 -2.0023 0.9802
0.8157 -4.5213 -2.0023 0.9802
0.9766 -4.4893 -2.0023 0.9802
1.1362 -4.4515 -2.0023 0.9802
1.4509 -4.3591 -2.0022 0.9802
1.6055 -4.3046 -2.0022 0.9802
1.7581 -4.2445 -2.0022 0.9802
2.0564 -4.1083 -2.0022 0.9802
2.2018 -4.0322 -2.0022 0.9802
2.6201 -3.7737 -2.0022 0.9802
2.7532 -3.6778 -2.0022 0.9802
3.1305 -3.3624 -2.0022 0.9802
3.8646 -2.4837 -2.0021 0.9802
4.1787 -1.9083 -2.0020 0.9802
4.3041 -1.6054 -2.0020 0.9802
4.3586 -1.4507 -2.0020 0.9802
4.4509 -1.1360 -2.0020 0.9802
4.4886 -0.9765 -2.0020 0.9802
4.5672 -0.4910 -2.0019 0.9802
4.5818 -0.3277 -2.0019 0.9802
4.5905 -0.1640 -2.0019 0.9802
-1.3376 -0.0478 -0.6195 0.9941
-1.3384 -0.0957 -0.6211 0.9941
-1.3273 -0.1908 -0.6207 0.9941
-1.3160 -0.2374 -0.6190 0.9941
-1.3013 -0.2831 -0.6164 0.9941
-1.3240 -0.3888 -0.6388 0.9939
-1.3324 -0.4970 -0.6582 0.9938
-1.3263 -0.5494 -0.6645 0.9937
-1.3150 -0.6006 -0.6692 0.9936
-3.8675 -1.9360 -2.0020 0.9811
-3.6385 -2.3383 -2.0020 0.9811
-3.0584 -3.0584 -2.0021 0.9811
-2.9473 -3.1656 -2.0021 0.9811
-2.8325 -3.2688 -2.0021 0.9811
-2.7140 -3.3679 -2.0021 0.9811
-2.4669 -3.5529 -2.0021 0.9811
-2.2071 -3.7199 -2.0022 0.9811
-2.0729 -3.7963 -2.0022 0.9811
-1.6553 -3.9962 -2.0022 0.9811
-1.5116 -4.0527 -2.0022 0.9811
-1.2186 -4.1503 -2.0022 0.9811
-0.7680 -4.2568 -2.0022 0.9811
-0.6156 -4.2815 -2.0022 0.9811
-0.3086 -4.3145 -2.0022 0.9811
-0.1544 -4.3228 -2.0022 0.9811
0.3086 -4.3145 -2.0022 0.9811
0.9195 -4.2267 -2.0022 0.9811
1.0697 -4.1912 -2.0022 0.9811
1.2186 -4.1503 -2.0022 0.9811
1.3660 -4.1042 -2.0022 0.9811
1.5116 -4.0528 -2.0022 0.9811
2.2072 -3.7200 -2.0022 0.9811
2.4669 -3.5530 -2.0022 0.9811
2.5921 -3.4627 -2.0022 0.9811
2.7141 -3.3680 -2.0022 0.9811
2.8325 -3.2689 -2.0022 0.9811
2.9474 -3.1657 -2.0022 0.9811
3.0585 -3.0585 -2.0021 0.9811
3.1657 -2.9474 -2.0021 0.9811
3.2689 -2.8325 -2.0021 0.9811
3.3679 -2.7140 -2.0021 0.9811
3.4626 -2.5921 -2.0021 0.9811
3.6386 -2.3384 -2.0021 0.9811
3.7961 -2.0728 -2.0021 0.9811
3.8677 -1.9360 -2.0020 0.9811
4.1037 -1.3659 -2.0020 0.9811
4.1906 -1.0696 -2.0020 0.9811
4.2562 -0.7679 -2.0019 0.9811
4.3001 -0.4623 -2.0019 0.9811
4.3221 -0.1544 -2.0019 0.9811
-1.1965 -0.0427 -0.5873 0.9947
-1.1921 -0.1282 -0.5881 0.9947
-1.1867 -0.1706 -0.5881 0.9947
-1.1791 -0.2127 -0.5877 0.9947
-1.1590 -0.3403 -0.5925 0.9946
-1.1578 -0.3854 -0.5986 0.9946
-1.1400 -0.5206 -0.6148 0.9944
-1.1292 -0.5652 -0.6194 0.9944
-1.1113 -0.6068 -0.6211 0.9944
-3.4335 -2.2066 -2.0020 0.9820
-3.3525 -2.3277 -2.0020 0.9820
-3.2673 -2.4459 -2.0020 0.9820
-2.9872 -2.7812 -2.0021 0.9820
-2.7812 -2.9873 -2.0021 0.9820
-2.6729 -3.0846 -2.0021 0.9820
-2.5611 -3.1781 -2.0021 0.9820
-2.3278 -3.3527 -2.0021 0.9820
-1.9561 -3.5824 -2.0021 0.9820
-1.8270 -3.6499 -2.0022 0.9820
-1.5620 -3.7710 -2.0022 0.9820
-1.4264 -3.8244 -2.0022 0.9820
-1.1500 -3.9164 -2.0022 0.9820
-1.0094 -3.9550 -2.0022 0.9820
-0.8676 -3.9885 -2.0022 0.9820
-0.7247 -4.0169 -2.0022 0.9820
-0.5809 -4.0402 -2.0022 0.9820
-0.4363 -4.0584 -2.0022 0.9820
0.0000 -4.0818 -2.0022 0.9820
0.1457 -4.0792 -2.0022 0.9820
0.2912 -4.0714 -2.0022 0.9820
0.4363 -4.0584 -2.0022 0.9820
0.5809 -4.0402 -2.0022 0.9820
1.4264 -3.8244 -2.0022 0.9820
1.5620 -3.7711 -2.0022 0.9820
1.6956 -3.7129 -2.0022 0.9820
1.9562 -3.5825 -2.0022 0.9820
2.3279 -3.3528 -2.0022 0.9820
2.4461 -3.2676 -2.0022 0.9820
2.5611 -3.1782 -2.0022 0.9820
2.6729 -3.0847 -2.0021 0.9820
2.7813 -2.9873 -2.0021 0.9820
2.9873 -2.7813 -2.0021 0.9820
3.0846 -2.6729 -2.0021 0.9820
3.1781 -2.5611 -2.0021 0.9820
3.3526 -2.3278 -2.0021 0.9820
3.4336 -2.2066 -2.0021 0.9820
3.6497 -1.8269 -2.0020 0.9820
3.7126 -1.6955 -2.0020 0.9820
3.7707 -1.5619 -2.0020 0.9820
3.9160 -1.1499 -2.0020 0.9820
4.0164 -0.7246 -2.0019 0.9820
4.0397 -0.5808 -2.0019 0.9820
4.0578 -0.4363 -2.0019 0.9820
4.0708 -0.2912 -2.0019 0.9820
-1.1066 -0.0395 -0.5744 0.9950
-1.1055 -0.0791 -0.5750 0.9950
-1.1024 -0.1185 -0.5752 0.9950
-1.0974 -0.1578 -0.5752 0.9950
-1.0814 -0.2353 -0.5741 0.9950
-1.0636 -0.3123 -0.5751 0.9950
-1.0617 -0.3534 -0.5805 0.9950
-1.0514 -0.4355 -0.5904 0.9949
-1.0430 -0.4763 -0.5948 0.9948
-3.2465 -2.0864 -2.0020 0.9828
-3.1699 -2.2009 -2.0020 0.9828
-3.0894 -2.3127 -2.0020 0.9828
-2.9165 -2.5272 -2.0020 0.9828
-2.4216 -3.0050 -2.0021 0.9828
-2.3128 -3.0895 -2.0021 0.9828
-1.8496 -3.3872 -2.0021 0.9828
-1.7275 -3.4511 -2.0021 0.9828
-1.3487 -3.6160 -2.0022 0.9828
-0.4126 -3.8373 -2.0022 0.9828
-0.2753 -3.8496 -2.0022 0.9828
-0.1377 -3.8570 -2.0022 0.9828
-0.0000 -3.8594 -2.0022 0.9828
0.1378 -3.8570 -2.0022 0.9828
0.6853 -3.7981 -2.0022 0.9828
0.8204 -3.7712 -2.0022 0.9828
1.0873 -3.7031 -2.0022 0.9828
1.3487 -3.6161 -2.0022 0.9828
1.4769 -3.5656 -2.0022 0.9828
1.6033 -3.5106 -2.0022 0.9828
1.7275 -3.4512 -2.0022 0.9828
1.9693 -3.3191 -2.0022 0.9828
2.5273 -2.9167 -2.0021 0.9828
2.8246 -2.6298 -2.0021 0.9828
3.0049 -2.4215 -2.0021 0.9828
3.2465 -2.0864 -2.0021 0.9828
3.3189 -1.9692 -2.0020 0.9828
3.4509 -1.7274 -2.0020 0.9828
3.5103 -1.6031 -2.0020 0.9828
3.5653 -1.4768 -2.0020 0.9828
3.6157 -1.3486 -2.0020 0.9828
3.6615 -1.2187 -2.0020 0.9828
3.7027 -1.0872 -2.0020 0.9828
3.7708 -0.8203 -2.0019 0.9828
3.7976 -0.6852 -2.0019 0.9828
3.8368 -0.4125 -2.0019 0.9828
-1.0276 -0.0367 -0.5632 0.9953
-1.0265 -0.0734 -0.5637 0.9953
-1.0236 -0.1101 -0.5639 0.9953
-0.9938 -0.2537 -0.5618 0.9953
-0.9820 -0.2883 -0.5606 0.9953
-0.9785 -0.3257 -0.5648 0.9953
-0.9677 -0.4008 -0.5737 0.9952
-0.9434 -0.4722 -0.5778 0.9952
-0.9269 -0.5061 -0.5784 0.9952
-0.8661 -0.6014 -0.5775 0.9952
-2.5847 -2.5847 -2.0021 0.9835
-2.4908 -2.6754 -2.0021 0.9835
-2.1906 -2.9263 -2.0021 0.9835
-1.9763 -3.0752 -2.0021 0.9835
-1.5186 -3.3252 -2.0021 0.9835
-1.0299 -3.5075 -2.0021 0.9835
-0.6491 -3.5975 -2.0022 0.9835
-0.1305 -3.6533 -2.0022 0.9835
-0.0000 -3.6556 -2.0022 0.9835
0.3908 -3.6346 -2.0022 0.9835
0.5202 -3.6184 -2.0022 0.9835
0.6491 -3.5975 -2.0022 0.9835
0.9040 -3.5420 -2.0022 0.9835
1.2775 -3.4251 -2.0022 0.9835
1.3989 -3.3773 -2.0022 0.9835
1.6363 -3.2689 -2.0022 0.9835
1.9763 -3.0752 -2.0021 0.9835
2.2937 -2.8463 -2.0021 0.9835
2.4909 -2.6754 -2.0021 0.9835
2.7626 -2.3938 -2.0021 0.9835
2.8462 -2.2937 -2.0021 0.9835
2.9263 -2.1906 -2.0021 0.9835
3.0026 -2.0847 -2.0021 0.9835
3.0751 -1.9762 -2.0020 0.9835
3.3250 -1.5185 -2.0020 0.9835
3.4248 -1.2774 -2.0020 0.9835
3.5071 -1.0298 -2.0020 0.9835
3.5416 -0.9040 -2.0020 0.9835
3.5716 -0.7770 -2.0019 0.9835
3.6458 -0.2608 -2.0019 0.9835
3.6527 -0.1305 -2.0019 0.9835
-0.9575 -0.0342 -0.5532 0.9956
-0.9537 -0.1025 -0.5538 0.9956
-0.9492 -0.1365 -0.5536 0.9956
-0.9430 -0.1701 -0.5532 0.9956
-0.9352 -0.2035 -0.5526 0.9956
-0.9259 -0.2363 -0.5517 0.9956
-0.9151 -0.2687 -0.5506 0.9956
-0.9011 -0.3361 -0.5553 0.9956
-0.8941 -0.3703 -0.5587 0.9955
-0.8364 -0.4963 -0.5615 0.9955
-0.8178 -0.5256 -0.5613 0.9955
-2.6206 -2.2708 -2.0020 0.9841
-2.4520 -2.4520 -2.0020 0.9841
-2.3629 -2.5380 -2.0020 0.9841
-2.1759 -2.7001 -2.0021 0.9841
-1.9777 -2.8484 -2.0021 0.9841
-1.8748 -2.9172 -2.0021 0.9841
-1.7695 -2.9823 -2.0021 0.9841
-1.6619 -3.0436 -2.0021 0.9841
-1.4406 -3.1544 -2.0021 0.9841
-1.0951 -3.2903 -2.0021 0.9841
-0.8576 -3.3601 -2.0021 0.9841
-0.7371 -3.3886 -2.0021 0.9841
-0.6157 -3.4127 -2.0021 0.9841
-0.4935 -3.4325 -2.0021 0.9841
-0.3707 -3.4480 -2.0021 0.9841
-0.2474 -3.4590 -2.0022 0.9841
0.1238 -3.4656 -2.0022 0.9841
0.3707 -3.4480 -2.0022 0.9841
0.4935 -3.4325 -2.0022 0.9841
0.6157 -3.4127 -2.0022 0.9841
0.7372 -3.3886 -2.0022 0.9841
0.8576 -3.3601 -2.0022 0.9841
0.9770 -3.3274 -2.0022 0.9841
1.2119 -3.2492 -2.0021 0.9841
1.3271 -3.2038 -2.0021 0.9841
1.6619 -3.0436 -2.0021 0.9841
1.7695 -2.9824 -2.0021 0.9841
1.8748 -2.9173 -2.0021 0.9841
2.3630 -2.5380 -2.0021 0.9841
2.7001 -2.1759 -2.0021 0.9841
2.8484 -1.9777 -2.0020 0.9841
3.1008 -1.5522 -2.0020 0.9841
1.8508 -0.8452 -1.1747 0.9906
1.8620 -0.7713 -1.1636 0.9907
1.8682 -0.6968 -1.1512 0.9908
1.9033 -0.6335 -1.1581 0.9908
1.9351 -0.5682 -1.1644 0.9907
1.9616 -0.5007 -1.1688 0.9907
2.0320 -0.0726 -1.1739 0.9907
