ply
format ascii 1.0
element vertex 707
property float32 x
property float32 y
property float32 z
property float32 I
end_header
-9.4647 -0.3380 -2.0019 0.9620
-9.4470 -0.6757 -2.0020 0.9620
-9.4173 -1.0125 -2.0021 0.9620
-9.3756 -1.3480 -2.0022 0.9620
-9.2564 -2.0136 -2.0024 0.9620
-8.3170 -4.5415 -2.0031 0.9620
-8.1500 -4.8356 -2.0032 0.9620
-7.9725 -5.1236 -2.0032 0.9620
-7.5872 -5.6797 -2.0034 0.9620
-6.9374 -6.4589 -2.0036 0.9620
-5.9483 -7.3814 -2.0038 0.9620
-5.1256 -7.9756 -2.0040 0.9620
-4.5438 -8.3213 -2.0041 0.9620
-4.2440 -8.4784 -2.0041 0.9620
-3.9388 -8.6246 -2.0042 0.9620
-2.3450 -9.1876 -2.0043 0.9620
-2.0156 -9.2656 -2.0044 0.9620
-0.6765 -9.4584 -2.0044 0.9620
-0.3384 -9.4765 -2.0044 0.9620
0.0000 -9.4826 -2.0044 0.9620
0.3385 -9.4765 -2.0044 0.9620
0.6765 -9.4584 -2.0044 0.9620
1.3495 -9.3859 -2.0044 0.9620
1.6836 -9.3317 -2.0044 0.9620
2.0156 -9.2656 -2.0044 0.9620
2.3450 -9.1877 -2.0043 0.9620
2.9944 -8.9967 -2.0043 0.9620
3.6285 -8.7599 -2.0042 0.9620
4.2440 -8.4784 -2.0042 0.9620
4.5438 -8.3214 -2.0041 0.9620
4.8378 -8.1537 -2.0041 0.9620
5.1256 -7.9756 -2.0040 0.9620
5.6813 -7.5893 -2.0039 0.9620
5.9484 -7.3814 -2.0039 0.9620
6.4594 -6.9379 -2.0037 0.9620
7.1633 -6.2070 -2.0035 0.9620
7.7849 -5.4051 -2.0033 0.9620
7.9726 -5.1236 -2.0032 0.9620
8.1500 -4.8356 -2.0032 0.9620
8.3171 -4.5415 -2.0031 0.9620
8.7538 -3.6259 -2.0028 0.9620
8.8773 -3.3111 -2.0028 0.9620
8.9894 -2.9920 -2.0027 0.9620
9.2565 -2.0136 -2.0024 0.9620
9.3221 -1.6819 -2.0023 0.9620
9.4472 -0.6757 -2.0020 0.9620
9.4648 -0.3380 -2.0019 0.9620
-8.5176 -0.0000 -2.0018 0.9656
-8.4699 -0.9106 -2.0021 0.9656
-8.3250 -1.8110 -2.0023 0.9656
-8.2554 -2.1071 -2.0024 0.9656
-8.0847 -2.6908 -2.0026 0.9656
-7.8727 -3.2610 -2.0027 0.9656
-7.4799 -4.0843 -2.0029 0.9656
-7.3296 -4.3489 -2.0030 0.9656
-7.1700 -4.6079 -2.0031 0.9656
-7.0012 -4.8610 -2.0032 0.9656
-6.8234 -5.1080 -2.0032 0.9656
-6.4421 -5.5821 -2.0034 0.9656
-6.2389 -5.8087 -2.0034 0.9656
-6.0278 -6.0278 -2.0035 0.9656
-5.5827 -6.4428 -2.0036 0.9656
-5.3494 -6.6382 -2.0036 0.9656
-5.1092 -6.8250 -2.0037 0.9656
-4.8624 -7.0032 -2.0037 0.9656
-3.8166 -7.6246 -2.0039 0.9656
-3.2631 -7.8777 -2.0040 0.9656
-2.4024 -8.1817 -2.0041 0.9656
-2.1088 -8.2623 -2.0041 0.9656
-1.5141 -8.3919 -2.0041 0.9656
-1.2136 -8.4406 -2.0041 0.9656
-0.6083 -8.5058 -2.0042 0.9656
0.0000 -8.5275 -2.0042 0.9656
0.9116 -8.4786 -2.0042 0.9656
1.2136 -8.4406 -2.0041 0.9656
1.8126 -8.3324 -2.0041 0.9656
2.1088 -8.2623 -2.0041 0.9656
2.9799 -7.9893 -2.0040 0.9656
3.2631 -7.8777 -2.0040 0.9656
3.5421 -7.7561 -2.0040 0.9656
4.0862 -7.4834 -2.0039 0.9656
4.8625 -7.0033 -2.0038 0.9656
5.1092 -6.8251 -2.0037 0.9656
5.3494 -6.6382 -2.0037 0.9656
5.5828 -6.4429 -2.0036 0.9656
5.8090 -6.2393 -2.0036 0.9656
6.0278 -6.0278 -2.0035 0.9656
6.2390 -5.8087 -2.0034 0.9656
6.6371 -5.3485 -2.0033 0.9656
7.1700 -4.6079 -2.0031 0.9656
7.3297 -4.3489 -2.0030 0.9656
7.7517 -3.5401 -2.0028 0.9656
7.8728 -3.2610 -2.0027 0.9656
7.9839 -2.9778 -2.0027 0.9656
8.1753 -2.4005 -2.0025 0.9656
8.2555 -2.1071 -2.0024 0.9656
8.3251 -1.8110 -2.0023 0.9656
8.3841 -1.5126 -2.0023 0.9656
8.4324 -1.2124 -2.0022 0.9656
8.4699 -0.9106 -2.0021 0.9656
8.4967 -0.6077 -2.0020 0.9656
-7.7269 -0.2760 -2.0019 0.9686
-7.7124 -0.5516 -2.0020 0.9686
-7.6881 -0.8266 -2.0021 0.9686
-7.6540 -1.1005 -2.0021 0.9686
-7.6101 -1.3730 -2.0022 0.9686
-7.5565 -1.6438 -2.0023 0.9686
-7.4933 -1.9125 -2.0024 0.9686
-7.1459 -2.9599 -2.0026 0.9685
-7.0359 -3.2132 -2.0027 0.9685
-6.1933 -4.6363 -2.0031 0.9685
-5.8471 -5.0666 -2.0032 0.9685
-5.4711 -5.4711 -2.0033 0.9685
-5.2725 -5.6630 -2.0034 0.9685
-5.0671 -5.8478 -2.0034 0.9685
-4.8553 -6.0251 -2.0035 0.9685
-4.4133 -6.3564 -2.0036 0.9685
-3.7088 -6.7921 -2.0037 0.9685
-3.4640 -6.9203 -2.0037 0.9685
-3.2149 -7.0396 -2.0038 0.9685
-2.9616 -7.1500 -2.0038 0.9685
-2.7046 -7.2512 -2.0038 0.9685
-1.9140 -7.4991 -2.0039 0.9685
-1.6451 -7.5627 -2.0039 0.9685
-1.3742 -7.6166 -2.0039 0.9685
-1.1015 -7.6608 -2.0039 0.9685
-0.5521 -7.7200 -2.0039 0.9685
-0.2763 -7.7348 -2.0040 0.9685
1.1015 -7.6608 -2.0039 0.9685
1.6452 -7.5627 -2.0039 0.9685
1.9140 -7.4991 -2.0039 0.9685
2.1804 -7.4259 -2.0039 0.9685
2.4441 -7.3432 -2.0038 0.9685
2.7046 -7.2512 -2.0038 0.9685
2.9616 -7.1500 -2.0038 0.9685
3.2149 -7.0396 -2.0038 0.9685
3.4641 -6.9203 -2.0037 0.9685
3.7088 -6.7921 -2.0037 0.9685
3.9488 -6.6553 -2.0037 0.9685
4.6373 -6.1947 -2.0035 0.9685
4.8553 -6.0251 -2.0035 0.9685
5.0672 -5.8478 -2.0034 0.9685
5.4711 -5.4711 -2.0033 0.9685
5.6628 -5.2722 -2.0033 0.9685
5.8472 -5.0666 -2.0032 0.9685
6.1934 -4.6363 -2.0031 0.9685
6.5079 -4.1824 -2.0030 0.9685
6.9171 -3.4624 -2.0028 0.9685
7.0360 -3.2132 -2.0027 0.9685
7.1460 -2.9599 -2.0027 0.9685
7.2468 -2.7029 -2.0026 0.9685
7.3384 -2.4424 -2.0025 0.9685
7.4934 -1.9126 -2.0024 0.9686
7.6102 -1.3730 -2.0022 0.9686
7.6882 -0.8265 -2.0021 0.9686
7.7125 -0.5516 -2.0020 0.9686
7.7270 -0.2760 -2.0019 0.9686
-7.0713 0.0000 -2.0018 0.9710
-7.0670 -0.2524 -2.0019 0.9710
-7.0315 -0.7560 -2.0020 0.9710
-6.9601 -1.2557 -2.0022 0.9710
-6.7867 -1.9928 -2.0024 0.9710
-6.6277 -2.4720 -2.0025 0.9710
-6.5354 -2.7071 -2.0026 0.9710
-6.4349 -2.9387 -2.0026 0.9710
-6.2092 -3.3905 -2.0028 0.9710
-5.9519 -3.8250 -2.0029 0.9710
-5.5093 -4.4397 -2.0030 0.9710
-5.1788 -4.8217 -2.0032 0.9710
-4.6341 -5.3480 -2.0033 0.9710
-4.4404 -5.5102 -2.0033 0.9710
-4.2409 -5.6652 -2.0034 0.9710
-3.3918 -6.2116 -2.0035 0.9710
-2.7085 -6.5389 -2.0036 0.9710
-2.2352 -6.7156 -2.0037 0.9710
-1.9941 -6.7912 -2.0037 0.9710
-1.5045 -6.9162 -2.0037 0.9710
-0.2526 -7.0736 -2.0038 0.9710
0.0000 -7.0781 -2.0038 0.9710
0.7566 -7.0375 -2.0038 0.9710
1.2567 -6.9656 -2.0037 0.9710
1.5045 -6.9162 -2.0037 0.9710
2.4734 -6.6315 -2.0037 0.9710
2.7085 -6.5389 -2.0036 0.9710
3.1680 -6.3288 -2.0036 0.9710
3.6113 -6.0865 -2.0035 0.9710
4.6341 -5.3480 -2.0033 0.9710
5.1789 -4.8217 -2.0032 0.9710
5.5094 -4.4397 -2.0031 0.9710
5.6642 -4.2401 -2.0030 0.9710
5.8117 -4.0352 -2.0029 0.9710
5.9519 -3.8250 -2.0029 0.9710
6.0845 -3.6101 -2.0028 0.9710
6.6277 -2.4720 -2.0025 0.9710
6.7868 -1.9928 -2.0024 0.9710
7.0003 -1.0065 -2.0021 0.9710
7.0671 -0.2524 -2.0019 0.9710
-6.5084 0.0000 -2.0018 0.9731
-6.5044 -0.2323 -2.0019 0.9731
-6.4060 -1.1558 -2.0022 0.9731
-6.3608 -1.3837 -2.0022 0.9731
-6.3076 -1.6099 -2.0023 0.9731
-6.2463 -1.8341 -2.0023 0.9731
-6.0999 -2.2752 -2.0025 0.9731
-5.9224 -2.7047 -2.0026 0.9731
-5.4778 -3.5204 -2.0028 0.9731
-5.3488 -3.7137 -2.0028 0.9731
-5.0705 -4.0861 -2.0030 0.9731
-4.9216 -4.2645 -2.0030 0.9731
-4.7663 -4.4376 -2.0030 0.9731
-4.6050 -4.6050 -2.0031 0.9731
-2.9156 -5.8246 -2.0034 0.9731
-1.6109 -6.3116 -2.0036 0.9731
-1.1566 -6.4106 -2.0036 0.9731
-0.6963 -6.4768 -2.0036 0.9731
-0.4647 -6.4975 -2.0036 0.9731
-0.2325 -6.5100 -2.0036 0.9731
0.0000 -6.5142 -2.0036 0.9731
0.2325 -6.5100 -2.0036 0.9731
0.6963 -6.4768 -2.0036 0.9731
0.9271 -6.4478 -2.0036 0.9731
1.6110 -6.3117 -2.0036 0.9731
2.0571 -6.1805 -2.0035 0.9731
2.4927 -6.0179 -2.0035 0.9731
2.7059 -5.9250 -2.0035 0.9731
2.9156 -5.8246 -2.0034 0.9731
3.3236 -5.6016 -2.0034 0.9731
3.9031 -5.2139 -2.0033 0.9731
4.4378 -4.7665 -2.0031 0.9731
4.6050 -4.6050 -2.0031 0.9731
4.7664 -4.4376 -2.0031 0.9731
4.9216 -4.2646 -2.0030 0.9731
5.0705 -4.0861 -2.0030 0.9731
5.2130 -3.9024 -2.0029 0.9731
5.8223 -2.9144 -2.0026 0.9731
5.9225 -2.7047 -2.0026 0.9731
6.1000 -2.2752 -2.0025 0.9731
6.1771 -2.0559 -2.0024 0.9731
6.2463 -1.8341 -2.0024 0.9731
6.3609 -1.3837 -2.0022 0.9731
6.4060 -1.1558 -2.0022 0.9731
6.4430 -0.9264 -2.0021 0.9731
6.4717 -0.6958 -2.0020 0.9731
6.5045 -0.2323 -2.0019 0.9731
-6.0223 0.0000 -2.0018 0.9749
-6.0186 -0.2149 -2.0019 0.9749
-5.9883 -0.6438 -2.0020 0.9749
-5.9617 -0.8572 -2.0021 0.9749
-5.8364 -1.4896 -2.0022 0.9749
-5.7797 -1.6971 -2.0023 0.9749
-5.7156 -1.9023 -2.0024 0.9749
-5.6442 -2.1052 -2.0024 0.9749
-5.4799 -2.5026 -2.0025 0.9749
-5.3872 -2.6967 -2.0026 0.9749
-5.1814 -3.0743 -2.0027 0.9749
-4.9491 -3.4362 -2.0028 0.9749
-4.6916 -3.7807 -2.0029 0.9749
-4.2609 -4.2609 -2.0030 0.9749
-4.1061 -4.4103 -2.0030 0.9749
-3.7812 -4.6922 -2.0031 0.9749
-2.8883 -5.2894 -2.0033 0.9749
-2.5036 -5.4821 -2.0033 0.9749
-2.3064 -5.5681 -2.0034 0.9749
-2.1062 -5.6469 -2.0034 0.9749
-1.9033 -5.7185 -2.0034 0.9749
-1.0701 -5.9314 -2.0035 0.9749
-0.8578 -5.9658 -2.0035 0.9749
0.4300 -6.0119 -2.0035 0.9749
0.8578 -5.9658 -2.0035 0.9749
1.9033 -5.7186 -2.0034 0.9749
2.3064 -5.5681 -2.0034 0.9749
2.6977 -5.3892 -2.0033 0.9749
3.2581 -5.0698 -2.0032 0.9749
3.6114 -4.8243 -2.0032 0.9749
4.2609 -4.2609 -2.0030 0.9749
4.5538 -3.9459 -2.0029 0.9749
4.9492 -3.4363 -2.0028 0.9749
5.0685 -3.2573 -2.0027 0.9749
5.1814 -3.0743 -2.0027 0.9749
5.2877 -2.8873 -2.0026 0.9749
5.5656 -2.3054 -2.0025 0.9749
5.7156 -1.9023 -2.0024 0.9749
5.7797 -1.6971 -2.0023 0.9749
5.8364 -1.4897 -2.0023 0.9749
5.9617 -0.8572 -2.0021 0.9749
6.0073 -0.4296 -2.0020 0.9749
-5.5979 0.0000 -2.0018 0.9765
-5.5945 -0.1998 -2.0019 0.9765
-5.5662 -0.5984 -2.0020 0.9765
-5.4708 -1.1901 -2.0022 0.9765
-5.3723 -1.5774 -2.0023 0.9765
-5.1733 -2.1428 -2.0024 0.9765
-5.0936 -2.3262 -2.0025 0.9765
-5.0075 -2.5065 -2.0025 0.9765
-4.9149 -2.6838 -2.0026 0.9765
-4.7112 -3.0277 -2.0027 0.9765
-4.3608 -3.5142 -2.0028 0.9765
-3.6679 -4.2330 -2.0030 0.9765
-3.5146 -4.3613 -2.0030 0.9765
-3.1946 -4.6011 -2.0031 0.9765
-3.0284 -4.7122 -2.0031 0.9765
-2.6846 -4.9164 -2.0032 0.9765
-2.3271 -5.0955 -2.0032 0.9765
-2.1437 -5.1754 -2.0033 0.9765
-1.9577 -5.2487 -2.0033 0.9765
-1.7691 -5.3152 -2.0033 0.9765
-1.3854 -5.4280 -2.0033 0.9765
-1.1908 -5.4740 -2.0033 0.9765
-0.9947 -5.5131 -2.0033 0.9765
-0.5988 -5.5700 -2.0034 0.9765
-0.2000 -5.5986 -2.0034 0.9765
0.3997 -5.5879 -2.0034 0.9765
0.5988 -5.5700 -2.0034 0.9765
0.7973 -5.5451 -2.0034 0.9765
1.3854 -5.4280 -2.0033 0.9765
1.7691 -5.3153 -2.0033 0.9765
1.9577 -5.2487 -2.0033 0.9765
3.1946 -4.6011 -2.0031 0.9765
3.5146 -4.3613 -2.0030 0.9765
3.9604 -3.9604 -2.0029 0.9765
4.0992 -3.8165 -2.0029 0.9765
4.3608 -3.5142 -2.0028 0.9765
4.7112 -3.0277 -2.0027 0.9765
4.8161 -2.8575 -2.0026 0.9765
5.0937 -2.3262 -2.0025 0.9765
5.1733 -2.1428 -2.0024 0.9765
5.3127 -1.7682 -2.0023 0.9765
5.5663 -0.5984 -2.0020 0.9765
5.5839 -0.3994 -2.0020 0.9765
5.5945 -0.1998 -2.0019 0.9765
-5.2206 -0.1865 -2.0019 0.9779
-5.2107 -0.3727 -2.0019 0.9779
-5.1711 -0.7435 -2.0020 0.9779
-5.1051 -1.1105 -2.0021 0.9779
-5.0624 -1.2921 -2.0022 0.9779
-4.9575 -1.6500 -2.0023 0.9779
-4.4941 -2.6665 -2.0026 0.9779
-4.3962 -2.8253 -2.0026 0.9779
-4.1836 -3.1318 -2.0027 0.9779
-3.9497 -3.4224 -2.0028 0.9779
-3.8251 -3.5613 -2.0028 0.9779
-3.2796 -4.0697 -2.0029 0.9779
-2.9810 -4.2934 -2.0030 0.9779
-2.6672 -4.4952 -2.0031 0.9779
-2.5050 -4.5876 -2.0031 0.9779
-2.3397 -4.6742 -2.0031 0.9779
-2.1714 -4.7548 -2.0031 0.9779
-1.6508 -4.9598 -2.0032 0.9779
-1.4727 -5.0156 -2.0032 0.9779
-0.9281 -5.1444 -2.0032 0.9779
-0.5588 -5.1975 -2.0033 0.9779
-0.3729 -5.2142 -2.0033 0.9779
-0.1866 -5.2242 -2.0033 0.9779
0.0000 -5.2275 -2.0033 0.9779
0.5588 -5.1975 -2.0033 0.9779
0.7440 -5.1742 -2.0033 0.9779
0.9282 -5.1444 -2.0032 0.9779
1.1112 -5.1079 -2.0032 0.9779
2.0004 -4.8293 -2.0032 0.9779
2.5050 -4.5877 -2.0031 0.9779
3.1323 -4.1842 -2.0030 0.9779
3.4227 -3.9500 -2.0029 0.9779
3.6956 -3.6956 -2.0029 0.9779
3.8251 -3.5613 -2.0028 0.9779
3.9497 -3.4224 -2.0028 0.9779
4.1836 -3.1318 -2.0027 0.9779
4.5864 -2.5043 -2.0025 0.9779
4.7531 -2.1707 -2.0024 0.9779
4.8956 -1.8260 -2.0023 0.9779
4.9576 -1.6500 -2.0023 0.9779
5.0132 -1.4720 -2.0023 0.9779
5.0624 -1.2921 -2.0022 0.9779
5.1052 -1.1106 -2.0022 0.9779
5.1414 -0.9276 -2.0021 0.9779
5.1942 -0.5584 -2.0020 0.9779
5.2107 -0.3727 -2.0020 0.9779
-1.8977 0.0000 -0.7767 0.9918
-1.9524 -0.1396 -0.8011 0.9916
-2.1703 -0.3916 -0.9026 0.9905
-4.7801 -1.0398 -2.0021 0.9791
-4.6939 -1.3783 -2.0022 0.9791
-4.5200 -1.8722 -2.0023 0.9791
-4.4504 -2.0324 -2.0024 0.9791
-4.2079 -2.4967 -2.0025 0.9791
-4.0192 -2.7906 -2.0026 0.9791
-3.8101 -3.0704 -2.0027 0.9791
-3.6981 -3.2044 -2.0027 0.9791
-3.5815 -3.3345 -2.0027 0.9791
-3.4602 -3.4602 -2.0028 0.9791
-3.3346 -3.5816 -2.0028 0.9791
-2.9327 -3.9177 -2.0029 0.9791
-2.4973 -4.2089 -2.0030 0.9791
-2.3455 -4.2954 -2.0030 0.9791
-1.5456 -4.6438 -2.0031 0.9791
-1.3789 -4.6961 -2.0031 0.9791
-1.0404 -4.7825 -2.0031 0.9791
-0.8690 -4.8166 -2.0032 0.9791
-0.6966 -4.8446 -2.0032 0.9791
-0.5232 -4.8664 -2.0032 0.9791
0.0000 -4.8944 -2.0032 0.9791
0.3492 -4.8820 -2.0032 0.9791
0.6966 -4.8446 -2.0032 0.9791
0.8690 -4.8166 -2.0032 0.9791
1.2104 -4.7423 -2.0031 0.9791
1.3789 -4.6961 -2.0031 0.9791
1.5456 -4.6438 -2.0031 0.9791
1.8729 -4.5216 -2.0031 0.9791
2.0331 -4.4519 -2.0031 0.9791
2.3455 -4.2954 -2.0030 0.9791
2.6459 -4.1170 -2.0030 0.9791
2.9328 -3.9177 -2.0029 0.9791
3.3346 -3.5816 -2.0028 0.9791
3.4602 -3.4602 -2.0028 0.9791
4.0193 -2.7906 -2.0026 0.9791
4.1162 -2.6453 -2.0026 0.9791
4.2943 -2.3448 -2.0025 0.9791
4.3751 -2.1900 -2.0024 0.9791
4.4504 -2.0324 -2.0024 0.9791
4.5200 -1.8723 -2.0024 0.9791
4.5839 -1.7097 -2.0023 0.9791
4.6419 -1.5450 -2.0023 0.9791
4.6940 -1.3783 -2.0022 0.9791
4.7400 -1.2098 -2.0022 0.9791
4.7801 -1.0398 -2.0021 0.9791
4.8419 -0.6962 -2.0020 0.9791
4.8635 -0.5229 -2.0020 0.9791
4.8790 -0.3489 -2.0019 0.9791
4.8882 -0.1746 -2.0019 0.9791
-1.5293 -0.1094 -0.6682 0.9933
-1.5249 -0.1639 -0.6684 0.9933
-1.5151 -0.2178 -0.6671 0.9933
-1.5001 -0.2707 -0.6643 0.9934
-1.5485 -0.3952 -0.6965 0.9931
-1.5707 -0.4612 -0.7134 0.9929
-1.5984 -0.5962 -0.7435 0.9926
-4.1793 -1.9086 -2.0024 0.9802
-4.1086 -2.0566 -2.0024 0.9802
-3.6785 -2.7537 -2.0026 0.9801
-3.5779 -2.8833 -2.0026 0.9801
-3.3633 -3.1313 -2.0027 0.9801
-3.0094 -3.4730 -2.0028 0.9801
-2.6210 -3.7750 -2.0029 0.9801
-2.4846 -3.8662 -2.0029 0.9801
-2.2025 -4.0337 -2.0029 0.9801
-2.0572 -4.1098 -2.0030 0.9801
-1.9092 -4.1806 -2.0030 0.9801
-1.2949 -4.4099 -2.0030 0.9801
-0.9770 -4.4911 -2.0031 0.9801
-0.8161 -4.5231 -2.0031 0.9801
-0.4913 -4.5698 -2.0031 0.9801
-0.3279 -4.5845 -2.0031 0.9801
-0.1641 -4.5932 -2.0031 0.9801
0.0000 -4.5962 -2.0031 0.9801
0.4913 -4.5698 -2.0031 0.9801
1.1366 -4.4533 -2.0031 0.9801
2.2026 -4.0337 -2.0029 0.9801
2.6210 -3.7750 -2.0029 0.9801
2.7541 -3.6790 -2.0028 0.9801
2.8836 -3.5783 -2.0028 0.9801
3.1314 -3.3634 -2.0028 0.9801
3.3633 -3.1313 -2.0027 0.9801
3.4728 -3.0092 -2.0027 0.9801
3.5780 -2.8833 -2.0026 0.9801
3.6785 -2.7537 -2.0026 0.9801
3.9516 -2.3446 -2.0025 0.9802
4.1086 -2.0566 -2.0024 0.9802
4.1793 -1.9086 -2.0024 0.9802
4.2447 -1.7582 -2.0023 0.9802
4.3047 -1.6055 -2.0023 0.9802
4.5470 -0.6537 -2.0020 0.9802
4.5673 -0.4910 -2.0020 0.9802
4.5818 -0.3277 -2.0019 0.9802
4.5905 -0.1639 -2.0019 0.9802
-1.3333 0.0000 -0.6172 0.9941
-1.3376 -0.0478 -0.6195 0.9941
-1.3351 -0.1435 -0.6215 0.9941
-1.3273 -0.1908 -0.6207 0.9941
-1.3013 -0.2831 -0.6164 0.9941
-1.3324 -0.4970 -0.6582 0.9938
-1.3263 -0.5494 -0.6645 0.9937
-3.7968 -2.0732 -2.0024 0.9811
-3.6393 -2.3388 -2.0025 0.9811
-3.4633 -2.5926 -2.0025 0.9811
-3.0593 -3.0593 -2.0027 0.9811
-2.9482 -3.1666 -2.0027 0.9811
-2.8333 -3.2698 -2.0027 0.9811
-2.5929 -3.4637 -2.0028 0.9811
-2.0737 -3.7977 -2.0029 0.9811
-1.6559 -3.9977 -2.0029 0.9811
-1.5122 -4.0543 -2.0029 0.9811
-1.3665 -4.1057 -2.0030 0.9811
-1.2191 -4.1519 -2.0030 0.9811
-0.9198 -4.2283 -2.0030 0.9811
-0.7683 -4.2585 -2.0030 0.9811
-0.6158 -4.2832 -2.0030 0.9811
-0.4626 -4.3024 -2.0030 0.9811
-0.3087 -4.3162 -2.0030 0.9811
-0.1544 -4.3245 -2.0030 0.9811
0.0000 -4.3273 -2.0030 0.9811
0.1545 -4.3245 -2.0030 0.9811
0.4626 -4.3024 -2.0030 0.9811
0.9198 -4.2283 -2.0030 0.9811
1.3665 -4.1057 -2.0030 0.9811
1.6559 -3.9977 -2.0029 0.9811
1.7975 -3.9360 -2.0029 0.9811
2.0737 -3.7977 -2.0029 0.9811
2.3393 -3.6400 -2.0028 0.9811
2.5929 -3.4637 -2.0028 0.9811
2.8333 -3.2698 -2.0027 0.9811
3.2697 -2.8332 -2.0026 0.9811
3.3687 -2.7146 -2.0026 0.9811
3.8683 -1.9363 -2.0024 0.9811
3.9349 -1.7970 -2.0023 0.9811
3.9964 -1.6554 -2.0023 0.9811
4.1042 -1.3660 -2.0022 0.9811
4.1910 -1.0697 -2.0021 0.9811
4.2264 -0.9194 -2.0021 0.9811
4.2565 -0.7679 -2.0021 0.9811
4.2811 -0.6155 -2.0020 0.9811
4.3139 -0.3085 -2.0019 0.9811
-1.1954 0.0000 -0.5864 0.9947
-1.1791 -0.2127 -0.5877 0.9947
-1.1578 -0.2955 -0.5861 0.9947
-1.1590 -0.3403 -0.5925 0.9946
-1.1579 -0.3854 -0.5986 0.9946
-1.1543 -0.4305 -0.6043 0.9945
-1.1400 -0.5206 -0.6148 0.9944
-1.1292 -0.5652 -0.6194 0.9944
-1.1113 -0.6068 -0.6211 0.9944
-3.4342 -2.2070 -2.0024 0.9820
-3.3533 -2.3282 -2.0025 0.9820
-3.2681 -2.4465 -2.0025 0.9820
-3.1788 -2.5616 -2.0025 0.9820
-3.0854 -2.6735 -2.0026 0.9820
-2.5618 -3.1790 -2.0027 0.9820
-1.9568 -3.5836 -2.0028 0.9820
-1.0098 -3.9564 -2.0029 0.9820
-0.8680 -3.9899 -2.0029 0.9820
-0.5811 -4.0417 -2.0029 0.9820
-0.2913 -4.0729 -2.0030 0.9820
0.1458 -4.0807 -2.0030 0.9820
0.4365 -4.0599 -2.0030 0.9820
1.0098 -3.9564 -2.0029 0.9820
1.1504 -3.9178 -2.0029 0.9820
1.5625 -3.7723 -2.0029 0.9820
1.6962 -3.7141 -2.0029 0.9820
1.9568 -3.5836 -2.0028 0.9820
2.3286 -3.3538 -2.0028 0.9820
2.5618 -3.1790 -2.0027 0.9820
2.7820 -2.9881 -2.0027 0.9820
2.9880 -2.7819 -2.0026 0.9820
3.1788 -2.5616 -2.0025 0.9820
3.2681 -2.4465 -2.0025 0.9820
3.3533 -2.3282 -2.0025 0.9820
3.4342 -2.2070 -2.0024 0.9820
3.5108 -2.0830 -2.0024 0.9820
3.5828 -1.9564 -2.0024 0.9820
3.6503 -1.8272 -2.0023 0.9820
3.8729 -1.2890 -2.0022 0.9820
3.9164 -1.1499 -2.0022 0.9820
3.9883 -0.8676 -2.0021 0.9820
4.0785 -0.1457 -2.0019 0.9820
-1.1024 -0.1185 -0.5752 0.9950
-1.0974 -0.1578 -0.5752 0.9950
-1.0905 -0.1967 -0.5749 0.9950
-1.0636 -0.3123 -0.5751 0.9950
-1.0514 -0.4355 -0.5904 0.9949
-1.0298 -0.5155 -0.5974 0.9948
-3.1706 -2.2014 -2.0024 0.9828
-2.9172 -2.5278 -2.0025 0.9828
-2.8252 -2.6304 -2.0026 0.9828
-2.7296 -2.7296 -2.0026 0.9828
-2.5280 -2.9174 -2.0026 0.9828
-2.3134 -3.0904 -2.0027 0.9828
-2.2017 -3.1710 -2.0027 0.9828
-2.0871 -3.2476 -2.0027 0.9828
-1.6037 -3.5117 -2.0028 0.9828
-1.3492 -3.6172 -2.0028 0.9828
-0.6855 -3.7994 -2.0029 0.9828
-0.5494 -3.8215 -2.0029 0.9828
-0.4127 -3.8386 -2.0029 0.9828
0.0000 -3.8608 -2.0029 0.9828
0.1378 -3.8583 -2.0029 0.9828
0.4127 -3.8387 -2.0029 0.9828
0.5494 -3.8215 -2.0029 0.9828
0.8207 -3.7725 -2.0029 0.9828
0.9548 -3.7408 -2.0029 0.9828
1.3492 -3.6172 -2.0028 0.9828
1.9699 -3.3201 -2.0028 0.9828
2.0871 -3.2476 -2.0027 0.9828
2.3134 -3.0904 -2.0027 0.9828
2.5280 -2.9174 -2.0026 0.9828
2.6304 -2.8253 -2.0026 0.9828
2.7296 -2.7296 -2.0026 0.9828
2.8252 -2.6304 -2.0026 0.9828
2.9173 -2.5278 -2.0025 0.9828
3.0056 -2.4220 -2.0025 0.9828
3.1706 -2.2014 -2.0024 0.9828
3.2471 -2.0868 -2.0024 0.9828
3.3876 -1.8498 -2.0024 0.9828
3.4514 -1.7276 -2.0023 0.9828
3.5108 -1.6033 -2.0023 0.9828
3.7394 -0.9544 -2.0021 0.9828
3.7710 -0.8203 -2.0021 0.9828
3.7978 -0.6852 -2.0020 0.9828
3.8198 -0.5492 -2.0020 0.9828
3.8491 -0.2753 -2.0019 0.9828
3.8564 -0.1377 -2.0019 0.9828
-1.0276 -0.0367 -0.5632 0.9953
-1.0265 -0.0734 -0.5637 0.9953
-1.0236 -0.1100 -0.5639 0.9953
-1.0190 -0.1465 -0.5638 0.9953
-1.0124 -0.1826 -0.5634 0.9953
-1.0039 -0.2184 -0.5627 0.9953
-0.9938 -0.2537 -0.5618 0.9953
-0.9820 -0.2883 -0.5606 0.9953
-0.9677 -0.4008 -0.5737 0.9952
-0.9580 -0.4375 -0.5768 0.9952
-2.9268 -2.1910 -2.0024 0.9835
-2.8468 -2.2941 -2.0025 0.9835
-2.1912 -2.9271 -2.0026 0.9835
-1.9769 -3.0760 -2.0027 0.9835
-1.7524 -3.2093 -2.0027 0.9835
-1.6368 -3.2698 -2.0027 0.9835
-1.5190 -3.3262 -2.0027 0.9835
-1.3993 -3.3783 -2.0028 0.9835
-1.1548 -3.4696 -2.0028 0.9835
-1.0302 -3.5086 -2.0028 0.9835
-0.9043 -3.5431 -2.0028 0.9835
-0.3909 -3.6358 -2.0028 0.9835
-0.1305 -3.6545 -2.0028 0.9835
0.0000 -3.6568 -2.0028 0.9835
0.2609 -3.6475 -2.0028 0.9835
0.3909 -3.6358 -2.0028 0.9835
0.6493 -3.5987 -2.0028 0.9835
0.9043 -3.5431 -2.0028 0.9835
1.0302 -3.5086 -2.0028 0.9835
1.1548 -3.4696 -2.0028 0.9835
1.3994 -3.3783 -2.0028 0.9835
1.5190 -3.3262 -2.0028 0.9835
1.6368 -3.2698 -2.0027 0.9835
1.7524 -3.2093 -2.0027 0.9835
1.8658 -3.1447 -2.0027 0.9835
2.1912 -2.9271 -2.0026 0.9835
2.2943 -2.8470 -2.0026 0.9835
2.5854 -2.5854 -2.0026 0.9835
2.6760 -2.4914 -2.0025 0.9835
2.8468 -2.2941 -2.0025 0.9835
3.0031 -2.0851 -2.0024 0.9835
3.1441 -1.8655 -2.0024 0.9835
3.2087 -1.7521 -2.0023 0.9835
3.2691 -1.6364 -2.0023 0.9835
3.3254 -1.5186 -2.0023 0.9835
3.4685 -1.1544 -2.0022 0.9835
3.5972 -0.6490 -2.0020 0.9835
3.6180 -0.5202 -2.0020 0.9835
3.6342 -0.3907 -2.0020 0.9835
3.6527 -0.1304 -2.0019 0.9835
-0.9575 -0.0342 -0.5532 0.9956
-0.9430 -0.1701 -0.5532 0.9956
-0.9353 -0.2035 -0.5526 0.9956
-0.9259 -0.2363 -0.5517 0.9956
-0.9151 -0.2687 -0.5506 0.9956
-0.9057 -0.3015 -0.5511 0.9956
-0.8941 -0.3703 -0.5587 0.9955
-0.8178 -0.5256 -0.5613 0.9955
-0.7671 -0.6182 -0.5688 0.9955
-2.2714 -2.6213 -2.0026 0.9841
-2.1764 -2.7008 -2.0026 0.9841
-2.0787 -2.7768 -2.0026 0.9841
-1.9782 -2.8492 -2.0026 0.9841
-1.8753 -2.9180 -2.0026 0.9841
-1.7700 -2.9831 -2.0027 0.9841
-1.6624 -3.0444 -2.0027 0.9841
-1.5527 -3.1019 -2.0027 0.9841
-1.4410 -3.1553 -2.0027 0.9841
-0.4937 -3.4336 -2.0028 0.9841
0.1238 -3.4667 -2.0028 0.9841
0.3708 -3.4490 -2.0028 0.9841
0.4937 -3.4336 -2.0028 0.9841
0.6159 -3.4138 -2.0028 0.9841
0.7374 -3.3896 -2.0028 0.9841
0.8579 -3.3611 -2.0028 0.9841
0.9773 -3.3284 -2.0028 0.9841
1.0955 -3.2913 -2.0027 0.9841
1.2122 -3.2501 -2.0027 0.9841
1.4410 -3.1553 -2.0027 0.9841
1.5527 -3.1019 -2.0027 0.9841
1.6624 -3.0444 -2.0027 0.9841
1.7700 -2.9831 -2.0027 0.9841
1.8753 -2.9180 -2.0026 0.9841
1.9782 -2.8492 -2.0026 0.9841
2.2714 -2.6213 -2.0026 0.9841
2.3635 -2.5386 -2.0025 0.9841
2.5385 -2.3634 -2.0025 0.9841
2.7006 -2.1763 -2.0024 0.9841
2.7765 -2.0785 -2.0024 0.9841
2.9176 -1.8750 -2.0024 0.9841
2.9826 -1.7697 -2.0023 0.9841
3.0439 -1.6621 -2.0023 0.9841
3.1012 -1.5523 -2.0023 0.9841
1.8508 -0.8452 -1.1747 0.9906
1.9616 -0.5007 -1.1688 0.9907
1.9883 -0.4325 -1.1748 0.9906
2.0366 -0.2190 -1.1826 0.9906
2.0359 -0.1456 -1.1784 0.9906
2.0320 -0.0726 -1.1739 0.9907
