ply
format ascii 1.0
element vertex 817
property float32 x
property float32 y
property float32 z
property float32 I
end_header
3.0765 6.7365 1.3058 0.9704
2.8031 6.7672 1.2916 0.9707
2.6347 7.0638 1.3294 0.9698
3.0757 6.7347 1.1342 0.9705
2.8024 6.7655 1.1218 0.9708
2.6362 7.0678 1.1556 0.9699
3.0741 6.7313 0.7946 0.9707
2.8002 6.7603 0.6194 0.9711
2.7988 6.7569 0.2884 0.9711
3.0709 6.7244 0.1249 0.9709
2.7981 6.7552 0.1235 0.9712
2.6465 7.0955 -0.0426 0.9702
3.0694 6.7210 -0.2080 0.9709
2.6480 7.0995 -0.2134 0.9701
8.4812 4.6311 -0.4901 0.9620
3.5366 7.0652 -0.4007 0.9689
3.0686 6.7193 -0.3746 0.9708
2.7995 6.7586 -0.3710 0.9711
2.6494 7.1034 -0.3845 0.9701
8.4793 4.6301 -0.7084 0.9620
3.5140 7.0200 -0.5756 0.9690
3.0678 6.7176 -0.5415 0.9708
2.8010 6.7622 -0.5367 0.9711
8.4775 4.6291 -0.9273 0.9619
7.5358 4.8429 -0.8600 0.9646
3.4915 6.9751 -0.7489 0.9691
3.0671 6.7159 -0.7088 0.9708
8.4604 4.6197 -1.1450 0.9619
7.0751 4.9123 -1.0231 0.9659
3.0663 6.7142 -0.8768 0.9707
2.6539 7.1154 -0.9021 0.9699
8.3463 4.5574 -1.3474 0.9623
7.4805 4.8075 -1.2599 0.9647
3.4472 6.8866 -1.0912 0.9694
3.0655 6.7125 -1.0456 0.9706
2.8056 6.7733 -1.0388 0.9708
8.3135 4.5395 -1.5604 0.9623
7.0750 4.9123 -1.4189 0.9657
4.2093 6.5497 -1.2826 0.9689
3.4252 6.8428 -1.2606 0.9695
2.8071 6.7770 -1.2084 0.9707
2.6569 7.1235 -1.2525 0.9696
2.1257 8.3284 -1.4160 0.9658
8.2820 4.5223 -1.7736 0.9623
7.4271 6.4356 -1.8472 0.9608
7.1923 6.6962 -1.8471 0.9608
6.9483 6.9483 -1.8470 0.9608
5.8876 7.8649 -1.8466 0.9608
3.4034 6.7992 -1.4291 0.9695
2.1299 8.3448 -1.6188 0.9656
1.7437 9.6648 -1.8459 0.9608
1.3976 9.7208 -1.8459 0.9608
1.0498 9.7644 -1.8459 0.9608
0.7006 9.7956 -1.8459 0.9608
0.3505 9.8143 -1.8459 0.9608
-0.0000 9.8205 -1.8459 0.9608
-0.3505 9.8143 -1.8459 0.9608
-0.7006 9.7955 -1.8459 0.9608
-1.0498 9.7644 -1.8459 0.9608
-1.3976 9.7208 -1.8459 0.9608
-1.7437 9.6648 -1.8459 0.9608
-2.0876 9.5965 -1.8460 0.9608
-2.4288 9.5161 -1.8460 0.9608
-2.7670 9.4235 -1.8460 0.9608
-3.4324 9.2025 -1.8461 0.9608
-4.7076 8.6214 -1.8463 0.9608
-5.3111 8.2642 -1.8465 0.9608
-6.1649 7.6501 -1.8467 0.9608
-6.4343 7.4255 -1.8468 0.9608
-6.6955 7.1915 -1.8469 0.9608
-6.9483 6.9483 -1.8470 0.9608
9.4637 0.3380 -2.0017 0.9620
9.3716 1.3474 -2.0013 0.9620
9.0821 2.6668 -2.0008 0.9620
7.9848 3.9969 -1.8875 0.9642
7.6886 4.1983 -1.8517 0.9648
7.5184 4.4609 -1.8479 0.9649
7.1803 4.9854 -1.8477 0.9649
6.8056 5.4843 -1.8475 0.9649
6.6052 5.7234 -1.8474 0.9649
6.3964 5.9553 -1.8474 0.9649
6.1795 6.1795 -1.8473 0.9649
5.7224 6.6040 -1.8471 0.9649
5.4828 6.8037 -1.8470 0.9649
2.7539 6.0303 -1.4013 0.9733
2.5093 6.0579 -1.3860 0.9735
1.9807 7.7604 -1.6930 0.9678
1.8567 8.5352 -1.8464 0.9649
1.2431 8.6457 -1.8463 0.9649
0.3117 8.7289 -1.8463 0.9649
-0.3118 8.7289 -1.8463 0.9649
-0.6231 8.7122 -1.8463 0.9649
-0.9337 8.6845 -1.8463 0.9649
-1.2431 8.6457 -1.8463 0.9649
-1.5509 8.5959 -1.8463 0.9649
-3.3430 8.0707 -1.8465 0.9649
-4.4581 7.5137 -1.8468 0.9649
-4.7236 7.3500 -1.8468 0.9649
-4.9831 7.1770 -1.8469 0.9649
-5.2363 6.9948 -1.8470 0.9649
-5.7224 6.6040 -1.8471 0.9649
-7.3540 4.7261 -1.8478 0.9649
-7.6733 4.1899 -1.8480 0.9649
-8.4900 3.8773 -1.9729 0.9626
-8.7262 3.6145 -1.9965 0.9621
-8.9806 2.9890 -2.0007 0.9620
-9.1721 2.3410 -2.0009 0.9620
-9.2504 2.0123 -2.0011 0.9620
-9.3169 1.6810 -2.0012 0.9620
-9.4450 0.6755 -2.0016 0.9620
-9.4637 0.3380 -2.0017 0.9620
8.5177 0.0000 -2.0018 0.9656
8.5118 0.3040 -2.0017 0.9656
8.4950 0.6076 -2.0016 0.9656
8.4290 1.2119 -2.0014 0.9656
8.3201 1.8099 -2.0011 0.9656
8.2498 2.1056 -2.0010 0.9656
6.9544 4.1263 -1.9005 0.9673
6.6149 4.2511 -1.8480 0.9682
6.4586 4.4843 -1.8479 0.9682
6.1217 4.9332 -1.8477 0.9682
5.9414 5.1483 -1.8477 0.9682
5.7536 5.3569 -1.8476 0.9682
5.5585 5.5586 -1.8475 0.9682
5.3564 5.7532 -1.8474 0.9682
4.9319 6.1202 -1.8473 0.9682
4.0827 5.8802 -1.6824 0.9710
3.7995 5.9122 -1.6517 0.9715
3.5262 5.9431 -1.6241 0.9720
3.2615 5.9730 -1.5994 0.9724
2.2696 6.0851 -1.5264 0.9737
2.0342 6.1117 -1.5139 0.9739
1.9294 6.5708 -1.6095 0.9723
1.9312 7.5662 -1.8352 0.9684
1.6702 7.6779 -1.8467 0.9682
0.5605 7.8372 -1.8466 0.9682
-0.0000 7.8572 -1.8466 0.9682
-1.9432 7.6135 -1.8467 0.9682
-2.2138 7.5394 -1.8467 0.9682
-3.0072 7.2600 -1.8469 0.9682
-3.5176 7.0273 -1.8469 0.9682
-4.0102 6.7589 -1.8470 0.9682
-4.4825 6.4560 -1.8472 0.9682
-4.7102 6.2921 -1.8472 0.9682
-4.9319 6.1202 -1.8473 0.9682
-5.1474 5.9404 -1.8474 0.9682
-5.3564 5.7532 -1.8474 0.9682
-5.5586 5.5585 -1.8475 0.9682
-5.7537 5.3568 -1.8476 0.9682
-6.4586 4.4843 -1.8479 0.9682
-6.9667 4.1335 -1.9038 0.9673
-7.4200 4.0516 -1.9869 0.9659
-7.5961 3.8023 -1.9964 0.9657
-7.8644 3.2575 -2.0006 0.9656
-7.9761 2.9749 -2.0007 0.9656
-8.1688 2.3986 -2.0009 0.9656
-8.2497 2.1056 -2.0010 0.9656
-8.3201 1.8099 -2.0011 0.9656
-8.3799 1.5119 -2.0013 0.9656
-8.4290 1.2119 -2.0014 0.9656
-8.4674 0.9103 -2.0015 0.9656
-8.4950 0.6076 -2.0016 0.9656
-8.5117 0.3040 -2.0017 0.9656
7.7263 0.2760 -2.0017 0.9686
7.7111 0.5515 -2.0016 0.9686
7.5525 1.6430 -2.0012 0.9686
7.4887 1.9114 -2.0011 0.9686
7.4153 2.1773 -2.0010 0.9686
7.2404 2.7005 -2.0008 0.9686
6.7797 3.7020 -2.0000 0.9686
6.6310 3.9344 -1.9963 0.9686
6.4748 4.1611 -1.9928 0.9687
5.7291 4.2888 -1.8530 0.9709
5.3937 4.6736 -1.8478 0.9709
5.2232 4.8630 -1.8478 0.9709
4.6729 5.3928 -1.8476 0.9709
4.4773 5.5560 -1.8475 0.9709
3.4647 5.8394 -1.7580 0.9723
3.2046 5.8687 -1.7313 0.9727
2.9526 5.8985 -1.7079 0.9731
2.5032 6.0433 -1.6936 0.9733
2.2696 6.0851 -1.6816 0.9735
1.8428 6.2759 -1.6935 0.9733
1.5163 6.9704 -1.8470 0.9710
1.0152 7.0607 -1.8469 0.9710
0.7625 7.0924 -1.8469 0.9710
0.2546 7.1286 -1.8469 0.9710
-0.2546 7.1286 -1.8469 0.9710
-0.5089 7.1150 -1.8469 0.9710
-2.9636 6.4894 -1.8472 0.9710
-3.1934 6.3797 -1.8472 0.9710
-3.4192 6.2618 -1.8472 0.9710
-3.6406 6.1359 -1.8473 0.9710
-3.8574 6.0022 -1.8473 0.9709
-4.2760 5.7121 -1.8474 0.9709
-4.4773 5.5560 -1.8475 0.9709
-4.6729 5.3928 -1.8476 0.9709
-5.3936 4.6736 -1.8478 0.9709
-5.5572 4.4783 -1.8479 0.9709
-5.7451 4.3008 -1.8581 0.9708
-6.1083 4.2410 -1.9254 0.9697
-6.4753 4.1614 -1.9929 0.9687
-6.6316 3.9347 -1.9965 0.9686
-6.7802 3.7023 -2.0002 0.9686
-7.0286 3.2098 -2.0006 0.9686
-7.1390 2.9571 -2.0007 0.9686
-7.3325 2.4405 -2.0009 0.9686
-7.6067 1.3724 -2.0013 0.9686
-7.6513 1.1001 -2.0014 0.9686
-7.7262 0.2759 -2.0017 0.9686
7.0526 0.5044 -2.0017 0.9710
7.0298 0.7558 -2.0016 0.9710
6.9980 1.0062 -2.0015 0.9710
6.9077 1.5027 -2.0013 0.9710
6.8494 1.7482 -2.0012 0.9710
6.7823 1.9915 -2.0011 0.9710
6.7066 2.2322 -2.0010 0.9710
6.6224 2.4700 -2.0009 0.9710
6.5297 2.7047 -2.0008 0.9710
6.3195 3.1633 -2.0006 0.9710
6.2023 3.3867 -2.0005 0.9710
5.9427 3.8191 -1.9998 0.9711
5.7932 4.0223 -1.9966 0.9711
5.6372 4.2200 -1.9935 0.9712
5.3517 4.3127 -1.9457 0.9718
5.0325 4.3607 -1.8851 0.9727
4.7776 4.4481 -1.8479 0.9732
4.4478 4.7772 -1.8478 0.9732
4.2743 4.9328 -1.8477 0.9732
4.0954 5.0821 -1.8477 0.9732
3.9113 5.2248 -1.8476 0.9732
3.5284 5.4902 -1.8475 0.9732
3.3301 5.6125 -1.8475 0.9732
3.1275 5.7277 -1.8474 0.9732
2.7059 5.9252 -1.8440 0.9733
1.6137 6.3224 -1.8472 0.9732
1.1585 6.4213 -1.8472 0.9732
0.4655 6.5082 -1.8471 0.9732
0.2329 6.5207 -1.8471 0.9732
-0.0000 6.5249 -1.8471 0.9732
-0.2329 6.5207 -1.8471 0.9732
-0.9286 6.4585 -1.8472 0.9732
-1.1585 6.4213 -1.8472 0.9732
-1.6137 6.3224 -1.8472 0.9732
-2.0607 6.1914 -1.8473 0.9732
-2.2804 6.1140 -1.8473 0.9732
-2.7109 5.9359 -1.8474 0.9732
-3.1276 5.7277 -1.8474 0.9732
-3.3301 5.6125 -1.8475 0.9732
-3.5284 5.4902 -1.8475 0.9732
-3.9112 5.2248 -1.8476 0.9732
-4.0954 5.0820 -1.8477 0.9732
-4.7776 4.4481 -1.8479 0.9732
-5.0424 4.3693 -1.8888 0.9726
-5.6380 4.2206 -1.9938 0.9711
-5.7940 4.0228 -1.9968 0.9711
-6.0772 3.6058 -2.0005 0.9711
-6.3195 3.1633 -2.0006 0.9710
-6.4287 2.9359 -2.0007 0.9710
-6.5297 2.7047 -2.0008 0.9710
-6.6223 2.4700 -2.0009 0.9710
-6.7066 2.2322 -2.0010 0.9710
-6.7823 1.9915 -2.0011 0.9710
-6.8494 1.7482 -2.0012 0.9710
-6.9077 1.5027 -2.0013 0.9710
-6.9980 1.0062 -2.0015 0.9710
-7.0298 0.7558 -2.0016 0.9710
-7.0526 0.5044 -2.0016 0.9710
-7.0665 0.2524 -2.0017 0.9710
6.5084 0.0000 -2.0018 0.9731
6.5040 0.2323 -2.0018 0.9731
6.4912 0.4643 -2.0017 0.9731
6.3580 1.3831 -2.0013 0.9731
5.8167 2.9117 -2.0007 0.9731
5.5938 3.3189 -2.0006 0.9731
5.3423 3.7093 -2.0004 0.9731
5.0557 4.0742 -1.9971 0.9732
4.9005 4.2463 -1.9944 0.9732
4.1402 4.4469 -1.8688 0.9749
3.6002 4.8093 -1.8478 0.9752
3.4262 4.9346 -1.8477 0.9752
2.6888 5.3715 -1.8476 0.9752
1.8968 5.6991 -1.8475 0.9752
1.6922 5.7631 -1.8474 0.9752
1.4854 5.8197 -1.8474 0.9752
1.2767 5.8690 -1.8474 0.9752
1.0664 5.9108 -1.8474 0.9752
0.8548 5.9450 -1.8474 0.9752
0.6420 5.9717 -1.8474 0.9752
0.4285 5.9908 -1.8473 0.9752
0.2144 6.0022 -1.8473 0.9752
-0.0000 6.0061 -1.8473 0.9752
-0.8548 5.9450 -1.8474 0.9752
-1.0664 5.9108 -1.8474 0.9752
-1.2767 5.8690 -1.8474 0.9752
-1.6922 5.7631 -1.8474 0.9752
-2.2986 5.5494 -1.8475 0.9752
-2.4953 5.4639 -1.8475 0.9752
-2.6888 5.3715 -1.8476 0.9752
-2.8788 5.2722 -1.8476 0.9752
-3.0653 5.1662 -1.8477 0.9752
-3.2478 5.0536 -1.8477 0.9752
-3.4262 4.9346 -1.8477 0.9752
-3.7697 4.6779 -1.8478 0.9752
-3.9343 4.5405 -1.8479 0.9752
-4.1495 4.4569 -1.8730 0.9748
-4.4217 4.4217 -1.9234 0.9742
-5.0562 4.0745 -1.9973 0.9732
-5.2057 3.8970 -2.0001 0.9732
-5.3423 3.7092 -2.0004 0.9731
-5.9172 2.7023 -2.0008 0.9731
-6.3043 1.6091 -2.0012 0.9731
-6.4036 1.1553 -2.0014 0.9731
-6.4410 0.9261 -2.0015 0.9731
-6.4702 0.6956 -2.0016 0.9731
-6.5040 0.2323 -2.0018 0.9731
6.0065 0.4296 -2.0017 0.9749
5.9600 0.8569 -2.0015 0.9749
5.7120 1.9011 -2.0011 0.9749
5.5614 2.3036 -2.0010 0.9749
5.4755 2.5006 -2.0009 0.9749
4.6858 3.7761 -2.0004 0.9750
4.2448 4.2448 -1.9955 0.9750
3.8603 4.4550 -1.9595 0.9755
3.1705 4.5664 -1.8479 0.9768
3.0054 4.6766 -1.8478 0.9768
2.4882 4.9707 -1.8477 0.9768
2.3091 5.0563 -1.8477 0.9768
2.1271 5.1354 -1.8477 0.9768
1.7553 5.2739 -1.8476 0.9768
1.1815 5.4311 -1.8476 0.9768
0.9869 5.4698 -1.8475 0.9768
0.7910 5.5015 -1.8475 0.9768
0.3965 5.5439 -1.8475 0.9768
-0.0000 5.5580 -1.8475 0.9768
-0.1984 5.5545 -1.8475 0.9768
-0.5941 5.5262 -1.8475 0.9768
-0.7910 5.5015 -1.8475 0.9768
-1.1815 5.4311 -1.8476 0.9768
-1.3746 5.3855 -1.8476 0.9768
-1.5659 5.3331 -1.8476 0.9768
-1.7553 5.2739 -1.8476 0.9768
-1.9425 5.2079 -1.8476 0.9768
-2.1271 5.1354 -1.8477 0.9768
-2.6640 4.8788 -1.8478 0.9768
-2.8365 4.7807 -1.8478 0.9768
-3.0054 4.6766 -1.8478 0.9768
-3.6200 4.4921 -1.9177 0.9760
-3.8701 4.4664 -1.9645 0.9754
-4.0864 4.3891 -1.9934 0.9750
-4.8178 3.6065 -2.0005 0.9750
-5.3825 2.6943 -2.0008 0.9749
-5.4754 2.5006 -2.0009 0.9749
-5.5614 2.3036 -2.0010 0.9749
-5.6403 2.1037 -2.0010 0.9749
-5.7765 1.6961 -2.0012 0.9749
-5.8336 1.4889 -2.0013 0.9749
-5.9600 0.8569 -2.0015 0.9749
-6.0065 0.4296 -2.0017 0.9749
-6.0182 0.2149 -2.0018 0.9749
5.5979 0.0000 -2.0018 0.9765
5.5079 0.9937 -2.0015 0.9765
5.4687 1.1896 -2.0014 0.9765
5.4226 1.3840 -2.0013 0.9765
5.1697 2.1413 -2.0010 0.9765
5.0898 2.3244 -2.0010 0.9765
5.0034 2.5045 -2.0009 0.9765
4.9106 2.6814 -2.0008 0.9765
4.7065 3.0247 -2.0007 0.9765
4.5954 3.1906 -2.0006 0.9765
4.4785 3.3525 -2.0006 0.9765
4.0941 3.8117 -2.0004 0.9765
3.8087 4.0908 -1.9988 0.9765
3.3398 4.4614 -1.9930 0.9766
3.1289 4.5065 -1.9619 0.9770
2.6979 4.5470 -1.8907 0.9778
2.4930 4.5657 -1.8603 0.9781
2.3130 4.6207 -1.8479 0.9783
2.1466 4.7003 -1.8478 0.9783
1.9774 4.7738 -1.8478 0.9783
1.6317 4.9026 -1.8478 0.9783
1.0983 5.0488 -1.8477 0.9783
0.9174 5.0847 -1.8477 0.9783
0.7353 5.1142 -1.8477 0.9783
0.3686 5.1536 -1.8477 0.9783
-0.1844 5.1634 -1.8477 0.9783
-0.3686 5.1536 -1.8477 0.9783
-0.7353 5.1142 -1.8477 0.9783
-0.9174 5.0847 -1.8477 0.9783
-1.0983 5.0488 -1.8477 0.9783
-1.2778 5.0064 -1.8477 0.9783
-1.6317 4.9026 -1.8478 0.9783
-2.1466 4.7003 -1.8478 0.9783
-2.3130 4.6207 -1.8479 0.9783
-2.4966 4.5722 -1.8629 0.9781
-2.7029 4.5556 -1.8943 0.9777
-2.9149 4.5357 -1.9281 0.9774
-3.1345 4.5146 -1.9654 0.9769
-3.5004 4.3438 -1.9950 0.9766
-3.6568 4.2202 -1.9969 0.9766
-4.2276 3.6633 -2.0004 0.9765
-4.4784 3.3525 -2.0006 0.9765
-4.7065 3.0247 -2.0007 0.9765
-4.8116 2.8549 -2.0007 0.9765
-5.0034 2.5045 -2.0009 0.9765
-5.0897 2.3244 -2.0010 0.9765
-5.3096 1.7672 -2.0012 0.9765
-5.3695 1.5766 -2.0012 0.9765
-5.4226 1.3840 -2.0013 0.9765
-5.5079 0.9937 -2.0015 0.9765
-5.5401 0.7965 -2.0015 0.9765
-5.5832 0.3993 -2.0017 0.9765
5.2238 0.0000 -2.0018 0.9779
5.2203 0.1865 -2.0018 0.9779
5.1933 0.5583 -2.0016 0.9779
5.0603 1.2916 -2.0013 0.9779
5.0108 1.4713 -2.0013 0.9779
4.9549 1.6491 -2.0012 0.9779
4.7497 2.1691 -2.0010 0.9779
4.5826 2.5023 -2.0009 0.9779
4.4902 2.6642 -2.0008 0.9779
4.3921 2.8227 -2.0008 0.9779
4.1793 3.1286 -2.0006 0.9779
4.0649 3.2757 -2.0006 0.9779
3.8207 3.5571 -2.0005 0.9779
3.6912 3.6911 -2.0004 0.9779
3.5570 3.8205 -2.0004 0.9779
2.9713 4.2795 -1.9965 0.9779
2.8144 4.3794 -1.9949 0.9779
2.6544 4.4737 -1.9935 0.9780
2.2820 4.5588 -1.9536 0.9784
2.0876 4.5712 -1.9258 0.9787
1.8983 4.5830 -1.9010 0.9790
1.7135 4.5940 -1.8790 0.9792
1.1925 4.6721 -1.8478 0.9796
1.0250 4.7117 -1.8478 0.9796
0.8561 4.7452 -1.8478 0.9796
0.6862 4.7728 -1.8478 0.9796
0.5154 4.7942 -1.8478 0.9796
0.3440 4.8095 -1.8478 0.9796
0.1721 4.8187 -1.8478 0.9796
-0.0000 4.8218 -1.8478 0.9796
-0.1721 4.8187 -1.8478 0.9796
-0.3440 4.8095 -1.8478 0.9796
-0.5154 4.7942 -1.8478 0.9796
-1.1925 4.6721 -1.8478 0.9796
-1.3585 4.6267 -1.8479 0.9796
-1.7154 4.5992 -1.8811 0.9792
-1.9004 4.5879 -1.9030 0.9790
-2.4844 4.5498 -1.9866 0.9780
-2.9715 4.2798 -1.9966 0.9779
-3.2748 4.0638 -2.0000 0.9779
-3.4183 3.9449 -2.0003 0.9779
-3.5570 3.8204 -2.0004 0.9779
-3.9453 3.4186 -2.0005 0.9779
-4.2885 2.9775 -2.0007 0.9779
-4.3921 2.8227 -2.0008 0.9779
-4.4902 2.6642 -2.0008 0.9779
-4.6691 2.3372 -2.0009 0.9779
-4.7497 2.1691 -2.0010 0.9779
-4.8243 1.9983 -2.0011 0.9779
-4.8927 1.8249 -2.0011 0.9779
-5.0603 1.2916 -2.0013 0.9779
-5.1699 0.7433 -2.0016 0.9779
-5.1933 0.5583 -2.0016 0.9779
-5.2101 0.3726 -2.0017 0.9779
-5.2203 0.1864 -2.0018 0.9779
4.8784 0.3489 -2.0017 0.9791
4.8408 0.6960 -2.0016 0.9791
4.6395 1.5442 -2.0013 0.9791
4.5813 1.7087 -2.0012 0.9791
4.5173 1.8711 -2.0011 0.9791
4.3720 2.1885 -2.0010 0.9791
4.2910 2.3431 -2.0009 0.9791
4.1127 2.6430 -2.0008 0.9791
3.8063 3.0673 -2.0007 0.9791
3.5776 3.3308 -2.0006 0.9791
3.4563 3.4563 -2.0005 0.9791
3.2008 3.6939 -2.0004 0.9791
3.0668 3.8057 -2.0004 0.9791
2.7874 4.0146 -2.0003 0.9791
2.6417 4.1105 -1.9998 0.9791
2.3385 4.2827 -1.9971 0.9791
2.1828 4.3607 -1.9958 0.9791
1.8641 4.5003 -1.9936 0.9792
1.7015 4.5618 -1.9927 0.9792
1.5254 4.5831 -1.9769 0.9793
0.6637 4.6158 -1.9086 0.9800
0.4966 4.6192 -1.9014 0.9801
0.1652 4.6246 -1.8939 0.9802
-0.0000 4.6267 -1.8936 0.9802
-0.8324 4.6135 -1.9187 0.9799
-1.0026 4.6090 -1.9305 0.9798
-1.3502 4.5985 -1.9615 0.9795
-1.5272 4.5884 -1.9792 0.9793
-2.0247 4.4335 -1.9948 0.9792
-2.3386 4.2829 -1.9972 0.9791
-2.9290 3.9127 -2.0003 0.9791
-3.0668 3.8057 -2.0004 0.9791
-3.4563 3.4563 -2.0005 0.9791
-3.6942 3.2011 -2.0006 0.9791
-3.8062 3.0673 -2.0007 0.9791
-3.9134 2.9295 -2.0007 0.9791
-4.2045 2.4946 -2.0009 0.9791
-4.2910 2.3430 -2.0009 0.9791
-4.3720 2.1885 -2.0010 0.9791
-4.4475 2.0311 -2.0011 0.9791
-4.5813 1.7087 -2.0012 0.9791
-4.6395 1.5442 -2.0013 0.9791
-2.1703 0.3916 -0.9026 0.9905
-1.9449 0.2796 -0.8042 0.9915
-1.9569 0.2104 -0.8055 0.9915
-1.9308 0.0690 -0.7907 0.9917
4.5933 0.0000 -2.0018 0.9802
4.5813 0.3277 -2.0017 0.9802
4.5666 0.4910 -2.0017 0.9802
4.5460 0.6536 -2.0016 0.9802
4.5196 0.8154 -2.0015 0.9802
4.4497 1.1357 -2.0014 0.9802
4.4062 1.2938 -2.0013 0.9802
4.1767 1.9074 -2.0011 0.9802
4.1058 2.0552 -2.0011 0.9802
4.0298 2.2004 -2.0010 0.9802
3.9486 2.3428 -2.0009 0.9802
3.7712 2.6184 -2.0008 0.9802
3.6752 2.7512 -2.0008 0.9802
3.4694 3.0063 -2.0007 0.9802
3.2459 3.2460 -2.0006 0.9802
3.1280 3.3597 -2.0006 0.9802
2.6178 3.7703 -2.0004 0.9802
2.4815 3.8613 -2.0004 0.9802
2.3421 3.9473 -2.0003 0.9802
2.0544 4.1042 -2.0003 0.9802
1.7547 4.2361 -1.9983 0.9802
1.4467 4.3468 -1.9966 0.9802
1.2902 4.3940 -1.9958 0.9802
1.1322 4.4359 -1.9952 0.9802
0.9729 4.4721 -1.9946 0.9802
0.8124 4.5029 -1.9941 0.9802
0.6510 4.5281 -1.9937 0.9802
-0.0000 4.5732 -1.9931 0.9802
-0.3263 4.5619 -1.9932 0.9802
-1.1322 4.4359 -1.9952 0.9802
-1.2902 4.3942 -1.9959 0.9802
-1.6017 4.2943 -1.9975 0.9802
-1.7547 4.2363 -1.9984 0.9802
-1.9058 4.1731 -1.9994 0.9802
-2.0544 4.1042 -2.0003 0.9802
-2.1996 4.0283 -2.0003 0.9802
-2.3421 3.9473 -2.0003 0.9802
-2.7507 3.6746 -2.0004 0.9802
-2.8802 3.5741 -2.0005 0.9802
-3.1279 3.3597 -2.0006 0.9802
-3.3598 3.1281 -2.0006 0.9802
-3.4694 3.0062 -2.0007 0.9802
-3.5746 2.8806 -2.0007 0.9802
-3.6752 2.7512 -2.0008 0.9802
-3.7712 2.6184 -2.0008 0.9802
-3.8623 2.4821 -2.0009 0.9802
-4.0297 2.2004 -2.0010 0.9802
-4.1767 1.9074 -2.0011 0.9802
-4.2422 1.7572 -2.0012 0.9802
-1.5984 0.5962 -0.7435 0.9926
-1.5707 0.4612 -0.7134 0.9929
-1.5001 0.2707 -0.6643 0.9934
-1.5151 0.2178 -0.6671 0.9933
-1.5249 0.1639 -0.6684 0.9933
-1.5293 0.1094 -0.6682 0.9933
-1.5284 0.0546 -0.6665 0.9933
4.3218 0.1544 -2.0018 0.9811
4.3134 0.3085 -2.0017 0.9811
4.1895 1.0693 -2.0014 0.9811
4.1486 1.2181 -2.0014 0.9811
4.1023 1.3654 -2.0013 0.9811
4.0509 1.5109 -2.0013 0.9811
3.9943 1.6545 -2.0012 0.9811
3.9326 1.7959 -2.0012 0.9811
3.8658 1.9351 -2.0011 0.9811
3.7942 2.0718 -2.0010 0.9811
3.6366 2.3371 -2.0009 0.9811
3.5507 2.4653 -2.0009 0.9811
3.4604 2.5904 -2.0008 0.9811
3.3656 2.7122 -2.0008 0.9811
3.0562 3.0562 -2.0007 0.9811
2.7119 3.3652 -2.0006 0.9811
2.5900 3.4598 -2.0005 0.9811
2.0711 3.7930 -2.0004 0.9811
1.9344 3.8644 -2.0004 0.9811
1.7952 3.9309 -2.0003 0.9811
1.6537 3.9924 -2.0003 0.9811
1.5102 4.0489 -2.0003 0.9811
1.0683 4.1856 -1.9996 0.9811
0.9180 4.2199 -1.9990 0.9811
0.4614 4.2914 -1.9979 0.9812
0.1540 4.3127 -1.9975 0.9812
0.0000 4.3154 -1.9975 0.9812
-0.4614 4.2914 -1.9979 0.9812
-0.6143 4.2728 -1.9982 0.9812
-0.7666 4.2490 -1.9986 0.9811
-0.9180 4.2199 -1.9990 0.9811
-1.0683 4.1856 -1.9996 0.9811
-1.5102 4.0489 -2.0003 0.9811
-1.6537 3.9925 -2.0003 0.9811
-1.7952 3.9309 -2.0003 0.9811
-2.0711 3.7929 -2.0004 0.9811
-2.3365 3.6356 -2.0004 0.9811
-2.5900 3.4598 -2.0005 0.9811
-2.7119 3.3652 -2.0006 0.9811
-3.2666 2.8305 -2.0008 0.9811
-3.4604 2.5904 -2.0008 0.9811
-3.5507 2.4653 -2.0009 0.9811
-1.3151 0.6006 -0.6692 0.9936
-1.3263 0.5494 -0.6645 0.9937
-1.3324 0.4970 -0.6582 0.9938
-1.3324 0.4435 -0.6500 0.9938
-1.3241 0.3888 -0.6388 0.9939
-1.3013 0.2831 -0.6164 0.9941
-1.3160 0.2374 -0.6190 0.9941
-1.3351 0.1435 -0.6215 0.9941
-1.3376 0.0478 -0.6195 0.9941
4.0810 0.0000 -2.0018 0.9820
4.0783 0.1457 -2.0018 0.9820
4.0704 0.2911 -2.0017 0.9820
4.0391 0.5807 -2.0016 0.9820
4.0156 0.7245 -2.0016 0.9820
3.9871 0.8674 -2.0015 0.9820
3.8712 1.2885 -2.0013 0.9820
3.7693 1.5613 -2.0012 0.9820
3.7110 1.6948 -2.0012 0.9820
3.5805 1.9551 -2.0011 0.9820
3.5084 2.0816 -2.0010 0.9820
3.1761 2.5595 -2.0009 0.9820
3.0827 2.6711 -2.0008 0.9820
2.9853 2.7794 -2.0008 0.9820
2.7793 2.9852 -2.0007 0.9820
2.6709 3.0824 -2.0007 0.9820
2.4442 3.2650 -2.0006 0.9820
2.3260 3.3501 -2.0006 0.9820
2.0810 3.5074 -2.0005 0.9820
1.9545 3.5794 -2.0005 0.9820
1.8255 3.6468 -2.0004 0.9820
1.6941 3.7096 -2.0004 0.9820
1.2878 3.8693 -2.0004 0.9820
1.0085 3.9513 -2.0003 0.9820
0.4359 4.0545 -2.0003 0.9820
0.2909 4.0675 -2.0003 0.9820
-0.1455 4.0752 -2.0003 0.9820
-0.8668 3.9847 -2.0003 0.9820
-1.0085 3.9513 -2.0003 0.9820
-1.1489 3.9128 -2.0003 0.9820
-1.2878 3.8693 -2.0004 0.9820
-1.4251 3.8209 -2.0004 0.9820
-1.5606 3.7677 -2.0004 0.9820
-1.8255 3.6468 -2.0004 0.9820
-1.9545 3.5794 -2.0005 0.9820
-2.0810 3.5074 -2.0005 0.9820
-2.2049 3.4309 -2.0005 0.9820
-2.3260 3.3501 -2.0006 0.9820
-2.5592 3.1757 -2.0006 0.9820
-3.0827 2.6711 -2.0008 0.9820
-3.1761 2.5595 -2.0009 0.9820
-3.4317 2.2054 -2.0010 0.9820
-3.5083 2.0816 -2.0010 0.9820
-1.1400 0.5206 -0.6148 0.9944
-1.1543 0.4306 -0.6043 0.9945
-1.1578 0.3854 -0.5986 0.9946
-1.1578 0.2955 -0.5861 0.9947
-1.1791 0.2127 -0.5877 0.9947
-1.1867 0.1706 -0.5881 0.9947
3.8562 0.1377 -2.0018 0.9828
3.8487 0.2753 -2.0017 0.9828
3.7382 0.9541 -2.0015 0.9828
3.7017 1.0869 -2.0014 0.9828
3.6604 1.2183 -2.0014 0.9828
3.6145 1.3482 -2.0013 0.9828
3.5640 1.4763 -2.0013 0.9828
3.5090 1.6025 -2.0012 0.9828
3.4495 1.7267 -2.0012 0.9828
3.2449 2.0854 -2.0010 0.9828
3.0877 2.3114 -2.0010 0.9828
2.8228 2.6281 -2.0008 0.9828
2.5255 2.9146 -2.0007 0.9828
2.0849 3.2442 -2.0006 0.9828
1.9678 3.3165 -2.0006 0.9828
1.8481 3.3846 -2.0005 0.9828
1.7261 3.4483 -2.0005 0.9828
1.6019 3.5077 -2.0005 0.9828
1.4757 3.5626 -2.0005 0.9828
1.3476 3.6130 -2.0005 0.9828
1.2178 3.6587 -2.0004 0.9828
1.0864 3.6998 -2.0004 0.9828
0.9536 3.7362 -2.0004 0.9828
0.4122 3.8338 -2.0004 0.9828
0.2751 3.8461 -2.0004 0.9828
0.1376 3.8534 -2.0004 0.9828
0.0000 3.8559 -2.0004 0.9828
-0.5487 3.8167 -2.0004 0.9828
-1.3476 3.6130 -2.0005 0.9828
-1.7261 3.4483 -2.0005 0.9828
-1.8481 3.3846 -2.0005 0.9828
-2.1994 3.1677 -2.0006 0.9828
-2.4199 3.0029 -2.0007 0.9828
-2.5255 2.9146 -2.0007 0.9828
-2.6280 2.8227 -2.0008 0.9828
-2.9148 2.5257 -2.0009 0.9828
-3.0032 2.4201 -2.0009 0.9828
-3.0877 2.3114 -2.0010 0.9828
-3.2449 2.0854 -2.0010 0.9828
-0.9917 0.5884 -0.5982 0.9948
-1.0118 0.5525 -0.5981 0.9948
-1.0298 0.5155 -0.5974 0.9948
-1.0514 0.4355 -0.5904 0.9949
-1.0576 0.3945 -0.5856 0.9949
-1.0617 0.3534 -0.5805 0.9950
-1.0704 0.2732 -0.5731 0.9950
-1.0974 0.1578 -0.5752 0.9950
-1.1055 0.0791 -0.5750 0.9950
-1.1066 0.0395 -0.5744 0.9950
3.6550 0.0000 -2.0018 0.9835
3.6526 0.1305 -2.0018 0.9835
3.6455 0.2607 -2.0017 0.9835
3.6338 0.3907 -2.0017 0.9835
3.6174 0.5201 -2.0016 0.9835
3.5063 1.0295 -2.0014 0.9835
3.4672 1.1540 -2.0014 0.9835
3.3759 1.3983 -2.0013 0.9835
3.2674 1.6355 -2.0012 0.9835
3.2068 1.7511 -2.0012 0.9835
3.1422 1.8644 -2.0011 0.9835
2.8447 2.2924 -2.0010 0.9835
2.5832 2.5832 -2.0009 0.9835
2.3922 2.7608 -2.0008 0.9835
2.2922 2.8444 -2.0008 0.9835
2.1891 2.9243 -2.0007 0.9835
2.0833 3.0005 -2.0007 0.9835
1.9749 3.0730 -2.0007 0.9835
1.6350 3.2663 -2.0006 0.9835
1.5174 3.3226 -2.0006 0.9835
1.3978 3.3746 -2.0005 0.9835
0.9033 3.5390 -2.0005 0.9835
0.7764 3.5690 -2.0005 0.9835
0.3904 3.6315 -2.0004 0.9835
0.1304 3.6501 -2.0004 0.9835
-0.3904 3.6315 -2.0004 0.9835
-0.7764 3.5690 -2.0005 0.9835
-1.0290 3.5046 -2.0005 0.9835
-1.2764 3.4223 -2.0005 0.9835
-1.3978 3.3746 -2.0005 0.9835
-1.5174 3.3226 -2.0006 0.9835
-2.0833 3.0005 -2.0007 0.9835
-2.1891 2.9243 -2.0007 0.9835
-2.2921 2.8444 -2.0008 0.9835
-2.3922 2.7608 -2.0008 0.9835
-2.4893 2.6737 -2.0008 0.9835
-2.5832 2.5832 -2.0009 0.9835
-2.8447 2.2924 -2.0010 0.9835
-2.9247 2.1894 -2.0010 0.9835
-0.9269 0.5061 -0.5784 0.9952
-0.9434 0.4722 -0.5778 0.9952
-0.9580 0.4375 -0.5768 0.9952
-0.9741 0.3633 -0.5694 0.9953
-0.9820 0.2883 -0.5606 0.9953
-0.9938 0.2536 -0.5618 0.9953
-1.0039 0.2184 -0.5627 0.9953
-1.0124 0.1827 -0.5634 0.9953
-1.0190 0.1465 -0.5638 0.9953
-1.0236 0.1101 -0.5639 0.9953
-1.0265 0.0734 -0.5637 0.9953
-1.0276 0.0367 -0.5632 0.9953
2.0197 0.0000 -1.1661 0.9907
2.0366 0.2190 -1.1826 0.9906
2.0153 0.3636 -1.1823 0.9906
1.9616 0.5007 -1.1688 0.9907
1.8682 0.6968 -1.1512 0.9908
1.8620 0.7713 -1.1636 0.9907
1.8508 0.8452 -1.1747 0.9906
3.0996 1.5516 -2.0012 0.9841
2.9809 1.7687 -2.0012 0.9841
2.9158 1.8739 -2.0011 0.9841
2.6987 2.1747 -2.0010 0.9841
2.4506 2.4506 -2.0009 0.9841
2.0768 2.7742 -2.0008 0.9841
1.9764 2.8466 -2.0008 0.9841
1.8735 2.9153 -2.0007 0.9841
1.7683 2.9802 -2.0007 0.9841
1.4395 3.1521 -2.0006 0.9841
1.3261 3.2014 -2.0006 0.9841
1.2110 3.2467 -2.0006 0.9841
1.0943 3.2878 -2.0006 0.9841
0.9762 3.3247 -2.0006 0.9841
0.7366 3.3859 -2.0005 0.9841
0.6152 3.4100 -2.0005 0.9841
0.3704 3.4452 -2.0005 0.9841
0.2472 3.4562 -2.0005 0.9841
0.1237 3.4628 -2.0005 0.9841
0.0000 3.4650 -2.0005 0.9841
-0.2472 3.4562 -2.0005 0.9841
-0.6152 3.4100 -2.0005 0.9841
-0.7365 3.3859 -2.0005 0.9841
-1.0943 3.2878 -2.0006 0.9841
-1.2109 3.2467 -2.0006 0.9841
-1.3261 3.2014 -2.0006 0.9841
-1.6607 3.0414 -2.0007 0.9841
-1.8735 2.9152 -2.0007 0.9841
-1.9764 2.8465 -2.0008 0.9841
-2.0768 2.7742 -2.0008 0.9841
-0.7671 0.6182 -0.5688 0.9955
-0.8008 0.5560 -0.5628 0.9955
-0.8364 0.4963 -0.5615 0.9955
-0.8534 0.4660 -0.5614 0.9955
-0.9011 0.3361 -0.5553 0.9956
-0.9057 0.3015 -0.5511 0.9956
-0.9150 0.2687 -0.5506 0.9956
-0.9259 0.2363 -0.5517 0.9956
-0.9430 0.1701 -0.5532 0.9956
-0.9492 0.1365 -0.5536 0.9956
-0.9565 0.0684 -0.5536 0.9956
