ply
format ascii 1.0
element vertex 713
property float32 x
property float32 y
property float32 z
property float32 I
end_header
-9.4641 -0.3380 -2.0018 0.9620
-9.4461 -0.6756 -2.0018 0.9620
-9.4160 -1.0123 -2.0018 0.9620
-9.3739 -1.3478 -2.0018 0.9620
-9.0869 -2.6682 -2.0019 0.9620
-8.8735 -3.3096 -2.0019 0.9620
-8.1451 -4.8327 -2.0020 0.9620
-7.7797 -5.4015 -2.0020 0.9620
-7.3746 -5.9428 -2.0020 0.9620
-7.1578 -6.2023 -2.0020 0.9620
-6.9319 -6.4538 -2.0020 0.9620
-6.4539 -6.9320 -2.0020 0.9620
-5.4018 -7.7800 -2.0021 0.9620
-4.8330 -8.1456 -2.0021 0.9620
-4.2396 -8.4697 -2.0021 0.9620
-3.9346 -8.6157 -2.0021 0.9620
-2.9912 -8.9870 -2.0021 0.9620
-2.6685 -9.0880 -2.0021 0.9620
-2.3424 -9.1775 -2.0021 0.9620
-2.0134 -9.2553 -2.0021 0.9620
-0.6757 -9.4477 -2.0022 0.9620
-0.3381 -9.4658 -2.0022 0.9620
0.3381 -9.4658 -2.0022 0.9620
0.6757 -9.4477 -2.0022 0.9620
1.0125 -9.4176 -2.0022 0.9620
1.3480 -9.3754 -2.0022 0.9620
1.6818 -9.3213 -2.0022 0.9620
2.3425 -9.1776 -2.0022 0.9620
3.3101 -8.8746 -2.0022 0.9620
3.6247 -8.7508 -2.0021 0.9620
3.9347 -8.6158 -2.0021 0.9620
4.2397 -8.4699 -2.0021 0.9620
5.4019 -7.7802 -2.0021 0.9620
5.9431 -7.3750 -2.0021 0.9620
6.2026 -7.1582 -2.0021 0.9620
6.6974 -6.6974 -2.0021 0.9620
6.9322 -6.4541 -2.0021 0.9620
7.1581 -6.2025 -2.0021 0.9620
8.1454 -4.8329 -2.0020 0.9620
8.3127 -4.5391 -2.0020 0.9620
8.7502 -3.6244 -2.0020 0.9620
9.0873 -2.6683 -2.0020 0.9620
9.1767 -2.3422 -2.0020 0.9620
9.3744 -1.3478 -2.0019 0.9620
-8.5121 -0.3040 -2.0018 0.9656
-8.4309 -1.2122 -2.0018 0.9656
-8.3823 -1.5123 -2.0019 0.9656
-8.3231 -1.8106 -2.0019 0.9656
-8.0819 -2.6899 -2.0019 0.9656
-7.8695 -3.2597 -2.0019 0.9656
-7.6170 -3.8128 -2.0019 0.9656
-7.4761 -4.0822 -2.0019 0.9656
-7.1659 -4.6052 -2.0020 0.9656
-6.9970 -4.8581 -2.0020 0.9656
-6.8192 -5.1048 -2.0020 0.9656
-6.6327 -5.3449 -2.0020 0.9656
-6.2345 -5.8045 -2.0020 0.9656
-6.0234 -6.0234 -2.0020 0.9656
-5.8046 -6.2346 -2.0020 0.9656
-5.3451 -6.6328 -2.0020 0.9656
-4.8583 -6.9973 -2.0020 0.9656
-3.8131 -7.6176 -2.0021 0.9656
-3.5388 -7.7488 -2.0021 0.9656
-3.2600 -7.8702 -2.0021 0.9656
-2.9770 -7.9816 -2.0021 0.9656
-1.8108 -8.3241 -2.0021 0.9656
-1.5125 -8.3834 -2.0021 0.9656
-1.2123 -8.4321 -2.0021 0.9656
-0.6077 -8.4971 -2.0021 0.9656
-0.3041 -8.5134 -2.0021 0.9656
-0.0000 -8.5188 -2.0021 0.9656
0.6077 -8.4971 -2.0021 0.9656
0.9106 -8.4700 -2.0021 0.9656
1.2123 -8.4321 -2.0021 0.9656
2.4000 -8.1738 -2.0021 0.9656
2.6902 -8.0829 -2.0021 0.9656
2.9770 -7.9817 -2.0021 0.9656
3.2600 -7.8703 -2.0021 0.9656
3.8132 -7.6177 -2.0021 0.9656
4.3469 -7.3262 -2.0021 0.9656
4.8584 -6.9975 -2.0021 0.9656
5.1051 -6.8196 -2.0021 0.9656
5.3452 -6.6330 -2.0021 0.9656
5.5785 -6.4380 -2.0021 0.9656
6.2347 -5.8047 -2.0021 0.9656
6.9973 -4.8583 -2.0020 0.9656
7.6173 -3.8129 -2.0020 0.9656
7.9812 -2.9768 -2.0020 0.9656
8.2535 -2.1066 -2.0020 0.9656
8.3234 -1.8106 -2.0019 0.9656
8.3827 -1.5124 -2.0019 0.9656
8.4962 -0.6077 -2.0019 0.9656
8.5124 -0.3040 -2.0019 0.9656
-7.7314 0.0000 -2.0018 0.9686
-7.7265 -0.2759 -2.0018 0.9686
-7.6872 -0.8265 -2.0018 0.9686
-7.6529 -1.1003 -2.0018 0.9686
-7.5549 -1.6435 -2.0019 0.9686
-7.4185 -2.1783 -2.0019 0.9686
-7.3361 -2.4417 -2.0019 0.9686
-7.2443 -2.7020 -2.0019 0.9686
-7.0331 -3.2119 -2.0019 0.9686
-6.0205 -4.8516 -2.0020 0.9686
-5.8435 -5.0634 -2.0020 0.9686
-5.6591 -5.2688 -2.0020 0.9686
-4.6338 -6.1900 -2.0020 0.9686
-3.9456 -6.6499 -2.0020 0.9686
-3.7057 -6.7865 -2.0020 0.9686
-2.9591 -7.1438 -2.0021 0.9686
-2.7022 -7.2449 -2.0021 0.9686
-2.4419 -7.3368 -2.0021 0.9686
-2.1785 -7.4193 -2.0021 0.9686
-1.9123 -7.4923 -2.0021 0.9686
-1.6437 -7.5558 -2.0021 0.9686
-1.3729 -7.6096 -2.0021 0.9686
-0.0000 -7.7325 -2.0021 0.9686
0.5516 -7.7128 -2.0021 0.9686
1.1005 -7.6538 -2.0021 0.9686
1.3729 -7.6097 -2.0021 0.9686
1.6437 -7.5559 -2.0021 0.9686
1.9123 -7.4924 -2.0021 0.9686
2.1785 -7.4193 -2.0021 0.9686
2.4419 -7.3368 -2.0021 0.9686
2.7022 -7.2450 -2.0021 0.9686
3.2122 -7.0337 -2.0021 0.9686
3.7058 -6.7867 -2.0021 0.9686
4.1805 -6.5050 -2.0021 0.9686
4.6339 -6.1901 -2.0021 0.9686
4.8519 -6.0208 -2.0021 0.9686
5.4676 -5.4676 -2.0020 0.9686
5.8437 -5.0636 -2.0020 0.9686
6.0207 -4.8518 -2.0020 0.9686
6.5048 -4.1804 -2.0020 0.9686
6.6498 -3.9455 -2.0020 0.9686
6.9143 -3.4610 -2.0020 0.9686
7.1435 -2.9589 -2.0020 0.9686
7.3363 -2.4418 -2.0020 0.9686
7.4188 -2.1783 -2.0020 0.9686
7.4918 -1.9122 -2.0019 0.9686
7.6090 -1.3728 -2.0019 0.9686
7.7121 -0.5516 -2.0019 0.9686
-7.0712 0.0000 -2.0018 0.9710
-7.0667 -0.2524 -2.0018 0.9710
-7.0532 -0.5044 -2.0018 0.9710
-7.0308 -0.7559 -2.0018 0.9710
-6.9993 -1.0064 -2.0018 0.9710
-6.9098 -1.5031 -2.0019 0.9710
-6.8517 -1.7488 -2.0019 0.9710
-6.7850 -1.9922 -2.0019 0.9710
-6.7096 -2.2332 -2.0019 0.9710
-6.4325 -2.9376 -2.0019 0.9710
-6.0817 -3.6084 -2.0019 0.9710
-5.9491 -3.8232 -2.0019 0.9710
-5.8088 -4.0331 -2.0019 0.9710
-5.6612 -4.2379 -2.0020 0.9710
-5.5064 -4.4373 -2.0020 0.9710
-5.3445 -4.6310 -2.0020 0.9710
-5.0005 -5.0005 -2.0020 0.9710
-4.8189 -5.1758 -2.0020 0.9710
-4.6311 -5.3446 -2.0020 0.9710
-4.4374 -5.5065 -2.0020 0.9710
-4.0333 -5.8090 -2.0020 0.9710
-3.6086 -6.0820 -2.0020 0.9710
-3.3892 -6.2069 -2.0020 0.9710
-2.9378 -6.4329 -2.0020 0.9710
-2.7064 -6.5337 -2.0020 0.9710
-1.7490 -6.8524 -2.0021 0.9710
-1.5033 -6.9105 -2.0021 0.9710
-1.2557 -6.9597 -2.0021 0.9710
-1.0065 -7.0001 -2.0021 0.9710
0.2524 -7.0676 -2.0021 0.9710
1.0065 -7.0002 -2.0021 0.9710
1.5033 -6.9105 -2.0021 0.9710
1.7490 -6.8525 -2.0021 0.9710
1.9925 -6.7857 -2.0021 0.9710
2.2334 -6.7102 -2.0021 0.9710
2.7064 -6.5338 -2.0021 0.9710
3.1656 -6.3240 -2.0021 0.9710
3.3893 -6.2070 -2.0021 0.9710
4.0334 -5.8091 -2.0021 0.9710
4.2381 -5.6615 -2.0020 0.9710
4.4375 -5.5066 -2.0020 0.9710
4.8190 -5.1760 -2.0020 0.9710
5.3446 -4.6311 -2.0020 0.9710
5.6614 -4.2380 -2.0020 0.9710
5.8090 -4.0333 -2.0020 0.9710
5.9492 -3.8233 -2.0020 0.9710
6.4327 -2.9377 -2.0020 0.9710
6.5335 -2.7062 -2.0020 0.9710
6.7098 -2.2332 -2.0019 0.9710
6.8520 -1.7488 -2.0019 0.9710
6.9100 -1.5032 -2.0019 0.9710
7.0310 -0.7559 -2.0019 0.9710
-6.5083 0.0000 -2.0018 0.9731
-6.5042 -0.2323 -2.0018 0.9731
-6.4917 -0.4643 -2.0018 0.9731
-6.4421 -0.9262 -2.0018 0.9731
-6.2449 -1.8336 -2.0019 0.9731
-5.8202 -2.9134 -2.0019 0.9731
-5.4754 -3.5189 -2.0019 0.9731
-5.3464 -3.7121 -2.0019 0.9731
-5.2105 -3.9005 -2.0019 0.9731
-4.9190 -4.2623 -2.0020 0.9731
-4.7638 -4.4352 -2.0020 0.9731
-4.6024 -4.6024 -2.0020 0.9731
-4.2624 -4.9191 -2.0020 0.9731
-3.1194 -5.7128 -2.0020 0.9731
-2.7039 -5.9208 -2.0020 0.9731
-2.2747 -6.0986 -2.0020 0.9731
-1.8338 -6.2454 -2.0020 0.9731
-1.6097 -6.3068 -2.0020 0.9731
-1.3836 -6.3603 -2.0020 0.9731
-0.6958 -6.4718 -2.0021 0.9731
-0.2323 -6.5049 -2.0021 0.9731
-0.0000 -6.5091 -2.0021 0.9731
0.2323 -6.5049 -2.0021 0.9731
1.1557 -6.4057 -2.0021 0.9731
1.8338 -6.2454 -2.0021 0.9731
2.0556 -6.1760 -2.0021 0.9731
2.2747 -6.0987 -2.0021 0.9731
2.4909 -6.0136 -2.0021 0.9731
2.9136 -5.8206 -2.0020 0.9731
3.5191 -5.4757 -2.0020 0.9731
3.7123 -5.3466 -2.0020 0.9731
3.9007 -5.2107 -2.0020 0.9731
4.0842 -5.0682 -2.0020 0.9731
4.2625 -4.9192 -2.0020 0.9731
4.6025 -4.6025 -2.0020 0.9731
5.4756 -3.5189 -2.0020 0.9731
5.9206 -2.7038 -2.0020 0.9731
6.0984 -2.2746 -2.0019 0.9731
6.2450 -1.8337 -2.0019 0.9731
6.3599 -1.3835 -2.0019 0.9731
6.4052 -1.1556 -2.0019 0.9731
6.4713 -0.6957 -2.0019 0.9731
-6.0222 0.0000 -2.0018 0.9749
-6.0184 -0.2149 -2.0018 0.9749
-5.9610 -0.8571 -2.0018 0.9749
-5.7142 -1.9019 -2.0019 0.9749
-5.6427 -2.1046 -2.0019 0.9749
-5.5640 -2.3047 -2.0019 0.9749
-5.2858 -2.8863 -2.0019 0.9749
-5.1794 -3.0731 -2.0019 0.9749
-5.0665 -3.2560 -2.0019 0.9749
-4.8213 -3.6092 -2.0019 0.9749
-4.6895 -3.7790 -2.0019 0.9749
-4.5516 -3.9440 -2.0020 0.9749
-4.4079 -4.1039 -2.0020 0.9749
-4.2587 -4.2587 -2.0020 0.9749
-4.1040 -4.4080 -2.0020 0.9749
-3.9440 -4.5517 -2.0020 0.9749
-3.7790 -4.6895 -2.0020 0.9749
-3.6093 -4.8214 -2.0020 0.9749
-3.2562 -5.0666 -2.0020 0.9749
-2.8864 -5.2861 -2.0020 0.9749
-1.4895 -5.8358 -2.0020 0.9749
-1.2802 -5.8852 -2.0020 0.9749
-0.8571 -5.9616 -2.0020 0.9749
-0.6438 -5.9884 -2.0020 0.9749
-0.4297 -6.0075 -2.0020 0.9749
0.0000 -6.0229 -2.0020 0.9749
0.2150 -6.0190 -2.0020 0.9749
0.8572 -5.9616 -2.0020 0.9749
1.0694 -5.9272 -2.0020 0.9749
1.2803 -5.8852 -2.0020 0.9749
1.4895 -5.8358 -2.0020 0.9749
1.6968 -5.7789 -2.0020 0.9749
1.9020 -5.7147 -2.0020 0.9749
2.3049 -5.5644 -2.0020 0.9749
2.6959 -5.3858 -2.0020 0.9749
2.8865 -5.2861 -2.0020 0.9749
3.4350 -4.9473 -2.0020 0.9749
3.9441 -4.5517 -2.0020 0.9749
4.1040 -4.4080 -2.0020 0.9749
4.2587 -4.2587 -2.0020 0.9749
4.8214 -3.6093 -2.0020 0.9749
5.2860 -2.8863 -2.0020 0.9749
5.3856 -2.6958 -2.0020 0.9749
5.4784 -2.5019 -2.0020 0.9749
5.6428 -2.1047 -2.0019 0.9749
5.7144 -1.9019 -2.0019 0.9749
5.8354 -1.4894 -2.0019 0.9749
5.9268 -1.0693 -2.0019 0.9749
5.9612 -0.8571 -2.0019 0.9749
5.9879 -0.6438 -2.0019 0.9749
6.0186 -0.2149 -2.0019 0.9749
-5.5943 -0.1998 -2.0018 0.9765
-5.5836 -0.3993 -2.0018 0.9765
-5.5658 -0.5984 -2.0018 0.9765
-5.5090 -0.9939 -2.0018 0.9765
-5.4240 -1.3844 -2.0019 0.9765
-5.3712 -1.5771 -2.0019 0.9765
-4.9133 -2.6829 -2.0019 0.9765
-4.8144 -2.8565 -2.0019 0.9765
-4.7094 -3.0266 -2.0019 0.9765
-4.2308 -3.6660 -2.0019 0.9765
-4.0973 -3.8147 -2.0019 0.9765
-3.5127 -4.3590 -2.0020 0.9765
-3.1928 -4.5985 -2.0020 0.9765
-3.0267 -4.7095 -2.0020 0.9765
-2.8566 -4.8146 -2.0020 0.9765
-2.3256 -5.0924 -2.0020 0.9765
-2.1424 -5.1722 -2.0020 0.9765
-1.7680 -5.3118 -2.0020 0.9765
-1.5773 -5.3716 -2.0020 0.9765
-1.3845 -5.4245 -2.0020 0.9765
-0.9940 -5.5094 -2.0020 0.9765
-0.7967 -5.5414 -2.0020 0.9765
-0.1998 -5.5948 -2.0020 0.9765
0.1998 -5.5948 -2.0020 0.9765
0.3994 -5.5841 -2.0020 0.9765
0.5984 -5.5663 -2.0020 0.9765
0.7967 -5.5414 -2.0020 0.9765
1.5773 -5.3716 -2.0020 0.9765
1.7680 -5.3119 -2.0020 0.9765
1.9564 -5.2454 -2.0020 0.9765
2.1424 -5.1722 -2.0020 0.9765
2.8567 -4.8147 -2.0020 0.9765
3.0267 -4.7096 -2.0020 0.9765
3.1929 -4.5986 -2.0020 0.9765
3.3550 -4.4817 -2.0020 0.9765
3.5128 -4.3591 -2.0020 0.9765
3.8148 -4.0974 -2.0020 0.9765
3.9586 -3.9586 -2.0020 0.9765
4.0974 -3.8148 -2.0020 0.9765
4.2309 -3.6661 -2.0020 0.9765
4.3590 -3.5127 -2.0020 0.9765
4.8145 -2.8566 -2.0020 0.9765
5.0923 -2.3256 -2.0019 0.9765
5.1720 -2.1423 -2.0019 0.9765
5.2452 -1.9563 -2.0019 0.9765
5.3713 -1.5772 -2.0019 0.9765
5.4701 -1.1899 -2.0019 0.9765
5.5091 -0.9939 -2.0019 0.9765
5.5411 -0.7967 -2.0019 0.9765
5.5660 -0.5984 -2.0019 0.9765
5.5944 -0.1998 -2.0019 0.9765
-5.2204 -0.1864 -2.0018 0.9779
-5.1938 -0.5584 -2.0018 0.9779
-5.1408 -0.9275 -2.0018 0.9779
-5.1044 -1.1104 -2.0019 0.9779
-5.0615 -1.2919 -2.0019 0.9779
-4.9565 -1.6497 -2.0019 0.9779
-4.8945 -1.8255 -2.0019 0.9779
-4.8262 -1.9991 -2.0019 0.9779
-4.6714 -2.3383 -2.0019 0.9779
-4.0676 -3.2779 -2.0019 0.9779
-3.9480 -3.4210 -2.0019 0.9779
-3.8234 -3.5597 -2.0019 0.9779
-3.2779 -4.0677 -2.0020 0.9779
-3.1307 -4.1821 -2.0020 0.9779
-2.9794 -4.2912 -2.0020 0.9779
-2.3384 -4.6715 -2.0020 0.9779
-1.9992 -4.8265 -2.0020 0.9779
-1.6498 -4.9568 -2.0020 0.9779
-1.4718 -5.0125 -2.0020 0.9779
-1.1105 -5.1048 -2.0020 0.9779
-0.9276 -5.1412 -2.0020 0.9779
-0.7435 -5.1710 -2.0020 0.9779
-0.5584 -5.1943 -2.0020 0.9779
-0.1865 -5.2209 -2.0020 0.9779
0.0000 -5.2242 -2.0020 0.9779
0.1865 -5.2209 -2.0020 0.9779
0.5584 -5.1943 -2.0020 0.9779
0.7435 -5.1710 -2.0020 0.9779
1.1105 -5.1048 -2.0020 0.9779
1.4718 -5.0126 -2.0020 0.9779
1.8257 -4.8948 -2.0020 0.9779
2.1702 -4.7521 -2.0020 0.9779
2.3384 -4.6716 -2.0020 0.9779
2.6657 -4.4929 -2.0020 0.9779
2.8244 -4.3949 -2.0020 0.9779
2.9795 -4.2912 -2.0020 0.9779
3.1307 -4.1822 -2.0020 0.9779
3.2780 -4.0677 -2.0020 0.9779
3.5598 -3.8235 -2.0020 0.9779
3.6940 -3.6940 -2.0020 0.9779
3.9481 -3.4210 -2.0020 0.9779
4.3948 -2.8243 -2.0020 0.9779
4.5850 -2.5036 -2.0019 0.9779
4.6715 -2.3384 -2.0019 0.9779
4.8264 -1.9991 -2.0019 0.9779
4.8946 -1.8256 -2.0019 0.9779
5.0617 -1.2919 -2.0019 0.9779
5.1409 -0.9275 -2.0019 0.9779
5.2106 -0.3726 -2.0019 0.9779
-1.9524 -0.1396 -0.8011 0.9916
-1.9449 -0.2796 -0.8042 0.9915
-4.5829 -1.7093 -2.0019 0.9791
-4.5190 -1.8718 -2.0019 0.9791
-4.4493 -2.0319 -2.0019 0.9791
-4.1149 -2.6445 -2.0019 0.9791
-3.9157 -2.9313 -2.0019 0.9791
-3.3331 -3.5800 -2.0019 0.9791
-2.9314 -3.9158 -2.0020 0.9791
-2.4960 -4.2068 -2.0020 0.9791
-2.3442 -4.2932 -2.0020 0.9791
-2.1895 -4.3741 -2.0020 0.9791
-2.0320 -4.4495 -2.0020 0.9791
-1.8719 -4.5192 -2.0020 0.9791
-1.7094 -4.5831 -2.0020 0.9791
-1.5448 -4.6412 -2.0020 0.9791
-1.3781 -4.6934 -2.0020 0.9791
-1.2097 -4.7396 -2.0020 0.9791
-1.0398 -4.7798 -2.0020 0.9791
-0.8685 -4.8138 -2.0020 0.9791
-0.6961 -4.8418 -2.0020 0.9791
-0.5229 -4.8635 -2.0020 0.9791
-0.3490 -4.8791 -2.0020 0.9791
0.5229 -4.8635 -2.0020 0.9791
0.8685 -4.8138 -2.0020 0.9791
1.0398 -4.7798 -2.0020 0.9791
1.5448 -4.6412 -2.0020 0.9791
1.7094 -4.5832 -2.0020 0.9791
1.8719 -4.5192 -2.0020 0.9791
2.1896 -4.3742 -2.0020 0.9791
2.9314 -3.9159 -2.0020 0.9791
3.3332 -3.5801 -2.0020 0.9791
3.4588 -3.4588 -2.0020 0.9791
3.5801 -3.3331 -2.0020 0.9791
3.6968 -3.2032 -2.0020 0.9791
3.8087 -3.0692 -2.0020 0.9791
3.9158 -2.9313 -2.0020 0.9791
4.0180 -2.7897 -2.0020 0.9791
4.2931 -2.3442 -2.0019 0.9791
4.3740 -2.1895 -2.0019 0.9791
4.5191 -1.8718 -2.0019 0.9791
4.5830 -1.7093 -2.0019 0.9791
4.7394 -1.2097 -2.0019 0.9791
4.8136 -0.8685 -2.0019 0.9791
4.8415 -0.6961 -2.0019 0.9791
4.8633 -0.5228 -2.0019 0.9791
4.8788 -0.3489 -2.0019 0.9791
4.8881 -0.1746 -2.0019 0.9791
-1.5284 -0.0546 -0.6665 0.9933
-1.5151 -0.2178 -0.6671 0.9933
-1.5485 -0.3952 -0.6965 0.9931
-1.5875 -0.5284 -0.7292 0.9927
-4.2437 -1.7578 -2.0019 0.9802
-3.7732 -2.6198 -2.0019 0.9802
-3.6773 -2.7528 -2.0019 0.9802
-3.4715 -3.0081 -2.0019 0.9802
-3.2481 -3.2481 -2.0019 0.9802
-2.7528 -3.6773 -2.0020 0.9802
-2.6198 -3.7732 -2.0020 0.9802
-2.4835 -3.8644 -2.0020 0.9802
-2.3440 -3.9505 -2.0020 0.9802
-2.0562 -4.1077 -2.0020 0.9802
-1.7579 -4.2439 -2.0020 0.9802
-1.1360 -4.4509 -2.0020 0.9802
-0.8156 -4.5207 -2.0020 0.9802
-0.6537 -4.5469 -2.0020 0.9802
-0.4910 -4.5673 -2.0020 0.9802
-0.3277 -4.5819 -2.0020 0.9802
-0.1640 -4.5907 -2.0020 0.9802
0.1640 -4.5907 -2.0020 0.9802
0.4910 -4.5673 -2.0020 0.9802
0.6538 -4.5469 -2.0020 0.9802
0.8156 -4.5207 -2.0020 0.9802
0.9765 -4.4887 -2.0020 0.9802
1.1360 -4.4510 -2.0020 0.9802
1.2942 -4.4076 -2.0020 0.9802
1.4507 -4.3586 -2.0020 0.9802
2.0562 -4.1077 -2.0020 0.9802
2.2015 -4.0317 -2.0020 0.9802
2.3440 -3.9506 -2.0020 0.9802
2.4835 -3.8644 -2.0020 0.9802
2.7528 -3.6774 -2.0020 0.9802
3.0082 -3.4716 -2.0020 0.9802
3.1302 -3.3620 -2.0020 0.9802
3.2482 -3.2481 -2.0020 0.9802
3.4716 -3.0081 -2.0020 0.9802
3.5768 -2.8823 -2.0020 0.9802
3.6773 -2.7528 -2.0020 0.9802
3.7732 -2.6198 -2.0019 0.9802
4.1784 -1.9082 -2.0019 0.9802
4.3584 -1.4506 -2.0019 0.9802
4.4508 -1.1360 -2.0019 0.9802
4.4885 -0.9764 -2.0019 0.9802
4.5671 -0.4910 -2.0019 0.9802
4.5817 -0.3277 -2.0019 0.9802
-1.3384 -0.0957 -0.6211 0.9941
-1.3116 -0.3348 -0.6266 0.9941
-1.3241 -0.3888 -0.6388 0.9939
-1.3263 -0.5494 -0.6645 0.9937
-1.3151 -0.6005 -0.6692 0.9936
-3.7958 -2.0727 -2.0019 0.9811
-3.6383 -2.3382 -2.0019 0.9811
-3.5525 -2.4666 -2.0019 0.9811
-3.4622 -2.5918 -2.0019 0.9811
-3.3675 -2.7137 -2.0019 0.9811
-3.2685 -2.8322 -2.0019 0.9811
-3.1654 -2.9471 -2.0019 0.9811
-2.9471 -3.1654 -2.0019 0.9811
-2.8322 -3.2685 -2.0019 0.9811
-2.5918 -3.4623 -2.0019 0.9811
-2.4666 -3.5526 -2.0019 0.9811
-2.2069 -3.7195 -2.0020 0.9811
-2.0727 -3.7959 -2.0020 0.9811
-1.6551 -3.9958 -2.0020 0.9811
-1.5114 -4.0523 -2.0020 0.9811
-1.0696 -4.1906 -2.0020 0.9811
-0.9193 -4.2262 -2.0020 0.9811
-0.6155 -4.2810 -2.0020 0.9811
0.1544 -4.3223 -2.0020 0.9811
0.3085 -4.3140 -2.0020 0.9811
0.6155 -4.2810 -2.0020 0.9811
0.7679 -4.2563 -2.0020 0.9811
1.3658 -4.1037 -2.0020 0.9811
1.5114 -4.0523 -2.0020 0.9811
1.6551 -3.9958 -2.0020 0.9811
1.7967 -3.9342 -2.0020 0.9811
1.9359 -3.8675 -2.0020 0.9811
2.3383 -3.6384 -2.0020 0.9811
2.8323 -3.2686 -2.0020 0.9811
2.9471 -3.1654 -2.0020 0.9811
3.0582 -3.0582 -2.0020 0.9811
3.1654 -2.9471 -2.0020 0.9811
3.2686 -2.8322 -2.0020 0.9811
3.7195 -2.2069 -2.0019 0.9811
3.7959 -2.0727 -2.0019 0.9811
3.9341 -1.7966 -2.0019 0.9811
4.0522 -1.5114 -2.0019 0.9811
4.3138 -0.3085 -2.0019 0.9811
4.3220 -0.1543 -2.0019 0.9811
-1.1953 -0.0855 -0.5878 0.9947
-1.1867 -0.1706 -0.5881 0.9947
-1.1791 -0.2127 -0.5877 0.9947
-1.1695 -0.2544 -0.5871 0.9947
-1.1590 -0.3403 -0.5925 0.9946
-1.1543 -0.4305 -0.6043 0.9945
-1.1484 -0.4757 -0.6097 0.9945
-1.1400 -0.5206 -0.6148 0.9944
-1.1291 -0.5652 -0.6194 0.9944
-1.1113 -0.6068 -0.6211 0.9944
-3.5098 -2.0825 -2.0019 0.9820
-3.4333 -2.2064 -2.0019 0.9820
-3.3523 -2.3276 -2.0019 0.9820
-3.0844 -2.6726 -2.0019 0.9820
-2.9870 -2.7810 -2.0019 0.9820
-2.8858 -2.8858 -2.0019 0.9820
-2.7810 -2.9870 -2.0019 0.9820
-2.5608 -3.1778 -2.0019 0.9820
-2.4458 -3.2672 -2.0019 0.9820
-2.2065 -3.4333 -2.0019 0.9820
-2.0825 -3.5099 -2.0019 0.9820
-1.8268 -3.6496 -2.0020 0.9820
-1.6954 -3.7124 -2.0020 0.9820
-1.5618 -3.7706 -2.0020 0.9820
-1.4263 -3.8239 -2.0020 0.9820
-1.2889 -3.8724 -2.0020 0.9820
-1.1498 -3.9160 -2.0020 0.9820
-1.0093 -3.9545 -2.0020 0.9820
-0.8675 -3.9880 -2.0020 0.9820
-0.7246 -4.0164 -2.0020 0.9820
-0.1457 -4.0787 -2.0020 0.9820
-0.0000 -4.0813 -2.0020 0.9820
0.1457 -4.0787 -2.0020 0.9820
0.2912 -4.0709 -2.0020 0.9820
0.4363 -4.0579 -2.0020 0.9820
0.7247 -4.0165 -2.0020 0.9820
1.0093 -3.9545 -2.0020 0.9820
1.1498 -3.9160 -2.0020 0.9820
1.2889 -3.8724 -2.0020 0.9820
1.5618 -3.7706 -2.0020 0.9820
1.6954 -3.7125 -2.0020 0.9820
2.0826 -3.5099 -2.0020 0.9820
2.2065 -3.4334 -2.0020 0.9820
2.3277 -3.3524 -2.0020 0.9820
2.4458 -3.2672 -2.0020 0.9820
2.6727 -3.0844 -2.0020 0.9820
2.7810 -2.9870 -2.0020 0.9820
2.9870 -2.7810 -2.0019 0.9820
3.0844 -2.6726 -2.0019 0.9820
3.1778 -2.5608 -2.0019 0.9820
3.3524 -2.3276 -2.0019 0.9820
3.6495 -1.8268 -2.0019 0.9820
3.8239 -1.4262 -2.0019 0.9820
3.8723 -1.2888 -2.0019 0.9820
3.9879 -0.8675 -2.0019 0.9820
4.0163 -0.7246 -2.0019 0.9820
4.0707 -0.2911 -2.0019 0.9820
4.0785 -0.1456 -2.0019 0.9820
-1.0814 -0.2352 -0.5741 0.9950
-1.0617 -0.3533 -0.5805 0.9950
-1.0576 -0.3945 -0.5856 0.9949
-1.0514 -0.4355 -0.5904 0.9949
-1.0298 -0.5154 -0.5974 0.9948
-1.0118 -0.5525 -0.5981 0.9948
-3.2463 -2.0862 -2.0019 0.9828
-3.1698 -2.2008 -2.0019 0.9828
-3.0892 -2.3125 -2.0019 0.9828
-3.0047 -2.4213 -2.0019 0.9828
-2.8243 -2.6295 -2.0019 0.9828
-2.7287 -2.7287 -2.0019 0.9828
-2.6295 -2.8243 -2.0019 0.9828
-2.3126 -3.0892 -2.0019 0.9828
-2.2008 -3.1698 -2.0019 0.9828
-1.7273 -3.4508 -2.0019 0.9828
-1.4768 -3.5652 -2.0020 0.9828
-0.9544 -3.7391 -2.0020 0.9828
0.2753 -3.8492 -2.0020 0.9828
0.4125 -3.8369 -2.0020 0.9828
0.8203 -3.7708 -2.0020 0.9828
0.9544 -3.7391 -2.0020 0.9828
1.3486 -3.6157 -2.0020 0.9828
1.4768 -3.5652 -2.0020 0.9828
1.6031 -3.5103 -2.0020 0.9828
1.7273 -3.4508 -2.0020 0.9828
1.9691 -3.3188 -2.0020 0.9828
2.3126 -3.0893 -2.0020 0.9828
2.4214 -3.0048 -2.0020 0.9828
2.5271 -2.9164 -2.0020 0.9828
2.6296 -2.8243 -2.0019 0.9828
2.9164 -2.5271 -2.0019 0.9828
3.0047 -2.4214 -2.0019 0.9828
3.0892 -2.3126 -2.0019 0.9828
3.1698 -2.2008 -2.0019 0.9828
3.2463 -2.0863 -2.0019 0.9828
3.3869 -1.8494 -2.0019 0.9828
3.5102 -1.6030 -2.0019 0.9828
3.6614 -1.2186 -2.0019 0.9828
3.7390 -0.9543 -2.0019 0.9828
3.8196 -0.5492 -2.0019 0.9828
3.8490 -0.2753 -2.0019 0.9828
-1.0265 -0.0734 -0.5637 0.9953
-1.0236 -0.1101 -0.5639 0.9953
-1.0039 -0.2184 -0.5627 0.9953
-0.9820 -0.2883 -0.5606 0.9953
-0.9677 -0.4008 -0.5737 0.9952
-0.9580 -0.4375 -0.5768 0.9952
-0.9434 -0.4722 -0.5778 0.9952
-0.8661 -0.6013 -0.5775 0.9952
-2.9260 -2.1904 -2.0019 0.9835
-2.7623 -2.3936 -2.0019 0.9835
-2.6751 -2.4906 -2.0019 0.9835
-2.5845 -2.5845 -2.0019 0.9835
-2.4907 -2.6752 -2.0019 0.9835
-2.2935 -2.8460 -2.0019 0.9835
-1.9761 -3.0749 -2.0019 0.9835
-1.8651 -3.1435 -2.0019 0.9835
-1.7517 -3.2080 -2.0019 0.9835
-1.5184 -3.3248 -2.0019 0.9835
-1.3988 -3.3769 -2.0019 0.9835
-0.6490 -3.5971 -2.0020 0.9835
-0.1305 -3.6529 -2.0020 0.9835
-0.0000 -3.6552 -2.0020 0.9835
0.1305 -3.6528 -2.0020 0.9835
0.3907 -3.6342 -2.0020 0.9835
0.5202 -3.6180 -2.0020 0.9835
0.6490 -3.5971 -2.0020 0.9835
0.9040 -3.5416 -2.0020 0.9835
1.1543 -3.4681 -2.0020 0.9835
1.2774 -3.4247 -2.0020 0.9835
1.6361 -3.2685 -2.0020 0.9835
1.9761 -3.0749 -2.0020 0.9835
2.2935 -2.8461 -2.0019 0.9835
2.3936 -2.7624 -2.0019 0.9835
2.5846 -2.5846 -2.0019 0.9835
2.9261 -2.1904 -2.0019 0.9835
3.0024 -2.0846 -2.0019 0.9835
3.0749 -1.9761 -2.0019 0.9835
3.1435 -1.8651 -2.0019 0.9835
3.2080 -1.7517 -2.0019 0.9835
3.2685 -1.6361 -2.0019 0.9835
3.3248 -1.5184 -2.0019 0.9835
3.4680 -1.1543 -2.0019 0.9835
3.5715 -0.7769 -2.0019 0.9835
3.5970 -0.6490 -2.0019 0.9835
3.6178 -0.5201 -2.0019 0.9835
3.6341 -0.3907 -2.0019 0.9835
-0.9565 -0.0684 -0.5536 0.9956
-0.9537 -0.1025 -0.5538 0.9956
-0.9492 -0.1365 -0.5536 0.9956
-0.9352 -0.2034 -0.5526 0.9956
-0.9011 -0.3361 -0.5553 0.9956
-0.8534 -0.4660 -0.5614 0.9955
-0.8178 -0.5256 -0.5613 0.9955
-0.8008 -0.5560 -0.5628 0.9955
-0.7846 -0.5873 -0.5658 0.9955
-2.6205 -2.2707 -2.0019 0.9841
-2.5378 -2.3627 -2.0019 0.9841
-2.2707 -2.6205 -2.0019 0.9841
-2.1757 -2.6999 -2.0019 0.9841
-1.8746 -2.9170 -2.0019 0.9841
-1.7693 -2.9821 -2.0019 0.9841
-1.6618 -3.0433 -2.0019 0.9841
-1.5521 -3.1007 -2.0019 0.9841
-1.2118 -3.2488 -2.0019 0.9841
-1.0950 -3.2900 -2.0019 0.9841
-0.9769 -3.3270 -2.0019 0.9841
-0.8575 -3.3598 -2.0019 0.9841
-0.6157 -3.4124 -2.0020 0.9841
-0.0000 -3.4675 -2.0020 0.9841
0.1238 -3.4653 -2.0020 0.9841
0.4935 -3.4322 -2.0020 0.9841
0.8575 -3.3598 -2.0020 0.9841
1.2118 -3.2488 -2.0020 0.9841
1.3269 -3.2035 -2.0020 0.9841
1.5521 -3.1007 -2.0020 0.9841
1.8747 -2.9170 -2.0019 0.9841
2.1757 -2.6999 -2.0019 0.9841
2.2707 -2.6205 -2.0019 0.9841
2.4519 -2.4519 -2.0019 0.9841
2.5378 -2.3628 -2.0019 0.9841
1.8508 -0.8452 -1.1747 0.9906
1.8620 -0.7713 -1.1636 0.9907
1.8682 -0.6968 -1.1512 0.9908
1.9351 -0.5682 -1.1644 0.9907
1.9616 -0.5006 -1.1688 0.9907
2.0153 -0.3636 -1.1823 0.9906
2.0301 -0.2919 -1.1841 0.9906
2.0366 -0.2189 -1.1826 0.9906
