ply
format ascii 1.0
element vertex 883
property float32 x
property float32 y
property float32 z
property float32 I
end_header
1.5168 4.5573 0.8469 0.9807
1.1879 4.6540 0.8469 0.9807
1.0210 4.6934 0.8469 0.9807
0.8528 4.7269 0.8469 0.9807
0.1714 4.8002 0.8469 0.9807
0.0000 4.8032 0.8469 0.9807
-0.3197 4.4698 0.7902 0.9820
-0.5134 4.7757 0.8469 0.9807
-0.6836 4.7544 0.8469 0.9807
-1.0210 4.6935 0.8469 0.9807
-1.1879 4.6541 0.8470 0.9807
-1.3533 4.6087 0.8470 0.9807
-1.8381 4.4377 0.8470 0.9807
-1.9954 4.3692 0.8470 0.9807
-2.1500 4.2952 0.8470 0.9807
1.3058 4.4471 0.7100 0.9814
0.1592 4.4568 0.6832 0.9821
-0.1593 4.4595 0.6836 0.9821
-0.8056 4.4650 0.6951 0.9818
-1.8464 4.4576 0.7391 0.9807
-2.0314 4.4480 0.7491 0.9804
1.0321 5.7204 0.7569 0.9768
0.8227 5.7222 0.7528 0.9770
-0.6165 5.7344 0.7510 0.9770
-0.8247 5.7361 0.7546 0.9769
-1.0352 5.7379 0.7593 0.9768
-1.9269 5.7894 0.7946 0.9757
1.2596 5.7906 0.6363 0.9764
1.0522 5.8319 0.6364 0.9764
0.2045 5.7274 0.6154 0.9772
-0.8287 5.7634 0.6253 0.9768
-1.0523 5.8321 0.6364 0.9764
-1.2597 5.7908 0.6364 0.9764
-1.4656 5.7422 0.6364 0.9764
-1.9123 5.7453 0.6502 0.9759
-1.8981 4.5823 0.5326 0.9802
-0.8287 5.7634 0.4929 0.9769
1.2978 4.4199 0.2857 0.9817
1.2818 5.0221 0.3214 0.9794
-0.0000 5.7788 0.3583 0.9771
-0.4136 5.7823 0.3595 0.9770
-0.6219 5.7841 0.3607 0.9770
-0.8287 5.7634 0.3611 0.9769
-1.2594 5.7894 0.3674 0.9765
-1.4782 5.7913 0.3706 0.9763
-1.7010 5.7932 0.3744 0.9761
1.3355 5.2327 0.2129 0.9786
-0.2065 5.7806 0.2281 0.9771
-0.4136 5.7823 0.2286 0.9771
-0.6219 5.7841 0.2294 0.9770
-1.0442 5.7876 0.2319 0.9767
-1.7010 5.7932 0.2381 0.9761
-1.9374 5.1944 0.2186 0.9781
1.2978 4.4199 0.0778 0.9817
1.3355 5.2327 0.0912 0.9786
0.2045 5.7274 0.0968 0.9773
-0.2065 5.7806 0.0977 0.9771
-0.4136 5.7823 0.0979 0.9771
-0.8287 5.7634 0.0984 0.9770
-1.0442 5.7876 0.0993 0.9767
-1.2594 5.7895 0.1001 0.9766
-1.4782 5.7913 0.1010 0.9764
-1.7010 5.7932 0.1020 0.9761
-1.9213 5.7727 0.1028 0.9760
-1.9374 5.1944 0.0936 0.9781
1.2978 4.4199 -0.0259 0.9817
-0.0000 5.7788 -0.0325 0.9771
-0.4136 5.7823 -0.0326 0.9771
-1.0442 5.7876 -0.0331 0.9767
-1.2594 5.7895 -0.0334 0.9766
-1.7010 5.7932 -0.0340 0.9761
1.2978 4.4199 -0.1297 0.9817
-0.2065 5.7806 -0.1629 0.9771
-0.4136 5.7823 -0.1632 0.9771
-0.6219 5.7841 -0.1638 0.9770
-1.0442 5.7876 -0.1656 0.9767
-1.2594 5.7895 -0.1668 0.9766
-1.4782 5.7913 -0.1683 0.9764
-1.7010 5.7932 -0.1700 0.9761
-1.9213 5.7727 -0.1713 0.9759
-1.9374 5.1944 -0.1561 0.9781
1.2978 4.4199 -0.2336 0.9817
0.2045 5.7275 -0.2906 0.9773
0.0000 5.7788 -0.2931 0.9771
-1.4782 5.7913 -0.3031 0.9763
-1.9213 5.7727 -0.3085 0.9759
-1.9374 5.1944 -0.2812 0.9780
1.3355 5.2326 -0.3960 0.9786
-0.2065 5.7806 -0.4241 0.9771
-0.4136 5.7823 -0.4251 0.9770
-0.8287 5.7635 -0.4269 0.9769
-1.2594 5.7895 -0.4344 0.9765
-1.4782 5.7913 -0.4382 0.9763
-1.9214 5.7727 -0.4461 0.9759
0.2045 5.7275 -0.5502 0.9772
-0.0000 5.7788 -0.5548 0.9770
-0.2065 5.7806 -0.5553 0.9770
-0.4136 5.7823 -0.5566 0.9770
-1.9374 5.1944 -0.5322 0.9780
1.2978 4.4200 -0.5472 0.9816
-0.0000 5.7788 -0.6864 0.9770
-0.2065 5.7806 -0.6871 0.9770
-0.4136 5.7823 -0.6886 0.9769
-1.2594 5.7895 -0.7038 0.9764
-1.4782 5.7913 -0.7100 0.9762
-1.9173 5.1404 -0.6517 0.9781
7.3599 5.5095 -1.3026 0.9635
7.2272 5.8241 -1.3151 0.9632
7.2391 6.2727 -1.3572 0.9620
1.2978 4.4200 -0.6527 0.9816
1.3355 5.2326 -0.7652 0.9784
0.2045 5.7275 -0.8120 0.9771
-0.2065 5.7806 -0.8196 0.9769
-0.6219 5.7841 -0.8243 0.9768
-1.2594 5.7895 -0.8395 0.9763
-1.4782 5.7913 -0.8469 0.9761
-1.7010 5.7932 -0.8555 0.9759
7.9141 5.4948 -1.5872 0.9617
7.3599 5.5095 -1.5146 0.9634
7.2272 5.8240 -1.5291 0.9631
7.2391 6.2727 -1.5780 0.9619
-0.2065 5.7806 -0.9529 0.9768
-0.6219 5.7841 -0.9584 0.9767
-0.8287 5.7635 -0.9592 0.9767
-1.0442 5.7877 -0.9689 0.9764
-1.2594 5.7895 -0.9761 0.9763
7.1377 6.6454 -1.8331 0.9611
1.2978 4.4200 -0.8659 0.9814
1.3355 5.2326 -1.0151 0.9783
0.2045 5.7275 -1.0772 0.9769
-0.4136 5.7823 -1.0896 0.9767
-0.6219 5.7841 -1.0934 0.9766
-1.0442 5.7877 -1.1054 0.9763
-1.4782 5.7913 -1.1234 0.9760
-1.9214 5.7727 -1.1436 0.9755
-1.9374 5.1944 -1.0420 0.9777
9.4707 0.0000 -2.0019 0.9620
9.4647 0.3380 -2.0019 0.9620
9.4465 0.6756 -2.0019 0.9620
9.3742 1.3478 -2.0019 0.9620
9.3201 1.6815 -2.0019 0.9620
9.2541 2.0131 -2.0019 0.9620
9.0869 2.6682 -2.0019 0.9620
8.8733 3.3096 -2.0019 0.9620
8.3368 4.1731 -1.9707 0.9626
7.3611 4.7307 -1.8496 0.9649
7.1876 4.9904 -1.8496 0.9649
7.0048 5.2438 -1.8496 0.9649
6.8132 5.4904 -1.8496 0.9649
6.4041 5.9624 -1.8496 0.9649
6.1872 6.1872 -1.8496 0.9649
5.9624 6.4041 -1.8496 0.9649
5.7300 6.6128 -1.8496 0.9649
5.2436 7.0046 -1.8496 0.9649
4.9902 7.1873 -1.8495 0.9649
4.7305 7.3608 -1.8495 0.9649
4.1933 7.6795 -1.8495 0.9649
3.6348 7.9590 -1.8495 0.9649
3.0577 8.1980 -1.8495 0.9649
1.3355 5.2326 -1.1415 0.9782
1.5535 8.6106 -1.8495 0.9649
0.9353 8.6994 -1.8495 0.9649
0.6242 8.7272 -1.8495 0.9649
-0.0000 5.7788 -1.2215 0.9767
-0.2065 5.7806 -1.2227 0.9766
-0.6219 5.7841 -1.2297 0.9765
-0.8287 5.7635 -1.2308 0.9765
-1.4782 5.7913 -1.2634 0.9759
-1.7010 5.7932 -1.2763 0.9756
-1.9374 5.1944 -1.1719 0.9776
-3.6347 7.9587 -1.8495 0.9649
-3.9164 7.8239 -1.8495 0.9649
-4.1932 7.6792 -1.8495 0.9649
-4.4646 7.5246 -1.8495 0.9649
-4.9900 7.1870 -1.8495 0.9649
-5.2434 7.0043 -1.8495 0.9649
-5.4900 6.8127 -1.8495 0.9649
-6.4037 5.9621 -1.8495 0.9649
-7.1871 4.9901 -1.8495 0.9649
-7.3606 4.7304 -1.8495 0.9649
-8.4423 4.2259 -1.9956 0.9621
-8.6093 3.9317 -2.0006 0.9620
-8.8726 3.3093 -2.0017 0.9620
-8.9851 2.9905 -2.0017 0.9620
-9.1756 2.3419 -2.0017 0.9620
-9.3734 1.3477 -2.0017 0.9620
-9.4156 1.0123 -2.0017 0.9620
-9.4639 0.3380 -2.0017 0.9620
8.5125 0.3040 -2.0019 0.9656
8.4962 0.6076 -2.0019 0.9656
8.4691 0.9105 -2.0019 0.9656
8.3231 1.8106 -2.0019 0.9656
8.2532 2.1065 -2.0019 0.9656
8.1727 2.3997 -2.0019 0.9656
8.0818 2.6899 -2.0019 0.9656
7.9806 2.9766 -2.0019 0.9656
7.8693 3.2596 -2.0018 0.9656
7.7479 3.5383 -2.0018 0.9656
7.6112 3.8099 -2.0004 0.9656
6.3002 4.7162 -1.8496 0.9682
5.5648 5.5648 -1.8496 0.9682
4.9380 6.1277 -1.8496 0.9682
4.7161 6.3000 -1.8496 0.9682
4.2546 6.6204 -1.8495 0.9682
4.0156 6.7680 -1.8495 0.9682
3.2691 7.1584 -1.8495 0.9682
3.0115 7.2705 -1.8495 0.9682
2.4852 7.4668 -1.8495 0.9682
1.2978 4.4200 -1.0826 0.9812
1.6728 7.6896 -1.8495 0.9682
1.3972 7.7444 -1.8495 0.9682
1.1199 7.7893 -1.8495 0.9682
0.8412 7.8243 -1.8495 0.9682
0.5614 7.8493 -1.8495 0.9682
-0.3916 5.4747 -1.2900 0.9777
-0.5872 5.4613 -1.2909 0.9777
-1.1739 5.3964 -1.2979 0.9776
-3.0115 7.2703 -1.8495 0.9682
-3.5225 7.0369 -1.8495 0.9682
-4.0155 6.7677 -1.8495 0.9682
-4.2545 6.6201 -1.8495 0.9682
-4.7159 6.2997 -1.8495 0.9682
-5.1533 5.9473 -1.8495 0.9682
-5.5645 5.5645 -1.8495 0.9682
-5.7596 5.3623 -1.8495 0.9682
-5.9473 5.1533 -1.8495 0.9682
-6.1274 4.9378 -1.8495 0.9682
-6.2998 4.7160 -1.8495 0.9682
-6.7272 4.3233 -1.8794 0.9677
-7.2617 4.3086 -1.9845 0.9659
-7.8687 3.2593 -2.0017 0.9656
-8.1721 2.3995 -2.0017 0.9656
-8.2526 2.1063 -2.0017 0.9656
-8.3225 1.8105 -2.0017 0.9656
-8.4305 1.2121 -2.0017 0.9656
-8.4956 0.6076 -2.0018 0.9656
7.7318 0.0000 -2.0019 0.9686
7.7269 0.2760 -2.0019 0.9686
7.7121 0.5516 -2.0019 0.9686
7.6531 1.1004 -2.0019 0.9686
7.6089 1.3728 -2.0019 0.9686
7.5550 1.6435 -2.0019 0.9686
7.4185 2.1783 -2.0019 0.9686
7.3360 2.4416 -2.0019 0.9686
7.2441 2.7019 -2.0019 0.9686
7.1431 2.9587 -2.0018 0.9686
6.7858 3.7053 -2.0018 0.9686
6.4805 4.1648 -1.9945 0.9687
6.0560 4.2048 -1.9089 0.9700
5.2283 4.8677 -1.8496 0.9709
5.0512 5.0512 -1.8496 0.9709
4.8677 5.2283 -1.8496 0.9709
4.6780 5.3987 -1.8496 0.9709
4.4823 5.5622 -1.8496 0.9709
4.2809 5.7186 -1.8496 0.9709
3.8620 6.0094 -1.8496 0.9709
3.6450 6.1434 -1.8496 0.9709
3.4234 6.2696 -1.8495 0.9709
3.1975 6.3878 -1.8495 0.9709
2.7336 6.5996 -1.8495 0.9709
1.7666 6.9214 -1.8495 0.9709
1.5184 6.9800 -1.8495 0.9709
1.2683 7.0297 -1.8495 0.9709
1.0166 7.0705 -1.8495 0.9709
0.1966 5.5055 -1.4264 0.9775
0.0000 5.2345 -1.3553 0.9786
-1.7666 6.9213 -1.8495 0.9709
-2.4963 6.6928 -1.8495 0.9709
-3.1974 6.3876 -1.8495 0.9709
-3.4234 6.2694 -1.8495 0.9709
-4.0739 5.8675 -1.8495 0.9709
-5.0510 5.0510 -1.8495 0.9709
-5.2281 4.8675 -1.8495 0.9709
-5.7674 4.3174 -1.8653 0.9707
-6.2001 4.3048 -1.9543 0.9693
-6.6437 3.9419 -2.0002 0.9686
-6.7854 3.7051 -2.0017 0.9686
-7.0324 3.2116 -2.0017 0.9686
-7.4180 2.1781 -2.0017 0.9686
-7.4910 1.9119 -2.0017 0.9686
-7.6084 1.3727 -2.0017 0.9686
-7.6525 1.1003 -2.0017 0.9686
-7.6869 0.8264 -2.0018 0.9686
-7.7116 0.5515 -2.0018 0.9686
-7.7264 0.2759 -2.0018 0.9686
7.0715 0.0000 -2.0019 0.9710
7.0670 0.2524 -2.0019 0.9710
7.0535 0.5045 -2.0019 0.9710
6.9995 1.0064 -2.0019 0.9710
6.9098 1.5031 -2.0019 0.9710
6.8517 1.7488 -2.0019 0.9710
6.6255 2.4712 -2.0019 0.9710
6.5331 2.7061 -2.0018 0.9710
6.4323 2.9375 -2.0018 0.9710
6.3233 3.1652 -2.0018 0.9710
6.2063 3.3889 -2.0018 0.9710
5.9447 3.8204 -2.0005 0.9711
5.7946 4.0233 -1.9970 0.9711
5.6042 4.1952 -1.9818 0.9713
4.9377 4.2786 -1.8496 0.9732
4.7818 4.4521 -1.8496 0.9732
4.4520 4.7818 -1.8496 0.9732
4.2785 4.9377 -1.8496 0.9732
4.0995 5.0872 -1.8496 0.9732
3.5322 5.4963 -1.8496 0.9732
3.3338 5.6188 -1.8496 0.9732
3.1311 5.7342 -1.8496 0.9732
2.5002 6.0360 -1.8495 0.9732
2.2832 6.1214 -1.8495 0.9732
2.0632 6.1990 -1.8495 0.9732
1.2978 4.4200 -1.3041 0.9810
1.6157 6.3303 -1.8495 0.9732
0.6983 6.4958 -1.8495 0.9732
0.4661 6.5166 -1.8495 0.9732
0.2045 5.7275 -1.6224 0.9765
-0.0000 6.5332 -1.8495 0.9732
-0.4661 6.5166 -1.8495 0.9732
-0.6984 6.4958 -1.8495 0.9732
-0.8287 5.7635 -1.6484 0.9761
-1.3888 6.3839 -1.8495 0.9732
-1.6157 6.3303 -1.8495 0.9732
-2.2831 6.1213 -1.8495 0.9732
-2.7140 5.9428 -1.8495 0.9732
-2.9244 5.8421 -1.8495 0.9732
-3.1310 5.7340 -1.8495 0.9732
-3.5321 5.4961 -1.8495 0.9732
-3.9152 5.2301 -1.8495 0.9732
-4.6197 4.6197 -1.8495 0.9732
-5.9484 3.8228 -2.0017 0.9710
-6.0810 3.6081 -2.0017 0.9710
-6.2060 3.3887 -2.0017 0.9710
-6.4319 2.9373 -2.0017 0.9710
-6.7845 1.9921 -2.0017 0.9710
-6.9587 1.2555 -2.0018 0.9710
-7.0305 0.7558 -2.0018 0.9710
-7.0666 0.2524 -2.0018 0.9710
6.5044 0.2323 -2.0019 0.9731
6.4920 0.4643 -2.0019 0.9731
6.4712 0.6957 -2.0019 0.9731
6.4423 0.9263 -2.0019 0.9731
6.3597 1.3835 -2.0019 0.9731
6.3063 1.6096 -2.0019 0.9731
6.2448 1.8336 -2.0019 0.9731
6.0981 2.2745 -2.0019 0.9731
5.8199 2.9133 -2.0018 0.9731
5.7122 3.1191 -2.0018 0.9731
5.4752 3.5187 -2.0018 0.9731
5.3461 3.7118 -2.0018 0.9731
5.0537 4.0725 -1.9963 0.9732
4.5316 4.2191 -1.9044 0.9744
4.2521 4.2521 -1.8496 0.9751
3.9379 4.5446 -1.8496 0.9751
3.7732 4.6823 -1.8496 0.9751
3.4295 4.9395 -1.8496 0.9751
3.0684 5.1715 -1.8496 0.9751
2.6916 5.3772 -1.8496 0.9751
2.4980 5.4699 -1.8496 0.9751
2.1014 5.6341 -1.8495 0.9751
1.8990 5.7055 -1.8495 0.9751
1.2782 5.8758 -1.8495 0.9751
1.0677 5.9177 -1.8495 0.9751
0.8558 5.9520 -1.8495 0.9751
0.6428 5.9787 -1.8495 0.9751
-0.6428 5.9787 -1.8495 0.9751
-1.0677 5.9176 -1.8495 0.9751
-1.6941 5.7696 -1.8495 0.9751
-1.8990 5.7054 -1.8495 0.9751
-2.4980 5.4697 -1.8495 0.9751
-2.6916 5.3771 -1.8495 0.9751
-3.0683 5.1714 -1.8495 0.9751
-4.0975 4.4010 -1.8495 0.9751
-4.3033 4.3033 -1.8718 0.9749
-4.9013 4.2470 -1.9948 0.9732
-5.0572 4.0753 -1.9977 0.9732
-5.4749 3.5185 -2.0017 0.9731
-6.1750 2.0552 -2.0017 0.9731
-6.2445 1.8335 -2.0017 0.9731
-6.3060 1.6095 -2.0018 0.9731
-6.4709 0.6957 -2.0018 0.9731
-6.4916 0.4643 -2.0018 0.9731
-6.5040 0.2323 -2.0018 0.9731
6.0186 0.2149 -2.0019 0.9749
6.0071 0.4296 -2.0019 0.9749
5.9879 0.6438 -2.0019 0.9749
5.9611 0.8571 -2.0019 0.9749
5.9267 1.0693 -2.0019 0.9749
5.8353 1.4894 -2.0019 0.9749
5.5639 2.3046 -2.0018 0.9749
5.4781 2.5017 -2.0018 0.9749
5.3853 2.6957 -2.0018 0.9749
5.1792 3.0730 -2.0018 0.9749
5.0662 3.2559 -2.0018 0.9749
4.5441 3.9375 -1.9987 0.9750
4.3950 4.0919 -1.9961 0.9750
4.2082 4.2082 -1.9783 0.9752
3.9308 4.2220 -1.9175 0.9760
3.4914 4.3326 -1.8496 0.9768
3.0082 4.6809 -1.8496 0.9768
2.8392 4.7853 -1.8496 0.9768
2.6666 4.8836 -1.8496 0.9768
2.4906 4.9756 -1.8496 0.9768
1.7571 5.2794 -1.8496 0.9768
1.3760 5.3913 -1.8495 0.9768
1.1827 5.4370 -1.8495 0.9768
0.7918 5.5075 -1.8495 0.9768
0.5948 5.5322 -1.8495 0.9768
0.3969 5.5499 -1.8495 0.9768
0.1986 5.5605 -1.8495 0.9768
-0.1986 5.5605 -1.8495 0.9768
-0.3970 5.5499 -1.8495 0.9768
-0.5948 5.5322 -1.8495 0.9768
-1.1827 5.4369 -1.8495 0.9768
-1.3760 5.3912 -1.8495 0.9768
-1.5676 5.3387 -1.8495 0.9768
-1.9445 5.2132 -1.8495 0.9768
-2.3114 5.0612 -1.8495 0.9768
-3.3361 4.4565 -1.8505 0.9768
-3.4913 4.3324 -1.8495 0.9768
-3.7216 4.2949 -1.8891 0.9763
-4.5470 3.9400 -1.9999 0.9750
-4.8208 3.6088 -2.0017 0.9749
-4.9466 3.4345 -2.0017 0.9749
-5.1790 3.0728 -2.0017 0.9749
-5.2854 2.8860 -2.0017 0.9749
-5.3850 2.6955 -2.0017 0.9749
-5.4778 2.5016 -2.0017 0.9749
-5.6423 2.1045 -2.0017 0.9749
-5.7781 1.6966 -2.0018 0.9749
-5.8844 1.2801 -2.0018 0.9749
-5.9608 0.8570 -2.0018 0.9749
-6.0068 0.4296 -2.0018 0.9749
5.5980 0.0000 -2.0019 0.9765
5.5944 0.1998 -2.0019 0.9765
5.5659 0.5984 -2.0019 0.9765
5.5090 0.9939 -2.0019 0.9765
5.4240 1.3844 -2.0019 0.9765
5.3712 1.5771 -2.0019 0.9765
5.2449 1.9563 -2.0018 0.9765
5.1718 2.1422 -2.0018 0.9765
5.0058 2.5057 -2.0018 0.9765
4.9131 2.6828 -2.0018 0.9765
4.8142 2.8564 -2.0018 0.9765
4.7092 3.0264 -2.0018 0.9765
4.5981 3.1926 -2.0018 0.9765
4.4813 3.3546 -2.0018 0.9765
4.3587 3.5124 -2.0018 0.9765
4.2305 3.6658 -2.0018 0.9765
3.8039 4.0856 -1.9963 0.9766
3.6485 4.2106 -1.9924 0.9766
3.1692 4.2336 -1.8912 0.9778
2.6392 4.4481 -1.8496 0.9783
1.9792 4.7784 -1.8496 0.9783
1.0994 5.0538 -1.8496 0.9783
0.7360 5.1193 -1.8495 0.9783
0.3690 5.1588 -1.8495 0.9783
-0.0000 5.1720 -1.8495 0.9783
-0.1846 5.1687 -1.8495 0.9783
-0.5529 5.1423 -1.8495 0.9783
-0.9183 5.0898 -1.8495 0.9783
-1.0994 5.0538 -1.8495 0.9783
-1.2791 5.0113 -1.8495 0.9783
-1.4571 4.9625 -1.8495 0.9783
-1.9792 4.7783 -1.8495 0.9783
-2.6405 4.4503 -1.8505 0.9783
-2.7962 4.3509 -1.8495 0.9783
-3.4478 4.2785 -1.9650 0.9769
-3.8058 4.0878 -1.9973 0.9766
-3.9539 3.9539 -1.9996 0.9765
-4.0968 3.8143 -2.0017 0.9765
-4.3585 3.5123 -2.0017 0.9765
-4.4811 3.3545 -2.0017 0.9765
-5.0055 2.5056 -2.0017 0.9765
-5.0918 2.3253 -2.0017 0.9765
-5.4238 1.3843 -2.0018 0.9765
-5.5087 0.9939 -2.0018 0.9765
-5.5407 0.7966 -2.0018 0.9765
-5.5656 0.5984 -2.0018 0.9765
-5.5942 0.1998 -2.0018 0.9765
5.2205 0.1864 -2.0019 0.9779
5.1707 0.7434 -2.0019 0.9779
5.1044 1.1104 -2.0019 0.9779
5.0615 1.2919 -2.0019 0.9779
4.9565 1.6497 -2.0019 0.9779
4.8261 1.9991 -2.0018 0.9779
4.7517 2.1700 -2.0018 0.9779
4.6712 2.3382 -2.0018 0.9779
4.5848 2.5035 -2.0018 0.9779
4.3945 2.8241 -2.0018 0.9779
4.1818 3.1304 -2.0018 0.9779
4.0674 3.2777 -2.0018 0.9779
3.9478 3.4208 -2.0018 0.9779
3.6937 3.6937 -2.0018 0.9779
3.1197 4.1675 -1.9950 0.9779
2.9308 4.2212 -1.9693 0.9782
2.7190 4.2309 -1.9273 0.9787
2.3202 4.2492 -1.8553 0.9795
2.1604 4.3159 -1.8496 0.9795
2.0050 4.3903 -1.8496 0.9795
1.8470 4.4590 -1.8496 0.9795
1.6866 4.5221 -1.8496 0.9795
1.5242 4.5794 -1.8496 0.9795
1.0259 4.7161 -1.8496 0.9795
0.8569 4.7497 -1.8496 0.9795
0.6868 4.7772 -1.8496 0.9795
0.3443 4.8141 -1.8495 0.9795
0.1722 4.8233 -1.8495 0.9795
-0.0000 4.8264 -1.8495 0.9795
-0.1723 4.8233 -1.8495 0.9795
-0.5159 4.7987 -1.8495 0.9795
-1.0259 4.7160 -1.8495 0.9795
-1.8470 4.4590 -1.8495 0.9795
-2.1604 4.3158 -1.8495 0.9795
-2.3403 4.2860 -1.8714 0.9793
-2.9642 4.2692 -1.9917 0.9780
-3.4172 3.9436 -1.9997 0.9779
-3.9477 3.4207 -2.0017 0.9779
-4.0672 3.2776 -2.0017 0.9779
-4.1817 3.1303 -2.0017 0.9779
-4.3943 2.8240 -2.0017 0.9779
-4.4923 2.6654 -2.0017 0.9779
-4.6710 2.3381 -2.0018 0.9779
-4.7515 2.1699 -2.0018 0.9779
-4.8259 1.9990 -2.0018 0.9779
-4.8942 1.8254 -2.0018 0.9779
-4.9563 1.6496 -2.0018 0.9779
-5.0120 1.4716 -2.0018 0.9779
-5.0613 1.2918 -2.0018 0.9779
-5.1042 1.1104 -2.0018 0.9779
-5.1406 0.9275 -2.0018 0.9779
4.8913 0.0000 -2.0019 0.9791
4.8788 0.3489 -2.0019 0.9791
4.8135 0.8685 -2.0019 0.9791
4.7393 1.2096 -2.0019 0.9791
4.6931 1.3780 -2.0019 0.9791
4.6409 1.5446 -2.0019 0.9791
4.4492 2.0319 -2.0018 0.9791
4.3738 2.1894 -2.0018 0.9791
4.2065 2.4958 -2.0018 0.9791
4.0177 2.7895 -2.0018 0.9791
3.8084 3.0690 -2.0018 0.9791
3.6964 3.2030 -2.0018 0.9791
3.4585 3.4585 -2.0018 0.9791
3.2030 3.6964 -2.0018 0.9791
3.0679 3.8071 -2.0011 0.9791
2.7838 4.0094 -1.9977 0.9791
2.3078 4.2264 -1.9709 0.9794
2.1195 4.2342 -1.9379 0.9797
1.1176 4.3788 -1.8496 0.9807
0.8024 4.4473 -1.8496 0.9807
0.6431 4.4731 -1.8496 0.9807
0.4831 4.4932 -1.8496 0.9807
0.3224 4.5076 -1.8496 0.9807
0.1613 4.5162 -1.8496 0.9807
-0.0000 4.5191 -1.8496 0.9807
-0.3224 4.5076 -1.8495 0.9807
-0.4831 4.4932 -1.8495 0.9807
-0.6431 4.4731 -1.8495 0.9807
-0.8024 4.4473 -1.8495 0.9807
-0.9606 4.4158 -1.8495 0.9807
-1.2732 4.3360 -1.8495 0.9807
-1.4272 4.2881 -1.8496 0.9807
-1.5963 4.2798 -1.8695 0.9805
-1.7715 4.2767 -1.8945 0.9802
-2.1369 4.2689 -1.9538 0.9796
-2.6378 4.1045 -1.9969 0.9791
-2.7849 4.0109 -1.9985 0.9791
-2.9287 3.9123 -2.0002 0.9791
-3.2029 3.6963 -2.0017 0.9791
-3.4584 3.4584 -2.0017 0.9791
-3.6963 3.2029 -2.0017 0.9791
-3.9154 2.9310 -2.0017 0.9791
-4.1146 2.6443 -2.0018 0.9791
-4.3736 2.1893 -2.0018 0.9791
-4.4490 2.0318 -2.0018 0.9791
-4.5187 1.8717 -2.0018 0.9791
-4.5826 1.7092 -2.0018 0.9791
-4.6407 1.5446 -2.0018 0.9791
-4.6929 1.3780 -2.0018 0.9791
-4.7391 1.2096 -2.0018 0.9791
-4.7793 1.0397 -2.0018 0.9791
-1.9570 0.2104 -0.8055 0.9915
-1.9308 0.0690 -0.7907 0.9917
4.5817 0.3277 -2.0019 0.9802
4.5670 0.4910 -2.0019 0.9802
4.5466 0.6537 -2.0019 0.9802
4.5204 0.8156 -2.0019 0.9802
4.4884 0.9764 -2.0019 0.9802
4.4073 1.2941 -2.0019 0.9802
4.1074 2.0560 -2.0018 0.9802
3.7730 2.6196 -2.0018 0.9802
3.4713 3.0079 -2.0018 0.9802
3.3618 3.1299 -2.0018 0.9802
3.2479 3.2479 -2.0018 0.9802
3.1299 3.3618 -2.0018 0.9802
3.0079 3.4713 -2.0018 0.9802
2.8821 3.5765 -2.0018 0.9802
2.7526 3.6770 -2.0018 0.9802
2.6195 3.7728 -2.0017 0.9802
2.3403 3.9444 -1.9989 0.9802
2.0504 4.0961 -1.9963 0.9802
1.9018 4.1643 -1.9952 0.9802
1.7509 4.2271 -1.9940 0.9802
1.4108 4.2388 -1.9470 0.9807
1.2461 4.2438 -1.9276 0.9809
1.0843 4.2484 -1.9109 0.9811
0.9251 4.2524 -1.8966 0.9812
0.7679 4.2560 -1.8848 0.9813
-0.0000 4.2674 -1.8598 0.9816
-0.1525 4.2685 -1.8615 0.9815
-0.4590 4.2693 -1.8714 0.9814
-0.7702 4.2686 -1.8904 0.9813
-1.0889 4.2661 -1.9189 0.9810
-1.2521 4.2642 -1.9369 0.9808
-1.5885 4.2590 -1.9811 0.9804
-1.7515 4.2284 -1.9946 0.9802
-1.9023 4.1654 -1.9957 0.9802
-2.1973 4.0240 -1.9982 0.9802
-2.3411 3.9457 -1.9995 0.9802
-2.4822 3.8624 -2.0009 0.9802
-2.7525 3.6769 -2.0017 0.9802
-2.8820 3.5764 -2.0017 0.9802
-3.2478 3.2478 -2.0017 0.9802
-3.6770 2.7525 -2.0018 0.9802
-3.7729 2.6195 -2.0018 0.9802
-3.8640 2.4832 -2.0018 0.9802
-3.9502 2.3437 -2.0018 0.9802
-4.1073 2.0560 -2.0018 0.9802
-4.1781 1.9080 -2.0018 0.9802
-4.2435 1.7577 -2.0018 0.9802
-1.5707 0.4612 -0.7134 0.9929
-1.5485 0.3952 -0.6965 0.9931
-1.5152 0.2178 -0.6671 0.9933
-1.5249 0.1639 -0.6684 0.9933
-1.5293 0.1094 -0.6682 0.9933
-1.5284 0.0546 -0.6665 0.9933
4.3000 0.4623 -2.0019 0.9811
4.2807 0.6155 -2.0019 0.9811
4.1904 1.0695 -2.0019 0.9811
4.1495 1.2184 -2.0019 0.9811
4.0520 1.5113 -2.0018 0.9811
3.9955 1.6550 -2.0018 0.9811
3.7957 2.0726 -2.0018 0.9811
3.7193 2.2068 -2.0018 0.9811
3.6381 2.3381 -2.0018 0.9811
3.5524 2.4665 -2.0018 0.9811
3.4621 2.5917 -2.0018 0.9811
3.3674 2.7136 -2.0018 0.9811
3.2683 2.8320 -2.0018 0.9811
3.1652 2.9469 -2.0018 0.9811
3.0580 3.0580 -2.0018 0.9811
2.9469 3.1652 -2.0018 0.9811
2.8320 3.2683 -2.0018 0.9811
2.7136 3.3673 -2.0018 0.9811
2.2067 3.7192 -2.0018 0.9811
1.6520 3.9883 -1.9982 0.9812
1.5079 4.0429 -1.9973 0.9812
1.3621 4.0924 -1.9965 0.9812
1.0659 4.1763 -1.9951 0.9812
0.9159 4.2105 -1.9946 0.9812
0.4561 4.2421 -1.9749 0.9814
0.3036 4.2444 -1.9697 0.9814
0.1516 4.2463 -1.9668 0.9814
0.0000 4.2477 -1.9662 0.9815
-0.6110 4.2492 -1.9871 0.9813
-0.7650 4.2399 -1.9943 0.9812
-1.2149 4.1376 -1.9961 0.9812
-1.7946 3.9297 -1.9997 0.9811
-2.3380 3.6380 -2.0017 0.9811
-2.4664 3.5522 -2.0017 0.9811
-2.5916 3.4619 -2.0017 0.9811
-2.8320 3.2682 -2.0018 0.9811
-3.0579 3.0579 -2.0018 0.9811
-3.1651 2.9468 -2.0018 0.9811
-3.5523 2.4664 -2.0018 0.9811
-3.7956 2.0725 -2.0018 0.9811
-3.8671 1.9357 -2.0018 0.9811
-1.3151 0.6006 -0.6692 0.9936
-1.3263 0.5494 -0.6645 0.9937
-1.3324 0.4969 -0.6582 0.9938
-1.3324 0.4435 -0.6500 0.9938
-1.3117 0.3348 -0.6266 0.9941
-1.3013 0.2831 -0.6164 0.9941
-1.3351 0.1435 -0.6215 0.9941
-1.3384 0.0957 -0.6211 0.9941
-1.3376 0.0478 -0.6195 0.9941
4.0785 0.1457 -2.0019 0.9820
4.0577 0.4363 -2.0019 0.9820
4.0395 0.5808 -2.0019 0.9820
3.4331 2.2064 -2.0018 0.9820
3.3522 2.3275 -2.0018 0.9820
3.2670 2.4456 -2.0018 0.9820
3.1776 2.5607 -2.0018 0.9820
2.9868 2.7809 -2.0018 0.9820
2.8857 2.8857 -2.0018 0.9820
2.7808 2.9868 -2.0018 0.9820
2.4456 3.2670 -2.0018 0.9820
2.3274 3.3522 -2.0018 0.9820
2.2063 3.4331 -2.0018 0.9820
1.9558 3.5817 -2.0018 0.9820
1.6953 3.7121 -2.0018 0.9820
1.4256 3.8222 -2.0011 0.9820
1.1485 3.9113 -1.9996 0.9820
1.0078 3.9486 -1.9990 0.9820
0.8660 3.9810 -1.9985 0.9820
0.7232 4.0085 -1.9980 0.9820
0.4353 4.0486 -1.9974 0.9820
0.2904 4.0611 -1.9972 0.9820
-0.0000 4.0712 -1.9970 0.9820
-0.1453 4.0688 -1.9971 0.9820
-0.4353 4.0488 -1.9975 0.9820
-0.7233 4.0089 -1.9982 0.9820
-1.1487 3.9119 -1.9999 0.9820
-1.2880 3.8699 -2.0006 0.9820
-1.4259 3.8230 -2.0015 0.9820
-1.8267 3.6492 -2.0018 0.9820
-1.9558 3.5817 -2.0018 0.9820
-2.4456 3.2669 -2.0018 0.9820
-2.5606 3.1775 -2.0018 0.9820
-2.6724 3.0841 -2.0018 0.9820
-2.7808 2.9867 -2.0018 0.9820
-2.8856 2.8856 -2.0018 0.9820
-2.9868 2.7808 -2.0018 0.9820
-3.0841 2.6724 -2.0018 0.9820
-3.2669 2.4456 -2.0018 0.9820
-3.3521 2.3274 -2.0018 0.9820
-3.4331 2.2063 -2.0018 0.9820
-1.1292 0.5652 -0.6194 0.9944
-1.1578 0.2955 -0.5861 0.9947
-1.1791 0.2127 -0.5877 0.9947
-1.1867 0.1706 -0.5881 0.9947
-1.1921 0.1281 -0.5881 0.9947
-1.1954 0.0855 -0.5878 0.9947
3.8588 0.0000 -2.0019 0.9828
3.7975 0.6851 -2.0019 0.9828
3.6613 1.2186 -2.0019 0.9828
3.5650 1.4767 -2.0018 0.9828
3.5100 1.6030 -2.0018 0.9828
3.3186 1.9690 -2.0018 0.9828
3.2462 2.0862 -2.0018 0.9828
3.1696 2.2007 -2.0018 0.9828
3.0891 2.3124 -2.0018 0.9828
2.9162 2.5269 -2.0018 0.9828
2.8242 2.6294 -2.0018 0.9828
2.7285 2.7285 -2.0018 0.9828
2.5269 2.9162 -2.0018 0.9828
2.4212 3.0045 -2.0018 0.9828
2.3124 3.0890 -2.0018 0.9828
2.2007 3.1696 -2.0018 0.9828
2.0861 3.2461 -2.0018 0.9828
1.9690 3.3185 -2.0018 0.9828
1.8492 3.3866 -2.0018 0.9828
1.4766 3.5649 -2.0018 0.9828
0.8202 3.7704 -2.0018 0.9828
0.6850 3.7970 -2.0016 0.9828
0.2751 3.8469 -2.0008 0.9828
-0.1377 3.8542 -2.0007 0.9828
-0.2752 3.8471 -2.0009 0.9828
-0.8202 3.7704 -2.0018 0.9828
-0.9543 3.7387 -2.0018 0.9828
-1.3485 3.6153 -2.0018 0.9828
-1.6029 3.5099 -2.0018 0.9828
-1.8492 3.3866 -2.0018 0.9828
-2.0861 3.2460 -2.0018 0.9828
-2.3124 3.0890 -2.0018 0.9828
-2.7284 2.7284 -2.0018 0.9828
-2.8241 2.6293 -2.0018 0.9828
-3.1696 2.2007 -2.0018 0.9828
-3.2461 2.0861 -2.0018 0.9828
-1.0298 0.5155 -0.5974 0.9948
-1.0576 0.3945 -0.5856 0.9949
-1.0617 0.3533 -0.5805 0.9950
-1.0636 0.3123 -0.5751 0.9950
-1.0704 0.2732 -0.5731 0.9950
-1.0814 0.2352 -0.5741 0.9950
-1.0905 0.1967 -0.5749 0.9950
-1.0974 0.1578 -0.5752 0.9950
-1.1055 0.0791 -0.5750 0.9950
3.6457 0.2607 -2.0019 0.9835
3.6341 0.3907 -2.0019 0.9835
3.6178 0.5202 -2.0019 0.9835
3.5715 0.7769 -2.0019 0.9835
3.5415 0.9039 -2.0019 0.9835
3.5069 1.0297 -2.0019 0.9835
3.3767 1.3987 -2.0018 0.9835
3.1433 1.8650 -2.0018 0.9835
2.9259 2.1903 -2.0018 0.9835
2.5844 2.5844 -2.0018 0.9835
2.4905 2.6750 -2.0018 0.9835
2.1903 2.9259 -2.0018 0.9835
2.0845 3.0022 -2.0018 0.9835
1.9760 3.0747 -2.0018 0.9835
1.8650 3.1432 -2.0018 0.9835
1.6360 3.2683 -2.0018 0.9835
1.5183 3.3246 -2.0018 0.9835
1.3987 3.3767 -2.0018 0.9835
0.6489 3.5968 -2.0018 0.9835
0.5201 3.6176 -2.0018 0.9835
0.3907 3.6339 -2.0018 0.9835
0.2607 3.6455 -2.0018 0.9835
0.1304 3.6525 -2.0018 0.9835
0.0000 3.6548 -2.0018 0.9835
-0.2607 3.6455 -2.0018 0.9835
-0.5201 3.6176 -2.0018 0.9835
-0.6489 3.5967 -2.0018 0.9835
-0.9039 3.5413 -2.0018 0.9835
-1.0297 3.5068 -2.0018 0.9835
-1.2772 3.4244 -2.0018 0.9835
-1.3987 3.3766 -2.0018 0.9835
-1.5183 3.3246 -2.0018 0.9835
-1.7516 3.2078 -2.0018 0.9835
-2.1903 2.9258 -2.0018 0.9835
-2.2933 2.8458 -2.0018 0.9835
-2.4905 2.6750 -2.0018 0.9835
-2.5844 2.5844 -2.0018 0.9835
-2.6750 2.4905 -2.0018 0.9835
-2.7622 2.3934 -2.0018 0.9835
-2.8458 2.2933 -2.0018 0.9835
-0.8661 0.6014 -0.5775 0.9952
-0.9269 0.5061 -0.5784 0.9952
-0.9741 0.3633 -0.5694 0.9953
-0.9938 0.2536 -0.5618 0.9953
-1.0276 0.0367 -0.5632 0.9953
2.0197 -0.0000 -1.1661 0.9907
2.0320 0.0726 -1.1739 0.9907
2.0359 0.1456 -1.1784 0.9906
2.0300 0.2919 -1.1841 0.9906
2.0153 0.3636 -1.1823 0.9906
1.9883 0.4325 -1.1748 0.9906
1.9351 0.5682 -1.1644 0.9907
1.9033 0.6335 -1.1581 0.9908
3.1005 1.5520 -2.0018 0.9841
2.9168 1.8745 -2.0018 0.9841
2.8481 1.9775 -2.0018 0.9841
2.7757 2.0779 -2.0018 0.9841
2.6998 2.1756 -2.0018 0.9841
2.6204 2.2706 -2.0018 0.9841
2.5377 2.3626 -2.0018 0.9841
2.4517 2.4517 -2.0018 0.9841
2.3626 2.5376 -2.0018 0.9841
2.2706 2.6204 -2.0018 0.9841
2.0778 2.7757 -2.0018 0.9841
1.9774 2.8480 -2.0018 0.9841
1.8745 2.9168 -2.0018 0.9841
1.7692 2.9818 -2.0018 0.9841
1.4403 3.1539 -2.0018 0.9841
1.3268 3.2033 -2.0018 0.9841
1.2116 3.2486 -2.0018 0.9841
0.9768 3.3267 -2.0018 0.9841
0.8575 3.3595 -2.0018 0.9841
0.4934 3.4319 -2.0018 0.9841
0.1237 3.4650 -2.0018 0.9841
-0.0000 3.4672 -2.0018 0.9841
-0.1238 3.4650 -2.0018 0.9841
-0.2474 3.4583 -2.0018 0.9841
-0.3706 3.4473 -2.0018 0.9841
-0.4934 3.4319 -2.0018 0.9841
-0.8575 3.3595 -2.0018 0.9841
-1.0949 3.2897 -2.0018 0.9841
-1.2117 3.2486 -2.0018 0.9841
-1.3268 3.2032 -2.0018 0.9841
-1.5520 3.1004 -2.0018 0.9841
-1.6616 3.0431 -2.0018 0.9841
-1.8745 2.9167 -2.0018 0.9841
-1.9774 2.8480 -2.0018 0.9841
-2.0778 2.7756 -2.0018 0.9841
-2.2705 2.6203 -2.0018 0.9841
-2.3626 2.5376 -2.0018 0.9841
-2.6203 2.2705 -2.0018 0.9841
-0.7671 0.6182 -0.5688 0.9955
-0.7846 0.5873 -0.5658 0.9955
-0.8008 0.5560 -0.5628 0.9955
-0.8178 0.5256 -0.5613 0.9955
-0.8365 0.4963 -0.5615 0.9955
-0.8534 0.4660 -0.5614 0.9955
-0.8823 0.4029 -0.5600 0.9955
-0.8941 0.3703 -0.5587 0.9955
-0.9011 0.3361 -0.5553 0.9956
-0.9151 0.2687 -0.5506 0.9956
-0.9353 0.2034 -0.5526 0.9956
-0.9492 0.1365 -0.5537 0.9956
-0.9538 0.1025 -0.5538 0.9956
-0.9565 0.0684 -0.5536 0.9956
-0.9576 0.0342 -0.5532 0.9956
