ply
format ascii 1.0
element vertex 710
property float32 x
property float32 y
property float32 z
property float32 I
end_header
-9.4469 -0.6756 -2.0020 0.9620
-9.4169 -1.0124 -2.0020 0.9620
-9.3750 -1.3479 -2.0021 0.9620
-9.1777 -2.3424 -2.0022 0.9620
-9.0883 -2.6686 -2.0022 0.9620
-8.9875 -2.9913 -2.0022 0.9620
-8.7514 -3.6249 -2.0023 0.9620
-8.6166 -3.9351 -2.0023 0.9620
-8.4708 -4.2402 -2.0024 0.9620
-8.3142 -4.5399 -2.0024 0.9620
-8.1470 -4.8338 -2.0024 0.9620
-7.7816 -5.4029 -2.0025 0.9620
-7.5839 -5.6772 -2.0025 0.9620
-7.3765 -5.9444 -2.0025 0.9620
-6.6991 -6.6991 -2.0026 0.9620
-5.6778 -7.5846 -2.0027 0.9620
-5.1223 -7.9705 -2.0027 0.9620
-4.8346 -8.1483 -2.0027 0.9620
-3.9360 -8.6186 -2.0028 0.9620
-3.6259 -8.7536 -2.0028 0.9620
-2.3433 -9.1807 -2.0028 0.9620
-1.6823 -9.3245 -2.0028 0.9620
-1.3485 -9.3787 -2.0028 0.9620
-0.6760 -9.4510 -2.0029 0.9620
-0.3382 -9.4691 -2.0028 0.9620
-0.0000 -9.4751 -2.0028 0.9620
0.6759 -9.4509 -2.0028 0.9620
1.3484 -9.3786 -2.0028 0.9620
2.0140 -9.2584 -2.0028 0.9620
2.3432 -9.1806 -2.0028 0.9620
3.6258 -8.7534 -2.0027 0.9620
4.2409 -8.4723 -2.0027 0.9620
4.8344 -8.1480 -2.0027 0.9620
5.1221 -7.9702 -2.0027 0.9620
5.4033 -7.7822 -2.0026 0.9620
6.2040 -7.1598 -2.0026 0.9620
6.4555 -6.9337 -2.0025 0.9620
6.6987 -6.6987 -2.0025 0.9620
6.9335 -6.4553 -2.0025 0.9620
7.1594 -6.2036 -2.0024 0.9620
7.3761 -5.9441 -2.0024 0.9620
7.5835 -5.6769 -2.0024 0.9620
7.7811 -5.4026 -2.0024 0.9620
8.1465 -4.8335 -2.0023 0.9620
8.3137 -4.5396 -2.0023 0.9620
8.6161 -3.9348 -2.0022 0.9620
8.7509 -3.6247 -2.0022 0.9620
8.9868 -2.9911 -2.0021 0.9620
9.0877 -2.6684 -2.0021 0.9620
9.2546 -2.0132 -2.0020 0.9620
9.4163 -1.0123 -2.0019 0.9620
9.4462 -0.6756 -2.0018 0.9620
-8.5179 0.0000 -2.0019 0.9656
-8.5126 -0.3040 -2.0019 0.9656
-8.4965 -0.6077 -2.0020 0.9656
-8.4695 -0.9106 -2.0020 0.9656
-8.1739 -2.4001 -2.0022 0.9656
-7.9821 -2.9772 -2.0022 0.9656
-7.6185 -3.8135 -2.0023 0.9656
-7.1675 -4.6062 -2.0024 0.9656
-6.9986 -4.8592 -2.0024 0.9656
-6.8208 -5.1059 -2.0024 0.9656
-6.6342 -5.3462 -2.0025 0.9656
-6.0249 -6.0249 -2.0025 0.9656
-5.3466 -6.6347 -2.0026 0.9656
-5.1064 -6.8213 -2.0026 0.9656
-4.8597 -6.9993 -2.0026 0.9656
-4.3481 -7.3282 -2.0027 0.9656
-4.0838 -7.4788 -2.0027 0.9656
-3.8142 -7.6199 -2.0027 0.9656
-3.5399 -7.7512 -2.0027 0.9656
-3.2610 -7.8726 -2.0027 0.9656
-2.4008 -8.1762 -2.0027 0.9656
-1.8114 -8.3267 -2.0027 0.9656
-0.9109 -8.4727 -2.0027 0.9656
-0.3042 -8.5161 -2.0027 0.9656
0.6079 -8.4997 -2.0027 0.9656
0.9109 -8.4726 -2.0027 0.9656
1.2127 -8.4347 -2.0027 0.9656
1.8113 -8.3266 -2.0027 0.9656
2.4007 -8.1761 -2.0027 0.9656
2.6910 -8.0851 -2.0027 0.9656
2.9778 -7.9839 -2.0027 0.9656
3.2609 -7.8725 -2.0027 0.9656
3.5397 -7.7510 -2.0026 0.9656
3.8141 -7.6197 -2.0026 0.9656
4.0836 -7.4786 -2.0026 0.9656
4.8595 -6.9990 -2.0025 0.9656
5.1062 -6.8211 -2.0025 0.9656
5.5797 -6.4393 -2.0025 0.9656
6.0247 -6.0247 -2.0024 0.9656
6.2358 -5.8057 -2.0024 0.9656
6.4390 -5.5794 -2.0024 0.9656
6.6339 -5.3459 -2.0024 0.9656
6.8204 -5.1057 -2.0023 0.9656
7.1671 -4.6060 -2.0023 0.9656
7.3268 -4.3472 -2.0023 0.9656
7.4772 -4.0828 -2.0022 0.9656
7.7492 -3.5389 -2.0022 0.9656
7.8704 -3.2600 -2.0021 0.9656
7.9816 -2.9770 -2.0021 0.9656
8.1734 -2.3999 -2.0020 0.9656
8.2537 -2.1066 -2.0020 0.9656
8.3235 -1.8107 -2.0020 0.9656
8.4312 -1.2122 -2.0019 0.9656
8.4690 -0.9105 -2.0019 0.9656
8.4960 -0.6076 -2.0018 0.9656
8.5121 -0.3040 -2.0018 0.9656
-7.6879 -0.8265 -2.0020 0.9686
-7.6536 -1.1004 -2.0020 0.9686
-7.4195 -2.1785 -2.0021 0.9686
-7.3371 -2.4420 -2.0022 0.9686
-7.0343 -3.2124 -2.0022 0.9686
-6.9152 -3.4615 -2.0023 0.9686
-6.7874 -3.7062 -2.0023 0.9686
-6.6508 -3.9461 -2.0023 0.9686
-6.3525 -4.4106 -2.0024 0.9686
-6.1911 -4.6346 -2.0024 0.9686
-6.0218 -4.8527 -2.0024 0.9686
-5.4688 -5.4687 -2.0025 0.9685
-5.0648 -5.8450 -2.0025 0.9685
-4.8530 -6.0221 -2.0025 0.9685
-4.6350 -6.1916 -2.0025 0.9685
-4.4111 -6.3531 -2.0026 0.9685
-3.7067 -6.7884 -2.0026 0.9685
-3.4621 -6.9164 -2.0026 0.9685
-2.9599 -7.1458 -2.0026 0.9685
-2.7030 -7.2470 -2.0026 0.9685
-2.4426 -7.3388 -2.0026 0.9685
-2.1791 -7.4214 -2.0026 0.9685
-1.9129 -7.4944 -2.0027 0.9685
-1.3733 -7.6118 -2.0027 0.9685
-1.1008 -7.6560 -2.0027 0.9685
-0.8268 -7.6904 -2.0027 0.9685
-0.5518 -7.7150 -2.0027 0.9685
-0.0000 -7.7347 -2.0027 0.9685
0.2761 -7.7298 -2.0027 0.9685
0.8268 -7.6904 -2.0027 0.9685
1.1008 -7.6560 -2.0026 0.9685
1.3733 -7.6118 -2.0026 0.9685
2.1791 -7.4212 -2.0026 0.9685
3.2130 -7.0354 -2.0026 0.9685
4.1814 -6.5063 -2.0025 0.9685
4.4109 -6.3529 -2.0025 0.9685
4.8528 -6.0219 -2.0024 0.9685
5.4685 -5.4685 -2.0024 0.9686
5.6601 -5.2698 -2.0024 0.9686
5.8446 -5.0643 -2.0023 0.9686
6.3522 -4.4104 -2.0023 0.9686
6.9149 -3.4613 -2.0022 0.9686
7.1440 -2.9591 -2.0021 0.9686
7.4190 -2.1784 -2.0020 0.9686
7.4920 -1.9122 -2.0020 0.9686
7.5553 -1.6436 -2.0020 0.9686
7.6531 -1.1003 -2.0019 0.9686
7.6874 -0.8265 -2.0019 0.9686
7.7119 -0.5516 -2.0018 0.9686
7.7265 -0.2759 -2.0018 0.9686
-7.0537 -0.5045 -2.0020 0.9710
-6.9999 -1.0064 -2.0020 0.9710
-6.8525 -1.7490 -2.0021 0.9710
-6.7858 -1.9925 -2.0021 0.9710
-6.6265 -2.4716 -2.0022 0.9710
-6.4335 -2.9381 -2.0022 0.9710
-6.3246 -3.1658 -2.0022 0.9710
-6.2076 -3.3896 -2.0023 0.9710
-6.0828 -3.6091 -2.0023 0.9710
-5.3456 -4.6319 -2.0024 0.9710
-5.1769 -4.8198 -2.0024 0.9710
-5.0016 -5.0016 -2.0024 0.9710
-4.6321 -5.3458 -2.0024 0.9710
-4.2390 -5.6627 -2.0025 0.9710
-3.8243 -5.9507 -2.0025 0.9710
-3.3901 -6.2085 -2.0025 0.9710
-3.1664 -6.3255 -2.0025 0.9710
-2.4721 -6.6279 -2.0026 0.9710
-2.2340 -6.7119 -2.0026 0.9710
-1.9930 -6.7874 -2.0026 0.9710
0.2525 -7.0695 -2.0026 0.9710
1.2560 -6.9615 -2.0026 0.9710
1.5037 -6.9122 -2.0026 0.9710
1.7494 -6.8541 -2.0026 0.9710
2.2339 -6.7118 -2.0025 0.9710
2.7070 -6.5352 -2.0025 0.9710
4.0341 -5.8102 -2.0024 0.9710
4.4382 -5.5075 -2.0024 0.9710
5.1767 -4.8197 -2.0023 0.9710
6.3243 -3.1657 -2.0021 0.9710
6.4331 -2.9379 -2.0021 0.9710
6.9101 -1.5032 -2.0020 0.9710
7.0533 -0.5044 -2.0018 0.9710
-6.5045 -0.2323 -2.0019 0.9731
-6.4922 -0.4643 -2.0019 0.9731
-6.4426 -0.9263 -2.0020 0.9731
-6.4055 -1.1557 -2.0020 0.9731
-6.3603 -1.3836 -2.0020 0.9731
-6.3069 -1.6097 -2.0021 0.9731
-6.2455 -1.8338 -2.0021 0.9731
-5.9212 -2.7041 -2.0022 0.9731
-5.5984 -3.3217 -2.0022 0.9731
-5.4764 -3.5194 -2.0023 0.9731
-5.0689 -4.0848 -2.0023 0.9731
-4.2633 -4.9201 -2.0024 0.9731
-4.0850 -5.0691 -2.0024 0.9731
-3.7130 -5.3477 -2.0024 0.9731
-3.1201 -5.7141 -2.0025 0.9731
-2.7046 -5.9222 -2.0025 0.9731
-2.2752 -6.1001 -2.0025 0.9731
-2.0560 -6.1774 -2.0025 0.9731
-1.8343 -6.2469 -2.0025 0.9731
-1.6101 -6.3084 -2.0025 0.9731
-1.1560 -6.4072 -2.0025 0.9731
-0.4645 -6.4940 -2.0025 0.9731
-0.2324 -6.5065 -2.0025 0.9731
0.6959 -6.4733 -2.0025 0.9731
1.1560 -6.4071 -2.0025 0.9731
1.3839 -6.3618 -2.0025 0.9731
1.6101 -6.3083 -2.0025 0.9731
2.0560 -6.1773 -2.0025 0.9731
2.2751 -6.0999 -2.0025 0.9731
2.9141 -5.8217 -2.0024 0.9731
3.1200 -5.7140 -2.0024 0.9731
3.5197 -5.4767 -2.0024 0.9731
3.7129 -5.3476 -2.0024 0.9731
4.0848 -5.0690 -2.0024 0.9731
4.2631 -4.9199 -2.0023 0.9731
4.6032 -4.6032 -2.0023 0.9731
4.7645 -4.4359 -2.0023 0.9731
5.0687 -4.0846 -2.0022 0.9731
5.3471 -3.7125 -2.0022 0.9731
5.4761 -3.5193 -2.0022 0.9731
5.5982 -3.3215 -2.0022 0.9731
5.7131 -3.1196 -2.0021 0.9731
5.9210 -2.7040 -2.0021 0.9731
6.3066 -1.6097 -2.0020 0.9731
6.4423 -0.9263 -2.0019 0.9731
6.4712 -0.6957 -2.0019 0.9731
6.4918 -0.4643 -2.0018 0.9731
-6.0224 0.0000 -2.0019 0.9749
-6.0072 -0.4296 -2.0019 0.9749
-5.9881 -0.6438 -2.0020 0.9749
-5.9271 -1.0694 -2.0020 0.9749
-5.8852 -1.2802 -2.0020 0.9749
-5.7148 -1.9021 -2.0021 0.9749
-5.6434 -2.1048 -2.0021 0.9749
-5.5647 -2.3049 -2.0021 0.9749
-5.2866 -2.8867 -2.0022 0.9749
-4.8221 -3.6098 -2.0023 0.9749
-4.5524 -3.9446 -2.0023 0.9749
-4.4087 -4.1047 -2.0023 0.9749
-4.2594 -4.2594 -2.0023 0.9749
-4.1047 -4.4088 -2.0023 0.9749
-2.6965 -5.3869 -2.0024 0.9749
-2.3053 -5.5656 -2.0025 0.9749
-2.1052 -5.6443 -2.0025 0.9749
-1.6972 -5.7801 -2.0025 0.9749
-1.4898 -5.8371 -2.0025 0.9749
-1.2805 -5.8865 -2.0025 0.9749
-1.0696 -5.9285 -2.0025 0.9749
-0.8574 -5.9629 -2.0025 0.9749
-0.6440 -5.9897 -2.0025 0.9749
-0.2150 -6.0204 -2.0025 0.9749
0.2150 -6.0204 -2.0025 0.9749
0.8573 -5.9628 -2.0025 0.9749
1.0696 -5.9284 -2.0025 0.9749
1.2805 -5.8865 -2.0025 0.9749
2.1052 -5.6442 -2.0024 0.9749
2.3053 -5.5655 -2.0024 0.9749
2.5024 -5.4796 -2.0024 0.9749
2.6964 -5.3868 -2.0024 0.9749
2.8869 -5.2871 -2.0024 0.9749
3.0738 -5.1806 -2.0024 0.9749
3.2567 -5.0676 -2.0024 0.9749
3.4355 -4.9481 -2.0023 0.9749
3.6099 -4.8223 -2.0023 0.9749
3.7797 -4.6903 -2.0023 0.9749
4.1046 -4.4086 -2.0023 0.9749
4.2593 -4.2593 -2.0023 0.9749
4.6901 -3.7795 -2.0022 0.9749
4.8219 -3.6097 -2.0022 0.9749
4.9476 -3.4352 -2.0022 0.9749
5.0670 -3.2564 -2.0022 0.9749
5.2863 -2.8866 -2.0021 0.9749
5.4787 -2.5020 -2.0021 0.9749
5.7146 -1.9020 -2.0020 0.9749
5.9268 -1.0693 -2.0019 0.9749
5.9611 -0.8571 -2.0019 0.9749
6.0070 -0.4296 -2.0018 0.9749
-5.5945 -0.1998 -2.0019 0.9765
-5.5661 -0.5984 -2.0020 0.9765
-5.5094 -0.9940 -2.0020 0.9765
-5.4245 -1.3845 -2.0020 0.9765
-5.3120 -1.7680 -2.0021 0.9765
-5.0928 -2.3258 -2.0021 0.9765
-4.8151 -2.8569 -2.0022 0.9765
-4.7101 -3.0270 -2.0022 0.9765
-4.4822 -3.3553 -2.0022 0.9765
-4.2315 -3.6666 -2.0023 0.9765
-3.5134 -4.3598 -2.0023 0.9765
-3.1934 -4.5994 -2.0024 0.9765
-2.6835 -4.9145 -2.0024 0.9765
-2.3261 -5.0934 -2.0024 0.9765
-1.9568 -5.2464 -2.0024 0.9765
-1.7683 -5.3129 -2.0024 0.9765
-1.1903 -5.4716 -2.0024 0.9765
-0.9942 -5.5106 -2.0024 0.9765
-0.3995 -5.5853 -2.0024 0.9765
-0.0000 -5.5995 -2.0024 0.9765
0.1998 -5.5960 -2.0024 0.9765
0.3995 -5.5853 -2.0024 0.9765
0.5985 -5.5674 -2.0024 0.9765
0.7969 -5.5425 -2.0024 0.9765
1.1903 -5.4715 -2.0024 0.9765
1.3848 -5.4255 -2.0024 0.9765
1.5775 -5.3726 -2.0024 0.9765
2.1428 -5.1731 -2.0024 0.9765
2.5063 -5.0071 -2.0024 0.9765
2.6834 -4.9144 -2.0023 0.9765
2.8571 -4.8154 -2.0023 0.9765
3.1933 -4.5993 -2.0023 0.9765
3.3554 -4.4823 -2.0023 0.9765
3.5133 -4.3597 -2.0023 0.9765
3.6666 -4.2315 -2.0023 0.9765
3.8153 -4.0979 -2.0023 0.9765
3.9591 -3.9591 -2.0022 0.9765
4.0978 -3.8152 -2.0022 0.9765
4.2314 -3.6665 -2.0022 0.9765
4.3595 -3.5131 -2.0022 0.9765
4.4820 -3.3552 -2.0022 0.9765
4.5989 -3.1931 -2.0021 0.9765
4.8149 -2.8568 -2.0021 0.9765
4.9138 -2.6831 -2.0021 0.9765
5.0063 -2.5060 -2.0021 0.9765
5.1722 -2.1424 -2.0020 0.9765
5.3118 -1.7679 -2.0020 0.9765
5.4243 -1.3845 -2.0020 0.9765
5.5091 -0.9940 -2.0019 0.9765
5.5410 -0.7967 -2.0019 0.9765
5.5836 -0.3993 -2.0018 0.9765
-5.2239 0.0000 -2.0019 0.9779
-5.1941 -0.5584 -2.0019 0.9779
-5.1411 -0.9275 -2.0020 0.9779
-5.0620 -1.2920 -2.0020 0.9779
-5.0127 -1.4718 -2.0020 0.9779
-4.9570 -1.6498 -2.0021 0.9779
-4.8950 -1.8257 -2.0021 0.9779
-4.8267 -1.9993 -2.0021 0.9779
-4.7524 -2.1703 -2.0021 0.9779
-4.5855 -2.5039 -2.0021 0.9779
-4.3953 -2.8246 -2.0022 0.9779
-4.0682 -3.2784 -2.0022 0.9779
-3.9486 -3.4215 -2.0022 0.9779
-3.5603 -3.8241 -2.0023 0.9779
-3.4216 -3.9487 -2.0023 0.9779
-2.8249 -4.3956 -2.0023 0.9779
-2.6662 -4.4936 -2.0023 0.9779
-2.5041 -4.5860 -2.0023 0.9779
-1.2922 -5.0629 -2.0024 0.9779
-0.1865 -5.2219 -2.0024 0.9779
0.3727 -5.2119 -2.0024 0.9779
0.7436 -5.1720 -2.0024 0.9779
1.2922 -5.0628 -2.0024 0.9779
1.4721 -5.0135 -2.0024 0.9779
1.8260 -4.8956 -2.0024 0.9779
1.9995 -4.8273 -2.0023 0.9779
2.1705 -4.7529 -2.0023 0.9779
2.3388 -4.6723 -2.0023 0.9779
2.6661 -4.4935 -2.0023 0.9779
3.2784 -4.0683 -2.0023 0.9779
3.4215 -3.9486 -2.0022 0.9779
3.5602 -3.8240 -2.0022 0.9779
3.9485 -3.4214 -2.0022 0.9779
4.0681 -3.2783 -2.0022 0.9779
4.4931 -2.6659 -2.0021 0.9779
4.6717 -2.3385 -2.0021 0.9779
4.7522 -2.1702 -2.0020 0.9779
5.0125 -1.4718 -2.0020 0.9779
5.1046 -1.1104 -2.0019 0.9779
5.1409 -0.9275 -2.0019 0.9779
5.1939 -0.5584 -2.0019 0.9779
5.2105 -0.3727 -2.0018 0.9779
-1.9570 -0.2104 -0.8055 0.9915
-1.9449 -0.2796 -0.8042 0.9915
-2.1703 -0.3916 -0.9026 0.9905
-4.7798 -1.0398 -2.0020 0.9791
-4.7397 -1.2097 -2.0020 0.9791
-4.6935 -1.3781 -2.0020 0.9791
-4.5194 -1.8720 -2.0021 0.9791
-4.2935 -2.3444 -2.0021 0.9791
-4.2071 -2.4962 -2.0021 0.9791
-3.8092 -3.0696 -2.0022 0.9791
-3.5805 -3.3336 -2.0022 0.9791
-3.4593 -3.4593 -2.0022 0.9791
-3.2037 -3.6973 -2.0023 0.9791
-2.9318 -3.9164 -2.0023 0.9791
-2.7902 -4.0186 -2.0023 0.9791
-2.6450 -4.1157 -2.0023 0.9791
-2.3447 -4.2939 -2.0023 0.9791
-2.1899 -4.3749 -2.0023 0.9791
-2.0324 -4.4503 -2.0023 0.9791
-1.8723 -4.5200 -2.0023 0.9791
-1.5450 -4.6420 -2.0023 0.9791
-1.3784 -4.6943 -2.0024 0.9791
-1.2099 -4.7405 -2.0024 0.9791
-0.8687 -4.8147 -2.0024 0.9791
-0.6963 -4.8427 -2.0024 0.9791
-0.0000 -4.8925 -2.0024 0.9791
0.1746 -4.8893 -2.0024 0.9791
0.3490 -4.8800 -2.0024 0.9791
0.5230 -4.8644 -2.0024 0.9791
0.6962 -4.8426 -2.0024 0.9791
0.8686 -4.8147 -2.0023 0.9791
1.0400 -4.7806 -2.0023 0.9791
1.2099 -4.7404 -2.0023 0.9791
1.8722 -4.5199 -2.0023 0.9791
2.1899 -4.3748 -2.0023 0.9791
2.3446 -4.2938 -2.0023 0.9791
2.4963 -4.2074 -2.0023 0.9791
2.6449 -4.1156 -2.0023 0.9791
2.7901 -4.0185 -2.0023 0.9791
3.0696 -3.8092 -2.0022 0.9791
3.2036 -3.6972 -2.0022 0.9791
3.3335 -3.5805 -2.0022 0.9791
3.4592 -3.4592 -2.0022 0.9791
3.8090 -3.0695 -2.0021 0.9791
3.9161 -2.9316 -2.0021 0.9791
4.0183 -2.7899 -2.0021 0.9791
4.1152 -2.6447 -2.0021 0.9791
4.2070 -2.4961 -2.0021 0.9791
4.3743 -2.1896 -2.0020 0.9791
4.4496 -2.0321 -2.0020 0.9791
4.5192 -1.8719 -2.0020 0.9791
4.5831 -1.7094 -2.0020 0.9791
4.8632 -0.5228 -2.0019 0.9791
4.8880 -0.1746 -2.0018 0.9791
-1.5222 0.0000 -0.6634 0.9934
-1.5284 -0.0546 -0.6665 0.9933
-1.5293 -0.1094 -0.6682 0.9933
-1.5249 -0.1639 -0.6684 0.9933
-1.5214 -0.3310 -0.6786 0.9932
-1.5485 -0.3952 -0.6965 0.9931
-1.5984 -0.5962 -0.7435 0.9926
-3.8647 -2.4837 -2.0021 0.9802
-3.4720 -3.0085 -2.0022 0.9802
-3.1306 -3.3624 -2.0022 0.9802
-3.0086 -3.4721 -2.0022 0.9802
-2.4839 -3.8650 -2.0023 0.9802
-2.0565 -4.1084 -2.0023 0.9802
-1.6056 -4.3047 -2.0023 0.9802
-1.4509 -4.3593 -2.0023 0.9802
-1.2944 -4.4083 -2.0023 0.9802
-1.1362 -4.4517 -2.0023 0.9802
-0.6539 -4.5477 -2.0023 0.9802
-0.4911 -4.5681 -2.0023 0.9802
-0.0000 -4.5944 -2.0023 0.9802
0.1640 -4.5915 -2.0023 0.9802
0.3278 -4.5827 -2.0023 0.9802
0.4911 -4.5681 -2.0023 0.9802
0.6538 -4.5476 -2.0023 0.9802
0.8157 -4.5214 -2.0023 0.9802
1.1362 -4.4517 -2.0023 0.9802
1.6055 -4.3047 -2.0023 0.9802
2.0565 -4.1083 -2.0023 0.9802
2.2018 -4.0323 -2.0023 0.9802
2.3443 -3.9511 -2.0022 0.9802
2.7532 -3.6778 -2.0022 0.9802
2.8827 -3.5772 -2.0022 0.9802
3.0085 -3.4720 -2.0022 0.9802
3.1305 -3.3624 -2.0022 0.9802
3.2485 -3.2485 -2.0022 0.9802
3.4719 -3.0084 -2.0021 0.9802
3.5770 -2.8826 -2.0021 0.9802
3.6776 -2.7530 -2.0021 0.9802
3.7735 -2.6200 -2.0021 0.9802
4.0319 -2.2016 -2.0020 0.9802
4.1078 -2.0562 -2.0020 0.9802
4.3585 -1.4506 -2.0020 0.9802
4.4075 -1.2942 -2.0020 0.9802
4.4885 -0.9764 -2.0019 0.9802
4.5466 -0.6537 -2.0019 0.9802
4.5670 -0.4910 -2.0019 0.9802
4.5816 -0.3277 -2.0018 0.9802
-1.3384 -0.0957 -0.6211 0.9941
-1.3273 -0.1908 -0.6207 0.9941
-1.3160 -0.2374 -0.6190 0.9941
-1.3013 -0.2831 -0.6164 0.9941
-1.3117 -0.3348 -0.6266 0.9941
-1.3324 -0.4435 -0.6500 0.9938
-1.3324 -0.4970 -0.6582 0.9938
-1.3151 -0.6006 -0.6692 0.9936
-3.6387 -2.3384 -2.0021 0.9811
-3.1658 -2.9474 -2.0022 0.9811
-2.8326 -3.2690 -2.0022 0.9811
-2.7141 -3.3680 -2.0022 0.9811
-2.5922 -3.4628 -2.0022 0.9811
-2.4670 -3.5531 -2.0022 0.9811
-1.9362 -3.8681 -2.0023 0.9811
-1.2187 -4.1505 -2.0023 0.9811
-1.0698 -4.1913 -2.0023 0.9811
-0.9195 -4.2268 -2.0023 0.9811
-0.7681 -4.2570 -2.0023 0.9811
-0.6156 -4.2817 -2.0023 0.9811
-0.4624 -4.3009 -2.0023 0.9811
0.9195 -4.2268 -2.0023 0.9811
1.2187 -4.1504 -2.0023 0.9811
1.3660 -4.1043 -2.0023 0.9811
1.5116 -4.0529 -2.0023 0.9811
1.7969 -3.9347 -2.0022 0.9811
2.2072 -3.7200 -2.0022 0.9811
2.3385 -3.6388 -2.0022 0.9811
2.4669 -3.5530 -2.0022 0.9811
2.5921 -3.4627 -2.0022 0.9811
2.8325 -3.2689 -2.0022 0.9811
2.9474 -3.1657 -2.0022 0.9811
3.0585 -3.0585 -2.0021 0.9811
3.4625 -2.5920 -2.0021 0.9811
3.7197 -2.2070 -2.0021 0.9811
3.7961 -2.0728 -2.0020 0.9811
4.0523 -1.5114 -2.0020 0.9811
4.1036 -1.3658 -2.0020 0.9811
4.3137 -0.3085 -2.0018 0.9811
4.3219 -0.1543 -2.0018 0.9811
-1.1954 0.0000 -0.5864 0.9947
-1.1965 -0.0427 -0.5873 0.9947
-1.1590 -0.3403 -0.5925 0.9946
-1.1484 -0.4757 -0.6097 0.9945
-1.1400 -0.5206 -0.6148 0.9944
-1.1113 -0.6068 -0.6211 0.9944
-3.5102 -2.0827 -2.0021 0.9820
-3.3527 -2.3278 -2.0021 0.9820
-3.1781 -2.5611 -2.0021 0.9820
-3.0847 -2.6729 -2.0022 0.9820
-2.9874 -2.7813 -2.0022 0.9820
-2.8862 -2.8862 -2.0022 0.9820
-2.7814 -2.9874 -2.0022 0.9820
-2.6730 -3.0848 -2.0022 0.9820
-2.3279 -3.3529 -2.0022 0.9820
-2.2068 -3.4338 -2.0022 0.9820
-1.8271 -3.6501 -2.0022 0.9820
-1.5621 -3.7712 -2.0023 0.9820
-1.2891 -3.8730 -2.0023 0.9820
-1.1500 -3.9165 -2.0023 0.9820
-1.0095 -3.9551 -2.0023 0.9820
-0.7248 -4.0170 -2.0023 0.9820
-0.4363 -4.0585 -2.0023 0.9820
-0.1457 -4.0793 -2.0023 0.9820
-0.0000 -4.0819 -2.0023 0.9820
0.1457 -4.0793 -2.0023 0.9820
0.7247 -4.0170 -2.0023 0.9820
0.8677 -3.9886 -2.0023 0.9820
1.1500 -3.9165 -2.0023 0.9820
1.2890 -3.8730 -2.0022 0.9820
1.4264 -3.8245 -2.0022 0.9820
1.6956 -3.7129 -2.0022 0.9820
1.9562 -3.5825 -2.0022 0.9820
2.0828 -3.5104 -2.0022 0.9820
2.3279 -3.3528 -2.0022 0.9820
2.5611 -3.1782 -2.0022 0.9820
2.7813 -2.9873 -2.0021 0.9820
2.9873 -2.7813 -2.0021 0.9820
3.1781 -2.5610 -2.0021 0.9820
3.3526 -2.3278 -2.0021 0.9820
3.5101 -2.0826 -2.0020 0.9820
3.5822 -1.9560 -2.0020 0.9820
3.6497 -1.8269 -2.0020 0.9820
3.8240 -1.4263 -2.0020 0.9820
3.9159 -1.1498 -2.0019 0.9820
4.0163 -0.7246 -2.0019 0.9820
4.0577 -0.4363 -2.0019 0.9820
-1.1058 0.0000 -0.5737 0.9950
-1.1066 -0.0395 -0.5744 0.9950
-1.1055 -0.0790 -0.5750 0.9950
-1.0974 -0.1578 -0.5752 0.9950
-1.0814 -0.2352 -0.5741 0.9950
-1.0704 -0.2732 -0.5731 0.9950
-1.0617 -0.3534 -0.5805 0.9950
-1.0576 -0.3945 -0.5856 0.9949
-1.0430 -0.4763 -0.5948 0.9948
-0.9917 -0.5884 -0.5982 0.9948
-3.2466 -2.0865 -2.0021 0.9828
-3.1701 -2.2010 -2.0021 0.9828
-2.9167 -2.5273 -2.0021 0.9828
-2.6299 -2.8247 -2.0022 0.9828
-2.5274 -2.9167 -2.0022 0.9828
-2.4217 -3.0051 -2.0022 0.9828
-2.3129 -3.0896 -2.0022 0.9828
-2.0866 -3.2468 -2.0022 0.9828
-1.9694 -3.3192 -2.0022 0.9828
-1.6033 -3.5107 -2.0022 0.9828
-1.4770 -3.5657 -2.0022 0.9828
-1.3488 -3.6162 -2.0022 0.9828
-1.2189 -3.6620 -2.0022 0.9828
-1.0874 -3.7032 -2.0022 0.9828
-0.8204 -3.7713 -2.0023 0.9828
-0.6853 -3.7982 -2.0023 0.9828
-0.5493 -3.8203 -2.0023 0.9828
-0.2754 -3.8497 -2.0023 0.9828
-0.1378 -3.8571 -2.0023 0.9828
-0.0000 -3.8595 -2.0023 0.9828
0.2753 -3.8497 -2.0023 0.9828
0.4126 -3.8374 -2.0022 0.9828
0.5493 -3.8202 -2.0022 0.9828
0.6853 -3.7982 -2.0022 0.9828
0.9545 -3.7396 -2.0022 0.9828
1.2188 -3.6620 -2.0022 0.9828
1.3487 -3.6161 -2.0022 0.9828
1.4769 -3.5657 -2.0022 0.9828
1.9693 -3.3191 -2.0022 0.9828
2.2011 -3.1702 -2.0022 0.9828
2.3128 -3.0896 -2.0022 0.9828
2.5273 -2.9167 -2.0021 0.9828
2.9166 -2.5273 -2.0021 0.9828
3.1700 -2.2010 -2.0021 0.9828
3.3189 -1.9692 -2.0020 0.9828
3.3870 -1.8495 -2.0020 0.9828
3.5653 -1.4768 -2.0020 0.9828
3.7707 -0.8202 -2.0019 0.9828
3.7975 -0.6851 -2.0019 0.9828
3.8563 -0.1377 -2.0018 0.9828
-1.0269 0.0000 -0.5625 0.9953
-1.0276 -0.0367 -0.5632 0.9953
-1.0124 -0.1827 -0.5634 0.9953
-0.9785 -0.3257 -0.5648 0.9953
-0.9580 -0.4375 -0.5768 0.9952
-0.9269 -0.5061 -0.5784 0.9952
-0.9084 -0.5390 -0.5785 0.9952
-0.8882 -0.5708 -0.5782 0.9952
-2.9263 -2.1906 -2.0021 0.9835
-2.8463 -2.2937 -2.0021 0.9835
-2.7626 -2.3938 -2.0021 0.9835
-2.2938 -2.8464 -2.0022 0.9835
-1.9764 -3.0753 -2.0022 0.9835
-1.7520 -3.2084 -2.0022 0.9835
-1.3990 -3.3774 -2.0022 0.9835
-1.0299 -3.5076 -2.0022 0.9835
-0.3908 -3.6347 -2.0022 0.9835
-0.2608 -3.6464 -2.0022 0.9835
-0.1305 -3.6533 -2.0022 0.9835
0.1305 -3.6533 -2.0022 0.9835
0.2608 -3.6464 -2.0022 0.9835
0.5203 -3.6185 -2.0022 0.9835
0.9040 -3.5421 -2.0022 0.9835
1.2775 -3.4251 -2.0022 0.9835
1.3989 -3.3773 -2.0022 0.9835
1.5186 -3.3252 -2.0022 0.9835
1.6363 -3.2689 -2.0022 0.9835
1.7519 -3.2084 -2.0022 0.9835
1.9763 -3.0752 -2.0022 0.9835
2.0848 -3.0027 -2.0021 0.9835
2.2937 -2.8463 -2.0021 0.9835
2.3938 -2.7626 -2.0021 0.9835
2.4909 -2.6754 -2.0021 0.9835
2.5848 -2.5848 -2.0021 0.9835
2.7626 -2.3938 -2.0021 0.9835
2.8462 -2.2936 -2.0021 0.9835
3.0026 -2.0847 -2.0020 0.9835
3.0750 -1.9762 -2.0020 0.9835
3.2082 -1.7518 -2.0020 0.9835
3.5071 -1.0298 -2.0019 0.9835
3.5716 -0.7769 -2.0019 0.9835
3.6178 -0.5202 -2.0019 0.9835
3.6457 -0.2607 -2.0018 0.9835
-0.9570 0.0000 -0.5525 0.9956
-0.9565 -0.0684 -0.5536 0.9956
-0.9538 -0.1025 -0.5538 0.9956
-0.9259 -0.2363 -0.5517 0.9956
-0.9011 -0.3361 -0.5553 0.9956
-0.8941 -0.3703 -0.5587 0.9955
-0.8823 -0.4029 -0.5600 0.9955
-0.8365 -0.4963 -0.5615 0.9955
-0.8008 -0.5560 -0.5628 0.9955
-0.7846 -0.5873 -0.5658 0.9955
-0.7671 -0.6182 -0.5688 0.9955
-2.6208 -2.2709 -2.0021 0.9841
-2.3630 -2.5380 -2.0021 0.9841
-2.2709 -2.6208 -2.0021 0.9841
-1.9778 -2.8485 -2.0022 0.9841
-1.8749 -2.9173 -2.0022 0.9841
-1.7696 -2.9824 -2.0022 0.9841
-1.6620 -3.0437 -2.0022 0.9841
-1.4406 -3.1545 -2.0022 0.9841
-1.3271 -3.2039 -2.0022 0.9841
-1.2119 -3.2492 -2.0022 0.9841
-0.9770 -3.3274 -2.0022 0.9841
-0.8577 -3.3602 -2.0022 0.9841
-0.4936 -3.4326 -2.0022 0.9841
-0.3707 -3.4481 -2.0022 0.9841
-0.2474 -3.4591 -2.0022 0.9841
0.2474 -3.4591 -2.0022 0.9841
0.4935 -3.4326 -2.0022 0.9841
0.6157 -3.4128 -2.0022 0.9841
0.8576 -3.3602 -2.0022 0.9841
1.0951 -3.2904 -2.0022 0.9841
1.6619 -3.0436 -2.0022 0.9841
1.7695 -2.9824 -2.0021 0.9841
1.8748 -2.9173 -2.0021 0.9841
2.0782 -2.7761 -2.0021 0.9841
2.1759 -2.7001 -2.0021 0.9841
2.3630 -2.5380 -2.0021 0.9841
2.4520 -2.4520 -2.0021 0.9841
2.7760 -2.0781 -2.0020 0.9841
1.8507 -0.8452 -1.1747 0.9906
1.9033 -0.6335 -1.1581 0.9908
1.9351 -0.5682 -1.1644 0.9907
1.9616 -0.5007 -1.1688 0.9907
1.9883 -0.4325 -1.1748 0.9906
2.0152 -0.3636 -1.1823 0.9906
2.0300 -0.2919 -1.1841 0.9906
2.0359 -0.1456 -1.1784 0.9906
2.0320 -0.0726 -1.1739 0.9907
