ply
format ascii 1.0
element vertex 762
property float32 x
property float32 y
property float32 z
property float32 I
end_header
2.4700 4.9344 0.9730 0.9778
-0.0000 6.4395 1.1355 0.9742
-0.2253 6.3068 1.1128 0.9747
2.4697 4.9338 0.8452 0.9779
-0.0000 6.4290 0.9849 0.9743
7.4152 6.4253 1.2777 0.9612
7.1553 6.6618 1.2731 0.9613
7.0013 7.0013 1.2894 0.9608
-0.0000 6.4186 0.8358 0.9744
7.0013 7.0013 1.0632 0.9609
-0.2242 6.2768 0.6744 0.9750
-0.4508 6.3024 0.6785 0.9749
2.4688 4.9321 0.4669 0.9781
-0.2238 6.2670 0.5309 0.9751
-0.4501 6.2937 0.5341 0.9750
7.1553 6.6618 0.6062 0.9616
2.4686 4.9316 0.3420 0.9781
-0.0000 6.3879 0.3961 0.9747
-0.2235 6.2572 0.3883 0.9752
-0.4495 6.2852 0.3907 0.9751
-0.0000 6.3677 0.1076 0.9748
-0.2228 6.2379 0.1054 0.9753
-0.4483 6.2681 0.1062 0.9752
-0.4477 6.2597 -0.0353 0.9752
2.4675 4.9294 -0.1552 0.9782
-0.0000 6.3477 -0.1787 0.9749
-0.2221 6.2187 -0.1752 0.9754
2.4672 4.9288 -0.2795 0.9782
-0.0000 6.3377 -0.3214 0.9749
-0.4465 6.2428 -0.3174 0.9752
2.4669 4.9283 -0.4041 0.9781
-0.0000 6.3278 -0.4640 0.9749
-0.0000 6.3178 -0.6065 0.9749
-0.2211 6.1900 -0.5946 0.9754
7.5846 2.8289 -0.9616 0.9679
7.2695 3.0111 -1.1149 0.9687
2.4661 4.9266 -0.7806 0.9780
-0.4441 6.2090 -0.8820 0.9752
6.9979 2.8986 -1.2478 0.9698
-0.0000 6.2878 -1.0359 0.9748
-0.2201 6.1611 -1.0156 0.9753
6.8341 2.8308 -1.3904 0.9703
2.4655 4.9255 -1.0353 0.9778
-0.0000 6.2778 -1.1800 0.9748
-0.2197 6.1515 -1.1570 0.9753
-0.4429 6.1920 -1.1668 0.9751
-1.3616 7.5471 -1.4415 0.9693
9.4650 0.3380 -2.0020 0.9620
9.4167 1.0124 -2.0020 0.9620
9.3205 1.6816 -2.0020 0.9620
9.0873 2.6683 -2.0020 0.9620
6.2955 2.6077 -1.4404 0.9725
8.6020 3.9284 -1.9989 0.9621
7.7337 4.2229 -1.8626 0.9646
7.5259 4.4653 -1.8498 0.9649
7.1881 4.9908 -1.8498 0.9649
6.6134 5.7306 -1.8497 0.9649
6.4046 5.9629 -1.8497 0.9649
6.1877 6.1877 -1.8497 0.9649
5.9629 6.4046 -1.8497 0.9649
5.7305 6.6134 -1.8497 0.9649
5.4908 6.8137 -1.8497 0.9649
4.9907 7.1880 -1.8497 0.9649
4.1937 7.6802 -1.8497 0.9649
3.3487 8.0845 -1.8497 0.9649
3.0580 8.1988 -1.8497 0.9649
2.1641 8.4787 -1.8497 0.9649
1.2453 8.6614 -1.8497 0.9649
0.9354 8.7003 -1.8497 0.9649
0.6242 8.7281 -1.8497 0.9649
-0.9354 8.7001 -1.8496 0.9649
-1.2453 8.6612 -1.8496 0.9649
-1.3286 6.1073 -1.3212 0.9748
-2.1640 8.4784 -1.8496 0.9649
-2.4652 8.3957 -1.8496 0.9649
-3.6349 7.9594 -1.8496 0.9649
-3.9167 7.8245 -1.8496 0.9649
-4.4649 7.5252 -1.8496 0.9649
-4.7306 7.3610 -1.8496 0.9649
-4.9903 7.1874 -1.8496 0.9649
-5.2437 7.0047 -1.8496 0.9649
-5.4903 6.8131 -1.8496 0.9649
-5.7300 6.6128 -1.8496 0.9649
-5.9624 6.4040 -1.8496 0.9649
-6.1871 6.1871 -1.8496 0.9649
-6.6127 5.7300 -1.8495 0.9649
-6.8130 5.4903 -1.8495 0.9649
-7.0046 5.2436 -1.8495 0.9649
-7.1873 4.9902 -1.8495 0.9649
-7.3608 4.7305 -1.8495 0.9649
-8.3936 4.2015 -1.9841 0.9624
-8.6010 3.9279 -1.9987 0.9621
-8.7489 3.6239 -2.0017 0.9620
-8.9851 2.9905 -2.0017 0.9620
-9.4154 1.0123 -2.0017 0.9620
-9.4636 0.3380 -2.0017 0.9620
8.5182 -0.0000 -2.0020 0.9656
8.4965 0.6077 -2.0020 0.9656
8.4315 1.2123 -2.0020 0.9656
8.3828 1.5124 -2.0020 0.9656
8.1731 2.3998 -2.0020 0.9656
6.9033 2.8594 -1.7561 0.9698
7.0937 4.2089 -1.9385 0.9667
5.3630 5.7603 -1.8497 0.9682
4.9384 6.1282 -1.8497 0.9682
4.4886 6.4649 -1.8497 0.9682
4.2550 6.6209 -1.8497 0.9682
2.4301 4.8547 -1.2759 0.9779
3.2694 7.1591 -1.8497 0.9682
3.0118 7.2712 -1.8497 0.9682
2.4854 7.4675 -1.8497 0.9682
2.2173 7.5514 -1.8497 0.9682
1.3974 7.7451 -1.8497 0.9682
0.7985 5.5539 -1.3187 0.9772
0.7769 7.2263 -1.7081 0.9706
0.5378 7.5197 -1.7718 0.9695
0.2685 7.5187 -1.7682 0.9696
-0.2190 6.1319 -1.4421 0.9751
-1.0493 7.2983 -1.7329 0.9702
-1.6729 7.6901 -1.8496 0.9682
-1.9463 7.6255 -1.8496 0.9682
-2.2172 7.5511 -1.8496 0.9682
-2.4853 7.4672 -1.8496 0.9682
-3.2693 7.1587 -1.8496 0.9682
-3.5227 7.0374 -1.8496 0.9682
-4.0157 6.7681 -1.8496 0.9682
-4.2547 6.6205 -1.8496 0.9682
-4.4883 6.4644 -1.8496 0.9682
-4.7162 6.3001 -1.8496 0.9682
-5.1536 5.9475 -1.8496 0.9682
-5.5647 5.5647 -1.8496 0.9682
-5.7598 5.3626 -1.8496 0.9682
-6.1277 4.9380 -1.8496 0.9682
-6.3000 4.7161 -1.8496 0.9682
-7.0952 4.2098 -1.9390 0.9667
-7.4550 4.0708 -1.9963 0.9657
-7.9801 2.9764 -2.0017 0.9656
-8.0813 2.6897 -2.0017 0.9656
-8.1721 2.3996 -2.0017 0.9656
-8.2526 2.1063 -2.0017 0.9656
-8.3818 1.5122 -2.0017 0.9656
-8.5117 0.3040 -2.0017 0.9656
7.6533 1.1004 -2.0020 0.9686
7.5553 1.6436 -2.0020 0.9686
7.4188 2.1783 -2.0020 0.9686
7.3363 2.4418 -2.0019 0.9686
6.2764 2.3410 -1.7344 0.9727
6.4618 2.6766 -1.8109 0.9715
6.4816 4.1655 -1.9949 0.9687
5.7191 4.2813 -1.8497 0.9709
5.0516 5.0516 -1.8497 0.9709
4.6783 5.3991 -1.8497 0.9709
4.2812 5.7191 -1.8497 0.9709
3.8623 6.0099 -1.8497 0.9709
3.6454 6.1439 -1.8497 0.9709
3.4237 6.2701 -1.8497 0.9709
2.3217 5.0837 -1.4470 0.9772
2.7339 6.6001 -1.8497 0.9709
2.4965 6.6935 -1.8497 0.9709
2.0127 6.8545 -1.8497 0.9709
1.7667 6.9220 -1.8497 0.9709
1.5185 6.9806 -1.8497 0.9709
1.2684 7.0303 -1.8497 0.9709
0.7784 5.4141 -1.4162 0.9777
0.1942 5.4377 -1.4088 0.9778
-0.5843 5.4349 -1.4153 0.9777
-0.7813 5.4342 -1.4215 0.9776
-0.9803 5.4334 -1.4295 0.9774
-1.1818 5.4327 -1.4395 0.9773
-2.4964 6.6932 -1.8496 0.9709
-2.7337 6.5998 -1.8496 0.9709
-3.1976 6.3880 -1.8496 0.9709
-3.6451 6.1435 -1.8496 0.9709
-4.0741 5.8678 -1.8496 0.9709
-4.2809 5.7187 -1.8496 0.9709
-4.8677 5.2283 -1.8496 0.9709
-6.6383 3.9387 -1.9985 0.9686
-6.7855 3.7052 -2.0017 0.9686
-6.9134 3.4606 -2.0017 0.9686
-7.3355 2.4415 -2.0017 0.9686
-7.4180 2.1781 -2.0017 0.9686
-7.5545 1.6434 -2.0017 0.9686
-7.6083 1.3727 -2.0017 0.9686
-7.7114 0.5515 -2.0017 0.9686
-7.7262 0.2759 -2.0017 0.9686
7.0717 0.0000 -2.0019 0.9710
7.0672 0.2524 -2.0019 0.9710
6.9997 1.0064 -2.0019 0.9710
6.9593 1.2556 -2.0019 0.9710
6.8520 1.7489 -2.0019 0.9710
6.7852 1.9923 -2.0019 0.9710
6.7098 2.2332 -2.0019 0.9710
6.5334 2.7062 -2.0019 0.9710
6.2066 3.3891 -2.0019 0.9710
6.0817 3.6084 -2.0019 0.9710
5.6112 4.2005 -1.9843 0.9713
4.9380 4.2788 -1.8497 0.9732
4.6202 4.6202 -1.8497 0.9732
4.4523 4.7821 -1.8497 0.9732
4.0998 5.0876 -1.8497 0.9732
3.9156 5.2307 -1.8497 0.9732
3.5325 5.4967 -1.8497 0.9732
2.4172 4.8290 -1.5288 0.9778
2.3137 5.0663 -1.5767 0.9771
2.5004 6.0365 -1.8497 0.9732
2.0634 6.1995 -1.8497 0.9732
1.8408 6.2691 -1.8497 0.9732
1.3889 6.3845 -1.8497 0.9732
1.1601 6.4300 -1.8497 0.9732
0.7784 5.4141 -1.5484 0.9775
0.5847 5.4391 -1.5486 0.9775
0.3890 5.4384 -1.5435 0.9776
-0.0000 5.4370 -1.5392 0.9777
-0.1942 5.4363 -1.5399 0.9776
-0.3888 5.4356 -1.5427 0.9776
-0.5843 5.4349 -1.5474 0.9775
-0.7813 5.4342 -1.5542 0.9774
-0.9803 5.4334 -1.5630 0.9773
-1.1818 5.4327 -1.5739 0.9772
-1.6158 6.3307 -1.8496 0.9732
-1.8407 6.2689 -1.8496 0.9732
-2.2833 6.1216 -1.8496 0.9732
-2.7141 5.9431 -1.8496 0.9732
-4.6199 4.6199 -1.8496 0.9732
-4.9376 4.2785 -1.8496 0.9732
-5.6122 4.2012 -1.9846 0.9713
-5.9450 3.8206 -2.0006 0.9710
-6.6251 2.4710 -2.0017 0.9710
-6.7091 2.2330 -2.0017 0.9710
-6.7845 1.9921 -2.0017 0.9710
-6.8513 1.7487 -2.0017 0.9710
-6.9586 1.2555 -2.0017 0.9710
-6.9990 1.0063 -2.0017 0.9710
-7.0304 0.7558 -2.0017 0.9710
-7.0529 0.5044 -2.0017 0.9710
6.5087 -0.0000 -2.0019 0.9731
6.5046 0.2323 -2.0019 0.9731
6.4921 0.4643 -2.0019 0.9731
6.4424 0.9263 -2.0019 0.9731
6.4053 1.1556 -2.0019 0.9731
6.3065 1.6096 -2.0019 0.9731
6.2450 1.8337 -2.0019 0.9731
6.1756 2.0554 -2.0019 0.9731
6.0983 2.2746 -2.0019 0.9731
5.7125 3.1193 -2.0019 0.9731
5.5975 3.3212 -2.0019 0.9731
5.4754 3.5189 -2.0019 0.9731
5.3463 3.7120 -2.0019 0.9731
5.2040 3.8956 -1.9994 0.9732
5.0540 4.0728 -1.9964 0.9732
4.8499 4.2025 -1.9738 0.9735
4.2524 4.2524 -1.8497 0.9751
3.9382 4.5449 -1.8497 0.9751
3.7734 4.6826 -1.8497 0.9751
3.6039 4.8143 -1.8497 0.9751
3.4298 4.9398 -1.8497 0.9751
3.2513 5.0591 -1.8497 0.9751
2.6205 4.7991 -1.6818 0.9774
2.4107 4.8161 -1.6565 0.9777
2.3013 5.5559 -1.8497 0.9751
2.1016 5.6345 -1.8497 0.9751
1.6942 5.7701 -1.8497 0.9751
1.0677 5.9181 -1.8497 0.9751
0.3890 5.4384 -1.6770 0.9774
0.1942 5.4377 -1.6736 0.9775
-0.0000 5.4370 -1.6723 0.9775
-0.1942 5.4363 -1.6731 0.9775
-0.5843 5.4349 -1.6813 0.9774
-1.3734 5.3809 -1.7081 0.9770
-1.6942 5.7699 -1.8496 0.9751
-2.3012 5.5557 -1.8496 0.9751
-2.4981 5.4700 -1.8496 0.9751
-2.6917 5.3774 -1.8496 0.9751
-3.6037 4.8140 -1.8496 0.9751
-3.7732 4.6823 -1.8496 0.9751
-4.2521 4.2521 -1.8496 0.9751
-5.0537 4.0725 -1.9963 0.9732
-5.2036 3.8954 -1.9993 0.9732
-5.5971 3.3209 -2.0018 0.9731
-5.7120 3.1190 -2.0018 0.9731
-5.9200 2.7036 -2.0018 0.9731
-6.2445 1.8335 -2.0017 0.9731
-6.4418 0.9262 -2.0017 0.9731
-6.4708 0.6957 -2.0017 0.9731
-6.4915 0.4643 -2.0017 0.9731
-6.5039 0.2323 -2.0017 0.9731
6.0225 -0.0000 -2.0019 0.9749
6.0072 0.4296 -2.0019 0.9749
5.9880 0.6438 -2.0019 0.9749
5.9269 1.0693 -2.0019 0.9749
5.8849 1.2802 -2.0019 0.9749
5.7786 1.6967 -2.0019 0.9749
5.2858 2.8863 -2.0019 0.9749
5.1794 3.0731 -2.0019 0.9749
5.0665 3.2560 -2.0019 0.9749
4.9470 3.4348 -2.0019 0.9749
4.8213 3.6092 -2.0019 0.9749
4.5442 3.9376 -1.9987 0.9750
4.3950 4.0919 -1.9961 0.9750
4.2022 4.2022 -1.9754 0.9753
3.6602 4.2240 -1.8579 0.9767
3.3347 4.4547 -1.8497 0.9768
3.1736 4.5708 -1.8497 0.9768
3.0084 4.6812 -1.8497 0.9768
2.6131 4.7855 -1.8124 0.9773
2.4042 4.8030 -1.7854 0.9776
2.1294 5.1409 -1.8497 0.9768
1.7573 5.2797 -1.8497 0.9768
0.7698 5.3541 -1.7980 0.9775
0.5755 5.3534 -1.7898 0.9776
0.3828 5.3527 -1.7838 0.9776
-0.0000 5.3513 -1.7788 0.9777
-0.3826 5.3500 -1.7829 0.9776
-0.5751 5.3493 -1.7884 0.9776
-0.7690 5.3486 -1.7962 0.9775
-0.9649 5.3479 -1.8064 0.9774
-1.1632 5.3471 -1.8190 0.9772
-1.3646 5.3464 -1.8342 0.9770
-1.7572 5.2796 -1.8496 0.9768
-1.9445 5.2135 -1.8496 0.9768
-2.3115 5.0615 -1.8496 0.9768
-2.8393 4.7854 -1.8496 0.9768
-3.0083 4.6810 -1.8496 0.9768
-3.1734 4.5706 -1.8496 0.9768
-3.3345 4.4544 -1.8496 0.9768
-3.4914 4.3326 -1.8496 0.9768
-4.2028 4.2028 -1.9757 0.9753
-4.3948 4.0917 -1.9960 0.9750
-4.8209 3.6089 -2.0018 0.9749
-4.9467 3.4345 -2.0018 0.9749
-5.1791 3.0729 -2.0018 0.9749
-5.3851 2.6956 -2.0018 0.9749
-5.4778 2.5016 -2.0018 0.9749
-5.5636 2.3045 -2.0018 0.9749
-5.7139 1.9018 -2.0018 0.9749
-5.7781 1.6966 -2.0018 0.9749
-5.8844 1.2801 -2.0018 0.9749
-6.0182 0.2149 -2.0018 0.9749
5.5945 0.1998 -2.0019 0.9765
5.5411 0.7967 -2.0019 0.9765
5.5092 0.9940 -2.0019 0.9765
5.4702 1.1900 -2.0019 0.9765
5.4242 1.3844 -2.0019 0.9765
5.3713 1.5772 -2.0019 0.9765
5.1720 2.1423 -2.0019 0.9765
5.0922 2.3255 -2.0019 0.9765
4.8144 2.8565 -2.0019 0.9765
4.7094 3.0266 -2.0019 0.9765
4.4815 3.3548 -2.0019 0.9765
4.3589 3.5126 -2.0019 0.9765
3.6394 4.2001 -1.9874 0.9767
3.3927 4.2101 -1.9336 0.9773
2.7964 4.3513 -1.8497 0.9783
2.6393 4.4483 -1.8497 0.9783
1.8076 4.8462 -1.8497 0.9783
1.6334 4.9077 -1.8497 0.9783
1.4572 4.9628 -1.8497 0.9783
1.0995 5.0541 -1.8497 0.9783
0.9184 5.0901 -1.8497 0.9783
0.7361 5.1197 -1.8497 0.9783
0.1846 5.1690 -1.8496 0.9783
-0.0000 5.1723 -1.8496 0.9783
-0.1846 5.1690 -1.8496 0.9783
-0.3690 5.1591 -1.8496 0.9783
-0.7361 5.1196 -1.8496 0.9783
-0.9183 5.0901 -1.8496 0.9783
-1.4572 4.9627 -1.8496 0.9783
-1.8075 4.8461 -1.8496 0.9783
-1.9793 4.7785 -1.8496 0.9783
-2.1486 4.7048 -1.8496 0.9783
-2.3152 4.6251 -1.8496 0.9783
-3.1587 4.2195 -1.8849 0.9779
-3.8035 4.0853 -1.9961 0.9766
-4.0948 3.8124 -2.0007 0.9765
-4.2305 3.6657 -2.0018 0.9765
-4.3586 3.5124 -2.0018 0.9765
-4.4812 3.3546 -2.0018 0.9765
-4.5981 3.1925 -2.0018 0.9765
-4.7091 3.0263 -2.0018 0.9765
-4.8141 2.8563 -2.0018 0.9765
-4.9130 2.6827 -2.0018 0.9765
-5.0056 2.5056 -2.0018 0.9765
-5.0918 2.3254 -2.0018 0.9765
-5.1716 2.1421 -2.0018 0.9765
-5.2447 1.9562 -2.0018 0.9765
-5.3112 1.7677 -2.0018 0.9765
-5.3709 1.5770 -2.0018 0.9765
-5.4238 1.3843 -2.0018 0.9765
-5.4697 1.1899 -2.0018 0.9765
-5.5087 0.9939 -2.0018 0.9765
-5.5941 0.1998 -2.0018 0.9765
5.1940 0.5584 -2.0019 0.9779
4.9566 1.6497 -2.0019 0.9779
4.8946 1.8256 -2.0019 0.9779
4.8263 1.9991 -2.0019 0.9779
4.6714 2.3383 -2.0019 0.9779
4.3947 2.8243 -2.0019 0.9779
4.2910 2.9793 -2.0019 0.9779
4.1820 3.1306 -2.0019 0.9779
3.8234 3.5597 -2.0019 0.9779
3.6939 3.6939 -2.0019 0.9779
3.5575 3.8210 -2.0007 0.9779
2.9195 4.2049 -1.9617 0.9783
2.7074 4.2128 -1.9191 0.9788
2.3132 4.2363 -1.8497 0.9795
1.8471 4.4593 -1.8497 0.9795
1.1937 4.6767 -1.8497 0.9795
1.0260 4.7163 -1.8497 0.9795
0.6869 4.7775 -1.8497 0.9795
0.3443 4.8143 -1.8496 0.9795
0.1723 4.8235 -1.8496 0.9795
-0.0000 4.8266 -1.8496 0.9795
-0.3443 4.8143 -1.8496 0.9795
-0.8570 4.7499 -1.8496 0.9795
-1.3598 4.6310 -1.8496 0.9795
-1.5242 4.5796 -1.8496 0.9795
-1.6867 4.5222 -1.8496 0.9795
-1.8470 4.4591 -1.8496 0.9795
-2.0050 4.3904 -1.8496 0.9795
-2.3131 4.2361 -1.8496 0.9795
-2.7076 4.2131 -1.9192 0.9788
-2.9198 4.2052 -1.9619 0.9783
-3.1194 4.1670 -1.9947 0.9779
-3.5573 3.8208 -2.0006 0.9779
-3.6937 3.6937 -2.0018 0.9779
-4.1817 3.1304 -2.0018 0.9779
-4.2908 2.9791 -2.0018 0.9779
-4.4924 2.6654 -2.0018 0.9779
-4.5846 2.5034 -2.0018 0.9779
-4.6711 2.3382 -2.0018 0.9779
-4.7515 2.1700 -2.0018 0.9779
-4.8260 1.9990 -2.0018 0.9779
-4.8942 1.8254 -2.0018 0.9779
-4.9563 1.6496 -2.0018 0.9779
-5.0120 1.4717 -2.0018 0.9779
-5.1406 0.9275 -2.0018 0.9779
-5.1704 0.7434 -2.0018 0.9779
-5.2102 0.3726 -2.0018 0.9779
4.8882 0.1746 -2.0019 0.9791
4.8789 0.3489 -2.0019 0.9791
4.8416 0.6961 -2.0019 0.9791
4.7796 1.0397 -2.0019 0.9791
4.7394 1.2097 -2.0019 0.9791
4.6932 1.3781 -2.0019 0.9791
4.6410 1.5447 -2.0019 0.9791
4.5830 1.7094 -2.0019 0.9791
4.4493 2.0319 -2.0019 0.9791
4.3740 2.1895 -2.0019 0.9791
4.2066 2.4959 -2.0019 0.9791
4.1149 2.6445 -2.0019 0.9791
4.0178 2.7896 -2.0019 0.9791
3.4587 3.4587 -2.0019 0.9791
3.0676 3.8067 -2.0009 0.9791
2.7835 4.0090 -1.9975 0.9791
2.6365 4.1025 -1.9959 0.9791
2.1080 4.2113 -1.9274 0.9799
1.9258 4.2169 -1.8973 0.9802
1.7488 4.2219 -1.8703 0.9804
1.4272 4.2881 -1.8497 0.9807
1.2733 4.3363 -1.8497 0.9807
0.9607 4.4161 -1.8497 0.9807
0.8024 4.4475 -1.8497 0.9807
0.4831 4.4934 -1.8497 0.9807
0.1613 4.5164 -1.8496 0.9807
0.0000 4.5193 -1.8496 0.9807
-0.1613 4.5164 -1.8496 0.9807
-0.3224 4.5078 -1.8496 0.9807
-0.4831 4.4934 -1.8496 0.9807
-0.6432 4.4733 -1.8496 0.9807
-0.8024 4.4475 -1.8496 0.9807
-0.9606 4.4160 -1.8496 0.9807
-1.7489 4.2221 -1.8704 0.9804
-2.1081 4.2115 -1.9276 0.9799
-2.2963 4.2054 -1.9610 0.9795
-2.7834 4.0088 -1.9974 0.9791
-2.9271 3.9102 -1.9991 0.9791
-3.0675 3.8066 -2.0008 0.9791
-3.2030 3.6964 -2.0018 0.9791
-3.3329 3.5798 -2.0018 0.9791
-3.6964 3.2030 -2.0018 0.9791
-3.8084 3.0690 -2.0018 0.9791
-3.9155 2.9311 -2.0018 0.9791
-4.0176 2.7895 -2.0018 0.9791
-4.3737 2.1893 -2.0018 0.9791
-4.5187 1.8717 -2.0018 0.9791
-4.5826 1.7092 -2.0018 0.9791
-4.6929 1.3780 -2.0018 0.9791
-2.1703 0.3916 -0.9026 0.9905
-1.9569 0.2104 -0.8055 0.9915
-1.9524 0.1396 -0.8011 0.9916
-1.9308 0.0690 -0.7907 0.9917
4.5935 -0.0000 -2.0019 0.9802
4.5905 0.1640 -2.0019 0.9802
4.5818 0.3277 -2.0019 0.9802
4.5671 0.4910 -2.0019 0.9802
4.5205 0.8156 -2.0019 0.9802
4.3584 1.4506 -2.0019 0.9802
4.3038 1.6052 -2.0019 0.9802
4.1076 2.0561 -2.0019 0.9802
4.0316 2.2014 -2.0019 0.9802
3.8643 2.4834 -2.0019 0.9802
3.7731 2.6197 -2.0019 0.9802
3.5766 2.8822 -2.0019 0.9802
3.3619 3.1300 -2.0019 0.9802
3.2480 3.2480 -2.0019 0.9802
2.8822 3.5766 -2.0019 0.9802
1.2373 4.2138 -1.9140 0.9810
0.4546 4.2283 -1.8534 0.9816
-0.0000 4.2441 -1.8496 0.9817
-0.1515 4.2414 -1.8496 0.9817
-0.3028 4.2333 -1.8496 0.9817
-0.4546 4.2283 -1.8534 0.9816
-0.6073 4.2240 -1.8598 0.9816
-0.7618 4.2222 -1.8698 0.9815
-0.9180 4.2199 -1.8821 0.9813
-1.0764 4.2172 -1.8968 0.9812
-1.5688 4.2062 -1.9565 0.9806
-3.0079 3.4713 -2.0018 0.9802
-3.2479 3.2479 -2.0018 0.9802
-3.3617 3.1299 -2.0018 0.9802
-3.4713 3.0079 -2.0018 0.9802
-3.9502 2.3438 -2.0018 0.9802
-4.0313 2.2013 -2.0018 0.9802
-4.1073 2.0560 -2.0018 0.9802
-4.1781 1.9081 -2.0018 0.9802
-4.2435 1.7577 -2.0018 0.9802
-1.5984 0.5962 -0.7435 0.9926
-1.5707 0.4612 -0.7134 0.9929
-1.5485 0.3952 -0.6965 0.9931
-1.5214 0.3310 -0.6786 0.9932
-1.5001 0.2707 -0.6643 0.9934
-1.5151 0.2178 -0.6671 0.9933
4.3248 -0.0000 -2.0019 0.9811
4.3138 0.3085 -2.0019 0.9811
4.2561 0.7679 -2.0019 0.9811
4.2260 0.9193 -2.0019 0.9811
4.1035 1.3658 -2.0019 0.9811
3.9956 1.6550 -2.0019 0.9811
3.9340 1.7966 -2.0019 0.9811
3.7958 2.0727 -2.0019 0.9811
3.7194 2.2068 -2.0019 0.9811
3.4622 2.5918 -2.0019 0.9811
3.3675 2.7137 -2.0019 0.9811
3.1653 2.9470 -2.0019 0.9811
3.0581 3.0581 -2.0019 0.9811
2.8321 3.2685 -2.0019 0.9811
2.4665 3.5525 -2.0019 0.9811
2.2068 3.7194 -2.0019 0.9811
2.0719 3.7943 -2.0011 0.9811
1.9340 3.8636 -1.9999 0.9811
1.3618 4.0916 -1.9961 0.9812
0.9136 4.1999 -1.9895 0.9812
0.4522 4.2057 -1.9580 0.9815
0.3009 4.2068 -1.9522 0.9816
0.0000 4.2077 -1.9477 0.9816
-0.1503 4.2075 -1.9488 0.9816
-0.4522 4.2058 -1.9580 0.9815
-0.9137 4.2000 -1.9896 0.9812
-1.0657 4.1752 -1.9946 0.9812
-1.3618 4.0915 -1.9960 0.9812
-1.5076 4.0420 -1.9969 0.9812
-1.9339 3.8635 -1.9999 0.9811
-2.0718 3.7942 -2.0011 0.9811
-2.2067 3.7193 -2.0018 0.9811
-2.5917 3.4620 -2.0018 0.9811
-2.8320 3.2683 -2.0018 0.9811
-3.0580 3.0580 -2.0018 0.9811
-3.2683 2.8320 -2.0018 0.9811
-3.3673 2.7136 -2.0018 0.9811
-3.4620 2.5916 -2.0018 0.9811
-3.7192 2.2067 -2.0018 0.9811
-1.3263 0.5494 -0.6645 0.9937
-1.3324 0.4970 -0.6582 0.9938
-1.3324 0.4435 -0.6500 0.9938
-1.3241 0.3888 -0.6388 0.9939
-1.3116 0.3348 -0.6266 0.9941
-1.3013 0.2831 -0.6164 0.9941
-1.3351 0.1435 -0.6215 0.9941
-1.3384 0.0957 -0.6211 0.9941
-1.3376 0.0478 -0.6195 0.9941
4.0812 -0.0000 -2.0019 0.9820
4.0786 0.1457 -2.0019 0.9820
4.0708 0.2911 -2.0019 0.9820
3.9158 1.1498 -2.0019 0.9820
3.8723 1.2888 -2.0019 0.9820
3.8238 1.4262 -2.0019 0.9820
3.6495 1.8268 -2.0019 0.9820
3.4333 2.2064 -2.0019 0.9820
3.3523 2.3276 -2.0019 0.9820
3.2671 2.4457 -2.0019 0.9820
2.9870 2.7810 -2.0019 0.9820
2.8858 2.8858 -2.0019 0.9820
2.7809 2.9869 -2.0019 0.9820
2.4457 3.2671 -2.0019 0.9820
2.3275 3.3523 -2.0019 0.9820
2.0825 3.5098 -2.0019 0.9820
1.9559 3.5819 -2.0019 0.9820
1.4253 3.8214 -2.0006 0.9820
1.1482 3.9104 -1.9991 0.9820
0.7230 4.0074 -1.9975 0.9820
0.5794 4.0299 -1.9971 0.9820
-0.2904 4.0599 -1.9966 0.9820
-0.5794 4.0299 -1.9971 0.9820
-0.7230 4.0074 -1.9975 0.9820
-1.0076 3.9476 -1.9985 0.9820
-1.1482 3.9104 -1.9991 0.9820
-1.8267 3.6493 -2.0018 0.9820
-1.9558 3.5818 -2.0018 0.9820
-2.3275 3.3522 -2.0018 0.9820
-2.4456 3.2670 -2.0018 0.9820
-2.6725 3.0842 -2.0018 0.9820
-2.8857 2.8857 -2.0018 0.9820
-2.9868 2.7808 -2.0018 0.9820
-3.0842 2.6724 -2.0018 0.9820
-3.3522 2.3275 -2.0018 0.9820
-3.4331 2.2063 -2.0018 0.9820
-3.5097 2.0824 -2.0018 0.9820
-1.1400 0.5206 -0.6148 0.9944
-1.1484 0.4757 -0.6097 0.9945
-1.1543 0.4305 -0.6043 0.9945
-1.1578 0.3854 -0.5986 0.9946
-1.1867 0.1706 -0.5881 0.9947
-1.1953 0.0855 -0.5878 0.9947
-1.1965 0.0427 -0.5873 0.9947
3.8589 0.0000 -2.0019 0.9828
3.8564 0.1377 -2.0019 0.9828
3.8490 0.2753 -2.0019 0.9828
3.8368 0.4125 -2.0019 0.9828
3.8196 0.5492 -2.0019 0.9828
3.7707 0.8203 -2.0019 0.9828
3.7390 0.9543 -2.0019 0.9828
3.7025 1.0872 -2.0019 0.9828
3.6614 1.2186 -2.0019 0.9828
3.6156 1.3485 -2.0019 0.9828
3.5651 1.4767 -2.0019 0.9828
3.5101 1.6030 -2.0019 0.9828
3.3868 1.8494 -2.0019 0.9828
3.3187 1.9691 -2.0019 0.9828
3.2463 2.0863 -2.0019 0.9828
3.1697 2.2008 -2.0019 0.9828
2.9163 2.5270 -2.0019 0.9828
2.8243 2.6295 -2.0019 0.9828
2.4213 3.0046 -2.0019 0.9828
2.3125 3.0891 -2.0019 0.9828
2.0862 3.2462 -2.0019 0.9828
1.7273 3.4506 -2.0019 0.9828
1.4767 3.5651 -2.0019 0.9828
1.3485 3.6155 -2.0019 0.9828
1.2186 3.6613 -2.0019 0.9828
0.8201 3.7699 -2.0015 0.9828
0.6849 3.7960 -2.0011 0.9828
0.5489 3.8173 -2.0007 0.9828
0.2751 3.8458 -2.0002 0.9828
0.0000 3.8553 -2.0000 0.9828
-0.1376 3.8529 -2.0001 0.9828
-0.5488 3.8173 -2.0007 0.9828
-0.9543 3.7389 -2.0018 0.9828
-1.2186 3.6613 -2.0018 0.9828
-1.4767 3.5650 -2.0018 0.9828
-1.7272 3.4506 -2.0018 0.9828
-1.8493 3.3867 -2.0018 0.9828
-2.4212 3.0045 -2.0018 0.9828
-2.6294 2.8242 -2.0018 0.9828
-2.8241 2.6294 -2.0018 0.9828
-2.9162 2.5269 -2.0018 0.9828
-3.1696 2.2007 -2.0018 0.9828
-3.2461 2.0862 -2.0018 0.9828
-0.9917 0.5884 -0.5982 0.9948
-1.0514 0.4355 -0.5904 0.9949
-1.0576 0.3945 -0.5856 0.9949
-1.0814 0.2352 -0.5741 0.9950
-1.0974 0.1578 -0.5752 0.9950
3.6551 0.0000 -2.0019 0.9835
3.6527 0.1305 -2.0019 0.9835
3.6341 0.3907 -2.0019 0.9835
3.6179 0.5202 -2.0019 0.9835
3.5970 0.6490 -2.0019 0.9835
3.5415 0.9039 -2.0019 0.9835
3.4680 1.1543 -2.0019 0.9835
3.3248 1.5184 -2.0019 0.9835
3.2685 1.6361 -2.0019 0.9835
3.0748 1.9761 -2.0019 0.9835
2.9260 2.1904 -2.0019 0.9835
2.5845 2.5845 -2.0019 0.9835
2.3935 2.7623 -2.0019 0.9835
2.1904 2.9260 -2.0019 0.9835
1.9761 3.0748 -2.0019 0.9835
1.8651 3.1434 -2.0019 0.9835
1.3987 3.3768 -2.0019 0.9835
1.1543 3.4680 -2.0019 0.9835
1.0297 3.5070 -2.0019 0.9835
0.3907 3.6340 -2.0018 0.9835
0.2607 3.6457 -2.0018 0.9835
0.0000 3.6550 -2.0018 0.9835
-0.2607 3.6457 -2.0018 0.9835
-0.6489 3.5969 -2.0018 0.9835
-1.0297 3.5069 -2.0018 0.9835
-1.1542 3.4679 -2.0018 0.9835
-1.3987 3.3767 -2.0018 0.9835
-1.5183 3.3247 -2.0018 0.9835
-1.9760 3.0747 -2.0018 0.9835
-2.0845 3.0022 -2.0018 0.9835
-2.2933 2.8459 -2.0018 0.9835
-2.6750 2.4905 -2.0018 0.9835
-0.8661 0.6014 -0.5775 0.9952
-0.8882 0.5708 -0.5782 0.9952
-0.9434 0.4722 -0.5778 0.9952
-0.9580 0.4375 -0.5768 0.9952
-0.9677 0.4008 -0.5737 0.9952
-0.9741 0.3633 -0.5694 0.9953
-0.9785 0.3257 -0.5648 0.9953
-1.0039 0.2184 -0.5627 0.9953
-1.0124 0.1827 -0.5634 0.9953
-1.0190 0.1465 -0.5638 0.9953
-1.0265 0.0734 -0.5637 0.9953
-1.0276 0.0367 -0.5632 0.9953
2.0359 0.1456 -1.1784 0.9906
1.9351 0.5682 -1.1644 0.9907
3.0432 1.6617 -2.0019 0.9841
2.9169 1.8746 -2.0019 0.9841
2.7758 2.0779 -2.0019 0.9841
2.6998 2.1757 -2.0019 0.9841
2.5377 2.3627 -2.0019 0.9841
2.4518 2.4518 -2.0019 0.9841
1.8746 2.9169 -2.0019 0.9841
1.7693 2.9820 -2.0019 0.9841
1.5520 3.1006 -2.0019 0.9841
1.4404 3.1540 -2.0019 0.9841
1.3269 3.2034 -2.0019 0.9841
1.0950 3.2899 -2.0019 0.9841
0.9769 3.3269 -2.0019 0.9841
0.8575 3.3596 -2.0019 0.9841
0.7370 3.3881 -2.0019 0.9841
0.6156 3.4122 -2.0019 0.9841
0.4934 3.4320 -2.0018 0.9841
0.3706 3.4474 -2.0018 0.9841
0.2474 3.4585 -2.0018 0.9841
0.1238 3.4651 -2.0018 0.9841
0.0000 3.4673 -2.0018 0.9841
-0.1238 3.4651 -2.0018 0.9841
-0.2474 3.4585 -2.0018 0.9841
-0.4934 3.4320 -2.0018 0.9841
-0.7370 3.3880 -2.0018 0.9841
-0.8575 3.3596 -2.0018 0.9841
-0.9768 3.3268 -2.0018 0.9841
-1.0950 3.2898 -2.0018 0.9841
-1.2117 3.2487 -2.0018 0.9841
-1.4403 3.1539 -2.0018 0.9841
-1.5520 3.1005 -2.0018 0.9841
-1.7692 2.9819 -2.0018 0.9841
-1.8745 2.9168 -2.0018 0.9841
-2.3626 2.5377 -2.0018 0.9841
-2.4517 2.4517 -2.0018 0.9841
-2.6204 2.2706 -2.0018 0.9841
-0.7671 0.6182 -0.5688 0.9955
-0.8941 0.3703 -0.5587 0.9955
-0.9011 0.3361 -0.5553 0.9956
-0.9057 0.3015 -0.5511 0.9956
-0.9259 0.2363 -0.5517 0.9956
-0.9353 0.2035 -0.5526 0.9956
-0.9430 0.1701 -0.5532 0.9956
-0.9565 0.0684 -0.5536 0.9956
