ply
format ascii 1.0
element vertex 760
property float32 x
property float32 y
property float32 z
property float32 I
end_header
6.8459 -6.8458 -0.7099 0.9619
6.4042 -6.8786 -0.9023 0.9629
6.8729 -6.8729 -0.9331 0.9617
6.4384 -6.9153 -1.1224 0.9627
6.8819 -6.8819 -1.1561 0.9616
6.0562 -6.9892 -1.3103 0.9633
6.6131 -7.1029 -1.3751 0.9616
6.3930 -6.8665 -1.5456 0.9627
-9.3201 -1.6815 -2.0019 0.9620
-9.2542 -2.0131 -2.0019 0.9620
-9.0870 -2.6682 -2.0019 0.9620
-8.8735 -3.3097 -2.0019 0.9620
-8.7497 -3.6243 -2.0019 0.9620
-8.4689 -4.2393 -2.0019 0.9620
-8.3122 -4.5388 -2.0019 0.9620
-8.1449 -4.8326 -2.0019 0.9620
-7.1575 -6.2020 -2.0019 0.9620
-6.9316 -6.4536 -2.0019 0.9620
-6.4535 -6.9316 -2.0019 0.9620
-6.2020 -7.1575 -2.0019 0.9620
-5.9426 -7.3744 -2.0019 0.9620
-5.4014 -7.7795 -2.0019 0.9620
-5.1203 -7.9673 -2.0019 0.9620
-4.5389 -8.3123 -2.0019 0.9620
-3.9343 -8.6150 -2.0019 0.9620
-3.6243 -8.7499 -2.0019 0.9620
-3.3097 -8.8737 -2.0019 0.9620
-2.9909 -8.9862 -2.0019 0.9620
-1.3478 -9.3744 -2.0019 0.9620
-1.0124 -9.4166 -2.0019 0.9620
-0.6756 -9.4467 -2.0019 0.9620
-0.3380 -9.4648 -2.0019 0.9620
-0.0000 -9.4708 -2.0019 0.9620
0.3380 -9.4648 -2.0019 0.9620
0.6756 -9.4467 -2.0019 0.9620
1.0124 -9.4165 -2.0019 0.9620
1.3478 -9.3744 -2.0019 0.9620
1.6816 -9.3203 -2.0019 0.9620
2.3422 -9.1766 -2.0019 0.9620
2.6682 -9.0871 -2.0019 0.9620
2.9909 -8.9861 -2.0019 0.9620
3.3097 -8.8736 -2.0019 0.9620
3.9343 -8.6149 -2.0019 0.9620
4.2392 -8.4689 -2.0019 0.9620
5.1202 -7.9672 -2.0019 0.9620
5.4013 -7.7794 -2.0019 0.9620
5.6755 -7.5816 -2.0019 0.9620
5.9425 -7.3742 -2.0019 0.9620
6.4534 -6.9315 -2.0019 0.9620
6.9315 -6.4534 -2.0019 0.9620
7.1574 -6.2019 -2.0019 0.9620
7.3742 -5.9425 -2.0019 0.9620
7.7793 -5.4013 -2.0019 0.9620
8.1447 -4.8325 -2.0019 0.9620
8.3120 -4.5387 -2.0019 0.9620
8.6146 -3.9342 -2.0019 0.9620
8.7495 -3.6242 -2.0019 0.9620
9.0867 -2.6681 -2.0018 0.9620
9.2539 -2.0131 -2.0018 0.9620
9.3198 -1.6815 -2.0018 0.9620
9.3739 -1.3478 -2.0018 0.9620
9.4461 -0.6756 -2.0018 0.9620
9.4642 -0.3380 -2.0018 0.9620
-8.5178 -0.0000 -2.0019 0.9656
-8.4961 -0.6077 -2.0019 0.9656
-8.3825 -1.5124 -2.0019 0.9656
-8.2533 -2.1065 -2.0019 0.9656
-8.1728 -2.3998 -2.0019 0.9656
-7.9808 -2.9767 -2.0019 0.9656
-7.6169 -3.8128 -2.0019 0.9656
-7.4760 -4.0822 -2.0019 0.9656
-7.3255 -4.3465 -2.0019 0.9656
-6.6324 -5.3448 -2.0019 0.9656
-6.2343 -5.8043 -2.0019 0.9656
-5.3448 -6.6325 -2.0019 0.9656
-4.8580 -6.9969 -2.0019 0.9656
-4.3465 -7.3256 -2.0019 0.9656
-4.0822 -7.4761 -2.0019 0.9656
-3.8128 -7.6170 -2.0019 0.9656
-3.5385 -7.7483 -2.0019 0.9656
-3.2597 -7.8696 -2.0019 0.9656
-2.9767 -7.9810 -2.0019 0.9656
-2.6900 -8.0821 -2.0019 0.9656
-1.5124 -8.3827 -2.0019 0.9656
-0.3040 -8.5126 -2.0019 0.9656
0.3040 -8.5126 -2.0019 0.9656
2.1066 -8.2534 -2.0019 0.9656
2.3998 -8.1729 -2.0019 0.9656
2.6900 -8.0821 -2.0019 0.9656
2.9767 -7.9809 -2.0019 0.9656
3.2597 -7.8696 -2.0019 0.9656
3.5385 -7.7482 -2.0019 0.9656
4.3464 -7.3255 -2.0019 0.9656
5.8042 -6.2342 -2.0019 0.9656
6.2342 -5.8042 -2.0019 0.9656
6.4373 -5.5780 -2.0019 0.9656
6.8188 -5.1045 -2.0019 0.9656
7.1656 -4.6051 -2.0019 0.9656
7.4758 -4.0821 -2.0019 0.9656
7.8693 -3.2596 -2.0019 0.9656
8.0818 -2.6899 -2.0018 0.9656
8.3230 -1.8106 -2.0018 0.9656
8.3823 -1.5123 -2.0018 0.9656
8.4959 -0.6076 -2.0018 0.9656
-7.7267 -0.2760 -2.0019 0.9686
-7.6874 -0.8265 -2.0019 0.9686
-7.6530 -1.1003 -2.0019 0.9686
-7.5550 -1.6435 -2.0019 0.9686
-7.4916 -1.9121 -2.0019 0.9686
-7.4186 -2.1783 -2.0019 0.9686
-7.3361 -2.4417 -2.0019 0.9686
-7.2443 -2.7020 -2.0019 0.9686
-6.9140 -3.4609 -2.0019 0.9686
-6.5044 -4.1802 -2.0019 0.9686
-6.1896 -4.6335 -2.0019 0.9686
-5.6589 -5.2686 -2.0019 0.9686
-5.2686 -5.6589 -2.0019 0.9686
-5.0633 -5.8434 -2.0019 0.9686
-4.8515 -6.0204 -2.0019 0.9686
-4.4097 -6.3511 -2.0019 0.9686
-4.1802 -6.5045 -2.0019 0.9686
-3.4609 -6.9140 -2.0019 0.9686
-3.2119 -7.0332 -2.0019 0.9686
-2.9588 -7.1433 -2.0019 0.9686
-2.7020 -7.2444 -2.0019 0.9686
-2.1783 -7.4187 -2.0019 0.9686
-1.9122 -7.4917 -2.0019 0.9686
-0.8265 -7.6876 -2.0019 0.9686
-0.5516 -7.7122 -2.0019 0.9686
0.0000 -7.7319 -2.0019 0.9686
0.2760 -7.7269 -2.0019 0.9686
0.8265 -7.6876 -2.0019 0.9686
1.1004 -7.6532 -2.0019 0.9686
1.3728 -7.6090 -2.0019 0.9686
3.4609 -6.9140 -2.0019 0.9686
3.9453 -6.6494 -2.0019 0.9686
4.1801 -6.5044 -2.0019 0.9686
4.4096 -6.3511 -2.0019 0.9686
4.6335 -6.1896 -2.0019 0.9686
5.2686 -5.6588 -2.0019 0.9686
5.6588 -5.2685 -2.0019 0.9686
6.0202 -4.8514 -2.0019 0.9686
6.1895 -4.6334 -2.0019 0.9686
6.3510 -4.4096 -2.0019 0.9686
6.7859 -3.7054 -2.0019 0.9686
6.9138 -3.4608 -2.0019 0.9686
7.0329 -3.2118 -2.0019 0.9686
7.2441 -2.7019 -2.0018 0.9686
7.3359 -2.4416 -2.0018 0.9686
7.4184 -2.1782 -2.0018 0.9686
7.4914 -1.9121 -2.0018 0.9686
7.5549 -1.6435 -2.0018 0.9686
7.6087 -1.3727 -2.0018 0.9686
-7.0669 -0.2524 -2.0019 0.9710
-7.0309 -0.7559 -2.0019 0.9710
-6.9591 -1.2556 -2.0019 0.9710
-6.9098 -1.5032 -2.0019 0.9710
-6.7850 -1.9923 -2.0019 0.9710
-6.6256 -2.4712 -2.0019 0.9710
-6.5332 -2.7062 -2.0019 0.9710
-6.4325 -2.9376 -2.0019 0.9710
-6.0816 -3.6084 -2.0019 0.9710
-5.9489 -3.8232 -2.0019 0.9710
-5.8087 -4.0331 -2.0019 0.9710
-5.1756 -4.8187 -2.0019 0.9710
-4.8187 -5.1756 -2.0019 0.9710
-4.0331 -5.8087 -2.0019 0.9710
-3.6084 -6.0817 -2.0019 0.9710
-2.2332 -6.7097 -2.0019 0.9710
-1.9923 -6.7851 -2.0019 0.9710
-1.5032 -6.9100 -2.0019 0.9710
-1.0064 -6.9996 -2.0019 0.9710
-0.7559 -7.0311 -2.0019 0.9710
-0.5045 -7.0536 -2.0019 0.9710
0.2524 -7.0671 -2.0019 0.9710
0.5045 -7.0535 -2.0019 0.9710
1.0064 -6.9996 -2.0019 0.9710
1.2556 -6.9592 -2.0019 0.9710
1.5032 -6.9099 -2.0019 0.9710
1.7488 -6.8519 -2.0019 0.9710
1.9923 -6.7851 -2.0019 0.9710
2.2332 -6.7097 -2.0019 0.9710
2.7062 -6.5332 -2.0019 0.9710
3.1653 -6.3235 -2.0019 0.9710
3.6084 -6.0816 -2.0019 0.9710
4.2378 -5.6610 -2.0019 0.9710
4.6308 -5.3443 -2.0019 0.9710
4.8186 -5.1756 -2.0019 0.9710
5.0003 -5.0003 -2.0019 0.9710
5.1756 -4.8186 -2.0019 0.9710
5.3442 -4.6308 -2.0019 0.9710
5.8086 -4.0330 -2.0019 0.9710
6.0815 -3.6083 -2.0019 0.9710
6.2064 -3.3890 -2.0019 0.9710
6.6255 -2.4712 -2.0018 0.9710
6.7095 -2.2331 -2.0018 0.9710
6.7849 -1.9922 -2.0018 0.9710
6.8517 -1.7488 -2.0018 0.9710
7.0308 -0.7559 -2.0018 0.9710
7.0533 -0.5045 -2.0018 0.9710
7.0668 -0.2524 -2.0018 0.9710
-6.5085 -0.0000 -2.0019 0.9731
-6.4919 -0.4643 -2.0019 0.9731
-6.4712 -0.6957 -2.0019 0.9731
-6.4422 -0.9263 -2.0019 0.9731
-6.4051 -1.1556 -2.0019 0.9731
-6.3063 -1.6096 -2.0019 0.9731
-6.0131 -2.4907 -2.0019 0.9731
-5.9204 -2.7038 -2.0019 0.9731
-5.8201 -2.9133 -2.0019 0.9731
-5.7124 -3.1192 -2.0019 0.9731
-5.5975 -3.3211 -2.0019 0.9731
-5.3463 -3.7120 -2.0019 0.9731
-5.2104 -3.9005 -2.0019 0.9731
-5.0679 -4.0839 -2.0019 0.9731
-4.9188 -4.2622 -2.0019 0.9731
-4.7636 -4.4351 -2.0019 0.9731
-4.6023 -4.6023 -2.0019 0.9731
-4.4351 -4.7636 -2.0019 0.9731
-4.2622 -4.9189 -2.0019 0.9731
-4.0839 -5.0679 -2.0019 0.9731
-3.3211 -5.5975 -2.0019 0.9731
-3.1192 -5.7125 -2.0019 0.9731
-2.9134 -5.8202 -2.0019 0.9731
-2.7038 -5.9205 -2.0019 0.9731
-2.4907 -6.0132 -2.0019 0.9731
-2.2745 -6.0983 -2.0019 0.9731
-2.0554 -6.1756 -2.0019 0.9731
-1.8337 -6.2450 -2.0019 0.9731
-1.6096 -6.3065 -2.0019 0.9731
-1.3835 -6.3599 -2.0019 0.9731
-1.1556 -6.4052 -2.0019 0.9731
-0.9263 -6.4424 -2.0019 0.9731
-0.6957 -6.4713 -2.0019 0.9731
-0.4643 -6.4920 -2.0019 0.9731
0.6957 -6.4713 -2.0019 0.9731
0.9263 -6.4424 -2.0019 0.9731
1.1556 -6.4052 -2.0019 0.9731
1.3835 -6.3599 -2.0019 0.9731
1.6096 -6.3064 -2.0019 0.9731
1.8337 -6.2450 -2.0019 0.9731
2.4907 -6.0131 -2.0019 0.9731
4.4350 -4.7636 -2.0019 0.9731
4.6022 -4.6022 -2.0019 0.9731
4.7635 -4.4350 -2.0019 0.9731
5.3462 -3.7119 -2.0019 0.9731
5.8200 -2.9133 -2.0019 0.9731
6.0981 -2.2745 -2.0018 0.9731
6.1754 -2.0554 -2.0018 0.9731
6.2448 -1.8336 -2.0018 0.9731
6.3597 -1.3835 -2.0018 0.9731
6.4918 -0.4643 -2.0018 0.9731
-6.0070 -0.4296 -2.0019 0.9749
-5.9611 -0.8571 -2.0019 0.9749
-5.9267 -1.0693 -2.0019 0.9749
-5.8847 -1.2802 -2.0019 0.9749
-5.8353 -1.4894 -2.0019 0.9749
-5.7142 -1.9019 -2.0019 0.9749
-5.6427 -2.1046 -2.0019 0.9749
-5.5640 -2.3047 -2.0019 0.9749
-5.3854 -2.6957 -2.0019 0.9749
-5.1794 -3.0731 -2.0019 0.9749
-4.8212 -3.6091 -2.0019 0.9749
-4.6893 -3.7789 -2.0019 0.9749
-4.4078 -4.1038 -2.0019 0.9749
-4.1038 -4.4078 -2.0019 0.9749
-3.7789 -4.6894 -2.0019 0.9749
-3.6091 -4.8212 -2.0019 0.9749
-3.2560 -5.0664 -2.0019 0.9749
-3.0731 -5.1794 -2.0019 0.9749
-2.8863 -5.2858 -2.0019 0.9749
-2.5018 -5.4783 -2.0019 0.9749
-2.3047 -5.5641 -2.0019 0.9749
-2.1046 -5.6428 -2.0019 0.9749
-1.4894 -5.8354 -2.0019 0.9749
-1.2802 -5.8849 -2.0019 0.9749
-0.6438 -5.9880 -2.0019 0.9749
-0.2150 -6.0187 -2.0019 0.9749
0.0000 -6.0225 -2.0019 0.9749
1.0693 -5.9268 -2.0019 0.9749
1.2802 -5.8848 -2.0019 0.9749
1.4894 -5.8354 -2.0019 0.9749
1.6967 -5.7785 -2.0019 0.9749
1.9019 -5.7143 -2.0019 0.9749
2.1046 -5.6427 -2.0019 0.9749
3.0731 -5.1794 -2.0019 0.9749
3.7789 -4.6893 -2.0019 0.9749
3.9438 -4.5514 -2.0019 0.9749
4.2585 -4.2585 -2.0019 0.9749
4.5514 -3.9438 -2.0019 0.9749
4.6893 -3.7789 -2.0019 0.9749
5.0663 -3.2559 -2.0019 0.9749
5.1793 -3.0730 -2.0019 0.9749
5.4781 -2.5018 -2.0019 0.9749
5.6426 -2.1046 -2.0018 0.9749
5.7784 -1.6967 -2.0018 0.9749
5.8847 -1.2801 -2.0018 0.9749
5.9266 -1.0693 -2.0018 0.9749
5.9878 -0.6438 -2.0018 0.9749
6.0069 -0.4296 -2.0018 0.9749
-5.5944 -0.1998 -2.0019 0.9765
-5.5090 -0.9939 -2.0019 0.9765
-5.4700 -1.1899 -2.0019 0.9765
-5.3712 -1.5771 -2.0019 0.9765
-5.3115 -1.7678 -2.0019 0.9765
-5.2450 -1.9563 -2.0019 0.9765
-5.0921 -2.3255 -2.0019 0.9765
-4.9132 -2.6828 -2.0019 0.9765
-4.4814 -3.3548 -2.0019 0.9765
-4.3588 -3.5126 -2.0019 0.9765
-4.2307 -3.6659 -2.0019 0.9765
-4.0971 -3.8146 -2.0019 0.9765
-3.8146 -4.0972 -2.0019 0.9765
-3.6659 -4.2307 -2.0019 0.9765
-3.5126 -4.3589 -2.0019 0.9765
-3.3548 -4.4815 -2.0019 0.9765
-2.8565 -4.8144 -2.0019 0.9765
-2.6828 -4.9133 -2.0019 0.9765
-2.5058 -5.0059 -2.0019 0.9765
-2.1423 -5.1719 -2.0019 0.9765
-1.9563 -5.2451 -2.0019 0.9765
-1.7679 -5.3116 -2.0019 0.9765
-1.5772 -5.3713 -2.0019 0.9765
-1.1899 -5.4701 -2.0019 0.9765
-0.9940 -5.5091 -2.0019 0.9765
-0.7967 -5.5411 -2.0019 0.9765
-0.5984 -5.5660 -2.0019 0.9765
-0.3994 -5.5838 -2.0019 0.9765
-0.1998 -5.5945 -2.0019 0.9765
0.1998 -5.5945 -2.0019 0.9765
0.3994 -5.5838 -2.0019 0.9765
0.5984 -5.5660 -2.0019 0.9765
1.3844 -5.4242 -2.0019 0.9765
1.5771 -5.3713 -2.0019 0.9765
1.7679 -5.3116 -2.0019 0.9765
1.9563 -5.2451 -2.0019 0.9765
2.1423 -5.1719 -2.0019 0.9765
2.5058 -5.0059 -2.0019 0.9765
2.8565 -4.8144 -2.0019 0.9765
3.0265 -4.7093 -2.0019 0.9765
3.1927 -4.5983 -2.0019 0.9765
3.3548 -4.4814 -2.0019 0.9765
3.5126 -4.3588 -2.0019 0.9765
3.9584 -3.9584 -2.0019 0.9765
4.0971 -3.8146 -2.0019 0.9765
4.2307 -3.6659 -2.0019 0.9765
4.4814 -3.3547 -2.0019 0.9765
5.0058 -2.5057 -2.0019 0.9765
5.0920 -2.3255 -2.0019 0.9765
5.1718 -2.1422 -2.0018 0.9765
5.4240 -1.3844 -2.0018 0.9765
5.4700 -1.1899 -2.0018 0.9765
5.5089 -0.9939 -2.0018 0.9765
5.5658 -0.5984 -2.0018 0.9765
5.5836 -0.3994 -2.0018 0.9765
-5.2238 0.0000 -2.0019 0.9779
-5.1706 -0.7434 -2.0019 0.9779
-5.1408 -0.9275 -2.0019 0.9779
-5.1044 -1.1104 -2.0019 0.9779
-5.0122 -1.4717 -2.0019 0.9779
-4.9565 -1.6497 -2.0019 0.9779
-4.8945 -1.8255 -2.0019 0.9779
-4.7518 -2.1701 -2.0019 0.9779
-4.6713 -2.3383 -2.0019 0.9779
-4.3946 -2.8243 -2.0019 0.9779
-4.1819 -3.1306 -2.0019 0.9779
-4.0675 -3.2778 -2.0019 0.9779
-3.9479 -3.4209 -2.0019 0.9779
-3.6938 -3.6939 -2.0019 0.9779
-3.5596 -3.8233 -2.0019 0.9779
-3.1306 -4.1820 -2.0019 0.9779
-2.3383 -4.6714 -2.0019 0.9779
-1.8256 -4.8946 -2.0019 0.9779
-1.6497 -4.9566 -2.0019 0.9779
-1.2919 -5.0617 -2.0019 0.9779
-1.1104 -5.1045 -2.0019 0.9779
-0.9275 -5.1409 -2.0019 0.9779
-0.7434 -5.1708 -2.0019 0.9779
-0.3727 -5.2106 -2.0019 0.9779
-0.1865 -5.2206 -2.0019 0.9779
0.0000 -5.2239 -2.0019 0.9779
0.9275 -5.1409 -2.0019 0.9779
1.1104 -5.1045 -2.0019 0.9779
1.4717 -5.0123 -2.0019 0.9779
1.6497 -4.9566 -2.0019 0.9779
1.8256 -4.8945 -2.0019 0.9779
2.1701 -4.7518 -2.0019 0.9779
2.5035 -4.5849 -2.0019 0.9779
2.6656 -4.4926 -2.0019 0.9779
2.9793 -4.2910 -2.0019 0.9779
3.1305 -4.1819 -2.0019 0.9779
3.2778 -4.0675 -2.0019 0.9779
3.4209 -3.9479 -2.0019 0.9779
3.5596 -3.8233 -2.0019 0.9779
3.9479 -3.4209 -2.0019 0.9779
4.0675 -3.2778 -2.0019 0.9779
4.6713 -2.3383 -2.0019 0.9779
4.8262 -1.9991 -2.0018 0.9779
4.8944 -1.8255 -2.0018 0.9779
4.9565 -1.6497 -2.0018 0.9779
5.0615 -1.2919 -2.0018 0.9779
5.1044 -1.1104 -2.0018 0.9779
5.1938 -0.5584 -2.0018 0.9779
5.2204 -0.1865 -2.0018 0.9779
-1.9308 -0.0690 -0.7907 0.9917
-1.9525 -0.1396 -0.8011 0.9916
-2.1703 -0.3916 -0.9026 0.9905
-4.6931 -1.3780 -2.0019 0.9791
-4.6409 -1.5447 -2.0019 0.9791
-4.4493 -2.0319 -2.0019 0.9791
-4.3739 -2.1894 -2.0019 0.9791
-4.0178 -2.7896 -2.0019 0.9791
-3.6966 -3.2031 -2.0019 0.9791
-3.5799 -3.3330 -2.0019 0.9791
-3.4587 -3.4587 -2.0019 0.9791
-3.3330 -3.5799 -2.0019 0.9791
-2.6444 -4.1148 -2.0019 0.9791
-2.3442 -4.2930 -2.0019 0.9791
-2.1894 -4.3739 -2.0019 0.9791
-2.0319 -4.4493 -2.0019 0.9791
-1.7093 -4.5829 -2.0019 0.9791
-1.5447 -4.6410 -2.0019 0.9791
-1.3781 -4.6932 -2.0019 0.9791
-0.8685 -4.8136 -2.0019 0.9791
-0.6961 -4.8415 -2.0019 0.9791
-0.5229 -4.8633 -2.0019 0.9791
-0.3489 -4.8789 -2.0019 0.9791
-0.1746 -4.8882 -2.0019 0.9791
0.0000 -4.8913 -2.0019 0.9791
0.1746 -4.8882 -2.0019 0.9791
0.3489 -4.8789 -2.0019 0.9791
0.6961 -4.8415 -2.0019 0.9791
0.8685 -4.8136 -2.0019 0.9791
1.2097 -4.7394 -2.0019 0.9791
1.3780 -4.6932 -2.0019 0.9791
1.5447 -4.6410 -2.0019 0.9791
1.7093 -4.5829 -2.0019 0.9791
1.8718 -4.5190 -2.0019 0.9791
2.1894 -4.3739 -2.0019 0.9791
2.3442 -4.2930 -2.0019 0.9791
2.4959 -4.2066 -2.0019 0.9791
2.7896 -4.0178 -2.0019 0.9791
2.9312 -3.9157 -2.0019 0.9791
3.2031 -3.6966 -2.0019 0.9791
3.3330 -3.5799 -2.0019 0.9791
3.4587 -3.4586 -2.0019 0.9791
3.5799 -3.3330 -2.0019 0.9791
3.8085 -3.0691 -2.0019 0.9791
3.9156 -2.9312 -2.0019 0.9791
4.0178 -2.7896 -2.0019 0.9791
4.1148 -2.6444 -2.0019 0.9791
4.2065 -2.4958 -2.0019 0.9791
4.4492 -2.0319 -2.0019 0.9791
4.5189 -1.8718 -2.0018 0.9791
4.5828 -1.7093 -2.0018 0.9791
4.6931 -1.3780 -2.0018 0.9791
4.7393 -1.2096 -2.0018 0.9791
4.8135 -0.8684 -2.0018 0.9791
4.8881 -0.1746 -2.0018 0.9791
-1.5249 -0.1639 -0.6684 0.9933
-1.5001 -0.2707 -0.6643 0.9934
-1.5214 -0.3310 -0.6786 0.9932
-1.5485 -0.3952 -0.6965 0.9931
-1.5707 -0.4612 -0.7134 0.9929
-1.5875 -0.5284 -0.7292 0.9927
-1.5984 -0.5962 -0.7435 0.9926
-4.2437 -1.7578 -2.0019 0.9802
-4.0315 -2.2014 -2.0019 0.9802
-3.8642 -2.4834 -2.0019 0.9802
-3.7731 -2.6197 -2.0019 0.9802
-3.6772 -2.7527 -2.0019 0.9802
-3.4714 -3.0081 -2.0019 0.9802
-3.1300 -3.3619 -2.0019 0.9802
-3.0080 -3.4715 -2.0019 0.9802
-2.6197 -3.7731 -2.0019 0.9802
-2.4834 -3.8642 -2.0019 0.9802
-2.3439 -3.9504 -2.0019 0.9802
-2.2014 -4.0316 -2.0019 0.9802
-2.0561 -4.1076 -2.0019 0.9802
-1.9082 -4.1783 -2.0019 0.9802
-1.2941 -4.4074 -2.0019 0.9802
-1.1360 -4.4507 -2.0019 0.9802
-0.9764 -4.4885 -2.0019 0.9802
-0.6537 -4.5467 -2.0019 0.9802
-0.3277 -4.5817 -2.0019 0.9802
-0.1640 -4.5905 -2.0019 0.9802
0.0000 -4.5934 -2.0019 0.9802
0.1640 -4.5905 -2.0019 0.9802
0.3277 -4.5817 -2.0019 0.9802
0.6537 -4.5467 -2.0019 0.9802
0.8156 -4.5204 -2.0019 0.9802
0.9764 -4.4884 -2.0019 0.9802
1.1360 -4.4507 -2.0019 0.9802
1.2941 -4.4074 -2.0019 0.9802
1.6052 -4.3038 -2.0019 0.9802
1.7578 -4.2438 -2.0019 0.9802
1.9082 -4.1783 -2.0019 0.9802
2.2014 -4.0315 -2.0019 0.9802
2.4834 -3.8642 -2.0019 0.9802
2.6197 -3.7731 -2.0019 0.9802
2.7527 -3.6772 -2.0019 0.9802
3.0080 -3.4715 -2.0019 0.9802
3.2480 -3.2480 -2.0019 0.9802
3.4714 -3.0080 -2.0019 0.9802
3.6772 -2.7527 -2.0019 0.9802
3.7731 -2.6197 -2.0019 0.9802
3.8642 -2.4834 -2.0019 0.9802
3.9503 -2.3439 -2.0019 0.9802
4.0315 -2.2014 -2.0019 0.9802
4.1075 -2.0561 -2.0019 0.9802
4.3583 -1.4506 -2.0018 0.9802
4.4506 -1.1360 -2.0018 0.9802
4.4883 -0.9764 -2.0018 0.9802
4.5466 -0.6537 -2.0018 0.9802
4.5816 -0.3277 -2.0018 0.9802
4.5904 -0.1639 -2.0018 0.9802
-1.3384 -0.0957 -0.6211 0.9941
-1.3273 -0.1908 -0.6207 0.9941
-1.3013 -0.2831 -0.6164 0.9941
-1.3324 -0.4970 -0.6582 0.9938
-1.3263 -0.5494 -0.6645 0.9937
-1.3151 -0.6006 -0.6692 0.9936
-3.8673 -1.9358 -2.0019 0.9811
-3.7958 -2.0727 -2.0019 0.9811
-3.7194 -2.2068 -2.0019 0.9811
-3.5525 -2.4665 -2.0019 0.9811
-3.3674 -2.7137 -2.0019 0.9811
-3.1653 -2.9470 -2.0019 0.9811
-2.9470 -3.1653 -2.0019 0.9811
-2.8321 -3.2685 -2.0019 0.9811
-2.4665 -3.5525 -2.0019 0.9811
-2.3382 -3.6383 -2.0019 0.9811
-1.9359 -3.8674 -2.0019 0.9811
-1.6550 -3.9956 -2.0019 0.9811
-1.0696 -4.1905 -2.0019 0.9811
-0.7679 -4.2561 -2.0019 0.9811
-0.1544 -4.3221 -2.0019 0.9811
0.1544 -4.3221 -2.0019 0.9811
0.3085 -4.3138 -2.0019 0.9811
0.7679 -4.2561 -2.0019 0.9811
1.0696 -4.1905 -2.0019 0.9811
1.2184 -4.1496 -2.0019 0.9811
1.5114 -4.0521 -2.0019 0.9811
1.7966 -3.9340 -2.0019 0.9811
2.0727 -3.7958 -2.0019 0.9811
2.2068 -3.7194 -2.0019 0.9811
2.4665 -3.5525 -2.0019 0.9811
2.5917 -3.4622 -2.0019 0.9811
2.7137 -3.3675 -2.0019 0.9811
3.0581 -3.0581 -2.0019 0.9811
3.1653 -2.9470 -2.0019 0.9811
3.2684 -2.8321 -2.0019 0.9811
3.3674 -2.7137 -2.0019 0.9811
3.4621 -2.5917 -2.0019 0.9811
3.6382 -2.3381 -2.0019 0.9811
4.0521 -1.5113 -2.0018 0.9811
4.1904 -1.0695 -2.0018 0.9811
4.2560 -0.7679 -2.0018 0.9811
4.3219 -0.1544 -2.0018 0.9811
-1.1954 0.0000 -0.5864 0.9947
-1.1965 -0.0427 -0.5873 0.9947
-1.1953 -0.0855 -0.5878 0.9947
-1.1921 -0.1282 -0.5881 0.9947
-1.1791 -0.2127 -0.5877 0.9947
-1.1695 -0.2544 -0.5871 0.9947
-1.1578 -0.2955 -0.5861 0.9947
-1.1590 -0.3403 -0.5925 0.9946
-1.1484 -0.4757 -0.6097 0.9945
-1.1400 -0.5206 -0.6148 0.9944
-1.1291 -0.5652 -0.6194 0.9944
-3.4332 -2.2064 -2.0019 0.9820
-3.3523 -2.3275 -2.0019 0.9820
-3.2671 -2.4457 -2.0019 0.9820
-3.0843 -2.6726 -2.0019 0.9820
-2.9869 -2.7810 -2.0019 0.9820
-2.6725 -3.0843 -2.0019 0.9820
-2.4457 -3.2671 -2.0019 0.9820
-2.0825 -3.5098 -2.0019 0.9820
-1.9559 -3.5819 -2.0019 0.9820
-1.8268 -3.6494 -2.0019 0.9820
-1.5618 -3.7705 -2.0019 0.9820
-1.4262 -3.8238 -2.0019 0.9820
-0.7246 -4.0163 -2.0019 0.9820
-0.4363 -4.0577 -2.0019 0.9820
-0.2911 -4.0707 -2.0019 0.9820
-0.1457 -4.0785 -2.0019 0.9820
0.0000 -4.0811 -2.0019 0.9820
0.1457 -4.0785 -2.0019 0.9820
0.2911 -4.0707 -2.0019 0.9820
0.4363 -4.0577 -2.0019 0.9820
0.5808 -4.0396 -2.0019 0.9820
1.0093 -3.9544 -2.0019 0.9820
1.1498 -3.9158 -2.0019 0.9820
1.5618 -3.7705 -2.0019 0.9820
1.6954 -3.7123 -2.0019 0.9820
1.8268 -3.6494 -2.0019 0.9820
1.9559 -3.5819 -2.0019 0.9820
2.0825 -3.5098 -2.0019 0.9820
2.3275 -3.3523 -2.0019 0.9820
2.4457 -3.2671 -2.0019 0.9820
2.5608 -3.1777 -2.0019 0.9820
2.7809 -2.9869 -2.0019 0.9820
2.9869 -2.7809 -2.0019 0.9820
3.3523 -2.3275 -2.0019 0.9820
3.4332 -2.2064 -2.0019 0.9820
3.5098 -2.0824 -2.0019 0.9820
3.7704 -1.5618 -2.0018 0.9820
3.8237 -1.4262 -2.0018 0.9820
3.8722 -1.2888 -2.0018 0.9820
3.9157 -1.1498 -2.0018 0.9820
3.9543 -1.0093 -2.0018 0.9820
4.0395 -0.5808 -2.0018 0.9820
4.0577 -0.4363 -2.0018 0.9820
4.0706 -0.2911 -2.0018 0.9820
-1.1058 0.0000 -0.5737 0.9950
-1.1055 -0.0791 -0.5750 0.9950
-1.0905 -0.1967 -0.5749 0.9950
-1.0704 -0.2732 -0.5731 0.9950
-1.0636 -0.3123 -0.5751 0.9950
-1.0514 -0.4355 -0.5904 0.9949
-1.0298 -0.5155 -0.5974 0.9948
-0.9917 -0.5884 -0.5982 0.9948
-3.2462 -2.0862 -2.0019 0.9828
-3.1697 -2.2008 -2.0019 0.9828
-3.0891 -2.3125 -2.0019 0.9828
-2.9163 -2.5270 -2.0019 0.9828
-2.8242 -2.6295 -2.0019 0.9828
-2.6295 -2.8243 -2.0019 0.9828
-1.8493 -3.3868 -2.0019 0.9828
-1.7273 -3.4507 -2.0019 0.9828
-0.9543 -3.7390 -2.0019 0.9828
-0.6851 -3.7975 -2.0019 0.9828
-0.5492 -3.8196 -2.0019 0.9828
-0.4125 -3.8367 -2.0019 0.9828
-0.1377 -3.8564 -2.0019 0.9828
0.0000 -3.8588 -2.0019 0.9828
0.2753 -3.8490 -2.0019 0.9828
0.5492 -3.8196 -2.0019 0.9828
0.6852 -3.7975 -2.0019 0.9828
0.8203 -3.7706 -2.0019 0.9828
1.0872 -3.7025 -2.0019 0.9828
1.3485 -3.6155 -2.0019 0.9828
1.6030 -3.5101 -2.0019 0.9828
1.7273 -3.4507 -2.0019 0.9828
1.8493 -3.3868 -2.0019 0.9828
2.2008 -3.1697 -2.0019 0.9828
2.5270 -2.9163 -2.0019 0.9828
2.6295 -2.8242 -2.0019 0.9828
2.7286 -2.7286 -2.0019 0.9828
2.9163 -2.5270 -2.0019 0.9828
3.0046 -2.4213 -2.0019 0.9828
3.3868 -1.8493 -2.0019 0.9828
3.4506 -1.7273 -2.0019 0.9828
3.5650 -1.4767 -2.0018 0.9828
3.6155 -1.3485 -2.0018 0.9828
3.6613 -1.2186 -2.0018 0.9828
3.7025 -1.0871 -2.0018 0.9828
3.7974 -0.6851 -2.0018 0.9828
3.8563 -0.1377 -2.0018 0.9828
-1.0276 -0.0367 -0.5632 0.9953
-1.0265 -0.0734 -0.5637 0.9953
-1.0124 -0.1826 -0.5634 0.9953
-0.9677 -0.4008 -0.5737 0.9952
-0.9084 -0.5390 -0.5785 0.9952
-0.8881 -0.5708 -0.5782 0.9952
-0.8661 -0.6014 -0.5775 0.9952
-2.9260 -2.1904 -2.0019 0.9835
-2.8459 -2.2934 -2.0019 0.9835
-2.7623 -2.3935 -2.0019 0.9835
-2.6751 -2.4906 -2.0019 0.9835
-2.5845 -2.5845 -2.0019 0.9835
-2.4906 -2.6751 -2.0019 0.9835
-2.3935 -2.7623 -2.0019 0.9835
-2.1904 -2.9260 -2.0019 0.9835
-2.0846 -3.0023 -2.0019 0.9835
-1.8651 -3.1434 -2.0019 0.9835
-1.3987 -3.3768 -2.0019 0.9835
-1.1543 -3.4680 -2.0019 0.9835
-0.9039 -3.5415 -2.0019 0.9835
-0.6490 -3.5970 -2.0019 0.9835
-0.5202 -3.6179 -2.0019 0.9835
-0.1305 -3.6527 -2.0019 0.9835
0.1305 -3.6527 -2.0019 0.9835
0.2608 -3.6457 -2.0019 0.9835
0.9039 -3.5415 -2.0019 0.9835
1.0297 -3.5070 -2.0019 0.9835
1.5184 -3.3247 -2.0019 0.9835
1.6361 -3.2684 -2.0019 0.9835
2.0846 -3.0023 -2.0019 0.9835
2.1904 -2.9260 -2.0019 0.9835
2.2934 -2.8460 -2.0019 0.9835
2.3935 -2.7623 -2.0019 0.9835
2.5845 -2.5845 -2.0019 0.9835
2.6751 -2.4906 -2.0019 0.9835
2.9260 -2.1904 -2.0019 0.9835
3.0748 -1.9760 -2.0019 0.9835
3.1434 -1.8650 -2.0019 0.9835
3.2079 -1.7517 -2.0019 0.9835
3.2684 -1.6360 -2.0019 0.9835
3.3247 -1.5183 -2.0018 0.9835
3.4245 -1.2773 -2.0018 0.9835
3.6178 -0.5202 -2.0018 0.9835
3.6340 -0.3907 -2.0018 0.9835
3.6457 -0.2607 -2.0018 0.9835
-0.9570 0.0000 -0.5525 0.9956
-0.9575 -0.0342 -0.5532 0.9956
-0.9537 -0.1025 -0.5538 0.9956
-0.9492 -0.1365 -0.5537 0.9956
-0.9430 -0.1701 -0.5532 0.9956
-0.9352 -0.2034 -0.5526 0.9956
-0.9259 -0.2363 -0.5517 0.9956
-0.9057 -0.3015 -0.5511 0.9956
-0.9011 -0.3361 -0.5553 0.9956
-0.8941 -0.3703 -0.5587 0.9955
-0.8823 -0.4029 -0.5600 0.9955
-0.8364 -0.4963 -0.5615 0.9955
-0.7846 -0.5873 -0.5658 0.9955
-2.6204 -2.2706 -2.0019 0.9841
-2.5377 -2.3627 -2.0019 0.9841
-2.3627 -2.5377 -2.0019 0.9841
-2.2706 -2.6205 -2.0019 0.9841
-1.9775 -2.8482 -2.0019 0.9841
-1.8746 -2.9169 -2.0019 0.9841
-1.6617 -3.0432 -2.0019 0.9841
-1.5521 -3.1006 -2.0019 0.9841
-1.4404 -3.1540 -2.0019 0.9841
-0.8575 -3.3597 -2.0019 0.9841
-0.7370 -3.3881 -2.0019 0.9841
-0.6156 -3.4123 -2.0019 0.9841
-0.4935 -3.4321 -2.0019 0.9841
-0.3706 -3.4475 -2.0019 0.9841
-0.1238 -3.4652 -2.0019 0.9841
0.1238 -3.4651 -2.0019 0.9841
0.2474 -3.4585 -2.0019 0.9841
0.3706 -3.4475 -2.0019 0.9841
0.4935 -3.4321 -2.0019 0.9841
0.6156 -3.4123 -2.0019 0.9841
0.7370 -3.3881 -2.0019 0.9841
0.8575 -3.3597 -2.0019 0.9841
0.9769 -3.3269 -2.0019 0.9841
1.0950 -3.2899 -2.0019 0.9841
1.4404 -3.1540 -2.0019 0.9841
1.7693 -2.9820 -2.0019 0.9841
1.9775 -2.8481 -2.0019 0.9841
2.0779 -2.7758 -2.0019 0.9841
2.4518 -2.4518 -2.0019 0.9841
2.5377 -2.3627 -2.0019 0.9841
2.6204 -2.2706 -2.0019 0.9841
2.8481 -1.9775 -2.0019 0.9841
2.9169 -1.8746 -2.0019 0.9841
1.8508 -0.8452 -1.1747 0.9906
1.8620 -0.7713 -1.1636 0.9907
1.8682 -0.6968 -1.1512 0.9908
1.9351 -0.5682 -1.1644 0.9907
1.9616 -0.5007 -1.1688 0.9907
1.9883 -0.4325 -1.1748 0.9906
2.0301 -0.2919 -1.1841 0.9906
2.0366 -0.2190 -1.1826 0.9906
2.0359 -0.1456 -1.1784 0.9906
2.0320 -0.0726 -1.1739 0.9907
