ply
format ascii 1.0
element vertex 754
property float32 x
property float32 y
property float32 z
property float32 I
end_header
-6.1359 4.9447 1.0261 0.9687
-6.1353 4.9441 0.8460 0.9688
-6.1346 4.9436 0.6669 0.9689
-6.1339 4.9430 0.4885 0.9689
-6.1326 4.9420 0.1330 0.9690
-6.1313 4.9409 -0.2218 0.9690
-3.1603 3.1603 -0.5309 0.9822
-3.5452 2.6539 -0.5261 0.9823
-3.6899 2.5620 -0.5336 0.9821
-4.1526 2.4639 -0.5736 0.9807
-3.0179 2.8098 -0.5842 0.9835
-3.0939 2.6809 -0.5800 0.9836
-3.1820 2.5642 -0.5790 0.9836
-3.2911 2.4637 -0.5825 0.9835
-3.5267 2.4486 -0.6083 0.9828
-3.7948 2.4388 -0.6391 0.9819
-4.0830 2.4226 -0.6727 0.9810
-4.8279 2.4167 -0.7650 0.9784
-2.7181 3.1369 -0.6838 0.9833
-3.0340 2.4450 -0.6419 0.9843
-4.0115 2.3802 -0.7684 0.9813
-4.3350 2.3671 -0.8137 0.9802
-5.1706 2.3613 -0.9364 0.9772
-2.5563 3.1722 -0.7658 0.9836
-2.7755 2.5841 -0.7128 0.9847
-3.1881 2.3866 -0.7485 0.9839
-3.4161 2.3718 -0.7817 0.9832
-3.6617 2.3532 -0.8181 0.9824
-4.5659 2.2855 -0.9597 0.9794
-4.9060 2.2405 -1.0137 0.9783
9.4712 0.0000 -2.0020 0.9620
9.4651 0.3381 -2.0020 0.9620
9.4169 1.0124 -2.0020 0.9620
9.3207 1.6816 -2.0020 0.9620
9.2547 2.0133 -2.0020 0.9620
9.0875 2.6683 -2.0020 0.9620
8.8740 3.3098 -2.0020 0.9620
8.6020 3.9284 -1.9989 0.9621
8.3881 4.1988 -1.9828 0.9624
7.5260 4.4654 -1.8498 0.9649
7.1882 4.9909 -1.8498 0.9649
6.8138 5.4909 -1.8498 0.9649
6.6135 5.7306 -1.8498 0.9649
4.9907 7.1880 -1.8497 0.9649
4.4652 7.5257 -1.8497 0.9649
3.6351 7.9598 -1.8497 0.9649
3.3487 8.0845 -1.8497 0.9649
3.0580 8.1989 -1.8497 0.9649
1.8601 8.5505 -1.8497 0.9649
1.2453 8.6613 -1.8497 0.9649
0.6242 8.7281 -1.8496 0.9649
0.3123 8.7448 -1.8496 0.9649
0.0000 8.7503 -1.8496 0.9649
-0.3123 8.7447 -1.8496 0.9649
-0.6242 8.7280 -1.8496 0.9649
-0.9354 8.7001 -1.8496 0.9649
-1.2453 8.6611 -1.8496 0.9649
-1.5536 8.6111 -1.8496 0.9649
-1.8600 8.5502 -1.8496 0.9649
-2.1640 8.4783 -1.8496 0.9649
-2.7633 8.3023 -1.8496 0.9649
-3.0578 8.1983 -1.8496 0.9649
-3.3485 8.0840 -1.8496 0.9649
-3.9166 7.8244 -1.8496 0.9649
-4.4648 7.5250 -1.8496 0.9649
-2.4499 3.0401 -0.8253 0.9842
-2.4980 2.8829 -0.8063 0.9845
-2.7690 2.3993 -0.7745 0.9851
-3.3713 2.3407 -0.8676 0.9834
-3.6091 2.3195 -0.9069 0.9826
-3.8791 2.3016 -0.9534 0.9817
-4.4455 2.2252 -1.0508 0.9799
-4.8154 2.1991 -1.1190 0.9786
-5.6427 2.3373 -1.2910 0.9753
-8.8725 3.3093 -2.0017 0.9620
-8.9849 2.9905 -2.0017 0.9620
-9.0859 2.6679 -2.0017 0.9620
-9.2531 2.0129 -2.0017 0.9620
-9.3190 1.6814 -2.0017 0.9620
-9.3731 1.3477 -2.0017 0.9620
-9.4152 1.0122 -2.0017 0.9620
-9.4454 0.6755 -2.0017 0.9620
-9.4635 0.3380 -2.0017 0.9620
8.5183 0.0000 -2.0020 0.9656
8.4695 0.9106 -2.0020 0.9656
8.4316 1.2123 -2.0020 0.9656
8.3829 1.5125 -2.0020 0.9656
8.1732 2.3999 -2.0020 0.9656
7.9812 2.9768 -2.0020 0.9656
7.7485 3.5386 -2.0020 0.9656
7.6131 3.8109 -2.0009 0.9656
7.4558 4.0712 -1.9965 0.9657
6.6211 4.2551 -1.8498 0.9682
6.4650 4.4888 -1.8498 0.9682
6.3007 4.7166 -1.8498 0.9682
6.1283 4.9385 -1.8498 0.9682
5.9481 5.1541 -1.8497 0.9682
4.9384 6.1282 -1.8497 0.9682
3.7718 6.9076 -1.8497 0.9682
3.5229 7.0378 -1.8497 0.9682
3.2694 7.1591 -1.8497 0.9682
2.7504 7.3740 -1.8497 0.9682
2.4854 7.4675 -1.8497 0.9682
1.9463 7.6257 -1.8497 0.9682
1.6729 7.6903 -1.8497 0.9682
0.8413 7.8250 -1.8497 0.9682
0.0000 7.8700 -1.8496 0.9682
-0.2809 7.8650 -1.8496 0.9682
-0.8413 7.8249 -1.8496 0.9682
-1.1200 7.7898 -1.8496 0.9682
-1.3973 7.7449 -1.8496 0.9682
-1.9463 7.6254 -1.8496 0.9682
-2.2172 7.5511 -1.8496 0.9682
-2.7502 7.3736 -1.8496 0.9682
-3.5226 7.0373 -1.8496 0.9682
-2.2752 3.5402 -0.9890 0.9829
-2.2843 3.2900 -0.9413 0.9837
-2.3635 2.9329 -0.8853 0.9846
-2.4196 2.7923 -0.8684 0.9849
-2.4785 2.6621 -0.8548 0.9852
-2.5393 2.5393 -0.8440 0.9854
-2.9161 2.3500 -0.8802 0.9847
-3.5212 2.2629 -0.9837 0.9829
-3.7332 2.2150 -1.0202 0.9823
-4.3833 2.1941 -1.1520 0.9801
-7.8687 3.2593 -2.0017 0.9656
-8.2524 2.1063 -2.0017 0.9656
-8.3223 1.8104 -2.0017 0.9656
-8.3816 1.5122 -2.0017 0.9656
-8.4303 1.2121 -2.0017 0.9656
-8.4681 0.9104 -2.0017 0.9656
-8.4952 0.6076 -2.0017 0.9656
7.7124 0.5516 -2.0020 0.9686
7.6534 1.1004 -2.0020 0.9686
7.6093 1.3729 -2.0020 0.9686
7.5554 1.6436 -2.0020 0.9686
7.4189 2.1784 -2.0020 0.9686
7.3364 2.4418 -2.0020 0.9686
7.1435 2.9589 -2.0020 0.9686
7.0333 3.2120 -2.0020 0.9686
6.9142 3.4610 -2.0020 0.9686
6.7863 3.7056 -2.0020 0.9686
6.6389 3.9390 -1.9987 0.9686
6.0677 4.2129 -1.9126 0.9699
5.5627 4.4827 -1.8497 0.9709
4.6784 5.3991 -1.8497 0.9709
4.4827 5.5627 -1.8497 0.9709
4.2813 5.7191 -1.8497 0.9709
4.0744 5.8682 -1.8497 0.9709
3.6454 6.1439 -1.8497 0.9709
2.9677 6.4984 -1.8497 0.9709
1.5185 6.9806 -1.8497 0.9709
0.7636 7.1029 -1.8497 0.9709
0.5096 7.1256 -1.8496 0.9709
0.2550 7.1392 -1.8496 0.9709
-0.5096 7.1255 -1.8496 0.9709
-0.7636 7.1027 -1.8496 0.9709
-1.2684 7.0301 -1.8496 0.9709
-1.5185 6.9804 -1.8496 0.9709
-1.7667 6.9217 -1.8496 0.9709
-2.2559 6.7780 -1.8496 0.9709
-1.7465 3.4890 -1.0102 0.9840
-1.8264 3.3449 -0.9867 0.9844
-1.9125 3.2233 -0.9704 0.9846
-1.9999 3.1119 -0.9578 0.9848
-2.0967 3.0198 -0.9519 0.9849
-2.2365 2.9876 -0.9663 0.9847
-2.2897 2.8413 -0.9448 0.9850
-2.5417 2.3664 -0.8991 0.9858
-2.6809 2.1604 -0.8915 0.9859
-3.2273 2.2408 -1.0173 0.9839
-3.4472 2.2154 -1.0610 0.9832
-4.0032 2.1859 -1.1810 0.9813
-4.7674 2.1772 -1.3570 0.9786
-7.2436 2.7017 -2.0017 0.9686
-7.3354 2.4415 -2.0017 0.9686
-7.4179 2.1781 -2.0017 0.9686
-7.4909 1.9119 -2.0017 0.9686
-7.5543 1.6433 -2.0017 0.9686
-7.6523 1.1002 -2.0017 0.9686
-7.6867 0.8264 -2.0017 0.9686
-7.7113 0.5515 -2.0017 0.9686
-7.7261 0.2759 -2.0017 0.9686
7.0718 0.0000 -2.0020 0.9710
6.8521 1.7489 -2.0020 0.9710
6.7853 1.9924 -2.0020 0.9710
6.7099 2.2333 -2.0020 0.9710
6.4327 2.9377 -2.0020 0.9710
6.2067 3.3891 -2.0020 0.9710
6.0818 3.6085 -2.0020 0.9710
5.9454 3.8209 -2.0007 0.9710
5.6104 4.1999 -1.9840 0.9713
5.2308 4.2153 -1.9018 0.9725
4.7822 4.4524 -1.8497 0.9732
4.6202 4.6202 -1.8497 0.9732
4.4524 4.7822 -1.8497 0.9732
4.0998 5.0876 -1.8497 0.9732
3.9156 5.2307 -1.8497 0.9732
3.7264 5.3671 -1.8497 0.9732
3.5325 5.4967 -1.8497 0.9732
2.9247 5.8427 -1.8497 0.9732
2.7143 5.9434 -1.8497 0.9732
2.2833 6.1219 -1.8497 0.9732
2.0634 6.1995 -1.8497 0.9732
1.8408 6.2691 -1.8497 0.9732
1.6158 6.3308 -1.8497 0.9732
1.1601 6.4299 -1.8497 0.9732
0.9298 6.4672 -1.8497 0.9732
0.6984 6.4963 -1.8497 0.9732
0.4661 6.5171 -1.8496 0.9732
-0.9298 6.4671 -1.8496 0.9732
-1.3888 6.3843 -1.8496 0.9732
-1.5970 3.1904 -1.0100 0.9853
-1.6787 3.0742 -0.9916 0.9855
-1.7724 2.9872 -0.9833 0.9857
-1.8663 2.9040 -0.9772 0.9858
-2.0579 2.7490 -0.9721 0.9858
-2.3397 2.5130 -0.9720 0.9858
-2.6362 2.1243 -0.9584 0.9860
-3.1710 2.2017 -1.0929 0.9841
-3.4080 2.1902 -1.1468 0.9833
-3.6730 2.1793 -1.2091 0.9824
-4.8314 2.2064 -1.5036 0.9782
-6.5326 2.7059 -2.0017 0.9710
-6.9093 1.5030 -2.0017 0.9710
-6.9989 1.0063 -2.0017 0.9710
-7.0303 0.7558 -2.0017 0.9710
-7.0528 0.5044 -2.0017 0.9710
6.5088 0.0000 -2.0020 0.9731
6.4715 0.6958 -2.0020 0.9731
6.4425 0.9263 -2.0020 0.9731
6.4054 1.1557 -2.0020 0.9731
6.2451 1.8337 -2.0020 0.9731
6.0984 2.2746 -2.0020 0.9731
6.0133 2.4908 -2.0020 0.9731
5.5976 3.3212 -2.0019 0.9731
5.0540 4.0728 -1.9964 0.9732
3.9382 4.5449 -1.8497 0.9751
3.7735 4.6826 -1.8497 0.9751
3.4298 4.9398 -1.8497 0.9751
2.8821 5.2781 -1.8497 0.9751
2.6918 5.3776 -1.8497 0.9751
2.4982 5.4703 -1.8497 0.9751
2.3013 5.5559 -1.8497 0.9751
1.4872 5.8268 -1.8497 0.9751
0.4290 5.9983 -1.8496 0.9751
0.2146 6.0097 -1.8496 0.9751
-0.2146 6.0097 -1.8496 0.9751
-0.6428 5.9791 -1.8496 0.9751
-0.8558 5.9523 -1.8496 0.9751
-1.2783 5.8760 -1.8496 0.9751
-1.4872 5.8267 -1.8496 0.9751
-1.6942 5.7699 -1.8496 0.9751
-1.8990 5.7057 -1.8496 0.9751
-1.4186 3.1064 -1.0504 0.9858
-1.5838 2.9005 -1.0165 0.9863
-1.7625 2.7425 -1.0027 0.9864
-1.8535 2.6695 -0.9996 0.9865
-2.1249 2.4522 -0.9980 0.9865
-2.3228 2.3228 -1.0104 0.9863
-2.5855 2.2404 -1.0523 0.9858
-2.9391 2.2002 -1.1292 0.9848
-3.3920 2.1799 -1.2402 0.9833
-3.6661 2.1752 -1.3112 0.9823
-3.9866 2.1768 -1.3971 0.9812
-4.3531 2.1790 -1.4973 0.9798
-4.7650 2.1761 -1.6112 0.9783
-6.1750 2.0552 -2.0017 0.9731
-6.2444 1.8335 -2.0017 0.9731
-6.3058 1.6095 -2.0017 0.9731
-6.3593 1.3834 -2.0017 0.9731
-6.4046 1.1555 -2.0017 0.9731
-6.4417 0.9262 -2.0017 0.9731
-6.5038 0.2323 -2.0017 0.9731
6.0226 0.0000 -2.0020 0.9749
6.0188 0.2150 -2.0020 0.9749
5.9881 0.6438 -2.0019 0.9749
5.9613 0.8571 -2.0019 0.9749
5.8355 1.4894 -2.0019 0.9749
5.4783 2.5019 -2.0019 0.9749
5.3855 2.6958 -2.0019 0.9749
5.2859 2.8863 -2.0019 0.9749
5.1795 3.0731 -2.0019 0.9749
4.8213 3.6092 -2.0019 0.9749
4.6882 3.7780 -2.0014 0.9749
4.3951 4.0919 -1.9961 0.9750
4.2021 4.2021 -1.9754 0.9753
3.4916 4.3328 -1.8497 0.9768
3.3347 4.4547 -1.8497 0.9768
2.8394 4.7856 -1.8497 0.9768
2.6668 4.8839 -1.8497 0.9768
1.7573 5.2797 -1.8497 0.9768
0.9880 5.4760 -1.8497 0.9768
0.5948 5.5326 -1.8496 0.9768
0.0000 5.5644 -1.8496 0.9768
-0.3970 5.5502 -1.8496 0.9768
-0.7919 5.5077 -1.8496 0.9768
-1.1828 5.4372 -1.8496 0.9768
-1.3761 5.3915 -1.8496 0.9768
-1.5676 5.3389 -1.8496 0.9768
-1.2013 3.2209 -1.1427 0.9856
-1.4260 2.8488 -1.0590 0.9867
-1.5069 2.7596 -1.0452 0.9868
-1.5910 2.6815 -1.0364 0.9869
-1.6749 2.6062 -1.0298 0.9870
-1.7583 2.5324 -1.0248 0.9871
-1.8424 2.4612 -1.0219 0.9871
-1.9271 2.3914 -1.0209 0.9871
-2.2592 2.2592 -1.0620 0.9866
-2.3809 2.2167 -1.0814 0.9864
-2.7295 2.1996 -1.1652 0.9853
-2.9250 2.1896 -1.2145 0.9847
-3.1449 2.1835 -1.2726 0.9840
-3.3881 2.1774 -1.3387 0.9832
-3.9974 2.1827 -1.5139 0.9810
-4.3482 2.1766 -1.6164 0.9797
-5.5636 2.3045 -2.0017 0.9749
-5.9263 1.0692 -2.0017 0.9749
5.5839 0.3994 -2.0019 0.9765
5.5412 0.7967 -2.0019 0.9765
5.3714 1.5772 -2.0019 0.9765
5.2452 1.9563 -2.0019 0.9765
5.1720 2.1423 -2.0019 0.9765
5.0922 2.3255 -2.0019 0.9765
4.7094 3.0266 -2.0019 0.9765
4.4815 3.3548 -2.0019 0.9765
4.3589 3.5126 -2.0019 0.9765
4.2307 3.6660 -2.0019 0.9765
4.0950 3.8126 -2.0008 0.9765
3.9516 3.9516 -1.9985 0.9765
3.6394 4.2001 -1.9874 0.9767
3.1586 4.2194 -1.8848 0.9779
2.9499 4.2487 -1.8497 0.9783
2.7964 4.3513 -1.8497 0.9783
2.6393 4.4483 -1.8497 0.9783
2.3152 4.6253 -1.8497 0.9783
2.1487 4.7050 -1.8497 0.9783
1.9794 4.7786 -1.8497 0.9783
1.6334 4.9077 -1.8497 0.9783
1.4572 4.9628 -1.8497 0.9783
1.2792 5.0117 -1.8497 0.9783
1.0995 5.0541 -1.8497 0.9783
0.7361 5.1197 -1.8497 0.9783
0.3690 5.1591 -1.8496 0.9783
0.1846 5.1690 -1.8496 0.9783
0.0000 5.1723 -1.8496 0.9783
-1.0994 5.0540 -1.8496 0.9783
-1.2791 5.0115 -1.8496 0.9783
-1.0782 3.2395 -1.2210 0.9856
-1.2894 2.8233 -1.1099 0.9869
-1.4410 2.6390 -1.0752 0.9873
-1.6785 2.4174 -1.0524 0.9876
-1.7739 2.3697 -1.0585 0.9875
-2.0823 2.2365 -1.0928 0.9871
-2.2202 2.2202 -1.1228 0.9868
-2.5389 2.2000 -1.2014 0.9858
-2.7216 2.1932 -1.2500 0.9853
-2.9216 2.1871 -1.3051 0.9846
-3.1441 2.1830 -1.3688 0.9839
-3.3929 2.1805 -1.4423 0.9830
-3.6825 2.1850 -1.5313 0.9820
-3.9781 2.1722 -1.6209 0.9809
-4.3399 2.1724 -1.7355 0.9796
-5.1715 2.1421 -2.0017 0.9765
-5.3111 1.7677 -2.0017 0.9765
-5.4237 1.3843 -2.0017 0.9765
-5.4697 1.1899 -2.0017 0.9765
-5.5086 0.9939 -2.0017 0.9765
-5.5406 0.7966 -2.0017 0.9765
-5.5655 0.5984 -2.0017 0.9765
-5.5940 0.1998 -2.0017 0.9765
5.2240 0.0000 -2.0019 0.9779
5.2107 0.3727 -2.0019 0.9779
5.1941 0.5584 -2.0019 0.9779
5.1410 0.9275 -2.0019 0.9779
5.1046 1.1104 -2.0019 0.9779
5.0124 1.4718 -2.0019 0.9779
4.8946 1.8256 -2.0019 0.9779
4.8263 1.9991 -2.0019 0.9779
4.6714 2.3383 -2.0019 0.9779
4.1820 3.1306 -2.0019 0.9779
4.0676 3.2779 -2.0019 0.9779
3.6939 3.6939 -2.0019 0.9779
3.4154 3.9416 -1.9986 0.9779
2.1605 4.3162 -1.8497 0.9795
1.6868 4.5224 -1.8497 0.9795
1.5243 4.5797 -1.8497 0.9795
1.1937 4.6767 -1.8497 0.9795
0.6869 4.7775 -1.8497 0.9795
0.5159 4.7990 -1.8496 0.9795
0.3443 4.8143 -1.8496 0.9795
-0.3443 4.8143 -1.8496 0.9795
-0.5159 4.7989 -1.8496 0.9795
-0.6869 4.7774 -1.8496 0.9795
-1.1936 4.6766 -1.8496 0.9795
-1.3598 4.6310 -1.8496 0.9795
-1.0542 3.1674 -1.2793 0.9858
-1.0992 2.9470 -1.2053 0.9866
-1.3098 2.6167 -1.1214 0.9875
-1.3811 2.5292 -1.1043 0.9877
-1.4595 2.4599 -1.0961 0.9878
-1.5465 2.4063 -1.0962 0.9878
-1.9340 2.2320 -1.1318 0.9874
-2.0618 2.2145 -1.1595 0.9871
-2.2077 2.2077 -1.1965 0.9867
-2.3657 2.2025 -1.2387 0.9862
-2.5349 2.1965 -1.2854 0.9857
-2.7191 2.1912 -1.3383 0.9852
-2.9229 2.1881 -1.3992 0.9845
-3.1495 2.1867 -1.4693 0.9837
-3.4019 2.1863 -1.5497 0.9828
-4.0035 2.1861 -1.7480 0.9807
-4.6710 2.3381 -2.0018 0.9779
-4.7515 2.1699 -2.0017 0.9779
-4.8942 1.8254 -2.0017 0.9779
-4.9562 1.6496 -2.0017 0.9779
-5.1041 1.1103 -2.0017 0.9779
-5.1405 0.9275 -2.0017 0.9779
-5.2202 0.1864 -2.0017 0.9779
4.8883 0.1746 -2.0019 0.9791
4.8789 0.3489 -2.0019 0.9791
4.8634 0.5229 -2.0019 0.9791
4.8416 0.6961 -2.0019 0.9791
4.8137 0.8685 -2.0019 0.9791
4.7395 1.2097 -2.0019 0.9791
4.6933 1.3781 -2.0019 0.9791
4.5191 1.8719 -2.0019 0.9791
4.4494 2.0320 -2.0019 0.9791
4.2067 2.4959 -2.0019 0.9791
4.1149 2.6445 -2.0019 0.9791
3.5799 3.3331 -2.0019 0.9791
3.4587 3.4587 -2.0019 0.9791
3.3330 3.5799 -2.0019 0.9791
3.2031 3.6966 -2.0019 0.9791
3.0677 3.8067 -2.0009 0.9791
2.9273 3.9104 -1.9992 0.9791
2.4866 4.1909 -1.9944 0.9792
2.2964 4.2056 -1.9612 0.9795
2.1083 4.2119 -1.9277 0.9798
1.9261 4.2176 -1.8976 0.9802
1.7491 4.2227 -1.8706 0.9804
1.2733 4.3363 -1.8497 0.9807
0.9607 4.4161 -1.8497 0.9807
0.6432 4.4733 -1.8496 0.9807
0.4831 4.4934 -1.8496 0.9807
0.0000 4.5193 -1.8496 0.9807
-0.1613 4.5164 -1.8496 0.9807
-0.6432 4.4733 -1.8496 0.9807
-1.0605 2.8434 -1.2421 0.9870
-1.1248 2.7156 -1.2030 0.9874
-1.1907 2.6073 -1.1731 0.9877
-1.3474 2.4675 -1.1506 0.9879
-1.5067 2.3444 -1.1406 0.9880
-1.6887 2.2558 -1.1533 0.9879
-1.7941 2.2263 -1.1702 0.9877
-1.9069 2.2007 -1.1918 0.9875
-2.1927 2.1927 -1.2691 0.9867
-2.3591 2.1964 -1.3192 0.9862
-2.5340 2.1957 -1.3723 0.9856
-2.7210 2.1927 -1.4302 0.9850
-4.3736 2.1893 -2.0018 0.9791
-4.5187 1.8717 -2.0018 0.9791
-4.7390 1.2096 -2.0017 0.9791
-2.1703 0.3916 -0.9026 0.9905
-1.9569 0.2104 -0.8055 0.9915
-1.9524 0.1396 -0.8011 0.9916
-1.9308 0.0690 -0.7907 0.9917
4.5935 0.0000 -2.0019 0.9802
4.5906 0.1640 -2.0019 0.9802
4.5818 0.3277 -2.0019 0.9802
4.5672 0.4910 -2.0019 0.9802
4.4508 1.1360 -2.0019 0.9802
4.3039 1.6053 -2.0019 0.9802
4.1076 2.0561 -2.0019 0.9802
3.9504 2.3439 -2.0019 0.9802
3.8643 2.4834 -2.0019 0.9802
3.7732 2.6198 -2.0019 0.9802
3.6773 2.7528 -2.0019 0.9802
3.5767 2.8823 -2.0019 0.9802
3.3619 3.1301 -2.0019 0.9802
3.1300 3.3619 -2.0019 0.9802
2.7527 3.6772 -2.0019 0.9802
2.4811 3.8606 -2.0000 0.9802
2.0501 4.0955 -1.9960 0.9802
1.9015 4.1637 -1.9949 0.9802
1.7405 4.2020 -1.9822 0.9804
1.5691 4.2068 -1.9568 0.9806
1.4016 4.2110 -1.9342 0.9808
1.2376 4.2148 -1.9144 0.9810
0.7619 4.2232 -1.8703 0.9814
0.6075 4.2251 -1.8603 0.9815
0.4547 4.2292 -1.8538 0.9816
-0.3028 4.2336 -1.8498 0.9817
-0.6076 4.2256 -1.8605 0.9815
-0.7621 4.2239 -1.8705 0.9814
-1.0768 4.2190 -1.8976 0.9812
-1.2379 4.2159 -1.9149 0.9810
-1.0510 2.8180 -1.3108 0.9870
-1.2439 2.4850 -1.2111 0.9879
-1.3195 2.4166 -1.2000 0.9881
-1.3958 2.3525 -1.1921 0.9881
-1.5689 2.2597 -1.1989 0.9881
-1.6680 2.2281 -1.2130 0.9879
-1.7714 2.1982 -1.2303 0.9878
-1.9356 2.2338 -1.2882 0.9872
-2.0439 2.1953 -1.3072 0.9870
-2.7262 2.1969 -1.5259 0.9848
-2.9215 2.1870 -1.5905 0.9842
-3.1477 2.1855 -1.6701 0.9834
-3.4095 2.1912 -1.7663 0.9825
-3.9502 2.3437 -2.0018 0.9802
-4.0313 2.2013 -2.0018 0.9802
-4.1780 1.9081 -2.0018 0.9802
-4.2435 1.7577 -2.0018 0.9802
-1.5875 0.5284 -0.7292 0.9927
-1.5151 0.2178 -0.6671 0.9933
4.3139 0.3085 -2.0019 0.9811
4.2808 0.6155 -2.0019 0.9811
4.2562 0.7679 -2.0019 0.9811
4.1497 1.2185 -2.0019 0.9811
4.1035 1.3658 -2.0019 0.9811
3.9340 1.7966 -2.0019 0.9811
3.8674 1.9359 -2.0019 0.9811
3.6383 2.3382 -2.0019 0.9811
3.4622 2.5918 -2.0019 0.9811
3.3675 2.7137 -2.0019 0.9811
3.1653 2.9470 -2.0019 0.9811
3.0581 3.0581 -2.0019 0.9811
2.9470 3.1653 -2.0019 0.9811
2.8322 3.2685 -2.0019 0.9811
2.7137 3.3675 -2.0019 0.9811
2.3382 3.6382 -2.0019 0.9811
1.9340 3.8636 -1.9999 0.9811
1.6517 3.9875 -1.9978 0.9812
1.0657 4.1753 -1.9947 0.9812
0.7584 4.2034 -1.9771 0.9813
0.6046 4.2054 -1.9666 0.9814
0.4523 4.2070 -1.9586 0.9815
0.3010 4.2081 -1.9528 0.9816
-0.3010 4.2084 -1.9530 0.9816
-0.9140 4.2017 -1.9904 0.9812
-1.0657 4.1753 -1.9946 0.9812
-1.3789 2.3240 -1.2508 0.9882
-1.5542 2.2385 -1.2614 0.9881
-1.7650 2.1902 -1.3020 0.9877
-2.5400 2.2009 -1.5557 0.9853
-2.7115 2.1851 -1.6119 0.9848
-2.9242 2.1890 -1.6908 0.9840
-3.5523 2.4664 -2.0018 0.9811
-3.6380 2.3380 -2.0018 0.9811
-3.7192 2.2067 -2.0018 0.9811
-3.7956 2.0725 -2.0018 0.9811
-3.8671 1.9357 -2.0018 0.9811
-1.3151 0.6006 -0.6692 0.9936
-1.3263 0.5494 -0.6645 0.9937
-1.3324 0.4970 -0.6582 0.9938
-1.3241 0.3888 -0.6388 0.9939
-1.3013 0.2831 -0.6164 0.9941
-1.3160 0.2374 -0.6190 0.9941
-1.3273 0.1908 -0.6207 0.9941
-1.3351 0.1435 -0.6215 0.9941
4.0812 0.0000 -2.0019 0.9820
4.0786 0.1457 -2.0019 0.9820
4.0708 0.2912 -2.0019 0.9820
4.0578 0.4363 -2.0019 0.9820
3.9879 0.8675 -2.0019 0.9820
3.9544 1.0093 -2.0019 0.9820
3.7705 1.5618 -2.0019 0.9820
3.6495 1.8268 -2.0019 0.9820
3.5099 2.0825 -2.0019 0.9820
3.4333 2.2064 -2.0019 0.9820
3.2671 2.4457 -2.0019 0.9820
2.9870 2.7810 -2.0019 0.9820
2.8858 2.8858 -2.0019 0.9820
2.7810 2.9870 -2.0019 0.9820
2.6726 3.0843 -2.0019 0.9820
2.5608 3.1777 -2.0019 0.9820
2.4457 3.2671 -2.0019 0.9820
2.2064 3.4332 -2.0019 0.9820
2.0825 3.5098 -2.0019 0.9820
1.8268 3.6494 -2.0019 0.9820
1.4253 3.8215 -2.0007 0.9820
1.1482 3.9105 -1.9991 0.9820
0.5794 4.0300 -1.9971 0.9820
0.4351 4.0475 -1.9968 0.9820
0.1453 4.0675 -1.9965 0.9820
-0.2904 4.0600 -1.9966 0.9820
-0.4351 4.0474 -1.9968 0.9820
-0.5794 4.0299 -1.9971 0.9820
-0.7230 4.0075 -1.9975 0.9820
-1.0076 3.9477 -1.9985 0.9820
-1.1482 3.9104 -1.9991 0.9820
-0.9947 2.9885 -1.5450 0.9861
-1.0230 2.7428 -1.4359 0.9870
-1.1454 2.5081 -1.3525 0.9878
-1.2138 2.4249 -1.3301 0.9880
-1.4462 2.2503 -1.3121 0.9882
-1.6394 2.1900 -1.3419 0.9879
-2.1176 2.2745 -1.5244 0.9862
-3.4331 2.2063 -2.0018 0.9820
-3.5096 2.0824 -2.0018 0.9820
-1.1113 0.6068 -0.6211 0.9944
-1.1292 0.5652 -0.6194 0.9944
-1.1400 0.5206 -0.6148 0.9944
-1.1484 0.4757 -0.6097 0.9945
-1.1543 0.4306 -0.6043 0.9945
-1.1590 0.3403 -0.5925 0.9946
-1.1578 0.2955 -0.5861 0.9947
-1.1867 0.1706 -0.5881 0.9947
-1.1965 0.0427 -0.5873 0.9947
3.8589 0.0000 -2.0019 0.9828
3.8564 0.1377 -2.0019 0.9828
3.8491 0.2753 -2.0019 0.9828
3.8196 0.5492 -2.0019 0.9828
3.7707 0.8203 -2.0019 0.9828
3.7390 0.9543 -2.0019 0.9828
3.7026 1.0872 -2.0019 0.9828
3.5651 1.4767 -2.0019 0.9828
3.5102 1.6030 -2.0019 0.9828
3.4507 1.7273 -2.0019 0.9828
3.3868 1.8494 -2.0019 0.9828
3.3187 1.9691 -2.0019 0.9828
3.0047 2.4213 -2.0019 0.9828
2.9163 2.5270 -2.0019 0.9828
2.6295 2.8243 -2.0019 0.9828
2.5270 2.9163 -2.0019 0.9828
2.3125 3.0892 -2.0019 0.9828
2.2008 3.1697 -2.0019 0.9828
1.9690 3.3186 -2.0019 0.9828
1.6030 3.5101 -2.0019 0.9828
1.4767 3.5651 -2.0019 0.9828
1.3485 3.6155 -2.0019 0.9828
1.2186 3.6613 -2.0019 0.9828
0.9543 3.7389 -2.0019 0.9828
0.8201 3.7700 -2.0015 0.9828
0.5489 3.8173 -2.0007 0.9828
0.2751 3.8458 -2.0002 0.9828
0.1376 3.8530 -2.0001 0.9828
-0.5488 3.8173 -2.0007 0.9828
-0.8201 3.7699 -2.0015 0.9828
-1.0121 3.0408 -1.6626 0.9857
-1.0170 2.7266 -1.5097 0.9870
-1.0697 2.5825 -1.4502 0.9875
-1.1291 2.4724 -1.4101 0.9878
-1.2735 2.3322 -1.3785 0.9881
-1.3500 2.2754 -1.3725 0.9881
-1.4370 2.2361 -1.3789 0.9881
-1.7658 2.1913 -1.4600 0.9874
-3.0890 2.3124 -2.0018 0.9828
-3.2461 2.0861 -2.0018 0.9828
-0.9917 0.5884 -0.5982 0.9948
-1.0118 0.5525 -0.5981 0.9948
-1.0298 0.5155 -0.5974 0.9948
-1.0430 0.4763 -0.5948 0.9948
-1.0514 0.4355 -0.5904 0.9949
-1.0636 0.3123 -0.5751 0.9950
-1.0704 0.2732 -0.5731 0.9950
-1.0974 0.1578 -0.5752 0.9950
3.6551 0.0000 -2.0019 0.9835
3.6179 0.5202 -2.0019 0.9835
3.5716 0.7769 -2.0019 0.9835
3.4680 1.1543 -2.0019 0.9835
3.3248 1.5184 -2.0019 0.9835
3.0023 2.0846 -2.0019 0.9835
2.9260 2.1904 -2.0019 0.9835
2.8460 2.2934 -2.0019 0.9835
2.7623 2.3936 -2.0019 0.9835
2.6751 2.4906 -2.0019 0.9835
2.5845 2.5845 -2.0019 0.9835
2.4906 2.6751 -2.0019 0.9835
2.3935 2.7623 -2.0019 0.9835
2.1904 2.9260 -2.0019 0.9835
1.8651 3.1434 -2.0019 0.9835
1.6360 3.2684 -2.0019 0.9835
1.5183 3.3247 -2.0019 0.9835
1.3987 3.3768 -2.0019 0.9835
1.2773 3.4246 -2.0019 0.9835
1.1542 3.4680 -2.0019 0.9835
0.7769 3.5715 -2.0019 0.9835
0.6490 3.5969 -2.0018 0.9835
0.3907 3.6340 -2.0018 0.9835
0.2607 3.6457 -2.0018 0.9835
0.0000 3.6550 -2.0018 0.9835
-0.1305 3.6526 -2.0018 0.9835
-0.2607 3.6456 -2.0018 0.9835
-0.5202 3.6177 -2.0018 0.9835
-0.6490 3.5969 -2.0018 0.9835
-0.7769 3.5714 -2.0018 0.9835
-0.9039 3.5414 -2.0018 0.9835
-0.9899 2.9742 -1.7168 0.9858
-1.0374 2.7815 -1.6260 0.9866
-1.0612 2.5619 -1.5188 0.9874
-1.1228 2.4585 -1.4803 0.9877
-1.1893 2.3758 -1.4552 0.9880
-1.4314 2.2272 -1.4501 0.9880
-1.5261 2.1980 -1.4656 0.9879
-1.6397 2.1904 -1.4986 0.9876
-1.7577 2.1812 -1.5343 0.9873
-1.8910 2.1824 -1.5816 0.9869
-2.3518 2.1896 -1.7599 0.9855
-2.7622 2.3934 -2.0018 0.9835
-2.9259 2.1903 -2.0018 0.9835
-0.8661 0.6014 -0.5775 0.9952
-0.8882 0.5708 -0.5782 0.9952
-0.9084 0.5390 -0.5785 0.9952
-0.9269 0.5061 -0.5784 0.9952
-0.9741 0.3633 -0.5694 0.9953
-0.9820 0.2883 -0.5606 0.9953
-0.9938 0.2537 -0.5618 0.9953
-1.0236 0.1101 -0.5639 0.9953
2.0197 0.0000 -1.1661 0.9907
2.0320 0.0726 -1.1739 0.9907
1.9883 0.4325 -1.1748 0.9906
1.9616 0.5007 -1.1688 0.9907
1.8682 0.6968 -1.1512 0.9908
1.8508 0.8452 -1.1747 0.9906
2.9169 1.8746 -2.0019 0.9841
2.7758 2.0779 -2.0019 0.9841
2.6205 2.2706 -2.0019 0.9841
2.5377 2.3627 -2.0019 0.9841
2.4518 2.4518 -2.0019 0.9841
2.3627 2.5377 -2.0019 0.9841
2.0779 2.7758 -2.0019 0.9841
1.8746 2.9169 -2.0019 0.9841
1.7693 2.9820 -2.0019 0.9841
1.6617 3.0432 -2.0019 0.9841
1.5520 3.1006 -2.0019 0.9841
1.4404 3.1540 -2.0019 0.9841
1.2117 3.2487 -2.0019 0.9841
1.0950 3.2899 -2.0019 0.9841
0.9769 3.3269 -2.0019 0.9841
0.1238 3.4651 -2.0018 0.9841
-0.1238 3.4651 -2.0018 0.9841
-0.2474 3.4584 -2.0018 0.9841
-0.7370 3.3880 -2.0018 0.9841
-0.8575 3.3596 -2.0018 0.9841
-0.9768 3.3268 -2.0018 0.9841
-1.1269 2.4676 -1.5662 0.9875
-1.1835 2.3644 -1.5265 0.9879
-1.5211 2.1908 -1.5398 0.9878
-1.6320 2.1800 -1.5722 0.9875
-1.8887 2.1796 -1.6651 0.9868
-2.6203 2.2705 -2.0018 0.9841
-0.8178 0.5256 -0.5613 0.9955
-0.8534 0.4660 -0.5614 0.9955
-0.8687 0.4349 -0.5609 0.9955
-0.8823 0.4029 -0.5600 0.9955
-0.8941 0.3703 -0.5587 0.9955
-0.9151 0.2687 -0.5506 0.9956
-0.9259 0.2363 -0.5517 0.9956
-0.9353 0.2035 -0.5526 0.9956
-0.9430 0.1701 -0.5532 0.9956
-0.9492 0.1365 -0.5536 0.9956
-0.9575 0.0342 -0.5532 0.9956
