ply
format ascii 1.0
element vertex 881
property float32 x
property float32 y
property float32 z
property float32 I
end_header
2.9989 6.5668 1.2729 0.9711
2.4298 6.5146 1.2260 0.9722
2.9918 6.5512 1.1033 0.9713
2.2948 6.8948 1.1132 0.9710
2.9848 6.5358 0.9357 0.9714
2.6382 6.3692 0.8977 0.9726
2.4241 6.4993 0.9033 0.9724
-4.0805 5.0636 0.8468 0.9741
-4.2586 4.9147 0.8468 0.9741
-4.4313 4.7595 0.8468 0.9741
-4.5983 4.5983 0.8468 0.9741
-4.7595 4.4313 0.8468 0.9741
-5.1689 4.1654 0.8645 0.9736
2.9778 6.5205 0.7697 0.9716
2.6352 6.3619 0.7394 0.9727
-4.3169 5.7667 0.7735 0.9714
-4.4463 4.4463 0.6752 0.9750
-4.7767 4.4473 0.7008 0.9741
-5.1337 4.4483 0.7294 0.9730
-5.4875 4.4221 0.7568 0.9720
-6.6341 4.2635 0.8468 0.9688
-7.0329 4.1728 0.8781 0.9676
2.9709 6.5054 0.6054 0.9717
-4.2795 5.7167 0.6045 0.9717
-4.3069 5.3446 0.5811 0.9728
-4.3081 4.9718 0.5569 0.9739
-4.2819 4.5991 0.5319 0.9751
-4.2843 4.2843 0.5129 0.9760
-6.1757 5.7498 0.7143 0.9667
-6.6056 5.7238 0.7399 0.9655
-6.0165 4.5039 0.6362 0.9703
2.9640 6.4904 0.4425 0.9718
2.2869 6.8712 0.4491 0.9714
-4.2795 5.7167 0.4428 0.9718
-7.5874 4.8761 0.5593 0.9645
-7.6157 4.5186 0.5491 0.9651
-4.2795 5.7167 0.2816 0.9718
-4.2827 4.6000 0.2479 0.9752
-5.7709 5.7709 0.3218 0.9679
-6.6502 5.7624 0.3470 0.9654
-7.5874 4.8761 0.3556 0.9645
2.9505 6.4607 0.1200 0.9720
2.6231 6.3329 0.1158 0.9730
2.4102 6.4619 0.1165 0.9728
-4.3231 5.3646 0.1164 0.9728
-4.3242 4.9904 0.1115 0.9739
-4.2827 4.6000 0.1061 0.9752
-6.1998 5.7722 0.1431 0.9667
-6.6631 5.7736 0.1489 0.9653
-7.6306 5.2980 0.1569 0.9635
2.6202 6.3257 -0.0385 0.9730
-4.3231 5.3646 -0.0388 0.9728
-6.6631 5.7736 -0.0496 0.9653
-7.5874 4.8761 -0.0508 0.9646
2.9371 6.4314 -0.1991 0.9721
2.4047 6.4472 -0.1938 0.9728
2.2792 6.8480 -0.2032 0.9715
-4.2795 5.7167 -0.2010 0.9718
-6.1998 5.7722 -0.2385 0.9667
-6.6631 5.7736 -0.2483 0.9653
-7.1665 5.7751 -0.2592 0.9638
-7.6306 5.2980 -0.2616 0.9635
-7.5874 4.8761 -0.2539 0.9646
2.9305 6.4168 -0.3578 0.9721
2.6143 6.3114 -0.3464 0.9730
2.2773 6.8423 -0.3657 0.9715
-4.3231 5.3646 -0.3494 0.9728
-4.2827 4.6000 -0.3187 0.9751
-6.1998 5.7722 -0.4296 0.9666
-7.1665 5.7751 -0.4668 0.9638
-7.6234 5.7068 -0.4829 0.9626
-7.6306 5.2980 -0.4711 0.9635
-7.5874 4.8761 -0.4574 0.9645
7.0046 2.6126 -0.5482 0.9705
6.8735 2.8471 -0.5455 0.9706
6.8036 3.1071 -0.5484 0.9704
6.8513 3.4295 -0.5618 0.9697
2.9238 6.4022 -0.5161 0.9722
2.2754 6.8365 -0.5283 0.9715
-4.2827 4.6000 -0.4608 0.9751
-5.7709 5.7709 -0.5984 0.9678
-7.1665 5.7751 -0.6748 0.9638
-7.6869 5.7543 -0.7041 0.9622
-7.6295 5.2972 -0.6810 0.9634
-7.5874 4.8761 -0.6613 0.9645
8.0015 2.3495 -0.8006 0.9670
7.1758 2.3884 -0.7261 0.9701
6.4404 2.6677 -0.6693 0.9724
6.3157 3.1614 -0.6781 0.9720
2.6083 6.2971 -0.6544 0.9730
-4.3231 5.3646 -0.6614 0.9727
-4.3242 4.9904 -0.6339 0.9738
-4.2827 4.6000 -0.6034 0.9751
-7.1665 5.7751 -0.8836 0.9637
-7.6869 5.7543 -0.9219 0.9621
-7.6306 5.2980 -0.8918 0.9634
6.1579 2.5507 -0.7917 0.9735
6.0753 2.7745 -0.7933 0.9735
6.0599 3.5955 -0.8370 0.9720
2.9105 6.3731 -0.8322 0.9722
2.6053 6.2899 -0.8087 0.9729
2.2715 6.8249 -0.8544 0.9714
-4.2795 5.7167 -0.8482 0.9716
-4.3242 4.9904 -0.7844 0.9738
-7.1665 5.7751 -1.0933 0.9636
-7.6306 5.2980 -1.1035 0.9633
8.5172 2.1739 -1.2455 0.9651
6.7168 2.2356 -1.0030 0.9718
6.2337 2.3251 -0.9427 0.9735
5.6303 2.8183 -0.8921 0.9749
5.5676 3.3034 -0.9173 0.9742
2.9039 6.3586 -0.9904 0.9722
2.3910 6.4104 -0.9694 0.9727
2.2696 6.8191 -1.0183 0.9714
-4.2795 5.7167 -1.0118 0.9716
-4.3242 4.9904 -0.9356 0.9737
-5.7709 5.7709 -1.1564 0.9676
-6.1998 5.7722 -1.2002 0.9664
-7.1665 5.7751 -1.3041 0.9635
6.0366 2.2516 -1.0614 0.9742
5.7569 2.3846 -1.0265 0.9751
5.5680 3.0404 -1.0451 0.9746
5.5869 3.3149 -1.0702 0.9740
5.0423 5.0423 -1.1747 0.9715
2.5994 6.2755 -1.1190 0.9728
2.2677 6.8133 -1.1829 0.9713
-4.2795 5.7167 -1.1763 0.9715
-4.3231 5.3646 -1.1350 0.9725
-4.3242 4.9904 -1.0878 0.9736
-5.5352 5.5352 -1.2896 0.9688
-5.7710 5.3730 -1.2990 0.9685
-6.0767 5.2655 -1.3246 0.9679
-7.6869 5.7544 -1.5818 0.9618
8.4897 2.1669 -1.6469 0.9650
7.3741 2.1652 -1.4446 0.9692
6.0141 2.2432 -1.2065 0.9742
5.6241 2.5685 -1.1621 0.9751
5.5408 3.0255 -1.1866 0.9746
5.5627 3.5749 -1.2429 0.9734
5.2029 4.8441 -1.3362 0.9715
3.8126 5.4911 -1.2565 0.9732
3.8965 7.7841 -1.6362 0.9652
2.8905 6.3294 -1.3079 0.9721
2.5964 6.2682 -1.2752 0.9728
2.2657 6.8074 -1.3485 0.9712
-4.2795 5.7167 -1.3422 0.9714
-4.2747 5.3046 -1.2805 0.9727
-4.2827 4.6000 -1.1814 0.9747
9.4640 0.3380 -2.0018 0.9620
9.4459 0.6756 -2.0018 0.9620
9.4157 1.0123 -2.0018 0.9620
9.3195 1.6814 -2.0018 0.9620
7.3534 2.1592 -1.6200 0.9692
6.5792 2.1898 -1.4657 0.9720
5.9957 2.2363 -1.3527 0.9742
5.6616 2.3451 -1.2953 0.9753
5.4880 2.7471 -1.2973 0.9752
5.4742 3.2480 -1.3455 0.9743
7.1874 4.9903 -1.8496 0.9649
7.0047 5.2437 -1.8496 0.9649
6.8131 5.4903 -1.8496 0.9649
6.6128 5.7300 -1.8496 0.9649
5.1854 4.8278 -1.4976 0.9714
5.7300 6.6128 -1.8496 0.9649
5.2437 7.0047 -1.8496 0.9649
2.3826 6.3880 -1.4412 0.9725
2.2637 6.8015 -1.5152 0.9711
2.2848 7.7811 -1.7142 0.9674
1.5334 6.0077 -1.3106 0.9750
1.5577 7.1606 -1.5490 0.9705
1.5536 8.6111 -1.8496 0.9649
0.6242 8.7278 -1.8496 0.9649
-0.6242 8.7279 -1.8496 0.9649
-1.5536 8.6112 -1.8496 0.9649
-1.8600 8.5503 -1.8496 0.9649
-2.1640 8.4784 -1.8496 0.9649
-2.7633 8.3025 -1.8496 0.9649
-3.0579 8.1986 -1.8496 0.9649
-4.1936 7.6800 -1.8496 0.9649
-4.4650 7.5254 -1.8496 0.9649
-4.7308 7.3613 -1.8497 0.9649
-4.2795 5.7167 -1.5094 0.9712
-5.4906 6.8134 -1.8497 0.9649
-5.3720 5.7699 -1.6664 0.9683
-6.6131 5.7303 -1.8497 0.9649
-6.8135 5.4907 -1.8497 0.9649
-8.7497 3.6242 -2.0019 0.9620
-8.8735 3.3096 -2.0019 0.9620
-9.0870 2.6682 -2.0019 0.9620
-9.1765 2.3422 -2.0019 0.9620
-9.2542 2.0131 -2.0019 0.9620
-9.3743 1.3478 -2.0019 0.9620
-9.4164 1.0124 -2.0019 0.9620
-9.4647 0.3380 -2.0019 0.9620
8.5119 0.3040 -2.0018 0.9656
8.4957 0.6076 -2.0018 0.9656
8.4685 0.9105 -2.0018 0.9656
8.3227 1.8105 -2.0018 0.9656
5.9525 2.2202 -1.4931 0.9742
5.6725 2.3496 -1.4430 0.9751
5.4771 3.2497 -1.4968 0.9742
5.5443 3.5631 -1.5489 0.9733
6.4644 4.4883 -1.8496 0.9682
5.3626 5.7599 -1.8496 0.9682
4.9380 6.1278 -1.8496 0.9682
3.8126 5.4911 -1.5711 0.9729
2.7621 5.5180 -1.4503 0.9750
2.5140 5.5047 -1.4223 0.9754
2.2898 5.5280 -1.4063 0.9757
2.0636 5.5328 -1.3878 0.9760
1.8430 5.5374 -1.3716 0.9763
1.6273 5.5420 -1.3575 0.9765
1.5334 6.0077 -1.4572 0.9748
1.1200 7.7898 -1.8496 0.9682
0.2809 7.8649 -1.8496 0.9682
-0.0000 7.8699 -1.8496 0.9682
-0.5614 7.8499 -1.8496 0.9682
-0.8413 7.8248 -1.8496 0.9682
-1.1200 7.7898 -1.8496 0.9682
-1.3973 7.7449 -1.8496 0.9682
-2.2172 7.5512 -1.8496 0.9682
-2.7503 7.3738 -1.8496 0.9682
-3.2693 7.1588 -1.8496 0.9682
-3.5228 7.0376 -1.8496 0.9682
-4.2549 6.6207 -1.8496 0.9682
-4.4885 6.4647 -1.8497 0.9682
-4.2795 5.7167 -1.6783 0.9711
-5.3629 5.7601 -1.8497 0.9682
-5.5650 5.5650 -1.8497 0.9682
-5.9479 5.1539 -1.8497 0.9682
-6.1280 4.9383 -1.8497 0.9682
-6.4647 4.4885 -1.8497 0.9682
-7.1572 4.2465 -1.9559 0.9664
-7.6155 3.8121 -2.0015 0.9656
-7.8695 3.2597 -2.0019 0.9656
-7.9808 2.9767 -2.0019 0.9656
-8.0820 2.6900 -2.0019 0.9656
-8.1729 2.3998 -2.0019 0.9656
-8.2533 2.1065 -2.0019 0.9656
-8.3232 1.8106 -2.0019 0.9656
-8.4312 1.2122 -2.0019 0.9656
-8.4962 0.6077 -2.0019 0.9656
7.7117 0.5516 -2.0018 0.9686
7.6526 1.1003 -2.0018 0.9686
7.6085 1.3727 -2.0018 0.9686
7.5546 1.6434 -2.0018 0.9686
7.4912 1.9120 -2.0018 0.9686
5.9579 2.2222 -1.6464 0.9741
5.4949 3.0005 -1.6210 0.9745
5.5622 4.4823 -1.8496 0.9709
5.3987 4.6780 -1.8496 0.9709
5.1504 4.7952 -1.8220 0.9713
4.8677 5.2283 -1.8496 0.9709
4.4823 5.5623 -1.8496 0.9709
4.2810 5.7187 -1.8496 0.9709
3.5357 5.5017 -1.6933 0.9733
3.2677 5.5074 -1.6581 0.9739
2.7621 5.5180 -1.5977 0.9748
2.5223 5.5231 -1.5721 0.9752
2.0636 5.5328 -1.5289 0.9759
1.8430 5.5374 -1.5111 0.9762
1.5334 6.0077 -1.6054 0.9747
1.4345 6.5942 -1.7473 0.9725
1.0166 7.0709 -1.8496 0.9709
0.7636 7.1027 -1.8496 0.9709
-0.2550 7.1391 -1.8496 0.9709
-0.5096 7.1255 -1.8496 0.9709
-0.7636 7.1027 -1.8496 0.9709
-1.2684 7.0302 -1.8496 0.9709
-2.0126 6.8543 -1.8496 0.9709
-2.9676 6.4982 -1.8496 0.9709
-3.1977 6.3881 -1.8496 0.9709
-4.0743 5.8681 -1.8497 0.9709
-4.4825 5.5625 -1.8497 0.9709
-4.6782 5.3989 -1.8497 0.9709
-5.0515 5.0514 -1.8497 0.9709
-5.2285 4.8679 -1.8497 0.9709
-5.7189 4.2812 -1.8497 0.9709
-6.4834 4.1667 -1.9955 0.9687
-6.6408 3.9402 -1.9993 0.9686
-6.7860 3.7054 -2.0019 0.9686
-7.1432 2.9588 -2.0019 0.9686
-7.3361 2.4417 -2.0019 0.9686
-7.5551 1.6435 -2.0019 0.9686
-7.6531 1.1004 -2.0019 0.9686
-7.6875 0.8265 -2.0019 0.9686
-7.7269 0.2760 -2.0019 0.9686
7.0531 0.5045 -2.0018 0.9710
7.0306 0.7559 -2.0018 0.9710
6.9992 1.0063 -2.0018 0.9710
6.9588 1.2555 -2.0018 0.9710
6.9095 1.5031 -2.0018 0.9710
6.8515 1.7487 -2.0018 0.9710
6.2803 2.3425 -1.8976 0.9725
6.4321 2.9375 -2.0018 0.9710
6.3232 3.1652 -2.0018 0.9710
6.2062 3.3888 -2.0018 0.9710
5.9448 3.8205 -2.0005 0.9711
5.7947 4.0233 -1.9971 0.9711
5.2293 4.2140 -1.9012 0.9725
4.7818 4.4521 -1.8496 0.9732
4.6199 4.6199 -1.8496 0.9732
4.4520 4.7818 -1.8496 0.9732
4.0996 5.0873 -1.8496 0.9732
3.7262 5.3668 -1.8496 0.9732
3.2133 5.4158 -1.7827 0.9742
2.4879 5.4477 -1.6954 0.9754
2.2897 5.5279 -1.6938 0.9754
2.0636 5.5328 -1.6717 0.9758
1.8430 5.5374 -1.6522 0.9760
1.6273 5.5420 -1.6351 0.9763
1.4797 5.7975 -1.6939 0.9754
1.3888 6.3843 -1.8496 0.9732
0.6984 6.4962 -1.8496 0.9732
0.4661 6.5170 -1.8496 0.9732
0.2332 6.5294 -1.8496 0.9732
0.0000 6.5336 -1.8496 0.9732
-0.2332 6.5295 -1.8496 0.9732
-0.4661 6.5170 -1.8496 0.9732
-0.9298 6.4671 -1.8496 0.9732
-1.1601 6.4298 -1.8496 0.9732
-1.3888 6.3843 -1.8496 0.9732
-1.6158 6.3307 -1.8496 0.9732
-1.8407 6.2690 -1.8496 0.9732
-2.0633 6.1993 -1.8496 0.9732
-2.9246 5.8426 -1.8496 0.9732
-3.1313 5.7345 -1.8496 0.9732
-3.3340 5.6191 -1.8496 0.9732
-3.5324 5.4965 -1.8496 0.9732
-3.7263 5.3669 -1.8497 0.9732
-3.9155 5.2305 -1.8497 0.9732
-4.0997 5.0874 -1.8497 0.9732
-4.2787 4.9379 -1.8497 0.9732
-4.4522 4.7820 -1.8497 0.9732
-4.6201 4.6201 -1.8497 0.9732
-4.9379 4.2787 -1.8497 0.9732
-5.2707 4.2474 -1.9163 0.9723
-5.7968 4.0248 -1.9978 0.9711
-6.3235 3.1653 -2.0019 0.9710
-6.4324 2.9376 -2.0019 0.9710
-6.5332 2.7061 -2.0019 0.9710
-6.7850 1.9923 -2.0019 0.9710
-6.8518 1.7488 -2.0019 0.9710
-6.9591 1.2556 -2.0019 0.9710
-6.9995 1.0064 -2.0019 0.9710
-7.0310 0.7559 -2.0019 0.9710
-7.0535 0.5045 -2.0019 0.9710
-7.0670 0.2524 -2.0019 0.9710
6.5083 0.0000 -2.0018 0.9731
6.4917 0.4643 -2.0018 0.9731
6.4420 0.9262 -2.0018 0.9731
6.3061 1.6095 -2.0018 0.9731
6.2446 1.8336 -2.0018 0.9731
6.0979 2.2744 -2.0018 0.9731
6.0128 2.4906 -2.0018 0.9731
5.8198 2.9132 -2.0018 0.9731
5.7121 3.1191 -2.0018 0.9731
5.3460 3.7118 -2.0018 0.9731
5.0536 4.0725 -1.9963 0.9732
4.5284 4.2161 -1.9031 0.9744
4.2544 4.2544 -1.8506 0.9751
3.7732 4.6823 -1.8496 0.9751
3.4296 4.9396 -1.8496 0.9751
3.2511 5.0588 -1.8496 0.9751
3.0685 5.1716 -1.8496 0.9751
2.8819 5.2779 -1.8496 0.9751
2.4804 5.4313 -1.8365 0.9753
2.0293 5.4408 -1.7861 0.9760
1.6002 5.4498 -1.7470 0.9765
1.4121 5.5325 -1.7562 0.9764
1.2783 5.8760 -1.8496 0.9751
0.6428 5.9790 -1.8496 0.9751
-0.2146 6.0097 -1.8496 0.9751
-0.8558 5.9523 -1.8496 0.9751
-1.0677 5.9180 -1.8496 0.9751
-1.2783 5.8761 -1.8496 0.9751
-1.8991 5.7058 -1.8496 0.9751
-2.1015 5.6344 -1.8496 0.9751
-2.6918 5.3775 -1.8496 0.9751
-2.8820 5.2780 -1.8496 0.9751
-3.0685 5.1718 -1.8496 0.9751
-3.2512 5.0589 -1.8496 0.9751
-3.9381 4.5448 -1.8497 0.9751
-4.1063 4.4105 -1.8535 0.9751
-4.8849 4.2328 -1.9881 0.9733
-5.3462 3.7119 -2.0019 0.9731
-5.8201 2.9133 -2.0019 0.9731
-6.0131 2.4907 -2.0019 0.9731
-6.1755 2.0554 -2.0019 0.9731
-6.2449 1.8337 -2.0019 0.9731
-6.4713 0.6957 -2.0019 0.9731
-6.5044 0.2323 -2.0019 0.9731
6.0222 -0.0000 -2.0018 0.9749
5.9609 0.8570 -2.0018 0.9749
5.9265 1.0693 -2.0018 0.9749
5.8351 1.4893 -2.0018 0.9749
5.6424 2.1045 -2.0018 0.9749
5.5637 2.3046 -2.0018 0.9749
5.3852 2.6956 -2.0018 0.9749
5.0661 3.2558 -2.0018 0.9749
4.9467 3.4346 -2.0018 0.9749
4.5440 3.9374 -1.9986 0.9750
4.3948 4.0917 -1.9960 0.9750
4.2037 4.2037 -1.9761 0.9753
3.1734 4.5706 -1.8496 0.9768
3.0083 4.6810 -1.8496 0.9768
2.6667 4.8837 -1.8496 0.9768
2.3115 5.0615 -1.8496 0.9768
1.9445 5.2135 -1.8496 0.9768
1.7572 5.2796 -1.8496 0.9768
1.3761 5.3915 -1.8496 0.9768
1.1828 5.4372 -1.8496 0.9768
0.7919 5.5077 -1.8496 0.9768
0.5948 5.5325 -1.8496 0.9768
0.3970 5.5502 -1.8496 0.9768
-0.1986 5.5608 -1.8496 0.9768
-0.5948 5.5325 -1.8496 0.9768
-0.7919 5.5077 -1.8496 0.9768
-1.1828 5.4372 -1.8496 0.9768
-1.3761 5.3915 -1.8496 0.9768
-1.7572 5.2796 -1.8496 0.9768
-1.9445 5.2136 -1.8496 0.9768
-2.1294 5.1408 -1.8496 0.9768
-2.4907 4.9758 -1.8496 0.9768
-2.6667 4.8838 -1.8496 0.9768
-3.1735 4.5707 -1.8497 0.9768
-3.3346 4.4546 -1.8497 0.9768
-3.4915 4.3327 -1.8497 0.9768
-4.3961 4.0929 -1.9966 0.9750
-4.5453 3.9385 -1.9992 0.9750
-4.6893 3.7788 -2.0019 0.9749
-4.9469 3.4347 -2.0019 0.9749
-5.0663 3.2559 -2.0019 0.9749
-5.1793 3.0731 -2.0019 0.9749
-5.7142 1.9019 -2.0019 0.9749
-5.7785 1.6967 -2.0019 0.9749
-5.8353 1.4894 -2.0019 0.9749
-5.8848 1.2802 -2.0019 0.9749
-5.9267 1.0693 -2.0019 0.9749
-5.9611 0.8571 -2.0019 0.9749
-5.9879 0.6438 -2.0019 0.9749
-6.0071 0.4296 -2.0019 0.9749
-6.0186 0.2150 -2.0019 0.9749
5.5978 0.0000 -2.0018 0.9765
5.5942 0.1998 -2.0018 0.9765
5.5835 0.3993 -2.0018 0.9765
5.5408 0.7967 -2.0018 0.9765
5.5088 0.9939 -2.0018 0.9765
5.4698 1.1899 -2.0018 0.9765
5.3113 1.7678 -2.0018 0.9765
5.1717 2.1422 -2.0018 0.9765
5.0919 2.3254 -2.0018 0.9765
4.8141 2.8564 -2.0018 0.9765
4.7091 3.0264 -2.0018 0.9765
4.5981 3.1925 -2.0018 0.9765
4.4812 3.3546 -2.0018 0.9765
4.3586 3.5124 -2.0018 0.9765
4.2305 3.6657 -2.0018 0.9765
4.0948 3.8124 -2.0008 0.9765
3.9515 3.9515 -1.9984 0.9765
3.8036 4.0854 -1.9961 0.9766
3.3959 4.2140 -1.9354 0.9773
2.4788 4.5395 -1.8496 0.9783
1.4572 4.9627 -1.8496 0.9783
1.0994 5.0540 -1.8496 0.9783
0.7361 5.1196 -1.8496 0.9783
0.5529 5.1426 -1.8496 0.9783
0.0000 5.1722 -1.8496 0.9783
-0.3690 5.1591 -1.8496 0.9783
-0.7361 5.1196 -1.8496 0.9783
-1.0995 5.0540 -1.8496 0.9783
-1.4572 4.9627 -1.8496 0.9783
-1.6334 4.9076 -1.8496 0.9783
-1.8075 4.8462 -1.8496 0.9783
-2.3152 4.6252 -1.8496 0.9783
-2.4788 4.5396 -1.8496 0.9783
-2.6393 4.4482 -1.8496 0.9783
-3.4133 4.2356 -1.9453 0.9772
-3.6523 4.2150 -1.9944 0.9766
-3.8046 4.0864 -1.9966 0.9766
-3.9525 3.9525 -1.9989 0.9765
-4.2306 3.6659 -2.0019 0.9765
-4.4814 3.3547 -2.0019 0.9765
-4.5983 3.1927 -2.0019 0.9765
-4.7093 3.0265 -2.0019 0.9765
-4.8143 2.8565 -2.0019 0.9765
-5.0058 2.5057 -2.0019 0.9765
-5.2450 1.9563 -2.0019 0.9765
-5.3115 1.7678 -2.0019 0.9765
-5.4241 1.3844 -2.0019 0.9765
-5.4701 1.1899 -2.0019 0.9765
-5.5659 0.5984 -2.0019 0.9765
-5.5945 0.1998 -2.0019 0.9765
5.2203 0.1864 -2.0018 0.9779
5.0121 1.4717 -2.0018 0.9779
4.8260 1.9990 -2.0018 0.9779
4.7516 2.1700 -2.0018 0.9779
4.6711 2.3382 -2.0018 0.9779
4.5847 2.5034 -2.0018 0.9779
4.4924 2.6655 -2.0018 0.9779
4.2908 2.9792 -2.0018 0.9779
4.0674 3.2777 -2.0018 0.9779
3.9478 3.4208 -2.0018 0.9779
3.8232 3.5595 -2.0018 0.9779
3.5574 3.8210 -2.0006 0.9779
3.4153 3.9415 -1.9986 0.9779
2.9233 4.2103 -1.9642 0.9783
2.7113 4.2189 -1.9218 0.9787
2.0060 4.3924 -1.8505 0.9795
1.8470 4.4591 -1.8496 0.9795
1.6867 4.5222 -1.8496 0.9795
1.5242 4.5795 -1.8496 0.9795
1.1936 4.6766 -1.8496 0.9795
1.0260 4.7162 -1.8496 0.9795
0.8570 4.7499 -1.8496 0.9795
0.5159 4.7989 -1.8496 0.9795
0.1723 4.8235 -1.8496 0.9795
-0.0000 4.8266 -1.8496 0.9795
-0.6869 4.7774 -1.8496 0.9795
-1.0260 4.7163 -1.8496 0.9795
-1.1937 4.6767 -1.8496 0.9795
-1.3598 4.6311 -1.8496 0.9795
-1.5242 4.5796 -1.8496 0.9795
-1.6867 4.5223 -1.8496 0.9795
-2.9361 4.2289 -1.9729 0.9782
-3.4161 3.9423 -1.9991 0.9779
-3.6938 3.6938 -2.0019 0.9779
-3.8233 3.5596 -2.0019 0.9779
-3.9479 3.4209 -2.0019 0.9779
-4.1819 3.1305 -2.0019 0.9779
-4.4926 2.6656 -2.0019 0.9779
-4.6713 2.3383 -2.0019 0.9779
-4.8945 1.8255 -2.0019 0.9779
-5.0123 1.4717 -2.0019 0.9779
-5.0616 1.2919 -2.0019 0.9779
-5.1045 1.1104 -2.0019 0.9779
-5.1409 0.9275 -2.0019 0.9779
-5.1707 0.7434 -2.0019 0.9779
-5.1940 0.5584 -2.0019 0.9779
-5.2106 0.3727 -2.0019 0.9779
4.8911 -0.0000 -2.0018 0.9791
4.8880 0.1746 -2.0018 0.9791
4.8786 0.3489 -2.0018 0.9791
4.8134 0.8684 -2.0018 0.9791
4.7392 1.2096 -2.0018 0.9791
4.6930 1.3780 -2.0018 0.9791
4.6408 1.5446 -2.0018 0.9791
4.5188 1.8717 -2.0018 0.9791
4.4491 2.0318 -2.0018 0.9791
4.2928 2.3441 -2.0018 0.9791
4.2064 2.4958 -2.0018 0.9791
3.9155 2.9311 -2.0018 0.9791
3.8084 3.0690 -2.0018 0.9791
2.4866 4.1910 -1.9944 0.9792
2.1120 4.2192 -1.9311 0.9798
1.7525 4.2310 -1.8743 0.9804
1.5814 4.2399 -1.8521 0.9806
1.2732 4.3362 -1.8496 0.9807
0.9606 4.4160 -1.8496 0.9807
0.8024 4.4475 -1.8496 0.9807
0.3224 4.5077 -1.8496 0.9807
-0.3224 4.5078 -1.8496 0.9807
-0.6432 4.4733 -1.8496 0.9807
-0.8024 4.4475 -1.8496 0.9807
-1.2732 4.3362 -1.8496 0.9807
-1.4272 4.2880 -1.8496 0.9807
-1.7572 4.2421 -1.8793 0.9804
-1.9353 4.2377 -1.9067 0.9801
-2.3081 4.2270 -1.9711 0.9794
-2.6370 4.1033 -1.9963 0.9791
-3.2031 3.6965 -2.0019 0.9791
-3.3330 3.5798 -2.0019 0.9791
-3.4586 3.4586 -2.0019 0.9791
-3.5799 3.3330 -2.0019 0.9791
-3.6965 3.2031 -2.0019 0.9791
-3.8085 3.0691 -2.0019 0.9791
-3.9156 2.9312 -2.0019 0.9791
-4.0178 2.7896 -2.0019 0.9791
-4.5829 1.7093 -2.0019 0.9791
-4.6410 1.5447 -2.0019 0.9791
-4.6931 1.3780 -2.0019 0.9791
-4.7393 1.2096 -2.0019 0.9791
-4.7795 1.0397 -2.0019 0.9791
-2.1703 0.3916 -0.9026 0.9905
-1.9449 0.2796 -0.8042 0.9915
-1.9569 0.2104 -0.8055 0.9915
-1.9524 0.1396 -0.8011 0.9916
4.5932 0.0000 -2.0018 0.9802
4.5903 0.1639 -2.0018 0.9802
4.5815 0.3277 -2.0018 0.9802
4.5669 0.4910 -2.0018 0.9802
4.5465 0.6537 -2.0018 0.9802
4.3036 1.6052 -2.0018 0.9802
4.2436 1.7578 -2.0018 0.9802
4.1781 1.9081 -2.0018 0.9802
4.0314 2.2013 -2.0018 0.9802
3.9502 2.3438 -2.0018 0.9802
3.7730 2.6196 -2.0018 0.9802
3.6771 2.7526 -2.0018 0.9802
3.5765 2.8821 -2.0018 0.9802
3.4713 3.0079 -2.0018 0.9802
3.0079 3.4713 -2.0018 0.9802
2.6193 3.7725 -2.0015 0.9802
2.1964 4.0223 -1.9973 0.9802
2.0501 4.0956 -1.9961 0.9802
1.7440 4.2103 -1.9861 0.9803
1.5723 4.2156 -1.9609 0.9806
1.0792 4.2282 -1.9018 0.9811
0.9205 4.2315 -1.8873 0.9813
0.7639 4.2342 -1.8751 0.9814
0.6091 4.2366 -1.8654 0.9815
0.4557 4.2385 -1.8579 0.9816
0.3034 4.2427 -1.8537 0.9816
-0.1517 4.2462 -1.8517 0.9816
-0.4560 4.2414 -1.8591 0.9816
-0.7648 4.2391 -1.8773 0.9814
-1.2428 4.2324 -1.9224 0.9809
-1.4076 4.2292 -1.9426 0.9807
-1.5760 4.2256 -1.9655 0.9805
-1.9018 4.1643 -1.9952 0.9802
-2.1967 4.0229 -1.9976 0.9802
-2.6197 3.7731 -2.0019 0.9802
-2.7527 3.6771 -2.0019 0.9802
-3.1300 3.3618 -2.0019 0.9802
-3.7731 2.6197 -2.0019 0.9802
-4.1783 1.9082 -2.0019 0.9802
-1.5984 0.5962 -0.7435 0.9926
-1.5875 0.5284 -0.7292 0.9927
-1.5485 0.3952 -0.6965 0.9931
-1.5214 0.3310 -0.6786 0.9932
-1.5001 0.2707 -0.6643 0.9934
-1.5151 0.2178 -0.6671 0.9933
4.3246 0.0000 -2.0018 0.9811
4.3219 0.1544 -2.0018 0.9811
4.3136 0.3085 -2.0018 0.9811
4.2999 0.4623 -2.0018 0.9811
4.2559 0.7679 -2.0018 0.9811
4.2258 0.9193 -2.0018 0.9811
4.1903 1.0695 -2.0018 0.9811
4.1495 1.2184 -2.0018 0.9811
4.1033 1.3657 -2.0018 0.9811
4.0520 1.5113 -2.0018 0.9811
3.9954 1.6550 -2.0018 0.9811
3.9338 1.7965 -2.0018 0.9811
3.6381 2.3381 -2.0018 0.9811
3.1652 2.9469 -2.0018 0.9811
2.9469 3.1652 -2.0018 0.9811
2.7136 3.3673 -2.0018 0.9811
2.5917 3.4621 -2.0018 0.9811
2.4665 3.5523 -2.0018 0.9811
2.3381 3.6381 -2.0018 0.9811
2.0719 3.7945 -2.0012 0.9811
1.2145 4.1363 -1.9955 0.9812
0.9158 4.2098 -1.9942 0.9812
0.6063 4.2169 -1.9720 0.9814
0.0000 4.2222 -1.9544 0.9816
-0.3020 4.2223 -1.9594 0.9815
-0.4539 4.2217 -1.9654 0.9815
-0.9158 4.2101 -1.9943 0.9812
-1.0658 4.1759 -1.9949 0.9812
-1.3620 4.0922 -1.9964 0.9812
-1.5078 4.0427 -1.9972 0.9812
-1.6519 3.9882 -1.9982 0.9812
-2.3381 3.6382 -2.0018 0.9811
-2.4665 3.5524 -2.0018 0.9811
-2.7136 3.3674 -2.0019 0.9811
-2.8321 3.2684 -2.0019 0.9811
-2.9469 3.1653 -2.0019 0.9811
-3.0580 3.0581 -2.0019 0.9811
-3.1652 2.9470 -2.0019 0.9811
-3.2684 2.8321 -2.0019 0.9811
-3.3674 2.7137 -2.0019 0.9811
-3.4621 2.5917 -2.0019 0.9811
-3.5524 2.4665 -2.0019 0.9811
-3.6382 2.3381 -2.0019 0.9811
-3.7194 2.2068 -2.0019 0.9811
-3.8673 1.9358 -2.0019 0.9811
-1.3241 0.3888 -0.6388 0.9939
-1.3116 0.3348 -0.6266 0.9941
-1.3376 0.0478 -0.6195 0.9941
4.0706 0.2911 -2.0018 0.9820
4.0576 0.4362 -2.0018 0.9820
3.9542 1.0093 -2.0018 0.9820
3.9157 1.1498 -2.0018 0.9820
3.8721 1.2888 -2.0018 0.9820
3.8237 1.4262 -2.0018 0.9820
3.7122 1.6953 -2.0018 0.9820
3.5818 1.9558 -2.0018 0.9820
3.4331 2.2063 -2.0018 0.9820
3.3522 2.3275 -2.0018 0.9820
3.2670 2.4456 -2.0018 0.9820
2.9868 2.7809 -2.0018 0.9820
2.8857 2.8857 -2.0018 0.9820
2.6725 3.0842 -2.0018 0.9820
2.5607 3.1776 -2.0018 0.9820
2.3275 3.3522 -2.0018 0.9820
2.2064 3.4331 -2.0018 0.9820
2.0824 3.5097 -2.0018 0.9820
1.6953 3.7122 -2.0018 0.9820
1.5616 3.7700 -2.0016 0.9820
1.2876 3.8686 -2.0000 0.9820
1.1483 3.9107 -1.9993 0.9820
1.0077 3.9480 -1.9987 0.9820
0.8659 3.9804 -1.9981 0.9820
0.7231 4.0078 -1.9977 0.9820
0.4352 4.0479 -1.9970 0.9820
0.1453 4.0679 -1.9967 0.9820
-0.0000 4.0705 -1.9967 0.9820
-0.2904 4.0605 -1.9968 0.9820
-0.4352 4.0480 -1.9971 0.9820
-0.7231 4.0080 -1.9978 0.9820
-0.8659 3.9806 -1.9982 0.9820
-1.0077 3.9482 -1.9988 0.9820
-1.2877 3.8689 -2.0002 0.9820
-1.5617 3.7704 -2.0018 0.9820
-1.6953 3.7122 -2.0018 0.9820
-1.8267 3.6494 -2.0018 0.9820
-2.0824 3.5098 -2.0018 0.9820
-2.2064 3.4332 -2.0018 0.9820
-2.3275 3.3523 -2.0018 0.9820
-2.5607 3.1777 -2.0019 0.9820
-2.7809 2.9869 -2.0019 0.9820
-3.1777 2.5608 -2.0019 0.9820
-3.4332 2.2064 -2.0019 0.9820
-1.1113 0.6068 -0.6211 0.9944
-1.1484 0.4757 -0.6097 0.9945
-1.1543 0.4305 -0.6043 0.9945
-1.1695 0.2544 -0.5871 0.9947
-1.1791 0.2127 -0.5877 0.9947
-1.1953 0.0855 -0.5878 0.9947
-1.1965 0.0427 -0.5873 0.9947
3.8587 -0.0000 -2.0018 0.9828
3.8562 0.1377 -2.0018 0.9828
3.8489 0.2753 -2.0018 0.9828
3.8366 0.4125 -2.0018 0.9828
3.7974 0.6851 -2.0018 0.9828
3.7705 0.8202 -2.0018 0.9828
3.7388 0.9543 -2.0018 0.9828
3.7024 1.0871 -2.0018 0.9828
3.6612 1.2186 -2.0018 0.9828
3.6154 1.3485 -2.0018 0.9828
3.5100 1.6030 -2.0018 0.9828
3.4505 1.7272 -2.0018 0.9828
3.3867 1.8493 -2.0018 0.9828
3.3185 1.9690 -2.0018 0.9828
3.2461 2.0862 -2.0018 0.9828
3.1696 2.2007 -2.0018 0.9828
3.0890 2.3124 -2.0018 0.9828
3.0045 2.4212 -2.0018 0.9828
2.8242 2.6294 -2.0018 0.9828
2.6294 2.8242 -2.0018 0.9828
2.4212 3.0046 -2.0018 0.9828
2.3124 3.0891 -2.0018 0.9828
2.2007 3.1696 -2.0018 0.9828
1.9690 3.3185 -2.0018 0.9828
1.7272 3.4505 -2.0018 0.9828
1.4767 3.5650 -2.0018 0.9828
1.3485 3.6154 -2.0018 0.9828
1.2186 3.6612 -2.0018 0.9828
1.0871 3.7024 -2.0018 0.9828
0.9543 3.7389 -2.0018 0.9828
0.6849 3.7963 -2.0013 0.9828
0.5489 3.8177 -2.0009 0.9828
0.2751 3.8462 -2.0004 0.9828
0.1376 3.8534 -2.0003 0.9828
-0.0000 3.8558 -2.0003 0.9828
-0.1376 3.8534 -2.0003 0.9828
-0.2751 3.8463 -2.0005 0.9828
-0.4122 3.8344 -2.0007 0.9828
-0.8202 3.7705 -2.0018 0.9828
-1.2186 3.6613 -2.0018 0.9828
-1.6030 3.5100 -2.0018 0.9828
-2.2007 3.1697 -2.0018 0.9828
-2.5270 2.9163 -2.0019 0.9828
-2.6294 2.8242 -2.0019 0.9828
-3.0891 2.3125 -2.0019 0.9828
-3.2462 2.0862 -2.0019 0.9828
-1.0430 0.4763 -0.5948 0.9948
-1.0576 0.3945 -0.5856 0.9949
-1.0704 0.2732 -0.5731 0.9950
-1.0814 0.2352 -0.5741 0.9950
-1.1055 0.0791 -0.5750 0.9950
3.6549 0.0000 -2.0018 0.9835
3.6526 0.1305 -2.0018 0.9835
3.6177 0.5202 -2.0018 0.9835
3.5969 0.6490 -2.0018 0.9835
3.5714 0.7769 -2.0018 0.9835
3.3767 1.3987 -2.0018 0.9835
3.3246 1.5183 -2.0018 0.9835
3.2683 1.6360 -2.0018 0.9835
3.2078 1.7516 -2.0018 0.9835
3.1433 1.8650 -2.0018 0.9835
3.0022 2.0845 -2.0018 0.9835
2.9259 2.1903 -2.0018 0.9835
2.7622 2.3935 -2.0018 0.9835
2.5844 2.5844 -2.0018 0.9835
2.2934 2.8459 -2.0018 0.9835
1.9760 3.0747 -2.0018 0.9835
1.6360 3.2683 -2.0018 0.9835
1.3987 3.3767 -2.0018 0.9835
1.1542 3.4679 -2.0018 0.9835
1.0297 3.5069 -2.0018 0.9835
0.9039 3.5414 -2.0018 0.9835
0.7769 3.5714 -2.0018 0.9835
0.5202 3.6177 -2.0018 0.9835
0.3907 3.6340 -2.0018 0.9835
0.2607 3.6456 -2.0018 0.9835
0.1305 3.6526 -2.0018 0.9835
0.0000 3.6550 -2.0018 0.9835
-0.2607 3.6456 -2.0018 0.9835
-0.6490 3.5969 -2.0018 0.9835
-1.0297 3.5069 -2.0018 0.9835
-1.1542 3.4679 -2.0018 0.9835
-1.2773 3.4245 -2.0018 0.9835
-1.5183 3.3247 -2.0018 0.9835
-1.6360 3.2684 -2.0018 0.9835
-1.8650 3.1434 -2.0018 0.9835
-1.9760 3.0748 -2.0018 0.9835
-2.0845 3.0023 -2.0018 0.9835
-2.1903 2.9260 -2.0019 0.9835
-2.3935 2.7623 -2.0019 0.9835
-2.7623 2.3935 -2.0019 0.9835
-2.8459 2.2934 -2.0019 0.9835
-0.8661 0.6014 -0.5775 0.9952
-0.9269 0.5061 -0.5784 0.9952
-0.9580 0.4375 -0.5768 0.9952
-0.9677 0.4008 -0.5737 0.9952
-0.9741 0.3633 -0.5694 0.9953
-0.9938 0.2537 -0.5618 0.9953
-1.0190 0.1465 -0.5638 0.9953
-1.0236 0.1100 -0.5639 0.9953
2.0320 0.0726 -1.1739 0.9907
2.0359 0.1456 -1.1784 0.9906
2.0366 0.2190 -1.1826 0.9906
2.0153 0.3636 -1.1823 0.9906
1.9883 0.4325 -1.1748 0.9906
1.9616 0.5007 -1.1688 0.9907
1.9033 0.6335 -1.1581 0.9908
1.8682 0.6968 -1.1512 0.9908
2.9819 1.7692 -2.0018 0.9841
2.9169 1.8745 -2.0018 0.9841
2.7757 2.0779 -2.0018 0.9841
2.5377 2.3627 -2.0018 0.9841
2.4517 2.4517 -2.0018 0.9841
2.3627 2.5377 -2.0018 0.9841
2.2706 2.6204 -2.0018 0.9841
2.0779 2.7757 -2.0018 0.9841
1.9775 2.8481 -2.0018 0.9841
1.8745 2.9169 -2.0018 0.9841
1.6617 3.0431 -2.0018 0.9841
1.5520 3.1005 -2.0018 0.9841
1.4404 3.1539 -2.0018 0.9841
1.2117 3.2486 -2.0018 0.9841
0.9768 3.3268 -2.0018 0.9841
0.7370 3.3880 -2.0018 0.9841
0.4934 3.4320 -2.0018 0.9841
0.1238 3.4651 -2.0018 0.9841
-0.2474 3.4584 -2.0018 0.9841
-0.3706 3.4474 -2.0018 0.9841
-0.6156 3.4122 -2.0018 0.9841
-0.7370 3.3880 -2.0018 0.9841
-0.8575 3.3596 -2.0018 0.9841
-1.0950 3.2898 -2.0018 0.9841
-1.2117 3.2487 -2.0018 0.9841
-1.7693 2.9819 -2.0018 0.9841
-1.8746 2.9169 -2.0018 0.9841
-2.0779 2.7757 -2.0019 0.9841
-2.3627 2.5377 -2.0019 0.9841
-2.6204 2.2706 -2.0019 0.9841
-0.7671 0.6182 -0.5688 0.9955
-0.7846 0.5873 -0.5658 0.9955
-0.8008 0.5560 -0.5628 0.9955
-0.8364 0.4963 -0.5615 0.9955
-0.8534 0.4660 -0.5614 0.9955
-0.8687 0.4349 -0.5609 0.9955
-0.9011 0.3361 -0.5553 0.9956
-0.9259 0.2363 -0.5517 0.9956
-0.9353 0.2035 -0.5526 0.9956
-0.9430 0.1701 -0.5532 0.9956
-0.9492 0.1365 -0.5537 0.9956
-0.9565 0.0684 -0.5536 0.9956
