ply
format ascii 1.0
element vertex 795
property float32 x
property float32 y
property float32 z
property float32 I
end_header
-5.7455 4.9785 -0.2141 0.9700
8.4843 2.4912 -0.6483 0.9652
7.2837 2.7167 -0.5700 0.9693
7.1396 3.2605 -0.5755 0.9690
7.1380 3.5730 -0.5853 0.9685
-5.7407 4.9743 -0.5570 0.9700
8.2845 2.4325 -0.8289 0.9659
6.6858 2.7694 -0.6948 0.9713
6.5822 3.2948 -0.7067 0.9709
6.5893 3.5980 -0.7208 0.9703
8.9758 2.2909 -1.1004 0.9634
8.0431 2.3617 -0.9957 0.9668
6.3814 2.6433 -0.8205 0.9726
6.2116 3.1093 -0.8251 0.9724
6.2191 3.6900 -0.8590 0.9713
1.9785 5.3047 -0.6725 0.9775
1.8182 5.4628 -0.6839 0.9771
-5.7358 4.9701 -0.9015 0.9699
7.7054 2.2625 -1.1379 0.9681
6.9468 2.3121 -1.0374 0.9709
6.1508 2.5478 -0.9433 0.9735
5.9121 3.2283 -0.9544 0.9732
6.0710 3.9016 -1.0225 0.9713
2.2186 5.3562 -0.8215 0.9769
-7.0470 5.6788 -1.2823 0.9641
-7.8942 5.4810 -1.3617 0.9619
6.3327 2.3620 -1.1134 0.9730
6.0555 2.5083 -1.0798 0.9738
5.9887 2.7349 -1.0846 0.9737
5.9306 3.2384 -1.1132 0.9730
5.9780 3.5469 -1.1451 0.9722
-5.6651 4.9089 -1.2349 0.9701
-7.0708 5.6981 -1.4960 0.9639
-7.8942 5.4810 -1.5832 0.9618
8.8856 2.2679 -1.7237 0.9634
7.6761 2.2539 -1.5037 0.9680
6.7587 2.2495 -1.3389 0.9714
6.0448 2.5038 -1.2298 0.9737
5.9225 3.2339 -1.2683 0.9729
6.0109 3.8630 -1.3430 0.9713
1.7838 5.3595 -1.0617 0.9773
-6.9577 6.4779 -1.7868 0.9620
-7.2197 5.4046 -1.6951 0.9640
9.4188 1.0126 -2.0024 0.9620
9.3766 1.3481 -2.0024 0.9620
9.3225 1.6820 -2.0024 0.9620
9.2566 2.0136 -2.0024 0.9620
7.7160 2.2656 -1.6999 0.9677
6.9384 2.3093 -1.5457 0.9705
6.0365 2.5004 -1.3811 0.9736
5.9346 2.7102 -1.3791 0.9737
5.8813 3.2114 -1.4165 0.9730
5.9964 3.8537 -1.5067 0.9713
7.1895 4.9917 -1.8501 0.9648
6.8150 5.4918 -1.8501 0.9648
6.6146 5.7315 -1.8501 0.9648
6.1887 6.1887 -1.8500 0.9649
5.9639 6.4056 -1.8500 0.9649
5.4916 6.8147 -1.8500 0.9649
4.9914 7.1890 -1.8500 0.9649
4.7316 7.3625 -1.8500 0.9649
4.1942 7.6811 -1.8499 0.9649
3.9173 7.8259 -1.8499 0.9649
2.2197 5.3588 -1.2261 0.9766
1.9790 5.3060 -1.1971 0.9771
1.7840 5.3601 -1.1941 0.9772
2.4655 8.3967 -1.8498 0.9649
2.1642 8.4792 -1.8498 0.9649
1.2454 8.6617 -1.8497 0.9649
0.6243 8.7283 -1.8497 0.9649
-0.0000 8.7504 -1.8497 0.9649
-0.3123 8.7448 -1.8496 0.9649
-1.5536 8.6109 -1.8496 0.9649
-1.8599 8.5499 -1.8495 0.9649
-2.1639 8.4780 -1.8495 0.9649
-2.4651 8.3953 -1.8495 0.9649
-3.0576 8.1979 -1.8495 0.9649
-3.3483 8.0834 -1.8495 0.9649
-3.6346 7.9587 -1.8494 0.9649
-3.9163 7.8238 -1.8494 0.9649
-4.4644 7.5243 -1.8494 0.9649
-4.7301 7.3601 -1.8494 0.9649
-4.9897 7.1865 -1.8493 0.9649
-5.2430 7.0038 -1.8493 0.9649
-5.4896 6.8121 -1.8493 0.9649
-5.7292 6.6118 -1.8493 0.9649
-6.1862 6.1861 -1.8493 0.9649
-6.4030 5.9614 -1.8493 0.9649
-5.9051 4.7586 -1.6031 0.9695
-7.3594 4.7296 -1.8492 0.9649
-7.7061 4.2078 -1.8559 0.9647
-8.7471 3.6231 -2.0013 0.9620
-8.9832 2.9899 -2.0013 0.9620
-9.1735 2.3414 -2.0013 0.9620
-9.3171 1.6810 -2.0012 0.9620
-9.3712 1.3474 -2.0012 0.9620
-9.4133 1.0120 -2.0012 0.9620
8.5198 -0.0000 -2.0024 0.9656
8.4981 0.6078 -2.0024 0.9656
8.4710 0.9107 -2.0024 0.9656
8.4331 1.2125 -2.0024 0.9656
8.2552 2.1070 -2.0023 0.9656
6.8938 2.2945 -1.7076 0.9706
5.9389 2.7122 -1.5344 0.9735
5.9618 3.5373 -1.6292 0.9719
6.0843 3.9101 -1.6998 0.9707
6.4660 4.4894 -1.8500 0.9682
5.5660 5.5660 -1.8500 0.9682
5.3638 5.7611 -1.8500 0.9682
4.7171 6.3013 -1.8499 0.9682
4.4892 6.4656 -1.8499 0.9682
4.2555 6.6217 -1.8499 0.9682
4.0164 6.7693 -1.8499 0.9682
3.7722 6.9083 -1.8499 0.9682
3.5232 7.0385 -1.8499 0.9682
2.2202 5.3601 -1.3636 0.9764
1.9791 5.3062 -1.3310 0.9770
2.2174 7.5519 -1.8498 0.9682
1.3974 7.7454 -1.8497 0.9682
1.1201 7.7903 -1.8497 0.9682
0.8413 7.8252 -1.8497 0.9682
0.5615 7.8502 -1.8497 0.9682
0.2809 7.8652 -1.8497 0.9682
-0.0000 7.8701 -1.8497 0.9682
-0.5614 7.8499 -1.8496 0.9682
-1.1200 7.7897 -1.8496 0.9682
-1.6728 7.6898 -1.8496 0.9682
-4.0153 6.7675 -1.8494 0.9682
-4.2543 6.6198 -1.8494 0.9682
-4.4878 6.4637 -1.8494 0.9682
-4.9374 6.1270 -1.8493 0.9682
-5.3618 5.7590 -1.8493 0.9682
-5.6050 4.8567 -1.7430 0.9700
-5.8902 4.7466 -1.7779 0.9694
-6.2990 4.7153 -1.8493 0.9682
-6.4632 4.4875 -1.8492 0.9682
-7.0642 4.1914 -1.9305 0.9668
-7.4526 4.0694 -1.9956 0.9657
-7.6099 3.8092 -2.0001 0.9656
-7.8673 3.2587 -2.0013 0.9656
-8.0797 2.6892 -2.0013 0.9656
-8.2509 2.1059 -2.0013 0.9656
-8.3208 1.8101 -2.0013 0.9656
-8.3801 1.5119 -2.0013 0.9656
-8.4287 1.2119 -2.0013 0.9656
-8.4936 0.6075 -2.0013 0.9656
7.7284 0.2760 -2.0023 0.9686
7.6891 0.8267 -2.0023 0.9686
7.4931 1.9125 -2.0023 0.9686
6.7973 2.2624 -1.8549 0.9708
6.3219 2.3579 -1.7470 0.9725
6.4827 4.1661 -1.9952 0.9687
6.0715 4.2155 -1.9138 0.9699
5.7200 4.2819 -1.8500 0.9709
5.5635 4.4833 -1.8500 0.9709
5.2294 4.8687 -1.8500 0.9709
4.8687 5.2293 -1.8500 0.9709
4.6789 5.3997 -1.8499 0.9709
4.0748 5.8688 -1.8499 0.9709
3.1980 6.3888 -1.8499 0.9709
2.9679 6.4989 -1.8498 0.9709
1.9792 5.3064 -1.4664 0.9769
2.0128 6.8549 -1.8498 0.9709
1.2685 7.0306 -1.8497 0.9709
-0.2550 7.1392 -1.8496 0.9709
-0.7636 7.1027 -1.8496 0.9709
-1.2684 7.0300 -1.8496 0.9709
-2.0125 6.8540 -1.8495 0.9709
-2.4963 6.6928 -1.8495 0.9709
-3.1973 6.3875 -1.8495 0.9709
-3.4233 6.2692 -1.8494 0.9709
-4.6774 5.3981 -1.8494 0.9709
-4.8671 5.2276 -1.8493 0.9709
-5.3979 4.6773 -1.8493 0.9709
-6.0394 4.1933 -1.9037 0.9701
-6.4789 4.1637 -1.9941 0.9687
-6.6361 3.9374 -1.9979 0.9686
-6.7844 3.7046 -2.0014 0.9686
-6.9123 3.4600 -2.0014 0.9686
-7.3342 2.4411 -2.0014 0.9686
-7.4166 2.1777 -2.0014 0.9686
-7.4896 1.9116 -2.0014 0.9686
-7.5531 1.6431 -2.0014 0.9686
-7.6069 1.3724 -2.0014 0.9686
-7.6854 0.8263 -2.0013 0.9686
-7.7247 0.2759 -2.0013 0.9686
7.0728 0.0000 -2.0023 0.9710
7.0008 1.0066 -2.0023 0.9710
6.9604 1.2558 -2.0023 0.9710
6.8531 1.7491 -2.0023 0.9710
6.7863 1.9926 -2.0023 0.9710
6.5344 2.7066 -2.0022 0.9710
6.3246 3.1659 -2.0022 0.9710
6.2075 3.3896 -2.0022 0.9710
6.0826 3.6090 -2.0022 0.9710
5.9463 3.8215 -2.0010 0.9710
5.7961 4.0243 -1.9976 0.9711
5.6138 4.2024 -1.9852 0.9713
4.2793 4.9386 -1.8499 0.9732
4.1003 5.0881 -1.8499 0.9732
3.9160 5.2312 -1.8499 0.9732
3.5328 5.4972 -1.8499 0.9732
3.3343 5.6197 -1.8499 0.9732
3.1316 5.7351 -1.8498 0.9732
2.9249 5.8432 -1.8498 0.9732
1.9793 5.3067 -1.6034 0.9767
1.7847 5.3621 -1.5998 0.9768
1.6159 6.3311 -1.8498 0.9732
1.3889 6.3847 -1.8497 0.9732
1.1601 6.4302 -1.8497 0.9732
0.9299 6.4674 -1.8497 0.9732
0.6984 6.4964 -1.8497 0.9732
-0.0000 6.5337 -1.8497 0.9732
-0.4661 6.5170 -1.8496 0.9732
-0.6984 6.4961 -1.8496 0.9732
-0.9298 6.4670 -1.8496 0.9732
-1.3888 6.3841 -1.8496 0.9732
-1.8407 6.2687 -1.8495 0.9732
-2.0632 6.1989 -1.8495 0.9732
-2.2831 6.1213 -1.8495 0.9732
-2.5001 6.0359 -1.8495 0.9732
-2.9243 5.8420 -1.8495 0.9732
-3.1309 5.7339 -1.8495 0.9732
-3.5320 5.4958 -1.8494 0.9732
-3.7259 5.3663 -1.8494 0.9732
-4.2781 4.9371 -1.8494 0.9732
-4.4515 4.7813 -1.8494 0.9732
-4.6193 4.6193 -1.8494 0.9732
-4.7812 4.4515 -1.8493 0.9732
-4.9370 4.2779 -1.8493 0.9732
-5.9430 3.8193 -1.9999 0.9711
-6.3221 3.1646 -2.0014 0.9710
-6.5317 2.7055 -2.0014 0.9710
-6.6241 2.4707 -2.0014 0.9710
-6.7080 2.2326 -2.0014 0.9710
-6.7834 1.9918 -2.0014 0.9710
-6.9082 1.5028 -2.0014 0.9710
-6.9574 1.2553 -2.0014 0.9710
-6.9978 1.0061 -2.0014 0.9710
6.5097 0.0000 -2.0022 0.9731
6.4931 0.4644 -2.0022 0.9731
6.4724 0.6958 -2.0022 0.9731
6.4434 0.9264 -2.0022 0.9731
6.4062 1.1558 -2.0022 0.9731
6.2459 1.8340 -2.0022 0.9731
6.1765 2.0557 -2.0022 0.9731
6.0992 2.2749 -2.0022 0.9731
5.9213 2.7042 -2.0022 0.9731
5.8210 2.9138 -2.0022 0.9731
5.7133 3.1197 -2.0022 0.9731
5.3470 3.7125 -2.0022 0.9731
5.2047 3.8962 -1.9997 0.9732
5.0547 4.0733 -1.9967 0.9732
4.2528 4.2528 -1.8499 0.9751
4.0983 4.4019 -1.8499 0.9751
3.9386 4.5453 -1.8499 0.9751
3.7738 4.6830 -1.8499 0.9751
3.4301 4.9402 -1.8499 0.9751
3.2515 5.0595 -1.8499 0.9751
3.0689 5.1723 -1.8498 0.9751
2.6920 5.3780 -1.8498 0.9751
2.2217 5.3636 -1.7856 0.9760
1.9794 5.3070 -1.7422 0.9766
1.7848 5.3625 -1.7384 0.9766
0.4290 5.9984 -1.8497 0.9751
0.2146 6.0098 -1.8497 0.9751
-1.0677 5.9178 -1.8496 0.9751
-1.4871 5.8265 -1.8496 0.9751
-1.6941 5.7696 -1.8495 0.9751
-2.4979 5.4697 -1.8495 0.9751
-2.6915 5.3770 -1.8495 0.9751
-3.0682 5.1712 -1.8495 0.9752
-3.4293 4.9391 -1.8494 0.9752
-3.6034 4.8135 -1.8494 0.9752
-3.7728 4.6818 -1.8494 0.9752
-4.0972 4.4007 -1.8494 0.9752
-5.0521 4.0713 -1.9957 0.9732
-5.2020 3.8942 -1.9987 0.9732
-5.3452 3.7113 -2.0015 0.9731
-5.4743 3.5181 -2.0015 0.9731
-5.5963 3.3204 -2.0015 0.9731
-6.0118 2.4902 -2.0015 0.9731
-6.2435 1.8333 -2.0014 0.9731
-6.3049 1.6092 -2.0014 0.9731
-6.4037 1.1553 -2.0014 0.9731
6.0234 0.0000 -2.0022 0.9749
6.0195 0.2150 -2.0022 0.9749
6.0080 0.4297 -2.0022 0.9749
5.8857 1.2804 -2.0022 0.9749
5.7151 1.9022 -2.0022 0.9749
5.4790 2.5022 -2.0022 0.9749
5.2865 2.8866 -2.0022 0.9749
4.8218 3.6096 -2.0021 0.9749
4.3956 4.0924 -1.9963 0.9750
4.2046 4.2046 -1.9765 0.9752
3.9254 4.2161 -1.9148 0.9760
3.4919 4.3332 -1.8499 0.9768
3.3350 4.4550 -1.8499 0.9768
2.4909 4.9763 -1.8498 0.9768
2.1296 5.1412 -1.8498 0.9768
1.9447 5.2139 -1.8498 0.9768
1.5678 5.3393 -1.8497 0.9768
1.1829 5.4375 -1.8497 0.9768
0.9880 5.4762 -1.8497 0.9768
0.5948 5.5327 -1.8497 0.9768
0.1986 5.5609 -1.8497 0.9768
-0.0000 5.5644 -1.8496 0.9768
-0.3970 5.5502 -1.8496 0.9768
-0.9880 5.4758 -1.8496 0.9768
-1.1828 5.4370 -1.8496 0.9768
-1.9444 5.2132 -1.8495 0.9768
-2.3114 5.0612 -1.8495 0.9768
-2.8391 4.7850 -1.8495 0.9768
-3.0081 4.6806 -1.8495 0.9768
-3.3343 4.4540 -1.8494 0.9768
-3.4911 4.3322 -1.8494 0.9768
-3.9093 4.1989 -1.9070 0.9761
-4.1862 4.1862 -1.9679 0.9754
-4.3936 4.0906 -1.9955 0.9750
-4.6866 3.7767 -2.0007 0.9749
-5.0655 3.2554 -2.0015 0.9749
-5.1784 3.0725 -2.0015 0.9749
-5.3844 2.6952 -2.0015 0.9749
-5.4771 2.5013 -2.0015 0.9749
-5.5629 2.3042 -2.0015 0.9749
-5.6416 2.1042 -2.0015 0.9749
-5.7773 1.6964 -2.0015 0.9749
-5.8341 1.4891 -2.0015 0.9749
-5.9255 1.0691 -2.0015 0.9749
-6.0058 0.4296 -2.0015 0.9749
5.5845 0.3994 -2.0022 0.9765
5.5667 0.5985 -2.0022 0.9765
5.5418 0.7968 -2.0022 0.9765
5.5098 0.9941 -2.0022 0.9765
5.4249 1.3846 -2.0022 0.9765
5.3720 1.5774 -2.0022 0.9765
5.3123 1.7681 -2.0022 0.9765
5.0928 2.3258 -2.0022 0.9765
4.5989 3.1930 -2.0021 0.9765
4.4820 3.3551 -2.0021 0.9765
4.2311 3.6663 -2.0021 0.9765
4.0955 3.8130 -2.0011 0.9765
3.9521 3.9521 -1.9987 0.9765
3.8042 4.0859 -1.9964 0.9766
3.1604 4.2218 -1.8859 0.9778
2.7966 4.3516 -1.8498 0.9783
2.6395 4.4486 -1.8498 0.9783
2.3154 4.6255 -1.8498 0.9783
2.1488 4.7052 -1.8498 0.9783
1.8076 4.8465 -1.8498 0.9783
1.6335 4.9079 -1.8497 0.9783
1.2792 5.0118 -1.8497 0.9783
1.0995 5.0543 -1.8497 0.9783
0.9184 5.0902 -1.8497 0.9783
0.7361 5.1198 -1.8497 0.9783
0.5529 5.1427 -1.8497 0.9783
0.3690 5.1592 -1.8497 0.9783
-0.0000 5.1723 -1.8496 0.9783
-0.7361 5.1195 -1.8496 0.9783
-0.9183 5.0899 -1.8496 0.9783
-1.4571 4.9625 -1.8496 0.9783
-1.8074 4.8459 -1.8495 0.9783
-1.9792 4.7782 -1.8495 0.9783
-2.1485 4.7045 -1.8495 0.9783
-2.4786 4.5392 -1.8495 0.9783
-2.7961 4.3508 -1.8495 0.9783
-2.9519 4.2516 -1.8509 0.9783
-3.6277 4.1866 -1.9810 0.9767
-3.8027 4.0844 -1.9957 0.9766
-4.2300 3.6653 -2.0016 0.9765
-5.0050 2.5053 -2.0015 0.9765
-5.1709 2.1418 -2.0015 0.9765
-5.2440 1.9559 -2.0015 0.9765
-5.3702 1.5768 -2.0015 0.9765
-5.4690 1.1897 -2.0015 0.9765
-5.5079 0.9937 -2.0015 0.9765
-5.5826 0.3993 -2.0015 0.9765
5.1946 0.5585 -2.0022 0.9779
5.1714 0.7435 -2.0021 0.9779
5.1416 0.9276 -2.0021 0.9779
5.1052 1.1106 -2.0021 0.9779
5.0129 1.4719 -2.0021 0.9779
4.9572 1.6499 -2.0021 0.9779
4.8951 1.8258 -2.0021 0.9779
4.8268 1.9993 -2.0021 0.9779
4.7524 2.1703 -2.0021 0.9779
4.5854 2.5038 -2.0021 0.9779
4.4931 2.6659 -2.0021 0.9779
4.2915 2.9796 -2.0021 0.9779
4.1824 3.1309 -2.0021 0.9779
3.9483 3.4212 -2.0021 0.9779
3.8237 3.5600 -2.0021 0.9779
3.6942 3.6942 -2.0021 0.9779
3.4157 3.9419 -1.9988 0.9779
2.5055 4.2228 -1.8817 0.9792
2.3133 4.2365 -1.8498 0.9795
2.1606 4.3164 -1.8498 0.9795
1.8472 4.4595 -1.8498 0.9795
1.3599 4.6313 -1.8497 0.9795
1.1937 4.6769 -1.8497 0.9795
1.0260 4.7165 -1.8497 0.9795
0.6869 4.7776 -1.8497 0.9795
0.3443 4.8144 -1.8497 0.9795
0.1723 4.8236 -1.8497 0.9795
-0.1723 4.8235 -1.8496 0.9795
-0.6869 4.7774 -1.8496 0.9795
-0.8570 4.7498 -1.8496 0.9795
-1.0259 4.7161 -1.8496 0.9795
-1.1936 4.6765 -1.8496 0.9795
-1.3598 4.6309 -1.8496 0.9795
-1.5242 4.5794 -1.8496 0.9795
-1.8469 4.4589 -1.8495 0.9795
-2.1618 4.3188 -1.8508 0.9795
-2.3161 4.2416 -1.8520 0.9795
-2.7026 4.2054 -1.9157 0.9788
-3.2685 4.0560 -1.9962 0.9779
-3.6933 3.6933 -2.0016 0.9779
-3.9474 3.4204 -2.0016 0.9779
-4.1813 3.1301 -2.0016 0.9779
-4.2903 2.9788 -2.0016 0.9779
-4.5841 2.5031 -2.0015 0.9779
-4.6705 2.3379 -2.0015 0.9779
-4.8936 1.8252 -2.0015 0.9779
-5.1697 0.7433 -2.0015 0.9779
-5.1930 0.5583 -2.0015 0.9779
-5.2096 0.3726 -2.0015 0.9779
4.8794 0.3490 -2.0021 0.9791
4.7801 1.0398 -2.0021 0.9791
4.7399 1.2098 -2.0021 0.9791
4.6415 1.5448 -2.0021 0.9791
4.5834 1.7095 -2.0021 0.9791
4.5195 1.8720 -2.0021 0.9791
4.3744 2.1897 -2.0021 0.9791
4.1152 2.6447 -2.0021 0.9791
3.6969 3.2034 -2.0021 0.9791
3.5802 3.3333 -2.0021 0.9791
3.2034 3.6969 -2.0020 0.9791
2.9275 3.9107 -1.9993 0.9791
2.7837 4.0093 -1.9977 0.9791
2.2977 4.2080 -1.9622 0.9795
2.1095 4.2142 -1.9288 0.9798
1.9272 4.2199 -1.8987 0.9801
1.5796 4.2351 -1.8500 0.9807
1.4273 4.2883 -1.8497 0.9807
1.2733 4.3365 -1.8497 0.9807
1.1177 4.3791 -1.8497 0.9807
0.9607 4.4162 -1.8497 0.9807
0.8024 4.4476 -1.8497 0.9807
0.1613 4.5165 -1.8497 0.9807
-0.1613 4.5164 -1.8496 0.9807
-0.3224 4.5077 -1.8496 0.9807
-0.4831 4.4933 -1.8496 0.9807
-0.8024 4.4474 -1.8496 0.9807
-1.1176 4.3788 -1.8496 0.9807
-1.4271 4.2878 -1.8496 0.9807
-1.5793 4.2341 -1.8495 0.9807
-1.7469 4.2173 -1.8683 0.9805
-2.4861 4.1901 -1.9940 0.9792
-2.6361 4.1018 -1.9955 0.9791
-2.7830 4.0082 -1.9971 0.9791
-2.9267 3.9096 -1.9988 0.9791
-3.0670 3.8059 -2.0005 0.9791
-3.3326 3.5795 -2.0016 0.9791
-3.4582 3.4582 -2.0016 0.9791
-3.5794 3.3326 -2.0016 0.9791
-3.6961 3.2027 -2.0016 0.9791
-4.0172 2.7892 -2.0016 0.9791
-4.1142 2.6440 -2.0016 0.9791
-4.3732 2.1891 -2.0016 0.9791
-4.5182 1.8715 -2.0015 0.9791
-4.5821 1.7090 -2.0015 0.9791
-4.7385 1.2094 -2.0015 0.9791
-4.7787 1.0395 -2.0015 0.9791
-1.9449 0.2796 -0.8042 0.9915
-1.9308 0.0690 -0.7907 0.9917
4.5939 0.0000 -2.0021 0.9802
4.5910 0.1640 -2.0021 0.9802
4.5676 0.4911 -2.0021 0.9802
4.5472 0.6538 -2.0021 0.9802
4.5209 0.8157 -2.0021 0.9802
4.4889 0.9765 -2.0021 0.9802
4.4078 1.2943 -2.0021 0.9802
4.2442 1.7580 -2.0021 0.9802
4.1787 1.9084 -2.0021 0.9802
4.0319 2.2016 -2.0021 0.9802
3.9508 2.3441 -2.0021 0.9802
3.5769 2.8825 -2.0021 0.9802
3.3622 3.1303 -2.0020 0.9802
3.2483 3.2483 -2.0020 0.9802
2.8824 3.5769 -2.0020 0.9802
2.7529 3.6775 -2.0020 0.9802
2.6194 3.7727 -2.0017 0.9802
2.4812 3.8609 -2.0002 0.9802
1.9016 4.1639 -1.9950 0.9802
1.7415 4.2043 -1.9833 0.9803
1.5699 4.2091 -1.9578 0.9806
1.4023 4.2133 -1.9353 0.9808
1.2382 4.2168 -1.9153 0.9810
1.0771 4.2199 -1.8980 0.9812
0.9185 4.2224 -1.8833 0.9813
0.6076 4.2263 -1.8608 0.9815
0.3028 4.2340 -1.8500 0.9816
-0.0000 4.2441 -1.8496 0.9817
-0.1515 4.2414 -1.8496 0.9817
-0.4546 4.2284 -1.8534 0.9816
-0.6073 4.2236 -1.8596 0.9816
-0.7616 4.2212 -1.8694 0.9815
-0.9177 4.2184 -1.8814 0.9813
-1.0758 4.2151 -1.8959 0.9812
-1.5673 4.2021 -1.9546 0.9806
-1.7383 4.1966 -1.9797 0.9804
-1.9012 4.1631 -1.9946 0.9802
-2.0498 4.0949 -1.9957 0.9802
-2.4806 3.8599 -1.9997 0.9802
-2.7524 3.6768 -2.0017 0.9802
-3.0077 3.4710 -2.0017 0.9802
-3.4710 3.0077 -2.0016 0.9802
-3.6767 2.7523 -2.0016 0.9802
-3.8637 2.4830 -2.0016 0.9802
-4.0309 2.2010 -2.0016 0.9802
-4.1777 1.9079 -2.0016 0.9802
-1.5984 0.5962 -0.7435 0.9926
-1.5707 0.4612 -0.7134 0.9929
-1.5485 0.3952 -0.6965 0.9931
-1.5214 0.3310 -0.6786 0.9932
-1.5001 0.2707 -0.6643 0.9934
-1.5151 0.2178 -0.6671 0.9933
-1.5249 0.1639 -0.6684 0.9933
-1.5284 0.0546 -0.6665 0.9933
4.3142 0.3086 -2.0021 0.9811
4.2565 0.7680 -2.0021 0.9811
4.2264 0.9194 -2.0021 0.9811
4.1909 1.0697 -2.0021 0.9811
4.1500 1.2186 -2.0021 0.9811
3.9960 1.6552 -2.0021 0.9811
3.7961 2.0728 -2.0021 0.9811
3.7197 2.2070 -2.0021 0.9811
3.6386 2.3384 -2.0021 0.9811
3.5528 2.4667 -2.0021 0.9811
3.4625 2.5920 -2.0021 0.9811
3.2687 2.8324 -2.0020 0.9811
3.1655 2.9472 -2.0020 0.9811
3.0583 3.0583 -2.0020 0.9811
2.7138 3.3677 -2.0020 0.9811
2.4667 3.5527 -2.0020 0.9811
2.3383 3.6384 -2.0020 0.9811
2.0720 3.7946 -2.0013 0.9811
1.9341 3.8638 -2.0001 0.9811
1.7940 3.9283 -1.9990 0.9811
1.6518 3.9878 -1.9980 0.9812
0.7586 4.2048 -1.9778 0.9813
0.3010 4.2089 -1.9532 0.9816
0.1503 4.2094 -1.9497 0.9816
-0.3009 4.2075 -1.9526 0.9816
-0.4522 4.2059 -1.9581 0.9815
-0.6044 4.2039 -1.9659 0.9815
-0.7580 4.2014 -1.9762 0.9814
-1.0656 4.1750 -1.9945 0.9812
-1.2144 4.1357 -1.9952 0.9812
-1.3617 4.0912 -1.9959 0.9812
-1.5075 4.0417 -1.9967 0.9812
-1.9337 3.8631 -1.9997 0.9811
-2.0716 3.7938 -2.0008 0.9811
-2.2066 3.7191 -2.0017 0.9811
-2.4663 3.5521 -2.0017 0.9811
-2.9467 3.1649 -2.0017 0.9811
-3.0577 3.0577 -2.0016 0.9811
-3.1649 2.9466 -2.0016 0.9811
-3.4617 2.5914 -2.0016 0.9811
-3.5520 2.4662 -2.0016 0.9811
-3.6377 2.3378 -2.0016 0.9811
-3.7952 2.0724 -2.0016 0.9811
-3.8668 1.9356 -2.0016 0.9811
-1.3263 0.5494 -0.6645 0.9937
-1.3324 0.4969 -0.6582 0.9938
-1.3116 0.3348 -0.6266 0.9941
-1.3160 0.2374 -0.6190 0.9941
-1.3273 0.1908 -0.6207 0.9941
-1.3351 0.1435 -0.6215 0.9941
-1.3384 0.0957 -0.6211 0.9941
4.0815 0.0000 -2.0021 0.9820
4.0711 0.2912 -2.0021 0.9820
4.0581 0.4363 -2.0021 0.9820
4.0167 0.7247 -2.0021 0.9820
3.9547 1.0094 -2.0021 0.9820
3.9162 1.1499 -2.0021 0.9820
3.8242 1.4263 -2.0021 0.9820
3.7708 1.5619 -2.0021 0.9820
3.7126 1.6955 -2.0021 0.9820
3.5822 1.9560 -2.0021 0.9820
3.4335 2.2066 -2.0020 0.9820
2.4459 3.2673 -2.0020 0.9820
2.0826 3.5100 -2.0020 0.9820
1.9559 3.5821 -2.0020 0.9820
1.8268 3.6496 -2.0020 0.9820
1.5616 3.7700 -2.0016 0.9820
1.4254 3.8217 -2.0008 0.9820
1.2876 3.8685 -2.0000 0.9820
1.1483 3.9106 -1.9992 0.9820
1.0076 3.9478 -1.9986 0.9820
0.8658 3.9802 -1.9980 0.9820
0.7230 4.0076 -1.9976 0.9820
0.5794 4.0301 -1.9972 0.9820
0.2904 4.0600 -1.9966 0.9820
0.1453 4.0675 -1.9965 0.9820
-0.1453 4.0675 -1.9965 0.9820
-0.2904 4.0599 -1.9966 0.9820
-0.4351 4.0474 -1.9968 0.9820
-0.5794 4.0298 -1.9970 0.9820
-0.7230 4.0073 -1.9974 0.9820
-0.8658 3.9798 -1.9979 0.9820
-1.0075 3.9474 -1.9984 0.9820
-1.5613 3.7694 -2.0013 0.9820
-1.6952 3.7120 -2.0017 0.9820
-1.8266 3.6492 -2.0017 0.9820
-2.0823 3.5095 -2.0017 0.9820
-2.2062 3.4329 -2.0017 0.9820
-2.3273 3.3520 -2.0017 0.9820
-2.4455 3.2668 -2.0017 0.9820
-2.5605 3.1774 -2.0017 0.9820
-2.6723 3.0840 -2.0017 0.9820
-2.7806 2.9866 -2.0017 0.9820
-2.8855 2.8854 -2.0017 0.9820
-2.9866 2.7806 -2.0016 0.9820
-3.0839 2.6722 -2.0016 0.9820
-3.1773 2.5604 -2.0016 0.9820
-3.3519 2.3273 -2.0016 0.9820
-1.1400 0.5206 -0.6148 0.9944
-1.1484 0.4757 -0.6097 0.9945
-1.1543 0.4305 -0.6043 0.9945
-1.1590 0.3403 -0.5925 0.9946
-1.1867 0.1706 -0.5881 0.9947
-1.1921 0.1282 -0.5881 0.9947
-1.1953 0.0855 -0.5878 0.9947
3.8592 0.0000 -2.0021 0.9828
3.8567 0.1377 -2.0021 0.9828
3.8494 0.2753 -2.0021 0.9828
3.8371 0.4125 -2.0021 0.9828
3.7979 0.6852 -2.0021 0.9828
3.7710 0.8203 -2.0021 0.9828
3.7393 0.9544 -2.0021 0.9828
3.7028 1.0872 -2.0021 0.9828
3.6617 1.2187 -2.0021 0.9828
3.6158 1.3486 -2.0021 0.9828
3.5654 1.4768 -2.0021 0.9828
3.4509 1.7274 -2.0020 0.9828
3.3871 1.8495 -2.0020 0.9828
3.3189 1.9692 -2.0020 0.9828
3.1700 2.2009 -2.0020 0.9828
3.0894 2.3127 -2.0020 0.9828
3.0049 2.4215 -2.0020 0.9828
2.9165 2.5272 -2.0020 0.9828
2.7288 2.7288 -2.0020 0.9828
2.5271 2.9165 -2.0020 0.9828
2.4214 3.0048 -2.0020 0.9828
1.9691 3.3188 -2.0020 0.9828
1.8494 3.3869 -2.0020 0.9828
1.7273 3.4508 -2.0019 0.9828
1.4767 3.5652 -2.0019 0.9828
1.3486 3.6156 -2.0019 0.9828
1.2186 3.6614 -2.0019 0.9828
1.0872 3.7026 -2.0019 0.9828
0.8201 3.7701 -2.0016 0.9828
-0.0000 3.8553 -2.0001 0.9828
-0.1376 3.8529 -2.0001 0.9828
-0.2751 3.8458 -2.0002 0.9828
-0.5488 3.8172 -2.0007 0.9828
-0.8201 3.7698 -2.0014 0.9828
-0.9543 3.7388 -2.0018 0.9828
-1.0871 3.7023 -2.0018 0.9828
-1.2185 3.6611 -2.0018 0.9828
-1.4766 3.5648 -2.0017 0.9828
-1.8492 3.3865 -2.0017 0.9828
-1.9689 3.3184 -2.0017 0.9828
-2.2006 3.1694 -2.0017 0.9828
-2.5267 2.9160 -2.0017 0.9828
-2.7283 2.7283 -2.0017 0.9828
-2.9160 2.5267 -2.0017 0.9828
-1.0118 0.5525 -0.5981 0.9948
-1.0298 0.5155 -0.5974 0.9948
-1.0514 0.4355 -0.5904 0.9949
-1.0576 0.3945 -0.5856 0.9949
-1.0617 0.3534 -0.5805 0.9950
-1.0704 0.2732 -0.5731 0.9950
-1.1024 0.1185 -0.5752 0.9950
3.6530 0.1305 -2.0021 0.9835
3.6460 0.2608 -2.0021 0.9835
3.5973 0.6490 -2.0021 0.9835
3.5418 0.9040 -2.0020 0.9835
3.4683 1.1544 -2.0020 0.9835
3.3250 1.5185 -2.0020 0.9835
3.2687 1.6362 -2.0020 0.9835
3.1436 1.8652 -2.0020 0.9835
3.0750 1.9762 -2.0020 0.9835
3.0025 2.0847 -2.0020 0.9835
2.7625 2.3937 -2.0020 0.9835
2.6753 2.4908 -2.0020 0.9835
2.5847 2.5847 -2.0020 0.9835
2.4908 2.6753 -2.0020 0.9835
2.3937 2.7624 -2.0020 0.9835
2.2935 2.8461 -2.0020 0.9835
2.1905 2.9261 -2.0020 0.9835
1.9761 3.0749 -2.0020 0.9835
1.8651 3.1435 -2.0020 0.9835
1.7517 3.2081 -2.0019 0.9835
1.3988 3.3769 -2.0019 0.9835
1.2773 3.4246 -2.0019 0.9835
1.0298 3.5070 -2.0019 0.9835
0.9039 3.5415 -2.0019 0.9835
0.7769 3.5715 -2.0019 0.9835
0.6490 3.5970 -2.0019 0.9835
0.3907 3.6341 -2.0019 0.9835
-0.2607 3.6456 -2.0018 0.9835
-0.3907 3.6340 -2.0018 0.9835
-0.6489 3.5968 -2.0018 0.9835
-1.1542 3.4678 -2.0018 0.9835
-1.2772 3.4244 -2.0018 0.9835
-1.5183 3.3245 -2.0017 0.9835
-1.6359 3.2682 -2.0017 0.9835
-1.9759 3.0746 -2.0017 0.9835
-2.0844 3.0021 -2.0017 0.9835
-2.2932 2.8457 -2.0017 0.9835
-2.4904 2.6748 -2.0017 0.9835
-2.6748 2.4903 -2.0017 0.9835
-2.7620 2.3933 -2.0017 0.9835
-2.8457 2.2932 -2.0017 0.9835
-2.9257 2.1901 -2.0017 0.9835
-0.8661 0.6014 -0.5775 0.9952
-0.9269 0.5061 -0.5784 0.9952
-0.9434 0.4722 -0.5778 0.9952
-0.9677 0.4009 -0.5737 0.9952
-0.9741 0.3633 -0.5694 0.9953
-0.9938 0.2537 -0.5618 0.9953
-1.0039 0.2184 -0.5627 0.9953
-1.0190 0.1465 -0.5638 0.9953
-1.0276 0.0367 -0.5632 0.9953
2.0320 0.0726 -1.1739 0.9907
2.0359 0.1456 -1.1784 0.9906
2.0300 0.2919 -1.1841 0.9906
1.9883 0.4325 -1.1748 0.9906
1.9616 0.5006 -1.1688 0.9907
1.9033 0.6335 -1.1581 0.9908
1.8508 0.8452 -1.1747 0.9906
3.1008 1.5522 -2.0020 0.9841
3.0434 1.6619 -2.0020 0.9841
2.9171 1.8747 -2.0020 0.9841
2.8483 1.9776 -2.0020 0.9841
2.7759 2.0780 -2.0020 0.9841
2.7000 2.1758 -2.0020 0.9841
2.6206 2.2708 -2.0020 0.9841
2.5379 2.3629 -2.0020 0.9841
2.3628 2.5379 -2.0020 0.9841
2.2707 2.6206 -2.0020 0.9841
2.1758 2.7000 -2.0020 0.9841
1.9776 2.8483 -2.0020 0.9841
1.8747 2.9170 -2.0020 0.9841
1.7693 2.9821 -2.0019 0.9841
1.4404 3.1541 -2.0019 0.9841
1.3269 3.2035 -2.0019 0.9841
0.8575 3.3597 -2.0019 0.9841
0.7370 3.3881 -2.0019 0.9841
0.6156 3.4122 -2.0019 0.9841
0.3706 3.4475 -2.0019 0.9841
0.1238 3.4651 -2.0018 0.9841
-0.0000 3.4673 -2.0018 0.9841
-0.1238 3.4650 -2.0018 0.9841
-0.2474 3.4584 -2.0018 0.9841
-0.3706 3.4474 -2.0018 0.9841
-0.4934 3.4319 -2.0018 0.9841
-0.6156 3.4121 -2.0018 0.9841
-0.7370 3.3880 -2.0018 0.9841
-0.8575 3.3595 -2.0018 0.9841
-1.0949 3.2897 -2.0018 0.9841
-1.2116 3.2485 -2.0018 0.9841
-1.3268 3.2032 -2.0018 0.9841
-1.4403 3.1538 -2.0017 0.9841
-1.5519 3.1004 -2.0017 0.9841
-1.6616 3.0430 -2.0017 0.9841
-1.7692 2.9817 -2.0017 0.9841
-1.8744 2.9167 -2.0017 0.9841
-1.9774 2.8479 -2.0017 0.9841
-2.2704 2.6202 -2.0017 0.9841
-2.4516 2.4515 -2.0017 0.9841
-2.5375 2.3625 -2.0017 0.9841
-2.6202 2.2704 -2.0017 0.9841
-0.7846 0.5873 -0.5658 0.9955
-0.8008 0.5560 -0.5628 0.9955
-0.8178 0.5256 -0.5613 0.9955
-0.8534 0.4660 -0.5614 0.9955
-0.8687 0.4348 -0.5609 0.9955
-0.9151 0.2687 -0.5506 0.9956
-0.9259 0.2363 -0.5517 0.9956
-0.9353 0.2035 -0.5526 0.9956
-0.9492 0.1365 -0.5536 0.9956
-0.9575 0.0342 -0.5532 0.9956
