ply
format ascii 1.0
element vertex 753
property float32 x
property float32 y
property float32 z
property float32 I
end_header
-9.3749 -1.3479 -2.0020 0.9620
-9.2548 -2.0133 -2.0020 0.9620
-9.0876 -2.6684 -2.0020 0.9620
-8.9866 -2.9910 -2.0020 0.9620
-8.8741 -3.3098 -2.0020 0.9620
-8.6153 -3.9345 -2.0020 0.9620
-8.3126 -4.5390 -2.0020 0.9620
-8.1453 -4.8328 -2.0020 0.9620
-7.5820 -5.6758 -2.0020 0.9620
-7.3746 -5.9428 -2.0020 0.9620
-6.6970 -6.6970 -2.0020 0.9620
-6.2022 -7.1577 -2.0020 0.9620
-4.5389 -8.3123 -2.0019 0.9620
-3.9343 -8.6149 -2.0019 0.9620
-3.3097 -8.8735 -2.0019 0.9620
-2.9908 -8.9860 -2.0019 0.9620
-2.0131 -9.2541 -2.0019 0.9620
-1.6815 -9.3200 -2.0019 0.9620
-1.3478 -9.3741 -2.0019 0.9620
-1.0123 -9.4162 -2.0019 0.9620
-0.3380 -9.4643 -2.0018 0.9620
-0.0000 -9.4703 -2.0018 0.9620
1.0123 -9.4160 -2.0018 0.9620
1.6815 -9.3197 -2.0018 0.9620
2.9906 -8.9854 -2.0018 0.9620
3.3094 -8.8729 -2.0018 0.9620
3.6240 -8.7491 -2.0018 0.9620
4.2389 -8.4683 -2.0018 0.9620
4.5384 -8.3115 -2.0018 0.9620
5.1198 -7.9666 -2.0017 0.9620
5.4009 -7.7787 -2.0017 0.9620
5.6750 -7.5810 -2.0017 0.9620
5.9420 -7.3736 -2.0017 0.9620
6.4529 -6.9308 -2.0017 0.9620
7.1567 -6.2013 -2.0017 0.9620
7.5808 -5.6749 -2.0017 0.9620
8.1440 -4.8320 -2.0017 0.9620
8.3112 -4.5383 -2.0017 0.9620
8.6138 -3.9338 -2.0017 0.9620
8.9849 -2.9905 -2.0017 0.9620
9.0859 -2.6679 -2.0017 0.9620
9.1754 -2.3419 -2.0017 0.9620
9.2531 -2.0129 -2.0017 0.9620
9.3190 -1.6813 -2.0017 0.9620
9.3731 -1.3476 -2.0017 0.9620
9.4152 -1.0122 -2.0017 0.9620
9.4454 -0.6755 -2.0017 0.9620
9.4635 -0.3380 -2.0017 0.9620
-8.5184 0.0000 -2.0020 0.9656
-8.5130 -0.3040 -2.0020 0.9656
-8.4967 -0.6077 -2.0020 0.9656
-8.4696 -0.9106 -2.0020 0.9656
-8.2538 -2.1066 -2.0020 0.9656
-8.0824 -2.6901 -2.0020 0.9656
-7.9813 -2.9769 -2.0020 0.9656
-7.8699 -3.2598 -2.0020 0.9656
-7.6173 -3.8129 -2.0020 0.9656
-7.4763 -4.0824 -2.0020 0.9656
-7.3259 -4.3466 -2.0020 0.9656
-7.1660 -4.6053 -2.0020 0.9656
-6.9971 -4.8582 -2.0020 0.9656
-6.2344 -5.8044 -2.0020 0.9656
-5.8044 -6.2344 -2.0020 0.9656
-5.1047 -6.8191 -2.0019 0.9656
-4.8580 -6.9969 -2.0019 0.9656
-4.6052 -7.1658 -2.0019 0.9656
-3.5385 -7.7482 -2.0019 0.9656
-3.2597 -7.8695 -2.0019 0.9656
-2.3998 -8.1728 -2.0019 0.9656
-2.1065 -8.2532 -2.0019 0.9656
-1.8106 -8.3231 -2.0019 0.9656
-1.5124 -8.3824 -2.0019 0.9656
-1.2122 -8.4310 -2.0019 0.9656
-0.9105 -8.4689 -2.0019 0.9656
-0.6076 -8.4960 -2.0019 0.9656
-0.0000 -8.5176 -2.0018 0.9656
0.3040 -8.5122 -2.0018 0.9656
0.6076 -8.4959 -2.0018 0.9656
0.9105 -8.4688 -2.0018 0.9656
1.2122 -8.4308 -2.0018 0.9656
1.5123 -8.3822 -2.0018 0.9656
2.1064 -8.2529 -2.0018 0.9656
2.3996 -8.1724 -2.0018 0.9656
3.2594 -7.8690 -2.0018 0.9656
3.8125 -7.6164 -2.0018 0.9656
4.0819 -7.4754 -2.0018 0.9656
4.3461 -7.3250 -2.0018 0.9656
4.6048 -7.1652 -2.0018 0.9656
4.8576 -6.9962 -2.0017 0.9656
5.1042 -6.8184 -2.0017 0.9656
6.0225 -6.0225 -2.0017 0.9656
6.4368 -5.5775 -2.0017 0.9656
6.6318 -5.3442 -2.0017 0.9656
6.8183 -5.1041 -2.0017 0.9656
6.9961 -4.8575 -2.0017 0.9656
7.1650 -4.6047 -2.0017 0.9656
7.7473 -3.5381 -2.0017 0.9656
7.8687 -3.2593 -2.0017 0.9656
7.9800 -2.9764 -2.0017 0.9656
8.0811 -2.6897 -2.0017 0.9656
8.3223 -1.8104 -2.0017 0.9656
8.3816 -1.5122 -2.0017 0.9656
8.4303 -1.2121 -2.0017 0.9656
-7.7322 0.0000 -2.0020 0.9686
-7.7273 -0.2760 -2.0020 0.9686
-7.7125 -0.5516 -2.0020 0.9686
-7.6535 -1.1004 -2.0020 0.9686
-7.6093 -1.3729 -2.0020 0.9686
-7.4190 -2.1784 -2.0020 0.9686
-7.2446 -2.7021 -2.0020 0.9686
-7.1436 -2.9590 -2.0020 0.9686
-7.0334 -3.2120 -2.0020 0.9686
-6.6497 -3.9455 -2.0020 0.9686
-6.5047 -4.1803 -2.0020 0.9686
-6.3513 -4.4098 -2.0020 0.9686
-6.0205 -4.8516 -2.0020 0.9686
-5.8435 -5.0634 -2.0020 0.9686
-5.6590 -5.2687 -2.0020 0.9686
-5.4674 -5.4673 -2.0020 0.9686
-5.2687 -5.6590 -2.0020 0.9686
-5.0634 -5.8434 -2.0019 0.9686
-4.6336 -6.1897 -2.0019 0.9686
-4.4097 -6.3512 -2.0019 0.9686
-4.1802 -6.5045 -2.0019 0.9686
-3.9454 -6.6495 -2.0019 0.9686
-3.7055 -6.7861 -2.0019 0.9686
-3.4609 -6.9140 -2.0019 0.9686
-2.7020 -7.2443 -2.0019 0.9686
-2.4417 -7.3361 -2.0019 0.9686
-1.9121 -7.4915 -2.0019 0.9686
-1.6435 -7.5550 -2.0019 0.9686
-1.1003 -7.6530 -2.0019 0.9686
-0.5516 -7.7119 -2.0019 0.9686
-0.2760 -7.7267 -2.0018 0.9686
0.2760 -7.7266 -2.0018 0.9686
0.5516 -7.7118 -2.0018 0.9686
0.8265 -7.6872 -2.0018 0.9686
1.3727 -7.6086 -2.0018 0.9686
1.9120 -7.4913 -2.0018 0.9686
2.1782 -7.4182 -2.0018 0.9686
2.7018 -7.2439 -2.0018 0.9686
3.2117 -7.0327 -2.0018 0.9686
3.4607 -6.9135 -2.0018 0.9686
3.9450 -6.6490 -2.0018 0.9686
4.1798 -6.5039 -2.0018 0.9686
5.2682 -5.6584 -2.0017 0.9686
5.6584 -5.2681 -2.0017 0.9686
6.3505 -4.4092 -2.0017 0.9686
6.5038 -4.1797 -2.0017 0.9686
6.6488 -3.9449 -2.0017 0.9686
6.9133 -3.4605 -2.0017 0.9686
7.0324 -3.2116 -2.0017 0.9686
7.2436 -2.7017 -2.0017 0.9686
7.4179 -2.1781 -2.0017 0.9686
7.6082 -1.3727 -2.0017 0.9686
-7.0719 0.0000 -2.0020 0.9710
-7.0674 -0.2524 -2.0020 0.9710
-7.0538 -0.5045 -2.0020 0.9710
-6.9595 -1.2556 -2.0020 0.9710
-6.8522 -1.7489 -2.0020 0.9710
-6.4327 -2.9377 -2.0020 0.9710
-6.3238 -3.1655 -2.0020 0.9710
-6.2068 -3.3891 -2.0020 0.9710
-6.0818 -3.6085 -2.0020 0.9710
-5.8089 -4.0332 -2.0020 0.9710
-5.6612 -4.2379 -2.0020 0.9710
-5.3445 -4.6310 -2.0020 0.9710
-5.1757 -4.8188 -2.0020 0.9710
-5.0004 -5.0004 -2.0019 0.9710
-4.6310 -5.3444 -2.0019 0.9710
-4.4372 -5.5063 -2.0019 0.9710
-4.2379 -5.6611 -2.0019 0.9710
-3.6084 -6.0817 -2.0019 0.9710
-3.3890 -6.2066 -2.0019 0.9710
-2.9376 -6.4325 -2.0019 0.9710
-2.4712 -6.6256 -2.0019 0.9710
-1.9923 -6.7850 -2.0019 0.9710
-0.7559 -7.0309 -2.0019 0.9710
1.2555 -6.9589 -2.0018 0.9710
1.5031 -6.9096 -2.0018 0.9710
1.7488 -6.8515 -2.0018 0.9710
2.4711 -6.6253 -2.0018 0.9710
2.7060 -6.5329 -2.0018 0.9710
2.9374 -6.4321 -2.0018 0.9710
3.3888 -6.2061 -2.0018 0.9710
3.6082 -6.0812 -2.0018 0.9710
4.2375 -5.6606 -2.0018 0.9710
4.6305 -5.3439 -2.0018 0.9710
4.8183 -5.1752 -2.0017 0.9710
5.5057 -4.4368 -2.0017 0.9710
5.8082 -4.0327 -2.0017 0.9710
5.9484 -3.8228 -2.0017 0.9710
6.0811 -3.6081 -2.0017 0.9710
6.2060 -3.3887 -2.0017 0.9710
6.4319 -2.9373 -2.0017 0.9710
6.6251 -2.4710 -2.0017 0.9710
6.7090 -2.2330 -2.0017 0.9710
6.7844 -1.9921 -2.0017 0.9710
6.8512 -1.7487 -2.0017 0.9710
6.9093 -1.5030 -2.0017 0.9710
6.9585 -1.2554 -2.0017 0.9710
6.9989 -1.0063 -2.0017 0.9710
-6.5047 -0.2323 -2.0020 0.9731
-6.4716 -0.6958 -2.0020 0.9731
-6.4054 -1.1557 -2.0020 0.9731
-6.3601 -1.3835 -2.0020 0.9731
-6.3066 -1.6097 -2.0020 0.9731
-6.2452 -1.8338 -2.0020 0.9731
-6.1757 -2.0555 -2.0020 0.9731
-6.0134 -2.4908 -2.0020 0.9731
-5.9206 -2.7038 -2.0020 0.9731
-5.8203 -2.9134 -2.0020 0.9731
-5.5976 -3.3212 -2.0020 0.9731
-5.3464 -3.7121 -2.0020 0.9731
-5.0680 -4.0840 -2.0019 0.9731
-4.9190 -4.2623 -2.0019 0.9731
-4.7637 -4.4352 -2.0019 0.9731
-4.2623 -4.9189 -2.0019 0.9731
-4.0840 -5.0679 -2.0019 0.9731
-3.9005 -5.2104 -2.0019 0.9731
-3.7120 -5.3463 -2.0019 0.9731
-3.5188 -5.4754 -2.0019 0.9731
-2.9134 -5.8202 -2.0019 0.9731
-2.2745 -6.0982 -2.0019 0.9731
-2.0554 -6.1755 -2.0019 0.9731
-1.6096 -6.3063 -2.0019 0.9731
-1.3835 -6.3597 -2.0019 0.9731
-1.1556 -6.4051 -2.0019 0.9731
-0.9263 -6.4422 -2.0019 0.9731
-0.6957 -6.4712 -2.0019 0.9731
-0.4643 -6.4918 -2.0019 0.9731
-0.0000 -6.5084 -2.0018 0.9731
0.2323 -6.5042 -2.0018 0.9731
0.6957 -6.4711 -2.0018 0.9731
0.9262 -6.4421 -2.0018 0.9731
1.1556 -6.4049 -2.0018 0.9731
1.3834 -6.3596 -2.0018 0.9731
1.8336 -6.2446 -2.0018 0.9731
2.0553 -6.1752 -2.0018 0.9731
2.2744 -6.0979 -2.0018 0.9731
2.4906 -6.0128 -2.0018 0.9731
3.3209 -5.5971 -2.0018 0.9731
3.5186 -5.4750 -2.0018 0.9731
3.7118 -5.3459 -2.0018 0.9731
4.0837 -5.0675 -2.0018 0.9731
4.6019 -4.6019 -2.0018 0.9731
4.7632 -4.4347 -2.0017 0.9731
4.9185 -4.2619 -2.0017 0.9731
5.0675 -4.0836 -2.0017 0.9731
5.7120 -3.1190 -2.0017 0.9731
6.0126 -2.4905 -2.0017 0.9731
6.0977 -2.2743 -2.0017 0.9731
6.1750 -2.0552 -2.0017 0.9731
6.2444 -1.8335 -2.0017 0.9731
6.3058 -1.6095 -2.0017 0.9731
6.3593 -1.3834 -2.0017 0.9731
6.4418 -0.9262 -2.0017 0.9731
6.5038 -0.2323 -2.0017 0.9731
-6.0227 0.0000 -2.0020 0.9749
-6.0188 -0.2150 -2.0020 0.9749
-5.9882 -0.6438 -2.0020 0.9749
-5.9614 -0.8571 -2.0020 0.9749
-5.9270 -1.0693 -2.0020 0.9749
-5.7787 -1.6968 -2.0020 0.9749
-5.7144 -1.9019 -2.0020 0.9749
-5.4784 -2.5019 -2.0020 0.9749
-5.2859 -2.8863 -2.0020 0.9749
-5.1795 -3.0732 -2.0020 0.9749
-4.8213 -3.6092 -2.0019 0.9749
-4.5516 -3.9439 -2.0019 0.9749
-4.4079 -4.1039 -2.0019 0.9749
-4.2586 -4.2586 -2.0019 0.9749
-3.9439 -4.5515 -2.0019 0.9749
-3.7789 -4.6894 -2.0019 0.9749
-3.4348 -4.9470 -2.0019 0.9749
-3.2560 -5.0664 -2.0019 0.9749
-3.0731 -5.1794 -2.0019 0.9749
-2.8863 -5.2858 -2.0019 0.9749
-2.6958 -5.3854 -2.0019 0.9749
-2.3047 -5.5640 -2.0019 0.9749
-1.6967 -5.7784 -2.0019 0.9749
-1.0693 -5.9267 -2.0019 0.9749
-0.8571 -5.9610 -2.0019 0.9749
-0.6438 -5.9878 -2.0019 0.9749
-0.0000 -6.0223 -2.0018 0.9749
0.2150 -6.0184 -2.0018 0.9749
0.8571 -5.9609 -2.0018 0.9749
1.9018 -5.7140 -2.0018 0.9749
2.1045 -5.6425 -2.0018 0.9749
2.3046 -5.5637 -2.0018 0.9749
2.5017 -5.4779 -2.0018 0.9749
2.6956 -5.3851 -2.0018 0.9749
2.8861 -5.2855 -2.0018 0.9749
3.0729 -5.1791 -2.0018 0.9749
3.4345 -4.9467 -2.0018 0.9749
3.7787 -4.6890 -2.0018 0.9749
4.1035 -4.4075 -2.0018 0.9749
4.4075 -4.1035 -2.0018 0.9749
4.5511 -3.9436 -2.0018 0.9749
4.8209 -3.6089 -2.0017 0.9749
4.9466 -3.4345 -2.0017 0.9749
5.0660 -3.2557 -2.0017 0.9749
5.1790 -3.0728 -2.0017 0.9749
5.2854 -2.8860 -2.0017 0.9749
5.3850 -2.6955 -2.0017 0.9749
5.4778 -2.5016 -2.0017 0.9749
5.8349 -1.4893 -2.0017 0.9749
5.8843 -1.2801 -2.0017 0.9749
5.9607 -0.8570 -2.0017 0.9749
5.9874 -0.6437 -2.0017 0.9749
6.0066 -0.4296 -2.0017 0.9749
-5.5661 -0.5984 -2.0020 0.9765
-5.5093 -0.9940 -2.0020 0.9765
-5.3714 -1.5772 -2.0020 0.9765
-5.0060 -2.5058 -2.0019 0.9765
-4.7095 -3.0266 -2.0019 0.9765
-4.5984 -3.1928 -2.0019 0.9765
-3.9585 -3.9585 -2.0019 0.9765
-3.6660 -4.2308 -2.0019 0.9765
-2.5058 -5.0059 -2.0019 0.9765
-2.3255 -5.0921 -2.0019 0.9765
-1.7679 -5.3115 -2.0019 0.9765
-1.5771 -5.3712 -2.0019 0.9765
-0.0000 -5.5979 -2.0018 0.9765
0.3993 -5.5836 -2.0018 0.9765
1.3844 -5.4239 -2.0018 0.9765
1.7678 -5.3113 -2.0018 0.9765
1.9562 -5.2448 -2.0018 0.9765
2.3254 -5.0919 -2.0018 0.9765
2.6827 -4.9130 -2.0018 0.9765
2.8564 -4.8141 -2.0018 0.9765
3.1925 -4.5981 -2.0018 0.9765
3.5124 -4.3586 -2.0018 0.9765
3.6657 -4.2304 -2.0018 0.9765
3.9581 -3.9582 -2.0018 0.9765
4.0969 -3.8143 -2.0018 0.9765
4.3586 -3.5123 -2.0018 0.9765
4.5980 -3.1925 -2.0018 0.9765
4.9129 -2.6827 -2.0017 0.9765
5.0055 -2.5056 -2.0017 0.9765
5.3111 -1.7677 -2.0017 0.9765
5.3709 -1.5770 -2.0017 0.9765
5.4237 -1.3843 -2.0017 0.9765
5.4697 -1.1899 -2.0017 0.9765
5.5087 -0.9939 -2.0017 0.9765
5.5655 -0.5984 -2.0017 0.9765
5.5940 -0.1998 -2.0017 0.9765
-5.1941 -0.5584 -2.0020 0.9779
-5.1411 -0.9275 -2.0020 0.9779
-5.1047 -1.1104 -2.0020 0.9779
-5.0618 -1.2919 -2.0020 0.9779
-5.0124 -1.4718 -2.0020 0.9779
-4.9567 -1.6497 -2.0019 0.9779
-4.8947 -1.8256 -2.0019 0.9779
-4.8264 -1.9991 -2.0019 0.9779
-4.7519 -2.1701 -2.0019 0.9779
-4.6715 -2.3384 -2.0019 0.9779
-4.5850 -2.5036 -2.0019 0.9779
-4.3947 -2.8243 -2.0019 0.9779
-4.2911 -2.9794 -2.0019 0.9779
-4.1820 -3.1306 -2.0019 0.9779
-4.0676 -3.2779 -2.0019 0.9779
-3.6939 -3.6939 -2.0019 0.9779
-3.4210 -3.9480 -2.0019 0.9779
-3.2779 -4.0676 -2.0019 0.9779
-3.1306 -4.1820 -2.0019 0.9779
-2.9793 -4.2910 -2.0019 0.9779
-2.8243 -4.3946 -2.0019 0.9779
-2.6656 -4.4926 -2.0019 0.9779
-2.3383 -4.6713 -2.0019 0.9779
-1.8256 -4.8945 -2.0019 0.9779
-1.2919 -5.0616 -2.0019 0.9779
-1.1104 -5.1044 -2.0019 0.9779
-0.9275 -5.1408 -2.0019 0.9779
-0.7434 -5.1706 -2.0019 0.9779
-0.5584 -5.1939 -2.0019 0.9779
-0.3727 -5.2105 -2.0019 0.9779
-0.1864 -5.2204 -2.0018 0.9779
-0.0000 -5.2238 -2.0018 0.9779
0.1865 -5.2204 -2.0018 0.9779
1.1104 -5.1043 -2.0018 0.9779
1.4717 -5.0121 -2.0018 0.9779
1.6496 -4.9564 -2.0018 0.9779
1.8255 -4.8943 -2.0018 0.9779
1.9990 -4.8260 -2.0018 0.9779
2.1700 -4.7516 -2.0018 0.9779
2.3382 -4.6711 -2.0018 0.9779
2.5034 -4.5847 -2.0018 0.9779
2.6655 -4.4924 -2.0018 0.9779
2.8241 -4.3944 -2.0018 0.9779
3.1304 -4.1817 -2.0018 0.9779
3.6936 -3.6936 -2.0018 0.9779
3.8231 -3.5594 -2.0018 0.9779
3.9477 -3.4207 -2.0018 0.9779
4.3943 -2.8241 -2.0018 0.9779
4.5846 -2.5034 -2.0018 0.9779
4.6710 -2.3381 -2.0018 0.9779
4.7515 -2.1699 -2.0018 0.9779
4.8259 -1.9990 -2.0018 0.9779
4.8942 -1.8254 -2.0017 0.9779
5.0119 -1.4716 -2.0017 0.9779
5.1405 -0.9275 -2.0017 0.9779
5.2202 -0.1864 -2.0017 0.9779
-1.8977 0.0000 -0.7767 0.9918
-1.9308 -0.0690 -0.7907 0.9917
-1.9569 -0.2104 -0.8055 0.9915
-1.9449 -0.2796 -0.8042 0.9915
-4.7395 -1.2097 -2.0019 0.9791
-4.6933 -1.3781 -2.0019 0.9791
-4.6411 -1.5447 -2.0019 0.9791
-4.5191 -1.8719 -2.0019 0.9791
-4.3740 -2.1895 -2.0019 0.9791
-4.2931 -2.3442 -2.0019 0.9791
-4.0179 -2.7897 -2.0019 0.9791
-3.6967 -3.2032 -2.0019 0.9791
-3.3331 -3.5800 -2.0019 0.9791
-3.2032 -3.6966 -2.0019 0.9791
-3.0692 -3.8086 -2.0019 0.9791
-2.4959 -4.2066 -2.0019 0.9791
-2.0319 -4.4493 -2.0019 0.9791
-1.8718 -4.5190 -2.0019 0.9791
-1.7093 -4.5829 -2.0019 0.9791
-1.5447 -4.6410 -2.0019 0.9791
-1.0397 -4.7795 -2.0019 0.9791
-0.6961 -4.8414 -2.0019 0.9791
-0.5228 -4.8632 -2.0019 0.9791
-0.1746 -4.8881 -2.0018 0.9791
0.0000 -4.8912 -2.0018 0.9791
0.3489 -4.8787 -2.0018 0.9791
0.8684 -4.8134 -2.0018 0.9791
1.3780 -4.6930 -2.0018 0.9791
1.5446 -4.6408 -2.0018 0.9791
1.7093 -4.5827 -2.0018 0.9791
1.8717 -4.5188 -2.0018 0.9791
2.3440 -4.2928 -2.0018 0.9791
2.4958 -4.2064 -2.0018 0.9791
2.6443 -4.1146 -2.0018 0.9791
3.0690 -3.8084 -2.0018 0.9791
3.2030 -3.6964 -2.0018 0.9791
3.3328 -3.5797 -2.0018 0.9791
3.4585 -3.4585 -2.0018 0.9791
3.5797 -3.3328 -2.0018 0.9791
3.6964 -3.2029 -2.0018 0.9791
3.8083 -3.0690 -2.0018 0.9791
3.9155 -2.9311 -2.0018 0.9791
4.2927 -2.3440 -2.0018 0.9791
4.5826 -1.7092 -2.0018 0.9791
4.6929 -1.3779 -2.0018 0.9791
4.7390 -1.2096 -2.0018 0.9791
4.8629 -0.5228 -2.0018 0.9791
4.8785 -0.3489 -2.0018 0.9791
4.8879 -0.1746 -2.0018 0.9791
-1.5222 0.0000 -0.6634 0.9934
-1.5249 -0.1639 -0.6684 0.9933
-1.5001 -0.2707 -0.6643 0.9934
-1.5485 -0.3952 -0.6965 0.9931
-1.5875 -0.5284 -0.7292 0.9927
-1.5984 -0.5962 -0.7435 0.9926
-4.2439 -1.7579 -2.0019 0.9802
-4.1784 -1.9082 -2.0019 0.9802
-4.1076 -2.0561 -2.0019 0.9802
-4.0316 -2.2014 -2.0019 0.9802
-3.9505 -2.3439 -2.0019 0.9802
-3.7732 -2.6198 -2.0019 0.9802
-3.4715 -3.0081 -2.0019 0.9802
-3.3619 -3.1301 -2.0019 0.9802
-3.2481 -3.2481 -2.0019 0.9802
-2.7528 -3.6772 -2.0019 0.9802
-2.4834 -3.8642 -2.0019 0.9802
-2.3439 -3.9504 -2.0019 0.9802
-2.0561 -4.1075 -2.0019 0.9802
-1.7578 -4.2437 -2.0019 0.9802
-1.6052 -4.3038 -2.0019 0.9802
-1.4506 -4.3583 -2.0019 0.9802
-1.1360 -4.4507 -2.0019 0.9802
-0.9764 -4.4884 -2.0019 0.9802
-0.8156 -4.5204 -2.0019 0.9802
-0.6537 -4.5466 -2.0019 0.9802
-0.3277 -4.5816 -2.0019 0.9802
0.0000 -4.5933 -2.0018 0.9802
0.1639 -4.5904 -2.0018 0.9802
0.3277 -4.5816 -2.0018 0.9802
0.4910 -4.5670 -2.0018 0.9802
1.2941 -4.4072 -2.0018 0.9802
1.4505 -4.3582 -2.0018 0.9802
1.6052 -4.3036 -2.0018 0.9802
1.9081 -4.1781 -2.0018 0.9802
2.0560 -4.1074 -2.0018 0.9802
2.2013 -4.0314 -2.0018 0.9802
2.4833 -3.8640 -2.0018 0.9802
2.7526 -3.6770 -2.0018 0.9802
2.8821 -3.5764 -2.0018 0.9802
3.4713 -3.0079 -2.0018 0.9802
3.5764 -2.8821 -2.0018 0.9802
3.6770 -2.7526 -2.0018 0.9802
3.8640 -2.4832 -2.0018 0.9802
3.9502 -2.3437 -2.0018 0.9802
4.1781 -1.9081 -2.0018 0.9802
4.2435 -1.7577 -2.0018 0.9802
4.3035 -1.6051 -2.0018 0.9802
4.3581 -1.4505 -2.0018 0.9802
4.4071 -1.2940 -2.0018 0.9802
4.4504 -1.1359 -2.0018 0.9802
4.5201 -0.8155 -2.0018 0.9802
4.5464 -0.6537 -2.0018 0.9802
4.5814 -0.3277 -2.0018 0.9802
4.5902 -0.1639 -2.0018 0.9802
-1.3333 0.0000 -0.6172 0.9941
-1.3384 -0.0957 -0.6211 0.9941
-1.3273 -0.1908 -0.6207 0.9941
-1.3116 -0.3348 -0.6266 0.9941
-1.3241 -0.3888 -0.6388 0.9939
-1.3324 -0.4435 -0.6500 0.9938
-1.3324 -0.4969 -0.6582 0.9938
-3.8674 -1.9359 -2.0019 0.9811
-3.7959 -2.0727 -2.0019 0.9811
-3.5525 -2.4666 -2.0019 0.9811
-3.4622 -2.5918 -2.0019 0.9811
-2.8322 -3.2685 -2.0019 0.9811
-2.7137 -3.3675 -2.0019 0.9811
-2.5918 -3.4622 -2.0019 0.9811
-2.4665 -3.5525 -2.0019 0.9811
-2.0727 -3.7958 -2.0019 0.9811
-1.7966 -3.9340 -2.0019 0.9811
-1.3658 -4.1035 -2.0019 0.9811
-1.0695 -4.1904 -2.0019 0.9811
-0.9193 -4.2259 -2.0019 0.9811
-0.7679 -4.2560 -2.0019 0.9811
-0.1544 -4.3220 -2.0018 0.9811
0.0000 -4.3247 -2.0018 0.9811
0.1544 -4.3220 -2.0018 0.9811
0.3085 -4.3137 -2.0018 0.9811
0.4623 -4.2999 -2.0018 0.9811
0.9193 -4.2258 -2.0018 0.9811
1.0695 -4.1903 -2.0018 0.9811
1.3657 -4.1033 -2.0018 0.9811
1.7965 -3.9338 -2.0018 0.9811
2.2067 -3.7192 -2.0018 0.9811
2.3381 -3.6381 -2.0018 0.9811
2.4664 -3.5523 -2.0018 0.9811
2.8320 -3.2683 -2.0018 0.9811
3.1651 -2.9468 -2.0018 0.9811
3.2683 -2.8320 -2.0018 0.9811
3.4620 -2.5916 -2.0018 0.9811
3.6381 -2.3380 -2.0018 0.9811
3.7192 -2.2067 -2.0018 0.9811
3.8671 -1.9357 -2.0018 0.9811
3.9337 -1.7965 -2.0018 0.9811
3.9954 -1.6549 -2.0018 0.9811
4.1032 -1.3657 -2.0018 0.9811
4.1494 -1.2184 -2.0018 0.9811
4.2257 -0.9192 -2.0018 0.9811
4.2558 -0.7678 -2.0018 0.9811
4.3135 -0.3085 -2.0018 0.9811
4.3218 -0.1544 -2.0018 0.9811
-1.1954 0.0000 -0.5864 0.9947
-1.1965 -0.0427 -0.5873 0.9947
-1.1921 -0.1282 -0.5881 0.9947
-1.1695 -0.2544 -0.5871 0.9947
-1.1578 -0.2955 -0.5861 0.9947
-1.1400 -0.5206 -0.6148 0.9944
-1.1291 -0.5652 -0.6194 0.9944
-1.1113 -0.6068 -0.6211 0.9944
-3.5099 -2.0825 -2.0019 0.9820
-3.2672 -2.4458 -2.0019 0.9820
-3.1778 -2.5608 -2.0019 0.9820
-2.9870 -2.7810 -2.0019 0.9820
-2.5608 -3.1777 -2.0019 0.9820
-2.3276 -3.3523 -2.0019 0.9820
-2.0825 -3.5098 -2.0019 0.9820
-1.9559 -3.5819 -2.0019 0.9820
-1.6954 -3.7123 -2.0019 0.9820
-1.2888 -3.8722 -2.0019 0.9820
-1.1498 -3.9158 -2.0019 0.9820
-1.0093 -3.9543 -2.0019 0.9820
-0.8675 -3.9878 -2.0019 0.9820
-0.5808 -4.0395 -2.0019 0.9820
-0.1457 -4.0784 -2.0018 0.9820
0.1457 -4.0784 -2.0018 0.9820
0.4362 -4.0576 -2.0018 0.9820
0.5808 -4.0395 -2.0018 0.9820
0.7246 -4.0162 -2.0018 0.9820
0.8675 -3.9877 -2.0018 0.9820
1.2888 -3.8721 -2.0018 0.9820
1.4262 -3.8237 -2.0018 0.9820
1.5617 -3.7703 -2.0018 0.9820
1.6953 -3.7122 -2.0018 0.9820
1.8267 -3.6493 -2.0018 0.9820
1.9558 -3.5818 -2.0018 0.9820
2.0824 -3.5097 -2.0018 0.9820
2.3275 -3.3522 -2.0018 0.9820
2.4456 -3.2670 -2.0018 0.9820
2.5607 -3.1776 -2.0018 0.9820
2.9868 -2.7808 -2.0018 0.9820
3.1776 -2.5606 -2.0018 0.9820
3.3521 -2.3274 -2.0018 0.9820
3.5096 -2.0824 -2.0018 0.9820
3.6492 -1.8267 -2.0018 0.9820
3.8236 -1.4261 -2.0018 0.9820
3.9541 -1.0092 -2.0018 0.9820
4.0575 -0.4362 -2.0018 0.9820
4.0705 -0.2911 -2.0018 0.9820
-1.1066 -0.0395 -0.5744 0.9950
-1.1024 -0.1185 -0.5752 0.9950
-1.0814 -0.2352 -0.5741 0.9950
-1.0636 -0.3123 -0.5751 0.9950
-1.0617 -0.3534 -0.5805 0.9950
-1.0430 -0.4763 -0.5948 0.9948
-1.0118 -0.5525 -0.5981 0.9948
-3.2463 -2.0863 -2.0019 0.9828
-3.0892 -2.3125 -2.0019 0.9828
-2.8243 -2.6295 -2.0019 0.9828
-2.5270 -2.9163 -2.0019 0.9828
-2.3125 -3.0892 -2.0019 0.9828
-2.2008 -3.1697 -2.0019 0.9828
-1.9691 -3.3187 -2.0019 0.9828
-1.6030 -3.5101 -2.0019 0.9828
-1.4767 -3.5651 -2.0019 0.9828
-1.2186 -3.6613 -2.0019 0.9828
-0.9543 -3.7389 -2.0019 0.9828
-0.8202 -3.7706 -2.0019 0.9828
-0.5492 -3.8195 -2.0019 0.9828
-0.1377 -3.8563 -2.0018 0.9828
-0.0000 -3.8588 -2.0018 0.9828
0.2753 -3.8489 -2.0018 0.9828
0.5492 -3.8195 -2.0018 0.9828
0.8202 -3.7705 -2.0018 0.9828
1.0871 -3.7024 -2.0018 0.9828
1.2186 -3.6612 -2.0018 0.9828
1.4767 -3.5650 -2.0018 0.9828
1.6030 -3.5100 -2.0018 0.9828
1.8493 -3.3867 -2.0018 0.9828
2.2007 -3.1696 -2.0018 0.9828
2.3124 -3.0890 -2.0018 0.9828
2.7285 -2.7285 -2.0018 0.9828
2.8241 -2.6294 -2.0018 0.9828
2.9162 -2.5269 -2.0018 0.9828
3.0045 -2.4212 -2.0018 0.9828
3.0890 -2.3124 -2.0018 0.9828
3.2461 -2.0861 -2.0018 0.9828
3.3185 -1.9689 -2.0018 0.9828
3.4505 -1.7272 -2.0018 0.9828
3.5099 -1.6029 -2.0018 0.9828
3.5649 -1.4766 -2.0018 0.9828
3.6153 -1.3485 -2.0018 0.9828
3.7023 -1.0871 -2.0018 0.9828
3.7704 -0.8202 -2.0018 0.9828
3.8193 -0.5491 -2.0018 0.9828
3.8365 -0.4125 -2.0018 0.9828
-1.0276 -0.0367 -0.5632 0.9953
-1.0190 -0.1465 -0.5638 0.9953
-1.0124 -0.1826 -0.5634 0.9953
-0.9741 -0.3633 -0.5694 0.9953
-0.9580 -0.4375 -0.5768 0.9952
-0.9269 -0.5061 -0.5784 0.9952
-0.8882 -0.5708 -0.5782 0.9952
-0.8661 -0.6014 -0.5775 0.9952
-2.7623 -2.3936 -2.0019 0.9835
-2.6751 -2.4906 -2.0019 0.9835
-2.5845 -2.5845 -2.0019 0.9835
-2.0846 -3.0023 -2.0019 0.9835
-1.6361 -3.2684 -2.0019 0.9835
-1.5184 -3.3247 -2.0019 0.9835
-1.2773 -3.4246 -2.0019 0.9835
-1.1543 -3.4680 -2.0019 0.9835
-1.0297 -3.5070 -2.0019 0.9835
-0.7769 -3.5715 -2.0019 0.9835
-0.5202 -3.6178 -2.0019 0.9835
-0.3907 -3.6340 -2.0019 0.9835
-0.2607 -3.6457 -2.0019 0.9835
0.0000 -3.6550 -2.0018 0.9835
0.2607 -3.6457 -2.0018 0.9835
0.5202 -3.6178 -2.0018 0.9835
0.6490 -3.5969 -2.0018 0.9835
0.7769 -3.5714 -2.0018 0.9835
1.0297 -3.5069 -2.0018 0.9835
1.2773 -3.4245 -2.0018 0.9835
1.3987 -3.3767 -2.0018 0.9835
1.5183 -3.3246 -2.0018 0.9835
1.6360 -3.2683 -2.0018 0.9835
1.9760 -3.0747 -2.0018 0.9835
2.1903 -2.9259 -2.0018 0.9835
2.4905 -2.6750 -2.0018 0.9835
2.5844 -2.5844 -2.0018 0.9835
2.6750 -2.4905 -2.0018 0.9835
2.7622 -2.3934 -2.0018 0.9835
2.8458 -2.2933 -2.0018 0.9835
2.9259 -2.1903 -2.0018 0.9835
3.1432 -1.8650 -2.0018 0.9835
3.2078 -1.7516 -2.0018 0.9835
3.2683 -1.6360 -2.0018 0.9835
3.3246 -1.5183 -2.0018 0.9835
3.5413 -0.9039 -2.0018 0.9835
3.5713 -0.7769 -2.0018 0.9835
3.5968 -0.6489 -2.0018 0.9835
3.6177 -0.5201 -2.0018 0.9835
3.6339 -0.3907 -2.0018 0.9835
3.6455 -0.2607 -2.0018 0.9835
-0.9565 -0.0684 -0.5536 0.9956
-0.9538 -0.1025 -0.5538 0.9956
-0.9430 -0.1701 -0.5532 0.9956
-0.9353 -0.2034 -0.5526 0.9956
-0.9259 -0.2363 -0.5517 0.9956
-0.9057 -0.3015 -0.5511 0.9956
-0.9011 -0.3361 -0.5553 0.9956
-0.8941 -0.3703 -0.5587 0.9955
-0.8364 -0.4963 -0.5615 0.9955
-0.8178 -0.5256 -0.5613 0.9955
-2.6205 -2.2707 -2.0019 0.9841
-2.5378 -2.3627 -2.0019 0.9841
-2.3627 -2.5378 -2.0019 0.9841
-2.2707 -2.6205 -2.0019 0.9841
-2.1757 -2.6998 -2.0019 0.9841
-1.9775 -2.8482 -2.0019 0.9841
-1.7693 -2.9820 -2.0019 0.9841
-1.6617 -3.0432 -2.0019 0.9841
-1.5520 -3.1006 -2.0019 0.9841
-1.4404 -3.1540 -2.0019 0.9841
-1.3269 -3.2034 -2.0019 0.9841
-1.2117 -3.2487 -2.0019 0.9841
-0.9769 -3.3269 -2.0019 0.9841
-0.8575 -3.3596 -2.0019 0.9841
-0.7370 -3.3881 -2.0019 0.9841
-0.6156 -3.4122 -2.0019 0.9841
0.2474 -3.4585 -2.0018 0.9841
0.3706 -3.4474 -2.0018 0.9841
0.4934 -3.4320 -2.0018 0.9841
0.7370 -3.3880 -2.0018 0.9841
0.8575 -3.3596 -2.0018 0.9841
0.9768 -3.3268 -2.0018 0.9841
1.0950 -3.2898 -2.0018 0.9841
1.2117 -3.2486 -2.0018 0.9841
1.3269 -3.2033 -2.0018 0.9841
1.5520 -3.1005 -2.0018 0.9841
1.6617 -3.0431 -2.0018 0.9841
1.7692 -2.9819 -2.0018 0.9841
1.8745 -2.9168 -2.0018 0.9841
1.9774 -2.8481 -2.0018 0.9841
2.0778 -2.7757 -2.0018 0.9841
2.4517 -2.4517 -2.0018 0.9841
2.6203 -2.2705 -2.0018 0.9841
2.6997 -2.1756 -2.0018 0.9841
2.7756 -2.0778 -2.0018 0.9841
2.8480 -1.9774 -2.0018 0.9841
2.9818 -1.7692 -2.0018 0.9841
3.0431 -1.6616 -2.0018 0.9841
3.1005 -1.5520 -2.0018 0.9841
1.8620 -0.7713 -1.1636 0.9907
1.9033 -0.6335 -1.1581 0.9908
1.9883 -0.4325 -1.1748 0.9906
2.0300 -0.2919 -1.1841 0.9906
2.0359 -0.1456 -1.1784 0.9906
2.0320 -0.0726 -1.1739 0.9907
