ply
format ascii 1.0
element vertex 856
property float32 x
property float32 y
property float32 z
property float32 I
end_header
2.9287 6.4130 1.2431 0.9718
-5.8672 5.8672 1.4631 0.9669
-5.9922 5.5789 1.4436 0.9673
-6.3167 5.4735 1.4738 0.9666
3.1573 6.3075 1.0806 0.9719
2.9237 6.4019 1.0782 0.9719
2.7656 6.6768 1.1071 0.9712
-5.6111 6.0268 1.2615 0.9672
-6.0035 5.5895 1.2566 0.9674
-7.8595 4.6633 1.4000 0.9637
3.1547 6.3022 0.9178 0.9720
2.9186 6.3910 0.9149 0.9721
-5.5898 6.4509 1.1115 0.9662
-5.7777 5.7777 1.0640 0.9676
2.7559 6.6533 0.7733 0.9714
-6.8591 5.9434 0.9746 0.9641
-7.1129 5.7319 0.9809 0.9639
-7.3704 5.5174 0.9886 0.9636
-5.7777 5.7777 0.6917 0.9677
-7.1129 5.7319 0.7733 0.9640
-7.3704 5.5174 0.7794 0.9637
2.7464 6.6303 0.4450 0.9716
-6.8287 5.9171 0.5603 0.9644
-7.0814 5.7066 0.5640 0.9642
-7.3378 5.4930 0.5684 0.9639
3.1443 6.2814 0.2770 0.9723
2.8990 6.3479 0.2752 0.9725
-6.8287 5.9171 0.3563 0.9645
-7.0814 5.7066 0.3586 0.9642
-7.3378 5.4930 0.3614 0.9640
3.1417 6.2763 0.1186 0.9723
2.7369 6.6076 0.1208 0.9718
-6.5734 6.1200 0.1517 0.9647
2.8893 6.3268 -0.0392 0.9726
-7.0814 5.7066 -0.0512 0.9643
3.1366 6.2661 -0.1973 0.9723
2.8845 6.3162 -0.1955 0.9726
2.7276 6.5850 -0.2007 0.9719
-6.5734 6.1200 -0.2529 0.9647
-6.8287 5.9171 -0.2544 0.9645
-7.0814 5.7066 -0.2561 0.9643
-7.3378 5.4930 -0.2581 0.9640
2.7229 6.5738 -0.3609 0.9719
-7.3378 5.4930 -0.4648 0.9640
3.1315 6.2559 -0.5129 0.9723
2.7183 6.5626 -0.5208 0.9719
-3.1909 3.1909 -0.3309 0.9821
-2.0552 3.4638 -0.3867 0.9839
-2.0817 3.2391 -0.3697 0.9846
-2.2977 2.8513 -0.3516 0.9854
-2.3912 2.7595 -0.3506 0.9854
-2.5003 2.6855 -0.3523 0.9854
-2.7526 2.5627 -0.3611 0.9850
-3.3262 2.4899 -0.3989 0.9834
2.8654 6.2743 -0.8193 0.9726
2.7090 6.5401 -0.8409 0.9719
-1.9295 3.5335 -0.4782 0.9839
-1.9304 3.2535 -0.4494 0.9849
-1.9448 3.0262 -0.4273 0.9856
-2.1697 2.5040 -0.3936 0.9867
-2.3123 2.4835 -0.4031 0.9864
-2.4755 2.4755 -0.4159 0.9860
-2.6508 2.4680 -0.4302 0.9855
-2.8454 2.4656 -0.4472 0.9849
-3.0457 2.4543 -0.4646 0.9844
-3.2627 2.4424 -0.4841 0.9837
-3.5046 2.4333 -0.5068 0.9830
2.8606 6.2638 -0.9757 0.9726
-1.8320 3.6598 -0.5799 0.9836
-1.8106 3.3158 -0.5353 0.9849
-1.8351 3.0929 -0.5096 0.9856
-1.8715 2.9121 -0.4905 0.9861
-1.9133 2.7556 -0.4753 0.9865
-1.9625 2.6216 -0.4640 0.9869
-2.1295 2.4575 -0.4607 0.9869
-2.4447 2.4447 -0.4899 0.9861
-2.7974 2.4240 -0.5245 0.9852
-3.2046 2.3990 -0.5672 0.9840
-3.6941 2.3740 -0.6222 0.9824
-8.9283 3.3301 -1.3502 0.9622
4.2403 7.7656 -1.4576 0.9648
2.6997 6.5176 -1.1622 0.9718
-1.7026 3.4014 -0.6266 0.9847
-1.8018 2.8036 -0.5490 0.9866
-1.8491 2.6631 -0.5341 0.9869
-2.0990 2.4224 -0.5280 0.9871
-2.2503 2.4170 -0.5440 0.9867
-2.5746 2.3970 -0.5795 0.9858
-3.1502 2.3582 -0.6483 0.9842
-3.3739 2.3426 -0.6767 0.9835
-3.8986 2.3132 -0.7468 0.9818
-8.9742 3.3472 -1.5779 0.9619
5.3712 5.0008 -1.3794 0.9706
3.1185 6.2300 -1.3095 0.9720
2.8509 6.2426 -1.2900 0.9725
2.6950 6.5063 -1.3237 0.9717
1.9063 6.4923 -1.2718 0.9728
1.9165 7.5087 -1.4566 0.9690
-1.6186 3.2335 -0.6797 0.9854
-1.6960 2.8585 -0.6247 0.9866
-1.7428 2.7119 -0.6059 0.9870
-2.2174 2.3816 -0.6116 0.9868
-2.5358 2.3609 -0.6512 0.9860
-2.8967 2.3343 -0.6993 0.9850
-3.3149 2.3016 -0.7585 0.9837
-3.5529 2.2833 -0.7938 0.9830
-8.9742 3.3472 -1.8003 0.9618
9.4653 0.3381 -2.0021 0.9620
9.4171 1.0125 -2.0021 0.9620
9.3750 1.3479 -2.0021 0.9620
9.3209 1.6817 -2.0021 0.9620
9.2549 2.0133 -2.0021 0.9620
9.1772 2.3423 -2.0021 0.9620
8.8742 3.3099 -2.0021 0.9620
8.7504 3.6245 -2.0021 0.9620
7.7787 4.2475 -1.8734 0.9644
7.3620 4.7313 -1.8498 0.9649
7.1884 4.9910 -1.8498 0.9649
7.0057 5.2444 -1.8498 0.9649
6.8140 5.4911 -1.8498 0.9649
5.7307 6.6136 -1.8498 0.9649
5.4910 6.8140 -1.8498 0.9649
4.1112 5.4919 -1.4501 0.9723
3.8123 5.4907 -1.4130 0.9730
3.2565 5.4886 -1.3490 0.9742
2.4991 5.4725 -1.2717 0.9757
2.6903 6.4949 -1.4860 0.9717
2.8807 7.7235 -1.7425 0.9669
1.9021 6.4778 -1.4271 0.9728
1.9165 7.5087 -1.6381 0.9688
1.8601 8.5508 -1.8497 0.9649
1.5537 8.6117 -1.8497 0.9649
1.2453 8.6616 -1.8497 0.9649
0.6243 8.7283 -1.8497 0.9649
-0.3123 8.7449 -1.8497 0.9649
-0.9354 8.7003 -1.8497 0.9649
-1.2453 8.6613 -1.8497 0.9649
-1.8600 8.5504 -1.8496 0.9649
-2.4652 8.3958 -1.8496 0.9649
-2.7633 8.3024 -1.8496 0.9649
-1.4413 3.8644 -0.8718 0.9833
-1.4997 3.6207 -0.8284 0.9841
-1.5190 3.3262 -0.7729 0.9852
-1.5947 2.9205 -0.7034 0.9865
-1.6903 2.6302 -0.6609 0.9873
-1.7466 2.5155 -0.6473 0.9876
-1.8153 2.4249 -0.6403 0.9877
-1.9056 2.3647 -0.6419 0.9877
-2.4988 2.3265 -0.7217 0.9861
-2.8514 2.2978 -0.7741 0.9851
-3.2620 2.2649 -0.8394 0.9839
-3.4690 2.2294 -0.8716 0.9833
-3.6926 2.1909 -0.9076 0.9826
-3.9463 2.1548 -0.9504 0.9818
-8.6021 3.9284 -1.9990 0.9621
-9.1753 2.3418 -2.0016 0.9620
-9.2530 2.0129 -2.0016 0.9620
8.5184 0.0000 -2.0020 0.9656
8.5130 0.3040 -2.0020 0.9656
8.4968 0.6077 -2.0020 0.9656
8.4697 0.9106 -2.0020 0.9656
8.4318 1.2123 -2.0020 0.9656
8.3831 1.5125 -2.0020 0.9656
8.2539 2.1067 -2.0020 0.9656
8.1734 2.3999 -2.0020 0.9656
7.9814 2.9769 -2.0020 0.9656
7.8700 3.2599 -2.0020 0.9656
7.6149 3.8118 -2.0014 0.9656
7.1221 4.2258 -1.9463 0.9665
6.6213 4.2553 -1.8498 0.9682
5.3632 5.7605 -1.8498 0.9682
2.9964 5.4876 -1.4695 0.9746
2.5050 5.4852 -1.4172 0.9755
2.2719 5.4848 -1.3953 0.9759
1.9050 5.7236 -1.4177 0.9755
1.9202 6.5397 -1.6019 0.9724
1.6730 7.6905 -1.8497 0.9682
1.3974 7.7453 -1.8497 0.9682
1.1201 7.7902 -1.8497 0.9682
0.8413 7.8252 -1.8497 0.9682
0.2809 7.8652 -1.8497 0.9682
-0.2809 7.8652 -1.8497 0.9682
-0.5615 7.8501 -1.8497 0.9682
-0.8413 7.8250 -1.8497 0.9682
-0.8150 3.7465 -0.9011 0.9844
-0.9242 3.6209 -0.8783 0.9848
-1.4958 2.9882 -0.7854 0.9864
-1.6435 2.5573 -0.7145 0.9876
-1.7039 2.4540 -0.7021 0.9878
-1.8774 2.3297 -0.7032 0.9878
-2.0165 2.3271 -0.7237 0.9874
-2.1577 2.3175 -0.7442 0.9871
-2.6304 2.2793 -0.8180 0.9858
-2.8109 2.2651 -0.8484 0.9853
-2.9782 2.2295 -0.8744 0.9848
-3.3691 2.1652 -0.9412 0.9837
-3.5955 2.1333 -0.9826 0.9830
-4.1744 2.0896 -1.0971 0.9810
-7.7473 3.5381 -2.0017 0.9656
-7.9799 2.9763 -2.0017 0.9656
-8.0811 2.6896 -2.0017 0.9656
-8.1719 2.3995 -2.0017 0.9656
-8.2523 2.1063 -2.0017 0.9656
-8.3222 1.8104 -2.0017 0.9656
-8.3815 1.5122 -2.0017 0.9656
-8.4301 1.2121 -2.0017 0.9656
-8.4680 0.9104 -2.0016 0.9656
-8.4951 0.6076 -2.0016 0.9656
-8.5114 0.3040 -2.0016 0.9656
7.7273 0.2760 -2.0020 0.9686
7.7125 0.5516 -2.0020 0.9686
7.6094 1.3729 -2.0020 0.9686
7.5555 1.6436 -2.0020 0.9686
7.4921 1.9123 -2.0020 0.9686
7.3366 2.4418 -2.0020 0.9686
7.1437 2.9590 -2.0020 0.9686
7.0335 3.2121 -2.0020 0.9686
6.9144 3.4611 -2.0020 0.9686
6.4824 4.1660 -1.9951 0.9687
6.0757 4.2184 -1.9151 0.9699
5.7193 4.2814 -1.8498 0.9709
5.5629 4.4828 -1.8498 0.9709
5.3993 4.6785 -1.8498 0.9709
5.2289 4.8683 -1.8498 0.9709
4.8682 5.2289 -1.8498 0.9709
4.6785 5.3993 -1.8498 0.9709
4.4828 5.5628 -1.8498 0.9709
4.0421 5.3996 -1.7464 0.9725
3.2565 5.4886 -1.6524 0.9740
2.9964 5.4876 -1.6189 0.9745
2.7464 5.4866 -1.5886 0.9750
2.5052 5.4857 -1.5614 0.9754
2.0454 5.4839 -1.5154 0.9761
1.9232 5.7782 -1.5768 0.9752
1.7668 6.9221 -1.8497 0.9709
1.5186 6.9808 -1.8497 0.9709
1.2684 7.0305 -1.8497 0.9709
0.5096 7.1257 -1.8497 0.9709
-0.0000 7.1439 -1.8497 0.9709
-0.2550 7.1393 -1.8497 0.9709
-0.5096 7.1256 -1.8497 0.9709
-0.7428 3.4145 -0.9048 0.9857
-0.8486 3.3246 -0.8884 0.9859
-1.0518 3.1601 -0.8623 0.9863
-1.1519 3.0884 -0.8534 0.9865
-1.4466 2.8899 -0.8368 0.9867
-1.5456 2.6049 -0.7842 0.9876
-1.6650 2.3981 -0.7559 0.9880
-1.7437 2.3293 -0.7534 0.9880
-1.8801 2.1697 -0.7433 0.9882
-1.9298 2.0727 -0.7333 0.9884
-2.4186 2.2518 -0.8556 0.9864
-2.8988 2.1700 -0.9376 0.9851
-3.0852 2.1421 -0.9725 0.9846
-3.2939 2.1169 -1.0138 0.9840
-3.5289 2.0938 -1.0624 0.9832
-3.8053 2.0778 -1.1226 0.9822
-4.1511 2.0779 -1.2019 0.9810
-7.4178 2.1781 -2.0017 0.9686
-7.4908 1.9119 -2.0017 0.9686
-7.5542 1.6433 -2.0017 0.9686
-7.6522 1.1002 -2.0017 0.9686
-7.6866 0.8264 -2.0017 0.9686
-7.7260 0.2759 -2.0017 0.9686
7.0719 0.0000 -2.0020 0.9710
7.0539 0.5045 -2.0020 0.9710
7.0314 0.7560 -2.0020 0.9710
6.9595 1.2556 -2.0020 0.9710
6.9103 1.5033 -2.0020 0.9710
6.7100 2.2333 -2.0020 0.9710
6.5336 2.7063 -2.0020 0.9710
6.2068 3.3892 -2.0020 0.9710
5.9458 3.8211 -2.0008 0.9710
5.7955 4.0239 -1.9974 0.9711
5.6128 4.2017 -1.9848 0.9713
5.2310 4.2154 -1.9018 0.9725
4.9382 4.2790 -1.8498 0.9732
4.7823 4.4525 -1.8498 0.9732
4.4525 4.7823 -1.8498 0.9732
4.0999 5.0877 -1.8498 0.9732
3.9157 5.2308 -1.8498 0.9732
3.7265 5.3672 -1.8498 0.9732
3.4687 5.3974 -1.8163 0.9737
3.2018 5.3964 -1.7763 0.9743
2.9461 5.3954 -1.7403 0.9748
2.7015 5.3969 -1.7086 0.9752
2.4877 5.4474 -1.6953 0.9754
2.0454 5.4839 -1.6569 0.9760
1.8912 5.6820 -1.6953 0.9754
1.6159 6.3310 -1.8497 0.9732
1.3889 6.3846 -1.8497 0.9732
1.1601 6.4301 -1.8497 0.9732
0.9299 6.4674 -1.8497 0.9732
0.4661 6.5172 -1.8497 0.9732
-0.4661 6.5171 -1.8497 0.9732
-0.4965 3.4531 -0.9876 0.9856
-0.5915 3.2783 -0.9431 0.9862
-0.7875 3.0852 -0.9014 0.9869
-0.9681 2.9086 -0.8678 0.9873
-1.0617 2.8465 -0.8600 0.9874
-1.2474 2.7313 -0.8500 0.9876
-1.3803 2.7575 -0.8730 0.9873
-1.4255 2.6106 -0.8420 0.9877
-1.5032 2.5335 -0.8340 0.9878
-1.6297 2.3472 -0.8089 0.9882
-1.7153 2.2914 -0.8103 0.9882
-1.8546 2.1403 -0.8017 0.9883
-1.8925 2.0327 -0.7862 0.9885
-2.3587 2.1960 -0.9123 0.9867
-2.6613 2.1446 -0.9676 0.9859
-2.8371 2.1238 -1.0033 0.9854
-3.0071 2.0878 -1.0364 0.9849
-3.2428 2.0840 -1.0913 0.9841
-3.7829 2.0656 -1.2202 0.9822
-4.2486 2.1267 -1.3450 0.9804
-6.4319 2.9373 -2.0017 0.9710
-6.6250 2.4710 -2.0017 0.9710
-6.7090 2.2329 -2.0017 0.9710
-6.8512 1.7487 -2.0017 0.9710
-6.9584 1.2554 -2.0017 0.9710
-6.9988 1.0063 -2.0017 0.9710
-7.0302 0.7558 -2.0017 0.9710
-7.0527 0.5044 -2.0017 0.9710
-7.0662 0.2524 -2.0017 0.9710
6.5089 0.0000 -2.0020 0.9731
6.4923 0.4643 -2.0020 0.9731
6.4716 0.6958 -2.0020 0.9731
6.4426 0.9263 -2.0020 0.9731
6.4055 1.1557 -2.0020 0.9731
6.3601 1.3836 -2.0020 0.9731
6.1758 2.0555 -2.0020 0.9731
6.0134 2.4908 -2.0020 0.9731
5.9207 2.7039 -2.0020 0.9731
5.8204 2.9135 -2.0020 0.9731
5.7127 3.1194 -2.0020 0.9731
5.5977 3.3213 -2.0020 0.9731
4.8477 4.2006 -1.9729 0.9735
4.0980 4.4016 -1.8498 0.9751
3.9383 4.5450 -1.8498 0.9751
3.4299 4.9399 -1.8497 0.9751
3.2513 5.0592 -1.8497 0.9751
3.0687 5.1720 -1.8497 0.9751
2.8821 5.2782 -1.8497 0.9751
2.4631 5.3935 -1.8237 0.9755
2.2337 5.3926 -1.7953 0.9759
2.0110 5.3917 -1.7700 0.9762
1.6943 5.7702 -1.8497 0.9751
1.2783 5.8763 -1.8497 0.9751
0.6428 5.9792 -1.8497 0.9751
0.2146 6.0098 -1.8497 0.9751
-0.2146 6.0098 -1.8497 0.9751
-0.4682 3.2561 -1.0118 0.9863
-0.9043 2.7168 -0.8807 0.9881
-0.9874 2.6473 -0.8690 0.9882
-1.0739 2.5925 -0.8631 0.9883
-1.2498 2.4968 -0.8588 0.9884
-1.3309 2.4374 -0.8542 0.9884
-1.4264 2.4041 -0.8598 0.9884
-1.5973 2.3006 -0.8614 0.9883
-1.8020 2.2362 -0.8833 0.9881
-1.9105 2.2049 -0.8973 0.9879
-2.1689 2.1689 -0.9434 0.9872
-2.4523 2.1249 -0.9980 0.9865
-2.6138 2.1063 -1.0325 0.9861
-2.7918 2.0899 -1.0726 0.9855
-3.2225 2.0709 -1.1782 0.9841
-6.0126 2.4905 -2.0017 0.9731
-6.0976 2.2743 -2.0017 0.9731
-6.1749 2.0552 -2.0017 0.9731
-6.2443 1.8335 -2.0017 0.9731
-6.4417 0.9262 -2.0017 0.9731
-6.4706 0.6957 -2.0017 0.9731
-6.5038 0.2323 -2.0017 0.9731
6.0227 -0.0000 -2.0020 0.9749
6.0189 0.2150 -2.0020 0.9749
6.0074 0.4296 -2.0020 0.9749
5.9614 0.8571 -2.0020 0.9749
5.9270 1.0694 -2.0020 0.9749
5.8851 1.2802 -2.0020 0.9749
5.8356 1.4895 -2.0020 0.9749
5.7145 1.9020 -2.0020 0.9749
5.6430 2.1047 -2.0020 0.9749
5.2860 2.8864 -2.0020 0.9749
5.1796 3.0732 -2.0020 0.9749
4.9471 3.4349 -2.0020 0.9749
4.6882 3.7780 -2.0014 0.9749
4.5442 3.9376 -1.9987 0.9750
4.3950 4.0919 -1.9961 0.9750
4.1977 4.1977 -1.9733 0.9753
3.9178 4.2080 -1.9111 0.9761
3.6555 4.2186 -1.8555 0.9767
3.4917 4.3329 -1.8497 0.9768
3.1737 4.5710 -1.8497 0.9768
3.0085 4.6813 -1.8497 0.9768
2.8395 4.7857 -1.8497 0.9768
2.4908 4.9761 -1.8497 0.9768
1.9446 5.2138 -1.8497 0.9768
1.7573 5.2799 -1.8497 0.9768
1.5677 5.3392 -1.8497 0.9768
1.1828 5.4374 -1.8497 0.9768
0.3970 5.5503 -1.8497 0.9768
-0.0000 5.5645 -1.8497 0.9768
-0.1986 5.5609 -1.8497 0.9768
-0.5202 2.8834 -0.9739 0.9877
-0.9277 2.4872 -0.8824 0.9889
-1.3526 2.2798 -0.8812 0.9889
-1.5442 2.2241 -0.9000 0.9887
-1.6511 2.2056 -0.9158 0.9885
-1.7600 2.1840 -0.9324 0.9882
-1.9964 2.1443 -0.9739 0.9877
-2.5779 2.0774 -1.1005 0.9861
-2.9816 2.0702 -1.2066 0.9848
-5.4778 2.5016 -2.0017 0.9749
-5.5635 2.3045 -2.0017 0.9749
-5.9262 1.0692 -2.0017 0.9749
-5.9606 0.8570 -2.0017 0.9749
-5.9874 0.6437 -2.0017 0.9749
5.5947 0.1998 -2.0020 0.9765
5.5840 0.3994 -2.0020 0.9765
5.5412 0.7967 -2.0020 0.9765
5.5093 0.9940 -2.0020 0.9765
5.4703 1.1900 -2.0020 0.9765
5.3117 1.7679 -2.0020 0.9765
5.2453 1.9564 -2.0020 0.9765
5.0923 2.3256 -2.0020 0.9765
5.0061 2.5059 -2.0020 0.9765
4.9134 2.6829 -2.0020 0.9765
4.8145 2.8566 -2.0020 0.9765
4.7095 3.0266 -2.0020 0.9765
4.4816 3.3549 -2.0020 0.9765
4.0949 3.8125 -2.0008 0.9765
3.9515 3.9515 -1.9984 0.9765
3.8036 4.0854 -1.9961 0.9766
3.6334 4.1932 -1.9841 0.9767
3.3863 4.2022 -1.9299 0.9773
3.1518 4.2103 -1.8808 0.9779
2.9500 4.2488 -1.8497 0.9783
2.6394 4.4484 -1.8497 0.9783
2.4789 4.5398 -1.8497 0.9783
2.3153 4.6254 -1.8497 0.9783
1.9794 4.7787 -1.8497 0.9783
1.6335 4.9078 -1.8497 0.9783
1.0995 5.0542 -1.8497 0.9783
0.9184 5.0902 -1.8497 0.9783
0.3690 5.1592 -1.8497 0.9783
0.1846 5.1691 -1.8497 0.9783
-0.1846 5.1690 -1.8497 0.9783
-0.2312 3.2322 -1.1588 0.9863
-0.4096 2.8487 -1.0292 0.9878
-0.4921 2.7275 -0.9911 0.9883
-0.6487 2.5417 -0.9381 0.9889
-0.7253 2.4702 -0.9206 0.9891
-0.7994 2.4018 -0.9052 0.9893
-0.8754 2.3470 -0.8958 0.9894
-1.0388 2.2747 -0.8943 0.9894
-1.1253 2.2480 -0.8990 0.9894
-1.2145 2.2243 -0.9063 0.9893
-1.3096 2.2072 -0.9178 0.9892
-1.4087 2.1919 -0.9318 0.9890
-1.7253 2.1410 -0.9833 0.9884
-1.8410 2.1246 -1.0053 0.9881
-2.0945 2.0945 -1.0593 0.9875
-2.2353 2.0812 -1.0922 0.9871
-2.7642 2.0692 -1.2348 0.9854
-3.2273 2.0741 -1.3719 0.9838
-3.4950 2.0737 -1.4533 0.9829
-5.0917 2.3253 -2.0017 0.9765
-5.1715 2.1421 -2.0017 0.9765
-5.2446 1.9562 -2.0017 0.9765
-5.3111 1.7677 -2.0017 0.9765
-5.3708 1.5770 -2.0017 0.9765
-5.4237 1.3843 -2.0017 0.9765
-5.4696 1.1898 -2.0017 0.9765
-5.5086 0.9939 -2.0017 0.9765
-5.5405 0.7966 -2.0017 0.9765
-5.5654 0.5983 -2.0017 0.9765
-5.5833 0.3993 -2.0017 0.9765
-5.5939 0.1998 -2.0017 0.9765
5.1709 0.7435 -2.0020 0.9779
5.1411 0.9276 -2.0020 0.9779
4.8947 1.8256 -2.0020 0.9779
4.7520 2.1701 -2.0020 0.9779
4.6715 2.3384 -2.0020 0.9779
4.4928 2.6657 -2.0020 0.9779
4.3948 2.8243 -2.0020 0.9779
4.2911 2.9794 -2.0020 0.9779
4.1821 3.1307 -2.0020 0.9779
4.0677 3.2779 -2.0019 0.9779
3.9481 3.4210 -2.0019 0.9779
3.8234 3.5598 -2.0019 0.9779
3.5573 3.8209 -2.0006 0.9779
3.4152 3.9414 -1.9985 0.9779
3.2691 4.0567 -1.9966 0.9779
3.1193 4.1669 -1.9947 0.9779
2.3132 4.2364 -1.8497 0.9795
2.1605 4.3162 -1.8497 0.9795
1.3599 4.6312 -1.8497 0.9795
1.0260 4.7164 -1.8497 0.9795
0.8570 4.7500 -1.8497 0.9795
0.5159 4.7990 -1.8497 0.9795
0.1723 4.8236 -1.8497 0.9795
-0.1723 4.8236 -1.8497 0.9795
-0.2178 3.0448 -1.1698 0.9870
-0.3037 2.8246 -1.0887 0.9879
-0.3895 2.7088 -1.0487 0.9883
-0.5489 2.5233 -0.9896 0.9890
-0.6209 2.4327 -0.9622 0.9893
-0.6897 2.3488 -0.9381 0.9896
-0.8418 2.2570 -0.9231 0.9897
-0.9223 2.2267 -0.9236 0.9897
-1.0063 2.2034 -0.9283 0.9897
-1.1859 2.1718 -0.9483 0.9895
-1.2825 2.1615 -0.9632 0.9893
-1.3847 2.1547 -0.9815 0.9891
-1.4869 2.1415 -0.9991 0.9889
-1.8145 2.0940 -1.0618 0.9882
-2.0713 2.0713 -1.1226 0.9875
-3.2385 2.0812 -1.4752 0.9836
-4.1297 2.0672 -1.7698 0.9804
-4.7515 2.1699 -2.0017 0.9779
-4.8259 1.9990 -2.0017 0.9779
-4.8941 1.8254 -2.0017 0.9779
-5.0612 1.2918 -2.0017 0.9779
-5.1041 1.1103 -2.0017 0.9779
-5.1405 0.9274 -2.0017 0.9779
-5.1935 0.5584 -2.0017 0.9779
-5.2201 0.1864 -2.0017 0.9779
4.8790 0.3490 -2.0020 0.9791
4.8634 0.5229 -2.0020 0.9791
4.8417 0.6961 -2.0020 0.9791
4.8137 0.8685 -2.0020 0.9791
4.7395 1.2097 -2.0020 0.9791
4.6933 1.3781 -2.0020 0.9791
4.6411 1.5447 -2.0020 0.9791
4.5830 1.7094 -2.0020 0.9791
4.5191 1.8719 -2.0020 0.9791
4.2931 2.3442 -2.0019 0.9791
4.1149 2.6445 -2.0019 0.9791
3.8087 3.0692 -2.0019 0.9791
3.5800 3.3331 -2.0019 0.9791
3.4588 3.4588 -2.0019 0.9791
3.3331 3.5800 -2.0019 0.9791
3.0675 3.8065 -2.0008 0.9791
2.9270 3.9101 -1.9990 0.9791
2.7833 4.0087 -1.9973 0.9791
2.6363 4.1022 -1.9957 0.9791
1.5794 4.2345 -1.8497 0.9807
1.4272 4.2882 -1.8497 0.9807
1.1177 4.3790 -1.8497 0.9807
0.9607 4.4161 -1.8497 0.9807
0.8024 4.4476 -1.8497 0.9807
0.6432 4.4734 -1.8497 0.9807
0.4831 4.4935 -1.8497 0.9807
0.3224 4.5079 -1.8497 0.9807
0.1613 4.5165 -1.8497 0.9807
-0.1613 4.5165 -1.8497 0.9807
-0.2124 2.9694 -1.2184 0.9872
-0.4540 2.5164 -1.0465 0.9890
-0.5235 2.4067 -1.0080 0.9894
-0.6691 2.2786 -0.9719 0.9898
-0.9820 2.1503 -0.9675 0.9898
-1.1644 2.1325 -0.9944 0.9896
-1.3587 2.1142 -1.0286 0.9892
-1.7948 2.0713 -1.1217 0.9882
-2.3866 2.0680 -1.2925 0.9864
-2.7762 2.0782 -1.4193 0.9851
-3.2362 2.0798 -1.5744 0.9835
-3.4773 2.0632 -1.6548 0.9827
-4.4490 2.0318 -2.0017 0.9791
-4.6407 1.5446 -2.0017 0.9791
-4.7390 1.2096 -2.0017 0.9791
-2.1703 0.3916 -0.9026 0.9905
-1.9525 0.1396 -0.8011 0.9916
4.5906 0.1640 -2.0019 0.9802
4.5818 0.3277 -2.0019 0.9802
4.5672 0.4910 -2.0019 0.9802
4.5468 0.6537 -2.0019 0.9802
4.5206 0.8156 -2.0019 0.9802
4.4509 1.1360 -2.0019 0.9802
4.3585 1.4506 -2.0019 0.9802
4.3039 1.6053 -2.0019 0.9802
4.1784 1.9082 -2.0019 0.9802
4.1077 2.0561 -2.0019 0.9802
3.9505 2.3439 -2.0019 0.9802
3.6773 2.7528 -2.0019 0.9802
3.0081 3.4715 -2.0019 0.9802
2.8823 3.5767 -2.0019 0.9802
2.6190 3.7721 -2.0013 0.9802
2.4808 3.8602 -1.9998 0.9802
2.0498 4.0951 -1.9958 0.9802
1.7342 4.1867 -1.9750 0.9804
1.3960 4.1942 -1.9265 0.9809
1.2324 4.1972 -1.9064 0.9811
1.0721 4.2003 -1.8893 0.9813
0.7589 4.2064 -1.8628 0.9815
0.4537 4.2198 -1.8497 0.9817
0.1515 4.2414 -1.8497 0.9817
-0.1515 4.2414 -1.8497 0.9817
-0.2794 2.5986 -1.1390 0.9887
-0.3615 2.5146 -1.1072 0.9890
-0.4364 2.4186 -1.0711 0.9893
-0.5799 2.2719 -1.0219 0.9898
-0.6527 2.2229 -1.0097 0.9899
-0.7260 2.1812 -1.0019 0.9900
-0.8031 2.1531 -1.0015 0.9900
-0.8813 2.1275 -1.0036 0.9900
-0.9628 2.1082 -1.0101 0.9899
-1.0510 2.0997 -1.0233 0.9898
-1.1444 2.0959 -1.0407 0.9896
-1.2431 2.0952 -1.0617 0.9894
-1.3420 2.0882 -1.0818 0.9892
-1.6666 2.0682 -1.1576 0.9885
-1.7903 2.0661 -1.1915 0.9881
-2.2223 2.0690 -1.3233 0.9868
-2.5818 2.0806 -1.4451 0.9856
-2.7842 2.0842 -1.5157 0.9849
-2.9935 2.0784 -1.5882 0.9842
-3.2098 2.0629 -1.6629 0.9835
-4.2435 1.7577 -2.0017 0.9802
-1.5214 0.3310 -0.6786 0.9932
-1.5001 0.2707 -0.6643 0.9934
-1.5151 0.2178 -0.6671 0.9933
-1.5249 0.1639 -0.6684 0.9933
-1.5284 0.0546 -0.6665 0.9933
4.3249 0.0000 -2.0019 0.9811
4.3139 0.3085 -2.0019 0.9811
4.3001 0.4623 -2.0019 0.9811
4.1906 1.0696 -2.0019 0.9811
4.1497 1.2185 -2.0019 0.9811
4.1036 1.3658 -2.0019 0.9811
4.0522 1.5114 -2.0019 0.9811
3.9957 1.6551 -2.0019 0.9811
3.7959 2.0727 -2.0019 0.9811
3.7195 2.2069 -2.0019 0.9811
3.6383 2.3382 -2.0019 0.9811
3.5526 2.4666 -2.0019 0.9811
3.4623 2.5918 -2.0019 0.9811
3.3675 2.7137 -2.0019 0.9811
3.2685 2.8322 -2.0019 0.9811
3.1654 2.9471 -2.0019 0.9811
3.0582 3.0582 -2.0019 0.9811
2.8322 3.2685 -2.0019 0.9811
2.5918 3.4622 -2.0019 0.9811
2.3382 3.6383 -2.0019 0.9811
2.2068 3.7194 -2.0019 0.9811
1.9338 3.8632 -1.9997 0.9811
1.6515 3.9870 -1.9976 0.9812
1.3616 4.0910 -1.9958 0.9812
1.2143 4.1354 -1.9950 0.9812
1.0655 4.1747 -1.9944 0.9812
0.4506 4.1913 -1.9513 0.9816
-0.1238 3.4665 -1.6056 0.9848
-0.3518 2.4467 -1.1442 0.9892
-0.5669 2.2211 -1.0611 0.9899
-0.6407 2.1819 -1.0526 0.9900
-0.7127 2.1414 -1.0447 0.9901
-0.8643 2.0866 -1.0455 0.9901
-0.9454 2.0700 -1.0534 0.9900
-1.0351 2.0679 -1.0704 0.9899
-1.3308 2.0708 -1.1394 0.9892
-1.5467 2.0662 -1.1947 0.9887
-1.6633 2.0640 -1.2270 0.9884
-2.4040 2.0831 -1.4724 0.9861
-2.7738 2.0764 -1.6039 0.9848
-2.9724 2.0638 -1.6750 0.9842
-3.2366 2.0800 -1.7809 0.9832
-3.7956 2.0725 -2.0018 0.9811
-1.3151 0.6006 -0.6692 0.9936
-1.3263 0.5494 -0.6645 0.9937
-1.3324 0.4970 -0.6582 0.9938
-1.3324 0.4435 -0.6500 0.9938
-1.3116 0.3348 -0.6266 0.9941
-1.3384 0.0957 -0.6211 0.9941
4.0812 0.0000 -2.0019 0.9820
4.0578 0.4363 -2.0019 0.9820
4.0397 0.5808 -2.0019 0.9820
4.0164 0.7246 -2.0019 0.9820
3.9879 0.8675 -2.0019 0.9820
3.9159 1.1498 -2.0019 0.9820
3.8724 1.2889 -2.0019 0.9820
3.5820 1.9559 -2.0019 0.9820
3.5099 2.0825 -2.0019 0.9820
3.4333 2.2065 -2.0019 0.9820
3.0844 2.6726 -2.0019 0.9820
2.9870 2.7810 -2.0019 0.9820
2.5608 3.1778 -2.0019 0.9820
2.2064 3.4333 -2.0019 0.9820
1.9559 3.5820 -2.0019 0.9820
1.6954 3.7123 -2.0019 0.9820
1.5613 3.7693 -2.0013 0.9820
1.2873 3.8678 -1.9996 0.9820
0.1453 4.0670 -1.9962 0.9820
-0.1168 3.2699 -1.6050 0.9855
-0.1978 2.7656 -1.3601 0.9877
-0.2650 2.4645 -1.2159 0.9890
-0.3428 2.3842 -1.1815 0.9893
-0.4136 2.2923 -1.1426 0.9897
-0.5554 2.1758 -1.1015 0.9900
-0.6277 2.1378 -1.0929 0.9901
-0.7724 2.0710 -1.0842 0.9902
-0.8563 2.0673 -1.0976 0.9901
-0.9414 2.0615 -1.1117 0.9900
-1.2230 2.0612 -1.1756 0.9894
-1.3296 2.0689 -1.2063 0.9891
-1.5451 2.0641 -1.2647 0.9886
-1.6620 2.0625 -1.2993 0.9883
-1.7907 2.0665 -1.3413 0.9879
-1.9285 2.0713 -1.3882 0.9875
-2.2383 2.0839 -1.5001 0.9865
-2.5750 2.0750 -1.6222 0.9854
-3.3521 2.3274 -2.0018 0.9820
-3.4331 2.2063 -2.0018 0.9820
-3.5096 2.0823 -2.0018 0.9820
-1.1113 0.6068 -0.6211 0.9944
-1.1484 0.4757 -0.6097 0.9945
-1.1543 0.4306 -0.6043 0.9945
-1.1579 0.3854 -0.5986 0.9946
-1.1695 0.2544 -0.5871 0.9947
-1.1791 0.2127 -0.5877 0.9947
-1.1965 0.0427 -0.5873 0.9947
3.8565 0.1377 -2.0019 0.9828
3.8491 0.2753 -2.0019 0.9828
3.7976 0.6852 -2.0019 0.9828
3.6156 1.3486 -2.0019 0.9828
3.5652 1.4768 -2.0019 0.9828
3.4507 1.7273 -2.0019 0.9828
3.3869 1.8494 -2.0019 0.9828
3.1698 2.2008 -2.0019 0.9828
3.0892 2.3126 -2.0019 0.9828
2.9164 2.5270 -2.0019 0.9828
2.8243 2.6295 -2.0019 0.9828
2.5270 2.9164 -2.0019 0.9828
2.4213 3.0047 -2.0019 0.9828
2.3125 3.0892 -2.0019 0.9828
2.2008 3.1698 -2.0019 0.9828
2.0863 3.2463 -2.0019 0.9828
1.9691 3.3187 -2.0019 0.9828
1.7273 3.4507 -2.0019 0.9828
1.6030 3.5101 -2.0019 0.9828
1.4767 3.5651 -2.0019 0.9828
1.3485 3.6155 -2.0019 0.9828
1.2186 3.6614 -2.0019 0.9828
0.8200 3.7695 -2.0012 0.9828
0.5488 3.8168 -2.0005 0.9828
0.1376 3.8525 -1.9999 0.9828
-0.0000 3.8549 -1.9998 0.9828
-0.2603 2.4214 -1.2634 0.9891
-0.6161 2.0983 -1.1345 0.9902
-0.9326 2.0422 -1.1647 0.9899
-1.0218 2.0412 -1.1842 0.9898
-1.4370 2.0696 -1.3071 0.9887
-1.6649 2.0660 -1.3765 0.9881
-1.7960 2.0727 -1.4228 0.9877
-1.9375 2.0810 -1.4750 0.9873
-2.0810 2.0810 -1.5268 0.9868
-2.2306 2.0767 -1.5811 0.9864
-2.3939 2.0743 -1.6433 0.9858
-2.5674 2.0689 -1.7106 0.9853
-3.1696 2.2007 -2.0018 0.9828
-3.2461 2.0861 -2.0018 0.9828
-0.9917 0.5884 -0.5982 0.9948
-1.0118 0.5525 -0.5981 0.9948
-1.0430 0.4763 -0.5948 0.9948
-1.0514 0.4355 -0.5904 0.9949
-1.0617 0.3534 -0.5805 0.9950
-1.0636 0.3123 -0.5751 0.9950
-1.1024 0.1185 -0.5752 0.9950
-1.1055 0.0791 -0.5750 0.9950
3.6342 0.3907 -2.0019 0.9835
3.5970 0.6490 -2.0019 0.9835
3.4681 1.1543 -2.0019 0.9835
3.4247 1.2773 -2.0019 0.9835
3.1435 1.8651 -2.0019 0.9835
3.0024 2.0846 -2.0019 0.9835
2.9261 2.1904 -2.0019 0.9835
2.8460 2.2935 -2.0019 0.9835
2.7623 2.3936 -2.0019 0.9835
2.5845 2.5845 -2.0019 0.9835
2.4906 2.6751 -2.0019 0.9835
2.2935 2.8460 -2.0019 0.9835
1.8651 3.1434 -2.0019 0.9835
1.1543 3.4680 -2.0019 0.9835
1.0297 3.5070 -2.0019 0.9835
0.9039 3.5415 -2.0019 0.9835
0.7769 3.5715 -2.0019 0.9835
0.6490 3.5970 -2.0019 0.9835
0.5202 3.6178 -2.0019 0.9835
0.2607 3.6457 -2.0019 0.9835
0.1305 3.6527 -2.0019 0.9835
-0.1814 2.5364 -1.3927 0.9885
-0.2554 2.3754 -1.3085 0.9892
-0.3275 2.2781 -1.2605 0.9896
-0.3996 2.2149 -1.2327 0.9898
-0.5377 2.1066 -1.1908 0.9901
-0.6869 2.0637 -1.1913 0.9901
-0.9614 2.1052 -1.2676 0.9895
-1.0426 2.0829 -1.2758 0.9894
-1.4328 2.0637 -1.3760 0.9886
-1.9345 2.0778 -1.5549 0.9871
-2.3930 2.0735 -1.7342 0.9857
-0.8661 0.6014 -0.5775 0.9952
-0.9434 0.4722 -0.5778 0.9952
-0.9580 0.4375 -0.5768 0.9952
-0.9677 0.4009 -0.5737 0.9952
-0.9741 0.3633 -0.5694 0.9953
-0.9820 0.2883 -0.5606 0.9953
-0.9938 0.2537 -0.5618 0.9953
-1.0236 0.1101 -0.5639 0.9953
-1.0265 0.0734 -0.5637 0.9953
-1.0276 0.0367 -0.5632 0.9953
2.0320 0.0726 -1.1739 0.9907
2.0359 0.1456 -1.1784 0.9906
2.0153 0.3636 -1.1823 0.9906
1.9883 0.4325 -1.1748 0.9906
1.9616 0.5007 -1.1688 0.9907
1.9351 0.5682 -1.1644 0.9907
1.8620 0.7713 -1.1636 0.9907
1.8508 0.8452 -1.1747 0.9906
2.8482 1.9776 -2.0019 0.9841
2.7758 2.0779 -2.0019 0.9841
2.6999 2.1757 -2.0019 0.9841
2.6205 2.2707 -2.0019 0.9841
2.4518 2.4518 -2.0019 0.9841
2.3628 2.5378 -2.0019 0.9841
2.2707 2.6205 -2.0019 0.9841
2.1757 2.6999 -2.0019 0.9841
2.0779 2.7758 -2.0019 0.9841
1.5521 3.1006 -2.0019 0.9841
1.0950 3.2899 -2.0019 0.9841
0.9769 3.3269 -2.0019 0.9841
0.8575 3.3596 -2.0019 0.9841
0.6156 3.4123 -2.0019 0.9841
0.4935 3.4321 -2.0019 0.9841
0.3706 3.4475 -2.0019 0.9841
0.1238 3.4651 -2.0019 0.9841
-0.1772 2.4779 -1.4343 0.9886
-0.2510 2.3350 -1.3559 0.9892
-0.3237 2.2514 -1.3132 0.9895
-0.5321 2.0849 -1.2423 0.9901
-0.6079 2.0704 -1.2458 0.9901
-0.6819 2.0487 -1.2466 0.9901
-0.7625 2.0443 -1.2597 0.9900
-0.8582 2.0718 -1.2947 0.9897
-1.0278 2.0534 -1.3257 0.9895
-1.2248 2.0644 -1.3859 0.9890
-1.4250 2.0524 -1.4426 0.9885
-2.0619 2.0619 -1.6835 0.9866
-2.6203 2.2705 -2.0018 0.9841
-0.7846 0.5873 -0.5658 0.9955
-0.8534 0.4660 -0.5614 0.9955
-0.8687 0.4349 -0.5609 0.9955
-0.9058 0.3015 -0.5511 0.9956
-0.9259 0.2363 -0.5517 0.9956
-0.9353 0.2035 -0.5526 0.9956
-0.9492 0.1365 -0.5537 0.9956
-0.9565 0.0684 -0.5536 0.9956
