ply
format ascii 1.0
element vertex 733
property float32 x
property float32 y
property float32 z
property float32 I
end_header
-1.5434 5.2563 -0.6507 0.9782
-1.7063 5.1265 -0.6418 0.9785
-1.6354 4.9136 -0.7338 0.9793
-1.8506 4.9617 -0.7503 0.9788
-2.5974 5.1890 -0.8222 0.9768
-2.7577 5.0504 -0.8153 0.9770
-2.9778 5.0189 -0.8269 0.9767
-3.9899 4.9512 -0.9010 0.9746
-1.4542 4.9525 -0.8503 0.9793
-1.8531 4.9685 -0.8736 0.9787
-2.5974 5.1891 -0.9560 0.9768
-3.9463 4.8971 -1.0361 0.9748
-1.8512 4.9633 -0.9957 0.9787
-2.5546 5.1035 -1.0727 0.9770
-3.9386 4.8875 -1.1798 0.9748
9.4715 0.0000 -2.0021 0.9620
9.4655 0.3381 -2.0021 0.9620
9.3751 1.3479 -2.0021 0.9620
9.3210 1.6817 -2.0021 0.9620
9.2551 2.0133 -2.0021 0.9620
9.0878 2.6684 -2.0021 0.9620
8.8743 3.3099 -2.0021 0.9620
8.3943 4.2019 -1.9843 0.9623
7.7362 4.2243 -1.8632 0.9646
7.5261 4.4654 -1.8498 0.9649
7.3619 4.7312 -1.8498 0.9649
6.4047 5.9630 -1.8498 0.9649
6.1878 6.1878 -1.8498 0.9649
5.9629 6.4047 -1.8497 0.9649
5.4908 6.8137 -1.8497 0.9649
4.7309 7.3614 -1.8497 0.9649
3.9168 7.8248 -1.8496 0.9649
3.3486 8.0842 -1.8496 0.9649
3.0579 8.1985 -1.8496 0.9649
2.7633 8.3024 -1.8496 0.9649
2.4652 8.3956 -1.8496 0.9649
2.1639 8.4782 -1.8496 0.9649
1.5536 8.6108 -1.8495 0.9649
0.6242 8.7274 -1.8495 0.9649
0.3123 8.7440 -1.8495 0.9649
-0.0000 8.7495 -1.8495 0.9649
-0.3123 8.7439 -1.8495 0.9649
-0.9353 8.6992 -1.8494 0.9649
-2.1637 8.4773 -1.8494 0.9649
-1.4541 4.9521 -1.0910 0.9791
-1.6357 4.9146 -1.0949 0.9790
-3.6344 7.9581 -1.8493 0.9649
-2.6627 4.8764 -1.1744 0.9775
-2.8762 4.8476 -1.1915 0.9772
-4.9894 7.1862 -1.8492 0.9649
-6.1859 6.1859 -1.8492 0.9649
-7.1858 4.9892 -1.8491 0.9649
-7.7348 4.2235 -1.8628 0.9646
-8.7470 3.6231 -2.0013 0.9620
-8.8707 3.3086 -2.0013 0.9620
-9.0841 2.6673 -2.0013 0.9620
-9.3171 1.6810 -2.0012 0.9620
-9.4132 1.0120 -2.0012 0.9620
8.4318 1.2123 -2.0020 0.9656
8.3238 1.8107 -2.0020 0.9656
8.2539 2.1067 -2.0020 0.9656
8.1734 2.4000 -2.0020 0.9656
7.6134 3.8110 -2.0010 0.9656
6.6212 4.2552 -1.8498 0.9682
6.1283 4.9385 -1.8497 0.9682
5.9481 5.1541 -1.8497 0.9682
5.5652 5.5652 -1.8497 0.9682
4.7165 6.3005 -1.8497 0.9682
4.4885 6.4648 -1.8497 0.9682
4.2549 6.6208 -1.8497 0.9682
4.0159 6.7684 -1.8497 0.9682
3.2693 7.1588 -1.8496 0.9682
3.0117 7.2708 -1.8496 0.9682
2.2172 7.5510 -1.8496 0.9682
1.9462 7.6252 -1.8496 0.9682
1.6728 7.6898 -1.8495 0.9682
1.3973 7.7446 -1.8495 0.9682
1.1200 7.7894 -1.8495 0.9682
0.8412 7.8244 -1.8495 0.9682
-0.2809 7.8643 -1.8495 0.9682
-1.6727 7.6892 -1.8494 0.9682
-1.9460 7.6245 -1.8494 0.9682
-1.8517 4.9646 -1.2453 0.9785
-3.2688 7.1576 -1.8493 0.9682
-2.5482 5.0906 -1.3379 0.9769
-2.8788 4.8519 -1.3259 0.9771
-3.1197 4.8544 -1.3562 0.9766
-4.4876 6.4633 -1.8493 0.9682
-3.9269 4.8730 -1.4708 0.9746
-4.2251 4.8761 -1.5164 0.9738
-5.7587 5.3615 -1.8492 0.9682
-5.9464 5.1525 -1.8492 0.9682
-6.2987 4.7152 -1.8492 0.9682
-7.6108 3.8097 -2.0003 0.9656
-7.7459 3.5374 -2.0013 0.9656
-7.8672 3.2587 -2.0013 0.9656
-7.9784 2.9758 -2.0013 0.9656
-8.1704 2.3991 -2.0013 0.9656
-8.3800 1.5119 -2.0013 0.9656
-8.4935 0.6075 -2.0013 0.9656
-8.5098 0.3040 -2.0013 0.9656
7.7322 0.0000 -2.0020 0.9686
7.7273 0.2760 -2.0020 0.9686
7.7125 0.5516 -2.0020 0.9686
7.6879 0.8266 -2.0020 0.9686
7.4920 1.9122 -2.0020 0.9686
7.4190 2.1784 -2.0020 0.9686
7.2447 2.7021 -2.0020 0.9686
7.1436 2.9590 -2.0020 0.9686
7.0334 3.2121 -2.0020 0.9686
6.9143 3.4610 -2.0020 0.9686
5.7191 4.2813 -1.8497 0.9709
5.5627 4.4827 -1.8497 0.9709
5.2286 4.8681 -1.8497 0.9709
4.8680 5.2286 -1.8497 0.9709
4.4825 5.5625 -1.8497 0.9709
4.2811 5.7190 -1.8497 0.9709
3.8622 6.0097 -1.8496 0.9709
3.4236 6.2699 -1.8496 0.9709
3.1976 6.3880 -1.8496 0.9709
2.9676 6.4981 -1.8496 0.9709
2.2559 6.7779 -1.8496 0.9709
2.0125 6.8541 -1.8496 0.9709
1.7666 6.9215 -1.8496 0.9709
1.5184 6.9801 -1.8495 0.9709
0.5096 7.1250 -1.8495 0.9709
0.2550 7.1386 -1.8495 0.9709
0.0000 7.1431 -1.8495 0.9709
-0.2550 7.1385 -1.8495 0.9709
-0.5096 7.1248 -1.8494 0.9709
-0.7635 7.1020 -1.8494 0.9709
-1.0165 7.0702 -1.8494 0.9709
-1.2682 7.0294 -1.8494 0.9709
-1.5183 6.9796 -1.8494 0.9709
-1.7664 6.9209 -1.8494 0.9709
-1.4543 4.9529 -1.3365 0.9789
-1.6359 4.9150 -1.3412 0.9788
-1.8519 4.9652 -1.3721 0.9783
-2.7333 6.5989 -1.8493 0.9709
-2.6480 4.8495 -1.4306 0.9774
-4.0734 5.8669 -1.8493 0.9709
-3.9269 4.8730 -1.6204 0.9745
-4.8668 5.2274 -1.8492 0.9709
-5.0503 5.0503 -1.8492 0.9709
-5.3977 4.6771 -1.8492 0.9709
-5.5611 4.4814 -1.8492 0.9709
-6.4798 4.1644 -1.9943 0.9687
-7.1412 2.9580 -2.0013 0.9686
-7.3340 2.4410 -2.0013 0.9686
-7.6067 1.3724 -2.0013 0.9686
-7.6509 1.1000 -2.0013 0.9686
-7.6852 0.8263 -2.0013 0.9686
-7.7098 0.5514 -2.0013 0.9686
-7.7246 0.2759 -2.0013 0.9686
7.0718 0.0000 -2.0020 0.9710
7.0673 0.2524 -2.0020 0.9710
6.9998 1.0064 -2.0020 0.9710
6.9595 1.2556 -2.0020 0.9710
6.7853 1.9924 -2.0020 0.9710
6.6259 2.4713 -2.0020 0.9710
6.5335 2.7063 -2.0020 0.9710
6.4327 2.9377 -2.0020 0.9710
5.9455 3.8210 -2.0007 0.9710
5.7953 4.0238 -1.9973 0.9711
5.2328 4.2169 -1.9025 0.9724
4.7821 4.4523 -1.8497 0.9732
4.4522 4.7821 -1.8497 0.9732
4.2787 4.9379 -1.8497 0.9732
3.9155 5.2305 -1.8496 0.9732
3.5324 5.4965 -1.8496 0.9732
3.3339 5.6190 -1.8496 0.9732
3.1312 5.7344 -1.8496 0.9732
2.9245 5.8425 -1.8496 0.9732
2.5003 6.0362 -1.8496 0.9732
2.2832 6.1215 -1.8496 0.9732
2.0632 6.1991 -1.8496 0.9732
1.8407 6.2687 -1.8496 0.9732
1.6157 6.3304 -1.8495 0.9732
1.3888 6.3840 -1.8495 0.9732
0.6984 6.4958 -1.8495 0.9732
0.4661 6.5165 -1.8495 0.9732
0.2332 6.5290 -1.8495 0.9732
0.0000 6.5331 -1.8495 0.9732
-0.2332 6.5289 -1.8495 0.9732
-0.4661 6.5164 -1.8494 0.9732
-0.6983 6.4956 -1.8494 0.9732
-0.9297 6.4665 -1.8494 0.9732
-1.6156 6.3299 -1.8494 0.9732
-1.4544 4.9533 -1.4614 0.9788
-1.8522 4.9659 -1.5004 0.9782
-2.5482 5.0907 -1.6116 0.9766
-2.6480 4.8495 -1.5642 0.9773
-2.8788 4.8519 -1.5971 0.9768
-3.1197 4.8544 -1.6336 0.9763
-3.7210 5.3593 -1.8470 0.9732
-3.7728 5.0399 -1.7822 0.9742
-3.9269 4.8730 -1.7717 0.9743
-4.4513 4.7810 -1.8493 0.9732
-4.6191 4.6191 -1.8493 0.9732
-4.7810 4.4512 -1.8493 0.9732
-5.2322 4.2163 -1.9023 0.9725
-5.9439 3.8199 -2.0002 0.9711
-6.0801 3.6075 -2.0014 0.9710
-6.2049 3.3882 -2.0014 0.9710
-6.7832 1.9918 -2.0014 0.9710
-6.8500 1.7484 -2.0014 0.9710
-6.9976 1.0061 -2.0013 0.9710
-7.0291 0.7557 -2.0013 0.9710
-7.0650 0.2524 -2.0013 0.9710
6.4715 0.6958 -2.0020 0.9731
6.3600 1.3835 -2.0020 0.9731
6.1757 2.0555 -2.0019 0.9731
6.0133 2.4908 -2.0019 0.9731
5.0540 4.0728 -1.9964 0.9732
3.7733 4.6824 -1.8496 0.9751
3.0685 5.1717 -1.8496 0.9751
2.8819 5.2779 -1.8496 0.9751
2.4980 5.4700 -1.8496 0.9751
2.1014 5.6342 -1.8496 0.9751
1.4871 5.8264 -1.8495 0.9751
1.0677 5.9176 -1.8495 0.9751
0.8558 5.9519 -1.8495 0.9751
0.4290 5.9978 -1.8495 0.9751
0.2146 6.0092 -1.8495 0.9751
0.0000 6.0130 -1.8495 0.9751
-0.2146 6.0092 -1.8495 0.9752
-0.4290 5.9976 -1.8494 0.9752
-0.6428 5.9785 -1.8494 0.9752
-1.0676 5.9173 -1.8494 0.9752
-1.6360 4.9155 -1.5934 0.9786
-2.4977 5.4693 -1.8494 0.9752
-2.5482 5.0907 -1.7510 0.9765
-2.6480 4.8495 -1.6995 0.9771
-2.8788 4.8519 -1.7352 0.9767
-3.1197 4.8544 -1.7749 0.9761
-3.6031 4.8132 -1.8493 0.9752
-3.9373 4.5439 -1.8493 0.9752
-4.2514 4.2514 -1.8493 0.9752
-4.5285 4.2162 -1.9031 0.9744
-4.8506 4.2031 -1.9741 0.9735
-5.0529 4.0719 -1.9960 0.9732
-5.2028 3.8948 -1.9990 0.9732
-5.5961 3.3203 -2.0014 0.9731
-5.9189 2.7031 -2.0014 0.9731
-6.1739 2.0549 -2.0014 0.9731
-6.2433 1.8332 -2.0014 0.9731
-6.3048 1.6092 -2.0014 0.9731
-6.3582 1.3832 -2.0014 0.9731
-6.4035 1.1553 -2.0014 0.9731
-6.4696 0.6956 -2.0014 0.9731
-6.4903 0.4642 -2.0014 0.9731
-6.5027 0.2323 -2.0014 0.9731
6.0226 0.0000 -2.0019 0.9749
6.0072 0.4297 -2.0019 0.9749
5.9269 1.0693 -2.0019 0.9749
5.8355 1.4894 -2.0019 0.9749
5.7786 1.6968 -2.0019 0.9749
5.7143 1.9019 -2.0019 0.9749
5.6428 2.1047 -2.0019 0.9749
5.5641 2.3047 -2.0019 0.9749
5.2858 2.8863 -2.0019 0.9749
5.1794 3.0731 -2.0019 0.9749
5.0664 3.2560 -2.0019 0.9749
4.9470 3.4348 -2.0019 0.9749
4.6882 3.7780 -2.0014 0.9749
4.5442 3.9376 -1.9987 0.9750
4.2032 4.2032 -1.9759 0.9753
3.9240 4.2146 -1.9142 0.9760
3.6609 4.2250 -1.8583 0.9767
3.1735 4.5707 -1.8496 0.9768
3.0083 4.6810 -1.8496 0.9768
2.4906 4.9757 -1.8496 0.9768
1.7572 5.2794 -1.8495 0.9768
1.5676 5.3387 -1.8495 0.9768
0.7918 5.5074 -1.8495 0.9768
0.5948 5.5321 -1.8495 0.9768
0.3969 5.5498 -1.8495 0.9768
-0.3969 5.5497 -1.8495 0.9768
-0.5947 5.5319 -1.8494 0.9768
-0.9879 5.4754 -1.8494 0.9768
-1.3759 5.3909 -1.8494 0.9768
-1.4547 4.9542 -1.7163 0.9785
-1.6361 4.9158 -1.7222 0.9784
-1.8527 4.9673 -1.7623 0.9779
-2.1291 5.1401 -1.8494 0.9768
-2.3112 5.0608 -1.8494 0.9768
-2.6406 4.8359 -1.8315 0.9770
-2.8389 4.7847 -1.8493 0.9768
-3.0078 4.6803 -1.8493 0.9768
-3.3340 4.4538 -1.8493 0.9768
-3.4909 4.3319 -1.8493 0.9768
-3.6606 4.2246 -1.8581 0.9767
-3.9236 4.2142 -1.9140 0.9760
-4.5433 3.9368 -1.9983 0.9750
-4.8201 3.6083 -2.0014 0.9749
-5.2845 2.8856 -2.0014 0.9749
-5.3841 2.6951 -2.0014 0.9749
-5.6414 2.1041 -2.0014 0.9749
-5.7771 1.6963 -2.0014 0.9749
-5.8833 1.2799 -2.0014 0.9749
-6.0056 0.4295 -2.0014 0.9749
-6.0171 0.2149 -2.0014 0.9749
5.5945 0.1998 -2.0019 0.9765
5.5411 0.7967 -2.0019 0.9765
5.5091 0.9940 -2.0019 0.9765
5.3116 1.7679 -2.0019 0.9765
5.2451 1.9563 -2.0019 0.9765
5.1719 2.1423 -2.0019 0.9765
4.9133 2.6829 -2.0019 0.9765
4.8144 2.8565 -2.0019 0.9765
4.5983 3.1927 -2.0019 0.9765
4.4814 3.3547 -2.0019 0.9765
4.3588 3.5126 -2.0019 0.9765
4.0949 3.8125 -2.0008 0.9765
3.9516 3.9516 -1.9984 0.9765
3.8037 4.0854 -1.9962 0.9766
3.1590 4.2200 -1.8851 0.9779
2.9498 4.2485 -1.8496 0.9783
2.7963 4.3511 -1.8496 0.9783
2.6392 4.4481 -1.8496 0.9783
2.1486 4.7047 -1.8496 0.9783
1.8074 4.8459 -1.8496 0.9783
1.6333 4.9073 -1.8495 0.9783
0.9183 5.0897 -1.8495 0.9783
0.5528 5.1422 -1.8495 0.9783
0.3690 5.1587 -1.8495 0.9783
0.1846 5.1685 -1.8495 0.9783
0.0000 5.1718 -1.8495 0.9783
-0.5528 5.1421 -1.8494 0.9783
-0.7360 5.1191 -1.8494 0.9783
-0.9182 5.0895 -1.8494 0.9783
-1.0993 5.0535 -1.8494 0.9783
-1.4548 4.9547 -1.8466 0.9783
-1.9791 4.7779 -1.8494 0.9783
-2.1483 4.7042 -1.8494 0.9783
-2.3149 4.6245 -1.8494 0.9783
-2.4784 4.5389 -1.8494 0.9783
-2.6388 4.4475 -1.8493 0.9783
-3.6398 4.2006 -1.9876 0.9767
-3.8030 4.0847 -1.9958 0.9766
-3.9509 3.9509 -1.9981 0.9765
-4.2298 3.6652 -2.0015 0.9765
-4.3579 3.5119 -2.0015 0.9765
-4.4805 3.3541 -2.0015 0.9765
-4.7083 3.0259 -2.0015 0.9765
-4.8133 2.8559 -2.0014 0.9765
-4.9122 2.6823 -2.0014 0.9765
-5.0048 2.5052 -2.0014 0.9765
-5.1707 2.1418 -2.0014 0.9765
-5.4228 1.3841 -2.0014 0.9765
-5.4688 1.1897 -2.0014 0.9765
-5.5077 0.9937 -2.0014 0.9765
-5.5397 0.7965 -2.0014 0.9765
-5.5646 0.5983 -2.0014 0.9765
-5.5931 0.1998 -2.0014 0.9765
5.2239 0.0000 -2.0019 0.9779
5.1940 0.5584 -2.0019 0.9779
5.1707 0.7435 -2.0019 0.9779
5.1409 0.9275 -2.0019 0.9779
5.1045 1.1104 -2.0019 0.9779
5.0616 1.2919 -2.0019 0.9779
4.7518 2.1701 -2.0019 0.9779
4.6713 2.3383 -2.0019 0.9779
4.5849 2.5035 -2.0019 0.9779
4.1819 3.1305 -2.0019 0.9779
4.0675 3.2778 -2.0019 0.9779
3.9479 3.4209 -2.0018 0.9779
3.8233 3.5596 -2.0018 0.9779
2.1604 4.3159 -1.8496 0.9795
2.0050 4.3902 -1.8496 0.9795
1.8470 4.4590 -1.8496 0.9795
1.6866 4.5221 -1.8495 0.9795
1.1936 4.6764 -1.8495 0.9795
1.0259 4.7160 -1.8495 0.9795
0.6868 4.7771 -1.8495 0.9795
0.5159 4.7986 -1.8495 0.9795
0.3443 4.8139 -1.8495 0.9795
-1.1935 4.6761 -1.8494 0.9795
-1.3596 4.6305 -1.8494 0.9795
-2.0047 4.3898 -1.8494 0.9795
-2.9199 4.2054 -1.9619 0.9783
-3.2687 4.0562 -1.9963 0.9779
-3.4147 3.9408 -1.9983 0.9779
-3.9472 3.4202 -2.0015 0.9779
-4.3937 2.8237 -2.0015 0.9779
-4.4917 2.6650 -2.0015 0.9779
-4.5839 2.5030 -2.0015 0.9779
-4.8934 1.8252 -2.0014 0.9779
-4.9554 1.6494 -2.0014 0.9779
-5.0111 1.4714 -2.0014 0.9779
-5.1033 1.1102 -2.0014 0.9779
-5.1397 0.9273 -2.0014 0.9779
-5.2094 0.3726 -2.0014 0.9779
-5.2194 0.1864 -2.0014 0.9779
4.8913 0.0000 -2.0019 0.9791
4.8882 0.1746 -2.0019 0.9791
4.8633 0.5229 -2.0019 0.9791
4.7393 1.2097 -2.0019 0.9791
4.6932 1.3781 -2.0019 0.9791
4.5829 1.7093 -2.0019 0.9791
4.5189 1.8718 -2.0019 0.9791
4.3739 2.1894 -2.0019 0.9791
4.2929 2.3441 -2.0019 0.9791
4.2065 2.4959 -2.0019 0.9791
4.0177 2.7896 -2.0018 0.9791
3.5798 3.3329 -2.0018 0.9791
3.4586 3.4586 -2.0018 0.9791
3.2030 3.6965 -2.0018 0.9791
2.4864 4.1907 -1.9943 0.9792
1.2732 4.3360 -1.8495 0.9807
0.9606 4.4157 -1.8495 0.9807
0.8024 4.4472 -1.8495 0.9807
0.6431 4.4730 -1.8495 0.9807
0.4831 4.4931 -1.8495 0.9807
0.1613 4.5160 -1.8495 0.9807
0.0000 4.5189 -1.8495 0.9807
-0.1613 4.5160 -1.8495 0.9807
-0.3224 4.5073 -1.8495 0.9807
-0.4830 4.4930 -1.8494 0.9807
-0.8023 4.4470 -1.8494 0.9807
-0.9605 4.4155 -1.8494 0.9807
-1.2731 4.3357 -1.8494 0.9807
-1.4270 4.2875 -1.8494 0.9807
-1.7490 4.2224 -1.8705 0.9804
-1.9260 4.2174 -1.8975 0.9802
-2.2964 4.2056 -1.9611 0.9795
-2.9268 3.9097 -1.9988 0.9791
-3.0671 3.8061 -2.0006 0.9791
-3.4580 3.4580 -2.0015 0.9791
-3.6959 3.2025 -2.0015 0.9791
-3.8078 3.0685 -2.0015 0.9791
-4.0170 2.7891 -2.0015 0.9791
-4.1140 2.6439 -2.0015 0.9791
-4.2057 2.4954 -2.0015 0.9791
-4.2921 2.3437 -2.0015 0.9791
-4.6400 1.5443 -2.0015 0.9791
-4.7785 1.0395 -2.0014 0.9791
-2.1703 0.3916 -0.9026 0.9905
-1.9569 0.2104 -0.8055 0.9915
4.5934 0.0000 -2.0019 0.9802
4.5905 0.1640 -2.0019 0.9802
4.5204 0.8156 -2.0019 0.9802
4.4884 0.9764 -2.0019 0.9802
4.4507 1.1360 -2.0019 0.9802
4.1075 2.0561 -2.0019 0.9802
4.0315 2.2014 -2.0018 0.9802
3.8641 2.4834 -2.0018 0.9802
3.6771 2.7527 -2.0018 0.9802
3.5765 2.8821 -2.0018 0.9802
3.4714 3.0080 -2.0018 0.9802
3.1299 3.3618 -2.0018 0.9802
2.8821 3.5765 -2.0018 0.9802
2.7526 3.6771 -2.0018 0.9802
2.4809 3.8604 -1.9999 0.9802
2.3399 3.9437 -1.9985 0.9802
2.1962 4.0220 -1.9972 0.9802
2.0500 4.0953 -1.9959 0.9802
1.9014 4.1634 -1.9947 0.9802
1.7405 4.2019 -1.9821 0.9804
1.5690 4.2066 -1.9567 0.9806
1.4015 4.2108 -1.9341 0.9808
1.2375 4.2145 -1.9143 0.9810
1.0765 4.2177 -1.8970 0.9812
0.9181 4.2204 -1.8823 0.9813
0.6074 4.2245 -1.8600 0.9815
0.4546 4.2286 -1.8535 0.9816
0.1515 4.2410 -1.8495 0.9817
0.0000 4.2437 -1.8495 0.9817
-0.3027 4.2329 -1.8495 0.9817
-0.4546 4.2286 -1.8535 0.9816
-0.7618 4.2226 -1.8700 0.9815
-1.0765 4.2175 -1.8970 0.9812
-1.7404 4.2017 -1.9821 0.9804
-2.0498 4.0949 -1.9957 0.9802
-2.4807 3.8600 -1.9997 0.9802
-2.7522 3.6766 -2.0015 0.9802
-3.1295 3.3613 -2.0015 0.9802
-3.2474 3.2475 -2.0015 0.9802
-3.4708 3.0075 -2.0015 0.9802
-3.6765 2.7522 -2.0015 0.9802
-3.7724 2.6192 -2.0015 0.9802
-3.9496 2.3434 -2.0015 0.9802
-4.1067 2.0557 -2.0015 0.9802
-1.5875 0.5284 -0.7292 0.9927
-1.5707 0.4612 -0.7134 0.9929
-1.5485 0.3952 -0.6965 0.9931
-1.5151 0.2179 -0.6671 0.9933
-1.5293 0.1094 -0.6682 0.9933
4.3248 0.0000 -2.0019 0.9811
4.3220 0.1544 -2.0019 0.9811
4.3137 0.3085 -2.0019 0.9811
4.3000 0.4623 -2.0019 0.9811
4.2560 0.7679 -2.0019 0.9811
4.1034 1.3658 -2.0019 0.9811
4.0520 1.5113 -2.0018 0.9811
3.8673 1.9358 -2.0018 0.9811
3.7957 2.0726 -2.0018 0.9811
3.7193 2.2068 -2.0018 0.9811
3.5524 2.4665 -2.0018 0.9811
3.4621 2.5917 -2.0018 0.9811
3.3674 2.7136 -2.0018 0.9811
3.1652 2.9469 -2.0018 0.9811
2.8320 3.2683 -2.0018 0.9811
2.7136 3.3673 -2.0018 0.9811
2.3380 3.6381 -2.0018 0.9811
2.2067 3.7192 -2.0018 0.9811
1.5075 4.0418 -1.9968 0.9812
1.3617 4.0913 -1.9959 0.9812
1.0656 4.1750 -1.9945 0.9812
0.7583 4.2029 -1.9768 0.9814
0.4522 4.2063 -1.9582 0.9815
0.0000 4.2082 -1.9479 0.9816
-0.1503 4.2080 -1.9490 0.9816
-0.4522 4.2062 -1.9582 0.9815
-0.6045 4.2047 -1.9663 0.9815
-0.7583 4.2028 -1.9768 0.9814
-0.9137 4.2004 -1.9898 0.9812
-1.2143 4.1355 -1.9951 0.9812
-1.3616 4.0911 -1.9958 0.9812
-2.0716 3.7938 -2.0008 0.9811
-2.2065 3.7188 -2.0016 0.9811
-2.3378 3.6377 -2.0016 0.9811
-2.5913 3.4616 -2.0015 0.9811
-2.8316 3.2679 -2.0015 0.9811
-3.0576 3.0575 -2.0015 0.9811
-3.2679 2.8316 -2.0015 0.9811
-3.4615 2.5913 -2.0015 0.9811
-3.5518 2.4661 -2.0015 0.9811
-3.6375 2.3377 -2.0015 0.9811
-3.8666 1.9355 -2.0015 0.9811
-1.3150 0.6006 -0.6692 0.9936
-1.3324 0.4970 -0.6582 0.9938
-1.3324 0.4435 -0.6500 0.9938
-1.3240 0.3888 -0.6388 0.9939
-1.3116 0.3348 -0.6266 0.9941
-1.3160 0.2374 -0.6190 0.9941
-1.3273 0.1908 -0.6207 0.9941
-1.3384 0.0957 -0.6211 0.9941
-1.3376 0.0478 -0.6195 0.9941
4.0784 0.1457 -2.0018 0.9820
4.0577 0.4363 -2.0018 0.9820
4.0162 0.7246 -2.0018 0.9820
3.9878 0.8675 -2.0018 0.9820
3.9157 1.1498 -2.0018 0.9820
3.8722 1.2888 -2.0018 0.9820
3.7122 1.6953 -2.0018 0.9820
3.6494 1.8267 -2.0018 0.9820
3.5097 2.0824 -2.0018 0.9820
3.4332 2.2064 -2.0018 0.9820
3.2670 2.4457 -2.0018 0.9820
3.0842 2.6725 -2.0018 0.9820
2.9868 2.7808 -2.0018 0.9820
2.8857 2.8857 -2.0018 0.9820
2.7808 2.9868 -2.0018 0.9820
2.5606 3.1776 -2.0018 0.9820
2.3274 3.3521 -2.0018 0.9820
2.2063 3.4331 -2.0018 0.9820
2.0823 3.5096 -2.0018 0.9820
1.9558 3.5817 -2.0018 0.9820
1.8267 3.6492 -2.0018 0.9820
1.6952 3.7121 -2.0017 0.9820
1.5614 3.7696 -2.0014 0.9820
1.4252 3.8212 -2.0005 0.9820
1.2874 3.8681 -1.9997 0.9820
1.1481 3.9102 -1.9990 0.9820
1.0075 3.9474 -1.9984 0.9820
0.8657 3.9798 -1.9978 0.9820
0.4351 4.0471 -1.9967 0.9820
0.1453 4.0671 -1.9963 0.9820
0.0000 4.0696 -1.9962 0.9820
-0.2903 4.0596 -1.9964 0.9820
-0.5794 4.0295 -1.9969 0.9820
-0.8657 3.9796 -1.9977 0.9820
-1.2873 3.8679 -1.9996 0.9820
-1.4251 3.8210 -2.0004 0.9820
-1.5613 3.7693 -2.0013 0.9820
-1.6951 3.7118 -2.0016 0.9820
-2.3272 3.3518 -2.0016 0.9820
-2.6721 3.0838 -2.0015 0.9820
-2.9864 2.7805 -2.0015 0.9820
-3.1772 2.5603 -2.0015 0.9820
-3.2665 2.4453 -2.0015 0.9820
-1.1113 0.6068 -0.6211 0.9944
-1.1400 0.5206 -0.6148 0.9944
-1.1578 0.3854 -0.5986 0.9946
-1.1590 0.3403 -0.5925 0.9946
-1.1578 0.2955 -0.5861 0.9947
-1.1695 0.2544 -0.5871 0.9947
-1.1791 0.2127 -0.5877 0.9947
-1.1867 0.1706 -0.5881 0.9947
-1.1921 0.1282 -0.5881 0.9947
-1.1953 0.0855 -0.5878 0.9947
-1.1965 0.0427 -0.5873 0.9947
3.8563 0.1377 -2.0018 0.9828
3.7706 0.8202 -2.0018 0.9828
3.7389 0.9543 -2.0018 0.9828
3.7024 1.0871 -2.0018 0.9828
3.6154 1.3485 -2.0018 0.9828
3.5650 1.4767 -2.0018 0.9828
3.4506 1.7273 -2.0018 0.9828
3.3867 1.8493 -2.0018 0.9828
3.3185 1.9690 -2.0018 0.9828
3.2461 2.0862 -2.0018 0.9828
3.1696 2.2007 -2.0018 0.9828
3.0045 2.4212 -2.0018 0.9828
2.9162 2.5269 -2.0018 0.9828
2.8241 2.6294 -2.0018 0.9828
2.7285 2.7285 -2.0018 0.9828
2.5269 2.9162 -2.0018 0.9828
2.4212 3.0045 -2.0018 0.9828
2.3124 3.0890 -2.0018 0.9828
2.0861 3.2461 -2.0018 0.9828
1.9689 3.3185 -2.0018 0.9828
1.7272 3.4504 -2.0017 0.9828
1.6029 3.5099 -2.0017 0.9828
1.3484 3.6153 -2.0017 0.9828
1.2185 3.6611 -2.0017 0.9828
0.4122 3.8336 -2.0003 0.9828
0.1376 3.8526 -1.9999 0.9828
-0.5488 3.8169 -2.0005 0.9828
-0.6848 3.7956 -2.0009 0.9828
-0.9542 3.7385 -2.0016 0.9828
-1.2185 3.6609 -2.0016 0.9828
-1.3483 3.6151 -2.0016 0.9828
-1.7270 3.4502 -2.0016 0.9828
-1.9688 3.3181 -2.0016 0.9828
-2.6290 2.8238 -2.0015 0.9828
-2.7281 2.7281 -2.0015 0.9828
-3.1692 2.2004 -2.0015 0.9828
-3.2457 2.0859 -2.0015 0.9828
-0.9917 0.5884 -0.5982 0.9948
-1.0298 0.5155 -0.5974 0.9948
-1.0617 0.3534 -0.5805 0.9950
-1.0636 0.3123 -0.5751 0.9950
-1.0704 0.2732 -0.5731 0.9950
-1.1066 0.0395 -0.5744 0.9950
3.6526 0.1305 -2.0018 0.9835
3.5969 0.6490 -2.0018 0.9835
3.5069 1.0297 -2.0018 0.9835
3.4679 1.1542 -2.0018 0.9835
3.4245 1.2773 -2.0018 0.9835
3.1433 1.8650 -2.0018 0.9835
3.0747 1.9760 -2.0018 0.9835
3.0022 2.0845 -2.0018 0.9835
2.8459 2.2933 -2.0018 0.9835
2.2933 2.8458 -2.0018 0.9835
2.1903 2.9258 -2.0018 0.9835
1.9760 3.0746 -2.0018 0.9835
1.8649 3.1432 -2.0018 0.9835
1.7516 3.2078 -2.0017 0.9835
1.5183 3.3245 -2.0017 0.9835
1.3986 3.3766 -2.0017 0.9835
1.2772 3.4243 -2.0017 0.9835
1.0297 3.5067 -2.0017 0.9835
0.9038 3.5412 -2.0017 0.9835
0.7769 3.5712 -2.0017 0.9835
0.6489 3.5967 -2.0017 0.9835
0.3907 3.6337 -2.0017 0.9835
0.1304 3.6523 -2.0017 0.9835
0.0000 3.6547 -2.0017 0.9835
-0.3907 3.6337 -2.0016 0.9835
-0.5201 3.6174 -2.0016 0.9835
-0.7768 3.5711 -2.0016 0.9835
-0.9038 3.5411 -2.0016 0.9835
-1.0296 3.5066 -2.0016 0.9835
-1.3985 3.3764 -2.0016 0.9835
-1.6358 3.2680 -2.0016 0.9835
-1.7514 3.2075 -2.0016 0.9835
-2.0842 3.0019 -2.0016 0.9835
-2.2931 2.8455 -2.0016 0.9835
-2.3932 2.7619 -2.0016 0.9835
-2.4902 2.6747 -2.0016 0.9835
-2.5841 2.5841 -2.0015 0.9835
-0.8882 0.5708 -0.5782 0.9952
-0.9084 0.5390 -0.5785 0.9952
-0.9434 0.4722 -0.5778 0.9952
-0.9580 0.4375 -0.5768 0.9952
-0.9677 0.4008 -0.5737 0.9952
-0.9741 0.3633 -0.5694 0.9953
-0.9785 0.3257 -0.5648 0.9953
-0.9820 0.2884 -0.5606 0.9953
-0.9938 0.2537 -0.5618 0.9953
-1.0124 0.1827 -0.5634 0.9953
-1.0190 0.1465 -0.5638 0.9953
-1.0265 0.0734 -0.5637 0.9953
-1.0276 0.0367 -0.5632 0.9953
2.0197 0.0000 -1.1661 0.9907
2.0359 0.1456 -1.1784 0.9906
2.0366 0.2190 -1.1826 0.9906
2.0153 0.3636 -1.1823 0.9906
1.9616 0.5007 -1.1688 0.9907
1.9033 0.6335 -1.1581 0.9908
1.8508 0.8452 -1.1747 0.9906
2.8480 1.9774 -2.0018 0.9841
2.7756 2.0778 -2.0018 0.9841
2.6997 2.1756 -2.0018 0.9841
2.6203 2.2705 -2.0018 0.9841
2.5376 2.3626 -2.0018 0.9841
2.4517 2.4517 -2.0018 0.9841
2.3626 2.5376 -2.0018 0.9841
2.0778 2.7756 -2.0018 0.9841
1.9774 2.8480 -2.0018 0.9841
1.8745 2.9167 -2.0018 0.9841
1.7692 2.9818 -2.0017 0.9841
1.5519 3.1004 -2.0017 0.9841
1.4403 3.1538 -2.0017 0.9841
1.3268 3.2032 -2.0017 0.9841
1.0949 3.2896 -2.0017 0.9841
0.7370 3.3878 -2.0017 0.9841
0.6156 3.4120 -2.0017 0.9841
0.2473 3.4582 -2.0017 0.9841
0.1237 3.4648 -2.0017 0.9841
-0.2473 3.4581 -2.0017 0.9841
-0.3706 3.4471 -2.0016 0.9841
-0.8574 3.3592 -2.0016 0.9841
-0.9767 3.3265 -2.0016 0.9841
-1.0948 3.2895 -2.0016 0.9841
-1.2116 3.2483 -2.0016 0.9841
-1.4402 3.1536 -2.0016 0.9841
-1.6615 3.0428 -2.0016 0.9841
-1.7690 2.9815 -2.0016 0.9841
-2.4514 2.4514 -2.0016 0.9841
-2.6200 2.2703 -2.0015 0.9841
-0.7671 0.6182 -0.5688 0.9955
-0.7846 0.5873 -0.5658 0.9955
-0.8534 0.4660 -0.5614 0.9955
-0.8941 0.3703 -0.5587 0.9955
-0.9011 0.3361 -0.5553 0.9956
-0.9057 0.3015 -0.5511 0.9956
-0.9352 0.2035 -0.5526 0.9956
-0.9430 0.1701 -0.5532 0.9956
-0.9537 0.1025 -0.5538 0.9956
-0.9575 0.0342 -0.5532 0.9956
