ply
format ascii 1.0
element vertex 723
property float32 x
property float32 y
property float32 z
property float32 I
end_header
-9.4379 -0.3371 -1.9963 0.9621
-9.2943 -1.6769 -1.9964 0.9621
-9.1514 -2.3357 -1.9964 0.9621
-8.7269 -3.6148 -1.9967 0.9621
-8.5927 -3.9241 -1.9968 0.9621
-8.4475 -4.2285 -1.9969 0.9621
-8.1251 -4.8208 -1.9970 0.9621
-7.9483 -5.1081 -1.9971 0.9621
-7.5645 -5.6627 -1.9974 0.9621
-7.1421 -6.1887 -1.9976 0.9621
-6.4410 -6.9181 -1.9980 0.9621
-5.9319 -7.3611 -1.9983 0.9621
-5.6659 -7.5687 -1.9985 0.9621
-5.3925 -7.7667 -1.9986 0.9621
-4.5326 -8.3008 -1.9992 0.9621
-4.2338 -8.4580 -1.9993 0.9621
-3.9295 -8.6045 -1.9995 0.9621
-3.3063 -8.8645 -1.9999 0.9621
-2.9881 -8.9777 -2.0001 0.9621
-2.3404 -9.1698 -2.0004 0.9620
-2.0118 -9.2483 -2.0006 0.9620
0.3381 -9.4651 -2.0020 0.9620
1.3483 -9.3775 -2.0026 0.9620
1.6823 -9.3243 -2.0028 0.9620
2.6701 -9.0937 -2.0034 0.9620
2.9933 -8.9934 -2.0036 0.9620
3.3127 -8.8817 -2.0037 0.9620
3.6279 -8.7586 -2.0039 0.9620
3.9386 -8.6243 -2.0041 0.9620
4.2443 -8.4790 -2.0043 0.9620
5.9526 -7.3867 -2.0053 0.9620
6.2129 -7.1701 -2.0054 0.9620
6.4654 -6.9443 -2.0056 0.9620
7.3898 -5.9551 -2.0061 0.9619
7.5981 -5.6879 -2.0063 0.9619
7.9854 -5.1319 -2.0065 0.9619
8.1639 -4.8439 -2.0066 0.9619
8.3320 -4.5496 -2.0067 0.9619
8.4895 -4.2495 -2.0068 0.9619
8.6361 -3.9440 -2.0069 0.9619
8.8961 -3.3181 -2.0070 0.9619
9.2788 -2.0185 -2.0072 0.9619
9.3995 -1.3515 -2.0073 0.9619
-8.4963 0.0000 -1.9968 0.9657
-8.4477 -0.9082 -1.9968 0.9657
-8.3616 -1.5086 -1.9969 0.9657
-8.2330 -2.1013 -1.9970 0.9657
-8.1529 -2.3939 -1.9970 0.9657
-8.0625 -2.6835 -1.9971 0.9657
-7.8510 -3.2520 -1.9972 0.9657
-7.7302 -3.5303 -1.9973 0.9657
-7.5996 -3.8041 -1.9973 0.9657
-7.4593 -4.0731 -1.9974 0.9657
-7.3095 -4.3369 -1.9975 0.9657
-6.6192 -5.3341 -1.9979 0.9657
-6.4250 -5.5673 -1.9980 0.9657
-6.2225 -5.7934 -1.9982 0.9657
-6.0122 -6.0122 -1.9983 0.9657
-5.5687 -6.4266 -1.9985 0.9657
-4.5987 -7.1557 -1.9991 0.9657
-4.0771 -7.4667 -1.9994 0.9656
-3.8083 -7.6081 -1.9996 0.9656
-3.5346 -7.7398 -1.9997 0.9656
-2.9740 -7.9735 -2.0001 0.9656
-2.6877 -8.0753 -2.0002 0.9656
-2.3980 -8.1667 -2.0004 0.9656
-1.8096 -8.3184 -2.0007 0.9656
-1.5116 -8.3785 -2.0009 0.9656
-1.2117 -8.4278 -2.0011 0.9656
0.0000 -8.5175 -2.0018 0.9656
0.3040 -8.5128 -2.0020 0.9656
0.6077 -8.4973 -2.0022 0.9656
0.9107 -8.4709 -2.0023 0.9656
1.2126 -8.4338 -2.0025 0.9656
2.1077 -8.2580 -2.0030 0.9656
2.4013 -8.1782 -2.0032 0.9656
2.6919 -8.0880 -2.0034 0.9656
3.8168 -7.6251 -2.0040 0.9656
4.8646 -7.0064 -2.0047 0.9656
5.1120 -6.8288 -2.0048 0.9656
5.3528 -6.6424 -2.0049 0.9656
5.5869 -6.4476 -2.0051 0.9656
5.8138 -6.2445 -2.0052 0.9655
6.4492 -5.5883 -2.0056 0.9655
6.6450 -5.3548 -2.0057 0.9655
6.8322 -5.1145 -2.0058 0.9655
7.1804 -4.6146 -2.0060 0.9655
7.3409 -4.3555 -2.0061 0.9655
7.6335 -3.8211 -2.0063 0.9655
7.8873 -3.2670 -2.0064 0.9655
7.9991 -2.9835 -2.0065 0.9655
8.1007 -2.6962 -2.0065 0.9655
8.1920 -2.4054 -2.0066 0.9655
8.2728 -2.1115 -2.0066 0.9655
8.4027 -1.5160 -2.0067 0.9655
8.4516 -1.2152 -2.0067 0.9655
8.4897 -0.9127 -2.0068 0.9655
-7.7090 -0.2753 -1.9973 0.9686
-7.6943 -0.5503 -1.9973 0.9686
-7.6698 -0.8246 -1.9973 0.9686
-7.6356 -1.0978 -1.9973 0.9686
-7.4748 -1.9079 -1.9974 0.9686
-7.3200 -2.4363 -1.9975 0.9686
-6.8997 -3.4537 -1.9978 0.9686
-6.7722 -3.6979 -1.9978 0.9686
-6.6362 -3.9374 -1.9979 0.9686
-6.0094 -4.8427 -1.9983 0.9686
-5.8330 -5.0544 -1.9984 0.9686
-5.4582 -5.4582 -1.9986 0.9686
-4.6270 -6.1810 -1.9991 0.9686
-4.4037 -6.3426 -1.9992 0.9686
-2.6997 -7.2382 -2.0002 0.9686
-2.4398 -7.3306 -2.0004 0.9686
-2.1768 -7.4135 -2.0005 0.9686
-1.6426 -7.5511 -2.0008 0.9686
-1.3722 -7.6055 -2.0010 0.9686
-1.0999 -7.6503 -2.0012 0.9686
-0.2759 -7.7259 -2.0016 0.9686
0.5516 -7.7130 -2.0021 0.9686
0.8267 -7.6890 -2.0023 0.9686
1.1007 -7.6552 -2.0025 0.9685
1.6442 -7.5584 -2.0028 0.9685
2.1796 -7.4230 -2.0031 0.9685
2.9613 -7.1491 -2.0035 0.9685
3.2148 -7.0394 -2.0037 0.9685
3.4642 -6.9206 -2.0038 0.9685
3.9497 -6.6568 -2.0041 0.9685
4.1850 -6.5120 -2.0043 0.9685
5.0705 -5.8517 -2.0048 0.9685
5.2765 -5.6673 -2.0049 0.9685
5.4757 -5.4757 -2.0050 0.9685
5.6680 -5.2771 -2.0051 0.9685
6.0306 -4.8598 -2.0053 0.9685
6.2005 -4.6417 -2.0054 0.9685
6.6621 -3.9528 -2.0057 0.9685
6.7992 -3.7126 -2.0058 0.9685
6.9276 -3.4677 -2.0059 0.9685
7.1578 -2.9649 -2.0060 0.9685
7.2593 -2.7076 -2.0060 0.9685
7.3515 -2.4468 -2.0061 0.9685
7.4344 -2.1829 -2.0061 0.9685
7.5077 -1.9162 -2.0062 0.9685
7.7044 -0.8283 -2.0063 0.9685
-7.0521 -0.2519 -1.9977 0.9711
-6.9849 -1.0043 -1.9977 0.9711
-6.8956 -1.5001 -1.9978 0.9711
-6.8378 -1.7452 -1.9978 0.9711
-6.6962 -2.2287 -1.9979 0.9711
-6.3115 -3.1593 -1.9981 0.9711
-6.1950 -3.3827 -1.9982 0.9711
-5.3357 -4.6234 -1.9987 0.9711
-4.9928 -4.9928 -1.9989 0.9711
-4.8116 -5.1681 -1.9990 0.9711
-4.4312 -5.4988 -1.9992 0.9711
-4.0281 -5.8016 -1.9994 0.9711
-3.8187 -5.9420 -1.9996 0.9711
-3.3855 -6.2001 -1.9998 0.9711
-2.7039 -6.5278 -2.0002 0.9711
-2.2316 -6.7049 -2.0005 0.9711
-1.9910 -6.7808 -2.0006 0.9710
-1.7479 -6.8480 -2.0008 0.9710
-1.5024 -6.9066 -2.0009 0.9710
-1.0060 -6.9972 -2.0012 0.9710
-0.5044 -7.0521 -2.0015 0.9710
-0.2524 -7.0662 -2.0017 0.9710
1.0066 -7.0013 -2.0024 0.9710
1.2560 -6.9614 -2.0025 0.9710
1.5038 -6.9126 -2.0027 0.9710
1.7497 -6.8550 -2.0028 0.9710
2.2345 -6.7137 -2.0031 0.9710
2.4729 -6.6301 -2.0033 0.9710
2.7082 -6.5381 -2.0034 0.9710
2.9283 -6.4121 -1.9955 0.9711
3.1681 -6.3291 -2.0037 0.9710
3.3922 -6.2124 -2.0038 0.9710
3.6120 -6.0877 -2.0039 0.9710
4.2429 -5.6678 -2.0043 0.9710
4.6369 -5.3513 -2.0045 0.9710
4.8252 -5.1827 -2.0046 0.9710
5.0074 -5.0074 -2.0047 0.9710
5.3524 -4.6379 -2.0049 0.9710
5.6702 -4.2446 -2.0051 0.9710
5.8183 -4.0397 -2.0052 0.9710
5.9590 -3.8296 -2.0053 0.9710
6.2175 -3.3950 -2.0054 0.9710
6.3349 -3.1710 -2.0055 0.9710
6.6382 -2.4759 -2.0057 0.9710
6.9236 -1.5061 -2.0058 0.9710
7.0135 -1.0084 -2.0059 0.9710
7.0451 -0.7574 -2.0059 0.9710
7.0813 -0.2529 -2.0059 0.9710
-6.4917 -0.2318 -1.9980 0.9732
-6.4793 -0.4634 -1.9980 0.9732
-6.4587 -0.6944 -1.9980 0.9732
-6.4299 -0.9245 -1.9980 0.9732
-6.3928 -1.1534 -1.9980 0.9732
-6.3477 -1.3809 -1.9981 0.9732
-6.2945 -1.6066 -1.9981 0.9732
-6.2332 -1.8302 -1.9981 0.9732
-6.1641 -2.0516 -1.9982 0.9732
-6.0023 -2.4862 -1.9983 0.9732
-5.7026 -3.1139 -1.9985 0.9732
-5.5880 -3.3155 -1.9985 0.9732
-5.4663 -3.5130 -1.9986 0.9732
-5.3377 -3.7060 -1.9987 0.9732
-5.2022 -3.8943 -1.9988 0.9732
-4.5958 -4.5958 -1.9991 0.9732
-4.4291 -4.7572 -1.9992 0.9732
-3.7078 -5.3402 -1.9996 0.9732
-3.5150 -5.4695 -1.9997 0.9732
-3.1162 -5.7070 -2.0000 0.9732
-2.4888 -6.0085 -2.0003 0.9732
-1.8326 -6.2413 -2.0007 0.9731
-1.6088 -6.3031 -2.0009 0.9731
-1.3829 -6.3570 -2.0010 0.9731
-1.1552 -6.4027 -2.0011 0.9731
-0.9260 -6.4403 -2.0013 0.9731
-0.6956 -6.4697 -2.0014 0.9731
0.0000 -6.5083 -2.0018 0.9731
0.4644 -6.4926 -2.0021 0.9731
1.1560 -6.4070 -2.0025 0.9731
2.9157 -5.8248 -2.0035 0.9731
3.7158 -5.3518 -2.0040 0.9731
3.9047 -5.2161 -2.0041 0.9731
4.2673 -4.9248 -2.0043 0.9731
4.4406 -4.7695 -2.0044 0.9731
4.6082 -4.6082 -2.0045 0.9731
4.7700 -4.4410 -2.0046 0.9731
5.0751 -4.0898 -2.0048 0.9731
5.2181 -3.9062 -2.0049 0.9731
5.4839 -3.5243 -2.0050 0.9731
5.6064 -3.3264 -2.0051 0.9731
5.8298 -2.9182 -2.0052 0.9731
5.9304 -2.7083 -2.0053 0.9731
6.1088 -2.2785 -2.0054 0.9731
6.1864 -2.0590 -2.0054 0.9731
6.3177 -1.6125 -2.0055 0.9731
6.4168 -1.1577 -2.0056 0.9731
6.4542 -0.9280 -2.0056 0.9731
6.4832 -0.6970 -2.0056 0.9731
6.5040 -0.4652 -2.0056 0.9731
6.5165 -0.2327 -2.0056 0.9731
-5.9963 -0.4289 -1.9983 0.9750
-5.9162 -1.0674 -1.9983 0.9750
-5.8744 -1.2779 -1.9984 0.9750
-5.7685 -1.6938 -1.9984 0.9750
-5.6332 -2.1010 -1.9985 0.9750
-5.4692 -2.4977 -1.9986 0.9750
-5.3767 -2.6914 -1.9986 0.9750
-5.1713 -3.0683 -1.9988 0.9750
-5.0587 -3.2510 -1.9988 0.9750
-4.8142 -3.6039 -1.9990 0.9750
-4.6827 -3.7735 -1.9991 0.9750
-4.5452 -3.9384 -1.9991 0.9750
-3.6051 -4.8159 -1.9997 0.9750
-3.0702 -5.1745 -2.0000 0.9750
-2.6935 -5.3809 -2.0002 0.9750
-2.4999 -5.4739 -2.0003 0.9750
-0.8568 -5.9594 -2.0013 0.9749
-0.6436 -5.9865 -2.0014 0.9749
-0.2149 -6.0179 -2.0017 0.9749
0.0000 -6.0222 -2.0018 0.9749
0.6439 -5.9888 -2.0022 0.9749
0.8573 -5.9624 -2.0023 0.9749
1.2806 -5.8868 -2.0026 0.9749
1.4900 -5.8376 -2.0027 0.9749
1.6975 -5.7811 -2.0028 0.9749
1.9029 -5.7172 -2.0029 0.9749
2.1058 -5.6459 -2.0030 0.9749
2.3061 -5.5675 -2.0032 0.9749
2.6978 -5.3894 -2.0034 0.9749
3.0757 -5.1838 -2.0036 0.9749
3.2589 -5.0710 -2.0037 0.9749
3.4380 -4.9517 -2.0038 0.9749
3.6128 -4.8261 -2.0039 0.9749
4.1085 -4.4129 -2.0042 0.9749
4.2636 -4.2636 -2.0043 0.9749
4.5573 -3.9489 -2.0045 0.9749
4.6955 -3.7839 -2.0045 0.9749
4.8278 -3.6140 -2.0046 0.9749
4.9539 -3.4396 -2.0047 0.9749
5.0737 -3.2607 -2.0048 0.9749
5.1870 -3.0776 -2.0048 0.9749
5.2937 -2.8906 -2.0049 0.9749
5.3937 -2.6999 -2.0050 0.9749
5.6518 -2.1080 -2.0051 0.9749
5.7235 -1.9050 -2.0051 0.9749
5.8451 -1.4919 -2.0052 0.9749
-5.5886 0.0000 -1.9985 0.9765
-5.5850 -0.1995 -1.9985 0.9765
-5.5744 -0.3987 -1.9985 0.9765
-5.5566 -0.5974 -1.9985 0.9765
-5.4153 -1.3822 -1.9986 0.9765
-5.2368 -1.9532 -1.9987 0.9765
-5.1638 -2.1389 -1.9988 0.9765
-4.9983 -2.5020 -1.9989 0.9765
-4.9060 -2.6789 -1.9989 0.9765
-4.8074 -2.8523 -1.9990 0.9765
-4.4754 -3.3502 -1.9992 0.9765
-4.2253 -3.6612 -1.9993 0.9765
-4.0921 -3.8098 -1.9994 0.9765
-3.8102 -4.0924 -1.9996 0.9765
-3.6618 -4.2260 -1.9997 0.9765
-3.5088 -4.3542 -1.9997 0.9765
-3.1895 -4.5938 -1.9999 0.9765
-3.0237 -4.7050 -2.0000 0.9765
-2.3238 -5.0884 -2.0004 0.9765
-1.5763 -5.3685 -2.0009 0.9765
-1.3838 -5.4217 -2.0010 0.9765
-0.9936 -5.5072 -2.0012 0.9765
-0.7965 -5.5395 -2.0013 0.9765
-0.5983 -5.5647 -2.0015 0.9765
-0.1998 -5.5939 -2.0017 0.9765
0.1998 -5.5945 -2.0019 0.9765
0.5985 -5.5667 -2.0022 0.9765
0.7968 -5.5421 -2.0023 0.9765
1.1903 -5.4717 -2.0025 0.9765
1.3849 -5.4261 -2.0026 0.9765
1.5778 -5.3735 -2.0027 0.9765
1.7687 -5.3140 -2.0028 0.9765
1.9573 -5.2478 -2.0029 0.9765
2.3270 -5.0954 -2.0032 0.9765
2.6848 -4.9169 -2.0034 0.9765
2.8588 -4.8182 -2.0035 0.9765
3.1955 -4.6024 -2.0037 0.9765
3.3579 -4.4856 -2.0038 0.9765
3.5160 -4.3631 -2.0039 0.9765
3.6697 -4.2350 -2.0039 0.9765
3.9628 -3.9628 -2.0041 0.9765
4.1019 -3.8190 -2.0042 0.9765
4.2357 -3.6703 -2.0043 0.9765
4.4871 -3.3590 -2.0044 0.9765
4.8209 -2.8604 -2.0046 0.9765
4.9201 -2.6866 -2.0047 0.9765
5.1795 -2.1454 -2.0048 0.9765
5.2529 -1.9592 -2.0049 0.9765
5.3196 -1.7705 -2.0049 0.9765
5.4325 -1.3866 -2.0050 0.9765
5.4786 -1.1918 -2.0050 0.9765
5.5177 -0.9955 -2.0050 0.9765
5.5498 -0.7979 -2.0050 0.9765
-5.2157 0.0000 -1.9987 0.9779
-5.2123 -0.1861 -1.9987 0.9779
-5.1858 -0.5575 -1.9988 0.9779
-5.1627 -0.7423 -1.9988 0.9779
-5.1329 -0.9261 -1.9988 0.9779
-5.0047 -1.4695 -1.9989 0.9779
-4.9491 -1.6472 -1.9989 0.9779
-4.8873 -1.8229 -1.9989 0.9779
-4.8192 -1.9962 -1.9990 0.9779
-4.5785 -2.5001 -1.9991 0.9779
-4.2854 -2.9754 -1.9993 0.9779
-4.1766 -3.1266 -1.9994 0.9779
-4.0625 -3.2738 -1.9994 0.9779
-3.9432 -3.4168 -1.9995 0.9779
-3.8189 -3.5555 -1.9996 0.9779
-3.6897 -3.6897 -1.9996 0.9779
-3.2745 -4.0635 -1.9999 0.9779
-3.1276 -4.1779 -2.0000 0.9779
-2.9766 -4.2871 -2.0001 0.9779
-2.8218 -4.3908 -2.0001 0.9779
-2.6634 -4.4889 -2.0002 0.9779
-2.5016 -4.5813 -2.0003 0.9779
-2.1686 -4.7486 -2.0005 0.9779
-1.4710 -5.0099 -2.0009 0.9779
-1.1100 -5.1026 -2.0012 0.9779
-0.7432 -5.1694 -2.0014 0.9779
-0.5583 -5.1929 -2.0015 0.9779
-0.3726 -5.2098 -2.0016 0.9779
0.3727 -5.2109 -2.0020 0.9779
0.5585 -5.1946 -2.0021 0.9779
1.2923 -5.0633 -2.0026 0.9779
2.5053 -4.5880 -2.0033 0.9779
2.8265 -4.3981 -2.0035 0.9779
2.9818 -4.2946 -2.0035 0.9779
3.2808 -4.0713 -2.0037 0.9779
3.4242 -3.9517 -2.0038 0.9779
3.9523 -3.4247 -2.0041 0.9778
4.0722 -3.2816 -2.0042 0.9778
4.1869 -3.1343 -2.0042 0.9778
4.2962 -2.9829 -2.0043 0.9778
4.4001 -2.8277 -2.0044 0.9778
4.4983 -2.6690 -2.0044 0.9778
4.5908 -2.5068 -2.0045 0.9778
4.7582 -2.1730 -2.0046 0.9778
4.9635 -1.6520 -2.0047 0.9778
5.0194 -1.4738 -2.0047 0.9778
5.0689 -1.2938 -2.0048 0.9778
5.1119 -1.1120 -2.0048 0.9778
5.1484 -0.9289 -2.0048 0.9778
5.2016 -0.5592 -2.0048 0.9778
5.2183 -0.3732 -2.0048 0.9778
-1.9525 -0.1396 -0.8011 0.9916
-1.9569 -0.2104 -0.8055 0.9915
-1.9449 -0.2796 -0.8042 0.9915
-2.1703 -0.3916 -0.9026 0.9905
-4.7726 -1.0382 -1.9990 0.9791
-4.6345 -1.5425 -1.9991 0.9791
-4.5765 -1.7070 -1.9991 0.9791
-4.2012 -2.4927 -1.9993 0.9791
-4.0129 -2.7862 -1.9994 0.9791
-3.8042 -3.0656 -1.9996 0.9791
-3.6924 -3.1995 -1.9996 0.9791
-3.4550 -3.4550 -1.9998 0.9791
-3.2000 -3.6930 -1.9999 0.9791
-3.0662 -3.8050 -2.0000 0.9791
-2.7872 -4.0144 -2.0002 0.9791
-2.6423 -4.1115 -2.0003 0.9791
-2.3424 -4.2899 -2.0004 0.9791
-1.8707 -4.5163 -2.0007 0.9791
-1.7084 -4.5804 -2.0008 0.9791
-1.3774 -4.6911 -2.0010 0.9791
-1.2092 -4.7375 -2.0011 0.9791
-0.5227 -4.8623 -2.0015 0.9791
0.0000 -4.8911 -2.0018 0.9791
0.1746 -4.8882 -2.0019 0.9791
0.8687 -4.8146 -2.0023 0.9791
1.3785 -4.6948 -2.0026 0.9791
1.5453 -4.6429 -2.0027 0.9791
1.7101 -4.5850 -2.0028 0.9791
1.8728 -4.5213 -2.0029 0.9791
3.3361 -3.5832 -2.0038 0.9791
3.4620 -3.4620 -2.0038 0.9791
3.5835 -3.3364 -2.0039 0.9791
3.7004 -3.2064 -2.0040 0.9791
3.8127 -3.0724 -2.0040 0.9791
3.9200 -2.9345 -2.0041 0.9791
4.1196 -2.6475 -2.0042 0.9791
4.2116 -2.4988 -2.0043 0.9791
4.3793 -2.1921 -2.0044 0.9791
4.4549 -2.0345 -2.0044 0.9791
4.5888 -1.7115 -2.0045 0.9791
4.6994 -1.3799 -2.0045 0.9791
4.7860 -1.0411 -2.0046 0.9791
4.8481 -0.6971 -2.0046 0.9791
4.8700 -0.5236 -2.0046 0.9791
4.8856 -0.3494 -2.0047 0.9791
-1.5222 0.0000 -0.6634 0.9934
-1.5249 -0.1640 -0.6684 0.9933
-1.5214 -0.3310 -0.6786 0.9932
-1.5485 -0.3952 -0.6965 0.9931
-1.5707 -0.4612 -0.7134 0.9929
-4.1024 -2.0535 -1.9994 0.9802
-3.4678 -3.0049 -1.9998 0.9802
-3.2448 -3.2448 -1.9999 0.9802
-3.1270 -3.3587 -2.0000 0.9802
-2.7504 -3.6741 -2.0002 0.9802
-2.4815 -3.8612 -2.0003 0.9802
-2.3422 -3.9475 -2.0004 0.9802
-2.1999 -4.0288 -2.0005 0.9802
-1.9070 -4.1758 -2.0007 0.9802
-1.7568 -4.2414 -2.0008 0.9802
-1.6044 -4.3016 -2.0009 0.9802
-1.4499 -4.3563 -2.0010 0.9802
-1.2936 -4.4055 -2.0010 0.9802
-0.6535 -4.5456 -2.0014 0.9802
0.1640 -4.5905 -2.0019 0.9802
0.3277 -4.5819 -2.0020 0.9802
0.6538 -4.5473 -2.0022 0.9802
0.8157 -4.5213 -2.0023 0.9802
0.9766 -4.4895 -2.0024 0.9802
1.2946 -4.4088 -2.0026 0.9802
2.0572 -4.1098 -2.0030 0.9801
3.0106 -3.4744 -2.0036 0.9801
3.1328 -3.3648 -2.0036 0.9801
3.2510 -3.2510 -2.0037 0.9801
3.3651 -3.1330 -2.0038 0.9801
3.4749 -3.0110 -2.0038 0.9801
3.6810 -2.7556 -2.0040 0.9801
4.2488 -1.7599 -2.0043 0.9801
4.3090 -1.6072 -2.0043 0.9801
4.3637 -1.4524 -2.0043 0.9801
4.5262 -0.8166 -2.0044 0.9801
4.5964 -0.1642 -2.0045 0.9801
-1.3273 -0.1908 -0.6207 0.9941
-1.3013 -0.2831 -0.6164 0.9941
-1.3241 -0.3888 -0.6388 0.9939
-1.3263 -0.5494 -0.6645 0.9937
-1.3151 -0.6006 -0.6692 0.9936
-3.7914 -2.0703 -1.9996 0.9811
-3.7152 -2.2043 -1.9996 0.9811
-3.6342 -2.3356 -1.9997 0.9811
-3.5486 -2.4639 -1.9997 0.9811
-3.4585 -2.5890 -1.9998 0.9811
-3.2652 -2.8293 -1.9999 0.9811
-3.1622 -2.9441 -1.9999 0.9811
-3.0552 -3.0552 -2.0000 0.9811
-2.8297 -3.2656 -2.0001 0.9811
-2.5897 -3.4594 -2.0003 0.9811
-2.4646 -3.5498 -2.0004 0.9811
-1.9347 -3.8650 -2.0007 0.9811
-1.7956 -3.9317 -2.0007 0.9811
-1.2179 -4.1480 -2.0011 0.9811
-1.0692 -4.1890 -2.0012 0.9811
-0.3085 -4.3132 -2.0016 0.9811
-0.1543 -4.3217 -2.0017 0.9811
0.0000 -4.3246 -2.0018 0.9811
0.3085 -4.3140 -2.0020 0.9811
0.4623 -4.3004 -2.0021 0.9811
0.7680 -4.2569 -2.0022 0.9811
1.0698 -4.1916 -2.0024 0.9811
1.3663 -4.1050 -2.0026 0.9811
1.5120 -4.0537 -2.0027 0.9811
1.6558 -3.9974 -2.0028 0.9811
1.7975 -3.9359 -2.0029 0.9811
1.9369 -3.8694 -2.0029 0.9811
2.2082 -3.7216 -2.0031 0.9811
3.0607 -3.0607 -2.0036 0.9811
3.2715 -2.8347 -2.0037 0.9811
3.3706 -2.7162 -2.0038 0.9811
3.5560 -2.4690 -2.0039 0.9811
3.6420 -2.3406 -2.0039 0.9811
3.7233 -2.2091 -2.0040 0.9811
3.7998 -2.0749 -2.0040 0.9811
3.8716 -1.9380 -2.0041 0.9811
3.9383 -1.7986 -2.0041 0.9811
4.0567 -1.5131 -2.0042 0.9811
4.1082 -1.3673 -2.0042 0.9811
4.1545 -1.2199 -2.0042 0.9811
4.1954 -1.0708 -2.0042 0.9811
4.2612 -0.7688 -2.0043 0.9811
4.2859 -0.6162 -2.0043 0.9811
4.3052 -0.4629 -2.0043 0.9811
4.3273 -0.1545 -2.0043 0.9811
-1.1954 0.0000 -0.5864 0.9947
-1.1965 -0.0427 -0.5873 0.9947
-1.1921 -0.1282 -0.5881 0.9947
-1.1791 -0.2127 -0.5877 0.9947
-1.1590 -0.3403 -0.5925 0.9946
-1.1578 -0.3854 -0.5986 0.9946
-1.1484 -0.4757 -0.6097 0.9945
-1.1400 -0.5206 -0.6148 0.9944
-1.1113 -0.6068 -0.6211 0.9944
-3.5061 -2.0802 -1.9997 0.9820
-3.3489 -2.3252 -1.9998 0.9820
-3.2638 -2.4433 -1.9999 0.9820
-2.8832 -2.8832 -2.0001 0.9820
-2.6704 -3.0817 -2.0002 0.9820
-2.5587 -3.1752 -2.0003 0.9820
-2.4439 -3.2646 -2.0004 0.9820
-2.0811 -3.5075 -2.0006 0.9820
-1.9547 -3.5797 -2.0007 0.9820
-1.8257 -3.6473 -2.0007 0.9820
-1.6944 -3.7103 -2.0008 0.9820
-1.5610 -3.7686 -2.0009 0.9820
-1.1494 -3.9143 -2.0011 0.9820
-0.7244 -4.0153 -2.0014 0.9820
-0.4362 -4.0570 -2.0015 0.9820
-0.2911 -4.0702 -2.0016 0.9820
0.1457 -4.0785 -2.0019 0.9820
0.2912 -4.0709 -2.0020 0.9820
0.4363 -4.0581 -2.0021 0.9820
0.5809 -4.0401 -2.0021 0.9820
0.7247 -4.0170 -2.0022 0.9820
0.8677 -3.9887 -2.0023 0.9820
1.0095 -3.9553 -2.0024 0.9820
1.1501 -3.9169 -2.0025 0.9820
1.5624 -3.7720 -2.0027 0.9820
1.6961 -3.7140 -2.0028 0.9820
1.9569 -3.5838 -2.0029 0.9820
2.2078 -3.4353 -2.0031 0.9820
2.4474 -3.2693 -2.0032 0.9820
2.5626 -3.1800 -2.0033 0.9820
2.8881 -2.8881 -2.0035 0.9820
2.9894 -2.7832 -2.0035 0.9820
3.1805 -2.5630 -2.0037 0.9820
3.2701 -2.4479 -2.0037 0.9820
3.3555 -2.3297 -2.0038 0.9820
3.5133 -2.0845 -2.0039 0.9820
3.5855 -1.9578 -2.0039 0.9820
3.6532 -1.8286 -2.0039 0.9820
3.7162 -1.6971 -2.0040 0.9820
3.8765 -1.2902 -2.0041 0.9820
3.9587 -1.0104 -2.0041 0.9820
4.0832 -0.1458 -2.0042 0.9820
-1.1058 0.0000 -0.5737 0.9950
-1.1066 -0.0395 -0.5744 0.9950
-1.1055 -0.0791 -0.5750 0.9950
-1.0974 -0.1578 -0.5752 0.9950
-1.0617 -0.3534 -0.5805 0.9950
-1.0576 -0.3945 -0.5856 0.9949
-1.0298 -0.5155 -0.5974 0.9948
-1.0118 -0.5525 -0.5981 0.9948
-0.9917 -0.5884 -0.5982 0.9948
-3.1666 -2.1986 -1.9999 0.9828
-3.0862 -2.3103 -2.0000 0.9828
-2.8218 -2.6272 -2.0001 0.9828
-2.7263 -2.7263 -2.0002 0.9828
-2.6273 -2.8220 -2.0003 0.9828
-2.4195 -3.0025 -2.0004 0.9828
-2.3108 -3.0869 -2.0004 0.9828
-2.1993 -3.1675 -2.0005 0.9828
-2.0849 -3.2441 -2.0006 0.9828
-1.4760 -3.5634 -2.0009 0.9828
-0.5491 -3.8188 -2.0015 0.9828
-0.2753 -3.8485 -2.0016 0.9828
-0.1377 -3.8560 -2.0017 0.9828
0.2753 -3.8491 -2.0020 0.9828
0.4125 -3.8370 -2.0020 0.9828
0.5492 -3.8200 -2.0021 0.9828
0.8204 -3.7714 -2.0023 0.9828
0.9545 -3.7399 -2.0024 0.9828
1.0875 -3.7035 -2.0024 0.9828
1.3490 -3.6168 -2.0026 0.9828
1.4773 -3.5665 -2.0027 0.9828
1.6037 -3.5116 -2.0027 0.9828
1.8503 -3.3885 -2.0029 0.9828
2.3140 -3.0911 -2.0032 0.9828
2.5288 -2.9183 -2.0033 0.9827
2.6314 -2.8263 -2.0033 0.9827
2.7307 -2.7307 -2.0034 0.9827
2.8265 -2.6315 -2.0035 0.9827
2.9187 -2.5290 -2.0035 0.9827
3.0918 -2.3145 -2.0036 0.9827
3.3900 -1.8511 -2.0038 0.9827
3.7064 -1.0883 -2.0040 0.9827
3.7429 -0.9553 -2.0040 0.9827
3.7746 -0.8211 -2.0040 0.9827
3.8016 -0.6859 -2.0040 0.9827
3.8237 -0.5498 -2.0040 0.9827
3.8409 -0.4129 -2.0040 0.9827
3.8532 -0.2756 -2.0040 0.9827
3.8606 -0.1379 -2.0041 0.9827
-1.0269 0.0000 -0.5625 0.9953
-1.0276 -0.0367 -0.5632 0.9953
-1.0236 -0.1101 -0.5639 0.9953
-1.0190 -0.1465 -0.5638 0.9953
-1.0039 -0.2184 -0.5627 0.9953
-0.9820 -0.2883 -0.5606 0.9953
-0.9785 -0.3257 -0.5648 0.9953
-0.9741 -0.3633 -0.5694 0.9953
-0.9580 -0.4375 -0.5768 0.9952
-0.9434 -0.4722 -0.5778 0.9952
-0.9084 -0.5390 -0.5785 0.9952
-0.8661 -0.6014 -0.5775 0.9952
-2.9234 -2.1884 -2.0001 0.9835
-2.8435 -2.2914 -2.0001 0.9835
-2.5824 -2.5824 -2.0003 0.9835
-2.4887 -2.6731 -2.0003 0.9835
-2.1889 -2.9240 -2.0005 0.9835
-2.0832 -3.0004 -2.0006 0.9835
-1.9748 -3.0729 -2.0006 0.9835
-1.8640 -3.1415 -2.0007 0.9835
-1.7507 -3.2062 -2.0008 0.9835
-1.3981 -3.3753 -2.0010 0.9835
-1.1538 -3.4667 -2.0011 0.9835
-0.7767 -3.5706 -2.0013 0.9835
-0.3906 -3.6335 -2.0016 0.9835
-0.2607 -3.6453 -2.0016 0.9835
0.0000 -3.6549 -2.0018 0.9835
0.2608 -3.6459 -2.0020 0.9835
0.5202 -3.6182 -2.0021 0.9835
0.7771 -3.5722 -2.0023 0.9835
0.9041 -3.5423 -2.0023 0.9835
1.0300 -3.5079 -2.0024 0.9835
1.1546 -3.4690 -2.0025 0.9835
1.2777 -3.4257 -2.0025 0.9835
1.3992 -3.3781 -2.0026 0.9835
1.5190 -3.3261 -2.0027 0.9835
1.7525 -3.2095 -2.0028 0.9835
1.9771 -3.0765 -2.0030 0.9835
2.0857 -3.0040 -2.0030 0.9835
2.5864 -2.5863 -2.0033 0.9835
2.8482 -2.2952 -2.0035 0.9835
2.9284 -2.1922 -2.0035 0.9835
3.0048 -2.0863 -2.0036 0.9835
3.2108 -1.7532 -2.0037 0.9835
3.4279 -1.2785 -2.0038 0.9835
3.5450 -0.9048 -2.0039 0.9835
3.6006 -0.6496 -2.0039 0.9835
3.6215 -0.5207 -2.0039 0.9835
3.6378 -0.3911 -2.0039 0.9835
3.6495 -0.2610 -2.0039 0.9835
3.6565 -0.1306 -2.0039 0.9835
-0.9570 0.0000 -0.5525 0.9956
-0.9575 -0.0342 -0.5532 0.9956
-0.9430 -0.1701 -0.5532 0.9956
-0.9353 -0.2035 -0.5526 0.9956
-0.9057 -0.3015 -0.5511 0.9956
-0.9011 -0.3361 -0.5553 0.9956
-0.8823 -0.4029 -0.5600 0.9955
-0.8687 -0.4349 -0.5609 0.9955
-0.7671 -0.6182 -0.5688 0.9955
-2.4499 -2.4499 -2.0004 0.9841
-2.3610 -2.5359 -2.0004 0.9841
-2.1742 -2.6980 -2.0005 0.9841
-2.0766 -2.7740 -2.0006 0.9841
-1.9763 -2.8464 -2.0006 0.9841
-1.8735 -2.9152 -2.0007 0.9841
-1.7683 -2.9803 -2.0008 0.9841
-1.6609 -3.0416 -2.0008 0.9841
-1.5513 -3.0991 -2.0009 0.9841
-1.2112 -3.2475 -2.0011 0.9841
-1.0946 -3.2887 -2.0012 0.9841
-0.6155 -3.4115 -2.0014 0.9841
-0.3706 -3.4470 -2.0016 0.9841
-0.2473 -3.4581 -2.0017 0.9841
-0.1237 -3.4649 -2.0017 0.9841
0.1238 -3.4651 -2.0019 0.9841
0.4935 -3.4324 -2.0021 0.9841
0.7372 -3.3887 -2.0022 0.9841
0.8577 -3.3604 -2.0023 0.9841
1.2121 -3.2498 -2.0025 0.9841
1.4409 -3.1552 -2.0026 0.9841
1.5527 -3.1019 -2.0027 0.9841
1.7701 -2.9834 -2.0028 0.9841
1.8756 -2.9184 -2.0029 0.9841
1.9786 -2.8497 -2.0030 0.9841
2.1770 -2.7014 -2.0031 0.9841
2.2721 -2.6221 -2.0031 0.9841
2.3643 -2.5394 -2.0032 0.9841
2.4534 -2.4534 -2.0032 0.9841
2.5395 -2.3644 -2.0033 0.9841
2.6224 -2.2723 -2.0033 0.9841
2.8504 -1.9791 -2.0035 0.9841
2.9193 -1.8761 -2.0035 0.9841
3.1033 -1.5534 -2.0036 0.9841
1.8620 -0.7713 -1.1636 0.9907
1.9033 -0.6335 -1.1581 0.9908
1.9351 -0.5682 -1.1644 0.9907
1.9616 -0.5007 -1.1688 0.9907
2.0366 -0.2190 -1.1826 0.9906
2.0320 -0.0726 -1.1739 0.9907
