ply
format ascii 1.0
element vertex 714
property float32 x
property float32 y
property float32 z
property float32 I
end_header
-9.4766 0.0000 -2.0032 0.9620
-9.4524 -0.6761 -2.0032 0.9620
-9.4223 -1.0130 -2.0032 0.9620
-9.3801 -1.3487 -2.0031 0.9620
-8.8787 -3.3116 -2.0031 0.9620
-8.3167 -4.5412 -2.0030 0.9620
-8.1492 -4.8351 -2.0030 0.9620
-7.9713 -5.1228 -2.0029 0.9620
-7.7833 -5.4040 -2.0029 0.9620
-7.5853 -5.6783 -2.0029 0.9620
-7.3777 -5.9453 -2.0028 0.9620
-6.4560 -6.9342 -2.0027 0.9620
-6.2043 -7.1601 -2.0027 0.9620
-5.9446 -7.3769 -2.0026 0.9620
-5.1217 -7.9695 -2.0025 0.9620
-4.8339 -8.1471 -2.0024 0.9620
-4.5399 -8.3142 -2.0024 0.9620
-4.2402 -8.4708 -2.0024 0.9620
-3.9350 -8.6165 -2.0023 0.9620
-3.6249 -8.7513 -2.0023 0.9620
-3.3102 -8.8749 -2.0022 0.9620
-2.9912 -8.9872 -2.0022 0.9620
-2.6685 -9.0879 -2.0021 0.9620
-2.3423 -9.1772 -2.0021 0.9620
-1.3478 -9.3743 -2.0019 0.9620
-1.0123 -9.4162 -2.0019 0.9620
-0.6756 -9.4461 -2.0018 0.9620
-0.3380 -9.4639 -2.0018 0.9620
-0.0000 -9.4697 -2.0017 0.9620
0.3380 -9.4634 -2.0017 0.9620
1.3475 -9.3724 -2.0015 0.9620
2.0126 -9.2519 -2.0014 0.9620
2.6674 -9.0843 -2.0013 0.9620
3.3085 -8.8704 -2.0012 0.9620
3.9327 -8.6114 -2.0011 0.9620
4.5368 -8.3085 -2.0010 0.9620
4.8303 -8.1411 -2.0010 0.9620
5.1177 -7.9633 -2.0009 0.9620
5.3986 -7.7754 -2.0009 0.9620
5.9393 -7.3702 -2.0008 0.9620
6.1984 -7.1534 -2.0008 0.9620
6.4497 -6.9275 -2.0007 0.9620
6.6927 -6.6927 -2.0007 0.9620
6.9272 -6.4495 -2.0007 0.9620
7.3694 -5.9387 -2.0006 0.9620
7.5766 -5.6717 -2.0006 0.9620
7.7741 -5.3976 -2.0005 0.9620
7.9617 -5.1167 -2.0005 0.9620
8.1391 -4.8292 -2.0005 0.9620
8.3062 -4.5355 -2.0005 0.9620
8.6084 -3.9313 -2.0004 0.9620
9.2469 -2.0115 -2.0003 0.9620
9.3667 -1.3467 -2.0003 0.9621
9.4088 -1.0115 -2.0003 0.9621
-8.5227 -0.0000 -2.0030 0.9656
-8.5172 -0.3042 -2.0030 0.9656
-8.5009 -0.6080 -2.0030 0.9656
-8.4738 -0.9110 -2.0030 0.9656
-8.4358 -1.2129 -2.0030 0.9656
-8.3278 -1.8116 -2.0030 0.9656
-8.2577 -2.1077 -2.0030 0.9656
-8.1772 -2.4010 -2.0030 0.9656
-8.0862 -2.6914 -2.0029 0.9656
-7.9850 -2.9782 -2.0029 0.9656
-7.8735 -3.2613 -2.0029 0.9656
-7.1690 -4.6072 -2.0028 0.9656
-6.8218 -5.1067 -2.0028 0.9656
-6.6351 -5.3469 -2.0027 0.9656
-6.4399 -5.5802 -2.0027 0.9656
-5.8063 -6.2363 -2.0026 0.9656
-5.3464 -6.6344 -2.0025 0.9656
-5.1061 -6.8209 -2.0025 0.9656
-4.8593 -6.9987 -2.0025 0.9656
-4.6063 -7.1675 -2.0024 0.9656
-4.3475 -7.3272 -2.0024 0.9656
-3.8135 -7.6184 -2.0023 0.9656
-3.2602 -7.8707 -2.0022 0.9656
-2.4000 -8.1736 -2.0021 0.9656
-1.8107 -8.3236 -2.0020 0.9656
-1.5124 -8.3827 -2.0019 0.9656
-0.9105 -8.4688 -2.0018 0.9656
-0.6076 -8.4958 -2.0018 0.9656
0.3040 -8.5114 -2.0017 0.9656
0.6076 -8.4950 -2.0016 0.9656
0.9104 -8.4677 -2.0016 0.9656
2.3991 -8.1706 -2.0013 0.9656
2.6891 -8.0796 -2.0013 0.9656
3.2585 -7.8668 -2.0012 0.9656
3.5372 -7.7453 -2.0012 0.9656
3.8113 -7.6140 -2.0011 0.9656
4.3446 -7.3224 -2.0011 0.9656
4.6031 -7.1625 -2.0010 0.9656
4.8557 -6.9935 -2.0010 0.9656
5.1021 -6.8156 -2.0009 0.9656
5.8011 -6.2309 -2.0008 0.9656
6.0197 -6.0197 -2.0008 0.9656
6.6284 -5.3415 -2.0007 0.9656
6.8148 -5.1015 -2.0007 0.9656
7.3208 -4.3436 -2.0006 0.9656
7.4711 -4.0795 -2.0006 0.9656
7.6118 -3.8102 -2.0006 0.9656
8.0763 -2.6881 -2.0005 0.9656
8.1671 -2.3981 -2.0005 0.9656
8.3172 -1.8093 -2.0005 0.9656
8.3765 -1.5113 -2.0005 0.9656
8.4629 -0.9099 -2.0004 0.9656
8.4900 -0.6072 -2.0004 0.9656
8.5062 -0.3038 -2.0004 0.9656
-7.7159 -0.5518 -2.0029 0.9685
-7.6569 -1.1009 -2.0029 0.9685
-7.6127 -1.3735 -2.0029 0.9685
-7.5588 -1.6443 -2.0029 0.9685
-7.4952 -1.9130 -2.0029 0.9685
-7.3396 -2.4428 -2.0028 0.9685
-6.9170 -3.4624 -2.0028 0.9685
-6.5070 -4.1818 -2.0027 0.9685
-5.8454 -5.0650 -2.0026 0.9685
-5.6608 -5.2704 -2.0026 0.9685
-5.4690 -5.4690 -2.0025 0.9685
-5.0647 -5.8450 -2.0025 0.9685
-4.8528 -6.0220 -2.0025 0.9685
-4.6347 -6.1912 -2.0024 0.9685
-4.4107 -6.3526 -2.0024 0.9686
-4.1811 -6.5059 -2.0023 0.9686
-3.7062 -6.7873 -2.0023 0.9686
-3.2124 -7.0341 -2.0022 0.9686
-2.9592 -7.1442 -2.0022 0.9686
-2.7023 -7.2451 -2.0021 0.9686
-1.3728 -7.6090 -2.0019 0.9686
-1.1003 -7.6530 -2.0019 0.9686
-0.8265 -7.6872 -2.0018 0.9686
-0.5515 -7.7117 -2.0018 0.9686
-0.0000 -7.7311 -2.0017 0.9686
0.2759 -7.7260 -2.0017 0.9686
1.3725 -7.6074 -2.0015 0.9686
1.9117 -7.4898 -2.0014 0.9686
2.7012 -7.2421 -2.0013 0.9686
2.9579 -7.1410 -2.0013 0.9686
3.2108 -7.0307 -2.0012 0.9686
3.4597 -6.9115 -2.0012 0.9686
4.4077 -6.3483 -2.0010 0.9686
4.6314 -6.1869 -2.0010 0.9686
4.8492 -6.0175 -2.0010 0.9686
5.0608 -5.8405 -2.0009 0.9686
6.1861 -4.6309 -2.0008 0.9686
6.3474 -4.4071 -2.0008 0.9686
6.5006 -4.1777 -2.0007 0.9686
6.6455 -3.9430 -2.0007 0.9686
6.7819 -3.7032 -2.0007 0.9686
7.1387 -2.9570 -2.0006 0.9686
7.3314 -2.4401 -2.0006 0.9686
7.4138 -2.1769 -2.0006 0.9686
7.5501 -1.6424 -2.0006 0.9686
7.6823 -0.8259 -2.0006 0.9686
7.7069 -0.5512 -2.0006 0.9686
7.7217 -0.2758 -2.0006 0.9686
-7.0747 0.0000 -2.0028 0.9710
-7.0342 -0.7563 -2.0028 0.9710
-7.0027 -1.0068 -2.0028 0.9710
-6.9622 -1.2561 -2.0028 0.9710
-6.9129 -1.5038 -2.0028 0.9710
-6.8548 -1.7496 -2.0028 0.9710
-6.7880 -1.9931 -2.0028 0.9710
-6.6284 -2.4723 -2.0027 0.9710
-6.5359 -2.7073 -2.0027 0.9710
-6.4351 -2.9388 -2.0027 0.9710
-6.3260 -3.1666 -2.0027 0.9710
-6.2089 -3.3903 -2.0027 0.9710
-6.0839 -3.6097 -2.0026 0.9710
-5.9511 -3.8245 -2.0026 0.9710
-5.8107 -4.0345 -2.0026 0.9710
-5.5080 -4.4386 -2.0026 0.9710
-4.6321 -5.3457 -2.0024 0.9710
-4.4382 -5.5075 -2.0024 0.9710
-3.8239 -5.9501 -2.0023 0.9710
-3.3896 -6.2075 -2.0022 0.9710
-2.9380 -6.4333 -2.0022 0.9710
-1.7489 -6.8521 -2.0020 0.9710
-1.0064 -6.9994 -2.0019 0.9710
-0.7559 -7.0307 -2.0018 0.9710
-0.2524 -7.0665 -2.0018 0.9710
-0.0000 -7.0709 -2.0017 0.9710
0.5044 -7.0526 -2.0016 0.9710
0.7558 -7.0299 -2.0016 0.9710
1.0062 -6.9983 -2.0016 0.9710
1.2553 -6.9579 -2.0015 0.9710
1.5028 -6.9085 -2.0015 0.9710
1.7484 -6.8503 -2.0014 0.9710
1.9918 -6.7834 -2.0014 0.9710
2.4706 -6.6238 -2.0013 0.9710
2.7053 -6.5313 -2.0013 0.9710
3.6071 -6.0794 -2.0012 0.9710
4.0314 -5.8064 -2.0011 0.9710
4.6288 -5.3419 -2.0010 0.9710
5.1731 -4.8163 -2.0009 0.9710
5.3417 -4.6286 -2.0009 0.9710
5.6581 -4.2356 -2.0009 0.9710
6.0783 -3.6064 -2.0008 0.9710
6.2031 -3.3871 -2.0008 0.9710
6.4288 -2.9359 -2.0007 0.9710
6.6218 -2.4698 -2.0007 0.9710
6.7056 -2.2319 -2.0007 0.9710
6.8477 -1.7478 -2.0007 0.9710
6.9057 -1.5022 -2.0007 0.9710
6.9549 -1.2548 -2.0007 0.9710
-6.5071 -0.2324 -2.0027 0.9731
-6.4946 -0.4645 -2.0027 0.9731
-6.4449 -0.9266 -2.0027 0.9731
-6.4077 -1.1561 -2.0027 0.9731
-6.2473 -1.8344 -2.0027 0.9731
-6.1779 -2.0562 -2.0027 0.9731
-6.0154 -2.4916 -2.0026 0.9731
-5.9226 -2.7047 -2.0026 0.9731
-5.7144 -3.1203 -2.0026 0.9731
-5.4772 -3.5200 -2.0026 0.9731
-5.3480 -3.7131 -2.0025 0.9731
-5.0693 -4.0851 -2.0025 0.9731
-4.4362 -4.7648 -2.0024 0.9731
-4.0848 -5.0690 -2.0023 0.9731
-3.9012 -5.2114 -2.0023 0.9731
-3.7127 -5.3473 -2.0023 0.9731
-2.9137 -5.8209 -2.0022 0.9731
-2.7041 -5.9211 -2.0021 0.9731
-2.0555 -6.1759 -2.0020 0.9731
-1.1556 -6.4051 -2.0019 0.9731
-0.9262 -6.4422 -2.0019 0.9731
-0.6957 -6.4710 -2.0018 0.9731
-0.4643 -6.4916 -2.0018 0.9731
-0.2323 -6.5040 -2.0017 0.9731
0.4643 -6.4912 -2.0016 0.9731
0.6956 -6.4703 -2.0016 0.9731
0.9261 -6.4413 -2.0016 0.9731
1.6093 -6.3050 -2.0015 0.9731
2.0549 -6.1740 -2.0014 0.9731
2.9124 -5.8183 -2.0013 0.9731
3.5175 -5.4734 -2.0012 0.9731
3.7106 -5.3443 -2.0012 0.9731
4.4332 -4.7616 -2.0010 0.9731
4.6002 -4.6002 -2.0010 0.9731
4.7614 -4.4331 -2.0010 0.9731
5.5946 -3.3194 -2.0009 0.9731
5.9172 -2.7023 -2.0008 0.9731
6.0099 -2.4894 -2.0008 0.9731
6.0949 -2.2733 -2.0008 0.9731
6.1721 -2.0543 -2.0008 0.9731
6.4015 -1.1550 -2.0008 0.9731
6.4882 -0.4640 -2.0007 0.9731
6.5007 -0.2322 -2.0007 0.9731
-5.9902 -0.6440 -2.0026 0.9749
-5.9633 -0.8574 -2.0026 0.9749
-5.7805 -1.6973 -2.0026 0.9749
-5.6447 -2.1054 -2.0026 0.9749
-5.5659 -2.3055 -2.0026 0.9749
-5.4800 -2.5026 -2.0026 0.9749
-5.2874 -2.8872 -2.0025 0.9749
-5.1810 -3.0740 -2.0025 0.9749
-5.0679 -3.2570 -2.0025 0.9749
-4.8226 -3.6101 -2.0025 0.9749
-4.5526 -3.9449 -2.0024 0.9749
-4.4089 -4.1048 -2.0024 0.9749
-4.1047 -4.4088 -2.0023 0.9749
-3.9447 -4.5524 -2.0023 0.9749
-3.4353 -4.9478 -2.0022 0.9749
-3.2565 -5.0672 -2.0022 0.9749
-2.8866 -5.2865 -2.0022 0.9749
-2.6961 -5.3860 -2.0021 0.9749
-2.3049 -5.5645 -2.0021 0.9749
-2.1048 -5.6431 -2.0020 0.9749
-1.4894 -5.8355 -2.0019 0.9749
-1.2802 -5.8848 -2.0019 0.9749
-1.0693 -5.9267 -2.0019 0.9749
0.0000 -6.0219 -2.0017 0.9749
0.4296 -6.0064 -2.0016 0.9749
1.0691 -5.9257 -2.0016 0.9749
1.4891 -5.8342 -2.0015 0.9749
1.9014 -5.7129 -2.0014 0.9749
2.3041 -5.5625 -2.0014 0.9749
2.5011 -5.4767 -2.0013 0.9749
2.6950 -5.3838 -2.0013 0.9749
2.8854 -5.2841 -2.0013 0.9749
3.0721 -5.1777 -2.0013 0.9749
3.2549 -5.0647 -2.0012 0.9749
3.7775 -4.6876 -2.0011 0.9749
4.8190 -3.6075 -2.0010 0.9749
4.9447 -3.4331 -2.0010 0.9749
5.0640 -3.2544 -2.0010 0.9749
5.1769 -3.0716 -2.0009 0.9749
5.3828 -2.6944 -2.0009 0.9749
5.4755 -2.5006 -2.0009 0.9749
5.6398 -2.1035 -2.0009 0.9749
5.7113 -1.9009 -2.0009 0.9749
5.7755 -1.6958 -2.0008 0.9749
5.8323 -1.4886 -2.0008 0.9749
5.8817 -1.2795 -2.0008 0.9749
5.9236 -1.0687 -2.0008 0.9749
5.9579 -0.8566 -2.0008 0.9749
5.9847 -0.6434 -2.0008 0.9749
6.0039 -0.4294 -2.0008 0.9749
6.0154 -0.2148 -2.0008 0.9749
-5.5857 -0.3995 -2.0026 0.9765
-5.5429 -0.7969 -2.0026 0.9765
-5.5109 -0.9943 -2.0026 0.9765
-5.4719 -1.1903 -2.0026 0.9765
-5.4259 -1.3849 -2.0025 0.9765
-5.1735 -2.1429 -2.0025 0.9765
-5.0937 -2.3262 -2.0025 0.9765
-4.9147 -2.6836 -2.0025 0.9765
-4.7106 -3.0273 -2.0024 0.9765
-4.0981 -3.8154 -2.0023 0.9765
-3.8154 -4.0980 -2.0023 0.9765
-3.3553 -4.4822 -2.0022 0.9765
-3.1932 -4.5990 -2.0022 0.9765
-2.8569 -4.8150 -2.0022 0.9765
-2.6832 -4.9138 -2.0021 0.9765
-2.5060 -5.0064 -2.0021 0.9765
-2.3257 -5.0926 -2.0021 0.9765
-1.9564 -5.2454 -2.0020 0.9765
-1.7679 -5.3118 -2.0020 0.9765
-1.1900 -5.4701 -2.0019 0.9765
-0.9939 -5.5090 -2.0019 0.9765
-0.3993 -5.5834 -2.0018 0.9765
-0.1998 -5.5940 -2.0017 0.9765
0.0000 -5.5975 -2.0017 0.9765
0.5983 -5.5652 -2.0016 0.9765
0.7966 -5.5402 -2.0016 0.9765
0.9938 -5.5082 -2.0016 0.9765
1.1897 -5.4691 -2.0015 0.9765
1.7675 -5.3104 -2.0014 0.9765
1.9558 -5.2438 -2.0014 0.9765
2.3249 -5.0908 -2.0014 0.9765
2.8556 -4.8129 -2.0013 0.9765
3.0256 -4.7079 -2.0013 0.9765
3.8131 -4.0956 -2.0011 0.9765
3.9569 -3.9569 -2.0011 0.9765
4.0955 -3.8131 -2.0011 0.9765
4.3570 -3.5111 -2.0011 0.9765
4.4795 -3.3533 -2.0010 0.9765
4.7073 -3.0252 -2.0010 0.9765
4.8122 -2.8552 -2.0010 0.9765
4.9110 -2.6816 -2.0010 0.9765
5.0036 -2.5046 -2.0010 0.9765
5.3090 -1.7670 -2.0009 0.9765
5.4674 -1.1894 -2.0009 0.9765
5.5382 -0.7963 -2.0009 0.9765
5.5631 -0.5981 -2.0009 0.9765
5.5809 -0.3992 -2.0009 0.9765
5.5916 -0.1997 -2.0009 0.9765
-5.2255 0.0000 -2.0025 0.9779
-5.2122 -0.3728 -2.0025 0.9779
-5.1956 -0.5586 -2.0025 0.9779
-5.1723 -0.7437 -2.0025 0.9779
-5.1425 -0.9278 -2.0025 0.9779
-5.0138 -1.4722 -2.0025 0.9779
-4.9580 -1.6502 -2.0025 0.9779
-4.8959 -1.8261 -2.0025 0.9779
-4.5861 -2.5042 -2.0024 0.9779
-4.4938 -2.6663 -2.0024 0.9779
-4.3957 -2.8250 -2.0024 0.9779
-4.2921 -2.9800 -2.0024 0.9779
-3.6946 -3.6946 -2.0023 0.9779
-3.4215 -3.9486 -2.0022 0.9779
-3.2784 -4.0682 -2.0022 0.9779
-3.1310 -4.1826 -2.0022 0.9779
-2.3385 -4.6718 -2.0021 0.9779
-1.9992 -4.8266 -2.0020 0.9779
-1.6498 -4.9568 -2.0020 0.9779
-1.4718 -5.0124 -2.0019 0.9779
-1.2919 -5.0617 -2.0019 0.9779
-1.1104 -5.1045 -2.0019 0.9779
-0.3726 -5.2103 -2.0018 0.9779
0.0000 -5.2234 -2.0017 0.9779
0.3726 -5.2100 -2.0017 0.9779
0.5583 -5.1933 -2.0016 0.9779
1.1102 -5.1036 -2.0015 0.9779
1.6494 -4.9555 -2.0015 0.9779
1.8251 -4.8934 -2.0014 0.9779
2.1695 -4.7506 -2.0014 0.9779
2.3377 -4.6701 -2.0014 0.9779
2.5029 -4.5836 -2.0013 0.9779
2.6648 -4.4913 -2.0013 0.9779
2.8234 -4.3933 -2.0013 0.9779
2.9784 -4.2897 -2.0013 0.9779
3.1295 -4.1806 -2.0012 0.9779
3.2767 -4.0662 -2.0012 0.9779
3.6925 -3.6925 -2.0012 0.9779
3.8219 -3.5583 -2.0011 0.9779
4.0659 -3.2765 -2.0011 0.9779
4.2893 -2.9781 -2.0011 0.9779
4.3928 -2.8231 -2.0011 0.9779
4.5829 -2.5025 -2.0010 0.9779
4.6693 -2.3373 -2.0010 0.9779
4.8923 -1.8247 -2.0010 0.9779
5.1021 -1.1099 -2.0010 0.9779
5.1683 -0.7431 -2.0009 0.9779
5.1915 -0.5581 -2.0009 0.9779
5.2081 -0.3725 -2.0009 0.9779
5.2181 -0.1864 -2.0009 0.9779
-1.8978 0.0000 -0.7767 0.9918
-1.9525 -0.1396 -0.8011 0.9916
-1.9449 -0.2796 -0.8042 0.9915
-2.1703 -0.3916 -0.9026 0.9905
-4.7809 -1.0400 -2.0025 0.9791
-4.7407 -1.2100 -2.0024 0.9791
-4.6945 -1.3784 -2.0024 0.9791
-4.6423 -1.5451 -2.0024 0.9791
-4.5841 -1.7098 -2.0024 0.9791
-4.5202 -1.8723 -2.0024 0.9791
-4.1158 -2.6450 -2.0023 0.9791
-3.9165 -2.9319 -2.0023 0.9791
-3.4593 -3.4593 -2.0022 0.9791
-3.3336 -3.5805 -2.0022 0.9791
-3.2036 -3.6972 -2.0022 0.9791
-2.9317 -3.9162 -2.0022 0.9791
-2.6447 -4.1153 -2.0021 0.9791
-2.4961 -4.2070 -2.0021 0.9791
-2.1896 -4.3743 -2.0021 0.9791
-2.0321 -4.4496 -2.0020 0.9791
-1.8719 -4.5192 -2.0020 0.9791
-1.5447 -4.6411 -2.0020 0.9791
-1.2097 -4.7394 -2.0019 0.9791
-0.8684 -4.8135 -2.0018 0.9791
-0.6961 -4.8413 -2.0018 0.9791
0.1746 -4.8877 -2.0017 0.9791
0.5228 -4.8627 -2.0016 0.9791
0.6960 -4.8408 -2.0016 0.9791
0.8683 -4.8128 -2.0016 0.9791
1.2094 -4.7385 -2.0015 0.9791
1.7090 -4.5819 -2.0015 0.9791
2.0314 -4.4482 -2.0014 0.9791
2.1889 -4.3728 -2.0014 0.9791
2.6437 -4.1136 -2.0013 0.9791
3.0682 -3.8074 -2.0013 0.9791
3.6953 -3.2019 -2.0012 0.9791
3.9142 -2.9301 -2.0011 0.9791
4.2912 -2.3432 -2.0011 0.9791
4.5171 -1.8710 -2.0010 0.9791
4.5809 -1.7086 -2.0010 0.9791
4.6911 -1.3774 -2.0010 0.9791
4.7373 -1.2091 -2.0010 0.9791
4.7774 -1.0393 -2.0010 0.9791
4.8114 -0.8681 -2.0010 0.9791
4.8766 -0.3488 -2.0010 0.9791
4.8860 -0.1745 -2.0010 0.9791
-1.5222 0.0000 -0.6634 0.9934
-1.5002 -0.2707 -0.6643 0.9934
-1.5214 -0.3310 -0.6786 0.9932
-1.5707 -0.4612 -0.7134 0.9929
-4.2448 -1.7582 -2.0024 0.9802
-4.1793 -1.9086 -2.0024 0.9802
-4.0324 -2.2019 -2.0023 0.9802
-3.4721 -3.0086 -2.0022 0.9802
-3.2486 -3.2486 -2.0022 0.9802
-3.1305 -3.3624 -2.0022 0.9802
-3.0085 -3.4720 -2.0022 0.9802
-2.7531 -3.6777 -2.0021 0.9802
-2.3441 -3.9508 -2.0021 0.9802
-1.7579 -4.2440 -2.0020 0.9802
-0.8156 -4.5203 -2.0018 0.9802
-0.6537 -4.5465 -2.0018 0.9802
-0.4910 -4.5669 -2.0018 0.9802
0.0000 -4.5930 -2.0017 0.9802
0.6536 -4.5460 -2.0016 0.9802
0.8155 -4.5198 -2.0016 0.9802
0.9762 -4.4877 -2.0016 0.9802
1.1358 -4.4500 -2.0015 0.9802
1.7574 -4.2428 -2.0015 0.9802
3.1290 -3.3608 -2.0012 0.9802
3.2470 -3.2470 -2.0012 0.9802
3.3608 -3.1290 -2.0012 0.9802
3.4703 -3.0070 -2.0012 0.9802
3.5754 -2.8812 -2.0012 0.9802
3.6759 -2.7517 -2.0012 0.9802
3.7717 -2.6188 -2.0011 0.9802
4.3020 -1.6046 -2.0011 0.9802
4.3566 -1.4500 -2.0011 0.9802
4.4055 -1.2936 -2.0011 0.9802
4.4489 -1.1355 -2.0010 0.9802
4.4865 -0.9760 -2.0010 0.9802
4.5185 -0.8152 -2.0010 0.9802
4.5447 -0.6534 -2.0010 0.9802
4.5651 -0.4908 -2.0010 0.9802
4.5797 -0.3275 -2.0010 0.9802
4.5885 -0.1639 -2.0010 0.9802
-1.3384 -0.0957 -0.6211 0.9941
-1.3273 -0.1908 -0.6207 0.9941
-1.3013 -0.2831 -0.6164 0.9941
-1.3116 -0.3348 -0.6266 0.9941
-1.3263 -0.5494 -0.6645 0.9937
-1.3151 -0.6006 -0.6692 0.9936
-3.7966 -2.0731 -2.0023 0.9811
-3.5532 -2.4670 -2.0023 0.9811
-3.2690 -2.8326 -2.0022 0.9811
-2.9474 -3.1657 -2.0022 0.9811
-2.8325 -3.2689 -2.0022 0.9811
-2.4668 -3.5528 -2.0021 0.9811
-2.3384 -3.6386 -2.0021 0.9811
-2.2070 -3.7197 -2.0021 0.9811
-1.9360 -3.8676 -2.0020 0.9811
-1.6551 -3.9958 -2.0020 0.9811
-1.5114 -4.0523 -2.0019 0.9811
0.4622 -4.2995 -2.0016 0.9811
1.2182 -4.1489 -2.0015 0.9811
1.3655 -4.1027 -2.0015 0.9811
1.6547 -3.9948 -2.0015 0.9811
1.7962 -3.9331 -2.0014 0.9811
2.2063 -3.7185 -2.0014 0.9811
2.3376 -3.6373 -2.0014 0.9811
2.5910 -3.4612 -2.0013 0.9811
2.7129 -3.3665 -2.0013 0.9811
3.0571 -3.0571 -2.0013 0.9811
3.2674 -2.8312 -2.0012 0.9811
3.4610 -2.5909 -2.0012 0.9811
3.5512 -2.4657 -2.0012 0.9811
3.6370 -2.3373 -2.0012 0.9811
3.8659 -1.9351 -2.0011 0.9811
3.9941 -1.6544 -2.0011 0.9811
4.0505 -1.5108 -2.0011 0.9811
4.1019 -1.3652 -2.0011 0.9811
4.1888 -1.0691 -2.0011 0.9811
4.2243 -0.9189 -2.0011 0.9811
4.2791 -0.6152 -2.0011 0.9811
4.3203 -0.1543 -2.0011 0.9811
-1.1791 -0.2127 -0.5877 0.9947
-1.1400 -0.5206 -0.6148 0.9944
-1.1113 -0.6068 -0.6211 0.9944
-3.5105 -2.0829 -2.0023 0.9820
-3.3529 -2.3280 -2.0022 0.9820
-3.2677 -2.4461 -2.0022 0.9820
-3.1782 -2.5612 -2.0022 0.9820
-3.0848 -2.6730 -2.0022 0.9820
-2.7813 -2.9873 -2.0021 0.9820
-2.5611 -3.1781 -2.0021 0.9820
-2.2066 -3.4335 -2.0021 0.9820
-2.0826 -3.5101 -2.0020 0.9820
-1.8269 -3.6496 -2.0020 0.9820
-1.6954 -3.7125 -2.0020 0.9820
-1.5618 -3.7706 -2.0020 0.9820
-1.4262 -3.8239 -2.0019 0.9820
-1.1498 -3.9158 -2.0019 0.9820
-0.8675 -3.9878 -2.0019 0.9820
-0.7246 -4.0162 -2.0018 0.9820
-0.2911 -4.0705 -2.0018 0.9820
0.0000 -4.0808 -2.0017 0.9820
0.2911 -4.0703 -2.0017 0.9820
0.4362 -4.0573 -2.0017 0.9820
0.5807 -4.0391 -2.0016 0.9820
0.7245 -4.0157 -2.0016 0.9820
0.8674 -3.9873 -2.0016 0.9820
1.2886 -3.8716 -2.0015 0.9820
1.5615 -3.7697 -2.0015 0.9820
1.9554 -3.5811 -2.0014 0.9820
2.2059 -3.4324 -2.0014 0.9820
2.3270 -3.3515 -2.0014 0.9820
2.4451 -3.2662 -2.0013 0.9820
2.5601 -3.1768 -2.0013 0.9820
2.7801 -2.9861 -2.0013 0.9820
3.1767 -2.5599 -2.0012 0.9820
3.2660 -2.4449 -2.0012 0.9820
3.3512 -2.3268 -2.0012 0.9820
3.4321 -2.2057 -2.0012 0.9820
3.5086 -2.0817 -2.0012 0.9820
3.5807 -1.9552 -2.0012 0.9820
3.6481 -1.8261 -2.0012 0.9820
3.7691 -1.5612 -2.0012 0.9820
3.8708 -1.2883 -2.0011 0.9820
4.0691 -0.2910 -2.0011 0.9820
-1.1058 0.0000 -0.5737 0.9950
-1.1024 -0.1185 -0.5752 0.9950
-1.0905 -0.1967 -0.5749 0.9950
-1.0814 -0.2352 -0.5741 0.9950
-1.0636 -0.3123 -0.5751 0.9950
-1.0617 -0.3534 -0.5805 0.9950
-1.0576 -0.3945 -0.5856 0.9949
-1.0514 -0.4355 -0.5904 0.9949
-1.0430 -0.4763 -0.5948 0.9948
-1.0298 -0.5155 -0.5974 0.9948
-0.9917 -0.5884 -0.5982 0.9948
-3.0896 -2.3129 -2.0022 0.9828
-2.7290 -2.7290 -2.0021 0.9828
-2.6298 -2.8246 -2.0021 0.9828
-2.5273 -2.9166 -2.0021 0.9828
-2.4216 -3.0049 -2.0021 0.9828
-2.2010 -3.1700 -2.0021 0.9828
-1.7274 -3.4508 -2.0020 0.9828
-1.6031 -3.5103 -2.0020 0.9828
-1.4768 -3.5652 -2.0019 0.9828
-0.6851 -3.7974 -2.0018 0.9828
-0.4125 -3.8365 -2.0018 0.9828
-0.2753 -3.8488 -2.0018 0.9828
-0.1377 -3.8561 -2.0017 0.9828
0.0000 -3.8585 -2.0017 0.9828
0.5491 -3.8191 -2.0016 0.9828
0.6851 -3.7970 -2.0016 0.9828
1.3483 -3.6149 -2.0015 0.9828
1.4764 -3.5644 -2.0015 0.9828
1.7269 -3.4499 -2.0015 0.9828
1.9686 -3.3179 -2.0014 0.9828
2.2002 -3.1689 -2.0014 0.9828
2.4207 -3.0039 -2.0014 0.9828
2.6287 -2.8235 -2.0013 0.9828
2.7278 -2.7278 -2.0013 0.9828
2.8234 -2.6287 -2.0013 0.9828
3.0037 -2.4206 -2.0013 0.9828
3.2452 -2.0856 -2.0012 0.9828
3.3175 -1.9684 -2.0012 0.9828
3.4495 -1.7267 -2.0012 0.9828
3.5638 -1.4762 -2.0012 0.9828
3.7012 -1.0868 -2.0012 0.9828
3.7376 -0.9540 -2.0012 0.9828
3.7693 -0.8200 -2.0012 0.9828
3.7961 -0.6849 -2.0011 0.9828
3.8182 -0.5490 -2.0011 0.9828
3.8353 -0.4123 -2.0011 0.9828
3.8476 -0.2752 -2.0011 0.9828
-1.0269 -0.0000 -0.5625 0.9953
-1.0276 -0.0367 -0.5632 0.9953
-1.0265 -0.0734 -0.5637 0.9953
-1.0190 -0.1465 -0.5638 0.9953
-0.9820 -0.2883 -0.5606 0.9953
-0.9785 -0.3257 -0.5648 0.9953
-0.9677 -0.4009 -0.5737 0.9952
-0.9434 -0.4722 -0.5778 0.9952
-0.9084 -0.5390 -0.5785 0.9952
-0.8882 -0.5708 -0.5782 0.9952
-2.9264 -2.1907 -2.0022 0.9835
-2.8464 -2.2937 -2.0022 0.9835
-2.6754 -2.4909 -2.0021 0.9835
-2.5848 -2.5848 -2.0021 0.9835
-2.3938 -2.7626 -2.0021 0.9835
-1.8652 -3.1436 -2.0020 0.9835
-1.7518 -3.2081 -2.0020 0.9835
-1.6361 -3.2686 -2.0020 0.9835
-1.5184 -3.3249 -2.0020 0.9835
-1.1543 -3.4680 -2.0019 0.9835
-0.9039 -3.5415 -2.0019 0.9835
-0.6489 -3.5969 -2.0018 0.9835
-0.5201 -3.6177 -2.0018 0.9835
-0.2607 -3.6455 -2.0018 0.9835
-0.1305 -3.6525 -2.0017 0.9835
0.0000 -3.6548 -2.0017 0.9835
0.1304 -3.6524 -2.0017 0.9835
0.2607 -3.6454 -2.0017 0.9835
0.3907 -3.6337 -2.0017 0.9835
0.6489 -3.5965 -2.0016 0.9835
1.3985 -3.3762 -2.0015 0.9835
1.5181 -3.3241 -2.0015 0.9835
1.6357 -3.2678 -2.0015 0.9835
1.9756 -3.0741 -2.0014 0.9835
2.0841 -3.0016 -2.0014 0.9835
2.3929 -2.7616 -2.0014 0.9835
2.4899 -2.6744 -2.0013 0.9835
2.7615 -2.3928 -2.0013 0.9835
2.8451 -2.2928 -2.0013 0.9835
2.9251 -2.1897 -2.0013 0.9835
3.0014 -2.0839 -2.0013 0.9835
3.2069 -1.7511 -2.0012 0.9835
3.2674 -1.6355 -2.0012 0.9835
3.4234 -1.2769 -2.0012 0.9835
3.5957 -0.6487 -2.0012 0.9835
3.6328 -0.3906 -2.0012 0.9835
3.6444 -0.2606 -2.0012 0.9835
-0.9570 0.0000 -0.5525 0.9956
-0.9538 -0.1025 -0.5538 0.9956
-0.9430 -0.1701 -0.5532 0.9956
-0.9353 -0.2034 -0.5526 0.9956
-0.9259 -0.2363 -0.5517 0.9956
-0.9011 -0.3361 -0.5553 0.9956
-0.8941 -0.3703 -0.5587 0.9955
-0.8687 -0.4349 -0.5609 0.9955
-0.8364 -0.4963 -0.5615 0.9955
-0.7846 -0.5873 -0.5658 0.9955
-0.7671 -0.6182 -0.5688 0.9955
-2.6208 -2.2709 -2.0021 0.9841
-2.4521 -2.4521 -2.0021 0.9841
-2.3630 -2.5380 -2.0021 0.9841
-2.1758 -2.7001 -2.0021 0.9841
-1.7694 -2.9821 -2.0020 0.9841
-1.6618 -3.0434 -2.0020 0.9841
-1.5521 -3.1007 -2.0020 0.9841
-1.4404 -3.1541 -2.0019 0.9841
-1.3269 -3.2035 -2.0019 0.9841
-0.9769 -3.3269 -2.0019 0.9841
-0.8575 -3.3596 -2.0019 0.9841
-0.7370 -3.3880 -2.0018 0.9841
-0.6156 -3.4122 -2.0018 0.9841
-0.4934 -3.4319 -2.0018 0.9841
-0.3706 -3.4473 -2.0018 0.9841
-0.2473 -3.4583 -2.0018 0.9841
-0.1238 -3.4649 -2.0017 0.9841
0.0000 -3.4671 -2.0017 0.9841
0.1237 -3.4648 -2.0017 0.9841
0.3706 -3.4471 -2.0017 0.9841
0.4934 -3.4317 -2.0016 0.9841
0.6156 -3.4118 -2.0016 0.9841
0.8574 -3.3592 -2.0016 0.9841
0.9767 -3.3264 -2.0016 0.9841
1.2115 -3.2482 -2.0015 0.9841
1.4401 -3.1534 -2.0015 0.9841
1.5517 -3.1000 -2.0015 0.9841
1.8742 -2.9163 -2.0014 0.9841
2.1751 -2.6992 -2.0014 0.9841
2.2701 -2.6198 -2.0014 0.9841
2.4511 -2.4511 -2.0014 0.9841
2.5371 -2.3621 -2.0013 0.9841
2.7750 -2.0773 -2.0013 0.9841
2.9161 -1.8740 -2.0013 0.9841
2.9811 -1.7687 -2.0013 0.9841
3.0423 -1.6612 -2.0013 0.9841
3.0996 -1.5516 -2.0013 0.9841
1.8620 -0.7713 -1.1636 0.9907
1.9033 -0.6335 -1.1581 0.9908
1.9616 -0.5007 -1.1688 0.9907
2.0359 -0.1456 -1.1784 0.9906
2.0320 -0.0726 -1.1739 0.9907
