ply
format ascii 1.0
element vertex 692
property float32 x
property float32 y
property float32 z
property float32 I
end_header
-9.4656 -0.0000 -2.0008 0.9620
-9.4595 -0.3379 -2.0008 0.9620
-9.4113 -1.0118 -2.0008 0.9620
-9.3692 -1.3471 -2.0008 0.9620
-9.3152 -1.6806 -2.0008 0.9620
-9.2493 -2.0121 -2.0008 0.9620
-8.9813 -2.9893 -2.0009 0.9620
-8.8689 -3.3079 -2.0009 0.9620
-8.7452 -3.6224 -2.0009 0.9620
-8.6104 -3.9323 -2.0009 0.9620
-8.3081 -4.5366 -2.0009 0.9620
-7.7757 -5.3988 -2.0010 0.9620
-7.5781 -5.6729 -2.0010 0.9620
-7.3709 -5.9398 -2.0010 0.9620
-6.6940 -6.6940 -2.0011 0.9620
-5.9403 -7.3714 -2.0011 0.9620
-5.6734 -7.5788 -2.0012 0.9620
-5.3994 -7.7766 -2.0012 0.9620
-4.5374 -8.3096 -2.0013 0.9620
-3.9331 -8.6123 -2.0013 0.9620
-3.6233 -8.7474 -2.0014 0.9620
-2.9901 -8.9839 -2.0014 0.9620
-2.6676 -9.0850 -2.0015 0.9620
-1.6813 -9.3186 -2.0016 0.9620
-1.3476 -9.3728 -2.0016 0.9620
0.3380 -9.4640 -2.0018 0.9620
1.0123 -9.4161 -2.0018 0.9620
1.6816 -9.3202 -2.0019 0.9620
2.3422 -9.1768 -2.0020 0.9620
2.6683 -9.0875 -2.0020 0.9620
2.9910 -8.9866 -2.0020 0.9620
3.3099 -8.8743 -2.0021 0.9620
3.6246 -8.7507 -2.0021 0.9620
3.9347 -8.6159 -2.0021 0.9620
4.2398 -8.4701 -2.0022 0.9620
4.5395 -8.3135 -2.0022 0.9620
5.1212 -7.9687 -2.0023 0.9620
5.4024 -7.7809 -2.0023 0.9620
5.9439 -7.3760 -2.0024 0.9620
6.2035 -7.1592 -2.0024 0.9620
6.4551 -6.9333 -2.0024 0.9620
6.6986 -6.6986 -2.0024 0.9620
6.9335 -6.4553 -2.0025 0.9620
7.3765 -5.9444 -2.0025 0.9620
7.7820 -5.4031 -2.0026 0.9620
7.9700 -5.1220 -2.0026 0.9620
8.3152 -4.5405 -2.0026 0.9620
8.6181 -3.9357 -2.0027 0.9620
8.7531 -3.6257 -2.0027 0.9620
9.1803 -2.3431 -2.0027 0.9620
9.2581 -2.0140 -2.0028 0.9620
9.4205 -1.0128 -2.0028 0.9620
-8.5138 -0.0000 -2.0009 0.9656
-8.4920 -0.6074 -2.0009 0.9656
-8.4271 -1.2116 -2.0009 0.9656
-8.3785 -1.5116 -2.0009 0.9656
-8.0782 -2.6887 -2.0010 0.9656
-7.9771 -2.9753 -2.0010 0.9656
-7.8658 -3.2581 -2.0010 0.9656
-7.7446 -3.5368 -2.0010 0.9656
-7.3223 -4.3445 -2.0010 0.9656
-6.9938 -4.8559 -2.0010 0.9656
-6.8161 -5.1025 -2.0011 0.9656
-6.0208 -6.0208 -2.0011 0.9656
-5.5760 -6.4351 -2.0012 0.9656
-5.3428 -6.6301 -2.0012 0.9656
-5.1029 -6.8166 -2.0012 0.9656
-4.0810 -7.4738 -2.0013 0.9656
-3.2588 -7.8676 -2.0014 0.9656
-2.3993 -8.1712 -2.0015 0.9656
-2.1061 -8.2518 -2.0015 0.9656
-1.8103 -8.3218 -2.0016 0.9656
-1.5121 -8.3812 -2.0016 0.9656
-1.2121 -8.4300 -2.0016 0.9656
-0.6076 -8.4952 -2.0017 0.9656
-0.3040 -8.5117 -2.0017 0.9656
0.0000 -8.5172 -2.0017 0.9656
0.6076 -8.4958 -2.0018 0.9656
0.9105 -8.4688 -2.0018 0.9656
1.2122 -8.4311 -2.0019 0.9656
1.5124 -8.3826 -2.0019 0.9656
1.8106 -8.3234 -2.0019 0.9656
2.1066 -8.2536 -2.0020 0.9656
3.5388 -7.7490 -2.0021 0.9656
3.8132 -7.6178 -2.0021 0.9656
4.0827 -7.4770 -2.0022 0.9656
4.3471 -7.3266 -2.0022 0.9656
4.8588 -6.9980 -2.0023 0.9656
5.3458 -6.6338 -2.0023 0.9656
5.8056 -6.2356 -2.0024 0.9656
6.0245 -6.0245 -2.0024 0.9656
6.4391 -5.5795 -2.0024 0.9656
6.6342 -5.3462 -2.0025 0.9656
6.8209 -5.1060 -2.0025 0.9656
7.4784 -4.0835 -2.0026 0.9656
7.6195 -3.8140 -2.0026 0.9656
7.9837 -2.9778 -2.0026 0.9656
8.0849 -2.6909 -2.0026 0.9656
8.2564 -2.1073 -2.0026 0.9656
8.3858 -1.5130 -2.0027 0.9656
8.4995 -0.6079 -2.0027 0.9656
-7.7234 -0.2758 -2.0010 0.9686
-7.6841 -0.8261 -2.0010 0.9686
-7.5518 -1.6428 -2.0010 0.9686
-7.4883 -1.9113 -2.0010 0.9686
-7.4154 -2.1774 -2.0010 0.9686
-7.3329 -2.4406 -2.0010 0.9686
-7.1402 -2.9576 -2.0010 0.9686
-6.9111 -3.4594 -2.0011 0.9686
-6.6468 -3.9437 -2.0011 0.9686
-6.3486 -4.4079 -2.0011 0.9686
-6.1873 -4.6317 -2.0011 0.9686
-6.0180 -4.8496 -2.0011 0.9686
-5.6568 -5.2667 -2.0012 0.9686
-5.4653 -5.4653 -2.0012 0.9686
-4.8499 -6.0184 -2.0013 0.9686
-3.4600 -6.9122 -2.0014 0.9686
-1.9118 -7.4903 -2.0016 0.9686
-1.3726 -7.6078 -2.0016 0.9686
-1.1002 -7.6521 -2.0016 0.9686
-0.8264 -7.6866 -2.0017 0.9686
0.2760 -7.7264 -2.0018 0.9686
0.5516 -7.7117 -2.0018 0.9686
1.9122 -7.4918 -2.0019 0.9686
2.4418 -7.3365 -2.0020 0.9686
2.7022 -7.2448 -2.0020 0.9686
3.2122 -7.0337 -2.0021 0.9686
3.9458 -6.6503 -2.0022 0.9686
4.6343 -6.1907 -2.0022 0.9686
4.8523 -6.0214 -2.0023 0.9686
5.2697 -5.6600 -2.0023 0.9686
5.4684 -5.4684 -2.0023 0.9686
5.6601 -5.2698 -2.0024 0.9686
5.8447 -5.0644 -2.0024 0.9686
6.1912 -4.6347 -2.0024 0.9685
6.5062 -4.1813 -2.0024 0.9685
6.9160 -3.4619 -2.0025 0.9685
7.1455 -2.9598 -2.0025 0.9685
7.2466 -2.7029 -2.0025 0.9685
7.3385 -2.4425 -2.0025 0.9685
7.4210 -2.1790 -2.0026 0.9685
7.4941 -1.9128 -2.0026 0.9685
7.5577 -1.6441 -2.0026 0.9685
7.6116 -1.3733 -2.0026 0.9685
7.6558 -1.1007 -2.0026 0.9685
7.6902 -0.8268 -2.0026 0.9685
7.7296 -0.2761 -2.0026 0.9685
-7.0641 -0.2523 -2.0011 0.9710
-7.0506 -0.5043 -2.0011 0.9710
-7.0281 -0.7556 -2.0011 0.9710
-6.9071 -1.5026 -2.0011 0.9710
-6.5307 -2.7051 -2.0011 0.9710
-6.0793 -3.6071 -2.0012 0.9710
-5.3425 -4.6293 -2.0012 0.9710
-4.9987 -4.9987 -2.0013 0.9710
-4.8172 -5.1740 -2.0013 0.9710
-4.2366 -5.6594 -2.0013 0.9710
-4.0319 -5.8071 -2.0013 0.9710
-3.8221 -5.9473 -2.0014 0.9710
-1.9919 -6.7839 -2.0015 0.9710
-1.5029 -6.9089 -2.0016 0.9710
-0.2524 -7.0664 -2.0017 0.9710
0.0000 -7.0710 -2.0018 0.9710
0.2524 -7.0666 -2.0018 0.9710
0.7559 -7.0308 -2.0018 0.9710
1.0064 -6.9994 -2.0019 0.9710
1.5032 -6.9100 -2.0019 0.9710
1.7489 -6.8520 -2.0019 0.9710
2.2333 -6.7099 -2.0020 0.9710
2.4714 -6.6260 -2.0020 0.9710
2.7063 -6.5337 -2.0020 0.9710
2.9379 -6.4330 -2.0021 0.9710
3.1656 -6.3241 -2.0021 0.9710
3.6088 -6.0823 -2.0021 0.9710
3.8237 -5.9497 -2.0022 0.9710
4.0336 -5.8095 -2.0022 0.9710
4.2384 -5.6619 -2.0022 0.9710
4.4379 -5.5071 -2.0022 0.9710
4.6317 -5.3452 -2.0022 0.9710
5.0013 -5.0013 -2.0023 0.9710
5.1767 -4.8197 -2.0023 0.9710
5.9504 -3.8241 -2.0024 0.9710
6.6276 -2.4720 -2.0025 0.9710
6.7116 -2.2338 -2.0025 0.9710
6.8539 -1.7494 -2.0025 0.9710
6.9120 -1.5036 -2.0025 0.9710
7.0017 -1.0067 -2.0025 0.9710
7.0558 -0.5046 -2.0025 0.9710
7.0693 -0.2525 -2.0025 0.9710
-6.5020 -0.2322 -2.0011 0.9731
-6.4399 -0.9259 -2.0011 0.9731
-6.2426 -1.8330 -2.0011 0.9731
-6.1732 -2.0546 -2.0012 0.9731
-6.0960 -2.2737 -2.0012 0.9731
-5.8181 -2.9123 -2.0012 0.9731
-5.5955 -3.3200 -2.0012 0.9731
-5.4735 -3.5176 -2.0012 0.9731
-5.3445 -3.7107 -2.0012 0.9731
-5.2087 -3.8992 -2.0012 0.9731
-4.9173 -4.2609 -2.0013 0.9731
-4.4338 -4.7622 -2.0013 0.9731
-4.2610 -4.9175 -2.0013 0.9731
-3.8994 -5.2090 -2.0014 0.9731
-3.7110 -5.3449 -2.0014 0.9731
-3.5179 -5.4740 -2.0014 0.9731
-2.9127 -5.8189 -2.0015 0.9731
-2.7032 -5.9192 -2.0015 0.9731
-2.2741 -6.0971 -2.0015 0.9731
-2.0551 -6.1744 -2.0015 0.9731
-1.8334 -6.2439 -2.0016 0.9731
-1.6094 -6.3054 -2.0016 0.9731
-0.6957 -6.4706 -2.0017 0.9731
-0.4643 -6.4914 -2.0017 0.9731
0.0000 -6.5081 -2.0018 0.9731
0.4643 -6.4917 -2.0018 0.9731
0.6957 -6.4711 -2.0018 0.9731
1.1556 -6.4051 -2.0019 0.9731
2.4909 -6.0135 -2.0020 0.9731
2.7040 -5.9208 -2.0020 0.9731
2.9136 -5.8206 -2.0021 0.9731
3.5192 -5.4760 -2.0021 0.9731
3.7125 -5.3470 -2.0022 0.9731
4.0845 -5.0686 -2.0022 0.9731
4.2629 -4.9196 -2.0022 0.9731
4.6031 -4.6031 -2.0022 0.9731
4.7645 -4.4359 -2.0023 0.9731
5.0689 -4.0848 -2.0023 0.9731
5.2115 -3.9013 -2.0023 0.9731
5.9219 -2.7044 -2.0024 0.9731
6.0147 -2.4914 -2.0024 0.9731
6.0998 -2.2751 -2.0024 0.9731
6.4442 -0.9265 -2.0025 0.9731
-6.0050 -0.4295 -2.0012 0.9749
-5.9858 -0.6435 -2.0012 0.9749
-5.9247 -1.0689 -2.0012 0.9749
-5.8827 -1.2797 -2.0012 0.9749
-5.7765 -1.6961 -2.0012 0.9749
-5.6408 -2.1039 -2.0012 0.9749
-5.5621 -2.3039 -2.0012 0.9749
-5.3836 -2.6949 -2.0012 0.9749
-5.2840 -2.8853 -2.0012 0.9749
-5.0648 -3.2550 -2.0013 0.9749
-4.8197 -3.6080 -2.0013 0.9749
-4.4065 -4.1026 -2.0013 0.9749
-4.2573 -4.2573 -2.0013 0.9749
-3.9428 -4.5503 -2.0014 0.9749
-3.7779 -4.6881 -2.0014 0.9749
-3.4339 -4.9458 -2.0014 0.9749
-2.8856 -5.2846 -2.0015 0.9749
-2.6952 -5.3843 -2.0015 0.9749
-2.3043 -5.5630 -2.0015 0.9749
-1.9016 -5.7133 -2.0016 0.9749
-1.6965 -5.7776 -2.0016 0.9749
-1.0692 -5.9260 -2.0017 0.9749
-0.6437 -5.9873 -2.0017 0.9749
-0.2149 -6.0181 -2.0017 0.9749
0.2149 -6.0183 -2.0018 0.9749
0.4296 -6.0068 -2.0018 0.9749
0.6437 -5.9877 -2.0018 0.9749
0.8571 -5.9610 -2.0019 0.9749
1.2802 -5.8848 -2.0019 0.9749
2.6959 -5.3858 -2.0020 0.9749
3.0734 -5.1799 -2.0021 0.9749
3.2563 -5.0669 -2.0021 0.9749
3.4351 -4.9475 -2.0021 0.9749
4.4085 -4.1045 -2.0022 0.9749
4.9479 -3.4354 -2.0023 0.9749
5.0675 -3.2567 -2.0023 0.9749
5.2869 -2.8869 -2.0023 0.9749
5.6441 -2.1051 -2.0024 0.9749
5.7799 -1.6971 -2.0024 0.9749
5.8369 -1.4898 -2.0024 0.9749
5.8863 -1.2805 -2.0024 0.9749
5.9283 -1.0696 -2.0024 0.9749
5.9627 -0.8573 -2.0024 0.9749
6.0087 -0.4298 -2.0024 0.9749
-5.5926 -0.1997 -2.0012 0.9765
-5.5641 -0.5982 -2.0012 0.9765
-5.5392 -0.7964 -2.0012 0.9765
-5.4683 -1.1895 -2.0012 0.9765
-5.4224 -1.3840 -2.0012 0.9765
-5.3695 -1.5766 -2.0012 0.9765
-5.2434 -1.9557 -2.0013 0.9765
-5.0043 -2.5050 -2.0013 0.9765
-4.9118 -2.6820 -2.0013 0.9765
-4.5970 -3.1917 -2.0013 0.9765
-4.3576 -3.5116 -2.0013 0.9765
-4.0961 -3.8136 -2.0014 0.9765
-3.8136 -4.0961 -2.0014 0.9765
-3.6650 -4.2296 -2.0014 0.9765
-3.5117 -4.3578 -2.0014 0.9765
-3.3540 -4.4804 -2.0014 0.9765
-3.1920 -4.5973 -2.0014 0.9765
-2.8559 -4.8134 -2.0015 0.9765
-2.5053 -5.0049 -2.0015 0.9765
-2.3251 -5.0912 -2.0015 0.9765
-1.9560 -5.2442 -2.0016 0.9765
-1.3842 -5.4234 -2.0016 0.9765
-0.3993 -5.5833 -2.0017 0.9765
-0.1998 -5.5940 -2.0017 0.9765
0.0000 -5.5977 -2.0018 0.9765
0.1998 -5.5941 -2.0018 0.9765
0.3994 -5.5835 -2.0018 0.9765
1.7679 -5.3117 -2.0019 0.9765
2.1424 -5.1722 -2.0020 0.9765
2.5059 -5.0062 -2.0020 0.9765
2.8568 -4.8148 -2.0021 0.9765
3.1930 -4.5988 -2.0021 0.9765
3.3551 -4.4820 -2.0021 0.9765
3.8151 -4.0977 -2.0022 0.9765
3.9590 -3.9590 -2.0022 0.9765
4.3596 -3.5132 -2.0022 0.9765
4.4822 -3.3554 -2.0022 0.9765
4.5992 -3.1933 -2.0023 0.9765
4.8153 -2.8571 -2.0023 0.9765
4.9143 -2.6834 -2.0023 0.9765
5.0069 -2.5063 -2.0023 0.9765
5.0932 -2.3260 -2.0023 0.9765
5.1730 -2.1427 -2.0023 0.9765
5.4714 -1.1902 -2.0024 0.9765
5.5673 -0.5985 -2.0024 0.9765
5.5851 -0.3995 -2.0024 0.9765
5.5958 -0.1999 -2.0024 0.9765
-5.2189 -0.1864 -2.0013 0.9779
-5.2090 -0.3726 -2.0013 0.9779
-5.1691 -0.7432 -2.0013 0.9779
-5.0601 -1.2915 -2.0013 0.9779
-5.0108 -1.4713 -2.0013 0.9779
-4.9551 -1.6492 -2.0013 0.9779
-4.8930 -1.8250 -2.0013 0.9779
-4.8248 -1.9985 -2.0013 0.9779
-4.7504 -2.1694 -2.0013 0.9779
-4.4914 -2.6648 -2.0013 0.9779
-4.1808 -3.1297 -2.0014 0.9779
-3.6929 -3.6930 -2.0014 0.9779
-3.4201 -3.9470 -2.0014 0.9779
-3.2771 -4.0666 -2.0014 0.9779
-2.9787 -4.2901 -2.0015 0.9779
-2.8237 -4.3937 -2.0015 0.9779
-2.6651 -4.4917 -2.0015 0.9779
-2.5031 -4.5840 -2.0015 0.9779
-2.3379 -4.6705 -2.0015 0.9779
-2.1697 -4.7510 -2.0015 0.9779
-1.9988 -4.8254 -2.0016 0.9779
-1.8253 -4.8938 -2.0016 0.9779
-1.1103 -5.1039 -2.0017 0.9779
-0.7434 -5.1702 -2.0017 0.9779
-0.3726 -5.2102 -2.0017 0.9779
0.0000 -5.2236 -2.0018 0.9779
0.1864 -5.2203 -2.0018 0.9779
0.5584 -5.1938 -2.0018 0.9779
0.7434 -5.1706 -2.0018 0.9779
0.9275 -5.1408 -2.0019 0.9779
1.1104 -5.1045 -2.0019 0.9779
1.2919 -5.0617 -2.0019 0.9779
1.6497 -4.9567 -2.0019 0.9779
1.8256 -4.8947 -2.0020 0.9779
2.1702 -4.7521 -2.0020 0.9779
2.5037 -4.5852 -2.0020 0.9779
2.6658 -4.4930 -2.0020 0.9779
2.8245 -4.3950 -2.0021 0.9779
3.2782 -4.0680 -2.0021 0.9779
3.5601 -3.8238 -2.0021 0.9779
4.4934 -2.6661 -2.0023 0.9779
4.7528 -2.1705 -2.0023 0.9779
4.8272 -1.9995 -2.0023 0.9779
4.8955 -1.8259 -2.0023 0.9779
5.1056 -1.1107 -2.0023 0.9779
5.1719 -0.7436 -2.0023 0.9779
5.1951 -0.5585 -2.0023 0.9779
-1.9308 -0.0690 -0.7907 0.9917
-1.9525 -0.1396 -0.8011 0.9916
-1.9569 -0.2104 -0.8055 0.9915
-1.9449 -0.2796 -0.8042 0.9915
-2.1703 -0.3916 -0.9026 0.9905
-4.7781 -1.0394 -2.0013 0.9791
-4.6918 -1.3776 -2.0013 0.9791
-4.6397 -1.5442 -2.0013 0.9791
-4.5816 -1.7089 -2.0013 0.9791
-4.3727 -2.1888 -2.0013 0.9791
-4.2918 -2.3435 -2.0013 0.9791
-4.2055 -2.4952 -2.0014 0.9791
-3.8076 -3.0684 -2.0014 0.9791
-3.6957 -3.2023 -2.0014 0.9791
-3.4579 -3.4579 -2.0014 0.9791
-2.9306 -3.9149 -2.0015 0.9791
-2.4954 -4.2058 -2.0015 0.9791
-2.3437 -4.2922 -2.0015 0.9791
-2.1891 -4.3732 -2.0015 0.9791
-2.0316 -4.4486 -2.0016 0.9791
-1.8715 -4.5183 -2.0016 0.9791
-1.5445 -4.6404 -2.0016 0.9791
-1.2095 -4.7388 -2.0016 0.9791
-0.8684 -4.8131 -2.0017 0.9791
-0.1746 -4.8878 -2.0018 0.9791
0.3489 -4.8786 -2.0018 0.9791
0.5228 -4.8631 -2.0018 0.9791
0.6961 -4.8414 -2.0018 0.9791
0.8685 -4.8135 -2.0019 0.9791
1.2096 -4.7394 -2.0019 0.9791
1.3781 -4.6932 -2.0019 0.9791
1.5447 -4.6411 -2.0019 0.9791
2.0320 -4.4495 -2.0020 0.9791
2.6446 -4.1152 -2.0020 0.9791
2.7899 -4.0182 -2.0021 0.9791
3.0695 -3.8090 -2.0021 0.9791
3.3334 -3.5803 -2.0021 0.9791
3.4591 -3.4591 -2.0021 0.9791
3.6971 -3.2036 -2.0022 0.9791
4.0185 -2.7901 -2.0022 0.9791
4.4501 -2.0323 -2.0023 0.9791
4.6419 -1.5450 -2.0023 0.9791
4.8425 -0.6962 -2.0023 0.9791
4.8643 -0.5230 -2.0023 0.9791
4.8799 -0.3490 -2.0023 0.9791
4.8892 -0.1746 -2.0023 0.9791
-1.5293 -0.1094 -0.6682 0.9933
-1.5249 -0.1639 -0.6684 0.9933
-1.5151 -0.2178 -0.6671 0.9933
-1.5002 -0.2707 -0.6643 0.9934
-1.5485 -0.3952 -0.6965 0.9931
-1.5707 -0.4612 -0.7134 0.9929
-4.1065 -2.0556 -2.0014 0.9802
-3.9494 -2.3433 -2.0014 0.9802
-3.7722 -2.6191 -2.0014 0.9802
-3.5758 -2.8816 -2.0014 0.9802
-3.3611 -3.1293 -2.0014 0.9802
-2.8816 -3.5759 -2.0015 0.9802
-2.4829 -3.8635 -2.0015 0.9802
-2.0558 -4.1069 -2.0016 0.9802
-1.6050 -4.3032 -2.0016 0.9802
-1.1359 -4.4502 -2.0017 0.9802
-0.8155 -4.5200 -2.0017 0.9802
-0.4910 -4.5667 -2.0017 0.9802
-0.3277 -4.5814 -2.0017 0.9802
0.1639 -4.5903 -2.0018 0.9802
0.6537 -4.5466 -2.0018 0.9802
1.4506 -4.3584 -2.0019 0.9802
1.7579 -4.2439 -2.0020 0.9802
2.0562 -4.1078 -2.0020 0.9802
2.7530 -3.6775 -2.0021 0.9802
2.8825 -3.5770 -2.0021 0.9802
3.0083 -3.4718 -2.0021 0.9802
3.1304 -3.3623 -2.0021 0.9802
3.3623 -3.1304 -2.0021 0.9802
3.6777 -2.7531 -2.0022 0.9802
3.9510 -2.3443 -2.0022 0.9802
4.1082 -2.0564 -2.0022 0.9802
4.2445 -1.7581 -2.0022 0.9802
4.4893 -0.9766 -2.0023 0.9802
4.5213 -0.8157 -2.0023 0.9802
4.5914 -0.1640 -2.0023 0.9802
-1.3333 -0.0000 -0.6172 0.9941
-1.3376 -0.0478 -0.6195 0.9941
-1.3150 -0.6006 -0.6692 0.9936
-3.7185 -2.2063 -2.0014 0.9811
-3.6374 -2.3376 -2.0014 0.9811
-3.4614 -2.5912 -2.0014 0.9811
-3.3667 -2.7131 -2.0014 0.9811
-3.1646 -2.9464 -2.0015 0.9811
-2.9464 -3.1647 -2.0015 0.9811
-2.5913 -3.4615 -2.0015 0.9811
-2.2065 -3.7188 -2.0016 0.9811
-1.7963 -3.9334 -2.0016 0.9811
-1.5112 -4.0516 -2.0016 0.9811
-1.2183 -4.1491 -2.0017 0.9811
-1.0694 -4.1900 -2.0017 0.9811
-0.9192 -4.2255 -2.0017 0.9811
-0.6154 -4.2804 -2.0017 0.9811
-0.4623 -4.2997 -2.0017 0.9811
-0.3085 -4.3135 -2.0017 0.9811
0.4623 -4.2999 -2.0018 0.9811
0.6155 -4.2807 -2.0018 0.9811
1.5114 -4.0522 -2.0019 0.9811
2.0728 -3.7960 -2.0020 0.9811
2.2070 -3.7196 -2.0020 0.9811
2.3383 -3.6385 -2.0020 0.9811
2.7139 -3.3678 -2.0021 0.9811
2.8324 -3.2688 -2.0021 0.9811
2.9473 -3.1656 -2.0021 0.9811
3.3679 -2.7140 -2.0021 0.9811
3.7199 -2.2071 -2.0022 0.9811
3.7964 -2.0730 -2.0022 0.9811
3.9346 -1.7969 -2.0022 0.9811
4.1042 -1.3660 -2.0022 0.9811
4.2267 -0.9195 -2.0022 0.9811
4.2568 -0.7680 -2.0022 0.9811
4.2816 -0.6156 -2.0022 0.9811
4.3146 -0.3086 -2.0023 0.9811
4.3228 -0.1544 -2.0023 0.9811
-1.1953 -0.0855 -0.5878 0.9947
-1.1867 -0.1706 -0.5881 0.9947
-1.1791 -0.2127 -0.5877 0.9947
-1.1695 -0.2544 -0.5871 0.9947
-1.1590 -0.3403 -0.5925 0.9946
-1.1400 -0.5206 -0.6148 0.9944
-1.1292 -0.5652 -0.6194 0.9944
-3.4325 -2.2059 -2.0014 0.9820
-3.3516 -2.3270 -2.0014 0.9820
-3.1771 -2.5602 -2.0015 0.9820
-2.9863 -2.7804 -2.0015 0.9820
-2.8852 -2.8852 -2.0015 0.9820
-2.7804 -2.9864 -2.0015 0.9820
-2.4453 -3.2665 -2.0015 0.9820
-2.3272 -3.3518 -2.0015 0.9820
-2.0821 -3.5093 -2.0016 0.9820
-1.9556 -3.5814 -2.0016 0.9820
-1.8265 -3.6489 -2.0016 0.9820
-1.6951 -3.7118 -2.0016 0.9820
-1.4260 -3.8233 -2.0016 0.9820
-1.0092 -3.9539 -2.0017 0.9820
-0.8674 -3.9875 -2.0017 0.9820
-0.5808 -4.0392 -2.0017 0.9820
0.1457 -4.0783 -2.0018 0.9820
0.2911 -4.0706 -2.0018 0.9820
0.4362 -4.0576 -2.0018 0.9820
0.7246 -4.0162 -2.0019 0.9820
0.8675 -3.9878 -2.0019 0.9820
1.0093 -3.9543 -2.0019 0.9820
1.2888 -3.8723 -2.0019 0.9820
1.5618 -3.7706 -2.0019 0.9820
1.6954 -3.7125 -2.0020 0.9820
1.8269 -3.6496 -2.0020 0.9820
2.2066 -3.4335 -2.0020 0.9820
2.4459 -3.2674 -2.0020 0.9820
2.5610 -3.1780 -2.0020 0.9820
2.7812 -2.9872 -2.0021 0.9820
2.8861 -2.8861 -2.0021 0.9820
2.9873 -2.7812 -2.0021 0.9820
3.1781 -2.5611 -2.0021 0.9820
3.2675 -2.4460 -2.0021 0.9820
3.5103 -2.0828 -2.0022 0.9820
3.7129 -1.6956 -2.0022 0.9820
3.8244 -1.4264 -2.0022 0.9820
3.9164 -1.1500 -2.0022 0.9820
3.9550 -1.0094 -2.0022 0.9820
4.0714 -0.2912 -2.0022 0.9820
-1.1058 -0.0000 -0.5737 0.9950
-1.1024 -0.1185 -0.5752 0.9950
-1.0974 -0.1578 -0.5752 0.9950
-1.0905 -0.1967 -0.5749 0.9950
-1.0814 -0.2352 -0.5741 0.9950
-1.0704 -0.2732 -0.5731 0.9950
-1.0617 -0.3534 -0.5805 0.9950
-1.0576 -0.3945 -0.5856 0.9949
-1.0298 -0.5155 -0.5974 0.9948
-3.2456 -2.0858 -2.0015 0.9828
-3.1691 -2.2003 -2.0015 0.9828
-3.0885 -2.3120 -2.0015 0.9828
-2.8237 -2.6290 -2.0015 0.9828
-2.7281 -2.7281 -2.0015 0.9828
-2.6290 -2.8237 -2.0015 0.9828
-2.5265 -2.9158 -2.0015 0.9828
-2.2004 -3.1692 -2.0016 0.9828
-2.0859 -3.2458 -2.0016 0.9828
-1.8491 -3.3863 -2.0016 0.9828
-1.7270 -3.4502 -2.0016 0.9828
-1.3483 -3.6151 -2.0016 0.9828
-1.2185 -3.6610 -2.0017 0.9828
-1.0870 -3.7021 -2.0017 0.9828
-0.9542 -3.7386 -2.0017 0.9828
-0.8202 -3.7703 -2.0017 0.9828
-0.5491 -3.8192 -2.0017 0.9828
-0.4125 -3.8364 -2.0017 0.9828
-0.2753 -3.8487 -2.0017 0.9828
-0.1377 -3.8561 -2.0018 0.9828
0.2753 -3.8489 -2.0018 0.9828
0.4125 -3.8366 -2.0018 0.9828
0.5492 -3.8195 -2.0018 0.9828
0.8203 -3.7706 -2.0019 0.9828
0.9543 -3.7390 -2.0019 0.9828
1.0872 -3.7025 -2.0019 0.9828
1.4768 -3.5652 -2.0019 0.9828
1.6031 -3.5102 -2.0019 0.9828
1.9691 -3.3188 -2.0020 0.9828
2.0864 -3.2464 -2.0020 0.9828
2.2009 -3.1699 -2.0020 0.9828
2.3127 -3.0894 -2.0020 0.9828
2.4215 -3.0049 -2.0020 0.9828
2.5272 -2.9166 -2.0020 0.9828
2.7289 -2.7289 -2.0021 0.9828
3.0050 -2.4216 -2.0021 0.9828
3.0895 -2.3128 -2.0021 0.9828
3.1701 -2.2010 -2.0021 0.9828
3.2467 -2.0865 -2.0021 0.9828
3.3872 -1.8496 -2.0021 0.9828
3.5106 -1.6032 -2.0022 0.9828
3.5656 -1.4769 -2.0022 0.9828
3.6161 -1.3487 -2.0022 0.9828
3.6619 -1.2188 -2.0022 0.9828
3.7981 -0.6852 -2.0022 0.9828
3.8496 -0.2753 -2.0022 0.9828
3.8570 -0.1378 -2.0022 0.9828
-1.0269 -0.0000 -0.5625 0.9953
-1.0276 -0.0367 -0.5632 0.9953
-1.0265 -0.0734 -0.5637 0.9953
-1.0124 -0.1826 -0.5634 0.9953
-1.0039 -0.2184 -0.5627 0.9953
-0.9938 -0.2537 -0.5618 0.9953
-0.9820 -0.2883 -0.5606 0.9953
-0.9785 -0.3257 -0.5648 0.9953
-0.9741 -0.3633 -0.5694 0.9953
-0.9677 -0.4009 -0.5737 0.9952
-0.9269 -0.5061 -0.5784 0.9952
-0.9084 -0.5390 -0.5785 0.9952
-0.8882 -0.5708 -0.5782 0.9952
-0.8661 -0.6014 -0.5775 0.9952
-2.8454 -2.2930 -2.0015 0.9835
-2.6746 -2.4902 -2.0015 0.9835
-2.1900 -2.9256 -2.0016 0.9835
-2.0842 -3.0019 -2.0016 0.9835
-1.6359 -3.2680 -2.0016 0.9835
-1.5182 -3.3243 -2.0016 0.9835
-1.2772 -3.4242 -2.0016 0.9835
-1.1541 -3.4676 -2.0017 0.9835
-0.7769 -3.5712 -2.0017 0.9835
-0.5201 -3.6176 -2.0017 0.9835
-0.3907 -3.6338 -2.0017 0.9835
-0.2607 -3.6455 -2.0018 0.9835
0.0000 -3.6549 -2.0018 0.9835
0.1304 -3.6526 -2.0018 0.9835
0.2607 -3.6456 -2.0018 0.9835
0.3907 -3.6340 -2.0018 0.9835
0.9039 -3.5415 -2.0019 0.9835
1.1543 -3.4680 -2.0019 0.9835
1.2773 -3.4246 -2.0019 0.9835
1.3988 -3.3769 -2.0019 0.9835
1.6361 -3.2685 -2.0020 0.9835
1.9762 -3.0750 -2.0020 0.9835
2.0847 -3.0025 -2.0020 0.9835
2.1905 -2.9262 -2.0020 0.9835
2.2936 -2.8462 -2.0020 0.9835
2.4908 -2.6753 -2.0020 0.9835
2.6753 -2.4908 -2.0021 0.9835
2.8463 -2.2937 -2.0021 0.9835
2.9263 -2.1906 -2.0021 0.9835
3.0752 -1.9763 -2.0021 0.9835
3.1438 -1.8653 -2.0021 0.9835
3.3252 -1.5186 -2.0021 0.9835
3.4251 -1.2775 -2.0022 0.9835
3.4685 -1.1544 -2.0022 0.9835
3.5075 -1.0299 -2.0022 0.9835
3.5420 -0.9041 -2.0022 0.9835
3.5720 -0.7771 -2.0022 0.9835
3.5975 -0.6491 -2.0022 0.9835
3.6184 -0.5203 -2.0022 0.9835
3.6347 -0.3908 -2.0022 0.9835
3.6463 -0.2608 -2.0022 0.9835
-0.9570 -0.0000 -0.5525 0.9956
-0.9575 -0.0342 -0.5532 0.9956
-0.9537 -0.1025 -0.5538 0.9956
-0.9492 -0.1365 -0.5536 0.9956
-0.9151 -0.2687 -0.5506 0.9956
-0.9011 -0.3361 -0.5553 0.9956
-0.8941 -0.3703 -0.5587 0.9955
-0.8823 -0.4029 -0.5600 0.9955
-2.4514 -2.4514 -2.0015 0.9841
-2.1753 -2.6994 -2.0016 0.9841
-2.0776 -2.7753 -2.0016 0.9841
-1.9772 -2.8477 -2.0016 0.9841
-1.7690 -2.9816 -2.0016 0.9841
-1.6615 -3.0428 -2.0016 0.9841
-1.5519 -3.1002 -2.0016 0.9841
-1.4402 -3.1536 -2.0016 0.9841
-1.2116 -3.2484 -2.0017 0.9841
-0.9768 -3.3266 -2.0017 0.9841
-0.3706 -3.4472 -2.0017 0.9841
-0.2473 -3.4583 -2.0018 0.9841
0.1237 -3.4650 -2.0018 0.9841
0.2473 -3.4584 -2.0018 0.9841
0.6156 -3.4122 -2.0018 0.9841
0.7370 -3.3881 -2.0019 0.9841
0.8575 -3.3596 -2.0019 0.9841
1.0950 -3.2900 -2.0019 0.9841
1.3269 -3.2035 -2.0019 0.9841
1.5521 -3.1007 -2.0019 0.9841
1.9776 -2.8483 -2.0020 0.9841
2.0780 -2.7759 -2.0020 0.9841
2.2708 -2.6206 -2.0020 0.9841
2.3629 -2.5379 -2.0020 0.9841
2.5380 -2.3629 -2.0021 0.9841
2.7001 -2.1759 -2.0021 0.9841
2.8485 -1.9777 -2.0021 0.9841
2.9172 -1.8748 -2.0021 0.9841
2.9823 -1.7695 -2.0021 0.9841
3.0436 -1.6619 -2.0021 0.9841
1.8620 -0.7713 -1.1636 0.9907
1.9352 -0.5682 -1.1644 0.9907
1.9616 -0.5007 -1.1688 0.9907
2.0300 -0.2919 -1.1841 0.9906
2.0366 -0.2190 -1.1826 0.9906
2.0359 -0.1456 -1.1784 0.9906
