ply
format ascii 1.0
element vertex 751
property float32 x
property float32 y
property float32 z
property float32 I
end_header
-9.4711 -0.3383 -2.0033 0.9620
-9.4529 -0.6761 -2.0033 0.9620
-9.3264 -1.6827 -2.0032 0.9620
-9.2604 -2.0145 -2.0032 0.9620
-8.8792 -3.3118 -2.0032 0.9620
-8.4740 -4.2418 -2.0031 0.9620
-8.3171 -4.5415 -2.0031 0.9620
-8.1496 -4.8354 -2.0031 0.9620
-7.5858 -5.6786 -2.0030 0.9620
-7.1611 -6.2051 -2.0029 0.9620
-6.9349 -6.4567 -2.0029 0.9620
-6.6999 -6.6999 -2.0029 0.9620
-6.2047 -7.1606 -2.0028 0.9620
-5.9450 -7.3773 -2.0027 0.9620
-5.6778 -7.5847 -2.0027 0.9620
-5.1221 -7.9701 -2.0026 0.9620
-4.8342 -8.1477 -2.0026 0.9620
-4.2405 -8.4714 -2.0025 0.9620
-3.6252 -8.7519 -2.0024 0.9620
-2.9915 -8.9878 -2.0023 0.9620
-2.6687 -9.0887 -2.0023 0.9620
-2.3425 -9.1779 -2.0022 0.9620
-1.6817 -9.3212 -2.0021 0.9620
-1.3479 -9.3750 -2.0021 0.9620
-0.6756 -9.4469 -2.0020 0.9620
-0.3380 -9.4647 -2.0019 0.9620
0.3380 -9.4643 -2.0018 0.9620
0.6756 -9.4459 -2.0018 0.9620
1.0123 -9.4156 -2.0017 0.9620
1.3477 -9.3732 -2.0017 0.9620
1.6813 -9.3189 -2.0016 0.9620
2.3417 -9.1748 -2.0015 0.9620
2.6676 -9.0851 -2.0015 0.9620
2.9901 -8.9839 -2.0014 0.9620
3.6233 -8.7473 -2.0014 0.9620
3.9331 -8.6122 -2.0013 0.9620
4.2379 -8.4662 -2.0013 0.9620
4.5373 -8.3093 -2.0012 0.9620
6.4504 -6.9282 -2.0009 0.9620
6.6934 -6.6934 -2.0009 0.9620
7.3702 -5.9393 -2.0008 0.9620
7.5774 -5.6724 -2.0008 0.9620
7.9625 -5.1172 -2.0007 0.9620
8.7441 -3.6219 -2.0006 0.9620
9.0810 -2.6664 -2.0006 0.9620
9.3138 -1.6804 -2.0005 0.9620
9.3678 -1.3469 -2.0005 0.9620
9.4099 -1.0117 -2.0005 0.9620
9.4400 -0.6751 -2.0005 0.9620
9.4581 -0.3378 -2.0005 0.9620
-8.5231 -0.0000 -2.0031 0.9656
-8.5177 -0.3042 -2.0031 0.9656
-8.5014 -0.6080 -2.0031 0.9656
-8.4743 -0.9111 -2.0031 0.9656
-8.4363 -1.2129 -2.0031 0.9656
-8.1777 -2.4012 -2.0031 0.9656
-7.7524 -3.5404 -2.0030 0.9656
-7.6211 -3.8148 -2.0030 0.9656
-7.4800 -4.0844 -2.0030 0.9656
-7.3293 -4.3487 -2.0030 0.9656
-7.1694 -4.6075 -2.0029 0.9656
-6.8222 -5.1071 -2.0029 0.9656
-5.8066 -6.2368 -2.0027 0.9656
-5.5802 -6.4399 -2.0027 0.9656
-4.8596 -6.9992 -2.0026 0.9656
-4.3478 -7.3278 -2.0025 0.9656
-3.8138 -7.6190 -2.0024 0.9656
-2.9773 -7.9825 -2.0023 0.9656
-2.6904 -8.0835 -2.0023 0.9656
-2.4002 -8.1742 -2.0022 0.9656
-1.5125 -8.3834 -2.0021 0.9656
-1.2123 -8.4319 -2.0021 0.9656
-0.9106 -8.4695 -2.0020 0.9656
-0.3040 -8.5125 -2.0019 0.9656
0.0000 -8.5178 -2.0019 0.9656
0.3040 -8.5122 -2.0018 0.9656
0.6076 -8.4957 -2.0018 0.9656
1.2121 -8.4304 -2.0017 0.9656
1.8104 -8.3221 -2.0016 0.9656
2.6894 -8.0803 -2.0015 0.9656
3.2588 -7.8675 -2.0014 0.9656
3.5375 -7.7461 -2.0014 0.9656
3.8117 -7.6147 -2.0013 0.9656
4.3450 -7.3231 -2.0012 0.9656
4.6035 -7.1632 -2.0012 0.9656
4.8562 -6.9942 -2.0012 0.9656
5.1026 -6.8163 -2.0011 0.9656
6.0204 -6.0204 -2.0010 0.9656
6.2313 -5.8016 -2.0010 0.9656
6.4343 -5.5754 -2.0009 0.9656
6.6292 -5.3421 -2.0009 0.9656
6.8155 -5.1020 -2.0009 0.9656
7.3216 -4.3441 -2.0008 0.9656
7.4719 -4.0799 -2.0008 0.9656
7.6127 -3.8106 -2.0008 0.9656
7.7437 -3.5364 -2.0008 0.9656
8.0772 -2.6884 -2.0007 0.9656
8.2483 -2.1053 -2.0007 0.9656
8.3182 -1.8095 -2.0007 0.9656
8.3774 -1.5115 -2.0007 0.9656
8.4260 -1.2115 -2.0007 0.9656
8.5072 -0.3038 -2.0007 0.9656
-7.7361 0.0000 -2.0030 0.9685
-7.7312 -0.2761 -2.0030 0.9685
-7.6917 -0.8269 -2.0030 0.9685
-7.6573 -1.1010 -2.0030 0.9685
-7.4957 -1.9131 -2.0030 0.9685
-7.4226 -2.1795 -2.0030 0.9685
-7.1469 -2.9604 -2.0029 0.9685
-6.7893 -3.7073 -2.0029 0.9685
-6.1924 -4.6355 -2.0028 0.9685
-6.0229 -4.8535 -2.0028 0.9685
-5.6611 -5.2707 -2.0027 0.9685
-5.4693 -5.4693 -2.0027 0.9685
-5.2705 -5.6610 -2.0027 0.9685
-5.0651 -5.8454 -2.0026 0.9685
-4.8531 -6.0224 -2.0026 0.9685
-4.1814 -6.5063 -2.0025 0.9685
-3.7064 -6.7878 -2.0024 0.9685
-3.2126 -7.0347 -2.0023 0.9686
-2.7025 -7.2457 -2.0023 0.9686
-1.6437 -7.5559 -2.0021 0.9686
-1.3729 -7.6096 -2.0021 0.9686
-1.1004 -7.6536 -2.0020 0.9686
-0.5516 -7.7123 -2.0020 0.9686
0.0000 -7.7317 -2.0019 0.9686
0.2760 -7.7266 -2.0018 0.9686
2.7014 -7.2428 -2.0015 0.9686
3.2111 -7.0314 -2.0014 0.9686
3.9441 -6.6475 -2.0013 0.9686
4.4082 -6.3490 -2.0012 0.9686
4.6319 -6.1875 -2.0012 0.9686
4.8497 -6.0181 -2.0012 0.9686
5.0613 -5.8411 -2.0011 0.9686
5.8408 -5.0611 -2.0010 0.9686
6.1868 -4.6314 -2.0010 0.9686
6.5013 -4.1781 -2.0009 0.9686
6.7827 -3.7036 -2.0009 0.9686
7.1395 -2.9573 -2.0009 0.9686
7.3322 -2.4404 -2.0008 0.9686
7.4146 -2.1771 -2.0008 0.9686
7.6047 -1.3720 -2.0008 0.9686
7.6488 -1.0997 -2.0008 0.9686
-7.0751 -0.0000 -2.0029 0.9710
-7.0571 -0.5047 -2.0029 0.9710
-7.0031 -1.0069 -2.0029 0.9710
-6.9133 -1.5039 -2.0029 0.9710
-6.6288 -2.4724 -2.0029 0.9710
-6.3264 -3.1668 -2.0028 0.9710
-6.0843 -3.6100 -2.0028 0.9710
-5.9515 -3.8248 -2.0028 0.9710
-5.1775 -4.8204 -2.0026 0.9710
-5.0021 -5.0021 -2.0026 0.9710
-4.8203 -5.1774 -2.0026 0.9710
-4.6324 -5.3461 -2.0026 0.9710
-4.4385 -5.5079 -2.0025 0.9710
-4.2391 -5.6627 -2.0025 0.9710
-3.1660 -6.3249 -2.0023 0.9710
-2.9382 -6.4338 -2.0023 0.9710
-2.7067 -6.5345 -2.0023 0.9710
-2.4717 -6.6268 -2.0022 0.9710
-1.7490 -6.8527 -2.0021 0.9710
-1.0064 -7.0000 -2.0020 0.9710
-0.2524 -7.0671 -2.0019 0.9710
0.0000 -7.0715 -2.0019 0.9710
0.7559 -7.0305 -2.0018 0.9710
1.5030 -6.9091 -2.0017 0.9710
1.7486 -6.8509 -2.0016 0.9710
1.9920 -6.7840 -2.0016 0.9710
2.7056 -6.5319 -2.0015 0.9710
3.1646 -6.3220 -2.0014 0.9710
3.6074 -6.0800 -2.0014 0.9710
4.2365 -5.6593 -2.0013 0.9710
4.8169 -5.1738 -2.0012 0.9710
4.9985 -4.9985 -2.0012 0.9710
5.3422 -4.6290 -2.0011 0.9710
5.5040 -4.4354 -2.0011 0.9710
5.6587 -4.2360 -2.0011 0.9710
5.8062 -4.0313 -2.0010 0.9710
5.9463 -3.8215 -2.0010 0.9710
6.2037 -3.3875 -2.0010 0.9710
6.3206 -3.1639 -2.0010 0.9710
6.4295 -2.9362 -2.0010 0.9710
6.5301 -2.7049 -2.0009 0.9710
6.9064 -1.5024 -2.0009 0.9710
6.9556 -1.2549 -2.0009 0.9710
6.9960 -1.0059 -2.0009 0.9710
7.0274 -0.7555 -2.0009 0.9710
7.0499 -0.5042 -2.0009 0.9710
7.0634 -0.2523 -2.0009 0.9710
-6.5075 -0.2324 -2.0028 0.9731
-6.4453 -0.9267 -2.0028 0.9731
-6.3612 -1.1477 -1.9882 0.9733
-6.3221 -1.3753 -1.9900 0.9733
-6.3093 -1.6103 -2.0028 0.9731
-6.2477 -1.8345 -2.0028 0.9731
-6.1782 -2.0563 -2.0028 0.9731
-5.9229 -2.7049 -2.0028 0.9731
-5.8225 -2.9146 -2.0027 0.9731
-5.7148 -3.1205 -2.0027 0.9731
-5.4775 -3.5202 -2.0027 0.9731
-5.2123 -3.9019 -2.0026 0.9731
-5.0697 -4.0854 -2.0026 0.9731
-4.9206 -4.2637 -2.0026 0.9731
-3.9015 -5.2118 -2.0025 0.9731
-3.7129 -5.3477 -2.0024 0.9731
-3.5197 -5.4767 -2.0024 0.9731
-3.1199 -5.7137 -2.0023 0.9731
-2.9139 -5.8213 -2.0023 0.9731
-2.7043 -5.9215 -2.0023 0.9731
-2.4912 -6.0142 -2.0022 0.9731
-2.0557 -6.1764 -2.0022 0.9731
-1.8339 -6.2457 -2.0021 0.9731
-1.6098 -6.3071 -2.0021 0.9731
-1.3836 -6.3604 -2.0021 0.9731
-1.1557 -6.4056 -2.0021 0.9731
-0.9263 -6.4427 -2.0020 0.9731
-0.6958 -6.4716 -2.0020 0.9731
0.2323 -6.5043 -2.0018 0.9731
1.3833 -6.3591 -2.0017 0.9731
1.6094 -6.3056 -2.0016 0.9731
2.4903 -6.0120 -2.0015 0.9731
2.7032 -5.9192 -2.0015 0.9731
3.3203 -5.5961 -2.0014 0.9731
3.5179 -5.4739 -2.0014 0.9731
3.8993 -5.2089 -2.0013 0.9731
4.0827 -5.0663 -2.0013 0.9731
4.2609 -4.9173 -2.0013 0.9731
4.4336 -4.7620 -2.0012 0.9731
4.6007 -4.6007 -2.0012 0.9731
4.7619 -4.4335 -2.0012 0.9731
4.9171 -4.2607 -2.0012 0.9731
5.0660 -4.0824 -2.0011 0.9731
5.2084 -3.8989 -2.0011 0.9731
5.3442 -3.7105 -2.0011 0.9731
5.4732 -3.5174 -2.0011 0.9731
5.7101 -3.1179 -2.0011 0.9731
5.9178 -2.7026 -2.0010 0.9731
6.0105 -2.4896 -2.0010 0.9731
6.1727 -2.0545 -2.0010 0.9731
6.2421 -1.8328 -2.0010 0.9731
6.3035 -1.6089 -2.0010 0.9731
6.3569 -1.3829 -2.0010 0.9731
6.4393 -0.9258 -2.0010 0.9731
6.4682 -0.6954 -2.0010 0.9731
6.4889 -0.4641 -2.0009 0.9731
6.5013 -0.2322 -2.0009 0.9731
-6.0251 -0.0000 -2.0028 0.9749
-6.0097 -0.4298 -2.0028 0.9749
-5.9905 -0.6440 -2.0028 0.9749
-5.9637 -0.8575 -2.0028 0.9749
-5.8873 -1.2807 -2.0027 0.9749
-5.7166 -1.9027 -2.0027 0.9749
-5.6450 -2.1055 -2.0027 0.9749
-5.5662 -2.3056 -2.0027 0.9749
-5.4804 -2.5028 -2.0027 0.9749
-5.2878 -2.8874 -2.0027 0.9749
-4.9487 -3.4360 -2.0026 0.9749
-4.8229 -3.6104 -2.0026 0.9749
-4.6909 -3.7802 -2.0026 0.9749
-4.4092 -4.1051 -2.0025 0.9749
-4.2598 -4.2598 -2.0025 0.9749
-4.1050 -4.4091 -2.0025 0.9749
-3.9450 -4.5527 -2.0025 0.9749
-3.7799 -4.6906 -2.0024 0.9749
-3.6100 -4.8225 -2.0024 0.9749
-3.2567 -5.0676 -2.0024 0.9749
-3.0737 -5.1805 -2.0023 0.9749
-2.6962 -5.3865 -2.0023 0.9749
-2.5023 -5.4792 -2.0022 0.9749
-1.9021 -5.7150 -2.0022 0.9749
-1.2803 -5.8853 -2.0021 0.9749
-0.6438 -5.9882 -2.0020 0.9749
-0.4296 -6.0072 -2.0019 0.9749
0.0000 -6.0224 -2.0019 0.9749
0.2150 -6.0185 -2.0019 0.9749
0.4296 -6.0069 -2.0018 0.9749
1.0692 -5.9263 -2.0017 0.9749
1.2801 -5.8842 -2.0017 0.9749
2.1043 -5.6418 -2.0016 0.9749
2.3043 -5.5631 -2.0015 0.9749
2.6952 -5.3843 -2.0015 0.9749
2.8856 -5.2846 -2.0015 0.9749
3.4339 -4.9457 -2.0014 0.9749
4.1026 -4.4065 -2.0013 0.9749
4.2572 -4.2572 -2.0013 0.9749
4.4064 -4.1025 -2.0012 0.9749
4.6877 -3.7776 -2.0012 0.9749
4.8195 -3.6078 -2.0012 0.9749
5.0645 -3.2548 -2.0012 0.9749
5.1774 -3.0719 -2.0011 0.9749
5.2837 -2.8851 -2.0011 0.9749
5.3833 -2.6947 -2.0011 0.9749
5.4760 -2.5008 -2.0011 0.9749
5.5618 -2.3038 -2.0011 0.9749
5.7119 -1.9011 -2.0011 0.9749
5.9242 -1.0688 -2.0010 0.9749
5.9586 -0.8567 -2.0010 0.9749
5.9853 -0.6435 -2.0010 0.9749
6.0045 -0.4295 -2.0010 0.9749
6.0160 -0.2149 -2.0010 0.9749
-5.6003 -0.0000 -2.0027 0.9765
-5.5967 -0.1999 -2.0027 0.9765
-5.5860 -0.3995 -2.0027 0.9765
-5.5682 -0.5986 -2.0027 0.9765
-5.5433 -0.7970 -2.0027 0.9765
-5.5113 -0.9943 -2.0027 0.9765
-5.4722 -1.1904 -2.0027 0.9765
-5.3733 -1.5777 -2.0027 0.9765
-5.3136 -1.7685 -2.0027 0.9765
-4.9150 -2.6838 -2.0026 0.9765
-4.8160 -2.8575 -2.0026 0.9765
-4.7110 -3.0275 -2.0026 0.9765
-4.5998 -3.1937 -2.0026 0.9765
-4.4829 -3.3559 -2.0025 0.9765
-4.3602 -3.5137 -2.0025 0.9765
-4.2320 -3.6671 -2.0025 0.9765
-4.0984 -3.8157 -2.0025 0.9765
-3.9595 -3.9595 -2.0025 0.9765
-3.5135 -4.3600 -2.0024 0.9765
-3.3556 -4.4825 -2.0024 0.9765
-3.1934 -4.5994 -2.0024 0.9765
-3.0272 -4.7104 -2.0023 0.9765
-2.8571 -4.8154 -2.0023 0.9765
-2.6833 -4.9142 -2.0023 0.9765
-2.5062 -5.0068 -2.0022 0.9765
-2.3259 -5.0930 -2.0022 0.9765
-2.1426 -5.1727 -2.0022 0.9765
-1.9566 -5.2458 -2.0022 0.9765
-1.7681 -5.3122 -2.0021 0.9765
-1.5773 -5.3719 -2.0021 0.9765
-1.1900 -5.4705 -2.0021 0.9765
-0.9940 -5.5095 -2.0020 0.9765
-0.7967 -5.5413 -2.0020 0.9765
-0.5984 -5.5661 -2.0020 0.9765
-0.3994 -5.5839 -2.0019 0.9765
-0.1998 -5.5945 -2.0019 0.9765
0.0000 -5.5980 -2.0019 0.9765
0.3993 -5.5836 -2.0018 0.9765
0.5984 -5.5657 -2.0018 0.9765
0.7966 -5.5407 -2.0018 0.9765
1.1898 -5.4696 -2.0017 0.9765
1.3843 -5.4236 -2.0017 0.9765
1.9560 -5.2443 -2.0016 0.9765
2.1419 -5.1711 -2.0016 0.9765
2.5053 -5.0050 -2.0015 0.9765
2.6823 -4.9123 -2.0015 0.9765
3.0259 -4.7083 -2.0014 0.9765
3.1919 -4.5972 -2.0014 0.9765
3.6649 -4.2296 -2.0014 0.9765
3.8135 -4.0960 -2.0013 0.9765
3.9573 -3.9572 -2.0013 0.9765
4.2294 -3.6648 -2.0013 0.9765
4.3575 -3.5115 -2.0013 0.9765
4.4800 -3.3537 -2.0012 0.9765
4.7077 -3.0255 -2.0012 0.9765
4.8127 -2.8555 -2.0012 0.9765
5.3095 -1.7672 -2.0011 0.9765
5.4220 -1.3839 -2.0011 0.9765
5.4679 -1.1895 -2.0011 0.9765
5.5069 -0.9935 -2.0011 0.9765
5.5388 -0.7964 -2.0011 0.9765
5.5637 -0.5981 -2.0011 0.9765
5.5815 -0.3992 -2.0011 0.9765
5.5922 -0.1997 -2.0011 0.9765
-5.2259 -0.0000 -2.0027 0.9779
-5.2225 -0.1865 -2.0027 0.9779
-5.2126 -0.3728 -2.0027 0.9779
-5.1959 -0.5586 -2.0026 0.9779
-5.1428 -0.9279 -2.0026 0.9779
-5.1064 -1.1108 -2.0026 0.9779
-5.0635 -1.2924 -2.0026 0.9779
-5.0141 -1.4723 -2.0026 0.9779
-4.8963 -1.8262 -2.0026 0.9779
-4.6729 -2.3391 -2.0026 0.9779
-4.5864 -2.5044 -2.0026 0.9779
-4.2923 -2.9802 -2.0025 0.9779
-4.1832 -3.1315 -2.0025 0.9779
-4.0687 -3.2788 -2.0025 0.9779
-3.8244 -3.5606 -2.0024 0.9779
-3.5606 -3.8243 -2.0024 0.9779
-2.9799 -4.2919 -2.0023 0.9779
-2.6661 -4.4935 -2.0023 0.9779
-2.5040 -4.5857 -2.0022 0.9779
-2.1704 -4.7526 -2.0022 0.9779
-1.6499 -4.9571 -2.0021 0.9779
-1.4719 -5.0128 -2.0021 0.9779
-1.2920 -5.0621 -2.0021 0.9779
-0.1864 -5.2206 -2.0019 0.9779
0.0000 -5.2239 -2.0019 0.9779
0.3727 -5.2104 -2.0018 0.9779
0.9275 -5.1405 -2.0018 0.9779
1.1103 -5.1041 -2.0017 0.9779
1.4716 -5.0117 -2.0017 0.9779
1.6495 -4.9560 -2.0016 0.9779
1.9988 -4.8255 -2.0016 0.9779
2.1697 -4.7511 -2.0016 0.9779
2.3379 -4.6705 -2.0015 0.9779
2.5031 -4.5840 -2.0015 0.9779
3.2770 -4.0666 -2.0014 0.9779
3.4201 -3.9470 -2.0014 0.9779
3.5587 -3.8223 -2.0014 0.9779
3.6929 -3.6929 -2.0014 0.9779
4.0663 -3.2769 -2.0013 0.9779
4.1807 -3.1296 -2.0013 0.9779
4.3932 -2.8233 -2.0012 0.9779
4.5834 -2.5027 -2.0012 0.9779
4.6698 -2.3375 -2.0012 0.9779
4.9548 -1.6491 -2.0012 0.9779
5.0105 -1.4712 -2.0012 0.9779
5.0598 -1.2914 -2.0012 0.9779
5.1390 -0.9272 -2.0011 0.9779
5.1920 -0.5582 -2.0011 0.9779
5.2086 -0.3725 -2.0011 0.9779
5.2186 -0.1864 -2.0011 0.9779
-1.8977 0.0000 -0.7767 0.9918
-1.9569 -0.2104 -0.8055 0.9915
-1.9449 -0.2796 -0.8042 0.9915
-4.7410 -1.2101 -2.0026 0.9791
-4.6948 -1.3785 -2.0026 0.9791
-4.5844 -1.7099 -2.0026 0.9791
-4.5205 -1.8724 -2.0025 0.9791
-4.3753 -2.1901 -2.0025 0.9791
-4.2943 -2.3449 -2.0025 0.9791
-4.1160 -2.6452 -2.0025 0.9791
-4.0190 -2.7904 -2.0025 0.9791
-3.9168 -2.9321 -2.0025 0.9791
-3.6976 -3.2040 -2.0024 0.9791
-3.4595 -3.4595 -2.0024 0.9791
-3.3338 -3.5808 -2.0024 0.9791
-2.9319 -3.9165 -2.0023 0.9791
-2.3445 -4.2937 -2.0022 0.9791
-2.0322 -4.4499 -2.0022 0.9791
-1.8720 -4.5196 -2.0022 0.9791
-1.7095 -4.5835 -2.0021 0.9791
-1.5448 -4.6415 -2.0021 0.9791
-1.3782 -4.6936 -2.0021 0.9791
-1.2097 -4.7398 -2.0021 0.9791
-0.8685 -4.8139 -2.0020 0.9791
-0.5229 -4.8634 -2.0020 0.9791
-0.3489 -4.8789 -2.0019 0.9791
-0.1746 -4.8882 -2.0019 0.9791
0.1746 -4.8881 -2.0019 0.9791
0.3489 -4.8787 -2.0018 0.9791
0.5229 -4.8631 -2.0018 0.9791
0.6961 -4.8413 -2.0018 0.9791
1.3779 -4.6927 -2.0017 0.9791
1.5445 -4.6405 -2.0017 0.9791
1.7091 -4.5823 -2.0016 0.9791
2.0316 -4.4486 -2.0016 0.9791
2.1891 -4.3732 -2.0016 0.9791
2.3438 -4.2923 -2.0015 0.9791
2.6439 -4.1140 -2.0015 0.9791
2.7891 -4.0170 -2.0015 0.9791
2.9306 -3.9148 -2.0015 0.9791
3.0685 -3.8077 -2.0014 0.9791
3.3322 -3.5790 -2.0014 0.9791
3.4578 -3.4578 -2.0014 0.9791
3.5790 -3.3322 -2.0014 0.9791
3.6956 -3.2023 -2.0014 0.9791
3.9146 -2.9304 -2.0013 0.9791
4.0167 -2.7888 -2.0013 0.9791
4.2917 -2.3434 -2.0013 0.9791
4.3725 -2.1887 -2.0013 0.9791
4.8616 -0.5227 -2.0012 0.9791
-1.5221 0.0000 -0.6634 0.9934
-1.5284 -0.0546 -0.6665 0.9933
-1.5293 -0.1094 -0.6682 0.9933
-1.5249 -0.1639 -0.6684 0.9933
-1.5151 -0.2178 -0.6671 0.9933
-1.5001 -0.2706 -0.6643 0.9934
-1.5484 -0.3952 -0.6965 0.9931
-1.5875 -0.5284 -0.7292 0.9927
-1.5984 -0.5962 -0.7435 0.9926
-4.2451 -1.7584 -2.0025 0.9802
-4.1088 -2.0567 -2.0025 0.9802
-3.8653 -2.4841 -2.0025 0.9802
-3.4723 -3.0088 -2.0024 0.9802
-3.2488 -3.2488 -2.0024 0.9802
-3.1307 -3.3627 -2.0023 0.9802
-2.8828 -3.5774 -2.0023 0.9802
-2.7533 -3.6780 -2.0023 0.9802
-2.6202 -3.7738 -2.0023 0.9802
-2.4838 -3.8649 -2.0022 0.9802
-2.0564 -4.1082 -2.0022 0.9802
-1.9084 -4.1789 -2.0022 0.9802
-1.7580 -4.2443 -2.0021 0.9802
-1.6054 -4.3043 -2.0021 0.9802
-1.2942 -4.4078 -2.0021 0.9802
-0.6537 -4.5469 -2.0020 0.9802
-0.4910 -4.5672 -2.0020 0.9802
-0.3277 -4.5818 -2.0019 0.9802
0.0000 -4.5934 -2.0019 0.9802
0.1640 -4.5904 -2.0019 0.9802
0.4910 -4.5669 -2.0018 0.9802
0.6537 -4.5464 -2.0018 0.9802
0.8155 -4.5201 -2.0018 0.9802
1.1359 -4.4504 -2.0017 0.9802
1.2940 -4.4069 -2.0017 0.9802
1.6051 -4.3033 -2.0017 0.9802
1.9079 -4.1777 -2.0016 0.9802
2.0558 -4.1069 -2.0016 0.9802
2.4829 -3.8635 -2.0015 0.9802
2.7522 -3.6765 -2.0015 0.9802
3.3611 -3.1293 -2.0014 0.9802
3.4706 -3.0073 -2.0014 0.9802
3.7721 -2.6190 -2.0013 0.9802
3.8632 -2.4827 -2.0013 0.9802
3.9493 -2.3432 -2.0013 0.9802
4.0304 -2.2007 -2.0013 0.9802
4.1063 -2.0555 -2.0013 0.9802
4.3025 -1.6047 -2.0013 0.9802
4.4059 -1.2937 -2.0013 0.9802
4.4870 -0.9761 -2.0012 0.9802
4.5190 -0.8153 -2.0012 0.9802
4.5452 -0.6535 -2.0012 0.9802
4.5656 -0.4909 -2.0012 0.9802
-1.3333 0.0000 -0.6172 0.9941
-1.3351 -0.1435 -0.6215 0.9941
-1.3160 -0.2374 -0.6190 0.9941
-1.3013 -0.2831 -0.6164 0.9941
-1.3240 -0.3888 -0.6388 0.9939
-1.3324 -0.4970 -0.6582 0.9938
-1.3263 -0.5494 -0.6645 0.9937
-1.3150 -0.6006 -0.6692 0.9936
-3.8684 -1.9364 -2.0025 0.9811
-3.6392 -2.3388 -2.0024 0.9811
-3.3683 -2.7143 -2.0024 0.9811
-3.1660 -2.9477 -2.0023 0.9811
-2.8327 -3.2692 -2.0023 0.9811
-2.7142 -3.3682 -2.0023 0.9811
-2.4670 -3.5531 -2.0022 0.9811
-2.3385 -3.6389 -2.0022 0.9811
-2.0730 -3.7964 -2.0022 0.9811
-1.7968 -3.9345 -2.0021 0.9811
-1.3659 -4.1039 -2.0021 0.9811
-1.2185 -4.1500 -2.0021 0.9811
-0.9194 -4.2262 -2.0020 0.9811
-0.6155 -4.2810 -2.0020 0.9811
-0.3085 -4.3139 -2.0019 0.9811
-0.1544 -4.3221 -2.0019 0.9811
0.4623 -4.2999 -2.0018 0.9811
0.7678 -4.2558 -2.0018 0.9811
1.2183 -4.1492 -2.0017 0.9811
1.3657 -4.1031 -2.0017 0.9811
1.6548 -3.9951 -2.0016 0.9811
1.7964 -3.9335 -2.0016 0.9811
1.9356 -3.8668 -2.0016 0.9811
2.0724 -3.7952 -2.0016 0.9811
2.2065 -3.7188 -2.0016 0.9811
2.3378 -3.6376 -2.0015 0.9811
2.5913 -3.4615 -2.0015 0.9811
2.9464 -3.1646 -2.0015 0.9811
3.0574 -3.0574 -2.0014 0.9811
3.1646 -2.9463 -2.0014 0.9811
3.8663 -1.9353 -2.0013 0.9811
3.9329 -1.7961 -2.0013 0.9811
4.1023 -1.3654 -2.0013 0.9811
4.1892 -1.0692 -2.0013 0.9811
4.2548 -0.7676 -2.0013 0.9811
4.2987 -0.4622 -2.0013 0.9811
-1.1964 -0.0427 -0.5873 0.9947
-1.1921 -0.1282 -0.5881 0.9947
-1.1791 -0.2127 -0.5877 0.9947
-1.1578 -0.2955 -0.5861 0.9947
-1.1590 -0.3403 -0.5925 0.9946
-1.1578 -0.3854 -0.5986 0.9946
-1.1543 -0.4306 -0.6043 0.9945
-1.1484 -0.4757 -0.6097 0.9945
-1.1400 -0.5206 -0.6148 0.9944
-3.5107 -2.0830 -2.0024 0.9820
-3.4341 -2.2070 -2.0024 0.9820
-3.2679 -2.4463 -2.0024 0.9820
-3.0850 -2.6732 -2.0023 0.9820
-2.8864 -2.8864 -2.0023 0.9820
-2.7815 -2.9876 -2.0023 0.9820
-2.6731 -3.0849 -2.0023 0.9820
-2.5613 -3.1783 -2.0023 0.9820
-2.3279 -3.3529 -2.0022 0.9820
-2.2068 -3.4338 -2.0022 0.9820
-1.9561 -3.5824 -2.0022 0.9820
-1.8270 -3.6499 -2.0022 0.9820
-1.5619 -3.7709 -2.0021 0.9820
-1.2889 -3.8726 -2.0021 0.9820
-1.0094 -3.9546 -2.0020 0.9820
-0.8675 -3.9881 -2.0020 0.9820
-0.7247 -4.0165 -2.0020 0.9820
0.0000 -4.0811 -2.0019 0.9820
0.2912 -4.0706 -2.0018 0.9820
0.5808 -4.0394 -2.0018 0.9820
1.1497 -3.9155 -2.0017 0.9820
1.2887 -3.8719 -2.0017 0.9820
1.4261 -3.8234 -2.0017 0.9820
1.6952 -3.7119 -2.0016 0.9820
2.2061 -3.4327 -2.0016 0.9820
2.7804 -2.9864 -2.0015 0.9820
3.1770 -2.5602 -2.0014 0.9820
3.2663 -2.4451 -2.0014 0.9820
3.3515 -2.3270 -2.0014 0.9820
3.4324 -2.2059 -2.0014 0.9820
3.5090 -2.0819 -2.0014 0.9820
3.6485 -1.8263 -2.0014 0.9820
3.7695 -1.5614 -2.0013 0.9820
3.8712 -1.2884 -2.0013 0.9820
4.0151 -0.7244 -2.0013 0.9820
4.0566 -0.4361 -2.0013 0.9820
4.0695 -0.2911 -2.0013 0.9820
-1.1057 0.0000 -0.5737 0.9950
-1.1024 -0.1185 -0.5752 0.9950
-1.0974 -0.1578 -0.5752 0.9950
-1.0814 -0.2352 -0.5741 0.9950
-1.0704 -0.2732 -0.5731 0.9950
-1.0636 -0.3123 -0.5751 0.9950
-1.0617 -0.3534 -0.5805 0.9950
-1.0576 -0.3945 -0.5856 0.9949
-1.0514 -0.4355 -0.5904 0.9949
-1.0430 -0.4763 -0.5948 0.9948
-1.0298 -0.5154 -0.5974 0.9948
-0.9917 -0.5884 -0.5982 0.9948
-3.1705 -2.2013 -2.0024 0.9828
-3.0053 -2.4218 -2.0023 0.9828
-2.9169 -2.5275 -2.0023 0.9828
-2.8248 -2.6300 -2.0023 0.9828
-2.7291 -2.7292 -2.0023 0.9828
-2.6300 -2.8248 -2.0023 0.9828
-2.0866 -3.2468 -2.0022 0.9828
-1.9693 -3.3191 -2.0022 0.9828
-1.8496 -3.3873 -2.0022 0.9828
-1.6032 -3.5105 -2.0021 0.9828
-1.4769 -3.5655 -2.0021 0.9828
-1.3487 -3.6159 -2.0021 0.9828
-1.0873 -3.7028 -2.0020 0.9828
-0.9544 -3.7392 -2.0020 0.9828
-0.6852 -3.7977 -2.0020 0.9828
-0.1377 -3.8564 -2.0019 0.9828
0.2753 -3.8489 -2.0018 0.9828
0.4125 -3.8366 -2.0018 0.9828
0.5492 -3.8194 -2.0018 0.9828
0.6851 -3.7973 -2.0018 0.9828
1.6028 -3.5097 -2.0017 0.9828
1.8491 -3.3864 -2.0016 0.9828
2.0860 -3.2458 -2.0016 0.9828
2.3121 -3.0886 -2.0016 0.9828
2.5265 -2.9158 -2.0015 0.9828
2.7281 -2.7281 -2.0015 0.9828
2.9157 -2.5265 -2.0015 0.9828
3.0040 -2.4208 -2.0015 0.9828
3.0885 -2.3120 -2.0014 0.9828
3.2455 -2.0858 -2.0014 0.9828
3.3860 -1.8489 -2.0014 0.9828
3.4498 -1.7268 -2.0014 0.9828
3.5642 -1.4763 -2.0014 0.9828
3.6146 -1.3482 -2.0014 0.9828
3.6604 -1.2183 -2.0014 0.9828
3.7696 -0.8200 -2.0013 0.9828
3.7965 -0.6850 -2.0013 0.9828
3.8185 -0.5490 -2.0013 0.9828
3.8357 -0.4124 -2.0013 0.9828
3.8553 -0.1377 -2.0013 0.9828
-1.0123 -0.1826 -0.5634 0.9953
-1.0039 -0.2184 -0.5627 0.9953
-0.9938 -0.2536 -0.5618 0.9953
-0.9785 -0.3257 -0.5648 0.9953
-0.9741 -0.3633 -0.5694 0.9953
-0.9434 -0.4722 -0.5778 0.9952
-0.8881 -0.5708 -0.5782 0.9952
-2.8466 -2.2939 -2.0023 0.9835
-2.6756 -2.4911 -2.0023 0.9835
-2.4911 -2.6756 -2.0023 0.9835
-2.3940 -2.7628 -2.0022 0.9835
-1.8653 -3.1438 -2.0022 0.9835
-1.6363 -3.2688 -2.0021 0.9835
-1.5185 -3.3251 -2.0021 0.9835
-1.3989 -3.3772 -2.0021 0.9835
-1.2774 -3.4249 -2.0021 0.9835
-1.1543 -3.4683 -2.0021 0.9835
-1.0298 -3.5073 -2.0020 0.9835
-0.7770 -3.5717 -2.0020 0.9835
-0.5202 -3.6180 -2.0020 0.9835
-0.3907 -3.6342 -2.0019 0.9835
-0.1304 -3.6528 -2.0019 0.9835
0.0000 -3.6551 -2.0019 0.9835
0.2608 -3.6457 -2.0018 0.9835
0.3907 -3.6340 -2.0018 0.9835
0.5202 -3.6177 -2.0018 0.9835
0.6490 -3.5968 -2.0018 0.9835
1.0297 -3.5067 -2.0017 0.9835
1.2772 -3.4243 -2.0017 0.9835
1.7515 -3.2076 -2.0016 0.9835
1.8648 -3.1430 -2.0016 0.9835
2.4902 -2.6746 -2.0015 0.9835
2.7618 -2.3931 -2.0015 0.9835
2.8454 -2.2930 -2.0015 0.9835
3.0017 -2.0841 -2.0015 0.9835
3.0742 -1.9756 -2.0014 0.9835
3.1427 -1.8646 -2.0014 0.9835
3.2072 -1.7513 -2.0014 0.9835
3.3240 -1.5180 -2.0014 0.9835
3.3760 -1.3984 -2.0014 0.9835
3.5960 -0.6488 -2.0014 0.9835
3.6518 -0.1304 -2.0014 0.9835
-0.9565 -0.0684 -0.5536 0.9956
-0.9430 -0.1701 -0.5532 0.9956
-0.9259 -0.2363 -0.5517 0.9956
-0.9011 -0.3361 -0.5553 0.9956
-0.8940 -0.3703 -0.5587 0.9955
-0.8823 -0.4029 -0.5600 0.9955
-0.8687 -0.4349 -0.5609 0.9955
-0.8534 -0.4660 -0.5614 0.9955
-0.8178 -0.5256 -0.5613 0.9955
-0.7845 -0.5873 -0.5658 0.9955
-2.6209 -2.2711 -2.0023 0.9841
-2.5382 -2.3632 -2.0023 0.9841
-2.3631 -2.5382 -2.0022 0.9841
-2.2710 -2.6209 -2.0022 0.9841
-1.9778 -2.8486 -2.0022 0.9841
-1.8748 -2.9173 -2.0022 0.9841
-1.7695 -2.9824 -2.0021 0.9841
-1.6619 -3.0436 -2.0021 0.9841
-1.4405 -3.1544 -2.0021 0.9841
-1.3270 -3.2037 -2.0021 0.9841
-1.2118 -3.2490 -2.0021 0.9841
-1.0951 -3.2902 -2.0020 0.9841
-0.7371 -3.3883 -2.0020 0.9841
-0.3707 -3.4476 -2.0019 0.9841
0.0000 -3.4674 -2.0019 0.9841
0.1238 -3.4651 -2.0019 0.9841
0.2474 -3.4585 -2.0019 0.9841
0.3706 -3.4474 -2.0018 0.9841
0.7370 -3.3880 -2.0018 0.9841
1.0949 -3.2897 -2.0017 0.9841
1.3268 -3.2031 -2.0017 0.9841
1.4402 -3.1537 -2.0017 0.9841
1.6615 -3.0429 -2.0016 0.9841
1.7691 -2.9816 -2.0016 0.9841
1.8744 -2.9165 -2.0016 0.9841
2.1753 -2.6994 -2.0016 0.9841
2.3623 -2.5373 -2.0015 0.9841
2.4514 -2.4514 -2.0015 0.9841
2.5373 -2.3623 -2.0015 0.9841
2.6200 -2.2702 -2.0015 0.9841
2.6993 -2.1752 -2.0015 0.9841
2.7752 -2.0775 -2.0015 0.9841
2.8476 -1.9771 -2.0015 0.9841
2.9814 -1.7689 -2.0015 0.9841
3.0999 -1.5517 -2.0014 0.9841
1.8620 -0.7713 -1.1636 0.9907
1.8682 -0.6968 -1.1512 0.9908
1.9033 -0.6335 -1.1581 0.9908
1.9352 -0.5682 -1.1644 0.9907
2.0301 -0.2919 -1.1841 0.9906
