ply
format ascii 1.0
element vertex 746
property float32 x
property float32 y
property float32 z
property float32 I
end_header
5.9073 6.3449 1.3281 0.9655
5.9004 6.3375 1.1276 0.9657
5.8936 6.3302 0.9287 0.9658
5.6426 6.5119 0.9252 0.9659
5.6403 6.5092 0.7291 0.9660
5.6380 6.5066 0.5339 0.9661
5.8734 6.3085 0.3399 0.9661
5.6357 6.5039 0.3393 0.9661
5.6311 6.4986 -0.0484 0.9662
5.8534 6.2870 -0.2419 0.9662
5.6288 6.4960 -0.2420 0.9662
6.3561 6.3561 -0.4559 0.9646
5.8468 6.2799 -0.4351 0.9662
5.6266 6.4934 -0.4357 0.9662
6.3292 6.3292 -0.6563 0.9647
5.8402 6.2728 -0.6284 0.9662
5.6243 6.4908 -0.6297 0.9661
6.3024 6.3024 -0.8557 0.9648
5.6220 6.4881 -0.8242 0.9661
-7.1456 4.9613 -0.8352 0.9656
-7.8965 5.0748 -0.9012 0.9630
5.8269 6.2585 -1.0158 0.9661
5.6197 6.4855 -1.0194 0.9660
-0.7059 9.8703 -1.1754 0.9609
-6.6885 5.0069 -0.9924 0.9669
-7.1473 4.9625 -1.0336 0.9656
-8.2400 4.8890 -1.1381 0.9621
7.0973 5.7194 -1.2915 0.9638
6.2492 6.2492 -1.2522 0.9649
5.6174 6.4828 -1.2154 0.9659
4.9684 7.7311 -1.3021 0.9636
-7.8465 5.0426 -1.3216 0.9630
6.6969 5.3967 -1.4169 0.9657
6.2596 5.4240 -1.3645 0.9670
5.6151 6.4801 -1.4125 0.9658
4.8946 6.0739 -1.2851 0.9689
-7.1597 4.9711 -1.4359 0.9653
-7.8464 5.0426 -1.5365 0.9629
-8.1775 4.8520 -1.5664 0.9622
6.2596 5.4240 -1.5568 0.9669
5.1163 5.4953 -1.4113 0.9699
4.8594 5.6081 -1.3948 0.9702
3.9386 4.8875 -1.1798 0.9748
3.7991 5.0750 -1.1916 0.9745
4.8917 7.6117 -1.7007 0.9638
-7.8464 5.0426 -1.7531 0.9628
-8.1775 4.8520 -1.7872 0.9620
9.4629 0.0000 -2.0003 0.9621
9.4388 0.6751 -2.0003 0.9621
9.2468 2.0115 -2.0003 0.9621
9.1692 2.3403 -2.0003 0.9620
8.9790 2.9885 -2.0004 0.9620
8.8667 3.3071 -2.0004 0.9620
7.7353 4.2238 -1.8630 0.9646
7.5204 4.4621 -1.8484 0.9649
7.3564 4.7277 -1.8484 0.9649
7.1831 4.9874 -1.8485 0.9649
6.1625 5.3399 -1.7236 0.9672
5.8530 5.4494 -1.6904 0.9678
5.1163 5.4953 -1.5871 0.9698
4.8595 5.6082 -1.5686 0.9701
3.9266 4.8727 -1.3228 0.9747
3.7905 5.0635 -1.3370 0.9745
4.8360 6.9652 -1.7924 0.9659
4.7289 7.3583 -1.8489 0.9649
4.4633 7.5226 -1.8489 0.9649
4.1921 7.6773 -1.8490 0.9649
3.6339 7.9572 -1.8491 0.9649
2.4648 8.3943 -1.8493 0.9649
2.1637 8.4772 -1.8493 0.9649
-0.3123 8.7454 -1.8498 0.9649
-0.6243 8.7289 -1.8498 0.9649
-0.9355 8.7013 -1.8499 0.9649
-2.1645 8.4806 -1.8501 0.9648
-2.7642 8.3050 -1.8502 0.9648
-3.6364 7.9626 -1.8503 0.9648
-3.9184 7.8280 -1.8504 0.9648
-4.4671 7.5288 -1.8505 0.9648
-4.9930 7.1914 -1.8506 0.9648
-5.2467 7.0087 -1.8506 0.9648
-5.4936 6.8171 -1.8507 0.9648
-5.7335 6.6169 -1.8507 0.9648
-5.9662 6.4082 -1.8507 0.9648
-6.1912 6.1912 -1.8508 0.9648
-6.4084 5.9664 -1.8508 0.9648
-7.1928 4.9941 -1.8510 0.9648
-8.8804 3.3122 -2.0034 0.9620
-9.1838 2.3440 -2.0035 0.9620
-9.2617 2.0148 -2.0035 0.9620
-9.3819 1.3489 -2.0035 0.9620
-9.4241 1.0132 -2.0035 0.9620
8.4900 0.6072 -2.0004 0.9656
8.4629 0.9099 -2.0004 0.9656
8.2475 2.1050 -2.0005 0.9656
8.1671 2.3981 -2.0005 0.9656
8.0764 2.6881 -2.0005 0.9656
7.8642 3.2575 -2.0006 0.9656
7.6082 3.8084 -1.9996 0.9656
6.4610 4.4859 -1.8486 0.9682
5.9447 5.1511 -1.8487 0.9682
5.7572 5.3601 -1.8487 0.9682
3.7826 5.0529 -1.4834 0.9744
4.2533 6.6183 -1.8490 0.9682
4.0145 6.7661 -1.8490 0.9682
3.7705 6.9052 -1.8491 0.9682
3.5217 7.0356 -1.8491 0.9682
3.2685 7.1570 -1.8492 0.9682
3.0110 7.2692 -1.8492 0.9682
2.7497 7.3722 -1.8492 0.9682
2.4849 7.4659 -1.8493 0.9682
2.2169 7.5500 -1.8493 0.9682
1.9460 7.6245 -1.8494 0.9682
1.6727 7.6893 -1.8494 0.9682
1.1200 7.7895 -1.8495 0.9682
0.0000 7.8704 -1.8497 0.9682
-1.3976 7.7463 -1.8500 0.9682
-2.2178 7.5531 -1.8501 0.9682
-2.7511 7.3760 -1.8502 0.9682
-3.0127 7.2733 -1.8502 0.9682
-4.4905 6.4676 -1.8505 0.9682
-4.9407 6.1310 -1.8506 0.9682
-5.5681 5.5681 -1.8507 0.9682
-5.7634 5.3659 -1.8507 0.9682
-6.1317 4.9412 -1.8508 0.9682
-6.4688 4.4914 -1.8508 0.9682
-7.4604 4.0737 -1.9977 0.9657
-7.7534 3.5409 -2.0033 0.9656
-8.1787 2.4015 -2.0033 0.9656
-8.3887 1.5135 -2.0034 0.9656
-8.4374 1.2131 -2.0034 0.9656
-8.5025 0.6081 -2.0034 0.9656
-8.5188 0.3043 -2.0034 0.9656
7.3315 2.4402 -2.0006 0.9686
6.9099 3.4588 -2.0007 0.9686
6.0700 4.2145 -1.9133 0.9699
5.5597 4.4803 -1.8488 0.9709
5.3964 4.6760 -1.8488 0.9709
5.2261 4.8657 -1.8488 0.9709
3.9034 4.8438 -1.6107 0.9746
4.0728 5.8660 -1.8490 0.9709
3.4227 6.2682 -1.8491 0.9709
2.9669 6.4966 -1.8492 0.9709
2.7332 6.5985 -1.8492 0.9709
1.5184 6.9798 -1.8495 0.9709
0.7636 7.1026 -1.8496 0.9709
0.2550 7.1393 -1.8497 0.9709
-0.0000 7.1440 -1.8497 0.9709
-0.2550 7.1397 -1.8498 0.9709
-0.5097 7.1262 -1.8498 0.9709
-1.0168 7.0720 -1.8499 0.9709
-1.7671 6.9233 -1.8500 0.9709
-2.4972 6.6952 -1.8501 0.9709
-2.7346 6.6019 -1.8502 0.9709
-2.9686 6.5002 -1.8502 0.9709
-3.1987 6.3903 -1.8503 0.9709
-3.6466 6.1461 -1.8503 0.9709
-4.2830 5.7214 -1.8505 0.9709
-4.4845 5.5650 -1.8505 0.9709
-4.6804 5.4015 -1.8505 0.9709
-5.2312 4.8705 -1.8506 0.9709
-6.6425 3.9412 -1.9998 0.9686
-6.7901 3.7076 -2.0031 0.9685
-7.0374 3.2139 -2.0031 0.9685
-7.1477 2.9607 -2.0031 0.9685
-7.5601 1.6446 -2.0032 0.9685
-7.6582 1.1011 -2.0032 0.9685
-7.7321 0.2762 -2.0032 0.9685
7.0672 0.0000 -2.0007 0.9710
7.0627 0.2523 -2.0007 0.9710
7.0492 0.5042 -2.0007 0.9710
6.9953 1.0058 -2.0007 0.9710
6.9550 1.2548 -2.0007 0.9710
6.9058 1.5023 -2.0007 0.9710
6.8478 1.7478 -2.0007 0.9710
6.7058 2.2319 -2.0007 0.9710
6.6219 2.4698 -2.0008 0.9710
6.4289 2.9360 -2.0008 0.9710
6.2032 3.3872 -2.0008 0.9710
5.7925 4.0218 -1.9963 0.9711
5.6123 4.2013 -1.9847 0.9713
5.2324 4.2166 -1.9024 0.9725
4.9357 4.2769 -1.8489 0.9732
4.6182 4.6182 -1.8489 0.9732
4.2771 4.9361 -1.8490 0.9732
3.7521 5.0122 -1.7724 0.9743
3.7252 5.3653 -1.8491 0.9732
3.3330 5.6176 -1.8491 0.9732
2.7136 5.9420 -1.8492 0.9732
2.0630 6.1984 -1.8494 0.9732
1.6156 6.3300 -1.8494 0.9732
0.9298 6.4669 -1.8496 0.9732
0.6984 6.4961 -1.8496 0.9732
0.2332 6.5296 -1.8497 0.9732
-0.2332 6.5299 -1.8498 0.9732
-1.1603 6.4308 -1.8499 0.9732
-1.3891 6.3855 -1.8500 0.9732
-1.6161 6.3319 -1.8500 0.9732
-1.8411 6.2704 -1.8500 0.9732
-2.2839 6.1233 -1.8501 0.9732
-2.7150 5.9450 -1.8502 0.9732
-3.3351 5.6210 -1.8503 0.9732
-3.5337 5.4985 -1.8503 0.9732
-3.9171 5.2326 -1.8504 0.9732
-4.2805 4.9400 -1.8505 0.9732
-4.6222 4.6222 -1.8505 0.9732
-4.7843 4.4543 -1.8505 0.9732
-4.9403 4.2808 -1.8506 0.9732
-5.6126 4.2015 -1.9848 0.9713
-5.7981 4.0257 -1.9982 0.9711
-5.9484 3.8228 -2.0017 0.9710
-6.2099 3.3909 -2.0030 0.9710
-6.5370 2.7077 -2.0030 0.9710
-6.7891 1.9935 -2.0031 0.9710
-6.8560 1.7499 -2.0031 0.9710
-6.9634 1.2563 -2.0031 0.9710
-7.0038 1.0070 -2.0031 0.9710
-7.0353 0.7564 -2.0031 0.9710
-7.0578 0.5048 -2.0031 0.9710
-7.0714 0.2526 -2.0031 0.9710
6.4677 0.6953 -2.0008 0.9731
6.4388 0.9258 -2.0008 0.9731
6.3564 1.3827 -2.0008 0.9731
6.3030 1.6088 -2.0008 0.9731
6.2416 1.8327 -2.0008 0.9731
6.1722 2.0543 -2.0008 0.9731
6.0950 2.2733 -2.0009 0.9731
5.9174 2.7024 -2.0009 0.9731
5.8172 2.9119 -2.0009 0.9731
5.5948 3.3196 -2.0009 0.9731
5.3438 3.7103 -2.0010 0.9731
5.0519 4.0711 -1.9956 0.9732
4.5287 4.2164 -1.9032 0.9744
4.0963 4.3998 -1.8490 0.9752
3.7721 4.6809 -1.8491 0.9752
3.0678 5.1705 -1.8492 0.9752
2.8813 5.2768 -1.8492 0.9752
2.6912 5.3764 -1.8492 0.9752
2.4976 5.4691 -1.8493 0.9752
2.3009 5.5548 -1.8493 0.9752
2.1012 5.6335 -1.8494 0.9752
1.6940 5.7693 -1.8494 0.9752
1.4870 5.8262 -1.8495 0.9752
1.2782 5.8757 -1.8495 0.9751
1.0677 5.9177 -1.8495 0.9751
0.6428 5.9790 -1.8496 0.9751
0.2146 6.0098 -1.8497 0.9751
0.0000 6.0138 -1.8497 0.9751
-0.2147 6.0101 -1.8498 0.9751
-0.6429 5.9797 -1.8498 0.9751
-1.0679 5.9188 -1.8499 0.9751
-1.8995 5.7071 -1.8500 0.9751
-2.1020 5.6357 -1.8501 0.9751
-2.8829 5.2796 -1.8502 0.9751
-3.0695 5.1734 -1.8502 0.9751
-3.2523 5.0607 -1.8503 0.9751
-3.7748 4.6843 -1.8504 0.9751
-3.9396 4.5466 -1.8504 0.9751
-4.5289 4.2166 -1.9033 0.9744
-4.8510 4.2034 -1.9743 0.9735
-5.0562 4.0745 -1.9973 0.9732
-5.2063 3.8974 -2.0003 0.9732
-5.3488 3.7137 -2.0028 0.9731
-5.4780 3.5205 -2.0029 0.9731
-5.8231 2.9148 -2.0029 0.9731
-6.0163 2.4920 -2.0030 0.9731
-6.1015 2.2757 -2.0030 0.9731
-6.2484 1.8347 -2.0030 0.9731
-6.3099 1.6105 -2.0030 0.9731
-6.3634 1.3843 -2.0030 0.9731
-6.4088 1.1563 -2.0030 0.9731
-6.4750 0.6961 -2.0030 0.9731
-6.4957 0.4646 -2.0030 0.9731
6.0193 0.0000 -2.0009 0.9749
5.9849 0.6435 -2.0009 0.9749
5.9238 1.0688 -2.0009 0.9749
5.8325 1.4887 -2.0009 0.9749
5.7115 1.9010 -2.0009 0.9749
5.6400 2.1036 -2.0009 0.9749
5.4757 2.5006 -2.0010 0.9749
5.3830 2.6945 -2.0010 0.9749
5.2834 2.8850 -2.0010 0.9749
5.1771 3.0717 -2.0010 0.9749
5.0642 3.2546 -2.0010 0.9749
4.9449 3.4333 -2.0011 0.9749
3.6608 4.2248 -1.8582 0.9767
3.3337 4.4533 -1.8491 0.9768
2.6662 4.8827 -1.8493 0.9768
2.4902 4.9749 -1.8493 0.9768
1.9443 5.2128 -1.8494 0.9768
0.5948 5.5324 -1.8496 0.9768
0.1986 5.5610 -1.8497 0.9768
-0.0000 5.5646 -1.8497 0.9768
-0.1986 5.5612 -1.8497 0.9768
-0.5949 5.5331 -1.8498 0.9768
-0.7920 5.5084 -1.8499 0.9768
-0.9881 5.4767 -1.8499 0.9768
-1.3764 5.3925 -1.8500 0.9768
-1.5680 5.3400 -1.8500 0.9768
-1.7576 5.2807 -1.8500 0.9768
-2.1299 5.1421 -1.8501 0.9768
-2.3121 5.0629 -1.8501 0.9768
-2.4914 4.9772 -1.8501 0.9768
-2.8402 4.7869 -1.8502 0.9768
-3.0093 4.6826 -1.8502 0.9768
-3.6609 4.2249 -1.8583 0.9767
-4.2031 4.2031 -1.9759 0.9753
-4.3967 4.0935 -1.9969 0.9750
-5.0687 3.2575 -2.0028 0.9749
-5.1818 3.0745 -2.0028 0.9749
-5.2882 2.8876 -2.0028 0.9749
-5.3880 2.6970 -2.0028 0.9749
-5.4809 2.5030 -2.0029 0.9749
-5.7814 1.6976 -2.0029 0.9749
-5.8384 1.4902 -2.0029 0.9749
-5.8879 1.2808 -2.0029 0.9749
-5.9298 1.0699 -2.0029 0.9749
-5.9643 0.8575 -2.0029 0.9749
-5.9911 0.6441 -2.0029 0.9749
-6.0103 0.4299 -2.0029 0.9749
-6.0218 0.2151 -2.0030 0.9749
5.5918 0.1997 -2.0009 0.9765
5.5384 0.7963 -2.0010 0.9765
5.4675 1.1894 -2.0010 0.9765
5.3688 1.5764 -2.0010 0.9765
5.3091 1.7671 -2.0010 0.9765
5.2427 1.9554 -2.0010 0.9765
5.1696 2.1413 -2.0010 0.9765
5.0038 2.5047 -2.0010 0.9765
4.8124 2.8553 -2.0011 0.9765
4.4798 3.3535 -2.0011 0.9765
4.3573 3.5113 -2.0012 0.9765
4.2292 3.6646 -2.0012 0.9765
3.9504 3.9504 -1.9978 0.9765
3.8026 4.0843 -1.9956 0.9766
3.6400 4.2008 -1.9877 0.9767
1.9791 4.7779 -1.8494 0.9783
1.2790 5.0112 -1.8495 0.9783
1.0994 5.0537 -1.8495 0.9783
0.7361 5.1195 -1.8496 0.9783
0.3690 5.1591 -1.8496 0.9783
0.1846 5.1691 -1.8497 0.9783
0.0000 5.1725 -1.8497 0.9783
-0.1846 5.1693 -1.8497 0.9783
-0.3690 5.1595 -1.8498 0.9783
-0.7362 5.1202 -1.8498 0.9783
-1.0996 5.0548 -1.8499 0.9783
-1.2793 5.0124 -1.8499 0.9783
-1.4575 4.9636 -1.8500 0.9783
-1.9798 4.7796 -1.8501 0.9783
-2.1492 4.7060 -1.8501 0.9783
-2.3158 4.6264 -1.8501 0.9783
-2.4795 4.5408 -1.8501 0.9783
-2.6400 4.4495 -1.8502 0.9783
-2.9508 4.2500 -1.8502 0.9783
-3.6401 4.2009 -1.9878 0.9767
-4.0964 3.8139 -2.0015 0.9765
-4.3605 3.5139 -2.0027 0.9765
-4.6002 3.1940 -2.0027 0.9765
-4.7113 3.0278 -2.0027 0.9765
-5.0944 2.3265 -2.0028 0.9765
-5.2475 1.9572 -2.0028 0.9765
-5.3140 1.7687 -2.0028 0.9765
-5.3738 1.5779 -2.0028 0.9765
-5.4267 1.3851 -2.0028 0.9765
-5.4727 1.1905 -2.0029 0.9765
-5.5437 0.7971 -2.0029 0.9765
-5.5687 0.5987 -2.0029 0.9765
-5.5865 0.3996 -2.0029 0.9765
5.2216 0.0000 -2.0010 0.9779
5.2083 0.3725 -2.0010 0.9779
5.1917 0.5582 -2.0010 0.9779
5.1386 0.9271 -2.0010 0.9779
5.1023 1.1099 -2.0010 0.9779
5.0102 1.4711 -2.0010 0.9779
4.6695 2.3374 -2.0011 0.9779
4.4909 2.6646 -2.0011 0.9779
4.1805 3.1295 -2.0012 0.9779
4.0661 3.2767 -2.0012 0.9779
3.9466 3.4198 -2.0012 0.9779
3.5565 3.8200 -2.0001 0.9779
3.4144 3.9405 -1.9981 0.9779
3.2684 4.0559 -1.9962 0.9779
3.1187 4.1661 -1.9943 0.9780
2.5042 4.2206 -1.8807 0.9792
2.1601 4.3154 -1.8493 0.9795
2.0047 4.3898 -1.8494 0.9795
1.8468 4.4586 -1.8494 0.9795
1.6865 4.5218 -1.8494 0.9795
1.3597 4.6307 -1.8495 0.9795
1.1936 4.6763 -1.8495 0.9795
0.6869 4.7774 -1.8496 0.9795
0.1723 4.8236 -1.8497 0.9795
-0.1723 4.8238 -1.8497 0.9795
-0.5160 4.7994 -1.8498 0.9795
-0.6870 4.7780 -1.8498 0.9795
-1.3600 4.6319 -1.8499 0.9795
-1.5245 4.5804 -1.8500 0.9795
-2.0055 4.3914 -1.8501 0.9795
-2.5043 4.2207 -1.8807 0.9792
-3.1204 4.1683 -1.9954 0.9779
-3.2702 4.0581 -1.9973 0.9779
-3.6951 3.6951 -2.0026 0.9779
-4.0690 3.2790 -2.0026 0.9779
-4.2927 2.9804 -2.0027 0.9779
-4.6733 2.3393 -2.0027 0.9779
-4.7538 2.1710 -2.0027 0.9779
-5.1731 0.7438 -2.0028 0.9779
-5.1964 0.5587 -2.0028 0.9779
4.8862 0.1745 -2.0011 0.9791
4.8613 0.5227 -2.0011 0.9791
4.8395 0.6958 -2.0011 0.9791
4.7776 1.0393 -2.0011 0.9791
4.7375 1.2092 -2.0011 0.9791
4.6392 1.5441 -2.0011 0.9791
4.3723 2.1886 -2.0012 0.9791
4.2914 2.3433 -2.0012 0.9791
4.2051 2.4950 -2.0012 0.9791
3.9144 2.9303 -2.0012 0.9791
3.8074 3.0682 -2.0013 0.9791
3.4577 3.4577 -2.0013 0.9791
3.3321 3.5789 -2.0013 0.9791
3.2023 3.6956 -2.0014 0.9791
3.0669 3.8058 -2.0004 0.9791
2.6360 4.1017 -1.9955 0.9791
2.2965 4.2057 -1.9612 0.9795
1.7490 4.2225 -1.8706 0.9804
1.4271 4.2877 -1.8495 0.9807
1.2731 4.3359 -1.8495 0.9807
0.9606 4.4158 -1.8495 0.9807
0.6431 4.4732 -1.8496 0.9807
0.4831 4.4934 -1.8496 0.9807
-0.1613 4.5167 -1.8497 0.9807
-0.3224 4.5081 -1.8498 0.9807
-0.4831 4.4938 -1.8498 0.9807
-0.9608 4.4166 -1.8499 0.9807
-2.1084 4.2120 -1.9278 0.9798
-2.2965 4.2058 -1.9612 0.9795
-2.4871 4.1918 -1.9949 0.9792
-2.6372 4.1035 -1.9964 0.9791
-2.7842 4.0100 -1.9980 0.9791
-3.0685 3.8078 -2.0015 0.9791
-3.3340 3.5810 -2.0025 0.9791
-3.4598 3.4598 -2.0025 0.9791
-3.6978 3.2042 -2.0026 0.9791
-4.3756 2.1903 -2.0027 0.9791
-4.4511 2.0327 -2.0027 0.9791
-4.5208 1.8726 -2.0027 0.9791
-4.5848 1.7100 -2.0027 0.9791
-4.7414 1.2102 -2.0027 0.9791
-1.9569 0.2104 -0.8055 0.9915
-1.9308 0.0690 -0.7907 0.9917
4.5916 0.0000 -2.0011 0.9802
4.5887 0.1639 -2.0011 0.9802
4.5653 0.4908 -2.0011 0.9802
4.5187 0.8153 -2.0011 0.9802
4.4867 0.9760 -2.0011 0.9802
4.4491 1.1356 -2.0011 0.9802
4.4057 1.2936 -2.0011 0.9802
4.3022 1.6047 -2.0012 0.9802
4.1769 1.9075 -2.0012 0.9802
4.0302 2.2007 -2.0012 0.9802
3.9491 2.3431 -2.0012 0.9802
3.8630 2.4826 -2.0012 0.9802
3.3609 3.1292 -2.0013 0.9802
3.0073 3.4706 -2.0014 0.9802
2.7521 3.6764 -2.0014 0.9802
2.6187 3.7716 -2.0011 0.9802
2.4806 3.8599 -1.9996 0.9802
2.1959 4.0216 -1.9969 0.9802
2.0497 4.0949 -1.9957 0.9802
1.9012 4.1631 -1.9946 0.9802
1.7405 4.2019 -1.9821 0.9804
1.5690 4.2066 -1.9567 0.9806
1.4015 4.2108 -1.9341 0.9808
1.0765 4.2176 -1.8970 0.9812
0.4546 4.2287 -1.8536 0.9816
-0.1515 4.2416 -1.8497 0.9817
-0.3028 4.2336 -1.8498 0.9817
-0.7619 4.2227 -1.8700 0.9815
-1.0765 4.2177 -1.8971 0.9812
-1.2375 4.2145 -1.9143 0.9810
-1.5690 4.2066 -1.9567 0.9806
-1.7405 4.2019 -1.9821 0.9804
-1.9018 4.1644 -1.9952 0.9802
-2.3405 3.9447 -1.9990 0.9802
-2.6198 3.7733 -2.0020 0.9802
-2.7534 3.6781 -2.0024 0.9802
-2.8830 3.5776 -2.0024 0.9802
-3.1309 3.3628 -2.0025 0.9802
-3.4726 3.0090 -2.0025 0.9802
-3.5778 2.8832 -2.0025 0.9802
-3.8656 2.4843 -2.0026 0.9801
-3.9518 2.3447 -2.0026 0.9801
-4.1799 1.9089 -2.0026 0.9801
-1.5984 0.5962 -0.7435 0.9926
-1.5214 0.3310 -0.6786 0.9932
-1.5151 0.2179 -0.6671 0.9933
-1.5249 0.1640 -0.6684 0.9933
4.3232 0.0000 -2.0012 0.9811
4.3205 0.1543 -2.0012 0.9811
4.2792 0.6153 -2.0012 0.9811
4.2546 0.7676 -2.0012 0.9811
4.1890 1.0692 -2.0012 0.9811
4.1021 1.3653 -2.0012 0.9811
3.9943 1.6545 -2.0012 0.9811
3.9327 1.7960 -2.0012 0.9811
3.7182 2.2061 -2.0013 0.9811
3.6372 2.3375 -2.0013 0.9811
3.5514 2.4658 -2.0013 0.9811
3.4612 2.5910 -2.0013 0.9811
3.3665 2.7129 -2.0013 0.9811
3.2676 2.8314 -2.0013 0.9811
2.9463 3.1645 -2.0014 0.9811
2.8315 3.2677 -2.0014 0.9811
2.7131 3.3667 -2.0014 0.9811
2.5912 3.4615 -2.0015 0.9811
2.3377 3.6376 -2.0015 0.9811
2.2064 3.7187 -2.0015 0.9811
1.9337 3.8631 -1.9997 0.9811
1.7936 3.9275 -1.9986 0.9811
1.6515 3.9871 -1.9976 0.9812
1.2143 4.1357 -1.9952 0.9812
0.7583 4.2029 -1.9768 0.9814
0.6046 4.2048 -1.9663 0.9814
0.4522 4.2063 -1.9582 0.9815
-0.0000 4.2082 -1.9479 0.9816
-0.1503 4.2080 -1.9491 0.9816
-0.4522 4.2063 -1.9583 0.9815
-0.6046 4.2048 -1.9664 0.9814
-0.7583 4.2029 -1.9769 0.9814
-1.2146 4.1365 -1.9956 0.9812
-1.7942 3.9287 -1.9992 0.9811
-2.0723 3.7951 -2.0015 0.9811
-2.4671 3.5533 -2.0023 0.9811
-2.5924 3.4630 -2.0024 0.9811
-2.8329 3.2693 -2.0024 0.9811
-3.0589 3.0589 -2.0024 0.9811
-3.1662 2.9478 -2.0025 0.9811
-3.3685 2.7145 -2.0025 0.9811
-3.5536 2.4673 -2.0025 0.9811
-3.6394 2.3389 -2.0025 0.9811
-3.7971 2.0734 -2.0026 0.9811
-3.8687 1.9365 -2.0026 0.9811
-1.3263 0.5494 -0.6645 0.9937
-1.3324 0.4435 -0.6500 0.9938
-1.3116 0.3348 -0.6266 0.9941
-1.3013 0.2831 -0.6164 0.9941
-1.3160 0.2374 -0.6190 0.9941
-1.3351 0.1435 -0.6215 0.9941
-1.3384 0.0957 -0.6211 0.9941
4.0797 0.0000 -2.0012 0.9820
4.0771 0.1456 -2.0012 0.9820
4.0149 0.7244 -2.0012 0.9820
3.9865 0.8672 -2.0012 0.9820
3.9145 1.1494 -2.0012 0.9820
3.8710 1.2884 -2.0012 0.9820
3.8226 1.4258 -2.0012 0.9820
3.7693 1.5613 -2.0013 0.9820
3.6483 1.8262 -2.0013 0.9820
3.5808 1.9553 -2.0013 0.9820
3.5088 2.0819 -2.0013 0.9820
3.4323 2.2058 -2.0013 0.9820
3.3514 2.3269 -2.0013 0.9820
3.2662 2.4451 -2.0013 0.9820
3.1769 2.5601 -2.0014 0.9820
3.0835 2.6719 -2.0014 0.9820
2.9862 2.7803 -2.0014 0.9820
2.7803 2.9863 -2.0014 0.9820
2.6720 3.0836 -2.0014 0.9820
2.4452 3.2665 -2.0015 0.9820
2.3271 3.3517 -2.0015 0.9820
2.2060 3.4327 -2.0015 0.9820
2.0821 3.5092 -2.0016 0.9820
1.6951 3.7118 -2.0016 0.9820
1.5613 3.7694 -2.0013 0.9820
0.7230 4.0073 -1.9974 0.9820
0.2904 4.0600 -1.9966 0.9820
-0.0000 4.0701 -1.9965 0.9820
-0.1453 4.0677 -1.9966 0.9820
-0.4352 4.0477 -1.9969 0.9820
-1.0077 3.9481 -1.9987 0.9820
-1.5617 3.7704 -2.0018 0.9820
-1.8271 3.6501 -2.0022 0.9820
-1.9562 3.5826 -2.0023 0.9820
-2.0829 3.5105 -2.0023 0.9820
-2.4463 3.2678 -2.0023 0.9820
-2.8865 2.8866 -2.0024 0.9820
-2.9878 2.7817 -2.0024 0.9820
-3.0852 2.6733 -2.0024 0.9820
-3.1787 2.5615 -2.0025 0.9820
-3.3533 2.3283 -2.0025 0.9820
-3.5109 2.0831 -2.0025 0.9820
-1.1590 0.3403 -0.5925 0.9946
-1.1695 0.2544 -0.5871 0.9947
-1.1921 0.1282 -0.5881 0.9947
3.8478 0.2752 -2.0012 0.9828
3.8183 0.5490 -2.0012 0.9828
3.7963 0.6849 -2.0013 0.9828
3.7695 0.8200 -2.0013 0.9828
3.7378 0.9540 -2.0013 0.9828
3.7014 1.0868 -2.0013 0.9828
3.6145 1.3481 -2.0013 0.9828
3.2454 2.0857 -2.0013 0.9828
3.1689 2.2002 -2.0014 0.9828
3.0884 2.3119 -2.0014 0.9828
2.9156 2.5264 -2.0014 0.9828
2.7280 2.7280 -2.0014 0.9828
2.4208 3.0041 -2.0015 0.9828
2.3121 3.0886 -2.0015 0.9828
2.2004 3.1692 -2.0015 0.9828
1.8491 3.3863 -2.0016 0.9828
1.4765 3.5647 -2.0017 0.9828
1.2185 3.6610 -2.0017 0.9828
0.9543 3.7387 -2.0017 0.9828
0.8201 3.7698 -2.0014 0.9828
0.6848 3.7959 -2.0010 0.9828
0.4122 3.8339 -2.0004 0.9828
0.2751 3.8459 -2.0002 0.9828
-0.1376 3.8531 -2.0002 0.9828
-0.2751 3.8460 -2.0003 0.9828
-0.4122 3.8342 -2.0006 0.9828
-0.5489 3.8176 -2.0009 0.9828
-0.6849 3.7963 -2.0012 0.9828
-0.8202 3.7703 -2.0017 0.9828
-0.9544 3.7393 -2.0021 0.9828
-1.4769 3.5656 -2.0022 0.9828
-1.6033 3.5107 -2.0022 0.9828
-1.8497 3.3874 -2.0022 0.9828
-1.9694 3.3193 -2.0023 0.9828
-2.0867 3.2469 -2.0023 0.9828
-2.2012 3.1704 -2.0023 0.9828
-2.5276 2.9170 -2.0023 0.9828
-2.8250 2.6302 -2.0024 0.9828
-3.0055 2.4220 -2.0024 0.9828
-3.0900 2.3132 -2.0024 0.9828
-3.1706 2.2014 -2.0025 0.9828
-0.9917 0.5884 -0.5982 0.9948
-1.0118 0.5525 -0.5981 0.9948
-1.0514 0.4355 -0.5904 0.9949
-1.0814 0.2353 -0.5741 0.9950
-1.1024 0.1185 -0.5752 0.9950
-1.1055 0.0791 -0.5750 0.9950
-1.1066 0.0395 -0.5744 0.9950
3.6539 -0.0000 -2.0013 0.9835
3.6516 0.1304 -2.0013 0.9835
3.6446 0.2607 -2.0013 0.9835
3.5959 0.6488 -2.0013 0.9835
3.5060 1.0295 -2.0013 0.9835
3.4670 1.1539 -2.0013 0.9835
3.4236 1.2770 -2.0013 0.9835
3.3759 1.3984 -2.0013 0.9835
3.2676 1.6356 -2.0013 0.9835
3.0016 2.0841 -2.0014 0.9835
2.9253 2.1899 -2.0014 0.9835
2.8453 2.2929 -2.0014 0.9835
2.7617 2.3930 -2.0014 0.9835
2.5840 2.5840 -2.0015 0.9835
2.2930 2.8455 -2.0015 0.9835
1.7514 3.2075 -2.0016 0.9835
1.2772 3.4243 -2.0017 0.9835
1.1542 3.4677 -2.0017 0.9835
1.0297 3.5067 -2.0017 0.9835
0.7769 3.5713 -2.0018 0.9835
0.6489 3.5968 -2.0018 0.9835
0.5202 3.6177 -2.0018 0.9835
0.3907 3.6340 -2.0018 0.9835
0.1305 3.6527 -2.0019 0.9835
-0.0000 3.6551 -2.0019 0.9835
-0.1305 3.6528 -2.0019 0.9835
-0.2608 3.6459 -2.0020 0.9835
-0.3907 3.6343 -2.0020 0.9835
-0.5202 3.6181 -2.0020 0.9835
-0.6490 3.5972 -2.0020 0.9835
-0.7770 3.5718 -2.0020 0.9835
-0.9040 3.5419 -2.0021 0.9835
-1.0299 3.5074 -2.0021 0.9835
-1.2775 3.4250 -2.0021 0.9835
-1.3989 3.3773 -2.0022 0.9835
-1.5186 3.3252 -2.0022 0.9835
-1.6363 3.2690 -2.0022 0.9835
-1.7520 3.2085 -2.0022 0.9835
-1.9764 3.0754 -2.0023 0.9835
-2.0850 3.0029 -2.0023 0.9835
-2.1908 2.9266 -2.0023 0.9835
-2.2939 2.8466 -2.0023 0.9835
-2.3941 2.7629 -2.0023 0.9835
-2.5851 2.5851 -2.0024 0.9835
-2.6758 2.4912 -2.0024 0.9835
-2.7630 2.3942 -2.0024 0.9835
-2.9268 2.1910 -2.0024 0.9835
-0.8661 0.6014 -0.5775 0.9952
-0.9269 0.5061 -0.5784 0.9952
-0.9434 0.4722 -0.5778 0.9952
-0.9820 0.2884 -0.5606 0.9953
-0.9938 0.2537 -0.5618 0.9953
-1.0039 0.2184 -0.5627 0.9953
-1.0124 0.1827 -0.5634 0.9953
-1.0236 0.1101 -0.5639 0.9953
-1.0276 0.0367 -0.5632 0.9953
2.0320 0.0726 -1.1739 0.9907
1.9351 0.5682 -1.1644 0.9907
1.9033 0.6335 -1.1581 0.9908
1.8682 0.6968 -1.1512 0.9908
1.8620 0.7713 -1.1636 0.9907
1.8507 0.8452 -1.1747 0.9906
3.0998 1.5517 -2.0014 0.9841
2.9813 1.7689 -2.0014 0.9841
2.9162 1.8742 -2.0014 0.9841
2.6992 2.1752 -2.0014 0.9841
2.6199 2.2702 -2.0015 0.9841
2.4513 2.4513 -2.0015 0.9841
2.0776 2.7753 -2.0016 0.9841
1.5519 3.1002 -2.0016 0.9841
1.4402 3.1537 -2.0017 0.9841
1.2116 3.2484 -2.0017 0.9841
1.0949 3.2897 -2.0017 0.9841
0.8574 3.3595 -2.0018 0.9841
0.7370 3.3880 -2.0018 0.9841
0.4934 3.4320 -2.0018 0.9841
0.3706 3.4475 -2.0018 0.9841
0.1238 3.4652 -2.0019 0.9841
-0.0000 3.4674 -2.0019 0.9841
-0.2474 3.4587 -2.0020 0.9841
-0.4935 3.4323 -2.0020 0.9841
-0.7371 3.3884 -2.0020 0.9841
-0.8576 3.3600 -2.0021 0.9841
-0.9770 3.3272 -2.0021 0.9841
-1.3271 3.2039 -2.0021 0.9841
-1.5523 3.1011 -2.0022 0.9841
-1.6620 3.0437 -2.0022 0.9841
-1.7696 2.9825 -2.0022 0.9841
-1.8749 2.9174 -2.0022 0.9841
-1.9779 2.8487 -2.0023 0.9841
-2.3632 2.5383 -2.0023 0.9841
-2.4524 2.4524 -2.0023 0.9841
-2.6211 2.2712 -2.0024 0.9841
-0.7846 0.5873 -0.5658 0.9955
-0.8008 0.5560 -0.5628 0.9955
-0.8178 0.5256 -0.5613 0.9955
-0.8364 0.4963 -0.5615 0.9955
-0.8534 0.4660 -0.5614 0.9955
-0.8687 0.4349 -0.5609 0.9955
-0.8823 0.4029 -0.5600 0.9955
-0.9011 0.3361 -0.5553 0.9956
-0.9492 0.1365 -0.5536 0.9956
-0.9575 0.0342 -0.5532 0.9956
