ply
format ascii 1.0
element vertex 749
property float32 x
property float32 y
property float32 z
property float32 I
end_header
-9.4640 0.0000 -2.0005 0.9620
-9.4399 -0.6752 -2.0005 0.9620
-9.3677 -1.3469 -2.0005 0.9620
-9.3137 -1.6804 -2.0005 0.9620
-9.2478 -2.0117 -2.0005 0.9620
-8.8676 -3.3075 -2.0006 0.9620
-8.7440 -3.6219 -2.0006 0.9620
-8.6092 -3.9317 -2.0006 0.9620
-8.3070 -4.5360 -2.0007 0.9620
-8.1399 -4.8296 -2.0007 0.9620
-7.9624 -5.1172 -2.0007 0.9620
-7.7748 -5.3981 -2.0007 0.9620
-7.3701 -5.9392 -2.0008 0.9620
-6.9278 -6.4500 -2.0008 0.9620
-6.4502 -6.9281 -2.0009 0.9620
-5.9398 -7.3708 -2.0010 0.9620
-5.3990 -7.7761 -2.0010 0.9620
-5.1181 -7.9640 -2.0011 0.9620
-4.8307 -8.1417 -2.0011 0.9620
-4.5371 -8.3091 -2.0012 0.9620
-4.2377 -8.4659 -2.0012 0.9620
-3.9330 -8.6120 -2.0012 0.9620
-2.6675 -9.0848 -2.0014 0.9620
-2.3416 -9.1744 -2.0015 0.9620
-1.3476 -9.3728 -2.0016 0.9620
-1.0122 -9.4152 -2.0016 0.9620
-0.6755 -9.4455 -2.0017 0.9620
1.3479 -9.3746 -2.0020 0.9620
1.6816 -9.3207 -2.0020 0.9620
2.0133 -9.2549 -2.0021 0.9620
2.3424 -9.1774 -2.0021 0.9620
2.6685 -9.0882 -2.0022 0.9620
2.9913 -8.9873 -2.0022 0.9620
3.3102 -8.8750 -2.0022 0.9620
3.6250 -8.7514 -2.0023 0.9620
3.9351 -8.6166 -2.0023 0.9620
4.5400 -8.3143 -2.0024 0.9620
5.6774 -7.5842 -2.0026 0.9620
6.2042 -7.1601 -2.0026 0.9620
6.4560 -6.9342 -2.0027 0.9620
6.9344 -6.4562 -2.0027 0.9620
7.1605 -6.2046 -2.0028 0.9620
8.1490 -4.8350 -2.0029 0.9620
8.6194 -3.9363 -2.0030 0.9620
8.7545 -3.6262 -2.0030 0.9620
8.8784 -3.3115 -2.0030 0.9620
8.9910 -2.9925 -2.0030 0.9620
9.0922 -2.6697 -2.0030 0.9620
9.1817 -2.3435 -2.0031 0.9620
9.2596 -2.0143 -2.0031 0.9620
9.3256 -1.6825 -2.0031 0.9620
9.4220 -1.0130 -2.0031 0.9620
9.4521 -0.6760 -2.0031 0.9620
9.4703 -0.3382 -2.0031 0.9620
-8.5125 -0.0000 -2.0006 0.9656
-8.4637 -0.9099 -2.0006 0.9656
-8.3773 -1.5114 -2.0006 0.9656
-8.3180 -1.8095 -2.0007 0.9656
-8.2482 -2.1052 -2.0007 0.9656
-8.0771 -2.6883 -2.0007 0.9656
-7.9760 -2.9749 -2.0007 0.9656
-7.8648 -3.2577 -2.0007 0.9656
-7.7436 -3.5364 -2.0007 0.9656
-7.6125 -3.8106 -2.0007 0.9656
-7.3214 -4.3440 -2.0008 0.9656
-7.1618 -4.6026 -2.0008 0.9656
-6.9930 -4.8554 -2.0008 0.9656
-6.8154 -5.1019 -2.0009 0.9656
-6.4342 -5.5753 -2.0009 0.9656
-6.0202 -6.0203 -2.0010 0.9656
-5.5756 -6.4346 -2.0010 0.9656
-5.3425 -6.6296 -2.0011 0.9656
-5.1025 -6.8162 -2.0011 0.9656
-4.6034 -7.1630 -2.0012 0.9656
-4.0808 -7.4735 -2.0012 0.9656
-3.2587 -7.8673 -2.0013 0.9656
-2.9759 -7.9788 -2.0014 0.9656
-2.3992 -8.1710 -2.0015 0.9656
-1.5121 -8.3812 -2.0016 0.9656
-0.3040 -8.5118 -2.0017 0.9656
0.0000 -8.5174 -2.0018 0.9656
1.8107 -8.3238 -2.0020 0.9656
2.6903 -8.0830 -2.0022 0.9656
3.8135 -7.6185 -2.0023 0.9656
4.3475 -7.3273 -2.0024 0.9656
4.8593 -6.9987 -2.0025 0.9656
6.0252 -6.0252 -2.0026 0.9656
6.2365 -5.8064 -2.0026 0.9656
6.6350 -5.3468 -2.0027 0.9656
6.9998 -4.8600 -2.0028 0.9656
7.1688 -4.6071 -2.0028 0.9656
7.8734 -3.2612 -2.0029 0.9656
7.9848 -2.9782 -2.0029 0.9656
8.1770 -2.4010 -2.0029 0.9656
8.3275 -1.8115 -2.0029 0.9656
8.4356 -1.2129 -2.0030 0.9656
8.5007 -0.6080 -2.0030 0.9656
8.5170 -0.3042 -2.0030 0.9656
-7.7273 0.0000 -2.0007 0.9686
-7.7076 -0.5513 -2.0007 0.9686
-7.6830 -0.8260 -2.0007 0.9686
-7.6487 -1.0997 -2.0007 0.9686
-7.6046 -1.3720 -2.0008 0.9686
-7.3320 -2.4403 -2.0008 0.9686
-7.2403 -2.7005 -2.0008 0.9686
-6.9103 -3.4591 -2.0008 0.9686
-6.7825 -3.7035 -2.0009 0.9686
-6.6461 -3.9433 -2.0009 0.9686
-6.5012 -4.1780 -2.0009 0.9686
-6.3479 -4.4075 -2.0009 0.9686
-6.1867 -4.6313 -2.0009 0.9686
-6.0175 -4.8492 -2.0010 0.9686
-5.8406 -5.0610 -2.0010 0.9686
-5.2664 -5.6565 -2.0011 0.9686
-3.2110 -7.0311 -2.0014 0.9686
-2.4411 -7.3345 -2.0015 0.9686
-1.6432 -7.5538 -2.0016 0.9686
-0.8264 -7.6866 -2.0017 0.9686
-0.5515 -7.7114 -2.0017 0.9686
-0.2759 -7.7263 -2.0018 0.9686
0.5516 -7.7120 -2.0019 0.9686
0.8265 -7.6875 -2.0019 0.9686
1.3729 -7.6092 -2.0020 0.9686
1.6436 -7.5555 -2.0020 0.9686
1.9123 -7.4922 -2.0021 0.9686
2.1785 -7.4193 -2.0021 0.9686
2.4420 -7.3370 -2.0021 0.9686
3.2124 -7.0343 -2.0022 0.9686
3.9462 -6.6509 -2.0023 0.9686
4.1811 -6.5059 -2.0024 0.9686
4.4107 -6.3526 -2.0024 0.9686
4.6347 -6.1913 -2.0024 0.9685
4.8528 -6.0220 -2.0025 0.9685
5.0647 -5.8450 -2.0025 0.9685
5.2702 -5.6606 -2.0025 0.9685
6.0225 -4.8532 -2.0026 0.9685
6.1919 -4.6352 -2.0026 0.9685
6.6521 -3.9469 -2.0027 0.9685
6.7889 -3.7070 -2.0027 0.9685
6.9169 -3.4623 -2.0027 0.9685
7.1464 -2.9601 -2.0028 0.9685
7.2475 -2.7032 -2.0028 0.9685
7.3394 -2.4428 -2.0028 0.9685
7.4220 -2.1793 -2.0028 0.9685
7.4951 -1.9130 -2.0028 0.9685
7.5586 -1.6443 -2.0028 0.9685
7.6567 -1.1009 -2.0028 0.9685
7.6912 -0.8269 -2.0029 0.9685
7.7306 -0.2761 -2.0029 0.9685
-7.0497 -0.5042 -2.0008 0.9710
-7.0273 -0.7555 -2.0008 0.9710
-6.9555 -1.2549 -2.0008 0.9710
-6.7816 -1.9912 -2.0009 0.9710
-6.6223 -2.4700 -2.0009 0.9710
-6.3205 -3.1638 -2.0009 0.9710
-6.2036 -3.3874 -2.0009 0.9710
-6.0788 -3.6067 -2.0010 0.9710
-5.9462 -3.8214 -2.0010 0.9710
-5.3421 -4.6289 -2.0011 0.9710
-4.9983 -4.9983 -2.0011 0.9710
-4.4356 -5.5042 -2.0012 0.9710
-4.2363 -5.6591 -2.0012 0.9710
-3.6073 -6.0798 -2.0013 0.9710
-3.1645 -6.3218 -2.0014 0.9710
-2.6873 -6.4876 -1.9879 0.9712
-2.4707 -6.6242 -2.0015 0.9710
-2.2327 -6.7082 -2.0015 0.9710
-1.9919 -6.7838 -2.0015 0.9710
-1.7485 -6.8507 -2.0016 0.9710
-1.5029 -6.9088 -2.0016 0.9710
-1.0063 -6.9987 -2.0017 0.9710
-0.5044 -7.0529 -2.0017 0.9710
0.0000 -7.0711 -2.0018 0.9710
0.5045 -7.0534 -2.0019 0.9710
0.7559 -7.0310 -2.0019 0.9710
1.0064 -6.9997 -2.0019 0.9710
1.2556 -6.9594 -2.0020 0.9710
1.7490 -6.8523 -2.0020 0.9710
2.7065 -6.5341 -2.0022 0.9710
2.9381 -6.4334 -2.0022 0.9710
3.1659 -6.3246 -2.0022 0.9710
3.3896 -6.2076 -2.0023 0.9710
3.6091 -6.0828 -2.0023 0.9710
3.8240 -5.9502 -2.0023 0.9710
4.8200 -5.1771 -2.0025 0.9710
5.1772 -4.8201 -2.0025 0.9710
5.3460 -4.6323 -2.0025 0.9710
5.5080 -4.4386 -2.0025 0.9710
5.6630 -4.2392 -2.0026 0.9710
5.8107 -4.0345 -2.0026 0.9710
5.9511 -3.8245 -2.0026 0.9710
6.2088 -3.3903 -2.0026 0.9710
6.4350 -2.9388 -2.0027 0.9710
6.8547 -1.7496 -2.0027 0.9710
6.9128 -1.5038 -2.0027 0.9710
7.0566 -0.5047 -2.0028 0.9710
-6.5053 -0.0000 -2.0009 0.9731
-6.5012 -0.2322 -2.0009 0.9731
-6.4888 -0.4641 -2.0009 0.9731
-6.4392 -0.9258 -2.0009 0.9731
-6.4020 -1.1551 -2.0009 0.9731
-6.0103 -2.4896 -2.0010 0.9731
-5.9177 -2.7025 -2.0010 0.9731
-5.4730 -3.5173 -2.0010 0.9731
-5.3440 -3.7104 -2.0011 0.9731
-5.0658 -4.0823 -2.0011 0.9731
-4.9169 -4.2605 -2.0011 0.9731
-4.7618 -4.4334 -2.0011 0.9731
-4.4335 -4.7619 -2.0012 0.9731
-4.0826 -5.0662 -2.0012 0.9731
-3.7108 -5.3446 -2.0013 0.9731
-3.3202 -5.5959 -2.0013 0.9731
-3.1184 -5.7109 -2.0014 0.9731
-2.7031 -5.9190 -2.0014 0.9731
-2.4902 -6.0118 -2.0015 0.9731
-2.2740 -6.0969 -2.0015 0.9731
-2.0550 -6.1743 -2.0015 0.9731
-1.8333 -6.2438 -2.0015 0.9731
-1.6093 -6.3054 -2.0016 0.9731
-1.3833 -6.3589 -2.0016 0.9731
-0.9262 -6.4416 -2.0017 0.9731
-0.6957 -6.4706 -2.0017 0.9731
-0.2323 -6.5040 -2.0018 0.9731
0.2323 -6.5042 -2.0018 0.9731
0.4643 -6.4919 -2.0019 0.9731
1.6097 -6.3068 -2.0020 0.9731
2.2747 -6.0988 -2.0021 0.9731
2.4910 -6.0138 -2.0021 0.9731
3.1197 -5.7134 -2.0022 0.9731
3.3217 -5.5985 -2.0022 0.9731
3.5195 -5.4764 -2.0023 0.9731
3.9013 -5.2115 -2.0023 0.9731
4.0849 -5.0690 -2.0024 0.9731
4.2632 -4.9200 -2.0024 0.9731
4.7649 -4.4363 -2.0024 0.9731
4.9203 -4.2634 -2.0025 0.9731
5.2120 -3.9016 -2.0025 0.9731
5.3480 -3.7132 -2.0025 0.9731
5.4771 -3.5199 -2.0025 0.9731
5.5993 -3.3222 -2.0026 0.9731
5.7144 -3.1203 -2.0026 0.9731
5.8222 -2.9144 -2.0026 0.9731
6.0153 -2.4916 -2.0026 0.9731
6.1005 -2.2754 -2.0026 0.9731
6.3088 -1.6102 -2.0027 0.9731
6.4077 -1.1561 -2.0027 0.9731
6.4738 -0.6960 -2.0027 0.9731
6.4946 -0.4645 -2.0027 0.9731
-6.0158 -0.2148 -2.0010 0.9749
-5.9852 -0.6435 -2.0010 0.9749
-5.9584 -0.8567 -2.0010 0.9749
-5.8822 -1.2796 -2.0010 0.9749
-5.8328 -1.4887 -2.0010 0.9749
-5.7759 -1.6960 -2.0010 0.9749
-5.6403 -2.1037 -2.0010 0.9749
-4.9450 -3.4334 -2.0011 0.9749
-4.2570 -4.2571 -2.0012 0.9749
-3.9426 -4.5500 -2.0013 0.9749
-3.7777 -4.6879 -2.0013 0.9749
-3.6080 -4.8198 -2.0013 0.9749
-3.4338 -4.9455 -2.0013 0.9749
-3.0723 -5.1780 -2.0014 0.9749
-2.1042 -5.6416 -2.0015 0.9749
-1.6964 -5.7775 -2.0016 0.9749
-1.4892 -5.8345 -2.0016 0.9749
-1.2800 -5.8840 -2.0016 0.9749
-1.0692 -5.9260 -2.0016 0.9749
-0.6437 -5.9874 -2.0017 0.9749
-0.4296 -6.0066 -2.0017 0.9749
-0.2149 -6.0182 -2.0018 0.9749
0.2150 -6.0184 -2.0018 0.9749
0.4296 -6.0070 -2.0019 0.9749
0.6438 -5.9879 -2.0019 0.9749
1.4895 -5.8357 -2.0020 0.9749
2.1048 -5.6433 -2.0021 0.9749
2.5021 -5.4789 -2.0021 0.9749
3.6098 -4.8222 -2.0023 0.9749
3.7797 -4.6903 -2.0023 0.9749
4.2595 -4.2595 -2.0024 0.9749
4.4089 -4.1048 -2.0024 0.9749
4.5527 -3.9449 -2.0024 0.9749
4.8226 -3.6101 -2.0025 0.9749
4.9484 -3.4357 -2.0025 0.9749
5.0679 -3.2569 -2.0025 0.9749
5.2874 -2.8872 -2.0025 0.9749
5.5659 -2.3055 -2.0026 0.9749
5.6446 -2.1053 -2.0026 0.9749
5.7805 -1.6973 -2.0026 0.9749
5.8869 -1.2806 -2.0026 0.9749
5.9289 -1.0697 -2.0026 0.9749
5.9633 -0.8574 -2.0026 0.9749
5.9901 -0.6440 -2.0026 0.9749
-5.5813 -0.3992 -2.0010 0.9765
-5.4678 -1.1895 -2.0010 0.9765
-5.1698 -2.1414 -2.0011 0.9765
-5.0901 -2.3246 -2.0011 0.9765
-4.9114 -2.6818 -2.0011 0.9765
-4.8125 -2.8554 -2.0011 0.9765
-4.4798 -3.3536 -2.0012 0.9765
-2.8558 -4.8132 -2.0014 0.9765
-2.5052 -5.0048 -2.0014 0.9765
-2.1418 -5.1709 -2.0015 0.9765
-1.9559 -5.2441 -2.0015 0.9765
-1.7675 -5.3106 -2.0016 0.9765
-1.5769 -5.3704 -2.0016 0.9765
-0.9938 -5.5084 -2.0017 0.9765
-0.7966 -5.5405 -2.0017 0.9765
-0.5983 -5.5654 -2.0017 0.9765
-0.1998 -5.5941 -2.0018 0.9765
0.0000 -5.5977 -2.0018 0.9765
0.7967 -5.5411 -2.0019 0.9765
0.9940 -5.5092 -2.0019 0.9765
1.3845 -5.4244 -2.0020 0.9765
1.7680 -5.3119 -2.0020 0.9765
1.9565 -5.2455 -2.0021 0.9765
2.1425 -5.1724 -2.0021 0.9765
2.3258 -5.0927 -2.0021 0.9765
2.5061 -5.0065 -2.0021 0.9765
2.6832 -4.9139 -2.0022 0.9765
3.1932 -4.5991 -2.0022 0.9765
3.3554 -4.4823 -2.0023 0.9765
3.6667 -4.2315 -2.0023 0.9765
4.0981 -3.8155 -2.0024 0.9765
4.3600 -3.5135 -2.0024 0.9765
4.5996 -3.1935 -2.0024 0.9765
4.9147 -2.6836 -2.0025 0.9765
5.0074 -2.5065 -2.0025 0.9765
5.0937 -2.3262 -2.0025 0.9765
5.1735 -2.1429 -2.0025 0.9765
5.2467 -1.9569 -2.0025 0.9765
5.3132 -1.7684 -2.0025 0.9765
5.3730 -1.5777 -2.0025 0.9765
5.4259 -1.3849 -2.0025 0.9765
5.4719 -1.1903 -2.0025 0.9765
5.5429 -0.7969 -2.0026 0.9765
5.5678 -0.5986 -2.0026 0.9765
5.5963 -0.1999 -2.0026 0.9765
-5.2085 -0.3725 -2.0011 0.9779
-5.1686 -0.7431 -2.0011 0.9779
-5.1388 -0.9271 -2.0011 0.9779
-4.6696 -2.3374 -2.0012 0.9779
-4.4910 -2.6647 -2.0012 0.9779
-4.3931 -2.8233 -2.0012 0.9779
-4.0662 -3.2768 -2.0012 0.9779
-3.9467 -3.4198 -2.0013 0.9779
-3.5586 -3.8222 -2.0013 0.9779
-3.1297 -4.1808 -2.0014 0.9779
-2.9785 -4.2899 -2.0014 0.9779
-2.5030 -4.5839 -2.0014 0.9779
-1.9987 -4.8254 -2.0015 0.9779
-1.6494 -4.9558 -2.0016 0.9779
-1.4715 -5.0115 -2.0016 0.9779
-0.1864 -5.2202 -2.0018 0.9779
0.0000 -5.2236 -2.0018 0.9779
0.3727 -5.2105 -2.0018 0.9779
0.7434 -5.1707 -2.0019 0.9779
0.9275 -5.1410 -2.0019 0.9779
1.1105 -5.1047 -2.0019 0.9779
1.4718 -5.0125 -2.0020 0.9779
1.9993 -4.8267 -2.0021 0.9779
2.6660 -4.4932 -2.0022 0.9779
2.9798 -4.2917 -2.0022 0.9779
3.5604 -3.8241 -2.0023 0.9779
3.6946 -3.6946 -2.0023 0.9779
3.9488 -3.4217 -2.0023 0.9779
4.0685 -3.2786 -2.0024 0.9779
4.1829 -3.1313 -2.0024 0.9779
4.2921 -2.9800 -2.0024 0.9779
4.3957 -2.8250 -2.0024 0.9779
4.4938 -2.6663 -2.0024 0.9779
4.5861 -2.5042 -2.0024 0.9779
4.8276 -1.9997 -2.0025 0.9779
4.8959 -1.8261 -2.0025 0.9779
4.9580 -1.6502 -2.0025 0.9779
5.0631 -1.2923 -2.0025 0.9779
5.1061 -1.1108 -2.0025 0.9779
5.1425 -0.9278 -2.0025 0.9779
5.1723 -0.7437 -2.0025 0.9779
5.1956 -0.5586 -2.0025 0.9779
-1.8977 0.0000 -0.7767 0.9918
-1.9308 -0.0690 -0.7907 0.9917
-1.9524 -0.1396 -0.8011 0.9916
-1.9449 -0.2796 -0.8042 0.9915
-4.7376 -1.2092 -2.0011 0.9791
-4.6914 -1.3775 -2.0012 0.9791
-4.3724 -2.1887 -2.0012 0.9791
-4.1135 -2.6436 -2.0012 0.9791
-3.9145 -2.9303 -2.0013 0.9791
-3.8074 -3.0682 -2.0013 0.9791
-3.6955 -3.2022 -2.0013 0.9791
-3.5789 -3.3321 -2.0013 0.9791
-3.4577 -3.4577 -2.0013 0.9791
-3.3321 -3.5789 -2.0013 0.9791
-3.2023 -3.6956 -2.0014 0.9791
-2.7889 -4.0169 -2.0014 0.9791
-2.0315 -4.4485 -2.0015 0.9791
-1.8715 -4.5182 -2.0015 0.9791
-1.7090 -4.5821 -2.0016 0.9791
-1.0396 -4.7790 -2.0017 0.9791
-0.8684 -4.8131 -2.0017 0.9791
-0.6960 -4.8411 -2.0017 0.9791
-0.3489 -4.8785 -2.0017 0.9791
0.1746 -4.8880 -2.0018 0.9791
0.3489 -4.8787 -2.0018 0.9791
0.5229 -4.8632 -2.0019 0.9791
0.8685 -4.8137 -2.0019 0.9791
1.0398 -4.7796 -2.0019 0.9791
1.5448 -4.6413 -2.0020 0.9791
1.8720 -4.5194 -2.0021 0.9791
2.1897 -4.3744 -2.0021 0.9791
2.6448 -4.1154 -2.0022 0.9791
2.7900 -4.0184 -2.0022 0.9791
2.9317 -3.9163 -2.0022 0.9791
3.3336 -3.5806 -2.0023 0.9791
3.4593 -3.4593 -2.0023 0.9791
3.5806 -3.3337 -2.0023 0.9791
3.6974 -3.2038 -2.0023 0.9791
3.9166 -2.9319 -2.0023 0.9791
4.2076 -2.4965 -2.0024 0.9791
4.2941 -2.3447 -2.0024 0.9791
4.3750 -2.1900 -2.0024 0.9791
4.5202 -1.8723 -2.0024 0.9791
4.6423 -1.5451 -2.0024 0.9791
4.6945 -1.3784 -2.0024 0.9791
4.7407 -1.2100 -2.0024 0.9791
4.8150 -0.8687 -2.0025 0.9791
4.8647 -0.5230 -2.0025 0.9791
4.8803 -0.3490 -2.0025 0.9791
-1.5221 0.0000 -0.6634 0.9934
-1.5249 -0.1640 -0.6684 0.9933
-1.5214 -0.3310 -0.6786 0.9932
-1.5485 -0.3952 -0.6965 0.9931
-1.5875 -0.5284 -0.7292 0.9927
-1.5984 -0.5962 -0.7435 0.9926
-4.2423 -1.7572 -2.0012 0.9802
-4.1769 -1.9075 -2.0012 0.9802
-4.1062 -2.0554 -2.0012 0.9802
-4.0302 -2.2007 -2.0012 0.9802
-3.7720 -2.6189 -2.0013 0.9802
-3.6761 -2.7519 -2.0013 0.9802
-3.4705 -3.0072 -2.0013 0.9802
-3.1292 -3.3610 -2.0014 0.9802
-3.0073 -3.4706 -2.0014 0.9802
-2.8815 -3.5757 -2.0014 0.9802
-2.6191 -3.7723 -2.0014 0.9802
-2.4828 -3.8634 -2.0015 0.9802
-2.3434 -3.9496 -2.0015 0.9802
-1.7575 -4.2430 -2.0016 0.9802
-1.6050 -4.3031 -2.0016 0.9802
-1.4504 -4.3577 -2.0016 0.9802
-1.1358 -4.4502 -2.0016 0.9802
-0.9763 -4.4879 -2.0017 0.9802
-0.6536 -4.5462 -2.0017 0.9802
-0.4910 -4.5667 -2.0017 0.9802
-0.3277 -4.5814 -2.0017 0.9802
-0.1639 -4.5902 -2.0018 0.9802
0.0000 -4.5932 -2.0018 0.9802
0.3277 -4.5816 -2.0018 0.9802
0.4910 -4.5670 -2.0019 0.9802
0.6537 -4.5466 -2.0019 0.9802
0.8156 -4.5205 -2.0019 0.9802
0.9764 -4.4885 -2.0019 0.9802
1.2942 -4.4075 -2.0020 0.9802
1.6053 -4.3041 -2.0020 0.9802
2.0563 -4.1079 -2.0021 0.9802
2.6201 -3.7736 -2.0022 0.9802
2.7531 -3.6777 -2.0022 0.9802
3.0085 -3.4720 -2.0022 0.9802
3.1306 -3.3625 -2.0022 0.9802
3.2486 -3.2486 -2.0022 0.9802
3.3625 -3.1306 -2.0023 0.9802
3.4721 -3.0086 -2.0023 0.9802
3.5773 -2.8828 -2.0023 0.9802
3.7739 -2.6203 -2.0023 0.9802
3.8651 -2.4839 -2.0023 0.9802
4.2448 -1.7583 -2.0024 0.9802
4.3049 -1.6056 -2.0024 0.9802
4.4085 -1.2945 -2.0024 0.9802
4.4519 -1.1363 -2.0024 0.9802
4.5479 -0.6539 -2.0024 0.9802
4.5683 -0.4911 -2.0024 0.9802
4.5917 -0.1640 -2.0024 0.9802
-1.3333 0.0000 -0.6172 0.9941
-1.3376 -0.0478 -0.6195 0.9941
-1.3384 -0.0957 -0.6211 0.9941
-1.3013 -0.2831 -0.6164 0.9941
-1.3116 -0.3348 -0.6266 0.9941
-1.3263 -0.5494 -0.6645 0.9937
-3.7183 -2.2062 -2.0013 0.9811
-3.6372 -2.3375 -2.0013 0.9811
-3.5515 -2.4658 -2.0013 0.9811
-3.4612 -2.5910 -2.0013 0.9811
-3.3665 -2.7129 -2.0013 0.9811
-3.1645 -2.9462 -2.0014 0.9811
-3.0573 -3.0573 -2.0014 0.9811
-2.9463 -3.1645 -2.0014 0.9811
-2.7130 -3.3667 -2.0014 0.9811
-2.2064 -3.7187 -2.0015 0.9811
-2.0723 -3.7951 -2.0015 0.9811
-1.9355 -3.8667 -2.0015 0.9811
-1.7963 -3.9333 -2.0015 0.9811
-1.5111 -4.0515 -2.0016 0.9811
-1.3656 -4.1029 -2.0016 0.9811
-1.0694 -4.1900 -2.0016 0.9811
-0.7678 -4.2557 -2.0017 0.9811
-0.6154 -4.2804 -2.0017 0.9811
-0.4623 -4.2997 -2.0017 0.9811
0.1544 -4.3219 -2.0018 0.9811
0.3085 -4.3137 -2.0018 0.9811
0.4623 -4.3000 -2.0019 0.9811
0.6155 -4.2808 -2.0019 0.9811
0.7679 -4.2561 -2.0019 0.9811
1.0696 -4.1906 -2.0019 0.9811
1.2185 -4.1498 -2.0020 0.9811
1.3658 -4.1037 -2.0020 0.9811
1.5115 -4.0524 -2.0020 0.9811
1.7967 -3.9343 -2.0020 0.9811
1.9360 -3.8677 -2.0021 0.9811
2.0729 -3.7962 -2.0021 0.9811
2.4668 -3.5529 -2.0021 0.9811
2.5921 -3.4627 -2.0022 0.9811
2.7141 -3.3679 -2.0022 0.9811
2.9475 -3.1658 -2.0022 0.9811
3.1658 -2.9475 -2.0022 0.9811
3.3681 -2.7142 -2.0023 0.9811
3.5532 -2.4670 -2.0023 0.9811
3.9349 -1.7970 -2.0023 0.9811
3.9965 -1.6554 -2.0023 0.9811
4.0531 -1.5117 -2.0024 0.9811
4.1045 -1.3661 -2.0024 0.9811
4.2270 -0.9195 -2.0024 0.9811
4.2819 -0.6156 -2.0024 0.9811
4.3231 -0.1544 -2.0024 0.9811
-1.1954 0.0000 -0.5864 0.9947
-1.1965 -0.0427 -0.5873 0.9947
-1.1953 -0.0855 -0.5878 0.9947
-1.1791 -0.2127 -0.5877 0.9947
-1.1578 -0.2955 -0.5861 0.9947
-1.1590 -0.3403 -0.5925 0.9946
-1.1578 -0.3854 -0.5986 0.9946
-1.1543 -0.4306 -0.6043 0.9945
-1.1484 -0.4757 -0.6097 0.9945
-1.1400 -0.5206 -0.6148 0.9944
-1.1113 -0.6068 -0.6211 0.9944
-3.5088 -2.0819 -2.0013 0.9820
-3.4323 -2.2058 -2.0013 0.9820
-3.1769 -2.5601 -2.0014 0.9820
-3.0835 -2.6719 -2.0014 0.9820
-2.9862 -2.7802 -2.0014 0.9820
-2.8851 -2.8851 -2.0014 0.9820
-2.6720 -3.0836 -2.0014 0.9820
-2.4452 -3.2664 -2.0015 0.9820
-2.3271 -3.3516 -2.0015 0.9820
-1.8265 -3.6488 -2.0015 0.9820
-1.4260 -3.8232 -2.0016 0.9820
-1.1496 -3.9153 -2.0016 0.9820
-0.8674 -3.9874 -2.0017 0.9820
-0.5808 -4.0392 -2.0017 0.9820
-0.2911 -4.0705 -2.0018 0.9820
-0.1456 -4.0783 -2.0018 0.9820
0.2911 -4.0706 -2.0018 0.9820
0.5808 -4.0396 -2.0019 0.9820
0.7246 -4.0163 -2.0019 0.9820
0.8675 -3.9879 -2.0019 0.9820
1.0093 -3.9544 -2.0019 0.9820
1.1498 -3.9159 -2.0020 0.9820
1.2889 -3.8724 -2.0020 0.9820
1.4263 -3.8240 -2.0020 0.9820
1.5619 -3.7707 -2.0020 0.9820
1.8269 -3.6497 -2.0020 0.9820
2.0827 -3.5102 -2.0021 0.9820
2.2067 -3.4336 -2.0021 0.9820
2.3278 -3.3527 -2.0021 0.9820
2.4460 -3.2675 -2.0021 0.9820
2.7814 -2.9874 -2.0022 0.9820
2.8862 -2.8862 -2.0022 0.9820
2.9874 -2.7814 -2.0022 0.9820
3.1783 -2.5612 -2.0022 0.9820
3.2677 -2.4462 -2.0022 0.9820
3.3529 -2.3280 -2.0023 0.9820
3.5105 -2.0829 -2.0023 0.9820
3.5826 -1.9563 -2.0023 0.9820
3.6502 -1.8272 -2.0023 0.9820
3.7713 -1.5621 -2.0023 0.9820
3.8246 -1.4265 -2.0023 0.9820
3.8731 -1.2891 -2.0023 0.9820
3.9167 -1.1500 -2.0023 0.9820
3.9888 -0.8677 -2.0023 0.9820
4.0172 -0.7248 -2.0023 0.9820
4.0587 -0.4364 -2.0024 0.9820
4.0717 -0.2912 -2.0024 0.9820
4.0795 -0.1457 -2.0024 0.9820
-1.1058 0.0000 -0.5737 0.9950
-1.1024 -0.1185 -0.5752 0.9950
-1.0974 -0.1578 -0.5752 0.9950
-1.0905 -0.1968 -0.5749 0.9950
-1.0636 -0.3123 -0.5751 0.9950
-1.0576 -0.3945 -0.5856 0.9949
-1.0430 -0.4763 -0.5948 0.9948
-1.0298 -0.5155 -0.5974 0.9948
-0.9917 -0.5884 -0.5982 0.9948
-3.2454 -2.0857 -2.0014 0.9828
-2.9156 -2.5264 -2.0014 0.9828
-2.7280 -2.7280 -2.0014 0.9828
-2.4208 -3.0040 -2.0015 0.9828
-2.3120 -3.0885 -2.0015 0.9828
-2.0858 -3.2456 -2.0015 0.9828
-1.9687 -3.3181 -2.0015 0.9828
-1.7270 -3.4501 -2.0016 0.9828
-1.4765 -3.5646 -2.0016 0.9828
-1.3483 -3.6150 -2.0016 0.9828
-1.2185 -3.6609 -2.0016 0.9828
-1.0870 -3.7021 -2.0016 0.9828
-0.9542 -3.7386 -2.0017 0.9828
-0.8202 -3.7703 -2.0017 0.9828
-0.4125 -3.8364 -2.0017 0.9828
-0.1377 -3.8562 -2.0018 0.9828
0.0000 -3.8587 -2.0018 0.9828
0.1377 -3.8562 -2.0018 0.9828
0.9543 -3.7391 -2.0019 0.9828
1.0872 -3.7026 -2.0019 0.9828
1.2187 -3.6615 -2.0020 0.9828
1.3486 -3.6157 -2.0020 0.9828
1.6031 -3.5103 -2.0020 0.9828
1.7274 -3.4509 -2.0020 0.9828
1.8495 -3.3871 -2.0020 0.9828
2.3128 -3.0895 -2.0021 0.9828
2.4216 -3.0050 -2.0021 0.9828
2.5273 -2.9167 -2.0021 0.9828
2.6298 -2.8246 -2.0022 0.9828
2.8247 -2.6299 -2.0022 0.9828
3.1703 -2.2012 -2.0022 0.9828
3.3875 -1.8497 -2.0023 0.9828
3.5108 -1.6033 -2.0023 0.9828
3.5658 -1.4770 -2.0023 0.9828
3.7033 -1.0874 -2.0023 0.9828
3.7398 -0.9545 -2.0023 0.9828
3.7983 -0.6853 -2.0023 0.9828
3.8204 -0.5493 -2.0023 0.9828
3.8572 -0.1378 -2.0023 0.9828
-1.0269 0.0000 -0.5625 0.9953
-1.0276 -0.0367 -0.5632 0.9953
-1.0265 -0.0734 -0.5637 0.9953
-1.0124 -0.1827 -0.5634 0.9953
-0.9820 -0.2883 -0.5606 0.9953
-0.9785 -0.3257 -0.5648 0.9953
-0.9580 -0.4375 -0.5768 0.9952
-0.9434 -0.4722 -0.5778 0.9952
-0.8661 -0.6014 -0.5775 0.9952
-2.6745 -2.4900 -2.0014 0.9835
-2.3930 -2.7617 -2.0015 0.9835
-2.2930 -2.8454 -2.0015 0.9835
-1.9757 -3.0743 -2.0015 0.9835
-1.8647 -3.1428 -2.0015 0.9835
-1.7514 -3.2074 -2.0016 0.9835
-1.6358 -3.2679 -2.0016 0.9835
-1.5181 -3.3243 -2.0016 0.9835
-1.3985 -3.3764 -2.0016 0.9835
-1.2771 -3.4242 -2.0016 0.9835
-1.1541 -3.4676 -2.0016 0.9835
-1.0296 -3.5066 -2.0017 0.9835
-0.9038 -3.5411 -2.0017 0.9835
-0.7769 -3.5712 -2.0017 0.9835
-0.6489 -3.5967 -2.0017 0.9835
-0.3907 -3.6339 -2.0017 0.9835
-0.2607 -3.6455 -2.0018 0.9835
-0.1304 -3.6525 -2.0018 0.9835
0.0000 -3.6549 -2.0018 0.9835
0.1305 -3.6526 -2.0018 0.9835
0.3907 -3.6340 -2.0018 0.9835
0.5202 -3.6178 -2.0019 0.9835
0.6490 -3.5970 -2.0019 0.9835
0.7770 -3.5715 -2.0019 0.9835
0.9039 -3.5416 -2.0019 0.9835
1.0298 -3.5071 -2.0019 0.9835
1.2774 -3.4248 -2.0020 0.9835
1.3988 -3.3770 -2.0020 0.9835
1.5185 -3.3250 -2.0020 0.9835
1.6362 -3.2687 -2.0020 0.9835
1.7518 -3.2082 -2.0020 0.9835
1.9763 -3.0751 -2.0021 0.9835
2.0848 -3.0026 -2.0021 0.9835
2.7627 -2.3939 -2.0022 0.9835
2.8464 -2.2938 -2.0022 0.9835
2.9265 -2.1907 -2.0022 0.9835
3.0028 -2.0849 -2.0022 0.9835
3.0753 -1.9764 -2.0022 0.9835
3.1439 -1.8654 -2.0022 0.9835
3.2690 -1.6364 -2.0022 0.9835
3.3254 -1.5186 -2.0023 0.9835
3.3775 -1.3990 -2.0023 0.9835
3.4253 -1.2776 -2.0023 0.9835
3.5422 -0.9041 -2.0023 0.9835
3.5977 -0.6491 -2.0023 0.9835
3.6186 -0.5203 -2.0023 0.9835
3.6349 -0.3908 -2.0023 0.9835
3.6465 -0.2608 -2.0023 0.9835
3.6535 -0.1305 -2.0023 0.9835
-0.9570 0.0000 -0.5525 0.9956
-0.9575 -0.0342 -0.5532 0.9956
-0.9565 -0.0684 -0.5536 0.9956
-0.9537 -0.1025 -0.5538 0.9956
-0.9492 -0.1365 -0.5536 0.9956
-0.9430 -0.1701 -0.5532 0.9956
-0.9352 -0.2035 -0.5526 0.9956
-0.9259 -0.2363 -0.5517 0.9956
-0.9151 -0.2687 -0.5506 0.9956
-0.9057 -0.3015 -0.5511 0.9956
-0.8941 -0.3703 -0.5587 0.9955
-0.8534 -0.4660 -0.5614 0.9955
-0.8364 -0.4963 -0.5615 0.9955
-0.7671 -0.6182 -0.5688 0.9955
-2.6199 -2.2701 -2.0014 0.9841
-2.4513 -2.4513 -2.0015 0.9841
-2.1752 -2.6993 -2.0015 0.9841
-2.0775 -2.7752 -2.0015 0.9841
-1.9772 -2.8477 -2.0015 0.9841
-1.8743 -2.9164 -2.0015 0.9841
-1.5518 -3.1001 -2.0016 0.9841
-1.4402 -3.1536 -2.0016 0.9841
-1.2116 -3.2483 -2.0016 0.9841
-1.0949 -3.2895 -2.0016 0.9841
-0.3706 -3.4472 -2.0017 0.9841
-0.2473 -3.4583 -2.0018 0.9841
-0.1237 -3.4650 -2.0018 0.9841
0.1238 -3.4650 -2.0018 0.9841
0.4935 -3.4320 -2.0019 0.9841
0.6156 -3.4123 -2.0019 0.9841
1.0950 -3.2900 -2.0019 0.9841
1.3270 -3.2036 -2.0020 0.9841
1.4405 -3.1542 -2.0020 0.9841
1.7694 -2.9822 -2.0020 0.9841
1.8748 -2.9172 -2.0021 0.9841
2.1759 -2.7001 -2.0021 0.9841
2.2709 -2.6208 -2.0021 0.9841
2.5381 -2.3630 -2.0021 0.9841
2.8486 -1.9778 -2.0022 0.9841
2.9825 -1.7696 -2.0022 0.9841
3.0437 -1.6620 -2.0022 0.9841
3.1011 -1.5523 -2.0022 0.9841
1.8682 -0.6968 -1.1512 0.9908
1.9033 -0.6335 -1.1581 0.9908
1.9351 -0.5682 -1.1644 0.9907
1.9616 -0.5007 -1.1688 0.9907
1.9883 -0.4325 -1.1748 0.9906
2.0153 -0.3636 -1.1823 0.9906
2.0301 -0.2919 -1.1841 0.9906
2.0366 -0.2190 -1.1826 0.9906
2.0359 -0.1456 -1.1784 0.9906
