ply
format ascii 1.0
element vertex 757
property float32 x
property float32 y
property float32 z
property float32 I
end_header
-6.5386 6.5386 1.6305 0.9631
-7.1183 6.1680 1.6608 0.9625
-6.6976 6.2357 1.4019 0.9636
-7.1155 6.1656 1.4424 0.9626
-6.5230 6.5230 1.2013 0.9635
-6.6897 6.2283 1.1903 0.9638
-7.1128 6.1632 1.2256 0.9627
-6.5153 6.5153 0.9894 0.9636
-6.6819 6.2210 0.9804 0.9639
-7.1101 6.1609 1.0102 0.9629
-6.5076 6.5076 0.7791 0.9637
-6.6741 6.2138 0.7719 0.9641
-6.6664 6.2066 0.5648 0.9642
-6.6587 6.1994 0.3587 0.9642
-7.1019 6.1538 0.3705 0.9631
-6.4849 6.4849 0.1549 0.9640
-6.6510 6.1923 0.1535 0.9643
-6.4774 6.4774 -0.0516 0.9640
-6.6358 6.1781 -0.2553 0.9644
-7.0912 6.1445 -0.4758 0.9631
-6.4549 6.4549 -0.6693 0.9640
-4.3402 5.0089 -0.6363 0.9737
-6.4474 6.4474 -0.8754 0.9640
-7.0859 6.1399 -0.9001 0.9630
3.1045 6.7979 -0.8877 0.9703
0.3537 9.9030 -1.1771 0.9609
-6.4399 6.4399 -1.0818 0.9640
-6.6053 6.1497 -1.0720 0.9643
-7.0831 6.1375 -1.1133 0.9630
2.7126 6.5488 -1.0043 0.9718
-5.6343 6.9916 -1.2723 0.9644
-7.2031 5.3921 -1.2749 0.9643
-5.6587 7.0220 -1.4857 0.9641
-5.6520 6.0706 -1.3664 0.9669
-5.8280 5.4261 -1.3118 0.9682
-6.7026 5.4013 -1.4181 0.9657
-7.2351 5.4161 -1.4889 0.9640
-7.7950 5.4122 -1.5633 0.9623
2.9728 6.5096 -1.3451 0.9713
-4.2578 4.9138 -1.2222 0.9739
-4.5078 4.8417 -1.2435 0.9734
-5.8280 5.4261 -1.4967 0.9681
-7.6357 5.3015 -1.7472 0.9629
9.4778 0.0000 -2.0034 0.9620
9.4718 0.3383 -2.0034 0.9620
9.4235 1.0131 -2.0034 0.9620
9.3271 1.6828 -2.0034 0.9620
9.2611 2.0146 -2.0034 0.9620
8.9925 2.9930 -2.0033 0.9620
8.6075 3.9309 -2.0002 0.9621
8.3933 4.2014 -1.9840 0.9624
7.5305 4.4680 -1.8509 0.9648
7.0094 5.2472 -1.8508 0.9648
6.8175 5.4939 -1.8508 0.9648
6.6170 5.7336 -1.8507 0.9648
6.4080 5.9660 -1.8507 0.9648
6.1908 6.1908 -1.8507 0.9648
5.4932 6.8167 -1.8505 0.9648
4.9927 7.1909 -1.8505 0.9648
4.7328 7.3643 -1.8504 0.9648
4.1951 7.6828 -1.8503 0.9648
3.9181 7.8274 -1.8503 0.9648
2.7132 6.5503 -1.4987 0.9714
2.7640 8.3045 -1.8501 0.9648
2.1644 8.4800 -1.8500 0.9649
1.8603 8.5516 -1.8499 0.9649
1.5538 8.6123 -1.8499 0.9649
0.6243 8.7283 -1.8497 0.9649
0.3123 8.7448 -1.8496 0.9649
0.0000 8.7501 -1.8496 0.9649
-0.3123 8.7443 -1.8495 0.9649
-1.5534 8.6098 -1.8493 0.9649
-2.1635 8.4766 -1.8492 0.9649
-3.9152 7.8217 -1.8489 0.9649
-4.1918 7.6768 -1.8489 0.9649
-4.7285 7.3578 -1.8488 0.9649
-4.9880 7.1842 -1.8487 0.9649
-5.2412 7.0014 -1.8487 0.9649
-7.0002 5.2403 -1.8484 0.9649
-7.5199 4.4618 -1.8483 0.9649
-7.7357 4.2240 -1.8631 0.9646
-8.3937 4.2016 -1.9841 0.9624
-8.5952 3.9253 -1.9973 0.9621
-8.7426 3.6213 -2.0003 0.9621
-8.9785 2.9883 -2.0002 0.9621
-9.2463 2.0114 -2.0002 0.9621
-9.4082 1.0115 -2.0002 0.9621
-9.4382 0.6751 -2.0002 0.9621
-9.4563 0.3377 -2.0002 0.9621
8.5183 0.3042 -2.0033 0.9656
8.4748 0.9111 -2.0033 0.9656
8.0872 2.6917 -2.0032 0.9656
7.8744 3.2617 -2.0032 0.9656
7.6174 3.8130 -2.0020 0.9656
7.0952 4.2098 -1.9390 0.9667
6.3039 4.7190 -1.8507 0.9682
5.9509 5.1565 -1.8506 0.9682
5.5677 5.5677 -1.8506 0.9682
5.1561 5.9505 -1.8505 0.9682
4.9404 6.1306 -1.8504 0.9682
4.4902 6.4672 -1.8504 0.9682
3.7729 6.9096 -1.8502 0.9682
3.5238 7.0397 -1.8502 0.9682
2.9731 6.5101 -1.6820 0.9710
2.7134 6.5508 -1.6664 0.9713
1.6731 7.6912 -1.8499 0.9682
1.3975 7.7458 -1.8498 0.9682
1.1201 7.7906 -1.8498 0.9682
0.8413 7.8254 -1.8497 0.9682
-0.5614 7.8494 -1.8495 0.9682
-1.1199 7.7889 -1.8494 0.9682
-1.9459 7.6240 -1.8493 0.9682
-3.0108 7.2687 -1.8491 0.9682
-3.2682 7.1565 -1.8490 0.9682
-3.7703 6.9048 -1.8489 0.9682
-4.4865 6.4617 -1.8488 0.9682
-4.9358 6.1250 -1.8487 0.9682
-5.7089 5.3151 -1.8332 0.9685
-6.2964 4.7134 -1.8485 0.9682
-6.4605 4.4856 -1.8485 0.9682
-7.7425 3.5359 -2.0005 0.9656
-7.9749 2.9745 -2.0004 0.9656
-8.2469 2.1049 -2.0004 0.9656
-8.3168 1.8092 -2.0003 0.9656
-8.3760 1.5112 -2.0003 0.9656
-8.4624 0.9098 -2.0003 0.9656
-8.4895 0.6072 -2.0003 0.9656
-8.5057 0.3038 -2.0003 0.9656
7.6577 1.1010 -2.0031 0.9685
7.6135 1.3736 -2.0031 0.9685
7.4961 1.9133 -2.0031 0.9685
7.4230 2.1796 -2.0031 0.9685
7.2484 2.7035 -2.0030 0.9685
6.4847 4.1675 -1.9958 0.9687
6.0701 4.2145 -1.9133 0.9699
5.4015 4.6804 -1.8505 0.9709
4.8700 5.2307 -1.8504 0.9709
4.6801 5.4011 -1.8504 0.9709
4.2827 5.7210 -1.8503 0.9709
4.0757 5.8701 -1.8503 0.9709
3.8635 6.0117 -1.8503 0.9709
3.6464 6.1457 -1.8502 0.9709
3.4246 6.2718 -1.8502 0.9709
3.1985 6.3899 -1.8501 0.9709
1.5187 6.9813 -1.8499 0.9709
0.7637 7.1031 -1.8497 0.9709
0.2550 7.1392 -1.8496 0.9709
-0.5096 7.1250 -1.8495 0.9709
-1.2682 7.0292 -1.8494 0.9709
-1.7663 6.9205 -1.8493 0.9709
-2.2554 6.7766 -1.8492 0.9709
-2.4958 6.6916 -1.8492 0.9709
-3.1966 6.3860 -1.8490 0.9709
-3.4224 6.2677 -1.8490 0.9709
-3.8607 6.0074 -1.8489 0.9709
-4.0726 5.8656 -1.8489 0.9709
-4.2792 5.7164 -1.8489 0.9709
-4.1995 4.8465 -1.6604 0.9739
-5.3960 4.6757 -1.8487 0.9709
-6.0702 4.2147 -1.9134 0.9699
-6.4777 4.1630 -1.9937 0.9687
-6.9094 3.4586 -2.0006 0.9686
-7.0284 3.2098 -2.0006 0.9686
-7.1384 2.9568 -2.0006 0.9686
-7.3311 2.4400 -2.0005 0.9686
-7.4134 2.1768 -2.0005 0.9686
-7.4864 1.9108 -2.0005 0.9686
-7.5497 1.6424 -2.0005 0.9686
-7.6035 1.3719 -2.0005 0.9686
-7.6819 0.8259 -2.0005 0.9686
-7.7213 0.2758 -2.0005 0.9686
7.0349 0.7563 -2.0030 0.9710
6.9630 1.2563 -2.0030 0.9710
6.7887 1.9933 -2.0030 0.9710
5.9480 3.8226 -2.0016 0.9710
5.7977 4.0254 -1.9981 0.9711
5.6123 4.2013 -1.9847 0.9713
4.4539 4.7838 -1.8504 0.9732
4.2803 4.9397 -1.8503 0.9732
4.1012 5.0892 -1.8503 0.9732
3.7275 5.3686 -1.8502 0.9732
3.5335 5.4982 -1.8502 0.9732
3.3349 5.6207 -1.8502 0.9732
3.1321 5.7360 -1.8501 0.9732
1.8410 6.2699 -1.8499 0.9732
1.6160 6.3315 -1.8499 0.9732
1.3890 6.3850 -1.8498 0.9732
0.9299 6.4676 -1.8498 0.9732
0.0000 6.5335 -1.8496 0.9732
-0.4661 6.5166 -1.8495 0.9732
-1.8404 6.2678 -1.8493 0.9732
-2.2827 6.1203 -1.8492 0.9732
-2.4997 6.0348 -1.8492 0.9732
-4.1835 4.8280 -1.8085 0.9738
-4.4502 4.7799 -1.8488 0.9732
-4.6179 4.6179 -1.8488 0.9732
-4.9354 4.2766 -1.8487 0.9732
-5.9421 3.8188 -1.9996 0.9711
-6.0781 3.6063 -2.0007 0.9710
-6.2029 3.3870 -2.0007 0.9710
-6.3197 3.1634 -2.0007 0.9710
-6.5292 2.7045 -2.0007 0.9710
-6.6215 2.4697 -2.0006 0.9710
-6.7054 2.2318 -2.0006 0.9710
-6.8474 1.7477 -2.0006 0.9710
-6.9546 1.2548 -2.0006 0.9710
-6.9949 1.0057 -2.0006 0.9710
-7.0263 0.7554 -2.0006 0.9710
-7.0488 0.5042 -2.0006 0.9710
-7.0623 0.2522 -2.0006 0.9710
6.5119 0.0000 -2.0029 0.9731
6.5077 0.2324 -2.0029 0.9731
6.4953 0.4646 -2.0029 0.9731
6.4746 0.6961 -2.0029 0.9731
6.1785 2.0564 -2.0029 0.9731
6.1011 2.2756 -2.0028 0.9731
6.0160 2.4919 -2.0028 0.9731
5.9231 2.7050 -2.0028 0.9731
5.8228 2.9147 -2.0028 0.9731
5.7150 3.1206 -2.0028 0.9731
5.4777 3.5203 -2.0027 0.9731
5.3485 3.7135 -2.0027 0.9731
5.2060 3.8971 -2.0002 0.9732
5.0559 4.0743 -1.9972 0.9732
4.8508 4.2033 -1.9742 0.9735
4.5288 4.2164 -1.9032 0.9744
3.9394 4.5463 -1.8503 0.9751
3.4307 4.9411 -1.8502 0.9751
3.0694 5.1731 -1.8501 0.9751
2.8827 5.2793 -1.8501 0.9751
2.6924 5.3787 -1.8501 0.9751
2.4987 5.4713 -1.8500 0.9751
2.1019 5.6354 -1.8500 0.9751
1.6945 5.7707 -1.8499 0.9751
1.2784 5.8767 -1.8498 0.9751
1.0678 5.9185 -1.8498 0.9751
0.8559 5.9527 -1.8497 0.9751
0.2146 6.0097 -1.8496 0.9751
0.0000 6.0134 -1.8496 0.9751
-0.4290 5.9978 -1.8495 0.9751
-0.6428 5.9786 -1.8495 0.9751
-0.8557 5.9517 -1.8494 0.9752
-1.0676 5.9173 -1.8494 0.9752
-1.4869 5.8258 -1.8493 0.9752
-1.6939 5.7689 -1.8493 0.9752
-1.8987 5.7047 -1.8493 0.9752
-2.1010 5.6331 -1.8492 0.9752
-2.3007 5.5545 -1.8492 0.9752
-2.4975 5.4687 -1.8492 0.9752
-2.8811 5.2764 -1.8491 0.9752
-3.2501 5.0573 -1.8490 0.9752
-3.4285 4.9379 -1.8490 0.9752
-3.7719 4.6806 -1.8489 0.9752
-3.9365 4.5430 -1.8489 0.9752
-4.0961 4.3995 -1.8489 0.9752
-4.2504 4.2504 -1.8489 0.9752
-4.5288 4.2165 -1.9032 0.9744
-5.0516 4.0709 -1.9955 0.9732
-5.4725 3.5170 -2.0008 0.9731
-5.8169 2.9117 -2.0008 0.9731
-6.0097 2.4893 -2.0007 0.9731
-6.0947 2.2732 -2.0007 0.9731
-6.1719 2.0542 -2.0007 0.9731
-6.4013 1.1549 -2.0007 0.9731
-6.4384 0.9257 -2.0007 0.9731
-6.4673 0.6953 -2.0007 0.9731
-6.4880 0.4640 -2.0007 0.9731
-6.5004 0.2322 -2.0007 0.9731
5.9907 0.6441 -2.0028 0.9749
5.9639 0.8575 -2.0028 0.9749
5.9295 1.0698 -2.0028 0.9749
5.8875 1.2808 -2.0028 0.9749
5.8380 1.4901 -2.0028 0.9749
5.7811 1.6975 -2.0028 0.9749
5.7168 1.9027 -2.0028 0.9749
5.5664 2.3057 -2.0028 0.9749
5.2879 2.8874 -2.0027 0.9749
5.0684 3.2572 -2.0027 0.9749
4.8230 3.6104 -2.0026 0.9749
4.6898 3.7793 -2.0021 0.9749
4.5457 3.9389 -1.9994 0.9750
4.3964 4.0932 -1.9967 0.9750
3.9238 4.2144 -1.9141 0.9760
3.6608 4.2248 -1.8582 0.9767
3.3356 4.4558 -1.8502 0.9768
3.1744 4.5720 -1.8501 0.9768
3.0091 4.6823 -1.8501 0.9768
2.6673 4.8849 -1.8501 0.9768
2.3120 5.0625 -1.8500 0.9768
1.9449 5.2144 -1.8499 0.9768
1.1829 5.4377 -1.8498 0.9768
0.9881 5.4764 -1.8498 0.9768
0.5948 5.5327 -1.8497 0.9768
0.3970 5.5503 -1.8497 0.9768
0.1986 5.5608 -1.8496 0.9768
0.0000 5.5643 -1.8496 0.9768
-0.1986 5.5606 -1.8496 0.9768
-0.3969 5.5499 -1.8495 0.9768
-0.5948 5.5321 -1.8495 0.9768
-0.7918 5.5072 -1.8495 0.9768
-1.1826 5.4365 -1.8494 0.9768
-1.5674 5.3381 -1.8493 0.9768
-2.1289 5.1397 -1.8492 0.9768
-2.3110 5.0603 -1.8492 0.9768
-2.4901 4.9745 -1.8492 0.9768
-2.8385 4.7841 -1.8491 0.9768
-3.0074 4.6796 -1.8491 0.9768
-3.4902 4.3311 -1.8490 0.9768
-3.6608 4.2248 -1.8582 0.9767
-3.9238 4.2145 -1.9141 0.9760
-4.5423 3.9359 -1.9979 0.9750
-4.6861 3.7763 -2.0005 0.9750
-5.5610 2.3035 -2.0008 0.9749
-5.6397 2.1035 -2.0008 0.9749
-5.8321 1.4886 -2.0008 0.9749
-5.9578 0.8566 -2.0008 0.9749
5.5969 0.1999 -2.0028 0.9765
5.5862 0.3995 -2.0028 0.9765
5.5434 0.7970 -2.0027 0.9765
5.4724 1.1905 -2.0027 0.9765
5.3137 1.7686 -2.0027 0.9765
5.2472 1.9571 -2.0027 0.9765
5.0078 2.5067 -2.0027 0.9765
4.9151 2.6838 -2.0026 0.9765
4.8161 2.8576 -2.0026 0.9765
4.7110 3.0276 -2.0026 0.9765
4.3603 3.5137 -2.0025 0.9765
3.8048 4.0866 -1.9967 0.9766
3.3932 4.2107 -1.9339 0.9773
3.1589 4.2198 -1.8850 0.9779
2.9506 4.2497 -1.8501 0.9783
2.7970 4.3522 -1.8501 0.9783
2.6398 4.4492 -1.8500 0.9783
2.3156 4.6261 -1.8500 0.9783
1.9797 4.7793 -1.8499 0.9783
1.8078 4.8469 -1.8499 0.9783
1.6336 4.9082 -1.8499 0.9783
1.0995 5.0545 -1.8498 0.9783
0.5529 5.1428 -1.8497 0.9783
0.3690 5.1591 -1.8497 0.9783
0.0000 5.1721 -1.8496 0.9783
-0.1846 5.1688 -1.8496 0.9783
-0.3689 5.1588 -1.8495 0.9783
-0.7360 5.1191 -1.8495 0.9783
-0.9182 5.0895 -1.8494 0.9783
-1.4569 4.9619 -1.8493 0.9783
-1.6331 4.9067 -1.8493 0.9783
-1.8071 4.8452 -1.8493 0.9783
-1.9789 4.7775 -1.8492 0.9783
-2.4782 4.5384 -1.8492 0.9783
-3.8024 4.0840 -1.9955 0.9766
-4.2289 3.6644 -2.0011 0.9765
-4.4795 3.3533 -2.0010 0.9765
-4.5963 3.1912 -2.0010 0.9765
-4.7072 3.0251 -2.0010 0.9765
-4.8121 2.8552 -2.0010 0.9765
-4.9109 2.6816 -2.0009 0.9765
-5.0035 2.5046 -2.0009 0.9765
-5.0896 2.3244 -2.0009 0.9765
-5.1693 2.1412 -2.0009 0.9765
-5.3088 1.7670 -2.0009 0.9765
-5.4213 1.3837 -2.0008 0.9765
-5.4672 1.1893 -2.0008 0.9765
-5.5381 0.7963 -2.0008 0.9765
-5.5630 0.5981 -2.0008 0.9765
-5.5914 0.1997 -2.0008 0.9765
5.2260 0.0000 -2.0027 0.9779
5.1960 0.5586 -2.0027 0.9779
5.1728 0.7437 -2.0027 0.9779
4.8280 1.9998 -2.0026 0.9779
4.7535 2.1709 -2.0026 0.9779
4.6730 2.3391 -2.0026 0.9779
4.4941 2.6665 -2.0026 0.9779
4.3961 2.8252 -2.0025 0.9779
4.2924 2.9803 -2.0025 0.9779
4.1833 3.1315 -2.0025 0.9779
4.0688 3.2788 -2.0025 0.9779
3.9491 3.4219 -2.0025 0.9779
3.5584 3.8220 -2.0012 0.9779
3.4162 3.9425 -1.9991 0.9779
3.1202 4.1680 -1.9952 0.9779
2.9200 4.2055 -1.9620 0.9783
2.7078 4.2134 -1.9194 0.9788
2.1608 4.3168 -1.8500 0.9795
2.0054 4.3911 -1.8499 0.9795
1.6870 4.5229 -1.8499 0.9795
1.3600 4.6316 -1.8498 0.9795
1.1938 4.6771 -1.8498 0.9795
0.6869 4.7777 -1.8497 0.9795
0.3443 4.8143 -1.8497 0.9795
0.1723 4.8235 -1.8496 0.9795
0.0000 4.8265 -1.8496 0.9795
-0.1723 4.8233 -1.8496 0.9795
-0.6868 4.7770 -1.8495 0.9795
-1.3596 4.6304 -1.8494 0.9795
-1.5240 4.5788 -1.8493 0.9795
-1.8467 4.4583 -1.8493 0.9795
-2.0046 4.3895 -1.8492 0.9795
-2.1600 4.3151 -1.8492 0.9795
-2.3126 4.2352 -1.8492 0.9795
-2.5042 4.2207 -1.8807 0.9792
-2.9200 4.2056 -1.9620 0.9783
-3.1185 4.1659 -1.9942 0.9780
-3.2683 4.0557 -1.9960 0.9779
-4.0659 3.2765 -2.0011 0.9779
-4.2892 2.9781 -2.0010 0.9779
-4.3927 2.8230 -2.0010 0.9779
-4.4906 2.6644 -2.0010 0.9779
-5.1681 0.7431 -2.0009 0.9779
-5.1914 0.5581 -2.0009 0.9779
4.8900 0.1747 -2.0026 0.9791
4.8807 0.3491 -2.0026 0.9791
4.8651 0.5231 -2.0026 0.9791
4.8433 0.6964 -2.0026 0.9791
4.6426 1.5452 -2.0026 0.9791
4.3754 2.1902 -2.0025 0.9791
4.2944 2.3449 -2.0025 0.9791
4.2079 2.4967 -2.0025 0.9791
4.1161 2.6453 -2.0025 0.9791
4.0190 2.7905 -2.0025 0.9791
3.9168 2.9321 -2.0025 0.9791
3.8096 3.0700 -2.0024 0.9791
3.6976 3.2040 -2.0024 0.9791
3.2039 3.6975 -2.0023 0.9791
2.9278 3.9111 -1.9996 0.9791
2.1083 4.2119 -1.9277 0.9798
1.5795 4.2349 -1.8499 0.9807
1.4274 4.2885 -1.8498 0.9807
0.3224 4.5078 -1.8496 0.9807
-0.1613 4.5163 -1.8496 0.9807
-0.4830 4.4931 -1.8495 0.9807
-0.8023 4.4471 -1.8495 0.9807
-0.9605 4.4155 -1.8494 0.9807
-1.4269 4.2874 -1.8493 0.9807
-1.7490 4.2225 -1.8706 0.9804
-1.9261 4.2175 -1.8976 0.9802
-2.2965 4.2058 -1.9612 0.9795
-2.4859 4.1898 -1.9939 0.9792
-2.6358 4.1015 -1.9954 0.9791
-2.7827 4.0079 -1.9969 0.9791
-2.9264 3.9092 -1.9986 0.9791
-3.2021 3.6954 -2.0012 0.9791
-3.5786 3.3318 -2.0012 0.9791
-3.8071 3.0680 -2.0011 0.9791
-4.0162 2.7885 -2.0011 0.9791
-4.1131 2.6434 -2.0011 0.9791
-4.2048 2.4949 -2.0011 0.9791
-4.3720 2.1885 -2.0010 0.9791
-4.4473 2.0311 -2.0010 0.9791
-4.5809 1.7086 -2.0010 0.9791
-4.6389 1.5440 -2.0010 0.9791
-4.7773 1.0392 -2.0010 0.9791
-1.9569 0.2104 -0.8055 0.9915
-1.9524 0.1397 -0.8011 0.9916
-1.9308 0.0690 -0.7907 0.9917
4.5950 0.0000 -2.0026 0.9801
4.5687 0.4912 -2.0026 0.9801
4.4900 0.9767 -2.0026 0.9802
4.4088 1.2945 -2.0025 0.9802
4.3598 1.4511 -2.0025 0.9802
4.3052 1.6058 -2.0025 0.9802
4.1796 1.9088 -2.0025 0.9802
4.0328 2.2021 -2.0025 0.9802
3.9516 2.3446 -2.0025 0.9802
3.8653 2.4841 -2.0025 0.9802
3.5776 2.8830 -2.0024 0.9802
3.4724 3.0088 -2.0024 0.9802
3.2488 3.2488 -2.0024 0.9802
3.1307 3.3627 -2.0023 0.9802
2.8828 3.5774 -2.0023 0.9802
2.1966 4.0228 -1.9975 0.9802
2.0503 4.0961 -1.9963 0.9802
1.9017 4.1642 -1.9951 0.9802
1.7405 4.2018 -1.9821 0.9804
1.5690 4.2066 -1.9567 0.9806
1.4015 4.2107 -1.9341 0.9808
1.2375 4.2144 -1.9143 0.9810
1.0765 4.2176 -1.8970 0.9812
0.9181 4.2203 -1.8823 0.9813
0.3028 4.2333 -1.8496 0.9817
0.1515 4.2413 -1.8496 0.9817
0.0000 4.2440 -1.8496 0.9817
-0.3027 4.2330 -1.8495 0.9817
-0.9181 4.2203 -1.8823 0.9813
-1.0765 4.2176 -1.8970 0.9812
-1.2375 4.2144 -1.9143 0.9810
-1.5690 4.2066 -1.9567 0.9806
-1.7405 4.2019 -1.9821 0.9804
-2.1958 4.0213 -1.9968 0.9802
-2.3395 3.9430 -1.9981 0.9802
-2.8814 3.5756 -2.0013 0.9802
-3.0071 3.4704 -2.0013 0.9802
-3.2470 3.2470 -2.0012 0.9802
-3.3607 3.1290 -2.0012 0.9802
-3.4703 3.0070 -2.0012 0.9802
-3.5753 2.8812 -2.0012 0.9802
-3.6759 2.7517 -2.0012 0.9802
-3.7717 2.6188 -2.0011 0.9802
-3.8627 2.4824 -2.0011 0.9802
-3.9488 2.3430 -2.0011 0.9802
-4.0299 2.2005 -2.0011 0.9802
-4.1059 2.0553 -2.0011 0.9802
-4.1766 1.9074 -2.0011 0.9802
-1.5984 0.5962 -0.7435 0.9926
-1.5875 0.5284 -0.7292 0.9927
-1.5707 0.4612 -0.7134 0.9929
-1.5249 0.1640 -0.6684 0.9933
-1.5293 0.1094 -0.6682 0.9933
4.3262 0.0000 -2.0025 0.9811
4.3152 0.3086 -2.0025 0.9811
4.2575 0.7681 -2.0025 0.9811
4.2273 0.9196 -2.0025 0.9811
4.0533 1.5118 -2.0025 0.9811
3.9968 1.6555 -2.0025 0.9811
3.9351 1.7971 -2.0025 0.9811
3.8685 1.9364 -2.0025 0.9811
3.7969 2.0732 -2.0024 0.9811
3.7204 2.2074 -2.0024 0.9811
3.6392 2.3388 -2.0024 0.9811
3.4631 2.5924 -2.0024 0.9811
3.3683 2.7143 -2.0024 0.9811
3.2692 2.8328 -2.0024 0.9811
2.9476 3.1660 -2.0023 0.9811
2.8327 3.2691 -2.0023 0.9811
2.7142 3.3681 -2.0023 0.9811
2.5922 3.4628 -2.0022 0.9811
2.3385 3.6388 -2.0022 0.9811
2.2071 3.7199 -2.0022 0.9811
1.9342 3.8641 -2.0002 0.9811
1.6519 3.9879 -1.9980 0.9812
1.3619 4.0919 -1.9962 0.9812
0.9138 4.2004 -1.9898 0.9812
0.4522 4.2063 -1.9582 0.9815
0.1503 4.2080 -1.9491 0.9816
0.0000 4.2082 -1.9479 0.9816
-0.1503 4.2080 -1.9491 0.9816
-0.3009 4.2074 -1.9525 0.9816
-0.9137 4.2004 -1.9898 0.9812
-1.0656 4.1748 -1.9944 0.9812
-1.5073 4.0414 -1.9966 0.9812
-1.6514 3.9868 -1.9975 0.9812
-1.9336 3.8628 -1.9995 0.9811
-2.0714 3.7935 -2.0007 0.9811
-2.4659 3.5516 -2.0014 0.9811
-2.5910 3.4613 -2.0013 0.9811
-2.7129 3.3665 -2.0013 0.9811
-3.0571 3.0572 -2.0013 0.9811
-3.5512 2.4657 -2.0012 0.9811
-3.6369 2.3373 -2.0012 0.9811
-1.3150 0.6006 -0.6692 0.9936
-1.3324 0.4435 -0.6500 0.9938
-1.3240 0.3888 -0.6388 0.9939
-1.3116 0.3348 -0.6266 0.9941
-1.3012 0.2831 -0.6164 0.9941
-1.3384 0.0957 -0.6211 0.9941
4.0824 0.0000 -2.0025 0.9820
4.0720 0.2912 -2.0025 0.9820
4.0590 0.4364 -2.0025 0.9820
4.0175 0.7248 -2.0025 0.9820
3.9169 1.1501 -2.0025 0.9820
3.8734 1.2892 -2.0025 0.9820
3.8249 1.4266 -2.0024 0.9820
3.7715 1.5622 -2.0024 0.9820
3.7133 1.6958 -2.0024 0.9820
3.5107 2.0830 -2.0024 0.9820
3.4341 2.2070 -2.0024 0.9820
3.2679 2.4463 -2.0024 0.9820
2.9876 2.7815 -2.0023 0.9820
2.7815 2.9875 -2.0023 0.9820
2.5612 3.1783 -2.0022 0.9820
2.4461 3.2677 -2.0022 0.9820
2.3279 3.3528 -2.0022 0.9820
1.9561 3.5824 -2.0021 0.9820
1.8270 3.6499 -2.0021 0.9820
1.5616 3.7702 -2.0017 0.9820
1.4255 3.8218 -2.0008 0.9820
1.1483 3.9107 -1.9993 0.9820
1.0076 3.9479 -1.9986 0.9820
0.7230 4.0076 -1.9975 0.9820
0.2904 4.0600 -1.9966 0.9820
-0.1453 4.0673 -1.9964 0.9820
-0.2904 4.0598 -1.9965 0.9820
-0.4351 4.0472 -1.9967 0.9820
-0.5794 4.0296 -1.9970 0.9820
-0.7229 4.0071 -1.9973 0.9820
-0.8657 3.9796 -1.9977 0.9820
-1.2873 3.8678 -1.9996 0.9820
-1.4251 3.8209 -2.0003 0.9820
-1.5612 3.7692 -2.0012 0.9820
-1.6950 3.7116 -2.0015 0.9820
-2.2059 3.4325 -2.0014 0.9820
-2.4451 3.2663 -2.0014 0.9820
-2.5601 3.1769 -2.0013 0.9820
-2.7801 2.9861 -2.0013 0.9820
-2.8849 2.8849 -2.0013 0.9820
-2.9860 2.7801 -2.0013 0.9820
-3.3512 2.3268 -2.0012 0.9820
-1.1113 0.6068 -0.6211 0.9944
-1.1291 0.5652 -0.6194 0.9944
-1.1400 0.5206 -0.6148 0.9944
-1.1791 0.2127 -0.5877 0.9947
-1.1921 0.1282 -0.5881 0.9947
-1.1953 0.0855 -0.5878 0.9947
-1.1964 0.0427 -0.5873 0.9947
3.8600 0.0000 -2.0025 0.9828
3.8575 0.1378 -2.0025 0.9828
3.8501 0.2754 -2.0025 0.9828
3.8378 0.4126 -2.0024 0.9828
3.8206 0.5493 -2.0024 0.9828
3.7986 0.6853 -2.0024 0.9828
3.5110 1.6034 -2.0024 0.9828
3.3195 1.9695 -2.0024 0.9828
3.2470 2.0867 -2.0023 0.9828
3.0898 2.3130 -2.0023 0.9828
3.0053 2.4218 -2.0023 0.9828
2.9169 2.5275 -2.0023 0.9828
2.7291 2.7291 -2.0023 0.9828
2.5274 2.9168 -2.0022 0.9828
2.4217 3.0052 -2.0022 0.9828
2.2011 3.1702 -2.0022 0.9828
2.0865 3.2467 -2.0022 0.9828
1.6032 3.5104 -2.0021 0.9828
1.3486 3.6158 -2.0020 0.9828
1.0872 3.7027 -2.0020 0.9828
0.9544 3.7391 -2.0020 0.9828
0.8201 3.7701 -2.0016 0.9828
0.6849 3.7961 -2.0011 0.9828
0.0000 3.8552 -2.0000 0.9828
-0.2750 3.8456 -2.0001 0.9828
-0.5488 3.8170 -2.0006 0.9828
-0.6848 3.7957 -2.0009 0.9828
-0.8200 3.7696 -2.0013 0.9828
-0.9542 3.7385 -2.0016 0.9828
-1.2184 3.6608 -2.0016 0.9828
-1.4764 3.5645 -2.0015 0.9828
-1.8489 3.3861 -2.0015 0.9828
-1.9686 3.3179 -2.0014 0.9828
-2.0858 3.2455 -2.0014 0.9828
-2.4207 3.0039 -2.0014 0.9828
-2.5263 2.9155 -2.0014 0.9828
-2.6287 2.8235 -2.0013 0.9828
-2.7278 2.7278 -2.0013 0.9828
-2.9154 2.5262 -2.0013 0.9828
-3.0037 2.4206 -2.0013 0.9828
-3.0882 2.3118 -2.0013 0.9828
-3.1687 2.2001 -2.0012 0.9828
-1.0118 0.5525 -0.5981 0.9948
-1.0298 0.5155 -0.5974 0.9948
-1.0430 0.4763 -0.5948 0.9948
-1.0617 0.3534 -0.5805 0.9950
-1.0814 0.2353 -0.5741 0.9950
-1.0905 0.1968 -0.5749 0.9950
-1.0974 0.1578 -0.5752 0.9950
-1.1024 0.1185 -0.5752 0.9950
3.6467 0.2608 -2.0024 0.9835
3.6188 0.5203 -2.0024 0.9835
3.5079 1.0300 -2.0024 0.9835
3.4689 1.1546 -2.0024 0.9835
3.4255 1.2776 -2.0024 0.9835
3.3256 1.5187 -2.0024 0.9835
3.2087 1.7521 -2.0023 0.9835
3.0755 1.9765 -2.0023 0.9835
2.9266 2.1908 -2.0023 0.9835
2.7628 2.3940 -2.0023 0.9835
2.6756 2.4911 -2.0023 0.9835
2.3939 2.7627 -2.0022 0.9835
2.2938 2.8464 -2.0022 0.9835
2.1907 2.9264 -2.0022 0.9835
2.0849 3.0027 -2.0021 0.9835
1.7519 3.2083 -2.0021 0.9835
1.6362 3.2688 -2.0021 0.9835
1.5185 3.3250 -2.0021 0.9835
1.3988 3.3771 -2.0020 0.9835
1.2774 3.4248 -2.0020 0.9835
1.0298 3.5071 -2.0020 0.9835
0.9040 3.5416 -2.0019 0.9835
0.7770 3.5716 -2.0019 0.9835
0.6490 3.5970 -2.0019 0.9835
0.3907 3.6341 -2.0019 0.9835
0.0000 3.6549 -2.0018 0.9835
-0.3907 3.6338 -2.0017 0.9835
-0.5201 3.6175 -2.0017 0.9835
-0.6489 3.5966 -2.0017 0.9835
-0.9038 3.5411 -2.0016 0.9835
-1.0296 3.5065 -2.0016 0.9835
-1.8647 3.1427 -2.0015 0.9835
-1.9756 3.0742 -2.0014 0.9835
-2.0841 3.0017 -2.0014 0.9835
-2.2929 2.8453 -2.0014 0.9835
-2.4900 2.6744 -2.0014 0.9835
-2.8451 2.2928 -2.0013 0.9835
-0.8661 0.6014 -0.5775 0.9952
-0.8881 0.5708 -0.5782 0.9952
-0.9084 0.5390 -0.5785 0.9952
-0.9677 0.4009 -0.5737 0.9952
-0.9741 0.3633 -0.5694 0.9953
-0.9785 0.3257 -0.5648 0.9953
-0.9820 0.2883 -0.5606 0.9953
-0.9938 0.2536 -0.5618 0.9953
-1.0039 0.2184 -0.5627 0.9953
-1.0124 0.1827 -0.5634 0.9953
-1.0236 0.1101 -0.5639 0.9953
-1.0265 0.0734 -0.5637 0.9953
-1.0276 0.0367 -0.5632 0.9953
2.0197 0.0000 -1.1661 0.9907
2.0359 0.1456 -1.1784 0.9906
2.0301 0.2919 -1.1841 0.9906
1.9352 0.5682 -1.1644 0.9907
1.8682 0.6968 -1.1512 0.9908
1.8620 0.7713 -1.1636 0.9907
1.8508 0.8452 -1.1747 0.9906
3.1013 1.5524 -2.0023 0.9841
2.7763 2.0783 -2.0023 0.9841
2.7003 2.1761 -2.0023 0.9841
2.6209 2.2711 -2.0022 0.9841
2.4522 2.4522 -2.0022 0.9841
2.1760 2.7002 -2.0022 0.9841
2.0782 2.7761 -2.0021 0.9841
1.9778 2.8485 -2.0021 0.9841
1.8748 2.9173 -2.0021 0.9841
1.5522 3.1009 -2.0021 0.9841
1.3270 3.2036 -2.0020 0.9841
1.2118 3.2489 -2.0020 0.9841
1.0950 3.2901 -2.0020 0.9841
0.9769 3.3270 -2.0020 0.9841
0.8575 3.3598 -2.0019 0.9841
0.6157 3.4123 -2.0019 0.9841
0.4935 3.4321 -2.0019 0.9841
0.1238 3.4650 -2.0018 0.9841
0.0000 3.4672 -2.0018 0.9841
-0.2473 3.4583 -2.0017 0.9841
-0.4934 3.4318 -2.0017 0.9841
-0.6156 3.4119 -2.0017 0.9841
-0.7369 3.3878 -2.0017 0.9841
-0.9767 3.3265 -2.0016 0.9841
-1.2115 3.2483 -2.0016 0.9841
-1.3267 3.2029 -2.0016 0.9841
-1.7689 2.9814 -2.0015 0.9841
-1.8742 2.9163 -2.0015 0.9841
-1.9771 2.8475 -2.0014 0.9841
-2.1751 2.6992 -2.0014 0.9841
-2.2701 2.6198 -2.0014 0.9841
-2.5370 2.3621 -2.0013 0.9841
-0.7671 0.6182 -0.5688 0.9955
-0.7845 0.5873 -0.5658 0.9955
-0.8178 0.5256 -0.5613 0.9955
-0.8364 0.4963 -0.5615 0.9955
-0.8534 0.4660 -0.5614 0.9955
-0.8687 0.4349 -0.5609 0.9955
-0.9150 0.2687 -0.5506 0.9956
-0.9259 0.2363 -0.5517 0.9956
-0.9352 0.2035 -0.5526 0.9956
-0.9430 0.1702 -0.5532 0.9956
-0.9492 0.1365 -0.5536 0.9956
-0.9537 0.1025 -0.5538 0.9956
-0.9564 0.0684 -0.5536 0.9956
-0.9575 0.0342 -0.5532 0.9956
