ply
format ascii 1.0
element vertex 768
property float32 x
property float32 y
property float32 z
property float32 I
end_header
7.4337 4.7774 -1.2520 0.9649
1.9811 5.3116 -0.8032 0.9774
0.0000 5.1727 -0.7329 0.9793
-0.1840 5.1531 -0.7306 0.9794
1.5237 5.1890 -0.8909 0.9783
0.9355 5.1854 -0.8680 0.9789
0.5596 5.2049 -0.8624 0.9790
-0.3728 5.2126 -0.8609 0.9790
7.6766 4.5547 -1.6778 0.9643
4.3988 8.7876 -1.8471 0.9608
4.0821 8.9385 -1.8470 0.9608
2.1079 5.0890 -1.0353 0.9778
2.0881 9.5989 -1.8464 0.9608
0.7367 5.1239 -0.9730 0.9792
-0.3726 5.2104 -0.9819 0.9790
-1.7435 9.6638 -1.8457 0.9608
-2.0873 9.5953 -1.8457 0.9608
-2.4284 9.5145 -1.8457 0.9608
-2.7664 9.4217 -1.8457 0.9608
-3.1009 9.3168 -1.8456 0.9608
-4.7058 8.6182 -1.8456 0.9608
-5.3087 8.2606 -1.8457 0.9608
-5.6003 8.0659 -1.8457 0.9608
-5.8847 7.8610 -1.8457 0.9608
-6.1616 7.6461 -1.8457 0.9608
-6.4307 7.4215 -1.8458 0.9608
-6.9441 6.9441 -1.8459 0.9608
-7.1878 6.6921 -1.8459 0.9608
-8.0681 5.6018 -1.8462 0.9608
-8.2632 5.3105 -1.8462 0.9608
-8.4478 5.0123 -1.8463 0.9608
-8.6217 4.7078 -1.8464 0.9608
-8.7847 4.3973 -1.8465 0.9608
9.4777 0.0000 -2.0034 0.9620
9.4710 0.3383 -2.0033 0.9620
9.3788 1.3485 -2.0029 0.9620
9.2575 2.0138 -2.0026 0.9620
9.1791 2.3428 -2.0025 0.9620
9.0890 2.6688 -2.0023 0.9620
8.8567 3.3034 -1.9981 0.9621
8.6166 3.5691 -1.9714 0.9626
7.8240 3.9164 -1.8495 0.9649
7.6787 4.1929 -1.8493 0.9649
7.5237 4.4640 -1.8492 0.9649
7.1851 4.9887 -1.8490 0.9649
7.0020 5.2416 -1.8488 0.9649
6.8100 5.4878 -1.8487 0.9649
5.9581 6.3995 -1.8482 0.9649
5.4857 6.8074 -1.8480 0.9649
4.4601 7.5170 -1.8476 0.9649
3.9120 7.8152 -1.8474 0.9649
3.6304 7.9494 -1.8473 0.9649
2.1190 5.1158 -1.1705 0.9776
1.9111 5.1240 -1.1560 0.9779
1.5228 5.1862 -1.1425 0.9781
2.1607 8.4657 -1.8468 0.9649
0.9213 5.1068 -1.0969 0.9790
0.6232 8.7132 -1.8465 0.9649
-0.3727 5.2109 -1.1043 0.9789
-0.9336 8.6842 -1.8462 0.9649
-2.4605 8.3798 -1.8461 0.9649
-2.7580 8.2866 -1.8461 0.9649
-3.0520 8.1828 -1.8461 0.9649
-3.3421 8.0686 -1.8461 0.9649
-3.6280 7.9442 -1.8461 0.9649
-4.1855 7.6651 -1.8461 0.9649
-5.2339 6.9917 -1.8461 0.9649
-5.4802 6.8006 -1.8462 0.9649
-5.7196 6.6008 -1.8462 0.9649
-5.9516 6.3925 -1.8462 0.9649
-6.3928 5.9519 -1.8463 0.9649
-6.6014 5.7201 -1.8464 0.9649
-6.9930 5.2349 -1.8465 0.9649
-7.3492 4.7231 -1.8466 0.9649
-7.5134 4.4579 -1.8467 0.9649
-7.6680 4.1870 -1.8468 0.9649
-8.5694 3.9135 -1.9914 0.9622
-8.7240 3.6136 -1.9960 0.9621
-8.8610 3.3050 -1.9991 0.9621
-9.0751 2.6647 -1.9993 0.9621
-9.1649 2.3392 -1.9994 0.9621
-9.3640 1.3463 -1.9997 0.9621
8.5009 0.6080 -2.0030 0.9656
8.4732 0.9110 -2.0029 0.9656
8.4348 1.2127 -2.0028 0.9656
8.3258 1.8112 -2.0025 0.9656
7.7331 3.5316 -1.9980 0.9657
7.1152 3.8852 -1.9053 0.9672
6.7670 4.0150 -1.8493 0.9682
6.2979 4.7145 -1.8489 0.9682
6.1252 4.9360 -1.8488 0.9682
5.9448 5.1512 -1.8487 0.9682
5.7568 5.3598 -1.8486 0.9682
5.3591 5.7561 -1.8484 0.9682
4.7123 6.2950 -1.8481 0.9682
4.4844 6.4588 -1.8480 0.9682
4.2508 6.6144 -1.8479 0.9682
3.2656 7.1506 -1.8475 0.9682
1.5001 5.1088 -1.2514 0.9784
0.9154 5.0739 -1.2117 0.9790
0.5606 7.8380 -1.8468 0.9682
-0.1841 5.1546 -1.2122 0.9790
-0.3727 5.2115 -1.2279 0.9788
-1.1182 7.7769 -1.8465 0.9682
-2.2134 7.5382 -1.8464 0.9682
-2.4810 7.4544 -1.8464 0.9682
-3.0065 7.2583 -1.8464 0.9682
-3.2636 7.1464 -1.8464 0.9682
-3.7651 6.8954 -1.8464 0.9682
-4.0089 6.7566 -1.8464 0.9682
-4.4807 6.4535 -1.8465 0.9682
-5.1451 5.9378 -1.8465 0.9682
-5.3539 5.7505 -1.8466 0.9682
-5.5558 5.5559 -1.8466 0.9682
-6.1183 4.9305 -1.8467 0.9682
-6.2906 4.7091 -1.8468 0.9682
-6.4549 4.4817 -1.8469 0.9682
-8.4887 0.6071 -2.0001 0.9656
-8.5054 0.3038 -2.0002 0.9656
7.7364 0.0000 -2.0031 0.9685
7.7159 0.5518 -2.0029 0.9685
7.6909 0.8269 -2.0028 0.9685
7.6561 1.1008 -2.0027 0.9685
7.6115 1.3733 -2.0026 0.9685
7.4933 1.9125 -2.0023 0.9686
7.4199 2.1787 -2.0022 0.9686
7.3370 2.4420 -2.0021 0.9686
7.2447 2.7021 -2.0020 0.9686
7.0327 3.2117 -2.0018 0.9686
6.2659 4.0268 -1.9285 0.9697
5.3964 4.6760 -1.8488 0.9709
5.0485 5.0485 -1.8486 0.9709
4.6750 5.3952 -1.8484 0.9709
3.8589 6.0045 -1.8480 0.9709
3.1945 6.3817 -1.8478 0.9709
2.9645 6.4914 -1.8477 0.9709
2.1016 5.0737 -1.4219 0.9776
1.8953 5.0815 -1.4042 0.9778
1.6938 5.0891 -1.3887 0.9781
1.5001 5.1088 -1.3786 0.9782
1.7645 6.9132 -1.8473 0.9709
1.1077 5.0920 -1.3493 0.9787
0.7315 5.0878 -1.3309 0.9790
0.5478 5.0948 -1.3267 0.9791
0.5089 7.1156 -1.8471 0.9710
0.2546 7.1291 -1.8470 0.9710
0.0000 5.1755 -1.3400 0.9788
-1.5162 6.9697 -1.8468 0.9710
-1.7639 6.9110 -1.8468 0.9710
-2.0095 6.8436 -1.8467 0.9710
-2.2524 6.7675 -1.8467 0.9710
-2.4925 6.6827 -1.8467 0.9710
-2.9629 6.4879 -1.8467 0.9710
-3.1926 6.3780 -1.8467 0.9710
-3.8561 6.0003 -1.8467 0.9710
-4.0679 5.8589 -1.8468 0.9710
-4.2744 5.7100 -1.8468 0.9710
-4.4756 5.5539 -1.8468 0.9710
-4.8605 5.2206 -1.8469 0.9710
-5.3910 4.6714 -1.8470 0.9710
-6.1699 4.2838 -1.9448 0.9694
-6.4750 4.1613 -1.9929 0.9687
-6.6311 3.9344 -1.9964 0.9686
-6.7772 3.7006 -1.9993 0.9686
-6.9052 3.4565 -1.9994 0.9686
-7.0244 3.2080 -1.9994 0.9686
-7.1347 2.9553 -1.9995 0.9686
-7.2359 2.6988 -1.9996 0.9686
-7.3279 2.4390 -1.9997 0.9686
-7.5476 1.6419 -1.9999 0.9686
-7.6017 1.3715 -2.0000 0.9686
-7.6809 0.8258 -2.0002 0.9686
-7.7059 0.5511 -2.0003 0.9686
-7.7210 0.2758 -2.0004 0.9686
7.0754 0.0000 -2.0030 0.9710
7.0338 0.7562 -2.0027 0.9710
7.0020 1.0067 -2.0026 0.9710
6.9613 1.2559 -2.0025 0.9710
6.9117 1.5035 -2.0024 0.9710
6.7861 1.9926 -2.0022 0.9710
6.6260 2.4714 -2.0020 0.9710
6.5332 2.7062 -2.0019 0.9710
6.4321 2.9375 -2.0018 0.9710
6.2056 3.3885 -2.0016 0.9710
6.0801 3.6075 -2.0014 0.9710
5.9379 3.8161 -1.9982 0.9711
5.5288 4.1388 -1.9551 0.9717
5.2073 4.1963 -1.8932 0.9726
4.9357 4.2768 -1.8489 0.9732
4.7797 4.4501 -1.8488 0.9732
4.6176 4.6176 -1.8487 0.9732
4.2760 4.9348 -1.8485 0.9732
3.7235 5.3629 -1.8482 0.9732
3.5296 5.4921 -1.8482 0.9732
3.3312 5.6143 -1.8481 0.9732
3.1285 5.7294 -1.8480 0.9732
2.7116 5.9375 -1.8479 0.9732
2.1016 5.0738 -1.5547 0.9774
1.8953 5.0816 -1.5354 0.9777
1.6938 5.0892 -1.5184 0.9779
1.5001 5.1088 -1.5073 0.9781
1.1077 5.0921 -1.4753 0.9786
0.9167 5.0809 -1.4616 0.9788
0.2329 6.5210 -1.8472 0.9732
0.0000 5.1758 -1.4652 0.9787
-0.1841 5.1553 -1.4604 0.9788
-0.3728 5.2126 -1.4794 0.9785
-0.6974 6.4873 -1.8471 0.9732
-0.9285 6.4582 -1.8471 0.9732
-1.1584 6.4208 -1.8470 0.9732
-1.6135 6.3217 -1.8470 0.9732
-2.4967 6.0276 -1.8470 0.9732
-3.1267 5.7262 -1.8470 0.9732
-3.3291 5.6109 -1.8470 0.9732
-3.5273 5.4886 -1.8470 0.9732
-3.7210 5.3592 -1.8470 0.9732
-4.2727 4.9309 -1.8471 0.9732
-4.4460 4.7754 -1.8471 0.9732
-4.7808 4.4511 -1.8492 0.9732
-5.4177 4.3659 -1.9697 0.9715
-5.6376 4.2203 -1.9936 0.9711
-5.9415 3.8184 -1.9994 0.9711
-6.1991 3.3850 -1.9995 0.9711
-6.3161 3.1617 -1.9996 0.9711
-6.4252 2.9343 -1.9996 0.9711
-6.5260 2.7032 -1.9997 0.9711
-6.6186 2.4686 -1.9998 0.9711
-6.8453 1.7472 -2.0000 0.9711
-7.0255 0.7553 -2.0003 0.9711
-7.0483 0.5041 -2.0004 0.9711
-7.0621 0.2522 -2.0005 0.9711
6.5074 0.2324 -2.0028 0.9731
6.4946 0.4645 -2.0027 0.9731
6.4736 0.6960 -2.0026 0.9731
6.2458 1.8339 -2.0022 0.9731
6.1760 2.0556 -2.0021 0.9731
6.0131 2.4907 -2.0019 0.9731
5.9201 2.7036 -2.0018 0.9731
5.7116 3.1188 -2.0016 0.9731
5.5964 3.3205 -2.0015 0.9731
5.2012 3.8936 -1.9984 0.9732
4.5869 4.2706 -1.9276 0.9741
4.0956 4.3990 -1.8487 0.9752
3.9358 4.5422 -1.8486 0.9752
3.6014 4.8109 -1.8484 0.9752
3.2488 5.0552 -1.8483 0.9752
3.0661 5.1677 -1.8482 0.9752
2.8797 5.2737 -1.8481 0.9752
2.6895 5.3729 -1.8481 0.9752
2.4959 5.4653 -1.8480 0.9752
2.1016 5.0738 -1.6892 0.9773
1.8953 5.0816 -1.6682 0.9776
1.6938 5.0892 -1.6498 0.9778
1.5001 5.1088 -1.6377 0.9780
0.7315 5.0879 -1.5810 0.9787
0.5478 5.0949 -1.5761 0.9788
0.4285 5.9912 -1.8475 0.9752
0.0000 5.1762 -1.5921 0.9786
-0.1841 5.1557 -1.5868 0.9786
-0.3729 5.2132 -1.6076 0.9784
-1.0663 5.9103 -1.8472 0.9752
-1.4852 5.8191 -1.8472 0.9752
-1.6920 5.7623 -1.8472 0.9752
-1.8965 5.6982 -1.8472 0.9752
-2.0987 5.6269 -1.8472 0.9752
-2.6882 5.3703 -1.8472 0.9752
-3.0644 5.1649 -1.8472 0.9752
-3.2468 5.0522 -1.8472 0.9752
-3.4251 4.9331 -1.8472 0.9752
-3.7684 4.6763 -1.8472 0.9752
-3.9329 4.5389 -1.8473 0.9752
-5.2041 3.8957 -1.9995 0.9732
-5.3399 3.7076 -1.9995 0.9732
-5.5911 3.3174 -1.9996 0.9732
-5.7061 3.1158 -1.9997 0.9732
-6.0070 2.4882 -1.9999 0.9732
-6.2392 1.8320 -2.0001 0.9732
-6.3008 1.6082 -2.0001 0.9732
-6.4374 0.9256 -2.0004 0.9732
-6.4666 0.6952 -2.0004 0.9731
6.0211 0.2150 -2.0027 0.9749
5.8364 1.4896 -2.0022 0.9749
5.7792 1.6969 -2.0021 0.9749
5.4779 2.5017 -2.0018 0.9749
5.2850 2.8858 -2.0016 0.9749
5.0653 3.2553 -2.0014 0.9749
4.6877 3.7776 -2.0012 0.9749
4.5448 3.9381 -1.9990 0.9750
3.7802 4.3626 -1.9188 0.9760
3.5423 4.3958 -1.8766 0.9765
3.3326 4.4518 -1.8485 0.9768
3.0063 4.6779 -1.8484 0.9768
2.4888 4.9719 -1.8482 0.9768
2.3096 5.0574 -1.8481 0.9768
2.0965 5.0613 -1.8210 0.9772
1.5001 5.1088 -1.7699 0.9778
1.1078 5.0923 -1.7323 0.9783
0.9167 5.0809 -1.7162 0.9785
0.5478 5.0949 -1.7033 0.9786
-0.3729 5.2138 -1.7375 0.9782
-0.5941 5.5260 -1.8475 0.9768
-0.7909 5.5012 -1.8474 0.9768
-0.9868 5.4694 -1.8474 0.9768
-1.1814 5.4307 -1.8474 0.9768
-1.7551 5.2731 -1.8474 0.9768
-1.9421 5.2071 -1.8473 0.9768
-2.1267 5.1345 -1.8473 0.9768
-2.3087 5.0553 -1.8473 0.9768
-2.4876 4.9697 -1.8473 0.9768
-2.6634 4.8777 -1.8473 0.9768
-2.8358 4.7796 -1.8474 0.9768
-3.0046 4.6753 -1.8474 0.9768
-3.3992 4.5409 -1.8855 0.9764
-3.6411 4.5184 -1.9289 0.9758
-3.8944 4.4944 -1.9768 0.9752
-4.3991 4.0958 -1.9980 0.9750
-4.6840 3.7746 -1.9996 0.9750
-4.8158 3.6051 -1.9997 0.9750
-4.9415 3.4310 -1.9997 0.9750
-5.0609 3.2525 -1.9997 0.9750
-5.6375 2.1027 -2.0001 0.9750
-5.7736 1.6953 -2.0002 0.9750
-5.8306 1.4882 -2.0003 0.9750
-5.8802 1.2792 -2.0003 0.9750
-5.9223 1.0685 -2.0004 0.9750
-5.9569 0.8565 -2.0005 0.9750
-5.9839 0.6433 -2.0005 0.9750
-6.0033 0.4294 -2.0006 0.9749
-6.0150 0.2148 -2.0007 0.9749
5.6004 0.0000 -2.0027 0.9765
5.5966 0.1999 -2.0027 0.9765
5.5857 0.3995 -2.0026 0.9765
5.5103 0.9942 -2.0024 0.9765
5.4250 1.3846 -2.0022 0.9765
5.3719 1.5773 -2.0021 0.9765
5.0054 2.5056 -2.0017 0.9765
4.8135 2.8560 -2.0016 0.9765
4.7084 3.0259 -2.0015 0.9765
4.3574 3.5114 -2.0012 0.9765
4.2292 3.6646 -2.0012 0.9765
4.0955 3.8130 -2.0011 0.9765
3.9541 3.9541 -1.9997 0.9765
3.2975 4.4049 -1.9677 0.9769
3.0771 4.4318 -1.9294 0.9773
2.6566 4.4774 -1.8618 0.9781
2.4771 4.5364 -1.8483 0.9783
1.8060 4.8422 -1.8481 0.9783
1.4559 4.9584 -1.8480 0.9783
1.0924 5.0215 -1.8377 0.9784
0.7293 5.0727 -1.8327 0.9785
0.3686 5.1538 -1.8478 0.9783
0.0000 5.1668 -1.8477 0.9783
-0.5523 5.1370 -1.8476 0.9783
-0.9173 5.0844 -1.8476 0.9783
-1.8054 4.8406 -1.8475 0.9783
-1.9771 4.7730 -1.8475 0.9783
-2.3125 4.6198 -1.8475 0.9783
-2.9299 4.5591 -1.9380 0.9772
-3.5003 4.3436 -1.9949 0.9766
-3.8088 4.0910 -1.9989 0.9765
-4.2261 3.6620 -1.9997 0.9765
-4.4767 3.3513 -1.9998 0.9765
-4.5936 3.1894 -1.9998 0.9765
-4.7046 3.0235 -1.9999 0.9765
-4.9086 2.6803 -2.0000 0.9765
-5.1673 2.1404 -2.0001 0.9765
-5.2406 1.9546 -2.0002 0.9765
-5.4200 1.3834 -2.0004 0.9765
-5.5373 0.7962 -2.0006 0.9765
-5.5913 0.1997 -2.0008 0.9765
5.2122 0.3728 -2.0025 0.9779
5.1954 0.5586 -2.0025 0.9779
5.1720 0.7436 -2.0024 0.9779
5.0623 1.2921 -2.0022 0.9779
4.9569 1.6498 -2.0020 0.9779
4.8262 1.9991 -2.0019 0.9779
4.7516 2.1700 -2.0018 0.9779
4.6709 2.3381 -2.0017 0.9779
4.3937 2.8237 -2.0015 0.9779
4.2900 2.9786 -2.0014 0.9779
4.1808 3.1297 -2.0013 0.9779
4.0663 3.2768 -2.0013 0.9779
3.4189 3.9457 -2.0007 0.9779
3.1234 4.1723 -1.9973 0.9779
2.4446 4.4768 -1.9547 0.9784
2.2511 4.4971 -1.9272 0.9787
1.8773 4.5321 -1.8799 0.9792
1.3587 4.6273 -1.8481 0.9796
1.0251 4.7122 -1.8480 0.9796
-0.3440 4.8094 -1.8478 0.9796
-0.6862 4.7725 -1.8477 0.9796
-1.1924 4.6717 -1.8477 0.9796
-1.7189 4.6088 -1.8850 0.9791
-1.9048 4.5987 -1.9075 0.9789
-2.2908 4.5764 -1.9612 0.9783
-2.4913 4.5625 -1.9921 0.9780
-2.8146 4.3796 -1.9950 0.9779
-2.9714 4.2797 -1.9966 0.9779
-3.2743 4.0632 -1.9997 0.9779
-3.4173 3.9438 -1.9998 0.9779
-3.6900 3.6900 -1.9998 0.9779
-3.8194 3.5560 -1.9998 0.9779
-4.0635 3.2746 -1.9999 0.9779
-4.2869 2.9765 -2.0000 0.9779
-4.3905 2.8216 -2.0000 0.9779
-4.7478 2.1683 -2.0002 0.9779
-4.8222 1.9975 -2.0002 0.9779
-4.8906 1.8241 -2.0003 0.9779
-4.9527 1.6484 -2.0003 0.9779
-5.0085 1.4707 -2.0004 0.9779
-5.1375 0.9269 -2.0006 0.9779
-5.1675 0.7430 -2.0006 0.9779
4.8803 0.3491 -2.0025 0.9791
4.8646 0.5230 -2.0024 0.9791
4.8426 0.6963 -2.0023 0.9791
4.8145 0.8686 -2.0023 0.9791
4.7803 1.0399 -2.0022 0.9791
4.6936 1.3782 -2.0021 0.9791
4.6413 1.5448 -2.0020 0.9791
4.5830 1.7094 -2.0019 0.9791
4.2925 2.3439 -2.0017 0.9791
4.1140 2.6439 -2.0015 0.9791
3.9147 2.9305 -2.0014 0.9791
3.8075 3.0683 -2.0013 0.9791
3.6954 3.2021 -2.0012 0.9791
3.5786 3.3318 -2.0012 0.9791
3.4573 3.4573 -2.0011 0.9791
3.2017 3.6949 -2.0010 0.9791
3.0676 3.8067 -2.0009 0.9791
2.7875 4.0148 -2.0004 0.9791
2.4905 4.1975 -1.9976 0.9791
2.3376 4.2811 -1.9963 0.9791
2.0240 4.4319 -1.9941 0.9792
1.6873 4.5240 -1.9761 0.9793
1.1638 4.5599 -1.9261 0.9799
0.6596 4.5878 -1.8970 0.9802
0.4938 4.5928 -1.8906 0.9802
0.3288 4.5974 -1.8864 0.9803
0.1644 4.6016 -1.8845 0.9803
0.0000 4.6053 -1.8848 0.9803
-0.3298 4.6116 -1.8922 0.9802
-0.4959 4.6129 -1.8988 0.9801
-0.6629 4.6108 -1.9065 0.9801
-1.0018 4.6052 -1.9289 0.9798
-1.1745 4.6017 -1.9437 0.9797
-1.3500 4.5977 -1.9612 0.9795
-1.8641 4.5003 -1.9936 0.9792
-2.0246 4.4333 -1.9947 0.9792
-2.4915 4.1992 -1.9984 0.9791
-2.6417 4.1106 -1.9998 0.9791
-3.0660 3.8047 -1.9999 0.9791
-3.1999 3.6929 -1.9999 0.9791
-3.4553 3.4553 -1.9999 0.9791
-3.5765 3.3298 -2.0000 0.9791
-3.6931 3.2001 -2.0000 0.9791
-3.9121 2.9286 -2.0001 0.9791
-4.0142 2.7871 -2.0001 0.9791
-4.1112 2.6421 -2.0001 0.9791
-4.2029 2.4937 -2.0002 0.9791
-4.2894 2.3422 -2.0002 0.9791
-4.3703 2.1876 -2.0002 0.9791
-4.4457 2.0303 -2.0003 0.9791
-4.5155 1.8704 -2.0003 0.9791
-4.5795 1.7081 -2.0004 0.9791
-4.6376 1.5436 -2.0004 0.9791
-4.6899 1.3771 -2.0005 0.9791
-4.7362 1.2089 -2.0005 0.9791
-2.1703 0.3916 -0.9026 0.9905
-1.9308 0.0690 -0.7907 0.9917
4.5950 0.0000 -2.0026 0.9802
4.5919 0.1640 -2.0025 0.9802
4.5682 0.4911 -2.0024 0.9802
4.5213 0.8157 -2.0023 0.9802
4.4891 0.9766 -2.0022 0.9802
4.4513 1.1361 -2.0021 0.9802
4.4077 1.2942 -2.0021 0.9802
4.3039 1.6053 -2.0019 0.9802
4.1072 2.0559 -2.0017 0.9802
3.6763 2.7521 -2.0014 0.9802
3.5756 2.8814 -2.0013 0.9802
3.3608 3.1290 -2.0012 0.9802
3.2468 3.2468 -2.0011 0.9802
3.1288 3.3606 -2.0011 0.9802
2.7514 3.6754 -2.0009 0.9802
2.6184 3.7712 -2.0008 0.9802
2.4820 3.8621 -2.0008 0.9802
2.3425 3.9481 -2.0007 0.9802
2.2001 4.0291 -2.0007 0.9802
2.0539 4.1031 -1.9997 0.9802
1.4463 4.3455 -1.9960 0.9802
1.1319 4.4347 -1.9947 0.9802
0.8122 4.5020 -1.9937 0.9802
0.6509 4.5273 -1.9933 0.9802
0.4888 4.5469 -1.9930 0.9802
-0.1632 4.5696 -1.9928 0.9802
-0.3262 4.5613 -1.9930 0.9802
-0.6510 4.5277 -1.9935 0.9802
-0.8123 4.5025 -1.9939 0.9802
-1.2901 4.3937 -1.9957 0.9802
-1.7546 4.2361 -1.9983 0.9802
-1.9057 4.1728 -1.9993 0.9802
-2.0541 4.1035 -1.9999 0.9802
-2.7501 3.6737 -2.0000 0.9802
-2.8795 3.5732 -2.0000 0.9802
-3.1271 3.3588 -2.0000 0.9802
-3.2450 3.2450 -2.0000 0.9802
-3.3588 3.1272 -2.0001 0.9802
-3.4684 3.0054 -2.0001 0.9802
-3.7699 2.6175 -2.0002 0.9802
-3.9472 2.3420 -2.0003 0.9802
-4.0283 2.1996 -2.0003 0.9802
-4.2407 1.7566 -2.0004 0.9802
-1.5707 0.4612 -0.7134 0.9929
-1.5484 0.3952 -0.6965 0.9931
-1.5151 0.2179 -0.6671 0.9933
-1.5249 0.1639 -0.6684 0.9933
4.3262 0.0000 -2.0025 0.9811
4.3149 0.3086 -2.0024 0.9811
4.3010 0.4624 -2.0023 0.9811
4.2568 0.7680 -2.0022 0.9811
4.2266 0.9194 -2.0022 0.9811
4.1909 1.0697 -2.0021 0.9811
4.1037 1.3658 -2.0020 0.9811
3.9338 1.7965 -2.0018 0.9811
3.8671 1.9357 -2.0017 0.9811
3.7954 2.0724 -2.0017 0.9811
3.6376 2.3378 -2.0015 0.9811
3.5518 2.4660 -2.0015 0.9811
3.1643 2.9460 -2.0012 0.9811
3.0570 3.0570 -2.0012 0.9811
2.9459 3.1641 -2.0011 0.9811
2.7125 3.3660 -2.0010 0.9811
2.5906 3.4606 -2.0010 0.9811
2.4653 3.5507 -2.0009 0.9811
2.2056 3.7174 -2.0008 0.9811
1.9347 3.8651 -2.0007 0.9811
1.7955 3.9315 -2.0006 0.9811
1.5104 4.0494 -2.0006 0.9811
1.3647 4.1002 -2.0003 0.9811
1.0680 4.1845 -1.9990 0.9811
0.9178 4.2189 -1.9985 0.9811
0.7664 4.2482 -1.9981 0.9812
0.6142 4.2720 -1.9978 0.9812
0.3078 4.3039 -1.9973 0.9812
-0.4613 4.2910 -1.9977 0.9812
-0.6143 4.2724 -1.9980 0.9812
-0.7665 4.2486 -1.9983 0.9812
-0.9179 4.2195 -1.9988 0.9811
-1.0682 4.1852 -1.9994 0.9811
-1.2173 4.1457 -2.0000 0.9811
-1.5100 4.0484 -2.0000 0.9811
-1.6535 3.9919 -2.0000 0.9811
-2.0708 3.7923 -2.0000 0.9811
-2.3360 3.6349 -2.0001 0.9811
-2.4643 3.5493 -2.0001 0.9811
-2.8296 3.2656 -2.0001 0.9811
-3.0554 3.0555 -2.0002 0.9811
-3.1626 2.9445 -2.0002 0.9811
-3.2657 2.8298 -2.0002 0.9811
-3.3647 2.7114 -2.0002 0.9811
-3.4593 2.5896 -2.0003 0.9811
-3.5496 2.4646 -2.0003 0.9811
-3.6354 2.3363 -2.0003 0.9811
-3.7165 2.2051 -2.0004 0.9811
-1.3150 0.6006 -0.6692 0.9936
-1.3324 0.4970 -0.6582 0.9938
-1.3324 0.4435 -0.6500 0.9938
-1.3240 0.3888 -0.6388 0.9939
-1.3116 0.3348 -0.6266 0.9941
-1.3012 0.2831 -0.6164 0.9941
-1.3160 0.2374 -0.6190 0.9941
-1.3273 0.1908 -0.6207 0.9941
-1.3350 0.1435 -0.6215 0.9941
-1.3376 0.0478 -0.6195 0.9941
4.0717 0.2912 -2.0024 0.9820
3.9884 0.8676 -2.0021 0.9820
3.9161 1.1499 -2.0020 0.9820
3.8724 1.2889 -2.0020 0.9820
3.7122 1.6953 -2.0018 0.9820
3.6492 1.8267 -2.0017 0.9820
3.1769 2.5601 -2.0014 0.9820
3.0834 2.6718 -2.0013 0.9820
2.9860 2.7801 -2.0013 0.9820
2.8848 2.8848 -2.0012 0.9820
2.7800 2.9859 -2.0012 0.9820
2.6715 3.0831 -2.0011 0.9820
2.5597 3.1764 -2.0011 0.9820
2.4446 3.2657 -2.0010 0.9820
1.9548 3.5800 -2.0008 0.9820
1.6944 3.7101 -2.0007 0.9820
1.4253 3.8214 -2.0006 0.9820
1.2880 3.8697 -2.0006 0.9820
1.0086 3.9516 -2.0005 0.9820
0.8669 3.9850 -2.0005 0.9820
0.7241 4.0134 -2.0004 0.9820
-0.1456 4.0752 -2.0003 0.9820
-0.2909 4.0674 -2.0002 0.9820
-0.4359 4.0544 -2.0002 0.9820
-0.5803 4.0362 -2.0002 0.9820
-0.7240 4.0129 -2.0002 0.9820
-0.8668 3.9845 -2.0002 0.9820
-1.0084 3.9510 -2.0002 0.9820
-1.1488 3.9124 -2.0002 0.9820
-1.2877 3.8689 -2.0002 0.9820
-1.4250 3.8205 -2.0001 0.9820
-1.8252 3.6463 -2.0001 0.9820
-1.9542 3.5788 -2.0001 0.9820
-2.0807 3.5068 -2.0001 0.9820
-2.3255 3.3494 -2.0002 0.9820
-2.4436 3.2643 -2.0002 0.9820
-2.5586 3.1750 -2.0002 0.9820
-2.6703 3.0817 -2.0002 0.9820
-2.7786 2.9845 -2.0002 0.9820
-2.9845 2.7787 -2.0003 0.9820
-3.2646 2.4438 -2.0003 0.9820
-3.3498 2.3258 -2.0004 0.9820
-3.4307 2.2048 -2.0004 0.9820
-1.1291 0.5652 -0.6194 0.9944
-1.1400 0.5206 -0.6148 0.9944
-1.1484 0.4757 -0.6097 0.9945
-1.1590 0.3403 -0.5925 0.9946
-1.1578 0.2955 -0.5861 0.9947
-1.1695 0.2544 -0.5871 0.9947
-1.1791 0.2127 -0.5877 0.9947
-1.1867 0.1706 -0.5881 0.9947
-1.1921 0.1282 -0.5881 0.9947
-1.1953 0.0855 -0.5878 0.9947
3.8599 0.0000 -2.0024 0.9828
3.8574 0.1378 -2.0024 0.9828
3.8202 0.5493 -2.0022 0.9828
3.7393 0.9544 -2.0021 0.9828
3.6615 1.2187 -2.0020 0.9828
3.6156 1.3485 -2.0019 0.9828
3.5650 1.4767 -2.0018 0.9828
3.4504 1.7272 -2.0017 0.9828
3.3865 1.8492 -2.0017 0.9828
3.2458 2.0859 -2.0016 0.9828
3.1692 2.2004 -2.0015 0.9828
3.0885 2.3120 -2.0015 0.9828
3.0039 2.4207 -2.0014 0.9828
2.9155 2.5263 -2.0014 0.9828
2.7277 2.7277 -2.0012 0.9828
2.4204 3.0035 -2.0011 0.9828
2.1998 3.1683 -2.0010 0.9828
2.0853 3.2447 -2.0009 0.9828
1.7263 3.4488 -2.0008 0.9828
1.6021 3.5082 -2.0008 0.9828
1.4759 3.5631 -2.0007 0.9828
1.3477 3.6134 -2.0007 0.9828
0.4122 3.8340 -2.0005 0.9828
0.1376 3.8535 -2.0004 0.9828
0.0000 3.8559 -2.0004 0.9828
-0.2751 3.8460 -2.0003 0.9828
-0.4122 3.8337 -2.0003 0.9828
-0.6846 3.7945 -2.0003 0.9828
-0.8196 3.7676 -2.0003 0.9828
-0.9535 3.7359 -2.0003 0.9828
-1.0863 3.6995 -2.0002 0.9828
-1.2176 3.6584 -2.0002 0.9828
-1.3474 3.6126 -2.0002 0.9828
-1.4755 3.5622 -2.0002 0.9828
-1.7258 3.4478 -2.0002 0.9828
-1.8478 3.3840 -2.0002 0.9828
-2.3106 3.0867 -2.0003 0.9828
-2.4193 3.0022 -2.0003 0.9828
-2.6274 2.8221 -2.0003 0.9828
-2.8221 2.6275 -2.0003 0.9828
-2.9141 2.5251 -2.0004 0.9828
-3.0869 2.3108 -2.0004 0.9828
-3.2439 2.0848 -2.0005 0.9828
-1.0297 0.5155 -0.5974 0.9948
-1.0576 0.3945 -0.5856 0.9949
-1.0814 0.2352 -0.5741 0.9950
-1.1055 0.0791 -0.5750 0.9950
3.6560 0.0000 -2.0024 0.9835
3.6536 0.1305 -2.0024 0.9835
3.6348 0.3908 -2.0023 0.9835
3.5975 0.6491 -2.0022 0.9835
3.5719 0.7770 -2.0021 0.9835
3.5072 1.0298 -2.0020 0.9835
3.4681 1.1543 -2.0019 0.9835
3.2682 1.6359 -2.0017 0.9835
3.2077 1.7515 -2.0017 0.9835
3.0744 1.9758 -2.0016 0.9835
3.0018 2.0842 -2.0015 0.9835
2.9254 2.1900 -2.0015 0.9835
2.8453 2.2929 -2.0014 0.9835
2.5837 2.5837 -2.0013 0.9835
2.4898 2.6742 -2.0012 0.9835
2.3927 2.7613 -2.0012 0.9835
2.2926 2.8449 -2.0011 0.9835
2.1895 2.9248 -2.0011 0.9835
2.0837 3.0011 -2.0010 0.9835
1.3979 3.3750 -2.0008 0.9835
1.2766 3.4226 -2.0007 0.9835
1.0291 3.5049 -2.0007 0.9835
0.9034 3.5393 -2.0006 0.9835
0.7765 3.5692 -2.0006 0.9835
0.3904 3.6316 -2.0005 0.9835
0.2606 3.6432 -2.0005 0.9835
0.1304 3.6501 -2.0005 0.9835
-0.0000 3.6524 -2.0004 0.9835
-0.5198 3.6151 -2.0004 0.9835
-0.6485 3.5942 -2.0004 0.9835
-0.7763 3.5688 -2.0003 0.9835
-0.9032 3.5388 -2.0003 0.9835
-1.1533 3.4653 -2.0003 0.9835
-1.2763 3.4219 -2.0003 0.9835
-1.5172 3.3221 -2.0003 0.9835
-1.6348 3.2659 -2.0003 0.9835
-1.7503 3.2055 -2.0003 0.9835
-1.8636 3.1409 -2.0003 0.9835
-2.0829 3.0000 -2.0003 0.9835
-2.1887 2.9238 -2.0003 0.9835
-2.3917 2.7602 -2.0004 0.9835
-2.7603 2.3918 -2.0004 0.9835
-0.9677 0.4008 -0.5737 0.9952
-0.9741 0.3633 -0.5694 0.9953
-0.9785 0.3257 -0.5648 0.9953
-0.9820 0.2883 -0.5606 0.9953
-1.0190 0.1465 -0.5638 0.9953
-1.0236 0.1101 -0.5639 0.9953
-1.0265 0.0734 -0.5637 0.9953
-1.0276 0.0367 -0.5632 0.9953
2.0197 0.0000 -1.1661 0.9907
2.0320 0.0726 -1.1739 0.9907
2.0359 0.1456 -1.1784 0.9906
2.0366 0.2190 -1.1826 0.9906
2.0300 0.2919 -1.1841 0.9906
2.0153 0.3636 -1.1823 0.9906
1.9883 0.4325 -1.1748 0.9906
1.9351 0.5682 -1.1644 0.9907
1.8620 0.7713 -1.1636 0.9907
2.7752 2.0775 -2.0015 0.9841
2.6992 2.1752 -2.0014 0.9841
2.6198 2.2701 -2.0014 0.9841
2.5371 2.3621 -2.0013 0.9841
2.4511 2.4511 -2.0013 0.9841
2.2699 2.6196 -2.0012 0.9841
2.1749 2.6989 -2.0012 0.9841
1.8738 2.9157 -2.0010 0.9841
1.3262 3.2017 -2.0008 0.9841
0.8570 3.3577 -2.0007 0.9841
0.7366 3.3861 -2.0007 0.9841
0.3704 3.4453 -2.0006 0.9841
-0.1237 3.4627 -2.0005 0.9841
-0.2472 3.4561 -2.0005 0.9841
-0.6152 3.4098 -2.0004 0.9841
-0.7365 3.3857 -2.0004 0.9841
-0.8569 3.3572 -2.0004 0.9841
-1.0942 3.2875 -2.0004 0.9841
-1.4393 3.1517 -2.0004 0.9841
-1.5509 3.0983 -2.0004 0.9841
-1.6605 3.0410 -2.0004 0.9841
-1.8732 2.9148 -2.0004 0.9841
-1.9760 2.8461 -2.0004 0.9841
-2.3610 2.5359 -2.0005 0.9841
-2.6187 2.2691 -2.0005 0.9841
-0.7846 0.5873 -0.5658 0.9955
-0.8178 0.5256 -0.5613 0.9955
-0.8534 0.4660 -0.5614 0.9955
-0.8823 0.4029 -0.5600 0.9955
-0.9011 0.3361 -0.5553 0.9956
-0.9150 0.2687 -0.5506 0.9956
-0.9352 0.2034 -0.5526 0.9956
-0.9430 0.1701 -0.5532 0.9956
-0.9492 0.1365 -0.5536 0.9956
-0.9564 0.0684 -0.5536 0.9956
