ply
format ascii 1.0
element vertex 713
property float32 x
property float32 y
property float32 z
property float32 I
end_header
-9.4688 -0.3382 -2.0028 0.9620
-9.4512 -0.6759 -2.0029 0.9620
-9.1834 -2.3439 -2.0034 0.9620
-9.0943 -2.6703 -2.0035 0.9620
-8.9936 -2.9934 -2.0036 0.9620
-8.8815 -3.3126 -2.0037 0.9620
-8.7580 -3.6277 -2.0038 0.9620
-8.4776 -4.2436 -2.0040 0.9620
-7.5910 -5.6825 -2.0044 0.9620
-7.3836 -5.9500 -2.0044 0.9620
-6.9407 -6.4620 -2.0046 0.9620
-6.7058 -6.7058 -2.0046 0.9620
-6.4624 -6.9411 -2.0047 0.9620
-5.6838 -7.5927 -2.0048 0.9620
-5.4093 -7.7909 -2.0049 0.9620
-3.6299 -8.7634 -2.0050 0.9620
-3.3148 -8.8874 -2.0050 0.9620
-2.6724 -9.1013 -2.0051 0.9620
-2.3458 -9.1909 -2.0051 0.9620
-2.0163 -9.2688 -2.0051 0.9620
-1.3499 -9.3889 -2.0050 0.9620
-1.0139 -9.4310 -2.0050 0.9620
0.0000 -9.4851 -2.0050 0.9620
0.6766 -9.4606 -2.0049 0.9620
1.0139 -9.4302 -2.0049 0.9620
1.3498 -9.3878 -2.0048 0.9620
2.0160 -9.2672 -2.0047 0.9620
2.3454 -9.1891 -2.0047 0.9620
2.6718 -9.0993 -2.0046 0.9620
3.9391 -8.6253 -2.0043 0.9620
5.1257 -7.9757 -2.0040 0.9620
5.4068 -7.7873 -2.0039 0.9620
6.2074 -7.1638 -2.0037 0.9620
6.4589 -6.9373 -2.0036 0.9620
6.9366 -6.4582 -2.0034 0.9620
7.3789 -5.9463 -2.0032 0.9620
7.7835 -5.4042 -2.0030 0.9620
8.1483 -4.8346 -2.0027 0.9620
8.7515 -3.6250 -2.0023 0.9620
8.8748 -3.3101 -2.0022 0.9620
8.9868 -2.9911 -2.0021 0.9620
9.1762 -2.3421 -2.0019 0.9620
9.3189 -1.6813 -2.0016 0.9620
9.4140 -1.0121 -2.0014 0.9620
9.4436 -0.6754 -2.0013 0.9620
9.4612 -0.3379 -2.0012 0.9620
-8.5208 0.0000 -2.0026 0.9656
-8.4358 -1.2129 -2.0030 0.9656
-8.3285 -1.8117 -2.0032 0.9656
-8.2589 -2.1079 -2.0033 0.9656
-8.1788 -2.4015 -2.0034 0.9656
-8.0882 -2.6920 -2.0034 0.9656
-7.9873 -2.9791 -2.0035 0.9656
-7.8762 -3.2624 -2.0036 0.9656
-7.4832 -4.0861 -2.0038 0.9656
-7.3329 -4.3508 -2.0039 0.9656
-5.3516 -6.6409 -2.0045 0.9656
-5.1113 -6.8279 -2.0045 0.9656
-4.8644 -7.0061 -2.0046 0.9656
-4.3523 -7.3355 -2.0046 0.9656
-3.8180 -7.6275 -2.0047 0.9656
-3.2642 -7.8805 -2.0047 0.9656
-2.4032 -8.1844 -2.0047 0.9656
-0.6085 -8.5080 -2.0047 0.9656
0.0000 -8.5296 -2.0046 0.9656
0.3045 -8.5240 -2.0046 0.9656
1.2138 -8.4422 -2.0045 0.9656
1.5143 -8.3933 -2.0045 0.9656
1.8129 -8.3337 -2.0044 0.9656
2.1091 -8.2635 -2.0044 0.9656
2.4027 -8.1828 -2.0043 0.9656
2.6931 -8.0916 -2.0043 0.9656
2.9802 -7.9901 -2.0042 0.9656
3.2633 -7.8784 -2.0042 0.9656
3.8168 -7.6250 -2.0040 0.9656
4.3508 -7.3328 -2.0039 0.9656
4.6095 -7.1725 -2.0038 0.9656
5.5825 -6.4425 -2.0035 0.9656
5.8086 -6.2389 -2.0034 0.9656
6.0273 -6.0273 -2.0033 0.9656
6.8225 -5.1072 -2.0030 0.9656
7.0001 -4.8603 -2.0029 0.9656
7.1688 -4.6071 -2.0028 0.9656
7.4784 -4.0835 -2.0026 0.9656
7.6191 -3.8138 -2.0025 0.9656
7.8709 -3.2602 -2.0023 0.9656
8.0827 -2.6901 -2.0021 0.9656
8.3226 -1.8105 -2.0018 0.9656
8.3815 -1.5122 -2.0016 0.9656
8.4297 -1.2120 -2.0015 0.9656
8.4672 -0.9103 -2.0014 0.9656
8.4938 -0.6075 -2.0013 0.9656
8.5097 -0.3039 -2.0012 0.9656
-7.7342 0.0000 -2.0025 0.9685
-7.7296 -0.2761 -2.0026 0.9685
-7.6130 -1.3735 -2.0030 0.9685
-7.4962 -1.9133 -2.0031 0.9685
-7.3412 -2.4434 -2.0033 0.9685
-7.2496 -2.7040 -2.0034 0.9685
-6.9198 -3.4638 -2.0036 0.9685
-6.7920 -3.7087 -2.0037 0.9685
-6.5105 -4.1841 -2.0038 0.9685
-6.3572 -4.4139 -2.0038 0.9685
-6.0265 -4.8565 -2.0040 0.9685
-5.8495 -5.0686 -2.0040 0.9685
-4.6390 -6.1970 -2.0043 0.9685
-4.1852 -6.5123 -2.0043 0.9685
-3.9502 -6.6577 -2.0044 0.9685
-3.4652 -6.9226 -2.0044 0.9685
-3.2160 -7.0420 -2.0044 0.9685
-2.7054 -7.2536 -2.0045 0.9685
-1.9146 -7.5012 -2.0045 0.9685
-1.6456 -7.5648 -2.0045 0.9685
-1.1017 -7.6629 -2.0045 0.9685
-0.8275 -7.6973 -2.0044 0.9685
-0.5523 -7.7218 -2.0044 0.9685
0.2763 -7.7364 -2.0044 0.9685
0.5523 -7.7215 -2.0043 0.9685
0.8275 -7.6967 -2.0043 0.9685
1.9143 -7.5000 -2.0041 0.9685
2.4443 -7.3440 -2.0041 0.9685
2.9619 -7.1505 -2.0039 0.9685
3.2151 -7.0401 -2.0039 0.9685
3.4642 -6.9206 -2.0038 0.9685
4.1837 -6.5100 -2.0036 0.9685
4.6372 -6.1945 -2.0035 0.9685
4.8552 -6.0248 -2.0034 0.9685
5.0669 -5.8475 -2.0033 0.9685
5.2722 -5.6627 -2.0033 0.9685
5.6623 -5.2718 -2.0031 0.9685
5.8466 -5.0661 -2.0030 0.9685
6.6517 -3.9466 -2.0026 0.9685
6.7881 -3.7066 -2.0025 0.9685
7.0346 -3.2126 -2.0023 0.9686
7.1444 -2.9593 -2.0022 0.9686
7.2451 -2.7023 -2.0021 0.9686
7.3367 -2.4419 -2.0020 0.9686
7.5546 -1.6434 -2.0018 0.9686
7.6081 -1.3726 -2.0017 0.9686
7.6519 -1.1002 -2.0016 0.9686
7.7102 -0.5514 -2.0014 0.9686
7.7246 -0.2759 -2.0013 0.9686
-7.0693 -0.2525 -2.0026 0.9710
-7.0339 -0.7562 -2.0027 0.9710
-6.9135 -1.5039 -2.0030 0.9710
-6.8557 -1.7498 -2.0030 0.9710
-6.7891 -1.9935 -2.0031 0.9710
-6.7139 -2.2346 -2.0032 0.9710
-6.6301 -2.4729 -2.0032 0.9710
-6.5378 -2.7080 -2.0033 0.9710
-6.3284 -3.1678 -2.0034 0.9710
-6.2115 -3.3917 -2.0035 0.9710
-6.0867 -3.6114 -2.0036 0.9710
-5.9541 -3.8264 -2.0036 0.9710
-5.6662 -4.2417 -2.0037 0.9710
-5.0054 -5.0054 -2.0039 0.9710
-4.2424 -5.6672 -2.0041 0.9710
-3.8274 -5.9556 -2.0041 0.9710
-3.6125 -6.0885 -2.0042 0.9710
-3.3929 -6.2136 -2.0042 0.9710
-3.1690 -6.3308 -2.0042 0.9710
-2.2358 -6.7175 -2.0042 0.9710
-1.9946 -6.7930 -2.0043 0.9710
-1.7509 -6.8599 -2.0043 0.9710
-1.2570 -6.9673 -2.0042 0.9710
-1.0075 -7.0077 -2.0042 0.9710
0.7567 -7.0387 -2.0041 0.9710
1.2569 -6.9666 -2.0040 0.9710
1.5047 -6.9171 -2.0040 0.9710
2.7087 -6.5393 -2.0038 0.9710
2.9403 -6.4383 -2.0037 0.9710
3.1681 -6.3291 -2.0037 0.9710
3.6114 -6.0866 -2.0035 0.9710
3.8262 -5.9536 -2.0035 0.9710
4.2409 -5.6652 -2.0034 0.9710
4.4402 -5.5100 -2.0033 0.9710
4.6339 -5.3478 -2.0032 0.9710
4.8217 -5.1788 -2.0031 0.9710
5.3471 -4.6332 -2.0029 0.9710
5.5088 -4.4393 -2.0028 0.9710
5.6635 -4.2396 -2.0028 0.9710
5.8110 -4.0346 -2.0027 0.9710
5.9511 -3.8245 -2.0026 0.9710
6.0835 -3.6095 -2.0025 0.9710
6.2082 -3.3899 -2.0024 0.9710
6.3250 -3.1661 -2.0024 0.9710
6.7101 -2.2333 -2.0020 0.9710
6.7853 -1.9923 -2.0019 0.9710
6.8517 -1.7488 -2.0019 0.9710
6.9584 -1.2554 -2.0017 0.9710
6.9985 -1.0062 -2.0016 0.9710
7.0519 -0.5044 -2.0014 0.9710
-6.4942 -0.4645 -2.0026 0.9731
-6.4450 -0.9266 -2.0027 0.9731
-6.2484 -1.8347 -2.0030 0.9731
-6.1791 -2.0566 -2.0031 0.9731
-6.0170 -2.4923 -2.0032 0.9731
-5.6017 -3.3237 -2.0034 0.9731
-5.4797 -3.5216 -2.0035 0.9731
-5.3506 -3.7150 -2.0035 0.9731
-4.7679 -4.4391 -2.0037 0.9731
-4.6065 -4.6065 -2.0038 0.9731
-4.4393 -4.7681 -2.0038 0.9731
-4.2663 -4.9236 -2.0038 0.9731
-4.0879 -5.0728 -2.0039 0.9731
-3.7157 -5.3517 -2.0039 0.9731
-3.5224 -5.4810 -2.0040 0.9731
-3.1225 -5.7184 -2.0040 0.9731
-2.9164 -5.8263 -2.0040 0.9731
-2.7066 -5.9267 -2.0040 0.9731
-2.4934 -6.0196 -2.0040 0.9731
-2.0576 -6.1822 -2.0041 0.9731
-1.8356 -6.2517 -2.0041 0.9731
-1.3850 -6.3667 -2.0041 0.9731
-0.9272 -6.4492 -2.0040 0.9731
-0.6965 -6.4782 -2.0040 0.9731
-0.4648 -6.4989 -2.0040 0.9731
0.0000 -6.5154 -2.0040 0.9731
0.2326 -6.5111 -2.0040 0.9731
0.4648 -6.4986 -2.0039 0.9731
0.6964 -6.4778 -2.0039 0.9731
0.9272 -6.4487 -2.0039 0.9731
3.1217 -5.7169 -2.0035 0.9731
3.3237 -5.6017 -2.0034 0.9731
3.5214 -5.4793 -2.0034 0.9731
3.7146 -5.3500 -2.0033 0.9731
3.9031 -5.2139 -2.0032 0.9731
4.0866 -5.0711 -2.0032 0.9731
4.2648 -4.9218 -2.0031 0.9731
4.6047 -4.6047 -2.0030 0.9731
4.9212 -4.2642 -2.0028 0.9731
5.2125 -3.9020 -2.0027 0.9731
5.5991 -3.3221 -2.0025 0.9731
6.0139 -2.4911 -2.0022 0.9731
6.0988 -2.2747 -2.0021 0.9731
6.1759 -2.0555 -2.0020 0.9731
6.2450 -1.8337 -2.0019 0.9731
6.3595 -1.3834 -2.0018 0.9731
6.4046 -1.1555 -2.0017 0.9731
6.5028 -0.2322 -2.0014 0.9731
-6.0203 -0.2150 -2.0025 0.9749
-6.0090 -0.4298 -2.0025 0.9749
-5.9900 -0.6440 -2.0026 0.9749
-5.9634 -0.8574 -2.0027 0.9749
-5.9292 -1.0697 -2.0027 0.9749
-5.8874 -1.2807 -2.0028 0.9749
-5.8382 -1.4901 -2.0029 0.9749
-5.6459 -2.1058 -2.0030 0.9749
-5.3889 -2.6975 -2.0032 0.9749
-5.2894 -2.8882 -2.0033 0.9749
-5.0701 -3.2584 -2.0034 0.9749
-4.1074 -4.4117 -2.0037 0.9749
-3.7823 -4.6936 -2.0037 0.9749
-3.6124 -4.8257 -2.0037 0.9749
-3.0760 -5.1844 -2.0038 0.9749
-2.6984 -5.3907 -2.0039 0.9749
-2.5043 -5.4836 -2.0039 0.9749
-1.4909 -5.8412 -2.0039 0.9749
-1.0704 -5.9327 -2.0039 0.9749
-0.8579 -5.9671 -2.0039 0.9749
-0.6444 -5.9938 -2.0039 0.9749
-0.2151 -6.0245 -2.0038 0.9749
0.0000 -6.0283 -2.0038 0.9749
0.2152 -6.0244 -2.0038 0.9749
0.4300 -6.0128 -2.0038 0.9749
0.8579 -5.9666 -2.0037 0.9749
1.0703 -5.9321 -2.0037 0.9749
1.2813 -5.8900 -2.0037 0.9749
1.4907 -5.8405 -2.0036 0.9749
1.6982 -5.7834 -2.0036 0.9749
1.9035 -5.7190 -2.0036 0.9749
2.3065 -5.5684 -2.0035 0.9749
2.8883 -5.2896 -2.0033 0.9749
3.0752 -5.1830 -2.0033 0.9749
3.2582 -5.0698 -2.0032 0.9749
3.4370 -4.9502 -2.0032 0.9749
3.7811 -4.6921 -2.0031 0.9749
4.4099 -4.1057 -2.0028 0.9749
4.8230 -3.6104 -2.0026 0.9749
5.3865 -2.6963 -2.0023 0.9749
5.6433 -2.1048 -2.0021 0.9749
5.8353 -1.4894 -2.0019 0.9749
5.8845 -1.2801 -2.0018 0.9749
5.9262 -1.0692 -2.0017 0.9749
5.9870 -0.6437 -2.0016 0.9749
6.0059 -0.4296 -2.0015 0.9749
6.0172 -0.2149 -2.0014 0.9749
-5.5959 -0.1998 -2.0024 0.9765
-5.5854 -0.3995 -2.0025 0.9765
-5.5677 -0.5986 -2.0025 0.9765
-5.5112 -0.9943 -2.0027 0.9765
-5.3738 -1.5779 -2.0028 0.9765
-5.3142 -1.7687 -2.0029 0.9765
-5.2478 -1.9573 -2.0030 0.9765
-5.0951 -2.3269 -2.0031 0.9765
-4.8175 -2.8584 -2.0032 0.9765
-4.7126 -3.0286 -2.0033 0.9765
-4.2339 -3.6687 -2.0034 0.9765
-4.1004 -3.8175 -2.0035 0.9765
-3.8177 -4.1005 -2.0035 0.9765
-3.6690 -4.2342 -2.0036 0.9765
-3.0292 -4.7135 -2.0037 0.9765
-2.6853 -4.9177 -2.0037 0.9765
-2.5080 -5.0104 -2.0037 0.9765
-1.9581 -5.2499 -2.0037 0.9765
-0.5989 -5.5711 -2.0037 0.9765
-0.3997 -5.5889 -2.0037 0.9765
-0.2000 -5.5995 -2.0037 0.9765
0.2000 -5.5994 -2.0037 0.9765
0.3997 -5.5887 -2.0037 0.9765
1.1909 -5.4746 -2.0036 0.9765
1.3855 -5.4285 -2.0035 0.9765
1.5784 -5.3755 -2.0035 0.9765
1.7692 -5.3157 -2.0034 0.9765
1.9578 -5.2490 -2.0034 0.9765
2.3272 -5.0958 -2.0033 0.9765
2.5075 -5.0094 -2.0033 0.9765
2.6847 -4.9166 -2.0032 0.9765
3.0284 -4.7123 -2.0031 0.9765
3.5145 -4.3612 -2.0030 0.9765
3.6679 -4.2329 -2.0029 0.9765
3.9603 -3.9602 -2.0028 0.9765
4.0990 -3.8162 -2.0028 0.9765
4.2324 -3.6674 -2.0027 0.9765
4.3605 -3.5139 -2.0026 0.9765
4.5998 -3.1937 -2.0025 0.9765
4.9144 -2.6834 -2.0023 0.9765
5.0929 -2.3258 -2.0022 0.9765
5.1725 -2.1425 -2.0021 0.9765
5.2455 -1.9565 -2.0021 0.9765
5.3714 -1.5772 -2.0019 0.9765
5.5086 -0.9939 -2.0017 0.9765
5.5404 -0.7966 -2.0017 0.9765
5.5651 -0.5983 -2.0016 0.9765
-5.2250 0.0000 -2.0023 0.9779
-5.2218 -0.1865 -2.0024 0.9779
-5.0637 -1.2924 -2.0027 0.9779
-4.9589 -1.6505 -2.0028 0.9779
-4.8969 -1.8265 -2.0029 0.9779
-4.7544 -2.1712 -2.0030 0.9779
-4.6740 -2.3396 -2.0030 0.9779
-4.5876 -2.5050 -2.0031 0.9779
-4.0704 -3.2801 -2.0033 0.9779
-3.9508 -3.4234 -2.0033 0.9779
-3.8261 -3.5623 -2.0034 0.9779
-3.1331 -4.1853 -2.0035 0.9779
-2.5057 -4.5888 -2.0036 0.9779
-2.1719 -4.7559 -2.0036 0.9779
-1.8271 -4.8987 -2.0036 0.9779
-1.6511 -4.9608 -2.0036 0.9779
-0.9283 -5.1453 -2.0036 0.9779
-0.7441 -5.1752 -2.0036 0.9779
-0.3730 -5.2150 -2.0036 0.9779
0.0000 -5.2283 -2.0036 0.9779
0.3730 -5.2149 -2.0035 0.9779
0.5589 -5.1982 -2.0035 0.9779
0.7440 -5.1748 -2.0035 0.9779
1.2929 -5.0654 -2.0034 0.9779
1.4729 -5.0160 -2.0034 0.9779
1.8269 -4.8980 -2.0033 0.9779
2.0005 -4.8296 -2.0033 0.9779
2.5051 -4.5878 -2.0032 0.9779
2.9810 -4.2934 -2.0030 0.9779
3.2795 -4.0696 -2.0029 0.9779
3.4226 -3.9499 -2.0029 0.9779
3.5613 -3.8251 -2.0028 0.9779
3.8249 -3.5611 -2.0027 0.9779
3.9495 -3.4222 -2.0026 0.9779
4.0690 -3.2790 -2.0026 0.9779
4.3958 -2.8250 -2.0024 0.9779
4.4937 -2.6662 -2.0024 0.9779
4.5858 -2.5040 -2.0023 0.9779
4.7525 -2.1704 -2.0022 0.9779
4.8268 -1.9993 -2.0021 0.9779
4.9568 -1.6498 -2.0020 0.9779
5.0124 -1.4718 -2.0019 0.9779
5.1043 -1.1104 -2.0018 0.9779
5.1405 -0.9275 -2.0017 0.9779
5.1933 -0.5583 -2.0016 0.9779
5.2097 -0.3726 -2.0015 0.9779
5.2195 -0.1864 -2.0015 0.9779
-1.9308 -0.0690 -0.7907 0.9917
-1.9525 -0.1396 -0.8011 0.9916
-4.6430 -1.5454 -2.0028 0.9791
-4.5212 -1.8727 -2.0029 0.9791
-4.3762 -2.1906 -2.0030 0.9791
-4.2954 -2.3454 -2.0030 0.9791
-4.0203 -2.7913 -2.0031 0.9791
-3.4611 -3.4611 -2.0033 0.9791
-3.2055 -3.6993 -2.0033 0.9791
-3.0714 -3.8114 -2.0034 0.9791
-2.9335 -3.9186 -2.0034 0.9791
-2.7918 -4.0209 -2.0034 0.9791
-2.6465 -4.1180 -2.0034 0.9791
-2.4978 -4.2099 -2.0035 0.9791
-2.1912 -4.3774 -2.0035 0.9791
-1.8733 -4.5226 -2.0035 0.9791
-1.7107 -4.5866 -2.0035 0.9791
-1.3791 -4.6970 -2.0035 0.9791
-1.2106 -4.7432 -2.0035 0.9791
-0.8692 -4.8175 -2.0035 0.9791
-0.5233 -4.8672 -2.0035 0.9791
-0.1747 -4.8921 -2.0035 0.9791
0.3492 -4.8826 -2.0034 0.9791
0.5233 -4.8670 -2.0034 0.9791
0.6966 -4.8451 -2.0034 0.9791
1.0405 -4.7830 -2.0033 0.9791
1.3790 -4.6964 -2.0033 0.9791
1.5457 -4.6441 -2.0033 0.9791
1.8730 -4.5219 -2.0032 0.9791
2.0332 -4.4521 -2.0031 0.9791
2.1908 -4.3766 -2.0031 0.9791
2.3455 -4.2955 -2.0031 0.9791
2.4973 -4.2090 -2.0030 0.9791
2.6459 -4.1171 -2.0030 0.9791
2.7911 -4.0199 -2.0029 0.9791
3.3345 -3.5815 -2.0028 0.9791
3.5813 -3.3343 -2.0027 0.9791
3.8099 -3.0701 -2.0025 0.9791
4.3746 -2.1898 -2.0022 0.9791
4.6412 -1.5447 -2.0020 0.9791
4.8132 -0.8684 -2.0017 0.9791
4.8410 -0.6960 -2.0017 0.9791
4.8781 -0.3489 -2.0016 0.9791
-1.5284 -0.0546 -0.6665 0.9933
-1.5293 -0.1094 -0.6682 0.9933
-1.5249 -0.1639 -0.6684 0.9933
-1.5214 -0.3310 -0.6786 0.9932
-1.5485 -0.3952 -0.6965 0.9931
-1.5984 -0.5962 -0.7435 0.9926
-4.2457 -1.7586 -2.0028 0.9801
-4.1803 -1.9091 -2.0028 0.9801
-4.1096 -2.0571 -2.0029 0.9801
-3.9525 -2.3451 -2.0030 0.9801
-3.8664 -2.4848 -2.0030 0.9801
-3.7753 -2.6212 -2.0030 0.9801
-3.6794 -2.7544 -2.0031 0.9801
-3.5788 -2.8840 -2.0031 0.9801
-3.4736 -3.0099 -2.0031 0.9801
-3.3641 -3.1320 -2.0032 0.9801
-3.2502 -3.2502 -2.0032 0.9801
-3.1321 -3.3642 -2.0032 0.9801
-3.0101 -3.4738 -2.0033 0.9801
-2.6216 -3.7758 -2.0033 0.9801
-2.4852 -3.8670 -2.0033 0.9801
-2.3456 -3.9533 -2.0034 0.9801
-2.2030 -4.0345 -2.0034 0.9801
-2.0576 -4.1106 -2.0034 0.9801
-1.6065 -4.3071 -2.0034 0.9801
-1.2951 -4.4107 -2.0034 0.9801
-1.1368 -4.4541 -2.0034 0.9801
-0.9771 -4.4919 -2.0034 0.9801
0.0000 -4.5968 -2.0034 0.9801
0.1641 -4.5938 -2.0034 0.9801
0.3279 -4.5850 -2.0033 0.9801
0.4914 -4.5704 -2.0033 0.9801
0.6542 -4.5499 -2.0033 0.9801
0.9771 -4.4915 -2.0032 0.9801
1.6062 -4.3065 -2.0031 0.9801
1.7589 -4.2463 -2.0031 0.9801
1.9093 -4.1808 -2.0031 0.9801
2.0573 -4.1099 -2.0030 0.9801
3.2493 -3.2493 -2.0027 0.9801
3.3631 -3.1311 -2.0026 0.9801
3.4726 -3.0090 -2.0026 0.9802
3.5777 -2.8831 -2.0025 0.9802
3.6783 -2.7535 -2.0025 0.9802
3.7741 -2.6204 -2.0024 0.9802
3.8651 -2.4840 -2.0024 0.9802
3.9512 -2.3444 -2.0023 0.9802
4.1082 -2.0564 -2.0022 0.9802
4.1788 -1.9084 -2.0021 0.9802
4.2442 -1.7580 -2.0021 0.9802
4.3041 -1.6053 -2.0020 0.9802
4.4883 -0.9764 -2.0018 0.9802
4.5462 -0.6537 -2.0017 0.9802
4.5810 -0.3276 -2.0016 0.9802
-1.3384 -0.0957 -0.6211 0.9941
-1.3350 -0.1435 -0.6215 0.9941
-1.3013 -0.2831 -0.6164 0.9941
-1.3116 -0.3348 -0.6266 0.9941
-1.3324 -0.4435 -0.6500 0.9938
-1.3324 -0.4970 -0.6582 0.9938
-1.3263 -0.5494 -0.6645 0.9937
-1.3151 -0.6005 -0.6692 0.9936
-3.8692 -1.9368 -2.0028 0.9811
-3.7213 -2.2079 -2.0029 0.9811
-3.6402 -2.3394 -2.0029 0.9811
-3.5544 -2.4679 -2.0030 0.9811
-3.4641 -2.5932 -2.0030 0.9811
-3.2704 -2.8338 -2.0031 0.9811
-3.1672 -2.9488 -2.0031 0.9811
-2.9489 -3.1673 -2.0032 0.9811
-2.4682 -3.5549 -2.0032 0.9811
-2.3398 -3.6407 -2.0033 0.9811
-2.2083 -3.7220 -2.0033 0.9811
-1.9372 -3.8701 -2.0033 0.9811
-1.3667 -4.1064 -2.0033 0.9811
-1.0703 -4.1935 -2.0033 0.9811
-0.7684 -4.2591 -2.0033 0.9811
-0.1545 -4.3251 -2.0033 0.9811
0.0000 -4.3278 -2.0033 0.9811
0.3088 -4.3167 -2.0032 0.9811
0.4626 -4.3029 -2.0032 0.9811
0.7684 -4.2589 -2.0032 0.9811
0.9199 -4.2287 -2.0032 0.9811
1.3666 -4.1059 -2.0031 0.9811
1.5123 -4.0545 -2.0031 0.9811
1.7976 -3.9362 -2.0030 0.9811
2.0738 -3.7978 -2.0029 0.9811
2.3393 -3.6400 -2.0029 0.9811
2.4677 -3.5541 -2.0028 0.9811
2.7148 -3.3689 -2.0027 0.9811
2.9481 -3.1665 -2.0027 0.9811
3.0592 -3.0592 -2.0026 0.9811
3.2695 -2.8330 -2.0025 0.9811
3.3685 -2.7145 -2.0025 0.9811
3.4631 -2.5924 -2.0024 0.9811
3.8679 -1.9361 -2.0022 0.9811
3.9960 -1.6552 -2.0021 0.9811
4.1036 -1.3658 -2.0020 0.9811
4.1904 -1.0695 -2.0019 0.9811
4.2804 -0.6154 -2.0017 0.9811
4.3132 -0.3085 -2.0016 0.9811
4.3213 -0.1543 -2.0016 0.9811
-1.1791 -0.2127 -0.5877 0.9947
-1.1695 -0.2544 -0.5871 0.9947
-1.1578 -0.3854 -0.5986 0.9946
-1.1543 -0.4305 -0.6043 0.9945
-1.1400 -0.5206 -0.6148 0.9944
-1.1291 -0.5652 -0.6194 0.9944
-1.1113 -0.6068 -0.6211 0.9944
-3.4350 -2.2075 -2.0029 0.9820
-3.3540 -2.3287 -2.0029 0.9820
-2.9887 -2.7825 -2.0030 0.9820
-2.8875 -2.8875 -2.0031 0.9820
-2.7826 -2.9887 -2.0031 0.9820
-2.6742 -3.0862 -2.0031 0.9820
-2.4473 -3.2692 -2.0031 0.9820
-2.3290 -3.3545 -2.0032 0.9820
-2.0838 -3.5121 -2.0032 0.9820
-1.9572 -3.5843 -2.0032 0.9820
-1.8280 -3.6519 -2.0032 0.9820
-1.4272 -3.8264 -2.0032 0.9820
-1.1506 -3.9185 -2.0032 0.9820
-1.0100 -3.9570 -2.0032 0.9820
-0.8681 -3.9905 -2.0032 0.9820
-0.4365 -4.0604 -2.0032 0.9820
-0.2913 -4.0734 -2.0032 0.9820
-0.1457 -4.0812 -2.0032 0.9820
0.1458 -4.0812 -2.0032 0.9820
0.7251 -4.0187 -2.0031 0.9820
1.1505 -3.9181 -2.0030 0.9820
1.2896 -3.8745 -2.0030 0.9820
1.5626 -3.7725 -2.0030 0.9820
1.6963 -3.7143 -2.0029 0.9820
1.8277 -3.6513 -2.0029 0.9820
1.9568 -3.5837 -2.0029 0.9820
2.3286 -3.3538 -2.0028 0.9820
2.4468 -3.2685 -2.0027 0.9820
2.5618 -3.1790 -2.0027 0.9820
2.8868 -2.8868 -2.0026 0.9820
2.9879 -2.7818 -2.0025 0.9820
3.0852 -2.6733 -2.0025 0.9820
3.1786 -2.5615 -2.0024 0.9820
3.2679 -2.4463 -2.0024 0.9820
3.3531 -2.3281 -2.0023 0.9820
3.6499 -1.8270 -2.0022 0.9820
3.7127 -1.6955 -2.0021 0.9820
3.7708 -1.5619 -2.0021 0.9820
3.9159 -1.1498 -2.0019 0.9820
3.9877 -0.8675 -2.0018 0.9820
4.0573 -0.4362 -2.0017 0.9820
4.0779 -0.1456 -2.0016 0.9820
-1.1066 -0.0395 -0.5744 0.9950
-1.1024 -0.1185 -0.5752 0.9950
-1.0617 -0.3534 -0.5805 0.9950
-1.0430 -0.4763 -0.5948 0.9948
-1.0297 -0.5155 -0.5974 0.9948
-3.0062 -2.4225 -2.0029 0.9828
-2.9179 -2.5283 -2.0029 0.9828
-2.8258 -2.6309 -2.0030 0.9828
-2.7301 -2.7301 -2.0030 0.9828
-2.6310 -2.8258 -2.0030 0.9828
-2.4227 -3.0064 -2.0031 0.9828
-2.3139 -3.0910 -2.0031 0.9828
-2.0875 -3.2482 -2.0031 0.9828
-1.9703 -3.3207 -2.0031 0.9828
-1.8505 -3.3889 -2.0031 0.9828
-1.6040 -3.5123 -2.0032 0.9828
-1.4776 -3.5674 -2.0032 0.9828
-0.8208 -3.7731 -2.0032 0.9828
-0.4128 -3.8392 -2.0032 0.9828
-0.2755 -3.8514 -2.0031 0.9828
-0.1378 -3.8588 -2.0031 0.9828
0.0000 -3.8612 -2.0031 0.9828
0.2754 -3.8513 -2.0031 0.9828
0.4128 -3.8390 -2.0031 0.9828
0.5495 -3.8218 -2.0031 0.9828
0.8208 -3.7728 -2.0030 0.9828
1.0878 -3.7045 -2.0030 0.9828
1.3492 -3.6174 -2.0029 0.9828
1.4775 -3.5669 -2.0029 0.9828
1.6038 -3.5119 -2.0029 0.9828
1.7281 -3.4523 -2.0028 0.9828
1.9700 -3.3201 -2.0028 0.9828
2.0872 -3.2477 -2.0028 0.9828
2.2017 -3.1710 -2.0027 0.9828
2.5279 -2.9174 -2.0026 0.9828
2.8251 -2.6303 -2.0025 0.9828
2.9171 -2.5277 -2.0024 0.9828
3.0899 -2.3131 -2.0024 0.9828
3.1704 -2.2012 -2.0023 0.9828
3.2469 -2.0867 -2.0023 0.9828
3.4511 -1.7275 -2.0021 0.9828
3.7705 -0.8202 -2.0018 0.9828
3.7973 -0.6851 -2.0018 0.9828
3.8192 -0.5491 -2.0017 0.9828
-1.0236 -0.1101 -0.5639 0.9953
-1.0190 -0.1465 -0.5638 0.9953
-1.0039 -0.2184 -0.5627 0.9953
-0.9820 -0.2883 -0.5606 0.9953
-0.9785 -0.3257 -0.5648 0.9953
-0.9580 -0.4375 -0.5768 0.9952
-0.9084 -0.5390 -0.5785 0.9952
-0.8661 -0.6013 -0.5775 0.9952
-2.9274 -2.1914 -2.0028 0.9835
-2.8474 -2.2945 -2.0029 0.9835
-2.7637 -2.3947 -2.0029 0.9835
-2.6765 -2.4919 -2.0029 0.9835
-2.5859 -2.5858 -2.0029 0.9835
-2.3948 -2.7638 -2.0030 0.9835
-2.2947 -2.8475 -2.0030 0.9835
-2.0858 -3.0040 -2.0030 0.9835
-1.7527 -3.2099 -2.0031 0.9835
-1.6370 -3.2704 -2.0031 0.9835
-1.5193 -3.3267 -2.0031 0.9835
-1.2781 -3.4267 -2.0031 0.9835
-0.9045 -3.5437 -2.0031 0.9835
-0.5205 -3.6200 -2.0031 0.9835
-0.2609 -3.6479 -2.0031 0.9835
0.0000 -3.6572 -2.0031 0.9835
0.1305 -3.6548 -2.0030 0.9835
0.2609 -3.6478 -2.0030 0.9835
0.5205 -3.6199 -2.0030 0.9835
0.9044 -3.5434 -2.0029 0.9835
1.1549 -3.4698 -2.0029 0.9835
1.2779 -3.4263 -2.0029 0.9835
1.5191 -3.3263 -2.0028 0.9835
1.6368 -3.2699 -2.0028 0.9835
1.7525 -3.2094 -2.0028 0.9835
2.1912 -2.9271 -2.0026 0.9835
2.2942 -2.8470 -2.0026 0.9835
2.3944 -2.7632 -2.0026 0.9835
2.4914 -2.6760 -2.0025 0.9835
2.7630 -2.3942 -2.0024 0.9835
3.0030 -2.0850 -2.0023 0.9835
3.0754 -1.9764 -2.0023 0.9835
3.1439 -1.8654 -2.0022 0.9835
3.2084 -1.7519 -2.0022 0.9835
3.2689 -1.6363 -2.0021 0.9835
3.3251 -1.5185 -2.0021 0.9835
3.4248 -1.2774 -2.0020 0.9835
3.5714 -0.7769 -2.0018 0.9835
3.5968 -0.6489 -2.0018 0.9835
3.6176 -0.5201 -2.0017 0.9835
3.6453 -0.2607 -2.0016 0.9835
-0.9570 0.0000 -0.5525 0.9956
-0.9492 -0.1365 -0.5537 0.9956
-0.9430 -0.1701 -0.5532 0.9956
-0.9352 -0.2034 -0.5526 0.9956
-0.9259 -0.2363 -0.5517 0.9956
-0.8941 -0.3703 -0.5587 0.9955
-0.8823 -0.4029 -0.5600 0.9955
-0.8534 -0.4660 -0.5614 0.9955
-0.8364 -0.4963 -0.5615 0.9955
-0.8178 -0.5256 -0.5613 0.9955
-0.8008 -0.5560 -0.5628 0.9955
-0.7846 -0.5873 -0.5658 0.9955
-2.6217 -2.2717 -2.0028 0.9841
-2.5390 -2.3639 -2.0029 0.9841
-2.0790 -2.7772 -2.0030 0.9841
-1.9786 -2.8497 -2.0030 0.9841
-1.7703 -2.9836 -2.0030 0.9841
-1.5529 -3.1024 -2.0030 0.9841
-1.3277 -3.2053 -2.0030 0.9841
-1.2124 -3.2506 -2.0030 0.9841
-0.9774 -3.3288 -2.0030 0.9841
-0.7375 -3.3901 -2.0030 0.9841
-0.6160 -3.4142 -2.0030 0.9841
-0.3708 -3.4495 -2.0030 0.9841
0.1238 -3.4671 -2.0030 0.9841
0.2475 -3.4604 -2.0030 0.9841
0.3708 -3.4494 -2.0030 0.9841
0.4937 -3.4339 -2.0029 0.9841
0.6160 -3.4141 -2.0029 0.9841
0.9774 -3.3285 -2.0029 0.9841
1.3275 -3.2049 -2.0028 0.9841
1.6624 -3.0445 -2.0027 0.9841
1.8753 -2.9181 -2.0027 0.9841
1.9783 -2.8492 -2.0026 0.9841
2.1764 -2.7007 -2.0026 0.9841
2.2714 -2.6213 -2.0025 0.9841
2.3634 -2.5385 -2.0025 0.9841
2.6211 -2.2712 -2.0024 0.9841
2.7005 -2.1762 -2.0023 0.9841
2.8487 -1.9779 -2.0023 0.9841
1.8682 -0.6968 -1.1512 0.9908
1.9616 -0.5007 -1.1688 0.9907
1.9883 -0.4325 -1.1748 0.9906
2.0153 -0.3636 -1.1823 0.9906
2.0300 -0.2919 -1.1841 0.9906
2.0320 -0.0726 -1.1739 0.9907
