ply
format ascii 1.0
element vertex 707
property float32 x
property float32 y
property float32 z
property float32 I
end_header
-9.4666 0.0000 -2.0010 0.9620
-9.4611 -0.3379 -2.0012 0.9620
-9.4436 -0.6754 -2.0013 0.9620
-9.3725 -1.3475 -2.0015 0.9620
-9.3189 -1.6813 -2.0016 0.9620
-9.0875 -2.6683 -2.0020 0.9620
-8.9869 -2.9911 -2.0021 0.9620
-8.8750 -3.3102 -2.0022 0.9620
-8.7517 -3.6251 -2.0024 0.9620
-8.4718 -4.2407 -2.0026 0.9620
-8.1486 -4.8348 -2.0028 0.9620
-7.7838 -5.4044 -2.0030 0.9620
-7.1627 -6.2065 -2.0034 0.9620
-6.4592 -6.9377 -2.0037 0.9620
-5.9484 -7.3815 -2.0039 0.9620
-5.4071 -7.7877 -2.0041 0.9620
-4.5443 -8.3222 -2.0043 0.9620
-3.9393 -8.6258 -2.0045 0.9620
-3.6290 -8.7612 -2.0045 0.9620
-3.3141 -8.8855 -2.0046 0.9620
-2.0161 -9.2678 -2.0048 0.9620
-1.3499 -9.3884 -2.0049 0.9620
-1.0139 -9.4308 -2.0050 0.9620
0.6767 -9.4617 -2.0051 0.9620
1.0140 -9.4316 -2.0051 0.9620
2.6725 -9.1018 -2.0052 0.9620
3.3150 -8.8879 -2.0051 0.9620
3.6301 -8.7638 -2.0051 0.9620
5.6840 -7.5929 -2.0049 0.9620
6.2109 -7.1677 -2.0048 0.9620
6.9409 -6.4622 -2.0046 0.9620
7.5911 -5.6826 -2.0044 0.9620
7.7887 -5.4078 -2.0043 0.9620
8.1540 -4.8380 -2.0041 0.9620
8.4776 -4.2436 -2.0040 0.9620
8.6233 -3.9381 -2.0039 0.9620
8.7579 -3.6276 -2.0038 0.9620
9.0941 -2.6703 -2.0035 0.9620
9.3260 -1.6826 -2.0032 0.9620
9.3796 -1.3486 -2.0030 0.9620
9.4212 -1.0129 -2.0029 0.9620
9.4508 -0.6759 -2.0028 0.9620
-8.5146 0.0000 -2.0011 0.9656
-8.5096 -0.3039 -2.0012 0.9656
-8.4938 -0.6075 -2.0013 0.9656
-8.4672 -0.9103 -2.0014 0.9656
-8.4297 -1.2120 -2.0016 0.9656
-8.2532 -2.1065 -2.0019 0.9656
-8.0827 -2.6902 -2.0021 0.9656
-7.9820 -2.9771 -2.0022 0.9656
-7.8711 -3.2603 -2.0023 0.9656
-7.7501 -3.5394 -2.0024 0.9656
-7.6192 -3.8139 -2.0025 0.9656
-7.4787 -4.0836 -2.0026 0.9656
-7.1690 -4.6072 -2.0028 0.9656
-7.0003 -4.8604 -2.0029 0.9656
-6.6364 -5.3480 -2.0031 0.9656
-6.4416 -5.5817 -2.0032 0.9656
-6.2386 -5.8083 -2.0033 0.9656
-5.5827 -6.4428 -2.0036 0.9656
-4.6098 -7.1729 -2.0039 0.9656
-3.8170 -7.6254 -2.0041 0.9656
-3.2635 -7.8788 -2.0043 0.9656
-2.6933 -8.0920 -2.0044 0.9656
-1.2139 -8.4427 -2.0046 0.9656
-0.0000 -8.5300 -2.0048 0.9656
0.3045 -8.5247 -2.0048 0.9656
0.6085 -8.5085 -2.0048 0.9656
0.9118 -8.4814 -2.0048 0.9656
1.2140 -8.4435 -2.0048 0.9656
2.1096 -8.2654 -2.0048 0.9656
2.6939 -8.0938 -2.0048 0.9656
2.9810 -7.9924 -2.0048 0.9656
3.8182 -7.6277 -2.0048 0.9656
4.0879 -7.4865 -2.0047 0.9656
5.5852 -6.4457 -2.0045 0.9656
6.0305 -6.0305 -2.0044 0.9656
6.4450 -5.5846 -2.0043 0.9656
6.6400 -5.3508 -2.0042 0.9656
6.8265 -5.1103 -2.0041 0.9656
7.0043 -4.8632 -2.0041 0.9656
7.1732 -4.6099 -2.0040 0.9656
7.3328 -4.3508 -2.0039 0.9656
7.6239 -3.8163 -2.0037 0.9656
7.7550 -3.5415 -2.0037 0.9656
7.8761 -3.2624 -2.0036 0.9656
8.1786 -2.4015 -2.0033 0.9656
8.3283 -1.8117 -2.0031 0.9656
8.3872 -1.5132 -2.0030 0.9656
8.4997 -0.6079 -2.0027 0.9656
8.5155 -0.3041 -2.0026 0.9656
-7.7245 -0.2759 -2.0013 0.9686
-7.7101 -0.5514 -2.0014 0.9686
-7.6859 -0.8263 -2.0015 0.9686
-7.6519 -1.1002 -2.0016 0.9686
-7.3367 -2.4419 -2.0021 0.9686
-7.2453 -2.7023 -2.0022 0.9686
-6.9159 -3.4618 -2.0024 0.9685
-6.7882 -3.7066 -2.0025 0.9685
-6.6519 -3.9468 -2.0026 0.9685
-6.5071 -4.1819 -2.0027 0.9685
-6.3540 -4.4117 -2.0028 0.9685
-6.1927 -4.6358 -2.0029 0.9685
-5.4709 -5.4709 -2.0033 0.9685
-5.2724 -5.6629 -2.0033 0.9685
-5.0671 -5.8477 -2.0034 0.9685
-4.8553 -6.0251 -2.0035 0.9685
-4.1839 -6.5103 -2.0037 0.9685
-3.9490 -6.6557 -2.0038 0.9685
-2.9620 -7.1509 -2.0040 0.9685
-1.9144 -7.5004 -2.0042 0.9685
-1.1017 -7.6625 -2.0044 0.9685
-0.8275 -7.6971 -2.0044 0.9685
-0.2763 -7.7367 -2.0045 0.9685
0.2763 -7.7369 -2.0045 0.9685
0.5523 -7.7222 -2.0045 0.9685
0.8276 -7.6976 -2.0045 0.9685
1.1018 -7.6632 -2.0045 0.9685
1.3746 -7.6190 -2.0045 0.9685
1.6457 -7.5651 -2.0046 0.9685
1.9147 -7.5015 -2.0046 0.9685
2.1812 -7.4284 -2.0045 0.9685
2.9627 -7.1526 -2.0045 0.9685
3.7102 -6.7947 -2.0045 0.9685
3.9503 -6.6579 -2.0044 0.9685
4.1853 -6.5125 -2.0044 0.9685
4.4151 -6.3589 -2.0044 0.9685
4.6391 -6.1971 -2.0043 0.9685
4.8572 -6.0275 -2.0043 0.9685
5.0692 -5.8501 -2.0042 0.9685
5.2746 -5.6653 -2.0042 0.9685
5.8495 -5.0687 -2.0040 0.9685
6.1959 -4.6382 -2.0039 0.9685
6.3572 -4.4139 -2.0039 0.9685
6.5105 -4.1841 -2.0038 0.9685
6.6555 -3.9489 -2.0037 0.9685
6.7919 -3.7087 -2.0036 0.9685
7.0387 -3.2144 -2.0035 0.9685
7.2495 -2.7039 -2.0033 0.9685
7.3411 -2.4434 -2.0033 0.9685
7.6128 -1.3735 -2.0029 0.9685
7.7149 -0.5518 -2.0026 0.9685
-7.0650 -0.2523 -2.0013 0.9710
-7.0518 -0.5044 -2.0014 0.9710
-7.0296 -0.7558 -2.0015 0.9710
-6.8517 -1.7488 -2.0019 0.9710
-6.7853 -1.9923 -2.0020 0.9710
-6.4338 -2.9382 -2.0023 0.9710
-6.3251 -3.1661 -2.0024 0.9710
-6.0836 -3.6096 -2.0026 0.9710
-5.9512 -3.8246 -2.0027 0.9710
-5.6636 -4.2397 -2.0028 0.9710
-5.3472 -4.6334 -2.0030 0.9710
-4.8218 -5.1790 -2.0032 0.9710
-4.6341 -5.3480 -2.0033 0.9710
-4.0363 -5.8133 -2.0035 0.9710
-2.9404 -6.4386 -2.0038 0.9710
-2.2355 -6.7165 -2.0039 0.9710
-1.9944 -6.7922 -2.0040 0.9710
-1.5048 -6.9174 -2.0041 0.9710
-1.2570 -6.9669 -2.0041 0.9710
-0.2527 -7.0752 -2.0042 0.9710
0.2527 -7.0754 -2.0043 0.9710
1.0076 -7.0080 -2.0043 0.9710
1.2571 -6.9676 -2.0043 0.9710
2.4742 -6.6336 -2.0043 0.9710
2.9411 -6.4401 -2.0043 0.9710
3.1691 -6.3310 -2.0043 0.9710
3.3930 -6.2137 -2.0042 0.9710
4.0376 -5.8152 -2.0041 0.9710
4.2425 -5.6673 -2.0041 0.9710
5.0054 -5.0054 -2.0039 0.9710
5.3495 -4.6354 -2.0038 0.9710
5.6662 -4.2417 -2.0037 0.9710
5.8139 -4.0366 -2.0037 0.9710
5.9540 -3.8264 -2.0036 0.9710
6.3283 -3.1677 -2.0034 0.9710
6.4372 -2.9397 -2.0034 0.9710
6.7890 -1.9934 -2.0031 0.9710
6.9623 -1.2561 -2.0028 0.9710
7.0025 -1.0068 -2.0027 0.9710
7.0559 -0.5046 -2.0026 0.9710
7.0691 -0.2525 -2.0025 0.9710
-6.5066 0.0000 -2.0013 0.9731
-6.5027 -0.2322 -2.0014 0.9731
-6.4906 -0.4642 -2.0015 0.9731
-6.4701 -0.6956 -2.0015 0.9731
-6.4414 -0.9261 -2.0016 0.9731
-6.4045 -1.1555 -2.0017 0.9731
-6.3595 -1.3834 -2.0018 0.9731
-6.2451 -1.8337 -2.0019 0.9731
-6.0989 -2.2748 -2.0021 0.9731
-6.0140 -2.4911 -2.0022 0.9731
-5.9215 -2.7043 -2.0023 0.9731
-5.8215 -2.9140 -2.0023 0.9731
-5.7140 -3.1200 -2.0024 0.9731
-5.3483 -3.7134 -2.0027 0.9731
-5.2126 -3.9021 -2.0027 0.9731
-5.0702 -4.0858 -2.0028 0.9731
-4.9213 -4.2643 -2.0029 0.9731
-4.7661 -4.4374 -2.0030 0.9731
-4.6049 -4.6049 -2.0030 0.9731
-4.2649 -4.9221 -2.0032 0.9731
-4.0867 -5.0712 -2.0032 0.9731
-3.9032 -5.2140 -2.0033 0.9731
-3.5215 -5.4795 -2.0034 0.9731
-2.0574 -6.1813 -2.0038 0.9731
-0.6965 -6.4780 -2.0040 0.9731
-0.2326 -6.5114 -2.0040 0.9731
0.2326 -6.5115 -2.0041 0.9731
0.4648 -6.4991 -2.0041 0.9731
0.6965 -6.4784 -2.0041 0.9731
0.9273 -6.4495 -2.0041 0.9731
1.3850 -6.3669 -2.0041 0.9731
1.6114 -6.3134 -2.0041 0.9731
2.4934 -6.0197 -2.0041 0.9731
2.9165 -5.8264 -2.0041 0.9731
3.1226 -5.7185 -2.0040 0.9731
3.3246 -5.6034 -2.0040 0.9731
3.5225 -5.4811 -2.0040 0.9731
3.7158 -5.3518 -2.0040 0.9731
3.9044 -5.2157 -2.0039 0.9731
4.2664 -4.9237 -2.0039 0.9731
4.4393 -4.7681 -2.0038 0.9731
4.9232 -4.2660 -2.0037 0.9731
5.2148 -3.9037 -2.0036 0.9731
5.4797 -3.5216 -2.0035 0.9731
5.7166 -3.1215 -2.0034 0.9731
5.8242 -2.9154 -2.0033 0.9731
5.9244 -2.7056 -2.0032 0.9731
6.3095 -1.6104 -2.0029 0.9731
6.3627 -1.3841 -2.0028 0.9731
6.4078 -1.1561 -2.0027 0.9731
6.4448 -0.9266 -2.0027 0.9731
6.5061 -0.2324 -2.0024 0.9731
-6.0207 0.0000 -2.0013 0.9749
-6.0171 -0.2149 -2.0014 0.9749
-5.9604 -0.8570 -2.0016 0.9749
-5.9262 -1.0692 -2.0017 0.9749
-5.8845 -1.2801 -2.0018 0.9749
-5.5648 -2.3050 -2.0022 0.9749
-5.3865 -2.6963 -2.0023 0.9749
-5.2871 -2.8869 -2.0024 0.9749
-5.1808 -3.0739 -2.0025 0.9749
-5.0680 -3.2570 -2.0025 0.9749
-4.9487 -3.4360 -2.0026 0.9749
-4.8231 -3.6105 -2.0027 0.9749
-4.6913 -3.7805 -2.0027 0.9749
-4.4100 -4.1058 -2.0029 0.9749
-3.9462 -4.5541 -2.0031 0.9749
-3.6115 -4.8243 -2.0032 0.9749
-3.2583 -5.0700 -2.0033 0.9749
-2.8884 -5.2898 -2.0034 0.9749
-2.3066 -5.5686 -2.0035 0.9749
-1.9035 -5.7192 -2.0036 0.9749
-1.6982 -5.7836 -2.0037 0.9749
-1.4908 -5.8407 -2.0037 0.9749
-1.2813 -5.8902 -2.0037 0.9749
-1.0703 -5.9323 -2.0038 0.9749
-0.8579 -5.9668 -2.0038 0.9749
-0.2152 -6.0246 -2.0039 0.9749
0.2152 -6.0247 -2.0039 0.9749
1.2815 -5.8909 -2.0039 0.9749
1.6985 -5.7844 -2.0039 0.9749
2.1068 -5.6485 -2.0039 0.9749
2.5043 -5.4837 -2.0039 0.9749
2.8891 -5.2910 -2.0039 0.9749
3.4380 -4.9517 -2.0038 0.9749
3.6125 -4.8257 -2.0038 0.9749
3.9474 -4.5556 -2.0037 0.9749
4.2622 -4.2622 -2.0036 0.9749
4.6931 -3.7819 -2.0035 0.9749
4.8250 -3.6119 -2.0035 0.9749
4.9507 -3.4373 -2.0034 0.9749
5.1830 -3.0752 -2.0033 0.9749
5.2893 -2.8882 -2.0032 0.9749
5.7813 -1.6975 -2.0029 0.9749
5.9290 -1.0697 -2.0027 0.9749
5.9898 -0.6440 -2.0025 0.9749
6.0088 -0.4298 -2.0025 0.9749
6.0201 -0.2150 -2.0024 0.9749
-5.5965 0.0000 -2.0014 0.9765
-5.5932 -0.1998 -2.0014 0.9765
-5.5827 -0.3993 -2.0015 0.9765
-5.5651 -0.5983 -2.0016 0.9765
-5.5086 -0.9938 -2.0017 0.9765
-5.4698 -1.1899 -2.0018 0.9765
-5.3713 -1.5772 -2.0019 0.9765
-5.3118 -1.7679 -2.0020 0.9765
-5.1725 -2.1425 -2.0021 0.9765
-4.9144 -2.6834 -2.0023 0.9765
-4.8156 -2.8572 -2.0024 0.9765
-4.7107 -3.0274 -2.0025 0.9765
-4.5998 -3.1937 -2.0025 0.9765
-4.4831 -3.3560 -2.0026 0.9765
-4.3606 -3.5140 -2.0027 0.9765
-4.2325 -3.6675 -2.0027 0.9765
-4.0990 -3.8163 -2.0028 0.9765
-3.9603 -3.9603 -2.0029 0.9765
-3.6679 -4.2330 -2.0030 0.9765
-3.5146 -4.3613 -2.0030 0.9765
-3.3568 -4.4841 -2.0031 0.9765
-3.1947 -4.6012 -2.0031 0.9765
-3.0285 -4.7124 -2.0032 0.9765
-2.8584 -4.8176 -2.0032 0.9765
-2.6847 -4.9167 -2.0033 0.9765
-2.1439 -5.1758 -2.0034 0.9765
-1.9578 -5.2492 -2.0035 0.9765
-1.7693 -5.3158 -2.0035 0.9765
-1.5785 -5.3757 -2.0035 0.9765
-1.3856 -5.4287 -2.0036 0.9765
-0.7974 -5.5459 -2.0037 0.9765
-0.3997 -5.5888 -2.0037 0.9765
0.9949 -5.5143 -2.0038 0.9765
1.7695 -5.3166 -2.0038 0.9765
2.6853 -4.9178 -2.0037 0.9765
2.8591 -4.8187 -2.0037 0.9765
3.0292 -4.7136 -2.0037 0.9765
3.8177 -4.1005 -2.0035 0.9765
4.3621 -3.5152 -2.0034 0.9765
4.4847 -3.3572 -2.0033 0.9765
4.7125 -3.0285 -2.0032 0.9765
4.9163 -2.6845 -2.0031 0.9765
5.1747 -2.1434 -2.0030 0.9765
5.2478 -1.9573 -2.0029 0.9765
5.3737 -1.5779 -2.0028 0.9765
5.4722 -1.1904 -2.0027 0.9765
5.5428 -0.7969 -2.0025 0.9765
5.5676 -0.5986 -2.0025 0.9765
5.5852 -0.3995 -2.0024 0.9765
5.5957 -0.1998 -2.0023 0.9765
-5.2096 -0.3726 -2.0015 0.9779
-5.1932 -0.5583 -2.0016 0.9779
-5.1405 -0.9274 -2.0017 0.9779
-5.1042 -1.1104 -2.0018 0.9779
-5.0615 -1.2919 -2.0019 0.9779
-4.9568 -1.6498 -2.0020 0.9779
-4.8268 -1.9993 -2.0021 0.9779
-4.6722 -2.3387 -2.0022 0.9779
-4.5859 -2.5041 -2.0023 0.9779
-4.4937 -2.6662 -2.0024 0.9779
-4.3958 -2.8250 -2.0024 0.9779
-4.2923 -2.9802 -2.0025 0.9779
-4.1833 -3.1316 -2.0026 0.9779
-3.1323 -4.1843 -2.0030 0.9779
-2.8260 -4.3973 -2.0031 0.9779
-2.5052 -4.5879 -2.0032 0.9779
-2.1716 -4.7551 -2.0033 0.9779
-2.0005 -4.8297 -2.0033 0.9779
-1.6509 -4.9603 -2.0034 0.9779
-1.2929 -5.0656 -2.0035 0.9779
-1.1113 -5.1086 -2.0035 0.9779
-0.9283 -5.1451 -2.0035 0.9779
-0.1866 -5.2250 -2.0036 0.9779
-0.0000 -5.2284 -2.0036 0.9779
0.3730 -5.2151 -2.0036 0.9779
0.5589 -5.1985 -2.0037 0.9779
1.1114 -5.1090 -2.0037 0.9779
1.2931 -5.0661 -2.0037 0.9779
2.0008 -4.8305 -2.0036 0.9779
2.1720 -4.7559 -2.0036 0.9779
2.5057 -4.5888 -2.0036 0.9779
2.6679 -4.4964 -2.0036 0.9779
2.8266 -4.3983 -2.0036 0.9779
2.9818 -4.2945 -2.0035 0.9779
3.1331 -4.1853 -2.0035 0.9779
3.6966 -3.6966 -2.0034 0.9779
3.8261 -3.5623 -2.0034 0.9779
3.9508 -3.4234 -2.0033 0.9779
4.1848 -3.1327 -2.0032 0.9779
4.2938 -2.9812 -2.0032 0.9779
4.4953 -2.6672 -2.0031 0.9779
4.5876 -2.5050 -2.0031 0.9779
4.6739 -2.3396 -2.0030 0.9779
4.7543 -2.1712 -2.0029 0.9779
4.9588 -1.6504 -2.0028 0.9779
5.1426 -0.9278 -2.0026 0.9779
5.1723 -0.7437 -2.0025 0.9779
5.1954 -0.5586 -2.0024 0.9779
5.2216 -0.1865 -2.0023 0.9779
-1.9449 -0.2796 -0.8042 0.9915
-2.1703 -0.3916 -0.9026 0.9905
-4.7393 -1.2096 -2.0018 0.9791
-4.6932 -1.3781 -2.0019 0.9791
-4.5832 -1.7095 -2.0020 0.9791
-4.2075 -2.4964 -2.0023 0.9791
-4.1159 -2.6451 -2.0024 0.9791
-3.6980 -3.2043 -2.0026 0.9791
-3.5813 -3.3343 -2.0027 0.9791
-3.0707 -3.8105 -2.0029 0.9791
-2.9328 -3.9177 -2.0029 0.9791
-2.4974 -4.2091 -2.0031 0.9791
-2.3456 -4.2956 -2.0031 0.9791
-2.0332 -4.4522 -2.0032 0.9791
-1.3790 -4.6965 -2.0033 0.9791
-1.2105 -4.7428 -2.0034 0.9791
-0.8691 -4.8172 -2.0034 0.9791
-0.6966 -4.8452 -2.0034 0.9791
1.5460 -4.6448 -2.0035 0.9791
1.7107 -4.5867 -2.0035 0.9791
2.0336 -4.4529 -2.0035 0.9791
2.7918 -4.0209 -2.0034 0.9791
3.2055 -3.6993 -2.0033 0.9791
3.4611 -3.4611 -2.0033 0.9791
3.6991 -3.2052 -2.0032 0.9791
3.8110 -3.0711 -2.0032 0.9791
3.9181 -2.9331 -2.0031 0.9791
4.0202 -2.7913 -2.0031 0.9791
4.2090 -2.4973 -2.0030 0.9791
4.2953 -2.3454 -2.0030 0.9791
4.3762 -2.1906 -2.0029 0.9791
4.4515 -2.0329 -2.0029 0.9791
4.5211 -1.8727 -2.0028 0.9791
4.6429 -1.5453 -2.0027 0.9791
4.6950 -1.3786 -2.0027 0.9791
4.7411 -1.2101 -2.0026 0.9791
4.7811 -1.0401 -2.0026 0.9791
4.8151 -0.8687 -2.0025 0.9791
4.8429 -0.6963 -2.0024 0.9791
4.8645 -0.5230 -2.0024 0.9791
4.8799 -0.3490 -2.0023 0.9791
4.8891 -0.1746 -2.0023 0.9791
-1.5221 -0.0000 -0.6634 0.9934
-1.5284 -0.0546 -0.6665 0.9933
-1.5293 -0.1094 -0.6682 0.9933
-1.5249 -0.1639 -0.6684 0.9933
-1.5151 -0.2178 -0.6671 0.9933
-1.5001 -0.2706 -0.6643 0.9934
-1.5214 -0.3310 -0.6786 0.9932
-1.5485 -0.3952 -0.6965 0.9931
-1.5707 -0.4612 -0.7134 0.9929
-1.5875 -0.5284 -0.7292 0.9927
-4.1082 -2.0564 -2.0022 0.9802
-4.0323 -2.2018 -2.0022 0.9802
-3.8651 -2.4840 -2.0024 0.9802
-3.6783 -2.7535 -2.0025 0.9802
-3.4727 -3.0091 -2.0026 0.9802
-3.2493 -3.2493 -2.0027 0.9801
-2.8836 -3.5783 -2.0028 0.9801
-2.7541 -3.6790 -2.0029 0.9801
-2.4847 -3.8663 -2.0029 0.9801
-1.9093 -4.1808 -2.0031 0.9801
-1.6062 -4.3065 -2.0032 0.9801
-1.1368 -4.4538 -2.0033 0.9801
-0.4914 -4.5704 -2.0033 0.9801
-0.3279 -4.5851 -2.0034 0.9801
-0.0000 -4.5969 -2.0034 0.9801
0.3279 -4.5852 -2.0034 0.9801
0.4914 -4.5706 -2.0034 0.9801
0.9772 -4.4919 -2.0034 0.9801
1.1369 -4.4542 -2.0034 0.9801
1.4517 -4.3617 -2.0034 0.9801
1.9096 -4.1815 -2.0034 0.9801
2.0576 -4.1106 -2.0034 0.9801
2.4852 -3.8670 -2.0033 0.9801
2.6216 -3.7758 -2.0033 0.9801
2.8842 -3.5791 -2.0033 0.9801
3.1321 -3.3641 -2.0032 0.9801
3.2502 -3.2502 -2.0032 0.9801
3.5788 -2.8840 -2.0031 0.9801
3.6794 -2.7543 -2.0031 0.9801
3.7753 -2.6212 -2.0030 0.9801
3.8663 -2.4847 -2.0030 0.9801
4.0336 -2.2025 -2.0029 0.9801
4.1095 -2.0571 -2.0029 0.9801
4.3601 -1.4512 -2.0027 0.9801
4.4522 -1.1364 -2.0026 0.9802
4.5217 -0.8158 -2.0025 0.9802
4.5479 -0.6539 -2.0024 0.9802
-1.3376 -0.0478 -0.6195 0.9941
-1.3384 -0.0957 -0.6211 0.9941
-1.3324 -0.4435 -0.6500 0.9938
-1.3324 -0.4970 -0.6582 0.9938
-1.3151 -0.6006 -0.6692 0.9936
-3.7964 -2.0730 -2.0022 0.9811
-3.7201 -2.2072 -2.0023 0.9811
-3.6391 -2.3387 -2.0023 0.9811
-3.3685 -2.7145 -2.0025 0.9811
-3.2695 -2.8330 -2.0025 0.9811
-2.9481 -3.1665 -2.0027 0.9811
-2.4677 -3.5542 -2.0028 0.9811
-2.3393 -3.6401 -2.0029 0.9811
-2.2080 -3.7213 -2.0029 0.9811
-2.0738 -3.7978 -2.0030 0.9811
-1.9369 -3.8695 -2.0030 0.9811
-1.7976 -3.9362 -2.0030 0.9811
-1.6560 -3.9979 -2.0031 0.9811
-1.5123 -4.0546 -2.0031 0.9811
-1.2192 -4.1522 -2.0031 0.9811
-1.0702 -4.1931 -2.0032 0.9811
-0.9199 -4.2287 -2.0032 0.9811
-0.4626 -4.3030 -2.0033 0.9811
-0.3087 -4.3168 -2.0033 0.9811
0.1545 -4.3251 -2.0033 0.9811
0.9200 -4.2291 -2.0033 0.9811
1.0703 -4.1935 -2.0033 0.9811
1.2193 -4.1526 -2.0033 0.9811
1.3668 -4.1065 -2.0033 0.9811
1.6562 -3.9985 -2.0033 0.9811
1.7979 -3.9368 -2.0033 0.9811
1.9372 -3.8701 -2.0033 0.9811
2.0741 -3.7985 -2.0033 0.9811
2.3398 -3.6408 -2.0033 0.9811
2.5935 -3.4645 -2.0032 0.9811
2.7155 -3.3697 -2.0032 0.9811
2.9489 -3.1673 -2.0031 0.9811
3.3694 -2.7152 -2.0030 0.9811
3.5544 -2.4678 -2.0030 0.9811
3.6401 -2.3394 -2.0029 0.9811
3.7976 -2.0736 -2.0028 0.9811
3.8691 -1.9367 -2.0028 0.9811
3.9972 -1.6557 -2.0027 0.9811
4.0537 -1.5119 -2.0027 0.9811
4.1050 -1.3663 -2.0026 0.9811
4.1510 -1.2188 -2.0026 0.9811
4.2818 -0.6156 -2.0024 0.9811
4.3010 -0.4624 -2.0023 0.9811
4.3146 -0.3086 -2.0023 0.9811
-1.1965 -0.0427 -0.5873 0.9947
-1.1921 -0.1282 -0.5881 0.9947
-1.1791 -0.2127 -0.5877 0.9947
-1.1578 -0.2955 -0.5861 0.9947
-1.1543 -0.4305 -0.6043 0.9945
-1.1484 -0.4757 -0.6097 0.9945
-1.1400 -0.5206 -0.6148 0.9944
-3.4340 -2.2069 -2.0023 0.9820
-3.3531 -2.3281 -2.0023 0.9820
-3.2679 -2.4464 -2.0024 0.9820
-3.1786 -2.5615 -2.0024 0.9820
-3.0852 -2.6734 -2.0025 0.9820
-2.9879 -2.7819 -2.0025 0.9820
-2.8868 -2.8868 -2.0026 0.9820
-2.5618 -3.1790 -2.0027 0.9820
-2.4468 -3.2685 -2.0027 0.9820
-2.3286 -3.3538 -2.0028 0.9820
-2.2075 -3.4349 -2.0028 0.9820
-1.9569 -3.5837 -2.0029 0.9820
-1.6963 -3.7143 -2.0030 0.9820
-1.5626 -3.7725 -2.0030 0.9820
-1.4270 -3.8260 -2.0030 0.9820
-1.2896 -3.8745 -2.0030 0.9820
-1.1505 -3.9181 -2.0031 0.9820
-0.5812 -4.0422 -2.0032 0.9820
-0.4365 -4.0604 -2.0032 0.9820
-0.2913 -4.0734 -2.0032 0.9820
-0.1458 -4.0812 -2.0032 0.9820
0.4365 -4.0605 -2.0032 0.9820
0.7251 -4.0190 -2.0033 0.9820
0.8681 -3.9906 -2.0033 0.9820
1.2897 -3.8749 -2.0033 0.9820
1.4272 -3.8264 -2.0032 0.9820
1.5628 -3.7730 -2.0032 0.9820
1.6965 -3.7148 -2.0032 0.9820
1.8280 -3.6519 -2.0032 0.9820
1.9572 -3.5843 -2.0032 0.9820
2.2079 -3.4355 -2.0032 0.9820
2.3290 -3.3544 -2.0032 0.9820
2.6742 -3.0862 -2.0031 0.9820
2.7826 -2.9887 -2.0031 0.9820
2.8875 -2.8875 -2.0030 0.9820
3.1794 -2.5621 -2.0030 0.9820
3.3540 -2.3287 -2.0029 0.9820
3.4349 -2.2075 -2.0029 0.9820
3.5115 -2.0834 -2.0028 0.9820
3.7138 -1.6960 -2.0027 0.9820
3.7719 -1.5624 -2.0027 0.9820
3.8736 -1.2893 -2.0026 0.9820
3.9171 -1.1502 -2.0025 0.9820
3.9890 -0.8677 -2.0024 0.9820
4.0173 -0.7248 -2.0024 0.9820
4.0715 -0.2912 -2.0022 0.9820
-1.0974 -0.1578 -0.5752 0.9950
-1.0814 -0.2353 -0.5741 0.9950
-1.0617 -0.3534 -0.5805 0.9950
-1.0576 -0.3945 -0.5856 0.9949
-1.0118 -0.5525 -0.5981 0.9948
-0.9917 -0.5884 -0.5982 0.9948
-3.1704 -2.2012 -2.0023 0.9828
-2.8251 -2.6303 -2.0025 0.9828
-2.7295 -2.7295 -2.0025 0.9828
-2.6304 -2.8252 -2.0026 0.9828
-2.2017 -3.1711 -2.0027 0.9828
-1.9699 -3.3202 -2.0028 0.9828
-1.8502 -3.3884 -2.0028 0.9828
-1.4775 -3.5669 -2.0029 0.9828
-1.3492 -3.6175 -2.0030 0.9828
-1.2193 -3.6634 -2.0030 0.9828
-1.0878 -3.7046 -2.0030 0.9828
-0.9549 -3.7411 -2.0030 0.9828
-0.6856 -3.7998 -2.0031 0.9828
-0.5495 -3.8219 -2.0031 0.9828
-0.4127 -3.8391 -2.0031 0.9828
0.0000 -3.8613 -2.0031 0.9828
0.1378 -3.8588 -2.0032 0.9828
0.2755 -3.8515 -2.0032 0.9828
0.4128 -3.8392 -2.0032 0.9828
0.8208 -3.7731 -2.0032 0.9828
1.0879 -3.7049 -2.0032 0.9828
1.4777 -3.5674 -2.0032 0.9828
1.6040 -3.5123 -2.0032 0.9828
1.7284 -3.4528 -2.0031 0.9828
1.9703 -3.3207 -2.0031 0.9828
2.2021 -3.1716 -2.0031 0.9828
2.4227 -3.0064 -2.0030 0.9828
2.5284 -2.9180 -2.0030 0.9828
2.6309 -2.8258 -2.0030 0.9828
2.7301 -2.7301 -2.0030 0.9828
2.8258 -2.6309 -2.0030 0.9828
2.9178 -2.5283 -2.0029 0.9828
3.0062 -2.4225 -2.0029 0.9828
3.0907 -2.3136 -2.0029 0.9828
3.3883 -1.8501 -2.0027 0.9828
3.4521 -1.7280 -2.0027 0.9828
3.5115 -1.6036 -2.0027 0.9828
3.6168 -1.3490 -2.0026 0.9828
3.6625 -1.2190 -2.0025 0.9828
3.8204 -0.5493 -2.0023 0.9828
3.8375 -0.4126 -2.0023 0.9828
3.8569 -0.1378 -2.0022 0.9828
-1.0190 -0.1465 -0.5638 0.9953
-1.0039 -0.2184 -0.5627 0.9953
-0.9938 -0.2536 -0.5618 0.9953
-0.9580 -0.4375 -0.5768 0.9952
-0.9434 -0.4722 -0.5778 0.9952
-0.9269 -0.5061 -0.5784 0.9952
-0.9084 -0.5390 -0.5785 0.9952
-0.8881 -0.5708 -0.5782 0.9952
-0.8661 -0.6013 -0.5775 0.9952
-2.7630 -2.3942 -2.0024 0.9835
-2.6759 -2.4913 -2.0025 0.9835
-2.4914 -2.6760 -2.0025 0.9835
-2.1912 -2.9271 -2.0026 0.9835
-1.8659 -3.1447 -2.0027 0.9835
-1.6368 -3.2700 -2.0028 0.9835
-1.2779 -3.4263 -2.0029 0.9835
-1.1549 -3.4698 -2.0029 0.9835
-1.0303 -3.5088 -2.0029 0.9835
-0.7774 -3.5735 -2.0030 0.9835
-0.6493 -3.5990 -2.0030 0.9835
-0.3909 -3.6362 -2.0030 0.9835
-0.1305 -3.6549 -2.0031 0.9835
0.2609 -3.6479 -2.0031 0.9835
0.5205 -3.6201 -2.0031 0.9835
0.6494 -3.5992 -2.0031 0.9835
0.7774 -3.5737 -2.0031 0.9835
1.1550 -3.4701 -2.0031 0.9835
1.3996 -3.3789 -2.0031 0.9835
1.5193 -3.3267 -2.0031 0.9835
1.6370 -3.2704 -2.0031 0.9835
1.8662 -3.1452 -2.0031 0.9835
2.3948 -2.7638 -2.0030 0.9835
2.6765 -2.4919 -2.0029 0.9835
2.8473 -2.2945 -2.0028 0.9835
2.9274 -2.1914 -2.0028 0.9835
3.0037 -2.0855 -2.0028 0.9835
3.2092 -1.7524 -2.0027 0.9835
3.2697 -1.6367 -2.0026 0.9835
3.3260 -1.5189 -2.0026 0.9835
3.3780 -1.3992 -2.0026 0.9835
3.4257 -1.2777 -2.0025 0.9835
3.5080 -1.0300 -2.0025 0.9835
3.5425 -0.9042 -2.0024 0.9835
3.5724 -0.7771 -2.0024 0.9835
3.5978 -0.6491 -2.0023 0.9835
3.6186 -0.5203 -2.0023 0.9835
3.6348 -0.3908 -2.0022 0.9835
3.6463 -0.2608 -2.0022 0.9835
3.6532 -0.1305 -2.0022 0.9835
-0.9570 0.0000 -0.5525 0.9956
-0.9565 -0.0684 -0.5536 0.9956
-0.9537 -0.1025 -0.5538 0.9956
-0.9430 -0.1701 -0.5532 0.9956
-0.9151 -0.2687 -0.5506 0.9956
-0.8534 -0.4660 -0.5614 0.9955
-0.8178 -0.5256 -0.5613 0.9955
-0.8008 -0.5560 -0.5628 0.9955
-0.7671 -0.6182 -0.5688 0.9955
-2.6211 -2.2712 -2.0024 0.9841
-2.5384 -2.3634 -2.0024 0.9841
-2.4525 -2.4525 -2.0025 0.9841
-1.9783 -2.8492 -2.0026 0.9841
-1.6624 -3.0445 -2.0027 0.9841
-1.4410 -3.1554 -2.0028 0.9841
-1.2123 -3.2503 -2.0028 0.9841
-0.8579 -3.3614 -2.0029 0.9841
-0.1238 -3.4671 -2.0030 0.9841
0.0000 -3.4693 -2.0030 0.9841
0.4937 -3.4341 -2.0030 0.9841
0.8580 -3.3616 -2.0030 0.9841
0.9774 -3.3288 -2.0030 0.9841
1.2124 -3.2506 -2.0030 0.9841
1.5529 -3.1023 -2.0030 0.9841
1.7703 -2.9836 -2.0030 0.9841
2.0790 -2.7772 -2.0029 0.9841
2.1768 -2.7012 -2.0029 0.9841
2.2718 -2.6218 -2.0029 0.9841
2.3639 -2.5390 -2.0029 0.9841
2.5390 -2.3638 -2.0028 0.9841
2.6217 -2.2717 -2.0028 0.9841
2.7770 -2.0788 -2.0028 0.9841
2.8494 -1.9783 -2.0027 0.9841
2.9181 -1.8754 -2.0027 0.9841
2.9832 -1.7700 -2.0027 0.9841
1.8682 -0.6968 -1.1512 0.9908
1.9616 -0.5007 -1.1688 0.9907
2.0153 -0.3636 -1.1823 0.9906
2.0359 -0.1456 -1.1784 0.9906
