ply
format ascii 1.0
element vertex 741
property float32 x
property float32 y
property float32 z
property float32 I
end_header
-9.4541 -0.6762 -2.0035 0.9620
-9.3829 -1.3491 -2.0038 0.9620
-9.2638 -2.0152 -2.0040 0.9620
-9.1865 -2.3447 -2.0041 0.9620
-8.4807 -4.2452 -2.0047 0.9620
-8.3242 -4.5453 -2.0048 0.9620
-7.7916 -5.4098 -2.0050 0.9620
-7.5938 -5.6846 -2.0051 0.9620
-7.3863 -5.9523 -2.0052 0.9620
-6.9433 -6.4644 -2.0053 0.9620
-6.7083 -6.7083 -2.0054 0.9620
-5.9532 -7.3875 -2.0055 0.9620
-5.6859 -7.5954 -2.0055 0.9620
-5.4112 -7.7937 -2.0056 0.9620
-5.1297 -7.9820 -2.0056 0.9620
-4.5473 -8.3278 -2.0057 0.9620
-4.2472 -8.4848 -2.0057 0.9620
-3.9417 -8.6311 -2.0057 0.9620
-3.3159 -8.8903 -2.0057 0.9619
-2.3466 -9.1937 -2.0057 0.9620
-2.0169 -9.2715 -2.0056 0.9620
-1.6847 -9.3374 -2.0056 0.9620
-0.6769 -9.4636 -2.0055 0.9620
-0.3386 -9.4815 -2.0055 0.9620
1.0141 -9.4322 -2.0053 0.9620
1.6842 -9.3352 -2.0051 0.9620
2.9952 -8.9990 -2.0048 0.9620
4.2446 -8.4796 -2.0044 0.9620
4.5443 -8.3223 -2.0043 0.9620
5.1259 -7.9760 -2.0041 0.9620
5.4070 -7.7876 -2.0040 0.9620
6.7018 -6.7018 -2.0034 0.9620
7.5854 -5.6784 -2.0029 0.9620
7.9701 -5.1221 -2.0026 0.9620
8.1473 -4.8341 -2.0025 0.9620
8.9851 -2.9905 -2.0017 0.9620
9.0855 -2.6678 -2.0016 0.9620
9.3702 -1.3472 -2.0010 0.9620
9.4117 -1.0119 -2.0009 0.9620
9.4412 -0.6753 -2.0008 0.9620
9.4587 -0.3378 -2.0006 0.9620
-8.5231 0.0000 -2.0031 0.9656
-8.5023 -0.6081 -2.0034 0.9656
-8.4757 -0.9112 -2.0035 0.9656
-8.3900 -1.5137 -2.0037 0.9656
-8.2615 -2.1086 -2.0039 0.9656
-8.1813 -2.4023 -2.0040 0.9656
-8.0908 -2.6929 -2.0041 0.9656
-7.9898 -2.9801 -2.0042 0.9656
-7.4857 -4.0875 -2.0045 0.9656
-7.3353 -4.3522 -2.0046 0.9656
-6.8288 -5.1120 -2.0048 0.9656
-6.6422 -5.3526 -2.0048 0.9656
-6.4471 -5.5864 -2.0049 0.9656
-6.2437 -5.8131 -2.0050 0.9656
-6.0324 -6.0324 -2.0050 0.9656
-5.8134 -6.2440 -2.0051 0.9656
-5.5870 -6.4477 -2.0051 0.9656
-5.1129 -6.8301 -2.0052 0.9656
-4.3537 -7.3378 -2.0053 0.9655
-3.5445 -7.7613 -2.0053 0.9655
-2.9817 -7.9944 -2.0053 0.9655
-2.4038 -8.1867 -2.0053 0.9655
-2.1101 -8.2672 -2.0053 0.9655
-1.2142 -8.4452 -2.0052 0.9655
-0.9120 -8.4830 -2.0052 0.9656
-0.3045 -8.5261 -2.0051 0.9656
0.6086 -8.5092 -2.0050 0.9656
0.9119 -8.4819 -2.0049 0.9656
1.5146 -8.3947 -2.0048 0.9656
1.8132 -8.3350 -2.0047 0.9656
2.4030 -8.1838 -2.0046 0.9656
2.6935 -8.0926 -2.0045 0.9656
2.9805 -7.9909 -2.0044 0.9656
3.2637 -7.8791 -2.0044 0.9656
3.8171 -7.6256 -2.0042 0.9656
4.0866 -7.4842 -2.0041 0.9656
4.6097 -7.1729 -2.0039 0.9656
4.8625 -7.0034 -2.0038 0.9656
5.5824 -6.4425 -2.0035 0.9656
6.0272 -6.0272 -2.0033 0.9656
6.2381 -5.8079 -2.0032 0.9656
6.4411 -5.5812 -2.0030 0.9656
6.6358 -5.3475 -2.0029 0.9656
6.8220 -5.1069 -2.0028 0.9656
7.1681 -4.6067 -2.0026 0.9656
7.3275 -4.3476 -2.0025 0.9656
7.4776 -4.0831 -2.0023 0.9656
7.6181 -3.8133 -2.0022 0.9656
7.9806 -2.9766 -2.0018 0.9656
8.0813 -2.6897 -2.0017 0.9656
8.2516 -2.1061 -2.0015 0.9656
8.3210 -1.8101 -2.0014 0.9656
8.3798 -1.5119 -2.0012 0.9656
8.4279 -1.2118 -2.0011 0.9656
-7.6929 -0.8271 -2.0033 0.9685
-7.6151 -1.3739 -2.0035 0.9685
-7.4983 -1.9138 -2.0037 0.9685
-7.3434 -2.4441 -2.0039 0.9685
-7.0409 -3.2154 -2.0041 0.9685
-6.6575 -3.9501 -2.0043 0.9685
-6.5125 -4.1853 -2.0044 0.9685
-6.3592 -4.4153 -2.0045 0.9685
-6.1977 -4.6396 -2.0045 0.9685
-6.0284 -4.8579 -2.0046 0.9685
-5.8513 -5.0701 -2.0046 0.9685
-5.6667 -5.2759 -2.0047 0.9685
-5.4749 -5.4749 -2.0047 0.9685
-5.2762 -5.6670 -2.0048 0.9685
-5.0706 -5.8518 -2.0048 0.9685
-4.6404 -6.1988 -2.0049 0.9685
-4.4162 -6.3606 -2.0049 0.9685
-4.1864 -6.5142 -2.0049 0.9685
-3.9513 -6.6596 -2.0049 0.9685
-3.2169 -7.0439 -2.0050 0.9685
-2.9634 -7.1543 -2.0050 0.9685
-2.7062 -7.2555 -2.0050 0.9685
-2.4455 -7.3474 -2.0050 0.9685
-2.1817 -7.4300 -2.0050 0.9685
-1.9151 -7.5031 -2.0050 0.9685
-1.6460 -7.5666 -2.0050 0.9685
-0.5524 -7.7235 -2.0049 0.9685
-0.0000 -7.7429 -2.0048 0.9685
0.2764 -7.7378 -2.0047 0.9685
0.5523 -7.7228 -2.0047 0.9685
0.8276 -7.6980 -2.0046 0.9685
1.1018 -7.6634 -2.0046 0.9685
1.3746 -7.6190 -2.0045 0.9685
1.9145 -7.5010 -2.0044 0.9685
2.1810 -7.4277 -2.0043 0.9685
2.4446 -7.3448 -2.0043 0.9685
3.4644 -6.9211 -2.0040 0.9685
4.1839 -6.5103 -2.0037 0.9685
4.4134 -6.3565 -2.0036 0.9685
4.6372 -6.1947 -2.0035 0.9685
4.8552 -6.0249 -2.0034 0.9685
5.0669 -5.8475 -2.0033 0.9685
5.2721 -5.6627 -2.0032 0.9685
5.4706 -5.4706 -2.0031 0.9685
5.6621 -5.2716 -2.0030 0.9685
5.8463 -5.0659 -2.0029 0.9685
6.0231 -4.8537 -2.0028 0.9685
6.1921 -4.6354 -2.0027 0.9685
6.3533 -4.4112 -2.0026 0.9685
6.6511 -3.9463 -2.0024 0.9686
6.7874 -3.7062 -2.0023 0.9686
6.9149 -3.4614 -2.0022 0.9686
7.1435 -2.9589 -2.0020 0.9686
7.2441 -2.7019 -2.0019 0.9686
7.4902 -1.9118 -2.0015 0.9686
7.5533 -1.6431 -2.0014 0.9686
7.6844 -0.8262 -2.0011 0.9686
-7.0751 0.0000 -2.0029 0.9710
-7.0044 -1.0071 -2.0033 0.9710
-6.9643 -1.2565 -2.0034 0.9710
-6.8575 -1.7503 -2.0035 0.9710
-6.7157 -2.2352 -2.0037 0.9710
-6.6319 -2.4736 -2.0038 0.9710
-6.5396 -2.7088 -2.0038 0.9710
-6.4390 -2.9406 -2.0039 0.9710
-6.3302 -3.1686 -2.0040 0.9710
-5.9557 -3.8275 -2.0042 0.9710
-5.8155 -4.0378 -2.0042 0.9710
-5.5129 -4.4426 -2.0043 0.9710
-5.3510 -4.6366 -2.0044 0.9710
-5.1822 -4.8248 -2.0044 0.9710
-5.0068 -5.0068 -2.0045 0.9710
-4.4431 -5.5136 -2.0046 0.9710
-3.6134 -6.0901 -2.0047 0.9710
-3.3938 -6.2152 -2.0047 0.9710
-2.9418 -6.4415 -2.0047 0.9710
-2.7100 -6.5425 -2.0047 0.9710
-2.4747 -6.6350 -2.0047 0.9710
-2.2363 -6.7191 -2.0047 0.9710
-1.9951 -6.7946 -2.0047 0.9710
-1.5053 -6.9196 -2.0047 0.9710
-1.2573 -6.9688 -2.0047 0.9710
-1.0078 -7.0092 -2.0047 0.9710
-0.7569 -7.0406 -2.0046 0.9710
-0.2527 -7.0764 -2.0046 0.9710
0.2527 -7.0762 -2.0045 0.9710
0.5051 -7.0625 -2.0045 0.9710
1.2571 -6.9675 -2.0043 0.9710
1.5049 -6.9180 -2.0043 0.9710
2.4738 -6.6326 -2.0040 0.9710
2.9405 -6.4388 -2.0039 0.9710
3.1683 -6.3295 -2.0038 0.9710
3.6115 -6.0869 -2.0036 0.9710
4.0362 -5.8133 -2.0035 0.9710
4.2410 -5.6653 -2.0034 0.9710
4.4403 -5.5100 -2.0033 0.9710
5.1783 -4.8212 -2.0029 0.9710
5.6632 -4.2394 -2.0027 0.9710
5.8106 -4.0344 -2.0026 0.9710
6.0830 -3.6092 -2.0024 0.9710
6.3243 -3.1657 -2.0022 0.9710
6.6255 -2.4712 -2.0019 0.9710
6.7092 -2.2330 -2.0018 0.9710
6.7842 -1.9921 -2.0017 0.9710
6.8507 -1.7485 -2.0016 0.9710
6.9084 -1.5028 -2.0015 0.9710
6.9973 -1.0061 -2.0013 0.9710
7.0505 -0.5043 -2.0011 0.9710
-6.5116 0.0000 -2.0028 0.9731
-6.4956 -0.4646 -2.0030 0.9731
-6.4464 -0.9269 -2.0032 0.9731
-6.3112 -1.6108 -2.0034 0.9731
-6.1806 -2.0571 -2.0036 0.9731
-5.9259 -2.7063 -2.0038 0.9731
-5.7181 -3.1223 -2.0039 0.9731
-5.4811 -3.5225 -2.0040 0.9731
-5.3521 -3.7160 -2.0041 0.9731
-5.2161 -3.9047 -2.0041 0.9731
-5.0736 -4.0885 -2.0042 0.9731
-4.7692 -4.4402 -2.0042 0.9731
-4.6077 -4.6077 -2.0043 0.9731
-4.4404 -4.7693 -2.0043 0.9731
-4.2674 -4.9249 -2.0043 0.9731
-3.7167 -5.3530 -2.0044 0.9731
-3.5233 -5.4823 -2.0044 0.9731
-3.3254 -5.6046 -2.0045 0.9731
-3.1233 -5.7198 -2.0045 0.9731
-2.9171 -5.8277 -2.0045 0.9731
-2.4940 -6.0209 -2.0045 0.9731
-2.2775 -6.1061 -2.0045 0.9731
-2.0581 -6.1835 -2.0045 0.9731
-1.6117 -6.3146 -2.0045 0.9731
-1.1571 -6.4133 -2.0044 0.9731
-0.9274 -6.4505 -2.0044 0.9731
-0.0000 -6.5165 -2.0043 0.9731
0.2326 -6.5122 -2.0043 0.9731
0.4649 -6.4996 -2.0042 0.9731
0.9273 -6.4496 -2.0042 0.9731
1.1569 -6.4122 -2.0041 0.9731
1.3850 -6.3667 -2.0041 0.9731
1.6113 -6.3131 -2.0040 0.9731
1.8356 -6.2514 -2.0040 0.9731
2.0575 -6.1817 -2.0039 0.9731
2.2767 -6.1041 -2.0038 0.9731
2.4931 -6.0188 -2.0038 0.9731
2.7062 -5.9258 -2.0037 0.9731
2.9159 -5.8252 -2.0036 0.9731
3.3238 -5.6019 -2.0035 0.9731
3.5215 -5.4796 -2.0034 0.9731
4.0866 -5.0711 -2.0032 0.9731
4.2648 -4.9218 -2.0031 0.9731
4.9210 -4.2641 -2.0028 0.9731
5.2122 -3.9018 -2.0026 0.9731
5.4767 -3.5197 -2.0024 0.9731
5.5986 -3.3218 -2.0023 0.9731
5.8208 -2.9137 -2.0021 0.9731
6.0133 -2.4908 -2.0019 0.9731
6.0981 -2.2745 -2.0019 0.9731
6.1751 -2.0553 -2.0018 0.9731
6.3054 -1.6094 -2.0016 0.9731
6.3585 -1.3832 -2.0015 0.9731
6.4035 -1.1553 -2.0014 0.9731
6.4404 -0.9260 -2.0013 0.9731
6.4691 -0.6955 -2.0012 0.9731
6.4895 -0.4642 -2.0011 0.9731
6.5016 -0.2322 -2.0010 0.9731
-6.0251 0.0000 -2.0028 0.9749
-6.0102 -0.4299 -2.0029 0.9749
-5.9647 -0.8576 -2.0031 0.9749
-5.7186 -1.9033 -2.0034 0.9749
-5.4829 -2.5040 -2.0036 0.9749
-5.3902 -2.6982 -2.0037 0.9749
-5.2907 -2.8889 -2.0037 0.9749
-4.9519 -3.4382 -2.0039 0.9749
-4.4126 -4.1082 -2.0041 0.9749
-4.2632 -4.2632 -2.0041 0.9749
-4.1084 -4.4127 -2.0041 0.9749
-3.9483 -4.5566 -2.0042 0.9749
-3.6133 -4.8268 -2.0042 0.9749
-3.4388 -4.9528 -2.0042 0.9749
-3.2598 -5.0724 -2.0043 0.9749
-3.0767 -5.1855 -2.0043 0.9749
-2.8897 -5.2921 -2.0043 0.9749
-2.5048 -5.4848 -2.0043 0.9749
-1.6988 -5.7854 -2.0043 0.9749
-1.2817 -5.8918 -2.0043 0.9749
-0.8581 -5.9681 -2.0042 0.9749
-0.4301 -6.0140 -2.0042 0.9749
-0.2152 -6.0254 -2.0042 0.9749
-0.0000 -6.0292 -2.0041 0.9749
0.8580 -5.9674 -2.0040 0.9749
1.4908 -5.8411 -2.0039 0.9749
1.9036 -5.7195 -2.0037 0.9749
2.1065 -5.6478 -2.0037 0.9749
2.3067 -5.5688 -2.0036 0.9749
2.6979 -5.3898 -2.0035 0.9749
4.4097 -4.1056 -2.0028 0.9749
4.5533 -3.9455 -2.0027 0.9749
5.0676 -3.2568 -2.0024 0.9749
5.2866 -2.8867 -2.0022 0.9749
5.4786 -2.5020 -2.0020 0.9749
5.7139 -1.9018 -2.0018 0.9749
5.8345 -1.4892 -2.0016 0.9749
5.8837 -1.2799 -2.0015 0.9749
5.9254 -1.0691 -2.0014 0.9749
5.9595 -0.8569 -2.0013 0.9749
5.9861 -0.6436 -2.0013 0.9749
6.0050 -0.4295 -2.0012 0.9749
6.0162 -0.2149 -2.0011 0.9749
-5.5688 -0.5987 -2.0029 0.9765
-5.5441 -0.7971 -2.0030 0.9765
-5.5123 -0.9945 -2.0031 0.9765
-5.4735 -1.1907 -2.0031 0.9765
-5.3154 -1.7691 -2.0033 0.9765
-5.0100 -2.5079 -2.0036 0.9765
-4.9175 -2.6851 -2.0036 0.9765
-4.8186 -2.8590 -2.0037 0.9765
-4.7136 -3.0292 -2.0037 0.9765
-4.4857 -3.3580 -2.0038 0.9765
-4.1013 -3.8184 -2.0039 0.9765
-3.9625 -3.9625 -2.0039 0.9765
-3.8186 -4.1014 -2.0040 0.9765
-3.5163 -4.3635 -2.0040 0.9765
-2.3281 -5.0978 -2.0041 0.9765
-2.1447 -5.1777 -2.0041 0.9765
-1.9585 -5.2509 -2.0041 0.9765
-1.5789 -5.3773 -2.0041 0.9765
-1.3860 -5.4302 -2.0041 0.9765
-0.9951 -5.5151 -2.0041 0.9765
-0.7976 -5.5471 -2.0041 0.9765
-0.5990 -5.5720 -2.0041 0.9765
-0.3998 -5.5897 -2.0040 0.9765
-0.2000 -5.6004 -2.0040 0.9765
0.2000 -5.6002 -2.0040 0.9765
0.5990 -5.5715 -2.0039 0.9765
1.3857 -5.4291 -2.0037 0.9765
1.5785 -5.3760 -2.0037 0.9765
1.9579 -5.2495 -2.0036 0.9765
2.3273 -5.0961 -2.0035 0.9765
2.5076 -5.0097 -2.0034 0.9765
3.1947 -4.6012 -2.0031 0.9765
3.3567 -4.4841 -2.0031 0.9765
3.5145 -4.3613 -2.0030 0.9765
3.6678 -4.2329 -2.0029 0.9765
4.2323 -3.6673 -2.0026 0.9765
4.3603 -3.5138 -2.0026 0.9765
4.4828 -3.3558 -2.0025 0.9765
4.7104 -3.0272 -2.0023 0.9765
4.8153 -2.8570 -2.0023 0.9765
4.9140 -2.6832 -2.0022 0.9765
5.0064 -2.5060 -2.0021 0.9765
5.0925 -2.3257 -2.0020 0.9765
5.1720 -2.1423 -2.0019 0.9765
5.3112 -1.7678 -2.0018 0.9765
5.3708 -1.5770 -2.0017 0.9765
5.5079 -0.9937 -2.0015 0.9765
5.5643 -0.5982 -2.0013 0.9765
5.5819 -0.3992 -2.0012 0.9765
5.5924 -0.1997 -2.0012 0.9765
-5.2259 0.0000 -2.0027 0.9779
-5.2129 -0.3728 -2.0028 0.9779
-5.1734 -0.7438 -2.0029 0.9779
-4.9599 -1.6508 -2.0032 0.9779
-4.8979 -1.8268 -2.0033 0.9779
-4.8297 -2.0005 -2.0033 0.9779
-4.7554 -2.1717 -2.0034 0.9779
-4.5886 -2.5055 -2.0035 0.9779
-4.3983 -2.8266 -2.0036 0.9779
-4.2947 -2.9819 -2.0036 0.9779
-4.0712 -3.2808 -2.0037 0.9779
-3.8269 -3.5630 -2.0038 0.9779
-3.4243 -3.9519 -2.0039 0.9778
-3.2811 -4.0716 -2.0039 0.9778
-2.0012 -4.8313 -2.0040 0.9778
-1.8275 -4.8996 -2.0040 0.9778
-1.6514 -4.9617 -2.0040 0.9778
-1.4733 -5.0175 -2.0040 0.9778
-1.2933 -5.0669 -2.0040 0.9778
-0.7442 -5.1760 -2.0039 0.9778
-0.3730 -5.2158 -2.0039 0.9778
-0.0000 -5.2290 -2.0038 0.9778
0.1866 -5.2256 -2.0038 0.9779
0.3730 -5.2155 -2.0038 0.9779
0.5589 -5.1988 -2.0037 0.9779
1.2930 -5.0659 -2.0036 0.9779
1.4730 -5.0164 -2.0035 0.9779
1.6510 -4.9606 -2.0035 0.9779
2.0006 -4.8299 -2.0034 0.9779
2.1716 -4.7553 -2.0033 0.9779
2.3399 -4.6746 -2.0033 0.9779
2.6673 -4.4955 -2.0032 0.9779
2.8260 -4.3973 -2.0031 0.9779
3.1323 -4.1843 -2.0030 0.9779
3.2796 -4.0697 -2.0029 0.9779
3.4226 -3.9499 -2.0029 0.9779
3.9493 -3.4221 -2.0026 0.9779
4.0688 -3.2789 -2.0025 0.9779
4.1831 -3.1315 -2.0025 0.9779
4.2921 -2.9800 -2.0024 0.9779
4.3955 -2.8248 -2.0023 0.9779
4.4934 -2.6661 -2.0022 0.9779
4.6718 -2.3385 -2.0021 0.9779
4.7521 -2.1702 -2.0020 0.9779
4.8945 -1.8255 -2.0019 0.9779
4.9563 -1.6496 -2.0018 0.9779
5.0610 -1.2918 -2.0016 0.9779
5.1037 -1.1102 -2.0016 0.9779
5.1695 -0.7433 -2.0014 0.9779
5.1926 -0.5583 -2.0013 0.9779
-1.8978 0.0000 -0.7767 0.9918
-1.9308 -0.0690 -0.7907 0.9917
-1.9525 -0.1396 -0.8011 0.9916
-1.9570 -0.2104 -0.8055 0.9915
-1.9449 -0.2796 -0.8042 0.9915
-4.7821 -1.0403 -2.0030 0.9791
-4.7421 -1.2103 -2.0030 0.9791
-4.6960 -1.3789 -2.0031 0.9791
-4.6439 -1.5456 -2.0031 0.9791
-4.5859 -1.7104 -2.0032 0.9791
-4.4524 -2.0334 -2.0033 0.9791
-4.3771 -2.1910 -2.0033 0.9791
-4.2962 -2.3459 -2.0034 0.9791
-4.0211 -2.7919 -2.0035 0.9791
-3.9190 -2.9337 -2.0036 0.9791
-3.8118 -3.0717 -2.0036 0.9791
-3.5831 -3.3360 -2.0037 0.9791
-3.0720 -3.8121 -2.0038 0.9791
-2.9340 -3.9194 -2.0038 0.9791
-2.6470 -4.1188 -2.0038 0.9791
-2.3464 -4.2972 -2.0038 0.9791
-2.1916 -4.3782 -2.0038 0.9791
-2.0339 -4.4536 -2.0038 0.9791
-1.7110 -4.5874 -2.0038 0.9791
-1.5462 -4.6455 -2.0038 0.9791
-1.3794 -4.6978 -2.0038 0.9791
-1.2108 -4.7440 -2.0038 0.9791
-1.0407 -4.7842 -2.0038 0.9791
-0.8693 -4.8182 -2.0038 0.9791
-0.6968 -4.8461 -2.0038 0.9791
-0.3493 -4.8834 -2.0038 0.9791
0.1747 -4.8926 -2.0037 0.9791
0.3492 -4.8832 -2.0037 0.9791
0.6967 -4.8457 -2.0036 0.9791
1.3791 -4.6968 -2.0034 0.9791
1.5458 -4.6445 -2.0034 0.9791
1.7106 -4.5863 -2.0034 0.9791
1.8732 -4.5222 -2.0033 0.9791
2.1909 -4.3768 -2.0032 0.9791
2.4974 -4.2091 -2.0031 0.9791
2.6460 -4.1172 -2.0030 0.9791
3.2046 -3.6983 -2.0028 0.9791
3.3344 -3.5814 -2.0027 0.9791
3.5812 -3.3342 -2.0026 0.9791
3.9167 -2.9320 -2.0024 0.9791
4.0187 -2.7903 -2.0024 0.9791
4.1156 -2.6450 -2.0023 0.9791
4.3743 -2.1896 -2.0021 0.9791
4.5828 -1.7093 -2.0019 0.9791
4.7388 -1.2095 -2.0017 0.9791
4.8127 -0.8683 -2.0015 0.9791
-1.5284 -0.0546 -0.6665 0.9933
-1.5293 -0.1094 -0.6682 0.9933
-1.5002 -0.2707 -0.6643 0.9934
-1.5214 -0.3310 -0.6786 0.9932
-1.5485 -0.3952 -0.6965 0.9931
-1.5707 -0.4612 -0.7134 0.9929
-1.5875 -0.5284 -0.7292 0.9927
-4.1811 -1.9094 -2.0032 0.9801
-3.8671 -2.4852 -2.0034 0.9801
-3.4743 -3.0105 -2.0035 0.9801
-3.1327 -3.3648 -2.0036 0.9801
-2.7552 -3.6805 -2.0037 0.9801
-2.6221 -3.7765 -2.0037 0.9801
-2.4856 -3.8677 -2.0037 0.9801
-2.3460 -3.9540 -2.0037 0.9801
-2.0580 -4.1113 -2.0037 0.9801
-1.7594 -4.2477 -2.0037 0.9801
-1.6067 -4.3078 -2.0037 0.9801
-1.1370 -4.4548 -2.0037 0.9801
0.0000 -4.5974 -2.0036 0.9801
0.4914 -4.5708 -2.0035 0.9801
0.6542 -4.5503 -2.0035 0.9801
1.2950 -4.4106 -2.0033 0.9801
1.4516 -4.3614 -2.0033 0.9801
1.6063 -4.3068 -2.0033 0.9801
1.7590 -4.2466 -2.0032 0.9801
2.0574 -4.1101 -2.0031 0.9801
2.2027 -4.0339 -2.0031 0.9801
2.4847 -3.8663 -2.0030 0.9801
2.6211 -3.7751 -2.0029 0.9801
3.1313 -3.3633 -2.0027 0.9801
3.2492 -3.2493 -2.0026 0.9801
3.5776 -2.8830 -2.0024 0.9802
3.9510 -2.3442 -2.0022 0.9802
4.1785 -1.9083 -2.0020 0.9802
4.3038 -1.6052 -2.0019 0.9802
4.4070 -1.2940 -2.0017 0.9802
4.4878 -0.9763 -2.0016 0.9802
4.5660 -0.4909 -2.0014 0.9802
4.5805 -0.3276 -2.0014 0.9802
4.5891 -0.1639 -2.0013 0.9802
-1.3333 0.0000 -0.6172 0.9941
-1.3376 -0.0478 -0.6195 0.9941
-1.3351 -0.1435 -0.6215 0.9941
-1.3273 -0.1909 -0.6207 0.9941
-1.3013 -0.2831 -0.6164 0.9941
-1.3117 -0.3348 -0.6266 0.9941
-1.3324 -0.4435 -0.6500 0.9938
-1.3263 -0.5494 -0.6645 0.9937
-3.8699 -1.9371 -2.0032 0.9811
-3.7983 -2.0740 -2.0032 0.9811
-3.5551 -2.4683 -2.0033 0.9811
-3.2710 -2.8343 -2.0034 0.9811
-3.1678 -2.9493 -2.0035 0.9811
-3.0605 -3.0605 -2.0035 0.9811
-2.9494 -3.1679 -2.0035 0.9811
-2.4686 -3.5555 -2.0036 0.9811
-1.6565 -3.9991 -2.0036 0.9811
-1.0705 -4.1941 -2.0036 0.9811
-0.9201 -4.2296 -2.0036 0.9811
-0.7685 -4.2597 -2.0036 0.9811
-0.6160 -4.2844 -2.0036 0.9811
-0.3088 -4.3174 -2.0035 0.9811
-0.0000 -4.3283 -2.0035 0.9811
0.3088 -4.3172 -2.0035 0.9811
0.7684 -4.2592 -2.0034 0.9811
1.0703 -4.1934 -2.0033 0.9811
1.3667 -4.1062 -2.0032 0.9811
1.5123 -4.0548 -2.0032 0.9811
1.7977 -3.9364 -2.0031 0.9811
2.0738 -3.7979 -2.0030 0.9811
2.4677 -3.5542 -2.0029 0.9811
2.7149 -3.3689 -2.0028 0.9811
2.8333 -3.2698 -2.0027 0.9811
2.9481 -3.1665 -2.0026 0.9811
3.0592 -3.0592 -2.0026 0.9811
3.1663 -2.9479 -2.0025 0.9811
3.2694 -2.8330 -2.0025 0.9811
3.3683 -2.7144 -2.0024 0.9811
3.4630 -2.5924 -2.0024 0.9811
3.7199 -2.2071 -2.0022 0.9811
3.7962 -2.0729 -2.0021 0.9811
3.9957 -1.6551 -2.0019 0.9811
4.1033 -1.3657 -2.0018 0.9811
4.1493 -1.2184 -2.0017 0.9811
4.1900 -1.0695 -2.0017 0.9811
4.2254 -0.9192 -2.0016 0.9811
4.2799 -0.6154 -2.0015 0.9811
4.3127 -0.3084 -2.0014 0.9811
4.3208 -0.1543 -2.0013 0.9811
-1.1954 -0.0855 -0.5878 0.9947
-1.1921 -0.1282 -0.5881 0.9947
-1.1791 -0.2127 -0.5877 0.9947
-1.1695 -0.2544 -0.5871 0.9947
-1.1578 -0.2955 -0.5861 0.9947
-1.1578 -0.3854 -0.5986 0.9946
-1.1484 -0.4757 -0.6097 0.9945
-1.1400 -0.5206 -0.6148 0.9944
-1.1292 -0.5652 -0.6194 0.9944
-1.1113 -0.6068 -0.6211 0.9944
-3.4355 -2.2079 -2.0032 0.9820
-3.3546 -2.3291 -2.0032 0.9820
-3.2694 -2.4474 -2.0033 0.9820
-3.0866 -2.6745 -2.0033 0.9820
-2.9892 -2.7830 -2.0034 0.9820
-2.8879 -2.8879 -2.0034 0.9820
-2.7831 -2.9892 -2.0034 0.9820
-2.3294 -3.3550 -2.0035 0.9820
-2.2082 -3.4360 -2.0035 0.9820
-2.0842 -3.5127 -2.0035 0.9820
-1.8283 -3.6524 -2.0035 0.9820
-1.6967 -3.7154 -2.0035 0.9820
-1.4274 -3.8269 -2.0035 0.9820
-1.2899 -3.8754 -2.0035 0.9820
-1.0101 -3.9576 -2.0035 0.9820
-0.8682 -3.9911 -2.0035 0.9820
-0.7252 -4.0195 -2.0035 0.9820
-0.2914 -4.0739 -2.0035 0.9820
-0.1458 -4.0817 -2.0034 0.9820
-0.0000 -4.0842 -2.0034 0.9820
0.2914 -4.0737 -2.0034 0.9820
0.5812 -4.0425 -2.0033 0.9820
0.7251 -4.0191 -2.0033 0.9820
1.1505 -3.9184 -2.0032 0.9820
1.5627 -3.7727 -2.0031 0.9820
1.6963 -3.7145 -2.0030 0.9820
2.3286 -3.3538 -2.0028 0.9820
2.4468 -3.2685 -2.0028 0.9820
2.5618 -3.1790 -2.0027 0.9820
2.8867 -2.8867 -2.0026 0.9820
2.9879 -2.7818 -2.0025 0.9820
3.3530 -2.3280 -2.0023 0.9820
3.4338 -2.2068 -2.0022 0.9820
3.5103 -2.0828 -2.0022 0.9820
3.6497 -1.8269 -2.0020 0.9820
3.8238 -1.4262 -2.0019 0.9820
3.9155 -1.1497 -2.0018 0.9820
3.9540 -1.0092 -2.0017 0.9820
3.9873 -0.8674 -2.0016 0.9820
4.0157 -0.7245 -2.0016 0.9820
4.0389 -0.5807 -2.0015 0.9820
4.0569 -0.4362 -2.0015 0.9820
4.0775 -0.1456 -2.0014 0.9820
-1.1058 0.0000 -0.5737 0.9950
-1.1024 -0.1185 -0.5752 0.9950
-1.0905 -0.1967 -0.5749 0.9950
-1.0814 -0.2353 -0.5741 0.9950
-1.0704 -0.2732 -0.5731 0.9950
-1.0617 -0.3534 -0.5805 0.9950
-1.0576 -0.3945 -0.5856 0.9949
-1.0298 -0.5155 -0.5974 0.9948
-3.2483 -2.0876 -2.0031 0.9828
-3.0912 -2.3140 -2.0032 0.9828
-2.9183 -2.5287 -2.0033 0.9827
-2.8262 -2.6313 -2.0033 0.9827
-2.5288 -2.9184 -2.0033 0.9827
-2.3142 -3.0915 -2.0034 0.9827
-2.2025 -3.1721 -2.0034 0.9827
-1.8508 -3.3894 -2.0034 0.9827
-1.6043 -3.5129 -2.0034 0.9827
-1.4779 -3.5679 -2.0034 0.9827
-1.3496 -3.6183 -2.0034 0.9827
-1.2196 -3.6642 -2.0034 0.9827
-1.0880 -3.7054 -2.0034 0.9827
-0.6857 -3.8004 -2.0034 0.9827
-0.5496 -3.8224 -2.0034 0.9827
-0.4128 -3.8396 -2.0034 0.9827
-0.2755 -3.8519 -2.0034 0.9827
-0.1378 -3.8592 -2.0034 0.9827
-0.0000 -3.8616 -2.0033 0.9827
0.1378 -3.8591 -2.0033 0.9827
0.2755 -3.8517 -2.0033 0.9827
0.5496 -3.8221 -2.0032 0.9827
0.6856 -3.8000 -2.0032 0.9828
0.8208 -3.7731 -2.0032 0.9828
1.0878 -3.7048 -2.0031 0.9828
1.4775 -3.5671 -2.0030 0.9828
1.6039 -3.5120 -2.0030 0.9828
1.7282 -3.4525 -2.0029 0.9828
1.8503 -3.3885 -2.0029 0.9828
2.2017 -3.1711 -2.0028 0.9828
2.4222 -3.0058 -2.0027 0.9828
2.5279 -2.9174 -2.0026 0.9828
2.6304 -2.8252 -2.0026 0.9828
2.7295 -2.7295 -2.0025 0.9828
2.9171 -2.5277 -2.0024 0.9828
3.0898 -2.3130 -2.0023 0.9828
3.1703 -2.2012 -2.0023 0.9828
3.2468 -2.0866 -2.0022 0.9828
3.4509 -1.7274 -2.0020 0.9828
3.5652 -1.4768 -2.0019 0.9828
3.6155 -1.3485 -2.0019 0.9828
3.6612 -1.2186 -2.0018 0.9828
3.7386 -0.9542 -2.0017 0.9828
3.7702 -0.8202 -2.0017 0.9828
3.8481 -0.2752 -2.0014 0.9828
-1.0276 -0.0367 -0.5632 0.9953
-1.0124 -0.1827 -0.5634 0.9953
-0.9820 -0.2884 -0.5606 0.9953
-0.9678 -0.4009 -0.5737 0.9952
-0.9434 -0.4722 -0.5778 0.9952
-0.9269 -0.5061 -0.5784 0.9952
-0.9084 -0.5390 -0.5785 0.9952
-0.8881 -0.5708 -0.5782 0.9952
-2.9279 -2.1918 -2.0031 0.9835
-2.8478 -2.2949 -2.0032 0.9835
-2.6769 -2.4923 -2.0032 0.9835
-2.4923 -2.6769 -2.0033 0.9835
-2.2950 -2.8480 -2.0033 0.9835
-2.0861 -3.0045 -2.0033 0.9835
-1.8664 -3.1457 -2.0033 0.9835
-1.7529 -3.2103 -2.0033 0.9835
-1.3998 -3.3793 -2.0034 0.9835
-1.1551 -3.4705 -2.0034 0.9835
-1.0305 -3.5096 -2.0033 0.9835
-0.9046 -3.5441 -2.0033 0.9835
-0.6495 -3.5996 -2.0033 0.9835
-0.5206 -3.6204 -2.0033 0.9835
-0.3910 -3.6367 -2.0033 0.9835
-0.2609 -3.6483 -2.0033 0.9835
0.0000 -3.6576 -2.0033 0.9835
0.2609 -3.6482 -2.0032 0.9835
0.3910 -3.6365 -2.0032 0.9835
0.5205 -3.6202 -2.0032 0.9835
0.6494 -3.5992 -2.0031 0.9835
0.7774 -3.5737 -2.0031 0.9835
1.1549 -3.4700 -2.0030 0.9835
1.3995 -3.3786 -2.0029 0.9835
1.8659 -3.1448 -2.0028 0.9835
2.2943 -2.8470 -2.0026 0.9835
2.4914 -2.6760 -2.0025 0.9835
2.7630 -2.3942 -2.0024 0.9835
2.9266 -2.1908 -2.0023 0.9835
3.0029 -2.0849 -2.0022 0.9835
3.1438 -1.8653 -2.0021 0.9835
3.2687 -1.6362 -2.0020 0.9835
3.4246 -1.2773 -2.0019 0.9835
3.4679 -1.1542 -2.0018 0.9835
3.5068 -1.0297 -2.0018 0.9835
3.6173 -0.5201 -2.0016 0.9835
3.6450 -0.2607 -2.0015 0.9835
3.6519 -0.1304 -2.0014 0.9835
-0.9570 -0.0000 -0.5525 0.9956
-0.9537 -0.1025 -0.5538 0.9956
-0.9430 -0.1702 -0.5532 0.9956
-0.9353 -0.2035 -0.5526 0.9956
-0.9259 -0.2363 -0.5517 0.9956
-0.9012 -0.3361 -0.5553 0.9956
-0.8941 -0.3703 -0.5587 0.9955
-0.8364 -0.4963 -0.5615 0.9955
-0.8178 -0.5256 -0.5613 0.9955
-0.7846 -0.5873 -0.5658 0.9955
-2.2721 -2.6222 -2.0032 0.9841
-2.1771 -2.7016 -2.0032 0.9841
-1.6629 -3.0453 -2.0033 0.9841
-1.4414 -3.1562 -2.0033 0.9841
-1.2126 -3.2510 -2.0033 0.9841
-1.0958 -3.2922 -2.0033 0.9841
-0.7375 -3.3905 -2.0033 0.9841
-0.6161 -3.4146 -2.0033 0.9841
-0.4938 -3.4344 -2.0032 0.9841
-0.3709 -3.4498 -2.0032 0.9841
-0.2475 -3.4608 -2.0032 0.9841
-0.1238 -3.4675 -2.0032 0.9841
0.0000 -3.4696 -2.0032 0.9841
0.3709 -3.4496 -2.0031 0.9841
0.4937 -3.4342 -2.0031 0.9841
0.7375 -3.3901 -2.0030 0.9841
0.8580 -3.3616 -2.0030 0.9841
1.2123 -3.2504 -2.0029 0.9841
1.3276 -3.2050 -2.0029 0.9841
1.5528 -3.1021 -2.0028 0.9841
1.7700 -2.9833 -2.0027 0.9841
1.8754 -2.9181 -2.0027 0.9841
2.0787 -2.7768 -2.0026 0.9841
2.1764 -2.7008 -2.0026 0.9841
2.7004 -2.1761 -2.0023 0.9841
2.9173 -1.8749 -2.0022 0.9841
2.9823 -1.7695 -2.0021 0.9841
1.8507 -0.8452 -1.1747 0.9906
1.8620 -0.7713 -1.1636 0.9907
1.9033 -0.6335 -1.1581 0.9908
1.9351 -0.5682 -1.1644 0.9907
1.9616 -0.5007 -1.1688 0.9907
2.0153 -0.3636 -1.1823 0.9906
2.0366 -0.2190 -1.1826 0.9906
