ply
format ascii 1.0
element vertex 733
property float32 x
property float32 y
property float32 z
property float32 I
end_header
-9.4783 -0.0000 -2.0035 0.9620
-9.4727 -0.3383 -2.0036 0.9620
-9.4254 -1.0133 -2.0038 0.9620
-9.3836 -1.3492 -2.0039 0.9620
-9.3299 -1.6833 -2.0040 0.9620
-8.9969 -2.9945 -2.0043 0.9620
-8.6262 -3.9395 -2.0046 0.9620
-8.3237 -4.5451 -2.0047 0.9620
-8.1564 -4.8394 -2.0047 0.9620
-7.9788 -5.1276 -2.0048 0.9620
-7.3855 -5.9516 -2.0049 0.9620
-7.1685 -6.2115 -2.0050 0.9620
-6.7073 -6.7073 -2.0051 0.9620
-5.9521 -7.3861 -2.0051 0.9620
-5.6847 -7.5939 -2.0051 0.9620
-4.8405 -8.1582 -2.0052 0.9620
-4.2461 -8.4827 -2.0052 0.9620
-3.6301 -8.7639 -2.0051 0.9620
-3.3150 -8.8878 -2.0051 0.9620
-2.0163 -9.2686 -2.0050 0.9620
-1.6842 -9.3345 -2.0050 0.9620
-1.3499 -9.3885 -2.0049 0.9620
-1.0139 -9.4305 -2.0049 0.9620
0.3385 -9.4778 -2.0047 0.9620
0.6765 -9.4593 -2.0046 0.9620
1.0137 -9.4288 -2.0046 0.9620
1.6836 -9.3318 -2.0044 0.9620
2.9941 -8.9958 -2.0041 0.9620
3.3131 -8.8828 -2.0040 0.9620
3.6279 -8.7585 -2.0039 0.9620
4.8365 -8.1514 -2.0035 0.9620
5.4051 -7.7848 -2.0033 0.9620
5.6792 -7.5866 -2.0032 0.9620
5.9461 -7.3786 -2.0031 0.9620
6.2053 -7.1613 -2.0030 0.9620
6.6996 -6.6996 -2.0028 0.9620
6.9341 -6.4559 -2.0026 0.9620
7.1597 -6.2039 -2.0025 0.9620
7.9679 -5.1206 -2.0021 0.9620
8.3119 -4.5387 -2.0018 0.9620
8.4681 -4.2388 -2.0017 0.9620
8.7479 -3.6235 -2.0015 0.9620
8.8712 -3.3088 -2.0014 0.9620
9.0836 -2.6672 -2.0011 0.9620
9.3151 -1.6806 -2.0008 0.9620
9.4398 -0.6752 -2.0005 0.9620
9.4574 -0.3378 -2.0004 0.9620
-8.5241 0.0000 -2.0034 0.9656
-8.5032 -0.6082 -2.0035 0.9656
-8.4764 -0.9113 -2.0036 0.9656
-8.4388 -1.2133 -2.0037 0.9656
-8.3314 -1.8124 -2.0039 0.9656
-8.2617 -2.1087 -2.0039 0.9656
-7.7574 -3.5427 -2.0043 0.9656
-7.6262 -3.8174 -2.0043 0.9656
-7.3349 -4.3520 -2.0045 0.9656
-7.0061 -4.8644 -2.0046 0.9656
-6.8281 -5.1115 -2.0046 0.9656
-6.6415 -5.3520 -2.0046 0.9656
-6.4463 -5.5858 -2.0047 0.9656
-6.2429 -5.8124 -2.0047 0.9656
-6.0316 -6.0316 -2.0047 0.9656
-5.8125 -6.2431 -2.0048 0.9656
-5.5861 -6.4467 -2.0048 0.9656
-5.3525 -6.6420 -2.0048 0.9656
-4.8651 -7.0070 -2.0048 0.9656
-4.6119 -7.1762 -2.0048 0.9656
-3.5437 -7.7595 -2.0048 0.9656
-3.2644 -7.8810 -2.0048 0.9656
-2.6938 -8.0937 -2.0048 0.9656
-2.1095 -8.2650 -2.0047 0.9656
-1.8132 -8.3349 -2.0047 0.9656
-1.5145 -8.3942 -2.0047 0.9656
-1.2139 -8.4427 -2.0046 0.9656
-0.0000 -8.5288 -2.0045 0.9656
0.3044 -8.5231 -2.0044 0.9656
0.6084 -8.5066 -2.0043 0.9656
1.2136 -8.4410 -2.0042 0.9656
1.5141 -8.3920 -2.0042 0.9656
2.4022 -8.1812 -2.0039 0.9656
2.6926 -8.0899 -2.0039 0.9656
2.9795 -7.9883 -2.0038 0.9656
3.5415 -7.7548 -2.0036 0.9656
4.0853 -7.4817 -2.0034 0.9656
4.3496 -7.3308 -2.0034 0.9656
4.8610 -7.0012 -2.0032 0.9656
5.3476 -6.6360 -2.0030 0.9656
5.5807 -6.4405 -2.0029 0.9656
6.0254 -6.0254 -2.0027 0.9656
6.9977 -4.8586 -2.0022 0.9656
7.3257 -4.3465 -2.0020 0.9656
7.9789 -2.9760 -2.0014 0.9656
8.0797 -2.6892 -2.0013 0.9656
8.2501 -2.1057 -2.0011 0.9656
8.3196 -1.8098 -2.0010 0.9656
8.4266 -1.2116 -2.0008 0.9656
8.4641 -0.9100 -2.0007 0.9656
8.5066 -0.3038 -2.0005 0.9656
-7.7369 -0.0000 -2.0032 0.9685
-7.7323 -0.2762 -2.0033 0.9685
-7.5619 -1.6450 -2.0037 0.9685
-7.4257 -2.1804 -2.0038 0.9685
-7.0407 -3.2154 -2.0041 0.9685
-6.7937 -3.7097 -2.0042 0.9685
-6.6572 -3.9499 -2.0042 0.9685
-6.3587 -4.4149 -2.0043 0.9685
-6.1972 -4.6392 -2.0044 0.9685
-6.0278 -4.8575 -2.0044 0.9685
-5.8507 -5.0696 -2.0044 0.9685
-5.6661 -5.2753 -2.0044 0.9685
-5.2754 -5.6662 -2.0045 0.9685
-4.8579 -6.0282 -2.0045 0.9685
-4.6396 -6.1978 -2.0046 0.9685
-4.4155 -6.3595 -2.0046 0.9685
-3.9506 -6.6583 -2.0046 0.9685
-3.7104 -6.7951 -2.0046 0.9685
-3.4655 -6.9232 -2.0046 0.9685
-2.9628 -7.1527 -2.0045 0.9685
-1.3745 -7.6185 -2.0044 0.9685
-1.1017 -7.6626 -2.0044 0.9685
-0.5523 -7.7214 -2.0043 0.9685
-0.2763 -7.7360 -2.0043 0.9685
0.5522 -7.7206 -2.0041 0.9685
0.8274 -7.6958 -2.0041 0.9685
1.1015 -7.6612 -2.0040 0.9685
1.3742 -7.6167 -2.0039 0.9685
1.6451 -7.5626 -2.0039 0.9685
1.9139 -7.4988 -2.0038 0.9685
2.1803 -7.4255 -2.0038 0.9685
2.7043 -7.2505 -2.0036 0.9685
2.9612 -7.1491 -2.0035 0.9685
3.7080 -6.7908 -2.0033 0.9685
3.9479 -6.6538 -2.0032 0.9685
4.4121 -6.3547 -2.0030 0.9685
4.6359 -6.1929 -2.0030 0.9685
5.0655 -5.8459 -2.0028 0.9685
5.2707 -5.6611 -2.0027 0.9685
5.4691 -5.4691 -2.0026 0.9685
5.6606 -5.2702 -2.0025 0.9685
6.1906 -4.6343 -2.0022 0.9686
6.3518 -4.4101 -2.0021 0.9686
6.6496 -3.9454 -2.0019 0.9686
7.2427 -2.7014 -2.0015 0.9686
7.3342 -2.4411 -2.0014 0.9686
7.5521 -1.6429 -2.0011 0.9686
7.6055 -1.3722 -2.0010 0.9686
7.6834 -0.8261 -2.0008 0.9686
-7.0048 -1.0071 -2.0034 0.9710
-6.9646 -1.2566 -2.0035 0.9710
-6.9156 -1.5044 -2.0035 0.9710
-6.7911 -1.9940 -2.0037 0.9710
-6.6319 -2.4736 -2.0038 0.9710
-6.5396 -2.7088 -2.0038 0.9710
-6.4389 -2.9405 -2.0039 0.9710
-6.3300 -3.1686 -2.0039 0.9710
-6.2130 -3.3926 -2.0040 0.9710
-5.6674 -4.2426 -2.0041 0.9710
-5.5125 -4.4422 -2.0042 0.9710
-5.1817 -4.8243 -2.0042 0.9710
-4.6364 -5.3507 -2.0043 0.9710
-4.2429 -5.6679 -2.0043 0.9710
-4.0380 -5.8158 -2.0043 0.9710
-3.6128 -6.0890 -2.0043 0.9710
-3.3932 -6.2141 -2.0043 0.9710
-3.1692 -6.3312 -2.0043 0.9710
-2.9412 -6.4403 -2.0043 0.9710
-1.9947 -6.7931 -2.0043 0.9710
-1.7509 -6.8599 -2.0043 0.9710
-1.5049 -6.9180 -2.0042 0.9710
-1.0075 -7.0075 -2.0042 0.9710
-0.0000 -7.0790 -2.0040 0.9710
0.7567 -7.0380 -2.0039 0.9710
1.2567 -6.9657 -2.0038 0.9710
1.7504 -6.8579 -2.0037 0.9710
2.4732 -6.6308 -2.0035 0.9710
2.9397 -6.4371 -2.0033 0.9710
3.3912 -6.2105 -2.0032 0.9710
3.8253 -5.9523 -2.0030 0.9710
5.1771 -4.8200 -2.0025 0.9710
5.3456 -4.6320 -2.0024 0.9710
5.6619 -4.2385 -2.0022 0.9710
5.9493 -3.8234 -2.0020 0.9710
6.3231 -3.1651 -2.0018 0.9710
6.4318 -2.9373 -2.0017 0.9710
6.5322 -2.7057 -2.0016 0.9710
6.7080 -2.2327 -2.0014 0.9710
6.7832 -1.9917 -2.0013 0.9710
6.8496 -1.7483 -2.0013 0.9710
6.9074 -1.5026 -2.0012 0.9710
6.9563 -1.2551 -2.0011 0.9710
7.0498 -0.5042 -2.0008 0.9710
7.0630 -0.2523 -2.0008 0.9710
-6.5083 -0.2325 -2.0031 0.9731
-6.4961 -0.4646 -2.0032 0.9731
-6.4468 -0.9269 -2.0033 0.9731
-6.3646 -1.3846 -2.0034 0.9731
-6.3113 -1.6109 -2.0035 0.9731
-6.2500 -1.8352 -2.0035 0.9731
-6.1807 -2.0571 -2.0036 0.9731
-6.1035 -2.2765 -2.0036 0.9731
-6.0185 -2.4929 -2.0037 0.9731
-5.9258 -2.7062 -2.0037 0.9731
-5.8256 -2.9161 -2.0038 0.9731
-5.7179 -3.1222 -2.0038 0.9731
-5.3517 -3.7158 -2.0039 0.9731
-5.2158 -3.9045 -2.0040 0.9731
-4.7687 -4.4398 -2.0040 0.9731
-4.4399 -4.7688 -2.0041 0.9731
-4.2669 -4.9243 -2.0041 0.9731
-3.9048 -5.2162 -2.0041 0.9731
-3.5228 -5.4815 -2.0041 0.9731
-3.1228 -5.7189 -2.0041 0.9731
-2.7068 -5.9271 -2.0041 0.9731
-2.2770 -6.1050 -2.0041 0.9731
-1.1569 -6.4120 -2.0040 0.9731
-0.9273 -6.4491 -2.0040 0.9731
-0.6965 -6.4779 -2.0040 0.9731
-0.4648 -6.4986 -2.0039 0.9731
0.6963 -6.4772 -2.0037 0.9731
1.1566 -6.4107 -2.0036 0.9731
1.6109 -6.3115 -2.0035 0.9731
1.8351 -6.2498 -2.0035 0.9731
2.4924 -6.0173 -2.0033 0.9731
2.9152 -5.8238 -2.0031 0.9731
3.3230 -5.6006 -2.0030 0.9731
3.7138 -5.3489 -2.0029 0.9731
3.9022 -5.2127 -2.0028 0.9731
4.0856 -5.0699 -2.0027 0.9731
4.2638 -4.9207 -2.0026 0.9731
4.6036 -4.6036 -2.0025 0.9731
4.7648 -4.4362 -2.0024 0.9731
4.9199 -4.2631 -2.0023 0.9731
5.0687 -4.0847 -2.0023 0.9731
5.3468 -3.7124 -2.0021 0.9731
5.5976 -3.3212 -2.0019 0.9731
5.7123 -3.1192 -2.0019 0.9731
5.8198 -2.9132 -2.0018 0.9731
5.9198 -2.7035 -2.0017 0.9731
6.0123 -2.4904 -2.0016 0.9731
6.3577 -1.3830 -2.0012 0.9731
6.4888 -0.4641 -2.0009 0.9731
6.5010 -0.2322 -2.0009 0.9731
-6.0219 -0.2151 -2.0030 0.9749
-5.9916 -0.6442 -2.0031 0.9749
-5.9650 -0.8576 -2.0032 0.9749
-5.8396 -1.4905 -2.0033 0.9749
-5.7187 -1.9034 -2.0034 0.9749
-5.6473 -2.1063 -2.0035 0.9749
-5.3901 -2.6981 -2.0036 0.9749
-5.2905 -2.8888 -2.0037 0.9749
-4.9516 -3.4380 -2.0038 0.9749
-4.5559 -3.9477 -2.0039 0.9749
-4.4122 -4.1079 -2.0039 0.9749
-4.2628 -4.2628 -2.0039 0.9749
-3.4383 -4.9521 -2.0040 0.9749
-3.2594 -5.0717 -2.0040 0.9749
-2.8893 -5.2913 -2.0040 0.9749
-2.3071 -5.5698 -2.0040 0.9749
-2.1068 -5.6485 -2.0040 0.9749
-1.9038 -5.7201 -2.0039 0.9749
-1.6984 -5.7844 -2.0039 0.9749
-1.4909 -5.8412 -2.0039 0.9749
-0.6444 -5.9937 -2.0038 0.9749
-0.0000 -6.0279 -2.0037 0.9749
0.2151 -6.0239 -2.0037 0.9749
0.4300 -6.0123 -2.0036 0.9749
0.6443 -5.9930 -2.0036 0.9749
0.8578 -5.9661 -2.0035 0.9749
1.0702 -5.9315 -2.0035 0.9749
1.6979 -5.7827 -2.0033 0.9749
1.9032 -5.7182 -2.0033 0.9749
2.1060 -5.6465 -2.0032 0.9749
2.3062 -5.5676 -2.0032 0.9749
2.5033 -5.4815 -2.0031 0.9749
3.0746 -5.1821 -2.0029 0.9749
3.2575 -5.0689 -2.0029 0.9749
3.4363 -4.9492 -2.0028 0.9749
3.6106 -4.8232 -2.0027 0.9749
4.1051 -4.4092 -2.0025 0.9749
4.4088 -4.1048 -2.0024 0.9749
4.5524 -3.9447 -2.0023 0.9749
5.0667 -3.2562 -2.0020 0.9749
5.2857 -2.8862 -2.0019 0.9749
5.3851 -2.6956 -2.0018 0.9749
5.4777 -2.5016 -2.0017 0.9749
5.5633 -2.3044 -2.0016 0.9749
5.9247 -1.0689 -2.0012 0.9749
5.9589 -0.8568 -2.0011 0.9749
5.9855 -0.6435 -2.0011 0.9749
6.0044 -0.4294 -2.0010 0.9749
6.0157 -0.2149 -2.0009 0.9749
-5.5868 -0.3996 -2.0030 0.9765
-5.5444 -0.7972 -2.0031 0.9765
-5.5125 -0.9946 -2.0031 0.9765
-5.3750 -1.5783 -2.0033 0.9765
-5.3154 -1.7692 -2.0033 0.9765
-5.2490 -1.9578 -2.0034 0.9765
-5.0962 -2.3273 -2.0035 0.9765
-5.0100 -2.5078 -2.0035 0.9765
-4.8184 -2.8589 -2.0036 0.9765
-4.7134 -3.0291 -2.0036 0.9765
-4.6024 -3.1955 -2.0036 0.9765
-4.2346 -3.6693 -2.0037 0.9765
-3.9621 -3.9621 -2.0038 0.9765
-3.5160 -4.3630 -2.0038 0.9765
-3.1958 -4.6028 -2.0038 0.9765
-3.0295 -4.7139 -2.0038 0.9765
-2.6855 -4.9180 -2.0038 0.9765
-2.5082 -5.0107 -2.0038 0.9765
-1.7695 -5.3166 -2.0038 0.9765
-1.5786 -5.3763 -2.0038 0.9765
-1.3857 -5.4292 -2.0038 0.9765
-0.9949 -5.5141 -2.0037 0.9765
-0.5989 -5.5709 -2.0037 0.9765
-0.3997 -5.5886 -2.0036 0.9765
-0.2000 -5.5993 -2.0036 0.9765
-0.0000 -5.6028 -2.0036 0.9765
0.3997 -5.5883 -2.0035 0.9765
0.7973 -5.5453 -2.0034 0.9765
1.3854 -5.4279 -2.0033 0.9765
1.7690 -5.3150 -2.0032 0.9765
1.9575 -5.2483 -2.0031 0.9765
2.3268 -5.0950 -2.0030 0.9765
2.5071 -5.0086 -2.0030 0.9765
2.6842 -4.9158 -2.0029 0.9765
2.8579 -4.8167 -2.0029 0.9765
3.0279 -4.7115 -2.0028 0.9765
3.1940 -4.6003 -2.0027 0.9765
3.6671 -4.2321 -2.0025 0.9765
3.9594 -3.9594 -2.0024 0.9765
4.0981 -3.8155 -2.0023 0.9765
4.4820 -3.3552 -2.0021 0.9765
4.5987 -3.1930 -2.0021 0.9765
4.7096 -3.0267 -2.0020 0.9765
4.9132 -2.6828 -2.0019 0.9765
5.3106 -1.7675 -2.0015 0.9765
5.3701 -1.5768 -2.0015 0.9765
5.4227 -1.3841 -2.0014 0.9765
5.5073 -0.9936 -2.0013 0.9765
5.5638 -0.5982 -2.0011 0.9765
5.5815 -0.3992 -2.0011 0.9765
-5.2231 -0.1866 -2.0029 0.9779
-5.1967 -0.5587 -2.0030 0.9779
-5.1736 -0.7439 -2.0030 0.9779
-5.1439 -0.9280 -2.0031 0.9779
-5.0648 -1.2927 -2.0032 0.9779
-4.8297 -2.0005 -2.0033 0.9779
-4.7553 -2.1717 -2.0034 0.9779
-4.4962 -2.6677 -2.0035 0.9779
-4.3982 -2.8265 -2.0035 0.9779
-4.2945 -2.9818 -2.0035 0.9779
-4.0710 -3.2806 -2.0036 0.9779
-3.8267 -3.5627 -2.0036 0.9779
-3.6971 -3.6971 -2.0036 0.9779
-2.6680 -4.4967 -2.0037 0.9779
-2.3404 -4.6756 -2.0037 0.9779
-2.1720 -4.7561 -2.0037 0.9779
-2.0009 -4.8306 -2.0037 0.9779
-1.8272 -4.8989 -2.0037 0.9779
-1.4730 -5.0167 -2.0037 0.9779
-1.2930 -5.0661 -2.0036 0.9779
-1.1114 -5.1089 -2.0036 0.9779
-0.9283 -5.1453 -2.0036 0.9779
-0.7441 -5.1751 -2.0036 0.9779
-0.5589 -5.1983 -2.0036 0.9779
-0.0000 -5.2280 -2.0035 0.9779
0.1866 -5.2246 -2.0034 0.9779
0.9281 -5.1445 -2.0033 0.9779
1.4727 -5.0154 -2.0032 0.9779
1.8266 -4.8974 -2.0031 0.9779
2.0002 -4.8289 -2.0030 0.9779
2.1712 -4.7543 -2.0030 0.9779
2.8254 -4.3965 -2.0027 0.9779
2.9805 -4.2927 -2.0027 0.9779
3.1317 -4.1835 -2.0026 0.9779
3.2789 -4.0689 -2.0026 0.9779
3.4219 -3.9492 -2.0025 0.9779
3.5606 -3.8244 -2.0024 0.9779
3.6947 -3.6947 -2.0024 0.9779
4.1824 -3.1309 -2.0021 0.9779
4.2914 -2.9796 -2.0021 0.9779
4.3948 -2.8244 -2.0020 0.9779
4.6711 -2.3382 -2.0018 0.9779
4.7514 -2.1699 -2.0017 0.9779
4.8257 -1.9989 -2.0017 0.9779
4.8938 -1.8253 -2.0016 0.9779
4.9557 -1.6494 -2.0015 0.9779
5.0604 -1.2916 -2.0014 0.9779
5.1032 -1.1101 -2.0014 0.9779
5.1394 -0.9272 -2.0013 0.9779
5.2086 -0.3725 -2.0011 0.9779
5.2184 -0.1864 -2.0011 0.9779
-1.9308 -0.0690 -0.7907 0.9917
-1.9570 -0.2104 -0.8055 0.9915
-1.9449 -0.2796 -0.8042 0.9915
-2.1703 -0.3916 -0.9026 0.9905
-4.7823 -1.0403 -2.0030 0.9791
-4.7422 -1.2104 -2.0031 0.9791
-4.6440 -1.5456 -2.0032 0.9791
-4.4524 -2.0333 -2.0033 0.9791
-4.3770 -2.1910 -2.0033 0.9791
-4.2961 -2.3459 -2.0033 0.9791
-4.1179 -2.6464 -2.0034 0.9791
-3.8116 -3.0716 -2.0035 0.9791
-3.2058 -3.6997 -2.0036 0.9791
-2.9337 -3.9190 -2.0036 0.9791
-2.7920 -4.0212 -2.0036 0.9791
-2.6467 -4.1183 -2.0036 0.9791
-2.4980 -4.2102 -2.0036 0.9791
-2.3461 -4.2966 -2.0036 0.9791
-1.8734 -4.5228 -2.0036 0.9791
-1.5460 -4.6449 -2.0036 0.9791
-1.3792 -4.6971 -2.0035 0.9791
-1.2106 -4.7433 -2.0035 0.9791
-1.0406 -4.7834 -2.0035 0.9791
-0.8692 -4.8174 -2.0035 0.9791
-0.6967 -4.8454 -2.0035 0.9791
-0.5233 -4.8671 -2.0034 0.9791
-0.3492 -4.8826 -2.0034 0.9791
0.1747 -4.8917 -2.0033 0.9791
0.3492 -4.8823 -2.0033 0.9791
0.5232 -4.8666 -2.0033 0.9791
0.8690 -4.8167 -2.0032 0.9791
1.0404 -4.7826 -2.0032 0.9791
1.2104 -4.7423 -2.0031 0.9791
1.3788 -4.6959 -2.0031 0.9791
2.0329 -4.4515 -2.0029 0.9791
2.1905 -4.3760 -2.0028 0.9791
2.4969 -4.2084 -2.0027 0.9791
2.6455 -4.1165 -2.0027 0.9791
2.7907 -4.0193 -2.0026 0.9791
3.3339 -3.5808 -2.0024 0.9791
3.9161 -2.9316 -2.0021 0.9791
4.1150 -2.6446 -2.0020 0.9791
4.2929 -2.3441 -2.0019 0.9791
4.3737 -2.1894 -2.0018 0.9791
4.5185 -1.8716 -2.0017 0.9791
4.6403 -1.5444 -2.0016 0.9791
4.7383 -1.2094 -2.0015 0.9791
4.7783 -1.0395 -2.0014 0.9791
4.8123 -0.8682 -2.0013 0.9791
4.8617 -0.5227 -2.0012 0.9791
4.8771 -0.3488 -2.0012 0.9791
-1.5284 -0.0546 -0.6665 0.9933
-1.5249 -0.1639 -0.6684 0.9933
-1.5151 -0.2179 -0.6671 0.9933
-1.5002 -0.2707 -0.6643 0.9934
-1.5214 -0.3310 -0.6786 0.9932
-1.5707 -0.4612 -0.7134 0.9929
-4.2465 -1.7589 -2.0032 0.9801
-4.0343 -2.2029 -2.0033 0.9801
-3.8670 -2.4852 -2.0033 0.9801
-3.7759 -2.6216 -2.0033 0.9801
-3.5793 -2.8844 -2.0034 0.9801
-3.1325 -3.3645 -2.0034 0.9801
-2.7549 -3.6801 -2.0035 0.9801
-2.4854 -3.8673 -2.0035 0.9801
-2.2032 -4.0348 -2.0035 0.9801
-1.9097 -4.1817 -2.0035 0.9801
-1.4517 -4.3618 -2.0035 0.9801
-1.2951 -4.4108 -2.0034 0.9801
-1.1369 -4.4542 -2.0034 0.9801
-0.8162 -4.5238 -2.0034 0.9801
-0.4914 -4.5704 -2.0034 0.9801
-0.3279 -4.5850 -2.0033 0.9801
-0.1641 -4.5937 -2.0033 0.9801
-0.0000 -4.5966 -2.0033 0.9801
0.1640 -4.5936 -2.0032 0.9801
0.3279 -4.5848 -2.0032 0.9801
0.4913 -4.5701 -2.0032 0.9801
0.9770 -4.4911 -2.0031 0.9801
1.4514 -4.3607 -2.0030 0.9801
1.9091 -4.1803 -2.0028 0.9801
2.2023 -4.0333 -2.0027 0.9801
2.3448 -3.9520 -2.0027 0.9801
2.8831 -3.5777 -2.0025 0.9802
3.3625 -3.1306 -2.0023 0.9802
3.5771 -2.8826 -2.0022 0.9802
3.8644 -2.4835 -2.0020 0.9802
4.0315 -2.2014 -2.0019 0.9802
4.1780 -1.9081 -2.0018 0.9802
4.2434 -1.7577 -2.0017 0.9802
4.4066 -1.2939 -2.0015 0.9802
4.4498 -1.1358 -2.0015 0.9802
4.4874 -0.9762 -2.0014 0.9802
4.5802 -0.3276 -2.0012 0.9802
4.5888 -0.1639 -2.0012 0.9802
-1.3376 -0.0478 -0.6195 0.9941
-1.3384 -0.0957 -0.6211 0.9941
-1.3273 -0.1908 -0.6207 0.9941
-1.3160 -0.2374 -0.6190 0.9941
-1.3117 -0.3348 -0.6266 0.9941
-1.3263 -0.5494 -0.6645 0.9937
-1.3151 -0.6006 -0.6692 0.9936
-3.7218 -2.2083 -2.0032 0.9811
-3.6407 -2.3397 -2.0032 0.9811
-3.4646 -2.5936 -2.0033 0.9811
-3.2708 -2.8342 -2.0033 0.9811
-3.1676 -2.9491 -2.0033 0.9811
-2.7157 -3.3700 -2.0034 0.9811
-2.5937 -3.4648 -2.0034 0.9811
-2.0742 -3.7987 -2.0034 0.9811
-1.5125 -4.0551 -2.0034 0.9811
-1.2194 -4.1527 -2.0034 0.9811
-1.0703 -4.1935 -2.0033 0.9811
-0.9200 -4.2290 -2.0033 0.9811
-0.4626 -4.3030 -2.0033 0.9811
0.1544 -4.3248 -2.0032 0.9811
0.3087 -4.3165 -2.0031 0.9811
0.4626 -4.3027 -2.0031 0.9811
0.6158 -4.2833 -2.0031 0.9811
1.0701 -4.1927 -2.0030 0.9811
1.5121 -4.0541 -2.0029 0.9811
1.6558 -3.9975 -2.0028 0.9811
1.7974 -3.9357 -2.0028 0.9811
2.2076 -3.7208 -2.0026 0.9811
2.7144 -3.3684 -2.0024 0.9811
2.8329 -3.2693 -2.0024 0.9811
3.0587 -3.0587 -2.0023 0.9811
3.3679 -2.7140 -2.0021 0.9811
3.7195 -2.2069 -2.0019 0.9811
3.7958 -2.0727 -2.0019 0.9811
3.8672 -1.9358 -2.0018 0.9811
3.9337 -1.7965 -2.0018 0.9811
3.9952 -1.6549 -2.0017 0.9811
4.0517 -1.5112 -2.0017 0.9811
4.2250 -0.9191 -2.0015 0.9811
4.2551 -0.7677 -2.0014 0.9811
4.3206 -0.1543 -2.0012 0.9811
-1.1954 0.0000 -0.5864 0.9947
-1.1965 -0.0427 -0.5873 0.9947
-1.1954 -0.0855 -0.5878 0.9947
-1.1867 -0.1706 -0.5881 0.9947
-1.1791 -0.2127 -0.5877 0.9947
-1.1695 -0.2544 -0.5871 0.9947
-1.1579 -0.2955 -0.5861 0.9947
-1.1590 -0.3403 -0.5925 0.9946
-1.1578 -0.3854 -0.5986 0.9946
-1.1400 -0.5206 -0.6148 0.9944
-3.5120 -2.0838 -2.0031 0.9820
-3.4354 -2.2078 -2.0031 0.9820
-3.3545 -2.3291 -2.0032 0.9820
-3.2692 -2.4473 -2.0032 0.9820
-3.0864 -2.6744 -2.0032 0.9820
-2.8878 -2.8878 -2.0033 0.9820
-2.7829 -2.9890 -2.0033 0.9820
-2.6745 -3.0865 -2.0033 0.9820
-2.5626 -3.1800 -2.0033 0.9820
-2.3292 -3.3547 -2.0033 0.9820
-2.0840 -3.5123 -2.0033 0.9820
-1.8281 -3.6520 -2.0033 0.9820
-1.4272 -3.8265 -2.0033 0.9820
-1.2897 -3.8750 -2.0033 0.9820
-1.1506 -3.9185 -2.0033 0.9820
-1.0100 -3.9571 -2.0033 0.9820
-0.4366 -4.0604 -2.0032 0.9820
-0.2913 -4.0733 -2.0032 0.9820
-0.1458 -4.0811 -2.0031 0.9820
-0.0000 -4.0837 -2.0031 0.9820
0.1458 -4.0810 -2.0031 0.9820
0.2913 -4.0731 -2.0031 0.9820
0.7250 -4.0185 -2.0030 0.9820
1.0098 -3.9564 -2.0029 0.9820
1.1503 -3.9178 -2.0029 0.9820
1.4268 -3.8256 -2.0028 0.9820
1.6961 -3.7139 -2.0027 0.9820
1.8275 -3.6509 -2.0027 0.9820
2.6732 -3.0851 -2.0024 0.9820
2.7815 -2.9876 -2.0023 0.9820
2.8863 -2.8863 -2.0023 0.9820
2.9875 -2.7814 -2.0022 0.9820
3.0847 -2.6730 -2.0022 0.9820
3.1781 -2.5611 -2.0021 0.9820
3.2674 -2.4460 -2.0021 0.9820
3.3525 -2.3277 -2.0020 0.9820
3.4334 -2.2065 -2.0020 0.9820
3.5099 -2.0825 -2.0019 0.9820
3.5819 -1.9559 -2.0019 0.9820
3.7701 -1.5617 -2.0017 0.9820
3.9152 -1.1496 -2.0016 0.9820
3.9870 -0.8673 -2.0015 0.9820
4.0386 -0.5807 -2.0014 0.9820
-1.1055 -0.0791 -0.5750 0.9950
-1.1024 -0.1185 -0.5752 0.9950
-1.0975 -0.1578 -0.5752 0.9950
-1.0905 -0.1968 -0.5749 0.9950
-1.0814 -0.2353 -0.5741 0.9950
-1.0704 -0.2732 -0.5731 0.9950
-1.0636 -0.3123 -0.5751 0.9950
-1.0576 -0.3945 -0.5856 0.9949
-1.0430 -0.4763 -0.5948 0.9948
-1.0118 -0.5525 -0.5981 0.9948
-3.2482 -2.0875 -2.0031 0.9828
-3.0911 -2.3139 -2.0031 0.9828
-3.0065 -2.4228 -2.0031 0.9828
-2.9182 -2.5286 -2.0032 0.9828
-2.7304 -2.7304 -2.0032 0.9828
-2.6312 -2.8261 -2.0032 0.9828
-2.5287 -2.9183 -2.0032 0.9828
-2.4229 -3.0067 -2.0032 0.9828
-2.2023 -3.1719 -2.0032 0.9828
-1.9704 -3.3209 -2.0032 0.9827
-1.8506 -3.3891 -2.0032 0.9827
-1.7285 -3.4530 -2.0032 0.9827
-1.4777 -3.5675 -2.0032 0.9827
-0.9549 -3.7414 -2.0032 0.9828
-0.8208 -3.7731 -2.0032 0.9828
-0.6856 -3.7999 -2.0032 0.9828
0.2754 -3.8512 -2.0030 0.9828
0.4127 -3.8388 -2.0030 0.9828
0.8207 -3.7725 -2.0029 0.9828
1.0877 -3.7043 -2.0028 0.9828
1.9697 -3.3198 -2.0026 0.9828
2.2014 -3.1707 -2.0025 0.9828
2.3131 -3.0900 -2.0024 0.9828
2.4219 -3.0054 -2.0024 0.9828
2.7291 -2.7291 -2.0023 0.9828
3.0050 -2.4216 -2.0021 0.9828
3.0894 -2.3127 -2.0021 0.9828
3.3187 -1.9691 -2.0019 0.9828
3.3868 -1.8493 -2.0019 0.9828
3.4506 -1.7272 -2.0018 0.9828
3.5099 -1.6029 -2.0018 0.9828
3.5648 -1.4766 -2.0017 0.9828
3.6152 -1.3484 -2.0017 0.9828
3.7020 -1.0870 -2.0016 0.9828
3.7967 -0.6850 -2.0015 0.9828
3.8357 -0.4124 -2.0014 0.9828
-1.0269 0.0000 -0.5625 0.9953
-1.0276 -0.0367 -0.5632 0.9953
-1.0265 -0.0734 -0.5637 0.9953
-1.0236 -0.1101 -0.5639 0.9953
-1.0040 -0.2184 -0.5627 0.9953
-0.9938 -0.2537 -0.5618 0.9953
-0.9741 -0.3633 -0.5694 0.9953
-0.9678 -0.4009 -0.5737 0.9952
-0.9580 -0.4375 -0.5768 0.9952
-0.9434 -0.4722 -0.5778 0.9952
-0.9084 -0.5390 -0.5785 0.9952
-0.8882 -0.5708 -0.5782 0.9952
-2.8477 -2.2948 -2.0031 0.9835
-2.7640 -2.3950 -2.0031 0.9835
-2.6768 -2.4921 -2.0031 0.9835
-2.4922 -2.6768 -2.0031 0.9835
-2.3951 -2.7640 -2.0031 0.9835
-1.9773 -3.0768 -2.0032 0.9835
-1.8663 -3.1454 -2.0032 0.9835
-1.7528 -3.2100 -2.0032 0.9835
-1.6371 -3.2705 -2.0032 0.9835
-1.0304 -3.5092 -2.0031 0.9835
-0.9045 -3.5437 -2.0031 0.9835
-0.6494 -3.5991 -2.0031 0.9835
-0.5205 -3.6200 -2.0031 0.9835
-0.3909 -3.6362 -2.0031 0.9835
-0.2609 -3.6479 -2.0030 0.9835
-0.1305 -3.6548 -2.0030 0.9835
0.3909 -3.6360 -2.0029 0.9835
0.6493 -3.5987 -2.0029 0.9835
0.7773 -3.5732 -2.0028 0.9835
0.9043 -3.5431 -2.0028 0.9835
1.1547 -3.4695 -2.0027 0.9835
1.2778 -3.4260 -2.0027 0.9835
1.6366 -3.2696 -2.0026 0.9835
1.7523 -3.2091 -2.0026 0.9835
1.8657 -3.1444 -2.0025 0.9835
1.9767 -3.0757 -2.0025 0.9835
2.0851 -3.0032 -2.0024 0.9835
2.4911 -2.6756 -2.0023 0.9835
2.5850 -2.5850 -2.0022 0.9835
2.6755 -2.4910 -2.0022 0.9835
2.7626 -2.3939 -2.0021 0.9835
3.0749 -1.9762 -2.0020 0.9835
3.3766 -1.3987 -2.0017 0.9835
3.4243 -1.2772 -2.0017 0.9835
3.4676 -1.1541 -2.0017 0.9835
3.5065 -1.0296 -2.0016 0.9835
3.5709 -0.7768 -2.0015 0.9835
3.5962 -0.6488 -2.0015 0.9835
3.6170 -0.5200 -2.0014 0.9835
3.6448 -0.2607 -2.0014 0.9835
3.6517 -0.1304 -2.0013 0.9835
-0.9576 -0.0342 -0.5532 0.9956
-0.9492 -0.1365 -0.5536 0.9956
-0.9353 -0.2035 -0.5526 0.9956
-0.9151 -0.2687 -0.5506 0.9956
-0.9058 -0.3015 -0.5511 0.9956
-0.8823 -0.4029 -0.5600 0.9955
-0.8687 -0.4349 -0.5609 0.9955
-0.8534 -0.4660 -0.5614 0.9955
-0.8178 -0.5256 -0.5613 0.9955
-0.8008 -0.5560 -0.5628 0.9955
-0.7846 -0.5873 -0.5658 0.9955
-0.7671 -0.6182 -0.5688 0.9955
-2.5392 -2.3641 -2.0030 0.9841
-2.3641 -2.5393 -2.0031 0.9841
-2.1770 -2.7014 -2.0031 0.9841
-2.0792 -2.7774 -2.0031 0.9841
-1.9787 -2.8499 -2.0031 0.9841
-1.8757 -2.9187 -2.0031 0.9841
-1.7704 -2.9838 -2.0031 0.9841
-1.6628 -3.0451 -2.0031 0.9841
-1.5530 -3.1025 -2.0031 0.9841
-1.3277 -3.2054 -2.0031 0.9841
-1.2124 -3.2507 -2.0031 0.9841
-0.9775 -3.3289 -2.0031 0.9841
-0.3709 -3.4494 -2.0030 0.9841
-0.2475 -3.4604 -2.0030 0.9841
-0.1238 -3.4670 -2.0030 0.9841
0.3708 -3.4492 -2.0029 0.9841
0.4937 -3.4337 -2.0028 0.9841
0.6159 -3.4139 -2.0028 0.9841
0.8579 -3.3611 -2.0028 0.9841
0.9773 -3.3283 -2.0027 0.9841
1.0954 -3.2913 -2.0027 0.9841
1.2122 -3.2500 -2.0027 0.9841
1.3274 -3.2046 -2.0026 0.9841
1.4409 -3.1552 -2.0026 0.9841
1.6623 -3.0442 -2.0025 0.9841
2.1762 -2.7004 -2.0023 0.9841
2.2711 -2.6210 -2.0023 0.9841
2.4522 -2.4522 -2.0022 0.9841
2.8483 -1.9777 -2.0020 0.9841
2.9170 -1.8747 -2.0020 0.9841
2.9820 -1.7693 -2.0019 0.9841
3.1005 -1.5520 -2.0018 0.9841
1.8507 -0.8452 -1.1747 0.9906
1.8620 -0.7713 -1.1636 0.9907
1.8682 -0.6968 -1.1512 0.9908
1.9033 -0.6335 -1.1581 0.9908
1.9351 -0.5682 -1.1644 0.9907
1.9616 -0.5007 -1.1688 0.9907
2.0153 -0.3636 -1.1823 0.9906
2.0320 -0.0726 -1.1739 0.9907
