ply
format ascii 1.0
element vertex 794
property float32 x
property float32 y
property float32 z
property float32 I
end_header
4.3224 6.2254 1.3364 0.9697
4.5515 6.0800 1.1635 0.9697
4.3231 6.2263 1.1612 0.9698
4.5522 6.0809 0.9892 0.9698
4.3237 6.2273 0.9872 0.9699
4.5535 6.0827 0.6432 0.9700
4.3263 6.2310 0.2991 0.9701
4.3270 6.2320 0.1282 0.9701
4.2436 6.6031 0.1326 0.9691
4.5593 6.0905 -0.0428 0.9700
4.3276 6.2329 -0.0427 0.9701
4.2374 6.5935 -0.0441 0.9691
4.2313 6.5840 -0.2204 0.9692
4.2252 6.5744 -0.3963 0.9692
4.2190 6.5649 -0.5722 0.9692
8.9821 4.1020 -0.9480 0.9611
8.6712 4.3405 -0.9309 0.9618
4.5756 6.1123 -0.7330 0.9698
8.9428 4.0840 -1.1678 0.9612
8.6713 4.3405 -1.3740 0.9616
7.8646 4.2944 -1.2696 0.9644
4.5840 6.1234 -1.0838 0.9696
4.3315 6.2385 -1.0761 0.9698
4.2007 6.5363 -1.1009 0.9691
8.6714 4.3406 -1.5975 0.9615
4.3322 6.2395 -1.2514 0.9697
4.5237 7.6243 -1.4605 0.9647
8.6715 4.3406 -1.8227 0.9613
7.8100 4.2646 -1.6726 0.9644
7.7405 4.5927 -1.6917 0.9640
5.4666 5.4665 -1.4531 0.9690
4.3329 6.2404 -1.4280 0.9696
5.0141 8.4508 -1.8470 0.9608
4.0819 8.9380 -1.8469 0.9608
3.7602 9.0780 -1.8469 0.9608
3.4337 9.2063 -1.8469 0.9608
3.1030 9.3230 -1.8469 0.9608
2.7682 9.4278 -1.8469 0.9608
2.4300 9.5206 -1.8469 0.9608
1.3984 9.7259 -1.8469 0.9608
0.7010 9.8010 -1.8469 0.9608
0.0000 9.8263 -1.8470 0.9608
-0.3507 9.8202 -1.8470 0.9608
-0.7010 9.8016 -1.8470 0.9608
-1.0504 9.7705 -1.8470 0.9608
-1.3985 9.7269 -1.8471 0.9608
-1.7449 9.6710 -1.8471 0.9608
9.4672 -0.0000 -2.0012 0.9620
9.4608 0.3379 -2.0011 0.9620
9.3692 1.3471 -2.0008 0.9620
9.1703 2.3406 -2.0006 0.9620
8.8542 3.3025 -1.9976 0.9621
8.7100 3.6078 -1.9928 0.9622
8.1698 3.7310 -1.8985 0.9639
7.8179 3.9133 -1.8480 0.9649
7.6730 4.1897 -1.8480 0.9649
7.3540 4.7261 -1.8478 0.9649
7.1804 4.9854 -1.8478 0.9649
6.9977 5.2384 -1.8477 0.9649
6.8061 5.4847 -1.8477 0.9649
6.3971 5.9559 -1.8476 0.9649
5.4666 5.4666 -1.6342 0.9689
3.8475 5.5414 -1.4260 0.9728
3.5695 5.5542 -1.3956 0.9734
3.4650 5.8399 -1.4354 0.9726
3.4614 7.5795 -1.7613 0.9665
3.0539 8.1877 -1.8472 0.9649
2.7596 8.2915 -1.8472 0.9649
2.4620 8.3847 -1.8472 0.9649
1.5516 8.5998 -1.8472 0.9649
-0.0000 8.7390 -1.8473 0.9649
-0.6235 8.7170 -1.8473 0.9649
-0.9342 8.6893 -1.8473 0.9649
-1.8578 8.5402 -1.8474 0.9649
-2.7603 8.2933 -1.8476 0.9649
-3.0546 8.1897 -1.8476 0.9649
-3.3451 8.0757 -1.8477 0.9649
-4.1896 7.6725 -1.8479 0.9649
-4.4609 7.5184 -1.8479 0.9649
-4.7265 7.3546 -1.8480 0.9649
-5.2396 6.9992 -1.8481 0.9649
-5.4862 6.8080 -1.8482 0.9649
-5.7260 6.6081 -1.8483 0.9649
-5.9584 6.3998 -1.8483 0.9649
-6.1833 6.1833 -1.8484 0.9649
-6.4003 5.9589 -1.8485 0.9649
-6.8097 5.4876 -1.8486 0.9649
-7.0015 5.2413 -1.8487 0.9649
-7.1845 4.9883 -1.8488 0.9649
-7.3583 4.7289 -1.8489 0.9649
-7.5227 4.4634 -1.8490 0.9649
-7.6776 4.1923 -1.8491 0.9649
-8.1565 4.0829 -1.9281 0.9634
-8.8722 3.3091 -2.0016 0.9620
-8.9851 2.9905 -2.0017 0.9620
-9.1764 2.3421 -2.0019 0.9620
-9.2546 2.0132 -2.0020 0.9620
-9.3210 1.6817 -2.0021 0.9620
-9.3755 1.3480 -2.0022 0.9620
-9.4487 0.6758 -2.0024 0.9620
-9.4673 0.3381 -2.0025 0.9620
8.5151 0.0000 -2.0013 0.9656
8.4271 1.2116 -2.0009 0.9656
8.3781 1.5116 -2.0008 0.9656
8.3185 1.8096 -2.0008 0.9656
8.2483 2.1053 -2.0007 0.9656
8.1676 2.3982 -2.0006 0.9656
7.8636 3.2572 -2.0004 0.9656
6.7626 4.0124 -1.8481 0.9682
6.6149 4.2511 -1.8480 0.9682
6.4587 4.4844 -1.8480 0.9682
6.2944 4.7119 -1.8479 0.9682
5.9419 5.1487 -1.8478 0.9682
5.3703 5.3703 -1.7849 0.9693
5.0152 5.3867 -1.7298 0.9702
4.7639 5.4978 -1.7097 0.9706
4.1382 5.5280 -1.6229 0.9720
3.8475 5.5414 -1.5855 0.9727
3.4650 5.8400 -1.5959 0.9725
3.4276 6.8474 -1.7997 0.9690
3.0081 7.2623 -1.8474 0.9682
2.4824 7.4584 -1.8474 0.9682
2.2146 7.5422 -1.8474 0.9682
1.9440 7.6164 -1.8474 0.9682
1.3957 7.7357 -1.8474 0.9682
0.2806 7.8558 -1.8475 0.9682
-0.8403 7.8162 -1.8476 0.9682
-1.6711 7.6820 -1.8477 0.9682
-1.9443 7.6176 -1.8477 0.9682
-2.7476 7.3666 -1.8478 0.9682
-3.0089 7.2641 -1.8479 0.9682
-3.2663 7.1522 -1.8479 0.9682
-3.5196 7.0313 -1.8480 0.9682
-3.7684 6.9014 -1.8480 0.9682
-4.0125 6.7627 -1.8481 0.9682
-4.2514 6.6154 -1.8482 0.9682
-4.4850 6.4596 -1.8482 0.9682
-4.7129 6.2956 -1.8483 0.9682
-5.9447 5.1511 -1.8487 0.9682
-6.1250 4.9358 -1.8487 0.9682
-6.4620 4.4867 -1.8489 0.9682
-6.6432 4.2693 -1.8559 0.9681
-7.0885 4.2058 -1.9371 0.9667
-7.4515 4.0688 -1.9953 0.9657
-7.6079 3.8082 -1.9995 0.9656
-7.7464 3.5377 -2.0015 0.9656
-7.9797 2.9763 -2.0016 0.9656
-8.1724 2.3996 -2.0018 0.9656
-8.3832 1.5125 -2.0021 0.9656
-8.4322 1.2124 -2.0021 0.9656
-8.4980 0.6078 -2.0023 0.9656
7.7295 -0.0000 -2.0013 0.9686
7.6497 1.0998 -2.0010 0.9686
7.4143 2.1770 -2.0007 0.9686
7.3316 2.4402 -2.0007 0.9686
7.2396 2.7002 -2.0006 0.9686
7.1384 2.9568 -2.0005 0.9686
6.2561 4.0205 -1.9255 0.9697
4.6736 5.3936 -1.8478 0.9709
4.3651 5.4167 -1.8012 0.9717
3.3988 6.2244 -1.8362 0.9711
2.2535 6.7708 -1.8476 0.9709
1.7647 6.9143 -1.8476 0.9709
1.5168 6.9729 -1.8476 0.9709
1.2670 7.0226 -1.8476 0.9709
1.0155 7.0634 -1.8476 0.9709
0.7628 7.0952 -1.8477 0.9709
0.5091 7.1179 -1.8477 0.9709
-0.2547 7.1317 -1.8477 0.9709
-0.7629 7.0956 -1.8478 0.9709
-1.2671 7.0233 -1.8478 0.9709
-1.7650 6.9153 -1.8479 0.9709
-2.0108 6.8480 -1.8479 0.9709
-2.7314 6.5943 -1.8480 0.9709
-2.9651 6.4927 -1.8481 0.9709
-3.1951 6.3829 -1.8481 0.9709
-3.6425 6.1390 -1.8482 0.9709
-4.2782 5.7150 -1.8484 0.9709
-4.4796 5.5588 -1.8485 0.9709
-4.6753 5.3956 -1.8485 0.9709
-5.2258 4.8654 -1.8487 0.9709
-5.5600 4.4805 -1.8488 0.9709
-6.6397 3.9395 -1.9990 0.9686
-7.0317 3.2112 -2.0015 0.9686
-7.1421 2.9583 -2.0016 0.9686
-7.2434 2.7016 -2.0016 0.9686
-7.3355 2.4415 -2.0017 0.9686
-7.4183 2.1782 -2.0018 0.9686
-7.4916 1.9121 -2.0019 0.9686
-7.5553 1.6436 -2.0020 0.9686
-7.6886 0.8266 -2.0022 0.9686
-7.7136 0.5517 -2.0023 0.9686
7.0648 0.2523 -2.0013 0.9710
6.9967 1.0060 -2.0011 0.9710
6.9067 1.5024 -2.0010 0.9710
6.7058 2.2319 -2.0008 0.9710
6.6217 2.4698 -2.0007 0.9710
6.4283 2.9357 -2.0006 0.9710
6.2021 3.3866 -2.0005 0.9711
6.0758 3.6049 -2.0000 0.9711
5.9336 3.8133 -1.9967 0.9711
5.7846 4.0163 -1.9936 0.9711
5.4975 4.1154 -1.9441 0.9719
5.1699 4.1662 -1.8796 0.9728
4.9338 4.2751 -1.8481 0.9732
4.7780 4.4484 -1.8481 0.9732
4.6161 4.6161 -1.8481 0.9732
4.2748 4.9334 -1.8480 0.9732
4.0960 5.0828 -1.8480 0.9732
3.9119 5.2257 -1.8479 0.9732
3.7228 5.3619 -1.8479 0.9732
2.9217 5.8369 -1.8478 0.9732
2.2810 6.1157 -1.8478 0.9732
1.6142 6.3245 -1.8478 0.9732
1.3875 6.3780 -1.8478 0.9732
1.1589 6.4235 -1.8478 0.9732
0.2330 6.5232 -1.8479 0.9732
-0.2330 6.5233 -1.8479 0.9732
-0.9290 6.4613 -1.8480 0.9732
-1.3876 6.3787 -1.8480 0.9732
-1.8392 6.2637 -1.8481 0.9732
-2.2815 6.1168 -1.8481 0.9732
-2.7121 5.9387 -1.8482 0.9732
-3.9131 5.2273 -1.8485 0.9732
-4.2763 4.9351 -1.8486 0.9732
-5.0693 4.3925 -1.8989 0.9725
-5.7994 4.0266 -1.9987 0.9711
-5.9470 3.8219 -2.0012 0.9710
-6.0798 3.6073 -2.0013 0.9710
-6.2049 3.3881 -2.0014 0.9710
-6.4313 2.9371 -2.0015 0.9710
-6.6249 2.4709 -2.0017 0.9710
-6.7091 2.2330 -2.0017 0.9710
-6.7848 1.9922 -2.0018 0.9710
-6.8518 1.7488 -2.0019 0.9710
-6.9101 1.5032 -2.0020 0.9710
-7.0320 0.7560 -2.0022 0.9710
-7.0685 0.2524 -2.0023 0.9710
6.5026 0.2322 -2.0013 0.9731
6.4899 0.4642 -2.0013 0.9731
6.4026 1.1552 -2.0011 0.9731
6.3571 1.3829 -2.0010 0.9731
6.2418 1.8328 -2.0009 0.9731
6.0949 2.2732 -2.0008 0.9731
6.0097 2.4893 -2.0007 0.9731
5.9168 2.7021 -2.0007 0.9731
5.8165 2.9115 -2.0006 0.9731
5.7087 3.1172 -2.0006 0.9731
5.5937 3.3189 -2.0005 0.9731
5.4715 3.5163 -2.0005 0.9731
5.3408 3.7082 -1.9999 0.9732
5.1977 3.8909 -1.9970 0.9732
5.0485 4.0684 -1.9943 0.9732
4.8315 4.1865 -1.9664 0.9736
4.5417 4.2285 -1.9087 0.9744
4.2678 4.2678 -1.8564 0.9751
4.0944 4.3978 -1.8482 0.9752
3.9348 4.5410 -1.8481 0.9752
3.2483 5.0545 -1.8480 0.9752
3.0658 5.1672 -1.8480 0.9752
2.8794 5.2733 -1.8480 0.9752
2.4959 5.4652 -1.8480 0.9752
2.0996 5.6293 -1.8480 0.9752
1.8973 5.7006 -1.8480 0.9752
1.6927 5.7647 -1.8480 0.9752
1.4858 5.8214 -1.8480 0.9752
1.2771 5.8708 -1.8480 0.9752
0.4286 5.9929 -1.8480 0.9752
-0.4286 5.9930 -1.8480 0.9752
-0.8551 5.9473 -1.8481 0.9752
-1.0669 5.9131 -1.8481 0.9752
-1.4860 5.8221 -1.8482 0.9752
-1.8976 5.7015 -1.8482 0.9752
-2.1000 5.6302 -1.8483 0.9752
-2.4964 5.4663 -1.8483 0.9752
-2.6899 5.3738 -1.8484 0.9752
-2.8801 5.2745 -1.8484 0.9752
-3.2492 5.0558 -1.8485 0.9752
-3.4277 4.9367 -1.8486 0.9752
-3.6018 4.8114 -1.8486 0.9752
-3.7713 4.6799 -1.8486 0.9752
-4.1490 4.4564 -1.8728 0.9748
-5.0599 4.0775 -1.9987 0.9732
-5.2085 3.8990 -2.0012 0.9731
-5.3445 3.7108 -2.0012 0.9731
-5.4737 3.5178 -2.0013 0.9731
-5.5960 3.3202 -2.0014 0.9731
-5.7111 3.1185 -2.0014 0.9731
-6.0123 2.4904 -2.0016 0.9731
-6.0976 2.2743 -2.0017 0.9731
-6.1750 2.0553 -2.0017 0.9731
-6.3063 1.6096 -2.0019 0.9731
-6.3600 1.3835 -2.0019 0.9731
-6.4055 1.1557 -2.0020 0.9731
-6.4429 0.9264 -2.0021 0.9731
-6.4721 0.6958 -2.0021 0.9731
-6.4930 0.4644 -2.0022 0.9731
6.0210 -0.0000 -2.0014 0.9749
6.0054 0.4295 -2.0013 0.9749
5.9860 0.6436 -2.0013 0.9749
5.9591 0.8568 -2.0012 0.9749
5.9245 1.0689 -2.0011 0.9749
5.8824 1.2796 -2.0011 0.9749
5.8329 1.4887 -2.0010 0.9749
5.7115 1.9010 -2.0009 0.9749
5.6399 2.1036 -2.0009 0.9749
5.3823 2.6942 -2.0007 0.9749
5.2826 2.8845 -2.0007 0.9749
4.5415 3.9352 -1.9975 0.9750
4.3929 4.0900 -1.9951 0.9750
4.2393 4.2393 -1.9929 0.9750
3.7337 4.3089 -1.8952 0.9763
3.3320 4.4511 -1.8482 0.9768
3.1710 4.5671 -1.8482 0.9768
2.6645 4.8798 -1.8481 0.9768
2.4887 4.9717 -1.8481 0.9768
2.1276 5.1365 -1.8481 0.9768
1.9429 5.2092 -1.8481 0.9768
1.7557 5.2752 -1.8481 0.9768
1.1818 5.4327 -1.8481 0.9768
0.9871 5.4714 -1.8481 0.9768
-0.3967 5.5458 -1.8482 0.9768
-0.5944 5.5282 -1.8482 0.9768
-0.7913 5.5035 -1.8482 0.9768
-0.9872 5.4718 -1.8482 0.9768
-1.1819 5.4332 -1.8483 0.9768
-1.3751 5.3876 -1.8483 0.9768
-1.5666 5.3352 -1.8483 0.9768
-1.7560 5.2759 -1.8483 0.9768
-1.9432 5.2100 -1.8484 0.9768
-2.1280 5.1374 -1.8484 0.9768
-2.6651 4.8808 -1.8485 0.9768
-2.8377 4.7826 -1.8486 0.9768
-3.1718 4.5682 -1.8486 0.9768
-3.6045 4.4729 -1.9095 0.9761
-4.0883 4.3911 -1.9943 0.9750
-4.2473 4.2473 -1.9966 0.9750
-4.6876 3.7775 -2.0012 0.9749
-4.9454 3.4337 -2.0013 0.9749
-5.4773 2.5014 -2.0016 0.9749
-5.5633 2.3044 -2.0016 0.9749
-5.6422 2.1044 -2.0017 0.9749
-5.7783 1.6966 -2.0018 0.9749
-5.8353 1.4894 -2.0019 0.9749
-5.8850 1.2802 -2.0019 0.9749
-5.9271 1.0694 -2.0020 0.9749
-5.9617 0.8571 -2.0021 0.9749
-6.0080 0.4297 -2.0022 0.9749
-6.0197 0.2150 -2.0022 0.9749
5.5392 0.7964 -2.0012 0.9765
5.4680 1.1895 -2.0011 0.9765
5.4220 1.3839 -2.0011 0.9765
5.3092 1.7671 -2.0010 0.9765
5.2426 1.9554 -2.0009 0.9765
5.1693 2.1412 -2.0009 0.9765
4.9105 2.6813 -2.0008 0.9765
4.8116 2.8548 -2.0007 0.9765
4.5955 3.1907 -2.0007 0.9765
4.3560 3.5103 -2.0006 0.9765
4.0942 3.8119 -2.0005 0.9765
3.9513 3.9513 -1.9983 0.9765
3.6519 4.2145 -1.9942 0.9766
3.2506 4.3423 -1.9397 0.9772
2.8211 4.3897 -1.8660 0.9781
2.6373 4.4449 -1.8483 0.9783
2.3134 4.6216 -1.8482 0.9783
2.1470 4.7012 -1.8482 0.9783
1.9778 4.7748 -1.8482 0.9783
1.8061 4.8424 -1.8482 0.9783
1.4560 4.9589 -1.8482 0.9783
0.7355 5.1156 -1.8482 0.9783
0.3687 5.1551 -1.8482 0.9783
-0.0000 5.1683 -1.8482 0.9783
-0.5525 5.1388 -1.8483 0.9783
-0.9177 5.0865 -1.8483 0.9783
-1.0987 5.0505 -1.8484 0.9783
-1.2783 5.0082 -1.8484 0.9783
-1.4562 4.9594 -1.8484 0.9783
-1.6323 4.9044 -1.8484 0.9783
-1.9781 4.7756 -1.8485 0.9783
-2.4774 4.5370 -1.8486 0.9783
-2.8926 4.5010 -1.9133 0.9775
-3.3408 4.4628 -1.9936 0.9766
-3.6579 4.2214 -1.9975 0.9766
-4.2292 3.6646 -2.0012 0.9765
-4.3574 3.5114 -2.0012 0.9765
-4.5970 3.1918 -2.0013 0.9765
-5.0050 2.5053 -2.0015 0.9765
-5.3112 1.7677 -2.0018 0.9765
-5.3711 1.5771 -2.0018 0.9765
-5.4241 1.3844 -2.0019 0.9765
-5.5093 0.9940 -2.0020 0.9765
-5.5415 0.7967 -2.0020 0.9765
-5.5666 0.5984 -2.0021 0.9765
-5.5954 0.1998 -2.0022 0.9765
5.2228 -0.0000 -2.0015 0.9779
5.1692 0.7432 -2.0013 0.9779
5.1392 0.9272 -2.0012 0.9779
5.1027 1.1100 -2.0012 0.9779
5.0103 1.4712 -2.0011 0.9779
4.8923 1.8247 -2.0010 0.9779
4.6690 2.3371 -2.0009 0.9779
4.5825 2.5022 -2.0008 0.9779
4.2885 2.9776 -2.0007 0.9779
4.1795 3.1287 -2.0007 0.9779
4.0650 3.2758 -2.0007 0.9779
3.9455 3.4188 -2.0006 0.9779
3.8209 3.5574 -2.0006 0.9779
3.6914 3.6914 -2.0006 0.9779
3.4164 3.9428 -1.9993 0.9779
3.2706 4.0586 -1.9975 0.9779
3.1211 4.1692 -1.9958 0.9779
2.9679 4.2746 -1.9942 0.9780
2.6031 4.3873 -1.9550 0.9784
2.4058 4.4058 -1.9237 0.9787
2.2142 4.4234 -1.8957 0.9790
2.0278 4.4401 -1.8706 0.9793
1.8475 4.4603 -1.8501 0.9795
1.6854 4.5187 -1.8482 0.9796
1.3607 4.6343 -1.8509 0.9795
0.8563 4.7465 -1.8483 0.9796
0.6864 4.7740 -1.8483 0.9796
0.1721 4.8201 -1.8483 0.9796
-0.0000 4.8232 -1.8483 0.9796
-0.1722 4.8201 -1.8484 0.9796
-0.3441 4.8110 -1.8484 0.9796
-0.5156 4.7957 -1.8484 0.9796
-0.8564 4.7468 -1.8484 0.9796
-1.0253 4.7132 -1.8484 0.9795
-1.3590 4.6282 -1.8485 0.9795
-1.6919 4.5362 -1.8553 0.9795
-2.0644 4.5204 -1.9044 0.9789
-2.2580 4.5109 -1.9332 0.9786
-2.4576 4.5008 -1.9651 0.9783
-2.6547 4.4742 -1.9937 0.9780
-2.8149 4.3801 -1.9953 0.9779
-3.1255 4.1752 -1.9986 0.9779
-3.2755 4.0646 -2.0005 0.9779
-3.4195 3.9462 -2.0010 0.9779
-3.6924 3.6924 -2.0011 0.9779
-4.0662 3.2768 -2.0013 0.9779
-4.1807 3.1296 -2.0013 0.9779
-4.2899 2.9785 -2.0014 0.9779
-4.4917 2.6650 -2.0015 0.9779
-4.5840 2.5031 -2.0015 0.9779
-4.6706 2.3379 -2.0016 0.9779
-4.8941 1.8254 -2.0017 0.9779
-4.9563 1.6496 -2.0018 0.9779
-5.0121 1.4717 -2.0018 0.9779
-5.0616 1.2919 -2.0019 0.9779
-5.1046 1.1104 -2.0019 0.9779
-5.1411 0.9276 -2.0020 0.9779
-5.1945 0.5585 -2.0021 0.9779
-5.2214 0.1865 -2.0022 0.9779
4.8904 0.0000 -2.0015 0.9791
4.8620 0.5227 -2.0014 0.9791
4.8401 0.6959 -2.0013 0.9791
4.7779 1.0394 -2.0012 0.9791
4.7377 1.2092 -2.0012 0.9791
4.6914 1.3775 -2.0011 0.9791
4.6392 1.5441 -2.0011 0.9791
4.5170 1.8710 -2.0010 0.9791
4.3719 2.1884 -2.0009 0.9791
4.2045 2.4946 -2.0009 0.9791
4.0156 2.7881 -2.0008 0.9791
3.9135 2.9296 -2.0008 0.9791
3.6944 3.2012 -2.0007 0.9791
3.4566 3.4566 -2.0007 0.9791
2.9292 3.9130 -2.0005 0.9791
2.0181 4.4189 -1.9882 0.9792
1.8370 4.4350 -1.9647 0.9795
1.6589 4.4478 -1.9429 0.9797
1.4841 4.4590 -1.9234 0.9799
1.3124 4.4696 -1.9065 0.9801
1.1435 4.4802 -1.8924 0.9802
0.9768 4.4902 -1.8807 0.9803
0.4851 4.5118 -1.8572 0.9806
0.3231 4.5178 -1.8537 0.9806
-0.6516 4.5320 -1.8739 0.9804
-0.8173 4.5301 -1.8840 0.9803
-1.1550 4.5251 -1.9114 0.9800
-1.3278 4.5219 -1.9288 0.9798
-1.8640 4.5000 -1.9935 0.9792
-2.0245 4.4330 -1.9946 0.9792
-2.4916 4.1994 -1.9985 0.9791
-3.0678 3.8070 -2.0010 0.9791
-3.4574 3.4574 -2.0012 0.9791
-3.5787 3.3319 -2.0012 0.9791
-3.6954 3.2021 -2.0013 0.9791
-4.0168 2.7889 -2.0014 0.9791
-4.1139 2.6438 -2.0014 0.9791
-4.2057 2.4954 -2.0015 0.9791
-4.2922 2.3437 -2.0015 0.9791
-4.3733 2.1891 -2.0016 0.9791
-4.4487 2.0317 -2.0016 0.9791
-4.5185 1.8716 -2.0017 0.9791
-4.5825 1.7092 -2.0017 0.9791
-4.7394 1.2096 -2.0019 0.9791
-4.7796 1.0397 -2.0019 0.9791
-2.1703 0.3916 -0.9026 0.9905
-1.9449 0.2796 -0.8042 0.9915
-1.9524 0.1396 -0.8011 0.9916
4.5896 0.1639 -2.0015 0.9802
4.5807 0.3276 -2.0014 0.9802
4.4493 1.1356 -2.0012 0.9802
4.4058 1.2937 -2.0012 0.9802
4.3567 1.4501 -2.0012 0.9802
4.3021 1.6046 -2.0011 0.9802
4.2420 1.7571 -2.0011 0.9802
4.1765 1.9074 -2.0010 0.9802
3.8623 2.4821 -2.0009 0.9802
3.7712 2.6184 -2.0009 0.9802
3.6753 2.7513 -2.0008 0.9802
3.5747 2.8807 -2.0008 0.9802
3.3600 3.1283 -2.0008 0.9802
3.1282 3.3599 -2.0007 0.9802
2.4818 3.8618 -2.0006 0.9802
2.3424 3.9478 -2.0006 0.9802
2.1986 4.0265 -1.9994 0.9802
1.9038 4.1687 -1.9973 0.9802
1.7530 4.2321 -1.9964 0.9802
1.6001 4.2901 -1.9955 0.9802
1.2890 4.3901 -1.9940 0.9802
0.9720 4.4682 -1.9928 0.9802
0.4829 4.4912 -1.9686 0.9805
0.1607 4.4994 -1.9622 0.9805
0.0000 4.5028 -1.9624 0.9805
-0.4849 4.5106 -1.9771 0.9804
-0.6486 4.5112 -1.9863 0.9803
-0.8121 4.5013 -1.9934 0.9802
-0.9725 4.4706 -1.9940 0.9802
-1.2899 4.3929 -1.9953 0.9802
-1.6014 4.2934 -1.9971 0.9802
-2.6186 3.7715 -2.0010 0.9802
-2.7516 3.6757 -2.0011 0.9802
-2.8811 3.5752 -2.0011 0.9802
-3.0069 3.4701 -2.0011 0.9802
-3.3608 3.1290 -2.0012 0.9802
-3.4704 3.0071 -2.0013 0.9802
-3.5756 2.8814 -2.0013 0.9802
-3.6763 2.7520 -2.0014 0.9802
-3.8634 2.4829 -2.0015 0.9802
-3.9496 2.3434 -2.0015 0.9802
-4.1070 2.0558 -2.0016 0.9802
-1.5875 0.5284 -0.7292 0.9927
-1.5707 0.4612 -0.7134 0.9929
-1.5485 0.3952 -0.6965 0.9931
-1.5214 0.3310 -0.6786 0.9932
-1.5002 0.2706 -0.6643 0.9934
-1.5249 0.1639 -0.6684 0.9933
-1.5293 0.1094 -0.6682 0.9933
4.3241 -0.0000 -2.0016 0.9811
4.3129 0.3085 -2.0015 0.9811
4.2990 0.4622 -2.0014 0.9811
4.2797 0.6153 -2.0014 0.9811
4.2247 0.9190 -2.0013 0.9811
4.1892 1.0692 -2.0013 0.9811
4.1483 1.2180 -2.0012 0.9811
3.9324 1.7959 -2.0011 0.9811
3.7941 2.0717 -2.0010 0.9811
3.7177 2.2058 -2.0010 0.9811
3.5508 2.4653 -2.0009 0.9811
3.3658 2.7123 -2.0009 0.9811
3.1636 2.9454 -2.0008 0.9811
3.0564 3.0564 -2.0008 0.9811
2.9454 3.1636 -2.0008 0.9811
2.4651 3.5504 -2.0007 0.9811
2.2055 3.7171 -2.0007 0.9811
2.0714 3.7935 -2.0007 0.9811
1.3638 4.0976 -1.9990 0.9811
1.0674 4.1819 -1.9978 0.9812
0.9172 4.2163 -1.9973 0.9812
0.7660 4.2456 -1.9969 0.9812
0.4611 4.2887 -1.9966 0.9812
0.3077 4.3020 -1.9964 0.9812
0.1539 4.3101 -1.9964 0.9812
0.0000 4.3129 -1.9964 0.9812
-0.6141 4.2711 -1.9974 0.9812
-0.9177 4.2184 -1.9983 0.9812
-1.0679 4.1842 -1.9989 0.9811
-1.3647 4.1004 -2.0004 0.9811
-1.7957 3.9321 -2.0009 0.9811
-1.9350 3.8655 -2.0009 0.9811
-2.0717 3.7940 -2.0010 0.9811
-2.4655 3.5510 -2.0011 0.9811
-2.7127 3.3662 -2.0011 0.9811
-2.9460 3.1642 -2.0012 0.9811
-3.1643 2.9461 -2.0013 0.9811
-3.3666 2.7130 -2.0014 0.9811
-3.5517 2.4660 -2.0014 0.9811
-3.8668 1.9356 -2.0016 0.9811
-1.3324 0.4970 -0.6582 0.9938
-1.3241 0.3888 -0.6388 0.9939
-1.3116 0.3348 -0.6266 0.9941
-1.3160 0.2374 -0.6190 0.9941
-1.3351 0.1435 -0.6215 0.9941
-1.3384 0.0957 -0.6211 0.9941
-1.3376 0.0478 -0.6195 0.9941
4.0805 -0.0000 -2.0016 0.9820
4.0699 0.2911 -2.0015 0.9820
4.0569 0.4361 -2.0015 0.9820
4.0153 0.7244 -2.0014 0.9820
3.9868 0.8673 -2.0013 0.9820
3.9532 1.0090 -2.0013 0.9820
3.9146 1.1494 -2.0013 0.9820
3.8710 1.2884 -2.0012 0.9820
3.8225 1.4257 -2.0012 0.9820
3.7691 1.5612 -2.0012 0.9820
3.7109 1.6947 -2.0011 0.9820
3.6480 1.8261 -2.0011 0.9820
3.5805 1.9551 -2.0011 0.9820
3.3508 2.3265 -2.0010 0.9820
3.1762 2.5596 -2.0009 0.9820
3.0828 2.6712 -2.0009 0.9820
2.9854 2.7795 -2.0009 0.9820
2.8843 2.8843 -2.0009 0.9820
2.6712 3.0827 -2.0008 0.9820
2.3263 3.3504 -2.0008 0.9820
1.9547 3.5798 -2.0007 0.9820
1.6944 3.7102 -2.0007 0.9820
1.5609 3.7683 -2.0007 0.9820
1.1491 3.9135 -2.0007 0.9820
1.0087 3.9520 -2.0007 0.9820
0.8670 3.9855 -2.0007 0.9820
0.7242 4.0139 -2.0007 0.9820
0.0000 4.0781 -2.0004 0.9820
-0.4360 4.0555 -2.0008 0.9820
-0.7242 4.0141 -2.0008 0.9820
-0.8671 3.9857 -2.0008 0.9820
-1.0088 3.9523 -2.0009 0.9820
-1.1492 3.9138 -2.0009 0.9820
-1.5610 3.7687 -2.0009 0.9820
-1.6946 3.7106 -2.0010 0.9820
-1.9550 3.5804 -2.0010 0.9820
-2.2055 3.4319 -2.0011 0.9820
-2.3267 3.3510 -2.0011 0.9820
-2.5599 3.1766 -2.0012 0.9820
-2.6717 3.0833 -2.0012 0.9820
-2.8849 2.8849 -2.0013 0.9820
-2.9861 2.7802 -2.0013 0.9820
-3.0835 2.6719 -2.0014 0.9820
-3.1769 2.5602 -2.0014 0.9820
-3.3516 2.3271 -2.0015 0.9820
-3.4326 2.2060 -2.0015 0.9820
-3.5092 2.0821 -2.0015 0.9820
-1.1292 0.5652 -0.6194 0.9944
-1.1484 0.4757 -0.6097 0.9945
-1.1543 0.4305 -0.6043 0.9945
-1.1579 0.3854 -0.5986 0.9946
-1.1590 0.3403 -0.5925 0.9946
-1.1578 0.2955 -0.5861 0.9947
-1.1695 0.2544 -0.5871 0.9947
-1.1867 0.1706 -0.5881 0.9947
-1.1921 0.1282 -0.5881 0.9947
-1.1954 0.0855 -0.5878 0.9947
-1.1965 0.0427 -0.5873 0.9947
3.8583 -0.0000 -2.0016 0.9828
3.8359 0.4124 -2.0015 0.9828
3.8187 0.5491 -2.0014 0.9828
3.7966 0.6850 -2.0014 0.9828
3.6143 1.3481 -2.0012 0.9828
3.3855 1.8486 -2.0011 0.9828
3.0878 2.3115 -2.0010 0.9828
3.0033 2.4202 -2.0010 0.9828
2.7273 2.7273 -2.0009 0.9828
1.7263 3.4488 -2.0008 0.9828
1.4759 3.5631 -2.0008 0.9828
1.0865 3.7004 -2.0008 0.9828
0.9538 3.7369 -2.0008 0.9828
0.6848 3.7954 -2.0008 0.9828
0.5489 3.8174 -2.0008 0.9828
0.4123 3.8346 -2.0008 0.9828
0.1376 3.8543 -2.0008 0.9828
0.0000 3.8567 -2.0008 0.9828
-0.1377 3.8543 -2.0008 0.9828
-0.2751 3.8470 -2.0008 0.9828
-0.5489 3.8176 -2.0009 0.9828
-1.0867 3.7008 -2.0009 0.9828
-1.2181 3.6596 -2.0009 0.9828
-1.3479 3.6139 -2.0010 0.9828
-1.4761 3.5635 -2.0010 0.9828
-1.8486 3.3854 -2.0011 0.9828
-1.9683 3.3173 -2.0011 0.9828
-2.0854 3.2450 -2.0011 0.9828
-2.2000 3.1686 -2.0012 0.9828
-2.3117 3.0881 -2.0012 0.9828
-2.5262 2.9154 -2.0012 0.9828
-2.7278 2.7278 -2.0013 0.9828
-2.8235 2.6288 -2.0013 0.9828
-2.9156 2.5263 -2.0014 0.9828
-3.0885 2.3120 -2.0015 0.9828
-3.1691 2.2004 -2.0015 0.9828
-3.2457 2.0859 -2.0015 0.9828
-1.0118 0.5525 -0.5981 0.9948
-1.0298 0.5155 -0.5974 0.9948
-1.0430 0.4763 -0.5948 0.9948
-1.0617 0.3534 -0.5805 0.9950
-1.0814 0.2352 -0.5741 0.9950
-1.0974 0.1578 -0.5752 0.9950
-1.1055 0.0791 -0.5750 0.9950
3.6521 0.1304 -2.0016 0.9835
3.6451 0.2607 -2.0015 0.9835
3.6171 0.5200 -2.0015 0.9835
3.5707 0.7767 -2.0014 0.9835
3.5406 0.9037 -2.0014 0.9835
3.5060 1.0295 -2.0013 0.9835
3.2673 1.6355 -2.0012 0.9835
3.2068 1.7510 -2.0012 0.9835
2.9248 2.1895 -2.0011 0.9835
2.8448 2.2924 -2.0010 0.9835
2.7611 2.3925 -2.0010 0.9835
2.6739 2.4895 -2.0010 0.9835
2.4895 2.6739 -2.0009 0.9835
2.2923 2.8446 -2.0009 0.9835
2.1893 2.9246 -2.0009 0.9835
2.0835 3.0008 -2.0009 0.9835
1.9751 3.0733 -2.0009 0.9835
1.6352 3.2667 -2.0008 0.9835
1.2766 3.4228 -2.0008 0.9835
0.9034 3.5396 -2.0008 0.9835
0.7765 3.5696 -2.0008 0.9835
0.6486 3.5951 -2.0008 0.9835
0.5199 3.6159 -2.0008 0.9835
0.2606 3.6438 -2.0008 0.9835
0.1304 3.6508 -2.0009 0.9835
-0.0000 3.6532 -2.0009 0.9835
-1.0293 3.5054 -2.0010 0.9835
-1.1538 3.4665 -2.0010 0.9835
-1.2768 3.4231 -2.0010 0.9835
-1.3981 3.3754 -2.0010 0.9835
-1.5177 3.3234 -2.0011 0.9835
-1.7510 3.2067 -2.0011 0.9835
-1.8644 3.1422 -2.0011 0.9835
-2.0838 3.0013 -2.0012 0.9835
-2.2927 2.8451 -2.0012 0.9835
-2.4899 2.6744 -2.0013 0.9835
-2.7617 2.3930 -2.0014 0.9835
-2.8454 2.2929 -2.0014 0.9835
-2.9254 2.1899 -2.0015 0.9835
-0.8882 0.5708 -0.5782 0.9952
-0.9269 0.5061 -0.5784 0.9952
-0.9580 0.4375 -0.5768 0.9952
-0.9677 0.4008 -0.5737 0.9952
-0.9820 0.2883 -0.5606 0.9953
-0.9938 0.2537 -0.5618 0.9953
-1.0039 0.2184 -0.5627 0.9953
-1.0124 0.1826 -0.5634 0.9953
-1.0190 0.1465 -0.5638 0.9953
-1.0236 0.1100 -0.5639 0.9953
-1.0265 0.0734 -0.5637 0.9953
2.0320 0.0726 -1.1739 0.9907
2.0359 0.1456 -1.1784 0.9906
2.0300 0.2919 -1.1841 0.9906
2.0153 0.3636 -1.1823 0.9906
1.9883 0.4325 -1.1748 0.9906
1.9616 0.5006 -1.1688 0.9907
1.9351 0.5682 -1.1644 0.9907
1.9033 0.6335 -1.1581 0.9908
1.8682 0.6968 -1.1512 0.9908
1.8508 0.8452 -1.1747 0.9906
3.0996 1.5515 -2.0012 0.9841
2.6987 2.1748 -2.0011 0.9841
2.6194 2.2697 -2.0011 0.9841
2.3617 2.5366 -2.0010 0.9841
1.9766 2.8468 -2.0009 0.9841
1.6609 3.0417 -2.0009 0.9841
1.5513 3.0991 -2.0009 0.9841
1.4397 3.1525 -2.0009 0.9841
1.0944 3.2883 -2.0009 0.9841
0.9764 3.3252 -2.0009 0.9841
0.8571 3.3580 -2.0009 0.9841
0.6153 3.4106 -2.0009 0.9841
0.3705 3.4458 -2.0009 0.9841
0.2472 3.4568 -2.0009 0.9841
0.1237 3.4635 -2.0009 0.9841
-0.2472 3.4569 -2.0009 0.9841
-0.3705 3.4459 -2.0009 0.9841
-0.4932 3.4305 -2.0010 0.9841
-0.6154 3.4107 -2.0010 0.9841
-0.8571 3.3582 -2.0010 0.9841
-0.9765 3.3255 -2.0010 0.9841
-1.9769 2.8472 -2.0012 0.9841
-2.6199 2.2701 -2.0014 0.9841
-0.7671 0.6182 -0.5688 0.9955
-0.7846 0.5873 -0.5658 0.9955
-0.8008 0.5560 -0.5628 0.9955
-0.8823 0.4029 -0.5600 0.9955
-0.8941 0.3703 -0.5587 0.9955
-0.9058 0.3015 -0.5511 0.9956
-0.9430 0.1701 -0.5532 0.9956
-0.9492 0.1365 -0.5537 0.9956
-0.9538 0.1025 -0.5538 0.9956
-0.9565 0.0684 -0.5536 0.9956
-0.9575 0.0342 -0.5532 0.9956
