ply
format ascii 1.0
element vertex 732
property float32 x
property float32 y
property float32 z
property float32 I
end_header
-9.4631 0.0000 -2.0003 0.9620
-9.4575 -0.3378 -2.0004 0.9620
-9.4399 -0.6752 -2.0005 0.9620
-9.4103 -1.0117 -2.0006 0.9620
-9.3687 -1.3470 -2.0007 0.9620
-9.3151 -1.6806 -2.0008 0.9620
-8.9830 -2.9898 -2.0012 0.9620
-8.7477 -3.6234 -2.0014 0.9620
-8.6133 -3.9336 -2.0016 0.9620
-8.4679 -4.2387 -2.0017 0.9620
-8.3116 -4.5385 -2.0018 0.9620
-8.1448 -4.8325 -2.0019 0.9620
-7.9675 -5.1204 -2.0020 0.9620
-7.7801 -5.4018 -2.0021 0.9620
-7.5828 -5.6764 -2.0022 0.9620
-7.3757 -5.9437 -2.0023 0.9620
-6.9337 -6.4554 -2.0025 0.9620
-6.6992 -6.6992 -2.0026 0.9620
-6.2048 -7.1608 -2.0028 0.9620
-5.9456 -7.3782 -2.0029 0.9620
-5.6788 -7.5859 -2.0030 0.9620
-5.4047 -7.7842 -2.0031 0.9620
-4.2426 -8.4757 -2.0035 0.9620
-3.9376 -8.6221 -2.0036 0.9620
-3.6275 -8.7575 -2.0037 0.9620
-2.3446 -9.1861 -2.0040 0.9620
-2.0153 -9.2643 -2.0041 0.9620
-1.6834 -9.3306 -2.0041 0.9620
-1.0136 -9.4276 -2.0043 0.9620
-0.6765 -9.4580 -2.0043 0.9620
-0.3385 -9.4764 -2.0044 0.9620
-0.0000 -9.4827 -2.0045 0.9620
0.6765 -9.4590 -2.0046 0.9620
1.3496 -9.3871 -2.0046 0.9620
1.6839 -9.3331 -2.0047 0.9620
2.0159 -9.2672 -2.0047 0.9620
2.3454 -9.1895 -2.0047 0.9620
2.6720 -9.1000 -2.0048 0.9620
3.3144 -8.8864 -2.0048 0.9620
4.8396 -8.1568 -2.0048 0.9620
5.4092 -7.7907 -2.0048 0.9620
5.6838 -7.5927 -2.0048 0.9620
5.9511 -7.3849 -2.0048 0.9620
6.2108 -7.1677 -2.0048 0.9620
6.4626 -6.9414 -2.0048 0.9620
7.1673 -6.2105 -2.0047 0.9620
7.5917 -5.6831 -2.0046 0.9620
8.1551 -4.8387 -2.0044 0.9620
8.4791 -4.2443 -2.0043 0.9620
8.6249 -3.9388 -2.0042 0.9620
8.7597 -3.6284 -2.0042 0.9620
8.8833 -3.3133 -2.0041 0.9620
8.9955 -2.9940 -2.0040 0.9620
9.0963 -2.6709 -2.0040 0.9620
9.2630 -2.0150 -2.0038 0.9620
9.3286 -1.6831 -2.0037 0.9620
9.4241 -1.0132 -2.0035 0.9620
9.4715 -0.3383 -2.0034 0.9620
-8.5118 0.0000 -2.0005 0.9656
-8.5067 -0.3038 -2.0005 0.9656
-8.4908 -0.6073 -2.0006 0.9656
-8.1700 -2.3989 -2.0012 0.9656
-8.0795 -2.6891 -2.0013 0.9656
-7.9788 -2.9759 -2.0014 0.9656
-7.8679 -3.2590 -2.0015 0.9656
-7.6161 -3.8123 -2.0017 0.9656
-7.4755 -4.0819 -2.0018 0.9656
-7.1659 -4.6053 -2.0020 0.9656
-6.8198 -5.1052 -2.0022 0.9656
-6.4388 -5.5793 -2.0024 0.9656
-6.0250 -6.0250 -2.0025 0.9656
-5.8064 -6.2365 -2.0026 0.9656
-5.5804 -6.4401 -2.0027 0.9656
-5.3472 -6.6354 -2.0028 0.9656
-5.1072 -6.8224 -2.0029 0.9656
-3.8155 -7.6224 -2.0033 0.9656
-2.9792 -7.9875 -2.0036 0.9656
-2.6923 -8.0890 -2.0036 0.9656
-2.1085 -8.2611 -2.0038 0.9656
-1.8124 -8.3313 -2.0038 0.9656
-1.2135 -8.4399 -2.0040 0.9656
-0.6083 -8.5054 -2.0041 0.9656
-0.3044 -8.5220 -2.0041 0.9656
-0.0000 -8.5276 -2.0042 0.9656
0.9116 -8.4793 -2.0043 0.9656
1.2137 -8.4415 -2.0044 0.9656
1.8129 -8.3337 -2.0044 0.9656
2.4028 -8.1833 -2.0045 0.9656
4.0875 -7.4858 -2.0045 0.9656
4.8643 -7.0059 -2.0045 0.9656
5.1112 -6.8278 -2.0045 0.9656
5.8116 -6.2421 -2.0045 0.9656
6.2420 -5.8115 -2.0044 0.9656
6.8271 -5.1107 -2.0043 0.9656
7.1740 -4.6104 -2.0042 0.9656
7.6251 -3.8169 -2.0041 0.9656
8.0897 -2.6925 -2.0038 0.9656
8.3303 -1.8122 -2.0036 0.9656
8.3894 -1.5136 -2.0035 0.9656
8.4377 -1.2132 -2.0034 0.9656
8.4753 -0.9112 -2.0034 0.9656
-7.7267 0.0000 -2.0006 0.9686
-7.7221 -0.2758 -2.0007 0.9686
-7.7076 -0.5512 -2.0007 0.9686
-7.6834 -0.8261 -2.0008 0.9686
-7.6055 -1.3722 -2.0010 0.9686
-7.4888 -1.9114 -2.0012 0.9686
-7.4162 -2.1776 -2.0012 0.9686
-7.2426 -2.7013 -2.0014 0.9686
-7.1418 -2.9582 -2.0015 0.9686
-7.0320 -3.2114 -2.0016 0.9686
-6.6493 -3.9452 -2.0019 0.9686
-6.5046 -4.1802 -2.0019 0.9686
-6.3515 -4.4099 -2.0020 0.9686
-6.0213 -4.8522 -2.0022 0.9686
-5.8445 -5.0643 -2.0023 0.9686
-5.2703 -5.6607 -2.0026 0.9685
-5.0651 -5.8455 -2.0026 0.9685
-4.6356 -6.1924 -2.0028 0.9685
-4.4118 -6.3542 -2.0029 0.9685
-3.9476 -6.6532 -2.0030 0.9685
-3.7077 -6.7902 -2.0031 0.9685
-3.4631 -6.9184 -2.0032 0.9685
-2.9610 -7.1484 -2.0033 0.9685
-2.4436 -7.3419 -2.0035 0.9685
-2.1801 -7.4247 -2.0035 0.9685
-1.6450 -7.5617 -2.0037 0.9685
-1.3741 -7.6159 -2.0037 0.9685
-1.1014 -7.6602 -2.0038 0.9685
-0.8273 -7.6949 -2.0038 0.9685
-0.5521 -7.7197 -2.0039 0.9685
-0.2763 -7.7347 -2.0039 0.9685
0.2762 -7.7350 -2.0040 0.9685
2.1808 -7.4272 -2.0042 0.9685
2.7051 -7.2528 -2.0043 0.9685
3.2157 -7.0414 -2.0043 0.9685
3.7098 -6.7941 -2.0043 0.9685
3.9500 -6.6574 -2.0043 0.9685
4.6389 -6.1969 -2.0043 0.9685
4.8571 -6.0273 -2.0042 0.9685
5.0691 -5.8501 -2.0042 0.9685
5.6652 -5.2745 -2.0042 0.9685
6.1963 -4.6385 -2.0041 0.9685
6.5112 -4.1845 -2.0040 0.9685
7.0397 -3.2150 -2.0038 0.9685
7.1498 -2.9616 -2.0037 0.9685
7.3424 -2.4438 -2.0036 0.9685
7.5609 -1.6448 -2.0034 0.9685
7.6145 -1.3738 -2.0034 0.9685
7.6926 -0.8271 -2.0032 0.9685
7.7169 -0.5519 -2.0032 0.9685
-7.0672 0.0000 -2.0007 0.9710
-7.0630 -0.2522 -2.0008 0.9710
-7.0497 -0.5042 -2.0008 0.9710
-6.9073 -1.5026 -2.0011 0.9710
-6.8495 -1.7482 -2.0012 0.9710
-6.7079 -2.2326 -2.0014 0.9710
-6.6242 -2.4707 -2.0015 0.9710
-6.5321 -2.7057 -2.0015 0.9710
-6.3229 -3.1650 -2.0017 0.9710
-6.0815 -3.6083 -2.0019 0.9710
-5.6616 -4.2382 -2.0021 0.9710
-5.1767 -4.8197 -2.0023 0.9710
-5.0016 -5.0016 -2.0024 0.9710
-4.8201 -5.1771 -2.0025 0.9710
-4.6324 -5.3461 -2.0026 0.9710
-4.4388 -5.5082 -2.0026 0.9710
-4.0349 -5.8113 -2.0028 0.9710
-3.8250 -5.9518 -2.0029 0.9710
-3.6103 -6.0847 -2.0029 0.9710
-3.3909 -6.2100 -2.0030 0.9710
-3.1672 -6.3272 -2.0031 0.9710
-2.7079 -6.5375 -2.0032 0.9710
-2.4729 -6.6302 -2.0033 0.9710
-1.7502 -6.8571 -2.0034 0.9710
-1.5044 -6.9154 -2.0035 0.9710
-1.2566 -6.9649 -2.0036 0.9710
-1.0072 -7.0055 -2.0036 0.9710
-0.7566 -7.0372 -2.0036 0.9710
-0.0000 -7.0782 -2.0038 0.9710
0.2526 -7.0738 -2.0038 0.9710
0.5050 -7.0604 -2.0039 0.9710
0.7567 -7.0380 -2.0039 0.9710
1.0074 -7.0066 -2.0039 0.9710
1.2568 -6.9663 -2.0039 0.9710
1.5047 -6.9171 -2.0040 0.9710
2.2356 -6.7168 -2.0040 0.9710
3.3927 -6.2132 -2.0041 0.9710
3.6123 -6.0882 -2.0041 0.9710
3.8273 -5.9554 -2.0041 0.9710
4.0374 -5.8150 -2.0041 0.9710
5.0055 -5.0055 -2.0040 0.9710
5.1809 -4.8236 -2.0040 0.9710
5.5117 -4.4416 -2.0039 0.9710
5.6666 -4.2420 -2.0039 0.9710
5.9546 -3.8268 -2.0038 0.9710
6.0872 -3.6117 -2.0038 0.9710
6.5387 -2.7084 -2.0036 0.9710
6.7149 -2.2349 -2.0035 0.9710
6.7902 -1.9938 -2.0034 0.9710
6.8568 -1.7501 -2.0034 0.9710
6.9147 -1.5042 -2.0033 0.9710
6.9638 -1.2564 -2.0032 0.9710
7.0040 -1.0070 -2.0032 0.9710
7.0708 -0.2525 -2.0030 0.9710
-6.4683 -0.6954 -2.0010 0.9731
-6.4027 -1.1552 -2.0011 0.9731
-6.3576 -1.3830 -2.0012 0.9731
-6.0121 -2.4903 -2.0016 0.9731
-5.9196 -2.7034 -2.0016 0.9731
-5.8196 -2.9131 -2.0017 0.9731
-5.7121 -3.1190 -2.0018 0.9731
-5.4754 -3.5188 -2.0019 0.9731
-5.3466 -3.7122 -2.0020 0.9731
-5.2108 -3.9008 -2.0021 0.9731
-4.6033 -4.6033 -2.0024 0.9731
-4.0853 -5.0696 -2.0026 0.9731
-3.5204 -5.4778 -2.0028 0.9731
-3.3227 -5.6001 -2.0028 0.9731
-2.9149 -5.8233 -2.0030 0.9731
-2.7053 -5.9237 -2.0030 0.9731
-2.4922 -6.0167 -2.0031 0.9731
-2.2759 -6.1020 -2.0031 0.9731
-1.8349 -6.2492 -2.0033 0.9731
-1.3845 -6.3645 -2.0034 0.9731
-0.9270 -6.4474 -2.0035 0.9731
-0.6963 -6.4765 -2.0035 0.9731
-0.2325 -6.5099 -2.0036 0.9731
0.4647 -6.4978 -2.0037 0.9731
1.1567 -6.4112 -2.0038 0.9731
1.6111 -6.3125 -2.0038 0.9731
1.8354 -6.2510 -2.0038 0.9731
2.0574 -6.1815 -2.0038 0.9731
2.4932 -6.0191 -2.0039 0.9731
2.9162 -5.8259 -2.0039 0.9731
3.1223 -5.7181 -2.0039 0.9731
3.3244 -5.6030 -2.0039 0.9731
3.5223 -5.4808 -2.0039 0.9731
3.7157 -5.3516 -2.0039 0.9731
4.4393 -4.7682 -2.0038 0.9731
4.6066 -4.6066 -2.0038 0.9731
4.9234 -4.2662 -2.0038 0.9731
5.3510 -3.7153 -2.0037 0.9731
5.6022 -3.3240 -2.0036 0.9731
5.7172 -3.1218 -2.0036 0.9731
5.9251 -2.7059 -2.0035 0.9731
6.1027 -2.2762 -2.0034 0.9731
6.2492 -1.8349 -2.0033 0.9731
6.3639 -1.3844 -2.0032 0.9731
6.4748 -0.6961 -2.0030 0.9731
6.5076 -0.2324 -2.0029 0.9731
-6.0157 -0.2148 -2.0009 0.9749
-6.0043 -0.4294 -2.0010 0.9749
-5.9854 -0.6435 -2.0010 0.9749
-5.9246 -1.0689 -2.0012 0.9749
-5.7129 -1.9015 -2.0014 0.9749
-5.2855 -2.8861 -2.0018 0.9749
-5.0665 -3.2560 -2.0019 0.9749
-4.8216 -3.6094 -2.0021 0.9749
-4.6899 -3.7793 -2.0021 0.9749
-4.5521 -3.9444 -2.0022 0.9749
-4.2594 -4.2594 -2.0023 0.9749
-4.1048 -4.4089 -2.0024 0.9749
-3.9450 -4.5527 -2.0025 0.9749
-3.7801 -4.6908 -2.0025 0.9749
-3.6104 -4.8229 -2.0026 0.9749
-3.4360 -4.9488 -2.0026 0.9749
-3.0744 -5.1816 -2.0028 0.9749
-2.6971 -5.3881 -2.0029 0.9749
-2.5031 -5.4811 -2.0029 0.9749
-2.1059 -5.6460 -2.0030 0.9749
-1.9030 -5.7177 -2.0031 0.9749
-1.4904 -5.8392 -2.0032 0.9749
-1.2810 -5.8888 -2.0032 0.9749
-1.0701 -5.9309 -2.0033 0.9749
-0.8577 -5.9654 -2.0033 0.9749
-0.2151 -6.0233 -2.0034 0.9749
0.4300 -6.0121 -2.0035 0.9749
1.0702 -5.9319 -2.0036 0.9749
1.2813 -5.8900 -2.0036 0.9749
1.6982 -5.7837 -2.0037 0.9749
1.9036 -5.7194 -2.0037 0.9749
2.3068 -5.5691 -2.0037 0.9749
2.5041 -5.4832 -2.0037 0.9749
3.2589 -5.0710 -2.0037 0.9749
3.4379 -4.9515 -2.0037 0.9749
4.1074 -4.4117 -2.0037 0.9749
4.2622 -4.2623 -2.0037 0.9749
4.6933 -3.7821 -2.0036 0.9749
4.9510 -3.4376 -2.0035 0.9749
5.1834 -3.0755 -2.0035 0.9749
5.7180 -1.9032 -2.0032 0.9749
5.7822 -1.6978 -2.0032 0.9749
5.8389 -1.4903 -2.0031 0.9749
5.9301 -1.0699 -2.0030 0.9749
5.9643 -0.8575 -2.0030 0.9749
6.0213 -0.2151 -2.0028 0.9749
-5.5814 -0.3992 -2.0010 0.9765
-5.5390 -0.7964 -2.0011 0.9765
-5.5072 -0.9936 -2.0012 0.9765
-5.4684 -1.1896 -2.0013 0.9765
-5.3699 -1.5768 -2.0014 0.9765
-5.3104 -1.7675 -2.0015 0.9765
-5.0915 -2.3252 -2.0016 0.9765
-5.0054 -2.5055 -2.0017 0.9765
-4.9130 -2.6827 -2.0018 0.9765
-4.7094 -3.0265 -2.0019 0.9765
-4.5985 -3.1928 -2.0020 0.9765
-4.4818 -3.3550 -2.0020 0.9765
-4.2313 -3.6664 -2.0022 0.9765
-3.8155 -4.0981 -2.0023 0.9765
-3.6669 -4.2318 -2.0024 0.9765
-3.1938 -4.5999 -2.0026 0.9765
-3.0277 -4.7111 -2.0026 0.9765
-2.6840 -4.9154 -2.0028 0.9765
-2.5069 -5.0082 -2.0028 0.9765
-2.1434 -5.1745 -2.0029 0.9765
-1.5781 -5.3744 -2.0031 0.9765
-0.7972 -5.5447 -2.0032 0.9765
-0.5988 -5.5698 -2.0033 0.9765
-0.3996 -5.5877 -2.0033 0.9765
0.2000 -5.5987 -2.0034 0.9765
0.9947 -5.5135 -2.0035 0.9765
1.1909 -5.4745 -2.0035 0.9765
1.5784 -5.3757 -2.0035 0.9765
1.7693 -5.3160 -2.0036 0.9765
2.1441 -5.1763 -2.0036 0.9765
2.5079 -5.0101 -2.0036 0.9765
2.6851 -4.9174 -2.0036 0.9765
3.0291 -4.7133 -2.0036 0.9765
3.1954 -4.6022 -2.0036 0.9765
3.3576 -4.4852 -2.0036 0.9765
3.5155 -4.3625 -2.0036 0.9765
3.8177 -4.1005 -2.0035 0.9765
4.1005 -3.8177 -2.0035 0.9765
4.2341 -3.6688 -2.0035 0.9765
4.3623 -3.5153 -2.0035 0.9765
4.4849 -3.3574 -2.0034 0.9765
4.6018 -3.1951 -2.0034 0.9765
4.8179 -2.8586 -2.0033 0.9765
5.1753 -2.1437 -2.0032 0.9765
5.3148 -1.7689 -2.0031 0.9765
5.3744 -1.5781 -2.0031 0.9765
5.4731 -1.1906 -2.0030 0.9765
5.5119 -0.9945 -2.0029 0.9765
5.5438 -0.7971 -2.0029 0.9765
5.5862 -0.3995 -2.0028 0.9765
5.5968 -0.1999 -2.0027 0.9765
-5.2215 0.0000 -2.0010 0.9779
-5.1920 -0.5582 -2.0011 0.9779
-5.1392 -0.9272 -2.0012 0.9779
-5.1030 -1.1101 -2.0013 0.9779
-5.0603 -1.2916 -2.0014 0.9779
-4.9556 -1.6494 -2.0015 0.9779
-4.8937 -1.8252 -2.0015 0.9779
-4.7513 -2.1698 -2.0017 0.9779
-4.6709 -2.3381 -2.0017 0.9779
-4.1822 -3.1308 -2.0020 0.9779
-4.0679 -3.2781 -2.0021 0.9779
-3.9484 -3.4213 -2.0021 0.9779
-2.9803 -4.2924 -2.0025 0.9779
-2.8252 -4.3962 -2.0026 0.9779
-2.5046 -4.5867 -2.0027 0.9779
-2.3393 -4.6733 -2.0027 0.9779
-2.0001 -4.8285 -2.0028 0.9779
-1.4725 -5.0150 -2.0030 0.9779
-1.1111 -5.1075 -2.0031 0.9779
-0.9281 -5.1440 -2.0031 0.9779
-0.5588 -5.1973 -2.0032 0.9779
-0.3729 -5.2140 -2.0032 0.9779
-0.1866 -5.2241 -2.0032 0.9779
0.7440 -5.1745 -2.0034 0.9779
0.9282 -5.1447 -2.0034 0.9779
1.1112 -5.1084 -2.0034 0.9779
1.2929 -5.0655 -2.0034 0.9779
1.6510 -4.9604 -2.0034 0.9779
1.8270 -4.8983 -2.0035 0.9779
2.1718 -4.7556 -2.0035 0.9779
2.3401 -4.6750 -2.0035 0.9779
2.6677 -4.4962 -2.0035 0.9779
2.8265 -4.3981 -2.0035 0.9779
3.1330 -4.1852 -2.0035 0.9779
3.4236 -3.9510 -2.0034 0.9779
3.5624 -3.8263 -2.0034 0.9779
3.6966 -3.6967 -2.0034 0.9779
4.0705 -3.2802 -2.0033 0.9779
4.1849 -3.1328 -2.0033 0.9779
4.7548 -2.1714 -2.0031 0.9779
4.8292 -2.0003 -2.0031 0.9779
4.8974 -1.8267 -2.0031 0.9779
4.9594 -1.6506 -2.0030 0.9779
5.0150 -1.4726 -2.0030 0.9779
5.0643 -1.2926 -2.0029 0.9779
5.1071 -1.1110 -2.0029 0.9779
5.1434 -0.9280 -2.0029 0.9779
5.1731 -0.7438 -2.0028 0.9779
5.1962 -0.5587 -2.0028 0.9779
5.2226 -0.1865 -2.0027 0.9779
-1.8977 0.0000 -0.7767 0.9918
-1.9524 -0.1396 -0.8011 0.9916
-1.9570 -0.2104 -0.8055 0.9915
-2.1703 -0.3916 -0.9026 0.9905
-4.7782 -1.0394 -2.0013 0.9791
-4.7382 -1.2093 -2.0014 0.9791
-4.6921 -1.3777 -2.0014 0.9791
-4.5183 -1.8716 -2.0016 0.9791
-4.3736 -2.1893 -2.0017 0.9791
-4.2928 -2.3440 -2.0018 0.9791
-4.2065 -2.4958 -2.0018 0.9791
-4.0179 -2.7897 -2.0019 0.9791
-3.8089 -3.0694 -2.0021 0.9791
-3.4592 -3.4592 -2.0022 0.9791
-3.2038 -3.6974 -2.0023 0.9791
-3.0699 -3.8095 -2.0024 0.9791
-2.9321 -3.9168 -2.0024 0.9791
-2.7905 -4.0190 -2.0025 0.9791
-2.4967 -4.2080 -2.0026 0.9791
-2.3450 -4.2946 -2.0026 0.9791
-2.1903 -4.3757 -2.0027 0.9791
-2.0328 -4.4511 -2.0027 0.9791
-1.8727 -4.5210 -2.0028 0.9791
-1.7101 -4.5850 -2.0028 0.9791
-1.5454 -4.6432 -2.0029 0.9791
-1.3788 -4.6955 -2.0029 0.9791
-1.2103 -4.7419 -2.0029 0.9791
-0.8690 -4.8163 -2.0030 0.9791
-0.5232 -4.8662 -2.0031 0.9791
-0.3492 -4.8818 -2.0031 0.9791
-0.0000 -4.8944 -2.0032 0.9791
0.1747 -4.8914 -2.0032 0.9791
0.3492 -4.8821 -2.0032 0.9791
0.8691 -4.8169 -2.0033 0.9791
1.2105 -4.7427 -2.0033 0.9791
1.7106 -4.5862 -2.0033 0.9791
2.0334 -4.4526 -2.0034 0.9791
2.3459 -4.2962 -2.0034 0.9791
2.6464 -4.1179 -2.0034 0.9791
2.7917 -4.0208 -2.0034 0.9791
2.9334 -3.9186 -2.0033 0.9791
3.8111 -3.0712 -2.0032 0.9791
3.9183 -2.9332 -2.0032 0.9791
4.0204 -2.7915 -2.0032 0.9791
4.2092 -2.4975 -2.0031 0.9791
4.6434 -1.5455 -2.0030 0.9791
4.7417 -1.2103 -2.0029 0.9791
4.8157 -0.8689 -2.0028 0.9791
4.8653 -0.5231 -2.0027 0.9791
4.8807 -0.3491 -2.0027 0.9791
-1.5222 0.0000 -0.6634 0.9934
-1.5284 -0.0546 -0.6665 0.9933
-1.5249 -0.1640 -0.6684 0.9933
-1.5151 -0.2179 -0.6671 0.9933
-1.5002 -0.2707 -0.6643 0.9934
-1.5485 -0.3952 -0.6965 0.9931
-4.2432 -1.7576 -2.0016 0.9802
-4.1779 -1.9079 -2.0017 0.9802
-3.6774 -2.7529 -2.0020 0.9802
-3.4718 -3.0084 -2.0021 0.9802
-3.3623 -3.1304 -2.0021 0.9802
-3.2485 -3.2485 -2.0022 0.9802
-3.1306 -3.3625 -2.0022 0.9802
-3.0087 -3.4722 -2.0023 0.9802
-2.8829 -3.5774 -2.0023 0.9802
-2.6205 -3.7742 -2.0024 0.9802
-2.2022 -4.0329 -2.0026 0.9801
-1.9089 -4.1800 -2.0027 0.9801
-1.7586 -4.2455 -2.0027 0.9801
-1.6059 -4.3056 -2.0027 0.9801
-1.4513 -4.3603 -2.0028 0.9801
-1.2947 -4.4094 -2.0028 0.9801
-0.8160 -4.5228 -2.0029 0.9801
-0.6541 -4.5491 -2.0030 0.9801
-0.3279 -4.5843 -2.0030 0.9801
0.6541 -4.5496 -2.0032 0.9801
0.8161 -4.5234 -2.0032 0.9801
0.9770 -4.4914 -2.0032 0.9801
1.2950 -4.4103 -2.0032 0.9801
1.6063 -4.3067 -2.0033 0.9801
1.7590 -4.2467 -2.0033 0.9801
1.9095 -4.1812 -2.0033 0.9801
2.3455 -3.9531 -2.0033 0.9801
2.6215 -3.7757 -2.0033 0.9801
2.7546 -3.6797 -2.0033 0.9801
3.0101 -3.4738 -2.0032 0.9801
3.3641 -3.1321 -2.0032 0.9801
3.4737 -3.0100 -2.0032 0.9801
3.8665 -2.4849 -2.0031 0.9801
3.9527 -2.3453 -2.0031 0.9801
4.1098 -2.0573 -2.0030 0.9801
4.1806 -1.9092 -2.0030 0.9801
4.2460 -1.7588 -2.0029 0.9801
4.3605 -1.4513 -2.0029 0.9801
4.4528 -1.1365 -2.0028 0.9801
4.5223 -0.8159 -2.0027 0.9801
4.5485 -0.6540 -2.0027 0.9801
4.5688 -0.4912 -2.0026 0.9801
4.5833 -0.3278 -2.0026 0.9801
4.5920 -0.1640 -2.0026 0.9802
-1.3273 -0.1908 -0.6207 0.9941
-1.3160 -0.2374 -0.6190 0.9941
-1.3013 -0.2831 -0.6164 0.9941
-1.3117 -0.3348 -0.6266 0.9941
-1.3151 -0.6006 -0.6692 0.9936
-3.7956 -2.0726 -2.0018 0.9811
-3.7193 -2.2068 -2.0018 0.9811
-3.6383 -2.3382 -2.0019 0.9811
-3.5526 -2.4666 -2.0019 0.9811
-3.4624 -2.5919 -2.0020 0.9811
-3.3677 -2.7139 -2.0020 0.9811
-3.2688 -2.8324 -2.0021 0.9811
-3.0585 -3.0585 -2.0022 0.9811
-2.9475 -3.1658 -2.0022 0.9811
-2.7143 -3.3682 -2.0023 0.9811
-2.3388 -3.6393 -2.0024 0.9811
-2.2075 -3.7205 -2.0025 0.9811
-2.0733 -3.7970 -2.0025 0.9811
-1.7972 -3.9354 -2.0026 0.9811
-1.6557 -3.9971 -2.0027 0.9811
-1.5120 -4.0538 -2.0027 0.9811
-0.7683 -4.2582 -2.0029 0.9811
-0.6158 -4.2829 -2.0029 0.9811
-0.4625 -4.3022 -2.0029 0.9811
-0.1545 -4.3244 -2.0030 0.9811
0.1545 -4.3245 -2.0030 0.9811
0.3087 -4.3163 -2.0031 0.9811
0.7683 -4.2587 -2.0031 0.9811
1.5123 -4.0547 -2.0032 0.9811
1.6561 -3.9982 -2.0032 0.9811
1.9371 -3.8699 -2.0032 0.9811
2.0740 -3.7983 -2.0032 0.9811
2.2082 -3.7218 -2.0032 0.9811
2.3397 -3.6406 -2.0032 0.9811
2.4681 -3.5548 -2.0032 0.9811
2.5934 -3.4644 -2.0032 0.9811
2.7154 -3.3696 -2.0032 0.9811
3.0600 -3.0600 -2.0031 0.9811
3.1672 -2.9488 -2.0031 0.9811
3.2704 -2.8339 -2.0031 0.9811
3.3695 -2.7153 -2.0031 0.9811
3.4642 -2.5933 -2.0031 0.9811
3.7978 -2.0738 -2.0030 0.9811
3.9360 -1.7975 -2.0029 0.9811
4.1054 -1.3664 -2.0028 0.9811
4.1515 -1.2190 -2.0028 0.9811
4.1922 -1.0700 -2.0027 0.9811
4.2277 -0.9197 -2.0027 0.9811
4.2578 -0.7682 -2.0027 0.9811
4.3015 -0.4625 -2.0026 0.9811
4.3152 -0.3086 -2.0026 0.9811
4.3234 -0.1544 -2.0025 0.9811
-1.1965 -0.0427 -0.5873 0.9947
-1.1954 -0.0855 -0.5878 0.9947
-1.1921 -0.1282 -0.5881 0.9947
-1.1695 -0.2544 -0.5871 0.9947
-1.1578 -0.2955 -0.5861 0.9947
-1.1544 -0.4306 -0.6043 0.9945
-1.1484 -0.4757 -0.6097 0.9945
-1.1400 -0.5206 -0.6148 0.9944
-1.1292 -0.5652 -0.6194 0.9944
-1.1113 -0.6068 -0.6211 0.9944
-3.5097 -2.0824 -2.0018 0.9820
-3.4332 -2.2064 -2.0019 0.9820
-3.3524 -2.3276 -2.0019 0.9820
-3.1779 -2.5609 -2.0020 0.9820
-3.0846 -2.6728 -2.0021 0.9820
-2.9873 -2.7812 -2.0021 0.9820
-2.8862 -2.8862 -2.0022 0.9820
-2.7814 -2.9874 -2.0022 0.9820
-2.6730 -3.0848 -2.0022 0.9820
-2.2070 -3.4342 -2.0024 0.9820
-1.9565 -3.5830 -2.0025 0.9820
-1.6959 -3.7136 -2.0026 0.9820
-1.4268 -3.8253 -2.0026 0.9820
-1.0097 -3.9561 -2.0027 0.9820
-0.8679 -3.9896 -2.0028 0.9820
-0.7250 -4.0181 -2.0028 0.9820
-0.4365 -4.0597 -2.0029 0.9820
-0.2913 -4.0728 -2.0029 0.9820
-0.1458 -4.0806 -2.0029 0.9820
0.0000 -4.0833 -2.0029 0.9820
0.1457 -4.0807 -2.0030 0.9820
1.0099 -3.9567 -2.0031 0.9820
1.1505 -3.9181 -2.0031 0.9820
1.2896 -3.8746 -2.0031 0.9820
1.6964 -3.7146 -2.0031 0.9820
1.8279 -3.6517 -2.0031 0.9820
2.3289 -3.3544 -2.0031 0.9820
2.5623 -3.1796 -2.0031 0.9820
2.9887 -2.7825 -2.0030 0.9820
3.4351 -2.2076 -2.0029 0.9820
3.5116 -2.0836 -2.0029 0.9820
3.6512 -1.8277 -2.0029 0.9820
3.7722 -1.5625 -2.0028 0.9820
3.8255 -1.4269 -2.0028 0.9820
3.9894 -0.8678 -2.0027 0.9820
4.0178 -0.7249 -2.0026 0.9820
4.0410 -0.5810 -2.0026 0.9820
-1.1058 -0.0000 -0.5737 0.9950
-1.1055 -0.0791 -0.5750 0.9950
-1.0814 -0.2353 -0.5741 0.9950
-1.0704 -0.2732 -0.5731 0.9950
-1.0617 -0.3534 -0.5805 0.9950
-1.0576 -0.3945 -0.5856 0.9949
-1.0430 -0.4763 -0.5948 0.9948
-1.0118 -0.5525 -0.5981 0.9948
-3.1698 -2.2008 -2.0019 0.9828
-2.9166 -2.5272 -2.0020 0.9828
-2.8246 -2.6297 -2.0021 0.9828
-2.6299 -2.8247 -2.0022 0.9828
-2.5274 -2.9168 -2.0022 0.9828
-1.8499 -3.3878 -2.0025 0.9828
-1.7278 -3.4517 -2.0025 0.9828
-1.6035 -3.5113 -2.0025 0.9828
-1.4772 -3.5663 -2.0026 0.9828
-1.2191 -3.6627 -2.0026 0.9828
-1.0876 -3.7040 -2.0027 0.9828
-0.9547 -3.7405 -2.0027 0.9828
-0.6855 -3.7992 -2.0028 0.9828
-0.5494 -3.8213 -2.0028 0.9828
0.5495 -3.8216 -2.0030 0.9828
0.6855 -3.7996 -2.0030 0.9828
0.8207 -3.7727 -2.0030 0.9828
1.0878 -3.7046 -2.0030 0.9828
1.3493 -3.6176 -2.0030 0.9828
1.7283 -3.4526 -2.0030 0.9828
1.8504 -3.3888 -2.0030 0.9828
1.9702 -3.3205 -2.0030 0.9828
2.2020 -3.1715 -2.0030 0.9828
2.3138 -3.0909 -2.0030 0.9828
2.4227 -3.0064 -2.0030 0.9828
2.9179 -2.5284 -2.0030 0.9828
3.0062 -2.4226 -2.0029 0.9828
3.0908 -2.3137 -2.0029 0.9828
3.1713 -2.2019 -2.0029 0.9828
3.2479 -2.0873 -2.0029 0.9828
3.3203 -1.9700 -2.0029 0.9828
3.3884 -1.8502 -2.0028 0.9828
3.5667 -1.4774 -2.0028 0.9828
3.6629 -1.2191 -2.0027 0.9828
3.7404 -0.9547 -2.0026 0.9828
3.7988 -0.6854 -2.0026 0.9828
3.8379 -0.4126 -2.0025 0.9828
-1.0276 -0.0367 -0.5632 0.9953
-1.0190 -0.1465 -0.5638 0.9953
-0.9741 -0.3633 -0.5694 0.9953
-0.9580 -0.4375 -0.5768 0.9952
-0.9084 -0.5390 -0.5785 0.9952
-0.8882 -0.5708 -0.5782 0.9952
-2.8461 -2.2935 -2.0020 0.9835
-2.7625 -2.3937 -2.0020 0.9835
-2.5848 -2.5848 -2.0021 0.9835
-2.2938 -2.8465 -2.0022 0.9835
-2.1908 -2.9266 -2.0023 0.9835
-1.9765 -3.0755 -2.0023 0.9835
-1.8655 -3.1442 -2.0024 0.9835
-1.7521 -3.2088 -2.0024 0.9835
-1.1547 -3.4692 -2.0026 0.9835
-1.0301 -3.5083 -2.0026 0.9835
-0.9043 -3.5429 -2.0026 0.9835
-0.3909 -3.6357 -2.0028 0.9835
-0.1305 -3.6544 -2.0028 0.9835
0.6493 -3.5988 -2.0029 0.9835
0.7773 -3.5734 -2.0029 0.9835
0.9044 -3.5434 -2.0029 0.9835
1.1549 -3.4698 -2.0029 0.9835
1.2780 -3.4264 -2.0030 0.9835
1.3995 -3.3786 -2.0030 0.9835
1.7526 -3.2097 -2.0030 0.9835
2.6765 -2.4919 -2.0029 0.9835
2.7637 -2.3948 -2.0029 0.9835
2.8474 -2.2946 -2.0029 0.9835
3.1448 -1.8659 -2.0028 0.9835
3.2094 -1.7525 -2.0028 0.9835
3.2699 -1.6368 -2.0028 0.9835
3.3262 -1.5190 -2.0027 0.9835
3.3782 -1.3993 -2.0027 0.9835
3.5083 -1.0301 -2.0026 0.9835
3.5981 -0.6492 -2.0025 0.9835
3.6190 -0.5203 -2.0025 0.9835
-0.9570 0.0000 -0.5525 0.9956
-0.9538 -0.1025 -0.5538 0.9956
-0.9492 -0.1365 -0.5536 0.9956
-0.9353 -0.2035 -0.5526 0.9956
-0.9058 -0.3015 -0.5511 0.9956
-0.9011 -0.3361 -0.5553 0.9956
-0.8941 -0.3704 -0.5587 0.9955
-0.8687 -0.4349 -0.5609 0.9955
-0.8364 -0.4963 -0.5615 0.9955
-0.8178 -0.5256 -0.5613 0.9955
-0.7846 -0.5873 -0.5658 0.9955
-0.7671 -0.6182 -0.5688 0.9955
-2.6206 -2.2708 -2.0020 0.9841
-2.5380 -2.3629 -2.0021 0.9841
-2.4521 -2.4521 -2.0021 0.9841
-2.3630 -2.5381 -2.0021 0.9841
-2.0783 -2.7763 -2.0022 0.9841
-1.5525 -3.1014 -2.0024 0.9841
-1.4408 -3.1549 -2.0025 0.9841
-1.2121 -3.2498 -2.0025 0.9841
-1.0953 -3.2910 -2.0025 0.9841
-0.7373 -3.3894 -2.0026 0.9841
-0.6159 -3.4136 -2.0027 0.9841
-0.3708 -3.4489 -2.0027 0.9841
-0.1238 -3.4666 -2.0027 0.9841
-0.0000 -3.4689 -2.0028 0.9841
0.1238 -3.4667 -2.0028 0.9841
0.2475 -3.4601 -2.0028 0.9841
0.4937 -3.4337 -2.0028 0.9841
0.7374 -3.3898 -2.0029 0.9841
0.8579 -3.3613 -2.0029 0.9841
1.2123 -3.2504 -2.0029 0.9841
1.4411 -3.1556 -2.0029 0.9841
1.5528 -3.1022 -2.0029 0.9841
1.6626 -3.0448 -2.0029 0.9841
1.7702 -2.9835 -2.0029 0.9841
1.8756 -2.9184 -2.0029 0.9841
2.1767 -2.7012 -2.0029 0.9841
2.3639 -2.5390 -2.0029 0.9841
2.5390 -2.3639 -2.0029 0.9841
2.6217 -2.2717 -2.0028 0.9841
2.7011 -2.1767 -2.0028 0.9841
2.9182 -1.8754 -2.0028 0.9841
2.9833 -1.7701 -2.0028 0.9841
3.0445 -1.6624 -2.0027 0.9841
3.1019 -1.5527 -2.0027 0.9841
1.8508 -0.8452 -1.1747 0.9906
1.8620 -0.7713 -1.1636 0.9907
1.9351 -0.5682 -1.1644 0.9907
2.0153 -0.3636 -1.1823 0.9906
2.0300 -0.2919 -1.1841 0.9906
2.0359 -0.1456 -1.1784 0.9906
2.0320 -0.0726 -1.1739 0.9907
