ply
format ascii 1.0
element vertex 751
property float32 x
property float32 y
property float32 z
property float32 I
end_header
-3.2547 5.0644 -0.7151 0.9760
-3.4411 4.9562 -0.7167 0.9760
-3.2499 5.0570 -0.8517 0.9760
-7.1771 6.2190 -1.3456 0.9624
-3.4416 4.9569 -0.9941 0.9758
-7.1105 5.7300 -1.5044 0.9637
-8.2772 5.3194 -1.6209 0.9609
8.7839 4.3969 -1.8463 0.9608
8.0667 5.6008 -1.8459 0.9608
7.8612 5.8849 -1.8458 0.9608
7.4206 6.4300 -1.8456 0.9608
7.1860 6.6904 -1.8455 0.9608
6.6898 7.1854 -1.8453 0.9608
6.4289 7.4193 -1.8452 0.9608
6.1597 7.6438 -1.8452 0.9608
5.5984 8.0632 -1.8451 0.9608
5.3069 8.2577 -1.8450 0.9608
3.7561 9.0679 -1.8448 0.9608
3.0996 9.3127 -1.8448 0.9608
2.7652 9.4174 -1.8448 0.9608
1.7427 9.6592 -1.8449 0.9608
1.0492 9.7592 -1.8449 0.9608
0.7002 9.7906 -1.8449 0.9608
0.3504 9.8096 -1.8450 0.9608
-0.0000 9.8161 -1.8450 0.9608
-0.3504 9.8101 -1.8451 0.9608
-1.0494 9.7608 -1.8452 0.9608
-2.4282 9.5138 -1.8455 0.9608
-4.7075 8.6212 -1.8463 0.9608
-6.1657 7.6512 -1.8470 0.9608
-4.4164 5.0968 -1.2676 0.9729
-4.5786 4.9178 -1.2630 0.9730
-7.0835 5.7083 -1.7099 0.9637
-7.2834 5.4523 -1.7101 0.9636
-7.6723 5.3270 -1.7556 0.9627
-8.1532 5.2397 -1.8217 0.9613
9.4641 0.0000 -2.0005 0.9620
9.4573 0.3378 -2.0004 0.9620
9.4385 0.6751 -2.0002 0.9621
9.4076 1.0114 -2.0000 0.9621
8.2075 3.7483 -1.9072 0.9638
7.8123 3.9106 -1.8467 0.9649
7.5126 4.4574 -1.8465 0.9649
7.3483 4.7225 -1.8464 0.9649
6.8003 5.4801 -1.8461 0.9649
6.3915 5.9507 -1.8459 0.9649
6.1748 6.1748 -1.8459 0.9649
5.9502 6.3910 -1.8458 0.9649
4.9795 7.1719 -1.8456 0.9649
4.4550 7.5085 -1.8455 0.9649
4.1841 7.6626 -1.8454 0.9649
3.9079 7.8069 -1.8454 0.9649
3.3409 8.0657 -1.8454 0.9649
2.1590 8.4589 -1.8454 0.9649
1.2425 8.6415 -1.8454 0.9649
0.6228 8.7084 -1.8455 0.9649
-0.0000 8.7310 -1.8456 0.9649
-0.3116 8.7257 -1.8456 0.9649
-0.6229 8.7092 -1.8457 0.9649
-0.9334 8.6817 -1.8457 0.9649
-1.2427 8.6432 -1.8458 0.9649
-1.8563 8.5331 -1.8459 0.9649
-2.7581 8.2870 -1.8462 0.9649
-3.0523 8.1836 -1.8463 0.9649
-3.6287 7.9459 -1.8465 0.9649
-3.9103 7.8117 -1.8466 0.9649
-4.1868 7.6676 -1.8467 0.9649
-3.2508 5.0583 -1.2710 0.9757
-3.4420 4.9574 -1.2757 0.9756
-3.7547 5.0157 -1.3244 0.9747
-4.4053 5.0841 -1.4220 0.9729
-6.6070 5.7250 -1.8479 0.9649
-7.3568 4.7279 -1.8485 0.9649
-7.5215 4.4627 -1.8487 0.9649
-7.6766 4.1918 -1.8488 0.9649
-8.7399 3.6202 -1.9997 0.9621
-8.9855 2.9907 -2.0018 0.9620
-9.1775 2.3424 -2.0021 0.9620
-9.4515 0.6760 -2.0030 0.9620
8.5126 0.0000 -2.0007 0.9656
8.5065 0.3038 -2.0005 0.9656
8.4897 0.6072 -2.0004 0.9656
8.4620 0.9098 -2.0002 0.9656
8.4236 1.2111 -2.0001 0.9656
8.3744 1.5109 -2.0000 0.9656
8.2442 2.1042 -1.9997 0.9656
8.1633 2.3970 -1.9996 0.9656
8.0721 2.6867 -1.9994 0.9656
7.9706 2.9729 -1.9993 0.9656
7.7261 3.5284 -1.9962 0.9657
7.5794 3.7940 -1.9920 0.9658
7.1661 3.9130 -1.9189 0.9670
6.7580 4.0097 -1.8468 0.9682
6.6102 4.2481 -1.8467 0.9682
6.1174 4.9298 -1.8465 0.9682
5.7497 5.3532 -1.8463 0.9682
5.3528 5.7493 -1.8462 0.9682
4.7071 6.2880 -1.8460 0.9682
4.4796 6.4518 -1.8460 0.9682
4.2464 6.6075 -1.8459 0.9682
2.4802 7.4518 -1.8458 0.9682
1.9423 7.6098 -1.8458 0.9682
1.6694 7.6743 -1.8458 0.9682
1.3945 7.7290 -1.8458 0.9682
1.1177 7.7740 -1.8458 0.9682
0.2803 7.8493 -1.8459 0.9682
-0.2804 7.8496 -1.8460 0.9682
-1.1179 7.7753 -1.8462 0.9682
-1.3948 7.7307 -1.8462 0.9682
-2.2134 7.5382 -1.8464 0.9682
-3.2643 7.1478 -1.8468 0.9682
-3.2510 5.0586 -1.4132 0.9756
-3.4422 4.9577 -1.4185 0.9755
-4.9325 6.1209 -1.8475 0.9682
-4.5503 4.8874 -1.5694 0.9729
-6.1233 4.9345 -1.8482 0.9682
-6.2960 4.7131 -1.8484 0.9682
-7.4485 4.0672 -1.9945 0.9657
-7.6049 3.8068 -1.9988 0.9657
-7.7460 3.5375 -2.0013 0.9656
-7.8679 3.2590 -2.0015 0.9656
-8.1730 2.3999 -2.0019 0.9656
-8.3247 1.8109 -2.0022 0.9656
-8.4339 1.2126 -2.0025 0.9656
-8.4725 0.9109 -2.0027 0.9656
7.7067 0.5512 -2.0005 0.9686
7.6817 0.8259 -2.0004 0.9686
7.6468 1.0995 -2.0003 0.9686
7.5480 1.6420 -2.0000 0.9686
7.4841 1.9102 -1.9999 0.9686
7.4108 2.1760 -1.9998 0.9686
7.3279 2.4390 -1.9997 0.9686
7.2358 2.6988 -1.9996 0.9686
6.7658 3.6944 -1.9959 0.9687
6.6175 3.9264 -1.9923 0.9687
5.7102 4.2746 -1.8468 0.9710
5.3903 4.6707 -1.8467 0.9710
5.2200 4.8599 -1.8466 0.9710
4.0669 5.8575 -1.8463 0.9710
3.6386 6.1325 -1.8463 0.9710
3.1917 6.3762 -1.8462 0.9710
2.2517 6.7654 -1.8462 0.9710
2.0088 6.8415 -1.8462 0.9710
1.7634 6.9088 -1.8462 0.9710
1.5157 6.9674 -1.8462 0.9710
1.2660 7.0171 -1.8462 0.9710
0.7622 7.0897 -1.8462 0.9710
-0.0000 7.1309 -1.8463 0.9710
-0.2545 7.1265 -1.8464 0.9710
-1.7639 6.9107 -1.8467 0.9710
-2.2525 6.7678 -1.8468 0.9710
-2.7298 6.5904 -1.8470 0.9710
-2.9635 6.4891 -1.8470 0.9710
-3.1933 6.3795 -1.8471 0.9710
-3.4192 6.2617 -1.8472 0.9710
-3.2512 5.0589 -1.5570 0.9755
-3.4424 4.9580 -1.5628 0.9754
-3.7559 5.0173 -1.6228 0.9744
-4.3728 5.0464 -1.7289 0.9728
-4.5361 4.8721 -1.7236 0.9729
-5.0470 5.0470 -1.8480 0.9709
-5.3949 4.6747 -1.8483 0.9709
-5.7814 4.3279 -1.8699 0.9706
-6.1614 4.2779 -1.9421 0.9695
-6.6371 3.9380 -1.9982 0.9686
-6.9118 3.4598 -2.0013 0.9686
-7.0313 3.2111 -2.0014 0.9686
-7.2435 2.7017 -2.0017 0.9686
-7.3358 2.4416 -2.0018 0.9686
-7.4188 2.1784 -2.0019 0.9686
-7.4923 1.9123 -2.0021 0.9686
-7.6106 1.3731 -2.0024 0.9686
-7.6553 1.1007 -2.0025 0.9685
-7.6903 0.8268 -2.0026 0.9685
-7.7307 0.2761 -2.0029 0.9685
7.0679 0.0000 -2.0009 0.9710
7.0490 0.5042 -2.0006 0.9710
7.0261 0.7554 -2.0005 0.9711
6.9943 1.0056 -2.0004 0.9711
6.9040 1.5019 -2.0002 0.9711
6.7785 1.9904 -2.0000 0.9711
6.6186 2.4686 -1.9998 0.9711
6.4250 2.9342 -1.9996 0.9711
6.3159 3.1615 -1.9995 0.9711
6.0735 3.6036 -1.9992 0.9711
5.9312 3.8118 -1.9959 0.9711
5.7821 4.0146 -1.9927 0.9712
5.5127 4.1268 -1.9495 0.9718
5.1842 4.1777 -1.8848 0.9727
4.9306 4.2725 -1.8469 0.9732
4.4453 4.7746 -1.8468 0.9732
4.2719 4.9301 -1.8467 0.9732
4.0931 5.0793 -1.8467 0.9732
3.1260 5.7248 -1.8465 0.9732
2.9196 5.8327 -1.8465 0.9732
2.0598 6.1887 -1.8465 0.9732
1.3865 6.3734 -1.8465 0.9732
0.9283 6.4562 -1.8465 0.9732
0.4653 6.5061 -1.8465 0.9732
0.2328 6.5187 -1.8466 0.9732
-0.2328 6.5189 -1.8466 0.9732
-0.4654 6.5066 -1.8467 0.9732
-1.6134 6.3215 -1.8469 0.9732
-1.8381 6.2601 -1.8470 0.9732
-2.4970 6.0284 -1.8472 0.9732
-2.9210 5.8354 -1.8474 0.9732
-3.3301 5.6126 -1.8475 0.9732
-3.2514 5.0593 -1.7025 0.9753
-3.7585 5.0208 -1.7748 0.9743
-4.2748 4.9334 -1.8480 0.9732
-4.4484 4.7779 -1.8481 0.9732
-4.7784 4.4489 -1.8483 0.9732
-5.3872 4.3413 -1.9586 0.9716
-5.6406 4.2225 -1.9947 0.9711
-5.9461 3.8213 -2.0009 0.9710
-6.0791 3.6069 -2.0011 0.9710
-6.2043 3.3878 -2.0012 0.9710
-6.4310 2.9370 -2.0014 0.9710
-6.6250 2.4710 -2.0017 0.9710
-6.7094 2.2331 -2.0018 0.9710
-6.8524 1.7490 -2.0021 0.9710
-6.9109 1.5034 -2.0022 0.9710
-6.9606 1.2558 -2.0023 0.9710
-7.0563 0.5047 -2.0027 0.9710
-7.0702 0.2525 -2.0028 0.9710
6.5055 0.0000 -2.0009 0.9731
6.4379 0.9256 -2.0005 0.9731
6.4004 1.1548 -2.0004 0.9731
6.1697 2.0535 -2.0000 0.9732
6.0922 2.2723 -1.9999 0.9732
5.8137 2.9101 -1.9997 0.9732
5.4686 3.5145 -1.9994 0.9732
5.3386 3.7067 -1.9990 0.9732
5.1955 3.8893 -1.9962 0.9732
5.0464 4.0667 -1.9934 0.9732
4.5536 4.2396 -1.9137 0.9743
4.2763 4.2763 -1.8601 0.9750
3.9324 4.5382 -1.8470 0.9752
3.7678 4.6755 -1.8469 0.9752
3.4245 4.9322 -1.8469 0.9752
3.2462 5.0512 -1.8468 0.9752
2.6876 5.3691 -1.8468 0.9752
2.2977 5.5471 -1.8467 0.9752
2.0982 5.6255 -1.8467 0.9752
1.4848 5.8176 -1.8467 0.9752
1.2763 5.8669 -1.8467 0.9752
0.6418 5.9698 -1.8468 0.9752
0.4283 5.9890 -1.8468 0.9752
0.2143 6.0006 -1.8468 0.9752
0.0000 6.0045 -1.8468 0.9752
-0.8546 5.9439 -1.8470 0.9752
-1.0662 5.9097 -1.8470 0.9752
-1.4852 5.8189 -1.8472 0.9752
-1.8966 5.6985 -1.8473 0.9752
-2.0989 5.6274 -1.8473 0.9752
-2.8788 5.2722 -1.8476 0.9752
-3.0653 5.1663 -1.8477 0.9752
-3.2479 5.0538 -1.8478 0.9752
-3.4263 4.9349 -1.8479 0.9752
-3.6005 4.8097 -1.8479 0.9752
-3.9348 4.5410 -1.8481 0.9752
-4.7131 4.3881 -1.9807 0.9734
-5.4730 3.5173 -2.0010 0.9731
-5.7106 3.1182 -2.0012 0.9731
-5.8186 2.9126 -2.0014 0.9731
-6.0976 2.2743 -2.0017 0.9731
-6.3069 1.6098 -2.0021 0.9731
-6.3607 1.3837 -2.0022 0.9731
-6.4064 1.1559 -2.0023 0.9731
-6.4733 0.6959 -2.0025 0.9731
-6.4943 0.4645 -2.0026 0.9731
-6.5071 0.2324 -2.0027 0.9731
5.9844 0.6434 -2.0007 0.9749
5.9227 1.0686 -2.0005 0.9750
5.6376 2.1027 -2.0001 0.9750
5.4728 2.4993 -1.9999 0.9750
5.3799 2.6930 -1.9998 0.9750
4.6830 3.7738 -1.9992 0.9750
4.5396 3.9336 -1.9967 0.9750
4.2374 4.2374 -1.9920 0.9751
3.9919 4.2876 -1.9473 0.9756
3.7436 4.3203 -1.9002 0.9762
3.3300 4.4484 -1.8471 0.9768
2.8353 4.7787 -1.8470 0.9769
2.6629 4.8768 -1.8470 0.9769
2.1263 5.1334 -1.8469 0.9769
1.5654 5.3312 -1.8469 0.9769
0.1983 5.5530 -1.8470 0.9769
-0.1983 5.5532 -1.8471 0.9768
-0.5940 5.5251 -1.8472 0.9768
-0.7908 5.5005 -1.8472 0.9768
-1.1813 5.4304 -1.8473 0.9768
-1.5658 5.3325 -1.8474 0.9768
-1.7551 5.2734 -1.8474 0.9768
-2.4881 4.9706 -1.8477 0.9768
-2.6640 4.8788 -1.8478 0.9768
-2.8366 4.7808 -1.8478 0.9768
-3.3567 4.4841 -1.8619 0.9767
-4.0863 4.3890 -1.9933 0.9750
-4.2454 4.2454 -1.9957 0.9750
-4.3997 4.0963 -1.9982 0.9750
-4.8188 3.6073 -2.0009 0.9749
-5.1776 3.0720 -2.0012 0.9749
-5.2842 2.8854 -2.0013 0.9749
-5.3841 2.6951 -2.0014 0.9749
-5.5632 2.3044 -2.0016 0.9749
-5.6422 2.1045 -2.0017 0.9749
-5.7141 1.9018 -2.0018 0.9749
-5.8855 1.2803 -2.0021 0.9749
-5.9278 1.0695 -2.0023 0.9749
-5.9625 0.8573 -2.0024 0.9749
-6.0091 0.4298 -2.0026 0.9749
-6.0209 0.2151 -2.0027 0.9749
5.5957 0.0000 -2.0011 0.9765
5.5919 0.1997 -2.0010 0.9765
5.5378 0.7962 -2.0007 0.9765
5.5056 0.9933 -2.0006 0.9765
5.4202 1.3835 -2.0004 0.9765
5.2406 1.9547 -2.0002 0.9765
5.1673 2.1404 -2.0001 0.9765
5.0875 2.3234 -2.0000 0.9765
4.8095 2.8536 -1.9998 0.9765
4.7044 3.0233 -1.9998 0.9765
4.3538 3.5086 -1.9996 0.9765
4.0922 3.8100 -1.9995 0.9765
3.6504 4.2128 -1.9934 0.9766
3.4850 4.3246 -1.9861 0.9767
3.2562 4.3497 -1.9430 0.9772
3.0365 4.3734 -1.9040 0.9776
2.6358 4.4424 -1.8472 0.9783
2.3121 4.6190 -1.8472 0.9783
2.1458 4.6985 -1.8472 0.9783
1.9767 4.7721 -1.8471 0.9783
1.8051 4.8396 -1.8471 0.9783
1.6312 4.9009 -1.8471 0.9783
1.4552 4.9560 -1.8471 0.9783
1.2774 5.0048 -1.8471 0.9783
0.9171 5.0832 -1.8471 0.9783
0.7351 5.1128 -1.8472 0.9783
0.1844 5.1622 -1.8472 0.9783
0.0000 5.1656 -1.8472 0.9783
-0.1844 5.1624 -1.8473 0.9783
-0.3685 5.1526 -1.8473 0.9783
-0.5522 5.1363 -1.8473 0.9783
-0.7352 5.1134 -1.8474 0.9783
-1.2777 5.0058 -1.8475 0.9783
-1.4556 4.9572 -1.8476 0.9783
-1.6316 4.9022 -1.8476 0.9783
-1.9773 4.7736 -1.8477 0.9783
-2.3129 4.6207 -1.8478 0.9783
-2.6725 4.5043 -1.8729 0.9780
-3.1078 4.4761 -1.9487 0.9771
-3.3391 4.4605 -1.9925 0.9766
-3.4998 4.3430 -1.9946 0.9766
-3.8086 4.0908 -1.9987 0.9765
-4.2283 3.6639 -2.0008 0.9765
-4.4794 3.3532 -2.0010 0.9765
-4.5964 3.1913 -2.0011 0.9765
-4.8128 2.8556 -2.0012 0.9765
-4.9119 2.6821 -2.0013 0.9765
-5.0912 2.3251 -2.0015 0.9765
-5.1712 2.1420 -2.0016 0.9765
-5.2446 1.9562 -2.0017 0.9765
-5.3713 1.5772 -2.0019 0.9765
-5.4245 1.3845 -2.0020 0.9765
-5.4707 1.1901 -2.0021 0.9765
-5.5100 0.9941 -2.0022 0.9765
-5.5422 0.7969 -2.0023 0.9765
-5.5674 0.5986 -2.0024 0.9765
-5.5965 0.1999 -2.0026 0.9765
5.2184 0.1864 -2.0010 0.9779
5.1913 0.5581 -2.0009 0.9779
5.1679 0.7430 -2.0008 0.9779
5.1378 0.9270 -2.0007 0.9779
5.1013 1.1097 -2.0006 0.9779
4.8907 1.8241 -2.0003 0.9779
4.7477 2.1682 -2.0002 0.9779
4.6672 2.3362 -2.0001 0.9779
4.5807 2.5013 -2.0000 0.9779
4.4883 2.6631 -2.0000 0.9779
4.3903 2.8215 -1.9999 0.9779
4.2867 2.9763 -1.9999 0.9779
3.9436 3.4172 -1.9997 0.9779
3.5555 3.8189 -1.9996 0.9779
3.4150 3.9412 -1.9985 0.9779
3.2692 4.0569 -1.9967 0.9779
3.1197 4.1674 -1.9949 0.9779
2.9666 4.2727 -1.9933 0.9780
2.8100 4.3725 -1.9918 0.9780
2.0296 4.4442 -1.8723 0.9793
1.8480 4.4615 -1.8506 0.9795
1.3581 4.6253 -1.8473 0.9796
1.0247 4.7104 -1.8473 0.9796
0.8559 4.7440 -1.8473 0.9796
0.5153 4.7930 -1.8473 0.9796
-0.1721 4.8178 -1.8474 0.9796
-0.5153 4.7934 -1.8475 0.9796
-1.0248 4.7111 -1.8476 0.9796
-1.3584 4.6262 -1.8477 0.9796
-1.5227 4.5749 -1.8477 0.9796
-1.6897 4.5303 -1.8529 0.9795
-1.8731 4.5220 -1.8757 0.9793
-2.0619 4.5150 -1.9021 0.9790
-2.2560 4.5070 -1.9315 0.9786
-2.6534 4.4721 -1.9927 0.9780
-2.9705 4.2783 -1.9960 0.9779
-3.1241 4.1733 -1.9977 0.9779
-3.2741 4.0629 -1.9996 0.9779
-4.0656 3.2763 -2.0009 0.9779
-4.2893 2.9781 -2.0011 0.9779
-4.5837 2.5029 -2.0014 0.9779
-4.6704 2.3378 -2.0015 0.9779
-4.7510 2.1697 -2.0016 0.9779
-4.8257 1.9989 -2.0016 0.9779
-5.0620 1.2920 -2.0020 0.9779
-5.1051 1.1106 -2.0021 0.9779
-5.1417 0.9277 -2.0022 0.9779
-5.1718 0.7436 -2.0023 0.9779
-5.1952 0.5586 -2.0024 0.9779
-5.2121 0.3728 -2.0025 0.9779
-5.2223 0.1865 -2.0026 0.9779
4.8863 0.1745 -2.0011 0.9791
4.8610 0.5226 -2.0009 0.9791
4.8390 0.6958 -2.0009 0.9791
4.7767 1.0391 -2.0007 0.9791
4.7364 1.2089 -2.0006 0.9791
4.6900 1.3771 -2.0006 0.9791
4.6377 1.5436 -2.0005 0.9791
4.5795 1.7081 -2.0004 0.9791
4.2893 2.3421 -2.0002 0.9791
4.2028 2.4937 -2.0001 0.9791
3.9119 2.9284 -1.9999 0.9791
3.6928 3.1998 -1.9998 0.9791
3.4550 3.4550 -1.9998 0.9791
3.3294 3.5760 -1.9997 0.9791
3.1996 3.6925 -1.9997 0.9791
2.9279 3.9113 -1.9996 0.9791
2.6376 4.1042 -1.9967 0.9791
2.3350 4.2763 -1.9941 0.9792
2.1796 4.3543 -1.9929 0.9792
2.0199 4.4229 -1.9900 0.9792
1.8379 4.4372 -1.9656 0.9795
1.3140 4.4752 -1.9089 0.9800
0.9770 4.4911 -1.8811 0.9803
0.4850 4.5113 -1.8570 0.9806
0.1616 4.5242 -1.8528 0.9806
0.0000 4.5265 -1.8526 0.9806
-0.3238 4.5269 -1.8575 0.9806
-0.4868 4.5275 -1.8637 0.9805
-1.1545 4.5235 -1.9107 0.9800
-1.3267 4.5185 -1.9274 0.9799
-1.5021 4.5130 -1.9467 0.9797
-1.8630 4.4977 -1.9925 0.9792
-2.0235 4.4309 -1.9936 0.9792
-2.3375 4.2808 -1.9962 0.9791
-2.4905 4.1975 -1.9976 0.9791
-2.6407 4.1090 -1.9990 0.9791
-2.7875 4.0148 -2.0004 0.9791
-3.0671 3.8060 -2.0005 0.9791
-3.2011 3.6942 -2.0006 0.9791
-3.3310 3.5778 -2.0007 0.9791
-3.4567 3.4567 -2.0008 0.9791
-3.5780 3.3313 -2.0008 0.9791
-3.6948 3.2016 -2.0009 0.9791
-3.8069 3.0678 -2.0010 0.9791
-4.2920 2.3436 -2.0014 0.9791
-4.3731 2.1890 -2.0015 0.9791
-4.6409 1.5446 -2.0018 0.9791
-2.1703 0.3916 -0.9026 0.9905
-1.9525 0.1396 -0.8011 0.9916
4.5888 0.1639 -2.0011 0.9802
4.5798 0.3276 -2.0011 0.9802
4.5445 0.6534 -2.0009 0.9802
4.5181 0.8152 -2.0008 0.9802
4.4859 0.9759 -2.0008 0.9802
4.4481 1.1353 -2.0007 0.9802
4.3555 1.4496 -2.0006 0.9802
4.3008 1.6041 -2.0005 0.9802
4.1752 1.9067 -2.0004 0.9802
3.7698 2.6174 -2.0001 0.9802
3.4681 3.0052 -2.0000 0.9802
3.3586 3.1270 -1.9999 0.9802
3.2448 3.2448 -1.9999 0.9802
2.8792 3.5729 -1.9998 0.9802
2.7498 3.6733 -1.9998 0.9802
2.6169 3.7691 -1.9997 0.9802
2.1978 4.0250 -1.9986 0.9802
2.0516 4.0985 -1.9975 0.9802
1.7522 4.2303 -1.9955 0.9802
1.1307 4.4301 -1.9926 0.9802
0.4828 4.4907 -1.9684 0.9805
0.3216 4.4966 -1.9647 0.9805
0.1608 4.5020 -1.9633 0.9805
-0.1609 4.5054 -1.9648 0.9805
-0.3223 4.5063 -1.9689 0.9805
-0.8117 4.4990 -1.9924 0.9802
-1.2892 4.3908 -1.9943 0.9802
-1.7536 4.2335 -1.9971 0.9802
-2.0535 4.1023 -1.9993 0.9802
-2.1996 4.0284 -2.0003 0.9802
-2.3421 3.9474 -2.0004 0.9802
-2.6179 3.7705 -2.0005 0.9802
-2.7509 3.6748 -2.0006 0.9802
-2.8804 3.5744 -2.0006 0.9802
-3.1283 3.3600 -2.0008 0.9802
-3.2463 3.2463 -2.0008 0.9802
-3.5751 2.8810 -2.0010 0.9802
-3.7718 2.6188 -2.0012 0.9802
-4.0306 2.2009 -2.0014 0.9802
-4.1068 2.0557 -2.0015 0.9802
-4.2433 1.7577 -2.0017 0.9802
-1.5984 0.5962 -0.7435 0.9926
-1.5875 0.5284 -0.7292 0.9927
-1.5707 0.4612 -0.7134 0.9929
-1.5485 0.3952 -0.6965 0.9931
-1.5214 0.3310 -0.6786 0.9932
-1.5002 0.2707 -0.6643 0.9934
-1.5293 0.1094 -0.6682 0.9933
4.3205 0.1543 -2.0012 0.9811
4.2788 0.6152 -2.0010 0.9811
4.1881 1.0690 -2.0008 0.9811
3.9929 1.6539 -2.0005 0.9811
3.9312 1.7953 -2.0005 0.9811
3.8645 1.9345 -2.0004 0.9811
3.7929 2.0711 -2.0004 0.9811
3.7165 2.2051 -2.0003 0.9811
3.6353 2.3363 -2.0003 0.9811
3.5495 2.4645 -2.0002 0.9811
3.4592 2.5895 -2.0002 0.9811
3.3645 2.7113 -2.0001 0.9811
3.2655 2.8296 -2.0001 0.9811
3.1624 2.9443 -2.0000 0.9811
2.9442 3.1623 -2.0000 0.9811
2.3358 3.6345 -1.9998 0.9811
2.2045 3.7156 -1.9998 0.9811
1.9338 3.8633 -1.9998 0.9811
1.7947 3.9298 -1.9998 0.9811
1.6533 3.9914 -1.9998 0.9811
1.5092 4.0462 -1.9990 0.9811
1.3633 4.0961 -1.9983 0.9812
1.0670 4.1803 -1.9970 0.9812
0.9168 4.2146 -1.9965 0.9812
0.6136 4.2678 -1.9958 0.9812
0.3075 4.2999 -1.9954 0.9812
-0.3076 4.3005 -1.9957 0.9812
-0.6138 4.2689 -1.9963 0.9812
-0.7659 4.2453 -1.9968 0.9812
-0.9172 4.2164 -1.9974 0.9812
-1.0675 4.1823 -1.9980 0.9812
-1.2165 4.1430 -1.9987 0.9811
-1.5101 4.0487 -2.0002 0.9811
-1.7952 3.9309 -2.0003 0.9811
-2.0711 3.7930 -2.0004 0.9811
-2.4649 3.5502 -2.0006 0.9811
-2.5901 3.4600 -2.0006 0.9811
-2.7121 3.3655 -2.0007 0.9811
-3.1638 2.9457 -2.0010 0.9811
-3.2671 2.8309 -2.0010 0.9811
-3.5513 2.4657 -2.0012 0.9811
-1.3151 0.6006 -0.6692 0.9936
-1.3324 0.4970 -0.6582 0.9938
-1.3324 0.4435 -0.6500 0.9938
-1.3240 0.3888 -0.6388 0.9939
-1.3116 0.3348 -0.6266 0.9941
-1.3013 0.2831 -0.6164 0.9941
-1.3160 0.2374 -0.6190 0.9941
-1.3376 0.0478 -0.6195 0.9941
4.0799 0.0000 -2.0013 0.9820
4.0561 0.4361 -2.0011 0.9820
3.9523 1.0088 -2.0008 0.9820
3.8700 1.2881 -2.0007 0.9820
3.8215 1.4253 -2.0007 0.9820
3.7681 1.5608 -2.0006 0.9820
3.5072 2.0809 -2.0004 0.9820
3.4306 2.2047 -2.0003 0.9820
3.2645 2.4438 -2.0003 0.9820
3.0817 2.6703 -2.0002 0.9820
2.8832 2.8832 -2.0001 0.9820
2.7784 2.9843 -2.0001 0.9820
2.6701 3.0815 -2.0000 0.9820
2.5584 3.1748 -2.0000 0.9820
2.4434 3.2640 -2.0000 0.9820
2.0804 3.5064 -1.9999 0.9820
1.8250 3.6458 -1.9999 0.9820
1.4248 3.8200 -1.9999 0.9820
1.2875 3.8684 -1.9999 0.9820
1.1486 3.9119 -1.9999 0.9820
1.0083 3.9504 -1.9999 0.9820
0.8666 3.9839 -1.9999 0.9820
0.5802 4.0355 -1.9999 0.9820
0.4358 4.0532 -1.9997 0.9820
0.2908 4.0659 -1.9995 0.9820
0.0000 4.0763 -1.9995 0.9820
-0.2908 4.0664 -1.9998 0.9820
-0.4358 4.0540 -2.0000 0.9820
-0.5803 4.0359 -2.0001 0.9820
-0.8667 3.9844 -2.0001 0.9820
-1.0084 3.9510 -2.0002 0.9820
-1.1488 3.9125 -2.0002 0.9820
-1.6941 3.7095 -2.0004 0.9820
-2.2050 3.4311 -2.0006 0.9820
-2.4443 3.2652 -2.0007 0.9820
-2.6711 3.0827 -2.0008 0.9820
-2.7796 2.9855 -2.0009 0.9820
-2.8844 2.8845 -2.0009 0.9820
-1.1400 0.5206 -0.6148 0.9944
-1.1484 0.4757 -0.6097 0.9945
-1.1578 0.3854 -0.5986 0.9946
-1.1590 0.3403 -0.5925 0.9946
-1.1921 0.1282 -0.5881 0.9947
-1.1953 0.0855 -0.5878 0.9947
-1.1964 0.0428 -0.5873 0.9947
3.8353 0.4123 -2.0011 0.9828
3.7006 1.0866 -2.0008 0.9828
3.6593 1.2179 -2.0008 0.9828
3.6134 1.3478 -2.0007 0.9828
3.3845 1.8481 -2.0005 0.9828
3.1674 2.1992 -2.0004 0.9828
2.9140 2.5250 -2.0003 0.9828
2.7263 2.7263 -2.0002 0.9828
2.6272 2.8219 -2.0002 0.9828
2.4192 3.0020 -2.0001 0.9828
2.1988 3.1669 -2.0001 0.9828
1.9672 3.3156 -2.0000 0.9828
1.7257 3.4474 -2.0000 0.9828
1.3473 3.6121 -2.0000 0.9828
1.2175 3.6579 -2.0000 0.9828
1.0861 3.6990 -2.0000 0.9828
0.9534 3.7354 -2.0000 0.9828
0.6845 3.7940 -2.0000 0.9828
0.5487 3.8160 -2.0000 0.9828
0.4121 3.8332 -2.0000 0.9828
0.2750 3.8454 -2.0000 0.9828
0.1376 3.8529 -2.0000 0.9828
0.0000 3.8554 -2.0001 0.9828
-0.1376 3.8529 -2.0001 0.9828
-0.5487 3.8163 -2.0002 0.9828
-0.6846 3.7943 -2.0002 0.9828
-1.0863 3.6996 -2.0003 0.9828
-1.3475 3.6128 -2.0004 0.9828
-1.7261 3.4483 -2.0005 0.9828
-1.9678 3.3166 -2.0006 0.9828
-2.3112 3.0874 -2.0008 0.9828
-2.6282 2.8229 -2.0009 0.9828
-2.8231 2.6284 -2.0011 0.9828
-3.0036 2.4205 -2.0012 0.9828
-3.1688 2.2002 -2.0013 0.9828
-0.9917 0.5884 -0.5982 0.9948
-1.0430 0.4763 -0.5948 0.9948
-1.0576 0.3945 -0.5856 0.9949
-1.0617 0.3534 -0.5805 0.9950
-1.0905 0.1968 -0.5749 0.9950
-1.0974 0.1578 -0.5752 0.9950
-1.1024 0.1185 -0.5752 0.9950
-1.1066 0.0395 -0.5744 0.9950
3.5700 0.7766 -2.0010 0.9835
3.5399 0.9035 -2.0009 0.9835
3.5053 1.0292 -2.0009 0.9835
3.4662 1.1537 -2.0008 0.9835
3.4227 1.2766 -2.0008 0.9835
3.3749 1.3979 -2.0007 0.9835
3.2664 1.6351 -2.0006 0.9835
3.1413 1.8638 -2.0006 0.9835
3.0002 2.0831 -2.0005 0.9835
2.9239 2.1888 -2.0004 0.9835
2.8439 2.2917 -2.0004 0.9835
2.7602 2.3917 -2.0004 0.9835
2.4886 2.6729 -2.0003 0.9835
2.1885 2.9236 -2.0002 0.9835
1.9744 3.0722 -2.0001 0.9835
1.7501 3.2051 -2.0001 0.9835
1.6346 3.2655 -2.0001 0.9835
1.3975 3.3738 -2.0001 0.9835
1.2762 3.4215 -2.0001 0.9835
1.1532 3.4649 -2.0001 0.9835
1.0288 3.5038 -2.0001 0.9835
0.9031 3.5383 -2.0001 0.9835
0.7762 3.5683 -2.0001 0.9835
0.3904 3.6309 -2.0001 0.9835
0.2605 3.6426 -2.0001 0.9835
-0.1304 3.6496 -2.0002 0.9835
-0.2605 3.6427 -2.0002 0.9835
-0.6484 3.5941 -2.0003 0.9835
-0.9032 3.5388 -2.0003 0.9835
-1.3978 3.3745 -2.0005 0.9835
-1.5173 3.3225 -2.0005 0.9835
-1.7506 3.2060 -2.0006 0.9835
-1.8639 3.1415 -2.0007 0.9835
-1.9749 3.0731 -2.0007 0.9835
-2.4895 2.6739 -2.0010 0.9835
-2.6741 2.4897 -2.0011 0.9835
-2.7613 2.3927 -2.0012 0.9835
-0.8882 0.5708 -0.5782 0.9952
-0.9084 0.5390 -0.5785 0.9952
-0.9269 0.5061 -0.5784 0.9952
-0.9785 0.3257 -0.5648 0.9953
-1.0124 0.1827 -0.5634 0.9953
-1.0190 0.1465 -0.5638 0.9953
-1.0236 0.1101 -0.5639 0.9953
-1.0265 0.0734 -0.5637 0.9953
-1.0276 0.0367 -0.5632 0.9953
2.0320 0.0726 -1.1739 0.9907
2.0359 0.1456 -1.1784 0.9906
3.0414 1.6607 -2.0007 0.9841
2.9801 1.7682 -2.0006 0.9841
2.9150 1.8734 -2.0006 0.9841
2.8463 1.9762 -2.0005 0.9841
2.7739 2.0765 -2.0005 0.9841
2.6186 2.2690 -2.0004 0.9841
2.1739 2.6977 -2.0003 0.9841
1.9759 2.8459 -2.0003 0.9841
1.7678 2.9795 -2.0002 0.9841
1.6604 3.0407 -2.0002 0.9841
1.5508 3.0980 -2.0002 0.9841
1.4392 3.1514 -2.0002 0.9841
1.3258 3.2007 -2.0002 0.9841
1.2107 3.2460 -2.0002 0.9841
1.0941 3.2871 -2.0002 0.9841
0.9760 3.3241 -2.0002 0.9841
0.8568 3.3568 -2.0002 0.9841
0.6151 3.4094 -2.0002 0.9841
0.4930 3.4292 -2.0002 0.9841
0.3703 3.4446 -2.0002 0.9841
0.2472 3.4557 -2.0002 0.9841
-0.3703 3.4448 -2.0003 0.9841
-0.4931 3.4295 -2.0003 0.9841
-0.6152 3.4097 -2.0004 0.9841
-0.7365 3.3856 -2.0004 0.9841
-1.4395 3.1520 -2.0006 0.9841
-1.5511 3.0987 -2.0007 0.9841
-1.6607 3.0414 -2.0007 0.9841
-1.7683 2.9803 -2.0007 0.9841
-1.8736 2.9154 -2.0008 0.9841
-2.0769 2.7744 -2.0009 0.9841
-2.1746 2.6986 -2.0009 0.9841
-2.2696 2.6193 -2.0010 0.9841
-2.4508 2.4508 -2.0011 0.9841
-2.5368 2.3619 -2.0011 0.9841
-2.6196 2.2699 -2.0012 0.9841
-0.7671 0.6182 -0.5688 0.9955
-0.7846 0.5873 -0.5658 0.9955
-0.8178 0.5256 -0.5613 0.9955
-0.8364 0.4963 -0.5615 0.9955
-0.8534 0.4660 -0.5614 0.9955
-0.8687 0.4349 -0.5609 0.9955
-0.8823 0.4029 -0.5600 0.9955
-0.8941 0.3704 -0.5587 0.9955
-0.9011 0.3361 -0.5553 0.9956
-0.9057 0.3015 -0.5511 0.9956
-0.9259 0.2363 -0.5517 0.9956
-0.9430 0.1702 -0.5532 0.9956
