ply
format ascii 1.0
element vertex 793
property float32 x
property float32 y
property float32 z
property float32 I
end_header
1.6883 5.0725 0.9427 0.9785
-1.4639 6.7297 1.2144 0.9724
-1.6389 6.4213 1.1686 0.9734
-1.8820 6.4094 1.1779 0.9732
1.6878 5.0710 0.8187 0.9786
-1.6396 6.4241 1.0157 0.9735
-1.8824 6.4108 1.0236 0.9733
-1.6403 6.4268 0.8637 0.9736
1.6868 5.0680 0.5736 0.9787
-1.4564 6.6953 0.7358 0.9728
-1.8831 6.4134 0.7178 0.9735
1.6863 5.0665 0.4520 0.9788
-1.4540 6.6840 0.5791 0.9729
-1.8835 6.4147 0.5659 0.9735
-1.6424 6.4348 0.4118 0.9737
-1.8839 6.4160 0.4147 0.9736
-1.4492 6.6617 0.2688 0.9731
-1.8843 6.4173 0.2637 0.9736
1.6849 5.0622 0.0901 0.9789
-1.6437 6.4402 0.1123 0.9738
-1.8846 6.4185 0.1130 0.9736
-1.4444 6.6396 -0.0383 0.9732
-1.6444 6.4428 -0.0374 0.9738
-1.8850 6.4198 -0.0377 0.9736
-1.6451 6.4455 -0.1873 0.9737
-1.4396 6.6177 -0.3435 0.9732
-1.6458 6.4481 -0.3375 0.9737
-1.4372 6.6067 -0.4958 0.9732
-1.6465 6.4508 -0.4882 0.9737
-1.8862 6.4237 -0.4909 0.9735
-1.6471 6.4535 -0.6394 0.9736
-1.8865 6.4250 -0.6429 0.9735
1.6820 5.0534 -0.6327 0.9788
-1.8869 6.4263 -0.7956 0.9734
-1.4360 6.6011 -0.9572 0.9731
2.5203 5.0349 -0.9276 0.9774
-0.8513 7.9184 -1.3120 0.9682
-1.8877 6.4290 -1.1038 0.9732
-2.9148 7.8150 -1.3741 0.9668
2.6590 4.8697 -1.0429 0.9777
1.6810 5.0507 -1.0005 0.9786
2.7688 9.4296 -1.8472 0.9608
2.4304 9.5220 -1.8471 0.9608
2.0888 9.6023 -1.8471 0.9608
1.0503 9.7695 -1.8469 0.9608
0.7010 9.8004 -1.8468 0.9608
0.3507 9.8189 -1.8467 0.9608
0.0000 9.8249 -1.8467 0.9608
-0.3506 9.8183 -1.8466 0.9608
-0.7008 9.7993 -1.8466 0.9608
-0.8305 7.7253 -1.4604 0.9689
-1.3981 9.7239 -1.8465 0.9608
-1.7442 9.6677 -1.8465 0.9608
-1.4372 6.6068 -1.2709 0.9729
-1.8881 6.4303 -1.2597 0.9731
-2.9149 7.8151 -1.5678 0.9666
-3.7591 9.0754 -1.8464 0.9608
-4.3969 8.7840 -1.8463 0.9608
-4.7077 8.6215 -1.8463 0.9608
-5.0124 8.4480 -1.8464 0.9608
-5.3108 8.2638 -1.8464 0.9608
-6.4331 7.4242 -1.8464 0.9608
-7.6498 6.1646 -1.8466 0.9608
-7.8652 5.8878 -1.8467 0.9608
-8.0706 5.6035 -1.8467 0.9608
-8.2657 5.3121 -1.8468 0.9608
-8.6242 4.7092 -1.8469 0.9608
-8.9388 4.0822 -1.8471 0.9608
9.4517 0.6760 -2.0030 0.9620
9.4210 1.0129 -2.0029 0.9620
9.3784 1.3484 -2.0028 0.9620
9.3238 1.6822 -2.0027 0.9620
9.1790 2.3428 -2.0025 0.9620
8.9875 2.9913 -2.0022 0.9620
8.1601 3.7266 -1.8962 0.9640
7.8246 3.9167 -1.8496 0.9649
7.6794 4.1933 -1.8495 0.9649
7.3598 4.7299 -1.8493 0.9649
7.1859 4.9893 -1.8492 0.9649
7.0029 5.2423 -1.8491 0.9649
6.8109 5.4886 -1.8490 0.9649
6.6103 5.7279 -1.8489 0.9649
6.4013 5.9599 -1.8488 0.9649
6.1842 6.1842 -1.8487 0.9649
5.9592 6.4007 -1.8486 0.9649
5.7267 6.6089 -1.8485 0.9649
5.4869 6.8088 -1.8484 0.9649
4.9867 7.1821 -1.8482 0.9649
2.8875 4.8665 -1.1961 0.9771
3.0546 8.1897 -1.8476 0.9649
1.6808 5.0499 -1.1250 0.9785
2.4624 8.3861 -1.8475 0.9649
1.8577 8.5397 -1.8473 0.9649
1.5517 8.6003 -1.8473 0.9649
1.2437 8.6499 -1.8472 0.9649
0.9341 8.6885 -1.8472 0.9649
0.6234 8.7161 -1.8471 0.9649
-0.6233 8.7152 -1.8469 0.9649
-1.2434 8.6482 -1.8469 0.9649
-1.4355 7.9562 -1.7089 0.9675
-1.4378 6.6097 -1.4298 0.9727
-1.6506 6.4673 -1.4109 0.9731
-3.3433 8.0714 -1.8467 0.9649
-3.9106 7.8123 -1.8467 0.9649
-4.1869 7.6678 -1.8467 0.9649
-4.4579 7.5135 -1.8467 0.9649
-4.7233 7.3496 -1.8467 0.9649
-4.9826 7.1764 -1.8467 0.9649
-5.4820 6.8028 -1.8468 0.9649
-5.7214 6.6029 -1.8468 0.9649
-5.9535 6.3946 -1.8468 0.9649
-6.1781 6.1781 -1.8469 0.9649
-6.8035 5.4826 -1.8470 0.9649
-6.9950 5.2364 -1.8470 0.9649
-7.3511 4.7243 -1.8471 0.9649
-8.5778 3.9174 -1.9933 0.9622
-8.9755 2.9874 -1.9996 0.9621
-9.1665 2.3396 -1.9997 0.9621
-9.3109 1.6799 -1.9999 0.9621
8.5228 0.0000 -2.0031 0.9656
8.5003 0.6079 -2.0029 0.9656
8.4345 1.2127 -2.0027 0.9656
8.2554 2.1071 -2.0024 0.9656
8.1745 2.4002 -2.0023 0.9656
8.0832 2.6903 -2.0022 0.9656
7.8699 3.2598 -2.0020 0.9656
7.7347 3.5323 -1.9984 0.9657
7.5880 3.7983 -1.9943 0.9657
7.1260 3.8911 -1.9082 0.9672
6.7675 4.0153 -1.8494 0.9682
6.6195 4.2541 -1.8493 0.9682
6.2986 4.7151 -1.8491 0.9682
6.1260 4.9366 -1.8490 0.9682
5.7576 5.3605 -1.8489 0.9682
5.5624 5.5624 -1.8488 0.9682
5.1509 5.9444 -1.8486 0.9682
4.7133 6.2962 -1.8484 0.9682
2.8876 4.8668 -1.3300 0.9770
2.6594 4.8702 -1.3041 0.9775
2.5204 5.0350 -1.3233 0.9771
1.8374 4.9262 -1.2357 0.9786
2.2149 7.5433 -1.8477 0.9682
1.9442 7.6173 -1.8476 0.9682
1.3958 7.7361 -1.8475 0.9682
1.1187 7.7808 -1.8475 0.9682
0.8403 7.8155 -1.8474 0.9682
0.2806 7.8551 -1.8473 0.9682
-0.5607 7.8396 -1.8472 0.9682
-0.7774 7.2310 -1.7093 0.9706
-1.2648 5.8144 -1.3985 0.9758
-1.4804 5.8004 -1.4069 0.9757
-1.9210 5.7717 -1.4297 0.9753
-2.1472 5.7570 -1.4441 0.9751
-2.3784 5.7420 -1.4607 0.9748
-3.7663 6.8975 -1.8470 0.9682
-4.2488 6.6113 -1.8470 0.9682
-4.4821 6.4555 -1.8470 0.9682
-4.9313 6.1194 -1.8471 0.9682
-5.1466 5.9396 -1.8471 0.9682
-5.3554 5.7521 -1.8471 0.9682
-5.7523 5.3556 -1.8472 0.9682
-6.1199 4.9318 -1.8472 0.9682
-6.2922 4.7103 -1.8473 0.9682
-6.4564 4.4828 -1.8473 0.9682
-7.7392 3.5344 -1.9996 0.9656
-7.8607 3.2560 -1.9997 0.9656
-7.9722 2.9735 -1.9997 0.9656
-8.0735 2.6871 -1.9998 0.9656
-8.1646 2.3974 -1.9999 0.9656
-8.2453 2.1045 -2.0000 0.9656
-8.3154 1.8089 -2.0000 0.9656
-8.3750 1.5110 -2.0001 0.9656
-8.4896 0.6072 -2.0004 0.9656
7.7358 0.0000 -2.0029 0.9685
7.7155 0.5518 -2.0028 0.9685
7.6558 1.1007 -2.0026 0.9685
7.6113 1.3732 -2.0025 0.9685
7.5571 1.6439 -2.0024 0.9685
7.4933 1.9125 -2.0023 0.9686
7.3371 2.4420 -2.0022 0.9686
7.2449 2.7022 -2.0021 0.9686
7.0331 3.2119 -2.0019 0.9686
6.9131 3.4604 -2.0017 0.9686
6.7726 3.6981 -1.9979 0.9686
6.6242 3.9303 -1.9943 0.9687
5.8759 4.0797 -1.8521 0.9709
5.7174 4.2800 -1.8492 0.9709
5.3971 4.6766 -1.8490 0.9709
5.2265 4.8660 -1.8489 0.9709
4.6758 5.3961 -1.8487 0.9709
4.2786 5.7155 -1.8485 0.9709
4.0717 5.8643 -1.8485 0.9709
2.8877 4.8670 -1.4653 0.9769
2.5204 5.0351 -1.4579 0.9770
2.9652 6.4928 -1.8481 0.9709
2.7315 6.5943 -1.8480 0.9709
1.8314 4.9102 -1.3569 0.9786
2.0107 6.8478 -1.8479 0.9709
1.2671 7.0229 -1.8477 0.9709
0.5091 7.1175 -1.8476 0.9709
0.2547 7.1310 -1.8475 0.9709
0.0000 7.1354 -1.8475 0.9709
-0.2547 7.1307 -1.8474 0.9709
-0.7057 6.5645 -1.7095 0.9731
-0.8399 5.8420 -1.5282 0.9759
-1.2648 5.8144 -1.5407 0.9757
-2.1473 5.7571 -1.5909 0.9749
-2.3784 5.7420 -1.6092 0.9746
-2.6153 5.7266 -1.6300 0.9743
-3.1935 6.3798 -1.8472 0.9710
-3.6405 6.1357 -1.8472 0.9710
-3.8572 6.0019 -1.8472 0.9710
-4.0690 5.8605 -1.8473 0.9710
-4.2756 5.7115 -1.8473 0.9710
-4.4768 5.5553 -1.8473 0.9710
-4.6722 5.3921 -1.8473 0.9710
-4.8618 5.2219 -1.8473 0.9710
-5.2221 4.8620 -1.8474 0.9709
-5.3924 4.6725 -1.8474 0.9709
-5.5558 4.4772 -1.8474 0.9709
-5.7820 4.3283 -1.8701 0.9706
-6.7786 3.7014 -1.9997 0.9686
-7.1360 2.9558 -1.9999 0.9686
-7.2371 2.6993 -1.9999 0.9686
-7.4117 2.1763 -2.0001 0.9686
-7.4850 1.9104 -2.0001 0.9686
-7.6027 1.3717 -2.0003 0.9686
-7.6471 1.0995 -2.0003 0.9686
7.0749 0.0000 -2.0028 0.9710
7.0701 0.2525 -2.0028 0.9710
7.0335 0.7562 -2.0026 0.9710
6.9116 1.5035 -2.0024 0.9710
6.7104 2.2334 -2.0021 0.9710
6.6262 2.4714 -2.0020 0.9710
6.5335 2.7062 -2.0020 0.9710
6.4324 2.9376 -2.0019 0.9710
6.2060 3.3887 -2.0017 0.9710
6.0789 3.6068 -2.0010 0.9710
5.7874 4.0182 -1.9946 0.9711
4.9363 4.2773 -1.8491 0.9732
4.7803 4.4506 -1.8490 0.9732
4.6182 4.6182 -1.8489 0.9732
3.9134 5.2276 -1.8486 0.9732
2.7122 5.9388 -1.8482 0.9732
1.8391 6.2635 -1.8480 0.9732
1.3876 6.3784 -1.8479 0.9732
1.1590 6.4237 -1.8479 0.9732
0.9289 6.4608 -1.8478 0.9732
0.6977 6.4897 -1.8478 0.9732
0.2330 6.5227 -1.8477 0.9732
-0.2329 6.5224 -1.8476 0.9732
-0.6455 6.0045 -1.7096 0.9752
-0.8400 5.8421 -1.6709 0.9758
-1.0515 5.8283 -1.6766 0.9757
-1.4804 5.8004 -1.6947 0.9754
-1.6990 5.7862 -1.7072 0.9752
-2.1149 5.6704 -1.7133 0.9752
-2.3377 5.6438 -1.7294 0.9749
-3.3300 5.6124 -1.8474 0.9732
-3.5282 5.4900 -1.8474 0.9732
-3.7219 5.3606 -1.8475 0.9732
-3.9109 5.2244 -1.8475 0.9732
-4.0949 5.0815 -1.8475 0.9732
-4.2737 4.9321 -1.8475 0.9732
-4.4471 4.7765 -1.8475 0.9732
-4.6148 4.6148 -1.8475 0.9732
-4.7755 4.4462 -1.8472 0.9732
-5.0549 4.3801 -1.8935 0.9726
-5.6385 4.2210 -1.9939 0.9711
-6.3173 3.1622 -1.9999 0.9711
-6.4263 2.9348 -2.0000 0.9711
-6.5271 2.7036 -2.0000 0.9711
-6.6196 2.4690 -2.0001 0.9711
-6.7037 2.2312 -2.0001 0.9711
-6.7793 1.9906 -2.0002 0.9711
-6.8463 1.7474 -2.0003 0.9711
-6.9539 1.2546 -2.0004 0.9711
-6.9945 1.0057 -2.0005 0.9711
-7.0262 0.7554 -2.0005 0.9710
-7.0489 0.5042 -2.0006 0.9710
-7.0627 0.2522 -2.0007 0.9710
6.5114 0.0000 -2.0028 0.9731
6.5070 0.2324 -2.0027 0.9731
6.4943 0.4645 -2.0026 0.9731
6.3612 1.3838 -2.0023 0.9731
6.3075 1.6099 -2.0023 0.9731
6.2458 1.8339 -2.0022 0.9731
6.1761 2.0556 -2.0021 0.9731
6.0133 2.4908 -2.0019 0.9731
5.8198 2.9132 -2.0018 0.9731
5.4745 3.5182 -2.0016 0.9731
5.0506 4.0700 -1.9951 0.9732
4.2613 4.2613 -1.8536 0.9751
3.4278 4.9370 -1.8486 0.9752
3.2493 5.0560 -1.8486 0.9752
2.5204 5.0351 -1.7319 0.9767
1.8226 4.8866 -1.6042 0.9784
1.6929 5.7653 -1.8481 0.9752
1.4860 5.8219 -1.8481 0.9752
0.6422 5.9736 -1.8479 0.9752
0.4286 5.9925 -1.8479 0.9752
-0.2144 6.0037 -1.8478 0.9752
-0.8256 5.7421 -1.7843 0.9760
-1.0335 5.7286 -1.7905 0.9759
-1.4551 5.7012 -1.8098 0.9757
-1.6699 5.6872 -1.8231 0.9755
-1.8882 5.6731 -1.8390 0.9753
-2.0992 5.6283 -1.8476 0.9752
-2.6888 5.3716 -1.8476 0.9752
-2.8788 5.2722 -1.8476 0.9752
-3.0652 5.1661 -1.8476 0.9752
-3.4259 4.9343 -1.8476 0.9752
-3.7692 4.6774 -1.8477 0.9752
-4.1360 4.4424 -1.8669 0.9749
-4.4174 4.4175 -1.9215 0.9742
-5.7071 3.1163 -2.0000 0.9732
-5.9151 2.7014 -2.0001 0.9732
-6.2400 1.8322 -2.0003 0.9732
-6.3016 1.6084 -2.0004 0.9731
-6.3552 1.3825 -2.0004 0.9731
-6.4380 0.9257 -2.0006 0.9731
-6.4672 0.6953 -2.0006 0.9731
-6.5007 0.2322 -2.0008 0.9731
6.0208 0.2150 -2.0026 0.9749
6.0091 0.4298 -2.0026 0.9749
5.9627 0.8573 -2.0024 0.9749
5.9281 1.0696 -2.0024 0.9749
5.8860 1.2804 -2.0023 0.9749
5.8363 1.4896 -2.0022 0.9749
5.6431 2.1048 -2.0020 0.9749
5.4781 2.5018 -2.0019 0.9749
5.1788 3.0727 -2.0017 0.9749
4.8201 3.6083 -2.0014 0.9749
4.6865 3.7766 -2.0007 0.9749
4.3943 4.0912 -1.9958 0.9750
4.2359 4.2359 -1.9912 0.9751
3.0068 4.6786 -1.8487 0.9768
2.6600 4.8714 -1.8449 0.9769
2.4892 4.9728 -1.8485 0.9768
2.3101 5.0583 -1.8484 0.9768
2.1280 5.1374 -1.8484 0.9768
1.8190 4.8769 -1.7302 0.9783
1.6298 4.8967 -1.7155 0.9785
1.5665 5.3350 -1.8482 0.9768
1.3751 5.3874 -1.8482 0.9768
1.1819 5.4329 -1.8482 0.9768
0.7912 5.5031 -1.8481 0.9768
0.3966 5.5454 -1.8480 0.9768
0.1984 5.5559 -1.8480 0.9768
-0.3966 5.5450 -1.8479 0.9768
-1.1816 5.4319 -1.8478 0.9768
-1.5661 5.3337 -1.8478 0.9768
-1.9426 5.2083 -1.8478 0.9768
-2.3092 5.0564 -1.8478 0.9768
-2.4882 4.9708 -1.8478 0.9768
-2.6640 4.8788 -1.8478 0.9768
-2.8365 4.7806 -1.8478 0.9768
-3.1703 4.5661 -1.8478 0.9768
-3.3538 4.4802 -1.8603 0.9767
-3.5947 4.4608 -1.9043 0.9761
-3.8473 4.4400 -1.9529 0.9755
-4.0853 4.3879 -1.9928 0.9750
-4.3983 4.0949 -1.9976 0.9750
-4.6848 3.7753 -2.0000 0.9750
-4.8167 3.6057 -2.0000 0.9750
-5.3809 2.6935 -2.0002 0.9750
-5.4737 2.4998 -2.0002 0.9750
-5.5595 2.3029 -2.0003 0.9750
-5.6383 2.1030 -2.0003 0.9750
-5.8313 1.4883 -2.0005 0.9750
-5.8808 1.2793 -2.0005 0.9750
-5.9229 1.0686 -2.0006 0.9749
-5.9844 0.6434 -2.0007 0.9749
5.6001 0.0000 -2.0026 0.9765
5.5855 0.3995 -2.0025 0.9765
5.5675 0.5986 -2.0024 0.9765
5.5424 0.7969 -2.0024 0.9765
5.5103 0.9942 -2.0023 0.9765
5.3719 1.5773 -2.0021 0.9765
5.3120 1.7680 -2.0021 0.9765
5.0921 2.3255 -2.0019 0.9765
5.0057 2.5057 -2.0018 0.9765
4.8138 2.8562 -2.0017 0.9765
4.5975 3.1921 -2.0015 0.9765
4.4805 3.3541 -2.0015 0.9765
4.2295 3.6649 -2.0013 0.9765
4.0954 3.8129 -2.0010 0.9765
3.8048 4.0866 -1.9967 0.9766
2.8162 4.3821 -1.8628 0.9781
2.4775 4.5371 -1.8486 0.9783
2.1473 4.7020 -1.8485 0.9783
1.9781 4.7755 -1.8485 0.9783
1.8064 4.8430 -1.8484 0.9783
1.6263 4.8863 -1.8416 0.9784
1.2782 5.0080 -1.8483 0.9783
1.0986 5.0503 -1.8483 0.9783
0.9177 5.0862 -1.8482 0.9783
0.7355 5.1156 -1.8482 0.9783
0.5525 5.1385 -1.8482 0.9783
0.1845 5.1647 -1.8481 0.9783
0.0000 5.1679 -1.8481 0.9783
-0.1844 5.1645 -1.8480 0.9783
-0.3686 5.1546 -1.8480 0.9783
-0.7354 5.1150 -1.8480 0.9783
-0.9175 5.0855 -1.8480 0.9783
-1.0984 5.0494 -1.8479 0.9783
-1.2779 5.0070 -1.8479 0.9783
-1.4558 4.9581 -1.8479 0.9783
-1.9775 4.7740 -1.8479 0.9783
-2.1466 4.7004 -1.8479 0.9783
-2.3130 4.6208 -1.8479 0.9783
-2.4764 4.5353 -1.8479 0.9783
-2.6699 4.4998 -1.8711 0.9780
-3.1067 4.4746 -1.9480 0.9771
-3.4990 4.3421 -1.9942 0.9766
-3.6554 4.2186 -1.9962 0.9766
-3.9547 3.9547 -2.0000 0.9765
-4.8104 2.8541 -2.0002 0.9765
-4.9093 2.6807 -2.0003 0.9765
-5.0882 2.3237 -2.0004 0.9765
-5.2413 1.9549 -2.0004 0.9765
-5.3078 1.7666 -2.0005 0.9765
-5.5057 0.9934 -2.0007 0.9765
-5.5808 0.3991 -2.0008 0.9765
-5.5917 0.1997 -2.0009 0.9765
5.2257 0.0000 -2.0026 0.9779
5.2222 0.1865 -2.0025 0.9779
5.1419 0.9277 -2.0023 0.9779
5.1054 1.1106 -2.0022 0.9779
5.0623 1.2921 -2.0022 0.9779
5.0128 1.4719 -2.0021 0.9779
4.9570 1.6498 -2.0020 0.9779
4.8263 1.9991 -2.0019 0.9779
4.7517 2.1700 -2.0019 0.9779
4.6711 2.3382 -2.0018 0.9779
4.5846 2.5033 -2.0017 0.9779
4.4921 2.6653 -2.0017 0.9779
4.3940 2.8238 -2.0016 0.9779
4.2903 2.9788 -2.0015 0.9779
4.0666 3.2771 -2.0014 0.9779
3.9469 3.4200 -2.0014 0.9779
3.8222 3.5586 -2.0013 0.9779
3.4171 3.9436 -1.9997 0.9779
2.9684 4.2752 -1.9945 0.9780
2.8022 4.3604 -1.9863 0.9780
2.4011 4.3972 -1.9199 0.9788
2.0232 4.4301 -1.8663 0.9794
1.6857 4.5195 -1.8485 0.9795
1.5233 4.5767 -1.8485 0.9795
1.3589 4.6281 -1.8484 0.9796
1.1929 4.6735 -1.8484 0.9796
0.8564 4.7465 -1.8483 0.9796
0.1722 4.8198 -1.8482 0.9796
0.0000 4.8228 -1.8482 0.9796
-0.3440 4.8104 -1.8481 0.9796
-0.5155 4.7950 -1.8481 0.9796
-1.0251 4.7122 -1.8480 0.9796
-1.1926 4.6726 -1.8480 0.9796
-1.5229 4.5756 -1.8480 0.9796
-2.0596 4.5099 -1.8999 0.9790
-2.2524 4.4997 -1.9284 0.9787
-2.6532 4.4717 -1.9926 0.9780
-3.2734 4.0621 -1.9992 0.9779
-3.8201 3.5566 -2.0002 0.9779
-3.9446 3.4180 -2.0002 0.9779
-4.0641 3.2751 -2.0002 0.9779
-4.4891 2.6635 -2.0003 0.9779
-4.5814 2.5017 -2.0004 0.9779
-4.7484 2.1685 -2.0004 0.9779
-5.2181 0.1864 -2.0010 0.9779
4.8929 -0.0000 -2.0025 0.9791
4.8801 0.3490 -2.0024 0.9791
4.8644 0.5230 -2.0024 0.9791
4.8145 0.8686 -2.0023 0.9791
4.7803 1.0399 -2.0022 0.9791
4.7400 1.2098 -2.0021 0.9791
4.6936 1.3782 -2.0021 0.9791
4.5191 1.8719 -2.0019 0.9791
4.2062 2.4956 -2.0017 0.9791
4.1143 2.6441 -2.0016 0.9791
3.8078 3.0685 -2.0015 0.9791
3.5789 3.3321 -2.0013 0.9791
3.3319 3.5787 -2.0012 0.9791
3.2020 3.6953 -2.0012 0.9791
3.0680 3.8071 -2.0011 0.9791
2.6391 4.1064 -1.9978 0.9791
2.3362 4.2784 -1.9951 0.9792
2.1807 4.3565 -1.9939 0.9792
1.4812 4.4504 -1.9197 0.9799
0.4842 4.5035 -1.8538 0.9806
0.1613 4.5152 -1.8491 0.9807
-0.1614 4.5192 -1.8508 0.9806
-0.8155 4.5203 -1.8799 0.9803
-1.1521 4.5141 -1.9067 0.9801
-1.8622 4.4958 -1.9916 0.9792
-2.0235 4.4309 -1.9936 0.9792
-2.1817 4.3584 -1.9948 0.9792
-2.6404 4.1086 -1.9988 0.9791
-2.9288 3.9124 -2.0002 0.9791
-3.3303 3.5770 -2.0002 0.9791
-3.4558 3.4559 -2.0003 0.9791
-3.8056 3.0668 -2.0003 0.9791
-4.2035 2.4941 -2.0004 0.9791
-4.3709 2.1879 -2.0005 0.9791
-4.5800 1.7083 -2.0006 0.9791
-4.6381 1.5437 -2.0007 0.9791
-4.7366 1.2090 -2.0007 0.9791
-1.9525 0.1396 -0.8011 0.9916
-1.9308 0.0690 -0.7907 0.9917
4.5948 0.0000 -2.0025 0.9802
4.5475 0.6538 -2.0023 0.9802
4.4891 0.9765 -2.0022 0.9802
4.4513 1.1361 -2.0021 0.9802
4.4078 1.2942 -2.0021 0.9802
4.3040 1.6053 -2.0020 0.9802
4.2438 1.7578 -2.0019 0.9802
4.0313 2.2012 -2.0017 0.9802
3.8637 2.4831 -2.0016 0.9802
3.6766 2.7522 -2.0015 0.9802
3.4707 3.0073 -2.0014 0.9802
3.3610 3.1292 -2.0014 0.9802
3.0071 3.4703 -2.0012 0.9802
2.7517 3.6758 -2.0011 0.9802
1.9039 4.1689 -1.9974 0.9802
1.7530 4.2322 -1.9964 0.9802
1.2890 4.3900 -1.9940 0.9802
1.1311 4.4318 -1.9933 0.9802
0.9697 4.4578 -1.9882 0.9803
0.4818 4.4813 -1.9643 0.9805
0.0000 4.4924 -1.9579 0.9806
-0.1605 4.4948 -1.9602 0.9806
-0.6469 4.4996 -1.9812 0.9804
-0.8118 4.4995 -1.9926 0.9802
-1.2893 4.3911 -1.9945 0.9802
-1.7536 4.2336 -1.9971 0.9802
-2.0534 4.1022 -1.9993 0.9802
-2.1996 4.0283 -2.0003 0.9802
-2.3420 3.9472 -2.0003 0.9802
-2.4814 3.8612 -2.0003 0.9802
-2.6176 3.7701 -2.0003 0.9802
-2.7505 3.6743 -2.0003 0.9802
-2.8799 3.5738 -2.0003 0.9802
-3.0057 3.4688 -2.0003 0.9802
-3.1276 3.3593 -2.0003 0.9802
-3.3593 3.1277 -2.0004 0.9802
-3.4689 3.0058 -2.0004 0.9802
-3.6745 2.7507 -2.0004 0.9802
-3.7704 2.6179 -2.0005 0.9802
-4.0288 2.1999 -2.0005 0.9802
-4.1756 1.9070 -2.0006 0.9802
-1.5875 0.5284 -0.7292 0.9927
-1.5485 0.3952 -0.6965 0.9931
-1.5214 0.3310 -0.6786 0.9932
-1.5151 0.2178 -0.6671 0.9933
4.3232 0.1544 -2.0024 0.9811
4.3009 0.4624 -2.0023 0.9811
4.2816 0.6156 -2.0022 0.9811
4.1037 1.3659 -2.0020 0.9811
4.0522 1.5114 -2.0019 0.9811
3.9339 1.7966 -2.0018 0.9811
3.7955 2.0725 -2.0017 0.9811
3.7190 2.2066 -2.0017 0.9811
3.5520 2.4662 -2.0016 0.9811
3.3668 2.7131 -2.0015 0.9811
3.0573 3.0573 -2.0013 0.9811
2.8312 3.2674 -2.0012 0.9811
2.7128 3.3663 -2.0012 0.9811
2.5908 3.4609 -2.0012 0.9811
2.4656 3.5511 -2.0011 0.9811
1.9350 3.8655 -2.0009 0.9811
0.9171 4.2160 -1.9972 0.9812
0.7659 4.2452 -1.9968 0.9812
0.6138 4.2691 -1.9964 0.9812
0.4610 4.2878 -1.9962 0.9812
0.3076 4.3011 -1.9960 0.9812
0.0000 4.3118 -1.9959 0.9812
-0.1539 4.3092 -1.9959 0.9812
-0.4610 4.2881 -1.9963 0.9812
-0.7660 4.2459 -1.9971 0.9812
-1.0675 4.1826 -1.9981 0.9812
-1.2165 4.1432 -1.9988 0.9811
-1.3642 4.0987 -1.9995 0.9811
-1.5102 4.0490 -2.0003 0.9811
-1.6538 3.9926 -2.0004 0.9811
-1.7952 3.9310 -2.0004 0.9811
-1.9344 3.8644 -2.0004 0.9811
-2.0711 3.7929 -2.0004 0.9811
-2.2051 3.7166 -2.0004 0.9811
-2.3364 3.6355 -2.0004 0.9811
-2.4647 3.5498 -2.0004 0.9811
-2.5898 3.4596 -2.0004 0.9811
-2.8300 3.2661 -2.0004 0.9811
-3.1630 2.9449 -2.0005 0.9811
-3.2662 2.8301 -2.0005 0.9811
-3.3651 2.7118 -2.0005 0.9811
-3.7934 2.0713 -2.0006 0.9811
-1.3150 0.6006 -0.6692 0.9936
-1.3263 0.5494 -0.6645 0.9937
-1.3324 0.4435 -0.6500 0.9938
-1.3240 0.3888 -0.6388 0.9939
-1.3273 0.1908 -0.6207 0.9941
-1.3376 0.0478 -0.6195 0.9941
4.0716 0.2912 -2.0023 0.9820
4.0403 0.5809 -2.0022 0.9820
3.9884 0.8676 -2.0021 0.9820
3.8725 1.2889 -2.0020 0.9820
3.8239 1.4262 -2.0019 0.9820
3.7705 1.5618 -2.0019 0.9820
3.7123 1.6953 -2.0018 0.9820
3.6493 1.8267 -2.0018 0.9820
3.1771 2.5603 -2.0015 0.9820
2.9863 2.7803 -2.0014 0.9820
2.8851 2.8851 -2.0014 0.9820
2.7802 2.9861 -2.0013 0.9820
2.6718 3.0834 -2.0013 0.9820
2.5600 3.1767 -2.0012 0.9820
2.4449 3.2660 -2.0012 0.9820
2.2056 3.4319 -2.0011 0.9820
2.0816 3.5084 -2.0011 0.9820
1.9550 3.5804 -2.0010 0.9820
1.6946 3.7106 -2.0009 0.9820
1.4255 3.8219 -2.0009 0.9820
1.0087 3.9522 -2.0008 0.9820
0.8670 3.9856 -2.0007 0.9820
0.7242 4.0139 -2.0007 0.9820
0.0000 4.0771 -1.9999 0.9820
-0.1455 4.0746 -2.0000 0.9820
-0.2909 4.0671 -2.0001 0.9820
-0.4359 4.0546 -2.0004 0.9820
-1.0086 3.9516 -2.0005 0.9820
-1.1490 3.9130 -2.0005 0.9820
-1.2879 3.8695 -2.0005 0.9820
-1.4252 3.8211 -2.0005 0.9820
-1.6941 3.7096 -2.0004 0.9820
-1.8255 3.6468 -2.0004 0.9820
-1.9545 3.5793 -2.0004 0.9820
-2.2048 3.4308 -2.0005 0.9820
-2.3259 3.3499 -2.0005 0.9820
-2.4440 3.2648 -2.0005 0.9820
-2.6707 3.0821 -2.0005 0.9820
-2.8838 2.8838 -2.0005 0.9820
-2.9849 2.7791 -2.0005 0.9820
-3.0822 2.6708 -2.0005 0.9820
-3.5077 2.0812 -2.0007 0.9820
-1.1113 0.6068 -0.6211 0.9944
-1.1400 0.5206 -0.6148 0.9944
-1.1543 0.4306 -0.6043 0.9945
-1.1578 0.3854 -0.5986 0.9946
-1.1590 0.3403 -0.5925 0.9946
-1.1578 0.2955 -0.5861 0.9947
-1.1791 0.2128 -0.5877 0.9947
-1.1964 0.0427 -0.5873 0.9947
3.8202 0.5493 -2.0022 0.9828
3.7393 0.9544 -2.0021 0.9828
3.6615 1.2187 -2.0020 0.9828
3.6156 1.3486 -2.0019 0.9828
3.3866 1.8492 -2.0017 0.9828
3.2459 2.0860 -2.0017 0.9828
3.1693 2.2005 -2.0016 0.9828
2.9157 2.5265 -2.0015 0.9828
2.8236 2.6289 -2.0014 0.9828
2.7279 2.7279 -2.0014 0.9828
2.6288 2.8235 -2.0013 0.9828
2.4206 3.0037 -2.0013 0.9828
2.3118 3.0881 -2.0012 0.9828
2.2000 3.1686 -2.0012 0.9828
2.0855 3.2451 -2.0011 0.9828
1.7266 3.4492 -2.0010 0.9828
1.6023 3.5086 -2.0010 0.9828
1.4760 3.5634 -2.0010 0.9828
1.0866 3.7006 -2.0009 0.9828
0.9538 3.7370 -2.0008 0.9828
0.6848 3.7954 -2.0008 0.9828
0.5489 3.8174 -2.0007 0.9828
0.4123 3.8345 -2.0007 0.9828
0.2751 3.8467 -2.0007 0.9828
0.1377 3.8541 -2.0007 0.9828
0.0000 3.8565 -2.0007 0.9828
-0.4122 3.8343 -2.0006 0.9828
-0.6847 3.7950 -2.0006 0.9828
-1.6019 3.5077 -2.0005 0.9828
-1.8481 3.3845 -2.0005 0.9828
-1.9677 3.3164 -2.0005 0.9828
-2.1993 3.1676 -2.0005 0.9828
-2.3109 3.0871 -2.0005 0.9828
-2.4197 3.0027 -2.0005 0.9828
-2.6277 2.8224 -2.0006 0.9828
-2.8224 2.6278 -2.0006 0.9828
-3.0028 2.4198 -2.0006 0.9828
-3.1678 2.1995 -2.0007 0.9828
-1.0514 0.4355 -0.5904 0.9949
-1.0617 0.3534 -0.5805 0.9950
-1.0636 0.3123 -0.5751 0.9950
-1.0704 0.2732 -0.5731 0.9950
-1.0905 0.1968 -0.5749 0.9950
-1.1066 0.0395 -0.5744 0.9950
3.6464 0.2608 -2.0023 0.9835
3.6347 0.3908 -2.0022 0.9835
3.6184 0.5202 -2.0022 0.9835
3.3768 1.3987 -2.0019 0.9835
3.3247 1.5183 -2.0018 0.9835
3.2683 1.6360 -2.0018 0.9835
3.2078 1.7516 -2.0018 0.9835
3.1431 1.8649 -2.0017 0.9835
2.8455 2.2930 -2.0015 0.9835
2.6746 2.4901 -2.0015 0.9835
2.5839 2.5839 -2.0014 0.9835
2.3929 2.7615 -2.0013 0.9835
2.2928 2.8451 -2.0013 0.9835
1.9754 3.0737 -2.0012 0.9835
1.6354 3.2671 -2.0011 0.9835
1.5177 3.3233 -2.0010 0.9835
1.0293 3.5053 -2.0009 0.9835
0.9035 3.5397 -2.0009 0.9835
0.3905 3.6321 -2.0008 0.9835
0.2606 3.6437 -2.0008 0.9835
0.0000 3.6529 -2.0007 0.9835
-0.1304 3.6506 -2.0007 0.9835
-0.6486 3.5947 -2.0006 0.9835
-0.7764 3.5693 -2.0006 0.9835
-0.9033 3.5393 -2.0006 0.9835
-1.1535 3.4658 -2.0006 0.9835
-1.3978 3.3746 -2.0006 0.9835
-1.7505 3.2059 -2.0006 0.9835
-1.8638 3.1414 -2.0006 0.9835
-2.0832 3.0004 -2.0006 0.9835
-2.1890 2.9242 -2.0006 0.9835
-2.4891 2.6734 -2.0006 0.9835
-2.5829 2.5829 -2.0006 0.9835
-2.7606 2.3921 -2.0007 0.9835
-2.9243 2.1891 -2.0007 0.9835
-0.8661 0.6014 -0.5775 0.9952
-0.8881 0.5708 -0.5782 0.9952
-0.9580 0.4375 -0.5768 0.9952
-0.9677 0.4008 -0.5737 0.9952
-0.9785 0.3257 -0.5648 0.9953
-0.9938 0.2537 -0.5618 0.9953
-1.0190 0.1465 -0.5638 0.9953
-1.0236 0.1101 -0.5639 0.9953
-1.0276 0.0367 -0.5632 0.9953
2.0320 0.0726 -1.1739 0.9907
2.0366 0.2190 -1.1826 0.9906
2.0300 0.2919 -1.1841 0.9906
2.0153 0.3636 -1.1823 0.9906
1.9883 0.4325 -1.1748 0.9906
1.9616 0.5007 -1.1688 0.9907
1.8620 0.7713 -1.1636 0.9907
3.1005 1.5520 -2.0018 0.9841
2.9817 1.7692 -2.0017 0.9841
2.8478 1.9773 -2.0016 0.9841
2.7754 2.0776 -2.0016 0.9841
2.6994 2.1753 -2.0016 0.9841
2.6200 2.2702 -2.0015 0.9841
2.5372 2.3622 -2.0015 0.9841
2.4513 2.4512 -2.0014 0.9841
2.3621 2.5371 -2.0014 0.9841
2.2701 2.6198 -2.0014 0.9841
2.1751 2.6991 -2.0013 0.9841
1.8740 2.9159 -2.0012 0.9841
1.6611 3.0421 -2.0011 0.9841
1.4398 3.1528 -2.0011 0.9841
1.3264 3.2021 -2.0010 0.9841
1.2112 3.2473 -2.0010 0.9841
1.0945 3.2884 -2.0010 0.9841
0.8571 3.3580 -2.0009 0.9841
0.6154 3.4106 -2.0009 0.9841
0.4932 3.4303 -2.0009 0.9841
0.0000 3.4654 -2.0008 0.9841
-0.1237 3.4632 -2.0008 0.9841
-0.3704 3.4455 -2.0007 0.9841
-0.4932 3.4301 -2.0007 0.9841
-0.6153 3.4102 -2.0007 0.9841
-0.8570 3.3576 -2.0007 0.9841
-0.9763 3.3249 -2.0007 0.9841
-1.0943 3.2879 -2.0007 0.9841
-1.2110 3.2468 -2.0007 0.9841
-1.5511 3.0987 -2.0006 0.9841
-1.7682 2.9802 -2.0007 0.9841
-1.8734 2.9152 -2.0007 0.9841
-2.3613 2.5362 -2.0007 0.9841
-2.4503 2.4504 -2.0007 0.9841
-2.6189 2.2693 -2.0007 0.9841
-0.7845 0.5873 -0.5658 0.9955
-0.8178 0.5256 -0.5613 0.9955
-0.8364 0.4963 -0.5615 0.9955
-0.8534 0.4660 -0.5614 0.9955
-0.8940 0.3703 -0.5587 0.9955
-0.9150 0.2687 -0.5506 0.9956
-0.9259 0.2363 -0.5517 0.9956
-0.9352 0.2035 -0.5526 0.9956
-0.9430 0.1701 -0.5532 0.9956
-0.9492 0.1365 -0.5536 0.9956
-0.9564 0.0684 -0.5536 0.9956
