ply
format ascii 1.0
element vertex 748
property float32 x
property float32 y
property float32 z
property float32 I
end_header
-9.4691 -0.3382 -2.0029 0.9620
-9.4216 -1.0129 -2.0030 0.9620
-9.1831 -2.3438 -2.0033 0.9620
-9.0939 -2.6702 -2.0034 0.9620
-8.9931 -2.9932 -2.0035 0.9620
-8.6225 -3.9378 -2.0037 0.9620
-8.4767 -4.2432 -2.0038 0.9620
-8.3201 -4.5431 -2.0038 0.9620
-8.1529 -4.8373 -2.0039 0.9620
-7.7875 -5.4070 -2.0040 0.9620
-7.1654 -6.2088 -2.0041 0.9620
-6.9394 -6.4608 -2.0042 0.9620
-6.7045 -6.7045 -2.0042 0.9620
-6.4610 -6.9397 -2.0043 0.9620
-5.1266 -7.9771 -2.0044 0.9620
-4.5445 -8.3227 -2.0044 0.9620
-3.6289 -8.7609 -2.0044 0.9620
-3.3139 -8.8848 -2.0045 0.9620
-2.6716 -9.0985 -2.0044 0.9620
-2.3451 -9.1881 -2.0044 0.9620
-2.0157 -9.2659 -2.0044 0.9620
-1.6836 -9.3318 -2.0044 0.9620
-1.3495 -9.3859 -2.0044 0.9620
-1.0136 -9.4280 -2.0044 0.9620
-0.6764 -9.4580 -2.0043 0.9620
-0.3384 -9.4760 -2.0043 0.9620
0.0000 -9.4819 -2.0043 0.9620
0.3384 -9.4757 -2.0043 0.9620
0.6764 -9.4574 -2.0042 0.9620
1.0135 -9.4271 -2.0042 0.9620
1.6834 -9.3303 -2.0041 0.9620
2.3446 -9.1860 -2.0040 0.9620
2.9938 -8.9949 -2.0039 0.9620
4.2429 -8.4762 -2.0036 0.9620
4.5426 -8.3191 -2.0036 0.9620
5.6794 -7.5868 -2.0033 0.9620
5.9463 -7.3790 -2.0032 0.9620
6.2057 -7.1617 -2.0031 0.9620
6.9348 -6.4565 -2.0029 0.9620
7.1606 -6.2046 -2.0028 0.9620
7.3771 -5.9449 -2.0027 0.9620
7.5843 -5.6775 -2.0026 0.9620
7.7818 -5.4029 -2.0025 0.9620
8.3136 -4.5396 -2.0022 0.9620
8.4699 -4.2397 -2.0022 0.9620
8.6155 -3.9345 -2.0021 0.9620
8.7500 -3.6244 -2.0020 0.9620
8.9855 -2.9907 -2.0018 0.9620
9.0861 -2.6679 -2.0017 0.9620
9.2524 -2.0127 -2.0015 0.9620
9.3716 -1.3474 -2.0013 0.9620
9.4133 -1.0120 -2.0012 0.9620
9.4430 -0.6754 -2.0012 0.9620
-8.5212 0.0000 -2.0027 0.9656
-8.4733 -0.9110 -2.0029 0.9656
-8.4358 -1.2129 -2.0030 0.9656
-8.3283 -1.8117 -2.0031 0.9656
-8.2586 -2.1079 -2.0032 0.9656
-8.1784 -2.4014 -2.0033 0.9656
-8.0878 -2.6918 -2.0033 0.9656
-7.7544 -3.5413 -2.0035 0.9656
-7.6233 -3.8159 -2.0036 0.9656
-7.3320 -4.3503 -2.0037 0.9656
-7.1722 -4.6093 -2.0037 0.9656
-6.8255 -5.1095 -2.0038 0.9656
-6.6389 -5.3500 -2.0039 0.9656
-6.4438 -5.5836 -2.0039 0.9656
-5.8104 -6.2408 -2.0040 0.9656
-5.5840 -6.4443 -2.0040 0.9656
-5.1102 -6.8264 -2.0041 0.9656
-4.8633 -7.0045 -2.0041 0.9656
-4.3513 -7.3338 -2.0042 0.9656
-4.0868 -7.4845 -2.0042 0.9656
-3.8171 -7.6256 -2.0042 0.9656
-2.4025 -8.1822 -2.0042 0.9656
-1.8127 -8.3327 -2.0042 0.9656
-1.5141 -8.3920 -2.0042 0.9656
-1.2136 -8.4406 -2.0041 0.9656
-0.9115 -8.4785 -2.0041 0.9656
-0.6083 -8.5055 -2.0041 0.9656
-0.3043 -8.5217 -2.0041 0.9656
0.3044 -8.5215 -2.0040 0.9656
1.2134 -8.4396 -2.0039 0.9656
1.5139 -8.3908 -2.0039 0.9656
2.1085 -8.2610 -2.0038 0.9656
2.4020 -8.1803 -2.0037 0.9656
3.5413 -7.7544 -2.0035 0.9656
4.3495 -7.3307 -2.0033 0.9656
4.6083 -7.1706 -2.0033 0.9656
5.1077 -6.8231 -2.0031 0.9656
5.3478 -6.6362 -2.0031 0.9656
6.6347 -5.3466 -2.0026 0.9656
6.9987 -4.8593 -2.0024 0.9656
7.1674 -4.6062 -2.0024 0.9656
7.4771 -4.0828 -2.0022 0.9656
7.6178 -3.8132 -2.0021 0.9656
7.7487 -3.5387 -2.0020 0.9656
8.0816 -2.6898 -2.0018 0.9656
8.1721 -2.3995 -2.0017 0.9656
8.2522 -2.1062 -2.0016 0.9656
8.3808 -1.5120 -2.0015 0.9656
8.4666 -0.9102 -2.0013 0.9656
8.4933 -0.6075 -2.0012 0.9656
-7.7299 -0.2761 -2.0027 0.9685
-7.6910 -0.8269 -2.0028 0.9685
-7.6568 -1.1009 -2.0029 0.9685
-7.1483 -2.9609 -2.0033 0.9685
-7.0382 -3.2142 -2.0034 0.9685
-6.9192 -3.4635 -2.0034 0.9685
-6.7913 -3.7083 -2.0035 0.9685
-6.1950 -4.6375 -2.0036 0.9685
-5.4723 -5.4723 -2.0038 0.9685
-5.2736 -5.6643 -2.0038 0.9685
-5.0682 -5.8490 -2.0038 0.9685
-4.4140 -6.3574 -2.0039 0.9685
-3.9493 -6.6562 -2.0039 0.9685
-3.7092 -6.7930 -2.0040 0.9685
-3.4644 -6.9211 -2.0040 0.9685
-3.2152 -7.0404 -2.0040 0.9685
-2.7048 -7.2518 -2.0040 0.9685
-2.4442 -7.3437 -2.0040 0.9685
-2.1805 -7.4263 -2.0040 0.9685
-1.3742 -7.6167 -2.0039 0.9685
-0.8273 -7.6952 -2.0039 0.9685
-0.2762 -7.7345 -2.0039 0.9685
0.0000 -7.7393 -2.0038 0.9685
0.2762 -7.7343 -2.0038 0.9685
0.5521 -7.7194 -2.0038 0.9685
1.1014 -7.6600 -2.0037 0.9685
1.9138 -7.4980 -2.0036 0.9685
2.1801 -7.4247 -2.0036 0.9685
2.4437 -7.3420 -2.0035 0.9685
2.7041 -7.2500 -2.0035 0.9685
3.4633 -6.9188 -2.0033 0.9685
3.9479 -6.6537 -2.0032 0.9685
4.1827 -6.5084 -2.0031 0.9685
4.6361 -6.1931 -2.0030 0.9685
4.8540 -6.0234 -2.0029 0.9685
5.4695 -5.4695 -2.0027 0.9685
5.6611 -5.2706 -2.0027 0.9685
5.8454 -5.0650 -2.0026 0.9685
6.1914 -4.6348 -2.0025 0.9685
6.3526 -4.4107 -2.0024 0.9686
6.5058 -4.1810 -2.0023 0.9686
6.7870 -3.7060 -2.0022 0.9686
7.1434 -2.9589 -2.0020 0.9686
7.2442 -2.7020 -2.0019 0.9686
7.3358 -2.4416 -2.0018 0.9686
7.6513 -1.1001 -2.0014 0.9686
7.6854 -0.8262 -2.0014 0.9686
7.7097 -0.5514 -2.0013 0.9686
7.7242 -0.2759 -2.0012 0.9686
-7.0695 -0.2525 -2.0026 0.9710
-7.0562 -0.5047 -2.0027 0.9710
-7.0027 -1.0068 -2.0028 0.9710
-6.8555 -1.7498 -2.0030 0.9710
-6.7136 -2.2345 -2.0031 0.9710
-6.6297 -2.4728 -2.0031 0.9710
-6.5374 -2.7079 -2.0032 0.9710
-6.4368 -2.9396 -2.0032 0.9710
-6.2109 -3.3914 -2.0033 0.9710
-5.9534 -3.8261 -2.0034 0.9710
-5.8132 -4.0362 -2.0035 0.9710
-5.6655 -4.2412 -2.0035 0.9710
-5.5107 -4.4408 -2.0035 0.9710
-4.0367 -5.8140 -2.0037 0.9710
-3.8267 -5.9545 -2.0038 0.9710
-2.9404 -6.4386 -2.0038 0.9710
-2.7087 -6.5394 -2.0038 0.9710
-2.4736 -6.6319 -2.0038 0.9710
-0.7566 -7.0375 -2.0037 0.9710
0.0000 -7.0778 -2.0037 0.9710
0.5049 -7.0596 -2.0036 0.9710
1.0072 -7.0054 -2.0036 0.9710
1.2566 -6.9648 -2.0035 0.9710
1.5044 -6.9154 -2.0035 0.9710
1.9938 -6.7902 -2.0034 0.9710
2.2348 -6.7146 -2.0034 0.9710
2.7080 -6.5378 -2.0033 0.9710
2.9396 -6.4368 -2.0032 0.9710
3.3911 -6.2104 -2.0031 0.9710
4.2400 -5.6639 -2.0029 0.9710
4.8207 -5.1778 -2.0027 0.9710
5.0023 -5.0022 -2.0027 0.9710
5.3460 -4.6324 -2.0025 0.9710
5.5078 -4.4385 -2.0025 0.9710
5.6625 -4.2389 -2.0024 0.9710
5.8100 -4.0340 -2.0024 0.9710
6.4329 -2.9378 -2.0020 0.9710
6.5334 -2.7062 -2.0019 0.9710
6.6256 -2.4712 -2.0019 0.9710
6.8511 -1.7486 -2.0017 0.9710
6.9980 -1.0062 -2.0015 0.9710
7.0293 -0.7557 -2.0014 0.9710
7.0515 -0.5043 -2.0013 0.9710
7.0648 -0.2523 -2.0013 0.9710
-6.5065 -0.2324 -2.0026 0.9731
-6.4943 -0.4645 -2.0026 0.9731
-6.4738 -0.6960 -2.0027 0.9731
-6.4450 -0.9267 -2.0027 0.9731
-6.4080 -1.1561 -2.0028 0.9731
-6.2482 -1.8346 -2.0029 0.9731
-6.1017 -2.2758 -2.0030 0.9731
-6.0167 -2.4922 -2.0031 0.9731
-5.8238 -2.9152 -2.0032 0.9731
-5.7162 -3.1213 -2.0032 0.9731
-5.4792 -3.5213 -2.0033 0.9731
-5.2142 -3.9033 -2.0034 0.9731
-5.0716 -4.0870 -2.0034 0.9731
-4.9226 -4.2655 -2.0034 0.9731
-4.7673 -4.4385 -2.0035 0.9731
-4.6059 -4.6059 -2.0035 0.9731
-4.2657 -4.9229 -2.0035 0.9731
-3.9037 -5.2147 -2.0036 0.9731
-3.1219 -5.7174 -2.0036 0.9731
-2.7061 -5.9255 -2.0036 0.9731
-2.0572 -6.1809 -2.0036 0.9731
-1.3847 -6.3653 -2.0036 0.9731
-1.1566 -6.4107 -2.0036 0.9731
-0.9271 -6.4478 -2.0036 0.9731
-0.6963 -6.4767 -2.0036 0.9731
-0.2325 -6.5098 -2.0036 0.9731
0.0000 -6.5139 -2.0035 0.9731
0.2325 -6.5097 -2.0035 0.9731
0.4647 -6.4971 -2.0035 0.9731
0.9270 -6.4473 -2.0034 0.9731
1.1565 -6.4100 -2.0034 0.9731
2.2760 -6.1022 -2.0032 0.9731
3.1210 -5.7157 -2.0030 0.9731
3.3229 -5.6005 -2.0030 0.9731
3.5206 -5.4782 -2.0029 0.9731
3.9023 -5.2128 -2.0028 0.9731
4.0857 -5.0701 -2.0028 0.9731
4.2640 -4.9209 -2.0027 0.9731
4.4368 -4.7654 -2.0027 0.9731
4.6039 -4.6039 -2.0026 0.9731
4.7652 -4.4365 -2.0026 0.9731
4.9203 -4.2635 -2.0025 0.9731
5.3474 -3.7127 -2.0023 0.9731
5.4763 -3.5194 -2.0023 0.9731
5.5983 -3.3216 -2.0022 0.9731
6.0981 -2.2745 -2.0019 0.9731
6.1753 -2.0553 -2.0018 0.9731
6.3057 -1.6094 -2.0017 0.9731
6.3590 -1.3833 -2.0016 0.9731
6.4410 -0.9261 -2.0015 0.9731
6.4903 -0.4642 -2.0014 0.9731
6.5026 -0.2322 -2.0013 0.9731
-6.0091 -0.4298 -2.0026 0.9749
-5.9901 -0.6440 -2.0026 0.9749
-5.8380 -1.4901 -2.0028 0.9749
-5.7171 -1.9028 -2.0029 0.9749
-5.6457 -2.1057 -2.0029 0.9749
-5.4813 -2.5032 -2.0030 0.9749
-5.3886 -2.6973 -2.0031 0.9749
-5.2890 -2.8880 -2.0031 0.9749
-5.1826 -3.0750 -2.0031 0.9749
-5.0697 -3.2581 -2.0032 0.9749
-4.9502 -3.4370 -2.0032 0.9749
-4.8245 -3.6116 -2.0033 0.9749
-4.6926 -3.7815 -2.0033 0.9749
-4.4110 -4.1067 -2.0033 0.9749
-3.9468 -4.5549 -2.0034 0.9749
-3.7818 -4.6929 -2.0034 0.9749
-3.4374 -4.9508 -2.0035 0.9749
-2.8886 -5.2900 -2.0035 0.9749
-2.6979 -5.3897 -2.0035 0.9749
-2.5038 -5.4826 -2.0035 0.9749
-2.3065 -5.5685 -2.0035 0.9749
-1.9034 -5.7189 -2.0035 0.9749
-1.0701 -5.9315 -2.0035 0.9749
-0.6443 -5.9926 -2.0035 0.9749
-0.4300 -6.0118 -2.0034 0.9749
0.4300 -6.0115 -2.0034 0.9749
0.6442 -5.9923 -2.0033 0.9749
1.9031 -5.7178 -2.0032 0.9749
2.1059 -5.6462 -2.0031 0.9749
2.3061 -5.5673 -2.0031 0.9749
2.5033 -5.4813 -2.0030 0.9749
2.6972 -5.3884 -2.0030 0.9749
2.8878 -5.2886 -2.0029 0.9749
3.4363 -4.9492 -2.0028 0.9749
3.9454 -4.5532 -2.0027 0.9749
4.4091 -4.1050 -2.0025 0.9749
4.8223 -3.6099 -2.0023 0.9749
5.2863 -2.8865 -2.0021 0.9749
5.3859 -2.6960 -2.0021 0.9749
5.5641 -2.3047 -2.0019 0.9749
5.6427 -2.1046 -2.0019 0.9749
5.8348 -1.4892 -2.0017 0.9749
5.8841 -1.2800 -2.0016 0.9749
5.9601 -0.8569 -2.0015 0.9749
5.9867 -0.6436 -2.0015 0.9749
6.0170 -0.2149 -2.0014 0.9749
-5.5960 -0.1999 -2.0025 0.9765
-5.5678 -0.5986 -2.0026 0.9765
-5.5430 -0.7970 -2.0026 0.9765
-5.5112 -0.9943 -2.0027 0.9765
-5.4723 -1.1904 -2.0027 0.9765
-5.4264 -1.3850 -2.0027 0.9765
-5.3737 -1.5779 -2.0028 0.9765
-5.1745 -2.1434 -2.0029 0.9765
-4.0999 -3.8171 -2.0032 0.9765
-3.9611 -3.9611 -2.0033 0.9765
-3.8172 -4.1000 -2.0033 0.9765
-3.6685 -4.2337 -2.0033 0.9765
-3.5151 -4.3620 -2.0033 0.9765
-3.3572 -4.4847 -2.0033 0.9765
-3.1950 -4.6017 -2.0033 0.9765
-2.6848 -4.9169 -2.0034 0.9765
-2.3272 -5.0960 -2.0034 0.9765
-1.9578 -5.2490 -2.0034 0.9765
-1.7692 -5.3155 -2.0034 0.9765
-1.5783 -5.3753 -2.0034 0.9765
-1.1908 -5.4742 -2.0034 0.9765
-0.7973 -5.5451 -2.0034 0.9765
-0.3996 -5.5878 -2.0033 0.9765
-0.1999 -5.5984 -2.0033 0.9765
0.3996 -5.5876 -2.0033 0.9765
0.7972 -5.5447 -2.0032 0.9765
0.9946 -5.5126 -2.0032 0.9765
1.1907 -5.4735 -2.0032 0.9765
1.7689 -5.3146 -2.0031 0.9765
2.1435 -5.1747 -2.0030 0.9765
2.3267 -5.0948 -2.0030 0.9765
2.6842 -4.9157 -2.0029 0.9765
2.8578 -4.8166 -2.0028 0.9765
3.0279 -4.7115 -2.0028 0.9765
3.3561 -4.4832 -2.0027 0.9765
3.6672 -4.2322 -2.0026 0.9765
3.8159 -4.0985 -2.0026 0.9765
4.0983 -3.8157 -2.0025 0.9765
4.2318 -3.6669 -2.0024 0.9765
4.3599 -3.5134 -2.0024 0.9765
4.8150 -2.8569 -2.0021 0.9765
5.0924 -2.3256 -2.0020 0.9765
5.1720 -2.1423 -2.0019 0.9765
5.2450 -1.9563 -2.0019 0.9765
5.3114 -1.7678 -2.0018 0.9765
5.4237 -1.3843 -2.0017 0.9765
5.4695 -1.1898 -2.0017 0.9765
5.5083 -0.9938 -2.0016 0.9765
5.5401 -0.7965 -2.0016 0.9765
5.5649 -0.5983 -2.0015 0.9765
5.5825 -0.3993 -2.0014 0.9765
5.5931 -0.1997 -2.0014 0.9765
-5.2121 -0.3728 -2.0025 0.9779
-5.1956 -0.5586 -2.0025 0.9779
-5.1064 -1.1108 -2.0026 0.9779
-5.0636 -1.2924 -2.0027 0.9779
-5.0144 -1.4724 -2.0027 0.9779
-4.9587 -1.6504 -2.0028 0.9779
-4.8285 -2.0000 -2.0028 0.9779
-4.5873 -2.5049 -2.0029 0.9779
-4.3971 -2.8258 -2.0030 0.9779
-4.0700 -3.2798 -2.0031 0.9779
-3.8257 -3.5619 -2.0031 0.9779
-3.6962 -3.6962 -2.0032 0.9779
-3.5619 -3.8258 -2.0032 0.9779
-3.1327 -4.1848 -2.0032 0.9779
-2.9813 -4.2939 -2.0033 0.9779
-2.8262 -4.3976 -2.0033 0.9779
-1.8268 -4.8979 -2.0033 0.9779
-1.6509 -4.9600 -2.0033 0.9779
-1.1112 -5.1081 -2.0033 0.9779
-0.7439 -5.1743 -2.0033 0.9779
-0.3729 -5.2141 -2.0032 0.9779
-0.1866 -5.2240 -2.0032 0.9779
0.0000 -5.2273 -2.0032 0.9779
0.3729 -5.2139 -2.0032 0.9779
0.7439 -5.1739 -2.0031 0.9779
1.4726 -5.0151 -2.0030 0.9779
1.6506 -4.9593 -2.0030 0.9779
1.8265 -4.8971 -2.0029 0.9779
2.5047 -4.5870 -2.0028 0.9779
2.8254 -4.3965 -2.0027 0.9779
2.9805 -4.2927 -2.0027 0.9779
3.1317 -4.1835 -2.0026 0.9779
3.2790 -4.0690 -2.0026 0.9779
3.4221 -3.9493 -2.0026 0.9779
3.8244 -3.5606 -2.0024 0.9779
3.9489 -3.4217 -2.0024 0.9779
4.1828 -3.1312 -2.0023 0.9779
4.2917 -2.9798 -2.0022 0.9779
4.3953 -2.8246 -2.0022 0.9779
4.5853 -2.5038 -2.0021 0.9779
4.6717 -2.3385 -2.0020 0.9779
4.7520 -2.1702 -2.0020 0.9779
5.1699 -0.7433 -2.0016 0.9779
5.1930 -0.5583 -2.0015 0.9779
5.2095 -0.3726 -2.0015 0.9779
5.2194 -0.1864 -2.0014 0.9779
-1.9524 -0.1396 -0.8011 0.9916
-2.1703 -0.3916 -0.9026 0.9905
-4.7812 -1.0401 -2.0026 0.9791
-4.6950 -1.3786 -2.0027 0.9791
-4.6429 -1.5453 -2.0027 0.9791
-4.4513 -2.0329 -2.0028 0.9791
-4.3760 -2.1905 -2.0028 0.9791
-4.2087 -2.4972 -2.0029 0.9791
-3.9179 -2.9329 -2.0030 0.9791
-3.8107 -3.0709 -2.0030 0.9791
-3.6987 -3.2050 -2.0030 0.9791
-3.5820 -3.3350 -2.0031 0.9791
-3.4607 -3.4607 -2.0031 0.9791
-2.9331 -3.9182 -2.0032 0.9791
-2.7914 -4.0204 -2.0032 0.9791
-2.6461 -4.1175 -2.0032 0.9791
-2.4975 -4.2093 -2.0032 0.9791
-2.3457 -4.2958 -2.0032 0.9791
-2.1909 -4.3768 -2.0032 0.9791
-1.8730 -4.5220 -2.0032 0.9791
-1.5457 -4.6440 -2.0032 0.9791
-1.3789 -4.6962 -2.0032 0.9791
-1.0404 -4.7826 -2.0032 0.9791
-0.8690 -4.8167 -2.0032 0.9791
-0.6965 -4.8446 -2.0032 0.9791
-0.5232 -4.8664 -2.0032 0.9791
-0.3492 -4.8819 -2.0032 0.9791
-0.1747 -4.8912 -2.0031 0.9791
0.0000 -4.8943 -2.0031 0.9791
0.1747 -4.8912 -2.0031 0.9791
0.3492 -4.8818 -2.0031 0.9791
0.5232 -4.8661 -2.0031 0.9791
1.0403 -4.7822 -2.0030 0.9791
1.2103 -4.7419 -2.0030 0.9791
1.3788 -4.6956 -2.0029 0.9791
1.5455 -4.6434 -2.0029 0.9791
1.7102 -4.5852 -2.0029 0.9791
1.8727 -4.5211 -2.0028 0.9791
2.1904 -4.3759 -2.0028 0.9791
2.4969 -4.2083 -2.0027 0.9791
2.7907 -4.0193 -2.0026 0.9791
3.0702 -3.8098 -2.0026 0.9791
3.5808 -3.3339 -2.0024 0.9791
3.6974 -3.2038 -2.0023 0.9791
3.9164 -2.9318 -2.0023 0.9791
4.0185 -2.7900 -2.0022 0.9791
4.1154 -2.6448 -2.0022 0.9791
4.2071 -2.4962 -2.0021 0.9791
4.4495 -2.0320 -2.0020 0.9791
4.5191 -1.8719 -2.0019 0.9791
4.6409 -1.5446 -2.0018 0.9791
4.6929 -1.3780 -2.0018 0.9791
4.8625 -0.5228 -2.0015 0.9791
-1.5222 0.0000 -0.6634 0.9934
-1.5293 -0.1094 -0.6682 0.9933
-1.5151 -0.2179 -0.6671 0.9933
-1.5001 -0.2707 -0.6643 0.9934
-1.5214 -0.3310 -0.6786 0.9932
-1.5485 -0.3952 -0.6965 0.9931
-1.5706 -0.4612 -0.7134 0.9929
-1.5875 -0.5284 -0.7292 0.9927
-1.5984 -0.5962 -0.7435 0.9926
-4.2455 -1.7585 -2.0027 0.9801
-4.1801 -1.9090 -2.0028 0.9801
-4.1094 -2.0570 -2.0028 0.9801
-3.9523 -2.3450 -2.0028 0.9801
-3.7750 -2.6211 -2.0029 0.9801
-3.6791 -2.7542 -2.0029 0.9801
-3.5785 -2.8837 -2.0029 0.9801
-3.4733 -3.0097 -2.0030 0.9801
-3.2499 -3.2499 -2.0030 0.9801
-3.1318 -3.3638 -2.0030 0.9801
-3.0098 -3.4735 -2.0030 0.9801
-2.8839 -3.5787 -2.0031 0.9801
-2.7544 -3.6794 -2.0031 0.9801
-2.4849 -3.8666 -2.0031 0.9801
-2.0574 -4.1101 -2.0031 0.9801
-1.9093 -4.1809 -2.0031 0.9801
-1.7589 -4.2464 -2.0031 0.9801
-1.6062 -4.3065 -2.0031 0.9801
-1.4515 -4.3610 -2.0031 0.9801
-0.9770 -4.4912 -2.0031 0.9801
-0.6541 -4.5494 -2.0031 0.9801
-0.3279 -4.5844 -2.0031 0.9801
-0.1640 -4.5932 -2.0031 0.9801
0.0000 -4.5961 -2.0030 0.9801
0.1641 -4.5931 -2.0030 0.9801
0.3279 -4.5843 -2.0030 0.9801
0.9769 -4.4908 -2.0029 0.9801
1.1366 -4.4530 -2.0029 0.9801
1.2948 -4.4095 -2.0029 0.9801
1.6060 -4.3058 -2.0028 0.9801
1.7586 -4.2457 -2.0028 0.9801
2.2023 -4.0332 -2.0027 0.9801
2.3448 -3.9519 -2.0027 0.9801
2.4843 -3.8657 -2.0026 0.9801
2.7536 -3.6784 -2.0026 0.9802
3.0089 -3.4725 -2.0025 0.9802
3.2489 -3.2488 -2.0024 0.9802
3.3627 -3.1308 -2.0024 0.9802
3.4722 -3.0087 -2.0023 0.9802
3.7737 -2.6201 -2.0022 0.9802
3.8647 -2.4837 -2.0021 0.9802
3.9508 -2.3441 -2.0021 0.9802
4.0319 -2.2016 -2.0021 0.9802
4.1078 -2.0562 -2.0020 0.9802
4.1785 -1.9082 -2.0020 0.9802
4.2438 -1.7578 -2.0019 0.9802
4.3582 -1.4506 -2.0018 0.9802
4.4071 -1.2940 -2.0018 0.9802
4.4504 -1.1359 -2.0017 0.9802
4.5664 -0.4909 -2.0016 0.9802
-1.3384 -0.0957 -0.6211 0.9941
-1.3351 -0.1435 -0.6215 0.9941
-1.3160 -0.2374 -0.6190 0.9941
-1.3116 -0.3348 -0.6266 0.9941
-1.3240 -0.3888 -0.6388 0.9939
-1.3324 -0.4435 -0.6500 0.9938
-1.3263 -0.5494 -0.6645 0.9937
-3.8690 -1.9367 -2.0027 0.9811
-3.7211 -2.2078 -2.0028 0.9811
-3.5542 -2.4677 -2.0028 0.9811
-3.4639 -2.5930 -2.0029 0.9811
-2.7152 -3.3693 -2.0030 0.9811
-2.5932 -3.4641 -2.0030 0.9811
-1.6560 -3.9979 -2.0031 0.9811
-1.0702 -4.1929 -2.0030 0.9811
-0.7683 -4.2585 -2.0030 0.9811
-0.4625 -4.3025 -2.0030 0.9811
-0.3087 -4.3162 -2.0030 0.9811
-0.1544 -4.3244 -2.0030 0.9811
0.1545 -4.3244 -2.0030 0.9811
0.6158 -4.2830 -2.0029 0.9811
1.0701 -4.1925 -2.0028 0.9811
1.2190 -4.1515 -2.0028 0.9811
1.3664 -4.1053 -2.0028 0.9811
1.6557 -3.9973 -2.0027 0.9811
2.0735 -3.7972 -2.0026 0.9811
2.2076 -3.7207 -2.0026 0.9811
2.3390 -3.6395 -2.0026 0.9811
2.8329 -3.2694 -2.0024 0.9811
3.0588 -3.0588 -2.0024 0.9811
3.2691 -2.8327 -2.0023 0.9811
3.5530 -2.4669 -2.0022 0.9811
3.7198 -2.2070 -2.0021 0.9811
3.7961 -2.0728 -2.0020 0.9811
3.8676 -1.9360 -2.0020 0.9811
3.9341 -1.7967 -2.0020 0.9811
3.9957 -1.6550 -2.0019 0.9811
4.0521 -1.5113 -2.0019 0.9811
4.2256 -0.9192 -2.0017 0.9811
4.2556 -0.7678 -2.0017 0.9811
4.2802 -0.6154 -2.0016 0.9811
4.2994 -0.4622 -2.0016 0.9811
4.3131 -0.3085 -2.0015 0.9811
4.3212 -0.1543 -2.0015 0.9811
-1.1953 -0.0855 -0.5878 0.9947
-1.1867 -0.1706 -0.5881 0.9947
-1.1578 -0.3854 -0.5986 0.9946
-1.1400 -0.5206 -0.6148 0.9944
-1.1291 -0.5652 -0.6194 0.9944
-3.4348 -2.2074 -2.0028 0.9820
-3.2686 -2.4468 -2.0028 0.9820
-3.1792 -2.5620 -2.0028 0.9820
-3.0858 -2.6738 -2.0028 0.9820
-2.9884 -2.7823 -2.0029 0.9820
-2.7823 -2.9885 -2.0029 0.9820
-2.5621 -3.1794 -2.0029 0.9820
-2.3288 -3.3541 -2.0030 0.9820
-2.2076 -3.4351 -2.0030 0.9820
-2.0836 -3.5117 -2.0030 0.9820
-1.9569 -3.5839 -2.0030 0.9820
-1.4270 -3.8259 -2.0030 0.9820
-1.2895 -3.8744 -2.0030 0.9820
-1.0098 -3.9565 -2.0030 0.9820
-0.7250 -4.0184 -2.0030 0.9820
-0.5811 -4.0417 -2.0030 0.9820
-0.4365 -4.0599 -2.0030 0.9820
-0.1457 -4.0806 -2.0029 0.9820
0.0000 -4.0832 -2.0029 0.9820
0.2913 -4.0728 -2.0029 0.9820
0.5811 -4.0415 -2.0028 0.9820
0.8679 -3.9897 -2.0028 0.9820
1.4268 -3.8254 -2.0027 0.9820
1.5624 -3.7720 -2.0027 0.9820
1.6960 -3.7137 -2.0027 0.9820
1.9566 -3.5832 -2.0026 0.9820
2.0832 -3.5110 -2.0026 0.9820
2.2071 -3.4344 -2.0025 0.9820
2.4464 -3.2681 -2.0025 0.9820
2.5615 -3.1786 -2.0024 0.9820
2.6733 -3.0851 -2.0024 0.9820
2.7816 -2.9877 -2.0024 0.9820
2.9876 -2.7815 -2.0023 0.9820
3.1783 -2.5612 -2.0022 0.9820
3.2676 -2.4461 -2.0022 0.9820
3.3528 -2.3279 -2.0022 0.9820
3.4337 -2.2067 -2.0021 0.9820
3.5102 -2.0827 -2.0021 0.9820
3.5822 -1.9560 -2.0020 0.9820
3.6497 -1.8269 -2.0020 0.9820
3.7125 -1.6954 -2.0020 0.9820
3.7705 -1.5618 -2.0019 0.9820
3.8722 -1.2888 -2.0018 0.9820
4.0391 -0.5807 -2.0016 0.9820
4.0572 -0.4362 -2.0016 0.9820
-1.1058 0.0000 -0.5737 0.9950
-1.1066 -0.0395 -0.5744 0.9950
-1.1055 -0.0791 -0.5750 0.9950
-1.1024 -0.1185 -0.5752 0.9950
-1.0905 -0.1967 -0.5749 0.9950
-1.0814 -0.2353 -0.5741 0.9950
-1.0118 -0.5525 -0.5981 0.9948
-3.1711 -2.2017 -2.0027 0.9828
-3.0060 -2.4224 -2.0028 0.9828
-2.9176 -2.5281 -2.0028 0.9828
-2.8256 -2.6307 -2.0028 0.9828
-2.7299 -2.7299 -2.0028 0.9828
-2.6307 -2.8256 -2.0028 0.9828
-2.3137 -3.0907 -2.0029 0.9828
-1.8503 -3.3886 -2.0029 0.9828
-1.7282 -3.4525 -2.0029 0.9828
-1.3492 -3.6174 -2.0029 0.9828
-1.2193 -3.6633 -2.0029 0.9828
-0.8207 -3.7726 -2.0029 0.9828
-0.6855 -3.7995 -2.0029 0.9828
-0.4127 -3.8387 -2.0029 0.9828
-0.2754 -3.8509 -2.0029 0.9828
-0.1378 -3.8583 -2.0029 0.9828
0.0000 -3.8607 -2.0029 0.9828
0.2754 -3.8508 -2.0028 0.9828
0.4127 -3.8385 -2.0028 0.9828
0.5494 -3.8213 -2.0028 0.9828
0.9547 -3.7406 -2.0027 0.9828
1.0876 -3.7041 -2.0027 0.9828
1.3491 -3.6169 -2.0027 0.9828
1.6036 -3.5114 -2.0026 0.9828
1.8500 -3.3880 -2.0026 0.9828
2.2014 -3.1707 -2.0025 0.9828
2.3132 -3.0900 -2.0024 0.9828
2.6301 -2.8249 -2.0023 0.9828
3.1701 -2.2010 -2.0021 0.9828
3.3871 -1.8495 -2.0020 0.9828
3.5102 -1.6031 -2.0020 0.9828
3.6155 -1.3485 -2.0019 0.9828
3.6613 -1.2186 -2.0018 0.9828
3.7024 -1.0871 -2.0018 0.9828
3.7387 -0.9543 -2.0018 0.9828
3.7972 -0.6851 -2.0017 0.9828
3.8557 -0.1377 -2.0015 0.9828
-1.0265 -0.0734 -0.5637 0.9953
-1.0123 -0.1826 -0.5634 0.9953
-1.0039 -0.2184 -0.5627 0.9953
-0.9938 -0.2537 -0.5618 0.9953
-0.9820 -0.2883 -0.5606 0.9953
-0.9785 -0.3257 -0.5648 0.9953
-0.9677 -0.4008 -0.5737 0.9952
-0.9580 -0.4375 -0.5768 0.9952
-0.9269 -0.5061 -0.5784 0.9952
-0.8882 -0.5708 -0.5782 0.9952
-0.8661 -0.6014 -0.5775 0.9952
-2.8472 -2.2944 -2.0027 0.9835
-2.7635 -2.3946 -2.0027 0.9835
-2.6763 -2.4917 -2.0028 0.9835
-2.5857 -2.5857 -2.0028 0.9835
-2.2945 -2.8473 -2.0028 0.9835
-2.1914 -2.9274 -2.0028 0.9835
-1.8660 -3.1449 -2.0029 0.9835
-1.7525 -3.2095 -2.0029 0.9835
-1.5191 -3.3264 -2.0029 0.9835
-0.9043 -3.5432 -2.0029 0.9835
-0.7773 -3.5733 -2.0029 0.9835
-0.6493 -3.5987 -2.0029 0.9835
-0.2609 -3.6475 -2.0028 0.9835
-0.1305 -3.6544 -2.0028 0.9835
0.0000 -3.6567 -2.0028 0.9835
0.3909 -3.6357 -2.0028 0.9835
0.5204 -3.6194 -2.0027 0.9835
0.9043 -3.5429 -2.0027 0.9835
1.2778 -3.4259 -2.0026 0.9835
1.3992 -3.3780 -2.0026 0.9835
1.5189 -3.3259 -2.0026 0.9835
1.7523 -3.2090 -2.0025 0.9835
1.8656 -3.1444 -2.0025 0.9835
2.0851 -3.0032 -2.0024 0.9835
2.2940 -2.8467 -2.0024 0.9835
2.3941 -2.7630 -2.0024 0.9835
2.4912 -2.6757 -2.0023 0.9835
2.8464 -2.2938 -2.0022 0.9835
3.0751 -1.9763 -2.0021 0.9835
3.1437 -1.8652 -2.0021 0.9835
3.2082 -1.7518 -2.0020 0.9835
3.2686 -1.6361 -2.0020 0.9835
3.5069 -1.0297 -2.0018 0.9835
3.5413 -0.9039 -2.0018 0.9835
3.5713 -0.7769 -2.0017 0.9835
3.6175 -0.5201 -2.0017 0.9835
3.6337 -0.3907 -2.0016 0.9835
3.6521 -0.1304 -2.0016 0.9835
-0.9565 -0.0684 -0.5536 0.9956
-0.9430 -0.1701 -0.5532 0.9956
-0.9352 -0.2034 -0.5526 0.9956
-0.9150 -0.2687 -0.5506 0.9956
-0.9011 -0.3361 -0.5553 0.9956
-0.8823 -0.4029 -0.5600 0.9955
-0.8687 -0.4349 -0.5609 0.9955
-0.8534 -0.4660 -0.5614 0.9955
-0.8178 -0.5256 -0.5613 0.9955
-0.8008 -0.5560 -0.5628 0.9955
-0.7846 -0.5873 -0.5658 0.9955
-2.6215 -2.2716 -2.0027 0.9841
-2.5388 -2.3637 -2.0027 0.9841
-2.4528 -2.4528 -2.0027 0.9841
-2.2716 -2.6216 -2.0028 0.9841
-2.1766 -2.7010 -2.0028 0.9841
-1.9784 -2.8494 -2.0028 0.9841
-1.8754 -2.9183 -2.0028 0.9841
-1.7701 -2.9834 -2.0028 0.9841
-1.6625 -3.0446 -2.0028 0.9841
-1.4411 -3.1555 -2.0028 0.9841
-1.3275 -3.2049 -2.0028 0.9841
-1.2123 -3.2503 -2.0028 0.9841
-0.7374 -3.3897 -2.0028 0.9841
-0.4937 -3.4336 -2.0028 0.9841
-0.3708 -3.4491 -2.0028 0.9841
-0.2475 -3.4601 -2.0028 0.9841
-0.1238 -3.4667 -2.0028 0.9841
0.0000 -3.4689 -2.0028 0.9841
0.3708 -3.4489 -2.0027 0.9841
0.4937 -3.4335 -2.0027 0.9841
0.8578 -3.3609 -2.0027 0.9841
0.9772 -3.3282 -2.0026 0.9841
1.0954 -3.2911 -2.0026 0.9841
1.2121 -3.2499 -2.0026 0.9841
1.4409 -3.1551 -2.0025 0.9841
1.5525 -3.1016 -2.0025 0.9841
1.6622 -3.0442 -2.0025 0.9841
1.7698 -2.9829 -2.0025 0.9841
2.0784 -2.7765 -2.0024 0.9841
2.1762 -2.7005 -2.0024 0.9841
2.2711 -2.6210 -2.0023 0.9841
2.5382 -2.3631 -2.0022 0.9841
2.6209 -2.2710 -2.0022 0.9841
2.7002 -2.1760 -2.0022 0.9841
2.8485 -1.9777 -2.0021 0.9841
2.9822 -1.7694 -2.0020 0.9841
3.0434 -1.6618 -2.0020 0.9841
3.1008 -1.5521 -2.0020 0.9841
1.8508 -0.8452 -1.1747 0.9906
1.8620 -0.7713 -1.1636 0.9907
1.8682 -0.6968 -1.1512 0.9908
1.9351 -0.5682 -1.1644 0.9907
1.9616 -0.5007 -1.1688 0.9907
2.0153 -0.3636 -1.1823 0.9906
2.0366 -0.2190 -1.1826 0.9906
2.0359 -0.1456 -1.1784 0.9906
