ply
format ascii 1.0
element vertex 762
property float32 x
property float32 y
property float32 z
property float32 I
end_header
6.0476 6.4956 1.5649 0.9646
6.2944 6.2944 1.3637 0.9646
6.0453 6.4931 1.3591 0.9647
-6.5535 7.0390 1.4734 0.9618
-7.0762 6.5882 1.4811 0.9616
6.2870 6.2869 1.1578 0.9648
6.0430 6.4906 1.1548 0.9649
-6.5460 7.0309 1.2509 0.9620
-6.6080 6.6080 1.2169 0.9630
-7.0444 6.5586 1.2534 0.9619
6.2796 6.2795 0.9536 0.9649
-6.5386 7.0229 1.0304 0.9621
-7.0131 6.5295 1.0290 0.9622
6.0384 6.4856 0.7501 0.9651
-6.5893 6.5893 0.7888 0.9633
-6.9823 6.5007 0.8076 0.9624
6.2649 6.2649 0.5494 0.9651
6.0361 6.4832 0.5493 0.9651
-6.5239 7.0071 0.5937 0.9624
6.2577 6.2576 0.3490 0.9652
6.0338 6.4808 0.3492 0.9652
6.2504 6.2504 0.1493 0.9653
-6.5093 6.9915 0.1613 0.9625
-6.5617 6.5617 0.1567 0.9636
-6.8919 6.4166 0.1591 0.9630
-6.5021 6.9837 -0.0537 0.9626
-6.5525 6.5525 -0.0522 0.9636
6.2361 6.2361 -0.2483 0.9653
-6.4948 6.9760 -0.2684 0.9626
-6.8326 6.3614 -0.2629 0.9633
6.2289 6.2289 -0.4467 0.9653
6.0247 6.4710 -0.4484 0.9652
-6.4876 6.9682 -0.4828 0.9626
-6.5343 6.5343 -0.4686 0.9637
6.2217 6.2217 -0.6451 0.9653
6.0225 6.4686 -0.6480 0.9652
-6.4804 6.9604 -0.6973 0.9626
6.7591 6.2930 -0.8866 0.9636
6.0202 6.4661 -0.8482 0.9651
-6.5161 6.5161 -0.8847 0.9636
1.3984 9.7266 -1.1673 0.9612
1.0540 9.8039 -1.1713 0.9611
-6.4659 6.9449 -1.1272 0.9625
-6.5070 6.5070 -1.0931 0.9636
-6.7943 6.3257 -1.1027 0.9633
6.0156 6.4612 -1.2508 0.9650
5.3175 7.6586 -1.3210 0.9630
-5.7798 7.7209 -1.3665 0.9618
-6.4587 6.9371 -1.3430 0.9624
7.1845 5.3782 -1.4785 0.9643
6.2287 5.3972 -1.3577 0.9671
5.7817 5.3829 -1.3014 0.9685
6.1928 6.1928 -1.4428 0.9651
5.3139 6.1326 -1.3368 0.9676
5.3335 7.1248 -1.4662 0.9646
5.3175 7.6586 -1.5360 0.9629
-5.7580 7.1453 -1.5117 0.9635
-5.7383 6.6223 -1.4435 0.9651
-5.0839 5.0839 -1.1844 0.9713
-5.2741 4.9103 -1.1871 0.9712
-6.5110 5.6418 -1.4193 0.9657
7.1845 5.3783 -1.6869 0.9641
6.6863 5.3881 -1.6140 0.9657
6.2287 5.3972 -1.5491 0.9670
5.3987 5.3986 -1.4350 0.9694
5.3139 6.1326 -1.5252 0.9675
5.3233 6.6058 -1.5946 0.9661
-5.6946 7.0666 -1.7058 0.9637
-5.2636 4.9006 -1.3518 0.9712
-7.9245 5.5021 -1.8133 0.9615
9.4726 -0.0000 -2.0023 0.9620
9.4664 0.3381 -2.0023 0.9620
9.4481 0.6758 -2.0022 0.9620
8.9863 2.9909 -2.0020 0.9620
8.7496 3.6242 -2.0019 0.9620
8.2820 4.1457 -1.9577 0.9628
7.6797 4.1934 -1.8496 0.9649
7.5250 4.4648 -1.8495 0.9649
7.3607 4.7304 -1.8495 0.9649
7.1870 4.9900 -1.8495 0.9649
6.5787 5.3015 -1.7859 0.9660
5.3053 5.6983 -1.6457 0.9687
4.9891 7.1856 -1.8491 0.9649
4.7293 7.3590 -1.8491 0.9649
4.1922 7.6774 -1.8490 0.9649
3.3473 8.0811 -1.8489 0.9649
2.4642 8.3923 -1.8489 0.9649
2.1631 8.4748 -1.8488 0.9649
1.8592 8.5465 -1.8488 0.9649
1.2447 8.6571 -1.8488 0.9649
0.9349 8.6959 -1.8487 0.9649
0.6239 8.7237 -1.8487 0.9649
0.3122 8.7403 -1.8487 0.9649
-0.3121 8.7402 -1.8487 0.9649
-0.9349 8.6955 -1.8486 0.9649
-1.2446 8.6565 -1.8486 0.9649
-1.5528 8.6066 -1.8486 0.9649
-1.8590 8.5456 -1.8486 0.9649
-2.1628 8.4738 -1.8486 0.9649
-2.4639 8.3911 -1.8486 0.9649
-3.0562 8.1939 -1.8486 0.9649
-3.9146 7.8203 -1.8486 0.9649
-4.4625 7.5211 -1.8486 0.9649
-4.7281 7.3571 -1.8486 0.9649
-4.9877 7.1836 -1.8486 0.9649
-5.4875 6.8096 -1.8486 0.9649
-5.6480 6.5182 -1.8231 0.9654
-5.6302 6.0473 -1.7465 0.9668
-5.2453 4.8836 -1.5149 0.9711
-6.4156 5.5592 -1.7944 0.9659
-6.8098 5.4877 -1.8487 0.9649
-7.0014 5.2412 -1.8487 0.9649
-7.1841 4.9880 -1.8487 0.9649
-7.5218 4.4629 -1.8488 0.9649
-8.0417 4.3911 -1.9368 0.9632
-8.4428 4.2262 -1.9957 0.9621
-8.9821 2.9895 -2.0010 0.9620
-9.2507 2.0123 -2.0011 0.9620
-9.3167 1.6809 -2.0012 0.9620
-9.4132 1.0120 -2.0012 0.9620
-9.4435 0.6754 -2.0013 0.9620
8.4702 0.9106 -2.0022 0.9656
8.3239 1.8107 -2.0021 0.9656
7.9809 2.9767 -2.0019 0.9656
7.6096 3.8091 -2.0000 0.9656
7.4524 4.0693 -1.9956 0.9657
7.0352 4.1742 -1.9226 0.9669
6.6202 4.2546 -1.8495 0.9682
5.9469 5.1530 -1.8494 0.9682
5.3263 5.3263 -1.7703 0.9695
5.1964 5.5813 -1.7922 0.9692
5.1527 5.9465 -1.8493 0.9682
4.4873 6.4629 -1.8492 0.9682
4.2537 6.6189 -1.8491 0.9682
3.0107 7.2684 -1.8490 0.9682
2.7493 7.3712 -1.8490 0.9682
1.1196 7.7866 -1.8488 0.9682
0.2808 7.8614 -1.8488 0.9682
-0.2808 7.8613 -1.8488 0.9682
-0.8409 7.8211 -1.8487 0.9682
-1.3967 7.7412 -1.8487 0.9682
-2.2161 7.5474 -1.8487 0.9682
-2.4841 7.4635 -1.8487 0.9682
-3.0102 7.2673 -1.8487 0.9682
-3.7698 6.9038 -1.8487 0.9682
-4.4862 6.4613 -1.8487 0.9682
-4.7140 6.2971 -1.8487 0.9682
-4.9357 6.1249 -1.8487 0.9682
-5.0429 5.0429 -1.6761 0.9711
-6.2974 4.7142 -1.8488 0.9682
-6.4617 4.4865 -1.8488 0.9682
-6.8606 4.4090 -1.9167 0.9670
-7.6136 3.8111 -2.0010 0.9656
-7.7448 3.5369 -2.0011 0.9656
-7.8663 3.2583 -2.0011 0.9656
-8.1698 2.3989 -2.0012 0.9656
-8.4285 1.2118 -2.0013 0.9656
7.7131 0.5517 -2.0022 0.9686
7.6539 1.1005 -2.0021 0.9686
7.5556 1.6436 -2.0020 0.9686
7.4189 2.1784 -2.0020 0.9686
7.2443 2.7020 -2.0019 0.9686
7.1432 2.9588 -2.0019 0.9686
6.9137 3.4607 -2.0018 0.9686
6.6366 3.9377 -1.9980 0.9686
5.7183 4.2807 -1.8495 0.9709
5.2277 4.8671 -1.8494 0.9709
4.6773 5.3978 -1.8493 0.9709
4.0733 5.8666 -1.8492 0.9709
3.8612 6.0082 -1.8492 0.9709
3.4227 6.2682 -1.8491 0.9709
2.9667 6.4962 -1.8491 0.9709
2.4957 6.6911 -1.8490 0.9709
2.0119 6.8520 -1.8490 0.9709
1.7661 6.9193 -1.8490 0.9709
0.5094 7.1226 -1.8489 0.9709
-0.5094 7.1224 -1.8488 0.9709
-1.5178 6.9773 -1.8488 0.9709
-1.7659 6.9187 -1.8488 0.9709
-2.0117 6.8512 -1.8488 0.9709
-2.2549 6.7750 -1.8488 0.9709
-2.4953 6.6902 -1.8488 0.9709
-2.7325 6.5969 -1.8488 0.9709
-3.1962 6.3851 -1.8488 0.9709
-3.4220 6.2670 -1.8488 0.9709
-3.6435 6.1408 -1.8488 0.9709
-4.0723 5.8653 -1.8488 0.9709
-4.2791 5.7162 -1.8488 0.9709
-4.4804 5.5599 -1.8488 0.9709
-4.6760 5.3964 -1.8488 0.9709
-4.8657 5.2261 -1.8488 0.9709
-5.2086 4.8494 -1.8426 0.9710
-5.3966 4.6761 -1.8488 0.9709
-5.5601 4.4806 -1.8489 0.9709
-5.8841 4.4048 -1.9031 0.9701
-6.4891 4.1703 -1.9972 0.9686
-6.6467 3.9436 -2.0011 0.9686
-6.7833 3.7039 -2.0011 0.9686
-7.0304 3.2106 -2.0011 0.9686
-7.2416 2.7010 -2.0012 0.9686
-7.3335 2.4408 -2.0012 0.9686
-7.5527 1.6430 -2.0013 0.9686
-7.7250 0.2759 -2.0014 0.9686
7.0317 0.7560 -2.0021 0.9710
6.9597 1.2557 -2.0020 0.9710
6.9103 1.5033 -2.0020 0.9710
6.7853 1.9923 -2.0020 0.9710
6.4323 2.9375 -2.0018 0.9710
6.3233 3.1652 -2.0018 0.9710
6.0812 3.6081 -2.0017 0.9710
5.7939 4.0227 -1.9968 0.9711
5.5960 4.1891 -1.9789 0.9714
4.9373 4.2781 -1.8494 0.9732
4.6193 4.6193 -1.8494 0.9732
4.0989 5.0864 -1.8493 0.9732
2.7134 5.9416 -1.8491 0.9732
2.4996 6.0346 -1.8491 0.9732
2.2826 6.1199 -1.8491 0.9732
1.3884 6.3822 -1.8490 0.9732
0.9295 6.4649 -1.8490 0.9732
0.2331 6.5270 -1.8489 0.9732
0.0000 6.5312 -1.8489 0.9732
-0.2331 6.5270 -1.8489 0.9732
-0.4659 6.5144 -1.8489 0.9732
-0.6981 6.4936 -1.8489 0.9732
-1.1596 6.4272 -1.8489 0.9732
-1.3883 6.3817 -1.8489 0.9732
-1.8400 6.2664 -1.8489 0.9732
-2.2823 6.1191 -1.8489 0.9732
-2.4993 6.0338 -1.8489 0.9732
-3.1299 5.7320 -1.8489 0.9732
-3.5309 5.4942 -1.8489 0.9732
-4.0980 5.0853 -1.8489 0.9732
-4.2769 4.9358 -1.8489 0.9732
-4.4504 4.7800 -1.8489 0.9732
-4.7800 4.4504 -1.8489 0.9732
-5.0687 4.3921 -1.8987 0.9725
-5.6448 4.2256 -1.9962 0.9711
-6.5310 2.7052 -2.0012 0.9710
-6.6234 2.4704 -2.0012 0.9710
-6.7829 1.9916 -2.0013 0.9710
-6.9079 1.5027 -2.0013 0.9710
-6.9572 1.2552 -2.0013 0.9710
-7.0292 0.7557 -2.0014 0.9710
-7.0518 0.5044 -2.0014 0.9710
6.5094 -0.0000 -2.0022 0.9731
6.5052 0.2323 -2.0021 0.9731
6.4719 0.6958 -2.0021 0.9731
6.4428 0.9263 -2.0021 0.9731
5.7121 3.1191 -2.0018 0.9731
5.5971 3.3209 -2.0018 0.9731
5.3458 3.7116 -2.0017 0.9731
5.0532 4.0721 -1.9961 0.9732
4.2516 4.2516 -1.8494 0.9752
3.9374 4.5440 -1.8493 0.9752
3.4290 4.9387 -1.8493 0.9752
2.8813 5.2767 -1.8492 0.9752
2.4975 5.4687 -1.8492 0.9752
2.3007 5.5543 -1.8491 0.9752
1.4867 5.8250 -1.8491 0.9752
0.8555 5.9504 -1.8490 0.9752
0.4289 5.9962 -1.8490 0.9752
0.2146 6.0076 -1.8490 0.9752
-0.6426 5.9769 -1.8490 0.9752
-0.8555 5.9501 -1.8489 0.9752
-1.2778 5.8739 -1.8489 0.9752
-1.6936 5.7677 -1.8489 0.9752
-1.8983 5.7036 -1.8489 0.9752
-2.1007 5.6322 -1.8489 0.9752
-2.6907 5.3754 -1.8489 0.9752
-2.8808 5.2759 -1.8489 0.9752
-3.4283 4.9377 -1.8489 0.9752
-3.7719 4.6806 -1.8489 0.9752
-3.9365 4.5430 -1.8489 0.9752
-4.6955 4.3717 -1.9733 0.9735
-5.3443 3.7106 -2.0012 0.9731
-5.4734 3.5175 -2.0012 0.9731
-5.7104 3.1181 -2.0012 0.9731
-5.9184 2.7029 -2.0012 0.9731
-6.2431 1.8331 -2.0013 0.9731
-6.3046 1.6092 -2.0013 0.9731
-6.3581 1.3831 -2.0014 0.9731
-6.4905 0.4642 -2.0014 0.9731
6.0232 0.0000 -2.0021 0.9749
5.9884 0.6438 -2.0021 0.9749
5.9271 1.0694 -2.0020 0.9749
5.8851 1.2802 -2.0020 0.9749
5.7786 1.6967 -2.0019 0.9749
5.6427 2.1046 -2.0019 0.9749
5.5639 2.3047 -2.0019 0.9749
5.4781 2.5017 -2.0018 0.9749
5.3852 2.6956 -2.0018 0.9749
5.2855 2.8861 -2.0018 0.9749
5.0660 3.2557 -2.0017 0.9749
4.9465 3.4344 -2.0017 0.9749
4.8207 3.6087 -2.0017 0.9749
4.3947 4.0916 -1.9960 0.9750
4.2132 4.2132 -1.9806 0.9752
3.4909 4.3320 -1.8493 0.9768
3.3341 4.4538 -1.8493 0.9768
3.1729 4.5699 -1.8493 0.9768
2.8388 4.7845 -1.8493 0.9768
2.4902 4.9747 -1.8492 0.9768
2.1289 5.1396 -1.8492 0.9768
1.7568 5.2783 -1.8491 0.9768
1.5672 5.3375 -1.8491 0.9768
1.3757 5.3900 -1.8491 0.9768
1.1825 5.4357 -1.8491 0.9768
0.9877 5.4744 -1.8491 0.9768
0.7917 5.5061 -1.8491 0.9768
0.5946 5.5308 -1.8491 0.9768
0.3968 5.5485 -1.8491 0.9768
0.1985 5.5591 -1.8490 0.9768
-0.9876 5.4741 -1.8490 0.9768
-1.3756 5.3896 -1.8490 0.9768
-2.1286 5.1390 -1.8490 0.9768
-2.3107 5.0597 -1.8490 0.9768
-2.6658 4.8820 -1.8490 0.9768
-2.8383 4.7837 -1.8490 0.9768
-3.3334 4.4529 -1.8490 0.9768
-3.7827 4.3654 -1.9201 0.9759
-4.2449 4.2449 -1.9955 0.9750
-4.3994 4.0959 -1.9981 0.9750
-4.5488 3.9416 -2.0007 0.9749
-4.8195 3.6078 -2.0012 0.9749
-5.0647 3.2549 -2.0012 0.9749
-5.1777 3.0720 -2.0012 0.9749
-5.2841 2.8853 -2.0012 0.9749
-5.3837 2.6949 -2.0013 0.9749
-5.6411 2.1040 -2.0013 0.9749
-5.9866 0.6436 -2.0015 0.9749
-6.0058 0.4295 -2.0015 0.9749
-6.0174 0.2149 -2.0015 0.9749
5.5986 -0.0000 -2.0021 0.9765
5.5664 0.5984 -2.0020 0.9765
5.5414 0.7967 -2.0020 0.9765
5.4703 1.1900 -2.0020 0.9765
5.3714 1.5772 -2.0019 0.9765
5.3116 1.7679 -2.0019 0.9765
5.0920 2.3254 -2.0018 0.9765
4.9130 2.6827 -2.0018 0.9765
4.7090 3.0263 -2.0017 0.9765
4.5979 3.1924 -2.0017 0.9765
4.3584 3.5122 -2.0017 0.9765
4.2302 3.6655 -2.0016 0.9765
3.9516 3.9516 -1.9985 0.9765
3.8038 4.0855 -1.9962 0.9766
3.6516 4.2141 -1.9940 0.9766
2.6388 4.4474 -1.8493 0.9783
2.4783 4.5387 -1.8493 0.9783
2.3147 4.6242 -1.8492 0.9783
2.1482 4.7038 -1.8492 0.9783
1.8071 4.8450 -1.8492 0.9783
1.6330 4.9064 -1.8492 0.9783
1.2788 5.0103 -1.8492 0.9783
0.9181 5.0887 -1.8491 0.9783
0.5527 5.1412 -1.8491 0.9783
0.0000 5.1707 -1.8491 0.9783
-0.5527 5.1410 -1.8490 0.9783
-0.7358 5.1180 -1.8490 0.9783
-1.0991 5.0524 -1.8490 0.9783
-1.2787 5.0099 -1.8490 0.9783
-1.8069 4.8445 -1.8490 0.9783
-1.9787 4.7770 -1.8490 0.9783
-2.4780 4.5380 -1.8490 0.9783
-2.6383 4.4467 -1.8490 0.9783
-3.0247 4.3564 -1.8966 0.9777
-3.4981 4.3409 -1.9937 0.9766
-3.6548 4.2178 -1.9958 0.9766
-3.8072 4.0892 -1.9980 0.9765
-4.0958 3.8133 -2.0012 0.9765
-4.2293 3.6647 -2.0012 0.9765
-4.3574 3.5114 -2.0012 0.9765
-4.4800 3.3537 -2.0012 0.9765
-4.5968 3.1917 -2.0012 0.9765
-5.0907 2.3248 -2.0013 0.9765
-5.1704 2.1417 -2.0013 0.9765
-5.2436 1.9558 -2.0013 0.9765
-5.3699 1.5767 -2.0014 0.9765
-5.4688 1.1897 -2.0014 0.9765
-5.5398 0.7965 -2.0015 0.9765
-5.5648 0.5983 -2.0015 0.9765
-5.5827 0.3993 -2.0015 0.9765
-5.5934 0.1997 -2.0015 0.9765
5.2244 0.0000 -2.0021 0.9779
5.2210 0.1865 -2.0021 0.9779
5.2110 0.3727 -2.0021 0.9779
5.0618 1.2919 -2.0019 0.9779
5.0124 1.4718 -2.0019 0.9779
4.8945 1.8255 -2.0019 0.9779
4.8262 1.9991 -2.0019 0.9779
4.5847 2.5034 -2.0018 0.9779
4.4924 2.6654 -2.0018 0.9779
4.3943 2.8241 -2.0017 0.9779
4.1816 3.1303 -2.0017 0.9779
4.0671 3.2775 -2.0017 0.9779
3.8229 3.5592 -2.0016 0.9779
3.4156 3.9418 -1.9988 0.9779
2.9414 4.2364 -1.9764 0.9781
2.5266 4.2583 -1.8975 0.9790
2.1600 4.3152 -1.8493 0.9795
2.0046 4.3895 -1.8493 0.9795
1.8467 4.4582 -1.8492 0.9795
1.6863 4.5213 -1.8492 0.9795
1.5239 4.5785 -1.8492 0.9795
1.1934 4.6755 -1.8492 0.9795
0.8568 4.7487 -1.8492 0.9795
0.5158 4.7976 -1.8491 0.9795
0.1722 4.8221 -1.8491 0.9795
-0.3442 4.8129 -1.8491 0.9795
-0.8567 4.7485 -1.8491 0.9795
-1.0256 4.7148 -1.8491 0.9795
-1.1933 4.6752 -1.8491 0.9795
-1.3594 4.6296 -1.8491 0.9795
-1.8465 4.4578 -1.8491 0.9795
-2.3724 4.3448 -1.8971 0.9790
-2.5759 4.3414 -1.9345 0.9786
-2.7875 4.3375 -1.9759 0.9782
-2.9685 4.2755 -1.9946 0.9780
-3.1221 4.1706 -1.9965 0.9779
-3.2721 4.0604 -1.9984 0.9779
-3.5585 3.8221 -2.0012 0.9779
-4.0663 3.2768 -2.0013 0.9779
-4.1807 3.1296 -2.0013 0.9779
-4.4913 2.6648 -2.0013 0.9779
-4.5836 2.5028 -2.0013 0.9779
-4.7505 2.1695 -2.0014 0.9779
-4.8250 1.9986 -2.0014 0.9779
-4.8933 1.8251 -2.0014 0.9779
-5.1398 0.9273 -2.0015 0.9779
-5.1697 0.7433 -2.0015 0.9779
-5.1929 0.5583 -2.0015 0.9779
4.8418 0.6961 -2.0020 0.9791
4.5829 1.7093 -2.0019 0.9791
4.0175 2.7894 -2.0017 0.9791
3.8082 3.0688 -2.0017 0.9791
3.6962 3.2028 -2.0017 0.9791
3.5795 3.3326 -2.0017 0.9791
3.2026 3.6960 -2.0016 0.9791
3.0680 3.8071 -2.0011 0.9791
2.9276 3.9108 -1.9994 0.9791
2.7839 4.0095 -1.9978 0.9791
2.3188 4.2467 -1.9803 0.9793
1.9476 4.2646 -1.9188 0.9799
1.4282 4.2911 -1.8510 0.9806
1.1174 4.3779 -1.8492 0.9807
0.9604 4.4150 -1.8492 0.9807
0.8036 4.4534 -1.8521 0.9806
0.6430 4.4722 -1.8492 0.9807
0.3223 4.5066 -1.8492 0.9807
0.1613 4.5152 -1.8491 0.9807
0.0000 4.5181 -1.8491 0.9807
-0.4829 4.4921 -1.8491 0.9807
-0.9604 4.4147 -1.8491 0.9807
-1.1173 4.3777 -1.8491 0.9807
-1.2740 4.3389 -1.8508 0.9806
-1.6159 4.3323 -1.8924 0.9802
-2.1653 4.3258 -1.9799 0.9793
-2.3355 4.2771 -1.9945 0.9792
-2.6386 4.1057 -1.9975 0.9791
-2.7857 4.0122 -1.9991 0.9791
-2.9297 3.9136 -2.0008 0.9791
-3.0682 3.8074 -2.0013 0.9791
-3.2021 3.6954 -2.0013 0.9791
-3.3320 3.5788 -2.0013 0.9791
-3.4576 3.4576 -2.0013 0.9791
-3.5788 3.3320 -2.0013 0.9791
-3.9146 2.9304 -2.0013 0.9791
-4.0167 2.7888 -2.0013 0.9791
-4.4482 2.0314 -2.0014 0.9791
-4.5179 1.8714 -2.0014 0.9791
-4.6921 1.3777 -2.0014 0.9791
-2.1703 0.3916 -0.9026 0.9905
-1.9308 0.0690 -0.7907 0.9917
4.5938 0.0000 -2.0021 0.9802
4.5908 0.1640 -2.0020 0.9802
4.5820 0.3277 -2.0020 0.9802
4.5469 0.6537 -2.0020 0.9802
4.5206 0.8156 -2.0020 0.9802
4.4074 1.2941 -2.0019 0.9802
4.3038 1.6052 -2.0019 0.9802
4.2437 1.7578 -2.0019 0.9802
4.1074 2.0560 -2.0018 0.9802
3.8640 2.4832 -2.0018 0.9802
3.5763 2.8820 -2.0017 0.9802
3.4711 3.0077 -2.0017 0.9802
3.3615 3.1297 -2.0017 0.9802
3.1296 3.3615 -2.0016 0.9802
3.0076 3.4710 -2.0016 0.9802
2.7523 3.6766 -2.0016 0.9802
2.6193 3.7725 -2.0016 0.9802
2.4815 3.8613 -2.0004 0.9802
2.1968 4.0231 -1.9977 0.9802
1.4200 4.2664 -1.9596 0.9806
1.0921 4.2786 -1.9245 0.9809
0.9319 4.2840 -1.9107 0.9811
0.7738 4.2889 -1.8993 0.9812
0.3076 4.3008 -1.8792 0.9814
0.1537 4.3040 -1.8769 0.9814
-0.1539 4.3090 -1.8791 0.9814
-0.6202 4.3135 -1.8992 0.9812
-0.7784 4.3142 -1.9106 0.9811
-0.9385 4.3145 -1.9243 0.9809
-1.7519 4.2294 -1.9951 0.9802
-1.9028 4.1665 -1.9962 0.9802
-2.3418 3.9469 -2.0001 0.9802
-2.4826 3.8631 -2.0013 0.9802
-2.6189 3.7720 -2.0013 0.9802
-2.7519 3.6761 -2.0013 0.9802
-2.8814 3.5756 -2.0013 0.9802
-3.1291 3.3609 -2.0013 0.9802
-3.5756 2.8814 -2.0013 0.9802
-3.6762 2.7520 -2.0013 0.9802
-3.9494 2.3433 -2.0014 0.9802
-4.0305 2.2008 -2.0014 0.9802
-4.2428 1.7574 -2.0014 0.9802
-1.5984 0.5962 -0.7435 0.9926
-1.5485 0.3952 -0.6965 0.9931
-1.5214 0.3310 -0.6786 0.9932
-1.5001 0.2707 -0.6643 0.9934
-1.5249 0.1639 -0.6684 0.9933
-1.5293 0.1094 -0.6682 0.9933
-1.5284 0.0546 -0.6665 0.9933
4.3252 -0.0000 -2.0020 0.9811
4.3003 0.4623 -2.0020 0.9811
4.2810 0.6155 -2.0020 0.9811
4.2562 0.7679 -2.0020 0.9811
4.2261 0.9193 -2.0019 0.9811
4.1905 1.0696 -2.0019 0.9811
4.1035 1.3658 -2.0019 0.9811
3.9955 1.6550 -2.0019 0.9811
3.9339 1.7965 -2.0018 0.9811
3.6380 2.3380 -2.0018 0.9811
3.3672 2.7134 -2.0017 0.9811
2.8318 3.2680 -2.0016 0.9811
2.7133 3.3670 -2.0016 0.9811
2.4661 3.5519 -2.0016 0.9811
1.5081 4.0432 -1.9975 0.9812
1.2148 4.1374 -1.9960 0.9812
0.6131 4.2638 -1.9940 0.9812
0.4599 4.2774 -1.9913 0.9812
0.0000 4.2868 -1.9843 0.9813
-0.1532 4.2891 -1.9866 0.9813
-0.4605 4.2829 -1.9939 0.9812
-0.6131 4.2645 -1.9942 0.9812
-0.9162 4.2119 -1.9952 0.9812
-1.2152 4.1385 -1.9965 0.9812
-1.3627 4.0942 -1.9973 0.9812
-1.6528 3.9902 -1.9992 0.9811
-1.9353 3.8662 -2.0013 0.9811
-2.2062 3.7183 -2.0013 0.9811
-2.3375 3.6372 -2.0013 0.9811
-2.4658 3.5515 -2.0013 0.9811
-2.8313 3.2676 -2.0013 0.9811
-2.9462 3.1644 -2.0013 0.9811
-3.3666 2.7130 -2.0014 0.9811
-3.5516 2.4659 -2.0014 0.9811
-3.7185 2.2063 -2.0014 0.9811
-3.8665 1.9354 -2.0014 0.9811
-1.3263 0.5494 -0.6645 0.9937
-1.3324 0.4970 -0.6582 0.9938
-1.3324 0.4435 -0.6500 0.9938
-1.3240 0.3888 -0.6388 0.9939
-1.3116 0.3348 -0.6266 0.9941
-1.3384 0.0957 -0.6211 0.9941
-1.3376 0.0478 -0.6195 0.9941
4.0788 0.1457 -2.0020 0.9820
4.0164 0.7246 -2.0020 0.9820
3.9880 0.8675 -2.0019 0.9820
3.9544 1.0093 -2.0019 0.9820
3.8723 1.2888 -2.0019 0.9820
3.5818 1.9558 -2.0018 0.9820
3.5096 2.0824 -2.0018 0.9820
3.3521 2.3274 -2.0017 0.9820
3.2669 2.4455 -2.0017 0.9820
3.1775 2.5606 -2.0017 0.9820
3.0840 2.6723 -2.0017 0.9820
2.8855 2.8855 -2.0017 0.9820
2.6722 3.0839 -2.0016 0.9820
2.5604 3.1773 -2.0016 0.9820
2.3272 3.3518 -2.0016 0.9820
2.0821 3.5092 -2.0016 0.9820
1.9555 3.5813 -2.0015 0.9820
1.6950 3.7116 -2.0015 0.9820
1.5615 3.7697 -2.0015 0.9820
1.4258 3.8226 -2.0013 0.9820
1.1486 3.9118 -1.9998 0.9820
0.8661 3.9815 -1.9987 0.9820
-0.0000 4.0719 -1.9974 0.9820
-0.2905 4.0621 -1.9976 0.9820
-0.4354 4.0496 -1.9979 0.9820
-0.5797 4.0321 -1.9982 0.9820
-0.7234 4.0097 -1.9986 0.9820
-0.8663 3.9824 -1.9991 0.9820
-1.0082 3.9500 -1.9997 0.9820
-1.1489 3.9128 -2.0004 0.9820
-1.2883 3.8708 -2.0011 0.9820
-1.4258 3.8228 -2.0013 0.9820
-1.5613 3.7694 -2.0013 0.9820
-1.8263 3.6484 -2.0013 0.9820
-1.9553 3.5809 -2.0013 0.9820
-2.0819 3.5089 -2.0013 0.9820
-2.2058 3.4323 -2.0013 0.9820
-2.3269 3.3514 -2.0013 0.9820
-2.5601 3.1769 -2.0014 0.9820
-2.6719 3.0835 -2.0014 0.9820
-2.8850 2.8850 -2.0014 0.9820
-2.9862 2.7802 -2.0014 0.9820
-3.0835 2.6719 -2.0014 0.9820
-3.1769 2.5601 -2.0014 0.9820
-3.3515 2.3270 -2.0014 0.9820
-3.4324 2.2059 -2.0014 0.9820
-1.1113 0.6068 -0.6211 0.9944
-1.1484 0.4757 -0.6097 0.9945
-1.1578 0.2955 -0.5861 0.9947
-1.1791 0.2127 -0.5877 0.9947
-1.1867 0.1706 -0.5881 0.9947
-1.1953 0.0855 -0.5878 0.9947
3.8369 0.4125 -2.0020 0.9828
3.8197 0.5492 -2.0020 0.9828
3.7976 0.6852 -2.0019 0.9828
3.7707 0.8203 -2.0019 0.9828
3.7390 0.9543 -2.0019 0.9828
3.4506 1.7272 -2.0018 0.9828
3.0889 2.3123 -2.0017 0.9828
2.9160 2.5268 -2.0017 0.9828
2.7283 2.7283 -2.0017 0.9828
2.3122 3.0887 -2.0016 0.9828
2.2005 3.1693 -2.0016 0.9828
2.0859 3.2458 -2.0016 0.9828
1.8490 3.3863 -2.0016 0.9828
1.7270 3.4501 -2.0015 0.9828
1.4764 3.5645 -2.0015 0.9828
1.3483 3.6149 -2.0015 0.9828
1.0870 3.7018 -2.0015 0.9828
0.8201 3.7699 -2.0015 0.9828
0.6850 3.7967 -2.0015 0.9828
0.5491 3.8187 -2.0014 0.9828
0.4124 3.8356 -2.0013 0.9828
0.2752 3.8476 -2.0011 0.9828
-0.1377 3.8549 -2.0011 0.9828
-0.4124 3.8358 -2.0014 0.9828
-0.5490 3.8186 -2.0014 0.9828
-0.9541 3.7380 -2.0014 0.9828
-1.0869 3.7016 -2.0014 0.9828
-1.4763 3.5642 -2.0014 0.9828
-1.7268 3.4498 -2.0014 0.9828
-1.8489 3.3859 -2.0014 0.9828
-2.2002 3.1689 -2.0014 0.9828
-2.5264 2.9156 -2.0014 0.9828
-2.6288 2.8236 -2.0014 0.9828
-2.7279 2.7279 -2.0014 0.9828
-2.8236 2.6288 -2.0014 0.9828
-0.9917 0.5884 -0.5982 0.9948
-1.0298 0.5155 -0.5974 0.9948
-1.0430 0.4763 -0.5948 0.9948
-1.0514 0.4355 -0.5904 0.9949
-1.0576 0.3945 -0.5856 0.9949
-1.0617 0.3534 -0.5805 0.9950
-1.0814 0.2353 -0.5741 0.9950
-1.0974 0.1578 -0.5752 0.9950
-1.1024 0.1185 -0.5752 0.9950
-1.1055 0.0791 -0.5750 0.9950
3.6459 0.2608 -2.0020 0.9835
3.5971 0.6490 -2.0019 0.9835
3.3247 1.5183 -2.0018 0.9835
3.0021 2.0844 -2.0018 0.9835
2.7621 2.3933 -2.0017 0.9835
2.6749 2.4904 -2.0017 0.9835
2.5843 2.5842 -2.0017 0.9835
2.4903 2.6748 -2.0017 0.9835
2.3933 2.7620 -2.0017 0.9835
2.2932 2.8456 -2.0016 0.9835
2.0843 3.0019 -2.0016 0.9835
1.9758 3.0744 -2.0016 0.9835
1.8648 3.1429 -2.0016 0.9835
1.7514 3.2075 -2.0016 0.9835
1.6358 3.2679 -2.0016 0.9835
1.2771 3.4240 -2.0015 0.9835
1.0296 3.5063 -2.0015 0.9835
0.7768 3.5708 -2.0015 0.9835
0.6488 3.5962 -2.0015 0.9835
0.3906 3.6333 -2.0015 0.9835
0.1304 3.6519 -2.0014 0.9835
0.0000 3.6542 -2.0014 0.9835
-0.2607 3.6449 -2.0014 0.9835
-0.6488 3.5961 -2.0014 0.9835
-0.9037 3.5407 -2.0014 0.9835
-1.0295 3.5061 -2.0014 0.9835
-1.1540 3.4672 -2.0014 0.9835
-1.3984 3.3760 -2.0014 0.9835
-1.6357 3.2676 -2.0014 0.9835
-2.0841 3.0016 -2.0014 0.9835
-2.1899 2.9253 -2.0014 0.9835
-2.3930 2.7616 -2.0014 0.9835
-2.6745 2.4900 -2.0014 0.9835
-2.7617 2.3930 -2.0014 0.9835
-2.8453 2.2929 -2.0014 0.9835
-2.9254 2.1899 -2.0014 0.9835
-0.8661 0.6013 -0.5775 0.9952
-0.9084 0.5390 -0.5785 0.9952
-0.9269 0.5061 -0.5784 0.9952
-0.9434 0.4722 -0.5778 0.9952
-0.9677 0.4008 -0.5737 0.9952
-0.9741 0.3633 -0.5694 0.9953
-0.9785 0.3257 -0.5648 0.9953
-0.9820 0.2883 -0.5606 0.9953
-1.0039 0.2184 -0.5627 0.9953
-1.0190 0.1465 -0.5638 0.9953
-1.0265 0.0734 -0.5637 0.9953
2.0197 -0.0000 -1.1661 0.9907
2.0320 0.0726 -1.1739 0.9907
2.0359 0.1456 -1.1784 0.9906
1.9351 0.5682 -1.1644 0.9907
1.8620 0.7713 -1.1636 0.9907
1.8508 0.8452 -1.1747 0.9906
3.1005 1.5520 -2.0018 0.9841
3.0431 1.6617 -2.0018 0.9841
2.7756 2.0778 -2.0017 0.9841
2.6996 2.1755 -2.0017 0.9841
2.6202 2.2705 -2.0017 0.9841
2.5375 2.3625 -2.0017 0.9841
2.4516 2.4515 -2.0017 0.9841
2.2704 2.6202 -2.0017 0.9841
2.0777 2.7754 -2.0016 0.9841
1.9773 2.8478 -2.0016 0.9841
1.7690 2.9816 -2.0016 0.9841
1.4402 3.1535 -2.0016 0.9841
1.3267 3.2029 -2.0016 0.9841
1.2115 3.2482 -2.0015 0.9841
0.9767 3.3263 -2.0015 0.9841
0.8573 3.3590 -2.0015 0.9841
0.6155 3.4116 -2.0015 0.9841
0.1237 3.4644 -2.0015 0.9841
0.0000 3.4666 -2.0015 0.9841
-0.2473 3.4578 -2.0014 0.9841
-0.4933 3.4313 -2.0014 0.9841
-0.8573 3.3589 -2.0014 0.9841
-0.9767 3.3261 -2.0014 0.9841
-1.0947 3.2892 -2.0014 0.9841
-1.5517 3.0999 -2.0014 0.9841
-1.6613 3.0425 -2.0014 0.9841
-1.7689 2.9813 -2.0014 0.9841
-1.8742 2.9162 -2.0014 0.9841
-2.0774 2.7751 -2.0014 0.9841
-2.1752 2.6992 -2.0014 0.9841
-2.2701 2.6199 -2.0014 0.9841
-2.3622 2.5372 -2.0014 0.9841
-2.4512 2.4513 -2.0014 0.9841
-2.6199 2.2701 -2.0014 0.9841
-0.7671 0.6182 -0.5688 0.9955
-0.7846 0.5873 -0.5658 0.9955
-0.8178 0.5256 -0.5613 0.9955
-0.8687 0.4348 -0.5609 0.9955
-0.8823 0.4029 -0.5600 0.9955
-0.8941 0.3703 -0.5587 0.9955
-0.9057 0.3015 -0.5511 0.9956
-0.9151 0.2687 -0.5506 0.9956
-0.9259 0.2363 -0.5517 0.9956
-0.9353 0.2034 -0.5526 0.9956
-0.9430 0.1701 -0.5532 0.9956
-0.9565 0.0684 -0.5536 0.9956
