ply
format ascii 1.0
element vertex 726
property float32 x
property float32 y
property float32 z
property float32 I
end_header
-9.4727 -0.3383 -2.0036 0.9620
-9.4244 -1.0133 -2.0036 0.9620
-9.0946 -2.6704 -2.0036 0.9620
-8.9935 -2.9933 -2.0036 0.9620
-8.8808 -3.3124 -2.0036 0.9620
-8.4756 -4.2426 -2.0035 0.9620
-8.1512 -4.8363 -2.0034 0.9620
-7.7852 -5.4054 -2.0034 0.9620
-7.5872 -5.6797 -2.0034 0.9620
-7.3795 -5.9468 -2.0033 0.9620
-6.9362 -6.4578 -2.0033 0.9620
-6.4576 -6.9359 -2.0032 0.9620
-6.2058 -7.1618 -2.0031 0.9620
-5.6788 -7.5860 -2.0031 0.9620
-5.4043 -7.7837 -2.0030 0.9620
-3.6257 -8.7532 -2.0027 0.9620
-3.3109 -8.8768 -2.0026 0.9620
-2.3428 -9.1791 -2.0025 0.9620
-1.3481 -9.3761 -2.0023 0.9620
-1.0125 -9.4180 -2.0022 0.9620
-0.0000 -9.4714 -2.0021 0.9620
0.6756 -9.4467 -2.0019 0.9620
1.0124 -9.4163 -2.0019 0.9620
1.3478 -9.3739 -2.0018 0.9620
1.6814 -9.3195 -2.0018 0.9620
3.3089 -8.8716 -2.0015 0.9620
3.6233 -8.7475 -2.0014 0.9620
4.2379 -8.4663 -2.0013 0.9620
4.8308 -8.1420 -2.0012 0.9620
5.1182 -7.9641 -2.0011 0.9620
5.6730 -7.5783 -2.0010 0.9620
6.1989 -7.1539 -2.0009 0.9620
6.4501 -6.9279 -2.0009 0.9620
6.9276 -6.4498 -2.0008 0.9620
8.3063 -4.5356 -2.0005 0.9620
9.0798 -2.6661 -2.0003 0.9620
9.1691 -2.3403 -2.0003 0.9621
9.2467 -2.0115 -2.0003 0.9621
9.3125 -1.6802 -2.0003 0.9621
9.3665 -1.3467 -2.0002 0.9621
9.4386 -0.6751 -2.0002 0.9621
9.4566 -0.3378 -2.0002 0.9621
-8.5244 -0.0000 -2.0034 0.9656
-8.5027 -0.6081 -2.0034 0.9656
-8.4756 -0.9112 -2.0034 0.9656
-8.4377 -1.2132 -2.0034 0.9656
-8.3890 -1.5136 -2.0034 0.9656
-8.2596 -2.1081 -2.0034 0.9656
-8.1790 -2.4016 -2.0034 0.9656
-7.9868 -2.9789 -2.0034 0.9656
-7.7538 -3.5410 -2.0034 0.9656
-7.4813 -4.0851 -2.0033 0.9656
-7.0015 -4.8612 -2.0032 0.9656
-6.8234 -5.1079 -2.0032 0.9656
-6.6367 -5.3482 -2.0032 0.9656
-6.4414 -5.5815 -2.0032 0.9656
-5.8076 -6.2378 -2.0031 0.9656
-5.5812 -6.4410 -2.0030 0.9656
-5.3476 -6.6359 -2.0030 0.9656
-4.6073 -7.1691 -2.0029 0.9656
-4.0840 -7.4792 -2.0028 0.9656
-3.8143 -7.6200 -2.0027 0.9656
-3.5398 -7.7511 -2.0027 0.9656
-1.5127 -8.3843 -2.0023 0.9656
-0.9107 -8.4704 -2.0022 0.9656
-0.6077 -8.4973 -2.0022 0.9656
0.3040 -8.5129 -2.0020 0.9656
1.8104 -8.3225 -2.0017 0.9656
2.6895 -8.0806 -2.0016 0.9656
2.9761 -7.9793 -2.0015 0.9656
3.5376 -7.7462 -2.0014 0.9656
4.6035 -7.1632 -2.0012 0.9656
4.8561 -6.9942 -2.0012 0.9656
5.3425 -6.6296 -2.0011 0.9656
5.5755 -6.4345 -2.0010 0.9656
5.8015 -6.2313 -2.0010 0.9656
6.2310 -5.8013 -2.0009 0.9656
6.6287 -5.3418 -2.0008 0.9656
6.8151 -5.1017 -2.0008 0.9656
6.9927 -4.8551 -2.0007 0.9656
7.6120 -3.8103 -2.0006 0.9656
7.7430 -3.5361 -2.0006 0.9656
7.9753 -2.9746 -2.0005 0.9656
8.0763 -2.6881 -2.0005 0.9656
8.1671 -2.3981 -2.0005 0.9656
8.3764 -1.5113 -2.0004 0.9656
8.4898 -0.6072 -2.0004 0.9656
8.5060 -0.3038 -2.0004 0.9656
-7.7175 -0.5520 -2.0033 0.9685
-7.6143 -1.3738 -2.0033 0.9685
-7.4237 -2.1798 -2.0033 0.9685
-7.3411 -2.4434 -2.0033 0.9685
-7.0377 -3.2140 -2.0032 0.9685
-6.9185 -3.4631 -2.0032 0.9685
-6.6537 -3.9478 -2.0032 0.9685
-6.5084 -4.1827 -2.0031 0.9685
-6.3549 -4.4123 -2.0031 0.9685
-6.1933 -4.6363 -2.0031 0.9685
-5.8466 -5.0661 -2.0030 0.9685
-5.4702 -5.4701 -2.0030 0.9685
-5.2713 -5.6618 -2.0029 0.9685
-5.0658 -5.8463 -2.0029 0.9685
-3.9469 -6.6522 -2.0027 0.9685
-3.4622 -6.9165 -2.0026 0.9685
-3.2130 -7.0356 -2.0026 0.9685
-2.7028 -7.2465 -2.0025 0.9685
-2.4424 -7.3382 -2.0025 0.9685
-1.9126 -7.4934 -2.0024 0.9686
-1.3731 -7.6104 -2.0023 0.9686
-0.8266 -7.6886 -2.0022 0.9686
-0.5517 -7.7130 -2.0021 0.9686
-0.2760 -7.7276 -2.0021 0.9686
0.2760 -7.7272 -2.0020 0.9686
0.5516 -7.7122 -2.0019 0.9686
1.1003 -7.6528 -2.0018 0.9686
1.3727 -7.6085 -2.0018 0.9686
1.9119 -7.4908 -2.0017 0.9686
2.1780 -7.4176 -2.0016 0.9686
3.2112 -7.0315 -2.0014 0.9686
3.4600 -6.9122 -2.0014 0.9686
3.7044 -6.7842 -2.0014 0.9686
3.9441 -6.6475 -2.0013 0.9686
4.1788 -6.5024 -2.0013 0.9686
4.8496 -6.0180 -2.0011 0.9686
5.2663 -5.6565 -2.0011 0.9686
5.4648 -5.4648 -2.0010 0.9686
6.0173 -4.8491 -2.0009 0.9686
6.1864 -4.6311 -2.0009 0.9686
6.3477 -4.4073 -2.0008 0.9686
6.6457 -3.9431 -2.0008 0.9686
7.1389 -2.9570 -2.0007 0.9686
7.4867 -1.9109 -2.0006 0.9686
7.6039 -1.3719 -2.0006 0.9686
7.6479 -1.0996 -2.0006 0.9686
7.6823 -0.8259 -2.0005 0.9686
7.7068 -0.5512 -2.0005 0.9686
7.7216 -0.2758 -2.0005 0.9686
-7.0760 -0.0000 -2.0032 0.9710
-7.0040 -1.0070 -2.0032 0.9710
-6.9636 -1.2564 -2.0032 0.9710
-6.9143 -1.5041 -2.0032 0.9710
-6.7893 -1.9935 -2.0032 0.9710
-6.7138 -2.2346 -2.0031 0.9710
-6.4364 -2.9394 -2.0031 0.9710
-6.3273 -3.1672 -2.0031 0.9710
-6.2102 -3.3910 -2.0031 0.9710
-6.0851 -3.6105 -2.0031 0.9710
-5.9523 -3.8253 -2.0030 0.9710
-5.6642 -4.2401 -2.0030 0.9710
-5.1783 -4.8211 -2.0029 0.9710
-4.0347 -5.8111 -2.0027 0.9710
-3.8247 -5.9513 -2.0027 0.9710
-3.3902 -6.2088 -2.0026 0.9710
-3.1664 -6.3257 -2.0026 0.9710
-2.9386 -6.4345 -2.0025 0.9710
-2.7070 -6.5352 -2.0025 0.9710
-2.2338 -6.7114 -2.0024 0.9710
-1.7492 -6.8534 -2.0023 0.9710
-1.5035 -6.9113 -2.0023 0.9710
-1.2558 -6.9604 -2.0022 0.9710
-0.7560 -7.0319 -2.0022 0.9710
-0.5045 -7.0543 -2.0021 0.9710
-0.2524 -7.0676 -2.0021 0.9710
0.7559 -7.0310 -2.0019 0.9710
1.0064 -6.9993 -2.0018 0.9710
1.2555 -6.9588 -2.0018 0.9710
1.5030 -6.9094 -2.0018 0.9710
1.9920 -6.7843 -2.0017 0.9710
2.2329 -6.7087 -2.0016 0.9710
2.4708 -6.6246 -2.0016 0.9710
2.7057 -6.5320 -2.0015 0.9710
2.9370 -6.4312 -2.0015 0.9710
3.3882 -6.2050 -2.0014 0.9710
3.6074 -6.0800 -2.0014 0.9710
3.8220 -5.9472 -2.0013 0.9710
4.2364 -5.6592 -2.0012 0.9710
4.4356 -5.5043 -2.0012 0.9710
4.6292 -5.3423 -2.0012 0.9710
4.8168 -5.1736 -2.0011 0.9710
4.9983 -4.9983 -2.0011 0.9710
5.3420 -4.6288 -2.0010 0.9710
5.5037 -4.4351 -2.0010 0.9710
5.6584 -4.2358 -2.0010 0.9710
5.8059 -4.0311 -2.0009 0.9710
5.9460 -3.8213 -2.0009 0.9710
6.4289 -2.9360 -2.0008 0.9710
6.5296 -2.7046 -2.0008 0.9710
6.7057 -2.2319 -2.0007 0.9710
6.7811 -1.9911 -2.0007 0.9710
6.9058 -1.5023 -2.0007 0.9710
6.9952 -1.0058 -2.0007 0.9710
7.0266 -0.7555 -2.0007 0.9710
7.0491 -0.5042 -2.0006 0.9710
7.0626 -0.2523 -2.0006 0.9710
-6.5124 0.0000 -2.0031 0.9731
-6.4958 -0.4646 -2.0031 0.9731
-6.4461 -0.9268 -2.0031 0.9731
-6.4089 -1.1563 -2.0031 0.9731
-6.2486 -1.8347 -2.0031 0.9731
-6.1017 -2.2758 -2.0030 0.9731
-6.0165 -2.4921 -2.0030 0.9731
-5.9237 -2.7053 -2.0030 0.9731
-5.7155 -3.1209 -2.0030 0.9731
-5.3490 -3.7139 -2.0029 0.9731
-4.9212 -4.2643 -2.0029 0.9731
-4.7658 -4.4371 -2.0028 0.9731
-4.4370 -4.7657 -2.0028 0.9731
-4.2640 -4.9210 -2.0028 0.9731
-3.9020 -5.2125 -2.0027 0.9731
-3.7134 -5.3483 -2.0027 0.9731
-2.7046 -5.9222 -2.0025 0.9731
-2.4914 -6.0148 -2.0025 0.9731
-1.8341 -6.2463 -2.0023 0.9731
-1.6099 -6.3077 -2.0023 0.9731
-0.9264 -6.4432 -2.0022 0.9731
-0.6958 -6.4721 -2.0021 0.9731
-0.4644 -6.4926 -2.0021 0.9731
-0.2323 -6.5050 -2.0021 0.9731
-0.0000 -6.5090 -2.0020 0.9731
0.2323 -6.5047 -2.0020 0.9731
0.9262 -6.4422 -2.0018 0.9731
1.1556 -6.4049 -2.0018 0.9731
1.6095 -6.3058 -2.0017 0.9731
1.8335 -6.2443 -2.0017 0.9731
2.2742 -6.0973 -2.0016 0.9731
3.7109 -5.3448 -2.0013 0.9731
4.0826 -5.0662 -2.0013 0.9731
4.2608 -4.9172 -2.0012 0.9731
5.2081 -3.8988 -2.0010 0.9731
5.3439 -3.7104 -2.0010 0.9731
5.4729 -3.5172 -2.0010 0.9731
5.5948 -3.3196 -2.0010 0.9731
5.7097 -3.1177 -2.0009 0.9731
5.8173 -2.9119 -2.0009 0.9731
6.0950 -2.2733 -2.0008 0.9731
6.1722 -2.0543 -2.0008 0.9731
6.2416 -1.8327 -2.0008 0.9731
6.3029 -1.6087 -2.0008 0.9731
6.4016 -1.1550 -2.0008 0.9731
6.4676 -0.6953 -2.0008 0.9731
-6.0257 -0.0000 -2.0030 0.9749
-6.0219 -0.2151 -2.0030 0.9749
-6.0104 -0.4299 -2.0030 0.9749
-5.9644 -0.8576 -2.0030 0.9749
-5.9300 -1.0699 -2.0030 0.9749
-5.8880 -1.2809 -2.0030 0.9749
-5.7816 -1.6976 -2.0030 0.9749
-5.6457 -2.1057 -2.0030 0.9749
-5.5669 -2.3059 -2.0029 0.9749
-5.1820 -3.0746 -2.0029 0.9749
-5.0689 -3.2576 -2.0029 0.9749
-4.5535 -3.9456 -2.0028 0.9749
-4.2603 -4.2603 -2.0027 0.9749
-4.1055 -4.4096 -2.0027 0.9749
-3.7804 -4.6911 -2.0027 0.9749
-3.4360 -4.9487 -2.0026 0.9749
-3.2571 -5.0681 -2.0026 0.9749
-3.0741 -5.1811 -2.0025 0.9749
-2.8871 -5.2874 -2.0025 0.9749
-2.3053 -5.5655 -2.0024 0.9749
-2.1051 -5.6441 -2.0024 0.9749
-1.9023 -5.7155 -2.0023 0.9749
-1.2804 -5.8858 -2.0022 0.9749
-1.0695 -5.9276 -2.0022 0.9749
-0.2150 -6.0191 -2.0020 0.9749
0.4296 -6.0072 -2.0019 0.9749
0.8571 -5.9610 -2.0019 0.9749
1.0693 -5.9265 -2.0018 0.9749
1.9017 -5.7136 -2.0017 0.9749
2.1043 -5.6420 -2.0016 0.9749
2.5014 -5.4773 -2.0015 0.9749
2.8856 -5.2847 -2.0015 0.9749
3.2552 -5.0652 -2.0014 0.9749
3.6081 -4.8199 -2.0013 0.9749
3.9426 -4.5500 -2.0013 0.9749
4.4062 -4.1024 -2.0012 0.9749
4.5498 -3.9424 -2.0012 0.9749
4.9449 -3.4333 -2.0011 0.9749
5.0643 -3.2546 -2.0011 0.9749
5.3830 -2.6945 -2.0010 0.9749
5.5614 -2.3036 -2.0009 0.9749
5.6400 -2.1036 -2.0009 0.9749
5.7756 -1.6959 -2.0009 0.9749
5.8818 -1.2795 -2.0009 0.9749
5.9237 -1.0688 -2.0009 0.9749
5.9580 -0.8566 -2.0008 0.9749
5.9848 -0.6434 -2.0008 0.9749
6.0039 -0.4294 -2.0008 0.9749
6.0154 -0.2148 -2.0008 0.9749
-5.5973 -0.1999 -2.0029 0.9765
-5.5866 -0.3996 -2.0029 0.9765
-5.5688 -0.5987 -2.0029 0.9765
-5.5439 -0.7971 -2.0029 0.9765
-5.4729 -1.1905 -2.0029 0.9765
-5.4269 -1.3851 -2.0029 0.9765
-5.3740 -1.5779 -2.0029 0.9765
-5.1744 -2.1433 -2.0029 0.9765
-5.0946 -2.3266 -2.0029 0.9765
-5.0083 -2.5070 -2.0028 0.9765
-4.8166 -2.8578 -2.0028 0.9765
-4.4834 -3.3562 -2.0028 0.9765
-4.3607 -3.5141 -2.0027 0.9765
-4.2325 -3.6675 -2.0027 0.9765
-4.0988 -3.8161 -2.0027 0.9765
-3.9600 -3.9600 -2.0027 0.9765
-3.5138 -4.3604 -2.0026 0.9765
-3.3559 -4.4830 -2.0026 0.9765
-2.6836 -4.9147 -2.0025 0.9765
-2.3261 -5.0935 -2.0024 0.9765
-1.9567 -5.2463 -2.0023 0.9765
-1.7682 -5.3127 -2.0023 0.9765
-1.5775 -5.3723 -2.0023 0.9765
-1.3847 -5.4251 -2.0022 0.9765
-0.9941 -5.5099 -2.0022 0.9765
-0.7968 -5.5417 -2.0021 0.9765
-0.5985 -5.5666 -2.0021 0.9765
0.0000 -5.5983 -2.0020 0.9765
0.9939 -5.5089 -2.0018 0.9765
1.1899 -5.4698 -2.0018 0.9765
1.3843 -5.4237 -2.0017 0.9765
1.7677 -5.3110 -2.0017 0.9765
2.6823 -4.9123 -2.0015 0.9765
2.8559 -4.8134 -2.0015 0.9765
3.0258 -4.7083 -2.0014 0.9765
3.3539 -4.4803 -2.0014 0.9765
3.5116 -4.3577 -2.0013 0.9765
3.8134 -4.0959 -2.0013 0.9765
4.2292 -3.6647 -2.0012 0.9765
4.3573 -3.5113 -2.0012 0.9765
4.5966 -3.1915 -2.0011 0.9765
4.7075 -3.0253 -2.0011 0.9765
4.8124 -2.8554 -2.0011 0.9765
4.9112 -2.6817 -2.0011 0.9765
5.0899 -2.3245 -2.0010 0.9765
5.1696 -2.1413 -2.0010 0.9765
5.2427 -1.9554 -2.0010 0.9765
5.3091 -1.7671 -2.0010 0.9765
5.3688 -1.5764 -2.0010 0.9765
5.4216 -1.3838 -2.0010 0.9765
5.4675 -1.1894 -2.0009 0.9765
5.5064 -0.9935 -2.0009 0.9765
5.5632 -0.5981 -2.0009 0.9765
5.5810 -0.3992 -2.0009 0.9765
5.5917 -0.1997 -2.0009 0.9765
-5.2264 -0.0000 -2.0028 0.9779
-5.2231 -0.1865 -2.0028 0.9779
-5.2131 -0.3729 -2.0028 0.9779
-5.1964 -0.5587 -2.0028 0.9779
-5.1433 -0.9279 -2.0028 0.9779
-5.0640 -1.2925 -2.0028 0.9779
-5.0146 -1.4724 -2.0028 0.9779
-4.8968 -1.8264 -2.0028 0.9779
-4.7540 -2.1711 -2.0028 0.9779
-4.6734 -2.3393 -2.0028 0.9779
-4.4946 -2.6667 -2.0028 0.9779
-4.3965 -2.8254 -2.0027 0.9779
-4.2928 -2.9805 -2.0027 0.9779
-4.0692 -3.2791 -2.0027 0.9779
-3.5609 -3.8247 -2.0026 0.9779
-3.4221 -3.9493 -2.0026 0.9779
-3.2789 -4.0689 -2.0026 0.9779
-2.8251 -4.3959 -2.0025 0.9779
-2.6664 -4.4939 -2.0025 0.9779
-2.5042 -4.5862 -2.0024 0.9779
-2.3389 -4.6725 -2.0024 0.9779
-1.8260 -4.8956 -2.0023 0.9779
-1.6500 -4.9576 -2.0023 0.9779
-1.4720 -5.0132 -2.0023 0.9779
-1.2921 -5.0625 -2.0022 0.9779
-1.1106 -5.1053 -2.0022 0.9779
-0.7435 -5.1713 -2.0021 0.9779
-0.5585 -5.1945 -2.0021 0.9779
-0.3727 -5.2110 -2.0021 0.9779
0.3727 -5.2107 -2.0019 0.9779
1.1104 -5.1043 -2.0018 0.9779
1.2918 -5.0613 -2.0018 0.9779
1.4716 -5.0119 -2.0017 0.9779
1.9988 -4.8256 -2.0016 0.9779
2.3379 -4.6706 -2.0016 0.9779
2.6651 -4.4918 -2.0015 0.9779
2.9786 -4.2901 -2.0014 0.9779
3.1298 -4.1810 -2.0014 0.9779
3.2770 -4.0665 -2.0014 0.9779
3.6928 -3.6928 -2.0013 0.9779
3.8222 -3.5586 -2.0013 0.9779
4.0662 -3.2767 -2.0012 0.9779
4.2895 -2.9783 -2.0012 0.9779
4.4909 -2.6646 -2.0011 0.9779
4.6695 -2.3374 -2.0011 0.9779
5.0101 -1.4711 -2.0010 0.9779
5.1023 -1.1099 -2.0010 0.9779
5.1386 -0.9271 -2.0010 0.9779
5.2082 -0.3725 -2.0010 0.9779
5.2182 -0.1864 -2.0010 0.9779
-1.8978 0.0000 -0.7767 0.9918
-1.9525 -0.1396 -0.8011 0.9916
-1.9570 -0.2104 -0.8055 0.9915
-2.1703 -0.3916 -0.9026 0.9905
-4.7817 -1.0402 -2.0028 0.9791
-4.6952 -1.3787 -2.0028 0.9791
-4.6430 -1.5453 -2.0028 0.9791
-4.5849 -1.7101 -2.0028 0.9791
-4.5209 -1.8726 -2.0027 0.9791
-4.4512 -2.0328 -2.0027 0.9791
-4.2083 -2.4969 -2.0027 0.9791
-3.9172 -2.9324 -2.0027 0.9791
-3.6980 -3.2043 -2.0026 0.9791
-3.5812 -3.3342 -2.0026 0.9791
-3.3342 -3.5811 -2.0026 0.9791
-2.7904 -4.0190 -2.0025 0.9791
-2.4966 -4.2077 -2.0024 0.9791
-2.3448 -4.2941 -2.0024 0.9791
-2.1900 -4.3750 -2.0024 0.9791
-2.0324 -4.4503 -2.0023 0.9791
-1.8722 -4.5200 -2.0023 0.9791
-1.5450 -4.6419 -2.0023 0.9791
-1.3783 -4.6940 -2.0022 0.9791
-1.0399 -4.7802 -2.0022 0.9791
-0.8686 -4.8142 -2.0021 0.9791
-0.6962 -4.8421 -2.0021 0.9791
-0.3490 -4.8792 -2.0020 0.9791
-0.1746 -4.8885 -2.0020 0.9791
0.1746 -4.8884 -2.0020 0.9791
0.3489 -4.8789 -2.0019 0.9791
0.5229 -4.8633 -2.0019 0.9791
0.6961 -4.8415 -2.0019 0.9791
0.8684 -4.8135 -2.0018 0.9791
1.0397 -4.7793 -2.0018 0.9791
1.2096 -4.7391 -2.0018 0.9791
1.3779 -4.6928 -2.0017 0.9791
1.5445 -4.6406 -2.0017 0.9791
1.8716 -4.5184 -2.0016 0.9791
2.4954 -4.2058 -2.0015 0.9791
2.6439 -4.1140 -2.0015 0.9791
3.0684 -3.8077 -2.0014 0.9791
3.3321 -3.5790 -2.0014 0.9791
3.4577 -3.4577 -2.0013 0.9791
3.5789 -3.3321 -2.0013 0.9791
3.6955 -3.2022 -2.0013 0.9791
3.8074 -3.0682 -2.0013 0.9791
4.1134 -2.6435 -2.0012 0.9791
4.2915 -2.3433 -2.0012 0.9791
4.5811 -1.7087 -2.0011 0.9791
4.6392 -1.5441 -2.0011 0.9791
4.8612 -0.5226 -2.0010 0.9791
-1.5222 0.0000 -0.6634 0.9934
-1.5249 -0.1639 -0.6684 0.9933
-1.5151 -0.2179 -0.6671 0.9933
-1.5002 -0.2707 -0.6643 0.9934
-1.5214 -0.3310 -0.6786 0.9932
-1.5485 -0.3952 -0.6965 0.9931
-1.5875 -0.5284 -0.7292 0.9927
-1.5984 -0.5962 -0.7435 0.9926
-4.2455 -1.7585 -2.0027 0.9801
-4.1800 -1.9089 -2.0027 0.9801
-4.1092 -2.0569 -2.0027 0.9801
-3.7745 -2.6207 -2.0026 0.9801
-3.4727 -3.0091 -2.0026 0.9801
-3.1310 -3.3630 -2.0025 0.9802
-3.0090 -3.4725 -2.0025 0.9802
-2.7535 -3.6783 -2.0025 0.9802
-2.6204 -3.7742 -2.0024 0.9802
-2.3445 -3.9514 -2.0024 0.9802
-2.0566 -4.1085 -2.0023 0.9802
-0.8157 -4.5210 -2.0021 0.9802
-0.6538 -4.5471 -2.0021 0.9802
-0.4911 -4.5675 -2.0021 0.9802
-0.3277 -4.5821 -2.0020 0.9802
-0.1640 -4.5908 -2.0020 0.9802
0.0000 -4.5936 -2.0020 0.9802
0.4910 -4.5671 -2.0019 0.9802
1.2940 -4.4070 -2.0017 0.9802
1.6051 -4.3034 -2.0017 0.9802
1.7576 -4.2433 -2.0017 0.9802
2.0558 -4.1070 -2.0016 0.9802
2.6192 -3.7724 -2.0015 0.9802
2.7521 -3.6765 -2.0015 0.9802
3.0073 -3.4707 -2.0014 0.9802
3.2472 -3.2472 -2.0014 0.9802
3.5756 -2.8814 -2.0013 0.9802
3.8630 -2.4826 -2.0013 0.9802
4.1061 -2.0554 -2.0012 0.9802
4.3022 -1.6047 -2.0012 0.9802
4.3567 -1.4501 -2.0011 0.9802
4.4057 -1.2936 -2.0011 0.9802
4.4490 -1.1356 -2.0011 0.9802
4.4867 -0.9760 -2.0011 0.9802
4.5187 -0.8153 -2.0011 0.9802
4.5449 -0.6535 -2.0011 0.9802
4.5799 -0.3276 -2.0011 0.9802
-1.3273 -0.1908 -0.6207 0.9941
-1.3160 -0.2374 -0.6190 0.9941
-1.3013 -0.2831 -0.6164 0.9941
-1.3117 -0.3348 -0.6266 0.9941
-1.3241 -0.3888 -0.6388 0.9939
-1.3324 -0.4435 -0.6500 0.9938
-1.3263 -0.5494 -0.6645 0.9937
-3.7207 -2.2076 -2.0026 0.9811
-3.6396 -2.3390 -2.0026 0.9811
-3.5537 -2.4674 -2.0026 0.9811
-3.1663 -2.9479 -2.0025 0.9811
-3.0591 -3.0590 -2.0025 0.9811
-2.8330 -3.2694 -2.0025 0.9811
-2.7144 -3.3684 -2.0024 0.9811
-2.5925 -3.4631 -2.0024 0.9811
-2.4672 -3.5534 -2.0024 0.9811
-2.2073 -3.7203 -2.0024 0.9811
-2.0731 -3.7967 -2.0023 0.9811
-1.9363 -3.8682 -2.0023 0.9811
-1.7970 -3.9348 -2.0023 0.9811
-1.2186 -4.1502 -2.0022 0.9811
-0.3086 -4.3141 -2.0020 0.9811
0.1544 -4.3222 -2.0019 0.9811
0.3085 -4.3139 -2.0019 0.9811
0.4623 -4.3000 -2.0019 0.9811
0.6155 -4.2808 -2.0019 0.9811
0.7679 -4.2560 -2.0018 0.9811
1.0695 -4.1903 -2.0018 0.9811
1.3657 -4.1032 -2.0017 0.9811
1.5112 -4.0518 -2.0017 0.9811
1.6548 -3.9952 -2.0017 0.9811
1.9356 -3.8668 -2.0016 0.9811
2.0724 -3.7952 -2.0016 0.9811
2.4661 -3.5518 -2.0015 0.9811
2.5912 -3.4615 -2.0015 0.9811
2.7131 -3.3668 -2.0015 0.9811
2.8315 -3.2678 -2.0015 0.9811
3.2676 -2.8314 -2.0014 0.9811
3.4612 -2.5910 -2.0013 0.9811
3.5515 -2.4658 -2.0013 0.9811
3.7183 -2.2061 -2.0013 0.9811
3.9327 -1.7960 -2.0012 0.9811
4.0507 -1.5109 -2.0012 0.9811
4.1481 -1.2180 -2.0012 0.9811
4.3122 -0.3084 -2.0011 0.9811
-1.1954 0.0000 -0.5864 0.9947
-1.1965 -0.0427 -0.5873 0.9947
-1.1953 -0.0855 -0.5878 0.9947
-1.1921 -0.1282 -0.5881 0.9947
-1.1867 -0.1706 -0.5881 0.9947
-1.1791 -0.2127 -0.5877 0.9947
-1.1695 -0.2544 -0.5871 0.9947
-1.1590 -0.3403 -0.5925 0.9946
-1.1543 -0.4305 -0.6043 0.9945
-1.1484 -0.4757 -0.6097 0.9945
-3.4344 -2.2072 -2.0026 0.9820
-3.3534 -2.3283 -2.0025 0.9820
-3.0853 -2.6734 -2.0025 0.9820
-2.9879 -2.7818 -2.0025 0.9820
-2.8866 -2.8866 -2.0025 0.9820
-2.7817 -2.9878 -2.0025 0.9820
-2.4464 -3.2680 -2.0024 0.9820
-2.0829 -3.5106 -2.0023 0.9820
-1.9563 -3.5827 -2.0023 0.9820
-1.8272 -3.6502 -2.0023 0.9820
-1.4265 -3.8245 -2.0022 0.9820
-1.0094 -3.9549 -2.0022 0.9820
-0.8676 -3.9883 -2.0021 0.9820
-0.4363 -4.0581 -2.0021 0.9820
-0.1457 -4.0788 -2.0020 0.9820
0.2912 -4.0708 -2.0019 0.9820
0.4363 -4.0578 -2.0019 0.9820
0.7246 -4.0162 -2.0018 0.9820
0.8675 -3.9877 -2.0018 0.9820
1.4261 -3.8235 -2.0017 0.9820
1.5616 -3.7701 -2.0017 0.9820
1.6952 -3.7119 -2.0017 0.9820
2.2061 -3.4327 -2.0016 0.9820
2.4453 -3.2665 -2.0015 0.9820
2.5603 -3.1771 -2.0015 0.9820
2.6720 -3.0837 -2.0015 0.9820
2.7803 -2.9863 -2.0015 0.9820
3.2662 -2.4451 -2.0014 0.9820
3.3514 -2.3269 -2.0013 0.9820
3.4323 -2.2058 -2.0013 0.9820
3.5088 -2.0819 -2.0013 0.9820
3.7112 -1.6949 -2.0013 0.9820
3.7693 -1.5613 -2.0013 0.9820
3.8710 -1.2884 -2.0012 0.9820
3.9865 -0.8672 -2.0012 0.9820
4.0382 -0.5806 -2.0012 0.9820
4.0563 -0.4361 -2.0012 0.9820
4.0693 -0.2910 -2.0012 0.9820
4.0771 -0.1456 -2.0012 0.9820
-1.1058 0.0000 -0.5737 0.9950
-1.1066 -0.0395 -0.5744 0.9950
-1.1055 -0.0791 -0.5750 0.9950
-1.1024 -0.1185 -0.5752 0.9950
-1.0974 -0.1578 -0.5752 0.9950
-1.0905 -0.1967 -0.5749 0.9950
-1.0814 -0.2352 -0.5741 0.9950
-1.0636 -0.3123 -0.5751 0.9950
-1.0617 -0.3534 -0.5805 0.9950
-1.0514 -0.4355 -0.5904 0.9949
-1.0298 -0.5155 -0.5974 0.9948
-0.9917 -0.5884 -0.5982 0.9948
-3.1707 -2.2015 -2.0025 0.9828
-3.0901 -2.3132 -2.0025 0.9828
-2.9172 -2.5278 -2.0025 0.9828
-2.7294 -2.7294 -2.0024 0.9828
-2.5277 -2.9171 -2.0024 0.9828
-2.4219 -3.0054 -2.0024 0.9828
-2.2013 -3.1705 -2.0024 0.9828
-2.0867 -3.2470 -2.0023 0.9828
-1.9695 -3.3194 -2.0023 0.9828
-1.8497 -3.3875 -2.0023 0.9828
-1.7276 -3.4513 -2.0023 0.9828
-1.4770 -3.5657 -2.0022 0.9828
-1.3488 -3.6161 -2.0022 0.9828
-1.0873 -3.7030 -2.0022 0.9828
-0.9544 -3.7395 -2.0021 0.9828
-0.5492 -3.8199 -2.0021 0.9828
-0.4125 -3.8370 -2.0020 0.9828
-0.2753 -3.8493 -2.0020 0.9828
-0.1377 -3.8566 -2.0020 0.9828
0.1377 -3.8565 -2.0019 0.9828
0.6851 -3.7974 -2.0018 0.9828
0.8202 -3.7705 -2.0018 0.9828
0.9543 -3.7388 -2.0018 0.9828
1.0871 -3.7023 -2.0018 0.9828
1.3484 -3.6153 -2.0017 0.9828
1.9688 -3.3182 -2.0016 0.9828
2.0859 -3.2458 -2.0016 0.9828
2.3121 -3.0886 -2.0015 0.9828
2.5265 -2.9158 -2.0015 0.9828
2.6289 -2.8237 -2.0015 0.9828
2.8236 -2.6289 -2.0014 0.9828
3.1689 -2.2002 -2.0014 0.9828
3.3178 -1.9685 -2.0013 0.9828
3.4497 -1.7268 -2.0013 0.9828
3.5640 -1.4763 -2.0013 0.9828
3.6144 -1.3481 -2.0013 0.9828
3.6602 -1.2183 -2.0013 0.9828
3.7378 -0.9540 -2.0012 0.9828
3.7694 -0.8200 -2.0012 0.9828
3.7963 -0.6849 -2.0012 0.9828
3.8183 -0.5490 -2.0012 0.9828
3.8354 -0.4124 -2.0012 0.9828
3.8477 -0.2752 -2.0012 0.9828
-1.0269 0.0000 -0.5625 0.9953
-0.9820 -0.2884 -0.5606 0.9953
-0.9785 -0.3257 -0.5648 0.9953
-0.9741 -0.3633 -0.5694 0.9953
-0.9269 -0.5061 -0.5784 0.9952
-2.9269 -2.1910 -2.0025 0.9835
-2.7631 -2.3942 -2.0024 0.9835
-2.6758 -2.4913 -2.0024 0.9835
-2.4913 -2.6758 -2.0024 0.9835
-2.2940 -2.8467 -2.0024 0.9835
-1.9765 -3.0755 -2.0023 0.9835
-1.3990 -3.3774 -2.0022 0.9835
-1.2775 -3.4251 -2.0022 0.9835
-0.6490 -3.5973 -2.0021 0.9835
-0.5202 -3.6182 -2.0021 0.9835
-0.2608 -3.6460 -2.0020 0.9835
0.0000 -3.6552 -2.0020 0.9835
0.2608 -3.6458 -2.0019 0.9835
0.9039 -3.5414 -2.0018 0.9835
1.0297 -3.5068 -2.0018 0.9835
1.1542 -3.4678 -2.0018 0.9835
1.2772 -3.4243 -2.0017 0.9835
1.3986 -3.3765 -2.0017 0.9835
1.5182 -3.3244 -2.0017 0.9835
1.6359 -3.2681 -2.0017 0.9835
1.7515 -3.2076 -2.0016 0.9835
2.0842 -3.0019 -2.0016 0.9835
2.2930 -2.8455 -2.0015 0.9835
2.4901 -2.6746 -2.0015 0.9835
2.5840 -2.5840 -2.0015 0.9835
2.6746 -2.4901 -2.0015 0.9835
2.7617 -2.3930 -2.0014 0.9835
2.8453 -2.2929 -2.0014 0.9835
2.9253 -2.1899 -2.0014 0.9835
3.0016 -2.0841 -2.0014 0.9835
3.0741 -1.9756 -2.0014 0.9835
3.1426 -1.8646 -2.0014 0.9835
3.2071 -1.7512 -2.0014 0.9835
3.2676 -1.6356 -2.0013 0.9835
3.3238 -1.5179 -2.0013 0.9835
3.3759 -1.3983 -2.0013 0.9835
3.5404 -0.9037 -2.0013 0.9835
3.5704 -0.7767 -2.0013 0.9835
3.6330 -0.3906 -2.0013 0.9835
3.6446 -0.2607 -2.0013 0.9835
-0.9565 -0.0684 -0.5536 0.9956
-0.9538 -0.1026 -0.5538 0.9956
-0.8687 -0.4349 -0.5609 0.9955
-0.8534 -0.4660 -0.5614 0.9955
-0.8178 -0.5256 -0.5613 0.9955
-0.8008 -0.5560 -0.5628 0.9955
-0.7846 -0.5873 -0.5658 0.9955
-0.7671 -0.6182 -0.5688 0.9955
-2.5384 -2.3633 -2.0024 0.9841
-2.4524 -2.4524 -2.0024 0.9841
-2.3633 -2.5384 -2.0024 0.9841
-2.2712 -2.6211 -2.0024 0.9841
-2.0784 -2.7764 -2.0023 0.9841
-1.8750 -2.9175 -2.0023 0.9841
-1.6620 -3.0438 -2.0023 0.9841
-1.5523 -3.1012 -2.0022 0.9841
-1.3271 -3.2039 -2.0022 0.9841
-1.2119 -3.2492 -2.0022 0.9841
-1.0951 -3.2904 -2.0022 0.9841
-0.8576 -3.3601 -2.0021 0.9841
-0.4935 -3.4324 -2.0021 0.9841
-0.3707 -3.4478 -2.0020 0.9841
-0.1238 -3.4653 -2.0020 0.9841
0.0000 -3.4675 -2.0020 0.9841
0.1238 -3.4653 -2.0019 0.9841
0.2474 -3.4586 -2.0019 0.9841
0.3706 -3.4475 -2.0019 0.9841
0.4934 -3.4321 -2.0019 0.9841
0.6156 -3.4122 -2.0019 0.9841
1.2116 -3.2485 -2.0017 0.9841
1.5519 -3.1003 -2.0017 0.9841
1.8743 -2.9165 -2.0016 0.9841
2.4513 -2.4514 -2.0015 0.9841
2.8475 -1.9771 -2.0014 0.9841
2.9162 -1.8742 -2.0014 0.9841
2.9813 -1.7689 -2.0014 0.9841
3.0425 -1.6613 -2.0014 0.9841
3.0998 -1.5517 -2.0014 0.9841
1.8508 -0.8452 -1.1747 0.9906
1.9351 -0.5682 -1.1644 0.9907
2.0359 -0.1456 -1.1784 0.9906
2.0320 -0.0726 -1.1739 0.9907
