ply
format ascii 1.0
element vertex 720
property float32 x
property float32 y
property float32 z
property float32 I
end_header
-9.5359 -0.0000 -2.0157 0.9618
-9.4809 -1.0193 -2.0156 0.9618
-9.2377 -2.3578 -2.0153 0.9618
-9.1470 -2.6858 -2.0151 0.9618
-8.3624 -4.5662 -2.0140 0.9618
-8.1931 -4.8612 -2.0138 0.9618
-8.0134 -5.1499 -2.0135 0.9618
-7.8234 -5.4319 -2.0132 0.9618
-6.9665 -6.4860 -2.0120 0.9618
-6.7294 -6.7294 -2.0117 0.9618
-6.4838 -6.9641 -2.0113 0.9618
-6.2300 -7.1898 -2.0110 0.9619
-5.9683 -7.4062 -2.0106 0.9619
-5.6991 -7.6130 -2.0102 0.9619
-5.4226 -7.8101 -2.0098 0.9619
-5.1394 -7.9970 -2.0094 0.9619
-4.8497 -8.1737 -2.0090 0.9619
-2.9975 -9.0059 -2.0063 0.9619
-2.0162 -9.2683 -2.0049 0.9620
-1.6837 -9.3321 -2.0045 0.9620
-1.0132 -9.4240 -2.0035 0.9620
-0.6760 -9.4519 -2.0030 0.9620
-0.3381 -9.4677 -2.0026 0.9620
1.3467 -9.3661 -2.0002 0.9621
1.6797 -9.3099 -1.9997 0.9621
2.0104 -9.2418 -1.9992 0.9621
2.3385 -9.1620 -1.9988 0.9621
2.9848 -8.9677 -1.9978 0.9621
3.6153 -8.7280 -1.9969 0.9621
3.9236 -8.5916 -1.9965 0.9621
5.1021 -7.9391 -1.9948 0.9622
5.3812 -7.7503 -1.9944 0.9622
5.9181 -7.3439 -1.9937 0.9622
6.4246 -6.9005 -1.9930 0.9622
6.6657 -6.6657 -1.9926 0.9622
7.1219 -6.1712 -1.9920 0.9622
7.5417 -5.6457 -1.9914 0.9622
7.7374 -5.3722 -1.9911 0.9622
8.0988 -4.8053 -1.9906 0.9622
8.5633 -3.9107 -1.9899 0.9622
8.6966 -3.6022 -1.9897 0.9622
8.8188 -3.2893 -1.9896 0.9622
9.0297 -2.6514 -1.9893 0.9623
9.1180 -2.3272 -1.9891 0.9623
9.3846 -0.6712 -1.9888 0.9623
9.4024 -0.3358 -1.9888 0.9623
-8.5707 0.0000 -2.0143 0.9654
-8.5652 -0.3059 -2.0143 0.9654
-8.5213 -0.9161 -2.0142 0.9654
-8.4829 -1.2197 -2.0142 0.9654
-8.4337 -1.5216 -2.0141 0.9654
-8.3029 -2.1192 -2.0139 0.9654
-7.5167 -4.1044 -2.0128 0.9654
-7.0325 -4.8827 -2.0121 0.9654
-6.8528 -5.1300 -2.0119 0.9654
-6.4676 -5.6042 -2.0113 0.9654
-6.2626 -5.8306 -2.0110 0.9655
-6.0495 -6.0496 -2.0107 0.9655
-5.8289 -6.2606 -2.0104 0.9655
-5.1237 -6.8444 -2.0094 0.9655
-4.8752 -7.0217 -2.0090 0.9655
-4.6207 -7.1899 -2.0087 0.9655
-3.5477 -7.7684 -2.0071 0.9655
-3.2675 -7.8885 -2.0067 0.9655
-2.6954 -8.0982 -2.0059 0.9655
-2.4041 -8.1876 -2.0055 0.9655
-1.5142 -8.3923 -2.0042 0.9656
-0.6080 -8.5006 -2.0029 0.9656
0.3040 -8.5114 -2.0017 0.9656
0.6075 -8.4933 -2.0012 0.9656
0.9100 -8.4644 -2.0008 0.9656
1.5109 -8.3743 -1.9999 0.9656
1.8084 -8.3133 -1.9995 0.9656
2.1036 -8.2417 -1.9991 0.9657
2.6851 -8.0673 -1.9983 0.9657
2.9707 -7.9647 -1.9979 0.9657
3.2524 -7.8521 -1.9975 0.9657
4.0708 -7.4550 -1.9963 0.9657
4.3335 -7.3036 -1.9959 0.9657
5.0866 -6.7949 -1.9949 0.9657
5.3250 -6.6079 -1.9945 0.9657
5.5565 -6.4126 -1.9942 0.9657
5.7810 -6.2092 -1.9939 0.9657
5.9980 -5.9980 -1.9936 0.9657
6.2073 -5.7792 -1.9933 0.9658
6.4087 -5.5532 -1.9930 0.9658
6.7867 -5.0805 -1.9924 0.9658
7.2883 -4.3244 -1.9917 0.9658
7.4372 -4.0610 -1.9915 0.9658
7.5767 -3.7926 -1.9913 0.9658
7.8266 -3.2419 -1.9910 0.9658
7.9367 -2.9602 -1.9908 0.9658
8.0367 -2.6749 -1.9907 0.9658
8.2061 -2.0945 -1.9904 0.9658
8.2752 -1.8002 -1.9903 0.9658
8.4462 -0.6041 -1.9901 0.9658
-7.7704 -0.2775 -2.0132 0.9684
-7.7306 -0.8311 -2.0131 0.9684
-7.6958 -1.1065 -2.0131 0.9684
-7.6512 -1.3804 -2.0130 0.9684
-7.5967 -1.6526 -2.0129 0.9684
-7.3754 -2.4548 -2.0126 0.9684
-6.5353 -4.2000 -2.0114 0.9684
-6.2176 -4.6544 -2.0110 0.9684
-6.0468 -4.8728 -2.0107 0.9684
-5.4891 -5.4891 -2.0099 0.9684
-5.2889 -5.6807 -2.0096 0.9684
-5.0820 -5.8650 -2.0093 0.9684
-4.6493 -6.2107 -2.0087 0.9685
-3.9568 -6.6688 -2.0077 0.9685
-3.7156 -6.8046 -2.0074 0.9685
-3.4698 -6.9317 -2.0070 0.9685
-2.9654 -7.1590 -2.0063 0.9685
-2.4462 -7.3496 -2.0056 0.9685
-2.1819 -7.4308 -2.0052 0.9685
-1.1013 -7.6598 -2.0037 0.9685
-0.8271 -7.6927 -2.0033 0.9685
-0.0000 -7.7325 -2.0021 0.9686
0.5514 -7.7098 -2.0013 0.9686
1.0996 -7.6478 -2.0005 0.9686
1.9097 -7.4822 -1.9994 0.9686
2.1751 -7.4078 -1.9990 0.9686
2.4377 -7.3241 -1.9986 0.9686
2.9529 -7.1289 -1.9979 0.9686
3.4527 -6.8977 -1.9972 0.9686
3.6961 -6.7689 -1.9968 0.9686
4.1681 -6.4858 -1.9962 0.9686
4.8353 -6.0002 -1.9952 0.9687
5.0456 -5.8229 -1.9949 0.9687
5.2495 -5.6383 -1.9946 0.9687
5.4466 -5.4466 -1.9944 0.9687
5.6368 -5.2480 -1.9941 0.9687
5.8197 -5.0428 -1.9938 0.9687
5.9953 -4.8313 -1.9936 0.9687
6.4751 -4.1613 -1.9929 0.9687
6.6189 -3.9271 -1.9927 0.9687
6.7542 -3.6881 -1.9925 0.9687
6.8809 -3.4443 -1.9923 0.9687
6.9989 -3.1963 -1.9922 0.9687
7.2989 -2.4293 -1.9917 0.9687
7.4528 -1.9022 -1.9915 0.9687
7.5156 -1.6349 -1.9914 0.9687
-7.1080 0.0000 -2.0122 0.9709
-7.1035 -0.2537 -2.0122 0.9709
-7.0899 -0.5071 -2.0122 0.9709
-6.8187 -2.0021 -2.0118 0.9709
-6.6577 -2.4832 -2.0116 0.9709
-6.5644 -2.7191 -2.0115 0.9709
-6.4627 -2.9514 -2.0113 0.9709
-6.3528 -3.1800 -2.0112 0.9709
-6.1087 -3.6244 -2.0108 0.9709
-5.9748 -3.8398 -2.0106 0.9709
-5.3652 -4.6490 -2.0097 0.9709
-5.1953 -4.8369 -2.0095 0.9709
-4.8358 -5.1939 -2.0090 0.9709
-4.6466 -5.3625 -2.0087 0.9709
-4.2510 -5.6787 -2.0081 0.9709
-3.8340 -5.9658 -2.0076 0.9709
-3.6180 -6.0979 -2.0072 0.9710
-3.3975 -6.2221 -2.0069 0.9710
-2.9441 -6.4466 -2.0063 0.9710
-2.2370 -6.7210 -2.0053 0.9710
-1.7512 -6.8611 -2.0046 0.9710
-1.2568 -6.9661 -2.0039 0.9710
-1.0072 -7.0052 -2.0035 0.9710
-0.7564 -7.0355 -2.0032 0.9710
-0.5047 -7.0567 -2.0028 0.9710
-0.2525 -7.0690 -2.0025 0.9710
1.0058 -6.9952 -2.0007 0.9710
1.5017 -6.9032 -2.0000 0.9711
1.7468 -6.8440 -1.9996 0.9711
2.2299 -6.6997 -1.9989 0.9711
2.7012 -6.5213 -1.9983 0.9711
2.9318 -6.4197 -1.9979 0.9711
3.1585 -6.3100 -1.9976 0.9711
3.3812 -6.1922 -1.9973 0.9711
3.5995 -6.0667 -1.9970 0.9711
3.8132 -5.9334 -1.9967 0.9711
4.2255 -5.6446 -1.9961 0.9711
4.6161 -5.3273 -1.9955 0.9711
4.8027 -5.1585 -1.9953 0.9711
5.4853 -4.4203 -1.9943 0.9711
5.7854 -4.0169 -1.9939 0.9711
6.0561 -3.5932 -1.9935 0.9712
6.1799 -3.3745 -1.9933 0.9712
6.2959 -3.1515 -1.9932 0.9712
6.4039 -2.9246 -1.9930 0.9712
6.5037 -2.6939 -1.9929 0.9712
6.5953 -2.4599 -1.9927 0.9712
6.7533 -1.9829 -1.9925 0.9712
6.8769 -1.4960 -1.9923 0.9712
6.9257 -1.2495 -1.9923 0.9712
6.9657 -1.0015 -1.9922 0.9712
7.0191 -0.5020 -1.9921 0.9712
-6.5396 0.0000 -2.0114 0.9730
-6.5354 -0.2334 -2.0114 0.9730
-6.4352 -1.1610 -2.0113 0.9730
-6.3894 -1.3899 -2.0112 0.9730
-6.3355 -1.6170 -2.0111 0.9730
-6.2735 -1.8421 -2.0110 0.9730
-6.1254 -2.2847 -2.0108 0.9730
-6.0396 -2.5017 -2.0107 0.9730
-5.9461 -2.7155 -2.0106 0.9730
-5.8449 -2.9258 -2.0104 0.9730
-5.7363 -3.1323 -2.0103 0.9730
-5.3672 -3.7265 -2.0097 0.9730
-5.0867 -4.0991 -2.0093 0.9730
-4.9366 -4.2776 -2.0091 0.9730
-4.7803 -4.4506 -2.0089 0.9730
-4.2756 -4.9343 -2.0082 0.9730
-4.0962 -5.0831 -2.0079 0.9730
-3.9117 -5.2254 -2.0077 0.9731
-3.7222 -5.3610 -2.0074 0.9731
-3.5280 -5.4896 -2.0071 0.9731
-3.3293 -5.6113 -2.0068 0.9731
-3.1265 -5.7257 -2.0065 0.9731
-2.9197 -5.8328 -2.0063 0.9731
-2.4954 -6.0244 -2.0056 0.9731
-2.2784 -6.1087 -2.0053 0.9731
-1.8363 -6.2537 -2.0047 0.9731
-1.6116 -6.3142 -2.0044 0.9731
-1.3850 -6.3667 -2.0041 0.9731
-0.4645 -6.4948 -2.0028 0.9731
-0.2324 -6.5061 -2.0024 0.9731
0.2323 -6.5040 -2.0018 0.9731
0.9258 -6.4387 -2.0008 0.9731
1.1548 -6.4005 -2.0005 0.9731
1.3823 -6.3542 -2.0001 0.9732
1.8315 -6.2374 -1.9995 0.9732
2.2711 -6.0890 -1.9989 0.9732
2.9076 -5.8087 -1.9980 0.9732
3.1126 -5.7004 -1.9977 0.9732
3.3136 -5.5849 -1.9974 0.9732
3.5104 -5.4623 -1.9971 0.9732
3.7026 -5.3327 -1.9968 0.9732
3.8901 -5.1965 -1.9966 0.9732
4.0725 -5.0537 -1.9963 0.9732
4.2498 -4.9045 -1.9961 0.9732
4.9022 -4.2478 -1.9951 0.9732
5.0502 -4.0697 -1.9949 0.9732
5.7968 -2.9017 -1.9939 0.9732
5.8962 -2.6927 -1.9937 0.9732
5.9882 -2.4804 -1.9936 0.9732
6.2790 -1.6026 -1.9932 0.9732
6.3319 -1.3774 -1.9931 0.9732
-6.0335 -0.4315 -2.0107 0.9748
-5.9525 -1.0739 -2.0106 0.9748
-5.9102 -1.2857 -2.0105 0.9748
-5.8030 -1.7039 -2.0104 0.9748
-5.7382 -1.9099 -2.0103 0.9748
-5.6661 -2.1133 -2.0102 0.9748
-5.5002 -2.5119 -2.0099 0.9748
-5.4067 -2.7064 -2.0098 0.9748
-5.1991 -3.0848 -2.0095 0.9748
-4.9650 -3.4472 -2.0092 0.9748
-4.7055 -3.7919 -2.0088 0.9748
-4.5667 -3.9571 -2.0086 0.9749
-4.2719 -4.2719 -2.0082 0.9749
-4.1162 -4.4212 -2.0080 0.9749
-3.7895 -4.7025 -2.0075 0.9749
-3.6188 -4.8341 -2.0073 0.9749
-3.4435 -4.9596 -2.0070 0.9749
-3.2639 -5.0787 -2.0067 0.9749
-2.8925 -5.2972 -2.0062 0.9749
-2.7012 -5.3963 -2.0059 0.9749
-1.9047 -5.7226 -2.0048 0.9749
-1.4911 -5.8421 -2.0042 0.9749
-1.2815 -5.8908 -2.0039 0.9749
-1.0702 -5.9319 -2.0036 0.9749
-0.4298 -6.0096 -2.0027 0.9749
-0.2150 -6.0201 -2.0024 0.9749
0.0000 -6.0231 -2.0021 0.9749
0.6435 -5.9858 -2.0012 0.9749
0.8567 -5.9581 -2.0009 0.9749
1.2791 -5.8801 -2.0003 0.9750
1.6949 -5.7721 -1.9997 0.9750
2.3012 -5.5555 -1.9988 0.9750
2.4976 -5.4690 -1.9985 0.9750
2.6909 -5.3757 -1.9983 0.9750
2.8806 -5.2755 -1.9980 0.9750
3.0667 -5.1686 -1.9977 0.9750
3.4267 -4.9354 -1.9972 0.9750
3.7692 -4.6773 -1.9967 0.9750
3.9333 -4.5392 -1.9965 0.9750
4.0923 -4.3954 -1.9963 0.9750
4.2461 -4.2461 -1.9961 0.9750
4.3945 -4.0914 -1.9959 0.9750
4.5373 -3.9316 -1.9957 0.9750
4.8053 -3.5972 -1.9953 0.9750
4.9302 -3.4231 -1.9951 0.9750
5.2666 -2.8758 -1.9946 0.9750
5.3655 -2.6858 -1.9945 0.9750
5.4576 -2.4924 -1.9944 0.9750
5.5427 -2.2959 -1.9942 0.9750
5.6208 -2.0965 -1.9941 0.9750
5.6918 -1.8944 -1.9940 0.9750
5.7555 -1.6900 -1.9939 0.9750
5.8119 -1.4834 -1.9939 0.9750
5.9367 -0.8536 -1.9937 0.9750
5.9633 -0.6411 -1.9936 0.9750
5.9823 -0.4279 -1.9936 0.9750
5.9937 -0.2141 -1.9936 0.9750
-5.6174 -0.2006 -2.0101 0.9764
-5.6067 -0.4010 -2.0101 0.9764
-5.5636 -0.7999 -2.0100 0.9764
-5.4921 -1.1947 -2.0099 0.9764
-5.4457 -1.3899 -2.0099 0.9764
-5.3925 -1.5834 -2.0098 0.9764
-5.3323 -1.7747 -2.0097 0.9764
-5.2653 -1.9638 -2.0096 0.9764
-4.9310 -2.6925 -2.0091 0.9764
-4.7257 -3.0370 -2.0088 0.9764
-4.4963 -3.3658 -2.0085 0.9764
-3.8254 -4.1087 -2.0075 0.9764
-3.6759 -4.2422 -2.0073 0.9764
-3.5217 -4.3702 -2.0071 0.9764
-3.3631 -4.4926 -2.0069 0.9764
-3.0334 -4.7200 -2.0064 0.9764
-2.8626 -4.8247 -2.0062 0.9765
-2.6883 -4.9232 -2.0059 0.9765
-2.1458 -5.1803 -2.0052 0.9765
-1.7703 -5.3188 -2.0046 0.9765
-1.5791 -5.3779 -2.0043 0.9765
-0.3995 -5.5859 -2.0027 0.9765
-0.1999 -5.5958 -2.0024 0.9765
0.1998 -5.5942 -2.0018 0.9765
0.3993 -5.5828 -2.0015 0.9765
0.5982 -5.5642 -2.0012 0.9765
0.9933 -5.5058 -2.0007 0.9765
1.3832 -5.4194 -2.0001 0.9765
1.7658 -5.3054 -1.9996 0.9765
1.9538 -5.2383 -1.9993 0.9765
2.1392 -5.1646 -1.9991 0.9765
2.3219 -5.0843 -1.9988 0.9765
2.5016 -4.9975 -1.9985 0.9765
2.8510 -4.8051 -1.9980 0.9765
3.0203 -4.6998 -1.9978 0.9765
3.5042 -4.3485 -1.9971 0.9766
3.6568 -4.2202 -1.9969 0.9766
3.8047 -4.0865 -1.9967 0.9766
3.9477 -3.9477 -1.9965 0.9766
4.0857 -3.8039 -1.9963 0.9766
4.3459 -3.5021 -1.9959 0.9766
4.4677 -3.3445 -1.9958 0.9766
4.5839 -3.1826 -1.9956 0.9766
4.6942 -3.0168 -1.9954 0.9766
4.7985 -2.8471 -1.9953 0.9766
4.9887 -2.4972 -1.9950 0.9766
5.1535 -2.1347 -1.9948 0.9766
5.2922 -1.7614 -1.9946 0.9766
5.4039 -1.3793 -1.9944 0.9766
5.4495 -1.1855 -1.9944 0.9766
5.4882 -0.9902 -1.9943 0.9766
-5.2440 0.0000 -2.0096 0.9778
-5.2406 -0.1872 -2.0096 0.9778
-5.2306 -0.3741 -2.0096 0.9778
-5.1904 -0.7463 -2.0095 0.9778
-5.1604 -0.9310 -2.0095 0.9778
-5.1237 -1.1146 -2.0094 0.9778
-5.0308 -1.4772 -2.0093 0.9778
-4.9746 -1.6557 -2.0092 0.9778
-4.7685 -2.1777 -2.0089 0.9778
-4.6874 -2.3464 -2.0088 0.9778
-4.6004 -2.5120 -2.0087 0.9778
-4.5075 -2.6744 -2.0085 0.9778
-4.4089 -2.8334 -2.0084 0.9778
-4.1949 -3.1402 -2.0081 0.9778
-4.0798 -3.2877 -2.0079 0.9778
-3.9595 -3.4309 -2.0077 0.9778
-3.8342 -3.5697 -2.0076 0.9778
-3.2858 -4.0775 -2.0068 0.9778
-3.1379 -4.1917 -2.0066 0.9778
-2.6709 -4.5016 -2.0059 0.9778
-2.5083 -4.5936 -2.0057 0.9778
-2.3425 -4.6796 -2.0054 0.9778
-2.1737 -4.7597 -2.0052 0.9778
-2.0022 -4.8336 -2.0050 0.9778
-1.4734 -5.0181 -2.0042 0.9778
-1.2932 -5.0668 -2.0039 0.9778
-0.9282 -5.1448 -2.0034 0.9779
-0.7439 -5.1740 -2.0032 0.9779
0.5582 -5.1925 -2.0013 0.9779
0.7431 -5.1685 -2.0010 0.9779
0.9270 -5.1380 -2.0008 0.9779
1.2908 -5.0575 -2.0003 0.9779
1.8234 -4.8887 -1.9995 0.9779
1.9965 -4.8199 -1.9993 0.9779
2.4994 -4.5772 -1.9985 0.9779
2.6608 -4.4846 -1.9983 0.9779
2.9733 -4.2824 -1.9979 0.9779
3.1239 -4.1731 -1.9977 0.9779
3.2706 -4.0585 -1.9975 0.9779
3.4130 -3.9388 -1.9973 0.9779
3.8134 -3.5504 -1.9967 0.9779
3.9373 -3.4117 -1.9965 0.9779
4.0563 -3.2687 -1.9963 0.9779
4.1700 -3.1217 -1.9962 0.9779
4.3814 -2.8158 -1.9959 0.9779
4.4788 -2.6574 -1.9957 0.9779
4.5705 -2.4957 -1.9956 0.9779
4.7364 -2.1630 -1.9954 0.9779
4.8103 -1.9925 -1.9953 0.9779
5.1755 -0.5564 -1.9948 0.9779
5.1920 -0.3713 -1.9947 0.9779
5.2019 -0.1858 -1.9947 0.9779
-1.8977 0.0000 -0.7767 0.9918
-1.9449 -0.2796 -0.8042 0.9915
-4.7559 -1.2139 -2.0089 0.9790
-4.7094 -1.3828 -2.0088 0.9790
-4.6569 -1.5500 -2.0087 0.9790
-4.3066 -2.3516 -2.0082 0.9790
-4.2197 -2.5037 -2.0081 0.9790
-4.1274 -2.6525 -2.0080 0.9790
-3.8193 -3.0778 -2.0075 0.9790
-3.7068 -3.2119 -2.0074 0.9790
-3.5895 -3.3419 -2.0072 0.9790
-3.3413 -3.5888 -2.0069 0.9790
-3.2108 -3.7054 -2.0067 0.9790
-2.9377 -3.9243 -2.0063 0.9790
-2.6497 -4.1230 -2.0059 0.9790
-2.0351 -4.4562 -2.0050 0.9790
-1.2108 -4.7440 -2.0038 0.9791
-1.0406 -4.7836 -2.0036 0.9791
-0.8691 -4.8171 -2.0033 0.9791
-0.6965 -4.8444 -2.0031 0.9791
-0.3491 -4.8806 -2.0026 0.9791
-0.1746 -4.8893 -2.0024 0.9791
0.3489 -4.8782 -2.0016 0.9791
0.5227 -4.8620 -2.0014 0.9791
0.6958 -4.8396 -2.0011 0.9791
0.8680 -4.8111 -2.0009 0.9791
1.0391 -4.7765 -2.0006 0.9791
2.1863 -4.3676 -1.9990 0.9791
2.6398 -4.1076 -1.9984 0.9791
2.9255 -3.9080 -1.9979 0.9791
3.0628 -3.8007 -1.9978 0.9791
3.1962 -3.6886 -1.9976 0.9791
3.3255 -3.5719 -1.9974 0.9791
3.4506 -3.4506 -1.9972 0.9791
3.5712 -3.3249 -1.9970 0.9791
3.6873 -3.1951 -1.9969 0.9791
3.9053 -2.9234 -1.9966 0.9791
4.0068 -2.7820 -1.9964 0.9791
4.1033 -2.6370 -1.9963 0.9791
4.1945 -2.4887 -1.9961 0.9791
4.8718 -0.1740 -1.9952 0.9792
-1.5222 0.0000 -0.6634 0.9934
-1.5284 -0.0546 -0.6665 0.9933
-1.5293 -0.1094 -0.6682 0.9933
-1.5001 -0.2707 -0.6643 0.9934
-1.5214 -0.3310 -0.6786 0.9932
-1.5707 -0.4612 -0.7134 0.9929
-1.5875 -0.5284 -0.7292 0.9927
-4.1913 -1.9141 -2.0081 0.9801
-4.0436 -2.2080 -2.0079 0.9801
-3.9620 -2.3508 -2.0078 0.9801
-3.5862 -2.8899 -2.0072 0.9801
-3.4805 -3.0158 -2.0071 0.9801
-2.4881 -3.8715 -2.0056 0.9801
-2.3481 -3.9574 -2.0054 0.9801
-2.2051 -4.0383 -2.0052 0.9801
-2.0593 -4.1140 -2.0050 0.9801
-1.9110 -4.1844 -2.0048 0.9801
-1.7602 -4.2495 -2.0046 0.9801
-1.6072 -4.3092 -2.0044 0.9801
-1.4523 -4.3633 -2.0042 0.9801
-1.1370 -4.4548 -2.0037 0.9801
-0.9772 -4.4921 -2.0035 0.9801
-0.8161 -4.5235 -2.0033 0.9801
-0.3278 -4.5833 -2.0026 0.9802
-0.1640 -4.5915 -2.0023 0.9802
0.1639 -4.5905 -2.0019 0.9802
0.3276 -4.5811 -2.0016 0.9802
0.6535 -4.5450 -2.0012 0.9802
0.8152 -4.5183 -2.0009 0.9802
1.1352 -4.4476 -2.0005 0.9802
1.2931 -4.4038 -2.0003 0.9802
1.4493 -4.3543 -2.0000 0.9802
1.6036 -4.2994 -1.9998 0.9802
1.7558 -4.2390 -1.9996 0.9802
2.0533 -4.1020 -1.9992 0.9802
2.1982 -4.0257 -1.9990 0.9802
2.3402 -3.9443 -1.9988 0.9802
2.6151 -3.7665 -1.9984 0.9802
2.7476 -3.6704 -1.9982 0.9802
3.1234 -3.3548 -1.9977 0.9802
3.3543 -3.1229 -1.9973 0.9802
3.4633 -3.0010 -1.9972 0.9802
3.7635 -2.6130 -1.9968 0.9802
4.0205 -2.1954 -1.9964 0.9802
4.0961 -2.0503 -1.9963 0.9802
4.1664 -1.9027 -1.9962 0.9802
4.2912 -1.6005 -1.9960 0.9802
4.3941 -1.2902 -1.9959 0.9802
4.4372 -1.1325 -1.9958 0.9802
4.5065 -0.8131 -1.9957 0.9802
4.5529 -0.4895 -1.9956 0.9802
-1.3333 0.0000 -0.6172 0.9941
-1.3351 -0.1435 -0.6215 0.9941
-1.3160 -0.2374 -0.6190 0.9941
-1.3324 -0.4969 -0.6582 0.9938
-1.3150 -0.6006 -0.6692 0.9936
-3.8785 -1.9414 -2.0076 0.9811
-3.8065 -2.0785 -2.0075 0.9811
-3.7297 -2.2129 -2.0074 0.9811
-3.5619 -2.4731 -2.0072 0.9811
-3.2765 -2.8391 -2.0068 0.9811
-2.9535 -3.1723 -2.0063 0.9811
-2.7192 -3.3744 -2.0060 0.9811
-2.5968 -3.4690 -2.0058 0.9811
-2.0759 -3.8018 -2.0051 0.9811
-1.9387 -3.8731 -2.0049 0.9811
-1.7991 -3.9394 -2.0047 0.9811
-1.5132 -4.0569 -2.0043 0.9811
-1.3673 -4.1079 -2.0041 0.9811
-1.2196 -4.1537 -2.0038 0.9811
-1.0705 -4.1941 -2.0036 0.9811
-0.7684 -4.2589 -2.0032 0.9811
-0.0000 -4.3253 -2.0021 0.9811
0.6153 -4.2794 -2.0012 0.9811
0.9188 -4.2237 -2.0008 0.9811
1.2175 -4.1465 -2.0004 0.9811
1.7945 -3.9294 -1.9996 0.9811
2.3346 -3.6326 -1.9988 0.9811
2.4625 -3.5467 -1.9986 0.9811
2.7088 -3.3614 -1.9983 0.9812
2.9412 -3.1591 -1.9979 0.9812
3.4541 -2.5857 -1.9972 0.9812
3.5439 -2.4606 -1.9971 0.9812
3.8572 -1.9308 -1.9966 0.9812
3.9235 -1.7918 -1.9965 0.9812
4.0410 -1.5072 -1.9964 0.9812
4.0920 -1.3620 -1.9963 0.9812
4.2683 -0.6137 -1.9961 0.9812
4.2874 -0.4610 -1.9960 0.9812
-1.1954 0.0000 -0.5864 0.9947
-1.1954 -0.0855 -0.5878 0.9947
-1.1921 -0.1282 -0.5881 0.9947
-1.1867 -0.1706 -0.5881 0.9947
-1.1791 -0.2127 -0.5877 0.9947
-1.1695 -0.2544 -0.5871 0.9947
-1.1579 -0.3854 -0.5986 0.9946
-1.1543 -0.4305 -0.6043 0.9945
-1.1400 -0.5206 -0.6148 0.9944
-1.1292 -0.5652 -0.6194 0.9944
-1.1113 -0.6068 -0.6211 0.9944
-3.4421 -2.2121 -2.0070 0.9819
-3.3607 -2.3334 -2.0069 0.9819
-3.2751 -2.4517 -2.0068 0.9819
-2.8921 -2.8921 -2.0062 0.9819
-2.6780 -3.0905 -2.0059 0.9819
-2.5657 -3.1839 -2.0058 0.9819
-2.4503 -3.2732 -2.0056 0.9819
-2.2101 -3.4390 -2.0053 0.9820
-2.0858 -3.5154 -2.0051 0.9820
-1.9588 -3.5873 -2.0049 0.9820
-1.5637 -3.7751 -2.0043 0.9820
-1.4278 -3.8281 -2.0041 0.9820
-1.2901 -3.8763 -2.0039 0.9820
-1.0101 -3.9576 -2.0035 0.9820
-0.5811 -4.0417 -2.0029 0.9820
-0.4364 -4.0594 -2.0027 0.9820
-0.1457 -4.0794 -2.0023 0.9820
0.0000 -4.0816 -2.0021 0.9820
0.4362 -4.0569 -2.0015 0.9820
0.5806 -4.0384 -2.0013 0.9820
0.7243 -4.0147 -2.0011 0.9820
0.8671 -3.9858 -2.0009 0.9820
1.0087 -3.9520 -2.0007 0.9820
1.5602 -3.7667 -1.9999 0.9820
2.4417 -3.2618 -1.9986 0.9820
2.5564 -3.1723 -1.9985 0.9820
2.6678 -3.0788 -1.9983 0.9820
2.9810 -2.7754 -1.9979 0.9820
3.1709 -2.5553 -1.9976 0.9820
3.5015 -2.0775 -1.9971 0.9820
3.7608 -1.5578 -1.9968 0.9820
3.8621 -1.2854 -1.9966 0.9820
3.9054 -1.1467 -1.9966 0.9820
3.9437 -1.0066 -1.9965 0.9820
4.0053 -0.7226 -1.9964 0.9820
-1.1058 0.0000 -0.5737 0.9950
-1.1066 -0.0395 -0.5744 0.9950
-1.1055 -0.0791 -0.5750 0.9950
-1.0974 -0.1578 -0.5752 0.9950
-1.0704 -0.2732 -0.5731 0.9950
-1.0617 -0.3534 -0.5805 0.9950
-1.0514 -0.4355 -0.5904 0.9949
-1.0430 -0.4763 -0.5948 0.9948
-1.0118 -0.5525 -0.5981 0.9948
-0.9917 -0.5884 -0.5982 0.9948
-3.2542 -2.0913 -2.0067 0.9827
-3.0963 -2.3179 -2.0065 0.9827
-2.9227 -2.5325 -2.0063 0.9827
-2.7342 -2.7342 -2.0060 0.9827
-2.5318 -2.9219 -2.0057 0.9827
-1.9720 -3.3237 -2.0049 0.9827
-1.8520 -3.3917 -2.0047 0.9827
-1.7296 -3.4553 -2.0046 0.9827
-1.4784 -3.5693 -2.0042 0.9827
-1.3500 -3.6194 -2.0040 0.9827
-1.2198 -3.6650 -2.0038 0.9827
-1.0881 -3.7058 -2.0037 0.9827
-0.9551 -3.7419 -2.0035 0.9827
-0.6856 -3.7998 -2.0031 0.9828
-0.5494 -3.8215 -2.0029 0.9828
-0.2754 -3.8502 -2.0025 0.9828
-0.1378 -3.8572 -2.0023 0.9828
0.0000 -3.8593 -2.0021 0.9828
0.4124 -3.8360 -2.0015 0.9828
0.5490 -3.8185 -2.0013 0.9828
0.6849 -3.7961 -2.0011 0.9828
1.4753 -3.5618 -2.0000 0.9828
1.7254 -3.4468 -1.9997 0.9828
1.9665 -3.3144 -1.9993 0.9828
2.1976 -3.1651 -1.9990 0.9828
2.4174 -2.9998 -1.9987 0.9828
2.5228 -2.9114 -1.9985 0.9828
2.7236 -2.7237 -1.9982 0.9828
2.8189 -2.6245 -1.9981 0.9828
2.9106 -2.5221 -1.9980 0.9828
2.9986 -2.4164 -1.9979 0.9828
3.0828 -2.3077 -1.9977 0.9828
3.1630 -2.1961 -1.9976 0.9828
3.3112 -1.9646 -1.9974 0.9828
3.5018 -1.5992 -1.9971 0.9828
3.6067 -1.3452 -1.9970 0.9828
3.6523 -1.2156 -1.9969 0.9828
3.6933 -1.0844 -1.9969 0.9828
3.7610 -0.8182 -1.9968 0.9828
3.7878 -0.6834 -1.9967 0.9828
3.8390 -0.2746 -1.9967 0.9828
3.8463 -0.1374 -1.9967 0.9828
-1.0276 -0.0367 -0.5632 0.9953
-1.0265 -0.0734 -0.5637 0.9953
-1.0190 -0.1465 -0.5638 0.9953
-0.9938 -0.2537 -0.5618 0.9953
-0.9820 -0.2883 -0.5606 0.9953
-0.9677 -0.4008 -0.5737 0.9952
-0.9580 -0.4375 -0.5768 0.9952
-2.8521 -2.2983 -2.0062 0.9834
-2.5896 -2.5896 -2.0058 0.9834
-2.4953 -2.6802 -2.0057 0.9834
-2.2974 -2.8510 -2.0054 0.9834
-2.1941 -2.9309 -2.0052 0.9834
-2.0879 -3.0071 -2.0051 0.9834
-1.7541 -3.2123 -2.0046 0.9834
-1.2786 -3.4281 -2.0039 0.9835
-1.1553 -3.4712 -2.0038 0.9835
-0.9046 -3.5442 -2.0034 0.9835
-0.7775 -3.5739 -2.0032 0.9835
-0.6493 -3.5990 -2.0030 0.9835
-0.5204 -3.6196 -2.0029 0.9835
-0.3909 -3.6355 -2.0027 0.9835
0.0000 -3.6555 -2.0021 0.9835
0.2607 -3.6455 -2.0017 0.9835
0.5200 -3.6169 -2.0014 0.9835
0.7766 -3.5700 -2.0010 0.9835
0.9034 -3.5396 -2.0008 0.9835
1.1534 -3.4656 -2.0005 0.9835
1.3975 -3.3739 -2.0001 0.9835
1.5169 -3.3215 -2.0000 0.9835
1.8628 -3.1396 -1.9995 0.9835
2.2900 -2.8417 -1.9989 0.9835
2.3898 -2.7579 -1.9987 0.9835
2.4865 -2.6707 -1.9986 0.9835
2.8406 -2.2891 -1.9981 0.9835
3.1368 -1.8611 -1.9977 0.9835
3.2010 -1.7479 -1.9976 0.9835
3.2613 -1.6325 -1.9975 0.9835
3.3173 -1.5150 -1.9974 0.9835
3.3691 -1.3955 -1.9973 0.9835
3.4167 -1.2744 -1.9973 0.9835
3.4599 -1.1516 -1.9972 0.9835
3.4987 -1.0273 -1.9971 0.9835
3.5629 -0.7751 -1.9971 0.9835
3.6090 -0.5189 -1.9970 0.9835
3.6252 -0.3897 -1.9970 0.9835
3.6367 -0.2601 -1.9970 0.9835
3.6437 -0.1301 -1.9969 0.9835
-0.9570 0.0000 -0.5525 0.9956
-0.9575 -0.0342 -0.5532 0.9956
-0.9565 -0.0684 -0.5536 0.9956
-0.9538 -0.1025 -0.5538 0.9956
-0.9492 -0.1365 -0.5536 0.9956
-0.9259 -0.2363 -0.5517 0.9956
-0.9058 -0.3014 -0.5511 0.9956
-0.8941 -0.3703 -0.5587 0.9955
-0.8823 -0.4029 -0.5600 0.9955
-0.8534 -0.4660 -0.5614 0.9955
-0.8364 -0.4963 -0.5615 0.9955
-0.8178 -0.5256 -0.5613 0.9955
-0.7846 -0.5873 -0.5658 0.9955
-2.5426 -2.3673 -2.0057 0.9841
-2.3670 -2.5423 -2.0055 0.9841
-2.1793 -2.7043 -2.0052 0.9841
-1.9805 -2.8525 -2.0049 0.9841
-1.5539 -3.1044 -2.0043 0.9841
-1.0960 -3.2929 -2.0037 0.9841
-0.9777 -3.3296 -2.0035 0.9841
-0.6160 -3.4142 -2.0030 0.9841
-0.3708 -3.4488 -2.0026 0.9841
0.0000 -3.4678 -2.0021 0.9841
0.4933 -3.4313 -2.0014 0.9841
0.6154 -3.4112 -2.0012 0.9841
0.7367 -3.3867 -2.0011 0.9841
0.8571 -3.3580 -2.0009 0.9841
0.9763 -3.3250 -2.0007 0.9841
1.5505 -3.0975 -1.9999 0.9841
1.6600 -3.0400 -1.9998 0.9841
1.8723 -2.9134 -1.9995 0.9841
1.9750 -2.8445 -1.9993 0.9841
2.0751 -2.7720 -1.9992 0.9841
2.5335 -2.3587 -1.9985 0.9841
2.9112 -1.8709 -1.9980 0.9841
3.0942 -1.5488 -1.9977 0.9841
1.9616 -0.5007 -1.1688 0.9907
1.9883 -0.4325 -1.1748 0.9906
2.0300 -0.2919 -1.1841 0.9906
2.0366 -0.2190 -1.1826 0.9906
