ply
format ascii 1.0
element vertex 833
property float32 x
property float32 y
property float32 z
property float32 I
end_header
6.7988 4.3693 1.4250 0.9677
6.3823 4.4313 1.3700 0.9689
7.0951 5.7176 1.6067 0.9637
5.8924 5.1058 1.3748 0.9688
4.7209 5.8583 1.3266 0.9699
4.4337 5.9228 1.3046 0.9704
4.2253 6.0856 1.3063 0.9704
4.0661 6.3270 1.3261 0.9699
4.0031 6.7469 1.3833 0.9686
-0.0000 6.4550 1.1382 0.9741
7.8694 5.4638 1.4676 0.9620
7.0838 5.7085 1.3937 0.9639
5.7149 7.6342 1.4609 0.9621
4.2253 6.0856 1.1350 0.9705
4.0661 6.3270 1.1522 0.9700
0.4551 6.3637 0.9774 0.9745
0.2255 6.3126 0.9677 0.9748
7.3347 5.4907 1.1931 0.9637
7.0838 5.7085 1.1847 0.9640
4.2253 6.0856 0.9648 0.9706
4.0661 6.3270 0.9794 0.9701
4.5762 7.7127 1.1678 0.9645
0.0000 6.4377 0.8383 0.9744
6.6522 5.3607 0.9174 0.9662
6.4196 5.5626 0.9121 0.9664
6.1894 5.7625 0.9081 0.9666
5.9609 5.9609 0.9052 0.9667
5.7335 6.1583 0.9035 0.9667
5.5068 6.3551 0.9030 0.9667
4.0661 6.3270 0.8076 0.9702
4.5682 7.6993 0.9613 0.9646
0.0000 6.4291 0.6904 0.9745
6.9564 5.6058 0.7563 0.9648
7.2314 6.2661 0.8100 0.9623
6.9721 6.4912 0.8064 0.9625
6.7147 6.7147 0.8039 0.9626
6.4586 6.9370 0.8024 0.9627
6.2031 7.1588 0.8019 0.9627
5.9477 7.3806 0.8024 0.9627
5.0611 6.7609 0.7149 0.9667
4.2253 6.0856 0.6272 0.9707
0.4529 6.3319 0.5374 0.9748
0.2246 6.2880 0.5326 0.9751
6.1853 5.7587 0.5241 0.9667
5.9569 5.9569 0.5224 0.9668
5.7297 6.1542 0.5214 0.9669
5.2765 6.5477 0.5215 0.9669
0.4521 6.3214 0.3930 0.9749
0.2243 6.2799 0.3897 0.9751
0.0000 6.4122 0.3976 0.9746
6.6344 5.3463 0.3360 0.9665
6.4490 6.9268 0.3732 0.9628
5.9389 7.3697 0.3732 0.9628
5.2111 6.9612 0.3429 0.9658
5.4004 7.7781 0.3734 0.9628
4.8711 7.5795 0.3553 0.9646
0.4514 6.3110 0.2495 0.9750
-0.0000 6.4039 0.2525 0.9747
0.4506 6.3007 0.1067 0.9750
-0.0000 6.3955 0.1080 0.9747
6.6344 5.3463 -0.0480 0.9665
7.2589 6.2899 -0.0541 0.9623
0.4499 6.2904 -0.0355 0.9751
6.6342 6.1766 -0.2552 0.9644
6.4069 6.4070 -0.2551 0.9644
-0.0000 6.3789 -0.1796 0.9748
6.6280 5.3412 -0.4317 0.9665
6.6032 5.7217 -0.4431 0.9656
6.6342 6.1766 -0.4597 0.9643
6.4069 6.4070 -0.4595 0.9644
0.6887 6.4056 -0.3267 0.9745
0.0000 6.3706 -0.3231 0.9748
6.6536 5.3618 -0.6265 0.9663
6.6032 5.7217 -0.6406 0.9656
6.4069 6.4070 -0.6644 0.9643
0.0000 6.3624 -0.4665 0.9748
6.6329 5.3451 -0.8178 0.9663
6.4009 5.5465 -0.8131 0.9665
6.1714 5.7458 -0.8095 0.9667
5.7216 6.1454 -0.8061 0.9668
5.4908 6.3367 -0.8050 0.9669
5.2646 6.5330 -0.8055 0.9668
4.8100 6.9277 -0.8097 0.9667
0.6864 6.3842 -0.6164 0.9745
0.0000 6.3541 -0.6100 0.9748
6.6329 5.3451 -1.0119 0.9663
5.4908 6.3367 -0.9960 0.9668
5.2646 6.5330 -0.9966 0.9668
4.8100 6.9277 -1.0018 0.9666
4.5803 7.1271 -1.0064 0.9664
0.0000 6.3458 -0.7538 0.9748
8.5604 4.6743 -1.3820 0.9614
6.1714 5.7458 -1.1947 0.9665
5.9436 5.9436 -1.1910 0.9666
5.4908 6.3367 -1.1880 0.9667
5.2646 6.5330 -1.1888 0.9667
0.6841 6.3627 -0.9067 0.9745
0.4455 6.2289 -0.8848 0.9751
0.2217 6.2082 -0.8802 0.9752
5.9485 5.9485 -1.3859 0.9665
5.7216 6.1454 -1.3833 0.9665
5.2646 6.5330 -1.3822 0.9666
4.9689 7.1566 -1.4353 0.9653
0.6829 6.3519 -1.0524 0.9744
0.0000 6.3291 -1.0426 0.9747
6.6384 5.3495 -1.6025 0.9659
6.0272 6.0272 -1.6021 0.9659
5.7216 6.1454 -1.5782 0.9664
5.4953 6.3419 -1.5773 0.9664
5.0421 6.7354 -1.5814 0.9663
0.6817 6.3411 -1.1987 0.9744
0.4440 6.2083 -1.1699 0.9750
0.2212 6.1921 -1.1646 0.9751
-0.0000 6.3207 -1.1880 0.9746
-0.2735 7.6571 -1.4401 0.9693
-0.5478 7.6592 -1.4433 0.9692
9.4695 -0.0000 -2.0017 0.9620
9.4635 0.3380 -2.0017 0.9620
9.4153 1.0122 -2.0017 0.9620
9.3191 1.6813 -2.0017 0.9620
9.1754 2.3419 -2.0017 0.9620
8.5996 3.9273 -1.9984 0.9621
8.3640 4.1867 -1.9771 0.9625
7.7145 4.2124 -1.8580 0.9647
7.5247 4.4646 -1.8495 0.9649
6.6125 5.7297 -1.8495 0.9649
6.1101 5.6887 -1.7647 0.9664
5.4901 6.8128 -1.8495 0.9649
4.9901 7.1871 -1.8495 0.9649
4.4646 7.5248 -1.8495 0.9649
4.1932 7.6793 -1.8495 0.9649
3.9165 7.8241 -1.8495 0.9649
3.6347 7.9589 -1.8495 0.9649
3.3483 8.0836 -1.8495 0.9649
2.4650 8.3952 -1.8495 0.9649
2.1638 8.4778 -1.8495 0.9649
1.4433 6.6346 -1.4352 0.9726
0.6806 6.3302 -1.3458 0.9743
0.0000 6.3123 -1.3343 0.9745
-0.9353 8.6995 -1.8495 0.9649
-1.5535 8.6106 -1.8495 0.9649
-2.4651 8.3952 -1.8495 0.9649
-2.7631 8.3019 -1.8495 0.9649
-3.3483 8.0836 -1.8495 0.9649
-3.9165 7.8241 -1.8495 0.9649
-4.1932 7.6793 -1.8495 0.9649
-4.4647 7.5248 -1.8495 0.9649
-4.7304 7.3606 -1.8495 0.9649
-5.2434 7.0044 -1.8495 0.9649
-5.4901 6.8128 -1.8495 0.9649
-6.1869 6.1869 -1.8495 0.9649
-6.4038 5.9621 -1.8495 0.9649
-6.8128 5.4901 -1.8495 0.9649
-8.6065 3.9305 -2.0000 0.9621
-8.9850 2.9905 -2.0017 0.9620
-9.0860 2.6679 -2.0017 0.9620
-9.4154 1.0123 -2.0017 0.9620
-9.4455 0.6756 -2.0017 0.9620
8.5169 0.0000 -2.0017 0.9656
8.5115 0.3040 -2.0017 0.9656
8.4952 0.6076 -2.0017 0.9656
8.4302 1.2121 -2.0017 0.9656
8.3223 1.8104 -2.0017 0.9656
8.1719 2.3995 -2.0017 0.9656
8.0811 2.6897 -2.0017 0.9656
7.9799 2.9764 -2.0017 0.9656
7.4542 4.0703 -1.9961 0.9657
7.0815 4.2017 -1.9352 0.9667
6.6201 4.2545 -1.8495 0.9682
6.4640 4.4881 -1.8495 0.9682
6.2998 4.7159 -1.8495 0.9682
6.1274 4.9378 -1.8495 0.9682
5.9473 5.1533 -1.8495 0.9682
5.7595 5.3623 -1.8495 0.9682
5.3623 5.7595 -1.8495 0.9682
5.1533 5.9473 -1.8495 0.9682
4.9378 6.1274 -1.8495 0.9682
4.7159 6.2998 -1.8495 0.9682
2.7501 7.3732 -1.8495 0.9682
1.1791 5.4205 -1.3037 0.9775
0.6794 6.3193 -1.4937 0.9742
0.0000 6.3038 -1.4815 0.9744
-0.7810 5.4321 -1.2898 0.9777
-1.3972 7.7444 -1.8495 0.9682
-2.2171 7.5506 -1.8495 0.9682
-2.4852 7.4667 -1.8495 0.9682
-2.7501 7.3733 -1.8495 0.9682
-3.0115 7.2704 -1.8495 0.9682
-3.5225 7.0370 -1.8495 0.9682
-3.7714 6.9068 -1.8495 0.9682
-4.2545 6.6202 -1.8495 0.9682
-4.9378 6.1275 -1.8495 0.9682
-5.7596 5.3624 -1.8495 0.9682
-5.9473 5.1534 -1.8495 0.9682
-6.4641 4.4881 -1.8495 0.9682
-6.6781 4.2918 -1.8657 0.9679
-7.4593 4.0731 -1.9974 0.9657
-7.8687 3.2593 -2.0017 0.9656
-7.9800 2.9764 -2.0017 0.9656
-8.0811 2.6897 -2.0017 0.9656
-8.1720 2.3995 -2.0017 0.9656
-8.2524 2.1063 -2.0017 0.9656
-8.4953 0.6076 -2.0017 0.9656
7.7309 0.0000 -2.0017 0.9686
7.7260 0.2759 -2.0017 0.9686
7.6522 1.1002 -2.0017 0.9686
7.6081 1.3727 -2.0017 0.9686
7.2435 2.7017 -2.0017 0.9686
6.9132 3.4605 -2.0017 0.9686
6.0659 4.2117 -1.9120 0.9699
4.8675 5.2280 -1.8495 0.9709
4.6778 5.3984 -1.8495 0.9709
4.2807 5.7184 -1.8495 0.9709
3.6449 6.1432 -1.8495 0.9709
2.0125 6.8538 -1.8495 0.9709
0.7831 5.4466 -1.4247 0.9775
0.5857 5.4482 -1.4188 0.9776
-0.0000 5.4527 -1.4118 0.9777
-0.1948 5.4542 -1.4131 0.9777
-0.7810 5.4321 -1.4209 0.9776
-2.0125 6.8538 -1.8495 0.9709
-2.2558 6.7776 -1.8495 0.9709
-2.7336 6.5994 -1.8495 0.9709
-2.9674 6.4976 -1.8495 0.9709
-4.0739 5.8675 -1.8495 0.9709
-4.2807 5.7184 -1.8495 0.9709
-4.6778 5.3984 -1.8495 0.9709
-4.8675 5.2280 -1.8495 0.9709
-5.0510 5.0510 -1.8495 0.9709
-5.7323 4.2912 -1.8540 0.9708
-6.4844 4.1673 -1.9958 0.9687
-6.7853 3.7051 -2.0017 0.9686
-6.9132 3.4605 -2.0017 0.9686
-7.1425 2.9585 -2.0017 0.9686
-7.2435 2.7017 -2.0017 0.9686
-7.3353 2.4414 -2.0017 0.9686
-7.4178 2.1781 -2.0017 0.9686
-7.4908 1.9119 -2.0017 0.9686
-7.6523 1.1003 -2.0017 0.9686
-7.7260 0.2759 -2.0017 0.9686
7.0707 0.0000 -2.0017 0.9710
7.0662 0.2524 -2.0017 0.9710
7.0302 0.7558 -2.0017 0.9710
6.9988 1.0063 -2.0017 0.9710
6.8511 1.7486 -2.0017 0.9710
6.7843 1.9921 -2.0017 0.9710
6.4318 2.9373 -2.0017 0.9710
6.0809 3.6080 -2.0017 0.9710
5.9446 3.8204 -2.0004 0.9711
5.7945 4.0232 -1.9970 0.9711
5.6116 4.2008 -1.9844 0.9713
4.7816 4.4518 -1.8495 0.9732
4.4518 4.7816 -1.8495 0.9732
3.9152 5.2300 -1.8495 0.9732
3.1310 5.7340 -1.8495 0.9732
2.9243 5.8421 -1.8495 0.9732
2.7140 5.9427 -1.8495 0.9732
2.5001 6.0358 -1.8495 0.9732
2.2831 6.1212 -1.8495 0.9732
2.0632 6.1988 -1.8495 0.9732
1.8406 6.2685 -1.8495 0.9732
0.9824 5.4451 -1.5664 0.9773
0.7831 5.4466 -1.5578 0.9774
0.5857 5.4482 -1.5512 0.9775
0.1947 5.4512 -1.5442 0.9776
-0.0000 5.4527 -1.5436 0.9776
-0.1948 5.4542 -1.5450 0.9776
-1.1600 6.4293 -1.8495 0.9732
-1.3887 6.3838 -1.8495 0.9732
-1.8406 6.2685 -1.8495 0.9732
-2.0632 6.1988 -1.8495 0.9732
-2.2831 6.1212 -1.8495 0.9732
-2.7140 5.9428 -1.8495 0.9732
-2.9243 5.8421 -1.8495 0.9732
-3.1310 5.7340 -1.8495 0.9732
-3.7260 5.3665 -1.8495 0.9732
-3.9152 5.2301 -1.8495 0.9732
-4.0993 5.0870 -1.8495 0.9732
-4.2783 4.9374 -1.8495 0.9732
-5.3019 4.2726 -1.9276 0.9721
-5.6408 4.2226 -1.9947 0.9711
-5.9479 3.8225 -2.0015 0.9710
-6.3229 3.1650 -2.0017 0.9710
-6.4318 2.9373 -2.0017 0.9710
-6.5325 2.7059 -2.0017 0.9710
-6.6250 2.4710 -2.0017 0.9710
-6.7089 2.2329 -2.0017 0.9710
-6.8511 1.7487 -2.0017 0.9710
-6.9092 1.5030 -2.0017 0.9710
-6.9988 1.0063 -2.0017 0.9710
-7.0303 0.7558 -2.0017 0.9710
-7.0528 0.5044 -2.0017 0.9710
-7.0663 0.2524 -2.0017 0.9710
6.5037 0.2323 -2.0017 0.9731
6.4913 0.4643 -2.0017 0.9731
6.4706 0.6957 -2.0017 0.9731
6.3591 1.3834 -2.0017 0.9731
6.3057 1.6095 -2.0017 0.9731
6.1748 2.0552 -2.0017 0.9731
6.0975 2.2743 -2.0017 0.9731
6.0125 2.4904 -2.0017 0.9731
5.3457 3.7116 -2.0017 0.9731
5.0536 4.0724 -1.9963 0.9732
4.8547 4.2067 -1.9758 0.9735
4.5342 4.2215 -1.9055 0.9744
4.2519 4.2519 -1.8495 0.9751
4.0974 4.4009 -1.8495 0.9751
3.9377 4.5444 -1.8495 0.9751
3.7730 4.6820 -1.8495 0.9751
3.6035 4.8137 -1.8495 0.9751
3.2509 5.0585 -1.8495 0.9751
2.8817 5.2775 -1.8495 0.9751
2.4979 5.4697 -1.8495 0.9751
1.8989 5.7054 -1.8495 0.9751
1.3701 5.3681 -1.7040 0.9771
1.1759 5.4057 -1.7016 0.9771
0.9823 5.4443 -1.7016 0.9771
0.7831 5.4466 -1.6925 0.9772
0.3898 5.4497 -1.6805 0.9774
-0.1948 5.4542 -1.6787 0.9774
-0.3902 5.4558 -1.6824 0.9774
-0.7810 5.4321 -1.6880 0.9773
-1.0676 5.9175 -1.8495 0.9751
-1.4871 5.8263 -1.8495 0.9751
-1.6941 5.7695 -1.8495 0.9751
-1.8989 5.7053 -1.8495 0.9751
-2.1014 5.6339 -1.8495 0.9751
-2.3011 5.5554 -1.8495 0.9751
-3.4294 4.9393 -1.8495 0.9751
-3.6035 4.8137 -1.8495 0.9751
-3.7730 4.6820 -1.8495 0.9751
-3.9377 4.5444 -1.8495 0.9751
-4.5849 4.2687 -1.9268 0.9741
-5.3457 3.7116 -2.0017 0.9731
-5.7118 3.1189 -2.0017 0.9731
-5.8195 2.9131 -2.0017 0.9731
-5.9198 2.7035 -2.0017 0.9731
-6.0976 2.2743 -2.0017 0.9731
-6.1748 2.0552 -2.0017 0.9731
-6.2443 1.8335 -2.0017 0.9731
-6.3057 1.6094 -2.0017 0.9731
-6.3592 1.3834 -2.0017 0.9731
-6.4045 1.1555 -2.0017 0.9731
-6.4913 0.4643 -2.0017 0.9731
-6.5037 0.2323 -2.0017 0.9731
6.0218 0.0000 -2.0017 0.9749
6.0179 0.2149 -2.0017 0.9749
6.0064 0.4296 -2.0017 0.9749
5.9605 0.8570 -2.0017 0.9749
5.8842 1.2800 -2.0017 0.9749
5.8347 1.4892 -2.0017 0.9749
5.7136 1.9017 -2.0017 0.9749
5.6421 2.1044 -2.0017 0.9749
5.0658 3.2556 -2.0017 0.9749
4.9464 3.4344 -2.0017 0.9749
4.5439 3.9374 -1.9986 0.9750
3.9314 4.2226 -1.9178 0.9760
3.3343 4.4542 -1.8495 0.9768
3.0081 4.6807 -1.8495 0.9768
2.6665 4.8833 -1.8495 0.9768
2.3113 5.0612 -1.8495 0.9768
2.1292 5.1404 -1.8495 0.9768
1.1649 5.3549 -1.8216 0.9772
0.7704 5.3579 -1.7993 0.9774
0.3834 5.3609 -1.7866 0.9776
0.1915 5.3624 -1.7836 0.9776
-0.1916 5.3654 -1.7846 0.9776
-1.3760 5.3911 -1.8495 0.9768
-1.5675 5.3386 -1.8495 0.9768
-1.7571 5.2792 -1.8495 0.9768
-2.1292 5.1404 -1.8495 0.9768
-2.3113 5.0611 -1.8495 0.9768
-2.4905 4.9754 -1.8495 0.9768
-2.6665 4.8833 -1.8495 0.9768
-2.8391 4.7851 -1.8495 0.9768
-3.0081 4.6807 -1.8495 0.9768
-3.1732 4.5704 -1.8495 0.9768
-3.3343 4.4542 -1.8495 0.9768
-3.4912 4.3323 -1.8495 0.9768
-3.7022 4.2726 -1.8792 0.9765
-3.9694 4.2635 -1.9363 0.9757
-4.5459 3.9390 -1.9994 0.9750
-4.6888 3.7785 -2.0017 0.9749
-4.9465 3.4344 -2.0017 0.9749
-5.1788 3.0728 -2.0017 0.9749
-5.2852 2.8859 -2.0017 0.9749
-5.4776 2.5016 -2.0017 0.9749
-5.7137 1.9017 -2.0017 0.9749
-5.7779 1.6966 -2.0017 0.9749
-5.8348 1.4892 -2.0017 0.9749
-5.9605 0.8570 -2.0017 0.9749
-6.0065 0.4296 -2.0017 0.9749
-6.0180 0.2149 -2.0017 0.9749
5.5832 0.3993 -2.0017 0.9765
5.5404 0.7966 -2.0017 0.9765
5.5085 0.9939 -2.0017 0.9765
5.4695 1.1898 -2.0017 0.9765
5.2445 1.9561 -2.0017 0.9765
5.0916 2.3253 -2.0017 0.9765
4.9127 2.6826 -2.0017 0.9765
4.8139 2.8562 -2.0017 0.9765
4.4810 3.3544 -2.0017 0.9765
4.2302 3.6655 -2.0017 0.9765
4.0948 3.8124 -2.0008 0.9765
3.9515 3.9515 -1.9984 0.9765
3.6483 4.2104 -1.9923 0.9766
3.4020 4.2216 -1.9389 0.9772
2.7961 4.3508 -1.8495 0.9783
2.4786 4.5392 -1.8495 0.9783
2.3150 4.6248 -1.8495 0.9783
1.8074 4.8458 -1.8495 0.9783
1.0994 5.0536 -1.8495 0.9783
0.3690 5.1587 -1.8495 0.9783
0.1846 5.1685 -1.8495 0.9783
-0.1846 5.1686 -1.8495 0.9783
-0.3690 5.1586 -1.8495 0.9783
-0.5528 5.1422 -1.8495 0.9783
-0.9183 5.0897 -1.8495 0.9783
-1.4571 4.9623 -1.8495 0.9783
-1.9792 4.7782 -1.8495 0.9783
-2.1485 4.7045 -1.8495 0.9783
-2.6390 4.4479 -1.8495 0.9783
-2.7961 4.3508 -1.8495 0.9783
-2.9661 4.2720 -1.8598 0.9781
-3.1926 4.2649 -1.9052 0.9776
-3.6527 4.2154 -1.9947 0.9766
-3.8050 4.0869 -1.9969 0.9766
-4.0964 3.8139 -2.0015 0.9765
-4.5979 3.1923 -2.0017 0.9765
-4.8139 2.8562 -2.0017 0.9765
-4.9128 2.6826 -2.0017 0.9765
-5.3110 1.7677 -2.0017 0.9765
-5.3707 1.5770 -2.0017 0.9765
-5.4236 1.3843 -2.0017 0.9765
-5.5405 0.7966 -2.0017 0.9765
-5.5832 0.3993 -2.0017 0.9765
-5.5939 0.1998 -2.0017 0.9765
5.2233 0.0000 -2.0017 0.9779
5.2100 0.3726 -2.0017 0.9779
5.1702 0.7434 -2.0017 0.9779
5.1403 0.9274 -2.0017 0.9779
5.1040 1.1103 -2.0017 0.9779
5.0611 1.2918 -2.0017 0.9779
5.0117 1.4716 -2.0017 0.9779
4.8940 1.8254 -2.0017 0.9779
4.8257 1.9989 -2.0017 0.9779
4.7513 2.1699 -2.0017 0.9779
4.6708 2.3381 -2.0017 0.9779
4.5844 2.5033 -2.0017 0.9779
4.3942 2.8240 -2.0017 0.9779
4.2906 2.9790 -2.0017 0.9779
4.0671 3.2775 -2.0017 0.9779
3.9475 3.4206 -2.0017 0.9779
3.6934 3.6935 -2.0017 0.9779
3.5575 3.8210 -2.0007 0.9779
2.7171 4.2279 -1.9259 0.9787
2.0096 4.4003 -1.8538 0.9795
1.8469 4.4588 -1.8495 0.9795
1.5241 4.5792 -1.8495 0.9795
1.3597 4.6307 -1.8495 0.9795
1.1935 4.6763 -1.8495 0.9795
0.5159 4.7985 -1.8495 0.9795
-0.0000 4.8262 -1.8495 0.9795
-0.3443 4.8139 -1.8495 0.9795
-0.5159 4.7986 -1.8495 0.9795
-0.8569 4.7495 -1.8495 0.9795
-1.0259 4.7159 -1.8495 0.9795
-1.1936 4.6763 -1.8495 0.9795
-1.5241 4.5792 -1.8495 0.9795
-1.6866 4.5219 -1.8495 0.9795
-2.0049 4.3901 -1.8495 0.9795
-2.3304 4.2678 -1.8634 0.9794
-2.7352 4.2561 -1.9388 0.9786
-3.4164 3.9428 -1.9993 0.9779
-3.9476 3.4206 -2.0017 0.9779
-4.0671 3.2775 -2.0017 0.9779
-4.3942 2.8240 -2.0017 0.9779
-4.6708 2.3381 -2.0017 0.9779
-4.7513 2.1699 -2.0017 0.9779
-4.8258 1.9989 -2.0017 0.9779
-4.8940 1.8254 -2.0017 0.9779
-4.9561 1.6496 -2.0017 0.9779
-5.0611 1.2918 -2.0017 0.9779
-5.1040 1.1103 -2.0017 0.9779
-5.1404 0.9274 -2.0017 0.9779
-5.1702 0.7434 -2.0017 0.9779
-5.1934 0.5584 -2.0017 0.9779
-5.2200 0.1864 -2.0017 0.9779
4.8908 -0.0000 -2.0017 0.9791
4.8783 0.3489 -2.0017 0.9791
4.8131 0.8684 -2.0017 0.9791
4.7790 1.0396 -2.0017 0.9791
4.7389 1.2095 -2.0017 0.9791
4.6927 1.3779 -2.0017 0.9791
4.6405 1.5445 -2.0017 0.9791
4.5185 1.8716 -2.0017 0.9791
4.2925 2.3439 -2.0017 0.9791
4.2062 2.4956 -2.0017 0.9791
4.0174 2.7893 -2.0017 0.9791
3.6962 3.2028 -2.0017 0.9791
3.5795 3.3327 -2.0017 0.9791
3.4583 3.4583 -2.0017 0.9791
3.2028 3.6962 -2.0017 0.9791
3.0677 3.8068 -2.0010 0.9791
2.9273 3.9104 -1.9992 0.9791
2.6366 4.1027 -1.9960 0.9791
2.4867 4.1911 -1.9945 0.9792
1.4271 4.2877 -1.8495 0.9807
0.3224 4.5074 -1.8495 0.9807
-0.1613 4.5161 -1.8495 0.9807
-0.3224 4.5074 -1.8495 0.9807
-0.4831 4.4930 -1.8495 0.9807
-0.6431 4.4729 -1.8495 0.9807
-1.1176 4.3786 -1.8495 0.9807
-1.2731 4.3359 -1.8495 0.9807
-1.4271 4.2877 -1.8495 0.9807
-1.9437 4.2561 -1.9150 0.9800
-2.6373 4.1037 -1.9965 0.9791
-2.7843 4.0101 -1.9981 0.9791
-3.0686 3.8079 -2.0015 0.9791
-3.2028 3.6962 -2.0017 0.9791
-3.5796 3.3327 -2.0017 0.9791
-3.6962 3.2028 -2.0017 0.9791
-3.9153 2.9310 -2.0017 0.9791
-4.1144 2.6442 -2.0017 0.9791
-4.2926 2.3439 -2.0017 0.9791
-4.3735 2.1892 -2.0017 0.9791
-4.5185 1.8716 -2.0017 0.9791
-4.5824 1.7092 -2.0017 0.9791
-4.7790 1.0396 -2.0017 0.9791
-1.9449 0.2797 -0.8042 0.9915
-1.9569 0.2104 -0.8055 0.9915
-1.9308 0.0690 -0.7907 0.9917
4.5929 0.0000 -2.0017 0.9802
4.5812 0.3277 -2.0017 0.9802
4.5666 0.4910 -2.0017 0.9802
4.5462 0.6536 -2.0017 0.9802
4.5200 0.8155 -2.0017 0.9802
4.4503 1.1359 -2.0017 0.9802
4.4069 1.2940 -2.0017 0.9802
4.3579 1.4504 -2.0017 0.9802
4.3034 1.6051 -2.0017 0.9802
4.1779 1.9080 -2.0017 0.9802
3.9500 2.3437 -2.0017 0.9802
3.8638 2.4831 -2.0017 0.9802
3.7727 2.6195 -2.0017 0.9802
3.6768 2.7525 -2.0017 0.9802
3.5762 2.8819 -2.0017 0.9802
3.3616 3.1297 -2.0017 0.9802
3.0077 3.4711 -2.0017 0.9802
2.8819 3.5763 -2.0017 0.9802
2.4812 3.8608 -2.0001 0.9802
2.0502 4.0958 -1.9961 0.9802
1.2439 4.2364 -1.9243 0.9809
1.0823 4.2405 -1.9073 0.9811
0.9233 4.2441 -1.8929 0.9812
0.7663 4.2472 -1.8809 0.9813
0.6110 4.2498 -1.8712 0.9814
0.4572 4.2521 -1.8638 0.9815
0.3042 4.2539 -1.8586 0.9816
0.1520 4.2561 -1.8560 0.9816
0.0000 4.2575 -1.8555 0.9816
-0.1521 4.2573 -1.8566 0.9816
-0.3045 4.2571 -1.8600 0.9815
-0.4577 4.2568 -1.8659 0.9815
-0.6120 4.2562 -1.8740 0.9814
-0.7677 4.2551 -1.8844 0.9813
-0.9253 4.2536 -1.8972 0.9812
-1.0852 4.2517 -1.9124 0.9810
-1.2477 4.2494 -1.9301 0.9809
-1.5826 4.2432 -1.9737 0.9804
-1.7511 4.2276 -1.9943 0.9802
-1.9019 4.1647 -1.9954 0.9802
-2.0506 4.0966 -1.9965 0.9802
-2.1969 4.0233 -1.9978 0.9802
-2.4817 3.8617 -2.0006 0.9802
-2.7525 3.6769 -2.0017 0.9802
-3.0077 3.4711 -2.0017 0.9802
-3.2477 3.2477 -2.0017 0.9802
-3.3616 3.1297 -2.0017 0.9802
-3.4711 3.0078 -2.0017 0.9802
-3.5763 2.8819 -2.0017 0.9802
-3.7727 2.6195 -2.0017 0.9802
-3.8638 2.4831 -2.0017 0.9802
-3.9500 2.3437 -2.0017 0.9802
-4.1071 2.0559 -2.0017 0.9802
-4.2433 1.7577 -2.0017 0.9802
-1.5984 0.5962 -0.7435 0.9926
-1.5707 0.4612 -0.7134 0.9929
-1.5214 0.3310 -0.6786 0.9932
-1.5001 0.2707 -0.6643 0.9934
-1.5151 0.2178 -0.6671 0.9933
-1.5249 0.1640 -0.6684 0.9933
-1.5293 0.1094 -0.6682 0.9933
4.2996 0.4623 -2.0017 0.9811
4.2803 0.6154 -2.0017 0.9811
4.2556 0.7678 -2.0017 0.9811
4.2255 0.9192 -2.0017 0.9811
4.1492 1.2183 -2.0017 0.9811
4.1030 1.3656 -2.0017 0.9811
4.0517 1.5112 -2.0017 0.9811
3.9336 1.7964 -2.0017 0.9811
3.8670 1.9357 -2.0017 0.9811
3.7954 2.0725 -2.0017 0.9811
3.5521 2.4663 -2.0017 0.9811
3.3671 2.7134 -2.0017 0.9811
3.0578 3.0578 -2.0017 0.9811
2.9467 3.1650 -2.0017 0.9811
2.8318 3.2681 -2.0017 0.9811
2.7134 3.3671 -2.0017 0.9811
2.5915 3.4618 -2.0017 0.9811
2.3379 3.6379 -2.0017 0.9811
2.0720 3.7946 -2.0013 0.9811
1.9341 3.8639 -2.0001 0.9811
1.5078 4.0425 -1.9971 0.9812
1.2146 4.1365 -1.9955 0.9812
1.0658 4.1758 -1.9949 0.9812
0.9158 4.2100 -1.9943 0.9812
0.6082 4.2301 -1.9782 0.9813
0.4550 4.2323 -1.9704 0.9814
0.1513 4.2356 -1.9619 0.9815
0.0000 4.2366 -1.9611 0.9815
-0.3031 4.2373 -1.9664 0.9814
-0.4555 4.2371 -1.9726 0.9814
-0.7641 4.2352 -1.9920 0.9812
-0.9159 4.2104 -1.9945 0.9812
-1.3621 4.0925 -1.9965 0.9812
-1.6521 3.9885 -1.9983 0.9812
-1.7943 3.9290 -1.9993 0.9811
-2.3379 3.6379 -2.0017 0.9811
-2.4663 3.5521 -2.0017 0.9811
-2.9467 3.1650 -2.0017 0.9811
-3.3671 2.7134 -2.0017 0.9811
-3.4618 2.5915 -2.0017 0.9811
-3.5521 2.4663 -2.0017 0.9811
-3.6379 2.3379 -2.0017 0.9811
-3.7954 2.0724 -2.0017 0.9811
-1.3151 0.6006 -0.6692 0.9936
-1.3263 0.5494 -0.6645 0.9937
-1.3241 0.3888 -0.6388 0.9939
-1.3116 0.3348 -0.6266 0.9941
-1.3013 0.2831 -0.6164 0.9941
-1.3273 0.1908 -0.6207 0.9941
-1.3351 0.1435 -0.6215 0.9941
-1.3384 0.0957 -0.6211 0.9941
4.0807 0.0000 -2.0017 0.9820
4.0703 0.2911 -2.0017 0.9820
3.9154 1.1497 -2.0017 0.9820
3.8719 1.2887 -2.0017 0.9820
3.8234 1.4261 -2.0017 0.9820
3.7701 1.5616 -2.0017 0.9820
3.5815 1.9557 -2.0017 0.9820
3.4329 2.2062 -2.0017 0.9820
3.3520 2.3273 -2.0017 0.9820
2.6723 3.0840 -2.0017 0.9820
2.5605 3.1774 -2.0017 0.9820
2.4455 3.2668 -2.0017 0.9820
2.3273 3.3520 -2.0017 0.9820
1.9557 3.5816 -2.0017 0.9820
1.8266 3.6491 -2.0017 0.9820
1.4255 3.8218 -2.0009 0.9820
1.2877 3.8688 -2.0001 0.9820
1.1483 3.9109 -1.9994 0.9820
1.0077 3.9482 -1.9988 0.9820
0.8659 3.9805 -1.9982 0.9820
0.5795 4.0305 -1.9974 0.9820
0.4352 4.0481 -1.9971 0.9820
0.2904 4.0606 -1.9969 0.9820
0.1453 4.0682 -1.9968 0.9820
0.0000 4.0707 -1.9968 0.9820
-0.4352 4.0482 -1.9972 0.9820
-0.5795 4.0308 -1.9975 0.9820
-0.8660 3.9809 -1.9984 0.9820
-1.0078 3.9485 -1.9989 0.9820
-1.2878 3.8692 -2.0003 0.9820
-1.4257 3.8224 -2.0011 0.9820
-1.5616 3.7701 -2.0017 0.9820
-1.6952 3.7119 -2.0017 0.9820
-1.8266 3.6491 -2.0017 0.9820
-2.0823 3.5095 -2.0017 0.9820
-2.4455 3.2668 -2.0017 0.9820
-2.5605 3.1774 -2.0017 0.9820
-2.6723 3.0840 -2.0017 0.9820
-2.8855 2.8855 -2.0017 0.9820
-3.0840 2.6723 -2.0017 0.9820
-3.1774 2.5605 -2.0017 0.9820
-3.3520 2.3273 -2.0017 0.9820
-3.4329 2.2062 -2.0017 0.9820
-3.5095 2.0823 -2.0017 0.9820
-1.1292 0.5652 -0.6194 0.9944
-1.1484 0.4757 -0.6097 0.9945
-1.1578 0.3854 -0.5986 0.9946
-1.1590 0.3403 -0.5925 0.9946
-1.1695 0.2544 -0.5871 0.9947
-1.1953 0.0855 -0.5878 0.9947
3.8584 0.0000 -2.0017 0.9828
3.8560 0.1377 -2.0017 0.9828
3.8192 0.5491 -2.0017 0.9828
3.7971 0.6851 -2.0017 0.9828
3.7386 0.9542 -2.0017 0.9828
3.5098 1.6029 -2.0017 0.9828
3.3865 1.8492 -2.0017 0.9828
3.3183 1.9689 -2.0017 0.9828
3.2459 2.0860 -2.0017 0.9828
3.1694 2.2006 -2.0017 0.9828
3.0888 2.3123 -2.0017 0.9828
2.8240 2.6292 -2.0017 0.9828
2.7283 2.7283 -2.0017 0.9828
2.6292 2.8240 -2.0017 0.9828
2.4210 3.0043 -2.0017 0.9828
2.2006 3.1694 -2.0017 0.9828
1.8492 3.3865 -2.0017 0.9828
1.7271 3.4503 -2.0017 0.9828
1.6029 3.5098 -2.0017 0.9828
1.4766 3.5647 -2.0017 0.9828
1.3484 3.6152 -2.0017 0.9828
1.2185 3.6610 -2.0017 0.9828
1.0871 3.7022 -2.0017 0.9828
0.9542 3.7386 -2.0017 0.9828
0.6850 3.7965 -2.0014 0.9828
0.4123 3.8345 -2.0007 0.9828
0.2751 3.8464 -2.0005 0.9828
-0.1376 3.8536 -2.0005 0.9828
-0.4123 3.8347 -2.0008 0.9828
-0.6850 3.7968 -2.0015 0.9828
-0.9542 3.7386 -2.0017 0.9828
-1.0871 3.7022 -2.0017 0.9828
-1.3484 3.6152 -2.0017 0.9828
-1.9688 3.3183 -2.0017 0.9828
-2.0860 3.2459 -2.0017 0.9828
-2.2006 3.1694 -2.0017 0.9828
-2.3123 3.0889 -2.0017 0.9828
-2.5268 2.9160 -2.0017 0.9828
-2.6292 2.8240 -2.0017 0.9828
-3.0888 2.3123 -2.0017 0.9828
-3.2459 2.0860 -2.0017 0.9828
-1.0118 0.5525 -0.5981 0.9948
-1.0298 0.5155 -0.5974 0.9948
-1.0430 0.4763 -0.5948 0.9948
-1.0514 0.4355 -0.5904 0.9949
-1.0704 0.2732 -0.5731 0.9950
-1.0814 0.2353 -0.5741 0.9950
-1.0905 0.1968 -0.5749 0.9950
-1.1024 0.1185 -0.5752 0.9950
-1.1055 0.0791 -0.5750 0.9950
3.6337 0.3907 -2.0017 0.9835
3.5966 0.6489 -2.0017 0.9835
3.5712 0.7769 -2.0017 0.9835
3.5066 1.0296 -2.0017 0.9835
3.3765 1.3986 -2.0017 0.9835
3.2681 1.6359 -2.0017 0.9835
3.2076 1.7515 -2.0017 0.9835
3.1431 1.8649 -2.0017 0.9835
3.0745 1.9759 -2.0017 0.9835
2.6748 2.4904 -2.0017 0.9835
2.3933 2.7620 -2.0017 0.9835
2.1902 2.9257 -2.0017 0.9835
1.9759 3.0745 -2.0017 0.9835
1.8649 3.1431 -2.0017 0.9835
1.7515 3.2076 -2.0017 0.9835
1.5182 3.3244 -2.0017 0.9835
1.3986 3.3765 -2.0017 0.9835
1.1541 3.4677 -2.0017 0.9835
1.0296 3.5067 -2.0017 0.9835
0.5201 3.6175 -2.0017 0.9835
0.2607 3.6454 -2.0017 0.9835
0.1304 3.6524 -2.0017 0.9835
-0.1304 3.6524 -2.0017 0.9835
-0.2607 3.6454 -2.0017 0.9835
-0.6489 3.5966 -2.0017 0.9835
-0.7769 3.5712 -2.0017 0.9835
-0.9038 3.5412 -2.0017 0.9835
-1.0296 3.5067 -2.0017 0.9835
-1.1542 3.4676 -2.0017 0.9835
-1.2772 3.4243 -2.0017 0.9835
-1.8649 3.1431 -2.0017 0.9835
-2.1902 2.9257 -2.0017 0.9835
-2.4904 2.6749 -2.0017 0.9835
-2.7620 2.3933 -2.0017 0.9835
-0.8881 0.5708 -0.5782 0.9952
-0.9269 0.5061 -0.5784 0.9952
-0.9785 0.3257 -0.5648 0.9953
-0.9820 0.2883 -0.5606 0.9953
-0.9938 0.2537 -0.5618 0.9953
-1.0190 0.1465 -0.5638 0.9953
-1.0236 0.1101 -0.5639 0.9953
-1.0276 0.0367 -0.5632 0.9953
2.0359 0.1456 -1.1784 0.9906
2.0366 0.2190 -1.1826 0.9906
2.0300 0.2919 -1.1841 0.9906
2.0153 0.3636 -1.1823 0.9906
1.9883 0.4325 -1.1748 0.9906
1.9351 0.5682 -1.1644 0.9907
1.8620 0.7713 -1.1636 0.9907
3.1003 1.5519 -2.0017 0.9841
2.7755 2.0777 -2.0017 0.9841
2.6996 2.1754 -2.0017 0.9841
2.4515 2.4515 -2.0017 0.9841
2.3625 2.5375 -2.0017 0.9841
2.1754 2.6996 -2.0017 0.9841
2.0777 2.7755 -2.0017 0.9841
1.9773 2.8479 -2.0017 0.9841
1.8744 2.9166 -2.0017 0.9841
1.0949 3.2896 -2.0017 0.9841
0.9768 3.3266 -2.0017 0.9841
0.8574 3.3593 -2.0017 0.9841
0.7370 3.3878 -2.0017 0.9841
0.4934 3.4317 -2.0017 0.9841
0.2473 3.4582 -2.0017 0.9841
0.1237 3.4648 -2.0017 0.9841
0.0000 3.4670 -2.0017 0.9841
-0.2473 3.4582 -2.0017 0.9841
-0.3706 3.4472 -2.0017 0.9841
-0.4934 3.4317 -2.0017 0.9841
-0.6156 3.4119 -2.0017 0.9841
-0.8574 3.3593 -2.0017 0.9841
-1.3268 3.2031 -2.0017 0.9841
-1.4403 3.1537 -2.0017 0.9841
-1.6616 3.0429 -2.0017 0.9841
-1.7691 2.9817 -2.0017 0.9841
-1.9773 2.8479 -2.0017 0.9841
-2.0777 2.7755 -2.0017 0.9841
-2.3625 2.5375 -2.0017 0.9841
-0.8364 0.4963 -0.5615 0.9955
-0.8534 0.4660 -0.5614 0.9955
-0.8687 0.4349 -0.5609 0.9955
-0.8941 0.3703 -0.5587 0.9955
-0.9011 0.3361 -0.5553 0.9956
-0.9151 0.2687 -0.5506 0.9956
-0.9259 0.2363 -0.5517 0.9956
-0.9353 0.2035 -0.5526 0.9956
-0.9492 0.1365 -0.5537 0.9956
-0.9575 0.0342 -0.5532 0.9956
