ply
format ascii 1.0
element vertex 818
property float32 x
property float32 y
property float32 z
property float32 I
end_header
6.3823 4.4313 1.3700 0.9689
7.3515 5.5033 1.6192 0.9634
7.0951 5.7176 1.6067 0.9637
5.8924 5.1058 1.3748 0.9688
5.9581 5.5472 1.4354 0.9675
5.0173 5.7903 1.3509 0.9694
4.7209 5.8583 1.3266 0.9699
4.2253 6.0856 1.3063 0.9704
4.0661 6.3270 1.3261 0.9699
0.2258 6.3210 1.1153 0.9746
-0.0000 6.4550 1.1382 0.9741
5.8924 5.1058 1.1944 0.9689
5.0173 5.7903 1.1737 0.9695
4.2253 6.0856 1.1350 0.9705
4.0661 6.3270 1.1522 0.9700
0.4551 6.3637 0.9774 0.9745
0.2255 6.3126 0.9677 0.9748
0.0000 6.4463 0.9875 0.9743
7.3347 5.4907 1.1931 0.9637
7.0838 5.7085 1.1847 0.9640
4.2253 6.0856 0.9648 0.9706
4.5762 7.7127 1.1678 0.9645
0.2252 6.3044 0.8215 0.9749
0.0000 6.4377 0.8383 0.9744
6.6522 5.3607 0.9174 0.9662
6.1894 5.7625 0.9081 0.9666
5.9609 5.9609 0.9052 0.9667
5.5068 6.3551 0.9030 0.9667
5.0546 6.7521 0.9057 0.9666
4.2253 6.0856 0.7956 0.9706
4.5682 7.6993 0.9613 0.9646
0.0000 6.4291 0.6904 0.9745
6.9564 5.6058 0.7563 0.9648
7.2314 6.2661 0.8100 0.9623
6.9721 6.4912 0.8064 0.9625
6.7147 6.7147 0.8039 0.9626
5.9477 7.3806 0.8024 0.9627
5.0611 6.7609 0.7149 0.9667
4.2253 6.0856 0.6272 0.9707
0.0000 6.4206 0.5435 0.9746
6.1853 5.7587 0.5241 0.9667
5.9569 5.9569 0.5224 0.9668
5.7297 6.1542 0.5214 0.9669
5.5031 6.3509 0.5211 0.9669
5.0492 6.7450 0.5225 0.9668
4.5682 7.6993 0.5552 0.9648
0.4521 6.3214 0.3930 0.9749
0.2243 6.2799 0.3897 0.9751
6.6344 5.3463 0.3360 0.9665
7.2207 6.2568 0.3767 0.9625
6.4490 6.9268 0.3732 0.9628
5.2111 6.9612 0.3429 0.9658
5.4004 7.7781 0.3734 0.9628
0.4514 6.3110 0.2495 0.9750
6.6344 5.3463 0.1439 0.9665
7.2589 6.2899 0.1622 0.9623
0.4506 6.3007 0.1067 0.9750
7.2589 6.2899 -0.0541 0.9623
0.2234 6.2559 -0.0352 0.9753
6.6344 5.3463 -0.2399 0.9665
6.6032 5.7217 -0.2460 0.9656
6.6342 6.1766 -0.2552 0.9644
6.4069 6.4070 -0.2551 0.9644
0.4492 6.2802 -0.1773 0.9751
0.2231 6.2480 -0.1760 0.9753
6.6342 6.1766 -0.4597 0.9643
0.4484 6.2699 -0.3188 0.9751
0.2229 6.2400 -0.3167 0.9753
0.0000 6.3706 -0.3231 0.9748
6.6342 6.1766 -0.6646 0.9643
6.4069 6.4070 -0.6644 0.9643
0.6875 6.3949 -0.4716 0.9745
0.4477 6.2597 -0.4601 0.9751
0.2226 6.2321 -0.4572 0.9753
6.6329 5.3451 -0.8178 0.9663
6.1714 5.7458 -0.8095 0.9667
5.7216 6.1454 -0.8061 0.9668
5.2646 6.5330 -0.8055 0.9668
4.8100 6.9277 -0.8097 0.9667
0.6864 6.3842 -0.6164 0.9745
0.0000 6.3541 -0.6100 0.9748
6.6329 5.3451 -1.0119 0.9663
6.1714 5.7458 -1.0016 0.9666
5.7216 6.1454 -0.9974 0.9667
5.2646 6.5330 -0.9966 0.9668
4.8100 6.9277 -1.0018 0.9666
0.2220 6.2161 -0.7389 0.9753
0.0000 6.3458 -0.7538 0.9748
-9.8669 0.7057 -1.1750 0.9609
-9.6414 0.3444 -1.1460 0.9619
6.4009 5.5465 -1.2001 0.9664
6.1714 5.7458 -1.1947 0.9665
5.9436 5.9436 -1.1910 0.9666
5.7216 6.1454 -1.1897 0.9666
5.4908 6.3367 -1.1880 0.9667
5.2646 6.5330 -1.1888 0.9667
4.8100 6.9277 -1.1950 0.9665
0.0000 6.3375 -0.8979 0.9747
-9.7088 0.6944 -1.3791 0.9614
-9.5112 0.3397 -1.3485 0.9623
8.5433 4.6650 -1.6036 0.9613
6.6329 5.3451 -1.4033 0.9661
5.4908 6.3367 -1.3813 0.9666
5.2646 6.5330 -1.3822 0.9666
5.0421 6.7354 -1.3860 0.9665
5.7216 6.1454 -1.5782 0.9664
5.4953 6.3419 -1.5773 0.9664
5.2690 6.5384 -1.5783 0.9664
5.0421 6.7354 -1.5814 0.9663
0.2212 6.1921 -1.1646 0.9751
-0.0000 6.3207 -1.1880 0.9746
-0.2735 7.6571 -1.4401 0.9693
-0.5478 7.6592 -1.4433 0.9692
9.4635 0.3380 -2.0017 0.9620
9.4454 0.6755 -2.0017 0.9620
9.4153 1.0122 -2.0017 0.9620
9.3732 1.3476 -2.0017 0.9620
9.1754 2.3419 -2.0017 0.9620
8.7487 3.6238 -2.0017 0.9620
8.5996 3.9273 -1.9984 0.9621
7.5247 4.4646 -1.8495 0.9649
7.3606 4.7304 -1.8495 0.9649
7.0044 5.2434 -1.8495 0.9649
6.8128 5.4901 -1.8495 0.9649
6.6125 5.7297 -1.8495 0.9649
6.1101 5.6887 -1.7647 0.9664
5.9621 6.4038 -1.8495 0.9649
5.7297 6.6125 -1.8495 0.9649
5.0817 6.7884 -1.7924 0.9659
4.9901 7.1871 -1.8495 0.9649
4.7304 7.3606 -1.8495 0.9649
4.4646 7.5248 -1.8495 0.9649
4.1932 7.6793 -1.8495 0.9649
3.3483 8.0836 -1.8495 0.9649
3.0577 8.1979 -1.8495 0.9649
2.7631 8.3019 -1.8495 0.9649
2.1638 8.4778 -1.8495 0.9649
1.5535 8.6106 -1.8495 0.9649
1.2452 8.6605 -1.8495 0.9649
0.0000 6.3123 -1.3343 0.9745
-0.6242 8.7273 -1.8495 0.9649
-0.9353 8.6995 -1.8495 0.9649
-2.7631 8.3019 -1.8495 0.9649
-3.0577 8.1979 -1.8495 0.9649
-3.3483 8.0836 -1.8495 0.9649
-3.6347 7.9589 -1.8495 0.9649
-5.2434 7.0044 -1.8495 0.9649
-6.4038 5.9621 -1.8495 0.9649
-6.8128 5.4901 -1.8495 0.9649
-7.5248 4.4647 -1.8495 0.9649
-7.8625 4.2932 -1.8936 0.9640
-8.4396 4.2246 -1.9950 0.9621
-8.6065 3.9305 -2.0000 0.9621
-8.7488 3.6239 -2.0017 0.9620
-8.8726 3.3093 -2.0017 0.9620
-9.0860 2.6679 -2.0017 0.9620
-9.2532 2.0129 -2.0017 0.9620
-9.3732 1.3477 -2.0017 0.9620
-9.4636 0.3380 -2.0017 0.9620
8.5115 0.3040 -2.0017 0.9656
8.4952 0.6076 -2.0017 0.9656
8.3223 1.8104 -2.0017 0.9656
8.2524 2.1063 -2.0017 0.9656
7.8686 3.2593 -2.0017 0.9656
7.7473 3.5381 -2.0017 0.9656
7.6114 3.8100 -2.0005 0.9656
7.4542 4.0703 -1.9961 0.9657
7.0815 4.2017 -1.9352 0.9667
6.4640 4.4881 -1.8495 0.9682
6.1274 4.9378 -1.8495 0.9682
5.9473 5.1533 -1.8495 0.9682
5.7595 5.3623 -1.8495 0.9682
5.5645 5.5645 -1.8495 0.9682
5.3623 5.7595 -1.8495 0.9682
4.9378 6.1274 -1.8495 0.9682
4.4881 6.4641 -1.8495 0.9682
3.7714 6.9068 -1.8495 0.9682
3.2691 7.1583 -1.8495 0.9682
3.0115 7.2704 -1.8495 0.9682
2.2171 7.5506 -1.8495 0.9682
1.3890 5.4419 -1.3200 0.9772
0.7843 5.4537 -1.2949 0.9776
0.2206 6.1758 -1.4524 0.9749
-0.2556 7.1561 -1.6829 0.9710
-0.7810 5.4321 -1.2898 0.9777
-1.6728 7.6896 -1.8495 0.9682
-1.9461 7.6250 -1.8495 0.9682
-2.4852 7.4667 -1.8495 0.9682
-3.2691 7.1583 -1.8495 0.9682
-3.7714 6.9068 -1.8495 0.9682
-4.2545 6.6202 -1.8495 0.9682
-4.7160 6.2998 -1.8495 0.9682
-5.1534 5.9473 -1.8495 0.9682
-5.5645 5.5645 -1.8495 0.9682
-5.7596 5.3624 -1.8495 0.9682
-6.4641 4.4881 -1.8495 0.9682
-6.6781 4.2918 -1.8657 0.9679
-7.9800 2.9764 -2.0017 0.9656
-8.1720 2.3995 -2.0017 0.9656
-8.3223 1.8104 -2.0017 0.9656
-8.5115 0.3040 -2.0017 0.9656
7.7309 0.0000 -2.0017 0.9686
7.7260 0.2759 -2.0017 0.9686
7.6522 1.1002 -2.0017 0.9686
7.6081 1.3727 -2.0017 0.9686
7.3353 2.4414 -2.0017 0.9686
7.2435 2.7017 -2.0017 0.9686
7.1424 2.9585 -2.0017 0.9686
7.0323 3.2116 -2.0017 0.9686
6.7853 3.7051 -2.0017 0.9686
6.6377 3.9384 -1.9984 0.9686
6.0659 4.2117 -1.9120 0.9699
5.5619 4.4821 -1.8495 0.9709
5.2280 4.8675 -1.8495 0.9709
4.2807 5.7184 -1.8495 0.9709
4.0739 5.8675 -1.8495 0.9709
3.8619 6.0092 -1.8495 0.9709
3.6449 6.1432 -1.8495 0.9709
2.7336 6.5994 -1.8495 0.9709
2.4963 6.6928 -1.8495 0.9709
2.2558 6.7776 -1.8495 0.9709
2.0125 6.8538 -1.8495 0.9709
1.3844 5.4242 -1.4494 0.9771
1.1803 5.4258 -1.4377 0.9773
0.9824 5.4451 -1.4326 0.9774
0.7831 5.4466 -1.4247 0.9775
0.5857 5.4482 -1.4188 0.9776
-0.0000 5.4527 -1.4118 0.9777
-0.3902 5.4558 -1.4162 0.9777
-0.7810 5.4321 -1.4209 0.9776
-1.7666 6.9213 -1.8495 0.9709
-2.0125 6.8538 -1.8495 0.9709
-2.2558 6.7776 -1.8495 0.9709
-2.4963 6.6928 -1.8495 0.9709
-2.7336 6.5994 -1.8495 0.9709
-3.4233 6.2694 -1.8495 0.9709
-3.6449 6.1432 -1.8495 0.9709
-4.0739 5.8675 -1.8495 0.9709
-4.2807 5.7184 -1.8495 0.9709
-5.0510 5.0510 -1.8495 0.9709
-5.3984 4.6778 -1.8495 0.9709
-6.1571 4.2749 -1.9408 0.9695
-6.4844 4.1673 -1.9958 0.9687
-6.7853 3.7051 -2.0017 0.9686
-6.9132 3.4605 -2.0017 0.9686
-7.0323 3.2116 -2.0017 0.9686
-7.2435 2.7017 -2.0017 0.9686
-7.3353 2.4414 -2.0017 0.9686
-7.6081 1.3727 -2.0017 0.9686
-7.7113 0.5515 -2.0017 0.9686
-7.7260 0.2759 -2.0017 0.9686
7.0707 0.0000 -2.0017 0.9710
7.0527 0.5044 -2.0017 0.9710
7.0302 0.7558 -2.0017 0.9710
6.9988 1.0063 -2.0017 0.9710
6.9092 1.5030 -2.0017 0.9710
6.7843 1.9921 -2.0017 0.9710
6.4318 2.9373 -2.0017 0.9710
6.2058 3.3887 -2.0017 0.9710
6.0809 3.6080 -2.0017 0.9710
5.9446 3.8204 -2.0004 0.9711
5.7945 4.0232 -1.9970 0.9711
5.6116 4.2008 -1.9844 0.9713
5.2342 4.2180 -1.9030 0.9724
4.6196 4.6196 -1.8495 0.9732
4.4518 4.7816 -1.8495 0.9732
4.2783 4.9374 -1.8495 0.9732
4.0993 5.0870 -1.8495 0.9732
3.9152 5.2300 -1.8495 0.9732
3.7260 5.3664 -1.8495 0.9732
3.5321 5.4960 -1.8495 0.9732
3.3337 5.6186 -1.8495 0.9732
2.5001 6.0358 -1.8495 0.9732
2.2831 6.1212 -1.8495 0.9732
2.0632 6.1988 -1.8495 0.9732
1.3890 5.4419 -1.5900 0.9769
0.9824 5.4451 -1.5664 0.9773
0.7831 5.4466 -1.5578 0.9774
0.5857 5.4482 -1.5512 0.9775
0.3898 5.4497 -1.5467 0.9775
0.1947 5.4512 -1.5442 0.9776
-0.1948 5.4542 -1.5450 0.9776
-0.3902 5.4558 -1.5484 0.9775
-0.5867 5.4573 -1.5538 0.9774
-2.0632 6.1988 -1.8495 0.9732
-2.5001 6.0358 -1.8495 0.9732
-2.9243 5.8421 -1.8495 0.9732
-3.3337 5.6186 -1.8495 0.9732
-3.5321 5.4960 -1.8495 0.9732
-3.7260 5.3665 -1.8495 0.9732
-3.9152 5.2301 -1.8495 0.9732
-4.0993 5.0870 -1.8495 0.9732
-4.2783 4.9374 -1.8495 0.9732
-4.4518 4.7816 -1.8495 0.9732
-4.6196 4.6196 -1.8495 0.9732
-5.3019 4.2726 -1.9276 0.9721
-5.6408 4.2226 -1.9947 0.9711
-6.0810 3.6080 -2.0017 0.9710
-6.2059 3.3887 -2.0017 0.9710
-6.3229 3.1650 -2.0017 0.9710
-6.5325 2.7059 -2.0017 0.9710
-6.6250 2.4710 -2.0017 0.9710
-6.7089 2.2329 -2.0017 0.9710
-6.7844 1.9921 -2.0017 0.9710
-6.8511 1.7487 -2.0017 0.9710
-6.9092 1.5030 -2.0017 0.9710
-7.0303 0.7558 -2.0017 0.9710
-7.0528 0.5044 -2.0017 0.9710
-7.0663 0.2524 -2.0017 0.9710
6.5078 0.0000 -2.0017 0.9731
6.4913 0.4643 -2.0017 0.9731
6.4416 0.9262 -2.0017 0.9731
6.0125 2.4904 -2.0017 0.9731
5.9198 2.7035 -2.0017 0.9731
5.3457 3.7116 -2.0017 0.9731
5.2035 3.8953 -1.9992 0.9732
4.5342 4.2215 -1.9055 0.9744
3.7730 4.6820 -1.8495 0.9751
3.4294 4.9392 -1.8495 0.9751
2.8817 5.2775 -1.8495 0.9751
2.6915 5.3770 -1.8495 0.9751
2.3011 5.5553 -1.8495 0.9751
2.1013 5.6339 -1.8495 0.9751
1.6941 5.7695 -1.8495 0.9751
1.1759 5.4057 -1.7016 0.9771
0.5857 5.4482 -1.6854 0.9773
-0.1948 5.4542 -1.6787 0.9774
-0.3902 5.4558 -1.6824 0.9774
-0.5867 5.4573 -1.6882 0.9773
-1.2782 5.8756 -1.8495 0.9751
-1.4871 5.8263 -1.8495 0.9751
-2.1014 5.6339 -1.8495 0.9751
-2.3011 5.5554 -1.8495 0.9751
-2.8817 5.2775 -1.8495 0.9751
-3.2509 5.0585 -1.8495 0.9751
-3.9377 4.5444 -1.8495 0.9751
-4.0974 4.4009 -1.8495 0.9751
-4.2791 4.2791 -1.8613 0.9750
-4.5849 4.2687 -1.9268 0.9741
-5.0559 4.0743 -1.9972 0.9732
-5.2060 3.8972 -2.0002 0.9732
-5.3457 3.7116 -2.0017 0.9731
-5.4748 3.5184 -2.0017 0.9731
-5.5969 3.3208 -2.0017 0.9731
-5.7118 3.1189 -2.0017 0.9731
-5.8195 2.9131 -2.0017 0.9731
-5.9198 2.7035 -2.0017 0.9731
-6.0976 2.2743 -2.0017 0.9731
-6.2443 1.8335 -2.0017 0.9731
-6.3057 1.6094 -2.0017 0.9731
-6.4045 1.1555 -2.0017 0.9731
-6.4416 0.9262 -2.0017 0.9731
-6.4706 0.6957 -2.0017 0.9731
6.0179 0.2149 -2.0017 0.9749
6.0064 0.4296 -2.0017 0.9749
5.9873 0.6437 -2.0017 0.9749
5.9605 0.8570 -2.0017 0.9749
5.9261 1.0692 -2.0017 0.9749
5.3849 2.6955 -2.0017 0.9749
5.1788 3.0728 -2.0017 0.9749
5.0658 3.2556 -2.0017 0.9749
4.9464 3.4344 -2.0017 0.9749
4.8207 3.6087 -2.0017 0.9749
4.5439 3.9374 -1.9986 0.9750
4.3948 4.0917 -1.9960 0.9750
3.6690 4.2343 -1.8624 0.9767
3.3343 4.4542 -1.8495 0.9768
2.6665 4.8833 -1.8495 0.9768
2.1292 5.1404 -1.8495 0.9768
0.9664 5.3564 -1.8092 0.9773
0.5762 5.3594 -1.7918 0.9775
0.3834 5.3609 -1.7866 0.9776
0.1915 5.3624 -1.7836 0.9776
-0.3839 5.3669 -1.7885 0.9776
-0.5772 5.3684 -1.7948 0.9775
-1.3760 5.3911 -1.8495 0.9768
-1.7571 5.2792 -1.8495 0.9768
-2.1292 5.1404 -1.8495 0.9768
-2.4905 4.9754 -1.8495 0.9768
-2.6665 4.8833 -1.8495 0.9768
-2.8391 4.7851 -1.8495 0.9768
-3.0081 4.6807 -1.8495 0.9768
-3.9694 4.2635 -1.9363 0.9757
-4.2423 4.2423 -1.9943 0.9750
-4.5459 3.9390 -1.9994 0.9750
-4.8207 3.6087 -2.0017 0.9749
-4.9465 3.4344 -2.0017 0.9749
-5.0659 3.2557 -2.0017 0.9749
-5.3849 2.6955 -2.0017 0.9749
-5.4776 2.5016 -2.0017 0.9749
-5.6421 2.1044 -2.0017 0.9749
-5.8348 1.4892 -2.0017 0.9749
-5.9261 1.0692 -2.0017 0.9749
-5.9873 0.6437 -2.0017 0.9749
5.5653 0.5983 -2.0017 0.9765
5.5404 0.7966 -2.0017 0.9765
5.5085 0.9939 -2.0017 0.9765
5.4235 1.3843 -2.0017 0.9765
5.3707 1.5770 -2.0017 0.9765
5.3110 1.7677 -2.0017 0.9765
5.0916 2.3253 -2.0017 0.9765
5.0054 2.5055 -2.0017 0.9765
4.7088 3.0262 -2.0017 0.9765
4.2302 3.6655 -2.0017 0.9765
3.9515 3.9515 -1.9984 0.9765
3.6483 4.2104 -1.9923 0.9766
3.1680 4.2319 -1.8904 0.9778
2.6390 4.4479 -1.8495 0.9783
2.3150 4.6248 -1.8495 0.9783
2.1484 4.7045 -1.8495 0.9783
1.6333 4.9072 -1.8495 0.9783
1.4571 4.9623 -1.8495 0.9783
1.0994 5.0536 -1.8495 0.9783
0.7360 5.1192 -1.8495 0.9783
0.5529 5.1422 -1.8495 0.9783
0.3690 5.1587 -1.8495 0.9783
0.0000 5.1718 -1.8495 0.9783
-0.9183 5.0897 -1.8495 0.9783
-1.2790 5.0112 -1.8495 0.9783
-1.4571 4.9623 -1.8495 0.9783
-2.1485 4.7045 -1.8495 0.9783
-2.3150 4.6248 -1.8495 0.9783
-2.9661 4.2720 -1.8598 0.9781
-3.4305 4.2570 -1.9551 0.9770
-3.8050 4.0869 -1.9969 0.9766
-4.0964 3.8139 -2.0015 0.9765
-4.4810 3.3544 -2.0017 0.9765
-4.5979 3.1923 -2.0017 0.9765
-4.8139 2.8562 -2.0017 0.9765
-5.0054 2.5055 -2.0017 0.9765
-5.0916 2.3253 -2.0017 0.9765
-5.1714 2.1421 -2.0017 0.9765
-5.2445 1.9561 -2.0017 0.9765
-5.3110 1.7677 -2.0017 0.9765
-5.3707 1.5770 -2.0017 0.9765
-5.4236 1.3843 -2.0017 0.9765
-5.5939 0.1998 -2.0017 0.9765
5.2233 0.0000 -2.0017 0.9779
5.2200 0.1864 -2.0017 0.9779
5.1934 0.5583 -2.0017 0.9779
5.1702 0.7434 -2.0017 0.9779
5.1403 0.9274 -2.0017 0.9779
5.1040 1.1103 -2.0017 0.9779
5.0611 1.2918 -2.0017 0.9779
5.0117 1.4716 -2.0017 0.9779
4.8257 1.9989 -2.0017 0.9779
4.6708 2.3381 -2.0017 0.9779
4.5844 2.5033 -2.0017 0.9779
4.4921 2.6653 -2.0017 0.9779
4.1815 3.1302 -2.0017 0.9779
4.0671 3.2775 -2.0017 0.9779
3.9475 3.4206 -2.0017 0.9779
3.8229 3.5593 -2.0017 0.9779
3.6934 3.6935 -2.0017 0.9779
2.9292 4.2189 -1.9682 0.9782
2.7171 4.2279 -1.9259 0.9787
2.5134 4.2361 -1.8876 0.9791
2.3186 4.2460 -1.8539 0.9795
0.6868 4.7771 -1.8495 0.9795
0.5159 4.7985 -1.8495 0.9795
0.3443 4.8139 -1.8495 0.9795
-0.0000 4.8262 -1.8495 0.9795
-0.1723 4.8231 -1.8495 0.9795
-0.6868 4.7771 -1.8495 0.9795
-0.8569 4.7495 -1.8495 0.9795
-1.3597 4.6307 -1.8495 0.9795
-1.6866 4.5219 -1.8495 0.9795
-2.1603 4.3157 -1.8495 0.9795
-2.3304 4.2678 -1.8634 0.9794
-2.5289 4.2623 -1.8992 0.9790
-2.7352 4.2561 -1.9388 0.9786
-2.9503 4.2492 -1.9824 0.9781
-3.2703 4.0582 -1.9973 0.9779
-3.4164 3.9428 -1.9993 0.9779
-3.5586 3.8223 -2.0013 0.9779
-3.6935 3.6935 -2.0017 0.9779
-3.9476 3.4206 -2.0017 0.9779
-4.1815 3.1302 -2.0017 0.9779
-4.2906 2.9790 -2.0017 0.9779
-4.3942 2.8240 -2.0017 0.9779
-4.4922 2.6653 -2.0017 0.9779
-4.8258 1.9989 -2.0017 0.9779
-4.9561 1.6496 -2.0017 0.9779
-5.1040 1.1103 -2.0017 0.9779
-5.2100 0.3726 -2.0017 0.9779
4.8908 -0.0000 -2.0017 0.9791
4.8877 0.1746 -2.0017 0.9791
4.8783 0.3489 -2.0017 0.9791
4.8628 0.5228 -2.0017 0.9791
4.8131 0.8684 -2.0017 0.9791
4.7790 1.0396 -2.0017 0.9791
4.5185 1.8716 -2.0017 0.9791
4.3735 2.1892 -2.0017 0.9791
4.2062 2.4956 -2.0017 0.9791
3.8082 3.0688 -2.0017 0.9791
3.6962 3.2028 -2.0017 0.9791
3.4583 3.4583 -2.0017 0.9791
3.2028 3.6962 -2.0017 0.9791
3.0677 3.8068 -2.0010 0.9791
2.7836 4.0091 -1.9975 0.9791
1.9345 4.2360 -1.9059 0.9801
1.7571 4.2419 -1.8792 0.9804
1.5846 4.2483 -1.8557 0.9806
1.4271 4.2877 -1.8495 0.9807
1.1176 4.3786 -1.8495 0.9807
0.9606 4.4156 -1.8495 0.9807
0.8023 4.4471 -1.8495 0.9807
0.6431 4.4729 -1.8495 0.9807
0.4830 4.4931 -1.8495 0.9807
0.3224 4.5074 -1.8495 0.9807
-0.1613 4.5161 -1.8495 0.9807
-0.3224 4.5074 -1.8495 0.9807
-0.6431 4.4729 -1.8495 0.9807
-0.8023 4.4471 -1.8495 0.9807
-0.9606 4.4157 -1.8495 0.9807
-1.2731 4.3359 -1.8495 0.9807
-1.4271 4.2877 -1.8495 0.9807
-1.5903 4.2638 -1.8625 0.9805
-2.3186 4.2461 -1.9800 0.9793
-2.4872 4.1920 -1.9950 0.9792
-2.6373 4.1037 -1.9965 0.9791
-3.2028 3.6962 -2.0017 0.9791
-3.4583 3.4583 -2.0017 0.9791
-3.5796 3.3327 -2.0017 0.9791
-3.6962 3.2028 -2.0017 0.9791
-3.8082 3.0688 -2.0017 0.9791
-4.2062 2.4956 -2.0017 0.9791
-4.2926 2.3439 -2.0017 0.9791
-4.5824 1.7092 -2.0017 0.9791
-4.6927 1.3779 -2.0017 0.9791
-2.1703 0.3916 -0.9026 0.9905
-1.9449 0.2797 -0.8042 0.9915
-1.9569 0.2104 -0.8055 0.9915
-1.9524 0.1397 -0.8011 0.9916
-1.9308 0.0690 -0.7907 0.9917
4.5900 0.1639 -2.0017 0.9802
4.5812 0.3277 -2.0017 0.9802
4.5666 0.4910 -2.0017 0.9802
4.5462 0.6536 -2.0017 0.9802
4.4503 1.1359 -2.0017 0.9802
4.3579 1.4504 -2.0017 0.9802
4.3034 1.6051 -2.0017 0.9802
4.1071 2.0559 -2.0017 0.9802
4.0311 2.2012 -2.0017 0.9802
3.8638 2.4831 -2.0017 0.9802
3.6768 2.7525 -2.0017 0.9802
3.4711 3.0078 -2.0017 0.9802
3.3616 3.1297 -2.0017 0.9802
3.0077 3.4711 -2.0017 0.9802
2.8819 3.5763 -2.0017 0.9802
2.6193 3.7725 -2.0016 0.9802
2.4812 3.8608 -2.0001 0.9802
2.3401 3.9441 -1.9987 0.9802
2.1964 4.0225 -1.9974 0.9802
2.0502 4.0958 -1.9961 0.9802
1.7485 4.2212 -1.9913 0.9803
1.0823 4.2405 -1.9073 0.9811
0.7663 4.2472 -1.8809 0.9813
0.1520 4.2561 -1.8560 0.9816
-0.1521 4.2573 -1.8566 0.9816
-0.3045 4.2571 -1.8600 0.9815
-0.6120 4.2562 -1.8740 0.9814
-1.2477 4.2494 -1.9301 0.9809
-2.0506 4.0966 -1.9965 0.9802
-2.1969 4.0233 -1.9978 0.9802
-2.4817 3.8617 -2.0006 0.9802
-2.7525 3.6769 -2.0017 0.9802
-2.8819 3.5762 -2.0017 0.9802
-3.2477 3.2477 -2.0017 0.9802
-3.3616 3.1297 -2.0017 0.9802
-3.4711 3.0078 -2.0017 0.9802
-3.5763 2.8819 -2.0017 0.9802
-3.7727 2.6195 -2.0017 0.9802
-3.8638 2.4831 -2.0017 0.9802
-4.0311 2.2012 -2.0017 0.9802
-4.1071 2.0559 -2.0017 0.9802
-4.2433 1.7577 -2.0017 0.9802
-1.5984 0.5962 -0.7435 0.9926
-1.5875 0.5284 -0.7292 0.9927
-1.5485 0.3952 -0.6965 0.9931
-1.5001 0.2707 -0.6643 0.9934
-1.5293 0.1094 -0.6682 0.9933
4.3243 0.0000 -2.0017 0.9811
4.2996 0.4623 -2.0017 0.9811
4.2556 0.7678 -2.0017 0.9811
4.2255 0.9192 -2.0017 0.9811
4.1492 1.2183 -2.0017 0.9811
4.0517 1.5112 -2.0017 0.9811
3.9952 1.6549 -2.0017 0.9811
3.9336 1.7964 -2.0017 0.9811
3.8670 1.9357 -2.0017 0.9811
3.6379 2.3379 -2.0017 0.9811
3.5521 2.4663 -2.0017 0.9811
3.2681 2.8319 -2.0017 0.9811
3.0578 3.0578 -2.0017 0.9811
2.9467 3.1650 -2.0017 0.9811
2.3379 3.6379 -2.0017 0.9811
2.0720 3.7946 -2.0013 0.9811
1.6518 3.9879 -1.9980 0.9812
1.0658 4.1758 -1.9949 0.9812
0.9158 4.2100 -1.9943 0.9812
0.6082 4.2301 -1.9782 0.9813
0.3028 4.2342 -1.9650 0.9815
0.0000 4.2366 -1.9611 0.9815
-0.1513 4.2372 -1.9626 0.9815
-0.3031 4.2373 -1.9664 0.9814
-0.4555 4.2371 -1.9726 0.9814
-0.9159 4.2104 -1.9945 0.9812
-1.3621 4.0925 -1.9965 0.9812
-1.9345 3.8646 -2.0004 0.9811
-2.0724 3.7953 -2.0016 0.9811
-2.7134 3.3671 -2.0017 0.9811
-2.8319 3.2681 -2.0017 0.9811
-2.9467 3.1650 -2.0017 0.9811
-3.2681 2.8319 -2.0017 0.9811
-3.4618 2.5915 -2.0017 0.9811
-3.7190 2.2066 -2.0017 0.9811
-3.8670 1.9357 -2.0017 0.9811
-1.3116 0.3348 -0.6266 0.9941
-1.3013 0.2831 -0.6164 0.9941
-1.3160 0.2374 -0.6190 0.9941
-1.3273 0.1908 -0.6207 0.9941
-1.3384 0.0957 -0.6211 0.9941
4.0807 0.0000 -2.0017 0.9820
4.0781 0.1457 -2.0017 0.9820
4.0703 0.2911 -2.0017 0.9820
4.0573 0.4362 -2.0017 0.9820
4.0392 0.5808 -2.0017 0.9820
3.9874 0.8674 -2.0017 0.9820
3.9154 1.1497 -2.0017 0.9820
3.8719 1.2887 -2.0017 0.9820
3.8234 1.4261 -2.0017 0.9820
3.7119 1.6952 -2.0017 0.9820
3.6491 1.8266 -2.0017 0.9820
3.5095 2.0823 -2.0017 0.9820
3.1774 2.5605 -2.0017 0.9820
2.8855 2.8855 -2.0017 0.9820
2.7807 2.9867 -2.0017 0.9820
2.6723 3.0840 -2.0017 0.9820
2.5605 3.1774 -2.0017 0.9820
2.4455 3.2668 -2.0017 0.9820
2.2062 3.4329 -2.0017 0.9820
2.0823 3.5095 -2.0017 0.9820
1.9557 3.5816 -2.0017 0.9820
1.6952 3.7119 -2.0017 0.9820
1.5616 3.7701 -2.0017 0.9820
1.4255 3.8218 -2.0009 0.9820
1.2877 3.8688 -2.0001 0.9820
1.1483 3.9109 -1.9994 0.9820
0.7231 4.0080 -1.9978 0.9820
0.5795 4.0305 -1.9974 0.9820
0.4352 4.0481 -1.9971 0.9820
-0.1453 4.0682 -1.9968 0.9820
-0.2904 4.0607 -1.9970 0.9820
-0.4352 4.0482 -1.9972 0.9820
-0.5795 4.0308 -1.9975 0.9820
-0.7232 4.0083 -1.9979 0.9820
-0.8660 3.9809 -1.9984 0.9820
-1.0078 3.9485 -1.9989 0.9820
-1.1485 3.9113 -1.9996 0.9820
-1.2878 3.8692 -2.0003 0.9820
-1.4257 3.8224 -2.0011 0.9820
-1.5616 3.7701 -2.0017 0.9820
-1.9557 3.5816 -2.0017 0.9820
-2.3273 3.3520 -2.0017 0.9820
-2.4455 3.2668 -2.0017 0.9820
-2.5605 3.1774 -2.0017 0.9820
-2.9867 2.7807 -2.0017 0.9820
-3.0840 2.6723 -2.0017 0.9820
-3.1774 2.5605 -2.0017 0.9820
-3.2668 2.4455 -2.0017 0.9820
-3.5095 2.0823 -2.0017 0.9820
-1.1292 0.5652 -0.6194 0.9944
-1.1543 0.4306 -0.6043 0.9945
-1.1695 0.2544 -0.5871 0.9947
-1.1867 0.1706 -0.5881 0.9947
-1.1921 0.1282 -0.5881 0.9947
-1.1965 0.0427 -0.5873 0.9947
3.8560 0.1377 -2.0017 0.9828
3.8486 0.2753 -2.0017 0.9828
3.5098 1.6029 -2.0017 0.9828
3.4503 1.7271 -2.0017 0.9828
3.2459 2.0860 -2.0017 0.9828
3.1694 2.2006 -2.0017 0.9828
3.0043 2.4211 -2.0017 0.9828
2.7283 2.7283 -2.0017 0.9828
2.6292 2.8240 -2.0017 0.9828
2.5267 2.9160 -2.0017 0.9828
2.3123 3.0888 -2.0017 0.9828
2.0860 3.2459 -2.0017 0.9828
1.7271 3.4503 -2.0017 0.9828
1.4766 3.5647 -2.0017 0.9828
0.9542 3.7386 -2.0017 0.9828
0.8202 3.7703 -2.0017 0.9828
0.5489 3.8179 -2.0010 0.9828
0.4123 3.8345 -2.0007 0.9828
0.0000 3.8560 -2.0004 0.9828
-0.1376 3.8536 -2.0005 0.9828
-0.2751 3.8465 -2.0006 0.9828
-0.4123 3.8347 -2.0008 0.9828
-1.0871 3.7022 -2.0017 0.9828
-1.3484 3.6152 -2.0017 0.9828
-1.4766 3.5647 -2.0017 0.9828
-1.6029 3.5098 -2.0017 0.9828
-1.9688 3.3183 -2.0017 0.9828
-2.0860 3.2459 -2.0017 0.9828
-2.2006 3.1694 -2.0017 0.9828
-2.3123 3.0889 -2.0017 0.9828
-2.4211 3.0044 -2.0017 0.9828
-2.6292 2.8240 -2.0017 0.9828
-2.8240 2.6292 -2.0017 0.9828
-2.9160 2.5267 -2.0017 0.9828
-3.0888 2.3123 -2.0017 0.9828
-0.9917 0.5884 -0.5982 0.9948
-1.0118 0.5525 -0.5981 0.9948
-1.0298 0.5155 -0.5974 0.9948
-1.0514 0.4355 -0.5904 0.9949
-1.0576 0.3945 -0.5856 0.9949
-1.0704 0.2732 -0.5731 0.9950
-1.0905 0.1968 -0.5749 0.9950
-1.0974 0.1578 -0.5752 0.9950
-1.1024 0.1185 -0.5752 0.9950
-1.1066 0.0395 -0.5744 0.9950
3.6547 0.0000 -2.0017 0.9835
3.6523 0.1304 -2.0017 0.9835
3.6337 0.3907 -2.0017 0.9835
3.5966 0.6489 -2.0017 0.9835
3.5411 0.9038 -2.0017 0.9835
3.5066 1.0296 -2.0017 0.9835
3.4242 1.2772 -2.0017 0.9835
3.3765 1.3986 -2.0017 0.9835
3.3244 1.5182 -2.0017 0.9835
3.1431 1.8649 -2.0017 0.9835
3.0745 1.9759 -2.0017 0.9835
3.0020 2.0843 -2.0017 0.9835
2.9257 2.1902 -2.0017 0.9835
2.7620 2.3933 -2.0017 0.9835
2.3933 2.7620 -2.0017 0.9835
2.1902 2.9257 -2.0017 0.9835
2.0843 3.0020 -2.0017 0.9835
1.9759 3.0745 -2.0017 0.9835
1.6359 3.2681 -2.0017 0.9835
1.1541 3.4677 -2.0017 0.9835
1.0296 3.5067 -2.0017 0.9835
0.9038 3.5412 -2.0017 0.9835
0.6489 3.5966 -2.0017 0.9835
0.2607 3.6454 -2.0017 0.9835
-0.2607 3.6454 -2.0017 0.9835
-0.5201 3.6175 -2.0017 0.9835
-0.6489 3.5966 -2.0017 0.9835
-0.7769 3.5712 -2.0017 0.9835
-0.9038 3.5412 -2.0017 0.9835
-1.0296 3.5067 -2.0017 0.9835
-1.1542 3.4676 -2.0017 0.9835
-1.2772 3.4243 -2.0017 0.9835
-1.3986 3.3765 -2.0017 0.9835
-1.5182 3.3244 -2.0017 0.9835
-2.0844 3.0021 -2.0017 0.9835
-2.3933 2.7620 -2.0017 0.9835
-2.4904 2.6749 -2.0017 0.9835
-2.6748 2.4904 -2.0017 0.9835
-2.8457 2.2932 -2.0017 0.9835
-2.9257 2.1902 -2.0017 0.9835
-0.8661 0.6013 -0.5775 0.9952
-0.9434 0.4722 -0.5778 0.9952
-0.9580 0.4375 -0.5768 0.9952
-0.9677 0.4008 -0.5737 0.9952
-0.9820 0.2883 -0.5606 0.9953
-0.9938 0.2537 -0.5618 0.9953
-1.0124 0.1827 -0.5634 0.9953
-1.0276 0.0367 -0.5632 0.9953
2.0300 0.2919 -1.1841 0.9906
1.9883 0.4325 -1.1748 0.9906
1.9616 0.5007 -1.1688 0.9907
1.9351 0.5682 -1.1644 0.9907
1.8682 0.6968 -1.1512 0.9908
1.8508 0.8452 -1.1747 0.9906
3.0429 1.6616 -2.0017 0.9841
2.9817 1.7691 -2.0017 0.9841
2.9166 1.8744 -2.0017 0.9841
2.8479 1.9773 -2.0017 0.9841
2.5375 2.3625 -2.0017 0.9841
2.4515 2.4515 -2.0017 0.9841
2.2704 2.6202 -2.0017 0.9841
1.7691 2.9817 -2.0017 0.9841
1.4402 3.1537 -2.0017 0.9841
1.3268 3.2031 -2.0017 0.9841
1.0949 3.2896 -2.0017 0.9841
0.8574 3.3593 -2.0017 0.9841
0.7370 3.3878 -2.0017 0.9841
0.6156 3.4119 -2.0017 0.9841
0.4934 3.4317 -2.0017 0.9841
0.3706 3.4471 -2.0017 0.9841
0.2473 3.4582 -2.0017 0.9841
0.1237 3.4648 -2.0017 0.9841
0.0000 3.4670 -2.0017 0.9841
-0.1237 3.4648 -2.0017 0.9841
-0.2473 3.4582 -2.0017 0.9841
-0.3706 3.4472 -2.0017 0.9841
-1.0949 3.2896 -2.0017 0.9841
-1.2116 3.2484 -2.0017 0.9841
-1.4403 3.1537 -2.0017 0.9841
-1.5519 3.1003 -2.0017 0.9841
-1.6616 3.0429 -2.0017 0.9841
-1.7691 2.9817 -2.0017 0.9841
-1.8744 2.9166 -2.0017 0.9841
-1.9773 2.8479 -2.0017 0.9841
-2.2704 2.6202 -2.0017 0.9841
-2.4515 2.4516 -2.0017 0.9841
-2.6202 2.2704 -2.0017 0.9841
-0.8178 0.5256 -0.5613 0.9955
-0.8364 0.4963 -0.5615 0.9955
-0.8687 0.4349 -0.5609 0.9955
-0.8941 0.3703 -0.5587 0.9955
-0.9259 0.2363 -0.5517 0.9956
-0.9353 0.2035 -0.5526 0.9956
-0.9430 0.1701 -0.5532 0.9956
-0.9492 0.1365 -0.5537 0.9956
