ply
format ascii 1.0
element vertex 844
property float32 x
property float32 y
property float32 z
property float32 I
end_header
6.7988 4.3693 1.4250 0.9677
7.0951 5.7176 1.6067 0.9637
4.2253 6.0856 1.3063 0.9704
4.0661 6.3270 1.3261 0.9699
4.0031 6.7469 1.3833 0.9686
0.4559 6.3745 1.1269 0.9744
0.2258 6.3210 1.1153 0.9746
-0.0000 6.4550 1.1382 0.9741
7.8694 5.4638 1.4676 0.9620
7.3347 5.4907 1.4036 0.9636
7.0838 5.7085 1.3937 0.9639
5.8924 5.1058 1.1944 0.9689
0.4551 6.3637 0.9774 0.9745
7.3347 5.4907 1.1931 0.9637
4.2253 6.0856 0.9648 0.9706
4.0661 6.3270 0.9794 0.9701
0.2252 6.3044 0.8215 0.9749
6.1894 5.7625 0.9081 0.9666
5.7335 6.1583 0.9035 0.9667
5.5068 6.3551 0.9030 0.9667
5.2800 6.5521 0.9036 0.9667
0.4536 6.3424 0.6828 0.9747
0.0000 6.4291 0.6904 0.9745
6.9564 5.6058 0.7563 0.9648
6.9721 6.4912 0.8064 0.9625
5.9477 7.3806 0.8024 0.9627
4.2253 6.0856 0.6272 0.9707
6.4154 5.5589 0.5264 0.9666
5.2765 6.5477 0.5215 0.9669
5.0492 6.7450 0.5225 0.9668
0.4521 6.3214 0.3930 0.9749
0.2243 6.2799 0.3897 0.9751
6.4490 6.9268 0.3732 0.9628
6.1940 7.1482 0.3730 0.9628
5.9389 7.3697 0.3732 0.9628
5.2111 6.9612 0.3429 0.9658
0.2240 6.2719 0.2475 0.9752
6.6344 5.3463 0.1439 0.9665
7.2589 6.2899 0.1622 0.9623
0.4506 6.3007 0.1067 0.9750
0.2237 6.2639 0.1059 0.9752
-0.0000 6.3955 0.1080 0.9747
0.4499 6.2904 -0.0355 0.9751
0.2234 6.2559 -0.0352 0.9753
0.0000 6.3872 -0.0360 0.9748
6.4069 6.4070 -0.2551 0.9644
0.4492 6.2802 -0.1773 0.9751
0.2231 6.2480 -0.1760 0.9753
6.6280 5.3412 -0.4317 0.9665
6.6032 5.7217 -0.4431 0.9656
0.6887 6.4056 -0.3267 0.9745
6.6536 5.3618 -0.6265 0.9663
6.6032 5.7217 -0.6406 0.9656
0.6875 6.3949 -0.4716 0.9745
0.0000 6.3624 -0.4665 0.9748
-6.6004 0.4721 -0.4852 0.9738
6.6329 5.3451 -0.8178 0.9663
6.1714 5.7458 -0.8095 0.9667
5.9436 5.9436 -0.8070 0.9668
5.7216 6.1454 -0.8061 0.9668
5.2646 6.5330 -0.8055 0.9668
5.0421 6.7354 -0.8077 0.9668
4.5803 7.1271 -0.8134 0.9665
0.0000 6.3541 -0.6100 0.9748
8.5880 4.6894 -1.1623 0.9614
6.4009 5.5465 -1.0061 0.9665
5.9436 5.9436 -0.9985 0.9667
5.7216 6.1454 -0.9974 0.9667
4.5803 7.1271 -1.0064 0.9664
0.6852 6.3735 -0.7614 0.9745
0.4462 6.2392 -0.7430 0.9751
0.2220 6.2161 -0.7389 0.9753
0.0000 6.3458 -0.7538 0.9748
8.5604 4.6743 -1.3820 0.9614
6.6329 5.3451 -1.2070 0.9662
6.4009 5.5465 -1.2001 0.9664
6.1714 5.7458 -1.1947 0.9665
5.9436 5.9436 -1.1910 0.9666
4.8100 6.9277 -1.1950 0.9665
4.5803 7.1271 -1.2004 0.9664
0.6841 6.3627 -0.9067 0.9745
0.4455 6.2289 -0.8848 0.9751
0.2217 6.2082 -0.8802 0.9752
-5.7180 0.4090 -0.8122 0.9771
-5.6800 0.2029 -0.8053 0.9773
8.5433 4.6650 -1.6036 0.9613
6.6329 5.3451 -1.4033 0.9661
6.4009 5.5465 -1.3953 0.9662
6.1101 5.6887 -1.3753 0.9667
5.7216 6.1454 -1.3833 0.9665
5.4908 6.3367 -1.3813 0.9666
5.2646 6.5330 -1.3822 0.9666
5.0421 6.7354 -1.3860 0.9665
0.6829 6.3519 -1.0524 0.9744
0.2214 6.2001 -1.0221 0.9752
-5.8657 0.8434 -0.9763 0.9763
-5.5157 0.5930 -0.9139 0.9778
-5.3988 0.3861 -0.8917 0.9783
-5.3790 0.1921 -0.8867 0.9784
8.5200 4.6523 -1.8246 0.9613
6.0272 6.0272 -1.6021 0.9659
5.7216 6.1454 -1.5782 0.9664
5.0421 6.7354 -1.5814 0.9663
1.4667 6.7422 -1.2969 0.9723
0.6817 6.3411 -1.1987 0.9744
0.4440 6.2083 -1.1699 0.9750
0.2212 6.1921 -1.1646 0.9751
-0.2735 7.6571 -1.4401 0.9693
-0.5478 7.6592 -1.4433 0.9692
-5.0833 0.5465 -0.9610 0.9794
-4.9972 0.3574 -0.9417 0.9798
9.4454 0.6755 -2.0017 0.9620
9.3732 1.3476 -2.0017 0.9620
9.3191 1.6813 -2.0017 0.9620
8.8725 3.3093 -2.0017 0.9620
8.3640 4.1867 -1.9771 0.9625
7.7145 4.2124 -1.8580 0.9647
7.1871 4.9901 -1.8495 0.9649
6.8128 5.4901 -1.8495 0.9649
6.6125 5.7297 -1.8495 0.9649
6.1101 5.6887 -1.7647 0.9664
6.1869 6.1869 -1.8495 0.9649
5.9621 6.4038 -1.8495 0.9649
5.0817 6.7884 -1.7924 0.9659
4.9901 7.1871 -1.8495 0.9649
4.7304 7.3606 -1.8495 0.9649
4.4646 7.5248 -1.8495 0.9649
4.1932 7.6793 -1.8495 0.9649
3.9165 7.8241 -1.8495 0.9649
3.3483 8.0836 -1.8495 0.9649
3.0577 8.1979 -1.8495 0.9649
2.7631 8.3019 -1.8495 0.9649
1.4433 6.6346 -1.4352 0.9726
1.2452 8.6605 -1.8495 0.9649
0.6806 6.3302 -1.3458 0.9743
-0.3123 8.7440 -1.8495 0.9649
-0.6242 8.7273 -1.8495 0.9649
-1.2452 8.6605 -1.8495 0.9649
-1.5535 8.6106 -1.8495 0.9649
-3.0577 8.1979 -1.8495 0.9649
-3.6347 7.9589 -1.8495 0.9649
-3.9165 7.8241 -1.8495 0.9649
-4.7304 7.3606 -1.8495 0.9649
-4.9901 7.1871 -1.8495 0.9649
-5.2434 7.0044 -1.8495 0.9649
-5.4901 6.8128 -1.8495 0.9649
-5.7298 6.6125 -1.8495 0.9649
-5.9621 6.4038 -1.8495 0.9649
-6.1869 6.1869 -1.8495 0.9649
-6.4038 5.9621 -1.8495 0.9649
-6.6125 5.7298 -1.8495 0.9649
-6.8128 5.4901 -1.8495 0.9649
-7.5248 4.4647 -1.8495 0.9649
-8.4396 4.2246 -1.9950 0.9621
-8.6065 3.9305 -2.0000 0.9621
-8.7488 3.6239 -2.0017 0.9620
-8.8726 3.3093 -2.0017 0.9620
-9.1755 2.3419 -2.0017 0.9620
-9.2532 2.0129 -2.0017 0.9620
-9.3192 1.6814 -2.0017 0.9620
-4.9245 0.7080 -1.0516 0.9799
-4.7992 0.5160 -1.0203 0.9805
-4.7434 0.3393 -1.0052 0.9807
8.5115 0.3040 -2.0017 0.9656
8.4681 0.9104 -2.0017 0.9656
8.4302 1.2121 -2.0017 0.9656
8.3816 1.5122 -2.0017 0.9656
8.3223 1.8104 -2.0017 0.9656
8.2524 2.1063 -2.0017 0.9656
8.0811 2.6897 -2.0017 0.9656
7.9799 2.9764 -2.0017 0.9656
7.8686 3.2593 -2.0017 0.9656
7.7473 3.5381 -2.0017 0.9656
7.6114 3.8100 -2.0005 0.9656
7.4542 4.0703 -1.9961 0.9657
7.0815 4.2017 -1.9352 0.9667
6.4640 4.4881 -1.8495 0.9682
6.1274 4.9378 -1.8495 0.9682
5.9473 5.1533 -1.8495 0.9682
5.7595 5.3623 -1.8495 0.9682
5.1533 5.9473 -1.8495 0.9682
4.4881 6.4641 -1.8495 0.9682
3.5225 7.0370 -1.8495 0.9682
3.2691 7.1583 -1.8495 0.9682
3.0115 7.2704 -1.8495 0.9682
2.4851 7.4667 -1.8495 0.9682
2.2171 7.5506 -1.8495 0.9682
1.1791 5.4205 -1.3037 0.9775
0.9794 5.4286 -1.2964 0.9776
0.4425 6.1875 -1.4579 0.9748
0.2206 6.1758 -1.4524 0.9749
0.0000 6.3038 -1.4815 0.9744
-0.2556 7.1561 -1.6829 0.9710
-0.5270 7.3687 -1.7362 0.9701
-0.7739 7.1986 -1.7016 0.9707
-0.7810 5.4321 -1.2898 0.9777
-1.6728 7.6896 -1.8495 0.9682
-1.9461 7.6250 -1.8495 0.9682
-2.2171 7.5506 -1.8495 0.9682
-2.4852 7.4667 -1.8495 0.9682
-2.7501 7.3733 -1.8495 0.9682
-3.7714 6.9068 -1.8495 0.9682
-4.0155 6.7678 -1.8495 0.9682
-4.4881 6.4641 -1.8495 0.9682
-4.7160 6.2998 -1.8495 0.9682
-5.5645 5.5645 -1.8495 0.9682
-5.9473 5.1534 -1.8495 0.9682
-6.2998 4.7160 -1.8495 0.9682
-6.4641 4.4881 -1.8495 0.9682
-7.6161 3.8124 -2.0017 0.9656
-7.7473 3.5381 -2.0017 0.9656
-8.0811 2.6897 -2.0017 0.9656
-8.1720 2.3995 -2.0017 0.9656
-8.3223 1.8104 -2.0017 0.9656
-4.8967 0.8835 -1.1694 0.9798
-4.5877 0.4932 -1.0844 0.9812
7.7309 0.0000 -2.0017 0.9686
7.2435 2.7017 -2.0017 0.9686
7.0323 3.2116 -2.0017 0.9686
6.9132 3.4605 -2.0017 0.9686
6.4805 4.1648 -1.9946 0.9687
6.0659 4.2117 -1.9120 0.9699
5.3984 4.6778 -1.8495 0.9709
5.2280 4.8675 -1.8495 0.9709
4.4821 5.5619 -1.8495 0.9709
4.2807 5.7184 -1.8495 0.9709
3.8619 6.0092 -1.8495 0.9709
3.6449 6.1432 -1.8495 0.9709
3.4233 6.2694 -1.8495 0.9709
2.7336 6.5994 -1.8495 0.9709
2.0125 6.8538 -1.8495 0.9709
1.1803 5.4258 -1.4377 0.9773
0.5857 5.4482 -1.4188 0.9776
0.1947 5.4512 -1.4123 0.9777
-0.1948 5.4542 -1.4131 0.9777
-0.3902 5.4558 -1.4162 0.9777
-1.7666 6.9213 -1.8495 0.9709
-2.7336 6.5994 -1.8495 0.9709
-3.1974 6.3876 -1.8495 0.9709
-3.4233 6.2694 -1.8495 0.9709
-3.8619 6.0092 -1.8495 0.9709
-4.0739 5.8675 -1.8495 0.9709
-4.4821 5.5620 -1.8495 0.9709
-4.6778 5.3984 -1.8495 0.9709
-5.0510 5.0510 -1.8495 0.9709
-5.2280 4.8675 -1.8495 0.9709
-5.3984 4.6778 -1.8495 0.9709
-6.1571 4.2749 -1.9408 0.9695
-7.0323 3.2116 -2.0017 0.9686
-7.2435 2.7017 -2.0017 0.9686
-7.4908 1.9119 -2.0017 0.9686
-7.5543 1.6433 -2.0017 0.9686
-4.5788 0.6583 -1.1977 0.9811
-4.4397 0.3175 -1.1524 0.9818
-4.4320 0.1583 -1.1483 0.9818
6.9584 1.2554 -2.0017 0.9710
6.9092 1.5030 -2.0017 0.9710
6.8511 1.7486 -2.0017 0.9710
6.7843 1.9921 -2.0017 0.9710
6.6249 2.4710 -2.0017 0.9710
6.5325 2.7059 -2.0017 0.9710
6.4318 2.9373 -2.0017 0.9710
6.3229 3.1650 -2.0017 0.9710
5.7945 4.0232 -1.9970 0.9711
4.7816 4.4518 -1.8495 0.9732
4.6196 4.6196 -1.8495 0.9732
4.2783 4.9374 -1.8495 0.9732
3.7260 5.3664 -1.8495 0.9732
3.5321 5.4960 -1.8495 0.9732
2.7140 5.9427 -1.8495 0.9732
2.5001 6.0358 -1.8495 0.9732
2.0632 6.1988 -1.8495 0.9732
1.8406 6.2685 -1.8495 0.9732
0.7831 5.4466 -1.5578 0.9774
0.5857 5.4482 -1.5512 0.9775
-0.0000 5.4527 -1.5436 0.9776
-0.1948 5.4542 -1.5450 0.9776
-0.3902 5.4558 -1.5484 0.9775
-1.1600 6.4293 -1.8495 0.9732
-1.3887 6.3838 -1.8495 0.9732
-1.6157 6.3302 -1.8495 0.9732
-1.8406 6.2685 -1.8495 0.9732
-2.0632 6.1988 -1.8495 0.9732
-2.7140 5.9428 -1.8495 0.9732
-3.5321 5.4960 -1.8495 0.9732
-4.0993 5.0870 -1.8495 0.9732
-4.4518 4.7816 -1.8495 0.9732
-4.9478 4.2873 -1.8534 0.9732
-5.6408 4.2226 -1.9947 0.9711
-5.7977 4.0254 -1.9981 0.9711
-6.0810 3.6080 -2.0017 0.9710
-6.2059 3.3887 -2.0017 0.9710
-6.4318 2.9373 -2.0017 0.9710
-6.5325 2.7059 -2.0017 0.9710
-6.6250 2.4710 -2.0017 0.9710
-4.6666 0.8420 -1.3424 0.9805
-4.4903 0.6456 -1.2842 0.9813
-4.3850 0.4714 -1.2485 0.9818
-4.3415 0.1551 -1.2298 0.9821
6.4913 0.4643 -2.0017 0.9731
6.4706 0.6957 -2.0017 0.9731
6.4416 0.9262 -2.0017 0.9731
6.4045 1.1555 -2.0017 0.9731
6.3591 1.3834 -2.0017 0.9731
6.3057 1.6095 -2.0017 0.9731
6.2442 1.8335 -2.0017 0.9731
6.1748 2.0552 -2.0017 0.9731
6.0975 2.2743 -2.0017 0.9731
6.0125 2.4904 -2.0017 0.9731
5.9198 2.7035 -2.0017 0.9731
5.8195 2.9130 -2.0017 0.9731
5.7118 3.1189 -2.0017 0.9731
5.4748 3.5184 -2.0017 0.9731
4.8547 4.2067 -1.9758 0.9735
4.5342 4.2215 -1.9055 0.9744
3.9377 4.5444 -1.8495 0.9751
3.4294 4.9392 -1.8495 0.9751
3.2509 5.0585 -1.8495 0.9751
3.0683 5.1713 -1.8495 0.9751
2.8817 5.2775 -1.8495 0.9751
2.6915 5.3770 -1.8495 0.9751
2.4979 5.4697 -1.8495 0.9751
2.3011 5.5553 -1.8495 0.9751
2.1013 5.6339 -1.8495 0.9751
1.6941 5.7695 -1.8495 0.9751
1.3701 5.3681 -1.7040 0.9771
0.9823 5.4443 -1.7016 0.9771
0.7831 5.4466 -1.6925 0.9772
0.5857 5.4482 -1.6854 0.9773
0.1947 5.4512 -1.6777 0.9774
-0.3902 5.4558 -1.6824 0.9774
-0.5867 5.4573 -1.6882 0.9773
-1.6941 5.7695 -1.8495 0.9751
-2.3011 5.5554 -1.8495 0.9751
-2.6915 5.3770 -1.8495 0.9751
-3.2509 5.0585 -1.8495 0.9751
-3.4294 4.9393 -1.8495 0.9751
-3.6035 4.8137 -1.8495 0.9751
-3.9377 4.5444 -1.8495 0.9751
-5.0559 4.0743 -1.9972 0.9732
-5.2060 3.8972 -2.0002 0.9732
-5.4748 3.5184 -2.0017 0.9731
-5.7118 3.1189 -2.0017 0.9731
-6.0125 2.4904 -2.0017 0.9731
-6.0976 2.2743 -2.0017 0.9731
-6.1748 2.0552 -2.0017 0.9731
-4.6198 0.8335 -1.4439 0.9805
-4.4220 0.6358 -1.3741 0.9815
-4.3289 0.3096 -1.3349 0.9820
-4.3249 0.1545 -1.3311 0.9821
6.0179 0.2149 -2.0017 0.9749
6.0064 0.4296 -2.0017 0.9749
5.7136 1.9017 -2.0017 0.9749
5.5634 2.3044 -2.0017 0.9749
5.3849 2.6955 -2.0017 0.9749
5.0658 3.2556 -2.0017 0.9749
4.9464 3.4344 -2.0017 0.9749
4.6879 3.7778 -2.0013 0.9749
4.5439 3.9374 -1.9986 0.9750
4.3948 4.0917 -1.9960 0.9750
3.9314 4.2226 -1.9178 0.9760
3.3343 4.4542 -1.8495 0.9768
3.0081 4.6807 -1.8495 0.9768
2.6665 4.8833 -1.8495 0.9768
2.4905 4.9754 -1.8495 0.9768
2.3113 5.0612 -1.8495 0.9768
2.1292 5.1404 -1.8495 0.9768
1.9444 5.2131 -1.8495 0.9768
1.3664 5.3533 -1.8365 0.9770
1.1649 5.3549 -1.8216 0.9772
0.9664 5.3564 -1.8092 0.9773
-0.0000 5.3639 -1.7830 0.9776
-0.1916 5.3654 -1.7846 0.9776
-0.5772 5.3684 -1.7948 0.9775
-1.7571 5.2792 -1.8495 0.9768
-1.9444 5.2132 -1.8495 0.9768
-2.1292 5.1404 -1.8495 0.9768
-2.3113 5.0611 -1.8495 0.9768
-2.4905 4.9754 -1.8495 0.9768
-2.6665 4.8833 -1.8495 0.9768
-3.0081 4.6807 -1.8495 0.9768
-3.3343 4.4542 -1.8495 0.9768
-3.4912 4.3323 -1.8495 0.9768
-3.7022 4.2726 -1.8792 0.9765
-3.9694 4.2635 -1.9363 0.9757
-4.3966 4.0934 -1.9968 0.9750
-4.6888 3.7785 -2.0017 0.9749
-4.8207 3.6087 -2.0017 0.9749
-4.9465 3.4344 -2.0017 0.9749
-5.0659 3.2557 -2.0017 0.9749
-5.2852 2.8859 -2.0017 0.9749
-5.4776 2.5016 -2.0017 0.9749
-5.6421 2.1044 -2.0017 0.9749
-5.7779 1.6966 -2.0017 0.9749
-5.8348 1.4892 -2.0017 0.9749
-5.8842 1.2800 -2.0017 0.9749
-4.4233 0.6360 -1.4854 0.9813
-4.3627 0.4691 -1.4586 0.9817
5.5974 0.0000 -2.0017 0.9765
5.5938 0.1998 -2.0017 0.9765
5.5832 0.3993 -2.0017 0.9765
5.5653 0.5983 -2.0017 0.9765
5.5404 0.7966 -2.0017 0.9765
5.5085 0.9939 -2.0017 0.9765
5.2445 1.9561 -2.0017 0.9765
5.1713 2.1420 -2.0017 0.9765
4.8139 2.8562 -2.0017 0.9765
4.7088 3.0262 -2.0017 0.9765
4.4810 3.3544 -2.0017 0.9765
4.2302 3.6655 -2.0017 0.9765
4.0948 3.8124 -2.0008 0.9765
3.4020 4.2216 -1.9389 0.9772
3.1680 4.2319 -1.8904 0.9778
2.7961 4.3508 -1.8495 0.9783
2.4786 4.5392 -1.8495 0.9783
2.3150 4.6248 -1.8495 0.9783
2.1484 4.7045 -1.8495 0.9783
1.9792 4.7782 -1.8495 0.9783
1.8074 4.8458 -1.8495 0.9783
1.6333 4.9072 -1.8495 0.9783
1.2790 5.0112 -1.8495 0.9783
1.0994 5.0536 -1.8495 0.9783
0.9183 5.0897 -1.8495 0.9783
0.5529 5.1422 -1.8495 0.9783
0.3690 5.1587 -1.8495 0.9783
0.0000 5.1718 -1.8495 0.9783
-0.1846 5.1686 -1.8495 0.9783
-0.3690 5.1586 -1.8495 0.9783
-0.5528 5.1422 -1.8495 0.9783
-0.7360 5.1192 -1.8495 0.9783
-0.9183 5.0897 -1.8495 0.9783
-1.0994 5.0536 -1.8495 0.9783
-1.2790 5.0112 -1.8495 0.9783
-1.4571 4.9623 -1.8495 0.9783
-1.6333 4.9072 -1.8495 0.9783
-1.9792 4.7782 -1.8495 0.9783
-2.1485 4.7045 -1.8495 0.9783
-2.3150 4.6248 -1.8495 0.9783
-2.4786 4.5392 -1.8495 0.9783
-2.9661 4.2720 -1.8598 0.9781
-3.1926 4.2649 -1.9052 0.9776
-3.4305 4.2570 -1.9551 0.9770
-3.6527 4.2154 -1.9947 0.9766
-3.9530 3.9530 -1.9991 0.9765
-4.0964 3.8139 -2.0015 0.9765
-4.4810 3.3544 -2.0017 0.9765
-4.5979 3.1923 -2.0017 0.9765
-4.8139 2.8562 -2.0017 0.9765
-5.0054 2.5055 -2.0017 0.9765
-5.0916 2.3253 -2.0017 0.9765
-5.1714 2.1421 -2.0017 0.9765
-5.3707 1.5770 -2.0017 0.9765
-5.4695 1.1898 -2.0017 0.9765
-4.3121 0.1540 -1.5430 0.9818
5.2233 0.0000 -2.0017 0.9779
5.2200 0.1864 -2.0017 0.9779
5.2100 0.3726 -2.0017 0.9779
5.1702 0.7434 -2.0017 0.9779
5.1403 0.9274 -2.0017 0.9779
5.0611 1.2918 -2.0017 0.9779
5.0117 1.4716 -2.0017 0.9779
4.9560 1.6495 -2.0017 0.9779
4.6708 2.3381 -2.0017 0.9779
4.5844 2.5033 -2.0017 0.9779
4.4921 2.6653 -2.0017 0.9779
3.8229 3.5593 -2.0017 0.9779
3.5575 3.8210 -2.0007 0.9779
3.4154 3.9415 -1.9986 0.9779
2.9292 4.2189 -1.9682 0.9782
2.7171 4.2279 -1.9259 0.9787
2.5134 4.2361 -1.8876 0.9791
2.3186 4.2460 -1.8539 0.9795
2.1603 4.3157 -1.8495 0.9795
1.6866 4.5219 -1.8495 0.9795
0.8569 4.7495 -1.8495 0.9795
0.6868 4.7771 -1.8495 0.9795
0.3443 4.8139 -1.8495 0.9795
-0.1723 4.8231 -1.8495 0.9795
-0.6868 4.7771 -1.8495 0.9795
-0.8569 4.7495 -1.8495 0.9795
-1.3597 4.6307 -1.8495 0.9795
-1.6866 4.5219 -1.8495 0.9795
-1.8469 4.4588 -1.8495 0.9795
-2.1603 4.3157 -1.8495 0.9795
-2.3304 4.2678 -1.8634 0.9794
-2.5289 4.2623 -1.8992 0.9790
-2.9503 4.2492 -1.9824 0.9781
-3.1204 4.1684 -1.9954 0.9779
-4.3942 2.8240 -2.0017 0.9779
-4.6708 2.3381 -2.0017 0.9779
-4.8258 1.9989 -2.0017 0.9779
-4.9561 1.6496 -2.0017 0.9779
-5.0118 1.4716 -2.0017 0.9779
-4.9682 0.8964 -1.9346 0.9786
-4.4608 0.6414 -1.7270 0.9809
-4.3939 0.4724 -1.6935 0.9812
-4.3525 0.3113 -1.6722 0.9815
-4.3211 0.1543 -1.6570 0.9816
4.8877 0.1746 -2.0017 0.9791
4.8783 0.3489 -2.0017 0.9791
4.8410 0.6961 -2.0017 0.9791
4.8131 0.8684 -2.0017 0.9791
4.7790 1.0396 -2.0017 0.9791
4.7389 1.2095 -2.0017 0.9791
4.6927 1.3779 -2.0017 0.9791
4.5824 1.7092 -2.0017 0.9791
4.5185 1.8716 -2.0017 0.9791
4.1144 2.6442 -2.0017 0.9791
3.8082 3.0688 -2.0017 0.9791
3.5795 3.3327 -2.0017 0.9791
3.4583 3.4583 -2.0017 0.9791
3.3327 3.5796 -2.0017 0.9791
3.2028 3.6962 -2.0017 0.9791
3.0677 3.8068 -2.0010 0.9791
2.9273 3.9104 -1.9992 0.9791
2.7836 4.0091 -1.9975 0.9791
2.6366 4.1027 -1.9960 0.9791
2.4867 4.1911 -1.9945 0.9792
2.1171 4.2294 -1.9358 0.9798
1.9345 4.2360 -1.9059 0.9801
1.5846 4.2483 -1.8557 0.9806
1.4271 4.2877 -1.8495 0.9807
1.1176 4.3786 -1.8495 0.9807
0.9606 4.4156 -1.8495 0.9807
0.4830 4.4931 -1.8495 0.9807
0.1613 4.5161 -1.8495 0.9807
-0.1613 4.5161 -1.8495 0.9807
-0.4831 4.4930 -1.8495 0.9807
-0.6431 4.4729 -1.8495 0.9807
-1.1176 4.3786 -1.8495 0.9807
-1.2731 4.3359 -1.8495 0.9807
-1.4271 4.2877 -1.8495 0.9807
-1.5903 4.2638 -1.8625 0.9805
-1.7646 4.2602 -1.8872 0.9803
-2.1281 4.2514 -1.9458 0.9797
-2.4872 4.1920 -1.9950 0.9792
-2.6373 4.1037 -1.9965 0.9791
-2.7843 4.0101 -1.9981 0.9791
-2.9281 3.9115 -1.9997 0.9791
-3.2028 3.6962 -2.0017 0.9791
-3.5796 3.3327 -2.0017 0.9791
-3.8082 3.0688 -2.0017 0.9791
-4.0174 2.7893 -2.0017 0.9791
-4.2926 2.3439 -2.0017 0.9791
-4.4488 2.0317 -2.0017 0.9791
-4.5185 1.8716 -2.0017 0.9791
-4.6405 1.5445 -2.0017 0.9791
-4.6927 1.3779 -2.0017 0.9791
-4.7389 1.2095 -2.0017 0.9791
4.5900 0.1639 -2.0017 0.9802
4.5666 0.4910 -2.0017 0.9802
4.5200 0.8155 -2.0017 0.9802
4.3034 1.6051 -2.0017 0.9802
4.2433 1.7576 -2.0017 0.9802
4.1071 2.0559 -2.0017 0.9802
4.0311 2.2012 -2.0017 0.9802
3.9500 2.3437 -2.0017 0.9802
3.8638 2.4831 -2.0017 0.9802
3.7727 2.6195 -2.0017 0.9802
3.3616 3.1297 -2.0017 0.9802
3.2477 3.2477 -2.0017 0.9802
3.1297 3.3616 -2.0017 0.9802
2.8819 3.5763 -2.0017 0.9802
2.6193 3.7725 -2.0016 0.9802
2.4812 3.8608 -2.0001 0.9802
2.3401 3.9441 -1.9987 0.9802
2.1964 4.0225 -1.9974 0.9802
2.0502 4.0958 -1.9961 0.9802
1.9016 4.1640 -1.9950 0.9802
1.7485 4.2212 -1.9913 0.9803
1.5765 4.2268 -1.9661 0.9805
1.4085 4.2319 -1.9438 0.9807
1.2439 4.2364 -1.9243 0.9809
0.6110 4.2498 -1.8712 0.9814
0.4572 4.2521 -1.8638 0.9815
0.3042 4.2539 -1.8586 0.9816
0.0000 4.2575 -1.8555 0.9816
-0.4577 4.2568 -1.8659 0.9815
-0.9253 4.2536 -1.8972 0.9812
-2.0506 4.0966 -1.9965 0.9802
-2.1969 4.0233 -1.9978 0.9802
-2.3406 3.9450 -1.9991 0.9802
-2.4817 3.8617 -2.0006 0.9802
-2.6195 3.7728 -2.0017 0.9802
-2.8819 3.5762 -2.0017 0.9802
-3.0077 3.4711 -2.0017 0.9802
-3.1297 3.3616 -2.0017 0.9802
-3.3616 3.1297 -2.0017 0.9802
-3.5763 2.8819 -2.0017 0.9802
-3.7727 2.6195 -2.0017 0.9802
-3.9500 2.3437 -2.0017 0.9802
-4.1071 2.0559 -2.0017 0.9802
-1.5875 0.5284 -0.7292 0.9927
-1.5485 0.3952 -0.6965 0.9931
-1.5001 0.2707 -0.6643 0.9934
-1.5151 0.2178 -0.6671 0.9933
-1.5249 0.1640 -0.6684 0.9933
4.3243 0.0000 -2.0017 0.9811
4.3216 0.1544 -2.0017 0.9811
4.2996 0.4623 -2.0017 0.9811
4.2255 0.9192 -2.0017 0.9811
4.1900 1.0695 -2.0017 0.9811
4.1492 1.2183 -2.0017 0.9811
4.1030 1.3656 -2.0017 0.9811
4.0517 1.5112 -2.0017 0.9811
3.9952 1.6549 -2.0017 0.9811
3.9336 1.7964 -2.0017 0.9811
3.5521 2.4663 -2.0017 0.9811
3.4618 2.5915 -2.0017 0.9811
3.2681 2.8319 -2.0017 0.9811
3.0578 3.0578 -2.0017 0.9811
2.9467 3.1650 -2.0017 0.9811
2.3379 3.6379 -2.0017 0.9811
2.2066 3.7190 -2.0017 0.9811
1.9341 3.8639 -2.0001 0.9811
1.6518 3.9879 -1.9980 0.9812
1.5078 4.0425 -1.9971 0.9812
1.3619 4.0920 -1.9963 0.9812
0.9158 4.2100 -1.9943 0.9812
0.7627 4.2273 -1.9883 0.9812
0.0000 4.2366 -1.9611 0.9815
-0.1513 4.2372 -1.9626 0.9815
-0.3031 4.2373 -1.9664 0.9814
-0.7641 4.2352 -1.9920 0.9812
-0.9159 4.2104 -1.9945 0.9812
-1.0659 4.1762 -1.9951 0.9812
-1.2147 4.1369 -1.9958 0.9812
-1.3621 4.0925 -1.9965 0.9812
-1.5080 4.0430 -1.9974 0.9812
-1.6521 3.9885 -1.9983 0.9812
-2.2066 3.7190 -2.0017 0.9811
-2.4663 3.5521 -2.0017 0.9811
-2.5915 3.4618 -2.0017 0.9811
-2.7134 3.3671 -2.0017 0.9811
-3.0578 3.0578 -2.0017 0.9811
-3.1650 2.9467 -2.0017 0.9811
-3.4618 2.5915 -2.0017 0.9811
-3.5521 2.4663 -2.0017 0.9811
-3.6379 2.3379 -2.0017 0.9811
-3.7190 2.2066 -2.0017 0.9811
-3.8670 1.9357 -2.0017 0.9811
-1.3263 0.5494 -0.6645 0.9937
-1.3324 0.4970 -0.6582 0.9938
-1.3241 0.3888 -0.6388 0.9939
-1.3116 0.3348 -0.6266 0.9941
-1.3160 0.2374 -0.6190 0.9941
-1.3351 0.1435 -0.6215 0.9941
-1.3376 0.0478 -0.6195 0.9941
4.0703 0.2911 -2.0017 0.9820
4.0573 0.4362 -2.0017 0.9820
4.0159 0.7246 -2.0017 0.9820
3.9874 0.8674 -2.0017 0.9820
3.9154 1.1497 -2.0017 0.9820
3.8719 1.2887 -2.0017 0.9820
3.8234 1.4261 -2.0017 0.9820
3.7701 1.5616 -2.0017 0.9820
3.6491 1.8266 -2.0017 0.9820
3.5095 2.0823 -2.0017 0.9820
3.4329 2.2062 -2.0017 0.9820
3.2668 2.4455 -2.0017 0.9820
3.1774 2.5605 -2.0017 0.9820
3.0840 2.6723 -2.0017 0.9820
2.9866 2.7807 -2.0017 0.9820
2.8855 2.8855 -2.0017 0.9820
2.6723 3.0840 -2.0017 0.9820
2.3273 3.3520 -2.0017 0.9820
2.2062 3.4329 -2.0017 0.9820
2.0823 3.5095 -2.0017 0.9820
1.9557 3.5816 -2.0017 0.9820
1.6952 3.7119 -2.0017 0.9820
1.4255 3.8218 -2.0009 0.9820
1.0077 3.9482 -1.9988 0.9820
0.8659 3.9805 -1.9982 0.9820
0.7231 4.0080 -1.9978 0.9820
-0.4352 4.0482 -1.9972 0.9820
-0.5795 4.0308 -1.9975 0.9820
-0.7232 4.0083 -1.9979 0.9820
-0.8660 3.9809 -1.9984 0.9820
-1.0078 3.9485 -1.9989 0.9820
-1.5616 3.7701 -2.0017 0.9820
-1.9557 3.5816 -2.0017 0.9820
-2.0823 3.5095 -2.0017 0.9820
-2.2062 3.4329 -2.0017 0.9820
-2.3273 3.3520 -2.0017 0.9820
-2.4455 3.2668 -2.0017 0.9820
-2.5605 3.1774 -2.0017 0.9820
-2.7807 2.9867 -2.0017 0.9820
-2.8855 2.8855 -2.0017 0.9820
-2.9867 2.7807 -2.0017 0.9820
-3.0840 2.6723 -2.0017 0.9820
-3.1774 2.5605 -2.0017 0.9820
-3.2668 2.4455 -2.0017 0.9820
-3.5095 2.0823 -2.0017 0.9820
-1.1292 0.5652 -0.6194 0.9944
-1.1543 0.4306 -0.6043 0.9945
-1.1590 0.3403 -0.5925 0.9946
-1.1578 0.2955 -0.5861 0.9947
-1.1867 0.1706 -0.5881 0.9947
-1.1921 0.1282 -0.5881 0.9947
3.8584 0.0000 -2.0017 0.9828
3.8560 0.1377 -2.0017 0.9828
3.8192 0.5491 -2.0017 0.9828
3.7971 0.6851 -2.0017 0.9828
3.7386 0.9542 -2.0017 0.9828
3.6610 1.2185 -2.0017 0.9828
3.3183 1.9689 -2.0017 0.9828
3.1694 2.2006 -2.0017 0.9828
3.0043 2.4211 -2.0017 0.9828
2.8240 2.6292 -2.0017 0.9828
2.7283 2.7283 -2.0017 0.9828
2.5267 2.9160 -2.0017 0.9828
2.3123 3.0888 -2.0017 0.9828
2.2006 3.1694 -2.0017 0.9828
2.0860 3.2459 -2.0017 0.9828
1.8492 3.3865 -2.0017 0.9828
1.7271 3.4503 -2.0017 0.9828
1.4766 3.5647 -2.0017 0.9828
1.2185 3.6610 -2.0017 0.9828
1.0871 3.7022 -2.0017 0.9828
0.5489 3.8179 -2.0010 0.9828
-0.1376 3.8536 -2.0005 0.9828
-0.4123 3.8347 -2.0008 0.9828
-0.5490 3.8181 -2.0011 0.9828
-0.8202 3.7703 -2.0017 0.9828
-1.4766 3.5647 -2.0017 0.9828
-1.6029 3.5098 -2.0017 0.9828
-1.8492 3.3865 -2.0017 0.9828
-1.9688 3.3183 -2.0017 0.9828
-2.3123 3.0889 -2.0017 0.9828
-2.4211 3.0044 -2.0017 0.9828
-2.5268 2.9160 -2.0017 0.9828
-2.6292 2.8240 -2.0017 0.9828
-2.8240 2.6292 -2.0017 0.9828
-2.9160 2.5267 -2.0017 0.9828
-3.0043 2.4211 -2.0017 0.9828
-3.0888 2.3123 -2.0017 0.9828
-3.1694 2.2006 -2.0017 0.9828
-3.2459 2.0860 -2.0017 0.9828
-1.0118 0.5525 -0.5981 0.9948
-1.0576 0.3945 -0.5856 0.9949
-1.0636 0.3123 -0.5751 0.9950
-1.0905 0.1968 -0.5749 0.9950
-1.0974 0.1578 -0.5752 0.9950
-1.1024 0.1185 -0.5752 0.9950
-1.1055 0.0791 -0.5750 0.9950
-1.1066 0.0395 -0.5744 0.9950
3.6523 0.1304 -2.0017 0.9835
3.6337 0.3907 -2.0017 0.9835
3.6175 0.5201 -2.0017 0.9835
3.5966 0.6489 -2.0017 0.9835
3.5712 0.7769 -2.0017 0.9835
3.5411 0.9038 -2.0017 0.9835
3.5066 1.0296 -2.0017 0.9835
3.3765 1.3986 -2.0017 0.9835
3.3244 1.5182 -2.0017 0.9835
3.2681 1.6359 -2.0017 0.9835
3.0745 1.9759 -2.0017 0.9835
2.9257 2.1902 -2.0017 0.9835
2.7620 2.3933 -2.0017 0.9835
2.5842 2.5843 -2.0017 0.9835
2.1902 2.9257 -2.0017 0.9835
2.0843 3.0020 -2.0017 0.9835
1.8649 3.1431 -2.0017 0.9835
1.2772 3.4242 -2.0017 0.9835
0.5201 3.6175 -2.0017 0.9835
0.2607 3.6454 -2.0017 0.9835
0.1304 3.6524 -2.0017 0.9835
-0.1304 3.6524 -2.0017 0.9835
-0.2607 3.6454 -2.0017 0.9835
-0.6489 3.5966 -2.0017 0.9835
-0.7769 3.5712 -2.0017 0.9835
-0.9038 3.5412 -2.0017 0.9835
-1.1542 3.4676 -2.0017 0.9835
-1.2772 3.4243 -2.0017 0.9835
-1.3986 3.3765 -2.0017 0.9835
-1.5182 3.3244 -2.0017 0.9835
-1.7515 3.2076 -2.0017 0.9835
-1.8649 3.1431 -2.0017 0.9835
-1.9759 3.0745 -2.0017 0.9835
-2.0844 3.0021 -2.0017 0.9835
-2.3933 2.7620 -2.0017 0.9835
-2.4904 2.6749 -2.0017 0.9835
-2.5842 2.5843 -2.0017 0.9835
-2.7620 2.3933 -2.0017 0.9835
-2.8457 2.2932 -2.0017 0.9835
-2.9257 2.1902 -2.0017 0.9835
-0.8661 0.6013 -0.5775 0.9952
-0.9084 0.5390 -0.5785 0.9952
-0.9269 0.5061 -0.5784 0.9952
-0.9677 0.4008 -0.5737 0.9952
-0.9938 0.2537 -0.5618 0.9953
-1.0190 0.1465 -0.5638 0.9953
-1.0236 0.1101 -0.5639 0.9953
-1.0265 0.0734 -0.5637 0.9953
2.0366 0.2190 -1.1826 0.9906
2.0153 0.3636 -1.1823 0.9906
1.8682 0.6968 -1.1512 0.9908
1.8620 0.7713 -1.1636 0.9907
3.1003 1.5519 -2.0017 0.9841
3.0429 1.6616 -2.0017 0.9841
2.8479 1.9773 -2.0017 0.9841
2.7755 2.0777 -2.0017 0.9841
2.6996 2.1754 -2.0017 0.9841
2.6202 2.2704 -2.0017 0.9841
2.4515 2.4515 -2.0017 0.9841
2.3625 2.5375 -2.0017 0.9841
2.2704 2.6202 -2.0017 0.9841
2.0777 2.7755 -2.0017 0.9841
1.9773 2.8479 -2.0017 0.9841
1.8744 2.9166 -2.0017 0.9841
1.7691 2.9817 -2.0017 0.9841
1.4402 3.1537 -2.0017 0.9841
1.3268 3.2031 -2.0017 0.9841
0.9768 3.3266 -2.0017 0.9841
0.8574 3.3593 -2.0017 0.9841
0.6156 3.4119 -2.0017 0.9841
0.3706 3.4471 -2.0017 0.9841
0.2473 3.4582 -2.0017 0.9841
0.1237 3.4648 -2.0017 0.9841
0.0000 3.4670 -2.0017 0.9841
-0.6156 3.4119 -2.0017 0.9841
-0.8574 3.3593 -2.0017 0.9841
-0.9768 3.3266 -2.0017 0.9841
-1.0949 3.2896 -2.0017 0.9841
-1.3268 3.2031 -2.0017 0.9841
-1.6616 3.0429 -2.0017 0.9841
-1.7691 2.9817 -2.0017 0.9841
-1.9773 2.8479 -2.0017 0.9841
-2.0777 2.7755 -2.0017 0.9841
-2.1754 2.6996 -2.0017 0.9841
-2.4515 2.4516 -2.0017 0.9841
-0.7671 0.6182 -0.5688 0.9955
-0.7846 0.5873 -0.5658 0.9955
-0.8008 0.5560 -0.5628 0.9955
-0.8178 0.5256 -0.5613 0.9955
-0.8534 0.4660 -0.5614 0.9955
-0.8687 0.4349 -0.5609 0.9955
-0.9058 0.3015 -0.5511 0.9956
-0.9151 0.2687 -0.5506 0.9956
-0.9259 0.2363 -0.5517 0.9956
-0.9353 0.2035 -0.5526 0.9956
-0.9538 0.1025 -0.5538 0.9956
-0.9565 0.0684 -0.5536 0.9956
-0.9575 0.0342 -0.5532 0.9956
