ply
format ascii 1.0
element vertex 725
property float32 x
property float32 y
property float32 z
property float32 I
end_header
-7.1949 0.0000 -0.8547 0.9714
-7.1959 -0.2570 -0.8553 0.9714
-7.2889 -0.5213 -0.8680 0.9710
-6.5983 0.0000 -0.9349 0.9737
-6.6467 -0.4754 -0.9442 0.9734
-6.2915 -0.0000 -1.0365 0.9748
-6.2867 -0.2245 -1.0363 0.9748
-6.3148 -0.4516 -1.0429 0.9747
-6.4652 -0.6951 -1.0712 0.9740
-6.1086 -0.2182 -1.1489 0.9754
-6.2929 -0.6766 -1.1896 0.9746
-6.6105 -0.9504 -1.2553 0.9732
-6.0679 -0.2167 -1.2835 0.9755
-6.1880 -0.6653 -1.3156 0.9749
-6.4794 -0.9316 -1.3837 0.9736
-9.2612 -1.6709 -1.9892 0.9623
-9.1192 -2.3275 -1.9894 0.9623
-8.9311 -2.9725 -1.9897 0.9622
-8.8199 -3.2897 -1.9898 0.9622
-8.4199 -4.2147 -1.9903 0.9622
-8.2650 -4.5130 -1.9905 0.9622
-8.0995 -4.8057 -1.9908 0.9622
-7.7379 -5.3725 -1.9912 0.9622
-7.3368 -5.9124 -1.9917 0.9622
-6.6657 -6.6657 -1.9926 0.9622
-6.4245 -6.9004 -1.9929 0.9622
-5.9178 -7.3436 -1.9936 0.9622
-4.5240 -8.2852 -1.9954 0.9621
-4.2263 -8.4430 -1.9958 0.9621
-3.9230 -8.5902 -1.9962 0.9621
-2.9841 -8.9658 -1.9974 0.9621
-2.6627 -9.0684 -1.9978 0.9621
-2.0099 -9.2392 -1.9987 0.9621
-1.6792 -9.3071 -1.9991 0.9621
-1.3462 -9.3631 -1.9995 0.9621
-0.3378 -9.4596 -2.0008 0.9620
0.0000 -9.4677 -2.0013 0.9620
1.6829 -9.3274 -2.0035 0.9620
2.3450 -9.1875 -2.0043 0.9620
2.6720 -9.0999 -2.0047 0.9620
2.9957 -9.0006 -2.0052 0.9620
4.2496 -8.4895 -2.0068 0.9619
4.5508 -8.3341 -2.0072 0.9619
4.8462 -8.1679 -2.0076 0.9619
5.1357 -7.9912 -2.0079 0.9619
5.4186 -7.8042 -2.0083 0.9619
6.2250 -7.1840 -2.0093 0.9619
6.9606 -6.4805 -2.0103 0.9619
7.1885 -6.2289 -2.0106 0.9619
7.8163 -5.4269 -2.0114 0.9618
8.0060 -5.1451 -2.0116 0.9618
8.1855 -4.8567 -2.0119 0.9618
8.6604 -3.9550 -2.0125 0.9618
8.7968 -3.6437 -2.0127 0.9618
8.9220 -3.3277 -2.0128 0.9618
9.0357 -3.0074 -2.0130 0.9618
9.2283 -2.3554 -2.0132 0.9618
9.3070 -2.0246 -2.0133 0.9618
9.5199 -0.3400 -2.0136 0.9618
-6.0439 0.0000 -1.4205 0.9755
-6.0689 -0.2168 -1.4272 0.9754
-6.0911 -0.4356 -1.4352 0.9752
-6.4034 -0.9207 -1.5204 0.9738
-8.2759 -1.8003 -1.9905 0.9658
-8.2067 -2.0946 -1.9906 0.9658
-8.1272 -2.3864 -1.9907 0.9658
-7.7069 -3.5196 -1.9913 0.9658
-7.4375 -4.0612 -1.9916 0.9658
-7.1303 -4.5824 -1.9920 0.9658
-6.4086 -5.5531 -1.9929 0.9658
-6.2071 -5.7790 -1.9932 0.9658
-5.7806 -6.2089 -1.9938 0.9657
-4.8412 -6.9726 -1.9950 0.9657
-4.5900 -7.1421 -1.9953 0.9657
-4.0701 -7.4539 -1.9960 0.9657
-3.8021 -7.5958 -1.9963 0.9657
-3.5292 -7.7280 -1.9967 0.9657
-3.2517 -7.8504 -1.9971 0.9657
-2.6844 -8.0654 -1.9978 0.9657
-1.2109 -8.4219 -1.9997 0.9656
-0.9097 -8.4614 -2.0001 0.9656
0.3040 -8.5115 -2.0017 0.9656
0.6077 -8.4969 -2.0021 0.9656
0.9108 -8.4714 -2.0025 0.9656
1.2128 -8.4352 -2.0028 0.9656
1.5134 -8.3881 -2.0032 0.9656
2.1088 -8.2620 -2.0040 0.9656
2.6938 -8.0936 -2.0048 0.9656
3.2655 -7.8837 -2.0055 0.9655
3.5455 -7.7635 -2.0059 0.9655
3.8210 -7.6334 -2.0062 0.9655
4.3573 -7.3439 -2.0069 0.9655
5.1199 -6.8394 -2.0079 0.9655
5.5965 -6.4587 -2.0085 0.9655
6.0447 -6.0447 -2.0091 0.9655
6.4623 -5.5996 -2.0096 0.9655
6.6589 -5.3661 -2.0099 0.9655
6.8470 -5.1256 -2.0101 0.9655
7.0264 -4.8785 -2.0104 0.9655
7.3581 -4.3657 -2.0108 0.9655
7.5100 -4.1007 -2.0110 0.9655
7.7847 -3.5552 -2.0114 0.9654
8.1219 -2.7033 -2.0118 0.9654
8.2137 -2.4118 -2.0119 0.9654
8.3656 -1.8199 -2.0121 0.9654
8.4256 -1.5201 -2.0122 0.9654
8.5130 -0.9152 -2.0123 0.9654
8.5404 -0.6108 -2.0123 0.9654
8.5569 -0.3056 -2.0123 0.9654
-6.0303 0.0000 -1.5614 0.9754
-7.5691 -1.3656 -1.9914 0.9687
-7.4530 -1.9023 -1.9916 0.9687
-7.3807 -2.1672 -1.9917 0.9687
-7.2081 -2.6885 -1.9919 0.9687
-6.9989 -3.1963 -1.9922 0.9687
-6.8809 -3.4443 -1.9923 0.9687
-6.4750 -4.1612 -1.9929 0.9687
-5.8194 -5.0425 -1.9937 0.9687
-5.6364 -5.2477 -1.9939 0.9687
-4.8347 -5.9995 -1.9950 0.9687
-4.6181 -6.1691 -1.9953 0.9687
-4.1675 -6.4848 -1.9959 0.9687
-3.4520 -6.8963 -1.9968 0.9686
-2.4371 -7.3222 -1.9981 0.9686
-1.6412 -7.5447 -1.9991 0.9686
-1.0992 -7.6452 -1.9998 0.9686
-0.8258 -7.6809 -2.0002 0.9686
-0.5512 -7.7069 -2.0006 0.9686
0.2759 -7.7258 -2.0016 0.9686
0.5516 -7.7124 -2.0020 0.9686
0.8267 -7.6892 -2.0023 0.9686
1.1008 -7.6562 -2.0027 0.9685
1.3736 -7.6133 -2.0030 0.9685
1.6448 -7.5608 -2.0034 0.9685
2.1807 -7.4267 -2.0041 0.9685
2.4448 -7.3454 -2.0044 0.9685
2.9636 -7.1547 -2.0051 0.9685
3.2176 -7.0455 -2.0054 0.9685
3.4676 -6.9273 -2.0058 0.9685
3.9542 -6.6644 -2.0064 0.9685
4.1902 -6.5200 -2.0067 0.9685
5.2850 -5.6764 -2.0081 0.9685
5.4849 -5.4849 -2.0084 0.9685
5.8637 -5.0809 -2.0089 0.9685
6.0420 -4.8689 -2.0091 0.9684
6.2126 -4.6507 -2.0093 0.9684
6.3753 -4.4264 -2.0095 0.9684
6.5298 -4.1965 -2.0097 0.9684
6.6761 -3.9611 -2.0099 0.9684
6.9429 -3.4753 -2.0103 0.9684
7.0630 -3.2256 -2.0104 0.9684
7.2761 -2.7139 -2.0107 0.9684
7.4520 -2.1881 -2.0109 0.9684
7.5898 -1.6511 -2.0111 0.9684
7.6442 -1.3792 -2.0112 0.9684
7.6887 -1.1055 -2.0112 0.9684
7.7235 -0.8304 -2.0113 0.9684
7.7632 -0.2773 -2.0113 0.9684
-6.0321 -0.0000 -1.7076 0.9752
-6.6868 -0.7189 -1.9039 0.9724
-6.7015 -0.9635 -1.9167 0.9722
-6.9257 -1.2495 -1.9923 0.9712
-6.8769 -1.4960 -1.9923 0.9712
-6.8194 -1.7405 -1.9924 0.9712
-6.7532 -1.9829 -1.9925 0.9712
-6.5952 -2.4599 -1.9927 0.9712
-6.5036 -2.6939 -1.9928 0.9712
-6.2957 -3.1514 -1.9931 0.9712
-6.1797 -3.3744 -1.9932 0.9712
-6.0558 -3.5931 -1.9934 0.9712
-5.9242 -3.8073 -1.9936 0.9711
-5.7850 -4.0166 -1.9938 0.9711
-5.6385 -4.2210 -1.9939 0.9711
-5.4848 -4.4200 -1.9941 0.9711
-5.1567 -4.8010 -1.9946 0.9711
-4.9826 -4.9826 -1.9948 0.9711
-4.6155 -5.3266 -1.9953 0.9711
-3.5988 -6.0655 -1.9966 0.9711
-3.3805 -6.1910 -1.9969 0.9711
-1.9891 -6.7742 -1.9987 0.9711
-1.7463 -6.8419 -1.9990 0.9711
-0.7553 -7.0254 -2.0003 0.9711
-0.5041 -7.0490 -2.0006 0.9710
0.5045 -7.0536 -2.0019 0.9710
1.0067 -7.0019 -2.0026 0.9710
1.5042 -6.9145 -2.0032 0.9710
2.4744 -6.6342 -2.0045 0.9710
3.1708 -6.3345 -2.0054 0.9710
3.6157 -6.0939 -2.0060 0.9710
4.0423 -5.8221 -2.0065 0.9710
4.4485 -5.5203 -2.0070 0.9710
4.8322 -5.1902 -2.0075 0.9709
5.0150 -5.0150 -2.0078 0.9709
5.1914 -4.8333 -2.0080 0.9709
5.3612 -4.6455 -2.0082 0.9709
5.5242 -4.4516 -2.0084 0.9709
5.6801 -4.2520 -2.0086 0.9709
6.2296 -3.4016 -2.0093 0.9709
6.3475 -3.1773 -2.0095 0.9709
6.5589 -2.7168 -2.0098 0.9709
6.6521 -2.4811 -2.0099 0.9709
6.8128 -2.0004 -2.0101 0.9709
6.9387 -1.5094 -2.0102 0.9709
7.0836 -0.5066 -2.0104 0.9709
7.0972 -0.2535 -2.0104 0.9709
-6.4791 0.0000 -1.9928 0.9732
-6.4750 -0.2312 -1.9928 0.9732
-6.4422 -0.6926 -1.9929 0.9732
-6.3317 -1.3774 -1.9930 0.9732
-6.2177 -1.8257 -1.9932 0.9732
-6.0722 -2.2648 -1.9934 0.9732
-5.9879 -2.4802 -1.9935 0.9732
-5.8959 -2.6925 -1.9936 0.9732
-5.4542 -3.5052 -1.9942 0.9732
-5.3261 -3.6980 -1.9943 0.9732
-4.7474 -4.4200 -1.9951 0.9732
-4.4209 -4.7484 -1.9955 0.9732
-3.7019 -5.3317 -1.9965 0.9732
-3.1119 -5.6991 -1.9972 0.9732
-2.6982 -5.9082 -1.9978 0.9732
-2.2704 -6.0873 -1.9983 0.9732
-2.0520 -6.1653 -1.9986 0.9732
-1.1544 -6.3983 -1.9998 0.9732
-0.9254 -6.4364 -2.0001 0.9732
-0.6952 -6.4663 -2.0004 0.9731
-0.2322 -6.5014 -2.0010 0.9731
0.6958 -6.4721 -2.0022 0.9731
0.9265 -6.4441 -2.0025 0.9731
1.1561 -6.4079 -2.0028 0.9731
1.3843 -6.3635 -2.0031 0.9731
1.8353 -6.2504 -2.0036 0.9731
2.2772 -6.1053 -2.0042 0.9731
2.9179 -5.8293 -2.0050 0.9731
3.1246 -5.7222 -2.0053 0.9731
3.5257 -5.4861 -2.0058 0.9731
4.0935 -5.0797 -2.0066 0.9731
4.2727 -4.9309 -2.0068 0.9731
4.6146 -4.6145 -2.0072 0.9731
4.7768 -4.4474 -2.0075 0.9731
5.0829 -4.0961 -2.0078 0.9731
5.3632 -3.7237 -2.0082 0.9730
5.4931 -3.5302 -2.0084 0.9730
5.6160 -3.3321 -2.0085 0.9730
5.9413 -2.7133 -2.0090 0.9730
6.1983 -2.0630 -2.0093 0.9730
6.4298 -1.1601 -2.0096 0.9730
6.5173 -0.4661 -2.0097 0.9730
6.5298 -0.2332 -2.0097 0.9730
-5.9971 0.0000 -1.9935 0.9750
-5.9933 -0.2140 -1.9935 0.9750
-5.9629 -0.6411 -1.9935 0.9750
-5.9022 -1.0649 -1.9936 0.9750
-5.8115 -1.4833 -1.9937 0.9750
-5.7551 -1.6898 -1.9938 0.9750
-5.6204 -2.0963 -1.9940 0.9750
-5.5422 -2.2957 -1.9941 0.9750
-5.3650 -2.6855 -1.9943 0.9750
-4.9296 -3.4227 -1.9949 0.9750
-4.5366 -3.9310 -1.9954 0.9750
-3.9325 -4.5384 -1.9962 0.9750
-3.7685 -4.6764 -1.9964 0.9750
-3.5996 -4.8084 -1.9966 0.9750
-3.4260 -4.9344 -1.9968 0.9750
-3.2481 -5.0541 -1.9970 0.9750
-3.0659 -5.1675 -1.9973 0.9750
-2.6902 -5.3743 -1.9978 0.9750
-1.8989 -5.7054 -1.9988 0.9750
-1.6943 -5.7703 -1.9991 0.9750
-1.4875 -5.8279 -1.9993 0.9750
-1.2787 -5.8781 -1.9996 0.9750
-1.0682 -5.9208 -1.9999 0.9750
-0.8563 -5.9559 -2.0002 0.9750
-0.6433 -5.9835 -2.0004 0.9750
-0.2149 -6.0159 -2.0010 0.9749
0.0000 -6.0206 -2.0013 0.9749
0.6438 -5.9886 -2.0021 0.9749
0.8573 -5.9626 -2.0024 0.9749
1.0697 -5.9290 -2.0027 0.9749
1.2808 -5.8878 -2.0029 0.9749
1.4904 -5.8392 -2.0032 0.9749
2.1068 -5.6486 -2.0040 0.9749
2.3074 -5.5706 -2.0043 0.9749
2.5051 -5.4854 -2.0045 0.9749
2.8907 -5.2940 -2.0050 0.9749
3.7870 -4.6993 -2.0062 0.9749
3.9527 -4.5617 -2.0064 0.9749
4.2690 -4.2689 -2.0068 0.9749
4.5635 -3.9543 -2.0072 0.9749
4.7021 -3.7892 -2.0074 0.9749
5.0815 -3.2657 -2.0078 0.9749
5.3023 -2.8952 -2.0081 0.9749
5.7983 -1.7025 -2.0088 0.9748
5.8556 -1.4946 -2.0088 0.9748
5.9054 -1.2847 -2.0089 0.9748
5.9477 -1.0731 -2.0090 0.9748
-5.5618 -0.3978 -1.9940 0.9766
-5.5194 -0.7936 -1.9941 0.9766
-5.4490 -1.1854 -1.9942 0.9766
-5.1529 -2.1344 -1.9946 0.9766
-5.0738 -2.3171 -1.9947 0.9766
-4.9881 -2.4969 -1.9948 0.9766
-4.8961 -2.6735 -1.9949 0.9766
-4.5832 -3.1822 -1.9953 0.9766
-4.4670 -3.3440 -1.9955 0.9766
-3.9470 -3.9470 -1.9961 0.9766
-3.6561 -4.2193 -1.9965 0.9766
-2.3213 -5.0829 -1.9982 0.9765
-1.9532 -5.2368 -1.9987 0.9765
-1.7653 -5.3038 -1.9990 0.9765
-1.5751 -5.3641 -1.9992 0.9765
-1.1887 -5.4641 -1.9997 0.9765
-0.7960 -5.5364 -2.0002 0.9765
-0.3991 -5.5805 -2.0007 0.9765
0.1998 -5.5934 -2.0015 0.9765
0.3993 -5.5834 -2.0018 0.9765
0.5985 -5.5664 -2.0020 0.9765
0.7969 -5.5422 -2.0023 0.9765
1.1905 -5.4726 -2.0028 0.9765
1.3853 -5.4273 -2.0031 0.9765
1.9582 -5.2501 -2.0038 0.9765
2.5091 -5.0125 -2.0045 0.9765
2.6867 -4.9203 -2.0047 0.9765
3.1983 -4.6064 -2.0054 0.9765
3.3610 -4.4898 -2.0056 0.9765
4.1068 -3.8235 -2.0066 0.9764
4.2410 -3.6748 -2.0068 0.9764
4.3698 -3.5214 -2.0069 0.9764
4.6106 -3.2012 -2.0072 0.9764
4.7223 -3.0348 -2.0074 0.9764
4.8279 -2.8645 -2.0075 0.9764
4.9274 -2.6905 -2.0076 0.9764
5.0206 -2.5131 -2.0078 0.9764
5.1074 -2.3325 -2.0079 0.9764
5.2613 -1.9624 -2.0081 0.9764
5.3883 -1.5822 -2.0082 0.9764
5.4415 -1.3889 -2.0083 0.9764
5.4878 -1.1938 -2.0084 0.9764
5.5270 -0.9972 -2.0084 0.9764
5.5592 -0.7993 -2.0085 0.9764
5.6130 -0.2005 -2.0085 0.9764
-5.1518 -0.7407 -1.9946 0.9780
-5.1222 -0.9242 -1.9946 0.9780
-5.0434 -1.2873 -1.9947 0.9779
-4.9945 -1.4665 -1.9948 0.9779
-4.9391 -1.6439 -1.9948 0.9779
-4.8775 -1.8192 -1.9949 0.9779
-4.8097 -1.9922 -1.9950 0.9779
-4.7357 -2.1627 -1.9951 0.9779
-4.5699 -2.4953 -1.9953 0.9779
-4.4781 -2.6570 -1.9954 0.9779
-4.2778 -2.9701 -1.9957 0.9779
-3.9366 -3.4111 -1.9961 0.9779
-3.8127 -3.5497 -1.9963 0.9779
-3.5503 -3.8133 -1.9966 0.9779
-3.2698 -4.0576 -1.9970 0.9779
-2.6602 -4.4835 -1.9978 0.9779
-2.4987 -4.5760 -1.9980 0.9779
-2.3340 -4.6628 -1.9982 0.9779
-2.1663 -4.7437 -1.9984 0.9779
-1.8228 -4.8872 -1.9989 0.9779
-1.6474 -4.9497 -1.9991 0.9779
-1.4699 -5.0059 -1.9994 0.9779
-1.2904 -5.0558 -1.9996 0.9779
-0.9267 -5.1362 -2.0001 0.9779
-0.7428 -5.1666 -2.0003 0.9779
-0.5580 -5.1905 -2.0005 0.9779
-0.3725 -5.2077 -2.0008 0.9779
-0.1864 -5.2183 -2.0010 0.9779
0.0000 -5.2223 -2.0013 0.9779
0.1864 -5.2196 -2.0015 0.9779
0.3727 -5.2102 -2.0017 0.9779
1.1109 -5.1066 -2.0027 0.9779
1.4727 -5.0155 -2.0032 0.9779
1.6510 -4.9603 -2.0034 0.9779
1.8271 -4.8988 -2.0036 0.9779
2.1725 -4.7570 -2.0041 0.9778
2.5068 -4.5909 -2.0045 0.9778
2.6694 -4.4990 -2.0047 0.9778
3.4275 -3.9555 -2.0057 0.9778
3.5668 -3.8310 -2.0059 0.9778
3.7015 -3.7015 -2.0061 0.9778
4.0770 -3.2854 -2.0065 0.9778
4.1920 -3.1381 -2.0067 0.9778
4.4058 -2.8314 -2.0070 0.9778
4.5043 -2.6725 -2.0071 0.9778
4.5971 -2.5102 -2.0072 0.9778
4.8399 -2.0047 -2.0075 0.9778
4.9085 -1.8308 -2.0076 0.9778
4.9709 -1.6545 -2.0077 0.9778
5.1864 -0.7457 -2.0080 0.9778
5.2366 -0.1870 -2.0080 0.9778
-1.9308 -0.0690 -0.7907 0.9917
-1.9569 -0.2104 -0.8055 0.9915
-4.7632 -1.0362 -1.9951 0.9792
-4.6256 -1.5395 -1.9952 0.9792
-4.5679 -1.7037 -1.9953 0.9791
-4.4351 -2.0254 -1.9955 0.9791
-4.1938 -2.4883 -1.9958 0.9791
-4.0061 -2.7815 -1.9961 0.9791
-3.6866 -3.1945 -1.9965 0.9791
-3.1955 -3.6878 -1.9971 0.9791
-3.0621 -3.7998 -1.9973 0.9791
-2.9248 -3.9070 -1.9975 0.9791
-2.7837 -4.0093 -1.9976 0.9791
-2.6391 -4.1065 -1.9978 0.9791
-2.4911 -4.1985 -1.9980 0.9791
-2.1856 -4.3664 -1.9984 0.9791
-2.0286 -4.4420 -1.9986 0.9791
-1.8690 -4.5121 -1.9988 0.9791
-1.2083 -4.7342 -1.9997 0.9791
-1.0387 -4.7748 -1.9999 0.9791
-0.8677 -4.8094 -2.0001 0.9791
-0.6956 -4.8378 -2.0004 0.9791
-0.3487 -4.8762 -2.0008 0.9791
-0.1745 -4.8861 -2.0010 0.9791
0.0000 -4.8898 -2.0013 0.9791
0.1746 -4.8872 -2.0015 0.9791
0.3489 -4.8784 -2.0017 0.9791
0.5229 -4.8634 -2.0019 0.9791
1.2102 -4.7416 -2.0028 0.9791
1.5457 -4.6442 -2.0033 0.9791
2.0340 -4.4538 -2.0039 0.9791
2.3470 -4.2982 -2.0043 0.9791
2.4992 -4.2121 -2.0045 0.9791
2.6482 -4.1206 -2.0047 0.9791
3.3392 -3.5865 -2.0056 0.9790
3.4654 -3.4653 -2.0057 0.9790
3.5871 -3.3397 -2.0059 0.9790
3.7043 -3.2098 -2.0061 0.9790
4.0270 -2.7960 -2.0065 0.9790
4.2167 -2.5019 -2.0067 0.9790
4.3850 -2.1950 -2.0069 0.9790
4.5308 -1.8767 -2.0071 0.9790
4.7928 -1.0426 -2.0075 0.9790
4.8271 -0.8709 -2.0075 0.9790
4.8552 -0.6981 -2.0075 0.9790
4.8771 -0.5243 -2.0076 0.9790
4.8927 -0.3499 -2.0076 0.9790
4.9021 -0.1751 -2.0076 0.9790
-1.5222 0.0000 -0.6634 0.9934
-1.5284 -0.0546 -0.6665 0.9933
-1.5293 -0.1094 -0.6682 0.9933
-1.5249 -0.1639 -0.6684 0.9933
-1.5151 -0.2178 -0.6671 0.9933
-1.5001 -0.2707 -0.6643 0.9934
-1.5214 -0.3310 -0.6786 0.9932
-1.5875 -0.5284 -0.7292 0.9927
-1.5984 -0.5962 -0.7435 0.9926
-4.1657 -1.9024 -1.9958 0.9802
-4.0953 -2.0500 -1.9959 0.9802
-4.0197 -2.1950 -1.9960 0.9802
-3.8533 -2.4764 -1.9963 0.9802
-3.6673 -2.7453 -1.9965 0.9802
-3.5672 -2.8746 -1.9966 0.9802
-3.4626 -3.0004 -1.9968 0.9802
-3.1227 -3.3540 -1.9972 0.9802
-3.0012 -3.4636 -1.9974 0.9802
-2.8759 -3.5688 -1.9975 0.9802
-2.4786 -3.8568 -1.9980 0.9802
-2.3396 -3.9432 -1.9982 0.9802
-2.0527 -4.1008 -1.9986 0.9802
-1.9052 -4.1719 -1.9988 0.9802
-1.6031 -4.2980 -1.9992 0.9802
-0.8149 -4.5166 -2.0002 0.9802
-0.4907 -4.5642 -2.0006 0.9802
-0.3275 -4.5793 -2.0008 0.9802
0.0000 -4.5920 -2.0013 0.9802
0.6538 -4.5472 -2.0021 0.9802
0.8158 -4.5214 -2.0023 0.9802
1.1365 -4.4526 -2.0027 0.9801
1.6064 -4.3069 -2.0033 0.9801
1.9099 -4.1822 -2.0037 0.9801
2.2039 -4.0360 -2.0041 0.9801
2.4866 -3.8692 -2.0045 0.9801
2.6234 -3.7783 -2.0047 0.9801
2.8867 -3.5822 -2.0050 0.9801
3.1354 -3.3677 -2.0053 0.9801
3.2539 -3.2539 -2.0055 0.9801
3.3682 -3.1359 -2.0056 0.9801
3.5838 -2.8880 -2.0059 0.9801
3.7812 -2.6253 -2.0062 0.9801
3.8727 -2.4888 -2.0063 0.9801
3.9593 -2.3492 -2.0064 0.9801
4.0408 -2.2064 -2.0065 0.9801
4.1172 -2.0609 -2.0066 0.9801
4.1883 -1.9127 -2.0067 0.9801
4.3145 -1.6092 -2.0068 0.9801
4.4622 -1.1389 -2.0070 0.9801
4.5001 -0.9789 -2.0071 0.9801
-1.3333 0.0000 -0.6172 0.9941
-1.3384 -0.0957 -0.6211 0.9941
-1.3351 -0.1435 -0.6215 0.9941
-1.3160 -0.2374 -0.6190 0.9941
-1.3263 -0.5494 -0.6645 0.9937
-3.7853 -2.0669 -1.9963 0.9812
-3.5432 -2.4601 -1.9967 0.9812
-3.4533 -2.5851 -1.9968 0.9812
-3.3591 -2.7069 -1.9969 0.9812
-3.2605 -2.8253 -1.9970 0.9812
-3.1578 -2.9400 -1.9972 0.9812
-2.8261 -3.2614 -1.9976 0.9812
-2.7081 -3.3605 -1.9977 0.9812
-2.4618 -3.5457 -1.9981 0.9812
-2.0692 -3.7895 -1.9986 0.9811
-1.7939 -3.9282 -1.9989 0.9811
-1.3641 -4.0986 -1.9995 0.9811
-1.2171 -4.1450 -1.9997 0.9811
-1.0685 -4.1862 -1.9999 0.9811
-0.9185 -4.2221 -2.0001 0.9811
-0.7673 -4.2526 -2.0003 0.9811
-0.6150 -4.2777 -2.0005 0.9811
0.4623 -4.3000 -2.0019 0.9811
0.9196 -4.2271 -2.0024 0.9811
1.0700 -4.1921 -2.0026 0.9811
1.3666 -4.1058 -2.0030 0.9811
1.7981 -3.9373 -2.0036 0.9811
1.9377 -3.8710 -2.0038 0.9811
2.0748 -3.7997 -2.0039 0.9811
2.3410 -3.6426 -2.0043 0.9811
2.5953 -3.4669 -2.0046 0.9811
2.7176 -3.3723 -2.0048 0.9811
2.8365 -3.2734 -2.0049 0.9811
2.9517 -3.1704 -2.0051 0.9811
3.4689 -2.5968 -2.0058 0.9811
3.7272 -2.2114 -2.0061 0.9811
3.8758 -1.9401 -2.0063 0.9811
3.9428 -1.8006 -2.0064 0.9811
4.0615 -1.5148 -2.0065 0.9811
4.1131 -1.3690 -2.0066 0.9811
4.2665 -0.7698 -2.0068 0.9811
4.3245 -0.3093 -2.0069 0.9811
-1.1953 -0.0855 -0.5878 0.9947
-1.1921 -0.1282 -0.5881 0.9947
-1.1867 -0.1706 -0.5881 0.9947
-1.1590 -0.3403 -0.5925 0.9946
-1.1484 -0.4757 -0.6097 0.9945
-1.1113 -0.6068 -0.6211 0.9944
-3.0772 -2.6664 -1.9973 0.9820
-2.9802 -2.7747 -1.9974 0.9820
-2.8795 -2.8795 -1.9975 0.9820
-2.7751 -2.9806 -1.9977 0.9820
-2.6671 -3.0780 -1.9978 0.9820
-2.5557 -3.1715 -1.9979 0.9820
-2.4411 -3.2609 -1.9981 0.9820
-1.5597 -3.7655 -1.9992 0.9820
-1.2873 -3.8678 -1.9996 0.9820
-1.1486 -3.9117 -1.9998 0.9820
-0.7240 -4.0131 -2.0003 0.9820
-0.5804 -4.0368 -2.0005 0.9820
-0.2910 -4.0687 -2.0009 0.9820
0.1456 -4.0776 -2.0014 0.9820
0.2911 -4.0702 -2.0016 0.9820
0.5809 -4.0398 -2.0020 0.9820
0.7247 -4.0169 -2.0022 0.9820
0.8677 -3.9888 -2.0024 0.9820
1.0096 -3.9557 -2.0026 0.9820
1.2895 -3.8743 -2.0029 0.9820
1.4271 -3.8261 -2.0031 0.9820
1.8284 -3.6526 -2.0036 0.9820
1.9578 -3.5853 -2.0038 0.9820
2.2089 -3.4371 -2.0041 0.9820
2.3304 -3.3563 -2.0043 0.9820
2.5642 -3.1820 -2.0046 0.9820
2.6764 -3.0887 -2.0047 0.9820
2.8903 -2.8903 -2.0050 0.9820
2.9918 -2.7854 -2.0051 0.9820
3.3586 -2.3319 -2.0056 0.9819
3.4398 -2.2106 -2.0057 0.9819
3.5167 -2.0866 -2.0058 0.9819
3.7201 -1.6989 -2.0061 0.9819
3.7785 -1.5651 -2.0061 0.9819
3.8808 -1.2916 -2.0063 0.9819
3.9969 -0.8695 -2.0064 0.9819
4.0489 -0.5821 -2.0065 0.9819
4.0671 -0.4373 -2.0065 0.9819
4.0802 -0.2918 -2.0065 0.9819
4.0880 -0.1460 -2.0065 0.9819
-1.1058 0.0000 -0.5737 0.9950
-1.1055 -0.0791 -0.5750 0.9950
-1.1024 -0.1185 -0.5752 0.9950
-1.0905 -0.1967 -0.5749 0.9950
-1.0636 -0.3123 -0.5751 0.9950
-1.0617 -0.3534 -0.5805 0.9950
-1.0430 -0.4763 -0.5948 0.9948
-1.0298 -0.5155 -0.5974 0.9948
-3.2384 -2.0812 -1.9970 0.9828
-2.9979 -2.4158 -1.9974 0.9828
-2.8182 -2.6239 -1.9976 0.9828
-2.6242 -2.8186 -1.9978 0.9828
-2.4167 -2.9990 -1.9981 0.9828
-1.9659 -3.3134 -1.9987 0.9828
-1.8465 -3.3817 -1.9989 0.9828
-1.6008 -3.5054 -1.9992 0.9828
-1.4748 -3.5606 -1.9993 0.9828
-1.2173 -3.6573 -1.9997 0.9828
-1.0860 -3.6988 -1.9998 0.9828
-0.9534 -3.7355 -2.0000 0.9828
-0.6846 -3.7946 -2.0004 0.9828
-0.5488 -3.8170 -2.0005 0.9828
-0.4122 -3.8345 -2.0007 0.9828
-0.2751 -3.8471 -2.0009 0.9828
-0.1377 -3.8548 -2.0011 0.9828
0.1377 -3.8555 -2.0014 0.9828
0.2753 -3.8485 -2.0016 0.9828
0.9546 -3.7401 -2.0025 0.9828
1.0876 -3.7040 -2.0027 0.9828
1.3493 -3.6175 -2.0030 0.9828
1.4777 -3.5674 -2.0032 0.9828
1.6042 -3.5127 -2.0033 0.9827
1.7287 -3.4534 -2.0035 0.9827
1.8510 -3.3898 -2.0037 0.9827
2.2032 -3.1733 -2.0041 0.9827
2.4243 -3.0084 -2.0044 0.9827
2.5304 -2.9202 -2.0045 0.9827
2.6331 -2.8282 -2.0047 0.9827
2.7326 -2.7326 -2.0048 0.9827
2.9209 -2.5310 -2.0050 0.9827
3.0096 -2.4252 -2.0052 0.9827
3.0944 -2.3164 -2.0053 0.9827
3.2521 -2.0900 -2.0055 0.9827
3.3248 -1.9727 -2.0056 0.9827
3.5722 -1.4797 -2.0059 0.9827
3.6689 -1.2211 -2.0060 0.9827
3.7469 -0.9563 -2.0061 0.9827
3.7787 -0.8220 -2.0061 0.9827
3.8278 -0.5504 -2.0062 0.9827
3.8648 -0.1380 -2.0063 0.9827
-1.0269 0.0000 -0.5625 0.9953
-1.0276 -0.0367 -0.5632 0.9953
-1.0265 -0.0734 -0.5637 0.9953
-1.0236 -0.1100 -0.5639 0.9953
-1.0190 -0.1465 -0.5638 0.9953
-1.0039 -0.2184 -0.5627 0.9953
-0.9938 -0.2537 -0.5618 0.9953
-0.9820 -0.2883 -0.5606 0.9953
-0.9741 -0.3633 -0.5694 0.9953
-0.9677 -0.4008 -0.5737 0.9952
-0.9580 -0.4375 -0.5768 0.9952
-0.9434 -0.4722 -0.5778 0.9952
-0.9269 -0.5061 -0.5784 0.9952
-0.8881 -0.5708 -0.5782 0.9952
-0.8661 -0.6014 -0.5775 0.9952
-2.9196 -2.1855 -1.9975 0.9835
-1.9729 -3.0699 -1.9987 0.9835
-1.7491 -3.2033 -1.9990 0.9835
-1.6338 -3.2639 -1.9991 0.9835
-1.2758 -3.4207 -1.9996 0.9835
-1.1530 -3.4643 -1.9998 0.9835
-0.9031 -3.5383 -2.0001 0.9835
-0.5198 -3.6155 -2.0006 0.9835
-0.1304 -3.6513 -2.0011 0.9835
0.3907 -3.6339 -2.0018 0.9835
0.6490 -3.5973 -2.0021 0.9835
0.9042 -3.5425 -2.0024 0.9835
1.0301 -3.5082 -2.0026 0.9835
1.1548 -3.4695 -2.0028 0.9835
1.2780 -3.4263 -2.0029 0.9835
1.3996 -3.3788 -2.0031 0.9835
1.6373 -3.2709 -2.0034 0.9835
1.8667 -3.1462 -2.0037 0.9835
1.9780 -3.0778 -2.0038 0.9835
2.1928 -2.9292 -2.0041 0.9835
2.2961 -2.8493 -2.0042 0.9834
2.4939 -2.6786 -2.0045 0.9834
2.6789 -2.4942 -2.0047 0.9834
2.7664 -2.3971 -2.0048 0.9834
2.9307 -2.1939 -2.0051 0.9834
3.0800 -1.9794 -2.0052 0.9834
3.4747 -1.1565 -2.0058 0.9834
3.5139 -1.0318 -2.0058 0.9834
3.5787 -0.7785 -2.0059 0.9834
3.6415 -0.3915 -2.0060 0.9834
-0.9570 0.0000 -0.5525 0.9956
-0.9575 -0.0342 -0.5532 0.9956
-0.9564 -0.0684 -0.5536 0.9956
-0.9537 -0.1025 -0.5538 0.9956
-0.9492 -0.1365 -0.5537 0.9956
-0.9259 -0.2363 -0.5517 0.9956
-0.9151 -0.2687 -0.5506 0.9956
-0.9011 -0.3361 -0.5553 0.9956
-0.8941 -0.3703 -0.5587 0.9955
-0.8823 -0.4029 -0.5600 0.9955
-0.8687 -0.4348 -0.5609 0.9955
-0.8178 -0.5256 -0.5613 0.9955
-0.8008 -0.5560 -0.5628 0.9955
-2.6152 -2.2661 -1.9979 0.9841
-2.3584 -2.5331 -1.9982 0.9841
-2.2666 -2.6158 -1.9983 0.9841
-2.1719 -2.6952 -1.9984 0.9841
-2.0745 -2.7712 -1.9986 0.9841
-1.9744 -2.8436 -1.9987 0.9841
-1.8717 -2.9125 -1.9988 0.9841
-1.7667 -2.9776 -1.9990 0.9841
-1.6594 -3.0390 -1.9991 0.9841
-1.5500 -3.0965 -1.9992 0.9841
-1.4386 -3.1501 -1.9994 0.9841
-1.3253 -3.1997 -1.9995 0.9841
-0.8568 -3.3567 -2.0001 0.9841
-0.7364 -3.3854 -2.0003 0.9841
-0.4931 -3.4299 -2.0006 0.9841
-0.1237 -3.4638 -2.0011 0.9841
0.0000 -3.4663 -2.0013 0.9841
0.2473 -3.4580 -2.0016 0.9841
0.4935 -3.4321 -2.0019 0.9841
0.6157 -3.4126 -2.0021 0.9841
0.8577 -3.3605 -2.0024 0.9841
1.0954 -3.2912 -2.0027 0.9841
1.2123 -3.2503 -2.0028 0.9841
1.3276 -3.2052 -2.0030 0.9841
1.4413 -3.1560 -2.0031 0.9841
1.6630 -3.0456 -2.0034 0.9841
1.7708 -2.9845 -2.0035 0.9841
1.9794 -2.8509 -2.0038 0.9841
2.0801 -2.7786 -2.0039 0.9841
2.1781 -2.7028 -2.0041 0.9841
2.5411 -2.3659 -2.0045 0.9841
2.7799 -2.0810 -2.0049 0.9841
2.8525 -1.9805 -2.0049 0.9841
1.8682 -0.6968 -1.1512 0.9908
1.9351 -0.5682 -1.1644 0.9907
1.9616 -0.5007 -1.1688 0.9907
1.9883 -0.4325 -1.1748 0.9906
2.0300 -0.2919 -1.1841 0.9906
2.0359 -0.1456 -1.1784 0.9906
2.0320 -0.0726 -1.1739 0.9907
