ply
format ascii 1.0
element vertex 882
property float32 x
property float32 y
property float32 z
property float32 I
end_header
1.8747 7.3449 1.3366 0.9697
0.2251 6.3032 1.1121 0.9747
-3.2423 6.4773 1.2772 0.9710
-3.4670 6.3492 1.2756 0.9710
2.7208 5.4354 0.9312 0.9757
2.3752 5.7342 0.9508 0.9752
2.0139 6.0508 0.9770 0.9745
1.6283 6.3798 1.0087 0.9737
1.4259 6.5548 1.0276 0.9732
1.0507 7.3077 1.1310 0.9706
0.8080 7.5159 1.1580 0.9699
0.4288 5.9960 0.9209 0.9760
0.2251 6.3033 0.9662 0.9748
-3.2377 6.4681 1.1081 0.9712
2.7208 5.4355 0.7915 0.9758
2.3752 5.7342 0.8082 0.9753
2.0139 6.0509 0.8304 0.9746
1.4259 6.5548 0.8735 0.9733
0.8067 7.5030 0.9827 0.9700
-3.8029 6.4095 0.9705 0.9704
2.8860 5.2853 0.6466 0.9761
2.5397 5.5612 0.6565 0.9757
2.0048 6.0236 0.6817 0.9748
1.9173 7.5119 0.8325 0.9693
1.2161 6.7406 0.7355 0.9728
0.4288 5.9961 0.6455 0.9761
-3.2287 6.4500 0.7745 0.9714
-3.7940 6.3944 0.7984 0.9705
3.5410 5.9681 0.5875 0.9725
2.7104 5.4147 0.5126 0.9760
2.5474 5.5781 0.5191 0.9757
2.0109 6.0419 0.5390 0.9748
1.6268 6.3739 0.5569 0.9739
0.8067 7.5033 0.6388 0.9702
0.2251 6.3036 0.5340 0.9750
-3.7851 6.3794 0.6279 0.9707
3.5409 5.9679 0.4303 0.9726
2.8777 5.2702 0.3724 0.9762
2.5423 5.5668 0.3795 0.9758
2.1899 5.8714 0.3886 0.9752
1.6268 6.3739 0.4079 0.9740
1.4246 6.5488 0.4156 0.9735
0.8067 7.5034 0.4680 0.9702
-3.4428 6.3051 0.4455 0.9716
-3.7763 6.3645 0.4589 0.9708
3.5408 5.9677 0.2736 0.9726
-3.2153 6.4234 0.2832 0.9717
-3.4381 6.2964 0.2829 0.9717
3.5406 5.9674 0.1172 0.9726
2.8778 5.2702 0.1014 0.9763
2.7105 5.4149 0.1023 0.9761
-3.7588 6.3351 0.1244 0.9710
2.7105 5.4149 -0.0341 0.9761
-3.2065 6.4058 -0.0403 0.9718
-3.4287 6.2792 -0.0403 0.9718
-3.7502 6.3206 -0.0414 0.9710
3.5403 5.9669 -0.1954 0.9726
2.7105 5.4149 -0.1705 0.9761
2.8101 6.1533 -0.1905 0.9733
2.4207 6.4901 -0.1950 0.9727
-3.2021 6.3971 -0.2014 0.9718
-3.4241 6.2707 -0.2012 0.9718
-3.7416 6.3061 -0.2065 0.9711
3.5402 5.9667 -0.3519 0.9726
2.7105 5.4150 -0.3071 0.9760
-3.1978 6.3883 -0.3623 0.9718
-3.7330 6.2916 -0.3710 0.9711
-9.7478 0.3481 -0.4947 0.9617
3.5922 6.0543 -0.5162 0.9722
2.8115 6.1563 -0.4962 0.9732
2.4224 6.4946 -0.5082 0.9726
-3.1934 6.3796 -0.5231 0.9718
5.7632 4.9938 -0.7321 0.9698
3.5921 6.0541 -0.6758 0.9721
2.7218 5.4374 -0.5838 0.9759
2.8115 6.1564 -0.6498 0.9732
2.4224 6.4947 -0.6655 0.9725
2.1132 7.1969 -0.7201 0.9703
1.8552 7.2688 -0.7202 0.9703
1.3498 7.4813 -0.7298 0.9699
1.1048 7.6839 -0.7453 0.9693
-3.1890 6.3709 -0.6840 0.9718
-3.4101 6.2450 -0.6831 0.9718
-8.9420 0.6395 -0.8607 0.9646
-8.8098 0.3146 -0.8463 0.9652
6.1397 4.9477 -0.9366 0.9687
5.7499 4.9823 -0.9037 0.9698
2.8898 5.2922 -0.7163 0.9760
2.7218 5.4374 -0.7223 0.9758
2.7860 6.1006 -0.7967 0.9733
2.3856 5.7593 -0.7405 0.9752
2.1913 5.8750 -0.7448 0.9751
2.0070 6.0300 -0.7549 0.9747
1.8184 6.1930 -0.7667 0.9743
1.4201 6.5282 -0.7936 0.9734
1.2105 6.7094 -0.8099 0.9729
0.9918 6.8985 -0.8279 0.9723
0.7629 7.0964 -0.8478 0.9717
-3.4054 6.2365 -0.8441 0.9718
-3.7073 6.2484 -0.8630 0.9712
3.5103 5.9164 -0.9747 0.9726
2.7097 5.4134 -0.8577 0.9758
2.3655 5.7109 -0.8758 0.9753
2.1875 5.8649 -0.8869 0.9750
2.0070 6.0301 -0.9005 0.9747
1.8185 6.1931 -0.9145 0.9743
1.6218 6.3540 -0.9292 0.9739
1.2105 6.7095 -0.9660 0.9728
0.9919 6.8986 -0.9875 0.9722
0.7629 7.0964 -1.0113 0.9716
-3.1803 6.3534 -1.0067 0.9717
-3.6988 6.2339 -1.0271 0.9711
-7.7524 0.5545 -1.1012 0.9691
-7.6761 0.2742 -1.0883 0.9694
5.9894 4.8266 -1.2672 0.9693
5.7501 4.9825 -1.2534 0.9696
3.5102 5.9161 -1.1333 0.9725
2.7097 5.4134 -0.9973 0.9758
2.5394 5.5606 -1.0071 0.9755
2.1875 5.8649 -1.0312 0.9749
2.0070 6.0301 -1.0470 0.9746
1.6217 6.3540 -1.0803 0.9738
0.9919 6.8986 -1.1482 0.9721
0.7630 7.0965 -1.1758 0.9715
-3.1759 6.3446 -1.1688 0.9716
-3.3960 6.2193 -1.1674 0.9717
-3.6902 6.2195 -1.1914 0.9711
-7.8981 0.8491 -1.3086 0.9683
8.7811 4.3955 -1.8457 0.9608
8.6189 4.7063 -1.8458 0.9608
8.2619 5.3096 -1.8459 0.9608
8.0675 5.6013 -1.8460 0.9608
5.7502 4.9826 -1.4301 0.9695
4.8409 4.5071 -1.2432 0.9734
4.7083 4.7083 -1.2515 0.9733
6.6945 7.1904 -1.8466 0.9608
6.4340 7.4252 -1.8467 0.9608
6.1652 7.6506 -1.8468 0.9608
5.3131 8.2674 -1.8472 0.9608
2.8770 5.2688 -1.1284 0.9759
2.7098 5.4134 -1.1379 0.9757
2.3656 5.7110 -1.1619 0.9752
2.1875 5.8650 -1.1766 0.9748
1.8185 6.1932 -1.2132 0.9741
1.4202 6.5284 -1.2558 0.9732
1.2105 6.7096 -1.2815 0.9726
-2.4111 7.2442 -1.4351 0.9694
-2.4093 6.4595 -1.2958 0.9723
-4.6194 6.1708 -1.4489 0.9691
-4.3765 5.4309 -1.3110 0.9720
-7.8217 0.8409 -1.4787 0.9685
9.4508 -0.0000 -1.9977 0.9621
9.4267 0.6742 -1.9977 0.9621
9.3967 1.0102 -1.9977 0.9621
9.3547 1.3450 -1.9977 0.9621
9.2351 2.0090 -1.9978 0.9621
9.0685 2.6628 -1.9978 0.9621
8.9679 2.9848 -1.9979 0.9621
8.8558 3.3030 -1.9979 0.9621
7.7157 4.2131 -1.8583 0.9647
7.1752 4.9818 -1.8464 0.9649
5.9902 4.8272 -1.6262 0.9690
5.7504 4.9827 -1.6084 0.9694
4.8249 4.4921 -1.3935 0.9734
4.6978 4.6978 -1.4043 0.9732
5.4831 6.8041 -1.8471 0.9649
5.2370 6.9958 -1.8472 0.9649
4.7251 7.3525 -1.8474 0.9649
2.7098 5.4135 -1.2797 0.9756
2.2315 5.9830 -1.3498 0.9742
2.0070 6.0302 -1.3434 0.9744
1.8185 6.1932 -1.3644 0.9740
1.6218 6.3541 -1.3862 0.9735
1.4202 6.5284 -1.4123 0.9731
1.2106 6.7096 -1.4412 0.9725
0.9351 8.6974 -1.8490 0.9649
0.6241 8.7258 -1.8492 0.9649
0.3123 8.7432 -1.8493 0.9649
-0.0000 8.7494 -1.8494 0.9649
-0.3123 8.7445 -1.8496 0.9649
-1.2455 8.6629 -1.8500 0.9649
-1.8606 8.5532 -1.8502 0.9648
-2.4110 7.2440 -1.6138 0.9693
-2.4191 5.8403 -1.3362 0.9745
-3.2314 7.0758 -1.6443 0.9687
-3.1670 6.3269 -1.4956 0.9715
-3.7845 5.4507 -1.4026 0.9732
-4.0739 5.4421 -1.4370 0.9726
-4.3952 5.4541 -1.4806 0.9718
-5.9704 6.4126 -1.8520 0.9648
-6.1958 6.1958 -1.8521 0.9648
-6.6226 5.7385 -1.8523 0.9648
-6.8236 5.4988 -1.8524 0.9648
-7.0158 5.2520 -1.8525 0.9648
-7.1991 4.9984 -1.8526 0.9648
-7.8096 4.2644 -1.8809 0.9643
-8.7653 3.6307 -2.0055 0.9620
-9.0025 2.9963 -2.0056 0.9620
-9.1039 2.6732 -2.0056 0.9620
-9.3380 1.6848 -2.0057 0.9619
-9.3924 1.3504 -2.0058 0.9619
-7.6144 0.5446 -1.6136 0.9693
8.4963 0.3034 -1.9981 0.9657
8.4801 0.6065 -1.9981 0.9657
8.4153 1.2099 -1.9981 0.9657
8.2380 2.1026 -1.9982 0.9657
8.1578 2.3954 -1.9982 0.9657
7.5996 3.8041 -1.9973 0.9657
6.6101 4.2480 -1.8467 0.9682
6.4544 4.4814 -1.8467 0.9682
5.1472 5.9402 -1.8473 0.9682
4.7108 6.2928 -1.8475 0.9682
4.4834 6.4573 -1.8476 0.9682
2.8771 5.2689 -1.4109 0.9756
2.3320 5.6300 -1.4322 0.9753
2.1578 5.7853 -1.4512 0.9749
2.0071 6.0303 -1.4937 0.9742
1.6218 6.3542 -1.5412 0.9734
1.4202 6.5285 -1.5702 0.9729
1.1196 7.7871 -1.8490 0.9682
0.2809 7.8637 -1.8493 0.9682
-0.2809 7.8648 -1.8496 0.9682
-0.5615 7.8502 -1.8497 0.9682
-1.1202 7.7912 -1.8499 0.9682
-1.6734 7.6924 -1.8502 0.9682
-2.2182 7.5544 -1.8504 0.9682
-2.3237 6.9815 -1.7293 0.9702
-2.4191 5.8401 -1.4856 0.9744
-2.9738 5.4460 -1.4583 0.9748
-3.2322 5.4475 -1.4887 0.9743
-3.5019 5.4491 -1.5223 0.9737
-4.0816 5.4524 -1.6007 0.9724
-4.3952 5.4541 -1.6463 0.9716
-5.1595 5.9544 -1.8517 0.9681
-5.3690 5.7667 -1.8518 0.9681
-5.5717 5.5717 -1.8519 0.9681
-5.7673 5.3695 -1.8520 0.9681
-5.9555 5.1605 -1.8520 0.9681
-6.3090 4.7229 -1.8522 0.9681
-6.4738 4.4949 -1.8523 0.9681
-7.1597 4.2480 -1.9566 0.9664
-7.7603 3.5440 -2.0050 0.9656
-7.8821 3.2648 -2.0051 0.9656
-8.0953 2.6944 -2.0052 0.9655
-8.2672 2.1101 -2.0053 0.9655
-8.3374 1.8137 -2.0053 0.9655
-8.3969 1.5150 -2.0053 0.9655
-8.4458 1.2143 -2.0054 0.9655
7.7184 0.0000 -1.9984 0.9686
7.7135 0.2755 -1.9984 0.9686
7.6742 0.8251 -1.9985 0.9686
7.5959 1.3704 -1.9985 0.9686
7.5422 1.6407 -1.9985 0.9686
7.4062 2.1746 -1.9986 0.9686
7.3240 2.4377 -1.9986 0.9686
7.1317 2.9540 -1.9987 0.9686
6.9031 3.4554 -1.9988 0.9686
6.7755 3.6997 -1.9988 0.9686
6.6286 3.9329 -1.9956 0.9687
6.0622 4.2091 -1.9109 0.9700
5.7108 4.2751 -1.8471 0.9710
5.5548 4.4764 -1.8471 0.9710
4.7926 4.4621 -1.6955 0.9733
4.6751 4.6751 -1.7119 0.9731
4.6727 5.3926 -1.8475 0.9709
4.4775 5.5562 -1.8476 0.9709
4.0700 5.8620 -1.8477 0.9709
3.8584 6.0038 -1.8478 0.9709
2.5013 5.4770 -1.5590 0.9754
2.3458 5.6633 -1.5871 0.9750
1.5178 6.9774 -1.8488 0.9709
0.7634 7.1009 -1.8491 0.9709
-0.2550 7.1390 -1.8496 0.9709
-1.5189 6.9823 -1.8501 0.9709
-2.2570 6.7811 -1.8504 0.9709
-2.3279 6.2413 -1.7247 0.9729
-2.4859 5.4433 -1.5494 0.9756
-2.7254 5.4446 -1.5765 0.9752
-3.2322 5.4475 -1.6400 0.9742
-3.5019 5.4491 -1.6771 0.9736
-3.7517 5.4034 -1.7032 0.9732
-4.0148 5.3632 -1.7346 0.9727
-4.3233 5.3649 -1.7840 0.9719
-4.6504 5.3668 -1.8386 0.9711
-4.8730 5.2339 -1.8516 0.9709
-5.0569 5.0569 -1.8517 0.9709
-5.2344 4.8734 -1.8517 0.9709
-5.4052 4.6837 -1.8518 0.9709
-5.5692 4.4879 -1.8519 0.9709
-7.0431 3.2165 -2.0047 0.9685
-7.5030 1.9150 -2.0049 0.9685
-7.5667 1.6460 -2.0050 0.9685
-7.6208 1.3750 -2.0050 0.9685
-7.7243 0.5524 -2.0051 0.9685
-7.7391 0.2764 -2.0051 0.9685
7.0558 0.2520 -1.9987 0.9711
6.9885 1.0048 -1.9987 0.9711
6.8412 1.7461 -1.9988 0.9711
6.7747 1.9892 -1.9988 0.9711
6.6994 2.2298 -1.9989 0.9711
6.5235 2.7021 -1.9989 0.9711
6.3144 3.1608 -1.9990 0.9711
6.1977 3.3842 -1.9991 0.9711
6.0731 3.6033 -1.9991 0.9711
5.7875 4.0183 -1.9946 0.9711
5.2289 4.2137 -1.9011 0.9725
4.7763 4.4469 -1.8475 0.9732
4.6147 4.6147 -1.8475 0.9732
2.7123 5.9390 -1.8483 0.9732
2.3321 5.6301 -1.7252 0.9750
1.3883 6.3817 -1.8489 0.9732
0.4660 6.5158 -1.8493 0.9732
0.2332 6.5286 -1.8494 0.9732
-0.0000 6.5331 -1.8495 0.9732
-0.2332 6.5293 -1.8496 0.9732
-0.6985 6.4967 -1.8498 0.9732
-0.9300 6.4680 -1.8499 0.9732
-1.1603 6.4310 -1.8500 0.9732
-1.3892 6.3859 -1.8501 0.9732
-1.6163 6.3326 -1.8502 0.9732
-1.8414 6.2712 -1.8503 0.9732
-2.3314 5.6284 -1.7246 0.9750
-2.4859 5.4433 -1.6940 0.9754
-2.6923 5.3785 -1.7027 0.9753
-2.9251 5.3570 -1.7279 0.9749
-3.1793 5.3584 -1.7639 0.9744
-3.7226 5.3615 -1.8478 0.9732
-3.9187 5.2348 -1.8512 0.9732
-4.6246 4.6246 -1.8515 0.9732
-4.9431 4.2832 -1.8516 0.9732
-5.2722 4.2486 -1.9168 0.9722
-5.9540 3.8264 -2.0036 0.9710
-6.2142 3.3932 -2.0044 0.9710
-6.4408 2.9414 -2.0045 0.9710
-6.5418 2.7097 -2.0045 0.9710
-6.6345 2.4745 -2.0046 0.9710
-6.7944 1.9950 -2.0046 0.9710
-6.8614 1.7513 -2.0047 0.9710
-6.9196 1.5053 -2.0047 0.9710
-6.9690 1.2574 -2.0047 0.9710
-7.0095 1.0078 -2.0047 0.9710
-7.0411 0.7570 -2.0048 0.9710
-7.0772 0.2528 -2.0048 0.9710
6.4990 0.0000 -1.9990 0.9732
6.4618 0.6947 -1.9990 0.9732
6.4330 0.9249 -1.9990 0.9732
6.2361 1.8311 -1.9991 0.9732
6.1668 2.0525 -1.9991 0.9732
6.0049 2.4873 -1.9992 0.9732
5.9124 2.7001 -1.9992 0.9732
5.8124 2.9094 -1.9992 0.9732
5.5902 3.3168 -1.9993 0.9732
5.3396 3.7074 -1.9994 0.9732
4.8490 4.2017 -1.9735 0.9735
4.2477 4.2477 -1.8477 0.9752
4.0936 4.3968 -1.8477 0.9752
3.9342 4.5403 -1.8478 0.9752
3.7697 4.6780 -1.8479 0.9752
3.2485 5.0547 -1.8481 0.9752
3.0661 5.1676 -1.8482 0.9752
2.8798 5.2740 -1.8483 0.9752
2.6899 5.3737 -1.8483 0.9752
1.8981 5.7028 -1.8487 0.9752
1.4866 5.8243 -1.8488 0.9752
1.0674 5.9160 -1.8490 0.9752
0.6427 5.9777 -1.8492 0.9752
0.4289 5.9971 -1.8493 0.9752
0.2146 6.0089 -1.8494 0.9752
0.0000 6.0130 -1.8495 0.9751
-0.6429 5.9795 -1.8498 0.9751
-0.8559 5.9530 -1.8498 0.9751
-2.1024 5.6367 -1.8504 0.9751
-2.4452 5.3543 -1.8105 0.9757
-2.8837 5.2811 -1.8507 0.9751
-3.0705 5.1750 -1.8508 0.9751
-3.7763 4.6862 -1.8511 0.9751
-3.9413 4.5485 -1.8512 0.9751
-4.2611 4.2611 -1.8535 0.9751
-4.5606 4.2461 -1.9166 0.9743
-4.8862 4.2339 -1.9886 0.9733
-5.0602 4.0778 -1.9989 0.9732
-5.3519 3.7159 -2.0040 0.9731
-5.4813 3.5226 -2.0041 0.9731
-5.6037 3.3248 -2.0041 0.9731
-5.7189 3.1228 -2.0042 0.9731
-5.8269 2.9167 -2.0042 0.9731
-5.9274 2.7070 -2.0043 0.9731
-6.0204 2.4937 -2.0043 0.9731
-6.1057 2.2773 -2.0043 0.9731
-6.1832 2.0579 -2.0044 0.9731
-6.2528 1.8360 -2.0044 0.9731
-6.3680 1.3853 -2.0045 0.9731
-6.4135 1.1571 -2.0045 0.9731
-6.4798 0.6966 -2.0045 0.9731
-6.5006 0.4649 -2.0045 0.9731
-6.5130 0.2326 -2.0045 0.9731
6.0142 -0.0000 -1.9992 0.9750
5.9989 0.4291 -1.9992 0.9750
5.9798 0.6429 -1.9992 0.9750
5.8769 1.2784 -1.9992 0.9750
5.8276 1.4874 -1.9992 0.9750
5.7709 1.6945 -1.9993 0.9750
5.3787 2.6924 -1.9994 0.9750
5.2793 2.8827 -1.9995 0.9750
4.9413 3.4308 -1.9996 0.9750
4.6832 3.7740 -1.9993 0.9750
4.5395 3.9335 -1.9966 0.9750
4.3906 4.0878 -1.9941 0.9750
4.2035 4.2035 -1.9760 0.9753
3.9251 4.2159 -1.9147 0.9760
3.6628 4.2271 -1.8592 0.9767
3.1709 4.5670 -1.8481 0.9768
3.0060 4.6775 -1.8482 0.9768
2.8373 4.7820 -1.8483 0.9768
2.6649 4.8804 -1.8484 0.9768
2.4891 4.9726 -1.8484 0.9768
2.3101 5.0585 -1.8485 0.9768
2.1282 5.1379 -1.8486 0.9768
1.9435 5.2108 -1.8487 0.9768
1.7564 5.2771 -1.8487 0.9768
1.5670 5.3366 -1.8488 0.9768
0.3969 5.5493 -1.8493 0.9768
-0.1986 5.5607 -1.8496 0.9768
-0.9881 5.4768 -1.8499 0.9768
-1.5681 5.3405 -1.8502 0.9768
-1.9453 5.2155 -1.8503 0.9768
-2.4920 4.9783 -1.8506 0.9768
-2.6682 4.8864 -1.8506 0.9768
-2.8410 4.7883 -1.8507 0.9768
-3.0102 4.6840 -1.8508 0.9768
-3.1756 4.5737 -1.8509 0.9768
-3.3370 4.4577 -1.8509 0.9768
-3.6840 4.2516 -1.8700 0.9766
-3.9495 4.2420 -1.9266 0.9759
-4.3998 4.0963 -1.9982 0.9750
-4.5493 3.9420 -2.0009 0.9749
-4.6936 3.7823 -2.0037 0.9749
-4.9518 3.4381 -2.0038 0.9749
-5.0715 3.2592 -2.0039 0.9749
-5.2913 2.8893 -2.0040 0.9749
-5.3912 2.6986 -2.0040 0.9749
-5.5702 2.3073 -2.0041 0.9749
-5.6491 2.1070 -2.0042 0.9749
-5.7852 1.6987 -2.0042 0.9749
-5.8422 1.4912 -2.0042 0.9749
-5.8918 1.2817 -2.0043 0.9749
-6.0144 0.4302 -2.0043 0.9749
5.5874 0.1996 -1.9994 0.9765
5.5022 0.9927 -1.9994 0.9765
5.4174 1.3827 -1.9994 0.9765
5.3051 1.7657 -1.9995 0.9765
5.2387 1.9539 -1.9995 0.9765
5.0862 2.3228 -1.9995 0.9765
4.9077 2.6798 -1.9996 0.9765
4.8090 2.8533 -1.9997 0.9765
4.5934 3.1892 -1.9997 0.9765
4.4767 3.3512 -1.9998 0.9765
4.0912 3.8090 -1.9990 0.9765
3.6421 4.2032 -1.9889 0.9767
2.9476 4.2454 -1.8482 0.9783
2.7943 4.3480 -1.8483 0.9783
2.4772 4.5367 -1.8484 0.9783
2.3138 4.6223 -1.8485 0.9783
2.1474 4.7022 -1.8486 0.9783
1.9783 4.7760 -1.8486 0.9783
1.6326 4.9054 -1.8488 0.9783
1.4566 4.9607 -1.8489 0.9783
0.9181 5.0886 -1.8491 0.9783
0.3689 5.1582 -1.8493 0.9783
0.1846 5.1683 -1.8494 0.9783
0.0000 5.1718 -1.8495 0.9783
-0.1846 5.1688 -1.8496 0.9783
-0.5529 5.1429 -1.8497 0.9783
-0.7362 5.1201 -1.8498 0.9783
-0.9185 5.0908 -1.8499 0.9783
-1.0996 5.0550 -1.8500 0.9783
-1.6339 4.9091 -1.8502 0.9783
-1.8081 4.8478 -1.8503 0.9783
-1.9801 4.7804 -1.8503 0.9783
-2.1495 4.7068 -1.8504 0.9783
-2.3163 4.6273 -1.8505 0.9783
-2.4800 4.5419 -1.8506 0.9783
-2.6407 4.4506 -1.8506 0.9783
-2.9553 4.2564 -1.8530 0.9782
-3.1777 4.2449 -1.8962 0.9777
-3.4140 4.2366 -1.9457 0.9772
-3.6548 4.2179 -1.9958 0.9766
-3.9555 3.9555 -2.0004 0.9765
-4.4854 3.3577 -2.0036 0.9765
-4.6025 3.1955 -2.0037 0.9765
-4.7137 3.0293 -2.0037 0.9765
-5.0109 2.5082 -2.0039 0.9765
-5.1772 2.1445 -2.0039 0.9765
-5.2505 1.9583 -2.0040 0.9765
-5.3172 1.7697 -2.0040 0.9765
-5.4761 1.1913 -2.0041 0.9765
-5.5152 0.9951 -2.0041 0.9765
-5.5722 0.5991 -2.0041 0.9765
-5.6008 0.2000 -2.0042 0.9765
5.2177 0.0000 -1.9995 0.9779
5.2044 0.3722 -1.9995 0.9779
5.1878 0.5577 -1.9995 0.9779
5.1646 0.7426 -1.9995 0.9779
5.0065 1.4701 -1.9996 0.9779
4.8890 1.8235 -1.9996 0.9779
4.5800 2.5009 -1.9998 0.9779
4.2867 2.9763 -1.9999 0.9779
4.1778 3.1275 -1.9999 0.9779
4.0636 3.2747 -2.0000 0.9779
3.9443 3.4177 -2.0000 0.9779
3.8199 3.5564 -2.0001 0.9779
3.5547 3.8180 -1.9991 0.9779
3.1173 4.1643 -1.9934 0.9780
2.5079 4.2268 -1.8834 0.9792
2.1592 4.3136 -1.8486 0.9795
1.8461 4.4569 -1.8487 0.9795
1.6859 4.5202 -1.8488 0.9795
1.5236 4.5776 -1.8488 0.9795
1.1932 4.6750 -1.8490 0.9795
1.0256 4.7148 -1.8491 0.9795
0.8567 4.7486 -1.8491 0.9795
0.6867 4.7763 -1.8492 0.9795
0.5158 4.7980 -1.8493 0.9795
0.1723 4.8230 -1.8494 0.9795
-0.3443 4.8143 -1.8496 0.9795
-0.6870 4.7779 -1.8498 0.9795
-0.8571 4.7505 -1.8499 0.9795
-1.0261 4.7171 -1.8499 0.9795
-1.1939 4.6776 -1.8500 0.9795
-1.3601 4.6322 -1.8501 0.9795
-1.5247 4.5809 -1.8502 0.9795
-1.6873 4.5237 -1.8502 0.9795
-2.1614 4.3179 -1.8504 0.9795
-2.7229 4.2370 -1.9301 0.9787
-2.9368 4.2297 -1.9733 0.9782
-3.4183 3.9449 -2.0003 0.9779
-4.1853 3.1331 -2.0035 0.9779
-4.7563 2.1721 -2.0038 0.9779
-4.8309 2.0010 -2.0038 0.9779
-4.9615 1.6513 -2.0039 0.9778
-5.0667 1.2932 -2.0039 0.9778
-5.2161 0.3731 -2.0040 0.9778
-5.2261 0.1867 -2.0040 0.9778
4.8859 0.0000 -1.9997 0.9791
4.8827 0.1744 -1.9997 0.9791
4.8734 0.3486 -1.9997 0.9791
4.7342 1.2083 -1.9997 0.9791
4.6360 1.5430 -1.9997 0.9791
4.5143 1.8699 -1.9998 0.9791
4.3695 2.1872 -1.9999 0.9791
4.2025 2.4934 -1.9999 0.9791
4.1109 2.6419 -2.0000 0.9791
4.0140 2.7870 -2.0000 0.9791
3.8051 3.0664 -2.0001 0.9791
3.5769 3.3302 -2.0002 0.9791
3.4558 3.4558 -2.0002 0.9791
3.2006 3.6937 -2.0003 0.9791
2.7818 4.0065 -1.9963 0.9791
2.4852 4.1886 -1.9933 0.9792
2.3002 4.2125 -1.9644 0.9795
1.9297 4.2255 -1.9012 0.9801
1.2728 4.3347 -1.8490 0.9807
1.1173 4.3775 -1.8490 0.9807
0.9604 4.4147 -1.8491 0.9807
0.6430 4.4723 -1.8492 0.9807
0.4830 4.4926 -1.8493 0.9807
-0.0000 4.5190 -1.8495 0.9807
-0.1613 4.5163 -1.8496 0.9807
-0.3224 4.5078 -1.8496 0.9807
-0.4831 4.4936 -1.8497 0.9807
-0.6432 4.4736 -1.8498 0.9807
-0.9608 4.4167 -1.8499 0.9807
-1.1179 4.3797 -1.8500 0.9807
-1.4276 4.2891 -1.8501 0.9807
-2.4881 4.1935 -1.9957 0.9791
-2.6383 4.1053 -1.9972 0.9791
-3.2050 3.6988 -2.0031 0.9791
-3.3351 3.5822 -2.0031 0.9791
-3.4609 3.4609 -2.0032 0.9791
-3.5824 3.3353 -2.0033 0.9791
-4.0210 2.7918 -2.0034 0.9791
-4.2966 2.3461 -2.0036 0.9791
-4.3777 2.1913 -2.0036 0.9791
-4.6453 1.5461 -2.0037 0.9791
-4.6975 1.3793 -2.0038 0.9791
-4.7438 1.2108 -2.0038 0.9791
-2.1703 0.3916 -0.9026 0.9905
-1.9570 0.2104 -0.8055 0.9915
4.5623 0.4905 -1.9998 0.9802
4.5419 0.6530 -1.9998 0.9802
4.4838 0.9754 -1.9998 0.9802
4.3540 1.4491 -1.9999 0.9802
4.1743 1.9063 -1.9999 0.9802
4.0277 2.1993 -2.0000 0.9802
3.7698 2.6174 -2.0001 0.9802
3.6740 2.7503 -2.0001 0.9802
3.5736 2.8798 -2.0002 0.9802
3.3592 3.1275 -2.0003 0.9802
3.2455 3.2455 -2.0003 0.9802
3.1277 3.3594 -2.0004 0.9802
2.7509 3.6747 -2.0005 0.9802
2.6177 3.7702 -2.0004 0.9802
2.1953 4.0203 -1.9963 0.9802
2.0492 4.0937 -1.9951 0.9802
1.9007 4.1620 -1.9941 0.9802
1.5724 4.2158 -1.9610 0.9806
1.4047 4.2205 -1.9386 0.9808
1.2405 4.2248 -1.9190 0.9810
0.1516 4.2457 -1.8515 0.9816
-0.1517 4.2465 -1.8519 0.9816
-0.3036 4.2445 -1.8545 0.9816
-0.4561 4.2419 -1.8593 0.9816
-0.6098 4.2410 -1.8673 0.9815
-0.7649 4.2397 -1.8775 0.9814
-0.9219 4.2379 -1.8901 0.9813
-1.0811 4.2357 -1.9052 0.9811
-2.1975 4.0245 -1.9984 0.9802
-2.3414 3.9463 -1.9998 0.9802
-2.6210 3.7749 -2.0028 0.9801
-3.1319 3.3639 -2.0031 0.9801
-3.2500 3.2500 -2.0031 0.9801
-3.3640 3.1320 -2.0032 0.9801
-3.4738 3.0100 -2.0032 0.9801
-3.5791 2.8842 -2.0033 0.9801
-3.6798 2.7547 -2.0033 0.9801
-3.8671 2.4852 -2.0034 0.9801
-4.1108 2.0577 -2.0035 0.9801
-1.5984 0.5962 -0.7435 0.9926
-1.5875 0.5284 -0.7292 0.9927
-1.5214 0.3310 -0.6786 0.9932
-1.5249 0.1639 -0.6684 0.9933
4.3178 0.1542 -1.9999 0.9811
4.3095 0.3082 -1.9999 0.9811
4.2958 0.4618 -1.9999 0.9811
4.2519 0.7671 -1.9999 0.9811
4.2218 0.9184 -1.9999 0.9811
3.7924 2.0708 -2.0001 0.9811
3.6351 2.3362 -2.0002 0.9811
3.5495 2.4645 -2.0002 0.9811
3.3648 2.7115 -2.0003 0.9811
3.2659 2.8299 -2.0003 0.9811
3.0558 3.0558 -2.0004 0.9811
2.5901 3.4600 -2.0006 0.9811
2.4650 3.5503 -2.0007 0.9811
2.3368 3.6361 -2.0007 0.9811
2.0709 3.7927 -2.0002 0.9811
1.7932 3.9266 -1.9981 0.9812
1.5071 4.0408 -1.9963 0.9812
1.0655 4.1745 -1.9943 0.9812
0.9156 4.2088 -1.9937 0.9812
0.7604 4.2147 -1.9824 0.9813
0.6063 4.2172 -1.9722 0.9814
-0.0000 4.2226 -1.9546 0.9816
-0.1508 4.2229 -1.9560 0.9815
-0.3020 4.2228 -1.9597 0.9815
-1.0660 4.1766 -1.9953 0.9812
-1.2149 4.1374 -1.9960 0.9812
-1.3623 4.0931 -1.9968 0.9812
-1.6524 3.9893 -1.9987 0.9811
-2.2077 3.7208 -2.0027 0.9811
-2.3392 3.6397 -2.0027 0.9811
-2.4676 3.5541 -2.0028 0.9811
-2.5930 3.4638 -2.0028 0.9811
-2.8336 3.2702 -2.0029 0.9811
-3.1672 2.9487 -2.0031 0.9811
-3.2705 2.8339 -2.0031 0.9811
-3.5549 2.4682 -2.0032 0.9811
-3.6408 2.3398 -2.0033 0.9811
-3.7221 2.2084 -2.0033 0.9811
-3.8703 1.9373 -2.0034 0.9811
-1.3151 0.6006 -0.6692 0.9936
-1.3324 0.4970 -0.6582 0.9938
-1.3117 0.3348 -0.6266 0.9941
-1.3160 0.2374 -0.6190 0.9941
4.0773 -0.0000 -2.0000 0.9820
4.0747 0.1455 -2.0000 0.9820
4.0669 0.2909 -2.0000 0.9820
4.0539 0.4358 -2.0000 0.9820
3.9507 1.0084 -2.0000 0.9820
3.8204 1.4249 -2.0001 0.9820
3.7671 1.5604 -2.0001 0.9820
3.7091 1.6939 -2.0001 0.9820
3.6463 1.8252 -2.0002 0.9820
3.5789 1.9542 -2.0002 0.9820
3.5069 2.0807 -2.0002 0.9820
3.4305 2.2046 -2.0003 0.9820
3.1753 2.5588 -2.0004 0.9820
2.9848 2.7789 -2.0004 0.9820
2.8837 2.8838 -2.0005 0.9820
2.7791 2.9849 -2.0005 0.9820
2.4442 3.2651 -2.0007 0.9820
2.3262 3.3504 -2.0007 0.9820
2.2052 3.4313 -2.0008 0.9820
2.0814 3.5079 -2.0008 0.9820
1.9549 3.5801 -2.0009 0.9820
1.4249 3.8204 -2.0001 0.9820
1.0074 3.9470 -1.9981 0.9820
0.8657 3.9794 -1.9977 0.9820
0.5794 4.0296 -1.9969 0.9820
0.2904 4.0599 -1.9966 0.9820
-0.0000 4.0702 -1.9965 0.9820
-0.1453 4.0679 -1.9967 0.9820
-0.4352 4.0481 -1.9971 0.9820
-0.5795 4.0307 -1.9975 0.9820
-1.0079 3.9488 -1.9991 0.9820
-1.5622 3.7714 -2.0024 0.9820
-1.8273 3.6505 -2.0025 0.9820
-2.2073 3.4346 -2.0027 0.9820
-2.3285 3.3537 -2.0027 0.9820
-2.4468 3.2685 -2.0028 0.9820
-2.5620 3.1792 -2.0028 0.9820
-2.6739 3.0858 -2.0029 0.9820
-2.8873 2.8873 -2.0030 0.9820
-3.0861 2.6741 -2.0030 0.9820
-3.2691 2.4472 -2.0031 0.9820
-3.3545 2.3291 -2.0032 0.9820
-3.5122 2.0839 -2.0032 0.9820
-1.1292 0.5652 -0.6194 0.9944
-1.1544 0.4305 -0.6043 0.9945
-1.1579 0.3854 -0.5986 0.9946
-1.1590 0.3403 -0.5925 0.9946
-1.1695 0.2544 -0.5871 0.9947
-1.1791 0.2127 -0.5877 0.9947
-1.1867 0.1706 -0.5881 0.9947
-1.1921 0.1282 -0.5881 0.9947
-1.1954 0.0855 -0.5878 0.9947
-1.1965 0.0427 -0.5873 0.9947
3.8554 0.0000 -2.0001 0.9828
3.8456 0.2750 -2.0001 0.9828
3.8333 0.4121 -2.0001 0.9828
3.8162 0.5487 -2.0001 0.9828
3.7942 0.6845 -2.0001 0.9828
3.7673 0.8195 -2.0001 0.9828
3.7357 0.9535 -2.0001 0.9828
3.6582 1.2176 -2.0002 0.9828
3.6125 1.3474 -2.0002 0.9828
3.5621 1.4755 -2.0002 0.9828
3.5072 1.6017 -2.0002 0.9828
3.4479 1.7259 -2.0003 0.9828
3.2437 2.0846 -2.0003 0.9828
3.1673 2.1991 -2.0004 0.9828
3.0025 2.4196 -2.0004 0.9828
2.9142 2.5252 -2.0005 0.9828
2.8223 2.6277 -2.0005 0.9828
2.5254 2.9145 -2.0006 0.9828
2.4198 3.0028 -2.0007 0.9828
2.3112 3.0874 -2.0007 0.9828
2.1996 3.1680 -2.0008 0.9828
2.0851 3.2445 -2.0008 0.9828
1.8484 3.3852 -2.0009 0.9828
1.7265 3.4491 -2.0010 0.9828
0.8200 3.7694 -2.0012 0.9828
0.6848 3.7956 -2.0009 0.9828
0.2750 3.8458 -2.0002 0.9828
0.1376 3.8531 -2.0002 0.9828
-0.2751 3.8463 -2.0005 0.9828
-0.4123 3.8345 -2.0007 0.9828
-0.5490 3.8180 -2.0011 0.9828
-0.6850 3.7968 -2.0015 0.9828
-0.9544 3.7394 -2.0021 0.9828
-1.2188 3.6620 -2.0022 0.9828
-1.7278 3.4517 -2.0025 0.9828
-1.8499 3.3879 -2.0025 0.9828
-1.9697 3.3198 -2.0026 0.9828
-2.0870 3.2474 -2.0026 0.9828
-2.2016 3.1709 -2.0027 0.9828
-2.3135 3.0904 -2.0027 0.9828
-2.5282 2.9177 -2.0028 0.9828
-2.6308 2.8256 -2.0028 0.9828
-2.7300 2.7300 -2.0029 0.9828
-2.8258 2.6308 -2.0029 0.9828
-2.9179 2.5284 -2.0030 0.9828
-3.0063 2.4227 -2.0030 0.9828
-3.1716 2.2021 -2.0031 0.9828
-1.0576 0.3945 -0.5856 0.9949
-1.0636 0.3123 -0.5751 0.9950
-1.0704 0.2732 -0.5731 0.9950
-1.0974 0.1578 -0.5752 0.9950
-1.1055 0.0791 -0.5750 0.9950
-1.1066 0.0395 -0.5744 0.9950
3.6520 0.0000 -2.0002 0.9835
3.6496 0.1303 -2.0002 0.9835
3.6310 0.3904 -2.0002 0.9835
3.5041 1.0289 -2.0002 0.9835
3.4652 1.1533 -2.0003 0.9835
3.4218 1.2763 -2.0003 0.9835
3.3741 1.3976 -2.0003 0.9835
3.3221 1.5172 -2.0003 0.9835
3.2055 1.7503 -2.0004 0.9835
3.0726 1.9746 -2.0004 0.9835
2.8440 2.2918 -2.0005 0.9835
2.6733 2.4890 -2.0006 0.9835
2.5829 2.5829 -2.0006 0.9835
2.3921 2.7607 -2.0007 0.9835
2.2921 2.8443 -2.0007 0.9835
2.1892 2.9244 -2.0008 0.9835
2.0834 3.0007 -2.0008 0.9835
1.9751 3.0733 -2.0009 0.9835
1.8642 3.1419 -2.0009 0.9835
1.7509 3.2065 -2.0010 0.9835
1.3982 3.3755 -2.0011 0.9835
1.2768 3.4234 -2.0012 0.9835
1.1539 3.4669 -2.0012 0.9835
1.0294 3.5059 -2.0013 0.9835
0.9037 3.5405 -2.0013 0.9835
0.6488 3.5962 -2.0014 0.9835
-0.0000 3.6547 -2.0017 0.9835
-0.1305 3.6525 -2.0018 0.9835
-0.2607 3.6456 -2.0018 0.9835
-0.3907 3.6341 -2.0019 0.9835
-0.6490 3.5972 -2.0020 0.9835
-0.7770 3.5718 -2.0020 0.9835
-1.3990 3.3775 -2.0023 0.9835
-1.5187 3.3255 -2.0024 0.9835
-1.6365 3.2693 -2.0024 0.9835
-1.9768 3.0758 -2.0026 0.9835
-2.0853 3.0034 -2.0026 0.9835
-2.3946 2.7635 -2.0027 0.9835
-2.4918 2.6763 -2.0028 0.9835
-2.5857 2.5857 -2.0028 0.9835
-2.6764 2.4918 -2.0029 0.9835
-2.9276 2.1916 -2.0030 0.9835
-0.8661 0.6014 -0.5775 0.9952
-0.8882 0.5708 -0.5782 0.9952
-0.9269 0.5061 -0.5784 0.9952
-0.9580 0.4375 -0.5768 0.9952
-0.9785 0.3257 -0.5648 0.9953
-0.9820 0.2883 -0.5606 0.9953
-1.0190 0.1465 -0.5638 0.9953
-1.0236 0.1100 -0.5639 0.9953
-1.0265 0.0734 -0.5637 0.9953
2.0197 -0.0000 -1.1661 0.9907
2.0320 0.0726 -1.1739 0.9907
2.0366 0.2190 -1.1826 0.9906
2.0153 0.3636 -1.1823 0.9906
1.9616 0.5007 -1.1688 0.9907
1.9351 0.5682 -1.1644 0.9907
1.9033 0.6335 -1.1581 0.9908
1.8682 0.6968 -1.1512 0.9908
1.8507 0.8452 -1.1747 0.9906
3.0983 1.5509 -2.0004 0.9841
3.0410 1.6605 -2.0004 0.9841
2.9149 1.8733 -2.0005 0.9841
2.6981 2.1742 -2.0006 0.9841
2.6188 2.2692 -2.0006 0.9841
2.4503 2.4503 -2.0007 0.9841
2.3613 2.5362 -2.0007 0.9841
2.2694 2.6190 -2.0008 0.9841
1.8737 2.9155 -2.0009 0.9841
1.6610 3.0419 -2.0010 0.9841
1.5514 3.0993 -2.0011 0.9841
1.4398 3.1528 -2.0011 0.9841
1.2113 3.2476 -2.0012 0.9841
0.9766 3.3259 -2.0013 0.9841
0.8573 3.3588 -2.0013 0.9841
0.6155 3.4115 -2.0014 0.9841
0.4933 3.4314 -2.0015 0.9841
0.3706 3.4469 -2.0016 0.9841
0.2473 3.4581 -2.0016 0.9841
-0.0000 3.4671 -2.0017 0.9841
-0.1238 3.4649 -2.0018 0.9841
-0.2474 3.4584 -2.0018 0.9841
-0.3707 3.4475 -2.0019 0.9841
-0.4935 3.4321 -2.0019 0.9841
-0.6157 3.4124 -2.0020 0.9841
-0.7371 3.3884 -2.0020 0.9841
-0.9770 3.3273 -2.0021 0.9841
-1.3272 3.2041 -2.0023 0.9841
-1.4407 3.1547 -2.0023 0.9841
-1.6622 3.0441 -2.0024 0.9841
-2.1765 2.7009 -2.0027 0.9841
-2.2716 2.6215 -2.0027 0.9841
-2.3637 2.5388 -2.0027 0.9841
-2.5389 2.3638 -2.0028 0.9841
-2.6217 2.2717 -2.0029 0.9841
-0.8008 0.5560 -0.5628 0.9955
-0.8687 0.4349 -0.5609 0.9955
-0.9011 0.3361 -0.5553 0.9956
-0.9259 0.2363 -0.5517 0.9956
-0.9353 0.2034 -0.5526 0.9956
-0.9430 0.1701 -0.5532 0.9956
-0.9538 0.1025 -0.5538 0.9956
