ply
format ascii 1.0
element vertex 735
property float32 x
property float32 y
property float32 z
property float32 I
end_header
4.8295 5.1872 1.2497 0.9716
4.8295 5.1872 1.0857 0.9717
4.8294 5.1872 0.9229 0.9718
4.8293 5.1870 0.2795 0.9720
4.8292 5.1869 -0.0399 0.9720
4.8291 5.1868 -0.6804 0.9719
4.8290 5.1867 -0.8418 0.9719
4.7493 5.1011 -1.3100 0.9720
3.6119 5.2021 -1.1904 0.9746
9.4790 0.0000 -2.0037 0.9620
9.4730 0.3383 -2.0037 0.9620
9.4246 1.0133 -2.0037 0.9620
9.2622 2.0149 -2.0036 0.9620
9.1843 2.3442 -2.0036 0.9620
8.9935 2.9933 -2.0036 0.9620
8.6083 3.9313 -2.0004 0.9620
8.3912 4.2004 -1.9835 0.9624
7.3668 4.7344 -1.8511 0.9648
7.0101 5.2477 -1.8510 0.9648
6.4085 5.9666 -1.8509 0.9648
4.6178 5.3293 -1.4906 0.9716
3.7563 5.0178 -1.3249 0.9747
4.7330 7.3648 -1.8505 0.9648
4.4670 7.5288 -1.8505 0.9648
3.6363 7.9624 -1.8503 0.9648
3.3497 8.0869 -1.8503 0.9648
3.0588 8.2011 -1.8502 0.9648
2.1644 8.4802 -1.8500 0.9649
1.5539 8.6125 -1.8499 0.9649
1.2454 8.6621 -1.8498 0.9649
0.6243 8.7283 -1.8497 0.9649
0.3123 8.7448 -1.8496 0.9649
-0.0000 8.7500 -1.8496 0.9649
-0.3123 8.7442 -1.8495 0.9649
-0.6242 8.7271 -1.8495 0.9649
-0.9352 8.6990 -1.8494 0.9649
-1.5533 8.6096 -1.8493 0.9649
-1.8596 8.5483 -1.8492 0.9649
-2.1634 8.4762 -1.8491 0.9649
-2.7624 8.2998 -1.8490 0.9649
-3.6335 7.9562 -1.8489 0.9649
-3.9150 7.8212 -1.8488 0.9649
-4.7282 7.3572 -1.8486 0.9649
-4.9876 7.1836 -1.8486 0.9649
-5.2407 7.0008 -1.8485 0.9649
-5.4871 6.8091 -1.8485 0.9649
-5.9586 6.4000 -1.8484 0.9649
-6.3997 5.9583 -1.8483 0.9649
-6.9995 5.2397 -1.8482 0.9649
-7.1819 4.9865 -1.8481 0.9649
-7.3551 4.7269 -1.8481 0.9649
-7.7351 4.2237 -1.8629 0.9646
-9.1675 2.3399 -1.9999 0.9621
-9.2451 2.0112 -1.9999 0.9621
-9.3109 1.6799 -1.9999 0.9621
8.5192 0.3043 -2.0035 0.9656
8.5029 0.6081 -2.0035 0.9656
8.4757 0.9112 -2.0035 0.9656
8.3891 1.5136 -2.0035 0.9656
8.3296 1.8120 -2.0034 0.9656
8.1790 2.4016 -2.0034 0.9656
7.8752 3.2620 -2.0034 0.9656
7.7537 3.5410 -2.0033 0.9656
6.6252 4.2578 -1.8509 0.9682
6.1318 4.9413 -1.8508 0.9682
5.7634 5.3660 -1.8507 0.9682
5.0274 5.0275 -1.6710 0.9712
4.7112 5.0602 -1.6249 0.9720
4.9407 6.1310 -1.8506 0.9682
3.7455 5.0034 -1.4689 0.9746
3.5887 5.1687 -1.4789 0.9745
4.0175 6.7711 -1.8504 0.9682
3.7731 6.9100 -1.8503 0.9682
3.5240 7.0400 -1.8503 0.9682
3.2704 7.1612 -1.8502 0.9682
1.6732 7.6913 -1.8499 0.9682
1.1201 7.7906 -1.8498 0.9682
0.8413 7.8254 -1.8497 0.9682
-0.0000 7.8698 -1.8496 0.9682
-0.2809 7.8645 -1.8495 0.9682
-0.8412 7.8240 -1.8494 0.9682
-1.3971 7.7436 -1.8493 0.9682
-1.6725 7.6886 -1.8492 0.9682
-2.2167 7.5492 -1.8491 0.9682
-2.4846 7.4651 -1.8491 0.9682
-2.7494 7.3714 -1.8490 0.9682
-3.2681 7.1561 -1.8489 0.9682
-3.7701 6.9043 -1.8488 0.9682
-4.0140 6.7652 -1.8488 0.9682
-4.2528 6.6174 -1.8487 0.9682
-4.7138 6.2969 -1.8486 0.9682
-4.9354 6.1245 -1.8486 0.9682
-5.1508 5.9443 -1.8486 0.9682
-5.3595 5.7565 -1.8485 0.9682
-5.9438 5.1503 -1.8484 0.9682
-6.1237 4.9348 -1.8484 0.9682
-6.4599 4.4852 -1.8483 0.9682
-7.0949 4.2096 -1.9389 0.9667
-7.9740 2.9741 -2.0002 0.9656
-8.0750 2.6876 -2.0002 0.9656
-8.2460 2.1047 -2.0001 0.9656
-8.3158 1.8090 -2.0001 0.9656
-8.3750 1.5110 -2.0001 0.9656
-8.4236 1.2111 -2.0001 0.9656
-8.4614 0.9097 -2.0001 0.9656
7.7373 0.0000 -2.0033 0.9685
7.7176 0.5520 -2.0033 0.9685
7.6929 0.8271 -2.0033 0.9685
7.6585 1.1011 -2.0033 0.9685
7.6143 1.3738 -2.0033 0.9685
7.4236 2.1798 -2.0033 0.9685
7.3410 2.4433 -2.0032 0.9685
7.0376 3.2140 -2.0032 0.9685
6.9183 3.4631 -2.0032 0.9685
6.6426 3.9412 -1.9998 0.9686
5.2312 4.8705 -1.8506 0.9709
4.5422 5.2421 -1.7959 0.9717
4.4845 5.5649 -1.8505 0.9709
3.1986 6.3901 -1.8502 0.9709
2.0130 6.8556 -1.8500 0.9709
1.2685 7.0310 -1.8498 0.9709
0.5096 7.1257 -1.8497 0.9709
-0.2550 7.1387 -1.8495 0.9709
-0.5096 7.1249 -1.8495 0.9709
-0.7635 7.1020 -1.8494 0.9709
-1.0165 7.0700 -1.8494 0.9709
-1.5182 6.9791 -1.8493 0.9709
-1.7663 6.9203 -1.8492 0.9709
-3.1965 6.3857 -1.8489 0.9709
-3.4222 6.2674 -1.8489 0.9709
-4.0723 5.8653 -1.8488 0.9709
-4.6756 5.3960 -1.8486 0.9709
-4.8652 5.2255 -1.8486 0.9709
-5.5589 4.4796 -1.8485 0.9709
-6.0697 4.2143 -1.9132 0.9699
-6.4771 4.1626 -1.9935 0.9687
-6.6342 3.9362 -1.9973 0.9686
-7.0277 3.2095 -2.0004 0.9686
-7.2386 2.6999 -2.0003 0.9686
-7.4127 2.1766 -2.0003 0.9686
-7.5490 1.6422 -2.0003 0.9686
-7.6027 1.3717 -2.0003 0.9686
-7.6811 0.8258 -2.0002 0.9686
7.0761 0.0000 -2.0032 0.9710
7.0716 0.2526 -2.0032 0.9710
7.0355 0.7564 -2.0032 0.9710
7.0040 1.0070 -2.0032 0.9710
6.9143 1.5041 -2.0032 0.9710
6.7893 1.9935 -2.0031 0.9710
6.7137 2.2346 -2.0031 0.9710
6.6296 2.4727 -2.0031 0.9710
6.4362 2.9393 -2.0031 0.9710
6.2100 3.3909 -2.0030 0.9710
6.0849 3.6104 -2.0030 0.9710
5.9484 3.8228 -2.0017 0.9710
5.7981 4.0257 -1.9982 0.9711
5.2313 4.2156 -1.9020 0.9725
4.9403 4.2808 -1.8506 0.9732
4.7843 4.4543 -1.8505 0.9732
4.6222 4.6222 -1.8505 0.9732
4.4542 4.7841 -1.8505 0.9732
3.5336 5.4984 -1.8503 0.9732
2.7149 5.9448 -1.8501 0.9732
2.5009 6.0378 -1.8501 0.9732
1.8410 6.2701 -1.8499 0.9732
0.9299 6.4676 -1.8498 0.9732
0.6984 6.4965 -1.8497 0.9732
0.4661 6.5172 -1.8497 0.9732
0.2332 6.5295 -1.8496 0.9732
-0.0000 6.5335 -1.8496 0.9732
-0.2332 6.5291 -1.8495 0.9732
-0.4661 6.5165 -1.8495 0.9732
-0.9297 6.4663 -1.8494 0.9732
-1.3886 6.3832 -1.8493 0.9732
-2.2826 6.1200 -1.8491 0.9732
-2.7133 5.9413 -1.8490 0.9732
-2.9236 5.8406 -1.8490 0.9732
-3.7247 5.3646 -1.8488 0.9732
-4.0977 5.0850 -1.8488 0.9732
-4.4499 4.7795 -1.8487 0.9732
-4.6176 4.6175 -1.8487 0.9732
-4.7793 4.4497 -1.8486 0.9732
-4.9350 4.2762 -1.8486 0.9732
-5.7917 4.0212 -1.9960 0.9711
-5.9416 3.8184 -1.9994 0.9711
-6.0776 3.6060 -2.0006 0.9710
-6.6209 2.4695 -2.0005 0.9711
-6.9047 1.5020 -2.0004 0.9711
-6.9539 1.2546 -2.0004 0.9711
-6.9942 1.0056 -2.0004 0.9711
-7.0257 0.7553 -2.0004 0.9711
-7.0481 0.5041 -2.0004 0.9711
6.5124 0.0000 -2.0031 0.9731
6.4751 0.6962 -2.0031 0.9731
6.2485 1.8347 -2.0030 0.9731
5.9236 2.7052 -2.0030 0.9731
5.8232 2.9149 -2.0029 0.9731
5.4780 3.5205 -2.0029 0.9731
5.2062 3.8973 -2.0003 0.9732
4.5278 4.2155 -1.9028 0.9744
3.7747 4.6842 -1.8503 0.9751
3.6051 4.8158 -1.8503 0.9751
3.4308 4.9413 -1.8503 0.9751
2.8828 5.2794 -1.8502 0.9751
1.2784 5.8768 -1.8498 0.9751
0.4290 5.9983 -1.8497 0.9751
-0.2146 6.0094 -1.8495 0.9751
-0.4290 5.9978 -1.8495 0.9751
-0.8557 5.9516 -1.8494 0.9752
-2.1010 5.6329 -1.8492 0.9752
-2.3007 5.5542 -1.8491 0.9752
-2.4974 5.4685 -1.8491 0.9752
-2.8810 5.2761 -1.8490 0.9752
-3.0674 5.1699 -1.8490 0.9752
-3.2499 5.0570 -1.8489 0.9752
-3.4283 4.9377 -1.8489 0.9752
-3.7717 4.6804 -1.8488 0.9752
-4.0958 4.3992 -1.8488 0.9752
-4.2501 4.2501 -1.8487 0.9752
-4.5284 4.2161 -1.9030 0.9744
-4.8505 4.2029 -1.9741 0.9735
-5.0512 4.0706 -1.9953 0.9732
-5.2010 3.8934 -1.9983 0.9732
-5.3431 3.7098 -2.0007 0.9731
-5.7089 3.1173 -2.0006 0.9731
-6.0941 2.2730 -2.0006 0.9731
-6.2407 1.8324 -2.0005 0.9731
-6.3554 1.3826 -2.0005 0.9731
-6.4007 1.1548 -2.0005 0.9731
-6.4378 0.9256 -2.0005 0.9731
-6.4667 0.6953 -2.0005 0.9731
-6.4874 0.4640 -2.0005 0.9731
-6.4998 0.2321 -2.0005 0.9731
6.0257 0.0000 -2.0030 0.9749
5.9912 0.6441 -2.0030 0.9749
5.9643 0.8576 -2.0030 0.9749
5.8879 1.2809 -2.0030 0.9749
5.8384 1.4902 -2.0029 0.9749
5.7172 1.9029 -2.0029 0.9749
5.6456 2.1057 -2.0029 0.9749
5.4809 2.5030 -2.0029 0.9749
5.3880 2.6971 -2.0029 0.9749
5.2883 2.8876 -2.0028 0.9749
5.1818 3.0745 -2.0028 0.9749
5.0687 3.2574 -2.0028 0.9749
4.9491 3.4362 -2.0028 0.9749
4.6900 3.7795 -2.0022 0.9749
4.5459 3.9391 -1.9995 0.9750
4.3966 4.0934 -1.9968 0.9750
3.9230 4.2136 -1.9137 0.9760
3.4927 4.3342 -1.8503 0.9768
3.3357 4.4560 -1.8502 0.9768
2.8401 4.7868 -1.8501 0.9768
2.6674 4.8850 -1.8501 0.9768
2.4913 4.9770 -1.8501 0.9768
1.9449 5.2145 -1.8500 0.9768
1.5679 5.3398 -1.8499 0.9768
1.3763 5.3922 -1.8499 0.9768
1.1829 5.4378 -1.8498 0.9768
0.9880 5.4764 -1.8498 0.9768
0.7919 5.5081 -1.8497 0.9768
0.5948 5.5327 -1.8497 0.9768
0.3970 5.5503 -1.8497 0.9768
0.1986 5.5608 -1.8496 0.9768
-0.1986 5.5606 -1.8495 0.9768
-0.3969 5.5498 -1.8495 0.9768
-0.5947 5.5320 -1.8495 0.9768
-0.7918 5.5071 -1.8494 0.9768
-0.9879 5.4752 -1.8494 0.9768
-1.1826 5.4364 -1.8493 0.9768
-1.5674 5.3379 -1.8493 0.9768
-2.3109 5.0601 -1.8491 0.9768
-2.4900 4.9743 -1.8491 0.9768
-2.6659 4.8822 -1.8490 0.9768
-3.0073 4.6794 -1.8490 0.9768
-3.6604 4.2244 -1.8580 0.9767
-4.2026 4.2026 -1.9756 0.9753
-4.3929 4.0900 -1.9951 0.9750
-4.6858 3.7761 -2.0004 0.9750
-4.8186 3.6072 -2.0008 0.9749
-5.0635 3.2542 -2.0008 0.9749
-5.1764 3.0713 -2.0007 0.9749
-5.2827 2.8846 -2.0007 0.9749
-5.3822 2.6942 -2.0007 0.9749
-5.4749 2.5003 -2.0007 0.9749
-5.5606 2.3033 -2.0007 0.9749
-5.7748 1.6957 -2.0006 0.9749
-5.8316 1.4885 -2.0006 0.9749
-5.8810 1.2794 -2.0006 0.9749
-5.9840 0.6433 -2.0006 0.9749
-6.0032 0.4294 -2.0006 0.9749
-6.0146 0.2148 -2.0006 0.9750
5.6008 0.0000 -2.0029 0.9765
5.5973 0.1999 -2.0029 0.9765
5.5438 0.7971 -2.0029 0.9765
5.5118 0.9945 -2.0029 0.9765
5.4728 1.1905 -2.0029 0.9765
5.3140 1.7687 -2.0028 0.9765
5.2475 1.9572 -2.0028 0.9765
5.0944 2.3265 -2.0028 0.9765
4.9154 2.6840 -2.0028 0.9765
4.6002 3.1940 -2.0027 0.9765
4.0963 3.8138 -2.0015 0.9765
3.6393 4.1999 -1.9873 0.9767
3.3926 4.2099 -1.9335 0.9773
2.9507 4.2498 -1.8502 0.9783
2.7971 4.3524 -1.8501 0.9783
2.6399 4.4493 -1.8501 0.9783
2.4794 4.5407 -1.8501 0.9783
2.3157 4.6262 -1.8500 0.9783
1.9797 4.7794 -1.8500 0.9783
1.6336 4.9083 -1.8499 0.9783
1.4574 4.9634 -1.8499 0.9783
1.2793 5.0121 -1.8498 0.9783
0.9184 5.0904 -1.8498 0.9783
0.7361 5.1199 -1.8497 0.9783
0.5529 5.1428 -1.8497 0.9783
0.3690 5.1591 -1.8497 0.9783
0.1846 5.1689 -1.8496 0.9783
-0.0000 5.1721 -1.8496 0.9783
-0.1846 5.1687 -1.8495 0.9783
-0.3690 5.1587 -1.8495 0.9783
-1.0993 5.0533 -1.8494 0.9783
-1.4569 4.9618 -1.8493 0.9783
-1.8071 4.8450 -1.8492 0.9783
-1.9788 4.7774 -1.8492 0.9783
-2.1481 4.7036 -1.8492 0.9783
-2.4781 4.5382 -1.8491 0.9783
-2.6384 4.4468 -1.8491 0.9783
-2.7954 4.3497 -1.8490 0.9783
-3.1586 4.2194 -1.8848 0.9779
-3.9499 3.9499 -1.9976 0.9765
-4.2287 3.6642 -2.0009 0.9765
-4.4792 3.3531 -2.0009 0.9765
-4.8118 2.8550 -2.0008 0.9765
-4.9106 2.6814 -2.0008 0.9765
-5.0031 2.5044 -2.0008 0.9765
-5.0893 2.3242 -2.0008 0.9765
-5.3681 1.5762 -2.0007 0.9765
-5.4209 1.3836 -2.0007 0.9765
-5.4668 1.1892 -2.0007 0.9765
-5.5625 0.5980 -2.0007 0.9765
-5.5803 0.3991 -2.0007 0.9765
-5.5910 0.1997 -2.0007 0.9765
5.2230 0.1865 -2.0028 0.9779
5.1964 0.5587 -2.0028 0.9779
5.1731 0.7438 -2.0028 0.9779
5.1432 0.9279 -2.0028 0.9779
5.1068 1.1109 -2.0028 0.9779
5.0639 1.2925 -2.0028 0.9779
4.8967 1.8264 -2.0028 0.9779
4.7538 2.1710 -2.0027 0.9779
4.6733 2.3393 -2.0027 0.9779
4.4944 2.6666 -2.0027 0.9779
4.3963 2.8254 -2.0027 0.9779
4.2926 2.9804 -2.0026 0.9779
4.1834 3.1317 -2.0026 0.9779
3.9493 3.4221 -2.0026 0.9779
3.6950 3.6950 -2.0025 0.9779
3.5585 3.8221 -2.0013 0.9779
2.1609 4.3169 -1.8500 0.9795
1.6870 4.5229 -1.8499 0.9795
1.5244 4.5802 -1.8499 0.9795
0.8570 4.7502 -1.8498 0.9795
0.6869 4.7777 -1.8497 0.9795
0.5159 4.7991 -1.8497 0.9795
-0.1723 4.8233 -1.8495 0.9795
-0.5159 4.7985 -1.8495 0.9795
-0.8569 4.7493 -1.8494 0.9795
-1.8466 4.4582 -1.8492 0.9795
-2.3125 4.2350 -1.8491 0.9795
-2.5039 4.2201 -1.8805 0.9792
-2.7075 4.2130 -1.9191 0.9788
-3.1184 4.1657 -1.9941 0.9780
-3.2681 4.0555 -1.9959 0.9779
-3.4141 3.9400 -1.9979 0.9779
-3.5561 3.8195 -1.9999 0.9779
-3.6923 3.6923 -2.0010 0.9779
-3.8217 3.5581 -2.0010 0.9779
-3.9462 3.4194 -2.0010 0.9779
-4.1800 3.1291 -2.0009 0.9779
-4.3925 2.8229 -2.0009 0.9779
-4.4904 2.6643 -2.0009 0.9779
-4.5826 2.5023 -2.0009 0.9779
-4.6689 2.3371 -2.0008 0.9779
-4.7493 2.1689 -2.0008 0.9779
-4.8919 1.8246 -2.0008 0.9779
-4.9538 1.6488 -2.0008 0.9779
-5.0588 1.2912 -2.0008 0.9779
-5.1380 0.9270 -2.0008 0.9779
-5.1910 0.5581 -2.0007 0.9779
-5.2175 0.1863 -2.0007 0.9779
4.8934 0.0000 -2.0028 0.9791
4.8903 0.1747 -2.0028 0.9791
4.8654 0.5231 -2.0027 0.9791
4.8156 0.8688 -2.0027 0.9791
4.7815 1.0402 -2.0027 0.9791
4.6429 1.5453 -2.0027 0.9791
4.5208 1.8726 -2.0027 0.9791
4.2946 2.3450 -2.0026 0.9791
4.0192 2.7906 -2.0026 0.9791
3.8098 3.0701 -2.0025 0.9791
3.6978 3.2041 -2.0025 0.9791
2.4870 4.1916 -1.9948 0.9792
2.1079 4.2112 -1.9274 0.9799
1.7487 4.2218 -1.8702 0.9804
1.5795 4.2349 -1.8499 0.9807
1.1178 4.3793 -1.8498 0.9807
0.8025 4.4477 -1.8497 0.9807
0.6432 4.4735 -1.8497 0.9807
0.4831 4.4935 -1.8497 0.9807
0.1613 4.5164 -1.8496 0.9807
-0.0000 4.5192 -1.8496 0.9807
-0.4831 4.4930 -1.8495 0.9807
-0.6431 4.4729 -1.8495 0.9807
-0.8023 4.4470 -1.8494 0.9807
-0.9605 4.4154 -1.8494 0.9807
-1.1175 4.3783 -1.8494 0.9807
-1.4269 4.2873 -1.8493 0.9807
-1.5790 4.2335 -1.8493 0.9807
-1.7488 4.2220 -1.8703 0.9804
-1.9258 4.2170 -1.8974 0.9802
-2.2962 4.2052 -1.9609 0.9795
-2.4858 4.1896 -1.9938 0.9792
-2.6357 4.1013 -1.9953 0.9791
-2.7826 4.0077 -1.9968 0.9791
-2.9263 3.9091 -1.9985 0.9791
-3.4573 3.4573 -2.0011 0.9791
-3.9140 2.9300 -2.0010 0.9791
-4.0160 2.7884 -2.0010 0.9791
-4.4471 2.0309 -2.0009 0.9791
-4.5167 1.8709 -2.0009 0.9791
-4.6386 1.5439 -2.0009 0.9791
-4.6907 1.3773 -2.0008 0.9791
-4.7770 1.0392 -2.0008 0.9791
-1.9308 0.0690 -0.7907 0.9917
4.5953 0.0000 -2.0027 0.9801
4.5923 0.1640 -2.0027 0.9801
4.5836 0.3278 -2.0027 0.9801
4.5689 0.4912 -2.0027 0.9801
4.5485 0.6540 -2.0027 0.9801
4.4902 0.9768 -2.0027 0.9801
4.3600 1.4512 -2.0026 0.9801
4.2453 1.7585 -2.0026 0.9801
4.1090 2.0568 -2.0026 0.9801
3.9517 2.3447 -2.0026 0.9802
3.7743 2.6206 -2.0025 0.9802
3.6784 2.7536 -2.0025 0.9802
3.4725 3.0089 -2.0025 0.9802
3.2489 3.2489 -2.0024 0.9802
3.1308 3.3628 -2.0024 0.9802
3.0088 3.4723 -2.0024 0.9802
2.8829 3.5775 -2.0024 0.9802
2.7533 3.6780 -2.0023 0.9802
2.6197 3.7731 -2.0019 0.9802
2.3404 3.9446 -1.9989 0.9802
2.1966 4.0229 -1.9976 0.9802
1.9017 4.1642 -1.9951 0.9802
1.7401 4.2011 -1.9818 0.9804
1.5687 4.2058 -1.9563 0.9806
1.4012 4.2100 -1.9337 0.9808
0.9179 4.2196 -1.8820 0.9813
0.6073 4.2238 -1.8597 0.9816
0.4545 4.2282 -1.8533 0.9816
0.3028 4.2333 -1.8496 0.9817
-0.1515 4.2412 -1.8495 0.9817
-0.4547 4.2281 -1.8533 0.9816
-0.7617 4.2220 -1.8697 0.9815
-0.9179 4.2197 -1.8820 0.9813
-1.0763 4.2170 -1.8968 0.9812
-1.2373 4.2138 -1.9140 0.9810
-1.4013 4.2102 -1.9338 0.9808
-1.5688 4.2060 -1.9564 0.9806
-1.7402 4.2013 -1.9819 0.9804
-2.4803 3.8595 -1.9994 0.9802
-2.6184 3.7712 -2.0009 0.9802
-2.7518 3.6760 -2.0012 0.9802
-2.8812 3.5754 -2.0012 0.9802
-3.1289 3.3607 -2.0012 0.9802
-3.2468 3.2468 -2.0011 0.9802
-3.3606 3.1288 -2.0011 0.9802
-3.5752 2.8811 -2.0011 0.9802
-3.6757 2.7516 -2.0010 0.9802
-3.7715 2.6186 -2.0010 0.9802
-3.8625 2.4823 -2.0010 0.9802
-3.9486 2.3428 -2.0010 0.9802
-4.0297 2.2004 -2.0010 0.9802
-4.2417 1.7570 -2.0009 0.9802
-1.5984 0.5962 -0.7435 0.9926
-1.5875 0.5284 -0.7292 0.9927
-1.5485 0.3952 -0.6965 0.9931
-1.5214 0.3310 -0.6786 0.9932
-1.5249 0.1640 -0.6684 0.9933
-1.5293 0.1094 -0.6682 0.9933
4.3264 0.0000 -2.0026 0.9811
4.3237 0.1544 -2.0026 0.9811
4.3016 0.4625 -2.0026 0.9811
4.1511 1.2189 -2.0026 0.9811
4.1049 1.3663 -2.0026 0.9811
3.7206 2.2075 -2.0025 0.9811
3.6394 2.3389 -2.0025 0.9811
3.5535 2.4673 -2.0025 0.9811
3.4632 2.5925 -2.0025 0.9811
3.2693 2.8329 -2.0024 0.9811
3.1661 2.9478 -2.0024 0.9811
2.9477 3.1661 -2.0024 0.9811
2.8328 3.2692 -2.0023 0.9811
2.7143 3.3682 -2.0023 0.9811
2.5923 3.4629 -2.0023 0.9811
2.3386 3.6389 -2.0022 0.9811
2.2072 3.7200 -2.0022 0.9811
2.0722 3.7949 -2.0014 0.9811
1.7941 3.9285 -1.9991 0.9811
1.2145 4.1363 -1.9955 0.9812
0.6044 4.2041 -1.9660 0.9815
0.4521 4.2056 -1.9579 0.9815
0.1503 4.2073 -1.9487 0.9816
-0.0000 4.2075 -1.9476 0.9816
-0.1503 4.2073 -1.9487 0.9816
-0.3009 4.2067 -1.9522 0.9816
-0.7582 4.2022 -1.9765 0.9814
-0.9136 4.1998 -1.9895 0.9812
-1.5073 4.0413 -1.9965 0.9812
-1.6513 3.9867 -1.9974 0.9812
-1.7935 3.9271 -1.9984 0.9812
-1.9335 3.8627 -1.9995 0.9811
-2.2062 3.7184 -2.0013 0.9811
-2.4658 3.5514 -2.0013 0.9811
-2.7128 3.3664 -2.0012 0.9811
-2.8312 3.2674 -2.0012 0.9811
-2.9460 3.1642 -2.0012 0.9811
-3.2672 2.8311 -2.0011 0.9811
-3.5510 2.4655 -2.0011 0.9811
-3.6367 2.3372 -2.0011 0.9811
-3.7178 2.2059 -2.0010 0.9811
-3.7942 2.0718 -2.0010 0.9811
-3.8656 1.9350 -2.0010 0.9811
-1.3263 0.5494 -0.6645 0.9937
-1.3324 0.4435 -0.6500 0.9938
-1.3241 0.3888 -0.6388 0.9939
-1.3116 0.3348 -0.6266 0.9941
-1.3160 0.2374 -0.6190 0.9941
-1.3351 0.1435 -0.6215 0.9941
-1.3384 0.0957 -0.6211 0.9941
4.0800 0.1457 -2.0026 0.9820
4.0592 0.4364 -2.0026 0.9820
3.9171 1.1502 -2.0026 0.9820
3.8736 1.2892 -2.0026 0.9820
3.7135 1.6959 -2.0025 0.9820
3.6506 1.8274 -2.0025 0.9820
3.5830 1.9565 -2.0025 0.9820
3.4343 2.2071 -2.0025 0.9820
3.3533 2.3282 -2.0024 0.9820
3.2680 2.4464 -2.0024 0.9820
2.9877 2.7816 -2.0024 0.9820
2.8865 2.8865 -2.0024 0.9820
2.5613 3.1784 -2.0023 0.9820
2.4462 3.2677 -2.0023 0.9820
2.3280 3.3529 -2.0022 0.9820
2.2068 3.4338 -2.0022 0.9820
2.0828 3.5104 -2.0022 0.9820
1.8270 3.6499 -2.0021 0.9820
1.6956 3.7128 -2.0021 0.9820
1.2876 3.8687 -2.0000 0.9820
1.1483 3.9107 -1.9993 0.9820
1.0076 3.9479 -1.9986 0.9820
0.7230 4.0076 -1.9975 0.9820
0.4351 4.0475 -1.9968 0.9820
0.2904 4.0599 -1.9966 0.9820
-0.0000 4.0698 -1.9963 0.9820
-0.7229 4.0070 -1.9973 0.9820
-0.8657 3.9795 -1.9977 0.9820
-1.0075 3.9471 -1.9982 0.9820
-1.1480 3.9098 -1.9988 0.9820
-1.4251 3.8208 -2.0003 0.9820
-1.8264 3.6486 -2.0014 0.9820
-1.9554 3.5810 -2.0014 0.9820
-2.0819 3.5089 -2.0014 0.9820
-2.2058 3.4323 -2.0013 0.9820
-2.3269 3.3514 -2.0013 0.9820
-2.4450 3.2661 -2.0013 0.9820
-2.5600 3.1768 -2.0013 0.9820
-2.6717 3.0833 -2.0012 0.9820
-2.7800 2.9860 -2.0012 0.9820
-2.9859 2.7800 -2.0012 0.9820
-3.0832 2.6716 -2.0012 0.9820
-3.1766 2.5598 -2.0011 0.9820
-3.2659 2.4448 -2.0011 0.9820
-3.3510 2.3267 -2.0011 0.9820
-3.5084 2.0816 -2.0011 0.9820
-1.1113 0.6068 -0.6211 0.9944
-1.1292 0.5652 -0.6194 0.9944
-1.1400 0.5206 -0.6148 0.9944
-1.1543 0.4306 -0.6043 0.9945
-1.1590 0.3403 -0.5925 0.9946
-1.1695 0.2544 -0.5871 0.9947
-1.1867 0.1706 -0.5881 0.9947
-1.1921 0.1282 -0.5881 0.9947
-1.1953 0.0855 -0.5878 0.9947
-1.1965 0.0427 -0.5873 0.9947
3.8601 0.0000 -2.0025 0.9828
3.8503 0.2754 -2.0025 0.9828
3.8380 0.4126 -2.0025 0.9828
3.7988 0.6854 -2.0025 0.9828
3.7719 0.8205 -2.0025 0.9828
3.7037 1.0875 -2.0025 0.9828
3.6166 1.3489 -2.0025 0.9828
3.5662 1.4772 -2.0025 0.9828
3.4517 1.7278 -2.0025 0.9828
3.3878 1.8499 -2.0025 0.9828
3.0900 2.3131 -2.0024 0.9828
3.0054 2.4219 -2.0024 0.9828
2.9170 2.5276 -2.0024 0.9828
2.8249 2.6301 -2.0023 0.9828
2.7292 2.7292 -2.0023 0.9828
2.6300 2.8248 -2.0023 0.9828
2.5275 2.9169 -2.0023 0.9828
2.4217 3.0052 -2.0023 0.9828
2.3129 3.0897 -2.0022 0.9828
1.7275 3.4511 -2.0021 0.9828
1.4768 3.5654 -2.0021 0.9828
1.3486 3.6158 -2.0020 0.9828
1.0872 3.7027 -2.0020 0.9828
0.8201 3.7701 -2.0016 0.9828
0.6849 3.7961 -2.0011 0.9828
0.4122 3.8339 -2.0004 0.9828
-0.5488 3.8170 -2.0005 0.9828
-0.6848 3.7956 -2.0009 0.9828
-0.8200 3.7695 -2.0013 0.9828
-1.0870 3.7019 -2.0016 0.9828
-1.3483 3.6149 -2.0015 0.9828
-1.6027 3.5094 -2.0015 0.9828
-1.7269 3.4499 -2.0014 0.9828
-1.8489 3.3860 -2.0014 0.9828
-1.9686 3.3178 -2.0014 0.9828
-2.0857 3.2454 -2.0014 0.9828
-2.5262 2.9154 -2.0013 0.9828
-2.7277 2.7277 -2.0012 0.9828
-2.8233 2.6286 -2.0012 0.9828
-1.0118 0.5525 -0.5981 0.9948
-1.0430 0.4763 -0.5948 0.9948
-1.0576 0.3945 -0.5856 0.9949
-1.0636 0.3123 -0.5751 0.9950
-1.0704 0.2732 -0.5731 0.9950
-1.0905 0.1968 -0.5749 0.9950
-1.1024 0.1185 -0.5752 0.9950
3.6562 0.0000 -2.0025 0.9835
3.6539 0.1305 -2.0025 0.9835
3.6469 0.2608 -2.0025 0.9835
3.6352 0.3908 -2.0025 0.9835
3.5981 0.6492 -2.0025 0.9835
3.5726 0.7772 -2.0025 0.9835
3.5426 0.9042 -2.0025 0.9835
3.5080 1.0301 -2.0025 0.9835
3.3778 1.3991 -2.0025 0.9835
3.2693 1.6365 -2.0024 0.9835
3.2088 1.7522 -2.0024 0.9835
2.9267 2.1909 -2.0024 0.9835
2.8466 2.2940 -2.0023 0.9835
2.2938 2.8465 -2.0022 0.9835
2.1908 2.9265 -2.0022 0.9835
1.8653 3.1438 -2.0022 0.9835
1.7519 3.2084 -2.0021 0.9835
1.1543 3.4682 -2.0020 0.9835
1.0298 3.5072 -2.0020 0.9835
0.7770 3.5716 -2.0019 0.9835
0.6490 3.5970 -2.0019 0.9835
0.5202 3.6179 -2.0019 0.9835
0.3907 3.6341 -2.0019 0.9835
0.2607 3.6456 -2.0018 0.9835
0.1305 3.6526 -2.0018 0.9835
-0.0000 3.6549 -2.0018 0.9835
-0.6489 3.5966 -2.0016 0.9835
-0.7768 3.5711 -2.0016 0.9835
-0.9038 3.5410 -2.0016 0.9835
-1.3985 3.3762 -2.0015 0.9835
-1.5181 3.3241 -2.0015 0.9835
-2.1898 2.9252 -2.0013 0.9835
-2.2928 2.8452 -2.0013 0.9835
-2.5837 2.5837 -2.0013 0.9835
-2.6743 2.4898 -2.0012 0.9835
-2.7614 2.3928 -2.0012 0.9835
-2.8450 2.2927 -2.0012 0.9835
-2.9250 2.1896 -2.0012 0.9835
-0.8882 0.5708 -0.5782 0.9952
-0.9269 0.5061 -0.5784 0.9952
-0.9580 0.4375 -0.5768 0.9952
-0.9677 0.4009 -0.5737 0.9952
-0.9785 0.3257 -0.5648 0.9953
-0.9938 0.2537 -0.5618 0.9953
-1.0039 0.2184 -0.5627 0.9953
-1.0190 0.1465 -0.5638 0.9953
1.9883 0.4325 -1.1748 0.9906
1.9351 0.5682 -1.1644 0.9907
1.8682 0.6968 -1.1512 0.9908
1.8507 0.8452 -1.1747 0.9906
2.9176 1.8751 -2.0024 0.9841
2.7764 2.0784 -2.0023 0.9841
2.6210 2.2711 -2.0023 0.9841
2.5382 2.3632 -2.0023 0.9841
2.3632 2.5382 -2.0023 0.9841
2.1760 2.7003 -2.0022 0.9841
2.0782 2.7762 -2.0022 0.9841
1.7695 2.9824 -2.0021 0.9841
1.2118 3.2490 -2.0020 0.9841
1.0950 3.2901 -2.0020 0.9841
0.9769 3.3271 -2.0020 0.9841
0.6156 3.4123 -2.0019 0.9841
0.1237 3.4650 -2.0018 0.9841
-0.0000 3.4672 -2.0018 0.9841
-0.1238 3.4649 -2.0018 0.9841
-0.4934 3.4317 -2.0017 0.9841
-0.6156 3.4119 -2.0017 0.9841
-0.7370 3.3877 -2.0016 0.9841
-0.9767 3.3264 -2.0016 0.9841
-1.7689 2.9813 -2.0014 0.9841
-1.8742 2.9162 -2.0014 0.9841
-2.0774 2.7750 -2.0014 0.9841
-2.1751 2.6991 -2.0013 0.9841
-2.3621 2.5370 -2.0013 0.9841
-2.5370 2.3620 -2.0013 0.9841
-2.6196 2.2699 -2.0013 0.9841
-0.7846 0.5873 -0.5658 0.9955
-0.8008 0.5560 -0.5628 0.9955
-0.8178 0.5256 -0.5613 0.9955
-0.8534 0.4660 -0.5614 0.9955
-0.8687 0.4349 -0.5609 0.9955
-0.8823 0.4029 -0.5600 0.9955
-0.8941 0.3703 -0.5587 0.9955
-0.9011 0.3361 -0.5553 0.9956
-0.9058 0.3015 -0.5511 0.9956
-0.9151 0.2687 -0.5506 0.9956
-0.9259 0.2363 -0.5517 0.9956
-0.9353 0.2035 -0.5526 0.9956
-0.9565 0.0684 -0.5536 0.9956
