ply
format ascii 1.0
element vertex 794
property float32 x
property float32 y
property float32 z
property float32 I
end_header
2.2198 5.3590 1.0228 0.9767
-4.7332 5.8736 1.3301 0.9698
-4.3353 4.6565 1.1218 0.9745
-7.6244 6.1441 1.7266 0.9610
2.2197 5.3589 0.8886 0.9768
-4.7434 5.8862 1.1581 0.9699
-4.3345 4.6556 0.9745 0.9746
-5.5633 5.1797 1.1645 0.9697
-5.6093 4.8605 1.1370 0.9704
2.2197 5.3589 0.7553 0.9769
-4.7435 5.8863 0.8118 0.9700
-6.0458 5.6288 0.8870 0.9673
-5.8154 5.8154 0.6962 0.9675
2.2196 5.3587 0.3597 0.9770
-6.2082 5.3794 0.5094 0.9676
-4.3306 4.6514 0.2506 0.9749
-6.0169 5.6020 0.3242 0.9676
-6.2083 5.3795 0.3239 0.9677
2.2196 5.3586 0.0980 0.9771
-5.8251 5.8251 0.1392 0.9676
-6.0170 5.6020 0.1389 0.9676
-6.2083 5.3795 0.1388 0.9677
2.2196 5.3585 -0.0327 0.9771
-5.8252 5.8252 -0.0464 0.9676
-6.0170 5.6021 -0.0463 0.9676
2.2195 5.3584 -0.1633 0.9771
-6.2084 5.3796 -0.2313 0.9677
-4.3276 4.6481 -0.3221 0.9749
-6.2085 5.3797 -0.4166 0.9676
2.2195 5.3583 -0.4253 0.9770
-4.3268 4.6473 -0.4656 0.9749
-6.0304 5.6145 -0.6041 0.9675
-9.8334 0.3512 -0.7215 0.9613
2.2195 5.3582 -0.5568 0.9770
-5.8182 5.8182 -0.7899 0.9675
-6.2009 5.3731 -0.7877 0.9676
-9.4466 0.6756 -0.9092 0.9627
-9.1880 0.3282 -0.8827 0.9637
-3.0041 5.0631 -0.6993 0.9766
-6.0099 5.5954 -0.9754 0.9675
2.2194 5.3581 -0.8217 0.9768
-2.9438 4.9615 -0.8174 0.9770
-4.3245 4.6448 -0.8992 0.9747
-5.8183 5.8183 -1.1659 0.9673
-6.0099 5.5954 -1.1635 0.9674
-8.3434 0.2980 -1.1829 0.9668
2.2194 5.3581 -0.9554 0.9768
-2.9439 4.9616 -0.9504 0.9769
-3.1150 4.8469 -0.9492 0.9769
-3.3751 4.8610 -0.9749 0.9763
-4.3237 4.6440 -1.0453 0.9746
-6.2010 5.3732 -1.3517 0.9673
-8.7675 0.9426 -1.4527 0.9649
-8.3132 0.2969 -1.3704 0.9668
2.2194 5.3580 -1.0901 0.9767
-2.9440 4.9618 -1.0844 0.9768
-3.1151 4.8471 -1.0830 0.9768
-3.3754 4.8614 -1.1124 0.9762
-5.8883 7.8659 -1.8468 0.9608
-6.4336 7.4248 -1.8466 0.9608
-5.8202 5.8201 -1.5471 0.9671
-6.0118 5.5972 -1.5439 0.9671
-6.2030 5.3749 -1.5427 0.9671
-7.8620 5.8854 -1.8459 0.9608
-8.0667 5.6008 -1.8458 0.9608
-8.2610 5.3091 -1.8458 0.9608
-8.4449 5.0106 -1.8457 0.9608
9.4904 0.0000 -2.0061 0.9619
9.4843 0.3387 -2.0061 0.9619
9.4359 1.0145 -2.0061 0.9619
9.3393 1.6850 -2.0060 0.9619
9.2731 2.0172 -2.0060 0.9619
9.0038 2.9967 -2.0059 0.9619
8.8908 3.3161 -2.0058 0.9619
7.7296 4.2207 -1.8616 0.9646
7.5390 4.4731 -1.8530 0.9648
7.2001 4.9991 -1.8528 0.9648
7.0168 5.2527 -1.8528 0.9648
6.4142 5.9718 -1.8525 0.9648
5.9711 6.4134 -1.8523 0.9648
5.2504 7.0138 -1.8520 0.9648
4.9964 7.1962 -1.8518 0.9648
4.7361 7.3695 -1.8517 0.9648
3.9204 7.8320 -1.8513 0.9648
2.1651 8.4826 -1.8505 0.9648
1.8608 8.5539 -1.8504 0.9648
1.5542 8.6142 -1.8503 0.9648
0.9355 8.7018 -1.8500 0.9649
0.6243 8.7289 -1.8498 0.9649
0.3123 8.7450 -1.8497 0.9649
-0.3123 8.7436 -1.8494 0.9649
-0.6241 8.7262 -1.8493 0.9649
-1.5530 8.6075 -1.8488 0.9649
-1.8591 8.5460 -1.8487 0.9649
-2.4636 8.3903 -1.8484 0.9649
-3.3456 8.0771 -1.8480 0.9649
-3.6316 7.9520 -1.8479 0.9649
-3.9128 7.8168 -1.8478 0.9649
-4.1890 7.6716 -1.8476 0.9649
-2.9441 4.9619 -1.2196 0.9767
-3.1152 4.8472 -1.2180 0.9767
-3.3757 4.8619 -1.2511 0.9761
-5.2368 6.9955 -1.8471 0.9649
-5.7218 6.6033 -1.8469 0.9649
-4.2391 4.5531 -1.3150 0.9749
-4.4899 4.4899 -1.3422 0.9744
-6.9925 5.2345 -1.8463 0.9649
-7.3474 4.7219 -1.8462 0.9649
-7.5110 4.4565 -1.8461 0.9649
-8.4111 4.2103 -1.9882 0.9623
-8.7315 3.6167 -1.9977 0.9621
-8.9668 2.9844 -1.9976 0.9621
-9.0674 2.6624 -1.9976 0.9621
-9.1565 2.3371 -1.9975 0.9621
-9.2339 2.0087 -1.9975 0.9621
-9.2995 1.6778 -1.9975 0.9621
-9.3953 1.0101 -1.9974 0.9621
-9.4253 0.6741 -1.9974 0.9621
8.5338 -0.0000 -2.0056 0.9655
8.5120 0.6088 -2.0056 0.9655
8.3980 1.5151 -2.0056 0.9655
8.3384 1.8139 -2.0056 0.9655
8.2682 2.1104 -2.0055 0.9655
8.1875 2.4041 -2.0055 0.9655
8.0963 2.6947 -2.0054 0.9655
7.8831 3.2653 -2.0053 0.9655
7.6250 3.8168 -2.0040 0.9656
7.0907 4.2071 -1.9377 0.9667
6.3098 4.7235 -1.8524 0.9681
5.7680 5.3702 -1.8522 0.9681
5.5723 5.5723 -1.8521 0.9681
5.3696 5.7674 -1.8520 0.9681
4.7216 6.3073 -1.8517 0.9681
4.4932 6.4715 -1.8516 0.9681
4.2592 6.6273 -1.8515 0.9681
2.3938 5.2417 -1.3543 0.9766
2.1734 5.2470 -1.3348 0.9769
2.2184 7.5550 -1.8506 0.9682
1.9471 7.6289 -1.8504 0.9682
1.6735 7.6930 -1.8503 0.9682
1.3978 7.7473 -1.8502 0.9682
1.1203 7.7917 -1.8501 0.9682
0.8414 7.8262 -1.8499 0.9682
0.5615 7.8507 -1.8498 0.9682
-0.2809 7.8641 -1.8494 0.9682
-0.5613 7.8485 -1.8493 0.9682
-0.8411 7.8229 -1.8492 0.9682
-1.1196 7.7874 -1.8490 0.9682
-1.3968 7.7419 -1.8489 0.9682
-1.6721 7.6866 -1.8488 0.9682
-1.9453 7.6215 -1.8487 0.9682
-2.4837 7.4623 -1.8484 0.9682
-2.7483 7.3684 -1.8483 0.9682
-3.0093 7.2652 -1.8482 0.9682
-3.2665 7.1527 -1.8480 0.9682
-3.5195 7.0311 -1.8479 0.9682
-3.7680 6.9006 -1.8478 0.9682
-2.9442 4.9621 -1.3560 0.9766
-4.7106 6.2926 -1.8474 0.9682
-4.9319 6.1201 -1.8473 0.9682
-5.1469 5.9399 -1.8472 0.9682
-4.4775 4.4775 -1.4882 0.9743
-5.7515 5.3549 -1.8469 0.9682
-6.1183 4.9304 -1.8467 0.9682
-7.8547 3.2535 -1.9981 0.9657
-7.9656 2.9710 -1.9981 0.9657
-8.0664 2.6848 -1.9980 0.9657
-8.2371 2.1024 -1.9980 0.9657
-8.3067 1.8070 -1.9979 0.9657
-8.3658 1.5094 -1.9979 0.9657
-8.4790 0.6064 -1.9978 0.9657
-8.4952 0.3034 -1.9978 0.9657
7.7448 -0.0000 -2.0053 0.9685
7.7399 0.2764 -2.0053 0.9685
7.7004 0.8279 -2.0053 0.9685
7.5039 1.9152 -2.0052 0.9685
7.4306 2.1818 -2.0051 0.9685
7.3479 2.4456 -2.0051 0.9685
7.2557 2.7063 -2.0051 0.9685
7.1544 2.9634 -2.0050 0.9685
7.0438 3.2168 -2.0050 0.9685
6.9244 3.4661 -2.0049 0.9685
6.0673 4.2126 -1.9125 0.9699
5.4058 4.6842 -1.8520 0.9709
5.2350 4.8739 -1.8519 0.9709
5.0574 5.0575 -1.8519 0.9709
4.0781 5.8736 -1.8514 0.9709
3.6483 6.1489 -1.8512 0.9709
2.1663 5.2299 -1.4657 0.9769
2.2571 6.7816 -1.8506 0.9709
2.0135 6.8574 -1.8505 0.9709
1.7674 6.9245 -1.8504 0.9709
1.2687 7.0321 -1.8501 0.9709
1.0169 7.0724 -1.8500 0.9709
-0.7634 7.1011 -1.8492 0.9709
-1.0163 7.0689 -1.8491 0.9709
-1.5179 6.9775 -1.8488 0.9709
-1.7658 6.9185 -1.8487 0.9709
-2.0115 6.8506 -1.8486 0.9709
-2.4948 6.6888 -1.8484 0.9709
-2.7318 6.5951 -1.8483 0.9709
-3.1950 6.3827 -1.8481 0.9709
-2.9443 4.9623 -1.4940 0.9764
-3.1154 4.8476 -1.4920 0.9765
-3.3764 4.8630 -1.5329 0.9758
-4.4773 5.5559 -1.8475 0.9709
-4.6725 5.3924 -1.8474 0.9709
-4.2057 4.5172 -1.5980 0.9748
-5.2214 4.8613 -1.8471 0.9710
-5.5545 4.4761 -1.8470 0.9710
-5.7104 4.2748 -1.8469 0.9710
-6.0804 4.2217 -1.9166 0.9699
-6.7750 3.6994 -1.9986 0.9686
-6.9025 3.4551 -1.9986 0.9686
-7.2317 2.6973 -1.9984 0.9686
-7.4782 1.9087 -1.9983 0.9686
-7.6391 1.0983 -1.9982 0.9686
-7.6734 0.8250 -1.9982 0.9686
-7.7126 0.2755 -1.9982 0.9686
7.0824 -0.0000 -2.0050 0.9710
7.0779 0.2528 -2.0050 0.9710
7.0643 0.5053 -2.0050 0.9710
7.0102 1.0079 -2.0049 0.9710
6.9697 1.2575 -2.0049 0.9710
6.9203 1.5054 -2.0049 0.9710
6.8621 1.7514 -2.0049 0.9710
6.7194 2.2364 -2.0048 0.9710
6.6352 2.4748 -2.0048 0.9710
6.5425 2.7100 -2.0047 0.9710
6.3322 3.1697 -2.0046 0.9710
5.6102 4.1998 -1.9839 0.9713
4.2830 4.9428 -1.8515 0.9732
3.9191 5.2353 -1.8513 0.9732
3.3365 5.6234 -1.8511 0.9732
3.1335 5.7386 -1.8510 0.9732
2.9266 5.8465 -1.8509 0.9732
2.3779 5.2070 -1.6205 0.9765
2.1592 5.2127 -1.5973 0.9768
2.0467 5.4875 -1.6580 0.9759
1.3892 6.3862 -1.8502 0.9732
0.6985 6.4970 -1.8499 0.9732
0.4661 6.5175 -1.8498 0.9732
0.2332 6.5296 -1.8497 0.9732
0.0000 6.5333 -1.8495 0.9732
-0.4660 6.5160 -1.8493 0.9732
-0.6983 6.4948 -1.8492 0.9732
-1.3883 6.3819 -1.8489 0.9732
-1.8398 6.2658 -1.8487 0.9732
-2.0622 6.1958 -1.8486 0.9732
-3.9115 5.2251 -1.8477 0.9732
-4.0953 5.0820 -1.8477 0.9732
-4.2739 4.9323 -1.8476 0.9732
-4.1901 4.5005 -1.7408 0.9748
-4.4611 4.4611 -1.7860 0.9741
-4.7761 4.4467 -1.8474 0.9732
-4.9315 4.2732 -1.8473 0.9732
-5.7877 4.0185 -1.9947 0.9711
-5.9375 3.8158 -1.9980 0.9711
-6.0727 3.6031 -1.9990 0.9711
-6.4225 2.9331 -1.9988 0.9711
-6.6988 2.2296 -1.9987 0.9711
-6.7740 1.9890 -1.9986 0.9711
-6.8406 1.7460 -1.9986 0.9711
-6.8984 1.5007 -1.9986 0.9711
-6.9878 1.0047 -1.9985 0.9711
-7.0416 0.5036 -1.9985 0.9711
-7.0550 0.2520 -1.9985 0.9711
6.4803 0.6967 -2.0047 0.9731
6.4140 1.1572 -2.0047 0.9731
6.3150 1.6118 -2.0046 0.9731
6.1837 2.0581 -2.0046 0.9731
6.0209 2.4940 -2.0045 0.9731
5.8274 2.9170 -2.0044 0.9731
5.6042 3.3251 -2.0043 0.9731
5.3524 3.7162 -2.0042 0.9731
5.0592 4.0770 -1.9985 0.9732
4.2565 4.2565 -1.8515 0.9751
4.1017 4.4055 -1.8514 0.9751
3.7767 4.6865 -1.8513 0.9751
3.4324 4.9436 -1.8511 0.9751
3.2536 5.0627 -1.8510 0.9751
3.0707 5.1754 -1.8509 0.9751
2.8839 5.2815 -1.8509 0.9751
2.6934 5.3808 -1.8508 0.9751
2.3523 5.1509 -1.7417 0.9766
2.1347 5.1535 -1.7157 0.9769
1.6949 5.7721 -1.8503 0.9751
1.2786 5.8777 -1.8501 0.9751
0.6429 5.9797 -1.8498 0.9751
0.4290 5.9986 -1.8497 0.9751
0.2146 6.0097 -1.8496 0.9751
0.0000 6.0133 -1.8495 0.9751
-0.2146 6.0091 -1.8494 0.9752
-1.2778 5.8740 -1.8490 0.9752
-1.6934 5.7672 -1.8488 0.9752
-1.8981 5.7028 -1.8487 0.9752
-2.2999 5.5523 -1.8485 0.9752
-2.4964 5.4665 -1.8484 0.9752
-2.8798 5.2739 -1.8482 0.9752
-2.9445 4.9626 -1.7749 0.9761
-4.0934 4.3966 -1.8477 0.9752
-4.2475 4.2475 -1.8476 0.9752
-4.5352 4.2224 -1.9059 0.9744
-4.8580 4.2095 -1.9771 0.9735
-5.0483 4.0681 -1.9942 0.9732
-5.1979 3.8911 -1.9971 0.9732
-5.3393 3.7072 -1.9993 0.9732
-5.5899 3.3166 -1.9992 0.9732
-5.8119 2.9092 -1.9991 0.9732
-5.9119 2.6999 -1.9990 0.9732
-6.0892 2.2712 -1.9989 0.9732
-6.2355 1.8309 -1.9989 0.9732
-6.3953 1.1538 -1.9988 0.9732
-6.4612 0.6946 -1.9988 0.9732
-6.4818 0.4636 -1.9988 0.9732
6.0303 0.0000 -2.0045 0.9749
6.0264 0.2152 -2.0045 0.9749
5.9957 0.6446 -2.0045 0.9749
5.9688 0.8582 -2.0045 0.9749
5.9343 1.0707 -2.0045 0.9749
5.7857 1.6988 -2.0044 0.9749
5.7213 1.9042 -2.0044 0.9749
5.6496 2.1072 -2.0043 0.9749
5.2918 2.8895 -2.0042 0.9749
5.1851 3.0765 -2.0041 0.9749
5.0719 3.2595 -2.0041 0.9749
4.8262 3.6128 -2.0039 0.9749
4.6927 3.7816 -2.0033 0.9749
4.5484 3.9412 -2.0006 0.9750
4.3989 4.0956 -1.9979 0.9750
3.6610 4.2250 -1.8583 0.9767
3.4943 4.3362 -1.8511 0.9768
2.8412 4.7886 -1.8508 0.9768
2.6684 4.8867 -1.8508 0.9768
2.3127 5.0642 -1.8506 0.9768
2.1304 5.1433 -1.8505 0.9768
1.9454 5.2158 -1.8504 0.9768
1.7579 5.2817 -1.8503 0.9768
1.1831 5.4386 -1.8501 0.9768
0.7920 5.5086 -1.8499 0.9768
0.5949 5.5330 -1.8498 0.9768
0.0000 5.5641 -1.8495 0.9768
-0.3969 5.5494 -1.8494 0.9768
-0.9877 5.4744 -1.8491 0.9768
-1.3756 5.3895 -1.8489 0.9768
-1.5670 5.3367 -1.8488 0.9768
-2.1282 5.1379 -1.8486 0.9768
-2.6648 4.8803 -1.8483 0.9768
-3.1708 4.5669 -1.8481 0.9768
-3.6654 4.2301 -1.8606 0.9767
-4.2087 4.2087 -1.9785 0.9752
-4.3907 4.0879 -1.9941 0.9750
-4.6833 3.7740 -1.9993 0.9750
-4.9410 3.4306 -1.9995 0.9750
-5.1729 3.0692 -1.9994 0.9750
-5.4709 2.4985 -1.9992 0.9750
-5.5565 2.3016 -1.9992 0.9750
-5.7063 1.8993 -1.9991 0.9750
-5.7704 1.6943 -1.9991 0.9750
-5.8271 1.4873 -1.9991 0.9750
-5.8764 1.2783 -1.9990 0.9750
-5.9183 1.0678 -1.9990 0.9750
-5.9793 0.6428 -1.9990 0.9750
-6.0098 0.2146 -1.9990 0.9750
5.6047 0.0000 -2.0043 0.9765
5.5904 0.3998 -2.0043 0.9765
5.5476 0.7976 -2.0043 0.9765
5.4765 1.1913 -2.0042 0.9765
5.3775 1.5790 -2.0042 0.9765
4.7141 3.0296 -2.0039 0.9765
4.6028 3.1958 -2.0038 0.9765
4.4857 3.3579 -2.0038 0.9765
4.3629 3.5158 -2.0037 0.9765
4.2345 3.6692 -2.0037 0.9765
4.0984 3.8157 -2.0025 0.9765
3.8067 4.0887 -1.9977 0.9765
3.6399 4.2007 -1.9877 0.9767
2.7981 4.3540 -1.8508 0.9783
2.3164 4.6276 -1.8506 0.9783
1.4577 4.9643 -1.8502 0.9783
1.2795 5.0129 -1.8501 0.9783
0.7362 5.1203 -1.8499 0.9783
0.1846 5.1689 -1.8496 0.9783
0.0000 5.1720 -1.8495 0.9783
-0.3689 5.1583 -1.8494 0.9783
-1.4566 4.9607 -1.8489 0.9783
-1.6327 4.9053 -1.8488 0.9783
-1.9783 4.7760 -1.8486 0.9783
-2.1474 4.7021 -1.8486 0.9783
-2.3137 4.6223 -1.8485 0.9783
-2.6374 4.4451 -1.8483 0.9783
-2.7942 4.3479 -1.8483 0.9783
-2.9476 4.2453 -1.8482 0.9783
-3.3974 4.2159 -1.9362 0.9773
-3.6446 4.2061 -1.9902 0.9766
-3.8005 4.0820 -1.9945 0.9766
-3.9481 3.9481 -1.9967 0.9766
-4.2263 3.6621 -1.9998 0.9765
-4.4765 3.3511 -1.9997 0.9765
-4.7039 3.0230 -1.9996 0.9765
-5.0858 2.3226 -1.9994 0.9765
-5.1654 2.1396 -1.9994 0.9765
-5.2384 1.9538 -1.9993 0.9765
-5.3047 1.7656 -1.9993 0.9765
-5.4628 1.1884 -1.9992 0.9765
5.2297 0.0000 -2.0041 0.9778
5.2264 0.1867 -2.0041 0.9778
5.2164 0.3731 -2.0041 0.9778
5.1997 0.5590 -2.0041 0.9778
5.1764 0.7443 -2.0041 0.9778
5.0671 1.2933 -2.0041 0.9778
5.0176 1.4733 -2.0040 0.9778
4.8996 1.8275 -2.0040 0.9778
4.8312 2.0011 -2.0039 0.9778
4.7566 2.1723 -2.0039 0.9778
4.4969 2.6681 -2.0038 0.9779
4.2949 2.9820 -2.0037 0.9779
4.1856 3.1333 -2.0037 0.9779
3.9512 3.4237 -2.0035 0.9779
3.8264 3.5625 -2.0035 0.9779
3.6967 3.6967 -2.0034 0.9779
3.5600 3.8238 -2.0021 0.9779
3.4177 3.9442 -2.0000 0.9779
3.2714 4.0596 -1.9980 0.9779
3.1214 4.1697 -1.9961 0.9779
2.9203 4.2060 -1.9622 0.9783
2.7082 4.2140 -1.9196 0.9788
2.5046 4.2213 -1.8810 0.9792
2.3143 4.2384 -1.8506 0.9795
2.1615 4.3182 -1.8505 0.9795
1.5247 4.5811 -1.8502 0.9795
1.1939 4.6778 -1.8501 0.9795
0.6870 4.7780 -1.8499 0.9795
0.3443 4.8145 -1.8497 0.9795
0.1723 4.8235 -1.8496 0.9795
0.0000 4.8263 -1.8495 0.9795
-0.6867 4.7764 -1.8492 0.9795
-1.6859 4.5201 -1.8488 0.9795
-2.0039 4.3880 -1.8486 0.9795
-2.1592 4.3135 -1.8485 0.9795
-2.5072 4.2256 -1.8829 0.9792
-3.2669 4.0539 -1.9952 0.9779
-3.4127 3.9385 -1.9971 0.9779
-3.5546 3.8179 -1.9991 0.9779
-3.6905 3.6905 -2.0000 0.9779
-3.8197 3.5563 -2.0000 0.9779
-3.9441 3.4176 -1.9999 0.9779
-4.0634 3.2745 -1.9999 0.9779
-4.1776 3.1273 -1.9998 0.9779
-4.3899 2.8212 -1.9997 0.9779
-4.5797 2.5007 -1.9996 0.9779
-4.6660 2.3356 -1.9996 0.9779
-4.7463 2.1676 -1.9996 0.9779
-4.8205 1.9967 -1.9995 0.9779
-5.0062 1.4699 -1.9994 0.9779
-5.0554 1.2903 -1.9994 0.9779
-5.1344 0.9264 -1.9994 0.9779
-5.1642 0.7425 -1.9994 0.9779
-5.1874 0.5577 -1.9994 0.9779
4.8964 0.0000 -2.0040 0.9791
4.8933 0.1748 -2.0040 0.9791
4.8465 0.6968 -2.0040 0.9791
4.7441 1.2109 -2.0039 0.9791
4.6979 1.3794 -2.0039 0.9791
4.5874 1.7110 -2.0038 0.9791
4.5233 1.8736 -2.0038 0.9791
4.2103 2.4981 -2.0037 0.9791
4.1184 2.6467 -2.0036 0.9791
3.9189 2.9337 -2.0035 0.9791
3.8116 3.0716 -2.0035 0.9791
3.6994 3.2056 -2.0034 0.9791
3.5826 3.3355 -2.0034 0.9791
3.4612 3.4612 -2.0033 0.9791
3.3353 3.5824 -2.0033 0.9791
3.2052 3.6990 -2.0032 0.9791
3.0695 3.8091 -2.0021 0.9791
2.7850 4.0112 -1.9986 0.9791
2.1088 4.2129 -1.9282 0.9798
1.9266 4.2186 -1.8981 0.9802
1.7496 4.2238 -1.8711 0.9804
1.4276 4.2893 -1.8502 0.9807
1.2736 4.3374 -1.8501 0.9807
1.1179 4.3799 -1.8501 0.9807
0.8025 4.4481 -1.8499 0.9807
0.6432 4.4738 -1.8498 0.9807
0.1613 4.5164 -1.8496 0.9807
0.0000 4.5191 -1.8495 0.9807
-0.1613 4.5160 -1.8495 0.9807
-0.3224 4.5072 -1.8494 0.9807
-0.4830 4.4926 -1.8493 0.9807
-0.8022 4.4464 -1.8492 0.9807
-1.1173 4.3775 -1.8490 0.9807
-1.4266 4.2863 -1.8489 0.9807
-1.9280 4.2218 -1.8995 0.9801
-2.1105 4.2162 -1.9297 0.9798
-2.2988 4.2100 -1.9632 0.9795
-2.4851 4.1884 -1.9933 0.9792
-3.2005 3.6936 -2.0003 0.9791
-3.5767 3.3300 -2.0001 0.9791
-3.6932 3.2002 -2.0000 0.9791
-3.8050 3.0662 -2.0000 0.9791
-4.2885 2.3417 -1.9998 0.9791
-4.3692 2.1871 -1.9997 0.9791
-4.4444 2.0297 -1.9997 0.9791
-4.5140 1.8697 -1.9997 0.9791
-4.5777 1.7074 -1.9996 0.9791
-4.6357 1.5429 -1.9996 0.9791
-4.6878 1.3765 -1.9996 0.9791
-4.7339 1.2083 -1.9996 0.9791
-4.7739 1.0385 -1.9995 0.9791
-1.9449 0.2796 -0.8042 0.9915
-1.9570 0.2104 -0.8055 0.9915
-1.9308 0.0690 -0.7907 0.9917
4.5949 0.1641 -2.0038 0.9801
4.5862 0.3280 -2.0038 0.9801
4.5715 0.4915 -2.0038 0.9801
4.5510 0.6544 -2.0038 0.9801
4.5247 0.8164 -2.0038 0.9801
4.4927 0.9773 -2.0038 0.9801
4.4114 1.2953 -2.0038 0.9801
4.3624 1.4519 -2.0037 0.9801
4.2476 1.7594 -2.0037 0.9801
3.9537 2.3458 -2.0035 0.9801
3.7761 2.6218 -2.0035 0.9801
3.4740 3.0102 -2.0033 0.9801
3.2502 3.2502 -2.0032 0.9801
3.0099 3.4736 -2.0031 0.9801
2.8839 3.5787 -2.0031 0.9801
2.7542 3.6793 -2.0030 0.9801
2.6206 3.7743 -2.0025 0.9802
2.4823 3.8625 -2.0010 0.9802
2.3411 3.9457 -1.9995 0.9802
2.0509 4.0971 -1.9968 0.9802
1.5695 4.2080 -1.9573 0.9806
1.2379 4.2161 -1.9150 0.9810
1.0769 4.2194 -1.8978 0.9812
0.9185 4.2222 -1.8831 0.9813
0.7622 4.2246 -1.8709 0.9814
0.6077 4.2266 -1.8610 0.9815
0.4548 4.2304 -1.8543 0.9816
0.1515 4.2413 -1.8496 0.9817
0.0000 4.2438 -1.8495 0.9817
-0.1515 4.2410 -1.8495 0.9817
-0.3029 4.2347 -1.8502 0.9816
-0.4548 4.2305 -1.8544 0.9816
-0.9188 4.2237 -1.8838 0.9813
-1.0773 4.2210 -1.8986 0.9812
-1.2385 4.2179 -1.9158 0.9810
-1.4027 4.2143 -1.9357 0.9808
-1.5704 4.2103 -1.9584 0.9806
-2.0491 4.0935 -1.9951 0.9802
-2.6176 3.7701 -2.0003 0.9802
-3.1276 3.3592 -2.0003 0.9802
-3.2454 3.2454 -2.0002 0.9802
-3.3591 3.1274 -2.0002 0.9802
-3.4685 3.0054 -2.0001 0.9802
-3.6739 2.7502 -2.0001 0.9802
-3.8605 2.4810 -2.0000 0.9802
-4.2393 1.7560 -1.9998 0.9802
-1.5707 0.4612 -0.7134 0.9929
-1.5214 0.3310 -0.6786 0.9932
-1.5151 0.2178 -0.6671 0.9933
-1.5293 0.1094 -0.6682 0.9933
-1.5284 0.0546 -0.6665 0.9933
4.3288 0.0000 -2.0037 0.9811
4.3260 0.1545 -2.0037 0.9811
4.1070 1.3669 -2.0036 0.9811
3.9989 1.6564 -2.0036 0.9811
3.9372 1.7981 -2.0035 0.9811
3.8705 1.9374 -2.0035 0.9811
3.6410 2.3399 -2.0034 0.9811
3.5551 2.4683 -2.0034 0.9811
3.4647 2.5936 -2.0033 0.9811
3.1673 2.9489 -2.0032 0.9811
2.7151 3.3693 -2.0030 0.9811
2.5931 3.4640 -2.0029 0.9811
2.4677 3.5542 -2.0029 0.9811
2.3392 3.6399 -2.0028 0.9811
1.7945 3.9294 -1.9995 0.9811
1.5080 4.0432 -1.9975 0.9812
1.3621 4.0926 -1.9966 0.9812
1.2147 4.1369 -1.9958 0.9812
1.0659 4.1761 -1.9950 0.9812
0.9142 4.2023 -1.9907 0.9812
0.6049 4.2069 -1.9673 0.9814
0.1504 4.2104 -1.9502 0.9816
-0.7588 4.2059 -1.9783 0.9813
-0.9145 4.2037 -1.9913 0.9812
-1.2141 4.1348 -1.9947 0.9812
-1.7931 3.9263 -1.9980 0.9812
-1.9331 3.8618 -1.9990 0.9811
-2.0709 3.7925 -2.0001 0.9811
-2.2055 3.7172 -2.0007 0.9811
-2.5900 3.4599 -2.0005 0.9811
-2.9448 3.1629 -2.0004 0.9811
-3.1628 2.9446 -2.0003 0.9811
-3.2658 2.8298 -2.0002 0.9811
-3.4592 2.5895 -2.0001 0.9811
-3.5493 2.4643 -2.0001 0.9811
-3.6350 2.3360 -2.0001 0.9811
-3.7160 2.2048 -2.0000 0.9811
-3.8636 1.9340 -2.0000 0.9811
-1.3151 0.6006 -0.6692 0.9936
-1.3263 0.5494 -0.6645 0.9937
-1.3324 0.4970 -0.6582 0.9938
-1.3241 0.3888 -0.6388 0.9939
-1.3117 0.3348 -0.6266 0.9941
-1.3013 0.2831 -0.6164 0.9941
-1.3351 0.1435 -0.6215 0.9941
4.0846 0.0000 -2.0036 0.9820
4.0820 0.1458 -2.0036 0.9820
4.0742 0.2914 -2.0036 0.9820
3.9912 0.8682 -2.0036 0.9820
3.9190 1.1507 -2.0035 0.9820
3.8754 1.2899 -2.0035 0.9820
3.3546 2.3292 -2.0033 0.9820
3.2693 2.4474 -2.0032 0.9820
3.1798 2.5625 -2.0032 0.9820
2.9888 2.7826 -2.0031 0.9820
2.7825 2.9886 -2.0030 0.9820
2.5621 3.1794 -2.0029 0.9820
2.4469 3.2687 -2.0029 0.9820
1.8274 3.6507 -2.0026 0.9820
1.6959 3.7135 -2.0025 0.9820
1.4257 3.8225 -2.0012 0.9820
1.0078 3.9484 -1.9989 0.9820
0.7231 4.0080 -1.9977 0.9820
0.5795 4.0303 -1.9973 0.9820
0.1453 4.0675 -1.9965 0.9820
-0.0000 4.0699 -1.9964 0.9820
-0.1453 4.0672 -1.9963 0.9820
-0.2904 4.0596 -1.9964 0.9820
-0.4351 4.0469 -1.9966 0.9820
-0.7229 4.0067 -1.9971 0.9820
-1.0073 3.9467 -1.9980 0.9820
-1.5609 3.7684 -2.0008 0.9820
-1.6946 3.7106 -2.0010 0.9820
-1.9549 3.5801 -2.0008 0.9820
-2.0813 3.5079 -2.0008 0.9820
-2.2051 3.4313 -2.0007 0.9820
-2.4442 3.2650 -2.0006 0.9820
-2.7790 2.9848 -2.0005 0.9820
-2.8837 2.8837 -2.0004 0.9820
-3.1752 2.5587 -2.0003 0.9820
-3.2644 2.4437 -2.0002 0.9820
-3.3495 2.3256 -2.0002 0.9820
-1.1400 0.5206 -0.6148 0.9944
-1.1484 0.4757 -0.6097 0.9945
-1.1544 0.4305 -0.6043 0.9945
-1.1579 0.3854 -0.5986 0.9946
-1.1590 0.3403 -0.5925 0.9946
-1.1578 0.2955 -0.5861 0.9947
-1.1791 0.2127 -0.5877 0.9947
-1.1867 0.1706 -0.5881 0.9947
-1.1953 0.0855 -0.5878 0.9947
3.8005 0.6857 -2.0035 0.9827
3.7736 0.8209 -2.0035 0.9827
3.6642 1.2195 -2.0034 0.9827
3.5677 1.4778 -2.0034 0.9827
3.5127 1.6042 -2.0033 0.9827
3.2484 2.0876 -2.0032 0.9828
3.1718 2.2022 -2.0032 0.9828
3.0911 2.3140 -2.0032 0.9828
3.0065 2.4228 -2.0031 0.9828
2.9180 2.5285 -2.0031 0.9828
2.8259 2.6310 -2.0030 0.9828
2.7301 2.7301 -2.0030 0.9828
2.6309 2.8258 -2.0029 0.9828
2.0871 3.2476 -2.0027 0.9828
1.9698 3.3199 -2.0026 0.9828
1.8500 3.3880 -2.0026 0.9828
1.4771 3.5660 -2.0024 0.9828
1.2189 3.6621 -2.0023 0.9828
1.0873 3.7032 -2.0022 0.9828
0.8202 3.7705 -2.0018 0.9828
0.6849 3.7964 -2.0013 0.9828
0.2751 3.8459 -2.0003 0.9828
0.0000 3.8552 -2.0000 0.9828
-0.5488 3.8167 -2.0004 0.9828
-0.6848 3.7953 -2.0007 0.9828
-1.6023 3.5086 -2.0010 0.9828
-1.7265 3.4491 -2.0009 0.9828
-2.1995 3.1679 -2.0007 0.9828
-2.3111 3.0873 -2.0007 0.9828
-2.4198 3.0028 -2.0006 0.9828
-2.6277 2.8224 -2.0005 0.9828
-2.9142 2.5251 -2.0004 0.9828
-3.0024 2.4195 -2.0004 0.9828
-3.1672 2.1990 -2.0003 0.9828
-0.9917 0.5884 -0.5982 0.9948
-1.0298 0.5155 -0.5974 0.9948
-1.0576 0.3945 -0.5856 0.9949
-1.0814 0.2353 -0.5741 0.9950
3.6578 0.0000 -2.0034 0.9835
3.6368 0.3910 -2.0034 0.9835
3.5997 0.6495 -2.0034 0.9835
3.5742 0.7775 -2.0034 0.9835
3.3792 1.3997 -2.0033 0.9835
3.3270 1.5194 -2.0033 0.9835
3.2101 1.7528 -2.0032 0.9835
3.1454 1.8663 -2.0032 0.9835
3.0042 2.0858 -2.0031 0.9835
2.9278 2.1917 -2.0031 0.9835
2.8476 2.2948 -2.0030 0.9835
2.7638 2.3949 -2.0030 0.9835
2.6765 2.4920 -2.0030 0.9835
2.5858 2.5858 -2.0029 0.9835
2.4918 2.6764 -2.0029 0.9835
2.3947 2.7636 -2.0028 0.9835
2.2945 2.8473 -2.0028 0.9835
2.0854 3.0035 -2.0027 0.9835
1.5188 3.3257 -2.0024 0.9835
1.3991 3.3777 -2.0024 0.9835
1.2776 3.4254 -2.0023 0.9835
1.1545 3.4687 -2.0023 0.9835
0.9040 3.5420 -2.0022 0.9835
0.7770 3.5719 -2.0021 0.9835
0.6490 3.5972 -2.0020 0.9835
0.2607 3.6457 -2.0019 0.9835
-0.1304 3.6523 -2.0017 0.9835
-0.3907 3.6335 -2.0016 0.9835
-0.5201 3.6171 -2.0015 0.9835
-0.7767 3.5706 -2.0014 0.9835
-1.0294 3.5059 -2.0013 0.9835
-1.3982 3.3755 -2.0011 0.9835
-1.5177 3.3234 -2.0010 0.9835
-1.9750 3.0732 -2.0008 0.9835
-2.0834 3.0007 -2.0008 0.9835
-2.1891 2.9243 -2.0007 0.9835
-2.3921 2.7606 -2.0006 0.9835
-2.5828 2.5828 -2.0006 0.9835
-2.6733 2.4889 -2.0005 0.9835
-2.8439 2.2918 -2.0004 0.9835
-2.9239 2.1888 -2.0004 0.9835
-0.8882 0.5708 -0.5782 0.9952
-0.9084 0.5390 -0.5785 0.9952
-0.9434 0.4722 -0.5778 0.9952
-0.9677 0.4008 -0.5737 0.9952
-0.9938 0.2537 -0.5618 0.9953
-1.0039 0.2184 -0.5627 0.9953
-1.0124 0.1826 -0.5634 0.9953
-1.0265 0.0734 -0.5637 0.9953
2.0197 0.0000 -1.1661 0.9907
2.0320 0.0726 -1.1739 0.9907
2.0359 0.1456 -1.1784 0.9906
2.0300 0.2919 -1.1841 0.9906
2.0153 0.3636 -1.1823 0.9906
1.9883 0.4325 -1.1748 0.9906
1.9616 0.5007 -1.1688 0.9907
1.8682 0.6968 -1.1512 0.9908
1.8620 0.7713 -1.1636 0.9907
1.8508 0.8452 -1.1747 0.9906
3.0451 1.6628 -2.0031 0.9841
2.9838 1.7704 -2.0031 0.9841
2.9187 1.8757 -2.0031 0.9841
2.8498 1.9787 -2.0030 0.9841
2.3638 2.5389 -2.0028 0.9841
2.0787 2.7769 -2.0027 0.9841
1.8753 2.9180 -2.0026 0.9841
1.6622 3.0442 -2.0025 0.9841
1.5525 3.1015 -2.0024 0.9841
1.4408 3.1548 -2.0024 0.9841
1.3272 3.2042 -2.0023 0.9841
1.2120 3.2494 -2.0023 0.9841
0.7371 3.3885 -2.0021 0.9841
0.4935 3.4322 -2.0020 0.9841
0.3706 3.4475 -2.0019 0.9841
-0.0000 3.4671 -2.0017 0.9841
-0.1237 3.4648 -2.0017 0.9841
-0.2473 3.4581 -2.0016 0.9841
-0.3706 3.4470 -2.0016 0.9841
-0.9766 3.3259 -2.0013 0.9841
-1.0947 3.2889 -2.0012 0.9841
-1.2113 3.2476 -2.0012 0.9841
-1.3264 3.2022 -2.0011 0.9841
-1.4398 3.1528 -2.0011 0.9841
-1.6610 3.0419 -2.0010 0.9841
-1.8737 2.9155 -2.0009 0.9841
-1.9765 2.8467 -2.0008 0.9841
-2.0768 2.7742 -2.0008 0.9841
-2.1744 2.6983 -2.0007 0.9841
-2.2693 2.6189 -2.0007 0.9841
-2.5361 2.3612 -2.0006 0.9841
-2.6187 2.2691 -2.0005 0.9841
-0.8364 0.4963 -0.5615 0.9955
-0.8534 0.4660 -0.5614 0.9955
-0.8941 0.3703 -0.5587 0.9955
-0.9011 0.3361 -0.5553 0.9956
-0.9058 0.3015 -0.5511 0.9956
-0.9259 0.2363 -0.5517 0.9956
-0.9353 0.2035 -0.5526 0.9956
-0.9430 0.1701 -0.5532 0.9956
-0.9492 0.1365 -0.5537 0.9956
-0.9575 0.0342 -0.5532 0.9956
