ply
format ascii 1.0
element vertex 715
property float32 x
property float32 y
property float32 z
property float32 I
end_header
-3.4305 5.3380 0.8263 0.9747
-3.4304 5.3378 0.2502 0.9749
-3.4304 5.3378 0.1072 0.9749
-3.4304 5.3378 -0.1787 0.9749
-3.4303 5.3377 -0.3218 0.9749
-3.4134 5.3114 -0.7500 0.9749
-3.4303 5.3376 -0.8990 0.9747
-9.6290 0.6887 -1.3678 0.9618
-9.4844 0.3387 -1.3447 0.9624
-9.6329 0.6889 -1.5910 0.9616
-9.5057 0.3395 -1.5670 0.9622
-3.3847 5.2667 -1.1767 0.9748
9.4070 1.0113 -1.9999 0.9621
9.3649 1.3465 -1.9999 0.9621
9.0783 2.6656 -2.0000 0.9621
8.7417 3.6209 -2.0001 0.9621
8.3894 4.1994 -1.9831 0.9624
7.7321 4.2221 -1.8622 0.9646
7.3553 4.7270 -1.8482 0.9649
6.9996 5.2399 -1.8482 0.9649
6.8083 5.4865 -1.8483 0.9649
6.6083 5.7261 -1.8483 0.9649
6.3999 5.9585 -1.8484 0.9649
6.1833 6.1833 -1.8484 0.9649
5.9588 6.4002 -1.8485 0.9649
5.7267 6.6090 -1.8485 0.9649
5.4873 6.8094 -1.8486 0.9649
4.9879 7.1839 -1.8487 0.9649
4.4629 7.5219 -1.8488 0.9649
4.1917 7.6766 -1.8488 0.9649
3.0570 8.1961 -1.8491 0.9649
2.4647 8.3939 -1.8492 0.9649
2.1636 8.4768 -1.8493 0.9649
1.5534 8.6102 -1.8494 0.9649
1.2452 8.6604 -1.8495 0.9649
0.6242 8.7278 -1.8496 0.9649
0.3123 8.7448 -1.8497 0.9649
0.0000 8.7507 -1.8497 0.9649
-0.6243 8.7291 -1.8499 0.9649
-0.9355 8.7015 -1.8499 0.9649
-1.5540 8.6132 -1.8501 0.9648
-3.0591 8.2019 -1.8504 0.9648
-3.3501 8.0877 -1.8504 0.9648
-4.1958 7.6841 -1.8506 0.9648
-3.3726 5.2479 -1.3186 0.9748
-5.4943 6.8180 -1.8509 0.9648
-7.1940 4.9949 -1.8513 0.9648
-7.5323 4.4691 -1.8513 0.9648
-8.3993 4.2044 -1.9855 0.9623
-8.6097 3.9319 -2.0007 0.9620
-9.1855 2.3445 -2.0039 0.9620
-9.2634 2.0151 -2.0039 0.9620
-9.3295 1.6833 -2.0039 0.9620
-9.4742 0.3384 -2.0039 0.9620
8.5102 0.0000 -2.0001 0.9656
8.4615 0.9097 -2.0001 0.9656
8.4237 1.2111 -2.0001 0.9656
8.3751 1.5110 -2.0001 0.9656
8.3159 1.8090 -2.0001 0.9656
8.2461 2.1047 -2.0002 0.9656
7.9741 2.9742 -2.0002 0.9656
7.6070 3.8078 -1.9993 0.9656
7.4499 4.0679 -1.9949 0.9657
6.6159 4.2518 -1.8483 0.9682
6.4601 4.4853 -1.8483 0.9682
6.2960 4.7131 -1.8484 0.9682
5.9440 5.1505 -1.8485 0.9682
5.7565 5.3595 -1.8485 0.9682
5.1509 5.9445 -1.8486 0.9682
4.9356 6.1247 -1.8487 0.9682
4.0142 6.7655 -1.8489 0.9682
3.7703 6.9047 -1.8489 0.9682
3.5215 7.0350 -1.8490 0.9682
3.2682 7.1565 -1.8490 0.9682
2.2168 7.5497 -1.8493 0.9682
1.9460 7.6242 -1.8493 0.9682
1.3972 7.7441 -1.8494 0.9682
0.8412 7.8246 -1.8495 0.9682
0.5614 7.8498 -1.8496 0.9682
-0.0000 7.8704 -1.8497 0.9682
-1.3976 7.7466 -1.8500 0.9682
-1.6733 7.6920 -1.8501 0.9682
-2.4862 7.4698 -1.8503 0.9682
-2.7513 7.3765 -1.8503 0.9682
-3.0129 7.2738 -1.8504 0.9682
-3.2707 7.1619 -1.8504 0.9682
-3.5244 7.0408 -1.8505 0.9682
-3.7735 6.9107 -1.8505 0.9682
-3.2152 5.4188 -1.4809 0.9744
-3.3605 5.2291 -1.4609 0.9748
-4.4910 6.4683 -1.8507 0.9682
-4.9412 6.1317 -1.8508 0.9682
-5.1571 5.9516 -1.8508 0.9682
-5.3663 5.7639 -1.8509 0.9682
-5.9521 5.1576 -1.8510 0.9682
-6.3052 4.7200 -1.8511 0.9682
-6.4697 4.4920 -1.8511 0.9682
-7.6192 3.8139 -2.0025 0.9656
-8.1801 2.4019 -2.0037 0.9656
-8.2606 2.1084 -2.0037 0.9656
-8.3307 1.8122 -2.0037 0.9656
-8.4768 0.9113 -2.0037 0.9656
-8.5040 0.6082 -2.0037 0.9656
7.7255 -0.0000 -2.0003 0.9686
7.7206 0.2757 -2.0003 0.9686
7.7058 0.5511 -2.0003 0.9686
7.6813 0.8258 -2.0003 0.9686
7.6028 1.3717 -2.0003 0.9686
7.5491 1.6422 -2.0003 0.9686
7.4128 2.1766 -2.0003 0.9686
5.7153 4.2784 -1.8485 0.9709
5.5591 4.4798 -1.8485 0.9709
5.0487 5.0487 -1.8486 0.9709
4.8654 5.2258 -1.8487 0.9709
4.4804 5.5598 -1.8488 0.9709
4.2792 5.7163 -1.8488 0.9709
3.6439 6.1414 -1.8489 0.9709
2.9667 6.4962 -1.8491 0.9709
2.2555 6.7767 -1.8492 0.9709
2.0122 6.8531 -1.8493 0.9709
1.7664 6.9207 -1.8493 0.9709
1.2683 7.0295 -1.8495 0.9709
0.7636 7.1025 -1.8496 0.9709
0.5096 7.1254 -1.8496 0.9709
0.2550 7.1393 -1.8497 0.9709
-0.2550 7.1397 -1.8498 0.9709
-0.5097 7.1263 -1.8498 0.9709
-0.7637 7.1038 -1.8499 0.9709
-1.2686 7.0316 -1.8500 0.9709
-2.0132 6.8563 -1.8502 0.9709
-2.2567 6.7802 -1.8502 0.9709
-2.4973 6.6955 -1.8503 0.9709
-2.7348 6.6023 -1.8503 0.9709
-2.9688 6.5007 -1.8504 0.9709
-3.4251 6.2727 -1.8505 0.9709
-3.1969 5.3881 -1.6222 0.9744
-3.3484 5.2102 -1.6036 0.9747
-3.6075 5.1957 -1.6377 0.9742
-4.6809 5.4020 -1.8507 0.9709
-5.2319 4.8710 -1.8508 0.9709
-5.5662 4.4855 -1.8509 0.9709
-6.4861 4.1683 -1.9963 0.9686
-6.9192 3.4635 -2.0034 0.9685
-7.0384 3.2144 -2.0034 0.9685
-7.1488 2.9611 -2.0034 0.9685
-7.3419 2.4436 -2.0035 0.9685
-7.6152 1.3739 -2.0035 0.9685
-7.6594 1.1013 -2.0036 0.9685
-7.7185 0.5520 -2.0036 0.9685
7.0662 -0.0000 -2.0004 0.9711
7.0258 0.7553 -2.0004 0.9711
6.7049 2.2316 -2.0005 0.9711
6.6210 2.4695 -2.0005 0.9711
6.5288 2.7043 -2.0005 0.9710
6.3193 3.1632 -2.0006 0.9710
5.6107 4.2001 -1.9841 0.9713
5.2311 4.2155 -1.9019 0.9725
4.6178 4.6178 -1.8487 0.9732
4.4501 4.7797 -1.8488 0.9732
3.9139 5.2284 -1.8489 0.9732
3.7249 5.3648 -1.8489 0.9732
3.3328 5.6171 -1.8490 0.9732
2.9237 5.8409 -1.8491 0.9732
2.7135 5.9417 -1.8491 0.9732
2.2828 6.1204 -1.8492 0.9732
1.8404 6.2680 -1.8493 0.9732
1.3887 6.3836 -1.8494 0.9732
0.9298 6.4668 -1.8495 0.9732
0.2332 6.5296 -1.8497 0.9732
-0.2332 6.5300 -1.8498 0.9732
-0.4662 6.5177 -1.8498 0.9732
-0.9300 6.4682 -1.8499 0.9732
-1.3891 6.3857 -1.8500 0.9732
-1.6162 6.3322 -1.8501 0.9732
-1.8412 6.2706 -1.8501 0.9732
-2.0639 6.2011 -1.8502 0.9732
-2.2840 6.1236 -1.8502 0.9732
-2.5012 6.0384 -1.8503 0.9732
-3.1325 5.7368 -1.8504 0.9732
-3.9174 5.2331 -1.8506 0.9732
-4.2810 4.9405 -1.8506 0.9732
-4.4547 4.7846 -1.8507 0.9732
-4.6227 4.6227 -1.8507 0.9732
-4.7848 4.4548 -1.8507 0.9732
-5.6152 4.2035 -1.9857 0.9713
-5.7989 4.0262 -1.9985 0.9711
-6.0856 3.6108 -2.0032 0.9710
-6.4370 2.9397 -2.0033 0.9710
-6.5379 2.7081 -2.0033 0.9710
-6.6304 2.4730 -2.0033 0.9710
-6.7145 2.2348 -2.0034 0.9710
-6.8570 1.7501 -2.0034 0.9710
-6.9151 1.5043 -2.0034 0.9710
-7.0048 1.0071 -2.0034 0.9710
-7.0724 0.2526 -2.0034 0.9710
6.5041 -0.0000 -2.0005 0.9731
6.5000 0.2321 -2.0005 0.9731
6.4669 0.6952 -2.0005 0.9731
6.4380 0.9256 -2.0005 0.9731
6.4008 1.1548 -2.0006 0.9731
6.3556 1.3826 -2.0006 0.9731
6.2408 1.8325 -2.0006 0.9731
6.1715 2.0541 -2.0006 0.9731
6.0943 2.2731 -2.0006 0.9731
6.0093 2.4891 -2.0006 0.9731
5.9167 2.7021 -2.0007 0.9731
5.8166 2.9116 -2.0007 0.9731
5.5942 3.3192 -2.0007 0.9731
5.3433 3.7099 -2.0008 0.9731
5.2012 3.8935 -1.9984 0.9732
5.0514 4.0707 -1.9954 0.9732
4.8497 4.2023 -1.9738 0.9735
4.5278 4.2155 -1.9028 0.9744
4.2503 4.2503 -1.8488 0.9752
3.6025 4.8123 -1.8490 0.9752
3.4285 4.9379 -1.8490 0.9752
3.2501 5.0572 -1.8490 0.9752
3.0676 5.1701 -1.8491 0.9752
2.8812 5.2765 -1.8491 0.9752
2.3008 5.5546 -1.8492 0.9752
1.6940 5.7691 -1.8494 0.9752
1.4870 5.8260 -1.8494 0.9752
0.8558 5.9520 -1.8495 0.9751
0.6428 5.9789 -1.8496 0.9751
0.4290 5.9982 -1.8496 0.9751
0.2146 6.0099 -1.8497 0.9751
-0.2147 6.0101 -1.8498 0.9751
-0.4290 5.9988 -1.8498 0.9751
-0.8559 5.9532 -1.8499 0.9751
-1.0679 5.9190 -1.8500 0.9751
-1.2785 5.8773 -1.8500 0.9751
-1.4875 5.8280 -1.8500 0.9751
-1.6946 5.7713 -1.8501 0.9751
-1.8996 5.7073 -1.8501 0.9751
-2.4990 5.4719 -1.8503 0.9751
-3.2525 5.0611 -1.8504 0.9751
-3.6054 4.8163 -1.8505 0.9751
-3.7751 4.6846 -1.8505 0.9751
-3.9400 4.5470 -1.8506 0.9751
-4.2545 4.2545 -1.8506 0.9751
-4.8530 4.2052 -1.9751 0.9735
-5.0568 4.0750 -1.9975 0.9732
-5.4786 3.5209 -2.0031 0.9731
-5.6009 3.3232 -2.0031 0.9731
-5.7160 3.1212 -2.0031 0.9731
-5.9242 2.7055 -2.0032 0.9731
-6.1022 2.2760 -2.0032 0.9731
-6.3642 1.3844 -2.0033 0.9731
-6.4096 1.1564 -2.0033 0.9731
-6.4468 0.9269 -2.0033 0.9731
-6.4758 0.6962 -2.0033 0.9731
-6.5090 0.2325 -2.0033 0.9731
6.0186 -0.0000 -2.0006 0.9749
6.0033 0.4293 -2.0006 0.9749
5.9231 1.0686 -2.0007 0.9749
5.8812 1.2794 -2.0007 0.9749
5.7108 1.9008 -2.0007 0.9749
5.6394 2.1034 -2.0007 0.9749
5.5608 2.3033 -2.0007 0.9749
5.4751 2.5004 -2.0008 0.9749
5.3824 2.6942 -2.0008 0.9749
5.1766 3.0714 -2.0008 0.9749
4.9444 3.4329 -2.0009 0.9749
4.8188 3.6073 -2.0009 0.9749
4.5421 3.9358 -1.9978 0.9750
4.3931 4.0901 -1.9952 0.9750
4.2022 4.2022 -1.9754 0.9753
3.4902 4.3311 -1.8490 0.9768
3.3335 4.4530 -1.8490 0.9768
2.8385 4.7841 -1.8491 0.9768
1.3760 5.3910 -1.8494 0.9768
1.1827 5.4367 -1.8495 0.9768
0.5948 5.5324 -1.8496 0.9768
-0.3970 5.5507 -1.8498 0.9768
-0.5949 5.5332 -1.8499 0.9768
-0.7920 5.5085 -1.8499 0.9768
-1.1830 5.4382 -1.8500 0.9768
-1.3764 5.3927 -1.8500 0.9768
-1.5680 5.3402 -1.8501 0.9768
-1.7577 5.2810 -1.8501 0.9768
-1.9451 5.2150 -1.8501 0.9768
-2.3123 5.0631 -1.8502 0.9768
-2.4916 4.9775 -1.8503 0.9768
-2.6677 4.8855 -1.8503 0.9768
-2.8404 4.7872 -1.8503 0.9768
-3.0095 4.6829 -1.8504 0.9768
-3.1748 4.5726 -1.8504 0.9768
-3.3361 4.4565 -1.8504 0.9768
-3.4931 4.3346 -1.8505 0.9768
-4.3971 4.0939 -1.9971 0.9750
-4.6906 3.7799 -2.0024 0.9749
-5.2888 2.8879 -2.0031 0.9749
-5.5674 2.3061 -2.0031 0.9749
-5.7178 1.9031 -2.0031 0.9749
-5.9306 1.0700 -2.0032 0.9749
-5.9918 0.6442 -2.0032 0.9749
-6.0110 0.4299 -2.0032 0.9749
5.5912 0.1997 -2.0007 0.9765
5.5805 0.3991 -2.0007 0.9765
5.5627 0.5980 -2.0007 0.9765
5.5378 0.7962 -2.0007 0.9765
5.4670 1.1893 -2.0008 0.9765
5.3086 1.7669 -2.0008 0.9765
5.1691 2.1411 -2.0008 0.9765
4.8120 2.8551 -2.0009 0.9765
4.0933 3.8110 -2.0000 0.9765
3.9501 3.9501 -1.9977 0.9765
3.8023 4.0839 -1.9954 0.9766
3.1585 4.2193 -1.8848 0.9779
2.7956 4.3500 -1.8491 0.9783
2.1482 4.7039 -1.8493 0.9783
1.8072 4.8454 -1.8493 0.9783
1.6332 4.9069 -1.8494 0.9783
1.4570 4.9621 -1.8494 0.9783
0.9183 5.0898 -1.8495 0.9783
0.7361 5.1194 -1.8496 0.9783
-0.1846 5.1693 -1.8498 0.9783
-0.3690 5.1595 -1.8498 0.9783
-2.1493 4.7062 -1.8502 0.9783
-2.3159 4.6266 -1.8502 0.9783
-2.4796 4.5411 -1.8503 0.9783
-2.7974 4.3528 -1.8503 0.9783
-4.0968 3.8143 -2.0017 0.9765
-4.3609 3.5143 -2.0029 0.9765
-4.4837 3.3564 -2.0029 0.9765
-4.6007 3.1943 -2.0029 0.9765
-4.8169 2.8580 -2.0029 0.9765
-5.1748 2.1435 -2.0030 0.9765
-5.3146 1.7689 -2.0031 0.9765
-5.4733 1.1907 -2.0031 0.9765
-5.5444 0.7972 -2.0031 0.9765
-5.5693 0.5988 -2.0031 0.9765
-5.5872 0.3996 -2.0031 0.9765
-5.5979 0.1999 -2.0031 0.9765
5.2177 0.1863 -2.0008 0.9779
5.2078 0.3725 -2.0008 0.9779
5.1679 0.7430 -2.0008 0.9779
5.1381 0.9270 -2.0008 0.9779
5.0097 1.4710 -2.0008 0.9779
4.9540 1.6488 -2.0009 0.9779
4.8920 1.8246 -2.0009 0.9779
4.8238 1.9981 -2.0009 0.9779
4.4905 2.6644 -2.0010 0.9779
4.2891 2.9780 -2.0010 0.9779
4.0658 3.2765 -2.0011 0.9779
3.8218 3.5583 -2.0011 0.9779
3.6925 3.6925 -2.0011 0.9779
3.5562 3.8197 -2.0000 0.9779
3.1185 4.1659 -1.9942 0.9780
2.1600 4.3152 -1.8493 0.9795
1.1935 4.6762 -1.8495 0.9795
0.8569 4.7496 -1.8495 0.9795
0.0000 4.8268 -1.8497 0.9795
-0.1723 4.8238 -1.8498 0.9795
-0.3444 4.8147 -1.8498 0.9795
-0.5160 4.7995 -1.8498 0.9795
-0.6870 4.7781 -1.8499 0.9795
-0.8571 4.7506 -1.8499 0.9795
-1.0261 4.7171 -1.8499 0.9795
-1.1939 4.6775 -1.8500 0.9795
-1.6871 4.5234 -1.8501 0.9795
-1.8475 4.4603 -1.8501 0.9795
-2.1611 4.3173 -1.8502 0.9795
-3.2705 4.0584 -1.9974 0.9779
-3.5589 3.8225 -2.0015 0.9779
-3.8250 3.5611 -2.0027 0.9779
-3.9497 3.4224 -2.0028 0.9779
-4.2931 2.9807 -2.0028 0.9779
-4.5872 2.5048 -2.0029 0.9779
-4.6737 2.3395 -2.0029 0.9779
-4.7543 2.1712 -2.0029 0.9779
-4.8971 1.8265 -2.0030 0.9779
-4.9593 1.6506 -2.0030 0.9779
-5.0150 1.4725 -2.0030 0.9779
-5.1736 0.7439 -2.0030 0.9779
-5.1969 0.5587 -2.0030 0.9779
4.8857 0.1745 -2.0009 0.9791
4.7771 1.0392 -2.0009 0.9791
4.7370 1.2091 -2.0009 0.9791
4.6909 1.3774 -2.0009 0.9791
4.6388 1.5439 -2.0009 0.9791
4.5807 1.7085 -2.0009 0.9791
4.5169 1.8709 -2.0010 0.9791
4.3719 2.1884 -2.0010 0.9791
4.2911 2.3431 -2.0010 0.9791
4.2048 2.4948 -2.0010 0.9791
4.1131 2.6433 -2.0010 0.9791
4.0162 2.7884 -2.0011 0.9791
3.8071 3.0679 -2.0011 0.9791
3.6952 3.2019 -2.0011 0.9791
3.4575 3.4574 -2.0012 0.9791
3.3319 3.5787 -2.0012 0.9791
3.0667 3.8056 -2.0003 0.9791
2.7827 4.0079 -1.9970 0.9791
2.6359 4.1015 -1.9954 0.9791
2.4860 4.1899 -1.9939 0.9792
2.2964 4.2055 -1.9611 0.9795
2.1082 4.2117 -1.9277 0.9798
1.9260 4.2174 -1.8975 0.9802
1.5791 4.2338 -1.8494 0.9807
1.4270 4.2875 -1.8494 0.9807
0.9606 4.4157 -1.8495 0.9807
0.8024 4.4473 -1.8496 0.9807
0.4831 4.4934 -1.8496 0.9807
0.0000 4.5195 -1.8497 0.9807
-0.1613 4.5167 -1.8498 0.9807
-0.6433 4.4738 -1.8499 0.9807
-1.1179 4.3797 -1.8500 0.9807
-1.4275 4.2889 -1.8500 0.9807
-1.7494 4.2235 -1.8710 0.9804
-2.1089 4.2130 -1.9282 0.9798
-2.4873 4.1921 -1.9950 0.9792
-2.6373 4.1038 -1.9965 0.9791
-2.7844 4.0103 -1.9981 0.9791
-3.2043 3.6979 -2.0026 0.9791
-3.3343 3.5812 -2.0026 0.9791
-3.5813 3.3343 -2.0027 0.9791
-3.6981 3.2044 -2.0027 0.9791
-3.8102 3.0704 -2.0027 0.9791
-3.9174 2.9325 -2.0028 0.9791
-4.1167 2.6456 -2.0028 0.9791
-4.2950 2.3453 -2.0028 0.9791
-4.6434 1.5455 -2.0029 0.9791
-4.7820 1.0403 -2.0029 0.9791
-2.1703 0.3916 -0.9026 0.9905
-1.9449 0.2796 -0.8042 0.9915
-1.9569 0.2104 -0.8055 0.9915
-1.9308 0.0690 -0.7907 0.9917
4.5883 0.1639 -2.0009 0.9802
4.5795 0.3275 -2.0009 0.9802
4.5445 0.6534 -2.0009 0.9802
4.5183 0.8152 -2.0010 0.9802
4.4864 0.9759 -2.0010 0.9802
4.4487 1.1354 -2.0010 0.9802
4.3019 1.6045 -2.0010 0.9802
4.2419 1.7571 -2.0010 0.9802
4.1058 2.0552 -2.0010 0.9802
4.0299 2.2005 -2.0011 0.9802
3.8627 2.4824 -2.0011 0.9802
3.6758 2.7517 -2.0011 0.9802
3.4702 3.0070 -2.0012 0.9802
3.0071 3.4704 -2.0013 0.9802
2.7520 3.6762 -2.0013 0.9802
2.4805 3.8597 -1.9995 0.9802
2.1958 4.0214 -1.9969 0.9802
2.0497 4.0947 -1.9956 0.9802
1.5690 4.2065 -1.9566 0.9806
1.4015 4.2108 -1.9341 0.9808
1.2375 4.2145 -1.9143 0.9810
0.9181 4.2205 -1.8824 0.9813
0.7619 4.2228 -1.8701 0.9815
0.6074 4.2247 -1.8601 0.9815
0.4546 4.2289 -1.8536 0.9816
0.1515 4.2415 -1.8497 0.9817
-0.9182 4.2210 -1.8826 0.9813
-1.4018 4.2116 -1.9345 0.9808
-1.7409 4.2028 -1.9826 0.9803
-1.9019 4.1646 -1.9953 0.9802
-2.4818 3.8617 -2.0006 0.9802
-2.6200 3.7735 -2.0021 0.9802
-2.7536 3.6784 -2.0025 0.9802
-2.8832 3.5778 -2.0025 0.9802
-3.2492 3.2492 -2.0026 0.9801
-3.4728 3.0092 -2.0027 0.9801
-3.5780 2.8834 -2.0027 0.9801
-3.6787 2.7538 -2.0027 0.9801
-3.7747 2.6208 -2.0027 0.9801
-3.8659 2.4844 -2.0027 0.9801
-3.9521 2.3449 -2.0028 0.9801
-4.0333 2.2024 -2.0028 0.9801
-4.1803 1.9090 -2.0028 0.9801
-1.5984 0.5962 -0.7435 0.9926
-1.5707 0.4612 -0.7134 0.9929
-1.5214 0.3310 -0.6786 0.9932
-1.5151 0.2178 -0.6671 0.9933
-1.5293 0.1094 -0.6682 0.9933
4.3229 -0.0000 -2.0010 0.9811
4.3119 0.3084 -2.0010 0.9811
4.2981 0.4621 -2.0010 0.9811
4.2789 0.6152 -2.0010 0.9811
4.2542 0.7675 -2.0010 0.9811
4.1887 1.0691 -2.0010 0.9811
4.0504 1.5107 -2.0011 0.9811
3.9324 1.7958 -2.0011 0.9811
3.8658 1.9351 -2.0011 0.9811
3.7943 2.0719 -2.0011 0.9811
3.7180 2.2060 -2.0011 0.9811
3.5512 2.4656 -2.0012 0.9811
3.4610 2.5908 -2.0012 0.9811
3.2674 2.8312 -2.0012 0.9811
3.0572 3.0572 -2.0013 0.9811
2.9461 3.1644 -2.0013 0.9811
2.8313 3.2675 -2.0013 0.9811
2.5911 3.4613 -2.0014 0.9811
2.4659 3.5516 -2.0014 0.9811
2.2063 3.7186 -2.0015 0.9811
1.7936 3.9274 -1.9985 0.9811
1.3617 4.0911 -1.9959 0.9812
1.0656 4.1750 -1.9945 0.9812
0.9138 4.2006 -1.9899 0.9812
0.7583 4.2030 -1.9769 0.9814
0.6046 4.2050 -1.9665 0.9814
0.4523 4.2066 -1.9584 0.9815
0.3009 4.2077 -1.9526 0.9816
0.1503 4.2084 -1.9492 0.9816
0.0000 4.2086 -1.9481 0.9816
-0.1503 4.2084 -1.9493 0.9816
-0.6046 4.2054 -1.9666 0.9814
-1.2146 4.1367 -1.9956 0.9812
-2.3388 3.6392 -2.0024 0.9811
-2.4672 3.5535 -2.0024 0.9811
-2.5925 3.4632 -2.0025 0.9811
-2.7145 3.3685 -2.0025 0.9811
-3.3687 2.7147 -2.0026 0.9811
-3.8690 1.9367 -2.0027 0.9811
-1.3151 0.6006 -0.6692 0.9936
-1.3263 0.5494 -0.6645 0.9937
-1.3241 0.3888 -0.6388 0.9939
-1.3116 0.3348 -0.6266 0.9941
-1.3160 0.2374 -0.6190 0.9941
-1.3384 0.0957 -0.6211 0.9941
4.0794 0.0000 -2.0010 0.9820
4.0560 0.4361 -2.0011 0.9820
4.0379 0.5806 -2.0011 0.9820
4.0146 0.7243 -2.0011 0.9820
3.9862 0.8671 -2.0011 0.9820
3.9527 1.0089 -2.0011 0.9820
3.8707 1.2883 -2.0011 0.9820
3.8223 1.4256 -2.0011 0.9820
3.7690 1.5612 -2.0011 0.9820
3.7109 1.6947 -2.0011 0.9820
3.5806 1.9551 -2.0012 0.9820
3.5086 2.0817 -2.0012 0.9820
3.4321 2.2057 -2.0012 0.9820
3.2660 2.4449 -2.0012 0.9820
3.1767 2.5599 -2.0012 0.9820
2.6719 3.0835 -2.0014 0.9820
2.5601 3.1769 -2.0014 0.9820
2.4451 3.2663 -2.0014 0.9820
2.3270 3.3515 -2.0014 0.9820
2.0820 3.5091 -2.0015 0.9820
1.4252 3.8210 -2.0004 0.9820
0.8657 3.9798 -1.9978 0.9820
0.5794 4.0298 -1.9971 0.9820
0.2904 4.0600 -1.9966 0.9820
-0.5795 4.0303 -1.9973 0.9820
-0.7231 4.0079 -1.9977 0.9820
-1.0077 3.9482 -1.9988 0.9820
-1.2877 3.8690 -2.0002 0.9820
-1.5618 3.7705 -2.0019 0.9820
-1.8272 3.6502 -2.0023 0.9820
-2.0830 3.5107 -2.0024 0.9820
-2.2070 3.4341 -2.0024 0.9820
-2.3282 3.3532 -2.0024 0.9820
-2.6734 3.0852 -2.0025 0.9820
-3.0854 2.6735 -2.0026 0.9820
-3.1789 2.5617 -2.0026 0.9820
-3.3536 2.3284 -2.0026 0.9820
-3.5112 2.0833 -2.0027 0.9820
-1.1113 0.6068 -0.6211 0.9944
-1.1400 0.5206 -0.6148 0.9944
-1.1484 0.4757 -0.6097 0.9945
-1.1544 0.4305 -0.6043 0.9945
-1.1590 0.3403 -0.5925 0.9946
-1.1578 0.2955 -0.5861 0.9947
-1.1695 0.2544 -0.5871 0.9947
-1.1791 0.2127 -0.5877 0.9947
-1.1953 0.0855 -0.5878 0.9947
-1.1965 0.0427 -0.5873 0.9947
3.7960 0.6849 -2.0011 0.9828
3.6600 1.2182 -2.0011 0.9828
3.5638 1.4762 -2.0012 0.9828
3.5089 1.6025 -2.0012 0.9828
3.3175 1.9684 -2.0012 0.9828
3.2452 2.0856 -2.0012 0.9828
3.1687 2.2001 -2.0012 0.9828
3.0882 2.3118 -2.0013 0.9828
2.9154 2.5262 -2.0013 0.9828
2.6288 2.8235 -2.0014 0.9828
2.5264 2.9156 -2.0014 0.9828
2.0858 3.2456 -2.0015 0.9828
1.9687 3.3180 -2.0015 0.9828
1.8490 3.3862 -2.0015 0.9828
1.7270 3.4501 -2.0016 0.9828
1.4765 3.5646 -2.0016 0.9828
1.3483 3.6151 -2.0016 0.9828
1.2185 3.6610 -2.0017 0.9828
0.9542 3.7387 -2.0017 0.9828
0.6849 3.7958 -2.0010 0.9828
0.5488 3.8172 -2.0007 0.9828
0.2751 3.8458 -2.0002 0.9828
0.1376 3.8530 -2.0002 0.9828
0.0000 3.8555 -2.0001 0.9828
-0.1376 3.8531 -2.0002 0.9828
-0.2751 3.8461 -2.0004 0.9828
-0.4122 3.8342 -2.0006 0.9828
-0.6849 3.7964 -2.0013 0.9828
-1.3487 3.6161 -2.0022 0.9828
-1.4770 3.5657 -2.0022 0.9828
-1.7276 3.4514 -2.0023 0.9828
-2.2013 3.1705 -2.0024 0.9828
-2.3131 3.0900 -2.0024 0.9828
-2.5277 2.9171 -2.0025 0.9828
-2.8252 2.6303 -2.0025 0.9828
-3.0057 2.4221 -2.0026 0.9828
-3.0902 2.3133 -2.0026 0.9828
-3.1708 2.2016 -2.0026 0.9828
-0.9917 0.5884 -0.5982 0.9948
-1.0118 0.5525 -0.5981 0.9948
-1.0298 0.5154 -0.5974 0.9948
-1.0514 0.4355 -0.5904 0.9949
-1.0576 0.3945 -0.5856 0.9949
-1.0617 0.3534 -0.5805 0.9950
-1.0905 0.1967 -0.5749 0.9950
-1.0974 0.1578 -0.5752 0.9950
-1.1024 0.1185 -0.5752 0.9950
-1.1055 0.0791 -0.5750 0.9950
-1.1066 0.0395 -0.5744 0.9950
3.6537 -0.0000 -2.0011 0.9835
3.6513 0.1304 -2.0011 0.9835
3.6165 0.5200 -2.0011 0.9835
3.5957 0.6487 -2.0011 0.9835
3.5702 0.7766 -2.0012 0.9835
3.5057 1.0294 -2.0012 0.9835
3.4668 1.1539 -2.0012 0.9835
3.3757 1.3982 -2.0012 0.9835
3.0739 1.9755 -2.0013 0.9835
2.9252 2.1897 -2.0013 0.9835
2.5838 2.5838 -2.0014 0.9835
2.4900 2.6744 -2.0014 0.9835
2.3930 2.7617 -2.0014 0.9835
1.9757 3.0742 -2.0015 0.9835
1.8647 3.1428 -2.0015 0.9835
1.7514 3.2074 -2.0015 0.9835
1.3985 3.3764 -2.0016 0.9835
1.1542 3.4677 -2.0017 0.9835
0.9038 3.5412 -2.0017 0.9835
0.5201 3.6177 -2.0018 0.9835
0.2607 3.6457 -2.0019 0.9835
-0.3907 3.6343 -2.0020 0.9835
-0.5202 3.6181 -2.0020 0.9835
-0.6490 3.5973 -2.0021 0.9835
-0.7770 3.5719 -2.0021 0.9835
-0.9040 3.5419 -2.0021 0.9835
-1.0299 3.5074 -2.0021 0.9835
-1.1544 3.4685 -2.0022 0.9835
-1.3990 3.3774 -2.0022 0.9835
-1.5186 3.3254 -2.0022 0.9835
-1.7520 3.2086 -2.0023 0.9835
-1.9765 3.0755 -2.0023 0.9835
-2.0851 3.0030 -2.0024 0.9835
-2.1909 2.9268 -2.0024 0.9835
-2.2940 2.8467 -2.0024 0.9835
-2.4913 2.6759 -2.0025 0.9835
-0.8661 0.6014 -0.5775 0.9952
-0.8882 0.5708 -0.5782 0.9952
-0.9084 0.5390 -0.5785 0.9952
-0.9269 0.5061 -0.5784 0.9952
-0.9434 0.4722 -0.5778 0.9952
-0.9677 0.4008 -0.5737 0.9952
-0.9741 0.3633 -0.5694 0.9953
-0.9785 0.3257 -0.5648 0.9953
-0.9820 0.2883 -0.5606 0.9953
-0.9938 0.2537 -0.5618 0.9953
-1.0039 0.2184 -0.5627 0.9953
-1.0190 0.1465 -0.5638 0.9953
-1.0265 0.0734 -0.5637 0.9953
2.0359 0.1456 -1.1784 0.9906
2.0300 0.2919 -1.1841 0.9906
2.0153 0.3636 -1.1823 0.9906
1.9883 0.4325 -1.1748 0.9906
1.9616 0.5007 -1.1688 0.9907
1.9351 0.5682 -1.1644 0.9907
1.9033 0.6335 -1.1581 0.9908
1.8682 0.6968 -1.1512 0.9908
1.8620 0.7713 -1.1636 0.9907
1.8508 0.8452 -1.1747 0.9906
3.0996 1.5516 -2.0013 0.9841
3.0423 1.6612 -2.0013 0.9841
2.9161 1.8740 -2.0013 0.9841
2.8473 1.9770 -2.0013 0.9841
2.6991 2.1751 -2.0013 0.9841
2.6198 2.2700 -2.0014 0.9841
2.5371 2.3621 -2.0014 0.9841
2.4512 2.4512 -2.0014 0.9841
1.6615 3.0427 -2.0016 0.9841
1.4402 3.1536 -2.0016 0.9841
0.9768 3.3266 -2.0017 0.9841
0.6156 3.4121 -2.0018 0.9841
0.3706 3.4474 -2.0018 0.9841
-0.0000 3.4674 -2.0019 0.9841
-0.2474 3.4587 -2.0020 0.9841
-0.4935 3.4323 -2.0020 0.9841
-0.9770 3.3273 -2.0021 0.9841
-1.0951 3.2904 -2.0022 0.9841
-1.2119 3.2492 -2.0022 0.9841
-1.3271 3.2039 -2.0022 0.9841
-1.8750 2.9176 -2.0023 0.9841
-2.1762 2.7005 -2.0024 0.9841
-2.3634 2.5384 -2.0024 0.9841
-2.5385 2.3634 -2.0025 0.9841
-2.6212 2.2713 -2.0025 0.9841
-0.7671 0.6182 -0.5688 0.9955
-0.7846 0.5873 -0.5658 0.9955
-0.8178 0.5256 -0.5613 0.9955
-0.8534 0.4660 -0.5614 0.9955
-0.8941 0.3703 -0.5587 0.9955
-0.9011 0.3361 -0.5553 0.9956
-0.9057 0.3015 -0.5511 0.9956
-0.9259 0.2363 -0.5517 0.9956
-0.9353 0.2035 -0.5526 0.9956
-0.9492 0.1365 -0.5536 0.9956
-0.9538 0.1025 -0.5538 0.9956
-0.9565 0.0684 -0.5536 0.9956
-0.9575 0.0342 -0.5532 0.9956
