ply
format ascii 1.0
element vertex 745
property float32 x
property float32 y
property float32 z
property float32 I
end_header
-9.9712 -0.3561 -0.5060 0.9608
-9.3968 0.0000 -0.6890 0.9630
-9.1747 -0.6562 -0.8831 0.9637
-8.2367 0.0000 -0.9784 0.9674
-8.3525 -0.5974 -0.9947 0.9668
-7.9443 0.0000 -1.1256 0.9684
-7.8575 0.0000 -1.2944 0.9686
-7.8573 -0.2806 -1.2952 0.9686
-7.8652 -0.2809 -1.4793 0.9685
-7.9130 -0.5659 -1.4911 0.9682
-8.1291 -0.8740 -1.5368 0.9673
-7.8201 0.0000 -1.6530 0.9685
-7.9382 -0.5678 -1.6823 0.9680
-9.1650 -2.3392 -1.9994 0.9621
-9.0757 -2.6649 -1.9994 0.9621
-8.9750 -2.9871 -1.9994 0.9621
-8.8628 -3.3056 -1.9995 0.9621
-8.4591 -4.2343 -1.9996 0.9621
-8.1358 -4.8272 -1.9997 0.9621
-7.9585 -5.1146 -1.9997 0.9621
-7.7710 -5.3955 -1.9998 0.9621
-7.3667 -5.9364 -1.9999 0.9621
-7.1503 -6.1958 -1.9999 0.9621
-6.9248 -6.4472 -2.0000 0.9621
-6.4476 -6.9252 -2.0001 0.9621
-6.1965 -7.1511 -2.0001 0.9621
-5.9375 -7.3680 -2.0002 0.9621
-5.3971 -7.7733 -2.0003 0.9620
-5.1164 -7.9612 -2.0004 0.9620
-4.5357 -8.3066 -2.0006 0.9620
-3.9319 -8.6096 -2.0007 0.9620
-3.6222 -8.7448 -2.0008 0.9620
-2.9894 -8.9816 -2.0009 0.9620
-2.6670 -9.0829 -2.0010 0.9620
-2.3412 -9.1727 -2.0011 0.9620
-1.0121 -9.4141 -2.0014 0.9620
-0.6755 -9.4446 -2.0015 0.9620
-0.3380 -9.4630 -2.0016 0.9620
0.0000 -9.4695 -2.0017 0.9620
0.6756 -9.4461 -2.0018 0.9620
1.0124 -9.4163 -2.0019 0.9620
1.3479 -9.3746 -2.0020 0.9620
2.0134 -9.2553 -2.0021 0.9620
2.6687 -9.0888 -2.0023 0.9620
2.9915 -8.9881 -2.0024 0.9620
3.3105 -8.8759 -2.0024 0.9620
3.6254 -8.7525 -2.0025 0.9620
4.8348 -8.1486 -2.0028 0.9620
5.4041 -7.7834 -2.0029 0.9620
5.9460 -7.3786 -2.0031 0.9620
6.2058 -7.1618 -2.0031 0.9620
6.4576 -6.9360 -2.0032 0.9620
6.7013 -6.7013 -2.0033 0.9620
6.9364 -6.4580 -2.0033 0.9620
7.1627 -6.2065 -2.0034 0.9620
7.5875 -5.6800 -2.0035 0.9620
7.7856 -5.4057 -2.0035 0.9620
8.1518 -4.8367 -2.0036 0.9620
8.3194 -4.5427 -2.0036 0.9620
8.4764 -4.2430 -2.0037 0.9620
8.6225 -3.9378 -2.0037 0.9620
8.8817 -3.3127 -2.0038 0.9620
9.0957 -2.6707 -2.0038 0.9620
9.2632 -2.0151 -2.0038 0.9620
9.3293 -1.6832 -2.0039 0.9620
9.4257 -1.0134 -2.0039 0.9620
-8.5079 0.0000 -1.9995 0.9656
-8.5025 -0.3037 -1.9995 0.9656
-8.4214 -1.2108 -1.9996 0.9656
-8.3729 -1.5106 -1.9996 0.9656
-8.3137 -1.8085 -1.9996 0.9656
-8.1636 -2.3971 -1.9996 0.9656
-8.0730 -2.6869 -1.9997 0.9656
-7.9720 -2.9734 -1.9997 0.9656
-7.6089 -3.8087 -1.9998 0.9656
-7.3180 -4.3420 -1.9999 0.9656
-6.8124 -5.0997 -2.0000 0.9656
-6.4315 -5.5729 -2.0001 0.9656
-5.7994 -6.2290 -2.0002 0.9656
-5.5735 -6.4322 -2.0003 0.9656
-5.1008 -6.8138 -2.0004 0.9656
-4.3436 -7.3207 -2.0006 0.9656
-4.0796 -7.4713 -2.0007 0.9656
-3.8105 -7.6124 -2.0007 0.9656
-3.5365 -7.7438 -2.0008 0.9656
-3.2579 -7.8654 -2.0009 0.9656
-2.9752 -7.9769 -2.0009 0.9656
-2.3988 -8.1694 -2.0011 0.9656
-1.8100 -8.3204 -2.0012 0.9656
-1.5119 -8.3800 -2.0013 0.9656
-1.2119 -8.4289 -2.0014 0.9656
-0.6075 -8.4945 -2.0015 0.9656
-0.3040 -8.5111 -2.0016 0.9656
1.5125 -8.3830 -2.0020 0.9656
2.1068 -8.2543 -2.0022 0.9656
2.9774 -7.9827 -2.0024 0.9656
3.8140 -7.6194 -2.0026 0.9656
4.3481 -7.3284 -2.0027 0.9656
4.8602 -6.9999 -2.0028 0.9656
5.1071 -6.8222 -2.0029 0.9656
6.4415 -5.5816 -2.0032 0.9656
6.6368 -5.3483 -2.0032 0.9656
6.8236 -5.1081 -2.0033 0.9656
7.0017 -4.8614 -2.0033 0.9656
7.3310 -4.3497 -2.0034 0.9656
7.6228 -3.8157 -2.0035 0.9656
7.9874 -2.9791 -2.0035 0.9656
8.0887 -2.6922 -2.0036 0.9656
8.1797 -2.4018 -2.0036 0.9656
8.2603 -2.1083 -2.0036 0.9656
8.3898 -1.5137 -2.0036 0.9656
8.4385 -1.2133 -2.0036 0.9656
8.5036 -0.6082 -2.0037 0.9656
-7.7038 -0.5510 -1.9997 0.9686
-7.5471 -1.6418 -1.9998 0.9686
-7.4838 -1.9101 -1.9998 0.9686
-7.4109 -2.1760 -1.9998 0.9686
-7.3286 -2.4392 -1.9998 0.9686
-7.2370 -2.6992 -1.9999 0.9686
-7.0261 -3.2087 -1.9999 0.9686
-6.7795 -3.7019 -2.0000 0.9686
-6.4984 -4.1763 -2.0001 0.9686
-6.0151 -4.8473 -2.0002 0.9686
-5.6542 -5.2643 -2.0003 0.9686
-5.4629 -5.4629 -2.0003 0.9686
-5.0595 -5.8389 -2.0004 0.9686
-4.8480 -6.0160 -2.0005 0.9686
-4.6303 -6.1853 -2.0005 0.9686
-4.4067 -6.3468 -2.0006 0.9686
-4.1775 -6.5003 -2.0006 0.9686
-3.9429 -6.6454 -2.0007 0.9686
-3.2102 -7.0294 -2.0009 0.9686
-2.7008 -7.2410 -2.0010 0.9686
-2.1775 -7.4157 -2.0011 0.9686
-1.9114 -7.4889 -2.0012 0.9686
-1.6430 -7.5526 -2.0012 0.9686
-1.1001 -7.6511 -2.0014 0.9686
-0.8263 -7.6857 -2.0014 0.9686
0.2759 -7.7261 -2.0017 0.9686
0.5515 -7.7116 -2.0018 0.9686
0.8265 -7.6873 -2.0018 0.9686
1.1004 -7.6531 -2.0019 0.9686
1.3729 -7.6092 -2.0020 0.9686
1.6436 -7.5556 -2.0020 0.9686
1.9123 -7.4924 -2.0021 0.9686
2.1786 -7.4196 -2.0022 0.9686
2.4421 -7.3374 -2.0022 0.9686
2.7025 -7.2457 -2.0023 0.9686
2.9595 -7.1449 -2.0024 0.9686
3.2127 -7.0349 -2.0024 0.9685
3.7066 -6.7882 -2.0025 0.9685
4.4114 -6.3536 -2.0027 0.9685
4.8537 -6.0230 -2.0028 0.9685
5.0657 -5.8461 -2.0029 0.9685
5.2712 -5.6617 -2.0029 0.9685
5.4701 -5.4701 -2.0030 0.9685
6.1934 -4.6363 -2.0031 0.9685
6.5086 -4.1828 -2.0032 0.9685
6.9188 -3.4633 -2.0033 0.9685
7.0381 -3.2142 -2.0033 0.9685
7.2496 -2.7040 -2.0034 0.9685
7.3416 -2.4435 -2.0034 0.9685
7.4242 -2.1799 -2.0034 0.9685
7.4973 -1.9136 -2.0034 0.9685
7.6148 -1.3739 -2.0034 0.9685
7.7329 -0.2762 -2.0035 0.9685
-7.0599 -0.2521 -1.9999 0.9711
-7.0465 -0.5040 -1.9999 0.9711
-7.0240 -0.7552 -1.9999 0.9711
-6.9926 -1.0054 -1.9999 0.9711
-6.9523 -1.2543 -1.9999 0.9711
-6.9032 -1.5017 -1.9999 0.9711
-6.6194 -2.4689 -2.0000 0.9711
-6.3178 -3.1625 -2.0001 0.9711
-6.2010 -3.3860 -2.0001 0.9711
-6.0763 -3.6052 -2.0002 0.9711
-5.9438 -3.8199 -2.0002 0.9711
-5.5018 -4.4336 -2.0003 0.9711
-5.3401 -4.6272 -2.0003 0.9711
-4.9966 -4.9966 -2.0004 0.9711
-4.8152 -5.1719 -2.0005 0.9711
-4.6276 -5.3406 -2.0005 0.9711
-4.0305 -5.8051 -2.0007 0.9710
-3.8209 -5.9454 -2.0007 0.9710
-3.6063 -6.0782 -2.0008 0.9710
-3.3872 -6.2032 -2.0008 0.9710
-3.1637 -6.3203 -2.0009 0.9710
-2.4702 -6.6228 -2.0010 0.9710
-1.9916 -6.7825 -2.0012 0.9710
-1.7482 -6.8495 -2.0012 0.9710
-1.5027 -6.9078 -2.0013 0.9710
-1.0061 -6.9978 -2.0014 0.9710
-0.7558 -7.0294 -2.0015 0.9710
-0.5044 -7.0522 -2.0015 0.9710
-0.2524 -7.0659 -2.0016 0.9710
0.2524 -7.0663 -2.0017 0.9710
0.5044 -7.0530 -2.0018 0.9710
0.7559 -7.0307 -2.0018 0.9710
1.9925 -6.7858 -2.0021 0.9710
2.4717 -6.6268 -2.0022 0.9710
2.7067 -6.5345 -2.0023 0.9710
2.9383 -6.4339 -2.0023 0.9710
3.1661 -6.3251 -2.0024 0.9710
3.8244 -5.9509 -2.0026 0.9710
4.4389 -5.5084 -2.0027 0.9710
4.6328 -5.3466 -2.0027 0.9710
5.0027 -5.0027 -2.0028 0.9710
5.5091 -4.4395 -2.0030 0.9710
6.0852 -3.6105 -2.0031 0.9710
6.2103 -3.3911 -2.0031 0.9710
6.6300 -2.4729 -2.0032 0.9710
6.7896 -1.9936 -2.0032 0.9710
6.8565 -1.7500 -2.0033 0.9710
6.9147 -1.5042 -2.0033 0.9710
6.9640 -1.2565 -2.0033 0.9710
7.0359 -0.7564 -2.0033 0.9710
7.0585 -0.5048 -2.0033 0.9710
7.0720 -0.2526 -2.0033 0.9710
-6.4984 -0.2321 -2.0000 0.9732
-6.4653 -0.6951 -2.0000 0.9732
-6.3993 -1.1546 -2.0001 0.9732
-6.3540 -1.3822 -2.0001 0.9732
-6.1700 -2.0536 -2.0001 0.9732
-6.0079 -2.4886 -2.0002 0.9732
-5.9153 -2.7014 -2.0002 0.9732
-5.5929 -3.3184 -2.0003 0.9732
-5.4710 -3.5160 -2.0003 0.9732
-5.3421 -3.7091 -2.0003 0.9732
-5.0641 -4.0809 -2.0004 0.9731
-4.7602 -4.4319 -2.0005 0.9731
-4.5991 -4.5991 -2.0005 0.9731
-4.4321 -4.7604 -2.0006 0.9731
-3.7098 -5.3432 -2.0007 0.9731
-3.5168 -5.4723 -2.0008 0.9731
-2.9119 -5.8173 -2.0009 0.9731
-2.4896 -6.0105 -2.0010 0.9731
-1.8330 -6.2427 -2.0012 0.9731
-1.3831 -6.3579 -2.0013 0.9731
-0.9260 -6.4408 -2.0014 0.9731
-0.4642 -6.4908 -2.0015 0.9731
-0.2323 -6.5034 -2.0016 0.9731
0.0000 -6.5077 -2.0016 0.9731
0.2323 -6.5037 -2.0017 0.9731
0.4643 -6.4915 -2.0017 0.9731
0.9262 -6.4422 -2.0019 0.9731
1.1556 -6.4052 -2.0019 0.9731
1.8338 -6.2455 -2.0021 0.9731
2.2748 -6.0991 -2.0022 0.9731
3.1200 -5.7138 -2.0024 0.9731
3.3220 -5.5989 -2.0024 0.9731
4.4368 -4.7655 -2.0027 0.9731
4.7657 -4.4370 -2.0028 0.9731
5.0702 -4.0859 -2.0028 0.9731
5.3490 -3.7139 -2.0029 0.9731
5.6005 -3.3229 -2.0030 0.9731
5.7156 -3.1209 -2.0030 0.9731
5.8234 -2.9150 -2.0030 0.9731
5.9238 -2.7053 -2.0030 0.9731
6.3103 -1.6106 -2.0031 0.9731
6.4092 -1.1563 -2.0032 0.9731
6.4464 -0.9268 -2.0032 0.9731
6.4754 -0.6962 -2.0032 0.9731
6.4961 -0.4646 -2.0032 0.9731
-5.9560 -0.8563 -2.0002 0.9750
-5.7736 -1.6953 -2.0002 0.9750
-5.7095 -1.9003 -2.0002 0.9750
-5.6381 -2.1029 -2.0002 0.9750
-5.5595 -2.3028 -2.0003 0.9750
-5.4738 -2.4998 -2.0003 0.9750
-5.2817 -2.8840 -2.0003 0.9750
-5.0626 -3.2535 -2.0004 0.9750
-4.9433 -3.4322 -2.0004 0.9750
-4.5483 -3.9412 -2.0005 0.9750
-4.4048 -4.1011 -2.0006 0.9750
-3.9415 -4.5487 -2.0007 0.9749
-3.7767 -4.6866 -2.0007 0.9749
-3.6071 -4.8185 -2.0008 0.9749
-3.4329 -4.9442 -2.0008 0.9749
-2.8848 -5.2832 -2.0009 0.9749
-2.6945 -5.3830 -2.0010 0.9749
-1.6962 -5.7765 -2.0012 0.9749
-1.0690 -5.9252 -2.0014 0.9749
-0.8569 -5.9597 -2.0014 0.9749
-0.6436 -5.9867 -2.0015 0.9749
-0.4296 -6.0060 -2.0015 0.9749
-0.2149 -6.0177 -2.0016 0.9749
0.0000 -6.0217 -2.0016 0.9749
1.0693 -5.9267 -2.0019 0.9749
1.2802 -5.8849 -2.0019 0.9749
1.6968 -5.7789 -2.0020 0.9749
2.1049 -5.6434 -2.0021 0.9749
2.3050 -5.5648 -2.0022 0.9749
2.5022 -5.4791 -2.0022 0.9749
2.6963 -5.3865 -2.0023 0.9749
3.4357 -4.9483 -2.0025 0.9749
3.9452 -4.5530 -2.0026 0.9749
4.1053 -4.4094 -2.0026 0.9749
4.4095 -4.1054 -2.0027 0.9749
4.6913 -3.7805 -2.0028 0.9749
5.0688 -3.2575 -2.0028 0.9749
5.1819 -3.0746 -2.0029 0.9749
5.2884 -2.8877 -2.0029 0.9749
5.6458 -2.1058 -2.0030 0.9749
5.7174 -1.9029 -2.0030 0.9749
6.0106 -0.4299 -2.0031 0.9749
-5.5934 0.0000 -2.0002 0.9765
-5.5792 -0.3990 -2.0003 0.9765
-5.5614 -0.5979 -2.0003 0.9765
-5.5365 -0.7960 -2.0003 0.9765
-5.5046 -0.9931 -2.0003 0.9765
-5.4198 -1.3833 -2.0003 0.9765
-5.3074 -1.7665 -2.0003 0.9765
-5.0022 -2.5039 -2.0004 0.9765
-4.8109 -2.8544 -2.0005 0.9765
-4.4784 -3.3525 -2.0005 0.9765
-4.2280 -3.6636 -2.0006 0.9765
-3.9560 -3.9560 -2.0007 0.9765
-3.6638 -4.2283 -2.0007 0.9765
-3.5106 -4.3564 -2.0008 0.9765
-3.1910 -4.5959 -2.0009 0.9765
-2.8551 -4.8121 -2.0009 0.9765
-2.5047 -5.0037 -2.0010 0.9765
-2.3245 -5.0900 -2.0011 0.9765
-2.1414 -5.1699 -2.0011 0.9765
-1.7672 -5.3097 -2.0012 0.9765
-1.5767 -5.3695 -2.0012 0.9765
-1.3840 -5.4225 -2.0013 0.9765
-1.1896 -5.4686 -2.0013 0.9765
-0.9937 -5.5077 -2.0014 0.9765
-0.7965 -5.5398 -2.0014 0.9765
-0.5983 -5.5648 -2.0015 0.9765
-0.3993 -5.5828 -2.0015 0.9765
-0.1998 -5.5935 -2.0016 0.9765
0.0000 -5.5973 -2.0016 0.9765
0.1998 -5.5939 -2.0017 0.9765
0.5984 -5.5656 -2.0018 0.9765
1.5772 -5.3716 -2.0020 0.9765
1.7680 -5.3120 -2.0021 0.9765
2.3258 -5.0929 -2.0022 0.9765
2.5062 -5.0067 -2.0022 0.9765
2.6834 -4.9142 -2.0023 0.9765
2.8571 -4.8154 -2.0023 0.9765
3.0272 -4.7104 -2.0024 0.9765
3.1935 -4.5995 -2.0024 0.9765
3.5136 -4.3601 -2.0025 0.9765
3.6671 -4.2320 -2.0025 0.9765
3.8158 -4.0985 -2.0025 0.9765
3.9598 -3.9598 -2.0026 0.9765
4.2323 -3.6673 -2.0026 0.9765
4.4833 -3.3561 -2.0027 0.9765
4.6003 -3.1940 -2.0027 0.9765
4.8165 -2.8578 -2.0028 0.9765
4.9155 -2.6841 -2.0028 0.9765
5.0082 -2.5069 -2.0028 0.9765
5.1744 -2.1433 -2.0029 0.9765
5.3740 -1.5779 -2.0029 0.9765
5.5439 -0.7971 -2.0029 0.9765
5.5689 -0.5987 -2.0029 0.9765
-5.2198 0.0000 -2.0003 0.9779
-5.2165 -0.1863 -2.0003 0.9779
-5.2066 -0.3724 -2.0003 0.9779
-5.1370 -0.9268 -2.0004 0.9779
-5.0578 -1.2909 -2.0004 0.9779
-5.0085 -1.4706 -2.0004 0.9779
-4.9529 -1.6485 -2.0004 0.9779
-4.8909 -1.8242 -2.0004 0.9779
-4.8228 -1.9976 -2.0004 0.9779
-4.6681 -2.3367 -2.0005 0.9779
-4.4896 -2.6638 -2.0005 0.9779
-3.9455 -3.4188 -2.0007 0.9779
-3.8211 -3.5575 -2.0007 0.9779
-3.4191 -3.9458 -2.0008 0.9779
-3.2761 -4.0654 -2.0008 0.9779
-2.8229 -4.3925 -2.0009 0.9779
-2.3373 -4.6694 -2.0011 0.9779
-2.1692 -4.7499 -2.0011 0.9779
-1.9983 -4.8244 -2.0011 0.9779
-1.8249 -4.8928 -2.0012 0.9779
-1.6492 -4.9549 -2.0012 0.9779
-1.2915 -5.0602 -2.0013 0.9779
-0.9273 -5.1396 -2.0014 0.9779
-0.3726 -5.2097 -2.0015 0.9779
-0.1864 -5.2198 -2.0016 0.9779
0.1864 -5.2200 -2.0017 0.9779
0.3726 -5.2101 -2.0017 0.9779
0.7434 -5.1705 -2.0018 0.9779
1.2919 -5.0617 -2.0019 0.9779
1.4718 -5.0125 -2.0020 0.9779
1.6498 -4.9569 -2.0020 0.9779
1.8257 -4.8950 -2.0021 0.9779
2.3387 -4.6720 -2.0022 0.9779
2.6661 -4.4935 -2.0023 0.9779
2.8248 -4.3955 -2.0023 0.9779
2.9800 -4.2920 -2.0023 0.9779
3.2787 -4.0686 -2.0024 0.9779
3.4219 -3.9491 -2.0024 0.9779
3.5607 -3.8245 -2.0025 0.9779
3.9493 -3.4221 -2.0026 0.9779
4.1835 -3.1317 -2.0026 0.9779
4.2926 -2.9804 -2.0027 0.9779
4.4944 -2.6667 -2.0027 0.9779
4.8284 -2.0000 -2.0028 0.9779
4.8967 -1.8264 -2.0028 0.9779
5.0146 -1.4724 -2.0028 0.9779
5.1732 -0.7438 -2.0029 0.9779
5.1965 -0.5587 -2.0029 0.9779
5.2131 -0.3728 -2.0029 0.9779
-1.8978 0.0000 -0.7767 0.9918
-2.1703 -0.3916 -0.9026 0.9905
-4.7761 -1.0390 -2.0004 0.9791
-4.6377 -1.5436 -2.0005 0.9791
-4.2902 -2.3426 -2.0006 0.9791
-4.1122 -2.6428 -2.0006 0.9791
-4.0153 -2.7879 -2.0006 0.9791
-3.8063 -3.0673 -2.0007 0.9791
-3.6945 -3.2013 -2.0007 0.9791
-3.5779 -3.3311 -2.0008 0.9791
-3.3312 -3.5780 -2.0008 0.9791
-3.2015 -3.6947 -2.0008 0.9791
-2.9298 -3.9138 -2.0009 0.9791
-2.7883 -4.0159 -2.0009 0.9791
-1.8712 -4.5174 -2.0012 0.9791
-1.7088 -4.5813 -2.0012 0.9791
-1.5442 -4.6395 -2.0013 0.9791
-1.0395 -4.7783 -2.0014 0.9791
-0.8683 -4.8125 -2.0014 0.9791
-0.3489 -4.8780 -2.0015 0.9791
-0.0000 -4.8907 -2.0016 0.9791
0.3489 -4.8784 -2.0017 0.9791
1.0397 -4.7795 -2.0019 0.9791
1.3781 -4.6933 -2.0020 0.9791
1.5448 -4.6413 -2.0020 0.9791
1.7095 -4.5832 -2.0020 0.9791
1.8720 -4.5194 -2.0021 0.9791
2.3445 -4.2936 -2.0022 0.9791
2.4963 -4.2073 -2.0022 0.9791
2.6449 -4.1156 -2.0023 0.9791
2.7902 -4.0186 -2.0023 0.9791
3.0699 -3.8095 -2.0024 0.9791
3.2039 -3.6975 -2.0024 0.9791
3.3339 -3.5809 -2.0024 0.9791
3.4597 -3.4596 -2.0025 0.9791
3.5810 -3.3340 -2.0025 0.9791
3.6977 -3.2041 -2.0025 0.9791
3.8098 -3.0701 -2.0025 0.9791
3.9170 -2.9322 -2.0026 0.9791
4.4511 -2.0327 -2.0027 0.9791
4.5208 -1.8726 -2.0027 0.9791
4.6429 -1.5453 -2.0027 0.9791
4.6952 -1.3786 -2.0027 0.9791
4.7816 -1.0402 -2.0028 0.9791
4.8157 -0.8688 -2.0028 0.9791
4.8654 -0.5231 -2.0028 0.9791
-1.5284 -0.0546 -0.6665 0.9933
-1.5249 -0.1639 -0.6684 0.9933
-1.5001 -0.2707 -0.6643 0.9934
-1.5875 -0.5284 -0.7292 0.9927
-1.5984 -0.5962 -0.7435 0.9926
-4.2410 -1.7567 -2.0006 0.9802
-4.0290 -2.2000 -2.0006 0.9802
-3.8619 -2.4819 -2.0007 0.9802
-3.6751 -2.7511 -2.0007 0.9802
-3.5746 -2.8806 -2.0008 0.9802
-2.8808 -3.5749 -2.0009 0.9802
-2.7514 -3.6755 -2.0010 0.9802
-2.2005 -4.0299 -2.0011 0.9802
-2.0553 -4.1060 -2.0011 0.9802
-1.7572 -4.2423 -2.0012 0.9802
-1.4502 -4.3570 -2.0013 0.9802
-1.1357 -4.4495 -2.0013 0.9802
-0.9762 -4.4873 -2.0014 0.9802
-0.8154 -4.5194 -2.0014 0.9802
-0.3276 -4.5809 -2.0015 0.9802
0.0000 -4.5928 -2.0016 0.9802
0.1639 -4.5900 -2.0017 0.9802
0.3277 -4.5813 -2.0017 0.9802
0.4910 -4.5668 -2.0017 0.9802
0.6537 -4.5464 -2.0018 0.9802
0.8155 -4.5203 -2.0018 0.9802
1.1360 -4.4508 -2.0019 0.9802
1.2941 -4.4075 -2.0019 0.9802
1.4507 -4.3585 -2.0020 0.9802
1.6053 -4.3041 -2.0020 0.9802
2.0563 -4.1080 -2.0021 0.9802
2.3442 -3.9510 -2.0022 0.9802
2.6202 -3.7738 -2.0023 0.9802
2.7533 -3.6779 -2.0023 0.9802
3.2489 -3.2489 -2.0024 0.9802
3.3628 -3.1309 -2.0024 0.9802
3.6783 -2.7536 -2.0025 0.9802
3.7743 -2.6206 -2.0025 0.9802
3.9517 -2.3447 -2.0026 0.9802
4.1798 -1.9089 -2.0026 0.9801
4.2453 -1.7585 -2.0026 0.9801
4.3054 -1.6058 -2.0026 0.9801
4.4525 -1.1364 -2.0027 0.9801
4.5485 -0.6540 -2.0027 0.9801
4.5690 -0.4912 -2.0027 0.9801
-1.3333 0.0000 -0.6172 0.9941
-1.3376 -0.0478 -0.6195 0.9941
-1.3384 -0.0957 -0.6211 0.9941
-1.3351 -0.1435 -0.6215 0.9941
-1.3116 -0.3348 -0.6266 0.9941
-1.3324 -0.4970 -0.6582 0.9938
-1.3150 -0.6006 -0.6692 0.9936
-3.8650 -1.9347 -2.0007 0.9811
-3.6362 -2.3368 -2.0007 0.9811
-3.5505 -2.4651 -2.0008 0.9811
-3.4603 -2.5903 -2.0008 0.9811
-3.3657 -2.7122 -2.0008 0.9811
-3.2667 -2.8306 -2.0008 0.9811
-3.1637 -2.9455 -2.0009 0.9811
-2.9456 -3.1637 -2.0009 0.9811
-2.8308 -3.2669 -2.0009 0.9811
-2.7124 -3.3659 -2.0010 0.9811
-2.3372 -3.6367 -2.0011 0.9811
-2.2059 -3.7179 -2.0011 0.9811
-2.0719 -3.7943 -2.0011 0.9811
-1.9351 -3.8659 -2.0012 0.9811
-1.6545 -3.9943 -2.0012 0.9811
-1.0693 -4.1893 -2.0014 0.9811
-0.9191 -4.2249 -2.0014 0.9811
-0.4622 -4.2992 -2.0015 0.9811
-0.1543 -4.3214 -2.0016 0.9811
0.1543 -4.3216 -2.0017 0.9811
0.6154 -4.2805 -2.0018 0.9811
0.9193 -4.2259 -2.0018 0.9811
1.0695 -4.1904 -2.0019 0.9811
1.3658 -4.1036 -2.0020 0.9811
1.9361 -3.8677 -2.0021 0.9811
2.0729 -3.7962 -2.0021 0.9811
2.2071 -3.7199 -2.0022 0.9811
2.4669 -3.5531 -2.0022 0.9811
2.5922 -3.4628 -2.0022 0.9811
3.0588 -3.0588 -2.0024 0.9811
3.2693 -2.8329 -2.0024 0.9811
3.3684 -2.7144 -2.0024 0.9811
3.6394 -2.3389 -2.0025 0.9811
3.7205 -2.2075 -2.0025 0.9811
3.9353 -1.7972 -2.0026 0.9811
3.9970 -1.6556 -2.0026 0.9811
4.1049 -1.3662 -2.0026 0.9811
4.1511 -1.2189 -2.0026 0.9811
4.1920 -1.0699 -2.0026 0.9811
4.2577 -0.7682 -2.0026 0.9811
4.2824 -0.6157 -2.0026 0.9811
4.3016 -0.4625 -2.0026 0.9811
4.3154 -0.3087 -2.0026 0.9811
-1.1954 0.0000 -0.5864 0.9947
-1.1965 -0.0427 -0.5873 0.9947
-1.1953 -0.0855 -0.5878 0.9947
-1.1921 -0.1282 -0.5881 0.9947
-1.1695 -0.2544 -0.5871 0.9947
-1.1578 -0.2955 -0.5861 0.9947
-1.1543 -0.4305 -0.6043 0.9945
-1.1484 -0.4757 -0.6097 0.9945
-1.1400 -0.5206 -0.6148 0.9944
-1.1292 -0.5652 -0.6194 0.9944
-3.4314 -2.2052 -2.0008 0.9820
-3.3505 -2.3263 -2.0008 0.9820
-3.2654 -2.4444 -2.0008 0.9820
-3.1761 -2.5594 -2.0008 0.9820
-3.0827 -2.6712 -2.0009 0.9820
-2.8844 -2.8844 -2.0009 0.9820
-2.7796 -2.9855 -2.0009 0.9820
-2.5596 -3.1763 -2.0010 0.9820
-2.2055 -3.4319 -2.0011 0.9820
-2.0817 -3.5085 -2.0011 0.9820
-1.9552 -3.5806 -2.0011 0.9820
-1.8261 -3.6482 -2.0012 0.9820
-1.5613 -3.7692 -2.0012 0.9820
-1.4258 -3.8226 -2.0013 0.9820
-1.2884 -3.8712 -2.0013 0.9820
-1.0090 -3.9534 -2.0014 0.9820
-0.8673 -3.9869 -2.0014 0.9820
-0.5807 -4.0388 -2.0015 0.9820
-0.4362 -4.0570 -2.0015 0.9820
0.0000 -4.0806 -2.0016 0.9820
0.1456 -4.0781 -2.0017 0.9820
0.7246 -4.0161 -2.0018 0.9820
1.0093 -3.9543 -2.0019 0.9820
1.1498 -3.9158 -2.0019 0.9820
1.2888 -3.8724 -2.0019 0.9820
1.6955 -3.7126 -2.0020 0.9820
1.9561 -3.5823 -2.0021 0.9820
2.0827 -3.5102 -2.0021 0.9820
2.2067 -3.4337 -2.0022 0.9820
2.4461 -3.2676 -2.0022 0.9820
2.6731 -3.0849 -2.0023 0.9820
2.7815 -2.9875 -2.0023 0.9820
3.1785 -2.5614 -2.0024 0.9820
3.3532 -2.3282 -2.0024 0.9820
3.4342 -2.2070 -2.0024 0.9820
3.5108 -2.0831 -2.0025 0.9820
3.6505 -1.8273 -2.0025 0.9820
3.8250 -1.4267 -2.0025 0.9820
3.9171 -1.1502 -2.0025 0.9820
4.0721 -0.2912 -2.0026 0.9820
4.0799 -0.1457 -2.0026 0.9820
-1.1058 0.0000 -0.5737 0.9950
-1.1024 -0.1185 -0.5752 0.9950
-1.0974 -0.1578 -0.5752 0.9950
-1.0704 -0.2732 -0.5731 0.9950
-1.0514 -0.4355 -0.5904 0.9949
-1.0430 -0.4763 -0.5948 0.9948
-3.0032 -2.4201 -2.0009 0.9828
-2.8229 -2.6282 -2.0009 0.9828
-2.7273 -2.7273 -2.0010 0.9828
-2.3116 -3.0879 -2.0011 0.9828
-2.0854 -3.2450 -2.0011 0.9828
-1.8487 -3.3856 -2.0012 0.9828
-1.7267 -3.4495 -2.0012 0.9828
-1.3481 -3.6145 -2.0013 0.9828
-0.9541 -3.7380 -2.0014 0.9828
-0.8201 -3.7698 -2.0014 0.9828
-0.5491 -3.8188 -2.0015 0.9828
-0.2752 -3.8484 -2.0016 0.9828
-0.1377 -3.8558 -2.0016 0.9828
0.0000 -3.8583 -2.0016 0.9828
0.1377 -3.8559 -2.0017 0.9828
0.2753 -3.8486 -2.0017 0.9828
0.5491 -3.8193 -2.0018 0.9828
0.6851 -3.7973 -2.0018 0.9828
0.9543 -3.7389 -2.0018 0.9828
1.0872 -3.7025 -2.0019 0.9828
1.2186 -3.6614 -2.0019 0.9828
1.3486 -3.6156 -2.0019 0.9828
1.4768 -3.5653 -2.0020 0.9828
1.7274 -3.4509 -2.0020 0.9828
1.8495 -3.3871 -2.0021 0.9828
1.9692 -3.3190 -2.0021 0.9828
2.0865 -3.2466 -2.0021 0.9828
2.2011 -3.1701 -2.0021 0.9828
2.3129 -3.0896 -2.0022 0.9828
2.4217 -3.0051 -2.0022 0.9828
2.6300 -2.8248 -2.0022 0.9828
2.7291 -2.7291 -2.0023 0.9828
2.8248 -2.6300 -2.0023 0.9828
2.9169 -2.5275 -2.0023 0.9828
3.0053 -2.4218 -2.0023 0.9828
3.1705 -2.2013 -2.0024 0.9828
3.2471 -2.0868 -2.0024 0.9828
3.3195 -1.9696 -2.0024 0.9828
3.3877 -1.8498 -2.0024 0.9828
3.4516 -1.7278 -2.0024 0.9828
3.5111 -1.6035 -2.0025 0.9828
3.5661 -1.4771 -2.0025 0.9828
3.7037 -1.0875 -2.0025 0.9828
3.7718 -0.8205 -2.0025 0.9828
3.7987 -0.6854 -2.0025 0.9828
3.8208 -0.5493 -2.0025 0.9828
3.8502 -0.2754 -2.0025 0.9828
3.8576 -0.1378 -2.0025 0.9828
-1.0269 0.0000 -0.5625 0.9953
-1.0265 -0.0734 -0.5637 0.9953
-1.0039 -0.2184 -0.5627 0.9953
-0.9820 -0.2883 -0.5606 0.9953
-0.9785 -0.3257 -0.5648 0.9953
-0.9580 -0.4375 -0.5768 0.9952
-0.8661 -0.6014 -0.5775 0.9952
-2.8446 -2.2923 -2.0009 0.9835
-2.7610 -2.3924 -2.0009 0.9835
-2.5834 -2.5833 -2.0010 0.9835
-2.4895 -2.6739 -2.0010 0.9835
-2.2925 -2.8448 -2.0011 0.9835
-2.1895 -2.9248 -2.0011 0.9835
-2.0838 -3.0012 -2.0011 0.9835
-1.9753 -3.0737 -2.0011 0.9835
-1.8644 -3.1423 -2.0012 0.9835
-0.7768 -3.5707 -2.0014 0.9835
-0.6488 -3.5962 -2.0015 0.9835
-0.5201 -3.6171 -2.0015 0.9835
-0.3906 -3.6334 -2.0015 0.9835
-0.2607 -3.6451 -2.0016 0.9835
0.0000 -3.6546 -2.0016 0.9835
0.3907 -3.6338 -2.0017 0.9835
0.7769 -3.5714 -2.0018 0.9835
1.0297 -3.5070 -2.0019 0.9835
1.1543 -3.4680 -2.0019 0.9835
1.2773 -3.4247 -2.0019 0.9835
1.3988 -3.3769 -2.0020 0.9835
1.5184 -3.3249 -2.0020 0.9835
1.8652 -3.1437 -2.0021 0.9835
1.9763 -3.0751 -2.0021 0.9835
2.0848 -3.0027 -2.0021 0.9835
2.2938 -2.8464 -2.0022 0.9835
2.3939 -2.7627 -2.0022 0.9835
2.4910 -2.6755 -2.0022 0.9835
2.5850 -2.5850 -2.0022 0.9835
2.7629 -2.3940 -2.0023 0.9835
2.9267 -2.1908 -2.0023 0.9835
3.0755 -1.9765 -2.0024 0.9835
3.2088 -1.7521 -2.0024 0.9835
3.3256 -1.5188 -2.0024 0.9835
3.3777 -1.3991 -2.0024 0.9835
3.4255 -1.2777 -2.0024 0.9835
3.5425 -0.9042 -2.0025 0.9835
3.5980 -0.6492 -2.0025 0.9835
3.6352 -0.3908 -2.0025 0.9835
-0.9570 0.0000 -0.5525 0.9956
-0.9430 -0.1701 -0.5532 0.9956
-0.9353 -0.2035 -0.5526 0.9956
-0.9259 -0.2363 -0.5517 0.9956
-0.8008 -0.5560 -0.5628 0.9955
-2.2697 -2.6194 -2.0011 0.9841
-2.0771 -2.7747 -2.0011 0.9841
-1.9768 -2.8471 -2.0011 0.9841
-1.8739 -2.9159 -2.0012 0.9841
-1.6612 -3.0422 -2.0012 0.9841
-1.4400 -3.1530 -2.0013 0.9841
-1.3265 -3.2025 -2.0013 0.9841
-1.2114 -3.2478 -2.0013 0.9841
-1.0947 -3.2890 -2.0014 0.9841
-0.9766 -3.3261 -2.0014 0.9841
-0.6155 -3.4116 -2.0015 0.9841
-0.4934 -3.4314 -2.0015 0.9841
-0.2473 -3.4580 -2.0016 0.9841
0.1237 -3.4647 -2.0016 0.9841
0.3706 -3.4472 -2.0017 0.9841
0.4934 -3.4318 -2.0017 0.9841
0.8575 -3.3596 -2.0018 0.9841
1.0950 -3.2899 -2.0019 0.9841
1.3269 -3.2035 -2.0019 0.9841
1.4404 -3.1541 -2.0020 0.9841
1.5521 -3.1008 -2.0020 0.9841
1.6618 -3.0434 -2.0020 0.9841
1.8748 -2.9172 -2.0021 0.9841
1.9777 -2.8485 -2.0021 0.9841
2.3631 -2.5381 -2.0022 0.9841
2.4522 -2.4522 -2.0022 0.9841
2.6209 -2.2710 -2.0022 0.9841
2.7004 -2.1761 -2.0023 0.9841
2.7763 -2.0783 -2.0023 0.9841
2.9176 -1.8750 -2.0023 0.9841
3.0439 -1.6621 -2.0023 0.9841
1.8508 -0.8452 -1.1747 0.9906
1.8620 -0.7713 -1.1636 0.9907
1.8682 -0.6968 -1.1512 0.9908
1.9033 -0.6335 -1.1581 0.9908
1.9351 -0.5682 -1.1644 0.9907
1.9883 -0.4325 -1.1748 0.9906
2.0153 -0.3636 -1.1823 0.9906
2.0300 -0.2919 -1.1841 0.9906
2.0359 -0.1456 -1.1784 0.9906
2.0320 -0.0726 -1.1739 0.9907
