ply
format ascii 1.0
element vertex 844
property float32 x
property float32 y
property float32 z
property float32 I
end_header
0.4937 4.5917 0.8143 0.9814
0.2147 6.0126 1.0609 0.9759
-1.0468 5.8020 1.0396 0.9763
-1.2187 5.6024 1.0110 0.9770
-1.3817 5.4133 0.9851 0.9776
-1.5744 5.3617 0.9853 0.9776
7.1225 5.3318 1.3630 0.9646
0.4936 4.5910 0.7074 0.9815
0.0000 5.7614 0.8826 0.9770
-0.8646 6.0135 0.9307 0.9757
-1.3817 5.4133 0.8559 0.9776
-1.5744 5.3617 0.8561 0.9776
-1.8691 5.6156 0.9067 0.9763
-2.2012 5.9018 0.9650 0.9748
-2.5796 6.2277 1.0327 0.9731
-3.3450 7.3246 1.2336 0.9679
7.1224 5.3318 1.1586 0.9647
-0.8646 6.0135 0.7911 0.9758
-1.3792 5.4036 0.7262 0.9778
-1.5761 5.3676 0.7285 0.9777
-1.8691 5.6156 0.7707 0.9764
-2.2013 5.9018 0.8203 0.9749
-2.5796 6.2277 0.8778 0.9732
-0.0000 5.7613 0.6187 0.9771
-1.0377 5.7517 0.6276 0.9768
-1.3697 5.3664 0.5947 0.9780
-1.5627 5.3220 0.5956 0.9779
-1.8656 5.6053 0.6344 0.9765
-2.1843 5.8564 0.6712 0.9752
-3.0157 6.6034 0.7795 0.9712
7.1224 5.3317 0.7531 0.9649
0.4933 4.5889 0.3907 0.9816
-1.3697 5.3664 0.4688 0.9780
-1.5627 5.3220 0.4695 0.9780
0.4933 4.5883 0.2862 0.9817
-1.0377 5.7517 0.3624 0.9768
-1.2082 5.5538 0.3525 0.9775
-1.5627 5.3220 0.3440 0.9780
-1.8523 5.5652 0.3637 0.9768
-3.0102 6.5913 0.4493 0.9714
7.1223 5.3317 0.3508 0.9650
0.4932 4.5876 0.1819 0.9817
-1.0377 5.7517 0.2305 0.9769
-1.3697 5.3663 0.2184 0.9781
-1.5627 5.3221 0.2187 0.9780
-2.9776 7.9832 0.3360 0.9665
7.1222 5.3316 0.1503 0.9650
-1.2082 5.5538 0.0960 0.9775
-1.3697 5.3663 0.0936 0.9781
-2.5221 7.5777 0.1349 0.9686
-2.9776 7.9831 0.1439 0.9665
0.4931 4.5862 -0.0260 0.9817
-1.0377 5.7517 -0.0329 0.9769
-1.2082 5.5538 -0.0320 0.9775
-1.3697 5.3663 -0.0312 0.9781
-2.9776 7.9831 -0.0480 0.9665
0.4930 4.5856 -0.1299 0.9817
-0.8571 5.9613 -0.1696 0.9762
-1.2082 5.5538 -0.1600 0.9775
-1.3697 5.3663 -0.1559 0.9781
7.1221 5.3315 -0.4512 0.9650
0.4929 4.5849 -0.2339 0.9817
-0.8571 5.9613 -0.3054 0.9762
-1.2081 5.5538 -0.2882 0.9775
-1.3697 5.3663 -0.2809 0.9781
-2.5221 7.5776 -0.4050 0.9685
-9.9595 0.3557 -0.5054 0.9609
-0.8571 5.9612 -0.4416 0.9761
-1.3697 5.3662 -0.4061 0.9780
-1.5627 5.3222 -0.4067 0.9780
-2.5221 7.5776 -0.5856 0.9685
-7.7628 6.2557 -0.7310 0.9608
-9.5690 0.6844 -0.7034 0.9623
-0.8605 5.9849 -0.5805 0.9760
-1.0418 5.7744 -0.5633 0.9767
-3.2100 7.0289 -0.7419 0.9694
-3.5049 7.0020 -0.7517 0.9690
-9.0169 0.3220 -0.8662 0.9644
1.7217 5.1728 -0.6476 0.9783
2.0903 9.6090 -1.1681 0.9612
-0.8605 5.9849 -0.7182 0.9759
-1.2129 5.5758 -0.6778 0.9773
-1.3751 5.3875 -0.6605 0.9779
-1.5753 5.3650 -0.6642 0.9777
-2.1952 5.8856 -0.7462 0.9750
-8.3574 0.5977 -0.9953 0.9668
-8.2393 0.2943 -0.9793 0.9673
7.0179 5.2536 -1.2421 0.9652
1.4323 4.8780 -0.7203 0.9797
-0.8552 5.9479 -0.8514 0.9760
-1.0354 5.7387 -0.8262 0.9767
-1.3666 5.3542 -0.7830 0.9779
-1.8584 5.5836 -0.8338 0.9765
-2.9916 6.5506 -1.0204 0.9713
-6.8027 6.8027 -1.3631 0.9619
-6.7816 6.3139 -1.3129 0.9633
-8.3275 0.8953 -1.1867 0.9667
-8.0175 0.5734 -1.1389 0.9680
-7.9253 0.2831 -1.1236 0.9685
6.9856 5.2294 -1.4375 0.9652
1.8344 4.9183 -0.8648 0.9789
1.4325 4.8787 -0.8377 0.9796
-0.8552 5.9478 -0.9899 0.9759
-1.0354 5.7387 -0.9606 0.9766
-1.2054 5.5413 -0.9342 0.9773
-1.3666 5.3542 -0.9103 0.9778
-1.5618 5.3189 -0.9132 0.9778
-1.8584 5.5836 -0.9694 0.9764
-2.1837 5.8546 -1.0294 0.9750
-2.5649 6.1922 -1.1041 0.9732
-6.8027 6.8027 -1.5849 0.9618
-6.8063 5.8976 -1.4836 0.9641
-6.7813 5.4647 -1.4347 0.9653
-7.2674 5.4403 -1.4955 0.9639
-7.8387 5.4425 -1.5721 0.9621
-7.8178 0.2792 -1.2887 0.9688
6.8991 5.5596 -1.6654 0.9646
-0.8552 5.9478 -1.1295 0.9758
-6.7161 6.2528 -1.7248 0.9633
-6.7813 5.4647 -1.6370 0.9652
-8.1056 0.8714 -1.5323 0.9674
9.4629 -0.0000 -2.0003 0.9621
9.4388 0.6751 -2.0003 0.9621
9.3667 1.3467 -2.0003 0.9621
9.3127 1.6802 -2.0003 0.9621
9.2468 2.0115 -2.0003 0.9621
9.1692 2.3403 -2.0003 0.9620
8.9790 2.9885 -2.0004 0.9620
8.8667 3.3071 -2.0004 0.9620
8.7431 3.6215 -2.0004 0.9620
8.3803 4.1949 -1.9810 0.9624
7.5203 4.4620 -1.8484 0.9649
7.3563 4.7276 -1.8484 0.9649
7.1830 4.9872 -1.8484 0.9649
6.8885 5.1567 -1.8189 0.9654
6.8091 5.4871 -1.8485 0.9649
6.6091 5.7268 -1.8485 0.9649
6.4006 5.9591 -1.8486 0.9649
6.1839 6.1839 -1.8486 0.9649
5.9593 6.4008 -1.8486 0.9649
5.2413 7.0016 -1.8487 0.9649
4.7287 7.3580 -1.8488 0.9649
4.4631 7.5222 -1.8489 0.9649
1.8173 4.8723 -1.0992 0.9790
1.6097 4.8363 -1.0774 0.9794
2.1635 8.4766 -1.8492 0.9649
1.2451 8.6599 -1.8494 0.9649
0.4924 4.5801 -0.9737 0.9813
0.6242 8.7272 -1.8495 0.9649
0.3123 8.7441 -1.8495 0.9649
-0.9354 8.7004 -1.8497 0.9649
-1.0354 5.7386 -1.2326 0.9764
-1.2054 5.5412 -1.1987 0.9771
-1.3666 5.3542 -1.1680 0.9777
-1.8584 5.5836 -1.2439 0.9762
-2.9916 6.5507 -1.5222 0.9710
-3.9179 7.8269 -1.8502 0.9648
-4.1949 7.6823 -1.8502 0.9648
-5.7327 6.6159 -1.8504 0.9648
-5.9653 6.4072 -1.8505 0.9648
-6.7193 5.4147 -1.8241 0.9653
-7.0087 5.2467 -1.8506 0.9648
-7.1916 4.9932 -1.8507 0.9648
-7.7723 4.2440 -1.8719 0.9644
-8.6083 3.9313 -2.0004 0.9620
-8.7549 3.6264 -2.0031 0.9620
-8.8789 3.3116 -2.0031 0.9620
-8.9915 2.9926 -2.0031 0.9620
-9.0926 2.6698 -2.0031 0.9620
-9.3261 1.6826 -2.0032 0.9620
-7.8315 0.2797 -1.6565 0.9685
8.5061 0.3038 -2.0004 0.9656
8.4899 0.6072 -2.0004 0.9656
8.4250 1.2113 -2.0004 0.9656
8.3172 1.8093 -2.0005 0.9656
8.1670 2.3981 -2.0005 0.9656
7.9753 2.9746 -2.0005 0.9656
7.8641 3.2574 -2.0005 0.9656
7.7429 3.5360 -2.0005 0.9656
7.6077 3.8082 -1.9995 0.9656
7.0877 4.2054 -1.9369 0.9667
6.6167 4.2523 -1.8485 0.9682
6.1245 4.9354 -1.8486 0.9682
5.9445 5.1509 -1.8486 0.9682
5.7570 5.3599 -1.8487 0.9682
5.5621 5.5621 -1.8487 0.9682
4.7142 6.2975 -1.8488 0.9682
4.0143 6.7657 -1.8489 0.9682
3.7703 6.9048 -1.8490 0.9682
3.0108 7.2688 -1.8491 0.9682
0.2809 7.8644 -1.8495 0.9682
0.0000 7.8696 -1.8496 0.9682
-0.2809 7.8648 -1.8496 0.9682
-0.5614 7.8500 -1.8496 0.9682
-0.8413 7.8251 -1.8497 0.9682
-1.0354 5.7386 -1.3705 0.9763
-1.5618 5.3190 -1.3029 0.9775
-2.1296 5.7097 -1.4322 0.9753
-2.5649 6.1923 -1.5752 0.9728
-4.2562 6.6227 -1.8502 0.9682
-4.4899 6.4667 -1.8502 0.9682
-4.7180 6.3025 -1.8503 0.9682
-5.7625 5.3651 -1.8504 0.9682
-6.1308 4.9405 -1.8505 0.9682
-6.3033 4.7186 -1.8505 0.9682
-6.4678 4.4906 -1.8505 0.9682
-6.6240 4.2570 -1.8506 0.9682
-7.4605 4.0738 -1.9978 0.9657
-7.7522 3.5403 -2.0029 0.9656
-7.8737 3.2614 -2.0030 0.9656
-8.3279 1.8116 -2.0030 0.9656
-8.4360 1.2129 -2.0030 0.9656
-8.5173 0.3042 -2.0030 0.9656
7.7265 -0.0000 -2.0005 0.9686
7.7216 0.2758 -2.0005 0.9686
7.7069 0.5512 -2.0005 0.9686
7.6479 1.0996 -2.0006 0.9686
7.6038 1.3719 -2.0006 0.9686
7.5501 1.6424 -2.0006 0.9686
7.4867 1.9108 -2.0006 0.9686
7.4137 2.1769 -2.0006 0.9686
7.3314 2.4401 -2.0006 0.9686
7.2397 2.7003 -2.0006 0.9686
6.4777 4.1629 -1.9937 0.9687
6.0661 4.2118 -1.9121 0.9699
5.5595 4.4801 -1.8487 0.9709
4.8656 5.2260 -1.8488 0.9709
4.6761 5.3965 -1.8488 0.9709
4.4806 5.5600 -1.8489 0.9709
4.0726 5.8657 -1.8489 0.9709
3.1966 6.3861 -1.8491 0.9709
1.7663 6.9205 -1.8493 0.9709
1.5183 6.9793 -1.8493 0.9709
1.0165 7.0701 -1.8494 0.9709
0.4863 4.5230 -1.1778 0.9814
0.3355 4.6906 -1.2176 0.9808
0.2550 7.1387 -1.8495 0.9709
0.0000 7.1434 -1.8495 0.9709
-0.7637 7.1029 -1.8497 0.9709
-1.0359 5.7418 -1.5107 0.9762
-1.5618 5.3190 -1.4353 0.9774
-2.1481 5.7592 -1.5915 0.9749
-2.9682 6.4995 -1.8500 0.9709
-3.1984 6.3895 -1.8500 0.9709
-3.4244 6.2714 -1.8501 0.9709
-3.6462 6.1453 -1.8501 0.9709
-3.8633 6.0113 -1.8501 0.9709
-4.0754 5.8697 -1.8502 0.9709
-4.2824 5.7206 -1.8502 0.9709
-4.4839 5.5642 -1.8502 0.9709
-5.2305 4.8697 -1.8504 0.9709
-5.5647 4.4843 -1.8504 0.9709
-6.4852 4.1678 -1.9960 0.9686
-6.7891 3.7071 -2.0028 0.9685
-6.9171 3.4625 -2.0028 0.9685
-7.3397 2.4429 -2.0029 0.9685
-7.5589 1.6443 -2.0029 0.9685
-7.6570 1.1009 -2.0029 0.9685
-7.6914 0.8269 -2.0029 0.9685
-7.7160 0.5519 -2.0029 0.9685
-7.7308 0.2761 -2.0029 0.9685
7.0671 -0.0000 -2.0006 0.9710
7.0626 0.2522 -2.0006 0.9710
7.0491 0.5042 -2.0006 0.9710
6.8477 1.7478 -2.0007 0.9710
6.7056 2.2318 -2.0007 0.9710
6.2030 3.3871 -2.0008 0.9710
6.0783 3.6064 -2.0008 0.9710
5.7922 4.0216 -1.9962 0.9711
5.2307 4.2152 -1.9018 0.9725
4.9355 4.2767 -1.8488 0.9732
4.2769 4.9358 -1.8489 0.9732
3.1303 5.7327 -1.8491 0.9732
1.8177 4.8735 -1.4725 0.9786
1.4331 4.8808 -1.4400 0.9791
1.6155 6.3296 -1.8493 0.9732
1.3886 6.3833 -1.8493 0.9732
1.1599 6.4289 -1.8494 0.9732
0.4850 4.5111 -1.2844 0.9813
0.3235 4.5238 -1.2839 0.9813
0.2332 6.5290 -1.8495 0.9732
0.0000 6.5334 -1.8495 0.9732
-0.4661 6.5170 -1.8496 0.9732
-1.3673 5.3571 -1.5652 0.9773
-2.1286 5.7070 -1.7243 0.9750
-2.7147 5.9443 -1.8500 0.9732
-3.1319 5.7357 -1.8500 0.9732
-3.3347 5.6203 -1.8501 0.9732
-3.5332 5.4978 -1.8501 0.9732
-3.7273 5.3683 -1.8501 0.9732
-3.9166 5.2319 -1.8501 0.9732
-4.1009 5.0889 -1.8502 0.9732
-4.6216 4.6215 -1.8503 0.9732
-4.7836 4.4537 -1.8503 0.9732
-5.7982 4.0257 -1.9983 0.9711
-5.9485 3.8229 -2.0017 0.9710
-6.2090 3.3904 -2.0027 0.9710
-6.3261 3.1666 -2.0027 0.9710
-6.6285 2.4723 -2.0028 0.9710
-6.7881 1.9932 -2.0028 0.9710
-6.8549 1.7496 -2.0028 0.9710
-7.0028 1.0068 -2.0028 0.9710
-7.0342 0.7562 -2.0028 0.9710
-7.0703 0.2525 -2.0028 0.9710
6.5048 -0.0000 -2.0007 0.9731
6.4882 0.4641 -2.0007 0.9731
6.4675 0.6953 -2.0007 0.9731
6.3562 1.3827 -2.0008 0.9731
6.3028 1.6087 -2.0008 0.9731
6.2414 1.8326 -2.0008 0.9731
6.0099 2.4894 -2.0008 0.9731
5.8171 2.9118 -2.0008 0.9731
5.7095 3.1176 -2.0009 0.9731
5.2015 3.8938 -1.9985 0.9732
5.0517 4.0709 -1.9955 0.9732
4.5285 4.2162 -1.9031 0.9744
4.2505 4.2505 -1.8489 0.9752
3.9365 4.5430 -1.8489 0.9752
3.7719 4.6807 -1.8490 0.9752
3.6025 4.8124 -1.8490 0.9752
3.2501 5.0573 -1.8490 0.9752
3.0676 5.1701 -1.8491 0.9752
2.4975 5.4687 -1.8492 0.9752
2.3007 5.5544 -1.8492 0.9752
1.8179 4.8739 -1.6000 0.9785
1.6100 4.8372 -1.5681 0.9789
1.4869 5.8257 -1.8493 0.9752
1.0676 5.9172 -1.8494 0.9752
0.8557 5.9516 -1.8494 0.9752
0.4838 4.5003 -1.3922 0.9812
0.3219 4.5009 -1.3879 0.9813
-0.6428 5.9791 -1.8496 0.9751
-0.8558 5.9525 -1.8497 0.9751
-1.0678 5.9182 -1.8497 0.9751
-1.4873 5.8272 -1.8498 0.9751
-1.6944 5.7705 -1.8498 0.9751
-2.1018 5.6351 -1.8499 0.9751
-2.3016 5.5566 -1.8499 0.9751
-2.4985 5.4710 -1.8499 0.9751
-2.8825 5.2790 -1.8500 0.9751
-3.0692 5.1728 -1.8500 0.9751
-3.4305 4.9408 -1.8501 0.9751
-3.7743 4.6836 -1.8501 0.9751
-4.8684 4.2185 -1.9814 0.9734
-5.2063 3.8974 -2.0003 0.9732
-5.4772 3.5200 -2.0026 0.9731
-5.5994 3.3223 -2.0026 0.9731
-5.7145 3.1204 -2.0026 0.9731
-5.9226 2.7048 -2.0027 0.9731
-6.0155 2.4917 -2.0027 0.9731
-6.1006 2.2754 -2.0027 0.9731
-6.1780 2.0562 -2.0027 0.9731
-6.2474 1.8344 -2.0027 0.9731
-6.3090 1.6103 -2.0027 0.9731
-6.3624 1.3841 -2.0027 0.9731
6.0153 0.2148 -2.0008 0.9749
5.9847 0.6434 -2.0008 0.9749
5.9579 0.8566 -2.0008 0.9749
5.9236 1.0687 -2.0008 0.9749
5.8323 1.4886 -2.0008 0.9749
5.5612 2.3035 -2.0009 0.9749
5.3828 2.6944 -2.0009 0.9749
5.2832 2.8848 -2.0009 0.9749
5.1769 3.0716 -2.0009 0.9749
4.9447 3.4332 -2.0010 0.9749
4.8190 3.6075 -2.0010 0.9749
4.5423 3.9359 -1.9979 0.9750
4.3933 4.0903 -1.9953 0.9750
4.2033 4.2033 -1.9759 0.9753
3.9245 4.2152 -1.9144 0.9760
3.4903 4.3312 -1.8490 0.9768
3.3335 4.4531 -1.8490 0.9768
3.1725 4.5693 -1.8491 0.9768
3.0074 4.6796 -1.8491 0.9768
2.6660 4.8824 -1.8491 0.9768
2.3110 5.0603 -1.8492 0.9768
1.3759 5.3907 -1.8493 0.9768
0.7918 5.5071 -1.8494 0.9768
0.4826 4.4893 -1.5009 0.9811
0.3206 4.4829 -1.4940 0.9812
0.1986 5.5605 -1.8495 0.9768
-0.0000 5.5641 -1.8495 0.9768
-0.1986 5.5607 -1.8496 0.9768
-0.3970 5.5501 -1.8496 0.9768
-0.7919 5.5079 -1.8497 0.9768
-1.3762 5.3919 -1.8498 0.9768
-1.5678 5.3394 -1.8498 0.9768
-1.7574 5.2801 -1.8498 0.9768
-2.1297 5.1415 -1.8499 0.9768
-2.3119 5.0623 -1.8499 0.9768
-2.4911 4.9766 -1.8499 0.9768
-2.8399 4.7864 -1.8500 0.9768
-3.0089 4.6820 -1.8500 0.9768
-3.1742 4.5717 -1.8500 0.9768
-3.6723 4.2381 -1.8641 0.9766
-4.5460 3.9392 -1.9995 0.9750
-5.3872 2.6967 -2.0026 0.9749
-5.5660 2.3055 -2.0026 0.9749
-5.6447 2.1054 -2.0026 0.9749
-5.7163 1.9026 -2.0026 0.9749
-5.7806 1.6973 -2.0026 0.9749
-5.8375 1.4900 -2.0026 0.9749
-5.8870 1.2806 -2.0026 0.9749
-5.9902 0.6440 -2.0027 0.9749
-6.0094 0.4298 -2.0027 0.9749
5.5631 0.5981 -2.0009 0.9765
5.4214 1.3837 -2.0009 0.9765
5.2425 1.9554 -2.0009 0.9765
5.1694 2.1412 -2.0009 0.9765
4.8122 2.8552 -2.0010 0.9765
4.2290 3.6644 -2.0011 0.9765
3.9502 3.9502 -1.9978 0.9765
3.8024 4.0841 -1.9955 0.9766
2.9490 4.2473 -1.8491 0.9783
2.7955 4.3499 -1.8491 0.9783
2.6385 4.4470 -1.8491 0.9783
1.4335 4.8821 -1.8196 0.9786
1.2789 5.0108 -1.8493 0.9783
0.9182 5.0894 -1.8494 0.9783
0.6481 4.5078 -1.6286 0.9808
0.1846 5.1686 -1.8495 0.9783
0.0000 5.1720 -1.8495 0.9783
-0.7361 5.1196 -1.8497 0.9783
-0.9184 5.0902 -1.8497 0.9783
-1.2792 5.0119 -1.8497 0.9783
-1.4573 4.9631 -1.8498 0.9783
-1.6335 4.9080 -1.8498 0.9783
-1.9796 4.7791 -1.8498 0.9783
-2.1489 4.7054 -1.8499 0.9783
-2.3155 4.6258 -1.8499 0.9783
-2.4792 4.5403 -1.8499 0.9783
-2.9504 4.2494 -1.8500 0.9783
-3.1683 4.2323 -1.8906 0.9778
-3.4036 4.2236 -1.9398 0.9772
-3.8050 4.0869 -1.9969 0.9766
-4.3600 3.5135 -2.0024 0.9765
-4.4827 3.3557 -2.0024 0.9765
-4.5996 3.1936 -2.0024 0.9765
-4.9148 2.6837 -2.0025 0.9765
-5.0937 2.3262 -2.0025 0.9765
-5.1736 2.1429 -2.0025 0.9765
-5.2468 1.9570 -2.0025 0.9765
-5.3133 1.7684 -2.0026 0.9765
-5.4260 1.3849 -2.0026 0.9765
5.2180 0.1864 -2.0009 0.9779
5.1915 0.5581 -2.0009 0.9779
5.1384 0.9271 -2.0009 0.9779
5.0592 1.2913 -2.0010 0.9779
4.8923 1.8247 -2.0010 0.9779
4.8241 1.9982 -2.0010 0.9779
4.6693 2.3373 -2.0010 0.9779
4.3928 2.8231 -2.0011 0.9779
4.1803 3.1293 -2.0011 0.9779
3.4143 3.9403 -1.9980 0.9779
3.2683 4.0558 -1.9961 0.9779
2.9216 4.2079 -1.9631 0.9783
2.7097 4.2163 -1.9207 0.9788
2.1600 4.3150 -1.8492 0.9795
2.0046 4.3895 -1.8492 0.9795
1.3596 4.6303 -1.8493 0.9795
0.8569 4.7493 -1.8494 0.9795
0.4803 4.4670 -1.7217 0.9809
0.3184 4.4514 -1.7102 0.9811
0.1723 4.8232 -1.8495 0.9795
-0.5159 4.7989 -1.8496 0.9795
-0.6869 4.7775 -1.8496 0.9795
-1.0260 4.7165 -1.8497 0.9795
-1.1937 4.6769 -1.8497 0.9795
-1.6869 4.5227 -1.8498 0.9795
-1.8472 4.4597 -1.8498 0.9795
-2.3164 4.2421 -1.8522 0.9795
-2.5110 4.2320 -1.8858 0.9791
-3.4164 3.9427 -1.9992 0.9779
-3.9489 3.4217 -2.0023 0.9779
-4.2921 2.9801 -2.0024 0.9779
-4.3958 2.8250 -2.0024 0.9779
-4.4938 2.6663 -2.0024 0.9779
-4.6727 2.3390 -2.0025 0.9779
-4.7532 2.1707 -2.0025 0.9779
-5.0632 1.2923 -2.0025 0.9779
-5.1425 0.9278 -2.0025 0.9779
-5.1724 0.7437 -2.0025 0.9779
-5.1956 0.5586 -2.0025 0.9779
-5.2223 0.1865 -2.0025 0.9779
4.8766 0.3488 -2.0010 0.9791
4.8611 0.5226 -2.0010 0.9791
4.8393 0.6958 -2.0010 0.9791
4.5809 1.7086 -2.0010 0.9791
4.2912 2.3432 -2.0011 0.9791
4.2049 2.4949 -2.0011 0.9791
4.1132 2.6434 -2.0011 0.9791
4.0163 2.7885 -2.0011 0.9791
3.9142 2.9301 -2.0011 0.9791
3.6953 3.2020 -2.0012 0.9791
3.4575 3.4575 -2.0012 0.9791
3.3319 3.5787 -2.0012 0.9791
3.0668 3.8057 -2.0004 0.9791
2.9265 3.9093 -1.9986 0.9791
2.6359 4.1016 -1.9954 0.9791
1.7509 4.2271 -1.8726 0.9804
1.4269 4.2873 -1.8493 0.9807
1.1175 4.3783 -1.8494 0.9807
0.9605 4.4154 -1.8494 0.9807
0.4790 4.4557 -1.8341 0.9808
0.3173 4.4370 -1.8206 0.9810
0.1613 4.5161 -1.8495 0.9807
-0.0000 4.5191 -1.8495 0.9807
-0.4831 4.4934 -1.8496 0.9807
-0.8024 4.4476 -1.8497 0.9807
-0.9607 4.4161 -1.8497 0.9807
-1.1177 4.3791 -1.8497 0.9807
-1.2733 4.3365 -1.8497 0.9807
-1.5817 4.2406 -1.8524 0.9806
-1.9308 4.2279 -1.9023 0.9801
-2.3025 4.2167 -1.9663 0.9794
-2.4871 4.1918 -1.9948 0.9792
-2.6371 4.1035 -1.9964 0.9791
-2.9280 3.9114 -1.9997 0.9791
-3.3336 3.5806 -2.0023 0.9791
-3.4593 3.4593 -2.0023 0.9791
-3.5806 3.3337 -2.0023 0.9791
-3.8094 3.0698 -2.0023 0.9791
-3.9166 2.9319 -2.0023 0.9791
-4.2076 2.4965 -2.0024 0.9791
-4.3751 2.1900 -2.0024 0.9791
-4.4505 2.0325 -2.0024 0.9791
-4.5842 1.7098 -2.0024 0.9791
-4.6423 1.5451 -2.0025 0.9791
-4.6945 1.3784 -2.0025 0.9791
-4.7407 1.2100 -2.0025 0.9791
-2.1703 0.3916 -0.9026 0.9905
-1.9449 0.2796 -0.8042 0.9915
-1.9525 0.1396 -0.8011 0.9916
4.5914 0.0000 -2.0010 0.9802
4.5797 0.3276 -2.0010 0.9802
4.5651 0.4908 -2.0010 0.9802
4.5447 0.6534 -2.0010 0.9802
4.5185 0.8152 -2.0010 0.9802
4.4489 1.1355 -2.0010 0.9802
4.3566 1.4500 -2.0011 0.9802
4.3020 1.6046 -2.0011 0.9802
4.2421 1.7571 -2.0011 0.9802
4.1767 1.9074 -2.0011 0.9802
4.0300 2.2005 -2.0011 0.9802
3.8628 2.4825 -2.0011 0.9802
3.7717 2.6188 -2.0012 0.9802
3.2470 3.2470 -2.0012 0.9802
3.1290 3.3608 -2.0013 0.9802
3.0071 3.4704 -2.0013 0.9802
2.8814 3.5756 -2.0013 0.9802
2.7519 3.6762 -2.0013 0.9802
2.4805 3.8597 -1.9996 0.9802
2.3395 3.9431 -1.9982 0.9802
2.1959 4.0214 -1.9969 0.9802
2.0497 4.0947 -1.9957 0.9802
1.9012 4.1630 -1.9945 0.9802
1.7423 4.2062 -1.9842 0.9803
1.5707 4.2112 -1.9588 0.9806
1.2390 4.2196 -1.9166 0.9810
1.0779 4.2230 -1.8995 0.9812
0.9193 4.2260 -1.8848 0.9813
0.7629 4.2286 -1.8726 0.9814
0.4551 4.2334 -1.8556 0.9816
0.3031 4.2378 -1.8516 0.9816
0.1515 4.2411 -1.8495 0.9817
-0.0000 4.2439 -1.8495 0.9817
-0.1515 4.2412 -1.8496 0.9817
-0.6086 4.2327 -1.8636 0.9815
-0.7634 4.2311 -1.8738 0.9814
-0.9200 4.2291 -1.8862 0.9813
-1.2402 4.2237 -1.9185 0.9810
-1.9018 4.1644 -1.9952 0.9802
-2.0504 4.0963 -1.9964 0.9802
-2.4816 3.8614 -2.0004 0.9802
-2.6198 3.7733 -2.0020 0.9802
-2.8827 3.5772 -2.0022 0.9802
-3.2486 3.2486 -2.0022 0.9802
-3.3625 3.1306 -2.0023 0.9802
-3.5773 2.8828 -2.0023 0.9802
-3.7740 2.6203 -2.0023 0.9802
-3.8651 2.4839 -2.0023 0.9802
-3.9513 2.3444 -2.0023 0.9802
-4.0325 2.2019 -2.0024 0.9802
-4.1085 2.0566 -2.0024 0.9802
-1.5984 0.5962 -0.7435 0.9926
-1.5875 0.5284 -0.7292 0.9927
-1.5707 0.4612 -0.7134 0.9929
-1.5151 0.2178 -0.6671 0.9933
-1.5249 0.1639 -0.6684 0.9933
-1.5293 0.1094 -0.6682 0.9933
-1.5284 0.0546 -0.6665 0.9933
4.3230 0.0000 -2.0011 0.9811
4.3203 0.1543 -2.0011 0.9811
4.2983 0.4621 -2.0011 0.9811
4.2790 0.6152 -2.0011 0.9811
4.2544 0.7676 -2.0011 0.9811
4.1480 1.2180 -2.0011 0.9811
4.1019 1.3652 -2.0011 0.9811
4.0506 1.5108 -2.0011 0.9811
3.9941 1.6544 -2.0011 0.9811
3.8659 1.9351 -2.0011 0.9811
3.7944 2.0719 -2.0011 0.9811
3.7180 2.2060 -2.0012 0.9811
3.5512 2.4657 -2.0012 0.9811
3.4610 2.5908 -2.0012 0.9811
3.3663 2.7128 -2.0012 0.9811
3.2674 2.8312 -2.0012 0.9811
3.1643 2.9461 -2.0012 0.9811
3.0571 3.0571 -2.0013 0.9811
2.9461 3.1644 -2.0013 0.9811
2.8313 3.2675 -2.0013 0.9811
2.4659 3.5516 -2.0014 0.9811
2.3376 3.6373 -2.0014 0.9811
2.0715 3.7936 -2.0008 0.9811
1.9336 3.8629 -1.9996 0.9811
1.6514 3.9870 -1.9976 0.9812
1.3616 4.0911 -1.9958 0.9812
1.0656 4.1749 -1.9945 0.9812
0.3014 4.2140 -1.9556 0.9816
0.1505 4.2149 -1.9523 0.9816
0.0000 4.2154 -1.9512 0.9816
-0.1506 4.2154 -1.9525 0.9816
-0.3015 4.2150 -1.9561 0.9815
-0.4531 4.2142 -1.9619 0.9815
-0.7598 4.2113 -1.9808 0.9813
-1.0658 4.1758 -1.9949 0.9812
-1.3620 4.0921 -1.9963 0.9812
-1.5078 4.0426 -1.9972 0.9812
-1.6519 3.9881 -1.9981 0.9812
-1.7942 3.9286 -1.9992 0.9811
-1.9343 3.8643 -2.0003 0.9811
-2.2070 3.7197 -2.0021 0.9811
-2.5921 3.4626 -2.0021 0.9811
-2.8326 3.2689 -2.0022 0.9811
-3.0586 3.0586 -2.0022 0.9811
-3.4629 2.5923 -2.0023 0.9811
-3.5532 2.4670 -2.0023 0.9811
-3.7966 2.0731 -2.0023 0.9811
-1.3151 0.6006 -0.6692 0.9936
-1.3263 0.5494 -0.6645 0.9937
-1.3324 0.4970 -0.6582 0.9938
-1.3116 0.3348 -0.6266 0.9941
-1.3013 0.2831 -0.6164 0.9941
-1.3160 0.2374 -0.6190 0.9941
-1.3273 0.1908 -0.6207 0.9941
-1.3384 0.0957 -0.6211 0.9941
-1.3376 0.0478 -0.6195 0.9941
4.0795 0.0000 -2.0011 0.9820
4.0769 0.1456 -2.0011 0.9820
4.0562 0.4361 -2.0011 0.9820
3.9528 1.0089 -2.0011 0.9820
3.8708 1.2883 -2.0011 0.9820
3.7110 1.6947 -2.0012 0.9820
3.5807 1.9552 -2.0012 0.9820
3.4321 2.2057 -2.0012 0.9820
3.0833 2.6717 -2.0013 0.9820
2.9860 2.7801 -2.0013 0.9820
2.8849 2.8849 -2.0013 0.9820
2.7801 2.9861 -2.0013 0.9820
2.6718 3.0834 -2.0013 0.9820
2.3270 3.3515 -2.0014 0.9820
2.0820 3.5090 -2.0014 0.9820
1.9554 3.5811 -2.0014 0.9820
1.8264 3.6487 -2.0015 0.9820
1.6950 3.7116 -2.0015 0.9820
1.5613 3.7693 -2.0013 0.9820
1.4251 3.8210 -2.0004 0.9820
1.2874 3.8679 -1.9996 0.9820
1.1481 3.9101 -1.9989 0.9820
1.0075 3.9474 -1.9983 0.9820
0.8657 3.9797 -1.9978 0.9820
0.7230 4.0072 -1.9974 0.9820
0.2904 4.0599 -1.9966 0.9820
0.1453 4.0675 -1.9965 0.9820
-0.0000 4.0700 -1.9964 0.9820
-0.1453 4.0676 -1.9965 0.9820
-0.4352 4.0477 -1.9969 0.9820
-0.8659 3.9804 -1.9981 0.9820
-1.0077 3.9480 -1.9987 0.9820
-1.1483 3.9108 -1.9994 0.9820
-1.4255 3.8220 -2.0009 0.9820
-1.6955 3.7125 -2.0020 0.9820
-2.3278 3.3527 -2.0021 0.9820
-2.5611 3.1781 -2.0021 0.9820
-2.7813 2.9874 -2.0022 0.9820
-2.8862 2.8862 -2.0022 0.9820
-3.2677 2.4462 -2.0022 0.9820
-3.3529 2.3280 -2.0023 0.9820
-3.4339 2.2068 -2.0023 0.9820
-3.5105 2.0829 -2.0023 0.9820
-1.1113 0.6068 -0.6211 0.9944
-1.1292 0.5652 -0.6194 0.9944
-1.1484 0.4757 -0.6097 0.9945
-1.1543 0.4305 -0.6043 0.9945
-1.1579 0.3854 -0.5986 0.9946
-1.1590 0.3403 -0.5925 0.9946
-1.1695 0.2544 -0.5871 0.9947
-1.1867 0.1706 -0.5881 0.9947
-1.1921 0.1282 -0.5881 0.9947
-1.1954 0.0855 -0.5878 0.9947
-1.1965 0.0427 -0.5873 0.9947
3.8476 0.2752 -2.0011 0.9828
3.8353 0.4123 -2.0011 0.9828
3.7012 1.0868 -2.0012 0.9828
3.5638 1.4762 -2.0012 0.9828
3.4495 1.7267 -2.0012 0.9828
3.3857 1.8487 -2.0012 0.9828
2.7278 2.7278 -2.0013 0.9828
2.5263 2.9155 -2.0013 0.9828
2.4207 3.0039 -2.0014 0.9828
2.3119 3.0884 -2.0014 0.9828
2.2002 3.1690 -2.0014 0.9828
2.0858 3.2455 -2.0014 0.9828
1.9686 3.3179 -2.0014 0.9828
1.6027 3.5094 -2.0015 0.9828
1.3483 3.6149 -2.0015 0.9828
1.2184 3.6607 -2.0016 0.9828
1.0870 3.7019 -2.0016 0.9828
0.9542 3.7384 -2.0016 0.9828
0.6848 3.7958 -2.0010 0.9828
0.5488 3.8172 -2.0006 0.9828
0.4122 3.8338 -2.0004 0.9828
0.0000 3.8554 -2.0001 0.9828
-0.1376 3.8530 -2.0002 0.9828
-0.4122 3.8341 -2.0005 0.9828
-0.5489 3.8175 -2.0008 0.9828
-0.8202 3.7703 -2.0017 0.9828
-1.9692 3.3189 -2.0020 0.9828
-2.2010 3.1700 -2.0021 0.9828
-2.3128 3.0895 -2.0021 0.9828
-2.5273 2.9167 -2.0021 0.9828
-3.0051 2.4217 -2.0022 0.9828
-3.0897 2.3129 -2.0022 0.9828
-3.2468 2.0866 -2.0022 0.9828
-0.9917 0.5884 -0.5982 0.9948
-1.0118 0.5525 -0.5981 0.9948
-1.0430 0.4763 -0.5948 0.9948
-1.0636 0.3123 -0.5751 0.9950
-1.0814 0.2352 -0.5741 0.9950
3.6537 0.0000 -2.0012 0.9835
3.6514 0.1304 -2.0012 0.9835
3.6328 0.3906 -2.0012 0.9835
3.6166 0.5200 -2.0012 0.9835
3.5957 0.6487 -2.0012 0.9835
3.5703 0.7767 -2.0012 0.9835
3.5058 1.0294 -2.0012 0.9835
3.4234 1.2769 -2.0012 0.9835
3.3757 1.3983 -2.0012 0.9835
3.0739 1.9754 -2.0013 0.9835
3.0014 2.0839 -2.0013 0.9835
2.9251 2.1897 -2.0013 0.9835
2.7615 2.3929 -2.0013 0.9835
2.5838 2.5838 -2.0013 0.9835
2.4900 2.6744 -2.0014 0.9835
2.3929 2.7616 -2.0014 0.9835
2.2929 2.8453 -2.0014 0.9835
2.1899 2.9253 -2.0014 0.9835
1.6357 3.2678 -2.0015 0.9835
1.5181 3.3241 -2.0015 0.9835
1.3985 3.3762 -2.0015 0.9835
1.2771 3.4240 -2.0015 0.9835
1.0296 3.5065 -2.0016 0.9835
0.9038 3.5410 -2.0016 0.9835
0.7768 3.5711 -2.0016 0.9835
0.3907 3.6337 -2.0017 0.9835
0.2607 3.6454 -2.0017 0.9835
0.1304 3.6524 -2.0017 0.9835
-0.0000 3.6548 -2.0017 0.9835
-0.2607 3.6455 -2.0018 0.9835
-0.5202 3.6177 -2.0018 0.9835
-0.6490 3.5969 -2.0018 0.9835
-1.0298 3.5070 -2.0019 0.9835
-1.2773 3.4247 -2.0019 0.9835
-1.3988 3.3769 -2.0020 0.9835
-1.5184 3.3249 -2.0020 0.9835
-1.7518 3.2082 -2.0020 0.9835
-1.8652 3.1436 -2.0020 0.9835
-1.9762 3.0751 -2.0020 0.9835
-2.3938 2.7626 -2.0021 0.9835
-2.4909 2.6754 -2.0021 0.9835
-2.5848 2.5849 -2.0021 0.9835
-2.6755 2.4909 -2.0022 0.9835
-2.7627 2.3939 -2.0022 0.9835
-2.9265 2.1907 -2.0022 0.9835
-0.8661 0.6014 -0.5775 0.9952
-0.9084 0.5390 -0.5785 0.9952
-0.9580 0.4375 -0.5768 0.9952
-0.9785 0.3257 -0.5648 0.9953
-0.9820 0.2883 -0.5606 0.9953
-1.0124 0.1826 -0.5634 0.9953
-1.0190 0.1465 -0.5638 0.9953
-1.0236 0.1100 -0.5639 0.9953
2.0197 0.0000 -1.1661 0.9907
2.0366 0.2190 -1.1826 0.9906
2.0153 0.3636 -1.1823 0.9906
1.9616 0.5007 -1.1688 0.9907
1.8508 0.8452 -1.1747 0.9906
3.0996 1.5516 -2.0013 0.9841
2.9811 1.7688 -2.0013 0.9841
2.9161 1.8740 -2.0013 0.9841
2.8473 1.9769 -2.0013 0.9841
2.7750 2.0773 -2.0013 0.9841
2.6197 2.2700 -2.0013 0.9841
2.5371 2.3621 -2.0013 0.9841
2.4511 2.4511 -2.0014 0.9841
2.3621 2.5371 -2.0014 0.9841
2.2701 2.6198 -2.0014 0.9841
2.1751 2.6992 -2.0014 0.9841
2.0774 2.7751 -2.0014 0.9841
1.9771 2.8475 -2.0014 0.9841
1.6614 3.0426 -2.0015 0.9841
1.5517 3.1000 -2.0015 0.9841
1.0948 3.2894 -2.0016 0.9841
0.9767 3.3264 -2.0016 0.9841
0.6156 3.4119 -2.0016 0.9841
0.1237 3.4649 -2.0017 0.9841
0.0000 3.4671 -2.0017 0.9841
-0.2474 3.4583 -2.0018 0.9841
-0.3706 3.4473 -2.0018 0.9841
-0.9769 3.3269 -2.0019 0.9841
-1.2117 3.2488 -2.0019 0.9841
-1.5521 3.1007 -2.0020 0.9841
-1.6618 3.0434 -2.0020 0.9841
-1.7694 2.9822 -2.0020 0.9841
-1.8747 2.9171 -2.0020 0.9841
-1.9777 2.8484 -2.0020 0.9841
-2.0781 2.7760 -2.0021 0.9841
-2.1759 2.7001 -2.0021 0.9841
-2.2709 2.6207 -2.0021 0.9841
-2.3630 2.5380 -2.0021 0.9841
-2.5381 2.3630 -2.0021 0.9841
-0.7671 0.6182 -0.5688 0.9955
-0.7846 0.5873 -0.5658 0.9955
-0.8008 0.5560 -0.5628 0.9955
-0.8364 0.4963 -0.5615 0.9955
-0.8687 0.4349 -0.5609 0.9955
-0.9011 0.3361 -0.5553 0.9956
-0.9058 0.3015 -0.5511 0.9956
-0.9151 0.2687 -0.5506 0.9956
-0.9353 0.2034 -0.5526 0.9956
-0.9430 0.1701 -0.5532 0.9956
-0.9492 0.1365 -0.5537 0.9956
-0.9565 0.0684 -0.5536 0.9956
-0.9575 0.0342 -0.5532 0.9956
