ply
format ascii 1.0
element vertex 748
property float32 x
property float32 y
property float32 z
property float32 I
end_header
-9.4686 0.0000 -2.0015 0.9620
-9.4625 -0.3380 -2.0015 0.9620
-9.4143 -1.0121 -2.0015 0.9620
-9.3181 -1.6812 -2.0015 0.9620
-9.2522 -2.0127 -2.0015 0.9620
-8.4672 -4.2384 -2.0015 0.9620
-8.3105 -4.5379 -2.0015 0.9620
-8.0421 -4.7716 -1.9766 0.9625
-7.9657 -5.1192 -2.0015 0.9620
-7.7779 -5.4003 -2.0015 0.9620
-7.3729 -5.9414 -2.0015 0.9620
-6.9303 -6.4523 -2.0016 0.9620
-5.9416 -7.3731 -2.0016 0.9620
-5.6747 -7.5805 -2.0016 0.9620
-5.1195 -7.9661 -2.0016 0.9620
-4.8319 -8.1438 -2.0016 0.9620
-4.2387 -8.4679 -2.0017 0.9620
-3.6238 -8.7487 -2.0017 0.9620
-2.3419 -9.1757 -2.0017 0.9620
-1.6814 -9.3195 -2.0018 0.9620
-1.0123 -9.4158 -2.0018 0.9620
-0.6756 -9.4460 -2.0018 0.9620
0.0000 -9.4703 -2.0018 0.9620
0.3380 -9.4643 -2.0018 0.9620
1.3478 -9.3741 -2.0019 0.9620
2.6682 -9.0871 -2.0019 0.9620
2.9909 -8.9861 -2.0019 0.9620
3.6244 -8.7500 -2.0020 0.9620
4.2394 -8.4692 -2.0020 0.9620
4.5390 -8.3126 -2.0020 0.9620
4.8328 -8.1453 -2.0020 0.9620
5.4017 -7.7799 -2.0020 0.9620
7.1582 -6.2025 -2.0021 0.9620
7.9681 -5.1208 -2.0021 0.9620
8.1459 -4.8332 -2.0021 0.9620
8.3132 -4.5393 -2.0022 0.9620
8.6159 -3.9348 -2.0022 0.9620
8.7509 -3.6247 -2.0022 0.9620
8.8747 -3.3101 -2.0022 0.9620
9.0883 -2.6685 -2.0022 0.9620
9.1778 -2.3425 -2.0022 0.9620
9.3215 -1.6818 -2.0022 0.9620
9.4178 -1.0125 -2.0022 0.9620
9.4660 -0.3381 -2.0022 0.9620
-8.4945 -0.6075 -2.0015 0.9656
-8.4674 -0.9103 -2.0015 0.9656
-8.4295 -1.2120 -2.0015 0.9656
-8.3809 -1.5121 -2.0015 0.9656
-7.9793 -2.9761 -2.0015 0.9656
-7.4746 -4.0814 -2.0015 0.9656
-7.3242 -4.3456 -2.0015 0.9656
-7.1644 -4.6043 -2.0015 0.9656
-6.8178 -5.1037 -2.0016 0.9656
-6.6313 -5.3438 -2.0016 0.9656
-6.2332 -5.8033 -2.0016 0.9656
-6.0221 -6.0221 -2.0016 0.9656
-5.8034 -6.2333 -2.0016 0.9656
-5.5772 -6.4364 -2.0016 0.9656
-5.1039 -6.8180 -2.0016 0.9656
-4.6045 -7.1648 -2.0016 0.9656
-4.3459 -7.3246 -2.0017 0.9656
-3.8123 -7.6160 -2.0017 0.9656
-3.2593 -7.8687 -2.0017 0.9656
-2.3996 -8.1721 -2.0017 0.9656
-2.1064 -8.2526 -2.0017 0.9656
-1.5123 -8.3820 -2.0018 0.9656
-1.2121 -8.4307 -2.0018 0.9656
-0.9105 -8.4686 -2.0018 0.9656
-0.6076 -8.4958 -2.0018 0.9656
0.0000 -8.5175 -2.0018 0.9656
0.3040 -8.5122 -2.0018 0.9656
0.6076 -8.4959 -2.0018 0.9656
0.9105 -8.4689 -2.0019 0.9656
1.5124 -8.3825 -2.0019 0.9656
2.1065 -8.2533 -2.0019 0.9656
2.3998 -8.1729 -2.0019 0.9656
2.6900 -8.0821 -2.0019 0.9656
3.2597 -7.8697 -2.0019 0.9656
3.8129 -7.6172 -2.0020 0.9656
4.3466 -7.3258 -2.0020 0.9656
4.8582 -6.9972 -2.0020 0.9656
5.1049 -6.8193 -2.0020 0.9656
6.0235 -6.0235 -2.0021 0.9656
6.9975 -4.8584 -2.0021 0.9656
7.1664 -4.6056 -2.0021 0.9656
7.3263 -4.3469 -2.0021 0.9656
7.4768 -4.0826 -2.0021 0.9656
7.6178 -3.8132 -2.0021 0.9656
7.7490 -3.5389 -2.0021 0.9656
7.9818 -2.9771 -2.0021 0.9656
8.0830 -2.6903 -2.0021 0.9656
8.2543 -2.1068 -2.0022 0.9656
8.3836 -1.5126 -2.0022 0.9656
8.4323 -1.2124 -2.0022 0.9656
8.4702 -0.9106 -2.0022 0.9656
8.5136 -0.3040 -2.0022 0.9656
-7.7304 0.0000 -2.0015 0.9686
-7.7107 -0.5515 -2.0015 0.9686
-7.6861 -0.8263 -2.0015 0.9686
-7.6517 -1.1001 -2.0015 0.9686
-7.6075 -1.3725 -2.0015 0.9686
-7.3348 -2.4412 -2.0015 0.9686
-7.1420 -2.9583 -2.0015 0.9686
-6.9128 -3.4603 -2.0016 0.9686
-6.7849 -3.7048 -2.0016 0.9686
-6.3500 -4.4089 -2.0016 0.9686
-6.1886 -4.6327 -2.0016 0.9686
-5.8424 -5.0625 -2.0016 0.9686
-5.6580 -5.2678 -2.0016 0.9686
-5.2679 -5.6581 -2.0016 0.9686
-5.0626 -5.8425 -2.0016 0.9686
-4.6329 -6.1888 -2.0016 0.9686
-4.4091 -6.3503 -2.0017 0.9686
-3.9449 -6.6487 -2.0017 0.9686
-3.7050 -6.7853 -2.0017 0.9686
-3.2116 -7.0324 -2.0017 0.9686
-2.7017 -7.2436 -2.0017 0.9686
-2.1781 -7.4180 -2.0017 0.9686
-1.9120 -7.4911 -2.0017 0.9686
-1.6434 -7.5546 -2.0018 0.9686
-1.3727 -7.6085 -2.0018 0.9686
-0.8264 -7.6871 -2.0018 0.9686
-0.2760 -7.7265 -2.0018 0.9686
0.0000 -7.7315 -2.0018 0.9686
0.2760 -7.7266 -2.0018 0.9686
0.5516 -7.7119 -2.0018 0.9686
0.8265 -7.6873 -2.0019 0.9686
1.3728 -7.6089 -2.0019 0.9686
1.6435 -7.5550 -2.0019 0.9686
1.9121 -7.4916 -2.0019 0.9686
3.4610 -6.9142 -2.0020 0.9686
3.7056 -6.7863 -2.0020 0.9686
4.1803 -6.5047 -2.0020 0.9686
4.4098 -6.3514 -2.0020 0.9686
4.6337 -6.1900 -2.0020 0.9686
5.2689 -5.6592 -2.0020 0.9686
6.0208 -4.8518 -2.0021 0.9686
6.6501 -3.9457 -2.0021 0.9686
6.9146 -3.4612 -2.0021 0.9686
7.1440 -2.9591 -2.0021 0.9686
7.2451 -2.7023 -2.0021 0.9686
7.3369 -2.4419 -2.0021 0.9686
7.5559 -1.6437 -2.0021 0.9686
7.7130 -0.5516 -2.0021 0.9686
7.7278 -0.2760 -2.0021 0.9686
-7.0703 -0.0000 -2.0016 0.9710
-7.0523 -0.5044 -2.0016 0.9710
-7.0298 -0.7558 -2.0016 0.9710
-6.9087 -1.5029 -2.0016 0.9710
-6.8507 -1.7485 -2.0016 0.9710
-6.7085 -2.2328 -2.0016 0.9710
-6.6246 -2.4708 -2.0016 0.9710
-6.5322 -2.7057 -2.0016 0.9710
-6.4315 -2.9371 -2.0016 0.9710
-6.3225 -3.1648 -2.0016 0.9710
-6.0807 -3.6078 -2.0016 0.9710
-5.9480 -3.8226 -2.0016 0.9710
-5.6602 -4.2372 -2.0016 0.9710
-4.8180 -5.1749 -2.0016 0.9710
-4.6303 -5.3436 -2.0016 0.9710
-4.4366 -5.5055 -2.0017 0.9710
-3.6080 -6.0809 -2.0017 0.9710
-2.7059 -6.5326 -2.0017 0.9710
-2.4710 -6.6251 -2.0017 0.9710
-2.2330 -6.7091 -2.0017 0.9710
-1.9921 -6.7846 -2.0017 0.9710
-1.7487 -6.8514 -2.0018 0.9710
-1.5031 -6.9094 -2.0018 0.9710
-1.2555 -6.9587 -2.0018 0.9710
-0.7559 -7.0306 -2.0018 0.9710
0.2524 -7.0668 -2.0018 0.9710
0.5045 -7.0533 -2.0018 0.9710
1.5032 -6.9099 -2.0019 0.9710
1.7488 -6.8518 -2.0019 0.9710
2.2332 -6.7097 -2.0019 0.9710
2.7062 -6.5333 -2.0019 0.9710
2.9377 -6.4326 -2.0019 0.9710
3.3891 -6.2067 -2.0020 0.9710
3.8233 -5.9492 -2.0020 0.9710
4.0332 -5.8089 -2.0020 0.9710
4.4374 -5.5064 -2.0020 0.9710
4.6311 -5.3446 -2.0020 0.9710
5.0006 -5.0006 -2.0020 0.9710
5.3447 -4.6312 -2.0020 0.9710
5.6615 -4.2381 -2.0020 0.9710
5.8092 -4.0334 -2.0021 0.9710
5.9494 -3.8235 -2.0021 0.9710
6.3241 -3.1656 -2.0021 0.9710
6.4331 -2.9379 -2.0021 0.9710
6.6263 -2.4715 -2.0021 0.9710
6.9106 -1.5033 -2.0021 0.9710
7.0317 -0.7560 -2.0021 0.9710
7.0542 -0.5045 -2.0021 0.9710
-6.4909 -0.4642 -2.0016 0.9731
-6.4703 -0.6956 -2.0016 0.9731
-6.4042 -1.1554 -2.0016 0.9731
-6.2440 -1.8334 -2.0016 0.9731
-6.1746 -2.0551 -2.0016 0.9731
-6.0122 -2.4903 -2.0016 0.9731
-5.9195 -2.7033 -2.0016 0.9731
-5.5967 -3.3207 -2.0016 0.9731
-5.2097 -3.8999 -2.0016 0.9731
-4.9182 -4.2617 -2.0016 0.9731
-4.7630 -4.4345 -2.0016 0.9731
-4.6017 -4.6017 -2.0016 0.9731
-3.7116 -5.3457 -2.0017 0.9731
-3.1189 -5.7119 -2.0017 0.9731
-2.9131 -5.8196 -2.0017 0.9731
-2.4905 -6.0126 -2.0017 0.9731
-2.0553 -6.1750 -2.0017 0.9731
-1.6095 -6.3060 -2.0018 0.9731
-0.6957 -6.4710 -2.0018 0.9731
-0.2323 -6.5042 -2.0018 0.9731
0.0000 -6.5083 -2.0018 0.9731
1.1556 -6.4051 -2.0019 0.9731
1.3835 -6.3598 -2.0019 0.9731
1.6096 -6.3064 -2.0019 0.9731
1.8337 -6.2449 -2.0019 0.9731
2.2745 -6.0983 -2.0019 0.9731
2.4908 -6.0132 -2.0019 0.9731
2.7038 -5.9205 -2.0019 0.9731
3.1193 -5.7126 -2.0019 0.9731
3.3212 -5.5976 -2.0020 0.9731
3.5189 -5.4755 -2.0020 0.9731
3.9006 -5.2106 -2.0020 0.9731
4.6025 -4.6025 -2.0020 0.9731
4.7639 -4.4353 -2.0020 0.9731
4.9192 -4.2625 -2.0020 0.9731
5.0682 -4.0842 -2.0020 0.9731
6.0987 -2.2747 -2.0021 0.9731
6.3070 -1.6098 -2.0021 0.9731
6.4058 -1.1557 -2.0021 0.9731
6.4719 -0.6958 -2.0021 0.9731
6.4926 -0.4644 -2.0021 0.9731
6.5050 -0.2323 -2.0021 0.9731
-6.0216 0.0000 -2.0016 0.9749
-6.0177 -0.2149 -2.0016 0.9749
-5.9603 -0.8570 -2.0016 0.9749
-5.9259 -1.0692 -2.0016 0.9749
-5.8345 -1.4892 -2.0016 0.9749
-5.6419 -2.1043 -2.0016 0.9749
-5.5632 -2.3044 -2.0016 0.9749
-5.4774 -2.5015 -2.0016 0.9749
-5.2850 -2.8859 -2.0016 0.9749
-5.1787 -3.0727 -2.0016 0.9749
-5.0657 -3.2556 -2.0016 0.9749
-4.9463 -3.4343 -2.0016 0.9749
-4.6887 -3.7784 -2.0016 0.9749
-4.5509 -3.9434 -2.0016 0.9749
-3.9434 -4.5510 -2.0017 0.9749
-3.6087 -4.8207 -2.0017 0.9749
-3.2557 -5.0659 -2.0017 0.9749
-2.8860 -5.2853 -2.0017 0.9749
-2.6955 -5.3850 -2.0017 0.9749
-2.3045 -5.5636 -2.0017 0.9749
-2.1045 -5.6423 -2.0017 0.9749
-1.4893 -5.8350 -2.0018 0.9749
-1.2801 -5.8844 -2.0018 0.9749
-1.0692 -5.9264 -2.0018 0.9749
-0.8570 -5.9608 -2.0018 0.9749
0.4296 -6.0069 -2.0018 0.9749
0.6438 -5.9878 -2.0018 0.9749
1.0693 -5.9267 -2.0019 0.9749
1.2802 -5.8848 -2.0019 0.9749
1.4894 -5.8353 -2.0019 0.9749
1.6967 -5.7785 -2.0019 0.9749
1.9019 -5.7143 -2.0019 0.9749
2.1046 -5.6428 -2.0019 0.9749
2.5019 -5.4783 -2.0019 0.9749
2.6958 -5.3855 -2.0019 0.9749
3.2561 -5.0666 -2.0020 0.9749
3.4349 -4.9471 -2.0020 0.9749
4.1040 -4.4080 -2.0020 0.9749
4.2587 -4.2587 -2.0020 0.9749
4.6896 -3.7791 -2.0020 0.9749
5.0667 -3.2562 -2.0020 0.9749
5.1797 -3.0733 -2.0020 0.9749
5.2861 -2.8865 -2.0020 0.9749
5.3858 -2.6959 -2.0020 0.9749
5.7147 -1.9020 -2.0021 0.9749
5.7790 -1.6968 -2.0021 0.9749
5.8358 -1.4895 -2.0021 0.9749
5.9272 -1.0694 -2.0021 0.9749
5.9617 -0.8571 -2.0021 0.9749
5.9884 -0.6438 -2.0021 0.9749
6.0076 -0.4297 -2.0021 0.9749
-5.5830 -0.3993 -2.0016 0.9765
-5.5403 -0.7966 -2.0016 0.9765
-5.4693 -1.1898 -2.0016 0.9765
-5.4234 -1.3842 -2.0016 0.9765
-5.3108 -1.7676 -2.0016 0.9765
-5.1712 -2.1420 -2.0016 0.9765
-5.0052 -2.5054 -2.0016 0.9765
-4.8138 -2.8561 -2.0016 0.9765
-4.5978 -3.1923 -2.0016 0.9765
-4.4809 -3.3544 -2.0017 0.9765
-4.0967 -3.8142 -2.0017 0.9765
-3.9580 -3.9580 -2.0017 0.9765
-3.3544 -4.4810 -2.0017 0.9765
-3.1924 -4.5979 -2.0017 0.9765
-3.0262 -4.7089 -2.0017 0.9765
-2.8563 -4.8140 -2.0017 0.9765
-2.6826 -4.9128 -2.0017 0.9765
-2.5056 -5.0055 -2.0017 0.9765
-2.3253 -5.0917 -2.0017 0.9765
-2.1421 -5.1715 -2.0017 0.9765
-1.5770 -5.3709 -2.0018 0.9765
-1.3843 -5.4238 -2.0018 0.9765
-1.1899 -5.4698 -2.0018 0.9765
-0.9939 -5.5088 -2.0018 0.9765
-0.7966 -5.5408 -2.0018 0.9765
-0.1998 -5.5942 -2.0018 0.9765
0.9939 -5.5090 -2.0019 0.9765
1.1899 -5.4700 -2.0019 0.9765
1.3844 -5.4241 -2.0019 0.9765
1.5771 -5.3712 -2.0019 0.9765
1.7679 -5.3115 -2.0019 0.9765
2.6829 -4.9134 -2.0019 0.9765
2.8566 -4.8145 -2.0019 0.9765
3.3549 -4.4816 -2.0020 0.9765
3.8147 -4.0973 -2.0020 0.9765
3.9586 -3.9586 -2.0020 0.9765
4.3591 -3.5128 -2.0020 0.9765
4.4817 -3.3549 -2.0020 0.9765
4.5986 -3.1929 -2.0020 0.9765
4.7096 -3.0267 -2.0020 0.9765
4.8147 -2.8567 -2.0020 0.9765
5.0062 -2.5059 -2.0020 0.9765
5.3119 -1.7680 -2.0020 0.9765
5.4245 -1.3845 -2.0020 0.9765
5.5095 -0.9940 -2.0020 0.9765
5.5415 -0.7967 -2.0020 0.9765
-5.2199 -0.1864 -2.0016 0.9779
-5.1933 -0.5583 -2.0016 0.9779
-5.1700 -0.7433 -2.0016 0.9779
-5.1402 -0.9274 -2.0016 0.9779
-5.1038 -1.1103 -2.0016 0.9779
-4.8939 -1.8253 -2.0016 0.9779
-4.6708 -2.3380 -2.0016 0.9779
-4.5843 -2.5032 -2.0016 0.9779
-4.4921 -2.6653 -2.0017 0.9779
-4.3941 -2.8239 -2.0017 0.9779
-4.0671 -3.2775 -2.0017 0.9779
-3.9475 -3.4205 -2.0017 0.9779
-3.6935 -3.6935 -2.0017 0.9779
-3.4206 -3.9476 -2.0017 0.9779
-3.2775 -4.0671 -2.0017 0.9779
-2.3381 -4.6710 -2.0017 0.9779
-2.1699 -4.7515 -2.0017 0.9779
-1.9989 -4.8259 -2.0017 0.9779
-1.8254 -4.8942 -2.0018 0.9779
-1.6496 -4.9562 -2.0018 0.9779
-1.1104 -5.1042 -2.0018 0.9779
-0.9275 -5.1406 -2.0018 0.9779
-0.5584 -5.1937 -2.0018 0.9779
-0.1864 -5.2204 -2.0018 0.9779
0.1864 -5.2204 -2.0018 0.9779
0.3727 -5.2105 -2.0018 0.9779
0.5584 -5.1938 -2.0018 0.9779
0.9275 -5.1408 -2.0019 0.9779
1.1104 -5.1044 -2.0019 0.9779
1.4717 -5.0123 -2.0019 0.9779
1.6497 -4.9566 -2.0019 0.9779
1.9991 -4.8263 -2.0019 0.9779
2.5036 -4.5850 -2.0019 0.9779
3.5598 -3.8235 -2.0020 0.9779
3.6940 -3.6940 -2.0020 0.9779
3.8235 -3.5598 -2.0020 0.9779
3.9481 -3.4211 -2.0020 0.9779
4.1821 -3.1307 -2.0020 0.9779
4.2912 -2.9795 -2.0020 0.9779
4.3949 -2.8244 -2.0020 0.9779
4.4929 -2.6657 -2.0020 0.9779
4.5852 -2.5037 -2.0020 0.9779
4.6716 -2.3384 -2.0020 0.9779
4.8266 -1.9992 -2.0020 0.9779
4.8948 -1.8257 -2.0020 0.9779
5.1049 -1.1105 -2.0020 0.9779
5.1413 -0.9276 -2.0020 0.9779
-1.8977 0.0000 -0.7767 0.9918
-1.9308 -0.0690 -0.7907 0.9917
-1.9525 -0.1396 -0.8011 0.9916
-1.9569 -0.2104 -0.8055 0.9915
-1.9449 -0.2796 -0.8042 0.9915
-4.7789 -1.0396 -2.0016 0.9791
-4.7388 -1.2095 -2.0016 0.9791
-4.5824 -1.7091 -2.0017 0.9791
-4.5184 -1.8716 -2.0017 0.9791
-4.4488 -2.0317 -2.0017 0.9791
-4.2925 -2.3439 -2.0017 0.9791
-4.2061 -2.4956 -2.0017 0.9791
-3.9153 -2.9309 -2.0017 0.9791
-3.5796 -3.3327 -2.0017 0.9791
-3.4583 -3.4583 -2.0017 0.9791
-3.2028 -3.6962 -2.0017 0.9791
-3.0689 -3.8082 -2.0017 0.9791
-2.9310 -3.9153 -2.0017 0.9791
-2.6442 -4.1145 -2.0017 0.9791
-2.4957 -4.2063 -2.0017 0.9791
-2.3440 -4.2927 -2.0017 0.9791
-2.1893 -4.3736 -2.0017 0.9791
-1.5446 -4.6407 -2.0018 0.9791
-1.3779 -4.6929 -2.0018 0.9791
-1.2096 -4.7391 -2.0018 0.9791
-1.0397 -4.7793 -2.0018 0.9791
-0.8684 -4.8134 -2.0018 0.9791
-0.5228 -4.8631 -2.0018 0.9791
0.0000 -4.8912 -2.0018 0.9791
0.1746 -4.8880 -2.0018 0.9791
0.3489 -4.8787 -2.0018 0.9791
0.5229 -4.8632 -2.0018 0.9791
0.8685 -4.8135 -2.0019 0.9791
1.2096 -4.7393 -2.0019 0.9791
1.3780 -4.6932 -2.0019 0.9791
1.5447 -4.6410 -2.0019 0.9791
1.7093 -4.5829 -2.0019 0.9791
1.8718 -4.5190 -2.0019 0.9791
2.0319 -4.4493 -2.0019 0.9791
2.1895 -4.3740 -2.0019 0.9791
2.3442 -4.2931 -2.0019 0.9791
2.4959 -4.2067 -2.0019 0.9791
2.7897 -4.0179 -2.0019 0.9791
3.0692 -3.8087 -2.0019 0.9791
3.2032 -3.6967 -2.0020 0.9791
3.4588 -3.4588 -2.0020 0.9791
3.5801 -3.3331 -2.0020 0.9791
3.6968 -3.2033 -2.0020 0.9791
3.8087 -3.0693 -2.0020 0.9791
4.0180 -2.7898 -2.0020 0.9791
4.1150 -2.6446 -2.0020 0.9791
4.2068 -2.4960 -2.0020 0.9791
4.3742 -2.1895 -2.0020 0.9791
4.5832 -1.7094 -2.0020 0.9791
4.6413 -1.5447 -2.0020 0.9791
4.8139 -0.8685 -2.0020 0.9791
4.8792 -0.3490 -2.0020 0.9791
4.8885 -0.1746 -2.0020 0.9791
-1.5284 -0.0546 -0.6665 0.9933
-1.5293 -0.1094 -0.6682 0.9933
-1.5249 -0.1639 -0.6684 0.9933
-1.5151 -0.2178 -0.6671 0.9933
-1.5001 -0.2706 -0.6643 0.9934
-1.5485 -0.3952 -0.6965 0.9931
-1.5707 -0.4612 -0.7134 0.9929
-4.2433 -1.7576 -2.0017 0.9802
-4.1779 -1.9079 -2.0017 0.9802
-4.0311 -2.2012 -2.0017 0.9802
-3.8638 -2.4831 -2.0017 0.9802
-3.7727 -2.6195 -2.0017 0.9802
-3.6768 -2.7524 -2.0017 0.9802
-3.5763 -2.8819 -2.0017 0.9802
-3.2477 -3.2477 -2.0017 0.9802
-3.1297 -3.3616 -2.0017 0.9802
-3.0078 -3.4712 -2.0017 0.9802
-2.7525 -3.6769 -2.0017 0.9802
-2.6195 -3.7728 -2.0017 0.9802
-2.4832 -3.8639 -2.0017 0.9802
-2.3437 -3.9501 -2.0017 0.9802
-2.2012 -4.0312 -2.0017 0.9802
-1.9080 -4.1780 -2.0018 0.9802
-1.4505 -4.3581 -2.0018 0.9802
-1.2940 -4.4071 -2.0018 0.9802
-1.1359 -4.4505 -2.0018 0.9802
-0.9763 -4.4882 -2.0018 0.9802
-0.6537 -4.5465 -2.0018 0.9802
-0.4910 -4.5669 -2.0018 0.9802
-0.3277 -4.5815 -2.0018 0.9802
-0.1639 -4.5903 -2.0018 0.9802
0.0000 -4.5933 -2.0018 0.9802
0.3277 -4.5816 -2.0018 0.9802
0.6537 -4.5466 -2.0019 0.9802
0.8156 -4.5204 -2.0019 0.9802
0.9764 -4.4884 -2.0019 0.9802
1.1360 -4.4507 -2.0019 0.9802
1.2941 -4.4073 -2.0019 0.9802
1.4506 -4.3583 -2.0019 0.9802
1.9082 -4.1783 -2.0019 0.9802
2.0561 -4.1076 -2.0019 0.9802
2.2014 -4.0316 -2.0019 0.9802
2.4834 -3.8643 -2.0019 0.9802
2.8823 -3.5767 -2.0019 0.9802
3.2481 -3.2481 -2.0020 0.9802
3.3620 -3.1301 -2.0020 0.9802
3.4716 -3.0081 -2.0020 0.9802
3.6774 -2.7529 -2.0020 0.9802
3.7733 -2.6198 -2.0020 0.9802
3.8644 -2.4835 -2.0020 0.9802
3.9506 -2.3440 -2.0020 0.9802
4.1078 -2.0562 -2.0020 0.9802
4.1785 -1.9083 -2.0020 0.9802
4.3040 -1.6053 -2.0020 0.9802
4.4887 -0.9764 -2.0020 0.9802
4.5207 -0.8156 -2.0020 0.9802
4.5674 -0.4910 -2.0020 0.9802
4.5820 -0.3277 -2.0020 0.9802
-1.3333 0.0000 -0.6172 0.9941
-1.3384 -0.0957 -0.6211 0.9941
-1.3013 -0.2831 -0.6164 0.9941
-1.3116 -0.3348 -0.6266 0.9941
-1.3240 -0.3888 -0.6388 0.9939
-1.3263 -0.5494 -0.6645 0.9937
-1.3150 -0.6006 -0.6692 0.9936
-3.7954 -2.0724 -2.0017 0.9811
-3.7190 -2.2066 -2.0017 0.9811
-3.4619 -2.5915 -2.0017 0.9811
-3.2682 -2.8319 -2.0017 0.9811
-3.1650 -2.9467 -2.0017 0.9811
-2.5915 -3.4619 -2.0017 0.9811
-2.4663 -3.5522 -2.0017 0.9811
-2.3380 -3.6380 -2.0017 0.9811
-2.2067 -3.7191 -2.0017 0.9811
-2.0725 -3.7955 -2.0017 0.9811
-1.9357 -3.8671 -2.0018 0.9811
-1.5113 -4.0519 -2.0018 0.9811
-1.2184 -4.1494 -2.0018 0.9811
-0.4623 -4.2999 -2.0018 0.9811
-0.3085 -4.3136 -2.0018 0.9811
0.0000 -4.3247 -2.0018 0.9811
0.3085 -4.3137 -2.0018 0.9811
0.4623 -4.2999 -2.0018 0.9811
0.7679 -4.2560 -2.0019 0.9811
1.0696 -4.1904 -2.0019 0.9811
1.2184 -4.1496 -2.0019 0.9811
1.5114 -4.0521 -2.0019 0.9811
1.6550 -3.9956 -2.0019 0.9811
1.7966 -3.9340 -2.0019 0.9811
1.9359 -3.8674 -2.0019 0.9811
2.0727 -3.7958 -2.0019 0.9811
2.2069 -3.7194 -2.0019 0.9811
2.5918 -3.4623 -2.0019 0.9811
2.7137 -3.3676 -2.0019 0.9811
3.2686 -2.8322 -2.0020 0.9811
3.5526 -2.4666 -2.0020 0.9811
3.6384 -2.3383 -2.0020 0.9811
3.7196 -2.2069 -2.0020 0.9811
3.8675 -1.9359 -2.0020 0.9811
3.9958 -1.6551 -2.0020 0.9811
4.0523 -1.5114 -2.0020 0.9811
4.1037 -1.3658 -2.0020 0.9811
4.2262 -0.9193 -2.0020 0.9811
4.3003 -0.4623 -2.0020 0.9811
4.3140 -0.3085 -2.0020 0.9811
-1.1954 0.0000 -0.5864 0.9947
-1.1965 -0.0427 -0.5873 0.9947
-1.1695 -0.2544 -0.5871 0.9947
-1.1579 -0.3854 -0.5986 0.9946
-1.1543 -0.4305 -0.6043 0.9945
-1.1291 -0.5652 -0.6194 0.9944
-3.5095 -2.0823 -2.0017 0.9820
-3.4329 -2.2062 -2.0017 0.9820
-3.2668 -2.4455 -2.0017 0.9820
-3.1774 -2.5605 -2.0017 0.9820
-3.0840 -2.6723 -2.0017 0.9820
-2.9867 -2.7807 -2.0017 0.9820
-2.6724 -3.0841 -2.0017 0.9820
-2.5606 -3.1775 -2.0017 0.9820
-2.3274 -3.3521 -2.0017 0.9820
-2.0823 -3.5096 -2.0017 0.9820
-1.6953 -3.7121 -2.0018 0.9820
-1.5617 -3.7702 -2.0018 0.9820
-1.4261 -3.8236 -2.0018 0.9820
-1.2887 -3.8721 -2.0018 0.9820
-1.0092 -3.9541 -2.0018 0.9820
-0.8675 -3.9877 -2.0018 0.9820
-0.7246 -4.0161 -2.0018 0.9820
-0.5808 -4.0394 -2.0018 0.9820
-0.4362 -4.0576 -2.0018 0.9820
-0.2911 -4.0706 -2.0018 0.9820
0.0000 -4.0810 -2.0018 0.9820
0.1457 -4.0784 -2.0018 0.9820
0.2911 -4.0706 -2.0018 0.9820
0.5808 -4.0395 -2.0018 0.9820
0.8675 -3.9878 -2.0019 0.9820
1.0093 -3.9543 -2.0019 0.9820
1.1498 -3.9158 -2.0019 0.9820
1.9559 -3.5819 -2.0019 0.9820
2.0825 -3.5099 -2.0019 0.9820
2.2065 -3.4333 -2.0019 0.9820
2.3276 -3.3524 -2.0019 0.9820
2.5608 -3.1778 -2.0019 0.9820
2.6726 -3.0844 -2.0019 0.9820
2.7810 -2.9870 -2.0019 0.9820
2.8859 -2.8859 -2.0019 0.9820
2.9870 -2.7810 -2.0019 0.9820
3.0844 -2.6727 -2.0019 0.9820
3.3524 -2.3276 -2.0020 0.9820
3.4334 -2.2065 -2.0020 0.9820
3.6496 -1.8268 -2.0020 0.9820
3.7125 -1.6954 -2.0020 0.9820
3.7706 -1.5618 -2.0020 0.9820
3.8240 -1.4263 -2.0020 0.9820
3.8725 -1.2889 -2.0020 0.9820
3.9160 -1.1498 -2.0020 0.9820
3.9881 -0.8675 -2.0020 0.9820
4.0165 -0.7246 -2.0020 0.9820
4.0787 -0.1457 -2.0020 0.9820
-1.1058 0.0000 -0.5737 0.9950
-1.1066 -0.0395 -0.5744 0.9950
-1.1055 -0.0791 -0.5750 0.9950
-1.1024 -0.1185 -0.5752 0.9950
-1.0974 -0.1578 -0.5752 0.9950
-1.0814 -0.2352 -0.5741 0.9950
-1.0636 -0.3123 -0.5751 0.9950
-1.0576 -0.3945 -0.5856 0.9949
-1.0514 -0.4355 -0.5904 0.9949
-1.0118 -0.5525 -0.5981 0.9948
-0.9917 -0.5884 -0.5982 0.9948
-3.2460 -2.0861 -2.0017 0.9828
-3.0044 -2.4211 -2.0017 0.9828
-2.9161 -2.5268 -2.0017 0.9828
-2.7284 -2.7284 -2.0017 0.9828
-2.6293 -2.8240 -2.0017 0.9828
-2.4211 -3.0044 -2.0017 0.9828
-2.3123 -3.0889 -2.0017 0.9828
-1.9689 -3.3184 -2.0018 0.9828
-1.6029 -3.5099 -2.0018 0.9828
-1.4766 -3.5649 -2.0018 0.9828
-0.9543 -3.7388 -2.0018 0.9828
-0.8202 -3.7705 -2.0018 0.9828
-0.4125 -3.8366 -2.0018 0.9828
-0.1377 -3.8563 -2.0018 0.9828
0.1377 -3.8563 -2.0018 0.9828
0.5492 -3.8195 -2.0018 0.9828
0.8202 -3.7706 -2.0019 0.9828
1.0871 -3.7025 -2.0019 0.9828
1.2186 -3.6613 -2.0019 0.9828
1.8494 -3.3869 -2.0019 0.9828
1.9691 -3.3187 -2.0019 0.9828
2.2008 -3.1698 -2.0019 0.9828
2.3126 -3.0892 -2.0019 0.9828
2.6296 -2.8243 -2.0019 0.9828
3.0047 -2.4214 -2.0019 0.9828
3.0893 -2.3126 -2.0019 0.9828
3.1698 -2.2009 -2.0020 0.9828
3.4508 -1.7273 -2.0020 0.9828
3.6157 -1.3486 -2.0020 0.9828
3.7027 -1.0872 -2.0020 0.9828
3.7391 -0.9543 -2.0020 0.9828
3.7708 -0.8203 -2.0020 0.9828
3.8197 -0.5492 -2.0020 0.9828
3.8369 -0.4125 -2.0020 0.9828
3.8492 -0.2753 -2.0020 0.9828
3.8566 -0.1377 -2.0020 0.9828
-1.0269 0.0000 -0.5625 0.9953
-1.0276 -0.0367 -0.5632 0.9953
-1.0236 -0.1100 -0.5639 0.9953
-1.0190 -0.1465 -0.5638 0.9953
-1.0124 -0.1826 -0.5634 0.9953
-1.0039 -0.2184 -0.5627 0.9953
-0.9820 -0.2884 -0.5606 0.9953
-0.9741 -0.3633 -0.5694 0.9953
-0.9434 -0.4722 -0.5778 0.9952
-0.8882 -0.5708 -0.5782 0.9952
-2.9258 -2.1902 -2.0017 0.9835
-2.8457 -2.2932 -2.0017 0.9835
-2.6749 -2.4904 -2.0017 0.9835
-2.5843 -2.5843 -2.0017 0.9835
-2.2933 -2.8458 -2.0017 0.9835
-2.1902 -2.9258 -2.0017 0.9835
-2.0844 -3.0021 -2.0017 0.9835
-1.8649 -3.1432 -2.0018 0.9835
-1.7516 -3.2078 -2.0018 0.9835
-1.6360 -3.2683 -2.0018 0.9835
-1.5183 -3.3246 -2.0018 0.9835
-1.3987 -3.3766 -2.0018 0.9835
-1.0297 -3.5068 -2.0018 0.9835
-0.9039 -3.5413 -2.0018 0.9835
-0.7769 -3.5714 -2.0018 0.9835
-0.6489 -3.5968 -2.0018 0.9835
-0.5201 -3.6177 -2.0018 0.9835
-0.3907 -3.6340 -2.0018 0.9835
-0.2607 -3.6456 -2.0018 0.9835
0.2607 -3.6457 -2.0018 0.9835
0.5202 -3.6178 -2.0018 0.9835
0.9039 -3.5415 -2.0019 0.9835
1.2773 -3.4246 -2.0019 0.9835
1.8651 -3.1434 -2.0019 0.9835
1.9761 -3.0748 -2.0019 0.9835
2.0846 -3.0024 -2.0019 0.9835
2.3936 -2.7624 -2.0019 0.9835
2.4907 -2.6752 -2.0019 0.9835
2.5846 -2.5846 -2.0019 0.9835
2.6752 -2.4907 -2.0019 0.9835
2.7624 -2.3936 -2.0019 0.9835
2.9261 -2.1905 -2.0019 0.9835
3.0024 -2.0846 -2.0019 0.9835
3.0749 -1.9761 -2.0019 0.9835
3.2081 -1.7517 -2.0020 0.9835
3.3770 -1.3988 -2.0020 0.9835
3.4247 -1.2774 -2.0020 0.9835
3.4681 -1.1543 -2.0020 0.9835
3.5717 -0.7770 -2.0020 0.9835
3.5971 -0.6490 -2.0020 0.9835
3.6180 -0.5202 -2.0020 0.9835
3.6343 -0.3907 -2.0020 0.9835
3.6529 -0.1305 -2.0020 0.9835
-0.9570 0.0000 -0.5525 0.9956
-0.9575 -0.0342 -0.5532 0.9956
-0.9151 -0.2687 -0.5506 0.9956
-0.9058 -0.3015 -0.5511 0.9956
-0.8823 -0.4029 -0.5600 0.9955
-0.8534 -0.4660 -0.5614 0.9955
-0.8364 -0.4963 -0.5615 0.9955
-0.8008 -0.5560 -0.5628 0.9955
-0.7846 -0.5873 -0.5658 0.9955
-2.4516 -2.4516 -2.0017 0.9841
-2.3625 -2.5376 -2.0017 0.9841
-2.2705 -2.6203 -2.0017 0.9841
-2.1755 -2.6996 -2.0017 0.9841
-1.7692 -2.9818 -2.0018 0.9841
-1.5520 -3.1004 -2.0018 0.9841
-1.3268 -3.2033 -2.0018 0.9841
-1.2117 -3.2486 -2.0018 0.9841
-1.0949 -3.2898 -2.0018 0.9841
-0.9768 -3.3268 -2.0018 0.9841
-0.8575 -3.3595 -2.0018 0.9841
-0.7370 -3.3880 -2.0018 0.9841
-0.6156 -3.4121 -2.0018 0.9841
-0.4934 -3.4319 -2.0018 0.9841
-0.3706 -3.4474 -2.0018 0.9841
-0.2473 -3.4584 -2.0018 0.9841
-0.1237 -3.4650 -2.0018 0.9841
0.0000 -3.4673 -2.0018 0.9841
0.1238 -3.4651 -2.0018 0.9841
0.3706 -3.4474 -2.0018 0.9841
0.6156 -3.4122 -2.0019 0.9841
0.8575 -3.3596 -2.0019 0.9841
1.0950 -3.2899 -2.0019 0.9841
1.2117 -3.2487 -2.0019 0.9841
1.3269 -3.2034 -2.0019 0.9841
1.4404 -3.1540 -2.0019 0.9841
1.6617 -3.0432 -2.0019 0.9841
1.7693 -2.9820 -2.0019 0.9841
1.8746 -2.9170 -2.0019 0.9841
2.0779 -2.7758 -2.0019 0.9841
2.1757 -2.6999 -2.0019 0.9841
2.3628 -2.5378 -2.0019 0.9841
2.4519 -2.4518 -2.0019 0.9841
2.6999 -2.1757 -2.0019 0.9841
2.9821 -1.7693 -2.0019 0.9841
3.0433 -1.6618 -2.0019 0.9841
3.1007 -1.5521 -2.0020 0.9841
1.8620 -0.7713 -1.1636 0.9907
1.9351 -0.5682 -1.1644 0.9907
1.9616 -0.5007 -1.1688 0.9907
2.0153 -0.3636 -1.1823 0.9906
2.0359 -0.1456 -1.1784 0.9906
2.0320 -0.0726 -1.1739 0.9907
