ply
format ascii 1.0
element vertex 752
property float32 x
property float32 y
property float32 z
property float32 I
end_header
0.0000 4.8951 0.8631 0.9803
-6.5235 6.5234 1.6267 0.9632
-6.6471 6.1886 1.6014 0.9638
-6.5212 6.5212 1.4128 0.9634
-6.6499 6.1912 1.3919 0.9639
-0.0000 4.8938 0.6373 0.9805
-6.5190 6.5189 1.2005 0.9635
-6.6526 6.1938 1.1837 0.9640
-0.0000 4.8931 0.5254 0.9805
-6.6553 6.1963 0.9765 0.9641
-0.0000 4.8924 0.4142 0.9806
0.0000 4.8918 0.3033 0.9806
-6.5123 6.5123 0.5711 0.9638
-6.6608 6.2014 0.5643 0.9642
-0.0000 4.8911 0.1929 0.9806
-6.6635 6.2039 0.3590 0.9642
-0.0000 4.8905 0.0826 0.9806
-6.6662 6.2064 0.1539 0.9642
0.0000 4.8898 -0.0275 0.9806
-6.6689 6.2090 -0.0513 0.9642
-6.5035 6.5035 -0.2590 0.9639
0.0000 4.8885 -0.2479 0.9806
-6.5013 6.5013 -0.4663 0.9638
-6.6744 6.2140 -0.4625 0.9641
-6.4992 6.4991 -0.6739 0.9638
-6.6771 6.2165 -0.6689 0.9641
-0.0000 4.8872 -0.4692 0.9806
-6.6826 6.2217 -1.0846 0.9639
-0.0000 4.8859 -0.6923 0.9805
-1.8511 4.9630 -0.7505 0.9788
-6.6853 6.2242 -1.2942 0.9638
-0.0000 4.8852 -0.8048 0.9804
-1.8507 4.9618 -0.8724 0.9788
-2.2851 5.0037 -0.9062 0.9779
-5.8231 6.7202 -1.4649 0.9646
-5.8402 6.2729 -1.4119 0.9659
-5.8562 5.8562 -1.3644 0.9670
-5.8835 5.4777 -1.3243 0.9679
-6.3719 5.5212 -1.3889 0.9664
-7.4298 5.5618 -1.5289 0.9631
-0.0000 4.8846 -0.9181 0.9803
-1.8507 4.9619 -0.9954 0.9787
-1.9873 4.7979 -0.9761 0.9791
-2.1884 4.7919 -0.9902 0.9788
-5.6902 7.6012 -1.7847 0.9621
-5.7246 7.1037 -1.7148 0.9635
-5.8563 5.8562 -1.5567 0.9669
-7.8935 5.4805 -1.8062 0.9616
9.4682 0.3381 -2.0027 0.9620
9.4501 0.6759 -2.0027 0.9620
9.3237 1.6822 -2.0027 0.9620
8.8767 3.3108 -2.0026 0.9620
8.6047 3.9296 -1.9996 0.9621
7.3638 4.7324 -1.8503 0.9648
7.1901 4.9922 -1.8503 0.9648
6.4062 5.9644 -1.8502 0.9648
6.1892 6.1892 -1.8502 0.9648
5.4920 6.8151 -1.8501 0.9648
5.2452 7.0067 -1.8501 0.9648
4.9917 7.1894 -1.8501 0.9648
4.7318 7.3629 -1.8500 0.9649
3.6356 7.9609 -1.8500 0.9649
3.0584 8.1998 -1.8499 0.9649
2.7637 8.3036 -1.8499 0.9649
2.4655 8.3968 -1.8498 0.9649
1.5538 8.6119 -1.8498 0.9649
1.2454 8.6617 -1.8497 0.9649
0.9354 8.7005 -1.8497 0.9649
0.3123 8.7448 -1.8497 0.9649
-0.0000 4.8839 -1.0324 0.9802
-1.8598 8.5495 -1.8495 0.9649
-1.9874 4.7981 -1.0978 0.9790
-2.1885 4.7920 -1.1136 0.9787
-4.1927 7.6783 -1.8492 0.9649
-4.4640 7.5237 -1.8492 0.9649
-4.7296 7.3594 -1.8492 0.9649
-5.7286 6.6111 -1.8491 0.9649
-5.7451 6.1707 -1.7822 0.9661
-5.7653 5.7653 -1.7235 0.9672
-6.7463 5.4365 -1.8314 0.9652
-7.1851 4.9887 -1.8490 0.9649
-7.3585 4.7290 -1.8490 0.9649
-7.5225 4.4633 -1.8489 0.9649
-7.7344 4.2233 -1.8627 0.9646
-8.5982 3.9266 -1.9980 0.9621
-8.7459 3.6227 -2.0010 0.9620
-8.8696 3.3082 -2.0010 0.9620
-8.9819 2.9895 -2.0010 0.9620
-9.0829 2.6670 -2.0010 0.9620
-9.1723 2.3411 -2.0010 0.9620
-9.4120 1.0119 -2.0010 0.9620
-9.4421 0.6753 -2.0010 0.9620
-9.4601 0.3379 -2.0010 0.9620
8.5208 -0.0000 -2.0026 0.9656
8.5154 0.3041 -2.0026 0.9656
8.4991 0.6079 -2.0026 0.9656
8.4720 0.9108 -2.0026 0.9656
8.3854 1.5129 -2.0026 0.9656
8.2560 2.1072 -2.0026 0.9656
8.1755 2.4005 -2.0026 0.9656
8.0846 2.6908 -2.0025 0.9656
7.8720 3.2607 -2.0025 0.9656
7.7505 3.5395 -2.0025 0.9656
7.6153 3.8119 -2.0015 0.9656
7.0972 4.2110 -1.9395 0.9667
6.6228 4.2562 -1.8502 0.9682
6.4666 4.4898 -1.8502 0.9682
5.9495 5.1552 -1.8502 0.9682
5.5664 5.5664 -1.8501 0.9682
5.3641 5.7615 -1.8501 0.9682
5.1550 5.9492 -1.8501 0.9682
4.9394 6.1294 -1.8501 0.9682
4.7174 6.3017 -1.8500 0.9682
4.2557 6.6220 -1.8500 0.9682
4.0166 6.7696 -1.8500 0.9682
3.0121 7.2720 -1.8499 0.9682
2.7506 7.3748 -1.8499 0.9682
2.4856 7.4681 -1.8498 0.9682
2.2175 7.5520 -1.8498 0.9682
1.6730 7.6907 -1.8498 0.9682
1.3974 7.7454 -1.8497 0.9682
1.1201 7.7903 -1.8497 0.9682
0.8413 7.8252 -1.8497 0.9682
0.5615 7.8501 -1.8497 0.9682
0.2809 7.8651 -1.8496 0.9682
-1.3972 7.7444 -1.8495 0.9682
-1.6727 7.6895 -1.8495 0.9682
-2.2170 7.5504 -1.8494 0.9682
-1.8508 4.9621 -1.2447 0.9785
-3.5221 7.0363 -1.8493 0.9682
-4.0150 6.7669 -1.8493 0.9682
-4.9369 6.1264 -1.8492 0.9682
-5.5634 5.5634 -1.8491 0.9682
-5.7583 5.3612 -1.8491 0.9682
-5.9460 5.1522 -1.8491 0.9682
-6.1260 4.9367 -1.8491 0.9682
-6.2983 4.7148 -1.8490 0.9682
-7.0943 4.2093 -1.9387 0.9667
-7.6101 3.8094 -2.0001 0.9656
-8.1695 2.3988 -2.0011 0.9656
-8.2499 2.1057 -2.0011 0.9656
-8.3790 1.5117 -2.0011 0.9656
-8.4276 1.2117 -2.0011 0.9656
-8.4655 0.9101 -2.0010 0.9656
-8.4926 0.6074 -2.0010 0.9656
-8.5088 0.3039 -2.0010 0.9656
7.7144 0.5518 -2.0025 0.9685
7.6898 0.8267 -2.0025 0.9685
7.6554 1.1007 -2.0025 0.9685
7.6112 1.3732 -2.0025 0.9685
7.5574 1.6440 -2.0025 0.9685
7.4208 2.1789 -2.0025 0.9685
7.2464 2.7028 -2.0025 0.9685
7.0350 3.2128 -2.0025 0.9685
6.9158 3.4618 -2.0024 0.9685
6.7878 3.7064 -2.0024 0.9685
6.0709 4.2151 -1.9136 0.9699
5.2297 4.8691 -1.8501 0.9709
5.0526 5.0526 -1.8501 0.9709
4.6792 5.4000 -1.8500 0.9709
4.4834 5.5636 -1.8500 0.9709
3.6459 6.1447 -1.8500 0.9709
3.1981 6.3890 -1.8499 0.9709
2.9680 6.4990 -1.8499 0.9709
2.7341 6.6008 -1.8499 0.9709
2.4968 6.6941 -1.8498 0.9709
2.2562 6.7788 -1.8498 0.9709
2.0128 6.8550 -1.8498 0.9709
1.7668 6.9224 -1.8498 0.9709
1.5186 6.9809 -1.8498 0.9709
1.2685 7.0306 -1.8497 0.9709
0.5096 7.1256 -1.8497 0.9709
-0.5096 7.1253 -1.8496 0.9709
-0.7636 7.1025 -1.8496 0.9709
-1.5184 6.9799 -1.8495 0.9709
-2.0124 6.8536 -1.8494 0.9709
-1.8508 4.9622 -1.3713 0.9784
-2.1886 4.7923 -1.3641 0.9785
-3.4230 6.2688 -1.8493 0.9709
-3.6445 6.1425 -1.8493 0.9709
-4.0734 5.8668 -1.8493 0.9709
-4.2801 5.7176 -1.8492 0.9709
-4.4814 5.5611 -1.8492 0.9709
-4.8666 5.2272 -1.8492 0.9709
-5.0501 5.0501 -1.8492 0.9709
-5.5608 4.4812 -1.8491 0.9709
-6.4794 4.1641 -1.9942 0.9687
-6.6366 3.9377 -1.9980 0.9686
-7.0306 3.2107 -2.0012 0.9686
-7.2416 2.7010 -2.0012 0.9686
-7.4158 2.1775 -2.0011 0.9686
-7.5522 1.6429 -2.0011 0.9686
-7.6060 1.3723 -2.0011 0.9686
-7.6501 1.0999 -2.0011 0.9686
7.0690 0.2525 -2.0025 0.9710
7.0555 0.5046 -2.0025 0.9710
7.0329 0.7561 -2.0025 0.9710
6.9611 1.2559 -2.0024 0.9710
6.9118 1.5036 -2.0024 0.9710
6.8537 1.7493 -2.0024 0.9710
6.6274 2.4719 -2.0024 0.9710
6.5349 2.7068 -2.0024 0.9710
6.3251 3.1661 -2.0024 0.9710
5.9467 3.8217 -2.0011 0.9710
5.6130 4.2019 -1.9849 0.9713
4.9390 4.2796 -1.8501 0.9732
4.2795 4.9388 -1.8500 0.9732
4.1005 5.0884 -1.8500 0.9732
3.9162 5.2314 -1.8500 0.9732
3.7270 5.3678 -1.8500 0.9732
3.5329 5.4974 -1.8499 0.9732
3.3345 5.6199 -1.8499 0.9732
3.1317 5.7353 -1.8499 0.9732
2.9250 5.8434 -1.8499 0.9732
2.5006 6.0370 -1.8498 0.9732
2.2835 6.1224 -1.8498 0.9732
1.8409 6.2695 -1.8498 0.9732
1.6159 6.3312 -1.8498 0.9732
1.1601 6.4302 -1.8497 0.9732
0.9299 6.4674 -1.8497 0.9732
0.4661 6.5171 -1.8497 0.9732
0.1714 4.7997 -1.3596 0.9802
-0.0000 4.8031 -1.3597 0.9802
-0.2332 6.5294 -1.8496 0.9732
-0.4661 6.5168 -1.8496 0.9732
-0.6984 6.4960 -1.8496 0.9732
-1.1600 6.4295 -1.8495 0.9732
-1.3887 6.3839 -1.8495 0.9732
-1.8406 6.2684 -1.8495 0.9732
-2.0631 6.1987 -1.8494 0.9732
-1.8509 4.9624 -1.4993 0.9782
-1.9878 4.7989 -1.4705 0.9786
-2.9241 5.8417 -1.8494 0.9732
-3.1307 5.7335 -1.8493 0.9732
-3.3334 5.6181 -1.8493 0.9732
-4.0988 5.0863 -1.8492 0.9732
-4.6189 4.6189 -1.8492 0.9732
-6.0797 3.6072 -2.0013 0.9710
-6.3215 3.1643 -2.0012 0.9710
-6.4304 2.9367 -2.0012 0.9710
-6.5310 2.7053 -2.0012 0.9710
-6.6234 2.4704 -2.0012 0.9710
-6.7073 2.2324 -2.0012 0.9710
-6.7827 1.9916 -2.0012 0.9710
-6.8495 1.7482 -2.0012 0.9710
-6.9075 1.5026 -2.0012 0.9710
-6.9567 1.2551 -2.0012 0.9710
-7.0285 0.7556 -2.0012 0.9710
-7.0510 0.5043 -2.0012 0.9710
6.5102 -0.0000 -2.0024 0.9731
6.5061 0.2324 -2.0024 0.9731
6.4936 0.4644 -2.0024 0.9731
6.4729 0.6959 -2.0024 0.9731
6.3614 1.3838 -2.0024 0.9731
6.1770 2.0559 -2.0024 0.9731
5.9218 2.7044 -2.0024 0.9731
5.5987 3.3218 -2.0023 0.9731
5.3474 3.7127 -2.0023 0.9731
5.0549 4.0735 -1.9968 0.9732
4.8513 4.2037 -1.9744 0.9735
4.0985 4.4021 -1.8500 0.9751
3.9388 4.5456 -1.8500 0.9751
3.6044 4.8149 -1.8499 0.9751
3.4302 4.9404 -1.8499 0.9751
3.2517 5.0597 -1.8499 0.9751
3.0690 5.1725 -1.8499 0.9751
2.8824 5.2787 -1.8499 0.9751
2.4984 5.4707 -1.8498 0.9751
2.1017 5.6349 -1.8498 0.9751
1.2783 5.8764 -1.8497 0.9751
1.0678 5.9183 -1.8497 0.9751
0.6428 5.9792 -1.8497 0.9751
0.4290 5.9983 -1.8497 0.9751
0.1707 4.7799 -1.4711 0.9802
-0.0000 4.7916 -1.4738 0.9801
-0.2146 6.0096 -1.8496 0.9751
-0.4290 5.9981 -1.8496 0.9751
-0.8558 5.9520 -1.8495 0.9751
-1.0677 5.9176 -1.8495 0.9751
-1.4871 5.8263 -1.8495 0.9751
-1.9880 4.7993 -1.5978 0.9785
-2.6914 5.3767 -1.8494 0.9752
-2.8815 5.2772 -1.8494 0.9752
-3.0680 5.1709 -1.8493 0.9752
-3.4290 4.9388 -1.8493 0.9752
-3.7726 4.6815 -1.8493 0.9752
-3.9372 4.5438 -1.8493 0.9752
-5.4738 3.5178 -2.0013 0.9731
-6.0963 2.2738 -2.0013 0.9731
-6.1735 2.0547 -2.0013 0.9731
-6.2429 1.8331 -2.0012 0.9731
-6.3043 1.6091 -2.0012 0.9731
-6.4402 0.9259 -2.0012 0.9731
-6.4691 0.6955 -2.0012 0.9731
6.0085 0.4297 -2.0024 0.9749
5.7155 1.9023 -2.0023 0.9749
5.5652 2.3052 -2.0023 0.9749
5.4794 2.5023 -2.0023 0.9749
5.3865 2.6963 -2.0023 0.9749
5.2868 2.8868 -2.0023 0.9749
5.1804 3.0737 -2.0023 0.9749
5.0674 3.2566 -2.0023 0.9749
4.9479 3.4354 -2.0023 0.9749
4.8221 3.6098 -2.0023 0.9749
4.5450 3.9382 -1.9990 0.9750
3.9241 4.2148 -1.9142 0.9760
3.6611 4.2251 -1.8584 0.9767
3.4921 4.3334 -1.8499 0.9768
3.3351 4.4552 -1.8499 0.9768
3.1740 4.5714 -1.8499 0.9768
3.0088 4.6817 -1.8499 0.9768
2.4910 4.9764 -1.8498 0.9768
2.1296 5.1413 -1.8498 0.9768
1.7574 5.2801 -1.8498 0.9768
1.5678 5.3394 -1.8498 0.9768
1.3762 5.3919 -1.8497 0.9768
0.3970 5.5503 -1.8497 0.9768
-0.0000 4.7800 -1.5889 0.9801
-0.1986 5.5608 -1.8496 0.9768
-0.5948 5.5323 -1.8496 0.9768
-0.7919 5.5075 -1.8495 0.9768
-0.9879 5.4757 -1.8495 0.9768
-1.1827 5.4369 -1.8495 0.9768
-1.3760 5.3911 -1.8495 0.9768
-1.8509 4.9626 -1.7606 0.9779
-1.9881 4.7997 -1.7269 0.9783
-2.1888 4.7928 -1.7514 0.9780
-2.6664 4.8831 -1.8494 0.9768
-2.8389 4.7847 -1.8494 0.9768
-3.0079 4.6803 -1.8493 0.9768
-3.1730 4.5700 -1.8493 0.9768
-3.4909 4.3319 -1.8493 0.9768
-3.9235 4.2141 -1.9139 0.9760
-4.3940 4.0910 -1.9956 0.9750
-4.5431 3.9367 -1.9982 0.9750
-4.6871 3.7771 -2.0009 0.9749
-4.9457 3.4338 -2.0014 0.9749
-5.1780 3.0722 -2.0013 0.9749
-5.3839 2.6950 -2.0013 0.9749
-5.5624 2.3040 -2.0013 0.9749
-5.7126 1.9013 -2.0013 0.9749
-5.7768 1.6962 -2.0013 0.9749
-5.8830 1.2798 -2.0013 0.9749
-5.9249 1.0690 -2.0013 0.9749
-6.0052 0.4295 -2.0013 0.9749
-6.0167 0.2149 -2.0013 0.9749
5.5956 0.1999 -2.0023 0.9765
5.5671 0.5985 -2.0023 0.9765
5.5102 0.9941 -2.0023 0.9765
5.3126 1.7682 -2.0023 0.9765
5.2461 1.9567 -2.0023 0.9765
5.0931 2.3259 -2.0023 0.9765
5.0068 2.5062 -2.0023 0.9765
4.9142 2.6834 -2.0023 0.9765
4.7102 3.0270 -2.0022 0.9765
4.4822 3.3553 -2.0022 0.9765
4.3595 3.5131 -2.0022 0.9765
4.0956 3.8131 -2.0011 0.9765
3.9522 3.9522 -1.9988 0.9765
3.6403 4.2011 -1.9879 0.9767
3.1591 4.2201 -1.8851 0.9779
2.9503 4.2492 -1.8499 0.9783
2.7967 4.3517 -1.8499 0.9783
2.4791 4.5401 -1.8498 0.9783
1.9795 4.7790 -1.8498 0.9783
1.6335 4.9079 -1.8498 0.9783
0.7361 5.1197 -1.8497 0.9783
0.5529 5.1427 -1.8497 0.9783
0.1695 4.7470 -1.6987 0.9800
-0.0000 4.7683 -1.7052 0.9799
-0.3690 5.1589 -1.8496 0.9783
-0.7361 5.1194 -1.8496 0.9783
-1.2790 5.0112 -1.8495 0.9783
-1.8073 4.8457 -1.8495 0.9783
-1.9791 4.7780 -1.8494 0.9783
-2.1484 4.7043 -1.8494 0.9783
-2.4785 4.5390 -1.8494 0.9783
-2.7959 4.3505 -1.8494 0.9783
-3.1587 4.2196 -1.8849 0.9779
-3.9508 3.9508 -1.9981 0.9765
-4.2297 3.6651 -2.0014 0.9765
-4.4804 3.3539 -2.0014 0.9765
-4.9120 2.6821 -2.0014 0.9765
-5.0046 2.5051 -2.0014 0.9765
-5.0908 2.3249 -2.0014 0.9765
-5.5394 0.7964 -2.0013 0.9765
-5.5643 0.5982 -2.0013 0.9765
-5.5928 0.1998 -2.0013 0.9765
5.2216 0.1865 -2.0023 0.9779
5.1950 0.5585 -2.0023 0.9779
5.1055 1.1106 -2.0023 0.9779
5.0626 1.2922 -2.0023 0.9779
4.9575 1.6500 -2.0023 0.9779
4.8954 1.8259 -2.0023 0.9779
4.8271 1.9995 -2.0023 0.9779
4.4934 2.6660 -2.0022 0.9779
4.3953 2.8247 -2.0022 0.9779
4.2917 2.9798 -2.0022 0.9779
4.1826 3.1310 -2.0022 0.9779
3.9485 3.4214 -2.0022 0.9779
3.5579 3.8215 -2.0009 0.9779
3.1198 4.1676 -1.9950 0.9779
2.3134 4.2366 -1.8498 0.9795
2.0052 4.3908 -1.8498 0.9795
1.6868 4.5226 -1.8498 0.9795
1.5243 4.5799 -1.8498 0.9795
1.3599 4.6314 -1.8497 0.9795
1.1937 4.6769 -1.8497 0.9795
1.0260 4.7165 -1.8497 0.9795
0.1690 4.7323 -1.8147 0.9799
-0.6869 4.7773 -1.8496 0.9795
-0.8569 4.7497 -1.8495 0.9795
-1.6866 4.5218 -1.8495 0.9795
-1.8469 4.4587 -1.8495 0.9795
-2.0048 4.3900 -1.8494 0.9795
-2.7077 4.2132 -1.9193 0.9788
-2.9198 4.2053 -1.9619 0.9783
-3.4147 3.9408 -1.9983 0.9779
-3.5568 3.8203 -2.0003 0.9779
-4.0666 3.2771 -2.0014 0.9779
-4.2900 2.9786 -2.0014 0.9779
-4.4915 2.6650 -2.0014 0.9779
-4.5838 2.5029 -2.0014 0.9779
-4.6702 2.3377 -2.0014 0.9779
-4.8250 1.9986 -2.0014 0.9779
-4.8933 1.8251 -2.0014 0.9779
-5.1395 0.9273 -2.0013 0.9779
-5.1925 0.5583 -2.0013 0.9779
-5.2191 0.1864 -2.0013 0.9779
4.8922 0.0000 -2.0023 0.9791
4.8891 0.1746 -2.0023 0.9791
4.8797 0.3490 -2.0023 0.9791
4.8424 0.6962 -2.0023 0.9791
4.8145 0.8686 -2.0023 0.9791
4.7804 1.0399 -2.0022 0.9791
4.7402 1.2099 -2.0022 0.9791
4.6418 1.5449 -2.0022 0.9791
4.2937 2.3445 -2.0022 0.9791
4.1154 2.6448 -2.0022 0.9791
3.8091 3.0696 -2.0022 0.9791
3.0680 3.8071 -2.0011 0.9791
2.9275 3.9107 -1.9994 0.9791
2.6368 4.1029 -1.9961 0.9791
2.2966 4.2059 -1.9613 0.9795
1.9261 4.2177 -1.8977 0.9802
1.7491 4.2227 -1.8706 0.9804
1.5794 4.2346 -1.8498 0.9807
1.4273 4.2883 -1.8497 0.9807
1.1188 4.3833 -1.8515 0.9806
0.9607 4.4162 -1.8497 0.9807
0.4831 4.4935 -1.8497 0.9807
0.3224 4.5078 -1.8496 0.9807
-0.6431 4.4731 -1.8496 0.9807
-1.2731 4.3359 -1.8495 0.9807
-1.4271 4.2877 -1.8495 0.9807
-1.7490 4.2224 -1.8705 0.9804
-2.7831 4.0084 -1.9972 0.9791
-2.9268 3.9097 -1.9988 0.9791
-3.0672 3.8061 -2.0006 0.9791
-3.2026 3.6959 -2.0015 0.9791
-3.3324 3.5792 -2.0015 0.9791
-3.4580 3.4580 -2.0015 0.9791
-3.5792 3.3324 -2.0015 0.9791
-3.6959 3.2025 -2.0015 0.9791
-3.9149 2.9306 -2.0015 0.9791
-4.0169 2.7890 -2.0015 0.9791
-4.2920 2.3436 -2.0014 0.9791
-4.3729 2.1889 -2.0014 0.9791
-4.6920 1.3777 -2.0014 0.9791
-4.7783 1.0395 -2.0014 0.9791
-2.1703 0.3916 -0.9026 0.9905
4.5913 0.1640 -2.0022 0.9802
4.5825 0.3277 -2.0022 0.9802
4.5679 0.4911 -2.0022 0.9802
4.4892 0.9766 -2.0022 0.9802
4.4081 1.2943 -2.0022 0.9802
4.3590 1.4508 -2.0022 0.9802
4.3045 1.6055 -2.0022 0.9802
4.2444 1.7581 -2.0022 0.9802
4.1082 2.0564 -2.0022 0.9802
4.0321 2.2017 -2.0022 0.9802
3.9510 2.3442 -2.0022 0.9802
3.8648 2.4837 -2.0022 0.9802
3.7736 2.6201 -2.0022 0.9802
3.4719 3.0084 -2.0021 0.9802
3.3623 3.1304 -2.0021 0.9802
3.2484 3.2484 -2.0021 0.9802
3.1304 3.3623 -2.0021 0.9802
2.7530 3.6775 -2.0021 0.9802
2.6194 3.7727 -2.0017 0.9802
2.3402 3.9442 -1.9987 0.9802
1.0765 4.2177 -1.8971 0.9812
0.9181 4.2204 -1.8823 0.9813
0.7619 4.2227 -1.8700 0.9815
0.4546 4.2287 -1.8536 0.9816
0.0000 4.2440 -1.8496 0.9817
-0.1515 4.2413 -1.8496 0.9817
-0.3028 4.2332 -1.8496 0.9817
-0.6074 4.2244 -1.8600 0.9816
-0.9181 4.2203 -1.8823 0.9813
-1.0765 4.2175 -1.8970 0.9812
-1.2375 4.2143 -1.9142 0.9810
-1.4015 4.2106 -1.9340 0.9808
-2.0498 4.0950 -1.9958 0.9802
-2.4807 3.8600 -1.9997 0.9802
-2.6188 3.7718 -2.0012 0.9802
-2.8818 3.5760 -2.0016 0.9802
-3.0075 3.4709 -2.0015 0.9802
-3.1295 3.3613 -2.0015 0.9802
-3.4708 3.0075 -2.0015 0.9802
-3.5759 2.8817 -2.0015 0.9802
-4.0307 2.2009 -2.0015 0.9802
-4.1774 1.9077 -2.0014 0.9802
-4.2428 1.7574 -2.0014 0.9802
-1.5875 0.5284 -0.7292 0.9927
-1.5707 0.4612 -0.7134 0.9929
-1.5002 0.2707 -0.6643 0.9934
-1.5284 0.0546 -0.6665 0.9933
4.3255 0.0000 -2.0022 0.9811
4.3007 0.4624 -2.0022 0.9811
4.2814 0.6156 -2.0022 0.9811
4.2567 0.7680 -2.0022 0.9811
4.2266 0.9194 -2.0022 0.9811
4.1502 1.2186 -2.0022 0.9811
4.1041 1.3660 -2.0022 0.9811
4.0527 1.5116 -2.0022 0.9811
3.9962 1.6553 -2.0022 0.9811
3.7963 2.0729 -2.0022 0.9811
3.7199 2.2071 -2.0022 0.9811
3.6387 2.3385 -2.0021 0.9811
3.4626 2.5921 -2.0021 0.9811
3.2688 2.8325 -2.0021 0.9811
3.1656 2.9473 -2.0021 0.9811
3.0584 3.0584 -2.0021 0.9811
2.5920 3.4625 -2.0021 0.9811
2.3383 3.6385 -2.0020 0.9811
1.9341 3.8638 -2.0001 0.9811
0.9138 4.2005 -1.9898 0.9812
0.7583 4.2029 -1.9769 0.9814
0.6045 4.2048 -1.9664 0.9814
0.3009 4.2074 -1.9525 0.9816
0.1503 4.2080 -1.9491 0.9816
-0.0000 4.2082 -1.9479 0.9816
-0.1503 4.2080 -1.9490 0.9816
-0.6046 4.2047 -1.9663 0.9815
-0.7583 4.2028 -1.9768 0.9814
-0.9137 4.2004 -1.9898 0.9812
-1.0656 4.1750 -1.9945 0.9812
-1.3617 4.0912 -1.9959 0.9812
-1.5075 4.0417 -1.9967 0.9812
-1.7937 3.9276 -1.9986 0.9811
-1.9338 3.8632 -1.9997 0.9811
-2.0716 3.7939 -2.0009 0.9811
-2.2065 3.7189 -2.0016 0.9811
-2.4662 3.5520 -2.0016 0.9811
-2.5914 3.4617 -2.0016 0.9811
-2.8317 3.2679 -2.0016 0.9811
-2.9465 3.1648 -2.0015 0.9811
-3.3669 2.7132 -2.0015 0.9811
-3.4615 2.5913 -2.0015 0.9811
-3.5518 2.4660 -2.0015 0.9811
-3.7186 2.2064 -2.0015 0.9811
-3.8665 1.9355 -2.0015 0.9811
-1.3151 0.6006 -0.6692 0.9936
-1.3263 0.5494 -0.6645 0.9937
-1.3324 0.4435 -0.6500 0.9938
-1.3241 0.3888 -0.6388 0.9939
-1.3116 0.3348 -0.6266 0.9941
-1.3013 0.2831 -0.6164 0.9941
-1.3160 0.2374 -0.6190 0.9941
-1.3384 0.0957 -0.6211 0.9941
4.0791 0.1457 -2.0022 0.9820
4.0583 0.4363 -2.0022 0.9820
4.0169 0.7247 -2.0022 0.9820
3.9549 1.0094 -2.0022 0.9820
3.8243 1.4264 -2.0022 0.9820
3.6499 1.8270 -2.0021 0.9820
3.5824 1.9561 -2.0021 0.9820
3.5102 2.0827 -2.0021 0.9820
3.4337 2.2067 -2.0021 0.9820
3.2675 2.4460 -2.0021 0.9820
3.1781 2.5610 -2.0021 0.9820
2.7812 2.9872 -2.0021 0.9820
2.4459 3.2674 -2.0020 0.9820
2.3277 3.3526 -2.0020 0.9820
2.2066 3.4335 -2.0020 0.9820
2.0826 3.5100 -2.0020 0.9820
1.9560 3.5821 -2.0020 0.9820
1.8269 3.6496 -2.0020 0.9820
1.6954 3.7125 -2.0020 0.9820
1.2875 3.8685 -1.9999 0.9820
1.0076 3.9478 -1.9986 0.9820
0.7230 4.0075 -1.9975 0.9820
0.4351 4.0475 -1.9968 0.9820
-0.1453 4.0674 -1.9964 0.9820
-0.2904 4.0598 -1.9965 0.9820
-0.4351 4.0473 -1.9967 0.9820
-0.7230 4.0073 -1.9974 0.9820
-0.8658 3.9798 -1.9978 0.9820
-1.1481 3.9102 -1.9990 0.9820
-1.2874 3.8680 -1.9997 0.9820
-1.6952 3.7119 -2.0017 0.9820
-1.8266 3.6490 -2.0017 0.9820
-1.9556 3.5815 -2.0016 0.9820
-2.0822 3.5094 -2.0016 0.9820
-2.3272 3.3518 -2.0016 0.9820
-2.6722 3.0838 -2.0016 0.9820
-3.4326 2.2060 -2.0015 0.9820
-1.1113 0.6068 -0.6211 0.9944
-1.1292 0.5652 -0.6194 0.9944
-1.1578 0.2955 -0.5861 0.9947
-1.1695 0.2544 -0.5871 0.9947
-1.1791 0.2127 -0.5877 0.9947
-1.1867 0.1706 -0.5881 0.9947
-1.1921 0.1282 -0.5881 0.9947
-1.1953 0.0855 -0.5878 0.9947
3.8594 0.0000 -2.0022 0.9828
3.8495 0.2753 -2.0022 0.9828
3.8201 0.5492 -2.0022 0.9828
3.7980 0.6852 -2.0022 0.9828
3.7712 0.8204 -2.0022 0.9828
3.7395 0.9544 -2.0022 0.9828
3.6618 1.2188 -2.0021 0.9828
3.6160 1.3487 -2.0021 0.9828
3.5106 1.6032 -2.0021 0.9828
3.3190 1.9693 -2.0021 0.9828
3.0895 2.3127 -2.0021 0.9828
2.6297 2.8245 -2.0021 0.9828
2.5272 2.9165 -2.0020 0.9828
1.7274 3.4508 -2.0020 0.9828
1.4768 3.5652 -2.0020 0.9828
1.3486 3.6156 -2.0019 0.9828
1.2186 3.6614 -2.0019 0.9828
1.0872 3.7026 -2.0019 0.9828
0.9543 3.7390 -2.0019 0.9828
0.6849 3.7960 -2.0011 0.9828
0.5488 3.8174 -2.0007 0.9828
0.1376 3.8529 -2.0001 0.9828
-0.0000 3.8553 -2.0000 0.9828
-0.1376 3.8529 -2.0001 0.9828
-0.4122 3.8338 -2.0004 0.9828
-0.6848 3.7958 -2.0010 0.9828
-0.8201 3.7697 -2.0014 0.9828
-0.9542 3.7387 -2.0017 0.9828
-1.0871 3.7022 -2.0017 0.9828
-1.3484 3.6152 -2.0017 0.9828
-1.4766 3.5647 -2.0017 0.9828
-1.8491 3.3864 -2.0016 0.9828
-2.2005 3.1693 -2.0016 0.9828
-2.3122 3.0887 -2.0016 0.9828
-2.5266 2.9159 -2.0016 0.9828
-2.6291 2.8238 -2.0016 0.9828
-2.9158 2.5266 -2.0016 0.9828
-3.0041 2.4209 -2.0015 0.9828
-3.0886 2.3121 -2.0015 0.9828
-1.0298 0.5155 -0.5974 0.9948
-1.0430 0.4763 -0.5948 0.9948
-1.0576 0.3945 -0.5856 0.9949
-1.0704 0.2732 -0.5731 0.9950
-1.0974 0.1578 -0.5752 0.9950
-1.1066 0.0395 -0.5744 0.9950
3.6555 -0.0000 -2.0021 0.9835
3.6532 0.1305 -2.0021 0.9835
3.6462 0.2608 -2.0021 0.9835
3.6346 0.3908 -2.0021 0.9835
3.5720 0.7770 -2.0021 0.9835
3.5420 0.9040 -2.0021 0.9835
3.5074 1.0299 -2.0021 0.9835
3.4684 1.1544 -2.0021 0.9835
3.3251 1.5185 -2.0021 0.9835
3.1437 1.8653 -2.0021 0.9835
3.0026 2.0848 -2.0021 0.9835
2.8462 2.2937 -2.0021 0.9835
2.7626 2.3938 -2.0021 0.9835
2.5847 2.5847 -2.0021 0.9835
2.4908 2.6753 -2.0020 0.9835
2.0847 3.0025 -2.0020 0.9835
1.9762 3.0750 -2.0020 0.9835
1.8652 3.1436 -2.0020 0.9835
1.6361 3.2686 -2.0020 0.9835
1.5184 3.3249 -2.0020 0.9835
1.2773 3.4247 -2.0019 0.9835
0.1305 3.6526 -2.0018 0.9835
-0.3907 3.6339 -2.0018 0.9835
-0.5201 3.6176 -2.0018 0.9835
-0.7769 3.5713 -2.0017 0.9835
-0.9039 3.5413 -2.0017 0.9835
-1.0297 3.5067 -2.0017 0.9835
-1.2772 3.4243 -2.0017 0.9835
-1.3986 3.3765 -2.0017 0.9835
-1.5182 3.3244 -2.0017 0.9835
-1.6359 3.2681 -2.0017 0.9835
-2.0843 3.0019 -2.0016 0.9835
-2.2931 2.8456 -2.0016 0.9835
-2.3932 2.7619 -2.0016 0.9835
-2.6747 2.4902 -2.0016 0.9835
-2.7619 2.3932 -2.0016 0.9835
-2.8455 2.2930 -2.0016 0.9835
-2.9255 2.1900 -2.0016 0.9835
-0.9269 0.5061 -0.5784 0.9952
-0.9434 0.4722 -0.5778 0.9952
-0.9677 0.4008 -0.5737 0.9952
-0.9820 0.2883 -0.5606 0.9953
-1.0236 0.1100 -0.5639 0.9953
2.0197 0.0000 -1.1661 0.9907
2.0320 0.0726 -1.1739 0.9907
2.0366 0.2189 -1.1826 0.9906
2.0300 0.2919 -1.1841 0.9906
2.0153 0.3636 -1.1823 0.9906
1.9616 0.5007 -1.1688 0.9907
1.8620 0.7713 -1.1636 0.9907
1.8508 0.8452 -1.1747 0.9906
3.1009 1.5522 -2.0021 0.9841
3.0435 1.6619 -2.0021 0.9841
2.9172 1.8748 -2.0021 0.9841
2.6207 2.2708 -2.0021 0.9841
2.5379 2.3629 -2.0020 0.9841
2.4520 2.4520 -2.0020 0.9841
2.3629 2.5379 -2.0020 0.9841
2.1758 2.7000 -2.0020 0.9841
1.9776 2.8483 -2.0020 0.9841
1.8747 2.9171 -2.0020 0.9841
1.5521 3.1007 -2.0020 0.9841
1.3269 3.2035 -2.0019 0.9841
1.2117 3.2488 -2.0019 0.9841
1.0950 3.2900 -2.0019 0.9841
0.9769 3.3270 -2.0019 0.9841
0.8575 3.3597 -2.0019 0.9841
0.7370 3.3881 -2.0019 0.9841
0.3706 3.4474 -2.0019 0.9841
0.1238 3.4651 -2.0018 0.9841
-0.3706 3.4473 -2.0018 0.9841
-0.7370 3.3879 -2.0018 0.9841
-0.8574 3.3594 -2.0017 0.9841
-1.2116 3.2485 -2.0017 0.9841
-1.4403 3.1537 -2.0017 0.9841
-1.5519 3.1003 -2.0017 0.9841
-1.6616 3.0429 -2.0017 0.9841
-1.7691 2.9816 -2.0017 0.9841
-1.9773 2.8478 -2.0016 0.9841
-2.5374 2.3624 -2.0016 0.9841
-0.7846 0.5873 -0.5658 0.9955
-0.8008 0.5560 -0.5628 0.9955
-0.8364 0.4963 -0.5615 0.9955
-0.8534 0.4660 -0.5614 0.9955
-0.8823 0.4029 -0.5600 0.9955
-0.8941 0.3703 -0.5587 0.9955
-0.9011 0.3361 -0.5553 0.9956
-0.9259 0.2363 -0.5517 0.9956
-0.9352 0.2035 -0.5526 0.9956
-0.9538 0.1025 -0.5538 0.9956
-0.9575 0.0342 -0.5532 0.9956
