ply
format ascii 1.0
element vertex 877
property float32 x
property float32 y
property float32 z
property float32 I
end_header
4.5972 6.1412 1.3527 0.9693
2.5453 6.1449 1.1728 0.9733
1.4790 4.4435 0.8258 0.9812
1.2789 4.3555 0.8004 0.9817
1.4524 5.6904 1.0355 0.9764
1.1924 5.4814 0.9891 0.9775
0.8403 5.8447 1.0412 0.9763
0.5196 4.8333 0.8571 0.9804
0.3727 5.2113 0.9212 0.9790
0.0000 5.0983 0.8990 0.9795
-6.4608 5.2064 1.4631 0.9669
1.6924 4.5375 0.7419 0.9806
1.4790 4.4436 0.7174 0.9812
1.4524 5.6904 0.8997 0.9765
1.0178 5.6411 0.8781 0.9771
-0.0000 5.0983 0.7810 0.9796
-0.7988 5.5555 0.8598 0.9775
-6.4608 5.2064 1.2711 0.9670
4.6056 6.1524 1.0008 0.9695
4.3160 6.2162 0.9855 0.9699
4.2136 6.5564 1.0149 0.9691
1.6924 4.5375 0.6306 0.9807
1.2789 4.3556 0.5911 0.9819
0.8419 5.8555 0.7704 0.9764
0.1841 5.1541 0.6716 0.9794
0.0000 5.0983 0.6639 0.9796
-6.4607 5.2064 1.0805 0.9671
4.6098 6.1580 0.8260 0.9695
4.3166 6.2171 0.8127 0.9700
2.8227 6.8146 0.7921 0.9708
2.4178 6.4825 0.7429 0.9725
1.4501 5.6813 0.6296 0.9767
1.1673 5.3661 0.5897 0.9781
0.6667 6.2014 0.6698 0.9752
0.3727 5.2113 0.5610 0.9792
0.0000 5.0983 0.5475 0.9797
1.7374 5.9171 0.5220 0.9755
1.4501 5.6814 0.4964 0.9767
1.0093 5.5943 0.4812 0.9774
0.6958 6.4716 0.5510 0.9742
0.1841 5.1541 0.4366 0.9795
-6.4607 5.2064 0.7024 0.9672
4.6181 6.1691 0.4779 0.9696
4.3178 6.2188 0.4695 0.9701
2.4140 6.4721 0.4283 0.9727
1.7315 5.8968 0.3811 0.9757
1.4451 5.6619 0.3624 0.9769
1.5625 7.1826 0.4558 0.9710
0.8399 5.8412 0.3659 0.9766
0.4294 6.0029 0.3732 0.9762
4.6223 6.1746 0.3041 0.9696
4.3184 6.2197 0.2986 0.9701
4.1891 6.5183 0.3055 0.9695
2.8045 6.7706 0.2890 0.9711
2.6953 7.2264 0.3041 0.9696
2.2652 7.7147 0.3170 0.9683
1.9005 7.4462 0.3030 0.9697
0.4464 6.2419 0.2468 0.9753
4.6264 6.1801 0.1304 0.9696
4.3190 6.2206 0.1279 0.9702
4.1830 6.5088 0.1307 0.9695
0.4464 6.2419 0.1057 0.9753
-6.4606 5.2063 0.1402 0.9674
4.6305 6.1857 -0.0435 0.9696
4.3197 6.2215 -0.0426 0.9702
2.8045 6.7706 -0.0413 0.9711
2.6953 7.2264 -0.0434 0.9696
2.2653 7.7147 -0.0453 0.9683
1.7035 6.6742 -0.1940 0.9728
0.0000 5.8564 -0.1649 0.9768
-6.4606 5.2063 -0.2336 0.9673
4.6389 6.1968 -0.3926 0.9695
4.3209 6.2232 -0.3842 0.9701
4.1650 6.4808 -0.3907 0.9696
2.8045 6.7707 -0.3717 0.9711
2.5146 6.7420 -0.3649 0.9716
1.7152 6.7201 -0.3517 0.9726
1.4806 6.8063 -0.3532 0.9725
0.4464 6.2418 -0.3173 0.9752
-6.4605 5.2063 -0.4208 0.9673
4.3215 6.2241 -0.5556 0.9701
4.1590 6.4715 -0.5640 0.9696
2.3221 6.9767 -0.5391 0.9709
2.0426 6.9564 -0.5316 0.9713
1.7152 6.7201 -0.5085 0.9726
1.4806 6.8062 -0.5107 0.9725
0.4464 6.2418 -0.4588 0.9752
0.0000 5.8564 -0.4294 0.9768
-6.4605 5.2062 -0.6084 0.9673
4.3221 6.2250 -0.7276 0.9700
2.5146 6.7419 -0.6908 0.9715
2.3220 6.9767 -0.7059 0.9709
2.0426 6.9564 -0.6960 0.9713
-0.0000 5.8565 -0.5622 0.9767
-6.4605 5.2062 -0.7966 0.9672
4.3227 6.2259 -0.9003 0.9699
2.8030 6.7671 -0.8701 0.9709
2.4010 6.4372 -0.8161 0.9727
2.0495 6.1579 -0.7709 0.9742
1.7529 5.9699 -0.7391 0.9752
1.5263 5.9801 -0.7331 0.9754
1.3119 6.0305 -0.7331 0.9754
1.0957 6.0732 -0.7331 0.9754
0.8641 6.0103 -0.7213 0.9758
0.6335 5.8926 -0.7040 0.9764
0.4464 6.2417 -0.7433 0.9751
0.2038 5.7053 -0.6781 0.9773
-6.4605 5.2062 -0.9856 0.9671
4.6558 6.2194 -1.1008 0.9691
4.3234 6.2268 -1.0741 0.9698
4.1410 6.4434 -1.0852 0.9695
2.8030 6.7671 -1.0378 0.9708
2.0496 6.1579 -0.9196 0.9741
1.7315 5.8970 -0.8708 0.9755
1.1853 5.4489 -0.7901 0.9777
0.9480 5.2542 -0.7565 0.9787
0.7333 5.1001 -0.7301 0.9794
0.5612 5.2198 -0.7438 0.9790
0.1992 5.5771 -0.7907 0.9777
-6.3903 5.1497 -1.1628 0.9674
-7.4717 5.1877 -1.2888 0.9639
4.3240 6.2277 -1.2490 0.9697
4.1349 6.4340 -1.2600 0.9695
3.4792 7.6183 -1.3797 0.9666
2.8030 6.7671 -1.2067 0.9707
1.7315 5.8970 -1.0125 0.9754
1.4423 5.6508 -0.9607 0.9766
1.1854 5.4490 -0.9187 0.9776
0.7282 5.0650 -0.8430 0.9795
0.5549 5.1612 -0.8551 0.9792
0.3840 5.3694 -0.8868 0.9784
0.0000 5.8199 -0.9588 0.9767
-7.4505 5.1730 -1.4942 0.9639
5.4771 5.4771 -1.4559 0.9690
5.1347 5.5150 -1.4163 0.9698
4.6644 6.2309 -1.4630 0.9688
4.3246 6.2286 -1.4253 0.9696
3.4632 6.9186 -1.4543 0.9690
3.4792 7.6183 -1.5742 0.9665
2.0496 6.1580 -1.2199 0.9739
0.5549 5.1612 -0.9757 0.9791
0.0000 5.8198 -1.0939 0.9766
-7.4293 5.1582 -1.7000 0.9639
-7.7175 4.9598 -1.7243 0.9634
9.4771 -0.0000 -2.0033 0.9620
9.4711 0.3382 -2.0033 0.9620
9.3265 1.6827 -2.0033 0.9620
9.1826 2.3437 -2.0032 0.9620
8.9918 2.9928 -2.0032 0.9620
8.8792 3.3117 -2.0032 0.9620
8.7553 3.6265 -2.0032 0.9620
8.6070 3.9307 -2.0001 0.9621
8.3940 4.2017 -1.9842 0.9623
7.5300 4.4678 -1.8508 0.9648
6.6166 5.7333 -1.8506 0.9648
6.4076 5.9657 -1.8506 0.9648
5.4772 5.4771 -1.6373 0.9688
4.4650 5.5407 -1.5042 0.9713
3.8630 5.5638 -1.4318 0.9727
3.4189 5.7622 -1.4163 0.9730
3.4395 6.2989 -1.5170 0.9711
2.8087 6.7808 -1.5514 0.9704
0.9461 5.2437 -1.1263 0.9785
0.7282 5.0650 -1.0816 0.9793
0.5549 5.1611 -1.0972 0.9790
0.3840 5.3694 -1.1379 0.9782
0.1992 5.5770 -1.1796 0.9774
-0.3123 8.7443 -1.8496 0.9649
-0.6242 8.7274 -1.8495 0.9649
-0.9353 8.6993 -1.8495 0.9649
-1.2451 8.6601 -1.8494 0.9649
-1.5534 8.6099 -1.8494 0.9649
-2.1636 8.4768 -1.8493 0.9649
-3.3476 8.0818 -1.8491 0.9649
-4.7288 7.3581 -1.8489 0.9649
-4.9883 7.1845 -1.8488 0.9649
-5.7273 6.6097 -1.8487 0.9649
-6.2524 5.0385 -1.6974 0.9677
-6.6837 5.0033 -1.7648 0.9664
-7.3565 4.7277 -1.8484 0.9649
-7.5204 4.4621 -1.8484 0.9649
-7.7320 4.2220 -1.8622 0.9646
-8.3895 4.1995 -1.9831 0.9624
-8.7433 3.6216 -2.0004 0.9620
-8.9792 2.9885 -2.0004 0.9620
-9.2470 2.0116 -2.0003 0.9620
-9.3129 1.6802 -2.0003 0.9620
-9.3668 1.3467 -2.0003 0.9620
-9.4089 1.0115 -2.0003 0.9620
-9.4571 0.3377 -2.0003 0.9621
8.5231 0.0000 -2.0031 0.9656
8.4742 0.9111 -2.0031 0.9656
8.4363 1.2129 -2.0031 0.9656
8.2582 2.1078 -2.0031 0.9656
8.0867 2.6915 -2.0031 0.9656
7.9854 2.9784 -2.0030 0.9656
7.8740 3.2615 -2.0030 0.9656
6.6243 4.2571 -1.8506 0.9682
6.4680 4.4908 -1.8506 0.9682
6.3035 4.7187 -1.8506 0.9682
5.7627 5.3653 -1.8505 0.9682
5.4055 5.4055 -1.7967 0.9691
5.0456 5.4194 -1.7402 0.9700
3.5826 5.5746 -1.5574 0.9731
3.4394 6.2988 -1.6867 0.9709
3.2702 7.1607 -1.8501 0.9682
2.7069 6.5351 -1.6624 0.9714
2.3669 6.3458 -1.5918 0.9726
2.0496 6.1580 -1.5253 0.9737
1.7315 5.8971 -1.4445 0.9751
1.1854 5.4490 -1.3106 0.9773
0.5549 5.1611 -1.2200 0.9789
0.2809 7.8650 -1.8496 0.9682
-1.6726 7.6889 -1.8493 0.9682
-2.2168 7.5496 -1.8493 0.9682
-2.4848 7.4655 -1.8492 0.9682
-2.7496 7.3719 -1.8492 0.9682
-3.0109 7.2689 -1.8491 0.9682
-3.2683 7.1567 -1.8491 0.9682
-4.0144 6.7659 -1.8490 0.9682
-4.7143 6.2976 -1.8489 0.9682
-5.7571 5.3600 -1.8487 0.9682
-5.9446 5.1510 -1.8487 0.9682
-6.1246 4.9355 -1.8486 0.9682
-6.2968 4.7137 -1.8486 0.9682
-6.4609 4.4859 -1.8486 0.9682
-6.6168 4.2524 -1.8486 0.9682
-7.4509 4.0685 -1.9952 0.9657
-7.6081 3.8083 -1.9996 0.9656
-7.8642 3.2575 -2.0006 0.9656
-8.0765 2.6881 -2.0005 0.9656
-8.2475 2.1050 -2.0005 0.9656
-8.3174 1.8093 -2.0005 0.9656
-8.3766 1.5113 -2.0005 0.9656
-8.4252 1.2113 -2.0005 0.9656
-8.4630 0.9099 -2.0005 0.9656
-8.5063 0.3038 -2.0005 0.9656
7.7163 0.5519 -2.0030 0.9685
7.6917 0.8269 -2.0030 0.9685
7.6573 1.1009 -2.0030 0.9685
7.6131 1.3735 -2.0030 0.9685
7.4956 1.9131 -2.0030 0.9685
7.4225 2.1794 -2.0030 0.9685
7.3400 2.4430 -2.0029 0.9685
7.2480 2.7034 -2.0029 0.9685
7.1469 2.9603 -2.0029 0.9685
7.0366 3.2135 -2.0029 0.9685
6.9174 3.4626 -2.0029 0.9685
5.4012 4.6802 -1.8504 0.9709
5.2307 4.8699 -1.8504 0.9709
4.8698 5.2305 -1.8504 0.9709
4.6799 5.4009 -1.8503 0.9709
4.0845 5.4562 -1.7647 0.9722
3.3796 5.6960 -1.7149 0.9730
3.1985 6.3897 -1.8501 0.9709
2.3448 6.2867 -1.7373 0.9727
2.1029 6.3181 -1.7241 0.9729
1.1854 5.4490 -1.4439 0.9772
0.7836 5.4502 -1.4257 0.9775
0.5922 5.5083 -1.4344 0.9774
0.3955 5.5300 -1.4355 0.9774
0.0000 7.1436 -1.8496 0.9709
-0.2550 7.1389 -1.8496 0.9709
-1.5183 6.9794 -1.8494 0.9709
-2.0122 6.8530 -1.8493 0.9709
-2.2555 6.7767 -1.8492 0.9709
-2.4959 6.6917 -1.8492 0.9709
-2.7331 6.5983 -1.8492 0.9709
-3.1967 6.3862 -1.8491 0.9709
-3.4226 6.2679 -1.8491 0.9709
-3.8608 6.0076 -1.8490 0.9709
-4.0727 5.8658 -1.8490 0.9709
-4.4807 5.5602 -1.8489 0.9709
-4.6762 5.3966 -1.8489 0.9709
-5.0491 5.0491 -1.8488 0.9709
-5.3963 4.6759 -1.8487 0.9709
-5.7159 4.2789 -1.8487 0.9709
-6.0677 4.2129 -1.9126 0.9699
-6.6350 3.9367 -1.9976 0.9686
-6.9099 3.4588 -2.0007 0.9686
-7.0288 3.2099 -2.0007 0.9686
-7.2398 2.7003 -2.0007 0.9686
-7.4139 2.1769 -2.0006 0.9686
-7.4868 1.9109 -2.0006 0.9686
-7.6040 1.3719 -2.0006 0.9686
-7.6825 0.8259 -2.0006 0.9686
-7.7070 0.5512 -2.0006 0.9686
-7.7218 0.2758 -2.0006 0.9686
7.0345 0.7563 -2.0029 0.9710
7.0030 1.0069 -2.0029 0.9710
6.9626 1.2562 -2.0029 0.9710
6.9133 1.5039 -2.0029 0.9710
6.7128 2.2342 -2.0028 0.9710
6.5362 2.7074 -2.0028 0.9710
6.4354 2.9389 -2.0028 0.9710
6.2092 3.3905 -2.0028 0.9710
5.6122 4.2012 -1.9846 0.9713
5.2323 4.2164 -1.9023 0.9725
4.4538 4.7837 -1.8503 0.9732
3.5204 5.4778 -1.8434 0.9733
2.9252 5.8439 -1.8501 0.9732
2.5008 6.0375 -1.8500 0.9732
2.2837 6.1228 -1.8500 0.9732
2.0637 6.2003 -1.8499 0.9732
1.8410 6.2698 -1.8499 0.9732
1.1854 5.4491 -1.5787 0.9771
0.9299 6.4675 -1.8497 0.9732
0.6984 6.4965 -1.8497 0.9732
0.4432 6.1968 -1.7588 0.9745
0.2332 6.5295 -1.8496 0.9732
-0.2332 6.5292 -1.8496 0.9732
-0.4661 6.5166 -1.8495 0.9732
-0.6984 6.4957 -1.8495 0.9732
-0.9297 6.4665 -1.8495 0.9732
-1.1599 6.4291 -1.8494 0.9732
-1.3886 6.3835 -1.8494 0.9732
-1.6156 6.3297 -1.8493 0.9732
-1.8404 6.2679 -1.8493 0.9732
-2.2828 6.1204 -1.8492 0.9732
-2.4997 6.0349 -1.8492 0.9732
-2.9238 5.8410 -1.8491 0.9732
-3.1304 5.7328 -1.8491 0.9732
-3.9141 5.2286 -1.8490 0.9732
-4.0982 5.0855 -1.8490 0.9732
-4.4504 4.7800 -1.8489 0.9732
-4.6181 4.6181 -1.8489 0.9732
-4.7799 4.4502 -1.8488 0.9732
-5.2305 4.2150 -1.9017 0.9725
-5.6102 4.1997 -1.9839 0.9713
-5.7923 4.0217 -1.9963 0.9711
-5.9423 3.8189 -1.9997 0.9711
-6.6219 2.4698 -2.0008 0.9710
-6.7811 1.9911 -2.0007 0.9710
-6.9058 1.5022 -2.0007 0.9710
-6.9550 1.2548 -2.0007 0.9710
-6.9953 1.0058 -2.0007 0.9710
-7.0492 0.5042 -2.0007 0.9710
-7.0627 0.2522 -2.0007 0.9710
6.5074 0.2324 -2.0028 0.9731
6.4950 0.4645 -2.0028 0.9731
6.4742 0.6961 -2.0028 0.9731
6.4452 0.9267 -2.0028 0.9731
6.3092 1.6103 -2.0028 0.9731
6.2477 1.8345 -2.0028 0.9731
6.1782 2.0563 -2.0028 0.9731
6.1008 2.2755 -2.0028 0.9731
5.8225 2.9145 -2.0027 0.9731
5.5996 3.3224 -2.0027 0.9731
5.4774 3.5201 -2.0027 0.9731
5.2057 3.8970 -2.0001 0.9732
5.0557 4.0741 -1.9971 0.9732
4.8506 4.2031 -1.9741 0.9735
4.5285 4.2162 -1.9031 0.9744
3.9393 4.5461 -1.8502 0.9751
3.7744 4.6838 -1.8502 0.9751
3.4306 4.9410 -1.8501 0.9751
2.6923 5.3786 -1.8500 0.9751
2.4986 5.4712 -1.8500 0.9751
1.6944 5.7707 -1.8499 0.9751
1.4874 5.8274 -1.8498 0.9751
1.0678 5.9184 -1.8498 0.9751
0.4290 5.9983 -1.8497 0.9751
0.2146 6.0097 -1.8496 0.9751
-0.2146 6.0095 -1.8496 0.9751
-0.4290 5.9979 -1.8495 0.9751
-0.6428 5.9786 -1.8495 0.9751
-0.8557 5.9518 -1.8495 0.9752
-1.2781 5.8754 -1.8494 0.9752
-1.4870 5.8259 -1.8494 0.9752
-2.3008 5.5546 -1.8492 0.9752
-2.4975 5.4688 -1.8492 0.9752
-2.6911 5.3761 -1.8492 0.9752
-2.8812 5.2766 -1.8491 0.9752
-3.0677 5.1703 -1.8491 0.9752
-4.0962 4.3997 -1.8490 0.9752
-4.2506 4.2506 -1.8489 0.9752
-4.5272 4.2150 -1.9025 0.9744
-4.8491 4.2018 -1.9735 0.9735
-5.3438 3.7102 -2.0010 0.9731
-5.7096 3.1177 -2.0009 0.9731
-5.9174 2.7023 -2.0009 0.9731
-6.0100 2.4894 -2.0009 0.9731
-6.0950 2.2733 -2.0008 0.9731
-6.1722 2.0543 -2.0008 0.9731
-6.3030 1.6087 -2.0008 0.9731
-6.5008 0.2322 -2.0008 0.9731
6.0250 -0.0000 -2.0027 0.9749
6.0211 0.2150 -2.0027 0.9749
5.9292 1.0697 -2.0027 0.9749
5.7165 1.9026 -2.0027 0.9749
5.6450 2.1054 -2.0027 0.9749
5.3874 2.6967 -2.0026 0.9749
5.1812 3.0742 -2.0026 0.9749
5.0682 3.2571 -2.0026 0.9749
4.9486 3.4359 -2.0026 0.9749
4.6896 3.7791 -2.0020 0.9749
4.3963 4.0931 -1.9967 0.9750
3.9235 4.2141 -1.9139 0.9760
3.6605 4.2244 -1.8580 0.9767
3.3355 4.4557 -1.8501 0.9768
3.1743 4.5718 -1.8501 0.9768
3.0091 4.6821 -1.8501 0.9768
2.1298 5.1417 -1.8499 0.9768
1.3763 5.3921 -1.8498 0.9768
0.9880 5.4763 -1.8498 0.9768
0.7919 5.5080 -1.8497 0.9768
0.3970 5.5503 -1.8497 0.9768
0.1986 5.5608 -1.8496 0.9768
0.0000 5.5643 -1.8496 0.9768
-0.7918 5.5073 -1.8495 0.9768
-1.3759 5.3908 -1.8494 0.9768
-1.9442 5.2126 -1.8493 0.9768
-2.3110 5.0604 -1.8492 0.9768
-2.6661 4.8825 -1.8492 0.9768
-3.0075 4.6798 -1.8491 0.9768
-3.1726 4.5694 -1.8491 0.9768
-3.4904 4.3313 -1.8490 0.9768
-3.6596 4.2234 -1.8576 0.9767
-3.9225 4.2130 -1.9134 0.9760
-4.3933 4.0903 -1.9953 0.9750
-4.6863 3.7764 -2.0006 0.9749
-4.8192 3.6076 -2.0010 0.9749
-5.1770 3.0717 -2.0010 0.9749
-5.2833 2.8849 -2.0010 0.9749
-5.7756 1.6958 -2.0009 0.9749
-5.8324 1.4886 -2.0009 0.9749
-5.8818 1.2795 -2.0009 0.9749
-5.9237 1.0688 -2.0009 0.9749
-5.9581 0.8566 -2.0009 0.9749
-5.9848 0.6434 -2.0009 0.9749
-6.0155 0.2148 -2.0008 0.9749
5.5432 0.7970 -2.0027 0.9765
5.2470 1.9570 -2.0026 0.9765
5.1737 2.1430 -2.0026 0.9765
5.0939 2.3263 -2.0026 0.9765
4.7109 3.0275 -2.0025 0.9765
4.3601 3.5136 -2.0025 0.9765
4.2319 3.6670 -2.0025 0.9765
4.0960 3.8136 -2.0014 0.9765
3.9526 3.9526 -1.9990 0.9765
3.8047 4.0865 -1.9967 0.9766
3.1586 4.2194 -1.8848 0.9779
2.9505 4.2496 -1.8501 0.9783
2.7969 4.3521 -1.8500 0.9783
2.6398 4.4491 -1.8500 0.9783
2.3156 4.6260 -1.8500 0.9783
2.1490 4.7056 -1.8499 0.9783
1.9796 4.7792 -1.8499 0.9783
1.8078 4.8468 -1.8499 0.9783
1.6336 4.9081 -1.8499 0.9783
0.9184 5.0904 -1.8497 0.9783
0.7361 5.1198 -1.8497 0.9783
0.5529 5.1428 -1.8497 0.9783
0.0000 5.1721 -1.8496 0.9783
-0.1846 5.1688 -1.8496 0.9783
-0.3690 5.1588 -1.8495 0.9783
-0.9183 5.0896 -1.8495 0.9783
-1.0993 5.0535 -1.8494 0.9783
-1.2790 5.0109 -1.8494 0.9783
-1.4570 4.9620 -1.8494 0.9783
-1.6331 4.9068 -1.8493 0.9783
-1.9790 4.7776 -1.8493 0.9783
-2.3147 4.6242 -1.8492 0.9783
-2.4782 4.5385 -1.8492 0.9783
-2.6386 4.4471 -1.8492 0.9783
-3.8024 4.0841 -1.9955 0.9766
-4.0935 3.8112 -2.0001 0.9765
-4.2291 3.6645 -2.0011 0.9765
-4.3571 3.5112 -2.0011 0.9765
-4.4797 3.3534 -2.0011 0.9765
-4.5965 3.1914 -2.0011 0.9765
-4.7074 3.0253 -2.0011 0.9765
-4.9111 2.6817 -2.0010 0.9765
-5.0037 2.5047 -2.0010 0.9765
-5.2426 1.9554 -2.0010 0.9765
-5.3687 1.5764 -2.0010 0.9765
-5.4675 1.1894 -2.0009 0.9765
-5.5064 0.9934 -2.0009 0.9765
-5.5384 0.7963 -2.0009 0.9765
-5.5810 0.3992 -2.0009 0.9765
5.1726 0.7437 -2.0026 0.9779
5.1063 1.1108 -2.0026 0.9779
5.0140 1.4722 -2.0026 0.9779
4.9583 1.6502 -2.0026 0.9779
4.8278 1.9998 -2.0026 0.9779
4.5863 2.5043 -2.0025 0.9779
4.2923 2.9802 -2.0025 0.9779
4.1831 3.1314 -2.0025 0.9779
4.0686 3.2787 -2.0024 0.9779
3.2700 4.0578 -1.9971 0.9779
3.1201 4.1679 -1.9952 0.9779
2.7075 4.2129 -1.9191 0.9788
2.5039 4.2201 -1.8804 0.9792
2.3135 4.2369 -1.8500 0.9795
2.0053 4.3911 -1.8499 0.9795
1.8473 4.4598 -1.8499 0.9795
1.3599 4.6315 -1.8498 0.9795
1.1937 4.6770 -1.8498 0.9795
1.0260 4.7166 -1.8498 0.9795
0.5159 4.7990 -1.8497 0.9795
0.3443 4.8143 -1.8497 0.9795
-0.1723 4.8233 -1.8496 0.9795
-0.3443 4.8140 -1.8495 0.9795
-0.6868 4.7771 -1.8495 0.9795
-0.8569 4.7495 -1.8495 0.9795
-1.1935 4.6761 -1.8494 0.9795
-1.3596 4.6304 -1.8494 0.9795
-1.8467 4.4584 -1.8493 0.9795
-2.0046 4.3896 -1.8493 0.9795
-2.1600 4.3152 -1.8493 0.9795
-2.7071 4.2122 -1.9188 0.9788
-3.2683 4.0557 -1.9961 0.9779
-3.5564 3.8198 -2.0000 0.9779
-4.2894 2.9782 -2.0011 0.9779
-4.3929 2.8231 -2.0011 0.9779
-4.4908 2.6645 -2.0011 0.9779
-4.7498 2.1692 -2.0010 0.9779
-4.8924 1.8248 -2.0010 0.9779
-4.9544 1.6490 -2.0010 0.9779
-5.0101 1.4711 -2.0010 0.9779
-5.0594 1.2913 -2.0010 0.9779
-5.1022 1.1099 -2.0010 0.9779
-5.1386 0.9271 -2.0010 0.9779
-5.2082 0.3725 -2.0010 0.9779
-5.2182 0.1864 -2.0010 0.9779
4.8929 -0.0000 -2.0026 0.9791
4.8898 0.1746 -2.0026 0.9791
4.8805 0.3490 -2.0026 0.9791
4.8431 0.6963 -2.0026 0.9791
4.7409 1.2100 -2.0025 0.9791
4.6947 1.3785 -2.0025 0.9791
4.6425 1.5451 -2.0025 0.9791
4.5843 1.7099 -2.0025 0.9791
4.5204 1.8724 -2.0025 0.9791
4.4506 2.0325 -2.0025 0.9791
4.3752 2.1901 -2.0025 0.9791
4.2942 2.3448 -2.0025 0.9791
4.2078 2.4966 -2.0025 0.9791
4.1160 2.6452 -2.0024 0.9791
3.9167 2.9320 -2.0024 0.9791
3.8095 3.0699 -2.0024 0.9791
3.6975 3.2039 -2.0024 0.9791
3.5808 3.3338 -2.0024 0.9791
3.3337 3.5807 -2.0023 0.9791
3.2038 3.6973 -2.0023 0.9791
3.0682 3.8074 -2.0013 0.9791
2.9278 3.9110 -1.9995 0.9791
2.7840 4.0097 -1.9978 0.9791
2.6369 4.1032 -1.9962 0.9791
2.4869 4.1915 -1.9947 0.9792
2.2962 4.2051 -1.9609 0.9795
1.9258 4.2168 -1.8973 0.9802
1.7488 4.2218 -1.8703 0.9804
1.5795 4.2348 -1.8498 0.9807
0.9607 4.4163 -1.8497 0.9807
0.6432 4.4734 -1.8497 0.9807
0.4831 4.4935 -1.8497 0.9807
0.3224 4.5078 -1.8496 0.9807
0.1613 4.5164 -1.8496 0.9807
-0.1613 4.5163 -1.8496 0.9807
-0.3224 4.5076 -1.8495 0.9807
-0.6431 4.4730 -1.8495 0.9807
-0.8023 4.4471 -1.8495 0.9807
-1.1175 4.3784 -1.8494 0.9807
-1.2731 4.3357 -1.8494 0.9807
-1.4270 4.2874 -1.8494 0.9807
-1.5791 4.2337 -1.8493 0.9807
-2.1078 4.2107 -1.9272 0.9799
-2.2958 4.2045 -1.9606 0.9795
-2.4860 4.1898 -1.9939 0.9792
-2.6359 4.1015 -1.9954 0.9791
-2.7828 4.0079 -1.9970 0.9791
-3.0668 3.8056 -2.0003 0.9791
-3.3320 3.5788 -2.0013 0.9791
-3.5787 3.3319 -2.0012 0.9791
-3.8072 3.0681 -2.0012 0.9791
-4.0164 2.7886 -2.0012 0.9791
-4.2913 2.3433 -2.0011 0.9791
-4.3722 2.1886 -2.0011 0.9791
-4.5810 1.7086 -2.0011 0.9791
-4.6391 1.5440 -2.0011 0.9791
-4.7775 1.0393 -2.0010 0.9791
-2.1703 0.3916 -0.9026 0.9905
-1.9449 0.2796 -0.8042 0.9915
-1.9569 0.2104 -0.8055 0.9915
-1.9524 0.1396 -0.8011 0.9916
4.5919 0.1640 -2.0025 0.9802
4.5218 0.8158 -2.0025 0.9802
4.4898 0.9767 -2.0025 0.9802
4.3596 1.4510 -2.0025 0.9802
4.3050 1.6057 -2.0025 0.9802
4.2450 1.7583 -2.0025 0.9802
4.1087 2.0567 -2.0024 0.9802
3.8652 2.4840 -2.0024 0.9802
3.7741 2.6204 -2.0024 0.9802
3.3626 3.1307 -2.0023 0.9802
3.0086 3.4721 -2.0023 0.9802
2.4814 3.8611 -2.0003 0.9802
1.9017 4.1641 -1.9951 0.9802
1.7402 4.2012 -1.9818 0.9804
1.5687 4.2059 -1.9563 0.9806
1.4012 4.2100 -1.9338 0.9808
1.2373 4.2137 -1.9139 0.9810
0.7617 4.2218 -1.8696 0.9815
0.6073 4.2236 -1.8597 0.9816
0.4546 4.2281 -1.8533 0.9816
-0.4546 4.2279 -1.8532 0.9816
-0.6073 4.2235 -1.8596 0.9816
-0.7617 4.2216 -1.8696 0.9815
-0.9179 4.2193 -1.8819 0.9813
-1.0762 4.2166 -1.8966 0.9812
-1.4011 4.2096 -1.9336 0.9808
-1.5686 4.2054 -1.9561 0.9806
-1.7400 4.2007 -1.9816 0.9804
-1.9011 4.1629 -1.9945 0.9802
-2.0496 4.0947 -1.9956 0.9802
-2.7520 3.6762 -2.0014 0.9802
-3.0072 3.4705 -2.0013 0.9802
-3.1291 3.3609 -2.0013 0.9802
-3.6760 2.7518 -2.0012 0.9802
-3.7718 2.6188 -2.0012 0.9802
-4.1060 2.0553 -2.0011 0.9802
-4.2421 1.7572 -2.0011 0.9802
-1.5984 0.5962 -0.7435 0.9926
-1.5875 0.5284 -0.7292 0.9927
-1.5151 0.2178 -0.6671 0.9933
4.3261 -0.0000 -2.0025 0.9811
4.3233 0.1544 -2.0025 0.9811
4.3150 0.3086 -2.0025 0.9811
4.2272 0.9196 -2.0025 0.9811
4.1508 1.2188 -2.0024 0.9811
4.1046 1.3661 -2.0024 0.9811
4.0532 1.5118 -2.0024 0.9811
3.7203 2.2074 -2.0024 0.9811
3.6391 2.3387 -2.0024 0.9811
3.5533 2.4671 -2.0024 0.9811
3.1659 2.9476 -2.0023 0.9811
2.8326 3.2690 -2.0022 0.9811
2.7141 3.3680 -2.0022 0.9811
2.3385 3.6388 -2.0022 0.9811
1.9342 3.8640 -2.0002 0.9811
1.7940 3.9284 -1.9990 0.9811
1.2145 4.1362 -1.9954 0.9812
1.0657 4.1755 -1.9947 0.9812
0.9136 4.1997 -1.9894 0.9812
0.4521 4.2054 -1.9579 0.9815
0.3008 4.2065 -1.9521 0.9816
0.1502 4.2071 -1.9486 0.9816
-0.0000 4.2073 -1.9475 0.9816
-0.4521 4.2053 -1.9578 0.9815
-0.6044 4.2038 -1.9659 0.9815
-0.7581 4.2018 -1.9764 0.9814
-0.9135 4.1994 -1.9893 0.9812
-1.0656 4.1748 -1.9944 0.9812
-1.3616 4.0910 -1.9958 0.9812
-1.6514 3.9868 -1.9975 0.9812
-2.2063 3.7186 -2.0014 0.9811
-2.7130 3.3666 -2.0014 0.9811
-2.8314 3.2676 -2.0014 0.9811
-2.9462 3.1644 -2.0013 0.9811
-3.0572 3.0572 -2.0013 0.9811
-3.1644 2.9461 -2.0013 0.9811
-3.2675 2.8313 -2.0013 0.9811
-3.3664 2.7128 -2.0013 0.9811
-3.4611 2.5909 -2.0013 0.9811
-3.5513 2.4657 -2.0012 0.9811
-3.6371 2.3374 -2.0012 0.9811
-3.7181 2.2061 -2.0012 0.9811
-1.3150 0.6006 -0.6692 0.9936
-1.3263 0.5494 -0.6645 0.9937
-1.3324 0.4969 -0.6582 0.9938
-1.3013 0.2831 -0.6164 0.9941
-1.3273 0.1908 -0.6207 0.9941
-1.3351 0.1435 -0.6215 0.9941
-1.3384 0.0957 -0.6211 0.9941
-1.3376 0.0478 -0.6195 0.9941
4.0822 -0.0000 -2.0024 0.9820
4.0796 0.1457 -2.0024 0.9820
4.0718 0.2912 -2.0024 0.9820
4.0588 0.4364 -2.0024 0.9820
4.0407 0.5809 -2.0024 0.9820
4.0174 0.7248 -2.0024 0.9820
3.9889 0.8677 -2.0024 0.9820
3.9554 1.0095 -2.0024 0.9820
3.9168 1.1501 -2.0024 0.9820
3.8248 1.4266 -2.0024 0.9820
3.7132 1.6958 -2.0024 0.9820
3.6503 1.8272 -2.0024 0.9820
3.5828 1.9563 -2.0024 0.9820
3.4340 2.2069 -2.0023 0.9820
3.2678 2.4462 -2.0023 0.9820
3.1784 2.5613 -2.0023 0.9820
3.0849 2.6731 -2.0023 0.9820
2.9875 2.7815 -2.0023 0.9820
2.8863 2.8863 -2.0022 0.9820
2.7814 2.9875 -2.0022 0.9820
2.6730 3.0848 -2.0022 0.9820
2.3279 3.3528 -2.0022 0.9820
1.9561 3.5823 -2.0021 0.9820
1.6955 3.7126 -2.0021 0.9820
1.4254 3.8217 -2.0008 0.9820
1.0076 3.9478 -1.9986 0.9820
0.8658 3.9802 -1.9980 0.9820
0.5794 4.0300 -1.9971 0.9820
0.2904 4.0599 -1.9966 0.9820
0.1453 4.0674 -1.9964 0.9820
-0.1453 4.0673 -1.9964 0.9820
-0.2904 4.0597 -1.9965 0.9820
-0.4351 4.0472 -1.9967 0.9820
-0.8657 3.9796 -1.9977 0.9820
-1.0075 3.9472 -1.9983 0.9820
-1.1481 3.9099 -1.9989 0.9820
-1.5612 3.7692 -2.0012 0.9820
-1.8264 3.6487 -2.0015 0.9820
-1.9555 3.5812 -2.0015 0.9820
-2.5601 3.1770 -2.0014 0.9820
-2.6719 3.0835 -2.0014 0.9820
-2.8850 2.8850 -2.0013 0.9820
-2.9861 2.7802 -2.0013 0.9820
-3.0834 2.6718 -2.0013 0.9820
-3.2661 2.4450 -2.0013 0.9820
-3.4322 2.2057 -2.0013 0.9820
-3.5087 2.0818 -2.0012 0.9820
-1.1113 0.6068 -0.6211 0.9944
-1.1291 0.5652 -0.6194 0.9944
-1.1400 0.5206 -0.6148 0.9944
-1.1484 0.4757 -0.6097 0.9945
-1.1578 0.3854 -0.5986 0.9946
-1.1791 0.2127 -0.5877 0.9947
-1.1867 0.1706 -0.5881 0.9947
-1.1921 0.1281 -0.5881 0.9947
-1.1953 0.0855 -0.5878 0.9947
-1.1965 0.0427 -0.5873 0.9947
3.8574 0.1377 -2.0024 0.9828
3.8377 0.4126 -2.0024 0.9828
3.8205 0.5493 -2.0024 0.9828
3.7985 0.6853 -2.0024 0.9828
3.7399 0.9546 -2.0024 0.9828
3.7034 1.0874 -2.0024 0.9828
3.6622 1.2189 -2.0024 0.9828
3.6164 1.3488 -2.0024 0.9828
3.5109 1.6034 -2.0023 0.9828
3.4514 1.7277 -2.0023 0.9828
3.3876 1.8497 -2.0023 0.9828
3.3194 1.9695 -2.0023 0.9828
2.4217 3.0051 -2.0022 0.9828
2.3128 3.0896 -2.0022 0.9828
2.2011 3.1701 -2.0021 0.9828
1.8495 3.3871 -2.0021 0.9828
1.7275 3.4510 -2.0021 0.9828
1.6031 3.5104 -2.0020 0.9828
1.4768 3.5653 -2.0020 0.9828
0.8201 3.7700 -2.0016 0.9828
0.5489 3.8173 -2.0007 0.9828
0.4122 3.8339 -2.0004 0.9828
-0.1376 3.8528 -2.0000 0.9828
-0.2750 3.8456 -2.0001 0.9828
-0.6848 3.7957 -2.0009 0.9828
-1.4765 3.5645 -2.0016 0.9828
-1.6027 3.5095 -2.0015 0.9828
-1.8490 3.3862 -2.0015 0.9828
-2.5264 2.9156 -2.0014 0.9828
-2.8235 2.6288 -2.0014 0.9828
-3.1688 2.2001 -2.0013 0.9828
-3.2453 2.0856 -2.0013 0.9828
-0.9917 0.5884 -0.5982 0.9948
-1.0118 0.5525 -0.5981 0.9948
-1.0298 0.5154 -0.5974 0.9948
-1.0430 0.4763 -0.5948 0.9948
-1.0514 0.4355 -0.5904 0.9949
-1.0576 0.3945 -0.5856 0.9949
-1.0704 0.2732 -0.5731 0.9950
-1.0814 0.2352 -0.5741 0.9950
-1.1024 0.1185 -0.5752 0.9950
-1.1055 0.0791 -0.5750 0.9950
-1.1066 0.0395 -0.5744 0.9950
3.6559 -0.0000 -2.0024 0.9835
3.6466 0.2608 -2.0024 0.9835
3.6187 0.5203 -2.0024 0.9835
3.5724 0.7771 -2.0024 0.9835
3.5423 0.9041 -2.0023 0.9835
3.4688 1.1545 -2.0023 0.9835
3.4254 1.2776 -2.0023 0.9835
3.3776 1.3990 -2.0023 0.9835
3.3255 1.5187 -2.0023 0.9835
3.1440 1.8654 -2.0023 0.9835
3.0754 1.9765 -2.0023 0.9835
3.0029 2.0850 -2.0023 0.9835
2.9266 2.1908 -2.0023 0.9835
2.3939 2.7627 -2.0022 0.9835
2.0848 3.0027 -2.0021 0.9835
1.8653 3.1437 -2.0021 0.9835
1.2774 3.4248 -2.0020 0.9835
1.1543 3.4682 -2.0020 0.9835
0.9039 3.5416 -2.0019 0.9835
0.7770 3.5716 -2.0019 0.9835
0.6490 3.5970 -2.0019 0.9835
0.5202 3.6178 -2.0019 0.9835
0.2607 3.6456 -2.0018 0.9835
0.1305 3.6526 -2.0018 0.9835
-0.1304 3.6525 -2.0018 0.9835
-0.5201 3.6175 -2.0017 0.9835
-0.6489 3.5966 -2.0017 0.9835
-0.7769 3.5711 -2.0017 0.9835
-1.1541 3.4675 -2.0016 0.9835
-1.3985 3.3763 -2.0016 0.9835
-1.6358 3.2679 -2.0015 0.9835
-1.9757 3.0742 -2.0015 0.9835
-2.0841 3.0017 -2.0015 0.9835
-2.5839 2.5839 -2.0014 0.9835
-2.6744 2.4900 -2.0014 0.9835
-2.7616 2.3929 -2.0014 0.9835
-2.8452 2.2928 -2.0013 0.9835
-2.9252 2.1898 -2.0013 0.9835
-0.8661 0.6013 -0.5775 0.9952
-0.8882 0.5708 -0.5782 0.9952
-0.9084 0.5390 -0.5785 0.9952
-0.9269 0.5061 -0.5784 0.9952
-0.9434 0.4722 -0.5778 0.9952
-0.9741 0.3633 -0.5694 0.9953
-1.0039 0.2184 -0.5627 0.9953
-1.0124 0.1826 -0.5634 0.9953
-1.0236 0.1101 -0.5639 0.9953
-1.0265 0.0734 -0.5637 0.9953
-1.0276 0.0367 -0.5632 0.9953
2.0320 0.0726 -1.1739 0.9907
2.0300 0.2919 -1.1841 0.9906
1.9616 0.5007 -1.1688 0.9907
1.9351 0.5682 -1.1644 0.9907
1.9033 0.6335 -1.1581 0.9908
1.8508 0.8452 -1.1747 0.9906
3.1012 1.5523 -2.0023 0.9841
2.9825 1.7696 -2.0023 0.9841
2.7762 2.0783 -2.0022 0.9841
2.7003 2.1760 -2.0022 0.9841
2.6209 2.2710 -2.0022 0.9841
2.5381 2.3631 -2.0022 0.9841
2.4522 2.4521 -2.0022 0.9841
2.3631 2.5381 -2.0022 0.9841
2.2709 2.6208 -2.0022 0.9841
2.1759 2.7002 -2.0021 0.9841
1.9777 2.8485 -2.0021 0.9841
1.8748 2.9172 -2.0021 0.9841
1.7695 2.9822 -2.0021 0.9841
1.6619 3.0435 -2.0021 0.9841
1.2118 3.2489 -2.0020 0.9841
0.8575 3.3597 -2.0019 0.9841
0.7371 3.3882 -2.0019 0.9841
0.6157 3.4123 -2.0019 0.9841
0.4935 3.4321 -2.0019 0.9841
0.2474 3.4584 -2.0018 0.9841
0.1238 3.4650 -2.0018 0.9841
-0.1238 3.4650 -2.0018 0.9841
-0.6156 3.4119 -2.0017 0.9841
-0.7370 3.3878 -2.0017 0.9841
-0.8574 3.3593 -2.0017 0.9841
-1.0949 3.2895 -2.0016 0.9841
-1.2115 3.2483 -2.0016 0.9841
-1.4402 3.1535 -2.0016 0.9841
-1.6614 3.0427 -2.0015 0.9841
-1.7690 2.9814 -2.0015 0.9841
-1.8742 2.9164 -2.0015 0.9841
-1.9771 2.8476 -2.0015 0.9841
-2.0775 2.7752 -2.0015 0.9841
-2.1752 2.6992 -2.0015 0.9841
-2.2701 2.6199 -2.0014 0.9841
-2.3622 2.5372 -2.0014 0.9841
-2.4512 2.4512 -2.0014 0.9841
-2.5371 2.3621 -2.0014 0.9841
-0.7846 0.5873 -0.5658 0.9955
-0.8178 0.5256 -0.5613 0.9955
-0.8687 0.4349 -0.5609 0.9955
-0.8941 0.3703 -0.5587 0.9955
-0.9011 0.3361 -0.5553 0.9956
-0.9057 0.3015 -0.5511 0.9956
-0.9430 0.1701 -0.5532 0.9956
-0.9565 0.0684 -0.5536 0.9956
