ply
format ascii 1.0
element vertex 719
property float32 x
property float32 y
property float32 z
property float32 I
end_header
-9.4669 -0.3381 -2.0024 0.9620
-9.4186 -1.0126 -2.0024 0.9620
-9.3765 -1.3481 -2.0024 0.9620
-9.2564 -2.0136 -2.0024 0.9620
-9.1786 -2.3427 -2.0024 0.9620
-9.0891 -2.6688 -2.0024 0.9620
-8.6167 -3.9351 -2.0023 0.9620
-8.4707 -4.2402 -2.0023 0.9620
-8.1466 -4.8336 -2.0023 0.9620
-6.4545 -6.9327 -2.0022 0.9620
-6.2029 -7.1586 -2.0022 0.9620
-5.9434 -7.3754 -2.0022 0.9620
-5.6764 -7.5828 -2.0022 0.9620
-5.4021 -7.7805 -2.0022 0.9620
-5.1209 -7.9683 -2.0022 0.9620
-4.8332 -8.1459 -2.0022 0.9620
-4.5393 -8.3132 -2.0021 0.9620
-4.2397 -8.4698 -2.0021 0.9620
-3.9346 -8.6157 -2.0021 0.9620
-2.9911 -8.9867 -2.0021 0.9620
-2.6684 -9.0876 -2.0020 0.9620
-2.3423 -9.1770 -2.0020 0.9620
-1.3479 -9.3745 -2.0020 0.9620
-0.6756 -9.4466 -2.0019 0.9620
0.0000 -9.4706 -2.0019 0.9620
0.6756 -9.4463 -2.0019 0.9620
1.3478 -9.3739 -2.0018 0.9620
1.6815 -9.3197 -2.0018 0.9620
2.0130 -9.2537 -2.0018 0.9620
2.3420 -9.1758 -2.0018 0.9620
2.6680 -9.0863 -2.0017 0.9620
2.9906 -8.9852 -2.0017 0.9620
3.3093 -8.8727 -2.0017 0.9620
3.6239 -8.7488 -2.0017 0.9620
3.9338 -8.6138 -2.0017 0.9620
4.5382 -8.3111 -2.0016 0.9620
5.1195 -7.9660 -2.0016 0.9620
5.6746 -7.5804 -2.0016 0.9620
5.9415 -7.3730 -2.0016 0.9620
6.4523 -6.9302 -2.0015 0.9620
6.9301 -6.4522 -2.0015 0.9620
7.1560 -6.2007 -2.0015 0.9620
7.3727 -5.9413 -2.0015 0.9620
7.7776 -5.4001 -2.0015 0.9620
8.1430 -4.8315 -2.0014 0.9620
8.4668 -4.2382 -2.0014 0.9620
8.8712 -3.3088 -2.0014 0.9620
8.9836 -2.9900 -2.0014 0.9620
9.0846 -2.6675 -2.0014 0.9620
9.3717 -1.3475 -2.0014 0.9620
-8.5143 -0.3041 -2.0023 0.9656
-8.4330 -1.2125 -2.0023 0.9656
-8.3843 -1.5127 -2.0023 0.9656
-8.0837 -2.6905 -2.0023 0.9656
-7.9825 -2.9773 -2.0023 0.9656
-7.8711 -3.2603 -2.0023 0.9656
-7.7497 -3.5392 -2.0023 0.9656
-7.6184 -3.8135 -2.0023 0.9656
-7.4774 -4.0830 -2.0023 0.9656
-7.3269 -4.3473 -2.0023 0.9656
-7.1670 -4.6060 -2.0023 0.9656
-6.8201 -5.1055 -2.0023 0.9656
-6.0240 -6.0240 -2.0022 0.9656
-5.3454 -6.6333 -2.0022 0.9656
-4.6057 -7.1666 -2.0021 0.9656
-4.3469 -7.3263 -2.0021 0.9656
-3.5388 -7.7489 -2.0021 0.9656
-3.2599 -7.8702 -2.0021 0.9656
-2.6901 -8.0826 -2.0020 0.9656
-2.3999 -8.1733 -2.0020 0.9656
-1.2122 -8.4314 -2.0020 0.9656
0.0000 -8.5179 -2.0019 0.9656
0.3040 -8.5123 -2.0019 0.9656
0.9105 -8.4688 -2.0018 0.9656
1.2122 -8.4309 -2.0018 0.9656
1.5123 -8.3822 -2.0018 0.9656
1.8105 -8.3228 -2.0018 0.9656
2.1064 -8.2528 -2.0018 0.9656
2.3996 -8.1723 -2.0018 0.9656
2.9764 -7.9802 -2.0017 0.9656
3.2594 -7.8688 -2.0017 0.9656
4.3459 -7.3246 -2.0016 0.9656
4.6045 -7.1647 -2.0016 0.9656
4.8573 -6.9958 -2.0016 0.9656
6.0220 -6.0220 -2.0016 0.9656
6.4362 -5.5770 -2.0015 0.9656
6.6311 -5.3437 -2.0015 0.9656
6.9954 -4.8570 -2.0015 0.9656
7.6152 -3.8119 -2.0015 0.9656
7.8677 -3.2589 -2.0014 0.9656
7.9790 -2.9760 -2.0014 0.9656
8.0801 -2.6893 -2.0014 0.9656
8.1709 -2.3992 -2.0014 0.9656
8.3212 -1.8102 -2.0014 0.9656
8.4291 -1.2119 -2.0014 0.9656
8.4670 -0.9103 -2.0014 0.9656
8.4941 -0.6075 -2.0014 0.9656
8.5103 -0.3039 -2.0014 0.9656
-7.7136 -0.5517 -2.0023 0.9686
-7.4200 -2.1787 -2.0023 0.9686
-7.3375 -2.4422 -2.0023 0.9686
-7.0344 -3.2125 -2.0023 0.9686
-6.6506 -3.9460 -2.0022 0.9686
-6.5055 -4.1808 -2.0022 0.9686
-6.3521 -4.4103 -2.0022 0.9686
-5.8442 -5.0640 -2.0022 0.9686
-5.6597 -5.2693 -2.0022 0.9686
-5.4680 -5.4680 -2.0022 0.9686
-4.8521 -6.0211 -2.0021 0.9686
-4.4101 -6.3518 -2.0021 0.9686
-4.1806 -6.5051 -2.0021 0.9686
-3.4612 -6.9146 -2.0021 0.9686
-2.7022 -7.2448 -2.0020 0.9686
-2.4418 -7.3366 -2.0020 0.9686
-2.1784 -7.4190 -2.0020 0.9686
-1.9122 -7.4920 -2.0020 0.9686
-0.8265 -7.6876 -2.0019 0.9686
1.3728 -7.6086 -2.0018 0.9686
1.6434 -7.5547 -2.0018 0.9686
2.1782 -7.4181 -2.0018 0.9686
2.7018 -7.2437 -2.0017 0.9686
2.9586 -7.1426 -2.0017 0.9686
3.2116 -7.0324 -2.0017 0.9686
3.4605 -6.9133 -2.0017 0.9686
3.7051 -6.7853 -2.0017 0.9686
4.4091 -6.3502 -2.0016 0.9686
4.6329 -6.1888 -2.0016 0.9686
5.2678 -5.6580 -2.0016 0.9686
5.4663 -5.4663 -2.0016 0.9686
5.6579 -5.2677 -2.0016 0.9686
5.8423 -5.0624 -2.0016 0.9686
6.0192 -4.8506 -2.0015 0.9686
6.5032 -4.1793 -2.0015 0.9686
6.9126 -3.4602 -2.0015 0.9686
7.0317 -3.2112 -2.0015 0.9686
7.1418 -2.9582 -2.0015 0.9686
7.4170 -2.1778 -2.0015 0.9686
7.4900 -1.9117 -2.0015 0.9686
7.6072 -1.3725 -2.0014 0.9686
7.6514 -1.1001 -2.0014 0.9686
7.7251 -0.2759 -2.0014 0.9686
-7.0683 -0.2524 -2.0023 0.9710
-6.9111 -1.5034 -2.0022 0.9710
-6.8530 -1.7492 -2.0022 0.9710
-6.7862 -1.9926 -2.0022 0.9710
-6.7108 -2.2336 -2.0022 0.9710
-6.4335 -2.9381 -2.0022 0.9710
-6.3246 -3.1659 -2.0022 0.9710
-6.2075 -3.3896 -2.0022 0.9710
-5.3450 -4.6315 -2.0022 0.9710
-4.8193 -5.1763 -2.0021 0.9710
-4.6314 -5.3449 -2.0021 0.9710
-4.0335 -5.8093 -2.0021 0.9710
-3.8235 -5.9495 -2.0021 0.9710
-3.6087 -6.0822 -2.0021 0.9710
-3.3893 -6.2071 -2.0021 0.9710
-2.9378 -6.4330 -2.0020 0.9710
-2.4714 -6.6261 -2.0020 0.9710
-1.9924 -6.7854 -2.0020 0.9710
-1.2556 -6.9594 -2.0020 0.9710
-1.0064 -6.9997 -2.0019 0.9710
0.2524 -7.0669 -2.0019 0.9710
0.5045 -7.0534 -2.0019 0.9710
0.7559 -7.0308 -2.0018 0.9710
1.5031 -6.9096 -2.0018 0.9710
1.7487 -6.8515 -2.0018 0.9710
2.2330 -6.7092 -2.0018 0.9710
2.4711 -6.6252 -2.0017 0.9710
2.7059 -6.5327 -2.0017 0.9710
2.9374 -6.4319 -2.0017 0.9710
3.1650 -6.3229 -2.0017 0.9710
3.8227 -5.9483 -2.0017 0.9710
4.0326 -5.8080 -2.0017 0.9710
4.4366 -5.5055 -2.0016 0.9710
4.8180 -5.1749 -2.0016 0.9710
5.3435 -4.6301 -2.0016 0.9710
5.8077 -4.0324 -2.0016 0.9710
5.9479 -3.8225 -2.0015 0.9710
6.0805 -3.6077 -2.0015 0.9710
6.2054 -3.3884 -2.0015 0.9710
6.4313 -2.9371 -2.0015 0.9710
6.5320 -2.7056 -2.0015 0.9710
6.7837 -1.9919 -2.0015 0.9710
6.9085 -1.5029 -2.0015 0.9710
6.9981 -1.0062 -2.0015 0.9710
7.0520 -0.5044 -2.0015 0.9710
7.0655 -0.2524 -2.0015 0.9710
-6.5096 -0.0000 -2.0022 0.9731
-6.5055 -0.2324 -2.0022 0.9731
-6.4433 -0.9264 -2.0022 0.9731
-6.4062 -1.1558 -2.0022 0.9731
-6.3608 -1.3837 -2.0022 0.9731
-6.1765 -2.0557 -2.0022 0.9731
-6.0141 -2.4911 -2.0022 0.9731
-5.7133 -3.1197 -2.0022 0.9731
-5.5983 -3.3216 -2.0022 0.9731
-5.2111 -3.9010 -2.0022 0.9731
-5.0685 -4.0845 -2.0022 0.9731
-4.9195 -4.2628 -2.0021 0.9731
-4.6028 -4.6028 -2.0021 0.9731
-4.4356 -4.7641 -2.0021 0.9731
-4.0843 -5.0684 -2.0021 0.9731
-3.9008 -5.2109 -2.0021 0.9731
-3.7123 -5.3468 -2.0021 0.9731
-3.1195 -5.7129 -2.0021 0.9731
-2.7039 -5.9208 -2.0020 0.9731
-2.2746 -6.0985 -2.0020 0.9731
-1.3835 -6.3600 -2.0020 0.9731
-1.1556 -6.4053 -2.0019 0.9731
-0.9263 -6.4425 -2.0019 0.9731
-0.4643 -6.4920 -2.0019 0.9731
-0.2323 -6.5044 -2.0019 0.9731
0.0000 -6.5085 -2.0019 0.9731
0.2323 -6.5044 -2.0019 0.9731
0.9262 -6.4421 -2.0018 0.9731
1.1556 -6.4049 -2.0018 0.9731
1.6095 -6.3061 -2.0018 0.9731
1.8336 -6.2446 -2.0018 0.9731
2.0553 -6.1751 -2.0018 0.9731
2.2744 -6.0978 -2.0018 0.9731
2.4905 -6.0127 -2.0017 0.9731
2.9131 -5.8196 -2.0017 0.9731
3.3208 -5.5969 -2.0017 0.9731
3.5184 -5.4748 -2.0017 0.9731
4.0834 -5.0673 -2.0017 0.9731
4.4345 -4.7630 -2.0016 0.9731
4.7629 -4.4344 -2.0016 0.9731
5.0671 -4.0833 -2.0016 0.9731
5.3454 -3.7114 -2.0016 0.9731
5.4745 -3.5182 -2.0016 0.9731
5.5965 -3.3206 -2.0016 0.9731
5.7115 -3.1187 -2.0016 0.9731
6.0121 -2.4903 -2.0015 0.9731
6.2438 -1.8333 -2.0015 0.9731
6.3052 -1.6093 -2.0015 0.9731
6.3586 -1.3832 -2.0015 0.9731
6.4700 -0.6956 -2.0015 0.9731
6.4907 -0.4642 -2.0015 0.9731
6.5032 -0.2323 -2.0015 0.9731
-6.0195 -0.2150 -2.0022 0.9749
-6.0080 -0.4297 -2.0022 0.9749
-5.9276 -1.0695 -2.0022 0.9749
-5.8857 -1.2804 -2.0022 0.9749
-5.8362 -1.4896 -2.0022 0.9749
-5.6435 -2.1049 -2.0022 0.9749
-5.5648 -2.3050 -2.0022 0.9749
-5.4790 -2.5022 -2.0022 0.9749
-5.3862 -2.6961 -2.0022 0.9749
-5.2865 -2.8866 -2.0022 0.9749
-4.6899 -3.7794 -2.0021 0.9749
-4.5520 -3.9443 -2.0021 0.9749
-4.2590 -4.2590 -2.0021 0.9749
-3.6094 -4.8217 -2.0021 0.9749
-3.0733 -5.1798 -2.0020 0.9749
-2.8864 -5.2862 -2.0020 0.9749
-2.6959 -5.3858 -2.0020 0.9749
-2.5020 -5.4786 -2.0020 0.9749
-2.3048 -5.5643 -2.0020 0.9749
-1.0693 -5.9269 -2.0019 0.9749
-0.2149 -6.0186 -2.0019 0.9749
0.2150 -6.0185 -2.0019 0.9749
0.8571 -5.9610 -2.0018 0.9749
1.2801 -5.8846 -2.0018 0.9749
1.4893 -5.8351 -2.0018 0.9749
1.6966 -5.7782 -2.0018 0.9749
1.9018 -5.7139 -2.0018 0.9749
2.3045 -5.5636 -2.0018 0.9749
2.5016 -5.4778 -2.0017 0.9749
2.8860 -5.2853 -2.0017 0.9749
3.2557 -5.0659 -2.0017 0.9749
3.4344 -4.9465 -2.0017 0.9749
3.9434 -4.5509 -2.0017 0.9749
4.1033 -4.4073 -2.0017 0.9749
4.4072 -4.1033 -2.0016 0.9749
4.5509 -3.9433 -2.0016 0.9749
5.0657 -3.2555 -2.0016 0.9749
5.1786 -3.0726 -2.0016 0.9749
5.6418 -2.1043 -2.0016 0.9749
5.7775 -1.6964 -2.0016 0.9749
5.8344 -1.4891 -2.0015 0.9749
5.9601 -0.8569 -2.0015 0.9749
6.0175 -0.2149 -2.0015 0.9749
-5.5988 0.0000 -2.0022 0.9765
-5.5952 -0.1999 -2.0022 0.9765
-5.5845 -0.3994 -2.0022 0.9765
-5.5418 -0.7968 -2.0022 0.9765
-5.3720 -1.5774 -2.0022 0.9765
-5.3123 -1.7681 -2.0022 0.9765
-5.1726 -2.1425 -2.0022 0.9765
-5.0065 -2.5061 -2.0021 0.9765
-4.8150 -2.8569 -2.0021 0.9765
-4.5989 -3.1931 -2.0021 0.9765
-4.4820 -3.3552 -2.0021 0.9765
-4.3593 -3.5130 -2.0021 0.9765
-4.2312 -3.6663 -2.0021 0.9765
-3.8150 -4.0976 -2.0021 0.9765
-3.5129 -4.3592 -2.0021 0.9765
-3.3550 -4.4818 -2.0021 0.9765
-3.1929 -4.5987 -2.0021 0.9765
-2.8567 -4.8147 -2.0020 0.9765
-2.3256 -5.0924 -2.0020 0.9765
-1.5772 -5.3715 -2.0020 0.9765
-1.3845 -5.4243 -2.0020 0.9765
-0.9940 -5.5092 -2.0019 0.9765
-0.3994 -5.5838 -2.0019 0.9765
-0.1998 -5.5945 -2.0019 0.9765
0.0000 -5.5980 -2.0019 0.9765
0.1998 -5.5944 -2.0019 0.9765
0.5984 -5.5658 -2.0018 0.9765
1.3844 -5.4239 -2.0018 0.9765
1.7678 -5.3113 -2.0018 0.9765
1.9562 -5.2447 -2.0018 0.9765
2.1421 -5.1716 -2.0018 0.9765
2.3253 -5.0918 -2.0018 0.9765
2.5056 -5.0055 -2.0017 0.9765
3.0262 -4.7089 -2.0017 0.9765
3.3544 -4.4810 -2.0017 0.9765
3.8142 -4.0967 -2.0017 0.9765
3.9579 -3.9579 -2.0017 0.9765
4.0967 -3.8141 -2.0017 0.9765
4.2302 -3.6655 -2.0016 0.9765
4.4808 -3.3543 -2.0016 0.9765
4.5977 -3.1922 -2.0016 0.9765
4.7087 -3.0261 -2.0016 0.9765
4.8137 -2.8561 -2.0016 0.9765
5.0052 -2.5054 -2.0016 0.9765
5.3107 -1.7676 -2.0016 0.9765
5.5401 -0.7965 -2.0016 0.9765
5.5828 -0.3993 -2.0016 0.9765
5.5935 -0.1998 -2.0016 0.9765
-5.2246 -0.0000 -2.0021 0.9779
-5.2212 -0.1865 -2.0021 0.9779
-5.2112 -0.3727 -2.0021 0.9779
-5.1946 -0.5585 -2.0021 0.9779
-5.1415 -0.9277 -2.0021 0.9779
-4.9572 -1.6499 -2.0021 0.9779
-4.8951 -1.8258 -2.0021 0.9779
-4.7524 -2.1704 -2.0021 0.9779
-4.6719 -2.3386 -2.0021 0.9779
-4.5854 -2.5038 -2.0021 0.9779
-4.3951 -2.8246 -2.0021 0.9779
-4.0680 -3.2782 -2.0021 0.9779
-3.8237 -3.5600 -2.0021 0.9779
-3.5600 -3.8237 -2.0021 0.9779
-3.2781 -4.0679 -2.0021 0.9779
-3.1308 -4.1823 -2.0020 0.9779
-2.9795 -4.2913 -2.0020 0.9779
-2.6658 -4.4929 -2.0020 0.9779
-2.5037 -4.5852 -2.0020 0.9779
-2.3384 -4.6716 -2.0020 0.9779
-2.1702 -4.7521 -2.0020 0.9779
-1.9992 -4.8265 -2.0020 0.9779
-1.8256 -4.8947 -2.0020 0.9779
-1.2919 -5.0618 -2.0020 0.9779
-0.7434 -5.1708 -2.0019 0.9779
-0.5584 -5.1940 -2.0019 0.9779
-0.3727 -5.2106 -2.0019 0.9779
-0.1864 -5.2206 -2.0019 0.9779
0.3727 -5.2105 -2.0019 0.9779
0.5584 -5.1939 -2.0018 0.9779
0.7434 -5.1706 -2.0018 0.9779
0.9275 -5.1407 -2.0018 0.9779
1.6496 -4.9563 -2.0018 0.9779
1.9990 -4.8260 -2.0018 0.9779
2.3381 -4.6710 -2.0018 0.9779
2.5034 -4.5846 -2.0017 0.9779
2.6654 -4.4923 -2.0017 0.9779
2.9791 -4.2906 -2.0017 0.9779
3.2775 -4.0672 -2.0017 0.9779
3.6935 -3.6934 -2.0017 0.9779
3.8229 -3.5592 -2.0017 0.9779
3.9475 -3.4205 -2.0017 0.9779
4.0671 -3.2775 -2.0017 0.9779
4.1814 -3.1302 -2.0016 0.9779
4.2905 -2.9789 -2.0016 0.9779
4.3941 -2.8239 -2.0016 0.9779
4.4920 -2.6652 -2.0016 0.9779
4.5843 -2.5032 -2.0016 0.9779
4.6707 -2.3380 -2.0016 0.9779
4.8256 -1.9988 -2.0016 0.9779
4.8938 -1.8253 -2.0016 0.9779
4.9558 -1.6495 -2.0016 0.9779
5.1037 -1.1103 -2.0016 0.9779
5.1699 -0.7433 -2.0016 0.9779
5.1932 -0.5583 -2.0016 0.9779
5.2098 -0.3726 -2.0016 0.9779
5.2198 -0.1864 -2.0016 0.9779
-1.8977 0.0000 -0.7767 0.9918
-1.9308 -0.0690 -0.7907 0.9917
-2.1703 -0.3916 -0.9026 0.9905
-4.7801 -1.0399 -2.0021 0.9791
-4.5195 -1.8720 -2.0021 0.9791
-4.4498 -2.0322 -2.0021 0.9791
-4.1152 -2.6447 -2.0021 0.9791
-4.0182 -2.7899 -2.0021 0.9791
-3.9161 -2.9316 -2.0021 0.9791
-3.5802 -3.3333 -2.0021 0.9791
-3.4590 -3.4590 -2.0021 0.9791
-3.3333 -3.5802 -2.0021 0.9791
-3.0694 -3.8089 -2.0020 0.9791
-2.6446 -4.1151 -2.0020 0.9791
-2.1896 -4.3742 -2.0020 0.9791
-1.7094 -4.5831 -2.0020 0.9791
-1.3781 -4.6933 -2.0020 0.9791
-1.2097 -4.7395 -2.0019 0.9791
-0.6961 -4.8416 -2.0019 0.9791
-0.3489 -4.8789 -2.0019 0.9791
0.1746 -4.8881 -2.0019 0.9791
0.3489 -4.8788 -2.0019 0.9791
0.8684 -4.8134 -2.0018 0.9791
1.0397 -4.7794 -2.0018 0.9791
1.2096 -4.7392 -2.0018 0.9791
1.3780 -4.6930 -2.0018 0.9791
1.5446 -4.6408 -2.0018 0.9791
1.8717 -4.5187 -2.0018 0.9791
2.1893 -4.3736 -2.0018 0.9791
2.6442 -4.1145 -2.0017 0.9791
2.7894 -4.0175 -2.0017 0.9791
3.0689 -3.8082 -2.0017 0.9791
3.9152 -2.9309 -2.0017 0.9791
4.0173 -2.7893 -2.0017 0.9791
4.2925 -2.3439 -2.0016 0.9791
4.4487 -2.0317 -2.0016 0.9791
4.5823 -1.7091 -2.0016 0.9791
4.6404 -1.5445 -2.0016 0.9791
4.6925 -1.3778 -2.0016 0.9791
4.8129 -0.8683 -2.0016 0.9791
4.8626 -0.5228 -2.0016 0.9791
4.8781 -0.3489 -2.0016 0.9791
-1.5284 -0.0546 -0.6665 0.9933
-1.5293 -0.1094 -0.6682 0.9933
-1.5151 -0.2179 -0.6671 0.9933
-1.5001 -0.2706 -0.6643 0.9934
-1.5214 -0.3310 -0.6786 0.9932
-1.5485 -0.3952 -0.6965 0.9931
-1.5875 -0.5284 -0.7292 0.9927
-4.2442 -1.7580 -2.0021 0.9802
-4.1788 -1.9084 -2.0021 0.9802
-4.1080 -2.0563 -2.0021 0.9802
-4.0319 -2.2016 -2.0021 0.9802
-3.8646 -2.4836 -2.0021 0.9802
-3.6776 -2.7530 -2.0021 0.9802
-3.4718 -3.0083 -2.0021 0.9802
-3.3622 -3.1303 -2.0021 0.9802
-3.0083 -3.4718 -2.0020 0.9802
-2.8824 -3.5769 -2.0020 0.9802
-2.2015 -4.0318 -2.0020 0.9802
-1.9083 -4.1785 -2.0020 0.9802
-1.7579 -4.2439 -2.0020 0.9802
-1.6053 -4.3040 -2.0020 0.9802
-1.4506 -4.3585 -2.0020 0.9802
-0.9764 -4.4885 -2.0019 0.9802
-0.4910 -4.5671 -2.0019 0.9802
-0.1639 -4.5905 -2.0019 0.9802
0.6537 -4.5466 -2.0018 0.9802
0.8156 -4.5203 -2.0018 0.9802
0.9764 -4.4883 -2.0018 0.9802
1.1359 -4.4506 -2.0018 0.9802
1.2941 -4.4072 -2.0018 0.9802
1.6052 -4.3036 -2.0018 0.9802
1.9081 -4.1781 -2.0018 0.9802
2.0560 -4.1073 -2.0018 0.9802
2.4832 -3.8639 -2.0017 0.9802
2.7525 -3.6769 -2.0017 0.9802
3.0078 -3.4712 -2.0017 0.9802
3.1298 -3.3616 -2.0017 0.9802
3.2477 -3.2477 -2.0017 0.9802
3.3616 -3.1297 -2.0017 0.9802
3.4711 -3.0077 -2.0017 0.9802
3.5763 -2.8819 -2.0017 0.9802
3.6768 -2.7524 -2.0017 0.9802
3.8638 -2.4831 -2.0017 0.9802
4.1778 -1.9079 -2.0016 0.9802
4.3033 -1.6050 -2.0016 0.9802
4.3578 -1.4504 -2.0016 0.9802
4.4878 -0.9763 -2.0016 0.9802
4.5461 -0.6536 -2.0016 0.9802
-1.3376 -0.0478 -0.6195 0.9941
-1.3351 -0.1435 -0.6215 0.9941
-1.3273 -0.1908 -0.6207 0.9941
-1.3116 -0.3348 -0.6266 0.9941
-1.3240 -0.3888 -0.6388 0.9939
-1.3324 -0.4435 -0.6500 0.9938
-1.3263 -0.5494 -0.6645 0.9937
-3.7197 -2.2070 -2.0021 0.9811
-3.6386 -2.3384 -2.0021 0.9811
-3.4625 -2.5920 -2.0021 0.9811
-3.3678 -2.7139 -2.0021 0.9811
-3.2687 -2.8324 -2.0021 0.9811
-3.1656 -2.9472 -2.0020 0.9811
-2.8323 -3.2687 -2.0020 0.9811
-2.5919 -3.4624 -2.0020 0.9811
-2.2069 -3.7196 -2.0020 0.9811
-2.0728 -3.7960 -2.0020 0.9811
-1.7967 -3.9342 -2.0020 0.9811
-1.6551 -3.9958 -2.0020 0.9811
-1.5114 -4.0523 -2.0020 0.9811
-1.3658 -4.1036 -2.0020 0.9811
-1.2185 -4.1497 -2.0019 0.9811
-0.9193 -4.2261 -2.0019 0.9811
-0.3085 -4.3138 -2.0019 0.9811
-0.1544 -4.3220 -2.0019 0.9811
0.0000 -4.3248 -2.0019 0.9811
0.1544 -4.3220 -2.0019 0.9811
0.3085 -4.3137 -2.0019 0.9811
0.4623 -4.3000 -2.0019 0.9811
0.6155 -4.2807 -2.0018 0.9811
0.7679 -4.2560 -2.0018 0.9811
0.9193 -4.2258 -2.0018 0.9811
1.2184 -4.1494 -2.0018 0.9811
1.6550 -3.9954 -2.0018 0.9811
1.7965 -3.9338 -2.0018 0.9811
1.9358 -3.8671 -2.0018 0.9811
2.3380 -3.6380 -2.0017 0.9811
2.5916 -3.4619 -2.0017 0.9811
2.8319 -3.2682 -2.0017 0.9811
2.9467 -3.1650 -2.0017 0.9811
3.0578 -3.0578 -2.0017 0.9811
3.1650 -2.9467 -2.0017 0.9811
3.2682 -2.8319 -2.0017 0.9811
3.4618 -2.5915 -2.0017 0.9811
3.6379 -2.3379 -2.0017 0.9811
3.8669 -1.9356 -2.0017 0.9811
3.9335 -1.7964 -2.0017 0.9811
4.0516 -1.5112 -2.0016 0.9811
4.1030 -1.3656 -2.0016 0.9811
4.1900 -1.0694 -2.0016 0.9811
4.2254 -0.9192 -2.0016 0.9811
4.2556 -0.7678 -2.0016 0.9811
4.3132 -0.3085 -2.0016 0.9811
-1.1954 0.0000 -0.5864 0.9947
-1.1964 -0.0427 -0.5873 0.9947
-1.1921 -0.1282 -0.5881 0.9947
-1.1791 -0.2127 -0.5877 0.9947
-1.1590 -0.3403 -0.5925 0.9946
-1.1543 -0.4305 -0.6043 0.9945
-1.1484 -0.4757 -0.6097 0.9945
-1.1113 -0.6068 -0.6211 0.9944
-3.5101 -2.0827 -2.0021 0.9820
-3.4335 -2.2066 -2.0021 0.9820
-3.3526 -2.3278 -2.0021 0.9820
-3.1780 -2.5610 -2.0020 0.9820
-2.9872 -2.7812 -2.0020 0.9820
-2.7811 -2.9872 -2.0020 0.9820
-2.6727 -3.0845 -2.0020 0.9820
-2.5609 -3.1779 -2.0020 0.9820
-2.4459 -3.2673 -2.0020 0.9820
-1.9560 -3.5821 -2.0020 0.9820
-1.8269 -3.6496 -2.0020 0.9820
-1.4262 -3.8239 -2.0020 0.9820
-1.2888 -3.8724 -2.0019 0.9820
-0.8675 -3.9879 -2.0019 0.9820
-0.2911 -4.0707 -2.0019 0.9820
0.0000 -4.0811 -2.0019 0.9820
0.1457 -4.0785 -2.0019 0.9820
0.2911 -4.0707 -2.0019 0.9820
0.4363 -4.0577 -2.0019 0.9820
0.5808 -4.0395 -2.0018 0.9820
0.7246 -4.0162 -2.0018 0.9820
0.8675 -3.9878 -2.0018 0.9820
1.1497 -3.9157 -2.0018 0.9820
1.2888 -3.8721 -2.0018 0.9820
1.4262 -3.8236 -2.0018 0.9820
1.6953 -3.7121 -2.0018 0.9820
2.3274 -3.3521 -2.0017 0.9820
2.6724 -3.0841 -2.0017 0.9820
2.8856 -2.8855 -2.0017 0.9820
3.0840 -2.6723 -2.0017 0.9820
3.1774 -2.5605 -2.0017 0.9820
3.5815 -1.9557 -2.0017 0.9820
3.6491 -1.8266 -2.0017 0.9820
3.7700 -1.5616 -2.0017 0.9820
3.8234 -1.4260 -2.0017 0.9820
3.8718 -1.2887 -2.0017 0.9820
3.9154 -1.1496 -2.0017 0.9820
4.0158 -0.7245 -2.0016 0.9820
4.0573 -0.4362 -2.0016 0.9820
-1.1058 0.0000 -0.5737 0.9950
-1.1055 -0.0791 -0.5750 0.9950
-1.0974 -0.1578 -0.5752 0.9950
-1.0617 -0.3534 -0.5805 0.9950
-1.0514 -0.4355 -0.5904 0.9949
-1.0118 -0.5525 -0.5981 0.9948
-3.2465 -2.0864 -2.0020 0.9828
-3.1700 -2.2010 -2.0020 0.9828
-3.0894 -2.3127 -2.0020 0.9828
-3.0049 -2.4215 -2.0020 0.9828
-2.9165 -2.5272 -2.0020 0.9828
-2.7288 -2.7288 -2.0020 0.9828
-2.6296 -2.8245 -2.0020 0.9828
-2.5272 -2.9165 -2.0020 0.9828
-1.4768 -3.5652 -2.0020 0.9828
-0.6852 -3.7976 -2.0019 0.9828
-0.2753 -3.8490 -2.0019 0.9828
-0.1377 -3.8564 -2.0019 0.9828
0.0000 -3.8588 -2.0019 0.9828
0.1377 -3.8564 -2.0019 0.9828
0.2753 -3.8489 -2.0019 0.9828
0.4125 -3.8367 -2.0019 0.9828
0.5492 -3.8195 -2.0018 0.9828
0.9543 -3.7389 -2.0018 0.9828
1.2186 -3.6612 -2.0018 0.9828
1.3485 -3.6154 -2.0018 0.9828
1.4767 -3.5649 -2.0018 0.9828
1.6029 -3.5100 -2.0018 0.9828
2.2006 -3.1695 -2.0018 0.9828
2.4211 -3.0044 -2.0017 0.9828
2.7284 -2.7284 -2.0017 0.9828
2.9161 -2.5268 -2.0017 0.9828
3.0889 -2.3123 -2.0017 0.9828
3.1694 -2.2006 -2.0017 0.9828
3.2459 -2.0860 -2.0017 0.9828
3.3183 -1.9689 -2.0017 0.9828
3.4503 -1.7271 -2.0017 0.9828
3.5098 -1.6029 -2.0017 0.9828
3.6152 -1.3484 -2.0017 0.9828
3.6610 -1.2185 -2.0017 0.9828
3.7021 -1.0870 -2.0017 0.9828
3.7385 -0.9542 -2.0017 0.9828
3.7702 -0.8202 -2.0017 0.9828
3.7971 -0.6851 -2.0017 0.9828
3.8191 -0.5491 -2.0017 0.9828
3.8363 -0.4125 -2.0017 0.9828
3.8559 -0.1377 -2.0017 0.9828
-1.0269 0.0000 -0.5625 0.9953
-1.0276 -0.0367 -0.5632 0.9953
-1.0265 -0.0734 -0.5637 0.9953
-1.0039 -0.2184 -0.5627 0.9953
-0.9938 -0.2536 -0.5618 0.9953
-0.9820 -0.2883 -0.5606 0.9953
-0.9785 -0.3257 -0.5648 0.9953
-0.9434 -0.4722 -0.5778 0.9952
-0.8881 -0.5708 -0.5782 0.9952
-2.6753 -2.4908 -2.0020 0.9835
-2.5847 -2.5847 -2.0020 0.9835
-2.2936 -2.8461 -2.0020 0.9835
-2.1905 -2.9262 -2.0020 0.9835
-1.9762 -3.0750 -2.0020 0.9835
-1.8652 -3.1435 -2.0020 0.9835
-1.7518 -3.2081 -2.0020 0.9835
-1.6361 -3.2686 -2.0020 0.9835
-1.3988 -3.3769 -2.0020 0.9835
-1.2774 -3.4247 -2.0019 0.9835
-0.5202 -3.6179 -2.0019 0.9835
-0.2607 -3.6458 -2.0019 0.9835
-0.1305 -3.6527 -2.0019 0.9835
0.0000 -3.6550 -2.0019 0.9835
0.2608 -3.6457 -2.0019 0.9835
0.3907 -3.6341 -2.0019 0.9835
0.5202 -3.6178 -2.0018 0.9835
0.6490 -3.5969 -2.0018 0.9835
1.2773 -3.4245 -2.0018 0.9835
1.3987 -3.3767 -2.0018 0.9835
1.5183 -3.3246 -2.0018 0.9835
1.6360 -3.2683 -2.0018 0.9835
1.9760 -3.0746 -2.0018 0.9835
2.1903 -2.9258 -2.0018 0.9835
2.2933 -2.8458 -2.0017 0.9835
2.3934 -2.7621 -2.0017 0.9835
2.4904 -2.6749 -2.0017 0.9835
2.8457 -2.2932 -2.0017 0.9835
2.9258 -2.1902 -2.0017 0.9835
3.0021 -2.0844 -2.0017 0.9835
3.1431 -1.8649 -2.0017 0.9835
3.4242 -1.2772 -2.0017 0.9835
3.4676 -1.1542 -2.0017 0.9835
3.5066 -1.0296 -2.0017 0.9835
3.5411 -0.9038 -2.0017 0.9835
3.5966 -0.6489 -2.0017 0.9835
-0.9575 -0.0342 -0.5532 0.9956
-0.9565 -0.0684 -0.5536 0.9956
-0.9537 -0.1025 -0.5538 0.9956
-0.9492 -0.1365 -0.5536 0.9956
-0.9352 -0.2035 -0.5526 0.9956
-0.9151 -0.2687 -0.5506 0.9956
-0.8941 -0.3703 -0.5587 0.9955
-0.8823 -0.4029 -0.5600 0.9955
-0.8534 -0.4660 -0.5614 0.9955
-0.8364 -0.4963 -0.5615 0.9955
-0.8178 -0.5256 -0.5613 0.9955
-0.7671 -0.6182 -0.5688 0.9955
-2.6206 -2.2708 -2.0020 0.9841
-2.4519 -2.4520 -2.0020 0.9841
-2.3629 -2.5379 -2.0020 0.9841
-2.2708 -2.6206 -2.0020 0.9841
-1.9776 -2.8483 -2.0020 0.9841
-1.6618 -3.0433 -2.0020 0.9841
-1.4404 -3.1541 -2.0020 0.9841
-1.3269 -3.2035 -2.0019 0.9841
-1.2117 -3.2488 -2.0019 0.9841
-0.7371 -3.3882 -2.0019 0.9841
-0.6156 -3.4123 -2.0019 0.9841
-0.4935 -3.4321 -2.0019 0.9841
-0.3706 -3.4475 -2.0019 0.9841
-0.2474 -3.4585 -2.0019 0.9841
-0.1237 -3.4651 -2.0019 0.9841
0.0000 -3.4674 -2.0019 0.9841
0.2474 -3.4585 -2.0019 0.9841
0.4935 -3.4320 -2.0018 0.9841
0.7370 -3.3880 -2.0018 0.9841
0.8575 -3.3596 -2.0018 0.9841
0.9768 -3.3268 -2.0018 0.9841
1.3269 -3.2033 -2.0018 0.9841
1.6617 -3.0431 -2.0018 0.9841
1.8745 -2.9168 -2.0018 0.9841
2.0778 -2.7756 -2.0018 0.9841
2.3626 -2.5376 -2.0017 0.9841
2.4516 -2.4516 -2.0017 0.9841
2.7755 -2.0777 -2.0017 0.9841
2.8479 -1.9774 -2.0017 0.9841
3.0430 -1.6616 -2.0017 0.9841
1.8508 -0.8452 -1.1747 0.9906
1.8620 -0.7713 -1.1636 0.9907
1.9033 -0.6335 -1.1581 0.9908
1.9616 -0.5007 -1.1688 0.9907
2.0153 -0.3636 -1.1823 0.9906
2.0366 -0.2190 -1.1826 0.9906
2.0359 -0.1456 -1.1784 0.9906
2.0320 -0.0726 -1.1739 0.9907
