ply
format ascii 1.0
element vertex 731
property float32 x
property float32 y
property float32 z
property float32 I
end_header
-9.4672 -0.0000 -2.0012 0.9620
-9.4611 -0.3379 -2.0012 0.9620
-9.4431 -0.6754 -2.0012 0.9620
-9.4129 -1.0120 -2.0012 0.9620
-9.3168 -1.6809 -2.0012 0.9620
-9.2509 -2.0124 -2.0012 0.9620
-9.1732 -2.3413 -2.0012 0.9620
-9.0838 -2.6673 -2.0012 0.9620
-8.9828 -2.9898 -2.0012 0.9620
-8.7467 -3.6230 -2.0012 0.9620
-8.4661 -4.2378 -2.0012 0.9620
-7.9647 -5.1186 -2.0013 0.9620
-7.5793 -5.6738 -2.0013 0.9620
-6.9296 -6.4516 -2.0013 0.9620
-6.2004 -7.1556 -2.0014 0.9620
-5.9410 -7.3724 -2.0014 0.9620
-4.8316 -8.1432 -2.0015 0.9620
-4.5379 -8.3105 -2.0015 0.9620
-4.2384 -8.4673 -2.0015 0.9620
-3.6236 -8.7482 -2.0016 0.9620
-3.3091 -8.8721 -2.0016 0.9620
-2.3419 -9.1753 -2.0016 0.9620
-2.0129 -9.2531 -2.0017 0.9620
-1.6814 -9.3192 -2.0017 0.9620
-1.3477 -9.3734 -2.0017 0.9620
-0.6756 -9.4459 -2.0018 0.9620
-0.3380 -9.4641 -2.0018 0.9620
-0.0000 -9.4702 -2.0018 0.9620
0.6756 -9.4463 -2.0019 0.9620
1.3478 -9.3743 -2.0019 0.9620
2.3422 -9.1768 -2.0020 0.9620
2.6683 -9.0874 -2.0020 0.9620
3.6245 -8.7504 -2.0021 0.9620
3.9346 -8.6156 -2.0021 0.9620
4.5393 -8.3131 -2.0021 0.9620
4.8332 -8.1459 -2.0021 0.9620
5.1209 -7.9683 -2.0022 0.9620
5.9435 -7.3754 -2.0022 0.9620
6.6980 -6.6980 -2.0023 0.9620
7.7811 -5.4025 -2.0024 0.9620
7.9690 -5.1214 -2.0024 0.9620
8.1468 -4.8337 -2.0024 0.9620
8.3142 -4.5399 -2.0024 0.9620
8.4710 -4.2403 -2.0024 0.9620
9.4190 -1.0127 -2.0025 0.9620
9.4673 -0.3381 -2.0025 0.9620
-8.5151 -0.0000 -2.0012 0.9656
-8.5096 -0.3039 -2.0012 0.9656
-8.4934 -0.6075 -2.0012 0.9656
-8.3205 -1.8100 -2.0012 0.9656
-8.2506 -2.1059 -2.0013 0.9656
-8.1702 -2.3990 -2.0013 0.9656
-7.9783 -2.9758 -2.0013 0.9656
-7.7458 -3.5374 -2.0013 0.9656
-7.6146 -3.8116 -2.0013 0.9656
-7.4737 -4.0810 -2.0013 0.9656
-7.3234 -4.3452 -2.0013 0.9656
-7.1636 -4.6038 -2.0013 0.9656
-6.9948 -4.8566 -2.0013 0.9656
-6.2326 -5.8028 -2.0014 0.9656
-5.8028 -6.2327 -2.0014 0.9656
-5.5767 -6.4359 -2.0014 0.9656
-5.3435 -6.6309 -2.0014 0.9656
-5.1035 -6.8174 -2.0015 0.9656
-4.0814 -7.4746 -2.0015 0.9656
-3.5379 -7.7469 -2.0016 0.9656
-3.2592 -7.8683 -2.0016 0.9656
-2.9763 -7.9797 -2.0016 0.9656
-1.8104 -8.3224 -2.0017 0.9656
-1.5122 -8.3817 -2.0017 0.9656
-1.2121 -8.4305 -2.0017 0.9656
-0.9105 -8.4685 -2.0017 0.9656
-0.6076 -8.4956 -2.0018 0.9656
0.3040 -8.5122 -2.0018 0.9656
0.6076 -8.4960 -2.0019 0.9656
0.9105 -8.4690 -2.0019 0.9656
1.2122 -8.4312 -2.0019 0.9656
1.5124 -8.3826 -2.0019 0.9656
2.1066 -8.2535 -2.0020 0.9656
2.3999 -8.1732 -2.0020 0.9656
2.6901 -8.0824 -2.0020 0.9656
3.5387 -7.7487 -2.0021 0.9656
4.6056 -7.1665 -2.0021 0.9656
4.8585 -6.9976 -2.0021 0.9656
5.1052 -6.8198 -2.0022 0.9656
5.5789 -6.4384 -2.0022 0.9656
5.8051 -6.2352 -2.0022 0.9656
6.0240 -6.0241 -2.0022 0.9656
6.4385 -5.5790 -2.0023 0.9656
6.6336 -5.3457 -2.0023 0.9656
6.8202 -5.1056 -2.0023 0.9656
7.6186 -3.8136 -2.0023 0.9656
7.7499 -3.5392 -2.0024 0.9656
7.8713 -3.2604 -2.0024 0.9656
8.0839 -2.6906 -2.0024 0.9656
8.3846 -1.5128 -2.0024 0.9656
8.4712 -0.9108 -2.0024 0.9656
8.4983 -0.6078 -2.0024 0.9656
8.5146 -0.3041 -2.0024 0.9656
-7.7294 -0.0000 -2.0013 0.9686
-7.7097 -0.5514 -2.0013 0.9686
-7.6852 -0.8262 -2.0013 0.9686
-7.5528 -1.6430 -2.0013 0.9686
-7.4894 -1.9116 -2.0013 0.9686
-7.2422 -2.7012 -2.0013 0.9686
-7.1412 -2.9580 -2.0013 0.9686
-6.7842 -3.7044 -2.0013 0.9686
-6.3494 -4.4085 -2.0014 0.9686
-6.0188 -4.8503 -2.0014 0.9686
-5.8419 -5.0620 -2.0014 0.9686
-5.2674 -5.6576 -2.0015 0.9686
-4.4088 -6.3498 -2.0015 0.9686
-3.7048 -6.7849 -2.0016 0.9686
-3.4603 -6.9128 -2.0016 0.9686
-2.9584 -7.1422 -2.0016 0.9686
-2.4414 -7.3352 -2.0016 0.9686
-2.1781 -7.4177 -2.0017 0.9686
-1.1003 -7.6525 -2.0017 0.9686
-0.5516 -7.7116 -2.0018 0.9686
-0.2760 -7.7265 -2.0018 0.9686
0.8265 -7.6874 -2.0019 0.9686
1.1003 -7.6531 -2.0019 0.9686
1.3728 -7.6090 -2.0019 0.9686
1.6435 -7.5552 -2.0019 0.9686
1.9122 -7.4918 -2.0019 0.9686
2.1784 -7.4188 -2.0020 0.9686
2.4418 -7.3364 -2.0020 0.9686
3.2121 -7.0336 -2.0020 0.9686
3.4611 -6.9145 -2.0021 0.9686
3.9457 -6.6501 -2.0021 0.9686
4.1805 -6.5051 -2.0021 0.9686
4.6340 -6.1904 -2.0021 0.9686
4.8521 -6.0211 -2.0021 0.9686
5.0639 -5.8441 -2.0022 0.9686
5.4680 -5.4680 -2.0022 0.9686
5.6597 -5.2694 -2.0022 0.9686
5.8442 -5.0641 -2.0022 0.9686
6.0213 -4.8523 -2.0022 0.9686
6.1907 -4.6343 -2.0022 0.9686
6.3522 -4.4104 -2.0023 0.9686
6.5056 -4.1809 -2.0023 0.9686
7.1447 -2.9594 -2.0023 0.9686
7.2458 -2.7026 -2.0023 0.9686
7.4202 -2.1788 -2.0023 0.9686
7.4932 -1.9125 -2.0023 0.9686
7.6106 -1.3731 -2.0023 0.9686
7.6892 -0.8267 -2.0023 0.9686
7.7286 -0.2760 -2.0024 0.9686
-7.0695 0.0000 -2.0013 0.9710
-7.0290 -0.7557 -2.0013 0.9710
-6.8500 -1.7483 -2.0013 0.9710
-6.6239 -2.4706 -2.0014 0.9710
-6.5315 -2.7054 -2.0014 0.9710
-6.3219 -3.1645 -2.0014 0.9710
-6.2050 -3.3882 -2.0014 0.9710
-5.8073 -4.0321 -2.0014 0.9710
-5.3431 -4.6298 -2.0014 0.9710
-4.8177 -5.1746 -2.0015 0.9710
-4.0323 -5.8077 -2.0015 0.9710
-3.6078 -6.0806 -2.0016 0.9710
-3.3885 -6.2055 -2.0016 0.9710
-3.1649 -6.3226 -2.0016 0.9710
-2.9372 -6.4316 -2.0016 0.9710
-2.7058 -6.5324 -2.0016 0.9710
-2.2329 -6.7088 -2.0017 0.9710
-1.9921 -6.7843 -2.0017 0.9710
-1.5030 -6.9093 -2.0017 0.9710
-1.2555 -6.9586 -2.0017 0.9710
-1.0063 -6.9990 -2.0017 0.9710
-0.7559 -7.0305 -2.0018 0.9710
-0.0000 -7.0712 -2.0018 0.9710
0.2524 -7.0668 -2.0018 0.9710
0.7534 -7.0085 -1.9955 0.9711
1.0064 -6.9995 -2.0019 0.9710
1.9923 -6.7853 -2.0020 0.9710
2.9378 -6.4329 -2.0020 0.9710
3.3893 -6.2070 -2.0020 0.9710
4.0334 -5.8093 -2.0021 0.9710
4.6314 -5.3449 -2.0021 0.9710
5.1763 -4.8193 -2.0022 0.9710
5.3451 -4.6315 -2.0022 0.9710
5.6619 -4.2385 -2.0022 0.9710
5.8096 -4.0337 -2.0022 0.9710
6.2076 -3.3896 -2.0022 0.9710
6.3246 -3.1659 -2.0023 0.9710
6.6269 -2.4717 -2.0023 0.9710
6.7109 -2.2336 -2.0023 0.9710
6.7864 -1.9927 -2.0023 0.9710
6.9113 -1.5035 -2.0023 0.9710
-6.4903 -0.4642 -2.0014 0.9731
-6.4035 -1.1553 -2.0014 0.9731
-6.3582 -1.3831 -2.0014 0.9731
-6.3048 -1.6092 -2.0014 0.9731
-6.0967 -2.2739 -2.0014 0.9731
-6.0117 -2.4901 -2.0014 0.9731
-5.9190 -2.7031 -2.0014 0.9731
-5.7111 -3.1185 -2.0014 0.9731
-5.4741 -3.5180 -2.0014 0.9731
-5.3451 -3.7112 -2.0014 0.9731
-5.0668 -4.0831 -2.0015 0.9731
-4.9178 -4.2613 -2.0015 0.9731
-4.7626 -4.4342 -2.0015 0.9731
-4.6013 -4.6013 -2.0015 0.9731
-4.4342 -4.7627 -2.0015 0.9731
-3.7114 -5.3454 -2.0016 0.9731
-3.5182 -5.4745 -2.0016 0.9731
-3.1188 -5.7116 -2.0016 0.9731
-2.9129 -5.8193 -2.0016 0.9731
-2.7034 -5.9196 -2.0016 0.9731
-2.2742 -6.0975 -2.0017 0.9731
-1.8335 -6.2443 -2.0017 0.9731
-1.3834 -6.3593 -2.0017 0.9731
-1.1555 -6.4046 -2.0017 0.9731
-0.6957 -6.4709 -2.0018 0.9731
-0.4643 -6.4916 -2.0018 0.9731
-0.0000 -6.5083 -2.0018 0.9731
0.2323 -6.5042 -2.0018 0.9731
0.9262 -6.4423 -2.0019 0.9731
1.1556 -6.4052 -2.0019 0.9731
1.3835 -6.3599 -2.0019 0.9731
1.8337 -6.2451 -2.0019 0.9731
2.0555 -6.1757 -2.0020 0.9731
2.2746 -6.0984 -2.0020 0.9731
2.7039 -5.9207 -2.0020 0.9731
2.9135 -5.8205 -2.0020 0.9731
3.5191 -5.4758 -2.0021 0.9731
3.7123 -5.3468 -2.0021 0.9731
4.2627 -4.9194 -2.0021 0.9731
4.4355 -4.7641 -2.0021 0.9731
4.6028 -4.6028 -2.0021 0.9731
4.7642 -4.4356 -2.0021 0.9731
4.9195 -4.2628 -2.0022 0.9731
5.0685 -4.0845 -2.0022 0.9731
5.2111 -3.9010 -2.0022 0.9731
5.4762 -3.5193 -2.0022 0.9731
5.5983 -3.3216 -2.0022 0.9731
5.7133 -3.1197 -2.0022 0.9731
5.9214 -2.7042 -2.0022 0.9731
6.1766 -2.0558 -2.0022 0.9731
6.2460 -1.8340 -2.0022 0.9731
6.3075 -1.6099 -2.0023 0.9731
6.3610 -1.3838 -2.0023 0.9731
6.4063 -1.1558 -2.0023 0.9731
6.4725 -0.6959 -2.0023 0.9731
6.4932 -0.4644 -2.0023 0.9731
6.5056 -0.2324 -2.0023 0.9731
-6.0210 0.0000 -2.0014 0.9749
-6.0171 -0.2149 -2.0014 0.9749
-6.0056 -0.4295 -2.0014 0.9749
-5.9865 -0.6436 -2.0014 0.9749
-5.9597 -0.8569 -2.0014 0.9749
-5.9253 -1.0690 -2.0014 0.9749
-5.8834 -1.2799 -2.0014 0.9749
-5.8340 -1.4890 -2.0014 0.9749
-5.7129 -1.9014 -2.0014 0.9749
-5.0653 -3.2553 -2.0015 0.9749
-4.9459 -3.4340 -2.0015 0.9749
-4.8202 -3.6084 -2.0015 0.9749
-4.6884 -3.7781 -2.0015 0.9749
-4.4070 -4.1030 -2.0015 0.9749
-3.9432 -4.5507 -2.0015 0.9749
-3.7783 -4.6885 -2.0016 0.9749
-3.4342 -4.9462 -2.0016 0.9749
-3.0726 -5.1786 -2.0016 0.9749
-2.8858 -5.2850 -2.0016 0.9749
-2.6954 -5.3847 -2.0016 0.9749
-2.3044 -5.5634 -2.0017 0.9749
-2.1044 -5.6421 -2.0017 0.9749
-1.9017 -5.7137 -2.0017 0.9749
-1.6966 -5.7779 -2.0017 0.9749
-1.2801 -5.8843 -2.0017 0.9749
-1.0692 -5.9263 -2.0017 0.9749
-0.8570 -5.9607 -2.0018 0.9749
-0.6437 -5.9876 -2.0018 0.9749
-0.2150 -6.0183 -2.0018 0.9749
0.4296 -6.0070 -2.0018 0.9749
0.6437 -5.9879 -2.0019 0.9749
0.8571 -5.9611 -2.0019 0.9749
1.4894 -5.8354 -2.0019 0.9749
1.9019 -5.7144 -2.0019 0.9749
2.1047 -5.6429 -2.0020 0.9749
2.3048 -5.5642 -2.0020 0.9749
2.5019 -5.4785 -2.0020 0.9749
2.6959 -5.3857 -2.0020 0.9749
2.8864 -5.2861 -2.0020 0.9749
3.2562 -5.0668 -2.0020 0.9749
3.4350 -4.9474 -2.0021 0.9749
3.6094 -4.8216 -2.0021 0.9749
3.7792 -4.6897 -2.0021 0.9749
4.1042 -4.4083 -2.0021 0.9749
4.2590 -4.2590 -2.0021 0.9749
4.4083 -4.1043 -2.0021 0.9749
4.6899 -3.7794 -2.0021 0.9749
4.8218 -3.6096 -2.0021 0.9749
4.9476 -3.4352 -2.0022 0.9749
5.1801 -3.0735 -2.0022 0.9749
5.2865 -2.8867 -2.0022 0.9749
5.4790 -2.5022 -2.0022 0.9749
5.5649 -2.3050 -2.0022 0.9749
5.6436 -2.1050 -2.0022 0.9749
5.7152 -1.9022 -2.0022 0.9749
5.7794 -1.6970 -2.0022 0.9749
5.8363 -1.4896 -2.0022 0.9749
5.8858 -1.2804 -2.0022 0.9749
5.9277 -1.0695 -2.0022 0.9749
5.9621 -0.8572 -2.0022 0.9749
5.9889 -0.6439 -2.0022 0.9749
-5.5967 0.0000 -2.0014 0.9765
-5.5932 -0.1998 -2.0014 0.9765
-5.5825 -0.3993 -2.0014 0.9765
-5.5647 -0.5983 -2.0014 0.9765
-5.5398 -0.7965 -2.0014 0.9765
-5.5078 -0.9937 -2.0014 0.9765
-5.3701 -1.5768 -2.0014 0.9765
-5.3104 -1.7675 -2.0015 0.9765
-5.2439 -1.9559 -2.0015 0.9765
-5.1708 -2.1418 -2.0015 0.9765
-5.0911 -2.3250 -2.0015 0.9765
-4.8134 -2.8559 -2.0015 0.9765
-4.7084 -3.0259 -2.0015 0.9765
-4.3580 -3.5119 -2.0015 0.9765
-4.0964 -3.8139 -2.0015 0.9765
-3.8140 -4.0965 -2.0016 0.9765
-3.6653 -4.2300 -2.0016 0.9765
-3.5120 -4.3582 -2.0016 0.9765
-2.8561 -4.8137 -2.0016 0.9765
-2.5055 -5.0053 -2.0016 0.9765
-2.3252 -5.0915 -2.0017 0.9765
-1.7677 -5.3110 -2.0017 0.9765
-1.1899 -5.4697 -2.0017 0.9765
-0.3993 -5.5835 -2.0018 0.9765
-0.1998 -5.5942 -2.0018 0.9765
-0.0000 -5.5978 -2.0018 0.9765
0.1998 -5.5943 -2.0018 0.9765
0.5984 -5.5659 -2.0019 0.9765
0.7967 -5.5410 -2.0019 0.9765
1.5772 -5.3713 -2.0019 0.9765
2.1423 -5.1721 -2.0020 0.9765
2.3256 -5.0923 -2.0020 0.9765
3.1929 -4.5987 -2.0020 0.9765
3.3550 -4.4818 -2.0020 0.9765
3.8149 -4.0976 -2.0021 0.9765
3.9588 -3.9588 -2.0021 0.9765
4.2312 -3.6663 -2.0021 0.9765
4.5989 -3.1931 -2.0021 0.9765
4.7099 -3.0269 -2.0021 0.9765
5.0066 -2.5061 -2.0022 0.9765
5.0928 -2.3258 -2.0022 0.9765
5.1726 -2.1426 -2.0022 0.9765
5.3721 -1.5774 -2.0022 0.9765
5.4249 -1.3846 -2.0022 0.9765
5.4709 -1.1901 -2.0022 0.9765
5.5419 -0.7968 -2.0022 0.9765
5.5668 -0.5985 -2.0022 0.9765
5.5846 -0.3994 -2.0022 0.9765
-5.2228 -0.0000 -2.0015 0.9779
-5.2195 -0.1864 -2.0015 0.9779
-5.1929 -0.5583 -2.0015 0.9779
-5.0606 -1.2916 -2.0015 0.9779
-4.8935 -1.8252 -2.0015 0.9779
-4.8253 -1.9987 -2.0015 0.9779
-4.3938 -2.8237 -2.0015 0.9779
-4.2902 -2.9787 -2.0015 0.9779
-4.1812 -3.1300 -2.0015 0.9779
-4.0668 -3.2773 -2.0015 0.9779
-3.5591 -3.8227 -2.0016 0.9779
-3.2773 -4.0670 -2.0016 0.9779
-3.1301 -4.1813 -2.0016 0.9779
-2.9789 -4.2904 -2.0016 0.9779
-2.5032 -4.5843 -2.0016 0.9779
-2.3380 -4.6708 -2.0017 0.9779
-2.1699 -4.7513 -2.0017 0.9779
-1.6496 -4.9561 -2.0017 0.9779
-1.4716 -5.0119 -2.0017 0.9779
-1.2918 -5.0612 -2.0017 0.9779
-0.9275 -5.1405 -2.0018 0.9779
-0.7434 -5.1704 -2.0018 0.9779
-0.0000 -5.2237 -2.0018 0.9779
0.3726 -5.2105 -2.0018 0.9779
0.7434 -5.1707 -2.0019 0.9779
1.2919 -5.0617 -2.0019 0.9779
1.4718 -5.0124 -2.0019 0.9779
1.6497 -4.9567 -2.0019 0.9779
1.8256 -4.8946 -2.0019 0.9779
2.1702 -4.7520 -2.0020 0.9779
2.5037 -4.5851 -2.0020 0.9779
2.6657 -4.4929 -2.0020 0.9779
2.8244 -4.3949 -2.0020 0.9779
3.2781 -4.0679 -2.0020 0.9779
3.4212 -3.9483 -2.0021 0.9779
3.6942 -3.6942 -2.0021 0.9779
3.9483 -3.4213 -2.0021 0.9779
4.0679 -3.2782 -2.0021 0.9779
4.2915 -2.9796 -2.0021 0.9779
4.3951 -2.8246 -2.0021 0.9779
4.4932 -2.6659 -2.0021 0.9779
4.6719 -2.3386 -2.0021 0.9779
4.7524 -2.1704 -2.0021 0.9779
4.8952 -1.8258 -2.0022 0.9779
4.9572 -1.6499 -2.0022 0.9779
5.0623 -1.2921 -2.0022 0.9779
5.1416 -0.9277 -2.0022 0.9779
5.2113 -0.3727 -2.0022 0.9779
-1.9308 -0.0690 -0.7907 0.9917
-1.9525 -0.1396 -0.8011 0.9916
-2.1703 -0.3916 -0.9026 0.9905
-4.6923 -1.3778 -2.0015 0.9791
-4.6401 -1.5444 -2.0015 0.9791
-4.5820 -1.7090 -2.0015 0.9791
-4.5181 -1.8715 -2.0015 0.9791
-4.2058 -2.4954 -2.0015 0.9791
-4.1141 -2.6440 -2.0015 0.9791
-4.0171 -2.7892 -2.0015 0.9791
-3.6960 -3.2026 -2.0016 0.9791
-3.4581 -3.4581 -2.0016 0.9791
-3.2027 -3.6961 -2.0016 0.9791
-3.0687 -3.8080 -2.0016 0.9791
-2.9308 -3.9152 -2.0016 0.9791
-2.7893 -4.0173 -2.0016 0.9791
-2.6441 -4.1143 -2.0016 0.9791
-2.4956 -4.2061 -2.0016 0.9791
-2.3439 -4.2925 -2.0017 0.9791
-2.1892 -4.3734 -2.0017 0.9791
-1.3779 -4.6928 -2.0017 0.9791
-0.6961 -4.8412 -2.0018 0.9791
-0.5228 -4.8630 -2.0018 0.9791
-0.3489 -4.8786 -2.0018 0.9791
-0.0000 -4.8911 -2.0018 0.9791
0.3489 -4.8787 -2.0018 0.9791
0.8685 -4.8136 -2.0019 0.9791
1.3780 -4.6932 -2.0019 0.9791
1.5447 -4.6411 -2.0019 0.9791
1.7094 -4.5830 -2.0019 0.9791
1.8719 -4.5191 -2.0019 0.9791
2.4960 -4.2068 -2.0020 0.9791
2.6446 -4.1151 -2.0020 0.9791
2.7898 -4.0181 -2.0020 0.9791
3.5802 -3.3333 -2.0021 0.9791
3.6969 -3.2034 -2.0021 0.9791
3.9161 -2.9316 -2.0021 0.9791
4.1153 -2.6447 -2.0021 0.9791
4.2071 -2.4962 -2.0021 0.9791
4.2935 -2.3444 -2.0021 0.9791
4.3744 -2.1897 -2.0021 0.9791
4.4498 -2.0322 -2.0021 0.9791
4.6938 -1.3782 -2.0021 0.9791
4.7400 -1.2098 -2.0021 0.9791
4.7801 -1.0399 -2.0021 0.9791
4.8142 -0.8686 -2.0022 0.9791
4.8795 -0.3490 -2.0022 0.9791
4.8888 -0.1746 -2.0022 0.9791
-1.5293 -0.1094 -0.6682 0.9933
-1.5249 -0.1639 -0.6684 0.9933
-1.5151 -0.2179 -0.6671 0.9933
-1.5707 -0.4612 -0.7134 0.9929
-4.2430 -1.7575 -2.0015 0.9802
-4.1776 -1.9078 -2.0015 0.9802
-3.9497 -2.3435 -2.0015 0.9802
-3.8636 -2.4830 -2.0016 0.9802
-3.4709 -3.0076 -2.0016 0.9802
-3.3614 -3.1296 -2.0016 0.9802
-2.7524 -3.6767 -2.0016 0.9802
-2.6194 -3.7727 -2.0016 0.9802
-2.3436 -3.9499 -2.0017 0.9802
-2.2012 -4.0311 -2.0017 0.9802
-1.9080 -4.1779 -2.0017 0.9802
-1.6051 -4.3034 -2.0017 0.9802
-1.4505 -4.3580 -2.0017 0.9802
-0.9763 -4.4881 -2.0017 0.9802
-0.6537 -4.5464 -2.0018 0.9802
-0.4910 -4.5669 -2.0018 0.9802
0.1639 -4.5904 -2.0018 0.9802
0.4910 -4.5670 -2.0018 0.9802
0.6537 -4.5466 -2.0019 0.9802
0.8156 -4.5204 -2.0019 0.9802
1.7579 -4.2439 -2.0019 0.9802
1.9082 -4.1784 -2.0019 0.9802
2.2015 -4.0317 -2.0020 0.9802
2.3440 -3.9506 -2.0020 0.9802
2.4835 -3.8644 -2.0020 0.9802
2.8824 -3.5769 -2.0020 0.9802
3.2483 -3.2483 -2.0020 0.9802
3.3622 -3.1303 -2.0020 0.9802
3.4718 -3.0083 -2.0021 0.9802
3.6775 -2.7530 -2.0021 0.9802
3.7735 -2.6200 -2.0021 0.9802
3.8646 -2.4836 -2.0021 0.9802
3.9508 -2.3441 -2.0021 0.9802
4.1080 -2.0563 -2.0021 0.9802
4.1788 -1.9084 -2.0021 0.9802
4.3588 -1.4508 -2.0021 0.9802
4.4890 -0.9765 -2.0021 0.9802
4.5210 -0.8157 -2.0021 0.9802
4.5472 -0.6538 -2.0021 0.9802
4.5677 -0.4911 -2.0021 0.9802
-1.3333 -0.0000 -0.6172 0.9941
-1.3384 -0.0957 -0.6211 0.9941
-1.3273 -0.1908 -0.6207 0.9941
-1.3013 -0.2831 -0.6164 0.9941
-1.3116 -0.3348 -0.6266 0.9941
-1.3241 -0.3888 -0.6388 0.9939
-1.3263 -0.5494 -0.6645 0.9937
-3.7952 -2.0723 -2.0016 0.9811
-3.4617 -2.5914 -2.0016 0.9811
-3.1649 -2.9466 -2.0016 0.9811
-2.8318 -3.2680 -2.0016 0.9811
-2.5914 -3.4617 -2.0016 0.9811
-2.3379 -3.6378 -2.0017 0.9811
-2.2066 -3.7190 -2.0017 0.9811
-1.9357 -3.8670 -2.0017 0.9811
-1.7964 -3.9336 -2.0017 0.9811
-1.6549 -3.9952 -2.0017 0.9811
-1.5113 -4.0518 -2.0017 0.9811
-1.2183 -4.1493 -2.0017 0.9811
-0.9192 -4.2257 -2.0018 0.9811
-0.7678 -4.2558 -2.0018 0.9811
0.1544 -4.3219 -2.0018 0.9811
0.3085 -4.3137 -2.0018 0.9811
0.4623 -4.2999 -2.0018 0.9811
0.6155 -4.2807 -2.0019 0.9811
0.7679 -4.2560 -2.0019 0.9811
0.9193 -4.2260 -2.0019 0.9811
1.0695 -4.1905 -2.0019 0.9811
1.2184 -4.1497 -2.0019 0.9811
1.3658 -4.1035 -2.0019 0.9811
1.5114 -4.0522 -2.0019 0.9811
1.6551 -3.9957 -2.0019 0.9811
1.7966 -3.9341 -2.0019 0.9811
2.0727 -3.7959 -2.0020 0.9811
2.4667 -3.5527 -2.0020 0.9811
2.5919 -3.4624 -2.0020 0.9811
2.9472 -3.1655 -2.0020 0.9811
3.2687 -2.8324 -2.0020 0.9811
3.3677 -2.7139 -2.0020 0.9811
3.4625 -2.5920 -2.0021 0.9811
3.7961 -2.0729 -2.0021 0.9811
4.0525 -1.5115 -2.0021 0.9811
4.1039 -1.3659 -2.0021 0.9811
4.1501 -1.2186 -2.0021 0.9811
4.1909 -1.0697 -2.0021 0.9811
4.2264 -0.9194 -2.0021 0.9811
4.2566 -0.7680 -2.0021 0.9811
4.2813 -0.6156 -2.0021 0.9811
4.3005 -0.4624 -2.0021 0.9811
4.3143 -0.3086 -2.0021 0.9811
4.3225 -0.1544 -2.0021 0.9811
-1.1965 -0.0427 -0.5873 0.9947
-1.1695 -0.2544 -0.5871 0.9947
-1.1590 -0.3403 -0.5925 0.9946
-1.1484 -0.4757 -0.6097 0.9945
-1.1292 -0.5652 -0.6194 0.9944
-1.1113 -0.6068 -0.6211 0.9944
-3.5093 -2.0822 -2.0016 0.9820
-3.4327 -2.2061 -2.0016 0.9820
-3.3518 -2.3272 -2.0016 0.9820
-3.2666 -2.4454 -2.0016 0.9820
-3.1773 -2.5604 -2.0016 0.9820
-3.0839 -2.6722 -2.0016 0.9820
-2.9866 -2.7806 -2.0016 0.9820
-2.8854 -2.8854 -2.0016 0.9820
-2.6722 -3.0839 -2.0016 0.9820
-2.4454 -3.2667 -2.0016 0.9820
-2.3273 -3.3519 -2.0017 0.9820
-2.2062 -3.4329 -2.0017 0.9820
-2.0823 -3.5095 -2.0017 0.9820
-1.9557 -3.5816 -2.0017 0.9820
-1.5617 -3.7701 -2.0017 0.9820
-1.2887 -3.8720 -2.0017 0.9820
-1.1497 -3.9155 -2.0017 0.9820
-1.0092 -3.9541 -2.0017 0.9820
-0.7246 -4.0161 -2.0018 0.9820
-0.2911 -4.0705 -2.0018 0.9820
-0.1457 -4.0784 -2.0018 0.9820
-0.0000 -4.0810 -2.0018 0.9820
0.1457 -4.0784 -2.0018 0.9820
0.2911 -4.0706 -2.0018 0.9820
0.4362 -4.0577 -2.0018 0.9820
0.8675 -3.9878 -2.0019 0.9820
1.0093 -3.9543 -2.0019 0.9820
1.4262 -3.8239 -2.0019 0.9820
2.3277 -3.3525 -2.0020 0.9820
2.5609 -3.1779 -2.0020 0.9820
2.7811 -2.9871 -2.0020 0.9820
2.8860 -2.8860 -2.0020 0.9820
3.1780 -2.5610 -2.0020 0.9820
3.2674 -2.4459 -2.0020 0.9820
3.3526 -2.3277 -2.0020 0.9820
3.6498 -1.8270 -2.0021 0.9820
3.7127 -1.6955 -2.0021 0.9820
3.8242 -1.4264 -2.0021 0.9820
3.8727 -1.2890 -2.0021 0.9820
4.0400 -0.5809 -2.0021 0.9820
4.0582 -0.4363 -2.0021 0.9820
4.0712 -0.2912 -2.0021 0.9820
4.0790 -0.1457 -2.0021 0.9820
-1.1058 0.0000 -0.5737 0.9950
-1.1055 -0.0791 -0.5750 0.9950
-1.0905 -0.1968 -0.5749 0.9950
-1.0704 -0.2732 -0.5731 0.9950
-1.0636 -0.3123 -0.5751 0.9950
-1.0617 -0.3534 -0.5805 0.9950
-1.0576 -0.3945 -0.5856 0.9949
-1.0514 -0.4355 -0.5904 0.9949
-1.0430 -0.4763 -0.5948 0.9948
-1.0298 -0.5155 -0.5974 0.9948
-1.0118 -0.5525 -0.5981 0.9948
-3.2458 -2.0859 -2.0016 0.9828
-3.1693 -2.2005 -2.0016 0.9828
-3.0887 -2.3122 -2.0016 0.9828
-3.0042 -2.4210 -2.0016 0.9828
-2.4210 -3.0043 -2.0017 0.9828
-2.3123 -3.0888 -2.0017 0.9828
-2.0860 -3.2459 -2.0017 0.9828
-1.9689 -3.3183 -2.0017 0.9828
-1.7271 -3.4504 -2.0017 0.9828
-1.6029 -3.5098 -2.0017 0.9828
-1.2185 -3.6611 -2.0017 0.9828
-0.8202 -3.7704 -2.0018 0.9828
-0.5491 -3.8194 -2.0018 0.9828
0.2753 -3.8489 -2.0018 0.9828
0.4125 -3.8367 -2.0018 0.9828
0.5492 -3.8195 -2.0019 0.9828
1.2186 -3.6614 -2.0019 0.9828
1.3485 -3.6156 -2.0019 0.9828
1.4767 -3.5652 -2.0019 0.9828
1.6030 -3.5102 -2.0019 0.9828
1.7273 -3.4508 -2.0019 0.9828
1.9691 -3.3188 -2.0020 0.9828
2.2009 -3.1699 -2.0020 0.9828
2.3126 -3.0893 -2.0020 0.9828
2.4214 -3.0048 -2.0020 0.9828
2.5271 -2.9165 -2.0020 0.9828
2.6296 -2.8244 -2.0020 0.9828
2.7288 -2.7288 -2.0020 0.9828
2.9165 -2.5272 -2.0020 0.9828
3.0049 -2.4215 -2.0020 0.9828
3.0894 -2.3127 -2.0020 0.9828
3.2465 -2.0864 -2.0020 0.9828
3.3189 -1.9692 -2.0020 0.9828
3.3871 -1.8495 -2.0021 0.9828
3.4510 -1.7274 -2.0021 0.9828
3.5104 -1.6032 -2.0021 0.9828
3.5654 -1.4769 -2.0021 0.9828
3.6159 -1.3487 -2.0021 0.9828
3.7979 -0.6852 -2.0021 0.9828
3.8199 -0.5492 -2.0021 0.9828
-1.0269 0.0000 -0.5625 0.9953
-1.0276 -0.0367 -0.5632 0.9953
-1.0265 -0.0734 -0.5637 0.9953
-1.0190 -0.1465 -0.5638 0.9953
-0.9434 -0.4722 -0.5778 0.9952
-0.9269 -0.5061 -0.5784 0.9952
-0.8882 -0.5708 -0.5782 0.9952
-2.5842 -2.5842 -2.0016 0.9835
-2.4903 -2.6748 -2.0016 0.9835
-2.1902 -2.9257 -2.0017 0.9835
-1.9759 -3.0745 -2.0017 0.9835
-1.5182 -3.3245 -2.0017 0.9835
-1.3986 -3.3766 -2.0017 0.9835
-1.2772 -3.4243 -2.0017 0.9835
-1.1542 -3.4678 -2.0017 0.9835
-1.0297 -3.5068 -2.0017 0.9835
-0.9039 -3.5413 -2.0018 0.9835
-0.7769 -3.5713 -2.0018 0.9835
-0.3907 -3.6339 -2.0018 0.9835
-0.1305 -3.6526 -2.0018 0.9835
-0.0000 -3.6549 -2.0018 0.9835
0.2607 -3.6457 -2.0018 0.9835
0.5201 -3.6178 -2.0019 0.9835
0.6490 -3.5969 -2.0019 0.9835
1.1543 -3.4680 -2.0019 0.9835
1.2773 -3.4246 -2.0019 0.9835
2.0846 -3.0025 -2.0020 0.9835
2.1905 -2.9262 -2.0020 0.9835
2.2935 -2.8461 -2.0020 0.9835
2.5846 -2.5847 -2.0020 0.9835
2.6753 -2.4908 -2.0020 0.9835
3.0750 -1.9762 -2.0020 0.9835
3.3250 -1.5185 -2.0020 0.9835
3.3771 -1.3988 -2.0021 0.9835
3.4683 -1.1544 -2.0021 0.9835
3.5418 -0.9040 -2.0021 0.9835
3.5718 -0.7770 -2.0021 0.9835
3.6182 -0.5202 -2.0021 0.9835
3.6344 -0.3908 -2.0021 0.9835
3.6461 -0.2608 -2.0021 0.9835
3.6531 -0.1305 -2.0021 0.9835
-0.9570 -0.0000 -0.5525 0.9956
-0.9576 -0.0342 -0.5532 0.9956
-0.9538 -0.1025 -0.5538 0.9956
-0.9492 -0.1365 -0.5536 0.9956
-0.9430 -0.1701 -0.5532 0.9956
-0.9058 -0.3015 -0.5511 0.9956
-0.9011 -0.3361 -0.5553 0.9956
-0.8941 -0.3703 -0.5587 0.9955
-0.8534 -0.4660 -0.5614 0.9955
-0.8365 -0.4963 -0.5615 0.9955
-0.8008 -0.5560 -0.5628 0.9955
-0.7846 -0.5873 -0.5658 0.9955
-0.7671 -0.6182 -0.5688 0.9955
-2.6201 -2.2704 -2.0016 0.9841
-2.5374 -2.3625 -2.0016 0.9841
-2.3625 -2.5374 -2.0017 0.9841
-2.0777 -2.7755 -2.0017 0.9841
-1.3268 -3.2032 -2.0017 0.9841
-1.2116 -3.2485 -2.0017 0.9841
-0.8575 -3.3595 -2.0018 0.9841
-0.4934 -3.4319 -2.0018 0.9841
-0.1238 -3.4650 -2.0018 0.9841
0.2473 -3.4584 -2.0018 0.9841
0.3706 -3.4474 -2.0018 0.9841
0.6156 -3.4122 -2.0019 0.9841
0.7370 -3.3881 -2.0019 0.9841
1.3269 -3.2035 -2.0019 0.9841
1.4404 -3.1541 -2.0019 0.9841
1.5521 -3.1007 -2.0019 0.9841
1.6618 -3.0433 -2.0019 0.9841
2.0780 -2.7759 -2.0020 0.9841
2.3628 -2.5379 -2.0020 0.9841
2.5379 -2.3629 -2.0020 0.9841
2.6206 -2.2708 -2.0020 0.9841
2.7000 -2.1758 -2.0020 0.9841
2.7759 -2.0780 -2.0020 0.9841
2.8483 -1.9776 -2.0020 0.9841
3.0434 -1.6618 -2.0020 0.9841
1.8507 -0.8452 -1.1747 0.9906
1.8682 -0.6968 -1.1512 0.9908
1.9351 -0.5682 -1.1644 0.9907
2.0300 -0.2919 -1.1841 0.9906
2.0366 -0.2190 -1.1826 0.9906
2.0320 -0.0726 -1.1739 0.9907
