ply
format ascii 1.0
element vertex 777
property float32 x
property float32 y
property float32 z
property float32 I
end_header
-9.4781 -0.0000 -2.0035 0.9620
-9.4721 -0.3383 -2.0035 0.9620
-9.3816 -1.3488 -2.0035 0.9620
-9.3274 -1.6829 -2.0035 0.9620
-9.1835 -2.3439 -2.0034 0.9620
-8.9927 -2.9931 -2.0034 0.9620
-8.6210 -3.9371 -2.0033 0.9620
-8.1504 -4.8359 -2.0033 0.9620
-7.7844 -5.4048 -2.0032 0.9620
-7.3788 -5.9462 -2.0031 0.9620
-6.7005 -6.7005 -2.0030 0.9620
-6.2051 -7.1611 -2.0029 0.9620
-5.6782 -7.5852 -2.0028 0.9620
-5.1224 -7.9706 -2.0028 0.9620
-4.5405 -8.3153 -2.0027 0.9620
-4.2407 -8.4719 -2.0026 0.9620
-3.9355 -8.6176 -2.0026 0.9620
-3.6254 -8.7523 -2.0025 0.9620
-3.3106 -8.8759 -2.0024 0.9620
-2.9916 -8.9882 -2.0024 0.9620
-2.6688 -9.0890 -2.0023 0.9620
-1.6818 -9.3214 -2.0022 0.9620
-1.3480 -9.3753 -2.0021 0.9620
-1.0125 -9.4171 -2.0021 0.9620
-0.6757 -9.4470 -2.0020 0.9620
-0.3380 -9.4648 -2.0020 0.9620
-0.0000 -9.4706 -2.0019 0.9620
0.6756 -9.4459 -2.0018 0.9620
2.0128 -9.2526 -2.0016 0.9620
2.3417 -9.1746 -2.0015 0.9620
2.9901 -8.9837 -2.0014 0.9620
3.3087 -8.8710 -2.0013 0.9620
3.6231 -8.7471 -2.0013 0.9620
3.9329 -8.6119 -2.0012 0.9620
4.2377 -8.4659 -2.0012 0.9620
4.8306 -8.1416 -2.0011 0.9620
5.1180 -7.9638 -2.0010 0.9620
6.6930 -6.6930 -2.0008 0.9620
6.9275 -6.4497 -2.0007 0.9620
7.1531 -6.1982 -2.0007 0.9620
7.3697 -5.9389 -2.0007 0.9620
7.5768 -5.6720 -2.0006 0.9620
7.9619 -5.1168 -2.0006 0.9620
8.4629 -4.2362 -2.0005 0.9620
8.7433 -3.6216 -2.0004 0.9620
8.8669 -3.3072 -2.0004 0.9620
8.9792 -2.9886 -2.0004 0.9620
9.0801 -2.6662 -2.0004 0.9620
9.2470 -2.0116 -2.0004 0.9620
9.4090 -1.0116 -2.0003 0.9620
9.4390 -0.6751 -2.0003 0.9620
9.4571 -0.3378 -2.0003 0.9620
-8.5240 -0.0000 -2.0033 0.9656
-8.5185 -0.3043 -2.0033 0.9656
-8.5022 -0.6081 -2.0033 0.9656
-8.4371 -1.2131 -2.0033 0.9656
-8.3884 -1.5134 -2.0033 0.9656
-8.3290 -1.8119 -2.0033 0.9656
-8.2590 -2.1080 -2.0033 0.9656
-7.9862 -2.9787 -2.0032 0.9656
-7.8747 -3.2618 -2.0032 0.9656
-7.7531 -3.5408 -2.0032 0.9656
-7.6218 -3.8152 -2.0032 0.9656
-7.3300 -4.3491 -2.0031 0.9656
-6.8228 -5.1075 -2.0030 0.9656
-6.4408 -5.5810 -2.0030 0.9656
-5.3471 -6.6353 -2.0028 0.9656
-4.6069 -7.1685 -2.0027 0.9656
-4.3480 -7.3281 -2.0026 0.9656
-3.5395 -7.7504 -2.0025 0.9656
-3.2605 -7.8716 -2.0024 0.9656
-2.9774 -7.9828 -2.0024 0.9656
-2.6906 -8.0838 -2.0023 0.9656
-1.8109 -8.3245 -2.0022 0.9656
-1.5126 -8.3836 -2.0021 0.9656
-0.6077 -8.4966 -2.0020 0.9656
-0.3040 -8.5127 -2.0019 0.9656
0.0000 -8.5179 -2.0019 0.9656
0.3040 -8.5122 -2.0018 0.9656
1.2121 -8.4303 -2.0017 0.9656
1.5122 -8.3815 -2.0016 0.9656
2.1062 -8.2518 -2.0015 0.9656
2.9760 -7.9788 -2.0014 0.9656
3.5374 -7.7458 -2.0013 0.9656
3.8115 -7.6145 -2.0013 0.9656
4.3448 -7.3228 -2.0012 0.9656
4.6033 -7.1629 -2.0011 0.9656
4.8560 -6.9939 -2.0011 0.9656
5.1024 -6.8160 -2.0010 0.9656
5.3423 -6.6294 -2.0010 0.9656
5.5754 -6.4344 -2.0010 0.9656
5.8014 -6.2312 -2.0009 0.9656
6.0200 -6.0200 -2.0009 0.9656
6.2309 -5.8012 -2.0009 0.9656
6.4339 -5.5750 -2.0008 0.9656
6.6287 -5.3417 -2.0008 0.9656
6.9927 -4.8551 -2.0007 0.9656
7.3210 -4.3438 -2.0007 0.9656
7.4713 -4.0796 -2.0006 0.9656
7.6121 -3.8103 -2.0006 0.9656
7.7431 -3.5362 -2.0006 0.9656
7.8643 -3.2575 -2.0006 0.9656
8.1673 -2.3981 -2.0005 0.9656
8.2476 -2.1051 -2.0005 0.9656
8.3174 -1.8094 -2.0005 0.9656
8.4252 -1.2114 -2.0005 0.9656
8.4631 -0.9099 -2.0005 0.9656
8.4902 -0.6072 -2.0005 0.9656
8.5064 -0.3038 -2.0005 0.9656
-7.7171 -0.5520 -2.0032 0.9685
-7.6924 -0.8270 -2.0032 0.9685
-7.6580 -1.1011 -2.0032 0.9685
-7.5599 -1.6446 -2.0032 0.9685
-7.4963 -1.9133 -2.0032 0.9685
-7.4232 -2.1797 -2.0031 0.9685
-7.3406 -2.4432 -2.0031 0.9685
-7.1475 -2.9606 -2.0031 0.9685
-7.0372 -3.2138 -2.0031 0.9685
-6.9179 -3.4629 -2.0031 0.9685
-6.6531 -3.9475 -2.0030 0.9685
-6.5079 -4.1824 -2.0030 0.9685
-6.3544 -4.4120 -2.0030 0.9685
-6.1928 -4.6359 -2.0029 0.9685
-6.0233 -4.8539 -2.0029 0.9685
-5.8462 -5.0657 -2.0029 0.9685
-5.4697 -5.4697 -2.0028 0.9685
-5.2709 -5.6613 -2.0028 0.9685
-4.6353 -6.1920 -2.0027 0.9685
-4.4112 -6.3534 -2.0026 0.9685
-4.1816 -6.5067 -2.0026 0.9685
-3.4619 -6.9159 -2.0025 0.9685
-2.7026 -7.2459 -2.0023 0.9686
-2.4422 -7.3376 -2.0023 0.9686
-2.1787 -7.4199 -2.0023 0.9686
-1.9124 -7.4928 -2.0022 0.9686
-1.6437 -7.5561 -2.0022 0.9686
-1.1004 -7.6538 -2.0021 0.9686
-0.8266 -7.6880 -2.0020 0.9686
0.2760 -7.7267 -2.0018 0.9686
0.5516 -7.7117 -2.0018 0.9686
1.6433 -7.5540 -2.0016 0.9686
2.1779 -7.4172 -2.0015 0.9686
2.7014 -7.2427 -2.0014 0.9686
3.2110 -7.0312 -2.0014 0.9686
3.4599 -6.9120 -2.0013 0.9686
3.7043 -6.7839 -2.0013 0.9686
4.1787 -6.5021 -2.0012 0.9686
4.8495 -6.0179 -2.0011 0.9686
5.2663 -5.6564 -2.0010 0.9686
5.6561 -5.2661 -2.0010 0.9686
5.8405 -5.0608 -2.0009 0.9686
6.1864 -4.6311 -2.0009 0.9686
6.3477 -4.4073 -2.0008 0.9686
6.5009 -4.1779 -2.0008 0.9686
6.6458 -3.9431 -2.0008 0.9686
6.9100 -3.4589 -2.0007 0.9686
7.1390 -2.9571 -2.0007 0.9686
7.2399 -2.7004 -2.0007 0.9686
7.3316 -2.4402 -2.0007 0.9686
7.4869 -1.9109 -2.0006 0.9686
7.5503 -1.6425 -2.0006 0.9686
7.6041 -1.3719 -2.0006 0.9686
7.6482 -1.0996 -2.0006 0.9686
7.6826 -0.8259 -2.0006 0.9686
7.7071 -0.5512 -2.0006 0.9686
-7.0757 0.0000 -2.0031 0.9710
-7.0037 -1.0070 -2.0031 0.9710
-6.9632 -1.2563 -2.0031 0.9710
-6.7134 -2.2345 -2.0030 0.9710
-6.6293 -2.4726 -2.0030 0.9710
-6.5368 -2.7076 -2.0030 0.9710
-6.3269 -3.1670 -2.0030 0.9710
-5.9519 -3.8250 -2.0029 0.9710
-5.8115 -4.0350 -2.0029 0.9710
-5.6637 -4.2398 -2.0028 0.9710
-5.1778 -4.8207 -2.0028 0.9710
-5.0024 -5.0024 -2.0027 0.9710
-4.6326 -5.3464 -2.0027 0.9710
-3.6095 -6.0834 -2.0025 0.9710
-3.3900 -6.2083 -2.0025 0.9710
-3.1662 -6.3252 -2.0024 0.9710
-2.9383 -6.4340 -2.0024 0.9710
-2.7068 -6.5347 -2.0023 0.9710
-2.4718 -6.6270 -2.0023 0.9710
-0.7560 -7.0314 -2.0020 0.9710
-0.2524 -7.0672 -2.0019 0.9710
-0.0000 -7.0715 -2.0019 0.9710
1.2554 -6.9584 -2.0017 0.9710
2.4707 -6.6243 -2.0015 0.9710
2.7055 -6.5317 -2.0014 0.9710
2.9369 -6.4309 -2.0014 0.9710
3.1645 -6.3219 -2.0014 0.9710
4.0317 -5.8067 -2.0012 0.9710
4.2363 -5.6590 -2.0012 0.9710
4.6291 -5.3422 -2.0011 0.9710
4.8167 -5.1735 -2.0011 0.9710
4.9982 -4.9982 -2.0011 0.9710
5.1734 -4.8166 -2.0010 0.9710
5.3419 -4.6288 -2.0010 0.9710
5.5037 -4.4351 -2.0010 0.9710
5.6584 -4.2358 -2.0010 0.9710
5.9460 -3.8213 -2.0009 0.9710
6.0785 -3.6065 -2.0009 0.9710
6.3202 -3.1637 -2.0008 0.9710
6.7059 -2.2319 -2.0008 0.9710
6.7812 -1.9912 -2.0008 0.9710
7.0494 -0.5042 -2.0007 0.9710
7.0629 -0.2522 -2.0007 0.9710
-6.4955 -0.4646 -2.0030 0.9731
-6.4748 -0.6961 -2.0030 0.9731
-6.4458 -0.9268 -2.0030 0.9731
-6.4086 -1.1562 -2.0030 0.9731
-6.2482 -1.8346 -2.0029 0.9731
-6.1787 -2.0564 -2.0029 0.9731
-5.8230 -2.9148 -2.0029 0.9731
-5.7152 -3.1207 -2.0029 0.9731
-5.6001 -3.3227 -2.0028 0.9731
-5.4779 -3.5204 -2.0028 0.9731
-5.3487 -3.7137 -2.0028 0.9731
-4.9209 -4.2640 -2.0027 0.9731
-4.6040 -4.6040 -2.0027 0.9731
-4.4367 -4.7654 -2.0026 0.9731
-3.9017 -5.2121 -2.0025 0.9731
-3.7131 -5.3479 -2.0025 0.9731
-3.3221 -5.5990 -2.0025 0.9731
-3.1200 -5.7139 -2.0024 0.9731
-2.9141 -5.8215 -2.0024 0.9731
-2.2749 -6.0994 -2.0023 0.9731
-2.0558 -6.1766 -2.0022 0.9731
-1.8340 -6.2459 -2.0022 0.9731
-1.6098 -6.3072 -2.0022 0.9731
-1.3837 -6.3606 -2.0021 0.9731
-0.4643 -6.4922 -2.0020 0.9731
-0.2323 -6.5046 -2.0019 0.9731
0.0000 -6.5086 -2.0019 0.9731
0.2323 -6.5043 -2.0019 0.9731
1.3833 -6.3591 -2.0017 0.9731
1.6094 -6.3055 -2.0016 0.9731
1.8334 -6.2440 -2.0016 0.9731
2.9127 -5.8187 -2.0014 0.9731
3.1184 -5.7109 -2.0014 0.9731
3.3202 -5.5959 -2.0013 0.9731
3.5178 -5.4738 -2.0013 0.9731
4.0825 -5.0661 -2.0012 0.9731
4.4334 -4.7618 -2.0012 0.9731
4.6005 -4.6005 -2.0011 0.9731
4.7617 -4.4333 -2.0011 0.9731
4.9168 -4.2604 -2.0011 0.9731
5.3439 -3.7103 -2.0010 0.9731
5.4729 -3.5172 -2.0010 0.9731
5.7097 -3.1178 -2.0009 0.9731
5.8173 -2.9119 -2.0009 0.9731
6.0101 -2.4895 -2.0009 0.9731
6.0951 -2.2734 -2.0009 0.9731
6.3031 -1.6088 -2.0008 0.9731
6.4389 -0.9257 -2.0008 0.9731
6.4885 -0.4641 -2.0008 0.9731
6.5009 -0.2322 -2.0008 0.9731
-6.0255 -0.0000 -2.0029 0.9749
-6.0217 -0.2151 -2.0029 0.9749
-5.9641 -0.8575 -2.0029 0.9749
-5.9297 -1.0698 -2.0029 0.9749
-5.8877 -1.2808 -2.0029 0.9749
-5.8382 -1.4901 -2.0029 0.9749
-5.7813 -1.6975 -2.0029 0.9749
-5.6454 -2.1056 -2.0028 0.9749
-5.5666 -2.3058 -2.0028 0.9749
-5.2881 -2.8875 -2.0028 0.9749
-4.6912 -3.7804 -2.0027 0.9749
-4.5532 -3.9454 -2.0027 0.9749
-4.4094 -4.1053 -2.0026 0.9749
-4.2600 -4.2600 -2.0026 0.9749
-4.1052 -4.4093 -2.0026 0.9749
-3.7801 -4.6908 -2.0025 0.9749
-3.4357 -4.9484 -2.0025 0.9749
-3.2569 -5.0678 -2.0024 0.9749
-2.8870 -5.2870 -2.0024 0.9749
-2.6964 -5.3866 -2.0023 0.9749
-2.3051 -5.5651 -2.0023 0.9749
-2.1050 -5.6437 -2.0022 0.9749
-1.9022 -5.7152 -2.0022 0.9749
-1.6970 -5.7793 -2.0022 0.9749
-1.4896 -5.8361 -2.0021 0.9749
-0.8572 -5.9616 -2.0020 0.9749
-0.4296 -6.0073 -2.0020 0.9749
0.2149 -6.0185 -2.0019 0.9749
0.4296 -6.0069 -2.0018 0.9749
0.8570 -5.9607 -2.0018 0.9749
1.0692 -5.9262 -2.0017 0.9749
1.2800 -5.8842 -2.0017 0.9749
1.4892 -5.8346 -2.0016 0.9749
1.9016 -5.7134 -2.0016 0.9749
2.1043 -5.6417 -2.0015 0.9749
2.5013 -5.4771 -2.0015 0.9749
2.8856 -5.2845 -2.0014 0.9749
3.0723 -5.1781 -2.0014 0.9749
3.4338 -4.9455 -2.0013 0.9749
3.7777 -4.6879 -2.0013 0.9749
4.2570 -4.2570 -2.0012 0.9749
4.6875 -3.7774 -2.0011 0.9749
4.9449 -3.4333 -2.0011 0.9749
5.4757 -2.5007 -2.0010 0.9749
5.6401 -2.1037 -2.0010 0.9749
5.7115 -1.9010 -2.0009 0.9749
5.7757 -1.6959 -2.0009 0.9749
5.8819 -1.2795 -2.0009 0.9749
5.9582 -0.8566 -2.0009 0.9749
6.0041 -0.4294 -2.0009 0.9749
-5.6007 0.0000 -2.0028 0.9765
-5.5971 -0.1999 -2.0028 0.9765
-5.5686 -0.5987 -2.0028 0.9765
-5.5116 -0.9944 -2.0028 0.9765
-5.4266 -1.3850 -2.0028 0.9765
-5.0943 -2.3265 -2.0028 0.9765
-5.0080 -2.5068 -2.0027 0.9765
-4.9153 -2.6839 -2.0027 0.9765
-4.4831 -3.3560 -2.0026 0.9765
-4.3605 -3.5139 -2.0026 0.9765
-4.0986 -3.8159 -2.0026 0.9765
-3.9597 -3.9597 -2.0026 0.9765
-3.6671 -4.2320 -2.0025 0.9765
-3.3557 -4.4827 -2.0025 0.9765
-3.1935 -4.5996 -2.0024 0.9765
-3.0273 -4.7105 -2.0024 0.9765
-2.5063 -5.0069 -2.0023 0.9765
-2.3260 -5.0931 -2.0023 0.9765
-2.1427 -5.1728 -2.0023 0.9765
-1.5773 -5.3720 -2.0022 0.9765
-1.3846 -5.4248 -2.0021 0.9765
-0.9940 -5.5095 -2.0021 0.9765
-0.5984 -5.5662 -2.0020 0.9765
-0.1998 -5.5946 -2.0019 0.9765
0.7966 -5.5407 -2.0018 0.9765
0.9939 -5.5086 -2.0017 0.9765
1.1898 -5.4695 -2.0017 0.9765
1.3843 -5.4235 -2.0017 0.9765
1.5769 -5.3706 -2.0016 0.9765
1.7676 -5.3108 -2.0016 0.9765
2.1419 -5.1710 -2.0015 0.9765
2.3251 -5.0912 -2.0015 0.9765
2.5052 -5.0048 -2.0015 0.9765
2.6823 -4.9122 -2.0014 0.9765
3.0258 -4.7082 -2.0014 0.9765
3.1918 -4.5971 -2.0014 0.9765
3.3538 -4.4802 -2.0013 0.9765
3.6648 -4.2294 -2.0013 0.9765
3.8134 -4.0959 -2.0013 0.9765
3.9571 -3.9571 -2.0012 0.9765
4.0958 -3.8133 -2.0012 0.9765
4.3573 -3.5113 -2.0012 0.9765
4.5966 -3.1915 -2.0011 0.9765
4.7075 -3.0253 -2.0011 0.9765
4.8125 -2.8554 -2.0011 0.9765
5.0038 -2.5047 -2.0011 0.9765
5.3092 -1.7671 -2.0010 0.9765
5.3689 -1.5765 -2.0010 0.9765
5.4217 -1.3838 -2.0010 0.9765
5.5385 -0.7963 -2.0010 0.9765
5.5812 -0.3992 -2.0010 0.9765
-5.2262 0.0000 -2.0028 0.9779
-5.2229 -0.1865 -2.0028 0.9779
-5.2129 -0.3728 -2.0028 0.9779
-5.1962 -0.5586 -2.0028 0.9779
-5.1730 -0.7437 -2.0028 0.9779
-5.1431 -0.9279 -2.0028 0.9779
-5.1067 -1.1109 -2.0028 0.9779
-5.0144 -1.4724 -2.0027 0.9779
-4.8965 -1.8263 -2.0027 0.9779
-4.8282 -1.9999 -2.0027 0.9779
-4.4943 -2.6666 -2.0027 0.9779
-4.3962 -2.8253 -2.0026 0.9779
-4.1834 -3.1317 -2.0026 0.9779
-3.9493 -3.4221 -2.0026 0.9779
-3.8246 -3.5608 -2.0025 0.9779
-3.6950 -3.6950 -2.0025 0.9779
-3.1314 -4.1830 -2.0024 0.9779
-2.9801 -4.2921 -2.0024 0.9779
-2.8249 -4.3957 -2.0024 0.9779
-2.6662 -4.4936 -2.0023 0.9779
-2.1705 -4.7527 -2.0023 0.9779
-1.9994 -4.8271 -2.0022 0.9779
-1.6499 -4.9573 -2.0022 0.9779
-1.4719 -5.0129 -2.0021 0.9779
-0.9276 -5.1413 -2.0021 0.9779
-0.5585 -5.1942 -2.0020 0.9779
-0.3727 -5.2108 -2.0020 0.9779
-0.1865 -5.2207 -2.0019 0.9779
0.0000 -5.2239 -2.0019 0.9779
0.1864 -5.2205 -2.0019 0.9779
0.3726 -5.2104 -2.0018 0.9779
0.5584 -5.1937 -2.0018 0.9779
0.7434 -5.1704 -2.0018 0.9779
1.1103 -5.1041 -2.0017 0.9779
1.6495 -4.9559 -2.0016 0.9779
1.8253 -4.8938 -2.0016 0.9779
1.9988 -4.8255 -2.0016 0.9779
2.1697 -4.7510 -2.0015 0.9779
2.5030 -4.5839 -2.0015 0.9779
2.8236 -4.3936 -2.0014 0.9779
2.9786 -4.2900 -2.0014 0.9779
3.2769 -4.0664 -2.0013 0.9779
3.4200 -3.9468 -2.0013 0.9779
3.5586 -3.8222 -2.0013 0.9779
3.9467 -3.4198 -2.0012 0.9779
4.0662 -3.2767 -2.0012 0.9779
4.1805 -3.1295 -2.0012 0.9779
4.5832 -2.5026 -2.0011 0.9779
4.7500 -2.1692 -2.0011 0.9779
4.8243 -1.9983 -2.0011 0.9779
5.0595 -1.2913 -2.0011 0.9779
5.1387 -0.9271 -2.0010 0.9779
5.1917 -0.5582 -2.0010 0.9779
5.2183 -0.1864 -2.0010 0.9779
-1.9524 -0.1396 -0.8011 0.9916
-1.9569 -0.2104 -0.8055 0.9915
-1.9449 -0.2796 -0.8042 0.9915
-4.7815 -1.0401 -2.0027 0.9791
-4.7413 -1.2101 -2.0027 0.9791
-4.5847 -1.7100 -2.0027 0.9791
-4.5207 -1.8725 -2.0027 0.9791
-4.4510 -2.0327 -2.0026 0.9791
-4.2081 -2.4968 -2.0026 0.9791
-4.0192 -2.7906 -2.0026 0.9791
-3.8098 -3.0701 -2.0025 0.9791
-3.2040 -3.6976 -2.0024 0.9791
-3.0699 -3.8096 -2.0024 0.9791
-2.6450 -4.1157 -2.0023 0.9791
-2.4964 -4.2075 -2.0023 0.9791
-2.3446 -4.2939 -2.0023 0.9791
-2.1898 -4.3748 -2.0023 0.9791
-2.0323 -4.4500 -2.0022 0.9791
-1.7096 -4.5836 -2.0022 0.9791
-1.3782 -4.6937 -2.0021 0.9791
-1.2098 -4.7399 -2.0021 0.9791
-0.5229 -4.8635 -2.0020 0.9791
-0.3490 -4.8790 -2.0020 0.9791
0.3489 -4.8787 -2.0018 0.9791
0.5228 -4.8631 -2.0018 0.9791
0.6961 -4.8412 -2.0018 0.9791
1.2095 -4.7389 -2.0017 0.9791
1.5445 -4.6404 -2.0016 0.9791
1.8715 -4.5183 -2.0016 0.9791
2.3437 -4.2922 -2.0015 0.9791
2.4954 -4.2057 -2.0015 0.9791
2.7890 -4.0169 -2.0014 0.9791
3.0684 -3.8076 -2.0014 0.9791
3.2023 -3.6956 -2.0014 0.9791
3.3321 -3.5789 -2.0013 0.9791
3.4577 -3.4577 -2.0013 0.9791
3.6955 -3.2021 -2.0013 0.9791
3.8074 -3.0682 -2.0013 0.9791
3.9144 -2.9303 -2.0012 0.9791
4.0165 -2.7887 -2.0012 0.9791
4.1134 -2.6435 -2.0012 0.9791
4.3724 -2.1886 -2.0012 0.9791
4.4477 -2.0312 -2.0012 0.9791
4.5173 -1.8711 -2.0011 0.9791
4.6913 -1.3775 -2.0011 0.9791
4.7375 -1.2092 -2.0011 0.9791
4.7776 -1.0393 -2.0011 0.9791
4.8862 -0.1745 -2.0011 0.9791
-1.5284 -0.0546 -0.6665 0.9933
-1.5293 -0.1094 -0.6682 0.9933
-1.5214 -0.3310 -0.6786 0.9932
-1.5485 -0.3952 -0.6965 0.9931
-1.5707 -0.4612 -0.7134 0.9929
-1.5984 -0.5962 -0.7435 0.9926
-4.1798 -1.9088 -2.0026 0.9801
-4.1090 -2.0568 -2.0026 0.9801
-3.9517 -2.3447 -2.0026 0.9802
-3.6784 -2.7536 -2.0025 0.9802
-3.3629 -3.1309 -2.0025 0.9802
-3.2489 -3.2489 -2.0024 0.9802
-3.0088 -3.4724 -2.0024 0.9802
-2.8829 -3.5775 -2.0024 0.9802
-2.7534 -3.6781 -2.0024 0.9802
-2.2018 -4.0323 -2.0023 0.9802
-2.0565 -4.1083 -2.0022 0.9802
-1.9085 -4.1790 -2.0022 0.9802
-1.7581 -4.2444 -2.0022 0.9802
-1.6055 -4.3044 -2.0022 0.9802
-1.2943 -4.4079 -2.0021 0.9802
-1.1361 -4.4512 -2.0021 0.9802
-0.9765 -4.4888 -2.0021 0.9802
-0.8156 -4.5208 -2.0020 0.9802
-0.6538 -4.5469 -2.0020 0.9802
-0.4910 -4.5673 -2.0020 0.9802
-0.3277 -4.5818 -2.0020 0.9802
-0.1639 -4.5906 -2.0019 0.9802
0.0000 -4.5935 -2.0019 0.9802
0.1639 -4.5904 -2.0019 0.9802
0.3277 -4.5816 -2.0018 0.9802
0.4910 -4.5669 -2.0018 0.9802
0.6537 -4.5464 -2.0018 0.9802
0.8155 -4.5201 -2.0018 0.9802
1.1359 -4.4503 -2.0017 0.9802
1.4504 -4.3578 -2.0017 0.9802
1.9079 -4.1777 -2.0016 0.9802
2.7521 -3.6764 -2.0014 0.9802
2.8815 -3.5758 -2.0014 0.9802
3.1292 -3.3610 -2.0014 0.9802
3.2472 -3.2472 -2.0014 0.9802
3.4705 -3.0072 -2.0013 0.9802
3.7720 -2.6189 -2.0013 0.9802
3.9491 -2.3431 -2.0012 0.9802
4.1062 -2.0554 -2.0012 0.9802
4.2423 -1.7572 -2.0012 0.9802
4.4057 -1.2936 -2.0012 0.9802
4.5450 -0.6535 -2.0011 0.9802
4.5800 -0.3276 -2.0011 0.9802
4.5887 -0.1639 -2.0011 0.9802
-1.3376 -0.0478 -0.6195 0.9941
-1.3273 -0.1908 -0.6207 0.9941
-1.3013 -0.2831 -0.6164 0.9941
-1.3116 -0.3348 -0.6266 0.9941
-1.3241 -0.3888 -0.6388 0.9939
-1.3324 -0.4435 -0.6500 0.9938
-1.3324 -0.4969 -0.6582 0.9938
-1.3263 -0.5494 -0.6645 0.9937
-1.3150 -0.6006 -0.6692 0.9936
-3.8686 -1.9365 -2.0025 0.9811
-3.7206 -2.2075 -2.0025 0.9811
-3.6394 -2.3389 -2.0025 0.9811
-3.5536 -2.4673 -2.0025 0.9811
-3.4632 -2.5925 -2.0025 0.9811
-3.2694 -2.8329 -2.0024 0.9811
-3.1662 -2.9478 -2.0024 0.9811
-2.9477 -3.1661 -2.0024 0.9811
-2.8328 -3.2693 -2.0024 0.9811
-2.4671 -3.5532 -2.0023 0.9811
-2.3386 -3.6390 -2.0023 0.9811
-2.0730 -3.7965 -2.0022 0.9811
-1.7969 -3.9346 -2.0022 0.9811
-1.5116 -4.0527 -2.0022 0.9811
-1.2186 -4.1501 -2.0021 0.9811
-0.9194 -4.2263 -2.0021 0.9811
-0.6155 -4.2810 -2.0020 0.9811
-0.3085 -4.3139 -2.0019 0.9811
0.0000 -4.3248 -2.0019 0.9811
0.1544 -4.3220 -2.0019 0.9811
0.3085 -4.3137 -2.0018 0.9811
0.4623 -4.2999 -2.0018 0.9811
0.6154 -4.2806 -2.0018 0.9811
0.9192 -4.2257 -2.0017 0.9811
1.2183 -4.1492 -2.0017 0.9811
1.6548 -3.9951 -2.0016 0.9811
2.0723 -3.7952 -2.0016 0.9811
2.2064 -3.7187 -2.0015 0.9811
2.3377 -3.6376 -2.0015 0.9811
2.7131 -3.3667 -2.0014 0.9811
3.0573 -3.0573 -2.0014 0.9811
3.1645 -2.9462 -2.0014 0.9811
3.3665 -2.7129 -2.0013 0.9811
3.4612 -2.5910 -2.0013 0.9811
3.5515 -2.4658 -2.0013 0.9811
3.7183 -2.2062 -2.0013 0.9811
3.9327 -1.7960 -2.0012 0.9811
3.9943 -1.6545 -2.0012 0.9811
4.0508 -1.5109 -2.0012 0.9811
4.1021 -1.3653 -2.0012 0.9811
4.1482 -1.2180 -2.0012 0.9811
4.2546 -0.7676 -2.0012 0.9811
4.2985 -0.4621 -2.0012 0.9811
-1.1954 0.0000 -0.5864 0.9947
-1.1965 -0.0427 -0.5873 0.9947
-1.1953 -0.0855 -0.5878 0.9947
-1.1921 -0.1282 -0.5881 0.9947
-1.1695 -0.2544 -0.5871 0.9947
-1.1484 -0.4757 -0.6097 0.9945
-1.1292 -0.5652 -0.6194 0.9944
-1.1113 -0.6068 -0.6211 0.9944
-3.2680 -2.4464 -2.0024 0.9820
-3.1786 -2.5615 -2.0024 0.9820
-2.8865 -2.8865 -2.0024 0.9820
-2.7816 -2.9877 -2.0024 0.9820
-2.3280 -3.3530 -2.0023 0.9820
-2.2068 -3.4339 -2.0023 0.9820
-1.9562 -3.5825 -2.0022 0.9820
-1.5620 -3.7710 -2.0022 0.9820
-1.4264 -3.8243 -2.0021 0.9820
-1.2890 -3.8727 -2.0021 0.9820
-1.0094 -3.9547 -2.0021 0.9820
-0.8676 -3.9882 -2.0020 0.9820
-0.7247 -4.0165 -2.0020 0.9820
-0.5808 -4.0398 -2.0020 0.9820
-0.4363 -4.0579 -2.0020 0.9820
-0.2912 -4.0708 -2.0019 0.9820
-0.1457 -4.0786 -2.0019 0.9820
0.0000 -4.0812 -2.0019 0.9820
0.1457 -4.0785 -2.0019 0.9820
0.5808 -4.0394 -2.0018 0.9820
0.7246 -4.0161 -2.0018 0.9820
0.8675 -3.9876 -2.0018 0.9820
1.2887 -3.8719 -2.0017 0.9820
1.4260 -3.8234 -2.0017 0.9820
1.5616 -3.7700 -2.0016 0.9820
1.6951 -3.7118 -2.0016 0.9820
1.8265 -3.6489 -2.0016 0.9820
2.0821 -3.5092 -2.0016 0.9820
2.2060 -3.4327 -2.0015 0.9820
2.3271 -3.3517 -2.0015 0.9820
2.4452 -3.2664 -2.0015 0.9820
2.6720 -3.0836 -2.0015 0.9820
2.9862 -2.7803 -2.0014 0.9820
3.1769 -2.5601 -2.0014 0.9820
3.2662 -2.4451 -2.0014 0.9820
3.4323 -2.2058 -2.0013 0.9820
3.5809 -1.9553 -2.0013 0.9820
3.6484 -1.8262 -2.0013 0.9820
3.8226 -1.4257 -2.0013 0.9820
3.8710 -1.2884 -2.0013 0.9820
3.9146 -1.1494 -2.0012 0.9820
3.9866 -0.8672 -2.0012 0.9820
4.0149 -0.7244 -2.0012 0.9820
4.0383 -0.5806 -2.0012 0.9820
4.0564 -0.4361 -2.0012 0.9820
4.0694 -0.2910 -2.0012 0.9820
4.0772 -0.1456 -2.0012 0.9820
-1.1055 -0.0791 -0.5750 0.9950
-1.1024 -0.1185 -0.5752 0.9950
-1.0905 -0.1967 -0.5749 0.9950
-1.0814 -0.2353 -0.5741 0.9950
-1.0636 -0.3123 -0.5751 0.9950
-1.0617 -0.3534 -0.5805 0.9950
-1.0576 -0.3945 -0.5856 0.9949
-1.0298 -0.5155 -0.5974 0.9948
-0.9917 -0.5884 -0.5982 0.9948
-3.1706 -2.2014 -2.0024 0.9828
-3.0054 -2.4219 -2.0024 0.9828
-2.9170 -2.5276 -2.0024 0.9828
-2.7292 -2.7292 -2.0024 0.9828
-2.4218 -3.0053 -2.0023 0.9828
-2.2012 -3.1704 -2.0023 0.9828
-2.0866 -3.2468 -2.0022 0.9828
-1.9694 -3.3192 -2.0022 0.9828
-1.8496 -3.3874 -2.0022 0.9828
-1.7275 -3.4512 -2.0022 0.9828
-1.4769 -3.5656 -2.0021 0.9828
-1.2188 -3.6618 -2.0021 0.9828
-1.0873 -3.7029 -2.0021 0.9828
-0.9544 -3.7393 -2.0021 0.9828
-0.6852 -3.7978 -2.0020 0.9828
-0.5492 -3.8198 -2.0020 0.9828
-0.2753 -3.8491 -2.0019 0.9828
0.0000 -3.8589 -2.0019 0.9828
0.2753 -3.8489 -2.0019 0.9828
0.4125 -3.8366 -2.0018 0.9828
0.5492 -3.8194 -2.0018 0.9828
0.6851 -3.7973 -2.0018 0.9828
0.8202 -3.7704 -2.0018 0.9828
0.9542 -3.7387 -2.0017 0.9828
1.0871 -3.7022 -2.0017 0.9828
1.2185 -3.6610 -2.0017 0.9828
1.3484 -3.6151 -2.0017 0.9828
1.6028 -3.5097 -2.0016 0.9828
1.7270 -3.4502 -2.0016 0.9828
1.9687 -3.3181 -2.0016 0.9828
2.0859 -3.2457 -2.0015 0.9828
2.2004 -3.1692 -2.0015 0.9828
2.3121 -3.0886 -2.0015 0.9828
2.6289 -2.8237 -2.0015 0.9828
2.7280 -2.7280 -2.0014 0.9828
2.8236 -2.6289 -2.0014 0.9828
3.0039 -2.4207 -2.0014 0.9828
3.0884 -2.3119 -2.0014 0.9828
3.3178 -1.9685 -2.0013 0.9828
3.3859 -1.8488 -2.0013 0.9828
3.4497 -1.7268 -2.0013 0.9828
3.5091 -1.6025 -2.0013 0.9828
3.5641 -1.4763 -2.0013 0.9828
3.7014 -1.0868 -2.0013 0.9828
3.7378 -0.9540 -2.0013 0.9828
3.7695 -0.8200 -2.0013 0.9828
3.8184 -0.5490 -2.0013 0.9828
3.8478 -0.2752 -2.0013 0.9828
-1.0269 0.0000 -0.5625 0.9953
-1.0276 -0.0367 -0.5632 0.9953
-1.0236 -0.1100 -0.5639 0.9953
-0.9938 -0.2537 -0.5618 0.9953
-0.9677 -0.4008 -0.5737 0.9952
-0.9580 -0.4375 -0.5768 0.9952
-0.9434 -0.4722 -0.5778 0.9952
-0.9269 -0.5061 -0.5784 0.9952
-0.9084 -0.5390 -0.5785 0.9952
-2.9268 -2.1909 -2.0024 0.9835
-2.8467 -2.2940 -2.0024 0.9835
-2.6757 -2.4912 -2.0023 0.9835
-2.3940 -2.7629 -2.0023 0.9835
-2.2939 -2.8465 -2.0023 0.9835
-2.1908 -2.9266 -2.0023 0.9835
-1.9764 -3.0754 -2.0022 0.9835
-1.8654 -3.1439 -2.0022 0.9835
-1.2775 -3.4250 -2.0021 0.9835
-1.1544 -3.4684 -2.0021 0.9835
-0.9040 -3.5418 -2.0020 0.9835
-0.7770 -3.5718 -2.0020 0.9835
-0.2608 -3.6458 -2.0019 0.9835
-0.1305 -3.6528 -2.0019 0.9835
0.0000 -3.6551 -2.0019 0.9835
0.2607 -3.6457 -2.0019 0.9835
0.3907 -3.6340 -2.0018 0.9835
0.5202 -3.6177 -2.0018 0.9835
0.7769 -3.5713 -2.0018 0.9835
0.9039 -3.5412 -2.0017 0.9835
1.2772 -3.4243 -2.0017 0.9835
1.5182 -3.3244 -2.0016 0.9835
1.8648 -3.1429 -2.0016 0.9835
2.0842 -3.0018 -2.0015 0.9835
2.1900 -2.9255 -2.0015 0.9835
2.2930 -2.8454 -2.0015 0.9835
2.4901 -2.6746 -2.0015 0.9835
2.6745 -2.4901 -2.0015 0.9835
2.7617 -2.3930 -2.0014 0.9835
2.8453 -2.2929 -2.0014 0.9835
2.9253 -2.1899 -2.0014 0.9835
3.0016 -2.0841 -2.0014 0.9835
3.0741 -1.9756 -2.0014 0.9835
3.1426 -1.8646 -2.0014 0.9835
3.2676 -1.6356 -2.0014 0.9835
3.4236 -1.2770 -2.0013 0.9835
3.5060 -1.0295 -2.0013 0.9835
3.5405 -0.9036 -2.0013 0.9835
3.6168 -0.5200 -2.0013 0.9835
3.6447 -0.2607 -2.0013 0.9835
3.6516 -0.1304 -2.0013 0.9835
-0.9575 -0.0342 -0.5532 0.9956
-0.9565 -0.0684 -0.5536 0.9956
-0.9353 -0.2034 -0.5526 0.9956
-0.9259 -0.2363 -0.5517 0.9956
-0.9058 -0.3015 -0.5511 0.9956
-0.8941 -0.3703 -0.5587 0.9955
-0.8687 -0.4348 -0.5609 0.9955
-0.8534 -0.4660 -0.5614 0.9955
-0.8178 -0.5256 -0.5613 0.9955
-0.7846 -0.5873 -0.5658 0.9955
-0.7671 -0.6182 -0.5688 0.9955
-2.2711 -2.6210 -2.0023 0.9841
-2.1761 -2.7003 -2.0023 0.9841
-2.0783 -2.7763 -2.0022 0.9841
-1.8749 -2.9174 -2.0022 0.9841
-1.7696 -2.9824 -2.0022 0.9841
-1.5523 -3.1010 -2.0022 0.9841
-1.3271 -3.2038 -2.0021 0.9841
-1.0951 -3.2902 -2.0021 0.9841
-0.9770 -3.3272 -2.0021 0.9841
-0.8576 -3.3599 -2.0020 0.9841
-0.7371 -3.3884 -2.0020 0.9841
-0.2474 -3.4586 -2.0019 0.9841
0.0000 -3.4674 -2.0019 0.9841
0.1238 -3.4652 -2.0019 0.9841
0.2474 -3.4585 -2.0019 0.9841
0.3706 -3.4474 -2.0018 0.9841
0.4934 -3.4320 -2.0018 0.9841
0.7370 -3.3879 -2.0018 0.9841
0.8574 -3.3595 -2.0018 0.9841
0.9768 -3.3267 -2.0017 0.9841
1.0949 -3.2897 -2.0017 0.9841
1.2116 -3.2484 -2.0017 0.9841
1.4402 -3.1537 -2.0017 0.9841
1.7690 -2.9816 -2.0016 0.9841
1.8743 -2.9165 -2.0016 0.9841
1.9772 -2.8477 -2.0016 0.9841
2.0776 -2.7753 -2.0016 0.9841
2.1753 -2.6994 -2.0015 0.9841
2.2702 -2.6200 -2.0015 0.9841
2.5372 -2.3622 -2.0015 0.9841
2.6199 -2.2702 -2.0015 0.9841
2.9813 -1.7689 -2.0014 0.9841
3.0425 -1.6613 -2.0014 0.9841
1.8508 -0.8452 -1.1747 0.9906
1.8620 -0.7713 -1.1636 0.9907
1.8682 -0.6968 -1.1512 0.9908
1.9883 -0.4325 -1.1748 0.9906
2.0153 -0.3636 -1.1823 0.9906
2.0366 -0.2189 -1.1826 0.9906
2.0359 -0.1456 -1.1784 0.9906
2.0320 -0.0726 -1.1739 0.9907
