ply
format ascii 1.0
element vertex 825
property float32 x
property float32 y
property float32 z
property float32 I
end_header
4.0984 -7.5056 0.3372 0.9663
4.0994 -6.3788 0.2990 0.9701
4.0999 -5.9049 0.2835 0.9716
6.7788 -5.8739 0.3537 0.9647
7.8496 -5.8761 0.3866 0.9615
4.0983 -7.5056 0.1445 0.9664
4.7299 -5.8694 0.1273 0.9703
5.0866 -5.8702 0.1312 0.9694
5.4661 -5.8710 0.1355 0.9684
6.7786 -5.8736 0.1515 0.9648
7.2901 -5.8747 0.1582 0.9632
3.5041 -7.0003 -0.0441 0.9692
4.0994 -6.3787 -0.0427 0.9701
4.7298 -5.8693 -0.0424 0.9703
5.4659 -5.8708 -0.0452 0.9684
5.8717 -5.8717 -0.0468 0.9673
6.3076 -5.8726 -0.0485 0.9661
7.2898 -5.8745 -0.0527 0.9632
7.8486 -5.8754 -0.0552 0.9615
3.2965 -7.2183 -0.2234 0.9687
3.4233 -6.2693 -0.2011 0.9718
3.7060 -6.2461 -0.2045 0.9714
4.0096 -6.2390 -0.2088 0.9708
4.0998 -5.9048 -0.2024 0.9716
4.7298 -5.8693 -0.2122 0.9703
5.0863 -5.8699 -0.2187 0.9694
5.8716 -5.8715 -0.2338 0.9673
6.3075 -5.8725 -0.2427 0.9661
6.7780 -5.8732 -0.2525 0.9647
3.1514 -7.6081 -0.4176 0.9676
3.2011 -6.3950 -0.3627 0.9718
4.3934 -5.8689 -0.3718 0.9711
6.7778 -5.8730 -0.4548 0.9647
7.2892 -5.8740 -0.4748 0.9632
7.8475 -5.8746 -0.4971 0.9615
-1.0515 -9.7801 -0.7212 0.9613
-0.3492 -9.7768 -0.7173 0.9615
-0.0000 -9.7893 -0.7178 0.9615
0.3507 -9.8185 -0.7204 0.9614
0.7064 -9.8764 -0.7260 0.9611
3.1117 -6.2165 -0.5097 0.9725
3.1677 -5.8013 -0.4846 0.9738
3.9550 -6.1542 -0.5364 0.9711
4.3935 -5.8690 -0.5375 0.9710
4.7298 -5.8693 -0.5527 0.9702
5.4655 -5.8704 -0.5881 0.9683
5.8712 -5.8712 -0.6088 0.9672
7.2888 -5.8737 -0.6864 0.9632
7.8469 -5.8741 -0.7187 0.9614
-1.3700 -9.5288 -0.9242 0.9621
0.0000 -9.6725 -0.9286 0.9619
1.0479 -9.7471 -0.9412 0.9614
2.5665 -6.8809 -0.7051 0.9709
2.8394 -6.2175 -0.6562 0.9729
3.0766 -6.1463 -0.6599 0.9728
3.1677 -5.8012 -0.6346 0.9738
3.6394 -6.1339 -0.6847 0.9717
3.9385 -6.1283 -0.6994 0.9712
4.0997 -5.9047 -0.6901 0.9715
4.3935 -5.8690 -0.7038 0.9710
4.7299 -5.8694 -0.7237 0.9702
5.0862 -5.8698 -0.7457 0.9693
5.8711 -5.8711 -0.7971 0.9672
6.3068 -5.8719 -0.8273 0.9660
7.8464 -5.8737 -0.9410 0.9614
-1.0192 -7.0885 -0.8507 0.9716
-1.0328 -9.6062 -1.1477 0.9618
-0.4800 -6.7109 -0.7992 0.9733
-0.3427 -9.5966 -1.1407 0.9621
0.0000 -9.5961 -1.1399 0.9621
0.3423 -9.5850 -1.1393 0.9621
0.6851 -9.5794 -1.1408 0.9621
2.0741 -7.0637 -0.8745 0.9708
2.3137 -6.2032 -0.7864 0.9737
2.5452 -6.1446 -0.7900 0.9736
2.8012 -6.1338 -0.8010 0.9732
3.3423 -6.1209 -0.8284 0.9723
3.9283 -6.1126 -0.8631 0.9712
4.0997 -5.9047 -0.8539 0.9715
4.3935 -5.8691 -0.8709 0.9709
4.7299 -5.8695 -0.8954 0.9701
5.0863 -5.8699 -0.9226 0.9692
5.4655 -5.8703 -0.9527 0.9682
6.3066 -5.8717 -1.0236 0.9659
6.7770 -5.8723 -1.0652 0.9645
7.2878 -5.8729 -1.1118 0.9630
-1.7276 -9.5755 -1.3787 0.9615
-0.9621 -6.6915 -0.9579 0.9731
-0.4877 -6.8183 -0.9686 0.9728
0.0000 -9.5562 -1.3540 0.9621
0.3407 -9.5391 -1.3525 0.9622
0.6828 -9.5467 -1.3561 0.9621
1.4020 -9.7511 -1.3958 0.9610
2.0016 -6.8168 -1.0066 0.9717
2.2867 -6.1310 -0.9272 0.9739
3.3374 -6.1121 -0.9867 0.9723
3.9281 -6.1122 -1.0295 0.9711
4.3936 -5.8691 -1.0388 0.9708
5.0863 -5.8699 -1.1005 0.9691
6.3064 -5.8715 -1.2209 0.9658
6.7767 -5.8721 -1.2705 0.9644
7.2873 -5.8725 -1.3261 0.9629
-2.4363 -9.5455 -1.6229 0.9608
-2.0765 -9.5456 -1.6093 0.9612
-1.7289 -9.5825 -1.6041 0.9613
-1.0281 -9.5633 -1.5845 0.9618
-0.2449 -6.8582 -1.1305 0.9726
0.6828 -9.5467 -1.5767 0.9619
1.0326 -9.6045 -1.5914 0.9616
2.5378 -6.1269 -1.0925 0.9735
3.3389 -6.1146 -1.1477 0.9722
3.6295 -6.1172 -1.1718 0.9716
5.0864 -5.8700 -1.2795 0.9690
6.3385 -5.9014 -1.4267 0.9655
6.8559 -5.9407 -1.4945 0.9639
7.2868 -5.8721 -1.5417 0.9628
-2.0765 -9.5456 -1.8362 0.9610
-1.2603 -6.9852 -1.3341 0.9715
-0.9916 -6.8971 -1.3097 0.9720
-0.2440 -6.8323 -1.2850 0.9726
0.0000 -6.8620 -1.2898 0.9725
0.3410 -9.5466 -1.7955 0.9619
0.6828 -9.5468 -1.7990 0.9618
2.0313 -6.9181 -1.3552 0.9711
2.2882 -6.1350 -1.2307 0.9737
2.9223 -6.3989 -1.3222 0.9718
3.3417 -6.1199 -1.3106 0.9720
3.6322 -6.1218 -1.3379 0.9714
3.9360 -6.1245 -1.3684 0.9708
6.3385 -5.9014 -1.6278 0.9654
-9.4558 -0.3377 -2.0000 0.9621
-9.4377 -0.6750 -2.0000 0.9621
-9.3656 -1.3466 -2.0001 0.9621
-9.3116 -1.6800 -2.0001 0.9621
-9.2457 -2.0113 -2.0001 0.9621
-8.9780 -2.9882 -2.0001 0.9621
-8.3053 -4.5350 -2.0002 0.9621
-8.1383 -4.8287 -2.0003 0.9621
-7.7733 -5.3971 -2.0003 0.9620
-7.5758 -5.6712 -2.0004 0.9620
-7.3687 -5.9381 -2.0004 0.9620
-6.1980 -7.1529 -2.0006 0.9620
-5.6722 -7.5772 -2.0007 0.9620
-5.1175 -7.9629 -2.0008 0.9620
-3.9326 -8.6111 -2.0010 0.9620
-3.6228 -8.7462 -2.0011 0.9620
-2.6673 -9.0842 -2.0013 0.9620
-2.0126 -9.2519 -2.0014 0.9620
-0.4900 -6.8506 -1.4518 0.9723
0.0000 -6.8068 -1.4388 0.9726
0.6756 -9.4465 -2.0019 0.9620
1.3479 -9.3748 -2.0020 0.9620
1.6817 -9.3210 -2.0021 0.9620
2.3425 -9.1778 -2.0022 0.9620
2.1020 -6.3155 -1.4070 0.9732
2.2890 -6.1371 -1.3846 0.9736
2.5117 -6.0638 -1.3874 0.9735
2.7694 -6.0641 -1.4092 0.9731
4.3937 -5.8693 -1.5498 0.9705
5.9454 -7.3778 -2.0029 0.9620
6.2051 -7.1610 -2.0029 0.9620
6.1676 -6.1676 -1.8437 0.9650
7.5865 -5.6792 -2.0032 0.9620
7.7845 -5.4049 -2.0032 0.9620
7.9726 -5.1237 -2.0032 0.9620
8.1505 -4.8359 -2.0033 0.9620
8.3180 -4.5420 -2.0033 0.9620
8.4750 -4.2423 -2.0033 0.9620
8.7563 -3.6269 -2.0034 0.9620
8.8802 -3.3122 -2.0034 0.9620
9.0941 -2.6703 -2.0035 0.9620
9.3276 -1.6829 -2.0035 0.9620
9.3818 -1.3489 -2.0035 0.9620
9.4723 -0.3383 -2.0035 0.9620
-8.4890 -0.6071 -2.0002 0.9656
-8.4241 -1.2112 -2.0002 0.9656
-8.3756 -1.5111 -2.0002 0.9656
-8.3163 -1.8091 -2.0002 0.9656
-8.2465 -2.1048 -2.0003 0.9656
-8.0755 -2.6878 -2.0003 0.9656
-7.9745 -2.9743 -2.0003 0.9656
-7.8633 -3.2571 -2.0003 0.9656
-7.7421 -3.5357 -2.0003 0.9656
-7.4704 -4.0791 -2.0004 0.9656
-7.3201 -4.3432 -2.0004 0.9656
-6.6279 -5.3411 -2.0006 0.9656
-6.4332 -5.5744 -2.0006 0.9656
-6.0193 -6.0193 -2.0007 0.9656
-5.8008 -6.2305 -2.0007 0.9656
-4.6029 -7.1622 -2.0009 0.9656
-2.1060 -8.2512 -2.0014 0.9656
-1.2365 -6.8534 -1.6367 0.9718
-0.7363 -6.8484 -1.6188 0.9721
-0.4875 -6.8162 -1.6060 0.9723
-0.2428 -6.7991 -1.5990 0.9724
0.0000 -6.9496 -1.6333 0.9718
0.9106 -8.4693 -2.0019 0.9656
1.2123 -8.4316 -2.0020 0.9656
1.8108 -8.3241 -2.0021 0.9656
2.4002 -8.1742 -2.0022 0.9656
2.5434 -7.6416 -1.8928 0.9674
2.3462 -6.2905 -1.5779 0.9728
2.5117 -6.0638 -1.5426 0.9734
3.0356 -6.0643 -1.5938 0.9725
4.0835 -7.4783 -2.0025 0.9656
4.8598 -6.9995 -2.0027 0.9656
5.1067 -6.8217 -2.0027 0.9656
5.3470 -6.6352 -2.0028 0.9656
5.8070 -6.2371 -2.0028 0.9656
6.0260 -6.0260 -2.0029 0.9656
6.2374 -5.8072 -2.0029 0.9656
6.4408 -5.5810 -2.0030 0.9656
6.6360 -5.3477 -2.0030 0.9656
6.8228 -5.1075 -2.0030 0.9656
7.0009 -4.8608 -2.0031 0.9656
7.1700 -4.6079 -2.0031 0.9656
7.4807 -4.0848 -2.0032 0.9656
7.7532 -3.5408 -2.0032 0.9656
8.0875 -2.6918 -2.0033 0.9656
8.2591 -2.1080 -2.0033 0.9656
8.3885 -1.5134 -2.0033 0.9656
8.4752 -0.9112 -2.0033 0.9656
8.5023 -0.6081 -2.0034 0.9656
8.5187 -0.3042 -2.0034 0.9656
-7.7258 -0.0000 -2.0004 0.9686
-7.7209 -0.2758 -2.0004 0.9686
-7.7062 -0.5512 -2.0004 0.9686
-7.6816 -0.8258 -2.0004 0.9686
-7.6032 -1.3718 -2.0004 0.9686
-7.5494 -1.6423 -2.0004 0.9686
-7.4131 -2.1767 -2.0004 0.9686
-7.3307 -2.4399 -2.0004 0.9686
-7.2390 -2.7000 -2.0004 0.9686
-7.1381 -2.9567 -2.0005 0.9686
-6.7814 -3.7029 -2.0005 0.9686
-6.6450 -3.9426 -2.0006 0.9686
-6.5001 -4.1774 -2.0006 0.9686
-6.0166 -4.8485 -2.0007 0.9686
-5.8398 -5.0602 -2.0007 0.9686
-5.6556 -5.2655 -2.0007 0.9686
-5.2657 -5.6558 -2.0008 0.9686
-4.4075 -6.3481 -2.0010 0.9686
-3.9436 -6.6466 -2.0010 0.9686
-2.7011 -7.2420 -2.0013 0.9686
-2.4410 -7.3340 -2.0013 0.9686
-1.9117 -7.4898 -2.0014 0.9686
-1.5114 -6.9478 -1.8410 0.9710
0.2760 -7.7266 -2.0018 0.9686
0.5516 -7.7120 -2.0019 0.9686
0.8265 -7.6876 -2.0019 0.9686
1.9123 -7.4925 -2.0021 0.9686
2.1786 -7.4196 -2.0022 0.9686
2.3515 -6.3048 -1.7423 0.9726
2.5117 -6.0638 -1.6994 0.9732
2.7694 -6.0641 -1.7261 0.9728
3.7065 -6.7879 -2.0025 0.9685
4.1815 -6.5065 -2.0025 0.9685
4.4111 -6.3533 -2.0026 0.9685
4.6352 -6.1919 -2.0026 0.9685
5.2708 -5.6613 -2.0027 0.9685
5.6614 -5.2710 -2.0028 0.9685
5.8461 -5.0657 -2.0029 0.9685
6.0233 -4.8538 -2.0029 0.9685
6.1928 -4.6359 -2.0029 0.9685
6.3544 -4.4119 -2.0030 0.9685
6.6531 -3.9475 -2.0030 0.9685
6.7899 -3.7075 -2.0030 0.9685
7.0372 -3.2138 -2.0031 0.9685
7.5599 -1.6446 -2.0032 0.9685
7.6138 -1.3737 -2.0032 0.9685
7.6580 -1.1011 -2.0032 0.9685
7.6925 -0.8270 -2.0032 0.9685
7.7319 -0.2761 -2.0032 0.9685
-7.0620 -0.2522 -2.0005 0.9711
-7.0485 -0.5041 -2.0005 0.9711
-7.0260 -0.7554 -2.0005 0.9711
-6.9946 -1.0057 -2.0005 0.9711
-6.9543 -1.2547 -2.0005 0.9711
-6.8471 -1.7476 -2.0005 0.9710
-6.6212 -2.4696 -2.0006 0.9710
-6.5289 -2.7044 -2.0006 0.9710
-6.3195 -3.1633 -2.0006 0.9710
-5.8052 -4.0307 -2.0007 0.9710
-5.6577 -4.2353 -2.0007 0.9710
-5.5030 -4.4346 -2.0008 0.9710
-5.1728 -4.8161 -2.0008 0.9710
-4.8162 -5.1730 -2.0009 0.9710
-4.6286 -5.3417 -2.0009 0.9710
-4.2359 -5.6585 -2.0010 0.9710
-3.8216 -5.9465 -2.0011 0.9710
-3.3878 -6.2042 -2.0011 0.9710
-2.4705 -6.6237 -2.0013 0.9710
-2.2326 -6.7078 -2.0014 0.9710
-1.5028 -6.9085 -2.0015 0.9710
-1.2553 -6.9579 -2.0015 0.9710
-1.0062 -6.9985 -2.0016 0.9710
-0.7558 -7.0301 -2.0016 0.9710
-0.2524 -7.0664 -2.0017 0.9710
0.2524 -7.0667 -2.0018 0.9710
0.5045 -7.0534 -2.0019 0.9710
0.7559 -7.0311 -2.0019 0.9710
1.2556 -6.9595 -2.0020 0.9710
1.5033 -6.9104 -2.0021 0.9710
1.9925 -6.7859 -2.0021 0.9710
4.0343 -5.8105 -2.0025 0.9710
4.2392 -5.6629 -2.0026 0.9710
4.4387 -5.5081 -2.0026 0.9710
5.5087 -4.4392 -2.0028 0.9710
5.6637 -4.2398 -2.0028 0.9710
5.8115 -4.0350 -2.0029 0.9710
6.0847 -3.6102 -2.0029 0.9710
6.7134 -2.2344 -2.0030 0.9710
6.9139 -1.5040 -2.0031 0.9710
6.9632 -1.2563 -2.0031 0.9710
7.0037 -1.0070 -2.0031 0.9710
7.0352 -0.7563 -2.0031 0.9710
7.0712 -0.2525 -2.0031 0.9710
-6.5043 0.0000 -2.0006 0.9731
-6.3557 -1.3826 -2.0006 0.9731
-6.3024 -1.6086 -2.0006 0.9731
-6.1716 -2.0541 -2.0006 0.9731
-6.0094 -2.4892 -2.0007 0.9731
-5.9168 -2.7021 -2.0007 0.9731
-5.7091 -3.1174 -2.0007 0.9731
-5.0652 -4.0818 -2.0008 0.9731
-4.9163 -4.2600 -2.0009 0.9731
-4.7612 -4.4328 -2.0009 0.9731
-4.4330 -4.7613 -2.0010 0.9731
-4.0821 -5.0656 -2.0010 0.9731
-3.8988 -5.2082 -2.0011 0.9731
-3.7105 -5.3441 -2.0011 0.9731
-3.5174 -5.4732 -2.0011 0.9731
-3.3199 -5.5954 -2.0012 0.9731
-3.1181 -5.7104 -2.0012 0.9731
-2.9124 -5.8182 -2.0012 0.9731
-2.0549 -6.1740 -2.0014 0.9731
-1.3832 -6.3586 -2.0015 0.9731
-0.9261 -6.4414 -2.0016 0.9731
0.2323 -6.5042 -2.0018 0.9731
0.4643 -6.4919 -2.0019 0.9731
0.9263 -6.4425 -2.0019 0.9731
1.1557 -6.4054 -2.0020 0.9731
2.0557 -6.1763 -2.0022 0.9731
3.5197 -5.4768 -2.0024 0.9731
3.7130 -5.3478 -2.0025 0.9731
3.9016 -5.2119 -2.0025 0.9731
4.7654 -4.4367 -2.0027 0.9731
5.0699 -4.0856 -2.0027 0.9731
5.3486 -3.7136 -2.0028 0.9731
5.7151 -3.1207 -2.0028 0.9731
5.8229 -2.9147 -2.0029 0.9731
5.9233 -2.7051 -2.0029 0.9731
6.1787 -2.0564 -2.0029 0.9731
6.4086 -1.1562 -2.0030 0.9731
6.4458 -0.9267 -2.0030 0.9731
6.4748 -0.6961 -2.0030 0.9731
6.5080 -0.2324 -2.0030 0.9731
-6.0149 -0.2148 -2.0007 0.9749
-5.9575 -0.8566 -2.0007 0.9749
-5.8319 -1.4885 -2.0007 0.9749
-5.7751 -1.6957 -2.0007 0.9749
-5.7109 -1.9008 -2.0007 0.9749
-5.0637 -3.2543 -2.0008 0.9749
-4.6870 -3.7770 -2.0009 0.9749
-4.5493 -3.9420 -2.0009 0.9749
-4.2566 -4.2566 -2.0010 0.9749
-3.9422 -4.5495 -2.0010 0.9749
-3.7774 -4.6874 -2.0011 0.9749
-3.4334 -4.9451 -2.0011 0.9749
-3.2548 -5.0646 -2.0012 0.9749
-2.8853 -5.2841 -2.0012 0.9749
-2.5011 -5.4766 -2.0013 0.9749
-1.9014 -5.7129 -2.0014 0.9749
-1.6963 -5.7772 -2.0015 0.9749
-1.2799 -5.8838 -2.0015 0.9749
-1.0691 -5.9258 -2.0016 0.9749
-0.8570 -5.9603 -2.0016 0.9749
0.2150 -6.0184 -2.0018 0.9749
0.4296 -6.0070 -2.0019 0.9749
0.8571 -5.9612 -2.0019 0.9749
1.2802 -5.8851 -2.0020 0.9749
1.4895 -5.8358 -2.0021 0.9749
1.9021 -5.7149 -2.0021 0.9749
2.1049 -5.6435 -2.0022 0.9749
2.3050 -5.5649 -2.0022 0.9749
2.5022 -5.4792 -2.0022 0.9749
2.8869 -5.2869 -2.0023 0.9749
3.0738 -5.1805 -2.0023 0.9749
3.2568 -5.0676 -2.0024 0.9749
3.4356 -4.9483 -2.0024 0.9749
3.7800 -4.6907 -2.0025 0.9749
4.1051 -4.4092 -2.0025 0.9749
4.2600 -4.2599 -2.0026 0.9749
4.4093 -4.1052 -2.0026 0.9749
4.5531 -3.9453 -2.0026 0.9749
4.8231 -3.6105 -2.0027 0.9749
5.2881 -2.8875 -2.0028 0.9749
5.4807 -2.5029 -2.0028 0.9749
5.7813 -1.6975 -2.0028 0.9749
5.8382 -1.4901 -2.0029 0.9749
5.8877 -1.2808 -2.0029 0.9749
5.9297 -1.0698 -2.0029 0.9749
5.9909 -0.6441 -2.0029 0.9749
6.0101 -0.4299 -2.0029 0.9749
-5.5948 -0.0000 -2.0007 0.9765
-5.5628 -0.5981 -2.0008 0.9765
-5.5060 -0.9934 -2.0008 0.9765
-5.3683 -1.5763 -2.0008 0.9765
-5.0033 -2.5045 -2.0009 0.9765
-4.9108 -2.6815 -2.0009 0.9765
-4.5961 -3.1911 -2.0009 0.9765
-4.3568 -3.5110 -2.0010 0.9765
-3.9567 -3.9567 -2.0010 0.9765
-3.5112 -4.3572 -2.0011 0.9765
-2.6820 -4.9118 -2.0013 0.9765
-2.5050 -5.0044 -2.0013 0.9765
-2.3249 -5.0908 -2.0013 0.9765
-1.9558 -5.2438 -2.0014 0.9765
-1.7675 -5.3104 -2.0015 0.9765
-1.3842 -5.4231 -2.0015 0.9765
-1.1897 -5.4692 -2.0016 0.9765
-0.7966 -5.5403 -2.0016 0.9765
-0.5983 -5.5653 -2.0017 0.9765
-0.1998 -5.5940 -2.0017 0.9765
0.1998 -5.5942 -2.0018 0.9765
0.7967 -5.5411 -2.0019 0.9765
1.3845 -5.4245 -2.0020 0.9765
1.5773 -5.3717 -2.0021 0.9765
2.3259 -5.0929 -2.0022 0.9765
2.5062 -5.0068 -2.0022 0.9765
2.6834 -4.9142 -2.0023 0.9765
2.8571 -4.8154 -2.0023 0.9765
3.0272 -4.7104 -2.0023 0.9765
3.6670 -4.2319 -2.0025 0.9765
3.9596 -3.9596 -2.0025 0.9765
4.4831 -3.3560 -2.0026 0.9765
4.8162 -2.8576 -2.0027 0.9765
4.9152 -2.6839 -2.0027 0.9765
5.0079 -2.5068 -2.0027 0.9765
5.1741 -2.1432 -2.0027 0.9765
5.2473 -1.9572 -2.0027 0.9765
5.3139 -1.7686 -2.0028 0.9765
5.3736 -1.5778 -2.0028 0.9765
5.4725 -1.1905 -2.0028 0.9765
5.5116 -0.9944 -2.0028 0.9765
5.5436 -0.7970 -2.0028 0.9765
5.5863 -0.3996 -2.0028 0.9765
-5.2078 -0.3725 -2.0008 0.9779
-5.1912 -0.5581 -2.0008 0.9779
-5.1680 -0.7430 -2.0008 0.9779
-5.0590 -1.2912 -2.0008 0.9779
-5.0097 -1.4710 -2.0009 0.9779
-4.8920 -1.8246 -2.0009 0.9779
-4.4905 -2.6643 -2.0010 0.9779
-4.2891 -2.9780 -2.0010 0.9779
-3.6924 -3.6924 -2.0011 0.9779
-3.5583 -3.8219 -2.0011 0.9779
-3.4196 -3.9465 -2.0011 0.9779
-3.1295 -4.1805 -2.0012 0.9779
-2.9783 -4.2896 -2.0012 0.9779
-2.6648 -4.4913 -2.0013 0.9779
-2.3377 -4.6701 -2.0013 0.9779
-2.1695 -4.7506 -2.0014 0.9779
-1.9986 -4.8251 -2.0014 0.9779
-1.8251 -4.8934 -2.0014 0.9779
-1.6494 -4.9555 -2.0015 0.9779
-1.1103 -5.1037 -2.0016 0.9779
-0.9274 -5.1402 -2.0016 0.9779
-0.5583 -5.1934 -2.0017 0.9779
-0.1864 -5.2202 -2.0017 0.9779
0.5584 -5.1939 -2.0019 0.9779
0.9276 -5.1410 -2.0019 0.9779
1.1105 -5.1048 -2.0020 0.9779
1.6499 -4.9570 -2.0021 0.9779
1.8258 -4.8951 -2.0021 0.9779
1.9994 -4.8269 -2.0021 0.9779
2.1704 -4.7525 -2.0022 0.9779
2.3387 -4.6721 -2.0022 0.9779
2.5040 -4.5857 -2.0022 0.9779
2.6661 -4.4935 -2.0023 0.9779
2.8248 -4.3955 -2.0023 0.9779
3.4218 -3.9490 -2.0024 0.9779
3.5606 -3.8244 -2.0024 0.9779
3.6949 -3.6949 -2.0025 0.9779
3.8245 -3.5607 -2.0025 0.9779
4.3962 -2.8252 -2.0026 0.9779
4.4942 -2.6666 -2.0026 0.9779
4.6731 -2.3392 -2.0026 0.9779
4.7536 -2.1709 -2.0027 0.9779
4.8281 -1.9999 -2.0027 0.9779
4.8965 -1.8263 -2.0027 0.9779
4.9585 -1.6504 -2.0027 0.9779
5.1430 -0.9279 -2.0027 0.9779
5.2128 -0.3728 -2.0027 0.9779
-1.8977 0.0000 -0.7767 0.9918
-1.9308 -0.0690 -0.7907 0.9917
-1.9525 -0.1396 -0.8011 0.9916
-1.9569 -0.2104 -0.8055 0.9915
-1.9449 -0.2796 -0.8042 0.9915
-2.1703 -0.3916 -0.9026 0.9905
-4.7370 -1.2091 -2.0009 0.9791
-4.6909 -1.3774 -2.0009 0.9791
-4.6388 -1.5439 -2.0009 0.9791
-4.5168 -1.8709 -2.0009 0.9791
-4.2047 -2.4948 -2.0010 0.9791
-4.1130 -2.6433 -2.0010 0.9791
-4.0161 -2.7884 -2.0010 0.9791
-3.9141 -2.9300 -2.0011 0.9791
-3.8070 -3.0679 -2.0011 0.9791
-3.2020 -3.6953 -2.0012 0.9791
-2.6436 -4.1136 -2.0013 0.9791
-2.4952 -4.2054 -2.0013 0.9791
-2.1889 -4.3728 -2.0014 0.9791
-2.0314 -4.4482 -2.0014 0.9791
-1.8714 -4.5179 -2.0014 0.9791
-1.5444 -4.6401 -2.0015 0.9791
-0.5228 -4.8628 -2.0017 0.9791
-0.3489 -4.8784 -2.0017 0.9791
0.0000 -4.8910 -2.0018 0.9791
0.8685 -4.8137 -2.0019 0.9791
1.0398 -4.7797 -2.0020 0.9791
1.3781 -4.6935 -2.0020 0.9791
1.5448 -4.6414 -2.0021 0.9791
2.0322 -4.4499 -2.0022 0.9791
2.1898 -4.3746 -2.0022 0.9791
2.3445 -4.2937 -2.0022 0.9791
2.9319 -3.9165 -2.0023 0.9791
3.0698 -3.8095 -2.0023 0.9791
3.2039 -3.6975 -2.0024 0.9791
3.5809 -3.3339 -2.0024 0.9791
3.6977 -3.2040 -2.0025 0.9791
3.9169 -2.9321 -2.0025 0.9791
4.0191 -2.7905 -2.0025 0.9791
4.3755 -2.1902 -2.0026 0.9791
4.4509 -2.0326 -2.0026 0.9791
4.5206 -1.8725 -2.0026 0.9791
4.6427 -1.5452 -2.0026 0.9791
4.6950 -1.3786 -2.0026 0.9791
4.7814 -1.0401 -2.0027 0.9791
4.8155 -0.8688 -2.0027 0.9791
4.8434 -0.6964 -2.0027 0.9791
4.8652 -0.5231 -2.0027 0.9791
4.8808 -0.3491 -2.0027 0.9791
4.8901 -0.1747 -2.0027 0.9791
-1.5284 -0.0546 -0.6665 0.9933
-1.5249 -0.1640 -0.6684 0.9933
-1.5984 -0.5962 -0.7435 0.9926
-4.1765 -1.9073 -2.0010 0.9802
-3.8626 -2.4824 -2.0011 0.9802
-3.6758 -2.7517 -2.0011 0.9802
-3.5752 -2.8811 -2.0011 0.9802
-3.3607 -3.1289 -2.0012 0.9802
-3.1290 -3.3607 -2.0012 0.9802
-3.0070 -3.4703 -2.0012 0.9802
-2.6190 -3.7720 -2.0013 0.9802
-2.4827 -3.8631 -2.0013 0.9802
-2.3432 -3.9493 -2.0013 0.9802
-2.2008 -4.0305 -2.0014 0.9802
-1.7574 -4.2428 -2.0015 0.9802
-1.1358 -4.4500 -2.0016 0.9802
-0.8155 -4.5199 -2.0016 0.9802
-0.4910 -4.5666 -2.0017 0.9802
-0.3277 -4.5813 -2.0017 0.9802
-0.1639 -4.5902 -2.0017 0.9802
0.0000 -4.5931 -2.0018 0.9802
0.9764 -4.4886 -2.0020 0.9802
1.1360 -4.4509 -2.0020 0.9802
1.2942 -4.4076 -2.0020 0.9802
1.6054 -4.3042 -2.0021 0.9802
1.7580 -4.2442 -2.0021 0.9802
2.0564 -4.1081 -2.0022 0.9802
2.2017 -4.0321 -2.0022 0.9802
2.6202 -3.7738 -2.0023 0.9802
2.8828 -3.5774 -2.0023 0.9802
3.0087 -3.4723 -2.0023 0.9802
3.1308 -3.3627 -2.0024 0.9802
3.7742 -2.6205 -2.0025 0.9802
3.9516 -2.3446 -2.0025 0.9802
4.0328 -2.2021 -2.0025 0.9802
4.1797 -1.9088 -2.0026 0.9802
4.2452 -1.7584 -2.0026 0.9802
4.3053 -1.6058 -2.0026 0.9802
4.3599 -1.4511 -2.0026 0.9801
4.4089 -1.2946 -2.0026 0.9801
4.5221 -0.8159 -2.0026 0.9801
4.5483 -0.6540 -2.0026 0.9801
4.5688 -0.4912 -2.0026 0.9801
-1.3333 0.0000 -0.6172 0.9941
-1.3351 -0.1435 -0.6215 0.9941
-1.3160 -0.2374 -0.6190 0.9941
-1.3013 -0.2831 -0.6164 0.9941
-1.3241 -0.3888 -0.6388 0.9939
-1.3324 -0.4435 -0.6500 0.9938
-1.3263 -0.5494 -0.6645 0.9937
-3.7942 -2.0718 -2.0011 0.9811
-3.6368 -2.3373 -2.0011 0.9811
-3.5511 -2.4656 -2.0011 0.9811
-3.3662 -2.7127 -2.0012 0.9811
-3.2673 -2.8311 -2.0012 0.9811
-3.0571 -3.0571 -2.0012 0.9811
-2.9460 -3.1643 -2.0012 0.9811
-2.7128 -3.3665 -2.0013 0.9811
-2.5910 -3.4612 -2.0013 0.9811
-2.4658 -3.5515 -2.0013 0.9811
-2.3375 -3.6373 -2.0013 0.9811
-2.2062 -3.7184 -2.0014 0.9811
-2.0721 -3.7948 -2.0014 0.9811
-1.6547 -3.9948 -2.0015 0.9811
-1.2182 -4.1489 -2.0016 0.9811
-1.0694 -4.1898 -2.0016 0.9811
-0.9192 -4.2254 -2.0016 0.9811
-0.6154 -4.2803 -2.0017 0.9811
-0.4623 -4.2996 -2.0017 0.9811
-0.3085 -4.3134 -2.0017 0.9811
0.1544 -4.3219 -2.0018 0.9811
0.3085 -4.3137 -2.0018 0.9811
0.4623 -4.3000 -2.0019 0.9811
0.6155 -4.2808 -2.0019 0.9811
1.2185 -4.1499 -2.0020 0.9811
1.5115 -4.0525 -2.0021 0.9811
2.5922 -3.4628 -2.0023 0.9811
2.7142 -3.3681 -2.0023 0.9811
2.8327 -3.2692 -2.0023 0.9811
2.9476 -3.1660 -2.0023 0.9811
3.0588 -3.0588 -2.0023 0.9811
3.1661 -2.9477 -2.0024 0.9811
3.2693 -2.8329 -2.0024 0.9811
3.3683 -2.7144 -2.0024 0.9811
3.4631 -2.5925 -2.0024 0.9811
3.7205 -2.2075 -2.0025 0.9811
3.7969 -2.0733 -2.0025 0.9811
3.8685 -1.9364 -2.0025 0.9811
3.9352 -1.7971 -2.0025 0.9811
3.9969 -1.6556 -2.0025 0.9811
4.0534 -1.5118 -2.0025 0.9811
4.1510 -1.2188 -2.0025 0.9811
4.2575 -0.7681 -2.0026 0.9811
4.2823 -0.6157 -2.0026 0.9811
4.3235 -0.1544 -2.0026 0.9811
-1.1954 0.0000 -0.5864 0.9947
-1.1965 -0.0427 -0.5873 0.9947
-1.1921 -0.1282 -0.5881 0.9947
-1.1867 -0.1706 -0.5881 0.9947
-1.1791 -0.2127 -0.5877 0.9947
-1.1695 -0.2544 -0.5871 0.9947
-1.1578 -0.2955 -0.5861 0.9947
-1.1590 -0.3403 -0.5925 0.9946
-1.1579 -0.3854 -0.5986 0.9946
-1.1400 -0.5206 -0.6148 0.9944
-1.1291 -0.5652 -0.6194 0.9944
-1.1113 -0.6068 -0.6211 0.9944
-3.5085 -2.0817 -2.0011 0.9820
-3.0833 -2.6717 -2.0012 0.9820
-2.8849 -2.8849 -2.0012 0.9820
-2.6718 -3.0834 -2.0013 0.9820
-2.5600 -3.1768 -2.0013 0.9820
-2.2059 -3.4324 -2.0014 0.9820
-2.0820 -3.5090 -2.0014 0.9820
-1.5615 -3.7697 -2.0015 0.9820
-1.4259 -3.8231 -2.0015 0.9820
-0.2911 -4.0704 -2.0017 0.9820
-0.1456 -4.0783 -2.0018 0.9820
0.1457 -4.0784 -2.0018 0.9820
0.2911 -4.0706 -2.0018 0.9820
1.1498 -3.9160 -2.0020 0.9820
1.4263 -3.8241 -2.0020 0.9820
1.5619 -3.7708 -2.0021 0.9820
2.3279 -3.3529 -2.0022 0.9820
2.5613 -3.1783 -2.0023 0.9820
2.6731 -3.0849 -2.0023 0.9820
2.8864 -2.8864 -2.0023 0.9820
3.0850 -2.6732 -2.0023 0.9820
3.2679 -2.4463 -2.0024 0.9820
3.3532 -2.3282 -2.0024 0.9820
3.5829 -1.9564 -2.0024 0.9820
3.8735 -1.2892 -2.0025 0.9820
3.9556 -1.0096 -2.0025 0.9820
4.0409 -0.5810 -2.0025 0.9820
-1.1066 -0.0395 -0.5744 0.9950
-1.1055 -0.0791 -0.5750 0.9950
-1.1024 -0.1185 -0.5752 0.9950
-1.0905 -0.1967 -0.5749 0.9950
-1.0814 -0.2352 -0.5741 0.9950
-1.0704 -0.2732 -0.5731 0.9950
-1.0430 -0.4763 -0.5948 0.9948
-1.0298 -0.5155 -0.5974 0.9948
-3.2451 -2.0855 -2.0012 0.9828
-3.1686 -2.2000 -2.0012 0.9828
-3.0881 -2.3117 -2.0012 0.9828
-3.0037 -2.4205 -2.0012 0.9828
-2.6287 -2.8234 -2.0013 0.9828
-2.4206 -3.0038 -2.0013 0.9828
-2.3119 -3.0883 -2.0014 0.9828
-2.0857 -3.2455 -2.0014 0.9828
-1.9686 -3.3179 -2.0014 0.9828
-1.8489 -3.3861 -2.0014 0.9828
-1.7269 -3.4499 -2.0015 0.9828
-1.6027 -3.5094 -2.0015 0.9828
-1.3483 -3.6149 -2.0015 0.9828
-1.2184 -3.6608 -2.0016 0.9828
-0.9542 -3.7384 -2.0016 0.9828
-0.8201 -3.7702 -2.0016 0.9828
-0.5491 -3.8192 -2.0017 0.9828
-0.4125 -3.8364 -2.0017 0.9828
0.2753 -3.8489 -2.0018 0.9828
0.4125 -3.8367 -2.0019 0.9828
0.6852 -3.7976 -2.0019 0.9828
0.9544 -3.7391 -2.0020 0.9828
1.3486 -3.6158 -2.0020 0.9828
1.4769 -3.5654 -2.0021 0.9828
1.8496 -3.3872 -2.0021 0.9828
2.0865 -3.2467 -2.0022 0.9828
2.4217 -3.0051 -2.0022 0.9828
2.6300 -2.8248 -2.0023 0.9828
2.7292 -2.7292 -2.0023 0.9828
2.8249 -2.6300 -2.0023 0.9828
2.9170 -2.5276 -2.0023 0.9828
3.0053 -2.4218 -2.0023 0.9828
3.0899 -2.3131 -2.0024 0.9828
3.1705 -2.2013 -2.0024 0.9828
3.2471 -2.0868 -2.0024 0.9828
3.3195 -1.9696 -2.0024 0.9828
3.5111 -1.6034 -2.0024 0.9828
3.6624 -1.2190 -2.0025 0.9828
3.7401 -0.9546 -2.0025 0.9828
3.7718 -0.8205 -2.0025 0.9828
3.7987 -0.6854 -2.0025 0.9828
3.8207 -0.5493 -2.0025 0.9828
3.8379 -0.4126 -2.0025 0.9828
3.8502 -0.2754 -2.0025 0.9828
3.8576 -0.1378 -2.0025 0.9828
-1.0265 -0.0734 -0.5637 0.9953
-1.0190 -0.1465 -0.5638 0.9953
-0.9938 -0.2537 -0.5618 0.9953
-0.9820 -0.2883 -0.5606 0.9953
-0.9785 -0.3257 -0.5648 0.9953
-0.9741 -0.3633 -0.5694 0.9953
-0.9677 -0.4008 -0.5737 0.9952
-0.9084 -0.5390 -0.5785 0.9952
-0.8661 -0.6014 -0.5775 0.9952
-2.9251 -2.1897 -2.0012 0.9835
-2.6743 -2.4899 -2.0013 0.9835
-2.1898 -2.9253 -2.0014 0.9835
-2.0840 -3.0016 -2.0014 0.9835
-1.6357 -3.2678 -2.0015 0.9835
-1.5181 -3.3241 -2.0015 0.9835
-0.6489 -3.5966 -2.0017 0.9835
-0.3907 -3.6338 -2.0017 0.9835
-0.2607 -3.6454 -2.0017 0.9835
-0.1304 -3.6525 -2.0018 0.9835
0.0000 -3.6549 -2.0018 0.9835
0.1305 -3.6525 -2.0018 0.9835
0.5202 -3.6178 -2.0019 0.9835
0.6490 -3.5970 -2.0019 0.9835
1.1543 -3.4682 -2.0020 0.9835
1.5185 -3.3250 -2.0021 0.9835
1.6362 -3.2688 -2.0021 0.9835
1.7519 -3.2083 -2.0021 0.9835
2.0849 -3.0028 -2.0022 0.9835
2.2938 -2.8464 -2.0022 0.9835
2.3940 -2.7628 -2.0022 0.9835
2.4911 -2.6756 -2.0022 0.9835
2.5850 -2.5850 -2.0023 0.9835
2.8466 -2.2939 -2.0023 0.9835
2.9267 -2.1909 -2.0023 0.9835
3.0755 -1.9765 -2.0023 0.9835
3.2088 -1.7521 -2.0024 0.9835
3.4689 -1.1546 -2.0024 0.9835
3.5425 -0.9042 -2.0024 0.9835
3.6189 -0.5203 -2.0024 0.9835
3.6351 -0.3908 -2.0025 0.9835
3.6538 -0.1305 -2.0025 0.9835
-0.9570 0.0000 -0.5525 0.9956
-0.9565 -0.0684 -0.5536 0.9956
-0.9538 -0.1025 -0.5538 0.9956
-0.9492 -0.1365 -0.5537 0.9956
-0.9057 -0.3015 -0.5511 0.9956
-0.8823 -0.4029 -0.5600 0.9955
-0.8687 -0.4349 -0.5609 0.9955
-0.8364 -0.4963 -0.5615 0.9955
-0.8178 -0.5256 -0.5613 0.9955
-0.7846 -0.5873 -0.5658 0.9955
-0.7671 -0.6182 -0.5688 0.9955
-2.6197 -2.2700 -2.0013 0.9841
-2.5370 -2.3620 -2.0013 0.9841
-2.3621 -2.5370 -2.0013 0.9841
-2.2700 -2.6198 -2.0014 0.9841
-2.0774 -2.7751 -2.0014 0.9841
-1.9771 -2.8475 -2.0014 0.9841
-1.8742 -2.9163 -2.0014 0.9841
-1.7689 -2.9813 -2.0015 0.9841
-1.5517 -3.1000 -2.0015 0.9841
-1.4401 -3.1534 -2.0015 0.9841
-1.2115 -3.2482 -2.0016 0.9841
-1.0948 -3.2894 -2.0016 0.9841
-0.7369 -3.3877 -2.0016 0.9841
-0.6156 -3.4119 -2.0017 0.9841
-0.4934 -3.4317 -2.0017 0.9841
-0.3706 -3.4472 -2.0017 0.9841
-0.2473 -3.4583 -2.0017 0.9841
-0.1237 -3.4649 -2.0018 0.9841
0.0000 -3.4672 -2.0018 0.9841
0.3706 -3.4474 -2.0018 0.9841
0.4935 -3.4320 -2.0019 0.9841
0.7371 -3.3882 -2.0019 0.9841
0.9769 -3.3270 -2.0020 0.9841
1.3270 -3.2037 -2.0020 0.9841
1.4405 -3.1543 -2.0020 0.9841
1.6619 -3.0435 -2.0021 0.9841
2.1760 -2.7002 -2.0022 0.9841
2.2710 -2.6209 -2.0022 0.9841
2.3631 -2.5382 -2.0022 0.9841
2.6210 -2.2711 -2.0023 0.9841
2.7004 -2.1761 -2.0023 0.9841
2.7763 -2.0783 -2.0023 0.9841
2.9176 -1.8750 -2.0023 0.9841
2.9827 -1.7697 -2.0023 0.9841
3.0439 -1.6621 -2.0023 0.9841
1.8620 -0.7713 -1.1636 0.9907
1.8682 -0.6968 -1.1512 0.9908
1.9033 -0.6335 -1.1581 0.9908
1.9616 -0.5007 -1.1688 0.9907
1.9883 -0.4325 -1.1748 0.9906
2.0300 -0.2919 -1.1841 0.9906
2.0366 -0.2190 -1.1826 0.9906
