ply
format ascii 1.0
element vertex 767
property float32 x
property float32 y
property float32 z
property float32 I
end_header
-0.2149 6.0171 1.0617 0.9758
3.0137 4.6894 0.8540 0.9777
-0.0000 6.1434 0.9411 0.9754
-0.4340 6.0670 0.9318 0.9757
-0.2151 6.0225 0.7848 0.9760
3.0127 4.6878 0.4717 0.9779
-0.2153 6.0277 0.5106 0.9761
-0.2154 6.0304 0.3742 0.9761
3.0119 4.6867 0.2197 0.9779
3.0116 4.6861 0.0941 0.9780
-0.0000 6.1625 -0.0347 0.9757
-0.2157 6.0382 -0.0340 0.9761
3.0109 4.6850 -0.1568 0.9780
-0.0000 6.1652 -0.1736 0.9756
-0.2158 6.0408 -0.1702 0.9761
-0.4345 6.0755 -0.1715 0.9759
3.0105 4.6845 -0.2824 0.9779
-0.0000 6.1680 -0.3128 0.9756
-0.2159 6.0434 -0.3067 0.9761
-0.0000 6.1707 -0.4525 0.9756
3.0098 4.6834 -0.5345 0.9779
-0.0000 6.1735 -0.5927 0.9755
-0.2160 6.0487 -0.5811 0.9760
-0.6681 6.2137 -0.6000 0.9752
3.0095 4.6828 -0.6612 0.9778
-0.0000 6.1762 -0.7336 0.9754
-0.2161 6.0513 -0.7193 0.9759
-0.4348 6.0797 -0.7240 0.9757
3.0091 4.6823 -0.7886 0.9778
-0.0000 6.1790 -0.8755 0.9753
-0.2162 6.0540 -0.8583 0.9758
-0.4349 6.0808 -0.8638 0.9757
3.0088 4.6817 -0.9168 0.9777
-0.6684 6.2171 -1.0301 0.9750
3.0084 4.6811 -1.0459 0.9776
0.7475 6.9524 -1.3143 0.9719
-0.4351 6.0830 -1.1463 0.9755
9.4641 0.3380 -2.0018 0.9620
9.3737 1.3477 -2.0018 0.9620
9.3197 1.6814 -2.0018 0.9620
9.0865 2.6680 -2.0018 0.9620
8.9855 2.9907 -2.0018 0.9620
8.7493 3.6241 -2.0018 0.9620
8.6014 3.9281 -1.9988 0.9621
6.6130 5.7301 -1.8496 0.9649
6.4042 5.9625 -1.8496 0.9649
6.1873 6.1873 -1.8496 0.9649
5.9626 6.4042 -1.8496 0.9649
5.7302 6.6129 -1.8496 0.9649
4.9905 7.1876 -1.8496 0.9649
4.4650 7.5253 -1.8496 0.9649
4.1935 7.6799 -1.8496 0.9649
2.4653 8.3959 -1.8496 0.9649
2.1640 8.4785 -1.8496 0.9649
1.8600 8.5503 -1.8496 0.9649
1.2453 8.6613 -1.8496 0.9649
0.6242 8.7281 -1.8497 0.9649
-0.0000 6.1875 -1.3079 0.9750
-0.2165 6.0622 -1.2822 0.9755
-0.4352 6.0841 -1.2893 0.9754
-0.6687 6.2193 -1.3222 0.9748
-1.5537 8.6114 -1.8497 0.9649
-2.4653 8.3960 -1.8497 0.9649
-2.7634 8.3026 -1.8497 0.9649
-3.0580 8.1987 -1.8497 0.9649
-3.3487 8.0844 -1.8497 0.9649
-3.6351 7.9597 -1.8497 0.9649
-3.9169 7.8249 -1.8497 0.9649
-4.1937 7.6801 -1.8497 0.9649
-4.4651 7.5256 -1.8497 0.9649
-4.7309 7.3614 -1.8497 0.9649
-5.4907 6.8135 -1.8497 0.9649
-6.6132 5.7304 -1.8497 0.9649
-6.8136 5.4907 -1.8497 0.9649
-7.0052 5.2440 -1.8497 0.9649
-7.1879 4.9906 -1.8497 0.9649
-7.5256 4.4652 -1.8497 0.9649
-8.7497 3.6243 -2.0019 0.9620
-8.8735 3.3096 -2.0019 0.9620
-9.0870 2.6682 -2.0019 0.9620
-9.2542 2.0131 -2.0019 0.9620
-9.3742 1.3478 -2.0019 0.9620
-9.4164 1.0124 -2.0019 0.9620
-9.4465 0.6756 -2.0019 0.9620
-9.4646 0.3380 -2.0019 0.9620
8.5120 0.3040 -2.0018 0.9656
8.4957 0.6076 -2.0018 0.9656
8.4686 0.9105 -2.0018 0.9656
8.0816 2.6898 -2.0018 0.9656
7.9804 2.9766 -2.0018 0.9656
7.7478 3.5383 -2.0018 0.9656
7.6126 3.8106 -2.0008 0.9656
7.0954 4.2099 -1.9390 0.9667
6.4645 4.4884 -1.8496 0.9682
6.3002 4.7162 -1.8496 0.9682
6.1279 4.9381 -1.8496 0.9682
5.9477 5.1537 -1.8496 0.9682
5.7600 5.3627 -1.8496 0.9682
5.5649 5.5649 -1.8496 0.9682
5.3627 5.7600 -1.8496 0.9682
4.9382 6.1279 -1.8496 0.9682
4.7163 6.3002 -1.8496 0.9682
2.9435 4.5802 -1.2796 0.9779
3.2693 7.1588 -1.8496 0.9682
2.7503 7.3738 -1.8496 0.9682
2.4854 7.4673 -1.8496 0.9682
0.2673 7.4839 -1.7600 0.9697
-0.0000 6.1904 -1.4549 0.9749
-0.4352 6.0852 -1.4338 0.9752
-0.6688 6.2205 -1.4704 0.9746
-1.6729 7.6903 -1.8497 0.9682
-2.7503 7.3740 -1.8497 0.9682
-3.2694 7.1590 -1.8497 0.9682
-3.7718 6.9075 -1.8497 0.9682
-4.7164 6.3004 -1.8497 0.9682
-5.3629 5.7602 -1.8497 0.9682
-5.5651 5.5651 -1.8497 0.9682
-5.7602 5.3629 -1.8497 0.9682
-5.9479 5.1539 -1.8497 0.9682
-6.4648 4.4886 -1.8497 0.9682
-6.6209 4.2550 -1.8497 0.9682
-7.0953 4.2098 -1.9390 0.9667
-7.6130 3.8108 -2.0009 0.9656
-7.8695 3.2596 -2.0019 0.9656
-7.9808 2.9767 -2.0019 0.9656
-8.0820 2.6900 -2.0019 0.9656
-8.4312 1.2122 -2.0019 0.9656
7.7117 0.5516 -2.0018 0.9686
7.6871 0.8265 -2.0018 0.9686
7.3358 2.4416 -2.0018 0.9686
7.2440 2.7019 -2.0018 0.9686
7.1429 2.9587 -2.0018 0.9686
7.0328 3.2117 -2.0018 0.9686
6.9136 3.4607 -2.0018 0.9686
6.7857 3.7053 -2.0018 0.9686
6.6385 3.9388 -1.9986 0.9686
6.4813 4.1652 -1.9948 0.9687
6.0702 4.2146 -1.9134 0.9699
5.7188 4.2810 -1.8496 0.9709
5.5623 4.4824 -1.8496 0.9709
4.8678 5.2284 -1.8496 0.9709
4.4824 5.5624 -1.8496 0.9709
4.2810 5.7188 -1.8496 0.9709
2.9336 4.5648 -1.4050 0.9778
3.6452 6.1437 -1.8496 0.9709
3.1976 6.3881 -1.8496 0.9709
2.0126 6.8544 -1.8496 0.9709
1.7667 6.9218 -1.8496 0.9709
1.2684 7.0302 -1.8496 0.9709
0.7731 5.3773 -1.4066 0.9778
0.5809 5.4033 -1.4071 0.9778
0.1930 5.4035 -1.4000 0.9779
-0.0000 5.4037 -1.3991 0.9779
-0.3865 5.4039 -1.4028 0.9779
-0.7770 5.4042 -1.4136 0.9777
-0.9751 5.4043 -1.4219 0.9776
-1.1757 5.4045 -1.4320 0.9774
-2.2560 6.7782 -1.8497 0.9709
-2.4965 6.6934 -1.8497 0.9709
-2.7338 6.6000 -1.8497 0.9709
-3.1977 6.3882 -1.8497 0.9709
-3.4237 6.2700 -1.8497 0.9709
-3.8623 6.0098 -1.8497 0.9709
-4.6783 5.3990 -1.8497 0.9709
-5.2286 4.8680 -1.8497 0.9709
-5.3990 4.6782 -1.8497 0.9709
-5.7190 4.2812 -1.8497 0.9709
-6.0702 4.2146 -1.9134 0.9699
-6.6388 3.9389 -1.9987 0.9686
-6.7860 3.7054 -2.0019 0.9686
-7.0331 3.2119 -2.0019 0.9686
-7.1432 2.9588 -2.0019 0.9686
-7.2443 2.7020 -2.0019 0.9686
-7.4186 2.1783 -2.0019 0.9686
-7.4916 1.9121 -2.0019 0.9686
-7.5551 1.6435 -2.0019 0.9686
-7.6089 1.3728 -2.0019 0.9686
-7.7121 0.5516 -2.0019 0.9686
-7.7268 0.2760 -2.0019 0.9686
6.9588 1.2555 -2.0018 0.9710
6.7093 2.2331 -2.0018 0.9710
6.6254 2.4711 -2.0018 0.9710
6.4322 2.9375 -2.0018 0.9710
5.9451 3.8207 -2.0006 0.9710
5.6124 4.2014 -1.9847 0.9713
4.9378 4.2786 -1.8496 0.9732
4.7819 4.4521 -1.8496 0.9732
4.6200 4.6200 -1.8496 0.9732
3.9155 5.2304 -1.8496 0.9732
3.1538 4.5424 -1.5655 0.9773
3.1312 5.7345 -1.8496 0.9732
2.9246 5.8426 -1.8496 0.9732
2.7142 5.9432 -1.8496 0.9732
2.2833 6.1217 -1.8496 0.9732
1.8407 6.2690 -1.8496 0.9732
-0.1930 5.4038 -1.5308 0.9778
-0.3865 5.4039 -1.5337 0.9777
-0.7770 5.4042 -1.5456 0.9776
-1.3753 5.3884 -1.5743 0.9771
-1.8408 6.2691 -1.8497 0.9732
-2.2833 6.1218 -1.8497 0.9732
-3.3340 5.6192 -1.8497 0.9732
-3.5324 5.4966 -1.8497 0.9732
-3.9156 5.2306 -1.8497 0.9732
-4.2787 4.9379 -1.8497 0.9732
-4.4523 4.7821 -1.8497 0.9732
-4.6201 4.6201 -1.8497 0.9732
-5.6124 4.2014 -1.9847 0.9713
-5.7952 4.0237 -1.9972 0.9711
-5.9453 3.8208 -2.0007 0.9710
-6.0816 3.6084 -2.0019 0.9710
-6.2065 3.3890 -2.0019 0.9710
-6.3235 3.1653 -2.0019 0.9710
-6.5332 2.7061 -2.0019 0.9710
-6.6256 2.4712 -2.0019 0.9710
-6.7850 1.9923 -2.0019 0.9710
-6.8518 1.7488 -2.0019 0.9710
-6.9591 1.2556 -2.0019 0.9710
-6.9995 1.0064 -2.0019 0.9710
-7.0535 0.5045 -2.0019 0.9710
-7.0670 0.2524 -2.0019 0.9710
6.5083 -0.0000 -2.0018 0.9731
6.4710 0.6957 -2.0018 0.9731
6.3061 1.6095 -2.0018 0.9731
6.2447 1.8336 -2.0018 0.9731
6.1752 2.0553 -2.0018 0.9731
6.0979 2.2744 -2.0018 0.9731
5.9202 2.7036 -2.0018 0.9731
5.8199 2.9132 -2.0018 0.9731
5.5972 3.3210 -2.0018 0.9731
5.4751 3.5186 -2.0018 0.9731
5.3461 3.7118 -2.0018 0.9731
5.2038 3.8955 -1.9994 0.9732
4.8509 4.2033 -1.9743 0.9735
4.0977 4.4012 -1.8496 0.9751
3.9380 4.5447 -1.8496 0.9751
3.7733 4.6824 -1.8496 0.9751
3.1482 4.5342 -1.6978 0.9772
2.9139 4.5341 -1.6578 0.9777
2.8670 4.8321 -1.7282 0.9768
2.8820 5.2779 -1.8496 0.9751
2.4981 5.4701 -1.8496 0.9751
2.3013 5.5558 -1.8496 0.9751
1.8991 5.7058 -1.8496 0.9751
1.6942 5.7700 -1.8496 0.9751
1.4872 5.8268 -1.8496 0.9751
1.0677 5.9180 -1.8496 0.9751
0.7731 5.3773 -1.6709 0.9775
0.3865 5.4034 -1.6662 0.9776
-0.1930 5.4038 -1.6632 0.9776
-0.3865 5.4039 -1.6664 0.9776
-0.5810 5.4040 -1.6718 0.9775
-0.9751 5.4043 -1.6891 0.9773
-1.1757 5.4045 -1.7012 0.9771
-1.3723 5.3765 -1.7067 0.9770
-1.6942 5.7700 -1.8497 0.9751
-2.1016 5.6345 -1.8497 0.9751
-2.3013 5.5559 -1.8497 0.9751
-2.4982 5.4702 -1.8497 0.9751
-2.6918 5.3776 -1.8497 0.9751
-2.8820 5.2781 -1.8497 0.9751
-3.0686 5.1718 -1.8497 0.9751
-3.2512 5.0590 -1.8497 0.9751
-3.4297 4.9397 -1.8497 0.9751
-3.6038 4.8142 -1.8497 0.9751
-3.7734 4.6825 -1.8497 0.9751
-3.9381 4.5448 -1.8497 0.9751
-4.0978 4.4013 -1.8497 0.9751
-4.5288 4.2165 -1.9032 0.9744
-4.8509 4.2033 -1.9742 0.9735
-5.2039 3.8956 -1.9994 0.9732
-5.3462 3.7120 -2.0019 0.9731
-5.4753 3.5188 -2.0019 0.9731
-5.8201 2.9133 -2.0019 0.9731
-6.0131 2.4907 -2.0019 0.9731
-6.0982 2.2745 -2.0019 0.9731
-6.1755 2.0554 -2.0019 0.9731
-6.2449 1.8337 -2.0019 0.9731
-6.3064 1.6096 -2.0019 0.9731
-6.4423 0.9263 -2.0019 0.9731
6.0183 0.2149 -2.0018 0.9749
6.0068 0.4296 -2.0018 0.9749
5.9609 0.8571 -2.0018 0.9749
5.8846 1.2801 -2.0018 0.9749
5.8351 1.4893 -2.0018 0.9749
5.7140 1.9018 -2.0018 0.9749
5.6425 2.1045 -2.0018 0.9749
5.5638 2.3046 -2.0018 0.9749
5.4780 2.5017 -2.0018 0.9749
5.2856 2.8861 -2.0018 0.9749
5.1792 3.0730 -2.0018 0.9749
4.9468 3.4346 -2.0018 0.9749
4.5441 3.9375 -1.9986 0.9750
3.9238 4.2145 -1.9141 0.9760
3.6608 4.2248 -1.8582 0.9767
3.4915 4.3327 -1.8496 0.9768
3.3346 4.4545 -1.8496 0.9768
2.6667 4.8837 -1.8496 0.9768
2.4907 4.9758 -1.8496 0.9768
2.1294 5.1408 -1.8496 0.9768
1.7572 5.2796 -1.8496 0.9768
1.5677 5.3390 -1.8496 0.9768
1.1828 5.4373 -1.8496 0.9768
0.5698 5.2997 -1.7718 0.9778
0.3790 5.2998 -1.7662 0.9779
0.1893 5.2999 -1.7629 0.9779
-0.0000 5.3001 -1.7618 0.9779
-0.1893 5.3002 -1.7629 0.9779
-0.5699 5.3004 -1.7721 0.9778
-0.7621 5.3006 -1.7801 0.9777
-0.9564 5.3007 -1.7904 0.9776
-1.3530 5.3010 -1.8186 0.9772
-1.7573 5.2797 -1.8497 0.9768
-2.3116 5.0616 -1.8497 0.9768
-2.6668 4.8838 -1.8497 0.9768
-2.8394 4.7855 -1.8497 0.9768
-3.1736 4.5708 -1.8497 0.9768
-3.9238 4.2145 -1.9141 0.9760
-4.2030 4.2030 -1.9758 0.9753
-4.3950 4.0919 -1.9961 0.9750
-4.5442 3.9376 -1.9987 0.9750
-4.6882 3.7780 -2.0014 0.9749
-4.8212 3.6091 -2.0019 0.9749
-4.9469 3.4347 -2.0019 0.9749
-5.4782 2.5018 -2.0019 0.9749
-5.7142 1.9019 -2.0019 0.9749
-5.7785 1.6967 -2.0019 0.9749
-5.8354 1.4894 -2.0019 0.9749
-5.8848 1.2801 -2.0019 0.9749
-5.9879 0.6438 -2.0019 0.9749
-6.0071 0.4296 -2.0019 0.9749
5.5942 0.1998 -2.0018 0.9765
5.5835 0.3993 -2.0018 0.9765
5.5657 0.5984 -2.0018 0.9765
5.5408 0.7967 -2.0018 0.9765
5.4699 1.1899 -2.0018 0.9765
5.4239 1.3844 -2.0018 0.9765
5.3711 1.5771 -2.0018 0.9765
5.0057 2.5057 -2.0018 0.9765
4.9131 2.6827 -2.0018 0.9765
4.8142 2.8564 -2.0018 0.9765
4.7092 3.0264 -2.0018 0.9765
4.5982 3.1926 -2.0018 0.9765
4.4813 3.3546 -2.0018 0.9765
3.9515 3.9515 -1.9984 0.9765
3.8036 4.0854 -1.9961 0.9766
3.1590 4.2199 -1.8850 0.9779
2.6392 4.4482 -1.8496 0.9783
2.4788 4.5396 -1.8496 0.9783
1.9793 4.7786 -1.8496 0.9783
1.6334 4.9076 -1.8496 0.9783
0.9184 5.0901 -1.8496 0.9783
0.7361 5.1196 -1.8496 0.9783
0.3690 5.1591 -1.8496 0.9783
0.1846 5.1690 -1.8497 0.9783
-0.1846 5.1690 -1.8497 0.9783
-0.3690 5.1591 -1.8497 0.9783
-0.5529 5.1427 -1.8497 0.9783
-0.9184 5.0901 -1.8497 0.9783
-1.4572 4.9628 -1.8497 0.9783
-1.8075 4.8462 -1.8497 0.9783
-1.9794 4.7786 -1.8497 0.9783
-2.1487 4.7049 -1.8497 0.9783
-2.3152 4.6252 -1.8497 0.9783
-2.4788 4.5396 -1.8497 0.9783
-2.9499 4.2487 -1.8497 0.9783
-3.1589 4.2198 -1.8850 0.9779
-3.3933 4.2108 -1.9339 0.9773
-3.6400 4.2008 -1.9878 0.9767
-4.0950 3.8125 -2.0008 0.9765
-4.2307 3.6659 -2.0019 0.9765
-4.3588 3.5125 -2.0019 0.9765
-4.4814 3.3547 -2.0019 0.9765
-4.7093 3.0265 -2.0019 0.9765
-4.8143 2.8565 -2.0019 0.9765
-4.9132 2.6828 -2.0019 0.9765
-5.0059 2.5057 -2.0019 0.9765
-5.0921 2.3255 -2.0019 0.9765
-5.3115 1.7678 -2.0019 0.9765
-5.5090 0.9939 -2.0019 0.9765
-5.5837 0.3994 -2.0019 0.9765
-5.5944 0.1998 -2.0019 0.9765
5.2237 0.0000 -2.0018 0.9779
5.1938 0.5584 -2.0018 0.9779
5.1705 0.7434 -2.0018 0.9779
5.1043 1.1104 -2.0018 0.9779
4.9564 1.6496 -2.0018 0.9779
4.8944 1.8255 -2.0018 0.9779
4.6712 2.3382 -2.0018 0.9779
4.5847 2.5034 -2.0018 0.9779
4.3945 2.8242 -2.0018 0.9779
4.2909 2.9792 -2.0018 0.9779
4.1818 3.1304 -2.0018 0.9779
3.5574 3.8209 -2.0006 0.9779
3.4153 3.9414 -1.9986 0.9779
2.9200 4.2056 -1.9620 0.9783
2.5042 4.2206 -1.8807 0.9792
2.0050 4.3904 -1.8496 0.9795
1.8470 4.4592 -1.8496 0.9795
0.8570 4.7499 -1.8496 0.9795
0.6869 4.7775 -1.8496 0.9795
-0.0000 4.8266 -1.8497 0.9795
-0.1723 4.8236 -1.8497 0.9795
-0.5159 4.7990 -1.8497 0.9795
-1.1937 4.6767 -1.8497 0.9795
-1.3598 4.6312 -1.8497 0.9795
-1.5242 4.5796 -1.8497 0.9795
-2.0051 4.3905 -1.8497 0.9795
-2.1605 4.3161 -1.8497 0.9795
-2.3132 4.2362 -1.8497 0.9795
-2.9200 4.2056 -1.9620 0.9783
-3.1195 4.1671 -1.9948 0.9779
-3.2693 4.0569 -1.9967 0.9779
-3.6938 3.6938 -2.0019 0.9779
-4.0675 3.2778 -2.0019 0.9779
-4.1819 3.1305 -2.0019 0.9779
-4.4926 2.6656 -2.0019 0.9779
-4.8262 1.9991 -2.0019 0.9779
-4.8945 1.8255 -2.0019 0.9779
-4.9565 1.6497 -2.0019 0.9779
-5.0123 1.4717 -2.0019 0.9779
-5.1045 1.1104 -2.0019 0.9779
-5.1939 0.5584 -2.0019 0.9779
-5.2105 0.3727 -2.0019 0.9779
-5.2205 0.1864 -2.0019 0.9779
4.8911 -0.0000 -2.0018 0.9791
4.8787 0.3489 -2.0018 0.9791
4.8414 0.6961 -2.0018 0.9791
4.8134 0.8684 -2.0018 0.9791
4.7794 1.0397 -2.0018 0.9791
4.7392 1.2096 -2.0018 0.9791
4.2929 2.3441 -2.0018 0.9791
4.1147 2.6443 -2.0018 0.9791
3.5798 3.3329 -2.0018 0.9791
3.4586 3.4586 -2.0018 0.9791
3.3329 3.5798 -2.0018 0.9791
3.0676 3.8066 -2.0009 0.9791
2.9272 3.9103 -1.9991 0.9791
2.7834 4.0089 -1.9974 0.9791
2.6365 4.1024 -1.9959 0.9791
2.4865 4.1908 -1.9944 0.9792
2.2965 4.2058 -1.9612 0.9795
1.9261 4.2175 -1.8976 0.9802
1.7490 4.2225 -1.8706 0.9804
1.2732 4.3362 -1.8496 0.9807
0.8024 4.4475 -1.8496 0.9807
0.6432 4.4733 -1.8496 0.9807
0.0000 4.5193 -1.8497 0.9807
-0.3224 4.5078 -1.8497 0.9807
-0.4831 4.4934 -1.8497 0.9807
-0.6432 4.4733 -1.8497 0.9807
-0.9607 4.4161 -1.8497 0.9807
-1.1177 4.3789 -1.8497 0.9807
-1.2732 4.3363 -1.8497 0.9807
-1.7490 4.2225 -1.8706 0.9804
-1.9261 4.2175 -1.8976 0.9802
-2.2965 4.2057 -1.9612 0.9795
-2.6365 4.1025 -1.9959 0.9791
-2.9272 3.9103 -1.9991 0.9791
-3.5799 3.3330 -2.0019 0.9791
-3.6966 3.2031 -2.0019 0.9791
-3.9157 2.9312 -2.0019 0.9791
-4.4493 2.0319 -2.0019 0.9791
-4.5189 1.8718 -2.0019 0.9791
-4.6410 1.5446 -2.0019 0.9791
-4.6931 1.3780 -2.0019 0.9791
-2.1703 0.3916 -0.9026 0.9905
-1.9449 0.2796 -0.8042 0.9915
-1.9569 0.2104 -0.8055 0.9915
-1.9308 0.0690 -0.7907 0.9917
4.5933 0.0000 -2.0018 0.9802
4.5465 0.6537 -2.0018 0.9802
4.5203 0.8155 -2.0018 0.9802
4.4883 0.9764 -2.0018 0.9802
4.4506 1.1360 -2.0018 0.9802
4.3037 1.6052 -2.0018 0.9802
4.1782 1.9081 -2.0018 0.9802
3.8641 2.4833 -2.0018 0.9802
3.6771 2.7526 -2.0018 0.9802
3.5765 2.8821 -2.0018 0.9802
3.3618 3.1299 -2.0018 0.9802
3.1299 3.3618 -2.0018 0.9802
3.0080 3.4714 -2.0018 0.9802
2.7527 3.6771 -2.0018 0.9802
2.4810 3.8605 -2.0000 0.9802
2.3400 3.9438 -1.9986 0.9802
2.1963 4.0221 -1.9972 0.9802
2.0500 4.0954 -1.9960 0.9802
1.9015 4.1636 -1.9948 0.9802
1.7405 4.2019 -1.9821 0.9804
1.4015 4.2108 -1.9341 0.9808
1.0765 4.2176 -1.8970 0.9812
0.9181 4.2204 -1.8823 0.9813
0.7618 4.2226 -1.8700 0.9815
0.4546 4.2287 -1.8536 0.9816
0.1515 4.2414 -1.8496 0.9817
-0.4546 4.2287 -1.8536 0.9816
-0.6074 4.2245 -1.8600 0.9815
-0.7618 4.2226 -1.8700 0.9815
-0.9181 4.2203 -1.8823 0.9813
-1.0765 4.2176 -1.8970 0.9812
-1.4015 4.2108 -1.9341 0.9808
-1.5690 4.2066 -1.9567 0.9806
-1.9015 4.1636 -1.9949 0.9802
-2.0501 4.0955 -1.9960 0.9802
-3.0080 3.4714 -2.0019 0.9802
-3.1300 3.3619 -2.0019 0.9802
-3.3619 3.1300 -2.0019 0.9802
-3.4714 3.0080 -2.0019 0.9802
-3.5766 2.8822 -2.0019 0.9802
-3.6772 2.7527 -2.0019 0.9802
-3.7731 2.6197 -2.0019 0.9802
-3.9504 2.3438 -2.0019 0.9802
-4.1075 2.0561 -2.0019 0.9802
-4.1783 1.9081 -2.0019 0.9802
-4.2437 1.7578 -2.0019 0.9802
-1.5875 0.5284 -0.7292 0.9927
-1.5707 0.4612 -0.7134 0.9929
-1.5001 0.2707 -0.6643 0.9934
-1.5151 0.2178 -0.6671 0.9933
-1.5249 0.1639 -0.6684 0.9933
4.3219 0.1544 -2.0018 0.9811
4.3136 0.3085 -2.0018 0.9811
4.2999 0.4623 -2.0018 0.9811
4.2559 0.7679 -2.0018 0.9811
4.2258 0.9193 -2.0018 0.9811
4.1903 1.0695 -2.0018 0.9811
4.1495 1.2184 -2.0018 0.9811
4.0520 1.5113 -2.0018 0.9811
3.9955 1.6550 -2.0018 0.9811
3.8672 1.9358 -2.0018 0.9811
3.4621 2.5917 -2.0018 0.9811
3.1652 2.9469 -2.0018 0.9811
3.0580 3.0580 -2.0018 0.9811
2.9469 3.1652 -2.0018 0.9811
2.8321 3.2684 -2.0018 0.9811
2.7136 3.3674 -2.0018 0.9811
2.4665 3.5524 -2.0018 0.9811
2.0718 3.7943 -2.0011 0.9811
1.9340 3.8636 -1.9999 0.9811
1.7938 3.9280 -1.9988 0.9811
1.6517 3.9875 -1.9978 0.9812
1.3618 4.0915 -1.9961 0.9812
1.2144 4.1359 -1.9953 0.9812
0.9138 4.2004 -1.9898 0.9812
0.6045 4.2048 -1.9664 0.9815
0.4522 4.2063 -1.9583 0.9815
0.3009 4.2074 -1.9525 0.9816
0.1503 4.2080 -1.9491 0.9816
-0.0000 4.2082 -1.9479 0.9816
-0.3009 4.2074 -1.9525 0.9816
-0.4522 4.2063 -1.9583 0.9815
-0.6046 4.2048 -1.9664 0.9815
-0.7583 4.2029 -1.9768 0.9814
-0.9137 4.2004 -1.9898 0.9812
-1.5076 4.0421 -1.9969 0.9812
-1.6517 3.9875 -1.9978 0.9812
-1.7939 3.9280 -1.9988 0.9811
-2.0719 3.7943 -2.0011 0.9811
-2.2068 3.7193 -2.0019 0.9811
-2.3381 3.6382 -2.0019 0.9811
-2.4665 3.5524 -2.0019 0.9811
-2.9470 3.1653 -2.0019 0.9811
-3.1653 2.9470 -2.0019 0.9811
-3.2684 2.8321 -2.0019 0.9811
-3.5525 2.4665 -2.0019 0.9811
-3.6382 2.3381 -2.0019 0.9811
-3.8673 1.9358 -2.0019 0.9811
-1.3013 0.2831 -0.6164 0.9941
-1.3273 0.1908 -0.6207 0.9941
-1.3351 0.1435 -0.6215 0.9941
4.0784 0.1456 -2.0018 0.9820
4.0706 0.2911 -2.0018 0.9820
4.0576 0.4362 -2.0018 0.9820
4.0395 0.5808 -2.0018 0.9820
4.0162 0.7246 -2.0018 0.9820
3.9877 0.8675 -2.0018 0.9820
3.7122 1.6953 -2.0018 0.9820
3.6493 1.8267 -2.0018 0.9820
3.5818 1.9558 -2.0018 0.9820
3.3522 2.3275 -2.0018 0.9820
3.2670 2.4456 -2.0018 0.9820
3.1776 2.5607 -2.0018 0.9820
2.5607 3.1776 -2.0018 0.9820
1.2875 3.8683 -1.9998 0.9820
1.1482 3.9104 -1.9991 0.9820
1.0076 3.9476 -1.9985 0.9820
0.8658 3.9800 -1.9979 0.9820
0.7230 4.0074 -1.9975 0.9820
0.5794 4.0299 -1.9971 0.9820
0.4351 4.0474 -1.9968 0.9820
0.2904 4.0600 -1.9966 0.9820
0.1453 4.0675 -1.9965 0.9820
-0.2904 4.0600 -1.9966 0.9820
-0.4352 4.0474 -1.9968 0.9820
-0.7230 4.0075 -1.9975 0.9820
-1.1482 3.9104 -1.9991 0.9820
-1.4253 3.8214 -2.0006 0.9820
-1.6954 3.7123 -2.0019 0.9820
-1.9558 3.5819 -2.0019 0.9820
-2.0825 3.5098 -2.0019 0.9820
-2.7809 2.9869 -2.0019 0.9820
-1.1578 0.2955 -0.5861 0.9947
-1.1695 0.2544 -0.5871 0.9947
-1.1867 0.1706 -0.5881 0.9947
-1.1921 0.1281 -0.5881 0.9947
3.8587 -0.0000 -2.0018 0.9828
3.8563 0.1377 -2.0018 0.9828
3.8489 0.2753 -2.0018 0.9828
3.8194 0.5492 -2.0018 0.9828
3.7974 0.6851 -2.0018 0.9828
3.7389 0.9543 -2.0018 0.9828
3.7024 1.0871 -2.0018 0.9828
3.6612 1.2186 -2.0018 0.9828
3.6154 1.3485 -2.0018 0.9828
3.5100 1.6030 -2.0018 0.9828
3.4506 1.7272 -2.0018 0.9828
3.3186 1.9690 -2.0018 0.9828
3.2462 2.0862 -2.0018 0.9828
3.1696 2.2007 -2.0018 0.9828
3.0891 2.3125 -2.0018 0.9828
3.0046 2.4212 -2.0018 0.9828
2.7285 2.7285 -2.0018 0.9828
2.6294 2.8242 -2.0018 0.9828
2.5269 2.9162 -2.0018 0.9828
2.4212 3.0046 -2.0018 0.9828
2.3125 3.0891 -2.0018 0.9828
2.2007 3.1696 -2.0018 0.9828
2.0862 3.2462 -2.0018 0.9828
1.6030 3.5100 -2.0018 0.9828
1.4767 3.5650 -2.0018 0.9828
1.3485 3.6154 -2.0018 0.9828
1.2186 3.6613 -2.0018 0.9828
1.0871 3.7025 -2.0018 0.9828
0.8201 3.7699 -2.0015 0.9828
0.6849 3.7960 -2.0011 0.9828
0.4122 3.8339 -2.0004 0.9828
0.1376 3.8529 -2.0001 0.9828
-0.0000 3.8553 -2.0001 0.9828
-0.1376 3.8529 -2.0001 0.9828
-0.6849 3.7960 -2.0011 0.9828
-0.8201 3.7700 -2.0015 0.9828
-0.9543 3.7389 -2.0019 0.9828
-1.0871 3.7025 -2.0019 0.9828
-1.2186 3.6613 -2.0019 0.9828
-1.4767 3.5650 -2.0019 0.9828
-1.6030 3.5101 -2.0019 0.9828
-1.8493 3.3868 -2.0019 0.9828
-1.9690 3.3186 -2.0019 0.9828
-2.0862 3.2462 -2.0019 0.9828
-2.2008 3.1697 -2.0019 0.9828
-2.3125 3.0891 -2.0019 0.9828
-2.4213 3.0046 -2.0019 0.9828
-2.8242 2.6294 -2.0019 0.9828
-2.9163 2.5270 -2.0019 0.9828
-3.0046 2.4213 -2.0019 0.9828
-3.1697 2.2008 -2.0019 0.9828
-3.2462 2.0862 -2.0019 0.9828
-0.9917 0.5884 -0.5982 0.9948
-1.0298 0.5155 -0.5974 0.9948
-1.0430 0.4763 -0.5948 0.9948
-1.0514 0.4355 -0.5904 0.9949
-1.0576 0.3945 -0.5856 0.9949
-1.0617 0.3534 -0.5805 0.9950
-1.0636 0.3123 -0.5751 0.9950
-1.0704 0.2732 -0.5731 0.9950
-1.0814 0.2352 -0.5741 0.9950
-1.1055 0.0791 -0.5750 0.9950
3.6549 -0.0000 -2.0018 0.9835
3.6456 0.2607 -2.0018 0.9835
3.6177 0.5202 -2.0018 0.9835
3.5969 0.6489 -2.0018 0.9835
3.5714 0.7769 -2.0018 0.9835
3.5414 0.9039 -2.0018 0.9835
3.4679 1.1542 -2.0018 0.9835
3.4245 1.2773 -2.0018 0.9835
3.3247 1.5183 -2.0018 0.9835
3.2683 1.6360 -2.0018 0.9835
3.1433 1.8650 -2.0018 0.9835
2.9259 2.1903 -2.0018 0.9835
2.7622 2.3935 -2.0018 0.9835
2.6750 2.4905 -2.0018 0.9835
2.5844 2.5844 -2.0018 0.9835
2.4906 2.6750 -2.0018 0.9835
2.1903 2.9259 -2.0018 0.9835
1.9760 3.0747 -2.0018 0.9835
1.8650 3.1433 -2.0018 0.9835
1.6360 3.2684 -2.0018 0.9835
1.3987 3.3767 -2.0018 0.9835
0.7769 3.5714 -2.0018 0.9835
0.6490 3.5969 -2.0018 0.9835
0.1305 3.6527 -2.0018 0.9835
-0.0000 3.6550 -2.0018 0.9835
-0.3907 3.6340 -2.0019 0.9835
-0.5202 3.6178 -2.0019 0.9835
-0.6490 3.5969 -2.0019 0.9835
-0.7769 3.5715 -2.0019 0.9835
-1.5183 3.3247 -2.0019 0.9835
-1.7517 3.2079 -2.0019 0.9835
-1.9761 3.0748 -2.0019 0.9835
-2.0845 3.0023 -2.0019 0.9835
-2.1904 2.9260 -2.0019 0.9835
-2.3935 2.7623 -2.0019 0.9835
-2.4906 2.6751 -2.0019 0.9835
-2.7623 2.3935 -2.0019 0.9835
-2.9260 2.1904 -2.0019 0.9835
-0.8661 0.6013 -0.5775 0.9952
-0.9434 0.4722 -0.5778 0.9952
-0.9580 0.4375 -0.5768 0.9952
-0.9741 0.3633 -0.5694 0.9953
-0.9785 0.3257 -0.5648 0.9953
-0.9820 0.2883 -0.5606 0.9953
-0.9938 0.2537 -0.5618 0.9953
-1.0040 0.2184 -0.5627 0.9953
-1.0265 0.0734 -0.5637 0.9953
-1.0276 0.0367 -0.5632 0.9953
2.0366 0.2190 -1.1826 0.9906
2.0153 0.3636 -1.1823 0.9906
1.9883 0.4325 -1.1748 0.9906
1.9616 0.5007 -1.1688 0.9907
1.9033 0.6335 -1.1581 0.9908
1.8620 0.7713 -1.1636 0.9907
3.1005 1.5520 -2.0018 0.9841
2.9819 1.7692 -2.0018 0.9841
2.9169 1.8746 -2.0018 0.9841
2.7757 2.0779 -2.0018 0.9841
2.6204 2.2706 -2.0018 0.9841
2.5377 2.3627 -2.0018 0.9841
2.4517 2.4517 -2.0018 0.9841
2.3627 2.5377 -2.0018 0.9841
2.2706 2.6204 -2.0018 0.9841
2.0779 2.7757 -2.0018 0.9841
1.9775 2.8481 -2.0018 0.9841
1.7693 2.9819 -2.0018 0.9841
1.4404 3.1539 -2.0018 0.9841
1.3269 3.2033 -2.0018 0.9841
1.2117 3.2487 -2.0018 0.9841
1.0950 3.2899 -2.0018 0.9841
0.8575 3.3596 -2.0018 0.9841
0.7370 3.3881 -2.0018 0.9841
0.3706 3.4474 -2.0018 0.9841
0.1238 3.4651 -2.0018 0.9841
-0.0000 3.4673 -2.0018 0.9841
-0.4935 3.4320 -2.0019 0.9841
-0.7370 3.3881 -2.0019 0.9841
-0.8575 3.3596 -2.0019 0.9841
-1.0950 3.2899 -2.0019 0.9841
-1.2117 3.2487 -2.0019 0.9841
-1.3269 3.2034 -2.0019 0.9841
-1.4404 3.1540 -2.0019 0.9841
-1.5520 3.1006 -2.0019 0.9841
-1.7693 2.9819 -2.0019 0.9841
-2.0779 2.7757 -2.0019 0.9841
-2.2706 2.6204 -2.0019 0.9841
-2.5377 2.3627 -2.0019 0.9841
-0.7846 0.5873 -0.5658 0.9955
-0.8178 0.5256 -0.5613 0.9955
-0.8364 0.4963 -0.5615 0.9955
-0.8941 0.3703 -0.5587 0.9955
-0.9011 0.3361 -0.5553 0.9956
-0.9058 0.3014 -0.5511 0.9956
-0.9151 0.2687 -0.5506 0.9956
-0.9353 0.2034 -0.5526 0.9956
-0.9430 0.1701 -0.5532 0.9956
-0.9492 0.1365 -0.5537 0.9956
-0.9565 0.0684 -0.5536 0.9956
-0.9575 0.0342 -0.5532 0.9956
