ply
format ascii 1.0
element vertex 717
property float32 x
property float32 y
property float32 z
property float32 I
end_header
-9.4578 -0.3378 -2.0005 0.9620
-9.4398 -0.6752 -2.0005 0.9620
-9.2482 -2.0118 -2.0006 0.9620
-8.9806 -2.9890 -2.0007 0.9620
-8.8683 -3.3077 -2.0007 0.9620
-8.7448 -3.6222 -2.0008 0.9620
-7.7759 -5.3989 -2.0010 0.9620
-6.6946 -6.6946 -2.0012 0.9620
-6.2002 -7.1554 -2.0013 0.9620
-5.9410 -7.3724 -2.0014 0.9620
-5.6743 -7.5799 -2.0015 0.9620
-5.1193 -7.9658 -2.0016 0.9620
-4.8319 -8.1437 -2.0016 0.9620
-4.5382 -8.3112 -2.0017 0.9620
-3.9340 -8.6142 -2.0018 0.9620
-3.3096 -8.8733 -2.0019 0.9620
-2.3423 -9.1770 -2.0020 0.9620
-2.0133 -9.2550 -2.0021 0.9620
-1.3480 -9.3755 -2.0022 0.9620
-0.6758 -9.4483 -2.0023 0.9620
-0.3381 -9.4666 -2.0023 0.9620
-0.0000 -9.4729 -2.0024 0.9620
0.3381 -9.4671 -2.0024 0.9620
0.6758 -9.4492 -2.0025 0.9620
1.0127 -9.4193 -2.0025 0.9620
2.3431 -9.1801 -2.0027 0.9620
2.9921 -8.9899 -2.0028 0.9620
3.3112 -8.8775 -2.0028 0.9620
3.9362 -8.6191 -2.0029 0.9620
4.2414 -8.4732 -2.0029 0.9620
4.5412 -8.3166 -2.0030 0.9620
4.8352 -8.1493 -2.0030 0.9620
5.1231 -7.9717 -2.0030 0.9620
5.4044 -7.7838 -2.0031 0.9620
6.4575 -6.9358 -2.0031 0.9620
7.1621 -6.2060 -2.0032 0.9620
7.3791 -5.9465 -2.0032 0.9620
7.5867 -5.6793 -2.0032 0.9620
7.7846 -5.4050 -2.0032 0.9620
7.9726 -5.1237 -2.0033 0.9620
8.4747 -4.2421 -2.0033 0.9620
8.6207 -3.9369 -2.0033 0.9620
8.8796 -3.3119 -2.0033 0.9620
8.9921 -2.9929 -2.0033 0.9620
9.3804 -1.3487 -2.0032 0.9620
9.4225 -1.0130 -2.0032 0.9620
9.4526 -0.6761 -2.0032 0.9620
9.4706 -0.3382 -2.0032 0.9620
-8.5123 0.0000 -2.0006 0.9656
-8.4908 -0.6073 -2.0006 0.9656
-8.4638 -0.9099 -2.0006 0.9656
-8.4260 -1.2115 -2.0007 0.9656
-8.3775 -1.5114 -2.0007 0.9656
-7.9766 -2.9751 -2.0008 0.9656
-7.8655 -3.2580 -2.0009 0.9656
-7.7443 -3.5367 -2.0009 0.9656
-7.6133 -3.8109 -2.0009 0.9656
-7.1627 -4.6032 -2.0011 0.9656
-5.5766 -6.4358 -2.0014 0.9656
-5.1035 -6.8175 -2.0015 0.9656
-4.6044 -7.1646 -2.0016 0.9656
-4.3458 -7.3245 -2.0016 0.9656
-3.8124 -7.6162 -2.0017 0.9656
-3.5382 -7.7476 -2.0018 0.9656
-3.2595 -7.8691 -2.0018 0.9656
-2.9766 -7.9807 -2.0019 0.9656
-2.3998 -8.1731 -2.0020 0.9656
-2.1067 -8.2537 -2.0020 0.9656
-1.8108 -8.3238 -2.0021 0.9656
-1.2124 -8.4322 -2.0021 0.9656
-0.9107 -8.4703 -2.0022 0.9656
-0.6078 -8.4976 -2.0022 0.9656
-0.3041 -8.5141 -2.0023 0.9656
0.9108 -8.4714 -2.0024 0.9656
1.2126 -8.4337 -2.0025 0.9656
1.5128 -8.3852 -2.0025 0.9656
2.1073 -8.2562 -2.0026 0.9656
2.9779 -7.9841 -2.0027 0.9656
3.5400 -7.7515 -2.0028 0.9656
4.6074 -7.1693 -2.0029 0.9656
5.8075 -6.2377 -2.0030 0.9656
6.6363 -5.3479 -2.0031 0.9656
6.8230 -5.1076 -2.0031 0.9656
7.0009 -4.8608 -2.0031 0.9656
7.1700 -4.6079 -2.0031 0.9656
7.3299 -4.3490 -2.0031 0.9656
7.4805 -4.0847 -2.0031 0.9656
7.6216 -3.8151 -2.0031 0.9656
7.7529 -3.5406 -2.0031 0.9656
7.9857 -2.9785 -2.0031 0.9656
8.1778 -2.4012 -2.0031 0.9656
8.2583 -2.1078 -2.0031 0.9656
8.3282 -1.8117 -2.0031 0.9656
8.5011 -0.6080 -2.0031 0.9656
-7.7271 -0.0000 -2.0007 0.9686
-7.7223 -0.2758 -2.0007 0.9686
-7.6831 -0.8260 -2.0007 0.9686
-7.6488 -1.0997 -2.0008 0.9686
-7.6047 -1.3720 -2.0008 0.9686
-7.5510 -1.6426 -2.0008 0.9686
-7.2408 -2.7006 -2.0009 0.9686
-6.9109 -3.4594 -2.0010 0.9686
-6.6468 -3.9437 -2.0011 0.9686
-6.5019 -4.1785 -2.0011 0.9686
-6.1874 -4.6318 -2.0012 0.9686
-5.8415 -5.0617 -2.0013 0.9686
-5.4657 -5.4657 -2.0014 0.9686
-5.2673 -5.6574 -2.0014 0.9686
-5.0621 -5.8419 -2.0014 0.9686
-4.4089 -6.3500 -2.0016 0.9686
-4.1795 -6.5034 -2.0016 0.9686
-3.4606 -6.9133 -2.0017 0.9686
-2.9587 -7.1429 -2.0018 0.9686
-2.4417 -7.3361 -2.0019 0.9686
-1.9122 -7.4920 -2.0020 0.9686
-0.8266 -7.6884 -2.0022 0.9686
-0.5517 -7.7132 -2.0022 0.9686
-0.2760 -7.7281 -2.0022 0.9686
0.8267 -7.6894 -2.0024 0.9686
1.1006 -7.6551 -2.0024 0.9685
1.6440 -7.5573 -2.0025 0.9685
1.9127 -7.4940 -2.0025 0.9685
2.1790 -7.4211 -2.0026 0.9685
3.7070 -6.7889 -2.0027 0.9685
4.6357 -6.1925 -2.0028 0.9685
4.8538 -6.0232 -2.0029 0.9685
5.0657 -5.8462 -2.0029 0.9685
5.2712 -5.6617 -2.0029 0.9685
5.4700 -5.4700 -2.0029 0.9685
5.6618 -5.2713 -2.0029 0.9685
6.3545 -4.4120 -2.0030 0.9685
6.5079 -4.1824 -2.0030 0.9685
6.6531 -3.9475 -2.0030 0.9685
7.4226 -2.1795 -2.0030 0.9685
7.4957 -1.9132 -2.0030 0.9685
7.5592 -1.6444 -2.0030 0.9685
7.6130 -1.3736 -2.0030 0.9685
7.6915 -0.8269 -2.0029 0.9685
-7.0497 -0.5042 -2.0008 0.9710
-7.0273 -0.7555 -2.0008 0.9710
-6.9959 -1.0059 -2.0009 0.9710
-6.9556 -1.2549 -2.0009 0.9710
-6.8485 -1.7480 -2.0009 0.9710
-6.7818 -1.9913 -2.0009 0.9710
-6.7065 -2.2321 -2.0010 0.9710
-6.6227 -2.4702 -2.0010 0.9710
-6.5304 -2.7050 -2.0010 0.9710
-6.4298 -2.9364 -2.0011 0.9710
-6.2041 -3.3877 -2.0011 0.9710
-6.0793 -3.6070 -2.0011 0.9710
-5.5045 -4.4358 -2.0013 0.9710
-4.8175 -5.1744 -2.0014 0.9710
-4.6299 -5.3431 -2.0015 0.9710
-4.2370 -5.6600 -2.0015 0.9710
-4.0324 -5.8077 -2.0016 0.9710
-3.6080 -6.0809 -2.0017 0.9710
-3.3887 -6.2059 -2.0017 0.9710
-2.9374 -6.4321 -2.0018 0.9710
-2.4712 -6.6255 -2.0019 0.9710
-1.7489 -6.8521 -2.0020 0.9710
-1.5033 -6.9103 -2.0020 0.9710
-1.0065 -7.0002 -2.0021 0.9710
0.2524 -7.0683 -2.0023 0.9710
0.7561 -7.0325 -2.0023 0.9710
1.9929 -6.7871 -2.0025 0.9710
2.2339 -6.7118 -2.0025 0.9710
2.7071 -6.5355 -2.0026 0.9710
3.3903 -6.2089 -2.0027 0.9710
4.0347 -5.8111 -2.0027 0.9710
4.2396 -5.6635 -2.0028 0.9710
4.8208 -5.1779 -2.0028 0.9710
5.3468 -4.6331 -2.0028 0.9710
5.5088 -4.4393 -2.0029 0.9710
5.8115 -4.0350 -2.0029 0.9710
6.0846 -3.6102 -2.0029 0.9710
6.2096 -3.3907 -2.0029 0.9710
6.5365 -2.7075 -2.0029 0.9710
6.6290 -2.4725 -2.0029 0.9710
6.8552 -1.7497 -2.0029 0.9710
7.0343 -0.7563 -2.0029 0.9710
-6.5011 -0.2322 -2.0009 0.9731
-6.4888 -0.4641 -2.0009 0.9731
-6.3569 -1.3829 -2.0010 0.9731
-6.3036 -1.6089 -2.0010 0.9731
-6.2422 -1.8329 -2.0010 0.9731
-6.0957 -2.2736 -2.0011 0.9731
-5.7104 -3.1181 -2.0012 0.9731
-5.5955 -3.3200 -2.0012 0.9731
-5.3446 -3.7108 -2.0013 0.9731
-4.7624 -4.4339 -2.0014 0.9731
-4.6012 -4.6012 -2.0014 0.9731
-4.0832 -5.0669 -2.0015 0.9731
-3.8998 -5.2095 -2.0016 0.9731
-3.7114 -5.3454 -2.0016 0.9731
-3.5183 -5.4746 -2.0016 0.9731
-3.1189 -5.7119 -2.0017 0.9731
-2.2745 -6.0980 -2.0018 0.9731
-2.0554 -6.1754 -2.0019 0.9731
-1.8337 -6.2450 -2.0019 0.9731
-1.6097 -6.3066 -2.0020 0.9731
-1.1557 -6.4056 -2.0020 0.9731
-0.6958 -6.4719 -2.0021 0.9731
-0.4644 -6.4927 -2.0021 0.9731
-0.2323 -6.5053 -2.0022 0.9731
0.4644 -6.4932 -2.0023 0.9731
0.6959 -6.4726 -2.0023 0.9731
1.3838 -6.3614 -2.0024 0.9731
1.8342 -6.2466 -2.0024 0.9731
2.2752 -6.1000 -2.0025 0.9731
2.7046 -5.9223 -2.0025 0.9731
2.9143 -5.8221 -2.0026 0.9731
3.5201 -5.4774 -2.0026 0.9731
3.7134 -5.3483 -2.0027 0.9731
3.9019 -5.2124 -2.0027 0.9731
4.0855 -5.0699 -2.0027 0.9731
4.4369 -4.7656 -2.0027 0.9731
4.6042 -4.6042 -2.0027 0.9731
5.7150 -3.1206 -2.0028 0.9731
5.8228 -2.9147 -2.0028 0.9731
6.1010 -2.2756 -2.0028 0.9731
6.2478 -1.8345 -2.0028 0.9731
6.3092 -1.6103 -2.0028 0.9731
6.4451 -0.9267 -2.0028 0.9731
6.4741 -0.6960 -2.0028 0.9731
6.4948 -0.4645 -2.0028 0.9731
6.5072 -0.2324 -2.0027 0.9731
-6.0196 0.0000 -2.0009 0.9749
-6.0043 -0.4294 -2.0010 0.9749
-5.9852 -0.6435 -2.0010 0.9749
-5.9585 -0.8567 -2.0010 0.9749
-5.9242 -1.0688 -2.0010 0.9749
-5.8329 -1.4888 -2.0011 0.9749
-5.4762 -2.5009 -2.0012 0.9749
-5.2840 -2.8853 -2.0012 0.9749
-4.6881 -3.7779 -2.0014 0.9749
-4.4068 -4.1028 -2.0014 0.9749
-4.2576 -4.2576 -2.0014 0.9749
-4.1030 -4.4069 -2.0015 0.9749
-3.7782 -4.6885 -2.0015 0.9749
-3.4343 -4.9462 -2.0016 0.9749
-3.2556 -5.0658 -2.0016 0.9749
-2.8860 -5.2853 -2.0017 0.9749
-2.6956 -5.3850 -2.0017 0.9749
-2.5017 -5.4779 -2.0018 0.9749
-2.3046 -5.5638 -2.0018 0.9749
-2.1046 -5.6426 -2.0018 0.9749
-1.2802 -5.8850 -2.0020 0.9749
-1.0694 -5.9271 -2.0020 0.9749
-0.8572 -5.9616 -2.0020 0.9749
-0.6438 -5.9885 -2.0021 0.9749
0.2150 -6.0195 -2.0022 0.9749
0.6439 -5.9890 -2.0023 0.9749
1.0695 -5.9280 -2.0023 0.9749
1.2804 -5.8861 -2.0023 0.9749
1.4897 -5.8368 -2.0024 0.9749
1.6971 -5.7799 -2.0024 0.9749
1.9024 -5.7157 -2.0024 0.9749
2.1052 -5.6443 -2.0024 0.9749
2.3053 -5.5656 -2.0025 0.9749
2.5026 -5.4798 -2.0025 0.9749
2.6966 -5.3871 -2.0025 0.9749
2.8872 -5.2875 -2.0025 0.9749
3.2571 -5.0681 -2.0026 0.9749
3.4359 -4.9487 -2.0026 0.9749
3.6104 -4.8229 -2.0026 0.9749
3.7803 -4.6910 -2.0026 0.9749
3.9453 -4.5532 -2.0026 0.9749
4.2602 -4.2602 -2.0027 0.9749
4.4095 -4.1054 -2.0027 0.9749
4.9490 -3.4362 -2.0027 0.9749
5.2880 -2.8875 -2.0027 0.9749
5.3877 -2.6969 -2.0027 0.9749
5.4805 -2.5029 -2.0027 0.9749
5.6451 -2.1055 -2.0027 0.9749
5.7166 -1.9027 -2.0027 0.9749
5.7809 -1.6974 -2.0027 0.9749
5.9292 -1.0697 -2.0027 0.9749
5.9635 -0.8574 -2.0027 0.9749
5.9903 -0.6440 -2.0027 0.9749
6.0095 -0.4298 -2.0027 0.9749
6.0209 -0.2150 -2.0027 0.9749
-5.5387 -0.7963 -2.0011 0.9765
-5.4679 -1.1895 -2.0011 0.9765
-5.4220 -1.3839 -2.0011 0.9765
-5.3096 -1.7672 -2.0011 0.9765
-5.2432 -1.9556 -2.0012 0.9765
-5.1701 -2.1415 -2.0012 0.9765
-5.0042 -2.5049 -2.0012 0.9765
-4.9117 -2.6820 -2.0013 0.9765
-4.8129 -2.8556 -2.0013 0.9765
-4.3578 -3.5117 -2.0014 0.9765
-4.2297 -3.6650 -2.0014 0.9765
-3.9576 -3.9576 -2.0015 0.9765
-3.8139 -4.0963 -2.0015 0.9765
-3.3543 -4.4808 -2.0016 0.9765
-3.0262 -4.7088 -2.0017 0.9765
-2.8562 -4.8139 -2.0017 0.9765
-2.5056 -5.0055 -2.0017 0.9765
-2.3254 -5.0918 -2.0018 0.9765
-1.1900 -5.4703 -2.0020 0.9765
-0.5985 -5.5664 -2.0021 0.9765
-0.3994 -5.5843 -2.0021 0.9765
-0.1998 -5.5951 -2.0021 0.9765
-0.0000 -5.5987 -2.0021 0.9765
0.3994 -5.5846 -2.0022 0.9765
0.9941 -5.5101 -2.0023 0.9765
1.5775 -5.3725 -2.0024 0.9765
1.7683 -5.3128 -2.0024 0.9765
2.1428 -5.1733 -2.0024 0.9765
2.3261 -5.0935 -2.0024 0.9765
2.5065 -5.0073 -2.0025 0.9765
2.6836 -4.9147 -2.0025 0.9765
3.0275 -4.7108 -2.0025 0.9765
3.1937 -4.5998 -2.0025 0.9765
3.3559 -4.4829 -2.0026 0.9765
3.9598 -3.9598 -2.0026 0.9765
4.2322 -3.6673 -2.0026 0.9765
4.4831 -3.3560 -2.0026 0.9765
4.6001 -3.1939 -2.0027 0.9765
4.9152 -2.6839 -2.0027 0.9765
5.1739 -2.1431 -2.0027 0.9765
5.2471 -1.9571 -2.0027 0.9765
5.3136 -1.7685 -2.0027 0.9765
5.4262 -1.3849 -2.0027 0.9765
5.4722 -1.1904 -2.0027 0.9765
5.5111 -0.9943 -2.0026 0.9765
5.5431 -0.7970 -2.0026 0.9765
5.5680 -0.5986 -2.0026 0.9765
5.5858 -0.3995 -2.0026 0.9765
-5.2217 0.0000 -2.0010 0.9779
-5.1919 -0.5582 -2.0011 0.9779
-5.1687 -0.7431 -2.0011 0.9779
-5.1026 -1.1100 -2.0011 0.9779
-5.0598 -1.2914 -2.0012 0.9779
-5.0105 -1.4712 -2.0012 0.9779
-4.8929 -1.8249 -2.0012 0.9779
-4.8247 -1.9984 -2.0012 0.9779
-4.5835 -2.5028 -2.0013 0.9779
-4.4913 -2.6648 -2.0013 0.9779
-4.3934 -2.8235 -2.0013 0.9779
-4.2899 -2.9785 -2.0014 0.9779
-4.1809 -3.1298 -2.0014 0.9779
-3.9471 -3.4202 -2.0014 0.9779
-3.8225 -3.5589 -2.0015 0.9779
-3.5590 -3.8226 -2.0015 0.9779
-3.2773 -4.0669 -2.0016 0.9779
-2.9789 -4.2904 -2.0016 0.9779
-2.6653 -4.4922 -2.0017 0.9779
-2.5033 -4.5845 -2.0017 0.9779
-2.3381 -4.6710 -2.0017 0.9779
-2.1700 -4.7515 -2.0018 0.9779
-1.9990 -4.8260 -2.0018 0.9779
-1.6497 -4.9565 -2.0019 0.9779
-1.4718 -5.0123 -2.0019 0.9779
-1.2919 -5.0617 -2.0019 0.9779
-0.9276 -5.1411 -2.0020 0.9779
-0.7435 -5.1710 -2.0020 0.9779
-0.5585 -5.1943 -2.0020 0.9779
-0.0000 -5.2245 -2.0021 0.9779
0.1865 -5.2212 -2.0021 0.9779
0.5585 -5.1948 -2.0022 0.9779
0.7435 -5.1716 -2.0022 0.9779
1.1106 -5.1055 -2.0023 0.9779
1.4721 -5.0133 -2.0023 0.9779
1.6501 -4.9577 -2.0023 0.9779
1.8260 -4.8957 -2.0024 0.9779
2.1706 -4.7530 -2.0024 0.9779
3.2788 -4.0688 -2.0025 0.9779
3.4220 -3.9492 -2.0025 0.9779
4.1834 -3.1316 -2.0026 0.9779
4.2925 -2.9804 -2.0026 0.9779
4.4942 -2.6665 -2.0026 0.9779
4.5865 -2.5044 -2.0026 0.9779
4.7535 -2.1709 -2.0026 0.9779
4.8280 -1.9998 -2.0026 0.9779
5.1063 -1.1108 -2.0026 0.9779
5.1427 -0.9278 -2.0026 0.9779
5.1725 -0.7437 -2.0026 0.9779
5.1957 -0.5586 -2.0026 0.9779
5.2123 -0.3728 -2.0026 0.9779
-1.9308 -0.0690 -0.7907 0.9917
-1.9525 -0.1396 -0.8011 0.9916
-1.9449 -0.2796 -0.8042 0.9915
-4.7778 -1.0394 -2.0012 0.9791
-4.6916 -1.3776 -2.0012 0.9791
-4.5176 -1.8712 -2.0013 0.9791
-4.4479 -2.0313 -2.0013 0.9791
-4.2918 -2.3435 -2.0013 0.9791
-4.0168 -2.7889 -2.0014 0.9791
-3.8077 -3.0684 -2.0014 0.9791
-3.6958 -3.2024 -2.0015 0.9791
-3.4580 -3.4580 -2.0015 0.9791
-3.3325 -3.5793 -2.0015 0.9791
-2.7893 -4.0173 -2.0016 0.9791
-2.4957 -4.2062 -2.0017 0.9791
-2.3440 -4.2926 -2.0017 0.9791
-2.1893 -4.3736 -2.0018 0.9791
-1.8717 -4.5188 -2.0018 0.9791
-1.7093 -4.5828 -2.0018 0.9791
-1.3780 -4.6932 -2.0019 0.9791
-1.2097 -4.7394 -2.0019 0.9791
-0.8685 -4.8138 -2.0020 0.9791
-0.6961 -4.8418 -2.0020 0.9791
-0.5229 -4.8636 -2.0020 0.9791
-0.1746 -4.8886 -2.0021 0.9791
0.1746 -4.8888 -2.0021 0.9791
0.8686 -4.8144 -2.0022 0.9791
1.2099 -4.7402 -2.0023 0.9791
1.3783 -4.6941 -2.0023 0.9791
1.7097 -4.5839 -2.0023 0.9791
2.0324 -4.4503 -2.0024 0.9791
2.1900 -4.3750 -2.0024 0.9791
2.3447 -4.2941 -2.0024 0.9791
2.4965 -4.2077 -2.0024 0.9791
3.0700 -3.8097 -2.0025 0.9791
3.2041 -3.6977 -2.0025 0.9791
3.5810 -3.3341 -2.0025 0.9791
3.6978 -3.2041 -2.0025 0.9791
4.0191 -2.7905 -2.0025 0.9791
4.1162 -2.6453 -2.0025 0.9791
4.4508 -2.0326 -2.0026 0.9791
4.5205 -1.8724 -2.0026 0.9791
4.7811 -1.0401 -2.0025 0.9791
4.8431 -0.6963 -2.0025 0.9791
4.8648 -0.5230 -2.0025 0.9791
-1.5284 -0.0546 -0.6665 0.9933
-1.5249 -0.1639 -0.6684 0.9933
-1.5151 -0.2178 -0.6671 0.9933
-1.5707 -0.4612 -0.7134 0.9929
-1.5984 -0.5962 -0.7435 0.9926
-4.0305 -2.2008 -2.0014 0.9802
-3.9494 -2.3433 -2.0014 0.9802
-3.7722 -2.6191 -2.0014 0.9802
-3.6764 -2.7521 -2.0014 0.9802
-3.4708 -3.0075 -2.0015 0.9802
-3.2475 -3.2475 -2.0015 0.9802
-3.1295 -3.3613 -2.0016 0.9802
-3.0076 -3.4709 -2.0016 0.9802
-2.7524 -3.6767 -2.0016 0.9802
-2.6194 -3.7727 -2.0017 0.9802
-2.4831 -3.8638 -2.0017 0.9802
-2.2012 -4.0312 -2.0017 0.9802
-2.0560 -4.1073 -2.0018 0.9802
-0.8156 -4.5206 -2.0020 0.9802
-0.4910 -4.5674 -2.0020 0.9802
-0.3277 -4.5820 -2.0020 0.9802
0.0000 -4.5938 -2.0021 0.9802
0.1640 -4.5910 -2.0021 0.9802
0.3277 -4.5822 -2.0021 0.9802
0.8157 -4.5211 -2.0022 0.9802
1.1362 -4.4515 -2.0022 0.9802
1.6056 -4.3047 -2.0023 0.9802
1.7582 -4.2447 -2.0023 0.9802
2.0565 -4.1085 -2.0023 0.9802
2.3445 -3.9514 -2.0024 0.9802
2.4840 -3.8652 -2.0024 0.9802
2.7535 -3.6782 -2.0024 0.9802
3.0089 -3.4724 -2.0024 0.9802
3.2490 -3.2490 -2.0025 0.9802
3.4725 -3.0089 -2.0025 0.9802
3.6783 -2.7536 -2.0025 0.9802
3.7743 -2.6205 -2.0025 0.9802
3.8654 -2.4841 -2.0025 0.9802
4.0328 -2.2021 -2.0025 0.9802
4.1796 -1.9088 -2.0025 0.9802
4.3051 -1.6057 -2.0025 0.9802
4.4087 -1.2945 -2.0025 0.9802
4.4521 -1.1363 -2.0025 0.9802
4.5918 -0.1640 -2.0025 0.9802
-1.3384 -0.0957 -0.6211 0.9941
-1.3351 -0.1435 -0.6215 0.9941
-1.3241 -0.3888 -0.6388 0.9939
-1.3324 -0.4970 -0.6582 0.9938
-1.3263 -0.5494 -0.6645 0.9937
-1.3151 -0.6006 -0.6692 0.9936
-3.8663 -1.9353 -2.0014 0.9811
-3.7948 -2.0721 -2.0014 0.9811
-3.7185 -2.2063 -2.0014 0.9811
-3.6374 -2.3376 -2.0014 0.9811
-3.4615 -2.5912 -2.0015 0.9811
-3.3668 -2.7131 -2.0015 0.9811
-3.1647 -2.9465 -2.0015 0.9811
-2.9465 -3.1648 -2.0016 0.9811
-2.8317 -3.2680 -2.0016 0.9811
-2.7133 -3.3670 -2.0016 0.9811
-2.4663 -3.5521 -2.0017 0.9811
-2.3379 -3.6379 -2.0017 0.9811
-1.7965 -3.9338 -2.0018 0.9811
-1.6550 -3.9954 -2.0018 0.9811
-1.3658 -4.1034 -2.0019 0.9811
-1.2184 -4.1496 -2.0019 0.9811
-0.9193 -4.2261 -2.0019 0.9811
-0.6155 -4.2809 -2.0020 0.9811
-0.4623 -4.3003 -2.0020 0.9811
0.4624 -4.3005 -2.0021 0.9811
0.6156 -4.2813 -2.0021 0.9811
1.3660 -4.1042 -2.0022 0.9811
1.6553 -3.9964 -2.0023 0.9811
1.7970 -3.9348 -2.0023 0.9811
2.2073 -3.7202 -2.0023 0.9811
2.3387 -3.6391 -2.0024 0.9811
2.4671 -3.5533 -2.0024 0.9811
2.7144 -3.3683 -2.0024 0.9811
2.9478 -3.1661 -2.0024 0.9811
3.0589 -3.0589 -2.0024 0.9811
3.2694 -2.8329 -2.0024 0.9811
3.3684 -2.7144 -2.0024 0.9811
3.4632 -2.5925 -2.0025 0.9811
3.5535 -2.4672 -2.0025 0.9811
3.6393 -2.3388 -2.0025 0.9811
4.0533 -1.5118 -2.0025 0.9811
4.1917 -1.0698 -2.0025 0.9811
4.2272 -0.9196 -2.0025 0.9811
4.2573 -0.7681 -2.0025 0.9811
4.2820 -0.6157 -2.0024 0.9811
4.3012 -0.4624 -2.0024 0.9811
4.3232 -0.1544 -2.0024 0.9811
-1.1954 0.0000 -0.5864 0.9947
-1.1590 -0.3403 -0.5925 0.9946
-1.1544 -0.4305 -0.6043 0.9945
-1.1400 -0.5206 -0.6148 0.9944
-3.4325 -2.2059 -2.0014 0.9820
-3.0838 -2.6721 -2.0015 0.9820
-2.5604 -3.1773 -2.0016 0.9820
-2.3273 -3.3520 -2.0017 0.9820
-2.2062 -3.4329 -2.0017 0.9820
-2.0823 -3.5095 -2.0017 0.9820
-1.8267 -3.6492 -2.0018 0.9820
-1.6953 -3.7121 -2.0018 0.9820
-1.4262 -3.8237 -2.0018 0.9820
-1.2888 -3.8722 -2.0019 0.9820
-1.0093 -3.9544 -2.0019 0.9820
-0.8675 -3.9879 -2.0019 0.9820
-0.5808 -4.0397 -2.0020 0.9820
-0.0000 -4.0815 -2.0020 0.9820
0.2912 -4.0711 -2.0021 0.9820
0.4363 -4.0582 -2.0021 0.9820
0.5809 -4.0401 -2.0021 0.9820
0.8676 -3.9884 -2.0022 0.9820
1.0094 -3.9549 -2.0022 0.9820
1.4265 -3.8245 -2.0022 0.9820
1.5620 -3.7711 -2.0023 0.9820
1.9563 -3.5826 -2.0023 0.9820
2.0829 -3.5106 -2.0023 0.9820
2.8865 -2.8865 -2.0024 0.9820
3.0851 -2.6732 -2.0024 0.9820
3.1786 -2.5614 -2.0024 0.9820
3.3532 -2.3282 -2.0024 0.9820
3.4342 -2.2070 -2.0024 0.9820
3.7133 -1.6958 -2.0024 0.9820
3.7715 -1.5622 -2.0024 0.9820
3.8733 -1.2892 -2.0024 0.9820
3.9169 -1.1501 -2.0024 0.9820
3.9889 -0.8677 -2.0024 0.9820
4.0173 -0.7248 -2.0024 0.9820
4.0718 -0.2912 -2.0024 0.9820
-1.1058 0.0000 -0.5737 0.9950
-1.1055 -0.0791 -0.5750 0.9950
-1.1025 -0.1185 -0.5752 0.9950
-1.0974 -0.1578 -0.5752 0.9950
-1.0905 -0.1968 -0.5749 0.9950
-1.0814 -0.2353 -0.5741 0.9950
-1.0636 -0.3123 -0.5751 0.9950
-1.0576 -0.3945 -0.5856 0.9949
-1.0118 -0.5525 -0.5981 0.9948
-0.9917 -0.5884 -0.5982 0.9948
-3.2456 -2.0858 -2.0015 0.9828
-3.1691 -2.2003 -2.0015 0.9828
-2.9158 -2.5266 -2.0015 0.9828
-2.8238 -2.6290 -2.0016 0.9828
-2.7282 -2.7282 -2.0016 0.9828
-2.6291 -2.8238 -2.0016 0.9828
-2.5267 -2.9159 -2.0016 0.9828
-2.2006 -3.1694 -2.0017 0.9828
-1.9689 -3.3184 -2.0017 0.9828
-1.8492 -3.3866 -2.0017 0.9828
-1.6029 -3.5100 -2.0018 0.9828
-1.4767 -3.5650 -2.0018 0.9828
-1.3485 -3.6154 -2.0018 0.9828
-1.2186 -3.6613 -2.0018 0.9828
-0.9543 -3.7390 -2.0019 0.9828
-0.6852 -3.7976 -2.0019 0.9828
-0.4125 -3.8369 -2.0020 0.9828
-0.2753 -3.8492 -2.0020 0.9828
0.1377 -3.8567 -2.0021 0.9828
0.5492 -3.8200 -2.0021 0.9828
0.6852 -3.7980 -2.0021 0.9828
0.9544 -3.7395 -2.0022 0.9828
1.2188 -3.6619 -2.0022 0.9828
1.3487 -3.6161 -2.0022 0.9828
1.4770 -3.5657 -2.0022 0.9828
1.7276 -3.4513 -2.0023 0.9828
1.8497 -3.3875 -2.0023 0.9828
1.9694 -3.3193 -2.0023 0.9828
2.0867 -3.2469 -2.0023 0.9828
2.2012 -3.1704 -2.0023 0.9828
2.5276 -2.9170 -2.0023 0.9828
2.6301 -2.8249 -2.0023 0.9828
2.8249 -2.6301 -2.0024 0.9828
3.0054 -2.4219 -2.0024 0.9828
3.0899 -2.3131 -2.0024 0.9828
3.3195 -1.9696 -2.0024 0.9828
3.3877 -1.8498 -2.0024 0.9828
3.4516 -1.7277 -2.0024 0.9828
3.5660 -1.4771 -2.0024 0.9828
3.6164 -1.3489 -2.0024 0.9828
3.7035 -1.0874 -2.0024 0.9828
3.8205 -0.5493 -2.0024 0.9828
3.8376 -0.4126 -2.0024 0.9828
3.8499 -0.2754 -2.0024 0.9828
3.8573 -0.1378 -2.0024 0.9828
-1.0276 -0.0367 -0.5632 0.9953
-1.0236 -0.1101 -0.5639 0.9953
-1.0190 -0.1465 -0.5638 0.9953
-1.0124 -0.1827 -0.5634 0.9953
-0.9938 -0.2537 -0.5618 0.9953
-0.9785 -0.3257 -0.5648 0.9953
-0.9677 -0.4008 -0.5737 0.9952
-0.9580 -0.4375 -0.5768 0.9952
-0.9269 -0.5061 -0.5784 0.9952
-0.9084 -0.5390 -0.5785 0.9952
-0.8882 -0.5708 -0.5782 0.9952
-2.7618 -2.3931 -2.0015 0.9835
-2.6747 -2.4902 -2.0016 0.9835
-2.5841 -2.5841 -2.0016 0.9835
-2.4903 -2.6747 -2.0016 0.9835
-2.2932 -2.8456 -2.0016 0.9835
-2.1902 -2.9257 -2.0017 0.9835
-2.0844 -3.0020 -2.0017 0.9835
-1.8649 -3.1431 -2.0017 0.9835
-1.6360 -3.2682 -2.0018 0.9835
-1.5183 -3.3246 -2.0018 0.9835
-1.3987 -3.3767 -2.0018 0.9835
-1.2773 -3.4245 -2.0018 0.9835
-1.0297 -3.5070 -2.0019 0.9835
-0.9039 -3.5415 -2.0019 0.9835
-0.3907 -3.6342 -2.0020 0.9835
0.2608 -3.6461 -2.0021 0.9835
0.6490 -3.5974 -2.0021 0.9835
1.0299 -3.5075 -2.0022 0.9835
1.1544 -3.4685 -2.0022 0.9835
1.2775 -3.4251 -2.0022 0.9835
1.3990 -3.3773 -2.0022 0.9835
1.5186 -3.3253 -2.0022 0.9835
1.6364 -3.2690 -2.0022 0.9835
1.7520 -3.2085 -2.0022 0.9835
1.9764 -3.0754 -2.0023 0.9835
2.3941 -2.7629 -2.0023 0.9835
2.4912 -2.6757 -2.0023 0.9835
2.5851 -2.5851 -2.0023 0.9835
2.6757 -2.4912 -2.0023 0.9835
2.7629 -2.3941 -2.0023 0.9835
2.8466 -2.2940 -2.0023 0.9835
3.0755 -1.9765 -2.0024 0.9835
3.1441 -1.8655 -2.0024 0.9835
3.3776 -1.3990 -2.0024 0.9835
3.4254 -1.2776 -2.0024 0.9835
3.5423 -0.9041 -2.0024 0.9835
3.5724 -0.7771 -2.0024 0.9835
3.6349 -0.3908 -2.0023 0.9835
3.6466 -0.2608 -2.0023 0.9835
3.6535 -0.1305 -2.0023 0.9835
-0.9570 0.0000 -0.5525 0.9956
-0.9575 -0.0342 -0.5532 0.9956
-0.9538 -0.1025 -0.5538 0.9956
-0.9151 -0.2687 -0.5506 0.9956
-0.9058 -0.3015 -0.5511 0.9956
-0.9011 -0.3361 -0.5553 0.9956
-0.8823 -0.4029 -0.5600 0.9955
-0.8687 -0.4348 -0.5609 0.9955
-0.8534 -0.4660 -0.5614 0.9955
-0.8365 -0.4963 -0.5615 0.9955
-0.8178 -0.5256 -0.5613 0.9955
-0.7846 -0.5873 -0.5658 0.9955
-0.7671 -0.6182 -0.5688 0.9955
-2.3624 -2.5374 -2.0016 0.9841
-2.2704 -2.6201 -2.0016 0.9841
-2.0777 -2.7755 -2.0017 0.9841
-1.9773 -2.8479 -2.0017 0.9841
-1.8744 -2.9167 -2.0017 0.9841
-1.6616 -3.0430 -2.0017 0.9841
-1.5520 -3.1004 -2.0018 0.9841
-1.4403 -3.1539 -2.0018 0.9841
-1.3269 -3.2033 -2.0018 0.9841
-1.0950 -3.2899 -2.0018 0.9841
-0.8575 -3.3597 -2.0019 0.9841
-0.7371 -3.3881 -2.0019 0.9841
-0.2474 -3.4587 -2.0020 0.9841
-0.1238 -3.4653 -2.0020 0.9841
0.2474 -3.4588 -2.0020 0.9841
0.7371 -3.3885 -2.0021 0.9841
0.8576 -3.3601 -2.0021 0.9841
1.0951 -3.2904 -2.0022 0.9841
1.2119 -3.2492 -2.0022 0.9841
1.3271 -3.2039 -2.0022 0.9841
1.4406 -3.1545 -2.0022 0.9841
1.6620 -3.0438 -2.0022 0.9841
1.7696 -2.9825 -2.0022 0.9841
1.9779 -2.8487 -2.0023 0.9841
2.0783 -2.7763 -2.0023 0.9841
2.2711 -2.6210 -2.0023 0.9841
2.4523 -2.4523 -2.0023 0.9841
2.5383 -2.3632 -2.0023 0.9841
2.6210 -2.2711 -2.0023 0.9841
2.7004 -2.1761 -2.0023 0.9841
2.8488 -1.9779 -2.0023 0.9841
1.8620 -0.7713 -1.1636 0.9907
1.8682 -0.6968 -1.1512 0.9908
1.9033 -0.6335 -1.1581 0.9908
1.9351 -0.5682 -1.1644 0.9907
1.9616 -0.5007 -1.1688 0.9907
1.9883 -0.4325 -1.1748 0.9906
2.0153 -0.3636 -1.1823 0.9906
2.0300 -0.2919 -1.1841 0.9906
2.0366 -0.2190 -1.1826 0.9906
2.0359 -0.1456 -1.1784 0.9906
2.0320 -0.0726 -1.1739 0.9907
