ply
format ascii 1.0
element vertex 740
property float32 x
property float32 y
property float32 z
property float32 I
end_header
-4.1883 6.5170 1.3660 0.9690
-2.9177 4.9175 0.8760 0.9771
-4.1890 6.5182 1.1870 0.9691
-4.1897 6.5193 1.0092 0.9692
-4.4459 6.4033 1.0151 0.9690
-2.9169 4.9162 0.6138 0.9773
-4.4419 6.3976 0.8363 0.9692
-2.9165 4.9155 0.4838 0.9773
-2.9161 4.9149 0.3544 0.9774
-4.1919 6.5226 0.4808 0.9694
-4.4341 6.3864 0.4821 0.9693
-2.9157 4.9142 0.2253 0.9774
-4.1926 6.5237 0.3058 0.9694
-4.4264 6.3753 0.1311 0.9694
-4.1940 6.5260 -0.0437 0.9694
-4.4187 6.3642 -0.2182 0.9695
-2.9142 4.9117 -0.2896 0.9774
-4.4149 6.3587 -0.3926 0.9695
-2.9138 4.9110 -0.4187 0.9774
-4.1961 6.5293 -0.5691 0.9694
-4.4111 6.3531 -0.5671 0.9695
-2.9135 4.9104 -0.5482 0.9773
-4.4072 6.3476 -0.7419 0.9694
-2.9131 4.9097 -0.6781 0.9773
-4.1976 6.5315 -0.9223 0.9692
-4.4034 6.3421 -0.9171 0.9694
-4.3995 6.3365 -1.0930 0.9693
-2.9123 4.9085 -0.9402 0.9771
-4.1990 6.5338 -1.2795 0.9690
-5.5993 6.9483 -1.4701 0.9645
-5.6194 5.6194 -1.3092 0.9683
3.7605 9.0786 -1.8470 0.9608
3.1030 9.3230 -1.8469 0.9608
2.7682 9.4275 -1.8468 0.9608
2.4298 9.5199 -1.8467 0.9608
1.7444 9.6684 -1.8466 0.9608
1.3981 9.7241 -1.8466 0.9608
0.3506 9.8171 -1.8464 0.9608
-0.0000 9.8231 -1.8464 0.9608
-0.3506 9.8167 -1.8463 0.9608
-1.0500 9.7664 -1.8463 0.9608
-1.7440 9.6664 -1.8462 0.9608
-2.0879 9.5979 -1.8462 0.9608
-2.7672 9.4244 -1.8462 0.9608
-3.4325 9.2030 -1.8462 0.9608
-3.5231 7.7145 -1.5941 0.9661
-3.4952 6.9825 -1.4677 0.9687
-3.5034 6.4161 -1.3740 0.9707
-2.9120 4.9079 -1.0727 0.9770
-4.1997 6.5349 -1.4601 0.9689
-4.7303 6.3190 -1.4837 0.9684
-4.5370 5.6300 -1.3591 0.9710
-5.2320 5.6196 -1.4432 0.9692
-5.5889 5.5889 -1.4856 0.9683
-7.4251 6.4339 -1.8467 0.9608
-7.8657 5.8882 -1.8468 0.9608
-8.0712 5.6039 -1.8469 0.9608
-8.2664 5.3125 -1.8470 0.9608
-8.6251 4.7096 -1.8471 0.9608
-8.7881 4.3990 -1.8472 0.9608
9.4751 0.0000 -2.0028 0.9620
9.4685 0.3382 -2.0027 0.9620
9.4499 0.6759 -2.0026 0.9620
9.3765 1.3481 -2.0024 0.9620
9.2554 2.0134 -2.0022 0.9620
9.0871 2.6682 -2.0019 0.9620
8.9855 2.9906 -2.0018 0.9620
8.8725 3.3093 -2.0017 0.9620
8.7415 3.6208 -2.0000 0.9621
8.5857 3.9210 -1.9951 0.9621
7.5226 4.4634 -1.8490 0.9649
7.3581 4.7287 -1.8489 0.9649
7.1842 4.9881 -1.8487 0.9649
7.0012 5.2410 -1.8486 0.9649
6.8093 5.4873 -1.8485 0.9649
6.1827 6.1827 -1.8482 0.9649
5.7253 6.6074 -1.8481 0.9649
5.4856 6.8072 -1.8480 0.9649
5.2389 6.9983 -1.8479 0.9649
4.9855 7.1805 -1.8478 0.9649
4.4601 7.5172 -1.8476 0.9649
4.1888 7.6712 -1.8475 0.9649
3.0540 8.1880 -1.8472 0.9649
2.4619 8.3844 -1.8471 0.9649
1.2435 8.6484 -1.8469 0.9649
0.3119 8.7311 -1.8468 0.9649
-0.3118 8.7308 -1.8467 0.9649
-1.2432 8.6471 -1.8466 0.9649
-2.1604 8.4645 -1.8466 0.9649
-6.9954 5.2367 -1.8471 0.9649
-7.1781 4.9839 -1.8472 0.9649
-7.3517 4.7246 -1.8473 0.9649
-9.0781 2.6656 -1.9999 0.9621
-9.2460 2.0114 -2.0001 0.9621
-9.3124 1.6801 -2.0002 0.9621
-9.3669 1.3467 -2.0003 0.9620
-9.4095 1.0116 -2.0005 0.9620
-9.4402 0.6752 -2.0006 0.9620
8.5214 0.0000 -2.0027 0.9656
8.5156 0.3041 -2.0026 0.9656
8.4989 0.6078 -2.0025 0.9656
8.3839 1.5126 -2.0022 0.9656
8.3241 1.8108 -2.0021 0.9656
8.1729 2.3998 -2.0019 0.9656
8.0816 2.6898 -2.0018 0.9656
7.8683 3.2592 -2.0016 0.9656
7.7466 3.5377 -2.0015 0.9656
7.0258 4.1686 -1.9200 0.9670
5.7564 5.3594 -1.8485 0.9682
5.3589 5.7558 -1.8483 0.9682
5.1498 5.9432 -1.8482 0.9682
4.9342 6.1229 -1.8481 0.9682
4.7123 6.2949 -1.8480 0.9682
4.0119 6.7617 -1.8478 0.9682
3.7679 6.9003 -1.8477 0.9682
3.2657 7.1510 -1.8476 0.9682
3.0083 7.2627 -1.8475 0.9682
2.7471 7.3652 -1.8475 0.9682
2.4824 7.4583 -1.8474 0.9682
1.6707 7.6803 -1.8473 0.9682
1.3955 7.7348 -1.8472 0.9682
0.5607 7.8391 -1.8471 0.9682
0.2805 7.8540 -1.8471 0.9682
-0.5606 7.8386 -1.8470 0.9682
-1.3953 7.7335 -1.8469 0.9682
-1.6704 7.6788 -1.8469 0.9682
-1.9434 7.6142 -1.8469 0.9682
-2.4816 7.4561 -1.8469 0.9682
-2.7462 7.3628 -1.8469 0.9682
-3.0072 7.2601 -1.8469 0.9682
-2.7632 5.0605 -1.3551 0.9766
-3.6271 5.6438 -1.5767 0.9728
-3.9156 5.6395 -1.6136 0.9722
-4.2183 5.6350 -1.6543 0.9715
-4.5370 5.6301 -1.6994 0.9707
-5.1548 5.5366 -1.7779 0.9694
-5.5310 5.5310 -1.8384 0.9684
-5.7525 5.3557 -1.8472 0.9682
-5.9401 5.1472 -1.8473 0.9682
-6.1202 4.9320 -1.8473 0.9682
-6.4569 4.4831 -1.8474 0.9682
-7.4453 4.0655 -1.9937 0.9657
-7.6018 3.8052 -1.9979 0.9657
-7.9731 2.9738 -2.0000 0.9656
-8.0745 2.6874 -2.0000 0.9656
-8.2464 2.1047 -2.0002 0.9656
-8.3763 1.5112 -2.0004 0.9656
-8.4635 0.9099 -2.0006 0.9656
7.7347 -0.0000 -2.0026 0.9685
7.7143 0.5517 -2.0025 0.9685
7.6893 0.8267 -2.0024 0.9686
7.6546 1.1005 -2.0023 0.9686
7.6100 1.3730 -2.0022 0.9686
7.4920 1.9122 -2.0020 0.9686
7.4186 2.1783 -2.0019 0.9686
7.1422 2.9584 -2.0016 0.9686
7.0317 3.2113 -2.0015 0.9686
6.9123 3.4600 -2.0014 0.9686
6.7841 3.7044 -2.0013 0.9686
6.1111 4.2430 -1.9262 0.9697
5.5597 4.4803 -1.8487 0.9709
5.3960 4.6757 -1.8487 0.9709
5.2255 4.8650 -1.8486 0.9709
5.0483 5.0483 -1.8485 0.9709
4.8647 5.2250 -1.8484 0.9709
4.6749 5.3951 -1.8483 0.9709
4.4791 5.5583 -1.8483 0.9709
4.0709 5.8632 -1.8481 0.9709
3.8589 6.0045 -1.8480 0.9709
3.6420 6.1382 -1.8480 0.9709
3.1946 6.3819 -1.8479 0.9709
2.7310 6.5931 -1.8477 0.9709
2.2535 6.7707 -1.8476 0.9709
2.0104 6.8467 -1.8476 0.9709
1.7647 6.9139 -1.8475 0.9709
1.2669 7.0218 -1.8474 0.9709
0.7627 7.0940 -1.8474 0.9709
0.5090 7.1166 -1.8473 0.9710
0.2547 7.1301 -1.8473 0.9710
-0.2546 7.1299 -1.8472 0.9710
-0.5089 7.1162 -1.8472 0.9710
-1.0153 7.0616 -1.8472 0.9710
-1.5165 6.9711 -1.8471 0.9710
-1.7643 6.9125 -1.8471 0.9710
-2.0099 6.8451 -1.8471 0.9710
-2.2529 6.7689 -1.8471 0.9710
-2.4931 6.6842 -1.8471 0.9710
-2.7301 6.5910 -1.8471 0.9710
-3.1933 6.3795 -1.8472 0.9710
-2.7558 5.0470 -1.4889 0.9765
-4.4701 5.5470 -1.8445 0.9710
-4.6723 5.3921 -1.8473 0.9710
-5.0452 5.0453 -1.8474 0.9709
-5.2222 4.8621 -1.8474 0.9709
-5.3926 4.6727 -1.8475 0.9709
-6.4772 4.1626 -1.9935 0.9687
-7.0264 3.2088 -2.0000 0.9686
-7.1367 2.9561 -2.0001 0.9686
-7.3299 2.4396 -2.0002 0.9686
-7.4126 2.1765 -2.0003 0.9686
-7.4859 1.9106 -2.0004 0.9686
-7.5496 1.6423 -2.0004 0.9686
-7.6482 1.0996 -2.0006 0.9686
-7.7078 0.5513 -2.0008 0.9686
7.0739 -0.0000 -2.0026 0.9710
7.0553 0.5046 -2.0024 0.9710
6.9601 1.2557 -2.0022 0.9710
6.7850 1.9923 -2.0019 0.9710
6.4313 2.9371 -2.0015 0.9710
6.3221 3.1646 -2.0015 0.9710
6.0797 3.6073 -2.0013 0.9710
5.9455 3.8209 -2.0007 0.9710
5.3346 4.2989 -1.9395 0.9719
4.7794 4.4498 -1.8487 0.9732
4.6174 4.6174 -1.8486 0.9732
4.4495 4.7791 -1.8485 0.9732
3.9127 5.2267 -1.8483 0.9732
3.7235 5.3629 -1.8482 0.9732
3.5296 5.4922 -1.8482 0.9732
3.3312 5.6144 -1.8481 0.9732
3.1286 5.7296 -1.8481 0.9732
1.6142 6.3241 -1.8477 0.9732
1.1588 6.4228 -1.8476 0.9732
0.6976 6.4889 -1.8475 0.9732
0.2330 6.5219 -1.8475 0.9732
0.0000 6.5260 -1.8475 0.9732
-0.2329 6.5217 -1.8474 0.9732
-0.4655 6.5092 -1.8474 0.9732
-1.1586 6.4219 -1.8474 0.9732
-1.3871 6.3765 -1.8474 0.9732
-1.6138 6.3229 -1.8473 0.9732
-2.2805 6.1141 -1.8473 0.9732
-2.4972 6.0288 -1.8473 0.9732
-2.7108 5.9359 -1.8474 0.9732
-2.9210 5.8354 -1.8474 0.9732
-2.7506 5.0373 -1.6248 0.9764
-2.8582 4.8173 -1.5857 0.9770
-3.7219 5.3605 -1.8474 0.9732
-4.0949 5.0815 -1.8475 0.9732
-5.0370 4.3646 -1.8868 0.9727
-5.3724 4.3294 -1.9533 0.9717
-5.9430 3.8193 -1.9999 0.9711
-6.0757 3.6049 -2.0000 0.9711
-6.3178 3.1625 -2.0001 0.9711
-6.4268 2.9350 -2.0001 0.9711
-6.9954 1.0058 -2.0007 0.9710
-7.0499 0.5042 -2.0009 0.9710
-7.0637 0.2523 -2.0010 0.9710
6.5106 0.0000 -2.0025 0.9731
6.5062 0.2324 -2.0024 0.9731
6.4935 0.4644 -2.0024 0.9731
6.4725 0.6958 -2.0023 0.9731
6.4433 0.9264 -2.0022 0.9731
6.4059 1.1557 -2.0021 0.9731
6.2449 1.8337 -2.0019 0.9731
6.0124 2.4904 -2.0016 0.9731
5.8189 2.9128 -2.0015 0.9731
5.7110 3.1184 -2.0014 0.9731
5.4736 3.5176 -2.0012 0.9731
5.3443 3.7106 -2.0012 0.9731
4.9007 4.2465 -1.9945 0.9732
4.3678 4.3678 -1.8999 0.9745
3.7710 4.6795 -1.8485 0.9752
2.8797 5.2738 -1.8482 0.9752
2.4960 5.4655 -1.8481 0.9752
1.6926 5.7645 -1.8479 0.9752
1.4858 5.8211 -1.8479 0.9752
1.2770 5.8703 -1.8478 0.9752
0.8549 5.9462 -1.8477 0.9752
0.6422 5.9729 -1.8477 0.9752
0.4286 5.9919 -1.8477 0.9752
0.2144 6.0033 -1.8477 0.9752
-0.6421 5.9724 -1.8476 0.9752
-0.8548 5.9456 -1.8476 0.9752
-1.6923 5.7633 -1.8475 0.9752
-1.8969 5.6993 -1.8475 0.9752
-2.0991 5.6280 -1.8475 0.9752
-2.2987 5.5495 -1.8475 0.9752
-2.6887 5.3714 -1.8475 0.9752
-2.7362 5.0110 -1.7561 0.9764
-5.0551 4.0736 -1.9969 0.9732
-5.2047 3.8962 -1.9997 0.9732
-5.3412 3.7085 -2.0000 0.9732
-5.5924 3.3181 -2.0001 0.9732
-5.7075 3.1165 -2.0002 0.9732
-5.8152 2.9109 -2.0002 0.9732
-5.9156 2.7016 -2.0003 0.9732
-6.1711 2.0539 -2.0005 0.9731
-6.2406 1.8324 -2.0005 0.9731
-6.3023 1.6086 -2.0006 0.9731
-6.3559 1.3826 -2.0007 0.9731
-6.4014 1.1549 -2.0007 0.9731
-6.4889 0.4641 -2.0009 0.9731
-6.5016 0.2322 -2.0010 0.9731
6.0242 0.0000 -2.0025 0.9749
5.9890 0.6439 -2.0022 0.9749
5.9620 0.8572 -2.0022 0.9749
5.9274 1.0694 -2.0021 0.9749
5.8356 1.4894 -2.0020 0.9749
5.7784 1.6967 -2.0019 0.9749
5.7140 1.9018 -2.0018 0.9749
5.6423 2.1044 -2.0017 0.9749
5.2846 2.8856 -2.0014 0.9749
5.0649 3.2550 -2.0013 0.9749
4.8194 3.6078 -2.0011 0.9749
4.6874 3.7773 -2.0011 0.9749
4.5475 3.9404 -2.0001 0.9750
4.0688 4.3702 -1.9848 0.9751
3.5554 4.4119 -1.8835 0.9764
3.3326 4.4518 -1.8485 0.9768
2.6648 4.8802 -1.8483 0.9768
2.4888 4.9721 -1.8482 0.9768
2.3097 5.0576 -1.8482 0.9768
1.9430 5.2092 -1.8481 0.9768
1.7557 5.2751 -1.8481 0.9768
1.3749 5.3867 -1.8480 0.9768
0.9871 5.4709 -1.8479 0.9768
0.7912 5.5025 -1.8479 0.9768
0.1984 5.5553 -1.8478 0.9768
-0.3965 5.5445 -1.8477 0.9768
-0.5942 5.5268 -1.8477 0.9768
-0.7911 5.5020 -1.8477 0.9768
-0.9869 5.4702 -1.8477 0.9768
-1.5660 5.3333 -1.8477 0.9768
-1.7554 5.2741 -1.8477 0.9768
-1.9425 5.2080 -1.8477 0.9768
-2.1272 5.1354 -1.8477 0.9768
-2.3091 5.0562 -1.8477 0.9768
-2.8364 4.7805 -1.8477 0.9768
-3.5745 4.4357 -1.8936 0.9763
-3.8251 4.4144 -1.9416 0.9757
-4.3973 4.0941 -1.9971 0.9750
-4.8169 3.6058 -2.0001 0.9750
-4.9426 3.4317 -2.0001 0.9750
-5.0621 3.2532 -2.0002 0.9750
-5.5600 2.3030 -2.0004 0.9750
-5.6388 2.1032 -2.0005 0.9750
-5.7104 1.9006 -2.0006 0.9750
-5.7748 1.6956 -2.0006 0.9749
-5.9581 0.8567 -2.0009 0.9749
-6.0044 0.4294 -2.0010 0.9749
5.5995 0.0000 -2.0024 0.9765
5.5957 0.1998 -2.0024 0.9765
5.5848 0.3994 -2.0023 0.9765
5.5669 0.5985 -2.0022 0.9765
5.5096 0.9940 -2.0021 0.9765
5.4704 1.1900 -2.0020 0.9765
5.3712 1.5771 -2.0019 0.9765
5.3113 1.7678 -2.0018 0.9765
4.8132 2.8558 -2.0014 0.9765
4.7080 3.0256 -2.0013 0.9765
4.2290 3.6644 -2.0011 0.9765
4.0953 3.8129 -2.0010 0.9765
3.8075 4.0896 -1.9982 0.9765
3.6552 4.2184 -1.9961 0.9766
2.6460 4.4595 -1.8543 0.9782
2.4771 4.5365 -1.8484 0.9783
2.3136 4.6219 -1.8483 0.9783
1.9779 4.7750 -1.8482 0.9783
1.8061 4.8424 -1.8482 0.9783
1.4560 4.9587 -1.8481 0.9783
1.0985 5.0497 -1.8481 0.9783
0.3687 5.1544 -1.8479 0.9783
0.1844 5.1642 -1.8479 0.9783
-0.1844 5.1641 -1.8479 0.9783
-0.5523 5.1377 -1.8479 0.9783
-0.7354 5.1146 -1.8478 0.9783
-0.9174 5.0851 -1.8478 0.9783
-1.0984 5.0491 -1.8478 0.9783
-1.2779 5.0067 -1.8478 0.9783
-1.4557 4.9579 -1.8478 0.9783
-1.8057 4.8414 -1.8478 0.9783
-1.9774 4.7738 -1.8478 0.9783
-2.4764 4.5352 -1.8478 0.9783
-2.8652 4.4583 -1.8952 0.9777
-3.0857 4.4443 -1.9348 0.9773
-3.3156 4.4292 -1.9785 0.9768
-3.4983 4.3411 -1.9937 0.9766
-3.6546 4.2176 -1.9957 0.9766
-3.8068 4.0887 -1.9978 0.9765
-3.9546 3.9546 -2.0000 0.9765
-4.0935 3.8112 -2.0001 0.9765
-4.7056 3.0241 -2.0003 0.9765
-4.9096 2.6808 -2.0004 0.9765
-5.3082 1.7668 -2.0006 0.9765
-5.3681 1.5762 -2.0007 0.9765
-5.4211 1.3837 -2.0008 0.9765
-5.5063 0.9934 -2.0009 0.9765
-5.5384 0.7963 -2.0009 0.9765
-5.5635 0.5981 -2.0010 0.9765
-5.5923 0.1997 -2.0011 0.9765
5.2252 -0.0000 -2.0024 0.9779
5.2217 0.1865 -2.0023 0.9779
5.1947 0.5585 -2.0022 0.9779
5.1713 0.7435 -2.0021 0.9779
5.1048 1.1105 -2.0020 0.9779
4.9563 1.6496 -2.0018 0.9779
4.8942 1.8254 -2.0017 0.9779
4.2897 2.9784 -2.0013 0.9779
4.0661 3.2766 -2.0012 0.9779
3.9464 3.4196 -2.0011 0.9779
3.8218 3.5582 -2.0011 0.9779
3.5580 3.8215 -2.0009 0.9779
2.8129 4.3770 -1.9939 0.9780
2.2322 4.4593 -1.9110 0.9789
1.6855 4.5190 -1.8483 0.9796
1.5231 4.5762 -1.8483 0.9796
1.3588 4.6276 -1.8482 0.9796
1.1927 4.6730 -1.8482 0.9796
0.6863 4.7735 -1.8481 0.9796
0.3440 4.8102 -1.8481 0.9796
0.1721 4.8193 -1.8480 0.9796
0.0000 4.8224 -1.8480 0.9796
-0.1721 4.8192 -1.8480 0.9796
-0.6862 4.7731 -1.8480 0.9796
-1.0250 4.7119 -1.8479 0.9796
-1.6852 4.5181 -1.8479 0.9796
-1.8609 4.4926 -1.8635 0.9794
-2.0480 4.4845 -1.8893 0.9791
-2.2393 4.4734 -1.9171 0.9788
-2.6398 4.4491 -1.9825 0.9781
-2.8125 4.3763 -1.9936 0.9780
-3.1227 4.1715 -1.9969 0.9779
-3.2726 4.0611 -1.9987 0.9779
-3.4179 3.9445 -2.0001 0.9779
-3.5566 3.8200 -2.0002 0.9779
-3.9447 3.4181 -2.0003 0.9779
-4.0643 3.2752 -2.0003 0.9779
-4.4894 2.6637 -2.0004 0.9779
-4.5817 2.5018 -2.0005 0.9779
-4.6682 2.3367 -2.0005 0.9779
-4.8916 1.8244 -2.0007 0.9779
-5.0589 1.2912 -2.0008 0.9779
-5.1385 0.9271 -2.0009 0.9779
-5.2187 0.1864 -2.0012 0.9779
4.8924 -0.0000 -2.0023 0.9791
4.8892 0.1746 -2.0023 0.9791
4.8797 0.3490 -2.0022 0.9791
4.8640 0.5229 -2.0022 0.9791
4.8421 0.6962 -2.0021 0.9791
4.7798 1.0398 -2.0020 0.9791
4.7395 1.2096 -2.0019 0.9791
4.6931 1.3780 -2.0019 0.9791
4.6408 1.5446 -2.0018 0.9791
4.5185 1.8716 -2.0017 0.9791
4.0167 2.7888 -2.0013 0.9791
3.6953 3.2019 -2.0012 0.9791
3.5785 3.3317 -2.0011 0.9791
3.4572 3.4572 -2.0010 0.9791
3.3315 3.5783 -2.0010 0.9791
2.7872 4.0143 -2.0001 0.9791
2.0232 4.4301 -1.9933 0.9792
1.3163 4.4828 -1.9122 0.9800
1.1460 4.4901 -1.8966 0.9802
0.8117 4.4987 -1.8709 0.9804
0.4844 4.5051 -1.8545 0.9806
0.1612 4.5135 -1.8484 0.9807
-0.3228 4.5133 -1.8519 0.9806
-0.4849 4.5101 -1.8565 0.9806
-0.6480 4.5068 -1.8635 0.9805
-1.1472 4.4945 -1.8985 0.9802
-1.4924 4.4839 -1.9341 0.9798
-1.6701 4.4778 -1.9560 0.9796
-2.0230 4.4298 -1.9931 0.9792
-2.1811 4.3573 -1.9943 0.9792
-2.3367 4.2793 -1.9955 0.9791
-2.7868 4.0137 -1.9998 0.9791
-2.9288 3.9124 -2.0002 0.9791
-3.0666 3.8054 -2.0002 0.9791
-3.2005 3.6935 -2.0002 0.9791
-3.5771 3.3304 -2.0003 0.9791
-3.6937 3.2006 -2.0004 0.9791
-4.0149 2.7876 -2.0005 0.9791
-4.1119 2.6426 -2.0005 0.9791
-4.2037 2.4942 -2.0005 0.9791
-4.2902 2.3426 -2.0006 0.9791
-4.3711 2.1880 -2.0006 0.9791
-4.4465 2.0307 -2.0007 0.9791
-4.5163 1.8707 -2.0007 0.9791
-2.1703 0.3916 -0.9026 0.9905
-1.9569 0.2104 -0.8055 0.9915
4.5944 -0.0000 -2.0023 0.9802
4.4508 1.1360 -2.0019 0.9802
4.4073 1.2941 -2.0019 0.9802
4.3582 1.4505 -2.0018 0.9802
4.2433 1.7576 -2.0017 0.9802
4.1778 1.9079 -2.0016 0.9802
3.8633 2.4828 -2.0014 0.9802
3.7721 2.6190 -2.0014 0.9802
3.5755 2.8813 -2.0012 0.9802
3.4703 3.0070 -2.0012 0.9802
3.1287 3.3605 -2.0010 0.9802
2.8809 3.5749 -2.0009 0.9802
2.3426 3.9481 -2.0008 0.9802
2.0531 4.1015 -1.9989 0.9802
1.7533 4.2329 -1.9968 0.9802
1.6004 4.2908 -1.9958 0.9802
0.9720 4.4683 -1.9929 0.9802
0.8079 4.4780 -1.9831 0.9803
0.6443 4.4810 -1.9730 0.9804
0.4820 4.4836 -1.9653 0.9805
0.1603 4.4874 -1.9569 0.9806
-0.1603 4.4895 -1.9579 0.9806
-0.3211 4.4900 -1.9618 0.9806
-0.4827 4.4895 -1.9679 0.9805
-0.6450 4.4862 -1.9753 0.9804
-0.8087 4.4825 -1.9851 0.9803
-0.9720 4.4680 -1.9928 0.9802
-1.4455 4.3429 -1.9948 0.9802
-2.1993 4.0276 -2.0000 0.9802
-2.3420 3.9472 -2.0003 0.9802
-2.4814 3.8611 -2.0003 0.9802
-2.7505 3.6743 -2.0003 0.9802
-2.8799 3.5738 -2.0003 0.9802
-3.0057 3.4688 -2.0003 0.9802
-3.1276 3.3593 -2.0004 0.9802
-3.3594 3.1277 -2.0004 0.9802
-3.4690 3.0058 -2.0004 0.9802
-3.5741 2.8802 -2.0005 0.9802
-3.6747 2.7508 -2.0005 0.9802
-3.7706 2.6179 -2.0005 0.9802
-3.8617 2.4817 -2.0006 0.9802
-4.2414 1.7568 -2.0008 0.9802
-1.5875 0.5284 -0.7292 0.9927
-1.5485 0.3952 -0.6965 0.9931
-1.5214 0.3309 -0.6786 0.9932
-1.5151 0.2178 -0.6671 0.9933
4.3257 -0.0000 -2.0023 0.9811
4.3228 0.1544 -2.0022 0.9811
4.3144 0.3086 -2.0022 0.9811
4.3005 0.4624 -2.0021 0.9811
4.2564 0.7679 -2.0020 0.9811
4.1905 1.0696 -2.0019 0.9811
4.1496 1.2184 -2.0019 0.9811
3.9952 1.6549 -2.0017 0.9811
3.9335 1.7964 -2.0016 0.9811
3.8668 1.9356 -2.0016 0.9811
3.7187 2.2064 -2.0015 0.9811
3.3665 2.7128 -2.0013 0.9811
3.2674 2.8312 -2.0012 0.9811
3.1642 2.9459 -2.0012 0.9811
3.0569 3.0569 -2.0011 0.9811
2.8310 3.2671 -2.0010 0.9811
2.5906 3.4605 -2.0009 0.9811
1.9348 3.8651 -2.0007 0.9811
1.7955 3.9316 -2.0007 0.9811
1.3640 4.0980 -1.9992 0.9811
1.2164 4.1426 -1.9985 0.9811
0.4610 4.2875 -1.9961 0.9812
0.3076 4.3007 -1.9958 0.9812
0.0000 4.3113 -1.9957 0.9812
-0.3076 4.3008 -1.9958 0.9812
-0.7659 4.2451 -1.9967 0.9812
-0.9171 4.2160 -1.9972 0.9812
-1.0673 4.1817 -1.9977 0.9812
-1.3638 4.0977 -1.9991 0.9811
-1.5098 4.0481 -1.9999 0.9811
-1.6537 3.9925 -2.0003 0.9811
-1.7952 3.9309 -2.0003 0.9811
-1.9343 3.8643 -2.0003 0.9811
-2.0710 3.7928 -2.0003 0.9811
-2.3364 3.6355 -2.0004 0.9811
-2.5898 3.4596 -2.0004 0.9811
-2.7117 3.3650 -2.0004 0.9811
-2.8301 3.2661 -2.0004 0.9811
-3.0559 3.0559 -2.0005 0.9811
-3.6360 2.3367 -2.0006 0.9811
-3.7171 2.2054 -2.0007 0.9811
-3.8652 1.9348 -2.0007 0.9811
-1.3116 0.3348 -0.6266 0.9941
-1.3160 0.2374 -0.6190 0.9941
4.0819 0.0000 -2.0023 0.9820
4.0792 0.1457 -2.0022 0.9820
4.0713 0.2912 -2.0022 0.9820
4.0582 0.4363 -2.0021 0.9820
4.0165 0.7246 -2.0020 0.9820
3.8721 1.2887 -2.0018 0.9820
3.7701 1.5616 -2.0017 0.9820
3.7119 1.6952 -2.0017 0.9820
3.6489 1.8265 -2.0016 0.9820
3.5813 1.9555 -2.0016 0.9820
3.5092 2.0821 -2.0015 0.9820
3.4325 2.2060 -2.0015 0.9820
3.1768 2.5600 -2.0013 0.9820
2.6715 3.0830 -2.0011 0.9820
2.4447 3.2656 -2.0010 0.9820
2.3265 3.3507 -2.0010 0.9820
2.2054 3.4316 -2.0009 0.9820
2.0814 3.5080 -2.0009 0.9820
1.8258 3.6474 -2.0008 0.9820
1.6944 3.7102 -2.0008 0.9820
1.5609 3.7683 -2.0007 0.9820
1.0087 3.9518 -2.0006 0.9820
0.8670 3.9853 -2.0006 0.9820
0.1455 4.0742 -1.9998 0.9820
-0.2908 4.0667 -1.9999 0.9820
-0.5804 4.0365 -2.0004 0.9820
-0.7241 4.0133 -2.0004 0.9820
-1.4251 3.8209 -2.0004 0.9820
-1.5606 3.7677 -2.0004 0.9820
-1.6941 3.7096 -2.0004 0.9820
-1.9544 3.5793 -2.0004 0.9820
-2.3259 3.3499 -2.0005 0.9820
-2.4440 3.2648 -2.0005 0.9820
-2.5590 3.1755 -2.0005 0.9820
-2.6707 3.0822 -2.0005 0.9820
-2.7790 2.9849 -2.0005 0.9820
-2.9850 2.7791 -2.0006 0.9820
-3.3503 2.3261 -2.0007 0.9820
-3.4312 2.2051 -2.0007 0.9820
-1.1400 0.5206 -0.6148 0.9944
-1.1590 0.3403 -0.5925 0.9946
-1.1578 0.2955 -0.5861 0.9947
-1.1791 0.2127 -0.5877 0.9947
-1.1867 0.1706 -0.5881 0.9947
-1.1965 0.0427 -0.5873 0.9947
3.8495 0.2753 -2.0021 0.9828
3.8199 0.5492 -2.0020 0.9828
3.7708 0.8203 -2.0019 0.9828
3.6612 1.2186 -2.0018 0.9828
3.5648 1.4766 -2.0017 0.9828
3.5097 1.6028 -2.0017 0.9828
3.3863 1.8491 -2.0016 0.9828
3.3181 1.9687 -2.0015 0.9828
3.1690 2.2003 -2.0014 0.9828
3.0884 2.3119 -2.0014 0.9828
3.0038 2.4206 -2.0013 0.9828
2.9155 2.5262 -2.0013 0.9828
1.9681 3.3170 -2.0009 0.9828
1.7264 3.4489 -2.0009 0.9828
1.0865 3.7003 -2.0007 0.9828
0.9537 3.7367 -2.0007 0.9828
0.6847 3.7951 -2.0006 0.9828
0.5488 3.8171 -2.0006 0.9828
-0.2751 3.8463 -2.0005 0.9828
-0.6847 3.7949 -2.0005 0.9828
-0.8197 3.7680 -2.0005 0.9828
-0.9536 3.7363 -2.0005 0.9828
-1.0864 3.6999 -2.0005 0.9828
-1.9677 3.3163 -2.0005 0.9828
-2.3109 3.0871 -2.0005 0.9828
-2.4197 3.0027 -2.0006 0.9828
-2.5253 2.9144 -2.0006 0.9828
-3.0028 2.4198 -2.0007 0.9828
-3.0873 2.3111 -2.0007 0.9828
-3.1679 2.1995 -2.0007 0.9828
-0.9917 0.5884 -0.5982 0.9948
-1.0514 0.4355 -0.5904 0.9949
-1.0576 0.3945 -0.5856 0.9949
-1.0617 0.3533 -0.5805 0.9950
-1.0704 0.2732 -0.5731 0.9950
-1.0814 0.2352 -0.5741 0.9950
-1.0905 0.1967 -0.5749 0.9950
-1.0974 0.1578 -0.5752 0.9950
-1.1066 0.0395 -0.5744 0.9950
3.6462 0.2608 -2.0021 0.9835
3.6345 0.3907 -2.0021 0.9835
3.6181 0.5202 -2.0020 0.9835
3.5972 0.6490 -2.0020 0.9835
3.5716 0.7770 -2.0019 0.9835
3.4679 1.1542 -2.0018 0.9835
3.2075 1.7514 -2.0016 0.9835
3.1429 1.8647 -2.0015 0.9835
2.9253 2.1898 -2.0014 0.9835
2.8452 2.2928 -2.0014 0.9835
2.4898 2.6742 -2.0012 0.9835
1.9752 3.0735 -2.0010 0.9835
1.8642 3.1420 -2.0010 0.9835
1.7509 3.2064 -2.0009 0.9835
1.6353 3.2668 -2.0009 0.9835
1.5176 3.3231 -2.0009 0.9835
1.3980 3.3751 -2.0008 0.9835
1.0292 3.5050 -2.0008 0.9835
0.7765 3.5694 -2.0007 0.9835
0.5199 3.6156 -2.0007 0.9835
0.3905 3.6319 -2.0007 0.9835
0.1304 3.6504 -2.0006 0.9835
0.0000 3.6527 -2.0006 0.9835
-0.2606 3.6433 -2.0006 0.9835
-0.5198 3.6154 -2.0006 0.9835
-0.9033 3.5391 -2.0005 0.9835
-1.0290 3.5046 -2.0005 0.9835
-1.5173 3.3225 -2.0005 0.9835
-1.7505 3.2058 -2.0006 0.9835
-1.8638 3.1413 -2.0006 0.9835
-1.9748 3.0728 -2.0006 0.9835
-2.0832 3.0004 -2.0006 0.9835
-2.1890 2.9241 -2.0006 0.9835
-2.2920 2.8442 -2.0006 0.9835
-2.3921 2.7606 -2.0006 0.9835
-2.5829 2.5829 -2.0007 0.9835
-2.6735 2.4891 -2.0007 0.9835
-2.7607 2.3921 -2.0007 0.9835
-2.8444 2.2921 -2.0007 0.9835
-0.9269 0.5061 -0.5784 0.9952
-0.9820 0.2883 -0.5606 0.9953
-0.9938 0.2537 -0.5618 0.9953
-1.0039 0.2184 -0.5627 0.9953
-1.0265 0.0734 -0.5637 0.9953
2.0197 0.0000 -1.1661 0.9907
2.0366 0.2189 -1.1826 0.9906
1.9616 0.5006 -1.1688 0.9907
1.9351 0.5682 -1.1644 0.9907
1.8620 0.7713 -1.1636 0.9907
1.8508 0.8452 -1.1747 0.9906
2.7752 2.0774 -2.0014 0.9841
2.5370 2.3620 -2.0013 0.9841
2.4511 2.4510 -2.0013 0.9841
2.3620 2.5369 -2.0012 0.9841
2.2699 2.6195 -2.0012 0.9841
2.1749 2.6988 -2.0012 0.9841
1.9767 2.8470 -2.0011 0.9841
1.6610 3.0419 -2.0010 0.9841
1.5513 3.0992 -2.0010 0.9841
1.4397 3.1525 -2.0009 0.9841
1.3263 3.2018 -2.0009 0.9841
1.0944 3.2882 -2.0008 0.9841
0.6153 3.4103 -2.0008 0.9841
0.4932 3.4301 -2.0007 0.9841
0.2472 3.4565 -2.0007 0.9841
0.1237 3.4630 -2.0007 0.9841
-0.3704 3.4453 -2.0006 0.9841
-0.4931 3.4299 -2.0006 0.9841
-1.3261 3.2014 -2.0006 0.9841
-1.6607 3.0413 -2.0006 0.9841
-1.7682 2.9801 -2.0006 0.9841
-1.8734 2.9151 -2.0006 0.9841
-2.2693 2.6189 -2.0007 0.9841
-2.4504 2.4504 -2.0007 0.9841
-2.6190 2.2694 -2.0008 0.9841
-0.7846 0.5873 -0.5658 0.9955
-0.8008 0.5560 -0.5628 0.9955
-0.8364 0.4963 -0.5615 0.9955
-0.8941 0.3703 -0.5587 0.9955
-0.9011 0.3361 -0.5553 0.9956
-0.9057 0.3015 -0.5511 0.9956
-0.9259 0.2363 -0.5517 0.9956
-0.9352 0.2034 -0.5526 0.9956
-0.9538 0.1025 -0.5538 0.9956
-0.9575 0.0342 -0.5532 0.9956
