ply
format ascii 1.0
element vertex 743
property float32 x
property float32 y
property float32 z
property float32 I
end_header
-0.7062 -9.8740 -0.7258 0.9611
-0.3527 -9.8761 -0.7246 0.9611
-0.0000 -9.8811 -0.7245 0.9611
-1.7199 -9.5329 -0.9300 0.9618
-1.0457 -9.7260 -0.9391 0.9615
-0.3473 -9.7223 -0.9340 0.9617
0.6980 -9.7590 -0.9393 0.9614
-2.0870 -9.5938 -1.1663 0.9612
-1.0339 -9.6168 -1.1489 0.9618
-0.3435 -9.6180 -1.1432 0.9620
0.6861 -9.5932 -1.1424 0.9620
-2.0744 -9.5361 -1.3828 0.9613
-0.3415 -9.5614 -1.3556 0.9621
0.6808 -9.5189 -1.3522 0.9622
-2.4246 -9.4993 -1.6151 0.9610
-2.0698 -9.5147 -1.6041 0.9613
-0.3410 -9.5461 -1.5736 0.9620
-0.0000 -9.5460 -1.5726 0.9620
0.6811 -9.5227 -1.5728 0.9620
1.0314 -9.5940 -1.5896 0.9616
1.3798 -9.5970 -1.5973 0.9615
-2.4236 -9.4957 -1.8420 0.9609
-1.0302 -9.5823 -1.8115 0.9615
-0.6855 -9.5841 -1.8060 0.9616
-0.0000 -9.5889 -1.8023 0.9617
-9.4694 -0.0000 -2.0016 0.9620
-9.2537 -2.0130 -2.0018 0.9620
-9.1761 -2.3421 -2.0018 0.9620
-8.8736 -3.3097 -2.0019 0.9620
-8.7499 -3.6243 -2.0019 0.9620
-8.1455 -4.8330 -2.0020 0.9620
-7.9679 -5.1207 -2.0021 0.9620
-7.5825 -5.6762 -2.0021 0.9620
-7.3752 -5.9433 -2.0022 0.9620
-6.9326 -6.4545 -2.0022 0.9620
-6.4546 -6.9327 -2.0023 0.9620
-6.2031 -7.1588 -2.0023 0.9620
-5.4025 -7.7811 -2.0023 0.9620
-5.1214 -7.9691 -2.0024 0.9620
-4.5400 -8.3143 -2.0024 0.9620
-4.2403 -8.4711 -2.0024 0.9620
-3.6253 -8.7522 -2.0025 0.9620
-3.3106 -8.8761 -2.0025 0.9620
-2.6690 -9.0898 -2.0025 0.9620
-2.3429 -9.1793 -2.0025 0.9620
-2.0138 -9.2572 -2.0025 0.9620
-1.6821 -9.3232 -2.0025 0.9620
-1.0127 -9.4195 -2.0026 0.9620
-0.3382 -9.4679 -2.0026 0.9620
-0.0000 -9.4739 -2.0026 0.9620
0.6758 -9.4499 -2.0026 0.9620
1.0127 -9.4198 -2.0026 0.9620
1.6821 -9.3235 -2.0026 0.9620
2.0139 -9.2575 -2.0026 0.9620
2.3430 -9.1798 -2.0026 0.9620
2.6691 -9.0903 -2.0026 0.9620
2.9919 -8.9892 -2.0026 0.9620
3.3108 -8.8767 -2.0026 0.9620
4.2407 -8.4719 -2.0026 0.9620
5.1219 -7.9699 -2.0026 0.9620
7.1595 -6.2038 -2.0025 0.9620
7.3763 -5.9443 -2.0025 0.9620
7.5837 -5.6771 -2.0025 0.9620
8.1469 -4.8338 -2.0024 0.9620
8.3141 -4.5399 -2.0024 0.9620
8.4708 -4.2402 -2.0024 0.9620
8.6167 -3.9351 -2.0023 0.9620
8.7515 -3.6250 -2.0023 0.9620
8.8752 -3.3103 -2.0023 0.9620
8.9876 -2.9914 -2.0023 0.9620
9.0885 -2.6687 -2.0022 0.9620
9.3214 -1.6818 -2.0022 0.9620
9.4474 -0.6757 -2.0021 0.9620
-8.5115 -0.3040 -2.0017 0.9656
-8.4306 -1.2121 -2.0018 0.9656
-8.3820 -1.5123 -2.0018 0.9656
-8.3228 -1.8105 -2.0018 0.9656
-8.2530 -2.1064 -2.0018 0.9656
-8.0819 -2.6899 -2.0019 0.9656
-7.9809 -2.9767 -2.0019 0.9656
-7.8696 -3.2597 -2.0019 0.9656
-7.7483 -3.5386 -2.0020 0.9656
-7.3260 -4.3467 -2.0020 0.9656
-6.9974 -4.8584 -2.0021 0.9656
-6.8196 -5.1051 -2.0021 0.9656
-6.6331 -5.3453 -2.0021 0.9656
-5.8052 -6.2352 -2.0022 0.9656
-5.3457 -6.6336 -2.0023 0.9656
-5.1056 -6.8202 -2.0023 0.9656
-4.8589 -6.9982 -2.0023 0.9656
-4.6061 -7.1672 -2.0023 0.9656
-2.9775 -7.9829 -2.0024 0.9656
-2.4004 -8.1751 -2.0024 0.9656
-1.5128 -8.3850 -2.0025 0.9656
-1.2126 -8.4337 -2.0025 0.9656
-0.9108 -8.4716 -2.0025 0.9656
-0.3041 -8.5151 -2.0025 0.9656
2.1072 -8.2560 -2.0025 0.9656
2.9776 -7.9834 -2.0025 0.9656
3.5396 -7.7506 -2.0025 0.9656
4.0834 -7.4783 -2.0025 0.9656
6.2359 -5.8058 -2.0024 0.9656
6.8206 -5.1059 -2.0024 0.9656
6.9984 -4.8591 -2.0024 0.9656
7.6185 -3.8136 -2.0023 0.9656
8.3835 -1.5126 -2.0021 0.9656
8.4699 -0.9106 -2.0021 0.9656
8.5131 -0.3041 -2.0020 0.9656
-7.7309 -0.0000 -2.0017 0.9686
-7.6869 -0.8264 -2.0017 0.9686
-7.6526 -1.1003 -2.0018 0.9686
-7.6085 -1.3728 -2.0018 0.9686
-7.4914 -1.9121 -2.0018 0.9686
-7.4184 -2.1782 -2.0019 0.9686
-7.3360 -2.4417 -2.0019 0.9686
-7.1433 -2.9589 -2.0019 0.9686
-6.9142 -3.4610 -2.0020 0.9686
-6.7863 -3.7056 -2.0020 0.9686
-6.6498 -3.9455 -2.0020 0.9686
-6.1902 -4.6339 -2.0021 0.9686
-5.8439 -5.0638 -2.0021 0.9686
-5.6595 -5.2692 -2.0021 0.9686
-5.4679 -5.4679 -2.0022 0.9686
-4.4104 -6.3522 -2.0023 0.9686
-4.1809 -6.5056 -2.0023 0.9686
-3.7062 -6.7874 -2.0023 0.9686
-3.4616 -6.9154 -2.0023 0.9686
-2.7026 -7.2460 -2.0024 0.9686
-1.3732 -7.6109 -2.0024 0.9685
-1.1006 -7.6551 -2.0024 0.9685
-0.8267 -7.6896 -2.0024 0.9685
-0.2761 -7.7290 -2.0025 0.9685
-0.0000 -7.7340 -2.0025 0.9685
0.2760 -7.7291 -2.0025 0.9685
1.1007 -7.6553 -2.0025 0.9685
2.1789 -7.4208 -2.0025 0.9685
2.7027 -7.2464 -2.0025 0.9685
2.9597 -7.1453 -2.0025 0.9685
3.4618 -6.9159 -2.0025 0.9685
3.7065 -6.7879 -2.0025 0.9685
3.9464 -6.6513 -2.0025 0.9685
4.4108 -6.3528 -2.0024 0.9685
5.2699 -5.6603 -2.0024 0.9686
5.4685 -5.4686 -2.0024 0.9686
6.3524 -4.4106 -2.0023 0.9686
6.7873 -3.7062 -2.0023 0.9686
6.9152 -3.4615 -2.0023 0.9686
7.6538 -1.1005 -2.0021 0.9686
7.7273 -0.2760 -2.0020 0.9686
-7.0529 -0.5044 -2.0017 0.9710
-7.0305 -0.7559 -2.0017 0.9710
-6.9991 -1.0063 -2.0018 0.9710
-6.9588 -1.2555 -2.0018 0.9710
-6.7849 -1.9922 -2.0018 0.9710
-6.6256 -2.4713 -2.0019 0.9710
-6.5333 -2.7062 -2.0019 0.9710
-6.0819 -3.6086 -2.0020 0.9710
-5.9493 -3.8234 -2.0020 0.9710
-5.8091 -4.0333 -2.0020 0.9710
-5.6615 -4.2381 -2.0021 0.9710
-5.5067 -4.4376 -2.0021 0.9710
-5.1762 -4.8192 -2.0021 0.9710
-4.8193 -5.1763 -2.0021 0.9710
-4.6315 -5.3450 -2.0022 0.9710
-4.2385 -5.6619 -2.0022 0.9710
-3.6090 -6.0827 -2.0022 0.9710
-3.1660 -6.3247 -2.0023 0.9710
-2.7067 -6.5346 -2.0023 0.9710
-2.4718 -6.6271 -2.0023 0.9710
-1.9927 -6.7866 -2.0023 0.9710
-1.7492 -6.8534 -2.0023 0.9710
-1.0066 -7.0012 -2.0024 0.9710
-0.7561 -7.0327 -2.0024 0.9710
-0.5046 -7.0553 -2.0024 0.9710
-0.2525 -7.0688 -2.0024 0.9710
-0.0000 -7.0733 -2.0024 0.9710
0.2524 -7.0688 -2.0024 0.9710
0.5046 -7.0554 -2.0024 0.9710
0.7561 -7.0329 -2.0024 0.9710
1.0066 -7.0014 -2.0024 0.9710
1.2559 -6.9610 -2.0024 0.9710
1.5035 -6.9117 -2.0024 0.9710
1.9928 -6.7869 -2.0024 0.9710
2.2338 -6.7114 -2.0024 0.9710
2.4719 -6.6274 -2.0024 0.9710
2.7068 -6.5350 -2.0024 0.9710
2.9384 -6.4342 -2.0024 0.9710
3.1661 -6.3252 -2.0024 0.9710
3.8241 -5.9504 -2.0024 0.9710
4.2388 -5.6624 -2.0024 0.9710
5.0014 -5.0015 -2.0023 0.9710
5.1767 -4.8197 -2.0023 0.9710
5.3454 -4.6319 -2.0023 0.9710
5.5073 -4.4381 -2.0023 0.9710
5.6622 -4.2387 -2.0023 0.9710
6.0827 -3.6090 -2.0023 0.9710
6.2076 -3.3896 -2.0022 0.9710
6.4335 -2.9381 -2.0022 0.9710
6.5342 -2.7066 -2.0022 0.9710
6.6266 -2.4716 -2.0022 0.9710
6.7105 -2.2335 -2.0022 0.9710
6.7859 -1.9926 -2.0021 0.9710
6.8526 -1.7490 -2.0021 0.9710
7.0001 -1.0065 -2.0021 0.9710
7.0315 -0.7560 -2.0020 0.9710
7.0674 -0.2524 -2.0020 0.9710
-6.5039 -0.2323 -2.0017 0.9731
-6.4915 -0.4643 -2.0017 0.9731
-6.4708 -0.6957 -2.0018 0.9731
-6.4419 -0.9262 -2.0018 0.9731
-6.2448 -1.8336 -2.0018 0.9731
-5.8203 -2.9134 -2.0019 0.9731
-5.7126 -3.1194 -2.0020 0.9731
-5.5977 -3.3213 -2.0020 0.9731
-5.3466 -3.7122 -2.0020 0.9731
-5.2108 -3.9007 -2.0020 0.9731
-5.0683 -4.0843 -2.0021 0.9731
-4.9193 -4.2626 -2.0021 0.9731
-4.2627 -4.9195 -2.0021 0.9731
-3.7125 -5.3471 -2.0022 0.9731
-3.5194 -5.4762 -2.0022 0.9731
-3.3217 -5.5984 -2.0022 0.9731
-1.1559 -6.4065 -2.0023 0.9731
-0.9265 -6.4437 -2.0023 0.9731
-0.4644 -6.4935 -2.0023 0.9731
-0.2324 -6.5059 -2.0024 0.9731
-0.0000 -6.5101 -2.0024 0.9731
0.4644 -6.4936 -2.0024 0.9731
0.6959 -6.4728 -2.0024 0.9731
0.9265 -6.4439 -2.0024 0.9731
1.1559 -6.4067 -2.0024 0.9731
1.6100 -6.3079 -2.0024 0.9731
2.0559 -6.1770 -2.0024 0.9731
2.7044 -5.9218 -2.0024 0.9731
3.1200 -5.7138 -2.0024 0.9731
3.3219 -5.5988 -2.0024 0.9731
3.5196 -5.4766 -2.0024 0.9731
3.7128 -5.3475 -2.0023 0.9731
3.9013 -5.2116 -2.0023 0.9731
4.6032 -4.6032 -2.0023 0.9731
4.9198 -4.2630 -2.0023 0.9731
5.4763 -3.5194 -2.0022 0.9731
5.5984 -3.3217 -2.0022 0.9731
5.7133 -3.1197 -2.0022 0.9731
6.0139 -2.4911 -2.0022 0.9731
6.0990 -2.2748 -2.0022 0.9731
6.1762 -2.0557 -2.0021 0.9731
6.2456 -1.8339 -2.0021 0.9731
6.3070 -1.6098 -2.0021 0.9731
6.3604 -1.3837 -2.0021 0.9731
6.4717 -0.6958 -2.0020 0.9731
6.5047 -0.2323 -2.0020 0.9731
-6.0066 -0.4296 -2.0017 0.9749
-5.9608 -0.8571 -2.0018 0.9749
-5.8352 -1.4893 -2.0018 0.9749
-5.7784 -1.6967 -2.0018 0.9749
-5.5641 -2.3047 -2.0019 0.9749
-5.4783 -2.5019 -2.0019 0.9749
-5.3856 -2.6958 -2.0019 0.9749
-5.2859 -2.8864 -2.0020 0.9749
-5.1796 -3.0732 -2.0020 0.9749
-4.6897 -3.7792 -2.0020 0.9749
-4.5518 -3.9442 -2.0021 0.9749
-4.4082 -4.1042 -2.0021 0.9749
-4.1042 -4.4083 -2.0021 0.9749
-3.4352 -4.9476 -2.0022 0.9749
-3.2565 -5.0671 -2.0022 0.9749
-2.8867 -5.2866 -2.0022 0.9749
-2.6962 -5.3863 -2.0022 0.9749
-2.3051 -5.5650 -2.0022 0.9749
-2.1050 -5.6437 -2.0022 0.9749
-1.9023 -5.7153 -2.0023 0.9749
-1.6970 -5.7796 -2.0023 0.9749
-1.4897 -5.8365 -2.0023 0.9749
-1.2804 -5.8860 -2.0023 0.9749
-0.8573 -5.9624 -2.0023 0.9749
-0.6439 -5.9892 -2.0023 0.9749
-0.2150 -6.0199 -2.0023 0.9749
-0.0000 -6.0237 -2.0023 0.9749
0.4297 -6.0084 -2.0023 0.9749
0.6439 -5.9893 -2.0023 0.9749
1.2804 -5.8861 -2.0023 0.9749
1.4897 -5.8367 -2.0023 0.9749
2.1051 -5.6440 -2.0023 0.9749
2.3052 -5.5653 -2.0023 0.9749
2.8868 -5.2869 -2.0023 0.9749
3.4354 -4.9480 -2.0023 0.9749
4.1046 -4.4087 -2.0023 0.9749
4.2593 -4.2593 -2.0023 0.9749
4.4086 -4.1046 -2.0023 0.9749
4.6901 -3.7796 -2.0022 0.9749
4.8220 -3.6097 -2.0022 0.9749
4.9477 -3.4353 -2.0022 0.9749
5.0672 -3.2565 -2.0022 0.9749
5.1802 -3.0736 -2.0022 0.9749
5.2865 -2.8867 -2.0022 0.9749
5.3861 -2.6961 -2.0022 0.9749
5.4789 -2.5022 -2.0022 0.9749
5.5647 -2.3050 -2.0021 0.9749
5.6434 -2.1049 -2.0021 0.9749
5.7791 -1.6969 -2.0021 0.9749
5.8853 -1.2803 -2.0021 0.9749
5.9616 -0.8571 -2.0020 0.9749
6.0189 -0.2150 -2.0020 0.9749
-5.5975 0.0000 -2.0017 0.9765
-5.5834 -0.3993 -2.0017 0.9765
-5.5656 -0.5984 -2.0018 0.9765
-5.5408 -0.7967 -2.0018 0.9765
-5.4699 -1.1899 -2.0018 0.9765
-5.3712 -1.5771 -2.0018 0.9765
-5.1719 -2.1423 -2.0019 0.9765
-5.0060 -2.5058 -2.0019 0.9765
-4.7096 -3.0267 -2.0020 0.9765
-4.5986 -3.1929 -2.0020 0.9765
-4.0975 -3.8149 -2.0021 0.9765
-3.9588 -3.9588 -2.0021 0.9765
-3.8150 -4.0976 -2.0021 0.9765
-3.5130 -4.3593 -2.0021 0.9765
-3.3552 -4.4820 -2.0021 0.9765
-3.1931 -4.5989 -2.0021 0.9765
-3.0269 -4.7100 -2.0021 0.9765
-2.6832 -4.9140 -2.0022 0.9765
-2.5062 -5.0066 -2.0022 0.9765
-2.3259 -5.0929 -2.0022 0.9765
-1.9566 -5.2459 -2.0022 0.9765
-1.5774 -5.3722 -2.0022 0.9765
-1.3847 -5.4251 -2.0022 0.9765
-0.9941 -5.5101 -2.0023 0.9765
-0.5985 -5.5670 -2.0023 0.9765
-0.3995 -5.5848 -2.0023 0.9765
0.1998 -5.5956 -2.0023 0.9765
0.7968 -5.5422 -2.0023 0.9765
1.1902 -5.4712 -2.0023 0.9765
1.9567 -5.2462 -2.0023 0.9765
2.3260 -5.0932 -2.0023 0.9765
2.5062 -5.0069 -2.0023 0.9765
2.6834 -4.9143 -2.0023 0.9765
2.8571 -4.8154 -2.0023 0.9765
3.3554 -4.4823 -2.0023 0.9765
3.5132 -4.3597 -2.0023 0.9765
3.9591 -3.9591 -2.0022 0.9765
4.0978 -3.8153 -2.0022 0.9765
4.2314 -3.6665 -2.0022 0.9765
4.4821 -3.3553 -2.0022 0.9765
4.7100 -3.0270 -2.0022 0.9765
4.8150 -2.8569 -2.0022 0.9765
5.0927 -2.3258 -2.0021 0.9765
5.1725 -2.1425 -2.0021 0.9765
5.3121 -1.7680 -2.0021 0.9765
5.4705 -1.1901 -2.0021 0.9765
5.5414 -0.7968 -2.0020 0.9765
5.5662 -0.5985 -2.0020 0.9765
-5.2102 -0.3727 -2.0018 0.9779
-5.1705 -0.7434 -2.0018 0.9779
-5.1043 -1.1104 -2.0018 0.9779
-5.0122 -1.4717 -2.0018 0.9779
-4.9565 -1.6497 -2.0019 0.9779
-4.8945 -1.8256 -2.0019 0.9779
-4.8263 -1.9991 -2.0019 0.9779
-4.7519 -2.1701 -2.0019 0.9779
-4.6714 -2.3383 -2.0019 0.9779
-4.5850 -2.5036 -2.0019 0.9779
-4.1822 -3.1308 -2.0020 0.9779
-4.0678 -3.2780 -2.0020 0.9779
-3.9482 -3.4212 -2.0020 0.9779
-3.6942 -3.6942 -2.0021 0.9779
-3.5600 -3.8237 -2.0021 0.9779
-3.2782 -4.0680 -2.0021 0.9779
-2.9797 -4.2915 -2.0021 0.9779
-2.8246 -4.3952 -2.0021 0.9779
-2.6660 -4.4932 -2.0021 0.9779
-2.3386 -4.6720 -2.0022 0.9779
-1.9994 -4.8270 -2.0022 0.9779
-1.6500 -4.9574 -2.0022 0.9779
-0.7436 -5.1716 -2.0022 0.9779
-0.5585 -5.1949 -2.0022 0.9779
-0.1865 -5.2215 -2.0023 0.9779
0.1865 -5.2216 -2.0023 0.9779
0.3727 -5.2116 -2.0023 0.9779
1.2921 -5.0626 -2.0023 0.9779
1.4720 -5.0133 -2.0023 0.9779
1.6500 -4.9575 -2.0023 0.9779
1.8259 -4.8955 -2.0023 0.9779
2.1705 -4.7527 -2.0023 0.9779
2.3387 -4.6722 -2.0023 0.9779
2.6661 -4.4935 -2.0023 0.9779
2.9798 -4.2918 -2.0022 0.9779
3.4215 -3.9486 -2.0022 0.9779
3.5602 -3.8240 -2.0022 0.9779
4.3952 -2.8247 -2.0022 0.9779
4.4932 -2.6659 -2.0021 0.9779
4.6719 -2.3386 -2.0021 0.9779
4.8267 -1.9993 -2.0021 0.9779
4.9570 -1.6499 -2.0021 0.9779
5.0127 -1.4719 -2.0021 0.9779
5.0620 -1.2920 -2.0021 0.9779
5.1710 -0.7435 -2.0020 0.9779
5.1942 -0.5585 -2.0020 0.9779
5.2207 -0.1865 -2.0020 0.9779
-4.7392 -1.2096 -2.0018 0.9791
-4.6931 -1.3780 -2.0018 0.9791
-4.6409 -1.5447 -2.0019 0.9791
-4.5829 -1.7093 -2.0019 0.9791
-4.5190 -1.8718 -2.0019 0.9791
-4.4493 -2.0320 -2.0019 0.9791
-4.2931 -2.3442 -2.0019 0.9791
-4.2067 -2.4960 -2.0019 0.9791
-4.1150 -2.6446 -2.0020 0.9791
-3.6968 -3.2033 -2.0020 0.9791
-3.5802 -3.3333 -2.0020 0.9791
-3.4590 -3.4589 -2.0020 0.9791
-3.3333 -3.5802 -2.0021 0.9791
-2.7899 -4.0183 -2.0021 0.9791
-2.6448 -4.1153 -2.0021 0.9791
-2.4962 -4.2071 -2.0021 0.9791
-2.1897 -4.3745 -2.0021 0.9791
-1.8721 -4.5196 -2.0022 0.9791
-1.7096 -4.5836 -2.0022 0.9791
-1.5449 -4.6417 -2.0022 0.9791
-1.3783 -4.6939 -2.0022 0.9791
-1.2098 -4.7401 -2.0022 0.9791
-1.0399 -4.7803 -2.0022 0.9791
-0.8686 -4.8144 -2.0022 0.9791
-0.6962 -4.8423 -2.0022 0.9791
-0.5230 -4.8641 -2.0022 0.9791
-0.1746 -4.8890 -2.0022 0.9791
0.3490 -4.8797 -2.0022 0.9791
0.6962 -4.8424 -2.0022 0.9791
0.8686 -4.8145 -2.0022 0.9791
1.2098 -4.7402 -2.0022 0.9791
1.8721 -4.5198 -2.0022 0.9791
2.1898 -4.3747 -2.0022 0.9791
2.4963 -4.2073 -2.0022 0.9791
2.6449 -4.1155 -2.0022 0.9791
2.7901 -4.0185 -2.0022 0.9791
2.9317 -3.9164 -2.0022 0.9791
3.0696 -3.8092 -2.0022 0.9791
3.2036 -3.6972 -2.0022 0.9791
3.4592 -3.4592 -2.0022 0.9791
4.2071 -2.4962 -2.0021 0.9791
4.4497 -2.0322 -2.0021 0.9791
4.6935 -1.3782 -2.0020 0.9791
4.7397 -1.2098 -2.0020 0.9791
4.7798 -1.0398 -2.0020 0.9791
4.8883 -0.1746 -2.0020 0.9791
-1.5293 -0.1094 -0.6682 0.9933
-1.5002 -0.2707 -0.6643 0.9934
-1.5214 -0.3310 -0.6786 0.9932
-1.5485 -0.3952 -0.6965 0.9931
-1.5707 -0.4612 -0.7134 0.9929
-4.2438 -1.7578 -2.0019 0.9802
-4.0316 -2.2014 -2.0019 0.9802
-3.9505 -2.3439 -2.0019 0.9802
-3.8644 -2.4835 -2.0020 0.9802
-3.7733 -2.6199 -2.0020 0.9802
-3.6774 -2.7529 -2.0020 0.9802
-3.5768 -2.8824 -2.0020 0.9802
-3.4717 -3.0082 -2.0020 0.9802
-3.3621 -3.1303 -2.0020 0.9802
-3.0083 -3.4718 -2.0021 0.9802
-2.8825 -3.5769 -2.0021 0.9802
-2.7530 -3.6776 -2.0021 0.9802
-2.6200 -3.7735 -2.0021 0.9802
-2.4837 -3.8646 -2.0021 0.9802
-2.3442 -3.9508 -2.0021 0.9802
-2.2017 -4.0320 -2.0021 0.9802
-2.0563 -4.1080 -2.0021 0.9802
-1.9084 -4.1788 -2.0021 0.9802
-1.1361 -4.4514 -2.0022 0.9802
-0.0000 -4.5942 -2.0022 0.9802
0.4911 -4.5679 -2.0022 0.9802
1.1362 -4.4515 -2.0022 0.9802
1.2943 -4.4081 -2.0022 0.9802
1.6055 -4.3045 -2.0022 0.9802
2.0564 -4.1082 -2.0022 0.9802
2.2017 -4.0322 -2.0022 0.9802
2.6201 -3.7737 -2.0022 0.9802
2.7531 -3.6778 -2.0022 0.9802
3.0085 -3.4720 -2.0022 0.9802
3.1305 -3.3624 -2.0022 0.9802
3.3623 -3.1305 -2.0022 0.9802
3.4719 -3.0085 -2.0022 0.9802
3.6777 -2.7531 -2.0021 0.9802
3.7736 -2.6200 -2.0021 0.9802
3.9508 -2.3442 -2.0021 0.9802
4.1787 -1.9084 -2.0021 0.9802
4.2441 -1.7580 -2.0021 0.9802
4.3042 -1.6054 -2.0021 0.9802
4.3587 -1.4507 -2.0020 0.9802
4.4887 -0.9765 -2.0020 0.9802
4.5207 -0.8156 -2.0020 0.9802
4.5819 -0.3277 -2.0020 0.9802
4.5906 -0.1640 -2.0019 0.9802
-1.3333 -0.0000 -0.6172 0.9941
-1.3273 -0.1909 -0.6207 0.9941
-1.3160 -0.2374 -0.6190 0.9941
-1.3117 -0.3348 -0.6266 0.9941
-1.3263 -0.5494 -0.6645 0.9937
-3.8674 -1.9359 -2.0019 0.9811
-3.7959 -2.0727 -2.0019 0.9811
-3.5526 -2.4666 -2.0020 0.9811
-3.4623 -2.5919 -2.0020 0.9811
-3.2687 -2.8323 -2.0020 0.9811
-3.1655 -2.9472 -2.0020 0.9811
-3.0583 -3.0583 -2.0020 0.9811
-2.9472 -3.1655 -2.0020 0.9811
-2.7139 -3.3678 -2.0020 0.9811
-2.5920 -3.4625 -2.0021 0.9811
-2.3384 -3.6386 -2.0021 0.9811
-2.0729 -3.7962 -2.0021 0.9811
-1.9361 -3.8678 -2.0021 0.9811
-1.7968 -3.9344 -2.0021 0.9811
-1.6552 -3.9961 -2.0021 0.9811
-1.5116 -4.0526 -2.0021 0.9811
-0.9194 -4.2265 -2.0022 0.9811
-0.6156 -4.2814 -2.0022 0.9811
-0.4624 -4.3006 -2.0022 0.9811
-0.1544 -4.3227 -2.0022 0.9811
-0.0000 -4.3255 -2.0022 0.9811
0.3086 -4.3145 -2.0022 0.9811
0.4623 -4.3007 -2.0022 0.9811
0.6156 -4.2815 -2.0022 0.9811
0.7680 -4.2568 -2.0022 0.9811
0.9194 -4.2266 -2.0022 0.9811
1.0697 -4.1912 -2.0022 0.9811
1.3660 -4.1041 -2.0022 0.9811
1.7969 -3.9346 -2.0022 0.9811
2.0730 -3.7964 -2.0022 0.9811
2.4669 -3.5530 -2.0022 0.9811
2.8325 -3.2689 -2.0022 0.9811
2.9474 -3.1658 -2.0022 0.9811
3.0585 -3.0585 -2.0021 0.9811
3.1657 -2.9474 -2.0021 0.9811
3.4626 -2.5921 -2.0021 0.9811
3.5529 -2.4668 -2.0021 0.9811
3.6386 -2.3384 -2.0021 0.9811
3.7198 -2.2071 -2.0021 0.9811
3.7961 -2.0729 -2.0021 0.9811
3.9343 -1.7968 -2.0021 0.9811
3.9959 -1.6552 -2.0021 0.9811
4.0524 -1.5115 -2.0020 0.9811
4.1038 -1.3659 -2.0020 0.9811
4.1907 -1.0696 -2.0020 0.9811
4.2563 -0.7679 -2.0020 0.9811
4.2810 -0.6155 -2.0020 0.9811
4.3002 -0.4623 -2.0020 0.9811
4.3139 -0.3086 -2.0020 0.9811
-1.1954 -0.0000 -0.5864 0.9947
-1.1953 -0.0855 -0.5878 0.9947
-1.1921 -0.1282 -0.5881 0.9947
-1.1867 -0.1706 -0.5881 0.9947
-1.1791 -0.2127 -0.5877 0.9947
-1.1590 -0.3403 -0.5925 0.9946
-1.1579 -0.3854 -0.5986 0.9946
-1.1543 -0.4306 -0.6043 0.9945
-1.1484 -0.4757 -0.6097 0.9945
-3.2672 -2.4458 -2.0020 0.9820
-3.1779 -2.5609 -2.0020 0.9820
-2.6728 -3.0846 -2.0020 0.9820
-2.5610 -3.1780 -2.0020 0.9820
-2.4459 -3.2674 -2.0020 0.9820
-2.3278 -3.3526 -2.0021 0.9820
-2.2066 -3.4336 -2.0021 0.9820
-2.0827 -3.5102 -2.0021 0.9820
-1.9561 -3.5823 -2.0021 0.9820
-1.8270 -3.6498 -2.0021 0.9820
-1.6955 -3.7127 -2.0021 0.9820
-1.5620 -3.7709 -2.0021 0.9820
-1.4264 -3.8243 -2.0021 0.9820
-1.1499 -3.9163 -2.0021 0.9820
-0.5809 -4.0401 -2.0021 0.9820
-0.4363 -4.0583 -2.0022 0.9820
-0.1457 -4.0791 -2.0022 0.9820
0.2912 -4.0713 -2.0022 0.9820
0.4363 -4.0583 -2.0022 0.9820
0.5809 -4.0402 -2.0022 0.9820
0.7247 -4.0169 -2.0022 0.9820
1.1499 -3.9164 -2.0022 0.9820
1.6956 -3.7129 -2.0022 0.9820
1.8270 -3.6500 -2.0022 0.9820
1.9561 -3.5824 -2.0022 0.9820
2.0828 -3.5103 -2.0022 0.9820
2.2067 -3.4337 -2.0022 0.9820
2.3279 -3.3528 -2.0022 0.9820
2.4460 -3.2676 -2.0022 0.9820
2.5611 -3.1782 -2.0021 0.9820
2.7813 -2.9873 -2.0021 0.9820
2.9873 -2.7813 -2.0021 0.9820
3.0846 -2.6729 -2.0021 0.9820
3.1781 -2.5611 -2.0021 0.9820
3.6498 -1.8270 -2.0021 0.9820
3.9160 -1.1499 -2.0020 0.9820
3.9546 -1.0094 -2.0020 0.9820
3.9881 -0.8676 -2.0020 0.9820
4.0165 -0.7247 -2.0020 0.9820
4.0397 -0.5808 -2.0020 0.9820
4.0579 -0.4363 -2.0020 0.9820
4.0708 -0.2912 -2.0019 0.9820
-1.1058 -0.0000 -0.5737 0.9950
-1.1055 -0.0791 -0.5750 0.9950
-1.0905 -0.1968 -0.5749 0.9950
-1.0814 -0.2353 -0.5741 0.9950
-1.0704 -0.2732 -0.5731 0.9950
-1.0636 -0.3123 -0.5751 0.9950
-1.0430 -0.4763 -0.5948 0.9948
-1.0118 -0.5525 -0.5981 0.9948
-0.9917 -0.5884 -0.5982 0.9948
-3.2463 -2.0863 -2.0019 0.9828
-3.1698 -2.2009 -2.0019 0.9828
-2.8244 -2.6296 -2.0020 0.9828
-2.7288 -2.7288 -2.0020 0.9828
-2.4215 -3.0049 -2.0020 0.9828
-2.3127 -3.0894 -2.0020 0.9828
-1.9692 -3.3190 -2.0021 0.9828
-1.8495 -3.3871 -2.0021 0.9828
-1.7275 -3.4510 -2.0021 0.9828
-1.6032 -3.5105 -2.0021 0.9828
-1.3487 -3.6159 -2.0021 0.9828
-1.2188 -3.6618 -2.0021 0.9828
-1.0873 -3.7030 -2.0021 0.9828
-0.9545 -3.7394 -2.0021 0.9828
-0.8204 -3.7711 -2.0021 0.9828
-0.6852 -3.7980 -2.0021 0.9828
-0.5492 -3.8200 -2.0021 0.9828
-0.2753 -3.8495 -2.0021 0.9828
-0.1378 -3.8569 -2.0021 0.9828
0.2753 -3.8495 -2.0022 0.9828
0.5492 -3.8201 -2.0022 0.9828
0.6852 -3.7981 -2.0022 0.9828
1.0873 -3.7030 -2.0022 0.9828
1.2188 -3.6619 -2.0022 0.9828
1.3487 -3.6160 -2.0022 0.9828
1.8496 -3.3873 -2.0021 0.9828
1.9693 -3.3191 -2.0021 0.9828
2.2011 -3.1702 -2.0021 0.9828
2.6298 -2.8246 -2.0021 0.9828
2.9166 -2.5273 -2.0021 0.9828
3.0895 -2.3128 -2.0021 0.9828
3.1700 -2.2010 -2.0021 0.9828
3.2466 -2.0865 -2.0021 0.9828
3.3871 -1.8495 -2.0021 0.9828
3.4509 -1.7274 -2.0021 0.9828
3.5104 -1.6032 -2.0020 0.9828
3.6616 -1.2187 -2.0020 0.9828
3.7392 -0.9544 -2.0020 0.9828
3.7708 -0.8203 -2.0020 0.9828
3.7977 -0.6852 -2.0020 0.9828
3.8197 -0.5492 -2.0020 0.9828
-1.0269 -0.0000 -0.5625 0.9953
-1.0276 -0.0367 -0.5632 0.9953
-1.0265 -0.0734 -0.5637 0.9953
-1.0190 -0.1465 -0.5638 0.9953
-1.0124 -0.1827 -0.5634 0.9953
-1.0039 -0.2184 -0.5627 0.9953
-0.9820 -0.2883 -0.5606 0.9953
-0.9741 -0.3633 -0.5694 0.9953
-0.9580 -0.4375 -0.5768 0.9952
-0.9269 -0.5061 -0.5784 0.9952
-0.9084 -0.5390 -0.5785 0.9952
-0.8882 -0.5708 -0.5782 0.9952
-2.7624 -2.3937 -2.0020 0.9835
-2.4908 -2.6753 -2.0020 0.9835
-2.3937 -2.7625 -2.0020 0.9835
-2.1906 -2.9262 -2.0020 0.9835
-2.0847 -3.0026 -2.0020 0.9835
-1.9762 -3.0751 -2.0020 0.9835
-1.7518 -3.2082 -2.0021 0.9835
-1.6362 -3.2688 -2.0021 0.9835
-1.5185 -3.3251 -2.0021 0.9835
-1.3989 -3.3772 -2.0021 0.9835
-1.2774 -3.4250 -2.0021 0.9835
-1.1544 -3.4684 -2.0021 0.9835
-0.9040 -3.5419 -2.0021 0.9835
-0.7770 -3.5719 -2.0021 0.9835
-0.5202 -3.6183 -2.0021 0.9835
-0.3908 -3.6346 -2.0021 0.9835
-0.1305 -3.6532 -2.0021 0.9835
-0.0000 -3.6555 -2.0021 0.9835
0.1305 -3.6532 -2.0021 0.9835
0.5202 -3.6183 -2.0021 0.9835
0.6490 -3.5974 -2.0021 0.9835
0.7770 -3.5720 -2.0021 0.9835
1.3989 -3.3773 -2.0021 0.9835
1.6363 -3.2689 -2.0021 0.9835
1.7519 -3.2084 -2.0021 0.9835
2.0848 -3.0027 -2.0021 0.9835
2.1906 -2.9264 -2.0021 0.9835
2.2937 -2.8463 -2.0021 0.9835
2.3938 -2.7626 -2.0021 0.9835
2.5848 -2.5848 -2.0021 0.9835
2.6754 -2.4909 -2.0021 0.9835
2.7626 -2.3938 -2.0021 0.9835
2.8462 -2.2937 -2.0021 0.9835
3.0026 -2.0848 -2.0021 0.9835
3.1436 -1.8652 -2.0021 0.9835
3.3770 -1.3988 -2.0020 0.9835
3.4248 -1.2774 -2.0020 0.9835
3.4682 -1.1544 -2.0020 0.9835
3.5971 -0.6490 -2.0020 0.9835
3.6528 -0.1305 -2.0019 0.9835
-0.9570 -0.0000 -0.5525 0.9956
-0.9430 -0.1701 -0.5532 0.9956
-0.9353 -0.2035 -0.5526 0.9956
-0.8941 -0.3704 -0.5587 0.9955
-0.8823 -0.4029 -0.5600 0.9955
-0.8534 -0.4660 -0.5614 0.9955
-0.8364 -0.4963 -0.5615 0.9955
-0.7846 -0.5873 -0.5658 0.9955
-0.7671 -0.6182 -0.5688 0.9955
-2.6206 -2.2708 -2.0020 0.9841
-2.5379 -2.3629 -2.0020 0.9841
-2.4519 -2.4519 -2.0020 0.9841
-1.7694 -2.9822 -2.0020 0.9841
-1.2118 -3.2491 -2.0021 0.9841
-1.0951 -3.2903 -2.0021 0.9841
-0.7371 -3.3885 -2.0021 0.9841
-0.3707 -3.4479 -2.0021 0.9841
-0.2474 -3.4589 -2.0021 0.9841
-0.0000 -3.4678 -2.0021 0.9841
0.1238 -3.4656 -2.0021 0.9841
0.2474 -3.4590 -2.0021 0.9841
0.6157 -3.4127 -2.0021 0.9841
0.7371 -3.3886 -2.0021 0.9841
0.8576 -3.3601 -2.0021 0.9841
1.2118 -3.2492 -2.0021 0.9841
1.4405 -3.1544 -2.0021 0.9841
1.5522 -3.1010 -2.0021 0.9841
1.6619 -3.0436 -2.0021 0.9841
1.7695 -2.9823 -2.0021 0.9841
2.0781 -2.7761 -2.0021 0.9841
2.2709 -2.6207 -2.0021 0.9841
2.6207 -2.2709 -2.0021 0.9841
2.7001 -2.1759 -2.0021 0.9841
2.7760 -2.0781 -2.0021 0.9841
2.8484 -1.9777 -2.0021 0.9841
2.9822 -1.7695 -2.0020 0.9841
3.0435 -1.6619 -2.0020 0.9841
1.8508 -0.8452 -1.1747 0.9906
1.8682 -0.6968 -1.1512 0.9908
2.0153 -0.3636 -1.1823 0.9906
2.0300 -0.2919 -1.1841 0.9906
2.0359 -0.1456 -1.1784 0.9906
2.0320 -0.0726 -1.1739 0.9907
