ply
format ascii 1.0
element vertex 842
property float32 x
property float32 y
property float32 z
property float32 I
end_header
3.1256 4.8635 1.0194 0.9768
1.8952 6.4543 1.1861 0.9730
1.6511 6.4690 1.1772 0.9732
3.1252 4.8629 0.8855 0.9769
1.8946 6.4523 1.0302 0.9732
1.4440 6.6379 1.0407 0.9729
3.1248 4.8622 0.7526 0.9770
1.6486 6.4593 0.8681 0.9735
1.4408 6.6231 0.8826 0.9730
1.6474 6.4545 0.7153 0.9736
1.4376 6.6084 0.7262 0.9732
-6.0405 5.6239 0.8862 0.9673
-5.9864 5.1872 0.8506 0.9686
-6.1505 4.9564 0.8482 0.9687
-6.4865 4.5037 0.8480 0.9687
3.1240 4.8610 0.4891 0.9771
1.4344 6.5939 0.5712 0.9733
-6.3607 5.9220 0.7357 0.9657
-6.1602 4.6114 0.6514 0.9696
-6.5993 4.5820 0.6801 0.9683
-7.0406 4.5247 0.7085 0.9670
-6.2816 5.8484 0.5322 0.9662
-6.2474 5.4134 0.5126 0.9674
-6.1915 4.6349 0.4796 0.9695
3.1232 4.8597 0.2278 0.9771
1.6438 6.4402 0.2621 0.9737
1.4282 6.5652 0.2649 0.9735
-6.2167 5.3867 0.3244 0.9676
-6.1916 4.6350 0.3050 0.9695
1.4251 6.5510 0.1132 0.9735
-6.3609 5.9222 0.1468 0.9658
-6.2717 5.4345 0.1402 0.9673
-6.2167 5.0097 0.1349 0.9686
-6.1917 4.6350 0.1306 0.9695
1.9012 6.4749 -0.0380 0.9734
1.6414 6.4308 -0.0374 0.9738
1.4220 6.5368 -0.0377 0.9736
-6.2717 5.4344 -0.0467 0.9673
-6.1918 4.6351 -0.0435 0.9695
3.1220 4.8579 -0.1626 0.9772
1.9021 6.4781 -0.1901 0.9733
1.6402 6.4261 -0.1867 0.9738
1.4189 6.5227 -0.1880 0.9736
-6.3611 5.9224 -0.2447 0.9658
-6.1919 4.6352 -0.2178 0.9695
1.9031 6.4814 -0.3426 0.9733
1.4159 6.5087 -0.3378 0.9737
-6.2165 5.0096 -0.4049 0.9685
1.6378 6.4167 -0.4856 0.9738
1.4128 6.4946 -0.4873 0.9737
-6.2716 5.4344 -0.6085 0.9673
-6.2165 5.0096 -0.5854 0.9685
3.1208 4.8561 -0.5542 0.9771
1.6366 6.4120 -0.6353 0.9738
-6.2715 5.4343 -0.7967 0.9672
-6.2165 5.0096 -0.7665 0.9684
1.4067 6.4666 -0.7861 0.9737
-6.3614 5.9227 -1.0324 0.9656
3.1200 4.8548 -0.8177 0.9770
1.4037 6.4526 -0.9356 0.9737
-6.2164 5.0095 -1.1312 0.9683
-6.1923 4.6355 -1.0960 0.9692
-7.6244 5.2937 -1.3152 0.9632
-8.0528 5.1753 -1.3563 0.9621
3.1196 4.8542 -0.9506 0.9769
1.9079 6.4977 -1.1156 0.9729
1.6329 6.3978 -1.0877 0.9736
1.2243 6.7856 -1.1359 0.9724
-6.3615 5.9228 -1.4319 0.9654
-6.1924 4.6355 -1.2743 0.9691
8.9372 4.0815 -1.8467 0.9608
8.7852 4.3976 -1.8466 0.9608
8.4481 5.0125 -1.8464 0.9608
8.2633 5.3105 -1.8463 0.9608
8.0681 5.6017 -1.8462 0.9608
7.8625 5.8858 -1.8461 0.9608
7.6471 6.1624 -1.8460 0.9608
7.4219 6.4311 -1.8459 0.9608
6.9436 6.9436 -1.8457 0.9608
6.6910 7.1866 -1.8456 0.9608
5.5994 8.0646 -1.8454 0.9608
3.1192 4.8536 -1.0844 0.9768
5.0096 8.4431 -1.8453 0.9608
4.7049 8.6164 -1.8453 0.9608
3.4306 9.1978 -1.8452 0.9608
3.1001 9.3143 -1.8452 0.9608
1.6317 6.3930 -1.2401 0.9735
1.3976 6.4245 -1.2358 0.9736
1.3971 9.7170 -1.8452 0.9608
1.0494 9.7608 -1.8452 0.9608
0.3504 9.8112 -1.8453 0.9608
-0.3504 9.8117 -1.8454 0.9608
-0.7004 9.7932 -1.8454 0.9608
-1.0495 9.7622 -1.8455 0.9608
-2.0873 9.5952 -1.8457 0.9608
-3.4322 9.2022 -1.8460 0.9608
-3.7587 9.0743 -1.8461 0.9608
-4.7080 8.6221 -1.8465 0.9608
-5.0131 8.4491 -1.8466 0.9608
9.4085 1.0115 -2.0002 0.9621
9.3657 1.3466 -2.0001 0.9621
9.3110 1.6799 -1.9999 0.9621
9.1662 2.3395 -1.9997 0.9621
9.0763 2.6650 -1.9995 0.9621
8.9748 2.9871 -1.9994 0.9621
8.7285 3.6155 -1.9970 0.9621
8.0535 4.0313 -1.9037 0.9638
7.1757 4.9822 -1.8466 0.9649
6.9930 5.2349 -1.8465 0.9649
6.8014 5.4809 -1.8464 0.9649
6.3925 5.9516 -1.8462 0.9649
5.7190 6.6001 -1.8460 0.9649
5.4796 6.7998 -1.8460 0.9649
5.2333 6.9909 -1.8459 0.9649
4.9803 7.1730 -1.8459 0.9649
3.0851 4.8005 -1.2062 0.9769
2.5723 5.6326 -1.3089 0.9750
2.6401 6.3738 -1.4583 0.9722
1.9099 6.5044 -1.4330 0.9727
1.6305 6.3882 -1.3936 0.9734
1.3945 6.4103 -1.3867 0.9735
1.2186 6.7544 -1.4508 0.9723
1.2427 8.6428 -1.8457 0.9649
0.6229 8.7096 -1.8457 0.9649
-2.4608 8.3806 -1.8463 0.9649
-3.3430 8.0707 -1.8465 0.9649
-3.9106 7.8124 -1.8467 0.9649
-4.1872 7.6683 -1.8468 0.9649
-4.9838 7.1780 -1.8471 0.9649
-5.2371 6.9960 -1.8473 0.9649
-5.9561 6.3973 -1.8476 0.9649
-6.1810 6.1811 -1.8477 0.9649
-6.3617 5.9230 -1.8373 0.9651
-6.6072 5.7252 -1.8480 0.9649
-6.8078 5.4861 -1.8481 0.9649
-6.1925 4.6357 -1.6351 0.9689
-7.3568 4.7280 -1.8485 0.9649
-7.5215 4.4627 -1.8487 0.9649
-7.6765 4.1917 -1.8488 0.9649
-8.7448 3.6222 -2.0008 0.9620
-8.8720 3.3091 -2.0016 0.9620
-9.0869 2.6682 -2.0019 0.9620
-9.3222 1.6819 -2.0023 0.9620
-9.3770 1.3482 -2.0025 0.9620
-9.4199 1.0128 -2.0027 0.9620
-9.4508 0.6759 -2.0028 0.9620
8.5132 0.0000 -2.0008 0.9656
8.5072 0.3038 -2.0007 0.9656
8.4904 0.6072 -2.0005 0.9656
8.4627 0.9098 -2.0004 0.9656
8.4243 1.2112 -2.0003 0.9656
8.3154 1.8089 -2.0000 0.9656
8.0729 2.6869 -1.9997 0.9656
7.9714 2.9732 -1.9995 0.9656
7.8598 3.2556 -1.9994 0.9656
7.7382 3.5339 -1.9993 0.9656
6.9771 4.1397 -1.9067 0.9672
6.6111 4.2487 -1.8470 0.9682
5.9381 5.1454 -1.8466 0.9682
5.5555 5.5555 -1.8465 0.9682
5.3535 5.7501 -1.8464 0.9682
4.9294 6.1170 -1.8463 0.9682
4.7078 6.2889 -1.8463 0.9682
4.4802 6.4528 -1.8462 0.9682
3.0769 4.7877 -1.3375 0.9769
2.9679 5.0021 -1.3670 0.9764
3.7646 6.8943 -1.8461 0.9682
2.5676 5.6223 -1.4526 0.9749
2.3398 5.6488 -1.4370 0.9752
2.1121 5.6627 -1.4204 0.9755
1.6707 5.6897 -1.3937 0.9759
1.4556 5.7029 -1.3833 0.9761
1.2434 5.7159 -1.3748 0.9763
0.6186 5.7541 -1.3601 0.9765
0.2804 7.8503 -1.8462 0.9682
-0.2804 7.8506 -1.8462 0.9682
-0.5604 7.8357 -1.8463 0.9682
-1.1180 7.7762 -1.8464 0.9682
-1.3949 7.7316 -1.8464 0.9682
-1.6700 7.6771 -1.8465 0.9682
-2.2136 7.5389 -1.8466 0.9682
-2.4814 7.4554 -1.8467 0.9682
-2.7460 7.3624 -1.8468 0.9682
-3.0072 7.2600 -1.8469 0.9682
-4.0106 6.7595 -1.8472 0.9682
-4.2495 6.6123 -1.8473 0.9682
-4.4830 6.4568 -1.8474 0.9682
-4.7109 6.2930 -1.8475 0.9682
-4.9328 6.1212 -1.8476 0.9682
-5.1484 5.9416 -1.8477 0.9682
-5.3575 5.7544 -1.8478 0.9682
-5.5598 5.5598 -1.8479 0.9682
-5.7551 5.3582 -1.8481 0.9682
-6.1235 4.9346 -1.8483 0.9682
-7.0828 4.2024 -1.9356 0.9667
-7.6069 3.8078 -1.9993 0.9656
-7.7459 3.5374 -2.0013 0.9656
-7.8678 3.2589 -2.0015 0.9656
-7.9796 2.9762 -2.0016 0.9656
-8.0813 2.6897 -2.0017 0.9656
-8.1727 2.3997 -2.0019 0.9656
-8.3842 1.5127 -2.0023 0.9656
-8.4335 1.2125 -2.0024 0.9656
-8.4996 0.6079 -2.0027 0.9656
7.7225 0.2758 -2.0008 0.9686
7.6474 1.0996 -2.0004 0.9686
7.6029 1.3717 -2.0003 0.9686
7.5486 1.6421 -2.0002 0.9686
7.4848 1.9104 -2.0001 0.9686
7.4114 2.1762 -2.0000 0.9686
7.3287 2.4392 -1.9999 0.9686
7.0249 3.2081 -1.9996 0.9686
6.9056 3.4567 -1.9995 0.9686
6.7768 3.7004 -1.9992 0.9686
6.4713 4.1589 -1.9917 0.9687
6.0698 4.2143 -1.9132 0.9699
5.5544 4.4760 -1.8470 0.9710
5.2206 4.8605 -1.8469 0.9710
5.0436 5.0436 -1.8468 0.9710
4.2741 5.7095 -1.8466 0.9710
4.0675 5.8582 -1.8466 0.9710
3.0686 4.7748 -1.4696 0.9768
2.9613 4.9911 -1.5026 0.9763
3.4178 6.2591 -1.8465 0.9710
2.5676 5.6223 -1.6003 0.9748
2.3398 5.6488 -1.5831 0.9751
2.1121 5.6627 -1.5649 0.9753
1.6707 5.6898 -1.5354 0.9758
1.2434 5.7159 -1.5146 0.9761
1.0336 5.7288 -1.5072 0.9762
0.2546 7.1270 -1.8465 0.9710
0.0000 7.1317 -1.8465 0.9710
-0.5088 7.1138 -1.8466 0.9710
-0.7624 7.0913 -1.8466 0.9710
-1.5162 6.9697 -1.8468 0.9710
-1.7640 6.9114 -1.8468 0.9710
-2.0096 6.8443 -1.8469 0.9710
-2.2527 6.7684 -1.8470 0.9710
-2.7300 6.5909 -1.8471 0.9710
-2.9637 6.4896 -1.8472 0.9710
-3.1935 6.3799 -1.8473 0.9710
-3.4194 6.2622 -1.8474 0.9709
-3.6409 6.1364 -1.8474 0.9709
-3.8578 6.0028 -1.8475 0.9709
-4.0698 5.8616 -1.8476 0.9709
-4.2766 5.7129 -1.8477 0.9709
-5.3950 4.6748 -1.8483 0.9709
-5.5587 4.4795 -1.8484 0.9709
-6.1532 4.2723 -1.9395 0.9695
-6.9117 3.4598 -2.0012 0.9686
-7.1418 2.9582 -2.0015 0.9686
-7.2433 2.7016 -2.0016 0.9686
-7.3356 2.4415 -2.0017 0.9686
-7.5560 1.6437 -2.0021 0.9686
-7.6103 1.3730 -2.0023 0.9686
-7.7149 0.5518 -2.0026 0.9685
7.0683 0.0000 -2.0010 0.9710
7.0634 0.2523 -2.0009 0.9710
6.9948 1.0057 -2.0005 0.9710
6.9541 1.2546 -2.0004 0.9711
6.9045 1.5020 -2.0003 0.9711
6.8462 1.7474 -2.0002 0.9711
6.7791 1.9905 -2.0001 0.9711
6.7034 2.2311 -2.0000 0.9711
6.5265 2.7034 -1.9998 0.9711
5.6331 4.2169 -1.9920 0.9712
4.9687 4.3054 -1.8612 0.9730
4.2725 4.9306 -1.8469 0.9732
4.0936 5.0799 -1.8469 0.9732
3.9096 5.2226 -1.8469 0.9732
3.0602 4.7618 -1.6024 0.9767
2.9534 4.9777 -1.6385 0.9762
3.1264 5.7255 -1.8467 0.9732
2.5358 5.5526 -1.7281 0.9749
1.8893 5.6765 -1.6936 0.9754
1.0336 5.7288 -1.6480 0.9761
0.4327 6.0498 -1.7170 0.9751
0.0000 6.5236 -1.8468 0.9732
-0.4654 6.5072 -1.8469 0.9732
-1.3869 6.3754 -1.8470 0.9732
-2.0606 6.1912 -1.8472 0.9732
-2.9212 5.8358 -1.8475 0.9732
-3.5287 5.4908 -1.8477 0.9732
-4.0959 5.0828 -1.8480 0.9732
-4.7784 4.4488 -1.8483 0.9732
-5.0275 4.3564 -1.8832 0.9727
-5.3649 4.3233 -1.9505 0.9718
-6.2043 3.3878 -2.0012 0.9710
-6.4309 2.9369 -2.0014 0.9710
-6.5320 2.7057 -2.0015 0.9710
-6.7850 1.9923 -2.0019 0.9710
-6.9603 1.2558 -2.0022 0.9710
6.5013 0.2322 -2.0009 0.9731
6.4676 0.6953 -2.0007 0.9731
6.4009 1.1548 -2.0006 0.9731
6.3553 1.3825 -2.0005 0.9731
6.3016 1.6084 -2.0004 0.9731
6.2399 1.8322 -2.0003 0.9732
6.1702 2.0536 -2.0002 0.9732
6.0927 2.2725 -2.0001 0.9732
5.9146 2.7011 -1.9999 0.9732
5.5913 3.3175 -1.9997 0.9732
5.4692 3.5148 -1.9996 0.9732
5.3400 3.7077 -1.9996 0.9732
5.2007 3.8932 -1.9982 0.9732
4.8958 4.2422 -1.9925 0.9733
4.3409 4.3409 -1.8882 0.9746
4.0924 4.3955 -1.8472 0.9752
3.5988 4.8075 -1.8471 0.9752
3.2811 4.7256 -1.7695 0.9762
3.0518 4.7487 -1.7362 0.9767
2.8778 5.2704 -1.8470 0.9752
2.6879 5.3697 -1.8470 0.9752
2.4945 5.4621 -1.8469 0.9752
1.4344 5.6200 -1.7840 0.9760
1.0186 5.6455 -1.7645 0.9763
0.8135 5.6580 -1.7582 0.9764
0.4065 5.6829 -1.7524 0.9764
0.0000 6.0050 -1.8470 0.9752
-0.2143 6.0013 -1.8471 0.9752
-0.6419 5.9710 -1.8471 0.9752
-1.0663 5.9102 -1.8472 0.9752
-1.4853 5.8194 -1.8473 0.9752
-2.0991 5.6278 -1.8475 0.9752
-2.4954 5.4640 -1.8476 0.9752
-2.6889 5.3717 -1.8477 0.9752
-3.0655 5.1666 -1.8478 0.9752
-3.2480 5.0541 -1.8479 0.9752
-3.4265 4.9351 -1.8479 0.9752
-3.9343 4.5404 -1.8479 0.9752
-4.3846 4.3846 -1.9072 0.9744
-4.6805 4.3577 -1.9670 0.9736
-5.3437 3.7102 -2.0009 0.9731
-5.4730 3.5173 -2.0010 0.9731
-5.5953 3.3199 -2.0011 0.9731
-5.7106 3.1182 -2.0012 0.9731
-5.9191 2.7032 -2.0015 0.9731
-6.3067 1.6097 -2.0020 0.9731
-6.4940 0.4645 -2.0025 0.9731
-6.5068 0.2324 -2.0026 0.9731
6.0201 -0.0000 -2.0011 0.9749
6.0160 0.2148 -2.0010 0.9749
6.0042 0.4294 -2.0009 0.9749
5.9848 0.6434 -2.0008 0.9749
5.9231 1.0686 -2.0006 0.9749
5.8312 1.4884 -2.0005 0.9750
5.7097 1.9004 -2.0003 0.9750
5.6380 2.1029 -2.0002 0.9750
5.5592 2.3027 -2.0001 0.9750
5.3803 2.6932 -2.0000 0.9750
5.0611 3.2526 -1.9998 0.9750
4.8159 3.6051 -1.9997 0.9750
4.3942 4.0912 -1.9957 0.9750
4.2403 4.2403 -1.9933 0.9750
4.0448 4.3444 -1.9731 0.9753
3.5352 4.3869 -1.8728 0.9765
3.3304 4.4488 -1.8473 0.9768
3.0044 4.6750 -1.8472 0.9768
2.8356 4.7791 -1.8472 0.9768
2.6632 4.8772 -1.8472 0.9768
2.3084 5.0547 -1.8471 0.9768
2.1265 5.1339 -1.8471 0.9768
1.9419 5.2065 -1.8471 0.9768
1.3742 5.3842 -1.8471 0.9768
0.9867 5.4686 -1.8471 0.9768
0.7908 5.5003 -1.8471 0.9768
0.3964 5.5428 -1.8472 0.9768
0.1984 5.5535 -1.8472 0.9768
0.0000 5.5571 -1.8472 0.9768
-0.1983 5.5537 -1.8472 0.9768
-0.3964 5.5431 -1.8473 0.9768
-0.5941 5.5255 -1.8473 0.9768
-0.7909 5.5010 -1.8473 0.9768
-0.9868 5.4693 -1.8474 0.9768
-1.3745 5.3853 -1.8475 0.9768
-1.9424 5.2079 -1.8476 0.9768
-2.1271 5.1354 -1.8477 0.9768
-2.3092 5.0564 -1.8477 0.9768
-2.4883 4.9709 -1.8478 0.9768
-2.6642 4.8791 -1.8479 0.9768
-2.8367 4.7811 -1.8479 0.9768
-3.3319 4.4509 -1.8481 0.9768
-4.3984 4.0950 -1.9976 0.9750
-4.6868 3.7769 -2.0008 0.9749
-4.9448 3.4332 -2.0010 0.9749
-5.0644 3.2547 -2.0011 0.9749
-5.2842 2.8854 -2.0013 0.9749
-5.6421 2.1044 -2.0017 0.9749
-5.7139 1.9018 -2.0018 0.9749
-5.8356 1.4895 -2.0020 0.9749
-5.8854 1.2803 -2.0021 0.9749
-5.9276 1.0695 -2.0022 0.9749
-5.9623 0.8573 -2.0023 0.9749
-5.9894 0.6439 -2.0024 0.9749
-6.0088 0.4298 -2.0025 0.9749
-6.0206 0.2150 -2.0026 0.9749
5.5960 -0.0000 -2.0012 0.9765
5.5812 0.3992 -2.0010 0.9765
5.5632 0.5981 -2.0009 0.9765
5.5381 0.7962 -2.0008 0.9765
5.4667 1.1892 -2.0007 0.9765
5.3675 1.5760 -2.0005 0.9765
5.2410 1.9548 -2.0003 0.9765
5.0878 2.3236 -2.0002 0.9765
5.0015 2.5036 -2.0001 0.9765
4.9088 2.6804 -2.0001 0.9765
4.8098 2.8538 -2.0000 0.9765
4.4768 3.3513 -1.9998 0.9765
4.2261 3.6619 -1.9997 0.9765
4.0926 3.8104 -1.9997 0.9765
3.9520 3.9520 -1.9987 0.9765
3.2810 4.3828 -1.9578 0.9770
2.8392 4.4178 -1.8780 0.9779
2.4758 4.5340 -1.8474 0.9783
2.3123 4.6194 -1.8473 0.9783
1.9769 4.7725 -1.8473 0.9783
1.8052 4.8400 -1.8473 0.9783
1.6313 4.9014 -1.8473 0.9783
1.2775 5.0053 -1.8473 0.9783
1.0981 5.0477 -1.8473 0.9783
0.5522 5.1362 -1.8473 0.9783
0.0000 5.1660 -1.8474 0.9783
-0.7352 5.1137 -1.8475 0.9783
-0.9173 5.0843 -1.8476 0.9783
-1.4556 4.9575 -1.8477 0.9783
-1.6317 4.9025 -1.8477 0.9783
-1.8057 4.8412 -1.8478 0.9783
-2.1466 4.7004 -1.8479 0.9783
-2.3131 4.6209 -1.8479 0.9783
-2.4766 4.5356 -1.8480 0.9783
-2.8573 4.4460 -1.8899 0.9778
-3.0773 4.4322 -1.9296 0.9773
-3.4986 4.3415 -1.9939 0.9766
-3.6551 4.2182 -1.9960 0.9766
-3.8074 4.0895 -1.9981 0.9765
-4.2284 3.6639 -2.0008 0.9765
-4.5964 3.1914 -2.0011 0.9765
-4.7076 3.0254 -2.0012 0.9765
-4.8128 2.8556 -2.0012 0.9765
-5.2445 1.9561 -2.0017 0.9765
-5.3113 1.7678 -2.0018 0.9765
-5.4243 1.3845 -2.0020 0.9765
-5.4706 1.1900 -2.0021 0.9765
-5.5420 0.7968 -2.0022 0.9765
-5.5672 0.5985 -2.0023 0.9765
-5.5853 0.3995 -2.0024 0.9765
5.2221 0.0000 -2.0012 0.9779
5.2186 0.1864 -2.0011 0.9779
5.1916 0.5581 -2.0010 0.9779
5.1681 0.7430 -2.0009 0.9779
5.1381 0.9270 -2.0008 0.9779
5.0585 1.2911 -2.0007 0.9779
5.0090 1.4708 -2.0006 0.9779
4.8910 1.8243 -2.0004 0.9779
4.8226 1.9976 -2.0004 0.9779
4.7481 2.1684 -2.0003 0.9779
4.5810 2.5014 -2.0002 0.9779
4.3906 2.8217 -2.0001 0.9779
4.1779 3.1275 -2.0000 0.9779
4.0635 3.2746 -1.9999 0.9779
3.9440 3.4175 -1.9999 0.9779
3.4165 3.9429 -1.9993 0.9779
3.1208 4.1689 -1.9957 0.9779
2.6176 4.4117 -1.9658 0.9783
2.2209 4.4368 -1.9014 0.9790
1.6847 4.5170 -1.8475 0.9796
1.5225 4.5742 -1.8475 0.9796
1.1923 4.6712 -1.8475 0.9796
1.0248 4.7108 -1.8475 0.9796
0.8560 4.7444 -1.8475 0.9796
0.3439 4.8088 -1.8475 0.9796
-0.8561 4.7449 -1.8477 0.9796
-1.0249 4.7114 -1.8477 0.9796
-1.1924 4.6719 -1.8478 0.9796
-1.5228 4.5752 -1.8479 0.9796
-1.8546 4.4773 -1.8571 0.9795
-2.0416 4.4704 -1.8833 0.9792
-2.2328 4.4605 -1.9115 0.9789
-2.6324 4.4366 -1.9769 0.9781
-2.8125 4.3763 -1.9936 0.9780
-3.1229 4.1718 -1.9970 0.9779
-3.5575 3.8210 -2.0007 0.9779
-3.6917 3.6917 -2.0007 0.9779
-4.0656 3.2763 -2.0010 0.9779
-4.2894 2.9782 -2.0011 0.9779
-4.5837 2.5029 -2.0014 0.9779
-4.8256 1.9988 -2.0016 0.9779
-4.8941 1.8254 -2.0017 0.9779
-5.0123 1.4717 -2.0019 0.9779
-5.0618 1.2919 -2.0020 0.9779
-5.1415 0.9276 -2.0021 0.9779
-5.1950 0.5585 -2.0023 0.9779
-5.2119 0.3728 -2.0024 0.9779
-5.2221 0.1865 -2.0025 0.9779
4.8898 0.0000 -2.0013 0.9791
4.8865 0.1745 -2.0012 0.9791
4.8769 0.3488 -2.0011 0.9791
4.8612 0.5226 -2.0010 0.9791
4.8393 0.6958 -2.0010 0.9791
4.7770 1.0391 -2.0008 0.9791
4.6903 1.3772 -2.0007 0.9791
4.6380 1.5437 -2.0006 0.9791
4.5798 1.7082 -2.0005 0.9791
4.5158 1.8705 -2.0005 0.9791
4.4460 2.0304 -2.0004 0.9791
4.2896 2.3423 -2.0003 0.9791
4.1113 2.6422 -2.0002 0.9791
4.0143 2.7872 -2.0001 0.9791
3.8051 3.0663 -2.0000 0.9791
3.4553 3.4553 -1.9999 0.9791
2.7852 4.0114 -1.9987 0.9791
2.6383 4.1052 -1.9972 0.9791
2.4883 4.1938 -1.9958 0.9791
2.1799 4.3549 -1.9932 0.9792
2.0211 4.4255 -1.9912 0.9792
1.3099 4.4610 -1.9029 0.9801
1.1405 4.4684 -1.8874 0.9803
0.9736 4.4753 -1.8745 0.9804
0.4827 4.4900 -1.8483 0.9807
0.3221 4.5029 -1.8476 0.9807
0.1611 4.5116 -1.8477 0.9807
0.0000 4.5145 -1.8477 0.9807
-0.1611 4.5117 -1.8477 0.9807
-0.3221 4.5031 -1.8477 0.9807
-0.4833 4.4956 -1.8506 0.9806
-0.8095 4.4869 -1.8660 0.9805
-1.8457 4.4558 -1.9739 0.9794
-2.1810 4.3570 -1.9941 0.9792
-2.3366 4.2792 -1.9954 0.9791
-2.6397 4.1075 -1.9983 0.9791
-3.3311 3.5778 -2.0007 0.9791
-3.4568 3.4568 -2.0008 0.9791
-3.6948 3.2016 -2.0009 0.9791
-3.9141 2.9301 -2.0011 0.9791
-4.4486 2.0316 -2.0016 0.9791
-4.6408 1.5446 -2.0018 0.9791
-4.7395 1.2097 -2.0020 0.9791
-4.7799 1.0398 -2.0020 0.9791
-1.9449 0.2796 -0.8042 0.9915
-1.9569 0.2104 -0.8055 0.9915
4.5921 0.0000 -2.0013 0.9802
4.5890 0.1639 -2.0012 0.9802
4.5800 0.3276 -2.0012 0.9802
4.5653 0.4908 -2.0011 0.9802
4.5447 0.6534 -2.0010 0.9802
4.5183 0.8152 -2.0009 0.9802
4.4862 0.9759 -2.0009 0.9802
4.4483 1.1354 -2.0008 0.9802
4.4049 1.2934 -2.0007 0.9802
4.3011 1.6042 -2.0006 0.9802
4.1046 2.0546 -2.0004 0.9802
4.0285 2.1997 -2.0004 0.9802
3.9474 2.3421 -2.0003 0.9802
3.6741 2.7504 -2.0002 0.9802
3.5735 2.8797 -2.0001 0.9802
3.4684 3.0054 -2.0001 0.9802
3.0052 3.4681 -2.0000 0.9802
2.7500 3.6736 -1.9999 0.9802
2.3415 3.9463 -1.9998 0.9802
2.1981 4.0255 -1.9989 0.9802
2.0518 4.0990 -1.9977 0.9802
1.9031 4.1673 -1.9966 0.9802
1.7523 4.2304 -1.9956 0.9802
1.4448 4.3409 -1.9939 0.9802
1.2885 4.3880 -1.9931 0.9802
0.8044 4.4585 -1.9744 0.9804
0.6415 4.4616 -1.9644 0.9805
0.1596 4.4684 -1.9487 0.9807
-0.1597 4.4708 -1.9497 0.9807
-0.4807 4.4715 -1.9600 0.9806
-1.1309 4.4308 -1.9929 0.9802
-1.7530 4.2321 -1.9964 0.9802
-1.9039 4.1691 -1.9975 0.9802
-2.0527 4.1009 -1.9986 0.9802
-2.1992 4.0275 -1.9999 0.9802
-2.3422 3.9475 -2.0004 0.9802
-2.4817 3.8615 -2.0005 0.9802
-2.8805 3.5745 -2.0007 0.9802
-3.3603 3.1285 -2.0009 0.9802
-3.6758 2.7517 -2.0011 0.9802
-3.8631 2.4827 -2.0013 0.9802
-3.9493 2.3433 -2.0014 0.9802
-4.1067 2.0557 -2.0015 0.9802
-4.2433 1.7576 -2.0017 0.9802
-1.5984 0.5962 -0.7435 0.9926
-1.5485 0.3952 -0.6965 0.9931
-1.5151 0.2178 -0.6671 0.9933
4.3207 0.1543 -2.0013 0.9811
4.3123 0.3084 -2.0012 0.9811
4.2984 0.4621 -2.0011 0.9811
4.2790 0.6152 -2.0011 0.9811
4.2240 0.9189 -2.0009 0.9811
4.1474 1.2178 -2.0008 0.9811
3.9931 1.6540 -2.0006 0.9811
3.7931 2.0712 -2.0005 0.9811
3.7167 2.2052 -2.0004 0.9811
3.6355 2.3364 -2.0004 0.9811
3.5497 2.4646 -2.0003 0.9811
3.3647 2.7114 -2.0003 0.9811
3.0554 3.0554 -2.0001 0.9811
2.8296 3.2655 -2.0001 0.9811
2.7112 3.3644 -2.0000 0.9811
2.5893 3.4590 -2.0000 0.9811
2.4642 3.5491 -2.0000 0.9811
1.9340 3.8636 -1.9999 0.9811
1.7948 3.9301 -1.9999 0.9811
1.6533 3.9914 -1.9998 0.9811
1.5092 4.0462 -1.9989 0.9811
1.0669 4.1800 -1.9969 0.9812
0.9168 4.2143 -1.9963 0.9812
0.7656 4.2433 -1.9959 0.9812
0.4608 4.2857 -1.9952 0.9812
0.3075 4.2990 -1.9950 0.9812
0.0000 4.3098 -1.9949 0.9812
-0.1538 4.3072 -1.9950 0.9812
-0.4608 4.2862 -1.9955 0.9812
-0.6136 4.2678 -1.9958 0.9812
-0.7657 4.2440 -1.9962 0.9812
-1.2161 4.1415 -1.9980 0.9812
-1.3636 4.0970 -1.9987 0.9811
-1.6537 3.9925 -2.0003 0.9811
-1.7952 3.9310 -2.0004 0.9811
-2.0712 3.7931 -2.0005 0.9811
-2.4650 3.5503 -2.0006 0.9811
-2.5902 3.4601 -2.0007 0.9811
-3.1639 2.9457 -2.0010 0.9811
-3.4610 2.5909 -2.0012 0.9811
-3.5514 2.4658 -2.0013 0.9811
-3.6372 2.3375 -2.0013 0.9811
-3.7950 2.0722 -2.0015 0.9811
-1.3150 0.6006 -0.6692 0.9936
-1.3324 0.4435 -0.6500 0.9938
-1.3116 0.3348 -0.6266 0.9941
-1.3013 0.2831 -0.6164 0.9941
-1.3160 0.2374 -0.6190 0.9941
-1.3351 0.1435 -0.6215 0.9941
-1.3384 0.0957 -0.6211 0.9941
-1.3376 0.0478 -0.6195 0.9941
4.0800 0.0000 -2.0014 0.9820
4.0563 0.4361 -2.0012 0.9820
4.0380 0.5806 -2.0011 0.9820
4.0146 0.7243 -2.0010 0.9820
3.9861 0.8671 -2.0010 0.9820
3.9138 1.1492 -2.0009 0.9820
3.8217 1.4254 -2.0008 0.9820
3.7100 1.6943 -2.0007 0.9820
3.6471 1.8256 -2.0006 0.9820
3.5795 1.9546 -2.0006 0.9820
3.5074 2.0810 -2.0005 0.9820
3.3499 2.3258 -2.0004 0.9820
3.1753 2.5588 -2.0003 0.9820
3.0819 2.6704 -2.0003 0.9820
2.9845 2.7787 -2.0003 0.9820
2.7786 2.9845 -2.0002 0.9820
2.5586 3.1750 -2.0001 0.9820
2.2044 3.4302 -2.0001 0.9820
1.9541 3.5786 -2.0000 0.9820
1.8251 3.6461 -2.0000 0.9820
1.4249 3.8202 -2.0000 0.9820
1.1487 3.9121 -2.0000 0.9820
1.0083 3.9506 -2.0000 0.9820
0.7239 4.0123 -1.9999 0.9820
0.5801 4.0349 -1.9996 0.9820
0.4357 4.0525 -1.9993 0.9820
0.2908 4.0651 -1.9991 0.9820
0.1455 4.0727 -1.9990 0.9820
-0.2908 4.0654 -1.9993 0.9820
-0.4357 4.0529 -1.9995 0.9820
-0.5802 4.0355 -1.9998 0.9820
-0.7240 4.0129 -2.0002 0.9820
-1.1489 3.9127 -2.0003 0.9820
-1.4251 3.8209 -2.0004 0.9820
-1.6941 3.7097 -2.0005 0.9820
-1.8255 3.6469 -2.0005 0.9820
-1.9546 3.5795 -2.0006 0.9820
-2.0811 3.5076 -2.0006 0.9820
-2.2050 3.4311 -2.0006 0.9820
-2.4443 3.2653 -2.0008 0.9820
-2.6712 3.0827 -2.0009 0.9820
-3.1766 2.5598 -2.0012 0.9820
-3.2660 2.4449 -2.0012 0.9820
-3.3513 2.3269 -2.0013 0.9820
-1.1113 0.6068 -0.6211 0.9944
-1.1291 0.5652 -0.6194 0.9944
-1.1544 0.4305 -0.6043 0.9945
-1.1578 0.3854 -0.5986 0.9946
-1.1791 0.2127 -0.5877 0.9947
-1.1921 0.1282 -0.5881 0.9947
-1.1965 0.0427 -0.5873 0.9947
3.8579 0.0000 -2.0014 0.9828
3.8354 0.4124 -2.0012 0.9828
3.7960 0.6849 -2.0011 0.9828
3.7008 1.0866 -2.0009 0.9828
3.6136 1.3478 -2.0008 0.9828
3.5081 1.6021 -2.0007 0.9828
3.4486 1.7262 -2.0007 0.9828
3.3165 1.9678 -2.0006 0.9828
3.1675 2.1993 -2.0005 0.9828
3.0870 2.3109 -2.0005 0.9828
3.0025 2.4195 -2.0004 0.9828
2.7265 2.7265 -2.0003 0.9828
2.6274 2.8220 -2.0003 0.9828
1.8477 3.3839 -2.0001 0.9828
1.7258 3.4477 -2.0001 0.9828
1.6016 3.5070 -2.0001 0.9828
1.2175 3.6581 -2.0001 0.9828
1.0862 3.6992 -2.0001 0.9828
0.2751 3.8457 -2.0001 0.9828
0.1376 3.8531 -2.0002 0.9828
0.0000 3.8555 -2.0002 0.9828
-0.1376 3.8531 -2.0002 0.9828
-0.4121 3.8336 -2.0002 0.9828
-0.5487 3.8165 -2.0003 0.9828
-0.6846 3.7945 -2.0003 0.9828
-0.8196 3.7677 -2.0003 0.9828
-0.9536 3.7361 -2.0004 0.9828
-1.0863 3.6997 -2.0004 0.9828
-1.3476 3.6130 -2.0005 0.9828
-1.4757 3.5626 -2.0005 0.9828
-1.6019 3.5078 -2.0005 0.9828
-1.7262 3.4484 -2.0006 0.9828
-1.8482 3.3847 -2.0006 0.9828
-2.1995 3.1680 -2.0008 0.9828
-2.3113 3.0875 -2.0008 0.9828
-2.4201 3.0031 -2.0009 0.9828
-2.5258 2.9149 -2.0009 0.9828
-2.8231 2.6284 -2.0011 0.9828
-2.9152 2.5261 -2.0011 0.9828
-3.0036 2.4205 -2.0012 0.9828
-3.1688 2.2002 -2.0013 0.9828
-3.2454 2.0857 -2.0014 0.9828
-0.9917 0.5884 -0.5982 0.9948
-1.0430 0.4763 -0.5948 0.9948
-1.0514 0.4355 -0.5904 0.9949
-1.0617 0.3534 -0.5805 0.9950
-1.0636 0.3123 -0.5751 0.9950
-1.0814 0.2353 -0.5741 0.9950
-1.1024 0.1185 -0.5752 0.9950
3.6542 0.0000 -2.0014 0.9835
3.6518 0.1304 -2.0014 0.9835
3.6330 0.3906 -2.0012 0.9835
3.6166 0.5200 -2.0012 0.9835
3.5956 0.6487 -2.0011 0.9835
3.5054 1.0293 -2.0010 0.9835
3.4664 1.1537 -2.0009 0.9835
3.3751 1.3980 -2.0008 0.9835
3.3229 1.5175 -2.0008 0.9835
3.1415 1.8639 -2.0007 0.9835
3.0729 1.9748 -2.0006 0.9835
3.0004 2.0832 -2.0006 0.9835
2.9241 2.1889 -2.0005 0.9835
2.8440 2.2918 -2.0005 0.9835
2.6732 2.4888 -2.0004 0.9835
2.3917 2.7602 -2.0004 0.9835
2.1887 2.9237 -2.0003 0.9835
2.0829 3.0000 -2.0003 0.9835
1.8636 3.1408 -2.0003 0.9835
1.6347 3.2657 -2.0002 0.9835
1.3976 3.3740 -2.0002 0.9835
1.2762 3.4217 -2.0002 0.9835
1.1533 3.4651 -2.0002 0.9835
0.9032 3.5385 -2.0002 0.9835
0.7763 3.5685 -2.0002 0.9835
0.5197 3.6148 -2.0002 0.9835
0.1304 3.6497 -2.0003 0.9835
0.0000 3.6521 -2.0003 0.9835
-0.7763 3.5689 -2.0004 0.9835
-0.9033 3.5390 -2.0004 0.9835
-1.0290 3.5045 -2.0005 0.9835
-1.3978 3.3746 -2.0006 0.9835
-1.5174 3.3226 -2.0006 0.9835
-1.6351 3.2664 -2.0006 0.9835
-1.8640 3.1416 -2.0007 0.9835
-1.9750 3.0731 -2.0008 0.9835
-2.0834 3.0007 -2.0008 0.9835
-2.1893 2.9246 -2.0009 0.9835
-2.2923 2.8446 -2.0009 0.9835
-2.4895 2.6740 -2.0010 0.9835
-2.7613 2.3927 -2.0012 0.9835
-2.8450 2.2927 -2.0012 0.9835
-2.9251 2.1897 -2.0013 0.9835
-0.8661 0.6014 -0.5775 0.9952
-0.8881 0.5708 -0.5782 0.9952
-0.9084 0.5390 -0.5785 0.9952
-0.9269 0.5061 -0.5784 0.9952
-0.9434 0.4722 -0.5778 0.9952
-0.9785 0.3257 -0.5648 0.9953
-0.9938 0.2537 -0.5618 0.9953
-1.0124 0.1827 -0.5634 0.9953
-1.0236 0.1101 -0.5639 0.9953
-1.0265 0.0734 -0.5637 0.9953
-1.0276 0.0367 -0.5632 0.9953
2.0359 0.1456 -1.1784 0.9906
2.0366 0.2190 -1.1826 0.9906
2.0300 0.2919 -1.1841 0.9906
2.0153 0.3636 -1.1823 0.9906
1.9616 0.5007 -1.1688 0.9907
1.9351 0.5682 -1.1644 0.9907
1.8682 0.6968 -1.1512 0.9908
1.8620 0.7713 -1.1636 0.9907
3.0989 1.5512 -2.0008 0.9841
3.0415 1.6608 -2.0008 0.9841
2.9152 1.8735 -2.0007 0.9841
2.7740 2.0766 -2.0006 0.9841
2.6981 2.1742 -2.0006 0.9841
2.4501 2.4501 -2.0005 0.9841
2.1741 2.6978 -2.0004 0.9841
1.5508 3.0982 -2.0003 0.9841
1.3259 3.2009 -2.0003 0.9841
1.2108 3.2462 -2.0003 0.9841
0.7365 3.3854 -2.0003 0.9841
0.4931 3.4294 -2.0003 0.9841
0.3704 3.4448 -2.0003 0.9841
0.2472 3.4559 -2.0003 0.9841
0.1237 3.4625 -2.0003 0.9841
0.0000 3.4647 -2.0004 0.9841
-0.1237 3.4625 -2.0004 0.9841
-0.2472 3.4559 -2.0004 0.9841
-0.3704 3.4449 -2.0004 0.9841
-0.4931 3.4296 -2.0004 0.9841
-0.8569 3.3574 -2.0005 0.9841
-0.9762 3.3247 -2.0005 0.9841
-1.0943 3.2878 -2.0006 0.9841
-1.3261 3.2014 -2.0006 0.9841
-1.4395 3.1521 -2.0007 0.9841
-1.7683 2.9804 -2.0008 0.9841
-1.9765 2.8467 -2.0009 0.9841
-2.3618 2.5367 -2.0011 0.9841
-2.4509 2.4509 -2.0011 0.9841
-2.5368 2.3619 -2.0012 0.9841
-2.6196 2.2699 -2.0012 0.9841
-0.7671 0.6182 -0.5688 0.9955
-0.8178 0.5256 -0.5613 0.9955
-0.8364 0.4963 -0.5615 0.9955
-0.8534 0.4660 -0.5614 0.9955
-0.8823 0.4029 -0.5600 0.9955
-0.8941 0.3703 -0.5587 0.9955
-0.9011 0.3361 -0.5553 0.9956
-0.9259 0.2363 -0.5517 0.9956
-0.9430 0.1701 -0.5532 0.9956
-0.9492 0.1365 -0.5537 0.9956
-0.9575 0.0342 -0.5532 0.9956
