ply
format ascii 1.0
element vertex 760
property float32 x
property float32 y
property float32 z
property float32 I
end_header
5.0378 -7.2558 -0.0497 0.9653
5.3286 -6.6123 -0.0478 0.9666
6.1711 -6.6283 -0.0510 0.9644
6.6490 -6.6490 -0.0529 0.9631
7.2490 -6.7491 -0.0558 0.9612
4.4496 -7.4994 -0.2455 0.9657
4.6146 -6.6463 -0.2278 0.9681
6.0205 -6.4665 -0.2488 0.9653
6.5218 -6.5218 -0.2597 0.9638
4.2149 -7.7191 -0.4460 0.9654
4.1783 -7.0422 -0.4153 0.9677
4.3196 -6.7214 -0.4052 0.9685
5.0961 -6.3238 -0.4119 0.9680
4.0272 -6.7876 -0.5787 0.9688
4.3231 -6.2265 -0.5558 0.9701
4.5581 -6.0889 -0.5577 0.9700
5.0363 -6.2496 -0.5885 0.9683
6.3615 -6.3615 -0.6596 0.9646
2.9398 -7.8820 -0.8076 0.9668
2.9420 -7.1026 -0.7381 0.9696
3.6631 -6.1737 -0.6892 0.9716
3.9392 -6.1295 -0.6995 0.9711
4.2614 -6.1377 -0.7173 0.9704
4.9777 -6.1769 -0.7616 0.9686
5.3780 -6.2066 -0.7884 0.9675
6.8280 -6.3571 -0.8957 0.9632
2.9020 -6.3545 -0.8298 0.9723
3.0723 -6.1377 -0.8153 0.9727
3.3029 -6.0488 -0.8186 0.9726
3.5731 -6.0222 -0.8318 0.9722
3.8725 -6.0258 -0.8508 0.9716
4.5612 -6.0931 -0.9041 0.9698
4.9471 -6.1390 -0.9365 0.9687
5.8012 -6.2309 -1.0113 0.9663
6.2843 -6.2843 -1.0557 0.9648
6.9063 -6.4300 -1.1209 0.9627
2.6315 -7.0554 -1.0669 0.9700
2.8596 -6.2617 -0.9753 0.9726
3.0317 -6.0566 -0.9597 0.9730
3.5443 -5.9735 -0.9841 0.9723
4.1956 -6.0428 -1.0423 0.9707
4.5607 -6.0923 -1.0783 0.9697
5.8085 -6.2388 -1.2078 0.9661
6.7794 -6.3118 -1.3124 0.9633
7.3590 -6.3766 -1.3797 0.9614
2.5816 -6.9214 -1.2170 0.9705
2.6938 -6.5033 -1.1596 0.9719
3.0079 -6.0090 -1.1070 0.9731
3.2462 -5.9450 -1.1159 0.9729
3.5434 -5.9721 -1.1440 0.9722
4.1907 -6.0357 -1.2105 0.9707
4.5567 -6.0870 -1.2526 0.9696
4.9505 -6.1433 -1.2997 0.9685
5.3667 -6.1935 -1.3501 0.9673
5.8088 -6.2392 -1.4043 0.9660
6.7794 -6.3119 -1.5260 0.9631
7.3591 -6.3767 -1.6041 0.9613
2.5773 -6.9099 -1.3862 0.9704
2.6762 -6.4608 -1.3144 0.9719
2.9809 -5.9551 -1.2517 0.9733
3.3315 -6.1012 -1.3066 0.9721
3.8456 -5.9839 -1.3370 0.9715
4.2380 -6.1039 -1.3967 0.9702
6.5415 -6.5415 -1.7388 0.9630
6.7795 -6.3120 -1.7411 0.9630
-9.2538 -2.0130 -2.0018 0.9620
-9.0868 -2.6682 -2.0019 0.9620
-8.8735 -3.3097 -2.0019 0.9620
-8.6150 -3.9343 -2.0020 0.9620
-8.4692 -4.2394 -2.0020 0.9620
-7.7800 -5.4018 -2.0021 0.9620
-6.9323 -6.4542 -2.0021 0.9620
-6.6976 -6.6976 -2.0022 0.9620
-6.4543 -6.9325 -2.0022 0.9620
-6.2028 -7.1585 -2.0022 0.9620
-5.6765 -7.5829 -2.0022 0.9620
-5.1211 -7.9686 -2.0023 0.9620
-4.5397 -8.3138 -2.0023 0.9620
-4.2401 -8.4706 -2.0023 0.9620
-3.9351 -8.6166 -2.0023 0.9620
-3.3104 -8.8755 -2.0023 0.9620
-2.9915 -8.9880 -2.0024 0.9620
-2.6688 -9.0891 -2.0024 0.9620
-1.6819 -9.3225 -2.0024 0.9620
-1.0126 -9.4188 -2.0024 0.9620
-0.3381 -9.4671 -2.0024 0.9620
0.0000 -9.4732 -2.0024 0.9620
0.3381 -9.4672 -2.0024 0.9620
0.6758 -9.4491 -2.0024 0.9620
1.0126 -9.4189 -2.0024 0.9620
1.3482 -9.3768 -2.0025 0.9620
1.6820 -9.3227 -2.0025 0.9620
2.0137 -9.2568 -2.0025 0.9620
2.3428 -9.1790 -2.0025 0.9620
2.9917 -8.9885 -2.0025 0.9620
2.5780 -6.9119 -1.5594 0.9703
2.9851 -5.9635 -1.4097 0.9731
3.2780 -6.0032 -1.4458 0.9724
4.2746 -6.1566 -1.5843 0.9698
4.5585 -6.0895 -1.6079 0.9694
6.4550 -6.9331 -2.0024 0.9620
6.9331 -6.4549 -2.0024 0.9620
7.1590 -6.2033 -2.0023 0.9620
7.7809 -5.4024 -2.0023 0.9620
7.9687 -5.1212 -2.0023 0.9620
8.1464 -4.8335 -2.0023 0.9620
8.6162 -3.9349 -2.0022 0.9620
8.8748 -3.3101 -2.0022 0.9620
9.0881 -2.6685 -2.0021 0.9620
9.1775 -2.3424 -2.0021 0.9620
9.3210 -1.6817 -2.0021 0.9620
9.4471 -0.6757 -2.0020 0.9620
-8.4685 -0.9105 -2.0018 0.9656
-8.4307 -1.2121 -2.0018 0.9656
-8.3821 -1.5123 -2.0018 0.9656
-8.3229 -1.8105 -2.0018 0.9656
-8.2531 -2.1065 -2.0018 0.9656
-7.7483 -3.5385 -2.0019 0.9656
-7.6171 -3.8129 -2.0020 0.9656
-6.8194 -5.1050 -2.0021 0.9656
-6.6329 -5.3452 -2.0021 0.9656
-6.2348 -5.8049 -2.0021 0.9656
-5.5787 -6.4382 -2.0022 0.9656
-4.6058 -7.1668 -2.0022 0.9656
-4.3471 -7.3267 -2.0022 0.9656
-2.9773 -7.9824 -2.0023 0.9656
-2.6905 -8.0837 -2.0023 0.9656
-1.8110 -8.3250 -2.0023 0.9656
-1.5127 -8.3844 -2.0023 0.9656
-0.3041 -8.5145 -2.0024 0.9656
-0.0000 -8.5199 -2.0024 0.9656
0.3041 -8.5145 -2.0024 0.9656
1.8111 -8.3253 -2.0024 0.9656
2.9774 -7.9828 -2.0024 0.9656
3.2605 -7.8714 -2.0024 0.9656
2.9945 -5.9823 -1.5723 0.9729
3.2685 -5.9859 -1.6029 0.9724
3.8457 -5.9840 -1.6718 0.9712
5.5792 -6.4388 -2.0023 0.9656
6.0243 -6.0243 -2.0023 0.9656
6.2354 -5.8054 -2.0023 0.9656
6.6336 -5.3457 -2.0023 0.9656
6.8202 -5.1055 -2.0023 0.9656
6.9980 -4.8588 -2.0023 0.9656
7.3267 -4.3471 -2.0022 0.9656
7.4771 -4.0828 -2.0022 0.9656
7.6181 -3.8133 -2.0022 0.9656
7.9818 -2.9771 -2.0022 0.9656
8.0829 -2.6903 -2.0021 0.9656
8.2541 -2.1067 -2.0021 0.9656
8.3240 -1.8108 -2.0021 0.9656
8.4696 -0.9106 -2.0020 0.9656
8.5128 -0.3040 -2.0020 0.9656
-7.7311 -0.0000 -2.0017 0.9686
-7.7115 -0.5515 -2.0018 0.9686
-7.6870 -0.8264 -2.0018 0.9686
-7.5548 -1.6435 -2.0018 0.9686
-7.4185 -2.1783 -2.0019 0.9686
-7.3360 -2.4417 -2.0019 0.9686
-7.1433 -2.9589 -2.0019 0.9686
-6.9141 -3.4610 -2.0019 0.9686
-6.5047 -4.1804 -2.0020 0.9686
-6.1900 -4.6338 -2.0020 0.9686
-5.8438 -5.0637 -2.0021 0.9686
-4.6341 -6.1904 -2.0022 0.9686
-3.4614 -6.9151 -2.0022 0.9686
-2.7025 -7.2456 -2.0023 0.9686
-2.1787 -7.4200 -2.0023 0.9686
-1.9125 -7.4931 -2.0023 0.9686
-1.3731 -7.6105 -2.0023 0.9686
-1.1006 -7.6546 -2.0023 0.9686
-0.5517 -7.7137 -2.0023 0.9686
0.0000 -7.7334 -2.0023 0.9686
0.2760 -7.7285 -2.0023 0.9686
0.5517 -7.7138 -2.0023 0.9686
1.3731 -7.6106 -2.0023 0.9686
2.4422 -7.3378 -2.0023 0.9686
2.9595 -7.1448 -2.0023 0.9686
3.4616 -6.9154 -2.0023 0.9686
3.3323 -6.1026 -1.8003 0.9717
3.8457 -5.9840 -1.8417 0.9710
4.4105 -6.3523 -2.0023 0.9686
4.6344 -6.1909 -2.0023 0.9686
4.8524 -6.0215 -2.0023 0.9686
5.0642 -5.8444 -2.0023 0.9686
5.4682 -5.4682 -2.0023 0.9686
5.6599 -5.2695 -2.0023 0.9686
6.3521 -4.4103 -2.0022 0.9686
6.6504 -3.9459 -2.0022 0.9686
6.9149 -3.4613 -2.0022 0.9686
7.0340 -3.2123 -2.0022 0.9686
7.2451 -2.7023 -2.0021 0.9686
7.4193 -2.1785 -2.0021 0.9686
7.4923 -1.9123 -2.0021 0.9686
7.5557 -1.6436 -2.0021 0.9686
7.6879 -0.8265 -2.0020 0.9686
-7.0709 -0.0000 -2.0017 0.9710
-7.0530 -0.5045 -2.0018 0.9710
-6.9992 -1.0063 -2.0018 0.9710
-6.8517 -1.7488 -2.0018 0.9710
-6.7850 -1.9922 -2.0019 0.9710
-6.4326 -2.9377 -2.0019 0.9710
-6.3237 -3.1654 -2.0019 0.9710
-5.9492 -3.8233 -2.0020 0.9710
-5.8090 -4.0333 -2.0020 0.9710
-5.6614 -4.2380 -2.0020 0.9710
-5.3447 -4.6312 -2.0020 0.9710
-5.1760 -4.8191 -2.0021 0.9710
-4.8191 -5.1761 -2.0021 0.9710
-4.6313 -5.3448 -2.0021 0.9710
-4.2383 -5.6617 -2.0021 0.9710
-4.0335 -5.8094 -2.0021 0.9710
-3.3895 -6.2074 -2.0022 0.9710
-3.1658 -6.3245 -2.0022 0.9710
-2.9381 -6.4335 -2.0022 0.9710
-2.7066 -6.5342 -2.0022 0.9710
-1.9926 -6.7862 -2.0022 0.9710
-1.7492 -6.8530 -2.0022 0.9710
-1.5034 -6.9111 -2.0023 0.9710
-1.2558 -6.9604 -2.0023 0.9710
-1.0066 -7.0008 -2.0023 0.9710
-0.7560 -7.0323 -2.0023 0.9710
-0.5046 -7.0548 -2.0023 0.9710
0.2524 -7.0684 -2.0023 0.9710
1.2558 -6.9606 -2.0023 0.9710
1.7492 -6.8532 -2.0023 0.9710
2.2336 -6.7110 -2.0023 0.9710
2.4717 -6.6270 -2.0023 0.9710
2.7067 -6.5345 -2.0023 0.9710
3.3897 -6.2077 -2.0023 0.9710
3.6091 -6.0828 -2.0023 0.9710
4.2386 -5.6621 -2.0023 0.9710
4.6317 -5.3452 -2.0022 0.9710
4.8195 -5.1765 -2.0022 0.9710
5.0011 -5.0012 -2.0022 0.9710
5.5070 -4.4378 -2.0022 0.9710
5.6619 -4.2384 -2.0022 0.9710
5.8095 -4.0336 -2.0022 0.9710
6.0824 -3.6089 -2.0022 0.9710
6.2073 -3.3895 -2.0021 0.9710
6.3243 -3.1657 -2.0021 0.9710
6.4332 -2.9380 -2.0021 0.9710
6.7856 -1.9925 -2.0021 0.9710
6.9104 -1.5033 -2.0020 0.9710
6.9999 -1.0065 -2.0020 0.9710
7.0313 -0.7559 -2.0020 0.9710
7.0673 -0.2524 -2.0020 0.9710
-6.5040 -0.2323 -2.0018 0.9731
-6.3596 -1.3834 -2.0018 0.9731
-6.3062 -1.6096 -2.0018 0.9731
-6.0131 -2.4908 -2.0019 0.9731
-5.9205 -2.7038 -2.0019 0.9731
-5.5976 -3.3212 -2.0020 0.9731
-5.3465 -3.7122 -2.0020 0.9731
-4.9192 -4.2625 -2.0020 0.9731
-3.5192 -5.4760 -2.0021 0.9731
-2.9137 -5.8209 -2.0022 0.9731
-2.4911 -6.0140 -2.0022 0.9731
-2.2748 -6.0991 -2.0022 0.9731
-2.0557 -6.1764 -2.0022 0.9731
-1.6099 -6.3074 -2.0022 0.9731
-0.9264 -6.4434 -2.0022 0.9731
-0.6958 -6.4724 -2.0022 0.9731
-0.4644 -6.4931 -2.0022 0.9731
-0.0000 -6.5097 -2.0022 0.9731
0.2324 -6.5056 -2.0023 0.9731
0.4644 -6.4932 -2.0023 0.9731
0.9264 -6.4435 -2.0023 0.9731
1.1558 -6.4063 -2.0023 0.9731
1.8340 -6.2461 -2.0023 0.9731
2.4912 -6.0142 -2.0023 0.9731
2.7042 -5.9215 -2.0023 0.9731
3.5194 -5.4763 -2.0022 0.9731
3.9011 -5.2112 -2.0022 0.9731
4.0846 -5.0687 -2.0022 0.9731
4.4357 -4.7643 -2.0022 0.9731
4.7643 -4.4357 -2.0022 0.9731
4.9196 -4.2628 -2.0022 0.9731
5.0686 -4.0845 -2.0022 0.9731
5.3470 -3.7125 -2.0022 0.9731
5.4760 -3.5192 -2.0021 0.9731
5.5981 -3.3215 -2.0021 0.9731
5.7131 -3.1196 -2.0021 0.9731
5.9210 -2.7040 -2.0021 0.9731
6.0988 -2.2747 -2.0021 0.9731
6.3068 -1.6097 -2.0020 0.9731
6.3602 -1.3836 -2.0020 0.9731
6.4427 -0.9263 -2.0020 0.9731
6.4716 -0.6958 -2.0020 0.9731
6.5046 -0.2323 -2.0020 0.9731
-6.0220 -0.0000 -2.0017 0.9749
-6.0182 -0.2149 -2.0018 0.9749
-6.0067 -0.4296 -2.0018 0.9749
-5.9609 -0.8571 -2.0018 0.9749
-5.6427 -2.1046 -2.0019 0.9749
-5.5640 -2.3047 -2.0019 0.9749
-5.3855 -2.6958 -2.0019 0.9749
-5.2859 -2.8863 -2.0019 0.9749
-5.1795 -3.0732 -2.0020 0.9749
-4.6896 -3.7791 -2.0020 0.9749
-4.4081 -4.1041 -2.0020 0.9749
-4.2588 -4.2588 -2.0020 0.9749
-4.1041 -4.4082 -2.0021 0.9749
-3.9442 -4.5518 -2.0021 0.9749
-3.6095 -4.8217 -2.0021 0.9749
-3.4351 -4.9475 -2.0021 0.9749
-3.0734 -5.1800 -2.0021 0.9749
-2.8866 -5.2864 -2.0021 0.9749
-2.6961 -5.3861 -2.0021 0.9749
-2.5021 -5.4789 -2.0021 0.9749
-1.6970 -5.7793 -2.0022 0.9749
-1.0695 -5.9277 -2.0022 0.9749
-0.8572 -5.9621 -2.0022 0.9749
-0.6439 -5.9889 -2.0022 0.9749
-0.4297 -6.0080 -2.0022 0.9749
-0.2150 -6.0196 -2.0022 0.9749
1.0695 -5.9277 -2.0022 0.9749
1.4896 -5.8364 -2.0022 0.9749
1.6970 -5.7795 -2.0022 0.9749
1.9022 -5.7152 -2.0022 0.9749
2.1050 -5.6437 -2.0022 0.9749
2.6962 -5.3863 -2.0022 0.9749
3.0736 -5.1802 -2.0022 0.9749
3.4353 -4.9477 -2.0022 0.9749
3.7795 -4.6900 -2.0022 0.9749
4.2591 -4.2591 -2.0022 0.9749
5.4787 -2.5021 -2.0021 0.9749
5.5645 -2.3049 -2.0021 0.9749
5.6432 -2.1048 -2.0021 0.9749
5.7789 -1.6968 -2.0020 0.9749
5.8357 -1.4895 -2.0020 0.9749
5.9271 -1.0694 -2.0020 0.9749
5.9614 -0.8571 -2.0020 0.9749
6.0073 -0.4296 -2.0020 0.9749
-5.5834 -0.3994 -2.0018 0.9765
-5.5657 -0.5984 -2.0018 0.9765
-5.5089 -0.9939 -2.0018 0.9765
-5.4699 -1.1899 -2.0018 0.9765
-5.4240 -1.3844 -2.0018 0.9765
-5.3712 -1.5771 -2.0019 0.9765
-5.2450 -1.9563 -2.0019 0.9765
-5.1719 -2.1423 -2.0019 0.9765
-5.0922 -2.3255 -2.0019 0.9765
-4.5985 -3.1928 -2.0020 0.9765
-4.4816 -3.3549 -2.0020 0.9765
-4.3591 -3.5128 -2.0020 0.9765
-4.0974 -3.8148 -2.0020 0.9765
-3.8149 -4.0975 -2.0020 0.9765
-3.6662 -4.2311 -2.0020 0.9765
-3.5129 -4.3592 -2.0021 0.9765
-3.3551 -4.4819 -2.0021 0.9765
-3.1930 -4.5988 -2.0021 0.9765
-3.0268 -4.7098 -2.0021 0.9765
-2.8568 -4.8149 -2.0021 0.9765
-2.6831 -4.9138 -2.0021 0.9765
-2.1425 -5.1725 -2.0021 0.9765
-1.9565 -5.2457 -2.0021 0.9765
-1.3846 -5.4249 -2.0022 0.9765
-0.9941 -5.5098 -2.0022 0.9765
-0.5985 -5.5667 -2.0022 0.9765
-0.3994 -5.5846 -2.0022 0.9765
0.5985 -5.5668 -2.0022 0.9765
0.9941 -5.5099 -2.0022 0.9765
1.1901 -5.4710 -2.0022 0.9765
1.3846 -5.4250 -2.0022 0.9765
1.5774 -5.3721 -2.0022 0.9765
2.3258 -5.0929 -2.0022 0.9765
2.6832 -4.9140 -2.0022 0.9765
3.0270 -4.7100 -2.0022 0.9765
3.1931 -4.5990 -2.0022 0.9765
3.6664 -4.2313 -2.0022 0.9765
4.2312 -3.6664 -2.0021 0.9765
4.7099 -3.0268 -2.0021 0.9765
5.0063 -2.5060 -2.0021 0.9765
5.0926 -2.3257 -2.0021 0.9765
5.1723 -2.1425 -2.0021 0.9765
5.4245 -1.3845 -2.0020 0.9765
5.4704 -1.1900 -2.0020 0.9765
5.5093 -0.9940 -2.0020 0.9765
5.5839 -0.3994 -2.0020 0.9765
-5.2235 -0.0000 -2.0018 0.9779
-5.1937 -0.5584 -2.0018 0.9779
-5.1705 -0.7434 -2.0018 0.9779
-5.1407 -0.9275 -2.0018 0.9779
-5.1044 -1.1104 -2.0018 0.9779
-4.9565 -1.6497 -2.0019 0.9779
-4.8945 -1.8256 -2.0019 0.9779
-4.6714 -2.3383 -2.0019 0.9779
-4.5850 -2.5036 -2.0019 0.9779
-4.2912 -2.9794 -2.0020 0.9779
-3.6941 -3.6941 -2.0020 0.9779
-3.5599 -3.8236 -2.0020 0.9779
-3.2781 -4.0679 -2.0020 0.9779
-2.5038 -4.5854 -2.0021 0.9779
-2.3385 -4.6718 -2.0021 0.9779
-2.1703 -4.7523 -2.0021 0.9779
-1.6499 -4.9572 -2.0021 0.9779
-0.9276 -5.1416 -2.0021 0.9779
-0.7435 -5.1714 -2.0022 0.9779
-0.5585 -5.1947 -2.0022 0.9779
-0.3727 -5.2113 -2.0022 0.9779
-0.1865 -5.2213 -2.0022 0.9779
0.0000 -5.2246 -2.0022 0.9779
0.5585 -5.1947 -2.0022 0.9779
0.9277 -5.1417 -2.0022 0.9779
1.1106 -5.1053 -2.0022 0.9779
1.2921 -5.0624 -2.0022 0.9779
1.6499 -4.9573 -2.0022 0.9779
1.9994 -4.8269 -2.0022 0.9779
2.5039 -4.5855 -2.0022 0.9779
2.6660 -4.4932 -2.0022 0.9779
2.9797 -4.2916 -2.0022 0.9779
3.5601 -3.8238 -2.0021 0.9779
3.6943 -3.6943 -2.0021 0.9779
3.9484 -3.4213 -2.0021 0.9779
4.0680 -3.2782 -2.0021 0.9779
4.1824 -3.1309 -2.0021 0.9779
4.2914 -2.9796 -2.0021 0.9779
4.5853 -2.5037 -2.0021 0.9779
4.6717 -2.3385 -2.0021 0.9779
5.0126 -1.4718 -2.0020 0.9779
5.1048 -1.1105 -2.0020 0.9779
5.1709 -0.7435 -2.0020 0.9779
5.1941 -0.5584 -2.0020 0.9779
5.2207 -0.1864 -2.0019 0.9779
-1.8977 -0.0000 -0.7767 0.9918
-1.9569 -0.2104 -0.8055 0.9915
-4.7392 -1.2096 -2.0018 0.9791
-4.6409 -1.5447 -2.0019 0.9791
-4.3740 -2.1895 -2.0019 0.9791
-4.2931 -2.3442 -2.0019 0.9791
-4.1149 -2.6445 -2.0019 0.9791
-4.0180 -2.7897 -2.0020 0.9791
-3.8087 -3.0693 -2.0020 0.9791
-3.5801 -3.3332 -2.0020 0.9791
-3.3332 -3.5801 -2.0020 0.9791
-3.2033 -3.6969 -2.0020 0.9791
-3.0694 -3.8088 -2.0020 0.9791
-2.7898 -4.0181 -2.0020 0.9791
-1.2098 -4.7399 -2.0021 0.9791
-1.0398 -4.7801 -2.0021 0.9791
-0.8686 -4.8142 -2.0021 0.9791
-0.5229 -4.8639 -2.0021 0.9791
-0.3490 -4.8795 -2.0021 0.9791
0.1746 -4.8888 -2.0021 0.9791
0.3490 -4.8795 -2.0022 0.9791
0.8686 -4.8142 -2.0022 0.9791
1.2098 -4.7400 -2.0022 0.9791
1.7096 -4.5835 -2.0022 0.9791
2.0322 -4.4499 -2.0022 0.9791
2.1897 -4.3745 -2.0021 0.9791
2.3445 -4.2936 -2.0021 0.9791
2.4962 -4.2071 -2.0021 0.9791
2.6448 -4.1153 -2.0021 0.9791
2.7900 -4.0183 -2.0021 0.9791
2.9316 -3.9162 -2.0021 0.9791
3.3334 -3.5803 -2.0021 0.9791
3.4591 -3.4591 -2.0021 0.9791
3.6970 -3.2035 -2.0021 0.9791
3.8090 -3.0695 -2.0021 0.9791
3.9161 -2.9315 -2.0021 0.9791
4.0182 -2.7899 -2.0021 0.9791
4.1152 -2.6447 -2.0021 0.9791
4.2933 -2.3444 -2.0021 0.9791
4.4496 -2.0321 -2.0020 0.9791
4.5832 -1.7094 -2.0020 0.9791
4.6413 -1.5448 -2.0020 0.9791
4.7396 -1.2097 -2.0020 0.9791
4.7797 -1.0398 -2.0020 0.9791
4.8138 -0.8685 -2.0020 0.9791
4.8634 -0.5229 -2.0019 0.9791
4.8883 -0.1746 -2.0019 0.9791
-1.5284 -0.0546 -0.6665 0.9933
-1.5293 -0.1094 -0.6682 0.9933
-1.5001 -0.2706 -0.6643 0.9934
-1.5484 -0.3952 -0.6965 0.9931
-1.5707 -0.4612 -0.7134 0.9929
-1.5984 -0.5962 -0.7435 0.9926
-4.1783 -1.9082 -2.0019 0.9802
-3.6773 -2.7528 -2.0020 0.9802
-3.5768 -2.8823 -2.0020 0.9802
-3.3621 -3.1302 -2.0020 0.9802
-3.1302 -3.3621 -2.0020 0.9802
-3.0082 -3.4717 -2.0020 0.9802
-2.8824 -3.5769 -2.0020 0.9802
-2.6199 -3.7734 -2.0020 0.9802
-2.2016 -4.0319 -2.0021 0.9802
-1.7580 -4.2442 -2.0021 0.9802
-1.6054 -4.3042 -2.0021 0.9802
-1.4507 -4.3588 -2.0021 0.9802
-1.2942 -4.4078 -2.0021 0.9802
-1.1361 -4.4512 -2.0021 0.9802
-0.9765 -4.4889 -2.0021 0.9802
-0.6538 -4.5472 -2.0021 0.9802
-0.3277 -4.5822 -2.0021 0.9802
-0.1640 -4.5911 -2.0021 0.9802
0.1640 -4.5911 -2.0021 0.9802
0.3277 -4.5823 -2.0021 0.9802
0.4911 -4.5677 -2.0021 0.9802
0.6538 -4.5472 -2.0021 0.9802
0.8157 -4.5210 -2.0021 0.9802
0.9765 -4.4890 -2.0021 0.9802
1.1361 -4.4513 -2.0021 0.9802
1.2943 -4.4079 -2.0021 0.9802
1.6054 -4.3043 -2.0021 0.9802
1.9084 -4.1788 -2.0021 0.9802
2.0563 -4.1081 -2.0021 0.9802
2.2017 -4.0320 -2.0021 0.9802
2.3442 -3.9509 -2.0021 0.9802
2.4837 -3.8647 -2.0021 0.9802
2.7530 -3.6776 -2.0021 0.9802
2.8825 -3.5770 -2.0021 0.9802
3.1304 -3.3623 -2.0021 0.9802
3.2484 -3.2484 -2.0021 0.9802
3.3622 -3.1304 -2.0021 0.9802
3.6775 -2.7530 -2.0021 0.9802
3.8646 -2.4836 -2.0021 0.9802
3.9507 -2.3441 -2.0020 0.9802
4.0318 -2.2016 -2.0020 0.9802
4.1786 -1.9083 -2.0020 0.9802
4.2440 -1.7579 -2.0020 0.9802
4.3041 -1.6053 -2.0020 0.9802
4.3586 -1.4507 -2.0020 0.9802
4.4509 -1.1360 -2.0020 0.9802
4.5206 -0.8156 -2.0020 0.9802
-1.3384 -0.0957 -0.6211 0.9941
-1.3351 -0.1435 -0.6215 0.9941
-1.3013 -0.2831 -0.6164 0.9941
-1.3241 -0.3888 -0.6388 0.9939
-1.3324 -0.4435 -0.6500 0.9938
-1.3324 -0.4970 -0.6582 0.9938
-3.7194 -2.2069 -2.0019 0.9811
-3.3676 -2.7138 -2.0020 0.9811
-3.2686 -2.8323 -2.0020 0.9811
-3.1654 -2.9471 -2.0020 0.9811
-2.9472 -3.1655 -2.0020 0.9811
-2.8323 -3.2687 -2.0020 0.9811
-2.4667 -3.5527 -2.0020 0.9811
-1.9360 -3.8677 -2.0021 0.9811
-1.6552 -3.9960 -2.0021 0.9811
-1.5115 -4.0525 -2.0021 0.9811
-1.2186 -4.1500 -2.0021 0.9811
-0.7680 -4.2565 -2.0021 0.9811
-0.6155 -4.2812 -2.0021 0.9811
-0.4624 -4.3005 -2.0021 0.9811
-0.3086 -4.3143 -2.0021 0.9811
0.1544 -4.3226 -2.0021 0.9811
0.7680 -4.2566 -2.0021 0.9811
0.9194 -4.2265 -2.0021 0.9811
1.2186 -4.1501 -2.0021 0.9811
1.3660 -4.1040 -2.0021 0.9811
1.9361 -3.8678 -2.0021 0.9811
2.2071 -3.7198 -2.0021 0.9811
2.3384 -3.6387 -2.0021 0.9811
2.4668 -3.5529 -2.0021 0.9811
2.7140 -3.3678 -2.0021 0.9811
3.0584 -3.0584 -2.0021 0.9811
3.1656 -2.9473 -2.0021 0.9811
3.2688 -2.8324 -2.0021 0.9811
3.3678 -2.7139 -2.0021 0.9811
3.4625 -2.5920 -2.0021 0.9811
3.7197 -2.2070 -2.0020 0.9811
3.7961 -2.0728 -2.0020 0.9811
3.8676 -1.9360 -2.0020 0.9811
3.9342 -1.7967 -2.0020 0.9811
4.1037 -1.3658 -2.0020 0.9811
4.1498 -1.2185 -2.0020 0.9811
4.2809 -0.6155 -2.0019 0.9811
4.3001 -0.4623 -2.0019 0.9811
4.3139 -0.3085 -2.0019 0.9811
4.3221 -0.1543 -2.0019 0.9811
-1.1954 -0.0000 -0.5864 0.9947
-1.1964 -0.0427 -0.5873 0.9947
-1.1953 -0.0855 -0.5878 0.9947
-1.1867 -0.1706 -0.5881 0.9947
-1.1695 -0.2544 -0.5871 0.9947
-1.1579 -0.3854 -0.5986 0.9946
-1.1543 -0.4306 -0.6043 0.9945
-1.1400 -0.5206 -0.6148 0.9944
-1.1113 -0.6068 -0.6211 0.9944
-3.5099 -2.0825 -2.0019 0.9820
-3.4333 -2.2065 -2.0019 0.9820
-3.2672 -2.4458 -2.0019 0.9820
-3.1778 -2.5609 -2.0020 0.9820
-3.0844 -2.6727 -2.0020 0.9820
-2.9871 -2.7811 -2.0020 0.9820
-2.5609 -3.1779 -2.0020 0.9820
-2.4459 -3.2673 -2.0020 0.9820
-2.2066 -3.4335 -2.0020 0.9820
-1.9560 -3.5822 -2.0020 0.9820
-1.8269 -3.6497 -2.0020 0.9820
-1.6955 -3.7126 -2.0020 0.9820
-1.4263 -3.8241 -2.0021 0.9820
-1.2889 -3.8726 -2.0021 0.9820
-0.8676 -3.9883 -2.0021 0.9820
-0.4363 -4.0582 -2.0021 0.9820
-0.2912 -4.0712 -2.0021 0.9820
-0.1457 -4.0789 -2.0021 0.9820
0.1457 -4.0790 -2.0021 0.9820
0.4363 -4.0582 -2.0021 0.9820
0.5809 -4.0400 -2.0021 0.9820
1.0094 -3.9548 -2.0021 0.9820
1.1499 -3.9162 -2.0021 0.9820
1.4264 -3.8242 -2.0021 0.9820
1.5619 -3.7709 -2.0021 0.9820
1.6955 -3.7127 -2.0021 0.9820
1.8270 -3.6498 -2.0021 0.9820
1.9561 -3.5823 -2.0021 0.9820
2.2067 -3.4336 -2.0021 0.9820
2.3278 -3.3526 -2.0021 0.9820
2.4460 -3.2674 -2.0021 0.9820
2.5610 -3.1780 -2.0021 0.9820
2.8861 -2.8861 -2.0021 0.9820
2.9872 -2.7812 -2.0021 0.9820
3.2674 -2.4459 -2.0020 0.9820
3.5822 -1.9560 -2.0020 0.9820
3.6497 -1.8269 -2.0020 0.9820
3.7125 -1.6954 -2.0020 0.9820
3.8240 -1.4262 -2.0020 0.9820
3.8724 -1.2889 -2.0020 0.9820
3.9545 -1.0093 -2.0020 0.9820
3.9880 -0.8675 -2.0020 0.9820
4.0164 -0.7246 -2.0019 0.9820
4.0397 -0.5808 -2.0019 0.9820
4.0578 -0.4363 -2.0019 0.9820
4.0708 -0.2911 -2.0019 0.9820
-1.1058 -0.0000 -0.5737 0.9950
-1.1066 -0.0395 -0.5744 0.9950
-1.1055 -0.0791 -0.5750 0.9950
-1.0905 -0.1967 -0.5749 0.9950
-1.0636 -0.3123 -0.5751 0.9950
-1.0617 -0.3534 -0.5805 0.9950
-1.0576 -0.3945 -0.5856 0.9949
-1.0514 -0.4355 -0.5904 0.9949
-1.0430 -0.4763 -0.5948 0.9948
-1.0298 -0.5155 -0.5974 0.9948
-1.0118 -0.5525 -0.5981 0.9948
-0.9917 -0.5884 -0.5982 0.9948
-3.2463 -2.0863 -2.0019 0.9828
-3.1698 -2.2008 -2.0019 0.9828
-3.0892 -2.3126 -2.0019 0.9828
-2.7287 -2.7287 -2.0020 0.9828
-2.5271 -2.9165 -2.0020 0.9828
-2.2009 -3.1699 -2.0020 0.9828
-2.0864 -3.2465 -2.0020 0.9828
-1.3486 -3.6158 -2.0020 0.9828
-1.0872 -3.7029 -2.0021 0.9828
-0.4125 -3.8371 -2.0021 0.9828
-0.1377 -3.8568 -2.0021 0.9828
0.4125 -3.8371 -2.0021 0.9828
0.5492 -3.8200 -2.0021 0.9828
0.6852 -3.7979 -2.0021 0.9828
0.8203 -3.7710 -2.0021 0.9828
0.9544 -3.7394 -2.0021 0.9828
1.7275 -3.4510 -2.0021 0.9828
1.8495 -3.3871 -2.0021 0.9828
1.9692 -3.3190 -2.0021 0.9828
2.4215 -3.0049 -2.0021 0.9828
2.5272 -2.9166 -2.0021 0.9828
2.6297 -2.8245 -2.0021 0.9828
2.8245 -2.6297 -2.0020 0.9828
2.9165 -2.5272 -2.0020 0.9828
3.0894 -2.3127 -2.0020 0.9828
3.2465 -2.0864 -2.0020 0.9828
3.3189 -1.9692 -2.0020 0.9828
3.4509 -1.7274 -2.0020 0.9828
3.5653 -1.4768 -2.0020 0.9828
3.6615 -1.2187 -2.0020 0.9828
3.7027 -1.0872 -2.0020 0.9828
3.7391 -0.9544 -2.0020 0.9828
3.7708 -0.8203 -2.0019 0.9828
3.7976 -0.6852 -2.0019 0.9828
3.8197 -0.5492 -2.0019 0.9828
3.8368 -0.4125 -2.0019 0.9828
3.8491 -0.2753 -2.0019 0.9828
3.8564 -0.1377 -2.0019 0.9828
-1.0265 -0.0734 -0.5637 0.9953
-1.0190 -0.1465 -0.5638 0.9953
-1.0124 -0.1827 -0.5634 0.9953
-1.0039 -0.2184 -0.5627 0.9953
-0.9741 -0.3633 -0.5694 0.9953
-0.9677 -0.4009 -0.5737 0.9952
-0.9580 -0.4375 -0.5768 0.9952
-0.9269 -0.5061 -0.5784 0.9952
-0.9084 -0.5390 -0.5785 0.9952
-0.8881 -0.5708 -0.5782 0.9952
-2.8460 -2.2935 -2.0019 0.9835
-2.7624 -2.3936 -2.0019 0.9835
-2.3937 -2.7624 -2.0020 0.9835
-2.2935 -2.8461 -2.0020 0.9835
-2.0847 -3.0025 -2.0020 0.9835
-1.9762 -3.0750 -2.0020 0.9835
-1.8652 -3.1436 -2.0020 0.9835
-1.6362 -3.2687 -2.0020 0.9835
-1.5185 -3.3250 -2.0020 0.9835
-1.2774 -3.4249 -2.0020 0.9835
-1.1544 -3.4683 -2.0020 0.9835
-0.9040 -3.5418 -2.0020 0.9835
-0.1305 -3.6530 -2.0021 0.9835
0.1305 -3.6531 -2.0021 0.9835
0.2608 -3.6461 -2.0021 0.9835
0.7770 -3.5719 -2.0021 0.9835
0.9040 -3.5419 -2.0021 0.9835
1.3989 -3.3771 -2.0021 0.9835
1.5185 -3.3251 -2.0021 0.9835
2.1906 -2.9263 -2.0021 0.9835
2.2936 -2.8462 -2.0021 0.9835
2.8462 -2.2936 -2.0020 0.9835
3.0750 -1.9762 -2.0020 0.9835
3.2686 -1.6362 -2.0020 0.9835
3.3770 -1.3988 -2.0020 0.9835
3.4248 -1.2774 -2.0020 0.9835
3.4681 -1.1543 -2.0020 0.9835
3.5416 -0.9039 -2.0020 0.9835
3.5716 -0.7770 -2.0019 0.9835
3.5971 -0.6490 -2.0019 0.9835
3.6179 -0.5202 -2.0019 0.9835
3.6342 -0.3907 -2.0019 0.9835
3.6528 -0.1304 -2.0019 0.9835
-0.9570 -0.0000 -0.5525 0.9956
-0.9575 -0.0342 -0.5532 0.9956
-0.8687 -0.4349 -0.5609 0.9955
-0.8534 -0.4660 -0.5614 0.9955
-0.8178 -0.5256 -0.5613 0.9955
-0.8008 -0.5560 -0.5628 0.9955
-0.7846 -0.5873 -0.5658 0.9955
-0.7671 -0.6182 -0.5688 0.9955
-2.5378 -2.3628 -2.0019 0.9841
-2.4519 -2.4519 -2.0020 0.9841
-1.9776 -2.8483 -2.0020 0.9841
-1.8747 -2.9171 -2.0020 0.9841
-1.7694 -2.9821 -2.0020 0.9841
-1.6618 -3.0434 -2.0020 0.9841
-1.5521 -3.1008 -2.0020 0.9841
-1.3270 -3.2037 -2.0020 0.9841
-1.2118 -3.2490 -2.0020 0.9841
-1.0951 -3.2902 -2.0020 0.9841
-0.6157 -3.4126 -2.0020 0.9841
-0.4935 -3.4324 -2.0020 0.9841
-0.3707 -3.4478 -2.0021 0.9841
0.0000 -3.4677 -2.0021 0.9841
0.2474 -3.4588 -2.0021 0.9841
0.3707 -3.4478 -2.0021 0.9841
0.4935 -3.4324 -2.0021 0.9841
0.7371 -3.3884 -2.0021 0.9841
0.8576 -3.3600 -2.0021 0.9841
0.9770 -3.3272 -2.0021 0.9841
1.2118 -3.2491 -2.0021 0.9841
1.3270 -3.2037 -2.0021 0.9841
1.6619 -3.0435 -2.0021 0.9841
1.8748 -2.9172 -2.0021 0.9841
2.3629 -2.5379 -2.0020 0.9841
2.5379 -2.3629 -2.0020 0.9841
2.7000 -2.1758 -2.0020 0.9841
2.8483 -1.9777 -2.0020 0.9841
2.9171 -1.8747 -2.0020 0.9841
1.8508 -0.8452 -1.1747 0.9906
1.9033 -0.6335 -1.1581 0.9908
1.9351 -0.5682 -1.1644 0.9907
2.0359 -0.1456 -1.1784 0.9906
