ply
format ascii 1.0
element vertex 700
property float32 x
property float32 y
property float32 z
property float32 I
end_header
-9.4618 -0.3379 -2.0013 0.9620
-9.4439 -0.6754 -2.0013 0.9620
-9.3720 -1.3475 -2.0014 0.9620
-9.3181 -1.6812 -2.0015 0.9620
-9.2523 -2.0127 -2.0015 0.9620
-9.1748 -2.3417 -2.0015 0.9620
-8.9847 -2.9904 -2.0016 0.9620
-8.8724 -3.3092 -2.0017 0.9620
-8.4684 -4.2389 -2.0018 0.9620
-7.5819 -5.6758 -2.0020 0.9620
-7.1580 -6.2025 -2.0021 0.9620
-6.2030 -7.1586 -2.0022 0.9620
-5.9436 -7.3755 -2.0023 0.9620
-5.1214 -7.9691 -2.0024 0.9620
-4.5400 -8.3145 -2.0024 0.9620
-3.6254 -8.7526 -2.0025 0.9620
-2.6692 -9.0903 -2.0026 0.9620
-1.3484 -9.3782 -2.0027 0.9620
-1.0128 -9.4205 -2.0028 0.9620
-0.6759 -9.4507 -2.0028 0.9620
-0.3382 -9.4689 -2.0028 0.9620
0.3382 -9.4691 -2.0029 0.9620
1.0129 -9.4210 -2.0029 0.9620
1.3485 -9.3789 -2.0029 0.9620
2.3434 -9.1812 -2.0029 0.9620
2.9924 -8.9908 -2.0030 0.9620
3.3114 -8.8782 -2.0030 0.9620
3.9363 -8.6194 -2.0030 0.9620
4.8352 -8.1493 -2.0030 0.9620
5.1230 -7.9715 -2.0030 0.9620
5.4042 -7.7835 -2.0030 0.9620
6.2052 -7.1612 -2.0030 0.9620
6.9350 -6.4568 -2.0029 0.9620
7.1610 -6.2051 -2.0029 0.9620
7.7831 -5.4039 -2.0029 0.9620
8.1486 -4.8348 -2.0028 0.9620
8.3159 -4.5408 -2.0028 0.9620
8.9894 -2.9920 -2.0027 0.9620
9.3232 -1.6821 -2.0026 0.9620
9.3771 -1.3483 -2.0025 0.9620
9.4491 -0.6758 -2.0025 0.9620
-8.5154 0.0000 -2.0013 0.9656
-8.4940 -0.6075 -2.0014 0.9656
-8.4671 -0.9103 -2.0014 0.9656
-8.4293 -1.2120 -2.0015 0.9656
-8.3809 -1.5121 -2.0015 0.9656
-8.3217 -1.8103 -2.0015 0.9656
-8.1716 -2.3994 -2.0016 0.9656
-8.0809 -2.6896 -2.0016 0.9656
-7.8688 -3.2593 -2.0017 0.9656
-7.4757 -4.0820 -2.0018 0.9656
-7.3254 -4.3463 -2.0019 0.9656
-6.8192 -5.1048 -2.0020 0.9656
-6.6327 -5.3450 -2.0020 0.9656
-6.4379 -5.5784 -2.0020 0.9656
-5.8050 -6.2350 -2.0021 0.9656
-5.5788 -6.4383 -2.0022 0.9656
-5.1055 -6.8201 -2.0023 0.9656
-4.6061 -7.1672 -2.0023 0.9656
-4.3474 -7.3272 -2.0024 0.9656
-3.8138 -7.6189 -2.0024 0.9656
-3.5394 -7.7503 -2.0024 0.9656
-3.2606 -7.8718 -2.0025 0.9656
-1.5129 -8.3856 -2.0026 0.9656
-1.2127 -8.4344 -2.0027 0.9656
-0.9109 -8.4724 -2.0027 0.9656
-0.3042 -8.5159 -2.0027 0.9656
0.3041 -8.5161 -2.0028 0.9656
1.5130 -8.3863 -2.0028 0.9656
1.8114 -8.3271 -2.0028 0.9656
2.4009 -8.1767 -2.0028 0.9656
2.6912 -8.0858 -2.0028 0.9656
3.5401 -7.7519 -2.0029 0.9656
4.0841 -7.4796 -2.0029 0.9656
4.6073 -7.1691 -2.0029 0.9656
4.8603 -7.0001 -2.0029 0.9656
5.3472 -6.6355 -2.0028 0.9656
6.6353 -5.3471 -2.0028 0.9656
6.8219 -5.1068 -2.0028 0.9656
7.3285 -4.3482 -2.0027 0.9656
7.6199 -3.8142 -2.0027 0.9656
7.8724 -3.2609 -2.0026 0.9656
7.9837 -2.9778 -2.0026 0.9656
8.0848 -2.6909 -2.0026 0.9656
8.2559 -2.1072 -2.0025 0.9656
8.3850 -1.5128 -2.0025 0.9656
8.4335 -1.2125 -2.0025 0.9656
8.4983 -0.6078 -2.0024 0.9656
-7.7298 0.0000 -2.0014 0.9686
-7.7249 -0.2759 -2.0014 0.9686
-7.7103 -0.5515 -2.0014 0.9686
-7.6515 -1.1001 -2.0015 0.9686
-7.5538 -1.6432 -2.0016 0.9686
-7.4176 -2.1780 -2.0016 0.9686
-7.1426 -2.9586 -2.0017 0.9686
-6.9136 -3.4607 -2.0018 0.9686
-6.5044 -4.1801 -2.0019 0.9686
-6.1898 -4.6336 -2.0020 0.9686
-6.0206 -4.8517 -2.0020 0.9686
-5.2692 -5.6595 -2.0021 0.9686
-5.0639 -5.8440 -2.0022 0.9686
-4.6342 -6.1906 -2.0022 0.9686
-4.4104 -6.3521 -2.0022 0.9686
-3.9461 -6.6508 -2.0023 0.9686
-3.2127 -7.0348 -2.0024 0.9686
-1.9127 -7.4939 -2.0025 0.9685
-0.8268 -7.6902 -2.0026 0.9685
-0.5518 -7.7149 -2.0026 0.9685
-0.0000 -7.7347 -2.0027 0.9685
0.2760 -7.7298 -2.0027 0.9685
0.5518 -7.7151 -2.0027 0.9685
1.1008 -7.6562 -2.0027 0.9685
1.9129 -7.4948 -2.0027 0.9685
2.7031 -7.2474 -2.0028 0.9685
3.2133 -7.0361 -2.0028 0.9685
3.7071 -6.7890 -2.0028 0.9685
3.9470 -6.6523 -2.0028 0.9685
5.2708 -5.6612 -2.0027 0.9685
5.4695 -5.4695 -2.0027 0.9685
5.8457 -5.0653 -2.0027 0.9685
6.1920 -4.6353 -2.0027 0.9685
6.7885 -3.7068 -2.0026 0.9685
7.1456 -2.9598 -2.0026 0.9685
7.2466 -2.7028 -2.0025 0.9685
7.3384 -2.4425 -2.0025 0.9685
7.4937 -1.9127 -2.0025 0.9685
7.6109 -1.3732 -2.0024 0.9685
7.6550 -1.1006 -2.0024 0.9686
7.7138 -0.5517 -2.0023 0.9686
-7.0698 0.0000 -2.0014 0.9710
-6.9580 -1.2553 -2.0015 0.9710
-6.8509 -1.7486 -2.0016 0.9710
-6.6250 -2.4710 -2.0017 0.9710
-6.3232 -3.1652 -2.0018 0.9710
-5.9489 -3.8231 -2.0019 0.9710
-5.3446 -4.6311 -2.0020 0.9710
-5.0007 -5.0007 -2.0021 0.9710
-4.6314 -5.3449 -2.0021 0.9710
-4.0337 -5.8096 -2.0022 0.9710
-3.8238 -5.9499 -2.0022 0.9710
-3.6091 -6.0827 -2.0023 0.9710
-3.3897 -6.2077 -2.0023 0.9710
-3.1660 -6.3248 -2.0023 0.9710
-2.7068 -6.5347 -2.0024 0.9710
-2.2338 -6.7114 -2.0024 0.9710
-1.7493 -6.8538 -2.0025 0.9710
-1.2560 -6.9612 -2.0025 0.9710
-1.0067 -7.0017 -2.0025 0.9710
-0.7562 -7.0332 -2.0025 0.9710
-0.5047 -7.0558 -2.0025 0.9710
-0.2525 -7.0694 -2.0026 0.9710
-0.0000 -7.0739 -2.0026 0.9710
0.2525 -7.0695 -2.0026 0.9710
1.2560 -6.9618 -2.0026 0.9710
1.5037 -6.9125 -2.0027 0.9710
2.2340 -6.7122 -2.0027 0.9710
3.1666 -6.3260 -2.0027 0.9710
3.3903 -6.2090 -2.0027 0.9710
3.8246 -5.9513 -2.0027 0.9710
4.0346 -5.8110 -2.0027 0.9710
4.4389 -5.5083 -2.0027 0.9710
4.8205 -5.1776 -2.0027 0.9710
5.0022 -5.0022 -2.0027 0.9710
5.1775 -4.8205 -2.0026 0.9710
5.8107 -4.0345 -2.0026 0.9710
6.0836 -3.6096 -2.0026 0.9710
6.3255 -3.1664 -2.0025 0.9710
6.4345 -2.9385 -2.0025 0.9710
6.7115 -2.2338 -2.0025 0.9710
6.7869 -1.9928 -2.0024 0.9710
7.0011 -1.0066 -2.0023 0.9710
7.0325 -0.7561 -2.0023 0.9710
7.0549 -0.5046 -2.0023 0.9710
7.0683 -0.2525 -2.0023 0.9710
-6.4412 -0.9261 -2.0015 0.9731
-6.4041 -1.1554 -2.0016 0.9731
-6.3055 -1.6094 -2.0016 0.9731
-6.2442 -1.8335 -2.0017 0.9731
-6.0976 -2.2743 -2.0017 0.9731
-6.0127 -2.4905 -2.0017 0.9731
-5.5973 -3.3211 -2.0018 0.9731
-5.4753 -3.5188 -2.0019 0.9731
-5.3463 -3.7120 -2.0019 0.9731
-4.9191 -4.2624 -2.0020 0.9731
-4.7639 -4.4353 -2.0020 0.9731
-4.4355 -4.7640 -2.0021 0.9731
-4.2627 -4.9193 -2.0021 0.9731
-3.9010 -5.2110 -2.0022 0.9731
-3.7125 -5.3470 -2.0022 0.9731
-3.1198 -5.7135 -2.0023 0.9731
-2.9139 -5.8212 -2.0023 0.9731
-2.4913 -6.0144 -2.0023 0.9731
-2.0559 -6.1769 -2.0024 0.9731
-1.1559 -6.4069 -2.0024 0.9731
-0.9265 -6.4441 -2.0025 0.9731
-0.2324 -6.5064 -2.0025 0.9731
0.2324 -6.5065 -2.0025 0.9731
0.4645 -6.4941 -2.0025 0.9731
1.1560 -6.4073 -2.0026 0.9731
1.3840 -6.3620 -2.0026 0.9731
2.2753 -6.1004 -2.0026 0.9731
2.7047 -5.9225 -2.0026 0.9731
3.1203 -5.7145 -2.0026 0.9731
3.3223 -5.5995 -2.0026 0.9731
3.5200 -5.4773 -2.0026 0.9731
4.0854 -5.0697 -2.0026 0.9731
4.2637 -4.9206 -2.0026 0.9731
4.4366 -4.7653 -2.0026 0.9731
4.9205 -4.2637 -2.0026 0.9731
5.0695 -4.0853 -2.0026 0.9731
5.3480 -3.7132 -2.0025 0.9731
5.4771 -3.5199 -2.0025 0.9731
5.5992 -3.3222 -2.0025 0.9731
6.0998 -2.2751 -2.0024 0.9731
6.2464 -1.8342 -2.0024 0.9731
6.3079 -1.6100 -2.0024 0.9731
6.3612 -1.3838 -2.0023 0.9731
6.4436 -0.9265 -2.0023 0.9731
6.5055 -0.2324 -2.0022 0.9731
-6.0212 -0.0000 -2.0015 0.9749
-6.0174 -0.2149 -2.0015 0.9749
-5.9869 -0.6437 -2.0015 0.9749
-5.9259 -1.0691 -2.0016 0.9749
-5.8840 -1.2800 -2.0016 0.9749
-5.8346 -1.4892 -2.0016 0.9749
-5.7137 -1.9017 -2.0017 0.9749
-5.4779 -2.5017 -2.0018 0.9749
-5.1793 -3.0730 -2.0018 0.9749
-5.0664 -3.2559 -2.0019 0.9749
-4.8213 -3.6092 -2.0019 0.9749
-4.2588 -4.2588 -2.0020 0.9749
-3.7793 -4.6898 -2.0021 0.9749
-3.6095 -4.8218 -2.0021 0.9749
-3.4352 -4.9476 -2.0022 0.9749
-3.2564 -5.0671 -2.0022 0.9749
-2.5023 -5.4792 -2.0023 0.9749
-1.9023 -5.7155 -2.0023 0.9749
-1.4897 -5.8367 -2.0024 0.9749
-1.2805 -5.8863 -2.0024 0.9749
-1.0696 -5.9282 -2.0024 0.9749
0.4297 -6.0089 -2.0025 0.9749
1.2806 -5.8867 -2.0025 0.9749
1.4899 -5.8373 -2.0025 0.9749
2.1053 -5.6446 -2.0026 0.9749
2.3054 -5.5659 -2.0026 0.9749
2.6966 -5.3872 -2.0026 0.9749
2.8872 -5.2875 -2.0026 0.9749
3.0741 -5.1811 -2.0026 0.9749
3.7801 -4.6909 -2.0025 0.9749
3.9451 -4.5529 -2.0025 0.9749
4.1051 -4.4092 -2.0025 0.9749
4.2599 -4.2599 -2.0025 0.9749
4.4092 -4.1051 -2.0025 0.9749
4.5529 -3.9451 -2.0025 0.9749
4.6907 -3.7800 -2.0025 0.9749
5.1808 -3.0739 -2.0025 0.9749
5.2872 -2.8871 -2.0024 0.9749
5.3869 -2.6965 -2.0024 0.9749
5.4796 -2.5025 -2.0024 0.9749
5.5654 -2.3053 -2.0024 0.9749
5.6441 -2.1052 -2.0024 0.9749
5.8366 -1.4897 -2.0023 0.9749
5.9622 -0.8572 -2.0023 0.9749
5.9890 -0.6439 -2.0022 0.9749
6.0081 -0.4297 -2.0022 0.9749
6.0195 -0.2150 -2.0022 0.9749
-5.5969 0.0000 -2.0015 0.9765
-5.5934 -0.1998 -2.0015 0.9765
-5.5650 -0.5983 -2.0016 0.9765
-5.5402 -0.7966 -2.0016 0.9765
-5.4694 -1.1898 -2.0016 0.9765
-5.4235 -1.3843 -2.0017 0.9765
-5.3707 -1.5770 -2.0017 0.9765
-5.3110 -1.7677 -2.0017 0.9765
-5.2446 -1.9561 -2.0017 0.9765
-4.9131 -2.6827 -2.0018 0.9765
-4.8143 -2.8564 -2.0018 0.9765
-4.5983 -3.1927 -2.0019 0.9765
-4.4815 -3.3548 -2.0019 0.9765
-4.3590 -3.5127 -2.0019 0.9765
-4.2309 -3.6660 -2.0020 0.9765
-4.0974 -3.8148 -2.0020 0.9765
-3.9586 -3.9586 -2.0020 0.9765
-3.6662 -4.2310 -2.0021 0.9765
-3.5129 -4.3593 -2.0021 0.9765
-3.3551 -4.4819 -2.0021 0.9765
-3.0269 -4.7100 -2.0021 0.9765
-2.8569 -4.8150 -2.0022 0.9765
-2.5062 -5.0067 -2.0022 0.9765
-1.9567 -5.2461 -2.0023 0.9765
-1.7682 -5.3126 -2.0023 0.9765
-1.3847 -5.4253 -2.0023 0.9765
-0.9942 -5.5103 -2.0024 0.9765
-0.7969 -5.5423 -2.0024 0.9765
-0.5986 -5.5673 -2.0024 0.9765
-0.1999 -5.5959 -2.0024 0.9765
-0.0000 -5.5995 -2.0024 0.9765
0.1998 -5.5960 -2.0024 0.9765
0.5986 -5.5675 -2.0025 0.9765
0.7969 -5.5426 -2.0025 0.9765
0.9942 -5.5107 -2.0025 0.9765
1.1903 -5.4717 -2.0025 0.9765
1.7684 -5.3132 -2.0025 0.9765
2.1429 -5.1735 -2.0025 0.9765
2.3262 -5.0937 -2.0025 0.9765
2.6837 -4.9148 -2.0025 0.9765
2.8574 -4.8159 -2.0025 0.9765
3.0274 -4.7108 -2.0025 0.9765
3.1936 -4.5997 -2.0025 0.9765
3.5136 -4.3602 -2.0025 0.9765
3.6670 -4.2320 -2.0025 0.9765
3.8157 -4.0984 -2.0025 0.9765
4.3601 -3.5136 -2.0025 0.9765
4.5996 -3.1936 -2.0024 0.9765
4.8156 -2.8572 -2.0024 0.9765
5.0071 -2.5064 -2.0024 0.9765
5.0933 -2.3261 -2.0024 0.9765
5.1731 -2.1428 -2.0024 0.9765
5.4252 -1.3847 -2.0023 0.9765
5.4711 -1.1902 -2.0023 0.9765
5.5420 -0.7968 -2.0022 0.9765
5.5668 -0.5985 -2.0022 0.9765
5.5952 -0.1998 -2.0022 0.9765
-5.2197 -0.1864 -2.0015 0.9779
-5.1932 -0.5583 -2.0016 0.9779
-5.1700 -0.7433 -2.0016 0.9779
-5.0611 -1.2918 -2.0017 0.9779
-4.9561 -1.6496 -2.0017 0.9779
-4.8941 -1.8254 -2.0017 0.9779
-4.7516 -2.1700 -2.0018 0.9779
-4.6711 -2.3382 -2.0018 0.9779
-4.4925 -2.6655 -2.0018 0.9779
-4.2910 -2.9793 -2.0019 0.9779
-4.1820 -3.1306 -2.0019 0.9779
-4.0676 -3.2779 -2.0019 0.9779
-3.5599 -3.8236 -2.0020 0.9779
-3.4212 -3.9483 -2.0020 0.9779
-3.2781 -4.0679 -2.0021 0.9779
-3.1309 -4.1823 -2.0021 0.9779
-2.9796 -4.2915 -2.0021 0.9779
-2.8246 -4.3952 -2.0021 0.9779
-2.6659 -4.4932 -2.0021 0.9779
-1.8259 -4.8954 -2.0022 0.9779
-1.6500 -4.9575 -2.0023 0.9779
-0.5585 -5.1951 -2.0023 0.9779
-0.3728 -5.2118 -2.0024 0.9779
0.1865 -5.2219 -2.0024 0.9779
0.3728 -5.2119 -2.0024 0.9779
0.7436 -5.1721 -2.0024 0.9779
1.1107 -5.1059 -2.0024 0.9779
1.6502 -4.9579 -2.0025 0.9779
2.1707 -4.7532 -2.0025 0.9779
2.3390 -4.6727 -2.0025 0.9779
2.5043 -4.5862 -2.0025 0.9779
2.6663 -4.4939 -2.0025 0.9779
2.9801 -4.2922 -2.0025 0.9779
3.1314 -4.1831 -2.0025 0.9779
3.8244 -3.5606 -2.0024 0.9779
3.9490 -3.4218 -2.0024 0.9779
4.0686 -3.2787 -2.0024 0.9779
4.1830 -3.1314 -2.0024 0.9779
4.2921 -2.9801 -2.0024 0.9779
4.4937 -2.6662 -2.0024 0.9779
4.6724 -2.3389 -2.0024 0.9779
4.8273 -1.9995 -2.0023 0.9779
4.9576 -1.6500 -2.0023 0.9779
5.1054 -1.1106 -2.0022 0.9779
5.1417 -0.9277 -2.0022 0.9779
5.1947 -0.5585 -2.0022 0.9779
5.2113 -0.3727 -2.0022 0.9779
5.2212 -0.1865 -2.0022 0.9779
-1.9308 -0.0690 -0.7907 0.9917
-1.9525 -0.1396 -0.8011 0.9916
-4.7790 -1.0396 -2.0017 0.9791
-4.7389 -1.2095 -2.0017 0.9791
-4.6927 -1.3779 -2.0017 0.9791
-4.5826 -1.7092 -2.0017 0.9791
-4.5187 -1.8717 -2.0018 0.9791
-4.3737 -2.1893 -2.0018 0.9791
-4.0178 -2.7896 -2.0019 0.9791
-3.9157 -2.9313 -2.0019 0.9791
-3.8087 -3.0692 -2.0019 0.9791
-3.3332 -3.5801 -2.0020 0.9791
-3.2033 -3.6969 -2.0020 0.9791
-3.0694 -3.8089 -2.0021 0.9791
-2.9315 -3.9160 -2.0021 0.9791
-2.4962 -4.2071 -2.0021 0.9791
-2.3445 -4.2936 -2.0021 0.9791
-2.0322 -4.4499 -2.0022 0.9791
-1.8721 -4.5197 -2.0022 0.9791
-1.5449 -4.6418 -2.0022 0.9791
-0.3490 -4.8799 -2.0023 0.9791
0.3490 -4.8800 -2.0024 0.9791
1.0400 -4.7807 -2.0024 0.9791
1.2100 -4.7406 -2.0024 0.9791
1.5451 -4.6422 -2.0024 0.9791
1.7098 -4.5841 -2.0024 0.9791
2.3448 -4.2941 -2.0024 0.9791
2.4965 -4.2077 -2.0024 0.9791
2.6451 -4.1159 -2.0024 0.9791
2.7904 -4.0189 -2.0024 0.9791
3.0699 -3.8096 -2.0024 0.9791
3.2039 -3.6976 -2.0024 0.9791
3.3339 -3.5808 -2.0024 0.9791
3.5808 -3.3339 -2.0024 0.9791
3.6975 -3.2039 -2.0024 0.9791
3.8095 -3.0699 -2.0024 0.9791
3.9166 -2.9320 -2.0024 0.9791
4.0188 -2.7903 -2.0024 0.9791
4.1158 -2.6451 -2.0024 0.9791
4.5838 -1.7096 -2.0023 0.9791
4.6940 -1.3783 -2.0022 0.9791
4.7402 -1.2099 -2.0022 0.9791
4.7803 -1.0399 -2.0022 0.9791
4.8143 -0.8686 -2.0022 0.9791
4.8422 -0.6962 -2.0022 0.9791
4.8640 -0.5229 -2.0022 0.9791
-1.5222 -0.0000 -0.6634 0.9934
-1.5284 -0.0546 -0.6665 0.9933
-1.5249 -0.1639 -0.6684 0.9933
-1.5151 -0.2179 -0.6671 0.9933
-1.5002 -0.2707 -0.6643 0.9934
-1.5214 -0.3310 -0.6786 0.9932
-1.5875 -0.5284 -0.7292 0.9927
-1.5984 -0.5962 -0.7435 0.9926
-4.1781 -1.9081 -2.0018 0.9802
-4.1074 -2.0560 -2.0018 0.9802
-3.9503 -2.3438 -2.0018 0.9802
-3.3620 -3.1301 -2.0020 0.9802
-3.1302 -3.3621 -2.0020 0.9802
-2.8824 -3.5769 -2.0020 0.9802
-2.7530 -3.6775 -2.0021 0.9802
-2.4837 -3.8646 -2.0021 0.9802
-2.3442 -3.9508 -2.0021 0.9802
-1.7581 -4.2444 -2.0022 0.9802
-1.6055 -4.3045 -2.0022 0.9802
-1.4508 -4.3591 -2.0022 0.9802
-1.2943 -4.4081 -2.0022 0.9802
-0.9766 -4.4892 -2.0022 0.9802
-0.8157 -4.5213 -2.0023 0.9802
-0.1640 -4.5914 -2.0023 0.9802
0.4911 -4.5681 -2.0023 0.9802
0.6539 -4.5477 -2.0023 0.9802
0.8158 -4.5215 -2.0024 0.9802
2.0566 -4.1086 -2.0024 0.9802
2.2019 -4.0326 -2.0024 0.9802
2.4840 -3.8652 -2.0024 0.9802
2.7534 -3.6781 -2.0024 0.9802
2.8829 -3.5775 -2.0024 0.9802
3.0088 -3.4723 -2.0024 0.9802
3.2488 -3.2488 -2.0024 0.9802
3.5774 -2.8829 -2.0023 0.9802
3.7739 -2.6203 -2.0023 0.9802
4.0324 -2.2019 -2.0023 0.9802
4.1083 -2.0565 -2.0023 0.9802
4.1791 -1.9086 -2.0023 0.9802
4.2445 -1.7582 -2.0023 0.9802
4.4081 -1.2943 -2.0022 0.9802
4.4514 -1.1362 -2.0022 0.9802
4.5211 -0.8157 -2.0022 0.9802
4.5677 -0.4911 -2.0021 0.9802
4.5910 -0.1640 -2.0021 0.9802
-1.3376 -0.0478 -0.6195 0.9941
-1.3160 -0.2374 -0.6190 0.9941
-1.3117 -0.3348 -0.6266 0.9941
-1.3241 -0.3888 -0.6388 0.9939
-1.3324 -0.4435 -0.6500 0.9938
-1.3151 -0.6006 -0.6692 0.9936
-3.7193 -2.2068 -2.0018 0.9811
-3.5525 -2.4665 -2.0019 0.9811
-3.4622 -2.5918 -2.0019 0.9811
-3.2686 -2.8322 -2.0019 0.9811
-3.1654 -2.9471 -2.0020 0.9811
-2.8323 -3.2687 -2.0020 0.9811
-2.7139 -3.3677 -2.0020 0.9811
-2.3384 -3.6386 -2.0021 0.9811
-2.0729 -3.7962 -2.0021 0.9811
-1.9361 -3.8678 -2.0021 0.9811
-1.7968 -3.9345 -2.0021 0.9811
-1.6553 -3.9961 -2.0022 0.9811
-1.5116 -4.0527 -2.0022 0.9811
-1.3660 -4.1041 -2.0022 0.9811
-1.2186 -4.1503 -2.0022 0.9811
-1.0697 -4.1911 -2.0022 0.9811
-0.7680 -4.2568 -2.0022 0.9811
0.1544 -4.3229 -2.0023 0.9811
0.4624 -4.3009 -2.0023 0.9811
0.6156 -4.2817 -2.0023 0.9811
1.0698 -4.1914 -2.0023 0.9811
1.3661 -4.1044 -2.0023 0.9811
1.9363 -3.8682 -2.0024 0.9811
2.0731 -3.7967 -2.0024 0.9811
2.2073 -3.7203 -2.0024 0.9811
2.4671 -3.5533 -2.0024 0.9811
2.7143 -3.3682 -2.0023 0.9811
2.8328 -3.2692 -2.0023 0.9811
2.9476 -3.1660 -2.0023 0.9811
3.2692 -2.8328 -2.0023 0.9811
3.4629 -2.5923 -2.0023 0.9811
4.0528 -1.5116 -2.0022 0.9811
4.1041 -1.3660 -2.0022 0.9811
4.2266 -0.9194 -2.0022 0.9811
4.2567 -0.7680 -2.0022 0.9811
4.3005 -0.4624 -2.0021 0.9811
4.3143 -0.3086 -2.0021 0.9811
-1.1954 0.0000 -0.5864 0.9947
-1.1965 -0.0427 -0.5873 0.9947
-1.1954 -0.0855 -0.5878 0.9947
-1.1867 -0.1706 -0.5881 0.9947
-1.1695 -0.2544 -0.5871 0.9947
-1.1578 -0.2955 -0.5861 0.9947
-1.1590 -0.3403 -0.5925 0.9946
-1.1579 -0.3854 -0.5986 0.9946
-1.1544 -0.4305 -0.6043 0.9945
-1.1401 -0.5206 -0.6148 0.9944
-1.1113 -0.6068 -0.6211 0.9944
-2.9870 -2.7810 -2.0019 0.9820
-2.6727 -3.0845 -2.0020 0.9820
-2.5609 -3.1779 -2.0020 0.9820
-1.4264 -3.8243 -2.0021 0.9820
-1.2890 -3.8728 -2.0022 0.9820
-1.1500 -3.9164 -2.0022 0.9820
-1.0095 -3.9549 -2.0022 0.9820
-0.5809 -4.0403 -2.0022 0.9820
-0.4363 -4.0584 -2.0022 0.9820
-0.2912 -4.0714 -2.0022 0.9820
-0.1457 -4.0793 -2.0023 0.9820
-0.0000 -4.0819 -2.0023 0.9820
0.7247 -4.0171 -2.0023 0.9820
1.0095 -3.9552 -2.0023 0.9820
1.1500 -3.9167 -2.0023 0.9820
1.4265 -3.8246 -2.0023 0.9820
1.5621 -3.7713 -2.0023 0.9820
1.6957 -3.7131 -2.0023 0.9820
2.2069 -3.4340 -2.0023 0.9820
2.3280 -3.3531 -2.0023 0.9820
2.4462 -3.2678 -2.0023 0.9820
2.7815 -2.9876 -2.0023 0.9820
2.9876 -2.7815 -2.0023 0.9820
3.1783 -2.5613 -2.0023 0.9820
3.4339 -2.2068 -2.0023 0.9820
3.5104 -2.0829 -2.0023 0.9820
3.5825 -1.9562 -2.0022 0.9820
3.6501 -1.8271 -2.0022 0.9820
3.7129 -1.6956 -2.0022 0.9820
3.7711 -1.5620 -2.0022 0.9820
3.9164 -1.1500 -2.0022 0.9820
3.9549 -1.0094 -2.0022 0.9820
3.9884 -0.8676 -2.0022 0.9820
4.0401 -0.5809 -2.0021 0.9820
4.0711 -0.2912 -2.0021 0.9820
-1.1024 -0.1185 -0.5752 0.9950
-1.0974 -0.1578 -0.5752 0.9950
-1.0814 -0.2352 -0.5741 0.9950
-1.0704 -0.2732 -0.5731 0.9950
-1.0617 -0.3534 -0.5805 0.9950
-1.0118 -0.5525 -0.5981 0.9948
-3.2462 -2.0862 -2.0019 0.9828
-3.1697 -2.2008 -2.0019 0.9828
-3.0892 -2.3125 -2.0019 0.9828
-2.9164 -2.5270 -2.0019 0.9828
-2.6296 -2.8244 -2.0020 0.9828
-2.4215 -3.0048 -2.0020 0.9828
-2.3127 -3.0894 -2.0020 0.9828
-2.2009 -3.1700 -2.0020 0.9828
-2.0864 -3.2465 -2.0020 0.9828
-1.8495 -3.3871 -2.0021 0.9828
-1.7275 -3.4510 -2.0021 0.9828
-1.6032 -3.5105 -2.0021 0.9828
-1.4769 -3.5655 -2.0021 0.9828
-1.2188 -3.6618 -2.0021 0.9828
-0.8204 -3.7712 -2.0022 0.9828
-0.6853 -3.7981 -2.0022 0.9828
-0.1378 -3.8570 -2.0022 0.9828
-0.0000 -3.8595 -2.0022 0.9828
0.2753 -3.8497 -2.0023 0.9828
0.6853 -3.7983 -2.0023 0.9828
0.9545 -3.7397 -2.0023 0.9828
1.0874 -3.7033 -2.0023 0.9828
1.2188 -3.6621 -2.0023 0.9828
1.3488 -3.6163 -2.0023 0.9828
1.9694 -3.3193 -2.0023 0.9828
2.0867 -3.2469 -2.0023 0.9828
2.2012 -3.1704 -2.0023 0.9828
2.3130 -3.0898 -2.0023 0.9828
2.6300 -2.8248 -2.0023 0.9828
2.7291 -2.7292 -2.0023 0.9828
2.8248 -2.6300 -2.0023 0.9828
2.9169 -2.5275 -2.0023 0.9828
3.0052 -2.4217 -2.0023 0.9828
3.1703 -2.2012 -2.0022 0.9828
3.3874 -1.8497 -2.0022 0.9828
3.5656 -1.4769 -2.0022 0.9828
3.6619 -1.2188 -2.0022 0.9828
3.7030 -1.0873 -2.0022 0.9828
3.7394 -0.9545 -2.0021 0.9828
3.7711 -0.8204 -2.0021 0.9828
3.7980 -0.6852 -2.0021 0.9828
3.8494 -0.2753 -2.0021 0.9828
3.8567 -0.1378 -2.0021 0.9828
-1.0270 -0.0000 -0.5625 0.9953
-1.0276 -0.0367 -0.5632 0.9953
-1.0265 -0.0734 -0.5637 0.9953
-1.0190 -0.1465 -0.5638 0.9953
-1.0039 -0.2184 -0.5627 0.9953
-0.9938 -0.2537 -0.5618 0.9953
-0.9820 -0.2883 -0.5606 0.9953
-0.9580 -0.4375 -0.5768 0.9952
-0.9434 -0.4722 -0.5778 0.9952
-0.9084 -0.5390 -0.5785 0.9952
-0.8661 -0.6014 -0.5775 0.9952
-2.9260 -2.1904 -2.0019 0.9835
-2.7624 -2.3936 -2.0019 0.9835
-2.2936 -2.8461 -2.0020 0.9835
-1.9762 -3.0751 -2.0020 0.9835
-1.8652 -3.1437 -2.0021 0.9835
-1.6362 -3.2688 -2.0021 0.9835
-1.3989 -3.3772 -2.0021 0.9835
-1.2775 -3.4250 -2.0021 0.9835
-1.1544 -3.4684 -2.0021 0.9835
-1.0299 -3.5075 -2.0021 0.9835
-0.9040 -3.5420 -2.0021 0.9835
-0.7770 -3.5720 -2.0022 0.9835
-0.3908 -3.6347 -2.0022 0.9835
-0.2608 -3.6463 -2.0022 0.9835
-0.1305 -3.6533 -2.0022 0.9835
-0.0000 -3.6556 -2.0022 0.9835
0.2608 -3.6464 -2.0022 0.9835
0.6491 -3.5976 -2.0022 0.9835
0.9041 -3.5422 -2.0023 0.9835
1.0299 -3.5076 -2.0023 0.9835
1.1545 -3.4687 -2.0023 0.9835
1.2775 -3.4253 -2.0023 0.9835
1.3990 -3.3775 -2.0023 0.9835
1.6364 -3.2691 -2.0023 0.9835
1.7520 -3.2086 -2.0023 0.9835
1.8654 -3.1440 -2.0023 0.9835
2.2939 -2.8465 -2.0023 0.9835
2.3940 -2.7628 -2.0023 0.9835
2.4911 -2.6756 -2.0023 0.9835
2.9265 -2.1908 -2.0022 0.9835
3.0028 -2.0849 -2.0022 0.9835
3.2085 -1.7520 -2.0022 0.9835
3.3773 -1.3989 -2.0022 0.9835
3.4251 -1.2775 -2.0022 0.9835
3.5074 -1.0299 -2.0021 0.9835
3.5420 -0.9040 -2.0021 0.9835
3.6182 -0.5202 -2.0021 0.9835
3.6530 -0.1305 -2.0021 0.9835
-0.9576 -0.0342 -0.5532 0.9956
-0.9565 -0.0684 -0.5536 0.9956
-0.9492 -0.1365 -0.5537 0.9956
-0.9353 -0.2035 -0.5526 0.9956
-0.9259 -0.2363 -0.5517 0.9956
-0.8687 -0.4349 -0.5609 0.9955
-0.8178 -0.5256 -0.5613 0.9955
-0.7846 -0.5873 -0.5658 0.9955
-0.7671 -0.6182 -0.5688 0.9955
-2.3628 -2.5378 -2.0020 0.9841
-2.0780 -2.7759 -2.0020 0.9841
-1.8747 -2.9171 -2.0020 0.9841
-1.7694 -2.9822 -2.0020 0.9841
-1.6619 -3.0435 -2.0021 0.9841
-1.3270 -3.2038 -2.0021 0.9841
-0.9770 -3.3273 -2.0021 0.9841
-0.8576 -3.3601 -2.0021 0.9841
-0.7371 -3.3886 -2.0021 0.9841
-0.6157 -3.4127 -2.0022 0.9841
-0.4935 -3.4325 -2.0022 0.9841
-0.3707 -3.4480 -2.0022 0.9841
-0.2474 -3.4591 -2.0022 0.9841
-0.0000 -3.4679 -2.0022 0.9841
0.1238 -3.4657 -2.0022 0.9841
0.2474 -3.4591 -2.0022 0.9841
0.4935 -3.4327 -2.0022 0.9841
0.7371 -3.3887 -2.0022 0.9841
0.9770 -3.3275 -2.0022 0.9841
1.2119 -3.2493 -2.0022 0.9841
1.5523 -3.1012 -2.0022 0.9841
1.6620 -3.0438 -2.0022 0.9841
1.7696 -2.9825 -2.0022 0.9841
1.8749 -2.9175 -2.0022 0.9841
1.9779 -2.8487 -2.0022 0.9841
2.0783 -2.7763 -2.0022 0.9841
2.1760 -2.7003 -2.0022 0.9841
2.2710 -2.6209 -2.0022 0.9841
2.4522 -2.4522 -2.0022 0.9841
2.5382 -2.3631 -2.0022 0.9841
2.6209 -2.2710 -2.0022 0.9841
2.7003 -2.1760 -2.0022 0.9841
2.7762 -2.0783 -2.0022 0.9841
2.8486 -1.9778 -2.0022 0.9841
2.9174 -1.8749 -2.0022 0.9841
3.0437 -1.6620 -2.0022 0.9841
1.8620 -0.7713 -1.1636 0.9907
1.8682 -0.6968 -1.1512 0.9908
1.9351 -0.5682 -1.1644 0.9907
1.9883 -0.4325 -1.1748 0.9906
2.0300 -0.2919 -1.1841 0.9906
2.0366 -0.2190 -1.1826 0.9906
