ply
format ascii 1.0
element vertex 885
property float32 x
property float32 y
property float32 z
property float32 I
end_header
2.5763 4.3421 0.8903 0.9797
2.3662 4.3334 0.8706 0.9801
2.2081 4.4111 0.8698 0.9802
3.3233 4.4394 0.8495 0.9778
2.9984 4.6656 0.8496 0.9778
2.8301 4.7699 0.8497 0.9778
2.6582 4.8681 0.8497 0.9778
2.4828 4.9600 0.8497 0.9778
2.3043 5.0457 0.8498 0.9778
4.9707 4.3071 0.8565 0.9738
4.7756 4.4462 0.8497 0.9740
4.6142 4.6142 0.8498 0.9740
4.4470 4.7764 0.8498 0.9740
4.2740 4.9325 0.8499 0.9740
3.4257 4.5761 0.7444 0.9772
3.1982 4.6063 0.7302 0.9776
2.9622 4.6092 0.7135 0.9781
2.9226 5.8386 0.8502 0.9740
2.4988 6.0327 0.8503 0.9740
5.2549 4.5534 0.7467 0.9724
4.9244 4.5848 0.7225 0.9733
4.5890 4.5890 0.6969 0.9742
4.2761 4.5929 0.6739 0.9751
3.9596 4.5695 0.6493 0.9760
3.7344 4.6341 0.6391 0.9763
2.4627 4.5100 0.5518 0.9795
5.7434 4.6283 0.6244 0.9708
5.4711 5.8764 0.6797 0.9683
2.5314 5.0570 0.4787 0.9776
2.4530 5.9220 0.5426 0.9746
5.8616 5.8616 0.5140 0.9673
4.7429 5.8855 0.4687 0.9702
4.4256 5.9118 0.4579 0.9708
3.5144 5.9232 0.4271 0.9728
3.2362 5.9267 0.4187 0.9733
2.5314 5.0570 0.3507 0.9776
2.4530 5.9220 0.3975 0.9746
5.7427 4.9761 0.2996 0.9700
5.7474 5.3510 0.3096 0.9691
5.7524 5.7524 0.3208 0.9680
2.5064 5.0071 0.2208 0.9778
2.4530 5.9220 0.2528 0.9747
5.8000 5.4000 0.1339 0.9688
4.4257 5.9120 0.1247 0.9709
3.8044 5.9198 0.1189 0.9722
2.5315 5.0572 0.0955 0.9776
2.4530 5.9221 0.1083 0.9747
5.8000 5.4000 -0.0446 0.9688
5.7524 5.7524 -0.0458 0.9680
4.7431 5.8858 -0.0426 0.9702
3.8045 5.9199 -0.0396 0.9722
3.5146 5.9235 -0.0388 0.9728
3.2363 5.9269 -0.0380 0.9733
2.5315 5.0572 -0.0318 0.9776
2.4917 5.4561 -0.0338 0.9763
5.8000 5.4000 -0.2231 0.9688
4.7432 5.8859 -0.2129 0.9702
4.4258 5.9122 -0.2080 0.9709
3.8045 5.9199 -0.1981 0.9722
3.5146 5.9235 -0.1939 0.9728
2.4917 5.4561 -0.1689 0.9763
5.7435 4.6284 -0.3741 0.9709
4.1077 5.9163 -0.3653 0.9716
3.5147 5.9236 -0.3493 0.9728
3.2364 5.9271 -0.3425 0.9733
2.4918 5.4562 -0.3042 0.9763
5.7435 4.6284 -0.5408 0.9708
5.7954 5.0217 -0.5623 0.9697
5.8001 5.4000 -0.5811 0.9687
5.7525 5.7525 -0.5965 0.9679
4.7433 5.8861 -0.5543 0.9701
4.4260 5.9124 -0.5415 0.9708
4.1078 5.9163 -0.5281 0.9715
3.5147 5.9237 -0.5050 0.9728
3.2365 5.9271 -0.4952 0.9733
2.4918 5.4562 -0.4398 0.9762
5.7435 4.6284 -0.7082 0.9708
5.7954 5.0217 -0.7362 0.9697
5.7525 5.7525 -0.7810 0.9678
4.4260 5.9125 -0.7091 0.9708
4.1079 5.9164 -0.6915 0.9715
3.2365 5.9272 -0.6484 0.9732
2.4531 5.9223 -0.6154 0.9746
5.7436 4.6284 -0.8762 0.9707
5.7954 5.0217 -0.9109 0.9696
5.8001 5.4001 -0.9414 0.9686
4.7435 5.8863 -0.8980 0.9700
3.2366 5.9273 -0.8022 0.9732
2.5317 5.0576 -0.6718 0.9775
2.4918 5.4563 -0.7125 0.9761
5.7954 5.0217 -1.0865 0.9695
5.7525 5.7525 -1.1527 0.9677
3.8048 5.9203 -0.9971 0.9720
3.2366 5.9274 -0.9569 0.9731
2.4531 5.9223 -0.9083 0.9744
-7.1004 6.6107 -1.3746 0.9616
-7.0903 5.7138 -1.2902 0.9639
-7.3804 5.1243 -1.2731 0.9644
-8.0002 5.1414 -1.3474 0.9623
5.7476 5.3512 -1.2937 0.9687
5.8617 5.8617 -1.3656 0.9670
4.7436 5.8864 -1.2454 0.9698
4.1080 5.9167 -1.1866 0.9712
3.5970 5.5970 -1.0960 0.9734
2.5317 5.0577 -0.9318 0.9773
2.4918 5.4563 -0.9882 0.9760
-7.1004 6.6107 -1.5982 0.9614
-7.0952 6.1480 -1.5466 0.9627
-7.0857 5.3043 -1.4581 0.9648
-7.4146 5.1481 -1.4870 0.9641
8.7844 4.3971 -1.8464 0.9608
8.4469 5.0118 -1.8461 0.9608
8.0667 5.6008 -1.8458 0.9608
7.8611 5.8847 -1.8457 0.9608
6.4281 7.4185 -1.8450 0.9608
4.3787 5.4336 -1.3117 0.9720
4.1309 5.5183 -1.2956 0.9723
3.7476 5.8313 -1.3029 0.9722
3.2367 5.9276 -1.2694 0.9729
2.5318 5.0578 -1.0631 0.9772
2.4918 5.4564 -1.1275 0.9759
3.4292 9.1939 -1.8444 0.9608
2.7645 9.4148 -1.8443 0.9609
1.7422 9.6563 -1.8443 0.9609
1.3964 9.7123 -1.8443 0.9609
1.0489 9.7561 -1.8443 0.9609
0.3502 9.8063 -1.8444 0.9608
-0.3502 9.8066 -1.8444 0.9608
-0.7001 9.7881 -1.8445 0.9608
-1.3966 9.7138 -1.8446 0.9608
-2.4273 9.5100 -1.8448 0.9608
-3.0998 9.3135 -1.8450 0.9608
-3.7568 9.0696 -1.8452 0.9608
-4.0783 8.9302 -1.8453 0.9608
-4.3947 8.7795 -1.8454 0.9608
-4.7056 8.6176 -1.8455 0.9608
-5.3091 8.2611 -1.8458 0.9608
-5.6010 8.0669 -1.8459 0.9608
-6.6941 7.1900 -1.8465 0.9608
-7.0071 6.5238 -1.7995 0.9618
-5.5810 4.8360 -1.3881 0.9704
-5.6823 4.5791 -1.3717 0.9707
-7.0857 5.3043 -1.6637 0.9646
9.4591 0.3378 -2.0007 0.9620
9.4092 1.0116 -2.0004 0.9620
9.3663 1.3467 -2.0002 0.9621
9.3114 1.6800 -2.0000 0.9621
8.7277 3.6151 -1.9969 0.9621
8.5720 3.9147 -1.9920 0.9622
8.0425 4.0258 -1.9011 0.9639
7.5127 4.4575 -1.8465 0.9649
7.3483 4.7225 -1.8464 0.9649
6.9918 5.2339 -1.8462 0.9649
5.8618 5.8618 -1.7523 0.9667
5.9497 6.3904 -1.8456 0.9649
5.7176 6.5984 -1.8455 0.9649
4.7438 5.8866 -1.5981 0.9696
5.2318 6.9889 -1.8454 0.9649
2.4707 5.4100 -1.2572 0.9760
2.7563 8.2814 -1.8449 0.9649
1.8552 8.5284 -1.8449 0.9649
1.5497 8.5892 -1.8449 0.9649
0.9330 8.6779 -1.8449 0.9649
0.0000 8.7283 -1.8450 0.9649
-0.9331 8.6789 -1.8451 0.9649
-2.1590 8.4588 -1.8454 0.9649
-2.4596 8.3767 -1.8454 0.9649
-3.0512 8.1806 -1.8456 0.9649
-3.3414 8.0669 -1.8457 0.9649
-3.6274 7.9429 -1.8458 0.9649
-4.1853 7.6648 -1.8460 0.9649
-4.4565 7.5110 -1.8461 0.9649
-5.2348 6.9929 -1.8465 0.9649
-6.1785 6.1785 -1.8470 0.9649
-5.5606 4.8183 -1.5553 0.9704
-5.6633 4.5638 -1.5374 0.9707
-6.9926 5.2346 -1.8464 0.9649
-7.1803 4.9853 -1.8477 0.9649
-7.6740 4.1903 -1.8482 0.9649
-8.0445 4.0268 -1.9016 0.9639
-8.8695 3.3081 -2.0010 0.9620
-9.0846 2.6675 -2.0014 0.9620
-9.1748 2.3417 -2.0016 0.9620
-9.3202 1.6816 -2.0019 0.9620
-9.4182 1.0125 -2.0023 0.9620
-9.4682 0.3382 -2.0027 0.9620
8.4247 1.2113 -2.0004 0.9656
8.3755 1.5111 -2.0002 0.9656
8.1641 2.3972 -1.9998 0.9656
8.0728 2.6869 -1.9996 0.9656
7.5932 3.8009 -1.9957 0.9657
7.4367 4.0608 -1.9914 0.9658
6.9558 4.1271 -1.9009 0.9673
6.4540 4.4811 -1.8466 0.9682
5.5544 5.5544 -1.8461 0.9682
5.1435 5.9360 -1.8460 0.9682
4.7438 5.8867 -1.7769 0.9694
4.7066 6.2873 -1.8458 0.9682
4.4790 6.4510 -1.8458 0.9682
4.2458 6.6066 -1.8457 0.9682
4.0072 6.7537 -1.8456 0.9682
3.7635 6.8922 -1.8456 0.9682
2.5318 5.0579 -1.3293 0.9770
2.4532 5.9225 -1.5066 0.9740
2.7440 7.3571 -1.8454 0.9683
2.4797 7.4502 -1.8454 0.9683
1.9418 7.6080 -1.8454 0.9683
1.3942 7.7271 -1.8454 0.9683
0.5602 7.8320 -1.8454 0.9683
0.2803 7.8471 -1.8454 0.9683
-0.2803 7.8473 -1.8455 0.9682
-0.8394 7.8077 -1.8456 0.9682
-1.1176 7.7730 -1.8456 0.9682
-2.7449 7.3593 -1.8460 0.9682
-3.7650 6.8951 -1.8464 0.9682
-4.0089 6.7567 -1.8465 0.9682
-5.5578 5.5578 -1.8473 0.9682
-5.7530 5.3562 -1.8474 0.9682
-5.6387 4.5439 -1.7020 0.9707
-6.2940 4.7116 -1.8478 0.9682
-6.4586 4.4843 -1.8479 0.9682
-6.6151 4.2512 -1.8481 0.9682
-7.7437 3.5364 -2.0008 0.9656
-7.9776 2.9755 -2.0011 0.9656
-8.0794 2.6891 -2.0013 0.9656
-8.1709 2.3992 -2.0014 0.9656
-8.2520 2.1062 -2.0016 0.9656
-8.4320 1.2123 -2.0021 0.9656
-8.4706 0.9107 -2.0023 0.9656
-8.5153 0.3041 -2.0026 0.9656
7.7287 -0.0000 -2.0011 0.9686
7.7232 0.2758 -2.0009 0.9686
7.6827 0.8260 -2.0007 0.9686
7.6031 1.3717 -2.0004 0.9686
7.5488 1.6421 -2.0002 0.9686
7.4114 2.1762 -2.0000 0.9686
7.3285 2.4392 -1.9998 0.9686
7.2363 2.6990 -1.9997 0.9686
7.1349 2.9554 -1.9996 0.9686
7.0244 3.2079 -1.9994 0.9686
6.9050 3.4564 -1.9993 0.9686
6.6264 3.9316 -1.9950 0.9687
6.4588 4.1508 -1.9879 0.9688
5.5536 4.4753 -1.8467 0.9710
5.2197 4.8597 -1.8465 0.9710
4.8593 5.2192 -1.8464 0.9710
4.4742 5.5522 -1.8462 0.9710
4.2731 5.7081 -1.8462 0.9710
4.0665 5.8568 -1.8461 0.9710
3.8547 5.9980 -1.8461 0.9710
3.6381 6.1317 -1.8460 0.9710
2.5319 5.0580 -1.4645 0.9769
2.9616 6.4850 -1.8459 0.9710
2.4532 5.9225 -1.6598 0.9739
2.4913 6.6795 -1.8458 0.9710
2.2513 6.7641 -1.8458 0.9710
2.0084 6.8401 -1.8458 0.9710
1.7630 6.9074 -1.8458 0.9710
1.0145 7.0563 -1.8458 0.9710
0.7620 7.0880 -1.8458 0.9710
0.5086 7.1107 -1.8458 0.9710
0.0000 7.1291 -1.8458 0.9710
-0.2544 7.1246 -1.8459 0.9710
-1.5156 6.9670 -1.8461 0.9710
-1.7633 6.9087 -1.8461 0.9710
-2.0089 6.8416 -1.8462 0.9710
-2.2519 6.7658 -1.8463 0.9710
-2.9626 6.4871 -1.8465 0.9710
-3.1923 6.3775 -1.8466 0.9710
-3.6395 6.1341 -1.8468 0.9710
-3.8563 6.0006 -1.8468 0.9710
-4.0683 5.8594 -1.8469 0.9710
-4.6721 5.3919 -1.8473 0.9710
-4.8619 5.2220 -1.8474 0.9709
-5.0455 5.0455 -1.8475 0.9709
-5.2227 4.8625 -1.8476 0.9709
-5.3932 4.6733 -1.8477 0.9709
-5.5570 4.4781 -1.8478 0.9709
-6.0367 4.1913 -1.9028 0.9701
-6.9099 3.4588 -2.0007 0.9686
-7.0295 3.2102 -2.0009 0.9686
-7.1401 2.9575 -2.0010 0.9686
-7.2416 2.7010 -2.0012 0.9686
-7.3340 2.4410 -2.0013 0.9686
-7.4170 2.1778 -2.0015 0.9686
-7.5546 1.6434 -2.0018 0.9686
-7.6090 1.3728 -2.0019 0.9686
-7.6887 0.8266 -2.0022 0.9686
-7.7139 0.5517 -2.0024 0.9686
7.0689 -0.0000 -2.0012 0.9710
7.0639 0.2523 -2.0010 0.9710
7.0500 0.5042 -2.0009 0.9710
7.0270 0.7555 -2.0008 0.9710
6.9543 1.2547 -2.0005 0.9711
6.9046 1.5020 -2.0004 0.9711
6.8462 1.7474 -2.0002 0.9711
6.7790 1.9905 -2.0001 0.9711
6.5263 2.7032 -1.9998 0.9711
6.1989 3.3848 -1.9994 0.9711
5.7875 4.0183 -1.9946 0.9711
5.6268 4.2122 -1.9898 0.9712
5.2757 4.2514 -1.9181 0.9722
4.9441 4.2841 -1.8520 0.9732
4.7746 4.4453 -1.8468 0.9732
4.6128 4.6127 -1.8467 0.9732
4.2716 4.9297 -1.8466 0.9732
3.9088 5.2215 -1.8465 0.9732
3.7198 5.3575 -1.8464 0.9732
3.5261 5.4867 -1.8464 0.9733
2.7092 5.9322 -1.8462 0.9733
2.0595 6.1876 -1.8461 0.9733
1.8373 6.2571 -1.8461 0.9733
1.3862 6.3722 -1.8461 0.9733
1.1579 6.4176 -1.8461 0.9733
0.2328 6.5172 -1.8462 0.9733
0.0000 6.5214 -1.8462 0.9733
-0.2328 6.5173 -1.8462 0.9733
-0.4653 6.5050 -1.8462 0.9733
-0.6971 6.4844 -1.8463 0.9733
-1.3864 6.3731 -1.8464 0.9733
-1.6130 6.3198 -1.8464 0.9732
-1.8376 6.2584 -1.8465 0.9732
-2.7100 5.9340 -1.8468 0.9732
-3.7213 5.3598 -1.8472 0.9732
-4.2736 4.9320 -1.8475 0.9732
-4.4471 4.7766 -1.8476 0.9732
-4.7771 4.4477 -1.8478 0.9732
-4.9401 4.2806 -1.8505 0.9732
-5.7905 4.0204 -1.9956 0.9711
-6.0775 3.6060 -2.0006 0.9710
-6.3201 3.1636 -2.0008 0.9710
-6.4294 2.9362 -2.0010 0.9710
-6.5306 2.7050 -2.0011 0.9710
-6.9095 1.5031 -2.0018 0.9710
-6.9592 1.2556 -2.0019 0.9710
-7.0001 1.0065 -2.0020 0.9710
-7.0320 0.7560 -2.0022 0.9710
-7.0690 0.2525 -2.0025 0.9710
6.5064 -0.0000 -2.0012 0.9731
6.4890 0.4641 -2.0010 0.9731
6.4679 0.6954 -2.0008 0.9731
6.4386 0.9257 -2.0007 0.9731
6.4010 1.1549 -2.0006 0.9731
6.3554 1.3825 -2.0005 0.9731
6.3016 1.6084 -2.0004 0.9731
6.2398 1.8321 -2.0003 0.9732
6.1701 2.0536 -2.0001 0.9732
6.0925 2.2724 -2.0000 0.9732
5.9143 2.7009 -1.9998 0.9732
5.8138 2.9102 -1.9997 0.9732
5.7060 3.1157 -1.9996 0.9732
5.5908 3.3172 -1.9995 0.9732
5.4686 3.5145 -1.9994 0.9732
5.3394 3.7072 -1.9993 0.9732
5.0494 4.0691 -1.9946 0.9732
4.8940 4.2407 -1.9918 0.9733
4.0917 4.3947 -1.8469 0.9752
3.9321 4.5378 -1.8468 0.9752
3.5981 4.8065 -1.8467 0.9752
2.4939 5.4608 -1.8465 0.9752
2.2973 5.5462 -1.8465 0.9752
1.6913 5.7599 -1.8464 0.9752
1.4846 5.8165 -1.8464 0.9752
1.0659 5.9076 -1.8464 0.9752
0.8543 5.9419 -1.8464 0.9752
0.6417 5.9686 -1.8464 0.9752
0.4283 5.9878 -1.8464 0.9752
0.2143 5.9993 -1.8464 0.9752
-0.4283 5.9881 -1.8465 0.9752
-0.6417 5.9691 -1.8465 0.9752
-0.8544 5.9425 -1.8466 0.9752
-1.4848 5.8175 -1.8467 0.9752
-1.6916 5.7609 -1.8468 0.9752
-2.6880 5.3700 -1.8471 0.9752
-3.2470 5.0525 -1.8473 0.9752
-3.4255 4.9336 -1.8474 0.9752
-4.0935 4.3967 -1.8477 0.9752
-4.5983 4.2812 -1.9324 0.9740
-4.8961 4.2425 -1.9927 0.9733
-5.0517 4.0709 -1.9955 0.9732
-5.2015 3.8938 -1.9985 0.9732
-5.5940 3.3191 -2.0007 0.9731
-5.7093 3.1175 -2.0008 0.9731
-6.0109 2.4898 -2.0012 0.9731
-6.0963 2.2738 -2.0013 0.9731
-6.2438 1.8333 -2.0015 0.9731
-6.3056 1.6094 -2.0017 0.9731
-6.4933 0.4644 -2.0023 0.9731
6.0164 0.2149 -2.0012 0.9749
6.0045 0.4294 -2.0010 0.9749
5.9850 0.6434 -2.0009 0.9749
5.8810 1.2793 -2.0006 0.9749
5.8313 1.4883 -2.0005 0.9750
5.6379 2.1028 -2.0002 0.9750
4.9411 3.4307 -1.9995 0.9750
4.8153 3.6047 -1.9995 0.9750
4.5415 3.9352 -1.9975 0.9750
4.2385 4.2385 -1.9925 0.9750
4.0160 4.3135 -1.9591 0.9755
3.3298 4.4480 -1.8469 0.9769
3.1688 4.5639 -1.8469 0.9769
2.8350 4.7781 -1.8468 0.9769
2.4868 4.9681 -1.8468 0.9769
2.3079 5.0536 -1.8467 0.9769
1.9414 5.2052 -1.8467 0.9769
1.7544 5.2711 -1.8467 0.9769
1.5651 5.3304 -1.8467 0.9769
1.1809 5.4284 -1.8466 0.9769
0.9864 5.4671 -1.8466 0.9769
0.7906 5.4988 -1.8466 0.9769
0.3963 5.5413 -1.8467 0.9769
0.0000 5.5555 -1.8467 0.9769
-0.1983 5.5520 -1.8467 0.9769
-0.9865 5.4677 -1.8468 0.9769
-1.1810 5.4291 -1.8469 0.9769
-2.4875 4.9694 -1.8473 0.9768
-3.1699 4.5655 -1.8475 0.9768
-3.3310 4.4497 -1.8476 0.9768
-3.5065 4.3513 -1.8576 0.9767
-3.7543 4.3327 -1.9057 0.9761
-4.2402 4.2402 -1.9933 0.9750
-4.3942 4.0912 -1.9957 0.9750
-4.5433 3.9368 -1.9983 0.9750
-4.6856 3.7759 -2.0003 0.9750
-4.9436 3.4324 -2.0005 0.9750
-5.0632 3.2540 -2.0006 0.9749
-5.1764 3.0713 -2.0008 0.9749
-5.4760 2.5008 -2.0011 0.9749
-5.5621 2.3039 -2.0012 0.9749
-5.7129 1.9014 -2.0014 0.9749
-5.8347 1.4892 -2.0017 0.9749
-5.8845 1.2801 -2.0018 0.9749
-5.9268 1.0693 -2.0019 0.9749
-5.9887 0.6438 -2.0021 0.9749
-6.0082 0.4297 -2.0023 0.9749
5.5925 0.1997 -2.0012 0.9765
5.5815 0.3992 -2.0011 0.9765
5.3675 1.5760 -2.0005 0.9765
5.3075 1.7665 -2.0004 0.9765
5.2409 1.9547 -2.0003 0.9765
5.0876 2.3234 -2.0001 0.9765
5.0012 2.5034 -2.0000 0.9765
4.8095 2.8536 -1.9999 0.9765
4.7044 3.0233 -1.9998 0.9765
4.5933 3.1892 -1.9997 0.9765
4.3537 3.5084 -1.9995 0.9765
4.2256 3.6615 -1.9995 0.9765
4.0921 3.8099 -1.9994 0.9765
3.9504 3.9504 -1.9978 0.9765
3.4909 4.3319 -1.9895 0.9766
3.2557 4.3491 -1.9428 0.9772
2.6355 4.4419 -1.8470 0.9783
2.1455 4.6980 -1.8469 0.9783
1.9764 4.7715 -1.8469 0.9783
1.6310 4.9002 -1.8469 0.9783
1.4550 4.9553 -1.8469 0.9783
0.9170 5.0824 -1.8469 0.9783
0.5521 5.1349 -1.8469 0.9783
0.3684 5.1514 -1.8469 0.9783
0.1843 5.1613 -1.8469 0.9783
0.0000 5.1646 -1.8469 0.9783
-0.7350 5.1123 -1.8470 0.9783
-1.0979 5.0470 -1.8471 0.9783
-1.4552 4.9561 -1.8472 0.9783
-1.8052 4.8399 -1.8473 0.9783
-1.9769 4.7725 -1.8473 0.9783
-2.3124 4.6196 -1.8474 0.9783
-2.6363 4.4432 -1.8476 0.9783
-3.2531 4.3457 -1.9412 0.9772
-3.4877 4.3280 -1.9877 0.9767
-4.0938 3.8114 -2.0002 0.9765
-4.2274 3.6631 -2.0003 0.9765
-4.3557 3.5100 -2.0004 0.9765
-4.5954 3.1907 -2.0006 0.9765
-4.7066 3.0248 -2.0007 0.9765
-4.8118 2.8550 -2.0008 0.9765
-4.9109 2.6815 -2.0009 0.9765
-5.0038 2.5047 -2.0010 0.9765
-5.0902 2.3246 -2.0011 0.9765
-5.2437 1.9558 -2.0014 0.9765
-5.4236 1.3843 -2.0017 0.9765
-5.4698 1.1899 -2.0018 0.9765
-5.5091 0.9939 -2.0019 0.9765
-5.5414 0.7967 -2.0020 0.9765
-5.5666 0.5985 -2.0021 0.9765
-5.5847 0.3994 -2.0022 0.9765
5.2225 0.0000 -2.0013 0.9779
5.2189 0.1864 -2.0012 0.9779
5.2086 0.3725 -2.0011 0.9779
5.1918 0.5582 -2.0010 0.9779
5.1683 0.7431 -2.0010 0.9779
5.0585 1.2911 -2.0007 0.9779
5.0090 1.4708 -2.0006 0.9779
4.9531 1.6485 -2.0005 0.9779
4.7479 2.1683 -2.0002 0.9779
4.6673 2.3363 -2.0001 0.9779
4.5807 2.5012 -2.0001 0.9779
3.9435 3.4171 -1.9996 0.9779
3.8189 3.5555 -1.9996 0.9779
3.6895 3.6894 -1.9995 0.9779
3.4150 3.9412 -1.9985 0.9779
2.8006 4.3579 -1.9852 0.9781
2.5942 4.3722 -1.9483 0.9785
2.3948 4.3857 -1.9149 0.9788
1.8445 4.4531 -1.8471 0.9796
1.3579 4.6246 -1.8471 0.9796
1.1920 4.6701 -1.8470 0.9796
1.0245 4.7097 -1.8470 0.9796
0.8558 4.7432 -1.8470 0.9796
0.3439 4.8076 -1.8471 0.9796
0.1721 4.8168 -1.8471 0.9796
0.0000 4.8199 -1.8471 0.9796
-0.1720 4.8169 -1.8471 0.9796
-0.3438 4.8078 -1.8471 0.9796
-0.5152 4.7925 -1.8472 0.9796
-0.6860 4.7711 -1.8472 0.9796
-0.8558 4.7437 -1.8472 0.9796
-1.1921 4.6707 -1.8473 0.9796
-1.3581 4.6253 -1.8473 0.9796
-1.6847 4.5168 -1.8474 0.9796
-1.8449 4.4540 -1.8475 0.9796
-2.3939 4.3841 -1.9142 0.9788
-3.1202 4.1681 -1.9953 0.9779
-3.5566 3.8201 -2.0002 0.9779
-4.0648 3.2756 -2.0005 0.9779
-4.1793 3.1286 -2.0006 0.9779
-4.4904 2.6643 -2.0009 0.9779
-4.5829 2.5024 -2.0010 0.9779
-4.6695 2.3374 -2.0011 0.9779
-4.8248 1.9985 -2.0013 0.9779
-4.9556 1.6494 -2.0015 0.9779
-5.1409 0.9275 -2.0019 0.9779
-5.2114 0.3727 -2.0022 0.9779
-5.2217 0.1865 -2.0023 0.9779
4.8901 -0.0000 -2.0014 0.9791
4.8867 0.1745 -2.0013 0.9791
4.8771 0.3488 -2.0012 0.9791
4.8614 0.5226 -2.0011 0.9791
4.8394 0.6958 -2.0010 0.9791
4.8113 0.8680 -2.0009 0.9791
4.7770 1.0392 -2.0008 0.9791
4.5797 1.7081 -2.0005 0.9791
4.5156 1.8704 -2.0004 0.9791
4.3704 2.1876 -2.0003 0.9791
4.2893 2.3421 -2.0002 0.9791
4.1110 2.6420 -2.0000 0.9791
3.8047 3.0660 -1.9998 0.9791
3.3292 3.5758 -1.9996 0.9791
3.1994 3.6923 -1.9996 0.9791
2.9275 3.9107 -1.9993 0.9791
2.6369 4.1031 -1.9962 0.9791
2.3342 4.2748 -1.9934 0.9792
2.0025 4.3849 -1.9729 0.9794
1.8197 4.3931 -1.9461 0.9797
1.6413 4.4006 -1.9223 0.9799
1.4670 4.4076 -1.9012 0.9801
1.2961 4.4140 -1.8828 0.9803
1.1281 4.4199 -1.8669 0.9805
0.9628 4.4260 -1.8538 0.9806
0.8014 4.4416 -1.8472 0.9807
0.4825 4.4875 -1.8472 0.9807
0.1611 4.5105 -1.8472 0.9807
-0.1611 4.5106 -1.8473 0.9807
-0.8014 4.4420 -1.8474 0.9807
-1.1279 4.4193 -1.8667 0.9805
-1.2958 4.4130 -1.8824 0.9803
-1.4665 4.4062 -1.9006 0.9801
-1.6407 4.3988 -1.9215 0.9799
-1.8188 4.3909 -1.9451 0.9797
-2.0013 4.3823 -1.9718 0.9794
-2.1792 4.3534 -1.9925 0.9792
-2.4875 4.1925 -1.9952 0.9792
-3.3304 3.5771 -2.0003 0.9791
-3.4560 3.4560 -2.0004 0.9791
-3.5773 3.3306 -2.0005 0.9791
-3.6941 3.2009 -2.0005 0.9791
-4.0156 2.7881 -2.0008 0.9791
-4.1128 2.6431 -2.0009 0.9791
-4.2912 2.3432 -2.0011 0.9791
-4.3723 2.1886 -2.0011 0.9791
-4.4478 2.0312 -2.0012 0.9791
-4.5818 1.7089 -2.0014 0.9791
-4.6401 1.5444 -2.0015 0.9791
-4.7793 1.0397 -2.0018 0.9791
-2.1703 0.3916 -0.9026 0.9905
-1.9308 0.0690 -0.7907 0.9917
4.5923 -0.0000 -2.0014 0.9802
4.5892 0.1639 -2.0013 0.9802
4.5654 0.4908 -2.0011 0.9802
4.5448 0.6534 -2.0011 0.9802
4.5184 0.8152 -2.0010 0.9802
4.4862 0.9759 -2.0009 0.9802
4.4048 1.2933 -2.0007 0.9802
4.3557 1.4497 -2.0007 0.9802
4.3010 1.6042 -2.0006 0.9802
4.2408 1.7566 -2.0005 0.9802
4.1753 1.9068 -2.0004 0.9802
4.1044 2.0545 -2.0004 0.9802
4.0283 2.1996 -2.0003 0.9802
3.9471 2.3419 -2.0002 0.9802
3.8609 2.4812 -2.0002 0.9802
3.4681 3.0051 -1.9999 0.9802
2.8790 3.5727 -1.9997 0.9802
2.7496 3.6730 -1.9996 0.9802
2.4805 3.8597 -1.9996 0.9802
2.0507 4.0968 -1.9967 0.9802
1.9021 4.1650 -1.9955 0.9802
1.7513 4.2281 -1.9945 0.9802
1.5985 4.2858 -1.9935 0.9802
1.1229 4.3993 -1.9788 0.9804
0.7956 4.4098 -1.9529 0.9806
0.6345 4.4132 -1.9431 0.9807
0.3158 4.4153 -1.9292 0.9809
0.1577 4.4158 -1.9257 0.9809
-0.3157 4.4146 -1.9289 0.9809
-0.4745 4.4133 -1.9345 0.9808
-0.6343 4.4117 -1.9425 0.9807
-0.9582 4.4046 -1.9645 0.9805
-1.2878 4.3859 -1.9921 0.9803
-1.4441 4.3389 -1.9929 0.9802
-1.7516 4.2287 -1.9948 0.9802
-1.9024 4.1657 -1.9959 0.9802
-2.0511 4.0975 -1.9970 0.9802
-2.4811 3.8607 -2.0001 0.9802
-2.6174 3.7698 -2.0001 0.9802
-2.8799 3.5737 -2.0002 0.9802
-3.1277 3.3594 -2.0004 0.9802
-3.2457 3.2457 -2.0005 0.9802
-3.7712 2.6184 -2.0009 0.9802
-3.8624 2.4822 -2.0009 0.9802
-4.1770 1.9076 -2.0013 0.9802
-1.5984 0.5962 -0.7435 0.9926
-1.5875 0.5284 -0.7292 0.9927
-1.5707 0.4612 -0.7134 0.9929
-1.5214 0.3309 -0.6786 0.9932
-1.5151 0.2178 -0.6671 0.9933
-1.5293 0.1094 -0.6682 0.9933
-1.5284 0.0546 -0.6665 0.9933
4.3209 0.1543 -2.0014 0.9811
4.2985 0.4621 -2.0012 0.9811
4.2543 0.7675 -2.0010 0.9811
4.2240 0.9189 -2.0010 0.9811
4.1011 1.3650 -2.0007 0.9811
3.9313 1.7953 -2.0005 0.9811
3.8646 1.9345 -2.0004 0.9811
3.7165 2.2051 -2.0003 0.9811
3.6353 2.3363 -2.0003 0.9811
3.5495 2.4644 -2.0002 0.9811
3.3644 2.7112 -2.0001 0.9811
3.2654 2.8295 -2.0000 0.9811
3.1623 2.9442 -2.0000 0.9811
2.9441 3.1621 -1.9999 0.9811
2.8292 3.2651 -1.9998 0.9811
2.7108 3.3640 -1.9998 0.9811
2.4639 3.5486 -1.9997 0.9811
2.3356 3.6342 -1.9997 0.9811
2.0703 3.7915 -1.9996 0.9811
1.7945 3.9294 -1.9996 0.9811
1.6524 3.9892 -1.9987 0.9811
1.5083 4.0439 -1.9978 0.9812
1.3624 4.0935 -1.9970 0.9812
1.2150 4.1379 -1.9963 0.9812
1.0662 4.1774 -1.9956 0.9812
0.7651 4.2407 -1.9947 0.9812
0.6132 4.2645 -1.9943 0.9812
0.4605 4.2830 -1.9940 0.9812
0.3073 4.2962 -1.9937 0.9812
0.0000 4.3068 -1.9936 0.9812
-0.4605 4.2832 -1.9940 0.9812
-0.6132 4.2647 -1.9944 0.9812
-0.7652 4.2410 -1.9948 0.9812
-0.9163 4.2120 -1.9953 0.9812
-1.0663 4.1778 -1.9958 0.9812
-1.5085 4.0444 -1.9981 0.9812
-1.9340 3.8637 -2.0000 0.9811
-2.0708 3.7923 -2.0001 0.9811
-2.3361 3.6351 -2.0002 0.9811
-2.8300 3.2660 -2.0004 0.9811
-2.9449 3.1630 -2.0005 0.9811
-3.0561 3.0560 -2.0005 0.9811
-3.1633 2.9451 -2.0006 0.9811
-3.2665 2.8304 -2.0007 0.9811
-3.5508 2.4653 -2.0009 0.9811
-3.6366 2.3371 -2.0010 0.9811
-3.8661 1.9352 -2.0012 0.9811
-1.3151 0.6006 -0.6692 0.9936
-1.3263 0.5494 -0.6645 0.9937
-1.3240 0.3888 -0.6388 0.9939
-1.3116 0.3348 -0.6266 0.9941
-1.3013 0.2831 -0.6164 0.9941
-1.3160 0.2374 -0.6190 0.9941
-1.3273 0.1908 -0.6207 0.9941
-1.3384 0.0957 -0.6211 0.9941
4.0775 0.1456 -2.0014 0.9820
4.0696 0.2910 -2.0013 0.9820
4.0381 0.5806 -2.0012 0.9820
3.9861 0.8671 -2.0010 0.9820
3.9138 1.1492 -2.0009 0.9820
3.8702 1.2881 -2.0008 0.9820
3.7682 1.5608 -2.0007 0.9820
3.7099 1.6943 -2.0006 0.9820
3.6470 1.8255 -2.0005 0.9820
3.4306 2.2047 -2.0003 0.9820
3.3496 2.3257 -2.0003 0.9820
3.1750 2.5586 -2.0002 0.9820
2.6700 3.0813 -2.0000 0.9820
2.5582 3.1746 -1.9999 0.9820
2.2041 3.4297 -1.9998 0.9820
2.0803 3.5061 -1.9998 0.9820
1.9538 3.5781 -1.9998 0.9820
1.6935 3.7083 -1.9997 0.9820
1.5601 3.7663 -1.9997 0.9820
1.2874 3.8680 -1.9997 0.9820
1.1485 3.9114 -1.9997 0.9820
0.7235 4.0099 -1.9987 0.9820
0.2905 4.0625 -1.9978 0.9820
0.1454 4.0700 -1.9977 0.9820
-0.1454 4.0700 -1.9977 0.9820
-0.4354 4.0501 -1.9981 0.9820
-0.5798 4.0326 -1.9984 0.9820
-1.0082 3.9503 -1.9998 0.9820
-1.2876 3.8685 -1.9999 0.9820
-1.5603 3.7669 -2.0000 0.9820
-1.8252 3.6462 -2.0001 0.9820
-2.0807 3.5069 -2.0002 0.9820
-2.2046 3.4305 -2.0003 0.9820
-2.8840 2.8840 -2.0006 0.9820
-2.9852 2.7793 -2.0007 0.9820
-3.0826 2.6710 -2.0008 0.9820
-3.1760 2.5594 -2.0008 0.9820
-3.2655 2.4445 -2.0009 0.9820
-3.4318 2.2055 -2.0010 0.9820
-3.5085 2.0817 -2.0011 0.9820
-1.1291 0.5652 -0.6194 0.9944
-1.1543 0.4305 -0.6043 0.9945
-1.1590 0.3403 -0.5925 0.9946
-1.1695 0.2544 -0.5871 0.9947
-1.1791 0.2127 -0.5877 0.9947
-1.1867 0.1706 -0.5881 0.9947
-1.1921 0.1281 -0.5881 0.9947
-1.1965 0.0427 -0.5873 0.9947
3.8581 -0.0000 -2.0015 0.9828
3.8555 0.1377 -2.0014 0.9828
3.8480 0.2752 -2.0013 0.9828
3.7691 0.8199 -2.0011 0.9828
3.6595 1.2180 -2.0009 0.9828
3.6136 1.3478 -2.0008 0.9828
3.5630 1.4758 -2.0007 0.9828
3.4485 1.7261 -2.0006 0.9828
3.1673 2.1991 -2.0004 0.9828
3.0022 2.4193 -2.0003 0.9828
2.9139 2.5249 -2.0002 0.9828
2.8219 2.6272 -2.0002 0.9828
2.7262 2.7262 -2.0001 0.9828
2.6271 2.8217 -2.0001 0.9828
2.5247 2.9136 -2.0001 0.9828
2.0842 3.2431 -1.9999 0.9828
1.9671 3.3154 -1.9999 0.9828
1.7255 3.4471 -1.9998 0.9828
1.6014 3.5065 -1.9998 0.9828
1.4752 3.5614 -1.9998 0.9828
1.2174 3.6575 -1.9998 0.9828
0.8194 3.7667 -1.9998 0.9828
0.5486 3.8155 -1.9998 0.9828
0.4121 3.8327 -1.9998 0.9828
0.2750 3.8450 -1.9998 0.9828
-0.0000 3.8548 -1.9998 0.9828
-0.1376 3.8524 -1.9998 0.9828
-0.5486 3.8157 -1.9999 0.9828
-0.8195 3.7670 -1.9999 0.9828
-1.0861 3.6990 -2.0000 0.9828
-1.2175 3.6580 -2.0000 0.9828
-1.4754 3.5619 -2.0001 0.9828
-1.6016 3.5071 -2.0002 0.9828
-1.8478 3.3840 -2.0002 0.9828
-2.0846 3.2438 -2.0003 0.9828
-2.1992 3.1674 -2.0004 0.9828
-2.3109 3.0869 -2.0005 0.9828
-2.5253 2.9144 -2.0006 0.9828
-2.8227 2.6280 -2.0008 0.9828
-2.9148 2.5256 -2.0008 0.9828
-3.0877 2.3114 -2.0009 0.9828
-0.9917 0.5884 -0.5982 0.9948
-1.0430 0.4763 -0.5948 0.9948
-1.0576 0.3945 -0.5856 0.9949
-1.0636 0.3123 -0.5751 0.9950
-1.0974 0.1578 -0.5752 0.9950
-1.1055 0.0791 -0.5750 0.9950
-1.1066 0.0395 -0.5744 0.9950
3.6544 -0.0000 -2.0015 0.9835
3.6448 0.2607 -2.0014 0.9835
3.6331 0.3906 -2.0013 0.9835
3.6167 0.5200 -2.0012 0.9835
3.5701 0.7766 -2.0011 0.9835
3.4228 1.2766 -2.0008 0.9835
3.3228 1.5175 -2.0007 0.9835
3.2664 1.6351 -2.0007 0.9835
3.2059 1.7506 -2.0006 0.9835
3.0727 1.9747 -2.0005 0.9835
3.0002 2.0831 -2.0005 0.9835
2.8438 2.2917 -2.0004 0.9835
2.7601 2.3917 -2.0003 0.9835
2.6729 2.4886 -2.0003 0.9835
2.2914 2.8434 -2.0001 0.9835
2.1884 2.9234 -2.0001 0.9835
2.0827 2.9996 -2.0001 0.9835
1.5169 3.3215 -1.9999 0.9835
1.2761 3.4212 -1.9999 0.9835
1.1531 3.4646 -1.9999 0.9835
1.0287 3.5035 -1.9999 0.9835
0.5197 3.6142 -1.9999 0.9835
0.2605 3.6421 -1.9999 0.9835
0.1303 3.6491 -1.9999 0.9835
-0.1303 3.6492 -1.9999 0.9835
-0.3903 3.6306 -2.0000 0.9835
-0.5197 3.6144 -2.0000 0.9835
-0.9031 3.5383 -2.0001 0.9835
-1.0288 3.5039 -2.0001 0.9835
-1.2762 3.4217 -2.0002 0.9835
-1.3975 3.3740 -2.0002 0.9835
-1.6348 3.2658 -2.0003 0.9835
-1.7503 3.2055 -2.0003 0.9835
-1.9746 3.0726 -2.0004 0.9835
-2.1889 2.9240 -2.0005 0.9835
-2.2919 2.8441 -2.0006 0.9835
-2.4891 2.6735 -2.0007 0.9835
-2.5831 2.5830 -2.0008 0.9835
-2.9247 2.1894 -2.0010 0.9835
-0.8661 0.6013 -0.5775 0.9952
-0.8882 0.5708 -0.5782 0.9952
-0.9269 0.5061 -0.5784 0.9952
-0.9434 0.4722 -0.5778 0.9952
-0.9580 0.4375 -0.5768 0.9952
-0.9785 0.3257 -0.5648 0.9953
-1.0039 0.2184 -0.5627 0.9953
-1.0124 0.1826 -0.5634 0.9953
-1.0190 0.1465 -0.5638 0.9953
-1.0276 0.0367 -0.5632 0.9953
2.0320 0.0726 -1.1739 0.9907
2.0359 0.1456 -1.1784 0.9906
2.0366 0.2190 -1.1826 0.9906
2.0153 0.3636 -1.1823 0.9906
1.9883 0.4325 -1.1748 0.9906
1.9616 0.5007 -1.1688 0.9907
1.9351 0.5682 -1.1644 0.9907
1.8620 0.7713 -1.1636 0.9907
1.8508 0.8452 -1.1747 0.9906
2.9801 1.7682 -2.0006 0.9841
2.9150 1.8734 -2.0006 0.9841
2.8462 1.9762 -2.0005 0.9841
2.6979 2.1741 -2.0004 0.9841
2.4499 2.4498 -2.0003 0.9841
2.3608 2.5357 -2.0003 0.9841
1.8729 2.9143 -2.0001 0.9841
1.4391 3.1511 -2.0000 0.9841
1.2106 3.2457 -2.0000 0.9841
1.0940 3.2868 -2.0000 0.9841
0.9760 3.3238 -2.0000 0.9841
0.7363 3.3849 -2.0000 0.9841
0.6151 3.4090 -2.0000 0.9841
0.3703 3.4442 -2.0000 0.9841
0.2471 3.4553 -2.0000 0.9841
-0.2471 3.4554 -2.0000 0.9841
-1.0941 3.2872 -2.0002 0.9841
-1.2107 3.2461 -2.0003 0.9841
-1.4393 3.1516 -2.0003 0.9841
-1.5509 3.0983 -2.0004 0.9841
-1.8733 2.9149 -2.0005 0.9841
-2.0766 2.7740 -2.0006 0.9841
-2.1743 2.6982 -2.0006 0.9841
-2.3614 2.5363 -2.0008 0.9841
-2.4505 2.4505 -2.0008 0.9841
-2.5365 2.3615 -2.0009 0.9841
-2.6192 2.2695 -2.0009 0.9841
-0.8008 0.5560 -0.5628 0.9955
-0.8364 0.4963 -0.5615 0.9955
-0.8534 0.4660 -0.5614 0.9955
-0.8823 0.4029 -0.5600 0.9955
-0.8941 0.3703 -0.5587 0.9955
-0.9151 0.2687 -0.5506 0.9956
-0.9259 0.2363 -0.5517 0.9956
-0.9353 0.2034 -0.5526 0.9956
-0.9492 0.1365 -0.5537 0.9956
-0.9538 0.1025 -0.5538 0.9956
-0.9575 0.0342 -0.5532 0.9956
