ply
format ascii 1.0
element vertex 728
property float32 x
property float32 y
property float32 z
property float32 I
end_header
-9.4728 0.0000 -2.0024 0.9620
-9.4669 -0.3381 -2.0024 0.9620
-9.4489 -0.6758 -2.0024 0.9620
-9.3230 -1.6821 -2.0025 0.9620
-9.1795 -2.3429 -2.0026 0.9620
-9.0902 -2.6691 -2.0026 0.9620
-8.7531 -3.6257 -2.0027 0.9620
-8.6183 -3.9358 -2.0027 0.9620
-8.3157 -4.5407 -2.0028 0.9620
-8.1484 -4.8347 -2.0028 0.9620
-7.9708 -5.1225 -2.0028 0.9620
-7.7829 -5.4038 -2.0028 0.9620
-7.5852 -5.6782 -2.0028 0.9620
-6.9349 -6.4566 -2.0029 0.9620
-6.7001 -6.7001 -2.0029 0.9620
-6.4567 -6.9350 -2.0029 0.9620
-5.9456 -7.3780 -2.0029 0.9620
-5.1229 -7.9713 -2.0029 0.9620
-4.8351 -8.1491 -2.0029 0.9620
-4.5412 -8.3165 -2.0029 0.9620
-3.3114 -8.8781 -2.0029 0.9620
-2.0141 -9.2589 -2.0029 0.9620
-1.6824 -9.3248 -2.0029 0.9620
-1.3485 -9.3789 -2.0029 0.9620
-1.0129 -9.4210 -2.0029 0.9620
-0.6760 -9.4511 -2.0029 0.9620
-0.3382 -9.4691 -2.0028 0.9620
0.3382 -9.4689 -2.0028 0.9620
2.0139 -9.2579 -2.0027 0.9620
2.3431 -9.1800 -2.0027 0.9620
2.6692 -9.0904 -2.0027 0.9620
3.3108 -8.8766 -2.0026 0.9620
4.2405 -8.4714 -2.0025 0.9620
5.4026 -7.7812 -2.0024 0.9620
5.6768 -7.5833 -2.0023 0.9620
5.9437 -7.3757 -2.0023 0.9620
6.2031 -7.1588 -2.0023 0.9620
7.5822 -5.6760 -2.0021 0.9620
8.3122 -4.5388 -2.0019 0.9620
8.4687 -4.2391 -2.0019 0.9620
8.6144 -3.9341 -2.0018 0.9620
8.8728 -3.3094 -2.0017 0.9620
8.9851 -2.9905 -2.0017 0.9620
9.1752 -2.3418 -2.0016 0.9620
9.2528 -2.0128 -2.0016 0.9620
9.3185 -1.6812 -2.0016 0.9620
9.4443 -0.6755 -2.0014 0.9620
9.4623 -0.3379 -2.0014 0.9620
-8.4712 -0.9108 -2.0024 0.9656
-8.3848 -1.5128 -2.0024 0.9656
-8.2558 -2.1072 -2.0025 0.9656
-8.1754 -2.4005 -2.0025 0.9656
-7.7509 -3.5397 -2.0026 0.9656
-7.6197 -3.8142 -2.0026 0.9656
-7.4788 -4.0837 -2.0027 0.9656
-7.1686 -4.6070 -2.0027 0.9656
-6.9996 -4.8599 -2.0027 0.9656
-6.4402 -5.5804 -2.0028 0.9656
-6.0257 -6.0257 -2.0028 0.9656
-5.8069 -6.2370 -2.0028 0.9656
-5.3472 -6.6354 -2.0028 0.9656
-4.6073 -7.1690 -2.0028 0.9656
-4.3485 -7.3289 -2.0028 0.9656
-4.0841 -7.4795 -2.0028 0.9656
-3.5401 -7.7518 -2.0028 0.9656
-2.9781 -7.9845 -2.0028 0.9656
-2.1075 -8.2571 -2.0028 0.9656
-1.8114 -8.3270 -2.0028 0.9656
-0.9109 -8.4728 -2.0028 0.9656
-0.6079 -8.4999 -2.0028 0.9656
0.3042 -8.5159 -2.0027 0.9656
0.6079 -8.4996 -2.0027 0.9656
0.9109 -8.4724 -2.0027 0.9656
1.2127 -8.4344 -2.0027 0.9656
1.8113 -8.3262 -2.0026 0.9656
2.1073 -8.2562 -2.0026 0.9656
2.4006 -8.1756 -2.0026 0.9656
2.6908 -8.0846 -2.0026 0.9656
3.2606 -7.8719 -2.0025 0.9656
3.8138 -7.6190 -2.0024 0.9656
4.6062 -7.1673 -2.0024 0.9656
4.8590 -6.9983 -2.0023 0.9656
5.1056 -6.8203 -2.0023 0.9656
5.3457 -6.6336 -2.0023 0.9656
5.5790 -6.4385 -2.0022 0.9656
6.0239 -6.0239 -2.0022 0.9656
6.2349 -5.8049 -2.0021 0.9656
6.6329 -5.3452 -2.0021 0.9656
6.8194 -5.1049 -2.0020 0.9656
6.9971 -4.8582 -2.0020 0.9656
7.3256 -4.3465 -2.0019 0.9656
7.6167 -3.8127 -2.0019 0.9656
7.8691 -3.2595 -2.0018 0.9656
7.9803 -2.9765 -2.0018 0.9656
8.3812 -1.5121 -2.0016 0.9656
8.4297 -1.2120 -2.0016 0.9656
8.4675 -0.9103 -2.0015 0.9656
8.4944 -0.6075 -2.0015 0.9656
8.5106 -0.3040 -2.0015 0.9656
-7.7332 -0.0000 -2.0023 0.9686
-7.7137 -0.5517 -2.0023 0.9686
-7.4937 -1.9126 -2.0024 0.9685
-7.0354 -3.2130 -2.0026 0.9685
-6.9163 -3.4621 -2.0026 0.9685
-6.7884 -3.7068 -2.0026 0.9685
-6.6518 -3.9467 -2.0026 0.9685
-6.5068 -4.1816 -2.0026 0.9685
-6.1920 -4.6352 -2.0027 0.9685
-5.6611 -5.2707 -2.0027 0.9685
-5.4694 -5.4694 -2.0027 0.9685
-5.2707 -5.6612 -2.0027 0.9685
-5.0653 -5.8457 -2.0027 0.9685
-4.8535 -6.0228 -2.0027 0.9685
-4.6354 -6.1922 -2.0027 0.9685
-3.9470 -6.6522 -2.0027 0.9685
-3.7070 -6.7889 -2.0027 0.9685
-3.4624 -6.9169 -2.0027 0.9685
-3.2133 -7.0361 -2.0027 0.9685
-2.7031 -7.2474 -2.0027 0.9685
-1.6442 -7.5582 -2.0027 0.9685
0.0000 -7.7347 -2.0027 0.9685
0.2761 -7.7297 -2.0026 0.9685
0.5518 -7.7149 -2.0026 0.9685
1.1007 -7.6557 -2.0026 0.9685
1.3733 -7.6115 -2.0026 0.9685
1.6441 -7.5576 -2.0026 0.9685
2.1790 -7.4209 -2.0025 0.9685
2.9596 -7.1452 -2.0024 0.9685
3.2127 -7.0349 -2.0024 0.9685
3.4617 -6.9157 -2.0024 0.9686
3.9462 -6.6509 -2.0023 0.9686
4.1810 -6.5057 -2.0023 0.9686
4.8523 -6.0213 -2.0022 0.9686
5.6594 -5.2691 -2.0021 0.9686
5.8438 -5.0637 -2.0021 0.9686
6.5046 -4.1802 -2.0020 0.9686
6.6495 -3.9453 -2.0019 0.9686
6.7860 -3.7054 -2.0019 0.9686
6.9138 -3.4608 -2.0019 0.9686
7.0328 -3.2118 -2.0018 0.9686
7.1429 -2.9587 -2.0018 0.9686
7.3355 -2.4415 -2.0017 0.9686
7.4179 -2.1781 -2.0017 0.9686
7.4908 -1.9119 -2.0017 0.9686
7.5541 -1.6433 -2.0016 0.9686
7.6078 -1.3726 -2.0016 0.9686
7.6519 -1.1002 -2.0016 0.9686
7.7106 -0.5515 -2.0015 0.9686
7.7253 -0.2759 -2.0015 0.9686
-7.0548 -0.5046 -2.0023 0.9710
-7.0010 -1.0066 -2.0023 0.9710
-6.9115 -1.5035 -2.0024 0.9710
-6.8536 -1.7493 -2.0024 0.9710
-6.7114 -2.2338 -2.0024 0.9710
-6.6275 -2.4719 -2.0025 0.9710
-6.5351 -2.7069 -2.0025 0.9710
-6.4344 -2.9385 -2.0025 0.9710
-6.3255 -3.1663 -2.0025 0.9710
-6.2085 -3.3901 -2.0025 0.9710
-5.6630 -4.2393 -2.0026 0.9710
-5.3462 -4.6325 -2.0026 0.9710
-4.8204 -5.1775 -2.0026 0.9710
-4.4388 -5.5083 -2.0027 0.9710
-4.2394 -5.6632 -2.0027 0.9710
-3.3903 -6.2089 -2.0027 0.9710
-1.7495 -6.8545 -2.0027 0.9710
-1.5037 -6.9125 -2.0026 0.9710
-1.0067 -7.0021 -2.0026 0.9710
-0.2525 -7.0695 -2.0026 0.9710
0.2525 -7.0694 -2.0026 0.9710
0.5046 -7.0558 -2.0026 0.9710
1.2559 -6.9613 -2.0025 0.9710
2.7068 -6.5348 -2.0024 0.9710
2.9383 -6.4340 -2.0024 0.9710
3.6091 -6.0828 -2.0023 0.9710
4.0338 -5.8097 -2.0022 0.9710
4.6315 -5.3450 -2.0022 0.9710
5.0009 -5.0009 -2.0021 0.9710
5.5066 -4.4375 -2.0020 0.9710
5.6613 -4.2380 -2.0020 0.9710
5.8089 -4.0332 -2.0020 0.9710
6.0817 -3.6084 -2.0019 0.9710
6.2065 -3.3890 -2.0019 0.9710
6.4323 -2.9375 -2.0018 0.9710
6.5329 -2.7060 -2.0018 0.9710
6.8511 -1.7486 -2.0017 0.9710
6.9091 -1.5030 -2.0017 0.9710
6.9582 -1.2554 -2.0016 0.9710
7.0657 -0.2524 -2.0015 0.9710
-6.5055 -0.2323 -2.0022 0.9731
-6.4065 -1.1559 -2.0023 0.9731
-6.3612 -1.3838 -2.0023 0.9731
-6.1770 -2.0559 -2.0024 0.9731
-6.0147 -2.4914 -2.0024 0.9731
-5.7141 -3.1201 -2.0025 0.9731
-5.5991 -3.3221 -2.0025 0.9731
-5.4770 -3.5199 -2.0025 0.9731
-5.2120 -3.9017 -2.0025 0.9731
-5.0695 -4.0852 -2.0025 0.9731
-4.7652 -4.4365 -2.0026 0.9731
-4.4366 -4.7652 -2.0026 0.9731
-4.2637 -4.9205 -2.0026 0.9731
-4.0854 -5.0696 -2.0026 0.9731
-3.7133 -5.3481 -2.0026 0.9731
-3.5200 -5.4773 -2.0026 0.9731
-3.1203 -5.7145 -2.0026 0.9731
-2.7047 -5.9225 -2.0026 0.9731
-1.8343 -6.2471 -2.0026 0.9731
-1.6102 -6.3086 -2.0026 0.9731
-1.1560 -6.4073 -2.0026 0.9731
-0.6960 -6.4734 -2.0026 0.9731
0.2324 -6.5064 -2.0025 0.9731
0.4645 -6.4939 -2.0025 0.9731
0.6959 -6.4732 -2.0025 0.9731
1.1560 -6.4070 -2.0025 0.9731
1.6100 -6.3081 -2.0024 0.9731
2.2750 -6.0996 -2.0024 0.9731
2.7043 -5.9217 -2.0023 0.9731
2.9139 -5.8213 -2.0023 0.9731
3.1198 -5.7136 -2.0023 0.9731
3.7126 -5.3471 -2.0022 0.9731
4.0845 -5.0685 -2.0022 0.9731
4.2628 -4.9195 -2.0021 0.9731
4.7640 -4.4354 -2.0021 0.9731
5.0682 -4.0842 -2.0020 0.9731
5.2106 -3.9006 -2.0020 0.9731
5.4755 -3.5189 -2.0019 0.9731
5.5975 -3.3212 -2.0019 0.9731
6.0978 -2.2744 -2.0018 0.9731
6.1751 -2.0553 -2.0018 0.9731
6.3058 -1.6095 -2.0017 0.9731
6.3591 -1.3833 -2.0017 0.9731
6.4703 -0.6956 -2.0016 0.9731
6.4909 -0.4642 -2.0016 0.9731
6.5033 -0.2323 -2.0015 0.9731
-6.0233 0.0000 -2.0022 0.9749
-5.9279 -1.0695 -2.0023 0.9749
-5.7156 -1.9023 -2.0024 0.9749
-5.4796 -2.5024 -2.0024 0.9749
-5.3868 -2.6964 -2.0024 0.9749
-5.2872 -2.8870 -2.0024 0.9749
-5.1808 -3.0739 -2.0024 0.9749
-5.0678 -3.2569 -2.0025 0.9749
-4.5528 -3.9450 -2.0025 0.9749
-3.9451 -4.5529 -2.0025 0.9749
-3.7801 -4.6908 -2.0025 0.9749
-3.4358 -4.9486 -2.0025 0.9749
-3.2570 -5.0680 -2.0025 0.9749
-3.0741 -5.1811 -2.0026 0.9749
-2.5026 -5.4800 -2.0026 0.9749
-1.9025 -5.7161 -2.0025 0.9749
-1.6973 -5.7804 -2.0025 0.9749
-1.2806 -5.8867 -2.0025 0.9749
-0.8573 -5.9630 -2.0025 0.9749
-0.6440 -5.9898 -2.0025 0.9749
-0.4298 -6.0089 -2.0025 0.9749
0.0000 -6.0242 -2.0025 0.9749
1.0696 -5.9283 -2.0024 0.9749
1.2805 -5.8863 -2.0024 0.9749
1.4897 -5.8368 -2.0024 0.9749
1.6971 -5.7799 -2.0024 0.9749
2.1051 -5.6440 -2.0023 0.9749
2.3052 -5.5652 -2.0023 0.9749
2.8868 -5.2867 -2.0023 0.9749
3.4353 -4.9477 -2.0022 0.9749
3.7794 -4.6899 -2.0021 0.9749
3.9443 -4.5520 -2.0021 0.9749
4.5518 -3.9441 -2.0020 0.9749
4.8214 -3.6093 -2.0020 0.9749
5.2858 -2.8862 -2.0019 0.9749
5.6424 -2.1045 -2.0018 0.9749
5.8348 -1.4893 -2.0017 0.9749
5.8842 -1.2800 -2.0017 0.9749
5.9261 -1.0692 -2.0017 0.9749
5.9871 -0.6437 -2.0016 0.9749
6.0062 -0.4296 -2.0016 0.9749
-5.5952 -0.1998 -2.0022 0.9765
-5.5420 -0.7968 -2.0022 0.9765
-5.4711 -1.1901 -2.0023 0.9765
-5.4252 -1.3847 -2.0023 0.9765
-5.3127 -1.7682 -2.0023 0.9765
-5.2462 -1.9568 -2.0023 0.9765
-5.1731 -2.1428 -2.0023 0.9765
-5.0071 -2.5064 -2.0024 0.9765
-4.7106 -3.0273 -2.0024 0.9765
-4.2319 -3.6669 -2.0025 0.9765
-4.0983 -3.8157 -2.0025 0.9765
-3.9595 -3.9595 -2.0025 0.9765
-3.8157 -4.0984 -2.0025 0.9765
-3.6670 -4.2320 -2.0025 0.9765
-3.5136 -4.3602 -2.0025 0.9765
-3.1936 -4.5997 -2.0025 0.9765
-2.8574 -4.8159 -2.0025 0.9765
-2.6837 -4.9148 -2.0025 0.9765
-2.5065 -5.0074 -2.0025 0.9765
-2.3262 -5.0937 -2.0025 0.9765
-2.1429 -5.1735 -2.0025 0.9765
-1.7684 -5.3131 -2.0025 0.9765
-1.5776 -5.3729 -2.0025 0.9765
-1.3848 -5.4257 -2.0025 0.9765
-0.9942 -5.5107 -2.0025 0.9765
-0.7969 -5.5426 -2.0025 0.9765
-0.3995 -5.5853 -2.0025 0.9765
-0.1999 -5.5960 -2.0024 0.9765
0.3995 -5.5852 -2.0024 0.9765
0.5986 -5.5674 -2.0024 0.9765
0.7969 -5.5424 -2.0024 0.9765
1.1902 -5.4714 -2.0024 0.9765
1.3847 -5.4254 -2.0023 0.9765
1.5775 -5.3724 -2.0023 0.9765
1.7682 -5.3127 -2.0023 0.9765
1.9567 -5.2461 -2.0023 0.9765
2.1427 -5.1729 -2.0023 0.9765
2.3259 -5.0931 -2.0023 0.9765
2.5062 -5.0068 -2.0022 0.9765
3.3552 -4.4820 -2.0021 0.9765
3.5130 -4.3594 -2.0021 0.9765
3.6663 -4.2312 -2.0021 0.9765
3.8150 -4.0975 -2.0021 0.9765
3.9588 -3.9587 -2.0021 0.9765
4.0975 -3.8149 -2.0020 0.9765
4.2310 -3.6662 -2.0020 0.9765
4.3591 -3.5128 -2.0020 0.9765
4.4816 -3.3549 -2.0020 0.9765
4.5985 -3.1928 -2.0020 0.9765
4.9132 -2.6828 -2.0019 0.9765
5.0058 -2.5057 -2.0019 0.9765
5.0920 -2.3254 -2.0018 0.9765
5.3112 -1.7678 -2.0018 0.9765
5.4237 -1.3843 -2.0017 0.9765
5.4696 -1.1898 -2.0017 0.9765
5.5085 -0.9939 -2.0017 0.9765
5.5404 -0.7966 -2.0017 0.9765
5.5652 -0.5983 -2.0016 0.9765
5.5936 -0.1998 -2.0016 0.9765
-5.2245 0.0000 -2.0021 0.9779
-5.2113 -0.3727 -2.0022 0.9779
-5.1417 -0.9277 -2.0022 0.9779
-4.9575 -1.6500 -2.0023 0.9779
-4.8955 -1.8259 -2.0023 0.9779
-4.8273 -1.9995 -2.0023 0.9779
-4.7529 -2.1705 -2.0023 0.9779
-4.4937 -2.6662 -2.0024 0.9779
-4.3957 -2.8249 -2.0024 0.9779
-3.8244 -3.5606 -2.0024 0.9779
-3.5606 -3.8244 -2.0024 0.9779
-3.4219 -3.9490 -2.0024 0.9779
-2.6663 -4.4939 -2.0025 0.9779
-1.1107 -5.1059 -2.0024 0.9779
-0.3728 -5.2119 -2.0024 0.9779
-0.1865 -5.2219 -2.0024 0.9779
0.0000 -5.2252 -2.0024 0.9779
0.1865 -5.2219 -2.0024 0.9779
1.1107 -5.1056 -2.0023 0.9779
1.2922 -5.0627 -2.0023 0.9779
1.4720 -5.0133 -2.0023 0.9779
1.8259 -4.8954 -2.0023 0.9779
2.1705 -4.7526 -2.0022 0.9779
2.5039 -4.5856 -2.0022 0.9779
3.1309 -4.1824 -2.0021 0.9779
3.5600 -3.8237 -2.0021 0.9779
3.6941 -3.6942 -2.0020 0.9779
3.8236 -3.5599 -2.0020 0.9779
4.0677 -3.2780 -2.0020 0.9779
4.1821 -3.1307 -2.0020 0.9779
4.2911 -2.9794 -2.0019 0.9779
4.4926 -2.6656 -2.0019 0.9779
4.5849 -2.5035 -2.0019 0.9779
4.6713 -2.3383 -2.0019 0.9779
4.8261 -1.9990 -2.0018 0.9779
4.8943 -1.8255 -2.0018 0.9779
4.9563 -1.6496 -2.0018 0.9779
5.0120 -1.4716 -2.0018 0.9779
5.0612 -1.2918 -2.0017 0.9779
5.1041 -1.1103 -2.0017 0.9779
5.2198 -0.1864 -2.0016 0.9779
-1.8977 0.0000 -0.7767 0.9918
-1.9449 -0.2796 -0.8042 0.9915
-4.7803 -1.0399 -2.0022 0.9791
-4.5838 -1.7096 -2.0023 0.9791
-4.4502 -2.0323 -2.0023 0.9791
-4.3748 -2.1899 -2.0023 0.9791
-4.2939 -2.3446 -2.0023 0.9791
-4.1158 -2.6450 -2.0023 0.9791
-3.5808 -3.3338 -2.0024 0.9791
-3.2040 -3.6976 -2.0024 0.9791
-2.9320 -3.9167 -2.0024 0.9791
-2.6452 -4.1159 -2.0024 0.9791
-1.8723 -4.5202 -2.0024 0.9791
-1.7098 -4.5841 -2.0024 0.9791
-1.0400 -4.7807 -2.0024 0.9791
-0.3490 -4.8800 -2.0024 0.9791
-0.1746 -4.8894 -2.0024 0.9791
0.0000 -4.8925 -2.0024 0.9791
0.3490 -4.8799 -2.0023 0.9791
0.8687 -4.8146 -2.0023 0.9791
1.0399 -4.7805 -2.0023 0.9791
1.3783 -4.6941 -2.0023 0.9791
1.5450 -4.6418 -2.0023 0.9791
1.8721 -4.5197 -2.0022 0.9791
2.0323 -4.4500 -2.0022 0.9791
2.1898 -4.3746 -2.0022 0.9791
2.3445 -4.2936 -2.0022 0.9791
2.4962 -4.2071 -2.0022 0.9791
2.7900 -4.0183 -2.0021 0.9791
3.0695 -3.8089 -2.0021 0.9791
3.4589 -3.4589 -2.0020 0.9791
3.5802 -3.3332 -2.0020 0.9791
4.0179 -2.7897 -2.0019 0.9791
4.2066 -2.4959 -2.0019 0.9791
4.3739 -2.1894 -2.0019 0.9791
4.4492 -2.0319 -2.0018 0.9791
4.5188 -1.8717 -2.0018 0.9791
4.5827 -1.7093 -2.0018 0.9791
4.6408 -1.5446 -2.0018 0.9791
4.7791 -1.0396 -2.0017 0.9791
4.8628 -0.5228 -2.0017 0.9791
4.8783 -0.3489 -2.0016 0.9791
-1.5221 0.0000 -0.6634 0.9934
-1.5284 -0.0546 -0.6665 0.9933
-1.5249 -0.1639 -0.6684 0.9933
-1.5151 -0.2178 -0.6671 0.9933
-1.5707 -0.4612 -0.7134 0.9929
-1.5875 -0.5284 -0.7292 0.9927
-4.2445 -1.7581 -2.0023 0.9802
-4.0324 -2.2018 -2.0023 0.9802
-3.9512 -2.3444 -2.0023 0.9802
-3.4723 -3.0087 -2.0023 0.9802
-3.2488 -3.2488 -2.0024 0.9802
-3.1308 -3.3627 -2.0024 0.9802
-3.0088 -3.4723 -2.0024 0.9802
-2.8829 -3.5775 -2.0024 0.9802
-2.6204 -3.7741 -2.0024 0.9802
-2.4840 -3.8652 -2.0024 0.9802
-2.3445 -3.9514 -2.0024 0.9802
-2.2019 -4.0325 -2.0024 0.9802
-2.0566 -4.1086 -2.0024 0.9802
-1.9086 -4.1794 -2.0024 0.9802
-1.6056 -4.3049 -2.0024 0.9802
-1.4510 -4.3594 -2.0024 0.9802
-1.2944 -4.4084 -2.0024 0.9802
-0.4911 -4.5682 -2.0024 0.9802
-0.1640 -4.5915 -2.0023 0.9802
0.0000 -4.5944 -2.0023 0.9802
0.1640 -4.5915 -2.0023 0.9802
0.8157 -4.5213 -2.0023 0.9802
0.9766 -4.4893 -2.0023 0.9802
1.1362 -4.4516 -2.0023 0.9802
1.2943 -4.4081 -2.0022 0.9802
1.4508 -4.3591 -2.0022 0.9802
1.7581 -4.2444 -2.0022 0.9802
2.0564 -4.1081 -2.0022 0.9802
2.2017 -4.0321 -2.0022 0.9802
2.4837 -3.8647 -2.0021 0.9802
2.6200 -3.7736 -2.0021 0.9802
2.7530 -3.6776 -2.0021 0.9802
3.0083 -3.4718 -2.0021 0.9802
3.1303 -3.3622 -2.0020 0.9802
3.4717 -3.0082 -2.0020 0.9802
3.5768 -2.8824 -2.0020 0.9802
3.9504 -2.3439 -2.0019 0.9802
4.2436 -1.7578 -2.0018 0.9802
4.3036 -1.6052 -2.0018 0.9802
4.4071 -1.2940 -2.0018 0.9802
4.4504 -1.1359 -2.0017 0.9802
4.4881 -0.9763 -2.0017 0.9802
4.5200 -0.8155 -2.0017 0.9802
4.5462 -0.6537 -2.0017 0.9802
-1.3384 -0.0957 -0.6211 0.9941
-1.3351 -0.1436 -0.6215 0.9941
-1.3273 -0.1908 -0.6207 0.9941
-1.3160 -0.2374 -0.6190 0.9941
-1.3116 -0.3348 -0.6266 0.9941
-1.3240 -0.3888 -0.6388 0.9939
-1.3324 -0.4435 -0.6500 0.9938
-1.3324 -0.4969 -0.6582 0.9938
-3.8681 -1.9362 -2.0023 0.9811
-3.7965 -2.0730 -2.0023 0.9811
-3.6390 -2.3386 -2.0023 0.9811
-3.5532 -2.4670 -2.0023 0.9811
-3.3682 -2.7142 -2.0023 0.9811
-2.9477 -3.1660 -2.0023 0.9811
-2.8328 -3.2692 -2.0023 0.9811
-2.5924 -3.4630 -2.0024 0.9811
-2.3387 -3.6391 -2.0024 0.9811
-2.2073 -3.7203 -2.0024 0.9811
-1.9363 -3.8683 -2.0024 0.9811
-1.6554 -3.9965 -2.0024 0.9811
-1.5117 -4.0531 -2.0024 0.9811
-1.2187 -4.1506 -2.0023 0.9811
-1.0698 -4.1914 -2.0023 0.9811
-0.7681 -4.2570 -2.0023 0.9811
-0.4624 -4.3010 -2.0023 0.9811
-0.1544 -4.3230 -2.0023 0.9811
0.3086 -4.3146 -2.0023 0.9811
0.4624 -4.3009 -2.0023 0.9811
0.9195 -4.2267 -2.0022 0.9811
1.0697 -4.1912 -2.0022 0.9811
1.2187 -4.1503 -2.0022 0.9811
1.5116 -4.0528 -2.0022 0.9811
1.6553 -3.9962 -2.0022 0.9811
1.7969 -3.9346 -2.0022 0.9811
1.9361 -3.8679 -2.0022 0.9811
2.0729 -3.7963 -2.0021 0.9811
2.3384 -3.6387 -2.0021 0.9811
2.4668 -3.5529 -2.0021 0.9811
2.5920 -3.4625 -2.0021 0.9811
2.8324 -3.2687 -2.0021 0.9811
3.0583 -3.0583 -2.0020 0.9811
3.4623 -2.5918 -2.0019 0.9811
3.5526 -2.4666 -2.0019 0.9811
3.7194 -2.2068 -2.0019 0.9811
3.9955 -1.6550 -2.0018 0.9811
4.1494 -1.2184 -2.0018 0.9811
4.2557 -0.7678 -2.0017 0.9811
4.2804 -0.6154 -2.0017 0.9811
4.2996 -0.4622 -2.0017 0.9811
4.3133 -0.3085 -2.0017 0.9811
-1.1954 0.0000 -0.5864 0.9947
-1.1953 -0.0855 -0.5878 0.9947
-1.1695 -0.2544 -0.5871 0.9947
-1.1578 -0.2955 -0.5861 0.9947
-1.1590 -0.3403 -0.5925 0.9946
-1.1578 -0.3854 -0.5986 0.9946
-1.1543 -0.4306 -0.6043 0.9945
-1.1484 -0.4757 -0.6097 0.9945
-1.1291 -0.5652 -0.6194 0.9944
-3.5105 -2.0829 -2.0023 0.9820
-3.2677 -2.4462 -2.0023 0.9820
-3.1784 -2.5613 -2.0023 0.9820
-3.0849 -2.6731 -2.0023 0.9820
-2.9876 -2.7815 -2.0023 0.9820
-2.4462 -3.2678 -2.0023 0.9820
-2.3281 -3.3530 -2.0023 0.9820
-2.2069 -3.4340 -2.0023 0.9820
-2.0829 -3.5106 -2.0023 0.9820
-1.8272 -3.6503 -2.0023 0.9820
-1.6957 -3.7131 -2.0023 0.9820
-1.4265 -3.8246 -2.0023 0.9820
-1.2891 -3.8731 -2.0023 0.9820
-0.8677 -3.9887 -2.0023 0.9820
-0.7248 -4.0171 -2.0023 0.9820
-0.2912 -4.0716 -2.0023 0.9820
0.1457 -4.0793 -2.0023 0.9820
0.2912 -4.0715 -2.0023 0.9820
0.5809 -4.0403 -2.0022 0.9820
0.7248 -4.0170 -2.0022 0.9820
1.0095 -3.9550 -2.0022 0.9820
1.1500 -3.9164 -2.0022 0.9820
1.6956 -3.7128 -2.0022 0.9820
1.8270 -3.6499 -2.0021 0.9820
2.2067 -3.4336 -2.0021 0.9820
2.3278 -3.3527 -2.0021 0.9820
2.5610 -3.1780 -2.0021 0.9820
2.6728 -3.0845 -2.0020 0.9820
2.8860 -2.8860 -2.0020 0.9820
3.1779 -2.5609 -2.0020 0.9820
3.2672 -2.4458 -2.0019 0.9820
3.3524 -2.3276 -2.0019 0.9820
3.4333 -2.2064 -2.0019 0.9820
3.5098 -2.0825 -2.0019 0.9820
3.5819 -1.9559 -2.0019 0.9820
3.7122 -1.6953 -2.0018 0.9820
3.7704 -1.5617 -2.0018 0.9820
3.8237 -1.4261 -2.0018 0.9820
3.8721 -1.2888 -2.0018 0.9820
3.9156 -1.1497 -2.0018 0.9820
3.9541 -1.0092 -2.0018 0.9820
4.0160 -0.7246 -2.0017 0.9820
4.0574 -0.4362 -2.0017 0.9820
-1.1066 -0.0395 -0.5744 0.9950
-1.1024 -0.1185 -0.5752 0.9950
-1.0905 -0.1967 -0.5749 0.9950
-1.0704 -0.2732 -0.5731 0.9950
-1.0617 -0.3534 -0.5805 0.9950
-1.0430 -0.4763 -0.5948 0.9948
-3.1703 -2.2012 -2.0023 0.9828
-3.0897 -2.3130 -2.0023 0.9828
-3.0052 -2.4217 -2.0023 0.9828
-2.8248 -2.6300 -2.0023 0.9828
-2.7291 -2.7291 -2.0023 0.9828
-2.6300 -2.8248 -2.0023 0.9828
-2.5275 -2.9169 -2.0023 0.9828
-2.4218 -3.0053 -2.0023 0.9828
-2.3130 -3.0898 -2.0023 0.9828
-2.2012 -3.1704 -2.0023 0.9828
-1.9695 -3.3193 -2.0023 0.9828
-1.8497 -3.3875 -2.0023 0.9828
-1.7276 -3.4514 -2.0023 0.9828
-1.6033 -3.5108 -2.0023 0.9828
-1.4770 -3.5658 -2.0023 0.9828
-1.0874 -3.7033 -2.0023 0.9828
-0.9545 -3.7397 -2.0023 0.9828
-0.8204 -3.7714 -2.0023 0.9828
-0.6853 -3.7983 -2.0023 0.9828
-0.4126 -3.8375 -2.0023 0.9828
-0.2753 -3.8497 -2.0023 0.9828
0.0000 -3.8595 -2.0023 0.9828
0.5493 -3.8202 -2.0022 0.9828
1.0873 -3.7031 -2.0022 0.9828
1.2188 -3.6619 -2.0022 0.9828
1.3487 -3.6160 -2.0022 0.9828
1.4769 -3.5656 -2.0022 0.9828
1.6032 -3.5106 -2.0021 0.9828
1.8496 -3.3872 -2.0021 0.9828
2.3127 -3.0894 -2.0021 0.9828
2.4215 -3.0049 -2.0020 0.9828
2.5272 -2.9165 -2.0020 0.9828
2.6297 -2.8245 -2.0020 0.9828
2.7288 -2.7287 -2.0020 0.9828
2.8244 -2.6296 -2.0020 0.9828
2.9165 -2.5271 -2.0020 0.9828
3.0048 -2.4214 -2.0020 0.9828
3.1698 -2.2008 -2.0019 0.9828
3.3868 -1.8493 -2.0019 0.9828
3.4506 -1.7273 -2.0019 0.9828
3.6154 -1.3485 -2.0018 0.9828
3.6612 -1.2186 -2.0018 0.9828
3.7023 -1.0871 -2.0018 0.9828
3.7704 -0.8202 -2.0018 0.9828
3.8364 -0.4125 -2.0017 0.9828
-1.0269 0.0000 -0.5625 0.9953
-1.0276 -0.0367 -0.5632 0.9953
-1.0236 -0.1100 -0.5639 0.9953
-1.0190 -0.1465 -0.5638 0.9953
-1.0123 -0.1827 -0.5634 0.9953
-1.0039 -0.2184 -0.5627 0.9953
-0.9938 -0.2536 -0.5618 0.9953
-0.9820 -0.2883 -0.5606 0.9953
-0.9785 -0.3256 -0.5648 0.9953
-0.9741 -0.3633 -0.5694 0.9953
-0.9677 -0.4008 -0.5737 0.9952
-0.9580 -0.4375 -0.5768 0.9952
-0.8881 -0.5708 -0.5782 0.9952
-2.9265 -2.1908 -2.0022 0.9835
-2.8465 -2.2938 -2.0022 0.9835
-2.6756 -2.4911 -2.0023 0.9835
-2.5850 -2.5850 -2.0023 0.9835
-2.4911 -2.6756 -2.0023 0.9835
-2.2939 -2.8465 -2.0023 0.9835
-1.9764 -3.0754 -2.0023 0.9835
-1.8654 -3.1440 -2.0023 0.9835
-1.1545 -3.4687 -2.0023 0.9835
-0.9041 -3.5422 -2.0023 0.9835
-0.7771 -3.5722 -2.0023 0.9835
-0.6491 -3.5977 -2.0023 0.9835
-0.3908 -3.6348 -2.0023 0.9835
0.0000 -3.6557 -2.0022 0.9835
0.1305 -3.6534 -2.0022 0.9835
0.3908 -3.6347 -2.0022 0.9835
0.5203 -3.6184 -2.0022 0.9835
0.6491 -3.5975 -2.0022 0.9835
0.7771 -3.5720 -2.0022 0.9835
1.0299 -3.5075 -2.0022 0.9835
1.1544 -3.4685 -2.0022 0.9835
1.3989 -3.3772 -2.0021 0.9835
1.5185 -3.3252 -2.0021 0.9835
1.6363 -3.2688 -2.0021 0.9835
1.7519 -3.2083 -2.0021 0.9835
1.9763 -3.0751 -2.0021 0.9835
2.0847 -3.0026 -2.0021 0.9835
2.1906 -2.9263 -2.0020 0.9835
2.5847 -2.5846 -2.0020 0.9835
2.6752 -2.4907 -2.0020 0.9835
2.7624 -2.3936 -2.0020 0.9835
2.9261 -2.1904 -2.0019 0.9835
3.0024 -2.0846 -2.0019 0.9835
3.1434 -1.8651 -2.0019 0.9835
3.2080 -1.7517 -2.0019 0.9835
3.2684 -1.6360 -2.0019 0.9835
3.3247 -1.5183 -2.0018 0.9835
3.4679 -1.1542 -2.0018 0.9835
3.5413 -0.9038 -2.0018 0.9835
3.5713 -0.7769 -2.0018 0.9835
3.6338 -0.3907 -2.0017 0.9835
-0.9570 0.0000 -0.5525 0.9956
-0.9575 -0.0342 -0.5532 0.9956
-0.9564 -0.0684 -0.5536 0.9956
-0.9430 -0.1701 -0.5532 0.9956
-0.9352 -0.2034 -0.5526 0.9956
-0.8941 -0.3703 -0.5587 0.9955
-0.8687 -0.4349 -0.5609 0.9955
-0.8534 -0.4660 -0.5614 0.9955
-0.8364 -0.4963 -0.5615 0.9955
-0.8178 -0.5256 -0.5613 0.9955
-0.7845 -0.5873 -0.5658 0.9955
-0.7671 -0.6182 -0.5688 0.9955
-2.3631 -2.5382 -2.0022 0.9841
-2.1760 -2.7003 -2.0023 0.9841
-2.0783 -2.7763 -2.0023 0.9841
-1.8749 -2.9175 -2.0023 0.9841
-1.6620 -3.0438 -2.0023 0.9841
-1.4407 -3.1546 -2.0023 0.9841
-1.3271 -3.2040 -2.0023 0.9841
-1.2119 -3.2494 -2.0023 0.9841
-1.0952 -3.2905 -2.0023 0.9841
-0.7372 -3.3887 -2.0022 0.9841
-0.4935 -3.4327 -2.0022 0.9841
-0.3707 -3.4481 -2.0022 0.9841
-0.2474 -3.4591 -2.0022 0.9841
0.0000 -3.4679 -2.0022 0.9841
0.1238 -3.4657 -2.0022 0.9841
0.2474 -3.4591 -2.0022 0.9841
0.3707 -3.4480 -2.0022 0.9841
0.4935 -3.4326 -2.0022 0.9841
0.7371 -3.3886 -2.0022 0.9841
0.9770 -3.3274 -2.0022 0.9841
1.4406 -3.1544 -2.0021 0.9841
1.7695 -2.9822 -2.0021 0.9841
1.9777 -2.8484 -2.0021 0.9841
2.0781 -2.7760 -2.0020 0.9841
2.1758 -2.7000 -2.0020 0.9841
2.3629 -2.5379 -2.0020 0.9841
2.4519 -2.4519 -2.0020 0.9841
2.5379 -2.3628 -2.0020 0.9841
2.6206 -2.2707 -2.0020 0.9841
2.6999 -2.1757 -2.0019 0.9841
2.7758 -2.0780 -2.0019 0.9841
2.9170 -1.8746 -2.0019 0.9841
3.1006 -1.5520 -2.0019 0.9841
1.8508 -0.8452 -1.1747 0.9906
1.8620 -0.7713 -1.1636 0.9907
1.9033 -0.6335 -1.1581 0.9908
1.9351 -0.5682 -1.1644 0.9907
1.9616 -0.5007 -1.1688 0.9907
1.9883 -0.4325 -1.1748 0.9906
2.0301 -0.2919 -1.1841 0.9906
2.0359 -0.1456 -1.1784 0.9906
