ply
format ascii 1.0
element vertex 702
property float32 x
property float32 y
property float32 z
property float32 I
end_header
-6.7631 4.6957 -1.3564 0.9672
-6.6548 4.9817 -1.5625 0.9667
-6.7411 4.6804 -1.5425 0.9672
9.4637 0.3380 -2.0017 0.9620
9.4452 0.6755 -2.0016 0.9620
9.4148 1.0122 -2.0016 0.9620
9.3723 1.3475 -2.0015 0.9620
9.3179 1.6811 -2.0014 0.9620
9.1736 2.3414 -2.0013 0.9620
9.0838 2.6672 -2.0012 0.9620
8.9825 2.9896 -2.0011 0.9620
8.8698 3.3082 -2.0011 0.9620
8.7341 3.6178 -1.9983 0.9621
8.5794 3.9180 -1.9937 0.9622
8.0603 4.0347 -1.9053 0.9638
7.6759 4.1914 -1.8487 0.9649
7.5212 4.4626 -1.8486 0.9649
7.1833 4.9874 -1.8485 0.9649
7.0005 5.2405 -1.8485 0.9649
6.3996 5.9583 -1.8483 0.9649
6.1827 6.1828 -1.8483 0.9649
5.9580 6.3993 -1.8482 0.9649
5.4860 6.8078 -1.8481 0.9649
5.2394 6.9991 -1.8481 0.9649
4.9862 7.1815 -1.8480 0.9649
4.1897 7.6729 -1.8479 0.9649
3.9131 7.8174 -1.8479 0.9649
3.3454 8.0764 -1.8479 0.9649
3.0549 8.1906 -1.8478 0.9649
2.1618 8.4700 -1.8478 0.9649
1.8581 8.5417 -1.8478 0.9649
1.5520 8.6025 -1.8478 0.9649
1.2440 8.6524 -1.8477 0.9649
0.9344 8.6912 -1.8477 0.9649
0.6236 8.7190 -1.8477 0.9649
-0.3120 8.7357 -1.8477 0.9649
-0.6236 8.7191 -1.8477 0.9649
-1.5521 8.6026 -1.8478 0.9649
-2.1619 8.4701 -1.8478 0.9649
-2.4629 8.3876 -1.8478 0.9649
-2.7607 8.2945 -1.8479 0.9649
-3.3455 8.0766 -1.8479 0.9649
-3.6317 7.9522 -1.8479 0.9649
-3.9133 7.8177 -1.8480 0.9649
-5.9583 6.3996 -1.8483 0.9649
-6.1831 6.1830 -1.8483 0.9649
-6.6088 5.7265 -1.8484 0.9649
-6.8092 5.4871 -1.8485 0.9649
-6.7190 4.6651 -1.7290 0.9671
-7.3574 4.7283 -1.8487 0.9649
-7.5217 4.4628 -1.8487 0.9649
-7.6764 4.1916 -1.8488 0.9649
-8.5844 3.9204 -1.9948 0.9622
-8.7400 3.6202 -1.9997 0.9621
-9.0844 2.6674 -2.0013 0.9620
-9.3185 1.6812 -2.0015 0.9620
-9.3729 1.3476 -2.0016 0.9620
-9.4154 1.0122 -2.0017 0.9620
8.4951 0.6076 -2.0017 0.9656
8.4678 0.9104 -2.0016 0.9656
8.4296 1.2120 -2.0015 0.9656
8.3807 1.5120 -2.0015 0.9656
8.3211 1.8101 -2.0014 0.9656
8.2509 2.1059 -2.0013 0.9656
8.0792 2.6890 -2.0012 0.9656
7.9778 2.9755 -2.0011 0.9656
7.7447 3.5369 -2.0010 0.9656
7.6021 3.8053 -1.9980 0.9657
7.4462 4.0660 -1.9939 0.9657
7.0340 4.1735 -1.9222 0.9670
6.1242 4.9352 -1.8485 0.9682
5.9440 5.1505 -1.8485 0.9682
5.7563 5.3593 -1.8484 0.9682
5.3590 5.7560 -1.8484 0.9682
5.1501 5.9435 -1.8483 0.9682
4.9345 6.1234 -1.8483 0.9682
4.2515 6.6154 -1.8482 0.9682
4.0126 6.7628 -1.8481 0.9682
3.7686 6.9017 -1.8481 0.9682
3.5198 7.0317 -1.8481 0.9682
2.4831 7.4607 -1.8480 0.9682
1.6714 7.6832 -1.8480 0.9682
1.1190 7.7828 -1.8479 0.9682
0.5609 7.8427 -1.8479 0.9682
-0.8405 7.8178 -1.8479 0.9682
-1.3961 7.7380 -1.8480 0.9682
-2.7480 7.3675 -1.8481 0.9682
-3.0092 7.2648 -1.8481 0.9682
-3.2666 7.1529 -1.8481 0.9682
-3.5199 7.0318 -1.8481 0.9682
-3.7687 6.9018 -1.8482 0.9682
-4.2516 6.6156 -1.8482 0.9682
-4.4851 6.4598 -1.8483 0.9682
-4.7129 6.2957 -1.8483 0.9682
-5.1503 5.9437 -1.8484 0.9682
-5.5615 5.5614 -1.8485 0.9682
-5.7566 5.3595 -1.8485 0.9682
-6.6176 4.2528 -1.8488 0.9682
-7.0517 4.1840 -1.9271 0.9669
-7.7452 3.5371 -2.0011 0.9656
-7.8667 3.2585 -2.0012 0.9656
-7.9783 2.9757 -2.0013 0.9656
-8.0796 2.6891 -2.0013 0.9656
-8.1707 2.3991 -2.0014 0.9656
-8.2514 2.1060 -2.0014 0.9656
-8.3216 1.8102 -2.0015 0.9656
-8.3812 1.5121 -2.0016 0.9656
-8.4957 0.6076 -2.0018 0.9656
7.7314 -0.0000 -2.0018 0.9686
7.7262 0.2759 -2.0017 0.9686
7.6864 0.8264 -2.0016 0.9686
7.5533 1.6431 -2.0014 0.9686
7.4897 1.9116 -2.0014 0.9686
7.4165 2.1777 -2.0013 0.9686
6.6360 3.9373 -1.9979 0.9686
6.4797 4.1642 -1.9943 0.9687
6.1543 4.2730 -1.9399 0.9695
5.7791 4.3262 -1.8691 0.9706
4.8648 5.2251 -1.8485 0.9709
4.6751 5.3953 -1.8484 0.9709
4.0713 5.8639 -1.8483 0.9709
3.8594 6.0053 -1.8483 0.9709
3.6425 6.1392 -1.8483 0.9709
2.9653 6.4931 -1.8482 0.9709
2.7316 6.5947 -1.8482 0.9709
2.4945 6.6880 -1.8482 0.9709
2.0110 6.8488 -1.8481 0.9709
1.7652 6.9161 -1.8481 0.9709
1.2673 7.0244 -1.8481 0.9709
1.0158 7.0651 -1.8481 0.9709
0.7630 7.0968 -1.8481 0.9709
0.5092 7.1196 -1.8481 0.9709
0.2547 7.1332 -1.8481 0.9709
-0.0000 7.1377 -1.8481 0.9709
-0.2548 7.1332 -1.8481 0.9709
-0.7630 7.0969 -1.8481 0.9709
-1.0158 7.0652 -1.8481 0.9709
-2.4946 6.6881 -1.8482 0.9709
-2.7317 6.5949 -1.8482 0.9709
-2.9654 6.4933 -1.8482 0.9709
-3.4212 6.2654 -1.8483 0.9709
-3.8595 6.0055 -1.8484 0.9709
-4.0715 5.8640 -1.8484 0.9709
-4.8650 5.2254 -1.8485 0.9709
-5.3960 4.6757 -1.8487 0.9709
-6.6367 3.9377 -1.9980 0.9686
-6.9114 3.4596 -2.0011 0.9686
-7.0306 3.2108 -2.0012 0.9686
-7.1409 2.9578 -2.0013 0.9686
-7.2422 2.7012 -2.0013 0.9686
-7.4168 2.1778 -2.0014 0.9686
-7.4901 1.9117 -2.0015 0.9686
-7.5538 1.6432 -2.0015 0.9686
-7.6078 1.3726 -2.0016 0.9686
-7.6522 1.1002 -2.0017 0.9686
-7.7266 0.2759 -2.0018 0.9686
7.0711 -0.0000 -2.0018 0.9710
7.0665 0.2524 -2.0017 0.9710
7.0528 0.5044 -2.0017 0.9710
6.9579 1.2553 -2.0015 0.9710
6.9084 1.5028 -2.0015 0.9710
6.7077 2.2325 -2.0013 0.9710
6.5310 2.7052 -2.0012 0.9710
6.2039 3.3876 -2.0011 0.9710
5.9462 3.8214 -2.0010 0.9710
5.7973 4.0251 -1.9980 0.9711
5.3921 4.3452 -1.9604 0.9716
5.0636 4.3876 -1.8967 0.9725
4.7794 4.4498 -1.8486 0.9732
4.6174 4.6174 -1.8486 0.9732
4.2761 4.9349 -1.8485 0.9732
4.0972 5.0843 -1.8485 0.9732
3.9130 5.2272 -1.8485 0.9732
3.7239 5.3634 -1.8484 0.9732
3.3317 5.6153 -1.8484 0.9732
2.9225 5.8385 -1.8484 0.9732
2.4985 6.0320 -1.8483 0.9732
2.0618 6.1948 -1.8483 0.9732
1.8394 6.2644 -1.8483 0.9732
1.6146 6.3260 -1.8483 0.9732
1.1592 6.4250 -1.8482 0.9732
0.9291 6.4622 -1.8482 0.9732
0.4657 6.5120 -1.8482 0.9732
0.2330 6.5245 -1.8482 0.9732
-0.4658 6.5120 -1.8482 0.9732
-0.6979 6.4913 -1.8482 0.9732
-0.9292 6.4623 -1.8482 0.9732
-2.4986 6.0321 -1.8483 0.9732
-3.7240 5.3636 -1.8485 0.9732
-3.9132 5.2273 -1.8485 0.9732
-4.4498 4.7794 -1.8486 0.9732
-5.6406 4.2224 -1.9946 0.9711
-5.7969 4.0248 -1.9978 0.9711
-6.0792 3.6069 -2.0011 0.9710
-6.2042 3.3878 -2.0011 0.9710
-6.4304 2.9367 -2.0012 0.9710
-6.5313 2.7053 -2.0013 0.9710
-6.7836 1.9918 -2.0015 0.9710
-6.9088 1.5029 -2.0016 0.9710
-7.0668 0.2524 -2.0018 0.9710
6.5083 -0.0000 -2.0018 0.9731
6.5039 0.2323 -2.0018 0.9731
6.4414 0.9261 -2.0016 0.9731
6.3050 1.6092 -2.0015 0.9731
6.1738 2.0548 -2.0014 0.9731
5.9184 2.7028 -2.0012 0.9731
5.8180 2.9123 -2.0012 0.9731
5.7102 3.1180 -2.0011 0.9731
5.5952 3.3198 -2.0011 0.9731
5.2079 3.8986 -2.0010 0.9731
4.9033 4.2487 -1.9956 0.9732
3.9359 4.5422 -1.8486 0.9752
3.2492 5.0559 -1.8485 0.9752
2.1001 5.6306 -1.8484 0.9752
1.8978 5.7019 -1.8484 0.9752
1.2774 5.8720 -1.8484 0.9752
0.8552 5.9482 -1.8483 0.9752
0.6424 5.9749 -1.8483 0.9752
0.2145 6.0055 -1.8483 0.9752
-0.0000 6.0093 -1.8483 0.9752
-0.2145 6.0055 -1.8483 0.9752
-0.6424 5.9749 -1.8483 0.9752
-1.0670 5.9139 -1.8484 0.9752
-1.2774 5.8721 -1.8484 0.9752
-1.4862 5.8228 -1.8484 0.9752
-1.6931 5.7661 -1.8484 0.9752
-1.8978 5.7020 -1.8484 0.9752
-2.1002 5.6307 -1.8484 0.9752
-2.4966 5.4667 -1.8485 0.9752
-2.6901 5.3741 -1.8485 0.9752
-3.0667 5.1686 -1.8485 0.9752
-3.4278 4.9368 -1.8486 0.9752
-3.6018 4.8114 -1.8486 0.9752
-3.7713 4.6799 -1.8487 0.9752
-4.7018 4.3775 -1.9759 0.9735
-4.9024 4.2479 -1.9952 0.9732
-5.0578 4.0758 -1.9979 0.9732
-5.2075 3.8982 -2.0008 0.9731
-5.3441 3.7104 -2.0011 0.9731
-5.7105 3.1181 -2.0012 0.9731
-5.8183 2.9124 -2.0013 0.9731
-6.2437 1.8333 -2.0015 0.9731
-6.3053 1.6093 -2.0015 0.9731
-6.3589 1.3833 -2.0016 0.9731
-6.4044 1.1554 -2.0016 0.9731
-6.4417 0.9261 -2.0017 0.9731
6.0222 -0.0000 -2.0018 0.9749
5.9873 0.6437 -2.0017 0.9749
5.9258 1.0691 -2.0016 0.9749
5.8837 1.2799 -2.0015 0.9749
5.4765 2.5010 -2.0013 0.9749
5.1774 3.0719 -2.0011 0.9749
5.0644 3.2547 -2.0011 0.9749
4.8191 3.6075 -2.0010 0.9749
4.5493 3.9420 -2.0010 0.9749
4.4010 4.0975 -1.9988 0.9750
4.2469 4.2469 -1.9964 0.9750
3.0066 4.6784 -1.8486 0.9768
2.8377 4.7827 -1.8486 0.9768
2.4892 4.9729 -1.8485 0.9768
2.3101 5.0585 -1.8485 0.9768
1.9433 5.2103 -1.8485 0.9768
1.7561 5.2763 -1.8485 0.9768
1.5667 5.3356 -1.8485 0.9768
1.3752 5.3881 -1.8485 0.9768
1.1820 5.4337 -1.8485 0.9768
0.7914 5.5042 -1.8484 0.9768
0.5944 5.5289 -1.8484 0.9768
0.3967 5.5466 -1.8484 0.9768
0.1985 5.5572 -1.8484 0.9768
-0.3967 5.5466 -1.8484 0.9768
-0.5944 5.5289 -1.8484 0.9768
-0.7914 5.5042 -1.8485 0.9768
-0.9874 5.4725 -1.8485 0.9768
-1.1821 5.4338 -1.8485 0.9768
-1.3753 5.3882 -1.8485 0.9768
-1.7562 5.2764 -1.8485 0.9768
-1.9434 5.2104 -1.8485 0.9768
-2.1281 5.1378 -1.8485 0.9768
-2.4893 4.9729 -1.8486 0.9768
-2.8378 4.7828 -1.8486 0.9768
-3.0067 4.6785 -1.8486 0.9768
-3.8424 4.4343 -1.9504 0.9756
-4.0869 4.3896 -1.9937 0.9750
-4.2459 4.2459 -1.9960 0.9750
-4.5492 3.9418 -2.0009 0.9749
-4.6874 3.7773 -2.0011 0.9749
-4.8193 3.6077 -2.0011 0.9749
-4.9451 3.4334 -2.0011 0.9749
-5.2841 2.8853 -2.0013 0.9749
-5.5626 2.3041 -2.0014 0.9749
-5.7774 1.6964 -2.0015 0.9749
-5.8344 1.4891 -2.0016 0.9749
-5.8840 1.2800 -2.0016 0.9749
-5.9875 0.6437 -2.0017 0.9749
-6.0068 0.4296 -2.0018 0.9749
-6.0185 0.2149 -2.0018 0.9749
5.5978 -0.0000 -2.0018 0.9765
5.5941 0.1998 -2.0018 0.9765
5.5833 0.3993 -2.0017 0.9765
5.5653 0.5983 -2.0017 0.9765
5.5082 0.9938 -2.0016 0.9765
5.4691 1.1897 -2.0015 0.9765
5.2437 1.9558 -2.0014 0.9765
5.1705 2.1417 -2.0013 0.9765
4.8127 2.8555 -2.0012 0.9765
4.7076 3.0254 -2.0012 0.9765
4.4796 3.3534 -2.0011 0.9765
4.3570 3.5111 -2.0010 0.9765
4.0953 3.8129 -2.0010 0.9765
3.9565 3.9565 -2.0010 0.9765
3.6580 4.2215 -1.9976 0.9765
3.5016 4.3452 -1.9956 0.9766
3.1301 4.5082 -1.9626 0.9770
2.9083 4.5255 -1.9237 0.9774
2.3139 4.6226 -1.8486 0.9783
1.6324 4.9047 -1.8486 0.9783
0.3687 5.1559 -1.8485 0.9783
-0.0000 5.1691 -1.8485 0.9783
-0.1845 5.1658 -1.8485 0.9783
-0.3688 5.1560 -1.8485 0.9783
-0.5526 5.1395 -1.8485 0.9783
-1.4564 4.9599 -1.8486 0.9783
-1.8065 4.8434 -1.8486 0.9783
-1.9783 4.7759 -1.8486 0.9783
-2.1475 4.7023 -1.8486 0.9783
-2.4775 4.5372 -1.8487 0.9783
-2.6756 4.5094 -1.8751 0.9780
-3.3368 4.4574 -1.9911 0.9766
-3.6570 4.2204 -1.9970 0.9766
-3.8092 4.0913 -1.9991 0.9765
-3.9567 3.9566 -2.0010 0.9765
-4.2290 3.6644 -2.0011 0.9765
-4.4798 3.3535 -2.0011 0.9765
-4.5967 3.1915 -2.0012 0.9765
-5.0908 2.3249 -2.0014 0.9765
-5.1707 2.1417 -2.0014 0.9765
-5.3703 1.5769 -2.0015 0.9765
-5.5656 0.5983 -2.0018 0.9765
-5.5943 0.1998 -2.0018 0.9765
5.2237 -0.0000 -2.0018 0.9779
5.1701 0.7433 -2.0016 0.9779
5.1402 0.9274 -2.0016 0.9779
5.0607 1.2917 -2.0015 0.9779
5.0113 1.4714 -2.0015 0.9779
4.9555 1.6493 -2.0015 0.9779
4.8250 1.9986 -2.0014 0.9779
4.5835 2.5027 -2.0013 0.9779
4.4911 2.6647 -2.0012 0.9779
4.3931 2.8233 -2.0012 0.9779
4.0659 3.2765 -2.0011 0.9779
3.5580 3.8216 -2.0010 0.9779
3.2757 4.0649 -2.0006 0.9779
3.1258 4.1755 -1.9988 0.9779
2.9722 4.2808 -1.9971 0.9779
2.8153 4.3807 -1.9956 0.9779
2.4762 4.5348 -1.9800 0.9781
2.2770 4.5489 -1.9494 0.9784
1.1930 4.6741 -1.8486 0.9795
1.0254 4.7137 -1.8486 0.9795
0.8565 4.7472 -1.8486 0.9795
0.6865 4.7748 -1.8486 0.9795
0.5156 4.7962 -1.8486 0.9795
0.3441 4.8116 -1.8486 0.9795
-0.0000 4.8239 -1.8486 0.9795
-0.1722 4.8208 -1.8486 0.9795
-0.3441 4.8116 -1.8486 0.9795
-1.1930 4.6741 -1.8486 0.9795
-1.3591 4.6286 -1.8486 0.9795
-1.8809 4.5410 -1.8836 0.9792
-2.0682 4.5287 -1.9079 0.9789
-2.2604 4.5156 -1.9352 0.9786
-2.6545 4.4738 -1.9935 0.9780
-2.9715 4.2797 -1.9966 0.9779
-3.4194 3.9462 -2.0010 0.9779
-3.5581 3.8217 -2.0010 0.9779
-3.8218 3.5582 -2.0011 0.9779
-3.9465 3.4196 -2.0011 0.9779
-4.1805 3.1295 -2.0012 0.9779
-4.2896 2.9783 -2.0012 0.9779
-4.4913 2.6648 -2.0013 0.9779
-4.5836 2.5028 -2.0013 0.9779
-4.8935 1.8252 -2.0015 0.9779
-5.1039 1.1103 -2.0016 0.9779
-5.1404 0.9274 -2.0017 0.9779
-5.1703 0.7434 -2.0017 0.9779
-5.1936 0.5584 -2.0018 0.9779
4.8879 0.1746 -2.0018 0.9791
4.8628 0.5228 -2.0017 0.9791
4.8410 0.6960 -2.0017 0.9791
4.7788 1.0396 -2.0016 0.9791
4.3727 2.1888 -2.0013 0.9791
4.1135 2.6436 -2.0012 0.9791
4.0164 2.7887 -2.0012 0.9791
3.9143 2.9302 -2.0012 0.9791
3.8072 3.0680 -2.0012 0.9791
3.6952 3.2019 -2.0011 0.9791
3.5785 3.3317 -2.0011 0.9791
3.4573 3.4572 -2.0011 0.9791
3.3316 3.5784 -2.0010 0.9791
3.0677 3.8068 -2.0010 0.9791
2.6423 4.1115 -2.0003 0.9791
2.4921 4.2003 -1.9989 0.9791
2.0251 4.4343 -1.9951 0.9792
1.6986 4.5543 -1.9894 0.9792
0.6591 4.5843 -1.8956 0.9802
0.4930 4.5856 -1.8876 0.9803
0.3280 4.5863 -1.8819 0.9803
0.1638 4.5867 -1.8784 0.9804
-0.0000 4.5867 -1.8772 0.9804
-0.1638 4.5855 -1.8779 0.9804
-0.3277 4.5814 -1.8799 0.9803
-0.6574 4.5719 -1.8904 0.9802
-0.8239 4.5665 -1.8991 0.9801
-0.9921 4.5606 -1.9102 0.9800
-1.3352 4.5474 -1.9397 0.9797
-2.1828 4.3606 -1.9958 0.9791
-2.3385 4.2825 -1.9970 0.9791
-2.6416 4.1104 -1.9998 0.9791
-2.7884 4.0160 -2.0010 0.9791
-3.0679 3.8069 -2.0010 0.9791
-3.2018 3.6951 -2.0011 0.9791
-3.3317 3.5785 -2.0011 0.9791
-3.4573 3.4573 -2.0011 0.9791
-3.5786 3.3317 -2.0011 0.9791
-3.6953 3.2020 -2.0012 0.9791
-3.9144 2.9303 -2.0012 0.9791
-4.1136 2.6436 -2.0013 0.9791
-4.2054 2.4952 -2.0013 0.9791
-4.2919 2.3435 -2.0014 0.9791
-4.4483 2.0314 -2.0014 0.9791
-4.5181 1.8714 -2.0015 0.9791
-4.7387 1.2095 -2.0016 0.9791
-4.7790 1.0396 -2.0017 0.9791
-1.9449 0.2796 -0.8042 0.9915
-1.9569 0.2104 -0.8055 0.9915
-1.9524 0.1396 -0.8011 0.9916
-1.9308 0.0689 -0.7907 0.9917
4.5902 0.1639 -2.0018 0.9802
4.5667 0.4909 -2.0017 0.9802
4.5462 0.6536 -2.0017 0.9802
4.4878 0.9762 -2.0016 0.9802
4.4500 1.1358 -2.0016 0.9802
4.3575 1.4503 -2.0015 0.9802
4.2428 1.7574 -2.0014 0.9802
3.8630 2.4826 -2.0013 0.9802
3.7719 2.6189 -2.0012 0.9802
3.6760 2.7518 -2.0012 0.9802
3.3606 3.1289 -2.0011 0.9802
3.1288 3.3605 -2.0011 0.9802
2.8810 3.5751 -2.0010 0.9802
2.4823 3.8625 -2.0010 0.9802
2.3428 3.9486 -2.0010 0.9802
2.2003 4.0296 -2.0010 0.9802
2.0549 4.1053 -2.0008 0.9802
1.9060 4.1737 -1.9997 0.9802
1.6019 4.2948 -1.9977 0.9802
1.4469 4.3474 -1.9969 0.9802
1.1323 4.4364 -1.9954 0.9802
0.9729 4.4726 -1.9948 0.9802
0.8125 4.5033 -1.9943 0.9802
0.6511 4.5285 -1.9939 0.9802
-0.1630 4.5647 -1.9906 0.9803
-0.6510 4.5280 -1.9937 0.9802
-0.8124 4.5027 -1.9940 0.9802
-0.9728 4.4719 -1.9945 0.9802
-1.2902 4.3938 -1.9957 0.9802
-1.6016 4.2940 -1.9973 0.9802
-1.7546 4.2360 -1.9982 0.9802
-1.9056 4.1727 -1.9992 0.9802
-2.2004 4.0297 -2.0010 0.9802
-2.7516 3.6757 -2.0011 0.9802
-2.8811 3.5752 -2.0011 0.9802
-3.1289 3.3606 -2.0011 0.9802
-3.2469 3.2468 -2.0012 0.9802
-3.3607 3.1289 -2.0012 0.9802
-3.5755 2.8813 -2.0012 0.9802
-3.6761 2.7519 -2.0013 0.9802
-3.8632 2.4827 -2.0013 0.9802
-4.0306 2.2008 -2.0014 0.9802
-4.1066 2.0556 -2.0014 0.9802
-4.2429 1.7575 -2.0015 0.9802
-1.5984 0.5962 -0.7435 0.9926
-1.5485 0.3952 -0.6965 0.9931
-1.5214 0.3309 -0.6786 0.9932
-1.5002 0.2706 -0.6643 0.9934
-1.5151 0.2178 -0.6671 0.9933
4.2803 0.6154 -2.0017 0.9811
4.2556 0.7678 -2.0016 0.9811
4.1898 1.0694 -2.0016 0.9811
4.1027 1.3655 -2.0015 0.9811
4.0513 1.5110 -2.0015 0.9811
3.9947 1.6546 -2.0015 0.9811
3.8664 1.9354 -2.0014 0.9811
3.7948 2.0721 -2.0014 0.9811
3.7184 2.2062 -2.0013 0.9811
3.6372 2.3375 -2.0013 0.9811
3.5514 2.4658 -2.0013 0.9811
3.4611 2.5909 -2.0013 0.9811
3.3664 2.7128 -2.0012 0.9811
3.2674 2.8312 -2.0012 0.9811
3.1642 2.9459 -2.0012 0.9811
2.8310 3.2672 -2.0011 0.9811
2.7126 3.3661 -2.0011 0.9811
2.5907 3.4607 -2.0011 0.9811
2.3372 3.6367 -2.0010 0.9811
2.2058 3.7178 -2.0010 0.9811
1.5106 4.0502 -2.0010 0.9811
1.2175 4.1465 -2.0004 0.9811
0.9180 4.2202 -1.9992 0.9811
0.4614 4.2915 -1.9979 0.9812
0.1540 4.3127 -1.9976 0.9812
-0.9179 4.2196 -1.9989 0.9811
-1.0682 4.1852 -1.9994 0.9811
-2.0718 3.7942 -2.0010 0.9811
-2.3372 3.6368 -2.0011 0.9811
-2.4656 3.5510 -2.0011 0.9811
-2.7127 3.3662 -2.0011 0.9811
-3.0571 3.0570 -2.0012 0.9811
-3.2675 2.8312 -2.0013 0.9811
-3.3665 2.7128 -2.0013 0.9811
-3.4612 2.5910 -2.0013 0.9811
-3.5515 2.4658 -2.0013 0.9811
-3.6373 2.3375 -2.0014 0.9811
-3.7185 2.2063 -2.0014 0.9811
-3.7949 2.0721 -2.0014 0.9811
-1.3263 0.5493 -0.6645 0.9937
-1.3324 0.4969 -0.6582 0.9938
-1.3241 0.3888 -0.6388 0.9939
-1.3013 0.2830 -0.6164 0.9941
-1.3376 0.0478 -0.6195 0.9941
4.0783 0.1456 -2.0018 0.9820
4.0574 0.4362 -2.0017 0.9820
4.0158 0.7245 -2.0017 0.9820
3.9873 0.8674 -2.0016 0.9820
3.9538 1.0091 -2.0016 0.9820
3.9152 1.1496 -2.0016 0.9820
3.7697 1.5614 -2.0015 0.9820
3.7115 1.6950 -2.0015 0.9820
3.6486 1.8263 -2.0014 0.9820
3.5810 1.9554 -2.0014 0.9820
3.2661 2.4450 -2.0013 0.9820
2.8848 2.8848 -2.0012 0.9820
2.6716 3.0832 -2.0012 0.9820
2.5598 3.1765 -2.0011 0.9820
2.4448 3.2658 -2.0011 0.9820
2.2055 3.4319 -2.0011 0.9820
2.0816 3.5084 -2.0011 0.9820
1.6946 3.7107 -2.0010 0.9820
1.4256 3.8221 -2.0010 0.9820
1.2882 3.8705 -2.0010 0.9820
1.1493 3.9140 -2.0010 0.9820
0.8671 3.9860 -2.0010 0.9820
0.5805 4.0377 -2.0010 0.9820
-0.1456 4.0766 -2.0010 0.9820
-0.2910 4.0688 -2.0010 0.9820
-0.4361 4.0559 -2.0010 0.9820
-1.4256 3.8221 -2.0010 0.9820
-1.5611 3.7688 -2.0010 0.9820
-2.2056 3.4319 -2.0011 0.9820
-2.3267 3.3510 -2.0011 0.9820
-2.5599 3.1766 -2.0012 0.9820
-2.7800 2.9859 -2.0012 0.9820
-3.0834 2.6717 -2.0013 0.9820
-3.1768 2.5600 -2.0013 0.9820
-3.5090 2.0820 -2.0014 0.9820
-1.1113 0.6068 -0.6211 0.9944
-1.1292 0.5652 -0.6194 0.9944
-1.1400 0.5206 -0.6148 0.9944
-1.1544 0.4305 -0.6043 0.9945
-1.1578 0.2955 -0.5861 0.9947
-1.1695 0.2544 -0.5871 0.9947
-1.1791 0.2127 -0.5877 0.9947
-1.1867 0.1706 -0.5881 0.9947
-1.1953 0.0855 -0.5878 0.9947
-1.1965 0.0427 -0.5873 0.9947
3.8364 0.4125 -2.0017 0.9828
3.8192 0.5491 -2.0017 0.9828
3.7971 0.6851 -2.0017 0.9828
3.7702 0.8201 -2.0016 0.9828
3.7020 1.0870 -2.0016 0.9828
3.6607 1.2184 -2.0016 0.9828
3.2454 2.0857 -2.0014 0.9828
2.9154 2.5262 -2.0013 0.9828
2.8234 2.6286 -2.0013 0.9828
2.7277 2.7277 -2.0012 0.9828
2.4204 3.0036 -2.0012 0.9828
1.9683 3.3174 -2.0011 0.9828
1.3479 3.6140 -2.0010 0.9828
1.2181 3.6598 -2.0010 0.9828
1.0867 3.7009 -2.0010 0.9828
0.9539 3.7373 -2.0010 0.9828
0.8199 3.7690 -2.0010 0.9828
0.6848 3.7958 -2.0010 0.9828
0.4123 3.8350 -2.0010 0.9828
0.2751 3.8473 -2.0010 0.9828
0.1377 3.8547 -2.0010 0.9828
-0.0000 3.8571 -2.0010 0.9828
-0.4123 3.8350 -2.0010 0.9828
-0.5489 3.8179 -2.0010 0.9828
-1.2181 3.6598 -2.0011 0.9828
-1.7266 3.4493 -2.0011 0.9828
-1.8487 3.3855 -2.0011 0.9828
-2.2000 3.1686 -2.0012 0.9828
-2.3117 3.0881 -2.0012 0.9828
-2.9155 2.5263 -2.0013 0.9828
-3.0038 2.4206 -2.0013 0.9828
-3.0884 2.3119 -2.0014 0.9828
-3.1690 2.2002 -2.0014 0.9828
-3.2455 2.0857 -2.0014 0.9828
-1.0704 0.2732 -0.5731 0.9950
-1.0814 0.2352 -0.5741 0.9950
-1.1024 0.1185 -0.5752 0.9950
-1.1055 0.0790 -0.5750 0.9950
-1.1066 0.0395 -0.5744 0.9950
3.6549 -0.0000 -2.0018 0.9835
3.6338 0.3907 -2.0017 0.9835
3.6175 0.5201 -2.0017 0.9835
3.5966 0.6489 -2.0017 0.9835
3.5711 0.7768 -2.0017 0.9835
3.5065 1.0296 -2.0016 0.9835
3.4675 1.1541 -2.0016 0.9835
3.4240 1.2771 -2.0015 0.9835
3.0741 1.9756 -2.0014 0.9835
2.8452 2.2928 -2.0013 0.9835
2.7615 2.3928 -2.0013 0.9835
2.6743 2.4898 -2.0013 0.9835
2.3928 2.7614 -2.0012 0.9835
2.1896 2.9250 -2.0012 0.9835
1.8644 3.1422 -2.0011 0.9835
1.3982 3.3755 -2.0011 0.9835
1.0293 3.5055 -2.0011 0.9835
0.7766 3.5700 -2.0011 0.9835
0.6487 3.5955 -2.0011 0.9835
0.5199 3.6163 -2.0011 0.9835
0.2606 3.6442 -2.0010 0.9835
-0.1304 3.6512 -2.0010 0.9835
-0.3906 3.6326 -2.0011 0.9835
-0.7766 3.5701 -2.0011 0.9835
-1.0294 3.5056 -2.0011 0.9835
-1.8644 3.1423 -2.0012 0.9835
-1.9754 3.0737 -2.0012 0.9835
-2.1897 2.9250 -2.0012 0.9835
-2.2927 2.8450 -2.0012 0.9835
-2.5838 2.5838 -2.0013 0.9835
-2.6744 2.4899 -2.0013 0.9835
-2.7616 2.3929 -2.0013 0.9835
-0.8882 0.5708 -0.5782 0.9952
-0.9434 0.4722 -0.5778 0.9952
-0.9677 0.4008 -0.5737 0.9952
-0.9820 0.2883 -0.5606 0.9953
-1.0124 0.1826 -0.5634 0.9953
-1.0190 0.1465 -0.5638 0.9953
-1.0236 0.1100 -0.5639 0.9953
2.0300 0.2919 -1.1841 0.9906
2.0153 0.3636 -1.1823 0.9906
1.9883 0.4325 -1.1748 0.9906
1.9351 0.5682 -1.1644 0.9907
1.9033 0.6335 -1.1581 0.9908
1.8682 0.6968 -1.1512 0.9908
1.8620 0.7713 -1.1636 0.9907
3.0426 1.6614 -2.0015 0.9841
2.9162 1.8742 -2.0014 0.9841
2.8475 1.9770 -2.0014 0.9841
2.7750 2.0774 -2.0014 0.9841
2.6991 2.1751 -2.0014 0.9841
2.5370 2.3620 -2.0013 0.9841
2.4511 2.4511 -2.0013 0.9841
2.2699 2.6196 -2.0013 0.9841
2.1750 2.6989 -2.0012 0.9841
2.0772 2.7748 -2.0012 0.9841
1.7687 2.9809 -2.0012 0.9841
1.3264 3.2022 -2.0011 0.9841
1.0946 3.2887 -2.0011 0.9841
0.9765 3.3256 -2.0011 0.9841
0.8571 3.3583 -2.0011 0.9841
0.7367 3.3868 -2.0011 0.9841
0.6154 3.4109 -2.0011 0.9841
0.4932 3.4307 -2.0011 0.9841
0.1237 3.4638 -2.0011 0.9841
-0.0000 3.4660 -2.0011 0.9841
-0.2473 3.4571 -2.0011 0.9841
-0.7368 3.3868 -2.0011 0.9841
-0.8572 3.3584 -2.0011 0.9841
-1.4399 3.1529 -2.0012 0.9841
-1.5515 3.0995 -2.0012 0.9841
-1.6612 3.0422 -2.0012 0.9841
-1.9769 2.8472 -2.0012 0.9841
-2.2700 2.6197 -2.0013 0.9841
-2.4511 2.4511 -2.0013 0.9841
-0.8178 0.5255 -0.5613 0.9955
-0.8534 0.4660 -0.5614 0.9955
-0.8823 0.4029 -0.5600 0.9955
-0.8941 0.3703 -0.5587 0.9955
-0.9011 0.3361 -0.5553 0.9956
-0.9058 0.3014 -0.5511 0.9956
-0.9151 0.2687 -0.5506 0.9956
-0.9259 0.2363 -0.5517 0.9956
-0.9353 0.2035 -0.5526 0.9956
-0.9430 0.1701 -0.5532 0.9956
-0.9492 0.1365 -0.5536 0.9956
-0.9538 0.1025 -0.5538 0.9956
