ply
format ascii 1.0
element vertex 740
property float32 x
property float32 y
property float32 z
property float32 I
end_header
7.8354 5.4402 -1.3515 0.9622
7.7306 5.7871 -1.3683 0.9617
-8.8096 4.4098 -1.6230 0.9608
7.7047 5.3495 -1.7630 0.9625
7.6524 6.1667 -1.8472 0.9608
7.4272 6.4357 -1.8472 0.9608
6.6962 7.1922 -1.8471 0.9608
6.1658 7.6513 -1.8470 0.9608
5.8887 7.8663 -1.8470 0.9608
5.3123 8.2661 -1.8469 0.9608
5.0139 8.4504 -1.8469 0.9608
4.7090 8.6239 -1.8469 0.9608
4.0817 8.9377 -1.8468 0.9608
3.7601 9.0777 -1.8468 0.9608
3.4337 9.2061 -1.8468 0.9608
3.1029 9.3228 -1.8468 0.9608
2.0886 9.6012 -1.8468 0.9608
1.7446 9.6697 -1.8469 0.9608
1.3984 9.7258 -1.8469 0.9608
0.7010 9.8011 -1.8469 0.9608
0.0000 9.8265 -1.8470 0.9608
-0.3507 9.8204 -1.8470 0.9608
-0.7010 9.8018 -1.8471 0.9608
-1.7449 9.6714 -1.8472 0.9608
-2.0891 9.6032 -1.8473 0.9608
-8.7648 4.3873 -1.8423 0.9609
9.4597 0.3378 -2.0009 0.9620
9.4412 0.6752 -2.0008 0.9620
9.4106 1.0117 -2.0007 0.9620
9.3137 1.6804 -2.0005 0.9620
9.1693 2.3403 -2.0003 0.9620
8.7350 3.6182 -1.9985 0.9621
8.5795 3.9181 -1.9937 0.9622
7.3534 4.7257 -1.8477 0.9649
6.8055 5.4842 -1.8475 0.9649
6.6053 5.7235 -1.8475 0.9649
6.1799 6.1799 -1.8474 0.9649
5.7230 6.6047 -1.8473 0.9649
5.2371 6.9960 -1.8473 0.9649
4.4591 7.5154 -1.8472 0.9649
4.1880 7.6697 -1.8472 0.9649
3.9115 7.8142 -1.8472 0.9649
3.3441 8.0733 -1.8471 0.9649
2.7596 8.2913 -1.8471 0.9649
2.4619 8.3845 -1.8471 0.9649
1.8575 8.5389 -1.8472 0.9649
1.5516 8.5998 -1.8472 0.9649
-0.6235 8.7172 -1.8474 0.9649
-0.9342 8.6896 -1.8474 0.9649
-1.2438 8.6509 -1.8474 0.9649
-1.5518 8.6012 -1.8475 0.9649
-1.8579 8.5405 -1.8475 0.9649
-2.1616 8.4690 -1.8476 0.9649
-2.4626 8.3867 -1.8476 0.9649
-2.7604 8.2937 -1.8477 0.9649
-3.6315 7.9519 -1.8479 0.9649
-4.1898 7.6731 -1.8480 0.9649
-4.4612 7.5189 -1.8481 0.9649
-4.7269 7.3552 -1.8481 0.9649
-5.7265 6.6087 -1.8484 0.9649
-6.1839 6.1839 -1.8486 0.9649
-6.6099 5.7275 -1.8487 0.9649
-7.0023 5.2418 -1.8489 0.9649
-7.1852 4.9888 -1.8490 0.9649
-7.3591 4.7294 -1.8491 0.9649
-7.6832 4.1953 -1.8504 0.9648
-8.2324 4.1208 -1.9460 0.9631
-8.5918 3.9237 -1.9966 0.9621
-8.7477 3.6234 -2.0014 0.9620
-8.9861 2.9909 -2.0019 0.9620
-9.0876 2.6683 -2.0020 0.9620
-9.4193 1.0127 -2.0025 0.9620
-9.4498 0.6758 -2.0026 0.9620
-9.4684 0.3382 -2.0027 0.9620
8.5143 0.0000 -2.0011 0.9656
8.5085 0.3039 -2.0010 0.9656
8.4919 0.6074 -2.0009 0.9656
8.4645 0.9100 -2.0008 0.9656
8.4263 1.2115 -2.0007 0.9656
8.3773 1.5114 -2.0007 0.9656
8.3177 1.8094 -2.0006 0.9656
8.2475 2.1050 -2.0005 0.9656
8.0758 2.6879 -2.0004 0.9656
7.9744 2.9743 -2.0003 0.9656
7.4438 4.0646 -1.9933 0.9658
6.4583 4.4841 -1.8478 0.9682
6.2939 4.7116 -1.8478 0.9682
6.1216 4.9331 -1.8477 0.9682
5.9415 5.1483 -1.8477 0.9682
5.7538 5.3570 -1.8477 0.9682
4.9326 6.1209 -1.8475 0.9682
4.7109 6.2930 -1.8475 0.9682
4.4832 6.4570 -1.8475 0.9682
2.2146 7.5421 -1.8474 0.9682
1.3957 7.7357 -1.8474 0.9682
0.2806 7.8559 -1.8475 0.9682
-0.2806 7.8562 -1.8476 0.9682
-0.5608 7.8413 -1.8476 0.9682
-1.1188 7.7816 -1.8477 0.9682
-1.3959 7.7368 -1.8477 0.9682
-2.7477 7.3670 -1.8479 0.9682
-3.0090 7.2645 -1.8480 0.9682
-3.5198 7.0317 -1.8481 0.9682
-3.7687 6.9018 -1.8482 0.9682
-4.9351 6.1241 -1.8485 0.9682
-5.3598 5.7569 -1.8486 0.9682
-5.5621 5.5621 -1.8487 0.9682
-5.7573 5.3602 -1.8488 0.9682
-5.9452 5.1515 -1.8488 0.9682
-6.1256 4.9363 -1.8489 0.9682
-6.2981 4.7147 -1.8490 0.9682
-6.4626 4.4871 -1.8491 0.9682
-7.4531 4.0697 -1.9958 0.9657
-7.6098 3.8092 -2.0000 0.9656
-7.9806 2.9766 -2.0018 0.9656
-8.1733 2.3999 -2.0020 0.9656
-8.3244 1.8108 -2.0022 0.9656
-8.3841 1.5126 -2.0023 0.9656
-8.5155 0.3041 -2.0026 0.9656
7.7288 0.0000 -2.0011 0.9686
7.6490 1.0998 -2.0008 0.9686
7.6046 1.3720 -2.0008 0.9686
7.5505 1.6425 -2.0007 0.9686
7.4869 1.9109 -2.0006 0.9686
7.2390 2.7000 -2.0004 0.9686
7.1378 2.9566 -2.0004 0.9686
6.9083 3.4580 -2.0003 0.9686
6.7803 3.7023 -2.0002 0.9686
6.6326 3.9353 -1.9968 0.9686
6.4760 4.1619 -1.9932 0.9687
5.7331 4.2917 -1.8542 0.9708
5.5572 4.4783 -1.8479 0.9709
4.8630 5.2232 -1.8478 0.9709
4.6734 5.3933 -1.8477 0.9709
4.0699 5.8618 -1.8477 0.9709
3.8581 6.0033 -1.8477 0.9709
3.1942 6.3811 -1.8476 0.9709
2.7308 6.5927 -1.8476 0.9709
2.4937 6.6859 -1.8476 0.9709
2.0104 6.8468 -1.8476 0.9709
1.5169 6.9729 -1.8476 0.9709
1.0156 7.0634 -1.8476 0.9709
0.7628 7.0952 -1.8477 0.9709
0.5091 7.1180 -1.8477 0.9709
0.2547 7.1317 -1.8477 0.9709
-0.5091 7.1183 -1.8478 0.9709
-0.7629 7.0958 -1.8478 0.9709
-1.2672 7.0235 -1.8479 0.9709
-1.7651 6.9155 -1.8480 0.9709
-2.0108 6.8483 -1.8480 0.9709
-2.2540 6.7723 -1.8480 0.9709
-2.4944 6.6877 -1.8481 0.9709
-4.0717 5.8643 -1.8485 0.9709
-4.2785 5.7154 -1.8485 0.9709
-4.8654 5.2258 -1.8487 0.9709
-5.0490 5.0490 -1.8488 0.9709
-5.2262 4.8658 -1.8489 0.9709
-5.3968 4.6763 -1.8489 0.9709
-5.5605 4.4809 -1.8490 0.9709
-6.1839 4.2936 -1.9492 0.9694
-6.4833 4.1666 -1.9954 0.9687
-6.6401 3.9398 -1.9991 0.9686
-6.9129 3.4604 -2.0016 0.9686
-7.0323 3.2115 -2.0017 0.9686
-7.1427 2.9586 -2.0018 0.9686
-7.2441 2.7019 -2.0018 0.9686
-7.3362 2.4417 -2.0019 0.9686
-7.6102 1.3730 -2.0022 0.9686
-7.6547 1.1005 -2.0023 0.9686
-7.7143 0.5517 -2.0025 0.9685
7.0278 0.7556 -2.0010 0.9710
6.9556 1.2549 -2.0009 0.9710
6.7809 1.9911 -2.0007 0.9710
6.4278 2.9355 -2.0005 0.9711
6.3188 3.1629 -2.0004 0.9711
5.9429 3.8193 -1.9999 0.9711
5.7933 4.0224 -1.9966 0.9711
5.6371 4.2199 -1.9934 0.9712
5.0033 4.3354 -1.8742 0.9729
4.2747 4.9332 -1.8479 0.9732
3.9117 5.2255 -1.8479 0.9732
3.5289 5.4911 -1.8478 0.9732
3.3307 5.6135 -1.8478 0.9732
2.7115 5.9373 -1.8478 0.9732
1.6142 6.3244 -1.8478 0.9732
1.3875 6.3780 -1.8478 0.9732
0.9289 6.4608 -1.8478 0.9732
0.6977 6.4899 -1.8478 0.9732
0.4656 6.5107 -1.8478 0.9732
-0.0000 6.5275 -1.8479 0.9732
-0.2330 6.5234 -1.8479 0.9732
-0.4657 6.5110 -1.8479 0.9732
-0.6978 6.4904 -1.8480 0.9732
-0.9290 6.4614 -1.8480 0.9732
-1.3876 6.3789 -1.8481 0.9732
-1.8393 6.2639 -1.8481 0.9732
-2.0617 6.1944 -1.8482 0.9732
-2.2815 6.1170 -1.8482 0.9732
-2.4985 6.0318 -1.8483 0.9732
-2.9226 5.8386 -1.8484 0.9732
-3.1292 5.7307 -1.8484 0.9732
-3.3318 5.6155 -1.8485 0.9732
-3.7242 5.3638 -1.8486 0.9732
-3.9133 5.2276 -1.8486 0.9732
-4.2766 4.9354 -1.8487 0.9732
-4.4501 4.7798 -1.8488 0.9732
-5.0529 4.3783 -1.8927 0.9726
-5.3903 4.3438 -1.9598 0.9716
-6.0803 3.6076 -2.0015 0.9710
-6.2054 3.3884 -2.0016 0.9710
-6.3227 3.1649 -2.0016 0.9710
-6.4318 2.9373 -2.0017 0.9710
-6.6255 2.4712 -2.0018 0.9710
-6.7854 1.9923 -2.0020 0.9710
-6.8524 1.7490 -2.0021 0.9710
-6.9107 1.5033 -2.0021 0.9710
-7.0009 1.0066 -2.0023 0.9710
-7.0326 0.7561 -2.0024 0.9710
-7.0554 0.5046 -2.0024 0.9710
6.4895 0.4641 -2.0011 0.9731
6.4394 0.9258 -2.0010 0.9731
6.4021 1.1551 -2.0009 0.9731
6.3030 1.6087 -2.0008 0.9731
6.0944 2.2731 -2.0007 0.9731
6.0093 2.4891 -2.0006 0.9731
5.8161 2.9113 -2.0005 0.9731
5.5934 3.3187 -2.0004 0.9731
5.2042 3.8958 -1.9995 0.9732
5.0546 4.0732 -1.9967 0.9732
4.8992 4.2452 -1.9939 0.9732
4.3721 4.3721 -1.9018 0.9745
3.2483 5.0544 -1.8480 0.9752
2.2992 5.5507 -1.8479 0.9752
2.0996 5.6292 -1.8479 0.9752
1.2771 5.8707 -1.8479 0.9752
1.0668 5.9126 -1.8480 0.9752
0.8550 5.9470 -1.8480 0.9752
0.6422 5.9737 -1.8480 0.9752
0.2145 6.0044 -1.8480 0.9752
0.0000 6.0083 -1.8480 0.9752
-0.2145 6.0046 -1.8481 0.9752
-0.6423 5.9741 -1.8481 0.9752
-0.8551 5.9475 -1.8481 0.9752
-1.0669 5.9133 -1.8482 0.9752
-1.2773 5.8715 -1.8482 0.9752
-1.4860 5.8223 -1.8482 0.9752
-1.8977 5.7017 -1.8483 0.9752
-2.1000 5.6304 -1.8483 0.9752
-2.2997 5.5520 -1.8484 0.9752
-3.0668 5.1687 -1.8486 0.9752
-3.4278 4.9370 -1.8487 0.9752
-3.6020 4.8117 -1.8487 0.9752
-3.9363 4.5427 -1.8488 0.9752
-4.1244 4.4299 -1.8617 0.9750
-4.4065 4.4065 -1.9168 0.9743
-4.7058 4.3812 -1.9776 0.9735
-4.9034 4.2488 -1.9956 0.9732
-5.0590 4.0768 -1.9984 0.9732
-5.2088 3.8993 -2.0013 0.9731
-5.3449 3.7110 -2.0014 0.9731
-5.4741 3.5180 -2.0014 0.9731
-5.7115 3.1187 -2.0016 0.9731
-6.4061 1.1558 -2.0022 0.9731
-6.4726 0.6959 -2.0023 0.9731
-6.5062 0.2324 -2.0024 0.9731
6.0206 -0.0000 -2.0013 0.9749
6.0166 0.2149 -2.0012 0.9749
6.0049 0.4295 -2.0012 0.9749
5.8820 1.2796 -2.0010 0.9749
5.6395 2.1034 -2.0008 0.9749
5.5607 2.3033 -2.0007 0.9749
5.4748 2.5003 -2.0007 0.9749
5.3820 2.6940 -2.0006 0.9749
5.2823 2.8843 -2.0006 0.9750
5.1759 3.0710 -2.0005 0.9750
4.9434 3.4323 -2.0005 0.9750
4.8177 3.6065 -2.0004 0.9750
4.6858 3.7760 -2.0004 0.9750
4.2433 4.2433 -1.9947 0.9750
3.8090 4.3958 -1.9334 0.9758
3.5591 4.4165 -1.8854 0.9764
3.3319 4.4509 -1.8481 0.9768
3.0058 4.6772 -1.8481 0.9768
2.8370 4.7815 -1.8481 0.9768
2.4886 4.9716 -1.8481 0.9768
2.3096 5.0572 -1.8481 0.9768
1.9429 5.2091 -1.8481 0.9768
1.7557 5.2752 -1.8481 0.9768
1.5663 5.3345 -1.8481 0.9768
1.3750 5.3870 -1.8481 0.9768
0.7913 5.5032 -1.8481 0.9768
0.3966 5.5457 -1.8481 0.9768
0.1984 5.5563 -1.8481 0.9768
-0.0000 5.5599 -1.8482 0.9768
-0.1985 5.5564 -1.8482 0.9768
-0.3966 5.5459 -1.8482 0.9768
-0.9872 5.4719 -1.8483 0.9768
-1.3751 5.3878 -1.8483 0.9768
-2.1281 5.1376 -1.8485 0.9768
-2.3101 5.0585 -1.8485 0.9768
-2.4893 4.9729 -1.8486 0.9768
-2.6652 4.8810 -1.8486 0.9768
-3.0068 4.6787 -1.8487 0.9768
-3.5846 4.4483 -1.8990 0.9762
-3.8365 4.4275 -1.9474 0.9756
-4.0871 4.3898 -1.9937 0.9750
-4.4005 4.0970 -1.9986 0.9750
-4.6879 3.7778 -2.0013 0.9749
-4.8199 3.6081 -2.0014 0.9749
-5.0653 3.2553 -2.0015 0.9749
-5.3848 2.6954 -2.0017 0.9749
-5.4777 2.5016 -2.0017 0.9749
-5.7143 1.9019 -2.0019 0.9749
-5.8358 1.4895 -2.0020 0.9749
-5.9621 0.8572 -2.0022 0.9749
-5.9891 0.6439 -2.0023 0.9749
-6.0084 0.4297 -2.0023 0.9749
5.5965 0.0000 -2.0013 0.9765
5.5927 0.1997 -2.0013 0.9765
5.5389 0.7964 -2.0011 0.9765
5.5068 0.9935 -2.0011 0.9765
5.4677 1.1894 -2.0010 0.9765
5.4216 1.3838 -2.0010 0.9765
5.3687 1.5764 -2.0009 0.9765
5.2423 1.9553 -2.0008 0.9765
5.1690 2.1411 -2.0008 0.9765
4.9103 2.6812 -2.0007 0.9765
4.4784 3.3525 -2.0005 0.9765
4.3558 3.5101 -2.0005 0.9765
4.2277 3.6633 -2.0005 0.9765
4.0942 3.8118 -2.0004 0.9765
3.9546 3.9546 -2.0000 0.9765
3.0767 4.4313 -1.9292 0.9773
2.3134 4.6215 -1.8482 0.9783
1.6321 4.9037 -1.8482 0.9783
1.4560 4.9588 -1.8482 0.9783
1.2781 5.0076 -1.8482 0.9783
1.0986 5.0501 -1.8482 0.9783
0.7355 5.1157 -1.8482 0.9783
0.3687 5.1552 -1.8482 0.9783
0.1845 5.1651 -1.8482 0.9783
-0.3687 5.1554 -1.8483 0.9783
-0.7356 5.1160 -1.8483 0.9783
-1.2783 5.0083 -1.8484 0.9783
-1.4563 4.9596 -1.8485 0.9783
-1.6324 4.9045 -1.8485 0.9783
-2.1474 4.7022 -1.8486 0.9783
-2.3140 4.6227 -1.8486 0.9783
-2.4775 4.5372 -1.8487 0.9783
-2.6604 4.4839 -1.8645 0.9781
-3.6569 4.2203 -1.9970 0.9766
-3.8092 4.0914 -1.9991 0.9765
-4.0958 3.8133 -2.0012 0.9765
-4.3577 3.5116 -2.0013 0.9765
-4.4803 3.3539 -2.0014 0.9765
-4.5973 3.1919 -2.0014 0.9765
-4.7084 3.0259 -2.0015 0.9765
-5.0917 2.3253 -2.0017 0.9765
-5.1716 2.1421 -2.0018 0.9765
-5.3116 1.7679 -2.0019 0.9765
-5.4706 1.1900 -2.0021 0.9765
-5.5419 0.7968 -2.0022 0.9765
-5.5958 0.1998 -2.0024 0.9765
5.1922 0.5582 -2.0012 0.9779
5.1024 1.1100 -2.0011 0.9779
5.0100 1.4711 -2.0010 0.9779
4.9542 1.6489 -2.0009 0.9779
4.8238 1.9981 -2.0009 0.9779
4.7493 2.1689 -2.0008 0.9779
4.6687 2.3370 -2.0008 0.9779
4.5823 2.5021 -2.0007 0.9779
4.3920 2.8225 -2.0007 0.9779
4.1793 3.1285 -2.0006 0.9779
4.0649 3.2757 -2.0006 0.9779
3.9453 3.4187 -2.0006 0.9779
3.8207 3.5572 -2.0005 0.9779
3.5572 3.8206 -2.0005 0.9779
3.2727 4.0611 -1.9987 0.9779
3.1229 4.1717 -1.9970 0.9779
2.9695 4.2769 -1.9953 0.9779
2.8127 4.3767 -1.9937 0.9780
2.6354 4.4418 -1.9792 0.9781
2.2352 4.4654 -1.9136 0.9788
1.8581 4.4859 -1.8607 0.9794
1.6855 4.5190 -1.8483 0.9796
1.5231 4.5762 -1.8483 0.9796
1.1928 4.6732 -1.8483 0.9796
0.5156 4.7955 -1.8483 0.9796
0.1722 4.8201 -1.8483 0.9796
-0.3441 4.8111 -1.8484 0.9796
-0.6864 4.7744 -1.8484 0.9796
-0.8564 4.7469 -1.8485 0.9795
-1.0253 4.7133 -1.8485 0.9795
-1.1929 4.6738 -1.8485 0.9795
-1.5234 4.5770 -1.8486 0.9795
-2.4428 4.4736 -1.9533 0.9784
-2.6471 4.4614 -1.9880 0.9780
-2.9710 4.2790 -1.9963 0.9779
-3.1246 4.1739 -1.9980 0.9779
-3.2746 4.0635 -1.9999 0.9779
-3.4196 3.9464 -2.0011 0.9779
-3.8222 3.5585 -2.0013 0.9779
-4.0665 3.2770 -2.0014 0.9779
-4.2901 2.9787 -2.0015 0.9779
-4.3938 2.8237 -2.0015 0.9779
-4.4919 2.6652 -2.0016 0.9779
-4.7515 2.1699 -2.0017 0.9779
-4.8260 1.9990 -2.0018 0.9779
-4.9566 1.6497 -2.0019 0.9779
-5.1415 0.9276 -2.0021 0.9779
-5.2116 0.3727 -2.0023 0.9779
-5.2217 0.1865 -2.0023 0.9779
4.8869 0.1745 -2.0014 0.9791
4.8774 0.3488 -2.0013 0.9791
4.8617 0.5227 -2.0013 0.9791
4.7777 1.0393 -2.0011 0.9791
4.6912 1.3775 -2.0010 0.9791
4.6389 1.5440 -2.0010 0.9791
4.5168 1.8709 -2.0009 0.9791
4.4471 2.0309 -2.0009 0.9791
4.3717 2.1883 -2.0009 0.9791
4.2043 2.4945 -2.0008 0.9791
3.8062 3.0672 -2.0007 0.9791
3.5776 3.3309 -2.0006 0.9791
3.4564 3.4564 -2.0006 0.9791
2.6400 4.1078 -1.9985 0.9791
2.1813 4.3577 -1.9945 0.9792
1.8493 4.4646 -1.9778 0.9793
1.6687 4.4740 -1.9543 0.9796
1.4921 4.4829 -1.9337 0.9798
0.9795 4.5027 -1.8860 0.9803
0.8131 4.5065 -1.8742 0.9804
0.1615 4.5208 -1.8514 0.9806
-0.1615 4.5231 -1.8524 0.9806
-0.6494 4.5164 -1.8675 0.9805
-0.8143 4.5131 -1.8769 0.9804
-0.9810 4.5094 -1.8888 0.9803
-1.1499 4.5053 -1.9030 0.9801
-2.1821 4.3593 -1.9952 0.9792
-2.3378 4.2814 -1.9965 0.9791
-2.4909 4.1981 -1.9979 0.9791
-2.6411 4.1096 -1.9993 0.9791
-2.7882 4.0158 -2.0009 0.9791
-3.0680 3.8071 -2.0011 0.9791
-3.2020 3.6953 -2.0012 0.9791
-3.4576 3.4576 -2.0013 0.9791
-3.5789 3.3320 -2.0013 0.9791
-3.6956 3.2022 -2.0014 0.9791
-3.8077 3.0684 -2.0014 0.9791
-3.9148 2.9306 -2.0015 0.9791
-4.1141 2.6440 -2.0016 0.9791
-4.2925 2.3439 -2.0017 0.9791
-4.5828 1.7093 -2.0019 0.9791
-1.9569 0.2104 -0.8055 0.9915
-1.9308 0.0689 -0.7907 0.9917
4.5924 0.0000 -2.0014 0.9802
4.5657 0.4908 -2.0013 0.9802
4.5452 0.6535 -2.0013 0.9802
4.4056 1.2936 -2.0011 0.9802
4.3565 1.4500 -2.0011 0.9802
4.2418 1.7570 -2.0010 0.9802
4.1764 1.9073 -2.0009 0.9802
3.8622 2.4821 -2.0008 0.9802
3.5746 2.8806 -2.0007 0.9802
3.4694 3.0063 -2.0007 0.9802
3.1281 3.3598 -2.0007 0.9802
3.0062 3.4693 -2.0006 0.9802
2.7510 3.6749 -2.0006 0.9802
2.0531 4.1015 -1.9989 0.9802
1.4457 4.3436 -1.9951 0.9802
0.9721 4.4689 -1.9932 0.9802
0.8093 4.4858 -1.9865 0.9803
0.6454 4.4892 -1.9766 0.9804
0.3215 4.4947 -1.9639 0.9805
-0.0000 4.4985 -1.9605 0.9806
-0.3219 4.5005 -1.9664 0.9805
-0.4836 4.4986 -1.9719 0.9805
-1.2895 4.3918 -1.9948 0.9802
-1.4460 4.3447 -1.9956 0.9802
-1.7540 4.2344 -1.9975 0.9802
-1.9050 4.1713 -1.9985 0.9802
-2.0538 4.1030 -1.9997 0.9802
-2.2003 4.0295 -2.0009 0.9802
-2.6187 3.7716 -2.0011 0.9802
-2.7517 3.6758 -2.0011 0.9802
-3.1290 3.3608 -2.0013 0.9802
-3.3610 3.1292 -2.0013 0.9802
-3.4706 3.0073 -2.0014 0.9802
-3.5758 2.8815 -2.0014 0.9802
-4.1072 2.0559 -2.0017 0.9802
-4.1781 1.9080 -2.0018 0.9802
-1.5984 0.5962 -0.7435 0.9926
-1.5875 0.5283 -0.7292 0.9927
-1.5001 0.2706 -0.6643 0.9934
-1.5293 0.1094 -0.6682 0.9933
4.3210 0.1543 -2.0014 0.9811
4.3127 0.3084 -2.0014 0.9811
4.2988 0.4621 -2.0013 0.9811
4.2795 0.6153 -2.0013 0.9811
4.2547 0.7676 -2.0013 0.9811
4.1019 1.3652 -2.0011 0.9811
4.0505 1.5107 -2.0011 0.9811
3.8656 1.9350 -2.0010 0.9811
3.7940 2.0717 -2.0009 0.9811
3.6364 2.3370 -2.0009 0.9811
3.5507 2.4653 -2.0009 0.9811
3.3656 2.7122 -2.0008 0.9811
3.2667 2.8306 -2.0008 0.9811
3.1635 2.9453 -2.0008 0.9811
3.0564 3.0563 -2.0007 0.9811
2.7121 3.3655 -2.0007 0.9811
2.2054 3.7171 -2.0006 0.9811
2.0714 3.7934 -2.0006 0.9811
1.9346 3.8649 -2.0006 0.9811
1.7955 3.9315 -2.0006 0.9811
1.0675 4.1825 -1.9981 0.9812
0.9173 4.2168 -1.9975 0.9812
0.7660 4.2458 -1.9971 0.9812
0.6139 4.2697 -1.9967 0.9812
0.4610 4.2883 -1.9964 0.9812
0.3077 4.3016 -1.9962 0.9812
0.1539 4.3096 -1.9961 0.9812
-0.1539 4.3098 -1.9962 0.9812
-0.3077 4.3019 -1.9964 0.9812
-0.4611 4.2887 -1.9966 0.9812
-0.6140 4.2702 -1.9969 0.9812
-0.9174 4.2174 -1.9978 0.9812
-1.0677 4.1832 -1.9984 0.9812
-1.5104 4.0497 -2.0007 0.9811
-1.6543 3.9937 -2.0009 0.9811
-1.9350 3.8656 -2.0010 0.9811
-2.2059 3.7179 -2.0011 0.9811
-2.4656 3.5512 -2.0011 0.9811
-2.5908 3.4610 -2.0012 0.9811
-3.1645 2.9463 -2.0014 0.9811
-3.3667 2.7131 -2.0015 0.9811
-3.4615 2.5912 -2.0015 0.9811
-3.6377 2.3378 -2.0016 0.9811
-3.7189 2.2065 -2.0016 0.9811
-3.7954 2.0724 -2.0017 0.9811
-3.8670 1.9357 -2.0017 0.9811
-1.3150 0.6006 -0.6692 0.9936
-1.3263 0.5494 -0.6645 0.9937
-1.3116 0.3348 -0.6266 0.9941
-1.3013 0.2831 -0.6164 0.9941
-1.3160 0.2374 -0.6190 0.9941
-1.3273 0.1908 -0.6207 0.9941
-1.3384 0.0957 -0.6211 0.9941
4.0803 0.0000 -2.0015 0.9820
4.0776 0.1456 -2.0014 0.9820
4.0567 0.4361 -2.0014 0.9820
4.0385 0.5806 -2.0013 0.9820
3.9866 0.8672 -2.0013 0.9820
3.9530 1.0089 -2.0012 0.9820
3.9144 1.1494 -2.0012 0.9820
3.8708 1.2883 -2.0011 0.9820
3.8223 1.4256 -2.0011 0.9820
3.2655 2.4445 -2.0009 0.9820
3.1761 2.5595 -2.0009 0.9820
3.0827 2.6712 -2.0008 0.9820
2.9854 2.7795 -2.0008 0.9820
2.7794 2.9853 -2.0008 0.9820
2.6711 3.0826 -2.0008 0.9820
2.3262 3.3504 -2.0007 0.9820
2.2051 3.4313 -2.0007 0.9820
2.0813 3.5078 -2.0007 0.9820
1.9547 3.5798 -2.0007 0.9820
1.8257 3.6473 -2.0007 0.9820
1.4254 3.8215 -2.0007 0.9820
1.1491 3.9135 -2.0007 0.9820
0.8670 3.9855 -2.0007 0.9820
0.4359 4.0548 -2.0005 0.9820
0.2909 4.0674 -2.0003 0.9820
0.1455 4.0750 -2.0002 0.9820
0.0000 4.0776 -2.0002 0.9820
-0.4360 4.0552 -2.0006 0.9820
-0.7242 4.0142 -2.0008 0.9820
-1.0088 3.9524 -2.0009 0.9820
-1.5611 3.7688 -2.0010 0.9820
-2.2056 3.4320 -2.0012 0.9820
-2.3267 3.3511 -2.0012 0.9820
-2.4449 3.2660 -2.0012 0.9820
-2.6718 3.0834 -2.0013 0.9820
-2.7802 2.9861 -2.0013 0.9820
-3.0836 2.6720 -2.0014 0.9820
-3.1771 2.5603 -2.0015 0.9820
-3.4328 2.2061 -2.0016 0.9820
-3.5094 2.0822 -2.0016 0.9820
-1.1113 0.6068 -0.6211 0.9944
-1.1400 0.5206 -0.6148 0.9944
-1.1590 0.3403 -0.5925 0.9946
-1.1695 0.2544 -0.5871 0.9947
-1.1791 0.2127 -0.5877 0.9947
-1.1921 0.1281 -0.5881 0.9947
3.8581 -0.0000 -2.0015 0.9828
3.8556 0.1377 -2.0015 0.9828
3.8358 0.4124 -2.0014 0.9828
3.7965 0.6850 -2.0013 0.9828
3.7695 0.8200 -2.0013 0.9828
3.7378 0.9540 -2.0013 0.9828
3.6601 1.2182 -2.0012 0.9828
3.6142 1.3480 -2.0012 0.9828
3.5087 1.6024 -2.0011 0.9828
3.4493 1.7266 -2.0011 0.9828
3.2448 2.0853 -2.0010 0.9828
3.0032 2.4201 -2.0009 0.9828
2.9149 2.5258 -2.0009 0.9828
2.8228 2.6282 -2.0009 0.9828
2.7272 2.7272 -2.0009 0.9828
2.6281 2.8228 -2.0008 0.9828
2.5257 2.9148 -2.0008 0.9828
1.8483 3.3849 -2.0008 0.9828
1.7263 3.4487 -2.0008 0.9828
1.6021 3.5081 -2.0008 0.9828
1.3478 3.6135 -2.0008 0.9828
1.2179 3.6593 -2.0008 0.9828
1.0865 3.7004 -2.0008 0.9828
0.8198 3.7685 -2.0008 0.9828
0.4123 3.8346 -2.0008 0.9828
0.2751 3.8469 -2.0008 0.9828
0.1377 3.8543 -2.0008 0.9828
-0.2751 3.8470 -2.0009 0.9828
-1.4761 3.5636 -2.0010 0.9828
-1.6024 3.5087 -2.0011 0.9828
-1.8486 3.3855 -2.0011 0.9828
-2.0855 3.2451 -2.0012 0.9828
-2.2001 3.1687 -2.0012 0.9828
-2.3118 3.0882 -2.0013 0.9828
-2.5263 2.9155 -2.0013 0.9828
-2.6288 2.8235 -2.0014 0.9828
-2.7279 2.7279 -2.0014 0.9828
-2.8236 2.6289 -2.0014 0.9828
-2.9157 2.5265 -2.0015 0.9828
-3.0041 2.4208 -2.0015 0.9828
-3.1692 2.2004 -2.0016 0.9828
-1.0118 0.5525 -0.5981 0.9948
-1.0576 0.3945 -0.5856 0.9949
-1.0617 0.3534 -0.5805 0.9950
-1.0814 0.2352 -0.5741 0.9950
-1.0905 0.1967 -0.5749 0.9950
-1.0974 0.1578 -0.5752 0.9950
-1.1024 0.1185 -0.5752 0.9950
-1.1055 0.0791 -0.5750 0.9950
3.6333 0.3906 -2.0014 0.9835
3.5705 0.7767 -2.0013 0.9835
3.5059 1.0294 -2.0013 0.9835
3.4234 1.2769 -2.0012 0.9835
3.3756 1.3982 -2.0012 0.9835
3.2672 1.6354 -2.0011 0.9835
3.2067 1.7510 -2.0011 0.9835
3.1421 1.8643 -2.0011 0.9835
3.0735 1.9752 -2.0010 0.9835
3.0010 2.0836 -2.0010 0.9835
2.8447 2.2924 -2.0010 0.9835
2.7610 2.3924 -2.0010 0.9835
2.6738 2.4894 -2.0009 0.9835
2.5833 2.5832 -2.0009 0.9835
2.4894 2.6738 -2.0009 0.9835
2.0835 3.0008 -2.0009 0.9835
1.8641 3.1417 -2.0008 0.9835
1.7508 3.2063 -2.0008 0.9835
1.6352 3.2667 -2.0008 0.9835
1.5176 3.3230 -2.0008 0.9835
1.0292 3.5051 -2.0008 0.9835
0.6486 3.5951 -2.0008 0.9835
0.3905 3.6322 -2.0008 0.9835
0.1304 3.6509 -2.0009 0.9835
0.0000 3.6532 -2.0009 0.9835
-0.2606 3.6440 -2.0009 0.9835
-0.5199 3.6161 -2.0009 0.9835
-0.7766 3.5699 -2.0010 0.9835
-1.0293 3.5054 -2.0010 0.9835
-1.1538 3.4665 -2.0010 0.9835
-1.3982 3.3755 -2.0011 0.9835
-1.5178 3.3235 -2.0011 0.9835
-1.6355 3.2672 -2.0011 0.9835
-1.7511 3.2068 -2.0012 0.9835
-1.8644 3.1423 -2.0012 0.9835
-1.9754 3.0738 -2.0012 0.9835
-2.1897 2.9252 -2.0013 0.9835
-2.2928 2.8452 -2.0013 0.9835
-2.3929 2.7615 -2.0014 0.9835
-2.4900 2.6744 -2.0014 0.9835
-2.5839 2.5839 -2.0014 0.9835
-2.6745 2.4901 -2.0015 0.9835
-2.7618 2.3931 -2.0015 0.9835
-2.8455 2.2930 -2.0015 0.9835
-2.9255 2.1900 -2.0016 0.9835
-0.8882 0.5708 -0.5782 0.9952
-0.9084 0.5390 -0.5785 0.9952
-0.9434 0.4722 -0.5778 0.9952
-0.9785 0.3257 -0.5648 0.9953
-1.0039 0.2184 -0.5627 0.9953
-1.0265 0.0734 -0.5637 0.9953
-1.0276 0.0367 -0.5632 0.9953
2.0320 0.0726 -1.1739 0.9907
2.0301 0.2919 -1.1841 0.9906
2.0153 0.3636 -1.1823 0.9906
1.9883 0.4325 -1.1748 0.9906
1.9351 0.5682 -1.1644 0.9907
1.8682 0.6968 -1.1512 0.9908
1.8508 0.8452 -1.1747 0.9906
3.0421 1.6611 -2.0011 0.9841
2.9808 1.7686 -2.0011 0.9841
2.9158 1.8738 -2.0011 0.9841
2.8470 1.9767 -2.0011 0.9841
2.5366 2.3617 -2.0010 0.9841
2.3616 2.5365 -2.0010 0.9841
2.1746 2.6985 -2.0009 0.9841
2.0769 2.7744 -2.0009 0.9841
1.9765 2.8468 -2.0009 0.9841
1.7684 2.9805 -2.0009 0.9841
1.2111 3.2471 -2.0009 0.9841
0.9764 3.3252 -2.0009 0.9841
0.7367 3.3864 -2.0009 0.9841
0.6153 3.4106 -2.0009 0.9841
0.4932 3.4304 -2.0009 0.9841
0.3704 3.4458 -2.0009 0.9841
0.2472 3.4568 -2.0009 0.9841
0.1237 3.4635 -2.0009 0.9841
-0.1237 3.4635 -2.0009 0.9841
-0.2472 3.4569 -2.0010 0.9841
-0.3705 3.4459 -2.0010 0.9841
-0.4932 3.4305 -2.0010 0.9841
-0.6154 3.4108 -2.0010 0.9841
-0.9765 3.3255 -2.0011 0.9841
-1.2112 3.2475 -2.0011 0.9841
-1.3264 3.2022 -2.0011 0.9841
-1.7687 2.9810 -2.0012 0.9841
-1.8740 2.9160 -2.0013 0.9841
-1.9769 2.8473 -2.0013 0.9841
-2.0773 2.7750 -2.0013 0.9841
-2.2701 2.6198 -2.0014 0.9841
-2.3622 2.5371 -2.0014 0.9841
-2.5372 2.3622 -2.0015 0.9841
-2.6200 2.2702 -2.0015 0.9841
-0.8008 0.5560 -0.5628 0.9955
-0.8687 0.4349 -0.5609 0.9955
-0.9353 0.2034 -0.5526 0.9956
-0.9575 0.0342 -0.5532 0.9956
