ply
format ascii 1.0
element vertex 814
property float32 x
property float32 y
property float32 z
property float32 I
end_header
4.2290 6.0910 1.3075 0.9703
4.2297 6.0920 1.1362 0.9704
4.0172 6.2509 1.1383 0.9704
4.0178 6.2519 0.9678 0.9705
6.6223 4.5979 0.8657 0.9681
4.0184 6.2529 0.7982 0.9705
6.6214 4.5973 0.6824 0.9682
4.2317 6.0949 0.6281 0.9707
4.0191 6.2539 0.6293 0.9706
3.9694 6.6901 0.6585 0.9693
6.6206 4.5967 0.4998 0.9682
6.6197 4.5962 0.3178 0.9683
6.6189 4.5956 0.1361 0.9683
4.2352 6.0999 0.1254 0.9707
3.9478 6.6538 0.1307 0.9695
4.2384 6.1045 -0.0418 0.9707
4.0216 6.2578 -0.0419 0.9707
3.9407 6.6418 -0.0435 0.9696
4.2415 6.1090 -0.2094 0.9707
3.9336 6.6298 -0.2171 0.9696
4.2447 6.1136 -0.3775 0.9706
4.0229 6.2598 -0.3774 0.9706
3.9265 6.6179 -0.3903 0.9697
6.6155 4.5932 -0.5905 0.9682
4.2479 6.1182 -0.5461 0.9706
3.9195 6.6060 -0.5632 0.9697
4.2544 6.1275 -0.8861 0.9704
3.9053 6.5822 -0.9091 0.9696
4.2576 6.1322 -1.0578 0.9703
3.8983 6.5703 -1.0825 0.9696
6.5075 4.5182 -1.3051 0.9684
5.2549 6.0645 -1.3219 0.9680
4.0260 6.2647 -1.2268 0.9703
9.0789 3.7606 -1.8471 0.9608
8.7853 4.3976 -1.8466 0.9608
8.6217 4.7078 -1.8464 0.9608
8.4472 5.0120 -1.8462 0.9608
8.2620 5.3097 -1.8460 0.9608
7.8605 5.8843 -1.8456 0.9608
7.4191 6.4287 -1.8452 0.9608
7.1842 6.6887 -1.8450 0.9608
6.9402 6.9402 -1.8448 0.9608
5.0414 5.4148 -1.3906 0.9703
4.7246 5.4525 -1.3561 0.9711
5.4294 7.2529 -1.7029 0.9638
4.2642 6.1417 -1.4054 0.9700
4.7008 8.6088 -1.8436 0.9609
3.1310 6.2551 -1.3148 0.9719
3.2198 7.0504 -1.4569 0.9689
3.7530 9.0604 -1.8433 0.9609
3.0967 9.3042 -1.8431 0.9609
2.7625 9.4084 -1.8431 0.9609
2.0842 9.5809 -1.8429 0.9609
1.3953 9.7046 -1.8429 0.9609
1.0480 9.7481 -1.8428 0.9609
0.3499 9.7978 -1.8428 0.9609
-0.6994 9.7791 -1.8428 0.9609
-1.3953 9.7046 -1.8428 0.9609
-2.0842 9.5807 -1.8429 0.9609
-2.4249 9.5005 -1.8430 0.9609
-2.7625 9.4082 -1.8430 0.9609
-3.0967 9.3040 -1.8431 0.9609
-3.4269 9.1879 -1.8432 0.9609
-4.3901 8.7703 -1.8435 0.9609
-5.3035 8.2524 -1.8438 0.9609
-5.5951 8.0584 -1.8440 0.9609
-5.8796 7.8542 -1.8441 0.9609
-6.9399 6.9399 -1.8447 0.9608
-7.1838 6.6884 -1.8449 0.9608
-7.4187 6.4283 -1.8451 0.9608
-8.4467 5.0116 -1.8461 0.9608
-8.6212 4.7075 -1.8463 0.9608
-8.7848 4.3973 -1.8465 0.9608
9.4443 0.6755 -2.0014 0.9620
9.3698 1.3472 -2.0010 0.9620
9.3147 1.6806 -2.0007 0.9620
9.2477 2.0117 -2.0005 0.9620
9.0785 2.6657 -2.0000 0.9621
8.9766 2.9877 -1.9998 0.9621
8.8517 3.3015 -1.9970 0.9621
8.7072 3.6066 -1.9922 0.9622
8.2015 3.7455 -1.9059 0.9638
7.6680 4.1870 -1.8468 0.9649
7.5129 4.4576 -1.8466 0.9649
6.4620 4.4867 -1.6629 0.9683
6.7994 5.4793 -1.8458 0.9649
6.5989 5.7179 -1.8457 0.9649
6.1731 6.1731 -1.8454 0.9649
4.7247 5.4526 -1.5251 0.9709
4.1225 5.5071 -1.4541 0.9723
3.8575 5.5559 -1.4297 0.9727
3.5909 5.5876 -1.4040 0.9732
3.1459 6.2847 -1.4856 0.9717
3.2437 7.8311 -1.7917 0.9659
3.0485 8.1733 -1.8439 0.9650
2.4574 8.3693 -1.8438 0.9650
2.1571 8.4514 -1.8437 0.9650
1.2412 8.6330 -1.8436 0.9650
0.9323 8.6716 -1.8436 0.9650
0.6222 8.6993 -1.8436 0.9650
-0.0000 8.7214 -1.8435 0.9650
-0.3113 8.7158 -1.8435 0.9650
-0.9323 8.6716 -1.8436 0.9650
-1.5486 8.5832 -1.8436 0.9650
-1.8540 8.5227 -1.8437 0.9650
-2.1571 8.4513 -1.8437 0.9650
-2.4574 8.3692 -1.8438 0.9650
-2.7547 8.2764 -1.8438 0.9650
-3.3383 8.0595 -1.8440 0.9650
-3.6240 7.9355 -1.8441 0.9650
-3.9052 7.8015 -1.8442 0.9650
-4.1814 7.6576 -1.8443 0.9650
-4.7176 7.3406 -1.8445 0.9650
-5.2299 6.9863 -1.8447 0.9649
-5.4763 6.7957 -1.8448 0.9649
-5.9481 6.3887 -1.8451 0.9649
-6.1728 6.1728 -1.8453 0.9649
-6.5986 5.7177 -1.8456 0.9649
-6.7991 5.4790 -1.8458 0.9649
-7.1740 4.9809 -1.8461 0.9649
-7.6894 4.1987 -1.8519 0.9648
-8.2171 4.1132 -1.9424 0.9631
-8.5798 3.9183 -1.9938 0.9622
-8.7357 3.6184 -1.9987 0.9621
-8.8627 3.3056 -1.9995 0.9621
-8.9761 2.9875 -1.9997 0.9621
-9.1684 2.3401 -2.0001 0.9621
-9.3141 1.6804 -2.0006 0.9620
-9.3693 1.3471 -2.0008 0.9620
-9.4629 0.3379 -2.0015 0.9620
8.5179 0.0000 -2.0019 0.9656
8.3781 1.5116 -2.0008 0.9656
8.3179 1.8095 -2.0006 0.9656
8.0744 2.6874 -2.0000 0.9656
7.8605 3.2559 -1.9996 0.9656
7.7274 3.5290 -1.9965 0.9657
6.1166 4.9291 -1.8462 0.9682
5.9363 5.1439 -1.8461 0.9682
4.7248 5.4527 -1.6957 0.9708
4.4230 5.4887 -1.6567 0.9715
4.1345 5.5230 -1.6215 0.9720
3.5910 5.5877 -1.5611 0.9731
2.4784 7.4463 -1.8444 0.9683
1.6681 7.6679 -1.8443 0.9683
1.1167 7.7671 -1.8442 0.9683
-0.0000 7.8467 -1.8441 0.9683
-1.3933 7.7223 -1.8442 0.9683
-1.6681 7.6678 -1.8443 0.9683
-1.9407 7.6036 -1.8443 0.9683
-2.7426 7.3532 -1.8445 0.9683
-3.0034 7.2509 -1.8445 0.9683
-3.7618 6.8893 -1.8448 0.9683
-4.0055 6.7509 -1.8449 0.9683
-4.2442 6.6040 -1.8450 0.9683
-4.9267 6.1137 -1.8453 0.9683
-5.1421 5.9343 -1.8455 0.9683
-5.5532 5.5532 -1.8457 0.9682
-5.7483 5.3518 -1.8459 0.9682
-5.9361 5.1436 -1.8460 0.9682
-6.1164 4.9289 -1.8462 0.9682
-7.1421 4.2376 -1.9518 0.9665
-7.7382 3.5339 -1.9993 0.9656
-7.8601 3.2558 -1.9995 0.9656
-8.0740 2.6872 -1.9999 0.9656
-8.2468 2.1048 -2.0003 0.9656
-8.3175 1.8093 -2.0005 0.9656
-8.4272 1.2116 -2.0009 0.9656
-8.4659 0.9102 -2.0011 0.9656
-8.4939 0.6075 -2.0014 0.9656
-8.5111 0.3040 -2.0016 0.9656
7.7318 0.0000 -2.0019 0.9686
7.7261 0.2760 -2.0017 0.9686
7.5507 1.6425 -2.0007 0.9686
7.4129 2.1766 -2.0004 0.9686
7.2374 2.6994 -2.0000 0.9686
7.0252 3.2083 -1.9996 0.9686
6.7671 3.6951 -1.9963 0.9686
5.9326 4.1191 -1.8700 0.9706
5.5531 4.4750 -1.8465 0.9710
5.3894 4.6700 -1.8464 0.9710
4.3469 5.3943 -1.7937 0.9718
4.0633 5.4280 -1.7556 0.9724
3.7912 5.4604 -1.7212 0.9729
3.3336 5.6185 -1.6915 0.9734
3.0708 5.6239 -1.6591 0.9739
3.0326 6.0584 -1.7542 0.9724
2.9604 6.4823 -1.8451 0.9710
2.7270 6.5836 -1.8450 0.9710
1.7621 6.9038 -1.8448 0.9710
1.0139 7.0522 -1.8447 0.9710
0.5083 7.1064 -1.8447 0.9710
0.2543 7.1199 -1.8447 0.9710
-0.0000 7.1245 -1.8447 0.9710
-0.2543 7.1199 -1.8447 0.9710
-0.5083 7.1063 -1.8447 0.9710
-1.7621 6.9037 -1.8448 0.9710
-2.0074 6.8365 -1.8448 0.9710
-2.9603 6.4821 -1.8451 0.9710
-3.1899 6.3726 -1.8452 0.9710
-3.6367 6.1294 -1.8453 0.9710
-4.2718 5.7064 -1.8456 0.9710
-4.4730 5.5506 -1.8457 0.9710
-4.6685 5.3878 -1.8458 0.9710
-5.2187 4.8588 -1.8462 0.9710
-5.3892 4.6698 -1.8463 0.9710
-5.8522 4.3809 -1.8928 0.9702
-6.2392 4.3319 -1.9666 0.9691
-6.6342 3.9362 -1.9973 0.9686
-7.1355 2.9556 -1.9997 0.9686
-7.2371 2.6993 -1.9999 0.9686
-7.3295 2.4395 -2.0001 0.9686
-7.4126 2.1765 -2.0003 0.9686
-7.4862 1.9107 -2.0005 0.9686
-7.5504 1.6425 -2.0006 0.9686
-7.6498 1.0999 -2.0010 0.9686
-7.6849 0.8262 -2.0012 0.9686
6.9971 1.0060 -2.0012 0.9710
6.9561 1.2550 -2.0010 0.9710
6.7803 1.9909 -2.0005 0.9711
6.7044 2.2314 -2.0003 0.9711
6.6199 2.4691 -2.0002 0.9711
6.5270 2.7036 -2.0000 0.9711
6.4258 2.9346 -1.9998 0.9711
6.1991 3.3850 -1.9995 0.9711
5.7833 4.0154 -1.9931 0.9712
5.2178 4.2048 -1.8971 0.9725
4.9299 4.2718 -1.8467 0.9732
4.7740 4.4447 -1.8466 0.9732
4.2707 4.9287 -1.8462 0.9733
3.9078 5.2202 -1.8460 0.9733
3.7188 5.3561 -1.8459 0.9733
3.2762 5.5218 -1.8176 0.9737
2.7081 5.9300 -1.8455 0.9733
2.4947 6.0226 -1.8454 0.9733
2.0585 6.1849 -1.8453 0.9733
1.8364 6.2542 -1.8453 0.9733
1.1573 6.4143 -1.8452 0.9733
0.9276 6.4514 -1.8451 0.9733
0.6967 6.4803 -1.8451 0.9733
0.2326 6.5134 -1.8451 0.9733
-0.0000 6.5176 -1.8451 0.9733
-0.4650 6.5010 -1.8451 0.9733
-0.6967 6.4803 -1.8451 0.9733
-0.9276 6.4514 -1.8451 0.9733
-1.1573 6.4142 -1.8451 0.9733
-1.3855 6.3689 -1.8452 0.9733
-1.6120 6.3155 -1.8452 0.9733
-1.8364 6.2541 -1.8452 0.9733
-2.2780 6.1075 -1.8453 0.9733
-2.7081 5.9298 -1.8455 0.9733
-2.9181 5.8296 -1.8455 0.9733
-3.1244 5.7220 -1.8456 0.9733
-3.3268 5.6071 -1.8457 0.9733
-3.5250 5.4850 -1.8458 0.9733
-3.7187 5.3559 -1.8459 0.9733
-3.9077 5.2201 -1.8460 0.9733
-4.0918 5.0776 -1.8461 0.9733
-4.2706 4.9286 -1.8462 0.9733
-4.4441 4.7733 -1.8463 0.9733
-4.8055 4.4741 -1.8588 0.9731
-5.4575 4.3979 -1.9842 0.9713
-6.4256 2.9344 -1.9997 0.9711
-6.5267 2.7034 -1.9999 0.9711
-6.7800 1.9908 -2.0004 0.9711
-6.8473 1.7477 -2.0006 0.9710
-6.9059 1.5023 -2.0007 0.9710
-6.9558 1.2549 -2.0009 0.9710
-7.0519 0.5044 -2.0014 0.9710
6.5085 0.0000 -2.0019 0.9731
6.4909 0.4642 -2.0016 0.9731
6.4025 1.1551 -2.0011 0.9731
6.0933 2.2727 -2.0003 0.9732
5.9148 2.7012 -2.0000 0.9732
5.3393 3.7071 -1.9993 0.9732
5.1965 3.8901 -1.9966 0.9732
3.5973 4.8054 -1.8463 0.9752
3.0626 5.1617 -1.8460 0.9752
2.8763 5.2675 -1.8460 0.9752
2.6863 5.3666 -1.8459 0.9752
2.4930 5.4589 -1.8458 0.9752
2.2965 5.5442 -1.8458 0.9752
1.8950 5.6936 -1.8457 0.9752
1.0653 5.9048 -1.8455 0.9752
0.4280 5.9846 -1.8455 0.9752
0.2142 5.9961 -1.8454 0.9752
-0.0000 5.9999 -1.8454 0.9752
-0.4280 5.9846 -1.8454 0.9752
-0.6414 5.9656 -1.8455 0.9752
-0.8539 5.9389 -1.8455 0.9752
-1.4839 5.8139 -1.8456 0.9752
-2.0970 5.6224 -1.8457 0.9752
-2.6863 5.3665 -1.8459 0.9752
-2.8762 5.2674 -1.8459 0.9752
-3.2449 5.0492 -1.8461 0.9752
-4.1950 4.5058 -1.8936 0.9746
-4.4781 4.4781 -1.9479 0.9738
-4.7396 4.4127 -1.9918 0.9733
-4.9008 4.2466 -1.9946 0.9732
-5.0564 4.0747 -1.9974 0.9732
-5.2031 3.8950 -1.9991 0.9732
-5.3391 3.7070 -1.9992 0.9732
-5.4684 3.5143 -1.9993 0.9732
-5.5907 3.3171 -1.9995 0.9732
-5.8139 2.9103 -1.9998 0.9732
-6.0076 2.4884 -2.0001 0.9732
-6.0931 2.2726 -2.0002 0.9732
-6.1708 2.0538 -2.0004 0.9731
-6.3565 1.3828 -2.0008 0.9731
-6.4023 1.1551 -2.0010 0.9731
-6.4399 0.9259 -2.0012 0.9731
-6.4906 0.4642 -2.0015 0.9731
-6.5036 0.2323 -2.0016 0.9731
6.0224 0.0000 -2.0019 0.9749
5.9593 0.8568 -2.0013 0.9749
5.8821 1.2796 -2.0010 0.9749
5.8323 1.4886 -2.0008 0.9749
5.4734 2.4996 -2.0001 0.9750
5.2804 2.8833 -1.9999 0.9750
5.0606 3.2522 -1.9996 0.9750
4.9410 3.4306 -1.9995 0.9750
4.6831 3.7739 -1.9992 0.9750
4.5406 3.9345 -1.9971 0.9750
4.3919 4.0890 -1.9947 0.9750
4.2381 4.2381 -1.9923 0.9751
4.0275 4.3259 -1.9647 0.9754
3.7782 4.3603 -1.9178 0.9760
3.5396 4.3924 -1.8751 0.9765
3.1681 4.5629 -1.8465 0.9769
3.0030 4.6728 -1.8464 0.9769
2.1253 5.1309 -1.8461 0.9769
1.7537 5.2692 -1.8460 0.9769
1.5645 5.3283 -1.8459 0.9769
1.1804 5.4261 -1.8458 0.9769
0.9859 5.4647 -1.8458 0.9769
0.7903 5.4963 -1.8458 0.9769
0.5936 5.5210 -1.8458 0.9769
0.3961 5.5386 -1.8458 0.9769
-0.1982 5.5492 -1.8458 0.9769
-0.3961 5.5386 -1.8458 0.9769
-0.7903 5.4963 -1.8458 0.9769
-0.9859 5.4646 -1.8458 0.9769
-1.1804 5.4261 -1.8458 0.9769
-1.7537 5.2691 -1.8459 0.9769
-2.1253 5.1308 -1.8460 0.9769
-2.4860 4.9664 -1.8461 0.9769
-2.6618 4.8747 -1.8462 0.9769
-3.0030 4.6727 -1.8463 0.9769
-3.4049 4.5484 -1.8886 0.9763
-3.9057 4.5074 -1.9825 0.9752
-4.0854 4.3880 -1.9929 0.9750
-4.8149 3.6044 -1.9993 0.9750
-5.0604 3.2521 -1.9995 0.9750
-5.2802 2.8832 -1.9998 0.9750
-5.5593 2.3027 -2.0002 0.9750
-5.6383 2.1030 -2.0003 0.9750
-5.7102 1.9005 -2.0005 0.9750
-5.8321 1.4885 -2.0008 0.9749
-5.8819 1.2795 -2.0009 0.9749
-5.9243 1.0689 -2.0011 0.9749
-5.9863 0.6436 -2.0014 0.9749
-6.0059 0.4296 -2.0015 0.9749
-6.0179 0.2150 -2.0017 0.9749
5.5980 -0.0000 -2.0019 0.9765
5.5395 0.7964 -2.0013 0.9765
5.4678 1.1894 -2.0010 0.9765
5.3682 1.5763 -2.0008 0.9765
5.3082 1.7667 -2.0006 0.9765
5.1680 2.1406 -2.0004 0.9765
4.9086 2.6803 -2.0000 0.9765
4.8095 2.8536 -1.9999 0.9765
4.7043 3.0233 -1.9998 0.9765
4.4761 3.3508 -1.9995 0.9765
4.3534 3.5082 -1.9994 0.9765
4.2252 3.6612 -1.9993 0.9765
3.9504 3.9504 -1.9979 0.9765
3.8029 4.0846 -1.9958 0.9766
3.6510 4.2135 -1.9938 0.9766
3.4949 4.3370 -1.9918 0.9766
2.6500 4.4663 -1.8572 0.9782
2.4746 4.5318 -1.8465 0.9783
1.6304 4.8985 -1.8462 0.9783
1.2767 5.0021 -1.8461 0.9783
1.0974 5.0444 -1.8461 0.9783
0.7347 5.1097 -1.8461 0.9783
0.5518 5.1326 -1.8461 0.9783
0.3683 5.1490 -1.8460 0.9783
0.1843 5.1589 -1.8460 0.9783
0.0000 5.1621 -1.8460 0.9783
-0.1842 5.1589 -1.8460 0.9783
-0.5518 5.1326 -1.8460 0.9783
-0.7347 5.1097 -1.8461 0.9783
-1.4545 4.9534 -1.8462 0.9783
-1.6304 4.8984 -1.8462 0.9783
-1.8042 4.8372 -1.8462 0.9783
-2.1448 4.6965 -1.8463 0.9783
-2.3111 4.6170 -1.8464 0.9783
-2.5045 4.5867 -1.8688 0.9780
-2.9291 4.5578 -1.9375 0.9772
-3.8081 4.0901 -1.9985 0.9765
-4.2251 3.6611 -1.9993 0.9765
-4.4760 3.3507 -1.9995 0.9765
-4.7042 3.0232 -1.9997 0.9765
-4.8094 2.8535 -1.9998 0.9765
-4.9085 2.6802 -1.9999 0.9765
-5.0013 2.5035 -2.0001 0.9765
-5.0878 2.3235 -2.0002 0.9765
-5.1678 2.1406 -2.0003 0.9765
-5.4213 1.3837 -2.0008 0.9765
-5.4676 1.1894 -2.0010 0.9765
-5.5393 0.7964 -2.0012 0.9765
-5.5938 0.1998 -2.0017 0.9765
5.2099 0.3726 -2.0016 0.9779
5.1929 0.5583 -2.0015 0.9779
5.1693 0.7432 -2.0014 0.9779
5.1392 0.9272 -2.0012 0.9779
5.1025 1.1100 -2.0011 0.9779
5.0593 1.2913 -2.0010 0.9779
4.9537 1.6487 -2.0007 0.9779
4.8914 1.8244 -2.0006 0.9779
4.8228 1.9977 -2.0005 0.9779
4.7482 2.1684 -2.0004 0.9779
4.5808 2.5013 -2.0001 0.9779
4.2865 2.9762 -1.9998 0.9779
4.1773 3.1271 -1.9997 0.9779
3.9432 3.4168 -1.9995 0.9779
3.6890 3.6890 -1.9993 0.9779
3.5549 3.8182 -1.9992 0.9779
3.4158 3.9421 -1.9989 0.9779
3.2699 4.0577 -1.9971 0.9779
3.1203 4.1682 -1.9953 0.9779
2.9671 4.2734 -1.9937 0.9780
2.6371 4.4445 -1.9805 0.9781
1.8698 4.5142 -1.8724 0.9793
1.6893 4.5292 -1.8525 0.9795
1.5216 4.5717 -1.8464 0.9796
1.3574 4.6230 -1.8464 0.9796
1.1916 4.6684 -1.8464 0.9796
1.0241 4.7079 -1.8464 0.9796
0.8554 4.7414 -1.8463 0.9796
0.1720 4.8147 -1.8463 0.9796
0.0000 4.8178 -1.8463 0.9796
-1.0242 4.7079 -1.8463 0.9796
-1.3574 4.6230 -1.8464 0.9796
-2.2892 4.5732 -1.9598 0.9783
-2.8133 4.3775 -1.9941 0.9780
-2.9702 4.2779 -1.9958 0.9779
-3.1237 4.1728 -1.9975 0.9779
-3.5548 3.8181 -1.9991 0.9779
-3.8184 3.5551 -1.9993 0.9779
-3.9431 3.4167 -1.9994 0.9779
-4.0627 3.2739 -1.9995 0.9779
-4.1772 3.1270 -1.9996 0.9779
-4.2864 2.9761 -1.9997 0.9779
-4.3901 2.8214 -1.9998 0.9779
-4.5807 2.5013 -2.0001 0.9779
-4.7480 2.1683 -2.0003 0.9779
-4.9535 1.6487 -2.0007 0.9779
-5.0095 1.4709 -2.0008 0.9779
-5.1023 1.1100 -2.0010 0.9779
-5.1390 0.9272 -2.0012 0.9779
-5.1692 0.7432 -2.0013 0.9779
-5.2097 0.3726 -2.0015 0.9779
4.8121 0.8682 -2.0013 0.9791
4.6909 1.3774 -2.0009 0.9791
4.6384 1.5438 -2.0008 0.9791
4.5801 1.7083 -2.0007 0.9791
4.5160 1.8706 -2.0006 0.9791
4.4461 2.0304 -2.0004 0.9791
4.3705 2.1877 -2.0003 0.9791
4.2029 2.4937 -2.0001 0.9791
4.0139 2.7869 -1.9999 0.9791
3.6924 3.1995 -1.9996 0.9791
3.5757 3.3291 -1.9995 0.9791
3.3288 3.5754 -1.9994 0.9791
3.1989 3.6918 -1.9993 0.9791
3.0650 3.8034 -1.9992 0.9791
2.9272 3.9103 -1.9991 0.9791
2.7849 4.0110 -1.9985 0.9791
2.4882 4.1936 -1.9957 0.9791
2.3354 4.2770 -1.9944 0.9792
2.0220 4.4275 -1.9921 0.9792
1.6810 4.5069 -1.9687 0.9794
1.5045 4.5202 -1.9498 0.9796
1.1600 4.5449 -1.9197 0.9799
0.4917 4.5738 -1.8827 0.9803
-0.1641 4.5932 -1.8811 0.9803
-0.6605 4.5940 -1.8995 0.9801
-0.9990 4.5924 -1.9235 0.9799
-1.1718 4.5910 -1.9392 0.9797
-1.3472 4.5880 -1.9570 0.9795
-1.5250 4.5818 -1.9763 0.9793
-1.7003 4.5587 -1.9913 0.9792
-1.8629 4.4975 -1.9924 0.9792
-2.0234 4.4306 -1.9935 0.9792
-2.1816 4.3583 -1.9947 0.9792
-2.4904 4.1974 -1.9975 0.9791
-2.7856 4.0120 -1.9990 0.9791
-3.0650 3.8034 -1.9992 0.9791
-3.5756 3.3290 -1.9995 0.9791
-3.8044 3.0657 -1.9997 0.9791
-3.9115 2.9281 -1.9998 0.9791
-4.2028 2.4936 -2.0001 0.9791
-4.4460 2.0304 -2.0004 0.9791
-4.5800 1.7082 -2.0006 0.9791
-2.1703 0.3916 -0.9026 0.9905
-1.9449 0.2796 -0.8042 0.9915
-1.9570 0.2104 -0.8056 0.9915
4.5934 0.0000 -2.0019 0.9802
4.5902 0.1639 -2.0018 0.9802
4.5812 0.3276 -2.0016 0.9802
4.5456 0.6536 -2.0014 0.9802
4.5191 0.8153 -2.0013 0.9802
4.4053 1.2935 -2.0010 0.9802
4.3013 1.6043 -2.0007 0.9802
4.2411 1.7567 -2.0006 0.9802
4.1046 2.0546 -2.0004 0.9802
4.0284 2.1997 -2.0003 0.9802
3.9471 2.3419 -2.0002 0.9802
3.8608 2.4812 -2.0001 0.9802
3.7696 2.6173 -2.0000 0.9802
3.4678 3.0048 -1.9998 0.9802
3.3582 3.1266 -1.9997 0.9802
3.1263 3.3579 -1.9995 0.9802
3.0044 3.4672 -1.9994 0.9802
2.8786 3.5721 -1.9994 0.9802
2.7492 3.6724 -1.9993 0.9802
2.6162 3.7681 -1.9992 0.9802
2.1982 4.0257 -1.9990 0.9802
1.9033 4.1677 -1.9968 0.9802
1.7525 4.2309 -1.9958 0.9802
1.5996 4.2888 -1.9949 0.9802
1.4450 4.3415 -1.9941 0.9802
1.2887 4.3888 -1.9935 0.9802
0.9717 4.4670 -1.9923 0.9803
0.6503 4.5231 -1.9915 0.9803
-0.0000 4.5685 -1.9910 0.9803
-0.1631 4.5658 -1.9911 0.9803
-0.6505 4.5241 -1.9919 0.9803
-0.9720 4.4685 -1.9930 0.9802
-1.6006 4.2913 -1.9961 0.9802
-2.1982 4.0257 -1.9990 0.9802
-2.3406 3.9448 -1.9991 0.9802
-2.6162 3.7680 -1.9992 0.9802
-2.8785 3.5720 -1.9993 0.9802
-3.2442 3.2442 -1.9995 0.9802
-3.3581 3.1265 -1.9996 0.9802
-3.7695 2.6172 -2.0000 0.9802
-4.0283 2.1996 -2.0003 0.9802
-4.1044 2.0545 -2.0004 0.9802
-4.1754 1.9068 -2.0005 0.9802
-4.2410 1.7567 -2.0006 0.9802
-1.5707 0.4612 -0.7134 0.9929
-1.5001 0.2707 -0.6643 0.9934
-1.5293 0.1094 -0.6682 0.9933
4.3133 0.3085 -2.0017 0.9811
4.2993 0.4622 -2.0015 0.9811
4.2798 0.6153 -2.0014 0.9811
4.2549 0.7677 -2.0013 0.9811
4.2246 0.9190 -2.0012 0.9811
4.1015 1.3651 -2.0009 0.9811
3.9933 1.6540 -2.0007 0.9811
3.8647 1.9345 -2.0005 0.9811
3.7930 2.0711 -2.0004 0.9811
3.4590 2.5894 -2.0001 0.9811
3.2652 2.8293 -1.9999 0.9811
3.1620 2.9439 -1.9998 0.9811
2.9437 3.1618 -1.9996 0.9811
2.8289 3.2647 -1.9996 0.9811
2.4634 3.5480 -1.9994 0.9811
2.2039 3.7145 -1.9993 0.9811
1.7941 3.9285 -1.9991 0.9811
1.6527 3.9900 -1.9991 0.9811
1.5092 4.0463 -1.9990 0.9811
1.3635 4.0966 -1.9985 0.9811
1.2160 4.1413 -1.9979 0.9812
1.0671 4.1809 -1.9973 0.9812
0.7658 4.2443 -1.9963 0.9812
0.6137 4.2682 -1.9960 0.9812
0.4609 4.2869 -1.9958 0.9812
0.1539 4.3084 -1.9955 0.9812
0.0000 4.3112 -1.9956 0.9812
-0.1539 4.3087 -1.9957 0.9812
-0.3076 4.3008 -1.9958 0.9812
-0.4610 4.2876 -1.9961 0.9812
-1.0675 4.1824 -1.9980 0.9812
-1.3638 4.0975 -1.9990 0.9811
-1.5092 4.0463 -1.9990 0.9811
-1.7941 3.9285 -1.9991 0.9811
-1.9332 3.8620 -1.9991 0.9811
-2.0699 3.7907 -1.9992 0.9811
-2.4634 3.5480 -1.9993 0.9811
-2.5886 3.4579 -1.9994 0.9811
-2.7104 3.3634 -1.9995 0.9811
-2.9436 3.1617 -1.9996 0.9811
-3.1619 2.9439 -1.9998 0.9811
-3.2651 2.8292 -1.9998 0.9811
-3.3642 2.7110 -1.9999 0.9811
-3.4589 2.5893 -2.0000 0.9811
-3.5493 2.4643 -2.0001 0.9811
-3.7164 2.2050 -2.0003 0.9811
-3.8646 1.9345 -2.0005 0.9811
-1.3324 0.4435 -0.6500 0.9938
-1.3117 0.3348 -0.6266 0.9941
-1.3160 0.2374 -0.6190 0.9941
-1.3273 0.1908 -0.6207 0.9941
4.0811 0.0000 -2.0019 0.9820
4.0571 0.4362 -2.0016 0.9820
4.0387 0.5807 -2.0015 0.9820
3.9866 0.8672 -2.0013 0.9820
3.9529 1.0089 -2.0012 0.9820
3.9142 1.1493 -2.0011 0.9820
3.8219 1.4255 -2.0009 0.9820
3.7684 1.5609 -2.0008 0.9820
3.6471 1.8256 -2.0006 0.9820
3.5794 1.9545 -2.0005 0.9820
3.5072 2.0809 -2.0004 0.9820
3.1748 2.5585 -2.0001 0.9820
3.0814 2.6700 -2.0000 0.9820
2.8828 2.8828 -1.9998 0.9820
2.6697 3.0809 -1.9997 0.9820
2.5579 3.1741 -1.9996 0.9820
2.4429 3.2633 -1.9996 0.9820
2.3248 3.3483 -1.9995 0.9820
2.0799 3.5055 -1.9994 0.9820
1.8244 3.6447 -1.9993 0.9820
1.5597 3.7654 -1.9992 0.9820
1.4243 3.8186 -1.9992 0.9820
1.2870 3.8670 -1.9991 0.9820
1.1482 3.9104 -1.9991 0.9820
1.0079 3.9488 -1.9991 0.9820
0.5800 4.0338 -1.9990 0.9820
0.4356 4.0519 -1.9990 0.9820
0.2907 4.0648 -1.9990 0.9820
-0.2907 4.0648 -1.9990 0.9820
-0.5800 4.0338 -1.9990 0.9820
-0.7236 4.0105 -1.9990 0.9820
-1.0079 3.9488 -1.9991 0.9820
-1.1482 3.9103 -1.9991 0.9820
-1.5597 3.7654 -1.9992 0.9820
-1.6931 3.7074 -1.9992 0.9820
-1.9534 3.5773 -1.9993 0.9820
-2.0799 3.5054 -1.9994 0.9820
-2.3248 3.3483 -1.9995 0.9820
-2.4429 3.2633 -1.9995 0.9820
-2.5579 3.1741 -1.9996 0.9820
-2.6696 3.0809 -1.9997 0.9820
-2.7780 2.9837 -1.9997 0.9820
-2.8828 2.8828 -1.9998 0.9820
-2.9840 2.7782 -1.9999 0.9820
-3.1748 2.5584 -2.0000 0.9820
-3.3495 2.3256 -2.0002 0.9820
-3.5071 2.0809 -2.0004 0.9820
-1.1113 0.6068 -0.6211 0.9944
-1.1484 0.4757 -0.6097 0.9945
-1.1579 0.3854 -0.5986 0.9946
-1.1590 0.3403 -0.5925 0.9946
-1.1695 0.2544 -0.5871 0.9947
-1.1953 0.0855 -0.5878 0.9947
3.8361 0.4124 -2.0016 0.9828
3.7966 0.6850 -2.0014 0.9828
3.7695 0.8200 -2.0013 0.9828
3.7377 0.9540 -2.0012 0.9828
3.7011 1.0867 -2.0011 0.9828
3.6598 1.2181 -2.0010 0.9828
3.5632 1.4759 -2.0008 0.9828
3.5081 1.6021 -2.0007 0.9828
3.4485 1.7262 -2.0007 0.9828
3.3163 1.9677 -2.0005 0.9828
3.2439 2.0847 -2.0004 0.9828
3.1672 2.1991 -2.0003 0.9828
3.0866 2.3106 -2.0002 0.9828
3.0021 2.4192 -2.0002 0.9828
2.9137 2.5247 -2.0001 0.9828
2.5244 2.9133 -1.9998 0.9828
2.4187 3.0014 -1.9998 0.9828
2.3100 3.0858 -1.9997 0.9828
1.8471 3.3828 -1.9995 0.9828
1.3468 3.6109 -1.9993 0.9828
1.2170 3.6566 -1.9993 0.9828
0.9531 3.7340 -1.9992 0.9828
-0.0000 3.8536 -1.9991 0.9828
-0.1375 3.8511 -1.9991 0.9828
-0.2749 3.8438 -1.9991 0.9828
-0.5484 3.8144 -1.9992 0.9828
-0.6842 3.7924 -1.9992 0.9828
-0.8192 3.7656 -1.9992 0.9828
-0.9530 3.7340 -1.9992 0.9828
-1.0857 3.6976 -1.9992 0.9828
-1.2170 3.6566 -1.9993 0.9828
-1.6010 3.5057 -1.9994 0.9828
-1.7251 3.4464 -1.9994 0.9828
-1.8471 3.3827 -1.9995 0.9828
-1.9667 3.3147 -1.9995 0.9828
-2.0838 3.2425 -1.9996 0.9828
-2.1983 3.1661 -1.9996 0.9828
-2.3099 3.0857 -1.9997 0.9828
-2.4187 3.0014 -1.9997 0.9828
-2.5243 2.9132 -1.9998 0.9828
-2.6268 2.8214 -1.9998 0.9828
-2.7259 2.7259 -1.9999 0.9828
-3.2438 2.0846 -2.0004 0.9828
-1.0118 0.5525 -0.5981 0.9948
-1.0298 0.5154 -0.5974 0.9948
-1.0430 0.4763 -0.5948 0.9948
-1.0514 0.4355 -0.5904 0.9949
-1.0576 0.3945 -0.5856 0.9949
-1.0617 0.3533 -0.5805 0.9950
-1.0814 0.2352 -0.5741 0.9950
-1.0905 0.1967 -0.5749 0.9950
-1.1055 0.0791 -0.5750 0.9950
3.6454 0.2607 -2.0017 0.9835
3.6336 0.3906 -2.0016 0.9835
3.6172 0.5201 -2.0015 0.9835
3.5961 0.6488 -2.0014 0.9835
3.5705 0.7767 -2.0013 0.9835
3.5404 0.9036 -2.0012 0.9835
3.4666 1.1538 -2.0011 0.9835
3.4230 1.2767 -2.0010 0.9835
3.2665 1.6351 -2.0007 0.9835
3.0727 1.9747 -2.0005 0.9835
3.0001 2.0830 -2.0004 0.9835
2.9237 2.1887 -2.0003 0.9835
2.7600 2.3915 -2.0002 0.9835
2.5821 2.5821 -2.0001 0.9835
2.4883 2.6726 -2.0000 0.9835
2.3912 2.7596 -1.9999 0.9835
2.2911 2.8431 -1.9999 0.9835
1.9739 3.0715 -1.9997 0.9835
1.8630 3.1399 -1.9997 0.9835
1.7497 3.2043 -1.9996 0.9835
1.6342 3.2647 -1.9996 0.9835
1.5166 3.3208 -1.9995 0.9835
1.3971 3.3728 -1.9995 0.9835
1.2758 3.4204 -1.9995 0.9835
1.1528 3.4637 -1.9994 0.9835
0.6481 3.5924 -1.9993 0.9835
0.3902 3.6294 -1.9993 0.9835
0.2604 3.6410 -1.9993 0.9835
0.0000 3.6503 -1.9993 0.9835
-0.2604 3.6410 -1.9993 0.9835
-0.5195 3.6132 -1.9993 0.9835
-0.7759 3.5670 -1.9993 0.9835
-0.9028 3.5370 -1.9994 0.9835
-1.0285 3.5026 -1.9994 0.9835
-1.2757 3.4204 -1.9994 0.9835
-1.3970 3.3728 -1.9995 0.9835
-1.5166 3.3208 -1.9995 0.9835
-1.7497 3.2043 -1.9996 0.9835
-1.9739 3.0714 -1.9997 0.9835
-2.0823 2.9991 -1.9997 0.9835
-2.2911 2.8431 -1.9998 0.9835
-2.5821 2.5821 -2.0000 0.9835
-2.7599 2.3915 -2.0001 0.9835
-2.9237 2.1887 -2.0003 0.9835
-0.9084 0.5390 -0.5785 0.9952
-0.9269 0.5061 -0.5784 0.9952
-0.9434 0.4722 -0.5778 0.9952
-0.9580 0.4375 -0.5768 0.9952
-0.9785 0.3257 -0.5648 0.9953
-1.0190 0.1465 -0.5638 0.9953
-1.0265 0.0734 -0.5637 0.9953
2.0366 0.2190 -1.1826 0.9906
2.0300 0.2919 -1.1841 0.9906
2.0153 0.3636 -1.1823 0.9906
1.9883 0.4325 -1.1748 0.9906
1.9351 0.5682 -1.1644 0.9907
1.8682 0.6968 -1.1512 0.9908
1.8620 0.7713 -1.1636 0.9907
1.8507 0.8452 -1.1747 0.9906
3.0989 1.5512 -2.0008 0.9841
3.0414 1.6607 -2.0007 0.9841
2.9801 1.7682 -2.0006 0.9841
2.9150 1.8733 -2.0005 0.9841
2.7737 2.0764 -2.0004 0.9841
2.6978 2.1740 -2.0003 0.9841
2.6183 2.2688 -2.0003 0.9841
2.5356 2.3607 -2.0002 0.9841
2.4497 2.4497 -2.0001 0.9841
2.3606 2.5354 -2.0001 0.9841
2.2685 2.6180 -2.0000 0.9841
2.0759 2.7730 -1.9999 0.9841
1.9755 2.8453 -1.9999 0.9841
1.8727 2.9139 -1.9998 0.9841
1.7674 2.9788 -1.9998 0.9841
1.6599 3.0399 -1.9997 0.9841
0.8565 3.3557 -1.9995 0.9841
0.7362 3.3840 -1.9995 0.9841
0.4929 3.4279 -1.9994 0.9841
0.3702 3.4433 -1.9994 0.9841
0.2471 3.4543 -1.9994 0.9841
-0.0000 3.4631 -1.9994 0.9841
-0.1236 3.4609 -1.9994 0.9841
-0.2470 3.4543 -1.9994 0.9841
-0.3702 3.4433 -1.9994 0.9841
-0.4929 3.4279 -1.9994 0.9841
-0.6149 3.4081 -1.9995 0.9841
-0.8565 3.3556 -1.9995 0.9841
-0.9757 3.3229 -1.9995 0.9841
-1.2103 3.2450 -1.9996 0.9841
-1.3254 3.1998 -1.9996 0.9841
-1.4388 3.1505 -1.9996 0.9841
-1.8726 2.9139 -1.9998 0.9841
-2.2685 2.6180 -2.0000 0.9841
-2.3606 2.5354 -2.0001 0.9841
-2.4496 2.4496 -2.0001 0.9841
-2.5356 2.3607 -2.0002 0.9841
-2.6183 2.2688 -2.0002 0.9841
-0.7846 0.5873 -0.5658 0.9955
-0.8178 0.5256 -0.5613 0.9955
-0.9011 0.3361 -0.5553 0.9956
-0.9058 0.3015 -0.5511 0.9956
-0.9259 0.2363 -0.5517 0.9956
-0.9430 0.1701 -0.5532 0.9956
-0.9538 0.1025 -0.5538 0.9956
