ply
format ascii 1.0
element vertex 743
property float32 x
property float32 y
property float32 z
property float32 I
end_header
-3.2666 6.5258 1.2868 0.9708
-3.5429 6.4883 1.3035 0.9704
-3.5419 6.4865 1.1322 0.9705
-3.0991 6.7861 0.9715 0.9704
-3.2575 6.5077 0.9477 0.9711
-3.0948 6.7766 0.8000 0.9705
-3.2486 6.4899 0.6144 0.9713
-3.5389 6.4810 0.6251 0.9708
-3.0861 6.7577 0.4607 0.9707
-3.0819 6.7484 0.2925 0.9707
-3.2427 6.4781 0.2857 0.9714
-3.0776 6.7391 0.1251 0.9708
-3.5359 6.4755 0.1246 0.9709
-3.0734 6.7298 -0.0417 0.9708
-3.2409 6.4745 -0.0408 0.9715
-3.5349 6.4737 -0.0415 0.9709
-3.0691 6.7205 -0.2080 0.9709
-3.2400 6.4728 -0.2038 0.9715
-3.0649 6.7113 -0.3742 0.9709
-3.2391 6.4710 -0.3670 0.9714
-3.0607 6.7021 -0.5402 0.9709
-3.2383 6.4692 -0.5304 0.9714
-3.2374 6.4675 -0.6944 0.9714
-3.5310 6.4665 -0.7073 0.9708
-3.0523 6.6835 -0.8728 0.9708
-3.2365 6.4657 -0.8589 0.9713
-3.5300 6.4647 -0.8749 0.9708
-3.0480 6.6743 -1.0396 0.9708
-0.7345 5.1088 -0.8503 0.9793
-2.2098 7.5260 -1.2922 0.9687
-3.3158 8.0050 -1.4274 0.9655
-3.0438 6.6650 -1.2071 0.9707
-3.2347 6.4620 -1.1905 0.9711
-3.5280 6.4610 -1.2127 0.9706
-0.7338 5.1037 -0.9692 0.9792
-2.2336 7.6071 -1.4902 0.9682
-2.2312 6.7036 -1.3280 0.9717
-3.6865 5.7362 -1.2817 0.9726
9.4622 0.3379 -2.0014 0.9620
9.4438 0.6754 -2.0013 0.9620
9.4134 1.0120 -2.0013 0.9620
9.3167 1.6809 -2.0012 0.9620
9.0828 2.6670 -2.0010 0.9620
8.7365 3.6187 -1.9989 0.9621
8.5814 3.9190 -1.9941 0.9622
7.6755 4.1911 -1.8486 0.9649
7.5208 4.4623 -1.8485 0.9649
7.3566 4.7278 -1.8485 0.9649
6.8086 5.4867 -1.8484 0.9649
6.6083 5.7261 -1.8483 0.9649
5.9580 6.3994 -1.8482 0.9649
5.4862 6.8079 -1.8482 0.9649
4.4612 7.5190 -1.8481 0.9649
4.1900 7.6734 -1.8481 0.9649
3.6318 7.9526 -1.8480 0.9649
3.3457 8.0771 -1.8480 0.9649
3.0552 8.1914 -1.8480 0.9649
2.7609 8.2951 -1.8480 0.9649
2.4631 8.3884 -1.8480 0.9649
2.1621 8.4709 -1.8480 0.9649
1.8584 8.5427 -1.8480 0.9649
1.5523 8.6036 -1.8480 0.9649
0.6237 8.7203 -1.8480 0.9649
-0.7331 5.0985 -1.0888 0.9792
-1.5524 8.6042 -1.8481 0.9649
-1.8585 8.5434 -1.8481 0.9649
-2.2311 6.7035 -1.4934 0.9715
-2.2292 5.9766 -1.3483 0.9743
-3.1431 5.7562 -1.3863 0.9735
-3.4149 5.7555 -1.4146 0.9730
-3.6984 5.7547 -1.4460 0.9724
-3.9950 5.7539 -1.4807 0.9718
-4.3067 5.7531 -1.5191 0.9710
-5.7272 6.6096 -1.8487 0.9649
-6.8107 5.4884 -1.8489 0.9649
-7.0025 5.2420 -1.8490 0.9649
-7.3590 4.7294 -1.8491 0.9649
-7.6801 4.1936 -1.8497 0.9649
-8.7467 3.6230 -2.0012 0.9620
-8.8722 3.3092 -2.0016 0.9620
-8.9850 2.9905 -2.0017 0.9620
-9.0863 2.6680 -2.0017 0.9620
-9.1760 2.3420 -2.0018 0.9620
-9.2541 2.0131 -2.0019 0.9620
-9.3747 1.3479 -2.0020 0.9620
-9.4171 1.0124 -2.0021 0.9620
-9.4660 0.3381 -2.0022 0.9620
8.4286 1.2118 -2.0013 0.9656
8.3797 1.5118 -2.0012 0.9656
8.1695 2.3988 -2.0011 0.9656
8.0784 2.6887 -2.0010 0.9656
7.9771 2.9753 -2.0010 0.9656
7.8657 3.2581 -2.0009 0.9656
7.7442 3.5366 -2.0009 0.9656
7.6023 3.8054 -1.9981 0.9657
7.4462 4.0659 -1.9939 0.9657
7.0268 4.1692 -1.9203 0.9670
6.6169 4.2524 -1.8486 0.9682
6.4608 4.4858 -1.8486 0.9682
5.7562 5.3592 -1.8484 0.9682
4.9347 6.1235 -1.8483 0.9682
4.7129 6.2957 -1.8483 0.9682
4.2517 6.6157 -1.8482 0.9682
4.0128 6.7632 -1.8482 0.9682
3.7688 6.9020 -1.8482 0.9682
3.5200 7.0321 -1.8482 0.9682
3.0094 7.2652 -1.8482 0.9682
2.7481 7.3679 -1.8482 0.9682
1.6716 7.6840 -1.8482 0.9682
1.1191 7.7837 -1.8482 0.9682
-0.5610 7.8440 -1.8482 0.9682
-1.6717 7.6846 -1.8483 0.9682
-1.9449 7.6201 -1.8483 0.9682
-2.1421 7.2952 -1.7869 0.9692
-2.2311 6.7035 -1.6605 0.9714
-2.3852 5.7583 -1.4648 0.9747
-2.6294 5.7577 -1.4876 0.9743
-2.8817 5.7570 -1.5131 0.9739
-3.6984 5.7548 -1.6077 0.9723
-4.5541 5.6513 -1.7058 0.9706
-5.1514 5.9450 -1.8488 0.9682
-5.5626 5.5626 -1.8489 0.9682
-5.7577 5.3606 -1.8489 0.9682
-5.9456 5.1519 -1.8490 0.9682
-6.1258 4.9365 -1.8490 0.9682
-6.2983 4.7148 -1.8490 0.9682
-6.4627 4.4871 -1.8491 0.9682
-6.6469 4.2717 -1.8570 0.9681
-7.4527 4.0695 -1.9957 0.9657
-7.8683 3.2592 -2.0016 0.9656
-8.0812 2.6897 -2.0017 0.9656
-8.2529 2.1064 -2.0018 0.9656
-8.4316 1.2123 -2.0020 0.9656
-8.4697 0.9106 -2.0020 0.9656
-8.4970 0.6077 -2.0021 0.9656
7.7304 -0.0000 -2.0015 0.9686
7.7253 0.2759 -2.0015 0.9686
7.7103 0.5514 -2.0014 0.9686
7.6066 1.3724 -2.0013 0.9686
7.5526 1.6430 -2.0012 0.9686
7.2413 2.7008 -2.0011 0.9686
7.1401 2.9575 -2.0010 0.9686
7.0298 3.2104 -2.0010 0.9686
6.7826 3.7035 -2.0009 0.9686
6.6349 3.9366 -1.9975 0.9686
6.4784 4.1634 -1.9939 0.9687
5.2253 4.8650 -1.8485 0.9709
5.0483 5.0483 -1.8485 0.9709
4.8648 5.2252 -1.8485 0.9709
4.6752 5.3954 -1.8485 0.9709
4.4796 5.5588 -1.8484 0.9709
4.2782 5.7150 -1.8484 0.9709
3.4212 6.2655 -1.8483 0.9709
2.7318 6.5952 -1.8483 0.9709
2.4947 6.6885 -1.8483 0.9709
2.2544 6.7733 -1.8483 0.9709
2.0112 6.8494 -1.8483 0.9709
1.7654 6.9168 -1.8483 0.9709
1.5174 6.9754 -1.8483 0.9709
1.2675 7.0251 -1.8483 0.9709
0.7631 7.0977 -1.8483 0.9709
0.2548 7.1341 -1.8483 0.9709
-0.5093 7.1206 -1.8484 0.9709
-0.5368 4.9930 -1.3002 0.9795
-0.7162 4.9810 -1.3029 0.9794
-1.7655 6.9174 -1.8484 0.9709
-2.0113 6.8500 -1.8485 0.9709
-2.1397 6.4287 -1.7543 0.9724
-2.2292 5.9766 -1.6516 0.9740
-2.6295 5.7577 -1.6389 0.9742
-3.1411 5.7525 -1.6970 0.9733
-3.3567 5.6575 -1.7033 0.9732
-4.6761 5.3966 -1.8489 0.9709
-6.6397 3.9396 -1.9990 0.9686
-7.1422 2.9584 -2.0016 0.9686
-7.4181 2.1782 -2.0018 0.9686
-7.5550 1.6435 -2.0019 0.9686
-7.6090 1.3728 -2.0019 0.9686
-7.6880 0.8266 -2.0020 0.9686
-7.7128 0.5516 -2.0021 0.9686
-7.7278 0.2760 -2.0021 0.9686
7.0703 -0.0000 -2.0016 0.9710
7.0657 0.2523 -2.0015 0.9710
7.0520 0.5043 -2.0015 0.9710
7.0293 0.7557 -2.0014 0.9710
6.9977 1.0061 -2.0014 0.9710
6.8496 1.7483 -2.0012 0.9710
6.6231 2.4703 -2.0011 0.9710
6.3207 3.1639 -2.0010 0.9710
6.2036 3.3874 -2.0010 0.9710
6.0787 3.6066 -2.0009 0.9710
5.9450 3.8206 -2.0006 0.9710
5.7953 4.0238 -1.9973 0.9711
4.4496 4.7792 -1.8486 0.9732
4.2762 4.9349 -1.8486 0.9732
3.5302 5.4931 -1.8485 0.9732
3.3319 5.6155 -1.8485 0.9732
3.1293 5.7308 -1.8485 0.9732
2.9227 5.8388 -1.8484 0.9732
2.7124 5.9394 -1.8484 0.9732
2.4987 6.0324 -1.8484 0.9732
2.2818 6.1177 -1.8484 0.9732
2.0620 6.1952 -1.8484 0.9732
1.8395 6.2649 -1.8484 0.9732
1.3879 6.3801 -1.8484 0.9732
1.1593 6.4256 -1.8484 0.9732
0.2331 6.5253 -1.8484 0.9732
-0.5347 4.9737 -1.4161 0.9794
-0.7149 4.9723 -1.4221 0.9793
-1.1594 6.4259 -1.8485 0.9732
-2.0622 6.1958 -1.8486 0.9732
-2.1378 5.7316 -1.7318 0.9749
-2.3402 5.6497 -1.7312 0.9749
-3.0839 5.6477 -1.8216 0.9736
-3.3323 5.6164 -1.8488 0.9732
-3.5307 5.4939 -1.8488 0.9732
-3.7246 5.3645 -1.8488 0.9732
-4.4505 4.7802 -1.8490 0.9732
-4.6184 4.6184 -1.8490 0.9732
-5.3867 4.3409 -1.9585 0.9716
-5.7988 4.0262 -1.9985 0.9711
-5.9474 3.8222 -2.0014 0.9710
-6.0802 3.6076 -2.0014 0.9710
-6.2053 3.3883 -2.0015 0.9710
-6.3224 3.1648 -2.0015 0.9710
-6.4315 2.9372 -2.0016 0.9710
-6.5324 2.7058 -2.0016 0.9710
-6.7091 2.2330 -2.0017 0.9710
-6.7847 1.9921 -2.0018 0.9710
-6.9098 1.5031 -2.0019 0.9710
-6.9592 1.2556 -2.0019 0.9710
-7.0541 0.5045 -2.0021 0.9710
-7.0678 0.2525 -2.0021 0.9710
6.5033 0.2323 -2.0015 0.9731
6.4907 0.4642 -2.0015 0.9731
6.3581 1.3831 -2.0013 0.9731
6.0960 2.2737 -2.0012 0.9731
5.7100 3.1179 -2.0010 0.9731
5.5950 3.3197 -2.0010 0.9731
5.3437 3.7102 -2.0009 0.9731
5.2059 3.8970 -2.0002 0.9732
5.0562 4.0745 -1.9973 0.9732
4.9008 4.2465 -1.9945 0.9732
4.3753 4.3753 -1.9032 0.9744
3.7713 4.6798 -1.8486 0.9752
3.6018 4.8114 -1.8486 0.9752
2.4966 5.4669 -1.8485 0.9752
1.8979 5.7023 -1.8485 0.9752
1.6932 5.7665 -1.8485 0.9752
1.2775 5.8725 -1.8485 0.9752
0.4287 5.9946 -1.8485 0.9752
0.2145 6.0061 -1.8485 0.9752
0.0000 6.0100 -1.8485 0.9752
-0.4288 5.9947 -1.8486 0.9752
-0.7133 4.9609 -1.5416 0.9792
-1.0671 5.9147 -1.8486 0.9752
-1.2776 5.8729 -1.8486 0.9752
-1.4864 5.8236 -1.8486 0.9752
-2.1004 5.6315 -1.8487 0.9752
-2.3001 5.5530 -1.8487 0.9752
-2.6905 5.3749 -1.8488 0.9752
-2.8807 5.2756 -1.8488 0.9752
-3.6024 4.8122 -1.8489 0.9752
-3.7719 4.6806 -1.8489 0.9752
-4.1228 4.4282 -1.8610 0.9750
-4.4053 4.4053 -1.9162 0.9743
-5.7114 3.1186 -2.0015 0.9731
-5.8191 2.9129 -2.0016 0.9731
-5.9195 2.7034 -2.0016 0.9731
-6.0124 2.4904 -2.0016 0.9731
-6.4425 0.9263 -2.0020 0.9731
-6.4716 0.6958 -2.0020 0.9731
-6.4925 0.4644 -2.0020 0.9731
5.9867 0.6437 -2.0015 0.9749
5.9598 0.8569 -2.0014 0.9749
5.9253 1.0690 -2.0014 0.9749
5.8337 1.4890 -2.0013 0.9749
5.7768 1.6962 -2.0013 0.9749
5.6409 2.1039 -2.0012 0.9749
5.5621 2.3039 -2.0012 0.9749
5.4762 2.5009 -2.0012 0.9749
5.3834 2.6947 -2.0011 0.9749
5.2837 2.8851 -2.0011 0.9749
5.1772 3.0718 -2.0011 0.9749
4.9448 3.4332 -2.0010 0.9749
4.8190 3.6075 -2.0010 0.9749
4.6871 3.7771 -2.0010 0.9749
4.3986 4.0952 -1.9977 0.9750
4.2445 4.2445 -1.9953 0.9750
3.8105 4.3975 -1.9342 0.9758
3.5609 4.4187 -1.8864 0.9764
3.3329 4.4522 -1.8487 0.9768
3.1719 4.5683 -1.8487 0.9768
3.0067 4.6786 -1.8487 0.9768
2.3103 5.0588 -1.8486 0.9768
1.9435 5.2107 -1.8486 0.9768
1.7563 5.2767 -1.8486 0.9768
1.5668 5.3360 -1.8486 0.9768
1.1821 5.4342 -1.8486 0.9768
0.9874 5.4729 -1.8486 0.9768
0.7915 5.5047 -1.8486 0.9768
0.5945 5.5294 -1.8486 0.9768
-0.1985 5.5578 -1.8486 0.9768
-0.3967 5.5472 -1.8486 0.9768
-0.5314 4.9430 -1.6526 0.9793
-0.7115 4.9489 -1.6620 0.9791
-0.9875 5.4731 -1.8487 0.9768
-1.1822 5.4345 -1.8487 0.9768
-2.3105 5.0593 -1.8488 0.9768
-2.4897 4.9737 -1.8488 0.9768
-3.1723 4.5690 -1.8489 0.9768
-3.3432 4.4661 -1.8544 0.9768
-3.5825 4.4456 -1.8978 0.9762
-4.0873 4.3901 -1.9939 0.9750
-4.2464 4.2464 -1.9962 0.9750
-4.6880 3.7779 -2.0014 0.9749
-4.9458 3.4340 -2.0014 0.9749
-5.1784 3.0725 -2.0015 0.9749
-5.2849 2.8857 -2.0015 0.9749
-5.3846 2.6953 -2.0016 0.9749
-5.5634 2.3044 -2.0017 0.9749
-5.7138 1.9017 -2.0017 0.9749
-5.8352 1.4893 -2.0018 0.9749
-5.8847 1.2801 -2.0019 0.9749
-5.9268 1.0693 -2.0019 0.9749
-5.9613 0.8571 -2.0019 0.9749
-6.0075 0.4297 -2.0020 0.9749
5.5973 0.0000 -2.0016 0.9765
5.5936 0.1998 -2.0016 0.9765
5.5828 0.3993 -2.0015 0.9765
5.5399 0.7965 -2.0015 0.9765
5.5078 0.9937 -2.0014 0.9765
5.4688 1.1896 -2.0014 0.9765
5.4227 1.3840 -2.0014 0.9765
5.3100 1.7673 -2.0013 0.9765
5.0904 2.3247 -2.0012 0.9765
5.0041 2.5049 -2.0012 0.9765
4.8125 2.8554 -2.0011 0.9765
4.7075 3.0253 -2.0011 0.9765
4.4796 3.3533 -2.0010 0.9765
4.3569 3.5110 -2.0010 0.9765
4.2288 3.6643 -2.0010 0.9765
3.9557 3.9557 -2.0005 0.9765
3.8078 4.0899 -1.9983 0.9765
3.4992 4.3423 -1.9943 0.9766
3.0789 4.4344 -1.9305 0.9773
2.6489 4.4645 -1.8564 0.9782
2.1475 4.7024 -1.8487 0.9783
1.8066 4.8436 -1.8487 0.9783
1.6325 4.9050 -1.8487 0.9783
1.4564 4.9602 -1.8487 0.9783
0.7357 5.1169 -1.8487 0.9783
0.3688 5.1564 -1.8487 0.9783
0.1845 5.1663 -1.8487 0.9783
-0.3688 5.1565 -1.8487 0.9783
-0.5301 4.9306 -1.7734 0.9792
-0.7098 4.9367 -1.7836 0.9790
-1.2785 5.0093 -1.8488 0.9783
-1.4565 4.9605 -1.8488 0.9783
-1.6327 4.9054 -1.8488 0.9783
-1.9785 4.7765 -1.8489 0.9783
-2.1477 4.7029 -1.8489 0.9783
-2.4778 4.5378 -1.8489 0.9783
-2.6600 4.4831 -1.8641 0.9781
-3.5006 4.3440 -1.9951 0.9766
-3.6571 4.2205 -1.9971 0.9766
-3.8094 4.0916 -1.9992 0.9765
-3.9572 3.9572 -2.0013 0.9765
-4.2296 3.6649 -2.0014 0.9765
-4.4804 3.3540 -2.0014 0.9765
-4.7084 3.0259 -2.0015 0.9765
-4.8135 2.8560 -2.0015 0.9765
-4.9125 2.6824 -2.0016 0.9765
-5.0915 2.3252 -2.0016 0.9765
-5.1713 2.1420 -2.0017 0.9765
-5.2446 1.9561 -2.0017 0.9765
-5.4700 1.1899 -2.0019 0.9765
-5.5662 0.5984 -2.0020 0.9765
5.2232 -0.0000 -2.0016 0.9779
5.2198 0.1864 -2.0016 0.9779
5.1931 0.5583 -2.0015 0.9779
5.1697 0.7433 -2.0015 0.9779
4.5833 2.5027 -2.0012 0.9779
4.4910 2.6647 -2.0012 0.9779
4.2894 2.9781 -2.0011 0.9779
4.1803 3.1293 -2.0011 0.9779
4.0659 3.2765 -2.0011 0.9779
3.9463 3.4195 -2.0011 0.9779
3.8217 3.5581 -2.0010 0.9779
3.6922 3.6922 -2.0010 0.9779
3.4194 3.9461 -2.0010 0.9779
3.2736 4.0623 -1.9993 0.9779
2.9703 4.2781 -1.9959 0.9779
2.8135 4.3778 -1.9943 0.9780
2.2357 4.4664 -1.9141 0.9788
2.0448 4.4774 -1.8863 0.9791
1.8589 4.4877 -1.8615 0.9794
1.3592 4.6288 -1.8487 0.9795
1.0255 4.7140 -1.8487 0.9795
0.8566 4.7476 -1.8487 0.9795
0.0000 4.8243 -1.8488 0.9795
-0.1722 4.8212 -1.8488 0.9795
-0.3442 4.8121 -1.8488 0.9795
-0.5157 4.7967 -1.8488 0.9795
-0.8566 4.7478 -1.8488 0.9795
-1.5236 4.5777 -1.8489 0.9795
-1.6860 4.5204 -1.8489 0.9795
-1.8652 4.5030 -1.8678 0.9793
-2.0521 4.4935 -1.8931 0.9791
-2.2442 4.4833 -1.9213 0.9788
-2.9712 4.2794 -1.9965 0.9779
-3.1248 4.1743 -1.9982 0.9779
-3.4199 3.9467 -2.0013 0.9779
-3.5586 3.8222 -2.0013 0.9779
-3.6928 3.6928 -2.0013 0.9779
-3.9470 3.4201 -2.0014 0.9779
-4.0666 3.2771 -2.0014 0.9779
-4.3938 2.8237 -2.0015 0.9779
-4.6707 2.3380 -2.0016 0.9779
-4.7513 2.1698 -2.0017 0.9779
-4.8941 1.8254 -2.0017 0.9779
-5.0121 1.4717 -2.0018 0.9779
-5.0615 1.2919 -2.0018 0.9779
-5.1045 1.1104 -2.0019 0.9779
-5.1409 0.9275 -2.0019 0.9779
-5.1708 0.7434 -2.0019 0.9779
-5.2109 0.3727 -2.0020 0.9779
4.8907 -0.0000 -2.0017 0.9791
4.8875 0.1746 -2.0016 0.9791
4.8625 0.5228 -2.0016 0.9791
4.8126 0.8683 -2.0015 0.9791
4.7785 1.0395 -2.0015 0.9791
4.6398 1.5443 -2.0014 0.9791
4.5177 1.8713 -2.0013 0.9791
3.9143 2.9302 -2.0011 0.9791
3.8071 3.0680 -2.0011 0.9791
3.5785 3.3317 -2.0011 0.9791
3.4573 3.4573 -2.0011 0.9791
3.3316 3.5784 -2.0011 0.9791
3.0678 3.8069 -2.0010 0.9791
2.9300 3.9140 -2.0010 0.9791
2.7877 4.0150 -2.0005 0.9791
2.4905 4.1974 -1.9975 0.9791
2.0237 4.4313 -1.9938 0.9792
1.8500 4.4663 -1.9786 0.9793
1.4929 4.4854 -1.9348 0.9798
1.1480 4.4979 -1.8999 0.9801
0.8131 4.5066 -1.8742 0.9804
0.6485 4.5102 -1.8649 0.9805
0.4853 4.5134 -1.8579 0.9806
0.1615 4.5220 -1.8519 0.9806
0.0000 4.5242 -1.8517 0.9806
-0.3234 4.5211 -1.8551 0.9806
-0.4857 4.5180 -1.8598 0.9806
-0.6492 4.5155 -1.8671 0.9805
-1.4965 4.4961 -1.9394 0.9797
-1.8563 4.4815 -1.9853 0.9793
-2.3380 4.2818 -1.9967 0.9791
-2.9303 3.9145 -2.0013 0.9791
-3.2022 3.6955 -2.0013 0.9791
-3.6957 3.2024 -2.0014 0.9791
-3.8077 3.0685 -2.0014 0.9791
-4.2059 2.4955 -2.0016 0.9791
-4.5185 1.8717 -2.0017 0.9791
-4.6930 1.3780 -2.0018 0.9791
-4.7392 1.2096 -2.0018 0.9791
-4.7795 1.0397 -2.0019 0.9791
-1.9570 0.2104 -0.8056 0.9915
4.5899 0.1639 -2.0016 0.9802
4.5459 0.6536 -2.0015 0.9802
4.5196 0.8154 -2.0015 0.9802
4.4875 0.9762 -2.0015 0.9802
4.4498 1.1357 -2.0015 0.9802
4.3027 1.6048 -2.0014 0.9802
4.1772 1.9076 -2.0013 0.9802
3.6759 2.7518 -2.0012 0.9802
3.3606 3.1288 -2.0011 0.9802
2.8811 3.5752 -2.0011 0.9802
2.7516 3.6757 -2.0011 0.9802
2.4823 3.8626 -2.0010 0.9802
2.1999 4.0289 -2.0006 0.9802
2.0535 4.1024 -1.9994 0.9802
1.6008 4.2920 -1.9964 0.9802
1.1316 4.4335 -1.9942 0.9802
0.4830 4.4929 -1.9693 0.9805
-0.6462 4.4948 -1.9791 0.9804
-1.4462 4.3453 -1.9959 0.9802
-1.9052 4.1717 -1.9987 0.9802
-2.0540 4.1034 -1.9999 0.9802
-2.6189 3.7719 -2.0013 0.9802
-3.1292 3.3610 -2.0014 0.9802
-3.4707 3.0074 -2.0014 0.9802
-3.7725 2.6192 -2.0015 0.9802
-3.8636 2.4830 -2.0016 0.9802
-4.0310 2.2011 -2.0016 0.9802
-1.5984 0.5962 -0.7435 0.9926
-1.5875 0.5284 -0.7292 0.9927
-1.5002 0.2706 -0.6643 0.9934
-1.5151 0.2178 -0.6671 0.9933
-1.5249 0.1639 -0.6684 0.9933
-1.5293 0.1094 -0.6682 0.9933
4.3244 -0.0000 -2.0017 0.9811
4.3215 0.1543 -2.0016 0.9811
4.3132 0.3085 -2.0016 0.9811
4.2801 0.6154 -2.0016 0.9811
4.2554 0.7677 -2.0015 0.9811
4.2252 0.9191 -2.0015 0.9811
4.1896 1.0693 -2.0015 0.9811
4.1026 1.3654 -2.0014 0.9811
3.9330 1.7961 -2.0014 0.9811
3.7947 2.0721 -2.0013 0.9811
3.7183 2.2061 -2.0013 0.9811
3.6371 2.3374 -2.0013 0.9811
3.4610 2.5909 -2.0012 0.9811
3.3663 2.7128 -2.0012 0.9811
3.2673 2.8312 -2.0012 0.9811
3.1642 2.9459 -2.0012 0.9811
3.0570 3.0570 -2.0012 0.9811
2.9459 3.1641 -2.0011 0.9811
2.7127 3.3662 -2.0011 0.9811
2.5908 3.4608 -2.0011 0.9811
2.4656 3.5510 -2.0011 0.9811
1.7958 3.9324 -2.0011 0.9811
1.5104 4.0495 -2.0006 0.9811
1.2167 4.1438 -1.9991 0.9811
0.7662 4.2467 -1.9975 0.9812
0.1540 4.3104 -1.9965 0.9812
0.0000 4.3132 -1.9965 0.9812
-0.1540 4.3106 -1.9966 0.9812
-0.4611 4.2893 -1.9969 0.9812
-0.6140 4.2708 -1.9972 0.9812
-0.7662 4.2470 -1.9976 0.9812
-0.9176 4.2180 -1.9981 0.9812
-1.0678 4.1837 -1.9987 0.9811
-1.5106 4.0502 -2.0009 0.9811
-1.9352 3.8661 -2.0012 0.9811
-2.0720 3.7946 -2.0012 0.9811
-2.4658 3.5514 -2.0013 0.9811
-2.8314 3.2676 -2.0014 0.9811
-3.2678 2.8316 -2.0015 0.9811
-3.3668 2.7131 -2.0015 0.9811
-3.4615 2.5913 -2.0015 0.9811
-3.5519 2.4661 -2.0015 0.9811
-3.6377 2.3378 -2.0016 0.9811
-3.7189 2.2065 -2.0016 0.9811
-1.3151 0.6006 -0.6692 0.9936
-1.3263 0.5494 -0.6645 0.9937
-1.3324 0.4435 -0.6500 0.9938
-1.3241 0.3888 -0.6388 0.9939
-1.3117 0.3348 -0.6266 0.9941
-1.3160 0.2374 -0.6190 0.9941
-1.3273 0.1908 -0.6207 0.9941
-1.3351 0.1435 -0.6215 0.9941
-1.3384 0.0957 -0.6211 0.9941
4.0781 0.1457 -2.0017 0.9820
4.0572 0.4362 -2.0016 0.9820
4.0156 0.7245 -2.0016 0.9820
3.9871 0.8673 -2.0015 0.9820
3.7114 1.6949 -2.0014 0.9820
3.6485 1.8263 -2.0014 0.9820
3.5809 1.9553 -2.0013 0.9820
3.5088 2.0819 -2.0013 0.9820
3.4323 2.2058 -2.0013 0.9820
3.3513 2.3269 -2.0013 0.9820
3.2661 2.4450 -2.0013 0.9820
3.1767 2.5600 -2.0012 0.9820
3.0833 2.6717 -2.0012 0.9820
2.8848 2.8848 -2.0012 0.9820
2.6716 3.0832 -2.0012 0.9820
2.5598 3.1766 -2.0012 0.9820
2.3267 3.3510 -2.0011 0.9820
2.2056 3.4319 -2.0011 0.9820
2.0817 3.5085 -2.0011 0.9820
1.9551 3.5805 -2.0011 0.9820
1.8261 3.6480 -2.0011 0.9820
1.6947 3.7108 -2.0011 0.9820
1.5612 3.7690 -2.0011 0.9820
1.4256 3.8223 -2.0011 0.9820
1.2883 3.8707 -2.0011 0.9820
0.5806 4.0379 -2.0011 0.9820
0.1456 4.0758 -2.0005 0.9820
-1.0089 3.9529 -2.0012 0.9820
-1.5613 3.7692 -2.0012 0.9820
-2.0819 3.5088 -2.0013 0.9820
-2.2058 3.4323 -2.0013 0.9820
-2.3269 3.3514 -2.0013 0.9820
-2.4451 3.2662 -2.0014 0.9820
-2.6719 3.0835 -2.0014 0.9820
-2.7803 2.9863 -2.0014 0.9820
-2.8851 2.8851 -2.0014 0.9820
-2.9863 2.7804 -2.0015 0.9820
-3.0837 2.6720 -2.0015 0.9820
-3.1771 2.5603 -2.0015 0.9820
-3.2665 2.4453 -2.0015 0.9820
-3.3518 2.3272 -2.0016 0.9820
-3.4327 2.2061 -2.0016 0.9820
-3.5094 2.0822 -2.0016 0.9820
-1.1113 0.6068 -0.6211 0.9944
-1.1484 0.4757 -0.6097 0.9945
-1.1543 0.4305 -0.6043 0.9945
-1.1579 0.3854 -0.5986 0.9946
-1.1578 0.2955 -0.5861 0.9947
-1.1791 0.2127 -0.5877 0.9947
-1.1921 0.1282 -0.5881 0.9947
-1.1953 0.0855 -0.5878 0.9947
3.8585 0.0000 -2.0017 0.9828
3.8560 0.1377 -2.0017 0.9828
3.8362 0.4124 -2.0016 0.9828
3.7969 0.6850 -2.0016 0.9828
3.5643 1.4764 -2.0014 0.9828
3.2454 2.0857 -2.0013 0.9828
3.0037 2.4206 -2.0013 0.9828
2.9154 2.5262 -2.0013 0.9828
2.8234 2.6286 -2.0013 0.9828
2.7277 2.7277 -2.0012 0.9828
2.5261 2.9153 -2.0012 0.9828
2.4205 3.0036 -2.0012 0.9828
2.0855 3.2451 -2.0012 0.9828
1.6024 3.5088 -2.0011 0.9828
1.4762 3.5638 -2.0011 0.9828
1.3480 3.6142 -2.0011 0.9828
1.2182 3.6600 -2.0011 0.9828
1.0867 3.7011 -2.0011 0.9828
0.1377 3.8549 -2.0011 0.9828
0.0000 3.8574 -2.0011 0.9828
-0.2752 3.8476 -2.0012 0.9828
-0.5490 3.8182 -2.0012 0.9828
-0.8200 3.7693 -2.0012 0.9828
-1.7268 3.4496 -2.0013 0.9828
-1.8488 3.3858 -2.0013 0.9828
-1.9685 3.3177 -2.0013 0.9828
-2.2002 3.1689 -2.0014 0.9828
-2.4207 3.0039 -2.0014 0.9828
-2.5264 2.9157 -2.0014 0.9828
-2.6289 2.8236 -2.0014 0.9828
-2.8237 2.6290 -2.0015 0.9828
-3.0887 2.3121 -2.0016 0.9828
-3.1692 2.2005 -2.0016 0.9828
-3.2458 2.0859 -2.0016 0.9828
-0.9917 0.5884 -0.5982 0.9948
-1.0118 0.5525 -0.5981 0.9948
-1.0430 0.4763 -0.5948 0.9948
-1.0514 0.4355 -0.5904 0.9949
-1.0576 0.3945 -0.5856 0.9949
-1.0704 0.2732 -0.5731 0.9950
-1.0814 0.2353 -0.5741 0.9950
-1.0974 0.1578 -0.5752 0.9950
3.6547 0.0000 -2.0017 0.9835
3.6523 0.1305 -2.0017 0.9835
3.6453 0.2607 -2.0017 0.9835
3.6336 0.3907 -2.0016 0.9835
3.3761 1.3984 -2.0015 0.9835
3.3240 1.5180 -2.0014 0.9835
3.2072 1.7512 -2.0014 0.9835
3.1426 1.8646 -2.0014 0.9835
2.9252 2.1898 -2.0013 0.9835
2.8452 2.2928 -2.0013 0.9835
2.5837 2.5837 -2.0013 0.9835
2.4898 2.6743 -2.0013 0.9835
2.3928 2.7614 -2.0012 0.9835
2.0839 3.0013 -2.0012 0.9835
1.6355 3.2673 -2.0012 0.9835
1.5178 3.3236 -2.0012 0.9835
0.6487 3.5957 -2.0012 0.9835
0.2607 3.6444 -2.0012 0.9835
0.1304 3.6514 -2.0012 0.9835
-0.2606 3.6445 -2.0012 0.9835
-0.5200 3.6166 -2.0012 0.9835
-0.9036 3.5404 -2.0012 0.9835
-1.0294 3.5059 -2.0012 0.9835
-1.1539 3.4669 -2.0013 0.9835
-1.2769 3.4236 -2.0013 0.9835
-1.3983 3.3758 -2.0013 0.9835
-1.8646 3.1425 -2.0014 0.9835
-1.9756 3.0740 -2.0014 0.9835
-2.0840 3.0016 -2.0014 0.9835
-2.1899 2.9253 -2.0014 0.9835
-2.2929 2.8453 -2.0014 0.9835
-2.4901 2.6746 -2.0015 0.9835
-2.5840 2.5840 -2.0015 0.9835
-2.9256 2.1900 -2.0016 0.9835
-0.8882 0.5708 -0.5782 0.9952
-0.9084 0.5390 -0.5785 0.9952
-0.9677 0.4008 -0.5737 0.9952
-0.9741 0.3633 -0.5694 0.9953
-0.9785 0.3257 -0.5648 0.9953
-0.9820 0.2883 -0.5606 0.9953
-0.9938 0.2537 -0.5618 0.9953
-1.0124 0.1826 -0.5634 0.9953
-1.0190 0.1465 -0.5638 0.9953
-1.0236 0.1101 -0.5639 0.9953
2.0359 0.1456 -1.1784 0.9906
2.0366 0.2190 -1.1826 0.9906
2.0153 0.3636 -1.1823 0.9906
1.9351 0.5682 -1.1644 0.9907
1.9033 0.6335 -1.1581 0.9908
1.8620 0.7713 -1.1636 0.9907
3.0999 1.5517 -2.0014 0.9841
2.7750 2.0774 -2.0014 0.9841
2.6991 2.1751 -2.0013 0.9841
2.5370 2.3620 -2.0013 0.9841
2.4511 2.4511 -2.0013 0.9841
2.3620 2.5370 -2.0013 0.9841
1.8740 2.9160 -2.0012 0.9841
1.7687 2.9810 -2.0012 0.9841
1.5515 3.0996 -2.0012 0.9841
1.2113 3.2476 -2.0012 0.9841
1.0946 3.2888 -2.0012 0.9841
0.9765 3.3258 -2.0012 0.9841
0.6154 3.4111 -2.0012 0.9841
0.4933 3.4309 -2.0012 0.9841
0.3705 3.4463 -2.0012 0.9841
0.1237 3.4640 -2.0012 0.9841
0.0000 3.4662 -2.0012 0.9841
-0.3705 3.4464 -2.0012 0.9841
-0.4933 3.4310 -2.0012 0.9841
-0.7368 3.3870 -2.0013 0.9841
-0.8572 3.3586 -2.0013 0.9841
-0.9766 3.3259 -2.0013 0.9841
-1.2114 3.2478 -2.0013 0.9841
-1.3265 3.2025 -2.0013 0.9841
-1.4400 3.1532 -2.0013 0.9841
-1.5516 3.0998 -2.0013 0.9841
-1.6613 3.0424 -2.0014 0.9841
-1.7688 2.9812 -2.0014 0.9841
-2.2702 2.6199 -2.0015 0.9841
-2.4513 2.4513 -2.0015 0.9841
-2.5373 2.3623 -2.0015 0.9841
-2.6200 2.2702 -2.0015 0.9841
-0.7671 0.6182 -0.5688 0.9955
-0.7846 0.5873 -0.5658 0.9955
-0.8008 0.5560 -0.5628 0.9955
-0.8178 0.5256 -0.5613 0.9955
-0.8364 0.4963 -0.5615 0.9955
-0.8534 0.4660 -0.5614 0.9955
-0.9151 0.2687 -0.5506 0.9956
-0.9259 0.2363 -0.5517 0.9956
-0.9352 0.2034 -0.5526 0.9956
-0.9430 0.1701 -0.5532 0.9956
-0.9492 0.1365 -0.5537 0.9956
-0.9538 0.1025 -0.5538 0.9956
-0.9565 0.0684 -0.5536 0.9956
-0.9575 0.0342 -0.5532 0.9956
