ply
format ascii 1.0
element vertex 797
property float32 x
property float32 y
property float32 z
property float32 I
end_header
2.6810 6.4727 1.2353 0.9719
3.0907 6.7677 1.1398 0.9703
2.6804 6.4709 1.0730 0.9721
2.4393 6.5401 1.0693 0.9721
2.6796 6.4693 0.9118 0.9721
2.2850 6.8654 0.9422 0.9712
2.6789 6.4676 0.7517 0.9722
3.0271 6.6284 0.6169 0.9712
2.6783 6.4659 0.5925 0.9723
2.4433 6.5507 0.5919 0.9723
2.4446 6.5542 0.4338 0.9724
2.9865 6.5396 0.2835 0.9716
2.6769 6.4626 0.2758 0.9724
2.4459 6.5577 0.2760 0.9724
2.9667 6.4961 0.1206 0.9718
2.6762 6.4609 0.1181 0.9724
2.9472 6.4533 -0.0399 0.9720
2.6755 6.4593 -0.0394 0.9724
2.4485 6.5647 -0.0394 0.9724
2.9400 6.4378 -0.1993 0.9721
2.6748 6.4576 -0.1968 0.9724
2.4498 6.5682 -0.1974 0.9723
2.9393 6.4361 -0.3588 0.9721
2.6742 6.4560 -0.3544 0.9724
2.4511 6.5717 -0.3557 0.9723
2.9385 6.4344 -0.5187 0.9720
2.4524 6.5752 -0.5146 0.9722
2.9377 6.4328 -0.6789 0.9720
2.6728 6.4527 -0.6705 0.9723
2.9370 6.4311 -0.8398 0.9719
2.6721 6.4510 -0.8294 0.9723
2.4551 6.5823 -0.8345 0.9721
2.9362 6.4294 -1.0015 0.9718
2.6714 6.4493 -0.9891 0.9722
2.4564 6.5859 -0.9959 0.9720
5.2541 4.8917 -1.1826 0.9713
2.6707 6.4477 -1.1497 0.9721
1.7521 8.0544 -1.3579 0.9671
4.7099 8.6256 -1.8472 0.9608
2.6700 6.4460 -1.3114 0.9720
3.1031 9.3232 -1.8469 0.9608
1.6845 6.5997 -1.2803 0.9727
1.7521 8.0545 -1.5493 0.9670
1.7445 9.6689 -1.8467 0.9608
0.7009 9.7994 -1.8466 0.9608
-0.0000 9.8242 -1.8466 0.9608
-1.3981 9.7239 -1.8465 0.9608
-1.7443 9.6677 -1.8465 0.9608
-2.0882 9.5993 -1.8465 0.9608
-2.7677 9.4259 -1.8465 0.9608
-3.1024 9.3212 -1.8465 0.9608
-3.4332 9.2046 -1.8465 0.9608
-3.7595 9.0763 -1.8466 0.9608
-4.3976 8.7852 -1.8466 0.9608
-4.7084 8.6228 -1.8466 0.9608
-5.3118 8.2652 -1.8467 0.9608
-5.6035 8.0706 -1.8467 0.9608
-5.8881 7.8656 -1.8468 0.9608
-6.9484 6.9484 -1.8470 0.9608
-7.4270 6.4355 -1.8471 0.9608
-7.6522 6.1665 -1.8472 0.9608
9.4480 0.6757 -2.0022 0.9620
9.4173 1.0124 -2.0021 0.9620
9.3201 1.6815 -2.0019 0.9620
9.1754 2.3419 -2.0017 0.9620
9.0855 2.6677 -2.0016 0.9620
8.9840 2.9901 -2.0015 0.9620
8.8711 3.3087 -2.0014 0.9620
8.5819 3.9192 -1.9942 0.9622
7.5216 4.4628 -1.8487 0.9649
7.3572 4.7282 -1.8486 0.9649
7.1834 4.9875 -1.8485 0.9649
7.0004 5.2404 -1.8484 0.9649
5.2201 4.8601 -1.5076 0.9713
6.1822 6.1822 -1.8481 0.9649
5.7249 6.6069 -1.8479 0.9649
5.4852 6.8067 -1.8479 0.9649
5.2386 6.9979 -1.8478 0.9649
3.6398 5.6637 -1.4231 0.9729
3.3740 5.6866 -1.3977 0.9733
2.8656 5.7246 -1.3532 0.9742
1.7046 5.8051 -1.2789 0.9756
1.7051 7.8381 -1.6956 0.9677
1.5515 8.5992 -1.8470 0.9649
1.2435 8.6489 -1.8470 0.9649
0.9340 8.6876 -1.8470 0.9649
0.6233 8.7153 -1.8469 0.9649
0.0000 8.7373 -1.8469 0.9649
-0.3119 8.7317 -1.8469 0.9649
-0.6233 8.7149 -1.8469 0.9649
-0.9340 8.6871 -1.8469 0.9649
-2.1607 8.4656 -1.8468 0.9649
-2.4615 8.3832 -1.8469 0.9649
-3.0533 8.1863 -1.8469 0.9649
-3.9111 7.8133 -1.8469 0.9649
-4.1875 7.6688 -1.8470 0.9649
-4.4586 7.5146 -1.8470 0.9649
-4.9836 7.1777 -1.8471 0.9649
-5.4832 6.8042 -1.8471 0.9649
-5.9549 6.3960 -1.8472 0.9649
-6.1796 6.1795 -1.8473 0.9649
-6.3964 5.9552 -1.8474 0.9649
-6.6051 5.7233 -1.8474 0.9649
-6.9970 5.2379 -1.8475 0.9649
-7.5177 4.4604 -1.8477 0.9649
-8.2500 4.1296 -1.9502 0.9630
-8.8660 3.3068 -2.0002 0.9621
-8.9789 2.9884 -2.0003 0.9620
-9.1700 2.3405 -2.0005 0.9620
-9.3691 1.3470 -2.0008 0.9620
-9.4423 0.6753 -2.0010 0.9620
-9.4608 0.3379 -2.0011 0.9620
8.4974 0.6077 -2.0022 0.9656
8.4699 0.9106 -2.0021 0.9656
8.4315 1.2122 -2.0020 0.9656
8.3825 1.5123 -2.0019 0.9656
8.3228 1.8105 -2.0018 0.9656
8.0804 2.6894 -2.0015 0.9656
7.8672 3.2587 -2.0013 0.9656
7.7455 3.5372 -2.0012 0.9656
7.6018 3.8052 -1.9979 0.9657
6.9834 4.1434 -1.9084 0.9672
6.4611 4.4860 -1.8486 0.9682
5.4458 4.7188 -1.6935 0.9708
5.2031 4.8442 -1.6708 0.9712
5.5608 5.5607 -1.8482 0.9682
5.3585 5.7554 -1.8482 0.9682
5.1495 5.9428 -1.8481 0.9682
4.4842 6.4585 -1.8479 0.9682
3.6417 5.6666 -1.5831 0.9727
3.3740 5.6866 -1.5540 0.9732
2.6227 5.7428 -1.4838 0.9744
2.1550 5.7778 -1.4493 0.9750
1.6611 6.5081 -1.5786 0.9728
1.3956 7.7352 -1.8473 0.9682
0.2805 7.8546 -1.8472 0.9682
-0.2805 7.8544 -1.8472 0.9682
-0.5607 7.8394 -1.8471 0.9682
-1.3954 7.7344 -1.8471 0.9682
-1.9437 7.6152 -1.8471 0.9682
-2.4820 7.4572 -1.8471 0.9682
-3.0077 7.2612 -1.8472 0.9682
-3.5181 7.0283 -1.8472 0.9682
-4.2495 6.6123 -1.8473 0.9682
-4.7105 6.2925 -1.8474 0.9682
-5.5586 5.5586 -1.8475 0.9682
-6.2939 4.7115 -1.8477 0.9682
-6.4582 4.4840 -1.8478 0.9682
-6.6619 4.2813 -1.8612 0.9680
-7.1260 4.2280 -1.9474 0.9665
-7.4487 4.0672 -1.9946 0.9657
-7.7417 3.5355 -2.0002 0.9656
-8.0762 2.6880 -2.0005 0.9656
-8.1673 2.3981 -2.0005 0.9656
-8.2481 2.1052 -2.0006 0.9656
-8.3183 1.8095 -2.0007 0.9656
-8.4270 1.2116 -2.0009 0.9656
7.7334 -0.0000 -2.0023 0.9686
7.4176 2.1780 -2.0016 0.9686
7.0309 3.2109 -2.0013 0.9686
6.7828 3.7037 -2.0009 0.9686
6.6337 3.9360 -1.9972 0.9686
6.4771 4.1626 -1.9935 0.9687
6.0816 4.2225 -1.9170 0.9699
5.7158 4.2788 -1.8487 0.9709
5.5592 4.4799 -1.8486 0.9709
5.1860 4.8283 -1.8346 0.9711
5.0479 5.0479 -1.8484 0.9709
4.8644 5.2247 -1.8483 0.9709
4.6746 5.3948 -1.8482 0.9709
3.8479 5.5421 -1.7469 0.9725
2.8656 5.7247 -1.6576 0.9739
2.6227 5.7429 -1.6347 0.9743
2.3861 5.7606 -1.6144 0.9746
2.1550 5.7779 -1.5967 0.9748
1.5168 6.9725 -1.8475 0.9709
1.0155 7.0628 -1.8475 0.9709
-0.5090 7.1168 -1.8474 0.9709
-0.7627 7.0940 -1.8474 0.9709
-1.7645 6.9133 -1.8474 0.9709
-2.0101 6.8459 -1.8474 0.9709
-2.2532 6.7698 -1.8474 0.9709
-2.7305 6.5919 -1.8474 0.9709
-2.9640 6.4903 -1.8474 0.9709
-3.1938 6.3804 -1.8474 0.9709
-3.4196 6.2624 -1.8475 0.9709
-4.4775 5.5563 -1.8476 0.9709
-4.6731 5.3930 -1.8476 0.9709
-4.8627 5.2229 -1.8477 0.9709
-5.3936 4.6735 -1.8478 0.9709
-5.5571 4.4782 -1.8479 0.9709
-5.7954 4.3383 -1.8744 0.9705
-6.6364 3.9375 -1.9980 0.9686
-7.3313 2.4401 -2.0006 0.9686
-7.4140 2.1770 -2.0007 0.9686
-7.6843 0.8261 -2.0011 0.9686
-7.7092 0.5514 -2.0012 0.9686
7.0681 0.2524 -2.0022 0.9710
6.9096 1.5031 -2.0018 0.9710
6.7842 1.9920 -2.0016 0.9710
6.7085 2.2328 -2.0016 0.9710
6.4306 2.9367 -2.0013 0.9710
6.3215 3.1643 -2.0012 0.9710
5.6377 4.2203 -1.9936 0.9711
5.3096 4.2787 -1.9304 0.9721
4.4492 4.7788 -1.8484 0.9732
4.2757 4.9344 -1.8484 0.9732
3.7234 5.3627 -1.8482 0.9732
3.5295 5.4920 -1.8481 0.9732
3.0585 5.6012 -1.8067 0.9738
2.5745 5.6374 -1.7545 0.9746
2.1155 5.6718 -1.7137 0.9751
1.8974 5.7007 -1.7009 0.9753
1.3874 6.3777 -1.8477 0.9732
0.6977 6.4892 -1.8476 0.9732
0.2329 6.5223 -1.8476 0.9732
-0.0000 6.5264 -1.8476 0.9732
-0.2330 6.5222 -1.8476 0.9732
-0.4656 6.5097 -1.8476 0.9732
-0.6976 6.4889 -1.8476 0.9732
-0.9288 6.4598 -1.8475 0.9732
-2.0610 6.1923 -1.8476 0.9732
-2.4976 6.0296 -1.8476 0.9732
-2.7112 5.9367 -1.8476 0.9732
-3.1279 5.7282 -1.8476 0.9732
-3.5286 5.4907 -1.8477 0.9732
-4.2744 4.9329 -1.8478 0.9732
-5.0552 4.3803 -1.8936 0.9726
-5.3942 4.3469 -1.9612 0.9716
-5.6395 4.2217 -1.9943 0.9711
-5.9440 3.8200 -2.0002 0.9711
-6.0768 3.6055 -2.0003 0.9711
-6.2018 3.3864 -2.0004 0.9711
-6.3189 3.1630 -2.0004 0.9711
-6.4280 2.9355 -2.0005 0.9711
-6.6215 2.4696 -2.0006 0.9710
-6.7056 2.2318 -2.0007 0.9710
-6.7812 1.9911 -2.0008 0.9710
-6.9966 1.0059 -2.0011 0.9710
-7.0649 0.2523 -2.0013 0.9710
6.5097 -0.0000 -2.0022 0.9731
6.5053 0.2323 -2.0022 0.9731
6.4051 1.1556 -2.0019 0.9731
6.3595 1.3834 -2.0018 0.9731
6.3059 1.6095 -2.0017 0.9731
6.1745 2.0551 -2.0016 0.9731
6.0970 2.2740 -2.0015 0.9731
6.0118 2.4901 -2.0014 0.9731
5.9188 2.7030 -2.0014 0.9731
5.7105 3.1181 -2.0012 0.9731
5.5954 3.3199 -2.0011 0.9731
5.4731 3.5173 -2.0011 0.9731
5.2047 3.8962 -1.9997 0.9732
4.8996 4.2455 -1.9940 0.9732
4.0952 4.3986 -1.8485 0.9752
3.9355 4.5418 -1.8485 0.9752
3.6013 4.8107 -1.8484 0.9752
3.4272 4.9361 -1.8483 0.9752
3.2487 5.0551 -1.8483 0.9752
3.0662 5.1677 -1.8482 0.9752
2.8797 5.2737 -1.8482 0.9752
2.6896 5.3730 -1.8481 0.9752
2.2993 5.5510 -1.8480 0.9752
1.8933 5.6884 -1.8440 0.9752
1.6751 5.7047 -1.8287 0.9754
1.0667 5.9123 -1.8478 0.9752
0.8550 5.9465 -1.8478 0.9752
0.6422 5.9731 -1.8478 0.9752
-0.2144 6.0035 -1.8477 0.9752
-0.4286 5.9920 -1.8477 0.9752
-0.6422 5.9729 -1.8477 0.9752
-1.6925 5.7639 -1.8477 0.9752
-2.0993 5.6286 -1.8477 0.9752
-2.2989 5.5501 -1.8477 0.9752
-2.4956 5.4645 -1.8478 0.9752
-2.6891 5.3720 -1.8478 0.9752
-3.4264 4.9349 -1.8479 0.9752
-3.9345 4.5406 -1.8480 0.9752
-4.4081 4.4080 -1.9174 0.9742
-5.2062 3.8972 -2.0003 0.9732
-5.3421 3.7090 -2.0003 0.9732
-5.8162 2.9113 -2.0005 0.9731
-5.9166 2.7020 -2.0006 0.9731
-6.1721 2.0542 -2.0008 0.9731
-6.2417 1.8327 -2.0008 0.9731
-6.3033 1.6088 -2.0009 0.9731
-6.4398 0.9259 -2.0011 0.9731
-6.4690 0.6955 -2.0012 0.9731
-6.4899 0.4641 -2.0013 0.9731
-6.5026 0.2322 -2.0013 0.9731
6.0194 0.2150 -2.0021 0.9749
6.0076 0.4296 -2.0021 0.9749
5.9613 0.8571 -2.0019 0.9749
5.9267 1.0693 -2.0019 0.9749
5.8845 1.2801 -2.0018 0.9749
5.7778 1.6965 -2.0017 0.9749
5.5628 2.3042 -2.0015 0.9749
5.4769 2.5012 -2.0014 0.9749
5.0645 3.2547 -2.0011 0.9749
4.9449 3.4333 -2.0011 0.9749
4.8191 3.6075 -2.0010 0.9749
4.6871 3.7771 -2.0009 0.9749
4.5465 3.9396 -1.9997 0.9750
4.2434 4.2434 -1.9948 0.9750
4.0531 4.3533 -1.9772 0.9752
3.0062 4.6778 -1.8484 0.9768
2.6648 4.8801 -1.8483 0.9768
2.4888 4.9720 -1.8482 0.9768
2.3097 5.0576 -1.8482 0.9768
2.1277 5.1367 -1.8482 0.9768
1.9430 5.2093 -1.8481 0.9768
1.7558 5.2752 -1.8481 0.9768
1.5663 5.3344 -1.8481 0.9768
1.3749 5.3869 -1.8480 0.9768
0.7912 5.5027 -1.8480 0.9768
0.5943 5.5274 -1.8479 0.9768
0.1984 5.5556 -1.8479 0.9768
0.0000 5.5591 -1.8479 0.9768
-0.1984 5.5555 -1.8479 0.9768
-0.3966 5.5449 -1.8479 0.9768
-1.3748 5.3863 -1.8479 0.9768
-1.5662 5.3338 -1.8479 0.9768
-1.7556 5.2746 -1.8479 0.9768
-2.1274 5.1359 -1.8479 0.9768
-3.1707 4.5666 -1.8480 0.9768
-4.0854 4.3880 -1.9929 0.9750
-4.3986 4.0952 -1.9977 0.9750
-4.5477 3.9406 -2.0003 0.9750
-4.6857 3.7760 -2.0003 0.9750
-5.0628 3.2537 -2.0005 0.9750
-5.2823 2.8843 -2.0006 0.9749
-5.5608 2.3033 -2.0007 0.9749
-5.7757 1.6959 -2.0009 0.9749
-5.8327 1.4887 -2.0010 0.9749
-5.8823 1.2796 -2.0010 0.9749
-5.9590 0.8567 -2.0012 0.9749
-5.9860 0.6435 -2.0012 0.9749
-6.0053 0.4295 -2.0013 0.9749
5.5988 -0.0000 -2.0022 0.9765
5.5842 0.3994 -2.0021 0.9765
5.5662 0.5984 -2.0020 0.9765
5.5090 0.9939 -2.0019 0.9765
5.4698 1.1899 -2.0018 0.9765
5.4237 1.3843 -2.0017 0.9765
5.3707 1.5769 -2.0017 0.9765
5.3108 1.7676 -2.0016 0.9765
5.1708 2.1418 -2.0015 0.9765
5.0909 2.3249 -2.0014 0.9765
5.0046 2.5051 -2.0014 0.9765
4.9118 2.6820 -2.0013 0.9765
4.7077 3.0254 -2.0012 0.9765
4.5966 3.1914 -2.0011 0.9765
4.3569 3.5110 -2.0010 0.9765
4.0951 3.8127 -2.0009 0.9765
3.9547 3.9546 -2.0000 0.9765
3.6546 4.2176 -1.9957 0.9766
2.4771 4.5364 -1.8484 0.9783
2.3135 4.6219 -1.8483 0.9783
2.1471 4.7014 -1.8483 0.9783
0.9176 5.0858 -1.8481 0.9783
0.7355 5.1153 -1.8481 0.9783
0.5524 5.1382 -1.8481 0.9783
-0.1845 5.1644 -1.8480 0.9783
-0.3687 5.1545 -1.8480 0.9783
-0.7354 5.1150 -1.8480 0.9783
-0.9175 5.0855 -1.8480 0.9783
-1.2780 5.0071 -1.8480 0.9783
-1.4559 4.9583 -1.8480 0.9783
-1.6319 4.9032 -1.8480 0.9783
-1.8059 4.8418 -1.8480 0.9783
-1.9776 4.7743 -1.8480 0.9783
-2.3132 4.6211 -1.8480 0.9783
-2.4767 4.5357 -1.8480 0.9783
-2.8720 4.4689 -1.8997 0.9777
-3.3252 4.4418 -1.9842 0.9767
-3.4990 4.3420 -1.9942 0.9766
-3.9553 3.9553 -2.0003 0.9765
-4.0940 3.8117 -2.0004 0.9765
-4.2276 3.6632 -2.0004 0.9765
-4.3557 3.5100 -2.0004 0.9765
-4.4783 3.3524 -2.0005 0.9765
-4.7063 3.0245 -2.0006 0.9765
-4.8113 2.8547 -2.0006 0.9765
-4.9103 2.6812 -2.0007 0.9765
-5.0030 2.5043 -2.0007 0.9765
-5.0893 2.3242 -2.0008 0.9765
-5.2424 1.9553 -2.0009 0.9765
-5.3090 1.7670 -2.0009 0.9765
-5.3688 1.5764 -2.0010 0.9765
-5.4218 1.3838 -2.0010 0.9765
-5.5822 0.3992 -2.0013 0.9765
5.2246 -0.0000 -2.0022 0.9779
5.2110 0.3727 -2.0020 0.9779
5.1942 0.5584 -2.0020 0.9779
5.1708 0.7434 -2.0019 0.9779
5.1408 0.9275 -2.0019 0.9779
5.1043 1.1104 -2.0018 0.9779
5.0613 1.2918 -2.0017 0.9779
5.0118 1.4716 -2.0017 0.9779
4.9559 1.6495 -2.0016 0.9779
4.8937 1.8252 -2.0016 0.9779
4.8253 1.9987 -2.0015 0.9779
4.7508 2.1696 -2.0015 0.9779
4.6702 2.3377 -2.0014 0.9779
4.5836 2.5028 -2.0013 0.9779
4.1803 3.1293 -2.0011 0.9779
4.0659 3.2765 -2.0011 0.9779
3.2726 4.0611 -1.9987 0.9779
3.1228 4.1716 -1.9969 0.9779
2.9694 4.2768 -1.9953 0.9779
2.4230 4.4374 -1.9375 0.9786
2.2273 4.4495 -1.9068 0.9789
1.8524 4.4721 -1.8550 0.9795
1.6855 4.5190 -1.8483 0.9796
1.5231 4.5762 -1.8483 0.9796
1.1927 4.6731 -1.8482 0.9796
1.0252 4.7127 -1.8482 0.9796
0.8563 4.7462 -1.8482 0.9796
0.6864 4.7737 -1.8482 0.9796
0.3440 4.8104 -1.8481 0.9796
-0.5155 4.7949 -1.8481 0.9796
-1.0251 4.7123 -1.8481 0.9796
-1.1927 4.6727 -1.8481 0.9796
-1.5230 4.5758 -1.8481 0.9796
-1.6853 4.5185 -1.8481 0.9796
-2.0505 4.4900 -1.8916 0.9791
-2.2426 4.4801 -1.9200 0.9788
-2.4406 4.4696 -1.9516 0.9784
-2.6452 4.4583 -1.9866 0.9780
-2.8130 4.3771 -1.9939 0.9780
-3.1234 4.1724 -1.9973 0.9779
-3.2734 4.0620 -1.9992 0.9779
-3.4183 3.9449 -2.0004 0.9779
-3.9452 3.4185 -2.0005 0.9779
-4.0648 3.2756 -2.0005 0.9779
-4.2883 2.9774 -2.0006 0.9779
-4.3919 2.8225 -2.0007 0.9779
-4.5823 2.5021 -2.0007 0.9779
-4.6688 2.3370 -2.0008 0.9779
-4.7493 2.1689 -2.0008 0.9779
-4.8922 1.8247 -2.0009 0.9779
-4.9543 1.6489 -2.0010 0.9779
-5.0102 1.4711 -2.0010 0.9779
-5.0596 1.2914 -2.0011 0.9779
-5.1026 1.1100 -2.0011 0.9779
-5.1691 0.7432 -2.0013 0.9779
-5.1925 0.5582 -2.0013 0.9779
-5.2092 0.3725 -2.0014 0.9779
4.8792 0.3489 -2.0020 0.9791
4.8635 0.5229 -2.0020 0.9791
4.7793 1.0396 -2.0018 0.9791
4.6927 1.3779 -2.0017 0.9791
4.5822 1.7091 -2.0016 0.9791
4.5182 1.8715 -2.0015 0.9791
4.4484 2.0315 -2.0015 0.9791
4.2919 2.3435 -2.0014 0.9791
4.1135 2.6436 -2.0013 0.9791
3.8071 3.0679 -2.0011 0.9791
3.5784 3.3315 -2.0010 0.9791
3.4571 3.4571 -2.0010 0.9791
3.0675 3.8066 -2.0008 0.9791
2.6398 4.1076 -1.9984 0.9791
2.3367 4.2794 -1.9956 0.9791
2.1811 4.3573 -1.9943 0.9792
2.0230 4.4298 -1.9931 0.9792
1.6636 4.4603 -1.9483 0.9796
1.1446 4.4846 -1.8943 0.9802
0.9766 4.4895 -1.8804 0.9803
0.8108 4.4939 -1.8689 0.9805
0.6467 4.4979 -1.8598 0.9806
0.4841 4.5031 -1.8536 0.9806
0.3225 4.5089 -1.8501 0.9807
0.0000 4.5158 -1.8482 0.9807
-0.4848 4.5096 -1.8563 0.9806
-0.8128 4.5048 -1.8735 0.9804
-0.9793 4.5018 -1.8856 0.9803
-1.1481 4.4982 -1.9000 0.9801
-1.3196 4.4942 -1.9170 0.9800
-1.4943 4.4898 -1.9367 0.9798
-1.6727 4.4847 -1.9590 0.9795
-2.0233 4.4304 -1.9934 0.9792
-2.3371 4.2800 -1.9958 0.9791
-2.6402 4.1082 -1.9987 0.9791
-2.7873 4.0144 -2.0002 0.9791
-2.9291 3.9128 -2.0004 0.9791
-3.0669 3.8058 -2.0004 0.9791
-3.5775 3.3308 -2.0006 0.9791
-3.6942 3.2010 -2.0006 0.9791
-3.8062 3.0672 -2.0006 0.9791
-3.9133 2.9294 -2.0007 0.9791
-4.0154 2.7879 -2.0007 0.9791
-4.1125 2.6429 -2.0007 0.9791
-4.2042 2.4945 -2.0008 0.9791
-4.2907 2.3429 -2.0008 0.9791
-4.3717 2.1883 -2.0009 0.9791
-4.5169 1.8709 -2.0009 0.9791
-4.5809 1.7086 -2.0010 0.9791
-4.6390 1.5440 -2.0010 0.9791
-4.6913 1.3775 -2.0011 0.9791
-4.7376 1.2092 -2.0011 0.9791
-4.7779 1.0393 -2.0012 0.9791
-1.9525 0.1396 -0.8011 0.9916
-1.9308 0.0689 -0.7907 0.9917
4.5939 -0.0000 -2.0021 0.9802
4.5467 0.6537 -2.0019 0.9802
4.4504 1.1359 -2.0018 0.9802
4.3032 1.6050 -2.0016 0.9802
4.2430 1.7575 -2.0015 0.9802
4.0306 2.2008 -2.0014 0.9802
3.9493 2.3432 -2.0013 0.9802
3.8631 2.4826 -2.0013 0.9802
3.6760 2.7518 -2.0012 0.9802
3.0066 3.4698 -2.0009 0.9802
2.8808 3.5748 -2.0009 0.9802
2.7513 3.6753 -2.0009 0.9802
2.6183 3.7711 -2.0008 0.9802
2.4820 3.8621 -2.0008 0.9802
2.3425 3.9481 -2.0007 0.9802
2.1993 4.0277 -2.0000 0.9802
2.0529 4.1012 -1.9988 0.9802
1.4455 4.3431 -1.9949 0.9802
1.2891 4.3903 -1.9942 0.9802
1.1312 4.4320 -1.9935 0.9802
0.9720 4.4682 -1.9929 0.9802
0.8071 4.4732 -1.9810 0.9804
0.4817 4.4809 -1.9641 0.9805
0.3207 4.4840 -1.9592 0.9806
0.1602 4.4867 -1.9566 0.9806
-0.1604 4.4908 -1.9584 0.9806
-0.3212 4.4908 -1.9622 0.9805
-1.1313 4.4322 -1.9936 0.9802
-1.9044 4.1700 -1.9979 0.9802
-2.0532 4.1017 -1.9991 0.9802
-2.1996 4.0282 -2.0003 0.9802
-2.4816 3.8614 -2.0005 0.9802
-2.6179 3.7705 -2.0005 0.9802
-3.1280 3.3597 -2.0006 0.9802
-3.3598 3.1280 -2.0006 0.9802
-3.4693 3.0062 -2.0007 0.9802
-3.5745 2.8805 -2.0007 0.9802
-3.7710 2.6182 -2.0008 0.9802
-3.8621 2.4820 -2.0008 0.9802
-4.0295 2.2002 -2.0009 0.9802
-4.1055 2.0551 -2.0009 0.9802
-1.5984 0.5962 -0.7435 0.9926
-1.5875 0.5284 -0.7292 0.9927
-1.5485 0.3952 -0.6965 0.9931
-1.5151 0.2178 -0.6671 0.9933
4.3224 0.1544 -2.0021 0.9811
4.3140 0.3085 -2.0020 0.9811
4.3002 0.4623 -2.0020 0.9811
4.2808 0.6155 -2.0019 0.9811
4.2560 0.7679 -2.0019 0.9811
4.2258 0.9192 -2.0018 0.9811
4.1493 1.2183 -2.0017 0.9811
4.1030 1.3656 -2.0017 0.9811
4.0516 1.5111 -2.0016 0.9811
3.9332 1.7962 -2.0015 0.9811
3.6372 2.3375 -2.0013 0.9811
3.5514 2.4657 -2.0013 0.9811
3.3663 2.7127 -2.0012 0.9811
3.0569 3.0568 -2.0011 0.9811
2.7124 3.3659 -2.0009 0.9811
2.3369 3.6363 -2.0008 0.9811
2.0715 3.7937 -2.0008 0.9811
1.9348 3.8651 -2.0007 0.9811
1.7955 3.9317 -2.0007 0.9811
1.5099 4.0482 -2.0000 0.9811
1.2163 4.1425 -1.9985 0.9812
0.9172 4.2161 -1.9972 0.9812
0.6138 4.2690 -1.9964 0.9812
0.4610 4.2875 -1.9961 0.9812
0.1539 4.3088 -1.9958 0.9812
-0.0000 4.3115 -1.9958 0.9812
-0.6138 4.2692 -1.9965 0.9812
-1.0674 4.1821 -1.9979 0.9812
-1.5100 4.0486 -2.0001 0.9811
-1.7953 3.9312 -2.0005 0.9811
-2.0712 3.7931 -2.0005 0.9811
-2.3366 3.6358 -2.0005 0.9811
-2.4649 3.5501 -2.0006 0.9811
-2.7119 3.3653 -2.0006 0.9811
-2.9452 3.1633 -2.0006 0.9811
-3.0562 3.0562 -2.0007 0.9811
-3.1634 2.9452 -2.0007 0.9811
-3.2666 2.8305 -2.0007 0.9811
-3.3656 2.7121 -2.0008 0.9811
-3.6364 2.3369 -2.0009 0.9811
-3.7176 2.2057 -2.0009 0.9811
-3.7940 2.0716 -2.0009 0.9811
-3.8656 1.9349 -2.0010 0.9811
-1.3263 0.5493 -0.6645 0.9937
-1.3324 0.4969 -0.6582 0.9938
-1.3324 0.4434 -0.6500 0.9938
-1.3116 0.3348 -0.6266 0.9941
-1.3160 0.2374 -0.6190 0.9941
-1.3273 0.1908 -0.6207 0.9941
-1.3384 0.0957 -0.6211 0.9941
-1.3376 0.0478 -0.6195 0.9941
4.0815 -0.0000 -2.0021 0.9820
4.0788 0.1456 -2.0020 0.9820
4.0709 0.2911 -2.0020 0.9820
4.0579 0.4363 -2.0019 0.9820
4.0162 0.7246 -2.0019 0.9820
3.9541 1.0092 -2.0018 0.9820
3.9155 1.1497 -2.0017 0.9820
3.8719 1.2887 -2.0017 0.9820
3.8233 1.4260 -2.0016 0.9820
3.6487 1.8264 -2.0015 0.9820
3.5811 1.9554 -2.0014 0.9820
3.4323 2.2058 -2.0014 0.9820
3.1767 2.5599 -2.0012 0.9820
3.0832 2.6716 -2.0012 0.9820
2.9858 2.7799 -2.0011 0.9820
2.7798 2.9857 -2.0011 0.9820
2.5596 3.1763 -2.0010 0.9820
2.4446 3.2656 -2.0010 0.9820
2.3264 3.3507 -2.0009 0.9820
2.2053 3.4315 -2.0009 0.9820
2.0814 3.5080 -2.0009 0.9820
1.9548 3.5800 -2.0008 0.9820
1.8258 3.6474 -2.0008 0.9820
1.5609 3.7683 -2.0007 0.9820
1.4254 3.8216 -2.0007 0.9820
1.2881 3.8700 -2.0007 0.9820
1.1491 3.9134 -2.0007 0.9820
1.0087 3.9519 -2.0007 0.9820
0.8670 3.9853 -2.0006 0.9820
0.7242 4.0137 -2.0006 0.9820
0.5804 4.0366 -2.0004 0.9820
0.1455 4.0743 -1.9998 0.9820
-0.0000 4.0768 -1.9998 0.9820
-0.1455 4.0744 -1.9999 0.9820
-0.4359 4.0543 -2.0002 0.9820
-0.5804 4.0367 -2.0005 0.9820
-0.7241 4.0135 -2.0005 0.9820
-0.8669 3.9851 -2.0005 0.9820
-1.0086 3.9517 -2.0005 0.9820
-1.4252 3.8212 -2.0005 0.9820
-1.5607 3.7679 -2.0005 0.9820
-1.6942 3.7098 -2.0006 0.9820
-1.9546 3.5796 -2.0006 0.9820
-2.3261 3.3502 -2.0006 0.9820
-2.4442 3.2651 -2.0006 0.9820
-2.5592 3.1758 -2.0007 0.9820
-2.6710 3.0824 -2.0007 0.9820
-2.8841 2.8841 -2.0007 0.9820
-3.0826 2.6711 -2.0008 0.9820
-3.1760 2.5594 -2.0008 0.9820
-3.2654 2.4444 -2.0009 0.9820
-3.3506 2.3264 -2.0009 0.9820
-3.4316 2.2053 -2.0009 0.9820
-3.5082 2.0815 -2.0009 0.9820
-1.1113 0.6068 -0.6211 0.9944
-1.1400 0.5206 -0.6148 0.9944
-1.1578 0.3854 -0.5986 0.9946
-1.1695 0.2544 -0.5871 0.9947
-1.1791 0.2127 -0.5877 0.9947
-1.1867 0.1706 -0.5881 0.9947
-1.1921 0.1281 -0.5881 0.9947
3.8368 0.4125 -2.0019 0.9828
3.8196 0.5491 -2.0019 0.9828
3.7705 0.8202 -2.0018 0.9828
3.7387 0.9542 -2.0018 0.9828
3.6610 1.2185 -2.0017 0.9828
3.6151 1.3483 -2.0016 0.9828
3.5646 1.4765 -2.0016 0.9828
3.5095 1.6027 -2.0015 0.9828
3.4500 1.7269 -2.0015 0.9828
3.3861 1.8489 -2.0015 0.9828
3.3179 1.9686 -2.0014 0.9828
3.2454 2.0857 -2.0014 0.9828
2.9154 2.5261 -2.0012 0.9828
2.6285 2.8232 -2.0011 0.9828
2.3115 3.0878 -2.0010 0.9828
2.0853 3.2447 -2.0009 0.9828
1.9681 3.3170 -2.0009 0.9828
1.7264 3.4489 -2.0009 0.9828
1.4759 3.5632 -2.0008 0.9828
0.8198 3.7684 -2.0007 0.9828
0.4122 3.8344 -2.0007 0.9828
0.1376 3.8539 -2.0006 0.9828
-0.1376 3.8539 -2.0006 0.9828
-0.2751 3.8465 -2.0006 0.9828
-0.6847 3.7951 -2.0006 0.9828
-1.0865 3.7001 -2.0006 0.9828
-1.2178 3.6590 -2.0006 0.9828
-1.3476 3.6132 -2.0006 0.9828
-1.4758 3.5628 -2.0006 0.9828
-1.6020 3.5079 -2.0006 0.9828
-1.8482 3.3847 -2.0006 0.9828
-2.1995 3.1678 -2.0007 0.9828
-2.6280 2.8227 -2.0008 0.9828
-2.7271 2.7271 -2.0008 0.9828
-3.0876 2.3114 -2.0009 0.9828
-3.1682 2.1997 -2.0009 0.9828
-3.2448 2.0852 -2.0010 0.9828
-0.9917 0.5884 -0.5982 0.9948
-1.0118 0.5525 -0.5981 0.9948
-1.0298 0.5154 -0.5974 0.9948
-1.0514 0.4355 -0.5904 0.9949
-1.0617 0.3533 -0.5805 0.9950
-1.0704 0.2732 -0.5731 0.9950
-1.0905 0.1967 -0.5749 0.9950
-1.0974 0.1578 -0.5752 0.9950
-1.1024 0.1185 -0.5752 0.9950
3.6554 -0.0000 -2.0021 0.9835
3.6530 0.1305 -2.0020 0.9835
3.6459 0.2608 -2.0020 0.9835
3.6342 0.3907 -2.0019 0.9835
3.5969 0.6489 -2.0019 0.9835
3.5714 0.7769 -2.0018 0.9835
3.5413 0.9038 -2.0018 0.9835
3.3242 1.5181 -2.0016 0.9835
3.2073 1.7513 -2.0015 0.9835
3.0741 1.9756 -2.0014 0.9835
3.0016 2.0840 -2.0014 0.9835
2.9252 2.1897 -2.0013 0.9835
2.4897 2.6741 -2.0011 0.9835
2.3926 2.7612 -2.0011 0.9835
2.1895 2.9248 -2.0011 0.9835
1.8642 3.1419 -2.0010 0.9835
1.7508 3.2064 -2.0009 0.9835
1.1536 3.4661 -2.0008 0.9835
1.0292 3.5051 -2.0008 0.9835
0.6486 3.5949 -2.0007 0.9835
0.5199 3.6157 -2.0007 0.9835
0.3905 3.6320 -2.0007 0.9835
0.2606 3.6436 -2.0007 0.9835
0.1304 3.6505 -2.0007 0.9835
-0.1304 3.6505 -2.0007 0.9835
-0.3905 3.6319 -2.0007 0.9835
-0.7765 3.5693 -2.0007 0.9835
-0.9034 3.5393 -2.0007 0.9835
-1.0291 3.5048 -2.0007 0.9835
-1.1536 3.4659 -2.0007 0.9835
-1.7507 3.2061 -2.0007 0.9835
-1.8640 3.1415 -2.0007 0.9835
-1.9749 3.0730 -2.0007 0.9835
-2.0834 3.0006 -2.0008 0.9835
-2.1892 2.9244 -2.0008 0.9835
-2.2922 2.8444 -2.0008 0.9835
-2.3923 2.7608 -2.0008 0.9835
-2.4893 2.6737 -2.0008 0.9835
-2.5832 2.5832 -2.0009 0.9835
-2.6738 2.4894 -2.0009 0.9835
-0.9269 0.5061 -0.5784 0.9952
-0.9434 0.4722 -0.5778 0.9952
-0.9677 0.4008 -0.5737 0.9952
-0.9938 0.2536 -0.5618 0.9953
-1.0123 0.1826 -0.5634 0.9953
-1.0236 0.1100 -0.5639 0.9953
-1.0265 0.0734 -0.5637 0.9953
-1.0276 0.0367 -0.5632 0.9953
2.0197 -0.0000 -1.1661 0.9907
2.0320 0.0726 -1.1739 0.9907
2.0366 0.2189 -1.1826 0.9906
1.9616 0.5006 -1.1688 0.9907
1.8508 0.8452 -1.1747 0.9906
2.9814 1.7689 -2.0015 0.9841
2.9163 1.8742 -2.0014 0.9841
2.7750 2.0773 -2.0014 0.9841
2.6197 2.2699 -2.0013 0.9841
2.5370 2.3619 -2.0012 0.9841
2.2698 2.6195 -2.0012 0.9841
2.0771 2.7746 -2.0011 0.9841
1.9767 2.8470 -2.0011 0.9841
1.8738 2.9157 -2.0010 0.9841
1.7685 2.9807 -2.0010 0.9841
1.6610 3.0418 -2.0010 0.9841
1.4397 3.1525 -2.0009 0.9841
0.8571 3.3579 -2.0008 0.9841
0.7367 3.3863 -2.0008 0.9841
0.6153 3.4104 -2.0008 0.9841
0.4932 3.4302 -2.0008 0.9841
-0.6153 3.4103 -2.0007 0.9841
-0.7366 3.3861 -2.0007 0.9841
-0.9763 3.3250 -2.0007 0.9841
-1.2110 3.2469 -2.0007 0.9841
-1.5512 3.0988 -2.0008 0.9841
-1.7683 2.9803 -2.0008 0.9841
-2.0768 2.7743 -2.0008 0.9841
-2.2695 2.6191 -2.0009 0.9841
-2.4506 2.4506 -2.0009 0.9841
-2.6192 2.2696 -2.0009 0.9841
-0.7846 0.5873 -0.5658 0.9955
-0.8008 0.5560 -0.5628 0.9955
-0.8178 0.5255 -0.5613 0.9955
-0.8364 0.4963 -0.5615 0.9955
-0.8534 0.4660 -0.5614 0.9955
-0.8687 0.4348 -0.5609 0.9955
-0.9011 0.3361 -0.5553 0.9956
-0.9057 0.3014 -0.5511 0.9956
-0.9151 0.2687 -0.5506 0.9956
-0.9537 0.1025 -0.5538 0.9956
-0.9565 0.0684 -0.5536 0.9956
-0.9575 0.0342 -0.5532 0.9956
