ply
format ascii 1.0
element vertex 732
property float32 x
property float32 y
property float32 z
property float32 I
end_header
-9.4742 0.0000 -2.0026 0.9620
-9.4232 -1.0131 -2.0034 0.9620
-9.3821 -1.3489 -2.0036 0.9620
-9.3291 -1.6831 -2.0038 0.9620
-9.2641 -2.0153 -2.0040 0.9620
-9.1873 -2.3449 -2.0043 0.9620
-8.7639 -3.6301 -2.0051 0.9620
-8.6296 -3.9410 -2.0053 0.9620
-8.4843 -4.2469 -2.0056 0.9620
-7.7965 -5.4132 -2.0063 0.9619
-7.3918 -5.9566 -2.0067 0.9619
-7.1750 -6.2172 -2.0068 0.9619
-6.2191 -7.1772 -2.0074 0.9619
-5.6919 -7.6035 -2.0077 0.9619
-5.1356 -7.9911 -2.0079 0.9619
-4.8473 -8.1697 -2.0080 0.9619
-4.2525 -8.4954 -2.0082 0.9619
-3.3204 -8.9023 -2.0084 0.9619
-3.0006 -9.0154 -2.0085 0.9619
-2.6770 -9.1169 -2.0085 0.9619
-2.0198 -9.2850 -2.0086 0.9619
-1.6872 -9.3512 -2.0086 0.9619
-1.0158 -9.4478 -2.0086 0.9619
-0.0000 -9.5021 -2.0085 0.9619
0.3391 -9.4959 -2.0085 0.9619
0.6779 -9.4775 -2.0085 0.9619
1.0157 -9.4470 -2.0084 0.9619
1.3522 -9.4045 -2.0084 0.9619
2.0195 -9.2834 -2.0082 0.9619
3.9455 -8.6394 -2.0076 0.9619
4.5511 -8.3348 -2.0074 0.9619
4.8454 -8.1665 -2.0072 0.9619
5.1334 -7.9877 -2.0071 0.9619
5.6893 -7.6000 -2.0067 0.9619
6.2159 -7.1735 -2.0064 0.9619
6.4674 -6.9464 -2.0062 0.9619
6.7106 -6.7106 -2.0060 0.9619
6.9452 -6.4662 -2.0058 0.9619
7.1708 -6.2135 -2.0056 0.9620
7.5943 -5.6850 -2.0052 0.9620
8.3225 -4.5444 -2.0044 0.9620
8.4784 -4.2440 -2.0042 0.9620
9.2571 -2.0137 -2.0025 0.9620
9.4159 -1.0123 -2.0018 0.9620
9.4449 -0.6755 -2.0016 0.9620
9.4619 -0.3379 -2.0013 0.9620
-8.5207 0.0000 -2.0026 0.9656
-8.5162 -0.3041 -2.0028 0.9656
-8.5008 -0.6080 -2.0030 0.9656
-8.4746 -0.9111 -2.0032 0.9656
-8.4376 -1.2131 -2.0034 0.9656
-8.3312 -1.8123 -2.0038 0.9656
-8.2621 -2.1087 -2.0040 0.9656
-8.0922 -2.6933 -2.0044 0.9656
-7.8810 -3.2644 -2.0048 0.9656
-7.6294 -3.8190 -2.0052 0.9656
-7.4889 -4.0892 -2.0054 0.9655
-7.1793 -4.6138 -2.0057 0.9655
-7.0106 -4.8675 -2.0059 0.9655
-6.8330 -5.1151 -2.0060 0.9655
-6.6466 -5.3561 -2.0062 0.9655
-6.2484 -5.8175 -2.0065 0.9655
-6.0372 -6.0372 -2.0066 0.9655
-5.5919 -6.4533 -2.0069 0.9655
-4.6175 -7.1850 -2.0073 0.9655
-4.3583 -7.3456 -2.0074 0.9655
-4.0936 -7.4968 -2.0075 0.9655
-3.8235 -7.6384 -2.0076 0.9655
-3.5486 -7.7703 -2.0076 0.9655
-3.2691 -7.8922 -2.0077 0.9655
-2.4069 -8.1970 -2.0078 0.9655
-2.1128 -8.2778 -2.0079 0.9655
-1.8160 -8.3481 -2.0079 0.9655
-1.5169 -8.4077 -2.0079 0.9655
-1.2159 -8.4565 -2.0079 0.9655
-0.9133 -8.4945 -2.0079 0.9655
-0.3049 -8.5379 -2.0079 0.9655
0.9132 -8.4939 -2.0078 0.9655
1.2157 -8.4557 -2.0077 0.9655
2.1124 -8.2764 -2.0075 0.9655
2.4064 -8.1954 -2.0074 0.9655
2.9847 -8.0021 -2.0072 0.9655
3.5475 -7.7680 -2.0070 0.9655
3.8223 -7.6360 -2.0069 0.9655
4.0922 -7.4943 -2.0068 0.9655
4.3568 -7.3430 -2.0067 0.9655
4.6158 -7.1823 -2.0065 0.9655
5.8155 -6.2463 -2.0058 0.9655
6.2452 -5.8145 -2.0054 0.9655
6.4482 -5.5874 -2.0053 0.9655
6.6429 -5.3532 -2.0051 0.9656
7.1751 -4.6111 -2.0045 0.9656
7.4843 -4.0867 -2.0041 0.9656
7.8759 -3.2623 -2.0035 0.9656
7.9864 -2.9788 -2.0033 0.9656
8.3256 -1.8111 -2.0025 0.9656
8.3840 -1.5126 -2.0022 0.9656
8.4317 -1.2123 -2.0020 0.9656
8.4687 -0.9105 -2.0018 0.9656
8.4949 -0.6075 -2.0016 0.9656
-7.7341 0.0000 -2.0025 0.9685
-7.7299 -0.2760 -2.0027 0.9685
-7.7159 -0.5518 -2.0029 0.9685
-7.6920 -0.8270 -2.0031 0.9685
-7.6583 -1.1011 -2.0033 0.9685
-7.6149 -1.3738 -2.0035 0.9685
-7.4988 -1.9139 -2.0038 0.9685
-7.4264 -2.1806 -2.0040 0.9685
-7.1527 -2.9627 -2.0045 0.9685
-6.9242 -3.4660 -2.0049 0.9685
-6.7967 -3.7112 -2.0050 0.9685
-6.6604 -3.9518 -2.0052 0.9685
-6.5156 -4.1873 -2.0053 0.9685
-6.3625 -4.4175 -2.0055 0.9685
-6.0320 -4.8609 -2.0058 0.9685
-5.6706 -5.2795 -2.0060 0.9685
-5.4789 -5.4788 -2.0062 0.9685
-4.8626 -6.0341 -2.0065 0.9685
-4.6444 -6.2042 -2.0066 0.9685
-4.4202 -6.3663 -2.0067 0.9685
-3.9551 -6.6660 -2.0069 0.9685
-3.7148 -6.8032 -2.0070 0.9685
-3.4697 -6.9316 -2.0070 0.9685
-2.9666 -7.1620 -2.0071 0.9685
-2.7091 -7.2634 -2.0072 0.9685
-2.1842 -7.4385 -2.0073 0.9685
-1.9173 -7.5118 -2.0073 0.9685
-1.6480 -7.5756 -2.0073 0.9685
-1.3765 -7.6296 -2.0073 0.9685
-1.1034 -7.6739 -2.0074 0.9685
-0.8287 -7.7084 -2.0074 0.9685
-0.5531 -7.7331 -2.0073 0.9685
-0.2767 -7.7478 -2.0073 0.9685
0.8287 -7.7079 -2.0072 0.9685
1.9170 -7.5107 -2.0070 0.9685
2.9659 -7.1602 -2.0067 0.9685
3.2194 -7.0495 -2.0066 0.9685
3.7137 -6.8011 -2.0063 0.9685
3.9538 -6.6638 -2.0062 0.9685
4.6426 -6.2018 -2.0058 0.9685
5.0725 -5.8540 -2.0056 0.9685
5.4764 -5.4764 -2.0053 0.9685
5.6679 -5.2770 -2.0051 0.9685
6.0290 -4.8584 -2.0048 0.9685
6.1980 -4.6398 -2.0046 0.9685
6.6568 -3.9496 -2.0041 0.9685
6.9203 -3.4640 -2.0037 0.9685
7.0389 -3.2145 -2.0036 0.9685
7.1485 -2.9610 -2.0034 0.9685
7.3401 -2.4430 -2.0030 0.9685
7.4219 -2.1793 -2.0028 0.9685
7.4942 -1.9128 -2.0026 0.9685
7.6872 -0.8264 -2.0018 0.9686
7.7110 -0.5515 -2.0016 0.9686
7.7251 -0.2759 -2.0014 0.9686
-7.0696 -0.2525 -2.0026 0.9710
-7.0567 -0.5047 -2.0028 0.9710
-7.0348 -0.7563 -2.0030 0.9710
-6.9641 -1.2564 -2.0033 0.9710
-6.8579 -1.7504 -2.0037 0.9710
-6.7167 -2.2355 -2.0040 0.9710
-6.6331 -2.4740 -2.0042 0.9710
-6.5411 -2.7094 -2.0043 0.9710
-6.4407 -2.9414 -2.0045 0.9710
-6.3321 -3.1696 -2.0046 0.9710
-6.2154 -3.3938 -2.0048 0.9710
-5.6707 -4.2450 -2.0053 0.9710
-5.5159 -4.4450 -2.0054 0.9710
-5.1854 -4.8278 -2.0057 0.9710
-5.0101 -5.0101 -2.0058 0.9710
-4.8283 -5.1860 -2.0059 0.9710
-4.6404 -5.3553 -2.0060 0.9710
-4.2469 -5.6732 -2.0062 0.9710
-3.3968 -6.2208 -2.0065 0.9710
-3.1727 -6.3383 -2.0066 0.9710
-2.4772 -6.6417 -2.0067 0.9710
-1.7531 -6.8688 -2.0068 0.9710
-1.5069 -6.9270 -2.0069 0.9710
-1.0089 -7.0170 -2.0069 0.9710
-0.7578 -7.0485 -2.0069 0.9710
0.5057 -7.0708 -2.0068 0.9710
0.7578 -7.0481 -2.0068 0.9710
1.7529 -6.8678 -2.0066 0.9710
2.2382 -6.7248 -2.0064 0.9710
2.4767 -6.6403 -2.0063 0.9710
2.9439 -6.4462 -2.0062 0.9710
3.3959 -6.2191 -2.0060 0.9710
3.8305 -5.9604 -2.0057 0.9710
4.0406 -5.8195 -2.0056 0.9710
4.2454 -5.6712 -2.0055 0.9710
4.4449 -5.5158 -2.0054 0.9710
4.6386 -5.3532 -2.0053 0.9710
4.8264 -5.1839 -2.0051 0.9710
5.0080 -5.0080 -2.0050 0.9710
5.1832 -4.8257 -2.0048 0.9710
5.3518 -4.6373 -2.0047 0.9710
5.5135 -4.4430 -2.0045 0.9710
5.6681 -4.2431 -2.0044 0.9710
6.2123 -3.3921 -2.0037 0.9710
6.4373 -2.9398 -2.0034 0.9710
6.5376 -2.7079 -2.0032 0.9710
6.6295 -2.4727 -2.0031 0.9710
6.9999 -1.0064 -2.0020 0.9710
7.0526 -0.5044 -2.0016 0.9710
7.0655 -0.2523 -2.0015 0.9710
-6.5102 0.0000 -2.0024 0.9731
-6.4947 -0.4645 -2.0027 0.9731
-6.4745 -0.6961 -2.0029 0.9731
-6.4094 -1.1563 -2.0032 0.9731
-6.3645 -1.3845 -2.0034 0.9731
-6.1045 -2.2769 -2.0040 0.9731
-6.0198 -2.4935 -2.0041 0.9731
-5.9274 -2.7069 -2.0043 0.9731
-5.8274 -2.9170 -2.0044 0.9731
-5.4833 -3.5239 -2.0048 0.9731
-5.2186 -3.9066 -2.0050 0.9731
-4.2703 -4.9281 -2.0057 0.9731
-4.0918 -5.0776 -2.0058 0.9731
-3.9082 -5.2207 -2.0059 0.9731
-3.7195 -5.3571 -2.0059 0.9731
-3.1259 -5.7246 -2.0061 0.9731
-2.9196 -5.8327 -2.0062 0.9731
-2.7097 -5.9333 -2.0063 0.9731
-2.4962 -6.0264 -2.0063 0.9731
-2.2796 -6.1118 -2.0064 0.9731
-2.0600 -6.1894 -2.0064 0.9731
-1.6133 -6.3207 -2.0064 0.9731
-1.1583 -6.4198 -2.0065 0.9731
-0.9284 -6.4571 -2.0065 0.9731
-0.4654 -6.5068 -2.0065 0.9731
-0.2328 -6.5193 -2.0065 0.9731
0.2328 -6.5192 -2.0064 0.9731
0.9283 -6.4566 -2.0063 0.9731
1.1581 -6.4192 -2.0063 0.9731
1.8375 -6.2581 -2.0061 0.9731
2.0597 -6.1883 -2.0061 0.9731
2.2791 -6.1106 -2.0060 0.9731
2.7091 -5.9320 -2.0058 0.9731
3.1251 -5.7231 -2.0056 0.9731
3.3272 -5.6076 -2.0055 0.9731
3.5250 -5.4850 -2.0054 0.9731
3.7183 -5.3554 -2.0053 0.9731
3.9069 -5.2190 -2.0052 0.9731
4.0905 -5.0759 -2.0051 0.9731
4.4416 -4.7706 -2.0049 0.9731
4.7700 -4.4410 -2.0046 0.9731
5.2163 -3.9049 -2.0042 0.9731
5.3520 -3.7160 -2.0040 0.9731
5.4808 -3.5223 -2.0039 0.9731
5.7173 -3.1219 -2.0036 0.9731
5.8246 -2.9156 -2.0034 0.9731
6.1015 -2.2757 -2.0030 0.9731
6.3082 -1.6101 -2.0025 0.9731
6.4060 -1.1557 -2.0022 0.9731
6.4711 -0.6957 -2.0018 0.9731
6.4912 -0.4643 -2.0017 0.9731
-6.0239 0.0000 -2.0024 0.9749
-6.0094 -0.4298 -2.0027 0.9749
-5.9907 -0.6440 -2.0028 0.9749
-5.9643 -0.8575 -2.0030 0.9749
-5.7193 -1.9036 -2.0037 0.9749
-5.6481 -2.1066 -2.0038 0.9749
-5.5697 -2.3070 -2.0039 0.9749
-5.4842 -2.5045 -2.0041 0.9749
-5.2922 -2.8898 -2.0043 0.9749
-5.1860 -3.0770 -2.0045 0.9749
-5.0732 -3.2603 -2.0046 0.9749
-4.9539 -3.4395 -2.0047 0.9749
-4.8282 -3.6143 -2.0048 0.9749
-4.2656 -4.2656 -2.0052 0.9749
-4.1108 -4.4153 -2.0053 0.9749
-3.9508 -4.5594 -2.0054 0.9749
-3.6157 -4.8300 -2.0056 0.9749
-3.4411 -4.9562 -2.0056 0.9749
-3.2622 -5.0760 -2.0057 0.9749
-3.0790 -5.1894 -2.0058 0.9749
-2.8919 -5.2961 -2.0058 0.9749
-2.7011 -5.3961 -2.0059 0.9749
-2.5069 -5.4892 -2.0059 0.9749
-2.3094 -5.5754 -2.0060 0.9749
-2.1090 -5.6543 -2.0060 0.9749
-1.9058 -5.7261 -2.0061 0.9749
-1.7003 -5.7906 -2.0061 0.9749
-1.0716 -5.9393 -2.0061 0.9749
-0.8589 -5.9738 -2.0061 0.9749
-0.6451 -6.0006 -2.0061 0.9749
-0.2154 -6.0313 -2.0061 0.9749
0.2154 -6.0312 -2.0061 0.9749
0.6451 -6.0003 -2.0060 0.9749
0.8588 -5.9733 -2.0060 0.9749
1.2827 -5.8966 -2.0059 0.9749
1.4923 -5.8469 -2.0059 0.9749
2.1086 -5.6533 -2.0057 0.9749
2.5063 -5.4881 -2.0055 0.9749
2.8912 -5.2949 -2.0054 0.9749
3.6147 -4.8286 -2.0050 0.9749
3.7845 -4.6962 -2.0049 0.9749
3.9495 -4.5579 -2.0047 0.9749
4.1094 -4.4138 -2.0046 0.9749
4.2641 -4.2641 -2.0045 0.9749
4.4133 -4.1089 -2.0044 0.9749
4.5569 -3.9485 -2.0043 0.9749
5.5672 -2.3060 -2.0030 0.9749
5.6455 -2.1057 -2.0029 0.9749
5.7805 -1.6973 -2.0026 0.9749
5.8370 -1.4898 -2.0024 0.9749
5.8860 -1.2804 -2.0023 0.9749
5.9878 -0.6437 -2.0018 0.9749
6.0065 -0.4296 -2.0017 0.9749
6.0175 -0.2149 -2.0015 0.9749
-5.5992 0.0000 -2.0023 0.9765
-5.5961 -0.1998 -2.0025 0.9765
-5.5683 -0.5986 -2.0027 0.9765
-5.5438 -0.7971 -2.0029 0.9765
-5.5122 -0.9945 -2.0030 0.9765
-5.4736 -1.1907 -2.0032 0.9765
-5.4279 -1.3854 -2.0033 0.9765
-5.3754 -1.5783 -2.0034 0.9765
-5.3159 -1.7693 -2.0036 0.9765
-5.2497 -1.9580 -2.0037 0.9765
-5.1768 -2.1443 -2.0038 0.9765
-5.0973 -2.3279 -2.0039 0.9765
-5.0113 -2.5084 -2.0040 0.9765
-4.9188 -2.6859 -2.0042 0.9765
-4.6043 -3.1968 -2.0045 0.9765
-4.4875 -3.3593 -2.0046 0.9765
-4.3650 -3.5175 -2.0047 0.9765
-4.2368 -3.6712 -2.0048 0.9765
-3.9645 -3.9645 -2.0050 0.9765
-3.6719 -4.2376 -2.0051 0.9765
-3.5184 -4.3661 -2.0052 0.9765
-3.0319 -4.7177 -2.0054 0.9765
-2.6877 -4.9222 -2.0056 0.9765
-2.1463 -5.1817 -2.0057 0.9765
-1.9600 -5.2551 -2.0057 0.9765
-1.7713 -5.3218 -2.0058 0.9765
-1.5802 -5.3817 -2.0058 0.9765
-1.3871 -5.4347 -2.0058 0.9765
-1.1923 -5.4808 -2.0058 0.9765
-0.5996 -5.5769 -2.0058 0.9765
0.0000 -5.6090 -2.0058 0.9765
0.7982 -5.5516 -2.0057 0.9765
0.9958 -5.5194 -2.0057 0.9765
1.3870 -5.4341 -2.0056 0.9765
1.7710 -5.3210 -2.0055 0.9765
1.9597 -5.2542 -2.0054 0.9765
2.3294 -5.1007 -2.0053 0.9765
2.5099 -5.0141 -2.0052 0.9765
2.6872 -4.9211 -2.0051 0.9765
2.8610 -4.8219 -2.0050 0.9765
3.3596 -4.4878 -2.0047 0.9765
3.5174 -4.3649 -2.0046 0.9765
3.6708 -4.2363 -2.0045 0.9765
4.1019 -3.8190 -2.0042 0.9765
4.3634 -3.5162 -2.0040 0.9765
4.6026 -3.1956 -2.0037 0.9765
4.7134 -3.0291 -2.0036 0.9765
4.8182 -2.8587 -2.0035 0.9765
5.0092 -2.5074 -2.0032 0.9765
5.0952 -2.3269 -2.0031 0.9765
5.2475 -1.9572 -2.0028 0.9765
5.3136 -1.7685 -2.0027 0.9765
5.3730 -1.5776 -2.0025 0.9765
5.4255 -1.3848 -2.0024 0.9765
5.4711 -1.1901 -2.0023 0.9765
5.5658 -0.5984 -2.0018 0.9765
5.5832 -0.3993 -2.0017 0.9765
5.5935 -0.1997 -2.0016 0.9765
-5.2123 -0.3728 -2.0026 0.9779
-5.1075 -1.1111 -2.0031 0.9779
-5.0159 -1.4728 -2.0033 0.9779
-4.8986 -1.8271 -2.0036 0.9779
-4.6760 -2.3406 -2.0039 0.9778
-4.3997 -2.8275 -2.0042 0.9778
-4.2962 -2.9829 -2.0043 0.9778
-4.1872 -3.1345 -2.0044 0.9778
-3.6992 -3.6992 -2.0048 0.9778
-3.4261 -3.9539 -2.0049 0.9778
-2.6701 -4.5001 -2.0053 0.9778
-2.5078 -4.5927 -2.0053 0.9778
-2.3423 -4.6794 -2.0054 0.9778
-2.1739 -4.7601 -2.0054 0.9778
-1.8288 -4.9033 -2.0055 0.9778
-1.6527 -4.9655 -2.0055 0.9778
-1.4744 -5.0213 -2.0055 0.9778
-0.9292 -5.1503 -2.0056 0.9778
-0.7448 -5.1802 -2.0056 0.9778
0.0000 -5.2334 -2.0055 0.9778
0.1868 -5.2300 -2.0055 0.9778
0.5594 -5.2032 -2.0055 0.9778
0.7448 -5.1799 -2.0054 0.9778
0.9292 -5.1499 -2.0054 0.9778
1.1124 -5.1134 -2.0054 0.9778
1.6524 -4.9648 -2.0052 0.9778
2.1735 -4.7593 -2.0050 0.9778
2.3419 -4.6785 -2.0050 0.9778
2.6695 -4.4992 -2.0048 0.9778
2.8283 -4.4008 -2.0047 0.9778
2.9834 -4.2969 -2.0046 0.9778
3.4252 -3.9528 -2.0044 0.9778
3.5639 -3.8279 -2.0043 0.9778
3.6980 -3.6980 -2.0042 0.9778
3.8275 -3.5635 -2.0041 0.9778
3.9520 -3.4244 -2.0040 0.9778
4.1858 -3.1334 -2.0037 0.9779
4.2947 -2.9818 -2.0036 0.9779
4.3981 -2.8265 -2.0035 0.9779
4.4960 -2.6676 -2.0034 0.9779
4.6742 -2.3398 -2.0031 0.9779
4.7545 -2.1713 -2.0030 0.9779
5.0138 -1.4721 -2.0025 0.9779
5.0628 -1.2922 -2.0024 0.9779
5.1054 -1.1106 -2.0022 0.9779
5.1414 -0.9276 -2.0021 0.9779
-1.9308 -0.0689 -0.7907 0.9917
-1.9525 -0.1396 -0.8011 0.9916
-1.9449 -0.2796 -0.8042 0.9915
-2.1703 -0.3915 -0.9026 0.9905
-4.7822 -1.0403 -2.0030 0.9791
-4.6963 -1.3789 -2.0032 0.9791
-4.6443 -1.5458 -2.0033 0.9791
-4.5865 -1.7106 -2.0034 0.9791
-4.5227 -1.8734 -2.0036 0.9791
-4.4532 -2.0337 -2.0037 0.9791
-4.2972 -2.3464 -2.0039 0.9791
-3.9203 -2.9347 -2.0043 0.9791
-3.7013 -3.2071 -2.0044 0.9791
-3.5846 -3.3374 -2.0045 0.9791
-3.3376 -3.5849 -2.0047 0.9791
-2.9356 -3.9215 -2.0049 0.9791
-2.7939 -4.0239 -2.0049 0.9791
-2.6485 -4.1212 -2.0050 0.9790
-2.3479 -4.2998 -2.0051 0.9790
-2.1930 -4.3810 -2.0051 0.9790
-2.0353 -4.4566 -2.0052 0.9790
-1.8749 -4.5264 -2.0052 0.9790
-1.7122 -4.5905 -2.0052 0.9790
-1.5473 -4.6488 -2.0053 0.9790
-0.6973 -4.8498 -2.0053 0.9790
-0.5238 -4.8716 -2.0053 0.9790
0.3495 -4.8871 -2.0053 0.9790
0.5237 -4.8714 -2.0053 0.9790
0.6973 -4.8496 -2.0052 0.9790
0.8699 -4.8215 -2.0052 0.9790
1.0414 -4.7873 -2.0051 0.9790
1.2116 -4.7470 -2.0051 0.9790
1.7119 -4.5899 -2.0050 0.9790
1.8746 -4.5258 -2.0049 0.9791
2.1926 -4.3802 -2.0048 0.9791
2.4993 -4.2123 -2.0046 0.9791
2.6480 -4.1203 -2.0045 0.9791
2.9349 -3.9206 -2.0044 0.9791
3.0728 -3.8131 -2.0043 0.9791
3.3367 -3.5839 -2.0041 0.9791
3.4624 -3.4623 -2.0040 0.9791
3.5835 -3.3364 -2.0039 0.9791
3.9191 -2.9338 -2.0036 0.9791
4.0211 -2.7919 -2.0035 0.9791
4.2957 -2.3457 -2.0032 0.9791
4.4516 -2.0330 -2.0029 0.9791
4.5211 -1.8727 -2.0028 0.9791
4.5848 -1.7100 -2.0027 0.9791
4.6426 -1.5452 -2.0026 0.9791
4.6945 -1.3784 -2.0025 0.9791
4.8417 -0.6961 -2.0020 0.9791
4.8784 -0.3489 -2.0017 0.9791
4.8875 -0.1745 -2.0016 0.9791
-1.5222 0.0000 -0.6634 0.9934
-1.5284 -0.0546 -0.6665 0.9933
-1.5249 -0.1639 -0.6684 0.9933
-1.5151 -0.2178 -0.6671 0.9933
-1.5001 -0.2706 -0.6643 0.9934
-1.5707 -0.4612 -0.7134 0.9929
-4.2471 -1.7592 -2.0035 0.9801
-4.1818 -1.9097 -2.0036 0.9801
-3.9543 -2.3462 -2.0038 0.9801
-3.8682 -2.4859 -2.0039 0.9801
-3.7771 -2.6225 -2.0040 0.9801
-3.6813 -2.7558 -2.0041 0.9801
-3.4756 -3.0116 -2.0043 0.9801
-3.2521 -3.2521 -2.0044 0.9801
-2.6235 -3.7785 -2.0047 0.9801
-2.4870 -3.8698 -2.0048 0.9801
-2.0592 -4.1138 -2.0049 0.9801
-1.9111 -4.1847 -2.0050 0.9801
-1.4529 -4.3652 -2.0051 0.9801
-1.2962 -4.4144 -2.0051 0.9801
-0.9780 -4.4956 -2.0051 0.9801
-0.6548 -4.5540 -2.0051 0.9801
-0.1642 -4.5979 -2.0051 0.9801
0.0000 -4.6008 -2.0051 0.9801
0.1642 -4.5978 -2.0051 0.9801
0.3282 -4.5890 -2.0051 0.9801
0.4918 -4.5743 -2.0050 0.9801
0.9779 -4.4953 -2.0049 0.9801
1.1377 -4.4574 -2.0049 0.9801
1.2960 -4.4139 -2.0049 0.9801
1.4527 -4.3647 -2.0048 0.9801
1.6075 -4.3100 -2.0048 0.9801
1.9108 -4.1841 -2.0047 0.9801
2.4865 -3.8690 -2.0044 0.9801
2.8855 -3.5806 -2.0042 0.9801
3.1333 -3.3654 -2.0040 0.9801
3.2513 -3.2513 -2.0039 0.9801
3.4746 -3.0108 -2.0037 0.9801
3.6802 -2.7549 -2.0035 0.9801
3.7760 -2.6217 -2.0034 0.9801
4.1098 -2.0572 -2.0030 0.9801
4.3054 -1.6058 -2.0026 0.9801
4.3598 -1.4511 -2.0025 0.9802
4.4517 -1.1362 -2.0023 0.9802
4.4891 -0.9765 -2.0022 0.9802
4.5209 -0.8156 -2.0021 0.9802
4.5813 -0.3276 -2.0017 0.9802
-1.3333 0.0000 -0.6172 0.9941
-1.3376 -0.0478 -0.6195 0.9941
-1.3384 -0.0957 -0.6211 0.9941
-1.3351 -0.1435 -0.6215 0.9941
-1.3273 -0.1908 -0.6207 0.9941
-1.3013 -0.2830 -0.6164 0.9941
-1.3241 -0.3887 -0.6388 0.9939
-1.3324 -0.4969 -0.6582 0.9938
-1.3263 -0.5494 -0.6645 0.9937
-1.3151 -0.6006 -0.6692 0.9936
-3.7228 -2.2088 -2.0037 0.9811
-3.5561 -2.4690 -2.0039 0.9811
-3.2721 -2.8353 -2.0041 0.9811
-3.0617 -3.0617 -2.0043 0.9811
-2.7172 -3.3718 -2.0045 0.9811
-2.2099 -3.7245 -2.0047 0.9811
-2.0756 -3.8011 -2.0047 0.9811
-1.9386 -3.8729 -2.0048 0.9811
-1.7992 -3.9396 -2.0048 0.9811
-1.3678 -4.1096 -2.0049 0.9811
-0.7691 -4.2625 -2.0049 0.9811
-0.6164 -4.2873 -2.0049 0.9811
-0.4630 -4.3065 -2.0049 0.9811
-0.1546 -4.3286 -2.0049 0.9811
-0.0000 -4.3313 -2.0049 0.9811
0.4630 -4.3064 -2.0049 0.9811
0.6164 -4.2871 -2.0048 0.9811
0.9206 -4.2320 -2.0048 0.9811
1.0711 -4.1964 -2.0047 0.9811
1.3677 -4.1091 -2.0046 0.9811
1.9383 -3.8722 -2.0044 0.9811
2.0752 -3.8005 -2.0044 0.9811
2.4693 -3.5565 -2.0042 0.9811
2.7166 -3.3710 -2.0040 0.9811
2.8350 -3.2718 -2.0039 0.9811
3.1681 -2.9496 -2.0037 0.9811
3.2713 -2.8346 -2.0036 0.9811
3.4648 -2.5937 -2.0034 0.9811
3.5550 -2.4683 -2.0033 0.9811
3.6407 -2.3397 -2.0032 0.9811
3.7217 -2.2082 -2.0031 0.9811
3.7979 -2.0738 -2.0030 0.9811
3.8693 -1.9368 -2.0029 0.9811
3.9358 -1.7974 -2.0028 0.9811
4.0536 -1.5119 -2.0026 0.9811
4.1507 -1.2187 -2.0024 0.9811
4.1913 -1.0697 -2.0023 0.9811
4.2999 -0.4623 -2.0018 0.9811
-1.1954 0.0000 -0.5864 0.9947
-1.1578 -0.2955 -0.5861 0.9947
-1.1590 -0.3403 -0.5925 0.9946
-1.1543 -0.4305 -0.6043 0.9945
-1.1291 -0.5652 -0.6194 0.9944
-3.4364 -2.2084 -2.0037 0.9820
-3.3555 -2.3297 -2.0038 0.9820
-3.2703 -2.4481 -2.0039 0.9820
-3.0876 -2.6754 -2.0040 0.9820
-2.9902 -2.7840 -2.0041 0.9820
-2.8890 -2.8890 -2.0041 0.9820
-2.7842 -2.9904 -2.0042 0.9820
-1.9585 -3.5867 -2.0046 0.9820
-1.8292 -3.6544 -2.0046 0.9820
-1.6977 -3.7174 -2.0046 0.9820
-1.2906 -3.8777 -2.0047 0.9820
-1.1514 -3.9213 -2.0047 0.9820
-0.8687 -3.9936 -2.0047 0.9820
-0.5816 -4.0454 -2.0048 0.9820
-0.2916 -4.0766 -2.0048 0.9820
0.0000 -4.0869 -2.0047 0.9820
0.2916 -4.0765 -2.0047 0.9820
0.4369 -4.0634 -2.0047 0.9820
0.8687 -3.9933 -2.0046 0.9820
1.0106 -3.9596 -2.0046 0.9820
1.2905 -3.8773 -2.0045 0.9820
1.6974 -3.7169 -2.0043 0.9820
1.8290 -3.6538 -2.0043 0.9820
2.0849 -3.5138 -2.0042 0.9820
2.3301 -3.3559 -2.0040 0.9820
2.4483 -3.2705 -2.0040 0.9820
2.5634 -3.1809 -2.0039 0.9820
2.6752 -3.0873 -2.0038 0.9820
2.7835 -2.9897 -2.0037 0.9820
3.2695 -2.4474 -2.0033 0.9820
3.3546 -2.3291 -2.0032 0.9820
3.7139 -1.6961 -2.0028 0.9820
3.7719 -1.5624 -2.0027 0.9820
3.8251 -1.4267 -2.0026 0.9820
3.8734 -1.2892 -2.0025 0.9820
3.9167 -1.1500 -2.0024 0.9820
4.0166 -0.7247 -2.0021 0.9820
-1.1058 0.0000 -0.5737 0.9950
-1.1024 -0.1185 -0.5752 0.9950
-1.0704 -0.2732 -0.5731 0.9950
-1.0636 -0.3123 -0.5751 0.9950
-1.0617 -0.3533 -0.5805 0.9950
-1.0430 -0.4763 -0.5948 0.9948
-3.2490 -2.0880 -2.0036 0.9827
-3.0920 -2.3146 -2.0038 0.9827
-2.9192 -2.5295 -2.0039 0.9827
-2.7315 -2.7315 -2.0040 0.9827
-2.5298 -2.9196 -2.0041 0.9827
-2.4241 -3.0081 -2.0042 0.9827
-2.2034 -3.1735 -2.0043 0.9827
-2.0888 -3.2502 -2.0043 0.9827
-1.8517 -3.3911 -2.0044 0.9827
-1.7295 -3.4551 -2.0044 0.9827
-1.2202 -3.6662 -2.0045 0.9827
-0.9556 -3.7440 -2.0046 0.9827
-0.8214 -3.7757 -2.0046 0.9827
-0.5499 -3.8247 -2.0046 0.9827
-0.2757 -3.8542 -2.0046 0.9827
0.1379 -3.8615 -2.0046 0.9827
0.4130 -3.8418 -2.0045 0.9827
0.6860 -3.8024 -2.0045 0.9827
0.8213 -3.7755 -2.0045 0.9827
1.0885 -3.7071 -2.0044 0.9827
1.3502 -3.6199 -2.0043 0.9827
1.4785 -3.5693 -2.0043 0.9827
1.7292 -3.4546 -2.0042 0.9827
1.8514 -3.3905 -2.0041 0.9827
2.4236 -3.0075 -2.0038 0.9827
2.6318 -2.8267 -2.0036 0.9827
2.7309 -2.7309 -2.0036 0.9827
2.8265 -2.6316 -2.0035 0.9827
3.0068 -2.4230 -2.0033 0.9827
3.1717 -2.2022 -2.0032 0.9828
3.2482 -2.0875 -2.0031 0.9828
3.3205 -1.9701 -2.0030 0.9828
3.3885 -1.8503 -2.0029 0.9828
3.4523 -1.7281 -2.0028 0.9828
3.5664 -1.4772 -2.0026 0.9828
3.6167 -1.3489 -2.0025 0.9828
3.6624 -1.2189 -2.0024 0.9828
3.7034 -1.0874 -2.0023 0.9828
3.7711 -0.8203 -2.0021 0.9828
3.8197 -0.5492 -2.0019 0.9828
3.8367 -0.4125 -2.0018 0.9828
3.8487 -0.2752 -2.0017 0.9828
-1.0269 0.0000 -0.5625 0.9953
-1.0265 -0.0734 -0.5637 0.9953
-1.0236 -0.1100 -0.5639 0.9953
-1.0039 -0.2184 -0.5627 0.9953
-0.9820 -0.2883 -0.5606 0.9953
-0.9785 -0.3256 -0.5648 0.9953
-0.9677 -0.4008 -0.5737 0.9952
-2.9286 -2.1923 -2.0037 0.9835
-2.7649 -2.3958 -2.0038 0.9835
-2.5871 -2.5871 -2.0039 0.9835
-2.4932 -2.6779 -2.0040 0.9835
-2.3961 -2.7652 -2.0040 0.9835
-1.6380 -3.2724 -2.0043 0.9834
-1.5202 -3.3288 -2.0043 0.9834
-1.4004 -3.3810 -2.0044 0.9834
-1.1557 -3.4723 -2.0044 0.9834
-1.0311 -3.5114 -2.0044 0.9834
-0.7779 -3.5761 -2.0044 0.9834
-0.5208 -3.6225 -2.0045 0.9834
-0.0000 -3.6597 -2.0044 0.9834
0.2611 -3.6503 -2.0044 0.9834
0.3912 -3.6387 -2.0044 0.9834
1.2788 -3.4285 -2.0042 0.9834
1.4003 -3.3806 -2.0041 0.9835
1.6378 -3.2719 -2.0040 0.9835
1.7535 -3.2113 -2.0040 0.9835
1.8670 -3.1466 -2.0039 0.9835
1.9780 -3.0779 -2.0039 0.9835
2.1924 -2.9287 -2.0037 0.9835
2.6771 -2.4925 -2.0034 0.9835
2.7643 -2.3953 -2.0033 0.9835
2.9279 -2.1918 -2.0032 0.9835
3.0766 -1.9772 -2.0030 0.9835
3.2699 -1.6368 -2.0028 0.9835
3.5421 -0.9041 -2.0022 0.9835
3.6341 -0.3907 -2.0018 0.9835
3.6455 -0.2607 -2.0018 0.9835
-0.9570 0.0000 -0.5525 0.9956
-0.9575 -0.0342 -0.5532 0.9956
-0.9352 -0.2034 -0.5526 0.9956
-0.9259 -0.2363 -0.5517 0.9956
-0.9058 -0.3014 -0.5511 0.9956
-0.9011 -0.3361 -0.5553 0.9956
-0.8823 -0.4029 -0.5600 0.9955
-0.8687 -0.4348 -0.5609 0.9955
-0.8364 -0.4963 -0.5615 0.9955
-0.8008 -0.5560 -0.5628 0.9955
-0.7846 -0.5873 -0.5658 0.9955
-0.7671 -0.6182 -0.5688 0.9955
-2.6228 -2.2727 -2.0037 0.9841
-2.5401 -2.3649 -2.0037 0.9841
-2.2729 -2.6231 -2.0039 0.9841
-2.1779 -2.7026 -2.0039 0.9841
-1.7713 -2.9853 -2.0041 0.9841
-1.5538 -3.1041 -2.0042 0.9841
-0.9780 -3.3309 -2.0043 0.9841
-0.6164 -3.4164 -2.0043 0.9841
-0.3711 -3.4517 -2.0043 0.9841
-0.2477 -3.4627 -2.0043 0.9841
0.1239 -3.4693 -2.0043 0.9841
0.2477 -3.4627 -2.0043 0.9841
0.3711 -3.4516 -2.0043 0.9841
0.9780 -3.3306 -2.0041 0.9841
1.0962 -3.2935 -2.0041 0.9841
1.2130 -3.2522 -2.0041 0.9841
1.4419 -3.1573 -2.0040 0.9841
1.5536 -3.1037 -2.0039 0.9841
1.8764 -2.9197 -2.0038 0.9841
1.9793 -2.8507 -2.0037 0.9841
2.0798 -2.7782 -2.0037 0.9841
2.1775 -2.7021 -2.0036 0.9841
2.4536 -2.4536 -2.0034 0.9841
2.7016 -2.1771 -2.0032 0.9841
2.8498 -1.9786 -2.0030 0.9841
2.9185 -1.8756 -2.0029 0.9841
2.9835 -1.7701 -2.0029 0.9841
3.0446 -1.6625 -2.0028 0.9841
1.9883 -0.4325 -1.1748 0.9906
2.0300 -0.2919 -1.1841 0.9906
2.0359 -0.1456 -1.1784 0.9906
