ply
format ascii 1.0
element vertex 812
property float32 x
property float32 y
property float32 z
property float32 I
end_header
0.3673 5.1361 0.9080 0.9793
0.3673 5.1356 0.7888 0.9794
-1.9062 6.4918 1.0365 0.9730
-2.1196 6.3682 1.0282 0.9732
-2.1205 6.3708 0.8744 0.9733
-2.4034 6.4436 0.8956 0.9726
0.3672 5.1346 0.5528 0.9795
-1.9078 6.4971 0.7271 0.9731
-2.4040 6.4452 0.7387 0.9727
-2.4046 6.4468 0.5825 0.9728
0.3672 5.1336 0.3191 0.9796
-2.4052 6.4484 0.4268 0.9728
0.3671 5.1331 0.2029 0.9796
-1.9102 6.5051 0.2673 0.9732
-2.1239 6.3812 0.2652 0.9734
-1.9109 6.5078 0.1146 0.9732
-2.1248 6.3837 0.1137 0.9734
0.3670 5.1310 -0.2609 0.9796
-2.1274 6.3915 -0.3416 0.9734
-2.4082 6.4564 -0.3495 0.9728
0.3669 5.1306 -0.3771 0.9796
-1.9141 6.5184 -0.4981 0.9731
-2.1282 6.3941 -0.4941 0.9733
0.3669 5.1300 -0.4938 0.9795
-1.9148 6.5211 -0.6525 0.9731
-2.1291 6.3967 -0.6472 0.9733
-2.4094 6.4596 -0.6619 0.9727
-1.9156 6.5238 -0.8077 0.9730
-2.1300 6.3993 -0.8012 0.9732
0.3668 5.1290 -0.7286 0.9794
-1.9164 6.5265 -0.9638 0.9729
0.3668 5.1285 -0.8470 0.9794
-1.4208 7.8748 -1.3182 0.9681
-1.9172 6.5292 -1.1210 0.9728
-2.1317 6.4046 -1.1120 0.9730
9.0759 3.7594 -1.8465 0.9608
8.2595 5.3081 -1.8454 0.9608
8.0639 5.5989 -1.8452 0.9608
7.6425 6.1587 -1.8449 0.9608
7.4171 6.4269 -1.8447 0.9608
6.9384 6.9384 -1.8443 0.9609
6.6858 7.1811 -1.8442 0.9609
6.4247 7.4145 -1.8440 0.9609
5.8785 7.8527 -1.8438 0.9609
5.0044 8.4345 -1.8434 0.9609
4.3895 8.7691 -1.8432 0.9609
4.0735 8.9197 -1.8431 0.9609
3.7524 9.0591 -1.8430 0.9609
3.0963 9.3030 -1.8429 0.9609
2.4246 9.4997 -1.8428 0.9609
2.0840 9.5800 -1.8428 0.9609
1.7407 9.6481 -1.8427 0.9609
1.3952 9.7040 -1.8427 0.9609
1.0480 9.7475 -1.8427 0.9609
0.3668 5.1280 -0.9663 0.9793
0.3499 9.7975 -1.8427 0.9609
-0.3499 9.7977 -1.8428 0.9609
-0.6994 9.7792 -1.8428 0.9609
-1.0480 9.7482 -1.8428 0.9609
-1.3954 9.7048 -1.8429 0.9609
-1.9180 6.5320 -1.2796 0.9727
-2.1326 6.4073 -1.2693 0.9729
-3.7533 9.0612 -1.8435 0.9609
-4.0746 8.9220 -1.8436 0.9609
-4.7014 8.6099 -1.8439 0.9609
-5.3044 8.2538 -1.8441 0.9609
-5.5961 8.0599 -1.8443 0.9609
-5.8807 7.8557 -1.8445 0.9608
-6.6887 7.1841 -1.8450 0.9608
-7.1856 6.6900 -1.8454 0.9608
-7.4206 6.4300 -1.8456 0.9608
-7.6462 6.1617 -1.8458 0.9608
-7.8622 5.8855 -1.8460 0.9608
-8.4492 5.0131 -1.8466 0.9608
-8.7875 4.3987 -1.8471 0.9608
9.1662 2.3395 -1.9997 0.9621
8.9740 2.9868 -1.9992 0.9621
8.1643 3.7285 -1.8972 0.9640
7.8112 3.9100 -1.8464 0.9649
7.6659 4.1859 -1.8463 0.9649
7.5109 4.4564 -1.8461 0.9649
7.1725 4.9799 -1.8457 0.9649
6.9895 5.2323 -1.8456 0.9649
6.7977 5.4779 -1.8454 0.9649
6.1717 6.1717 -1.8449 0.9649
5.9470 6.3875 -1.8448 0.9649
5.7148 6.5952 -1.8447 0.9650
5.4754 6.7945 -1.8445 0.9650
4.9761 7.1669 -1.8443 0.9650
4.7168 7.3396 -1.8442 0.9650
3.3380 8.0586 -1.8438 0.9650
3.0481 8.1723 -1.8437 0.9650
2.7544 8.2756 -1.8437 0.9650
2.1569 8.4506 -1.8436 0.9650
1.8539 8.5221 -1.8435 0.9650
1.5485 8.5827 -1.8435 0.9650
1.2411 8.6324 -1.8435 0.9650
0.3667 5.1275 -1.0866 0.9792
0.3113 8.7156 -1.8435 0.9650
-0.0000 8.7213 -1.8435 0.9650
-0.3113 8.7158 -1.8435 0.9650
-0.9323 8.6717 -1.8436 0.9650
-1.2413 8.6331 -1.8436 0.9650
-1.1644 6.4538 -1.3862 0.9735
-1.7121 7.8702 -1.7025 0.9676
-1.9984 7.8295 -1.7081 0.9675
-2.1335 6.4100 -1.4280 0.9728
-2.4125 6.4678 -1.4592 0.9722
-2.3800 5.7456 -1.3146 0.9749
-2.6270 5.7522 -1.3367 0.9745
-2.8791 5.7517 -1.3596 0.9740
-3.1404 5.7512 -1.3851 0.9736
-4.9777 7.1692 -1.8449 0.9649
-5.2308 6.9875 -1.8450 0.9649
-5.4773 6.7969 -1.8452 0.9649
-5.7169 6.5977 -1.8453 0.9649
-6.1741 6.1741 -1.8457 0.9649
-6.6001 5.7190 -1.8460 0.9649
-6.8007 5.4803 -1.8462 0.9649
-6.9926 5.2346 -1.8464 0.9649
-7.1758 4.9822 -1.8466 0.9649
-7.6697 4.1879 -1.8472 0.9649
-8.5795 3.9181 -1.9937 0.9622
-8.7352 3.6182 -1.9986 0.9621
-8.8653 3.3066 -2.0001 0.9621
-9.2500 2.0122 -2.0010 0.9620
-9.3170 1.6810 -2.0012 0.9620
-9.3722 1.3475 -2.0015 0.9620
-9.4659 0.3381 -2.0022 0.9620
8.4921 0.6074 -2.0009 0.9656
8.4253 1.2114 -2.0005 0.9656
8.3758 1.5112 -2.0003 0.9656
8.1638 2.3971 -1.9997 0.9656
8.0723 2.6867 -1.9995 0.9656
7.9704 2.9728 -1.9993 0.9656
7.7239 3.5274 -1.9956 0.9657
7.5771 3.7928 -1.9914 0.9658
6.4523 4.4799 -1.8461 0.9682
6.1153 4.9280 -1.8458 0.9682
5.7473 5.3509 -1.8455 0.9682
5.5522 5.5522 -1.8454 0.9683
5.3502 5.7465 -1.8453 0.9683
4.9260 6.1127 -1.8451 0.9683
3.5130 7.0180 -1.8445 0.9683
3.2601 7.1387 -1.8444 0.9683
1.6679 7.6673 -1.8441 0.9683
0.8387 7.8015 -1.8441 0.9683
0.2801 7.8415 -1.8441 0.9683
-0.0000 7.8466 -1.8441 0.9683
-0.5598 7.8267 -1.8442 0.9683
-0.8388 7.8019 -1.8442 0.9683
-1.0634 7.3961 -1.7561 0.9698
-1.1644 6.4537 -1.5413 0.9734
-1.2520 5.7549 -1.3842 0.9761
-1.4688 5.7545 -1.3958 0.9759
-2.1459 5.7532 -1.4431 0.9751
-2.6270 5.7523 -1.4862 0.9744
-2.8792 5.7518 -1.5117 0.9739
-4.0060 6.7518 -1.8451 0.9683
-4.2447 6.6050 -1.8452 0.9683
-4.4781 6.4497 -1.8454 0.9683
-4.9275 6.1147 -1.8456 0.9682
-5.1430 5.9354 -1.8458 0.9682
-5.3520 5.7484 -1.8459 0.9682
-5.7494 5.3529 -1.8462 0.9682
-5.9373 5.1447 -1.8464 0.9682
-6.2903 4.7089 -1.8467 0.9682
-6.4550 4.4817 -1.8469 0.9682
-6.6681 4.2853 -1.8629 0.9680
-7.7401 3.5348 -1.9998 0.9656
-8.0761 2.6880 -2.0004 0.9656
-8.1678 2.3983 -2.0007 0.9656
7.7299 0.0000 -2.0014 0.9686
7.7242 0.2759 -2.0012 0.9686
7.6834 0.8260 -2.0008 0.9686
7.6482 1.0997 -2.0006 0.9686
7.4848 1.9104 -2.0001 0.9686
7.4111 2.1761 -1.9999 0.9686
7.3281 2.4390 -1.9997 0.9686
7.2357 2.6988 -1.9995 0.9686
7.1342 2.9550 -1.9994 0.9686
6.9040 3.4559 -1.9990 0.9686
6.7643 3.6936 -1.9955 0.9687
6.6159 3.9254 -1.9918 0.9687
6.2723 4.0309 -1.9305 0.9697
5.9032 4.0987 -1.8607 0.9707
5.3884 4.6691 -1.8460 0.9710
5.2179 4.8581 -1.8459 0.9710
5.0409 5.0409 -1.8458 0.9710
4.4724 5.5499 -1.8455 0.9710
3.8529 5.9953 -1.8452 0.9710
3.6363 6.1287 -1.8451 0.9710
3.4151 6.2543 -1.8450 0.9710
2.7267 6.5828 -1.8449 0.9710
2.4899 6.6758 -1.8448 0.9710
2.2500 6.7602 -1.8448 0.9710
2.0073 6.8361 -1.8447 0.9710
1.7619 6.9033 -1.8447 0.9710
0.3619 5.0604 -1.3136 0.9793
0.1877 5.2555 -1.3616 0.9785
-0.5083 7.1064 -1.8447 0.9710
-1.6896 5.7542 -1.5528 0.9755
-1.9151 5.7537 -1.5701 0.9753
-2.1459 5.7533 -1.5899 0.9749
-2.3830 5.7529 -1.6122 0.9746
-2.6271 5.7524 -1.6374 0.9742
-2.8793 5.7519 -1.6654 0.9738
-3.3607 5.6640 -1.7052 0.9732
-3.8539 5.9967 -1.8457 0.9710
-4.0657 5.8557 -1.8458 0.9710
-4.2724 5.7072 -1.8459 0.9710
-4.6693 5.3886 -1.8461 0.9710
-5.3902 4.6707 -1.8467 0.9710
-6.4778 4.1630 -1.9937 0.9687
-6.7784 3.7013 -1.9996 0.9686
-6.9068 3.4573 -1.9998 0.9686
-7.0265 3.2089 -2.0000 0.9686
-7.1372 2.9563 -2.0002 0.9686
-7.3313 2.4401 -2.0006 0.9686
-7.5523 1.6429 -2.0011 0.9686
-7.6068 1.3724 -2.0013 0.9686
-7.6517 1.1002 -2.0015 0.9686
-7.6869 0.8264 -2.0017 0.9686
-7.7277 0.2760 -2.0021 0.9686
7.0507 0.5043 -2.0011 0.9710
7.0276 0.7555 -2.0009 0.9710
6.9955 1.0058 -2.0007 0.9710
6.9047 1.5020 -2.0004 0.9711
6.4245 2.9340 -1.9994 0.9711
6.0723 3.6028 -1.9988 0.9711
5.9301 3.8110 -1.9955 0.9711
5.7811 4.0139 -1.9924 0.9712
4.7732 4.4440 -1.8462 0.9733
4.4435 4.7726 -1.8460 0.9733
3.9072 5.2195 -1.8457 0.9733
3.7183 5.3553 -1.8457 0.9733
3.1241 5.7214 -1.8454 0.9733
2.9178 5.8291 -1.8454 0.9733
2.7078 5.9293 -1.8453 0.9733
2.4944 6.0220 -1.8453 0.9733
2.2778 6.1071 -1.8452 0.9733
2.0583 6.1843 -1.8452 0.9733
1.3854 6.3686 -1.8451 0.9733
1.1572 6.4140 -1.8451 0.9733
0.9275 6.4511 -1.8450 0.9733
0.6967 6.4801 -1.8450 0.9733
0.3611 5.0482 -1.4328 0.9792
-0.0000 6.5175 -1.8451 0.9733
-0.6967 6.4804 -1.8451 0.9733
-0.9276 6.4515 -1.8452 0.9733
-1.9010 5.7114 -1.7041 0.9753
-2.5802 5.6497 -1.7583 0.9745
-2.8279 5.6492 -1.7884 0.9741
-3.9082 5.2208 -1.8462 0.9733
-4.0923 5.0783 -1.8463 0.9733
-5.1049 4.4235 -1.9122 0.9723
-5.6386 4.2210 -1.9940 0.9711
-5.7951 4.0236 -1.9972 0.9711
-6.0749 3.6044 -1.9997 0.9711
-6.4269 2.9351 -2.0002 0.9711
-6.7815 1.9912 -2.0009 0.9710
-6.8489 1.7481 -2.0010 0.9710
-6.9076 1.5027 -2.0012 0.9710
-6.9574 1.2553 -2.0014 0.9710
-7.0536 0.5045 -2.0019 0.9710
6.5025 0.2322 -2.0013 0.9731
6.4012 1.1549 -2.0007 0.9731
6.3015 1.6083 -2.0004 0.9732
6.2396 1.8321 -2.0002 0.9732
6.0067 2.4881 -1.9998 0.9732
5.9136 2.7007 -1.9996 0.9732
5.7051 3.1152 -1.9993 0.9732
5.5899 3.3166 -1.9992 0.9732
5.1946 3.8887 -1.9958 0.9732
5.0454 4.0659 -1.9930 0.9732
4.8578 4.2093 -1.9771 0.9735
4.5701 4.2549 -1.9206 0.9742
4.2926 4.2926 -1.8672 0.9749
3.9308 4.5364 -1.8462 0.9752
3.7662 4.6735 -1.8461 0.9752
3.5968 4.8047 -1.8461 0.9752
3.4229 4.9299 -1.8460 0.9752
3.2446 5.0487 -1.8459 0.9752
3.0622 5.1611 -1.8458 0.9752
2.8760 5.2669 -1.8458 0.9752
2.6861 5.3661 -1.8457 0.9752
2.4927 5.4583 -1.8457 0.9752
2.0969 5.6220 -1.8456 0.9752
1.6904 5.7570 -1.8455 0.9752
1.2754 5.8628 -1.8454 0.9752
1.0653 5.9045 -1.8454 0.9752
0.8539 5.9387 -1.8454 0.9752
0.6413 5.9654 -1.8454 0.9752
0.1856 5.1976 -1.5997 0.9785
0.0000 5.9999 -1.8454 0.9752
-0.2142 5.9961 -1.8454 0.9752
-0.4280 5.9847 -1.8455 0.9752
-0.6414 5.9657 -1.8455 0.9752
-0.8539 5.9391 -1.8455 0.9752
-1.0604 5.8772 -1.8369 0.9753
-1.2297 5.6524 -1.7792 0.9761
-1.4426 5.6520 -1.7942 0.9759
-1.6595 5.6516 -1.8117 0.9757
-2.0972 5.6227 -1.8458 0.9752
-2.6865 5.3670 -1.8460 0.9752
-3.0628 5.1621 -1.8462 0.9752
-3.5976 4.8059 -1.8465 0.9752
-3.9318 4.5375 -1.8467 0.9752
-4.1790 4.4886 -1.8863 0.9747
-4.4603 4.4603 -1.9402 0.9739
-4.7394 4.4126 -1.9917 0.9733
-4.9007 4.2465 -1.9945 0.9732
-5.0564 4.0747 -1.9974 0.9732
-5.2039 3.8956 -1.9994 0.9732
-5.4694 3.5149 -1.9997 0.9732
-5.5917 3.3177 -1.9998 0.9732
-5.9157 2.7016 -2.0003 0.9732
-6.0088 2.4889 -2.0005 0.9731
-6.0943 2.2731 -2.0006 0.9731
-6.2419 1.8328 -2.0009 0.9731
-6.3039 1.6090 -2.0011 0.9731
-6.3578 1.3831 -2.0013 0.9731
-6.5050 0.2323 -2.0021 0.9731
6.0170 0.2149 -2.0014 0.9749
6.0050 0.4295 -2.0012 0.9749
5.9854 0.6435 -2.0011 0.9749
5.9582 0.8567 -2.0009 0.9749
5.8810 1.2793 -2.0006 0.9749
5.8312 1.4883 -2.0005 0.9750
5.7094 1.9003 -2.0002 0.9750
5.6375 2.1027 -2.0000 0.9750
5.4724 2.4992 -1.9998 0.9750
5.3794 2.6927 -1.9996 0.9750
4.5391 3.9331 -1.9965 0.9750
4.3904 4.0876 -1.9940 0.9750
4.2367 4.2367 -1.9916 0.9751
4.0080 4.3049 -1.9552 0.9755
3.7594 4.3386 -1.9083 0.9761
3.5218 4.3703 -1.8657 0.9766
2.8339 4.7763 -1.8461 0.9769
2.4858 4.9661 -1.8460 0.9769
2.1251 5.1305 -1.8459 0.9769
0.7902 5.4961 -1.8457 0.9769
0.1795 5.0250 -1.6714 0.9790
0.0000 5.5527 -1.8457 0.9769
-0.1982 5.5492 -1.8458 0.9769
-0.3961 5.5386 -1.8458 0.9769
-0.5936 5.5210 -1.8458 0.9769
-1.1804 5.4262 -1.8459 0.9769
-1.3734 5.3808 -1.8459 0.9769
-1.5646 5.3285 -1.8460 0.9769
-1.9408 5.2036 -1.8461 0.9769
-2.1254 5.1312 -1.8462 0.9769
-3.3905 4.5291 -1.8806 0.9764
-3.6350 4.5107 -1.9256 0.9759
-3.8913 4.4909 -1.9752 0.9753
-4.0853 4.3879 -1.9929 0.9750
-4.2443 4.2443 -1.9952 0.9750
-4.3985 4.0952 -1.9977 0.9750
-4.6837 3.7743 -1.9995 0.9750
-5.0613 3.2527 -1.9999 0.9750
-5.1745 3.0702 -2.0000 0.9750
-5.3811 2.6936 -2.0003 0.9750
-5.4742 2.5000 -2.0004 0.9750
-5.7113 1.9009 -2.0009 0.9749
-5.7759 1.6960 -2.0010 0.9749
-5.8332 1.4888 -2.0012 0.9749
-5.8831 1.2798 -2.0013 0.9749
-5.9255 1.0691 -2.0015 0.9749
-6.0072 0.4297 -2.0019 0.9749
5.5970 -0.0000 -2.0015 0.9765
5.5062 0.9934 -2.0008 0.9765
5.4668 1.1892 -2.0007 0.9765
5.4205 1.3835 -2.0006 0.9765
5.3073 1.7664 -2.0003 0.9765
5.2405 1.9546 -2.0002 0.9765
5.1671 2.1403 -2.0000 0.9765
5.0007 2.5031 -1.9998 0.9765
4.8088 2.8532 -1.9996 0.9765
4.7036 3.0228 -1.9994 0.9765
4.2247 3.6607 -1.9990 0.9765
4.0911 3.8089 -1.9989 0.9765
3.9491 3.9491 -1.9972 0.9766
3.4938 4.3356 -1.9912 0.9766
3.0550 4.4000 -1.9155 0.9775
2.8424 4.4229 -1.8801 0.9779
2.6390 4.4478 -1.8495 0.9783
2.1447 4.6961 -1.8462 0.9783
1.9756 4.7696 -1.8462 0.9783
1.8041 4.8370 -1.8461 0.9783
1.4544 4.9532 -1.8461 0.9783
1.2766 5.0019 -1.8461 0.9783
1.0973 5.0442 -1.8460 0.9783
0.7346 5.1096 -1.8460 0.9783
-0.0000 5.1621 -1.8460 0.9783
-0.1843 5.1589 -1.8460 0.9783
-0.3683 5.1491 -1.8460 0.9783
-0.5518 5.1327 -1.8461 0.9783
-0.7347 5.1098 -1.8461 0.9783
-0.9166 5.0804 -1.8461 0.9783
-1.8043 4.8375 -1.8464 0.9783
-1.9759 4.7702 -1.8464 0.9783
-2.3113 4.6174 -1.8465 0.9783
-2.7027 4.5551 -1.8941 0.9778
-2.9175 4.5397 -1.9298 0.9773
-3.3385 4.4596 -1.9922 0.9766
-3.4990 4.3419 -1.9941 0.9766
-3.6555 4.2187 -1.9962 0.9766
-3.8079 4.0900 -1.9984 0.9765
-4.2257 3.6616 -1.9995 0.9765
-4.5937 3.1895 -1.9999 0.9765
-4.7049 3.0236 -2.0000 0.9765
-4.8101 2.8540 -2.0001 0.9765
-5.0887 2.3239 -2.0005 0.9765
-5.1687 2.1409 -2.0007 0.9765
-5.4686 1.1896 -2.0013 0.9765
-5.5080 0.9937 -2.0015 0.9765
-5.5656 0.5983 -2.0018 0.9765
-5.5838 0.3994 -2.0019 0.9765
-5.5949 0.1998 -2.0021 0.9765
5.2230 0.0000 -2.0016 0.9779
5.2090 0.3725 -2.0013 0.9779
5.1921 0.5582 -2.0012 0.9779
5.1384 0.9271 -2.0009 0.9779
5.0585 1.2911 -2.0007 0.9779
5.0089 1.4707 -2.0005 0.9779
4.8221 1.9974 -2.0002 0.9779
4.7474 2.1681 -2.0001 0.9779
4.6668 2.3360 -1.9999 0.9779
4.5802 2.5010 -1.9998 0.9779
4.4877 2.6627 -1.9997 0.9779
4.0623 3.2736 -1.9993 0.9779
3.9427 3.4164 -1.9992 0.9779
3.6886 3.6886 -1.9990 0.9779
3.4148 3.9408 -1.9983 0.9779
3.2690 4.0565 -1.9965 0.9779
3.1194 4.1670 -1.9947 0.9779
2.9662 4.2721 -1.9931 0.9780
2.8096 4.3719 -1.9915 0.9780
2.6242 4.4228 -1.9708 0.9782
1.8613 4.4935 -1.8639 0.9794
1.6838 4.5143 -1.8464 0.9796
1.0241 4.7077 -1.8463 0.9796
0.8554 4.7412 -1.8463 0.9796
0.6856 4.7687 -1.8463 0.9796
0.3437 4.8055 -1.8462 0.9796
-0.1720 4.8147 -1.8463 0.9796
-0.5150 4.7903 -1.8463 0.9796
-1.5264 4.5860 -1.8522 0.9795
-1.7073 4.5775 -1.8722 0.9793
-2.0833 4.5617 -1.9218 0.9787
-2.2790 4.5528 -1.9511 0.9784
-2.4808 4.5432 -1.9837 0.9781
-2.9700 4.2775 -1.9956 0.9779
-3.1235 4.1725 -1.9974 0.9779
-3.2734 4.0620 -1.9992 0.9779
-3.5552 3.8185 -1.9994 0.9779
-3.6894 3.6894 -1.9995 0.9779
-3.8189 3.5555 -1.9996 0.9779
-3.9436 3.4171 -1.9997 0.9779
-4.0633 3.2744 -1.9998 0.9779
-4.1778 3.1275 -1.9999 0.9779
-4.3908 2.8218 -2.0001 0.9779
-4.4889 2.6634 -2.0002 0.9779
-4.6681 2.3367 -2.0005 0.9779
-4.8235 1.9979 -2.0007 0.9779
-5.0104 1.4712 -2.0011 0.9779
-5.1399 0.9274 -2.0015 0.9779
-5.1701 0.7433 -2.0016 0.9779
-5.1937 0.5584 -2.0018 0.9779
-5.2106 0.3727 -2.0019 0.9779
4.8905 0.0000 -2.0016 0.9791
4.8871 0.1746 -2.0015 0.9791
4.8775 0.3488 -2.0013 0.9791
4.8616 0.5227 -2.0012 0.9791
4.8396 0.6958 -2.0011 0.9791
4.7366 1.2089 -2.0007 0.9791
4.6902 1.3772 -2.0006 0.9791
4.5795 1.7080 -2.0004 0.9791
4.5153 1.8703 -2.0003 0.9791
4.4454 2.0302 -2.0002 0.9791
4.2888 2.3419 -2.0000 0.9791
4.2023 2.4933 -1.9999 0.9791
4.0133 2.7865 -1.9997 0.9791
3.6920 3.1991 -1.9994 0.9791
3.3284 3.5750 -1.9991 0.9791
3.0647 3.8031 -1.9990 0.9791
2.9269 3.9099 -1.9989 0.9791
2.7841 4.0099 -1.9980 0.9791
2.6373 4.1037 -1.9965 0.9791
2.3348 4.2758 -1.9939 0.9792
2.1794 4.3539 -1.9927 0.9792
2.0215 4.4264 -1.9916 0.9792
1.8525 4.4723 -1.9812 0.9793
1.6731 4.4858 -1.9595 0.9795
1.4973 4.4986 -1.9405 0.9797
1.3245 4.5108 -1.9241 0.9799
1.1543 4.5224 -1.9102 0.9800
0.8192 4.5407 -1.8884 0.9803
-0.1633 4.5724 -1.8726 0.9804
-0.3272 4.5745 -1.8770 0.9804
-0.6576 4.5738 -1.8912 0.9802
-0.9945 4.5714 -1.9147 0.9800
-1.1663 4.5696 -1.9302 0.9798
-1.3411 4.5672 -1.9482 0.9796
-1.5188 4.5632 -1.9683 0.9794
-1.8627 4.4969 -1.9921 0.9792
-2.0232 4.4301 -1.9933 0.9792
-2.6403 4.1085 -1.9988 0.9791
-2.9274 3.9106 -1.9993 0.9791
-3.1992 3.6921 -1.9994 0.9791
-3.3291 3.5757 -1.9995 0.9791
-3.4548 3.4548 -1.9996 0.9791
-3.5761 3.3294 -1.9997 0.9791
-3.8048 3.0661 -1.9999 0.9791
-4.0143 2.7872 -2.0001 0.9791
-4.3711 2.1880 -2.0006 0.9791
-4.6390 1.5440 -2.0010 0.9791
-4.7379 1.2093 -2.0013 0.9791
-4.7784 1.0395 -2.0014 0.9791
-2.1703 0.3916 -0.9026 0.9905
-1.9449 0.2796 -0.8042 0.9915
-1.9525 0.1396 -0.8011 0.9916
4.5927 0.0000 -2.0016 0.9802
4.5895 0.1639 -2.0015 0.9802
4.5185 0.8152 -2.0010 0.9802
4.4862 0.9759 -2.0009 0.9802
4.4483 1.1354 -2.0008 0.9802
4.4047 1.2933 -2.0007 0.9802
4.3555 1.4496 -2.0006 0.9802
4.3008 1.6041 -2.0005 0.9802
4.1749 1.9066 -2.0003 0.9802
3.9466 2.3417 -2.0000 0.9802
3.8604 2.4809 -1.9999 0.9802
3.5726 2.8790 -1.9996 0.9802
3.4674 3.0045 -1.9995 0.9802
3.3578 3.1262 -1.9995 0.9802
2.8783 3.5718 -1.9992 0.9802
2.3404 3.9446 -1.9989 0.9802
2.1977 4.0247 -1.9985 0.9802
2.0514 4.0982 -1.9973 0.9802
1.1306 4.4296 -1.9924 0.9803
0.9715 4.4660 -1.9919 0.9803
0.6502 4.5221 -1.9911 0.9803
0.1622 4.5428 -1.9811 0.9804
-0.0000 4.5475 -1.9819 0.9804
-0.1626 4.5517 -1.9850 0.9803
-0.3257 4.5537 -1.9897 0.9803
-0.8116 4.4983 -1.9921 0.9803
-0.9719 4.4678 -1.9927 0.9802
-1.4456 4.3432 -1.9949 0.9802
-1.7534 4.2330 -1.9968 0.9802
-2.3408 3.9451 -1.9992 0.9802
-2.4802 3.8592 -1.9993 0.9802
-2.6164 3.7684 -1.9994 0.9802
-2.8788 3.5724 -1.9995 0.9802
-3.0046 3.4675 -1.9996 0.9802
-3.4681 3.0051 -1.9999 0.9802
-3.5733 2.8796 -2.0000 0.9802
-3.6740 2.7503 -2.0001 0.9802
-3.7700 2.6176 -2.0002 0.9802
-3.8612 2.4815 -2.0003 0.9802
-3.9476 2.3422 -2.0004 0.9802
-4.0288 2.1999 -2.0005 0.9802
-4.1050 2.0548 -2.0007 0.9802
-4.1760 1.9071 -2.0008 0.9802
-1.5984 0.5962 -0.7435 0.9926
-1.5875 0.5284 -0.7292 0.9927
-1.5707 0.4612 -0.7134 0.9929
-1.5151 0.2178 -0.6671 0.9933
-1.5293 0.1094 -0.6682 0.9933
4.3127 0.3084 -2.0014 0.9811
4.2987 0.4622 -2.0013 0.9811
4.2793 0.6153 -2.0012 0.9811
4.2544 0.7676 -2.0011 0.9811
4.2240 0.9189 -2.0010 0.9811
4.1473 1.2178 -2.0008 0.9811
4.1010 1.3649 -2.0007 0.9811
4.0494 1.5104 -2.0006 0.9811
3.9927 1.6538 -2.0005 0.9811
3.8642 1.9343 -2.0003 0.9811
3.7160 2.2048 -2.0001 0.9811
3.6348 2.3360 -2.0000 0.9811
3.5490 2.4641 -1.9999 0.9811
3.4586 2.5891 -1.9998 0.9811
3.2648 2.8290 -1.9997 0.9811
3.1617 2.9436 -1.9996 0.9811
3.0545 3.0545 -1.9995 0.9811
2.7102 3.3632 -1.9993 0.9811
2.3350 3.6333 -1.9992 0.9811
2.2038 3.7142 -1.9991 0.9811
1.9331 3.8618 -1.9990 0.9811
1.7940 3.9283 -1.9990 0.9811
1.6526 3.9897 -1.9989 0.9811
1.2157 4.1403 -1.9974 0.9812
0.9168 4.2143 -1.9964 0.9812
0.4608 4.2860 -1.9954 0.9812
0.3075 4.2994 -1.9952 0.9812
0.1538 4.3075 -1.9952 0.9812
-0.0000 4.3103 -1.9952 0.9812
-0.1539 4.3079 -1.9953 0.9812
-0.3076 4.3000 -1.9955 0.9812
-0.6137 4.2685 -1.9961 0.9812
-1.2163 4.1425 -1.9984 0.9812
-1.3638 4.0977 -1.9990 0.9811
-1.5093 4.0465 -1.9991 0.9811
-1.6528 3.9901 -1.9991 0.9811
-1.7942 3.9287 -1.9992 0.9811
-2.0700 3.7909 -1.9993 0.9811
-2.2040 3.7147 -1.9994 0.9811
-2.4636 3.5483 -1.9995 0.9811
-2.5888 3.4582 -1.9996 0.9811
-2.7107 3.3637 -1.9996 0.9811
-2.8291 3.2649 -1.9997 0.9811
-3.0550 3.0550 -1.9999 0.9811
-3.1623 2.9442 -2.0000 0.9811
-3.2655 2.8296 -2.0001 0.9811
-3.3646 2.7113 -2.0001 0.9811
-3.6356 2.3365 -2.0004 0.9811
-1.3324 0.4969 -0.6582 0.9938
4.0806 0.0000 -2.0016 0.9820
4.0698 0.2911 -2.0014 0.9820
4.0566 0.4361 -2.0013 0.9820
4.0382 0.5806 -2.0012 0.9820
3.9861 0.8671 -2.0010 0.9820
3.7679 1.5607 -2.0005 0.9820
3.6467 1.8254 -2.0004 0.9820
3.5790 1.9543 -2.0003 0.9820
3.2639 2.4434 -1.9999 0.9820
3.1745 2.5582 -1.9999 0.9820
3.0811 2.6698 -1.9998 0.9820
2.5577 3.1739 -1.9995 0.9820
2.3246 3.3481 -1.9994 0.9820
2.2036 3.4288 -1.9993 0.9820
2.0797 3.5052 -1.9993 0.9820
1.9533 3.5771 -1.9992 0.9820
1.8243 3.6445 -1.9992 0.9820
1.6930 3.7072 -1.9991 0.9820
1.5596 3.7652 -1.9991 0.9820
1.2870 3.8668 -1.9991 0.9820
1.1481 3.9102 -1.9990 0.9820
1.0078 3.9487 -1.9990 0.9820
0.8663 3.9821 -1.9990 0.9820
0.5800 4.0337 -1.9990 0.9820
0.4356 4.0518 -1.9990 0.9820
-0.4356 4.0519 -1.9990 0.9820
-0.5800 4.0339 -1.9990 0.9820
-1.0079 3.9489 -1.9991 0.9820
-1.1482 3.9105 -1.9992 0.9820
-1.2871 3.8671 -1.9992 0.9820
-1.6932 3.7076 -1.9993 0.9820
-2.4431 3.2635 -1.9997 0.9820
-2.5581 3.1744 -1.9998 0.9820
-2.7782 2.9840 -1.9999 0.9820
-3.1751 2.5587 -2.0002 0.9820
-3.4309 2.2049 -2.0005 0.9820
-3.5076 2.0811 -2.0006 0.9820
-1.1401 0.5206 -0.6148 0.9944
-1.1484 0.4757 -0.6097 0.9945
-1.1590 0.3403 -0.5925 0.9946
-1.1578 0.2955 -0.5861 0.9947
-1.1791 0.2127 -0.5877 0.9947
-1.1954 0.0855 -0.5878 0.9947
-1.1965 0.0427 -0.5873 0.9947
3.8583 0.0000 -2.0016 0.9828
3.8481 0.2752 -2.0014 0.9828
3.8357 0.4124 -2.0013 0.9828
3.8183 0.5490 -2.0013 0.9828
3.7691 0.8199 -2.0011 0.9828
3.7373 0.9539 -2.0010 0.9828
3.7007 1.0866 -2.0009 0.9828
3.5628 1.4758 -2.0006 0.9828
3.5077 1.6019 -2.0005 0.9828
3.4482 1.7260 -2.0004 0.9828
3.3842 1.8479 -2.0004 0.9828
3.1669 2.1988 -2.0001 0.9828
3.0018 2.4190 -2.0000 0.9828
2.9134 2.5245 -1.9999 0.9828
2.4185 3.0012 -1.9996 0.9828
2.1982 3.1659 -1.9995 0.9828
1.9666 3.3145 -1.9994 0.9828
1.4748 3.5604 -1.9993 0.9828
1.3467 3.6108 -1.9992 0.9828
1.2170 3.6565 -1.9992 0.9828
0.6842 3.7923 -1.9991 0.9828
0.4119 3.8314 -1.9991 0.9828
0.1375 3.8511 -1.9991 0.9828
-0.1375 3.8511 -1.9992 0.9828
-0.4119 3.8315 -1.9992 0.9828
-0.5484 3.8144 -1.9992 0.9828
-0.6842 3.7925 -1.9992 0.9828
-0.8192 3.7657 -1.9993 0.9828
-0.9531 3.7341 -1.9993 0.9828
-1.4749 3.5607 -1.9994 0.9828
-1.6011 3.5059 -1.9995 0.9828
-1.9668 3.3149 -1.9996 0.9828
-2.3101 3.0860 -1.9998 0.9828
-2.4189 3.0016 -1.9999 0.9828
-2.5246 2.9135 -2.0000 0.9828
-2.7262 2.7262 -2.0001 0.9828
-2.9139 2.5249 -2.0003 0.9828
-3.0869 2.3108 -2.0004 0.9828
-3.2442 2.0849 -2.0006 0.9828
-0.9917 0.5884 -0.5982 0.9948
-1.0118 0.5525 -0.5981 0.9948
-1.0298 0.5155 -0.5974 0.9948
-1.0514 0.4355 -0.5904 0.9949
-1.0617 0.3534 -0.5805 0.9950
-1.0636 0.3123 -0.5751 0.9950
-1.0704 0.2732 -0.5731 0.9950
-1.0814 0.2352 -0.5741 0.9950
-1.0974 0.1578 -0.5752 0.9950
-1.1055 0.0791 -0.5750 0.9950
-1.1066 0.0395 -0.5744 0.9950
3.6546 -0.0000 -2.0016 0.9835
3.6332 0.3906 -2.0014 0.9835
3.6168 0.5200 -2.0013 0.9835
3.2662 1.6349 -2.0005 0.9835
3.2056 1.7504 -2.0004 0.9835
3.1410 1.8636 -2.0004 0.9835
2.9235 2.1885 -2.0001 0.9835
2.8434 2.2914 -2.0001 0.9835
2.6725 2.4882 -1.9999 0.9835
2.5819 2.5819 -1.9999 0.9835
2.1880 2.9228 -1.9997 0.9835
2.0822 2.9989 -1.9996 0.9835
1.7496 3.2041 -1.9995 0.9835
1.3970 3.3726 -1.9994 0.9835
1.2757 3.4203 -1.9994 0.9835
1.1528 3.4636 -1.9993 0.9835
0.9028 3.5370 -1.9993 0.9835
0.7759 3.5669 -1.9993 0.9835
0.3902 3.6294 -1.9993 0.9835
0.1303 3.6480 -1.9993 0.9835
-0.1303 3.6480 -1.9993 0.9835
-0.2604 3.6410 -1.9993 0.9835
-0.5195 3.6133 -1.9993 0.9835
-0.6481 3.5925 -1.9994 0.9835
-0.9028 3.5371 -1.9994 0.9835
-1.2758 3.4205 -1.9995 0.9835
-1.5166 3.3210 -1.9996 0.9835
-1.6342 3.2648 -1.9997 0.9835
-1.8631 3.1400 -1.9998 0.9835
-2.1882 2.9232 -1.9999 0.9835
-2.4884 2.6728 -2.0001 0.9835
-2.5823 2.5823 -2.0002 0.9835
-2.6729 2.4886 -2.0003 0.9835
-2.8439 2.2917 -2.0004 0.9835
-2.9240 2.1888 -2.0005 0.9835
-0.8661 0.6014 -0.5775 0.9952
-0.8882 0.5708 -0.5782 0.9952
-0.9269 0.5061 -0.5784 0.9952
-0.9434 0.4722 -0.5778 0.9952
-0.9580 0.4375 -0.5768 0.9952
-0.9785 0.3257 -0.5648 0.9953
-0.9938 0.2536 -0.5618 0.9953
-1.0039 0.2184 -0.5627 0.9953
-1.0190 0.1465 -0.5638 0.9953
-1.0236 0.1100 -0.5639 0.9953
-1.0265 0.0734 -0.5637 0.9953
-1.0276 0.0367 -0.5632 0.9953
2.0197 -0.0000 -1.1661 0.9907
2.0320 0.0726 -1.1739 0.9907
2.0366 0.2190 -1.1826 0.9906
1.9883 0.4325 -1.1748 0.9906
1.9351 0.5682 -1.1644 0.9907
1.8620 0.7713 -1.1636 0.9907
3.0986 1.5510 -2.0006 0.9841
2.9798 1.7680 -2.0004 0.9841
2.8459 1.9759 -2.0003 0.9841
2.7735 2.0762 -2.0002 0.9841
2.6975 2.1738 -2.0002 0.9841
2.6181 2.2686 -2.0001 0.9841
2.5354 2.3606 -2.0000 0.9841
2.4495 2.4495 -2.0000 0.9841
2.1734 2.6971 -1.9998 0.9841
2.0757 2.7728 -1.9998 0.9841
1.7673 2.9787 -1.9997 0.9841
1.6598 3.0398 -1.9996 0.9841
1.5503 3.0971 -1.9996 0.9841
1.4387 3.1504 -1.9996 0.9841
1.2103 3.2449 -1.9995 0.9841
0.9757 3.3229 -1.9995 0.9841
0.8565 3.3556 -1.9994 0.9841
0.7361 3.3840 -1.9994 0.9841
0.6149 3.4081 -1.9994 0.9841
0.4928 3.4278 -1.9994 0.9841
0.3702 3.4432 -1.9994 0.9841
-0.2471 3.4543 -1.9994 0.9841
-0.3702 3.4433 -1.9995 0.9841
-0.4929 3.4279 -1.9995 0.9841
-0.6149 3.4082 -1.9995 0.9841
-0.7362 3.3841 -1.9995 0.9841
-0.8565 3.3557 -1.9995 0.9841
-0.9757 3.3231 -1.9996 0.9841
-1.0938 3.2862 -1.9996 0.9841
-1.3254 3.1999 -1.9997 0.9841
-2.0760 2.7732 -2.0000 0.9841
-2.2687 2.6182 -2.0001 0.9841
-2.4498 2.4498 -2.0003 0.9841
-2.5358 2.3609 -2.0003 0.9841
-2.6185 2.2690 -2.0004 0.9841
-0.7846 0.5873 -0.5658 0.9955
-0.8008 0.5560 -0.5628 0.9955
-0.8178 0.5256 -0.5613 0.9955
-0.8364 0.4963 -0.5615 0.9955
-0.8534 0.4660 -0.5614 0.9955
-0.8823 0.4029 -0.5600 0.9955
-0.9151 0.2687 -0.5506 0.9956
-0.9259 0.2363 -0.5517 0.9956
-0.9353 0.2034 -0.5526 0.9956
-0.9565 0.0684 -0.5536 0.9956
