ply
format ascii 1.0
element vertex 765
property float32 x
property float32 y
property float32 z
property float32 I
end_header
-7.6319 6.1501 -1.3888 0.9612
-7.6255 5.2945 -1.3154 0.9632
-5.9719 4.8124 -1.2635 0.9694
-7.6391 5.3039 -1.5320 0.9630
-8.1502 5.2377 -1.5960 0.9615
8.7878 4.3988 -1.8471 0.9608
8.6242 4.7092 -1.8469 0.9608
8.4497 5.0134 -1.8467 0.9608
8.2645 5.3113 -1.8465 0.9608
6.9425 6.9425 -1.8454 0.9608
5.8818 7.8571 -1.8448 0.9608
5.5971 8.0614 -1.8446 0.9608
5.3054 8.2554 -1.8445 0.9608
5.0071 8.4389 -1.8444 0.9608
4.7023 8.6117 -1.8442 0.9609
4.3917 8.7735 -1.8441 0.9609
4.0755 8.9241 -1.8440 0.9609
3.7542 9.0634 -1.8439 0.9609
3.4281 9.1911 -1.8438 0.9609
3.0977 9.3072 -1.8437 0.9609
2.7634 9.4114 -1.8437 0.9609
2.4257 9.5036 -1.8436 0.9609
1.3957 9.7076 -1.8434 0.9609
0.6996 9.7820 -1.8433 0.9609
0.3500 9.8006 -1.8433 0.9609
0.0000 9.8067 -1.8433 0.9609
-0.3500 9.8004 -1.8433 0.9609
-1.3956 9.7070 -1.8433 0.9609
-1.7412 9.6511 -1.8433 0.9609
-2.4254 9.5026 -1.8434 0.9609
-3.0973 9.3059 -1.8435 0.9609
-3.4276 9.1897 -1.8435 0.9609
-5.8802 7.8551 -1.8443 0.9609
-6.4265 7.4166 -1.8446 0.9608
-6.6877 7.1831 -1.8447 0.9608
-6.9403 6.9403 -1.8449 0.9608
-7.5134 5.2166 -1.7192 0.9635
-8.0160 5.1515 -1.7910 0.9620
-8.4466 5.0116 -1.8460 0.9608
-8.7844 4.3971 -1.8464 0.9608
9.4721 -0.0000 -2.0022 0.9620
9.4650 0.3380 -2.0020 0.9620
9.4459 0.6756 -2.0018 0.9620
9.4148 1.0122 -2.0016 0.9620
9.3716 1.3474 -2.0013 0.9620
9.2496 2.0121 -2.0009 0.9620
9.1709 2.3407 -2.0007 0.9620
9.0805 2.6663 -2.0005 0.9620
8.9786 2.9883 -2.0003 0.9621
8.2259 3.7566 -1.9115 0.9637
7.8153 3.9121 -1.8474 0.9649
7.6700 4.1881 -1.8472 0.9649
7.5149 4.4587 -1.8470 0.9649
7.1763 4.9825 -1.8467 0.9649
6.9932 5.2350 -1.8465 0.9649
6.6007 5.7195 -1.8462 0.9649
5.7177 6.5986 -1.8456 0.9649
5.2316 6.9886 -1.8453 0.9649
4.9785 7.1704 -1.8452 0.9649
3.9064 7.8040 -1.8447 0.9649
3.0494 8.1757 -1.8445 0.9650
2.7555 8.2789 -1.8444 0.9650
2.4582 8.3717 -1.8443 0.9650
2.1577 8.4538 -1.8442 0.9650
1.5490 8.5856 -1.8441 0.9650
0.6224 8.7015 -1.8440 0.9650
-0.3113 8.7180 -1.8440 0.9650
-0.6223 8.7013 -1.8440 0.9650
-1.2415 8.6348 -1.8440 0.9650
-1.5489 8.5851 -1.8440 0.9650
-1.8544 8.5244 -1.8440 0.9650
-2.1575 8.4530 -1.8441 0.9650
-3.3389 8.0608 -1.8443 0.9650
-3.9057 7.8027 -1.8444 0.9650
-4.1819 7.6586 -1.8445 0.9650
-5.7163 6.5969 -1.8451 0.9649
-6.3900 5.9493 -1.8455 0.9649
-5.7990 5.0249 -1.6220 0.9691
-6.9911 5.2334 -1.8460 0.9649
-7.3479 4.7222 -1.8463 0.9649
-7.6674 4.1867 -1.8466 0.9649
-8.0889 4.0490 -1.9121 0.9637
-8.5728 3.9151 -1.9921 0.9622
-8.7282 3.6153 -1.9970 0.9621
-8.8621 3.3054 -1.9993 0.9621
-8.9754 2.9873 -1.9995 0.9621
-9.1675 2.3398 -1.9999 0.9621
-9.3130 1.6803 -2.0004 0.9620
-9.4423 0.6753 -2.0010 0.9620
-9.4614 0.3379 -2.0012 0.9620
8.5191 -0.0000 -2.0022 0.9656
8.4290 1.2119 -2.0014 0.9656
8.1676 2.3982 -2.0006 0.9656
8.0760 2.6879 -2.0004 0.9656
7.8622 3.2566 -2.0000 0.9656
6.6118 4.2491 -1.8471 0.9682
6.4554 4.4820 -1.8470 0.9682
6.2907 4.7092 -1.8468 0.9682
6.1182 4.9303 -1.8467 0.9682
5.9378 5.1451 -1.8465 0.9682
5.7499 5.3534 -1.8464 0.9682
5.3526 5.7491 -1.8461 0.9682
4.7064 6.2870 -1.8458 0.9682
4.4788 6.4506 -1.8456 0.9682
3.7629 6.8912 -1.8453 0.9683
3.2614 7.1414 -1.8451 0.9683
3.0043 7.2529 -1.8451 0.9683
2.4790 7.4482 -1.8449 0.9683
1.9412 7.6055 -1.8448 0.9683
1.6685 7.6698 -1.8447 0.9683
1.3936 7.7242 -1.8447 0.9683
1.1170 7.7689 -1.8446 0.9683
0.8390 7.8037 -1.8446 0.9683
0.2801 7.8434 -1.8446 0.9683
0.0000 7.8484 -1.8446 0.9683
-0.2801 7.8433 -1.8445 0.9683
-0.5599 7.8283 -1.8445 0.9683
-1.3935 7.7238 -1.8446 0.9683
-1.6683 7.6692 -1.8446 0.9683
-2.4787 7.4474 -1.8447 0.9683
-2.7430 7.3544 -1.8448 0.9683
-3.0039 7.2520 -1.8448 0.9683
-3.2609 7.1404 -1.8449 0.9683
-4.2446 6.6047 -1.8452 0.9683
-4.4779 6.4494 -1.8453 0.9683
-4.7055 6.2857 -1.8454 0.9683
-4.9271 6.1141 -1.8455 0.9682
-5.3513 5.7478 -1.8457 0.9682
-5.7485 5.3520 -1.8459 0.9682
-5.9235 4.7734 -1.7879 0.9692
-6.4535 4.4808 -1.8465 0.9682
-6.6189 4.2537 -1.8491 0.9682
-7.4401 4.0626 -1.9923 0.9658
-7.5964 3.8025 -1.9965 0.9657
-7.8597 3.2556 -1.9994 0.9656
-7.9716 2.9732 -1.9996 0.9656
-8.1649 2.3974 -1.9999 0.9656
-8.3167 1.8092 -2.0003 0.9656
-8.3767 1.5113 -2.0005 0.9656
-8.4261 1.2115 -2.0007 0.9656
-8.4648 0.9101 -2.0009 0.9656
-8.5099 0.3039 -2.0013 0.9656
7.7117 0.5515 -2.0018 0.9686
7.6864 0.8264 -2.0016 0.9686
7.6513 1.1001 -2.0014 0.9686
7.6065 1.3723 -2.0013 0.9686
7.5520 1.6428 -2.0011 0.9686
7.4879 1.9112 -2.0009 0.9686
7.2388 2.6999 -2.0004 0.9686
7.1372 2.9563 -2.0002 0.9686
7.0265 3.2089 -2.0000 0.9686
6.9070 3.4574 -1.9999 0.9686
6.6205 3.9281 -1.9932 0.9687
5.5544 4.4760 -1.8470 0.9710
5.3907 4.6710 -1.8468 0.9710
5.0430 5.0430 -1.8466 0.9710
4.6698 5.3892 -1.8463 0.9710
3.8544 5.9976 -1.8459 0.9710
3.1907 6.3743 -1.8456 0.9710
2.9611 6.4838 -1.8456 0.9710
2.7277 6.5851 -1.8455 0.9710
2.2508 6.7624 -1.8453 0.9710
2.0079 6.8382 -1.8453 0.9710
1.7625 6.9053 -1.8452 0.9710
1.5149 6.9637 -1.8452 0.9710
1.0142 7.0537 -1.8451 0.9710
0.5084 7.1079 -1.8451 0.9710
0.2543 7.1214 -1.8450 0.9710
0.0000 7.1259 -1.8450 0.9710
-0.5084 7.1077 -1.8450 0.9710
-1.2652 7.0127 -1.8450 0.9710
-2.4905 6.6773 -1.8452 0.9710
-2.9607 6.4830 -1.8453 0.9710
-3.6371 6.1300 -1.8455 0.9710
-3.8537 5.9965 -1.8456 0.9710
-5.0419 5.0419 -1.8462 0.9710
-5.2189 4.8590 -1.8463 0.9710
-5.7851 4.3307 -1.8711 0.9706
-6.1647 4.2802 -1.9431 0.9695
-7.0246 3.2080 -1.9995 0.9686
-7.1352 2.9555 -1.9996 0.9686
-7.4120 2.1764 -2.0001 0.9686
-7.4856 1.9106 -2.0003 0.9686
-7.6489 1.0997 -2.0008 0.9686
-7.6840 0.8261 -2.0010 0.9686
-7.7093 0.5514 -2.0012 0.9686
7.0723 -0.0000 -2.0021 0.9710
7.0301 0.7558 -2.0016 0.9710
6.9980 1.0062 -2.0015 0.9710
6.9073 1.5026 -2.0011 0.9710
6.8487 1.7480 -2.0010 0.9710
6.7814 1.9912 -2.0008 0.9710
6.5282 2.7041 -2.0003 0.9711
6.4270 2.9351 -2.0002 0.9711
6.3177 3.1624 -2.0000 0.9711
6.2003 3.3856 -1.9999 0.9711
5.7845 4.0163 -1.9936 0.9711
5.5497 4.1545 -1.9625 0.9716
4.6130 4.6130 -1.8468 0.9732
4.2716 4.9297 -1.8466 0.9732
4.0928 5.0788 -1.8465 0.9732
3.9087 5.2213 -1.8464 0.9732
3.7196 5.3573 -1.8463 0.9733
3.5258 5.4863 -1.8462 0.9733
3.1252 5.7234 -1.8461 0.9733
2.4952 6.0239 -1.8458 0.9733
2.2785 6.1089 -1.8458 0.9733
2.0590 6.1862 -1.8457 0.9733
0.6968 6.4816 -1.8455 0.9733
0.4651 6.5023 -1.8454 0.9733
-0.0000 6.5187 -1.8454 0.9733
-0.2327 6.5146 -1.8454 0.9733
-0.6968 6.4814 -1.8454 0.9733
-0.9277 6.4524 -1.8454 0.9733
-1.3857 6.3699 -1.8455 0.9733
-1.8366 6.2550 -1.8455 0.9733
-2.2783 6.1083 -1.8456 0.9733
-2.9184 5.8303 -1.8457 0.9733
-3.1248 5.7226 -1.8458 0.9733
-3.5253 5.4855 -1.8459 0.9733
-3.7190 5.3564 -1.8460 0.9733
-3.9080 5.2204 -1.8461 0.9733
-4.0920 5.0779 -1.8462 0.9733
-5.0678 4.3913 -1.8983 0.9725
-5.9407 3.8178 -1.9991 0.9711
-6.0736 3.6036 -1.9993 0.9711
-6.1988 3.3848 -1.9994 0.9711
-6.5264 2.7033 -1.9998 0.9711
-6.7795 1.9906 -2.0003 0.9711
-6.8468 1.7475 -2.0004 0.9711
-6.9054 1.5022 -2.0006 0.9710
-6.9551 1.2548 -2.0007 0.9710
-6.9960 1.0059 -2.0009 0.9710
-7.0511 0.5043 -2.0012 0.9710
-7.0652 0.2523 -2.0014 0.9710
6.5092 -0.0000 -2.0021 0.9731
6.5046 0.2323 -2.0019 0.9731
6.3576 1.3830 -2.0012 0.9731
5.9157 2.7016 -2.0003 0.9732
5.8151 2.9108 -2.0002 0.9732
5.7071 3.1163 -2.0000 0.9732
5.5919 3.3178 -1.9999 0.9732
5.4696 3.5151 -1.9998 0.9732
5.1975 3.8908 -1.9969 0.9732
4.8788 4.2275 -1.9856 0.9733
4.3104 4.3103 -1.8749 0.9748
3.9321 4.5379 -1.8469 0.9752
3.7674 4.6751 -1.8468 0.9752
3.2457 5.0503 -1.8465 0.9752
2.2969 5.5453 -1.8461 0.9752
2.0975 5.6235 -1.8461 0.9752
1.8954 5.6947 -1.8460 0.9752
1.6909 5.7585 -1.8460 0.9752
1.4842 5.8151 -1.8459 0.9752
0.8541 5.9400 -1.8458 0.9752
0.2142 5.9971 -1.8458 0.9752
-0.2142 5.9971 -1.8457 0.9752
-0.8540 5.9398 -1.8458 0.9752
-1.0655 5.9056 -1.8458 0.9752
-1.2756 5.8639 -1.8458 0.9752
-1.4841 5.8147 -1.8458 0.9752
-1.6907 5.7581 -1.8458 0.9752
-1.8952 5.6942 -1.8459 0.9752
-2.2967 5.5447 -1.8459 0.9752
-2.4932 5.4593 -1.8460 0.9752
-3.0628 5.1620 -1.8462 0.9752
-3.4235 4.9307 -1.8463 0.9752
-3.5974 4.8056 -1.8464 0.9752
-3.9314 4.5371 -1.8465 0.9752
-4.1553 4.4631 -1.8756 0.9748
-4.4328 4.4328 -1.9282 0.9741
-5.0541 4.0729 -1.9965 0.9732
-5.2031 3.8950 -1.9991 0.9732
-5.3391 3.7070 -1.9992 0.9732
-5.5906 3.3171 -1.9995 0.9732
-5.7058 3.1156 -1.9996 0.9732
-5.8138 2.9102 -1.9997 0.9732
-6.1704 2.0537 -2.0003 0.9732
-6.2402 1.8323 -2.0004 0.9731
-6.3021 1.6085 -2.0005 0.9731
-6.4017 1.1550 -2.0008 0.9731
-6.4899 0.4642 -2.0013 0.9731
6.0230 -0.0000 -2.0021 0.9749
6.0068 0.4296 -2.0018 0.9749
5.9872 0.6437 -2.0017 0.9749
5.9600 0.8569 -2.0015 0.9749
5.8331 1.4888 -2.0011 0.9749
5.6394 2.1033 -2.0007 0.9749
5.4742 2.5000 -2.0004 0.9750
5.3812 2.6936 -2.0003 0.9750
5.2812 2.8838 -2.0002 0.9750
5.1746 3.0702 -2.0001 0.9750
3.5315 4.3823 -1.8708 0.9766
2.8348 4.7777 -1.8467 0.9769
2.1257 5.1318 -1.8464 0.9769
1.9411 5.2043 -1.8463 0.9769
1.7541 5.2701 -1.8463 0.9769
1.5648 5.3292 -1.8462 0.9769
0.7904 5.4973 -1.8461 0.9769
0.0000 5.5536 -1.8460 0.9769
-0.1982 5.5500 -1.8460 0.9769
-0.5937 5.5217 -1.8460 0.9769
-0.7904 5.4970 -1.8460 0.9769
-0.9861 5.4654 -1.8461 0.9769
-1.3735 5.3812 -1.8461 0.9769
-1.5647 5.3288 -1.8461 0.9769
-1.9409 5.2038 -1.8462 0.9769
-3.1682 4.5631 -1.8465 0.9769
-4.0840 4.3865 -1.9922 0.9751
-4.2429 4.2429 -1.9945 0.9750
-4.5451 3.9384 -1.9991 0.9750
-4.8150 3.6045 -1.9993 0.9750
-5.0604 3.2521 -1.9995 0.9750
-5.2801 2.8832 -1.9998 0.9750
-5.3800 2.6930 -1.9999 0.9750
-5.4730 2.4994 -2.0000 0.9750
-5.8317 1.4884 -2.0006 0.9749
-5.8815 1.2794 -2.0008 0.9749
-5.9238 1.0688 -2.0009 0.9749
-5.9586 0.8567 -2.0010 0.9749
-5.9858 0.6435 -2.0012 0.9749
-6.0054 0.4295 -2.0013 0.9749
-6.0173 0.2149 -2.0014 0.9749
5.5985 -0.0000 -2.0021 0.9765
5.5946 0.1998 -2.0019 0.9765
5.5653 0.5983 -2.0017 0.9765
5.4684 1.1896 -2.0013 0.9765
5.3689 1.5764 -2.0010 0.9765
5.1687 2.1409 -2.0007 0.9765
5.0887 2.3239 -2.0005 0.9765
5.0022 2.5039 -2.0004 0.9765
4.9093 2.6807 -2.0003 0.9765
4.5939 3.1896 -2.0000 0.9765
4.4769 3.3513 -1.9998 0.9765
4.3542 3.5088 -1.9997 0.9765
4.2259 3.6618 -1.9996 0.9765
3.9508 3.9508 -1.9981 0.9765
3.2850 4.3883 -1.9603 0.9770
3.0631 4.4118 -1.9207 0.9774
2.6435 4.4554 -1.8526 0.9782
2.4750 4.5326 -1.8468 0.9783
1.9761 4.7708 -1.8466 0.9783
1.8045 4.8381 -1.8466 0.9783
0.9167 5.0811 -1.8464 0.9783
0.7348 5.1105 -1.8464 0.9783
0.1843 5.1596 -1.8463 0.9783
0.0000 5.1629 -1.8463 0.9783
-0.1843 5.1596 -1.8463 0.9783
-0.3683 5.1497 -1.8463 0.9783
-0.5519 5.1333 -1.8463 0.9783
-0.7348 5.1103 -1.8463 0.9783
-1.0975 5.0450 -1.8463 0.9783
-1.6305 4.8990 -1.8464 0.9783
-1.8044 4.8377 -1.8464 0.9783
-2.1450 4.6969 -1.8465 0.9783
-2.3113 4.6174 -1.8465 0.9783
-2.6903 4.5343 -1.8854 0.9779
-3.1258 4.5019 -1.9599 0.9770
-3.4980 4.3407 -1.9936 0.9766
-3.6544 4.2174 -1.9956 0.9766
-3.8067 4.0886 -1.9977 0.9765
-3.9529 3.9529 -1.9991 0.9765
-4.3534 3.5082 -1.9994 0.9765
-4.7042 3.0232 -1.9997 0.9765
-4.8093 2.8535 -1.9998 0.9765
-5.0012 2.5034 -2.0000 0.9765
-5.1676 2.1405 -2.0002 0.9765
-5.4209 1.3836 -2.0007 0.9765
-5.4672 1.1893 -2.0008 0.9765
-5.5388 0.7964 -2.0011 0.9765
-5.5641 0.5982 -2.0012 0.9765
-5.5822 0.3992 -2.0013 0.9765
-5.5933 0.1997 -2.0015 0.9765
5.2243 -0.0000 -2.0020 0.9779
5.2206 0.1864 -2.0019 0.9779
5.2103 0.3727 -2.0018 0.9779
5.1934 0.5583 -2.0017 0.9779
5.1397 0.9273 -2.0014 0.9779
5.1031 1.1101 -2.0013 0.9779
4.9543 1.6489 -2.0010 0.9779
4.8920 1.8246 -2.0008 0.9779
4.8235 1.9979 -2.0007 0.9779
4.7488 2.1687 -2.0006 0.9779
4.6681 2.3367 -2.0005 0.9779
4.5815 2.5017 -2.0004 0.9779
4.4890 2.6635 -2.0003 0.9779
4.3909 2.8218 -2.0002 0.9779
3.9438 3.4173 -1.9998 0.9779
3.6896 3.6896 -1.9996 0.9779
3.4160 3.9423 -1.9990 0.9779
3.2702 4.0580 -1.9972 0.9779
2.6292 4.4312 -1.9745 0.9782
2.4301 4.4504 -1.9432 0.9785
1.5218 4.5724 -1.8467 0.9796
1.3576 4.6237 -1.8467 0.9796
1.0243 4.7086 -1.8466 0.9796
0.8556 4.7421 -1.8466 0.9796
0.6858 4.7695 -1.8466 0.9796
0.5151 4.7909 -1.8466 0.9796
-0.1720 4.8153 -1.8465 0.9796
-1.3576 4.6234 -1.8466 0.9796
-1.5228 4.5753 -1.8479 0.9796
-1.7024 4.5641 -1.8668 0.9793
-1.8868 4.5550 -1.8894 0.9791
-2.0758 4.5453 -1.9149 0.9788
-2.2700 4.5348 -1.9434 0.9785
-2.4701 4.5236 -1.9751 0.9782
-2.8125 4.3763 -1.9936 0.9780
-2.9693 4.2766 -1.9952 0.9779
-3.1227 4.1715 -1.9969 0.9779
-3.2726 4.0610 -1.9987 0.9779
-3.4162 3.9425 -1.9991 0.9779
-3.5549 3.8182 -1.9992 0.9779
-3.8185 3.5551 -1.9994 0.9779
-3.9432 3.4168 -1.9995 0.9779
-4.0628 3.2740 -1.9995 0.9779
-4.1772 3.1270 -1.9996 0.9779
-4.5806 2.5012 -2.0000 0.9779
-4.8225 1.9975 -2.0003 0.9779
-4.9533 1.6486 -2.0006 0.9779
-5.0092 1.4708 -2.0007 0.9779
-5.0588 1.2912 -2.0008 0.9779
-5.1020 1.1099 -2.0009 0.9779
-5.1688 0.7432 -2.0011 0.9779
-5.1923 0.5582 -2.0013 0.9779
-5.2093 0.3726 -2.0014 0.9779
4.8786 0.3489 -2.0018 0.9791
4.8408 0.6960 -2.0016 0.9791
4.7782 1.0394 -2.0014 0.9791
4.6390 1.5440 -2.0010 0.9791
4.5165 1.8708 -2.0008 0.9791
4.4466 2.0307 -2.0007 0.9791
4.2034 2.4940 -2.0004 0.9791
4.1115 2.6423 -2.0003 0.9791
4.0144 2.7872 -2.0002 0.9791
3.9122 2.9286 -2.0001 0.9791
3.8050 3.0662 -2.0000 0.9791
3.6930 3.1999 -1.9999 0.9791
3.3293 3.5759 -1.9997 0.9791
3.1994 3.6923 -1.9996 0.9791
2.7850 4.0112 -1.9986 0.9791
2.4882 4.1936 -1.9957 0.9791
2.3354 4.2770 -1.9944 0.9792
2.1800 4.3550 -1.9932 0.9792
1.8548 4.4779 -1.9837 0.9793
1.1542 4.5223 -1.9102 0.9800
0.9859 4.5320 -1.8982 0.9802
0.6537 4.5462 -1.8798 0.9803
0.4893 4.5508 -1.8733 0.9804
0.3258 4.5549 -1.8690 0.9805
0.1628 4.5587 -1.8669 0.9805
-0.1630 4.5648 -1.8695 0.9805
-0.3267 4.5673 -1.8741 0.9804
-0.4911 4.5675 -1.8801 0.9803
-0.6564 4.5656 -1.8878 0.9803
-0.8233 4.5632 -1.8978 0.9802
-0.9920 4.5604 -1.9101 0.9800
-1.1631 4.5571 -1.9249 0.9799
-1.3370 4.5534 -1.9423 0.9797
-1.8625 4.4964 -1.9919 0.9792
-2.0229 4.4295 -1.9930 0.9792
-2.1810 4.3571 -1.9942 0.9792
-2.3367 4.2793 -1.9955 0.9791
-2.4896 4.1961 -1.9969 0.9791
-2.6398 4.1076 -1.9984 0.9791
-2.9273 3.9104 -1.9992 0.9791
-3.3289 3.5754 -1.9994 0.9791
-3.4545 3.4545 -1.9995 0.9791
-3.6924 3.1995 -1.9996 0.9791
-3.8044 3.0658 -1.9997 0.9791
-3.9116 2.9282 -1.9998 0.9791
-4.0138 2.7868 -1.9999 0.9791
-4.2027 2.4936 -2.0000 0.9791
-4.2893 2.3421 -2.0001 0.9791
-4.4458 2.0303 -2.0003 0.9791
-4.5798 1.7082 -2.0005 0.9791
-4.6381 1.5437 -2.0006 0.9791
-2.1703 0.3916 -0.9026 0.9905
-1.9569 0.2104 -0.8055 0.9915
-1.9308 0.0690 -0.7907 0.9917
4.5937 -0.0000 -2.0020 0.9802
4.4494 1.1356 -2.0013 0.9802
4.3566 1.4500 -2.0011 0.9802
4.2416 1.7569 -2.0009 0.9802
4.0289 2.1999 -2.0006 0.9802
3.8613 2.4815 -2.0004 0.9802
3.7701 2.6176 -2.0003 0.9802
3.6741 2.7504 -2.0002 0.9802
3.5735 2.8797 -2.0001 0.9802
3.3586 3.1270 -1.9999 0.9802
3.2447 3.2447 -1.9999 0.9802
2.7495 3.6729 -1.9996 0.9802
2.6166 3.7686 -1.9995 0.9802
2.4803 3.8595 -1.9994 0.9802
1.9033 4.1677 -1.9968 0.9802
1.4449 4.3413 -1.9941 0.9802
1.2886 4.3885 -1.9933 0.9802
1.1308 4.4303 -1.9927 0.9802
0.9717 4.4667 -1.9922 0.9803
0.8114 4.4975 -1.9918 0.9803
0.4870 4.5301 -1.9857 0.9803
0.3243 4.5343 -1.9812 0.9804
0.1621 4.5380 -1.9790 0.9804
-0.1623 4.5441 -1.9817 0.9804
-0.3252 4.5466 -1.9865 0.9803
-0.4884 4.5430 -1.9913 0.9803
-1.1311 4.4315 -1.9932 0.9802
-1.6002 4.2904 -1.9957 0.9802
-1.7532 4.2326 -1.9966 0.9802
-2.0529 4.1011 -1.9988 0.9802
-2.1984 4.0260 -1.9991 0.9802
-2.3407 3.9450 -1.9992 0.9802
-2.4801 3.8591 -1.9992 0.9802
-2.7492 3.6725 -1.9993 0.9802
-2.8786 3.5722 -1.9994 0.9802
-3.1263 3.3579 -1.9995 0.9802
-3.2443 3.2443 -1.9996 0.9802
-3.3582 3.1266 -1.9997 0.9802
-3.4678 3.0048 -1.9997 0.9802
-3.5729 2.8792 -1.9998 0.9802
-3.6736 2.7500 -1.9999 0.9802
-1.5707 0.4612 -0.7134 0.9929
-1.5485 0.3952 -0.6965 0.9931
-1.5001 0.2707 -0.6643 0.9934
4.3251 0.0000 -2.0020 0.9811
4.3136 0.3085 -2.0018 0.9811
4.2250 0.9191 -2.0014 0.9811
3.8651 1.9347 -2.0007 0.9811
3.7169 2.2053 -2.0006 0.9811
3.5498 2.4647 -2.0004 0.9811
3.4594 2.5897 -2.0003 0.9811
3.2656 2.8297 -2.0001 0.9811
3.0552 3.0552 -2.0000 0.9811
2.9441 3.1621 -1.9999 0.9811
2.8292 3.2651 -1.9998 0.9811
2.7108 3.3639 -1.9998 0.9811
2.4638 3.5485 -1.9996 0.9811
2.2042 3.7150 -1.9995 0.9811
2.0701 3.7912 -1.9995 0.9811
1.7943 3.9290 -1.9994 0.9811
1.5093 4.0466 -1.9992 0.9811
1.3634 4.0964 -1.9984 0.9812
1.2159 4.1410 -1.9977 0.9812
1.0670 4.1805 -1.9971 0.9812
0.9169 4.2149 -1.9966 0.9812
0.6136 4.2679 -1.9959 0.9812
0.3075 4.2998 -1.9954 0.9812
0.1539 4.3078 -1.9953 0.9812
-0.1539 4.3080 -1.9954 0.9812
-0.3075 4.3002 -1.9956 0.9812
-0.4609 4.2870 -1.9958 0.9812
-0.7658 4.2447 -1.9965 0.9812
-0.9171 4.2157 -1.9970 0.9812
-1.0673 4.1815 -1.9976 0.9812
-1.3639 4.0977 -1.9991 0.9811
-1.5093 4.0466 -1.9992 0.9811
-1.7942 3.9287 -1.9992 0.9811
-1.9333 3.8622 -1.9993 0.9811
-2.4635 3.5481 -1.9994 0.9811
-2.5886 3.4580 -1.9995 0.9811
-2.8289 3.2647 -1.9996 0.9811
-3.0548 3.0548 -1.9997 0.9811
-3.1620 2.9439 -1.9998 0.9811
-3.2652 2.8293 -1.9999 0.9811
-3.6351 2.3361 -2.0002 0.9811
-3.8645 1.9344 -2.0004 0.9811
-1.3151 0.6006 -0.6692 0.9936
-1.3324 0.4969 -0.6582 0.9938
-1.3241 0.3888 -0.6388 0.9939
-1.3116 0.3348 -0.6266 0.9941
-1.3160 0.2374 -0.6190 0.9941
-1.3384 0.0957 -0.6211 0.9941
4.0706 0.2911 -2.0018 0.9820
4.0574 0.4361 -2.0017 0.9820
3.9145 1.1494 -2.0012 0.9820
3.8709 1.2883 -2.0012 0.9820
3.8222 1.4256 -2.0011 0.9820
3.5798 1.9547 -2.0007 0.9820
3.5076 2.0812 -2.0006 0.9820
3.2647 2.4439 -2.0004 0.9820
3.1752 2.5588 -2.0003 0.9820
3.0817 2.6704 -2.0002 0.9820
2.8832 2.8832 -2.0001 0.9820
2.6700 3.0813 -1.9999 0.9820
2.4432 3.2637 -1.9998 0.9820
2.3251 3.3487 -1.9998 0.9820
2.2040 3.4295 -1.9997 0.9820
2.0801 3.5059 -1.9996 0.9820
1.2872 3.8674 -1.9994 0.9820
1.0080 3.9493 -1.9993 0.9820
0.7237 4.0110 -1.9993 0.9820
0.5800 4.0343 -1.9992 0.9820
0.4357 4.0523 -1.9992 0.9820
0.1455 4.0730 -1.9992 0.9820
-0.0000 4.0756 -1.9992 0.9820
-0.1455 4.0730 -1.9992 0.9820
-0.4357 4.0523 -1.9992 0.9820
-0.7237 4.0109 -1.9992 0.9820
-0.8663 3.9825 -1.9992 0.9820
-1.2871 3.8672 -1.9993 0.9820
-1.4244 3.8189 -1.9993 0.9820
-1.5598 3.7656 -1.9993 0.9820
-1.8245 3.6449 -1.9994 0.9820
-1.9535 3.5775 -1.9994 0.9820
-2.2038 3.4292 -1.9995 0.9820
-2.3249 3.3484 -1.9996 0.9820
-2.7780 2.9838 -1.9998 0.9820
-2.8828 2.8828 -1.9998 0.9820
-2.9840 2.7782 -1.9999 0.9820
-3.0814 2.6700 -2.0000 0.9820
-3.1748 2.5584 -2.0000 0.9820
-3.3495 2.3256 -2.0002 0.9820
-3.4305 2.2046 -2.0003 0.9820
-3.5071 2.0809 -2.0003 0.9820
-1.1113 0.6068 -0.6211 0.9944
-1.1400 0.5206 -0.6148 0.9944
-1.1484 0.4757 -0.6097 0.9945
-1.1543 0.4306 -0.6043 0.9945
-1.1579 0.3854 -0.5986 0.9946
-1.1590 0.3403 -0.5925 0.9946
-1.1965 0.0427 -0.5873 0.9947
3.8590 -0.0000 -2.0020 0.9828
3.8564 0.1377 -2.0019 0.9828
3.7380 0.9541 -2.0014 0.9828
3.6141 1.3480 -2.0011 0.9828
3.3849 1.8483 -2.0008 0.9828
3.1676 2.1993 -2.0005 0.9828
2.9140 2.5250 -2.0003 0.9828
2.8219 2.6273 -2.0002 0.9828
2.6272 2.8217 -2.0001 0.9828
2.5247 2.9136 -2.0000 0.9828
2.4190 3.0018 -2.0000 0.9828
2.1986 3.1665 -1.9999 0.9828
1.9669 3.3151 -1.9998 0.9828
1.6012 3.5062 -1.9996 0.9828
1.3469 3.6113 -1.9995 0.9828
0.9532 3.7344 -1.9995 0.9828
0.8192 3.7660 -1.9994 0.9828
0.5485 3.8148 -1.9994 0.9828
0.2749 3.8441 -1.9994 0.9828
0.1376 3.8515 -1.9993 0.9828
0.0000 3.8539 -1.9993 0.9828
-0.1375 3.8515 -1.9993 0.9828
-0.2749 3.8441 -1.9993 0.9828
-0.4120 3.8318 -1.9993 0.9828
-0.5485 3.8147 -1.9993 0.9828
-0.8192 3.7659 -1.9994 0.9828
-0.9531 3.7343 -1.9994 0.9828
-1.2171 3.6568 -1.9994 0.9828
-1.3469 3.6111 -1.9994 0.9828
-1.4749 3.5608 -1.9995 0.9828
-1.6011 3.5059 -1.9995 0.9828
-1.7253 3.4466 -1.9995 0.9828
-1.8472 3.3829 -1.9996 0.9828
-1.9668 3.3149 -1.9996 0.9828
-2.1984 3.1662 -1.9997 0.9828
-2.3100 3.0858 -1.9997 0.9828
-2.5244 2.9133 -1.9998 0.9828
-2.9137 2.5247 -2.0001 0.9828
-1.0576 0.3945 -0.5856 0.9949
-1.0814 0.2352 -0.5741 0.9950
-1.0905 0.1967 -0.5749 0.9950
-1.0974 0.1578 -0.5752 0.9950
-1.1024 0.1185 -0.5752 0.9950
-1.1055 0.0791 -0.5750 0.9950
-1.1066 0.0395 -0.5744 0.9950
3.6552 -0.0000 -2.0020 0.9835
3.6338 0.3907 -2.0017 0.9835
3.6174 0.5201 -2.0016 0.9835
3.5964 0.6489 -2.0016 0.9835
3.5708 0.7768 -2.0015 0.9835
3.4669 1.1539 -2.0012 0.9835
3.2668 1.6353 -2.0009 0.9835
3.2063 1.7508 -2.0008 0.9835
3.1416 1.8640 -2.0008 0.9835
3.0730 1.9749 -2.0007 0.9835
2.9240 2.1889 -2.0005 0.9835
2.7602 2.3917 -2.0004 0.9835
2.6730 2.4887 -2.0003 0.9835
2.4885 2.6729 -2.0002 0.9835
2.3915 2.7599 -2.0001 0.9835
2.1884 2.9233 -2.0000 0.9835
2.0826 2.9995 -2.0000 0.9835
1.6343 3.2650 -1.9998 0.9835
1.5167 3.3212 -1.9997 0.9835
1.1530 3.4641 -1.9996 0.9835
0.7760 3.5673 -1.9996 0.9835
0.6482 3.5928 -1.9995 0.9835
0.3902 3.6298 -1.9995 0.9835
-0.6482 3.5926 -1.9995 0.9835
-0.9028 3.5373 -1.9995 0.9835
-1.0285 3.5028 -1.9995 0.9835
-1.3971 3.3729 -1.9996 0.9835
-1.8631 3.1400 -1.9997 0.9835
-2.1882 2.9230 -1.9999 0.9835
-2.3912 2.7596 -1.9999 0.9835
-2.5821 2.5821 -2.0001 0.9835
-2.7599 2.3915 -2.0002 0.9835
-2.8436 2.2915 -2.0002 0.9835
-2.9237 2.1886 -2.0003 0.9835
-0.9084 0.5390 -0.5785 0.9952
-0.9269 0.5061 -0.5784 0.9952
-0.9434 0.4722 -0.5778 0.9952
-0.9580 0.4375 -0.5768 0.9952
-0.9677 0.4008 -0.5737 0.9952
-0.9741 0.3633 -0.5694 0.9953
-0.9785 0.3257 -0.5648 0.9953
-0.9820 0.2883 -0.5606 0.9953
-0.9938 0.2536 -0.5618 0.9953
-1.0039 0.2184 -0.5627 0.9953
-1.0124 0.1826 -0.5634 0.9953
-1.0265 0.0734 -0.5637 0.9953
2.0197 -0.0000 -1.1661 0.9907
2.0359 0.1456 -1.1784 0.9906
2.0300 0.2919 -1.1841 0.9906
2.0153 0.3636 -1.1823 0.9906
1.9883 0.4325 -1.1748 0.9906
1.9351 0.5682 -1.1644 0.9907
1.9033 0.6335 -1.1581 0.9908
3.0992 1.5513 -2.0010 0.9841
3.0417 1.6609 -2.0009 0.9841
2.9804 1.7683 -2.0008 0.9841
2.9153 1.8735 -2.0007 0.9841
2.6980 2.1742 -2.0005 0.9841
2.6186 2.2690 -2.0005 0.9841
2.4499 2.4499 -2.0003 0.9841
2.3608 2.5357 -2.0003 0.9841
2.2688 2.6183 -2.0002 0.9841
2.1738 2.6975 -2.0002 0.9841
2.0761 2.7733 -2.0001 0.9841
1.7676 2.9791 -2.0000 0.9841
1.5505 3.0975 -1.9999 0.9841
1.4389 3.1508 -1.9998 0.9841
1.2104 3.2453 -1.9998 0.9841
1.0938 3.2864 -1.9997 0.9841
0.8566 3.3560 -1.9997 0.9841
0.7362 3.3844 -1.9997 0.9841
0.6150 3.4085 -1.9996 0.9841
0.3702 3.4436 -1.9996 0.9841
0.2471 3.4546 -1.9996 0.9841
-0.1236 3.4612 -1.9996 0.9841
-0.2471 3.4545 -1.9996 0.9841
-0.4929 3.4281 -1.9996 0.9841
-0.6149 3.4084 -1.9996 0.9841
-0.9758 3.3232 -1.9996 0.9841
-1.2104 3.2452 -1.9997 0.9841
-1.3255 3.1999 -1.9997 0.9841
-1.4388 3.1506 -1.9997 0.9841
-1.7675 2.9789 -1.9998 0.9841
-1.8727 2.9140 -1.9999 0.9841
-2.0759 2.7731 -2.0000 0.9841
-2.1736 2.6973 -2.0000 0.9841
-2.2686 2.6180 -2.0000 0.9841
-0.7846 0.5873 -0.5658 0.9955
-0.8178 0.5256 -0.5613 0.9955
-0.8364 0.4963 -0.5615 0.9955
-0.8534 0.4660 -0.5614 0.9955
-0.8687 0.4349 -0.5609 0.9955
-0.8823 0.4029 -0.5600 0.9955
-0.8941 0.3703 -0.5587 0.9955
-0.9151 0.2687 -0.5506 0.9956
-0.9259 0.2363 -0.5517 0.9956
-0.9353 0.2034 -0.5526 0.9956
-0.9430 0.1701 -0.5532 0.9956
-0.9565 0.0684 -0.5536 0.9956
