ply
format ascii 1.0
element vertex 768
property float32 x
property float32 y
property float32 z
property float32 I
end_header
-7.4686 6.4716 1.5139 0.9608
-7.4720 6.4745 0.8369 0.9611
-7.7545 6.2489 0.8431 0.9608
-7.7462 6.2423 0.6169 0.9609
-7.4742 6.4764 0.3900 0.9612
-7.7380 6.2357 0.3919 0.9610
-7.7216 6.2225 -0.0558 0.9611
-7.7135 6.2159 -0.2789 0.9611
-7.4786 6.4802 -0.5018 0.9611
-7.7053 6.2093 -0.5019 0.9611
-7.4819 6.4831 -1.1760 0.9609
-7.6727 6.1830 -1.3962 0.9610
-5.6531 5.6531 -1.3170 0.9681
-5.8093 5.4087 -1.3076 0.9683
-6.7838 5.8781 -1.4787 0.9643
-7.8911 5.4789 -1.5826 0.9618
-5.6384 5.6384 -1.4988 0.9681
-6.8015 5.8935 -1.6916 0.9640
9.4580 0.3378 -2.0005 0.9620
9.1692 2.3403 -2.0003 0.9620
9.0797 2.6660 -2.0003 0.9621
8.9786 2.9884 -2.0003 0.9621
8.1117 3.7045 -1.8850 0.9642
7.5191 4.4613 -1.8481 0.9649
6.8076 5.4859 -1.8481 0.9649
6.3988 5.9575 -1.8481 0.9649
6.1822 6.1821 -1.8481 0.9649
5.7254 6.6075 -1.8481 0.9649
4.9864 7.1818 -1.8481 0.9649
4.7269 7.3552 -1.8481 0.9649
4.4614 7.5193 -1.8481 0.9649
4.1902 7.6738 -1.8482 0.9649
3.9137 7.8186 -1.8482 0.9649
3.6322 7.9534 -1.8482 0.9649
3.0556 8.1925 -1.8483 0.9649
1.8588 8.5446 -1.8484 0.9649
1.5526 8.6056 -1.8484 0.9649
0.9348 8.6948 -1.8485 0.9649
-0.0000 8.7455 -1.8486 0.9649
-0.3122 8.7402 -1.8487 0.9649
-0.6239 8.7237 -1.8487 0.9649
-0.9349 8.6961 -1.8488 0.9649
-1.2447 8.6574 -1.8488 0.9649
-1.8593 8.5470 -1.8489 0.9649
-2.1632 8.4754 -1.8490 0.9649
-2.7625 8.3000 -1.8491 0.9649
-3.6342 7.9578 -1.8492 0.9649
-4.1929 7.6788 -1.8494 0.9649
-4.4645 7.5244 -1.8494 0.9649
-4.9902 7.1872 -1.8495 0.9649
-5.4905 6.8133 -1.8496 0.9649
-5.9630 6.4047 -1.8498 0.9649
-5.7754 5.3770 -1.6680 0.9683
-6.6141 5.7311 -1.8499 0.9649
-7.0065 5.2450 -1.8500 0.9649
-7.5277 4.4664 -1.8502 0.9648
-8.5942 3.9249 -1.9971 0.9621
-8.7496 3.6242 -2.0019 0.9620
-8.8772 3.3110 -2.0027 0.9620
-8.9900 2.9922 -2.0028 0.9620
-9.0913 2.6695 -2.0029 0.9620
-9.1810 2.3433 -2.0029 0.9620
-9.2591 2.0142 -2.0030 0.9620
-9.3253 1.6825 -2.0030 0.9620
-9.3796 1.3486 -2.0031 0.9620
-9.4707 0.3383 -2.0032 0.9620
8.5127 0.0000 -2.0007 0.9656
8.5072 0.3038 -2.0007 0.9656
8.4907 0.6073 -2.0006 0.9656
8.4635 0.9099 -2.0006 0.9656
8.3174 1.8093 -2.0005 0.9656
8.0760 2.6880 -2.0004 0.9656
7.9749 2.9745 -2.0004 0.9656
7.7274 3.5290 -1.9965 0.9657
7.5666 3.7876 -1.9887 0.9658
7.1068 3.8806 -1.9031 0.9673
6.7633 4.0128 -1.8482 0.9682
6.4597 4.4851 -1.8482 0.9682
6.1233 4.9344 -1.8482 0.9682
5.9432 5.1499 -1.8482 0.9682
5.5607 5.5607 -1.8482 0.9682
5.3587 5.7557 -1.8482 0.9682
5.1499 5.9433 -1.8482 0.9682
4.9345 6.1233 -1.8483 0.9682
4.2518 6.6159 -1.8483 0.9682
4.0129 6.7635 -1.8483 0.9682
3.2671 7.1539 -1.8484 0.9682
3.0097 7.2660 -1.8484 0.9682
2.4837 7.4624 -1.8484 0.9682
2.2158 7.5464 -1.8485 0.9682
1.6719 7.6855 -1.8485 0.9682
1.3965 7.7404 -1.8486 0.9682
1.1194 7.7855 -1.8486 0.9682
0.5611 7.8458 -1.8487 0.9682
-0.8409 7.8217 -1.8489 0.9682
-2.2166 7.5490 -1.8491 0.9682
-2.7496 7.3720 -1.8492 0.9682
-3.2687 7.1575 -1.8493 0.9682
-3.5222 7.0364 -1.8493 0.9682
-3.7712 6.9064 -1.8494 0.9682
-4.4882 6.4643 -1.8495 0.9682
-4.7162 6.3001 -1.8496 0.9682
-4.9382 6.1280 -1.8496 0.9682
-5.3631 5.7604 -1.8497 0.9682
-5.5654 5.5654 -1.8498 0.9682
-5.9486 5.1545 -1.8499 0.9682
-6.1290 4.9390 -1.8500 0.9682
-6.4661 4.4895 -1.8501 0.9682
-6.7059 4.3096 -1.8734 0.9678
-7.7507 3.5396 -2.0026 0.9656
-8.2570 2.1075 -2.0028 0.9656
-8.4736 0.9110 -2.0030 0.9656
-8.5174 0.3042 -2.0031 0.9656
7.7225 0.2758 -2.0008 0.9686
7.7076 0.5513 -2.0007 0.9686
7.6829 0.8260 -2.0007 0.9686
7.6484 1.0997 -2.0007 0.9686
7.6042 1.3720 -2.0007 0.9686
7.5503 1.6425 -2.0006 0.9686
7.3312 2.4401 -2.0006 0.9686
7.0282 3.2097 -2.0005 0.9686
6.6201 3.9279 -1.9931 0.9687
6.2443 4.0129 -1.9218 0.9698
5.8818 4.0838 -1.8540 0.9708
5.5586 4.4794 -1.8484 0.9709
5.3951 4.6749 -1.8484 0.9709
5.0479 5.0479 -1.8484 0.9709
4.8645 5.2249 -1.8484 0.9709
4.2782 5.7150 -1.8484 0.9709
4.0715 5.8641 -1.8484 0.9709
3.8596 6.0057 -1.8484 0.9709
3.6429 6.1397 -1.8484 0.9709
3.1956 6.3841 -1.8485 0.9709
2.7321 6.5959 -1.8485 0.9709
2.0115 6.8504 -1.8486 0.9709
1.5177 6.9767 -1.8486 0.9709
1.2677 7.0265 -1.8487 0.9709
1.0161 7.0674 -1.8487 0.9709
0.7632 7.0993 -1.8487 0.9709
-0.2549 7.1362 -1.8489 0.9709
-0.5094 7.1227 -1.8489 0.9709
-0.7633 7.1001 -1.8489 0.9709
-1.0163 7.0685 -1.8490 0.9709
-1.5180 6.9783 -1.8491 0.9709
-2.0121 6.8525 -1.8491 0.9709
-2.4959 6.6918 -1.8492 0.9709
-2.7332 6.5987 -1.8493 0.9709
-3.4232 6.2691 -1.8494 0.9709
-3.6449 6.1431 -1.8495 0.9709
-4.2810 5.7187 -1.8496 0.9709
-4.4825 5.5624 -1.8496 0.9709
-4.6783 5.3991 -1.8497 0.9709
-4.8681 5.2287 -1.8497 0.9709
-5.0518 5.0518 -1.8498 0.9709
-5.3996 4.6788 -1.8499 0.9709
-5.8580 4.3852 -1.8946 0.9702
-6.2441 4.3353 -1.9682 0.9691
-6.4885 4.1699 -1.9970 0.9686
-6.6453 3.9428 -2.0006 0.9686
-6.7877 3.7064 -2.0024 0.9686
-6.9158 3.4618 -2.0024 0.9685
-7.0352 3.2129 -2.0025 0.9685
-7.1455 2.9598 -2.0025 0.9685
-7.3388 2.4426 -2.0026 0.9685
-7.4947 1.9129 -2.0027 0.9685
-7.5583 1.6442 -2.0028 0.9685
-7.6124 1.3734 -2.0028 0.9685
-7.7160 0.5519 -2.0029 0.9685
-7.7309 0.2761 -2.0029 0.9685
7.0680 0.0000 -2.0009 0.9710
7.0272 0.7555 -2.0008 0.9710
6.9552 1.2549 -2.0008 0.9710
6.9059 1.5023 -2.0007 0.9710
6.8478 1.7478 -2.0007 0.9710
6.7810 1.9911 -2.0007 0.9710
6.6216 2.4697 -2.0007 0.9710
6.5291 2.7045 -2.0006 0.9710
6.4284 2.9358 -2.0006 0.9710
6.2025 3.3868 -2.0006 0.9710
6.0759 3.6050 -2.0000 0.9711
5.9341 3.8136 -1.9969 0.9711
5.7853 4.0168 -1.9938 0.9711
5.4962 4.1144 -1.9436 0.9719
5.1715 4.1675 -1.8802 0.9728
4.7790 4.4494 -1.8485 0.9732
4.4494 4.7790 -1.8485 0.9732
4.0971 5.0842 -1.8485 0.9732
3.9131 5.2273 -1.8485 0.9732
3.7240 5.3636 -1.8485 0.9732
3.5303 5.4932 -1.8485 0.9732
3.1294 5.7311 -1.8486 0.9732
2.9229 5.8392 -1.8486 0.9732
2.7126 5.9399 -1.8486 0.9732
1.8398 6.2658 -1.8487 0.9732
1.1595 6.4268 -1.8487 0.9732
0.6981 6.4933 -1.8488 0.9732
0.4659 6.5142 -1.8488 0.9732
-0.0000 6.5311 -1.8489 0.9732
-0.2331 6.5270 -1.8489 0.9732
-0.6982 6.4940 -1.8490 0.9732
-1.6154 6.3291 -1.8492 0.9732
-2.0629 6.1979 -1.8492 0.9732
-2.2828 6.1205 -1.8493 0.9732
-2.4999 6.0353 -1.8493 0.9732
-2.7138 5.9423 -1.8494 0.9732
-2.9242 5.8418 -1.8494 0.9732
-3.3337 5.6186 -1.8495 0.9732
-3.7262 5.3667 -1.8496 0.9732
-3.9154 5.2304 -1.8496 0.9732
-4.0997 5.0874 -1.8497 0.9732
-4.2788 4.9380 -1.8497 0.9732
-4.4524 4.7822 -1.8497 0.9732
-4.6204 4.6204 -1.8498 0.9732
-4.8043 4.4729 -1.8583 0.9731
-5.1232 4.4393 -1.9191 0.9722
-5.9500 3.8239 -2.0023 0.9710
-6.0829 3.6091 -2.0023 0.9710
-6.2079 3.3898 -2.0024 0.9710
-6.3251 3.1661 -2.0024 0.9710
-6.7875 1.9930 -2.0026 0.9710
-6.9620 1.2561 -2.0027 0.9710
-7.0568 0.5047 -2.0028 0.9710
-7.0704 0.2525 -2.0029 0.9710
6.5013 0.2322 -2.0009 0.9731
6.4680 0.6954 -2.0009 0.9731
6.2415 1.8327 -2.0008 0.9731
6.0947 2.2732 -2.0008 0.9731
6.0097 2.4893 -2.0007 0.9731
5.8167 2.9116 -2.0007 0.9731
5.4721 3.5167 -2.0007 0.9731
5.3414 3.7086 -2.0001 0.9732
5.1984 3.8915 -1.9973 0.9732
5.0494 4.0691 -1.9946 0.9732
4.0954 4.3988 -1.8486 0.9752
3.7712 4.6798 -1.8486 0.9752
3.4278 4.9369 -1.8486 0.9752
3.2494 5.0561 -1.8486 0.9752
2.6903 5.3746 -1.8487 0.9752
2.4968 5.4673 -1.8487 0.9752
2.3001 5.5529 -1.8487 0.9752
1.8981 5.7030 -1.8487 0.9752
1.2777 5.8734 -1.8488 0.9752
1.0672 5.9154 -1.8488 0.9752
0.8554 5.9498 -1.8488 0.9752
0.6426 5.9766 -1.8489 0.9752
0.4288 5.9958 -1.8489 0.9752
0.2146 6.0074 -1.8489 0.9752
0.0000 6.0114 -1.8490 0.9752
-1.4868 5.8254 -1.8492 0.9752
-2.6914 5.3768 -1.8494 0.9752
-2.8817 5.2774 -1.8495 0.9752
-3.0683 5.1713 -1.8495 0.9751
-3.6037 4.8140 -1.8496 0.9751
-4.1948 4.5055 -1.8934 0.9746
-4.4790 4.4790 -1.9483 0.9738
-4.9083 4.2531 -1.9976 0.9732
-5.0640 4.0808 -2.0004 0.9731
-5.2110 3.9009 -2.0022 0.9731
-5.4763 3.5194 -2.0022 0.9731
-5.7136 3.1199 -2.0023 0.9731
-5.9219 2.7044 -2.0024 0.9731
-6.0148 2.4914 -2.0024 0.9731
-6.1000 2.2752 -2.0025 0.9731
-6.2470 1.8343 -2.0026 0.9731
-6.3086 1.6102 -2.0026 0.9731
-6.3621 1.3840 -2.0026 0.9731
-6.4076 1.1561 -2.0027 0.9731
6.0044 0.4295 -2.0010 0.9749
5.9852 0.6435 -2.0010 0.9749
5.9583 0.8567 -2.0009 0.9749
5.7755 1.6958 -2.0009 0.9749
5.5610 2.3035 -2.0008 0.9749
5.4753 2.5005 -2.0008 0.9749
5.1765 3.0714 -2.0008 0.9749
5.0636 3.2542 -2.0008 0.9749
4.9442 3.4328 -2.0008 0.9749
4.6859 3.7761 -2.0004 0.9750
4.3943 4.0912 -1.9957 0.9750
3.9964 4.2924 -1.9495 0.9756
3.7478 4.3252 -1.9024 0.9762
3.3329 4.4522 -1.8487 0.9768
3.1719 4.5684 -1.8487 0.9768
3.0068 4.6787 -1.8487 0.9768
2.8379 4.7831 -1.8487 0.9768
2.4895 4.9734 -1.8487 0.9768
1.3755 5.3892 -1.8488 0.9768
1.1823 5.4350 -1.8489 0.9768
0.9876 5.4738 -1.8489 0.9768
0.7916 5.5056 -1.8489 0.9768
-0.0000 5.5625 -1.8490 0.9768
-0.5946 5.5309 -1.8491 0.9768
-0.7917 5.5063 -1.8491 0.9768
-0.9877 5.4746 -1.8492 0.9768
-1.1825 5.4359 -1.8492 0.9768
-1.3758 5.3904 -1.8492 0.9768
-1.9442 5.2127 -1.8493 0.9768
-2.3112 5.0609 -1.8494 0.9768
-2.6665 4.8833 -1.8495 0.9768
-2.8392 4.7851 -1.8495 0.9768
-3.0082 4.6808 -1.8495 0.9768
-3.4013 4.5436 -1.8866 0.9764
-3.6457 4.5240 -1.9313 0.9758
-4.0916 4.3947 -1.9960 0.9750
-4.2509 4.2509 -1.9983 0.9750
-4.4052 4.1014 -2.0007 0.9749
-5.1803 3.0736 -2.0022 0.9749
-5.2868 2.8868 -2.0023 0.9749
-5.4795 2.5024 -2.0024 0.9749
-5.7803 1.6972 -2.0025 0.9749
-5.8868 1.2806 -2.0026 0.9749
-5.9902 0.6440 -2.0027 0.9749
-6.0095 0.4298 -2.0027 0.9749
-6.0211 0.2150 -2.0027 0.9749
5.5922 0.1997 -2.0011 0.9765
5.5636 0.5981 -2.0010 0.9765
5.5386 0.7963 -2.0010 0.9765
5.5066 0.9935 -2.0010 0.9765
5.4676 1.1894 -2.0010 0.9765
5.4216 1.3838 -2.0010 0.9765
5.3687 1.5764 -2.0009 0.9765
5.0034 2.5045 -2.0009 0.9765
4.9108 2.6815 -2.0009 0.9765
4.3566 3.5108 -2.0009 0.9765
4.2285 3.6640 -2.0008 0.9765
4.0950 3.8126 -2.0009 0.9765
3.6532 4.2160 -1.9950 0.9766
3.4923 4.3336 -1.9903 0.9766
3.2662 4.3632 -1.9491 0.9771
3.0489 4.3912 -1.9117 0.9775
2.6380 4.4461 -1.8488 0.9783
2.3141 4.6231 -1.8488 0.9783
1.8067 4.8441 -1.8488 0.9783
1.6327 4.9055 -1.8489 0.9783
1.4566 4.9607 -1.8489 0.9783
1.2786 5.0096 -1.8489 0.9783
1.0990 5.0521 -1.8489 0.9783
0.9180 5.0882 -1.8489 0.9783
0.7358 5.1178 -1.8490 0.9783
0.3689 5.1573 -1.8490 0.9783
0.1846 5.1673 -1.8490 0.9783
-0.0000 5.1707 -1.8491 0.9783
-0.3689 5.1576 -1.8491 0.9783
-0.9181 5.0889 -1.8492 0.9783
-1.2789 5.0106 -1.8493 0.9783
-1.4569 4.9618 -1.8493 0.9783
-1.9791 4.7779 -1.8494 0.9783
-2.4980 4.5747 -1.8640 0.9781
-2.7078 4.5637 -1.8977 0.9777
-2.9253 4.5518 -1.9349 0.9773
-3.3436 4.4665 -1.9952 0.9766
-3.5042 4.3485 -1.9971 0.9766
-3.6609 4.2249 -1.9991 0.9765
-3.9585 3.9585 -2.0020 0.9765
-4.0974 3.8148 -2.0020 0.9765
-4.2310 3.6662 -2.0020 0.9765
-4.8152 2.8570 -2.0022 0.9765
-5.1731 2.1428 -2.0024 0.9765
-5.2464 1.9568 -2.0024 0.9765
-5.3130 1.7683 -2.0024 0.9765
-5.3728 1.5776 -2.0025 0.9765
-5.4257 1.3848 -2.0025 0.9765
-5.4718 1.1903 -2.0025 0.9765
-5.5966 0.1999 -2.0027 0.9765
5.2086 0.3725 -2.0011 0.9779
5.1919 0.5582 -2.0011 0.9779
5.1388 0.9271 -2.0011 0.9779
5.0594 1.2913 -2.0010 0.9779
5.0101 1.4711 -2.0010 0.9779
4.9543 1.6490 -2.0010 0.9779
4.8923 1.8247 -2.0010 0.9779
4.7496 2.1691 -2.0010 0.9779
4.6691 2.3372 -2.0009 0.9779
4.4905 2.6643 -2.0009 0.9779
4.3925 2.8229 -2.0009 0.9779
4.2889 2.9779 -2.0009 0.9779
4.1799 3.1290 -2.0009 0.9779
4.0656 3.2762 -2.0009 0.9779
3.8215 3.5579 -2.0009 0.9779
3.5579 3.8215 -2.0009 0.9779
3.4177 3.9442 -2.0000 0.9779
3.2719 4.0602 -1.9983 0.9779
2.9693 4.2766 -1.9951 0.9779
2.8127 4.3767 -1.9937 0.9780
2.4223 4.4361 -1.9369 0.9786
2.2300 4.4549 -1.9091 0.9789
2.0426 4.4728 -1.8843 0.9792
1.8597 4.4898 -1.8623 0.9794
1.6861 4.5205 -1.8489 0.9795
1.5236 4.5778 -1.8489 0.9795
1.3593 4.6294 -1.8489 0.9795
1.1932 4.6750 -1.8490 0.9795
1.0256 4.7146 -1.8490 0.9795
0.8567 4.7483 -1.8490 0.9795
0.5158 4.7974 -1.8490 0.9795
0.3442 4.8128 -1.8491 0.9795
0.1722 4.8221 -1.8491 0.9795
-0.3442 4.8130 -1.8492 0.9795
-0.5158 4.7978 -1.8492 0.9795
-0.8568 4.7489 -1.8492 0.9795
-1.0258 4.7154 -1.8493 0.9795
-1.1934 4.6758 -1.8493 0.9795
-1.7103 4.5856 -1.8755 0.9793
-1.8976 4.5812 -1.9002 0.9790
-2.0882 4.5725 -1.9264 0.9787
-2.8171 4.3836 -1.9968 0.9779
-2.9743 4.2838 -1.9985 0.9779
-3.1280 4.1785 -2.0003 0.9779
-3.5597 3.8234 -2.0019 0.9779
-3.8235 3.5599 -2.0020 0.9779
-3.9482 3.4212 -2.0020 0.9779
-4.0679 3.2781 -2.0021 0.9779
-4.1824 3.1309 -2.0021 0.9779
-4.2915 2.9797 -2.0021 0.9779
-4.5857 2.5040 -2.0022 0.9779
-4.9578 1.6501 -2.0024 0.9779
-5.0136 1.4721 -2.0024 0.9779
-5.1957 0.5586 -2.0026 0.9779
-5.2124 0.3728 -2.0026 0.9779
-5.2224 0.1865 -2.0026 0.9779
4.8896 0.0000 -2.0012 0.9791
4.8865 0.1745 -2.0012 0.9791
4.8397 0.6958 -2.0011 0.9791
4.8117 0.8681 -2.0011 0.9791
4.7776 1.0393 -2.0011 0.9791
4.7374 1.2092 -2.0011 0.9791
4.6912 1.3775 -2.0011 0.9791
4.6390 1.5440 -2.0010 0.9791
4.5810 1.7086 -2.0010 0.9791
4.5170 1.8710 -2.0010 0.9791
4.4473 2.0310 -2.0010 0.9791
4.0160 2.7884 -2.0010 0.9791
3.9139 2.9299 -2.0010 0.9791
3.8068 3.0677 -2.0010 0.9791
3.2017 3.6950 -2.0010 0.9791
2.9300 3.9140 -2.0010 0.9791
2.6400 4.1079 -1.9985 0.9791
2.4900 4.1967 -1.9972 0.9791
2.3372 4.2803 -1.9960 0.9791
2.1817 4.3586 -1.9949 0.9792
2.0237 4.4314 -1.9938 0.9792
1.8510 4.4687 -1.9796 0.9793
1.4964 4.4961 -1.9394 0.9797
0.6538 4.5474 -1.8803 0.9803
0.4898 4.5558 -1.8753 0.9804
0.3262 4.5605 -1.8713 0.9804
0.1630 4.5648 -1.8695 0.9805
-0.1633 4.5722 -1.8725 0.9804
-0.3272 4.5753 -1.8773 0.9804
-0.6585 4.5803 -1.8939 0.9802
-0.8262 4.5796 -1.9046 0.9801
-0.9957 4.5774 -1.9172 0.9800
-1.1676 4.5747 -1.9323 0.9798
-1.5204 4.5679 -1.9704 0.9794
-1.7022 4.5638 -1.9935 0.9792
-1.8654 4.5035 -1.9950 0.9792
-2.3403 4.2860 -1.9986 0.9791
-2.6439 4.1140 -2.0015 0.9791
-2.7895 4.0176 -2.0018 0.9791
-2.9312 3.9156 -2.0018 0.9791
-3.3331 3.5800 -2.0019 0.9791
-3.4588 3.4588 -2.0020 0.9791
-3.5801 3.3332 -2.0020 0.9791
-3.9161 2.9316 -2.0021 0.9791
-4.0183 2.7900 -2.0021 0.9791
-4.2072 2.4963 -2.0022 0.9791
-4.4501 2.0323 -2.0023 0.9791
-4.6943 1.3784 -2.0024 0.9791
-4.7406 1.2100 -2.0024 0.9791
-4.7808 1.0400 -2.0024 0.9791
-1.9569 0.2104 -0.8055 0.9915
-1.9524 0.1396 -0.8011 0.9916
-1.9308 0.0690 -0.7907 0.9917
4.5802 0.3276 -2.0012 0.9802
4.5188 0.8153 -2.0012 0.9802
4.4490 1.1355 -2.0011 0.9802
4.4056 1.2936 -2.0011 0.9802
4.3566 1.4500 -2.0011 0.9802
4.3021 1.6046 -2.0011 0.9802
4.2421 1.7571 -2.0011 0.9802
4.1766 1.9074 -2.0011 0.9802
4.0299 2.2005 -2.0011 0.9802
3.9488 2.3429 -2.0010 0.9802
3.5751 2.8810 -2.0010 0.9802
3.4700 3.0068 -2.0010 0.9802
3.3605 3.1287 -2.0010 0.9802
2.8810 3.5751 -2.0011 0.9802
2.7516 3.6757 -2.0011 0.9802
2.6186 3.7716 -2.0011 0.9802
2.3429 3.9488 -2.0011 0.9802
2.1998 4.0287 -2.0005 0.9802
2.0535 4.1024 -1.9994 0.9802
1.7540 4.2345 -1.9975 0.9802
1.4463 4.3455 -1.9960 0.9802
1.2899 4.3929 -1.9953 0.9802
1.1319 4.4348 -1.9947 0.9802
0.6508 4.5267 -1.9931 0.9802
0.1623 4.5441 -1.9816 0.9804
-0.0000 4.5479 -1.9821 0.9804
-0.3257 4.5544 -1.9900 0.9803
-0.8127 4.5045 -1.9948 0.9802
-1.1327 4.4377 -1.9960 0.9802
-1.4475 4.3490 -1.9976 0.9802
-1.6025 4.2965 -1.9985 0.9802
-1.7557 4.2387 -1.9995 0.9802
-2.3437 3.9501 -2.0017 0.9802
-2.4832 3.8640 -2.0018 0.9802
-2.7527 3.6771 -2.0018 0.9802
-2.8822 3.5766 -2.0019 0.9802
-3.0081 3.4715 -2.0019 0.9802
-3.3621 3.1302 -2.0020 0.9802
-3.5769 2.8825 -2.0020 0.9802
-3.6776 2.7530 -2.0021 0.9802
-3.7735 2.6200 -2.0021 0.9802
-4.0322 2.2017 -2.0022 0.9802
-4.2446 1.7582 -2.0023 0.9802
-1.5984 0.5962 -0.7435 0.9926
-1.5875 0.5284 -0.7292 0.9927
-1.5707 0.4612 -0.7134 0.9929
-1.5485 0.3952 -0.6965 0.9931
-1.5214 0.3310 -0.6786 0.9932
-1.5151 0.2178 -0.6671 0.9933
-1.5249 0.1639 -0.6684 0.9933
-1.5293 0.1094 -0.6682 0.9933
-1.5284 0.0546 -0.6665 0.9933
4.2245 0.9190 -2.0012 0.9811
4.1020 1.3653 -2.0011 0.9811
4.0506 1.5108 -2.0011 0.9811
3.9941 1.6544 -2.0011 0.9811
3.9325 1.7959 -2.0011 0.9811
3.7943 2.0719 -2.0011 0.9811
3.7179 2.2060 -2.0011 0.9811
3.6368 2.3372 -2.0011 0.9811
3.5511 2.4656 -2.0011 0.9811
3.4608 2.5907 -2.0011 0.9811
3.3661 2.7126 -2.0011 0.9811
3.2672 2.8310 -2.0011 0.9811
2.9458 3.1641 -2.0011 0.9811
2.8310 3.2672 -2.0011 0.9811
2.5907 3.4608 -2.0011 0.9811
2.2060 3.7180 -2.0011 0.9811
2.0719 3.7944 -2.0011 0.9811
1.9351 3.8659 -2.0011 0.9811
1.7959 3.9326 -2.0012 0.9811
1.6544 3.9942 -2.0012 0.9811
1.2170 4.1449 -1.9996 0.9811
1.0680 4.1846 -1.9991 0.9811
0.9178 4.2191 -1.9986 0.9811
0.6143 4.2725 -1.9980 0.9812
0.4614 4.2913 -1.9978 0.9812
0.0000 4.3157 -1.9976 0.9812
-0.1541 4.3132 -1.9978 0.9812
-0.3079 4.3054 -1.9980 0.9812
-0.4615 4.2923 -1.9983 0.9812
-0.6145 4.2740 -1.9987 0.9811
-0.7668 4.2503 -1.9992 0.9811
-1.0687 4.1871 -2.0003 0.9811
-1.2179 4.1477 -2.0010 0.9811
-1.5112 4.0516 -2.0016 0.9811
-1.6548 3.9951 -2.0016 0.9811
-2.0725 3.7955 -2.0017 0.9811
-2.2067 3.7191 -2.0018 0.9811
-2.3380 3.6381 -2.0018 0.9811
-2.5917 3.4621 -2.0018 0.9811
-2.8322 3.2685 -2.0019 0.9811
-3.0582 3.0582 -2.0020 0.9811
-3.1654 2.9471 -2.0020 0.9811
-3.3677 2.7139 -2.0020 0.9811
-3.4625 2.5920 -2.0021 0.9811
-3.5529 2.4668 -2.0021 0.9811
-3.6387 2.3385 -2.0021 0.9811
-3.7199 2.2071 -2.0021 0.9811
-1.3150 0.6006 -0.6692 0.9936
-1.3324 0.4435 -0.6500 0.9938
-1.3116 0.3348 -0.6266 0.9941
-1.3013 0.2831 -0.6164 0.9941
-1.3160 0.2374 -0.6190 0.9941
-1.3384 0.0957 -0.6211 0.9941
-1.3376 0.0478 -0.6195 0.9941
4.0800 0.0000 -2.0013 0.9820
4.0565 0.4361 -2.0013 0.9820
4.0383 0.5806 -2.0013 0.9820
3.9145 1.1494 -2.0012 0.9820
3.7691 1.5612 -2.0012 0.9820
3.7110 1.6947 -2.0012 0.9820
3.6481 1.8261 -2.0012 0.9820
3.5806 1.9551 -2.0011 0.9820
3.5085 2.0817 -2.0011 0.9820
3.1765 2.5598 -2.0011 0.9820
2.8847 2.8847 -2.0011 0.9820
2.6716 3.0832 -2.0011 0.9820
2.4448 3.2659 -2.0011 0.9820
1.6948 3.7111 -2.0012 0.9820
1.4257 3.8225 -2.0012 0.9820
1.0090 3.9531 -2.0013 0.9820
0.8672 3.9867 -2.0013 0.9820
0.2911 4.0696 -2.0014 0.9820
0.1456 4.0775 -2.0014 0.9820
-0.2911 4.0698 -2.0014 0.9820
-0.4362 4.0569 -2.0015 0.9820
-0.5807 4.0388 -2.0015 0.9820
-0.7245 4.0155 -2.0015 0.9820
-0.8673 3.9871 -2.0015 0.9820
-1.1496 3.9152 -2.0016 0.9820
-1.2886 3.8717 -2.0016 0.9820
-1.6952 3.7119 -2.0017 0.9820
-1.9557 3.5816 -2.0017 0.9820
-2.0823 3.5096 -2.0018 0.9820
-2.2063 3.4331 -2.0018 0.9820
-2.4457 3.2670 -2.0018 0.9820
-2.8859 2.8859 -2.0019 0.9820
-3.0845 2.6727 -2.0020 0.9820
-3.3527 2.3278 -2.0021 0.9820
-3.5103 2.0827 -2.0021 0.9820
-1.1113 0.6068 -0.6211 0.9944
-1.1400 0.5206 -0.6148 0.9944
-1.1484 0.4757 -0.6097 0.9945
-1.1578 0.3854 -0.5986 0.9946
-1.1590 0.3403 -0.5925 0.9946
-1.1921 0.1282 -0.5881 0.9947
-1.1953 0.0855 -0.5878 0.9947
-1.1965 0.0427 -0.5873 0.9947
3.8578 0.0000 -2.0013 0.9828
3.8356 0.4124 -2.0013 0.9828
3.8184 0.5490 -2.0013 0.9828
3.7695 0.8200 -2.0013 0.9828
3.6143 1.3481 -2.0012 0.9828
3.5639 1.4762 -2.0012 0.9828
3.3856 1.8487 -2.0012 0.9828
3.2451 2.0855 -2.0012 0.9828
3.0881 2.3117 -2.0012 0.9828
2.9153 2.5261 -2.0012 0.9828
2.8233 2.6285 -2.0012 0.9828
2.7276 2.7276 -2.0012 0.9828
2.6286 2.8233 -2.0012 0.9828
2.4205 3.0036 -2.0012 0.9828
2.3117 3.0881 -2.0012 0.9828
1.9684 3.3175 -2.0012 0.9828
1.3481 3.6144 -2.0013 0.9828
1.2183 3.6603 -2.0013 0.9828
1.0868 3.7014 -2.0013 0.9828
0.9540 3.7379 -2.0013 0.9828
0.8200 3.7696 -2.0013 0.9828
0.4124 3.8357 -2.0014 0.9828
0.2752 3.8480 -2.0014 0.9828
0.1377 3.8554 -2.0014 0.9828
0.0000 3.8579 -2.0014 0.9828
-0.1377 3.8555 -2.0014 0.9828
-0.5491 3.8188 -2.0015 0.9828
-0.8201 3.7700 -2.0015 0.9828
-0.9542 3.7384 -2.0016 0.9828
-1.0870 3.7020 -2.0016 0.9828
-1.2185 3.6609 -2.0016 0.9828
-1.3484 3.6151 -2.0016 0.9828
-1.4766 3.5647 -2.0017 0.9828
-1.6029 3.5098 -2.0017 0.9828
-1.9689 3.3184 -2.0018 0.9828
-2.2007 3.1696 -2.0018 0.9828
-2.3125 3.0891 -2.0018 0.9828
-2.4213 3.0046 -2.0019 0.9828
-2.5270 2.9163 -2.0019 0.9828
-2.7287 2.7287 -2.0019 0.9828
-3.0049 2.4215 -2.0020 0.9828
-0.9917 0.5884 -0.5982 0.9948
-1.0118 0.5525 -0.5981 0.9948
-1.0298 0.5155 -0.5974 0.9948
-1.0514 0.4355 -0.5904 0.9949
-1.0576 0.3945 -0.5856 0.9949
-1.0636 0.3123 -0.5751 0.9950
-1.0704 0.2732 -0.5731 0.9950
-1.0814 0.2353 -0.5741 0.9950
-1.0974 0.1578 -0.5752 0.9950
-1.1024 0.1185 -0.5752 0.9950
-1.1055 0.0791 -0.5750 0.9950
3.6541 0.0000 -2.0014 0.9835
3.6448 0.2607 -2.0013 0.9835
3.6331 0.3906 -2.0013 0.9835
3.6168 0.5200 -2.0013 0.9835
3.5959 0.6488 -2.0013 0.9835
3.5705 0.7767 -2.0013 0.9835
3.5405 0.9037 -2.0013 0.9835
3.5059 1.0294 -2.0013 0.9835
3.4669 1.1539 -2.0013 0.9835
3.4235 1.2769 -2.0013 0.9835
3.2674 1.6355 -2.0012 0.9835
3.2069 1.7511 -2.0012 0.9835
2.9250 2.1897 -2.0012 0.9835
2.6742 2.4898 -2.0012 0.9835
2.2927 2.8450 -2.0012 0.9835
2.1897 2.9251 -2.0012 0.9835
1.5179 3.3237 -2.0013 0.9835
1.3983 3.3758 -2.0013 0.9835
1.2769 3.4236 -2.0013 0.9835
1.1539 3.4670 -2.0013 0.9835
0.2607 3.6449 -2.0014 0.9835
0.1304 3.6519 -2.0014 0.9835
-0.1304 3.6520 -2.0015 0.9835
-1.1541 3.4676 -2.0016 0.9835
-1.5182 3.3245 -2.0017 0.9835
-1.6359 3.2682 -2.0017 0.9835
-1.7516 3.2077 -2.0017 0.9835
-2.0845 3.0023 -2.0018 0.9835
-2.2934 2.8460 -2.0019 0.9835
-2.4907 2.6752 -2.0019 0.9835
-2.7625 2.3937 -2.0020 0.9835
-2.8462 2.2936 -2.0020 0.9835
-2.9262 2.1906 -2.0020 0.9835
-0.8661 0.6014 -0.5775 0.9952
-0.8881 0.5708 -0.5782 0.9952
-0.9269 0.5061 -0.5784 0.9952
-0.9434 0.4722 -0.5778 0.9952
-0.9580 0.4375 -0.5768 0.9952
-0.9677 0.4008 -0.5737 0.9952
-0.9741 0.3633 -0.5694 0.9953
-0.9785 0.3257 -0.5648 0.9953
-0.9938 0.2537 -0.5618 0.9953
-1.0039 0.2184 -0.5627 0.9953
-1.0124 0.1826 -0.5634 0.9953
-1.0236 0.1100 -0.5639 0.9953
-1.0276 0.0367 -0.5632 0.9953
2.0320 0.0726 -1.1739 0.9907
2.0359 0.1456 -1.1784 0.9906
2.0366 0.2190 -1.1826 0.9906
2.0300 0.2919 -1.1841 0.9906
1.9616 0.5007 -1.1688 0.9907
1.9033 0.6335 -1.1581 0.9908
1.8682 0.6968 -1.1512 0.9908
1.8620 0.7713 -1.1636 0.9907
1.8508 0.8452 -1.1747 0.9906
2.7749 2.0773 -2.0012 0.9841
2.6990 2.1750 -2.0012 0.9841
2.6196 2.2699 -2.0012 0.9841
2.3620 2.5369 -2.0013 0.9841
2.0773 2.7749 -2.0013 0.9841
1.9769 2.8473 -2.0013 0.9841
1.8740 2.9160 -2.0013 0.9841
1.3265 3.2025 -2.0013 0.9841
1.0947 3.2890 -2.0013 0.9841
0.8573 3.3588 -2.0014 0.9841
0.7369 3.3873 -2.0014 0.9841
0.4933 3.4312 -2.0014 0.9841
0.3706 3.4467 -2.0014 0.9841
0.2473 3.4578 -2.0014 0.9841
0.1237 3.4644 -2.0015 0.9841
-0.0000 3.4666 -2.0015 0.9841
-0.1237 3.4645 -2.0015 0.9841
-0.3706 3.4469 -2.0015 0.9841
-0.7369 3.3876 -2.0016 0.9841
-0.9767 3.3265 -2.0016 0.9841
-1.2116 3.2484 -2.0017 0.9841
-1.3268 3.2031 -2.0017 0.9841
-1.4403 3.1538 -2.0017 0.9841
-1.7692 2.9818 -2.0018 0.9841
-1.8745 2.9168 -2.0018 0.9841
-1.9775 2.8481 -2.0018 0.9841
-2.0779 2.7757 -2.0018 0.9841
-2.1756 2.6998 -2.0019 0.9841
-2.3628 2.5378 -2.0019 0.9841
-2.4519 2.4519 -2.0019 0.9841
-0.7671 0.6182 -0.5688 0.9955
-0.8364 0.4963 -0.5615 0.9955
-0.8941 0.3703 -0.5587 0.9955
-0.9151 0.2687 -0.5506 0.9956
-0.9259 0.2363 -0.5517 0.9956
-0.9352 0.2035 -0.5526 0.9956
-0.9430 0.1701 -0.5532 0.9956
-0.9492 0.1365 -0.5536 0.9956
-0.9538 0.1025 -0.5538 0.9956
-0.9565 0.0684 -0.5536 0.9956
