ply
format ascii 1.0
element vertex 730
property float32 x
property float32 y
property float32 z
property float32 I
end_header
-9.4776 0.0000 -2.0034 0.9620
-9.4732 -0.3383 -2.0037 0.9620
-9.4568 -0.6764 -2.0041 0.9620
-9.4283 -1.0136 -2.0044 0.9620
-9.3877 -1.3498 -2.0048 0.9620
-9.2707 -2.0167 -2.0055 0.9620
-9.1062 -2.6738 -2.0061 0.9619
-9.0065 -2.9976 -2.0065 0.9619
-8.8952 -3.3177 -2.0068 0.9619
-8.6385 -3.9451 -2.0074 0.9619
-8.4935 -4.2515 -2.0077 0.9619
-8.3375 -4.5527 -2.0080 0.9619
-7.8064 -5.4201 -2.0089 0.9619
-7.4017 -5.9647 -2.0094 0.9619
-7.1850 -6.2258 -2.0096 0.9619
-6.9590 -6.4791 -2.0098 0.9619
-6.7241 -6.7241 -2.0101 0.9619
-6.4805 -6.9605 -2.0103 0.9619
-5.9685 -7.4065 -2.0107 0.9619
-5.7009 -7.6155 -2.0109 0.9619
-5.4259 -7.8148 -2.0110 0.9619
-5.1439 -8.0041 -2.0112 0.9618
-4.8553 -8.1832 -2.0113 0.9618
-4.5604 -8.3518 -2.0115 0.9618
-4.2597 -8.5098 -2.0116 0.9618
-3.6421 -8.7929 -2.0118 0.9618
-3.3261 -8.9177 -2.0119 0.9618
-2.0233 -9.3012 -2.0121 0.9618
-1.3547 -9.4220 -2.0121 0.9618
-1.0175 -9.4643 -2.0121 0.9618
0.6790 -9.4934 -2.0119 0.9618
1.3544 -9.4200 -2.0117 0.9618
1.6897 -9.3651 -2.0116 0.9618
2.6805 -9.1290 -2.0112 0.9618
3.0044 -9.0268 -2.0110 0.9619
3.3244 -8.9131 -2.0108 0.9619
3.6401 -8.7879 -2.0106 0.9619
3.9511 -8.6516 -2.0105 0.9619
4.2569 -8.5042 -2.0102 0.9619
4.5572 -8.3460 -2.0100 0.9619
4.8517 -8.1771 -2.0098 0.9619
5.4214 -7.8083 -2.0093 0.9619
6.2225 -7.1812 -2.0085 0.9619
6.9515 -6.4721 -2.0077 0.9619
7.6000 -5.6893 -2.0067 0.9619
8.1606 -4.8419 -2.0058 0.9619
8.3268 -4.5468 -2.0054 0.9620
8.6270 -3.9398 -2.0047 0.9620
8.9939 -2.9935 -2.0037 0.9620
9.1813 -2.3434 -2.0030 0.9620
9.2574 -2.0138 -2.0026 0.9620
9.3217 -1.6818 -2.0022 0.9620
9.3741 -1.3478 -2.0019 0.9620
9.4145 -1.0122 -2.0015 0.9620
9.4429 -0.6754 -2.0011 0.9620
9.4593 -0.3379 -2.0008 0.9620
-8.5235 -0.0000 -2.0032 0.9656
-8.4787 -0.9116 -2.0042 0.9656
-8.3366 -1.8135 -2.0051 0.9656
-8.1884 -2.4043 -2.0057 0.9655
-8.0986 -2.6955 -2.0060 0.9655
-7.8879 -3.2673 -2.0066 0.9655
-7.7673 -3.5472 -2.0069 0.9655
-6.8410 -5.1211 -2.0084 0.9655
-6.6546 -5.3626 -2.0086 0.9655
-6.2564 -5.8250 -2.0090 0.9655
-6.0451 -6.0451 -2.0092 0.9655
-5.8261 -6.2577 -2.0094 0.9655
-4.8778 -7.0254 -2.0101 0.9655
-4.6243 -7.1956 -2.0102 0.9655
-4.3648 -7.3565 -2.0104 0.9655
-4.0997 -7.5080 -2.0105 0.9655
-3.8293 -7.6500 -2.0106 0.9655
-3.2741 -7.9044 -2.0108 0.9655
-2.7021 -8.1184 -2.0109 0.9655
-2.1161 -8.2909 -2.0110 0.9655
-1.8189 -8.3612 -2.0110 0.9655
-1.5193 -8.4209 -2.0111 0.9655
-0.9147 -8.5078 -2.0111 0.9655
-0.3054 -8.5512 -2.0110 0.9655
0.6104 -8.5342 -2.0108 0.9655
0.9146 -8.5066 -2.0108 0.9655
1.2175 -8.4682 -2.0107 0.9655
1.8184 -8.3589 -2.0105 0.9655
2.4097 -8.2068 -2.0102 0.9655
2.9886 -8.0128 -2.0099 0.9655
3.5520 -7.7779 -2.0096 0.9655
3.8271 -7.6455 -2.0094 0.9655
4.6210 -7.1904 -2.0088 0.9655
5.1210 -6.8409 -2.0084 0.9655
5.3613 -6.6530 -2.0081 0.9655
5.5947 -6.4566 -2.0079 0.9655
6.2504 -5.8193 -2.0071 0.9655
6.4532 -5.5917 -2.0068 0.9655
6.6478 -5.3571 -2.0065 0.9655
6.8338 -5.1157 -2.0063 0.9655
7.3382 -4.3540 -2.0054 0.9655
7.7580 -3.5430 -2.0044 0.9656
7.8783 -3.2633 -2.0041 0.9656
7.9885 -2.9796 -2.0038 0.9656
8.0884 -2.6921 -2.0035 0.9656
8.1781 -2.4013 -2.0032 0.9656
8.3838 -1.5126 -2.0022 0.9656
8.4311 -1.2122 -2.0019 0.9656
8.4676 -0.9104 -2.0015 0.9656
-7.7326 -0.2762 -2.0034 0.9685
-7.7189 -0.5521 -2.0037 0.9685
-7.6954 -0.8273 -2.0040 0.9685
-7.5036 -1.9152 -2.0051 0.9685
-7.4314 -2.1821 -2.0054 0.9685
-7.3498 -2.4463 -2.0056 0.9685
-7.1584 -2.9651 -2.0061 0.9685
-7.0489 -3.2191 -2.0064 0.9685
-6.9304 -3.4691 -2.0066 0.9685
-6.3690 -4.4221 -2.0076 0.9685
-6.2078 -4.6471 -2.0078 0.9685
-6.0386 -4.8662 -2.0080 0.9685
-5.8616 -5.0792 -2.0082 0.9685
-5.6772 -5.2856 -2.0084 0.9685
-5.2866 -5.6782 -2.0087 0.9685
-4.8688 -6.0418 -2.0091 0.9684
-4.4260 -6.3747 -2.0093 0.9684
-3.9604 -6.6750 -2.0096 0.9684
-3.7199 -6.8125 -2.0097 0.9684
-3.4745 -6.9412 -2.0098 0.9684
-2.9707 -7.1720 -2.0100 0.9684
-2.7129 -7.2737 -2.0100 0.9684
-2.1872 -7.4491 -2.0101 0.9684
-1.3785 -7.6405 -2.0102 0.9684
-1.1049 -7.6849 -2.0102 0.9684
-0.8299 -7.7194 -2.0102 0.9684
-0.2771 -7.7588 -2.0102 0.9684
0.2771 -7.7584 -2.0101 0.9684
1.1047 -7.6836 -2.0099 0.9684
1.6499 -7.5845 -2.0097 0.9684
1.9194 -7.5203 -2.0096 0.9684
2.4508 -7.3633 -2.0093 0.9684
2.7118 -7.2706 -2.0092 0.9684
2.9694 -7.1687 -2.0090 0.9684
3.2231 -7.0576 -2.0089 0.9685
3.9580 -6.6709 -2.0084 0.9685
4.1932 -6.5248 -2.0082 0.9685
4.6470 -6.2077 -2.0078 0.9685
4.8651 -6.0373 -2.0075 0.9685
5.4807 -5.4808 -2.0069 0.9685
5.6722 -5.2810 -2.0066 0.9685
5.8563 -5.0745 -2.0064 0.9685
6.0330 -4.8617 -2.0061 0.9685
6.3628 -4.4178 -2.0056 0.9685
6.5155 -4.1873 -2.0053 0.9685
6.7958 -3.7108 -2.0048 0.9685
6.9229 -3.4654 -2.0045 0.9685
7.0412 -3.2156 -2.0042 0.9685
7.3414 -2.4435 -2.0033 0.9685
7.4948 -1.9129 -2.0028 0.9685
7.5572 -1.6440 -2.0025 0.9685
7.6530 -1.1004 -2.0019 0.9686
7.6863 -0.8264 -2.0016 0.9686
7.7097 -0.5514 -2.0013 0.9686
-7.0718 -0.2526 -2.0033 0.9710
-7.0592 -0.5049 -2.0035 0.9710
-7.0376 -0.7566 -2.0038 0.9710
-6.9675 -1.2571 -2.0043 0.9710
-6.8619 -1.7514 -2.0048 0.9710
-6.7211 -2.2370 -2.0053 0.9710
-6.6377 -2.4758 -2.0055 0.9710
-6.5459 -2.7114 -2.0058 0.9710
-6.3372 -3.1722 -2.0062 0.9710
-6.2207 -3.3968 -2.0065 0.9710
-5.6763 -4.2492 -2.0073 0.9710
-5.3596 -4.6442 -2.0076 0.9709
-4.8337 -5.1918 -2.0081 0.9709
-4.6457 -5.3614 -2.0083 0.9709
-4.2519 -5.6799 -2.0086 0.9709
-4.0467 -5.8284 -2.0087 0.9709
-3.8364 -5.9695 -2.0088 0.9709
-3.1767 -6.3463 -2.0091 0.9709
-2.9483 -6.4559 -2.0092 0.9709
-2.7161 -6.5573 -2.0093 0.9709
-2.4804 -6.6503 -2.0093 0.9709
-2.2415 -6.7347 -2.0094 0.9709
-1.9998 -6.8106 -2.0094 0.9709
-1.5089 -6.9361 -2.0095 0.9709
-1.2603 -6.9856 -2.0095 0.9709
-0.7588 -7.0577 -2.0095 0.9709
-0.5064 -7.0802 -2.0095 0.9709
-0.2533 -7.0937 -2.0095 0.9709
0.2533 -7.0934 -2.0094 0.9709
0.7587 -7.0569 -2.0093 0.9709
1.0100 -7.0250 -2.0092 0.9709
1.5085 -6.9345 -2.0090 0.9709
1.7550 -6.8759 -2.0089 0.9709
2.2408 -6.7324 -2.0087 0.9709
2.7150 -6.5545 -2.0084 0.9709
2.9470 -6.4530 -2.0083 0.9709
3.3993 -6.2254 -2.0080 0.9709
3.6190 -6.0995 -2.0078 0.9709
4.4486 -5.5204 -2.0071 0.9710
4.6423 -5.3575 -2.0069 0.9710
4.8301 -5.1879 -2.0066 0.9710
5.0116 -5.0116 -2.0064 0.9710
5.3552 -4.6403 -2.0060 0.9710
5.8185 -4.0399 -2.0053 0.9710
6.4393 -2.9407 -2.0040 0.9710
6.5393 -2.7087 -2.0038 0.9710
6.6309 -2.4732 -2.0035 0.9710
6.7141 -2.2347 -2.0032 0.9710
6.8546 -1.7495 -2.0027 0.9710
7.0300 -0.7558 -2.0016 0.9710
-6.5118 0.0000 -2.0029 0.9731
-6.5085 -0.2325 -2.0032 0.9731
-6.4969 -0.4647 -2.0034 0.9731
-6.4769 -0.6963 -2.0036 0.9731
-6.3149 -1.6118 -2.0046 0.9731
-6.1852 -2.0586 -2.0050 0.9731
-6.1084 -2.2783 -2.0053 0.9731
-6.0239 -2.4952 -2.0055 0.9731
-5.9316 -2.7089 -2.0057 0.9731
-5.8318 -2.9192 -2.0059 0.9731
-5.6098 -3.3284 -2.0063 0.9731
-5.4879 -3.5269 -2.0065 0.9731
-5.3590 -3.7208 -2.0067 0.9731
-4.9319 -4.2735 -2.0072 0.9731
-4.7766 -4.4471 -2.0073 0.9731
-4.6151 -4.6151 -2.0075 0.9731
-3.3319 -5.6156 -2.0084 0.9730
-3.1294 -5.7311 -2.0085 0.9730
-2.9230 -5.8394 -2.0085 0.9730
-1.8400 -6.2665 -2.0088 0.9730
-1.6152 -6.3283 -2.0089 0.9730
-1.3883 -6.3820 -2.0089 0.9730
-1.1597 -6.4275 -2.0089 0.9730
-0.2331 -6.5270 -2.0089 0.9730
0.0000 -6.5311 -2.0088 0.9730
0.6981 -6.4932 -2.0087 0.9730
0.9294 -6.4639 -2.0086 0.9730
1.3880 -6.3806 -2.0084 0.9730
2.0618 -6.1948 -2.0081 0.9730
2.2815 -6.1169 -2.0080 0.9730
2.4982 -6.0312 -2.0079 0.9731
2.7117 -5.9378 -2.0078 0.9731
3.9100 -5.2232 -2.0068 0.9731
4.0936 -5.0799 -2.0066 0.9731
4.6118 -4.6118 -2.0061 0.9731
5.0768 -4.0912 -2.0054 0.9731
5.3546 -3.7177 -2.0050 0.9731
5.4832 -3.5239 -2.0048 0.9731
5.6049 -3.3255 -2.0046 0.9731
5.7193 -3.1230 -2.0043 0.9731
5.8265 -2.9165 -2.0041 0.9731
5.9262 -2.7064 -2.0038 0.9731
6.0183 -2.4929 -2.0036 0.9731
6.3087 -1.6102 -2.0026 0.9731
6.4423 -0.9263 -2.0019 0.9731
-6.0253 0.0000 -2.0028 0.9749
-6.0221 -0.2151 -2.0031 0.9749
-5.9666 -0.8579 -2.0037 0.9749
-5.9328 -1.0704 -2.0039 0.9749
-5.2960 -2.8919 -2.0058 0.9749
-4.9579 -3.4423 -2.0063 0.9749
-4.8323 -3.6174 -2.0065 0.9749
-4.4189 -4.1141 -2.0069 0.9749
-4.2695 -4.2696 -2.0071 0.9749
-4.1147 -4.4195 -2.0072 0.9749
-3.9546 -4.5639 -2.0073 0.9749
-3.7894 -4.7024 -2.0075 0.9749
-3.6194 -4.8349 -2.0076 0.9749
-3.0823 -5.1949 -2.0079 0.9749
-2.8950 -5.3018 -2.0080 0.9749
-2.7040 -5.4020 -2.0080 0.9749
-2.1113 -5.6606 -2.0082 0.9749
-0.2156 -6.0380 -2.0083 0.9749
0.0000 -6.0417 -2.0083 0.9749
0.4310 -6.0261 -2.0082 0.9749
0.6458 -6.0067 -2.0082 0.9749
0.8597 -5.9796 -2.0081 0.9749
1.0726 -5.9449 -2.0080 0.9749
1.2840 -5.9026 -2.0080 0.9749
1.4938 -5.8528 -2.0079 0.9749
1.7017 -5.7955 -2.0078 0.9749
1.9074 -5.7308 -2.0077 0.9749
2.1106 -5.6587 -2.0076 0.9749
2.5086 -5.4931 -2.0073 0.9749
2.7029 -5.3997 -2.0072 0.9749
3.0808 -5.1924 -2.0069 0.9749
3.4428 -4.9586 -2.0066 0.9749
3.6173 -4.8322 -2.0065 0.9749
4.6970 -3.7851 -2.0052 0.9749
4.8286 -3.6147 -2.0050 0.9749
5.0732 -3.2603 -2.0046 0.9749
5.1857 -3.0769 -2.0044 0.9749
5.3909 -2.6985 -2.0039 0.9749
5.4831 -2.5041 -2.0037 0.9749
5.5684 -2.3065 -2.0035 0.9749
5.6466 -2.1060 -2.0033 0.9749
5.8373 -1.4899 -2.0026 0.9749
5.9274 -1.0694 -2.0021 0.9749
5.9611 -0.8571 -2.0019 0.9749
5.9872 -0.6437 -2.0017 0.9749
6.0057 -0.4295 -2.0014 0.9749
6.0165 -0.2149 -2.0012 0.9749
-5.6005 0.0000 -2.0028 0.9765
-5.5975 -0.1999 -2.0030 0.9765
-5.5874 -0.3996 -2.0032 0.9765
-5.5701 -0.5989 -2.0034 0.9765
-5.5458 -0.7974 -2.0036 0.9765
-5.4759 -1.1912 -2.0040 0.9765
-5.4304 -1.3860 -2.0042 0.9765
-5.3780 -1.5791 -2.0044 0.9765
-5.1799 -2.1456 -2.0050 0.9765
-5.1004 -2.3293 -2.0052 0.9765
-5.0145 -2.5101 -2.0053 0.9765
-4.9221 -2.6877 -2.0055 0.9765
-4.8235 -2.8619 -2.0057 0.9765
-4.7186 -3.0325 -2.0058 0.9765
-4.6078 -3.1992 -2.0060 0.9765
-4.4910 -3.3619 -2.0062 0.9765
-4.3685 -3.5203 -2.0063 0.9764
-4.1068 -3.8235 -2.0066 0.9764
-3.9679 -3.9679 -2.0067 0.9764
-3.6752 -4.2414 -2.0070 0.9764
-3.5217 -4.3701 -2.0071 0.9764
-3.2013 -4.6107 -2.0073 0.9764
-2.8644 -4.8277 -2.0075 0.9764
-2.6904 -4.9271 -2.0075 0.9764
-2.5129 -5.0202 -2.0076 0.9764
-2.3322 -5.1068 -2.0077 0.9764
-2.1485 -5.1870 -2.0077 0.9764
-1.1935 -5.4865 -2.0079 0.9764
-0.9969 -5.5256 -2.0079 0.9764
0.2004 -5.6110 -2.0078 0.9764
0.4005 -5.6002 -2.0078 0.9764
0.7990 -5.5570 -2.0077 0.9764
1.3883 -5.4392 -2.0074 0.9764
1.7726 -5.3258 -2.0073 0.9764
1.9615 -5.2589 -2.0072 0.9764
2.1478 -5.1853 -2.0071 0.9764
2.6893 -4.9251 -2.0067 0.9764
2.8632 -4.8256 -2.0066 0.9764
3.0334 -4.7200 -2.0064 0.9764
3.3619 -4.4909 -2.0061 0.9765
3.5198 -4.3677 -2.0060 0.9765
3.6731 -4.2390 -2.0058 0.9765
4.2375 -3.6718 -2.0051 0.9765
4.9184 -2.6857 -2.0040 0.9765
5.0106 -2.5081 -2.0038 0.9765
5.1757 -2.1438 -2.0034 0.9765
5.2484 -1.9575 -2.0032 0.9765
5.5096 -0.9941 -2.0021 0.9765
5.5410 -0.7967 -2.0019 0.9765
5.5653 -0.5983 -2.0017 0.9765
5.5825 -0.3993 -2.0015 0.9765
-5.2232 -0.1866 -2.0029 0.9779
-5.2137 -0.3729 -2.0031 0.9779
-5.1749 -0.7440 -2.0035 0.9779
-5.1455 -0.9283 -2.0037 0.9779
-5.0671 -1.2933 -2.0041 0.9778
-5.0182 -1.4735 -2.0042 0.9778
-4.9628 -1.6518 -2.0044 0.9778
-4.9011 -1.8280 -2.0046 0.9778
-4.8332 -2.0020 -2.0048 0.9778
-4.7591 -2.1734 -2.0049 0.9778
-4.6788 -2.3421 -2.0051 0.9778
-4.4027 -2.8295 -2.0056 0.9778
-4.1903 -3.1368 -2.0059 0.9778
-3.8317 -3.5675 -2.0063 0.9778
-3.7022 -3.7022 -2.0064 0.9778
-3.5679 -3.8322 -2.0065 0.9778
-3.4290 -3.9573 -2.0066 0.9778
-3.1383 -4.1923 -2.0068 0.9778
-2.6725 -4.5043 -2.0071 0.9778
-2.5101 -4.5970 -2.0072 0.9778
-2.3445 -4.6838 -2.0072 0.9778
-2.0045 -4.8394 -2.0073 0.9778
-1.4758 -5.0262 -2.0075 0.9778
-1.2955 -5.0758 -2.0075 0.9778
-1.1135 -5.1188 -2.0075 0.9778
-0.3737 -5.2252 -2.0075 0.9778
0.5599 -5.2081 -2.0073 0.9778
1.1133 -5.1179 -2.0071 0.9778
2.0039 -4.8379 -2.0067 0.9778
2.1752 -4.7630 -2.0066 0.9778
2.6714 -4.5024 -2.0063 0.9778
2.8302 -4.4039 -2.0061 0.9778
2.9854 -4.2998 -2.0060 0.9778
3.2841 -4.0753 -2.0057 0.9778
3.7000 -3.7000 -2.0052 0.9778
3.8294 -3.5653 -2.0051 0.9778
4.0733 -3.2825 -2.0047 0.9778
4.2964 -2.9830 -2.0044 0.9778
4.3997 -2.8275 -2.0042 0.9778
4.4974 -2.6684 -2.0040 0.9778
4.6755 -2.3404 -2.0037 0.9779
4.7555 -2.1718 -2.0035 0.9779
5.0631 -1.2923 -2.0025 0.9779
5.1055 -1.1106 -2.0023 0.9779
5.1414 -0.9276 -2.0021 0.9779
5.1934 -0.5584 -2.0017 0.9779
5.2095 -0.3726 -2.0015 0.9779
5.2190 -0.1864 -2.0013 0.9779
-1.8978 0.0000 -0.7767 0.9918
-1.9308 -0.0690 -0.7907 0.9917
-1.9449 -0.2796 -0.8042 0.9915
-2.1703 -0.3916 -0.9026 0.9905
-4.7839 -1.0407 -2.0037 0.9791
-4.7442 -1.2109 -2.0039 0.9791
-4.6465 -1.5465 -2.0043 0.9791
-4.4556 -2.0348 -2.0047 0.9791
-4.3805 -2.1927 -2.0049 0.9791
-4.1219 -2.6490 -2.0053 0.9790
-4.0250 -2.7946 -2.0055 0.9790
-3.8159 -3.0751 -2.0057 0.9790
-3.4660 -3.4660 -2.0061 0.9790
-3.3402 -3.5877 -2.0062 0.9790
-2.9380 -3.9247 -2.0065 0.9790
-2.7962 -4.0273 -2.0066 0.9790
-2.6508 -4.1247 -2.0067 0.9790
-2.3499 -4.3036 -2.0068 0.9790
-2.1949 -4.3848 -2.0069 0.9790
-1.7137 -4.5947 -2.0070 0.9790
-1.5487 -4.6530 -2.0071 0.9790
-1.2128 -4.7518 -2.0071 0.9790
-1.0424 -4.7921 -2.0071 0.9790
-0.6979 -4.8542 -2.0071 0.9790
-0.5242 -4.8761 -2.0071 0.9790
-0.3499 -4.8916 -2.0071 0.9790
-0.1750 -4.9010 -2.0071 0.9790
0.6979 -4.8537 -2.0069 0.9790
1.5483 -4.6519 -2.0066 0.9790
2.0364 -4.4591 -2.0063 0.9790
2.1941 -4.3834 -2.0062 0.9790
2.3491 -4.3020 -2.0061 0.9790
2.5010 -4.2152 -2.0060 0.9790
2.6497 -4.1230 -2.0059 0.9790
2.7950 -4.0255 -2.0057 0.9790
3.4641 -3.4641 -2.0050 0.9790
3.5853 -3.3380 -2.0049 0.9791
3.9206 -2.9349 -2.0044 0.9791
4.0225 -2.7929 -2.0042 0.9791
4.2108 -2.4984 -2.0039 0.9791
4.3775 -2.1912 -2.0035 0.9791
4.5219 -1.8730 -2.0032 0.9791
4.6431 -1.5454 -2.0028 0.9791
4.6949 -1.3786 -2.0026 0.9791
4.8415 -0.6961 -2.0019 0.9791
4.8868 -0.1745 -2.0013 0.9791
-1.5284 -0.0546 -0.6665 0.9933
-1.5249 -0.1639 -0.6684 0.9933
-1.5151 -0.2179 -0.6671 0.9933
-1.5001 -0.2707 -0.6643 0.9934
-1.5707 -0.4612 -0.7134 0.9929
-1.5875 -0.5284 -0.7292 0.9927
-4.1133 -2.0590 -2.0047 0.9801
-3.9565 -2.3475 -2.0050 0.9801
-3.7795 -2.6241 -2.0053 0.9801
-3.4780 -3.0137 -2.0056 0.9801
-3.3684 -3.1361 -2.0057 0.9801
-2.8883 -3.5842 -2.0061 0.9801
-2.4890 -3.8729 -2.0064 0.9801
-2.3492 -3.9594 -2.0065 0.9801
-2.2065 -4.0409 -2.0065 0.9801
-2.0609 -4.1172 -2.0066 0.9801
-1.9127 -4.1882 -2.0066 0.9801
-1.6091 -4.3142 -2.0067 0.9801
-0.9788 -4.4995 -2.0068 0.9801
-0.3285 -4.5930 -2.0068 0.9801
-0.1644 -4.6018 -2.0068 0.9801
0.3285 -4.5928 -2.0067 0.9801
0.4922 -4.5780 -2.0067 0.9801
0.6553 -4.5574 -2.0066 0.9801
0.9787 -4.4988 -2.0065 0.9801
1.4538 -4.3680 -2.0063 0.9801
1.7615 -4.2528 -2.0061 0.9801
1.9121 -4.1870 -2.0060 0.9801
2.3484 -3.9580 -2.0057 0.9801
2.4880 -3.8714 -2.0056 0.9801
2.6244 -3.7799 -2.0055 0.9801
2.8871 -3.5826 -2.0052 0.9801
3.3666 -3.1344 -2.0047 0.9801
3.5811 -2.8858 -2.0044 0.9801
3.6816 -2.7560 -2.0042 0.9801
3.7773 -2.6226 -2.0041 0.9801
3.9541 -2.3461 -2.0038 0.9801
4.1812 -1.9095 -2.0033 0.9801
4.3060 -1.6061 -2.0029 0.9801
4.3603 -1.4512 -2.0028 0.9801
4.4089 -1.2946 -2.0026 0.9801
4.4519 -1.1363 -2.0024 0.9802
4.5809 -0.3276 -2.0015 0.9802
-1.3333 -0.0000 -0.6172 0.9941
-1.3376 -0.0478 -0.6195 0.9941
-1.3384 -0.0957 -0.6211 0.9941
-1.3117 -0.3348 -0.6266 0.9941
-1.3241 -0.3888 -0.6388 0.9939
-1.3324 -0.4435 -0.6500 0.9938
-1.3324 -0.4970 -0.6582 0.9938
-1.3263 -0.5494 -0.6645 0.9937
-1.3151 -0.6006 -0.6692 0.9936
-3.8725 -1.9384 -2.0046 0.9811
-3.8011 -2.0755 -2.0047 0.9811
-3.6438 -2.3417 -2.0049 0.9811
-3.2742 -2.8371 -2.0054 0.9811
-2.7191 -3.3742 -2.0059 0.9811
-2.5971 -3.4693 -2.0060 0.9811
-2.4717 -3.5599 -2.0061 0.9811
-2.2116 -3.7274 -2.0062 0.9811
-2.0772 -3.8041 -2.0062 0.9811
-1.8006 -3.9428 -2.0064 0.9811
-1.3689 -4.1129 -2.0065 0.9811
-1.0720 -4.2001 -2.0065 0.9811
-0.7697 -4.2660 -2.0065 0.9811
-0.3092 -4.3238 -2.0065 0.9811
-0.1547 -4.3320 -2.0065 0.9811
0.3092 -4.3236 -2.0064 0.9811
0.7696 -4.2655 -2.0063 0.9811
1.3686 -4.1120 -2.0060 0.9811
1.5144 -4.0604 -2.0060 0.9811
1.6583 -4.0036 -2.0059 0.9811
1.9395 -3.8747 -2.0057 0.9811
2.0765 -3.8029 -2.0056 0.9811
2.7180 -3.3728 -2.0050 0.9811
2.8364 -3.2734 -2.0049 0.9811
2.9513 -3.1699 -2.0048 0.9811
3.0623 -3.0624 -2.0047 0.9811
3.1695 -2.9509 -2.0045 0.9811
3.2726 -2.8357 -2.0044 0.9811
3.7227 -2.2088 -2.0037 0.9811
3.7989 -2.0743 -2.0035 0.9811
3.9365 -1.7978 -2.0032 0.9811
3.9979 -1.6560 -2.0030 0.9811
4.0541 -1.5121 -2.0029 0.9811
4.1052 -1.3663 -2.0027 0.9811
4.2564 -0.7679 -2.0021 0.9811
4.2808 -0.6155 -2.0019 0.9811
4.2997 -0.4623 -2.0017 0.9811
4.3131 -0.3085 -2.0016 0.9811
4.3210 -0.1543 -2.0014 0.9811
-1.1921 -0.1282 -0.5881 0.9947
-1.1867 -0.1706 -0.5881 0.9947
-1.1543 -0.4306 -0.6043 0.9945
-1.1484 -0.4757 -0.6097 0.9945
-1.1113 -0.6068 -0.6211 0.9944
-3.5147 -2.0854 -2.0047 0.9820
-3.4382 -2.2096 -2.0048 0.9820
-3.1828 -2.5649 -2.0051 0.9820
-3.0894 -2.6770 -2.0052 0.9820
-2.7860 -2.9924 -2.0055 0.9819
-2.6775 -3.0900 -2.0056 0.9819
-2.4504 -3.2734 -2.0057 0.9819
-2.2108 -3.4401 -2.0059 0.9819
-1.9599 -3.5893 -2.0060 0.9819
-1.6989 -3.7201 -2.0061 0.9819
-1.4293 -3.8320 -2.0062 0.9819
-1.2916 -3.8806 -2.0062 0.9819
-0.2918 -4.0796 -2.0063 0.9819
0.7261 -4.0246 -2.0060 0.9819
0.8693 -3.9961 -2.0060 0.9819
1.2913 -3.8799 -2.0058 0.9819
1.4289 -3.8312 -2.0057 0.9819
1.6985 -3.7192 -2.0056 0.9819
1.8301 -3.6560 -2.0055 0.9819
1.9593 -3.5882 -2.0054 0.9820
2.0860 -3.5158 -2.0053 0.9820
2.2101 -3.4389 -2.0052 0.9820
2.3313 -3.3577 -2.0051 0.9820
2.4495 -3.2722 -2.0050 0.9820
2.5646 -3.1825 -2.0049 0.9820
2.7848 -2.9910 -2.0046 0.9820
2.8896 -2.8896 -2.0045 0.9820
3.1813 -2.5636 -2.0041 0.9820
3.2705 -2.4483 -2.0040 0.9820
3.3556 -2.3298 -2.0038 0.9820
3.5128 -2.0842 -2.0036 0.9820
3.5847 -1.9574 -2.0034 0.9820
3.7146 -1.6964 -2.0031 0.9820
3.7725 -1.5626 -2.0030 0.9820
3.9170 -1.1501 -2.0025 0.9820
3.9885 -0.8676 -2.0022 0.9820
4.0166 -0.7247 -2.0020 0.9820
4.0396 -0.5808 -2.0019 0.9820
4.0701 -0.2911 -2.0016 0.9820
-1.1058 -0.0000 -0.5737 0.9950
-1.1055 -0.0791 -0.5750 0.9950
-1.1024 -0.1185 -0.5752 0.9950
-1.0974 -0.1578 -0.5752 0.9950
-1.0814 -0.2352 -0.5741 0.9950
-1.0636 -0.3123 -0.5751 0.9950
-1.0576 -0.3945 -0.5856 0.9949
-1.0298 -0.5155 -0.5974 0.9948
-0.9917 -0.5884 -0.5982 0.9948
-3.2507 -2.0891 -2.0046 0.9827
-2.9209 -2.5310 -2.0050 0.9827
-2.7332 -2.7331 -2.0052 0.9827
-2.5314 -2.9214 -2.0054 0.9827
-2.4256 -3.0100 -2.0055 0.9827
-2.2049 -3.1756 -2.0056 0.9827
-1.9728 -3.3250 -2.0057 0.9827
-1.8529 -3.3934 -2.0058 0.9827
-1.7307 -3.4575 -2.0058 0.9827
-1.3513 -3.6229 -2.0059 0.9827
-1.0894 -3.7101 -2.0060 0.9827
-0.9563 -3.7467 -2.0060 0.9827
-0.6866 -3.8054 -2.0060 0.9827
-0.5503 -3.8275 -2.0060 0.9827
-0.4133 -3.8447 -2.0060 0.9827
-0.1380 -3.8643 -2.0060 0.9827
0.1380 -3.8642 -2.0060 0.9827
0.2758 -3.8568 -2.0059 0.9827
0.4133 -3.8444 -2.0059 0.9827
0.5503 -3.8272 -2.0059 0.9827
0.6865 -3.8050 -2.0058 0.9827
0.8218 -3.7780 -2.0058 0.9827
1.2209 -3.6681 -2.0056 0.9827
1.7302 -3.4565 -2.0053 0.9827
1.8524 -3.3924 -2.0052 0.9827
1.9722 -3.3240 -2.0051 0.9827
2.2041 -3.1745 -2.0049 0.9827
2.3159 -3.0937 -2.0048 0.9827
2.4247 -3.0089 -2.0047 0.9827
2.6329 -2.8279 -2.0045 0.9827
2.9196 -2.5298 -2.0041 0.9827
3.0078 -2.4239 -2.0040 0.9827
3.1727 -2.2028 -2.0037 0.9827
3.3213 -1.9706 -2.0035 0.9827
3.3893 -1.8507 -2.0033 0.9827
3.5669 -1.4775 -2.0029 0.9828
3.6627 -1.2191 -2.0026 0.9828
3.7036 -1.0875 -2.0025 0.9828
3.7398 -0.9545 -2.0023 0.9828
3.8196 -0.5492 -2.0019 0.9828
3.8364 -0.4125 -2.0017 0.9828
3.8484 -0.2753 -2.0016 0.9828
-1.0269 0.0000 -0.5625 0.9953
-1.0276 -0.0367 -0.5632 0.9953
-1.0265 -0.0734 -0.5637 0.9953
-1.0124 -0.1826 -0.5634 0.9953
-1.0039 -0.2184 -0.5627 0.9953
-0.9677 -0.4008 -0.5737 0.9952
-0.9580 -0.4375 -0.5768 0.9952
-0.9269 -0.5061 -0.5784 0.9952
-0.8882 -0.5708 -0.5782 0.9952
-0.8661 -0.6014 -0.5775 0.9952
-2.8501 -2.2967 -2.0048 0.9834
-2.7664 -2.3971 -2.0049 0.9834
-2.2973 -2.8508 -2.0053 0.9834
-2.1942 -2.9311 -2.0053 0.9834
-1.9796 -3.0803 -2.0055 0.9834
-1.7549 -3.2139 -2.0056 0.9834
-1.6391 -3.2745 -2.0056 0.9834
-1.5212 -3.3310 -2.0057 0.9834
-1.4014 -3.3833 -2.0057 0.9834
-1.0317 -3.5138 -2.0058 0.9834
-0.9057 -3.5484 -2.0058 0.9834
-0.2613 -3.6529 -2.0058 0.9834
-0.1307 -3.6599 -2.0058 0.9834
0.0000 -3.6622 -2.0058 0.9834
0.3914 -3.6410 -2.0057 0.9834
0.5211 -3.6247 -2.0057 0.9834
0.6502 -3.6037 -2.0056 0.9834
0.7784 -3.5781 -2.0056 0.9834
1.0316 -3.5133 -2.0055 0.9834
1.1563 -3.4741 -2.0054 0.9834
1.2795 -3.4305 -2.0053 0.9834
1.5209 -3.3303 -2.0052 0.9834
1.6387 -3.2737 -2.0051 0.9834
1.8679 -3.1482 -2.0049 0.9834
1.9790 -3.0794 -2.0049 0.9834
2.2965 -2.8498 -2.0046 0.9834
2.4937 -2.6784 -2.0043 0.9834
2.6781 -2.4934 -2.0041 0.9835
2.7652 -2.3961 -2.0040 0.9835
2.8488 -2.2957 -2.0039 0.9835
3.0773 -1.9777 -2.0035 0.9835
3.2102 -1.7529 -2.0033 0.9835
3.2705 -1.6371 -2.0031 0.9835
3.3785 -1.3994 -2.0029 0.9835
3.4260 -1.2778 -2.0027 0.9835
3.4692 -1.1547 -2.0026 0.9835
3.5423 -0.9041 -2.0023 0.9835
3.5720 -0.7770 -2.0022 0.9835
3.6339 -0.3907 -2.0017 0.9835
3.6452 -0.2607 -2.0016 0.9835
-0.9570 0.0000 -0.5525 0.9956
-0.9575 -0.0342 -0.5532 0.9956
-0.9538 -0.1025 -0.5538 0.9956
-0.9430 -0.1701 -0.5532 0.9956
-0.9353 -0.2034 -0.5526 0.9956
-0.9259 -0.2363 -0.5517 0.9956
-0.9151 -0.2687 -0.5506 0.9956
-0.9057 -0.3015 -0.5511 0.9956
-0.9011 -0.3361 -0.5553 0.9956
-0.8941 -0.3703 -0.5587 0.9955
-0.8534 -0.4660 -0.5614 0.9955
-0.8364 -0.4963 -0.5615 0.9955
-0.8008 -0.5560 -0.5628 0.9955
-2.6242 -2.2738 -2.0047 0.9841
-2.4555 -2.4555 -2.0049 0.9841
-2.2742 -2.6246 -2.0050 0.9841
-2.1792 -2.7042 -2.0051 0.9841
-2.0813 -2.7803 -2.0052 0.9841
-1.8778 -2.9219 -2.0053 0.9841
-1.4430 -3.1597 -2.0055 0.9841
-1.3293 -3.2092 -2.0055 0.9841
-0.9787 -3.3331 -2.0056 0.9841
-0.8591 -3.3659 -2.0056 0.9841
-0.2478 -3.4650 -2.0056 0.9841
0.0000 -3.4738 -2.0056 0.9841
0.2478 -3.4648 -2.0055 0.9841
0.4943 -3.4382 -2.0055 0.9841
0.6167 -3.4183 -2.0054 0.9841
0.7383 -3.3940 -2.0054 0.9841
0.8590 -3.3654 -2.0053 0.9841
0.9785 -3.3326 -2.0053 0.9841
1.4427 -3.1590 -2.0050 0.9841
1.7719 -2.9863 -2.0048 0.9841
1.9802 -2.8521 -2.0046 0.9841
2.0806 -2.7794 -2.0045 0.9841
2.1784 -2.7033 -2.0044 0.9841
2.2734 -2.6237 -2.0043 0.9841
2.3655 -2.5407 -2.0042 0.9841
2.4545 -2.4545 -2.0041 0.9841
2.7024 -2.1777 -2.0038 0.9841
2.7782 -2.0798 -2.0037 0.9841
2.9841 -1.7706 -2.0033 0.9841
3.0452 -1.6628 -2.0032 0.9841
3.1024 -1.5530 -2.0031 0.9841
1.8620 -0.7713 -1.1636 0.9907
2.0300 -0.2919 -1.1841 0.9906
2.0359 -0.1456 -1.1784 0.9906
2.0320 -0.0726 -1.1739 0.9907
