ply
format ascii 1.0
element vertex 776
property float32 x
property float32 y
property float32 z
property float32 I
end_header
-9.2527 -3.0796 -0.4945 0.9617
-9.0363 -3.3704 -0.4891 0.9621
-8.9583 -3.7106 -0.4917 0.9619
-9.0040 -4.1120 -0.5020 0.9611
-8.8204 -2.9357 -0.6816 0.9634
-8.4558 -3.5025 -0.6711 0.9640
-8.4974 -4.2535 -0.6967 0.9626
-8.4752 -2.8208 -0.8575 0.9647
-8.2391 -3.0730 -0.8442 0.9653
-9.3320 -2.7401 -1.1553 0.9616
-7.3429 -3.3534 -0.9589 0.9680
-7.2801 -3.6442 -0.9671 0.9677
-7.2810 -3.9757 -0.9854 0.9671
-9.2506 -2.7162 -1.3661 0.9618
-7.1165 -2.9478 -1.0914 0.9694
-7.0188 -3.2054 -1.0933 0.9693
-6.9733 -3.4906 -1.1049 0.9690
-7.7486 -2.5790 -1.3453 0.9674
-6.8536 -3.4307 -1.2626 0.9694
-6.8257 -3.7271 -1.2812 0.9690
-6.8722 -4.0775 -1.3164 0.9681
-6.9502 -2.8789 -1.4140 0.9698
-6.8274 -3.7281 -1.4621 0.9688
-6.8689 -4.0755 -1.5012 0.9680
-9.4753 -0.0000 -2.0029 0.9620
-9.4695 -0.3382 -2.0029 0.9620
-9.4216 -1.0129 -2.0030 0.9620
-9.3257 -1.6825 -2.0031 0.9620
-9.1822 -2.3436 -2.0032 0.9620
-9.0929 -2.6699 -2.0032 0.9620
-7.7906 -2.5930 -1.7356 0.9670
-7.1573 -2.6695 -1.6147 0.9693
-6.9078 -4.0986 -1.6979 0.9677
-7.9731 -5.1240 -2.0034 0.9620
-7.7852 -5.4053 -2.0034 0.9620
-7.1628 -6.2066 -2.0034 0.9620
-6.9368 -6.4584 -2.0034 0.9620
-6.4583 -6.9368 -2.0034 0.9620
-6.2066 -7.1629 -2.0034 0.9620
-5.9470 -7.3798 -2.0034 0.9620
-5.6798 -7.5874 -2.0034 0.9620
-5.4054 -7.7852 -2.0034 0.9620
-4.8361 -8.1509 -2.0034 0.9620
-4.2423 -8.4750 -2.0033 0.9620
-3.9370 -8.6210 -2.0033 0.9620
-3.3119 -8.8796 -2.0033 0.9620
-2.9929 -8.9921 -2.0033 0.9620
-2.0144 -9.2601 -2.0032 0.9620
-1.6826 -9.3259 -2.0031 0.9620
-1.3486 -9.3799 -2.0031 0.9620
-0.6760 -9.4518 -2.0030 0.9620
0.0000 -9.4756 -2.0030 0.9620
0.3382 -9.4694 -2.0029 0.9620
0.6760 -9.4511 -2.0029 0.9620
1.0128 -9.4207 -2.0028 0.9620
1.3484 -9.3783 -2.0028 0.9620
1.6822 -9.3240 -2.0027 0.9620
2.0139 -9.2578 -2.0027 0.9620
2.3430 -9.1798 -2.0026 0.9620
2.6691 -9.0900 -2.0026 0.9620
2.9918 -8.9887 -2.0025 0.9620
3.3106 -8.8760 -2.0025 0.9620
3.6252 -8.7520 -2.0024 0.9620
3.9351 -8.6167 -2.0024 0.9620
4.2401 -8.4705 -2.0023 0.9620
4.8333 -8.1460 -2.0022 0.9620
5.1208 -7.9681 -2.0021 0.9620
5.4018 -7.7800 -2.0021 0.9620
5.6758 -7.5820 -2.0020 0.9620
5.9427 -7.3744 -2.0019 0.9620
6.2019 -7.1574 -2.0019 0.9620
6.4532 -6.9312 -2.0018 0.9620
6.6963 -6.6963 -2.0018 0.9620
6.9308 -6.4528 -2.0017 0.9620
7.3730 -5.9416 -2.0016 0.9620
7.5802 -5.6745 -2.0015 0.9620
7.7776 -5.4001 -2.0015 0.9620
7.9652 -5.1189 -2.0014 0.9620
8.1426 -4.8312 -2.0013 0.9620
8.3096 -4.5374 -2.0013 0.9620
8.4660 -4.2378 -2.0012 0.9620
8.6116 -3.9328 -2.0012 0.9620
8.7462 -3.6228 -2.0011 0.9620
8.8697 -3.3082 -2.0010 0.9620
9.0826 -2.6669 -2.0009 0.9620
9.1718 -2.3410 -2.0009 0.9620
9.3688 -1.3470 -2.0007 0.9620
9.4106 -1.0118 -2.0007 0.9620
9.4584 -0.3378 -2.0006 0.9620
-8.4733 -0.9110 -2.0029 0.9656
-8.4355 -1.2129 -2.0029 0.9656
-8.3870 -1.5132 -2.0030 0.9656
-8.2579 -2.1077 -2.0030 0.9656
-8.1775 -2.4012 -2.0030 0.9656
-7.7600 -2.5828 -1.9222 0.9670
-7.4948 -2.7954 -1.8800 0.9677
-7.6217 -3.8152 -2.0032 0.9656
-7.4807 -4.0848 -2.0032 0.9656
-7.3302 -4.3492 -2.0032 0.9656
-7.1704 -4.6081 -2.0032 0.9656
-6.6368 -5.3483 -2.0032 0.9656
-6.4417 -5.5818 -2.0032 0.9656
-6.2384 -5.8082 -2.0032 0.9656
-6.0271 -6.0271 -2.0033 0.9656
-5.1080 -6.8235 -2.0032 0.9656
-4.6082 -7.1704 -2.0032 0.9656
-4.3493 -7.3303 -2.0032 0.9656
-4.0848 -7.4808 -2.0032 0.9656
-3.2617 -7.8744 -2.0031 0.9656
-2.9785 -7.9857 -2.0031 0.9656
-2.4012 -8.1777 -2.0031 0.9656
-2.1077 -8.2581 -2.0031 0.9656
-1.8116 -8.3279 -2.0030 0.9656
-0.9110 -8.4735 -2.0029 0.9656
-0.6079 -8.5004 -2.0029 0.9656
0.0000 -8.5219 -2.0028 0.9656
0.6079 -8.4998 -2.0028 0.9656
0.9109 -8.4725 -2.0027 0.9656
1.8112 -8.3260 -2.0026 0.9656
2.9774 -7.9828 -2.0024 0.9656
3.5392 -7.7496 -2.0023 0.9656
4.0828 -7.4771 -2.0022 0.9656
4.8583 -6.9972 -2.0020 0.9656
6.2336 -5.8037 -2.0017 0.9656
6.4366 -5.5773 -2.0016 0.9656
6.6314 -5.3439 -2.0016 0.9656
6.8177 -5.1037 -2.0015 0.9656
7.3236 -4.3453 -2.0014 0.9656
7.4738 -4.0810 -2.0013 0.9656
7.6145 -3.8116 -2.0013 0.9656
7.7455 -3.5373 -2.0012 0.9656
7.8666 -3.2585 -2.0012 0.9656
8.0786 -2.6888 -2.0011 0.9656
8.3192 -1.8097 -2.0009 0.9656
8.3783 -1.5116 -2.0009 0.9656
8.4267 -1.2116 -2.0008 0.9656
8.4644 -0.9100 -2.0008 0.9656
8.5074 -0.3038 -2.0007 0.9656
-7.7348 0.0000 -2.0027 0.9685
-7.7300 -0.2761 -2.0027 0.9685
-7.7154 -0.5518 -2.0027 0.9685
-7.6909 -0.8269 -2.0028 0.9685
-7.6125 -1.3735 -2.0028 0.9685
-7.5588 -1.6443 -2.0029 0.9685
-7.4954 -1.9131 -2.0029 0.9685
-7.4224 -2.1794 -2.0029 0.9685
-7.3400 -2.4430 -2.0029 0.9685
-7.1471 -2.9604 -2.0030 0.9685
-7.0370 -3.2137 -2.0030 0.9685
-6.9179 -3.4628 -2.0030 0.9685
-6.5082 -4.1826 -2.0031 0.9685
-6.3548 -4.4122 -2.0031 0.9685
-6.1933 -4.6363 -2.0031 0.9685
-6.0239 -4.8544 -2.0031 0.9685
-5.4705 -5.4705 -2.0031 0.9685
-4.1826 -6.5083 -2.0031 0.9685
-3.7076 -6.7900 -2.0031 0.9685
-2.9605 -7.1472 -2.0030 0.9685
-1.9131 -7.4955 -2.0029 0.9685
-1.3735 -7.6127 -2.0029 0.9685
-0.8269 -7.6910 -2.0028 0.9685
-0.5518 -7.7155 -2.0028 0.9685
-0.2761 -7.7302 -2.0028 0.9685
0.5518 -7.7150 -2.0027 0.9685
0.8268 -7.6902 -2.0026 0.9685
1.1007 -7.6557 -2.0026 0.9685
1.3733 -7.6114 -2.0025 0.9685
1.6440 -7.5574 -2.0025 0.9685
1.9127 -7.4937 -2.0025 0.9685
2.4423 -7.3379 -2.0024 0.9686
2.7026 -7.2459 -2.0023 0.9686
2.9594 -7.1446 -2.0023 0.9686
3.7059 -6.7869 -2.0021 0.9686
3.9457 -6.6501 -2.0021 0.9686
4.1804 -6.5049 -2.0020 0.9686
4.6336 -6.1898 -2.0020 0.9686
5.0631 -5.8432 -2.0019 0.9686
5.4668 -5.4668 -2.0018 0.9686
6.0194 -4.8508 -2.0016 0.9686
6.1886 -4.6327 -2.0016 0.9686
6.3498 -4.4088 -2.0015 0.9686
6.5030 -4.1792 -2.0015 0.9686
6.6478 -3.9443 -2.0014 0.9686
6.7842 -3.7045 -2.0014 0.9686
6.9119 -3.4599 -2.0013 0.9686
7.0309 -3.2109 -2.0013 0.9686
7.1408 -2.9578 -2.0012 0.9686
7.2417 -2.7010 -2.0012 0.9686
7.3333 -2.4408 -2.0011 0.9686
7.4884 -1.9113 -2.0010 0.9686
7.5517 -1.6428 -2.0010 0.9686
7.7080 -0.5513 -2.0008 0.9686
7.7226 -0.2758 -2.0008 0.9686
-7.0740 -0.0000 -2.0026 0.9710
-6.9621 -1.2561 -2.0027 0.9710
-6.9129 -1.5038 -2.0028 0.9710
-6.8549 -1.7496 -2.0028 0.9710
-6.7128 -2.2343 -2.0028 0.9710
-6.6289 -2.4724 -2.0029 0.9710
-6.4357 -2.9391 -2.0029 0.9710
-6.3268 -3.1670 -2.0029 0.9710
-6.2097 -3.3908 -2.0029 0.9710
-6.0848 -3.6103 -2.0029 0.9710
-5.8118 -4.0352 -2.0030 0.9710
-5.5092 -4.4396 -2.0030 0.9710
-5.1784 -4.8213 -2.0030 0.9710
-4.6334 -5.3472 -2.0030 0.9710
-4.2401 -5.6641 -2.0030 0.9710
-4.0352 -5.8118 -2.0030 0.9710
-3.8252 -5.9521 -2.0030 0.9710
-3.1670 -6.3268 -2.0029 0.9710
-2.9391 -6.4358 -2.0029 0.9710
-1.5038 -6.9130 -2.0028 0.9710
-0.7562 -7.0339 -2.0027 0.9710
-0.5047 -7.0563 -2.0027 0.9710
-0.2525 -7.0697 -2.0027 0.9710
0.7562 -7.0333 -2.0025 0.9710
1.0067 -7.0017 -2.0025 0.9710
1.2559 -6.9612 -2.0025 0.9710
1.5036 -6.9118 -2.0024 0.9710
1.9927 -6.7866 -2.0024 0.9710
2.7066 -6.5343 -2.0022 0.9710
2.9381 -6.4334 -2.0022 0.9710
3.3894 -6.2072 -2.0021 0.9710
3.6087 -6.0821 -2.0021 0.9710
3.8234 -5.9493 -2.0020 0.9710
4.0332 -5.8089 -2.0020 0.9710
4.4371 -5.5062 -2.0019 0.9710
4.6307 -5.3442 -2.0018 0.9710
4.8184 -5.1754 -2.0018 0.9710
5.0000 -5.0000 -2.0017 0.9710
5.1751 -4.8182 -2.0017 0.9710
5.3437 -4.6303 -2.0017 0.9710
5.5054 -4.4365 -2.0016 0.9710
6.0802 -3.6075 -2.0014 0.9710
6.3218 -3.1645 -2.0013 0.9710
6.5312 -2.7053 -2.0013 0.9710
6.6234 -2.4704 -2.0012 0.9710
6.7072 -2.2324 -2.0012 0.9710
6.7825 -1.9915 -2.0011 0.9710
6.8491 -1.7481 -2.0011 0.9710
6.9070 -1.5025 -2.0011 0.9710
6.9561 -1.2550 -2.0010 0.9710
6.9963 -1.0059 -2.0010 0.9710
7.0277 -0.7556 -2.0009 0.9710
7.0500 -0.5042 -2.0009 0.9710
-6.4942 -0.4645 -2.0026 0.9731
-6.4447 -0.9266 -2.0026 0.9731
-6.4076 -1.1561 -2.0027 0.9731
-6.3090 -1.6103 -2.0027 0.9731
-6.2475 -1.8345 -2.0027 0.9731
-5.7151 -3.1207 -2.0028 0.9731
-5.4780 -3.5205 -2.0029 0.9731
-5.2129 -3.9024 -2.0029 0.9731
-4.9213 -4.2643 -2.0029 0.9731
-4.7660 -4.4373 -2.0029 0.9731
-4.6045 -4.6046 -2.0029 0.9731
-4.4373 -4.7660 -2.0029 0.9731
-4.2643 -4.9213 -2.0029 0.9731
-4.0859 -5.0704 -2.0029 0.9731
-3.9024 -5.2130 -2.0029 0.9731
-3.3227 -5.6002 -2.0029 0.9731
-3.1207 -5.7152 -2.0029 0.9731
-2.9147 -5.8229 -2.0028 0.9731
-2.7050 -5.9232 -2.0028 0.9731
-2.2755 -6.1009 -2.0028 0.9731
-2.0563 -6.1782 -2.0028 0.9731
-1.1561 -6.4077 -2.0027 0.9731
-0.9266 -6.4448 -2.0027 0.9731
-0.6960 -6.4737 -2.0026 0.9731
-0.4645 -6.4943 -2.0026 0.9731
0.2324 -6.5065 -2.0025 0.9731
0.6959 -6.4732 -2.0025 0.9731
0.9265 -6.4441 -2.0024 0.9731
1.3838 -6.3614 -2.0024 0.9731
1.8340 -6.2462 -2.0023 0.9731
2.2749 -6.0992 -2.0022 0.9731
2.7041 -5.9212 -2.0022 0.9731
2.9137 -5.8208 -2.0021 0.9731
3.1195 -5.7130 -2.0021 0.9731
3.3214 -5.5978 -2.0020 0.9731
3.5190 -5.4756 -2.0020 0.9731
4.0839 -5.0678 -2.0019 0.9731
4.4348 -4.7633 -2.0018 0.9731
4.6019 -4.6019 -2.0017 0.9731
4.7631 -4.4346 -2.0017 0.9731
5.5962 -3.3204 -2.0015 0.9731
6.0113 -2.4900 -2.0013 0.9731
6.0963 -2.2738 -2.0013 0.9731
6.4890 -0.4641 -2.0010 0.9731
6.5013 -0.2322 -2.0009 0.9731
-6.0242 -0.0000 -2.0025 0.9749
-6.0204 -0.2150 -2.0025 0.9749
-5.9899 -0.6440 -2.0025 0.9749
-5.9632 -0.8574 -2.0026 0.9749
-5.8869 -1.2806 -2.0026 0.9749
-5.8375 -1.4900 -2.0026 0.9749
-5.7807 -1.6974 -2.0027 0.9749
-5.6450 -2.1055 -2.0027 0.9749
-5.4805 -2.5029 -2.0027 0.9749
-5.2880 -2.8875 -2.0028 0.9749
-5.0686 -3.2574 -2.0028 0.9749
-4.9492 -3.4363 -2.0028 0.9749
-4.8234 -3.6108 -2.0028 0.9749
-4.6914 -3.7806 -2.0028 0.9749
-4.5535 -3.9457 -2.0028 0.9749
-4.4098 -4.1057 -2.0028 0.9749
-4.2604 -4.2605 -2.0028 0.9749
-3.9456 -4.5535 -2.0028 0.9749
-3.7806 -4.6915 -2.0028 0.9749
-3.6107 -4.8234 -2.0028 0.9749
-3.0744 -5.1817 -2.0028 0.9749
-2.8875 -5.2881 -2.0028 0.9749
-2.5029 -5.4805 -2.0027 0.9749
-2.3056 -5.5663 -2.0027 0.9749
-1.9026 -5.7166 -2.0027 0.9749
-1.4900 -5.8376 -2.0027 0.9749
-1.2806 -5.8870 -2.0026 0.9749
-1.0697 -5.9289 -2.0026 0.9749
-0.8574 -5.9633 -2.0026 0.9749
-0.6440 -5.9900 -2.0026 0.9749
-0.2150 -6.0205 -2.0025 0.9749
0.2150 -6.0204 -2.0025 0.9749
0.8573 -5.9626 -2.0024 0.9749
1.2804 -5.8861 -2.0023 0.9749
1.4897 -5.8365 -2.0023 0.9749
1.9022 -5.7152 -2.0022 0.9749
2.1049 -5.6436 -2.0022 0.9749
2.5021 -5.4788 -2.0021 0.9749
2.6960 -5.3859 -2.0021 0.9749
3.0733 -5.1797 -2.0020 0.9749
3.2561 -5.0666 -2.0020 0.9749
3.4348 -4.9471 -2.0019 0.9749
3.6091 -4.8212 -2.0019 0.9749
3.9437 -4.5513 -2.0018 0.9749
4.2582 -4.2582 -2.0017 0.9749
4.5510 -3.9434 -2.0017 0.9749
4.6887 -3.7784 -2.0016 0.9749
4.8205 -3.6086 -2.0016 0.9749
5.1783 -3.0724 -2.0015 0.9749
5.5625 -2.3040 -2.0013 0.9749
5.6410 -2.1040 -2.0013 0.9749
5.7124 -1.9013 -2.0013 0.9749
5.7766 -1.6962 -2.0012 0.9749
5.8333 -1.4889 -2.0012 0.9749
5.8826 -1.2797 -2.0012 0.9749
5.9245 -1.0689 -2.0011 0.9749
5.9588 -0.8567 -2.0011 0.9749
6.0045 -0.4295 -2.0010 0.9749
-5.5995 -0.0000 -2.0024 0.9765
-5.5676 -0.5986 -2.0025 0.9765
-5.4719 -1.1903 -2.0026 0.9765
-5.4260 -1.3849 -2.0026 0.9765
-5.3134 -1.7685 -2.0026 0.9765
-5.1738 -2.1431 -2.0026 0.9765
-5.0941 -2.3264 -2.0027 0.9765
-4.8163 -2.8577 -2.0027 0.9765
-4.6002 -3.1940 -2.0027 0.9765
-4.3606 -3.5141 -2.0027 0.9765
-4.2325 -3.6675 -2.0027 0.9765
-4.0989 -3.8162 -2.0027 0.9765
-3.9601 -3.9601 -2.0027 0.9765
-3.8162 -4.0989 -2.0027 0.9765
-3.5140 -4.3607 -2.0027 0.9765
-3.3562 -4.4833 -2.0027 0.9765
-3.1940 -4.6002 -2.0027 0.9765
-3.0277 -4.7113 -2.0027 0.9765
-1.9570 -5.2471 -2.0026 0.9765
-1.7685 -5.3135 -2.0026 0.9765
-1.5777 -5.3732 -2.0026 0.9765
-0.9943 -5.5109 -2.0026 0.9765
-0.5986 -5.5677 -2.0025 0.9765
-0.3995 -5.5854 -2.0025 0.9765
0.5985 -5.5673 -2.0024 0.9765
0.7969 -5.5423 -2.0023 0.9765
1.1902 -5.4712 -2.0023 0.9765
1.7681 -5.3123 -2.0022 0.9765
2.3257 -5.0927 -2.0021 0.9765
3.5125 -4.3588 -2.0019 0.9765
3.6658 -4.2305 -2.0018 0.9765
3.8144 -4.0969 -2.0018 0.9765
4.2302 -3.6655 -2.0017 0.9765
4.3583 -3.5121 -2.0016 0.9765
4.5976 -3.1922 -2.0016 0.9765
4.8134 -2.8559 -2.0015 0.9765
5.0909 -2.3249 -2.0014 0.9765
5.1705 -2.1417 -2.0014 0.9765
5.3696 -1.5767 -2.0013 0.9765
5.4223 -1.3840 -2.0012 0.9765
5.5071 -0.9936 -2.0012 0.9765
5.5389 -0.7964 -2.0011 0.9765
-5.2219 -0.1865 -2.0024 0.9779
-5.2119 -0.3728 -2.0024 0.9779
-5.1954 -0.5586 -2.0024 0.9779
-5.1722 -0.7437 -2.0025 0.9779
-5.1060 -1.1108 -2.0025 0.9779
-5.0139 -1.4722 -2.0025 0.9779
-4.8962 -1.8262 -2.0026 0.9779
-4.8279 -1.9998 -2.0026 0.9779
-4.6730 -2.3391 -2.0026 0.9779
-4.3962 -2.8253 -2.0026 0.9779
-4.2926 -2.9804 -2.0026 0.9779
-4.1835 -3.1318 -2.0026 0.9779
-3.9495 -3.4222 -2.0027 0.9779
-3.5610 -3.8248 -2.0027 0.9779
-3.4222 -3.9495 -2.0027 0.9779
-2.5045 -4.5866 -2.0026 0.9779
-1.4722 -5.0140 -2.0026 0.9779
-1.2923 -5.0633 -2.0025 0.9779
-0.7437 -5.1722 -2.0025 0.9779
-0.5586 -5.1955 -2.0025 0.9779
-0.3728 -5.2120 -2.0024 0.9779
-0.1865 -5.2220 -2.0024 0.9779
0.3728 -5.2118 -2.0024 0.9779
0.5585 -5.1951 -2.0023 0.9779
0.9277 -5.1419 -2.0023 0.9779
1.2921 -5.0625 -2.0022 0.9779
1.4720 -5.0130 -2.0022 0.9779
1.6499 -4.9572 -2.0022 0.9779
1.8258 -4.8951 -2.0021 0.9779
2.1703 -4.7522 -2.0021 0.9779
2.6657 -4.4928 -2.0020 0.9779
2.8243 -4.3947 -2.0019 0.9779
3.1305 -4.1819 -2.0019 0.9779
3.2778 -4.0674 -2.0018 0.9779
3.4208 -3.9478 -2.0018 0.9779
3.5594 -3.8231 -2.0018 0.9779
3.8230 -3.5593 -2.0017 0.9779
3.9475 -3.4206 -2.0017 0.9779
4.0670 -3.2774 -2.0016 0.9779
4.1814 -3.1301 -2.0016 0.9779
4.2903 -2.9788 -2.0016 0.9779
4.3939 -2.8238 -2.0015 0.9779
4.4918 -2.6651 -2.0015 0.9779
4.6703 -2.3378 -2.0014 0.9779
4.7507 -2.1696 -2.0014 0.9779
4.9552 -1.6492 -2.0013 0.9779
5.0108 -1.4713 -2.0013 0.9779
5.1028 -1.1100 -2.0012 0.9779
5.1689 -0.7432 -2.0012 0.9779
5.1920 -0.5582 -2.0011 0.9779
5.2185 -0.1864 -2.0011 0.9779
-1.8977 -0.0000 -0.7767 0.9918
-1.9308 -0.0690 -0.7907 0.9917
-1.9524 -0.1396 -0.8011 0.9916
-1.9449 -0.2796 -0.8042 0.9915
-2.1703 -0.3916 -0.9026 0.9905
-4.7809 -1.0400 -2.0024 0.9791
-4.7407 -1.2100 -2.0025 0.9791
-4.6424 -1.5452 -2.0025 0.9791
-4.5204 -1.8724 -2.0025 0.9791
-4.4507 -2.0326 -2.0025 0.9791
-4.2944 -2.3450 -2.0026 0.9791
-4.2080 -2.4967 -2.0026 0.9791
-4.1162 -2.6454 -2.0026 0.9791
-3.3342 -3.5812 -2.0026 0.9791
-2.9323 -3.9171 -2.0026 0.9791
-2.7906 -4.0192 -2.0026 0.9791
-2.4967 -4.2080 -2.0026 0.9791
-2.1902 -4.3754 -2.0026 0.9791
-1.8724 -4.5205 -2.0025 0.9791
-1.5452 -4.6425 -2.0025 0.9791
-1.2100 -4.7408 -2.0025 0.9791
-1.0400 -4.7809 -2.0025 0.9791
-0.8687 -4.8149 -2.0025 0.9791
-0.6963 -4.8428 -2.0024 0.9791
-0.5230 -4.8646 -2.0024 0.9791
-0.3490 -4.8801 -2.0024 0.9791
-0.1746 -4.8894 -2.0024 0.9791
0.8686 -4.8144 -2.0022 0.9791
1.0399 -4.7803 -2.0022 0.9791
1.2098 -4.7401 -2.0022 0.9791
1.5449 -4.6416 -2.0021 0.9791
1.8720 -4.5194 -2.0021 0.9791
2.0321 -4.4496 -2.0020 0.9791
2.9312 -3.9157 -2.0019 0.9791
3.2030 -3.6965 -2.0018 0.9791
3.4584 -3.4584 -2.0017 0.9791
3.5796 -3.3327 -2.0017 0.9791
3.9152 -2.9309 -2.0016 0.9791
4.6397 -1.5442 -2.0013 0.9791
4.7380 -1.2093 -2.0013 0.9791
4.7780 -1.0394 -2.0013 0.9791
4.8120 -0.8682 -2.0012 0.9791
4.8399 -0.6959 -2.0012 0.9791
4.8864 -0.1745 -2.0011 0.9791
-1.5221 0.0000 -0.6634 0.9934
-1.5293 -0.1094 -0.6682 0.9933
-1.5001 -0.2707 -0.6643 0.9934
-1.5875 -0.5284 -0.7292 0.9927
-4.2450 -1.7584 -2.0025 0.9802
-4.1796 -1.9088 -2.0025 0.9802
-4.1088 -2.0567 -2.0025 0.9802
-4.0328 -2.2021 -2.0025 0.9802
-3.9516 -2.3446 -2.0025 0.9802
-3.7743 -2.6206 -2.0025 0.9802
-3.5778 -2.8832 -2.0025 0.9802
-3.3630 -3.1311 -2.0025 0.9802
-3.2491 -3.2491 -2.0025 0.9802
-3.0090 -3.4726 -2.0025 0.9802
-2.4842 -3.8655 -2.0025 0.9802
-2.3446 -3.9517 -2.0025 0.9802
-1.4510 -4.3596 -2.0025 0.9802
-1.2945 -4.4086 -2.0025 0.9802
-0.9767 -4.4896 -2.0024 0.9802
-0.8158 -4.5216 -2.0024 0.9802
-0.6539 -4.5478 -2.0024 0.9802
-0.1640 -4.5915 -2.0023 0.9802
0.0000 -4.5944 -2.0023 0.9802
0.1640 -4.5914 -2.0023 0.9802
0.4911 -4.5679 -2.0023 0.9802
0.6538 -4.5474 -2.0022 0.9802
0.8157 -4.5212 -2.0022 0.9802
0.9766 -4.4891 -2.0022 0.9802
1.2943 -4.4079 -2.0021 0.9802
1.9083 -4.1786 -2.0020 0.9802
2.0562 -4.1078 -2.0020 0.9802
2.4834 -3.8643 -2.0019 0.9802
2.6197 -3.7731 -2.0019 0.9802
2.8821 -3.5765 -2.0018 0.9802
3.0079 -3.4713 -2.0018 0.9802
3.3616 -3.1298 -2.0017 0.9802
3.4711 -3.0077 -2.0017 0.9802
3.5762 -2.8819 -2.0017 0.9802
3.6767 -2.7524 -2.0016 0.9802
3.7726 -2.6193 -2.0016 0.9802
3.8636 -2.4830 -2.0016 0.9802
4.1067 -2.0557 -2.0015 0.9802
4.3027 -1.6048 -2.0014 0.9802
4.4495 -1.1357 -2.0013 0.9802
4.4871 -0.9761 -2.0013 0.9802
4.5190 -0.8153 -2.0013 0.9802
4.5452 -0.6535 -2.0012 0.9802
4.5656 -0.4908 -2.0012 0.9802
4.5801 -0.3276 -2.0012 0.9802
-1.3376 -0.0478 -0.6195 0.9941
-1.3351 -0.1435 -0.6215 0.9941
-1.3160 -0.2374 -0.6190 0.9941
-1.3013 -0.2831 -0.6164 0.9941
-1.3116 -0.3348 -0.6266 0.9941
-1.3241 -0.3888 -0.6388 0.9939
-1.3324 -0.4435 -0.6500 0.9938
-3.7969 -2.0733 -2.0025 0.9811
-3.7205 -2.2075 -2.0025 0.9811
-3.6393 -2.3389 -2.0025 0.9811
-3.3685 -2.7145 -2.0025 0.9811
-3.2695 -2.8330 -2.0025 0.9811
-3.1663 -2.9479 -2.0025 0.9811
-2.9479 -3.1663 -2.0025 0.9811
-2.8330 -3.2695 -2.0025 0.9811
-2.4673 -3.5536 -2.0025 0.9811
-2.3389 -3.6393 -2.0025 0.9811
-1.7971 -3.9351 -2.0025 0.9811
-1.6555 -3.9967 -2.0024 0.9811
-1.5118 -4.0532 -2.0024 0.9811
-1.3661 -4.1046 -2.0024 0.9811
-1.0698 -4.1915 -2.0024 0.9811
-0.9195 -4.2270 -2.0024 0.9811
-0.7681 -4.2571 -2.0024 0.9811
-0.6156 -4.2818 -2.0024 0.9811
-0.4624 -4.3010 -2.0023 0.9811
-0.3086 -4.3147 -2.0023 0.9811
-0.1544 -4.3229 -2.0023 0.9811
0.0000 -4.3257 -2.0023 0.9811
0.3086 -4.3146 -2.0022 0.9811
0.6156 -4.2814 -2.0022 0.9811
0.9194 -4.2265 -2.0022 0.9811
1.0697 -4.1910 -2.0021 0.9811
1.2186 -4.1501 -2.0021 0.9811
1.6552 -3.9959 -2.0020 0.9811
1.7967 -3.9342 -2.0020 0.9811
1.9360 -3.8675 -2.0020 0.9811
2.0727 -3.7959 -2.0020 0.9811
2.2069 -3.7195 -2.0019 0.9811
2.3382 -3.6383 -2.0019 0.9811
2.5917 -3.4621 -2.0018 0.9811
2.8320 -3.2683 -2.0018 0.9811
3.1650 -2.9467 -2.0017 0.9811
3.2681 -2.8318 -2.0017 0.9811
3.3671 -2.7134 -2.0017 0.9811
3.4617 -2.5914 -2.0016 0.9811
3.5520 -2.4662 -2.0016 0.9811
3.6377 -2.3378 -2.0016 0.9811
3.9332 -1.7962 -2.0015 0.9811
3.9947 -1.6547 -2.0014 0.9811
4.1485 -1.2181 -2.0014 0.9811
4.1893 -1.0693 -2.0013 0.9811
4.2248 -0.9191 -2.0013 0.9811
4.2548 -0.7677 -2.0013 0.9811
4.2987 -0.4622 -2.0012 0.9811
4.3124 -0.3084 -2.0012 0.9811
4.3206 -0.1543 -2.0012 0.9811
-1.1954 -0.0000 -0.5864 0.9947
-1.1953 -0.0855 -0.5878 0.9947
-1.1867 -0.1706 -0.5881 0.9947
-1.1590 -0.3403 -0.5925 0.9946
-1.1578 -0.3854 -0.5986 0.9946
-1.1543 -0.4306 -0.6043 0.9945
-1.1484 -0.4757 -0.6097 0.9945
-3.5108 -2.0831 -2.0024 0.9820
-3.0852 -2.6733 -2.0025 0.9820
-2.9878 -2.7817 -2.0025 0.9820
-2.6733 -3.0852 -2.0025 0.9820
-2.5615 -3.1786 -2.0025 0.9820
-2.3282 -3.3533 -2.0024 0.9820
-2.0830 -3.5108 -2.0024 0.9820
-1.6958 -3.7133 -2.0024 0.9820
-1.5622 -3.7714 -2.0024 0.9820
-1.2891 -3.8732 -2.0024 0.9820
-1.0095 -3.9553 -2.0024 0.9820
-0.8677 -3.9888 -2.0023 0.9820
-0.7248 -4.0172 -2.0023 0.9820
-0.4363 -4.0586 -2.0023 0.9820
-0.2912 -4.0715 -2.0023 0.9820
0.0000 -4.0819 -2.0023 0.9820
0.2912 -4.0714 -2.0022 0.9820
0.4363 -4.0584 -2.0022 0.9820
0.5809 -4.0402 -2.0022 0.9820
1.0094 -3.9548 -2.0021 0.9820
1.1499 -3.9162 -2.0021 0.9820
1.2889 -3.8726 -2.0021 0.9820
1.5619 -3.7707 -2.0020 0.9820
1.8269 -3.6496 -2.0020 0.9820
2.0825 -3.5099 -2.0019 0.9820
2.3275 -3.3523 -2.0019 0.9820
2.4457 -3.2671 -2.0018 0.9820
2.6724 -3.0842 -2.0018 0.9820
2.9867 -2.7807 -2.0017 0.9820
3.0840 -2.6723 -2.0017 0.9820
3.2667 -2.4454 -2.0016 0.9820
3.4327 -2.2061 -2.0016 0.9820
3.5092 -2.0821 -2.0016 0.9820
3.6488 -1.8264 -2.0015 0.9820
3.8229 -1.4259 -2.0014 0.9820
3.8713 -1.2885 -2.0014 0.9820
3.9533 -1.0090 -2.0014 0.9820
4.0151 -0.7244 -2.0013 0.9820
4.0384 -0.5806 -2.0013 0.9820
4.0565 -0.4361 -2.0013 0.9820
-1.1058 -0.0000 -0.5737 0.9950
-1.1024 -0.1185 -0.5752 0.9950
-1.0905 -0.1968 -0.5749 0.9950
-1.0704 -0.2732 -0.5731 0.9950
-1.0617 -0.3534 -0.5805 0.9950
-1.0576 -0.3945 -0.5856 0.9949
-1.0514 -0.4355 -0.5904 0.9949
-0.9917 -0.5884 -0.5982 0.9948
-3.2471 -2.0868 -2.0024 0.9828
-3.1705 -2.2013 -2.0024 0.9828
-3.0054 -2.4219 -2.0024 0.9828
-2.9171 -2.5277 -2.0024 0.9828
-2.8250 -2.6302 -2.0024 0.9828
-2.7293 -2.7293 -2.0024 0.9828
-2.5277 -2.9171 -2.0024 0.9828
-2.2013 -3.1705 -2.0024 0.9828
-2.0868 -3.2471 -2.0024 0.9828
-1.8498 -3.3877 -2.0024 0.9828
-1.6034 -3.5110 -2.0024 0.9828
-1.4771 -3.5660 -2.0024 0.9828
-1.3488 -3.6164 -2.0024 0.9828
-1.2189 -3.6622 -2.0023 0.9828
-0.8204 -3.7715 -2.0023 0.9828
-0.2753 -3.8497 -2.0023 0.9828
-0.1377 -3.8571 -2.0022 0.9828
0.2753 -3.8496 -2.0022 0.9828
0.4126 -3.8373 -2.0022 0.9828
0.5492 -3.8201 -2.0021 0.9828
1.0873 -3.7029 -2.0021 0.9828
1.2187 -3.6617 -2.0020 0.9828
1.7273 -3.4508 -2.0020 0.9828
1.9691 -3.3187 -2.0019 0.9828
2.0862 -3.2463 -2.0019 0.9828
2.4212 -3.0046 -2.0018 0.9828
2.6293 -2.8241 -2.0018 0.9828
3.0888 -2.3122 -2.0016 0.9828
3.2458 -2.0859 -2.0016 0.9828
3.3862 -1.8490 -2.0015 0.9828
3.5644 -1.4764 -2.0015 0.9828
3.6147 -1.3482 -2.0014 0.9828
3.7965 -0.6850 -2.0013 0.9828
3.8478 -0.2752 -2.0013 0.9828
3.8552 -0.1377 -2.0013 0.9828
-1.0269 0.0000 -0.5625 0.9953
-1.0265 -0.0734 -0.5637 0.9953
-1.0039 -0.2184 -0.5627 0.9953
-0.9938 -0.2537 -0.5618 0.9953
-0.9820 -0.2883 -0.5606 0.9953
-0.9741 -0.3633 -0.5694 0.9953
-0.9677 -0.4009 -0.5737 0.9952
-0.9580 -0.4375 -0.5768 0.9952
-0.9269 -0.5061 -0.5784 0.9952
-0.9084 -0.5390 -0.5785 0.9952
-0.8881 -0.5708 -0.5782 0.9952
-2.5851 -2.5851 -2.0024 0.9835
-2.3941 -2.7630 -2.0024 0.9835
-2.2940 -2.8467 -2.0024 0.9835
-2.1909 -2.9267 -2.0024 0.9835
-2.0851 -3.0031 -2.0024 0.9835
-1.9765 -3.0756 -2.0024 0.9835
-1.8655 -3.1442 -2.0024 0.9835
-1.5187 -3.3255 -2.0023 0.9835
-1.2776 -3.4254 -2.0023 0.9835
-1.1545 -3.4688 -2.0023 0.9835
-0.9041 -3.5422 -2.0023 0.9835
-0.5203 -3.6185 -2.0023 0.9835
-0.3908 -3.6348 -2.0022 0.9835
0.1305 -3.6533 -2.0022 0.9835
0.7770 -3.5719 -2.0021 0.9835
1.2774 -3.4248 -2.0020 0.9835
1.3988 -3.3770 -2.0020 0.9835
1.6361 -3.2685 -2.0019 0.9835
1.7517 -3.2080 -2.0019 0.9835
2.1903 -2.9259 -2.0018 0.9835
2.2933 -2.8459 -2.0018 0.9835
2.3934 -2.7622 -2.0018 0.9835
2.4905 -2.6750 -2.0018 0.9835
2.6749 -2.4904 -2.0017 0.9835
2.7620 -2.3933 -2.0017 0.9835
2.9257 -2.1901 -2.0016 0.9835
3.2074 -1.7514 -2.0015 0.9835
3.2679 -1.6358 -2.0015 0.9835
3.3762 -1.3985 -2.0015 0.9835
3.4239 -1.2770 -2.0015 0.9835
3.5062 -1.0295 -2.0014 0.9835
3.5407 -0.9037 -2.0014 0.9835
3.5960 -0.6488 -2.0014 0.9835
3.6169 -0.5200 -2.0013 0.9835
3.6447 -0.2607 -2.0013 0.9835
-0.9570 0.0000 -0.5525 0.9956
-0.9575 -0.0342 -0.5532 0.9956
-0.9057 -0.3015 -0.5511 0.9956
-0.9011 -0.3361 -0.5553 0.9956
-0.8823 -0.4029 -0.5600 0.9955
-0.8534 -0.4660 -0.5614 0.9955
-0.8364 -0.4963 -0.5615 0.9955
-0.8008 -0.5560 -0.5628 0.9955
-0.7846 -0.5873 -0.5658 0.9955
-2.5383 -2.3633 -2.0023 0.9841
-2.3633 -2.5383 -2.0023 0.9841
-2.2712 -2.6211 -2.0023 0.9841
-2.1762 -2.7005 -2.0023 0.9841
-1.6621 -3.0439 -2.0023 0.9841
-1.5524 -3.1013 -2.0023 0.9841
-1.3272 -3.2041 -2.0023 0.9841
-0.8577 -3.3603 -2.0023 0.9841
-0.7372 -3.3887 -2.0023 0.9841
-0.3707 -3.4481 -2.0022 0.9841
-0.2474 -3.4591 -2.0022 0.9841
-0.1238 -3.4657 -2.0022 0.9841
0.0000 -3.4679 -2.0022 0.9841
0.1238 -3.4656 -2.0022 0.9841
0.2474 -3.4590 -2.0021 0.9841
0.6157 -3.4126 -2.0021 0.9841
0.7371 -3.3884 -2.0021 0.9841
0.8576 -3.3599 -2.0021 0.9841
0.9769 -3.3272 -2.0020 0.9841
1.0951 -3.2901 -2.0020 0.9841
1.2118 -3.2489 -2.0020 0.9841
1.4404 -3.1541 -2.0020 0.9841
1.5521 -3.1007 -2.0019 0.9841
1.7693 -2.9820 -2.0019 0.9841
1.9775 -2.8481 -2.0018 0.9841
2.1756 -2.6997 -2.0018 0.9841
2.4516 -2.4516 -2.0017 0.9841
2.5375 -2.3625 -2.0017 0.9841
2.6995 -2.1754 -2.0017 0.9841
2.7754 -2.0777 -2.0016 0.9841
2.8478 -1.9773 -2.0016 0.9841
2.9165 -1.8743 -2.0016 0.9841
2.9815 -1.7690 -2.0016 0.9841
3.0427 -1.6615 -2.0016 0.9841
3.1001 -1.5518 -2.0015 0.9841
1.9883 -0.4325 -1.1748 0.9906
2.0153 -0.3636 -1.1823 0.9906
2.0366 -0.2190 -1.1826 0.9906
2.0320 -0.0726 -1.1739 0.9907
