ply
format ascii 1.0
element vertex 756
property float32 x
property float32 y
property float32 z
property float32 I
end_header
4.0010 -6.7433 -0.3976 0.9691
5.5210 -6.3716 -0.4276 0.9668
3.4606 -7.5777 -0.6108 0.9671
3.4956 -6.9832 -0.5726 0.9692
3.7440 -6.3103 -0.5380 0.9710
4.0379 -6.2831 -0.5476 0.9705
4.3558 -6.2735 -0.5600 0.9698
5.4155 -6.2498 -0.6064 0.9674
-9.2907 -3.4653 -0.9520 0.9609
3.4031 -6.2322 -0.6817 0.9719
3.6912 -6.2212 -0.6945 0.9713
3.9977 -6.2206 -0.7099 0.9707
4.3104 -6.2082 -0.7256 0.9701
4.6364 -6.1935 -0.7428 0.9694
4.9797 -6.1794 -0.7619 0.9686
5.7401 -6.1653 -0.8087 0.9667
-8.8571 -3.6687 -1.1388 0.9621
-8.9484 -4.0866 -1.1685 0.9611
3.6556 -6.1611 -0.8510 0.9716
3.9595 -6.1611 -0.8700 0.9709
4.2659 -6.1441 -0.8885 0.9703
4.9243 -6.1107 -0.9322 0.9689
5.2757 -6.0884 -0.9570 0.9681
5.6488 -6.0672 -0.9847 0.9672
-8.8382 -2.9416 -1.3198 0.9631
-8.8111 -4.0239 -1.3725 0.9616
2.0500 -6.9818 -1.0310 0.9710
2.2111 -6.6432 -0.9920 0.9721
2.4009 -6.4371 -0.9734 0.9726
2.5708 -6.2065 -0.9519 0.9732
2.7921 -6.1138 -0.9523 0.9732
3.3268 -6.0926 -0.9836 0.9723
3.9187 -6.0976 -1.0270 0.9711
4.2228 -6.0820 -1.0491 0.9705
4.5393 -6.0638 -1.0733 0.9699
5.2150 -6.0185 -1.1284 0.9683
5.5881 -6.0020 -1.1619 0.9674
6.0940 -6.0940 -1.2211 0.9658
-8.8602 -2.9490 -1.5383 0.9629
-8.7913 -3.2790 -1.5457 0.9627
1.8601 -7.2878 -1.2391 0.9700
1.9497 -6.6402 -1.1401 0.9723
2.7479 -6.0170 -1.0897 0.9735
3.0237 -6.0407 -1.1128 0.9730
3.2991 -6.0419 -1.1341 0.9725
3.8746 -6.0290 -1.1806 0.9714
4.1808 -6.0215 -1.2076 0.9707
4.8402 -6.0063 -1.2708 0.9692
5.1872 -5.9864 -1.3049 0.9684
2.0558 -6.1767 -1.2236 0.9739
2.7245 -5.9659 -1.2327 0.9737
3.5699 -6.0167 -1.3150 0.9719
3.8678 -6.0184 -1.3447 0.9713
4.1800 -6.0204 -1.3776 0.9706
5.5198 -5.9287 -1.5226 0.9676
-9.4453 -0.6755 -2.0017 0.9620
-9.3191 -1.6813 -2.0017 0.9620
-9.2532 -2.0129 -2.0017 0.9620
-9.1755 -2.3419 -2.0017 0.9620
-9.0861 -2.6679 -2.0017 0.9620
-8.8727 -3.3093 -2.0017 0.9620
-7.7789 -5.4010 -2.0018 0.9620
-7.1571 -6.2017 -2.0018 0.9620
-6.4533 -6.9313 -2.0018 0.9620
-6.2018 -7.1573 -2.0019 0.9620
-5.6755 -7.5815 -2.0019 0.9620
-5.1202 -7.9672 -2.0019 0.9620
-4.5388 -8.3122 -2.0019 0.9620
-3.6243 -8.7499 -2.0019 0.9620
-2.3422 -9.1768 -2.0020 0.9620
-1.3479 -9.3747 -2.0020 0.9620
-1.0124 -9.4169 -2.0020 0.9620
-0.6757 -9.4471 -2.0020 0.9620
-0.3381 -9.4652 -2.0020 0.9620
0.3381 -9.4653 -2.0020 0.9620
0.6757 -9.4472 -2.0020 0.9620
1.0124 -9.4171 -2.0021 0.9620
1.3479 -9.3750 -2.0021 0.9620
1.7442 -6.8337 -1.4908 0.9716
2.2232 -5.9606 -1.3447 0.9743
2.7031 -5.9189 -1.3754 0.9737
2.9891 -5.9714 -1.4115 0.9731
3.2808 -6.0083 -1.4470 0.9724
5.1361 -5.9273 -1.6579 0.9684
6.6975 -6.6975 -2.0021 0.9620
6.9323 -6.4542 -2.0021 0.9620
7.3750 -5.9432 -2.0021 0.9620
7.5824 -5.6761 -2.0021 0.9620
8.1457 -4.8331 -2.0021 0.9620
8.3130 -4.5393 -2.0021 0.9620
8.4697 -4.2396 -2.0021 0.9620
8.7506 -3.6246 -2.0021 0.9620
8.9868 -2.9911 -2.0021 0.9620
9.3750 -1.3479 -2.0021 0.9620
9.4653 -0.3381 -2.0020 0.9620
-8.5169 0.0000 -2.0017 0.9656
-8.5115 -0.3040 -2.0017 0.9656
-8.4952 -0.6076 -2.0017 0.9656
-8.4681 -0.9104 -2.0017 0.9656
-8.3817 -1.5122 -2.0017 0.9656
-8.3224 -1.8104 -2.0017 0.9656
-7.8689 -3.2594 -2.0017 0.9656
-7.1653 -4.6049 -2.0018 0.9656
-6.9964 -4.8577 -2.0018 0.9656
-6.4371 -5.5778 -2.0018 0.9656
-6.0229 -6.0229 -2.0018 0.9656
-5.5779 -6.4373 -2.0019 0.9656
-5.3446 -6.6323 -2.0019 0.9656
-4.6051 -7.1657 -2.0019 0.9656
-4.0822 -7.4760 -2.0019 0.9656
-3.8128 -7.6170 -2.0019 0.9656
-3.5385 -7.7482 -2.0019 0.9656
-2.1066 -8.2536 -2.0020 0.9656
-1.5124 -8.3829 -2.0020 0.9656
-0.9106 -8.4695 -2.0020 0.9656
-0.6077 -8.4966 -2.0020 0.9656
0.0000 -8.5184 -2.0020 0.9656
0.6077 -8.4967 -2.0020 0.9656
1.2123 -8.4318 -2.0020 0.9656
1.8107 -8.3239 -2.0021 0.9656
1.7529 -6.8676 -1.6658 0.9713
1.8656 -6.3537 -1.5563 0.9732
2.0243 -6.0820 -1.5065 0.9740
2.4513 -5.9180 -1.5055 0.9740
2.7031 -5.9189 -1.5293 0.9736
3.5760 -6.0270 -1.6470 0.9716
4.1809 -6.0217 -1.7229 0.9703
5.1051 -6.8196 -2.0021 0.9656
5.3452 -6.6330 -2.0021 0.9656
5.5198 -5.9287 -1.9038 0.9673
6.4380 -5.5786 -2.0021 0.9656
6.6330 -5.3452 -2.0021 0.9656
8.0827 -2.6902 -2.0021 0.9656
8.1735 -2.4000 -2.0021 0.9656
8.3238 -1.8107 -2.0020 0.9656
8.4967 -0.6077 -2.0020 0.9656
8.5130 -0.3040 -2.0020 0.9656
-7.7260 -0.2759 -2.0017 0.9686
-7.7113 -0.5515 -2.0017 0.9686
-7.6867 -0.8264 -2.0017 0.9686
-7.6523 -1.1002 -2.0017 0.9686
-7.6082 -1.3727 -2.0017 0.9686
-6.9135 -3.4606 -2.0018 0.9686
-6.6491 -3.9451 -2.0018 0.9686
-6.1893 -4.6333 -2.0018 0.9686
-5.8431 -5.0631 -2.0018 0.9686
-5.2684 -5.6587 -2.0018 0.9686
-4.8514 -6.0202 -2.0019 0.9686
-4.4096 -6.3510 -2.0019 0.9686
-3.7055 -6.7860 -2.0019 0.9686
-3.4609 -6.9140 -2.0019 0.9686
-2.4417 -7.3363 -2.0019 0.9686
-2.1783 -7.4188 -2.0019 0.9686
-1.9122 -7.4918 -2.0020 0.9686
-1.3728 -7.6092 -2.0020 0.9686
-1.1004 -7.6534 -2.0020 0.9686
-0.8265 -7.6878 -2.0020 0.9686
0.2760 -7.7273 -2.0020 0.9686
0.5516 -7.7125 -2.0020 0.9686
0.8265 -7.6879 -2.0020 0.9686
1.6436 -7.5556 -2.0020 0.9686
1.8581 -6.3282 -1.7076 0.9731
2.0210 -6.0721 -1.6570 0.9739
2.4513 -5.9180 -1.6585 0.9739
2.7031 -5.9189 -1.6848 0.9735
3.7057 -6.7866 -2.0021 0.9686
3.9456 -6.6500 -2.0021 0.9686
4.6339 -6.1901 -2.0021 0.9686
4.8519 -6.0208 -2.0021 0.9686
5.8438 -5.0637 -2.0021 0.9686
6.1901 -4.6339 -2.0021 0.9686
6.7866 -3.7058 -2.0021 0.9686
7.0336 -3.2121 -2.0021 0.9686
7.1438 -2.9590 -2.0020 0.9686
7.3367 -2.4419 -2.0020 0.9686
7.4191 -2.1784 -2.0020 0.9686
7.5556 -1.6436 -2.0020 0.9686
7.6094 -1.3729 -2.0020 0.9686
7.6536 -1.1004 -2.0020 0.9686
7.6879 -0.8266 -2.0020 0.9686
7.7273 -0.2760 -2.0020 0.9686
-7.0528 -0.5044 -2.0017 0.9710
-7.0303 -0.7558 -2.0017 0.9710
-6.9989 -1.0063 -2.0017 0.9710
-6.9093 -1.5030 -2.0017 0.9710
-6.8513 -1.7487 -2.0017 0.9710
-6.7845 -1.9921 -2.0017 0.9710
-6.7091 -2.2330 -2.0017 0.9710
-6.5328 -2.7060 -2.0018 0.9710
-6.3231 -3.1651 -2.0018 0.9710
-6.2062 -3.3888 -2.0018 0.9710
-6.0813 -3.6082 -2.0018 0.9710
-5.6608 -4.2376 -2.0018 0.9710
-5.5060 -4.4370 -2.0018 0.9710
-5.1754 -4.8185 -2.0018 0.9710
-5.0002 -5.0002 -2.0018 0.9710
-4.2377 -5.6610 -2.0019 0.9710
-3.3890 -6.2065 -2.0019 0.9710
-2.7062 -6.5333 -2.0019 0.9710
-2.2332 -6.7098 -2.0019 0.9710
-1.7489 -6.8520 -2.0019 0.9710
-1.5032 -6.9101 -2.0020 0.9710
-1.2556 -6.9594 -2.0020 0.9710
-0.5045 -7.0538 -2.0020 0.9710
-0.2524 -7.0673 -2.0020 0.9710
0.0000 -7.0718 -2.0020 0.9710
0.5045 -7.0539 -2.0020 0.9710
0.7560 -7.0314 -2.0020 0.9710
1.2556 -6.9596 -2.0020 0.9710
1.5032 -6.9103 -2.0020 0.9710
1.9924 -6.7855 -2.0020 0.9710
2.2310 -5.9814 -1.8072 0.9738
2.7031 -5.9189 -1.8421 0.9733
3.1655 -6.3240 -2.0020 0.9710
4.2381 -5.6615 -2.0020 0.9710
4.8190 -5.1760 -2.0020 0.9710
5.3447 -4.6312 -2.0020 0.9710
5.5066 -4.4375 -2.0020 0.9710
5.6615 -4.2381 -2.0020 0.9710
5.8091 -4.0333 -2.0020 0.9710
5.9494 -3.8234 -2.0020 0.9710
6.0820 -3.6086 -2.0020 0.9710
6.2070 -3.3893 -2.0020 0.9710
6.5337 -2.7063 -2.0020 0.9710
6.6261 -2.4714 -2.0020 0.9710
6.7101 -2.2333 -2.0020 0.9710
6.8523 -1.7489 -2.0020 0.9710
6.9596 -1.2556 -2.0020 0.9710
7.0314 -0.7559 -2.0020 0.9710
-6.5079 0.0000 -2.0017 0.9731
-6.4707 -0.6957 -2.0017 0.9731
-6.4418 -0.9262 -2.0017 0.9731
-6.4046 -1.1555 -2.0017 0.9731
-6.3593 -1.3834 -2.0017 0.9731
-6.3059 -1.6095 -2.0017 0.9731
-5.8198 -2.9132 -2.0018 0.9731
-5.4751 -3.5186 -2.0018 0.9731
-5.2102 -3.9003 -2.0018 0.9731
-5.0676 -4.0838 -2.0018 0.9731
-4.6021 -4.6021 -2.0018 0.9731
-4.4349 -4.7635 -2.0018 0.9731
-3.9004 -5.2103 -2.0019 0.9731
-3.5188 -5.4753 -2.0019 0.9731
-2.9133 -5.8201 -2.0019 0.9731
-2.2745 -6.0983 -2.0019 0.9731
-2.0554 -6.1756 -2.0019 0.9731
-1.8337 -6.2450 -2.0019 0.9731
-1.6096 -6.3065 -2.0019 0.9731
-0.9263 -6.4425 -2.0020 0.9731
-0.4643 -6.4922 -2.0020 0.9731
-0.0000 -6.5088 -2.0020 0.9731
0.6958 -6.4716 -2.0020 0.9731
0.9263 -6.4426 -2.0020 0.9731
1.6097 -6.3067 -2.0020 0.9731
2.0555 -6.1758 -2.0020 0.9731
3.1194 -5.7128 -2.0020 0.9731
3.5190 -5.4757 -2.0020 0.9731
3.7122 -5.3466 -2.0020 0.9731
4.0842 -5.0682 -2.0020 0.9731
4.7639 -4.4354 -2.0020 0.9731
5.3466 -3.7122 -2.0020 0.9731
5.7128 -3.1194 -2.0020 0.9731
5.8205 -2.9135 -2.0020 0.9731
6.0135 -2.4909 -2.0020 0.9731
6.0986 -2.2746 -2.0020 0.9731
6.1758 -2.0555 -2.0020 0.9731
6.3067 -1.6097 -2.0020 0.9731
6.4923 -0.4643 -2.0020 0.9731
-6.0066 -0.4296 -2.0017 0.9749
-5.9874 -0.6437 -2.0017 0.9749
-5.9607 -0.8570 -2.0017 0.9749
-5.8349 -1.4893 -2.0017 0.9749
-5.7139 -1.9017 -2.0018 0.9749
-5.6424 -2.1045 -2.0018 0.9749
-5.5637 -2.3045 -2.0018 0.9749
-5.4779 -2.5017 -2.0018 0.9749
-5.3851 -2.6956 -2.0018 0.9749
-5.2855 -2.8861 -2.0018 0.9749
-4.9467 -3.4346 -2.0018 0.9749
-4.8210 -3.6090 -2.0018 0.9749
-4.6891 -3.7787 -2.0018 0.9749
-4.5513 -3.9437 -2.0018 0.9749
-4.4077 -4.1037 -2.0018 0.9749
-4.2584 -4.2584 -2.0018 0.9749
-3.9438 -4.5514 -2.0018 0.9749
-3.7788 -4.6892 -2.0019 0.9749
-3.4347 -4.9469 -2.0019 0.9749
-3.2560 -5.0664 -2.0019 0.9749
-3.0730 -5.1794 -2.0019 0.9749
-2.8863 -5.2858 -2.0019 0.9749
-2.5018 -5.4782 -2.0019 0.9749
-2.1046 -5.6428 -2.0019 0.9749
-1.4894 -5.8355 -2.0019 0.9749
-1.2802 -5.8849 -2.0019 0.9749
-0.8571 -5.9613 -2.0019 0.9749
-0.6438 -5.9881 -2.0019 0.9749
-0.4296 -6.0073 -2.0020 0.9749
-0.2150 -6.0188 -2.0020 0.9749
-0.0000 -6.0226 -2.0020 0.9749
0.4296 -6.0073 -2.0020 0.9749
0.8571 -5.9614 -2.0020 0.9749
1.0693 -5.9270 -2.0020 0.9749
1.2802 -5.8851 -2.0020 0.9749
1.4895 -5.8356 -2.0020 0.9749
1.6968 -5.7788 -2.0020 0.9749
1.9020 -5.7145 -2.0020 0.9749
2.1047 -5.6430 -2.0020 0.9749
2.3048 -5.5643 -2.0020 0.9749
3.2562 -5.0667 -2.0020 0.9749
3.4349 -4.9473 -2.0020 0.9749
3.7791 -4.6896 -2.0020 0.9749
3.9441 -4.5517 -2.0020 0.9749
4.1041 -4.4081 -2.0020 0.9749
4.2588 -4.2588 -2.0020 0.9749
4.4081 -4.1040 -2.0020 0.9749
4.5517 -3.9441 -2.0020 0.9749
4.6896 -3.7791 -2.0020 0.9749
4.9473 -3.4349 -2.0020 0.9749
5.3857 -2.6959 -2.0020 0.9749
5.5643 -2.3048 -2.0020 0.9749
5.6430 -2.1047 -2.0020 0.9749
5.7145 -1.9020 -2.0020 0.9749
5.7788 -1.6968 -2.0020 0.9749
5.8357 -1.4895 -2.0020 0.9749
5.8851 -1.2802 -2.0020 0.9749
5.9270 -1.0694 -2.0020 0.9749
-5.5975 -0.0000 -2.0017 0.9765
-5.5833 -0.3993 -2.0017 0.9765
-5.4697 -1.1899 -2.0017 0.9765
-5.3709 -1.5771 -2.0018 0.9765
-5.2447 -1.9562 -2.0018 0.9765
-5.1716 -2.1421 -2.0018 0.9765
-5.0919 -2.3254 -2.0018 0.9765
-4.8142 -2.8564 -2.0018 0.9765
-4.5981 -3.1925 -2.0018 0.9765
-4.3587 -3.5125 -2.0018 0.9765
-3.6658 -4.2306 -2.0018 0.9765
-3.3547 -4.4814 -2.0019 0.9765
-3.0265 -4.7093 -2.0019 0.9765
-2.6828 -4.9132 -2.0019 0.9765
-1.7679 -5.3116 -2.0019 0.9765
-1.5772 -5.3713 -2.0019 0.9765
-1.3844 -5.4242 -2.0019 0.9765
-0.9940 -5.5092 -2.0019 0.9765
-0.7967 -5.5412 -2.0019 0.9765
-0.5984 -5.5661 -2.0019 0.9765
-0.3994 -5.5839 -2.0019 0.9765
-0.1998 -5.5946 -2.0020 0.9765
-0.0000 -5.5982 -2.0020 0.9765
0.3994 -5.5840 -2.0020 0.9765
0.7967 -5.5413 -2.0020 0.9765
0.9940 -5.5093 -2.0020 0.9765
1.3845 -5.4244 -2.0020 0.9765
1.5772 -5.3715 -2.0020 0.9765
1.9564 -5.2453 -2.0020 0.9765
2.1424 -5.1722 -2.0020 0.9765
2.6830 -4.9135 -2.0020 0.9765
2.8567 -4.8146 -2.0020 0.9765
3.1929 -4.5986 -2.0020 0.9765
4.0974 -3.8148 -2.0020 0.9765
4.2309 -3.6661 -2.0020 0.9765
4.3591 -3.5128 -2.0020 0.9765
4.5986 -3.1929 -2.0020 0.9765
4.7096 -3.0267 -2.0020 0.9765
4.8146 -2.8566 -2.0020 0.9765
4.9135 -2.6830 -2.0020 0.9765
5.2453 -1.9564 -2.0020 0.9765
5.3118 -1.7679 -2.0020 0.9765
5.4244 -1.3845 -2.0020 0.9765
5.4703 -1.1900 -2.0020 0.9765
5.5662 -0.5984 -2.0020 0.9765
-5.2202 -0.1865 -2.0017 0.9779
-5.2102 -0.3726 -2.0017 0.9779
-5.1936 -0.5584 -2.0017 0.9779
-5.0120 -1.4717 -2.0018 0.9779
-4.9563 -1.6496 -2.0018 0.9779
-4.8260 -1.9990 -2.0018 0.9779
-4.6711 -2.3382 -2.0018 0.9779
-4.3944 -2.8241 -2.0018 0.9779
-4.1818 -3.1304 -2.0018 0.9779
-4.0674 -3.2777 -2.0018 0.9779
-3.9478 -3.4208 -2.0018 0.9779
-3.8232 -3.5596 -2.0018 0.9779
-3.6937 -3.6937 -2.0018 0.9779
-3.4209 -3.9479 -2.0018 0.9779
-3.1305 -4.1819 -2.0019 0.9779
-2.6656 -4.4926 -2.0019 0.9779
-1.6497 -4.9566 -2.0019 0.9779
-1.4718 -5.0123 -2.0019 0.9779
-1.2919 -5.0617 -2.0019 0.9779
-1.1104 -5.1046 -2.0019 0.9779
-0.9275 -5.1410 -2.0019 0.9779
-0.7435 -5.1708 -2.0019 0.9779
-0.3727 -5.2107 -2.0019 0.9779
-0.1865 -5.2207 -2.0019 0.9779
-0.0000 -5.2240 -2.0019 0.9779
0.1865 -5.2207 -2.0020 0.9779
0.7435 -5.1709 -2.0020 0.9779
0.9275 -5.1411 -2.0020 0.9779
1.2920 -5.0618 -2.0020 0.9779
1.4718 -5.0125 -2.0020 0.9779
1.8256 -4.8947 -2.0020 0.9779
1.9992 -4.8265 -2.0020 0.9779
2.1702 -4.7520 -2.0020 0.9779
2.3384 -4.6716 -2.0020 0.9779
2.5037 -4.5851 -2.0020 0.9779
2.6657 -4.4928 -2.0020 0.9779
2.9794 -4.2912 -2.0020 0.9779
3.1307 -4.1822 -2.0020 0.9779
3.4211 -3.9482 -2.0020 0.9779
3.8235 -3.5598 -2.0020 0.9779
3.9481 -3.4211 -2.0020 0.9779
4.0677 -3.2780 -2.0020 0.9779
4.1821 -3.1307 -2.0020 0.9779
4.2912 -2.9794 -2.0020 0.9779
4.8947 -1.8256 -2.0020 0.9779
4.9568 -1.6498 -2.0020 0.9779
5.0125 -1.4718 -2.0020 0.9779
5.1411 -0.9276 -2.0020 0.9779
5.1709 -0.7435 -2.0020 0.9779
-1.8978 0.0000 -0.7767 0.9918
-1.9308 -0.0690 -0.7907 0.9917
-1.9569 -0.2104 -0.8055 0.9915
-1.9449 -0.2796 -0.8042 0.9915
-2.1703 -0.3916 -0.9026 0.9905
-4.6929 -1.3780 -2.0018 0.9791
-4.6407 -1.5446 -2.0018 0.9791
-4.4491 -2.0318 -2.0018 0.9791
-4.2064 -2.4958 -2.0018 0.9791
-4.1147 -2.6443 -2.0018 0.9791
-4.0177 -2.7895 -2.0018 0.9791
-3.9156 -2.9311 -2.0018 0.9791
-3.5798 -3.3329 -2.0018 0.9791
-3.4586 -3.4586 -2.0018 0.9791
-3.0691 -3.8085 -2.0019 0.9791
-2.3441 -4.2930 -2.0019 0.9791
-2.1894 -4.3739 -2.0019 0.9791
-1.8718 -4.5190 -2.0019 0.9791
-1.5447 -4.6410 -2.0019 0.9791
-1.2097 -4.7394 -2.0019 0.9791
-1.0397 -4.7796 -2.0019 0.9791
-0.8685 -4.8137 -2.0019 0.9791
-0.5229 -4.8634 -2.0019 0.9791
-0.3490 -4.8789 -2.0019 0.9791
0.5229 -4.8634 -2.0020 0.9791
0.6961 -4.8417 -2.0020 0.9791
1.0398 -4.7797 -2.0020 0.9791
1.3781 -4.6933 -2.0020 0.9791
1.5447 -4.6412 -2.0020 0.9791
2.1895 -4.3741 -2.0020 0.9791
2.3443 -4.2932 -2.0020 0.9791
2.4960 -4.2068 -2.0020 0.9791
2.6446 -4.1150 -2.0020 0.9791
2.7897 -4.0180 -2.0020 0.9791
3.3332 -3.5801 -2.0020 0.9791
3.9159 -2.9314 -2.0020 0.9791
4.0180 -2.7897 -2.0020 0.9791
4.2932 -2.3443 -2.0020 0.9791
4.5831 -1.7094 -2.0020 0.9791
4.6412 -1.5447 -2.0020 0.9791
4.6933 -1.3781 -2.0020 0.9791
4.7395 -1.2097 -2.0020 0.9791
4.8137 -0.8685 -2.0020 0.9791
4.8417 -0.6961 -2.0020 0.9791
4.8634 -0.5229 -2.0020 0.9791
4.8883 -0.1746 -2.0019 0.9791
-1.5222 0.0000 -0.6634 0.9934
-1.5284 -0.0546 -0.6665 0.9933
-1.5002 -0.2707 -0.6643 0.9934
-1.5485 -0.3952 -0.6965 0.9931
-1.5984 -0.5962 -0.7435 0.9926
-4.2435 -1.7577 -2.0018 0.9802
-4.1074 -2.0560 -2.0018 0.9802
-3.9502 -2.3438 -2.0018 0.9802
-3.8641 -2.4833 -2.0018 0.9802
-3.7730 -2.6196 -2.0018 0.9802
-3.5765 -2.8821 -2.0018 0.9802
-3.4714 -3.0079 -2.0018 0.9802
-3.3618 -3.1299 -2.0018 0.9802
-3.1300 -3.3618 -2.0018 0.9802
-3.0080 -3.4714 -2.0018 0.9802
-2.8822 -3.5766 -2.0019 0.9802
-2.4834 -3.8642 -2.0019 0.9802
-2.3439 -3.9504 -2.0019 0.9802
-2.2014 -4.0315 -2.0019 0.9802
-2.0561 -4.1075 -2.0019 0.9802
-1.9082 -4.1783 -2.0019 0.9802
-1.7578 -4.2438 -2.0019 0.9802
-1.6052 -4.3038 -2.0019 0.9802
-1.4506 -4.3584 -2.0019 0.9802
-0.9764 -4.4885 -2.0019 0.9802
-0.8156 -4.5205 -2.0019 0.9802
-0.6537 -4.5467 -2.0019 0.9802
-0.3277 -4.5818 -2.0019 0.9802
-0.0000 -4.5935 -2.0019 0.9802
0.1640 -4.5906 -2.0019 0.9802
0.3277 -4.5818 -2.0019 0.9802
0.4910 -4.5672 -2.0019 0.9802
1.1360 -4.4509 -2.0020 0.9802
1.4507 -4.3585 -2.0020 0.9802
1.6053 -4.3040 -2.0020 0.9802
1.9082 -4.1785 -2.0020 0.9802
2.3440 -3.9506 -2.0020 0.9802
2.6198 -3.7733 -2.0020 0.9802
2.7528 -3.6774 -2.0020 0.9802
3.0082 -3.4716 -2.0020 0.9802
3.1302 -3.3620 -2.0020 0.9802
3.2482 -3.2482 -2.0020 0.9802
3.3620 -3.1302 -2.0020 0.9802
3.5768 -2.8823 -2.0020 0.9802
3.7733 -2.6198 -2.0020 0.9802
4.1077 -2.0562 -2.0020 0.9802
4.3040 -1.6053 -2.0020 0.9802
4.4075 -1.2942 -2.0020 0.9802
4.4509 -1.1360 -2.0020 0.9802
4.5468 -0.6537 -2.0019 0.9802
4.5672 -0.4910 -2.0019 0.9802
-1.3333 0.0000 -0.6172 0.9941
-1.3376 -0.0478 -0.6195 0.9941
-1.3351 -0.1435 -0.6215 0.9941
-1.3273 -0.1908 -0.6207 0.9941
-1.3116 -0.3348 -0.6266 0.9941
-1.3241 -0.3888 -0.6388 0.9939
-1.3263 -0.5494 -0.6645 0.9937
-1.3151 -0.6006 -0.6692 0.9936
-3.8672 -1.9358 -2.0018 0.9811
-3.7956 -2.0726 -2.0018 0.9811
-3.5524 -2.4664 -2.0018 0.9811
-3.4621 -2.5917 -2.0018 0.9811
-3.3674 -2.7136 -2.0018 0.9811
-2.9469 -3.1652 -2.0018 0.9811
-2.8321 -3.2684 -2.0018 0.9811
-2.7136 -3.3674 -2.0019 0.9811
-2.3381 -3.6382 -2.0019 0.9811
-2.2068 -3.7194 -2.0019 0.9811
-2.0726 -3.7958 -2.0019 0.9811
-1.7966 -3.9340 -2.0019 0.9811
-1.6550 -3.9956 -2.0019 0.9811
-1.5114 -4.0521 -2.0019 0.9811
-1.3658 -4.1035 -2.0019 0.9811
-0.9193 -4.2260 -2.0019 0.9811
-0.0000 -4.3249 -2.0019 0.9811
0.3085 -4.3139 -2.0019 0.9811
0.4623 -4.3001 -2.0019 0.9811
0.9193 -4.2261 -2.0019 0.9811
1.0696 -4.1906 -2.0019 0.9811
1.2185 -4.1497 -2.0019 0.9811
1.3658 -4.1036 -2.0020 0.9811
1.7966 -3.9341 -2.0020 0.9811
1.9359 -3.8675 -2.0020 0.9811
2.0727 -3.7959 -2.0020 0.9811
2.3383 -3.6384 -2.0020 0.9811
2.8323 -3.2686 -2.0020 0.9811
3.1654 -2.9471 -2.0020 0.9811
3.2686 -2.8323 -2.0020 0.9811
3.4623 -2.5919 -2.0020 0.9811
3.5526 -2.4666 -2.0020 0.9811
3.7195 -2.2069 -2.0020 0.9811
3.8675 -1.9359 -2.0020 0.9811
3.9957 -1.6551 -2.0020 0.9811
4.0523 -1.5114 -2.0020 0.9811
4.1036 -1.3658 -2.0020 0.9811
4.1498 -1.2185 -2.0019 0.9811
4.2562 -0.7679 -2.0019 0.9811
4.2809 -0.6155 -2.0019 0.9811
4.3001 -0.4623 -2.0019 0.9811
4.3139 -0.3085 -2.0019 0.9811
4.3221 -0.1544 -2.0019 0.9811
-1.1965 -0.0427 -0.5873 0.9947
-1.1953 -0.0855 -0.5878 0.9947
-1.1921 -0.1282 -0.5881 0.9947
-1.1791 -0.2127 -0.5877 0.9947
-1.1695 -0.2544 -0.5871 0.9947
-1.1578 -0.2955 -0.5861 0.9947
-1.1543 -0.4305 -0.6043 0.9945
-1.1400 -0.5206 -0.6148 0.9944
-1.1113 -0.6068 -0.6211 0.9944
-3.5097 -2.0824 -2.0018 0.9820
-3.4331 -2.2063 -2.0018 0.9820
-3.3522 -2.3275 -2.0018 0.9820
-3.1776 -2.5607 -2.0018 0.9820
-3.0842 -2.6725 -2.0018 0.9820
-2.8857 -2.8857 -2.0018 0.9820
-2.5607 -3.1777 -2.0019 0.9820
-2.4457 -3.2671 -2.0019 0.9820
-2.3275 -3.3523 -2.0019 0.9820
-2.0825 -3.5098 -2.0019 0.9820
-1.1498 -3.9158 -2.0019 0.9820
-0.5808 -4.0396 -2.0019 0.9820
-0.1457 -4.0786 -2.0019 0.9820
0.4363 -4.0578 -2.0019 0.9820
0.5808 -4.0397 -2.0019 0.9820
0.7246 -4.0164 -2.0019 0.9820
1.2889 -3.8724 -2.0019 0.9820
1.8268 -3.6496 -2.0020 0.9820
1.9559 -3.5821 -2.0020 0.9820
2.0825 -3.5099 -2.0020 0.9820
2.2065 -3.4334 -2.0020 0.9820
2.4458 -3.2672 -2.0020 0.9820
2.5609 -3.1778 -2.0020 0.9820
2.6727 -3.0844 -2.0020 0.9820
3.0844 -2.6727 -2.0020 0.9820
3.1778 -2.5609 -2.0020 0.9820
3.2672 -2.4458 -2.0020 0.9820
3.3524 -2.3276 -2.0020 0.9820
3.7124 -1.6954 -2.0020 0.9820
3.8724 -1.2889 -2.0019 0.9820
3.9159 -1.1498 -2.0019 0.9820
3.9880 -0.8675 -2.0019 0.9820
4.0164 -0.7246 -2.0019 0.9820
4.0708 -0.2912 -2.0019 0.9820
-1.1024 -0.1185 -0.5752 0.9950
-1.0974 -0.1578 -0.5752 0.9950
-1.0704 -0.2732 -0.5731 0.9950
-1.0636 -0.3123 -0.5751 0.9950
-1.0617 -0.3534 -0.5805 0.9950
-1.0118 -0.5525 -0.5981 0.9948
-3.2461 -2.0862 -2.0018 0.9828
-3.1696 -2.2007 -2.0018 0.9828
-3.0891 -2.3124 -2.0018 0.9828
-3.0046 -2.4212 -2.0018 0.9828
-2.9162 -2.5269 -2.0018 0.9828
-2.5269 -2.9163 -2.0018 0.9828
-2.2008 -3.1697 -2.0019 0.9828
-1.9690 -3.3186 -2.0019 0.9828
-1.6030 -3.5101 -2.0019 0.9828
-1.0872 -3.7025 -2.0019 0.9828
-0.5492 -3.8196 -2.0019 0.9828
-0.1377 -3.8564 -2.0019 0.9828
-0.0000 -3.8589 -2.0019 0.9828
0.1377 -3.8564 -2.0019 0.9828
0.2753 -3.8491 -2.0019 0.9828
0.4125 -3.8368 -2.0019 0.9828
0.5492 -3.8196 -2.0019 0.9828
0.8203 -3.7707 -2.0019 0.9828
0.9543 -3.7391 -2.0019 0.9828
1.3486 -3.6156 -2.0019 0.9828
1.7273 -3.4508 -2.0019 0.9828
1.9691 -3.3187 -2.0019 0.9828
2.0863 -3.2464 -2.0019 0.9828
2.2008 -3.1698 -2.0019 0.9828
2.3126 -3.0893 -2.0020 0.9828
2.4214 -3.0047 -2.0020 0.9828
2.6296 -2.8244 -2.0020 0.9828
2.8244 -2.6296 -2.0020 0.9828
3.0893 -2.3126 -2.0020 0.9828
3.2464 -2.0863 -2.0019 0.9828
3.3869 -1.8494 -2.0019 0.9828
3.4508 -1.7273 -2.0019 0.9828
3.5102 -1.6030 -2.0019 0.9828
3.5652 -1.4768 -2.0019 0.9828
3.7391 -0.9543 -2.0019 0.9828
3.7707 -0.8203 -2.0019 0.9828
3.7976 -0.6852 -2.0019 0.9828
3.8368 -0.4125 -2.0019 0.9828
3.8491 -0.2753 -2.0019 0.9828
3.8565 -0.1377 -2.0019 0.9828
-1.0265 -0.0734 -0.5637 0.9953
-1.0190 -0.1465 -0.5638 0.9953
-1.0124 -0.1826 -0.5634 0.9953
-1.0039 -0.2184 -0.5627 0.9953
-0.9820 -0.2883 -0.5606 0.9953
-0.9741 -0.3633 -0.5694 0.9953
-0.9677 -0.4008 -0.5737 0.9952
-0.9269 -0.5061 -0.5784 0.9952
-0.8881 -0.5708 -0.5782 0.9952
-0.8661 -0.6014 -0.5775 0.9952
-2.9259 -2.1903 -2.0018 0.9835
-2.8459 -2.2934 -2.0018 0.9835
-2.6750 -2.4906 -2.0018 0.9835
-2.4906 -2.6750 -2.0018 0.9835
-2.2934 -2.8459 -2.0018 0.9835
-2.0845 -3.0023 -2.0019 0.9835
-1.9760 -3.0748 -2.0019 0.9835
-1.6361 -3.2684 -2.0019 0.9835
-1.5184 -3.3247 -2.0019 0.9835
-1.3987 -3.3768 -2.0019 0.9835
-1.2773 -3.4246 -2.0019 0.9835
-1.1543 -3.4680 -2.0019 0.9835
-1.0298 -3.5070 -2.0019 0.9835
-0.9039 -3.5415 -2.0019 0.9835
-0.7769 -3.5716 -2.0019 0.9835
-0.6490 -3.5970 -2.0019 0.9835
-0.3907 -3.6341 -2.0019 0.9835
-0.2608 -3.6458 -2.0019 0.9835
-0.1305 -3.6528 -2.0019 0.9835
0.0000 -3.6425 -1.9950 0.9835
0.1305 -3.6528 -2.0019 0.9835
0.2608 -3.6458 -2.0019 0.9835
0.3907 -3.6342 -2.0019 0.9835
0.5202 -3.6179 -2.0019 0.9835
0.6490 -3.5971 -2.0019 0.9835
0.9039 -3.5416 -2.0019 0.9835
1.0298 -3.5071 -2.0019 0.9835
1.2773 -3.4247 -2.0019 0.9835
1.7517 -3.2081 -2.0019 0.9835
1.8651 -3.1435 -2.0019 0.9835
2.0846 -3.0024 -2.0019 0.9835
2.2935 -2.8461 -2.0019 0.9835
2.3936 -2.7624 -2.0019 0.9835
2.4907 -2.6752 -2.0019 0.9835
2.6752 -2.4907 -2.0019 0.9835
2.7624 -2.3936 -2.0019 0.9835
2.9261 -2.1905 -2.0019 0.9835
3.0024 -2.0846 -2.0019 0.9835
3.0749 -1.9761 -2.0019 0.9835
3.3769 -1.3987 -2.0019 0.9835
3.4681 -1.1543 -2.0019 0.9835
3.5716 -0.7770 -2.0019 0.9835
3.6458 -0.2608 -2.0019 0.9835
-0.9570 0.0000 -0.5525 0.9956
-0.9575 -0.0342 -0.5532 0.9956
-0.9538 -0.1025 -0.5538 0.9956
-0.9492 -0.1365 -0.5537 0.9956
-0.9430 -0.1701 -0.5532 0.9956
-0.9151 -0.2687 -0.5506 0.9956
-0.9011 -0.3361 -0.5553 0.9956
-0.8687 -0.4349 -0.5609 0.9955
-0.8534 -0.4660 -0.5614 0.9955
-0.7846 -0.5873 -0.5658 0.9955
-0.7671 -0.6182 -0.5688 0.9955
-2.6204 -2.2706 -2.0018 0.9841
-2.5377 -2.3627 -2.0018 0.9841
-2.4517 -2.4517 -2.0018 0.9841
-2.2706 -2.6204 -2.0018 0.9841
-2.1756 -2.6998 -2.0018 0.9841
-1.8746 -2.9169 -2.0019 0.9841
-1.7693 -2.9820 -2.0019 0.9841
-1.6617 -3.0432 -2.0019 0.9841
-1.5520 -3.1006 -2.0019 0.9841
-1.4404 -3.1540 -2.0019 0.9841
-1.2117 -3.2487 -2.0019 0.9841
-1.0950 -3.2899 -2.0019 0.9841
-0.9769 -3.3269 -2.0019 0.9841
-0.7371 -3.3881 -2.0019 0.9841
-0.6156 -3.4123 -2.0019 0.9841
-0.2474 -3.4586 -2.0019 0.9841
0.0000 -3.4538 -1.9940 0.9842
0.4935 -3.4321 -2.0019 0.9841
0.7371 -3.3882 -2.0019 0.9841
0.8575 -3.3597 -2.0019 0.9841
1.3269 -3.2035 -2.0019 0.9841
1.4404 -3.1541 -2.0019 0.9841
1.8746 -2.9170 -2.0019 0.9841
2.1757 -2.6999 -2.0019 0.9841
2.2707 -2.6205 -2.0019 0.9841
2.5378 -2.3628 -2.0019 0.9841
2.6205 -2.2707 -2.0019 0.9841
2.6999 -2.1757 -2.0019 0.9841
2.8482 -1.9776 -2.0019 0.9841
2.9821 -1.7693 -2.0019 0.9841
1.8620 -0.7713 -1.1636 0.9907
1.9351 -0.5682 -1.1644 0.9907
1.9616 -0.5007 -1.1688 0.9907
2.0366 -0.2190 -1.1826 0.9906
2.0359 -0.1456 -1.1784 0.9906
