ply
format ascii 1.0
element vertex 990
property float32 x
property float32 y
property float32 z
property float32 I
end_header
4.9986 8.4246 1.7273 0.9610
4.2777 8.5457 1.6851 0.9619
3.9294 8.6043 1.6679 0.9623
3.5878 8.6617 1.6531 0.9626
3.2517 8.7182 1.6407 0.9629
2.9202 8.7739 1.6305 0.9631
2.2674 8.8836 1.6166 0.9634
1.6223 8.9920 1.6111 0.9636
0.9748 9.0673 1.6080 0.9636
0.6548 9.1546 1.6183 0.9634
-0.3329 9.3205 1.6445 0.9628
-1.0144 9.4350 1.6732 0.9622
-1.7238 9.5542 1.7119 0.9613
-2.0918 9.6161 1.7352 0.9608
4.6284 8.4764 1.4795 0.9617
3.9295 8.6043 1.4491 0.9624
2.9202 8.7739 1.4166 0.9633
2.5924 8.8290 1.4097 0.9634
1.9443 8.9379 1.4013 0.9637
1.3006 9.0461 1.4001 0.9637
0.9748 9.0673 1.3971 0.9638
0.3289 9.2094 1.4117 0.9634
0.0000 9.2646 1.4193 0.9632
-0.3329 9.3206 1.4288 0.9630
-0.6707 9.3773 1.4402 0.9627
-1.3650 9.4940 1.4694 0.9619
-1.7238 9.5543 1.4873 0.9615
-2.0919 9.6161 1.5076 0.9610
4.9986 8.4247 1.2756 0.9613
4.6285 8.4764 1.2576 0.9618
3.9295 8.6044 1.2318 0.9626
3.5878 8.6618 1.2209 0.9629
3.2517 8.7183 1.2117 0.9632
2.9203 8.7740 1.2042 0.9634
2.5925 8.8291 1.1983 0.9636
1.9443 8.9380 1.1911 0.9638
0.9748 9.0674 1.1876 0.9639
0.6548 9.1547 1.1952 0.9637
0.3289 9.2094 1.2000 0.9635
0.0000 9.2647 1.2065 0.9633
-2.0919 9.6162 1.2815 0.9611
5.3738 8.3617 1.0673 0.9608
4.9986 8.4248 1.0519 0.9614
4.6285 8.4764 1.0371 0.9619
3.9295 8.6044 1.0157 0.9627
3.5879 8.6618 1.0068 0.9630
3.2518 8.7183 0.9992 0.9633
1.9428 8.9311 0.9815 0.9639
1.6209 8.9840 0.9803 0.9639
0.6545 9.1514 0.9852 0.9638
0.3289 9.2095 0.9896 0.9636
-1.0144 9.4352 1.0190 0.9625
-2.0919 9.6162 1.0568 0.9612
5.3635 8.3458 0.8398 0.9610
4.6285 8.4765 0.8176 0.9620
3.9295 8.6045 0.8008 0.9627
3.5879 8.6619 0.7937 0.9631
3.2518 8.7184 0.7877 0.9633
2.9203 8.7741 0.7828 0.9636
2.2675 8.8838 0.7761 0.9639
0.3289 9.2095 0.7801 0.9637
-0.3329 9.3207 0.7895 0.9633
-0.6707 9.3775 0.7959 0.9630
-1.0144 9.4352 0.8033 0.9626
-2.0919 9.6163 0.8331 0.9613
4.9718 8.3795 0.6042 0.9617
4.2778 8.5460 0.5926 0.9624
3.2518 8.7184 0.5770 0.9634
2.5925 8.8292 0.5706 0.9638
1.3007 9.0463 0.5667 0.9640
0.9749 9.0675 0.5655 0.9641
0.6548 9.1548 0.5691 0.9639
0.3289 9.2096 0.5715 0.9637
0.0000 9.2648 0.5745 0.9636
-0.3329 9.3208 0.5784 0.9633
-0.6707 9.3775 0.5830 0.9630
-1.3651 9.4942 0.5948 0.9623
-1.7238 9.5545 0.6020 0.9618
5.3278 8.2902 0.3886 0.9613
4.2779 8.5460 0.3768 0.9625
3.5879 8.6620 0.3697 0.9632
2.9203 8.7742 0.3646 0.9637
2.2675 8.8839 0.3615 0.9640
1.6224 8.9923 0.3603 0.9641
1.3007 9.0463 0.3604 0.9641
0.9749 9.0675 0.3596 0.9642
0.3289 9.2096 0.3634 0.9638
-0.3329 9.3208 0.3678 0.9634
-1.0144 9.4353 0.3742 0.9627
-1.3651 9.4943 0.3782 0.9623
-2.4707 9.6800 0.3939 0.9608
5.6926 8.1989 0.1686 0.9609
4.9393 8.3248 0.1635 0.9620
3.5879 8.6620 0.1584 0.9632
3.2518 8.7185 0.1572 0.9635
2.5925 8.8293 0.1554 0.9639
1.6224 8.9923 0.1543 0.9641
1.3007 9.0464 0.1544 0.9641
0.9749 9.0675 0.1541 0.9642
0.0000 9.2649 0.1565 0.9636
-1.0144 9.4354 0.1603 0.9627
-1.3651 9.4943 0.1620 0.9624
-2.0919 9.6165 0.1662 0.9614
-2.4707 9.6801 0.1688 0.9608
5.2927 8.2357 -0.0551 0.9616
4.9233 8.2978 -0.0543 0.9621
4.6286 8.4767 -0.0544 0.9621
3.9296 8.6047 -0.0533 0.9629
2.9204 8.7743 -0.0521 0.9637
1.9444 8.9383 -0.0515 0.9641
1.6224 8.9924 -0.0514 0.9641
1.3007 9.0464 -0.0515 0.9641
0.0000 9.2650 -0.0522 0.9636
-0.3329 9.3209 -0.0525 0.9634
-2.4707 9.6802 -0.0562 0.9608
5.6729 8.1705 -0.2801 0.9610
4.9074 8.2710 -0.2708 0.9622
4.2779 8.5462 -0.2691 0.9625
3.9296 8.6047 -0.2664 0.9629
3.5880 8.6621 -0.2640 0.9632
3.2519 8.7186 -0.2620 0.9634
2.9204 8.7743 -0.2604 0.9637
2.5926 8.8294 -0.2591 0.9638
2.2675 8.8840 -0.2582 0.9640
1.3007 9.0465 -0.2573 0.9641
0.9749 9.0676 -0.2568 0.9642
0.6548 9.1550 -0.2584 0.9639
0.0000 9.2650 -0.2609 0.9636
-0.6707 9.3777 -0.2647 0.9631
-2.0919 9.6166 -0.2771 0.9614
-2.4707 9.6802 -0.2813 0.9608
4.8921 8.2452 -0.4862 0.9623
3.5880 8.6622 -0.4755 0.9631
2.9204 8.7744 -0.4690 0.9636
2.2675 8.8841 -0.4650 0.9639
1.9444 8.9384 -0.4639 0.9640
1.6224 8.9925 -0.4634 0.9641
0.9749 9.0677 -0.4625 0.9641
0.0000 9.2651 -0.4699 0.9636
-0.3329 9.3210 -0.4730 0.9633
-0.6707 9.3778 -0.4768 0.9630
-1.0144 9.4356 -0.4813 0.9627
-1.3651 9.4945 -0.4865 0.9623
-1.7239 9.5548 -0.4924 0.9619
-2.0920 9.6166 -0.4991 0.9613
5.2407 8.1547 -0.7108 0.9619
4.6287 8.4768 -0.7082 0.9620
4.2780 8.5463 -0.7008 0.9624
3.9297 8.6048 -0.6936 0.9628
2.5926 8.8295 -0.6747 0.9638
1.9444 8.9384 -0.6707 0.9640
0.9749 9.0677 -0.6687 0.9641
0.0000 9.2651 -0.6793 0.9635
-1.0144 9.4356 -0.6958 0.9627
-1.3651 9.4945 -0.7033 0.9623
-1.7239 9.5548 -0.7119 0.9618
5.5954 8.0589 -0.9419 0.9613
4.6287 8.4768 -0.9272 0.9619
4.2780 8.5463 -0.9175 0.9623
3.9297 8.6049 -0.9082 0.9627
2.9204 8.7745 -0.8878 0.9635
1.6224 8.9926 -0.8773 0.9639
1.3007 9.0466 -0.8775 0.9639
0.6548 9.1552 -0.8812 0.9638
0.3289 9.2099 -0.8848 0.9636
0.0000 9.2652 -0.8895 0.9635
-0.6707 9.3779 -0.9026 0.9629
-1.3651 9.4946 -0.9209 0.9622
-1.7239 9.5549 -0.9321 0.9617
3.5881 8.6623 -1.1137 0.9629
3.2519 8.7188 -1.1054 0.9632
2.9204 8.7745 -1.0985 0.9634
2.2676 8.8842 -1.0892 0.9637
1.3007 9.0467 -1.0857 0.9639
0.3289 9.2100 -1.0947 0.9636
0.0000 9.2652 -1.1006 0.9634
-0.3329 9.3212 -1.1079 0.9631
-1.0144 9.4357 -1.1273 0.9625
-1.3651 9.4946 -1.1394 0.9621
-1.7239 9.5549 -1.1533 0.9616
4.9998 7.7798 -1.3103 0.9633
4.6288 8.4769 -1.3685 0.9617
3.9298 8.6050 -1.3404 0.9625
3.5881 8.6624 -1.3285 0.9628
2.9205 8.7746 -1.3103 0.9633
2.5926 8.8296 -1.3039 0.9635
2.2676 8.8843 -1.2992 0.9636
1.9445 8.9386 -1.2961 0.9637
0.9749 9.0678 -1.2922 0.9638
0.6548 9.1553 -1.3005 0.9636
0.3289 9.2100 -1.3058 0.9635
-0.3329 9.3212 -1.3216 0.9630
-1.3651 9.4947 -1.3591 0.9620
-1.7239 9.5550 -1.3757 0.9615
4.2781 8.5465 -1.5745 0.9620
3.5881 8.6624 -1.5446 0.9627
3.2520 8.7189 -1.5330 0.9630
2.5926 8.8297 -1.5160 0.9634
1.6225 8.9927 -1.5054 0.9636
1.3007 9.0468 -1.5057 0.9636
0.9749 9.0679 -1.5024 0.9637
-0.6707 9.3781 -1.5489 0.9626
-1.0145 9.4358 -1.5634 0.9623
-1.7239 9.5551 -1.5995 0.9614
-2.0920 9.6169 -1.6213 0.9609
5.3133 8.2677 -1.8472 0.9608
4.3990 8.7881 -1.8472 0.9608
4.0825 8.9395 -1.8472 0.9608
3.2462 8.7033 -1.7460 0.9629
2.9182 8.7677 -1.7369 0.9631
2.5926 8.8296 -1.7297 0.9632
2.2676 8.8844 -1.7234 0.9634
1.9445 8.9387 -1.7194 0.9635
1.6225 8.9928 -1.7176 0.9635
1.3007 9.0468 -1.7179 0.9635
0.9749 9.0679 -1.7142 0.9636
0.6548 9.1554 -1.7252 0.9633
0.3289 9.2080 -1.7318 0.9632
9.4662 0.0000 -2.0010 0.9620
9.4109 1.0118 -2.0007 0.9620
9.3685 1.3470 -2.0007 0.9620
8.9789 2.9885 -2.0003 0.9620
8.8524 3.3018 -1.9972 0.9621
8.6882 3.5988 -1.9878 0.9623
8.1220 3.7092 -1.8874 0.9642
7.5184 4.4609 -1.8479 0.9649
7.1807 4.9856 -1.8478 0.9649
6.9980 5.2386 -1.8478 0.9649
6.6062 5.7243 -1.8477 0.9649
6.3975 5.9563 -1.8477 0.9649
5.4844 6.8057 -1.8476 0.9649
4.7253 7.3528 -1.8475 0.9649
4.4599 7.5167 -1.8475 0.9649
3.3447 8.0748 -1.8475 0.9649
2.7601 8.2928 -1.8475 0.9649
2.4624 8.3861 -1.8475 0.9649
2.1615 8.4687 -1.8475 0.9649
1.8579 8.5405 -1.8475 0.9649
1.2439 8.6514 -1.8475 0.9649
0.6236 8.7183 -1.8476 0.9649
0.3120 8.7352 -1.8476 0.9649
0.0000 8.7408 -1.8476 0.9649
-0.3120 8.7354 -1.8477 0.9649
-0.6236 8.7189 -1.8477 0.9649
-1.5521 8.6028 -1.8478 0.9649
-2.4630 8.3882 -1.8480 0.9649
-3.0553 8.1916 -1.8481 0.9649
-3.3458 8.0776 -1.8481 0.9649
-4.1905 7.6743 -1.8483 0.9649
-4.9874 7.1832 -1.8485 0.9649
-5.7273 6.6096 -1.8487 0.9649
-6.4017 5.9602 -1.8489 0.9649
-6.6106 5.7282 -1.8490 0.9649
-6.8112 5.4888 -1.8490 0.9649
-7.0030 5.2424 -1.8491 0.9649
-7.1860 4.9893 -1.8492 0.9649
-7.5242 4.4643 -1.8494 0.9649
-8.0541 4.0316 -1.9039 0.9638
-9.0880 2.6685 -2.0021 0.9620
-9.3223 1.6819 -2.0024 0.9620
-9.3768 1.3482 -2.0025 0.9620
-9.4194 1.0127 -2.0025 0.9620
8.5086 0.3039 -2.0010 0.9656
8.4921 0.6074 -2.0009 0.9656
8.4647 0.9100 -2.0009 0.9656
8.3776 1.5115 -2.0007 0.9656
8.3181 1.8095 -2.0007 0.9656
8.2479 2.1052 -2.0006 0.9656
8.1673 2.3981 -2.0005 0.9656
8.0763 2.6880 -2.0005 0.9656
7.9749 2.9745 -2.0004 0.9656
7.5560 3.7823 -1.9859 0.9659
6.7627 4.0125 -1.8481 0.9682
6.2946 4.7121 -1.8480 0.9682
5.9422 5.1489 -1.8479 0.9682
5.3575 5.7544 -1.8478 0.9682
4.9332 6.1218 -1.8478 0.9682
3.7678 6.9002 -1.8477 0.9682
3.5191 7.0302 -1.8477 0.9682
2.7474 7.3661 -1.8477 0.9682
2.2149 7.5434 -1.8477 0.9682
1.9443 7.6176 -1.8477 0.9682
1.6712 7.6822 -1.8477 0.9682
1.1189 7.7820 -1.8478 0.9682
0.8404 7.8171 -1.8478 0.9682
0.2806 7.8573 -1.8478 0.9682
0.0000 7.8624 -1.8478 0.9682
-1.1190 7.7829 -1.8480 0.9682
-1.3961 7.7382 -1.8480 0.9682
-2.2154 7.5451 -1.8481 0.9682
-2.4834 7.4614 -1.8482 0.9682
-2.7482 7.3682 -1.8482 0.9682
-3.2670 7.1537 -1.8483 0.9682
-3.7692 6.9029 -1.8484 0.9682
-4.0133 6.7641 -1.8485 0.9682
-4.2523 6.6168 -1.8485 0.9682
-4.4859 6.4610 -1.8486 0.9682
-5.5628 5.5628 -1.8489 0.9682
-5.9459 5.1521 -1.8490 0.9682
-6.1262 4.9368 -1.8491 0.9682
-6.4632 4.4875 -1.8492 0.9682
-6.6195 4.2541 -1.8493 0.9682
-7.0136 4.1614 -1.9167 0.9670
-7.7477 3.5383 -2.0018 0.9656
-8.2544 2.1068 -2.0022 0.9656
-8.4989 0.6079 -2.0025 0.9656
-8.5155 0.3041 -2.0026 0.9656
7.7289 0.0000 -2.0011 0.9686
7.7237 0.2759 -2.0011 0.9686
7.6492 1.0998 -2.0009 0.9686
7.6049 1.3721 -2.0008 0.9686
7.5508 1.6426 -2.0008 0.9686
7.4872 1.9110 -2.0007 0.9686
7.3314 2.4401 -2.0006 0.9686
7.2394 2.7002 -2.0006 0.9686
7.1383 2.9568 -2.0005 0.9686
7.0280 3.2096 -2.0005 0.9686
6.9070 3.4574 -1.9999 0.9686
6.6121 3.9231 -1.9907 0.9687
6.2154 3.9944 -1.9130 0.9699
5.8633 4.0710 -1.8482 0.9709
5.5578 4.4787 -1.8481 0.9709
5.3943 4.6742 -1.8481 0.9709
5.2240 4.8637 -1.8480 0.9709
5.0470 5.0470 -1.8480 0.9709
4.4784 5.5573 -1.8480 0.9709
4.2771 5.7136 -1.8479 0.9709
4.0705 5.8626 -1.8479 0.9709
3.8586 6.0041 -1.8479 0.9709
3.6418 6.1379 -1.8479 0.9709
3.4204 6.2640 -1.8479 0.9709
2.9648 6.4920 -1.8479 0.9709
2.7312 6.5937 -1.8479 0.9709
2.4941 6.6869 -1.8479 0.9709
2.0107 6.8479 -1.8479 0.9709
1.0157 7.0645 -1.8479 0.9709
0.5092 7.1191 -1.8480 0.9709
0.2548 7.1328 -1.8480 0.9709
0.0000 7.1375 -1.8480 0.9709
-0.2548 7.1330 -1.8480 0.9709
-0.7630 7.0969 -1.8481 0.9709
-1.0158 7.0652 -1.8481 0.9709
-1.7653 6.9166 -1.8482 0.9709
-2.4947 6.6887 -1.8484 0.9709
-2.9657 6.4940 -1.8484 0.9709
-3.1957 6.3842 -1.8485 0.9709
-3.4216 6.2662 -1.8485 0.9709
-3.8601 6.0065 -1.8486 0.9709
-4.0722 5.8650 -1.8487 0.9709
-4.8660 5.2264 -1.8489 0.9709
-5.0496 5.0496 -1.8490 0.9709
-5.2268 4.8663 -1.8490 0.9709
-5.3973 4.6768 -1.8491 0.9709
-6.1287 4.2552 -1.9318 0.9696
-6.4809 4.1650 -1.9947 0.9687
-6.6373 3.9381 -1.9982 0.9686
-6.7852 3.7050 -2.0017 0.9686
-7.1431 2.9588 -2.0019 0.9686
-7.2444 2.7021 -2.0019 0.9686
-7.4925 1.9124 -2.0021 0.9686
-7.5563 1.6438 -2.0022 0.9686
-7.6104 1.3731 -2.0023 0.9686
-7.6548 1.1006 -2.0023 0.9686
-7.7294 0.2761 -2.0025 0.9685
7.0644 0.2523 -2.0011 0.9710
6.9558 1.2550 -2.0009 0.9710
6.9064 1.5024 -2.0009 0.9710
6.7812 1.9911 -2.0008 0.9710
6.7057 2.2319 -2.0007 0.9710
6.5291 2.7044 -2.0006 0.9710
6.4282 2.9357 -2.0006 0.9710
6.0743 3.6040 -1.9995 0.9711
5.7835 4.0155 -1.9932 0.9712
5.1474 4.1480 -1.8714 0.9729
4.9340 4.2754 -1.8482 0.9732
4.7782 4.4487 -1.8482 0.9732
4.6163 4.6163 -1.8482 0.9732
4.4486 4.7781 -1.8481 0.9732
4.2751 4.9338 -1.8481 0.9732
4.0963 5.0832 -1.8481 0.9732
3.9122 5.2261 -1.8481 0.9732
3.5294 5.4918 -1.8481 0.9732
3.3311 5.6142 -1.8481 0.9732
3.1286 5.7295 -1.8480 0.9732
2.9221 5.8375 -1.8480 0.9732
2.7118 5.9381 -1.8480 0.9732
2.4982 6.0311 -1.8480 0.9732
2.2813 6.1164 -1.8480 0.9732
2.0616 6.1939 -1.8480 0.9732
1.8392 6.2636 -1.8480 0.9732
1.3877 6.3789 -1.8481 0.9732
0.9291 6.4617 -1.8481 0.9732
0.6978 6.4908 -1.8481 0.9732
0.2330 6.5242 -1.8481 0.9732
-0.2330 6.5244 -1.8482 0.9732
-0.4658 6.5120 -1.8482 0.9732
-0.9291 6.4624 -1.8483 0.9732
-1.1592 6.4252 -1.8483 0.9732
-1.3878 6.3798 -1.8483 0.9732
-1.6147 6.3263 -1.8484 0.9732
-1.8395 6.2648 -1.8484 0.9732
-2.0620 6.1953 -1.8484 0.9732
-2.7126 5.9397 -1.8486 0.9732
-2.9229 5.8393 -1.8486 0.9732
-3.3322 5.6162 -1.8487 0.9732
-3.5306 5.4938 -1.8487 0.9732
-3.9138 5.2282 -1.8488 0.9732
-4.2770 4.9359 -1.8489 0.9732
-4.4506 4.7803 -1.8490 0.9732
-4.6185 4.6185 -1.8490 0.9732
-4.7806 4.4509 -1.8491 0.9732
-5.3650 4.3234 -1.9506 0.9718
-5.6413 4.2231 -1.9949 0.9711
-5.9473 3.8221 -2.0013 0.9710
-6.0807 3.6079 -2.0016 0.9710
-6.2058 3.3886 -2.0017 0.9710
-6.3230 3.1651 -2.0017 0.9710
-6.4322 2.9375 -2.0018 0.9710
-6.5331 2.7061 -2.0019 0.9710
-6.6258 2.4713 -2.0019 0.9710
-6.7100 2.2333 -2.0020 0.9710
-6.7856 1.9925 -2.0021 0.9710
-6.9109 1.5034 -2.0022 0.9710
-6.9604 1.2558 -2.0022 0.9710
-7.0010 1.0066 -2.0023 0.9710
-7.0691 0.2525 -2.0025 0.9710
6.4687 0.6954 -2.0011 0.9731
6.3568 1.3828 -2.0009 0.9731
6.3033 1.6088 -2.0009 0.9731
6.1722 2.0543 -2.0008 0.9731
6.0948 2.2732 -2.0008 0.9731
6.0096 2.4893 -2.0007 0.9731
5.9168 2.7021 -2.0007 0.9731
5.8165 2.9115 -2.0006 0.9731
5.4716 3.5164 -2.0005 0.9731
5.3400 3.7076 -1.9995 0.9732
4.5208 4.2090 -1.8999 0.9745
4.2521 4.2521 -1.8496 0.9751
3.9351 4.5413 -1.8482 0.9752
3.7704 4.6788 -1.8482 0.9752
3.6010 4.8104 -1.8482 0.9752
3.4270 4.9358 -1.8482 0.9752
3.2486 5.0550 -1.8482 0.9752
3.0661 5.1677 -1.8482 0.9752
2.6896 5.3732 -1.8482 0.9752
2.2995 5.5514 -1.8482 0.9752
2.0998 5.6299 -1.8482 0.9752
1.6929 5.7654 -1.8482 0.9752
1.2773 5.8715 -1.8482 0.9752
1.0669 5.9134 -1.8482 0.9752
0.8552 5.9478 -1.8482 0.9752
0.6423 5.9745 -1.8482 0.9752
0.2145 6.0052 -1.8483 0.9752
0.0000 6.0091 -1.8483 0.9752
-0.2145 6.0054 -1.8483 0.9752
-0.6424 5.9749 -1.8483 0.9752
-1.6932 5.7664 -1.8485 0.9752
-1.8979 5.7024 -1.8485 0.9752
-2.1003 5.6311 -1.8486 0.9752
-2.3000 5.5527 -1.8486 0.9752
-2.4968 5.4672 -1.8486 0.9752
-2.6904 5.3747 -1.8487 0.9752
-3.0671 5.1693 -1.8488 0.9752
-4.1244 4.4299 -1.8617 0.9750
-4.6932 4.3696 -1.9723 0.9735
-4.9030 4.2485 -1.9955 0.9732
-5.0586 4.0765 -1.9982 0.9732
-5.3453 3.7113 -2.0015 0.9731
-5.4745 3.5182 -2.0016 0.9731
-5.5967 3.3207 -2.0016 0.9731
-5.9202 2.7037 -2.0018 0.9731
-6.2454 1.8338 -2.0020 0.9731
-6.3607 1.3837 -2.0022 0.9731
-6.4062 1.1558 -2.0022 0.9731
-6.4435 0.9264 -2.0023 0.9731
-6.4727 0.6959 -2.0023 0.9731
-6.4936 0.4644 -2.0024 0.9731
-6.5062 0.2324 -2.0024 0.9731
6.0207 -0.0000 -2.0013 0.9749
6.0167 0.2149 -2.0013 0.9749
6.0050 0.4295 -2.0012 0.9749
5.9857 0.6435 -2.0012 0.9749
5.9588 0.8568 -2.0011 0.9749
5.8822 1.2796 -2.0010 0.9749
5.8327 1.4887 -2.0010 0.9749
5.7757 1.6959 -2.0009 0.9749
5.7114 1.9009 -2.0009 0.9749
5.6398 2.1035 -2.0008 0.9749
5.5610 2.3034 -2.0008 0.9749
5.4751 2.5004 -2.0008 0.9749
5.2826 2.8845 -2.0007 0.9749
5.1762 3.0712 -2.0007 0.9749
5.0632 3.2539 -2.0006 0.9749
4.9438 3.4325 -2.0006 0.9749
4.8180 3.6067 -2.0006 0.9749
4.2244 4.2244 -1.9859 0.9751
3.9672 4.2611 -1.9353 0.9758
3.7221 4.2955 -1.8893 0.9763
3.4914 4.3326 -1.8496 0.9768
3.3322 4.4514 -1.8483 0.9768
3.1712 4.5674 -1.8483 0.9768
3.0062 4.6777 -1.8483 0.9768
2.8373 4.7820 -1.8483 0.9768
2.6648 4.8802 -1.8483 0.9768
1.9431 5.2097 -1.8483 0.9768
1.7559 5.2758 -1.8483 0.9768
1.1819 5.4333 -1.8483 0.9768
0.9873 5.4721 -1.8483 0.9768
0.5944 5.5286 -1.8483 0.9768
0.3967 5.5463 -1.8483 0.9768
0.1985 5.5570 -1.8484 0.9768
-0.1985 5.5571 -1.8484 0.9768
-0.5944 5.5290 -1.8484 0.9768
-0.7914 5.5043 -1.8485 0.9768
-0.9874 5.4726 -1.8485 0.9768
-1.3753 5.3884 -1.8486 0.9768
-1.5668 5.3360 -1.8486 0.9768
-1.9435 5.2108 -1.8486 0.9768
-2.8381 4.7834 -1.8488 0.9768
-3.1723 4.5689 -1.8489 0.9768
-3.5865 4.4506 -1.9000 0.9762
-3.8384 4.4298 -1.9484 0.9756
-4.5496 3.9423 -2.0011 0.9749
-4.6883 3.7781 -2.0014 0.9749
-4.9461 3.4341 -2.0015 0.9749
-5.0657 3.2555 -2.0016 0.9749
-5.2853 2.8860 -2.0017 0.9749
-5.3851 2.6956 -2.0018 0.9749
-5.4780 2.5017 -2.0018 0.9749
-5.5639 2.3046 -2.0019 0.9749
-5.7145 1.9020 -2.0020 0.9749
-5.7789 1.6968 -2.0020 0.9749
-5.8359 1.4895 -2.0021 0.9749
-5.9276 1.0695 -2.0022 0.9749
-5.9622 0.8572 -2.0022 0.9749
-5.9891 0.6439 -2.0023 0.9749
-6.0201 0.2150 -2.0024 0.9749
5.5928 0.1997 -2.0013 0.9765
5.5640 0.5982 -2.0012 0.9765
5.5390 0.7964 -2.0012 0.9765
5.4218 1.3838 -2.0010 0.9765
5.3091 1.7670 -2.0010 0.9765
5.1693 2.1412 -2.0009 0.9765
5.0895 2.3243 -2.0008 0.9765
5.0032 2.5044 -2.0008 0.9765
4.9105 2.6814 -2.0008 0.9765
4.7066 3.0248 -2.0007 0.9765
4.4787 3.3527 -2.0007 0.9765
4.3561 3.5104 -2.0006 0.9765
4.2280 3.6636 -2.0006 0.9765
3.9508 3.9508 -1.9980 0.9765
3.8034 4.0851 -1.9960 0.9766
3.4699 4.3059 -1.9775 0.9768
3.2437 4.3331 -1.9356 0.9773
3.0241 4.3555 -1.8962 0.9777
2.3136 4.6220 -1.8484 0.9783
1.2783 5.0082 -1.8484 0.9783
0.9177 5.0867 -1.8484 0.9783
0.7356 5.1162 -1.8484 0.9783
0.0000 5.1690 -1.8485 0.9783
-0.3688 5.1559 -1.8485 0.9783
-0.7357 5.1166 -1.8486 0.9783
-0.9178 5.0872 -1.8486 0.9783
-1.0988 5.0512 -1.8486 0.9783
-1.2784 5.0089 -1.8486 0.9783
-1.6326 4.9051 -1.8487 0.9783
-1.9784 4.7762 -1.8488 0.9783
-2.3142 4.6231 -1.8488 0.9783
-2.8808 4.4826 -1.9055 0.9776
-3.1004 4.4654 -1.9440 0.9772
-3.3288 4.4468 -1.9864 0.9767
-3.6573 4.2207 -1.9972 0.9766
-3.8096 4.0918 -1.9993 0.9765
-4.0961 3.8136 -2.0014 0.9765
-4.2297 3.6651 -2.0014 0.9765
-4.4806 3.3542 -2.0015 0.9765
-4.5976 3.1922 -2.0016 0.9765
-4.7087 3.0261 -2.0016 0.9765
-5.0056 2.5056 -2.0018 0.9765
-5.0919 2.3254 -2.0018 0.9765
-5.1718 2.1423 -2.0019 0.9765
-5.2451 1.9563 -2.0019 0.9765
-5.3118 1.7679 -2.0020 0.9765
-5.3716 1.5773 -2.0020 0.9765
-5.4246 1.3846 -2.0021 0.9765
-5.4707 1.1901 -2.0021 0.9765
-5.5098 0.9941 -2.0022 0.9765
-5.5419 0.7968 -2.0022 0.9765
-5.5670 0.5985 -2.0023 0.9765
-5.5849 0.3994 -2.0023 0.9765
-5.5958 0.1998 -2.0024 0.9765
5.2226 0.0000 -2.0014 0.9779
5.2090 0.3725 -2.0013 0.9779
5.1690 0.7432 -2.0012 0.9779
5.1390 0.9272 -2.0012 0.9779
5.0596 1.2914 -2.0011 0.9779
4.9544 1.6490 -2.0010 0.9779
4.8923 1.8247 -2.0010 0.9779
4.8240 1.9982 -2.0010 0.9779
4.7495 2.1690 -2.0009 0.9779
4.6690 2.3371 -2.0009 0.9779
4.5825 2.5023 -2.0009 0.9779
4.4902 2.6642 -2.0008 0.9779
4.1796 3.1288 -2.0007 0.9779
4.0652 3.2759 -2.0007 0.9779
3.8210 3.5575 -2.0007 0.9779
3.6916 3.6916 -2.0007 0.9779
3.4163 3.9426 -1.9992 0.9779
3.2705 4.0584 -1.9974 0.9779
3.1209 4.1691 -1.9957 0.9779
2.9677 4.2743 -1.9941 0.9780
2.3993 4.3940 -1.9185 0.9788
2.0229 4.4294 -1.8661 0.9794
1.8459 4.4563 -1.8485 0.9795
1.6857 4.5194 -1.8485 0.9795
1.5233 4.5767 -1.8485 0.9795
1.1929 4.6737 -1.8485 0.9795
1.0253 4.7133 -1.8485 0.9795
0.6865 4.7745 -1.8485 0.9795
0.5156 4.7960 -1.8485 0.9795
0.3441 4.8114 -1.8485 0.9795
-0.5156 4.7963 -1.8486 0.9795
-0.8565 4.7474 -1.8487 0.9795
-1.0254 4.7138 -1.8487 0.9795
-1.1930 4.6743 -1.8487 0.9795
-1.5235 4.5774 -1.8488 0.9795
-1.8683 4.5106 -1.8710 0.9793
-2.0559 4.5018 -1.8966 0.9790
-2.2487 4.4924 -1.9252 0.9787
-2.8145 4.3795 -1.9950 0.9779
-3.2749 4.0640 -2.0001 0.9779
-3.4199 3.9467 -2.0013 0.9779
-3.8224 3.5588 -2.0014 0.9779
-4.1812 3.1300 -2.0015 0.9779
-4.2904 2.9789 -2.0016 0.9779
-4.4922 2.6653 -2.0017 0.9779
-4.8262 1.9991 -2.0019 0.9779
-4.8946 1.8256 -2.0019 0.9779
-4.9567 1.6498 -2.0020 0.9779
-5.0126 1.4718 -2.0020 0.9779
-5.0621 1.2920 -2.0021 0.9779
-5.1051 1.1105 -2.0021 0.9779
-5.1715 0.7435 -2.0022 0.9779
-5.2116 0.3728 -2.0023 0.9779
4.8901 0.0000 -2.0014 0.9791
4.8869 0.1745 -2.0014 0.9791
4.8775 0.3488 -2.0013 0.9791
4.8618 0.5227 -2.0013 0.9791
4.8400 0.6959 -2.0013 0.9791
4.8120 0.8682 -2.0012 0.9791
4.7376 1.2092 -2.0011 0.9791
4.3719 2.1884 -2.0009 0.9791
4.2909 2.3430 -2.0009 0.9791
4.2045 2.4946 -2.0009 0.9791
4.1127 2.6431 -2.0009 0.9791
4.0157 2.7882 -2.0008 0.9791
3.8065 3.0675 -2.0008 0.9791
3.6946 3.2014 -2.0008 0.9791
3.5779 3.3312 -2.0008 0.9791
3.3311 3.5778 -2.0007 0.9791
3.0673 3.8063 -2.0007 0.9791
2.7854 4.0117 -1.9988 0.9791
2.3359 4.2779 -1.9948 0.9792
1.6557 4.4392 -1.9391 0.9797
1.3094 4.4593 -1.9021 0.9801
1.1405 4.4685 -1.8875 0.9803
0.8092 4.4853 -1.8654 0.9805
0.6460 4.4930 -1.8578 0.9806
0.4840 4.5024 -1.8533 0.9806
0.0000 4.5193 -1.8496 0.9807
-0.1614 4.5194 -1.8509 0.9806
-0.3231 4.5179 -1.8538 0.9806
-0.4856 4.5163 -1.8591 0.9806
-0.6493 4.5161 -1.8673 0.9805
-0.9821 4.5146 -1.8909 0.9802
-1.1519 4.5132 -1.9064 0.9801
-1.3246 4.5113 -1.9243 0.9799
-1.6774 4.4974 -1.9645 0.9795
-1.8594 4.4890 -1.9886 0.9792
-2.0242 4.4324 -1.9943 0.9792
-2.4913 4.1988 -1.9982 0.9791
-3.4578 3.4578 -2.0014 0.9791
-3.5791 3.3323 -2.0014 0.9791
-3.6958 3.2025 -2.0015 0.9791
-4.2062 2.4957 -2.0017 0.9791
-4.4492 2.0319 -2.0018 0.9791
-4.6412 1.5447 -2.0020 0.9791
-4.7800 1.0398 -2.0021 0.9791
-2.1703 0.3916 -0.9026 0.9905
-1.9449 0.2796 -0.8042 0.9915
-1.9569 0.2104 -0.8055 0.9915
-1.9308 0.0690 -0.7907 0.9917
4.5924 0.0000 -2.0014 0.9802
4.5894 0.1639 -2.0014 0.9802
4.5805 0.3276 -2.0014 0.9802
4.5453 0.6535 -2.0013 0.9802
4.4870 0.9761 -2.0012 0.9802
4.4492 1.1356 -2.0012 0.9802
4.3567 1.4500 -2.0011 0.9802
4.3021 1.6046 -2.0011 0.9802
4.1765 1.9074 -2.0010 0.9802
4.0297 2.2004 -2.0010 0.9802
3.7713 2.6184 -2.0009 0.9802
3.5748 2.8808 -2.0009 0.9802
3.3601 3.1284 -2.0008 0.9802
3.0064 3.4696 -2.0008 0.9802
2.8806 3.5746 -2.0008 0.9802
2.7512 3.6751 -2.0008 0.9802
2.1986 4.0264 -1.9993 0.9802
2.0524 4.1001 -1.9982 0.9802
1.9038 4.1687 -1.9973 0.9802
1.7530 4.2320 -1.9964 0.9802
1.6001 4.2901 -1.9955 0.9802
0.9695 4.4565 -1.9877 0.9803
0.8055 4.4647 -1.9772 0.9804
0.6430 4.4725 -1.9692 0.9805
0.3209 4.4865 -1.9603 0.9806
-0.4833 4.4956 -1.9706 0.9805
-0.6463 4.4954 -1.9793 0.9804
-0.8109 4.4947 -1.9905 0.9803
-1.1317 4.4341 -1.9944 0.9802
-1.2898 4.3925 -1.9951 0.9802
-1.4463 4.3454 -1.9959 0.9802
-1.7542 4.2350 -1.9978 0.9802
-2.3430 3.9490 -2.0012 0.9802
-2.4825 3.8629 -2.0012 0.9802
-2.7519 3.6761 -2.0013 0.9802
-2.8814 3.5756 -2.0013 0.9802
-3.0072 3.4706 -2.0014 0.9802
-3.1293 3.3611 -2.0014 0.9802
-3.2473 3.2473 -2.0014 0.9802
-3.3612 3.1294 -2.0015 0.9802
-3.4708 3.0075 -2.0015 0.9802
-3.6767 2.7523 -2.0016 0.9802
-3.7726 2.6194 -2.0016 0.9802
-3.8638 2.4831 -2.0017 0.9802
-4.0313 2.2012 -2.0017 0.9802
-1.5984 0.5962 -0.7435 0.9926
-1.5875 0.5284 -0.7292 0.9927
-1.5707 0.4612 -0.7134 0.9929
-1.5002 0.2707 -0.6643 0.9934
-1.5249 0.1639 -0.6684 0.9933
4.3211 0.1543 -2.0014 0.9811
4.3127 0.3085 -2.0014 0.9811
4.2989 0.4622 -2.0014 0.9811
4.2247 0.9190 -2.0013 0.9811
4.1482 1.2180 -2.0012 0.9811
3.9941 1.6544 -2.0011 0.9811
3.8658 1.9350 -2.0011 0.9811
3.7942 2.0718 -2.0010 0.9811
3.7178 2.2058 -2.0010 0.9811
3.4606 2.5905 -2.0009 0.9811
3.2669 2.8308 -2.0009 0.9811
2.9455 3.1637 -2.0009 0.9811
2.5904 3.4604 -2.0008 0.9811
2.4652 3.5506 -2.0008 0.9811
2.2056 3.7174 -2.0008 0.9811
2.0715 3.7937 -2.0008 0.9811
1.9348 3.8652 -2.0008 0.9811
1.6539 3.9929 -2.0006 0.9811
1.0673 4.1818 -1.9978 0.9812
0.9172 4.2162 -1.9973 0.9812
0.1539 4.3098 -1.9962 0.9812
0.0000 4.3125 -1.9962 0.9812
-0.3077 4.3021 -1.9965 0.9812
-0.6140 4.2705 -1.9971 0.9812
-0.7662 4.2468 -1.9975 0.9812
-1.3646 4.1000 -2.0002 0.9811
-1.6544 3.9940 -2.0011 0.9811
-1.7959 3.9325 -2.0011 0.9811
-1.9352 3.8660 -2.0012 0.9811
-2.0719 3.7945 -2.0012 0.9811
-2.4658 3.5514 -2.0013 0.9811
-2.8314 3.2676 -2.0014 0.9811
-2.9463 3.1646 -2.0014 0.9811
-3.3669 2.7132 -2.0016 0.9811
-3.5520 2.4662 -2.0016 0.9811
-3.7191 2.2066 -2.0017 0.9811
-3.7955 2.0725 -2.0018 0.9811
-3.8672 1.9358 -2.0018 0.9811
-1.3263 0.5494 -0.6645 0.9937
-1.3324 0.4435 -0.6500 0.9938
-1.3240 0.3888 -0.6388 0.9939
-1.3013 0.2831 -0.6164 0.9941
-1.3160 0.2374 -0.6190 0.9941
-1.3384 0.0957 -0.6211 0.9941
4.0803 0.0000 -2.0015 0.9820
4.0776 0.1456 -2.0015 0.9820
4.0698 0.2911 -2.0014 0.9820
4.0385 0.5806 -2.0014 0.9820
3.9867 0.8672 -2.0013 0.9820
3.9145 1.1494 -2.0012 0.9820
3.8710 1.2884 -2.0012 0.9820
3.8225 1.4257 -2.0012 0.9820
3.6480 1.8261 -2.0011 0.9820
3.5805 1.9551 -2.0011 0.9820
3.5084 2.0816 -2.0011 0.9820
3.4318 2.2055 -2.0010 0.9820
3.3509 2.3265 -2.0010 0.9820
3.1763 2.5596 -2.0010 0.9820
3.0829 2.6713 -2.0010 0.9820
2.7796 2.9855 -2.0009 0.9820
2.6713 3.0828 -2.0009 0.9820
2.3264 3.3506 -2.0009 0.9820
2.2053 3.4315 -2.0009 0.9820
1.6945 3.7104 -2.0009 0.9820
1.0088 3.9523 -2.0009 0.9820
0.7242 4.0143 -2.0009 0.9820
0.5804 4.0370 -2.0006 0.9820
0.2909 4.0675 -2.0003 0.9820
0.1456 4.0752 -2.0003 0.9820
-0.1456 4.0753 -2.0003 0.9820
-0.2909 4.0679 -2.0005 0.9820
-0.7243 4.0145 -2.0010 0.9820
-1.1493 3.9142 -2.0011 0.9820
-1.9552 3.5807 -2.0012 0.9820
-2.0818 3.5087 -2.0013 0.9820
-2.3269 3.3514 -2.0013 0.9820
-2.5601 3.1769 -2.0014 0.9820
-2.6719 3.0836 -2.0014 0.9820
-2.7803 2.9863 -2.0014 0.9820
-2.8852 2.8852 -2.0015 0.9820
-3.0838 2.6721 -2.0015 0.9820
-3.1772 2.5604 -2.0016 0.9820
-3.3519 2.3273 -2.0017 0.9820
-3.5095 2.0823 -2.0017 0.9820
-1.1291 0.5652 -0.6194 0.9944
-1.1400 0.5206 -0.6148 0.9944
-1.1484 0.4757 -0.6097 0.9945
-1.1543 0.4305 -0.6043 0.9945
-1.1578 0.3854 -0.5986 0.9946
-1.1590 0.3403 -0.5925 0.9946
-1.1578 0.2955 -0.5861 0.9947
-1.1695 0.2544 -0.5871 0.9947
-1.1791 0.2127 -0.5877 0.9947
-1.1867 0.1706 -0.5881 0.9947
3.8581 0.0000 -2.0015 0.9828
3.8482 0.2752 -2.0014 0.9828
3.7965 0.6850 -2.0014 0.9828
3.7696 0.8200 -2.0013 0.9828
3.7379 0.9540 -2.0013 0.9828
3.7014 1.0868 -2.0013 0.9828
3.6602 1.2182 -2.0012 0.9828
3.6143 1.3481 -2.0012 0.9828
3.5089 1.6024 -2.0012 0.9828
3.4494 1.7266 -2.0011 0.9828
3.0879 2.3116 -2.0010 0.9828
2.9150 2.5259 -2.0010 0.9828
2.6283 2.8230 -2.0010 0.9828
2.5258 2.9150 -2.0010 0.9828
2.4202 3.0032 -2.0009 0.9828
2.0852 3.2447 -2.0009 0.9828
1.8484 3.3852 -2.0009 0.9828
1.7264 3.4490 -2.0009 0.9828
1.6022 3.5084 -2.0009 0.9828
1.3479 3.6138 -2.0009 0.9828
1.2180 3.6596 -2.0009 0.9828
0.9539 3.7372 -2.0009 0.9828
0.6848 3.7957 -2.0009 0.9828
0.5489 3.8177 -2.0009 0.9828
0.2752 3.8472 -2.0010 0.9828
-0.2752 3.8473 -2.0010 0.9828
-0.4123 3.8351 -2.0010 0.9828
-0.8199 3.7691 -2.0011 0.9828
-1.0867 3.7011 -2.0011 0.9828
-1.2182 3.6600 -2.0011 0.9828
-1.6025 3.5089 -2.0012 0.9828
-1.7267 3.4495 -2.0012 0.9828
-1.9685 3.3177 -2.0013 0.9828
-2.2002 3.1689 -2.0013 0.9828
-2.3119 3.0884 -2.0014 0.9828
-2.5264 2.9156 -2.0014 0.9828
-2.6289 2.8237 -2.0015 0.9828
-2.8238 2.6290 -2.0015 0.9828
-2.9158 2.5266 -2.0016 0.9828
-3.0042 2.4209 -2.0016 0.9828
-3.0888 2.3122 -2.0016 0.9828
-3.1694 2.2005 -2.0017 0.9828
-3.2460 2.0861 -2.0017 0.9828
-1.0298 0.5155 -0.5974 0.9948
-1.0430 0.4763 -0.5948 0.9948
-1.0514 0.4355 -0.5904 0.9949
-1.0636 0.3123 -0.5751 0.9950
-1.0704 0.2732 -0.5731 0.9950
-1.0814 0.2352 -0.5741 0.9950
-1.0974 0.1578 -0.5752 0.9950
-1.1066 0.0395 -0.5744 0.9950
3.6520 0.1304 -2.0015 0.9835
3.6170 0.5200 -2.0014 0.9835
3.5961 0.6488 -2.0014 0.9835
3.5405 0.9037 -2.0013 0.9835
3.4670 1.1539 -2.0013 0.9835
3.3236 1.5179 -2.0012 0.9835
3.2068 1.7511 -2.0012 0.9835
3.1422 1.8644 -2.0011 0.9835
3.0012 2.0837 -2.0011 0.9835
2.9249 2.1895 -2.0011 0.9835
2.6740 2.4896 -2.0010 0.9835
2.5834 2.5834 -2.0010 0.9835
1.9752 3.0734 -2.0010 0.9835
1.7509 3.2065 -2.0010 0.9835
1.6353 3.2669 -2.0010 0.9835
1.5177 3.3232 -2.0010 0.9835
1.2767 3.4230 -2.0010 0.9835
1.1537 3.4664 -2.0010 0.9835
0.9035 3.5399 -2.0010 0.9835
0.7766 3.5699 -2.0010 0.9835
0.6487 3.5953 -2.0010 0.9835
0.5199 3.6162 -2.0010 0.9835
0.0000 3.6535 -2.0010 0.9835
-0.1304 3.6512 -2.0010 0.9835
-0.2606 3.6442 -2.0011 0.9835
-0.3905 3.6326 -2.0011 0.9835
-0.6487 3.5956 -2.0011 0.9835
-0.7766 3.5702 -2.0011 0.9835
-0.9036 3.5402 -2.0011 0.9835
-1.2769 3.4234 -2.0012 0.9835
-1.7512 3.2070 -2.0013 0.9835
-1.8645 3.1425 -2.0013 0.9835
-1.9755 3.0740 -2.0013 0.9835
-2.3930 2.7617 -2.0015 0.9835
-2.5840 2.5840 -2.0015 0.9835
-2.6747 2.4902 -2.0016 0.9835
-2.7619 2.3932 -2.0016 0.9835
-2.8456 2.2931 -2.0016 0.9835
-2.9257 2.1901 -2.0016 0.9835
-0.9084 0.5390 -0.5785 0.9952
-0.9434 0.4722 -0.5778 0.9952
-0.9580 0.4375 -0.5768 0.9952
-0.9677 0.4008 -0.5737 0.9952
-0.9741 0.3633 -0.5694 0.9953
-0.9785 0.3257 -0.5648 0.9953
-1.0190 0.1465 -0.5638 0.9953
-1.0236 0.1100 -0.5639 0.9953
-1.0265 0.0734 -0.5637 0.9953
2.0359 0.1456 -1.1784 0.9906
2.0366 0.2190 -1.1826 0.9906
2.0300 0.2919 -1.1841 0.9906
1.9883 0.4325 -1.1748 0.9906
1.9033 0.6335 -1.1581 0.9908
1.8508 0.8452 -1.1747 0.9906
3.0996 1.5515 -2.0012 0.9841
3.0422 1.6612 -2.0012 0.9841
2.9809 1.7687 -2.0012 0.9841
2.9159 1.8739 -2.0012 0.9841
2.8471 1.9768 -2.0011 0.9841
2.7747 2.0771 -2.0011 0.9841
2.6988 2.1748 -2.0011 0.9841
2.6194 2.2698 -2.0011 0.9841
2.5367 2.3618 -2.0011 0.9841
2.4508 2.4508 -2.0011 0.9841
2.0770 2.7746 -2.0010 0.9841
1.9767 2.8469 -2.0010 0.9841
1.8738 2.9157 -2.0010 0.9841
1.7685 2.9807 -2.0010 0.9841
1.6610 3.0419 -2.0010 0.9841
1.5514 3.0992 -2.0010 0.9841
1.4398 3.1526 -2.0010 0.9841
1.3263 3.2020 -2.0010 0.9841
1.2112 3.2473 -2.0010 0.9841
1.0945 3.2885 -2.0010 0.9841
0.9765 3.3255 -2.0010 0.9841
0.6154 3.4108 -2.0010 0.9841
0.4932 3.4306 -2.0010 0.9841
0.1237 3.4637 -2.0011 0.9841
-0.1237 3.4638 -2.0011 0.9841
-0.4933 3.4308 -2.0011 0.9841
-0.9765 3.3258 -2.0012 0.9841
-1.0946 3.2888 -2.0012 0.9841
-1.3265 3.2024 -2.0013 0.9841
-1.4400 3.1531 -2.0013 0.9841
-1.6613 3.0424 -2.0013 0.9841
-1.7688 2.9812 -2.0014 0.9841
-1.8741 2.9162 -2.0014 0.9841
-2.0774 2.7751 -2.0014 0.9841
-2.4514 2.4514 -2.0015 0.9841
-2.5373 2.3624 -2.0016 0.9841
-2.6201 2.2703 -2.0016 0.9841
-0.7671 0.6182 -0.5688 0.9955
-0.8008 0.5560 -0.5628 0.9955
-0.8178 0.5256 -0.5613 0.9955
-0.8364 0.4963 -0.5615 0.9955
-0.8941 0.3703 -0.5587 0.9955
-0.9011 0.3361 -0.5553 0.9956
-0.9057 0.3015 -0.5511 0.9956
-0.9259 0.2363 -0.5517 0.9956
-0.9352 0.2034 -0.5526 0.9956
-0.9430 0.1701 -0.5532 0.9956
-0.9565 0.0684 -0.5536 0.9956
-0.9575 0.0342 -0.5532 0.9956
