ply
format ascii 1.0
element vertex 707
property float32 x
property float32 y
property float32 z
property float32 I
end_header
-9.2179 -3.4381 -0.7214 0.9613
-9.0738 -3.7585 -0.7201 0.9614
-9.1776 -3.0546 -0.9286 0.9619
-8.7477 -3.2627 -0.8963 0.9632
-8.5530 -2.8467 -1.0708 0.9643
-7.8429 -3.5817 -1.0242 0.9659
-7.7641 -3.8864 -1.0314 0.9656
-7.7054 -3.1917 -1.1817 0.9669
-7.5539 -3.7812 -1.1969 0.9664
-7.6716 -3.1777 -1.3679 0.9669
-7.5322 -3.7704 -1.3876 0.9664
-7.8356 -2.9225 -1.5719 0.9665
-7.6897 -3.1852 -1.5645 0.9667
-9.4785 0.0000 -2.0036 0.9620
-9.4552 -0.6762 -2.0037 0.9620
-9.4254 -1.0133 -2.0038 0.9620
-9.1866 -2.3447 -2.0041 0.9620
-8.3377 -2.7751 -1.8575 0.9647
-8.8841 -3.3136 -2.0043 0.9620
-8.6255 -3.9392 -2.0044 0.9620
-7.9778 -5.1270 -2.0046 0.9620
-7.5920 -5.6833 -2.0046 0.9620
-7.3844 -5.9507 -2.0047 0.9620
-7.1674 -6.2106 -2.0047 0.9620
-6.7062 -6.7062 -2.0047 0.9620
-6.4626 -6.9413 -2.0047 0.9620
-5.9510 -7.3847 -2.0048 0.9620
-5.3675 -7.7307 -1.9894 0.9623
-5.1275 -7.9785 -2.0047 0.9620
-4.8394 -8.1564 -2.0047 0.9620
-2.9948 -8.9980 -2.0046 0.9620
-2.6717 -9.0990 -2.0045 0.9620
-2.3452 -9.1884 -2.0045 0.9620
-2.0157 -9.2660 -2.0045 0.9620
-1.3495 -9.3857 -2.0044 0.9620
-1.0136 -9.4276 -2.0043 0.9620
-0.6764 -9.4576 -2.0042 0.9620
-0.3384 -9.4754 -2.0042 0.9620
0.3384 -9.4748 -2.0040 0.9620
0.6763 -9.4563 -2.0040 0.9620
1.0134 -9.4258 -2.0039 0.9620
2.0149 -9.2623 -2.0037 0.9620
2.6703 -9.0942 -2.0035 0.9620
2.9931 -8.9927 -2.0034 0.9620
3.3120 -8.8798 -2.0033 0.9620
4.2416 -8.4736 -2.0030 0.9620
4.5411 -8.3164 -2.0029 0.9620
6.4544 -6.9325 -2.0022 0.9620
6.6974 -6.6974 -2.0021 0.9620
6.9318 -6.4537 -2.0020 0.9620
7.3738 -5.9421 -2.0018 0.9620
7.9654 -5.1190 -2.0014 0.9620
8.4656 -4.2376 -2.0011 0.9620
8.7454 -3.6225 -2.0009 0.9620
8.8687 -3.3078 -2.0008 0.9620
9.1701 -2.3405 -2.0005 0.9620
9.3663 -1.3467 -2.0002 0.9621
9.4377 -0.6750 -2.0000 0.9621
9.4553 -0.3377 -1.9999 0.9621
-8.5191 -0.3043 -2.0035 0.9656
-8.4763 -0.9113 -2.0036 0.9656
-8.3902 -1.5138 -2.0037 0.9656
-8.3311 -1.8123 -2.0038 0.9656
-8.2614 -2.1086 -2.0039 0.9656
-8.1811 -2.4022 -2.0039 0.9656
-8.0904 -2.6927 -2.0040 0.9656
-7.9893 -2.9799 -2.0040 0.9656
-7.8781 -3.2632 -2.0041 0.9656
-7.7568 -3.5424 -2.0041 0.9656
-7.3341 -4.3515 -2.0043 0.9656
-7.1742 -4.6106 -2.0043 0.9656
-7.0052 -4.8638 -2.0043 0.9656
-6.6406 -5.3513 -2.0044 0.9656
-6.4454 -5.5850 -2.0044 0.9656
-6.0306 -6.0306 -2.0044 0.9656
-5.8116 -6.2421 -2.0044 0.9656
-5.5851 -6.4456 -2.0044 0.9656
-5.3515 -6.6408 -2.0044 0.9656
-5.1111 -6.8276 -2.0044 0.9656
-4.8641 -7.0057 -2.0044 0.9656
-4.3519 -7.3347 -2.0044 0.9656
-4.0873 -7.4854 -2.0044 0.9656
-3.2636 -7.8791 -2.0043 0.9656
-2.9803 -7.9905 -2.0043 0.9656
-1.2135 -8.4404 -2.0041 0.9656
-0.9115 -8.4781 -2.0040 0.9656
-0.6083 -8.5050 -2.0040 0.9656
-0.3043 -8.5211 -2.0039 0.9656
0.9113 -8.4766 -2.0037 0.9656
2.1081 -8.2594 -2.0034 0.9656
3.2616 -7.8741 -2.0031 0.9656
3.5404 -7.7523 -2.0030 0.9656
3.8147 -7.6207 -2.0029 0.9656
4.3482 -7.3285 -2.0027 0.9656
4.6068 -7.1683 -2.0026 0.9656
5.3459 -6.6338 -2.0023 0.9656
5.5790 -6.4385 -2.0023 0.9656
5.8050 -6.2350 -2.0022 0.9656
6.0235 -6.0235 -2.0021 0.9656
6.2344 -5.8044 -2.0020 0.9656
6.6319 -5.3444 -2.0018 0.9656
6.9956 -4.8571 -2.0016 0.9656
7.3236 -4.3453 -2.0014 0.9656
7.8660 -3.2582 -2.0010 0.9656
8.1680 -2.3983 -2.0007 0.9656
8.4247 -1.2113 -2.0004 0.9656
8.4622 -0.9098 -2.0003 0.9656
8.4890 -0.6071 -2.0002 0.9656
8.5049 -0.3037 -2.0001 0.9656
-7.7323 -0.2762 -2.0033 0.9685
-7.7177 -0.5520 -2.0034 0.9685
-7.6934 -0.8271 -2.0034 0.9685
-7.6152 -1.3739 -2.0036 0.9685
-7.4982 -1.9138 -2.0037 0.9685
-7.4253 -2.1803 -2.0037 0.9685
-7.3430 -2.4440 -2.0038 0.9685
-7.2512 -2.7046 -2.0038 0.9685
-7.1503 -2.9617 -2.0039 0.9685
-7.0401 -3.2151 -2.0039 0.9685
-6.9210 -3.4644 -2.0039 0.9685
-6.7931 -3.7093 -2.0040 0.9685
-6.6565 -3.9495 -2.0040 0.9685
-6.5114 -4.1846 -2.0040 0.9685
-6.3580 -4.4144 -2.0041 0.9685
-5.6652 -5.2745 -2.0042 0.9685
-5.2746 -5.6653 -2.0042 0.9685
-4.4147 -6.3583 -2.0042 0.9685
-4.1849 -6.5118 -2.0042 0.9685
-3.2155 -7.0409 -2.0041 0.9685
-2.4443 -7.3440 -2.0041 0.9685
-2.1806 -7.4265 -2.0040 0.9685
-0.8273 -7.6949 -2.0038 0.9685
-0.5521 -7.7193 -2.0038 0.9685
-0.2762 -7.7339 -2.0037 0.9685
0.0000 -7.7386 -2.0037 0.9685
0.2762 -7.7335 -2.0036 0.9685
0.5520 -7.7185 -2.0036 0.9685
0.8272 -7.6936 -2.0035 0.9685
1.1012 -7.6590 -2.0034 0.9685
1.6447 -7.5604 -2.0033 0.9685
2.4432 -7.3405 -2.0031 0.9685
2.7035 -7.2483 -2.0030 0.9685
2.9604 -7.1470 -2.0029 0.9685
3.2135 -7.0365 -2.0029 0.9685
3.4624 -6.9170 -2.0028 0.9685
3.9467 -6.6519 -2.0026 0.9685
4.4108 -6.3528 -2.0025 0.9685
5.0640 -5.8442 -2.0022 0.9686
5.2692 -5.6595 -2.0021 0.9686
5.4676 -5.4675 -2.0020 0.9686
5.6590 -5.2687 -2.0019 0.9686
5.8432 -5.0631 -2.0018 0.9686
6.0199 -4.8511 -2.0018 0.9686
6.1889 -4.6330 -2.0017 0.9686
6.6478 -3.9443 -2.0014 0.9686
6.7841 -3.7044 -2.0013 0.9686
7.0304 -3.2107 -2.0011 0.9686
7.2410 -2.7007 -2.0010 0.9686
7.4146 -2.1771 -2.0008 0.9686
7.6477 -1.0996 -2.0005 0.9686
7.6818 -0.8259 -2.0004 0.9686
7.7206 -0.2757 -2.0003 0.9686
-7.0359 -0.7564 -2.0033 0.9710
-7.0046 -1.0071 -2.0033 0.9710
-6.9153 -1.5043 -2.0034 0.9710
-6.7153 -2.2351 -2.0036 0.9710
-6.3294 -3.1683 -2.0038 0.9710
-6.0874 -3.6118 -2.0038 0.9710
-5.8144 -4.0370 -2.0039 0.9710
-5.6667 -4.2420 -2.0039 0.9710
-5.3497 -4.6356 -2.0039 0.9710
-4.8236 -5.1809 -2.0040 0.9710
-4.6357 -5.3499 -2.0040 0.9710
-4.2422 -5.6669 -2.0040 0.9710
-3.8271 -5.9551 -2.0040 0.9710
-3.3925 -6.2129 -2.0040 0.9710
-3.1685 -6.3300 -2.0039 0.9710
-2.9406 -6.4390 -2.0039 0.9710
-2.7089 -6.5398 -2.0039 0.9710
-2.2354 -6.7162 -2.0039 0.9710
-1.9942 -6.7916 -2.0038 0.9710
-1.0073 -7.0058 -2.0037 0.9710
-0.5049 -7.0595 -2.0036 0.9710
0.0000 -7.0772 -2.0035 0.9710
0.2526 -7.0725 -2.0035 0.9710
0.7565 -7.0361 -2.0033 0.9710
1.2564 -6.9638 -2.0032 0.9710
1.5041 -6.9143 -2.0032 0.9710
1.7499 -6.8560 -2.0031 0.9710
2.9389 -6.4353 -2.0028 0.9710
3.1666 -6.3260 -2.0027 0.9710
3.3902 -6.2088 -2.0026 0.9710
3.6096 -6.0836 -2.0025 0.9710
4.2387 -5.6622 -2.0023 0.9710
4.4379 -5.5071 -2.0022 0.9710
4.6315 -5.3450 -2.0022 0.9710
5.0006 -5.0006 -2.0020 0.9710
5.1757 -4.8187 -2.0019 0.9710
5.3441 -4.6307 -2.0018 0.9710
5.6604 -4.2373 -2.0017 0.9710
5.8078 -4.0324 -2.0016 0.9710
6.3216 -3.1643 -2.0013 0.9710
6.4302 -2.9366 -2.0012 0.9710
6.6228 -2.4702 -2.0010 0.9710
6.7065 -2.2321 -2.0010 0.9710
6.7816 -1.9912 -2.0009 0.9710
6.8481 -1.7479 -2.0008 0.9710
6.9059 -1.5023 -2.0007 0.9710
6.9950 -1.0057 -2.0006 0.9710
7.0617 -0.2522 -2.0004 0.9711
-6.4959 -0.4646 -2.0031 0.9731
-5.7174 -3.1219 -2.0036 0.9731
-5.4802 -3.5219 -2.0037 0.9731
-5.3511 -3.7153 -2.0037 0.9731
-4.9234 -4.2662 -2.0038 0.9731
-4.7681 -4.4392 -2.0038 0.9731
-4.6066 -4.6066 -2.0038 0.9731
-4.0878 -5.0726 -2.0038 0.9731
-3.9042 -5.2153 -2.0038 0.9731
-3.7155 -5.3513 -2.0038 0.9731
-3.1221 -5.7178 -2.0038 0.9731
-2.9161 -5.8255 -2.0038 0.9731
-2.7062 -5.9259 -2.0037 0.9731
-2.2766 -6.1037 -2.0037 0.9731
-1.6110 -6.3118 -2.0036 0.9731
-0.0000 -6.5133 -2.0034 0.9731
1.3843 -6.3635 -2.0031 0.9731
2.4918 -6.0157 -2.0027 0.9731
2.9144 -5.8222 -2.0026 0.9731
3.1203 -5.7143 -2.0025 0.9731
3.3221 -5.5991 -2.0025 0.9731
3.5197 -5.4768 -2.0024 0.9731
3.7128 -5.3474 -2.0023 0.9731
3.9012 -5.2113 -2.0023 0.9731
4.0845 -5.0686 -2.0022 0.9731
4.2627 -4.9194 -2.0021 0.9731
4.4354 -4.7639 -2.0020 0.9731
4.6024 -4.6024 -2.0020 0.9731
4.9187 -4.2620 -2.0018 0.9731
5.0675 -4.0836 -2.0018 0.9731
5.3455 -3.7114 -2.0016 0.9731
5.4744 -3.5181 -2.0015 0.9731
5.9185 -2.7029 -2.0012 0.9731
6.0109 -2.4898 -2.0012 0.9731
6.2420 -1.8328 -2.0010 0.9731
6.3032 -1.6088 -2.0009 0.9731
6.3564 -1.3827 -2.0008 0.9731
6.4015 -1.1549 -2.0007 0.9731
6.4999 -0.2321 -2.0005 0.9731
-6.0254 0.0000 -2.0029 0.9749
-6.0218 -0.2151 -2.0029 0.9749
-6.0104 -0.4299 -2.0030 0.9749
-5.9305 -1.0700 -2.0031 0.9749
-5.7183 -1.9032 -2.0033 0.9749
-5.2900 -2.8885 -2.0035 0.9749
-5.1836 -3.0755 -2.0035 0.9749
-4.8253 -3.6121 -2.0036 0.9749
-4.5553 -3.9472 -2.0036 0.9749
-4.4116 -4.1073 -2.0036 0.9749
-4.2622 -4.2622 -2.0036 0.9749
-3.9473 -4.5554 -2.0036 0.9749
-3.6123 -4.8254 -2.0036 0.9749
-3.2588 -5.0708 -2.0036 0.9749
-2.8887 -5.2903 -2.0036 0.9749
-2.1064 -5.6474 -2.0036 0.9749
-1.6981 -5.7832 -2.0035 0.9749
-1.4906 -5.8400 -2.0035 0.9749
-1.0701 -5.9313 -2.0034 0.9749
-0.6442 -5.9923 -2.0034 0.9749
0.0000 -6.0265 -2.0032 0.9749
0.2151 -6.0225 -2.0032 0.9749
0.4299 -6.0109 -2.0032 0.9749
0.6442 -5.9915 -2.0031 0.9749
1.2808 -5.8879 -2.0030 0.9749
1.9027 -5.7168 -2.0028 0.9749
2.1055 -5.6451 -2.0027 0.9749
2.3056 -5.5662 -2.0027 0.9749
3.0739 -5.1807 -2.0024 0.9749
3.6097 -4.8220 -2.0022 0.9749
3.7794 -4.6899 -2.0022 0.9749
4.1041 -4.4081 -2.0020 0.9749
4.2586 -4.2586 -2.0020 0.9749
4.4078 -4.1038 -2.0019 0.9749
4.8207 -3.6087 -2.0017 0.9749
4.9463 -3.4342 -2.0016 0.9749
5.1783 -3.0724 -2.0015 0.9749
5.3839 -2.6950 -2.0013 0.9749
5.4765 -2.5010 -2.0013 0.9749
5.7119 -1.9011 -2.0011 0.9749
6.0147 -0.2148 -2.0006 0.9749
-5.6006 0.0000 -2.0028 0.9765
-5.5689 -0.5987 -2.0030 0.9765
-5.5441 -0.7971 -2.0030 0.9765
-5.5122 -0.9945 -2.0030 0.9765
-5.3747 -1.5781 -2.0032 0.9765
-5.3150 -1.7690 -2.0032 0.9765
-5.2486 -1.9576 -2.0032 0.9765
-4.9169 -2.6848 -2.0034 0.9765
-4.7129 -3.0288 -2.0034 0.9765
-4.4849 -3.3574 -2.0034 0.9765
-4.1004 -3.8176 -2.0035 0.9765
-3.9616 -3.9616 -2.0035 0.9765
-3.5154 -4.3624 -2.0035 0.9765
-3.3575 -4.4851 -2.0035 0.9765
-3.0289 -4.7131 -2.0035 0.9765
-2.6850 -4.9172 -2.0035 0.9765
-2.3273 -5.0961 -2.0035 0.9765
-1.7692 -5.3156 -2.0034 0.9765
-1.3854 -5.4281 -2.0034 0.9765
-0.7972 -5.5449 -2.0033 0.9765
-0.1999 -5.5980 -2.0032 0.9765
0.1999 -5.5978 -2.0031 0.9765
0.9945 -5.5119 -2.0029 0.9765
1.1905 -5.4727 -2.0029 0.9765
1.9573 -5.2471 -2.0027 0.9765
2.5065 -5.0074 -2.0025 0.9765
3.0272 -4.7103 -2.0023 0.9765
3.1933 -4.5991 -2.0023 0.9765
3.3553 -4.4821 -2.0022 0.9765
3.8148 -4.0974 -2.0020 0.9765
4.0971 -3.8146 -2.0019 0.9765
4.2305 -3.6658 -2.0018 0.9765
4.3585 -3.5123 -2.0017 0.9765
4.4810 -3.3544 -2.0017 0.9765
4.5977 -3.1922 -2.0016 0.9765
4.9121 -2.6822 -2.0014 0.9765
5.1702 -2.1416 -2.0012 0.9765
5.2432 -1.9556 -2.0012 0.9765
5.3095 -1.7672 -2.0011 0.9765
5.4675 -1.1894 -2.0009 0.9765
5.5381 -0.7962 -2.0008 0.9765
5.5628 -0.5980 -2.0008 0.9765
5.5805 -0.3991 -2.0007 0.9765
-5.2261 0.0000 -2.0027 0.9779
-5.2229 -0.1865 -2.0028 0.9779
-5.2130 -0.3728 -2.0028 0.9779
-5.1436 -0.9280 -2.0030 0.9779
-4.5880 -2.5052 -2.0032 0.9779
-4.4957 -2.6674 -2.0033 0.9779
-4.2941 -2.9814 -2.0033 0.9779
-4.1849 -3.1328 -2.0033 0.9779
-3.9508 -3.4234 -2.0034 0.9779
-3.2803 -4.0706 -2.0034 0.9779
-2.9815 -4.2942 -2.0034 0.9779
-2.5054 -4.5883 -2.0034 0.9779
-2.1717 -4.7553 -2.0033 0.9779
-2.0005 -4.8297 -2.0033 0.9779
-1.4728 -5.0157 -2.0033 0.9779
-0.9281 -5.1442 -2.0032 0.9779
-0.7439 -5.1740 -2.0032 0.9779
-0.3729 -5.2137 -2.0031 0.9779
-0.1866 -5.2236 -2.0031 0.9779
-0.0000 -5.2269 -2.0030 0.9779
0.1866 -5.2235 -2.0030 0.9779
0.5587 -5.1966 -2.0029 0.9779
0.7438 -5.1733 -2.0029 0.9779
0.9280 -5.1433 -2.0028 0.9779
1.1110 -5.1068 -2.0028 0.9779
1.4723 -5.0143 -2.0027 0.9779
1.8262 -4.8962 -2.0026 0.9779
2.1707 -4.7532 -2.0025 0.9779
2.3390 -4.6726 -2.0024 0.9779
2.6662 -4.4936 -2.0023 0.9779
2.8248 -4.3955 -2.0023 0.9779
3.1310 -4.1825 -2.0022 0.9779
3.4212 -3.9483 -2.0020 0.9779
3.8233 -3.5596 -2.0019 0.9779
4.0672 -3.2776 -2.0017 0.9779
4.1815 -3.1302 -2.0017 0.9779
4.4918 -2.6651 -2.0015 0.9779
4.6702 -2.3377 -2.0014 0.9779
4.8248 -1.9985 -2.0013 0.9779
4.8929 -1.8249 -2.0012 0.9779
5.1022 -1.1099 -2.0010 0.9779
5.1384 -0.9271 -2.0009 0.9779
5.1681 -0.7431 -2.0009 0.9779
5.1912 -0.5581 -2.0008 0.9779
-1.8977 0.0000 -0.7767 0.9918
-1.9308 -0.0690 -0.7907 0.9917
-1.9524 -0.1396 -0.8011 0.9916
-1.9569 -0.2104 -0.8055 0.9915
-1.9449 -0.2796 -0.8042 0.9915
-4.3766 -2.1908 -2.0031 0.9791
-4.1175 -2.6462 -2.0032 0.9791
-3.8111 -3.0712 -2.0032 0.9791
-3.6991 -3.2053 -2.0032 0.9791
-3.4611 -3.4610 -2.0033 0.9791
-2.9333 -3.9184 -2.0033 0.9791
-2.7916 -4.0206 -2.0033 0.9791
-2.6463 -4.1177 -2.0033 0.9791
-2.3458 -4.2959 -2.0033 0.9791
-1.7105 -4.5859 -2.0032 0.9791
-1.0404 -4.7825 -2.0031 0.9791
-0.8690 -4.8165 -2.0031 0.9791
-0.6965 -4.8444 -2.0031 0.9791
-0.5232 -4.8661 -2.0030 0.9791
-0.3491 -4.8816 -2.0030 0.9791
-0.0000 -4.8939 -2.0030 0.9791
0.6964 -4.8437 -2.0028 0.9791
1.0402 -4.7815 -2.0027 0.9791
1.2101 -4.7412 -2.0027 0.9791
1.3786 -4.6949 -2.0026 0.9791
2.0325 -4.4505 -2.0024 0.9791
2.6449 -4.1155 -2.0022 0.9791
3.2033 -3.6968 -2.0020 0.9791
3.8083 -3.0689 -2.0017 0.9791
3.9153 -2.9309 -2.0017 0.9791
4.0173 -2.7892 -2.0016 0.9791
4.1142 -2.6440 -2.0016 0.9791
4.2921 -2.3436 -2.0015 0.9791
4.3729 -2.1889 -2.0014 0.9791
4.4481 -2.0314 -2.0014 0.9791
4.5814 -1.7088 -2.0012 0.9791
4.6394 -1.5441 -2.0012 0.9791
4.6914 -1.3775 -2.0011 0.9791
4.8114 -0.8681 -2.0010 0.9791
4.8392 -0.6958 -2.0009 0.9791
4.8763 -0.3488 -2.0008 0.9791
4.8855 -0.1745 -2.0008 0.9791
-1.5221 0.0000 -0.6634 0.9934
-1.5001 -0.2706 -0.6643 0.9934
-1.5214 -0.3310 -0.6786 0.9932
-1.5485 -0.3952 -0.6965 0.9931
-1.5707 -0.4612 -0.7134 0.9929
-1.5875 -0.5284 -0.7292 0.9927
-1.5984 -0.5962 -0.7435 0.9926
-3.9527 -2.3453 -2.0031 0.9801
-3.7754 -2.6213 -2.0031 0.9801
-3.6795 -2.7544 -2.0031 0.9801
-3.5789 -2.8840 -2.0031 0.9801
-3.4737 -3.0100 -2.0032 0.9801
-3.2501 -3.2501 -2.0032 0.9801
-3.0100 -3.4737 -2.0032 0.9801
-2.7545 -3.6796 -2.0032 0.9801
-2.4850 -3.8667 -2.0032 0.9801
-2.2028 -4.0341 -2.0032 0.9801
-2.0574 -4.1101 -2.0032 0.9801
-1.9094 -4.1809 -2.0031 0.9801
-1.7589 -4.2464 -2.0031 0.9801
-1.4515 -4.3610 -2.0031 0.9801
-1.2949 -4.4100 -2.0031 0.9801
-1.1366 -4.4533 -2.0031 0.9801
-0.9770 -4.4910 -2.0030 0.9801
-0.8160 -4.5230 -2.0030 0.9801
-0.4913 -4.5696 -2.0030 0.9801
0.6540 -4.5486 -2.0027 0.9801
0.8159 -4.5223 -2.0027 0.9801
1.6057 -4.3051 -2.0025 0.9802
1.7583 -4.2449 -2.0024 0.9802
1.9087 -4.1794 -2.0024 0.9802
2.0566 -4.1085 -2.0023 0.9802
2.6201 -3.7736 -2.0022 0.9802
2.8825 -3.5769 -2.0021 0.9802
3.2481 -3.2480 -2.0019 0.9802
3.4713 -3.0079 -2.0018 0.9802
3.6769 -2.7524 -2.0017 0.9802
3.7727 -2.6194 -2.0016 0.9802
3.8636 -2.4830 -2.0016 0.9802
3.9497 -2.3434 -2.0015 0.9802
4.1066 -2.0556 -2.0014 0.9802
4.1773 -1.9077 -2.0014 0.9802
4.2426 -1.7573 -2.0013 0.9802
4.4866 -0.9760 -2.0011 0.9802
4.5185 -0.8152 -2.0010 0.9802
4.5446 -0.6534 -2.0010 0.9802
4.5649 -0.4908 -2.0009 0.9802
4.5881 -0.1639 -2.0009 0.9802
-1.3333 0.0000 -0.6172 0.9941
-1.3384 -0.0957 -0.6211 0.9941
-1.3273 -0.1908 -0.6207 0.9941
-1.3160 -0.2374 -0.6190 0.9941
-1.3013 -0.2831 -0.6164 0.9941
-1.3116 -0.3348 -0.6266 0.9941
-1.3151 -0.6006 -0.6692 0.9936
-3.8694 -1.9369 -2.0030 0.9811
-3.7979 -2.0738 -2.0030 0.9811
-3.7215 -2.2081 -2.0030 0.9811
-3.5545 -2.4679 -2.0030 0.9811
-3.3694 -2.7153 -2.0031 0.9811
-3.2704 -2.8338 -2.0031 0.9811
-2.9488 -3.1672 -2.0031 0.9811
-2.7153 -3.3695 -2.0031 0.9811
-2.5933 -3.4643 -2.0031 0.9811
-2.4680 -3.5546 -2.0031 0.9811
-1.9370 -3.8696 -2.0031 0.9811
-1.7976 -3.9363 -2.0031 0.9811
-1.6560 -3.9979 -2.0030 0.9811
-1.5122 -4.0544 -2.0030 0.9811
-1.2191 -4.1519 -2.0030 0.9811
-1.0701 -4.1928 -2.0030 0.9811
-0.3087 -4.3159 -2.0029 0.9811
0.0000 -4.3268 -2.0028 0.9811
0.3087 -4.3156 -2.0027 0.9811
0.6157 -4.2825 -2.0027 0.9811
0.9196 -4.2275 -2.0026 0.9811
1.2188 -4.1509 -2.0025 0.9811
1.5118 -4.0532 -2.0024 0.9811
1.6555 -3.9966 -2.0024 0.9811
2.0731 -3.7965 -2.0023 0.9811
2.3385 -3.6388 -2.0022 0.9811
2.7139 -3.3677 -2.0020 0.9811
2.8323 -3.2686 -2.0020 0.9811
2.9471 -3.1654 -2.0019 0.9811
3.0581 -3.0581 -2.0019 0.9811
3.2683 -2.8320 -2.0018 0.9811
3.3672 -2.7135 -2.0017 0.9811
3.4618 -2.5915 -2.0017 0.9811
3.5520 -2.4662 -2.0016 0.9811
3.6377 -2.3378 -2.0016 0.9811
3.9330 -1.7961 -2.0014 0.9811
4.1022 -1.3653 -2.0013 0.9811
4.1482 -1.2180 -2.0012 0.9811
4.1890 -1.0692 -2.0012 0.9811
4.2544 -0.7676 -2.0011 0.9811
4.2790 -0.6152 -2.0010 0.9811
4.2981 -0.4621 -2.0010 0.9811
4.3118 -0.3084 -2.0009 0.9811
4.3199 -0.1543 -2.0009 0.9811
-1.1921 -0.1282 -0.5881 0.9947
-1.1867 -0.1706 -0.5881 0.9947
-1.1695 -0.2544 -0.5871 0.9947
-1.1590 -0.3403 -0.5925 0.9946
-1.1578 -0.3854 -0.5986 0.9946
-1.1484 -0.4757 -0.6097 0.9945
-1.1400 -0.5206 -0.6148 0.9944
-1.1291 -0.5652 -0.6194 0.9944
-3.3541 -2.3288 -2.0030 0.9820
-3.2689 -2.4471 -2.0030 0.9820
-3.0860 -2.6740 -2.0030 0.9820
-2.9886 -2.7825 -2.0030 0.9820
-2.8874 -2.8874 -2.0030 0.9820
-2.2077 -3.4352 -2.0030 0.9820
-1.6963 -3.7144 -2.0030 0.9820
-1.5626 -3.7725 -2.0030 0.9820
-1.4270 -3.8258 -2.0030 0.9820
-1.2895 -3.8743 -2.0029 0.9820
-1.0098 -3.9564 -2.0029 0.9820
-0.7250 -4.0183 -2.0029 0.9820
-0.4365 -4.0596 -2.0028 0.9820
-0.1457 -4.0803 -2.0028 0.9820
0.1457 -4.0802 -2.0027 0.9820
0.4364 -4.0593 -2.0027 0.9820
0.5810 -4.0411 -2.0026 0.9820
0.8678 -3.9892 -2.0026 0.9820
1.1501 -3.9170 -2.0025 0.9820
1.2892 -3.8733 -2.0024 0.9820
1.6957 -3.7131 -2.0023 0.9820
2.0828 -3.5103 -2.0022 0.9820
2.3278 -3.3527 -2.0021 0.9820
2.5609 -3.1779 -2.0020 0.9820
2.6727 -3.0844 -2.0020 0.9820
2.8858 -2.8858 -2.0019 0.9820
3.1775 -2.5606 -2.0017 0.9820
3.2668 -2.4455 -2.0017 0.9820
3.3519 -2.3273 -2.0016 0.9820
3.4328 -2.2061 -2.0016 0.9820
3.5092 -2.0821 -2.0016 0.9820
3.5812 -1.9555 -2.0015 0.9820
3.7115 -1.6950 -2.0014 0.9820
3.7695 -1.5614 -2.0014 0.9820
3.8227 -1.4258 -2.0013 0.9820
3.8711 -1.2884 -2.0013 0.9820
3.9145 -1.1494 -2.0012 0.9820
3.9530 -1.0089 -2.0012 0.9820
3.9864 -0.8672 -2.0011 0.9820
-1.1055 -0.0791 -0.5750 0.9950
-1.1024 -0.1185 -0.5752 0.9950
-1.0905 -0.1967 -0.5749 0.9950
-1.0636 -0.3123 -0.5751 0.9950
-1.0617 -0.3534 -0.5805 0.9950
-1.0576 -0.3945 -0.5856 0.9949
-1.0118 -0.5525 -0.5981 0.9948
-0.9917 -0.5884 -0.5982 0.9948
-3.2479 -2.0873 -2.0029 0.9828
-3.0907 -2.3137 -2.0029 0.9828
-3.0062 -2.4225 -2.0029 0.9828
-2.8257 -2.6308 -2.0029 0.9828
-2.7300 -2.7300 -2.0029 0.9828
-2.6309 -2.8258 -2.0029 0.9828
-2.0873 -3.2480 -2.0029 0.9828
-1.8503 -3.3886 -2.0029 0.9828
-1.7282 -3.4525 -2.0029 0.9828
-1.6038 -3.5119 -2.0029 0.9828
-1.4775 -3.5669 -2.0029 0.9828
-1.0877 -3.7043 -2.0029 0.9828
-0.9548 -3.7408 -2.0028 0.9828
-0.6855 -3.7993 -2.0028 0.9828
-0.5494 -3.8213 -2.0028 0.9828
0.2754 -3.8504 -2.0026 0.9828
0.5494 -3.8209 -2.0026 0.9828
0.6854 -3.7988 -2.0025 0.9828
0.8205 -3.7718 -2.0025 0.9828
0.9546 -3.7400 -2.0025 0.9828
1.2189 -3.6623 -2.0024 0.9828
1.3488 -3.6164 -2.0024 0.9828
1.4770 -3.5659 -2.0023 0.9828
1.6033 -3.5108 -2.0023 0.9828
1.8496 -3.3873 -2.0022 0.9828
1.9693 -3.3191 -2.0022 0.9828
2.0865 -3.2466 -2.0021 0.9828
2.2010 -3.1700 -2.0021 0.9828
2.3127 -3.0894 -2.0020 0.9828
2.5271 -2.9164 -2.0020 0.9828
2.6295 -2.8243 -2.0019 0.9828
2.7286 -2.7286 -2.0019 0.9828
3.2458 -2.0859 -2.0016 0.9828
3.3862 -1.8490 -2.0015 0.9828
3.5093 -1.6026 -2.0014 0.9828
3.5642 -1.4763 -2.0014 0.9828
3.6146 -1.3481 -2.0013 0.9828
3.6603 -1.2183 -2.0013 0.9828
3.7693 -0.8199 -2.0012 0.9828
3.8181 -0.5489 -2.0011 0.9828
3.8474 -0.2752 -2.0010 0.9828
-1.0269 0.0000 -0.5625 0.9953
-1.0276 -0.0367 -0.5632 0.9953
-1.0265 -0.0734 -0.5637 0.9953
-1.0236 -0.1100 -0.5639 0.9953
-1.0190 -0.1465 -0.5638 0.9953
-1.0124 -0.1826 -0.5634 0.9953
-0.9785 -0.3257 -0.5648 0.9953
-0.9741 -0.3633 -0.5694 0.9953
-0.9677 -0.4008 -0.5737 0.9952
-0.9580 -0.4375 -0.5768 0.9952
-0.8882 -0.5708 -0.5782 0.9952
-2.9274 -2.1914 -2.0028 0.9835
-2.7636 -2.3947 -2.0029 0.9835
-2.6764 -2.4918 -2.0029 0.9835
-2.5858 -2.5858 -2.0029 0.9835
-2.4918 -2.6764 -2.0029 0.9835
-2.3947 -2.7637 -2.0029 0.9835
-2.2946 -2.8474 -2.0029 0.9835
-2.1915 -2.9275 -2.0029 0.9835
-2.0856 -3.0038 -2.0029 0.9835
-1.9771 -3.0763 -2.0029 0.9835
-1.5191 -3.3264 -2.0029 0.9835
-1.0302 -3.5086 -2.0028 0.9835
-0.9043 -3.5431 -2.0028 0.9835
-0.6492 -3.5985 -2.0028 0.9835
-0.5204 -3.6194 -2.0027 0.9835
-0.3909 -3.6356 -2.0027 0.9835
0.0000 -3.6564 -2.0026 0.9835
0.3908 -3.6353 -2.0026 0.9835
0.5203 -3.6190 -2.0025 0.9835
0.6492 -3.5981 -2.0025 0.9835
0.9042 -3.5425 -2.0024 0.9835
1.2776 -3.4254 -2.0023 0.9835
1.3990 -3.3775 -2.0023 0.9835
1.6363 -3.2690 -2.0022 0.9835
1.7519 -3.2084 -2.0022 0.9835
2.1905 -2.9262 -2.0020 0.9835
2.2935 -2.8461 -2.0020 0.9835
2.5845 -2.5845 -2.0019 0.9835
2.7622 -2.3934 -2.0018 0.9835
3.1429 -1.8647 -2.0016 0.9835
3.2074 -1.7513 -2.0015 0.9835
3.3760 -1.3984 -2.0014 0.9835
3.4237 -1.2770 -2.0014 0.9835
3.5404 -0.9036 -2.0012 0.9835
3.5957 -0.6487 -2.0012 0.9835
3.6165 -0.5200 -2.0011 0.9835
3.6327 -0.3905 -2.0011 0.9835
3.6443 -0.2606 -2.0011 0.9835
3.6512 -0.1304 -2.0010 0.9835
-0.9570 0.0000 -0.5525 0.9956
-0.9575 -0.0342 -0.5532 0.9956
-0.9538 -0.1025 -0.5538 0.9956
-0.9492 -0.1365 -0.5537 0.9956
-0.9011 -0.3361 -0.5553 0.9956
-0.8941 -0.3703 -0.5587 0.9955
-0.8364 -0.4963 -0.5615 0.9955
-0.8178 -0.5256 -0.5613 0.9955
-0.7846 -0.5873 -0.5658 0.9955
-2.6217 -2.2717 -2.0028 0.9841
-2.5389 -2.3638 -2.0028 0.9841
-2.4529 -2.4529 -2.0028 0.9841
-2.3638 -2.5389 -2.0028 0.9841
-2.2717 -2.6217 -2.0028 0.9841
-1.8755 -2.9183 -2.0028 0.9841
-1.7701 -2.9834 -2.0028 0.9841
-1.6625 -3.0446 -2.0028 0.9841
-1.5528 -3.1020 -2.0028 0.9841
-1.3275 -3.2049 -2.0028 0.9841
-1.2123 -3.2502 -2.0028 0.9841
-0.8579 -3.3611 -2.0027 0.9841
-0.7373 -3.3895 -2.0027 0.9841
-0.4936 -3.4334 -2.0027 0.9841
-0.2475 -3.4598 -2.0026 0.9841
-0.1238 -3.4664 -2.0026 0.9841
0.0000 -3.4686 -2.0026 0.9841
0.1238 -3.4663 -2.0026 0.9841
0.2474 -3.4596 -2.0025 0.9841
0.3708 -3.4486 -2.0025 0.9841
1.2120 -3.2494 -2.0023 0.9841
1.5523 -3.1011 -2.0022 0.9841
1.6620 -3.0436 -2.0022 0.9841
2.1758 -2.6999 -2.0020 0.9841
2.5377 -2.3626 -2.0018 0.9841
2.7755 -2.0777 -2.0017 0.9841
3.1000 -1.5517 -2.0015 0.9841
1.8508 -0.8452 -1.1747 0.9906
1.9616 -0.5007 -1.1688 0.9907
1.9883 -0.4325 -1.1748 0.9906
2.0153 -0.3636 -1.1823 0.9906
2.0366 -0.2189 -1.1826 0.9906
2.0359 -0.1456 -1.1784 0.9906
2.0320 -0.0726 -1.1739 0.9907
